<?xml version="1.0" ?>
<svg xmlns="http://www.w3.org/2000/svg" version="1.1" width="224" height="224">
  <defs/>
  <g>
    <path d="M 87.24837493896484 50.6209831237793 C 100.50017547607422 72.52911376953125 124.3182601928711 117.07986450195312 116.08336639404297 154.0623016357422" stroke-width="5.2943949699401855" fill="none" stroke="rgb(57, 141, 62)" stroke-opacity="1.0" stroke-linecap="round" stroke-linejoin="round"/>
    <path d="M 75.9799575805664 49.45452880859375 C 63.5006103515625 59.941322326660156 45.93257141113281 81.54779815673828 53.629241943359375 87.97815704345703 C 69.67842102050781 94.76815032958984 74.31597137451172 60.14793395996094 76.04086303710938 50.84684753417969" stroke-width="14.050633430480957" fill="none" stroke="rgb(133, 48, 142)" stroke-opacity="0.99855" stroke-linecap="round" stroke-linejoin="round"/>
    <path d="M 67.64239501953125 47.16729736328125 C 56.71858215332031 54.85232162475586 22.720674514770508 41.602142333984375 23.7958984375 39.706417083740234 C 21.808576583862305 34.63671875 56.29551315307617 33.76460266113281 67.276611328125 40.93666076660156" stroke-width="14.05821704864502" fill="none" stroke="rgb(134, 47, 141)" stroke-opacity="1.0" stroke-linecap="round" stroke-linejoin="round"/>
    <path d="M 75.21988677978516 36.635433197021484 C 80.33130645751953 19.86484718322754 87.2591323852539 15.439805030822754 91.32540130615234 16.91158103942871 C 95.29936218261719 18.604734420776367 90.83807373046875 29.61682891845703 82.59068298339844 38.70429229736328" stroke-width="14.088262557983398" fill="none" stroke="rgb(133, 47, 141)" stroke-opacity="1.0" stroke-linecap="round" stroke-linejoin="round"/>
    <path d="M 89.83709716796875 43.22822570800781 C 111.82284545898438 43.590763092041016 129.43910217285156 47.3106689453125 129.29299926757812 55.64397048950195 C 129.3351593017578 63.80236053466797 97.09841918945312 58.82150650024414 87.09243774414062 50.72891616821289" stroke-width="14.043937683105469" fill="none" stroke="rgb(134, 48, 141)" stroke-opacity="0.99936336" stroke-linecap="round" stroke-linejoin="round"/>
    <path d="M 80.90340423583984 50.83139419555664 C 78.53970336914062 50.73204803466797 70.58165740966797 51.61414337158203 70.21904754638672 47.62421798706055 C 69.8639144897461 43.79359436035156 67.71846008300781 38.94406509399414 76.353759765625 39.682273864746094 C 85.0247802734375 40.663856506347656 85.66426849365234 38.50947189331055 86.79315185546875 44.09722900390625 C 90.61685180664062 52.70558166503906 73.51917266845703 51.481590270996094 70.21134185791016 47.608943939208984" stroke-width="13.533768653869629" fill="none" stroke="rgb(255, 176, 73)" stroke-opacity="1.0" stroke-linecap="round" stroke-linejoin="round"/>
    <path d="M 65.10201263427734 71.23837280273438 C 62.694210052490234 55.40983581542969 61.895233154296875 72.76028442382812 55.34785079956055 87.6075439453125 C 48.33521270751953 67.98518371582031 46.72071075439453 60.45086669921875 54.43662643432617 62.74882125854492" stroke-width="4.123934268951416" fill="none" stroke="rgb(164, 192, 186)" stroke-opacity="0.9472905" stroke-linecap="round" stroke-linejoin="round"/>
    <path d="M 48.323612213134766 49.89731979370117 C 37.08988571166992 46.79668045043945 32.49514389038086 47.8914680480957 32.46461486816406 64.77019500732422 C 20.658905029296875 56.598358154296875 19.59099578857422 63.29203796386719 22.162715911865234 54.25967788696289 C 20.679161071777344 45.19319152832031 26.18097496032715 35.88862609863281 45.154361724853516 24.564542770385742" stroke-width="5.748954772949219" fill="none" stroke="rgb(88, 0, 255)" stroke-opacity="0.7754512" stroke-linecap="round" stroke-linejoin="round"/>
    <path d="M 32.602996826171875 -1.5612717866897583 C 36.99547576904297 -4.203030586242676 33.98000717163086 2.8129830360412598 32.962703704833984 -7.383437156677246 C 38.082374572753906 -1.0630512237548828 39.45122146606445 -7.911330223083496 50.53217315673828 -2.1451315879821777" stroke-width="2.0" fill="none" stroke="rgb(164, 210, 95)" stroke-opacity="0.2368724" stroke-linecap="round" stroke-linejoin="round"/>
    <path d="M 215.0712127685547 60.142826080322266 C 224.83279418945312 53.636844635009766 231.3468780517578 50.16206359863281 241.90069580078125 58.37020492553711 C 237.818359375 57.13359069824219 245.77342224121094 57.68950653076172 248.47152709960938 67.81490325927734" stroke-width="2.0" fill="none" stroke="rgb(163, 159, 159)" stroke-opacity="0.17871067" stroke-linecap="round" stroke-linejoin="round"/>
    <path d="M 144.24850463867188 55.99923324584961 C 147.0505828857422 52.28044891357422 139.86978149414062 44.172088623046875 129.28585815429688 52.00381088256836" stroke-width="2.0" fill="none" stroke="rgb(123, 147, 164)" stroke-opacity="0.016809834" stroke-linecap="round" stroke-linejoin="round"/>
    <path d="M 39.90120315551758 31.267358779907227 C 37.27229309082031 28.726520538330078 47.404327392578125 30.356155395507812 41.81654357910156 24.532493591308594 C 53.235965728759766 28.38263702392578 58.83180236816406 29.534650802612305 58.694522857666016 40.37390899658203 C 71.52044677734375 52.630699157714844 61.06948471069336 39.31049728393555 66.68770599365234 46.449954986572266" stroke-width="2.0" fill="none" stroke="rgb(193, 132, 139)" stroke-opacity="0.16901425" stroke-linecap="round" stroke-linejoin="round"/>
    <path d="M 82.15599822998047 49.09761428833008 C 85.23362731933594 50.112430572509766 96.62220001220703 49.12968063354492 81.46800994873047 42.9366569519043 C 88.27334594726562 42.70184326171875 95.0643310546875 27.194828033447266 109.34699249267578 32.14268493652344 C 108.67239379882812 48.16157150268555 99.90176391601562 41.068626403808594 94.10086822509766 32.9595947265625" stroke-width="2.0" fill="none" stroke="rgb(47, 0, 41)" stroke-opacity="1.0" stroke-linecap="round" stroke-linejoin="round"/>
    <path d="M 132.7845001220703 9.696375846862793 C 147.34024047851562 11.300053596496582 156.85948181152344 12.249157905578613 165.935791015625 13.063907623291016 C 161.70779418945312 14.618122100830078 167.08433532714844 3.2058463096618652 165.41188049316406 -2.142608165740967 C 170.90032958984375 6.076018810272217 179.58612060546875 16.820709228515625 186.44268798828125 30.01896095275879" stroke-width="2.0" fill="none" stroke="rgb(78, 224, 105)" stroke-opacity="0.70359504" stroke-linecap="round" stroke-linejoin="round"/>
    <path d="M 29.661874771118164 32.4835205078125 C 21.01616096496582 31.124170303344727 12.803128242492676 23.290102005004883 26.237110137939453 14.510722160339355 C 22.89276123046875 17.756303787231445 19.292383193969727 20.084142684936523 19.812253952026367 23.91464614868164 C 23.347795486450195 19.9268741607666 20.590208053588867 25.051090240478516 20.142980575561523 21.813390731811523" stroke-width="2.0" fill="none" stroke="rgb(138, 199, 33)" stroke-opacity="0.05578064" stroke-linecap="round" stroke-linejoin="round"/>
    <path d="M 225.16175842285156 51.11238479614258 C 229.8546905517578 50.25130844116211 229.1536407470703 50.260677337646484 230.52896118164062 54.72941970825195" stroke-width="2.0" fill="none" stroke="rgb(61, 150, 218)" stroke-opacity="0.0" stroke-linecap="round" stroke-linejoin="round"/>
    <path d="M 94.2527847290039 87.10387420654297 C 92.57129669189453 104.37615203857422 98.27127075195312 114.58390808105469 105.37651062011719 110.38233947753906 C 109.15587615966797 120.89176177978516 107.22924041748047 130.0377655029297 92.71659088134766 121.43771362304688 C 86.13324737548828 127.76749420166016 80.67375183105469 137.15806579589844 80.82360076904297 155.9017791748047" stroke-width="4.598554611206055" fill="none" stroke="rgb(247, 99, 125)" stroke-opacity="0.7569712" stroke-linecap="round" stroke-linejoin="round"/>
    <path d="M 164.565185546875 62.87853240966797 C 163.96176147460938 59.89155197143555 156.0568389892578 65.37171936035156 151.12020874023438 74.0333023071289 C 152.5524444580078 82.28067779541016 140.77920532226562 76.40889739990234 144.53616333007812 79.52174377441406 C 149.3359832763672 87.77421569824219 148.0985107421875 84.61660766601562 138.1493682861328 86.50585174560547" stroke-width="2.0" fill="none" stroke="rgb(128, 233, 135)" stroke-opacity="0.7620058" stroke-linecap="round" stroke-linejoin="round"/>
    <path d="M 194.69174194335938 4.750254154205322 C 207.3658447265625 6.5879387855529785 213.14511108398438 9.414714813232422 207.17318725585938 11.05322265625 C 212.1331329345703 5.925399303436279 214.94332885742188 13.31965446472168 209.8715362548828 8.350309371948242 C 204.65316772460938 12.20865249633789 205.4496307373047 8.682832717895508 215.6901092529297 10.254195213317871" stroke-width="2.5176265239715576" fill="none" stroke="rgb(97, 18, 45)" stroke-opacity="0.18652673" stroke-linecap="round" stroke-linejoin="round"/>
    <path d="M 32.14840316772461 12.563719749450684 C 23.657957077026367 -7.902817726135254 24.68499755859375 -1.1627370119094849 8.097073554992676 0.42675453424453735 C -5.245970249176025 0.12407127022743225 7.831465244293213 6.274295806884766 1.1842129230499268 -4.67429780960083 C -2.068298578262329 -1.3963871002197266 -1.7283449172973633 -11.93506908416748 -12.091465950012207 -22.563230514526367" stroke-width="2.0" fill="none" stroke="rgb(79, 139, 85)" stroke-opacity="0.5739227" stroke-linecap="round" stroke-linejoin="round"/>
    <path d="M 24.095592498779297 16.245561599731445 C 22.98932647705078 -0.4706041216850281 24.989355087280273 -1.124428629875183 27.928977966308594 5.822208881378174 C 18.29367446899414 14.041703224182129 9.228303909301758 21.680435180664062 10.957732200622559 19.65685272216797 C 12.203533172607422 33.2279167175293 11.34992790222168 26.858901977539062 11.964700698852539 33.40021514892578" stroke-width="2.5718533992767334" fill="none" stroke="rgb(205, 48, 67)" stroke-opacity="0.16049834" stroke-linecap="round" stroke-linejoin="round"/>
    <path d="M 50.874576568603516 94.47583770751953 C 47.2353401184082 98.15782928466797 46.06037902832031 111.9107894897461 48.60080337524414 117.14642333984375" stroke-width="2.8760793209075928" fill="none" stroke="rgb(210, 109, 152)" stroke-opacity="0.95332783" stroke-linecap="round" stroke-linejoin="round"/>
    <path d="M 119.61058044433594 96.63590240478516 C 101.61481475830078 100.57086181640625 101.83385467529297 100.68016052246094 103.08961486816406 92.89891815185547" stroke-width="2.1145994663238525" fill="none" stroke="rgb(45, 67, 40)" stroke-opacity="0.2397729" stroke-linecap="round" stroke-linejoin="round"/>
    <path d="M 63.26904296875 93.68439483642578 C 55.86298751831055 106.81759643554688 58.0295524597168 113.11214447021484 58.50062561035156 118.87195587158203 C 65.5439682006836 112.4578857421875 59.2191047668457 123.42082214355469 42.1677360534668 117.95719146728516" stroke-width="2.4114692211151123" fill="none" stroke="rgb(76, 59, 50)" stroke-opacity="0.6291031" stroke-linecap="round" stroke-linejoin="round"/>
    <path d="M 110.24049377441406 29.35224723815918 C 104.68950653076172 28.91899299621582 111.16050720214844 30.616100311279297 107.66545104980469 13.918732643127441" stroke-width="2.7658238410949707" fill="none" stroke="rgb(174, 255, 75)" stroke-opacity="0.13744162" stroke-linecap="round" stroke-linejoin="round"/>
    <path d="M -0.5494785904884338 80.1256103515625 C 14.464924812316895 72.98873138427734 18.22035789489746 66.80391693115234 17.659503936767578 69.29680633544922" stroke-width="2.0" fill="none" stroke="rgb(145, 254, 98)" stroke-opacity="0.5193939" stroke-linecap="round" stroke-linejoin="round"/>
    <path d="M 130.65040588378906 32.475440979003906 C 126.45867919921875 27.255661010742188 115.1017837524414 27.401330947875977 126.27436828613281 40.47441864013672 C 118.63695526123047 46.97517395019531 126.5503158569336 52.64817428588867 124.88735961914062 58.4021110534668" stroke-width="2.2307918071746826" fill="none" stroke="rgb(44, 194, 74)" stroke-opacity="0.0071873246" stroke-linecap="round" stroke-linejoin="round"/>
    <path d="M 86.75205993652344 4.395124912261963 C 94.28849792480469 -4.242339134216309 102.28446960449219 -0.48352760076522827 104.12752532958984 4.495450496673584 C 108.16575622558594 7.713162899017334 101.67211151123047 15.196758270263672 105.6723861694336 13.850542068481445" stroke-width="2.0" fill="none" stroke="rgb(37, 87, 88)" stroke-opacity="0.0" stroke-linecap="round" stroke-linejoin="round"/>
    <path d="M 42.02543640136719 109.19046020507812 C 24.555606842041016 112.58040618896484 23.365644454956055 99.1269760131836 29.418914794921875 96.04859924316406" stroke-width="4.277831554412842" fill="none" stroke="rgb(35, 0, 212)" stroke-opacity="0.9278138" stroke-linecap="round" stroke-linejoin="round"/>
    <path d="M 126.4028091430664 77.16485595703125 C 120.2795181274414 83.06877136230469 123.48370361328125 76.36750030517578 115.38141632080078 78.8917007446289 C 111.69497680664062 73.97358703613281 111.58197021484375 83.40613555908203 113.34227752685547 93.24419403076172 C 109.26752471923828 92.36334228515625 118.26757049560547 81.83782958984375 127.77375030517578 86.5743637084961" stroke-width="2.771379232406616" fill="none" stroke="rgb(17, 201, 176)" stroke-opacity="0.08337867" stroke-linecap="round" stroke-linejoin="round"/>
    <path d="M 123.96245574951172 2.5253682136535645 C 115.1926498413086 3.2078733444213867 103.07159423828125 2.813227891921997 98.3982162475586 12.965242385864258 C 98.53311920166016 19.553102493286133 95.9710693359375 22.426776885986328 98.90458679199219 31.662137985229492" stroke-width="2.0" fill="none" stroke="rgb(82, 241, 209)" stroke-opacity="0.0047151274" stroke-linecap="round" stroke-linejoin="round"/>
    <path d="M 53.7114143371582 87.85099029541016 C 64.39247131347656 89.9986572265625 65.94297790527344 83.3934097290039 74.06647491455078 70.97593688964844 C 65.56815338134766 67.24519348144531 59.068016052246094 69.23544311523438 59.744422912597656 76.2464828491211 C 46.881561279296875 79.7035903930664 63.39906311035156 87.84126281738281 51.56007766723633 87.84054565429688" stroke-width="2.4382166862487793" fill="none" stroke="rgb(160, 157, 237)" stroke-opacity="0.26372263" stroke-linecap="round" stroke-linejoin="round"/>
    <path d="M 50.000099182128906 3.1599929332733154 C 49.708824157714844 3.300339460372925 55.088462829589844 8.491436958312988 52.79710006713867 6.7337446212768555" stroke-width="2.0" fill="none" stroke="rgb(232, 127, 181)" stroke-opacity="0.102057934" stroke-linecap="round" stroke-linejoin="round"/>
    <path d="M 183.50677490234375 25.72249412536621 C 180.95042419433594 28.991064071655273 169.02053833007812 28.332984924316406 166.29620361328125 28.67058563232422 C 161.97445678710938 23.05984878540039 173.34266662597656 18.73271942138672 182.8248748779297 23.729291915893555" stroke-width="2.0" fill="none" stroke="rgb(151, 255, 172)" stroke-opacity="0.6300695" stroke-linecap="round" stroke-linejoin="round"/>
    <path d="M 137.79710388183594 92.89249420166016 C 144.06056213378906 90.5833969116211 135.50440979003906 99.82367706298828 142.4407196044922 105.14873504638672 C 139.05491638183594 100.39322662353516 139.97654724121094 100.52021026611328 141.34075927734375 112.20594787597656" stroke-width="2.0" fill="none" stroke="rgb(216, 255, 216)" stroke-opacity="0.8599769" stroke-linecap="round" stroke-linejoin="round"/>
    <path d="M 59.630882263183594 16.3448486328125 C 50.11409378051758 21.626453399658203 39.342220306396484 17.490095138549805 27.704082489013672 28.442045211791992 C 27.47509002685547 14.289656639099121 17.456235885620117 17.286354064941406 12.570694923400879 9.005903244018555" stroke-width="2.0" fill="none" stroke="rgb(169, 140, 128)" stroke-opacity="0.9064202" stroke-linecap="round" stroke-linejoin="round"/>
    <path d="M 202.6790771484375 91.95793914794922 C 194.45294189453125 92.42268371582031 203.99644470214844 96.54914855957031 213.28475952148438 108.16085052490234 C 203.04425048828125 110.24983215332031 193.506103515625 115.99433898925781 184.96047973632812 113.04932403564453" stroke-width="2.0" fill="none" stroke="rgb(125, 79, 21)" stroke-opacity="0.84035635" stroke-linecap="round" stroke-linejoin="round"/>
    <path d="M 68.60163879394531 67.53205108642578 C 73.29602813720703 80.83133697509766 65.68708801269531 91.97113037109375 80.94458770751953 89.01362609863281" stroke-width="5.260871410369873" fill="none" stroke="rgb(74, 66, 255)" stroke-opacity="0.9987758" stroke-linecap="round" stroke-linejoin="round"/>
  </g>
</svg>
