<?xml version="1.0" ?>
<svg xmlns="http://www.w3.org/2000/svg" version="1.1" width="224" height="224">
  <defs/>
  <g>
    <path d="M 87.17129516601562 50.604400634765625 C 100.45172882080078 72.44210815429688 124.1718978881836 117.13385009765625 116.04605102539062 154.1495819091797" stroke-width="5.101718902587891" fill="none" stroke="rgb(57, 140, 62)" stroke-opacity="1.0" stroke-linecap="round" stroke-linejoin="round"/>
    <path d="M 75.99122619628906 49.4618034362793 C 63.563133239746094 60.020530700683594 45.96321105957031 81.59469604492188 53.644412994384766 87.926513671875 C 69.6270751953125 94.74164581298828 74.19361877441406 60.07951736450195 76.07211303710938 50.95088195800781" stroke-width="14.133838653564453" fill="none" stroke="rgb(134, 48, 141)" stroke-opacity="1.0" stroke-linecap="round" stroke-linejoin="round"/>
    <path d="M 67.60543060302734 47.07279968261719 C 56.69313430786133 54.82002258300781 22.740028381347656 41.48835754394531 23.817184448242188 39.61712646484375 C 21.815038681030273 34.690277099609375 56.296424865722656 33.71706008911133 67.22300720214844 40.936954498291016" stroke-width="14.015899658203125" fill="none" stroke="rgb(134, 47, 141)" stroke-opacity="0.9993988" stroke-linecap="round" stroke-linejoin="round"/>
    <path d="M 75.3003158569336 36.583648681640625 C 80.12786102294922 19.633106231689453 87.04772186279297 15.193608283996582 91.26261901855469 16.84467124938965 C 95.49493408203125 18.569286346435547 90.76521301269531 29.665386199951172 82.66802978515625 38.8559684753418" stroke-width="14.0624418258667" fill="none" stroke="rgb(134, 48, 141)" stroke-opacity="1.0" stroke-linecap="round" stroke-linejoin="round"/>
    <path d="M 89.79601287841797 43.18293762207031 C 111.83710479736328 43.60850524902344 129.40892028808594 47.32978820800781 129.37071228027344 55.62478256225586 C 129.37078857421875 63.89316940307617 97.08421325683594 58.85476303100586 87.2042465209961 50.585731506347656" stroke-width="14.023114204406738" fill="none" stroke="rgb(134, 47, 141)" stroke-opacity="0.9997629" stroke-linecap="round" stroke-linejoin="round"/>
    <path d="M 80.92626190185547 50.880348205566406 C 78.47017669677734 50.75104904174805 70.56102752685547 51.469444274902344 70.17860412597656 47.68912887573242 C 69.83333587646484 43.84397888183594 67.7364730834961 39.00556945800781 76.40376281738281 39.79682540893555 C 85.09766387939453 40.575252532958984 85.6601791381836 38.615806579589844 86.79222106933594 44.08441925048828 C 90.66040802001953 52.684329986572266 73.48388671875 51.48798370361328 70.24152374267578 47.70314407348633" stroke-width="13.597051620483398" fill="none" stroke="rgb(235, 189, 67)" stroke-opacity="1.0" stroke-linecap="round" stroke-linejoin="round"/>
    <path d="M 148.24969482421875 5.369293689727783 C 157.4351806640625 12.887197494506836 161.9625701904297 11.044821739196777 161.60787963867188 7.664371490478516 C 166.54580688476562 7.086851596832275 161.6435546875 8.04494857788086 161.413818359375 7.8145432472229 C 169.73040771484375 4.622251033782959 179.52549743652344 2.368479013442993 181.43809509277344 0.03050146996974945" stroke-width="2.0" fill="none" stroke="rgb(211, 168, 161)" stroke-opacity="0.5619766" stroke-linecap="round" stroke-linejoin="round"/>
    <path d="M 35.36408615112305 25.215913772583008 C 44.450523376464844 25.890579223632812 43.867462158203125 40.0925407409668 28.03325080871582 34.9273796081543 C 27.372201919555664 37.521732330322266 31.16046905517578 36.68427276611328 37.865455627441406 44.63872528076172 C 19.962142944335938 50.650753021240234 7.480057239532471 54.27003479003906 14.893346786499023 45.91603088378906" stroke-width="2.001459836959839" fill="none" stroke="rgb(46, 0, 38)" stroke-opacity="0.18001945" stroke-linecap="round" stroke-linejoin="round"/>
    <path d="M 130.341552734375 72.32703399658203 C 131.69384765625 73.5511474609375 129.58473205566406 78.5188980102539 134.9361114501953 82.28811645507812" stroke-width="2.0" fill="none" stroke="rgb(224, 191, 220)" stroke-opacity="0.12919745" stroke-linecap="round" stroke-linejoin="round"/>
    <path d="M 39.742706298828125 -0.4216076135635376 C 58.982994079589844 7.028800010681152 70.5835952758789 5.449389457702637 80.0550537109375 -2.760768413543701" stroke-width="2.2022206783294678" fill="none" stroke="rgb(20, 255, 119)" stroke-opacity="0.79962" stroke-linecap="round" stroke-linejoin="round"/>
    <path d="M 0.7051020860671997 85.0782241821289 C 0.30664700269699097 93.41901397705078 -5.736352920532227 91.63192749023438 -6.953567981719971 94.87469482421875 C -11.390923500061035 111.62641143798828 -1.8264080286026 118.32087707519531 -12.088501930236816 118.1258544921875 C -16.85942268371582 114.95367431640625 -13.424032211303711 113.29610443115234 -9.606269836425781 117.96271514892578" stroke-width="2.137071371078491" fill="none" stroke="rgb(116, 36, 217)" stroke-opacity="0.8485075" stroke-linecap="round" stroke-linejoin="round"/>
    <path d="M 154.7004852294922 108.01126098632812 C 151.46783447265625 108.25418090820312 142.4910888671875 116.26164245605469 132.1305389404297 117.4388427734375 C 142.19961547851562 117.93321228027344 151.50411987304688 123.51834106445312 157.04205322265625 135.38949584960938" stroke-width="2.0" fill="none" stroke="rgb(11, 22, 255)" stroke-opacity="0.7113261" stroke-linecap="round" stroke-linejoin="round"/>
    <path d="M 115.83959197998047 61.20322036743164 C 131.11497497558594 60.00071334838867 130.43531799316406 52.72761917114258 136.31971740722656 43.43777084350586 C 147.21470642089844 48.4898681640625 134.13475036621094 39.33285903930664 125.9046401977539 35.81074142456055 C 131.91973876953125 35.00101089477539 133.4924774169922 36.815589904785156 120.93550872802734 36.06400680541992" stroke-width="2.0" fill="none" stroke="rgb(147, 144, 118)" stroke-opacity="0.34404987" stroke-linecap="round" stroke-linejoin="round"/>
    <path d="M 94.93724060058594 60.53504180908203 C 99.96996307373047 70.87661743164062 99.52168273925781 85.49641418457031 93.76935577392578 93.59809875488281 C 84.61687469482422 80.79523468017578 93.4676284790039 88.85415649414062 84.38739776611328 90.5294189453125 C 96.68700408935547 83.51126098632812 106.68707275390625 73.63358306884766 114.61089324951172 61.07884216308594" stroke-width="2.0" fill="none" stroke="rgb(189, 221, 89)" stroke-opacity="0.05443701" stroke-linecap="round" stroke-linejoin="round"/>
    <path d="M 25.80270004272461 49.948455810546875 C 21.07628631591797 48.846553802490234 20.546001434326172 53.99772644042969 22.4604549407959 49.03510284423828" stroke-width="2.473100185394287" fill="none" stroke="rgb(92, 0, 34)" stroke-opacity="0.28375882" stroke-linecap="round" stroke-linejoin="round"/>
    <path d="M 12.49211311340332 108.50328826904297 C 11.233792304992676 108.7423324584961 18.321107864379883 110.29025268554688 11.24213695526123 108.25790405273438" stroke-width="2.0" fill="none" stroke="rgb(9, 226, 77)" stroke-opacity="0.95646936" stroke-linecap="round" stroke-linejoin="round"/>
    <path d="M 69.3385238647461 71.5877685546875 C 61.722251892089844 82.66958618164062 55.59769058227539 81.69743347167969 61.394287109375 64.49272155761719" stroke-width="2.0" fill="none" stroke="rgb(126, 162, 169)" stroke-opacity="0.0" stroke-linecap="round" stroke-linejoin="round"/>
    <path d="M 111.28758239746094 85.49181365966797 C 101.74726867675781 89.65669250488281 94.07588958740234 93.44164276123047 103.18032836914062 94.53881072998047" stroke-width="2.0" fill="none" stroke="rgb(189, 255, 108)" stroke-opacity="0.22171512" stroke-linecap="round" stroke-linejoin="round"/>
    <path d="M 189.2020263671875 88.9402084350586 C 179.14892578125 80.62610626220703 185.46449279785156 88.39064025878906 182.71214294433594 98.19595336914062 C 182.3732452392578 93.13428497314453 186.1802215576172 88.1044692993164 176.35763549804688 102.87488555908203 C 185.1986846923828 111.03351593017578 198.80885314941406 108.85472869873047 207.90185546875 105.48927307128906" stroke-width="3.858644962310791" fill="none" stroke="rgb(166, 11, 61)" stroke-opacity="0.18517654" stroke-linecap="round" stroke-linejoin="round"/>
    <path d="M 32.48748016357422 53.434940338134766 C 23.489885330200195 55.1406364440918 34.12605285644531 67.9892578125 35.91439437866211 80.97222137451172 C 44.51771926879883 77.6950454711914 40.9473876953125 80.1828842163086 48.75834655761719 91.84436798095703" stroke-width="2.0567805767059326" fill="none" stroke="rgb(243, 240, 160)" stroke-opacity="0.7208279" stroke-linecap="round" stroke-linejoin="round"/>
    <path d="M 52.963932037353516 38.92913818359375 C 51.597503662109375 37.94186019897461 63.507850646972656 50.70661926269531 67.27054595947266 49.027896881103516 C 64.48361206054688 52.963130950927734 74.49559783935547 65.974609375 81.85189819335938 74.41182708740234" stroke-width="2.0" fill="none" stroke="rgb(149, 170, 68)" stroke-opacity="0.4332678" stroke-linecap="round" stroke-linejoin="round"/>
    <path d="M 54.73583984375 9.933019638061523 C 47.14059829711914 3.55625319480896 42.02365493774414 0.1696244776248932 46.89986801147461 9.757442474365234 C 49.716861724853516 19.060501098632812 54.72670364379883 29.49181365966797 63.732444763183594 28.355928421020508" stroke-width="2.9006121158599854" fill="none" stroke="rgb(151, 159, 172)" stroke-opacity="0.0" stroke-linecap="round" stroke-linejoin="round"/>
    <path d="M 16.188438415527344 88.50150299072266 C 7.511641502380371 84.60643768310547 14.112028121948242 95.09661102294922 12.902889251708984 87.0429916381836 C 21.193002700805664 87.33087158203125 11.57252025604248 98.99433898925781 11.532666206359863 85.07340240478516" stroke-width="4.7726945877075195" fill="none" stroke="rgb(32, 27, 27)" stroke-opacity="0.8468607" stroke-linecap="round" stroke-linejoin="round"/>
    <path d="M 101.9906005859375 23.081050872802734 C 101.06147766113281 19.283533096313477 99.61886596679688 13.037507057189941 112.47594451904297 12.957254409790039" stroke-width="2.0703601837158203" fill="none" stroke="rgb(255, 83, 159)" stroke-opacity="0.061946843" stroke-linecap="round" stroke-linejoin="round"/>
    <path d="M 26.112390518188477 58.4650764465332 C 32.31452560424805 57.25453186035156 16.967710494995117 61.38624954223633 16.877975463867188 55.65945816040039 C 17.882089614868164 58.6960334777832 11.960204124450684 49.89493179321289 13.037470817565918 50.72071075439453" stroke-width="2.0" fill="none" stroke="rgb(134, 150, 141)" stroke-opacity="0.48116636" stroke-linecap="round" stroke-linejoin="round"/>
    <path d="M 219.85928344726562 17.326696395874023 C 215.7733917236328 27.253334045410156 222.7669219970703 37.519813537597656 217.86277770996094 43.46863555908203" stroke-width="2.4658634662628174" fill="none" stroke="rgb(107, 54, 47)" stroke-opacity="0.8908059" stroke-linecap="round" stroke-linejoin="round"/>
    <path d="M 79.45288848876953 60.586917877197266 C 85.83992004394531 65.95286560058594 87.7471694946289 78.3366470336914 75.25238800048828 69.6467514038086 C 72.81703186035156 60.089942932128906 78.45262908935547 63.89301300048828 76.7386703491211 69.73377227783203" stroke-width="7.01069974899292" fill="none" stroke="rgb(64, 60, 0)" stroke-opacity="1.0" stroke-linecap="round" stroke-linejoin="round"/>
    <path d="M 75.04876708984375 1.1383624076843262 C 80.76516723632812 8.754363059997559 81.85173797607422 0.004263394512236118 81.09444427490234 4.579517841339111 C 66.98461151123047 8.84426498413086 69.44355010986328 16.39335060119629 67.29839324951172 16.832324981689453 C 80.1875228881836 20.988292694091797 90.54561614990234 18.2700138092041 89.53966522216797 13.37265682220459" stroke-width="2.0" fill="none" stroke="rgb(168, 134, 77)" stroke-opacity="0.002025496" stroke-linecap="round" stroke-linejoin="round"/>
    <path d="M 221.78927612304688 73.63787078857422 C 217.81301879882812 90.81859588623047 212.9290771484375 92.02864837646484 195.2766571044922 85.83151245117188 C 193.2621307373047 80.06398010253906 205.0131072998047 79.08824920654297 209.17474365234375 78.8072738647461 C 194.7228240966797 76.8222885131836 199.05404663085938 79.75463104248047 190.21145629882812 66.01985168457031" stroke-width="2.0" fill="none" stroke="rgb(142, 245, 155)" stroke-opacity="0.5846247" stroke-linecap="round" stroke-linejoin="round"/>
    <path d="M 202.29652404785156 45.34761047363281 C 199.74258422851562 56.738059997558594 189.78076171875 47.88459014892578 198.87583923339844 41.766929626464844 C 193.3911895751953 43.111934661865234 204.33837890625 53.38422775268555 209.8260040283203 48.5500602722168 C 207.13247680664062 28.877660751342773 201.71067810058594 29.909914016723633 195.71592712402344 42.69133377075195" stroke-width="4.816435813903809" fill="none" stroke="rgb(148, 34, 241)" stroke-opacity="1.0" stroke-linecap="round" stroke-linejoin="round"/>
    <path d="M 120.3802490234375 6.975632667541504 C 114.13033294677734 8.893851280212402 109.71341705322266 21.998756408691406 116.84320068359375 27.34589385986328 C 107.56826782226562 20.24313735961914 98.68656158447266 20.31522560119629 105.22338104248047 23.610767364501953" stroke-width="2.0" fill="none" stroke="rgb(220, 231, 17)" stroke-opacity="0.00088598416" stroke-linecap="round" stroke-linejoin="round"/>
    <path d="M 56.09237289428711 -1.1967307329177856 C 47.28057861328125 -5.390371322631836 50.37628936767578 -2.6188602447509766 45.59757614135742 -8.648284912109375 C 42.61840057373047 -13.177452087402344 37.6986083984375 -15.949007034301758 40.565635681152344 -12.488886833190918 C 37.919677734375 -1.9133846759796143 30.15047264099121 -8.142231941223145 20.9490909576416 -13.82703971862793" stroke-width="2.0" fill="none" stroke="rgb(24, 255, 92)" stroke-opacity="0.934134" stroke-linecap="round" stroke-linejoin="round"/>
    <path d="M 217.38351440429688 26.672000885009766 C 210.25436401367188 39.722049713134766 224.7119903564453 39.703704833984375 223.3075408935547 28.1289005279541 C 238.2834014892578 30.770328521728516 232.71505737304688 27.958209991455078 214.90530395507812 31.048418045043945" stroke-width="6.34437894821167" fill="none" stroke="rgb(159, 251, 141)" stroke-opacity="0.87255096" stroke-linecap="round" stroke-linejoin="round"/>
    <path d="M 115.19318389892578 38.89103317260742 C 96.05020141601562 35.009185791015625 105.87218475341797 34.48876953125 111.72643280029297 32.90483474731445" stroke-width="3.240379571914673" fill="none" stroke="rgb(78, 42, 93)" stroke-opacity="0.7527692" stroke-linecap="round" stroke-linejoin="round"/>
    <path d="M 166.65850830078125 46.9875373840332 C 171.1293182373047 52.31066131591797 167.67837524414062 44.680137634277344 163.49996948242188 47.80495834350586 C 166.30503845214844 31.3568058013916 175.22166442871094 22.482255935668945 179.5915985107422 10.439163208007812" stroke-width="2.0043835639953613" fill="none" stroke="rgb(164, 133, 156)" stroke-opacity="0.33095866" stroke-linecap="round" stroke-linejoin="round"/>
    <path d="M 68.65277099609375 24.277788162231445 C 55.75029754638672 32.84086608886719 65.18482208251953 30.438417434692383 59.02656936645508 28.246259689331055 C 70.37654113769531 25.840970993041992 75.79508972167969 16.378841400146484 73.46684265136719 21.28931999206543 C 67.92185974121094 20.60746192932129 74.6132583618164 25.484859466552734 70.23255157470703 26.73577117919922" stroke-width="3.2958226203918457" fill="none" stroke="rgb(123, 113, 94)" stroke-opacity="1.0" stroke-linecap="round" stroke-linejoin="round"/>
    <path d="M 1.217966079711914 82.39007568359375 C -0.9871803522109985 88.37792205810547 6.120067596435547 96.89281463623047 8.86544132232666 99.7193832397461" stroke-width="4.6779985427856445" fill="none" stroke="rgb(127, 8, 103)" stroke-opacity="0.3727778" stroke-linecap="round" stroke-linejoin="round"/>
    <path d="M 220.3813018798828 51.38639450073242 C 229.33729553222656 42.22406005859375 222.1477508544922 50.01665496826172 230.8902130126953 59.85102844238281 C 235.45140075683594 66.09275817871094 233.78240966796875 62.346065521240234 225.76744079589844 60.710853576660156" stroke-width="2.0" fill="none" stroke="rgb(53, 63, 55)" stroke-opacity="0.53395987" stroke-linecap="round" stroke-linejoin="round"/>
  </g>
</svg>
