<?xml version="1.0" ?>
<svg xmlns="http://www.w3.org/2000/svg" version="1.1" width="224" height="224">
  <defs/>
  <g>
    <path d="M 87.18081665039062 50.637508392333984 C 100.48809051513672 72.44734191894531 124.22698211669922 117.0573501586914 115.96768188476562 154.13124084472656" stroke-width="5.251165866851807" fill="none" stroke="rgb(58, 140, 62)" stroke-opacity="1.0" stroke-linecap="round" stroke-linejoin="round"/>
    <path d="M 76.02388000488281 49.45191192626953 C 63.39582824707031 59.959556579589844 45.97441101074219 81.55101776123047 53.531898498535156 87.88839721679688 C 69.65532684326172 94.7869873046875 74.24986267089844 60.11549758911133 76.12560272216797 50.948272705078125" stroke-width="14.0304536819458" fill="none" stroke="rgb(135, 48, 141)" stroke-opacity="0.9973759" stroke-linecap="round" stroke-linejoin="round"/>
    <path d="M 67.630615234375 47.0909538269043 C 56.76922607421875 54.857460021972656 22.71975326538086 41.53303146362305 23.758729934692383 39.6138801574707 C 21.81816864013672 34.71229934692383 56.30074691772461 33.66166305541992 67.26683807373047 40.93339157104492" stroke-width="14.039835929870605" fill="none" stroke="rgb(134, 47, 141)" stroke-opacity="1.0" stroke-linecap="round" stroke-linejoin="round"/>
    <path d="M 75.30560302734375 36.60139465332031 C 80.1342544555664 19.675817489624023 87.03670501708984 15.202282905578613 91.26910400390625 16.834213256835938 C 95.50200653076172 18.57527732849121 90.79467010498047 29.611366271972656 82.62892150878906 38.714866638183594" stroke-width="14.01286792755127" fill="none" stroke="rgb(134, 48, 141)" stroke-opacity="1.0" stroke-linecap="round" stroke-linejoin="round"/>
    <path d="M 89.83442687988281 43.20672607421875 C 111.87562561035156 43.58066177368164 129.37640380859375 47.31578826904297 129.35496520996094 55.60795974731445 C 129.34291076660156 63.89066696166992 97.07737731933594 58.87868881225586 87.17662811279297 50.6588134765625" stroke-width="14.027451515197754" fill="none" stroke="rgb(133, 48, 140)" stroke-opacity="1.0" stroke-linecap="round" stroke-linejoin="round"/>
    <path d="M 80.89985656738281 50.917503356933594 C 78.56376647949219 50.72870635986328 70.54660034179688 51.541568756103516 70.20890808105469 47.66635513305664 C 69.81439208984375 43.862945556640625 67.7481460571289 39.013675689697266 76.40193939208984 39.764869689941406 C 85.0801010131836 40.6101188659668 85.6854476928711 38.59050750732422 86.8094711303711 44.031272888183594 C 90.66616821289062 52.705810546875 73.4702377319336 51.52384948730469 70.19376373291016 47.672908782958984" stroke-width="13.660307884216309" fill="none" stroke="rgb(236, 188, 67)" stroke-opacity="0.9999365" stroke-linecap="round" stroke-linejoin="round"/>
    <path d="M 174.89552307128906 62.61100387573242 C 194.45703125 63.131134033203125 204.5207977294922 66.3816146850586 208.38189697265625 66.24727630615234" stroke-width="2.0" fill="none" stroke="rgb(197, 92, 61)" stroke-opacity="0.5971326" stroke-linecap="round" stroke-linejoin="round"/>
    <path d="M 103.82579040527344 39.28239059448242 C 104.41334533691406 45.18602752685547 106.93680572509766 41.47256851196289 110.29055786132812 39.3167724609375" stroke-width="2.0" fill="none" stroke="rgb(144, 159, 99)" stroke-opacity="0.0" stroke-linecap="round" stroke-linejoin="round"/>
    <path d="M 112.2672119140625 57.49429702758789 C 109.78819274902344 46.5447998046875 118.79454803466797 54.948272705078125 112.30818939208984 64.58241271972656" stroke-width="2.57607102394104" fill="none" stroke="rgb(191, 93, 217)" stroke-opacity="0.7486388" stroke-linecap="round" stroke-linejoin="round"/>
    <path d="M 123.10272979736328 17.653240203857422 C 120.76329040527344 17.517148971557617 132.8267364501953 17.0716609954834 145.26817321777344 21.753742218017578" stroke-width="2.0067026615142822" fill="none" stroke="rgb(129, 199, 154)" stroke-opacity="0.6832041" stroke-linecap="round" stroke-linejoin="round"/>
    <path d="M 87.03448486328125 21.773494720458984 C 95.11476135253906 25.897335052490234 87.8973388671875 16.543155670166016 96.50737762451172 8.28825855255127 C 94.553955078125 5.415635585784912 101.87454986572266 26.594865798950195 96.2770767211914 32.681358337402344 C 113.26249694824219 32.569339752197266 115.88395690917969 33.54492950439453 104.3647232055664 31.83427619934082" stroke-width="2.5629026889801025" fill="none" stroke="rgb(229, 221, 205)" stroke-opacity="0.7379596" stroke-linecap="round" stroke-linejoin="round"/>
    <path d="M 182.14508056640625 101.4658432006836 C 181.4001922607422 102.53265380859375 183.53465270996094 102.09130096435547 179.4392547607422 85.82587432861328 C 184.55702209472656 93.89738464355469 180.08038330078125 115.08985900878906 180.2350311279297 120.69036865234375 C 184.70233154296875 120.22291564941406 191.0518035888672 127.16766357421875 195.40264892578125 129.22869873046875" stroke-width="2.0" fill="none" stroke="rgb(115, 174, 129)" stroke-opacity="0.29012725" stroke-linecap="round" stroke-linejoin="round"/>
    <path d="M 159.07247924804688 109.4197006225586 C 163.5437469482422 113.54606628417969 178.5980224609375 120.22724914550781 178.54075622558594 123.19414520263672 C 174.45501708984375 131.34176635742188 184.2227020263672 119.21379089355469 167.66490173339844 113.53533935546875 C 163.90591430664062 109.74334716796875 176.83009338378906 98.72666931152344 166.29869079589844 103.10384368896484" stroke-width="2.0" fill="none" stroke="rgb(255, 163, 117)" stroke-opacity="0.37405276" stroke-linecap="round" stroke-linejoin="round"/>
    <path d="M 57.49191665649414 77.25870513916016 C 50.046382904052734 102.26160430908203 71.73462677001953 87.69723510742188 71.27584838867188 66.5309829711914 C 64.42153930664062 62.645145416259766 82.19207763671875 59.68272399902344 92.60697937011719 61.20058059692383" stroke-width="6.964857578277588" fill="none" stroke="rgb(8, 0, 0)" stroke-opacity="1.0" stroke-linecap="round" stroke-linejoin="round"/>
    <path d="M 110.0022201538086 97.88204193115234 C 107.91466522216797 100.40189361572266 118.16598510742188 91.35633850097656 113.30195617675781 95.7286376953125 C 101.33407592773438 103.23699188232422 90.44674682617188 96.7379379272461 90.93206787109375 105.78959655761719 C 95.21154022216797 130.7380828857422 98.65198516845703 130.6251983642578 102.39996337890625 127.64110565185547" stroke-width="2.0" fill="none" stroke="rgb(255, 211, 138)" stroke-opacity="0.35033008" stroke-linecap="round" stroke-linejoin="round"/>
    <path d="M 89.07726287841797 30.442331314086914 C 82.09809875488281 23.102170944213867 89.35801696777344 12.871726036071777 77.3531723022461 14.964754104614258" stroke-width="2.4704535007476807" fill="none" stroke="rgb(255, 225, 68)" stroke-opacity="0.010029649" stroke-linecap="round" stroke-linejoin="round"/>
    <path d="M 94.56037139892578 89.64938354492188 C 97.76752471923828 88.59344482421875 96.95614624023438 92.59255981445312 111.2465591430664 91.97382354736328 C 97.03929901123047 92.96334838867188 83.296630859375 86.009765625 83.69573211669922 86.01913452148438 C 94.21774291992188 84.54737091064453 92.20459747314453 94.23787689208984 103.37506103515625 89.24085235595703" stroke-width="2.0" fill="none" stroke="rgb(57, 225, 77)" stroke-opacity="0.0" stroke-linecap="round" stroke-linejoin="round"/>
    <path d="M 47.38573455810547 87.32832336425781 C 49.81778335571289 85.65483093261719 53.14979553222656 88.46472930908203 51.36754608154297 88.2760009765625" stroke-width="3.055800676345825" fill="none" stroke="rgb(27, 0, 125)" stroke-opacity="0.31299347" stroke-linecap="round" stroke-linejoin="round"/>
    <path d="M 134.29208374023438 89.70730590820312 C 137.1590576171875 90.65644836425781 141.16725158691406 86.59227752685547 131.4786834716797 102.0047607421875 C 120.05915832519531 108.5899429321289 138.97705078125 109.38755798339844 164.11181640625 109.54556274414062" stroke-width="2.0" fill="none" stroke="rgb(126, 137, 62)" stroke-opacity="0.16983807" stroke-linecap="round" stroke-linejoin="round"/>
    <path d="M 148.9883575439453 33.62925338745117 C 139.27122497558594 34.044883728027344 143.6198272705078 39.6227912902832 150.25489807128906 29.218914031982422" stroke-width="2.0008723735809326" fill="none" stroke="rgb(219, 121, 205)" stroke-opacity="0.0063750176" stroke-linecap="round" stroke-linejoin="round"/>
    <path d="M 12.714734077453613 76.56111907958984 C -3.074932098388672 68.96112823486328 -3.2838282585144043 70.54593658447266 5.9090962409973145 62.9938850402832 C -9.69263744354248 58.32377243041992 7.890476226806641 56.3329963684082 23.08401870727539 40.56449508666992 C 24.29867935180664 50.71851348876953 15.581914901733398 51.605628967285156 18.396621704101562 40.41045379638672" stroke-width="2.0" fill="none" stroke="rgb(2, 0, 8)" stroke-opacity="1.0" stroke-linecap="round" stroke-linejoin="round"/>
    <path d="M 56.09069061279297 31.052520751953125 C 75.0030288696289 24.412647247314453 71.00650024414062 31.565624237060547 86.12478637695312 23.943401336669922" stroke-width="4.41163444519043" fill="none" stroke="rgb(7, 25, 195)" stroke-opacity="0.89170223" stroke-linecap="round" stroke-linejoin="round"/>
    <path d="M 97.71885681152344 15.783029556274414 C 94.84276580810547 -13.004173278808594 88.83988952636719 -6.667632579803467 82.27058410644531 -4.321770668029785" stroke-width="2.0274932384490967" fill="none" stroke="rgb(31, 0, 42)" stroke-opacity="0.71109295" stroke-linecap="round" stroke-linejoin="round"/>
    <path d="M 183.96478271484375 23.355127334594727 C 205.9860076904297 9.80398941040039 211.78993225097656 18.926692962646484 192.2582244873047 39.91862487792969 C 191.84951782226562 13.510910987854004 187.8325958251953 13.483195304870605 189.9861602783203 20.03614616394043" stroke-width="8.542397499084473" fill="none" stroke="rgb(67, 60, 255)" stroke-opacity="0.2666694" stroke-linecap="round" stroke-linejoin="round"/>
    <path d="M 67.19993591308594 93.44629669189453 C 75.78758239746094 91.57110595703125 62.35365676879883 88.8801498413086 47.55987548828125 81.5496826171875" stroke-width="5.132247447967529" fill="none" stroke="rgb(20, 0, 23)" stroke-opacity="0.79268193" stroke-linecap="round" stroke-linejoin="round"/>
    <path d="M 131.79666137695312 79.1246566772461 C 135.63043212890625 76.93698120117188 151.1113739013672 80.81390380859375 148.51539611816406 78.12300872802734 C 147.19857788085938 81.9750747680664 153.86492919921875 77.71913146972656 172.90853881835938 72.15865325927734" stroke-width="2.0" fill="none" stroke="rgb(170, 254, 211)" stroke-opacity="0.09395756" stroke-linecap="round" stroke-linejoin="round"/>
    <path d="M 185.3662872314453 72.36416625976562 C 209.9888153076172 72.99784851074219 219.4084014892578 77.9367904663086 210.72628784179688 83.55683898925781 C 193.3640594482422 68.51737213134766 182.0364227294922 69.75833129882812 171.67636108398438 78.89566040039062 C 202.17103576660156 83.13104248046875 214.59085083007812 80.22986602783203 200.6580352783203 73.88673400878906" stroke-width="6.509035110473633" fill="none" stroke="rgb(58, 75, 253)" stroke-opacity="0.1897344" stroke-linecap="round" stroke-linejoin="round"/>
    <path d="M 217.33795166015625 21.660661697387695 C 220.7822723388672 0.8033154606819153 227.7911376953125 -3.123530387878418 223.23793029785156 -6.376981258392334 C 219.71951293945312 -6.927323341369629 224.82968139648438 -8.057077407836914 222.65313720703125 -17.20309829711914" stroke-width="2.0" fill="none" stroke="rgb(151, 137, 238)" stroke-opacity="0.6731173" stroke-linecap="round" stroke-linejoin="round"/>
    <path d="M 207.6688690185547 94.20362854003906 C 202.4097137451172 115.28984832763672 201.9562225341797 103.8290023803711 205.52471923828125 91.7126235961914 C 212.95921325683594 92.7339096069336 206.06573486328125 86.53450012207031 206.66909790039062 93.13082885742188" stroke-width="2.3642098903656006" fill="none" stroke="rgb(110, 79, 221)" stroke-opacity="0.30662626" stroke-linecap="round" stroke-linejoin="round"/>
    <path d="M 208.49546813964844 25.547664642333984 C 196.80380249023438 27.900882720947266 189.24227905273438 37.12441635131836 199.0845184326172 35.354248046875 C 191.8528289794922 32.717960357666016 181.437255859375 39.716087341308594 194.94058227539062 36.04496765136719" stroke-width="2.0454912185668945" fill="none" stroke="rgb(37, 58, 11)" stroke-opacity="0.0" stroke-linecap="round" stroke-linejoin="round"/>
    <path d="M 11.59801959991455 52.2899169921875 C 28.994728088378906 53.13252639770508 31.949588775634766 55.991451263427734 26.7735652923584 36.64144515991211 C 10.601375579833984 36.743343353271484 14.774286270141602 59.36531066894531 14.07962703704834 51.410404205322266" stroke-width="5.930600643157959" fill="none" stroke="rgb(228, 255, 55)" stroke-opacity="1.0" stroke-linecap="round" stroke-linejoin="round"/>
    <path d="M 52.961700439453125 77.90081787109375 C 49.71234893798828 90.82819366455078 56.42219543457031 84.69882202148438 50.938602447509766 85.27123260498047" stroke-width="2.0" fill="none" stroke="rgb(216, 214, 156)" stroke-opacity="0.6495198" stroke-linecap="round" stroke-linejoin="round"/>
    <path d="M 159.1647491455078 93.89482116699219 C 135.7204132080078 92.14329528808594 137.16770935058594 105.48519134521484 163.366455078125 101.02787780761719" stroke-width="2.0" fill="none" stroke="rgb(106, 97, 226)" stroke-opacity="0.5083387" stroke-linecap="round" stroke-linejoin="round"/>
    <path d="M 123.23976135253906 94.24540710449219 C 119.92916107177734 98.83161163330078 124.66071319580078 86.36094665527344 123.6971664428711 70.2171401977539 C 129.12728881835938 58.89242935180664 105.52143859863281 55.28668212890625 104.46147918701172 62.608253479003906 C 104.8906478881836 58.154266357421875 99.15480041503906 73.17019653320312 106.04129791259766 91.90702056884766" stroke-width="8.749202728271484" fill="none" stroke="rgb(55, 3, 57)" stroke-opacity="0.94381356" stroke-linecap="round" stroke-linejoin="round"/>
    <path d="M -3.8827829360961914 5.057919025421143 C -3.5654966831207275 5.784024715423584 -5.436685562133789 5.456989288330078 -14.958414077758789 3.6855170726776123 C -16.510883331298828 8.403185844421387 -24.556243896484375 -0.5605875253677368 -29.25052261352539 -11.31834602355957" stroke-width="2.0" fill="none" stroke="rgb(151, 50, 91)" stroke-opacity="0.0" stroke-linecap="round" stroke-linejoin="round"/>
    <path d="M 214.84336853027344 67.6484375 C 201.95997619628906 65.51495361328125 220.5162811279297 73.34945678710938 201.58250427246094 70.60228729248047 C 200.1277313232422 64.68254089355469 198.1971435546875 56.204402923583984 198.1818084716797 58.314170837402344 C 199.10267639160156 60.74485778808594 200.98379516601562 46.53034973144531 203.50527954101562 37.240299224853516" stroke-width="2.0" fill="none" stroke="rgb(130, 148, 122)" stroke-opacity="0.25337052" stroke-linecap="round" stroke-linejoin="round"/>
    <path d="M 12.640764236450195 86.86366271972656 C 7.843745708465576 84.82899475097656 11.642008781433105 90.02983856201172 8.736234664916992 104.42962646484375 C 12.627921104431152 113.71212005615234 15.284876823425293 121.04428100585938 29.752805709838867 118.31810760498047 C 25.440431594848633 121.13445281982422 17.233612060546875 120.31356811523438 21.683746337890625 118.87390899658203" stroke-width="2.0" fill="none" stroke="rgb(249, 167, 178)" stroke-opacity="0.6411156" stroke-linecap="round" stroke-linejoin="round"/>
    <path d="M 22.56611442565918 71.98685455322266 C 35.77375030517578 71.27593231201172 19.969968795776367 74.60932922363281 26.34078025817871 72.92029571533203" stroke-width="2.9155001640319824" fill="none" stroke="rgb(25, 182, 73)" stroke-opacity="1.0" stroke-linecap="round" stroke-linejoin="round"/>
  </g>
</svg>
