<?xml version="1.0" ?>
<svg xmlns="http://www.w3.org/2000/svg" version="1.1" width="2137.0" height="2137.0">
  <defs/>
  <g>
    <path d="M 113.35820007324219 -2.2359700202941895 C 107.29943084716797 45.868961334228516 91.27519226074219 90.82855987548828 88.37610626220703 110.61878967285156 C 84.85566711425781 131.02259826660156 85.54891967773438 163.48939514160156 82.58006286621094 169.48123168945312 C 79.91175842285156 176.1160430908203 62.78108596801758 190.12420654296875 45.46279525756836 191.71942138671875" stroke-width="12.643630981445312" fill="none" stroke="rgb(194, 119, 75)" stroke-opacity="1.0" stroke-linecap="round" stroke-linejoin="round"/>
    <path d="M 124.34515380859375 1.5618457794189453 C 117.82391357421875 38.45621109008789 102.88772583007812 100.19282531738281 99.75287628173828 124.0685043334961 C 97.05995178222656 148.47166442871094 96.58531951904297 174.95921325683594 90.80547332763672 178.8138427734375 C 85.2335433959961 182.86798095703125 82.76785278320312 186.54478454589844 67.4862060546875 188.44171142578125" stroke-width="12.628239631652832" fill="none" stroke="rgb(193, 119, 75)" stroke-opacity="1.0" stroke-linecap="round" stroke-linejoin="round"/>
    <path d="M 134.35458374023438 -1.3491525650024414 C 127.90262603759766 35.54994583129883 119.65963745117188 79.38359069824219 116.40386199951172 103.19364929199219 C 114.27742767333984 128.1815643310547 97.0751724243164 175.5021209716797 91.33978271484375 179.37350463867188 C 85.58818054199219 183.22512817382812 83.12134552001953 186.9046173095703 67.83729553222656 188.72120666503906" stroke-width="12.623770713806152" fill="none" stroke="rgb(197, 116, 77)" stroke-opacity="1.0" stroke-linecap="round" stroke-linejoin="round"/>
    <path d="M 130.02760314941406 68.46632385253906 C 139.4308319091797 92.36016082763672 127.91148376464844 95.62236785888672 127.31808471679688 95.02842712402344" stroke-width="19.450239181518555" fill="none" stroke="rgb(194, 120, 75)" stroke-opacity="1.0" stroke-linecap="round" stroke-linejoin="round"/>
    <path d="M 140.17884826660156 54.06451416015625 C 117.14146423339844 63.703834533691406 93.98876953125 68.05224609375 92.85973358154297 72.00499725341797 C 92.27229309082031 77.13777923583984 111.66498565673828 100.06523132324219 109.56153106689453 104.29481506347656 C 108.00271606445312 108.56279754638672 85.42448425292969 112.82583618164062 84.59114074707031 117.46613311767578 C 84.32951354980469 122.10952758789062 109.34879302978516 137.19178771972656 115.7109603881836 145.52256774902344" stroke-width="9.327561378479004" fill="none" stroke="rgb(33, 16, 8)" stroke-opacity="1.0" stroke-linecap="round" stroke-linejoin="round"/>
    <path d="M 154.50775146484375 75.63907623291016 C 116.8883285522461 104.73460388183594 117.76312255859375 100.7374496459961 117.95112609863281 104.82415771484375 C 117.5395278930664 108.9183120727539 128.34054565429688 118.54457092285156 133.9471435546875 124.57756805419922" stroke-width="9.547492980957031" fill="none" stroke="rgb(31, 15, 9)" stroke-opacity="1.0" stroke-linecap="round" stroke-linejoin="round"/>
    <path d="M 140.58485412597656 53.11507034301758 C 157.80963134765625 75.59051513671875 169.16738891601562 84.77244567871094 166.37271118164062 101.13703918457031 C 164.2104949951172 121.59986877441406 125.6242446899414 120.25985717773438 116.39552307128906 145.6691131591797" stroke-width="9.557792663574219" fill="none" stroke="rgb(31, 16, 8)" stroke-opacity="1.0" stroke-linecap="round" stroke-linejoin="round"/>
    <path d="M 147.76730346679688 63.099796295166016 C 147.3419189453125 63.095489501953125 147.2183837890625 62.735382080078125 147.26759338378906 62.56928253173828 C 147.42628479003906 62.00083923339844 147.553466796875 61.422752380371094 147.79124450683594 60.89302062988281 C 148.415283203125 59.466121673583984 148.9094696044922 58.123661041259766 150.38014221191406 57.40483474731445 C 152.90072631835938 53.61490249633789 155.81585693359375 50.18730926513672 158.37841796875 46.327545166015625 C 159.4116973876953 45.26575469970703 160.3772735595703 44.121437072753906 161.52947998046875 43.188377380371094 C 162.86383056640625 43.1767692565918 165.68475341796875 40.8896369934082 166.24473571777344 40.908382415771484 C 166.91981506347656 40.97283172607422 167.84571838378906 42.14475631713867 168.1300506591797 42.52394485473633 C 170.29461669921875 43.951690673828125 171.11500549316406 46.76811218261719 172.38247680664062 48.989288330078125 C 175.39089965820312 53.12899398803711 177.17852783203125 57.98492431640625 178.4803009033203 63.127593994140625 C 178.5986328125 66.00777435302734 178.8727264404297 68.4686050415039 179.66078186035156 70.1192626953125 C 180.63720703125 72.91156768798828 180.75601196289062 76.08990478515625 183.92025756835938 77.36943054199219 C 184.40176391601562 77.55210876464844 185.2983856201172 77.82164001464844 185.814453125 77.88633728027344 C 191.3028106689453 78.61463165283203 197.6294708251953 77.5270004272461 203.5595245361328 76.32316589355469 C 206.56442260742188 75.72492980957031 210.23861694335938 75.71038818359375 213.16859436035156 74.79171752929688 C 214.36285400390625 74.43144989013672 215.53265380859375 73.99320983886719 216.7356414794922 73.64932250976562 C 217.01882934570312 72.81843566894531 217.85348510742188 72.11426544189453 218.7649383544922 72.04612731933594 C 219.34793090820312 72.55918884277344 219.9420928955078 72.7446060180664 221.1371612548828 72.67698669433594 C 223.9157257080078 72.53621673583984 227.66949462890625 72.00437927246094 230.3677520751953 71.35110473632812 C 232.75839233398438 70.39200592041016 235.7420654296875 69.64384460449219 238.34494018554688 68.64031982421875 C 240.5894317626953 67.7734375 244.92160034179688 65.36991882324219 247.4639892578125 65.91424560546875 C 248.42494201660156 66.12032318115234 249.04544067382812 68.01312255859375 249.45535278320312 68.74336242675781 C 251.2451171875 71.9398422241211 252.844482421875 74.94368743896484 253.85694885253906 78.4918441772461" stroke-width="2.0" fill="none" stroke="rgb(22, 22, 25)" stroke-opacity="0.9995254" stroke-linecap="round" stroke-linejoin="round"/>
    <path d="M 211.44924926757812 73.21824645996094 C 201.25030517578125 80.34557342529297 206.1612548828125 80.05844116210938 201.30123901367188 70.61970520019531" stroke-width="2.319403886795044" fill="none" stroke="rgb(182, 105, 27)" stroke-opacity="0.52331465" stroke-linecap="round" stroke-linejoin="round"/>
    <path d="M 158.683349609375 46.36388397216797 C 153.1504669189453 50.947200775146484 143.97569274902344 60.151676177978516 141.67129516601562 70.48674774169922" stroke-width="2.0" fill="none" stroke="rgb(11, 149, 52)" stroke-opacity="0.7935291" stroke-linecap="round" stroke-linejoin="round"/>
    <path d="M 147.41070556640625 61.039520263671875 C 151.61904907226562 63.648563385009766 156.82594299316406 57.93974685668945 146.8787841796875 58.743350982666016 C 145.2415008544922 63.90987014770508 137.22210693359375 75.06128692626953 135.40689086914062 67.80010223388672" stroke-width="2.0" fill="none" stroke="rgb(214, 171, 221)" stroke-opacity="0.6883585" stroke-linecap="round" stroke-linejoin="round"/>
    <path d="M 168.02114868164062 42.50027084350586 C 165.41851806640625 52.43122100830078 159.9993896484375 43.452781677246094 164.2578582763672 49.211307525634766 C 160.5146942138672 47.59776306152344 156.11822509765625 58.87443923950195 162.00408935546875 54.02606201171875 C 169.33827209472656 60.008670806884766 159.90328979492188 52.26243209838867 157.1138458251953 46.28578567504883" stroke-width="2.0" fill="none" stroke="rgb(210, 67, 142)" stroke-opacity="0.32734764" stroke-linecap="round" stroke-linejoin="round"/>
    <path d="M 92.94550323486328 72.08781433105469 C 91.5854721069336 60.510231018066406 96.0685043334961 50.584205627441406 99.03853607177734 44.57487869262695" stroke-width="2.0" fill="none" stroke="rgb(99, 15, 182)" stroke-opacity="0.20340312" stroke-linecap="round" stroke-linejoin="round"/>
    <path d="M 135.00350952148438 126.1832275390625 C 125.3876724243164 134.81666564941406 118.72373962402344 136.05569458007812 123.92198181152344 126.852294921875" stroke-width="2.0" fill="none" stroke="rgb(163, 153, 183)" stroke-opacity="0.6729336" stroke-linecap="round" stroke-linejoin="round"/>
    <path d="M 136.66940307617188 70.26929473876953 C 129.99920654296875 69.2723617553711 137.6385955810547 77.3985824584961 148.50592041015625 66.76187896728516" stroke-width="2.0" fill="none" stroke="rgb(105, 206, 83)" stroke-opacity="0.044963244" stroke-linecap="round" stroke-linejoin="round"/>
    <path d="M 158.3822021484375 44.39457702636719 C 155.77513122558594 51.29549026489258 159.81442260742188 58.74671936035156 164.33477783203125 55.530967712402344" stroke-width="2.522608757019043" fill="none" stroke="rgb(132, 6, 239)" stroke-opacity="0.55050653" stroke-linecap="round" stroke-linejoin="round"/>
    <path d="M 159.3175811767578 44.98854446411133 C 157.89425659179688 44.201995849609375 157.70591735839844 48.20262908935547 164.7369384765625 59.41852951049805 C 160.26776123046875 57.5176887512207 167.05909729003906 50.670352935791016 176.98081970214844 40.5675163269043" stroke-width="2.0" fill="none" stroke="rgb(41, 111, 128)" stroke-opacity="0.8565324" stroke-linecap="round" stroke-linejoin="round"/>
    <path d="M 123.27477264404297 125.59801483154297 C 133.00930786132812 135.22238159179688 128.4980010986328 130.71620178222656 138.96444702148438 127.63920593261719 C 134.95420837402344 126.30400085449219 131.26394653320312 115.45020294189453 126.93205261230469 115.52698516845703" stroke-width="2.0" fill="none" stroke="rgb(214, 207, 96)" stroke-opacity="0.81311285" stroke-linecap="round" stroke-linejoin="round"/>
    <path d="M 99.3890151977539 44.689205169677734 C 100.18360900878906 45.26664352416992 93.69091796875 55.17392349243164 90.91130828857422 52.640594482421875 C 96.05878448486328 58.43381881713867 103.64212799072266 64.94463348388672 110.44241333007812 64.53605651855469 C 115.28914642333984 64.11996459960938 123.28271484375 71.31831359863281 123.21800231933594 66.50618743896484" stroke-width="2.0" fill="none" stroke="rgb(41, 150, 7)" stroke-opacity="0.47945577" stroke-linecap="round" stroke-linejoin="round"/>
    <path d="M 141.20228576660156 70.05248260498047 C 144.33441162109375 74.65652465820312 149.61827087402344 71.78572845458984 144.78530883789062 66.10981750488281 C 132.73106384277344 72.19319152832031 139.9118194580078 83.01692962646484 133.4383087158203 81.70743560791016 C 133.4729461669922 70.79583740234375 126.0274887084961 73.10611724853516 130.4983673095703 83.10807037353516" stroke-width="2.0" fill="none" stroke="rgb(61, 50, 237)" stroke-opacity="0.20414792" stroke-linecap="round" stroke-linejoin="round"/>
    <path d="M 177.85716247558594 65.44628143310547 C 187.87034606933594 56.205589294433594 195.8361053466797 46.18597412109375 186.5912322998047 35.163658142089844 C 177.11727905273438 46.83778381347656 169.83859252929688 41.27046585083008 161.7749786376953 32.03628158569336 C 171.0385284423828 23.968324661254883 165.937255859375 15.09052848815918 155.41236877441406 6.556648254394531" stroke-width="2.0" fill="none" stroke="rgb(209, 173, 87)" stroke-opacity="0.9397249" stroke-linecap="round" stroke-linejoin="round"/>
    <path d="M 199.93992614746094 23.13031005859375 C 189.31031799316406 36.062862396240234 196.69996643066406 40.50862121582031 203.93777465820312 28.52206802368164" stroke-width="2.0" fill="none" stroke="rgb(207, 207, 160)" stroke-opacity="0.006001751" stroke-linecap="round" stroke-linejoin="round"/>
    <path d="M 73.47303009033203 205.79226684570312 C 72.89449310302734 213.2336883544922 64.02613830566406 223.6167755126953 66.32088470458984 225.05459594726562" stroke-width="2.0095834732055664" fill="none" stroke="rgb(235, 46, 248)" stroke-opacity="0.10311397" stroke-linecap="round" stroke-linejoin="round"/>
    <path d="M 67.3590316772461 170.05892944335938 C 66.33552551269531 171.8253173828125 70.64276123046875 165.9943389892578 65.08084869384766 166.71920776367188 C 71.10912322998047 164.4215850830078 76.68866729736328 165.9563446044922 78.50505828857422 162.0458526611328 C 72.38422393798828 166.44073486328125 79.24150848388672 161.91864013671875 86.14253997802734 165.02993774414062" stroke-width="2.0" fill="none" stroke="rgb(91, 141, 222)" stroke-opacity="0.7017178" stroke-linecap="round" stroke-linejoin="round"/>
    <path d="M 18.82387924194336 50.33966827392578 C 22.224075317382812 59.090675354003906 18.210681915283203 59.201263427734375 29.743732452392578 49.64536666870117 C 33.42536926269531 43.74443817138672 39.08053207397461 46.17153549194336 44.35300064086914 39.70840835571289" stroke-width="2.238065719604492" fill="none" stroke="rgb(107, 250, 217)" stroke-opacity="0.9114629" stroke-linecap="round" stroke-linejoin="round"/>
    <path d="M 104.51075744628906 221.32858276367188 C 112.77936553955078 214.61537170410156 118.72738647460938 222.95616149902344 125.06402587890625 228.7143096923828 C 118.71136474609375 237.4041748046875 126.98494720458984 244.76922607421875 129.60372924804688 240.55990600585938" stroke-width="2.0" fill="none" stroke="rgb(54, 149, 181)" stroke-opacity="0.30627456" stroke-linecap="round" stroke-linejoin="round"/>
    <path d="M 135.231689453125 212.533203125 C 136.17906188964844 223.14671325683594 146.86285400390625 224.4501953125 138.4541015625 224.04367065429688" stroke-width="2.3563895225524902" fill="none" stroke="rgb(150, 11, 20)" stroke-opacity="0.82084113" stroke-linecap="round" stroke-linejoin="round"/>
    <path d="M 114.14286804199219 223.6380157470703 C 114.58574676513672 212.6287841796875 107.9829330444336 209.44651794433594 104.0202865600586 214.90061950683594 C 113.86605834960938 204.85838317871094 112.63255310058594 205.30467224121094 111.92573547363281 204.1407470703125 C 113.50865173339844 202.35316467285156 111.29312896728516 199.4082489013672 101.73717498779297 207.23155212402344" stroke-width="2.0" fill="none" stroke="rgb(6, 27, 15)" stroke-opacity="0.4212225" stroke-linecap="round" stroke-linejoin="round"/>
    <path d="M 131.84539794921875 4.349119186401367 C 140.61956787109375 -1.1771318912506104 138.68991088867188 8.129987716674805 148.9009246826172 11.101333618164062 C 157.5023956298828 8.786192893981934 167.05064392089844 9.481168746948242 170.69009399414062 5.1553120613098145" stroke-width="2.0" fill="none" stroke="rgb(106, 159, 171)" stroke-opacity="0.9968885" stroke-linecap="round" stroke-linejoin="round"/>
    <path d="M 77.80137634277344 32.49107360839844 C 71.08723449707031 44.399478912353516 64.63802337646484 53.475093841552734 58.35747528076172 56.2789421081543" stroke-width="2.0" fill="none" stroke="rgb(78, 104, 83)" stroke-opacity="0.48758754" stroke-linecap="round" stroke-linejoin="round"/>
    <path d="M 37.247318267822266 130.99986267089844 C 32.7001838684082 138.2549285888672 26.099992752075195 141.00404357910156 34.84132766723633 132.08811950683594" stroke-width="2.071718215942383" fill="none" stroke="rgb(176, 91, 203)" stroke-opacity="0.8622917" stroke-linecap="round" stroke-linejoin="round"/>
    <path d="M 162.884033203125 194.71128845214844 C 157.4952392578125 186.16262817382812 169.75535583496094 186.9744110107422 163.36746215820312 193.40097045898438" stroke-width="2.3444666862487793" fill="none" stroke="rgb(214, 21, 45)" stroke-opacity="0.62087613" stroke-linecap="round" stroke-linejoin="round"/>
    <path d="M 114.53541564941406 75.6951904296875 C 120.94896697998047 81.38507080078125 118.27718353271484 79.52597045898438 125.52690124511719 87.3458251953125 C 130.91795349121094 91.98678588867188 135.17567443847656 83.6083984375 143.49322509765625 83.7762222290039 C 148.7103729248047 76.31885528564453 145.9795379638672 75.87594604492188 136.0215606689453 73.37726593017578" stroke-width="2.0" fill="none" stroke="rgb(148, 142, 141)" stroke-opacity="0.25199" stroke-linecap="round" stroke-linejoin="round"/>
  </g>
</svg>
