<?xml version="1.0" ?>
<svg xmlns="http://www.w3.org/2000/svg" version="1.1" width="2137.0" height="2137.0">
  <defs/>
  <g>
    <path d="M 31.70279884338379 82.64279174804688 C 89.44892883300781 82.51286315917969 146.96324157714844 82.4398193359375 204.26429748535156 82.72435760498047 C 261.77996826171875 82.03429412841797 209.21531677246094 74.39393615722656 156.8377685546875 66.55831146240234" stroke-width="2.0" fill="none" stroke="rgb(6, 0, 3)" stroke-opacity="0.9630839" stroke-linecap="round" stroke-linejoin="round"/>
    <path d="M 74.06988525390625 92.63448333740234 C 68.92684173583984 134.53134155273438 63.7625732421875 176.50425720214844 75.9070053100586 187.77516174316406 C 88.42915344238281 199.51426696777344 118.31672668457031 180.05630493164062 147.8564910888672 160.27603149414062 C 177.67910766601562 140.79444885253906 167.33645629882812 133.62078857421875 156.51312255859375 126.44991302490234" stroke-width="2.955523729324341" fill="none" stroke="rgb(3, 0, 0)" stroke-opacity="1.0" stroke-linecap="round" stroke-linejoin="round"/>
    <path d="M 154.1930694580078 95.08341217041016 C 165.23590087890625 93.87743377685547 176.83258056640625 92.70863342285156 178.24569702148438 97.27987670898438 C 180.3131103515625 102.28620147705078 173.18238830566406 112.66082763671875 165.3202667236328 122.66221618652344 C 157.75035095214844 132.8766326904297 160.1771240234375 133.07766723632812 162.42127990722656 133.56207275390625" stroke-width="2.0" fill="none" stroke="rgb(1, 1, 0)" stroke-opacity="0.97152364" stroke-linecap="round" stroke-linejoin="round"/>
    <path d="M 93.74987030029297 109.79475402832031 C 89.8008804321289 121.72325897216797 85.91505432128906 133.87649536132812 81.95514678955078 145.95968627929688 C 78.17585754394531 158.13143920898438 87.08329010009766 151.20042419433594 95.96697998046875 144.39254760742188" stroke-width="2.1808629035949707" fill="none" stroke="rgb(0, 2, 0)" stroke-opacity="0.97958267" stroke-linecap="round" stroke-linejoin="round"/>
    <path d="M 76.99433898925781 111.4165267944336 C 87.22320556640625 108.09890747070312 79.50845336914062 111.5263442993164 91.29180145263672 111.02791595458984" stroke-width="2.0" fill="none" stroke="rgb(0, 0, 7)" stroke-opacity="0.99387044" stroke-linecap="round" stroke-linejoin="round"/>
    <path d="M 110.96388244628906 115.79418182373047 C 119.49064636230469 112.75252532958984 111.77281951904297 116.15303802490234 120.01671600341797 117.86334228515625" stroke-width="2.0" fill="none" stroke="rgb(0, 0, 4)" stroke-opacity="0.980001" stroke-linecap="round" stroke-linejoin="round"/>
    <path d="M 85.48238372802734 160.95729064941406 C 107.35983276367188 162.18820190429688 107.86156463623047 163.0650177001953 107.33209991455078 162.63726806640625" stroke-width="2.3923914432525635" fill="none" stroke="rgb(0, 4, 0)" stroke-opacity="1.0" stroke-linecap="round" stroke-linejoin="round"/>
    <path d="M 117.14522552490234 120.0926513671875 C 117.70240020751953 120.14404296875 118.15494537353516 119.88816833496094 121.382568359375 120.06391143798828 C 123.83311462402344 120.8717269897461 127.7955551147461 122.79383087158203 132.19851684570312 123.89791107177734 C 136.37796020507812 124.70777893066406 139.7557373046875 125.9544677734375 143.67018127441406 126.72116088867188 C 146.89566040039062 126.31124877929688 151.47012329101562 125.06382751464844 153.11663818359375 127.83863067626953 C 155.10487365722656 129.9687042236328 154.66830444335938 135.14544677734375 153.15467834472656 138.16354370117188 C 152.5674285888672 141.4676055908203 150.33251953125 141.83653259277344 148.92059326171875 141.8212890625 C 148.15867614746094 141.2027130126953 148.85092163085938 139.2127685546875 146.70465087890625 139.55018615722656 C 144.6651153564453 139.7001495361328 140.5421905517578 143.15089416503906 136.9750518798828 142.3784942626953 C 133.04017639160156 141.7842559814453 129.54136657714844 139.2271270751953 127.99240112304688 137.4285888671875 C 125.82341003417969 135.6440887451172 124.12699127197266 134.85536193847656 122.94549560546875 134.0164337158203 C 121.61884307861328 133.4307403564453 120.77006530761719 132.78233337402344 120.89015197753906 133.0892333984375 C 120.86640930175781 133.5341339111328 121.50187683105469 134.9160614013672 121.03340911865234 136.7406005859375 C 120.30803680419922 137.51956176757812 118.18670654296875 137.6012420654297 116.4787826538086 136.96241760253906 C 115.39581298828125 136.66685485839844 115.40121459960938 135.71348571777344 115.98323822021484 136.05117797851562 C 116.94861602783203 136.03311157226562 117.7596435546875 137.9343719482422 118.70832824707031 139.9939727783203 C 118.94792175292969 142.18592834472656 112.51659393310547 144.9560546875 105.51148986816406 146.4633331298828" stroke-width="2.0" fill="none" stroke="rgb(15, 21, 16)" stroke-opacity="1.0" stroke-linecap="round" stroke-linejoin="round"/>
    <path d="M 126.70042419433594 78.51398468017578 C 126.21491241455078 78.7518539428711 126.8305892944336 78.47669982910156 126.95425415039062 78.34212493896484 C 127.87731170654297 78.89628601074219 126.95438385009766 78.48966979980469 127.9957504272461 78.76446533203125 C 128.15545654296875 78.41452026367188 128.93997192382812 77.77314758300781 127.22822570800781 75.62631225585938 C 126.9140396118164 73.40830993652344 125.81429290771484 69.51810455322266 126.3177719116211 64.47457885742188 C 125.07730102539062 60.484920501708984 124.66403198242188 56.16624450683594 124.92153930664062 52.918212890625 C 124.55810546875 49.697269439697266 124.33624267578125 47.766971588134766 123.39013671875 46.06794738769531 C 124.36331939697266 43.34206008911133 123.96400451660156 39.61380386352539 122.74258422851562 35.96354293823242" stroke-width="2.0" fill="none" stroke="rgb(17, 20, 22)" stroke-opacity="0.9722421" stroke-linecap="round" stroke-linejoin="round"/>
    <path d="M 114.72560119628906 36.71491622924805 C 113.84402465820312 37.3314208984375 113.09519958496094 37.41609191894531 112.89912414550781 37.47032165527344 C 112.68181610107422 37.574649810791016 113.03104400634766 37.63079833984375 112.3507080078125 38.18191909790039 C 111.7749252319336 38.85954666137695 110.12648010253906 39.97317123413086 108.0598373413086 40.72026062011719 C 106.20242309570312 41.59862518310547 104.18214416503906 42.32319259643555 99.17877960205078 45.785255432128906 C 94.08845520019531 49.3256950378418 85.98490142822266 55.5999641418457 81.69528198242188 59.08958435058594 C 77.4613037109375 62.58984375 77.07532501220703 63.28585433959961 76.34353637695312 63.99210739135742 C 75.66047668457031 64.75830841064453 74.77018737792969 65.64700317382812 73.80825805664062 66.52517700195312 C 72.97997283935547 67.38471984863281 70.17586517333984 67.97077941894531 67.04449462890625 68.19984436035156" stroke-width="2.0" fill="none" stroke="rgb(21, 17, 19)" stroke-opacity="0.9919868" stroke-linecap="round" stroke-linejoin="round"/>
    <path d="M 54.420257568359375 91.35588836669922 C 54.819461822509766 92.89151000976562 54.9763069152832 93.52928161621094 55.59060287475586 94.95841979980469 C 56.87553024291992 95.65130615234375 58.083377838134766 97.75642395019531 58.355247497558594 103.61376953125 C 57.70766067504883 108.89077758789062 56.64286804199219 117.05194854736328 56.639671325683594 122.09974670410156 C 58.3164176940918 126.97410583496094 60.52220916748047 128.84844970703125 61.416019439697266 130.0164031982422 C 62.51802444458008 130.98468017578125 62.55485153198242 131.0403594970703 64.25308227539062 130.964599609375 C 64.44352722167969 132.51953125 66.23118591308594 133.97097778320312 67.5087890625 134.55702209472656 C 68.76576232910156 134.54296875 69.57118225097656 134.2220458984375 74.9810791015625 135.35911560058594 C 79.1274185180664 134.17169189453125 87.85873413085938 134.66082763671875 92.80535125732422 134.71121215820312 C 97.65702819824219 135.52426147460938 98.65186309814453 136.5338897705078 100.23583221435547 136.8328857421875 C 100.68830108642578 137.58895874023438 103.75413513183594 136.4833984375 108.0934829711914 135.79153442382812" stroke-width="2.0" fill="none" stroke="rgb(24, 17, 18)" stroke-opacity="1.0" stroke-linecap="round" stroke-linejoin="round"/>
    <path d="M 105.45409393310547 120.3902816772461 C 105.10749053955078 120.12330627441406 104.30367279052734 120.79939270019531 104.4146957397461 120.78900146484375 C 105.27641296386719 119.82166290283203 105.59918975830078 119.9367446899414 104.74650573730469 118.36016845703125 C 104.03189849853516 116.70002746582031 102.23339080810547 113.26429748535156 101.0284423828125 111.42669677734375 C 99.11202239990234 110.24454498291016 98.21058654785156 110.32926177978516 98.58161926269531 111.19440460205078 C 99.02027130126953 111.1698226928711 99.73321533203125 110.0756607055664 101.3997573852539 110.02938842773438 C 103.92327117919922 109.44645690917969 102.64319610595703 106.37073516845703 101.65900421142578 103.36744689941406" stroke-width="2.0" fill="none" stroke="rgb(24, 22, 17)" stroke-opacity="1.0" stroke-linecap="round" stroke-linejoin="round"/>
    <path d="M 99.96993255615234 96.80925750732422 C 100.37358093261719 96.98188781738281 99.3904800415039 97.2490234375 97.07170104980469 96.06281280517578 C 95.98394012451172 96.12845611572266 94.86288452148438 96.10132598876953 93.71868896484375 97.27110290527344 C 93.87026977539062 96.38330078125 90.40889739990234 95.55864715576172 86.81136322021484 95.08251190185547" stroke-width="2.0" fill="none" stroke="rgb(23, 19, 26)" stroke-opacity="1.0" stroke-linecap="round" stroke-linejoin="round"/>
    <path d="M 136.37594604492188 92.61418151855469 C 135.5402374267578 93.01769256591797 134.67335510253906 95.03209686279297 134.1781768798828 96.92273712158203 C 133.59361267089844 98.83341217041016 134.22425842285156 101.58639526367188 136.0086669921875 103.96044921875 C 138.61599731445312 105.09857940673828 141.6569366455078 106.6460189819336 141.5878448486328 108.3765640258789 C 142.61251831054688 109.01576232910156 141.7629852294922 108.55441284179688 143.7740020751953 107.99559783935547 C 144.623779296875 108.68959045410156 147.29083251953125 110.30529022216797 148.9391326904297 111.18675231933594 C 150.4471435546875 112.29505157470703 149.8594207763672 113.74747467041016 150.3915252685547 113.76134490966797 C 150.88600158691406 114.02498626708984 151.3053741455078 113.99751281738281 151.5353546142578 114.36823272705078 C 152.94297790527344 113.51050567626953 152.95025634765625 114.16338348388672 153.5063018798828 115.36328125 C 153.74392700195312 116.68392944335938 154.6642303466797 118.49189758300781 154.8220977783203 119.66639709472656 C 154.811767578125 122.02509307861328 154.6239471435547 122.49371337890625 154.39788818359375 122.30836486816406 C 152.9908447265625 122.61849212646484 153.61102294921875 121.271728515625 149.777099609375 120.85411834716797 C 145.94674682617188 120.6372299194336 137.63629150390625 120.91901397705078 130.3157196044922 120.0517807006836 C 124.19251251220703 118.68631744384766 127.95738983154297 117.4236068725586 131.3599395751953 115.78815460205078" stroke-width="2.0" fill="none" stroke="rgb(27, 20, 25)" stroke-opacity="1.0" stroke-linecap="round" stroke-linejoin="round"/>
    <path d="M 133.5416717529297 28.05432891845703 C 134.77464294433594 28.029022216796875 133.5162353515625 29.167903900146484 133.65025329589844 29.868982315063477 C 135.0578155517578 30.881542205810547 135.36410522460938 31.87788200378418 136.01885986328125 32.783905029296875 C 136.96282958984375 40.00060272216797 139.13658142089844 46.347652435302734 141.18028259277344 52.724361419677734 C 142.0686492919922 56.44853210449219 142.99856567382812 60.03631591796875 143.78955078125 63.75236129760742 C 145.57080078125 65.47977447509766 145.14602661132812 67.7941665649414 145.75979614257812 69.81724548339844 C 146.60105895996094 70.2782974243164 147.4391326904297 71.22789764404297 147.22308349609375 72.32906341552734 C 148.15330505371094 75.70994567871094 149.41436767578125 77.90125274658203 149.80230712890625 80.6448974609375 C 150.02630615234375 81.43525695800781 150.4529266357422 82.16121673583984 150.7283172607422 82.91490173339844 C 150.28170776367188 84.70108032226562 149.91757202148438 86.09884643554688 150.0192108154297 89.05106353759766 C 150.3553009033203 91.21654510498047 151.38807678222656 92.5989761352539 151.8543701171875 94.7574691772461 C 151.87725830078125 96.20362854003906 151.845947265625 97.67749786376953 152.1973876953125 99.05489349365234 C 152.4613494873047 103.20939636230469 153.2723846435547 107.88662719726562 149.84556579589844 111.63099670410156 C 149.39129638671875 114.38529968261719 147.4149627685547 113.81124114990234 144.85508728027344 113.50592803955078 C 144.0371551513672 112.05431365966797 142.3795166015625 111.64918518066406 140.99073791503906 110.64673614501953 C 133.408447265625 107.3477783203125 126.12600708007812 103.4578628540039 118.88201904296875 99.7544174194336 C 115.43049621582031 99.10445404052734 112.64405822753906 98.28975677490234 109.721923828125 97.6709976196289 C 109.43494415283203 97.2320556640625 109.012939453125 97.09468841552734 109.41154479980469 96.0684585571289 C 109.28358459472656 95.9477767944336 108.41407775878906 96.46309661865234 109.0272445678711 96.47355651855469 C 108.24651336669922 96.66281127929688 108.07310485839844 98.0923080444336 108.07781982421875 98.57196044921875 C 106.62360382080078 99.3448257446289 105.88101959228516 100.84122467041016 104.9345474243164 102.67686462402344 C 104.30775451660156 104.93880462646484 102.34201049804688 107.23612976074219 100.22186279296875 108.86650085449219 C 99.8377456665039 109.64558410644531 99.1783676147461 110.140625 99.23017120361328 111.35782623291016 C 97.68687438964844 112.90959167480469 95.69345092773438 113.84700012207031 93.60565185546875 114.66352081298828 C 91.88216400146484 116.90601348876953 88.77027130126953 113.21146392822266 87.08452606201172 111.70529174804688 C 84.24274444580078 108.30091857910156 80.31349182128906 105.27528381347656 76.22655487060547 103.69637298583984" stroke-width="2.0" fill="none" stroke="rgb(20, 26, 20)" stroke-opacity="1.0" stroke-linecap="round" stroke-linejoin="round"/>
    <path d="M 166.2812042236328 141.74122619628906 C 167.48873901367188 147.37013244628906 165.2699432373047 153.76321411132812 165.954833984375 151.9323272705078 C 164.9291534423828 156.44488525390625 154.2900390625 156.31521606445312 147.9507598876953 156.8592987060547" stroke-width="4.023185729980469" fill="none" stroke="rgb(192, 124, 10)" stroke-opacity="0.22715783" stroke-linecap="round" stroke-linejoin="round"/>
    <path d="M 149.43048095703125 103.3864974975586 C 148.12472534179688 88.62049102783203 162.78309631347656 99.00358581542969 159.70140075683594 91.40424346923828" stroke-width="2.1145803928375244" fill="none" stroke="rgb(255, 57, 171)" stroke-opacity="0.19148813" stroke-linecap="round" stroke-linejoin="round"/>
    <path d="M 73.80767059326172 91.4902572631836 C 81.54693603515625 89.17820739746094 81.05764770507812 94.6022720336914 83.6270980834961 99.47588348388672 C 88.1374282836914 95.19007110595703 89.67855834960938 94.44197845458984 93.9548568725586 94.59724426269531 C 92.16122436523438 92.2817153930664 89.15735626220703 87.49602508544922 89.51102447509766 80.40323638916016" stroke-width="2.572695732116699" fill="none" stroke="rgb(131, 253, 173)" stroke-opacity="0.11306476" stroke-linecap="round" stroke-linejoin="round"/>
    <path d="M 200.85140991210938 83.60670471191406 C 199.01197814941406 80.55347442626953 207.1240997314453 84.1502456665039 208.78118896484375 82.62975311279297 C 209.02320861816406 74.58614349365234 204.1813507080078 74.74333190917969 201.0738067626953 78.87312316894531" stroke-width="2.0" fill="none" stroke="rgb(134, 159, 61)" stroke-opacity="0.49071968" stroke-linecap="round" stroke-linejoin="round"/>
    <path d="M 141.02456665039062 151.7347412109375 C 152.7784423828125 148.417724609375 140.0851287841797 157.1495361328125 143.28707885742188 165.47132873535156" stroke-width="2.0" fill="none" stroke="rgb(144, 14, 242)" stroke-opacity="0.0" stroke-linecap="round" stroke-linejoin="round"/>
    <path d="M 30.020753860473633 80.48737335205078 C 29.617938995361328 87.57563781738281 23.389734268188477 86.94390106201172 21.809959411621094 87.91996765136719 C 22.270578384399414 96.49564361572266 22.93348503112793 90.62427520751953 20.649599075317383 78.27107238769531" stroke-width="2.0" fill="none" stroke="rgb(47, 51, 60)" stroke-opacity="0.3229426" stroke-linecap="round" stroke-linejoin="round"/>
    <path d="M 202.500732421875 76.60203552246094 C 207.09674072265625 82.13375091552734 212.0283966064453 87.60980224609375 214.67965698242188 99.0287857055664 C 220.47747802734375 107.82975769042969 221.4501495361328 95.06123352050781 221.26983642578125 77.11149597167969" stroke-width="2.0" fill="none" stroke="rgb(78, 65, 216)" stroke-opacity="0.6502639" stroke-linecap="round" stroke-linejoin="round"/>
    <path d="M 17.562030792236328 83.99956512451172 C 15.854368209838867 87.54386138916016 10.94376277923584 88.17573547363281 6.461976528167725 90.55491638183594 C 3.660046339035034 97.65200805664062 6.689985752105713 92.38430786132812 -0.032127976417541504 86.06912994384766" stroke-width="2.0" fill="none" stroke="rgb(45, 31, 223)" stroke-opacity="0.7215385" stroke-linecap="round" stroke-linejoin="round"/>
    <path d="M 133.65931701660156 166.72999572753906 C 136.62367248535156 161.4712677001953 139.28823852539062 160.9564666748047 142.4753875732422 160.47010803222656 C 146.29127502441406 160.41213989257812 154.0338134765625 156.81793212890625 163.22369384765625 151.4479217529297" stroke-width="6.52575159072876" fill="none" stroke="rgb(255, 0, 11)" stroke-opacity="0.78664225" stroke-linecap="round" stroke-linejoin="round"/>
    <path d="M 141.3824005126953 157.25181579589844 C 141.68194580078125 156.03860473632812 142.1492919921875 153.09298706054688 144.3303985595703 151.38133239746094 C 139.5928955078125 150.02272033691406 142.34429931640625 150.32073974609375 151.4685516357422 146.55490112304688 C 153.96946716308594 156.3734893798828 156.9285430908203 146.39797973632812 157.51669311523438 131.83384704589844" stroke-width="2.095621347427368" fill="none" stroke="rgb(55, 72, 5)" stroke-opacity="0.048905388" stroke-linecap="round" stroke-linejoin="round"/>
    <path d="M 150.5643768310547 167.5060272216797 C 134.1416778564453 169.7832489013672 117.44186401367188 168.36129760742188 113.02869415283203 170.2251434326172 C 112.07157897949219 177.2821502685547 114.19712829589844 183.52525329589844 115.3348159790039 191.6077880859375 C 117.34896850585938 195.09413146972656 124.34459686279297 193.69247436523438 135.00950622558594 195.41970825195312" stroke-width="2.0" fill="none" stroke="rgb(235, 83, 198)" stroke-opacity="0.10727979" stroke-linecap="round" stroke-linejoin="round"/>
    <path d="M 149.85556030273438 152.2177734375 C 146.68507385253906 151.70460510253906 144.14622497558594 150.67237854003906 142.49560546875 152.17471313476562 C 144.79937744140625 151.02952575683594 145.89747619628906 158.5670623779297 145.1792755126953 163.23416137695312 C 139.92771911621094 169.1132354736328 140.68008422851562 164.81527709960938 144.5612335205078 166.40858459472656" stroke-width="2.0" fill="none" stroke="rgb(255, 121, 77)" stroke-opacity="0.36480835" stroke-linecap="round" stroke-linejoin="round"/>
    <path d="M 118.49578857421875 108.70056915283203 C 119.2417221069336 105.83885955810547 119.77313995361328 106.58981323242188 119.38538360595703 108.21401977539062 C 119.79426574707031 104.30984497070312 117.55528259277344 96.29010009765625 119.16360473632812 84.58460998535156 C 113.74866485595703 83.5784912109375 112.6384048461914 73.18304443359375 110.22710418701172 61.83428955078125" stroke-width="2.7494335174560547" fill="none" stroke="rgb(194, 50, 92)" stroke-opacity="0.3940792" stroke-linecap="round" stroke-linejoin="round"/>
    <path d="M 179.53050231933594 22.48599624633789 C 184.5924072265625 18.792566299438477 190.8577423095703 16.03042984008789 188.04100036621094 16.098129272460938 C 181.33383178710938 12.721562385559082 174.80520629882812 7.70576810836792 163.24264526367188 6.025829792022705 C 155.3845977783203 1.0135780572891235 169.7647247314453 13.781349182128906 184.10928344726562 20.094467163085938" stroke-width="2.0" fill="none" stroke="rgb(150, 143, 255)" stroke-opacity="0.7596996" stroke-linecap="round" stroke-linejoin="round"/>
    <path d="M 162.7677001953125 150.42413330078125 C 168.9945068359375 158.52093505859375 176.32821655273438 166.5721435546875 180.0511016845703 164.3821258544922 C 179.60101318359375 154.5087127685547 179.5774688720703 144.167236328125 180.6000518798828 130.15711975097656 C 180.5140380859375 117.01830291748047 174.54635620117188 127.4804916381836 166.46609497070312 133.11756896972656" stroke-width="2.0" fill="none" stroke="rgb(114, 55, 197)" stroke-opacity="0.014994692" stroke-linecap="round" stroke-linejoin="round"/>
    <path d="M 223.48712158203125 189.9652557373047 C 221.33485412597656 183.940673828125 218.53468322753906 181.7897186279297 212.3545379638672 181.31129455566406 C 211.80210876464844 185.53285217285156 215.08172607421875 171.86618041992188 217.25759887695312 158.04995727539062" stroke-width="2.0" fill="none" stroke="rgb(82, 45, 222)" stroke-opacity="0.29817373" stroke-linecap="round" stroke-linejoin="round"/>
    <path d="M 173.9077911376953 196.97718811035156 C 165.14080810546875 196.16380310058594 160.83328247070312 197.1801300048828 161.83433532714844 199.8313446044922 C 151.94467163085938 198.1171875 157.9161834716797 201.1141815185547 165.44265747070312 200.53353881835938" stroke-width="2.0" fill="none" stroke="rgb(56, 43, 138)" stroke-opacity="0.6890131" stroke-linecap="round" stroke-linejoin="round"/>
    <path d="M 166.25814819335938 157.0719757080078 C 164.18150329589844 177.5440673828125 166.49575805664062 186.5363311767578 167.93580627441406 199.44078063964844" stroke-width="2.59586763381958" fill="none" stroke="rgb(20, 35, 33)" stroke-opacity="0.31639215" stroke-linecap="round" stroke-linejoin="round"/>
    <path d="M 82.43663787841797 136.63026428222656 C 78.73411560058594 105.72037506103516 83.67509460449219 105.66455841064453 77.68341064453125 106.2658462524414" stroke-width="2.0" fill="none" stroke="rgb(145, 173, 148)" stroke-opacity="0.7003452" stroke-linecap="round" stroke-linejoin="round"/>
    <path d="M 222.78955078125 32.81184005737305 C 224.58511352539062 41.20014953613281 224.65318298339844 46.712738037109375 226.49656677246094 50.55299377441406 C 228.09693908691406 54.35136413574219 226.69918823242188 60.23360061645508 226.7089080810547 64.93603515625" stroke-width="2.538391351699829" fill="none" stroke="rgb(106, 92, 234)" stroke-opacity="0.063406184" stroke-linecap="round" stroke-linejoin="round"/>
    <path d="M 213.7342987060547 159.8828887939453 C 209.710693359375 158.13150024414062 202.6708984375 156.2823944091797 201.77125549316406 156.3107147216797 C 204.445068359375 155.1794891357422 203.06390380859375 149.29151916503906 203.18951416015625 146.52923583984375 C 209.20257568359375 144.6162567138672 209.89683532714844 143.2509765625 209.38587951660156 145.30931091308594" stroke-width="2.0" fill="none" stroke="rgb(36, 10, 235)" stroke-opacity="0.47864118" stroke-linecap="round" stroke-linejoin="round"/>
    <path d="M 99.0179443359375 218.03399658203125 C 96.22807312011719 217.5711212158203 88.91165924072266 210.4462432861328 84.61973571777344 205.80552673339844" stroke-width="2.0" fill="none" stroke="rgb(193, 194, 73)" stroke-opacity="0.31743225" stroke-linecap="round" stroke-linejoin="round"/>
    <path d="M 172.1356964111328 66.12440490722656 C 177.08914184570312 70.6200180053711 178.06471252441406 73.30455780029297 183.01943969726562 72.42918395996094 C 186.32073974609375 71.68863677978516 182.75062561035156 59.78508377075195 181.80824279785156 44.88905334472656" stroke-width="3.6278433799743652" fill="none" stroke="rgb(157, 236, 114)" stroke-opacity="0.051007878" stroke-linecap="round" stroke-linejoin="round"/>
    <path d="M 35.619998931884766 178.92608642578125 C 35.43964767456055 187.9653778076172 40.52356719970703 177.11058044433594 64.36771392822266 179.86962890625" stroke-width="2.0" fill="none" stroke="rgb(147, 132, 145)" stroke-opacity="0.85785776" stroke-linecap="round" stroke-linejoin="round"/>
    <path d="M 123.9727783203125 134.777587890625 C 131.10113525390625 136.99659729003906 134.64610290527344 134.930908203125 129.8212127685547 135.8243865966797 C 128.90493774414062 133.72792053222656 127.87923431396484 139.5533447265625 130.7716064453125 143.54312133789062 C 128.74169921875 150.76626586914062 118.9886474609375 151.56900024414062 106.22808074951172 155.0644989013672" stroke-width="3.3246119022369385" fill="none" stroke="rgb(186, 174, 184)" stroke-opacity="0.35664636" stroke-linecap="round" stroke-linejoin="round"/>
  </g>
</svg>
