<?xml version="1.0" ?>
<svg xmlns="http://www.w3.org/2000/svg" version="1.1" width="956.0" height="956.0">
  <defs/>
  <g>
    <path d="M 58.2678108215332 111.49615478515625 C 98.26476287841797 124.61785888671875 141.15509033203125 119.04566192626953 140.8821563720703 114.23713684082031 C 141.48294067382812 107.69294738769531 99.4921875 92.70697021484375 65.12998962402344 104.87421417236328" stroke-width="1.7356772422790527" fill="none" stroke="rgb(90, 86, 87)" stroke-opacity="1.0" stroke-linecap="round" stroke-linejoin="round"/>
    <path d="M 101.06602478027344 111.903564453125 C 99.2639389038086 90.51105499267578 97.5921401977539 68.23123168945312 101.93382263183594 45.181880950927734" stroke-width="1.7356772422790527" fill="none" stroke="rgb(166, 111, 21)" stroke-opacity="0.99" stroke-linecap="round" stroke-linejoin="round"/>
    <path d="M 101.95243835449219 72.45870971679688 C 110.87602996826172 67.04753875732422 118.2630386352539 67.02809143066406 118.83641052246094 67.49464416503906" stroke-width="1.7356772422790527" fill="none" stroke="rgb(166, 116, 21)" stroke-opacity="0.99" stroke-linecap="round" stroke-linejoin="round"/>
    <path d="M 97.75431060791016 84.1457748413086 C 85.23440551757812 78.75404357910156 86.52913665771484 67.0779037475586 79.34107971191406 67.77764892578125" stroke-width="1.7356772422790527" fill="none" stroke="rgb(166, 111, 16)" stroke-opacity="1.0" stroke-linecap="round" stroke-linejoin="round"/>
    <path d="M 103.60173797607422 45.100181579589844 C 103.9205322265625 34.341590881347656 112.97278594970703 28.700218200683594 116.17835998535156 26.386898040771484" stroke-width="1.7356772422790527" fill="none" stroke="rgb(166, 111, 16)" stroke-opacity="1.0" stroke-linecap="round" stroke-linejoin="round"/>
    <path d="M 101.06600952148438 45.18186950683594 C 95.50436401367188 36.395076751708984 93.70111083984375 34.302696228027344 90.34779357910156 33.17519760131836" stroke-width="1.7356772422790527" fill="none" stroke="rgb(166, 111, 21)" stroke-opacity="1.0" stroke-linecap="round" stroke-linejoin="round"/>
    <path d="M 89.4804916381836 34.03097915649414 C 89.48005676269531 33.17287826538086 90.24015045166016 29.88030242919922 90.02901458740234 28.888755798339844 C 88.95010375976562 27.916791915893555 87.17522430419922 26.78932762145996 86.30751037597656 26.789316177368164" stroke-width="1.7356772422790527" fill="none" stroke="rgb(166, 116, 16)" stroke-opacity="0.99000037" stroke-linecap="round" stroke-linejoin="round"/>
    <path d="M 90.34779357910156 34.03328323364258 C 79.96504211425781 37.24079132080078 79.62267303466797 37.86271667480469 79.47695922851562 37.73601150512695" stroke-width="1.7356772422790527" fill="none" stroke="rgb(161, 111, 16)" stroke-opacity="1.0" stroke-linecap="round" stroke-linejoin="round"/>
    <path d="M 118.8358154296875 67.48204803466797 C 118.83573150634766 67.48419189453125 118.07564544677734 63.33200454711914 119.152587890625 62.34040451049805 C 120.23165893554688 61.36855697631836 122.87265014648438 61.10799789428711 122.87411499023438 60.24097442626953" stroke-width="1.7356772422790527" fill="none" stroke="rgb(161, 111, 16)" stroke-opacity="1.0" stroke-linecap="round" stroke-linejoin="round"/>
    <path d="M 118.8358154296875 67.48487854003906 C 129.21844482421875 70.69245147705078 129.5605926513672 71.31449890136719 129.70635986328125 72.05291748046875" stroke-width="1.7356772422790527" fill="none" stroke="rgb(166, 116, 21)" stroke-opacity="0.99" stroke-linecap="round" stroke-linejoin="round"/>
    <path d="M 117.04609680175781 26.39078712463379 C 117.04606628417969 26.39080047607422 119.44206237792969 28.424793243408203 121.70728302001953 27.168354034423828 C 123.10540771484375 26.77956771850586 124.52445983886719 28.140361785888672 124.52344512939453 28.140445709228516" stroke-width="1.7356772422790527" fill="none" stroke="rgb(161, 111, 21)" stroke-opacity="0.99000007" stroke-linecap="round" stroke-linejoin="round"/>
    <path d="M 101.06616973876953 44.31427764892578 C 101.06613159179688 44.31439208984375 104.78752899169922 41.430030822753906 106.18719482421875 41.00236511230469 C 106.71727752685547 39.74603271484375 109.27934265136719 41.7799186706543 110.14685821533203 41.77988815307617" stroke-width="1.7356772422790527" fill="none" stroke="rgb(166, 111, 16)" stroke-opacity="0.9900002" stroke-linecap="round" stroke-linejoin="round"/>
    <path d="M 117.04608154296875 27.258548736572266 C 118.58692169189453 15.796221733093262 108.98765563964844 20.792173385620117 109.28382873535156 20.306182861328125" stroke-width="1.7356772422790527" fill="none" stroke="rgb(161, 111, 21)" stroke-opacity="0.99" stroke-linecap="round" stroke-linejoin="round"/>
    <path d="M 97.8165054321289 60.541072845458984 C 96.9487075805664 60.54103469848633 96.59489440917969 56.8281135559082 96.4012222290039 54.968910217285156 C 95.32239532470703 53.99693298339844 93.54753875732422 52.86945724487305 93.54750061035156 52.86954879760742" stroke-width="1.7356772422790527" fill="none" stroke="rgb(166, 111, 16)" stroke-opacity="1.0" stroke-linecap="round" stroke-linejoin="round"/>
    <path d="M 79.52571868896484 67.41227722167969 C 79.52579498291016 67.40476989746094 80.285888671875 64.11920928955078 79.20700073242188 63.1276969909668 C 78.1280746459961 62.155738830566406 76.35319519042969 61.02826690673828 76.3531723022461 61.89580154418945" stroke-width="1.7356772422790527" fill="none" stroke="rgb(166, 116, 16)" stroke-opacity="0.9900001" stroke-linecap="round" stroke-linejoin="round"/>
    <path d="M 78.65798950195312 67.40441131591797 C 71.02989959716797 74.05274200439453 68.39591217041016 71.79776000976562 68.65709686279297 71.97274780273438" stroke-width="1.7356772422790527" fill="none" stroke="rgb(166, 111, 16)" stroke-opacity="1.0" stroke-linecap="round" stroke-linejoin="round"/>
    <path d="M 66.2854995727539 73.98938751220703 C 64.71086883544922 78.18818664550781 60.134063720703125 82.29711151123047 57.460906982421875 84.09797668457031" stroke-width="1.7356772422790527" fill="none" stroke="rgb(26, 131, 12)" stroke-opacity="1.0" stroke-linecap="round" stroke-linejoin="round"/>
    <path d="M 66.2854995727539 73.98941040039062 C 55.27680587768555 77.17749786376953 56.41327667236328 83.92301940917969 56.59405517578125 84.09797668457031" stroke-width="1.7356772422790527" fill="none" stroke="rgb(26, 131, 12)" stroke-opacity="1.0" stroke-linecap="round" stroke-linejoin="round"/>
    <path d="M 67.12061309814453 72.62007141113281 C 59.81911087036133 77.4022216796875 58.50067901611328 80.47371673583984 56.596046447753906 84.10189056396484" stroke-width="1.7356772422790527" fill="none" stroke="rgb(87, 232, 48)" stroke-opacity="1.0" stroke-linecap="round" stroke-linejoin="round"/>
    <path d="M 65.37824249267578 70.90764617919922 C 62.0203742980957 72.46260833740234 55.83272933959961 72.85137939453125 52.83327865600586 70.71692657470703" stroke-width="1.7356772422790527" fill="none" stroke="rgb(31, 131, 17)" stroke-opacity="0.99000007" stroke-linecap="round" stroke-linejoin="round"/>
    <path d="M 66.24467468261719 70.90741729736328 C 56.69010543823242 65.43791198730469 52.85079574584961 71.38644409179688 52.83186340332031 71.5847396850586" stroke-width="1.7356772422790527" fill="none" stroke="rgb(31, 125, 17)" stroke-opacity="0.99000007" stroke-linecap="round" stroke-linejoin="round"/>
    <path d="M 68.65711975097656 71.97078704833984 C 63.4005126953125 70.17525482177734 56.227317810058594 70.52526092529297 52.89276885986328 71.67220306396484" stroke-width="1.7356772422790527" fill="none" stroke="rgb(87, 227, 48)" stroke-opacity="1.0" stroke-linecap="round" stroke-linejoin="round"/>
    <path d="M 77.06657409667969 37.538108825683594 C 71.98418426513672 38.22560501098633 65.78711700439453 38.614410400390625 62.78755569458008 37.34771728515625" stroke-width="1.7356772422790527" fill="none" stroke="rgb(26, 131, 12)" stroke-opacity="1.0" stroke-linecap="round" stroke-linejoin="round"/>
    <path d="M 76.19892883300781 36.671905517578125 C 67.51212310791016 30.333145141601562 63.67279815673828 37.149417877197266 63.65526580810547 37.34771728515625" stroke-width="1.7356772422790527" fill="none" stroke="rgb(26, 131, 12)" stroke-opacity="1.0" stroke-linecap="round" stroke-linejoin="round"/>
    <path d="M 79.47699737548828 37.73380661010742 C 71.10626220703125 35.26498031616211 67.35102081298828 35.57606506347656 63.71289825439453 36.567405700683594" stroke-width="1.7356772422790527" fill="none" stroke="rgb(87, 232, 48)" stroke-opacity="1.0" stroke-linecap="round" stroke-linejoin="round"/>
    <path d="M 76.5876693725586 39.42115020751953 C 76.06474304199219 43.872802734375 73.6678466796875 49.58803939819336 70.45643615722656 51.3570671081543" stroke-width="1.7356772422790527" fill="none" stroke="rgb(26, 131, 12)" stroke-opacity="1.0" stroke-linecap="round" stroke-linejoin="round"/>
    <path d="M 77.4554672241211 40.288909912109375 C 66.67356872558594 46.04303741455078 70.23677062988281 52.0887565612793 70.4564208984375 52.2248420715332" stroke-width="1.7356772422790527" fill="none" stroke="rgb(26, 131, 12)" stroke-opacity="1.0" stroke-linecap="round" stroke-linejoin="round"/>
    <path d="M 78.6093978881836 37.73378372192383 C 73.54226684570312 44.996726989746094 72.16402435302734 48.515750885009766 71.8160400390625 50.564109802246094" stroke-width="1.7356772422790527" fill="none" stroke="rgb(87, 232, 53)" stroke-opacity="1.0" stroke-linecap="round" stroke-linejoin="round"/>
    <path d="M 73.74446105957031 61.55779266357422 C 70.11702728271484 64.20156860351562 64.29287719726562 66.32049560546875 59.95718765258789 65.15412139892578" stroke-width="1.7356772422790527" fill="none" stroke="rgb(26, 131, 12)" stroke-opacity="1.0" stroke-linecap="round" stroke-linejoin="round"/>
    <path d="M 73.74443817138672 60.68997573852539 C 61.92629623413086 57.30750274658203 59.90110397338867 64.03364562988281 59.95710754394531 65.15411376953125" stroke-width="1.7356772422790527" fill="none" stroke="rgb(26, 131, 12)" stroke-opacity="1.0" stroke-linecap="round" stroke-linejoin="round"/>
    <path d="M 76.35711669921875 61.89603805541992 C 67.62855529785156 61.88435745239258 63.250553131103516 63.25672912597656 60.87091064453125 64.11917114257812" stroke-width="1.7356772422790527" fill="none" stroke="rgb(87, 232, 48)" stroke-opacity="0.9900001" stroke-linecap="round" stroke-linejoin="round"/>
    <path d="M 74.05860900878906 59.683807373046875 C 69.69828796386719 58.71184158325195 64.31351470947266 55.562625885009766 62.95858383178711 52.16069030761719" stroke-width="1.7356772422790527" fill="none" stroke="rgb(26, 131, 12)" stroke-opacity="1.0" stroke-linecap="round" stroke-linejoin="round"/>
    <path d="M 74.05857849121094 58.816097259521484 C 70.4162826538086 48.2797737121582 63.97989273071289 51.07909393310547 63.82619094848633 52.1602668762207" stroke-width="1.7356772422790527" fill="none" stroke="rgb(26, 131, 17)" stroke-opacity="1.0" stroke-linecap="round" stroke-linejoin="round"/>
    <path d="M 74.42607116699219 60.1068229675293 C 70.02954864501953 54.19717025756836 66.46431732177734 51.88386917114258 63.486209869384766 50.95077133178711" stroke-width="1.7356772422790527" fill="none" stroke="rgb(87, 232, 48)" stroke-opacity="1.0" stroke-linecap="round" stroke-linejoin="round"/>
    <path d="M 84.56427764892578 27.31627655029297 C 80.06941986083984 29.094844818115234 74.24525451660156 31.21377944946289 70.7772216796875 30.91517448425293" stroke-width="1.7356772422790527" fill="none" stroke="rgb(31, 131, 12)" stroke-opacity="0.99000096" stroke-linecap="round" stroke-linejoin="round"/>
    <path d="M 84.56433868408203 26.4510555267334 C 72.74461364746094 23.068599700927734 70.72091674804688 29.794721603393555 71.64497375488281 30.04738998413086" stroke-width="1.7356772422790527" fill="none" stroke="rgb(26, 131, 17)" stroke-opacity="1.0" stroke-linecap="round" stroke-linejoin="round"/>
    <path d="M 87.17713165283203 26.79140853881836 C 78.4488296508789 27.647382736206055 74.93804168701172 29.019817352294922 71.6909408569336 30.749937057495117" stroke-width="1.7356772422790527" fill="none" stroke="rgb(92, 232, 48)" stroke-opacity="0.9900004" stroke-linecap="round" stroke-linejoin="round"/>
    <path d="M 85.74646759033203 24.579008102416992 C 81.38617706298828 23.60702133178711 76.00141143798828 20.457807540893555 74.64646911621094 17.055883407592773" stroke-width="1.7356772422790527" fill="none" stroke="rgb(31, 131, 12)" stroke-opacity="1.0" stroke-linecap="round" stroke-linejoin="round"/>
    <path d="M 84.87865447998047 25.44682502746582 C 80.3686752319336 14.910553932189941 74.79991912841797 17.70984649658203 74.6464614868164 17.923702239990234" stroke-width="1.7356772422790527" fill="none" stroke="rgb(31, 131, 12)" stroke-opacity="0.99000007" stroke-linecap="round" stroke-linejoin="round"/>
    <path d="M 86.30960083007812 26.791263580322266 C 80.6720962524414 20.991235733032227 77.35943603515625 19.20282554626465 74.5018081665039 18.50299072265625" stroke-width="1.7356772422790527" fill="none" stroke="rgb(87, 232, 53)" stroke-opacity="1.0" stroke-linecap="round" stroke-linejoin="round"/>
    <path d="M 106.6711654663086 20.8337459564209 C 102.1763687133789 22.61001205444336 96.35212707519531 25.59646224975586 92.88397216796875 24.430126190185547" stroke-width="1.7356772422790527" fill="none" stroke="rgb(31, 131, 12)" stroke-opacity="0.99000007" stroke-linecap="round" stroke-linejoin="round"/>
    <path d="M 105.80353546142578 20.833812713623047 C 94.85126495361328 17.451318740844727 92.82752990722656 24.17719268798828 92.88387298583984 24.430084228515625" stroke-width="1.7356772422790527" fill="none" stroke="rgb(26, 131, 17)" stroke-opacity="1.0" stroke-linecap="round" stroke-linejoin="round"/>
    <path d="M 109.2837142944336 21.17400550842285 C 99.69049835205078 21.16232681274414 96.17703247070312 21.667030334472656 93.7975845336914 23.397085189819336" stroke-width="1.7356772422790527" fill="none" stroke="rgb(87, 232, 48)" stroke-opacity="1.0" stroke-linecap="round" stroke-linejoin="round"/>
    <path d="M 107.8511962890625 18.09396743774414 C 103.49081420898438 17.121994018554688 97.23835754394531 14.840555191040039 95.8834457397461 11.438631057739258" stroke-width="1.7356772422790527" fill="none" stroke="rgb(26, 131, 17)" stroke-opacity="0.99000007" stroke-linecap="round" stroke-linejoin="round"/>
    <path d="M 107.85122680664062 18.093984603881836 C 102.47344970703125 8.425505638122559 96.03706359863281 11.224782943725586 96.75121307373047 11.438642501831055" stroke-width="1.7356772422790527" fill="none" stroke="rgb(31, 131, 17)" stroke-opacity="0.99" stroke-linecap="round" stroke-linejoin="round"/>
    <path d="M 108.4162826538086 21.17399787902832 C 102.77864837646484 14.506187438964844 100.33356475830078 11.850019454956055 96.6086196899414 11.15015697479248" stroke-width="1.7356772422790527" fill="none" stroke="rgb(87, 227, 53)" stroke-opacity="1.0" stroke-linecap="round" stroke-linejoin="round"/>
    <path d="M 132.25564575195312 73.21299743652344 C 131.95826721191406 77.68407440185547 133.27432250976562 83.74922180175781 136.11053466796875 86.9303207397461" stroke-width="1.7356772422790527" fill="none" stroke="rgb(26, 131, 12)" stroke-opacity="1.0" stroke-linecap="round" stroke-linejoin="round"/>
    <path d="M 131.38784790039062 74.0807876586914 C 140.08901977539062 81.54556274414062 135.48379516601562 85.96541595458984 135.2427520751953 86.06255340576172" stroke-width="1.7356772422790527" fill="none" stroke="rgb(26, 131, 12)" stroke-opacity="1.0" stroke-linecap="round" stroke-linejoin="round"/>
    <path d="M 129.70635986328125 72.05118560791016 C 134.375732421875 79.41886138916016 135.09303283691406 83.1318359375 134.9025421142578 86.0671615600586" stroke-width="1.7356772422790527" fill="none" stroke="rgb(87, 227, 48)" stroke-opacity="1.0" stroke-linecap="round" stroke-linejoin="round"/>
    <path d="M 133.2082061767578 71.21261596679688 C 136.43130493164062 74.34239196777344 141.9015350341797 77.23893737792969 144.63211059570312 76.57794952392578" stroke-width="1.7356772422790527" fill="none" stroke="rgb(31, 131, 17)" stroke-opacity="0.99000007" stroke-linecap="round" stroke-linejoin="round"/>
    <path d="M 133.20819091796875 71.21270751953125 C 143.6581268310547 69.46308898925781 144.72146606445312 77.21249389648438 144.6320343017578 77.44576263427734" stroke-width="1.7356772422790527" fill="none" stroke="rgb(26, 131, 17)" stroke-opacity="1.0" stroke-linecap="round" stroke-linejoin="round"/>
    <path d="M 129.70635986328125 72.05126190185547 C 138.35113525390625 73.21766662597656 141.63645935058594 75.10330200195312 144.6192626953125 76.27669525146484" stroke-width="1.7356772422790527" fill="none" stroke="rgb(87, 232, 53)" stroke-opacity="1.0" stroke-linecap="round" stroke-linejoin="round"/>
    <path d="M 126.20608520507812 30.197187423706055 C 125.90865325927734 34.66846466064453 126.35694122314453 41.601097106933594 129.19313049316406 43.9144287109375" stroke-width="1.7356772422790527" fill="none" stroke="rgb(26, 131, 17)" stroke-opacity="1.0" stroke-linecap="round" stroke-linejoin="round"/>
    <path d="M 125.33827209472656 31.064842224121094 C 134.0394287109375 38.52958679199219 129.43418884277344 42.96907424926758 129.19314575195312 43.914432525634766" stroke-width="1.7356772422790527" fill="none" stroke="rgb(26, 131, 17)" stroke-opacity="1.0" stroke-linecap="round" stroke-linejoin="round"/>
    <path d="M 124.52455139160156 28.169511795043945 C 129.19393920898438 35.537109375 129.91127014160156 39.25008010864258 129.7207489013672 43.05322265625" stroke-width="1.7356772422790527" fill="none" stroke="rgb(87, 232, 53)" stroke-opacity="1.0" stroke-linecap="round" stroke-linejoin="round"/>
    <path d="M 127.15862274169922 28.198654174804688 C 130.38169860839844 31.328426361083984 135.8519744873047 35.092716217041016 138.5832061767578 34.43180465698242" stroke-width="1.7356772422790527" fill="none" stroke="rgb(31, 131, 17)" stroke-opacity="0.99" stroke-linecap="round" stroke-linejoin="round"/>
    <path d="M 126.29083251953125 28.198657989501953 C 137.60853576660156 27.3169002532959 138.67185974121094 34.198524475097656 139.4502410888672 34.43180465698242" stroke-width="1.7356772422790527" fill="none" stroke="rgb(26, 131, 17)" stroke-opacity="0.99000007" stroke-linecap="round" stroke-linejoin="round"/>
    <path d="M 123.656982421875 29.03716468811035 C 133.1692352294922 30.20321273803711 136.45462036132812 31.221519470214844 138.5696563720703 33.262664794921875" stroke-width="1.7356772422790527" fill="none" stroke="rgb(87, 232, 53)" stroke-opacity="1.0" stroke-linecap="round" stroke-linejoin="round"/>
    <path d="M 109.72049713134766 43.596763610839844 C 107.22639465332031 47.32917022705078 106.20263671875 53.2388801574707 107.50314331054688 57.52785873413086" stroke-width="1.7356772422790527" fill="none" stroke="rgb(26, 125, 17)" stroke-opacity="1.0" stroke-linecap="round" stroke-linejoin="round"/>
    <path d="M 109.72052764892578 44.46453857421875 C 114.39458465576172 55.27297592163086 107.75597381591797 57.56684875488281 107.50325012207031 57.5279655456543" stroke-width="1.7356772422790527" fill="none" stroke="rgb(26, 125, 17)" stroke-opacity="1.0" stroke-linecap="round" stroke-linejoin="round"/>
    <path d="M 109.27730560302734 41.0003776550293 C 109.63304138183594 49.72842025756836 108.40654754638672 54.15288162231445 107.6412582397461 55.73556900024414" stroke-width="1.7356772422790527" fill="none" stroke="rgb(87, 232, 53)" stroke-opacity="0.99000007" stroke-linecap="round" stroke-linejoin="round"/>
    <path d="M 112.41177368164062 42.34096145629883 C 113.64225769042969 46.65668869018555 116.05394744873047 52.79246139526367 119.50446319580078 53.997737884521484" stroke-width="1.7356772422790527" fill="none" stroke="rgb(31, 131, 17)" stroke-opacity="0.99000007" stroke-linecap="round" stroke-linejoin="round"/>
    <path d="M 111.54396057128906 43.208770751953125 C 122.25132751464844 47.29106903076172 120.57051849365234 53.84211730957031 119.50450134277344 53.12995529174805" stroke-width="1.7356772422790527" fill="none" stroke="rgb(31, 131, 12)" stroke-opacity="0.9900001" stroke-linecap="round" stroke-linejoin="round"/>
    <path d="M 110.14506530761719 41.86739730834961 C 117.0284652709961 46.367183685302734 118.9492416381836 49.61143112182617 119.75990295410156 52.43012237548828" stroke-width="1.7356772422790527" fill="none" stroke="rgb(87, 232, 53)" stroke-opacity="1.0" stroke-linecap="round" stroke-linejoin="round"/>
    <path d="M 124.35738372802734 58.06419372558594 C 123.64977264404297 54.498233795166016 124.38069152832031 48.35624694824219 126.98551940917969 44.90339279174805" stroke-width="1.7356772422790527" fill="none" stroke="rgb(31, 131, 12)" stroke-opacity="0.9900001" stroke-linecap="round" stroke-linejoin="round"/>
    <path d="M 123.48957061767578 58.06369400024414 C 131.45008850097656 49.82133483886719 127.23442840576172 44.98086166381836 126.98561096191406 44.90309143066406" stroke-width="1.7356772422790527" fill="none" stroke="rgb(26, 131, 12)" stroke-opacity="1.0" stroke-linecap="round" stroke-linejoin="round"/>
    <path d="M 122.87409973144531 61.1086311340332 C 126.830078125 53.332855224609375 127.19554138183594 49.58099365234375 126.72897338867188 45.79767990112305" stroke-width="1.7356772422790527" fill="none" stroke="rgb(87, 232, 48)" stroke-opacity="1.0" stroke-linecap="round" stroke-linejoin="round"/>
    <path d="M 124.62484741210938 59.96489334106445 C 127.5388412475586 56.543521881103516 132.71173095703125 53.1416015625 136.35687255859375 53.47208786010742" stroke-width="1.7356772422790527" fill="none" stroke="rgb(31, 131, 17)" stroke-opacity="0.99000007" stroke-linecap="round" stroke-linejoin="round"/>
    <path d="M 125.48902130126953 60.832706451416016 C 136.9308624267578 61.6102180480957 137.33511352539062 54.55366897583008 136.3566436767578 53.47216796875" stroke-width="1.7356772422790527" fill="none" stroke="rgb(31, 131, 17)" stroke-opacity="0.99" stroke-linecap="round" stroke-linejoin="round"/>
    <path d="M 122.8740463256836 60.24093246459961 C 130.4995574951172 58.2192497253418 133.59625244140625 56.08087921142578 136.37881469726562 54.71310043334961" stroke-width="1.7356772422790527" fill="none" stroke="rgb(92, 227, 48)" stroke-opacity="1.0" stroke-linecap="round" stroke-linejoin="round"/>
    <path d="M 90.05738067626953 52.52730178833008 C 86.42999267578125 56.03868865966797 81.4735336303711 58.157806396484375 77.1379623413086 56.991432189941406" stroke-width="1.7356772422790527" fill="none" stroke="rgb(31, 125, 17)" stroke-opacity="1.0" stroke-linecap="round" stroke-linejoin="round"/>
    <path d="M 90.05738067626953 53.39510726928711 C 79.97285461425781 49.14486312866211 77.94923400878906 56.73866271972656 78.00533294677734 56.99141311645508" stroke-width="1.7356772422790527" fill="none" stroke="rgb(26, 125, 17)" stroke-opacity="1.0" stroke-linecap="round" stroke-linejoin="round"/>
    <path d="M 93.5377426147461 53.733367919921875 C 83.94173431396484 52.85390090942383 80.43093872070312 54.22632598876953 78.05149841308594 55.956443786621094" stroke-width="1.7356772422790527" fill="none" stroke="rgb(87, 227, 53)" stroke-opacity="1.0" stroke-linecap="round" stroke-linejoin="round"/>
    <path d="M 92.10708618164062 51.022674560546875 C 87.74871063232422 49.85630416870117 82.36201477050781 46.90150451660156 81.0071029663086 43.49955749511719" stroke-width="1.7356772422790527" fill="none" stroke="rgb(31, 131, 12)" stroke-opacity="0.9900003" stroke-linecap="round" stroke-linejoin="round"/>
    <path d="M 91.23928833007812 51.52113342285156 C 86.72933959960938 40.98488235473633 80.29296875 43.784183502197266 81.00703430175781 43.99801254272461" stroke-width="1.7356772422790527" fill="none" stroke="rgb(31, 125, 17)" stroke-opacity="0.99000007" stroke-linecap="round" stroke-linejoin="round"/>
    <path d="M 92.98575592041016 52.12880325317383 C 86.48076629638672 46.328739166259766 83.16803741455078 44.54035568237305 80.3106460571289 43.840538024902344" stroke-width="1.7356772422790527" fill="none" stroke="rgb(92, 232, 53)" stroke-opacity="0.9900026" stroke-linecap="round" stroke-linejoin="round"/>
    <path d="M 67.18940734863281 119.49478149414062 C 100.75691986083984 133.2121124267578 129.81130981445312 126.78459167480469 133.0701141357422 125.87091064453125" stroke-width="1.7356772422790527" fill="none" stroke="rgb(216, 67, 27)" stroke-opacity="1.0" stroke-linecap="round" stroke-linejoin="round"/>
    <path d="M 119.7598876953125 52.430110931396484 C 127.73770904541016 51.912227630615234 132.7065887451172 48.30489730834961 140.7601318359375 40.152095794677734 C 138.05995178222656 46.323883056640625 136.25193786621094 52.60793685913086 128.04257202148438 61.6499137878418" stroke-width="1.909244418144226" fill="none" stroke="rgb(146, 252, 194)" stroke-opacity="0.6037872" stroke-linecap="round" stroke-linejoin="round"/>
    <path d="M 84.56449890136719 26.451101303100586 C 87.29866790771484 20.739933013916016 94.64762115478516 19.640762329101562 97.65313720703125 12.837662696838379 C 90.73523712158203 11.0079927444458 82.34819030761719 20.309185028076172 79.60118865966797 16.914628982543945 C 82.32077026367188 15.531710624694824 89.04266357421875 10.357830047607422 80.4345474243164 19.486284255981445" stroke-width="1.909244418144226" fill="none" stroke="rgb(164, 219, 174)" stroke-opacity="0.67165285" stroke-linecap="round" stroke-linejoin="round"/>
    <path d="M 105.803466796875 20.833772659301758 C 101.67639923095703 26.161279678344727 111.06077575683594 32.024295806884766 107.025390625 29.62893295288086 C 100.38133239746094 34.03535842895508 108.0909194946289 38.525482177734375 102.98988342285156 32.971168518066406" stroke-width="1.7356772422790527" fill="none" stroke="rgb(162, 128, 240)" stroke-opacity="0.102172" stroke-linecap="round" stroke-linejoin="round"/>
    <path d="M 79.20690155029297 63.12773132324219 C 88.71621704101562 71.60688018798828 88.18891143798828 66.94782257080078 78.2712173461914 74.69309997558594 C 80.85193634033203 71.05949401855469 87.76119995117188 71.47582244873047 79.11076354980469 78.85197448730469" stroke-width="1.7356772422790527" fill="none" stroke="rgb(148, 163, 203)" stroke-opacity="0.3298126" stroke-linecap="round" stroke-linejoin="round"/>
    <path d="M 134.9025421142578 86.06719970703125 C 134.02114868164062 80.6052474975586 132.42416381835938 72.98344421386719 128.30323791503906 74.60450744628906 C 125.33280181884766 65.02626037597656 132.25155639648438 65.09364318847656 129.45751953125 68.72917175292969 C 127.38433074951172 67.61470794677734 120.14350128173828 75.52337646484375 126.30027770996094 82.27935791015625" stroke-width="1.9092446565628052" fill="none" stroke="rgb(39, 61, 41)" stroke-opacity="0.5825661" stroke-linecap="round" stroke-linejoin="round"/>
    <path d="M 124.3572769165039 58.93076705932617 C 124.58210754394531 56.63589096069336 125.60112762451172 64.82295227050781 117.7537841796875 72.05843353271484 C 116.08954620361328 68.23107147216797 118.18315887451172 73.89593505859375 124.82647705078125 70.72350311279297" stroke-width="1.7356772422790527" fill="none" stroke="rgb(99, 85, 123)" stroke-opacity="0.43344882" stroke-linecap="round" stroke-linejoin="round"/>
    <path d="M 85.74639892578125 24.57904624938965 C 95.33085632324219 27.646528244018555 90.86078643798828 27.2888126373291 90.1427993774414 37.30592727661133 C 99.54196166992188 37.244850158691406 108.31228637695312 29.751264572143555 109.60710144042969 23.1807804107666 C 115.76628875732422 23.454988479614258 121.7636947631836 19.027729034423828 127.26748657226562 16.81141471862793" stroke-width="1.7356772422790527" fill="none" stroke="rgb(69, 48, 86)" stroke-opacity="0.73633546" stroke-linecap="round" stroke-linejoin="round"/>
    <path d="M 126.29081726074219 29.066450119018555 C 116.8840103149414 36.413963317871094 115.81724548339844 43.52640914916992 123.97702026367188 37.33613586425781" stroke-width="1.7356772422790527" fill="none" stroke="rgb(205, 140, 43)" stroke-opacity="0.15759245" stroke-linecap="round" stroke-linejoin="round"/>
    <path d="M 102.9898681640625 32.97117233276367 C 96.41905212402344 24.957897186279297 95.30316162109375 23.272502899169922 103.50212097167969 21.4412899017334 C 96.5386962890625 20.85625648498535 101.79707336425781 15.925590515136719 95.85523986816406 19.245622634887695" stroke-width="1.7356772422790527" fill="none" stroke="rgb(147, 65, 235)" stroke-opacity="0.15123832" stroke-linecap="round" stroke-linejoin="round"/>
    <path d="M 128.91029357910156 61.64995193481445 C 125.32630157470703 63.017555236816406 119.71697235107422 68.30829620361328 123.06448364257812 77.20732879638672 C 127.58380126953125 83.08538818359375 129.96572875976562 79.2299575805664 127.55953979492188 86.04039764404297 C 120.59574890136719 89.01183319091797 115.12892150878906 89.4853286743164 105.25775146484375 89.47608947753906" stroke-width="1.909244418144226" fill="none" stroke="rgb(68, 104, 187)" stroke-opacity="0.67173773" stroke-linecap="round" stroke-linejoin="round"/>
    <path d="M 103.857666015625 32.97135543823242 C 105.09523010253906 26.246761322021484 112.64431762695312 28.231473922729492 120.40914154052734 22.01638412475586" stroke-width="1.9092447757720947" fill="none" stroke="rgb(202, 101, 76)" stroke-opacity="0.91550744" stroke-linecap="round" stroke-linejoin="round"/>
    <path d="M 102.9898681640625 32.97117233276367 C 103.55271911621094 40.6243782043457 103.40097045898438 34.25830078125 110.58118438720703 26.970495223999023" stroke-width="1.7356772422790527" fill="none" stroke="rgb(44, 89, 247)" stroke-opacity="0.07336959" stroke-linecap="round" stroke-linejoin="round"/>
    <path d="M 123.97704315185547 37.33737564086914 C 128.9127655029297 36.11868667602539 134.68714904785156 34.858333587646484 126.58872985839844 32.83232116699219 C 129.2177734375 25.483678817749023 129.18197631835938 34.752235412597656 124.000732421875 26.31014060974121" stroke-width="1.7356772422790527" fill="none" stroke="rgb(218, 238, 12)" stroke-opacity="0.9350231" stroke-linecap="round" stroke-linejoin="round"/>
    <path d="M 123.97700500488281 37.33736801147461 C 120.29513549804688 29.970266342163086 126.49122619628906 28.8056640625 117.63237762451172 31.438432693481445 C 118.1069107055664 39.18965530395508 114.0974349975586 43.32684326171875 118.02171325683594 48.91170120239258 C 111.45291900634766 48.52334213256836 104.0229721069336 42.95802688598633 98.19889831542969 40.64775848388672" stroke-width="1.9092429876327515" fill="none" stroke="rgb(142, 60, 41)" stroke-opacity="0.54030806" stroke-linecap="round" stroke-linejoin="round"/>
    <path d="M 126.39996337890625 16.811410903930664 C 134.94398498535156 8.507816314697266 142.2007293701172 3.3994429111480713 134.2452850341797 -5.355655193328857 C 133.2069091796875 -2.6546905040740967 134.45677185058594 -10.486136436462402 125.5390625 -13.267390251159668 C 132.97323608398438 -15.885021209716797 135.52122497558594 -8.526057243347168 127.04994201660156 0.9022365808486938" stroke-width="1.9092447757720947" fill="none" stroke="rgb(185, 162, 79)" stroke-opacity="0.95898783" stroke-linecap="round" stroke-linejoin="round"/>
    <path d="M 102.98983764648438 32.97117233276367 C 103.64450073242188 29.584930419921875 94.39464569091797 20.014610290527344 103.87760925292969 29.04032325744629" stroke-width="1.9092439413070679" fill="none" stroke="rgb(240, 3, 88)" stroke-opacity="0.74007326" stroke-linecap="round" stroke-linejoin="round"/>
    <path d="M 25.773168563842773 174.51329040527344 C 19.365859985351562 178.59664916992188 18.683231353759766 188.5252685546875 15.834132194519043 196.36106872558594" stroke-width="1.7356772422790527" fill="none" stroke="rgb(223, 131, 212)" stroke-opacity="0.77043414" stroke-linecap="round" stroke-linejoin="round"/>
    <path d="M 71.27584075927734 72.04513549804688 C 73.50260162353516 81.0995101928711 72.57071685791016 79.1953125 74.24516296386719 76.48372650146484 C 73.15387725830078 78.5165023803711 68.85366821289062 75.85430145263672 70.76319122314453 68.41804504394531 C 75.03353881835938 68.32337188720703 85.08018493652344 66.62272644042969 82.66820526123047 61.43947982788086" stroke-width="1.7356772422790527" fill="none" stroke="rgb(79, 5, 99)" stroke-opacity="0.74404424" stroke-linecap="round" stroke-linejoin="round"/>
    <path d="M 129.24378967285156 174.25978088378906 C 130.78436279296875 169.57235717773438 121.45343017578125 171.27828979492188 115.96939849853516 170.78656005859375 C 108.56004333496094 168.6371307373047 101.61312103271484 170.5886688232422 105.23663330078125 166.8968048095703 C 109.419189453125 158.345947265625 109.50524139404297 163.7560272216797 105.72278594970703 166.31626892089844" stroke-width="1.9092371463775635" fill="none" stroke="rgb(102, 118, 118)" stroke-opacity="0.85108536" stroke-linecap="round" stroke-linejoin="round"/>
    <path d="M 177.59657287597656 15.101797103881836 C 171.41390991210938 9.074165344238281 180.72764587402344 10.189712524414062 173.6432342529297 17.667634963989258 C 176.37680053710938 17.730546951293945 182.87551879882812 23.43085289001465 176.95762634277344 25.609336853027344" stroke-width="1.7356772422790527" fill="none" stroke="rgb(214, 180, 74)" stroke-opacity="0.441584" stroke-linecap="round" stroke-linejoin="round"/>
    <path d="M 137.4121551513672 22.85150146484375 C 134.6401824951172 28.962047576904297 134.58714294433594 24.18728256225586 135.4141387939453 18.097278594970703" stroke-width="1.7356772422790527" fill="none" stroke="rgb(227, 169, 153)" stroke-opacity="0.9071532" stroke-linecap="round" stroke-linejoin="round"/>
    <path d="M 91.21942901611328 94.12838745117188 C 96.46710205078125 101.02410125732422 98.69273376464844 102.85374450683594 90.96411895751953 100.38208770751953 C 95.8271713256836 99.81603240966797 91.66072082519531 97.4436264038086 89.79534149169922 95.16262817382812 C 95.7357177734375 98.56993865966797 91.01190948486328 103.26580810546875 95.44703674316406 110.25726318359375" stroke-width="1.9092447757720947" fill="none" stroke="rgb(28, 119, 247)" stroke-opacity="0.9080963" stroke-linecap="round" stroke-linejoin="round"/>
    <path d="M 177.1529998779297 131.23548889160156 C 179.81710815429688 133.0303192138672 170.87744140625 127.95231628417969 161.2141876220703 120.02616119384766 C 161.81207275390625 130.31211853027344 158.91082763671875 125.80123138427734 168.4883270263672 120.00459289550781 C 173.79495239257812 121.9036636352539 169.71292114257812 124.91291046142578 165.09043884277344 130.946044921875" stroke-width="1.7356772422790527" fill="none" stroke="rgb(95, 116, 162)" stroke-opacity="0.6130091" stroke-linecap="round" stroke-linejoin="round"/>
    <path d="M 9.39381217956543 101.54591369628906 C 14.953951835632324 110.61444854736328 8.977066993713379 110.78691101074219 14.162109375 109.14059448242188 C 23.213356018066406 101.96930694580078 32.73079299926758 95.74211120605469 39.18540954589844 101.24163055419922" stroke-width="1.7356772422790527" fill="none" stroke="rgb(69, 170, 210)" stroke-opacity="0.28456697" stroke-linecap="round" stroke-linejoin="round"/>
    <path d="M 41.71977996826172 45.12216567993164 C 36.97734832763672 50.72049331665039 33.364986419677734 53.249813079833984 27.28609275817871 51.74909210205078 C 22.593412399291992 41.75971603393555 23.82588005065918 45.96333312988281 20.018943786621094 47.82549285888672" stroke-width="1.7356772422790527" fill="none" stroke="rgb(221, 69, 139)" stroke-opacity="0.9107672" stroke-linecap="round" stroke-linejoin="round"/>
    <path d="M 45.2751579284668 151.5568389892578 C 36.43557357788086 149.2906951904297 29.910873413085938 146.99978637695312 30.961923599243164 152.90162658691406" stroke-width="1.7356772422790527" fill="none" stroke="rgb(242, 75, 140)" stroke-opacity="0.33104566" stroke-linecap="round" stroke-linejoin="round"/>
    <path d="M 55.05387878417969 24.48212432861328 C 49.487422943115234 14.999688148498535 55.85441970825195 19.213563919067383 56.385318756103516 10.104995727539062 C 58.20906066894531 19.723800659179688 58.23530197143555 12.432891845703125 67.06116485595703 21.059696197509766" stroke-width="1.7356772422790527" fill="none" stroke="rgb(130, 156, 213)" stroke-opacity="0.55445653" stroke-linecap="round" stroke-linejoin="round"/>
    <path d="M 61.07942199707031 182.15321350097656 C 54.81832504272461 187.35992431640625 61.119285583496094 195.70042419433594 55.654388427734375 187.48655700683594 C 49.60420608520508 184.9754180908203 49.31401443481445 191.63780212402344 58.04871368408203 187.93861389160156 C 63.82992935180664 181.0662078857422 56.435855865478516 176.92816162109375 49.24753952026367 178.91598510742188" stroke-width="1.7356772422790527" fill="none" stroke="rgb(165, 14, 182)" stroke-opacity="0.9380595" stroke-linecap="round" stroke-linejoin="round"/>
    <path d="M 96.84638977050781 147.78799438476562 C 96.67316436767578 140.20321655273438 91.3789291381836 133.54080200195312 84.1226577758789 136.8962860107422 C 88.58393859863281 139.79872131347656 99.00930786132812 139.82972717285156 102.14299774169922 147.05540466308594 C 103.76764678955078 147.67112731933594 98.39783477783203 146.3056640625 100.45916748046875 147.44918823242188" stroke-width="1.7356772422790527" fill="none" stroke="rgb(33, 118, 46)" stroke-opacity="0.7768199" stroke-linecap="round" stroke-linejoin="round"/>
    <path d="M 70.17465209960938 102.28593444824219 C 64.7297134399414 100.4754409790039 72.30659484863281 110.06927490234375 79.49641418457031 115.00269317626953" stroke-width="1.909244179725647" fill="none" stroke="rgb(67, 42, 119)" stroke-opacity="0.5010099" stroke-linecap="round" stroke-linejoin="round"/>
    <path d="M 120.3729248046875 100.20701599121094 C 110.31732940673828 106.01860809326172 112.17516326904297 103.18527221679688 110.793701171875 103.7958755493164 C 117.33556365966797 101.52924346923828 112.21116638183594 99.5926513671875 105.29161071777344 100.29080963134766" stroke-width="1.909235954284668" fill="none" stroke="rgb(30, 166, 239)" stroke-opacity="0.9093085" stroke-linecap="round" stroke-linejoin="round"/>
    <path d="M 167.41014099121094 193.67237854003906 C 168.34658813476562 190.02743530273438 177.60523986816406 193.0209503173828 178.1204071044922 200.0675048828125" stroke-width="1.7356772422790527" fill="none" stroke="rgb(56, 132, 65)" stroke-opacity="0.45161876" stroke-linecap="round" stroke-linejoin="round"/>
  </g>
</svg>
