<?xml version="1.0" ?>
<svg xmlns="http://www.w3.org/2000/svg" version="1.1" width="956.0" height="956.0">
  <defs/>
  <g>
    <path d="M 51.27595138549805 29.664745330810547 C 52.1451416015625 27.920799255371094 50.79896926879883 23.115673065185547 52.00493240356445 25.9135684967041 C 43.4454231262207 25.338123321533203 42.595970153808594 25.315237045288086 48.469791412353516 21.015735626220703 C 47.540714263916016 17.374984741210938 57.100345611572266 19.669963836669922 61.118534088134766 21.232040405273438 C 56.55691909790039 19.68418312072754 56.87581253051758 20.856220245361328 60.55237579345703 21.79612159729004 C 61.74782180786133 21.63917350769043 63.60980987548828 22.67555809020996 64.97502136230469 22.135757446289062 C 66.96649169921875 23.893693923950195 65.66846466064453 27.904260635375977 64.99043273925781 34.00162124633789 C 62.77066421508789 37.930320739746094 64.2891845703125 43.79942321777344 64.2190933227539 48.49696350097656 C 65.51207733154297 52.69397735595703 65.89273071289062 65.09673309326172 66.87755584716797 62.93698501586914 C 70.45035552978516 63.25505447387695 66.8875961303711 64.10430145263672 65.23670196533203 60.95378112792969 C 56.76738357543945 60.52399444580078 49.58591079711914 62.96809005737305 45.51545715332031 65.07369232177734 C 42.03056716918945 63.23133850097656 39.32010269165039 68.30897521972656 39.8448600769043 69.56681060791016 C 39.88772964477539 64.1338119506836 38.6846809387207 60.35982894897461 36.379486083984375 45.375606536865234" stroke-width="1.7410463094711304" fill="none" stroke="rgb(79, 38, 46)" stroke-opacity="0.61711013" stroke-linecap="round" stroke-linejoin="round"/>
    <path d="M 55.836368560791016 21.526445388793945 C 55.55303192138672 21.22166633605957 65.12193298339844 25.79831886291504 65.01785278320312 24.652286529541016" stroke-width="1.3891602754592896" fill="none" stroke="rgb(168, 236, 242)" stroke-opacity="0.35705537" stroke-linecap="round" stroke-linejoin="round"/>
    <path d="M 54.82396697998047 24.431720733642578 C 42.68799591064453 22.0351505279541 39.74174880981445 33.310096740722656 46.05925369262695 31.254013061523438" stroke-width="5.219456195831299" fill="none" stroke="rgb(255, 37, 59)" stroke-opacity="0.68006563" stroke-linecap="round" stroke-linejoin="round"/>
    <path d="M 39.086891174316406 66.6236343383789 C 42.598636627197266 73.74591827392578 37.32969665527344 76.59200286865234 35.16033935546875 84.46269989013672 C 32.54103088378906 78.07257843017578 30.09707260131836 74.55179595947266 29.866878509521484 74.77912902832031 C 26.31631851196289 71.10093688964844 25.85103416442871 69.33553314208984 22.752389907836914 67.79061126708984" stroke-width="1.1476906538009644" fill="none" stroke="rgb(108, 67, 253)" stroke-opacity="0.30811143" stroke-linecap="round" stroke-linejoin="round"/>
    <path d="M 44.10612106323242 64.19170379638672 C 45.751670837402344 68.76136016845703 37.02367401123047 67.20968627929688 30.333406448364258 62.65547561645508" stroke-width="1.0892857313156128" fill="none" stroke="rgb(172, 176, 204)" stroke-opacity="0.6138441" stroke-linecap="round" stroke-linejoin="round"/>
    <path d="M 45.0991325378418 27.933053970336914 C 44.04778289794922 27.42055320739746 43.14564895629883 25.177881240844727 50.842464447021484 20.83751678466797 C 48.21094512939453 22.774456024169922 44.68799591064453 20.72941017150879 49.147071838378906 21.638381958007812 C 48.661441802978516 22.51151466369629 56.63904571533203 22.88863754272461 51.371768951416016 26.97652816772461" stroke-width="1.0892857313156128" fill="none" stroke="rgb(164, 180, 177)" stroke-opacity="0.0818383" stroke-linecap="round" stroke-linejoin="round"/>
    <path d="M 58.61978530883789 67.87078094482422 C 58.184173583984375 60.00604248046875 56.7864875793457 52.00290298461914 56.383296966552734 55.60395812988281 C 56.0246696472168 42.60398483276367 54.574562072753906 39.15550994873047 58.50566101074219 39.07023620605469 C 54.187625885009766 40.154727935791016 57.81584548950195 35.01436233520508 58.14213943481445 33.54286193847656" stroke-width="1.0892857313156128" fill="none" stroke="rgb(77, 104, 121)" stroke-opacity="0.7960579" stroke-linecap="round" stroke-linejoin="round"/>
    <path d="M 50.50401306152344 27.71275520324707 C 52.200191497802734 27.6749267578125 50.13044357299805 25.445344924926758 43.53150939941406 26.5900936126709 C 43.047698974609375 21.525070190429688 41.55179214477539 15.22094440460205 38.73937225341797 15.069294929504395 C 38.23407745361328 15.588996887207031 42.23688507080078 8.377132415771484 42.203147888183594 6.102405548095703" stroke-width="1.0892857313156128" fill="none" stroke="rgb(132, 148, 103)" stroke-opacity="0.00048243385" stroke-linecap="round" stroke-linejoin="round"/>
    <path d="M 61.19297790527344 37.51219940185547 C 67.17076873779297 38.32168197631836 74.8428726196289 37.58866882324219 69.48435974121094 32.28801345825195 C 75.63327026367188 31.59917640686035 76.03765869140625 30.736967086791992 69.88446044921875 32.42022705078125 C 69.6640853881836 41.475948333740234 68.84688568115234 43.372947692871094 72.51644897460938 41.584693908691406" stroke-width="1.0892857313156128" fill="none" stroke="rgb(235, 97, 191)" stroke-opacity="0.06920201" stroke-linecap="round" stroke-linejoin="round"/>
    <path d="M 34.89274215698242 74.19898223876953 C 30.654874801635742 79.6739273071289 27.353355407714844 77.60327911376953 30.424678802490234 83.97040557861328" stroke-width="3.4740042686462402" fill="none" stroke="rgb(174, 255, 118)" stroke-opacity="0.30473056" stroke-linecap="round" stroke-linejoin="round"/>
    <path d="M 53.621490478515625 27.02532196044922 C 48.54570007324219 26.869876861572266 43.423194885253906 32.57244873046875 52.589744567871094 27.93878936767578 C 51.23301315307617 33.63563919067383 39.44040298461914 36.64718246459961 44.90773010253906 36.45063781738281" stroke-width="3.9473352432250977" fill="none" stroke="rgb(139, 56, 80)" stroke-opacity="0.9623049" stroke-linecap="round" stroke-linejoin="round"/>
    <path d="M 44.90773010253906 31.0040283203125 C 41.762699127197266 33.317501068115234 50.02293395996094 28.034587860107422 48.7179069519043 33.214839935302734" stroke-width="1.2662674188613892" fill="none" stroke="rgb(138, 84, 99)" stroke-opacity="0.7872135" stroke-linecap="round" stroke-linejoin="round"/>
    <path d="M 58.89863204956055 28.393817901611328 C 56.686893463134766 37.493099212646484 48.83109664916992 37.13034439086914 46.703346252441406 36.11663818359375 C 54.919193267822266 37.19495391845703 52.8861083984375 45.47123718261719 53.42705154418945 62.061180114746094" stroke-width="4.771614074707031" fill="none" stroke="rgb(223, 67, 61)" stroke-opacity="0.9870443" stroke-linecap="round" stroke-linejoin="round"/>
    <path d="M 75.36465454101562 42.535221099853516 C 68.83850860595703 38.5690803527832 73.52494049072266 37.248600006103516 80.2191162109375 38.338218688964844 C 81.23231506347656 34.18282699584961 81.05005645751953 27.827035903930664 80.07842254638672 26.7387752532959 C 83.72417449951172 25.483213424682617 82.47284698486328 26.658288955688477 82.35907745361328 24.725839614868164" stroke-width="1.090379238128662" fill="none" stroke="rgb(168, 240, 183)" stroke-opacity="0.0029021958" stroke-linecap="round" stroke-linejoin="round"/>
    <path d="M 42.22743606567383 7.219749450683594 C 34.824588775634766 9.85376262664795 35.25486373901367 4.805404186248779 33.846656799316406 -1.4349294900894165" stroke-width="1.0892857313156128" fill="none" stroke="rgb(0, 238, 145)" stroke-opacity="0.23377109" stroke-linecap="round" stroke-linejoin="round"/>
    <path d="M 34.53110122680664 71.59866333007812 C 33.326412200927734 70.604736328125 35.680091857910156 77.27233123779297 38.38747787475586 83.03057861328125 C 43.216148376464844 77.24287414550781 46.01484298706055 79.31306457519531 42.513404846191406 79.28278350830078" stroke-width="2.2315032482147217" fill="none" stroke="rgb(88, 255, 0)" stroke-opacity="0.18382467" stroke-linecap="round" stroke-linejoin="round"/>
    <path d="M 22.17608070373535 64.93984985351562 C 27.209774017333984 65.42157745361328 29.880788803100586 70.29161834716797 23.403778076171875 77.43631744384766 C 33.86384963989258 77.00379943847656 37.861419677734375 76.15203857421875 43.39522171020508 72.74351501464844" stroke-width="1.8851587772369385" fill="none" stroke="rgb(104, 251, 183)" stroke-opacity="0.130504" stroke-linecap="round" stroke-linejoin="round"/>
    <path d="M 10.442461967468262 4.816478729248047 C 5.034787178039551 4.675662517547607 13.162371635437012 1.8000277280807495 13.442780494689941 0.1529182642698288 C 5.621504306793213 -11.721059799194336 -0.04871015623211861 -13.162200927734375 -0.417176216840744 -15.01263427734375" stroke-width="5.224610328674316" fill="none" stroke="rgb(255, 35, 0)" stroke-opacity="1.0" stroke-linecap="round" stroke-linejoin="round"/>
    <path d="M 39.727386474609375 99.76213836669922 C 39.10413360595703 96.73948669433594 38.709224700927734 96.67940521240234 34.57727813720703 88.96483612060547" stroke-width="1.9810357093811035" fill="none" stroke="rgb(189, 150, 255)" stroke-opacity="0.16012792" stroke-linecap="round" stroke-linejoin="round"/>
    <path d="M 65.80140686035156 103.34400939941406 C 63.816497802734375 120.05683135986328 62.61891174316406 124.99205017089844 67.66284942626953 118.59953308105469 C 76.31426239013672 112.933349609375 82.77477264404297 113.48469543457031 82.04916381835938 114.46712493896484 C 77.92927551269531 106.46617889404297 76.59359741210938 99.92833709716797 81.00054168701172 87.79122161865234" stroke-width="1.0892857313156128" fill="none" stroke="rgb(71, 36, 235)" stroke-opacity="0.21311426" stroke-linecap="round" stroke-linejoin="round"/>
    <path d="M 71.07686614990234 15.240489959716797 C 72.07630157470703 20.506427764892578 64.38318634033203 19.658241271972656 67.48384857177734 19.384750366210938 C 66.65921783447266 16.7362117767334 69.21983337402344 22.004928588867188 68.75666046142578 27.522361755371094 C 78.63145446777344 22.908905029296875 78.418701171875 23.253047943115234 76.04402923583984 24.579877853393555" stroke-width="1.0892857313156128" fill="none" stroke="rgb(255, 108, 131)" stroke-opacity="0.049389012" stroke-linecap="round" stroke-linejoin="round"/>
    <path d="M 34.614227294921875 17.49388313293457 C 34.90200424194336 17.358177185058594 30.907901763916016 11.604208946228027 33.01054382324219 13.190319061279297 C 36.29680633544922 11.149985313415527 29.85502052307129 14.138123512268066 28.753698348999023 15.844246864318848 C 29.654401779174805 11.25975513458252 25.840797424316406 14.149654388427734 38.8651123046875 11.818242073059082" stroke-width="1.0892857313156128" fill="none" stroke="rgb(25, 255, 184)" stroke-opacity="0.373229" stroke-linecap="round" stroke-linejoin="round"/>
    <path d="M 109.53903198242188 123.92427062988281 C 107.67679595947266 123.51734161376953 105.99808502197266 113.29358673095703 102.92073822021484 110.52510833740234 C 107.01934814453125 109.70836639404297 99.5854721069336 109.94007110595703 96.95421600341797 116.507568359375" stroke-width="1.8398211002349854" fill="none" stroke="rgb(114, 255, 27)" stroke-opacity="0.3581685" stroke-linecap="round" stroke-linejoin="round"/>
    <path d="M 35.341304779052734 8.164748191833496 C 39.72441482543945 4.750288963317871 35.6492919921875 12.2491455078125 41.14216995239258 16.3734188079834 C 43.940765380859375 17.833629608154297 44.79841232299805 23.7283935546875 42.94003677368164 24.852649688720703 C 37.794803619384766 26.655466079711914 36.892398834228516 30.782012939453125 37.771121978759766 29.621856689453125" stroke-width="1.0892857313156128" fill="none" stroke="rgb(60, 62, 79)" stroke-opacity="0.013554181" stroke-linecap="round" stroke-linejoin="round"/>
    <path d="M 38.217430114746094 85.29692077636719 C 40.82246017456055 77.22588348388672 44.1461181640625 75.52892303466797 47.49284362792969 78.77555084228516 C 43.84891891479492 83.61723327636719 38.59841537475586 86.66990661621094 39.00654602050781 99.60848236083984" stroke-width="1.590476155281067" fill="none" stroke="rgb(54, 255, 0)" stroke-opacity="0.13577011" stroke-linecap="round" stroke-linejoin="round"/>
    <path d="M 89.96331024169922 117.85134887695312 C 86.33562469482422 104.4265365600586 86.10150909423828 106.43702697753906 83.92420196533203 102.25435638427734 C 82.21405029296875 116.46422576904297 85.51197052001953 118.12110900878906 83.81959533691406 115.56177520751953" stroke-width="2.673543930053711" fill="none" stroke="rgb(145, 255, 59)" stroke-opacity="0.5516385" stroke-linecap="round" stroke-linejoin="round"/>
    <path d="M 113.0388412475586 33.61689758300781 C 115.39961242675781 44.238338470458984 115.1634292602539 47.98178482055664 116.8128890991211 29.71566390991211" stroke-width="1.4754074811935425" fill="none" stroke="rgb(13, 255, 145)" stroke-opacity="0.30669165" stroke-linecap="round" stroke-linejoin="round"/>
    <path d="M 122.78303527832031 108.04510498046875 C 120.43352508544922 94.16658020019531 121.1620101928711 91.6535415649414 119.34666442871094 84.94361877441406 C 130.54153442382812 98.52796936035156 130.25807189941406 103.49337005615234 132.1285858154297 97.79234313964844 C 135.82847595214844 94.60778045654297 137.45004272460938 96.42008972167969 141.08843994140625 97.71806335449219" stroke-width="3.230107069015503" fill="none" stroke="rgb(125, 84, 97)" stroke-opacity="0.53943497" stroke-linecap="round" stroke-linejoin="round"/>
    <path d="M 118.42643737792969 71.83687591552734 C 118.82038116455078 57.029335021972656 123.00829315185547 49.95316696166992 122.44590759277344 47.750274658203125" stroke-width="1.0892857313156128" fill="none" stroke="rgb(137, 136, 252)" stroke-opacity="0.5558279" stroke-linecap="round" stroke-linejoin="round"/>
    <path d="M 44.799808502197266 114.03401947021484 C 39.92746353149414 111.97020721435547 41.45219421386719 110.26746368408203 50.04175567626953 114.60877990722656" stroke-width="2.1553053855895996" fill="none" stroke="rgb(236, 139, 87)" stroke-opacity="0.22517072" stroke-linecap="round" stroke-linejoin="round"/>
    <path d="M 4.55879545211792 29.134538650512695 C 2.7809648513793945 21.404417037963867 -0.31585416197776794 26.30259132385254 -4.790319919586182 26.312734603881836 C -2.260143995285034 27.628578186035156 -7.09604024887085 29.07148551940918 -10.531505584716797 35.111141204833984 C -4.9871625900268555 32.70880126953125 -8.924176216125488 33.24977111816406 -7.643378734588623 30.244653701782227" stroke-width="1.0892857313156128" fill="none" stroke="rgb(190, 207, 133)" stroke-opacity="0.0" stroke-linecap="round" stroke-linejoin="round"/>
    <path d="M 46.14641189575195 34.40923309326172 C 46.31890106201172 32.79306411743164 43.58707046508789 36.49872970581055 28.672584533691406 34.74208450317383 C 36.304832458496094 49.29658889770508 32.095149993896484 50.6790885925293 32.28144073486328 38.21770477294922 C 32.37693405151367 44.49786376953125 37.09241485595703 43.018985748291016 53.37787628173828 44.49113845825195" stroke-width="2.2175486087799072" fill="none" stroke="rgb(99, 108, 119)" stroke-opacity="0.8744865" stroke-linecap="round" stroke-linejoin="round"/>
    <path d="M 122.29063415527344 75.23577880859375 C 117.2569808959961 89.48115539550781 121.17300415039062 96.11884307861328 125.51055908203125 95.54718780517578 C 128.41305541992188 97.06536865234375 128.33837890625 102.07981872558594 129.39085388183594 105.33951568603516 C 125.79331970214844 100.94862365722656 130.51492309570312 102.18675994873047 130.26792907714844 97.0988998413086" stroke-width="3.221147060394287" fill="none" stroke="rgb(101, 255, 44)" stroke-opacity="0.68860734" stroke-linecap="round" stroke-linejoin="round"/>
  </g>
</svg>
