<?xml version="1.0" ?>
<svg xmlns="http://www.w3.org/2000/svg" version="1.1" width="1104.0" height="1104.0">
  <defs/>
  <g>
    <path d="M 44.07032012939453 40.0552864074707 C 44.715187072753906 40.055274963378906 44.53340530395508 41.41924285888672 44.851829528808594 42.15489196777344 C 45.74366760253906 42.41228103637695 45.74735641479492 43.6627082824707 46.06696701049805 44.47532272338867 C 46.848228454589844 44.528690338134766 46.870182037353516 45.19242858886719 47.053192138671875 45.80961608886719 C 47.55828857421875 47.50780487060547 48.28053283691406 49.15113067626953 48.055545806884766 51.437801361083984 C 48.28246307373047 52.67860794067383 48.322723388671875 53.946189880371094 48.49718475341797 55.19548034667969 C 49.3846321105957 57.10554122924805 50.009273529052734 59.461360931396484 49.712303161621094 61.944217681884766 C 49.92702102661133 64.63337707519531 50.45771789550781 68.84354400634766 50.03611755371094 70.77610778808594" stroke-width="1.0892857313156128" fill="none" stroke="rgb(26, 26, 21)" stroke-opacity="0.99000007" stroke-linecap="round" stroke-linejoin="round"/>
    <path d="M 44.0703125 39.51066589355469 C 42.1566276550293 35.58346176147461 45.48844528198242 32.36428451538086 41.18248748779297 35.333534240722656 C 43.58103561401367 38.631103515625 40.973453521728516 36.10811996459961 40.732017517089844 36.227989196777344 C 39.005924224853516 37.300811767578125 37.74571228027344 33.794429779052734 40.805763244628906 36.93775177001953" stroke-width="1.0892857313156128" fill="none" stroke="rgb(14, 138, 10)" stroke-opacity="0.5090163" stroke-linecap="round" stroke-linejoin="round"/>
    <path d="M 48.055545806884766 51.43783950805664 C 44.366905212402344 50.70859909057617 43.82061004638672 47.97560119628906 42.402793884277344 48.80854034423828 C 42.70426940917969 45.5753173828125 48.35719299316406 44.74348831176758 50.43532943725586 38.677833557128906" stroke-width="1.0892857313156128" fill="none" stroke="rgb(125, 108, 186)" stroke-opacity="0.32287908" stroke-linecap="round" stroke-linejoin="round"/>
    <path d="M 48.0555419921875 50.89358901977539 C 49.598731994628906 46.65000915527344 46.088314056396484 44.686153411865234 52.36213302612305 45.81647872924805 C 55.804832458496094 49.933963775634766 57.655487060546875 50.49049758911133 62.363121032714844 48.027408599853516 C 66.38219451904297 52.74857711791992 66.79666137695312 57.861480712890625 61.186859130859375 60.24482345581055" stroke-width="1.1982141733169556" fill="none" stroke="rgb(176, 74, 46)" stroke-opacity="0.88898516" stroke-linecap="round" stroke-linejoin="round"/>
    <path d="M 50.25693893432617 61.944026947021484 C 54.68088912963867 67.71365356445312 52.23149490356445 71.48898315429688 57.72248458862305 73.00789642333984 C 58.59432601928711 76.34395599365234 54.46100616455078 73.07968139648438 54.02787780761719 73.00305938720703 C 57.22809600830078 75.34352111816406 56.142433166503906 77.50480651855469 54.97993469238281 78.96517944335938" stroke-width="1.0892857313156128" fill="none" stroke="rgb(38, 102, 92)" stroke-opacity="0.6260339" stroke-linecap="round" stroke-linejoin="round"/>
    <path d="M 49.712303161621094 62.48866271972656 C 47.172584533691406 61.101375579833984 47.14242935180664 56.03565216064453 41.099708557128906 58.64996337890625" stroke-width="1.0892857313156128" fill="none" stroke="rgb(237, 171, 174)" stroke-opacity="0.95257694" stroke-linecap="round" stroke-linejoin="round"/>
    <path d="M 49.71232223510742 61.94453430175781 C 55.67037582397461 59.51564025878906 51.630271911621094 65.19367218017578 45.96887969970703 66.784423828125 C 50.440155029296875 64.9817123413086 50.88033676147461 65.84585571289062 48.9685173034668 63.714447021484375 C 53.88072204589844 63.51711654663086 51.310768127441406 67.60015106201172 50.596370697021484 63.25727462768555" stroke-width="1.1982135772705078" fill="none" stroke="rgb(127, 36, 50)" stroke-opacity="0.25419325" stroke-linecap="round" stroke-linejoin="round"/>
    <path d="M 44.85182571411133 42.154911041259766 C 45.112247467041016 36.10963439941406 49.47491455078125 38.980552673339844 47.2913703918457 38.48949432373047" stroke-width="1.0892857313156128" fill="none" stroke="rgb(49, 186, 173)" stroke-opacity="0.6896805" stroke-linecap="round" stroke-linejoin="round"/>
    <path d="M 46.06721878051758 44.47523880004883 C 51.97557830810547 49.96435546875 56.3878059387207 46.423763275146484 62.28879165649414 42.351749420166016 C 65.65161895751953 45.00190734863281 62.451759338378906 49.932003021240234 59.3233528137207 52.7259635925293 C 59.94040298461914 58.617923736572266 58.42477035522461 55.53190231323242 58.23182678222656 51.50335693359375" stroke-width="1.0892857313156128" fill="none" stroke="rgb(112, 124, 150)" stroke-opacity="0.0" stroke-linecap="round" stroke-linejoin="round"/>
    <path d="M 58.23183059692383 51.50335693359375 C 58.905826568603516 54.98807144165039 54.1329345703125 52.968971252441406 58.95448303222656 52.484519958496094 C 61.02724838256836 51.100067138671875 65.3183822631836 50.00749588012695 70.59161376953125 45.86187744140625" stroke-width="1.0892857313156128" fill="none" stroke="rgb(18, 128, 3)" stroke-opacity="0.40292832" stroke-linecap="round" stroke-linejoin="round"/>
    <path d="M 47.2913703918457 38.489498138427734 C 51.21406173706055 40.205814361572266 50.67803955078125 40.91502380371094 46.52033233642578 38.762725830078125" stroke-width="1.1982136964797974" fill="none" stroke="rgb(10, 210, 166)" stroke-opacity="0.8915653" stroke-linecap="round" stroke-linejoin="round"/>
    <path d="M 50.59637451171875 63.25730514526367 C 52.75385284423828 60.36062240600586 49.540584564208984 64.0494384765625 47.28718948364258 62.84440231323242 C 45.582393646240234 65.28136444091797 40.32426834106445 67.43327331542969 35.181156158447266 63.760379791259766" stroke-width="1.0892857313156128" fill="none" stroke="rgb(174, 142, 71)" stroke-opacity="0.057804015" stroke-linecap="round" stroke-linejoin="round"/>
    <path d="M 54.97993469238281 78.96514892578125 C 55.44662857055664 78.9955825805664 56.18234634399414 84.8522720336914 57.95161819458008 84.38484191894531" stroke-width="1.0892857313156128" fill="none" stroke="rgb(233, 243, 111)" stroke-opacity="0.14868876" stroke-linecap="round" stroke-linejoin="round"/>
    <path d="M 50.450809478759766 38.67779541015625 C 52.0298957824707 39.44272994995117 57.510013580322266 44.95543670654297 56.7700309753418 43.276615142822266 C 61.312034606933594 40.6964111328125 55.68922424316406 38.89824295043945 57.364952087402344 36.749271392822266 C 53.19496536254883 37.81988525390625 49.833072662353516 37.64535140991211 53.37782669067383 39.51939010620117" stroke-width="1.1982136964797974" fill="none" stroke="rgb(231, 165, 172)" stroke-opacity="0.38586047" stroke-linecap="round" stroke-linejoin="round"/>
    <path d="M 50.59638595581055 63.25728988647461 C 48.68229675292969 57.69871520996094 54.14698028564453 53.84709548950195 58.211021423339844 58.96543502807617 C 57.06829071044922 53.879486083984375 58.71586608886719 58.10286331176758 55.119258880615234 56.435935974121094 C 50.038021087646484 52.67684555053711 48.88570022583008 50.5732536315918 45.946197509765625 46.166587829589844" stroke-width="1.0892857313156128" fill="none" stroke="rgb(62, 152, 133)" stroke-opacity="0.38710982" stroke-linecap="round" stroke-linejoin="round"/>
    <path d="M 50.596370697021484 63.257293701171875 C 52.654258728027344 64.49573516845703 48.287357330322266 66.01252746582031 52.788291931152344 60.48739242553711" stroke-width="1.0892857313156128" fill="none" stroke="rgb(119, 168, 3)" stroke-opacity="0.25224897" stroke-linecap="round" stroke-linejoin="round"/>
    <path d="M 61.186866760253906 60.24483108520508 C 60.119224548339844 65.32975006103516 62.39372253417969 62.899654388427734 61.04827117919922 57.16175079345703 C 59.16643142700195 53.947418212890625 61.16410827636719 58.432533264160156 58.19837951660156 58.623817443847656" stroke-width="1.0892857313156128" fill="none" stroke="rgb(0, 136, 247)" stroke-opacity="0.07180531" stroke-linecap="round" stroke-linejoin="round"/>
    <path d="M 114.10432434082031 70.80328369140625 C 110.33006286621094 75.95442962646484 107.40937805175781 81.39534759521484 112.52400207519531 85.8062515258789" stroke-width="1.0892857313156128" fill="none" stroke="rgb(67, 247, 189)" stroke-opacity="0.61372197" stroke-linecap="round" stroke-linejoin="round"/>
    <path d="M 62.90520095825195 93.31779479980469 C 61.46870803833008 92.0342788696289 64.31745910644531 87.81863403320312 61.19797134399414 89.23210906982422 C 55.96147155761719 90.85101318359375 49.92540740966797 92.72162628173828 48.94668197631836 90.02130126953125" stroke-width="1.1982141733169556" fill="none" stroke="rgb(65, 52, 31)" stroke-opacity="0.7983917" stroke-linecap="round" stroke-linejoin="round"/>
    <path d="M 117.80400848388672 107.84075927734375 C 112.6548080444336 106.43961334228516 114.33863067626953 112.08760070800781 116.59488677978516 113.40476989746094 C 121.1209945678711 114.66789245605469 126.42723083496094 112.44013214111328 132.260009765625 113.28992462158203" stroke-width="1.1982141733169556" fill="none" stroke="rgb(239, 163, 238)" stroke-opacity="0.96137387" stroke-linecap="round" stroke-linejoin="round"/>
    <path d="M 18.51463508605957 58.77106475830078 C 13.367558479309082 54.3350715637207 16.524621963500977 57.4789924621582 12.46190357208252 54.5909538269043 C 9.328347206115723 61.070472717285156 9.928180694580078 62.155662536621094 6.651111602783203 67.7714614868164" stroke-width="1.0892857313156128" fill="none" stroke="rgb(112, 129, 24)" stroke-opacity="0.9417869" stroke-linecap="round" stroke-linejoin="round"/>
    <path d="M 8.11617660522461 26.35442543029785 C 5.3934149742126465 29.1181697845459 3.645427703857422 30.074613571166992 -0.0399235263466835 32.34062957763672 C -5.574423313140869 26.045501708984375 -2.295593738555908 31.614986419677734 -6.880923271179199 35.30253219604492" stroke-width="1.0892857313156128" fill="none" stroke="rgb(79, 53, 79)" stroke-opacity="0.46733555" stroke-linecap="round" stroke-linejoin="round"/>
    <path d="M 65.35692596435547 35.292640686035156 C 66.45740509033203 36.680973052978516 69.0324935913086 36.099403381347656 72.10139465332031 38.62980651855469 C 75.67996978759766 39.28093719482422 75.83043670654297 42.35239028930664 72.73351287841797 36.73936462402344 C 73.64585876464844 41.580291748046875 71.2747802734375 36.057125091552734 76.2504653930664 34.073036193847656" stroke-width="1.0892857313156128" fill="none" stroke="rgb(64, 133, 192)" stroke-opacity="0.52423" stroke-linecap="round" stroke-linejoin="round"/>
    <path d="M 97.6873550415039 113.76119995117188 C 95.87496185302734 110.35901641845703 91.36997985839844 114.5105209350586 95.57533264160156 119.50133514404297 C 99.37061309814453 118.49496459960938 101.38235473632812 114.51762390136719 98.38223266601562 119.3511734008789" stroke-width="1.0892857313156128" fill="none" stroke="rgb(32, 119, 152)" stroke-opacity="0.4845993" stroke-linecap="round" stroke-linejoin="round"/>
    <path d="M 59.39714050292969 117.7690658569336 C 58.54637908935547 120.14891052246094 64.4025650024414 117.24151611328125 60.255821228027344 119.31402587890625 C 65.64517974853516 120.11323547363281 60.154083251953125 123.6876449584961 60.32490539550781 117.59920501708984" stroke-width="1.198214054107666" fill="none" stroke="rgb(130, 146, 30)" stroke-opacity="0.15778661" stroke-linecap="round" stroke-linejoin="round"/>
    <path d="M 121.91169738769531 72.4871597290039 C 119.27996826171875 68.87423706054688 119.81824493408203 67.23957824707031 122.03474426269531 63.15824890136719 C 125.7222900390625 61.48890686035156 123.692626953125 67.40621948242188 121.86577606201172 62.215980529785156 C 118.68095397949219 61.1181640625 116.37804412841797 66.24964904785156 118.76220703125 62.986385345458984" stroke-width="1.0892857313156128" fill="none" stroke="rgb(102, 223, 229)" stroke-opacity="0.35020834" stroke-linecap="round" stroke-linejoin="round"/>
    <path d="M 59.27931213378906 70.62237548828125 C 54.498558044433594 67.79833221435547 59.19841384887695 66.67168426513672 54.70903015136719 72.29673767089844" stroke-width="1.1982132196426392" fill="none" stroke="rgb(104, 64, 192)" stroke-opacity="0.6383055" stroke-linecap="round" stroke-linejoin="round"/>
    <path d="M 11.199206352233887 34.62460708618164 C 14.904998779296875 35.5318603515625 11.545433044433594 34.25344467163086 16.644346237182617 29.776376724243164" stroke-width="1.0892857313156128" fill="none" stroke="rgb(42, 244, 32)" stroke-opacity="0.32538572" stroke-linecap="round" stroke-linejoin="round"/>
    <path d="M 119.81832122802734 102.74292755126953 C 123.93545532226562 105.61243438720703 121.83077239990234 101.6792221069336 117.1402816772461 98.49864196777344" stroke-width="1.0892857313156128" fill="none" stroke="rgb(139, 37, 192)" stroke-opacity="0.94116247" stroke-linecap="round" stroke-linejoin="round"/>
    <path d="M 43.800193786621094 35.605594635009766 C 42.67844009399414 30.831684112548828 48.68587875366211 27.368412017822266 52.6419792175293 23.542837142944336" stroke-width="1.0892857313156128" fill="none" stroke="rgb(3, 227, 95)" stroke-opacity="0.8787091" stroke-linecap="round" stroke-linejoin="round"/>
    <path d="M 25.035602569580078 86.90479278564453 C 22.286243438720703 92.5219955444336 27.330730438232422 95.82879638671875 27.096004486083984 89.28225708007812 C 21.124792098999023 89.66007232666016 18.837617874145508 93.8836669921875 19.189985275268555 89.1379165649414" stroke-width="1.0892857313156128" fill="none" stroke="rgb(249, 116, 99)" stroke-opacity="0.7626595" stroke-linecap="round" stroke-linejoin="round"/>
    <path d="M 70.522216796875 104.02361297607422 C 70.98553466796875 99.64868927001953 72.39374542236328 99.81449890136719 77.32147216796875 103.2928695678711 C 75.5705337524414 100.48699188232422 74.25396728515625 100.54887390136719 75.5946273803711 94.08804321289062" stroke-width="1.1982141733169556" fill="none" stroke="rgb(41, 242, 179)" stroke-opacity="0.5780145" stroke-linecap="round" stroke-linejoin="round"/>
    <path d="M 12.480545997619629 23.183019638061523 C 10.621356010437012 29.282875061035156 5.376992702484131 34.243595123291016 6.560419082641602 37.950592041015625 C 3.6466355323791504 42.51748275756836 1.5067259073257446 47.23876953125 1.5692707300186157 46.83589553833008" stroke-width="1.0892857313156128" fill="none" stroke="rgb(36, 248, 105)" stroke-opacity="0.20389135" stroke-linecap="round" stroke-linejoin="round"/>
  </g>
</svg>
