<?xml version="1.0" ?>
<svg xmlns="http://www.w3.org/2000/svg" version="1.1" width="956.0" height="956.0">
  <defs/>
  <g>
    <path d="M 305.9927978515625 572.3721923828125 C 521.6530151367188 590.5634765625 755.13330078125 616.1666870117188 669.0768432617188 566.4730834960938 C 696.641357421875 490.0191955566406 527.0913696289062 465.8936462402344 337.8775329589844 525.4049072265625" stroke-width="8.737227439880371" fill="none" stroke="rgb(143, 121, 91)" stroke-opacity="0.23666415" stroke-linecap="round" stroke-linejoin="round"/>
    <path d="M 507.8511657714844 510.0876159667969 C 494.574462890625 547.1577758789062 496.2483215332031 380.6966857910156 516.83056640625 202.93690490722656" stroke-width="20.666584014892578" fill="none" stroke="rgb(92, 69, 49)" stroke-opacity="0.99218786" stroke-linecap="round" stroke-linejoin="round"/>
    <path d="M 441.483154296875 339.16290283203125 C 548.0883178710938 362.8487243652344 633.9841918945312 335.9797058105469 585.705078125 339.0419616699219" stroke-width="25.619287490844727" fill="none" stroke="rgb(40, 29, 12)" stroke-opacity="1.0" stroke-linecap="round" stroke-linejoin="round"/>
    <path d="M 414.84075927734375 450.2980651855469 C 399.5205383300781 463.1016540527344 449.5513000488281 316.8938293457031 409.7604675292969 304.0108337402344" stroke-width="21.668376922607422" fill="none" stroke="rgb(170, 21, 0)" stroke-opacity="1.0" stroke-linecap="round" stroke-linejoin="round"/>
    <path d="M 520.0586547851562 256.93878173828125 C 520.1090087890625 163.6653594970703 550.9683227539062 136.6942138671875 593.4625244140625 136.8773956298828" stroke-width="21.595762252807617" fill="none" stroke="rgb(255, 104, 98)" stroke-opacity="0.6635031" stroke-linecap="round" stroke-linejoin="round"/>
    <path d="M 540.5571899414062 136.0575714111328 C 434.48291015625 145.78929138183594 429.5037841796875 189.927978515625 443.9770812988281 151.98544311523438" stroke-width="31.711965560913086" fill="none" stroke="rgb(255, 38, 58)" stroke-opacity="0.9156163" stroke-linecap="round" stroke-linejoin="round"/>
    <path d="M 494.81646728515625 172.23794555664062 C 463.9309997558594 163.84938049316406 445.76922607421875 115.70501708984375 447.5039978027344 147.6593780517578 C 420.2478332519531 145.60714721679688 387.8702697753906 132.34361267089844 443.62701416015625 160.76614379882812" stroke-width="16.432891845703125" fill="none" stroke="rgb(255, 114, 106)" stroke-opacity="0.7055211" stroke-linecap="round" stroke-linejoin="round"/>
    <path d="M 458.1195068359375 154.7179718017578 C 414.319091796875 190.59852600097656 395.5915222167969 150.53334045410156 390.2482604980469 149.60601806640625" stroke-width="18.17766571044922" fill="none" stroke="rgb(253, 51, 66)" stroke-opacity="0.8735525" stroke-linecap="round" stroke-linejoin="round"/>
    <path d="M 587.8955078125 298.3392028808594 C 588.6143798828125 300.0851745605469 583.0597534179688 277.8401184082031 580.1080932617188 286.1077575683594 C 588.0989990234375 278.6864318847656 601.2935180664062 274.3757019042969 594.0640869140625 301.8309326171875" stroke-width="9.96064281463623" fill="none" stroke="rgb(180, 209, 87)" stroke-opacity="0.629379" stroke-linecap="round" stroke-linejoin="round"/>
    <path d="M 556.1665649414062 338.5654602050781 C 662.3409423828125 333.9184265136719 676.4149169921875 348.7091979980469 646.2879028320312 347.12078857421875" stroke-width="23.637407302856445" fill="none" stroke="rgb(132, 34, 0)" stroke-opacity="1.0" stroke-linecap="round" stroke-linejoin="round"/>
    <path d="M 631.895263671875 143.68902587890625 C 607.4212646484375 113.54974365234375 604.7713012695312 126.84527587890625 607.9833374023438 145.23519897460938 C 586.1715087890625 211.9027099609375 586.9098510742188 177.8345184326172 616.5250244140625 136.7613525390625" stroke-width="13.77440071105957" fill="none" stroke="rgb(217, 117, 116)" stroke-opacity="0.65575314" stroke-linecap="round" stroke-linejoin="round"/>
    <path d="M 479.2182312011719 282.7597351074219 C 450.9583740234375 214.66929626464844 503.7429504394531 203.16749572753906 514.946533203125 216.49871826171875 C 497.0894470214844 194.81472778320312 559.7029418945312 198.4078826904297 561.8138427734375 190.71665954589844" stroke-width="61.85968780517578" fill="none" stroke="rgb(255, 0, 48)" stroke-opacity="0.9729817" stroke-linecap="round" stroke-linejoin="round"/>
    <path d="M 594.254150390625 165.16470336914062 C 594.3881225585938 5.952256202697754 568.5393676757812 24.52596664428711 515.8956909179688 70.54125213623047" stroke-width="11.526753425598145" fill="none" stroke="rgb(189, 18, 31)" stroke-opacity="0.99151945" stroke-linecap="round" stroke-linejoin="round"/>
    <path d="M 538.4613647460938 305.9823913574219 C 458.6100158691406 348.3457946777344 435.7926330566406 316.05572509765625 434.1615295410156 269.8167724609375 C 438.3572692871094 315.9296569824219 410.33367919921875 316.5472717285156 439.4990539550781 288.2766418457031" stroke-width="37.05256271362305" fill="none" stroke="rgb(255, 57, 66)" stroke-opacity="1.0" stroke-linecap="round" stroke-linejoin="round"/>
    <path d="M 393.91326904296875 295.80548095703125 C 411.5483093261719 349.0756530761719 389.3565979003906 328.43048095703125 385.818603515625 290.8826599121094 C 405.84912109375 280.21588134765625 357.76898193359375 309.8534240722656 330.02484130859375 317.0595397949219" stroke-width="25.312824249267578" fill="none" stroke="rgb(164, 81, 70)" stroke-opacity="0.85652596" stroke-linecap="round" stroke-linejoin="round"/>
    <path d="M 404.3689880371094 362.0854187011719 C 353.93975830078125 398.2737121582031 327.8245849609375 393.7071838378906 375.2785949707031 414.620849609375" stroke-width="9.491414070129395" fill="none" stroke="rgb(163, 176, 120)" stroke-opacity="0.6284178" stroke-linecap="round" stroke-linejoin="round"/>
    <path d="M 300.7475891113281 339.45111083984375 C 288.40625 413.35064697265625 301.02703857421875 435.5743103027344 278.0277099609375 394.7164611816406" stroke-width="22.448205947875977" fill="none" stroke="rgb(86, 197, 93)" stroke-opacity="0.6442477" stroke-linecap="round" stroke-linejoin="round"/>
    <path d="M 334.9732360839844 364.2034606933594 C 284.288330078125 387.5814514160156 274.1504821777344 381.2720031738281 236.68399047851562 433.5662841796875" stroke-width="17.321731567382812" fill="none" stroke="rgb(69, 254, 101)" stroke-opacity="0.4294717" stroke-linecap="round" stroke-linejoin="round"/>
    <path d="M 332.47406005859375 382.9303283691406 C 302.6513366699219 397.185546875 261.957275390625 387.71881103515625 265.4779357910156 433.661865234375" stroke-width="29.45615005493164" fill="none" stroke="rgb(68, 168, 78)" stroke-opacity="0.7874862" stroke-linecap="round" stroke-linejoin="round"/>
    <path d="M 308.3340759277344 313.6272277832031 C 292.1414489746094 324.4564514160156 294.75384521484375 347.5165710449219 258.8804626464844 370.17919921875" stroke-width="8.761846542358398" fill="none" stroke="rgb(95, 247, 36)" stroke-opacity="0.51387215" stroke-linecap="round" stroke-linejoin="round"/>
    <path d="M 356.6510009765625 389.4831237792969 C 249.18902587890625 337.1207275390625 249.97903442382812 335.2750244140625 241.13540649414062 369.5963439941406" stroke-width="33.74455261230469" fill="none" stroke="rgb(77, 248, 125)" stroke-opacity="0.70819694" stroke-linecap="round" stroke-linejoin="round"/>
    <path d="M 328.802978515625 353.3251037597656 C 294.45391845703125 346.5721740722656 273.18536376953125 330.0697021484375 235.4561004638672 367.36541748046875" stroke-width="8.535714149475098" fill="none" stroke="rgb(118, 252, 149)" stroke-opacity="0.91304797" stroke-linecap="round" stroke-linejoin="round"/>
    <path d="M 349.0858459472656 171.8608856201172 C 352.0838928222656 187.79598999023438 283.2548828125 145.16236877441406 303.335693359375 246.02548217773438" stroke-width="18.60544776916504" fill="none" stroke="rgb(24, 142, 28)" stroke-opacity="0.90675193" stroke-linecap="round" stroke-linejoin="round"/>
    <path d="M 356.5072021484375 225.13601684570312 C 330.36065673828125 150.32803344726562 304.4875183105469 194.50265502929688 323.39581298828125 168.80084228515625" stroke-width="24.83218765258789" fill="none" stroke="rgb(109, 143, 36)" stroke-opacity="0.94230026" stroke-linecap="round" stroke-linejoin="round"/>
    <path d="M 410.24884033203125 168.42945861816406 C 372.3088684082031 146.372802734375 347.1611633300781 167.1717529296875 318.8988952636719 158.1787872314453" stroke-width="8.596236228942871" fill="none" stroke="rgb(75, 163, 58)" stroke-opacity="0.69870615" stroke-linecap="round" stroke-linejoin="round"/>
    <path d="M 400.6050109863281 206.5880889892578 C 377.3587951660156 209.8692626953125 333.1551208496094 202.86695861816406 375.6084289550781 286.30126953125" stroke-width="23.011945724487305" fill="none" stroke="rgb(58, 108, 29)" stroke-opacity="0.84051394" stroke-linecap="round" stroke-linejoin="round"/>
    <path d="M 361.459716796875 197.19540405273438 C 326.7303161621094 182.14646911621094 357.355224609375 229.14132690429688 365.8293762207031 215.51498413085938" stroke-width="16.27652359008789" fill="none" stroke="rgb(99, 105, 5)" stroke-opacity="0.85838306" stroke-linecap="round" stroke-linejoin="round"/>
    <path d="M 378.0323791503906 201.34469604492188 C 332.671630859375 197.4600067138672 332.65576171875 219.30848693847656 335.49224853515625 208.18116760253906" stroke-width="8.535714149475098" fill="none" stroke="rgb(66, 243, 96)" stroke-opacity="0.8882478" stroke-linecap="round" stroke-linejoin="round"/>
    <path d="M 376.5176696777344 292.3171081542969 C 382.8833312988281 330.95269775390625 327.3471374511719 308.3938903808594 311.489501953125 320.0748291015625" stroke-width="8.55210018157959" fill="none" stroke="rgb(44, 242, 108)" stroke-opacity="0.62150633" stroke-linecap="round" stroke-linejoin="round"/>
    <path d="M 337.1609802246094 312.0281677246094 C 270.88995361328125 261.7951965332031 247.53585815429688 269.8447265625 308.1607666015625 288.2375793457031" stroke-width="18.614946365356445" fill="none" stroke="rgb(74, 74, 39)" stroke-opacity="0.8458777" stroke-linecap="round" stroke-linejoin="round"/>
    <path d="M 307.0137939453125 309.8087158203125 C 271.3847961425781 253.8858184814453 284.5361022949219 283.4688415527344 259.8486633300781 294.9924621582031" stroke-width="25.397123336791992" fill="none" stroke="rgb(88, 234, 120)" stroke-opacity="0.9587745" stroke-linecap="round" stroke-linejoin="round"/>
    <path d="M 346.821533203125 328.0747375488281 C 345.08502197265625 281.7221374511719 294.4857177734375 269.9620666503906 288.3310852050781 280.60174560546875" stroke-width="8.535714149475098" fill="none" stroke="rgb(126, 254, 127)" stroke-opacity="0.7499028" stroke-linecap="round" stroke-linejoin="round"/>
    <path d="M 364.4888610839844 338.43328857421875 C 296.65863037109375 239.06805419921875 284.72998046875 215.6433563232422 312.1942138671875 298.00732421875" stroke-width="14.877900123596191" fill="none" stroke="rgb(39, 165, 37)" stroke-opacity="0.85074186" stroke-linecap="round" stroke-linejoin="round"/>
    <path d="M 361.7889099121094 290.0616760253906 C 354.0554504394531 248.91781616210938 303.0261535644531 250.34669494628906 301.1199645996094 228.0069580078125" stroke-width="26.73122215270996" fill="none" stroke="rgb(0, 206, 47)" stroke-opacity="0.5245135" stroke-linecap="round" stroke-linejoin="round"/>
    <path d="M 402.72552490234375 122.3672866821289 C 398.6001892089844 157.2274932861328 380.93731689453125 176.01380920410156 365.9960021972656 124.37845611572266" stroke-width="18.753034591674805" fill="none" stroke="rgb(97, 140, 73)" stroke-opacity="0.79760647" stroke-linecap="round" stroke-linejoin="round"/>
    <path d="M 453.47174072265625 142.3673553466797 C 311.3576965332031 121.05967712402344 306.4015197753906 120.2907485961914 312.15460205078125 207.4698028564453" stroke-width="25.965269088745117" fill="none" stroke="rgb(102, 74, 24)" stroke-opacity="0.88949794" stroke-linecap="round" stroke-linejoin="round"/>
    <path d="M 425.69525146484375 153.39593505859375 C 395.21099853515625 137.6196746826172 342.92950439453125 123.32586669921875 330.6216125488281 118.14461517333984" stroke-width="8.535714149475098" fill="none" stroke="rgb(104, 211, 101)" stroke-opacity="0.84861934" stroke-linecap="round" stroke-linejoin="round"/>
    <path d="M 423.85235595703125 139.6853790283203 C 365.21063232421875 140.2233428955078 358.0333557128906 131.26841735839844 390.6820373535156 145.5173797607422" stroke-width="12.989669799804688" fill="none" stroke="rgb(106, 109, 49)" stroke-opacity="0.89995056" stroke-linecap="round" stroke-linejoin="round"/>
    <path d="M 389.15020751953125 165.26097106933594 C 369.80230712890625 79.05818939208984 374.96466064453125 55.62083053588867 381.67938232421875 119.85185241699219" stroke-width="8.620464324951172" fill="none" stroke="rgb(154, 6, 1)" stroke-opacity="0.99558604" stroke-linecap="round" stroke-linejoin="round"/>
    <path d="M 422.3027038574219 141.85960388183594 C 397.9898681640625 107.43675231933594 377.1727600097656 110.1128158569336 386.5688171386719 122.95260620117188" stroke-width="17.56745719909668" fill="none" stroke="rgb(165, 173, 106)" stroke-opacity="0.56636786" stroke-linecap="round" stroke-linejoin="round"/>
    <path d="M 524.8899536132812 77.16272735595703 C 474.23553466796875 105.420654296875 423.5745544433594 123.28213500976562 463.9873352050781 90.37452697753906" stroke-width="33.43104934692383" fill="none" stroke="rgb(107, 148, 112)" stroke-opacity="0.6810776" stroke-linecap="round" stroke-linejoin="round"/>
    <path d="M 504.33056640625 102.9948501586914 C 426.994384765625 65.43399810791016 448.4163818359375 85.821044921875 471.4629211425781 113.79756164550781" stroke-width="8.535714149475098" fill="none" stroke="rgb(153, 224, 160)" stroke-opacity="0.7284997" stroke-linecap="round" stroke-linejoin="round"/>
    <path d="M 575.6675415039062 116.33643341064453 C 495.20465087890625 90.90575408935547 470.6883850097656 114.60954284667969 488.6399230957031 115.17491912841797" stroke-width="39.559425354003906" fill="none" stroke="rgb(76, 241, 132)" stroke-opacity="0.5806911" stroke-linecap="round" stroke-linejoin="round"/>
    <path d="M 508.6281433105469 69.74867248535156 C 498.81732177734375 75.1351318359375 470.26788330078125 63.775943756103516 512.6239624023438 59.55488967895508" stroke-width="13.23881721496582" fill="none" stroke="rgb(67, 252, 130)" stroke-opacity="0.5864865" stroke-linecap="round" stroke-linejoin="round"/>
    <path d="M 501.9507141113281 134.6571502685547 C 471.9486999511719 55.91185760498047 460.167724609375 59.893558502197266 492.5877380371094 75.99915313720703" stroke-width="9.30662727355957" fill="none" stroke="rgb(123, 182, 111)" stroke-opacity="0.66360074" stroke-linecap="round" stroke-linejoin="round"/>
    <path d="M 564.88134765625 95.24604797363281 C 510.7388916015625 56.074283599853516 488.42266845703125 62.83061218261719 460.87054443359375 53.05158615112305" stroke-width="27.013444900512695" fill="none" stroke="rgb(66, 255, 146)" stroke-opacity="0.6442955" stroke-linecap="round" stroke-linejoin="round"/>
    <path d="M 645.6097412109375 360.29840087890625 C 640.3990478515625 361.98590087890625 644.7595825195312 405.7636413574219 646.1663208007812 492.32586669921875" stroke-width="20.154945373535156" fill="none" stroke="rgb(69, 37, 5)" stroke-opacity="0.9125096" stroke-linecap="round" stroke-linejoin="round"/>
    <path d="M 599.5795288085938 363.77581787109375 C 679.9530639648438 366.7508850097656 636.8590698242188 367.2191162109375 645.567626953125 403.4083557128906" stroke-width="8.535714149475098" fill="none" stroke="rgb(11, 10, 0)" stroke-opacity="0.990334" stroke-linecap="round" stroke-linejoin="round"/>
    <path d="M 705.5130615234375 317.64544677734375 C 679.994384765625 355.7957763671875 663.9736328125 402.1935729980469 672.8674926757812 458.59759521484375" stroke-width="12.62463092803955" fill="none" stroke="rgb(224, 255, 249)" stroke-opacity="0.95614815" stroke-linecap="round" stroke-linejoin="round"/>
    <path d="M 630.2064208984375 347.5998229980469 C 633.4894409179688 374.3084411621094 660.2474365234375 356.1117248535156 650.0813598632812 341.5985412597656" stroke-width="12.642971992492676" fill="none" stroke="rgb(58, 0, 7)" stroke-opacity="0.9488744" stroke-linecap="round" stroke-linejoin="round"/>
    <path d="M 666.8388671875 365.80657958984375 C 697.1417236328125 350.455810546875 707.9086303710938 378.2796325683594 707.8939819335938 415.8976135253906" stroke-width="8.535714149475098" fill="none" stroke="rgb(65, 237, 149)" stroke-opacity="0.6915482" stroke-linecap="round" stroke-linejoin="round"/>
    <path d="M 661.4130249023438 335.4114685058594 C 689.6029663085938 351.59356689453125 712.6304321289062 373.1201477050781 712.8896484375 401.608642578125" stroke-width="8.535714149475098" fill="none" stroke="rgb(168, 231, 122)" stroke-opacity="0.45580342" stroke-linecap="round" stroke-linejoin="round"/>
    <path d="M 628.5693359375 152.6099853515625 C 632.3171997070312 176.6522216796875 600.7232666015625 213.38449096679688 607.546875 213.8127899169922" stroke-width="23.166637420654297" fill="none" stroke="rgb(113, 237, 75)" stroke-opacity="0.36505267" stroke-linecap="round" stroke-linejoin="round"/>
    <path d="M 677.4818725585938 131.50816345214844 C 658.876220703125 172.58131408691406 638.918701171875 217.5186767578125 624.4227905273438 242.01583862304688" stroke-width="23.396554946899414" fill="none" stroke="rgb(92, 190, 78)" stroke-opacity="0.6934088" stroke-linecap="round" stroke-linejoin="round"/>
    <path d="M 625.1025390625 123.53548431396484 C 634.5845336914062 193.2635040283203 664.4334106445312 180.49237060546875 638.5813598632812 190.1536102294922" stroke-width="23.098308563232422" fill="none" stroke="rgb(52, 235, 119)" stroke-opacity="0.77329606" stroke-linecap="round" stroke-linejoin="round"/>
    <path d="M 634.2734375 107.47454071044922 C 661.6724243164062 147.30979919433594 690.9215698242188 139.0977020263672 684.608642578125 136.35589599609375" stroke-width="15.850550651550293" fill="none" stroke="rgb(152, 255, 114)" stroke-opacity="0.16242199" stroke-linecap="round" stroke-linejoin="round"/>
    <path d="M 684.6265258789062 112.92394256591797 C 709.2268676757812 117.8641357421875 697.5552978515625 154.22171020507812 690.1841430664062 166.85386657714844" stroke-width="10.294912338256836" fill="none" stroke="rgb(91, 179, 21)" stroke-opacity="0.7963354" stroke-linecap="round" stroke-linejoin="round"/>
    <path d="M 684.4910278320312 137.82354736328125 C 702.6325073242188 78.93547821044922 713.9136962890625 105.67266845703125 690.3477172851562 171.26161193847656" stroke-width="27.633010864257812" fill="none" stroke="rgb(111, 201, 112)" stroke-opacity="0.8057283" stroke-linecap="round" stroke-linejoin="round"/>
    <path d="M 550.5725708007812 220.31491088867188 C 541.6521606445312 246.00552368164062 532.6587524414062 301.767578125 490.479248046875 307.93609619140625" stroke-width="35.37245559692383" fill="none" stroke="rgb(223, 5, 37)" stroke-opacity="0.9699805" stroke-linecap="round" stroke-linejoin="round"/>
    <path d="M 576.1470947265625 198.42572021484375 C 576.167724609375 316.7349853515625 553.3740234375 330.6977844238281 548.9701538085938 240.99705505371094" stroke-width="31.32903480529785" fill="none" stroke="rgb(234, 17, 50)" stroke-opacity="0.8270681" stroke-linecap="round" stroke-linejoin="round"/>
    <path d="M 556.7274169921875 179.85986328125 C 553.7730102539062 259.2613830566406 513.5944213867188 250.3920440673828 491.7505187988281 268.6479797363281" stroke-width="9.087488174438477" fill="none" stroke="rgb(235, 135, 128)" stroke-opacity="0.8432445" stroke-linecap="round" stroke-linejoin="round"/>
    <path d="M 601.8154296875 140.03305053710938 C 608.6677856445312 209.95623779296875 588.7647094726562 281.6509094238281 591.194580078125 280.1768798828125" stroke-width="12.031352996826172" fill="none" stroke="rgb(78, 26, 47)" stroke-opacity="0.9463218" stroke-linecap="round" stroke-linejoin="round"/>
    <path d="M 598.7073974609375 186.6288299560547 C 599.6285400390625 227.33499145507812 600.4657592773438 279.503662109375 568.1043090820312 288.7439270019531" stroke-width="12.767099380493164" fill="none" stroke="rgb(60, 59, 64)" stroke-opacity="0.75239146" stroke-linecap="round" stroke-linejoin="round"/>
    <path d="M 575.0881958007812 151.12158203125 C 606.0070190429688 211.60548400878906 615.9303588867188 230.5722198486328 589.6002197265625 297.4918518066406" stroke-width="11.341506004333496" fill="none" stroke="rgb(163, 196, 169)" stroke-opacity="0.6734903" stroke-linecap="round" stroke-linejoin="round"/>
    <path d="M 564.67724609375 291.6315002441406 C 605.8865966796875 316.24432373046875 611.734375 240.69309997558594 622.3736572265625 261.45538330078125" stroke-width="15.195659637451172" fill="none" stroke="rgb(31, 186, 98)" stroke-opacity="0.7559568" stroke-linecap="round" stroke-linejoin="round"/>
    <path d="M 630.1332397460938 293.2657470703125 C 642.5654296875 233.70065307617188 623.5772094726562 196.5590057373047 622.664306640625 215.7277374267578" stroke-width="11.173297882080078" fill="none" stroke="rgb(111, 202, 96)" stroke-opacity="0.66264266" stroke-linecap="round" stroke-linejoin="round"/>
    <path d="M 599.021728515625 271.3095703125 C 593.2412719726562 246.64309692382812 589.394775390625 205.52218627929688 604.7021484375 214.57763671875" stroke-width="11.968484878540039" fill="none" stroke="rgb(105, 255, 131)" stroke-opacity="0.8594579" stroke-linecap="round" stroke-linejoin="round"/>
    <path d="M 640.5718994140625 281.0743408203125 C 668.1923828125 289.3204040527344 673.5332641601562 254.8566436767578 647.363037109375 261.8526611328125" stroke-width="8.535714149475098" fill="none" stroke="rgb(106, 229, 77)" stroke-opacity="0.56589216" stroke-linecap="round" stroke-linejoin="round"/>
    <path d="M 578.8364868164062 280.3724365234375 C 639.572265625 264.40789794921875 649.3392333984375 243.66751098632812 654.6402587890625 260.50714111328125" stroke-width="8.535714149475098" fill="none" stroke="rgb(55, 251, 151)" stroke-opacity="0.58913493" stroke-linecap="round" stroke-linejoin="round"/>
    <path d="M 601.4895629882812 289.8763732910156 C 622.155029296875 243.39956665039062 651.9141845703125 283.7239990234375 642.4302368164062 222.37619018554688" stroke-width="12.046868324279785" fill="none" stroke="rgb(108, 255, 109)" stroke-opacity="0.7178285" stroke-linecap="round" stroke-linejoin="round"/>
    <path d="M 421.2498779296875 284.52593994140625 C 444.04217529296875 282.7668151855469 433.0624694824219 284.36590576171875 392.9066467285156 298.9853515625" stroke-width="21.6276912689209" fill="none" stroke="rgb(141, 73, 59)" stroke-opacity="0.8377086" stroke-linecap="round" stroke-linejoin="round"/>
    <path d="M 416.2545166015625 218.1009979248047 C 370.5947570800781 233.2916717529297 371.18115234375 267.0836181640625 409.07659912109375 270.102294921875" stroke-width="25.991809844970703" fill="none" stroke="rgb(30, 255, 105)" stroke-opacity="0.74530655" stroke-linecap="round" stroke-linejoin="round"/>
    <path d="M 423.2553405761719 239.88677978515625 C 400.48248291015625 266.116943359375 376.9061584472656 289.8578186035156 418.6571044921875 314.2546081542969" stroke-width="17.029130935668945" fill="none" stroke="rgb(194, 253, 210)" stroke-opacity="0.9962824" stroke-linecap="round" stroke-linejoin="round"/>
    <path d="M 419.3474426269531 265.9529724121094 C 437.147216796875 254.67196655273438 397.4437561035156 232.61209106445312 356.46771240234375 214.3603057861328" stroke-width="25.7285099029541" fill="none" stroke="rgb(92, 147, 89)" stroke-opacity="0.776244" stroke-linecap="round" stroke-linejoin="round"/>
    <path d="M 440.972412109375 249.70623779296875 C 456.3193054199219 167.81483459472656 448.9228515625 225.2097625732422 390.605224609375 223.19126892089844" stroke-width="27.629558563232422" fill="none" stroke="rgb(131, 131, 105)" stroke-opacity="0.47501236" stroke-linecap="round" stroke-linejoin="round"/>
    <path d="M 428.612548828125 298.2343444824219 C 384.7740783691406 250.97018432617188 390.6201477050781 200.0120391845703 396.2989196777344 202.7625732421875" stroke-width="9.61548900604248" fill="none" stroke="rgb(10, 249, 123)" stroke-opacity="0.9888864" stroke-linecap="round" stroke-linejoin="round"/>
    <path d="M 320.6573791503906 572.8731079101562 C 560.7183837890625 662.4335327148438 574.397705078125 603.25146484375 654.0684814453125 574.9349975585938" stroke-width="46.828365325927734" fill="none" stroke="rgb(202, 31, 32)" stroke-opacity="1.0" stroke-linecap="round" stroke-linejoin="round"/>
    <path d="M 356.214599609375 363.82928466796875 C 329.7988586425781 290.7013854980469 363.47869873046875 265.3030090332031 411.6761474609375 277.3485107421875 C 478.561279296875 337.7913818359375 417.14501953125 333.7091064453125 370.95166015625 350.3866882324219" stroke-width="27.199373245239258" fill="none" stroke="rgb(92, 115, 0)" stroke-opacity="0.004680769" stroke-linecap="round" stroke-linejoin="round"/>
    <path d="M 568.8861694335938 309.9335632324219 C 495.9410400390625 283.2116394042969 565.5889282226562 349.9327392578125 557.7357177734375 330.9327392578125 C 550.1053466796875 353.2164001464844 551.91455078125 348.58013916015625 557.628173828125 344.2217712402344" stroke-width="8.695940017700195" fill="none" stroke="rgb(142, 29, 49)" stroke-opacity="0.21704575" stroke-linecap="round" stroke-linejoin="round"/>
    <path d="M 699.590087890625 463.23388671875 C 705.8328857421875 405.7668151855469 703.556396484375 358.7981262207031 729.8360595703125 288.3775634765625" stroke-width="33.7017936706543" fill="none" stroke="rgb(5, 179, 23)" stroke-opacity="0.56001794" stroke-linecap="round" stroke-linejoin="round"/>
    <path d="M 432.6255187988281 154.1787109375 C 307.8525085449219 139.3961944580078 339.2161560058594 138.6925811767578 339.7366638183594 205.37741088867188" stroke-width="54.01383972167969" fill="none" stroke="rgb(255, 15, 10)" stroke-opacity="0.99960506" stroke-linecap="round" stroke-linejoin="round"/>
    <path d="M 338.0991516113281 123.57546997070312 C 314.40545654296875 177.78713989257812 333.61260986328125 193.14852905273438 327.0239562988281 151.89027404785156 C 352.2218933105469 193.83204650878906 428.3245849609375 184.31826782226562 405.7762451171875 189.8563995361328 C 344.59210205078125 245.8383331298828 349.5513000488281 270.3435974121094 343.7353210449219 243.59898376464844" stroke-width="20.15576171875" fill="none" stroke="rgb(255, 107, 125)" stroke-opacity="0.6603614" stroke-linecap="round" stroke-linejoin="round"/>
    <path d="M 489.32122802734375 150.6483612060547 C 449.22503662109375 166.527099609375 440.6894836425781 146.8951416015625 454.02520751953125 23.37704849243164 C 420.25555419921875 131.8938446044922 412.7500305175781 108.74543762207031 331.82757568359375 115.72232055664062" stroke-width="22.65028953552246" fill="none" stroke="rgb(252, 11, 0)" stroke-opacity="1.0" stroke-linecap="round" stroke-linejoin="round"/>
    <path d="M 428.7965087890625 78.21124267578125 C 465.33251953125 61.564151763916016 424.9087829589844 125.66552734375 315.00677490234375 119.07191467285156 C 378.12890625 123.87047576904297 443.2361145019531 116.84087371826172 408.9797668457031 150.33433532714844 C 368.5001525878906 125.71672058105469 385.8382568359375 157.93698120117188 405.0595703125 135.85635375976562" stroke-width="8.535714149475098" fill="none" stroke="rgb(202, 67, 88)" stroke-opacity="0.017977664" stroke-linecap="round" stroke-linejoin="round"/>
    <path d="M 713.4610595703125 218.5074005126953 C 651.3302612304688 250.4730224609375 659.2033081054688 273.44708251953125 663.2308349609375 266.53204345703125" stroke-width="41.81409454345703" fill="none" stroke="rgb(71, 251, 79)" stroke-opacity="0.59097064" stroke-linecap="round" stroke-linejoin="round"/>
    <path d="M 347.8204040527344 322.5264892578125 C 375.73321533203125 374.246826171875 358.9253234863281 414.31256103515625 294.43133544921875 409.3883361816406 C 404.8133850097656 400.7592468261719 359.9032287597656 383.4292297363281 338.0778503417969 350.5270080566406 C 301.30792236328125 397.3264465332031 312.2015686035156 386.3185729980469 345.74908447265625 396.65057373046875" stroke-width="26.6993408203125" fill="none" stroke="rgb(63, 255, 86)" stroke-opacity="0.12882495" stroke-linecap="round" stroke-linejoin="round"/>
    <path d="M 351.3453063964844 310.4129333496094 C 422.79541015625 422.8368225097656 381.39007568359375 397.0090026855469 359.8831481933594 408.0762634277344 C 402.0748596191406 443.2703857421875 370.0687561035156 418.60009765625 350.10064697265625 409.1839294433594 C 298.9196472167969 450.1217041015625 346.6634216308594 400.8047790527344 380.55743408203125 394.69354248046875" stroke-width="26.342164993286133" fill="none" stroke="rgb(124, 250, 172)" stroke-opacity="0.57592547" stroke-linecap="round" stroke-linejoin="round"/>
    <path d="M 319.7940673828125 153.9828643798828 C 331.8657531738281 11.941102027893066 311.339599609375 -1.468816876411438 346.0513000488281 30.402732849121094 C 404.0409240722656 18.642148971557617 476.9283142089844 54.85856246948242 446.867431640625 17.178421020507812" stroke-width="46.93669509887695" fill="none" stroke="rgb(252, 17, 0)" stroke-opacity="1.0" stroke-linecap="round" stroke-linejoin="round"/>
    <path d="M 343.25732421875 135.15988159179688 C 294.7081298828125 46.6340446472168 327.89788818359375 113.39834594726562 312.7944641113281 146.5901336669922 C 331.4620666503906 203.34518432617188 305.2458801269531 84.86260223388672 325.2549743652344 95.16668701171875" stroke-width="9.09939193725586" fill="none" stroke="rgb(255, 214, 178)" stroke-opacity="0.4025053" stroke-linecap="round" stroke-linejoin="round"/>
    <path d="M 359.9952392578125 229.2133026123047 C 360.52239990234375 173.314453125 429.7249755859375 170.47412109375 489.9138488769531 113.2878189086914" stroke-width="9.996821403503418" fill="none" stroke="rgb(169, 107, 95)" stroke-opacity="0.4321013" stroke-linecap="round" stroke-linejoin="round"/>
    <path d="M 531.32373046875 312.5615539550781 C 557.1193237304688 322.539794921875 577.685302734375 306.2032470703125 553.0010986328125 313.3671875 C 605.26953125 315.8992614746094 554.2918701171875 256.6361083984375 640.7758178710938 243.1310577392578 C 617.9332275390625 289.681640625 533.4307861328125 279.16351318359375 552.6072998046875 314.8853454589844" stroke-width="10.837024688720703" fill="none" stroke="rgb(104, 236, 190)" stroke-opacity="0.58595806" stroke-linecap="round" stroke-linejoin="round"/>
    <path d="M 418.9873352050781 130.07568359375 C 403.03662109375 56.126129150390625 411.2204895019531 40.01827621459961 399.740478515625 83.5283432006836 C 408.6062927246094 61.134735107421875 430.4100341796875 25.073476791381836 461.97235107421875 69.29784393310547" stroke-width="10.908407211303711" fill="none" stroke="rgb(255, 15, 1)" stroke-opacity="0.7107872" stroke-linecap="round" stroke-linejoin="round"/>
    <path d="M 378.17022705078125 226.22579956054688 C 341.50286865234375 225.3438262939453 327.29931640625 212.33309936523438 360.26959228515625 224.58021545410156 C 367.55279541015625 216.8661346435547 351.0224609375 223.12899780273438 367.7213439941406 283.3956604003906" stroke-width="8.535714149475098" fill="none" stroke="rgb(107, 147, 75)" stroke-opacity="0.5709347" stroke-linecap="round" stroke-linejoin="round"/>
    <path d="M 413.1802673339844 725.6050415039062 C 372.7132568359375 687.6128540039062 367.4674377441406 725.0071411132812 285.7109069824219 752.5767211914062 C 293.3674621582031 713.8477783203125 309.54974365234375 721.1539916992188 378.6224365234375 775.9573974609375" stroke-width="9.552919387817383" fill="none" stroke="rgb(219, 226, 210)" stroke-opacity="0.004618271" stroke-linecap="round" stroke-linejoin="round"/>
    <path d="M 473.5352783203125 292.1478271484375 C 521.5165405273438 249.36386108398438 529.751708984375 282.429443359375 519.12646484375 308.6565856933594" stroke-width="8.982617378234863" fill="none" stroke="rgb(255, 83, 104)" stroke-opacity="0.54709536" stroke-linecap="round" stroke-linejoin="round"/>
    <path d="M 620.535400390625 57.80367660522461 C 674.3565063476562 37.7741584777832 716.5702514648438 -18.785747528076172 744.3667602539062 9.437599182128906 C 725.4552001953125 22.974374771118164 797.2285766601562 -2.4078209400177 745.8363037109375 2.992091655731201 C 715.299072265625 -27.864917755126953 758.5529174804688 -56.70061111450195 795.3656005859375 -98.1277084350586" stroke-width="25.845661163330078" fill="none" stroke="rgb(118, 254, 138)" stroke-opacity="0.87860197" stroke-linecap="round" stroke-linejoin="round"/>
    <path d="M 39.00355529785156 628.7730102539062 C 63.51958465576172 703.4035034179688 67.1678695678711 751.0361328125 64.42244720458984 735.177978515625 C 179.6875762939453 660.5428466796875 218.85809326171875 693.9951171875 120.31206512451172 752.02734375 C 120.42431640625 757.6870727539062 147.49014282226562 707.4210815429688 206.7628173828125 702.2385864257812" stroke-width="8.535714149475098" fill="none" stroke="rgb(105, 59, 206)" stroke-opacity="0.26072565" stroke-linecap="round" stroke-linejoin="round"/>
    <path d="M 920.8814086914062 44.9047737121582 C 922.8589477539062 4.339625835418701 887.89208984375 -25.428272247314453 933.3417358398438 -54.02629852294922 C 933.2068481445312 -21.329748153686523 911.8098754882812 -57.53182601928711 946.6409912109375 -56.06772232055664" stroke-width="8.535714149475098" fill="none" stroke="rgb(163, 176, 99)" stroke-opacity="0.0" stroke-linecap="round" stroke-linejoin="round"/>
    <path d="M 258.9351806640625 786.66259765625 C 120.20911407470703 797.1654052734375 58.43918228149414 867.8692016601562 20.514434814453125 894.376708984375 C 55.96195983886719 933.7662353515625 64.75238037109375 911.93408203125 49.241172790527344 923.610107421875" stroke-width="38.79569625854492" fill="none" stroke="rgb(160, 131, 202)" stroke-opacity="0.2596018" stroke-linecap="round" stroke-linejoin="round"/>
    <path d="M 327.30877685546875 -17.931224822998047 C 326.7523498535156 -20.0357608795166 280.7980651855469 -61.00047302246094 261.3841552734375 -67.25492858886719 C 259.2193298339844 -70.03955841064453 287.78466796875 -81.0573959350586 269.10858154296875 -79.04549407958984" stroke-width="8.535714149475098" fill="none" stroke="rgb(61, 35, 248)" stroke-opacity="0.76212835" stroke-linecap="round" stroke-linejoin="round"/>
    <path d="M 450.736328125 525.2461547851562 C 373.79132080078125 522.3832397460938 377.0332336425781 477.1573181152344 487.76202392578125 548.2241821289062 C 499.8327941894531 490.58404541015625 468.7256164550781 506.13525390625 443.2169189453125 510.70367431640625" stroke-width="18.014759063720703" fill="none" stroke="rgb(4, 165, 109)" stroke-opacity="0.22650185" stroke-linecap="round" stroke-linejoin="round"/>
    <path d="M 575.7437744140625 632.894775390625 C 495.5328063964844 668.358642578125 483.7424011230469 691.4559936523438 505.2251281738281 710.6342163085938 C 551.2238159179688 579.069580078125 481.33502197265625 590.2855834960938 352.11553955078125 570.2984008789062" stroke-width="29.126293182373047" fill="none" stroke="rgb(251, 59, 54)" stroke-opacity="0.7706086" stroke-linecap="round" stroke-linejoin="round"/>
    <path d="M 690.9439697265625 781.1719360351562 C 694.73486328125 783.4448852539062 700.4788818359375 761.0441284179688 672.5032348632812 801.8377685546875" stroke-width="8.535714149475098" fill="none" stroke="rgb(75, 69, 240)" stroke-opacity="0.28522265" stroke-linecap="round" stroke-linejoin="round"/>
    <path d="M 896.644775390625 349.6819152832031 C 905.5584716796875 255.52195739746094 901.6045532226562 208.01617431640625 892.489013671875 222.76499938964844 C 899.5396728515625 219.1137237548828 900.0797119140625 213.69192504882812 896.0674438476562 226.7579803466797 C 902.8356323242188 179.0377197265625 904.504638671875 164.00375366210938 909.6444091796875 132.40615844726562" stroke-width="19.184362411499023" fill="none" stroke="rgb(159, 76, 227)" stroke-opacity="0.12105549" stroke-linecap="round" stroke-linejoin="round"/>
    <path d="M 72.46408081054688 234.12806701660156 C 115.15804290771484 305.293212890625 137.67337036132812 372.8478698730469 131.12872314453125 185.46380615234375 C 160.51556396484375 263.1772155761719 166.91732788085938 343.19903564453125 211.9817352294922 402.9466857910156 C 155.35348510742188 449.4306335449219 195.3144989013672 427.62811279296875 233.63246154785156 372.928466796875" stroke-width="28.497501373291016" fill="none" stroke="rgb(42, 181, 46)" stroke-opacity="0.39987844" stroke-linecap="round" stroke-linejoin="round"/>
    <path d="M 719.71044921875 568.9900512695312 C 752.9860229492188 535.8975830078125 769.0723876953125 631.5301513671875 762.5865478515625 639.2504272460938 C 797.9461669921875 613.6288452148438 875.4691162109375 694.97216796875 812.054443359375 636.8213500976562" stroke-width="8.535714149475098" fill="none" stroke="rgb(101, 225, 118)" stroke-opacity="0.6701463" stroke-linecap="round" stroke-linejoin="round"/>
    <path d="M 854.7648315429688 328.1474609375 C 881.9318237304688 192.85693359375 861.3048095703125 250.01963806152344 833.5949096679688 358.6067810058594 C 884.3984375 357.9767761230469 840.0709838867188 324.5182800292969 796.2727661132812 450.86981201171875" stroke-width="58.913360595703125" fill="none" stroke="rgb(95, 69, 131)" stroke-opacity="0.18536632" stroke-linecap="round" stroke-linejoin="round"/>
    <path d="M 583.0113525390625 37.289649963378906 C 525.1766967773438 2.252847909927368 469.7512512207031 44.885597229003906 455.3498840332031 43.7706298828125 C 504.2630310058594 78.41344451904297 462.8795471191406 18.777921676635742 349.3059387207031 45.16569519042969 C 307.9959716796875 86.3380126953125 354.46356201171875 140.4566192626953 451.18017578125 119.91322326660156" stroke-width="10.561877250671387" fill="none" stroke="rgb(234, 0, 0)" stroke-opacity="0.65090656" stroke-linecap="round" stroke-linejoin="round"/>
    <path d="M 523.4986572265625 340.16973876953125 C 508.34906005859375 293.4314880371094 416.14178466796875 256.79443359375 337.4393005371094 317.49151611328125 C 361.0223388671875 314.03643798828125 370.3269348144531 351.8935546875 356.0298156738281 408.89453125 C 261.2247009277344 450.6748352050781 317.7988586425781 386.9474792480469 292.66119384765625 290.0306701660156" stroke-width="26.381366729736328" fill="none" stroke="rgb(184, 255, 207)" stroke-opacity="0.13612282" stroke-linecap="round" stroke-linejoin="round"/>
  </g>
</svg>
