<?xml version="1.0" ?>
<svg xmlns="http://www.w3.org/2000/svg" version="1.1" width="1555.99219" height="1555.99219">
  <defs/>
  <g>
    <path d="M 69.52760314941406 226.09689331054688 C 70.75799560546875 215.6678466796875 73.08264923095703 209.46853637695312 73.46803283691406 211.00155639648438 C 72.55579376220703 200.4787139892578 70.5238037109375 197.04287719726562 81.21424865722656 202.80970764160156 C 97.60657501220703 204.4672088623047 105.78793334960938 227.07301330566406 119.75945281982422 231.6146697998047 C 120.75880432128906 236.4147186279297 128.1312713623047 222.46202087402344 137.1779327392578 229.9971160888672 C 145.9359893798828 236.85646057128906 156.39622497558594 244.04005432128906 168.0764923095703 247.50228881835938 C 185.32470703125 245.58352661132812 193.39535522460938 243.5806427001953 197.71717834472656 240.98826599121094 C 201.9822998046875 241.85028076171875 206.94357299804688 241.02935791015625 213.2196807861328 236.3730010986328 C 221.35330200195312 234.87051391601562 234.78675842285156 230.51376342773438 236.77792358398438 232.88552856445312 C 233.93270874023438 240.93466186523438 233.01376342773438 248.25938415527344 236.9989013671875 251.75653076171875" stroke-width="5.22802734375" fill="none" stroke="rgb(30, 18, 36)" stroke-opacity="0.68908817" stroke-linecap="round" stroke-linejoin="round"/>
    <path d="M 259.3660888671875 317.26605224609375 C 262.55084228515625 317.8489685058594 268.79034423828125 318.36309814453125 267.1619567871094 311.5059814453125 C 265.7551574707031 306.79608154296875 266.8583679199219 303.3507080078125 261.1307678222656 311.09698486328125 C 261.0227966308594 310.63507080078125 261.0199890136719 309.4100036621094 260.0423889160156 306.7674560546875 C 262.0335388183594 300.7532043457031 264.31951904296875 292.44549560546875 263.3254089355469 288.80145263671875 C 253.3118438720703 291.05328369140625 248.50563049316406 288.5406799316406 251.18711853027344 277.072021484375 C 244.64759826660156 275.7554931640625 240.46249389648438 273.2022399902344 232.537353515625 276.3667907714844 C 223.0567169189453 283.2339172363281 218.38031005859375 282.6051025390625 225.82054138183594 282.532470703125 C 223.2200927734375 282.9833068847656 217.7174530029297 283.4302673339844 205.05203247070312 274.1156311035156 C 207.7284393310547 283.2105407714844 213.19285583496094 293.02081298828125 207.00607299804688 291.3834228515625 C 208.2766571044922 294.57696533203125 212.6067352294922 307.0298767089844 211.61346435546875 311.18829345703125 C 204.53598022460938 306.648681640625 206.19277954101562 305.0938415527344 201.05752563476562 300.5367736816406 C 196.93096923828125 303.232177734375 195.5438995361328 303.89031982421875 196.26156616210938 307.9579162597656 C 201.4934539794922 305.196044921875 199.42005920410156 305.531494140625 193.8849639892578 305.93231201171875 C 183.9408721923828 308.101806640625 173.6778106689453 310.2559509277344 176.53826904296875 294.95318603515625 C 169.7633514404297 296.1358337402344 162.73638916015625 294.1302795410156 151.69000244140625 299.2577819824219 C 146.08392333984375 292.9601135253906 145.29461669921875 293.0207214355469 150.59605407714844 300.9988708496094 C 147.1724090576172 303.63372802734375 143.14425659179688 300.4266052246094 137.25827026367188 296.8959045410156 C 138.42115783691406 296.2816162109375 136.23721313476562 294.96697998046875 137.23651123046875 294.32183837890625 C 135.84507751464844 294.4583740234375 127.92528533935547 297.570068359375 122.17179870605469 296.4402160644531" stroke-width="7.0404510498046875" fill="none" stroke="rgb(17, 24, 38)" stroke-opacity="0.739249" stroke-linecap="round" stroke-linejoin="round"/>
    <path d="M 196.65936279296875 241.4895782470703 C 200.34262084960938 219.0480194091797 182.93447875976562 244.19009399414062 170.83767700195312 212.87188720703125" stroke-width="7.968389987945557" fill="none" stroke="rgb(245, 57, 109)" stroke-opacity="0.29030734" stroke-linecap="round" stroke-linejoin="round"/>
    <path d="M 236.2787322998047 238.14907836914062 C 232.11404418945312 210.63998413085938 221.62591552734375 219.72555541992188 198.4925079345703 226.78750610351562" stroke-width="5.22802734375" fill="none" stroke="rgb(206, 107, 23)" stroke-opacity="0.60936064" stroke-linecap="round" stroke-linejoin="round"/>
    <path d="M 179.05760192871094 244.544677734375 C 169.1790771484375 211.40110778808594 189.3760528564453 218.09278869628906 185.6499786376953 189.3197784423828 C 206.64244079589844 156.22914123535156 200.6965789794922 143.41604614257812 216.15621948242188 152.79385375976562 C 198.89276123046875 126.95079803466797 178.58973693847656 147.16397094726562 179.18484497070312 163.45578002929688" stroke-width="5.300485610961914" fill="none" stroke="rgb(133, 25, 159)" stroke-opacity="0.31416938" stroke-linecap="round" stroke-linejoin="round"/>
    <path d="M 88.56867218017578 203.5287322998047 C 79.09693145751953 230.82875061035156 94.4007568359375 255.76248168945312 75.32466888427734 249.59434509277344 C 71.17943572998047 259.82537841796875 80.46944427490234 287.322021484375 74.23357391357422 276.3763732910156" stroke-width="8.18795394897461" fill="none" stroke="rgb(37, 216, 116)" stroke-opacity="0.75656366" stroke-linecap="round" stroke-linejoin="round"/>
    <path d="M 133.45513916015625 295.1937255859375 C 131.30145263671875 295.7891845703125 143.9467010498047 293.6053771972656 152.92771911621094 285.5946960449219 C 169.9134063720703 260.6936950683594 199.3497772216797 271.8988952636719 235.6305694580078 259.3655700683594" stroke-width="5.22802734375" fill="none" stroke="rgb(169, 206, 108)" stroke-opacity="0.7495202" stroke-linecap="round" stroke-linejoin="round"/>
    <path d="M 213.08750915527344 282.92724609375 C 200.21336364746094 278.9668273925781 167.22073364257812 275.6790466308594 139.3887176513672 271.98809814453125 C 150.85617065429688 238.3761749267578 138.17018127441406 212.31771850585938 111.3020248413086 223.43304443359375 C 117.158203125 243.8762664794922 136.2300567626953 244.84397888183594 148.9857635498047 265.8479919433594" stroke-width="5.829971790313721" fill="none" stroke="rgb(72, 87, 64)" stroke-opacity="0.6892639" stroke-linecap="round" stroke-linejoin="round"/>
    <path d="M 127.10887145996094 291.2467346191406 C 111.71636962890625 311.8948669433594 87.86163330078125 297.0133972167969 75.6203842163086 284.1872863769531" stroke-width="7.238119602203369" fill="none" stroke="rgb(80, 94, 78)" stroke-opacity="0.727031" stroke-linecap="round" stroke-linejoin="round"/>
    <path d="M 242.60110473632812 235.05517578125 C 227.683837890625 268.10211181640625 238.55368041992188 292.19024658203125 250.67880249023438 270.0189514160156" stroke-width="8.280961036682129" fill="none" stroke="rgb(59, 0, 78)" stroke-opacity="0.43124402" stroke-linecap="round" stroke-linejoin="round"/>
    <path d="M 134.73561096191406 224.19415283203125 C 167.3183135986328 201.56239318847656 191.46115112304688 214.0686492919922 204.23818969726562 222.55776977539062 C 182.12579345703125 235.39930725097656 172.9326629638672 224.3531036376953 159.77760314941406 219.1162109375 C 164.01629638671875 241.14450073242188 151.3631591796875 265.10992431640625 143.40428161621094 248.08248901367188" stroke-width="5.900362491607666" fill="none" stroke="rgb(149, 51, 91)" stroke-opacity="0.7878854" stroke-linecap="round" stroke-linejoin="round"/>
    <path d="M 259.30859375 315.5125427246094 C 257.7635498046875 321.3617248535156 275.5981140136719 341.0285339355469 289.53314208984375 309.18719482421875 C 316.8105773925781 312.18182373046875 326.4599304199219 286.005859375 337.6698303222656 281.8021545410156 C 339.4991455078125 254.17807006835938 346.02227783203125 251.39366149902344 368.2699279785156 242.1028594970703" stroke-width="7.472367286682129" fill="none" stroke="rgb(217, 213, 59)" stroke-opacity="0.32891342" stroke-linecap="round" stroke-linejoin="round"/>
    <path d="M 70.54788208007812 220.08668518066406 C 103.40299224853516 207.35491943359375 84.19448852539062 199.75241088867188 110.6603012084961 219.5272979736328 C 109.0927734375 252.8656005859375 124.78409576416016 278.52197265625 151.07203674316406 288.1112976074219" stroke-width="5.22802734375" fill="none" stroke="rgb(116, 248, 217)" stroke-opacity="0.5164874" stroke-linecap="round" stroke-linejoin="round"/>
    <path d="M 155.9780731201172 297.5652770996094 C 149.8490447998047 310.734619140625 141.84417724609375 322.4759521484375 150.02589416503906 308.46954345703125 C 133.964599609375 313.8309020996094 134.17330932617188 322.5863952636719 129.52099609375 345.8667297363281" stroke-width="5.22802734375" fill="none" stroke="rgb(77, 124, 129)" stroke-opacity="0.6093635" stroke-linecap="round" stroke-linejoin="round"/>
    <path d="M 133.16551208496094 345.55096435546875 C 122.02088928222656 344.8087463378906 119.60016632080078 329.5089416503906 134.94393920898438 339.0306091308594 C 136.41403198242188 311.9660949707031 165.4455108642578 280.13067626953125 145.01809692382812 292.1627502441406" stroke-width="5.2407732009887695" fill="none" stroke="rgb(86, 216, 234)" stroke-opacity="0.35795823" stroke-linecap="round" stroke-linejoin="round"/>
    <path d="M 181.1331329345703 158.64549255371094 C 159.74937438964844 166.5914764404297 140.32908630371094 153.9972686767578 163.1078643798828 170.46347045898438 C 150.31614685058594 175.04444885253906 174.70945739746094 164.18711853027344 158.32037353515625 160.99778747558594 C 168.8466796875 156.7465057373047 139.23399353027344 167.2369842529297 110.0497055053711 148.57969665527344" stroke-width="5.488380432128906" fill="none" stroke="rgb(95, 234, 184)" stroke-opacity="0.6353093" stroke-linecap="round" stroke-linejoin="round"/>
    <path d="M 145.77569580078125 259.2571105957031 C 140.014892578125 270.6559753417969 152.6632843017578 271.0740051269531 129.8280029296875 264.7225341796875" stroke-width="5.937997817993164" fill="none" stroke="rgb(167, 109, 182)" stroke-opacity="0.8401823" stroke-linecap="round" stroke-linejoin="round"/>
    <path d="M 206.68438720703125 221.59982299804688 C 178.4301300048828 193.66000366210938 154.02330017089844 175.24554443359375 133.85736083984375 179.43836975097656" stroke-width="6.3406171798706055" fill="none" stroke="rgb(157, 139, 181)" stroke-opacity="0.07952373" stroke-linecap="round" stroke-linejoin="round"/>
    <path d="M 129.007568359375 343.99249267578125 C 146.0945587158203 314.91156005859375 167.23532104492188 313.5024108886719 147.2436981201172 312.56024169921875" stroke-width="7.497285842895508" fill="none" stroke="rgb(39, 243, 86)" stroke-opacity="0.4790108" stroke-linecap="round" stroke-linejoin="round"/>
    <path d="M 81.7334213256836 273.095703125 C 90.55380249023438 282.7560119628906 65.25725555419922 277.7171630859375 79.31555938720703 261.1037292480469" stroke-width="5.408700942993164" fill="none" stroke="rgb(147, 149, 179)" stroke-opacity="0.50704056" stroke-linecap="round" stroke-linejoin="round"/>
    <path d="M 177.15756225585938 156.43258666992188 C 160.56600952148438 126.7990951538086 154.26812744140625 152.3849639892578 123.2470932006836 145.79029846191406 C 149.0381317138672 158.35374450683594 134.8525390625 163.256591796875 117.57251739501953 189.62867736816406 C 115.29916381835938 222.72406005859375 111.71432495117188 224.63705444335938 128.72998046875 223.30470275878906" stroke-width="5.719831466674805" fill="none" stroke="rgb(249, 203, 74)" stroke-opacity="0.07680135" stroke-linecap="round" stroke-linejoin="round"/>
    <path d="M 144.97145080566406 274.2386779785156 C 143.65960693359375 259.1689453125 164.5851593017578 275.4147033691406 165.47293090820312 279.88482666015625 C 157.34234619140625 288.347412109375 144.10350036621094 261.26708984375 137.134033203125 245.815673828125 C 145.70712280273438 274.3365783691406 156.30328369140625 267.6523742675781 143.12815856933594 295.19476318359375" stroke-width="5.22802734375" fill="none" stroke="rgb(195, 21, 196)" stroke-opacity="0.442864" stroke-linecap="round" stroke-linejoin="round"/>
    <path d="M 82.27910614013672 274.94293212890625 C 78.29722595214844 281.3968200683594 92.77259826660156 262.458740234375 105.31674194335938 270.7134704589844 C 115.90371704101562 271.9909362792969 125.24063110351562 242.9314422607422 111.77323150634766 219.26930236816406 C 89.83099365234375 211.45614624023438 72.47498321533203 186.63406372070312 74.020751953125 203.22715759277344" stroke-width="6.050384998321533" fill="none" stroke="rgb(0, 249, 80)" stroke-opacity="0.57798576" stroke-linecap="round" stroke-linejoin="round"/>
    <path d="M 236.45350646972656 251.22157287597656 C 231.5939178466797 282.25799560546875 250.75241088867188 252.40399169921875 261.287353515625 232.3728485107422 C 271.189453125 239.7739715576172 273.60546875 212.67344665527344 289.1347351074219 191.94822692871094 C 289.353515625 174.0817413330078 287.676025390625 161.39137268066406 270.2088928222656 175.52554321289062" stroke-width="8.555716514587402" fill="none" stroke="rgb(159, 184, 57)" stroke-opacity="1.0" stroke-linecap="round" stroke-linejoin="round"/>
    <path d="M 160.5025177001953 288.1844177246094 C 167.26614379882812 295.2044677734375 189.89463806152344 316.824951171875 154.72628784179688 319.72900390625 C 137.28778076171875 296.2386474609375 156.72178649902344 307.8728942871094 174.77798461914062 327.4059753417969 C 197.4075927734375 343.6441650390625 177.10244750976562 319.16009521484375 157.11221313476562 343.0968933105469" stroke-width="5.22802734375" fill="none" stroke="rgb(246, 143, 166)" stroke-opacity="0.5163443" stroke-linecap="round" stroke-linejoin="round"/>
    <path d="M 232.76731872558594 254.25228881835938 C 257.3987731933594 272.2398986816406 269.3048095703125 260.7989501953125 269.5072326660156 234.64588928222656 C 296.5466613769531 202.60723876953125 313.5768737792969 195.3918914794922 295.5280456542969 166.9435577392578" stroke-width="5.359363079071045" fill="none" stroke="rgb(68, 244, 223)" stroke-opacity="0.532669" stroke-linecap="round" stroke-linejoin="round"/>
    <path d="M 174.41412353515625 153.97659301757812 C 146.86898803710938 168.38937377929688 168.0325927734375 173.30221557617188 150.49249267578125 178.8983154296875" stroke-width="7.439152717590332" fill="none" stroke="rgb(39, 122, 40)" stroke-opacity="0.65909344" stroke-linecap="round" stroke-linejoin="round"/>
    <path d="M 60.187103271484375 398.86309814453125 C 56.25763702392578 417.2897033691406 47.93118667602539 437.2077941894531 68.18205261230469 423.0943603515625" stroke-width="6.692534446716309" fill="none" stroke="rgb(19, 255, 184)" stroke-opacity="0.54451674" stroke-linecap="round" stroke-linejoin="round"/>
    <path d="M 471.8733825683594 352.03350830078125 C 451.5444030761719 350.49517822265625 475.8308410644531 375.440673828125 483.0094909667969 387.015869140625 C 507.5704650878906 375.4634094238281 480.4964599609375 392.8882141113281 452.2254943847656 392.94403076171875" stroke-width="5.22802734375" fill="none" stroke="rgb(34, 39, 45)" stroke-opacity="0.9266087" stroke-linecap="round" stroke-linejoin="round"/>
    <path d="M 198.56161499023438 166.29428100585938 C 209.4799346923828 179.86181640625 218.91830444335938 171.52047729492188 209.81478881835938 151.25033569335938 C 210.0514373779297 140.99124145507812 220.94927978515625 112.81452178955078 186.8214569091797 150.6450653076172" stroke-width="5.22802734375" fill="none" stroke="rgb(44, 106, 89)" stroke-opacity="0.9025361" stroke-linecap="round" stroke-linejoin="round"/>
    <path d="M 474.36181640625 189.29730224609375 C 480.8182373046875 164.591064453125 470.2675476074219 152.8858184814453 477.5810546875 168.14700317382812" stroke-width="5.22802734375" fill="none" stroke="rgb(71, 136, 252)" stroke-opacity="0.13012627" stroke-linecap="round" stroke-linejoin="round"/>
    <path d="M 426.94818115234375 115.72376251220703 C 397.7590026855469 115.63630676269531 390.3983459472656 120.38359069824219 418.1824035644531 139.92991638183594 C 405.6995849609375 132.18841552734375 405.7215576171875 119.38749694824219 382.6421813964844 97.5976333618164 C 387.1452331542969 96.85037231445312 393.1226806640625 112.71741485595703 371.8086242675781 88.53914642333984" stroke-width="5.22802734375" fill="none" stroke="rgb(131, 15, 123)" stroke-opacity="0.094761245" stroke-linecap="round" stroke-linejoin="round"/>
    <path d="M 495.82611083984375 224.85617065429688 C 516.3323974609375 206.03050231933594 536.708251953125 220.39837646484375 557.2127685546875 225.62744140625 C 546.8385009765625 210.22299194335938 568.5008544921875 189.78225708007812 578.8069458007812 189.35565185546875" stroke-width="5.22802734375" fill="none" stroke="rgb(93, 252, 141)" stroke-opacity="0.5223845" stroke-linecap="round" stroke-linejoin="round"/>
    <path d="M 68.9446029663086 82.82259368896484 C 66.6186294555664 94.78324890136719 41.99048614501953 89.65380859375 21.81875991821289 75.05593872070312" stroke-width="8.259753227233887" fill="none" stroke="rgb(244, 25, 130)" stroke-opacity="0.018751787" stroke-linecap="round" stroke-linejoin="round"/>
    <path d="M 300.8533935546875 54.26407241821289 C 301.65576171875 58.239768981933594 318.7891845703125 72.78663635253906 322.19439697265625 64.2627944946289 C 335.8608093261719 57.23148727416992 341.7511901855469 54.37015914916992 335.2862243652344 53.37626266479492 C 355.5226745605469 70.48820495605469 358.4940185546875 72.8530502319336 370.63385009765625 86.58104705810547" stroke-width="5.22802734375" fill="none" stroke="rgb(73, 55, 245)" stroke-opacity="0.17191608" stroke-linecap="round" stroke-linejoin="round"/>
    <path d="M 337.8699645996094 555.2783813476562 C 366.8908386230469 565.9779663085938 357.6834716796875 531.3258666992188 383.89593505859375 556.0783081054688" stroke-width="7.134260177612305" fill="none" stroke="rgb(25, 14, 1)" stroke-opacity="0.9064906" stroke-linecap="round" stroke-linejoin="round"/>
    <path d="M 201.35946655273438 305.3788757324219 C 227.30958557128906 303.3900146484375 226.84915161132812 325.55963134765625 211.21824645996094 325.1669006347656" stroke-width="5.22802734375" fill="none" stroke="rgb(11, 127, 56)" stroke-opacity="0.1785518" stroke-linecap="round" stroke-linejoin="round"/>
    <path d="M 254.43453979492188 503.7680969238281 C 243.45541381835938 507.02325439453125 259.9211730957031 523.847412109375 247.62982177734375 552.9509887695312 C 264.10321044921875 531.2901611328125 274.5628967285156 506.26617431640625 279.2462158203125 487.7430725097656" stroke-width="7.865880012512207" fill="none" stroke="rgb(228, 233, 136)" stroke-opacity="0.2071932" stroke-linecap="round" stroke-linejoin="round"/>
    <path d="M 380.0415344238281 39.572242736816406 C 400.3517761230469 11.985502243041992 396.01275634765625 5.426785469055176 405.740234375 17.895288467407227 C 407.65185546875 -6.219429969787598 399.22650146484375 11.13155460357666 416.392578125 1.2787116765975952" stroke-width="5.229130744934082" fill="none" stroke="rgb(66, 132, 60)" stroke-opacity="0.2309458" stroke-linecap="round" stroke-linejoin="round"/>
    <path d="M 378.72100830078125 249.26722717285156 C 387.39825439453125 243.97787475585938 379.5956726074219 251.2586669921875 345.8514709472656 274.8949890136719" stroke-width="6.689427852630615" fill="none" stroke="rgb(79, 209, 125)" stroke-opacity="0.50166386" stroke-linecap="round" stroke-linejoin="round"/>
    <path d="M 201.11151123046875 562.6327514648438 C 190.68923950195312 564.0272216796875 178.36875915527344 545.7272338867188 153.6513214111328 551.4885864257812" stroke-width="5.3560614585876465" fill="none" stroke="rgb(157, 126, 100)" stroke-opacity="0.47674012" stroke-linecap="round" stroke-linejoin="round"/>
    <path d="M 366.690185546875 234.40797424316406 C 355.7854309082031 251.67440795898438 353.4479675292969 236.6503143310547 367.28997802734375 229.92034912109375 C 370.3009948730469 237.00143432617188 375.1983642578125 221.78175354003906 386.4060363769531 202.59584045410156" stroke-width="6.634256839752197" fill="none" stroke="rgb(255, 27, 80)" stroke-opacity="0.49694672" stroke-linecap="round" stroke-linejoin="round"/>
    <path d="M 582.419677734375 164.6094207763672 C 598.6098022460938 139.74864196777344 580.228515625 137.831787109375 586.52880859375 115.70121002197266 C 600.851318359375 108.24491119384766 591.7555541992188 96.47350311279297 575.3165893554688 88.4991683959961" stroke-width="5.22802734375" fill="none" stroke="rgb(169, 225, 70)" stroke-opacity="0.22677624" stroke-linecap="round" stroke-linejoin="round"/>
    <path d="M 173.5313262939453 336.088623046875 C 185.83599853515625 318.40655517578125 193.29156494140625 321.9028015136719 192.25672912597656 338.3906555175781" stroke-width="5.22802734375" fill="none" stroke="rgb(24, 126, 64)" stroke-opacity="0.12056348" stroke-linecap="round" stroke-linejoin="round"/>
    <path d="M 27.62091827392578 161.7104034423828 C 8.13783073425293 156.2191619873047 -12.918472290039062 152.73106384277344 -21.793336868286133 183.4208526611328 C -23.517242431640625 157.76089477539062 5.595981597900391 175.48240661621094 15.008936882019043 159.18994140625 C 18.8789005279541 168.3005828857422 33.28300857543945 189.8369903564453 21.402727127075195 174.84893798828125" stroke-width="5.22802734375" fill="none" stroke="rgb(91, 204, 114)" stroke-opacity="0.39528513" stroke-linecap="round" stroke-linejoin="round"/>
    <path d="M 124.54046630859375 350.5240478515625 C 133.9151611328125 378.7422180175781 138.9419708251953 385.6961669921875 128.72483825683594 361.656005859375 C 144.27491760253906 332.6286926269531 138.2637939453125 311.1060791015625 154.12901306152344 294.83245849609375 C 164.68817138671875 270.2939147949219 174.47811889648438 268.15057373046875 181.38607788085938 294.4578552246094" stroke-width="6.109827518463135" fill="none" stroke="rgb(67, 197, 56)" stroke-opacity="0.32693925" stroke-linecap="round" stroke-linejoin="round"/>
    <path d="M 433.8009948730469 10.925477981567383 C 424.7494201660156 37.28314971923828 407.90130615234375 45.440948486328125 378.1129150390625 60.07856369018555 C 375.2677307128906 71.89322662353516 366.4816589355469 56.00700378417969 384.3846740722656 31.124967575073242" stroke-width="6.844764232635498" fill="none" stroke="rgb(255, 205, 171)" stroke-opacity="0.7223282" stroke-linecap="round" stroke-linejoin="round"/>
    <path d="M 571.5767822265625 423.9053039550781 C 594.4738159179688 435.0785827636719 569.013427734375 440.30181884765625 597.3176879882812 421.3691711425781 C 589.5255737304688 413.6141357421875 590.1973876953125 436.1247253417969 564.8252563476562 421.7283630371094" stroke-width="5.67303466796875" fill="none" stroke="rgb(133, 133, 21)" stroke-opacity="0.45865443" stroke-linecap="round" stroke-linejoin="round"/>
    <path d="M 191.1343994140625 104.49202728271484 C 180.65261840820312 128.65599060058594 162.4047088623047 146.97499084472656 183.0985107421875 150.62435913085938 C 185.62750244140625 170.8799591064453 214.0155029296875 195.04393005371094 210.7412567138672 201.92311096191406" stroke-width="5.22802734375" fill="none" stroke="rgb(59, 194, 154)" stroke-opacity="0.19364303" stroke-linecap="round" stroke-linejoin="round"/>
    <path d="M 212.97012329101562 319.8749084472656 C 197.58120727539062 336.8563232421875 208.16673278808594 325.28387451171875 245.74411010742188 312.1181945800781" stroke-width="8.060673713684082" fill="none" stroke="rgb(126, 251, 197)" stroke-opacity="0.5578801" stroke-linecap="round" stroke-linejoin="round"/>
    <path d="M 53.292301177978516 277.2086181640625 C 55.41477584838867 277.619140625 32.076358795166016 302.2730407714844 24.372360229492188 321.6430969238281" stroke-width="5.22802734375" fill="none" stroke="rgb(102, 101, 148)" stroke-opacity="0.85982025" stroke-linecap="round" stroke-linejoin="round"/>
    <path d="M 312.4084777832031 385.60528564453125 C 305.4906005859375 374.696044921875 317.23583984375 387.9588317871094 322.54620361328125 369.4075012207031 C 329.1444091796875 400.6802673339844 366.9989929199219 397.8397521972656 394.14581298828125 376.6347961425781" stroke-width="5.80538272857666" fill="none" stroke="rgb(131, 205, 167)" stroke-opacity="0.78306043" stroke-linecap="round" stroke-linejoin="round"/>
  </g>
</svg>
