<?xml version="1.0" ?>
<svg xmlns="http://www.w3.org/2000/svg" version="1.1" width="956.0" height="956.0">
  <defs/>
  <g>
    <path d="M 33.50954055786133 64.99085998535156 C 34.47733688354492 65.47898864746094 34.9007682800293 65.96704864501953 34.59822463989258 66.30113983154297 C 34.295616149902344 66.63420104980469 32.72260665893555 66.26537322998047 32.42125701904297 67.43282318115234 C 32.66330337524414 68.60083770751953 32.54207992553711 71.30303955078125 32.965362548828125 73.46131896972656 C 33.388702392578125 75.61919403076172 32.9046745300293 86.38467407226562 32.96588134765625 97.15128326416016" stroke-width="1.0892857313156128" fill="none" stroke="rgb(17, 22, 22)" stroke-opacity="0.71" stroke-linecap="round" stroke-linejoin="round"/>
    <path d="M 65.02869415283203 61.928165435791016 C 64.91992950439453 61.77081298828125 65.89973449707031 61.613460540771484 65.53571319580078 62.549190521240234 C 65.71748352050781 64.02912902832031 65.644287109375 66.05728912353516 65.57231140136719 67.5434799194336 C 65.50032806396484 69.57194519042969 65.2636489868164 77.57110595703125 65.02818298339844 85.57054901123047" stroke-width="1.0892857313156128" fill="none" stroke="rgb(22, 17, 17)" stroke-opacity="0.71" stroke-linecap="round" stroke-linejoin="round"/>
    <path d="M 46.01499557495117 71.75404357910156 C 45.96982192993164 72.3421630859375 45.92466735839844 72.39801025390625 45.47038269042969 73.15863800048828 C 45.560672760009766 73.91862487792969 45.78758239746094 75.3888168334961 46.558990478515625 76.8589096069336 C 46.24140930175781 77.78469848632812 46.1279411315918 85.63412475585938 46.01448059082031 94.02688598632812" stroke-width="1.0892857313156128" fill="none" stroke="rgb(27, 17, 22)" stroke-opacity="0.71" stroke-linecap="round" stroke-linejoin="round"/>
    <path d="M 34.05410385131836 67.15984344482422 C 34.13953399658203 67.16229248046875 34.473262786865234 67.16217803955078 34.191463470458984 67.16317749023438 C 34.41838455200195 67.1644058227539 37.95884704589844 65.18435668945312 42.04267501831055 63.74891662597656" stroke-width="1.1458837985992432" fill="none" stroke="rgb(177, 65, 2)" stroke-opacity="0.71" stroke-linecap="round" stroke-linejoin="round"/>
    <path d="M 34.05397415161133 64.9908447265625 C 33.9267578125 66.26811218261719 34.345245361328125 67.54536437988281 34.7624397277832 68.82408905029297 C 35.1796875 70.10143280029297 39.28009796142578 73.11363220214844 43.92625427246094 75.58000946044922" stroke-width="1.0892857313156128" fill="none" stroke="rgb(77, 87, 251)" stroke-opacity="0.69" stroke-linecap="round" stroke-linejoin="round"/>
    <path d="M 65.57404327392578 63.36461639404297 C 69.45809173583984 65.95951843261719 72.32306671142578 70.47964477539062 66.90090942382812 72.56098175048828" stroke-width="1.0892857313156128" fill="none" stroke="rgb(175, 53, 253)" stroke-opacity="0.69" stroke-linecap="round" stroke-linejoin="round"/>
    <path d="M 64.48429870605469 68.0859603881836 C 63.782569885253906 70.00949096679688 63.08106231689453 72.4775161743164 62.9229736328125 75.48898315429688 C 62.22146987915039 77.41241455078125 56.915184020996094 78.06388092041016 52.69812774658203 78.71537780761719" stroke-width="1.0892857313156128" fill="none" stroke="rgb(26, 137, 216)" stroke-opacity="0.69" stroke-linecap="round" stroke-linejoin="round"/>
    <path d="M 45.47037124633789 73.15877532958984 C 43.05527114868164 71.68258666992188 39.836429595947266 75.01438903808594 40.501304626464844 76.81267547607422" stroke-width="1.0892857313156128" fill="none" stroke="rgb(59, 2, 122)" stroke-opacity="0.69000006" stroke-linecap="round" stroke-linejoin="round"/>
    <path d="M 32.9642448425293 72.10298156738281 C 31.919021606445312 76.05240631103516 30.330673217773438 79.45640563964844 28.741016387939453 82.86143493652344 C 27.151348114013672 86.26644134521484 22.95409393310547 82.5271224975586 19.3001651763916 78.7878189086914" stroke-width="1.0892857313156128" fill="none" stroke="rgb(254, 51, 193)" stroke-opacity="0.6900005" stroke-linecap="round" stroke-linejoin="round"/>
    <path d="M 65.57476043701172 61.92695236206055 C 68.08844757080078 67.45843505859375 71.78870391845703 66.92774963378906 72.95870208740234 66.80255889892578" stroke-width="1.0892857313156128" fill="none" stroke="rgb(156, 237, 55)" stroke-opacity="0.7099999" stroke-linecap="round" stroke-linejoin="round"/>
    <path d="M 46.01499938964844 71.75404357910156 C 45.955135345458984 70.61824035644531 45.35081481933594 69.48362731933594 46.545188903808594 70.64680480957031 C 47.73957443237305 71.26655578613281 50.185699462890625 73.64067077636719 53.177616119384766 75.47017669677734 C 55.6248893737793 77.8443603515625 55.361358642578125 78.50077056884766 54.55438232421875 78.6134033203125" stroke-width="1.0892857313156128" fill="none" stroke="rgb(23, 41, 21)" stroke-opacity="0.69" stroke-linecap="round" stroke-linejoin="round"/>
    <path d="M 43.92635726928711 75.57997131347656 C 39.28670120239258 69.11640167236328 34.647037506103516 62.65284729003906 32.12773895263672 63.746482849121094 C 29.60843849182129 64.29546356201172 29.208280563354492 71.85580444335938 28.808120727539062 79.4161605834961 C 27.863340377807617 86.97650146484375 22.093952178955078 78.05950927734375 16.323347091674805 69.14131927490234" stroke-width="1.0892857313156128" fill="none" stroke="rgb(222, 111, 211)" stroke-opacity="0.7099997" stroke-linecap="round" stroke-linejoin="round"/>
    <path d="M 54.01332092285156 79.1594467163086 C 54.733123779296875 83.60269165039062 54.909515380859375 88.58856201171875 55.04130554199219 90.61820220947266 C 55.71887969970703 92.64583587646484 55.26259231567383 92.25908660888672 54.80754089355469 91.87236785888672 C 54.352481842041016 91.48562622070312 49.5708122253418 93.1028823852539 45.33494186401367 95.26466369628906" stroke-width="1.0892857313156128" fill="none" stroke="rgb(11, 213, 158)" stroke-opacity="0.71" stroke-linecap="round" stroke-linejoin="round"/>
    <path d="M 72.4121322631836 66.2579574584961 C 74.928955078125 61.94184112548828 75.28099060058594 63.13887405395508 73.50963592529297 59.64482116699219" stroke-width="1.0892857313156128" fill="none" stroke="rgb(222, 11, 8)" stroke-opacity="0.70999974" stroke-linecap="round" stroke-linejoin="round"/>
    <path d="M 43.92707061767578 76.12530517578125 C 42.98815155029297 78.53772735595703 41.50464630126953 80.40556335449219 39.47650146484375 81.728759765625 C 37.99298858642578 83.59658813476562 34.750244140625 84.56893920898438 32.052066802978516 86.08589172363281" stroke-width="1.0892857313156128" fill="none" stroke="rgb(69, 130, 125)" stroke-opacity="0.69" stroke-linecap="round" stroke-linejoin="round"/>
    <path d="M 44.47168731689453 75.03463745117188 C 45.2194938659668 76.09854888916016 45.96324920654297 77.16838836669922 46.7160530090332 78.22500610351562 C 46.91982650756836 79.83332061767578 40.8929328918457 76.4271469116211 34.86613082885742 73.02091217041016" stroke-width="1.0892857313156128" fill="none" stroke="rgb(150, 97, 142)" stroke-opacity="0.69" stroke-linecap="round" stroke-linejoin="round"/>
    <path d="M 54.55744171142578 79.70404815673828 C 49.5635871887207 79.57476043701172 45.115570068359375 79.4454345703125 41.2104606628418 78.771484375 C 36.76103210449219 78.64466857910156 36.29634094238281 78.2091064453125 35.83042907714844 78.32059478759766" stroke-width="1.1458840370178223" fill="none" stroke="rgb(11, 45, 68)" stroke-opacity="0.71" stroke-linecap="round" stroke-linejoin="round"/>
    <path d="M 41.49977493286133 62.66016387939453 C 41.297245025634766 65.32241821289062 40.550140380859375 66.89728546142578 40.21828079223633 66.83748626708984 C 40.430999755859375 66.77778625488281 39.424072265625 65.08584594726562 38.96167755126953 62.84852981567383 C 38.49936294555664 60.61100769042969 42.448448181152344 68.02009582519531 46.94218063354492 74.88458251953125" stroke-width="1.0892857313156128" fill="none" stroke="rgb(126, 116, 219)" stroke-opacity="0.71" stroke-linecap="round" stroke-linejoin="round"/>
    <path d="M 54.558143615722656 78.0688247680664 C 55.187660217285156 75.48603057861328 55.81596374511719 72.90331268310547 55.22061538696289 73.0270004272461 C 55.16984939575195 72.6073226928711 53.30708694458008 74.34941101074219 50.98842239379883 75.54823303222656 C 49.16941452026367 77.29039764404297 48.48384475708008 76.53399658203125 47.796913146972656 75.77765655517578" stroke-width="1.1458836793899536" fill="none" stroke="rgb(104, 73, 242)" stroke-opacity="0.71" stroke-linecap="round" stroke-linejoin="round"/>
    <path d="M 3.6761181354522705 113.47611236572266 C 3.0168440341949463 114.81890106201172 3.447763442993164 116.1649398803711 2.9094886779785156 116.22354125976562 C 1.8273141384124756 116.28211212158203 0.8647319078445435 115.0535659790039 0.44788265228271484 113.28050994873047 C -0.5135191082954407 112.05200958251953 -1.5193579196929932 113.0980453491211 -2.5770833492279053 114.2032699584961" stroke-width="1.0892857313156128" fill="none" stroke="rgb(194, 242, 210)" stroke-opacity="0.7099997" stroke-linecap="round" stroke-linejoin="round"/>
    <path d="M 42.81076431274414 38.976802825927734 C 41.37729263305664 34.040592193603516 40.487178802490234 28.561182022094727 39.05368423461914 23.62505340576172 C 37.61993408203125 19.23355484008789 34.18415069580078 22.47016143798828 31.292757034301758 25.161027908325195" stroke-width="1.0892857313156128" fill="none" stroke="rgb(64, 41, 94)" stroke-opacity="0.71" stroke-linecap="round" stroke-linejoin="round"/>
    <path d="M 34.38222122192383 14.152961730957031 C 32.782386779785156 13.049317359924316 31.72830581665039 11.40234661102295 32.86899185180664 12.034335136413574 C 34.009700775146484 12.66628646850586 37.34767150878906 15.578389167785645 40.685726165771484 17.945960998535156 C 44.02348709106445 20.858110427856445 36.84873962402344 19.590627670288086 29.67503547668457 18.867549896240234" stroke-width="1.1458820104599" fill="none" stroke="rgb(82, 243, 112)" stroke-opacity="0.69" stroke-linecap="round" stroke-linejoin="round"/>
    <path d="M 42.334964752197266 104.626953125 C 46.7745475769043 105.34237670898438 41.11619186401367 103.74052429199219 41.912132263183594 103.91324615478516" stroke-width="1.0892857313156128" fill="none" stroke="rgb(38, 81, 37)" stroke-opacity="0.69" stroke-linecap="round" stroke-linejoin="round"/>
    <path d="M 22.993093490600586 24.80610466003418 C 23.74386215209961 26.06650161743164 23.40552520751953 27.870624542236328 23.612306594848633 28.587108612060547 C 24.362396240234375 29.847126007080078 24.960205078125 30.593734741210938 25.0122127532959 31.340341567993164" stroke-width="1.0892857313156128" fill="none" stroke="rgb(120, 173, 99)" stroke-opacity="0.7099988" stroke-linecap="round" stroke-linejoin="round"/>
    <path d="M 5.829417705535889 89.4494400024414 C 7.662569046020508 84.12168884277344 5.237369537353516 80.17587280273438 4.312960624694824 74.25016784667969" stroke-width="1.0892857313156128" fill="none" stroke="rgb(88, 114, 46)" stroke-opacity="0.69" stroke-linecap="round" stroke-linejoin="round"/>
    <path d="M 48.58310317993164 69.39507293701172 C 48.96245574951172 67.81369018554688 48.79853820800781 65.68948364257812 49.17794418334961 64.10833740234375 C 49.557369232177734 63.071800231933594 47.37724685668945 62.51915740966797 45.195858001708984 61.96528625488281" stroke-width="1.0892857313156128" fill="none" stroke="rgb(166, 186, 44)" stroke-opacity="0.71" stroke-linecap="round" stroke-linejoin="round"/>
    <path d="M 61.5987663269043 22.91063690185547 C 66.75130462646484 26.278547286987305 64.20225524902344 21.941944122314453 67.52115631103516 25.886934280395508" stroke-width="1.0892857313156128" fill="none" stroke="rgb(137, 71, 96)" stroke-opacity="0.69" stroke-linecap="round" stroke-linejoin="round"/>
    <path d="M 28.21994400024414 69.98799133300781 C 28.890640258789062 68.82241821289062 30.10692596435547 68.20018768310547 31.322614669799805 67.5792236328125 C 32.53722381591797 67.5028305053711 37.26832580566406 68.45201873779297 41.99947738647461 69.40239715576172" stroke-width="1.0892857313156128" fill="none" stroke="rgb(153, 151, 68)" stroke-opacity="0.70999974" stroke-linecap="round" stroke-linejoin="round"/>
    <path d="M 69.98159790039062 126.14102172851562 C 70.98612976074219 124.3862533569336 71.8465576171875 122.799072265625 70.51580810546875 122.26497650146484 C 69.72887420654297 121.18772888183594 67.3036117553711 120.60201263427734 64.8769302368164 120.01653289794922 C 62.995914459228516 118.88632202148438 63.132774353027344 119.34627532958984 62.72482681274414 119.80618286132812" stroke-width="1.0892857313156128" fill="none" stroke="rgb(199, 78, 252)" stroke-opacity="0.69000006" stroke-linecap="round" stroke-linejoin="round"/>
    <path d="M 96.52015686035156 89.05120086669922 C 98.29151153564453 87.15046691894531 100.06304168701172 85.24860382080078 102.3790054321289 83.89231872558594 C 103.60652923583984 81.99093627929688 105.52046966552734 80.6580810546875 106.88932800292969 78.78005981445312" stroke-width="1.0892857313156128" fill="none" stroke="rgb(184, 205, 132)" stroke-opacity="0.6900001" stroke-linecap="round" stroke-linejoin="round"/>
    <path d="M 29.263891220092773 31.547016143798828 C 35.20209503173828 31.56724739074707 40.5957145690918 32.133338928222656 42.63557434082031 34.450111389160156 C 44.6754264831543 37.312713623046875 43.36149597167969 41.38141632080078 42.04754638671875 45.45134735107422 C 40.18899154663086 49.521278381347656 33.95478820800781 43.45665740966797 27.71938133239746 37.39202880859375" stroke-width="1.0892857313156128" fill="none" stroke="rgb(146, 5, 85)" stroke-opacity="0.7099998" stroke-linecap="round" stroke-linejoin="round"/>
    <path d="M 86.74347686767578 28.251779556274414 C 83.18839263916016 32.53763961791992 84.05208587646484 36.164669036865234 80.27737426757812 31.85076904296875" stroke-width="1.0892857313156128" fill="none" stroke="rgb(108, 63, 212)" stroke-opacity="0.6900004" stroke-linecap="round" stroke-linejoin="round"/>
    <path d="M 19.584917068481445 8.564641952514648 C 16.968801498413086 12.851411819458008 15.441768646240234 18.22820472717285 13.370237350463867 23.05947494506836 C 10.754165649414062 27.89006805419922 16.144012451171875 21.59253692626953 21.53396987915039 15.83901309967041" stroke-width="1.1458837985992432" fill="none" stroke="rgb(26, 20, 210)" stroke-opacity="0.6900001" stroke-linecap="round" stroke-linejoin="round"/>
    <path d="M 90.20950317382812 113.2535629272461 C 91.8856201171875 114.18079376220703 91.7234878540039 116.01567840576172 93.93782043457031 118.3519515991211" stroke-width="1.0892857313156128" fill="none" stroke="rgb(192, 219, 225)" stroke-opacity="0.7099999" stroke-linecap="round" stroke-linejoin="round"/>
    <path d="M 0.001084710587747395 56.85957717895508 C 1.635766863822937 58.74813461303711 3.270564079284668 60.63669204711914 4.905360221862793 62.5264778137207 C 6.5401692390441895 64.41503143310547 0.935547947883606 64.01609802246094 -4.668176174163818 63.61715316772461" stroke-width="1.0892857313156128" fill="none" stroke="rgb(242, 8, 60)" stroke-opacity="0.71" stroke-linecap="round" stroke-linejoin="round"/>
    <path d="M 33.508724212646484 72.37751007080078 C 34.7490119934082 71.46490478515625 36.532649993896484 70.5535659790039 38.8620491027832 69.64176940917969 C 40.10238265991211 68.72846221923828 43.65500259399414 66.08714294433594 47.207645416259766 63.44584274291992" stroke-width="1.1613924503326416" fill="none" stroke="rgb(208, 141, 136)" stroke-opacity="0.71" stroke-linecap="round" stroke-linejoin="round"/>
    <path d="M 42.048770904541016 44.363826751708984 C 39.75761795043945 40.30733871459961 37.465187072753906 36.25091552734375 35.1739387512207 32.73888397216797 C 32.33834457397461 28.682415008544922 30.402158737182617 30.653501510620117 28.467226028442383 33.169105529785156" stroke-width="1.0892857313156128" fill="none" stroke="rgb(93, 153, 37)" stroke-opacity="0.69000006" stroke-linecap="round" stroke-linejoin="round"/>
    <path d="M 21.53518295288086 15.840731620788574 C 18.779207229614258 10.379518508911133 19.31478500366211 5.776456356048584 23.736066818237305 7.382469654083252" stroke-width="1.0892857313156128" fill="none" stroke="rgb(193, 75, 24)" stroke-opacity="0.69000006" stroke-linecap="round" stroke-linejoin="round"/>
    <path d="M 97.0634536743164 87.96053314208984 C 93.58043670654297 86.16742706298828 92.1890640258789 88.93536376953125 92.07730865478516 91.15254211425781" stroke-width="1.0892857313156128" fill="none" stroke="rgb(155, 248, 119)" stroke-opacity="0.69000006" stroke-linecap="round" stroke-linejoin="round"/>
    <path d="M 27.72066879272461 37.392784118652344 C 25.465261459350586 35.643272399902344 22.66537857055664 33.8937873840332 19.294048309326172 35.393165588378906 C 17.01190757751465 36.89291000366211 14.15956974029541 42.18418502807617 10.761505126953125 46.386722564697266 C 8.452390670776367 51.678165435791016 11.544618606567383 44.59442901611328 15.72480583190918 38.05425262451172" stroke-width="1.0892857313156128" fill="none" stroke="rgb(208, 246, 31)" stroke-opacity="0.71" stroke-linecap="round" stroke-linejoin="round"/>
    <path d="M 66.90087890625 72.56220245361328 C 68.7126235961914 74.66423034667969 70.5242919921875 76.76631164550781 71.0000991821289 76.4515151977539 C 72.02050018310547 75.59221649169922 71.15919494628906 72.86061096191406 70.2978744506836 70.1290283203125 C 68.8919448852539 67.9420166015625 71.48808288574219 71.06159973144531 74.08423614501953 74.17991638183594" stroke-width="1.0892857313156128" fill="none" stroke="rgb(78, 113, 201)" stroke-opacity="0.7099997" stroke-linecap="round" stroke-linejoin="round"/>
    <path d="M 32.420021057128906 97.15252685546875 C 34.57453918457031 100.11590576171875 36.729061126708984 103.07928466796875 38.883583068847656 106.04386901855469 C 41.582725524902344 108.46263122558594 38.24356460571289 107.39512634277344 34.36104965209961 106.3276138305664" stroke-width="1.0892857313156128" fill="none" stroke="rgb(220, 245, 102)" stroke-opacity="0.69" stroke-linecap="round" stroke-linejoin="round"/>
    <path d="M 43.92707824707031 75.5792465209961 C 46.3951301574707 78.99646759033203 48.86318588256836 82.4136962890625 49.393882751464844 82.81021118164062 C 49.924591064453125 83.20668029785156 49.06248474121094 80.03667449951172 47.655860900878906 77.41124725341797 C 45.70479965209961 74.78642272949219 46.001075744628906 78.48267364501953 46.298744201660156 81.09088134765625" stroke-width="1.0892857313156128" fill="none" stroke="rgb(175, 207, 183)" stroke-opacity="0.69000036" stroke-linecap="round" stroke-linejoin="round"/>
    <path d="M 91.5339126586914 90.6083984375 C 91.20693969726562 92.31713104248047 90.8799819946289 94.57170104980469 89.57510375976562 96.11673736572266 C 87.18096923828125 97.11835479736328 83.81012725830078 96.8670425415039 80.43801879882812 96.61570739746094 C 77.06593322753906 95.81976318359375 75.76541900634766 99.43585205078125 74.46369171142578 103.0507583618164" stroke-width="1.0892857313156128" fill="none" stroke="rgb(87, 26, 153)" stroke-opacity="0.69" stroke-linecap="round" stroke-linejoin="round"/>
    <path d="M 24.280550003051758 7.383687973022461 C 25.84912109375 8.086411476135254 27.418045043945312 8.790350914001465 29.53067398071289 8.948447227478027 C 30.556198120117188 9.651165008544922 32.92798614501953 8.883816719055176 34.754390716552734 8.661040306091309" stroke-width="1.0892857313156128" fill="none" stroke="rgb(154, 185, 47)" stroke-opacity="0.6900001" stroke-linecap="round" stroke-linejoin="round"/>
    <path d="M 28.46773910522461 33.168392181396484 C 26.16193962097168 36.70395278930664 23.85612678527832 40.239498138427734 21.90851593017578 42.849857330322266 C 20.504295349121094 46.00353240966797 20.00310516357422 48.77690505981445 20.046070098876953 52.094242095947266 C 19.000041961669922 54.8672981262207 16.0903263092041 48.71363067626953 13.179402351379395 42.55995559692383" stroke-width="1.0892857313156128" fill="none" stroke="rgb(232, 16, 112)" stroke-opacity="0.69" stroke-linecap="round" stroke-linejoin="round"/>
    <path d="M 90.98786163330078 90.6079330444336 C 85.63692474365234 89.94719696044922 89.55313110351562 87.9683609008789 94.03369903564453 85.87676239013672" stroke-width="1.0892857313156128" fill="none" stroke="rgb(175, 23, 54)" stroke-opacity="0.69" stroke-linecap="round" stroke-linejoin="round"/>
    <path d="M 35.996360778808594 106.87226104736328 C 35.25334548950195 111.75469970703125 33.73793411254883 111.19593811035156 28.985719680786133 107.14066314697266" stroke-width="1.0892857313156128" fill="none" stroke="rgb(115, 160, 50)" stroke-opacity="0.7099999" stroke-linecap="round" stroke-linejoin="round"/>
    <path d="M 24.280200958251953 6.839102268218994 C 28.874902725219727 3.6492412090301514 33.960113525390625 5.975337028503418 35.715702056884766 6.907797813415527" stroke-width="1.0892857313156128" fill="none" stroke="rgb(32, 182, 114)" stroke-opacity="0.69000006" stroke-linecap="round" stroke-linejoin="round"/>
    <path d="M 28.467710494995117 32.623783111572266 C 26.956872940063477 32.08746337890625 25.991846084594727 31.006547927856445 24.63033103942871 28.07488441467285 C 23.81424331665039 24.598594665527344 22.05904769897461 19.81385612487793 20.303491592407227 15.028965950012207 C 18.54790496826172 10.244247436523438 19.9069766998291 12.66588306427002 21.26605224609375 15.630861282348633" stroke-width="1.0892857313156128" fill="none" stroke="rgb(241, 93, 97)" stroke-opacity="0.69" stroke-linecap="round" stroke-linejoin="round"/>
    <path d="M 24.82456398010254 7.3836140632629395 C 26.212976455688477 6.623563766479492 27.60272979736328 5.863566875457764 28.97768211364746 5.365813255310059 C 30.35236167907715 4.867998123168945 31.713932037353516 4.63255500793457 33.07676696777344 4.397115230560303 C 33.89397048950195 3.6170806884765625 36.87061309814453 3.020465135574341 40.39060974121094 2.9685099124908447" stroke-width="1.0892857313156128" fill="none" stroke="rgb(131, 23, 62)" stroke-opacity="0.69" stroke-linecap="round" stroke-linejoin="round"/>
    <path d="M 28.940631866455078 57.113285064697266 C 22.938213348388672 55.61271667480469 21.55876350402832 53.8411750793457 15.784616470336914 48.19584274291992" stroke-width="1.1613926887512207" fill="none" stroke="rgb(0, 241, 82)" stroke-opacity="0.71" stroke-linecap="round" stroke-linejoin="round"/>
    <path d="M 2.3463194370269775 100.26472473144531 C 3.1283345222473145 99.42903900146484 3.911566972732544 98.59332275390625 4.148964881896973 97.21178436279297 C 4.931341171264648 96.3764419555664 9.549921035766602 91.86210632324219 14.713440895080566 87.89266204833984" stroke-width="1.0892857313156128" fill="none" stroke="rgb(155, 48, 216)" stroke-opacity="0.71" stroke-linecap="round" stroke-linejoin="round"/>
    <path d="M 52.732322692871094 90.16558074951172 C 52.43656921386719 86.6905746459961 52.68544006347656 83.76008605957031 52.935543060302734 80.82962799072266 C 53.72905731201172 77.89918518066406 52.44073486328125 77.70398712158203 51.15119934082031 77.507568359375" stroke-width="1.0892857313156128" fill="none" stroke="rgb(211, 54, 151)" stroke-opacity="0.71" stroke-linecap="round" stroke-linejoin="round"/>
    <path d="M 94.14227294921875 10.70280647277832 C 91.97229766845703 13.339696884155273 89.8775405883789 8.187607765197754 93.66331481933594 12.146588325500488" stroke-width="1.0892857313156128" fill="none" stroke="rgb(214, 226, 9)" stroke-opacity="0.69" stroke-linecap="round" stroke-linejoin="round"/>
    <path d="M 34.42326354980469 118.50810241699219 C 30.696170806884766 123.95541381835938 29.56451416015625 122.32965850830078 34.612876892089844 117.55824279785156" stroke-width="1.0892857313156128" fill="none" stroke="rgb(209, 166, 42)" stroke-opacity="0.69" stroke-linecap="round" stroke-linejoin="round"/>
    <path d="M 76.29366302490234 53.2093391418457 C 82.89540100097656 48.64362335205078 81.90691375732422 51.2556037902832 80.14205932617188 50.42356491088867" stroke-width="1.0892857313156128" fill="none" stroke="rgb(124, 140, 86)" stroke-opacity="0.69000006" stroke-linecap="round" stroke-linejoin="round"/>
    <path d="M 38.86659622192383 42.24272155761719 C 42.78578186035156 42.417198181152344 46.70528793334961 42.591617584228516 51.165802001953125 42.22272491455078 C 55.08443069458008 42.397193908691406 54.58179473876953 43.5013542175293 53.53458786010742 44.60539245605469" stroke-width="1.0892857313156128" fill="none" stroke="rgb(142, 185, 128)" stroke-opacity="0.69" stroke-linecap="round" stroke-linejoin="round"/>
    <path d="M 62.55036544799805 75.418212890625 C 63.34458923339844 70.66094207763672 64.13758850097656 66.44949340820312 64.0058822631836 64.795166015625 C 64.41868591308594 63.14085388183594 63.36205291748047 64.04488372802734 61.76103210449219 64.94769287109375 C 61.24912643432617 65.85179138183594 60.4109992980957 71.31412506103516 59.57407760620117 76.23194885253906" stroke-width="1.0892857313156128" fill="none" stroke="rgb(171, 209, 118)" stroke-opacity="0.71" stroke-linecap="round" stroke-linejoin="round"/>
    <path d="M 29.044797897338867 80.45508575439453 C 27.564926147460938 77.87725830078125 25.541667938232422 75.84521484375 23.970314025878906 74.76134490966797 C 22.94468879699707 74.22210693359375 21.28314208984375 76.2660903930664 19.076894760131836 77.22087860107422 C 17.415298461914062 78.72028350830078 18.569442749023438 79.3257064819336 18.634052276611328 79.38809967041016" stroke-width="1.0892857313156128" fill="none" stroke="rgb(43, 241, 37)" stroke-opacity="0.69" stroke-linecap="round" stroke-linejoin="round"/>
    <path d="M 73.70240020751953 107.05036926269531 C 74.3750991821289 105.7850112915039 74.50321197509766 104.51881408691406 74.6325454711914 103.25373077392578 C 74.21609497070312 101.98748016357422 74.05130767822266 103.7962417602539 73.88660430908203 106.14830780029297" stroke-width="1.0892857313156128" fill="none" stroke="rgb(30, 96, 85)" stroke-opacity="0.69" stroke-linecap="round" stroke-linejoin="round"/>
    <path d="M 77.87407684326172 110.07474517822266 C 76.77607727050781 111.73029327392578 75.67683410644531 113.38459014892578 75.65362548828125 114.63140106201172 C 75.08590698242188 115.87825775146484 76.13875579833984 116.71763610839844 77.19290161132812 117.55702209472656 C 78.24573516845703 118.39636993408203 71.64474487304688 116.40727233886719 64.49798583984375 114.9640121459961" stroke-width="1.0892857313156128" fill="none" stroke="rgb(146, 177, 179)" stroke-opacity="0.71" stroke-linecap="round" stroke-linejoin="round"/>
    <path d="M 47.52029037475586 126.23985290527344 C 48.63508605957031 123.76883697509766 49.748924255371094 121.29707336425781 50.08454895019531 121.67450714111328 C 50.420284271240234 121.5071792602539 49.98125457763672 123.63935089111328 50.02995681762695 125.72248840332031 C 49.361202239990234 127.64250946044922 48.56942367553711 127.75108337402344 47.77764129638672 127.85844421386719" stroke-width="1.161341667175293" fill="none" stroke="rgb(167, 58, 38)" stroke-opacity="0.69000006" stroke-linecap="round" stroke-linejoin="round"/>
    <path d="M 63.62325668334961 111.75956726074219 C 63.68497848510742 109.09459686279297 64.29252624511719 106.97423553466797 65.97856140136719 107.64574432373047 C 67.66460418701172 107.77261352539062 70.43035888671875 110.14795684814453 73.7394790649414 111.9774398803711 C 75.96135711669922 114.35159301757812 73.57062530517578 112.4720458984375 71.1818618774414 110.04791259765625" stroke-width="1.0892857313156128" fill="none" stroke="rgb(221, 106, 248)" stroke-opacity="0.69" stroke-linecap="round" stroke-linejoin="round"/>
    <path d="M 41.40437316894531 36.886451721191406 C 40.528167724609375 35.33102035522461 39.43994140625 40.83940505981445 43.9541015625 43.967350006103516" stroke-width="1.0892857313156128" fill="none" stroke="rgb(24, 198, 55)" stroke-opacity="0.69" stroke-linecap="round" stroke-linejoin="round"/>
    <path d="M 82.93656158447266 40.2748908996582 C 77.42017364501953 42.09878921508789 81.0582046508789 40.07221984863281 81.45465087890625 40.34762191772461" stroke-width="1.0892857313156128" fill="none" stroke="rgb(15, 111, 160)" stroke-opacity="0.7099999" stroke-linecap="round" stroke-linejoin="round"/>
    <path d="M 60.44831085205078 43.51837921142578 C 64.54389190673828 37.64665985107422 65.19688415527344 41.040992736816406 59.13439178466797 45.50380325317383" stroke-width="1.0892857313156128" fill="none" stroke="rgb(156, 13, 58)" stroke-opacity="0.7099999" stroke-linecap="round" stroke-linejoin="round"/>
    <path d="M 0.44677573442459106 113.2804183959961 C -2.531799554824829 112.30101013183594 0.3575911223888397 108.04606628417969 -1.8639328479766846 112.72618865966797" stroke-width="1.0892857313156128" fill="none" stroke="rgb(129, 23, 20)" stroke-opacity="0.70999986" stroke-linecap="round" stroke-linejoin="round"/>
    <path d="M 28.265216827392578 37.39274215698242 C 25.804473876953125 31.840539932250977 22.79931640625 26.834022521972656 21.211891174316406 25.62635612487793 C 20.16925621032715 24.418533325195312 19.45680809020996 27.55514144897461 18.744327545166016 30.69301986694336 C 17.48723602294922 33.82963943481445 14.505986213684082 30.441696166992188 10.980253219604492 26.509136199951172" stroke-width="1.0892857313156128" fill="none" stroke="rgb(216, 190, 211)" stroke-opacity="0.7099999" stroke-linecap="round" stroke-linejoin="round"/>
    <path d="M 43.95390701293945 43.96782684326172 C 45.96345138549805 47.34343338012695 48.51476287841797 50.17475128173828 47.89499282836914 50.75541687011719 C 46.73063659667969 51.8807487487793 43.483001708984375 49.667667388916016 40.236663818359375 47.45329284667969 C 36.98908996582031 45.23904037475586 43.62841796875 45.678218841552734 49.725006103515625 46.11744689941406" stroke-width="1.0892857313156128" fill="none" stroke="rgb(170, 172, 111)" stroke-opacity="0.69" stroke-linecap="round" stroke-linejoin="round"/>
    <path d="M 74.24700927734375 107.05032348632812 C 70.39655303955078 107.99903106689453 64.78184509277344 104.93348693847656 70.39303588867188 102.21794891357422" stroke-width="1.0892857313156128" fill="none" stroke="rgb(190, 229, 134)" stroke-opacity="0.69" stroke-linecap="round" stroke-linejoin="round"/>
    <path d="M 53.47966384887695 81.3742446899414 C 54.1872673034668 85.13185119628906 54.89486312866211 88.88945770263672 57.055484771728516 90.78778076171875 C 59.21611785888672 92.68608856201172 62.82980728149414 92.72635650634766 66.44466400146484 92.76660919189453 C 70.05831146240234 92.2623519897461 67.75122833251953 90.0569839477539 65.44419860839844 87.30834197998047" stroke-width="1.1787585020065308" fill="none" stroke="rgb(245, 253, 83)" stroke-opacity="0.69" stroke-linecap="round" stroke-linejoin="round"/>
    <path d="M -4.396880149841309 62.799503326416016 C -3.2769200801849365 65.74214172363281 -2.1569600105285645 68.68478393554688 -1.3101379871368408 71.8995590209961 C -0.1905563920736313 74.8416748046875 0.24253347516059875 70.17914581298828 1.2202579975128174 66.60492706298828" stroke-width="1.0892857313156128" fill="none" stroke="rgb(23, 38, 152)" stroke-opacity="0.69" stroke-linecap="round" stroke-linejoin="round"/>
    <path d="M 43.92713165283203 76.12530517578125 C 44.181297302246094 76.50765991210938 43.89096450805664 76.34541320800781 41.96939468383789 77.3092041015625 C 39.50336456298828 77.72838592529297 36.4949951171875 80.36383819580078 32.3993034362793 81.91056060791016 C 29.391252517700195 84.00348663330078 30.109851837158203 83.40554809570312 30.827211380004883 81.72145080566406" stroke-width="1.0892857313156128" fill="none" stroke="rgb(9, 35, 139)" stroke-opacity="0.69" stroke-linecap="round" stroke-linejoin="round"/>
    <path d="M 43.9258918762207 75.57925415039062 C 42.486148834228516 74.86572265625 41.057682037353516 74.69429779052734 39.079002380371094 74.52471160888672 C 37.6441535949707 74.35516357421875 39.95737075805664 73.19261932373047 42.81371307373047 72.0309829711914" stroke-width="1.178757905960083" fill="none" stroke="rgb(152, 130, 46)" stroke-opacity="0.69000006" stroke-linecap="round" stroke-linejoin="round"/>
    <path d="M -1.3773800134658813 113.36727905273438 C -6.882019996643066 116.77474212646484 -7.282179832458496 111.18470001220703 -1.3969000577926636 105.2225570678711" stroke-width="1.0892857313156128" fill="none" stroke="rgb(239, 123, 207)" stroke-opacity="0.7" stroke-linecap="round" stroke-linejoin="round"/>
    <path d="M 42.270809173583984 72.57561492919922 C 38.35047912597656 73.58940124511719 43.20503234863281 75.24327087402344 46.5915641784668 75.73002624511719" stroke-width="1.0892857313156128" fill="none" stroke="rgb(163, 88, 142)" stroke-opacity="0.7099998" stroke-linecap="round" stroke-linejoin="round"/>
    <path d="M 49.724647521972656 46.11720275878906 C 46.70135498046875 51.18132781982422 50.729793548583984 49.9848518371582 47.92308044433594 54.80875778198242" stroke-width="1.1787573099136353" fill="none" stroke="rgb(233, 132, 133)" stroke-opacity="0.69000185" stroke-linecap="round" stroke-linejoin="round"/>
    <path d="M 49.725006103515625 46.11735916137695 C 49.39145278930664 43.117061614990234 49.60373306274414 40.66117477416992 49.84894943237305 41.53474426269531 C 50.09424591064453 42.95249557495117 50.91939926147461 46.61113739013672 51.20000076293945 51.35859298706055 C 50.93596649169922 55.56149673461914 55.62076950073242 50.385780334472656 60.85020065307617 46.29924011230469" stroke-width="1.0892857313156128" fill="none" stroke="rgb(139, 113, 35)" stroke-opacity="0.6900002" stroke-linecap="round" stroke-linejoin="round"/>
    <path d="M 42.81493377685547 72.0309829711914 C 37.99311065673828 73.3693618774414 34.25881576538086 75.2518310546875 29.439573287963867 76.04486846923828 C 25.162256240844727 77.92774963378906 33.17035675048828 78.80004119873047 41.72365951538086 79.12895202636719" stroke-width="1.1787580251693726" fill="none" stroke="rgb(68, 136, 132)" stroke-opacity="0.71" stroke-linecap="round" stroke-linejoin="round"/>
    <path d="M 30.282583236694336 81.72145080566406 C 31.186601638793945 79.44004821777344 32.08940887451172 77.15744018554688 33.59126281738281 75.95820617675781 C 35.094120025634766 75.30350494384766 37.7371826171875 75.1876220703125 39.83803939819336 75.07294464111328 C 41.93669128417969 74.9570083618164 43.547752380371094 74.13060760498047 46.246795654296875 73.8475570678711" stroke-width="1.1787585020065308" fill="none" stroke="rgb(222, 143, 93)" stroke-opacity="0.7099999" stroke-linecap="round" stroke-linejoin="round"/>
    <path d="M 1.2202551364898682 65.51618957519531 C 5.065692901611328 70.81999969482422 -0.2547459304332733 72.837890625 -0.8737500309944153 68.49224090576172" stroke-width="1.0892857313156128" fill="none" stroke="rgb(222, 106, 173)" stroke-opacity="0.6900001" stroke-linecap="round" stroke-linejoin="round"/>
    <path d="M -1.3773800134658813 112.82194519042969 C -2.748660087585449 111.05782318115234 -4.12116003036499 109.294921875 -5.220234394073486 107.2585678100586 C -6.591423511505127 105.49436950683594 0.6480603814125061 111.31987762451172 7.342925548553467 117.14537048339844" stroke-width="1.0892857313156128" fill="none" stroke="rgb(118, 46, 38)" stroke-opacity="0.69" stroke-linecap="round" stroke-linejoin="round"/>
    <path d="M 72.29985809326172 123.77532196044922 C 73.59675598144531 122.2259521484375 74.89362335205078 120.67534637451172 75.6458969116211 118.58131408691406 C 76.94271087646484 117.03190612792969 79.6303939819336 118.68182373046875 82.86388397216797 119.24375915527344" stroke-width="1.1787515878677368" fill="none" stroke="rgb(57, 50, 220)" stroke-opacity="0.69000006" stroke-linecap="round" stroke-linejoin="round"/>
    <path d="M 94.49657440185547 10.574891090393066 C 95.51649475097656 9.482078552246094 95.99182891845703 7.300220966339111 97.91815948486328 7.48077917098999 C 99.84577178955078 8.207192420959473 102.67982482910156 10.20677375793457 105.51392364501953 11.66193962097168 C 108.34794616699219 14.20592975616455 109.9510269165039 17.53529930114746 111.5528793334961 20.863475799560547" stroke-width="1.0892857313156128" fill="none" stroke="rgb(230, 28, 118)" stroke-opacity="0.69" stroke-linecap="round" stroke-linejoin="round"/>
    <path d="M 80.71790313720703 113.10106658935547 C 83.68810272216797 117.34593963623047 88.9539566040039 121.39704132080078 93.66449737548828 121.84970092773438" stroke-width="1.1787583827972412" fill="none" stroke="rgb(98, 51, 80)" stroke-opacity="0.71" stroke-linecap="round" stroke-linejoin="round"/>
    <path d="M 11.525599479675293 97.22032165527344 C 7.365370750427246 95.74413299560547 2.660975456237793 94.81119537353516 -0.9541122913360596 92.7906265258789 C -5.114186763763428 91.31441497802734 -0.8940262198448181 93.614013671875 3.325974464416504 96.4594497680664" stroke-width="1.1787585020065308" fill="none" stroke="rgb(166, 4, 152)" stroke-opacity="0.71" stroke-linecap="round" stroke-linejoin="round"/>
    <path d="M 36.75102233886719 78.50481414794922 C 38.97510528564453 79.00135803222656 41.197933197021484 79.49913024902344 43.42198944091797 79.99566650390625 C 45.64604568481445 80.49219512939453 47.91452407836914 83.2490005493164 49.093753814697266 86.55020904541016" stroke-width="1.0892857313156128" fill="none" stroke="rgb(80, 34, 13)" stroke-opacity="0.69" stroke-linecap="round" stroke-linejoin="round"/>
    <path d="M 96.3565673828125 79.74876403808594 C 99.09912872314453 83.9191665649414 96.04669952392578 82.72722625732422 99.6290054321289 84.47427368164062" stroke-width="1.1787577867507935" fill="none" stroke="rgb(246, 29, 174)" stroke-opacity="0.71" stroke-linecap="round" stroke-linejoin="round"/>
    <path d="M 46.454200744628906 52.42314529418945 C 43.693321228027344 50.14297866821289 45.329307556152344 49.526981353759766 45.28980255126953 55.56220626831055" stroke-width="1.178755760192871" fill="none" stroke="rgb(17, 151, 130)" stroke-opacity="0.71" stroke-linecap="round" stroke-linejoin="round"/>
    <path d="M 55.4755973815918 17.563377380371094 C 52.7331657409668 17.179786682128906 50.533870697021484 17.88544464111328 49.28702926635742 18.90903663635254 C 47.49559020996094 19.388038635253906 47.74325942993164 21.276275634765625 47.992103576660156 23.707284927368164 C 48.240997314453125 25.594600677490234 50.288204193115234 26.229015350341797 52.33655548095703 26.863435745239258" stroke-width="1.0892857313156128" fill="none" stroke="rgb(239, 239, 54)" stroke-opacity="0.70999986" stroke-linecap="round" stroke-linejoin="round"/>
    <path d="M 36.87060546875 16.577116012573242 C 38.417545318603516 20.808565139770508 39.96328353881836 24.49540901184082 41.510250091552734 28.18221664428711 C 43.05723190307617 31.869062423706055 40.668880462646484 32.38393020629883 37.73588180541992 32.89876937866211" stroke-width="1.1787575483322144" fill="none" stroke="rgb(206, 118, 97)" stroke-opacity="0.7099997" stroke-linecap="round" stroke-linejoin="round"/>
    <path d="M 83.78572082519531 37.02965545654297 C 84.26885223388672 37.44569396972656 84.7507553100586 37.861698150634766 85.23388671875 38.27893829345703 C 85.71720123291016 38.69484329223633 82.33805084228516 35.298011779785156 78.41575622558594 32.44442367553711" stroke-width="1.0892857313156128" fill="none" stroke="rgb(246, 215, 208)" stroke-opacity="0.6900002" stroke-linecap="round" stroke-linejoin="round"/>
    <path d="M 110.22228240966797 64.21739959716797 C 110.77381134033203 62.59197235107422 111.32521057128906 61.51215362548828 113.86282348632812 62.82365417480469 C 115.85595703125 64.68090057373047 120.37842559814453 68.38487243652344 124.90216064453125 72.09002685546875 C 129.6969757080078 75.52288055419922 127.14962005615234 77.7811050415039 124.60104370117188 80.03932189941406" stroke-width="1.0892857313156128" fill="none" stroke="rgb(28, 128, 68)" stroke-opacity="0.69" stroke-linecap="round" stroke-linejoin="round"/>
    <path d="M 20.552371978759766 5.381675720214844 C 21.068422317504883 8.395978927612305 21.5856990814209 11.409653663635254 19.79840087890625 10.545459747314453 C 18.01107406616211 10.225810050964355 13.917999267578125 6.570676803588867 9.281586647033691 2.9157731533050537 C 5.189680099487305 -0.19515156745910645 9.107242584228516 -2.892176389694214 13.026039123535156 -5.6154255867004395" stroke-width="1.0892857313156128" fill="none" stroke="rgb(2, 148, 165)" stroke-opacity="0.69" stroke-linecap="round" stroke-linejoin="round"/>
    <path d="M 92.71610260009766 14.485313415527344 C 88.92678833007812 18.303434371948242 85.13746643066406 22.6661434173584 83.96136474609375 25.994327545166016 C 82.78529357910156 28.77762794494629 84.22245025634766 29.985397338867188 85.65960693359375 31.190773010253906 C 87.64137268066406 31.851512908935547 82.44982147216797 32.48956298828125 77.80284118652344 33.12762451171875" stroke-width="1.0892857313156128" fill="none" stroke="rgb(11, 65, 205)" stroke-opacity="0.69" stroke-linecap="round" stroke-linejoin="round"/>
    <path d="M 76.24415588378906 113.80551147460938 C 78.38028717041016 109.35720825195312 79.97198486328125 104.36468505859375 82.65404510498047 100.4611587524414 C 84.24564361572266 96.01302337646484 86.40380096435547 102.96947479248047 88.5619888305664 109.92591857910156" stroke-width="1.1787586212158203" fill="none" stroke="rgb(229, 170, 173)" stroke-opacity="0.71" stroke-linecap="round" stroke-linejoin="round"/>
    <path d="M 71.60249328613281 118.34595489501953 C 65.81432342529297 123.10311126708984 70.14170837402344 119.98725128173828 74.63813781738281 115.52154541015625" stroke-width="1.0892857313156128" fill="none" stroke="rgb(123, 195, 180)" stroke-opacity="0.69000006" stroke-linecap="round" stroke-linejoin="round"/>
    <path d="M 108.02720642089844 67.82076263427734 C 106.53997802734375 67.92567443847656 105.05445098876953 68.02949523925781 104.11016845703125 68.6789321899414 C 102.62299346923828 68.23921203613281 108.23863220214844 70.36935424804688 113.8542709350586 73.04409790039062" stroke-width="1.0892857313156128" fill="none" stroke="rgb(106, 169, 9)" stroke-opacity="0.69" stroke-linecap="round" stroke-linejoin="round"/>
    <path d="M 78.34741973876953 33.67221450805664 C 79.72196960449219 33.96815872192383 79.92323303222656 28.614290237426758 81.73573303222656 25.26392936706543" stroke-width="1.1982135772705078" fill="none" stroke="rgb(32, 150, 88)" stroke-opacity="0.81675106" stroke-linecap="round" stroke-linejoin="round"/>
    <path d="M 32.96416473388672 72.3774642944336 C 28.54120445251465 76.85882568359375 27.461435317993164 73.95980834960938 30.113767623901367 68.14788818359375" stroke-width="1.0892857313156128" fill="none" stroke="rgb(32, 135, 49)" stroke-opacity="0.56846994" stroke-linecap="round" stroke-linejoin="round"/>
    <path d="M 75.65369415283203 114.63146209716797 C 77.39207458496094 108.17784881591797 82.5426254272461 104.28417205810547 79.45292663574219 100.44633483886719 C 79.52945709228516 96.90381622314453 80.13613891601562 92.14225006103516 76.24679565429688 91.50370025634766" stroke-width="1.0892857313156128" fill="none" stroke="rgb(153, 135, 86)" stroke-opacity="0.6924809" stroke-linecap="round" stroke-linejoin="round"/>
    <path d="M 19.07692527770996 77.22097778320312 C 21.94939422607422 80.67351531982422 23.919519424438477 83.34876251220703 27.781301498413086 80.72349548339844" stroke-width="1.0892857313156128" fill="none" stroke="rgb(46, 69, 8)" stroke-opacity="0.025763966" stroke-linecap="round" stroke-linejoin="round"/>
    <path d="M 35.4107551574707 72.47630310058594 C 35.58079147338867 77.76985931396484 34.014793395996094 77.18836212158203 38.3239631652832 75.51692962646484" stroke-width="1.1982133388519287" fill="none" stroke="rgb(208, 74, 247)" stroke-opacity="0.5017735" stroke-linecap="round" stroke-linejoin="round"/>
    <path d="M 28.196382522583008 82.86143493652344 C 33.120147705078125 88.6084976196289 34.822025299072266 88.83689880371094 32.00738525390625 83.5746841430664 C 32.951904296875 84.3389892578125 29.322486877441406 83.77953338623047 33.18014144897461 82.93061828613281" stroke-width="1.1982131004333496" fill="none" stroke="rgb(106, 45, 168)" stroke-opacity="0.903542" stroke-linecap="round" stroke-linejoin="round"/>
    <path d="M -0.09715896844863892 113.28043365478516 C -5.347558975219727 110.81973266601562 -5.356538772583008 107.32240295410156 -8.997673034667969 102.19063568115234 C -13.687797546386719 97.49092864990234 -15.523632049560547 102.80298614501953 -18.752729415893555 107.81069946289062 C -20.384727478027344 107.9230728149414 -14.420931816101074 106.36624908447266 -11.853105545043945 106.09073638916016" stroke-width="1.1981995105743408" fill="none" stroke="rgb(35, 25, 167)" stroke-opacity="0.024093589" stroke-linecap="round" stroke-linejoin="round"/>
    <path d="M 5.8294172286987305 89.4494400024414 C 3.194875717163086 88.04290771484375 -0.7816755175590515 92.1307144165039 -4.888741970062256 95.85343170166016" stroke-width="1.1982131004333496" fill="none" stroke="rgb(38, 52, 86)" stroke-opacity="0.55969316" stroke-linecap="round" stroke-linejoin="round"/>
    <path d="M -5.160924434661865 95.58119201660156 C -6.724299907684326 95.88176727294922 -9.21765422821045 94.9802474975586 -5.744118690490723 92.12545013427734" stroke-width="1.0892857313156128" fill="none" stroke="rgb(185, 139, 208)" stroke-opacity="0.8498872" stroke-linecap="round" stroke-linejoin="round"/>
    <path d="M 76.7913589477539 90.9590835571289 C 75.5277328491211 95.70254516601562 72.824462890625 98.98844146728516 68.744140625 96.79727935791016 C 70.34469604492188 95.25299835205078 69.38094329833984 94.40718078613281 70.856689453125 88.8574447631836" stroke-width="1.1982117891311646" fill="none" stroke="rgb(68, 120, 196)" stroke-opacity="0.85106915" stroke-linecap="round" stroke-linejoin="round"/>
    <path d="M 33.18013000488281 82.93054962158203 C 33.88855743408203 86.76692962646484 29.804109573364258 89.7471923828125 29.975936889648438 93.96387481689453 C 30.83758544921875 99.74137878417969 30.267061233520508 99.57611083984375 32.467437744140625 93.83000183105469" stroke-width="1.0892857313156128" fill="none" stroke="rgb(97, 242, 255)" stroke-opacity="0.9183661" stroke-linecap="round" stroke-linejoin="round"/>
    <path d="M 33.7247428894043 83.47510528564453 C 34.82419204711914 79.61430358886719 34.49896240234375 79.19339752197266 40.22795486450195 81.59254455566406" stroke-width="1.0892857313156128" fill="none" stroke="rgb(180, 162, 244)" stroke-opacity="0.2572843" stroke-linecap="round" stroke-linejoin="round"/>
    <path d="M 27.781299591064453 80.72349548339844 C 31.61761474609375 84.55033111572266 27.36433982849121 84.06539916992188 31.266462326049805 82.30193328857422 C 26.610265731811523 84.26143646240234 23.41426658630371 80.0234375 17.6564884185791 77.59638214111328" stroke-width="1.0892857313156128" fill="none" stroke="rgb(85, 159, 121)" stroke-opacity="0.3551534" stroke-linecap="round" stroke-linejoin="round"/>
    <path d="M -11.853105545043945 106.09073638916016 C -17.148597717285156 105.6079330444336 -15.175680160522461 107.70674133300781 -13.079283714294434 111.84059143066406 C -17.025131225585938 112.45877838134766 -22.479686737060547 118.30039978027344 -22.42466926574707 113.04666900634766" stroke-width="1.0892857313156128" fill="none" stroke="rgb(224, 177, 26)" stroke-opacity="0.63640344" stroke-linecap="round" stroke-linejoin="round"/>
    <path d="M 81.73573303222656 25.263927459716797 C 75.92436218261719 31.68597984313965 78.76676177978516 34.7600212097168 79.54117584228516 39.4835205078125 C 77.1811294555664 37.66914367675781 71.41218566894531 44.19258117675781 70.10264587402344 47.06035614013672 C 69.2430419921875 42.92523956298828 70.47744750976562 47.97793197631836 71.75096130371094 43.84770965576172" stroke-width="1.0892857313156128" fill="none" stroke="rgb(69, 112, 157)" stroke-opacity="0.7448465" stroke-linecap="round" stroke-linejoin="round"/>
    <path d="M -11.853105545043945 106.09073638916016 C -9.375930786132812 101.03132629394531 -14.570879936218262 100.83943939208984 -19.23343849182129 97.5080337524414 C -18.972145080566406 93.58458709716797 -15.509544372558594 98.74930572509766 -19.722705841064453 99.1423568725586" stroke-width="1.0892857313156128" fill="none" stroke="rgb(89, 75, 213)" stroke-opacity="0.010192145" stroke-linecap="round" stroke-linejoin="round"/>
    <path d="M 119.38811492919922 7.230584621429443 C 120.55680847167969 12.99218463897705 121.00997924804688 9.841641426086426 119.08688354492188 15.207830429077148 C 121.82189178466797 19.255529403686523 123.64295959472656 14.783793449401855 128.4599609375 15.804777145385742 C 132.21090698242188 9.443699836730957 137.22930908203125 4.599788665771484 135.26405334472656 8.54222583770752" stroke-width="1.1982063055038452" fill="none" stroke="rgb(228, 20, 38)" stroke-opacity="0.045395784" stroke-linecap="round" stroke-linejoin="round"/>
    <path d="M 14.734259605407715 99.48001098632812 C 8.175558090209961 99.83312225341797 3.0925803184509277 95.95079040527344 0.7400593757629395 94.64324188232422 C 0.5634768605232239 95.56778717041016 1.0297645330429077 93.7569808959961 5.125801086425781 94.49251556396484 C 3.1944117546081543 94.11293029785156 8.569866180419922 97.72850036621094 11.199459075927734 99.9017333984375" stroke-width="1.0892857313156128" fill="none" stroke="rgb(188, 160, 214)" stroke-opacity="0.96383417" stroke-linecap="round" stroke-linejoin="round"/>
    <path d="M 22.533971786499023 68.93641662597656 C 23.46907615661621 69.07298278808594 22.952245712280273 74.27973175048828 27.591333389282227 78.11491394042969" stroke-width="1.0892857313156128" fill="none" stroke="rgb(88, 124, 206)" stroke-opacity="0.48864678" stroke-linecap="round" stroke-linejoin="round"/>
    <path d="M 95.66900634765625 102.60771942138672 C 98.48521423339844 98.27328491210938 104.31460571289062 96.94518280029297 103.40853118896484 94.9697494506836 C 104.93018341064453 96.69206237792969 109.77344512939453 93.86136627197266 104.8575210571289 97.13766479492188 C 109.25953674316406 94.07601165771484 109.17982482910156 98.65091705322266 107.03202056884766 98.65457153320312" stroke-width="1.1982141733169556" fill="none" stroke="rgb(226, 216, 235)" stroke-opacity="0.8553925" stroke-linecap="round" stroke-linejoin="round"/>
    <path d="M 13.447221755981445 54.98850631713867 C 15.212501525878906 50.1343994140625 20.594131469726562 47.6183967590332 17.51248550415039 50.30732727050781 C 16.961885452270508 46.49696350097656 13.83383846282959 44.36899948120117 8.71657943725586 48.118019104003906" stroke-width="1.0892857313156128" fill="none" stroke="rgb(37, 167, 193)" stroke-opacity="0.06263158" stroke-linecap="round" stroke-linejoin="round"/>
    <path d="M 23.022111892700195 119.06475067138672 C 18.375743865966797 124.096435546875 22.23716926574707 128.55609130859375 19.539352416992188 125.49385833740234 C 20.116838455200195 124.33252716064453 25.0323486328125 120.34339141845703 28.593982696533203 116.63325500488281" stroke-width="1.0892857313156128" fill="none" stroke="rgb(20, 69, 187)" stroke-opacity="0.212617" stroke-linecap="round" stroke-linejoin="round"/>
    <path d="M 14.627470970153809 17.228483200073242 C 15.5502290725708 17.039920806884766 12.031030654907227 10.436964988708496 15.046606063842773 11.409244537353516 C 15.68532657623291 12.6962251663208 14.857234001159668 14.286611557006836 13.116515159606934 20.044912338256836" stroke-width="1.1982133388519287" fill="none" stroke="rgb(99, 0, 126)" stroke-opacity="0.5094688" stroke-linecap="round" stroke-linejoin="round"/>
    <path d="M 27.094663619995117 0.3864199221134186 C 26.457002639770508 -0.35883626341819763 23.046926498413086 0.17897765338420868 17.7894344329834 -4.130785942077637" stroke-width="1.0892857313156128" fill="none" stroke="rgb(106, 160, 254)" stroke-opacity="0.11440138" stroke-linecap="round" stroke-linejoin="round"/>
    <path d="M 23.162492752075195 39.4138298034668 C 18.461511611938477 36.50843811035156 22.85164451599121 31.101720809936523 20.143369674682617 34.80888366699219" stroke-width="1.1980513334274292" fill="none" stroke="rgb(182, 175, 71)" stroke-opacity="0.21750213" stroke-linecap="round" stroke-linejoin="round"/>
    <path d="M 89.19331359863281 55.67761993408203 C 94.29722595214844 60.22880172729492 99.40777587890625 60.725807189941406 100.65386199951172 57.20502853393555" stroke-width="1.1982131004333496" fill="none" stroke="rgb(234, 240, 208)" stroke-opacity="0.07821016" stroke-linecap="round" stroke-linejoin="round"/>
    <path d="M 65.02635192871094 16.654903411865234 C 67.87500762939453 12.757301330566406 68.8089370727539 14.114712715148926 68.32965850830078 13.908681869506836 C 70.30038452148438 17.500551223754883 72.60200500488281 21.794166564941406 77.30867004394531 16.525524139404297 C 81.76258087158203 21.31134796142578 79.70405578613281 16.06532096862793 77.54109191894531 20.109119415283203" stroke-width="1.0892857313156128" fill="none" stroke="rgb(73, 113, 96)" stroke-opacity="0.8982427" stroke-linecap="round" stroke-linejoin="round"/>
    <path d="M 41.85293960571289 119.47821807861328 C 38.575984954833984 119.48697662353516 37.02483367919922 119.43586730957031 33.77472686767578 121.05653381347656" stroke-width="1.0892857313156128" fill="none" stroke="rgb(170, 146, 137)" stroke-opacity="0.022163399" stroke-linecap="round" stroke-linejoin="round"/>
    <path d="M 21.52947235107422 94.68912506103516 C 19.0624942779541 95.16472625732422 19.675004959106445 96.02446746826172 24.03546905517578 97.11331939697266 C 23.28506088256836 99.21124267578125 25.59093475341797 99.24447631835938 24.5153865814209 93.81578826904297" stroke-width="1.1982139348983765" fill="none" stroke="rgb(177, 20, 202)" stroke-opacity="0.4346213" stroke-linecap="round" stroke-linejoin="round"/>
    <path d="M 54.092369079589844 107.04996490478516 C 55.98624801635742 111.30970001220703 58.72425842285156 107.7421875 53.78557205200195 101.92308807373047" stroke-width="1.0892857313156128" fill="none" stroke="rgb(65, 245, 67)" stroke-opacity="0.51524353" stroke-linecap="round" stroke-linejoin="round"/>
    <path d="M 18.54690170288086 88.43128967285156 C 16.53148078918457 92.84526062011719 12.052511215209961 95.22208404541016 10.53042221069336 93.21939086914062 C 8.750945091247559 91.51868438720703 3.7228243350982666 91.56634521484375 -2.325888156890869 94.65234375 C 1.8590202331542969 94.99444580078125 3.354887008666992 94.71409606933594 6.914419174194336 96.43704986572266" stroke-width="1.1982139348983765" fill="none" stroke="rgb(49, 62, 197)" stroke-opacity="0.781691" stroke-linecap="round" stroke-linejoin="round"/>
    <path d="M 36.0157470703125 45.16791534423828 C 33.658443450927734 46.60248565673828 37.01730728149414 52.06476593017578 39.971256256103516 54.108280181884766 C 36.614131927490234 55.01953887939453 33.54637145996094 57.45652770996094 30.741212844848633 53.77216339111328 C 35.1886100769043 48.4713249206543 37.571903228759766 45.156272888183594 39.72130584716797 41.22080993652344" stroke-width="1.1982139348983765" fill="none" stroke="rgb(221, 131, 215)" stroke-opacity="0.34731197" stroke-linecap="round" stroke-linejoin="round"/>
  </g>
</svg>
