<?xml version="1.0" ?>
<svg xmlns="http://www.w3.org/2000/svg" version="1.1" width="1104.0" height="1104.0">
  <defs/>
  <g>
    <path d="M 67.98501586914062 127.62225341796875 C 113.3935775756836 143.40682983398438 161.816650390625 137.32284545898438 162.47714233398438 130.79737854003906 C 163.86558532714844 124.25674438476562 114.47877502441406 106.9880599975586 75.19800567626953 121.6666030883789" stroke-width="4.460978984832764" fill="none" stroke="rgb(93, 88, 84)" stroke-opacity="1.0" stroke-linecap="round" stroke-linejoin="round"/>
    <path d="M 117.35517883300781 129.77987670898438 C 115.22218322753906 104.14042663574219 113.29737091064453 78.46932220458984 117.3221664428711 51.91450119018555" stroke-width="7.30241584777832" fill="none" stroke="rgb(165, 112, 20)" stroke-opacity="1.0" stroke-linecap="round" stroke-linejoin="round"/>
    <path d="M 117.6269302368164 83.6405029296875 C 126.91219329833984 76.40816497802734 136.11770629882812 77.0821533203125 137.7777557373047 77.61357116699219" stroke-width="2.8800833225250244" fill="none" stroke="rgb(165, 115, 17)" stroke-opacity="1.0" stroke-linecap="round" stroke-linejoin="round"/>
    <path d="M 112.50003814697266 97.10057830810547 C 99.06893920898438 90.61186981201172 100.56037139892578 78.15644073486328 90.56278991699219 78.9633560180664" stroke-width="2.616999864578247" fill="none" stroke="rgb(162, 115, 20)" stroke-opacity="1.0" stroke-linecap="round" stroke-linejoin="round"/>
    <path d="M 118.53254699707031 51.119728088378906 C 118.90040588378906 38.73759078979492 131.03598022460938 33.93221664428711 134.73822021484375 31.2626953125" stroke-width="3.669464349746704" fill="none" stroke="rgb(163, 114, 17)" stroke-opacity="1.0" stroke-linecap="round" stroke-linejoin="round"/>
    <path d="M 116.6028060913086 51.92045211791992 C 110.18248748779297 41.803829193115234 107.10497283935547 40.39120101928711 103.246826171875 38.34926223754883" stroke-width="3.395124673843384" fill="none" stroke="rgb(162, 115, 20)" stroke-opacity="1.0" stroke-linecap="round" stroke-linejoin="round"/>
    <path d="M 103.97611999511719 39.07398223876953 C 103.977783203125 39.08326721191406 104.85202026367188 34.57257843017578 102.86942291259766 34.158416748046875 C 101.62406158447266 33.04121398925781 99.57925415039062 31.741865158081055 99.57697296142578 31.74740982055664" stroke-width="2.0" fill="none" stroke="rgb(166, 115, 20)" stroke-opacity="1.0" stroke-linecap="round" stroke-linejoin="round"/>
    <path d="M 103.97840881347656 39.0981330871582 C 91.27452087402344 42.04851531982422 90.87686920166016 42.75642395019531 90.71194458007812 43.6082649230957" stroke-width="2.0" fill="none" stroke="rgb(162, 115, 20)" stroke-opacity="1.0" stroke-linecap="round" stroke-linejoin="round"/>
    <path d="M 137.06471252441406 77.6303939819336 C 137.05458068847656 77.63131713867188 136.17591857910156 73.84481811523438 137.41514587402344 71.95436096191406 C 138.673583984375 70.84381103515625 141.4456329345703 70.2804946899414 141.45681762695312 70.28929138183594" stroke-width="2.0" fill="none" stroke="rgb(166, 115, 20)" stroke-opacity="1.0" stroke-linecap="round" stroke-linejoin="round"/>
    <path d="M 137.80099487304688 76.89692687988281 C 149.76271057128906 80.59619903564453 150.15780639648438 82.0450210571289 149.5901336669922 82.895263671875" stroke-width="2.0" fill="none" stroke="rgb(162, 115, 17)" stroke-opacity="1.0" stroke-linecap="round" stroke-linejoin="round"/>
    <path d="M 134.00369262695312 31.27817153930664 C 134.0029296875 31.283443450927734 137.76063537597656 32.63978958129883 140.11053466796875 32.188987731933594 C 141.723388671875 30.98017120361328 143.35826110839844 32.552127838134766 143.34848022460938 33.295623779296875" stroke-width="2.0" fill="none" stroke="rgb(162, 115, 17)" stroke-opacity="1.0" stroke-linecap="round" stroke-linejoin="round"/>
    <path d="M 117.31253814697266 51.91828536987305 C 117.31510925292969 51.920719146728516 120.603515625 47.597564697265625 122.21748352050781 47.11392593383789 C 123.8293228149414 46.658485412597656 126.78436279296875 47.27351379394531 126.787109375 47.27478790283203" stroke-width="2.0" fill="none" stroke="rgb(162, 115, 17)" stroke-opacity="1.0" stroke-linecap="round" stroke-linejoin="round"/>
    <path d="M 133.98545837402344 30.548995971679688 C 136.77560424804688 18.336774826049805 126.44221496582031 24.091625213623047 125.06603240966797 23.53330421447754" stroke-width="2.0" fill="none" stroke="rgb(166, 115, 17)" stroke-opacity="1.0" stroke-linecap="round" stroke-linejoin="round"/>
    <path d="M 112.57945251464844 68.89411926269531 C 112.5785140991211 68.8941650390625 112.1703109741211 64.6160659790039 110.94405364990234 64.2112045288086 C 109.70255279541016 62.3553466796875 107.66124725341797 61.052467346191406 107.65519714355469 61.04917526245117" stroke-width="2.0" fill="none" stroke="rgb(166, 115, 20)" stroke-opacity="1.0" stroke-linecap="round" stroke-linejoin="round"/>
    <path d="M 91.50545501708984 78.53302764892578 C 91.51451873779297 78.53313446044922 92.39534759521484 74.01914978027344 91.14820861816406 72.87435913085938 C 89.8896713256836 71.75746154785156 87.84575653076172 70.4563980102539 87.11862182617188 70.45166015625" stroke-width="2.0" fill="none" stroke="rgb(162, 115, 20)" stroke-opacity="1.0" stroke-linecap="round" stroke-linejoin="round"/>
    <path d="M 91.4976806640625 78.53312683105469 C 82.71226501464844 86.1951904296875 79.67440032958984 83.5860366821289 78.97327423095703 83.78913879394531" stroke-width="2.0" fill="none" stroke="rgb(162, 115, 20)" stroke-opacity="1.0" stroke-linecap="round" stroke-linejoin="round"/>
    <path d="M 76.24105072021484 85.11787414550781 C 74.42639923095703 89.95673370361328 70.15421295166016 95.69298553466797 66.0782470703125 96.03916931152344" stroke-width="3.231560707092285" fill="none" stroke="rgb(30, 126, 13)" stroke-opacity="1.0" stroke-linecap="round" stroke-linejoin="round"/>
    <path d="M 76.25829315185547 85.12869262695312 C 63.56058120727539 88.79638671875 65.86627960205078 96.56559753417969 65.34795379638672 96.76837921142578" stroke-width="3.2391550540924072" fill="none" stroke="rgb(30, 127, 16)" stroke-opacity="1.0" stroke-linecap="round" stroke-linejoin="round"/>
    <path d="M 77.47013092041016 83.80593872070312 C 69.05567932128906 89.31623840332031 66.54341125488281 92.85711669921875 65.34659576416016 96.7744140625" stroke-width="2.0" fill="none" stroke="rgb(91, 231, 52)" stroke-opacity="1.0" stroke-linecap="round" stroke-linejoin="round"/>
    <path d="M 75.47093200683594 81.8377685546875 C 70.60277557373047 83.6230239868164 63.473793029785156 84.07522583007812 60.74264907836914 81.61967468261719" stroke-width="2.9472784996032715" fill="none" stroke="rgb(27, 127, 16)" stroke-opacity="1.0" stroke-linecap="round" stroke-linejoin="round"/>
    <path d="M 76.19914245605469 81.84272766113281 C 64.45711517333984 75.27278137207031 60.76656723022461 82.12403106689453 60.00002670288086 81.62020111083984" stroke-width="3.237626552581787" fill="none" stroke="rgb(30, 126, 13)" stroke-opacity="1.0" stroke-linecap="round" stroke-linejoin="round"/>
    <path d="M 78.24627685546875 83.80300903320312 C 72.92462921142578 80.73637390136719 64.65882873535156 81.1434555053711 61.815853118896484 82.46370697021484" stroke-width="2.0" fill="none" stroke="rgb(88, 228, 52)" stroke-opacity="1.0" stroke-linecap="round" stroke-linejoin="round"/>
    <path d="M 88.66969299316406 43.13052749633789 C 83.802978515625 44.92740249633789 76.67220306396484 44.63731384277344 73.2173843383789 42.16569137573242" stroke-width="3.247105836868286" fill="none" stroke="rgb(30, 126, 16)" stroke-opacity="1.0" stroke-linecap="round" stroke-linejoin="round"/>
    <path d="M 88.67414093017578 42.38406753540039 C 77.65548706054688 35.81746292114258 73.23149871826172 42.6690673828125 72.48641204833984 42.90834426879883" stroke-width="3.2408833503723145" fill="none" stroke="rgb(27, 126, 16)" stroke-opacity="1.0" stroke-linecap="round" stroke-linejoin="round"/>
    <path d="M 90.71109771728516 43.611446380615234 C 81.8045425415039 40.76544952392578 77.4787826538086 41.12126541137695 73.54925537109375 42.99909210205078" stroke-width="2.0" fill="none" stroke="rgb(87, 228, 52)" stroke-opacity="1.0" stroke-linecap="round" stroke-linejoin="round"/>
    <path d="M 89.12149810791016 46.28352737426758 C 88.5042724609375 50.69297409057617 85.0243148803711 57.28054428100586 82.04972839355469 60.043724060058594" stroke-width="3.238717555999756" fill="none" stroke="rgb(30, 126, 16)" stroke-opacity="1.0" stroke-linecap="round" stroke-linejoin="round"/>
    <path d="M 89.12330627441406 45.55284881591797 C 77.69847106933594 52.92345428466797 81.80140686035156 59.89017868041992 81.3199234008789 60.04560089111328" stroke-width="3.2398886680603027" fill="none" stroke="rgb(27, 130, 16)" stroke-opacity="1.0" stroke-linecap="round" stroke-linejoin="round"/>
    <path d="M 90.7043685913086 44.3419075012207 C 83.86983489990234 50.97886276245117 82.28125 55.03413009643555 81.87836456298828 59.13142395019531" stroke-width="2.0" fill="none" stroke="rgb(88, 228, 52)" stroke-opacity="1.0" stroke-linecap="round" stroke-linejoin="round"/>
    <path d="M 84.10377502441406 70.0592041015625 C 79.92574310302734 73.11056518554688 73.95197296142578 76.29499816894531 69.95491027832031 74.2198715209961" stroke-width="2.9484641551971436" fill="none" stroke="rgb(30, 130, 16)" stroke-opacity="1.0" stroke-linecap="round" stroke-linejoin="round"/>
    <path d="M 84.84465789794922 70.80719757080078 C 71.48688507080078 66.16779327392578 69.89205932617188 73.9178237915039 69.95881652832031 74.21522521972656" stroke-width="2.9470670223236084" fill="none" stroke="rgb(30, 126, 16)" stroke-opacity="1.0" stroke-linecap="round" stroke-linejoin="round"/>
    <path d="M 87.85162353515625 70.46455383300781 C 77.79452514648438 71.1784896850586 73.7485122680664 72.75750732421875 70.2735595703125 74.74898529052734" stroke-width="2.0" fill="none" stroke="rgb(91, 231, 52)" stroke-opacity="1.0" stroke-linecap="round" stroke-linejoin="round"/>
    <path d="M 85.47251892089844 68.63839721679688 C 80.4439697265625 67.5218276977539 74.97406005859375 63.15776062011719 73.41346740722656 59.23704528808594" stroke-width="2.9486615657806396" fill="none" stroke="rgb(27, 126, 16)" stroke-opacity="1.0" stroke-linecap="round" stroke-linejoin="round"/>
    <path d="M 86.2140121459961 67.90921020507812 C 81.00186157226562 55.76994705200195 73.58683013916016 59.7227668762207 73.41510009765625 59.97138595581055" stroke-width="2.954071521759033" fill="none" stroke="rgb(27, 126, 16)" stroke-opacity="1.0" stroke-linecap="round" stroke-linejoin="round"/>
    <path d="M 85.89319610595703 70.13016510009766 C 79.83043670654297 63.31415939331055 75.7225341796875 60.64749526977539 72.2925033569336 58.83838653564453" stroke-width="2.0" fill="none" stroke="rgb(91, 231, 52)" stroke-opacity="1.0" stroke-linecap="round" stroke-linejoin="round"/>
    <path d="M 96.5760726928711 30.61347770690918 C 93.1295394897461 34.39427185058594 86.41851806640625 36.83598709106445 82.4221420288086 35.49410629272461" stroke-width="2.943443775177002" fill="none" stroke="rgb(27, 126, 16)" stroke-opacity="1.0" stroke-linecap="round" stroke-linejoin="round"/>
    <path d="M 96.57903289794922 30.610429763793945 C 84.68521118164062 27.443117141723633 82.35201263427734 35.193260192871094 81.68758392333984 35.486167907714844" stroke-width="2.949005365371704" fill="none" stroke="rgb(30, 130, 16)" stroke-opacity="1.0" stroke-linecap="round" stroke-linejoin="round"/>
    <path d="M 99.58641052246094 31.00221061706543 C 89.52857971191406 30.98724937438965 85.48269653320312 32.56914138793945 82.74073028564453 35.29825973510742" stroke-width="2.0" fill="none" stroke="rgb(91, 232, 52)" stroke-opacity="1.0" stroke-linecap="round" stroke-linejoin="round"/>
    <path d="M 97.94296264648438 29.183406829833984 C 92.91705322265625 28.06917953491211 86.7126693725586 24.43844223022461 85.88011932373047 20.51099395751953" stroke-width="2.9453606605529785" fill="none" stroke="rgb(30, 126, 13)" stroke-opacity="1.0" stroke-linecap="round" stroke-linejoin="round"/>
    <path d="M 98.66717529296875 28.45696258544922 C 93.47029876708984 16.320934295654297 86.04627990722656 20.258270263671875 85.8686752319336 20.508760452270508" stroke-width="3.2422211170196533" fill="none" stroke="rgb(27, 126, 16)" stroke-opacity="1.0" stroke-linecap="round" stroke-linejoin="round"/>
    <path d="M 100.31787872314453 31.7255859375 C 93.82453155517578 23.319955825805664 90.00587463378906 21.260995864868164 86.71485137939453 20.461362838745117" stroke-width="2.0" fill="none" stroke="rgb(91, 232, 52)" stroke-opacity="1.0" stroke-linecap="round" stroke-linejoin="round"/>
    <path d="M 122.78964233398438 23.88348388671875 C 118.6072769165039 26.92927360534668 111.895751953125 29.369441986083984 107.8879623413086 28.02396011352539" stroke-width="3.24682879447937" fill="none" stroke="rgb(27, 126, 13)" stroke-opacity="1.0" stroke-linecap="round" stroke-linejoin="round"/>
    <path d="M 122.77326202392578 23.154306411743164 C 109.44133758544922 19.257762908935547 107.11225891113281 27.007078170776367 107.1784896850586 27.291654586791992" stroke-width="2.948085308074951" fill="none" stroke="rgb(30, 126, 13)" stroke-opacity="1.0" stroke-linecap="round" stroke-linejoin="round"/>
    <path d="M 125.79369354248047 23.53057289123535 C 115.73566436767578 24.25136947631836 111.68922424316406 25.830257415771484 108.21187591552734 27.8238582611084" stroke-width="2.0" fill="none" stroke="rgb(87, 231, 52)" stroke-opacity="1.0" stroke-linecap="round" stroke-linejoin="round"/>
    <path d="M 123.41667938232422 21.70751190185547 C 118.3893814086914 20.590261459350586 112.18051147460938 16.965232849121094 111.3433837890625 12.325945854187012" stroke-width="3.24176025390625" fill="none" stroke="rgb(30, 130, 13)" stroke-opacity="1.0" stroke-linecap="round" stroke-linejoin="round"/>
    <path d="M 124.1252670288086 20.993600845336914 C 118.93795013427734 8.852675437927246 111.5185317993164 12.077559471130371 110.64022064208984 12.306741714477539" stroke-width="3.225353240966797" fill="none" stroke="rgb(27, 130, 13)" stroke-opacity="1.0" stroke-linecap="round" stroke-linejoin="round"/>
    <path d="M 125.06010437011719 24.26213836669922 C 118.5655517578125 16.58026885986328 115.48306274414062 13.78539752960205 111.45043182373047 12.973651885986328" stroke-width="2.0" fill="none" stroke="rgb(91, 231, 48)" stroke-opacity="1.0" stroke-linecap="round" stroke-linejoin="round"/>
    <path d="M 151.53085327148438 85.22718048095703 C 151.1844482421875 90.37955474853516 152.70291137695312 97.36784362792969 155.97267150878906 100.03539276123047" stroke-width="3.2431726455688477" fill="none" stroke="rgb(27, 126, 16)" stroke-opacity="1.0" stroke-linecap="round" stroke-linejoin="round"/>
    <path d="M 151.52557373046875 84.49763488769531 C 162.2910919189453 93.09888458251953 156.25201416015625 99.18976593017578 155.9693603515625 100.03922271728516" stroke-width="2.9475343227386475" fill="none" stroke="rgb(27, 127, 16)" stroke-opacity="1.0" stroke-linecap="round" stroke-linejoin="round"/>
    <path d="M 149.58009338378906 82.9002914428711 C 154.96841430664062 91.38849639892578 156.527099609375 94.92058563232422 156.318115234375 98.30057525634766" stroke-width="2.0" fill="none" stroke="rgb(87, 228, 52)" stroke-opacity="1.0" stroke-linecap="round" stroke-linejoin="round"/>
    <path d="M 152.62994384765625 82.92263793945312 C 156.34719848632812 86.522705078125 162.65077209472656 89.86054992675781 166.78404235839844 88.3721923828125" stroke-width="2.9502859115600586" fill="none" stroke="rgb(30, 130, 16)" stroke-opacity="1.0" stroke-linecap="round" stroke-linejoin="round"/>
    <path d="M 152.63893127441406 82.19255065917969 C 166.3888702392578 80.18590545654297 167.61305236816406 88.11749267578125 167.5048065185547 88.37714385986328" stroke-width="3.2357752323150635" fill="none" stroke="rgb(27, 126, 16)" stroke-opacity="1.0" stroke-linecap="round" stroke-linejoin="round"/>
    <path d="M 149.58888244628906 82.8947982788086 C 160.28504943847656 84.24085235595703 164.07313537597656 85.67591857910156 165.77633666992188 88.0249252319336" stroke-width="2.0" fill="none" stroke="rgb(91, 231, 52)" stroke-opacity="1.0" stroke-linecap="round" stroke-linejoin="round"/>
    <path d="M 145.29034423828125 34.93183898925781 C 144.94297790527344 40.81257247924805 145.7316131591797 47.80186462402344 149.00132751464844 50.46657180786133" stroke-width="2.947894334793091" fill="none" stroke="rgb(30, 126, 16)" stroke-opacity="1.0" stroke-linecap="round" stroke-linejoin="round"/>
    <path d="M 145.296875 34.92924880981445 C 155.32247924804688 43.531700134277344 149.28504943847656 49.64735794067383 149.00086975097656 49.731449127197266" stroke-width="2.947509288787842" fill="none" stroke="rgb(30, 126, 16)" stroke-opacity="1.0" stroke-linecap="round" stroke-linejoin="round"/>
    <path d="M 143.35739135742188 32.582374572753906 C 148.7434539794922 41.07453918457031 149.57095336914062 45.35285186767578 149.3546600341797 49.45741653442383" stroke-width="2.0" fill="none" stroke="rgb(91, 228, 52)" stroke-opacity="1.0" stroke-linecap="round" stroke-linejoin="round"/>
    <path d="M 145.65415954589844 33.36261749267578 C 149.36734008789062 36.97100067138672 155.67282104492188 40.306026458740234 160.5574493408203 38.81029510498047" stroke-width="2.9498538970947266" fill="none" stroke="rgb(30, 130, 13)" stroke-opacity="1.0" stroke-linecap="round" stroke-linejoin="round"/>
    <path d="M 145.66082763671875 32.63347244262695 C 158.70721435546875 30.615299224853516 159.92779541015625 39.264801025390625 159.81629943847656 39.54422378540039" stroke-width="2.94514799118042" fill="none" stroke="rgb(30, 126, 13)" stroke-opacity="1.0" stroke-linecap="round" stroke-linejoin="round"/>
    <path d="M 142.6182098388672 32.59724807739258 C 152.580322265625 34.67603302001953 156.36614990234375 36.84644317626953 158.80313110351562 39.194183349609375" stroke-width="2.0" fill="none" stroke="rgb(91, 232, 52)" stroke-opacity="1.0" stroke-linecap="round" stroke-linejoin="round"/>
    <path d="M 126.57392120361328 50.380794525146484 C 123.70671844482422 54.6864013671875 122.23112487792969 61.49513626098633 123.73249053955078 66.13650512695312" stroke-width="2.947620391845703" fill="none" stroke="rgb(27, 126, 16)" stroke-opacity="1.0" stroke-linecap="round" stroke-linejoin="round"/>
    <path d="M 127.29136657714844 51.09650802612305 C 130.96238708496094 62.83414077758789 123.30874633789062 65.47394561767578 122.99581909179688 66.15843200683594" stroke-width="2.957516670227051" fill="none" stroke="rgb(30, 126, 13)" stroke-opacity="1.0" stroke-linecap="round" stroke-linejoin="round"/>
    <path d="M 126.80601501464844 47.393428802490234 C 127.18241882324219 57.4501953125 125.0594482421875 61.54779815673828 123.17587280273438 65.06562805175781" stroke-width="2.0" fill="none" stroke="rgb(91, 228, 52)" stroke-opacity="1.0" stroke-linecap="round" stroke-linejoin="round"/>
    <path d="M 129.39505004882812 48.92765808105469 C 130.81643676757812 53.89793014526367 134.59059143066406 60.689125061035156 137.84329223632812 62.085060119628906" stroke-width="2.951064109802246" fill="none" stroke="rgb(30, 126, 16)" stroke-opacity="1.0" stroke-linecap="round" stroke-linejoin="round"/>
    <path d="M 129.38424682617188 48.947025299072266 C 141.72264099121094 53.64624786376953 138.10580444335938 61.196773529052734 137.8577880859375 62.07279968261719" stroke-width="2.9482367038726807" fill="none" stroke="rgb(30, 126, 13)" stroke-opacity="1.0" stroke-linecap="round" stroke-linejoin="round"/>
    <path d="M 126.04914093017578 48.11263656616211 C 134.71780395507812 53.55955505371094 136.93536376953125 57.297786712646484 137.8693389892578 60.54259490966797" stroke-width="2.0" fill="none" stroke="rgb(91, 231, 52)" stroke-opacity="1.0" stroke-linecap="round" stroke-linejoin="round"/>
    <path d="M 143.1558837890625 67.76701354980469 C 142.33470153808594 62.65957260131836 143.17835998535156 55.58146286010742 146.1845245361328 52.605403900146484" stroke-width="2.963918924331665" fill="none" stroke="rgb(27, 126, 16)" stroke-opacity="1.0" stroke-linecap="round" stroke-linejoin="round"/>
    <path d="M 143.1655731201172 67.77318572998047 C 152.33938598632812 58.266536712646484 146.4755859375 51.96990966796875 146.18743896484375 51.869815826416016" stroke-width="2.9465606212615967" fill="none" stroke="rgb(30, 126, 16)" stroke-opacity="1.0" stroke-linecap="round" stroke-linejoin="round"/>
    <path d="M 141.45582580566406 70.28262329101562 C 146.01242065429688 61.32236099243164 145.69749450683594 56.99794387817383 145.15830993652344 52.907779693603516" stroke-width="2.0" fill="none" stroke="rgb(91, 231, 52)" stroke-opacity="1.0" stroke-linecap="round" stroke-linejoin="round"/>
    <path d="M 143.73695373535156 69.22877502441406 C 147.091064453125 65.28108978271484 153.05213928222656 61.36404037475586 157.25440979003906 62.48390579223633" stroke-width="2.950824022293091" fill="none" stroke="rgb(30, 127, 13)" stroke-opacity="1.0" stroke-linecap="round" stroke-linejoin="round"/>
    <path d="M 143.73631286621094 69.22975158691406 C 157.65126037597656 70.85877227783203 157.38729858398438 62.72870635986328 157.99427795410156 61.74854278564453" stroke-width="2.9543192386627197" fill="none" stroke="rgb(30, 126, 16)" stroke-opacity="1.0" stroke-linecap="round" stroke-linejoin="round"/>
    <path d="M 141.4555206298828 70.28865814208984 C 151.23802185058594 67.95275115966797 154.0713348388672 64.7505874633789 156.27151489257812 62.174705505371094" stroke-width="2.0" fill="none" stroke="rgb(91, 231, 52)" stroke-opacity="1.0" stroke-linecap="round" stroke-linejoin="round"/>
    <path d="M 104.6397476196289 60.660743713378906 C 99.72518920898438 63.70668411254883 93.01380157470703 66.88514709472656 89.01038360595703 65.5428237915039" stroke-width="3.2450385093688965" fill="none" stroke="rgb(27, 126, 13)" stroke-opacity="1.0" stroke-linecap="round" stroke-linejoin="round"/>
    <path d="M 104.64051055908203 60.65447998046875 C 91.28428649902344 56.75669479370117 88.9515151977539 64.51051330566406 89.74826049804688 64.8033218383789" stroke-width="2.9542248249053955" fill="none" stroke="rgb(30, 126, 16)" stroke-opacity="1.0" stroke-linecap="round" stroke-linejoin="round"/>
    <path d="M 107.64610290527344 61.04182815551758 C 96.85763549804688 61.03297424316406 93.54684448242188 62.617347717285156 90.80430603027344 65.34209442138672" stroke-width="2.0" fill="none" stroke="rgb(91, 228, 52)" stroke-opacity="1.0" stroke-linecap="round" stroke-linejoin="round"/>
    <path d="M 105.2661361694336 59.66050720214844 C 100.24408721923828 58.32026290893555 94.77303314208984 54.17768096923828 92.4840087890625 50.987060546875" stroke-width="3.2394473552703857" fill="none" stroke="rgb(29, 127, 13)" stroke-opacity="1.0" stroke-linecap="round" stroke-linejoin="round"/>
    <path d="M 105.99886322021484 58.502891540527344 C 100.80099487304688 46.36635208129883 93.3838119506836 49.59340286254883 92.48108673095703 49.827396392822266" stroke-width="3.2350423336029053" fill="none" stroke="rgb(27, 126, 16)" stroke-opacity="1.0" stroke-linecap="round" stroke-linejoin="round"/>
    <path d="M 107.01657104492188 60.19782638549805 C 100.51789093017578 52.51750564575195 95.9662857055664 51.19191360473633 92.67242431640625 50.384090423583984" stroke-width="2.0" fill="none" stroke="rgb(87, 228, 52)" stroke-opacity="1.0" stroke-linecap="round" stroke-linejoin="round"/>
    <path d="M 76.56958770751953 138.61453247070312 C 116.27924346923828 153.26763916015625 149.76185607910156 146.18984985351562 153.13204956054688 145.7975616455078" stroke-width="7.3203535079956055" fill="none" stroke="rgb(213, 63, 28)" stroke-opacity="1.0" stroke-linecap="round" stroke-linejoin="round"/>
  </g>
</svg>
