<?xml version="1.0" ?>
<svg xmlns="http://www.w3.org/2000/svg" version="1.1" width="1182.99609" height="1182.99609">
  <defs/>
  <g>
    <path d="M 113.8839340209961 154.81736755371094 C 111.36336517333984 154.12123107910156 107.24591064453125 155.01853942871094 106.00318908691406 154.1439971923828 C 104.75719451904297 151.6792755126953 104.79287719726562 150.629638671875 108.34660339355469 147.4536895751953 C 108.71287536621094 141.0902862548828 112.59715270996094 132.60052490234375 116.79560852050781 128.0629119873047 C 120.99411010742188 125.11904907226562 127.10047149658203 124.53714752197266 130.1586151123047 122.64852142333984 C 134.8104248046875 119.16618347167969 139.60153198242188 115.97807312011719 147.5414581298828 113.35403442382812 C 155.48143005371094 110.73001098632812 168.1639404296875 110.26739501953125 171.13278198242188 106.16740417480469 C 175.69540405273438 105.25495147705078 173.72470092773438 102.30603790283203 183.72254943847656 109.9588623046875 C 192.12661743164062 119.20545196533203 210.89828491210938 140.65472412109375 216.75889587402344 156.2041015625 C 224.21327209472656 170.15969848632812 221.93682861328125 176.62872314453125 220.9802703857422 180.6876678466797 C 220.02346801757812 183.1534423828125 221.9727783203125 184.80636596679688 222.51898193359375 186.04165649414062 C 221.4698486328125 188.87030029296875 222.1969451904297 189.69154357910156 221.27659606933594 186.7200469970703 C 220.35552978515625 186.9320831298828 219.38087463378906 183.34771728515625 225.6356964111328 177.93540954589844 C 231.8903350830078 170.9295654296875 243.78485107421875 163.68930053710938 258.8663635253906 158.03915405273438 C 272.354248046875 150.79896545410156 315.5618591308594 107.53832244873047 360.35968017578125 65.87506103515625" stroke-width="3.70635724067688" fill="none" stroke="rgb(24, 25, 12)" stroke-opacity="1.0" stroke-linecap="round" stroke-linejoin="round"/>
    <path d="M 245.90892028808594 174.63304138183594 C 246.08314514160156 172.0134735107422 247.79112243652344 170.96217346191406 248.68792724609375 171.17210388183594 C 249.5269012451172 171.38987731933594 251.033447265625 172.86439514160156 249.17918395996094 175.33160400390625 C 250.50872802734375 179.3919219970703 248.47377014160156 182.85140991210938 245.70541381835938 187.6475372314453 C 244.53085327148438 190.85060119628906 244.2167205810547 196.98411560058594 245.03074645996094 207.7952423095703 C 245.84828186035156 217.01303100585938 247.7939453125 229.31988525390625 247.53689575195312 233.8184051513672 C 248.8735809326172 238.31674194335938 244.81651306152344 233.4175567626953 246.22817993164062 237.4227294921875 C 246.04608154296875 241.42503356933594 246.5443878173828 254.3321990966797 245.59475708007812 255.9124755859375 C 246.2388153076172 259.086181640625 240.65379333496094 255.71670532226562 236.7066650390625 252.4850616455078 C 231.16586303710938 252.440185546875 224.07557678222656 254.12525939941406 216.48196411132812 255.67825317382812 C 207.29466247558594 255.63746643066406 199.1975555419922 257.058349609375 191.63246154785156 256.96710205078125 C 184.0675048828125 255.27828979492188 177.03424072265625 250.48374938964844 168.51950073242188 247.06358337402344 C 160.00479125976562 243.63983154296875 150.01205444335938 241.5905303955078 147.73220825195312 237.06724548339844 C 143.858642578125 232.5403289794922 146.10426330566406 225.54283142089844 145.26731872558594 219.1009063720703 C 146.024169921875 215.84640502929688 145.28875732421875 213.15097045898438 143.90353393554688 211.166015625 C 144.1121063232422 207.5872802734375 142.0771484375 206.31631469726562 139.37457275390625 203.9385986328125 C 135.07464599609375 201.56100463867188 131.7008819580078 198.07687377929688 139.2424774169922 196.32508850097656 C 145.19027709960938 192.9798583984375 160.4632110595703 189.77389526367188 171.2807159423828 184.7721710205078 C 182.09815979003906 179.7704315185547 186.86993408203125 171.37557983398438 196.73416137695312 172.0661163330078 C 206.59844970703125 171.1628875732422 221.5579833984375 176.1538543701172 230.3339080810547 174.770751953125 C 239.1093292236328 176.57516479492188 243.29710388183594 172.00543212890625 246.23533630371094 171.97329711914062 C 249.16969299316406 170.34384155273438 249.26129150390625 176.43923950195312 251.12640380859375 180.94839477539062 C 251.39773559570312 185.45750427246094 250.25167846679688 189.97019958496094 250.4822235107422 192.8691864013672 C 252.3065948486328 195.76812744140625 257.1048278808594 197.0533447265625 255.4911651611328 195.6845245361328 C 255.47457885742188 195.9097900390625 247.45269775390625 196.67138671875 238.35458374023438 199.50096130371094 C 232.44036865234375 205.5181121826172 225.44654846191406 215.1967010498047 215.7235870361328 219.07591247558594 C 207.599365234375 226.14268493652344 199.93087768554688 227.41368103027344 184.807861328125 230.95523071289062 C 169.68125915527344 234.4967803955078 148.68898010253906 240.3160858154297 137.49655151367188 242.1260223388672 C 126.30376434326172 242.34619140625 124.91171264648438 240.15390014648438 119.1162338256836 240.59658813476562 C 114.91085052490234 241.039306640625 109.4854736328125 245.7104949951172 103.52202606201172 244.980712890625 C 99.1521224975586 247.4418182373047 97.42774200439453 246.09608459472656 97.55625915527344 243.92901611328125 C 97.68836212158203 240.16819763183594 101.20384216308594 237.176513671875 100.85655975341797 234.359619140625 C 100.4495620727539 231.54278564453125 96.05323791503906 230.49464416503906 96.01397705078125 227.93492126464844 C 97.56848907470703 225.37872314453125 100.29248809814453 222.9046173095703 102.63805389404297 219.8343048095703 C 103.39341735839844 215.17027282714844 106.95787811279297 213.09390258789062 109.94966888427734 209.5988006591797 C 112.94123840332031 204.5111846923828 116.95064544677734 202.78341674804688 119.59606170654297 198.84556579589844 C 120.64778900146484 193.31396484375 121.9259033203125 188.76206970214844 126.1457748413086 189.23480224609375 C 130.36566162109375 188.1138153076172 137.53466796875 190.42724609375 144.01571655273438 190.215087890625 C 148.9031524658203 191.59674072265625 151.51283264160156 192.04299926757812 154.65097045898438 191.9979705810547 C 156.19546508789062 188.76564025878906 159.85838317871094 185.03843688964844 161.65908813476562 185.71328735351562 C 161.8662872314453 187.98165893554688 157.02830505371094 191.46859741210938 157.53929138183594 194.84339904785156 C 156.46104431152344 196.62469482421875 157.5482635498047 193.51820373535156 158.75193786621094 195.23597717285156 C 161.5470733642578 195.3611297607422 166.0489959716797 197.12832641601562 165.74195861816406 197.8636474609375 C 165.43504333496094 197.00547790527344 160.31915283203125 198.29933166503906 156.69180297851562 198.1886749267578 C 154.65606689453125 196.48435974121094 152.5221405029297 198.15650939941406 146.45314025878906 198.20651245117188 C 141.9757537841797 198.2600555419922 135.1603240966797 198.28506469726562 128.4235076904297 195.8038330078125 C 121.68670654296875 193.3190155029297 115.0320053100586 188.32440185546875 110.62290954589844 183.8260498046875 C 106.2174301147461 179.3275909423828 105.6512222290039 173.7389678955078 97.07582092285156 168.2838134765625 C 88.50039672851562 162.83224487304688 71.91216278076172 157.52117919921875 66.55489349365234 150.63673400878906 C 59.60387420654297 145.34580993652344 60.696319580078125 141.67575073242188 58.03506851196289 138.62481689453125 C 56.96403121948242 133.98008728027344 53.73308181762695 128.36785888671875 54.063053131103516 123.4395980834961 C 52.79920196533203 120.10516357421875 51.90519332885742 120.6420669555664 51.03407287597656 119.61036682128906 C 50.159400939941406 118.57502746582031 47.710296630859375 117.56112670898438 46.3072509765625 116.55790710449219 C 46.49796676635742 113.96092987060547 46.14094161987305 112.9720230102539 45.025577545166016 112.34368133544922 C 47.09763717651367 111.71546173095703 48.41510009765625 111.45148468017578 45.386146545410156 110.8600082397461 C 45.54472732543945 108.67864990234375 41.360572814941406 102.98281860351562 45.873199462890625 103.35052490234375 C 48.78848648071289 105.31204223632812 61.99433517456055 110.15312957763672 68.0421142578125 111.8739242553711 C 74.08990478515625 113.5947036743164 72.97959899902344 110.60145568847656 76.78176879882812 109.94810485839844 C 82.18109130859375 110.885009765625 90.89945220947266 110.97425079345703 95.27286529541016 110.38874816894531 C 99.6462631225586 109.80680847167969 98.07762908935547 106.95640563964844 99.3735122680664 107.30623626708984 C 100.66952514648438 109.24626922607422 104.8299789428711 109.60543823242188 107.09000396728516 110.65499877929688 C 107.75645446777344 113.30193328857422 109.70942687988281 113.45543670654297 112.46300506591797 112.87710571289062 C 113.61961364746094 112.29866790771484 112.39055633544922 109.39534759521484 112.46865844726562 111.59532165527344 C 112.54719543457031 112.20236206054688 112.34013366699219 114.72643280029297 114.17520904541016 114.85140991210938 C 117.60396575927734 114.97634887695312 119.89229583740234 111.1012954711914 123.06626892089844 112.15444946289062 C 124.64776611328125 113.20780181884766 122.34004211425781 117.5882568359375 121.56896209716797 122.87210083007812 C 122.39511108398438 129.74951171875 121.57398986816406 135.93292236328125 121.20267486572266 140.25270080566406 C 120.83135223388672 144.57240295410156 120.90989685058594 147.024658203125 117.9166488647461 148.212646484375 C 116.51359558105469 150.99375915527344 113.63251495361328 154.1033477783203 114.54290771484375 158.52671813964844 C 115.45328521728516 164.5474395751953 120.15869903564453 170.28817749023438 119.57677459716797 170.97213745117188 C 118.99485778808594 173.2498779296875 113.12920379638672 172.05747985839844 111.20276641845703 173.72262573242188 C 107.68264770507812 173.79403686523438 106.50450897216797 175.13282775878906 106.17817687988281 178.1317138671875 C 107.44551849365234 181.130615234375 111.1620101928711 185.7896270751953 109.2805404663086 186.0880126953125 C 107.4026870727539 189.57394409179688 99.93043518066406 188.69215393066406 96.51740264892578 187.97454833984375 C 93.10445404052734 187.2568817138672 93.75099182128906 185.10980224609375 91.24578857421875 187.14984130859375 C 87.14730834960938 187.5996856689453 78.30413055419922 189.05270385742188 74.01493072509766 184.35293579101562 C 71.31948852539062 181.2435302734375 74.76823425292969 175.1649169921875 77.03319549560547 172.8265380859375 C 76.11100769042969 170.4873046875 74.00081634521484 173.47964477539062 73.18666076660156 172.54449462890625 C 72.37274932861328 171.60874938964844 72.8510971069336 166.74618530273438 71.97643280029297 165.4363250732422 C 71.10304260253906 164.12594604492188 68.87073516845703 164.77818298339844 67.4871826171875 164.8744354248047 C 67.69009399414062 164.97116088867188 67.1436767578125 162.91798400878906 68.76333618164062 162.60733032226562 C 71.97665405273438 163.88673400878906 78.94884490966797 163.72122192382812 84.26116943359375 161.29708862304688 C 91.16728210449219 160.46678161621094 94.81951904296875 154.19052124023438 100.84587860107422 154.16554260253906 C 105.27489471435547 154.14053344726562 113.67180633544922 160.36326599121094 120.49072265625 159.1014862060547 C 127.3096694946289 159.4335174560547 132.55418395996094 153.8677215576172 137.7986602783203 148.30552673339844 C 143.04319763183594 144.3369903564453 147.9520721435547 147.75360107421875 154.45477294921875 149.57998657226562" stroke-width="4.164067268371582" fill="none" stroke="rgb(30, 17, 22)" stroke-opacity="1.0" stroke-linecap="round" stroke-linejoin="round"/>
    <path d="M 114.47651672363281 185.61679077148438 C 105.43931579589844 188.5550537109375 97.99918365478516 191.49325561523438 90.55546569824219 194.43142700195312 C 83.1121826171875 197.36964416503906 103.15451049804688 193.88876342773438 123.193359375 190.4078826904297" stroke-width="3.651052474975586" fill="none" stroke="rgb(119, 230, 179)" stroke-opacity="0.051340543" stroke-linecap="round" stroke-linejoin="round"/>
    <path d="M 196.62496948242188 175.71835327148438 C 203.22254943847656 174.74578857421875 203.52955627441406 193.11761474609375 214.2063446044922 197.20692443847656" stroke-width="4.614697456359863" fill="none" stroke="rgb(206, 43, 75)" stroke-opacity="0.90696" stroke-linecap="round" stroke-linejoin="round"/>
    <path d="M 139.9049835205078 152.9966278076172 C 150.0454559326172 136.99900817871094 161.30221557617188 132.1551971435547 152.9588623046875 145.35450744628906" stroke-width="3.997248888015747" fill="none" stroke="rgb(145, 64, 224)" stroke-opacity="0.82294" stroke-linecap="round" stroke-linejoin="round"/>
    <path d="M 151.80560302734375 185.7703857421875 C 149.27029418945312 185.80963134765625 148.330810546875 184.26109313964844 147.38868713378906 182.70851135253906 C 148.0384063720703 181.15557861328125 165.34249877929688 180.24160766601562 181.0542449951172 177.73104858398438" stroke-width="3.3035330772399902" fill="none" stroke="rgb(151, 204, 58)" stroke-opacity="0.12696007" stroke-linecap="round" stroke-linejoin="round"/>
    <path d="M 48.893516540527344 104.0931625366211 C 53.166934967041016 111.52971649169922 57.440364837646484 118.96984100341797 61.71379089355469 126.4063949584961 C 64.39350128173828 133.84295654296875 40.41664505004883 135.47242736816406 18.033321380615234 135.50454711914062" stroke-width="3.1876046657562256" fill="none" stroke="rgb(237, 19, 119)" stroke-opacity="0.45756" stroke-linecap="round" stroke-linejoin="round"/>
    <path d="M 227.37998962402344 180.9327850341797 C 221.11099243164062 188.75144958496094 216.43194580078125 198.16366577148438 208.56907653808594 204.38845825195312 C 202.29994201660156 212.20703125 191.90870666503906 216.41409301757812 179.9275360107422 219.02389526367188" stroke-width="4.24155855178833" fill="none" stroke="rgb(255, 0, 60)" stroke-opacity="0.57221" stroke-linecap="round" stroke-linejoin="round"/>
    <path d="M 255.78892517089844 197.4032440185547 C 258.2630310058594 191.2804412841797 260.73712158203125 185.15769958496094 263.21112060546875 179.0349578857422 C 264.0915222167969 172.9119110107422 263.3739013671875 164.772216796875 262.6563415527344 156.63235473632812" stroke-width="3.1876046657562256" fill="none" stroke="rgb(30, 219, 108)" stroke-opacity="0.53727" stroke-linecap="round" stroke-linejoin="round"/>
    <path d="M 108.32524108886719 112.59135437011719 C 111.50257873535156 118.46659851074219 114.67626190185547 125.93922424316406 117.85389709472656 135.00111389160156 C 119.43754577636719 142.4698486328125 128.003662109375 137.8286895751953 133.38597106933594 133.1875457763672" stroke-width="3.1876046657562256" fill="none" stroke="rgb(247, 125, 243)" stroke-opacity="0.62856996" stroke-linecap="round" stroke-linejoin="round"/>
    <path d="M 122.38079833984375 193.67601013183594 C 123.78262329101562 184.86856079101562 125.08563995361328 171.68768310546875 112.79499053955078 183.3441162109375" stroke-width="3.1876046657562256" fill="none" stroke="rgb(100, 88, 136)" stroke-opacity="0.40246025" stroke-linecap="round" stroke-linejoin="round"/>
    <path d="M 135.14959716796875 128.13075256347656 C 129.9851531982422 141.05252075195312 119.76033782958984 133.59097290039062 108.70011138916016 146.62547302246094" stroke-width="3.1876046657562256" fill="none" stroke="rgb(80, 23, 184)" stroke-opacity="0.62773" stroke-linecap="round" stroke-linejoin="round"/>
    <path d="M 156.59324645996094 141.69004821777344 C 170.2382049560547 141.58651733398438 184.806396484375 155.90269470214844 171.3505859375 156.59527587890625" stroke-width="3.3352794647216797" fill="none" stroke="rgb(78, 243, 20)" stroke-opacity="0.39483997" stroke-linecap="round" stroke-linejoin="round"/>
    <path d="M 16.36260223388672 132.04510498046875 C 7.075258255004883 127.40276336669922 11.070189476013184 134.72267150878906 16.129060745239258 139.71099853515625" stroke-width="4.342832088470459" fill="none" stroke="rgb(237, 232, 200)" stroke-opacity="0.6547403" stroke-linecap="round" stroke-linejoin="round"/>
    <path d="M 173.64260864257812 176.7102813720703 C 167.3020782470703 173.30496215820312 160.96156311035156 168.30320739746094 156.21481323242188 163.30447387695312 C 149.874267578125 158.306884765625 145.46876525878906 168.77804565429688 141.063232421875 179.2527618408203" stroke-width="3.1876046657562256" fill="none" stroke="rgb(3, 119, 141)" stroke-opacity="0.73417" stroke-linecap="round" stroke-linejoin="round"/>
    <path d="M 180.47592163085938 181.2447052001953 C 179.14144897460938 175.82823181152344 176.2179412841797 172.0006103515625 174.4686279296875 170.5831756591797 C 172.718994140625 170.75885009765625 172.15164184570312 171.74459838867188 171.5804443359375 172.72898864746094 C 171.00914001464844 172.12901306152344 166.37173461914062 168.46954345703125 161.73062133789062 164.8101348876953" stroke-width="3.1876046657562256" fill="none" stroke="rgb(235, 10, 190)" stroke-opacity="0.06804998" stroke-linecap="round" stroke-linejoin="round"/>
    <path d="M 175.75267028808594 219.79010009765625 C 178.5879364013672 219.77593994140625 179.8309326171875 221.35826110839844 178.09593200683594 223.28988647460938 C 174.76739501953125 223.63156127929688 171.64794921875 229.1019287109375 166.92739868164062 232.98175048828125 C 162.2231903076172 236.8636474609375 158.22470092773438 239.0664520263672 152.63607788085938 241.27276611328125" stroke-width="3.1876046657562256" fill="none" stroke="rgb(47, 149, 227)" stroke-opacity="0.24595001" stroke-linecap="round" stroke-linejoin="round"/>
    <path d="M 20.21686363220215 129.6767120361328 C 16.051799774169922 145.12908935546875 10.296791076660156 158.98834228515625 2.948716163635254 171.2556610107422 C -1.2207460403442383 185.11839294433594 1.4285115003585815 162.79258728027344 2.484380006790161 138.88372802734375" stroke-width="3.1876046657562256" fill="none" stroke="rgb(126, 90, 167)" stroke-opacity="0.004250019" stroke-linecap="round" stroke-linejoin="round"/>
    <path d="M 122.50780487060547 31.380577087402344 C 124.56929779052734 18.92725372314453 125.04053497314453 4.881093502044678 117.95235443115234 0.05787317454814911 C 114.05128479003906 -4.7655487060546875 102.59510040283203 -0.36700186133384705 91.1351318359375 4.0314202308654785 C 79.6786117553711 8.429791450500488 75.5622787475586 17.205141067504883 71.44950866699219 25.98050308227539" stroke-width="3.1876046657562256" fill="none" stroke="rgb(148, 123, 170)" stroke-opacity="0.46012998" stroke-linecap="round" stroke-linejoin="round"/>
    <path d="M 165.5111541748047 261.27142333984375 C 169.26702880859375 256.76934814453125 170.2738037109375 269.7788391113281 180.0518035888672 270.6927490234375" stroke-width="3.1876046657562256" fill="none" stroke="rgb(101, 47, 208)" stroke-opacity="0.0036700238" stroke-linecap="round" stroke-linejoin="round"/>
    <path d="M 191.5467529296875 137.9450225830078 C 189.96522521972656 145.1103515625 189.97731018066406 153.8687744140625 188.3994140625 161.0343780517578 C 186.8176727294922 168.1995391845703 190.87562561035156 172.7515411376953 196.52752685546875 177.30345153808594" stroke-width="4.263001441955566" fill="none" stroke="rgb(70, 71, 212)" stroke-opacity="0.15274999" stroke-linecap="round" stroke-linejoin="round"/>
    <path d="M 73.22591400146484 137.08612060546875 C 58.267127990722656 122.0987548828125 45.38615417480469 134.41192626953125 64.06499481201172 117.61674499511719" stroke-width="3.7190423011779785" fill="none" stroke="rgb(191, 186, 213)" stroke-opacity="0.65972" stroke-linecap="round" stroke-linejoin="round"/>
    <path d="M 313.39483642578125 52.01942825317383 C 303.3878479003906 55.45387649536133 294.9708557128906 58.88839340209961 291.1473693847656 65.18034362792969 C 287.3237609863281 69.87846374511719 288.0865783691406 75.84423828125 290.44610595703125 81.80996704101562 C 292.8082580566406 86.18195343017578 302.0611267089844 87.59207916259766 309.7226257324219 89.00226593017578" stroke-width="4.242690086364746" fill="none" stroke="rgb(79, 62, 250)" stroke-opacity="0.90223" stroke-linecap="round" stroke-linejoin="round"/>
    <path d="M 312.8072509765625 331.64306640625 C 311.6326904296875 323.9554748535156 310.4580993652344 317.8577880859375 307.6898193359375 313.3569641113281 C 306.5155029296875 305.669189453125 297.3587646484375 306.18328857421875 285.01251220703125 306.69793701171875" stroke-width="3.1876046657562256" fill="none" stroke="rgb(131, 240, 42)" stroke-opacity="0.07119001" stroke-linecap="round" stroke-linejoin="round"/>
    <path d="M 329.73321533203125 292.9502868652344 C 334.440673828125 272.80621337890625 342.3393249511719 255.85316467285156 340.6292419433594 248.523681640625 C 337.32568359375 239.6005401611328 327.6039733886719 243.491943359375 317.88250732421875 247.37979125976562 C 309.75482177734375 252.86500549316406 320.9363708496094 247.9203643798828 332.1180419921875 242.9793701171875" stroke-width="3.1876046657562256" fill="none" stroke="rgb(1, 168, 168)" stroke-opacity="0.9243901" stroke-linecap="round" stroke-linejoin="round"/>
    <path d="M 195.8716278076172 254.07882690429688 C 198.41351318359375 252.58644104003906 200.95545959472656 251.09060668945312 197.71719360351562 251.0035858154297 C 194.47857666015625 250.9191436767578 185.45738220214844 252.240234375 176.4267578125 253.564697265625 C 167.42138671875 253.2919464111328 171.3949432373047 261.5211181640625 173.77471923828125 271.3438720703125" stroke-width="3.1876046657562256" fill="none" stroke="rgb(156, 129, 99)" stroke-opacity="0.7576901" stroke-linecap="round" stroke-linejoin="round"/>
    <path d="M 334.9812927246094 59.99507141113281 C 330.1615905761719 39.224143981933594 342.437744140625 23.694372177124023 336.2201232910156 19.845521926879883" stroke-width="3.3889944553375244" fill="none" stroke="rgb(170, 149, 49)" stroke-opacity="0.5942" stroke-linecap="round" stroke-linejoin="round"/>
    <path d="M 129.75665283203125 275.0839538574219 C 137.90725708007812 277.004638671875 146.0578155517578 278.9289245605469 154.20838928222656 280.84967041015625 C 160.7652130126953 284.3641357421875 150.3227081298828 284.3570251464844 141.47735595703125 284.3463439941406" stroke-width="4.131407260894775" fill="none" stroke="rgb(102, 67, 4)" stroke-opacity="0.51916003" stroke-linecap="round" stroke-linejoin="round"/>
    <path d="M 64.67550659179688 166.1004638671875 C 77.95276641845703 172.44454956054688 91.23003387451172 178.7850799560547 96.69954681396484 178.14093017578125 C 102.16886901855469 180.68431091308594 99.83399963378906 176.2360076904297 99.089111328125 170.1974639892578 C 95.16860961914062 165.7526397705078 100.73013305664062 164.72801208496094 107.89681243896484 163.70700073242188" stroke-width="3.768465995788574" fill="none" stroke="rgb(228, 249, 211)" stroke-opacity="0.77301997" stroke-linecap="round" stroke-linejoin="round"/>
    <path d="M 331.2562255859375 79.20946502685547 C 344.4802551269531 67.77567291259766 339.0570373535156 64.54122161865234 347.4216613769531 79.9379653930664" stroke-width="3.1876046657562256" fill="none" stroke="rgb(38, 243, 146)" stroke-opacity="0.13498001" stroke-linecap="round" stroke-linejoin="round"/>
    <path d="M 347.5187683105469 360.40692138671875 C 358.8539123535156 360.8531799316406 370.192626953125 361.2994689941406 380.3281555175781 352.9239501953125 C 390.46728515625 344.5484619140625 399.40325927734375 327.3547668457031 408.3428649902344 310.15753173828125 C 417.2824401855469 292.96026611328125 422.9196472167969 302.5424499511719 428.5568542480469 312.12109375" stroke-width="3.1876046657562256" fill="none" stroke="rgb(149, 169, 230)" stroke-opacity="0.06424" stroke-linecap="round" stroke-linejoin="round"/>
    <path d="M 96.80448913574219 164.390380859375 C 94.34451293945312 169.3917694091797 91.88483428955078 174.39376831054688 87.83126831054688 177.8018035888672 C 85.37150573730469 182.80368041992188 88.02198028564453 182.56581115722656 89.07518768310547 180.73793029785156" stroke-width="4.551056385040283" fill="none" stroke="rgb(170, 54, 27)" stroke-opacity="0.73307" stroke-linecap="round" stroke-linejoin="round"/>
    <path d="M 100.61341094970703 204.70053100585938 C 111.45980072021484 205.90219116210938 120.71710205078125 208.69757080078125 129.9708709716797 211.48941040039062 C 139.224609375 214.28485107421875 137.55731201171875 223.72781372070312 134.29637145996094 234.76451110839844" stroke-width="3.1876046657562256" fill="none" stroke="rgb(28, 189, 72)" stroke-opacity="0.49947" stroke-linecap="round" stroke-linejoin="round"/>
    <path d="M 159.29580688476562 100.0568618774414 C 166.48809814453125 85.71063995361328 155.5436248779297 68.14207458496094 145.08319091796875 52.18159484863281" stroke-width="3.1876046657562256" fill="none" stroke="rgb(223, 16, 178)" stroke-opacity="0.91473" stroke-linecap="round" stroke-linejoin="round"/>
    <path d="M 122.08448028564453 159.10150146484375 C 124.37455749511719 158.43563842773438 135.14862060546875 164.82302856445312 142.24313354492188 162.95057678222656 C 129.617431640625 157.09832763671875 141.8004913330078 146.44337463378906 141.8294677734375 148.08839416503906" stroke-width="3.506364345550537" fill="none" stroke="rgb(177, 0, 99)" stroke-opacity="0.46618629" stroke-linecap="round" stroke-linejoin="round"/>
    <path d="M 148.98170471191406 181.1148681640625 C 153.3065643310547 180.44937133789062 152.7283477783203 184.80917358398438 139.97508239746094 191.9992218017578 C 155.74130249023438 207.12722778320312 167.44659423828125 196.57260131835938 159.85360717773438 203.5358428955078" stroke-width="3.1876046657562256" fill="none" stroke="rgb(213, 82, 245)" stroke-opacity="0.6654165" stroke-linecap="round" stroke-linejoin="round"/>
    <path d="M 97.49557495117188 171.79116821289062 C 80.38163757324219 158.22506713867188 92.08013916015625 161.11741638183594 90.46643829345703 171.27178955078125" stroke-width="3.1876046657562256" fill="none" stroke="rgb(85, 13, 231)" stroke-opacity="0.11596987" stroke-linecap="round" stroke-linejoin="round"/>
    <path d="M 139.24244689941406 194.73129272460938 C 127.71070861816406 191.71142578125 132.45443725585938 195.04856872558594 121.36624908447266 208.13035583496094 C 123.70729064941406 210.6342010498047 120.73585510253906 196.77618408203125 104.89300537109375 206.99476623535156 C 114.37188720703125 203.2864227294922 113.40199279785156 201.5299835205078 106.79966735839844 200.93666076660156" stroke-width="3.506364345550537" fill="none" stroke="rgb(231, 98, 212)" stroke-opacity="0.35047215" stroke-linecap="round" stroke-linejoin="round"/>
    <path d="M 155.945556640625 194.8434600830078 C 144.2356414794922 187.66233825683594 146.94981384277344 177.02186584472656 131.80929565429688 178.3876190185547 C 143.3997344970703 175.66297912597656 148.236328125 185.55856323242188 145.6759490966797 198.72776794433594 C 163.13514709472656 209.18887329101562 145.75970458984375 195.65463256835938 143.78982543945312 201.24554443359375" stroke-width="3.1876046657562256" fill="none" stroke="rgb(148, 83, 62)" stroke-opacity="0.31490153" stroke-linecap="round" stroke-linejoin="round"/>
    <path d="M 134.29637145996094 233.1708984375 C 142.7324981689453 228.8415985107422 132.16026306152344 231.21661376953125 135.3188934326172 233.8375701904297 C 138.90420532226562 241.58204650878906 126.89736938476562 236.7379913330078 143.4702911376953 251.792724609375 C 160.5092315673828 254.27700805664062 156.53614807128906 252.8853302001953 157.33717346191406 239.2340850830078" stroke-width="3.1876046657562256" fill="none" stroke="rgb(240, 30, 58)" stroke-opacity="0.54587597" stroke-linecap="round" stroke-linejoin="round"/>
    <path d="M 247.2991485595703 186.05599975585938 C 232.99786376953125 196.7644500732422 229.87303161621094 208.12457275390625 236.88600158691406 191.78631591796875 C 247.23568725585938 208.83119201660156 229.5155792236328 207.4310760498047 221.95362854003906 201.8323211669922" stroke-width="3.5063633918762207" fill="none" stroke="rgb(231, 50, 183)" stroke-opacity="0.07500735" stroke-linecap="round" stroke-linejoin="round"/>
    <path d="M 193.22622680664062 256.9670715332031 C 199.50430297851562 238.6034393310547 215.70266723632812 249.38490295410156 209.6658172607422 237.5614471435547 C 200.7618865966797 220.71063232421875 184.16229248046875 222.6566925048828 187.18321228027344 209.86288452148438 C 200.8546905517578 214.9217529296875 186.46343994140625 227.13674926757812 191.2019500732422 229.24203491210938" stroke-width="3.1876046657562256" fill="none" stroke="rgb(42, 35, 229)" stroke-opacity="0.7282624" stroke-linecap="round" stroke-linejoin="round"/>
    <path d="M 143.78982543945312 201.2455291748047 C 146.60519409179688 209.3306427001953 136.51678466796875 213.86618041992188 135.5530242919922 229.19927978515625 C 128.3056182861328 211.36300659179688 112.86842346191406 213.33477783203125 125.7374267578125 198.7815704345703" stroke-width="3.5063648223876953" fill="none" stroke="rgb(222, 236, 32)" stroke-opacity="0.6275627" stroke-linecap="round" stroke-linejoin="round"/>
    <path d="M 159.8535919189453 203.5358428955078 C 165.4398956298828 188.3109130859375 182.81544494628906 197.08741760253906 194.85353088378906 205.602783203125 C 206.22911071777344 220.5198516845703 219.77076721191406 219.62083435058594 204.67320251464844 223.8054656982422 C 188.2161865234375 220.48658752441406 183.38865661621094 204.83346557617188 176.65513610839844 192.3190460205078" stroke-width="3.1876046657562256" fill="none" stroke="rgb(136, 12, 154)" stroke-opacity="0.8278925" stroke-linecap="round" stroke-linejoin="round"/>
    <path d="M 157.33718872070312 239.2340850830078 C 165.028564453125 243.63424682617188 153.171630859375 259.1043395996094 163.9285888671875 247.5054473876953 C 175.69680786132812 252.31015014648438 179.07589721679688 263.72991943359375 179.3166046142578 280.9071350097656" stroke-width="3.506364345550537" fill="none" stroke="rgb(31, 0, 146)" stroke-opacity="0.62290645" stroke-linecap="round" stroke-linejoin="round"/>
    <path d="M 90.46643829345703 172.86553955078125 C 92.5252685546875 162.23048400878906 77.13230895996094 154.4613037109375 93.4489974975586 143.86166381835938 C 97.5836181640625 133.42959594726562 93.34944915771484 146.555908203125 81.18064880371094 147.4394989013672" stroke-width="3.506364107131958" fill="none" stroke="rgb(117, 228, 219)" stroke-opacity="0.78611076" stroke-linecap="round" stroke-linejoin="round"/>
    <path d="M 221.95361328125 201.83233642578125 C 215.82666015625 214.09580993652344 234.14846801757812 219.339111328125 247.66627502441406 204.57156372070312 C 243.4745635986328 206.1257781982422 258.9136657714844 208.00363159179688 239.64280700683594 224.25830078125 C 251.4651641845703 238.53692626953125 237.1653594970703 223.8928680419922 245.12240600585938 225.46511840820312" stroke-width="3.1876046657562256" fill="none" stroke="rgb(187, 173, 187)" stroke-opacity="0.5752876" stroke-linecap="round" stroke-linejoin="round"/>
    <path d="M 159.85360717773438 203.5358428955078 C 161.760498046875 195.29518127441406 145.71987915039062 187.97433471679688 159.17584228515625 172.86373901367188" stroke-width="3.1876046657562256" fill="none" stroke="rgb(202, 47, 190)" stroke-opacity="0.34597352" stroke-linecap="round" stroke-linejoin="round"/>
    <path d="M 143.4232635498047 149.68215942382812 C 148.4954071044922 130.60853576660156 153.34609985351562 141.248779296875 150.54019165039062 154.59681701660156" stroke-width="3.5063648223876953" fill="none" stroke="rgb(25, 105, 32)" stroke-opacity="0.64492315" stroke-linecap="round" stroke-linejoin="round"/>
    <path d="M 221.95361328125 201.83236694335938 C 212.3723602294922 191.4232635498047 218.5510711669922 205.68934631347656 202.91671752929688 190.9650115966797" stroke-width="3.1876046657562256" fill="none" stroke="rgb(121, 50, 189)" stroke-opacity="0.08584854" stroke-linecap="round" stroke-linejoin="round"/>
    <path d="M 309.4128723144531 9.49233341217041 C 297.5726623535156 -5.607398986816406 303.32501220703125 -17.854333877563477 300.0294494628906 -10.089838027954102 C 298.98089599609375 -9.64365005493164 300.23077392578125 0.7235207557678223 310.58660888671875 6.3472161293029785" stroke-width="3.1876046657562256" fill="none" stroke="rgb(136, 32, 226)" stroke-opacity="0.19479881" stroke-linecap="round" stroke-linejoin="round"/>
    <path d="M 224.99716186523438 120.34100341796875 C 211.37596130371094 132.0555877685547 227.0962371826172 114.6919937133789 237.1499786376953 120.85049438476562 C 227.1334686279297 122.23299407958984 232.6335906982422 133.7378692626953 250.56307983398438 121.11912536621094 C 238.61380004882812 109.5851821899414 251.17564392089844 103.45487213134766 255.06637573242188 99.89130401611328" stroke-width="3.5063636302948" fill="none" stroke="rgb(45, 255, 242)" stroke-opacity="0.3775058" stroke-linecap="round" stroke-linejoin="round"/>
    <path d="M 116.8110122680664 140.80889892578125 C 109.72576141357422 140.9469451904297 94.67961120605469 123.36725616455078 78.61844635009766 132.3542022705078 C 82.96711730957031 146.83770751953125 88.21887969970703 136.59469604492188 99.29551696777344 126.57075500488281 C 83.24390411376953 117.49451446533203 89.61302947998047 128.00149536132812 108.97903442382812 141.71080017089844" stroke-width="3.5063624382019043" fill="none" stroke="rgb(102, 52, 185)" stroke-opacity="0.038084302" stroke-linecap="round" stroke-linejoin="round"/>
    <path d="M 21.690330505371094 219.59835815429688 C 7.289029598236084 204.87054443359375 -0.2618924379348755 188.7002410888672 -11.687651634216309 189.38894653320312" stroke-width="3.5063557624816895" fill="none" stroke="rgb(33, 160, 136)" stroke-opacity="0.57170177" stroke-linecap="round" stroke-linejoin="round"/>
    <path d="M 340.4000549316406 165.95425415039062 C 329.8824157714844 154.9824981689453 323.6952209472656 160.7991180419922 306.5586853027344 165.53785705566406" stroke-width="3.1876046657562256" fill="none" stroke="rgb(237, 129, 82)" stroke-opacity="0.0060012117" stroke-linecap="round" stroke-linejoin="round"/>
    <path d="M 120.5212173461914 291.5840759277344 C 122.7134017944336 276.1928405761719 104.97667694091797 289.9347839355469 104.67090606689453 283.90118408203125 C 116.24163055419922 284.5910339355469 105.32042694091797 278.7886047363281 91.6888427734375 286.14093017578125 C 93.38594818115234 300.4110412597656 101.46125793457031 283.1122131347656 105.22909545898438 279.5138244628906" stroke-width="3.1876046657562256" fill="none" stroke="rgb(35, 0, 157)" stroke-opacity="0.25699002" stroke-linecap="round" stroke-linejoin="round"/>
    <path d="M 160.2249755859375 162.07896423339844 C 162.68893432617188 155.54705810546875 173.1952667236328 173.164306640625 169.6434783935547 177.0366668701172 C 179.0203399658203 165.20680236816406 167.79519653320312 177.48355102539062 151.92852783203125 177.40386962890625" stroke-width="3.1876046657562256" fill="none" stroke="rgb(37, 85, 0)" stroke-opacity="0.62075007" stroke-linecap="round" stroke-linejoin="round"/>
    <path d="M 134.84988403320312 150.6044158935547 C 117.10689544677734 141.86790466308594 109.60240173339844 129.27511596679688 104.29814910888672 129.542236328125 C 95.49629211425781 135.1331329345703 81.28964233398438 128.92037963867188 69.56295013427734 129.02877807617188" stroke-width="3.1876046657562256" fill="none" stroke="rgb(238, 128, 117)" stroke-opacity="0.71109825" stroke-linecap="round" stroke-linejoin="round"/>
    <path d="M 257.1775207519531 277.88555908203125 C 239.3301544189453 265.88592529296875 227.92088317871094 274.1935729980469 236.57888793945312 282.50860595703125 C 229.7240447998047 287.76654052734375 235.2519989013672 297.17266845703125 238.28297424316406 286.6650085449219 C 229.16473388671875 282.9438171386719 244.17428588867188 266.19122314453125 262.775146484375 262.9595642089844" stroke-width="3.506364345550537" fill="none" stroke="rgb(224, 68, 212)" stroke-opacity="0.80227613" stroke-linecap="round" stroke-linejoin="round"/>
    <path d="M 59.95955276489258 20.870756149291992 C 42.63872528076172 28.91836166381836 46.895782470703125 25.833206176757812 51.47139358520508 22.705123901367188 C 48.66762161254883 11.101006507873535 38.23983383178711 23.411771774291992 50.42903137207031 7.015275478363037" stroke-width="3.1876046657562256" fill="none" stroke="rgb(201, 201, 20)" stroke-opacity="0.54283637" stroke-linecap="round" stroke-linejoin="round"/>
    <path d="M 270.87371826171875 310.3177185058594 C 262.0621337890625 296.99267578125 267.5618591308594 304.6298522949219 283.6861572265625 295.2723083496094 C 296.2144775390625 291.0445251464844 294.46124267578125 307.2867431640625 308.53704833984375 310.2038879394531 C 298.2861022949219 318.3080749511719 305.74884033203125 323.3694763183594 292.4221496582031 335.67034912109375" stroke-width="3.5063648223876953" fill="none" stroke="rgb(118, 26, 183)" stroke-opacity="0.5068584" stroke-linecap="round" stroke-linejoin="round"/>
    <path d="M 159.01043701171875 168.04336547851562 C 158.93994140625 154.47154235839844 148.74879455566406 170.89292907714844 133.6886749267578 174.24627685546875" stroke-width="3.506362199783325" fill="none" stroke="rgb(218, 129, 187)" stroke-opacity="0.13299204" stroke-linecap="round" stroke-linejoin="round"/>
    <path d="M 123.34976196289062 269.06317138671875 C 114.27532958984375 260.2268371582031 107.66878509521484 253.49765014648438 112.94638061523438 241.96514892578125 C 123.43806457519531 232.04473876953125 136.63536071777344 229.68267822265625 150.43580627441406 218.31422424316406 C 139.3428497314453 209.9694061279297 145.20364379882812 198.53355407714844 152.68081665039062 204.177001953125" stroke-width="3.5063579082489014" fill="none" stroke="rgb(183, 206, 48)" stroke-opacity="0.10159817" stroke-linecap="round" stroke-linejoin="round"/>
    <path d="M 72.81671905517578 317.6972961425781 C 85.62528228759766 310.65386962890625 76.58059692382812 296.97772216796875 89.26593780517578 278.31915283203125" stroke-width="3.506364345550537" fill="none" stroke="rgb(43, 104, 178)" stroke-opacity="0.8619305" stroke-linecap="round" stroke-linejoin="round"/>
    <path d="M 272.08782958984375 255.99900817871094 C 255.4787139892578 250.65773010253906 261.50933837890625 246.49749755859375 255.90370178222656 234.30113220214844 C 269.70068359375 251.78677368164062 288.388671875 263.8470153808594 293.94464111328125 264.2096252441406 C 288.3110046386719 275.6875915527344 301.7448425292969 261.4229736328125 296.41363525390625 273.7877197265625" stroke-width="3.506364107131958" fill="none" stroke="rgb(97, 32, 46)" stroke-opacity="0.42774534" stroke-linecap="round" stroke-linejoin="round"/>
    <path d="M 33.79644012451172 19.004009246826172 C 20.86893653869629 11.970197677612305 36.894325256347656 14.266400337219238 43.71194839477539 29.326662063598633" stroke-width="3.1876046657562256" fill="none" stroke="rgb(16, 76, 199)" stroke-opacity="0.97675204" stroke-linecap="round" stroke-linejoin="round"/>
  </g>
</svg>
