<?xml version="1.0" ?>
<svg xmlns="http://www.w3.org/2000/svg" version="1.1" width="956.0" height="956.0">
  <defs/>
  <g>
    <path d="M 13.431022644042969 68.1659927368164 C 13.433338165283203 68.48949432373047 22.58356475830078 71.6246109008789 62.8444709777832 72.52865600585938 C 102.69571685791016 72.32132720947266 105.89013671875 70.26686096191406 110.20746612548828 69.97151947021484" stroke-width="1.0892857313156128" fill="none" stroke="rgb(0, 0, 2)" stroke-opacity="0.971517" stroke-linecap="round" stroke-linejoin="round"/>
    <path d="M 60.5911979675293 72.23916625976562 C 61.37281799316406 68.99893951416016 61.546043395996094 68.53536987304688 60.507232666015625 68.8563003540039" stroke-width="1.1770774126052856" fill="none" stroke="rgb(2, 0, 0)" stroke-opacity="1.0" stroke-linecap="round" stroke-linejoin="round"/>
    <path d="M 59.958473205566406 72.30331420898438 C 60.12358474731445 70.09538269042969 59.76430892944336 68.42293548583984 60.24581527709961 68.2506332397461 C 60.72800827026367 67.86515045166016 109.38627624511719 67.57758331298828 109.63570404052734 63.7874870300293" stroke-width="1.1710911989212036" fill="none" stroke="rgb(2, 0, 0)" stroke-opacity="1.0" stroke-linecap="round" stroke-linejoin="round"/>
    <path d="M 16.5386962890625 78.77374267578125 C 20.439401626586914 88.127197265625 28.367752075195312 96.8770980834961 34.49591827392578 96.45833587646484 C 40.71651077270508 95.17313385009766 83.36077117919922 95.25669860839844 88.40928649902344 96.48950958251953 C 92.27914428710938 95.25603485107422 105.622314453125 89.389892578125 105.8532943725586 79.93997955322266" stroke-width="1.0892857313156128" fill="none" stroke="rgb(0, 7, 0)" stroke-opacity="0.98641634" stroke-linecap="round" stroke-linejoin="round"/>
    <path d="M 28.185501098632812 86.96968078613281 C 29.543193817138672 89.45594787597656 32.923641204833984 91.60301208496094 35.97785949707031 92.18948364257812 C 38.93157958984375 90.90582275390625 42.055973052978516 89.44893646240234 43.75777053833008 89.38323974609375" stroke-width="1.0892857313156128" fill="none" stroke="rgb(0, 7, 0)" stroke-opacity="0.97210103" stroke-linecap="round" stroke-linejoin="round"/>
    <path d="M 35.99462127685547 92.3484115600586 C 35.845645904541016 85.5595474243164 35.83829116821289 77.75286102294922 36.17780685424805 76.7501220703125 C 35.539390563964844 75.96321868896484 33.8575325012207 77.11041259765625 33.58656692504883 76.51870727539062 C 34.42310333251953 75.11796569824219 35.28324508666992 72.82246398925781 36.1287841796875 72.65151977539062 C 36.86026382446289 72.9367904663086 37.246700286865234 73.53270721435547 35.69813537597656 75.07743835449219 C 34.82647705078125 76.81658935546875 34.754058837890625 75.99685668945312 34.91565704345703 76.74825286865234" stroke-width="1.2986512184143066" fill="none" stroke="rgb(7, 0, 0)" stroke-opacity="1.0" stroke-linecap="round" stroke-linejoin="round"/>
    <path d="M 32.657615661621094 77.42259216308594 C 35.03110122680664 76.16446685791016 35.88132858276367 76.83345031738281 37.48519515991211 76.70703125" stroke-width="1.1994044780731201" fill="none" stroke="rgb(7, 0, 7)" stroke-opacity="1.0" stroke-linecap="round" stroke-linejoin="round"/>
    <path d="M 14.413023948669434 67.23114776611328 C 16.096416473388672 73.94100189208984 15.972585678100586 75.81957244873047 17.26952362060547 77.30292510986328 C 18.353466033935547 78.18521118164062 40.475059509277344 80.84532928466797 62.91659164428711 81.64295196533203 C 85.29315948486328 81.15326690673828 106.45003509521484 80.0200424194336 107.5052719116211 79.29109954833984 C 108.8739242553711 78.07609558105469 109.85868835449219 71.11695098876953 111.14805603027344 64.74153900146484" stroke-width="1.0892857313156128" fill="none" stroke="rgb(2, 0, 2)" stroke-opacity="0.9744255" stroke-linecap="round" stroke-linejoin="round"/>
    <path d="M 46.73493576049805 35.316158294677734 C 47.08009719848633 35.202022552490234 46.0262336730957 35.28767395019531 46.78242874145508 35.80710220336914 C 45.84479904174805 36.071678161621094 44.985267639160156 35.89346694946289 44.60354232788086 36.01289367675781 C 44.43375015258789 34.378578186035156 43.52190017700195 33.370567321777344 42.69167709350586 32.62147521972656 C 40.69993591308594 32.533138275146484 38.352996826171875 29.370607376098633 38.804195404052734 28.06711196899414 C 38.42945098876953 25.874967575073242 38.57990264892578 25.28593635559082 38.641170501708984 24.80397605895996 C 37.97217559814453 23.099451065063477 38.09859848022461 22.119543075561523 39.69960403442383 21.683313369750977 C 40.253662109375 20.550046920776367 42.87950134277344 19.2591552734375 43.185340881347656 18.44795036315918 C 44.663421630859375 17.62395477294922 45.40420150756836 16.07366371154785 46.90724182128906 15.400199890136719 C 52.09993362426758 13.235944747924805 56.76816940307617 10.845582962036133 61.49486541748047 8.670768737792969 C 63.121803283691406 8.563337326049805 65.67989349365234 9.570935249328613 68.72859954833984 9.046102523803711 C 72.07671356201172 9.158098220825195 75.94078063964844 7.791281700134277 78.64938354492188 8.502869606018066 C 79.9070053100586 10.441547393798828 82.117431640625 13.75643253326416 83.45423126220703 16.09099006652832 C 84.91983795166016 18.293790817260742 85.20508575439453 24.391273498535156 84.67100524902344 27.314735412597656 C 83.58085632324219 28.441614151000977 81.51667022705078 30.240840911865234 79.57601928710938 30.46698760986328 C 74.66339874267578 33.665557861328125 72.60307312011719 36.895362854003906 66.4317626953125 38.58761978149414 C 63.651512145996094 40.1087760925293 60.82467269897461 42.009376525878906 58.35258102416992 43.701622009277344 C 57.999427795410156 44.249855041503906 57.506282806396484 44.430233001708984 57.1513786315918 44.96453857421875 C 55.82890701293945 45.18207931518555 53.33830261230469 44.4083137512207 51.91801452636719 45.10869216918945 C 50.276939392089844 46.20813751220703 45.649173736572266 47.2145881652832 42.200660705566406 46.292842864990234 C 41.23592758178711 45.674320220947266 40.08559036254883 44.382659912109375 41.5967903137207 43.34030532836914 C 41.65127944946289 41.51001739501953 42.1634635925293 41.36848831176758 44.14949035644531 41.16228103637695" stroke-width="1.1418509483337402" fill="none" stroke="rgb(30, 16, 30)" stroke-opacity="1.0" stroke-linecap="round" stroke-linejoin="round"/>
    <path d="M 60.61902618408203 68.0223388671875 C 59.024574279785156 62.09860610961914 56.306907653808594 56.548858642578125 58.72304153442383 52.44318771362305 C 61.35959243774414 57.095298767089844 58.21929168701172 53.814884185791016 52.9064826965332 48.31265640258789" stroke-width="1.0892857313156128" fill="none" stroke="rgb(125, 62, 222)" stroke-opacity="0.5881531" stroke-linecap="round" stroke-linejoin="round"/>
    <path d="M 47.660282135009766 35.71505355834961 C 52.28570556640625 35.66384506225586 47.51876449584961 40.03520584106445 51.32605743408203 43.602970123291016 C 51.031185150146484 45.05833053588867 50.92645263671875 47.08405303955078 56.64262390136719 47.22901153564453" stroke-width="1.0892857313156128" fill="none" stroke="rgb(92, 63, 73)" stroke-opacity="0.7329041" stroke-linecap="round" stroke-linejoin="round"/>
    <path d="M 47.7228889465332 36.065818786621094 C 43.52128601074219 41.30131149291992 40.09133529663086 45.63017654418945 38.65858840942383 48.357948303222656" stroke-width="1.3097057342529297" fill="none" stroke="rgb(164, 150, 123)" stroke-opacity="0.63520306" stroke-linecap="round" stroke-linejoin="round"/>
    <path d="M 27.59128189086914 88.56436157226562 C 21.01320457458496 89.96783447265625 20.637130737304688 88.73744201660156 21.135391235351562 86.09506225585938" stroke-width="1.0892857313156128" fill="none" stroke="rgb(38, 152, 236)" stroke-opacity="0.66222614" stroke-linecap="round" stroke-linejoin="round"/>
    <path d="M 110.12339782714844 68.58302307128906 C 108.11251068115234 66.59613800048828 108.94540405273438 69.7738265991211 115.96269226074219 74.73394012451172" stroke-width="1.0892857313156128" fill="none" stroke="rgb(176, 233, 122)" stroke-opacity="0.8417212" stroke-linecap="round" stroke-linejoin="round"/>
    <path d="M 36.13002395629883 76.29093170166016 C 31.745962142944336 74.59746551513672 30.796066284179688 77.48218536376953 36.56560134887695 74.96466827392578 C 39.15751266479492 74.93226623535156 40.19198989868164 80.02102661132812 44.378814697265625 85.09235382080078 C 41.37715148925781 80.31562042236328 39.10723876953125 74.41531372070312 37.18410110473633 71.75912475585938" stroke-width="1.0892857313156128" fill="none" stroke="rgb(181, 231, 220)" stroke-opacity="0.027162392" stroke-linecap="round" stroke-linejoin="round"/>
    <path d="M 34.95457458496094 77.49754333496094 C 40.90422439575195 73.15328216552734 35.239288330078125 78.13548278808594 34.6176643371582 77.11388397216797" stroke-width="1.0892857313156128" fill="none" stroke="rgb(69, 169, 46)" stroke-opacity="0.1542728" stroke-linecap="round" stroke-linejoin="round"/>
    <path d="M 83.25328063964844 16.34856414794922 C 90.61421966552734 20.828571319580078 94.12422943115234 24.478227615356445 96.9375991821289 26.286653518676758 C 91.55496215820312 22.262081146240234 96.70390319824219 18.163265228271484 98.22673034667969 21.62763023376465" stroke-width="1.390443205833435" fill="none" stroke="rgb(44, 7, 3)" stroke-opacity="0.868368" stroke-linecap="round" stroke-linejoin="round"/>
    <path d="M 57.04252243041992 47.31730270385742 C 55.11280822753906 50.008888244628906 51.54591751098633 53.15529251098633 48.183143615722656 50.80533218383789" stroke-width="1.0892857313156128" fill="none" stroke="rgb(31, 104, 188)" stroke-opacity="0.12871923" stroke-linecap="round" stroke-linejoin="round"/>
    <path d="M 37.43965530395508 47.910430908203125 C 42.166683197021484 47.07653045654297 47.5754508972168 47.02284622192383 43.018035888671875 47.54898452758789" stroke-width="1.0892857313156128" fill="none" stroke="rgb(193, 149, 179)" stroke-opacity="0.2675057" stroke-linecap="round" stroke-linejoin="round"/>
    <path d="M 33.96687316894531 77.25884246826172 C 33.65297317504883 75.00220489501953 31.94574546813965 75.59280395507812 32.82841873168945 80.88555145263672 C 34.96209716796875 76.87467193603516 41.163421630859375 77.66260528564453 35.70856475830078 75.5869140625" stroke-width="1.383349895477295" fill="none" stroke="rgb(197, 102, 247)" stroke-opacity="0.25387025" stroke-linecap="round" stroke-linejoin="round"/>
    <path d="M 98.05624389648438 21.883920669555664 C 95.14093017578125 22.59705924987793 101.81256103515625 24.967893600463867 107.75650787353516 22.85993003845215" stroke-width="1.2125303745269775" fill="none" stroke="rgb(137, 241, 255)" stroke-opacity="0.054699957" stroke-linecap="round" stroke-linejoin="round"/>
    <path d="M 98.18509674072266 21.378429412841797 C 97.6003646850586 15.809626579284668 101.31616973876953 21.420942306518555 102.7401351928711 20.614582061767578 C 109.02606201171875 20.6153507232666 103.80270385742188 19.722383499145508 106.03291320800781 13.8639554977417" stroke-width="1.329447865486145" fill="none" stroke="rgb(158, 21, 96)" stroke-opacity="0.17853901" stroke-linecap="round" stroke-linejoin="round"/>
    <path d="M 56.75822067260742 47.354637145996094 C 54.40930938720703 42.9857063293457 55.855796813964844 48.47956848144531 57.96162796020508 42.551422119140625 C 53.53374099731445 40.28379440307617 59.209842681884766 37.59690856933594 64.49305725097656 35.5938720703125 C 61.74456787109375 39.32286834716797 63.43922805786133 43.578250885009766 61.5235595703125 48.871482849121094" stroke-width="1.3911550045013428" fill="none" stroke="rgb(76, 26, 153)" stroke-opacity="0.23024517" stroke-linecap="round" stroke-linejoin="round"/>
    <path d="M 21.02294158935547 85.59263610839844 C 25.3004207611084 84.10542297363281 27.11461067199707 78.894287109375 32.2860107421875 77.47734832763672 C 33.70682144165039 73.12738800048828 38.948577880859375 71.24408721923828 35.05055618286133 71.6640625 C 39.92597961425781 72.99388122558594 40.23623275756836 71.76107788085938 35.07606506347656 73.0625991821289" stroke-width="1.3689987659454346" fill="none" stroke="rgb(31, 192, 32)" stroke-opacity="0.6044637" stroke-linecap="round" stroke-linejoin="round"/>
    <path d="M 51.75454330444336 48.75007629394531 C 46.246681213378906 46.531822204589844 45.771087646484375 49.852088928222656 49.54022216796875 47.51921463012695 C 47.46577835083008 54.31111145019531 43.63506317138672 50.86321258544922 49.715145111083984 52.25844192504883 C 54.701995849609375 45.831729888916016 55.60579299926758 41.80680465698242 52.69559860229492 46.86587905883789" stroke-width="1.0892857313156128" fill="none" stroke="rgb(202, 225, 6)" stroke-opacity="0.29922813" stroke-linecap="round" stroke-linejoin="round"/>
    <path d="M 33.60363006591797 111.4339370727539 C 35.75176239013672 116.94189453125 40.2049446105957 118.05998229980469 34.95230484008789 121.44723510742188 C 33.330482482910156 119.43557739257812 35.57378005981445 115.85034942626953 39.80237579345703 111.08041381835938" stroke-width="1.0892857313156128" fill="none" stroke="rgb(126, 54, 247)" stroke-opacity="0.17952797" stroke-linecap="round" stroke-linejoin="round"/>
    <path d="M 19.681556701660156 13.744791984558105 C 13.608674049377441 16.854412078857422 15.87856388092041 15.746432304382324 17.315961837768555 19.103540420532227 C 14.42457389831543 18.786373138427734 11.872620582580566 22.4851016998291 14.352229118347168 28.55849838256836 C 16.38755226135254 28.135251998901367 20.96782112121582 23.865955352783203 21.723876953125 20.296247482299805" stroke-width="1.0892857313156128" fill="none" stroke="rgb(29, 75, 185)" stroke-opacity="0.37711334" stroke-linecap="round" stroke-linejoin="round"/>
    <path d="M 83.05792999267578 100.70097351074219 C 86.23192596435547 101.3917465209961 89.29769897460938 100.0633773803711 89.7337417602539 99.87701416015625 C 85.27256774902344 100.15948486328125 90.5505142211914 93.47056579589844 90.474609375 95.94920349121094 C 89.53553771972656 99.06124114990234 85.46355438232422 98.27783966064453 86.77115631103516 99.30271911621094" stroke-width="1.3237255811691284" fill="none" stroke="rgb(58, 54, 201)" stroke-opacity="0.935519" stroke-linecap="round" stroke-linejoin="round"/>
    <path d="M 108.51837158203125 65.76215362548828 C 107.02577209472656 66.23106384277344 107.37044525146484 61.94634246826172 105.38838195800781 61.36643981933594 C 100.26392364501953 66.60545349121094 99.12533569335938 60.17740249633789 103.5086898803711 57.51511001586914 C 107.11035919189453 57.68593978881836 102.62901306152344 54.38566589355469 98.32416534423828 57.437503814697266" stroke-width="1.0892857313156128" fill="none" stroke="rgb(196, 246, 211)" stroke-opacity="0.91019726" stroke-linecap="round" stroke-linejoin="round"/>
    <path d="M 17.335731506347656 55.211830139160156 C 21.01439094543457 59.25438690185547 15.529646873474121 62.82640838623047 11.002213478088379 68.16832733154297 C 14.666686058044434 70.61016082763672 13.1348237991333 64.20205688476562 18.77466583251953 58.436588287353516 C 22.570133209228516 64.50088500976562 20.80219841003418 63.989620208740234 18.90471649169922 59.6960563659668" stroke-width="1.327419400215149" fill="none" stroke="rgb(114, 83, 234)" stroke-opacity="0.78698015" stroke-linecap="round" stroke-linejoin="round"/>
    <path d="M 18.739112854003906 57.716285705566406 C 23.01882553100586 56.4000244140625 27.510974884033203 61.70048904418945 25.71735191345215 63.9970703125 C 27.1396427154541 57.16106414794922 27.420494079589844 53.86940383911133 27.993330001831055 50.66888427734375" stroke-width="1.3921016454696655" fill="none" stroke="rgb(13, 226, 10)" stroke-opacity="0.25254786" stroke-linecap="round" stroke-linejoin="round"/>
    <path d="M 39.41461181640625 34.18907165527344 C 33.822357177734375 38.36442947387695 37.41152572631836 39.064002990722656 36.44571304321289 35.78055191040039 C 33.348182678222656 32.291664123535156 36.816192626953125 26.585235595703125 33.61878204345703 29.112390518188477 C 33.768043518066406 25.27316665649414 39.5455207824707 26.947656631469727 43.63286209106445 21.990577697753906" stroke-width="1.0892857313156128" fill="none" stroke="rgb(78, 166, 54)" stroke-opacity="0.79585546" stroke-linecap="round" stroke-linejoin="round"/>
    <path d="M 28.071470260620117 93.08023071289062 C 29.959688186645508 99.48577117919922 33.15129089355469 104.74773406982422 32.21339416503906 107.13558197021484 C 34.17220687866211 105.00247955322266 33.69157409667969 107.89305877685547 32.7828369140625 113.37464904785156 C 30.155485153198242 112.14405059814453 33.21784591674805 118.16919708251953 34.9368782043457 122.56869506835938" stroke-width="1.0892857313156128" fill="none" stroke="rgb(69, 52, 90)" stroke-opacity="0.8468565" stroke-linecap="round" stroke-linejoin="round"/>
    <path d="M 82.4227294921875 42.67643737792969 C 86.68595123291016 47.64109802246094 88.43988800048828 46.22046661376953 88.55726623535156 42.98779296875 C 87.1907958984375 45.52362060546875 82.91564178466797 45.11772537231445 88.90199279785156 48.58582305908203" stroke-width="1.0892857313156128" fill="none" stroke="rgb(176, 154, 220)" stroke-opacity="0.42590317" stroke-linecap="round" stroke-linejoin="round"/>
    <path d="M 80.72563934326172 2.751152753829956 C 79.53842163085938 0.4898414611816406 77.51689910888672 0.9330925941467285 83.83257293701172 3.7340304851531982 C 80.32103729248047 -0.998215913772583 85.48310852050781 5.024818420410156 79.72876739501953 -0.21177396178245544" stroke-width="1.3583778142929077" fill="none" stroke="rgb(189, 91, 255)" stroke-opacity="0.3233007" stroke-linecap="round" stroke-linejoin="round"/>
    <path d="M 86.80738067626953 34.983009338378906 C 86.05103302001953 35.98615264892578 83.30746459960938 39.76479721069336 80.8215103149414 45.65604019165039" stroke-width="1.4011472463607788" fill="none" stroke="rgb(29, 151, 64)" stroke-opacity="0.72215366" stroke-linecap="round" stroke-linejoin="round"/>
    <path d="M 23.537540435791016 13.182884216308594 C 26.919757843017578 18.296154022216797 29.175710678100586 22.760974884033203 34.25022888183594 26.32050323486328 C 39.6300048828125 23.18880844116211 38.70724105834961 19.483213424682617 42.71114730834961 16.53598976135254 C 37.190948486328125 15.889124870300293 36.53031539916992 12.21165943145752 32.076358795166016 16.212297439575195" stroke-width="1.0892857313156128" fill="none" stroke="rgb(93, 125, 125)" stroke-opacity="0.5994267" stroke-linecap="round" stroke-linejoin="round"/>
    <path d="M 2.207578659057617 103.2838363647461 C -0.3171628415584564 107.80323028564453 -2.5773894786834717 113.24225616455078 2.1375210285186768 119.09223175048828 C -2.0915794372558594 117.34150695800781 -7.7022318840026855 121.49349212646484 -2.4743123054504395 123.78570556640625" stroke-width="1.0892857313156128" fill="none" stroke="rgb(145, 244, 195)" stroke-opacity="0.5468997" stroke-linecap="round" stroke-linejoin="round"/>
    <path d="M 39.262847900390625 25.513288497924805 C 37.30081558227539 22.932701110839844 33.75643539428711 19.432188034057617 34.8293342590332 21.148033142089844 C 36.87916946411133 22.250320434570312 38.53728103637695 25.010223388671875 44.47903060913086 20.45250701904297 C 49.51939392089844 21.137752532958984 55.60703659057617 19.446992874145508 52.89612579345703 16.871980667114258" stroke-width="1.0892857313156128" fill="none" stroke="rgb(67, 190, 205)" stroke-opacity="0.878765" stroke-linecap="round" stroke-linejoin="round"/>
    <path d="M 4.312047958374023 21.756383895874023 C 7.349994659423828 26.896324157714844 9.16480827331543 31.40165138244629 6.750187873840332 36.22477340698242 C 4.763125419616699 32.33268356323242 0.4872170686721802 33.461387634277344 -1.3047728538513184 26.927392959594727" stroke-width="1.1299357414245605" fill="none" stroke="rgb(238, 228, 56)" stroke-opacity="0.54488087" stroke-linecap="round" stroke-linejoin="round"/>
    <path d="M 16.409008026123047 65.06974029541016 C 12.292623519897461 65.810791015625 7.595129489898682 64.7205810546875 8.15368938446045 65.57273864746094 C 10.524209976196289 65.12750244140625 13.695272445678711 65.85855865478516 13.930264472961426 63.95143127441406" stroke-width="1.0892857313156128" fill="none" stroke="rgb(38, 14, 82)" stroke-opacity="0.30734414" stroke-linecap="round" stroke-linejoin="round"/>
  </g>
</svg>
