<?xml version="1.0" ?>
<svg xmlns="http://www.w3.org/2000/svg" version="1.1" width="177.0" height="177.0">
  <defs/>
  <g>
    <path d="M 133.09957885742188 20.084739685058594 C 130.9198455810547 19.85563087463379 128.9882354736328 19.323280334472656 127.09445190429688 18.936439514160156" stroke-width="1.5848214626312256" fill="none" stroke="rgb(204, 211, 54)" stroke-opacity="0.9924244" stroke-linecap="round" stroke-linejoin="round"/>
    <path d="M 120.33833312988281 16.385271072387695 C 115.6878433227539 15.207038879394531 110.63299560546875 14.564704895019531 104.08354949951172 14.385420799255371" stroke-width="1.6310027837753296" fill="none" stroke="rgb(199, 219, 57)" stroke-opacity="0.9803531" stroke-linecap="round" stroke-linejoin="round"/>
    <path d="M 94.53075408935547 16.260417938232422 C 88.41728210449219 17.122055053710938 81.8912353515625 19.04114532470703 74.39517974853516 21.470731735229492" stroke-width="1.5848214626312256" fill="none" stroke="rgb(195, 217, 55)" stroke-opacity="0.99601597" stroke-linecap="round" stroke-linejoin="round"/>
    <path d="M 67.99433898925781 25.276254653930664 C 61.619998931884766 39.9430046081543 54.4134521484375 54.573692321777344 47.16388702392578 69.19967651367188 C 39.129180908203125 82.64227294921875 57.84724044799805 78.43351745605469 77.8266372680664 74.59933471679688" stroke-width="1.6068257093429565" fill="none" stroke="rgb(204, 220, 56)" stroke-opacity="0.98002404" stroke-linecap="round" stroke-linejoin="round"/>
    <path d="M 84.75375366210938 74.35331726074219 C 90.06877136230469 74.29535675048828 95.92961120605469 73.98273468017578 101.85802459716797 74.73585510253906" stroke-width="1.600795030593872" fill="none" stroke="rgb(202, 212, 56)" stroke-opacity="0.98540574" stroke-linecap="round" stroke-linejoin="round"/>
    <path d="M 109.55408477783203 73.33393859863281 C 108.65643310546875 73.31082153320312 110.50394439697266 74.0616455078125 111.0381088256836 74.04981231689453" stroke-width="1.6087377071380615" fill="none" stroke="rgb(195, 220, 48)" stroke-opacity="1.0" stroke-linecap="round" stroke-linejoin="round"/>
    <path d="M 116.04728698730469 73.11248779296875 C 128.95706176757812 73.05350494384766 140.59837341308594 72.1752700805664 151.66500854492188 70.20584106445312 C 162.14682006835938 70.17768096923828 149.5751495361328 45.680152893066406 137.6721649169922 21.215654373168945" stroke-width="1.6159543991088867" fill="none" stroke="rgb(201, 211, 51)" stroke-opacity="1.0" stroke-linecap="round" stroke-linejoin="round"/>
    <path d="M 121.05973052978516 24.343923568725586 C 120.5959701538086 24.636274337768555 121.04136657714844 24.556961059570312 121.52352905273438 23.457046508789062" stroke-width="1.5848214626312256" fill="none" stroke="rgb(251, 201, 187)" stroke-opacity="1.0" stroke-linecap="round" stroke-linejoin="round"/>
    <path d="M 128.13255310058594 24.773881912231445 C 131.84059143066406 24.7887020111084 133.6341552734375 25.93703269958496 136.1492156982422 26.652992248535156 C 137.02703857421875 27.513429641723633 132.4751434326172 28.662715911865234 129.16494750976562 30.50214385986328" stroke-width="1.715635895729065" fill="none" stroke="rgb(255, 200, 187)" stroke-opacity="0.99584895" stroke-linecap="round" stroke-linejoin="round"/>
    <path d="M 121.44024658203125 32.32924270629883 C 121.98847198486328 34.04821014404297 121.48162841796875 34.22713088989258 120.86614990234375 34.51951217651367 C 120.27841186523438 34.79433059692383 121.39965057373047 34.490169525146484 121.07759094238281 32.87179946899414" stroke-width="1.5848214626312256" fill="none" stroke="rgb(255, 209, 188)" stroke-opacity="0.98441404" stroke-linecap="round" stroke-linejoin="round"/>
    <path d="M 127.71612548828125 32.96480941772461 C 131.3388671875 32.76260757446289 133.5382537841797 32.646324157714844 135.69058227539062 32.529823303222656 C 137.72421264648438 32.17230224609375 132.5781707763672 34.776241302490234 126.3428955078125 37.47596740722656" stroke-width="1.6787211894989014" fill="none" stroke="rgb(255, 202, 179)" stroke-opacity="1.0" stroke-linecap="round" stroke-linejoin="round"/>
    <path d="M 124.44196319580078 42.28361129760742 C 134.982666015625 41.280155181884766 143.8794708251953 40.220829010009766 139.66510009765625 41.27196502685547 C 136.90823364257812 43.70238494873047 122.3801040649414 49.87667465209961 122.5451889038086 51.09247970581055 C 122.38706970214844 51.9714241027832 136.71182250976562 47.49397277832031 139.47457885742188 49.79981231689453 C 141.1073760986328 51.863773345947266 128.7976531982422 58.0552864074707 130.9615936279297 60.26640319824219 C 131.90188598632812 61.109012603759766 144.6958770751953 55.281497955322266 145.66647338867188 55.97529983520508 C 146.36839294433594 56.33528137207031 134.65335083007812 62.64555358886719 122.9374771118164 68.9039306640625 C 111.38116455078125 74.51588439941406 127.8903579711914 69.77045440673828 146.59852600097656 66.0197525024414" stroke-width="1.6697207689285278" fill="none" stroke="rgb(255, 200, 189)" stroke-opacity="1.0" stroke-linecap="round" stroke-linejoin="round"/>
    <path d="M 91.0789794921875 98.18328857421875 C 98.44049835205078 97.57742309570312 104.55245208740234 98.1996841430664 109.8193359375 100.06192016601562" stroke-width="1.9159057140350342" fill="none" stroke="rgb(33, 43, 0)" stroke-opacity="0.90190077" stroke-linecap="round" stroke-linejoin="round"/>
    <path d="M 114.70638275146484 99.32064056396484 C 118.12339782714844 99.76412963867188 120.15251159667969 101.28089904785156 121.17732238769531 101.04033660888672 C 120.86286163330078 100.46111297607422 119.72639465332031 99.93262481689453 120.07817840576172 98.83030700683594 C 120.33661651611328 98.2484359741211 122.23423767089844 97.46526336669922 121.30098724365234 97.04606628417969 C 120.92496490478516 97.2090072631836 119.23587799072266 99.32066345214844 115.30455017089844 99.0931396484375 C 112.4948959350586 100.02499389648438 114.6591567993164 101.27449798583984 116.21198272705078 101.24346923828125" stroke-width="1.952389121055603" fill="none" stroke="rgb(39, 35, 4)" stroke-opacity="0.9147821" stroke-linecap="round" stroke-linejoin="round"/>
    <path d="M 109.69866943359375 112.89962768554688 C 109.5614242553711 113.87447357177734 109.07510375976562 113.94005584716797 109.71080017089844 115.78878021240234 C 109.20874786376953 118.89165496826172 111.33501434326172 121.17474365234375 111.6588363647461 119.75082397460938 C 110.2940444946289 120.05644989013672 105.85594177246094 117.78397369384766 100.32608795166016 116.51270294189453 C 96.0254898071289 114.11215209960938 97.2061767578125 114.20552062988281 99.68506622314453 113.02458953857422" stroke-width="1.6899200677871704" fill="none" stroke="rgb(41, 36, 0)" stroke-opacity="0.87935215" stroke-linecap="round" stroke-linejoin="round"/>
    <path d="M 97.1279067993164 107.5245590209961 C 97.44227600097656 104.31404876708984 97.69976806640625 102.15493774414062 99.06798553466797 100.09957122802734" stroke-width="1.9306862354278564" fill="none" stroke="rgb(31, 36, 0)" stroke-opacity="0.91355896" stroke-linecap="round" stroke-linejoin="round"/>
    <path d="M 132.25074768066406 19.578693389892578 C 139.42503356933594 16.23236846923828 144.58334350585938 11.507535934448242 141.15277099609375 4.745718955993652" stroke-width="1.9950906038284302" fill="none" stroke="rgb(155, 23, 56)" stroke-opacity="0.3674209" stroke-linecap="round" stroke-linejoin="round"/>
    <path d="M 93.91118621826172 94.6552505493164 C 91.2467041015625 94.3173828125 90.35614776611328 94.18232727050781 91.01717376708984 93.94389343261719" stroke-width="1.6152690649032593" fill="none" stroke="rgb(150, 94, 85)" stroke-opacity="0.75122666" stroke-linecap="round" stroke-linejoin="round"/>
    <path d="M 120.74618530273438 67.19034576416016 C 122.29996490478516 62.784515380859375 132.44528198242188 64.99140167236328 126.23906707763672 61.56043243408203" stroke-width="1.6837276220321655" fill="none" stroke="rgb(203, 181, 183)" stroke-opacity="0.20762546" stroke-linecap="round" stroke-linejoin="round"/>
    <path d="M 153.03248596191406 70.40282440185547 C 154.43580627441406 65.27047729492188 159.23057556152344 73.41141510009766 155.90170288085938 73.79618072509766" stroke-width="1.5848214626312256" fill="none" stroke="rgb(176, 210, 186)" stroke-opacity="0.11824434" stroke-linecap="round" stroke-linejoin="round"/>
    <path d="M 136.63778686523438 25.87162971496582 C 133.92681884765625 27.713943481445312 130.79029846191406 28.662355422973633 130.91314697265625 32.58837127685547 C 131.2823486328125 36.13856887817383 134.20716857910156 42.512474060058594 137.62705993652344 48.47606658935547 C 140.0132293701172 54.37388229370117 137.84657287597656 39.379066467285156 134.61001586914062 24.602577209472656" stroke-width="1.8147639036178589" fill="none" stroke="rgb(224, 90, 162)" stroke-opacity="0.58291453" stroke-linecap="round" stroke-linejoin="round"/>
    <path d="M 137.13487243652344 32.583805084228516 C 135.8920135498047 34.44192886352539 133.6736297607422 34.01747131347656 132.22427368164062 34.31432342529297 C 131.2864532470703 35.006935119628906 130.65383911132812 36.11627960205078 130.09642028808594 37.28380584716797 C 130.6400146484375 38.77158737182617 131.09649658203125 44.744834899902344 132.8538818359375 49.58202362060547" stroke-width="1.5922658443450928" fill="none" stroke="rgb(33, 46, 146)" stroke-opacity="0.35861877" stroke-linecap="round" stroke-linejoin="round"/>
    <path d="M 133.3578338623047 18.355318069458008 C 133.5613555908203 18.939193725585938 133.94015502929688 20.44745445251465 134.5139617919922 21.75074577331543 C 134.9636993408203 24.19597625732422 132.48562622070312 25.96798324584961 128.8089141845703 27.43928337097168" stroke-width="1.5848214626312256" fill="none" stroke="rgb(251, 153, 196)" stroke-opacity="0.16686589" stroke-linecap="round" stroke-linejoin="round"/>
    <path d="M 122.777099609375 32.04650115966797 C 120.66053009033203 31.714141845703125 119.81436157226562 32.47723388671875 120.26075744628906 33.12466049194336 C 119.2579574584961 33.858585357666016 119.76426696777344 35.74712371826172 120.23595428466797 39.17615509033203" stroke-width="1.7549755573272705" fill="none" stroke="rgb(255, 143, 199)" stroke-opacity="0.20621565" stroke-linecap="round" stroke-linejoin="round"/>
    <path d="M 155.48922729492188 76.19546508789062 C 161.369140625 76.18217468261719 168.8745880126953 77.7405776977539 172.49322509765625 77.79667663574219 C 176.14695739746094 76.90206146240234 176.84353637695312 73.00511932373047 177.38587951660156 69.01274871826172 C 178.56317138671875 65.46818542480469 178.01376342773438 67.48848724365234 176.30360412597656 68.47012329101562" stroke-width="1.5848214626312256" fill="none" stroke="rgb(73, 59, 158)" stroke-opacity="0.18613477" stroke-linecap="round" stroke-linejoin="round"/>
    <path d="M 83.47486114501953 91.2298583984375 C 80.96636962890625 94.20609283447266 78.04422760009766 97.03494262695312 75.03731536865234 99.68605041503906" stroke-width="1.5848214626312256" fill="none" stroke="rgb(9, 205, 153)" stroke-opacity="0.6511241" stroke-linecap="round" stroke-linejoin="round"/>
    <path d="M 69.41978454589844 99.07740020751953 C 68.71951293945312 96.7630386352539 68.0576171875 89.16376495361328 66.8865737915039 82.333251953125" stroke-width="1.7189773321151733" fill="none" stroke="rgb(4, 205, 153)" stroke-opacity="0.68340373" stroke-linecap="round" stroke-linejoin="round"/>
    <path d="M 122.76609802246094 63.52610778808594 C 119.92631530761719 62.667503356933594 117.22628021240234 60.27809524536133 115.78361511230469 57.06741714477539" stroke-width="1.5848214626312256" fill="none" stroke="rgb(35, 53, 114)" stroke-opacity="0.5848816" stroke-linecap="round" stroke-linejoin="round"/>
    <path d="M 109.40791320800781 54.731929779052734 C 107.27368927001953 52.90840148925781 106.26094818115234 49.6838264465332 104.1784896850586 50.17802047729492 C 102.791748046875 52.25894546508789 100.61534118652344 55.06157302856445 96.86189270019531 56.2862434387207 C 94.70950317382812 59.12688446044922 95.71601867675781 58.468177795410156 98.04398345947266 59.166786193847656" stroke-width="1.5848214626312256" fill="none" stroke="rgb(38, 44, 118)" stroke-opacity="0.5796525" stroke-linecap="round" stroke-linejoin="round"/>
    <path d="M 98.65206909179688 64.06566619873047 C 99.78211212158203 67.06724548339844 99.9940185546875 71.43309783935547 100.85542297363281 75.19942474365234" stroke-width="1.7378034591674805" fill="none" stroke="rgb(30, 45, 112)" stroke-opacity="0.61502993" stroke-linecap="round" stroke-linejoin="round"/>
    <path d="M 82.30477142333984 84.82768249511719 C 79.89163208007812 85.4386978149414 79.05601501464844 86.90892028808594 77.9395980834961 89.6380615234375" stroke-width="1.743369698524475" fill="none" stroke="rgb(38, 200, 201)" stroke-opacity="0.231658" stroke-linecap="round" stroke-linejoin="round"/>
    <path d="M 143.75238037109375 5.019457817077637 C 138.75 4.002108573913574 135.5733184814453 2.1918725967407227 131.4498291015625 2.832911968231201 C 127.32412719726562 2.0048575401306152 129.37933349609375 6.274889945983887 131.04359436035156 10.410767555236816" stroke-width="1.7427678108215332" fill="none" stroke="rgb(51, 135, 150)" stroke-opacity="0.76714367" stroke-linecap="round" stroke-linejoin="round"/>
    <path d="M 132.41781616210938 49.7271614074707 C 136.80628967285156 53.00794982910156 141.39874267578125 56.095001220703125 138.8775634765625 58.63644027709961 C 134.83285522460938 59.525447845458984 125.39749908447266 60.03003692626953 116.68385314941406 61.36058044433594 C 106.89765167236328 60.81620407104492 110.81917572021484 60.725730895996094 114.58914947509766 61.45267868041992" stroke-width="1.5848214626312256" fill="none" stroke="rgb(129, 11, 185)" stroke-opacity="0.49807316" stroke-linecap="round" stroke-linejoin="round"/>
    <path d="M 117.8062744140625 41.79225158691406 C 113.1729965209961 39.99531555175781 108.51762390136719 37.89680862426758 103.7171401977539 35.845218658447266 C 98.23638916015625 34.84188461303711 92.35359954833984 35.2608757019043 87.13825225830078 36.38031005859375" stroke-width="1.5848214626312256" fill="none" stroke="rgb(22, 20, 172)" stroke-opacity="0.68898326" stroke-linecap="round" stroke-linejoin="round"/>
    <path d="M 79.35628509521484 39.13909912109375 C 78.22827911376953 39.353172302246094 77.20310974121094 39.71767044067383 76.39521789550781 38.7335205078125" stroke-width="1.5952699184417725" fill="none" stroke="rgb(16, 17, 178)" stroke-opacity="0.70595676" stroke-linecap="round" stroke-linejoin="round"/>
    <path d="M 76.91416931152344 39.6584587097168 C 76.9817886352539 40.32988357543945 77.81416320800781 40.671470642089844 77.4435806274414 40.9415397644043" stroke-width="1.5848214626312256" fill="none" stroke="rgb(22, 23, 178)" stroke-opacity="0.69091445" stroke-linecap="round" stroke-linejoin="round"/>
    <path d="M 132.39366149902344 25.781763076782227 C 142.10179138183594 23.654470443725586 141.24172973632812 20.58997917175293 140.07615661621094 17.313209533691406" stroke-width="1.6857653856277466" fill="none" stroke="rgb(79, 56, 164)" stroke-opacity="0.32818598" stroke-linecap="round" stroke-linejoin="round"/>
    <path d="M 133.79722595214844 28.09280776977539 C 132.84613037109375 29.23095703125 129.9010467529297 28.241140365600586 128.15676879882812 28.614015579223633" stroke-width="1.9654674530029297" fill="none" stroke="rgb(205, 0, 13)" stroke-opacity="0.59922934" stroke-linecap="round" stroke-linejoin="round"/>
    <path d="M 75.160400390625 127.68902587890625 C 76.1924057006836 131.11880493164062 76.34815216064453 136.49661254882812 77.3271484375 137.55712890625 C 80.16439056396484 138.5397186279297 84.24862670898438 134.7870330810547 88.962646484375 132.66604614257812 C 93.6236343383789 130.49365234375 95.65323638916016 129.65025329589844 99.13945770263672 129.40966796875" stroke-width="1.5848214626312256" fill="none" stroke="rgb(115, 196, 173)" stroke-opacity="0.5554084" stroke-linecap="round" stroke-linejoin="round"/>
    <path d="M 96.52418518066406 76.8187484741211 C 103.55294799804688 67.30979919433594 103.606201171875 75.74054718017578 99.11531066894531 79.22843170166016" stroke-width="1.5848214626312256" fill="none" stroke="rgb(219, 223, 168)" stroke-opacity="0.77351123" stroke-linecap="round" stroke-linejoin="round"/>
    <path d="M 31.470779418945312 30.59063720703125 C 29.764554977416992 34.084136962890625 30.285442352294922 39.65461349487305 28.65711784362793 43.12346267700195 C 28.12415313720703 47.98770523071289 27.362682342529297 50.93824005126953 27.84507942199707 55.01969909667969" stroke-width="1.742385983467102" fill="none" stroke="rgb(21, 9, 101)" stroke-opacity="0.68364775" stroke-linecap="round" stroke-linejoin="round"/>
    <path d="M 13.631085395812988 34.242977142333984 C 8.538219451904297 31.873472213745117 4.0737457275390625 29.65606117248535 -1.307428240776062 29.593093872070312" stroke-width="1.6186203956604004" fill="none" stroke="rgb(67, 35, 170)" stroke-opacity="0.60520846" stroke-linecap="round" stroke-linejoin="round"/>
    <path d="M 48.500335693359375 88.50048828125 C 45.091285705566406 90.03942108154297 41.98734664916992 91.36615753173828 38.90300750732422 91.82279968261719 C 37.0884895324707 93.47818756103516 35.59315490722656 94.6399917602539 33.90568542480469 95.63056182861328 C 33.91571044921875 98.31853485107422 30.06983757019043 102.30255126953125 26.883575439453125 106.93246459960938" stroke-width="1.5848214626312256" fill="none" stroke="rgb(99, 252, 84)" stroke-opacity="0.48759454" stroke-linecap="round" stroke-linejoin="round"/>
    <path d="M 25.804479598999023 151.01583862304688 C 24.30147361755371 156.0890350341797 21.896066665649414 160.28073120117188 20.63498878479004 163.58924865722656 C 18.915794372558594 168.07162475585938 16.261789321899414 169.6691436767578 15.15169620513916 172.78433227539062 C 14.557549476623535 176.4425506591797 13.59571361541748 179.15028381347656 12.76550006866455 181.79006958007812" stroke-width="1.5848214626312256" fill="none" stroke="rgb(7, 0, 183)" stroke-opacity="0.63373524" stroke-linecap="round" stroke-linejoin="round"/>
    <path d="M 159.52183532714844 18.36327362060547 C 159.1114501953125 19.18252182006836 156.97836303710938 18.522003173828125 156.40289306640625 19.111936569213867 C 156.83868408203125 19.776002883911133 161.89321899414062 27.491958618164062 167.29454040527344 35.828792572021484" stroke-width="1.6744170188903809" fill="none" stroke="rgb(213, 207, 222)" stroke-opacity="0.031941332" stroke-linecap="round" stroke-linejoin="round"/>
    <path d="M 81.45172119140625 13.233980178833008 C 82.55813598632812 13.636975288391113 84.8183822631836 12.798012733459473 82.53028106689453 10.231186866760254 C 80.14505767822266 7.708521842956543 74.29976654052734 2.254133701324463 68.45423126220703 -3.1982998847961426 C 62.54385757446289 -8.54990291595459 65.98168182373047 -0.7923656702041626 71.02631378173828 5.27083683013916" stroke-width="1.6994832754135132" fill="none" stroke="rgb(152, 140, 162)" stroke-opacity="0.0" stroke-linecap="round" stroke-linejoin="round"/>
    <path d="M 49.509735107421875 82.31721496582031 C 47.30536651611328 86.15357208251953 45.852840423583984 90.66018676757812 44.426570892333984 95.21941375732422 C 43.71292495727539 100.46855163574219 49.172828674316406 99.0521011352539 54.63450241088867 97.63743591308594" stroke-width="1.5848214626312256" fill="none" stroke="rgb(91, 67, 163)" stroke-opacity="0.0066338102" stroke-linecap="round" stroke-linejoin="round"/>
    <path d="M 105.33314514160156 107.72361755371094 C 105.07526397705078 105.42937469482422 104.08683013916016 103.84912872314453 102.02879333496094 103.32049560546875 C 101.09657287597656 101.85028839111328 101.07952117919922 104.75704193115234 99.80022430419922 106.30146026611328" stroke-width="1.5848214626312256" fill="none" stroke="rgb(31, 95, 177)" stroke-opacity="0.030634917" stroke-linecap="round" stroke-linejoin="round"/>
    <path d="M 97.25041961669922 113.2061767578125 C 97.25084686279297 118.15843200683594 99.66207885742188 123.15556335449219 102.92415618896484 126.50293731689453" stroke-width="1.5848214626312256" fill="none" stroke="rgb(32, 92, 176)" stroke-opacity="0.00030961726" stroke-linecap="round" stroke-linejoin="round"/>
    <path d="M 178.9578094482422 33.3365592956543 C 169.1440887451172 39.70328903198242 164.60867309570312 44.784019470214844 156.73509216308594 38.934112548828125" stroke-width="1.5848214626312256" fill="none" stroke="rgb(237, 104, 110)" stroke-opacity="0.8927433" stroke-linecap="round" stroke-linejoin="round"/>
    <path d="M 105.03914642333984 145.7148895263672 C 103.6201400756836 144.28839111328125 102.1277847290039 143.93104553222656 100.79742431640625 144.26202392578125 C 99.54469299316406 144.4523468017578 96.58745574951172 144.78024291992188 94.669921875 145.62704467773438" stroke-width="1.6461790800094604" fill="none" stroke="rgb(17, 210, 133)" stroke-opacity="0.4545679" stroke-linecap="round" stroke-linejoin="round"/>
    <path d="M 113.79059600830078 150.37164306640625 C 118.6231460571289 149.12039184570312 122.10194396972656 146.75160217285156 125.74473571777344 144.76223754882812 C 127.86843872070312 141.18043518066406 131.25732421875 139.28756713867188 135.97109985351562 138.6052703857422 C 138.44503784179688 136.23362731933594 141.7958221435547 133.81407165527344 145.77581787109375 132.509521484375" stroke-width="1.5848214626312256" fill="none" stroke="rgb(72, 87, 255)" stroke-opacity="0.6343125" stroke-linecap="round" stroke-linejoin="round"/>
    <path d="M 29.85063934326172 75.78143310546875 C 29.908973693847656 82.50885772705078 31.27910614013672 88.88444519042969 33.70008850097656 94.24432373046875 C 34.438785552978516 102.28934478759766 37.66185760498047 99.66764068603516 42.09437561035156 98.63545989990234" stroke-width="1.5848214626312256" fill="none" stroke="rgb(0, 164, 168)" stroke-opacity="0.5436616" stroke-linecap="round" stroke-linejoin="round"/>
    <path d="M 22.3031005859375 103.33767700195312 C 23.395187377929688 106.20581817626953 26.81825065612793 107.45408630371094 30.679758071899414 100.41089630126953" stroke-width="1.5848214626312256" fill="none" stroke="rgb(221, 255, 33)" stroke-opacity="0.18410796" stroke-linecap="round" stroke-linejoin="round"/>
    <path d="M 111.70024108886719 5.300631523132324 C 112.19876861572266 4.618238925933838 111.7083511352539 3.4441616535186768 112.09765625 2.1476266384124756" stroke-width="1.5848214626312256" fill="none" stroke="rgb(209, 192, 222)" stroke-opacity="0.046661843" stroke-linecap="round" stroke-linejoin="round"/>
    <path d="M 137.6981201171875 79.78544616699219 C 137.92138671875 82.01419830322266 138.6717987060547 82.19426727294922 138.73988342285156 83.55858612060547 C 139.6237335205078 85.10845184326172 139.35580444335938 88.0934829711914 138.16009521484375 89.58584594726562 C 137.2874298095703 91.28413391113281 137.42465209960938 90.48503112792969 138.1619415283203 90.263916015625" stroke-width="1.7409694194793701" fill="none" stroke="rgb(15, 33, 21)" stroke-opacity="0.963789" stroke-linecap="round" stroke-linejoin="round"/>
    <path d="M 138.7587890625 95.865234375 C 138.67652893066406 96.804931640625 138.52139282226562 97.40084838867188 138.81005859375 98.75273132324219 C 138.34461975097656 100.62630462646484 139.74417114257812 101.83696746826172 138.50741577148438 101.19818878173828 C 136.40097045898438 101.63662719726562 131.2616424560547 101.97045135498047 126.36941528320312 101.36302947998047 C 122.37236785888672 100.81133270263672 125.2843017578125 97.83086395263672 128.23388671875 97.319091796875" stroke-width="1.5848214626312256" fill="none" stroke="rgb(24, 29, 17)" stroke-opacity="0.98571116" stroke-linecap="round" stroke-linejoin="round"/>
    <path d="M 171.43336486816406 77.89323425292969 C 163.98667907714844 82.4321060180664 156.75 88.13350677490234 156.96417236328125 80.4825668334961" stroke-width="1.6789700984954834" fill="none" stroke="rgb(177, 16, 159)" stroke-opacity="0.31995177" stroke-linecap="round" stroke-linejoin="round"/>
    <path d="M 77.93496704101562 88.69902038574219 C 84.36896514892578 95.64094543457031 78.44966125488281 101.32891845703125 68.38461303710938 93.52052307128906 C 64.37808990478516 86.5411376953125 65.1409912109375 86.97090911865234 67.68167877197266 88.72308349609375" stroke-width="1.5848214626312256" fill="none" stroke="rgb(30, 186, 130)" stroke-opacity="0.15957607" stroke-linecap="round" stroke-linejoin="round"/>
    <path d="M 134.7746124267578 24.658220291137695 C 133.7232208251953 30.311765670776367 133.07797241210938 38.89607620239258 127.15573120117188 42.274776458740234" stroke-width="1.7181686162948608" fill="none" stroke="rgb(192, 166, 244)" stroke-opacity="0.1838842" stroke-linecap="round" stroke-linejoin="round"/>
    <path d="M 28.387170791625977 43.10151290893555 C 30.196813583374023 43.5886344909668 34.759498596191406 38.67130661010742 38.08312225341797 40.90147399902344" stroke-width="1.5848214626312256" fill="none" stroke="rgb(194, 212, 28)" stroke-opacity="0.32507697" stroke-linecap="round" stroke-linejoin="round"/>
    <path d="M 176.36395263671875 68.0018539428711 C 180.82598876953125 71.1904067993164 186.69700622558594 77.39801025390625 188.91229248046875 79.21540832519531" stroke-width="1.8948558568954468" fill="none" stroke="rgb(68, 239, 173)" stroke-opacity="0.65312874" stroke-linecap="round" stroke-linejoin="round"/>
    <path d="M 70.7588119506836 5.724108695983887 C 64.95455169677734 12.663780212402344 70.55044555664062 12.084696769714355 66.8440933227539 8.70079231262207 C 74.06426239013672 15.02227783203125 72.17848205566406 8.162050247192383 74.0969467163086 11.52720832824707 C 72.74321746826172 4.374888896942139 66.25824737548828 3.390350818634033 71.72429656982422 8.881864547729492" stroke-width="1.5848214626312256" fill="none" stroke="rgb(136, 153, 170)" stroke-opacity="0.12393583" stroke-linecap="round" stroke-linejoin="round"/>
    <path d="M 127.2938232421875 97.86905670166016 C 120.8938980102539 88.8510971069336 114.54106140136719 90.07145690917969 107.67784881591797 97.52552032470703 C 103.8991928100586 97.75421142578125 96.3796615600586 99.95328521728516 103.07545471191406 100.05120849609375 C 105.47614288330078 91.8803482055664 103.24490356445312 92.23334503173828 97.79522705078125 98.98224639892578" stroke-width="1.6967298984527588" fill="none" stroke="rgb(91, 5, 63)" stroke-opacity="0.96862346" stroke-linecap="round" stroke-linejoin="round"/>
    <path d="M 98.8033447265625 130.0556640625 C 94.27336883544922 134.5849151611328 96.060546875 139.7710418701172 97.75200653076172 148.2140655517578 C 103.26728820800781 147.31683349609375 103.01005554199219 148.89047241210938 97.39472961425781 146.3482666015625 C 101.11463928222656 154.68124389648438 107.70121002197266 150.36073303222656 106.39134216308594 151.4292755126953" stroke-width="1.5848214626312256" fill="none" stroke="rgb(135, 135, 117)" stroke-opacity="0.13173051" stroke-linecap="round" stroke-linejoin="round"/>
    <path d="M 188.49334716796875 79.61344146728516 C 186.7001495361328 88.29359436035156 195.1336669921875 81.03728485107422 196.59181213378906 83.0927505493164 C 190.0504608154297 82.53398132324219 193.28514099121094 80.81014251708984 195.3051300048828 81.6539306640625" stroke-width="1.5848214626312256" fill="none" stroke="rgb(235, 49, 178)" stroke-opacity="0.08486383" stroke-linecap="round" stroke-linejoin="round"/>
    <path d="M 71.71858978271484 9.867371559143066 C 72.66531372070312 14.461709022521973 77.26997375488281 14.452225685119629 74.30432891845703 19.233539581298828 C 80.20409393310547 27.68474578857422 75.85883331298828 30.36272430419922 76.48987579345703 27.940763473510742 C 72.53849029541016 30.78086280822754 76.15032958984375 35.21065902709961 76.87864685058594 30.14124870300293" stroke-width="1.8994661569595337" fill="none" stroke="rgb(28, 240, 178)" stroke-opacity="0.9377227" stroke-linecap="round" stroke-linejoin="round"/>
    <path d="M 71.75834655761719 8.62466812133789 C 70.29464721679688 14.203049659729004 73.05072021484375 19.744050979614258 81.17759704589844 20.271928787231445 C 80.99821472167969 27.041166305541992 88.16092681884766 30.3778076171875 89.84369659423828 37.35804748535156 C 96.00888061523438 33.668025970458984 89.99295043945312 38.662784576416016 95.26526641845703 31.31797218322754" stroke-width="1.5848214626312256" fill="none" stroke="rgb(250, 33, 46)" stroke-opacity="0.97069365" stroke-linecap="round" stroke-linejoin="round"/>
    <path d="M 98.97296905517578 100.47824096679688 C 105.20134735107422 100.23216247558594 106.93887329101562 96.15982818603516 112.33625793457031 96.45219421386719 C 107.05757141113281 91.75372314453125 114.17029571533203 98.56437683105469 121.454833984375 95.641845703125" stroke-width="1.5848214626312256" fill="none" stroke="rgb(200, 86, 199)" stroke-opacity="0.8877865" stroke-linecap="round" stroke-linejoin="round"/>
    <path d="M 188.49334716796875 79.61344146728516 C 196.6981201171875 71.49183654785156 188.4610595703125 74.81668853759766 195.10958862304688 76.66608428955078 C 194.80726623535156 78.23408508300781 196.93890380859375 79.26387786865234 200.21051025390625 79.70325469970703 C 198.2334747314453 72.33995819091797 205.792724609375 80.16224670410156 212.1941375732422 86.66506958007812" stroke-width="1.5848214626312256" fill="none" stroke="rgb(113, 125, 130)" stroke-opacity="0.04521346" stroke-linecap="round" stroke-linejoin="round"/>
    <path d="M 38.18446731567383 40.820011138916016 C 46.70709991455078 48.764442443847656 51.29829025268555 52.46495819091797 58.2905158996582 47.86356735229492 C 54.47380447387695 55.11037063598633 49.87759017944336 49.17140197753906 45.51014709472656 45.763954162597656" stroke-width="1.5848214626312256" fill="none" stroke="rgb(127, 141, 30)" stroke-opacity="0.9577372" stroke-linecap="round" stroke-linejoin="round"/>
    <path d="M 128.3765411376953 41.23140335083008 C 136.45938110351562 49.708438873291016 128.03076171875 46.908103942871094 124.14151763916016 51.867401123046875 C 126.81717681884766 52.18806838989258 119.77108764648438 49.727996826171875 118.8129653930664 57.16948318481445" stroke-width="1.852334976196289" fill="none" stroke="rgb(94, 115, 248)" stroke-opacity="0.32937083" stroke-linecap="round" stroke-linejoin="round"/>
    <path d="M 67.39514923095703 89.58496856689453 C 60.19458770751953 95.72491455078125 54.234169006347656 91.88349151611328 50.812286376953125 92.19817352294922 C 48.27274703979492 84.01415252685547 44.23630905151367 80.21973419189453 46.84074020385742 77.12883758544922" stroke-width="1.5848214626312256" fill="none" stroke="rgb(96, 66, 49)" stroke-opacity="0.17776497" stroke-linecap="round" stroke-linejoin="round"/>
    <path d="M 24.97871971130371 23.96417808532715 C 31.311307907104492 29.375865936279297 36.33032989501953 21.641923904418945 36.39180374145508 19.132356643676758 C 42.26173400878906 21.282180786132812 37.030094146728516 28.23702621459961 28.940507888793945 34.93543243408203 C 23.13855743408203 31.524213790893555 31.81444549560547 31.03274154663086 34.11605453491211 22.838977813720703" stroke-width="1.5848214626312256" fill="none" stroke="rgb(222, 210, 199)" stroke-opacity="0.042060852" stroke-linecap="round" stroke-linejoin="round"/>
    <path d="M 153.44970703125 63.52919006347656 C 160.49087524414062 64.82843780517578 164.3594207763672 67.96656799316406 164.97271728515625 67.62146759033203 C 164.0072479248047 64.5590591430664 159.91217041015625 72.26495361328125 158.22198486328125 80.6572265625 C 164.6442413330078 84.56617736816406 156.2519989013672 84.35623931884766 148.69070434570312 87.55799102783203" stroke-width="1.5848214626312256" fill="none" stroke="rgb(101, 204, 73)" stroke-opacity="0.0" stroke-linecap="round" stroke-linejoin="round"/>
    <path d="M 110.65409088134766 77.13681030273438 C 119.35055541992188 80.74987030029297 117.63947296142578 79.10818481445312 123.2016830444336 70.86636352539062" stroke-width="1.5848214626312256" fill="none" stroke="rgb(5, 103, 88)" stroke-opacity="0.95992786" stroke-linecap="round" stroke-linejoin="round"/>
    <path d="M 110.97665405273438 141.17079162597656 C 114.75414276123047 138.90966796875 106.36931610107422 139.34861755371094 106.64356994628906 139.2917022705078 C 102.76986694335938 134.39491271972656 101.03937530517578 131.3135223388672 100.0261001586914 127.51127624511719 C 98.21959686279297 130.9685821533203 100.15548706054688 127.05841064453125 102.83583068847656 127.12569427490234" stroke-width="1.5848214626312256" fill="none" stroke="rgb(41, 248, 6)" stroke-opacity="0.43728328" stroke-linecap="round" stroke-linejoin="round"/>
    <path d="M 137.06959533691406 17.286624908447266 C 135.86268615722656 18.905515670776367 128.5430145263672 13.854937553405762 132.29571533203125 13.789413452148438 C 137.9807586669922 12.73362922668457 140.15093994140625 9.188758850097656 135.2022247314453 6.615394115447998 C 135.58682250976562 6.665736675262451 138.05711364746094 -0.24067211151123047 143.75509643554688 7.681755065917969" stroke-width="1.5848214626312256" fill="none" stroke="rgb(74, 23, 123)" stroke-opacity="0.75071955" stroke-linecap="round" stroke-linejoin="round"/>
    <path d="M 99.71387481689453 102.46582794189453 C 93.99260711669922 110.38468933105469 87.65023040771484 119.62744140625 83.95883178710938 126.22161865234375 C 84.66448974609375 122.02587890625 88.7847671508789 119.37501525878906 82.49662017822266 119.7841796875 C 83.46160888671875 116.35550689697266 80.25126647949219 116.99082946777344 85.34629821777344 124.52017211914062" stroke-width="1.5848214626312256" fill="none" stroke="rgb(172, 86, 55)" stroke-opacity="0.12952356" stroke-linecap="round" stroke-linejoin="round"/>
    <path d="M 17.683378219604492 4.1177215576171875 C 15.134252548217773 -3.944042205810547 13.77449893951416 -7.638331890106201 20.052263259887695 -10.079082489013672 C 23.38157081604004 -18.748729705810547 20.28836441040039 -12.36196517944336 16.317283630371094 -6.868069171905518" stroke-width="1.88662850856781" fill="none" stroke="rgb(171, 246, 203)" stroke-opacity="0.12020272" stroke-linecap="round" stroke-linejoin="round"/>
    <path d="M 43.88175582885742 155.7660369873047 C 35.6713752746582 153.0154571533203 35.53487777709961 147.28497314453125 39.583473205566406 155.6483612060547 C 47.00883483886719 154.3132781982422 41.10077667236328 162.3765411376953 46.993160247802734 168.19407653808594 C 47.087730407714844 161.94679260253906 45.175472259521484 154.9063262939453 44.168392181396484 161.45590209960938" stroke-width="1.6003934144973755" fill="none" stroke="rgb(226, 10, 179)" stroke-opacity="0.46479085" stroke-linecap="round" stroke-linejoin="round"/>
    <path d="M 165.41102600097656 32.55711364746094 C 159.8000030517578 29.044721603393555 168.1032257080078 29.628870010375977 163.89022827148438 31.577686309814453 C 161.34561157226562 34.191490173339844 167.43821716308594 33.68975067138672 169.4912567138672 42.1662483215332" stroke-width="1.5848214626312256" fill="none" stroke="rgb(190, 71, 111)" stroke-opacity="0.34371004" stroke-linecap="round" stroke-linejoin="round"/>
    <path d="M 90.13883972167969 68.58238220214844 C 84.01240539550781 63.75969314575195 77.08463287353516 65.20326232910156 70.55553436279297 72.06878662109375 C 77.45056915283203 76.9478759765625 85.91810607910156 77.86551666259766 88.51404571533203 75.0713882446289 C 90.45057678222656 73.61042022705078 89.16149139404297 75.95216369628906 92.76567840576172 83.32762145996094" stroke-width="1.7937829494476318" fill="none" stroke="rgb(112, 178, 138)" stroke-opacity="0.31139305" stroke-linecap="round" stroke-linejoin="round"/>
    <path d="M 40.034889221191406 112.34725189208984 C 35.01280212402344 106.79509735107422 42.473899841308594 109.45675659179688 37.91395950317383 105.0907974243164 C 28.99785041809082 113.79793548583984 25.914026260375977 107.65830993652344 26.939790725708008 107.67984771728516" stroke-width="1.7131679058074951" fill="none" stroke="rgb(47, 44, 244)" stroke-opacity="0.6162146" stroke-linecap="round" stroke-linejoin="round"/>
    <path d="M 123.07939910888672 87.843505859375 C 118.27012634277344 96.25959014892578 125.5234146118164 99.06454467773438 129.9631805419922 102.15106964111328 C 132.8410186767578 103.04913330078125 136.0731964111328 111.65515899658203 136.56707763671875 113.35932159423828 C 140.9688262939453 115.97169494628906 133.08338928222656 109.28778839111328 138.31288146972656 113.67340850830078" stroke-width="1.5848214626312256" fill="none" stroke="rgb(129, 154, 139)" stroke-opacity="0.80399966" stroke-linecap="round" stroke-linejoin="round"/>
    <path d="M 114.07347869873047 21.48268699645996 C 115.8220443725586 20.831073760986328 110.82183837890625 24.008670806884766 104.89907836914062 30.50527000427246 C 112.38932037353516 21.613155364990234 106.7105484008789 16.76917839050293 106.71155548095703 19.567432403564453 C 105.49437713623047 17.146865844726562 107.17195129394531 21.972736358642578 105.64635467529297 14.549196243286133" stroke-width="1.8674083948135376" fill="none" stroke="rgb(80, 200, 211)" stroke-opacity="0.057179864" stroke-linecap="round" stroke-linejoin="round"/>
    <path d="M 4.721559524536133 95.45940399169922 C -3.2860610485076904 99.9700698852539 4.317197799682617 99.087646484375 -1.8057446479797363 92.7732162475586" stroke-width="1.8856772184371948" fill="none" stroke="rgb(227, 239, 36)" stroke-opacity="0.22617215" stroke-linecap="round" stroke-linejoin="round"/>
    <path d="M 34.755218505859375 173.41587829589844 C 30.657093048095703 166.17916870117188 27.304983139038086 162.56764221191406 28.03459358215332 164.35574340820312 C 19.436145782470703 158.48416137695312 19.723827362060547 151.59469604492188 18.180469512939453 148.47853088378906 C 24.510698318481445 142.00466918945312 27.171432495117188 141.35179138183594 33.09416961669922 139.9538116455078" stroke-width="1.5848214626312256" fill="none" stroke="rgb(230, 200, 82)" stroke-opacity="0.051982496" stroke-linecap="round" stroke-linejoin="round"/>
    <path d="M 20.442584991455078 145.7364959716797 C 24.96465301513672 139.56393432617188 21.047550201416016 147.14590454101562 26.72661018371582 139.8939971923828 C 31.28038215637207 133.28164672851562 34.70651626586914 129.64732360839844 30.35717010498047 129.64102172851562 C 30.89457130432129 122.80043029785156 37.05320358276367 126.34712982177734 31.854860305786133 119.35630798339844" stroke-width="1.9009079933166504" fill="none" stroke="rgb(151, 70, 95)" stroke-opacity="0.45775816" stroke-linecap="round" stroke-linejoin="round"/>
  </g>
</svg>
