<?xml version="1.0" ?>
<svg xmlns="http://www.w3.org/2000/svg" version="1.1" width="956.0" height="956.0">
  <defs/>
  <g>
    <path d="M 376.2030334472656 123.86687469482422 C 406.5120849609375 128.1347198486328 438.22222900390625 124.62619018554688 463.4707946777344 123.86688995361328 C 482.7629089355469 126.5436782836914 501.1563415527344 143.39794921875 507.2037353515625 163.1338348388672 C 514.0009765625 173.32472229003906 524.4915771484375 176.3709259033203 529.4730834960938 187.86154174804688 C 545.1610107421875 224.06527709960938 543.4686889648438 295.7081298828125 539.2010498046875 335.8700256347656 C 539.2010498046875 360.66058349609375 539.2010498046875 383.32733154296875 539.2011108398438 408.1205139160156 C 539.2010498046875 419.8011779785156 541.0748291015625 436.4227600097656 540.4671020507812 456.1287841796875 C 534.6928100585938 474.4074401855469 506.3721008300781 483.2942199707031 494.4642639160156 494.1296691894531 C 460.0251770019531 502.11785888671875 426.2401428222656 503.8578186035156 398.46234130859375 508.1255798339844 C 377.5071716308594 503.8577575683594 358.65478515625 506.33380126953125 337.1982727050781 496.1277770996094 C 315.2716979980469 469.8051452636719 311.466796875 436.40252685546875 311.4668273925781 404.8641357421875 C 307.1991271972656 390.73431396484375 307.2276611328125 378.77471923828125 322.1985778808594 371.8628234863281 C 333.3208923339844 372.9663391113281 342.1542663574219 373.12884521484375 349.4678039550781 373.1287841796875 C 369.821044921875 368.86102294921875 375.8151550292969 381.8052978515625 381.2029724121094 399.8644714355469 C 405.427978515625 449.4271545410156 414.38970947265625 507.8287048339844 413.2002868652344 558.1338500976562 C 413.8216857910156 568.2576904296875 423.9019470214844 610.5318603515625 420.4699401855469 620.1305541992188 C 418.4432067871094 621.5509033203125 403.7550964355469 625.9867553710938 402.46844482421875 622.8606567382812 C 394.2906188964844 624.9296264648438 391.537353515625 621.1248168945312 392.46875 618.1325073242188" stroke-width="8.535714149475098" fill="none" stroke="rgb(21, 26, 21)" stroke-opacity="0.99" stroke-linecap="round" stroke-linejoin="round"/>
  </g>
</svg>
