<?xml version="1.0" ?>
<svg xmlns="http://www.w3.org/2000/svg" version="1.1" width="1104.0" height="1104.0">
  <defs/>
  <g>
    <path d="M 23.71259117126465 67.71129608154297 C 88.01905822753906 79.32969665527344 160.18275451660156 68.42232513427734 160.9751434326172 65.03917694091797 C 160.97512817382812 62.446651458740234 142.5072784423828 47.02900695800781 123.32839965820312 53.381011962890625" stroke-width="1.5848214626312256" fill="none" stroke="rgb(0, 0, 2)" stroke-opacity="1.0" stroke-linecap="round" stroke-linejoin="round"/>
    <path d="M 58.26932144165039 75.6082763671875 C 55.636993408203125 111.33364868164062 49.99604415893555 147.43540954589844 59.398216247558594 149.6516571044922 C 68.8004150390625 152.6602783203125 109.07767486572266 142.88180541992188 116.22383117675781 126.00053405761719 C 122.57579040527344 107.53270721435547 123.74430847167969 100.01203918457031 123.7445068359375 100.80440521240234" stroke-width="1.5848214626312256" fill="none" stroke="rgb(2, 2, 0)" stroke-opacity="1.0" stroke-linecap="round" stroke-linejoin="round"/>
    <path d="M 122.1996078491211 76.69560241699219 C 137.2824249267578 74.06330871582031 141.79446411132812 71.05464935302734 141.04188537597656 78.57532501220703 C 139.49688720703125 86.09600067138672 136.8645477294922 89.10462188720703 132.76861572265625 98.92290496826172 C 127.88021087646484 107.94876861572266 134.98483276367188 112.4608154296875 127.8802490234375 107.94877624511719" stroke-width="1.5848214626312256" fill="none" stroke="rgb(2, 2, 0)" stroke-opacity="0.99000007" stroke-linecap="round" stroke-linejoin="round"/>
    <path d="M 74.4793701171875 88.73011016845703 C 71.4707260131836 99.29916381835938 63.95008087158203 114.34231567382812 64.70266723632812 115.47122955322266 C 65.45511627197266 115.80772399902344 74.47935485839844 116.55856323242188 77.11347198486328 115.47122955322266" stroke-width="1.5848214626312256" fill="none" stroke="rgb(0, 2, 0)" stroke-opacity="1.0" stroke-linecap="round" stroke-linejoin="round"/>
    <path d="M 61.65425491333008 86.51387786865234 C 68.84016418457031 86.09780883789062 62.82291793823242 87.60120391845703 70.71991729736328 86.85037231445312" stroke-width="1.5848214626312256" fill="none" stroke="rgb(0, 0, 2)" stroke-opacity="1.0" stroke-linecap="round" stroke-linejoin="round"/>
    <path d="M 86.43150329589844 89.93891906738281 C 92.82504272460938 91.10757446289062 86.80780029296875 91.81861114501953 95.49708557128906 91.06777954101562" stroke-width="1.5848214626312256" fill="none" stroke="rgb(2, 2, 2)" stroke-opacity="0.99" stroke-linecap="round" stroke-linejoin="round"/>
    <path d="M 67.29519653320312 127.50394439697266 C 84.1069107055664 128.7421417236328 86.13619995117188 126.53938293457031 86.08891296386719 125.79389190673828" stroke-width="1.5848214626312256" fill="none" stroke="rgb(0, 2, 0)" stroke-opacity="0.99000007" stroke-linecap="round" stroke-linejoin="round"/>
    <path d="M 132.76858520507812 98.13050079345703 C 135.11676025390625 95.3229751586914 136.33685302734375 104.18258666992188 137.060302734375 105.18672943115234" stroke-width="1.5848214626312256" fill="none" stroke="rgb(57, 3, 55)" stroke-opacity="0.78627086" stroke-linecap="round" stroke-linejoin="round"/>
    <path d="M 132.76858520507812 98.1305160522461 C 134.657958984375 95.72164154052734 143.39126586914062 94.73381042480469 147.6501922607422 87.85442352294922" stroke-width="1.7433030605316162" fill="none" stroke="rgb(161, 243, 251)" stroke-opacity="0.335475" stroke-linecap="round" stroke-linejoin="round"/>
    <path d="M 86.08891296386719 126.58627319335938 C 83.02640533447266 131.83853149414062 78.6495590209961 124.71891021728516 77.58821868896484 127.14852142333984" stroke-width="1.5848214626312256" fill="none" stroke="rgb(22, 195, 98)" stroke-opacity="0.63218945" stroke-linecap="round" stroke-linejoin="round"/>
    <path d="M 87.2232894897461 89.93890380859375 C 87.53524017333984 97.98563385009766 84.37775421142578 99.9855728149414 80.9354019165039 94.0815658569336 C 88.96308135986328 91.91706848144531 85.56332397460938 93.52352905273438 78.32678985595703 102.35025787353516" stroke-width="1.7433034181594849" fill="none" stroke="rgb(47, 155, 177)" stroke-opacity="0.6244912" stroke-linecap="round" stroke-linejoin="round"/>
    <path d="M 122.99191284179688 76.69560241699219 C 118.69444274902344 69.60590362548828 117.05852508544922 65.15553283691406 113.19349670410156 66.39834594726562 C 105.65634155273438 58.45588302612305 105.45207214355469 64.85919952392578 102.95941925048828 58.61429977416992 C 94.58422088623047 61.2335205078125 89.17715454101562 64.27581787109375 80.45339965820312 60.49814987182617" stroke-width="1.5848214626312256" fill="none" stroke="rgb(103, 182, 226)" stroke-opacity="0.86896574" stroke-linecap="round" stroke-linejoin="round"/>
    <path d="M 77.1054916381836 114.67882537841797 C 85.45945739746094 117.2219009399414 78.77357482910156 112.31537628173828 81.21902465820312 119.54651641845703" stroke-width="1.5848214626312256" fill="none" stroke="rgb(7, 98, 185)" stroke-opacity="0.62182266" stroke-linecap="round" stroke-linejoin="round"/>
    <path d="M 127.8802490234375 107.15637969970703 C 134.1235809326172 114.99169158935547 138.28834533691406 115.59375 130.82579040527344 108.96418762207031 C 123.0804672241211 107.67638397216797 118.35047149658203 108.33171844482422 109.48383331298828 112.88616180419922" stroke-width="1.5848214626312256" fill="none" stroke="rgb(147, 36, 169)" stroke-opacity="0.5103388" stroke-linecap="round" stroke-linejoin="round"/>
    <path d="M 87.223876953125 89.93891906738281 C 88.87371826171875 81.96014404296875 85.8240737915039 85.45035552978516 84.67068481445312 85.72840881347656" stroke-width="1.5848214626312256" fill="none" stroke="rgb(31, 70, 114)" stroke-opacity="0.66802746" stroke-linecap="round" stroke-linejoin="round"/>
    <path d="M 77.53440856933594 102.35023498535156 C 77.47529602050781 110.8494644165039 71.3218002319336 119.17761993408203 78.54104614257812 128.00778198242188 C 81.6873779296875 131.1930389404297 88.44352722167969 131.36903381347656 82.16864013671875 138.46385192871094 C 86.43016815185547 141.35841369628906 82.66824340820312 141.84878540039062 81.57994079589844 149.2584991455078" stroke-width="1.7433030605316162" fill="none" stroke="rgb(212, 241, 175)" stroke-opacity="0.17252699" stroke-linecap="round" stroke-linejoin="round"/>
    <path d="M 83.87832641601562 85.72840118408203 C 92.50386047363281 79.73588562011719 92.25877380371094 77.0531005859375 88.48481750488281 80.81182861328125" stroke-width="1.5848214626312256" fill="none" stroke="rgb(155, 207, 69)" stroke-opacity="0.76899326" stroke-linecap="round" stroke-linejoin="round"/>
    <path d="M 84.67072296142578 86.52079772949219 C 91.84857940673828 80.20716094970703 89.23454284667969 73.7326431274414 87.58375549316406 65.82054901123047" stroke-width="1.743302822113037" fill="none" stroke="rgb(29, 212, 250)" stroke-opacity="0.74253386" stroke-linecap="round" stroke-linejoin="round"/>
    <path d="M 81.24579620361328 61.29054260253906 C 81.74484252929688 65.61153411865234 81.24365234375 67.461181640625 86.11831665039062 75.59275817871094 C 86.57756805419922 77.7453842163086 77.79585266113281 84.02723693847656 83.66165161132812 84.17950439453125 C 86.48316192626953 89.01678466796875 91.59396362304688 90.88597869873047 85.97966766357422 95.58164978027344" stroke-width="1.5848214626312256" fill="none" stroke="rgb(241, 101, 45)" stroke-opacity="0.24914625" stroke-linecap="round" stroke-linejoin="round"/>
    <path d="M 77.58822631835938 127.14852142333984 C 72.13764190673828 124.67544555664062 70.87207794189453 122.49625396728516 77.61441040039062 123.1736068725586" stroke-width="1.7433011531829834" fill="none" stroke="rgb(94, 89, 20)" stroke-opacity="0.053969026" stroke-linecap="round" stroke-linejoin="round"/>
    <path d="M 137.8527069091797 105.97891235351562 C 140.33786010742188 99.32925415039062 145.34620666503906 96.16064453125 149.19642639160156 87.67453002929688 C 144.89707946777344 81.9667739868164 148.90623474121094 89.19667053222656 157.7506561279297 89.02962493896484" stroke-width="1.5848214626312256" fill="none" stroke="rgb(59, 19, 88)" stroke-opacity="0.6189103" stroke-linecap="round" stroke-linejoin="round"/>
    <path d="M 77.58821868896484 127.14852142333984 C 86.70838928222656 131.01458740234375 88.8388900756836 122.17940521240234 90.01854705810547 119.76200103759766 C 97.57893371582031 118.10346221923828 96.72622680664062 114.91374969482422 102.9769515991211 116.56047821044922" stroke-width="1.5848214626312256" fill="none" stroke="rgb(25, 226, 179)" stroke-opacity="0.70882326" stroke-linecap="round" stroke-linejoin="round"/>
    <path d="M 84.67071533203125 85.72840881347656 C 83.64347839355469 79.2483901977539 84.22396087646484 78.8834457397461 84.4008560180664 78.62670135498047 C 75.6821060180664 78.10648345947266 68.90686798095703 79.23021697998047 66.12191772460938 75.55168914794922" stroke-width="1.5848214626312256" fill="none" stroke="rgb(66, 128, 31)" stroke-opacity="0.39765775" stroke-linecap="round" stroke-linejoin="round"/>
    <path d="M 86.56208801269531 89.20264434814453 C 83.14106750488281 93.42072296142578 91.42606353759766 91.81543731689453 97.86945343017578 91.07364654541016" stroke-width="1.5848214626312256" fill="none" stroke="rgb(202, 31, 213)" stroke-opacity="0.91274905" stroke-linecap="round" stroke-linejoin="round"/>
    <path d="M 36.128021240234375 8.708332061767578 C 41.45735168457031 7.876570701599121 40.06326675415039 6.5224080085754395 41.22508239746094 -1.1953808069229126" stroke-width="1.5848214626312256" fill="none" stroke="rgb(133, 105, 241)" stroke-opacity="0.27029836" stroke-linecap="round" stroke-linejoin="round"/>
    <path d="M 99.24335479736328 56.255218505859375 C 91.67952728271484 54.35489273071289 99.97561645507812 46.7386360168457 95.41053771972656 38.216819763183594" stroke-width="1.7433027029037476" fill="none" stroke="rgb(137, 249, 234)" stroke-opacity="0.88433975" stroke-linecap="round" stroke-linejoin="round"/>
    <path d="M 48.8240852355957 131.7244415283203 C 41.61102294921875 131.0306854248047 49.84547805786133 125.67266845703125 46.07928466796875 130.9706268310547" stroke-width="1.5848214626312256" fill="none" stroke="rgb(155, 228, 192)" stroke-opacity="0.1138071" stroke-linecap="round" stroke-linejoin="round"/>
    <path d="M 134.55575561523438 170.0673828125 C 139.39146423339844 164.12979125976562 131.5442352294922 159.64712524414062 130.17413330078125 159.33143615722656 C 130.64048767089844 151.80006408691406 127.18006896972656 149.95120239257812 123.52093505859375 147.2400360107422 C 120.64710998535156 142.1927947998047 116.919921875 149.1223602294922 117.56034851074219 153.0542755126953" stroke-width="1.7432959079742432" fill="none" stroke="rgb(80, 126, 255)" stroke-opacity="0.7658784" stroke-linecap="round" stroke-linejoin="round"/>
    <path d="M 166.45298767089844 137.23899841308594 C 163.5257568359375 139.78297424316406 160.38775634765625 132.8021240234375 157.1322479248047 128.1991729736328 C 160.51870727539062 125.99029541015625 167.81455993652344 131.88002014160156 171.17271423339844 123.9482650756836" stroke-width="1.743302345275879" fill="none" stroke="rgb(232, 215, 40)" stroke-opacity="0.035581514" stroke-linecap="round" stroke-linejoin="round"/>
    <path d="M 19.218868255615234 76.61003112792969 C 20.324140548706055 71.38825225830078 20.431032180786133 74.83002471923828 16.09010124206543 67.30596160888672" stroke-width="1.7433031797409058" fill="none" stroke="rgb(207, 2, 192)" stroke-opacity="0.27454245" stroke-linecap="round" stroke-linejoin="round"/>
    <path d="M 81.6919174194336 88.23967742919922 C 86.54083251953125 85.59063720703125 78.04056549072266 91.7333984375 73.52027130126953 90.09881591796875 C 79.61422729492188 98.47755432128906 76.96741485595703 96.82408142089844 70.7692642211914 94.14556884765625 C 67.74327850341797 92.0044937133789 72.25850677490234 99.01744842529297 75.38397216796875 103.42384338378906" stroke-width="1.743301510810852" fill="none" stroke="rgb(145, 47, 200)" stroke-opacity="0.07161235" stroke-linecap="round" stroke-linejoin="round"/>
    <path d="M 119.67048645019531 142.62216186523438 C 122.3526611328125 150.13043212890625 118.64824676513672 141.6100311279297 116.87451171875 135.10684204101562" stroke-width="1.743298888206482" fill="none" stroke="rgb(233, 241, 18)" stroke-opacity="0.06294983" stroke-linecap="round" stroke-linejoin="round"/>
    <path d="M 114.09085845947266 171.2787322998047 C 119.06214141845703 164.3373260498047 116.60685729980469 166.0712432861328 111.7103500366211 167.21389770507812 C 104.33160400390625 166.8865203857422 109.92752838134766 174.0270538330078 107.4053726196289 182.98277282714844" stroke-width="1.5848214626312256" fill="none" stroke="rgb(99, 154, 122)" stroke-opacity="0.8523473" stroke-linecap="round" stroke-linejoin="round"/>
    <path d="M 69.53195190429688 94.00192260742188 C 66.12716674804688 101.89259338378906 62.578311920166016 99.19825744628906 65.3441162109375 98.95124053955078 C 59.67914962768555 106.87696075439453 51.4123649597168 99.18701934814453 57.34956359863281 93.63602447509766 C 55.328975677490234 95.47016906738281 62.11448669433594 93.44969940185547 58.938297271728516 98.73141479492188" stroke-width="1.7432934045791626" fill="none" stroke="rgb(52, 99, 73)" stroke-opacity="0.28689188" stroke-linecap="round" stroke-linejoin="round"/>
    <path d="M 36.9924430847168 85.21937561035156 C 30.02415657043457 91.451416015625 29.041940689086914 90.1362075805664 24.726116180419922 86.13969421386719 C 22.920936584472656 90.87403106689453 27.606142044067383 95.6622314453125 18.776430130004883 99.06919860839844 C 14.094246864318848 102.85344696044922 10.853606224060059 107.83173370361328 2.4652388095855713 116.42758178710938" stroke-width="1.5848214626312256" fill="none" stroke="rgb(86, 24, 199)" stroke-opacity="0.09043885" stroke-linecap="round" stroke-linejoin="round"/>
    <path d="M 150.03411865234375 177.49124145507812 C 157.59188842773438 183.69577026367188 158.99440002441406 182.81805419921875 154.67527770996094 181.41629028320312" stroke-width="1.5848214626312256" fill="none" stroke="rgb(202, 153, 62)" stroke-opacity="0.3564394" stroke-linecap="round" stroke-linejoin="round"/>
    <path d="M 147.41322326660156 93.01168823242188 C 156.14382934570312 87.48041534423828 163.8794708251953 83.17576599121094 155.21246337890625 80.68743896484375" stroke-width="1.5848214626312256" fill="none" stroke="rgb(96, 205, 17)" stroke-opacity="0.27728668" stroke-linecap="round" stroke-linejoin="round"/>
    <path d="M 27.89056968688965 108.88032531738281 C 35.05958938598633 106.6290054321289 32.692413330078125 103.3189468383789 30.096309661865234 109.47876739501953 C 26.792024612426758 107.20166015625 32.1338996887207 100.26713562011719 35.77740478515625 95.83536529541016" stroke-width="1.5848214626312256" fill="none" stroke="rgb(65, 156, 143)" stroke-opacity="0.96480775" stroke-linecap="round" stroke-linejoin="round"/>
    <path d="M 120.55790710449219 111.23875427246094 C 121.21863555908203 102.98294830322266 130.06356811523438 106.87718963623047 131.88526916503906 103.53390502929688" stroke-width="1.7432785034179688" fill="none" stroke="rgb(73, 114, 204)" stroke-opacity="0.2913754" stroke-linecap="round" stroke-linejoin="round"/>
  </g>
</svg>
