<?xml version="1.0" ?>
<svg xmlns="http://www.w3.org/2000/svg" version="1.1" width="925.0" height="925.0">
  <defs/>
  <g>
    <path d="M 352.26495361328125 434.5535888671875 C 419.8814697265625 408.95208740234375 409.93365478515625 406.6459655761719 396.6224060058594 459.0643615722656 C 373.6750183105469 456.55938720703125 371.6122741699219 447.22100830078125 348.2705078125 447.5224609375 C 375.7353515625 472.8055419921875 369.5767822265625 476.9967346191406 374.6026611328125 519.9375 C 390.2799072265625 593.1924438476562 391.720458984375 671.9839477539062 407.98663330078125 734.564208984375" stroke-width="8.258928298950195" fill="none" stroke="rgb(57, 2, 11)" stroke-opacity="0.891535" stroke-linecap="round" stroke-linejoin="round"/>
    <path d="M 577.0233154296875 488.3478088378906 C 593.3742065429688 488.32257080078125 585.187255859375 516.1438598632812 580.944091796875 500.5087585449219 C 584.1084594726562 507.87017822265625 571.34814453125 553.0225830078125 577.2335815429688 540.5420532226562 C 579.43359375 585.7555541992188 568.7589721679688 624.1029052734375 573.6236572265625 681.4756469726562" stroke-width="11.768316268920898" fill="none" stroke="rgb(64, 8, 33)" stroke-opacity="0.7968603" stroke-linecap="round" stroke-linejoin="round"/>
    <path d="M 368.4770202636719 767.7361450195312 C 396.264892578125 769.7255249023438 430.291259765625 780.0910034179688 418.7705078125 814.3591918945312" stroke-width="12.330357551574707" fill="none" stroke="rgb(121, 113, 160)" stroke-opacity="0.41888607" stroke-linecap="round" stroke-linejoin="round"/>
    <path d="M 366.4706115722656 433.7637634277344 C 367.4954833984375 452.7088928222656 378.96826171875 491.5221252441406 396.77581787109375 451.0714416503906 C 398.4352722167969 458.111572265625 393.39501953125 493.3402404785156 431.1269226074219 476.0925598144531 C 432.88916015625 427.03814697265625 409.5171813964844 450.5292053222656 419.18072509765625 534.42236328125" stroke-width="8.258928298950195" fill="none" stroke="rgb(159, 143, 129)" stroke-opacity="0.38300624" stroke-linecap="round" stroke-linejoin="round"/>
    <path d="M 407.67962646484375 752.1467895507812 C 386.2275085449219 736.1621704101562 439.4557800292969 716.13916015625 451.2872619628906 707.4724731445312 C 493.2677307128906 681.48828125 473.5515441894531 726.4291381835938 464.10693359375 676.5491943359375 C 480.8898620605469 674.4794921875 418.126220703125 687.9854736328125 387.9708251953125 708.2601318359375" stroke-width="10.648493766784668" fill="none" stroke="rgb(124, 70, 66)" stroke-opacity="0.6968409" stroke-linecap="round" stroke-linejoin="round"/>
    <path d="M 415.49151611328125 421.46649169921875 C 374.3364562988281 414.8131103515625 387.34478759765625 389.5121765136719 379.5392150878906 415.26092529296875" stroke-width="16.066219329833984" fill="none" stroke="rgb(110, 78, 37)" stroke-opacity="0.42256063" stroke-linecap="round" stroke-linejoin="round"/>
    <path d="M 556.5660400390625 687.9790649414062 C 534.152587890625 639.4345092773438 534.2368774414062 587.1045532226562 546.1475830078125 587.2787475585938 C 608.0296630859375 657.7058715820312 611.9769287109375 668.7216186523438 584.8951416015625 553.92626953125 C 546.901611328125 554.023681640625 590.2471923828125 594.6103515625 672.1779174804688 637.1909790039062" stroke-width="8.258928298950195" fill="none" stroke="rgb(84, 204, 86)" stroke-opacity="0.099444434" stroke-linecap="round" stroke-linejoin="round"/>
    <path d="M 341.04052734375 422.93902587890625 C 330.40484619140625 412.80218505859375 397.96826171875 409.5198059082031 392.4405517578125 393.0972900390625" stroke-width="8.258928298950195" fill="none" stroke="rgb(40, 107, 214)" stroke-opacity="0.25895584" stroke-linecap="round" stroke-linejoin="round"/>
    <path d="M 368.8348693847656 761.5272216796875 C 326.501708984375 721.4022827148438 351.43212890625 780.6483764648438 357.09552001953125 852.785888671875" stroke-width="11.317363739013672" fill="none" stroke="rgb(136, 94, 126)" stroke-opacity="1.0" stroke-linecap="round" stroke-linejoin="round"/>
    <path d="M 387.5976257324219 486.61651611328125 C 355.29736328125 440.94720458984375 318.2403869628906 469.93817138671875 338.162841796875 410.25006103515625 C 404.0128173828125 383.6144714355469 434.9748229980469 357.40277099609375 423.99853515625 383.85626220703125 C 424.20416259765625 397.0010986328125 412.24212646484375 452.774658203125 373.95281982421875 435.307373046875" stroke-width="29.386104583740234" fill="none" stroke="rgb(192, 0, 33)" stroke-opacity="0.79896456" stroke-linecap="round" stroke-linejoin="round"/>
    <path d="M 639.85498046875 632.0220336914062 C 625.9907836914062 682.1627807617188 621.280029296875 681.3820190429688 675.2202758789062 670.4161376953125" stroke-width="9.066128730773926" fill="none" stroke="rgb(191, 242, 199)" stroke-opacity="0.3403172" stroke-linecap="round" stroke-linejoin="round"/>
    <path d="M 452.4695739746094 803.9657592773438 C 427.0097351074219 798.921142578125 389.7287902832031 756.2861328125 348.2171325683594 766.5718383789062 C 322.90777587890625 794.8935546875 287.85845947265625 859.0494384765625 328.37945556640625 865.5204467773438 C 326.25201416015625 896.0869750976562 320.3857116699219 881.3513793945312 324.4459533691406 832.7742919921875" stroke-width="8.258928298950195" fill="none" stroke="rgb(148, 251, 90)" stroke-opacity="0.36385491" stroke-linecap="round" stroke-linejoin="round"/>
    <path d="M 345.02130126953125 382.66680908203125 C 312.9618225097656 404.056640625 363.9114074707031 447.4588928222656 431.9246826171875 418.3027038574219" stroke-width="8.258928298950195" fill="none" stroke="rgb(47, 221, 193)" stroke-opacity="0.2692596" stroke-linecap="round" stroke-linejoin="round"/>
    <path d="M 682.4065551757812 618.3848266601562 C 633.921875 595.713134765625 620.3156127929688 601.2235107421875 570.9513549804688 575.797119140625" stroke-width="14.518228530883789" fill="none" stroke="rgb(142, 64, 70)" stroke-opacity="0.75331706" stroke-linecap="round" stroke-linejoin="round"/>
    <path d="M 420.7411804199219 721.3667602539062 C 371.1092529296875 770.6039428710938 376.66839599609375 726.5520629882812 381.538330078125 713.5289916992188 C 339.6745910644531 718.5271606445312 337.722900390625 733.1983642578125 376.4560241699219 726.210205078125" stroke-width="8.947969436645508" fill="none" stroke="rgb(107, 47, 48)" stroke-opacity="0.53309125" stroke-linecap="round" stroke-linejoin="round"/>
    <path d="M 663.4696655273438 631.715576171875 C 682.2330322265625 629.2206420898438 670.0426025390625 624.7403564453125 670.6015014648438 680.7944946289062" stroke-width="11.912732124328613" fill="none" stroke="rgb(53, 71, 176)" stroke-opacity="0.15101664" stroke-linecap="round" stroke-linejoin="round"/>
    <path d="M 389.7557678222656 439.58612060546875 C 375.8882141113281 427.6571350097656 410.4510803222656 410.29779052734375 440.91864013671875 418.8721618652344 C 414.4052429199219 407.0502624511719 372.69927978515625 392.89837646484375 425.54815673828125 403.6822509765625 C 479.4118957519531 403.1961364746094 454.8722839355469 408.34722900390625 406.80865478515625 438.1933288574219" stroke-width="17.785070419311523" fill="none" stroke="rgb(77, 64, 72)" stroke-opacity="0.57350874" stroke-linecap="round" stroke-linejoin="round"/>
    <path d="M 399.5884094238281 444.2317810058594 C 398.3210754394531 394.0442810058594 383.5370788574219 386.02313232421875 401.9574279785156 427.6142578125 C 389.65435791015625 401.90869140625 423.298095703125 388.2037048339844 418.9270935058594 371.57562255859375" stroke-width="8.258928298950195" fill="none" stroke="rgb(57, 124, 219)" stroke-opacity="0.052595463" stroke-linecap="round" stroke-linejoin="round"/>
    <path d="M 323.2273254394531 126.51266479492188 C 365.2862243652344 143.0664520263672 408.4909362792969 144.8821258544922 362.1766662597656 182.88357543945312 C 359.6103515625 227.45045471191406 329.5822448730469 216.04226684570312 310.96258544921875 239.5016632080078" stroke-width="8.645310401916504" fill="none" stroke="rgb(161, 67, 78)" stroke-opacity="0.0028781807" stroke-linecap="round" stroke-linejoin="round"/>
    <path d="M 192.71490478515625 253.7798614501953 C 212.99343872070312 227.63619995117188 219.12896728515625 219.861328125 209.4040985107422 179.89859008789062" stroke-width="8.258928298950195" fill="none" stroke="rgb(6, 255, 73)" stroke-opacity="0.32798743" stroke-linecap="round" stroke-linejoin="round"/>
    <path d="M 469.95794677734375 389.0979919433594 C 518.2112426757812 424.61572265625 504.0621643066406 388.9171447753906 485.2974548339844 412.7828674316406" stroke-width="8.258928298950195" fill="none" stroke="rgb(204, 124, 214)" stroke-opacity="0.25934646" stroke-linecap="round" stroke-linejoin="round"/>
    <path d="M 80.16475677490234 682.277587890625 C 82.74114227294922 653.7295532226562 82.51683044433594 638.7376098632812 55.27602005004883 604.8518676757812 C 38.425987243652344 579.6188354492188 33.15541458129883 638.8814697265625 5.973170757293701 661.3761596679688 C 15.812789916992188 658.5626220703125 2.5926594734191895 660.1881103515625 -5.46971321105957 653.8021240234375" stroke-width="8.808977127075195" fill="none" stroke="rgb(79, 255, 145)" stroke-opacity="0.6482858" stroke-linecap="round" stroke-linejoin="round"/>
    <path d="M 849.3269653320312 665.6882934570312 C 832.266357421875 703.1477661132812 782.36474609375 725.4488525390625 747.3345947265625 766.677978515625 C 689.707763671875 704.546142578125 694.1353759765625 740.5718994140625 697.2440185546875 789.7022094726562" stroke-width="8.258928298950195" fill="none" stroke="rgb(174, 119, 128)" stroke-opacity="0.46063402" stroke-linecap="round" stroke-linejoin="round"/>
    <path d="M 435.13458251953125 322.8877868652344 C 453.58966064453125 324.29376220703125 451.409912109375 275.542236328125 415.7840881347656 235.75997924804688 C 443.7458801269531 256.6512756347656 428.8056640625 260.82257080078125 419.1194763183594 240.4263458251953" stroke-width="8.258928298950195" fill="none" stroke="rgb(186, 255, 184)" stroke-opacity="0.754317" stroke-linecap="round" stroke-linejoin="round"/>
    <path d="M 677.45263671875 774.3909912109375 C 683.78369140625 807.5589599609375 664.8980102539062 759.9717407226562 671.6795043945312 717.7852783203125" stroke-width="8.574814796447754" fill="none" stroke="rgb(155, 255, 95)" stroke-opacity="0.7206262" stroke-linecap="round" stroke-linejoin="round"/>
    <path d="M 870.6165161132812 754.5263671875 C 904.8892822265625 744.0740966796875 908.7852783203125 678.884033203125 922.6972045898438 667.3786010742188" stroke-width="8.348302841186523" fill="none" stroke="rgb(97, 255, 130)" stroke-opacity="0.7590722" stroke-linecap="round" stroke-linejoin="round"/>
    <path d="M 830.37841796875 322.3505554199219 C 793.362060546875 311.6253967285156 772.6677856445312 271.67596435546875 803.9896240234375 312.7111511230469 C 768.3565673828125 278.6732482910156 789.2731323242188 249.97267150878906 785.0181884765625 235.85182189941406" stroke-width="8.258928298950195" fill="none" stroke="rgb(105, 68, 68)" stroke-opacity="0.57108206" stroke-linecap="round" stroke-linejoin="round"/>
    <path d="M 81.30338287353516 320.0697021484375 C 70.27947998046875 334.4913330078125 59.644012451171875 307.0499267578125 88.06446838378906 298.4845886230469 C 93.1920166015625 310.30047607421875 56.883758544921875 332.4895324707031 73.59353637695312 278.2824401855469" stroke-width="8.258928298950195" fill="none" stroke="rgb(99, 57, 255)" stroke-opacity="0.7619702" stroke-linecap="round" stroke-linejoin="round"/>
    <path d="M 685.9347534179688 447.8554992675781 C 718.524169921875 379.0956115722656 735.7108764648438 427.5552673339844 705.5560913085938 385.6386413574219 C 641.7062377929688 354.94903564453125 661.18212890625 348.7333984375 624.9193725585938 390.83966064453125 C 690.6358032226562 422.27484130859375 690.943603515625 422.07421875 697.7552490234375 384.51971435546875" stroke-width="18.999601364135742" fill="none" stroke="rgb(227, 0, 0)" stroke-opacity="1.0" stroke-linecap="round" stroke-linejoin="round"/>
    <path d="M 310.87884521484375 142.07449340820312 C 300.4689636230469 124.83122253417969 275.6791687011719 76.79693603515625 334.2737731933594 54.49980545043945 C 367.5957946777344 84.8402328491211 385.3417053222656 57.41509246826172 378.7497253417969 93.3506851196289 C 375.7722473144531 45.31155014038086 354.87286376953125 41.92958068847656 312.7348327636719 71.92855834960938" stroke-width="8.258928298950195" fill="none" stroke="rgb(181, 66, 244)" stroke-opacity="0.47199026" stroke-linecap="round" stroke-linejoin="round"/>
    <path d="M -6.91048526763916 667.2349853515625 C -30.9355525970459 651.609619140625 -41.09552764892578 675.6887817382812 -26.67952537536621 650.2532348632812 C -8.99371337890625 637.526123046875 -20.452564239501953 604.1939086914062 -16.623035430908203 643.1363525390625" stroke-width="8.258928298950195" fill="none" stroke="rgb(227, 204, 73)" stroke-opacity="0.7849302" stroke-linecap="round" stroke-linejoin="round"/>
    <path d="M 293.98468017578125 167.5882110595703 C 296.45660400390625 168.42591857910156 310.4049377441406 216.81808471679688 310.04937744140625 182.26492309570312 C 301.7413024902344 200.25244140625 321.81353759765625 186.31675720214844 337.1279602050781 152.46543884277344 C 312.4754333496094 156.9042510986328 380.0877990722656 136.26895141601562 362.49365234375 134.77801513671875" stroke-width="8.258928298950195" fill="none" stroke="rgb(96, 221, 108)" stroke-opacity="0.70977783" stroke-linecap="round" stroke-linejoin="round"/>
    <path d="M 894.5146484375 306.1322021484375 C 883.1930541992188 280.4917297363281 897.0614624023438 314.22198486328125 902.7225341796875 360.48089599609375 C 906.4674072265625 368.2146301269531 946.8321533203125 415.2386779785156 960.112060546875 397.67401123046875 C 1001.974609375 351.2622375488281 1003.3619995117188 328.7667236328125 961.3131713867188 365.5542907714844" stroke-width="8.258928298950195" fill="none" stroke="rgb(170, 128, 142)" stroke-opacity="0.24314128" stroke-linecap="round" stroke-linejoin="round"/>
    <path d="M 54.37930679321289 625.0015258789062 C 74.15208435058594 605.7920532226562 114.64949035644531 626.4085083007812 101.7735824584961 566.4254760742188 C 145.51170349121094 520.2996215820312 133.1602325439453 540.1092529296875 174.86138916015625 511.8626708984375" stroke-width="9.485029220581055" fill="none" stroke="rgb(58, 255, 71)" stroke-opacity="0.21008813" stroke-linecap="round" stroke-linejoin="round"/>
  </g>
</svg>
