<?xml version="1.0" ?>
<svg xmlns="http://www.w3.org/2000/svg" version="1.1" width="1104.0" height="1104.0">
  <defs/>
  <g>
    <path d="M 64.2470703125 64.61779022216797 C 63.119110107421875 64.17683410644531 62.53718185424805 64.83789825439453 62.80607223510742 64.7902603149414 C 62.52455520629883 64.19134521484375 62.5430908203125 63.98633575439453 61.6044807434082 63.96162796020508 C 60.1146240234375 63.937034606933594 58.221343994140625 64.64385986328125 57.11724853515625 61.432865142822266 C 56.564491271972656 57.669315338134766 55.69947814941406 51.64047622680664 55.572784423828125 47.74484634399414 C 54.894771575927734 44.399234771728516 53.853660583496094 44.2893180847168 56.49395751953125 43.060508728027344 C 59.134517669677734 42.38298034667969 64.90521240234375 39.483924865722656 69.34004974365234 38.44158172607422 C 74.3265609741211 37.39925003051758 76.87568664550781 37.66230010986328 79.42557525634766 37.92534255981445 C 81.97461700439453 38.18839645385742 82.64716339111328 43.022274017333984 83.86981201171875 48.40731430053711" stroke-width="1.1356550455093384" fill="none" stroke="rgb(35, 21, 15)" stroke-opacity="0.97732997" stroke-linecap="round" stroke-linejoin="round"/>
    <path d="M 84.4816665649414 48.25490951538086 C 87.2117691040039 49.27381134033203 90.49436950683594 50.84397506713867 90.14732360839844 51.13738250732422 C 89.80152130126953 51.98335647583008 85.82730865478516 52.65643310546875 82.40440368652344 53.87961196899414 C 77.87894439697266 54.55268096923828 79.32010650634766 56.566776275634766 80.76010131835938 58.0299186706543" stroke-width="1.1026785373687744" fill="none" stroke="rgb(37, 216, 163)" stroke-opacity="0.57325" stroke-linecap="round" stroke-linejoin="round"/>
    <path d="M 84.4816665649414 48.80622100830078 C 87.2117919921875 49.2737922668457 90.49436950683594 50.84397506713867 90.14732360839844 51.13738250732422 C 89.80152130126953 51.98335647583008 85.82730865478516 52.65643310546875 82.40440368652344 53.87961196899414 C 78.42993927001953 54.55268096923828 79.32009887695312 56.566925048828125 80.76010131835938 58.0299186706543" stroke-width="1.1026785373687744" fill="none" stroke="rgb(140, 131, 215)" stroke-opacity="0.66276" stroke-linecap="round" stroke-linejoin="round"/>
    <path d="M 60.49380874633789 63.48112869262695 C 60.53618240356445 62.90426254272461 59.49156951904297 62.57185745239258 59.636146545410156 63.06697082519531 C 59.78369140625 63.560630798339844 60.58144760131836 65.00198364257812 61.380489349365234 65.89070892333984 C 62.7308464050293 67.33069610595703 58.97274398803711 64.12340545654297 55.215877532958984 60.91611862182617" stroke-width="1.1026785373687744" fill="none" stroke="rgb(82, 131, 120)" stroke-opacity="0.69" stroke-linecap="round" stroke-linejoin="round"/>
    <path d="M 58.88595199584961 59.797218322753906 C 60.32504653930664 60.83957290649414 61.213016510009766 61.88190841674805 61.51798629760742 62.236446380615234 C 61.27190017700195 63.14198684692383 60.99285125732422 62.807220458984375 61.264713287353516 62.473793029785156 C 60.43484115600586 61.58989715576172 57.33342361450195 63.982662200927734 54.78238296508789 66.3772964477539" stroke-width="1.1026785373687744" fill="none" stroke="rgb(43, 21, 176)" stroke-opacity="0.5816101" stroke-linecap="round" stroke-linejoin="round"/>
    <path d="M 63.03466033935547 66.10980987548828 C 59.31557083129883 70.07862854003906 56.14778518676758 74.59993743896484 56.813453674316406 75.09640502929688 C 58.0304069519043 76.1441650390625 62.530738830566406 72.61823272705078 67.03112030029297 69.09110260009766 C 71.53146362304688 65.56517028808594 71.26344299316406 66.38150024414062 70.44415283203125 66.64775848388672" stroke-width="1.2165145874023438" fill="none" stroke="rgb(205, 87, 176)" stroke-opacity="0.88560003" stroke-linecap="round" stroke-linejoin="round"/>
    <path d="M 61.3336181640625 63.807579040527344 C 62.2293815612793 64.47826385498047 58.9813117980957 63.86176300048828 59.127838134765625 59.83353805541992" stroke-width="1.1026785373687744" fill="none" stroke="rgb(39, 250, 135)" stroke-opacity="0.9592401" stroke-linecap="round" stroke-linejoin="round"/>
    <path d="M 56.59659957885742 43.70762634277344 C 57.96706008911133 42.29486846923828 59.8899040222168 40.88323211669922 60.23737716674805 40.82794189453125 C 61.136329650878906 41.32320785522461 59.9088249206543 42.62623596191406 58.68251037597656 43.9279670715332 C 57.45614242553711 44.6783561706543 54.57735824584961 42.675174713134766 51.14726638793945 41.22319412231445" stroke-width="1.2644058465957642" fill="none" stroke="rgb(234, 209, 63)" stroke-opacity="0.28011" stroke-linecap="round" stroke-linejoin="round"/>
    <path d="M 54.82314682006836 49.08781051635742 C 48.10597229003906 50.65378952026367 41.388671875 51.6686897277832 39.10530471801758 50.70884323120117 C 36.82302474975586 49.74946594238281 38.975624084472656 46.26416015625 40.5756721496582 42.7789421081543 C 42.72827911376953 39.845062255859375 40.3249626159668 39.317718505859375 37.921661376953125 38.78913497924805" stroke-width="1.1026785373687744" fill="none" stroke="rgb(150, 255, 57)" stroke-opacity="0.85786" stroke-linecap="round" stroke-linejoin="round"/>
    <path d="M 64.07072448730469 63.86284255981445 C 62.746463775634766 64.1828842163086 61.97453689575195 63.95100021362305 61.94116973876953 62.704437255859375 C 61.90782165527344 62.009098052978516 62.61423873901367 60.84942626953125 63.319435119628906 59.689781188964844 C 64.57691955566406 59.0811767578125 64.6882553100586 59.572837829589844 64.79948425292969 60.07683563232422" stroke-width="1.2090450525283813" fill="none" stroke="rgb(143, 99, 98)" stroke-opacity="0.86565" stroke-linecap="round" stroke-linejoin="round"/>
    <path d="M 64.32892608642578 59.75275802612305 C 61.660091400146484 57.906429290771484 58.99123764038086 56.060115814208984 56.322410583496094 54.21379089355469 C 53.653568267822266 52.36747741699219 56.75941467285156 55.88138961791992 60.41594314575195 58.844303131103516" stroke-width="1.1026785373687744" fill="none" stroke="rgb(97, 9, 1)" stroke-opacity="0.22177999" stroke-linecap="round" stroke-linejoin="round"/>
    <path d="M 58.94185256958008 59.60454559326172 C 56.09591293334961 54.53487777709961 61.05072784423828 49.21696853637695 68.53658294677734 47.15330123901367" stroke-width="1.4670146703720093" fill="none" stroke="rgb(34, 166, 13)" stroke-opacity="0.42226005" stroke-linecap="round" stroke-linejoin="round"/>
    <path d="M 55.11336135864258 60.714813232421875 C 58.10421371459961 58.46141815185547 61.09569549560547 55.65676498413086 62.96891403198242 55.4443473815918 C 65.39299774169922 55.23192596435547 67.24919128417969 57.61176681518555 69.65794372558594 59.991615295410156 C 70.9640884399414 62.371463775634766 73.3192367553711 61.03763198852539 76.2269058227539 59.15129852294922" stroke-width="1.2369087934494019" fill="none" stroke="rgb(137, 91, 34)" stroke-opacity="0.36596003" stroke-linecap="round" stroke-linejoin="round"/>
    <path d="M 37.8389778137207 38.31733322143555 C 32.91910171508789 34.503231048583984 31.192602157592773 32.57784652709961 36.56364059448242 37.1461181640625" stroke-width="1.1026785373687744" fill="none" stroke="rgb(94, 195, 12)" stroke-opacity="0.08619004" stroke-linecap="round" stroke-linejoin="round"/>
    <path d="M 64.5475082397461 60.09657669067383 C 64.40670776367188 58.70332336425781 64.26465606689453 57.31394958496094 65.10076904296875 56.756683349609375 C 65.93682098388672 56.751739501953125 67.74972534179688 58.13252258300781 69.56285858154297 59.5131721496582 C 71.37584686279297 60.893890380859375 63.965843200683594 55.550048828125 56.00453567504883 50.756290435791016" stroke-width="1.2306623458862305" fill="none" stroke="rgb(88, 139, 161)" stroke-opacity="0.5405199" stroke-linecap="round" stroke-linejoin="round"/>
    <path d="M 63.85172653198242 59.64778518676758 C 63.72461700439453 59.857913970947266 63.597415924072266 60.06663131713867 64.02014923095703 60.82645034790039 C 63.34189987182617 60.48564529418945 65.27690887451172 58.21024703979492 67.21214294433594 55.93659973144531" stroke-width="1.1026785373687744" fill="none" stroke="rgb(79, 237, 102)" stroke-opacity="0.5903305" stroke-linecap="round" stroke-linejoin="round"/>
    <path d="M 64.65694427490234 59.040164947509766 C 67.27020263671875 53.176387786865234 69.36724853515625 57.299156188964844 66.32917785644531 54.89969253540039" stroke-width="1.1026785373687744" fill="none" stroke="rgb(136, 46, 109)" stroke-opacity="0.24697" stroke-linecap="round" stroke-linejoin="round"/>
    <path d="M 64.59443664550781 60.16327667236328 C 67.43681335449219 59.39833450317383 69.73532104492188 58.08305358886719 71.346923828125 57.250633239746094 C 73.50992584228516 56.418270111083984 73.88536834716797 56.068023681640625 74.26081848144531 55.165245056152344 C 74.08516693115234 54.26369094848633 78.62899780273438 55.55252456665039 82.6217269897461 57.393890380859375" stroke-width="1.1026785373687744" fill="none" stroke="rgb(191, 68, 79)" stroke-opacity="0.71233994" stroke-linecap="round" stroke-linejoin="round"/>
    <path d="M 56.776390075683594 94.26036071777344 C 56.009464263916016 90.87152099609375 55.241363525390625 87.48087310791016 55.66786193847656 86.96610260009766 C 55.54314041137695 87.00186157226562 56.06060028076172 90.46114349365234 56.027984619140625 93.9215087890625 C 56.545780181884766 97.38196563720703 58.37821960449219 95.3269271850586 60.75926208496094 93.27313995361328" stroke-width="1.4803099632263184" fill="none" stroke="rgb(124, 159, 201)" stroke-opacity="0.96422994" stroke-linecap="round" stroke-linejoin="round"/>
    <path d="M 66.1253662109375 34.62178421020508 C 63.71113967895508 34.85042953491211 69.81836700439453 37.50802230834961 69.48751831054688 37.705589294433594" stroke-width="1.1026785373687744" fill="none" stroke="rgb(136, 146, 202)" stroke-opacity="0.026289973" stroke-linecap="round" stroke-linejoin="round"/>
    <path d="M 34.04303741455078 98.27618408203125 C 33.660911560058594 100.0252914428711 33.830101013183594 101.22450256347656 33.999298095703125 102.42250061035156 C 34.71981430053711 103.62042236328125 35.03348159790039 100.02771759033203 35.34596252441406 96.43399810791016" stroke-width="1.1722875833511353" fill="none" stroke="rgb(79, 34, 140)" stroke-opacity="0.43790996" stroke-linecap="round" stroke-linejoin="round"/>
    <path d="M 71.9837875366211 39.919883728027344 C 71.21036529541016 34.55628204345703 70.43724822998047 29.192670822143555 67.45719146728516 29.21613883972168 C 64.47712707519531 29.78969383239746 58.74127960205078 34.64643096923828 53.55551528930664 40.05449676513672 C 48.36980438232422 46.013893127441406 55.175838470458984 50.24129867553711 61.98068618774414 54.46746826171875" stroke-width="1.1026785373687744" fill="none" stroke="rgb(52, 32, 146)" stroke-opacity="0.47584" stroke-linecap="round" stroke-linejoin="round"/>
    <path d="M 55.1597900390625 100.45712280273438 C 47.52752685546875 104.55115509033203 39.89521789550781 108.64641571044922 38.51001739501953 110.8990478515625 C 36.57353591918945 113.15168762207031 40.3340950012207 113.56422424316406 43.543460845947266 114.5279312133789 C 47.303977966308594 114.94041442871094 43.82620620727539 112.76931762695312 40.89971160888672 110.0472183227539" stroke-width="1.1026785373687744" fill="none" stroke="rgb(6, 155, 184)" stroke-opacity="0.24016002" stroke-linecap="round" stroke-linejoin="round"/>
    <path d="M 47.06979751586914 79.9171142578125 C 51.782066345214844 77.61331176757812 57.045654296875 75.86085510253906 62.3091926574707 74.10713958740234 C 67.5727767944336 72.35468292236328 64.27289581298828 71.22383117675781 60.972930908203125 69.54063415527344" stroke-width="1.1026785373687744" fill="none" stroke="rgb(147, 14, 216)" stroke-opacity="0.5481" stroke-linecap="round" stroke-linejoin="round"/>
    <path d="M 35.05027389526367 114.83055877685547 C 32.973506927490234 110.93611907958984 30.133026123046875 107.00631713867188 30.38124656677246 107.68680572509766" stroke-width="1.1026785373687744" fill="none" stroke="rgb(13, 149, 208)" stroke-opacity="0.6975799" stroke-linecap="round" stroke-linejoin="round"/>
    <path d="M 40.271148681640625 65.966552734375 C 35.788082122802734 70.13097381591797 35.954307556152344 65.17491149902344 32.41282653808594 66.1796875" stroke-width="1.1026785373687744" fill="none" stroke="rgb(212, 182, 37)" stroke-opacity="0.81141007" stroke-linecap="round" stroke-linejoin="round"/>
    <path d="M 115.83596801757812 101.7032699584961 C 112.4592514038086 97.31918334960938 111.23471069335938 98.05087280273438 107.80888366699219 94.71429443359375" stroke-width="1.1026785373687744" fill="none" stroke="rgb(225, 72, 142)" stroke-opacity="0.0" stroke-linecap="round" stroke-linejoin="round"/>
    <path d="M 33.206451416015625 34.195655822753906 C 37.46143341064453 34.3228645324707 41.159793853759766 34.450077056884766 43.834102630615234 36.165496826171875 C 46.50294876098633 37.880897521972656 48.13685607910156 41.18328857421875 49.22066879272461 45.03697967529297 C 50.85456848144531 48.339393615722656 49.10210418701172 42.473140716552734 47.34840774536133 36.60688400268555" stroke-width="1.1160231828689575" fill="none" stroke="rgb(193, 137, 196)" stroke-opacity="0.52401" stroke-linecap="round" stroke-linejoin="round"/>
    <path d="M 43.49689483642578 101.77796173095703 C 39.883296966552734 106.39147186279297 39.323875427246094 100.13732147216797 37.00082015991211 95.20590209960938" stroke-width="1.1698048114776611" fill="none" stroke="rgb(167, 84, 22)" stroke-opacity="0.06585997" stroke-linecap="round" stroke-linejoin="round"/>
    <path d="M 82.94429779052734 56.89485168457031 C 85.26676940917969 54.89435577392578 87.5896987915039 53.44316482543945 89.91275024414062 51.993282318115234 C 92.78557586669922 51.093780517578125 96.04702758789062 49.11396408081055 99.30669403076172 47.13375473022461" stroke-width="1.1026785373687744" fill="none" stroke="rgb(129, 37, 194)" stroke-opacity="0.015119991" stroke-linecap="round" stroke-linejoin="round"/>
    <path d="M 115.17266082763672 97.88142395019531 C 112.00198364257812 97.66849517822266 109.38372802734375 98.00687408447266 106.76425170898438 98.89659118652344 C 104.14481353759766 98.68366241455078 104.80974578857422 103.88672637939453 104.92338562011719 109.09101867675781" stroke-width="1.1026785373687744" fill="none" stroke="rgb(44, 68, 215)" stroke-opacity="0.26159" stroke-linecap="round" stroke-linejoin="round"/>
    <path d="M 76.21778869628906 97.98835754394531 C 78.9083251953125 95.7696533203125 82.14875030517578 94.10108184814453 84.83858489990234 91.88302612304688 C 87.52831268310547 89.11241912841797 83.46976470947266 95.07009887695312 80.51360321044922 101.5777587890625" stroke-width="1.1026785373687744" fill="none" stroke="rgb(123, 120, 2)" stroke-opacity="0.17054" stroke-linecap="round" stroke-linejoin="round"/>
    <path d="M 34.27592849731445 20.044313430786133 C 38.65031433105469 23.748857498168945 43.05430603027344 24.498456954956055 40.30149459838867 29.107934951782227" stroke-width="1.2575759887695312" fill="none" stroke="rgb(143, 58, 69)" stroke-opacity="0.77233" stroke-linecap="round" stroke-linejoin="round"/>
    <path d="M 71.4333724975586 40.47121047973633 C 71.73979949951172 44.71574783325195 76.00331115722656 39.133514404296875 73.17257690429688 35.5765380859375 C 70.56600952148438 41.23036193847656 71.50254821777344 38.307987213134766 76.00091552734375 32.89342498779297" stroke-width="1.1026785373687744" fill="none" stroke="rgb(210, 111, 66)" stroke-opacity="0.67835546" stroke-linecap="round" stroke-linejoin="round"/>
    <path d="M 37.83891296386719 38.317344665527344 C 33.59941864013672 43.89665985107422 39.48806381225586 48.817386627197266 40.67927932739258 49.42133331298828 C 38.444984436035156 44.287811279296875 32.3671875 43.368526458740234 32.79283142089844 48.070804595947266 C 33.73934555053711 46.86560821533203 38.80662536621094 42.397483825683594 37.637962341308594 45.3157844543457" stroke-width="1.2129459381103516" fill="none" stroke="rgb(215, 69, 76)" stroke-opacity="0.46584827" stroke-linecap="round" stroke-linejoin="round"/>
    <path d="M 56.32241439819336 54.76509094238281 C 51.28657531738281 57.07353591918945 54.154911041259766 62.84645462036133 49.369869232177734 63.94927978515625 C 45.42171859741211 64.24285888671875 44.17434310913086 63.273353576660156 48.28047180175781 65.81523895263672" stroke-width="1.1026785373687744" fill="none" stroke="rgb(121, 125, 74)" stroke-opacity="0.23671514" stroke-linecap="round" stroke-linejoin="round"/>
    <path d="M 65.10079956054688 56.75666046142578 C 66.57644653320312 57.72150421142578 61.394107818603516 52.844512939453125 63.997772216796875 55.11615753173828 C 62.588623046875 56.22864532470703 60.63348388671875 61.36330795288086 58.385650634765625 62.05314636230469 C 59.7446403503418 66.79335021972656 54.32820129394531 71.76409912109375 52.881561279296875 75.24561309814453" stroke-width="1.1026785373687744" fill="none" stroke="rgb(157, 18, 159)" stroke-opacity="0.38649386" stroke-linecap="round" stroke-linejoin="round"/>
    <path d="M 78.87423706054688 38.47666931152344 C 78.59960174560547 42.93111038208008 79.6414566040039 48.772300720214844 80.19340515136719 53.508358001708984 C 82.48530578613281 55.67181396484375 77.00264739990234 57.34894943237305 77.27667236328125 51.850887298583984" stroke-width="1.2129462957382202" fill="none" stroke="rgb(66, 125, 94)" stroke-opacity="0.5568746" stroke-linecap="round" stroke-linejoin="round"/>
    <path d="M 60.71359634399414 62.473960876464844 C 66.40674591064453 67.53570556640625 65.36144256591797 63.17964553833008 67.75993347167969 59.98250198364258" stroke-width="1.2129435539245605" fill="none" stroke="rgb(191, 192, 213)" stroke-opacity="0.6854473" stroke-linecap="round" stroke-linejoin="round"/>
    <path d="M 63.69609832763672 64.06660461425781 C 67.11944580078125 60.22780990600586 64.0844497680664 56.48835372924805 69.97987365722656 58.66440963745117 C 70.66043853759766 54.87938690185547 68.35721588134766 55.1324577331543 69.5930404663086 50.05929183959961" stroke-width="1.2129461765289307" fill="none" stroke="rgb(242, 94, 96)" stroke-opacity="0.7639172" stroke-linecap="round" stroke-linejoin="round"/>
    <path d="M 76.76909637451172 97.98834228515625 C 79.92498016357422 104.2564697265625 86.62639617919922 107.3091049194336 88.2234878540039 111.95947265625" stroke-width="1.1026785373687744" fill="none" stroke="rgb(243, 167, 135)" stroke-opacity="0.9436622" stroke-linecap="round" stroke-linejoin="round"/>
    <path d="M 67.20914459228516 59.98249435424805 C 64.20033264160156 56.40605163574219 61.888206481933594 51.12601852416992 66.85039520263672 45.68013381958008" stroke-width="1.1026785373687744" fill="none" stroke="rgb(8, 65, 187)" stroke-opacity="0.053188667" stroke-linecap="round" stroke-linejoin="round"/>
    <path d="M 48.280479431152344 65.81523895263672 C 42.871253967285156 63.88758087158203 43.08928680419922 70.5929183959961 48.345298767089844 66.9551773071289 C 44.519874572753906 68.17640686035156 45.992862701416016 65.4006576538086 44.32313537597656 69.49469757080078 C 43.022457122802734 68.17292785644531 47.447906494140625 65.63141632080078 48.66748046875 63.68879318237305" stroke-width="1.2129461765289307" fill="none" stroke="rgb(188, 17, 169)" stroke-opacity="0.992337" stroke-linecap="round" stroke-linejoin="round"/>
    <path d="M 53.43285369873047 75.24567413330078 C 56.82150650024414 76.33177185058594 61.122413635253906 76.46359252929688 62.81231689453125 71.77031707763672" stroke-width="1.212944746017456" fill="none" stroke="rgb(235, 116, 184)" stroke-opacity="0.31485125" stroke-linecap="round" stroke-linejoin="round"/>
    <path d="M 76.00089263916016 32.89342498779297 C 74.4271469116211 30.062904357910156 69.03227996826172 31.717031478881836 68.50328063964844 35.5258903503418 C 64.56985473632812 29.78278160095215 58.49604034423828 24.843338012695312 58.372650146484375 29.27627944946289 C 63.4165153503418 26.54479217529297 61.867427825927734 27.449281692504883 61.30223083496094 30.39625358581543" stroke-width="1.2129462957382202" fill="none" stroke="rgb(45, 238, 179)" stroke-opacity="0.45215526" stroke-linecap="round" stroke-linejoin="round"/>
    <path d="M 53.43288040161133 75.24561309814453 C 47.35988998413086 71.06625366210938 49.285369873046875 69.49734497070312 46.45433807373047 67.83513641357422" stroke-width="1.212942123413086" fill="none" stroke="rgb(205, 241, 247)" stroke-opacity="0.25631946" stroke-linecap="round" stroke-linejoin="round"/>
    <path d="M 88.2234878540039 112.51078796386719 C 91.24543762207031 110.55064392089844 87.90306091308594 112.08674621582031 82.62398529052734 114.18672180175781" stroke-width="1.1026785373687744" fill="none" stroke="rgb(251, 149, 113)" stroke-opacity="0.1702047" stroke-linecap="round" stroke-linejoin="round"/>
    <path d="M 48.28046417236328 65.81523895263672 C 45.024539947509766 59.875301361083984 50.6619873046875 64.72396850585938 53.162811279296875 70.5419692993164" stroke-width="1.1026785373687744" fill="none" stroke="rgb(114, 19, 25)" stroke-opacity="0.3145722" stroke-linecap="round" stroke-linejoin="round"/>
    <path d="M 76.00092315673828 32.89342498779297 C 71.39631652832031 27.62787628173828 69.7389907836914 25.153654098510742 68.79241943359375 29.857397079467773" stroke-width="1.2129456996917725" fill="none" stroke="rgb(233, 132, 40)" stroke-opacity="0.1744107" stroke-linecap="round" stroke-linejoin="round"/>
    <path d="M 16.68722915649414 21.017473220825195 C 13.15825366973877 14.962068557739258 11.615653991699219 15.108794212341309 17.232778549194336 13.999078750610352 C 22.46893882751465 8.920580863952637 21.236324310302734 3.839254140853882 18.066930770874023 6.73198938369751 C 17.7579288482666 9.17696475982666 13.096203804016113 6.649835586547852 15.861897468566895 5.841089248657227" stroke-width="1.2129446268081665" fill="none" stroke="rgb(40, 249, 195)" stroke-opacity="0.44150925" stroke-linecap="round" stroke-linejoin="round"/>
    <path d="M 40.68479537963867 44.62858581542969 C 34.847686767578125 45.904441833496094 28.96771240234375 50.21866226196289 25.930665969848633 44.97231674194336" stroke-width="1.2129452228546143" fill="none" stroke="rgb(201, 83, 251)" stroke-opacity="0.9712418" stroke-linecap="round" stroke-linejoin="round"/>
    <path d="M 120.0051040649414 47.892574310302734 C 114.95394897460938 52.79540252685547 118.80670166015625 49.49068069458008 123.78011322021484 53.61173629760742" stroke-width="1.1026785373687744" fill="none" stroke="rgb(158, 189, 175)" stroke-opacity="0.26489487" stroke-linecap="round" stroke-linejoin="round"/>
    <path d="M 85.7294921875 110.00658416748047 C 91.18682098388672 111.1253890991211 85.69387817382812 106.12026977539062 90.31234741210938 111.85252380371094" stroke-width="1.1026785373687744" fill="none" stroke="rgb(72, 186, 87)" stroke-opacity="0.6728769" stroke-linecap="round" stroke-linejoin="round"/>
    <path d="M 105.0261001586914 61.5548210144043 C 101.42033386230469 59.06930923461914 97.7259750366211 58.060062408447266 103.54035949707031 53.93688201904297 C 105.33893585205078 53.33662414550781 104.46907043457031 55.98990249633789 101.9082260131836 59.094749450683594 C 96.6415786743164 64.603515625 98.3953857421875 64.97483825683594 98.90164184570312 63.32297134399414" stroke-width="1.1026785373687744" fill="none" stroke="rgb(5, 162, 64)" stroke-opacity="0.32323855" stroke-linecap="round" stroke-linejoin="round"/>
    <path d="M 27.957733154296875 95.26437377929688 C 21.53899574279785 92.6910400390625 21.64607048034668 90.26399993896484 27.141447067260742 88.53905487060547" stroke-width="1.1026785373687744" fill="none" stroke="rgb(148, 53, 95)" stroke-opacity="0.3253405" stroke-linecap="round" stroke-linejoin="round"/>
    <path d="M 5.854665279388428 113.79637908935547 C 10.361767768859863 116.28093719482422 14.273697853088379 119.19847106933594 15.804370880126953 116.72480010986328" stroke-width="1.2129441499710083" fill="none" stroke="rgb(30, 10, 212)" stroke-opacity="0.1961937" stroke-linecap="round" stroke-linejoin="round"/>
    <path d="M 58.89569854736328 120.21392822265625 C 54.180728912353516 115.79186248779297 49.760005950927734 116.59708404541016 54.983192443847656 115.85066223144531 C 52.17320251464844 115.56336975097656 46.27193069458008 120.64582061767578 47.3906135559082 124.792724609375" stroke-width="1.1026785373687744" fill="none" stroke="rgb(13, 9, 134)" stroke-opacity="0.795745" stroke-linecap="round" stroke-linejoin="round"/>
    <path d="M 88.11734771728516 72.73556518554688 C 89.64217376708984 74.68278503417969 94.51596069335938 73.69574737548828 91.48308563232422 78.00135803222656 C 95.18095397949219 75.6895980834961 97.34456634521484 74.12056732177734 100.30635833740234 68.77906036376953 C 95.77230072021484 71.76263427734375 92.68868255615234 68.62720489501953 99.40472412109375 70.65216827392578" stroke-width="1.2129404544830322" fill="none" stroke="rgb(68, 239, 226)" stroke-opacity="0.03974445" stroke-linecap="round" stroke-linejoin="round"/>
    <path d="M -0.07180505990982056 90.55471801757812 C 5.008813858032227 88.71772003173828 -0.0076934946700930595 92.39071655273438 0.6680520176887512 95.70413970947266" stroke-width="1.212945818901062" fill="none" stroke="rgb(79, 161, 176)" stroke-opacity="0.3699534" stroke-linecap="round" stroke-linejoin="round"/>
    <path d="M 51.55549240112305 3.765115737915039 C 47.05615234375 2.936734199523926 42.66058349609375 -3.004671812057495 36.536678314208984 -1.9262453317642212 C 31.09294319152832 0.9802004098892212 25.928937911987305 2.5686213970184326 29.62024688720703 -1.1726601123809814" stroke-width="1.212943434715271" fill="none" stroke="rgb(114, 107, 176)" stroke-opacity="0.0587506" stroke-linecap="round" stroke-linejoin="round"/>
    <path d="M 102.1586685180664 30.067707061767578 C 101.51082611083984 26.417518615722656 96.59056091308594 30.898054122924805 97.56194305419922 33.37141036987305" stroke-width="1.21294367313385" fill="none" stroke="rgb(211, 180, 186)" stroke-opacity="0.5191276" stroke-linecap="round" stroke-linejoin="round"/>
    <path d="M 3.8699593544006348 18.367219924926758 C 5.9484968185424805 15.158024787902832 4.405041694641113 13.595098495483398 0.6658141016960144 19.335206985473633 C -2.2509682178497314 14.179651260375977 -4.815062046051025 16.408565521240234 -8.28137493133545 17.282148361206055" stroke-width="1.1026785373687744" fill="none" stroke="rgb(163, 251, 20)" stroke-opacity="0.057636753" stroke-linecap="round" stroke-linejoin="round"/>
    <path d="M 52.08955764770508 110.18897247314453 C 56.16703796386719 108.15998840332031 55.50407028198242 103.42367553710938 56.50090789794922 106.18402099609375 C 59.40593338012695 102.69318389892578 65.1021499633789 103.71456146240234 69.03319549560547 105.54368591308594 C 73.17054748535156 111.55628204345703 72.45651245117188 108.11638641357422 73.9377670288086 107.81695556640625" stroke-width="1.1026785373687744" fill="none" stroke="rgb(90, 59, 135)" stroke-opacity="0.76099396" stroke-linecap="round" stroke-linejoin="round"/>
    <path d="M 71.38841247558594 5.569977283477783 C 65.23611450195312 4.844324588775635 64.065673828125 4.952306747436523 70.3421401977539 9.100312232971191 C 71.7485122680664 4.945871353149414 73.8554458618164 5.598875522613525 71.49657440185547 6.837317943572998" stroke-width="1.2129462957382202" fill="none" stroke="rgb(255, 42, 220)" stroke-opacity="0.38850147" stroke-linecap="round" stroke-linejoin="round"/>
    <path d="M 29.174861907958984 85.63534545898438 C 27.674699783325195 90.41969299316406 25.491666793823242 92.49109649658203 29.245738983154297 94.03923034667969 C 34.312828063964844 89.24517822265625 35.486541748046875 83.07723999023438 32.996315002441406 81.65744018554688" stroke-width="1.21291983127594" fill="none" stroke="rgb(46, 127, 70)" stroke-opacity="0.030946767" stroke-linecap="round" stroke-linejoin="round"/>
  </g>
</svg>
