<?xml version="1.0" ?>
<svg xmlns="http://www.w3.org/2000/svg" version="1.1" width="925.0" height="925.0">
  <defs/>
  <g>
    <path d="M 62.8090934753418 34.99702453613281 C 56.816993713378906 40.8779411315918 59.33207702636719 40.79341125488281 64.77410125732422 44.387088775634766" stroke-width="1.0892857313156128" fill="none" stroke="rgb(83, 129, 250)" stroke-opacity="0.61132735" stroke-linecap="round" stroke-linejoin="round"/>
    <path d="M 23.59588050842285 64.24131774902344 C 21.422090530395508 59.96192932128906 21.01237678527832 52.81040573120117 18.800729751586914 56.70111846923828" stroke-width="1.5102239847183228" fill="none" stroke="rgb(195, 179, 159)" stroke-opacity="0.7033881" stroke-linecap="round" stroke-linejoin="round"/>
    <path d="M 23.70216941833496 66.2824478149414 C 21.9656925201416 59.09543991088867 21.529664993286133 51.594390869140625 19.327072143554688 49.66414260864258 C 19.715538024902344 47.6916389465332 15.571061134338379 50.84718704223633 9.49990463256836 52.72890853881836 C 4.6299262046813965 56.68842697143555 10.795204162597656 56.86906433105469 17.32012176513672 56.792049407958984" stroke-width="2.281370162963867" fill="none" stroke="rgb(52, 0, 21)" stroke-opacity="0.719519" stroke-linecap="round" stroke-linejoin="round"/>
    <path d="M 63.3651123046875 35.481754302978516 C 64.05513000488281 27.634885787963867 57.278873443603516 29.098663330078125 63.427181243896484 32.129642486572266" stroke-width="1.8684111833572388" fill="none" stroke="rgb(255, 104, 191)" stroke-opacity="0.7454965" stroke-linecap="round" stroke-linejoin="round"/>
    <path d="M 21.636001586914062 55.1009521484375 C 22.8389892578125 59.05667495727539 23.60063934326172 63.7011833190918 24.056842803955078 66.255859375 C 24.572242736816406 66.78932189941406 22.809795379638672 66.14888000488281 20.100608825683594 66.09376525878906 C 19.96732521057129 66.67406463623047 21.721969604492188 73.0894546508789 21.38914680480957 80.51197814941406" stroke-width="1.0892857313156128" fill="none" stroke="rgb(135, 125, 45)" stroke-opacity="0.64901394" stroke-linecap="round" stroke-linejoin="round"/>
    <path d="M 22.467527389526367 36.49225997924805 C 23.82298469543457 36.30913162231445 20.507545471191406 39.27846908569336 19.56502914428711 45.2650146484375" stroke-width="1.633467674255371" fill="none" stroke="rgb(15, 198, 217)" stroke-opacity="0.6969448" stroke-linecap="round" stroke-linejoin="round"/>
    <path d="M 56.44789505004883 36.90655517578125 C 55.90364456176758 34.52754592895508 56.06968307495117 29.503582000732422 56.38616943359375 24.84529685974121 C 54.43693923950195 23.916790008544922 55.69853973388672 25.43899917602539 59.326866149902344 26.40420150756836" stroke-width="1.5464764833450317" fill="none" stroke="rgb(0, 20, 173)" stroke-opacity="0.69813925" stroke-linecap="round" stroke-linejoin="round"/>
    <path d="M 64.71346282958984 21.771156311035156 C 65.47419738769531 29.18994903564453 64.19682312011719 34.883148193359375 62.68310546875 35.16099548339844 C 59.59966278076172 36.0344352722168 57.952980041503906 34.179813385009766 56.646759033203125 31.18262481689453 C 54.05840301513672 28.965810775756836 58.81757736206055 30.12510871887207 64.29753112792969 31.899063110351562" stroke-width="1.5277326107025146" fill="none" stroke="rgb(147, 51, 255)" stroke-opacity="0.7309195" stroke-linecap="round" stroke-linejoin="round"/>
    <path d="M 63.15385437011719 42.72974395751953 C 64.68241882324219 37.6270866394043 63.30913162231445 36.14633560180664 64.09026336669922 35.81285095214844" stroke-width="1.140851616859436" fill="none" stroke="rgb(30, 225, 100)" stroke-opacity="0.7264892" stroke-linecap="round" stroke-linejoin="round"/>
    <path d="M 63.5418586730957 45.35117721557617 C 58.96160125732422 46.15976333618164 55.68617630004883 48.068756103515625 50.528865814208984 48.07636260986328 C 49.08258819580078 50.031612396240234 50.6334114074707 58.2371711730957 51.6894645690918 65.72490692138672" stroke-width="1.0892857313156128" fill="none" stroke="rgb(105, 168, 92)" stroke-opacity="0.6553722" stroke-linecap="round" stroke-linejoin="round"/>
    <path d="M 21.43453025817871 56.20119857788086 C 16.258934020996094 54.8795280456543 11.467278480529785 53.55247497558594 8.679678916931152 53.866085052490234 C 7.802985191345215 54.63136672973633 9.645659446716309 59.902244567871094 10.826571464538574 67.45589447021484 C 8.439440727233887 71.96392822265625 13.655993461608887 67.71463775634766 20.683185577392578 66.78595733642578" stroke-width="1.2898484468460083" fill="none" stroke="rgb(128, 101, 46)" stroke-opacity="0.7582463" stroke-linecap="round" stroke-linejoin="round"/>
    <path d="M 63.57340621948242 41.9959602355957 C 63.61501693725586 45.91764831542969 64.90485382080078 49.39400100708008 63.75944900512695 47.47494888305664 C 62.5418701171875 48.634944915771484 59.005271911621094 48.3686408996582 57.02946853637695 48.094276428222656 C 53.856056213378906 46.10820770263672 58.505985260009766 51.74138259887695 63.74930191040039 57.67268753051758" stroke-width="2.7686824798583984" fill="none" stroke="rgb(255, 61, 96)" stroke-opacity="0.7551347" stroke-linecap="round" stroke-linejoin="round"/>
    <path d="M 19.582332611083984 56.93730163574219 C 18.51752471923828 57.0994987487793 17.003276824951172 57.424442291259766 16.153165817260742 57.241249084472656 C 17.485633850097656 56.037750244140625 21.985504150390625 55.8055534362793 24.613100051879883 55.82286071777344" stroke-width="1.2642110586166382" fill="none" stroke="rgb(63, 60, 56)" stroke-opacity="0.73019826" stroke-linecap="round" stroke-linejoin="round"/>
    <path d="M 18.424924850463867 57.721195220947266 C 16.306528091430664 58.385414123535156 15.569343566894531 60.93332290649414 16.023496627807617 62.180267333984375 C 15.974021911621094 61.56557846069336 16.650924682617188 58.1332893371582 17.4481258392334 54.6470947265625 C 16.105945587158203 49.52756118774414 13.120006561279297 56.403377532958984 11.162983894348145 64.2060546875" stroke-width="1.0892857313156128" fill="none" stroke="rgb(136, 186, 155)" stroke-opacity="0.69331014" stroke-linecap="round" stroke-linejoin="round"/>
    <path d="M 59.58603286743164 24.342586517333984 C 58.96532440185547 31.099342346191406 60.07793426513672 35.278114318847656 63.57658767700195 37.22706985473633 C 65.2436752319336 42.335243225097656 64.0594482421875 32.62986755371094 62.32655334472656 24.295602798461914" stroke-width="2.5965559482574463" fill="none" stroke="rgb(26, 0, 255)" stroke-opacity="0.75642544" stroke-linecap="round" stroke-linejoin="round"/>
    <path d="M 15.553403854370117 56.38972473144531 C 16.840085983276367 55.934085845947266 17.587810516357422 55.09415054321289 19.183570861816406 53.0595817565918 C 20.02355194091797 52.48518753051758 18.58718490600586 57.781558990478516 19.327884674072266 65.55421447753906" stroke-width="1.6448909044265747" fill="none" stroke="rgb(146, 69, 65)" stroke-opacity="0.7496377" stroke-linecap="round" stroke-linejoin="round"/>
    <path d="M 59.48611831665039 11.853644371032715 C 57.01234817504883 8.599578857421875 55.73786926269531 3.8334827423095703 54.546268463134766 5.812931537628174 C 50.98020553588867 6.460093975067139 46.59181594848633 9.09994888305664 44.719703674316406 15.08488655090332 C 40.53297805786133 18.60281753540039 42.19520950317383 10.410185813903809 44.40254211425781 4.401269912719727" stroke-width="1.7064671516418457" fill="none" stroke="rgb(255, 152, 201)" stroke-opacity="0.7595483" stroke-linecap="round" stroke-linejoin="round"/>
    <path d="M 49.414066314697266 77.75411224365234 C 45.69023895263672 79.34256744384766 44.97055435180664 82.93582916259766 44.66265869140625 84.25502014160156 C 42.82051086425781 82.85292053222656 39.66808319091797 82.11550903320312 35.33748245239258 82.72470092773438 C 33.83180236816406 82.82158660888672 38.666141510009766 78.69893646240234 42.53271484375 73.42068481445312" stroke-width="1.1775778532028198" fill="none" stroke="rgb(144, 160, 11)" stroke-opacity="0.74192923" stroke-linecap="round" stroke-linejoin="round"/>
    <path d="M 33.3702507019043 73.01595306396484 C 39.45122528076172 74.0848159790039 45.803611755371094 76.68400573730469 52.06269836425781 75.8717041015625" stroke-width="2.094865083694458" fill="none" stroke="rgb(90, 43, 9)" stroke-opacity="0.694589" stroke-linecap="round" stroke-linejoin="round"/>
    <path d="M 76.80509185791016 115.30013275146484 C 81.5007553100586 114.61454010009766 86.07685089111328 114.37931823730469 90.0738525390625 113.77706146240234 C 94.16404724121094 114.02068328857422 91.22314453125 113.43131256103516 89.15885925292969 113.10269165039062" stroke-width="1.0892857313156128" fill="none" stroke="rgb(55, 30, 178)" stroke-opacity="0.6537405" stroke-linecap="round" stroke-linejoin="round"/>
    <path d="M 33.566123962402344 102.96198272705078 C 33.02384567260742 102.1380844116211 28.920867919921875 100.34795379638672 21.115236282348633 101.27837371826172" stroke-width="1.0892857313156128" fill="none" stroke="rgb(82, 101, 95)" stroke-opacity="0.6423493" stroke-linecap="round" stroke-linejoin="round"/>
    <path d="M 58.030364990234375 24.493085861206055 C 55.18680191040039 28.046566009521484 53.28915023803711 31.344783782958984 55.474998474121094 33.550907135009766 C 55.74923324584961 35.16290283203125 59.59743881225586 34.2092170715332 63.15731430053711 33.249942779541016 C 67.93394470214844 33.57285690307617 64.8143310546875 36.68119812011719 60.905330657958984 39.1864013671875" stroke-width="1.430749773979187" fill="none" stroke="rgb(255, 204, 142)" stroke-opacity="0.7059952" stroke-linecap="round" stroke-linejoin="round"/>
    <path d="M 121.55343627929688 121.5914077758789 C 117.00763702392578 116.98328399658203 108.67781829833984 117.19774627685547 109.43473052978516 117.19499206542969" stroke-width="1.0892857313156128" fill="none" stroke="rgb(112, 26, 50)" stroke-opacity="0.70319563" stroke-linecap="round" stroke-linejoin="round"/>
    <path d="M 119.50240325927734 108.11560821533203 C 124.85125732421875 113.67549896240234 126.3121109008789 116.74346160888672 131.79669189453125 119.97882843017578" stroke-width="1.0892857313156128" fill="none" stroke="rgb(186, 210, 63)" stroke-opacity="0.6950121" stroke-linecap="round" stroke-linejoin="round"/>
    <path d="M 109.30692291259766 52.1112060546875 C 108.16696166992188 49.4864387512207 109.71712493896484 47.53447341918945 109.90838623046875 45.058067321777344 C 110.15984344482422 41.88447952270508 109.89032745361328 47.02732467651367 109.14812469482422 52.858463287353516" stroke-width="1.0892857313156128" fill="none" stroke="rgb(138, 101, 255)" stroke-opacity="0.66484565" stroke-linecap="round" stroke-linejoin="round"/>
    <path d="M 78.90972900390625 86.81693267822266 C 76.131591796875 86.5914077758789 70.68341827392578 90.05752563476562 71.7457046508789 89.7393569946289" stroke-width="1.0892857313156128" fill="none" stroke="rgb(140, 107, 224)" stroke-opacity="0.6412671" stroke-linecap="round" stroke-linejoin="round"/>
    <path d="M 26.000852584838867 36.13904571533203 C 26.571941375732422 40.7183952331543 24.470314025878906 43.57926559448242 22.979665756225586 46.67108917236328 C 23.061962127685547 51.54248046875 23.66703987121582 53.37117004394531 24.153108596801758 52.97107696533203" stroke-width="2.258099317550659" fill="none" stroke="rgb(57, 1, 252)" stroke-opacity="0.7184735" stroke-linecap="round" stroke-linejoin="round"/>
    <path d="M 72.90504455566406 58.683815002441406 C 65.92620849609375 59.150001525878906 63.38810348510742 59.45256423950195 55.799827575683594 58.8213005065918" stroke-width="1.269618034362793" fill="none" stroke="rgb(82, 5, 243)" stroke-opacity="0.73896176" stroke-linecap="round" stroke-linejoin="round"/>
    <path d="M 43.17975616455078 1.375781536102295 C 40.03492736816406 4.451766014099121 36.38233947753906 8.112585067749023 38.0752067565918 12.850128173828125 C 40.17313766479492 15.179720878601074 46.12443923950195 16.593780517578125 53.349666595458984 17.59238624572754 C 58.967254638671875 18.825183868408203 50.526039123535156 15.456533432006836 42.523685455322266 11.99134635925293" stroke-width="1.0892857313156128" fill="none" stroke="rgb(208, 197, 104)" stroke-opacity="0.64481556" stroke-linecap="round" stroke-linejoin="round"/>
    <path d="M 62.185279846191406 35.51711654663086 C 53.92455291748047 35.5135383605957 48.35313034057617 37.40638732910156 45.80712127685547 35.68372344970703" stroke-width="1.0892857313156128" fill="none" stroke="rgb(101, 203, 83)" stroke-opacity="0.6443859" stroke-linecap="round" stroke-linejoin="round"/>
    <path d="M 45.574031829833984 15.651256561279297 C 45.141441345214844 8.258959770202637 48.99452209472656 11.419135093688965 52.480960845947266 5.257944107055664 C 49.179901123046875 1.5828394889831543 44.652000427246094 4.502874851226807 44.08954620361328 6.301512718200684 C 39.80766677856445 6.0712480545043945 43.08143615722656 0.3834854066371918 48.3061637878418 -1.2895537614822388" stroke-width="1.7316752672195435" fill="none" stroke="rgb(255, 0, 123)" stroke-opacity="0.2227215" stroke-linecap="round" stroke-linejoin="round"/>
    <path d="M 9.298681259155273 52.870365142822266 C 14.307353019714355 53.547489166259766 8.519316673278809 52.46165084838867 6.4884185791015625 51.74961471557617 C 12.67807674407959 46.774208068847656 13.118669509887695 47.8698844909668 10.62044620513916 49.28657150268555 C 12.946372032165527 43.471195220947266 14.087119102478027 46.34230041503906 11.113723754882812 42.12940979003906" stroke-width="1.119932770729065" fill="none" stroke="rgb(211, 143, 227)" stroke-opacity="0.08780575" stroke-linecap="round" stroke-linejoin="round"/>
    <path d="M 24.247920989990234 81.01484680175781 C 29.963727951049805 79.71871948242188 23.04532241821289 82.73783874511719 22.543453216552734 86.64930725097656 C 18.032384872436523 87.88487243652344 21.463773727416992 92.67292785644531 15.34376335144043 93.13249206542969" stroke-width="1.44658625125885" fill="none" stroke="rgb(255, 111, 198)" stroke-opacity="0.8536665" stroke-linecap="round" stroke-linejoin="round"/>
    <path d="M 61.08543014526367 34.02279281616211 C 66.81903076171875 30.095054626464844 71.98800659179688 33.02517318725586 74.48828887939453 37.15655517578125 C 70.89684295654297 37.65685272216797 67.6949462890625 34.68901062011719 72.2718734741211 37.47943878173828 C 72.02294921875 41.954586029052734 75.53815460205078 46.55960464477539 70.29145812988281 46.4260139465332" stroke-width="1.0892857313156128" fill="none" stroke="rgb(218, 191, 7)" stroke-opacity="0.10875186" stroke-linecap="round" stroke-linejoin="round"/>
    <path d="M 54.11231231689453 3.7809553146362305 C 53.72124481201172 4.605014801025391 49.920127868652344 -0.046933289617300034 49.68932342529297 5.985018253326416 C 50.446346282958984 4.9998779296875 45.21652603149414 7.591253280639648 39.168697357177734 10.624895095825195" stroke-width="1.0892857313156128" fill="none" stroke="rgb(38, 180, 94)" stroke-opacity="0.35268974" stroke-linecap="round" stroke-linejoin="round"/>
    <path d="M 8.65369701385498 52.64491271972656 C 10.151749610900879 51.05467987060547 5.107566833496094 55.54374694824219 9.59977912902832 58.813575744628906 C 8.123191833496094 51.60310363769531 11.539475440979004 51.144588470458984 8.695283889770508 55.49526596069336 C 10.375255584716797 59.05976104736328 13.742688179016113 62.75191116333008 16.588150024414062 67.49079895019531" stroke-width="1.0892857313156128" fill="none" stroke="rgb(100, 54, 12)" stroke-opacity="0.4563414" stroke-linecap="round" stroke-linejoin="round"/>
    <path d="M 22.441234588623047 36.234745025634766 C 25.211633682250977 36.690608978271484 25.354402542114258 39.261863708496094 24.720388412475586 37.29476547241211 C 27.126943588256836 36.0987663269043 21.472002029418945 31.88705825805664 25.21985626220703 34.31879425048828" stroke-width="1.0892857313156128" fill="none" stroke="rgb(93, 133, 80)" stroke-opacity="0.18671075" stroke-linecap="round" stroke-linejoin="round"/>
    <path d="M 18.970861434936523 45.5114860534668 C 22.605083465576172 44.71479797363281 17.335718154907227 48.83091735839844 13.588031768798828 51.83747100830078" stroke-width="1.4897667169570923" fill="none" stroke="rgb(159, 56, 162)" stroke-opacity="0.8567583" stroke-linecap="round" stroke-linejoin="round"/>
    <path d="M 25.153953552246094 33.89806365966797 C 24.688480377197266 35.3032112121582 26.2855167388916 40.08853530883789 24.377212524414062 39.248779296875 C 18.996767044067383 35.06400680541992 21.34044647216797 30.967191696166992 16.12042808532715 34.84440231323242" stroke-width="1.0892857313156128" fill="none" stroke="rgb(61, 30, 144)" stroke-opacity="0.2747732" stroke-linecap="round" stroke-linejoin="round"/>
    <path d="M 10.654698371887207 43.314266204833984 C 6.793475151062012 37.213829040527344 11.29346752166748 36.98453903198242 8.595622062683105 38.323883056640625 C 9.656883239746094 41.575172424316406 5.797400951385498 43.32514953613281 10.045218467712402 48.93202590942383" stroke-width="1.394869327545166" fill="none" stroke="rgb(70, 79, 119)" stroke-opacity="0.78054565" stroke-linecap="round" stroke-linejoin="round"/>
    <path d="M 13.018776893615723 51.414859771728516 C 12.861024856567383 52.42558288574219 16.531328201293945 48.70457077026367 17.01991844177246 43.022850036621094 C 18.078948974609375 46.06218338012695 17.204952239990234 49.90480422973633 21.84218406677246 49.2363395690918 C 15.101433753967285 53.92197799682617 17.573490142822266 50.395389556884766 11.012619018554688 48.15231704711914" stroke-width="1.0892857313156128" fill="none" stroke="rgb(191, 230, 173)" stroke-opacity="0.83827096" stroke-linecap="round" stroke-linejoin="round"/>
    <path d="M 11.430870056152344 42.777469635009766 C 13.878982543945312 46.60221481323242 11.084075927734375 44.72757339477539 11.892991065979004 51.50434494018555" stroke-width="1.2170532941818237" fill="none" stroke="rgb(218, 67, 255)" stroke-opacity="0.31620684" stroke-linecap="round" stroke-linejoin="round"/>
    <path d="M 39.2379264831543 10.91539478302002 C 42.75343704223633 13.714985847473145 38.38202667236328 17.780187606811523 36.270503997802734 24.093704223632812 C 33.727691650390625 22.779624938964844 32.59333419799805 20.08600425720215 37.67965316772461 15.610457420349121 C 41.2974967956543 19.906410217285156 37.88730239868164 23.748783111572266 30.556663513183594 28.387022018432617" stroke-width="1.0892857313156128" fill="none" stroke="rgb(209, 114, 149)" stroke-opacity="0.6956022" stroke-linecap="round" stroke-linejoin="round"/>
    <path d="M 47.21690368652344 -2.5446910858154297 C 52.35792922973633 0.47596386075019836 52.09687042236328 -0.9226973652839661 57.27922821044922 -4.021090507507324 C 57.31585693359375 0.6843298077583313 56.881080627441406 1.5153733491897583 63.56098937988281 -3.341245174407959 C 56.701072692871094 -0.27851128578186035 53.130985260009766 -2.4693565368652344 58.216007232666016 -5.17994499206543" stroke-width="1.1005659103393555" fill="none" stroke="rgb(173, 67, 75)" stroke-opacity="0.9291477" stroke-linecap="round" stroke-linejoin="round"/>
    <path d="M 25.18082046508789 33.43231964111328 C 23.608192443847656 33.764217376708984 27.063289642333984 38.92220687866211 22.755613327026367 38.75908660888672 C 24.277137756347656 44.55146026611328 23.672271728515625 40.843143463134766 21.76056480407715 34.005279541015625 C 16.920818328857422 32.63254928588867 14.924870491027832 35.88288116455078 15.123377799987793 31.687660217285156" stroke-width="1.0892857313156128" fill="none" stroke="rgb(107, 201, 142)" stroke-opacity="0.2551658" stroke-linecap="round" stroke-linejoin="round"/>
    <path d="M 14.370939254760742 50.87569808959961 C 9.993697166442871 54.19936752319336 6.82453727722168 50.90476989746094 7.0724310874938965 54.290889739990234 C 9.09935474395752 52.76323699951172 6.547879219055176 56.06745147705078 0.17399543523788452 58.92719650268555 C -1.5971142053604126 60.82744216918945 -1.119411587715149 57.34913635253906 -3.9598443508148193 62.8037109375" stroke-width="1.0892857313156128" fill="none" stroke="rgb(214, 28, 145)" stroke-opacity="0.35005662" stroke-linecap="round" stroke-linejoin="round"/>
    <path d="M 74.79045104980469 8.046107292175293 C 79.34394073486328 13.147794723510742 80.36538696289062 10.795435905456543 84.88420104980469 7.997520446777344" stroke-width="1.0892857313156128" fill="none" stroke="rgb(232, 50, 201)" stroke-opacity="0.88138664" stroke-linecap="round" stroke-linejoin="round"/>
    <path d="M 96.0434799194336 26.668869018554688 C 102.38339233398438 29.709474563598633 105.68357849121094 34.87221908569336 100.2687759399414 39.894561767578125 C 100.85931396484375 40.21897888183594 100.3857650756836 40.83413314819336 99.18852996826172 45.16132354736328 C 100.25951385498047 45.7876091003418 97.32403564453125 48.22229766845703 96.78540802001953 41.55820846557617" stroke-width="1.0892857313156128" fill="none" stroke="rgb(146, 89, 119)" stroke-opacity="0.6082967" stroke-linecap="round" stroke-linejoin="round"/>
    <path d="M 40.59474563598633 82.92929077148438 C 36.590389251708984 86.00768280029297 40.84273910522461 85.46040344238281 35.43117141723633 76.75047302246094" stroke-width="1.0892857313156128" fill="none" stroke="rgb(95, 67, 191)" stroke-opacity="0.60201025" stroke-linecap="round" stroke-linejoin="round"/>
    <path d="M 67.98526763916016 21.089933395385742 C 62.993717193603516 22.79779815673828 68.76170349121094 19.203304290771484 70.90132141113281 20.60935401916504" stroke-width="1.0892857313156128" fill="none" stroke="rgb(171, 199, 235)" stroke-opacity="0.105092555" stroke-linecap="round" stroke-linejoin="round"/>
    <path d="M 27.058462142944336 75.63573455810547 C 22.833162307739258 81.06027221679688 24.042577743530273 85.26101684570312 24.600996017456055 83.3458251953125 C 23.88985252380371 83.63373565673828 21.402807235717773 81.58134460449219 16.81867790222168 85.73665618896484 C 17.994413375854492 84.45064544677734 12.611971855163574 82.88269805908203 10.580544471740723 80.0374984741211" stroke-width="1.0892857313156128" fill="none" stroke="rgb(233, 252, 177)" stroke-opacity="0.76736224" stroke-linecap="round" stroke-linejoin="round"/>
    <path d="M 80.76907348632812 70.4754638671875 C 86.45278930664062 75.72563171386719 88.44985961914062 74.87764739990234 83.6593017578125 79.80671691894531 C 84.76405334472656 80.00648498535156 88.14620208740234 78.18966674804688 85.8849868774414 79.28058624267578 C 83.9798583984375 82.04039764404297 88.38262939453125 87.99111938476562 86.03103637695312 93.1171646118164" stroke-width="1.5216286182403564" fill="none" stroke="rgb(54, 247, 187)" stroke-opacity="0.17523138" stroke-linecap="round" stroke-linejoin="round"/>
    <path d="M 19.254655838012695 85.51952362060547 C 25.905141830444336 90.5875244140625 29.974117279052734 91.27547454833984 28.529598236083984 95.4660873413086 C 30.224220275878906 88.952880859375 25.57016372680664 93.1528549194336 28.428531646728516 88.13238525390625 C 28.783647537231445 85.67787170410156 35.06192398071289 79.94047546386719 31.56928253173828 81.37857818603516" stroke-width="1.0892857313156128" fill="none" stroke="rgb(255, 17, 117)" stroke-opacity="0.8279041" stroke-linecap="round" stroke-linejoin="round"/>
    <path d="M 104.97301483154297 121.99430084228516 C 103.99015045166016 128.0358428955078 102.99684143066406 129.05642700195312 100.70230865478516 124.83157348632812" stroke-width="1.1259455680847168" fill="none" stroke="rgb(118, 253, 181)" stroke-opacity="0.805651" stroke-linecap="round" stroke-linejoin="round"/>
    <path d="M 8.087722778320312 96.71038818359375 C 6.22165584564209 93.65375518798828 9.382599830627441 93.19241333007812 10.444082260131836 98.40618896484375" stroke-width="1.0892857313156128" fill="none" stroke="rgb(209, 236, 108)" stroke-opacity="0.60238403" stroke-linecap="round" stroke-linejoin="round"/>
    <path d="M 77.2873764038086 57.28485870361328 C 72.59465026855469 54.49382781982422 74.58872985839844 59.122737884521484 71.80106353759766 56.29523468017578 C 69.43712615966797 53.400177001953125 65.14085388183594 59.28998947143555 64.41302490234375 62.2819709777832 C 58.86497497558594 60.25688934326172 60.904296875 65.04112243652344 58.937217712402344 59.3343620300293" stroke-width="1.7329442501068115" fill="none" stroke="rgb(192, 59, 169)" stroke-opacity="0.2029784" stroke-linecap="round" stroke-linejoin="round"/>
    <path d="M 70.73219299316406 84.7038803100586 C 65.70913696289062 87.43352508544922 61.247528076171875 90.6973876953125 56.34738540649414 93.05722045898438" stroke-width="1.4671024084091187" fill="none" stroke="rgb(164, 188, 134)" stroke-opacity="0.6189655" stroke-linecap="round" stroke-linejoin="round"/>
    <path d="M 120.64154815673828 75.27989959716797 C 119.87481689453125 75.66839599609375 117.98921203613281 69.95478820800781 115.01576232910156 72.26530456542969 C 117.28646850585938 74.2976303100586 114.17478942871094 76.97537231445312 118.6973648071289 78.89835357666016 C 114.4159164428711 78.54584503173828 111.49457550048828 79.89852905273438 114.44563293457031 86.27783966064453" stroke-width="1.0892857313156128" fill="none" stroke="rgb(221, 127, 182)" stroke-opacity="0.62694347" stroke-linecap="round" stroke-linejoin="round"/>
    <path d="M 114.74353790283203 93.42961883544922 C 120.67303466796875 87.69927978515625 123.92008209228516 86.33802795410156 117.8980712890625 90.13255310058594 C 121.34049224853516 95.22233581542969 127.2931900024414 99.28287506103516 127.19534301757812 93.47088623046875" stroke-width="1.0892857313156128" fill="none" stroke="rgb(221, 162, 170)" stroke-opacity="0.02191417" stroke-linecap="round" stroke-linejoin="round"/>
    <path d="M 71.25918579101562 59.7325325012207 C 71.79336547851562 61.07299041748047 67.53428649902344 56.0314826965332 70.8564453125 60.97374725341797 C 69.01248168945312 54.96091079711914 64.44062805175781 51.187992095947266 61.05194091796875 57.479042053222656 C 63.96830368041992 54.76897048950195 68.84844970703125 56.868011474609375 65.16068267822266 56.392093658447266" stroke-width="1.0892857313156128" fill="none" stroke="rgb(213, 128, 111)" stroke-opacity="0.5006426" stroke-linecap="round" stroke-linejoin="round"/>
    <path d="M 96.2612533569336 105.18484497070312 C 91.01991271972656 105.01461029052734 86.75811767578125 102.08365631103516 91.92814636230469 107.40410614013672 C 88.2231674194336 106.96250915527344 92.697265625 108.31970977783203 88.31501007080078 102.23129272460938 C 94.30467224121094 102.12269592285156 99.12862396240234 103.72181701660156 102.97823333740234 103.09903717041016" stroke-width="1.0892857313156128" fill="none" stroke="rgb(149, 209, 99)" stroke-opacity="0.11447216" stroke-linecap="round" stroke-linejoin="round"/>
    <path d="M 72.7956314086914 93.15457916259766 C 65.64881134033203 95.81684875488281 64.59712982177734 90.53260040283203 61.76201248168945 94.58757019042969" stroke-width="1.0892857313156128" fill="none" stroke="rgb(212, 189, 17)" stroke-opacity="0.24483934" stroke-linecap="round" stroke-linejoin="round"/>
  </g>
</svg>
