<?xml version="1.0" ?>
<svg xmlns="http://www.w3.org/2000/svg" version="1.1" width="693.0" height="693.0">
  <defs/>
  <g>
    <path d="M 17.873249053955078 43.20418930053711 C 17.14998435974121 42.472503662109375 16.531993865966797 41.08684539794922 17.00764274597168 39.099388122558594 C 17.49794578552246 38.836692810058594 16.817855834960938 39.03864288330078 17.026247024536133 40.474063873291016 C 17.22780418395996 40.132137298583984 17.080291748046875 38.85402297973633 18.252845764160156 35.78578567504883 C 20.596660614013672 34.12846755981445 25.076030731201172 30.95472526550293 29.28626823425293 30.306726455688477 C 32.42444610595703 28.254987716674805 34.300865173339844 27.019773483276367 32.39794921875 29.596054077148438 C 32.56745910644531 31.614877700805664 31.143884658813477 36.788394927978516 36.33066177368164 42.96270751953125 C 39.79945373535156 49.793243408203125 51.65660095214844 55.7349967956543 57.42790985107422 56.09447479248047 C 64.74231719970703 57.46705627441406 64.06433868408203 55.563289642333984 63.281044006347656 53.773868560791016 C 62.728240966796875 52.00996398925781 71.4825210571289 50.415771484375 77.72225189208984 46.41632080078125" stroke-width="0.9633063077926636" fill="none" stroke="rgb(36, 6, 53)" stroke-opacity="0.8660103" stroke-linecap="round" stroke-linejoin="round"/>
    <path d="M 18.224027633666992 39.704959869384766 C 15.556743621826172 35.83998107910156 15.719399452209473 38.199893951416016 15.354406356811523 38.29645538330078" stroke-width="0.9142717719078064" fill="none" stroke="rgb(116, 58, 220)" stroke-opacity="0.45473266" stroke-linecap="round" stroke-linejoin="round"/>
    <path d="M 78.45047760009766 44.975921630859375 C 76.95994567871094 44.39137268066406 75.03824615478516 44.3399658203125 73.44053649902344 44.037269592285156 C 71.81490325927734 43.732234954833984 66.83152770996094 42.840087890625 62.562137603759766 41.10342025756836" stroke-width="1.196420669555664" fill="none" stroke="rgb(215, 92, 206)" stroke-opacity="0.5460098" stroke-linecap="round" stroke-linejoin="round"/>
    <path d="M 29.519636154174805 31.030899047851562 C 28.570205688476562 36.95659255981445 26.86314582824707 39.19084548950195 27.330543518066406 33.06612777709961" stroke-width="1.2337884902954102" fill="none" stroke="rgb(87, 65, 255)" stroke-opacity="0.4679867" stroke-linecap="round" stroke-linejoin="round"/>
    <path d="M 18.758974075317383 42.59218215942383 C 16.74761962890625 45.4359016418457 13.997636795043945 47.336181640625 13.634587287902832 46.36577606201172 C 12.762067794799805 45.95906448364258 13.022507667541504 43.3693733215332 13.175277709960938 39.101104736328125 C 13.424235343933105 35.73501205444336 12.213715553283691 35.06495666503906 11.531586647033691 34.708457946777344" stroke-width="0.958209216594696" fill="none" stroke="rgb(125, 182, 148)" stroke-opacity="0.51540554" stroke-linecap="round" stroke-linejoin="round"/>
    <path d="M 59.11957931518555 56.78646469116211 C 63.92610168457031 51.65936279296875 68.25495910644531 45.54722213745117 68.0506362915039 42.69614791870117 C 69.69339752197266 41.596893310546875 68.46488189697266 45.40705871582031 67.55717468261719 49.664730072021484 C 65.53174591064453 52.589141845703125 64.75318145751953 53.7962760925293 62.962005615234375 54.14630889892578" stroke-width="0.9142717719078064" fill="none" stroke="rgb(173, 33, 215)" stroke-opacity="0.45720947" stroke-linecap="round" stroke-linejoin="round"/>
    <path d="M 29.869590759277344 30.547286987304688 C 28.473209381103516 26.077102661132812 23.7830810546875 28.62982177734375 22.489978790283203 33.017452239990234" stroke-width="0.9142717719078064" fill="none" stroke="rgb(51, 60, 205)" stroke-opacity="0.45473245" stroke-linecap="round" stroke-linejoin="round"/>
    <path d="M 18.013090133666992 41.602115631103516 C 23.2581844329834 42.61543273925781 29.61653709411621 44.00813674926758 31.142011642456055 45.831626892089844 C 32.34569549560547 45.81563949584961 26.69406509399414 47.225975036621094 22.21232795715332 48.65425109863281 C 17.779924392700195 51.583824157714844 23.791324615478516 55.419002532958984 31.390111923217773 59.255638122558594" stroke-width="1.22394859790802" fill="none" stroke="rgb(185, 123, 250)" stroke-opacity="0.46738648" stroke-linecap="round" stroke-linejoin="round"/>
    <path d="M 78.95194244384766 44.49674606323242 C 75.4388198852539 44.67551803588867 73.35713958740234 44.286865234375 71.3979263305664 43.77811813354492 C 70.56926727294922 44.74103927612305 69.55455780029297 47.353790283203125 68.48320007324219 49.735172271728516 C 66.49190521240234 51.326263427734375 66.52022552490234 51.581260681152344 66.95419311523438 51.550758361816406" stroke-width="1.5298895835876465" fill="none" stroke="rgb(248, 19, 109)" stroke-opacity="0.5214557" stroke-linecap="round" stroke-linejoin="round"/>
    <path d="M 10.681656837463379 35.415550231933594 C 10.357038497924805 39.22272872924805 11.42595386505127 42.601322174072266 11.781517028808594 42.43963623046875 C 12.469772338867188 41.37710189819336 12.81451416015625 37.83515167236328 12.04300594329834 35.237457275390625 C 12.423739433288574 31.696792602539062 13.501782417297363 32.89543533325195 16.17807388305664 33.37029266357422" stroke-width="0.9142717719078064" fill="none" stroke="rgb(49, 0, 160)" stroke-opacity="0.5046719" stroke-linecap="round" stroke-linejoin="round"/>
    <path d="M 66.11603546142578 49.875335693359375 C 64.13324737548828 51.02569580078125 61.97930145263672 49.46308135986328 64.02732849121094 44.96844482421875" stroke-width="1.3548922538757324" fill="none" stroke="rgb(64, 127, 152)" stroke-opacity="0.5444451" stroke-linecap="round" stroke-linejoin="round"/>
    <path d="M 63.21835708618164 56.159053802490234 C 64.85029602050781 57.102909088134766 65.8465576171875 58.55707931518555 65.92448425292969 60.4388313293457 C 67.00021362304688 63.13042068481445 64.54812622070312 65.110107421875 59.731258392333984 65.46929931640625" stroke-width="1.3354618549346924" fill="none" stroke="rgb(136, 21, 109)" stroke-opacity="0.513415" stroke-linecap="round" stroke-linejoin="round"/>
    <path d="M 8.641700744628906 35.3870849609375 C 8.497820854187012 30.82332992553711 9.656841278076172 28.016494750976562 11.832159042358398 25.47759437561035 C 14.167963027954102 24.129749298095703 8.962894439697266 22.97502326965332 2.931292772293091 23.542800903320312" stroke-width="0.9142717719078064" fill="none" stroke="rgb(55, 60, 246)" stroke-opacity="0.5471609" stroke-linecap="round" stroke-linejoin="round"/>
    <path d="M 62.5909309387207 48.41495895385742 C 61.232749938964844 50.95327377319336 59.9765739440918 53.15916442871094 57.82049560546875 52.46989822387695 C 54.61804962158203 53.922245025634766 53.630489349365234 50.387786865234375 55.630313873291016 48.62286376953125" stroke-width="1.0010889768600464" fill="none" stroke="rgb(74, 99, 73)" stroke-opacity="0.4653999" stroke-linecap="round" stroke-linejoin="round"/>
    <path d="M 64.88294219970703 56.94480895996094 C 63.50043869018555 58.418636322021484 60.468162536621094 58.59856033325195 57.56038284301758 57.61941146850586 C 55.776241302490234 55.97315979003906 53.58312225341797 53.17933654785156 51.31578826904297 50.57277297973633 C 46.835350036621094 49.801841735839844 47.064414978027344 47.12548065185547 47.129493713378906 44.516334533691406" stroke-width="0.9142717719078064" fill="none" stroke="rgb(199, 214, 228)" stroke-opacity="0.5185742" stroke-linecap="round" stroke-linejoin="round"/>
    <path d="M 28.465219497680664 31.293676376342773 C 27.37447166442871 36.16341018676758 27.842693328857422 39.37017822265625 29.209516525268555 41.815330505371094 C 31.882423400878906 43.11233139038086 34.21869659423828 44.940216064453125 36.40867614746094 47.670936584472656 C 39.78028869628906 49.645687103271484 40.6273078918457 45.243927001953125 39.80940246582031 38.489253997802734" stroke-width="1.6048736572265625" fill="none" stroke="rgb(198, 57, 221)" stroke-opacity="0.52945024" stroke-linecap="round" stroke-linejoin="round"/>
    <path d="M 61.731807708740234 43.48780059814453 C 63.702293395996094 39.88262939453125 59.95458221435547 38.909149169921875 55.859161376953125 37.3687744140625" stroke-width="1.564852237701416" fill="none" stroke="rgb(71, 124, 154)" stroke-opacity="0.54992104" stroke-linecap="round" stroke-linejoin="round"/>
    <path d="M 23.66143226623535 4.602134704589844 C 24.534435272216797 1.452622890472412 26.499977111816406 0.14679957926273346 28.374059677124023 -1.2406980991363525 C 29.104707717895508 -3.6904397010803223 32.69172286987305 -6.133666515350342 36.278743743896484 -8.576891899108887" stroke-width="1.5274877548217773" fill="none" stroke="rgb(202, 80, 151)" stroke-opacity="0.5015861" stroke-linecap="round" stroke-linejoin="round"/>
    <path d="M 55.68524169921875 40.78240203857422 C 49.86548614501953 35.05747985839844 52.70822525024414 36.00410079956055 56.18301773071289 36.928592681884766" stroke-width="1.095237374305725" fill="none" stroke="rgb(99, 29, 74)" stroke-opacity="0.49634257" stroke-linecap="round" stroke-linejoin="round"/>
    <path d="M 100.2540054321289 62.22688293457031 C 101.5057144165039 64.99039459228516 101.89872741699219 67.98390197753906 102.10395812988281 71.73059844970703 C 102.19517517089844 74.86676025390625 103.69048309326172 75.78971099853516 105.05248260498047 76.66561126708984" stroke-width="1.0417894124984741" fill="none" stroke="rgb(125, 176, 7)" stroke-opacity="0.4958539" stroke-linecap="round" stroke-linejoin="round"/>
    <path d="M 31.317874908447266 86.49183654785156 C 33.93589401245117 83.22943878173828 36.97797393798828 80.78864288330078 38.937904357910156 80.06565856933594 C 41.20516586303711 80.31070709228516 41.96602249145508 80.94896697998047 43.10020065307617 82.4554214477539 C 42.497222900390625 83.11922454833984 46.0627326965332 79.0945053100586 51.55550003051758 76.86827850341797" stroke-width="1.1276698112487793" fill="none" stroke="rgb(75, 12, 195)" stroke-opacity="0.51507676" stroke-linecap="round" stroke-linejoin="round"/>
    <path d="M 45.91508865356445 15.344422340393066 C 47.41179656982422 11.346633911132812 44.81665802001953 15.689848899841309 41.122413635253906 17.668699264526367" stroke-width="1.065778136253357" fill="none" stroke="rgb(106, 240, 183)" stroke-opacity="0.50930107" stroke-linecap="round" stroke-linejoin="round"/>
    <path d="M 49.85906982421875 16.712066650390625 C 49.3123779296875 21.966279983520508 47.89958190917969 27.383947372436523 46.55251693725586 28.70482063293457" stroke-width="0.917424738407135" fill="none" stroke="rgb(98, 92, 255)" stroke-opacity="0.46969166" stroke-linecap="round" stroke-linejoin="round"/>
    <path d="M 100.0668716430664 73.80097961425781 C 97.67449188232422 72.20236206054688 95.24201202392578 70.42349243164062 92.8343276977539 68.81970977783203 C 89.20902252197266 67.99497985839844 96.34735107421875 71.5322494506836 102.81871032714844 75.69087982177734" stroke-width="0.9142717719078064" fill="none" stroke="rgb(173, 83, 109)" stroke-opacity="0.45869946" stroke-linecap="round" stroke-linejoin="round"/>
    <path d="M 40.552085876464844 12.073427200317383 C 40.01797103881836 10.365544319152832 39.85286331176758 9.435201644897461 39.673423767089844 8.559615135192871 C 39.69342803955078 8.068464279174805 39.04252624511719 6.291317462921143 37.93321228027344 4.952052116394043 C 37.26825714111328 2.4116780757904053 35.83454132080078 0.3617565333843231 32.10685729980469 -0.7265097498893738" stroke-width="1.8445926904678345" fill="none" stroke="rgb(77, 219, 17)" stroke-opacity="0.5447251" stroke-linecap="round" stroke-linejoin="round"/>
    <path d="M 12.728645324707031 76.38270568847656 C 8.982462882995605 74.13145446777344 5.041135787963867 71.74750518798828 4.906549453735352 72.42284393310547 C 6.27406644821167 71.2490234375 11.029696464538574 71.56150817871094 16.395549774169922 72.09837341308594 C 20.559415817260742 73.37077331542969 14.776350975036621 68.09651184082031 7.816624641418457 64.6270523071289" stroke-width="0.9142717719078064" fill="none" stroke="rgb(130, 84, 24)" stroke-opacity="0.46276098" stroke-linecap="round" stroke-linejoin="round"/>
    <path d="M 36.50626754760742 23.899377822875977 C 38.80575942993164 25.795392990112305 40.55242156982422 26.6471004486084 43.594940185546875 26.59031867980957 C 44.086265563964844 28.161378860473633 42.519371032714844 25.55919647216797 40.34737014770508 22.514238357543945" stroke-width="1.1120352745056152" fill="none" stroke="rgb(97, 52, 226)" stroke-opacity="0.54475135" stroke-linecap="round" stroke-linejoin="round"/>
    <path d="M 11.935478210449219 40.29520034790039 C 13.509108543395996 39.577850341796875 17.84137535095215 39.448062896728516 15.843358039855957 34.436500549316406 C 19.69782829284668 31.01766586303711 17.962980270385742 35.444007873535156 16.61505126953125 36.97126388549805 C 21.77902603149414 33.13789749145508 25.647178649902344 34.816253662109375 23.212858200073242 36.78001022338867" stroke-width="1.0196385383605957" fill="none" stroke="rgb(161, 177, 62)" stroke-opacity="0.10730506" stroke-linecap="round" stroke-linejoin="round"/>
    <path d="M 56.125911712646484 40.81964874267578 C 59.37650680541992 43.159603118896484 55.365013122558594 46.47633743286133 53.749507904052734 42.70186233520508" stroke-width="1.051296591758728" fill="none" stroke="rgb(191, 31, 142)" stroke-opacity="0.88061196" stroke-linecap="round" stroke-linejoin="round"/>
    <path d="M 79.0423583984375 44.79896545410156 C 74.62939453125 49.481040954589844 76.95247650146484 49.77570343017578 72.33201599121094 51.79334259033203" stroke-width="0.9142717719078064" fill="none" stroke="rgb(31, 126, 145)" stroke-opacity="0.49827886" stroke-linecap="round" stroke-linejoin="round"/>
    <path d="M 27.5820255279541 31.23504638671875 C 23.307018280029297 27.218822479248047 26.771583557128906 23.9957275390625 24.46589469909668 22.857240676879883 C 28.0167236328125 26.024887084960938 29.871070861816406 30.17032241821289 34.79652786254883 27.493610382080078 C 29.550479888916016 25.344297409057617 24.798912048339844 26.967872619628906 25.699541091918945 21.23273468017578" stroke-width="0.9142717719078064" fill="none" stroke="rgb(46, 107, 74)" stroke-opacity="0.63485754" stroke-linecap="round" stroke-linejoin="round"/>
    <path d="M 65.84104919433594 51.03784942626953 C 67.65013885498047 49.923763275146484 70.86616516113281 54.26520538330078 70.43072509765625 58.703895568847656 C 67.06948852539062 59.77382278442383 65.28610229492188 62.8878173828125 62.04189682006836 66.67290496826172 C 62.55138397216797 69.15489959716797 66.82270050048828 74.90269470214844 66.7364501953125 73.61444854736328" stroke-width="0.9142717719078064" fill="none" stroke="rgb(64, 238, 87)" stroke-opacity="0.71913636" stroke-linecap="round" stroke-linejoin="round"/>
    <path d="M 56.18984603881836 36.04336929321289 C 59.532066345214844 39.223350524902344 60.455257415771484 38.69645309448242 53.9840087890625 41.02928924560547" stroke-width="0.9142717719078064" fill="none" stroke="rgb(211, 30, 106)" stroke-opacity="0.40256885" stroke-linecap="round" stroke-linejoin="round"/>
    <path d="M 12.416560173034668 40.08095169067383 C 12.288873672485352 42.928192138671875 15.626994132995605 37.00260925292969 14.343817710876465 38.429744720458984" stroke-width="0.9142717719078064" fill="none" stroke="rgb(239, 188, 225)" stroke-opacity="0.72350776" stroke-linecap="round" stroke-linejoin="round"/>
    <path d="M 12.692934036254883 45.85284423828125 C 12.11970329284668 50.96708679199219 11.683493614196777 46.11023712158203 9.588363647460938 48.81041717529297 C 14.51974868774414 43.796974182128906 15.464570999145508 47.6588134765625 18.43647003173828 51.36900329589844 C 14.476851463317871 54.09611892700195 20.446073532104492 52.65257263183594 21.73712730407715 56.765933990478516" stroke-width="0.9241384863853455" fill="none" stroke="rgb(63, 32, 130)" stroke-opacity="0.57796973" stroke-linecap="round" stroke-linejoin="round"/>
    <path d="M 53.559959411621094 41.66352462768555 C 57.48121643066406 44.79370880126953 61.29789352416992 43.39955139160156 56.357948303222656 38.114925384521484 C 58.885066986083984 39.614463806152344 58.976470947265625 37.6907844543457 54.846885681152344 35.19449234008789" stroke-width="1.0382709503173828" fill="none" stroke="rgb(149, 190, 245)" stroke-opacity="0.039965812" stroke-linecap="round" stroke-linejoin="round"/>
    <path d="M 26.084165573120117 21.13992691040039 C 25.588960647583008 26.451025009155273 26.217626571655273 28.679018020629883 25.78350830078125 25.012523651123047 C 24.226835250854492 24.67534637451172 23.547277450561523 20.559911727905273 23.99701690673828 22.980037689208984 C 26.21810531616211 25.937694549560547 26.79229164123535 26.21674346923828 30.983139038085938 30.498558044433594" stroke-width="0.9380547404289246" fill="none" stroke="rgb(217, 90, 193)" stroke-opacity="0.2968268" stroke-linecap="round" stroke-linejoin="round"/>
    <path d="M 21.849607467651367 37.37284469604492 C 23.776872634887695 42.853233337402344 23.416749954223633 44.669185638427734 26.64803123474121 50.036109924316406 C 21.536043167114258 48.083106994628906 21.33428192138672 42.86903381347656 24.88409996032715 44.70940399169922" stroke-width="1.2595579624176025" fill="none" stroke="rgb(180, 153, 43)" stroke-opacity="0.4298979" stroke-linecap="round" stroke-linejoin="round"/>
    <path d="M 54.03189468383789 42.097137451171875 C 57.178565979003906 38.89173126220703 58.393714904785156 42.374107360839844 55.11247634887695 40.85847854614258" stroke-width="1.049356460571289" fill="none" stroke="rgb(190, 255, 255)" stroke-opacity="0.9375376" stroke-linecap="round" stroke-linejoin="round"/>
    <path d="M 21.0899600982666 58.457359313964844 C 24.85074806213379 56.67639923095703 23.618343353271484 52.50178146362305 28.89883804321289 51.018280029296875" stroke-width="0.9142717719078064" fill="none" stroke="rgb(47, 108, 32)" stroke-opacity="0.9525684" stroke-linecap="round" stroke-linejoin="round"/>
    <path d="M 74.15776062011719 51.754268646240234 C 72.71331024169922 55.51170349121094 68.4852523803711 52.836631774902344 69.72903442382812 48.8712158203125 C 64.9443359375 46.97981643676758 70.62639617919922 51.138885498046875 70.83605194091797 55.75872039794922 C 70.70423126220703 55.117027282714844 69.22493743896484 53.425811767578125 72.08846282958984 52.14617919921875" stroke-width="0.9754236936569214" fill="none" stroke="rgb(176, 246, 199)" stroke-opacity="0.074580155" stroke-linecap="round" stroke-linejoin="round"/>
    <path d="M 26.04897689819336 22.215681076049805 C 22.048072814941406 22.129243850708008 17.636606216430664 26.253883361816406 15.792196273803711 20.554296493530273" stroke-width="0.9142717719078064" fill="none" stroke="rgb(42, 12, 85)" stroke-opacity="0.67205703" stroke-linecap="round" stroke-linejoin="round"/>
    <path d="M 53.722145080566406 40.240997314453125 C 50.68134689331055 39.93885803222656 53.094661712646484 44.75323486328125 50.10981750488281 45.9179801940918 C 50.53248977661133 48.796390533447266 51.047603607177734 53.580047607421875 50.23026657104492 52.818809509277344 C 48.183135986328125 55.915225982666016 43.63043212890625 57.77964782714844 45.211891174316406 58.208839416503906" stroke-width="0.9142717719078064" fill="none" stroke="rgb(81, 50, 224)" stroke-opacity="0.46832922" stroke-linecap="round" stroke-linejoin="round"/>
    <path d="M 33.92009353637695 66.3769760131836 C 29.537805557250977 68.3128890991211 24.788238525390625 71.0265884399414 26.219682693481445 67.34689331054688 C 26.72487449645996 64.3198471069336 27.765380859375 62.78093338012695 30.071022033691406 68.10929870605469" stroke-width="0.9199882745742798" fill="none" stroke="rgb(147, 57, 66)" stroke-opacity="0.35623312" stroke-linecap="round" stroke-linejoin="round"/>
    <path d="M 55.097564697265625 96.10624694824219 C 58.64486312866211 99.66825103759766 54.88608169555664 103.67085266113281 50.18465805053711 99.61737060546875 C 53.533119201660156 98.87627410888672 56.4354248046875 103.95323181152344 61.31523895263672 98.92092895507812 C 56.332008361816406 97.95870971679688 55.10052490234375 96.09610748291016 57.42504119873047 98.46408081054688" stroke-width="0.9167504906654358" fill="none" stroke="rgb(199, 230, 31)" stroke-opacity="0.41046652" stroke-linecap="round" stroke-linejoin="round"/>
    <path d="M 54.66966247558594 21.573652267456055 C 54.25947570800781 16.74554443359375 53.573001861572266 13.563332557678223 53.63800048828125 9.747835159301758 C 52.11687469482422 6.170620918273926 52.39657211303711 3.687730550765991 47.77250671386719 0.9570869207382202" stroke-width="1.361122488975525" fill="none" stroke="rgb(0, 162, 84)" stroke-opacity="0.31914347" stroke-linecap="round" stroke-linejoin="round"/>
    <path d="M 46.871883392333984 14.273956298828125 C 51.47437286376953 12.017502784729004 56.48068618774414 12.161797523498535 57.790855407714844 11.888696670532227 C 57.88331985473633 9.534791946411133 57.146663665771484 7.486602783203125 60.723411560058594 11.446345329284668" stroke-width="0.9142717719078064" fill="none" stroke="rgb(157, 79, 158)" stroke-opacity="0.5859814" stroke-linecap="round" stroke-linejoin="round"/>
    <path d="M 81.50814819335938 77.64676666259766 C 79.57669830322266 81.18170166015625 81.49317932128906 79.16976928710938 86.58978271484375 82.72766876220703 C 82.94563293457031 81.73773193359375 81.9255142211914 86.01044464111328 83.91544342041016 84.07557678222656 C 87.00860595703125 88.05475616455078 89.1606674194336 83.9880142211914 89.14205169677734 84.9325942993164" stroke-width="1.1972613334655762" fill="none" stroke="rgb(235, 65, 233)" stroke-opacity="0.69731027" stroke-linecap="round" stroke-linejoin="round"/>
    <path d="M 75.61735534667969 74.97807312011719 C 80.52635192871094 70.87525177001953 75.2851333618164 73.45484924316406 75.46466064453125 77.97384643554688 C 70.6494140625 81.38935852050781 71.73075866699219 87.2949447631836 76.1207275390625 88.728271484375 C 80.57592010498047 88.52140045166016 77.05865478515625 92.19378662109375 72.33856201171875 91.10842895507812" stroke-width="0.9530004858970642" fill="none" stroke="rgb(160, 0, 212)" stroke-opacity="0.2022203" stroke-linecap="round" stroke-linejoin="round"/>
    <path d="M 3.2609689235687256 82.11344146728516 C 3.4633872509002686 77.84445190429688 -1.166788935661316 73.65229034423828 2.6541359424591064 69.24365997314453 C -1.7129952907562256 71.3609390258789 -4.263817310333252 73.45494842529297 -8.828975677490234 71.74929809570312 C -14.360051155090332 68.17369842529297 -16.283905029296875 65.46319580078125 -12.799789428710938 62.88700866699219" stroke-width="1.21091628074646" fill="none" stroke="rgb(148, 238, 20)" stroke-opacity="0.08502949" stroke-linecap="round" stroke-linejoin="round"/>
    <path d="M 32.03899383544922 84.75032043457031 C 28.786026000976562 82.86060333251953 32.93760681152344 85.74468994140625 31.365028381347656 85.08930969238281 C 30.411529541015625 81.8584976196289 34.02869415283203 79.15532684326172 28.578683853149414 77.35926055908203" stroke-width="0.9142717719078064" fill="none" stroke="rgb(134, 52, 22)" stroke-opacity="0.6090052" stroke-linecap="round" stroke-linejoin="round"/>
    <path d="M 101.62266540527344 17.327516555786133 C 100.75543975830078 15.7604341506958 95.18010711669922 19.527803421020508 97.73516845703125 20.986955642700195" stroke-width="1.02362859249115" fill="none" stroke="rgb(72, 213, 32)" stroke-opacity="0.4520296" stroke-linecap="round" stroke-linejoin="round"/>
    <path d="M 74.62284088134766 14.467684745788574 C 73.97053527832031 14.910099983215332 78.09587097167969 12.975940704345703 74.1329345703125 15.1163969039917 C 74.61831665039062 19.353961944580078 74.67092895507812 23.09836769104004 74.86051940917969 24.031356811523438" stroke-width="0.9142717719078064" fill="none" stroke="rgb(139, 49, 139)" stroke-opacity="0.4447534" stroke-linecap="round" stroke-linejoin="round"/>
    <path d="M 50.05461120605469 84.373291015625 C 50.787078857421875 82.71012878417969 53.349117279052734 84.10929870605469 58.544071197509766 83.73783874511719 C 57.10371780395508 80.28736877441406 59.9690055847168 80.2156982421875 57.55643081665039 75.73994445800781" stroke-width="0.9785207509994507" fill="none" stroke="rgb(241, 110, 108)" stroke-opacity="0.047191363" stroke-linecap="round" stroke-linejoin="round"/>
    <path d="M 90.20818328857422 17.406343460083008 C 94.07447814941406 13.159555435180664 89.68085479736328 17.660511016845703 88.98326873779297 22.43700408935547 C 87.70148468017578 27.19377326965332 87.68132781982422 24.48687171936035 92.21976470947266 20.628522872924805 C 96.7563247680664 18.729209899902344 101.24710083007812 20.951013565063477 101.96694946289062 21.6719970703125" stroke-width="0.9142717719078064" fill="none" stroke="rgb(52, 54, 176)" stroke-opacity="0.7930454" stroke-linecap="round" stroke-linejoin="round"/>
    <path d="M 99.90283966064453 97.36990356445312 C 95.80121612548828 97.12742614746094 96.83607482910156 95.14071655273438 97.3270263671875 95.57806396484375 C 92.12789154052734 92.63986206054688 94.03142547607422 95.80390167236328 97.34782409667969 91.28290557861328" stroke-width="1.2333859205245972" fill="none" stroke="rgb(249, 2, 35)" stroke-opacity="0.26114157" stroke-linecap="round" stroke-linejoin="round"/>
    <path d="M 12.685957908630371 38.77537155151367 C 12.124282836914062 44.989688873291016 12.185813903808594 45.033878326416016 11.168878555297852 47.747554779052734 C 6.307868480682373 50.096012115478516 3.668278217315674 50.92496871948242 -0.5486935377120972 55.6197624206543 C -3.4198176860809326 54.9255485534668 -1.56413733959198 55.04880905151367 2.023346185684204 49.77163314819336" stroke-width="0.9834300875663757" fill="none" stroke="rgb(54, 37, 26)" stroke-opacity="0.23033632" stroke-linecap="round" stroke-linejoin="round"/>
    <path d="M 81.30785369873047 95.29082489013672 C 79.46857452392578 96.85665893554688 76.0086441040039 95.4407958984375 78.09254455566406 92.80907440185547" stroke-width="0.9825356006622314" fill="none" stroke="rgb(108, 71, 30)" stroke-opacity="0.9295106" stroke-linecap="round" stroke-linejoin="round"/>
    <path d="M 86.1665267944336 62.18889617919922 C 88.88783264160156 61.7776985168457 84.13789367675781 63.898311614990234 86.39591217041016 65.643798828125" stroke-width="0.9142717719078064" fill="none" stroke="rgb(118, 215, 241)" stroke-opacity="0.10023278" stroke-linecap="round" stroke-linejoin="round"/>
  </g>
</svg>
