<?xml version="1.0" ?>
<svg xmlns="http://www.w3.org/2000/svg" version="1.1" width="122.0" height="122.0">
  <defs/>
  <g>
    <path d="M 66.46446228027344 26.68362808227539 C 65.64517974853516 25.52937889099121 66.48590850830078 25.652414321899414 65.86063385009766 25.558582305908203 C 66.70848846435547 24.796443939208984 65.68545532226562 23.135663986206055 67.45175170898438 22.280467987060547 C 69.11534118652344 19.54218864440918 73.4456787109375 18.467788696289062 75.5394515991211 22.719276428222656 C 77.56224060058594 27.90553855895996 78.31017303466797 36.85274124145508 78.1630630493164 41.90025329589844 C 78.33104705810547 45.582542419433594 75.9375228881836 44.565834045410156 74.83612823486328 45.8278923034668 C 74.71941375732422 47.7215576171875 75.42501831054688 52.454524993896484 76.14289855957031 54.941200256347656 C 76.01260375976562 56.877620697021484 74.76655578613281 55.93658447265625 71.87948608398438 57.31028747558594 C 70.3686294555664 59.286964416503906 66.35093688964844 60.6270751953125 63.47731018066406 62.554771423339844 C 59.847564697265625 63.69214630126953 56.666534423828125 64.7835464477539 54.25777816772461 66.15994262695312 C 51.23069763183594 66.4327621459961 48.224205017089844 66.14163970947266 48.40671920776367 68.48094940185547 C 48.59423828125 70.63043212890625 52.96146774291992 73.13229370117188 57.38908386230469 75.68595886230469 C 59.57865905761719 79.08065795898438 59.0067024230957 85.97241973876953 59.69588851928711 93.50785827636719" stroke-width="2.0190329551696777" fill="none" stroke="rgb(51, 37, 8)" stroke-opacity="0.8460863" stroke-linecap="round" stroke-linejoin="round"/>
    <path d="M 74.6457748413086 23.999507904052734 C 77.00140380859375 19.995464324951172 79.81880950927734 16.28373146057129 82.33599853515625 12.31814956665039 C 85.25847625732422 9.320025444030762 80.19499206542969 11.548530578613281 73.9461669921875 13.383809089660645" stroke-width="1.6294286251068115" fill="none" stroke="rgb(139, 254, 226)" stroke-opacity="0.27976677" stroke-linecap="round" stroke-linejoin="round"/>
    <path d="M 74.09586334228516 40.17982864379883 C 74.37329864501953 39.4914665222168 73.44937896728516 39.15763473510742 71.77485656738281 39.599464416503906 C 70.83236694335938 39.22058868408203 76.47257232666016 44.21405029296875 80.0088119506836 51.22832489013672" stroke-width="2.2484970092773438" fill="none" stroke="rgb(25, 255, 222)" stroke-opacity="0.8671593" stroke-linecap="round" stroke-linejoin="round"/>
    <path d="M 54.41707992553711 79.4862289428711 C 57.62946701049805 78.33633422851562 58.680824279785156 79.24661254882812 63.7411003112793 76.18162536621094" stroke-width="1.328665018081665" fill="none" stroke="rgb(73, 101, 103)" stroke-opacity="0.86541486" stroke-linecap="round" stroke-linejoin="round"/>
    <path d="M 63.883296966552734 61.964080810546875 C 70.93466186523438 65.48200225830078 71.02090454101562 68.43585968017578 63.427886962890625 70.59834289550781" stroke-width="1.0892857313156128" fill="none" stroke="rgb(136, 229, 122)" stroke-opacity="0.32837296" stroke-linecap="round" stroke-linejoin="round"/>
    <path d="M 77.48196411132812 40.75437927246094 C 79.42536926269531 43.29865264892578 77.81238555908203 37.5893669128418 76.9492416381836 32.837303161621094" stroke-width="1.1271644830703735" fill="none" stroke="rgb(53, 9, 113)" stroke-opacity="0.15378095" stroke-linecap="round" stroke-linejoin="round"/>
    <path d="M 65.03780364990234 24.891258239746094 C 63.597747802734375 24.90269660949707 61.3309440612793 25.067264556884766 58.91864776611328 25.630571365356445 C 56.32607650756836 26.445390701293945 56.12840270996094 23.423242568969727 55.97893142700195 20.6333065032959" stroke-width="1.2090933322906494" fill="none" stroke="rgb(90, 226, 176)" stroke-opacity="0.476235" stroke-linecap="round" stroke-linejoin="round"/>
    <path d="M 74.50382232666016 49.410362243652344 C 70.48795318603516 49.6577262878418 63.80063247680664 49.89219665527344 72.6537857055664 49.42169952392578" stroke-width="1.6419590711593628" fill="none" stroke="rgb(159, 253, 202)" stroke-opacity="0.41647044" stroke-linecap="round" stroke-linejoin="round"/>
    <path d="M 63.44318389892578 63.69092559814453 C 66.95193481445312 59.328521728515625 68.4183578491211 64.04469299316406 61.78178405761719 66.07518005371094" stroke-width="1.2146848440170288" fill="none" stroke="rgb(22, 207, 179)" stroke-opacity="0.500135" stroke-linecap="round" stroke-linejoin="round"/>
    <path d="M 75.42373657226562 50.783206939697266 C 73.07984924316406 53.23521423339844 69.91931915283203 55.020751953125 67.03401184082031 56.89554214477539 C 64.331787109375 58.615238189697266 65.3514175415039 53.38886260986328 64.66024017333984 49.42127227783203" stroke-width="1.3952536582946777" fill="none" stroke="rgb(77, 161, 116)" stroke-opacity="0.23163679" stroke-linecap="round" stroke-linejoin="round"/>
    <path d="M 64.7231674194336 71.18504333496094 C 67.22664642333984 67.72586822509766 68.7918930053711 62.713748931884766 69.02809143066406 59.25145721435547 C 68.63386535644531 55.47007751464844 66.5378189086914 50.049713134765625 64.18870544433594 45.36702346801758 C 61.84891128540039 39.95806884765625 62.67792510986328 47.62596893310547 63.99799728393555 54.1009407043457" stroke-width="1.763237476348877" fill="none" stroke="rgb(22, 226, 227)" stroke-opacity="0.27867314" stroke-linecap="round" stroke-linejoin="round"/>
    <path d="M 64.61660766601562 69.81482696533203 C 63.1346435546875 61.4941520690918 64.67081451416016 60.707298278808594 62.38469314575195 51.340911865234375" stroke-width="1.7003018856048584" fill="none" stroke="rgb(218, 34, 95)" stroke-opacity="0.64403826" stroke-linecap="round" stroke-linejoin="round"/>
    <path d="M 76.94509887695312 34.669227600097656 C 79.6029281616211 25.998939514160156 78.33207702636719 31.619007110595703 79.06079864501953 30.80792236328125" stroke-width="1.4611762762069702" fill="none" stroke="rgb(169, 52, 13)" stroke-opacity="0.18590644" stroke-linecap="round" stroke-linejoin="round"/>
    <path d="M 78.99494171142578 34.557010650634766 C 81.40171813964844 33.009300231933594 83.68412780761719 30.82069206237793 85.41096496582031 28.153013229370117 C 87.66780853271484 26.0112361907959 86.71788787841797 25.603700637817383 85.81028747558594 23.776695251464844" stroke-width="1.7038263082504272" fill="none" stroke="rgb(239, 89, 171)" stroke-opacity="0.018869117" stroke-linecap="round" stroke-linejoin="round"/>
    <path d="M 64.26040649414062 76.21878814697266 C 66.63967895507812 72.65406036376953 70.95658874511719 76.17974090576172 68.57833099365234 73.87305450439453" stroke-width="1.2898492813110352" fill="none" stroke="rgb(56, 32, 0)" stroke-opacity="0.22979504" stroke-linecap="round" stroke-linejoin="round"/>
    <path d="M 63.128150939941406 65.05087280273438 C 65.3567886352539 71.34027862548828 67.42676544189453 78.17159271240234 64.68897247314453 79.9017105102539 C 62.731170654296875 83.02738952636719 58.88376235961914 81.11396026611328 54.01924133300781 78.41483306884766 C 48.43203353881836 77.70989990234375 49.90036392211914 75.02974700927734 51.288333892822266 73.37751770019531" stroke-width="1.2433704137802124" fill="none" stroke="rgb(59, 157, 13)" stroke-opacity="0.14331749" stroke-linecap="round" stroke-linejoin="round"/>
    <path d="M 65.55294036865234 75.69204711914062 C 64.28539276123047 76.5301513671875 63.144718170166016 76.76213073730469 62.804344177246094 76.6008071899414 C 61.838829040527344 77.08895874023438 60.61060333251953 72.60001373291016 59.35276794433594 67.28585052490234" stroke-width="1.0892857313156128" fill="none" stroke="rgb(79, 159, 126)" stroke-opacity="0.5296679" stroke-linecap="round" stroke-linejoin="round"/>
    <path d="M 113.94664764404297 73.62153625488281 C 112.7081527709961 73.23026275634766 111.73729705810547 72.68731689453125 112.3595962524414 69.96031951904297 C 112.20863342285156 67.00900268554688 113.21488952636719 62.46717071533203 115.38177490234375 58.78771209716797 C 115.24825286865234 53.58258819580078 109.13973999023438 60.65993881225586 104.44338989257812 68.37625885009766" stroke-width="1.0892857313156128" fill="none" stroke="rgb(174, 255, 0)" stroke-opacity="0.29784828" stroke-linecap="round" stroke-linejoin="round"/>
    <path d="M 21.64859390258789 59.94426727294922 C 23.558818817138672 58.191646575927734 26.300580978393555 58.596282958984375 27.18621063232422 56.89520263671875 C 29.45564079284668 55.880516052246094 24.93922233581543 55.58082962036133 19.61330223083496 56.55725860595703" stroke-width="1.0892857313156128" fill="none" stroke="rgb(103, 195, 39)" stroke-opacity="0.14067943" stroke-linecap="round" stroke-linejoin="round"/>
    <path d="M 12.627972602844238 87.73908233642578 C 9.02214527130127 86.9644546508789 6.494820594787598 86.07210540771484 3.940643310546875 85.64551544189453 C 0.9755080342292786 86.86654663085938 4.444225788116455 78.81130981445312 9.145895004272461 70.90995788574219" stroke-width="1.0892857313156128" fill="none" stroke="rgb(111, 45, 83)" stroke-opacity="0.62214684" stroke-linecap="round" stroke-linejoin="round"/>
    <path d="M 74.04864501953125 90.41470336914062 C 67.71165466308594 91.1261978149414 62.789886474609375 95.99451446533203 68.26747131347656 95.09095001220703" stroke-width="1.0892857313156128" fill="none" stroke="rgb(131, 229, 182)" stroke-opacity="0.72621775" stroke-linecap="round" stroke-linejoin="round"/>
    <path d="M 66.66645812988281 69.14910125732422 C 69.29190826416016 75.74364471435547 65.78901672363281 75.04764556884766 61.446075439453125 77.25792694091797" stroke-width="1.3015896081924438" fill="none" stroke="rgb(167, 126, 135)" stroke-opacity="0.4593673" stroke-linecap="round" stroke-linejoin="round"/>
    <path d="M 84.69850158691406 -1.545740008354187 C 84.84246063232422 -1.7958400249481201 84.98764038085938 -2.0459399223327637 84.67530059814453 -0.3438418507575989 C 82.8083267211914 -0.19251276552677155 80.01193237304688 1.4213440418243408 78.74812316894531 4.548371315002441 C 76.47027587890625 6.659860610961914 75.46229553222656 11.209725379943848 73.79071807861328 15.062297821044922" stroke-width="1.0892857313156128" fill="none" stroke="rgb(104, 211, 159)" stroke-opacity="0.0" stroke-linecap="round" stroke-linejoin="round"/>
    <path d="M 67.16284942626953 74.34907531738281 C 74.21703338623047 71.41268157958984 76.31644439697266 70.89664459228516 84.03555297851562 67.42655181884766" stroke-width="1.994484305381775" fill="none" stroke="rgb(249, 54, 74)" stroke-opacity="0.4775612" stroke-linecap="round" stroke-linejoin="round"/>
    <path d="M 105.87488555908203 80.75536346435547 C 107.3585205078125 76.04456329345703 109.29779052734375 71.10807800292969 108.11273956298828 72.57019805908203 C 108.48664093017578 72.47710418701172 103.2901382446289 76.47046661376953 97.71831512451172 80.145263671875 C 93.41819763183594 84.87027740478516 100.15658569335938 86.73931121826172 105.45234680175781 89.10149383544922" stroke-width="1.182295799255371" fill="none" stroke="rgb(156, 92, 117)" stroke-opacity="0.45385656" stroke-linecap="round" stroke-linejoin="round"/>
    <path d="M 114.6008071899414 28.048770904541016 C 117.0049819946289 19.689258575439453 108.75389862060547 19.099157333374023 107.32044982910156 27.947368621826172" stroke-width="1.0892857313156128" fill="none" stroke="rgb(164, 36, 247)" stroke-opacity="0.75213313" stroke-linecap="round" stroke-linejoin="round"/>
    <path d="M 109.93170928955078 113.70067596435547 C 107.03398132324219 108.62824249267578 104.37650299072266 104.04023742675781 104.4381103515625 104.30199432373047 C 105.33877563476562 103.90533447265625 109.81607055664062 107.5832290649414 114.29358673095703 111.3177719116211 C 119.7111587524414 114.22357177734375 111.51846313476562 114.61023712158203 104.21841430664062 115.09068298339844" stroke-width="1.2977079153060913" fill="none" stroke="rgb(174, 91, 235)" stroke-opacity="0.08647904" stroke-linecap="round" stroke-linejoin="round"/>
    <path d="M 80.17391967773438 110.10649108886719 C 83.43612670898438 110.73590850830078 86.60868835449219 111.452880859375 88.24939727783203 112.49095153808594 C 89.05412292480469 113.04608917236328 87.28399658203125 113.698974609375 85.43013000488281 114.36486053466797 C 83.50170135498047 114.08097076416016 85.72452545166016 118.97000122070312 87.95252227783203 123.87073516845703" stroke-width="1.1193442344665527" fill="none" stroke="rgb(235, 209, 226)" stroke-opacity="0.00513594" stroke-linecap="round" stroke-linejoin="round"/>
    <path d="M 73.30408477783203 89.7907943725586 C 77.41542053222656 87.66217041015625 81.2764892578125 84.92729187011719 86.16887664794922 83.13832092285156 C 90.97013854980469 81.46340942382812 92.30742645263672 78.06105041503906 93.3810043334961 74.30224609375" stroke-width="1.2412537336349487" fill="none" stroke="rgb(149, 217, 172)" stroke-opacity="0.65343803" stroke-linecap="round" stroke-linejoin="round"/>
    <path d="M 4.98018741607666 86.0700912475586 C 6.7502007484436035 84.62869262695312 10.458538055419922 87.38265991210938 19.09368324279785 82.72217559814453" stroke-width="1.479480266571045" fill="none" stroke="rgb(41, 29, 255)" stroke-opacity="0.65708035" stroke-linecap="round" stroke-linejoin="round"/>
    <path d="M 119.45340728759766 -3.3235912322998047 C 119.76835632324219 -2.2033863067626953 120.00928497314453 -0.9166535139083862 119.95478057861328 0.062465012073516846 C 119.24944305419922 2.295335531234741 119.05372619628906 1.4345157146453857 118.41255187988281 0.40102604031562805" stroke-width="1.1522184610366821" fill="none" stroke="rgb(174, 248, 92)" stroke-opacity="0.2093202" stroke-linecap="round" stroke-linejoin="round"/>
    <path d="M 95.15835571289062 8.406621932983398 C 97.73664855957031 8.215346336364746 92.95228576660156 6.937699794769287 94.65794372558594 16.272857666015625" stroke-width="1.0892857313156128" fill="none" stroke="rgb(150, 197, 105)" stroke-opacity="0.2794303" stroke-linecap="round" stroke-linejoin="round"/>
    <path d="M 79.64209747314453 62.42089080810547 C 82.54621124267578 63.51931381225586 84.78103637695312 64.79237365722656 86.89993286132812 66.13446044921875 C 88.32646179199219 68.03009796142578 86.0545883178711 63.15630340576172 81.99486541748047 58.605796813964844" stroke-width="1.0892857313156128" fill="none" stroke="rgb(41, 4, 246)" stroke-opacity="0.6685122" stroke-linecap="round" stroke-linejoin="round"/>
    <path d="M 43.024658203125 13.038418769836426 C 41.272769927978516 13.348281860351562 41.00973129272461 13.54338550567627 41.536617279052734 13.726709365844727 C 39.83662414550781 14.354782104492188 40.60048294067383 13.565073013305664 39.494659423828125 14.330282211303711 C 38.02943420410156 14.885303497314453 35.101619720458984 16.226303100585938 33.83084487915039 18.67759132385254 C 33.554298400878906 22.098867416381836 33.07492446899414 25.47028350830078 33.2818603515625 26.812040328979492 C 33.370216369628906 29.372032165527344 32.79664611816406 31.707622528076172 32.69106674194336 35.01913833618164 C 34.02587127685547 35.92659378051758 33.934844970703125 37.69176483154297 34.46154022216797 38.291847229003906 C 34.583133697509766 40.35805892944336 34.70044708251953 42.49601745605469 36.640113830566406 44.62961196899414 C 38.814186096191406 46.63676834106445 42.07836151123047 49.1021728515625 43.74955368041992 52.90311813354492 C 46.18669509887695 55.6685905456543 47.64439010620117 59.09656524658203 48.14811325073242 61.10371017456055 C 48.92840576171875 62.819454193115234 49.517425537109375 62.93275451660156 49.8072509765625 63.169376373291016 C 48.28331756591797 62.13780212402344 48.3323860168457 63.332645416259766 46.943172454833984 64.98533630371094 C 44.984230041503906 66.09549713134766 42.890743255615234 69.00572204589844 39.961002349853516 70.9022445678711 C 37.743289947509766 73.65193176269531 35.11944580078125 75.82310485839844 31.671323776245117 76.95780181884766 C 26.931861877441406 77.33264923095703 26.377737045288086 78.184326171875 26.671072006225586 79.99710083007812" stroke-width="1.0892857313156128" fill="none" stroke="rgb(19, 35, 11)" stroke-opacity="0.67090243" stroke-linecap="round" stroke-linejoin="round"/>
    <path d="M 38.374351501464844 116.35559844970703 C 38.48307418823242 116.79212951660156 37.10643768310547 117.26400756835938 37.18388748168945 113.68517303466797 C 38.53850173950195 110.3777084350586 38.330631256103516 101.65103912353516 38.6296501159668 92.63751220703125 C 38.13703918457031 84.60834503173828 38.28703308105469 56.72065353393555 37.77183532714844 29.848270416259766" stroke-width="1.3225401639938354" fill="none" stroke="rgb(29, 35, 10)" stroke-opacity="1.0" stroke-linecap="round" stroke-linejoin="round"/>
    <path d="M 56.2684440612793 26.29961395263672 C 57.210609436035156 26.16016387939453 57.2104377746582 25.824668884277344 56.75857925415039 26.149492263793945 C 56.01273727416992 26.339284896850586 53.530765533447266 26.390615463256836 51.84022521972656 26.332860946655273 C 50.63563537597656 25.540300369262695 48.23068618774414 24.799564361572266 45.736148834228516 23.820749282836914 C 42.820953369140625 23.752431869506836 39.9323844909668 23.39071273803711 39.07799530029297 22.432086944580078 C 37.38834762573242 22.440494537353516 37.2699089050293 22.598012924194336 37.404579162597656 22.61958122253418 C 37.46216583251953 22.505882263183594 31.781452178955078 21.99676513671875 26.548439025878906 21.288543701171875" stroke-width="1.214315414428711" fill="none" stroke="rgb(33, 24, 12)" stroke-opacity="0.99289143" stroke-linecap="round" stroke-linejoin="round"/>
    <path d="M 37.26991271972656 23.772308349609375 C 42.61859893798828 19.838924407958984 41.678497314453125 25.825727462768555 48.339210510253906 28.04095458984375" stroke-width="1.4464819431304932" fill="none" stroke="rgb(242, 58, 72)" stroke-opacity="0.6609354" stroke-linecap="round" stroke-linejoin="round"/>
    <path d="M 52.3903694152832 26.779333114624023 C 53.42776107788086 26.46035385131836 54.741512298583984 26.159225463867188 55.499088287353516 25.870988845825195 C 56.30445098876953 25.839750289916992 56.17216873168945 25.016380310058594 56.29509735107422 24.70694351196289 C 55.705894470214844 24.55022621154785 57.94727325439453 19.992033004760742 59.728904724121094 15.426904678344727" stroke-width="1.0892857313156128" fill="none" stroke="rgb(141, 180, 20)" stroke-opacity="0.3489348" stroke-linecap="round" stroke-linejoin="round"/>
    <path d="M 8.110671043395996 72.21729278564453 C 5.032678127288818 77.357421875 3.423271417617798 84.26701354980469 2.723996639251709 87.0869140625 C 1.1624667644500732 87.83264923095703 1.5640636682510376 85.5815200805664 2.0724520683288574 83.76068115234375 C 3.0344271659851074 81.6812744140625 4.514505386352539 80.94664001464844 5.9382781982421875 81.84830474853516" stroke-width="1.322232723236084" fill="none" stroke="rgb(3, 202, 167)" stroke-opacity="0.20302376" stroke-linecap="round" stroke-linejoin="round"/>
    <path d="M 57.833534240722656 26.385589599609375 C 55.67890167236328 27.143136978149414 53.46231460571289 27.822622299194336 51.134254455566406 28.359663009643555 C 49.11904525756836 29.162857055664062 52.972774505615234 28.439687728881836 55.924373626708984 26.9005069732666" stroke-width="1.1430578231811523" fill="none" stroke="rgb(93, 122, 145)" stroke-opacity="0.46637547" stroke-linecap="round" stroke-linejoin="round"/>
    <path d="M 79.21135711669922 40.69667053222656 C 78.74828338623047 45.70081329345703 79.54021453857422 50.150264739990234 85.40435028076172 48.5776481628418" stroke-width="1.3053702116012573" fill="none" stroke="rgb(115, 0, 243)" stroke-opacity="0.6631156" stroke-linecap="round" stroke-linejoin="round"/>
    <path d="M 62.93793869018555 68.9165267944336 C 67.49153137207031 65.19233703613281 73.30863189697266 63.6194953918457 79.38090515136719 58.08677291870117" stroke-width="1.122422218322754" fill="none" stroke="rgb(20, 96, 113)" stroke-opacity="0.8022169" stroke-linecap="round" stroke-linejoin="round"/>
    <path d="M 69.18331909179688 73.510986328125 C 72.42974090576172 77.63128662109375 74.97979736328125 83.163330078125 77.60926818847656 84.06736755371094 C 80.50755310058594 84.43807983398438 83.129638671875 81.0069580078125 86.50428771972656 78.35240936279297 C 88.89290618896484 75.88294982910156 85.60150909423828 80.17135620117188 83.10481262207031 85.09123992919922" stroke-width="1.0892857313156128" fill="none" stroke="rgb(226, 167, 111)" stroke-opacity="0.41485882" stroke-linecap="round" stroke-linejoin="round"/>
    <path d="M 65.91773986816406 26.51737403869629 C 64.81743621826172 28.15838623046875 63.6553840637207 28.768957138061523 65.57569122314453 31.779027938842773 C 67.02928161621094 35.4222526550293 72.40858459472656 39.839515686035156 77.90161895751953 44.13482666015625 C 82.8537826538086 48.375511169433594 85.8111801147461 46.262542724609375 88.50648498535156 44.917354583740234" stroke-width="1.0892857313156128" fill="none" stroke="rgb(243, 234, 12)" stroke-opacity="0.013536017" stroke-linecap="round" stroke-linejoin="round"/>
    <path d="M 77.39781188964844 56.83438491821289 C 73.35811614990234 57.7306022644043 77.52722930908203 64.88549041748047 78.60469818115234 60.42649459838867" stroke-width="1.0892857313156128" fill="none" stroke="rgb(188, 240, 123)" stroke-opacity="0.97596294" stroke-linecap="round" stroke-linejoin="round"/>
    <path d="M 7.958906173706055 80.27230072021484 C 7.885434150695801 79.3134994506836 10.490187644958496 79.8552474975586 11.696070671081543 77.8429946899414 C 12.947986602783203 76.57335662841797 5.633659839630127 77.20629119873047 -0.6374906897544861 75.68004608154297" stroke-width="1.0892857313156128" fill="none" stroke="rgb(0, 186, 162)" stroke-opacity="0.29296678" stroke-linecap="round" stroke-linejoin="round"/>
    <path d="M 60.1135139465332 15.922057151794434 C 62.79471206665039 18.045791625976562 61.668052673339844 21.833663940429688 57.802955627441406 20.816917419433594" stroke-width="1.4022341966629028" fill="none" stroke="rgb(85, 251, 242)" stroke-opacity="0.8877563" stroke-linecap="round" stroke-linejoin="round"/>
    <path d="M 82.95849609375 87.45614624023438 C 87.73560333251953 91.06201934814453 89.80970764160156 86.15706634521484 83.89942169189453 89.36869812011719" stroke-width="1.1956480741500854" fill="none" stroke="rgb(171, 214, 211)" stroke-opacity="0.68839234" stroke-linecap="round" stroke-linejoin="round"/>
    <path d="M 7.956171035766602 81.64540100097656 C 11.492463111877441 85.48294830322266 12.318903923034668 88.81611633300781 8.016109466552734 90.45966339111328" stroke-width="1.0892857313156128" fill="none" stroke="rgb(142, 72, 105)" stroke-opacity="0.59901375" stroke-linecap="round" stroke-linejoin="round"/>
    <path d="M 7.724765777587891 80.48847198486328 C 7.681439399719238 77.15016174316406 6.644576072692871 80.63265228271484 5.555210113525391 79.62411499023438" stroke-width="1.120439887046814" fill="none" stroke="rgb(218, 233, 128)" stroke-opacity="0.06131591" stroke-linecap="round" stroke-linejoin="round"/>
    <path d="M 61.43084716796875 13.602804183959961 C 56.72354507446289 10.69950008392334 53.29123306274414 6.913030624389648 53.747005462646484 2.8477680683135986 C 51.71304702758789 -0.08789994567632675 53.361873626708984 -1.678748369216919 55.051456451416016 -3.2809720039367676 C 57.357078552246094 -4.283419609069824 58.808876037597656 -6.985720157623291 60.26190185546875 -9.688019752502441" stroke-width="1.0892857313156128" fill="none" stroke="rgb(155, 114, 2)" stroke-opacity="0.65129083" stroke-linecap="round" stroke-linejoin="round"/>
    <path d="M 59.16912841796875 15.116313934326172 C 60.95793151855469 16.655546188354492 62.87858200073242 17.945096969604492 65.7441635131836 18.214656829833984 C 66.78496551513672 20.727933883666992 68.67903900146484 21.75503158569336 70.96292877197266 22.700828552246094 C 74.51342010498047 23.613821029663086 76.70824432373047 16.128780364990234 77.71129608154297 8.209395408630371" stroke-width="1.0892857313156128" fill="none" stroke="rgb(78, 119, 152)" stroke-opacity="0.2877198" stroke-linecap="round" stroke-linejoin="round"/>
    <path d="M 21.179712295532227 29.05001449584961 C 21.855716705322266 26.40766143798828 20.63286018371582 23.807584762573242 19.644424438476562 22.744754791259766 C 18.85133171081543 22.658157348632812 17.42683982849121 25.370824813842773 16.031339645385742 28.120838165283203 C 16.22901725769043 31.099205017089844 17.460186004638672 34.766029357910156 18.834617614746094 38.38101577758789" stroke-width="1.42087984085083" fill="none" stroke="rgb(225, 247, 76)" stroke-opacity="0.25736862" stroke-linecap="round" stroke-linejoin="round"/>
    <path d="M 72.03699493408203 114.47425842285156 C 77.05811309814453 111.70816040039062 77.15129089355469 108.47791290283203 73.39404296875 112.6401596069336" stroke-width="1.2913168668746948" fill="none" stroke="rgb(211, 14, 184)" stroke-opacity="0.7674752" stroke-linecap="round" stroke-linejoin="round"/>
    <path d="M 37.604713439941406 89.16401672363281 C 44.007564544677734 88.63799285888672 47.685462951660156 92.62671661376953 50.22520446777344 90.91581726074219" stroke-width="1.0892857313156128" fill="none" stroke="rgb(131, 204, 169)" stroke-opacity="0.7655988" stroke-linecap="round" stroke-linejoin="round"/>
    <path d="M 113.66448974609375 61.356849670410156 C 112.74368286132812 65.00273132324219 112.31263732910156 69.15113067626953 113.09980010986328 71.85017395019531 C 113.77365112304688 74.2181625366211 116.80298614501953 74.87517547607422 118.78752136230469 76.59317779541016 C 121.02925872802734 77.2433090209961 121.06588745117188 75.81982421875 121.21404266357422 73.93233489990234" stroke-width="1.0892857313156128" fill="none" stroke="rgb(41, 202, 132)" stroke-opacity="0.09202896" stroke-linecap="round" stroke-linejoin="round"/>
    <path d="M 90.60160827636719 38.03604507446289 C 90.7160415649414 34.556697845458984 89.65127563476562 32.482460021972656 88.65425872802734 30.49363899230957 C 87.43365478515625 28.44400978088379 94.53361511230469 31.931379318237305 102.50171661376953 34.93687438964844" stroke-width="1.0892857313156128" fill="none" stroke="rgb(200, 172, 49)" stroke-opacity="0.38861033" stroke-linecap="round" stroke-linejoin="round"/>
    <path d="M 54.87220001220703 110.51116943359375 C 53.9975700378418 111.65690612792969 52.36835861206055 111.26872253417969 51.017555236816406 112.10668182373047 C 50.305484771728516 112.33075714111328 49.136390686035156 108.82620239257812 47.91547393798828 104.96118927001953" stroke-width="1.0892857313156128" fill="none" stroke="rgb(182, 213, 141)" stroke-opacity="0.34468517" stroke-linecap="round" stroke-linejoin="round"/>
    <path d="M 109.52001190185547 111.02175903320312 C 110.47748565673828 111.00595092773438 112.26403045654297 111.4802017211914 113.35284423828125 111.31632232666016 C 113.5787124633789 112.23016357421875 114.949462890625 109.75146484375 116.39227294921875 106.94463348388672" stroke-width="1.2795082330703735" fill="none" stroke="rgb(119, 199, 24)" stroke-opacity="0.7040658" stroke-linecap="round" stroke-linejoin="round"/>
    <path d="M 2.8548059463500977 96.6366195678711 C 4.612049102783203 95.54129791259766 7.094698905944824 95.73126220703125 8.496659278869629 96.2716293334961 C 10.553777694702148 96.38182067871094 13.004639625549316 98.04087829589844 15.140508651733398 99.74844360351562 C 17.579458236694336 101.40611267089844 16.790416717529297 101.9722900390625 14.17862606048584 102.35458374023438" stroke-width="1.3568207025527954" fill="none" stroke="rgb(156, 245, 121)" stroke-opacity="0.3724021" stroke-linecap="round" stroke-linejoin="round"/>
    <path d="M 82.19338989257812 109.56427764892578 C 84.62830352783203 104.1310043334961 81.45880126953125 99.85376739501953 82.1476058959961 103.1436996459961" stroke-width="1.0892857313156128" fill="none" stroke="rgb(195, 112, 179)" stroke-opacity="0.6801132" stroke-linecap="round" stroke-linejoin="round"/>
    <path d="M 26.488563537597656 32.64078903198242 C 25.0501766204834 28.609338760375977 23.276348114013672 25.274932861328125 27.02411651611328 28.36374282836914" stroke-width="1.0892857313156128" fill="none" stroke="rgb(107, 158, 138)" stroke-opacity="0.97947496" stroke-linecap="round" stroke-linejoin="round"/>
    <path d="M 53.42353820800781 113.97442626953125 C 55.46938705444336 112.82532501220703 56.605323791503906 111.70020294189453 57.35218811035156 110.819580078125 C 57.9503173828125 109.77799224853516 55.65085220336914 107.84972381591797 53.92367172241211 105.69856262207031 C 52.044342041015625 103.72417449951172 53.366634368896484 105.97111511230469 55.05889892578125 107.85355377197266" stroke-width="1.0892857313156128" fill="none" stroke="rgb(216, 139, 241)" stroke-opacity="0.7881846" stroke-linecap="round" stroke-linejoin="round"/>
    <path d="M 40.213958740234375 106.68800354003906 C 36.458343505859375 108.0863265991211 36.65918731689453 109.13462829589844 30.940839767456055 105.60681915283203" stroke-width="1.0892857313156128" fill="none" stroke="rgb(114, 132, 208)" stroke-opacity="0.6963199" stroke-linecap="round" stroke-linejoin="round"/>
    <path d="M 61.1859130859375 6.8583221435546875 C 65.9235610961914 4.0223917961120605 69.94634246826172 1.2149561643600464 71.68272399902344 -0.5593958497047424 C 74.80547332763672 -1.1968681812286377 75.53520965576172 0.7275528907775879 75.16460418701172 3.9083032608032227 C 75.65441131591797 5.903672695159912 77.40496063232422 4.5574774742126465 78.38380432128906 3.3370485305786133" stroke-width="1.1406192779541016" fill="none" stroke="rgb(205, 173, 110)" stroke-opacity="0.58522373" stroke-linecap="round" stroke-linejoin="round"/>
    <path d="M 100.63365173339844 100.12909698486328 C 104.0933609008789 99.52867889404297 110.9135971069336 103.42344665527344 111.5829086303711 106.54098510742188" stroke-width="1.239885687828064" fill="none" stroke="rgb(252, 72, 76)" stroke-opacity="0.8001493" stroke-linecap="round" stroke-linejoin="round"/>
    <path d="M 24.840614318847656 25.340484619140625 C 19.365264892578125 21.442066192626953 14.267443656921387 17.227434158325195 14.006915092468262 17.400663375854492 C 12.601119995117188 18.872282028198242 17.75296401977539 22.767868041992188 23.87153434753418 25.788606643676758 C 29.857492446899414 28.95277214050293 25.536741256713867 27.832088470458984 21.27666473388672 26.637041091918945" stroke-width="1.1875674724578857" fill="none" stroke="rgb(201, 175, 196)" stroke-opacity="0.45453858" stroke-linecap="round" stroke-linejoin="round"/>
    <path d="M 90.05773162841797 48.92203903198242 C 88.68782806396484 45.87615203857422 85.44792938232422 51.5604362487793 85.048583984375 49.80280303955078" stroke-width="1.1560733318328857" fill="none" stroke="rgb(187, 215, 192)" stroke-opacity="0.77507704" stroke-linecap="round" stroke-linejoin="round"/>
    <path d="M 118.3506088256836 77.2605972290039 C 125.29444885253906 74.12320709228516 129.38232421875 79.2201919555664 133.3149871826172 84.85768127441406" stroke-width="1.160130262374878" fill="none" stroke="rgb(24, 132, 238)" stroke-opacity="0.13084504" stroke-linecap="round" stroke-linejoin="round"/>
    <path d="M 109.05162811279297 110.33604431152344 C 103.92344665527344 112.94758605957031 101.13473510742188 112.83621215820312 107.5630874633789 114.40715789794922 C 106.49649047851562 116.34315490722656 102.9625015258789 111.02397918701172 110.1827621459961 107.04690551757812 C 109.06212615966797 106.65916442871094 106.61322784423828 108.01364135742188 100.61338806152344 108.8191909790039" stroke-width="1.0892857313156128" fill="none" stroke="rgb(172, 18, 137)" stroke-opacity="0.39489788" stroke-linecap="round" stroke-linejoin="round"/>
    <path d="M 59.50871658325195 14.746160507202148 C 58.64000701904297 14.935792922973633 59.3699836730957 9.588244438171387 61.08180236816406 13.267266273498535 C 57.040016174316406 18.12764549255371 55.751102447509766 20.958810806274414 55.64601516723633 20.219696044921875 C 55.528656005859375 14.717695236206055 52.580078125 15.70450210571289 49.85787582397461 12.638782501220703" stroke-width="1.3904194831848145" fill="none" stroke="rgb(238, 176, 7)" stroke-opacity="0.18626875" stroke-linecap="round" stroke-linejoin="round"/>
    <path d="M 2.7630631923675537 97.58900451660156 C 5.249061584472656 90.20845794677734 3.4608805179595947 90.94156646728516 -1.5358842611312866 89.1679458618164" stroke-width="1.3895803689956665" fill="none" stroke="rgb(28, 182, 70)" stroke-opacity="0.11623442" stroke-linecap="round" stroke-linejoin="round"/>
    <path d="M 114.91957092285156 57.52516174316406 C 115.90904998779297 62.66630935668945 110.48136138916016 64.48626708984375 106.60795593261719 65.66243743896484" stroke-width="1.0892857313156128" fill="none" stroke="rgb(159, 3, 94)" stroke-opacity="0.3166607" stroke-linecap="round" stroke-linejoin="round"/>
    <path d="M 76.3083724975586 2.649228572845459 C 73.26103973388672 2.8333518505096436 72.82384490966797 5.599578380584717 77.7114028930664 4.972829341888428" stroke-width="1.3063045740127563" fill="none" stroke="rgb(194, 3, 110)" stroke-opacity="0.15996766" stroke-linecap="round" stroke-linejoin="round"/>
    <path d="M 108.63434600830078 71.09326934814453 C 102.57628631591797 74.51577758789062 103.38263702392578 71.14960479736328 102.4113998413086 76.9469223022461 C 100.4923095703125 82.81108093261719 97.12943267822266 88.57537841796875 99.86274719238281 92.18848419189453 C 104.46160125732422 86.4493179321289 103.04246520996094 88.17159271240234 104.8612289428711 87.62355041503906" stroke-width="1.0892857313156128" fill="none" stroke="rgb(24, 247, 175)" stroke-opacity="0.033828612" stroke-linecap="round" stroke-linejoin="round"/>
    <path d="M 77.7129135131836 33.0804557800293 C 74.09536743164062 35.07850646972656 73.46451568603516 35.810916900634766 76.89299011230469 33.30966567993164 C 77.80724334716797 35.134437561035156 77.5001220703125 37.8812255859375 81.64732360839844 39.320762634277344 C 74.6683578491211 43.717384338378906 80.52017974853516 44.6714973449707 82.47284698486328 40.844566345214844" stroke-width="1.0892857313156128" fill="none" stroke="rgb(87, 20, 89)" stroke-opacity="0.88010097" stroke-linecap="round" stroke-linejoin="round"/>
    <path d="M 132.9220733642578 84.70005798339844 C 137.392333984375 84.61495971679688 138.0141143798828 81.2979965209961 133.3126678466797 82.920166015625 C 129.07028198242188 77.80225372314453 132.89222717285156 73.65838623046875 133.3462371826172 78.82022094726562" stroke-width="1.0892857313156128" fill="none" stroke="rgb(73, 67, 168)" stroke-opacity="0.48379976" stroke-linecap="round" stroke-linejoin="round"/>
    <path d="M 77.92493438720703 4.581355571746826 C 81.01847839355469 0.009384223259985447 86.38179779052734 -2.887751817703247 87.12861633300781 1.7739222049713135 C 87.6492919921875 6.509276866912842 82.40116882324219 4.670124530792236 86.14119720458984 4.24378776550293 C 88.74552154541016 -2.034715175628662 82.7506103515625 4.091181755065918 85.01039123535156 5.715238094329834" stroke-width="1.0892857313156128" fill="none" stroke="rgb(125, 200, 219)" stroke-opacity="0.23904473" stroke-linecap="round" stroke-linejoin="round"/>
    <path d="M 82.55355072021484 40.730506896972656 C 79.62940216064453 41.0172233581543 80.80320739746094 40.95756149291992 78.50148010253906 36.36378860473633 C 81.8742904663086 42.38347244262695 78.19720458984375 43.06540298461914 75.24481964111328 38.88070297241211 C 75.20549011230469 40.14863204956055 79.11972045898438 45.250911712646484 77.74698638916016 41.14540100097656" stroke-width="1.3233739137649536" fill="none" stroke="rgb(225, 214, 170)" stroke-opacity="0.49744463" stroke-linecap="round" stroke-linejoin="round"/>
    <path d="M 82.40265655517578 40.72650146484375 C 76.97882080078125 41.861690521240234 71.6624526977539 42.054054260253906 67.14924621582031 43.891414642333984 C 71.83162689208984 44.6666145324707 69.37981414794922 46.929664611816406 63.184532165527344 43.86825180053711" stroke-width="1.0892857313156128" fill="none" stroke="rgb(101, 90, 143)" stroke-opacity="0.1994213" stroke-linecap="round" stroke-linejoin="round"/>
    <path d="M 106.51033020019531 65.5462875366211 C 104.04216766357422 68.10758209228516 102.64895629882812 70.72029113769531 97.51835632324219 64.93982696533203" stroke-width="1.0892857313156128" fill="none" stroke="rgb(161, 100, 98)" stroke-opacity="0.35468104" stroke-linecap="round" stroke-linejoin="round"/>
    <path d="M 82.27385711669922 40.29347610473633 C 79.84857177734375 38.05858612060547 79.93501281738281 35.91300582885742 78.67562103271484 31.258275985717773 C 74.66962432861328 34.94359588623047 68.76654052734375 36.16863250732422 69.37183380126953 39.44424819946289" stroke-width="1.0892857313156128" fill="none" stroke="rgb(85, 120, 137)" stroke-opacity="0.514393" stroke-linecap="round" stroke-linejoin="round"/>
    <path d="M 76.84026336669922 5.1796369552612305 C 73.57516479492188 -1.6952821016311646 78.6369857788086 1.5376602411270142 74.97937774658203 -1.6426916122436523" stroke-width="1.0892857313156128" fill="none" stroke="rgb(174, 147, 166)" stroke-opacity="0.6483973" stroke-linecap="round" stroke-linejoin="round"/>
    <path d="M 132.9220733642578 84.70005798339844 C 135.07235717773438 87.48524475097656 139.40721130371094 92.08795928955078 133.88682556152344 86.32697296142578 C 131.3479766845703 82.05839538574219 129.30857849121094 76.00853729248047 128.1481475830078 71.19051361083984" stroke-width="1.0892857313156128" fill="none" stroke="rgb(146, 104, 85)" stroke-opacity="0.06448824" stroke-linecap="round" stroke-linejoin="round"/>
    <path d="M 27.787546157836914 5.5590291023254395 C 22.67507553100586 7.542024612426758 22.809255599975586 9.72212028503418 22.88603973388672 5.684816837310791 C 28.6140079498291 5.276394844055176 28.886465072631836 8.477633476257324 34.53303146362305 11.579010963439941" stroke-width="1.1518360376358032" fill="none" stroke="rgb(176, 150, 69)" stroke-opacity="0.2739392" stroke-linecap="round" stroke-linejoin="round"/>
    <path d="M 108.67362213134766 96.05656433105469 C 113.84220886230469 95.62677001953125 112.80809020996094 93.67850494384766 113.83390045166016 91.27913665771484 C 114.54696655273438 91.41741180419922 114.17650604248047 91.21682739257812 115.17528533935547 93.57856750488281" stroke-width="1.0892857313156128" fill="none" stroke="rgb(180, 233, 160)" stroke-opacity="0.8343107" stroke-linecap="round" stroke-linejoin="round"/>
    <path d="M 89.77581024169922 71.87055206298828 C 86.83039093017578 77.26436614990234 91.95580291748047 81.11473083496094 92.63714599609375 78.89599609375" stroke-width="1.1783161163330078" fill="none" stroke="rgb(93, 197, 67)" stroke-opacity="0.68176717" stroke-linecap="round" stroke-linejoin="round"/>
    <path d="M 115.3991470336914 117.90007019042969 C 108.54826354980469 114.51160430908203 112.5291976928711 116.24758911132812 108.14971923828125 117.93682098388672 C 107.27352142333984 119.07176971435547 110.98979187011719 121.99738311767578 114.13248443603516 119.23533630371094" stroke-width="1.273046612739563" fill="none" stroke="rgb(240, 83, 205)" stroke-opacity="0.78288734" stroke-linecap="round" stroke-linejoin="round"/>
    <path d="M 107.8238296508789 86.8637466430664 C 111.19747924804688 87.96144104003906 108.21216583251953 82.50543212890625 103.87385559082031 88.29632568359375 C 97.15657043457031 82.1548080444336 91.93311309814453 78.34925842285156 89.80585479736328 82.71707153320312" stroke-width="1.2678254842758179" fill="none" stroke="rgb(10, 249, 137)" stroke-opacity="0.040810816" stroke-linecap="round" stroke-linejoin="round"/>
    <path d="M 100.70464324951172 119.40206146240234 C 100.12996673583984 116.52166748046875 97.49378967285156 113.38520812988281 98.69818115234375 113.57340240478516" stroke-width="1.0892857313156128" fill="none" stroke="rgb(2, 143, 33)" stroke-opacity="0.7424836" stroke-linecap="round" stroke-linejoin="round"/>
    <path d="M 8.40494155883789 48.52324676513672 C 8.065096855163574 45.728309631347656 12.727762222290039 43.863651275634766 12.53780460357666 43.00033950805664" stroke-width="1.0892857313156128" fill="none" stroke="rgb(113, 196, 57)" stroke-opacity="0.13458574" stroke-linecap="round" stroke-linejoin="round"/>
    <path d="M 67.24614715576172 91.79338836669922 C 64.16441345214844 93.06819152832031 68.18197631835938 94.69197845458984 65.8700180053711 92.93944549560547" stroke-width="1.0914843082427979" fill="none" stroke="rgb(182, 149, 122)" stroke-opacity="0.10579547" stroke-linecap="round" stroke-linejoin="round"/>
    <path d="M 31.91944694519043 25.249420166015625 C 31.422666549682617 26.687292098999023 29.771339416503906 30.023635864257812 34.90626525878906 25.717418670654297 C 36.914791107177734 25.43754005432129 43.515830993652344 30.31834602355957 48.64801025390625 32.43043518066406 C 53.59560012817383 35.182159423828125 57.15999984741211 37.53974151611328 60.84488296508789 36.326194763183594" stroke-width="1.0892857313156128" fill="none" stroke="rgb(33, 184, 83)" stroke-opacity="0.8979952" stroke-linecap="round" stroke-linejoin="round"/>
    <path d="M 61.73927307128906 122.51959228515625 C 63.58882522583008 121.2804946899414 57.931495666503906 120.29972076416016 55.36123275756836 122.71233367919922 C 59.15904998779297 124.21415710449219 64.81937408447266 125.85657501220703 58.87117385864258 126.74876403808594" stroke-width="1.3818268775939941" fill="none" stroke="rgb(167, 146, 145)" stroke-opacity="0.8246527" stroke-linecap="round" stroke-linejoin="round"/>
    <path d="M 86.8502426147461 108.99768829345703 C 82.68971252441406 108.92288208007812 81.60599517822266 102.8053970336914 86.72097778320312 108.77640533447266 C 88.27949523925781 110.37511444091797 86.16192626953125 113.47749328613281 88.16886138916016 113.27161407470703 C 92.4874267578125 113.17040252685547 86.24633026123047 118.04762268066406 80.19387817382812 116.88838958740234" stroke-width="1.100744605064392" fill="none" stroke="rgb(76, 111, 220)" stroke-opacity="0.24354176" stroke-linecap="round" stroke-linejoin="round"/>
    <path d="M 96.4381103515625 110.06167602539062 C 92.67684936523438 108.28328704833984 95.56204986572266 108.67365264892578 95.45317077636719 110.40141296386719 C 93.03104400634766 107.88562774658203 93.89808654785156 102.40935516357422 92.49720001220703 107.6939468383789" stroke-width="1.3134478330612183" fill="none" stroke="rgb(4, 100, 145)" stroke-opacity="0.22235586" stroke-linecap="round" stroke-linejoin="round"/>
    <path d="M 107.79135131835938 46.618534088134766 C 101.9800796508789 43.326229095458984 100.45021057128906 42.697837829589844 103.99373626708984 48.8242073059082 C 105.86113739013672 49.82676315307617 108.06670379638672 50.49009704589844 108.37747192382812 49.801475524902344" stroke-width="1.0892857313156128" fill="none" stroke="rgb(35, 23, 90)" stroke-opacity="0.7839866" stroke-linecap="round" stroke-linejoin="round"/>
    <path d="M 122.28084564208984 12.551068305969238 C 118.2860107421875 13.809904098510742 121.63543701171875 16.223419189453125 125.05006408691406 13.451873779296875 C 120.91964721679688 16.66535758972168 114.2686767578125 20.450624465942383 113.04341888427734 26.459604263305664 C 113.07088470458984 31.802881240844727 113.9580078125 33.009395599365234 113.27264404296875 35.40144729614258" stroke-width="1.0892857313156128" fill="none" stroke="rgb(98, 86, 131)" stroke-opacity="0.7534376" stroke-linecap="round" stroke-linejoin="round"/>
    <path d="M 106.8710708618164 31.343978881835938 C 111.9508056640625 27.91347312927246 106.1239013671875 30.106773376464844 102.04659271240234 31.640579223632812 C 107.67105102539062 28.452159881591797 102.96452331542969 28.42462921142578 105.78501892089844 27.225414276123047 C 109.7190170288086 33.388248443603516 109.58273315429688 35.31820297241211 110.30440521240234 34.31660842895508" stroke-width="1.0923936367034912" fill="none" stroke="rgb(27, 110, 20)" stroke-opacity="0.26287597" stroke-linecap="round" stroke-linejoin="round"/>
    <path d="M 119.92835998535156 5.221608638763428 C 125.13289642333984 7.797917366027832 126.30797576904297 2.762061357498169 120.8498306274414 -2.0225882530212402" stroke-width="1.0892857313156128" fill="none" stroke="rgb(74, 10, 112)" stroke-opacity="0.2857173" stroke-linecap="round" stroke-linejoin="round"/>
  </g>
</svg>
