<?xml version="1.0" ?>
<svg xmlns="http://www.w3.org/2000/svg" version="1.1" width="1104.0" height="1104.0">
  <defs/>
  <g>
    <path d="M 56.93288040161133 33.41377639770508 C 56.30037307739258 33.38694381713867 55.81477737426758 33.519229888916016 55.85700225830078 32.692867279052734 C 56.1930046081543 32.5043830871582 56.310791015625 32.280487060546875 56.873756408691406 32.636436462402344 C 58.2295036315918 31.909835815429688 60.390045166015625 31.720895767211914 61.67020797729492 31.1293888092041 C 66.43408203125 28.355411529541016 69.53790283203125 28.13603401184082 73.10099029541016 26.98821258544922 C 75.3097915649414 26.44096565246582 79.32255554199219 25.656644821166992 80.802978515625 26.4664249420166 C 82.1005630493164 27.675617218017578 80.94590759277344 32.365272521972656 81.26567077636719 34.67139434814453 C 81.38787078857422 35.60512924194336 82.10578155517578 37.324581146240234 82.10770416259766 39.57676315307617 C 81.48296356201172 40.811920166015625 80.25877380371094 42.211727142333984 78.76171875 42.880218505859375 C 75.72575378417969 47.48382568359375 73.46358489990234 52.26812744140625 69.16948699951172 55.30068588256836 C 67.48410034179688 56.22402572631836 66.03981018066406 57.36507797241211 64.8860855102539 58.93015670776367 C 65.05290222167969 59.80165100097656 63.961769104003906 60.48759841918945 63.138668060302734 60.70480728149414 C 62.55643844604492 61.588096618652344 63.44375991821289 63.16722869873047 64.86634826660156 63.64278793334961 C 65.14427947998047 64.33250427246094 65.94987487792969 65.97173309326172 65.30042266845703 68.85155487060547 C 66.77183532714844 72.3113021850586 70.83944702148438 72.75414276123047 76.81745910644531 72.72877502441406" stroke-width="1.4711662530899048" fill="none" stroke="rgb(22, 31, 13)" stroke-opacity="1.0" stroke-linecap="round" stroke-linejoin="round"/>
    <path d="M 56.577327728271484 53.2673225402832 C 55.96598434448242 53.04408645629883 55.729312896728516 53.48747634887695 55.64200973510742 53.72252655029297 C 55.462772369384766 56.57401657104492 55.4049186706543 58.31129837036133 55.99977493286133 59.3104248046875 C 56.82137680053711 64.90199279785156 57.63950729370117 70.78141021728516 57.605716705322266 77.59075164794922" stroke-width="1.470056176185608" fill="none" stroke="rgb(30, 23, 13)" stroke-opacity="1.0" stroke-linecap="round" stroke-linejoin="round"/>
    <path d="M 69.18962097167969 54.2363395690918 C 72.27839660644531 53.8884391784668 75.2609634399414 53.16727066040039 78.48600769042969 53.56319046020508 C 80.04866027832031 54.46797180175781 81.88575744628906 54.21146774291992 82.64451599121094 54.61652755737305 C 85.14308166503906 54.12936782836914 85.8718490600586 54.53116226196289 86.47261810302734 55.14947509765625 C 87.42650604248047 58.01632308959961 88.31095886230469 60.541568756103516 89.39202880859375 62.963314056396484 C 89.38532257080078 66.84930419921875 89.93022918701172 70.86907958984375 90.68485260009766 74.15045928955078 C 91.9343490600586 78.53810119628906 86.53887939453125 83.53225708007812 82.33551025390625 86.67365264892578 C 81.14246368408203 87.9774169921875 79.04337310791016 88.25948333740234 77.89400482177734 89.26189422607422 C 77.74208068847656 91.74874114990234 76.22260284423828 92.1593017578125 74.4036636352539 90.91167449951172 C 72.12223815917969 90.09429931640625 69.88484191894531 88.92147064208984 66.92375183105469 88.8700942993164 C 66.35150909423828 88.42130279541016 65.23033142089844 87.57042694091797 64.11150360107422 87.80878448486328 C 63.77022171020508 86.30998992919922 64.51618957519531 88.39498138427734 64.6246566772461 88.58964538574219" stroke-width="1.5017433166503906" fill="none" stroke="rgb(22, 28, 14)" stroke-opacity="1.0" stroke-linecap="round" stroke-linejoin="round"/>
    <path d="M 55.7695426940918 53.00791931152344 C 57.269474029541016 50.63410186767578 60.934906005859375 49.74079895019531 64.25299835205078 45.735347747802734 C 62.44557571411133 46.279991149902344 57.6010856628418 43.09403610229492 55.17852020263672 37.79203796386719 C 58.36196517944336 39.8950080871582 54.84855270385742 37.76142120361328 59.41484832763672 32.15730285644531" stroke-width="1.2250767946243286" fill="none" stroke="rgb(43, 141, 138)" stroke-opacity="0.9188119" stroke-linecap="round" stroke-linejoin="round"/>
    <path d="M 67.63082885742188 87.89435577392578 C 61.19398498535156 90.49061584472656 57.839046478271484 94.41482543945312 60.455360412597656 95.60126495361328 C 56.96162796020508 91.63622283935547 62.98460006713867 89.18063354492188 58.231998443603516 85.72626495361328" stroke-width="1.4702597856521606" fill="none" stroke="rgb(93, 206, 128)" stroke-opacity="0.6026562" stroke-linecap="round" stroke-linejoin="round"/>
    <path d="M 56.029937744140625 33.123172760009766 C 60.177181243896484 34.44673538208008 61.010047912597656 33.61585235595703 60.12077713012695 28.69582176208496 C 65.3440170288086 30.51177406311035 71.11996459960938 30.319595336914062 73.28446197509766 37.69866943359375 C 77.25860595703125 41.118038177490234 81.61270141601562 42.546485900878906 82.6424560546875 50.335853576660156" stroke-width="1.5289095640182495" fill="none" stroke="rgb(205, 84, 200)" stroke-opacity="0.14561747" stroke-linecap="round" stroke-linejoin="round"/>
    <path d="M 68.92928314208984 52.745487213134766 C 72.19772338867188 59.09755325317383 69.08392333984375 55.663116455078125 63.68019485473633 53.3230094909668" stroke-width="1.1741070747375488" fill="none" stroke="rgb(86, 63, 121)" stroke-opacity="0.74073917" stroke-linecap="round" stroke-linejoin="round"/>
    <path d="M 68.25867462158203 88.2046890258789 C 63.89833068847656 93.9996566772461 65.44146728515625 97.26446533203125 69.01155853271484 94.84082794189453 C 65.63216400146484 92.06930541992188 62.06348419189453 92.37943267822266 67.4522933959961 89.90576171875 C 65.7114486694336 86.82699584960938 60.31071090698242 87.66490936279297 55.848819732666016 86.57366180419922" stroke-width="1.3356562852859497" fill="none" stroke="rgb(30, 181, 37)" stroke-opacity="0.3763461" stroke-linecap="round" stroke-linejoin="round"/>
    <path d="M 74.14747619628906 91.93648529052734 C 72.23356628417969 95.32965850830078 72.04766082763672 95.05474853515625 65.61293029785156 100.00077819824219 C 65.93754577636719 96.0007095336914 69.43856048583984 100.82856750488281 68.97168731689453 96.38292694091797" stroke-width="1.4261085987091064" fill="none" stroke="rgb(107, 221, 245)" stroke-opacity="0.74199533" stroke-linecap="round" stroke-linejoin="round"/>
    <path d="M 80.00562286376953 26.532270431518555 C 77.2072525024414 29.197858810424805 71.83004760742188 23.51436996459961 70.24567413330078 20.241098403930664 C 69.37495422363281 24.03044891357422 67.95536804199219 27.36853790283203 70.19136810302734 24.133554458618164 C 77.72795104980469 18.529117584228516 81.03211212158203 20.79442024230957 80.81443786621094 23.566877365112305" stroke-width="1.2993165254592896" fill="none" stroke="rgb(28, 160, 55)" stroke-opacity="0.77991223" stroke-linecap="round" stroke-linejoin="round"/>
    <path d="M 63.268211364746094 59.71352005004883 C 59.0319938659668 55.38971710205078 57.87900924682617 52.37933349609375 64.58041381835938 53.75117492675781" stroke-width="1.1741070747375488" fill="none" stroke="rgb(131, 243, 149)" stroke-opacity="0.8452886" stroke-linecap="round" stroke-linejoin="round"/>
    <path d="M 57.88402557373047 85.96913146972656 C 55.63083267211914 85.07478332519531 61.029029846191406 81.11878204345703 66.55219268798828 86.71439361572266 C 70.73208618164062 86.04407501220703 67.05943298339844 91.39166259765625 70.41900634765625 92.62615966796875" stroke-width="1.1741070747375488" fill="none" stroke="rgb(239, 135, 83)" stroke-opacity="0.06674789" stroke-linecap="round" stroke-linejoin="round"/>
    <path d="M 63.35172653198242 53.77988052368164 C 59.4049072265625 51.497798919677734 53.03895950317383 50.34505081176758 56.34522247314453 56.3992805480957 C 56.700721740722656 57.087066650390625 62.20927429199219 57.8475456237793 59.211341857910156 58.81624984741211" stroke-width="1.5603106021881104" fill="none" stroke="rgb(135, 223, 96)" stroke-opacity="0.50775915" stroke-linecap="round" stroke-linejoin="round"/>
    <path d="M 63.406681060791016 53.81791687011719 C 56.65526580810547 51.79843521118164 50.24538040161133 52.00177001953125 47.937744140625 57.66029357910156 C 51.33992004394531 50.44516372680664 46.09712219238281 55.853878021240234 38.99530792236328 54.639503479003906 C 38.35707092285156 53.801761627197266 43.51534652709961 49.585472106933594 44.47709274291992 51.377567291259766" stroke-width="1.1741070747375488" fill="none" stroke="rgb(11, 176, 144)" stroke-opacity="0.44604468" stroke-linecap="round" stroke-linejoin="round"/>
    <path d="M 55.9528694152832 85.67196655273438 C 60.59242248535156 86.0601577758789 63.71474075317383 86.43557739257812 58.49667739868164 83.28329467773438 C 60.834598541259766 77.63690948486328 54.069557189941406 82.57154083251953 53.456138610839844 84.16600036621094 C 52.62899398803711 83.52383422851562 49.266273498535156 88.9432373046875 48.454933166503906 85.46722412109375" stroke-width="1.1741070747375488" fill="none" stroke="rgb(65, 148, 10)" stroke-opacity="0.44884473" stroke-linecap="round" stroke-linejoin="round"/>
    <path d="M 64.31153869628906 54.931243896484375 C 65.77787017822266 60.355926513671875 72.81678771972656 55.9265022277832 75.65966033935547 63.45874786376953 C 69.81675720214844 67.55397033691406 73.2478256225586 62.24441146850586 68.9770278930664 60.828250885009766" stroke-width="1.1741070747375488" fill="none" stroke="rgb(65, 234, 94)" stroke-opacity="0.1598214" stroke-linecap="round" stroke-linejoin="round"/>
    <path d="M 59.04853057861328 32.1796989440918 C 58.63709259033203 32.68592071533203 58.82569122314453 35.525543212890625 58.20686721801758 34.09712600708008" stroke-width="1.1741070747375488" fill="none" stroke="rgb(59, 184, 184)" stroke-opacity="0.35286078" stroke-linecap="round" stroke-linejoin="round"/>
    <path d="M 64.7723388671875 55.71276092529297 C 70.50384521484375 55.507102966308594 73.14952087402344 52.69179916381836 68.46214294433594 51.706478118896484" stroke-width="1.1741070747375488" fill="none" stroke="rgb(205, 43, 242)" stroke-opacity="0.47356302" stroke-linecap="round" stroke-linejoin="round"/>
    <path d="M 58.90181350708008 31.881847381591797 C 56.46341323852539 37.96297836303711 60.08720779418945 33.54454040527344 65.80555725097656 39.27183151245117 C 69.4519271850586 35.93069076538086 76.21482849121094 35.858028411865234 78.94453430175781 34.9161376953125" stroke-width="1.6110548973083496" fill="none" stroke="rgb(85, 79, 193)" stroke-opacity="0.94534665" stroke-linecap="round" stroke-linejoin="round"/>
    <path d="M 101.67584228515625 124.12694549560547 C 106.20584106445312 119.46971893310547 101.43025207519531 124.16413116455078 99.66616821289062 129.3395538330078 C 102.69696044921875 123.95845031738281 100.6747055053711 121.0771484375 104.2069091796875 115.79747009277344 C 103.11421203613281 110.0456771850586 100.75137329101562 110.67572784423828 103.75517272949219 105.10347747802734" stroke-width="1.1788784265518188" fill="none" stroke="rgb(231, 248, 62)" stroke-opacity="0.8294054" stroke-linecap="round" stroke-linejoin="round"/>
    <path d="M 35.195926666259766 32.842742919921875 C 30.13766860961914 32.72208786010742 25.363298416137695 28.531688690185547 31.06654930114746 29.65929412841797 C 36.56974792480469 25.858009338378906 41.928550720214844 28.252582550048828 43.68110656738281 25.984962463378906" stroke-width="1.1741070747375488" fill="none" stroke="rgb(54, 122, 25)" stroke-opacity="0.6870273" stroke-linecap="round" stroke-linejoin="round"/>
    <path d="M 64.91453552246094 88.071533203125 C 68.05367279052734 83.84813690185547 72.99115753173828 86.08086395263672 72.44478607177734 87.1145248413086 C 69.13377380371094 92.47711944580078 65.18867492675781 97.82413482666016 64.46356964111328 98.33744812011719" stroke-width="1.1741070747375488" fill="none" stroke="rgb(45, 46, 192)" stroke-opacity="0.04815089" stroke-linecap="round" stroke-linejoin="round"/>
    <path d="M 70.4900131225586 60.85734176635742 C 67.5416259765625 62.05774688720703 59.93975830078125 61.79103469848633 61.32632827758789 61.79811096191406" stroke-width="1.1741070747375488" fill="none" stroke="rgb(43, 103, 172)" stroke-opacity="0.10680535" stroke-linecap="round" stroke-linejoin="round"/>
    <path d="M 83.76758575439453 30.588512420654297 C 84.81527709960938 29.301448822021484 85.11784362792969 35.71668243408203 84.43321990966797 37.8901252746582 C 82.98553466796875 39.91999816894531 83.63044738769531 34.078025817871094 87.18810272216797 35.495540618896484" stroke-width="1.1741070747375488" fill="none" stroke="rgb(45, 134, 201)" stroke-opacity="0.93122077" stroke-linecap="round" stroke-linejoin="round"/>
    <path d="M 45.23527526855469 17.44438362121582 C 51.513668060302734 13.097001075744629 56.41556930541992 8.318380355834961 53.58351135253906 14.0293550491333 C 56.81230163574219 11.745054244995117 63.183860778808594 6.091972827911377 65.77515411376953 2.86478590965271" stroke-width="1.4289793968200684" fill="none" stroke="rgb(63, 184, 27)" stroke-opacity="0.16952786" stroke-linecap="round" stroke-linejoin="round"/>
    <path d="M 0.75407874584198 62.0107536315918 C 7.669076919555664 59.93281936645508 4.729353427886963 59.88206481933594 4.394251346588135 67.89642333984375" stroke-width="1.1741070747375488" fill="none" stroke="rgb(204, 49, 75)" stroke-opacity="0.40374854" stroke-linecap="round" stroke-linejoin="round"/>
    <path d="M 97.47450256347656 55.69420623779297 C 92.95516204833984 53.20756912231445 97.66402435302734 48.52774429321289 101.67640686035156 47.73119354248047 C 102.78681182861328 46.0976448059082 109.14867401123047 39.82744598388672 107.51856994628906 39.762779235839844 C 107.10202026367188 43.733116149902344 107.841552734375 43.700138092041016 101.36914825439453 45.33699417114258" stroke-width="1.1741070747375488" fill="none" stroke="rgb(26, 218, 215)" stroke-opacity="0.97166675" stroke-linecap="round" stroke-linejoin="round"/>
    <path d="M 16.33119773864746 60.34454345703125 C 16.349851608276367 65.18826293945312 18.618247985839844 62.89609146118164 14.21976375579834 59.30305099487305 C 11.150252342224121 56.798397064208984 14.427151679992676 60.42435836791992 15.817737579345703 60.36259841918945 C 15.741922378540039 60.9432487487793 18.4949951171875 57.044124603271484 23.910850524902344 51.02165603637695" stroke-width="1.1741070747375488" fill="none" stroke="rgb(100, 200, 42)" stroke-opacity="0.25958955" stroke-linecap="round" stroke-linejoin="round"/>
    <path d="M 91.06593322753906 64.51648712158203 C 95.84115600585938 67.51624298095703 93.09233856201172 64.04295349121094 89.52172088623047 57.648433685302734" stroke-width="1.1741070747375488" fill="none" stroke="rgb(28, 78, 7)" stroke-opacity="0.20788108" stroke-linecap="round" stroke-linejoin="round"/>
    <path d="M 46.73615264892578 31.75926399230957 C 50.95559310913086 39.18999099731445 50.147640228271484 43.422271728515625 57.931758880615234 40.18634796142578" stroke-width="1.5211448669433594" fill="none" stroke="rgb(112, 87, 183)" stroke-opacity="0.29827186" stroke-linecap="round" stroke-linejoin="round"/>
    <path d="M 116.0302505493164 67.0354995727539 C 111.02181243896484 63.51521682739258 113.9166030883789 63.962799072265625 120.08455657958984 62.96144485473633" stroke-width="1.333163857460022" fill="none" stroke="rgb(67, 22, 175)" stroke-opacity="0.848252" stroke-linecap="round" stroke-linejoin="round"/>
    <path d="M 131.66412353515625 97.84282684326172 C 137.1674041748047 101.64664459228516 132.83631896972656 102.3426742553711 133.2701873779297 97.99385833740234 C 136.39695739746094 101.51911163330078 131.88075256347656 101.59416198730469 131.34609985351562 103.62235260009766 C 125.0049819946289 98.03966522216797 128.02493286132812 99.88195037841797 133.96119689941406 99.37662506103516" stroke-width="1.1741070747375488" fill="none" stroke="rgb(11, 64, 180)" stroke-opacity="0.8660072" stroke-linecap="round" stroke-linejoin="round"/>
    <path d="M 127.57420349121094 67.55220794677734 C 122.72924041748047 59.58155822753906 126.97460174560547 62.20452117919922 125.628662109375 59.586795806884766 C 124.12334442138672 57.68608474731445 126.14198303222656 51.30593490600586 123.67723083496094 54.309776306152344 C 121.57546997070312 58.698211669921875 126.74916076660156 65.16383361816406 132.25917053222656 65.12103271484375" stroke-width="1.1741070747375488" fill="none" stroke="rgb(209, 104, 15)" stroke-opacity="0.39893457" stroke-linecap="round" stroke-linejoin="round"/>
    <path d="M 127.34986877441406 41.388999938964844 C 129.8036346435547 42.91361999511719 129.9183349609375 37.7235107421875 130.45530700683594 44.261497497558594 C 125.58018493652344 45.10869598388672 125.50444030761719 51.24772644042969 119.88591766357422 45.481040954589844" stroke-width="1.370052456855774" fill="none" stroke="rgb(106, 34, 236)" stroke-opacity="0.9924433" stroke-linecap="round" stroke-linejoin="round"/>
    <path d="M 75.93535614013672 7.402763843536377 C 76.68637084960938 5.96420955657959 74.84297180175781 0.13117627799510956 70.5886001586914 2.822784900665283" stroke-width="1.5329020023345947" fill="none" stroke="rgb(255, 99, 249)" stroke-opacity="0.76645947" stroke-linecap="round" stroke-linejoin="round"/>
  </g>
</svg>
