<?xml version="1.0" ?>
<svg xmlns="http://www.w3.org/2000/svg" version="1.1" width="1555.99219" height="1555.99219">
  <defs/>
  <g>
    <path d="M 1084.013916015625 903.34912109375 C 1099.9710693359375 959.0476684570312 1043.197265625 932.420166015625 1060.269775390625 924.8103637695312 C 1060.3033447265625 894.6744995117188 1036.83447265625 886.2252197265625 1028.72216796875 862.1453247070312 C 1017.52685546875 823.3156127929688 960.4920654296875 784.311767578125 848.7804565429688 823.8577270507812 C 833.439453125 789.4046630859375 852.7120361328125 824.8831787109375 875.5117797851562 853.4010009765625 C 902.4635620117188 832.7366333007812 897.6566162109375 880.3313598632812 914.5438232421875 905.181640625 C 918.56884765625 946.9947509765625 893.5488891601562 971.453369140625 879.1373901367188 1019.4660034179688 C 843.1514892578125 1045.434326171875 868.9628295898438 1038.648681640625 903.999267578125 1075.0894775390625 C 851.648681640625 1121.684326171875 805.7166748046875 1079.3642578125 802.4235229492188 1027.2027587890625 C 782.0864868164062 1032.965576171875 691.935546875 1041.427978515625 616.8330688476562 1028.24658203125 C 584.143798828125 1094.28515625 540.96826171875 1056.844970703125 560.91357421875 968.4111328125" stroke-width="17.95981216430664" fill="none" stroke="rgb(22, 14, 13)" stroke-opacity="0.9101442" stroke-linecap="round" stroke-linejoin="round"/>
    <path d="M 956.6372680664062 648.7661743164062 C 957.0534057617188 676.8847045898438 961.9972534179688 706.6652221679688 963.93017578125 683.1010131835938 C 959.9603881835938 647.7391967773438 964.6828002929688 630.9774780273438 961.2986450195312 614.5928955078125 C 954.4541625976562 637.9739990234375 952.3101196289062 636.33984375 974.061767578125 630.5072021484375 C 929.5030517578125 636.1552124023438 918.2360229492188 630.6936645507812 934.3635864257812 630.6610107421875 C 914.0201416015625 633.2633056640625 893.0130615234375 633.2993774414062 880.893310546875 635.69677734375 C 897.4625854492188 623.7594604492188 892.7343139648438 629.9814453125 893.2145385742188 644.7943115234375 C 867.8353881835938 641.8157348632812 844.7102661132812 619.779296875 873.8123168945312 636.5018310546875 C 869.9696655273438 655.9412841796875 858.9420166015625 662.684814453125 847.9494018554688 694.1943969726562 C 825.2797241210938 687.6788940429688 829.3377075195312 716.2470703125 829.2622680664062 729.9197387695312 C 808.2926025390625 729.8392333984375 799.8646240234375 738.139404296875 797.7274169921875 761.10498046875 C 775.8277587890625 742.527099609375 757.083251953125 738.9561157226562 776.7434692382812 759.2509765625 C 769.2881469726562 769.651611328125 723.9697875976562 773.5848999023438 694.3561401367188 763.12890625 C 680.9335327148438 768.9359741210938 660.96923828125 778.3360595703125 662.364013671875 762.6497192382812 C 650.5465087890625 762.3905029296875 618.8992919921875 772.7787475585938 591.3596801757812 761.041015625 C 627.8013305664062 672.9603271484375 655.4025268554688 679.233154296875 645.1361083984375 689.6818237304688 C 641.2259521484375 720.3558349609375 616.8401489257812 727.2434692382812 576.6229858398438 713.50390625 C 568.8270874023438 714.7958984375 538.0977783203125 711.816162109375 500.9883728027344 702.0187377929688 C 527.196533203125 717.260009765625 527.9458618164062 720.843505859375 555.1194458007812 761.6337280273438 C 523.9024658203125 756.6141967773438 506.3935852050781 753.111083984375 482.0211486816406 750.581298828125" stroke-width="18.444293975830078" fill="none" stroke="rgb(14, 10, 33)" stroke-opacity="0.7990987" stroke-linecap="round" stroke-linejoin="round"/>
    <path d="M 558.7092895507812 712.4847412109375 C 533.6547241210938 674.8399658203125 572.8209228515625 696.8992919921875 576.7054443359375 830.0855712890625" stroke-width="33.91379928588867" fill="none" stroke="rgb(0, 178, 182)" stroke-opacity="0.51791465" stroke-linecap="round" stroke-linejoin="round"/>
    <path d="M 823.4320068359375 712.25927734375 C 768.09375 629.7791748046875 725.0294189453125 658.0062866210938 704.96435546875 637.7783813476562 C 675.5910034179688 657.5393676757812 699.3358764648438 673.5777587890625 713.146484375 753.9638061523438 C 712.7750244140625 747.142822265625 741.098388671875 696.1262817382812 725.0789184570312 652.4549560546875" stroke-width="21.825767517089844" fill="none" stroke="rgb(162, 0, 113)" stroke-opacity="0.77923125" stroke-linecap="round" stroke-linejoin="round"/>
    <path d="M 852.5870971679688 1102.4404296875 C 855.0175170898438 1096.4862060546875 804.4536743164062 1103.6060791015625 761.2557373046875 1046.3450927734375 C 709.6539916992188 1004.1024780273438 655.5944213867188 1058.026611328125 675.2557983398438 1066.7398681640625" stroke-width="13.975430488586426" fill="none" stroke="rgb(131, 231, 78)" stroke-opacity="0.0" stroke-linecap="round" stroke-linejoin="round"/>
    <path d="M 546.13818359375 736.0210571289062 C 483.4488830566406 776.1163330078125 556.975341796875 711.6043090820312 530.3223876953125 797.982177734375 C 466.2156677246094 796.8787231445312 512.9861450195312 746.7275390625 466.3901672363281 717.8668212890625" stroke-width="15.489273071289062" fill="none" stroke="rgb(104, 47, 175)" stroke-opacity="0.9999321" stroke-linecap="round" stroke-linejoin="round"/>
    <path d="M 941.0382080078125 622.977294921875 C 954.7261962890625 606.6299438476562 1005.3011474609375 620.232666015625 991.948486328125 631.1764526367188 C 1006.039306640625 688.3287963867188 956.4478759765625 614.7535400390625 951.701904296875 594.6723022460938 C 933.9390869140625 676.4344482421875 926.0447998046875 608.51123046875 943.5390014648438 601.7734985351562" stroke-width="25.87270736694336" fill="none" stroke="rgb(255, 105, 255)" stroke-opacity="0.48894915" stroke-linecap="round" stroke-linejoin="round"/>
    <path d="M 937.3580322265625 660.0582885742188 C 948.478759765625 615.8181762695312 987.9775390625 624.4491577148438 1038.0885009765625 610.0255126953125" stroke-width="13.892786979675293" fill="none" stroke="rgb(236, 135, 138)" stroke-opacity="0.0" stroke-linecap="round" stroke-linejoin="round"/>
    <path d="M 780.5486450195312 743.0896606445312 C 795.1264038085938 775.0520629882812 759.4429321289062 858.0885009765625 800.769287109375 823.1174926757812" stroke-width="13.892786979675293" fill="none" stroke="rgb(189, 122, 228)" stroke-opacity="0.12957028" stroke-linecap="round" stroke-linejoin="round"/>
    <path d="M 945.6939697265625 634.3133544921875 C 928.76904296875 609.3350219726562 898.8543701171875 671.4857177734375 989.3489990234375 703.5919189453125 C 945.1904296875 717.1152954101562 957.0234375 766.2760620117188 879.3211669921875 768.3052368164062" stroke-width="19.459209442138672" fill="none" stroke="rgb(117, 234, 17)" stroke-opacity="0.26212332" stroke-linecap="round" stroke-linejoin="round"/>
    <path d="M 577.6820068359375 720.2449951171875 C 648.0151977539062 631.3649291992188 686.0819702148438 706.81103515625 631.6253051757812 719.991455078125" stroke-width="14.40870189666748" fill="none" stroke="rgb(223, 200, 137)" stroke-opacity="0.25560835" stroke-linecap="round" stroke-linejoin="round"/>
    <path d="M 909.8152465820312 982.0662841796875 C 751.853271484375 998.798095703125 682.4484252929688 1029.4403076171875 680.8536376953125 942.8975219726562" stroke-width="13.892786979675293" fill="none" stroke="rgb(92, 119, 117)" stroke-opacity="0.0" stroke-linecap="round" stroke-linejoin="round"/>
    <path d="M 875.17431640625 645.4641723632812 C 908.5596923828125 634.0888061523438 908.859619140625 633.454345703125 900.9257202148438 712.754150390625 C 841.5254516601562 729.7276611328125 804.8209838867188 764.7192993164062 773.2312622070312 836.8209228515625 C 653.0642700195312 822.9658203125 657.6506958007812 861.1544189453125 666.281494140625 779.7915649414062" stroke-width="16.599836349487305" fill="none" stroke="rgb(111, 224, 245)" stroke-opacity="0.8943935" stroke-linecap="round" stroke-linejoin="round"/>
    <path d="M 780.4633178710938 739.34814453125 C 828.17236328125 764.6455688476562 740.5255737304688 826.1879272460938 824.3545532226562 813.3272705078125 C 770.2775268554688 755.244873046875 828.2111206054688 839.3739624023438 766.7977294921875 900.7776489257812 C 765.7418212890625 823.3676147460938 787.0386962890625 818.311767578125 789.6282348632812 783.4405517578125" stroke-width="13.892786979675293" fill="none" stroke="rgb(220, 60, 241)" stroke-opacity="0.7577772" stroke-linecap="round" stroke-linejoin="round"/>
    <path d="M 817.8784790039062 755.4417724609375 C 883.10009765625 694.4071655273438 927.93505859375 681.67919921875 922.6261596679688 790.6367797851562" stroke-width="13.892786979675293" fill="none" stroke="rgb(148, 208, 2)" stroke-opacity="0.652948" stroke-linecap="round" stroke-linejoin="round"/>
    <path d="M 777.8461303710938 765.1187133789062 C 837.940185546875 745.5189819335938 916.9075927734375 710.6857299804688 908.5821533203125 707.3018798828125 C 924.6763916015625 649.6784057617188 975.9320068359375 570.2034912109375 1014.896728515625 504.76751708984375" stroke-width="13.892786979675293" fill="none" stroke="rgb(46, 111, 127)" stroke-opacity="0.47245097" stroke-linecap="round" stroke-linejoin="round"/>
    <path d="M 848.9521484375 757.9930419921875 C 873.806640625 850.9765625 934.5613403320312 795.4929809570312 888.3705444335938 815.7459106445312 C 881.1909790039062 814.0496826171875 877.7969970703125 768.2118530273438 979.3633422851562 781.8071899414062 C 897.4713745117188 827.2454223632812 849.5864868164062 847.5099487304688 866.1542358398438 759.8343505859375" stroke-width="15.771807670593262" fill="none" stroke="rgb(3, 255, 55)" stroke-opacity="0.5312541" stroke-linecap="round" stroke-linejoin="round"/>
    <path d="M 798.3713989257812 762.92578125 C 772.1475830078125 860.15380859375 748.9827880859375 954.468017578125 791.276611328125 890.451171875 C 798.689453125 826.8973388671875 836.41845703125 807.2313842773438 849.0076293945312 819.9801635742188 C 895.344482421875 909.7037353515625 864.1701049804688 877.3342895507812 885.1483154296875 829.8980102539062" stroke-width="21.944232940673828" fill="none" stroke="rgb(184, 255, 131)" stroke-opacity="0.741133" stroke-linecap="round" stroke-linejoin="round"/>
    <path d="M 446.7351989746094 726.9434814453125 C 435.66595458984375 702.2322387695312 363.01068115234375 736.7075805664062 409.08734130859375 736.3680419921875" stroke-width="13.892786979675293" fill="none" stroke="rgb(90, 241, 182)" stroke-opacity="0.20598327" stroke-linecap="round" stroke-linejoin="round"/>
    <path d="M 824.0369873046875 847.7872314453125 C 752.7757568359375 901.4058227539062 725.0856323242188 845.4923706054688 693.7032470703125 855.2652587890625 C 773.7153930664062 886.9020385742188 777.4859008789062 882.353271484375 734.2881469726562 778.3010864257812" stroke-width="23.833383560180664" fill="none" stroke="rgb(172, 224, 90)" stroke-opacity="0.25473204" stroke-linecap="round" stroke-linejoin="round"/>
    <path d="M 785.284423828125 793.6744384765625 C 831.7901000976562 865.6026611328125 801.9119873046875 820.0405883789062 807.3324584960938 779.488037109375 C 823.605224609375 741.0467529296875 779.2383422851562 691.2308959960938 742.2987060546875 691.9141845703125 C 788.91259765625 667.21630859375 835.90087890625 749.4684448242188 767.79150390625 792.6033325195312" stroke-width="23.98824691772461" fill="none" stroke="rgb(246, 148, 255)" stroke-opacity="0.3033263" stroke-linecap="round" stroke-linejoin="round"/>
    <path d="M 556.8701171875 764.7962646484375 C 587.5907592773438 741.7388916015625 682.453369140625 760.91259765625 697.6569213867188 682.2085571289062 C 603.363525390625 671.7233276367188 692.6505737304688 717.9508056640625 636.4927978515625 696.8589477539062 C 650.272216796875 657.7152709960938 681.9725952148438 637.6484985351562 700.95849609375 661.5614624023438" stroke-width="19.160518646240234" fill="none" stroke="rgb(145, 14, 139)" stroke-opacity="0.36405084" stroke-linecap="round" stroke-linejoin="round"/>
    <path d="M 739.04638671875 670.7316284179688 C 704.0440673828125 621.8093872070312 675.401123046875 616.6520385742188 684.779296875 525.9819946289062 C 706.3585815429688 556.4635009765625 666.234130859375 561.2592163085938 575.4965209960938 581.8052368164062" stroke-width="13.892786979675293" fill="none" stroke="rgb(197, 165, 127)" stroke-opacity="0.3800677" stroke-linecap="round" stroke-linejoin="round"/>
    <path d="M 466.9210510253906 727.0147705078125 C 509.0166931152344 679.7836303710938 434.8474426269531 676.6422119140625 430.0668029785156 727.5950317382812 C 461.0925598144531 664.3863525390625 485.9008483886719 644.73291015625 556.6172485351562 587.4187622070312 C 560.786865234375 559.8671264648438 576.7311401367188 594.7802734375 543.9848022460938 560.33251953125" stroke-width="15.429683685302734" fill="none" stroke="rgb(159, 228, 7)" stroke-opacity="0.774633" stroke-linecap="round" stroke-linejoin="round"/>
    <path d="M 1012.6514892578125 608.2279052734375 C 1010.1322021484375 552.4676513671875 1047.3253173828125 535.7916259765625 1122.0289306640625 539.677734375 C 1136.85888671875 535.3861083984375 1138.0023193359375 520.7586669921875 1209.8673095703125 555.3624267578125" stroke-width="13.892786979675293" fill="none" stroke="rgb(51, 226, 169)" stroke-opacity="0.5582523" stroke-linecap="round" stroke-linejoin="round"/>
    <path d="M 1011.16259765625 550.2510986328125 C 995.0941772460938 657.1006469726562 986.2467651367188 683.2998046875 967.6585083007812 674.3709106445312 C 989.662353515625 714.646240234375 1015.4467163085938 755.675048828125 968.0831909179688 692.5485229492188" stroke-width="18.383419036865234" fill="none" stroke="rgb(132, 56, 57)" stroke-opacity="0.38847798" stroke-linecap="round" stroke-linejoin="round"/>
    <path d="M 900.7828369140625 790.1890869140625 C 956.1594848632812 716.2732543945312 958.5578002929688 758.2325439453125 973.9077758789062 679.9964599609375" stroke-width="15.13683795928955" fill="none" stroke="rgb(217, 149, 9)" stroke-opacity="0.999916" stroke-linecap="round" stroke-linejoin="round"/>
    <path d="M 770.0603637695312 354.0125427246094 C 822.9730224609375 333.6002502441406 852.8230590820312 373.3406677246094 763.4658813476562 347.84185791015625 C 760.9923095703125 427.5615234375 764.92724609375 339.8725280761719 804.8609619140625 273.337890625 C 802.1448974609375 295.12957763671875 812.984130859375 288.3921203613281 889.5744018554688 206.8321533203125" stroke-width="20.429901123046875" fill="none" stroke="rgb(49, 211, 33)" stroke-opacity="0.6414057" stroke-linecap="round" stroke-linejoin="round"/>
    <path d="M 725.382568359375 67.44377899169922 C 672.541015625 134.06655883789062 623.6542358398438 45.258785247802734 621.6822509765625 23.184141159057617 C 610.513916015625 141.80445861816406 652.6653442382812 192.07904052734375 762.0245971679688 125.1055908203125" stroke-width="13.892786979675293" fill="none" stroke="rgb(179, 108, 251)" stroke-opacity="0.80077446" stroke-linecap="round" stroke-linejoin="round"/>
    <path d="M 275.3274230957031 389.0103759765625 C 317.4020690917969 416.5537109375 357.93121337890625 446.0207214355469 373.14239501953125 426.38116455078125" stroke-width="17.896530151367188" fill="none" stroke="rgb(33, 254, 123)" stroke-opacity="0.3870886" stroke-linecap="round" stroke-linejoin="round"/>
    <path d="M 467.99566650390625 743.0242919921875 C 481.8537902832031 805.581298828125 529.4398193359375 858.2501220703125 625.2489624023438 894.0562744140625 C 614.0827026367188 810.1561279296875 648.32177734375 869.7586059570312 619.8661499023438 825.8711547851562" stroke-width="16.627288818359375" fill="none" stroke="rgb(155, 189, 0)" stroke-opacity="0.68684256" stroke-linecap="round" stroke-linejoin="round"/>
    <path d="M 141.24432373046875 933.1870727539062 C 198.13624572753906 960.2743530273438 204.2449493408203 927.5292358398438 256.8310852050781 909.2296752929688" stroke-width="13.892786979675293" fill="none" stroke="rgb(40, 18, 255)" stroke-opacity="0.32517433" stroke-linecap="round" stroke-linejoin="round"/>
    <path d="M 1342.8466796875 1104.260986328125 C 1399.578125 1027.13427734375 1361.0682373046875 1003.5535278320312 1351.832275390625 1006.204345703125 C 1297.108642578125 1061.428955078125 1222.6185302734375 1072.246337890625 1157.585693359375 1044.413330078125 C 1229.7860107421875 1045.40478515625 1292.18994140625 998.095947265625 1305.7877197265625 924.1314086914062" stroke-width="18.25489616394043" fill="none" stroke="rgb(255, 120, 142)" stroke-opacity="0.15488662" stroke-linecap="round" stroke-linejoin="round"/>
    <path d="M 1281.518798828125 1095.0926513671875 C 1388.974853515625 1087.3212890625 1346.4508056640625 1086.614013671875 1404.95361328125 1076.17919921875" stroke-width="13.892786979675293" fill="none" stroke="rgb(112, 157, 65)" stroke-opacity="0.7043721" stroke-linecap="round" stroke-linejoin="round"/>
    <path d="M 517.3020629882812 452.42669677734375 C 559.6141967773438 518.8296508789062 624.7031860351562 475.7323913574219 624.0936279296875 452.79693603515625 C 627.1990966796875 536.303955078125 577.4408569335938 583.537353515625 622.9203491210938 523.1395263671875" stroke-width="25.883708953857422" fill="none" stroke="rgb(255, 111, 32)" stroke-opacity="0.6550312" stroke-linecap="round" stroke-linejoin="round"/>
    <path d="M 1472.29736328125 1040.3558349609375 C 1382.92333984375 958.3687133789062 1393.1370849609375 961.4064331054688 1459.4910888671875 990.2315063476562" stroke-width="13.892786979675293" fill="none" stroke="rgb(166, 52, 208)" stroke-opacity="0.23253787" stroke-linecap="round" stroke-linejoin="round"/>
    <path d="M 1550.552978515625 1515.3802490234375 C 1521.86865234375 1394.4190673828125 1544.2178955078125 1336.239013671875 1536.15234375 1379.10009765625" stroke-width="21.775924682617188" fill="none" stroke="rgb(227, 217, 119)" stroke-opacity="0.39245918" stroke-linecap="round" stroke-linejoin="round"/>
    <path d="M 739.6346435546875 316.6049499511719 C 690.2890625 298.83941650390625 711.3775634765625 365.1908874511719 713.84228515625 363.62255859375 C 718.1077880859375 322.325439453125 753.5254516601562 299.7337951660156 686.4780883789062 353.78839111328125 C 723.7032470703125 287.6762390136719 804.2305297851562 263.225341796875 824.3487548828125 336.88275146484375" stroke-width="20.835119247436523" fill="none" stroke="rgb(135, 190, 161)" stroke-opacity="0.47403803" stroke-linecap="round" stroke-linejoin="round"/>
    <path d="M 1228.868408203125 528.7559814453125 C 1263.9466552734375 540.8731079101562 1299.4205322265625 611.27294921875 1267.6846923828125 530.0364379882812 C 1302.57275390625 584.10595703125 1364.5369873046875 651.9243774414062 1375.455078125 654.8159790039062" stroke-width="13.892786979675293" fill="none" stroke="rgb(221, 216, 92)" stroke-opacity="0.82980293" stroke-linecap="round" stroke-linejoin="round"/>
    <path d="M 1238.0999755859375 1337.612060546875 C 1340.48291015625 1340.9066162109375 1325.209228515625 1295.9561767578125 1397.51904296875 1355.645751953125 C 1357.6993408203125 1298.7239990234375 1328.3555908203125 1353.7926025390625 1329.3726806640625 1317.360595703125" stroke-width="15.004912376403809" fill="none" stroke="rgb(172, 239, 101)" stroke-opacity="0.595058" stroke-linecap="round" stroke-linejoin="round"/>
    <path d="M 943.5151977539062 377.7146911621094 C 974.2122802734375 272.624267578125 989.8328857421875 188.238037109375 1000.595458984375 192.88955688476562" stroke-width="13.892786979675293" fill="none" stroke="rgb(253, 72, 74)" stroke-opacity="0.6537521" stroke-linecap="round" stroke-linejoin="round"/>
    <path d="M 706.6868286132812 252.94692993164062 C 586.7626342773438 289.0391845703125 643.5203247070312 304.76678466796875 634.7258911132812 302.014404296875 C 575.6682739257812 282.6194763183594 561.2612915039062 337.5112609863281 473.0910949707031 329.6968688964844" stroke-width="13.892786979675293" fill="none" stroke="rgb(34, 19, 121)" stroke-opacity="0.57190603" stroke-linecap="round" stroke-linejoin="round"/>
    <path d="M 537.6734619140625 1370.952880859375 C 501.8387145996094 1326.597412109375 490.6844177246094 1392.4000244140625 539.8211059570312 1354.8736572265625 C 576.6437377929688 1306.1717529296875 570.7677612304688 1261.19677734375 531.9757690429688 1329.581298828125" stroke-width="25.44059944152832" fill="none" stroke="rgb(71, 226, 123)" stroke-opacity="0.2694768" stroke-linecap="round" stroke-linejoin="round"/>
    <path d="M 1392.7235107421875 1257.7843017578125 C 1403.4298095703125 1285.5501708984375 1452.015380859375 1344.7772216796875 1432.2987060546875 1358.1759033203125 C 1342.5633544921875 1350.6710205078125 1306.7572021484375 1435.458740234375 1316.9554443359375 1469.124267578125 C 1267.349609375 1394.2857666015625 1206.099853515625 1358.7655029296875 1117.4222412109375 1389.7388916015625" stroke-width="13.892786979675293" fill="none" stroke="rgb(255, 146, 147)" stroke-opacity="0.312052" stroke-linecap="round" stroke-linejoin="round"/>
    <path d="M 245.44725036621094 741.6926879882812 C 281.21881103515625 771.4884643554688 227.1424102783203 832.632080078125 151.30276489257812 781.304443359375" stroke-width="15.334150314331055" fill="none" stroke="rgb(158, 55, 223)" stroke-opacity="0.05902932" stroke-linecap="round" stroke-linejoin="round"/>
    <path d="M 1298.2467041015625 32.99232482910156 C 1364.766845703125 -29.16696548461914 1341.672607421875 -13.850998878479004 1400.372802734375 49.262908935546875 C 1414.1629638671875 -42.6302604675293 1428.77490234375 69.69998931884766 1480.2197265625 35.11335372924805 C 1510.371826171875 34.911949157714844 1518.3553466796875 89.1264877319336 1533.8017578125 112.8892822265625" stroke-width="30.627412796020508" fill="none" stroke="rgb(235, 108, 0)" stroke-opacity="0.7408537" stroke-linecap="round" stroke-linejoin="round"/>
    <path d="M 335.3044738769531 461.6193542480469 C 313.45294189453125 386.5957946777344 295.0130920410156 376.0087890625 320.2265625 492.70025634765625 C 362.3184814453125 510.8564758300781 336.67950439453125 597.5418701171875 359.491455078125 671.4761962890625" stroke-width="18.62482261657715" fill="none" stroke="rgb(10, 165, 143)" stroke-opacity="0.39081985" stroke-linecap="round" stroke-linejoin="round"/>
    <path d="M 210.89300537109375 757.7130737304688 C 273.7569274902344 823.55126953125 243.58145141601562 843.41943359375 263.73358154296875 800.19140625 C 269.7247314453125 720.4638061523438 228.46604919433594 761.2340087890625 263.61871337890625 758.3453369140625 C 235.71441650390625 713.8602294921875 255.95855712890625 690.294921875 214.734130859375 662.8436279296875" stroke-width="20.128620147705078" fill="none" stroke="rgb(169, 190, 23)" stroke-opacity="0.22407873" stroke-linecap="round" stroke-linejoin="round"/>
    <path d="M 389.751953125 284.7850341796875 C 434.50274658203125 219.30252075195312 354.7455749511719 157.0992889404297 440.00665283203125 126.00448608398438" stroke-width="19.799230575561523" fill="none" stroke="rgb(120, 255, 140)" stroke-opacity="0.14350007" stroke-linecap="round" stroke-linejoin="round"/>
    <path d="M 1529.6519775390625 106.02700805664062 C 1514.091552734375 146.5049591064453 1554.1854248046875 179.8931121826172 1549.236572265625 253.5647735595703" stroke-width="13.892786979675293" fill="none" stroke="rgb(135, 39, 196)" stroke-opacity="0.6058527" stroke-linecap="round" stroke-linejoin="round"/>
    <path d="M 239.6249542236328 1080.9815673828125 C 214.819580078125 1030.411376953125 182.34579467773438 1004.9915161132812 257.8539733886719 1110.6727294921875 C 255.33656311035156 1065.343505859375 288.1166687011719 998.7015380859375 259.6850891113281 1031.465087890625" stroke-width="18.44586181640625" fill="none" stroke="rgb(222, 145, 126)" stroke-opacity="0.18194942" stroke-linecap="round" stroke-linejoin="round"/>
    <path d="M 663.5626220703125 1240.81982421875 C 703.3165893554688 1333.447998046875 690.4544067382812 1385.791015625 699.9923095703125 1287.7362060546875" stroke-width="20.82147216796875" fill="none" stroke="rgb(153, 36, 139)" stroke-opacity="0.15196173" stroke-linecap="round" stroke-linejoin="round"/>
  </g>
</svg>
