<?xml version="1.0" ?>
<svg xmlns="http://www.w3.org/2000/svg" version="1.1" width="956.0" height="956.0">
  <defs/>
  <g>
    <path d="M 43.67136764526367 57.92292785644531 C 43.96171951293945 58.47195816040039 44.2520637512207 59.0222053527832 44.215476989746094 59.777706146240234 C 44.17887496948242 59.98883819580078 43.81654739379883 59.863197326660156 43.12674331665039 60.90994644165039 C 42.98155975341797 61.95667266845703 43.05353927612305 64.17709350585938 43.67137145996094 66.39415740966797 C 43.74458312988281 68.61711120605469 43.70798110961914 79.62220764160156 43.126739501953125 90.62785339355469" stroke-width="1.0892857313156128" fill="none" stroke="rgb(23, 23, 28)" stroke-opacity="0.71" stroke-linecap="round" stroke-linejoin="round"/>
    <path d="M 75.19078063964844 55.404117584228516 C 75.73526763916016 55.35994338989258 75.73540496826172 55.58808135986328 75.69830322265625 56.56896209716797 C 75.73542022705078 57.549842834472656 75.73542022705078 59.28468322753906 75.73542785644531 61.018306732177734 C 75.73538970947266 62.751922607421875 75.19078826904297 70.76366424560547 75.19078063964844 79.0465087890625" stroke-width="1.0892857313156128" fill="none" stroke="rgb(28, 23, 23)" stroke-opacity="0.69" stroke-linecap="round" stroke-linejoin="round"/>
    <path d="M 56.177085876464844 65.77533721923828 C 56.17709732055664 65.52986145019531 56.17709732055664 65.55792236328125 56.177085876464844 66.36311340332031 C 56.177085876464844 67.16831970214844 56.177085876464844 68.75187683105469 56.17708206176758 70.06324768066406 C 56.72172164916992 72.19120025634766 56.44966506958008 79.57595825195312 56.1776008605957 86.95941925048828" stroke-width="1.0892857313156128" fill="none" stroke="rgb(23, 23, 28)" stroke-opacity="0.71" stroke-linecap="round" stroke-linejoin="round"/>
    <path d="M 43.67133712768555 61.18090057373047 C 44.08001708984375 60.819210052490234 44.48873519897461 61.00220489501953 44.89739227294922 61.1839714050293 C 45.30615234375 61.91035842895508 48.483055114746094 59.56797409057617 51.65993881225586 56.68094253540039" stroke-width="1.1787586212158203" fill="none" stroke="rgb(185, 66, 3)" stroke-opacity="0.71" stroke-linecap="round" stroke-linejoin="round"/>
    <path d="M 43.6713752746582 57.922908782958984 C 44.27039337158203 59.20026397705078 44.86941146850586 60.47882080078125 44.923805236816406 62.300777435302734 C 45.5228271484375 63.57810974121094 49.53297805786133 66.59028625488281 54.08772277832031 69.05677795410156" stroke-width="1.1787586212158203" fill="none" stroke="rgb(73, 83, 255)" stroke-opacity="0.71" stroke-linecap="round" stroke-linejoin="round"/>
    <path d="M 75.73542022705078 56.29664611816406 C 80.16402435302734 58.89158630371094 81.94034576416016 63.41171646118164 77.06229400634766 65.49302673339844" stroke-width="1.0892857313156128" fill="none" stroke="rgb(178, 54, 251)" stroke-opacity="0.69000006" stroke-linecap="round" stroke-linejoin="round"/>
    <path d="M 75.19100952148438 61.56260299682617 C 73.76351165771484 63.30466842651367 72.88033294677734 65.59117126464844 72.54145812988281 68.42152404785156 C 71.65817260742188 70.7077865600586 66.98631286621094 71.17820739746094 62.860252380371094 72.19203186035156" stroke-width="1.0892857313156128" fill="none" stroke="rgb(22, 133, 219)" stroke-opacity="0.69" stroke-linecap="round" stroke-linejoin="round"/>
    <path d="M 56.17753982543945 66.63543701171875 C 52.673255920410156 64.61511993408203 50.54362106323242 67.9469223022461 51.20802688598633 69.74470520019531" stroke-width="1.1787585020065308" fill="none" stroke="rgb(55, 0, 130)" stroke-opacity="0.71" stroke-linecap="round" stroke-linejoin="round"/>
    <path d="M 43.670860290527344 66.12496185302734 C 41.9006462097168 69.34821319580078 40.12920379638672 72.57144165039062 38.90361785888672 76.33931732177734 C 37.13339614868164 79.01795196533203 33.026451110839844 75.36894989013672 29.46274185180664 72.2657470703125" stroke-width="1.0892857313156128" fill="none" stroke="rgb(252, 52, 191)" stroke-opacity="0.69" stroke-linecap="round" stroke-linejoin="round"/>
    <path d="M 75.73542022705078 55.9482307434082 C 77.7046890258789 61.479705810546875 81.40465545654297 60.40489196777344 83.11872863769531 59.73512268066406" stroke-width="1.0892857313156128" fill="none" stroke="rgb(164, 235, 51)" stroke-opacity="0.69" stroke-linecap="round" stroke-linejoin="round"/>
    <path d="M 56.17708206176758 65.77533721923828 C 55.89039611816406 64.6395034790039 56.14952087402344 63.504905700683594 57.252418518066406 63.57882308959961 C 57.810672760009766 64.74320983886719 60.303123474121094 67.11734771728516 62.795589447021484 69.49146270751953 C 65.83268737792969 71.32096099853516 65.54841613769531 71.4332046508789 64.71968841552734 72.08999633789062" stroke-width="1.0892857313156128" fill="none" stroke="rgb(19, 42, 22)" stroke-opacity="0.69" stroke-linecap="round" stroke-linejoin="round"/>
    <path d="M 53.5431022644043 69.60126495361328 C 48.63138198852539 63.409759521484375 44.26424789428711 56.674861907958984 41.7449951171875 57.222625732421875 C 39.2256965637207 58.316253662109375 39.09759521484375 65.60452270507812 38.424861907958984 72.34819793701172 C 38.84139633178711 79.63646697998047 32.3907470703125 71.12745666503906 26.484718322753906 62.07378005981445" stroke-width="1.0892857313156128" fill="none" stroke="rgb(225, 112, 214)" stroke-opacity="0.69" stroke-linecap="round" stroke-linejoin="round"/>
    <path d="M 64.17539978027344 72.63536071777344 C 64.71463775634766 77.3506851196289 65.2526626586914 82.06597137451172 65.20386505126953 84.0936279296875 C 65.69969940185547 86.12125396728516 65.06285095214844 84.91785430908203 64.42601776123047 84.80366516113281 C 63.78917694091797 84.14488220214844 59.643104553222656 86.16956329345703 56.041656494140625 89.28473663330078" stroke-width="1.0892857313156128" fill="none" stroke="rgb(17, 216, 166)" stroke-opacity="0.71" stroke-linecap="round" stroke-linejoin="round"/>
    <path d="M 82.57422637939453 60.279239654541016 C 85.0910873413086 55.418251037597656 84.90077209472656 56.615108489990234 84.2163314819336 52.57737731933594" stroke-width="1.0892857313156128" fill="none" stroke="rgb(220, 12, 9)" stroke-opacity="0.7099999" stroke-linecap="round" stroke-linejoin="round"/>
    <path d="M 54.087738037109375 69.60126495361328 C 52.78599166870117 71.83141326904297 50.93840026855469 73.51815795898438 49.63665771484375 75.74832153320312 C 48.879539489746094 77.97847747802734 45.000667572021484 78.22614288330078 41.667625427246094 79.01721954345703" stroke-width="1.0892857313156128" fill="none" stroke="rgb(65, 138, 121)" stroke-opacity="0.69" stroke-linecap="round" stroke-linejoin="round"/>
    <path d="M 54.087738037109375 69.05662536621094 C 55.199153900146484 69.75690460205078 56.309349060058594 70.45841217041016 56.87614822387695 71.70331573486328 C 58.532188415527344 71.85897064208984 52.3236083984375 68.63450622558594 45.57040023803711 65.95466613769531" stroke-width="1.1787586212158203" fill="none" stroke="rgb(148, 103, 145)" stroke-opacity="0.71" stroke-linecap="round" stroke-linejoin="round"/>
    <path d="M 64.71952819824219 72.6353988647461 C 60.270233154296875 72.5060806274414 55.82212448120117 72.37676239013672 51.3730583190918 72.24742889404297 C 47.467872619628906 72.11804962158203 46.4587287902832 72.22911834716797 45.992530822753906 71.79551696777344" stroke-width="1.1787587404251099" fill="none" stroke="rgb(17, 51, 69)" stroke-opacity="0.71" stroke-linecap="round" stroke-linejoin="round"/>
    <path d="M 51.115821838378906 56.68104934692383 C 51.140201568603516 59.11602783203125 51.16460037231445 61.008644104003906 50.378440856933594 60.85872268676758 C 50.136871337890625 60.708656311035156 49.62935256958008 58.51630783081055 49.121822357177734 56.3251953125 C 48.61430358886719 54.132877349853516 52.58662033081055 61.51997375488281 56.55772399902344 68.90585327148438" stroke-width="1.0892857313156128" fill="none" stroke="rgb(128, 118, 227)" stroke-opacity="0.69" stroke-linecap="round" stroke-linejoin="round"/>
    <path d="M 65.26416015625 72.09075927734375 C 65.57527160644531 69.5085220336914 65.88636779785156 66.38162994384766 65.38250732421875 65.96073150634766 C 64.87860107421875 65.54106903076172 63.01396942138672 67.28274536132812 61.693939208984375 69.57023620605469 C 60.91851043701172 71.85773468017578 59.71072006225586 70.55599975585938 58.502906799316406 69.25547790527344" stroke-width="1.1787586212158203" fill="none" stroke="rgb(110, 79, 245)" stroke-opacity="0.71" stroke-linecap="round" stroke-linejoin="round"/>
    <path d="M 13.293002128601074 106.40744018554688 C 13.722817420959473 107.70672607421875 13.609357833862305 109.00602722167969 13.071331024169922 109.15487670898438 C 12.533228874206543 109.30357360839844 11.571915626525879 107.75751495361328 10.609160423278809 106.7558364868164 C 9.647953987121582 105.75421905517578 8.37175464630127 106.41302490234375 7.096999645233154 107.61646270751953" stroke-width="1.0892857313156128" fill="none" stroke="rgb(192, 240, 213)" stroke-opacity="0.71" stroke-linecap="round" stroke-linejoin="round"/>
    <path d="M 52.97215270996094 32.45418930053711 C 51.9014892578125 27.518095016479492 49.74158477783203 23.12778091430664 48.67093276977539 17.647050857543945 C 47.05564880371094 12.710943222045898 44.52780532836914 15.948076248168945 41.99876022338867 18.639408111572266" stroke-width="1.0892857313156128" fill="none" stroke="rgb(70, 42, 100)" stroke-opacity="0.69" stroke-linecap="round" stroke-linejoin="round"/>
    <path d="M 44.544395446777344 8.174251556396484 C 43.5303840637207 6.797942161560059 41.98166275024414 4.878539085388184 43.03208541870117 5.510490417480469 C 44.08248519897461 6.142465591430664 47.737613677978516 8.78254222869873 51.39274597167969 11.422601699829102 C 54.50325393676758 14.062684059143066 47.44223403930664 12.931742668151855 40.38214111328125 11.799581527709961" stroke-width="1.1787585020065308" fill="none" stroke="rgb(83, 246, 108)" stroke-opacity="0.71" stroke-linecap="round" stroke-linejoin="round"/>
    <path d="M 52.49635314941406 98.1024398803711 C 57.48052978515625 98.81781005859375 51.821739196777344 97.21595001220703 52.07300567626953 97.38920593261719" stroke-width="1.1787582635879517" fill="none" stroke="rgb(34, 82, 43)" stroke-opacity="0.69000024" stroke-linecap="round" stroke-linejoin="round"/>
    <path d="M 33.15446472167969 18.82722282409668 C 33.360774993896484 20.08672523498535 34.11142349243164 20.803415298461914 34.31763458251953 22.0634708404541 C 34.523807525634766 23.323741912841797 35.1215705871582 24.342609405517578 35.17356491088867 25.361108779907227" stroke-width="1.0892857313156128" fill="none" stroke="rgb(128, 176, 100)" stroke-opacity="0.70999986" stroke-linecap="round" stroke-linejoin="round"/>
    <path d="M 15.445459365844727 82.92681121826172 C 17.82322120666504 77.0554428100586 15.941990852355957 73.65362548828125 13.928997039794922 67.72853088378906" stroke-width="1.0892857313156128" fill="none" stroke="rgb(84, 116, 47)" stroke-opacity="0.69" stroke-linecap="round" stroke-linejoin="round"/>
    <path d="M 58.745182037353516 62.872440338134766 C 58.94404983520508 61.11083221435547 59.68631362915039 59.89241409301758 59.88517761230469 57.58618927001953 C 60.08403778076172 55.82449722290039 58.265018463134766 55.08884048461914 55.902584075927734 54.89904022216797" stroke-width="1.1787586212158203" fill="none" stroke="rgb(174, 194, 45)" stroke-opacity="0.71" stroke-linecap="round" stroke-linejoin="round"/>
    <path d="M 72.30599212646484 15.841955184936523 C 76.91352844238281 19.75445556640625 74.90943908691406 14.8731107711792 77.1396255493164 19.906965255737305" stroke-width="1.0892857313156128" fill="none" stroke="rgb(139, 72, 97)" stroke-opacity="0.6900001" stroke-linecap="round" stroke-linejoin="round"/>
    <path d="M 37.83728790283203 62.92003631591797 C 39.0523796081543 62.84364318847656 39.72425079345703 61.67688751220703 41.48374938964844 61.05586624145508 C 42.154815673828125 60.43488693237305 47.43015670776367 61.38405990600586 52.70500183105469 62.879058837890625" stroke-width="1.0892857313156128" fill="none" stroke="rgb(161, 149, 64)" stroke-opacity="0.71" stroke-linecap="round" stroke-linejoin="round"/>
    <path d="M 79.76213073730469 119.41338348388672 C 80.9308853149414 117.5272216796875 82.0996322631836 115.639892578125 81.22123718261719 115.19754028320312 C 80.34284210205078 114.21056365966797 77.41854095458984 114.12393188476562 75.03865051269531 113.49268341064453 C 72.11421966552734 113.4061050415039 72.77196502685547 113.61593627929688 73.43081665039062 113.82698059082031" stroke-width="1.1787554025650024" fill="none" stroke="rgb(197, 74, 250)" stroke-opacity="0.69" stroke-linecap="round" stroke-linejoin="round"/>
    <path d="M 106.68071746826172 82.52716064453125 C 108.6339340209961 80.80694580078125 110.04259490966797 78.54341125488281 112.53915405273438 77.36776733398438 C 114.49236297607422 75.64756774902344 114.95426177978516 73.40718078613281 116.50537872314453 72.25597381591797" stroke-width="1.0892857313156128" fill="none" stroke="rgb(182, 203, 134)" stroke-opacity="0.6900001" stroke-linecap="round" stroke-linejoin="round"/>
    <path d="M 39.97103500366211 25.024381637573242 C 44.82013702392578 25.680034637451172 50.2137451171875 25.792278289794922 52.798194885253906 27.928272247314453 C 54.83803176879883 29.52008628845215 52.979461669921875 33.68028259277344 52.21015930175781 38.38512420654297 C 50.896217346191406 42.545318603515625 44.117454528808594 36.70760726928711 37.881961822509766 30.869916915893555" stroke-width="1.0892857313156128" fill="none" stroke="rgb(149, 6, 86)" stroke-opacity="0.69" stroke-linecap="round" stroke-linejoin="round"/>
    <path d="M 96.90557098388672 21.72916030883789 C 93.35100555419922 26.015533447265625 94.21473693847656 29.642595291137695 89.89544677734375 25.32868194580078" stroke-width="1.0892857313156128" fill="none" stroke="rgb(104, 69, 210)" stroke-opacity="0.69" stroke-linecap="round" stroke-linejoin="round"/>
    <path d="M 29.747011184692383 2.042025089263916 C 28.220069885253906 7.417831897735596 25.603885650634766 11.70565414428711 23.53232192993164 16.53684425354004 C 21.46084976196289 21.368091583251953 27.12316131591797 15.8863525390625 31.6970157623291 9.316892623901367" stroke-width="1.1787586212158203" fill="none" stroke="rgb(27, 26, 208)" stroke-opacity="0.71" stroke-linecap="round" stroke-linejoin="round"/>
    <path d="M 99.82624816894531 107.27558135986328 C 102.04664611816406 108.20327758789062 101.3406753540039 109.56841278076172 104.09920501708984 111.82982635498047" stroke-width="1.0892857313156128" fill="none" stroke="rgb(200, 217, 233)" stroke-opacity="0.7099999" stroke-linecap="round" stroke-linejoin="round"/>
    <path d="M 10.707682609558105 49.7908935546875 C 12.160715103149414 51.8612174987793 13.614967346191406 53.93153762817383 15.612594604492188 56.00190353393555 C 17.065608978271484 58.07224655151367 11.552389144897461 56.765228271484375 6.038032531738281 56.54840850830078" stroke-width="1.0892857313156128" fill="none" stroke="rgb(240, 4, 66)" stroke-opacity="0.6900001" stroke-linecap="round" stroke-linejoin="round"/>
    <path d="M 43.67136764526367 66.39753723144531 C 46.695343017578125 64.93585968017578 45.68539810180664 63.545047760009766 49.02516174316406 63.662418365478516 C 49.49885940551758 67.66543579101562 52.92630386352539 62.02058410644531 57.915653228759766 57.467002868652344" stroke-width="1.1982125043869019" fill="none" stroke="rgb(206, 149, 138)" stroke-opacity="0.27999002" stroke-linecap="round" stroke-linejoin="round"/>
    <path d="M 52.21015167236328 38.38511276245117 C 49.89791488647461 34.70777893066406 46.09421157836914 30.126262664794922 44.791873931884766 26.2139835357666 C 40.115020751953125 27.280969619750977 36.72039794921875 25.086917877197266 38.62977600097656 26.645004272460938" stroke-width="1.0892857313156128" fill="none" stroke="rgb(89, 161, 33)" stroke-opacity="0.03037596" stroke-linecap="round" stroke-linejoin="round"/>
    <path d="M 31.696577072143555 9.316984176635742 C 28.940292358398438 4.399805068969727 30.020065307617188 -0.20220862329006195 34.44157028198242 0.314921498298645" stroke-width="1.0892857313156128" fill="none" stroke="rgb(191, 71, 20)" stroke-opacity="0.47315156" stroke-linecap="round" stroke-linejoin="round"/>
    <path d="M 106.68057250976562 81.98255920410156 C 103.74127960205078 79.64474487304688 102.35079956054688 82.4132308959961 101.69475555419922 84.08554077148438" stroke-width="1.1982128620147705" fill="none" stroke="rgb(158, 246, 115)" stroke-opacity="0.50708884" stroke-linecap="round" stroke-linejoin="round"/>
    <path d="M 37.8819694519043 30.8698673248291 C 31.829551696777344 28.215789794921875 26.97597312927246 32.81311798095703 29.455032348632812 28.86983299255371 C 26.64754295349121 29.351417541503906 23.135272979736328 34.48342514038086 20.9228572845459 39.86268997192383 C 21.094589233398438 37.85062026977539 24.64415168762207 35.11421203613281 25.885744094848633 31.530059814453125" stroke-width="1.0892857313156128" fill="none" stroke="rgb(211, 244, 32)" stroke-opacity="0.8843298" stroke-linecap="round" stroke-linejoin="round"/>
    <path d="M 77.60688018798828 65.49361419677734 C 79.40894317626953 64.16651916503906 77.82238006591797 70.11328887939453 81.16228485107422 69.92765808105469 C 81.97080993652344 65.84498596191406 75.8912582397461 65.14932250976562 79.91508483886719 64.14936828613281 C 85.54476928710938 68.20795440673828 87.14830780029297 63.14237976074219 84.78995513916016 67.11177062988281" stroke-width="1.0892857313156128" fill="none" stroke="rgb(79, 114, 199)" stroke-opacity="0.05882036" stroke-linecap="round" stroke-linejoin="round"/>
    <path d="M 43.12674331665039 90.08438110351562 C 46.693843841552734 92.97361755371094 53.164329528808594 98.52378845214844 49.04674530029297 99.51953125 C 43.784969329833984 98.81036376953125 47.869422912597656 93.85822296142578 45.0681037902832 99.80390930175781" stroke-width="1.0892857313156128" fill="none" stroke="rgb(218, 243, 103)" stroke-opacity="0.27152717" stroke-linecap="round" stroke-linejoin="round"/>
    <path d="M 54.08774185180664 69.05662536621094 C 58.30036163330078 71.9726791381836 55.19386291503906 77.20166778564453 59.55400466918945 76.28704833984375 C 57.06495666503906 78.78610229492188 61.145416259765625 72.88984680175781 57.81521987915039 70.888671875 C 62.174076080322266 73.04621887207031 57.13456344604492 78.0774154663086 57.00307083129883 75.11205291748047" stroke-width="1.0892857313156128" fill="none" stroke="rgb(178, 215, 181)" stroke-opacity="0.17989673" stroke-linecap="round" stroke-linejoin="round"/>
    <path d="M 101.69469451904297 84.08554077148438 C 100.35382080078125 88.27610778808594 102.00473022460938 90.57791137695312 99.19183349609375 89.05016326904297 C 94.67610931396484 94.2016372680664 94.05509185791016 90.27789306640625 90.59881591796875 89.54908752441406 C 91.31100463867188 86.75022888183594 89.1155776977539 92.89139556884766 84.6244888305664 96.52820587158203" stroke-width="1.0892857313156128" fill="none" stroke="rgb(83, 22, 161)" stroke-opacity="0.23474452" stroke-linecap="round" stroke-linejoin="round"/>
    <path d="M 34.44157791137695 0.3149206340312958 C 38.52146911621094 2.0123658180236816 43.91581726074219 -3.584531784057617 39.692535400390625 2.4245047569274902 C 39.01179122924805 -0.9608895182609558 42.891788482666016 1.1037930250167847 44.3712158203125 1.5921401977539062" stroke-width="1.1982136964797974" fill="none" stroke="rgb(152, 183, 53)" stroke-opacity="0.5565361" stroke-linecap="round" stroke-linejoin="round"/>
    <path d="M 38.62982940673828 26.645015716552734 C 37.22223663330078 32.03144073486328 33.68738555908203 31.443254470825195 32.61531448364258 36.87139892578125 C 31.691143035888672 41.53395080566406 31.494611740112305 47.14574432373047 30.20766258239746 45.570953369140625 C 26.55894660949707 43.95069885253906 29.328649520874023 38.93885803222656 23.3419132232666 35.492706298828125" stroke-width="1.1982113122940063" fill="none" stroke="rgb(230, 12, 119)" stroke-opacity="0.7827571" stroke-linecap="round" stroke-linejoin="round"/>
    <path d="M 101.1501235961914 84.08554077148438 C 95.79944610595703 82.87922668457031 99.71552276611328 81.44512176513672 104.740966796875 79.8979263305664" stroke-width="1.0892857313156128" fill="none" stroke="rgb(173, 24, 55)" stroke-opacity="0.71684164" stroke-linecap="round" stroke-linejoin="round"/>
    <path d="M 45.61274337768555 99.80392456054688 C 44.86964416503906 104.68641662597656 43.35417938232422 104.67218780517578 39.69095993041992 100.61612701416016" stroke-width="1.0892857313156128" fill="none" stroke="rgb(117, 158, 56)" stroke-opacity="0.2724153" stroke-linecap="round" stroke-linejoin="round"/>
    <path d="M 34.44157409667969 0.3149189054965973 C 38.491641998291016 -2.8752541542053223 43.57674789428711 -0.004543231334537268 45.8764762878418 -0.16124694049358368" stroke-width="1.1982132196426392" fill="none" stroke="rgb(33, 180, 116)" stroke-opacity="0.4622084" stroke-linecap="round" stroke-linejoin="round"/>
    <path d="M 38.62978744506836 26.10039710998535 C 42.0361442565918 22.896516799926758 37.20645523071289 19.626848220825195 34.793331146240234 21.550537109375 C 37.33695602416992 19.43136978149414 34.58769226074219 13.756226539611816 29.92166519165039 9.048835754394531 C 25.8904972076416 7.266414642333984 31.79759407043457 5.765828609466553 31.428504943847656 8.561869621276855" stroke-width="1.198177456855774" fill="none" stroke="rgb(239, 94, 93)" stroke-opacity="0.42138708" stroke-linecap="round" stroke-linejoin="round"/>
    <path d="M 34.44157028198242 0.31491976976394653 C 29.992769241333008 -0.19509942829608917 35.893768310546875 -1.3042254447937012 38.59503936767578 -1.7031530141830444 C 33.63802719116211 1.2086772918701172 39.248138427734375 0.23560941219329834 43.23891067504883 -2.1278891563415527 C 42.04927062988281 -3.8419907093048096 46.90445327758789 -6.669219970703125 50.552276611328125 -3.5566935539245605" stroke-width="1.1982132196426392" fill="none" stroke="rgb(139, 24, 63)" stroke-opacity="0.42307824" stroke-linecap="round" stroke-linejoin="round"/>
    <path d="M 39.10240173339844 50.045326232910156 C 33.100433349609375 49.089447021484375 31.175630569458008 47.317813873291016 25.945777893066406 41.67263412475586" stroke-width="1.198214054107666" fill="none" stroke="rgb(0, 239, 78)" stroke-opacity="0.40887263" stroke-linecap="round" stroke-linejoin="round"/>
    <path d="M 11.962409019470215 93.74134826660156 C 15.864802360534668 95.84211730957031 18.52922248840332 93.63455200195312 14.309464454650879 90.6884994506836 C 19.180377960205078 87.94186401367188 25.028039932250977 85.49827575683594 24.874046325683594 81.36833190917969" stroke-width="1.0892857313156128" fill="none" stroke="rgb(158, 54, 214)" stroke-opacity="0.21865131" stroke-linecap="round" stroke-linejoin="round"/>
    <path d="M 62.34894561767578 83.6419448852539 C 61.16648864746094 86.034423828125 59.6558837890625 80.06128692626953 63.64044952392578 74.85079193115234 C 64.17350006103516 73.79370880126953 60.49620819091797 70.84524536132812 61.31159591674805 70.98509979248047" stroke-width="1.0892857313156128" fill="none" stroke="rgb(214, 60, 159)" stroke-opacity="0.55994815" stroke-linecap="round" stroke-linejoin="round"/>
    <path d="M 104.30335998535156 4.178965091705322 C 101.5890121459961 6.814810752868652 100.03854370117188 1.1193618774414062 103.82329559326172 6.16665506362915" stroke-width="1.198213815689087" fill="none" stroke="rgb(222, 224, 10)" stroke-opacity="0.8659528" stroke-linecap="round" stroke-linejoin="round"/>
    <path d="M 44.58414840698242 111.98603057861328 C 41.401763916015625 117.97774505615234 39.72453689575195 115.80765533447266 44.228858947753906 111.0356674194336" stroke-width="1.1982125043869019" fill="none" stroke="rgb(217, 164, 43)" stroke-opacity="0.7737622" stroke-linecap="round" stroke-linejoin="round"/>
    <path d="M 86.99970245361328 46.686458587646484 C 92.51325225830078 42.12178421020508 92.06852722167969 45.276859283447266 90.3031005859375 44.44525909423828" stroke-width="1.0892857313156128" fill="none" stroke="rgb(132, 136, 82)" stroke-opacity="0.6507018" stroke-linecap="round" stroke-linejoin="round"/>
    <path d="M 49.57255935668945 35.17367172241211 C 55.34857177734375 35.82658767700195 60.444854736328125 41.56423568725586 60.7825813293457 36.24186706542969 C 62.48735046386719 36.7130241394043 58.37027359008789 32.65367889404297 63.69584655761719 38.080692291259766" stroke-width="1.1982125043869019" fill="none" stroke="rgb(145, 183, 124)" stroke-opacity="0.674483" stroke-linecap="round" stroke-linejoin="round"/>
    <path d="M 73.25718688964844 68.34939575195312 C 70.46294403076172 64.6874008178711 71.45689392089844 61.454795837402344 74.16867065429688 58.81486892700195 C 78.7669448852539 62.81819534301758 74.96147918701172 61.639671325683594 71.92340087890625 58.42274475097656 C 76.57076263427734 64.19649505615234 74.94184112548828 64.12601470947266 69.1921615600586 69.1620101928711" stroke-width="1.1982077360153198" fill="none" stroke="rgb(174, 217, 126)" stroke-opacity="0.029020779" stroke-linecap="round" stroke-linejoin="round"/>
    <path d="M 39.20636749267578 73.93220520019531 C 33.71882247924805 72.33702850341797 36.73939514160156 72.03370666503906 34.131805419921875 68.78270721435547 C 30.417638778686523 73.25525665283203 34.8543701171875 71.22272491455078 29.782489776611328 70.6977767944336 C 28.408559799194336 72.45157623291016 23.43700408935547 75.55071258544922 28.79517936706543 72.86459350585938" stroke-width="1.0892857313156128" fill="none" stroke="rgb(44, 239, 33)" stroke-opacity="0.0745849" stroke-linecap="round" stroke-linejoin="round"/>
    <path d="M 83.86388397216797 100.52735900878906 C 80.19317626953125 96.94696044921875 79.65062713623047 101.67659759521484 84.79297637939453 96.18705749511719 C 82.61417388916016 98.4334716796875 81.99907684326172 101.05254364013672 84.59184265136719 100.1705093383789" stroke-width="1.0892857313156128" fill="none" stroke="rgb(26, 92, 86)" stroke-opacity="0.5165946" stroke-linecap="round" stroke-linejoin="round"/>
    <path d="M 88.03652954101562 103.55184936523438 C 87.53072357177734 101.28126525878906 87.59149932861328 105.1264877319336 85.2726058959961 107.56430053710938 C 83.30280303955078 112.96017456054688 82.8989028930664 109.43688201904297 87.90050506591797 110.49002838134766 C 82.39531707763672 110.21670532226562 76.38713836669922 112.52971649169922 74.66117095947266 108.98556518554688" stroke-width="1.0892857313156128" fill="none" stroke="rgb(149, 185, 182)" stroke-opacity="0.36727685" stroke-linecap="round" stroke-linejoin="round"/>
    <path d="M 58.22675704956055 120.25887298583984 C 58.07080841064453 117.12037658691406 58.57829666137695 115.61163330078125 60.24713134765625 114.6051025390625 C 60.36570739746094 119.7210693359375 56.9534912109375 117.32698822021484 59.6955451965332 118.70957946777344 C 54.44016647338867 116.6415023803711 60.17498779296875 118.17794799804688 57.675010681152344 121.08497619628906" stroke-width="1.1982141733169556" fill="none" stroke="rgb(165, 64, 34)" stroke-opacity="0.76752645" stroke-linecap="round" stroke-linejoin="round"/>
    <path d="M 73.78508758544922 104.69156646728516 C 79.3630142211914 107.91835021972656 78.6468734741211 103.26667022705078 76.68508911132812 101.12169647216797 C 77.39127349853516 100.6043701171875 79.69808959960938 100.88133239746094 83.3573989868164 105.99825286865234 C 80.60196685791016 101.87458801269531 80.84888458251953 104.95267486572266 81.88842010498047 102.97993469238281" stroke-width="1.198214054107666" fill="none" stroke="rgb(219, 102, 251)" stroke-opacity="0.3797881" stroke-linecap="round" stroke-linejoin="round"/>
    <path d="M 52.11087417602539 30.908266067504883 C 51.23484420776367 29.351606369018555 50.14689254760742 34.317386627197266 54.66053009033203 37.444644927978516" stroke-width="1.198213815689087" fill="none" stroke="rgb(25, 206, 51)" stroke-opacity="0.4985008" stroke-linecap="round" stroke-linejoin="round"/>
    <path d="M 93.09760284423828 33.20582962036133 C 87.03618621826172 35.03020095825195 90.67425537109375 33.00358963012695 91.07142639160156 34.367305755615234" stroke-width="1.1982108354568481" fill="none" stroke="rgb(16, 107, 168)" stroke-opacity="0.14141464" stroke-linecap="round" stroke-linejoin="round"/>
    <path d="M 70.60994720458984 36.993961334228516 C 75.24967956542969 31.666481018066406 75.35785675048828 34.51637268066406 69.84039306640625 38.97907638549805" stroke-width="1.1982139348983765" fill="none" stroke="rgb(154, 19, 59)" stroke-opacity="0.2594866" stroke-linecap="round" stroke-linejoin="round"/>
  </g>
</svg>
