<?xml version="1.0" ?>
<svg xmlns="http://www.w3.org/2000/svg" version="1.1" width="956.0" height="956.0">
  <defs/>
  <g>
    <path d="M 41.89963912963867 36.665733337402344 C 44.965576171875 39.846702575683594 49.32111740112305 39.19455337524414 55.882598876953125 39.18403625488281 C 56.37083435058594 38.74939727783203 59.883689880371094 38.687294006347656 62.52764129638672 39.34744644165039 C 67.55824279785156 36.758575439453125 71.3108901977539 39.930076599121094 70.23793029785156 46.50311279296875 C 70.46859741210938 50.717472076416016 71.26919555664062 55.26193618774414 70.74812316894531 57.18324279785156 C 69.37483215332031 61.45589065551758 72.07085418701172 65.5732421875 71.13016510009766 67.10012817382812 C 70.36190795898438 65.53829956054688 68.58488464355469 66.28642272949219 67.50244903564453 66.98783111572266 C 64.28153991699219 68.58662414550781 62.315731048583984 70.9113540649414 57.612220764160156 70.16529846191406 C 55.986087799072266 70.87093353271484 54.32269287109375 69.95243835449219 52.28407287597656 71.15243530273438 C 52.48966598510742 72.70887756347656 54.47296905517578 66.28882598876953 53.857364654541016 64.3739013671875" stroke-width="1.0892857313156128" fill="none" stroke="rgb(20, 33, 34)" stroke-opacity="0.86166966" stroke-linecap="round" stroke-linejoin="round"/>
    <path d="M 66.24079895019531 68.18717956542969 C 73.54508972167969 66.3879165649414 74.17587280273438 68.56583404541016 68.57005310058594 64.56025695800781 C 66.79525756835938 58.88889694213867 67.59491729736328 56.73448944091797 73.548583984375 57.36214828491211" stroke-width="2.004318952560425" fill="none" stroke="rgb(127, 69, 246)" stroke-opacity="0.097747885" stroke-linecap="round" stroke-linejoin="round"/>
    <path d="M 69.40998840332031 54.34127426147461 C 69.97056579589844 54.443477630615234 68.84339904785156 58.9145622253418 66.99565124511719 61.85175704956055 C 65.50835418701172 66.80795288085938 64.11358642578125 62.644500732421875 64.76983642578125 59.21600341796875" stroke-width="1.0892857313156128" fill="none" stroke="rgb(140, 227, 229)" stroke-opacity="0.32092488" stroke-linecap="round" stroke-linejoin="round"/>
    <path d="M 58.54301452636719 69.94752502441406 C 61.2402458190918 65.95927429199219 63.08808135986328 70.2717514038086 65.0851058959961 76.09475708007812 C 66.75591278076172 80.80855560302734 68.08609771728516 82.41738891601562 71.24623107910156 90.43663024902344 C 67.4687728881836 89.74663543701172 69.32670593261719 85.53704833984375 66.79204559326172 81.09180450439453" stroke-width="2.6008591651916504" fill="none" stroke="rgb(198, 0, 0)" stroke-opacity="0.79155135" stroke-linecap="round" stroke-linejoin="round"/>
    <path d="M 67.72474670410156 64.61206817626953 C 68.26982879638672 60.1939697265625 60.771400451660156 65.31358337402344 63.5212516784668 59.477294921875 C 58.8157844543457 61.253196716308594 63.31769943237305 54.89202880859375 68.0672607421875 54.84763717651367" stroke-width="1.895863652229309" fill="none" stroke="rgb(105, 0, 158)" stroke-opacity="0.40145653" stroke-linecap="round" stroke-linejoin="round"/>
    <path d="M 55.555233001708984 68.67326354980469 C 58.626712799072266 69.42613983154297 58.139915466308594 67.76399230957031 63.14278030395508 67.5301513671875 C 65.2183609008789 71.63668823242188 73.2767562866211 67.278076171875 72.5460205078125 66.89039611816406 C 68.56686401367188 64.84420776367188 66.20368957519531 67.43619537353516 64.06278991699219 71.67012023925781" stroke-width="1.0892857313156128" fill="none" stroke="rgb(85, 122, 131)" stroke-opacity="0.65922606" stroke-linecap="round" stroke-linejoin="round"/>
    <path d="M 70.4416275024414 53.97791290283203 C 68.7311782836914 52.693668365478516 71.96711730957031 50.28590774536133 69.84662628173828 50.51206588745117 C 72.14390563964844 50.12554931640625 71.42127227783203 52.92132568359375 65.07122039794922 50.701271057128906" stroke-width="1.0892857313156128" fill="none" stroke="rgb(147, 175, 134)" stroke-opacity="0.41838172" stroke-linecap="round" stroke-linejoin="round"/>
    <path d="M 55.43855667114258 71.39122009277344 C 53.49465560913086 69.00402069091797 48.46202087402344 67.00634002685547 45.26058578491211 62.21936798095703" stroke-width="2.032438039779663" fill="none" stroke="rgb(104, 187, 117)" stroke-opacity="0.0" stroke-linecap="round" stroke-linejoin="round"/>
    <path d="M 70.62071990966797 64.0345687866211 C 67.82469940185547 61.34457778930664 64.11811065673828 65.27394104003906 61.998802185058594 66.5713119506836" stroke-width="1.7699369192123413" fill="none" stroke="rgb(22, 25, 113)" stroke-opacity="0.3766398" stroke-linecap="round" stroke-linejoin="round"/>
    <path d="M 64.42390441894531 63.04264831542969 C 61.95172882080078 62.971981048583984 55.76087951660156 64.6727523803711 53.86717987060547 63.025665283203125 C 51.10663986206055 66.49055480957031 54.51930236816406 62.72373962402344 55.184024810791016 56.63838195800781 C 62.42385482788086 57.36997985839844 63.08622741699219 53.839908599853516 56.62607192993164 61.38054275512695" stroke-width="1.947438359260559" fill="none" stroke="rgb(57, 47, 245)" stroke-opacity="0.72727233" stroke-linecap="round" stroke-linejoin="round"/>
    <path d="M 67.6042251586914 57.02139663696289 C 72.8880386352539 53.49789810180664 67.65706634521484 52.33212661743164 69.74824523925781 53.40892791748047 C 67.15400695800781 54.453914642333984 69.65656280517578 50.008880615234375 75.96696472167969 51.7485237121582 C 80.82133483886719 48.64006805419922 78.54684448242188 55.60005569458008 80.45114135742188 62.10375213623047" stroke-width="1.3430440425872803" fill="none" stroke="rgb(172, 132, 189)" stroke-opacity="0.20669173" stroke-linecap="round" stroke-linejoin="round"/>
    <path d="M 70.05265045166016 57.741268157958984 C 74.81598663330078 54.476707458496094 70.58238983154297 57.31923294067383 69.97584533691406 59.897640228271484" stroke-width="1.3312937021255493" fill="none" stroke="rgb(185, 0, 28)" stroke-opacity="0.23439519" stroke-linecap="round" stroke-linejoin="round"/>
    <path d="M 64.96807098388672 59.110992431640625 C 65.14141082763672 52.58797836303711 60.62497329711914 57.45383834838867 65.16891479492188 55.53860092163086 C 67.65960693359375 59.749332427978516 71.4291000366211 59.802005767822266 65.06294250488281 60.78409957885742" stroke-width="1.9564639329910278" fill="none" stroke="rgb(62, 42, 131)" stroke-opacity="0.52207303" stroke-linecap="round" stroke-linejoin="round"/>
    <path d="M 45.617164611816406 62.600738525390625 C 45.348175048828125 62.27852249145508 47.45319366455078 60.26286315917969 46.15122985839844 53.20562744140625 C 43.757080078125 52.4384765625 40.27515411376953 58.56071472167969 36.875579833984375 63.072845458984375" stroke-width="1.0892857313156128" fill="none" stroke="rgb(154, 192, 198)" stroke-opacity="0.03173798" stroke-linecap="round" stroke-linejoin="round"/>
    <path d="M 68.11357116699219 57.272789001464844 C 73.14420318603516 55.96345138549805 69.00634002685547 52.72460174560547 66.75458526611328 53.12009811401367 C 61.97261428833008 48.78273010253906 66.57283020019531 54.904232025146484 64.44257354736328 46.49233627319336 C 63.05915069580078 42.354671478271484 62.42332077026367 39.956844329833984 64.99518585205078 40.99692153930664" stroke-width="1.3052700757980347" fill="none" stroke="rgb(57, 81, 86)" stroke-opacity="0.7682622" stroke-linecap="round" stroke-linejoin="round"/>
    <path d="M 66.3006820678711 59.772525787353516 C 57.14336013793945 60.92564392089844 61.29726791381836 59.15241241455078 57.6358757019043 63.68657684326172" stroke-width="2.543281078338623" fill="none" stroke="rgb(222, 9, 60)" stroke-opacity="0.69749826" stroke-linecap="round" stroke-linejoin="round"/>
    <path d="M 64.78456115722656 53.332847595214844 C 67.71810150146484 49.61903762817383 66.53697967529297 53.69880294799805 69.82254028320312 50.990169525146484 C 72.69859313964844 48.61353302001953 74.5831069946289 51.41918182373047 81.59373474121094 50.022098541259766" stroke-width="1.193234920501709" fill="none" stroke="rgb(212, 79, 114)" stroke-opacity="0.19282942" stroke-linecap="round" stroke-linejoin="round"/>
    <path d="M 35.84195327758789 100.13644409179688 C 41.64810562133789 101.02566528320312 42.712554931640625 101.126708984375 43.43815612792969 100.474853515625 C 39.1452751159668 105.1761474609375 42.71294021606445 101.15300750732422 40.94357681274414 96.89836120605469 C 34.71590805053711 103.01516723632812 40.523433685302734 103.01305389404297 44.09012985229492 105.30863189697266" stroke-width="2.19769549369812" fill="none" stroke="rgb(255, 120, 210)" stroke-opacity="0.28019193" stroke-linecap="round" stroke-linejoin="round"/>
    <path d="M 55.23744583129883 91.66622161865234 C 62.596031188964844 89.97897338867188 64.4245834350586 89.20532989501953 58.55901336669922 88.66189575195312" stroke-width="1.0892857313156128" fill="none" stroke="rgb(46, 45, 199)" stroke-opacity="0.65516543" stroke-linecap="round" stroke-linejoin="round"/>
    <path d="M 49.261566162109375 96.80704498291016 C 51.591033935546875 104.77073669433594 55.33047866821289 106.14704895019531 59.49056625366211 103.34420776367188 C 66.26065826416016 103.97306060791016 67.07102966308594 102.626708984375 76.49031829833984 102.25505828857422" stroke-width="1.1771116256713867" fill="none" stroke="rgb(249, 0, 45)" stroke-opacity="0.29699135" stroke-linecap="round" stroke-linejoin="round"/>
    <path d="M 100.60846710205078 57.728424072265625 C 99.46434020996094 60.045013427734375 101.63511657714844 59.99610137939453 107.48448181152344 55.22313690185547" stroke-width="1.0892857313156128" fill="none" stroke="rgb(60, 91, 255)" stroke-opacity="0.33911934" stroke-linecap="round" stroke-linejoin="round"/>
    <path d="M 0.39460888504981995 31.782712936401367 C 1.1198228597640991 26.589462280273438 1.908869981765747 24.15614891052246 0.6041883230209351 17.24589729309082" stroke-width="2.040639877319336" fill="none" stroke="rgb(255, 82, 120)" stroke-opacity="0.23045363" stroke-linecap="round" stroke-linejoin="round"/>
    <path d="M 70.65838623046875 21.786630630493164 C 63.99799728393555 22.228744506835938 65.92031860351562 22.82514190673828 72.89353942871094 21.843088150024414 C 67.45750427246094 22.502954483032227 63.661678314208984 27.137413024902344 67.89679718017578 23.673980712890625 C 73.64762878417969 18.608877182006836 69.05957794189453 23.917634963989258 64.60195922851562 24.658781051635742" stroke-width="1.0892857313156128" fill="none" stroke="rgb(136, 202, 201)" stroke-opacity="0.16225366" stroke-linecap="round" stroke-linejoin="round"/>
    <path d="M 52.84617614746094 100.23950958251953 C 52.38718032836914 98.93252563476562 53.84742736816406 104.1618423461914 51.34819412231445 98.33533477783203 C 51.66302490234375 91.60386657714844 51.15538024902344 93.189453125 47.21200180053711 97.29918670654297 C 47.57331466674805 93.74688720703125 48.89437484741211 89.59127044677734 48.474884033203125 91.73079681396484" stroke-width="1.5816069841384888" fill="none" stroke="rgb(163, 30, 26)" stroke-opacity="0.7963806" stroke-linecap="round" stroke-linejoin="round"/>
    <path d="M 46.39499282836914 55.671287536621094 C 46.959590911865234 50.347599029541016 44.518978118896484 40.21198654174805 43.09907913208008 34.13132095336914 C 45.24424743652344 34.48509216308594 52.65013122558594 31.933279037475586 57.35533142089844 33.54647445678711" stroke-width="1.1729787588119507" fill="none" stroke="rgb(74, 99, 87)" stroke-opacity="0.36550927" stroke-linecap="round" stroke-linejoin="round"/>
    <path d="M 70.55741882324219 114.41597747802734 C 76.78231048583984 116.46272277832031 79.73683166503906 117.73538208007812 83.84457397460938 111.89201354980469 C 81.21541595458984 112.44915008544922 82.94342803955078 118.10906982421875 77.33037567138672 112.77376556396484" stroke-width="1.0892857313156128" fill="none" stroke="rgb(1, 255, 101)" stroke-opacity="0.82427305" stroke-linecap="round" stroke-linejoin="round"/>
    <path d="M 9.079142570495605 17.790117263793945 C 8.02015209197998 16.704917907714844 9.185128211975098 12.31418228149414 11.797993659973145 4.392851829528809" stroke-width="1.0892857313156128" fill="none" stroke="rgb(147, 153, 73)" stroke-opacity="0.21660674" stroke-linecap="round" stroke-linejoin="round"/>
    <path d="M 50.887359619140625 105.27745819091797 C 53.856414794921875 101.23167419433594 57.11836242675781 101.83009338378906 54.87893295288086 99.9192123413086 C 60.12799835205078 105.62504577636719 57.24264907836914 106.27208709716797 52.09107208251953 108.61912536621094 C 50.655452728271484 110.074462890625 44.696163177490234 114.50770568847656 50.3176383972168 115.40234375" stroke-width="1.0892857313156128" fill="none" stroke="rgb(132, 109, 131)" stroke-opacity="0.0" stroke-linecap="round" stroke-linejoin="round"/>
    <path d="M 76.86308288574219 15.329331398010254 C 73.22888946533203 16.198589324951172 75.49104309082031 20.918066024780273 71.46907806396484 19.702987670898438" stroke-width="1.0892857313156128" fill="none" stroke="rgb(148, 202, 193)" stroke-opacity="0.42342442" stroke-linecap="round" stroke-linejoin="round"/>
    <path d="M 85.166015625 112.13990020751953 C 82.32771301269531 118.18306732177734 81.06077575683594 121.34065246582031 84.09600830078125 125.2852783203125 C 85.02853393554688 129.92022705078125 88.43372344970703 124.56133270263672 84.32548522949219 123.12060546875 C 88.79044342041016 121.42664337158203 93.20430755615234 127.5959243774414 98.32313537597656 126.60607147216797" stroke-width="1.9845340251922607" fill="none" stroke="rgb(2, 255, 253)" stroke-opacity="0.13514833" stroke-linecap="round" stroke-linejoin="round"/>
    <path d="M 121.83729553222656 101.15071868896484 C 116.67283630371094 102.42282104492188 122.3867416381836 101.87210083007812 118.30870819091797 105.0383071899414 C 114.93666076660156 105.71928405761719 117.86875915527344 101.66822814941406 118.79653930664062 96.5870132446289 C 108.69982147216797 102.90904998779297 110.10933685302734 98.42391204833984 108.97611236572266 91.3144302368164" stroke-width="1.0892857313156128" fill="none" stroke="rgb(60, 100, 255)" stroke-opacity="0.59934455" stroke-linecap="round" stroke-linejoin="round"/>
    <path d="M 86.91709899902344 82.63802337646484 C 85.04989624023438 85.17386627197266 78.93855285644531 82.9673843383789 81.868408203125 81.15802001953125" stroke-width="1.0892857313156128" fill="none" stroke="rgb(243, 194, 234)" stroke-opacity="0.22833744" stroke-linecap="round" stroke-linejoin="round"/>
    <path d="M 55.622005462646484 83.57984924316406 C 48.166900634765625 87.51360321044922 47.32175827026367 86.70970916748047 47.53388214111328 87.12797546386719 C 48.66770935058594 88.32003784179688 47.700439453125 95.91242218017578 52.0861701965332 97.20355224609375" stroke-width="1.0892857313156128" fill="none" stroke="rgb(135, 139, 219)" stroke-opacity="0.65046114" stroke-linecap="round" stroke-linejoin="round"/>
  </g>
</svg>
