<?xml version="1.0" ?>
<svg xmlns="http://www.w3.org/2000/svg" version="1.1" width="956.0" height="956.0">
  <defs/>
  <g>
    <path d="M 62.7784538269043 29.23898696899414 C 60.80742645263672 31.799535751342773 49.42654800415039 33.76268005371094 47.797550201416016 33.773948669433594 C 46.79438400268555 34.80207443237305 45.322994232177734 41.545166015625 46.558712005615234 43.5223274230957 C 48.718284606933594 43.986019134521484 53.324249267578125 41.175045013427734 55.77445602416992 44.774810791015625 C 63.36095428466797 51.32787322998047 65.48395538330078 58.42494201660156 76.00506591796875 43.69944763183594 C 76.28437805175781 42.93759536743164 83.82559204101562 45.34388732910156 84.26536560058594 44.269927978515625 C 85.57283020019531 42.71644592285156 87.03296661376953 37.71465301513672 85.16851043701172 35.26615905761719 C 82.92868041992188 33.943603515625 71.36141204833984 31.371301651000977 70.04830932617188 28.926658630371094 C 68.36227416992188 28.09527587890625 69.67124938964844 25.179317474365234 65.94099426269531 24.07668685913086 C 62.97185516357422 24.07206916809082 63.87406921386719 25.47727394104004 62.81583786010742 27.34552764892578" stroke-width="1.2078720331192017" fill="none" stroke="rgb(237, 205, 169)" stroke-opacity="1.0" stroke-linecap="round" stroke-linejoin="round"/>
    <path d="M 66.02811431884766 30.50408172607422 C 66.33177947998047 33.94026565551758 51.637306213378906 35.374000549316406 52.33833312988281 39.90902328491211 C 64.55010986328125 40.258182525634766 64.31488800048828 55.2401008605957 74.40753936767578 43.137969970703125 C 76.32592010498047 42.5529899597168 80.21196746826172 40.557308197021484 79.49758911132812 40.213165283203125 C 79.05538177490234 39.7763671875 65.68871307373047 33.247432708740234 65.98316192626953 31.563434600830078" stroke-width="1.1741070747375488" fill="none" stroke="rgb(234, 208, 169)" stroke-opacity="0.98722893" stroke-linecap="round" stroke-linejoin="round"/>
    <path d="M 65.006591796875 41.060855865478516 C 61.14585494995117 42.60439682006836 62.85811996459961 51.680381774902344 63.65028762817383 51.701995849609375 C 64.76435089111328 51.746315002441406 66.66438293457031 42.2646598815918 66.64930725097656 41.88140106201172 C 67.88827514648438 40.581886291503906 61.87868881225586 42.48461151123047 61.0831298828125 43.30802536010742" stroke-width="1.1741070747375488" fill="none" stroke="rgb(239, 205, 165)" stroke-opacity="0.999004" stroke-linecap="round" stroke-linejoin="round"/>
    <path d="M 43.03548049926758 38.90009307861328 C 42.629669189453125 41.6507682800293 42.62558364868164 44.75791931152344 44.1291389465332 44.619144439697266 C 44.91912078857422 45.308345794677734 44.128482818603516 42.080806732177734 45.09425735473633 40.874961853027344 C 45.10921096801758 41.76559829711914 44.56027603149414 44.95573043823242 45.04685592651367 44.53288650512695 C 45.666255950927734 44.102630615234375 44.960792541503906 41.4534797668457 47.281681060791016 42.08835220336914 C 47.57490539550781 43.81696701049805 47.4666748046875 45.37681198120117 48.78688430786133 44.28095626831055 C 50.11786651611328 42.059478759765625 50.219207763671875 41.97968673706055 51.085540771484375 43.043434143066406" stroke-width="1.1971607208251953" fill="none" stroke="rgb(0, 117, 212)" stroke-opacity="1.0" stroke-linecap="round" stroke-linejoin="round"/>
    <path d="M 51.199188232421875 46.449981689453125 C 60.055904388427734 44.91484832763672 60.25331115722656 44.87308883666992 62.59782028198242 47.68718338012695 C 64.58650970458984 49.28994369506836 76.93045043945312 58.41279220581055 76.45321655273438 60.00361633300781 C 75.8478012084961 61.25627136230469 74.57966613769531 62.71390914916992 69.16292572021484 62.322959899902344 C 63.882972717285156 62.526466369628906 55.53005599975586 62.599239349365234 56.180259704589844 61.182857513427734 C 55.79276657104492 59.025917053222656 52.58087921142578 47.53131103515625 52.74850082397461 47.90371322631836 C 53.254669189453125 48.00055694580078 59.39598083496094 48.50212860107422 60.34273910522461 50.65752029418945 C 62.05952072143555 51.97544860839844 73.02698516845703 59.563106536865234 73.46466064453125 59.79450225830078 C 72.86607360839844 59.61762619018555 59.74302291870117 59.87562561035156 58.439937591552734 59.04766082763672 C 56.95645523071289 59.377220153808594 53.87641906738281 52.32186508178711 55.05889129638672 50.808685302734375 C 56.187564849853516 49.750938415527344 67.35467529296875 58.751075744628906 67.08380889892578 58.7474365234375 C 67.31687927246094 58.30924987792969 61.31992721557617 58.3010139465332 60.71977996826172 57.3009147644043 C 59.557899475097656 57.198631286621094 57.79092025756836 55.92695617675781 58.22748565673828 54.65135192871094 C 59.63222885131836 53.11247634887695 61.56861877441406 56.379554748535156 61.3364143371582 56.95799255371094" stroke-width="1.2570985555648804" fill="none" stroke="rgb(0, 115, 213)" stroke-opacity="1.0" stroke-linecap="round" stroke-linejoin="round"/>
    <path d="M 68.8296890258789 47.97681427001953 C 73.54943084716797 45.90165710449219 76.89929962158203 45.13773727416992 78.99459075927734 44.651363372802734 C 82.2565689086914 45.717132568359375 78.95246887207031 56.674198150634766 78.47782897949219 56.818115234375 C 77.77912139892578 57.00077819824219 72.20545959472656 50.421119689941406 71.94932556152344 49.76102066040039 C 70.82048034667969 48.95292282104492 75.90982818603516 45.61363983154297 76.24849700927734 47.288021087646484 C 76.22528076171875 48.419620513916016 76.66793060302734 53.66911697387695 76.13148498535156 52.27580642700195 C 76.0602798461914 52.00625991821289 72.6003189086914 50.85594177246094 73.66645050048828 49.85869216918945 C 75.94792175292969 49.34661865234375 74.57846069335938 49.771568298339844 75.69943237304688 49.529808044433594" stroke-width="1.1741070747375488" fill="none" stroke="rgb(4, 115, 213)" stroke-opacity="0.9812048" stroke-linecap="round" stroke-linejoin="round"/>
    <path d="M 81.69974517822266 41.905357360839844 C 87.06205749511719 38.96642303466797 88.35736846923828 36.929141998291016 87.85686492919922 37.690860748291016 C 87.52830505371094 38.62340545654297 86.75584411621094 40.15687942504883 86.19480895996094 40.53142547607422 C 85.6404800415039 40.92293930053711 86.20118713378906 42.61390686035156 85.05579376220703 42.7318000793457 C 83.94888305664062 42.87431716918945 82.29956817626953 43.75495910644531 83.1297378540039 43.21553421020508 C 83.91759490966797 42.542293548583984 84.87016296386719 43.14317321777344 85.67867279052734 42.47669219970703" stroke-width="1.1741070747375488" fill="none" stroke="rgb(1, 107, 212)" stroke-opacity="0.9966762" stroke-linecap="round" stroke-linejoin="round"/>
    <path d="M 55.88150405883789 65.35193634033203 C 61.85434341430664 65.98773956298828 66.35700225830078 65.6985855102539 69.16558837890625 65.40254974365234 C 71.34745788574219 64.86665344238281 75.355224609375 64.77936553955078 77.66250610351562 64.220703125" stroke-width="1.2236852645874023" fill="none" stroke="rgb(1, 117, 203)" stroke-opacity="0.98547757" stroke-linecap="round" stroke-linejoin="round"/>
    <path d="M 43.65398025512695 36.556880950927734 C 44.19185256958008 38.68130874633789 44.236228942871094 41.48172378540039 50.201454162597656 42.32324981689453 C 56.27678298950195 43.138668060302734 57.87992858886719 42.81748962402344 61.52239990234375 43.72431182861328 C 64.41224670410156 45.43709182739258 76.30517578125 56.41289520263672 78.07962799072266 59.29471206665039 C 80.6872329711914 64.04546356201172 76.1041030883789 64.45484924316406 70.47967529296875 63.74337387084961 C 64.85540008544922 63.843292236328125 55.12765884399414 62.35111618041992 54.38015365600586 63.091468811035156 C 52.492401123046875 62.513797760009766 49.90552520751953 48.27613830566406 49.19099807739258 45.901084899902344" stroke-width="1.1741070747375488" fill="none" stroke="rgb(0, 7, 98)" stroke-opacity="1.0" stroke-linecap="round" stroke-linejoin="round"/>
    <path d="M 45.17854309082031 35.99826431274414 C 43.66225051879883 37.60602569580078 41.85094451904297 40.33684539794922 42.04130554199219 41.189212799072266 C 42.23357009887695 42.06987380981445 41.63552474975586 43.153202056884766 42.51791000366211 43.43172073364258 C 42.73495101928711 44.402809143066406 41.8038330078125 47.150054931640625 42.59917449951172 47.21192932128906 C 43.47903060913086 46.53131866455078 47.14738464355469 44.88266372680664 53.2092399597168 44.68965148925781 C 57.94473648071289 43.66387176513672 57.42693328857422 43.84722137451172 59.247535705566406 44.58155822753906" stroke-width="1.1741070747375488" fill="none" stroke="rgb(4, 3, 98)" stroke-opacity="0.9802736" stroke-linecap="round" stroke-linejoin="round"/>
    <path d="M 65.7334213256836 47.445133209228516 C 69.22925567626953 45.90240478515625 71.32784271240234 43.6081657409668 75.27268981933594 43.29875183105469 C 77.8262939453125 42.84489822387695 81.5137939453125 43.79783248901367 81.94135284423828 46.4467658996582 C 81.82201385498047 48.781593322753906 78.88116455078125 60.450374603271484 78.77223205566406 62.53246307373047" stroke-width="1.2846952676773071" fill="none" stroke="rgb(0, 9, 98)" stroke-opacity="1.0" stroke-linecap="round" stroke-linejoin="round"/>
    <path d="M 77.95340728759766 41.95482635498047 C 87.38160705566406 38.2570686340332 87.70681762695312 38.37998580932617 88.82715606689453 37.07900619506836" stroke-width="1.2491556406021118" fill="none" stroke="rgb(1, 4, 97)" stroke-opacity="1.0" stroke-linecap="round" stroke-linejoin="round"/>
    <path d="M 88.7713394165039 35.85020446777344 C 90.56596374511719 37.72699737548828 92.76013946533203 36.42152404785156 91.11424255371094 37.47145462036133 C 89.7038345336914 40.33973693847656 90.02368927001953 39.649383544921875 88.99254608154297 40.77456283569336 C 89.04712677001953 42.591495513916016 88.45729064941406 41.1570930480957 87.6258544921875 43.70762634277344 C 88.11856842041016 45.28163528442383 86.81004333496094 46.282325744628906 82.17967224121094 44.336944580078125" stroke-width="1.291280746459961" fill="none" stroke="rgb(4, 3, 98)" stroke-opacity="1.0" stroke-linecap="round" stroke-linejoin="round"/>
    <path d="M 52.91592788696289 62.66594696044922 C 53.82826232910156 67.24423217773438 53.3467903137207 67.19898223876953 54.58131408691406 66.60354614257812 C 55.87706756591797 66.80844116210938 76.589599609375 67.0015640258789 77.86054229736328 66.84964752197266 C 79.0499038696289 64.74077606201172 78.25929260253906 64.06217193603516 78.17430877685547 62.8817138671875" stroke-width="1.2822043895721436" fill="none" stroke="rgb(0, 6, 94)" stroke-opacity="1.0" stroke-linecap="round" stroke-linejoin="round"/>
    <path d="M 43.86832809448242 106.78861999511719 C 54.5513916015625 107.40007781982422 65.11896514892578 107.43536376953125 76.51158142089844 106.2914047241211 C 76.61470794677734 106.29678344726562 81.35640716552734 106.71700286865234 82.50312805175781 105.74093627929688 C 82.0379409790039 105.46495819091797 81.5832748413086 104.5176773071289 81.42003631591797 103.52561950683594 C 82.56707763671875 101.21431732177734 82.9280014038086 99.07353973388672 82.53345489501953 95.5972900390625 C 81.49535369873047 88.91061401367188 79.6256332397461 83.60684204101562 74.7930908203125 78.44193267822266 C 72.95350646972656 75.55754852294922 68.97233581542969 69.8761978149414 63.812767028808594 71.32189178466797 C 62.35697555541992 72.4797592163086 60.1893424987793 74.05064392089844 59.46889877319336 77.1304702758789 C 56.13151931762695 85.22190856933594 56.78984832763672 94.26155853271484 56.851505279541016 104.24149322509766 C 57.20585250854492 108.73500061035156 56.04457473754883 113.7508316040039 56.6572380065918 118.1234130859375 C 56.46595001220703 119.25513458251953 56.924537658691406 120.3294906616211 58.32697677612305 120.34842681884766 C 58.40239715576172 120.63175964355469 58.90584945678711 121.23397827148438 57.48856735229492 122.31919860839844 C 56.77228546142578 122.12345886230469 56.32676696777344 121.41802215576172 56.130332946777344 120.63652801513672 C 54.77824020385742 119.06887817382812 52.35943603515625 118.12960052490234 50.65526580810547 116.74794006347656 C 47.26975631713867 115.03821563720703 43.80875778198242 113.45392608642578 40.445457458496094 111.69123840332031 C 33.99370193481445 108.2191162109375 27.117938995361328 104.7557144165039 21.584577560424805 99.5565414428711 C 18.633041381835938 98.34657287597656 17.919185638427734 94.8050308227539 16.337249755859375 92.04786682128906 C 14.302220344543457 91.6166000366211 13.382967948913574 90.04981994628906 13.954266548156738 88.3450927734375 C 13.54595947265625 86.07889556884766 13.480981826782227 84.51781463623047 13.135224342346191 84.1981201171875" stroke-width="1.2467737197875977" fill="none" stroke="rgb(19, 28, 19)" stroke-opacity="0.9968077" stroke-linecap="round" stroke-linejoin="round"/>
    <path d="M 61.447052001953125 83.17903900146484 C 61.21830368041992 83.2232666015625 60.128883361816406 83.31851959228516 59.98633575439453 83.39750671386719 C 58.92939758300781 83.17450714111328 57.88302230834961 83.47930908203125 56.92890930175781 83.5926284790039 C 55.42066192626953 83.53915405273438 53.920440673828125 83.21923065185547 52.18850326538086 83.22245025634766 C 49.62014389038086 83.66080474853516 47.05325698852539 83.66690063476562 45.27805709838867 82.53054809570312 C 39.905067443847656 82.53108978271484 33.05337905883789 83.58223724365234 29.810197830200195 78.82734680175781 C 28.39179229736328 76.37530517578125 28.46904754638672 73.58675384521484 28.45150375366211 70.78157043457031 C 28.744342803955078 71.05497741699219 28.71520233154297 69.52941131591797 28.165836334228516 68.60501861572266 C 30.532243728637695 66.45032501220703 34.15364074707031 63.86425018310547 36.65517044067383 61.68595504760742 C 41.190635681152344 58.075714111328125 45.616275787353516 54.69894790649414 51.521793365478516 54.50764083862305 C 52.19878387451172 54.86012268066406 53.63743591308594 54.719932556152344 54.370811462402344 53.87226867675781 C 58.8644905090332 55.1903190612793 59.57936096191406 64.75041198730469 59.12687301635742 68.31183624267578 C 59.6401252746582 70.12359619140625 59.46405029296875 75.06999206542969 58.16038131713867 76.99529266357422 C 57.4841423034668 83.76524353027344 51.7037239074707 89.8233642578125 46.77383804321289 93.84851837158203 C 44.08613204956055 94.70368194580078 40.05202102661133 94.55403137207031 37.01641082763672 94.50276947021484 C 35.666542053222656 95.41485595703125 35.39581298828125 94.60501098632812 32.85908126831055 94.21528625488281 C 29.21503257751465 90.87238311767578 30.66140365600586 86.53792572021484 30.544485092163086 81.49771118164062 C 30.467906951904297 78.56757354736328 30.27267074584961 75.83360290527344 29.616451263427734 72.50711059570312 C 30.484785079956055 63.75128936767578 39.51082229614258 54.94015884399414 46.383182525634766 49.95165252685547 C 53.499351501464844 45.88540267944336 64.39520263671875 42.09389877319336 63.3536491394043 32.48927688598633 C 63.26488494873047 30.839868545532227 63.48444366455078 29.259153366088867 63.33436965942383 27.591318130493164 C 61.80327606201172 24.016876220703125 54.9034538269043 20.979127883911133 51.15129852294922 20.180328369140625 C 48.758644104003906 19.51881217956543 42.62648391723633 19.365402221679688 39.03739547729492 19.78744125366211 C 39.21505355834961 19.83939552307129 38.45903015136719 21.08363151550293 36.64601135253906 20.44061851501465 C 33.00732421875 22.211820602416992 30.313932418823242 24.155736923217773 28.631101608276367 26.97454071044922" stroke-width="1.1741070747375488" fill="none" stroke="rgb(28, 28, 19)" stroke-opacity="0.9820973" stroke-linecap="round" stroke-linejoin="round"/>
    <path d="M 27.601604461669922 28.034799575805664 C 32.46343994140625 24.31812858581543 26.506689071655273 19.62825584411621 31.071720123291016 26.458581924438477" stroke-width="1.3701584339141846" fill="none" stroke="rgb(202, 135, 144)" stroke-opacity="0.33173078" stroke-linecap="round" stroke-linejoin="round"/>
    <path d="M 75.46685028076172 44.22910690307617 C 74.48282623291016 45.16545104980469 67.80467987060547 48.46030807495117 67.83560180664062 47.165740966796875 C 65.00579071044922 49.66680908203125 70.84323120117188 51.6013298034668 75.32498168945312 55.91756057739258" stroke-width="1.1741070747375488" fill="none" stroke="rgb(84, 83, 95)" stroke-opacity="0.056995463" stroke-linecap="round" stroke-linejoin="round"/>
    <path d="M 66.97407531738281 41.01152801513672 C 71.01661682128906 34.47560501098633 71.49188232421875 35.28160095214844 66.11324310302734 38.3149299621582 C 61.29388427734375 38.35234069824219 62.31368637084961 40.699462890625 56.610721588134766 44.31745147705078" stroke-width="1.1741070747375488" fill="none" stroke="rgb(225, 192, 106)" stroke-opacity="0.104087815" stroke-linecap="round" stroke-linejoin="round"/>
    <path d="M 43.228519439697266 47.3838996887207 C 42.60776138305664 45.69245910644531 36.47960662841797 47.61516189575195 37.54894256591797 40.22574996948242" stroke-width="1.1772574186325073" fill="none" stroke="rgb(227, 22, 151)" stroke-opacity="0.27855942" stroke-linecap="round" stroke-linejoin="round"/>
    <path d="M 36.370643615722656 61.64955139160156 C 35.01233673095703 54.462364196777344 35.4166259765625 60.253482818603516 32.48538589477539 55.498504638671875 C 28.274383544921875 53.872806549072266 28.7640438079834 53.158138275146484 33.419525146484375 48.918460845947266 C 34.90694808959961 43.45432662963867 29.716814041137695 37.58234405517578 33.53642654418945 39.124881744384766" stroke-width="1.1741070747375488" fill="none" stroke="rgb(45, 136, 107)" stroke-opacity="0.5643067" stroke-linecap="round" stroke-linejoin="round"/>
    <path d="M 66.28459167480469 30.448022842407227 C 68.15980529785156 25.393054962158203 68.40032196044922 19.17705726623535 70.65886688232422 15.091026306152344" stroke-width="1.3862887620925903" fill="none" stroke="rgb(121, 243, 21)" stroke-opacity="0.3509598" stroke-linecap="round" stroke-linejoin="round"/>
    <path d="M 77.99089050292969 57.600894927978516 C 77.68605041503906 59.1530647277832 74.07766723632812 54.869956970214844 78.85284423828125 59.95088195800781 C 71.28409576416016 54.113704681396484 75.2698974609375 60.17140197753906 70.95295715332031 66.80143737792969" stroke-width="1.1741070747375488" fill="none" stroke="rgb(38, 43, 136)" stroke-opacity="0.20193909" stroke-linecap="round" stroke-linejoin="round"/>
    <path d="M 81.6010513305664 45.7778205871582 C 75.64070892333984 40.915557861328125 80.70791625976562 43.22694396972656 75.1922607421875 43.40899658203125 C 68.98576354980469 37.44166564941406 69.99799346923828 41.43094253540039 69.32270050048828 36.23923873901367" stroke-width="1.1741070747375488" fill="none" stroke="rgb(49, 217, 131)" stroke-opacity="0.053099163" stroke-linecap="round" stroke-linejoin="round"/>
    <path d="M 32.68244552612305 39.137916564941406 C 37.24597930908203 41.944854736328125 34.472537994384766 39.39289855957031 29.59687042236328 40.725372314453125" stroke-width="1.1741070747375488" fill="none" stroke="rgb(209, 149, 147)" stroke-opacity="0.041884392" stroke-linecap="round" stroke-linejoin="round"/>
    <path d="M 37.420040130615234 39.89725112915039 C 43.0744514465332 35.178497314453125 47.17933654785156 39.50784683227539 42.660831451416016 36.54055404663086 C 38.949188232421875 30.803464889526367 41.66291046142578 35.02830123901367 45.4643440246582 32.2992057800293 C 43.701316833496094 34.62898254394531 40.420223236083984 29.311826705932617 43.50096130371094 24.417482376098633" stroke-width="1.400421380996704" fill="none" stroke="rgb(78, 9, 182)" stroke-opacity="0.9284581" stroke-linecap="round" stroke-linejoin="round"/>
    <path d="M 57.65170669555664 44.09322738647461 C 55.669342041015625 40.388973236083984 61.174232482910156 38.60237121582031 56.7176513671875 44.18626022338867" stroke-width="1.1741070747375488" fill="none" stroke="rgb(183, 161, 234)" stroke-opacity="0.60198617" stroke-linecap="round" stroke-linejoin="round"/>
    <path d="M 69.29202270507812 35.229251861572266 C 70.4916000366211 34.65390396118164 74.24642181396484 32.7119026184082 79.9757308959961 25.620037078857422 C 75.6718978881836 21.645673751831055 77.14698028564453 18.014904022216797 71.15962982177734 20.458871841430664" stroke-width="1.3750967979431152" fill="none" stroke="rgb(99, 36, 98)" stroke-opacity="0.59052014" stroke-linecap="round" stroke-linejoin="round"/>
    <path d="M 37.67206954956055 40.14301681518555 C 39.09358596801758 34.09064865112305 41.742244720458984 37.140933990478516 37.62504196166992 32.661258697509766 C 32.9996452331543 32.26082992553711 30.231990814208984 38.31355667114258 27.505075454711914 36.15324020385742" stroke-width="1.2052562236785889" fill="none" stroke="rgb(220, 6, 228)" stroke-opacity="0.41564345" stroke-linecap="round" stroke-linejoin="round"/>
    <path d="M 70.98133087158203 66.58722686767578 C 71.79931640625 65.74655151367188 77.90159606933594 68.31554412841797 77.38380432128906 65.80884552001953" stroke-width="1.1741070747375488" fill="none" stroke="rgb(133, 248, 214)" stroke-opacity="0.52138996" stroke-linecap="round" stroke-linejoin="round"/>
    <path d="M 57.28702163696289 44.01262664794922 C 53.23735046386719 39.26521301269531 59.269493103027344 33.75206756591797 64.30325317382812 34.48480224609375 C 58.746986389160156 32.0754280090332 64.81150817871094 32.95317459106445 62.887760162353516 32.4279670715332" stroke-width="1.401138186454773" fill="none" stroke="rgb(46, 152, 162)" stroke-opacity="0.11679374" stroke-linecap="round" stroke-linejoin="round"/>
    <path d="M 31.24489974975586 26.396020889282227 C 29.354915618896484 22.910005569458008 25.007461547851562 22.02777671813965 26.69784927368164 20.756542205810547" stroke-width="1.2082267999649048" fill="none" stroke="rgb(242, 104, 73)" stroke-opacity="0.27001184" stroke-linecap="round" stroke-linejoin="round"/>
    <path d="M 129.65432739257812 39.279083251953125 C 130.7633514404297 37.9332160949707 129.71881103515625 43.616119384765625 131.7888946533203 47.08983612060547 C 126.58361053466797 45.3721809387207 127.133544921875 50.89518737792969 122.68061828613281 57.659828186035156 C 118.82518005371094 63.45185470581055 112.3044662475586 63.7285041809082 117.3333740234375 66.03829956054688" stroke-width="1.1741070747375488" fill="none" stroke="rgb(134, 108, 1)" stroke-opacity="0.10514884" stroke-linecap="round" stroke-linejoin="round"/>
    <path d="M 43.300479888916016 17.86745262145996 C 41.46181869506836 24.00716209411621 36.94157409667969 19.67144012451172 42.28346252441406 22.70088768005371 C 43.513526916503906 18.5720157623291 37.80727005004883 22.348918914794922 34.887176513671875 22.044635772705078 C 33.81480026245117 19.856504440307617 33.149871826171875 23.828197479248047 33.24212646484375 23.059179306030273" stroke-width="1.363063097000122" fill="none" stroke="rgb(20, 105, 252)" stroke-opacity="0.88743675" stroke-linecap="round" stroke-linejoin="round"/>
    <path d="M 54.2280158996582 76.44246673583984 C 50.63500213623047 82.58246612548828 52.445655822753906 80.04570770263672 52.15547561645508 80.13661193847656" stroke-width="1.1741070747375488" fill="none" stroke="rgb(236, 159, 58)" stroke-opacity="0.9735002" stroke-linecap="round" stroke-linejoin="round"/>
    <path d="M 129.56057739257812 80.86322784423828 C 124.17695617675781 88.16154479980469 125.26850891113281 91.01756286621094 123.81204223632812 95.7059326171875" stroke-width="1.1872737407684326" fill="none" stroke="rgb(217, 69, 149)" stroke-opacity="0.10306643" stroke-linecap="round" stroke-linejoin="round"/>
    <path d="M 76.77336120605469 87.65192413330078 C 80.4066162109375 91.5444564819336 84.46498107910156 85.92505645751953 88.41649627685547 82.77157592773438 C 84.15816497802734 86.5572280883789 88.3957748413086 84.05729675292969 94.25515747070312 81.45820617675781" stroke-width="1.2402045726776123" fill="none" stroke="rgb(44, 4, 177)" stroke-opacity="0.2655667" stroke-linecap="round" stroke-linejoin="round"/>
    <path d="M 26.646095275878906 63.975929260253906 C 27.481233596801758 65.15733337402344 25.35266876220703 64.88098907470703 30.015939712524414 61.0906867980957" stroke-width="1.2094124555587769" fill="none" stroke="rgb(127, 42, 33)" stroke-opacity="0.48778725" stroke-linecap="round" stroke-linejoin="round"/>
    <path d="M 80.1095962524414 30.67776107788086 C 76.32061767578125 36.39181137084961 80.88097381591797 39.74191665649414 77.80115509033203 35.381431579589844" stroke-width="1.1741070747375488" fill="none" stroke="rgb(61, 82, 144)" stroke-opacity="0.9299726" stroke-linecap="round" stroke-linejoin="round"/>
    <path d="M 87.81221771240234 21.761287689208984 C 81.9539566040039 24.758419036865234 82.12686157226562 23.783681869506836 80.18745422363281 31.054046630859375" stroke-width="1.1741070747375488" fill="none" stroke="rgb(229, 231, 166)" stroke-opacity="0.83050317" stroke-linecap="round" stroke-linejoin="round"/>
    <path d="M 45.202064514160156 88.08104705810547 C 50.75511169433594 86.2953872680664 51.46488571166992 80.44979858398438 51.68910217285156 72.76364135742188" stroke-width="1.3994290828704834" fill="none" stroke="rgb(70, 5, 57)" stroke-opacity="0.62150955" stroke-linecap="round" stroke-linejoin="round"/>
    <path d="M 32.107513427734375 55.03777313232422 C 36.3339958190918 48.83419418334961 42.48198318481445 44.44718551635742 44.911590576171875 39.673614501953125" stroke-width="1.3994601964950562" fill="none" stroke="rgb(103, 180, 69)" stroke-opacity="0.9409626" stroke-linecap="round" stroke-linejoin="round"/>
    <path d="M 15.66312313079834 74.35857391357422 C 15.141440391540527 76.98515319824219 15.36552619934082 82.83290100097656 17.118289947509766 89.27196502685547" stroke-width="1.3256869316101074" fill="none" stroke="rgb(8, 214, 144)" stroke-opacity="0.13216498" stroke-linecap="round" stroke-linejoin="round"/>
    <path d="M 11.70314884185791 23.181386947631836 C 13.74665355682373 21.056007385253906 17.069808959960938 17.41680908203125 18.37881851196289 18.81777572631836" stroke-width="1.1741070747375488" fill="none" stroke="rgb(8, 20, 215)" stroke-opacity="0.32606918" stroke-linecap="round" stroke-linejoin="round"/>
    <path d="M 28.320898056030273 72.30054473876953 C 29.918794631958008 68.12954711914062 32.7531623840332 68.00707244873047 31.932729721069336 74.25726318359375" stroke-width="1.1741070747375488" fill="none" stroke="rgb(189, 58, 34)" stroke-opacity="0.13449034" stroke-linecap="round" stroke-linejoin="round"/>
    <path d="M 89.88282775878906 76.2838363647461 C 85.72740173339844 75.09435272216797 79.92790985107422 73.92071533203125 78.42987060546875 78.97450256347656 C 84.01200866699219 81.75220489501953 87.77629852294922 82.09976959228516 88.12528991699219 81.51412200927734" stroke-width="1.1741070747375488" fill="none" stroke="rgb(166, 168, 248)" stroke-opacity="0.6291717" stroke-linecap="round" stroke-linejoin="round"/>
    <path d="M 36.96608352661133 94.95781707763672 C 30.36229705810547 98.46144104003906 35.91632080078125 92.20364379882812 36.815147399902344 94.62562561035156 C 40.6475715637207 95.13489532470703 37.842586517333984 97.71227264404297 35.80933380126953 97.59870147705078" stroke-width="1.3926838636398315" fill="none" stroke="rgb(156, 215, 139)" stroke-opacity="0.4540487" stroke-linecap="round" stroke-linejoin="round"/>
    <path d="M 109.43962860107422 90.48295593261719 C 107.13691711425781 86.84213256835938 104.47901916503906 92.48584747314453 102.58792114257812 95.77288055419922 C 97.88349914550781 92.68660736083984 99.01679992675781 95.7017593383789 103.59346771240234 99.89691925048828" stroke-width="1.1741070747375488" fill="none" stroke="rgb(158, 5, 172)" stroke-opacity="0.8598504" stroke-linecap="round" stroke-linejoin="round"/>
  </g>
</svg>
