<?xml version="1.0" ?>
<svg xmlns="http://www.w3.org/2000/svg" version="1.1" width="956.0" height="956.0">
  <defs/>
  <g>
    <path d="M 531.1659545898438 542.1262817382812 C 498.6245422363281 622.499267578125 530.2947387695312 657.6168823242188 508.2115478515625 707.8347778320312" stroke-width="20.506969451904297" fill="none" stroke="rgb(32, 255, 3)" stroke-opacity="0.99209505" stroke-linecap="round" stroke-linejoin="round"/>
    <path d="M 329.785400390625 661.2899169921875 C 372.7328796386719 600.1032104492188 462.3152770996094 618.2487182617188 508.85870361328125 637.0758666992188 C 526.08349609375 596.9425048828125 564.7757568359375 572.0293579101562 628.4100952148438 564.5982666015625" stroke-width="9.337099075317383" fill="none" stroke="rgb(223, 5, 34)" stroke-opacity="0.8282756" stroke-linecap="round" stroke-linejoin="round"/>
    <path d="M 348.1567077636719 537.187744140625 C 347.6542053222656 706.3206176757812 316.7931213378906 636.4871826171875 308.51226806640625 771.182373046875" stroke-width="10.203673362731934" fill="none" stroke="rgb(81, 255, 17)" stroke-opacity="0.9546173" stroke-linecap="round" stroke-linejoin="round"/>
    <path d="M 560.5908203125 560.2290649414062 C 574.632568359375 666.01025390625 623.9223022460938 645.5653076171875 623.4529418945312 783.313720703125" stroke-width="8.535714149475098" fill="none" stroke="rgb(96, 255, 54)" stroke-opacity="0.89350593" stroke-linecap="round" stroke-linejoin="round"/>
    <path d="M 648.0687866210938 391.3389587402344 C 609.7840576171875 523.7340698242188 640.253173828125 664.2640380859375 677.875244140625 755.3327026367188" stroke-width="8.535714149475098" fill="none" stroke="rgb(0, 255, 64)" stroke-opacity="0.9357854" stroke-linecap="round" stroke-linejoin="round"/>
    <path d="M 301.2235107421875 662.4660034179688 C 404.3929138183594 691.1046752929688 499.2394714355469 700.1078491210938 577.0504150390625 667.7369995117188 C 630.9628295898438 664.85107421875 657.35107421875 687.4672241210938 717.0519409179688 685.6470947265625" stroke-width="8.535714149475098" fill="none" stroke="rgb(60, 255, 78)" stroke-opacity="0.8812424" stroke-linecap="round" stroke-linejoin="round"/>
    <path d="M 655.5591430664062 542.1708984375 C 649.3961791992188 468.6953125 671.7003784179688 408.7227783203125 659.653076171875 387.97027587890625 C 612.4224243164062 372.7295227050781 467.4806213378906 344.0585632324219 339.75372314453125 359.2960205078125 C 278.3100891113281 341.0804138183594 295.8366394042969 454.788330078125 306.2597961425781 512.326904296875 C 296.0016784667969 537.9759521484375 443.5966796875 530.8920288085938 563.385986328125 533.3836059570312" stroke-width="8.535714149475098" fill="none" stroke="rgb(255, 18, 56)" stroke-opacity="0.60717547" stroke-linecap="round" stroke-linejoin="round"/>
    <path d="M 597.5164794921875 403.4465026855469 C 602.1985473632812 405.74285888671875 509.7003173828125 385.509521484375 445.1682434082031 376.95526123046875 C 416.8443603515625 399.4267578125 369.28912353515625 447.8531188964844 359.513427734375 462.9132995605469 C 384.46807861328125 519.4983520507812 474.228759765625 503.3900146484375 641.6895141601562 458.7182312011719" stroke-width="8.535714149475098" fill="none" stroke="rgb(255, 31, 104)" stroke-opacity="0.40349835" stroke-linecap="round" stroke-linejoin="round"/>
    <path d="M 402.1501159667969 497.04534912109375 C 571.9739379882812 485.1836242675781 633.5130004882812 581.5348510742188 655.35302734375 427.8436584472656" stroke-width="29.132301330566406" fill="none" stroke="rgb(255, 16, 43)" stroke-opacity="0.9777223" stroke-linecap="round" stroke-linejoin="round"/>
    <path d="M 455.1620788574219 455.8409118652344 C 379.89129638671875 472.3564147949219 386.8851318359375 455.4354553222656 377.37542724609375 436.2059326171875 C 364.91644287109375 471.2090759277344 376.73876953125 439.9485168457031 373.9937744140625 442.7617492675781 C 354.6197509765625 462.0051574707031 365.5784606933594 491.511474609375 400.2513122558594 447.5052490234375 C 433.20379638671875 468.3686218261719 433.832763671875 404.8331298828125 413.9521789550781 420.73419189453125 C 390.2169494628906 373.60772705078125 379.8258361816406 294.1453857421875 370.5987854003906 283.64691162109375 C 450.9619445800781 247.7808837890625 457.66143798828125 298.1693420410156 495.3287048339844 286.8760070800781 C 513.2876586914062 298.5103759765625 560.5498657226562 303.699951171875 598.622314453125 315.913330078125 C 629.9081420898438 330.3717346191406 637.9236450195312 421.0121765136719 685.6069946289062 386.0435485839844 C 674.639404296875 288.6114807128906 682.0887451171875 144.8618927001953 681.3297729492188 113.48983001708984 C 647.4909057617188 83.46124267578125 601.2564086914062 132.3836212158203 642.690673828125 155.19540405273438 C 683.9135131835938 165.43414306640625 724.3274536132812 142.65870666503906 715.085693359375 32.001060485839844 C 735.7550659179688 20.41811752319336 581.0103759765625 -2.917550563812256 488.6512145996094 24.104122161865234 C 521.9089965820312 141.41151428222656 559.6239624023438 268.9964599609375 536.7781982421875 279.8923645019531 C 565.9622802734375 330.6039123535156 522.4945678710938 290.78729248046875 550.1184692382812 313.1984558105469 C 565.9280395507812 288.5761413574219 649.8876342773438 304.7728576660156 677.383056640625 336.3157653808594 C 703.8976440429688 364.43414306640625 699.8825073242188 427.8592834472656 670.8793334960938 410.95037841796875 C 641.6943359375 411.6768493652344 628.395263671875 355.8341979980469 648.172607421875 316.4776306152344" stroke-width="30.477750778198242" fill="none" stroke="rgb(255, 0, 68)" stroke-opacity="0.8477345" stroke-linecap="round" stroke-linejoin="round"/>
    <path d="M 369.12646484375 309.58721923828125 C 408.59619140625 285.4506530761719 481.73663330078125 300.087890625 470.06402587890625 279.9443664550781 C 506.93902587890625 256.11444091796875 445.57366943359375 249.9052276611328 422.8794860839844 269.63916015625 C 399.35455322265625 260.48394775390625 525.5352172851562 256.2439270019531 623.8832397460938 282.57647705078125" stroke-width="8.535714149475098" fill="none" stroke="rgb(133, 0, 53)" stroke-opacity="0.6264748" stroke-linecap="round" stroke-linejoin="round"/>
    <path d="M 400.74505615234375 463.01123046875 C 371.9390869140625 431.01055908203125 387.9345397949219 370.9926452636719 359.76116943359375 338.9705810546875 C 359.6603698730469 301.15081787109375 461.6335144042969 336.923583984375 454.6372375488281 428.482177734375" stroke-width="43.45807647705078" fill="none" stroke="rgb(255, 0, 46)" stroke-opacity="0.7158161" stroke-linecap="round" stroke-linejoin="round"/>
    <path d="M 553.5955810546875 434.7694091796875 C 620.9817504882812 478.0338134765625 627.3091430664062 535.6766357421875 620.33056640625 557.151123046875 C 634.919677734375 555.281982421875 590.5679931640625 532.9821166992188 611.2351684570312 438.72613525390625 C 643.6708374023438 409.2438049316406 530.0607299804688 448.9192810058594 509.40576171875 415.1258544921875" stroke-width="10.623786926269531" fill="none" stroke="rgb(255, 133, 167)" stroke-opacity="0.5276052" stroke-linecap="round" stroke-linejoin="round"/>
    <path d="M 715.7408447265625 424.3697204589844 C 726.0972900390625 388.1678161621094 711.895263671875 355.1858825683594 708.970703125 280.0077819824219 C 743.39453125 324.4023132324219 745.3161010742188 369.0685119628906 734.2283325195312 397.1483459472656 C 729.1532592773438 422.91046142578125 702.0430908203125 418.4796142578125 664.5143432617188 426.02008056640625" stroke-width="13.568708419799805" fill="none" stroke="rgb(99, 255, 168)" stroke-opacity="0.00093235506" stroke-linecap="round" stroke-linejoin="round"/>
    <path d="M 344.5578918457031 428.76849365234375 C 462.68243408203125 456.66949462890625 506.557373046875 466.04730224609375 532.5416870117188 498.62603759765625 C 507.073486328125 564.1915283203125 511.7745056152344 514.0734252929688 518.0767211914062 495.6926574707031" stroke-width="10.49122142791748" fill="none" stroke="rgb(254, 131, 150)" stroke-opacity="0.20219667" stroke-linecap="round" stroke-linejoin="round"/>
    <path d="M 673.8131103515625 239.10665893554688 C 676.1129760742188 356.3885498046875 694.7454833984375 319.1979675292969 606.5618286132812 319.1329040527344" stroke-width="8.535714149475098" fill="none" stroke="rgb(248, 20, 95)" stroke-opacity="0.32380852" stroke-linecap="round" stroke-linejoin="round"/>
    <path d="M 361.261962890625 459.7309265136719 C 345.4564208984375 445.4718933105469 347.9073486328125 511.1172790527344 377.18994140625 441.5335998535156" stroke-width="13.225251197814941" fill="none" stroke="rgb(196, 1, 43)" stroke-opacity="0.45107287" stroke-linecap="round" stroke-linejoin="round"/>
    <path d="M 403.0147399902344 519.4080200195312 C 370.6542053222656 495.3451843261719 375.59979248046875 546.4241333007812 405.2293701171875 610.8191528320312 C 468.51702880859375 638.8758544921875 426.75250244140625 566.476318359375 446.91009521484375 514.2769775390625 C 491.4738464355469 510.5454406738281 508.61285400390625 527.0296020507812 565.49560546875 532.5906372070312" stroke-width="8.535714149475098" fill="none" stroke="rgb(124, 142, 94)" stroke-opacity="0.0088117095" stroke-linecap="round" stroke-linejoin="round"/>
    <path d="M 344.974853515625 584.9887084960938 C 407.1903991699219 606.5707397460938 484.9871520996094 613.0341796875 518.7818603515625 651.60302734375 C 569.5056762695312 637.8506469726562 560.411865234375 690.0357055664062 544.7463989257812 749.2208862304688 C 576.5173950195312 752.7968139648438 585.6851196289062 716.1299438476562 583.1969604492188 703.577880859375" stroke-width="17.613733291625977" fill="none" stroke="rgb(255, 221, 220)" stroke-opacity="0.0" stroke-linecap="round" stroke-linejoin="round"/>
    <path d="M 504.1272277832031 200.09410095214844 C 529.2796630859375 199.14500427246094 494.1474914550781 203.89901733398438 442.4292297363281 206.53692626953125 C 411.1721496582031 194.7566680908203 473.5995178222656 209.94786071777344 512.2926025390625 243.46116638183594" stroke-width="21.189889907836914" fill="none" stroke="rgb(215, 255, 253)" stroke-opacity="0.0" stroke-linecap="round" stroke-linejoin="round"/>
    <path d="M 543.0533447265625 566.6064453125 C 542.1060180664062 579.2959594726562 522.1427612304688 544.4110717773438 508.0318908691406 532.7740478515625 C 542.2246704101562 533.3624877929688 541.46826171875 532.641845703125 493.71044921875 541.649658203125 C 489.62322998046875 552.337158203125 530.7079467773438 545.9664916992188 554.99462890625 585.3004760742188" stroke-width="32.020729064941406" fill="none" stroke="rgb(67, 255, 252)" stroke-opacity="0.16509609" stroke-linecap="round" stroke-linejoin="round"/>
    <path d="M 615.103271484375 316.9030456542969 C 592.1886596679688 334.2540588378906 580.2485961914062 333.8359069824219 583.6297607421875 303.98614501953125 C 558.3998413085938 302.269775390625 560.5578002929688 300.7216491699219 550.4400024414062 264.0956726074219 C 547.92822265625 232.7234344482422 542.3657836914062 306.8088684082031 502.8628234863281 406.336669921875" stroke-width="25.57050895690918" fill="none" stroke="rgb(255, 220, 110)" stroke-opacity="0.0" stroke-linecap="round" stroke-linejoin="round"/>
    <path d="M 718.2353515625 445.8377380371094 C 719.4454956054688 486.1773681640625 686.1866455078125 526.4171752929688 647.8825073242188 519.1229858398438 C 628.2958374023438 576.1561279296875 660.8068237304688 561.5675659179688 662.9263305664062 511.9468994140625 C 649.1484985351562 536.9780883789062 643.385498046875 595.7572021484375 646.5169677734375 620.552001953125" stroke-width="8.535714149475098" fill="none" stroke="rgb(111, 255, 42)" stroke-opacity="0.14016706" stroke-linecap="round" stroke-linejoin="round"/>
    <path d="M 596.0514526367188 283.1563720703125 C 648.5409545898438 283.31658935546875 654.426513671875 321.8892517089844 672.2215576171875 342.0889892578125 C 593.5183715820312 345.7507019042969 534.8721313476562 304.8623962402344 492.2545471191406 312.5718078613281 C 456.4054870605469 294.4397888183594 462.7261657714844 350.0136413574219 520.7372436523438 343.3965759277344" stroke-width="21.35819435119629" fill="none" stroke="rgb(247, 26, 105)" stroke-opacity="0.40577412" stroke-linecap="round" stroke-linejoin="round"/>
    <path d="M 294.3084411621094 439.137939453125 C 276.60302734375 392.58905029296875 304.22503662109375 398.64447021484375 299.7664794921875 395.5331726074219 C 283.1412048339844 409.2763977050781 278.43927001953125 461.2334899902344 292.7482604980469 516.6575317382812 C 355.3819580078125 519.9983520507812 328.22509765625 488.61102294921875 273.20166015625 441.64190673828125" stroke-width="12.461947441101074" fill="none" stroke="rgb(160, 245, 2)" stroke-opacity="0.018266795" stroke-linecap="round" stroke-linejoin="round"/>
    <path d="M 524.5990600585938 535.257080078125 C 519.8732299804688 576.3074340820312 407.9173278808594 557.0851440429688 327.01580810546875 597.091796875" stroke-width="36.9023323059082" fill="none" stroke="rgb(87, 255, 171)" stroke-opacity="0.0" stroke-linecap="round" stroke-linejoin="round"/>
    <path d="M 713.0906372070312 568.7623901367188 C 672.8125 567.8522338867188 647.1553955078125 574.9412231445312 608.1302490234375 593.367431640625 C 631.6998291015625 620.7142333984375 608.421875 617.677734375 581.6776733398438 615.2733154296875" stroke-width="8.535714149475098" fill="none" stroke="rgb(193, 218, 20)" stroke-opacity="0.0" stroke-linecap="round" stroke-linejoin="round"/>
    <path d="M 649.6585083007812 693.0538330078125 C 640.1901245117188 637.7549438476562 625.5505981445312 602.5225219726562 616.2559814453125 543.500244140625 C 625.402099609375 508.026611328125 618.588623046875 531.3365478515625 566.2500610351562 521.7597045898438" stroke-width="15.869449615478516" fill="none" stroke="rgb(194, 0, 70)" stroke-opacity="0.75153244" stroke-linecap="round" stroke-linejoin="round"/>
    <path d="M 155.05880737304688 539.68212890625 C 147.91708374023438 658.9863891601562 150.26707458496094 669.3857421875 165.8193817138672 578.2125854492188" stroke-width="36.63413619995117" fill="none" stroke="rgb(137, 255, 1)" stroke-opacity="0.51704556" stroke-linecap="round" stroke-linejoin="round"/>
    <path d="M 293.4095458984375 557.3336181640625 C 296.5408935546875 537.4638671875 304.0458984375 493.531005859375 295.53350830078125 489.45233154296875 C 295.96746826171875 491.0005187988281 290.94049072265625 468.8097229003906 298.49774169921875 486.9439697265625 C 275.29168701171875 462.57110595703125 269.5813293457031 459.0907287597656 285.2142333984375 450.834228515625" stroke-width="8.548821449279785" fill="none" stroke="rgb(232, 255, 100)" stroke-opacity="0.0" stroke-linecap="round" stroke-linejoin="round"/>
  </g>
</svg>
