<?xml version="1.0" ?>
<svg xmlns="http://www.w3.org/2000/svg" version="1.1" width="956.0" height="956.0">
  <defs/>
  <g>
    <path d="M 51.37468338012695 24.733564376831055 C 48.10926818847656 24.491283416748047 47.00194549560547 26.68079948425293 54.91584777832031 25.29823112487793 C 56.1156120300293 24.631576538085938 50.46363067626953 25.995929718017578 46.98249435424805 25.19654655456543 C 54.109683990478516 25.428272247314453 57.137542724609375 24.674667358398438 51.678916931152344 25.249103546142578 C 54.20314407348633 26.172271728515625 58.8246955871582 24.375324249267578 62.51865768432617 24.014501571655273 C 61.26987075805664 24.19287109375 63.01599884033203 23.79158592224121 69.7696304321289 22.361339569091797 C 73.71366882324219 24.281208038330078 67.24624633789062 21.31781578063965 61.465728759765625 34.42673110961914 C 72.50222778320312 37.70296859741211 69.86151123046875 38.70056915283203 68.5780258178711 39.03873062133789 C 69.0664291381836 53.28424835205078 70.39198303222656 61.93250274658203 71.4810791015625 59.843624114990234 C 69.67383575439453 55.51864242553711 65.6015853881836 58.775146484375 61.492942810058594 58.46086120605469 C 55.32842254638672 59.51451110839844 48.12653732299805 61.3575553894043 43.595157623291016 62.3896369934082 C 45.74753189086914 63.38385009765625 44.05331802368164 63.66351318359375 44.02058410644531 69.75810241699219 C 43.139076232910156 60.08189010620117 45.177085876464844 50.42566680908203 39.89389419555664 54.666927337646484" stroke-width="3.1421701908111572" fill="none" stroke="rgb(146, 8, 3)" stroke-opacity="0.627689" stroke-linecap="round" stroke-linejoin="round"/>
    <path d="M 46.45551300048828 29.285518646240234 C 45.351627349853516 24.152441024780273 44.81925964355469 7.961704730987549 46.039894104003906 9.89478874206543" stroke-width="1.1122997999191284" fill="none" stroke="rgb(53, 50, 69)" stroke-opacity="0.44386938" stroke-linecap="round" stroke-linejoin="round"/>
    <path d="M 50.25121307373047 25.666011810302734 C 46.4918212890625 26.397001266479492 50.70015335083008 22.68972396850586 63.230709075927734 21.312591552734375" stroke-width="2.3859214782714844" fill="none" stroke="rgb(255, 148, 151)" stroke-opacity="0.50010973" stroke-linecap="round" stroke-linejoin="round"/>
    <path d="M 49.435951232910156 65.35230255126953 C 52.272369384765625 59.00250244140625 40.05250930786133 58.95093536376953 44.73179244995117 62.98898696899414" stroke-width="1.6779543161392212" fill="none" stroke="rgb(224, 76, 53)" stroke-opacity="0.84410846" stroke-linecap="round" stroke-linejoin="round"/>
    <path d="M 47.44607925415039 20.565576553344727 C 47.40022277832031 29.204423904418945 49.84307098388672 26.42734718322754 56.32322311401367 26.27674102783203" stroke-width="1.0892857313156128" fill="none" stroke="rgb(67, 80, 161)" stroke-opacity="0.121334665" stroke-linecap="round" stroke-linejoin="round"/>
    <path d="M 45.60374069213867 70.2822036743164 C 43.62370300292969 77.84428405761719 42.5395622253418 66.92938232421875 50.04957962036133 57.643375396728516 C 48.52294158935547 50.2784423828125 44.73934555053711 55.27724075317383 39.666236877441406 48.925167083740234" stroke-width="2.185265064239502" fill="none" stroke="rgb(64, 126, 145)" stroke-opacity="0.44676572" stroke-linecap="round" stroke-linejoin="round"/>
    <path d="M 66.71358489990234 58.594459533691406 C 70.99213409423828 62.07447814941406 72.89732360839844 58.40340042114258 67.66547393798828 52.06319808959961 C 71.09571075439453 54.00090789794922 74.26587677001953 56.612831115722656 66.16996765136719 57.03913879394531" stroke-width="1.657797932624817" fill="none" stroke="rgb(244, 171, 86)" stroke-opacity="0.15397292" stroke-linecap="round" stroke-linejoin="round"/>
    <path d="M 50.46250915527344 26.78849983215332 C 45.56744384765625 28.036155700683594 43.880462646484375 23.897546768188477 43.833309173583984 30.7666072845459" stroke-width="1.095590353012085" fill="none" stroke="rgb(33, 220, 90)" stroke-opacity="0.00030959785" stroke-linecap="round" stroke-linejoin="round"/>
    <path d="M 58.250701904296875 59.526615142822266 C 65.43131256103516 60.14516067504883 61.48181915283203 62.90321350097656 68.0411148071289 58.438560485839844 C 81.5735092163086 66.21856689453125 77.04154968261719 64.4271240234375 62.63700866699219 58.63125991821289 C 65.596923828125 69.83735656738281 68.46217346191406 70.99312591552734 63.261260986328125 60.52317428588867" stroke-width="1.5659775733947754" fill="none" stroke="rgb(153, 64, 40)" stroke-opacity="0.6554538" stroke-linecap="round" stroke-linejoin="round"/>
    <path d="M 72.32208251953125 55.20035171508789 C 80.31497955322266 50.011962890625 74.07212829589844 60.081417083740234 77.58688354492188 65.22515869140625 C 76.2714614868164 61.39241027832031 74.7200698852539 54.43217468261719 75.4115219116211 35.046409606933594" stroke-width="1.201197862625122" fill="none" stroke="rgb(56, 76, 82)" stroke-opacity="0.5479583" stroke-linecap="round" stroke-linejoin="round"/>
    <path d="M 37.53240203857422 63.666770935058594 C 36.229347229003906 61.59592056274414 44.67542266845703 66.43984985351562 35.956092834472656 76.67340087890625 C 35.70085525512695 65.0243911743164 38.16081237792969 65.42316436767578 37.20027542114258 73.1410903930664 C 44.16440200805664 72.79096984863281 46.06719207763672 76.44498443603516 50.32269287109375 76.64900970458984" stroke-width="1.1536190509796143" fill="none" stroke="rgb(154, 234, 152)" stroke-opacity="0.3513674" stroke-linecap="round" stroke-linejoin="round"/>
    <path d="M 56.95937728881836 18.48093605041504 C 52.443050384521484 17.627212524414062 52.222713470458984 20.575000762939453 52.143218994140625 13.726531028747559 C 54.25696563720703 13.880989074707031 54.1264762878418 13.979789733886719 56.301246643066406 13.334893226623535 C 55.959617614746094 15.6896390914917 56.48954772949219 11.447861671447754 56.03266906738281 17.11007308959961" stroke-width="2.283320188522339" fill="none" stroke="rgb(174, 23, 38)" stroke-opacity="0.6674596" stroke-linecap="round" stroke-linejoin="round"/>
    <path d="M 47.677860260009766 9.600687980651855 C 49.48218536376953 7.195544719696045 53.80072784423828 2.8866190910339355 66.08589935302734 3.278245449066162 C 66.5095443725586 -1.0909100770950317 62.508426666259766 -5.247148513793945 63.773956298828125 -9.166692733764648 C 53.25887680053711 -5.090322494506836 56.668670654296875 0.6039246916770935 57.05274963378906 -3.6969311237335205" stroke-width="1.0892857313156128" fill="none" stroke="rgb(3, 244, 174)" stroke-opacity="0.13689937" stroke-linecap="round" stroke-linejoin="round"/>
    <path d="M 50.96589660644531 28.898860931396484 C 50.19025802612305 25.90892219543457 57.07914733886719 25.46489143371582 52.19562530517578 33.201900482177734 C 50.492576599121094 23.38247299194336 49.401092529296875 33.94736099243164 51.758575439453125 38.64469528198242 C 59.1695442199707 38.740478515625 58.07125473022461 39.591705322265625 50.7779541015625 39.74708557128906" stroke-width="1.2834385633468628" fill="none" stroke="rgb(60, 144, 163)" stroke-opacity="0.67346746" stroke-linecap="round" stroke-linejoin="round"/>
    <path d="M 35.07826232910156 76.2236099243164 C 35.585716247558594 63.270023345947266 35.10780715942383 63.04130935668945 34.997982025146484 65.38932037353516 C 35.14861297607422 73.58890533447266 33.3248291015625 71.26998901367188 34.3145866394043 70.18862915039062" stroke-width="1.5392498970031738" fill="none" stroke="rgb(82, 93, 111)" stroke-opacity="0.55999535" stroke-linecap="round" stroke-linejoin="round"/>
    <path d="M 34.00938415527344 55.229129791259766 C 33.146156311035156 43.137184143066406 36.963016510009766 39.26603317260742 38.077613830566406 44.293758392333984" stroke-width="2.8962535858154297" fill="none" stroke="rgb(255, 26, 0)" stroke-opacity="1.0" stroke-linecap="round" stroke-linejoin="round"/>
    <path d="M 37.10029220581055 49.087860107421875 C 49.613243103027344 56.167518615722656 48.156585693359375 47.12649154663086 43.27418518066406 43.916622161865234 C 40.293766021728516 45.35023498535156 51.435420989990234 44.77888107299805 40.616092681884766 41.79014587402344" stroke-width="8.399486541748047" fill="none" stroke="rgb(255, 24, 0)" stroke-opacity="1.0" stroke-linecap="round" stroke-linejoin="round"/>
    <path d="M 92.18618774414062 45.956390380859375 C 92.7039566040039 53.55067825317383 94.86199951171875 54.37438201904297 94.97284698486328 60.714996337890625" stroke-width="1.2009642124176025" fill="none" stroke="rgb(57, 217, 145)" stroke-opacity="0.7072257" stroke-linecap="round" stroke-linejoin="round"/>
    <path d="M 38.52962112426758 17.36629295349121 C 39.93907165527344 5.965753555297852 40.973106384277344 5.041295528411865 47.71005630493164 3.0911667346954346 C 49.06072998046875 3.5820107460021973 49.71184539794922 3.3510262966156006 58.80454635620117 2.2108588218688965 C 52.074527740478516 4.942780017852783 43.07997131347656 5.006312847137451 43.940250396728516 7.432436466217041" stroke-width="2.128753185272217" fill="none" stroke="rgb(9, 191, 86)" stroke-opacity="0.21269618" stroke-linecap="round" stroke-linejoin="round"/>
    <path d="M 68.0223388671875 89.43809509277344 C 56.10232162475586 90.09809875488281 50.768882751464844 97.52487182617188 60.06169891357422 86.22471618652344" stroke-width="3.6252825260162354" fill="none" stroke="rgb(4, 228, 124)" stroke-opacity="0.21413115" stroke-linecap="round" stroke-linejoin="round"/>
    <path d="M 38.253807067871094 52.34413528442383 C 44.382354736328125 50.26896667480469 47.0521240234375 50.43186950683594 47.0472526550293 51.298431396484375 C 46.22983932495117 47.71665573120117 45.37523651123047 52.26216506958008 47.42970275878906 50.445247650146484 C 49.96341323852539 47.67959213256836 45.30815887451172 51.30691909790039 43.80530548095703 50.46684646606445" stroke-width="1.1087945699691772" fill="none" stroke="rgb(255, 172, 131)" stroke-opacity="0.31655753" stroke-linecap="round" stroke-linejoin="round"/>
    <path d="M 17.411378860473633 76.0464096069336 C 9.068662643432617 80.9562759399414 12.622588157653809 79.55130767822266 5.1711955070495605 84.59159088134766" stroke-width="1.5514025688171387" fill="none" stroke="rgb(48, 43, 53)" stroke-opacity="0.3273616" stroke-linecap="round" stroke-linejoin="round"/>
    <path d="M 28.573715209960938 71.05206298828125 C 32.19874954223633 78.0353012084961 34.21818923950195 73.22520446777344 25.66460418701172 75.42440032958984 C 23.339563369750977 77.39168548583984 19.08927345275879 79.00410461425781 15.29488468170166 84.66222381591797" stroke-width="1.7296708822250366" fill="none" stroke="rgb(97, 255, 133)" stroke-opacity="0.42356655" stroke-linecap="round" stroke-linejoin="round"/>
    <path d="M 32.42052459716797 110.01609802246094 C 40.78960037231445 111.71057891845703 46.28639221191406 114.5476303100586 40.38022994995117 113.48760986328125 C 48.35856628417969 115.64563751220703 54.77349853515625 119.19293975830078 58.56498718261719 123.25736236572266 C 62.17427444458008 125.03324890136719 59.44670104980469 120.43360137939453 73.0402603149414 122.94463348388672" stroke-width="2.7960031032562256" fill="none" stroke="rgb(133, 114, 121)" stroke-opacity="0.33568382" stroke-linecap="round" stroke-linejoin="round"/>
    <path d="M 83.31659698486328 71.4252700805664 C 78.48596954345703 61.1473274230957 78.83193969726562 72.62623596191406 76.89730834960938 64.90872192382812" stroke-width="2.9929068088531494" fill="none" stroke="rgb(12, 181, 67)" stroke-opacity="0.40705627" stroke-linecap="round" stroke-linejoin="round"/>
    <path d="M 98.74480438232422 55.880104064941406 C 97.45906066894531 57.492305755615234 104.35391998291016 57.06234359741211 105.56574249267578 63.379547119140625 C 107.6622543334961 64.53761291503906 104.97393798828125 57.598384857177734 101.09994506835938 60.84210205078125" stroke-width="2.7708137035369873" fill="none" stroke="rgb(83, 214, 14)" stroke-opacity="0.28109434" stroke-linecap="round" stroke-linejoin="round"/>
    <path d="M 58.67745590209961 85.9210205078125 C 48.65359115600586 88.87368774414062 45.530616760253906 93.25605773925781 41.57950210571289 94.31430053710938" stroke-width="1.1990922689437866" fill="none" stroke="rgb(111, 136, 3)" stroke-opacity="0.24815647" stroke-linecap="round" stroke-linejoin="round"/>
    <path d="M 40.94308090209961 18.57259750366211 C 44.83848190307617 9.207186698913574 41.1414909362793 15.601919174194336 38.913246154785156 16.705299377441406 C 38.96897888183594 22.686279296875 41.085174560546875 15.34058666229248 39.87925720214844 22.535078048706055 C 40.47465896606445 27.26494598388672 37.81880569458008 21.36686134338379 33.002708435058594 5.361521244049072" stroke-width="1.5983238220214844" fill="none" stroke="rgb(118, 242, 176)" stroke-opacity="0.35804662" stroke-linecap="round" stroke-linejoin="round"/>
    <path d="M 116.42354583740234 9.603190422058105 C 118.0243911743164 7.759932518005371 110.85311889648438 13.482319831848145 105.3198471069336 25.665210723876953" stroke-width="4.18435001373291" fill="none" stroke="rgb(1, 255, 179)" stroke-opacity="0.20079516" stroke-linecap="round" stroke-linejoin="round"/>
    <path d="M 115.70396423339844 63.62450408935547 C 111.6059799194336 57.55864715576172 110.5113296508789 56.39846420288086 107.83949279785156 54.100502014160156 C 111.98617553710938 57.88203048706055 112.13862609863281 57.40403747558594 104.6330337524414 48.69133377075195" stroke-width="1.0892857313156128" fill="none" stroke="rgb(101, 90, 101)" stroke-opacity="0.4278477" stroke-linecap="round" stroke-linejoin="round"/>
    <path d="M 87.11727905273438 24.153884887695312 C 87.23512268066406 25.7198543548584 87.0728530883789 22.36044692993164 91.71399688720703 6.580556392669678 C 98.96402740478516 2.853555202484131 93.5579833984375 13.839877128601074 95.2563247680664 22.193235397338867" stroke-width="1.102447509765625" fill="none" stroke="rgb(36, 104, 81)" stroke-opacity="0.20023325" stroke-linecap="round" stroke-linejoin="round"/>
    <path d="M 51.155948638916016 63.00716781616211 C 70.45973205566406 63.93289566040039 73.74555206298828 63.824947357177734 72.61186981201172 59.974822998046875 C 75.1933364868164 62.66313171386719 70.56279754638672 57.23963928222656 76.95879364013672 61.040557861328125 C 72.91561126708984 61.62276840209961 80.71175384521484 64.18038177490234 89.31644439697266 67.70672607421875" stroke-width="1.0892857313156128" fill="none" stroke="rgb(143, 161, 167)" stroke-opacity="0.90820783" stroke-linecap="round" stroke-linejoin="round"/>
    <path d="M 52.192596435546875 36.758087158203125 C 65.28611755371094 37.854827880859375 67.97323608398438 35.963478088378906 71.01969146728516 34.25502395629883 C 71.2915267944336 41.20098876953125 81.70356750488281 17.657024383544922 71.22936248779297 22.327486038208008" stroke-width="4.086770534515381" fill="none" stroke="rgb(248, 24, 39)" stroke-opacity="0.82496744" stroke-linecap="round" stroke-linejoin="round"/>
  </g>
</svg>
