<?xml version="1.0" ?>
<svg xmlns="http://www.w3.org/2000/svg" version="1.1" width="925.0" height="925.0">
  <defs/>
  <g>
    <path d="M 401.7103271484375 562.2105712890625 C 416.04278564453125 567.8482666015625 418.3802490234375 574.2153930664062 410.8645935058594 561.3969116210938 C 407.2825927734375 552.2349243164062 413.5322265625 532.3360595703125 416.412353515625 507.984619140625 C 411.92816162109375 482.0185241699219 408.2904968261719 472.6322937011719 392.4117126464844 474.62420654296875" stroke-width="16.631820678710938" fill="none" stroke="rgb(40, 0, 0)" stroke-opacity="1.0" stroke-linecap="round" stroke-linejoin="round"/>
    <path d="M 384.7764587402344 386.2900695800781 C 386.7503356933594 359.3362121582031 381.2005615234375 354.274658203125 383.9277038574219 347.2764587402344 C 393.1414794921875 343.50653076171875 416.0709228515625 338.0166015625 433.1827697753906 341.4340515136719 C 454.7411193847656 341.2165222167969 445.6417541503906 350.011962890625 443.4708557128906 374.472412109375" stroke-width="8.258928298950195" fill="none" stroke="rgb(49, 39, 17)" stroke-opacity="0.8659867" stroke-linecap="round" stroke-linejoin="round"/>
    <path d="M 469.19049072265625 350.85333251953125 C 465.1163024902344 352.84674072265625 460.95587158203125 336.1783142089844 471.93115234375 351.5462951660156 C 482.33563232421875 345.81072998046875 485.7049255371094 346.1719055175781 502.8528137207031 350.2813720703125" stroke-width="8.844972610473633" fill="none" stroke="rgb(46, 54, 4)" stroke-opacity="0.8425395" stroke-linecap="round" stroke-linejoin="round"/>
    <path d="M 527.4229125976562 349.589111328125 C 524.754638671875 353.3436279296875 521.248046875 362.2227478027344 517.78125 383.8296203613281 C 526.42041015625 390.2600402832031 527.2496948242188 372.5596618652344 518.2555541992188 372.4102478027344 C 515.8015747070312 374.66033935546875 520.5277709960938 390.7170104980469 513.241455078125 402.9186706542969" stroke-width="8.258928298950195" fill="none" stroke="rgb(44, 51, 23)" stroke-opacity="0.8642338" stroke-linecap="round" stroke-linejoin="round"/>
    <path d="M 507.384033203125 389.9012451171875 C 496.06634521484375 379.7394104003906 479.9288330078125 380.2619934082031 441.1835021972656 374.6265563964844" stroke-width="11.790135383605957" fill="none" stroke="rgb(40, 41, 16)" stroke-opacity="0.91716605" stroke-linecap="round" stroke-linejoin="round"/>
    <path d="M 433.2384338378906 365.2936706542969 C 440.4390563964844 349.2876281738281 439.42425537109375 338.1646728515625 425.9225158691406 325.8670349121094" stroke-width="9.69499683380127" fill="none" stroke="rgb(46, 32, 6)" stroke-opacity="0.89659" stroke-linecap="round" stroke-linejoin="round"/>
    <path d="M 433.5296936035156 318.4129333496094 C 422.8484191894531 301.2255859375 423.00213623046875 278.77142333984375 410.6476135253906 257.9313659667969" stroke-width="12.959540367126465" fill="none" stroke="rgb(33, 54, 0)" stroke-opacity="0.9407437" stroke-linecap="round" stroke-linejoin="round"/>
    <path d="M 403.5843200683594 259.20947265625 C 400.8048095703125 240.51242065429688 388.18084716796875 223.8458251953125 400.7073974609375 187.3500518798828" stroke-width="8.258928298950195" fill="none" stroke="rgb(38, 56, 3)" stroke-opacity="0.895883" stroke-linecap="round" stroke-linejoin="round"/>
    <path d="M 641.6437377929688 315.19378662109375 C 647.0911865234375 297.075439453125 654.772216796875 289.96240234375 663.3441772460938 305.8135070800781 C 664.226318359375 297.92230224609375 660.6839599609375 315.4161376953125 657.4743041992188 338.2246398925781 C 655.424072265625 358.16912841796875 656.3468017578125 369.5110168457031 656.674072265625 380.6628112792969" stroke-width="8.258928298950195" fill="none" stroke="rgb(50, 13, 28)" stroke-opacity="0.88258094" stroke-linecap="round" stroke-linejoin="round"/>
    <path d="M 660.1648559570312 403.72052001953125 C 656.2340087890625 398.8232116699219 651.4597778320312 419.13323974609375 656.281494140625 420.1580505371094" stroke-width="8.258928298950195" fill="none" stroke="rgb(34, 35, 30)" stroke-opacity="0.8943809" stroke-linecap="round" stroke-linejoin="round"/>
    <path d="M 647.7109375 500.72052001953125 C 646.2098388671875 499.8471374511719 639.1397094726562 499.6478576660156 640.8383178710938 508.152587890625 C 635.3290405273438 510.0409240722656 631.8154907226562 519.998046875 619.4889526367188 534.12353515625" stroke-width="8.258928298950195" fill="none" stroke="rgb(51, 29, 26)" stroke-opacity="0.8637581" stroke-linecap="round" stroke-linejoin="round"/>
    <path d="M 602.433837890625 508.6504211425781 C 593.4025268554688 507.1365661621094 578.1138916015625 497.1064758300781 579.8041381835938 502.8136901855469" stroke-width="8.258928298950195" fill="none" stroke="rgb(68, 51, 20)" stroke-opacity="0.880857" stroke-linecap="round" stroke-linejoin="round"/>
    <path d="M 493.2095031738281 387.4796142578125 C 494.5428771972656 386.4725036621094 494.2794189453125 388.43731689453125 493.6107482910156 384.2721862792969 C 485.4219665527344 385.1883544921875 494.89801025390625 357.57135009765625 505.8889465332031 336.3297424316406" stroke-width="8.258928298950195" fill="none" stroke="rgb(76, 46, 4)" stroke-opacity="0.6814567" stroke-linecap="round" stroke-linejoin="round"/>
    <path d="M 512.0518798828125 343.2142333984375 C 549.3142700195312 351.5074768066406 549.0556030273438 347.9653015136719 542.6172485351562 349.1824035644531" stroke-width="11.534783363342285" fill="none" stroke="rgb(38, 73, 0)" stroke-opacity="0.7399641" stroke-linecap="round" stroke-linejoin="round"/>
    <path d="M 526.0806884765625 362.3115539550781 C 530.29736328125 378.57293701171875 491.42095947265625 354.0730895996094 502.3013610839844 366.2643127441406" stroke-width="9.829632759094238" fill="none" stroke="rgb(227, 129, 132)" stroke-opacity="0.5929608" stroke-linecap="round" stroke-linejoin="round"/>
    <path d="M 519.8654174804688 372.0345153808594 C 528.1414184570312 353.8880310058594 521.0416870117188 361.70654296875 512.4053344726562 371.917724609375" stroke-width="8.258928298950195" fill="none" stroke="rgb(67, 205, 161)" stroke-opacity="0.57021856" stroke-linecap="round" stroke-linejoin="round"/>
    <path d="M 507.859375 315.12591552734375 C 504.78790283203125 311.5417785644531 490.69110107421875 318.5198669433594 477.58465576171875 311.4140930175781 C 470.4792175292969 307.89971923828125 467.99853515625 310.7447814941406 470.6792297363281 319.8315734863281" stroke-width="9.939549446105957" fill="none" stroke="rgb(50, 182, 124)" stroke-opacity="0.65882766" stroke-linecap="round" stroke-linejoin="round"/>
    <path d="M 496.9522705078125 323.6046447753906 C 503.476806640625 301.5025329589844 491.3901062011719 302.9151611328125 526.0552368164062 298.0010986328125" stroke-width="9.183609962463379" fill="none" stroke="rgb(35, 157, 143)" stroke-opacity="0.67759764" stroke-linecap="round" stroke-linejoin="round"/>
    <path d="M 639.9629516601562 300.6597595214844 C 702.5357055664062 322.3638000488281 751.1973876953125 342.2165832519531 768.8975830078125 337.8526611328125 C 777.5402221679688 328.9002990722656 761.6439208984375 298.4703063964844 730.8677368164062 282.4604187011719 C 715.1417846679688 257.3949890136719 735.2857666015625 281.6324462890625 737.149169921875 321.48626708984375" stroke-width="8.258928298950195" fill="none" stroke="rgb(86, 59, 151)" stroke-opacity="0.57021236" stroke-linecap="round" stroke-linejoin="round"/>
    <path d="M 398.5712585449219 529.0069580078125 C 393.4661865234375 502.62646484375 390.0887145996094 477.7565612792969 388.252685546875 449.6738586425781 C 362.58880615234375 435.6048583984375 381.82684326171875 495.2696228027344 393.7273254394531 555.4584350585938" stroke-width="15.515217781066895" fill="none" stroke="rgb(249, 24, 32)" stroke-opacity="0.9130045" stroke-linecap="round" stroke-linejoin="round"/>
    <path d="M 632.9153442382812 384.2028503417969 C 628.1371459960938 344.05908203125 626.3419799804688 322.07867431640625 629.8328247070312 312.8577880859375 C 636.86962890625 286.1204528808594 605.036865234375 307.0321350097656 582.5518798828125 336.7721862792969" stroke-width="8.258928298950195" fill="none" stroke="rgb(114, 26, 187)" stroke-opacity="0.68340087" stroke-linecap="round" stroke-linejoin="round"/>
    <path d="M 655.3333740234375 302.2571716308594 C 609.7404174804688 302.9161376953125 607.1240234375 323.5712585449219 605.6768798828125 370.8365783691406" stroke-width="11.174260139465332" fill="none" stroke="rgb(97, 67, 147)" stroke-opacity="0.6849682" stroke-linecap="round" stroke-linejoin="round"/>
    <path d="M 608.7266235351562 388.87591552734375 C 606.8785400390625 394.12615966796875 598.474609375 400.37310791015625 589.3251953125 391.173095703125 C 617.3768310546875 403.9762878417969 650.9520263671875 403.2602844238281 674.6775512695312 403.4947509765625 C 697.4724731445312 400.84149169921875 683.5264282226562 391.7481689453125 687.41357421875 398.7791442871094" stroke-width="8.258928298950195" fill="none" stroke="rgb(101, 51, 142)" stroke-opacity="0.67775863" stroke-linecap="round" stroke-linejoin="round"/>
    <path d="M 682.780517578125 396.7240905761719 C 680.3936157226562 418.02801513671875 680.0349731445312 429.06915283203125 689.2304077148438 438.1598205566406" stroke-width="8.259638786315918" fill="none" stroke="rgb(95, 67, 136)" stroke-opacity="0.70491546" stroke-linecap="round" stroke-linejoin="round"/>
    <path d="M 541.4262084960938 408.8679504394531 C 550.502197265625 403.7680969238281 555.6338500976562 400.98028564453125 567.059814453125 401.72247314453125 C 572.2410888671875 393.5736083984375 561.7120971679688 393.4366149902344 561.4486694335938 405.6436767578125" stroke-width="9.885762214660645" fill="none" stroke="rgb(3, 144, 95)" stroke-opacity="0.71466583" stroke-linecap="round" stroke-linejoin="round"/>
    <path d="M 515.4357299804688 311.268310546875 C 502.687255859375 306.3688659667969 497.1822814941406 319.26202392578125 488.6225280761719 348.2947998046875" stroke-width="9.959654808044434" fill="none" stroke="rgb(44, 147, 159)" stroke-opacity="0.7903587" stroke-linecap="round" stroke-linejoin="round"/>
    <path d="M 497.3269958496094 342.554443359375 C 488.1070556640625 352.0215759277344 476.0333557128906 370.63873291015625 483.6037902832031 383.1402893066406" stroke-width="8.258928298950195" fill="none" stroke="rgb(71, 162, 149)" stroke-opacity="0.6988407" stroke-linecap="round" stroke-linejoin="round"/>
    <path d="M 750.2486572265625 309.44488525390625 C 759.0674438476562 307.93701171875 769.602783203125 300.243896484375 775.5974731445312 294.9530944824219 C 794.474609375 298.29449462890625 780.4258422851562 321.725830078125 755.6238403320312 342.4458923339844" stroke-width="11.356268882751465" fill="none" stroke="rgb(180, 63, 40)" stroke-opacity="0.7465689" stroke-linecap="round" stroke-linejoin="round"/>
    <path d="M 499.9153137207031 370.28424072265625 C 514.7221069335938 378.76190185546875 511.0970458984375 388.1620788574219 502.6600341796875 411.146728515625" stroke-width="8.258928298950195" fill="none" stroke="rgb(39, 228, 232)" stroke-opacity="0.66459924" stroke-linecap="round" stroke-linejoin="round"/>
    <path d="M 578.4983520507812 353.9804382324219 C 583.0219116210938 366.5495910644531 579.98974609375 381.1058044433594 567.990234375 386.6544189453125" stroke-width="14.436192512512207" fill="none" stroke="rgb(209, 3, 89)" stroke-opacity="0.7255319" stroke-linecap="round" stroke-linejoin="round"/>
    <path d="M 718.9064331054688 303.12677001953125 C 741.6146850585938 305.9285583496094 765.2536010742188 308.1747131347656 766.1542358398438 299.10089111328125 C 765.2902221679688 295.6086730957031 742.8275146484375 290.6211853027344 707.5054321289062 290.7393798828125 C 686.9559936523438 273.8365173339844 739.3519897460938 280.0489196777344 791.4440307617188 294.6419677734375" stroke-width="16.2315616607666" fill="none" stroke="rgb(0, 160, 172)" stroke-opacity="0.84795505" stroke-linecap="round" stroke-linejoin="round"/>
    <path d="M 532.435546875 387.1573181152344 C 523.6742553710938 384.2695617675781 517.6063842773438 364.858642578125 523.0137939453125 345.223388671875" stroke-width="13.149140357971191" fill="none" stroke="rgb(95, 245, 151)" stroke-opacity="0.7083529" stroke-linecap="round" stroke-linejoin="round"/>
    <path d="M 527.6875 354.3945007324219 C 542.6314086914062 336.3504333496094 544.8649291992188 303.79052734375 552.81494140625 277.3565673828125 C 565.7559204101562 272.3394775390625 559.65234375 249.63656616210938 559.8568115234375 229.28298950195312 C 552.3260498046875 216.9584503173828 542.2431640625 239.35076904296875 525.3770751953125 257.8566589355469" stroke-width="9.068556785583496" fill="none" stroke="rgb(65, 234, 158)" stroke-opacity="0.7297191" stroke-linecap="round" stroke-linejoin="round"/>
    <path d="M 511.0957336425781 257.94122314453125 C 498.06622314453125 283.22967529296875 487.6316833496094 276.94317626953125 468.69244384765625 289.417236328125" stroke-width="18.305997848510742" fill="none" stroke="rgb(52, 201, 121)" stroke-opacity="0.7943207" stroke-linecap="round" stroke-linejoin="round"/>
    <path d="M 443.4857177734375 377.3553466796875 C 436.0453186035156 360.893310546875 423.36260986328125 368.7347717285156 415.4139404296875 379.77996826171875" stroke-width="8.361411094665527" fill="none" stroke="rgb(63, 218, 164)" stroke-opacity="0.67083013" stroke-linecap="round" stroke-linejoin="round"/>
    <path d="M 460.2691345214844 462.072998046875 C 441.0835266113281 455.7359619140625 428.7214050292969 461.7613220214844 414.0077819824219 460.765625 C 407.77886962890625 465.6637268066406 407.68133544921875 463.74102783203125 412.3516540527344 463.429443359375" stroke-width="8.258928298950195" fill="none" stroke="rgb(58, 195, 182)" stroke-opacity="0.6850837" stroke-linecap="round" stroke-linejoin="round"/>
    <path d="M 868.0197143554688 305.59002685546875 C 855.8923950195312 318.71160888671875 870.7698974609375 371.56390380859375 859.0819702148438 293.9713439941406" stroke-width="10.097859382629395" fill="none" stroke="rgb(114, 1, 255)" stroke-opacity="0.6591625" stroke-linecap="round" stroke-linejoin="round"/>
    <path d="M 454.8768615722656 175.76022338867188 C 433.1131896972656 203.9785919189453 448.7543029785156 247.94374084472656 475.66326904296875 233.96267700195312" stroke-width="11.174131393432617" fill="none" stroke="rgb(0, 219, 226)" stroke-opacity="0.71426356" stroke-linecap="round" stroke-linejoin="round"/>
    <path d="M 746.1849365234375 833.712158203125 C 732.0897216796875 833.7718505859375 722.6613159179688 843.0537719726562 710.7522583007812 855.5386352539062 C 693.2423095703125 865.0773315429688 705.4666748046875 846.6214599609375 714.8848266601562 832.223388671875" stroke-width="8.258928298950195" fill="none" stroke="rgb(68, 57, 136)" stroke-opacity="0.6478851" stroke-linecap="round" stroke-linejoin="round"/>
    <path d="M 97.68392181396484 632.2318725585938 C 95.64384460449219 619.086181640625 94.67086029052734 604.33056640625 94.49244689941406 604.1432495117188 C 93.9004135131836 604.3716430664062 98.2010269165039 612.7098999023438 100.10330200195312 623.1857299804688 C 103.88919067382812 632.6636352539062 75.78965759277344 592.1310424804688 48.9032096862793 545.86083984375" stroke-width="8.258928298950195" fill="none" stroke="rgb(235, 103, 119)" stroke-opacity="0.64370036" stroke-linecap="round" stroke-linejoin="round"/>
    <path d="M 652.1621704101562 196.4528045654297 C 647.4288330078125 221.5648956298828 633.886474609375 217.48995971679688 632.1027221679688 219.37574768066406" stroke-width="8.258928298950195" fill="none" stroke="rgb(171, 32, 63)" stroke-opacity="0.6882701" stroke-linecap="round" stroke-linejoin="round"/>
    <path d="M 619.1904296875 233.44668579101562 C 609.5826416015625 237.6224365234375 604.06298828125 218.9191131591797 602.4490966796875 191.5470428466797" stroke-width="8.258928298950195" fill="none" stroke="rgb(183, 39, 66)" stroke-opacity="0.6593961" stroke-linecap="round" stroke-linejoin="round"/>
    <path d="M 236.64556884765625 214.48146057128906 C 228.98660278320312 201.36773681640625 229.47402954101562 194.95352172851562 236.48646545410156 206.7873992919922 C 241.15231323242188 204.2744598388672 248.26844787597656 175.37411499023438 244.387939453125 130.61959838867188" stroke-width="11.865511894226074" fill="none" stroke="rgb(198, 37, 224)" stroke-opacity="0.66619664" stroke-linecap="round" stroke-linejoin="round"/>
    <path d="M 564.51953125 597.8419189453125 C 564.7339477539062 628.7210083007812 556.9395751953125 647.4812622070312 533.8444213867188 653.8007202148438 C 526.6618041992188 672.1942749023438 530.9911499023438 696.6282348632812 525.9246215820312 721.0210571289062" stroke-width="9.006436347961426" fill="none" stroke="rgb(81, 123, 46)" stroke-opacity="0.693417" stroke-linecap="round" stroke-linejoin="round"/>
    <path d="M 506.1706848144531 741.88232421875 C 497.36016845703125 737.5206298828125 513.9017944335938 762.9171752929688 528.8509521484375 790.927734375" stroke-width="8.258928298950195" fill="none" stroke="rgb(44, 123, 34)" stroke-opacity="0.7277045" stroke-linecap="round" stroke-linejoin="round"/>
    <path d="M 900.06396484375 297.97186279296875 C 887.8359375 315.0833435058594 856.4849853515625 357.80267333984375 867.3992309570312 340.4247741699219" stroke-width="8.258928298950195" fill="none" stroke="rgb(255, 28, 91)" stroke-opacity="0.6447943" stroke-linecap="round" stroke-linejoin="round"/>
    <path d="M 443.9455871582031 848.3843994140625 C 438.5263671875 848.6791381835938 436.2479553222656 844.4746704101562 421.1233215332031 844.164794921875" stroke-width="8.258928298950195" fill="none" stroke="rgb(158, 143, 186)" stroke-opacity="0.65136766" stroke-linecap="round" stroke-linejoin="round"/>
    <path d="M 410.53961181640625 843.7941284179688 C 404.32598876953125 842.7636108398438 362.88409423828125 858.6583251953125 313.5606384277344 879.3946533203125" stroke-width="8.258928298950195" fill="none" stroke="rgb(167, 157, 190)" stroke-opacity="0.6946021" stroke-linecap="round" stroke-linejoin="round"/>
    <path d="M 82.59829711914062 429.1816101074219 C 100.62566375732422 435.0581359863281 107.26151275634766 442.3218078613281 118.90132141113281 447.0857238769531 C 130.99037170410156 436.9844665527344 99.58720397949219 444.69024658203125 72.78575134277344 469.0370788574219" stroke-width="11.092991828918457" fill="none" stroke="rgb(10, 255, 181)" stroke-opacity="0.711883" stroke-linecap="round" stroke-linejoin="round"/>
    <path d="M 611.1790161132812 607.984375 C 609.0419921875 652.75048828125 603.9705200195312 697.66748046875 604.7974243164062 696.961181640625 C 603.2682495117188 693.1385498046875 610.6135864257812 646.4100952148438 612.1373901367188 588.5771484375 C 617.7398071289062 540.10302734375 643.3185424804688 569.0420532226562 650.6539916992188 602.9600219726562" stroke-width="8.258928298950195" fill="none" stroke="rgb(95, 36, 255)" stroke-opacity="0.6823272" stroke-linecap="round" stroke-linejoin="round"/>
    <path d="M 650.87353515625 606.2581787109375 C 651.9352416992188 649.0616455078125 663.0917358398438 675.8919677734375 690.66015625 687.9691772460938" stroke-width="8.4552001953125" fill="none" stroke="rgb(117, 54, 255)" stroke-opacity="0.6786402" stroke-linecap="round" stroke-linejoin="round"/>
    <path d="M 394.4928894042969 204.15139770507812 C 413.8399353027344 254.6308135986328 438.54632568359375 252.87281799316406 394.31109619140625 226.54150390625" stroke-width="11.504288673400879" fill="none" stroke="rgb(68, 66, 63)" stroke-opacity="0.66682553" stroke-linecap="round" stroke-linejoin="round"/>
    <path d="M 807.0343627929688 546.850830078125 C 805.2608032226562 619.543701171875 782.5396118164062 644.679931640625 809.8389282226562 638.3681030273438" stroke-width="8.258928298950195" fill="none" stroke="rgb(49, 45, 167)" stroke-opacity="0.6409735" stroke-linecap="round" stroke-linejoin="round"/>
    <path d="M 316.15814208984375 98.04280090332031 C 322.76776123046875 101.47221374511719 323.4380187988281 117.36932373046875 333.1954650878906 128.6644287109375 C 340.4564208984375 137.99867248535156 344.5809020996094 118.5119857788086 344.8891906738281 97.92355346679688" stroke-width="8.258928298950195" fill="none" stroke="rgb(93, 171, 41)" stroke-opacity="0.64973164" stroke-linecap="round" stroke-linejoin="round"/>
    <path d="M 259.32818603515625 586.0951538085938 C 266.27496337890625 584.9566040039062 264.1329345703125 584.7032470703125 265.7885437011719 572.2234497070312 C 260.5592041015625 577.0208129882812 263.54290771484375 577.071044921875 264.6473388671875 573.9307250976562" stroke-width="8.258928298950195" fill="none" stroke="rgb(6, 55, 23)" stroke-opacity="0.65061796" stroke-linecap="round" stroke-linejoin="round"/>
    <path d="M 280.305419921875 624.3411865234375 C 277.3803405761719 649.1522216796875 275.9986877441406 663.8125 270.8239440917969 668.4185180664062 C 287.8939208984375 664.2664184570312 295.90362548828125 665.6982421875 295.6219787597656 678.8900756835938" stroke-width="8.258928298950195" fill="none" stroke="rgb(7, 54, 22)" stroke-opacity="0.6553696" stroke-linecap="round" stroke-linejoin="round"/>
    <path d="M 327.58660888671875 658.708984375 C 334.46160888671875 657.5340576171875 342.37451171875 655.9284057617188 357.45184326171875 666.2671508789062 C 397.8646240234375 653.6822509765625 377.92724609375 655.710205078125 374.57427978515625 677.2944946289062" stroke-width="10.059035301208496" fill="none" stroke="rgb(27, 32, 15)" stroke-opacity="0.73880523" stroke-linecap="round" stroke-linejoin="round"/>
    <path d="M 382.0859375 638.505126953125 C 388.6947326660156 642.0585327148438 386.5122375488281 621.5421142578125 406.6641540527344 623.650634765625 C 443.7039489746094 632.2684936523438 470.94891357421875 627.6895141601562 486.864013671875 619.6212768554688 C 492.4816589355469 617.5372924804688 497.40753173828125 606.1884155273438 473.381591796875 586.2473754882812 C 454.51312255859375 576.9852294921875 381.9366455078125 570.2941284179688 370.0257263183594 585.3085327148438 C 351.50811767578125 608.8832397460938 391.36724853515625 638.4090576171875 423.7635803222656 648.3547973632812 C 436.4587097167969 674.4680786132812 461.7502746582031 660.32373046875 500.0330810546875 660.1443481445312 C 522.0150756835938 653.6361694335938 556.1946411132812 652.1375732421875 579.9971313476562 641.2377319335938" stroke-width="12.0404634475708" fill="none" stroke="rgb(36, 9, 0)" stroke-opacity="0.7208106" stroke-linecap="round" stroke-linejoin="round"/>
    <path d="M 502.87847900390625 400.15203857421875 C 493.3699035644531 370.3633728027344 488.8174743652344 351.3369445800781 487.663818359375 323.07745361328125" stroke-width="9.307928085327148" fill="none" stroke="rgb(188, 142, 238)" stroke-opacity="0.69028616" stroke-linecap="round" stroke-linejoin="round"/>
    <path d="M 495.57806396484375 343.5148010253906 C 492.8487854003906 322.1829833984375 495.9293518066406 319.3576965332031 500.1761779785156 322.7607727050781 C 507.9521789550781 322.208740234375 507.2996520996094 327.0943603515625 502.6349792480469 324.084716796875" stroke-width="8.258928298950195" fill="none" stroke="rgb(153, 147, 235)" stroke-opacity="0.6565186" stroke-linecap="round" stroke-linejoin="round"/>
    <path d="M 500.65069580078125 331.009521484375 C 520.022705078125 339.724365234375 520.6085205078125 363.40087890625 498.4122009277344 400.5784606933594" stroke-width="8.61072826385498" fill="none" stroke="rgb(187, 161, 237)" stroke-opacity="0.74153477" stroke-linecap="round" stroke-linejoin="round"/>
    <path d="M 585.38427734375 355.5931701660156 C 585.888427734375 343.7302551269531 594.2777709960938 340.07781982421875 606.9152221679688 349.722412109375 C 608.0027465820312 346.7085266113281 603.1838989257812 316.0184326171875 606.2310180664062 282.251708984375" stroke-width="8.258928298950195" fill="none" stroke="rgb(25, 135, 128)" stroke-opacity="0.66362333" stroke-linecap="round" stroke-linejoin="round"/>
    <path d="M 620.8233642578125 607.5226440429688 C 626.8173217773438 632.2539672851562 614.3753662109375 616.0245361328125 630.0536499023438 630.8302612304688" stroke-width="12.029397964477539" fill="none" stroke="rgb(236, 247, 42)" stroke-opacity="0.67297107" stroke-linecap="round" stroke-linejoin="round"/>
    <path d="M 649.3214721679688 622.5297241210938 C 671.6333618164062 598.34619140625 683.960205078125 581.9033203125 674.6795043945312 585.6713256835938" stroke-width="8.258928298950195" fill="none" stroke="rgb(222, 255, 50)" stroke-opacity="0.64718515" stroke-linecap="round" stroke-linejoin="round"/>
    <path d="M 440.2044372558594 158.58636474609375 C 415.71044921875 169.40478515625 398.356201171875 185.81201171875 383.3404846191406 202.62774658203125 C 358.078369140625 206.5913543701172 366.17413330078125 194.5412139892578 370.1200256347656 179.51165771484375" stroke-width="8.258928298950195" fill="none" stroke="rgb(204, 119, 190)" stroke-opacity="0.67660093" stroke-linecap="round" stroke-linejoin="round"/>
    <path d="M 212.3961944580078 147.13368225097656 C 222.8260955810547 174.27032470703125 219.81752014160156 212.9511260986328 238.28207397460938 176.40902709960938" stroke-width="12.66507625579834" fill="none" stroke="rgb(150, 214, 56)" stroke-opacity="0.6874907" stroke-linecap="round" stroke-linejoin="round"/>
    <path d="M 632.7847900390625 509.5219421386719 C 584.5545654296875 507.1897277832031 541.34375 499.7130432128906 534.6312255859375 495.6311340332031 C 531.219482421875 485.8583068847656 548.7531127929688 493.39398193359375 556.4840698242188 505.69390869140625 C 576.3215942382812 509.34130859375 563.4661865234375 507.7411193847656 551.4304809570312 505.23675537109375" stroke-width="14.050371170043945" fill="none" stroke="rgb(3, 242, 116)" stroke-opacity="0.69666225" stroke-linecap="round" stroke-linejoin="round"/>
    <path d="M 393.50634765625 220.6290283203125 C 394.9188232421875 218.10260009765625 394.521484375 210.0312042236328 424.5755920410156 209.90615844726562 C 442.7695617675781 201.85719299316406 478.72509765625 194.6157989501953 509.8985900878906 181.86785888671875 C 535.3692016601562 172.34718322753906 531.6807861328125 181.5209197998047 519.9073486328125 200.25009155273438" stroke-width="8.367046356201172" fill="none" stroke="rgb(164, 240, 102)" stroke-opacity="0.69354475" stroke-linecap="round" stroke-linejoin="round"/>
    <path d="M 692.7490234375 705.4136352539062 C 693.359375 672.6759033203125 682.8623046875 649.9199829101562 675.303466796875 625.693603515625 C 670.25634765625 595.5922241210938 671.6118774414062 622.122314453125 683.085205078125 634.8040161132812" stroke-width="8.258928298950195" fill="none" stroke="rgb(239, 225, 157)" stroke-opacity="0.7303957" stroke-linecap="round" stroke-linejoin="round"/>
    <path d="M 684.3052368164062 605.4628295898438 C 672.5730590820312 640.4844360351562 706.3307495117188 613.3330688476562 741.7635498046875 587.0166625976562" stroke-width="8.258928298950195" fill="none" stroke="rgb(204, 42, 247)" stroke-opacity="0.6550602" stroke-linecap="round" stroke-linejoin="round"/>
    <path d="M 585.5443115234375 301.4482421875 C 621.657958984375 277.4715576171875 582.09619140625 286.29974365234375 586.7794799804688 250.56100463867188" stroke-width="8.258928298950195" fill="none" stroke="rgb(123, 89, 20)" stroke-opacity="0.70187575" stroke-linecap="round" stroke-linejoin="round"/>
    <path d="M 584.4196166992188 256.9230041503906 C 576.7081909179688 225.4104766845703 582.5409545898438 219.94705200195312 580.9796752929688 232.10487365722656" stroke-width="8.258928298950195" fill="none" stroke="rgb(86, 118, 13)" stroke-opacity="0.66906816" stroke-linecap="round" stroke-linejoin="round"/>
    <path d="M 501.0881042480469 162.7126007080078 C 480.89569091796875 188.0850830078125 470.1093444824219 217.27284240722656 454.9501647949219 242.3916015625 C 449.3285217285156 276.99761962890625 463.11676025390625 233.28268432617188 502.5205993652344 211.85910034179688" stroke-width="9.958081245422363" fill="none" stroke="rgb(63, 107, 18)" stroke-opacity="0.70286083" stroke-linecap="round" stroke-linejoin="round"/>
    <path d="M 562.4236450195312 522.2821655273438 C 555.8178100585938 520.8613891601562 557.4608154296875 521.790283203125 574.88427734375 528.5514526367188" stroke-width="8.258928298950195" fill="none" stroke="rgb(96, 129, 50)" stroke-opacity="0.6591039" stroke-linecap="round" stroke-linejoin="round"/>
    <path d="M 555.1174926757812 499.3041687011719 C 552.6163940429688 491.2972717285156 549.425537109375 493.16802978515625 547.3436889648438 494.80560302734375 C 546.017333984375 495.4182434082031 523.4716186523438 480.1919860839844 487.0516052246094 475.7940368652344" stroke-width="8.258928298950195" fill="none" stroke="rgb(112, 166, 34)" stroke-opacity="0.6518255" stroke-linecap="round" stroke-linejoin="round"/>
    <path d="M 561.8486938476562 406.2015075683594 C 559.70166015625 395.6893310546875 570.2991333007812 381.0667724609375 571.2782592773438 370.2715148925781" stroke-width="8.258928298950195" fill="none" stroke="rgb(91, 180, 35)" stroke-opacity="0.66489327" stroke-linecap="round" stroke-linejoin="round"/>
    <path d="M 684.0594482421875 559.5128173828125 C 674.4732055664062 562.5401000976562 682.649169921875 567.7847900390625 687.8164672851562 607.8485107421875" stroke-width="11.530878067016602" fill="none" stroke="rgb(0, 249, 77)" stroke-opacity="0.7344438" stroke-linecap="round" stroke-linejoin="round"/>
    <path d="M 650.8633422851562 597.6129760742188 C 643.8583374023438 613.4100952148438 647.8512573242188 619.0630493164062 647.2294311523438 628.425048828125 C 651.8492431640625 625.5266723632812 654.025146484375 585.2763061523438 645.1328125 568.8738403320312" stroke-width="10.912463188171387" fill="none" stroke="rgb(0, 241, 85)" stroke-opacity="0.7385896" stroke-linecap="round" stroke-linejoin="round"/>
    <path d="M 681.735595703125 561.497314453125 C 681.90087890625 566.9683837890625 676.833251953125 563.620361328125 675.110595703125 526.6221923828125" stroke-width="10.407265663146973" fill="none" stroke="rgb(0, 251, 104)" stroke-opacity="0.7291198" stroke-linecap="round" stroke-linejoin="round"/>
    <path d="M 683.5245971679688 589.50244140625 C 684.5065307617188 574.7021484375 668.4127197265625 583.0490112304688 673.5079956054688 584.1766967773438" stroke-width="8.258928298950195" fill="none" stroke="rgb(221, 71, 202)" stroke-opacity="0.65236" stroke-linecap="round" stroke-linejoin="round"/>
    <path d="M 639.1705932617188 604.2796630859375 C 624.4866333007812 602.3656005859375 613.1215209960938 612.28076171875 625.7684326171875 610.452392578125 C 624.3016967773438 616.9700317382812 633.3580322265625 596.5403442382812 636.57177734375 567.324951171875 C 647.296142578125 541.9931640625 636.4994506835938 566.9009399414062 621.2160034179688 590.7298583984375" stroke-width="12.454451560974121" fill="none" stroke="rgb(254, 28, 234)" stroke-opacity="0.6865136" stroke-linecap="round" stroke-linejoin="round"/>
    <path d="M 351.1221008300781 175.1226806640625 C 338.1349792480469 183.2130889892578 329.1844787597656 199.30787658691406 326.5203552246094 224.06182861328125 C 311.0795593261719 229.77963256835938 323.12835693359375 223.06797790527344 331.3215026855469 210.41342163085938" stroke-width="8.258928298950195" fill="none" stroke="rgb(43, 165, 172)" stroke-opacity="0.6640297" stroke-linecap="round" stroke-linejoin="round"/>
    <path d="M 259.91064453125 850.2010498046875 C 260.83917236328125 812.0720825195312 251.83995056152344 788.2693481445312 250.238037109375 771.4855346679688 C 244.7723846435547 772.9200439453125 249.46803283691406 765.9597778320312 252.95074462890625 758.5706787109375 C 250.0150909423828 740.4363403320312 209.81076049804688 752.1832275390625 148.8349609375 762.2440795898438" stroke-width="10.945099830627441" fill="none" stroke="rgb(118, 93, 156)" stroke-opacity="0.7474191" stroke-linecap="round" stroke-linejoin="round"/>
    <path d="M 682.9554443359375 409.5724182128906 C 685.8656616210938 422.1484375 685.4560546875 401.8983459472656 660.0098876953125 388.9544372558594" stroke-width="10.95424747467041" fill="none" stroke="rgb(222, 255, 125)" stroke-opacity="0.7313567" stroke-linecap="round" stroke-linejoin="round"/>
    <path d="M 690.4954223632812 397.1155700683594 C 692.6063842773438 371.6098327636719 692.9816284179688 344.2334899902344 688.8477783203125 326.20294189453125 C 690.7869262695312 311.814453125 691.43798828125 317.2367858886719 689.2182006835938 319.5769348144531 C 692.9052734375 327.79815673828125 661.8042602539062 330.1598205566406 636.7744140625 323.58062744140625" stroke-width="8.258928298950195" fill="none" stroke="rgb(190, 209, 135)" stroke-opacity="0.7103264" stroke-linecap="round" stroke-linejoin="round"/>
    <path d="M 561.9698486328125 618.0120849609375 C 554.0133056640625 631.4654541015625 515.3089599609375 627.9156494140625 477.0443115234375 647.0684814453125" stroke-width="11.858379364013672" fill="none" stroke="rgb(77, 80, 107)" stroke-opacity="0.7343987" stroke-linecap="round" stroke-linejoin="round"/>
    <path d="M 403.64813232421875 677.9649047851562 C 411.7010803222656 663.3432006835938 429.42816162109375 662.6597900390625 461.4420166015625 669.88330078125 C 489.19122314453125 666.8173828125 481.47332763671875 685.1798095703125 488.6086120605469 721.1030883789062" stroke-width="10.413220405578613" fill="none" stroke="rgb(88, 33, 38)" stroke-opacity="0.7245449" stroke-linecap="round" stroke-linejoin="round"/>
    <path d="M 501.10955810546875 739.2681274414062 C 489.5408935546875 723.5660400390625 484.1827087402344 709.008544921875 503.9926452636719 712.4207763671875" stroke-width="8.258928298950195" fill="none" stroke="rgb(93, 48, 58)" stroke-opacity="0.69339544" stroke-linecap="round" stroke-linejoin="round"/>
    <path d="M 140.17910766601562 898.882568359375 C 138.66236877441406 860.1399536132812 127.95035552978516 825.4920043945312 124.92813110351562 792.6588134765625 C 102.17121124267578 760.2786865234375 99.04777526855469 774.3552856445312 105.866943359375 791.5950927734375" stroke-width="8.258928298950195" fill="none" stroke="rgb(68, 56, 64)" stroke-opacity="0.6901686" stroke-linecap="round" stroke-linejoin="round"/>
    <path d="M 117.33934020996094 792.0256958007812 C 119.48286437988281 767.7650146484375 140.42855834960938 766.093017578125 201.35455322265625 771.67041015625" stroke-width="8.258928298950195" fill="none" stroke="rgb(70, 17, 75)" stroke-opacity="0.6569708" stroke-linecap="round" stroke-linejoin="round"/>
    <path d="M 926.5933837890625 248.56427001953125 C 908.6091918945312 270.3816223144531 900.1758422851562 298.8002014160156 894.783447265625 331.6755065917969" stroke-width="8.258928298950195" fill="none" stroke="rgb(22, 60, 45)" stroke-opacity="0.64954054" stroke-linecap="round" stroke-linejoin="round"/>
    <path d="M 608.7273559570312 281.03350830078125 C 642.6051635742188 282.4913635253906 659.0534057617188 288.4073791503906 682.3952026367188 295.53265380859375 C 690.402587890625 320.6739807128906 722.4976196289062 326.771728515625 759.9617309570312 327.60601806640625 C 793.7383422851562 329.6467590332031 745.0405883789062 342.9126281738281 694.2503051757812 342.4220275878906" stroke-width="8.258928298950195" fill="none" stroke="rgb(202, 83, 79)" stroke-opacity="0.6687326" stroke-linecap="round" stroke-linejoin="round"/>
    <path d="M 214.95172119140625 855.56396484375 C 215.35446166992188 829.0198364257812 203.46397399902344 804.290771484375 217.32481384277344 810.2076416015625" stroke-width="9.803457260131836" fill="none" stroke="rgb(75, 154, 128)" stroke-opacity="0.72580016" stroke-linecap="round" stroke-linejoin="round"/>
    <path d="M 842.9061889648438 872.7081298828125 C 823.7516479492188 878.6734008789062 854.0382690429688 845.4268188476562 896.2700805664062 841.725341796875" stroke-width="10.475212097167969" fill="none" stroke="rgb(186, 166, 198)" stroke-opacity="0.71576256" stroke-linecap="round" stroke-linejoin="round"/>
    <path d="M 771.3775024414062 730.8152465820312 C 795.0617065429688 715.5197143554688 823.3101806640625 707.8933715820312 868.2909545898438 711.4174194335938 C 894.59716796875 697.8585205078125 892.386962890625 735.1309204101562 892.6854248046875 784.2630615234375" stroke-width="8.258928298950195" fill="none" stroke="rgb(85, 73, 165)" stroke-opacity="0.6418582" stroke-linecap="round" stroke-linejoin="round"/>
    <path d="M 171.93344116210938 326.3811950683594 C 185.86509704589844 359.4261474609375 199.025390625 364.9093322753906 209.5092010498047 394.2929382324219" stroke-width="10.973928451538086" fill="none" stroke="rgb(0, 228, 185)" stroke-opacity="0.71718806" stroke-linecap="round" stroke-linejoin="round"/>
    <path d="M 573.4287109375 481.6030578613281 C 590.4864501953125 503.6431579589844 587.6165161132812 491.7662048339844 577.118408203125 490.474609375" stroke-width="8.258928298950195" fill="none" stroke="rgb(173, 214, 235)" stroke-opacity="0.7110802" stroke-linecap="round" stroke-linejoin="round"/>
    <path d="M 545.319091796875 496.475830078125 C 531.3396606445312 489.7668762207031 545.97412109375 499.47308349609375 541.0849609375 496.45050048828125" stroke-width="8.258928298950195" fill="none" stroke="rgb(167, 174, 212)" stroke-opacity="0.56113136" stroke-linecap="round" stroke-linejoin="round"/>
    <path d="M 531.213623046875 519.8640747070312 C 549.227783203125 522.8353881835938 548.5768432617188 531.1359252929688 560.2470092773438 524.3963623046875" stroke-width="11.960906982421875" fill="none" stroke="rgb(200, 190, 205)" stroke-opacity="0.5553094" stroke-linecap="round" stroke-linejoin="round"/>
    <path d="M 105.547607421875 397.457275390625 C 120.60995483398438 391.6622009277344 137.87889099121094 387.1475830078125 157.15711975097656 387.50909423828125 C 164.9989013671875 391.1378173828125 140.43316650390625 369.7457275390625 119.46394348144531 345.2461853027344" stroke-width="8.258928298950195" fill="none" stroke="rgb(129, 51, 153)" stroke-opacity="0.7096145" stroke-linecap="round" stroke-linejoin="round"/>
  </g>
</svg>
