<?xml version="1.0" ?>
<svg xmlns="http://www.w3.org/2000/svg" version="1.1" width="992.0" height="992.0">
  <defs/>
  <g>
    <path d="M 101.38509368896484 54.101356506347656 C 100.87199401855469 55.84479904174805 99.5457992553711 52.44907760620117 98.2082748413086 54.66736602783203 C 98.74962615966797 52.964881896972656 97.46267700195312 51.16851043701172 97.22975158691406 50.11328125 C 95.99407196044922 46.126888275146484 94.01629638671875 42.198211669921875 94.8213119506836 38.12037658691406 C 95.37959289550781 40.5717658996582 95.3562240600586 32.75838851928711 97.69939422607422 31.742021560668945 C 109.87396240234375 35.557613372802734 124.69644165039062 43.03709030151367 128.4908905029297 54.123600006103516 C 130.67811584472656 67.11248016357422 130.01589965820312 67.45797729492188 122.22393035888672 63.285221099853516 C 125.37738800048828 63.44490051269531 126.27464294433594 64.40303802490234 127.04338073730469 68.0600814819336 C 120.06531524658203 67.5524673461914 119.80213928222656 64.04329681396484 118.49629974365234 66.1639404296875" stroke-width="1.5401785373687744" fill="none" stroke="rgb(61, 12, 14)" stroke-opacity="0.9111489" stroke-linecap="round" stroke-linejoin="round"/>
    <path d="M 93.7186508178711 79.4389877319336 C 99.71629333496094 77.51810455322266 97.01082611083984 84.70718383789062 94.75853729248047 83.5845718383789 C 91.77792358398438 88.96316528320312 89.27066802978516 92.73282623291016 97.13182067871094 88.80472564697266 C 100.03822326660156 96.56134033203125 102.66744232177734 99.308349609375 114.73657989501953 98.23839569091797 C 118.96597290039062 99.50736999511719 122.79542541503906 100.63971710205078 125.60779571533203 101.95055389404297 C 123.93797302246094 104.40010833740234 136.51174926757812 103.71614837646484 142.48374938964844 102.05256652832031 C 144.01841735839844 101.08341979980469 148.78411865234375 99.31680297851562 148.42349243164062 99.58815002441406 C 152.89144897460938 92.78014373779297 145.9638214111328 80.4870376586914 143.23362731933594 78.33052062988281" stroke-width="1.5401785373687744" fill="none" stroke="rgb(56, 11, 28)" stroke-opacity="0.84659684" stroke-linecap="round" stroke-linejoin="round"/>
    <path d="M 111.85005187988281 104.14392852783203 C 109.86354064941406 93.71088409423828 110.02843475341797 89.85525512695312 111.3051986694336 90.6761703491211" stroke-width="2.0031332969665527" fill="none" stroke="rgb(125, 64, 236)" stroke-opacity="0.055331342" stroke-linecap="round" stroke-linejoin="round"/>
    <path d="M 103.2944564819336 54.229652404785156 C 93.73497772216797 51.040836334228516 85.67505645751953 58.80711364746094 88.86427307128906 64.31720733642578" stroke-width="1.6202222108840942" fill="none" stroke="rgb(255, 74, 86)" stroke-opacity="0.64812005" stroke-linecap="round" stroke-linejoin="round"/>
    <path d="M 138.52890014648438 77.2217025756836 C 148.3245391845703 80.6171646118164 148.25027465820312 84.18604278564453 157.3408966064453 87.7422866821289" stroke-width="1.8003138303756714" fill="none" stroke="rgb(75, 40, 108)" stroke-opacity="0.1152776" stroke-linecap="round" stroke-linejoin="round"/>
    <path d="M 92.7906494140625 48.80670928955078 C 91.05745697021484 46.92592239379883 86.59469604492188 37.89617156982422 88.49430847167969 30.133098602294922 C 101.61824035644531 31.96474838256836 107.80181884765625 33.8858642578125 109.15249633789062 33.24905776977539 C 104.08636474609375 31.44675636291504 114.21375274658203 37.4102668762207 110.44633483886719 45.26472854614258" stroke-width="1.5401785373687744" fill="none" stroke="rgb(107, 221, 86)" stroke-opacity="0.24391265" stroke-linecap="round" stroke-linejoin="round"/>
    <path d="M 129.01040649414062 66.78213500976562 C 120.032958984375 63.92771530151367 122.21227264404297 59.78113555908203 132.6771697998047 60.31275177001953" stroke-width="4.7145280838012695" fill="none" stroke="rgb(255, 53, 58)" stroke-opacity="0.26387152" stroke-linecap="round" stroke-linejoin="round"/>
    <path d="M 96.26339721679688 96.13764953613281 C 98.63263702392578 92.85810852050781 105.07044219970703 91.39496612548828 109.70550537109375 97.61318969726562" stroke-width="3.641784906387329" fill="none" stroke="rgb(238, 39, 50)" stroke-opacity="0.47279868" stroke-linecap="round" stroke-linejoin="round"/>
    <path d="M 95.89187622070312 86.82589721679688 C 101.51820373535156 96.07096099853516 108.41490936279297 86.87752532958984 110.44013977050781 84.61974334716797 C 109.8467788696289 76.16704559326172 100.49324035644531 72.78280639648438 98.04874420166016 72.88683319091797" stroke-width="2.9721696376800537" fill="none" stroke="rgb(92, 36, 71)" stroke-opacity="0.78991735" stroke-linecap="round" stroke-linejoin="round"/>
    <path d="M 103.46322631835938 54.46250534057617 C 107.42415618896484 60.9008903503418 111.32872009277344 61.751163482666016 105.21287536621094 68.19503021240234" stroke-width="1.5401785373687744" fill="none" stroke="rgb(136, 151, 81)" stroke-opacity="0.27186874" stroke-linecap="round" stroke-linejoin="round"/>
    <path d="M 107.05094146728516 62.86887741088867 C 111.47013092041016 73.40714263916016 101.18501281738281 71.60647583007812 107.01422119140625 69.37911224365234 C 108.5709457397461 64.04508972167969 107.32676696777344 69.6521224975586 104.79117584228516 68.26924133300781 C 102.99181365966797 71.50226593017578 90.29253387451172 67.91702270507812 95.77877044677734 79.01972198486328" stroke-width="1.9415411949157715" fill="none" stroke="rgb(239, 71, 114)" stroke-opacity="1.0" stroke-linecap="round" stroke-linejoin="round"/>
    <path d="M 108.48737335205078 89.99614715576172 C 112.94457244873047 88.01976013183594 105.86121368408203 89.89996337890625 106.8840103149414 93.85273742675781" stroke-width="1.5401785373687744" fill="none" stroke="rgb(98, 208, 208)" stroke-opacity="0.6486241" stroke-linecap="round" stroke-linejoin="round"/>
    <path d="M 110.95046997070312 99.96360778808594 C 119.63758087158203 103.82972717285156 123.28107452392578 106.99325561523438 118.25641632080078 109.3311996459961 C 113.51569366455078 119.7219009399414 107.14686584472656 123.29153442382812 108.1032485961914 116.1820297241211" stroke-width="1.5401785373687744" fill="none" stroke="rgb(147, 139, 60)" stroke-opacity="0.3415534" stroke-linecap="round" stroke-linejoin="round"/>
    <path d="M 155.28182983398438 87.09103393554688 C 150.67543029785156 87.63872528076172 146.9307861328125 97.02764129638672 143.44265747070312 99.26856994628906" stroke-width="1.5913338661193848" fill="none" stroke="rgb(28, 127, 74)" stroke-opacity="0.102829464" stroke-linecap="round" stroke-linejoin="round"/>
    <path d="M 111.63078308105469 44.522972106933594 C 107.89701080322266 35.052032470703125 111.26956939697266 34.153167724609375 106.54754638671875 32.07501220703125 C 107.0718002319336 31.923765182495117 97.21089935302734 30.118850708007812 96.30159759521484 36.515541076660156 C 102.20653533935547 37.11296463012695 102.7967300415039 38.65586853027344 96.8991470336914 31.839580535888672" stroke-width="1.7917202711105347" fill="none" stroke="rgb(255, 160, 190)" stroke-opacity="0.43221" stroke-linecap="round" stroke-linejoin="round"/>
    <path d="M 109.76600646972656 45.36133575439453 C 109.41674041748047 35.13884735107422 118.98506927490234 40.918128967285156 118.00847625732422 45.65496826171875 C 120.07688903808594 42.95524978637695 111.73539733886719 39.64426803588867 106.18611907958984 32.65402603149414" stroke-width="1.5518049001693726" fill="none" stroke="rgb(194, 181, 202)" stroke-opacity="0.454302" stroke-linecap="round" stroke-linejoin="round"/>
    <path d="M 155.36817932128906 84.15316772460938 C 164.66293334960938 86.80144500732422 158.63258361816406 84.36882781982422 166.42514038085938 91.81804656982422" stroke-width="1.5401785373687744" fill="none" stroke="rgb(45, 255, 200)" stroke-opacity="0.78889275" stroke-linecap="round" stroke-linejoin="round"/>
    <path d="M 110.67591857910156 92.87999725341797 C 97.77091217041016 81.27657318115234 109.78048706054688 75.27978515625 103.1124038696289 61.21424865722656 C 89.55457305908203 62.95793151855469 100.41216278076172 71.15865325927734 102.14170837402344 75.92357635498047 C 88.96650695800781 79.3664779663086 91.26605224609375 69.1281967163086 104.64444732666016 63.587039947509766" stroke-width="4.392432689666748" fill="none" stroke="rgb(232, 54, 27)" stroke-opacity="0.9383508" stroke-linecap="round" stroke-linejoin="round"/>
    <path d="M 61.53089904785156 139.2985076904297 C 55.06470489501953 148.02951049804688 56.57390213012695 133.83343505859375 55.61343002319336 145.23704528808594 C 44.25086212158203 137.9424591064453 51.7545280456543 140.81655883789062 51.33796310424805 142.93438720703125" stroke-width="2.7537384033203125" fill="none" stroke="rgb(1, 253, 194)" stroke-opacity="0.28212115" stroke-linecap="round" stroke-linejoin="round"/>
    <path d="M 13.197405815124512 67.45372009277344 C 20.08856773376465 68.51325988769531 16.321735382080078 66.67721557617188 19.13448715209961 62.30023193359375 C 29.409202575683594 59.77146530151367 21.920883178710938 61.4412727355957 17.982200622558594 63.79544448852539 C 17.54581069946289 75.13159942626953 17.86063003540039 75.55172729492188 26.31243896484375 74.90721130371094" stroke-width="2.266831398010254" fill="none" stroke="rgb(240, 68, 48)" stroke-opacity="1.0" stroke-linecap="round" stroke-linejoin="round"/>
    <path d="M 173.22434997558594 111.41444396972656 C 163.39854431152344 110.88932037353516 159.47279357910156 105.21914672851562 159.99583435058594 107.09544372558594 C 162.80767822265625 103.67066955566406 165.06613159179688 96.02953338623047 161.0935516357422 94.09525299072266" stroke-width="1.728371024131775" fill="none" stroke="rgb(78, 7, 246)" stroke-opacity="0.0" stroke-linecap="round" stroke-linejoin="round"/>
    <path d="M 104.00646209716797 81.23960876464844 C 116.37174224853516 82.49980926513672 114.26368713378906 88.86589813232422 100.88623046875 87.17277526855469" stroke-width="1.6525547504425049" fill="none" stroke="rgb(131, 138, 170)" stroke-opacity="0.81323004" stroke-linecap="round" stroke-linejoin="round"/>
    <path d="M 40.94710159301758 59.20839309692383 C 36.42906951904297 55.838523864746094 47.140708923339844 59.896461486816406 40.65314483642578 59.08439254760742 C 40.51873779296875 51.73108673095703 47.124977111816406 61.0153694152832 45.01448059082031 63.428489685058594 C 51.985877990722656 57.56217575073242 57.137847900390625 66.347900390625 59.66959762573242 66.85655975341797" stroke-width="1.5401785373687744" fill="none" stroke="rgb(0, 184, 139)" stroke-opacity="0.17284471" stroke-linecap="round" stroke-linejoin="round"/>
    <path d="M 144.25985717773438 154.96812438964844 C 140.41380310058594 149.85057067871094 146.29054260253906 147.85357666015625 148.3634490966797 143.95309448242188 C 153.88986206054688 139.12936401367188 154.7095184326172 142.7284698486328 148.63571166992188 145.5864715576172 C 142.93231201171875 148.8210906982422 143.53138732910156 150.96246337890625 146.58734130859375 152.03567504882812" stroke-width="1.5401785373687744" fill="none" stroke="rgb(122, 120, 44)" stroke-opacity="0.6847478" stroke-linecap="round" stroke-linejoin="round"/>
    <path d="M 129.9139862060547 106.14054870605469 C 123.99598693847656 107.66912841796875 122.97249603271484 99.56146240234375 121.73611450195312 100.8297348022461 C 127.3151626586914 111.21714782714844 126.13760375976562 114.60624694824219 125.36329650878906 112.8680419921875" stroke-width="1.5956603288650513" fill="none" stroke="rgb(228, 106, 123)" stroke-opacity="0.06754695" stroke-linecap="round" stroke-linejoin="round"/>
    <path d="M 3.7737233638763428 153.53817749023438 C 6.554001331329346 163.8628387451172 6.610162734985352 160.22805786132812 1.5325106382369995 169.55105590820312 C -1.0141445398330688 169.59466552734375 -9.842728614807129 175.3943634033203 -9.76064682006836 173.92677307128906 C -5.956719875335693 177.34146118164062 1.5601441860198975 174.4496307373047 2.109222173690796 163.20391845703125" stroke-width="1.5416855812072754" fill="none" stroke="rgb(119, 172, 158)" stroke-opacity="0.4945078" stroke-linecap="round" stroke-linejoin="round"/>
    <path d="M 138.4889373779297 28.89891242980957 C 141.47994995117188 32.1650505065918 149.3711700439453 33.613433837890625 145.15402221679688 38.827449798583984 C 148.166259765625 46.973567962646484 145.6729736328125 41.17668533325195 138.10525512695312 36.34502410888672" stroke-width="3.2559967041015625" fill="none" stroke="rgb(11, 255, 190)" stroke-opacity="0.34823966" stroke-linecap="round" stroke-linejoin="round"/>
    <path d="M 76.06234741210938 159.3472442626953 C 77.38859558105469 158.63441467285156 70.7860336303711 158.2293243408203 75.3562240600586 165.6741485595703 C 74.26966857910156 164.69027709960938 73.38826751708984 162.33897399902344 68.08442687988281 167.6776885986328 C 66.73741149902344 165.78713989257812 67.11735534667969 173.6885223388672 64.19136810302734 179.73008728027344" stroke-width="1.7549655437469482" fill="none" stroke="rgb(144, 177, 24)" stroke-opacity="0.33725923" stroke-linecap="round" stroke-linejoin="round"/>
    <path d="M 161.60142517089844 6.271615982055664 C 168.24610900878906 14.525150299072266 176.5372772216797 9.508822441101074 177.15518188476562 14.941490173339844 C 183.56036376953125 17.206331253051758 177.40597534179688 20.04221534729004 171.8583221435547 11.905055046081543" stroke-width="1.6895912885665894" fill="none" stroke="rgb(221, 151, 54)" stroke-opacity="0.02207301" stroke-linecap="round" stroke-linejoin="round"/>
    <path d="M 70.34878540039062 49.962608337402344 C 73.22419738769531 42.89605712890625 74.8023681640625 35.2255859375 64.03915405273438 40.27538299560547 C 61.02410125732422 52.40309143066406 66.38215637207031 52.67496109008789 72.3202133178711 44.098087310791016 C 79.04022979736328 45.32703399658203 77.55145263671875 52.50386428833008 72.85210418701172 45.07809829711914" stroke-width="2.0956406593322754" fill="none" stroke="rgb(183, 146, 161)" stroke-opacity="0.6141495" stroke-linecap="round" stroke-linejoin="round"/>
    <path d="M 127.344482421875 86.48731231689453 C 135.7429656982422 89.86955261230469 132.48216247558594 89.1055679321289 138.27621459960938 96.20600128173828 C 133.1757354736328 100.7621841430664 136.0892333984375 107.1364517211914 141.42738342285156 109.7550048828125" stroke-width="2.4596965312957764" fill="none" stroke="rgb(70, 18, 17)" stroke-opacity="0.45747846" stroke-linecap="round" stroke-linejoin="round"/>
    <path d="M 89.1528091430664 20.85642433166504 C 94.24628448486328 13.770929336547852 100.76316833496094 11.028560638427734 100.86209869384766 14.856019020080566 C 108.21991729736328 16.226959228515625 112.06675720214844 20.81110191345215 119.79351043701172 26.21390151977539 C 122.4654541015625 28.999858856201172 116.26221466064453 23.041080474853516 122.46595764160156 30.684795379638672" stroke-width="1.5401785373687744" fill="none" stroke="rgb(206, 251, 90)" stroke-opacity="0.39121044" stroke-linecap="round" stroke-linejoin="round"/>
    <path d="M 139.32933044433594 18.66279411315918 C 138.10279846191406 19.545551300048828 140.75717163085938 23.850276947021484 132.6605224609375 30.515531539916992 C 142.321044921875 26.564306259155273 139.7004852294922 29.77313804626465 138.89991760253906 31.15157127380371 C 138.49066162109375 32.65593338012695 134.17694091796875 41.20551300048828 141.28448486328125 44.0442008972168" stroke-width="2.529850721359253" fill="none" stroke="rgb(206, 206, 30)" stroke-opacity="0.0" stroke-linecap="round" stroke-linejoin="round"/>
    <path d="M 149.06471252441406 166.53231811523438 C 157.4115447998047 163.17811584472656 158.1774444580078 160.47532653808594 151.1283721923828 162.94534301757812" stroke-width="1.7246339321136475" fill="none" stroke="rgb(4, 128, 99)" stroke-opacity="0.30266368" stroke-linecap="round" stroke-linejoin="round"/>
  </g>
</svg>
