<?xml version="1.0" ?>
<svg xmlns="http://www.w3.org/2000/svg" version="1.1" width="2137.0" height="2137.0">
  <defs/>
  <g>
    <path d="M 31.202762603759766 82.14257049560547 C 89.7157974243164 82.16944122314453 147.23968505859375 82.19631958007812 203.7634735107422 82.22320556640625 C 261.2844543457031 82.25011444091797 209.8097381591797 74.15473937988281 157.33583068847656 66.05713653564453" stroke-width="2.0" fill="none" stroke="rgb(3, 2, 0)" stroke-opacity="0.95308" stroke-linecap="round" stroke-linejoin="round"/>
    <path d="M 73.5700912475586 92.13555908203125 C 69.33967590332031 134.06822204589844 64.1092758178711 176.00306701660156 76.40686798095703 187.27696228027344 C 87.70448303222656 198.55087280273438 117.53009033203125 179.16366577148438 148.35568237304688 160.77871704101562 C 178.1812744140625 141.39151000976562 167.59707641601562 134.1719970703125 156.01327514648438 126.95248413085938" stroke-width="2.4388604164123535" fill="none" stroke="rgb(5, 2, 0)" stroke-opacity="1.0" stroke-linecap="round" stroke-linejoin="round"/>
    <path d="M 153.69264221191406 94.58362579345703 C 165.7915802001953 94.38286590576172 176.8907928466797 93.1844711303711 177.7457733154297 97.78093719482422 C 179.60049438476562 101.3774642944336 172.21072387695312 111.77104187011719 164.82101440429688 122.16241455078125 C 158.43121337890625 133.55599975585938 160.6753692626953 133.80909729003906 162.92239379882812 134.0622100830078" stroke-width="2.0" fill="none" stroke="rgb(0, 3, 0)" stroke-opacity="0.96152" stroke-linecap="round" stroke-linejoin="round"/>
    <path d="M 94.25071716308594 110.29582214355469 C 90.31945037841797 122.35131072998047 85.38832092285156 133.4049835205078 81.45488739013672 145.46067810058594 C 78.52367401123047 158.51632690429688 87.49486541748047 151.70448303222656 96.466064453125 143.89266967773438" stroke-width="2.147197961807251" fill="none" stroke="rgb(0, 4, 0)" stroke-opacity="0.98957926" stroke-linecap="round" stroke-linejoin="round"/>
    <path d="M 77.49327087402344 110.91761016845703 C 86.7213363647461 108.6001205444336 79.00668334960938 112.02733612060547 90.79121398925781 111.53001403808594" stroke-width="2.0" fill="none" stroke="rgb(2, 2, 4)" stroke-opacity="0.98387" stroke-linecap="round" stroke-linejoin="round"/>
    <path d="M 110.46290588378906 116.29454803466797 C 118.99063873291016 113.25261688232422 111.2715835571289 115.6545639038086 120.51470947265625 117.36431884765625" stroke-width="2.0" fill="none" stroke="rgb(2, 2, 1)" stroke-opacity="0.9899997" stroke-linecap="round" stroke-linejoin="round"/>
    <path d="M 84.98292541503906 160.45742797851562 C 106.86100006103516 162.68943786621094 107.36296844482422 163.5652618408203 107.83179473876953 162.13748168945312" stroke-width="2.0" fill="none" stroke="rgb(0, 6, 0)" stroke-opacity="0.99" stroke-linecap="round" stroke-linejoin="round"/>
    <path d="M 116.64529418945312 120.59310913085938 C 118.4850845336914 120.24365997314453 118.3274154663086 119.89421844482422 121.88322448730469 120.56373596191406 C 124.44140625 120.23602294921875 128.71533203125 121.92721557617188 132.7003173828125 123.39888000488281 C 136.68296813964844 124.87059783935547 139.37245178222656 127.11822509765625 143.17144775390625 127.22128295898438 C 147.96987915039062 127.32432556152344 151.87684631347656 126.28046417236328 153.61744689941406 127.33905029296875 C 155.35791015625 129.39764404296875 154.93228149414062 135.5561065673828 153.655517578125 138.66319274902344 C 152.37646484375 141.77001953125 149.24635314941406 141.82737731933594 149.42185974121094 141.32113647460938 C 148.5975799560547 140.81497192382812 149.07687377929688 138.75054931640625 146.20664978027344 139.0498504638672 C 144.33619689941406 139.34994506835938 140.11402893066406 143.01766967773438 137.47596740722656 142.8788604736328 C 133.8404541015625 141.73777770996094 130.7895965576172 138.78993225097656 128.4935760498047 136.92852783203125 C 125.1976318359375 136.06703186035156 123.6542739868164 135.29647827148438 123.44683837890625 133.51699829101562 C 122.239501953125 132.73745727539062 121.36587524414062 131.94898986816406 120.39061737060547 132.5897216796875 C 120.41523742675781 134.2300262451172 121.3403549194336 135.30364990234375 120.53392791748047 136.24082946777344 C 119.72757720947266 137.1793975830078 117.1876449584961 136.98233032226562 115.98026275634766 137.4624481201172 C 115.77020263671875 135.943603515625 115.89115905761719 135.1012725830078 115.48558044433594 135.55120849609375 C 116.0785903930664 137.0032958984375 117.14482879638672 138.74826049804688 118.21106719970703 139.49331665039062 C 119.27730560302734 141.23826599121094 112.14514923095703 143.60145568847656 106.01518249511719 145.96241760253906" stroke-width="2.0" fill="none" stroke="rgb(12, 23, 18)" stroke-opacity="1.0" stroke-linecap="round" stroke-linejoin="round"/>
    <path d="M 126.20121002197266 78.01425170898438 C 126.17295837402344 78.86424255371094 126.16793823242188 78.7189712524414 127.45354461669922 77.84215545654297 C 127.76533508300781 77.96283721923828 128.41722106933594 78.35481262207031 127.49617004394531 78.26525115966797 C 127.57437133789062 79.17508697509766 127.07706451416016 78.60173034667969 126.72760009765625 76.12647247314453 C 126.37845611572266 73.64816284179688 126.17874908447266 69.26984405517578 125.8180923461914 64.97608947753906 C 126.45734405517578 59.682552337646484 125.93551635742188 55.47323989868164 125.42253875732422 52.42018127441406 C 124.90730285644531 49.367164611816406 124.39883422851562 47.467529296875 123.89036560058594 45.570308685302734 C 123.38182067871094 43.67151641845703 122.31257629394531 39.574188232421875 123.24303436279297 35.46544647216797" stroke-width="2.0" fill="none" stroke="rgb(14, 22, 24)" stroke-opacity="0.9822398" stroke-linecap="round" stroke-linejoin="round"/>
    <path d="M 115.2251205444336 36.21584701538086 C 113.42229461669922 36.51613998413086 112.62136840820312 36.818912506103516 113.39681243896484 37.9689826965332 C 112.18209075927734 37.12699508666992 112.544189453125 37.13015365600586 111.85183715820312 37.68316650390625 C 111.1620101928711 38.234230041503906 109.41691589355469 39.33397674560547 107.55990600585938 40.220985412597656 C 106.70425415039062 42.1077766418457 103.73637390136719 41.78684997558594 99.67823791503906 46.285587310791016 C 94.62031555175781 49.78446578979492 86.47118377685547 56.105735778808594 82.19503021240234 59.58894348144531 C 77.91886138916016 63.074371337890625 77.5134048461914 63.72396469116211 76.84365844726562 64.49227905273438 C 75.17398834228516 64.25846099853516 74.24211883544922 65.14322662353516 73.30802917480469 66.02577209472656 C 72.37400817871094 66.9083480834961 69.4598388671875 67.3048324584961 66.54322814941406 67.70128631591797" stroke-width="2.0" fill="none" stroke="rgb(23, 14, 21)" stroke-opacity="1.0" stroke-linecap="round" stroke-linejoin="round"/>
    <path d="M 53.920860290527344 91.85611724853516 C 55.016990661621094 91.89575958251953 55.111167907714844 92.93495178222656 56.08991622924805 95.44638061523438 C 56.068973541259766 96.98124694824219 57.93265151977539 98.99275970458984 57.854248046875 104.11335754394531 C 57.775901794433594 108.23435974121094 56.75534439086914 117.4679946899414 57.13839340209961 121.60020446777344 C 57.521427154541016 126.72978210449219 60.307979583740234 128.75698852539062 61.914024353027344 129.51641845703125 C 62.5227165222168 131.27560424804688 62.95075988769531 130.7670440673828 63.752193450927734 131.4638214111328 C 64.55411529541016 132.16268920898438 65.72787475585938 134.0689239501953 67.00691986083984 135.05679321289062 C 68.28675842285156 136.044189453125 69.6766128540039 135.11573791503906 74.47966766357422 134.85874938964844 C 79.28931427001953 134.60340881347656 88.49533081054688 134.021240234375 92.30331420898438 135.21136474609375 C 97.08344268798828 135.40176391601562 98.40984344482422 136.36715698242188 100.7332534790039 136.33267211914062 C 101.0595703125 137.29811096191406 104.3253402709961 136.29458618164062 107.5912094116211 135.29122924804688" stroke-width="2.0" fill="none" stroke="rgb(21, 19, 20)" stroke-opacity="0.99" stroke-linecap="round" stroke-linejoin="round"/>
    <path d="M 105.9547119140625 119.89105224609375 C 104.39033508300781 120.12403869628906 103.82366180419922 120.35702514648438 103.91544342041016 120.2898178100586 C 104.00817108154297 120.22268676757812 105.75531768798828 119.8509521484375 105.2468490600586 117.86265563964844 C 103.73844146728516 116.87017822265625 101.97105407714844 113.25933837890625 100.52848052978516 111.92878723144531 C 100.08576202392578 109.598388671875 98.96560668945312 111.5499038696289 99.08212280273438 111.69554138183594 C 98.49883270263672 111.0337905883789 99.56891632080078 110.19690704345703 100.90032958984375 109.53105926513672 C 102.25105285644531 108.87481689453125 101.70449829101562 106.87026977539062 101.16019439697266 102.86978149414062" stroke-width="2.0" fill="none" stroke="rgb(26, 19, 19)" stroke-opacity="0.99" stroke-linecap="round" stroke-linejoin="round"/>
    <path d="M 100.46892547607422 97.30829620361328 C 98.54264831542969 96.89572143554688 97.65856170654297 96.48348999023438 96.57061004638672 95.5625228881836 C 95.52886962890625 95.63859558105469 94.37300109863281 96.2052993774414 93.21717834472656 96.77113342285156 C 93.06112670898438 98.33634185791016 90.18437194824219 95.95928192138672 87.30892181396484 95.58126068115234" stroke-width="2.0" fill="none" stroke="rgb(25, 21, 23)" stroke-opacity="0.99000007" stroke-linecap="round" stroke-linejoin="round"/>
    <path d="M 135.87576293945312 92.11526489257812 C 134.9026641845703 93.28321075439453 133.9278564453125 95.44597625732422 134.67823791503906 96.42277526855469 C 134.42959594726562 98.39835357666016 134.90447998046875 101.18264770507812 136.50831604003906 103.46065521240234 C 138.11216735839844 105.7387466430664 140.8469696044922 108.5126953125 141.0882110595703 108.87566375732422 C 142.3293914794922 108.24192810058594 142.0739288330078 107.19480895996094 143.2744598388672 108.49483489990234 C 144.47509765625 108.79501342773438 147.12954711914062 110.4369125366211 149.4398193359375 110.6869125366211 C 150.75013732910156 111.93485260009766 150.7143096923828 112.79053497314453 149.8915557861328 114.26041412353516 C 150.07081604003906 114.73094177246094 150.46278381347656 114.8205795288086 151.03639221191406 114.86759948730469 C 152.6092071533203 114.90601348876953 153.3620147705078 113.9215087890625 154.007080078125 114.86229705810547 C 153.65237426757812 116.80294799804688 154.18775939941406 118.68001556396484 154.32211303710938 120.16507720947266 C 155.45640563964844 121.6502685546875 155.18768310546875 122.74344635009766 154.89871215820312 122.80618286132812 C 154.60748291015625 121.86898040771484 154.296142578125 120.89903259277344 150.277587890625 120.35247802734375 C 145.2617950439453 120.80365753173828 137.5380859375 120.67823028564453 130.81646728515625 119.55056762695312 C 123.0951919555664 120.42286682128906 127.47663879394531 118.35533905029297 130.8603515625 115.28803253173828" stroke-width="2.0" fill="none" stroke="rgb(29, 22, 22)" stroke-opacity="0.99" stroke-linecap="round" stroke-linejoin="round"/>
    <path d="M 134.0420684814453 28.55375099182129 C 133.95916748046875 29.518367767333984 133.87625122070312 29.489978790283203 134.14942932128906 29.36845588684082 C 134.4250030517578 29.25179672241211 134.05697631835938 28.055692672729492 136.5172576904297 32.28245544433594 C 137.9777374267578 36.509334564208984 139.26705932617188 47.16358947753906 140.67823791503906 53.22285842895508 C 142.08949279785156 59.28179931640625 143.624755859375 60.74848175048828 143.28785705566406 64.25033569335938 C 143.950927734375 66.75238800048828 144.7395782470703 69.28848266601562 146.2586669921875 70.31560516357422 C 145.77882385253906 71.33984375 146.0296630859375 70.85157012939453 146.72177124023438 72.82732391357422 C 148.4160614013672 73.8033676147461 148.55426025390625 79.24447631835938 149.300048828125 81.1420669555664 C 151.04806518554688 82.0396499633789 151.4064178466797 81.39457702636719 151.22506713867188 83.4108657836914 C 151.0458984375 84.430419921875 150.32908630371094 87.1116714477539 149.51504516601562 89.54666900634766 C 149.70321655273438 91.9815444946289 150.794189453125 93.16808319091797 152.34957885742188 94.25425720214844 C 152.90731811523438 95.33849334716797 152.92967224121094 95.32299041748047 152.69227600097656 99.54972839355469 C 151.45489501953125 101.77854919433594 150.95986938476562 108.25215911865234 150.34027099609375 112.12588500976562 C 148.7206573486328 115.00202941894531 144.9771270751953 114.28076171875 144.34967041015625 114.00077056884766 C 143.7224578857422 113.7207260131836 145.2120361328125 113.88203430175781 141.48558044433594 110.14256286621094 C 136.75917053222656 107.40080261230469 125.81896209716797 101.75826263427734 119.37676239013672 99.24944305419922 C 112.93448638916016 96.74065399169922 110.99202728271484 98.36780548095703 109.21761322021484 98.16622161865234 C 108.44326782226562 97.94466400146484 108.83467864990234 95.935546875 108.90620422363281 95.5655288696289 C 109.97610473632812 96.19405364990234 109.73085021972656 96.48331451416016 109.52061462402344 96.9697036743164 C 109.30643463134766 97.27808380126953 109.13165283203125 98.13306427001953 107.582275390625 98.06974029541016 C 107.00663757324219 99.00091552734375 107.04960632324219 101.185302734375 104.42841339111328 102.17503356933594 C 102.80657196044922 104.16179656982422 100.51506042480469 106.95061492919922 99.71536254882812 108.36402893066406 C 99.91546630859375 110.7740478515625 100.60525512695312 110.81316375732422 99.72299194335938 111.8548583984375 C 98.84043884277344 112.89421844482422 96.38539123535156 114.93486022949219 94.09833526611328 115.16108703613281 C 91.8111572265625 114.38519287109375 89.6944351196289 112.7947769165039 87.57772827148438 111.20207977294922 C 85.46089172363281 109.60948181152344 81.09066772460938 106.40178680419922 76.7204360961914 103.19412231445312" stroke-width="2.0" fill="none" stroke="rgb(22, 28, 17)" stroke-opacity="1.0" stroke-linecap="round" stroke-linejoin="round"/>
    <path d="M 166.7819061279297 142.24038696289062 C 166.672119140625 145.636962890625 166.56460571289062 149.0332489013672 165.45492553710938 151.4324951171875 C 165.34515380859375 154.83056640625 156.3986053466797 155.59442138671875 147.44984436035156 156.36048889160156" stroke-width="3.39213228225708" fill="none" stroke="rgb(193, 120, 12)" stroke-opacity="0.21716002" stroke-linecap="round" stroke-linejoin="round"/>
    <path d="M 148.93048095703125 102.89411163330078 C 148.6240234375 88.12130737304688 162.2830810546875 98.50355529785156 159.20083618164062 90.90544128417969" stroke-width="2.088016986846924" fill="none" stroke="rgb(255, 54, 172)" stroke-opacity="0.20148997" stroke-linecap="round" stroke-linejoin="round"/>
    <path d="M 74.30797576904297 90.99058532714844 C 77.53789520263672 94.72483825683594 80.76970672607422 98.45970916748047 83.12879180908203 99.97509765625 C 86.48711395263672 99.49391174316406 90.97110748291016 97.79640197753906 94.45672607421875 95.097412109375 C 96.9424057006836 91.39846801757812 93.97730255126953 85.65054321289062 89.01282501220703 80.9024658203125" stroke-width="2.4970486164093018" fill="none" stroke="rgb(127, 254, 169)" stroke-opacity="0.12305998" stroke-linecap="round" stroke-linejoin="round"/>
    <path d="M 200.3518524169922 84.1056900024414 C 203.99075317382812 83.78043365478516 205.6398162841797 82.45411682128906 209.28121948242188 82.12933349609375 C 211.9244842529297 81.80440521240234 206.75006103515625 80.08854675292969 200.5736083984375 78.37284088134766" stroke-width="2.0" fill="none" stroke="rgb(130, 160, 58)" stroke-opacity="0.50071996" stroke-linecap="round" stroke-linejoin="round"/>
    <path d="M 141.5160369873047 152.22813415527344 C 153.27462768554688 148.9141082763672 139.5999298095703 157.64697265625 142.7864990234375 164.97264099121094" stroke-width="2.0" fill="none" stroke="rgb(143, 13, 241)" stroke-opacity="0.0" stroke-linecap="round" stroke-linejoin="round"/>
    <path d="M 30.52044677734375 80.98763275146484 C 27.783151626586914 83.46508026123047 25.04583168029785 85.9424819946289 22.308595657348633 88.4199447631836 C 19.571250915527344 89.89778137207031 19.35999298095703 83.8340835571289 20.148347854614258 77.77027130126953" stroke-width="2.0" fill="none" stroke="rgb(49, 48, 62)" stroke-opacity="0.31294003" stroke-linecap="round" stroke-linejoin="round"/>
    <path d="M 203.0004425048828 77.10127258300781 C 207.0592498779297 83.57635498046875 211.12046813964844 91.05329132080078 215.17935180664062 98.5281753540039 C 218.23825073242188 107.0030288696289 219.50384521484375 92.30628204345703 221.76942443847656 77.6097412109375" stroke-width="2.0" fill="none" stroke="rgb(80, 62, 212)" stroke-opacity="0.64026016" stroke-linecap="round" stroke-linejoin="round"/>
    <path d="M 18.061553955078125 84.49995422363281 C 14.361058235168457 86.68396759033203 10.660404205322266 88.87010192871094 5.962413311004639 90.05425262451172 C 2.2619845867156982 92.23836517333984 0.8664811253547668 89.90275573730469 0.46860530972480774 85.56755828857422" stroke-width="2.0" fill="none" stroke="rgb(42, 28, 224)" stroke-opacity="0.73153985" stroke-linecap="round" stroke-linejoin="round"/>
    <path d="M 133.1585693359375 166.22991943359375 C 136.0974578857422 164.14224243164062 139.0363311767578 162.0568084716797 141.97520446777344 159.9691162109375 C 144.9141082763672 157.88145446777344 153.81808471679688 154.41392517089844 163.72430419921875 150.9464111328125" stroke-width="6.026564121246338" fill="none" stroke="rgb(255, 0, 8)" stroke-opacity="0.79664" stroke-linecap="round" stroke-linejoin="round"/>
    <path d="M 141.88194274902344 157.75196838378906 C 142.5157012939453 155.70895385742188 143.1497039794922 153.66412353515625 144.8297576904297 151.88125610351562 C 146.5096435546875 150.0982208251953 149.24017333984375 148.57725524902344 151.9628448486328 147.0534210205078 C 154.69602966308594 144.53858947753906 156.35682678222656 138.93145751953125 158.0167236328125 132.33274841308594" stroke-width="2.0" fill="none" stroke="rgb(57, 74, 2)" stroke-opacity="0.058909915" stroke-linecap="round" stroke-linejoin="round"/>
    <path d="M 150.06402587890625 167.00535583496094 C 134.2322998046875 166.35537719726562 118.39974975585938 165.70802307128906 112.52831268310547 169.72434997558594 C 107.65681457519531 173.74093627929688 111.74496459960938 182.4256591796875 114.83580780029297 192.107177734375 C 118.92383575439453 200.7895050048828 126.71666717529297 198.3543243408203 134.50938415527344 194.91986083984375" stroke-width="2.0" fill="none" stroke="rgb(236, 85, 194)" stroke-opacity="0.09728006" stroke-linecap="round" stroke-linejoin="round"/>
    <path d="M 150.35595703125 151.7169952392578 C 147.0653076171875 150.77845764160156 143.77474975585938 150.83750915527344 142.995361328125 152.67434692382812 C 142.2158203125 153.51173400878906 143.9471893310547 159.1193084716797 145.67874145507812 162.73538208007812 C 147.40966796875 168.3452911376953 146.236328125 167.62628173828125 144.06069946289062 165.907470703125" stroke-width="2.0" fill="none" stroke="rgb(255, 123, 74)" stroke-opacity="0.3748099" stroke-linecap="round" stroke-linejoin="round"/>
    <path d="M 118.9959716796875 109.20033264160156 C 119.38565063476562 109.96809387207031 119.77307891845703 111.73339080810547 119.88521575927734 107.71558380126953 C 119.99724578857422 103.70532989501953 119.8292236328125 93.89579010009766 118.66357421875 84.0849838256836 C 119.49771881103516 74.28030395507812 115.11178588867188 67.80669403076172 110.7258071899414 61.335296630859375" stroke-width="2.2548575401306152" fill="none" stroke="rgb(190, 52, 94)" stroke-opacity="0.38408002" stroke-linecap="round" stroke-linejoin="round"/>
    <path d="M 180.03150939941406 21.985139846801758 C 185.64492797851562 21.161754608154297 191.25601196289062 18.340862274169922 188.54103088378906 16.596569061279297 C 184.82643127441406 13.852624893188477 173.7854461669922 10.187994003295898 162.7422637939453 6.523348808288574 C 152.70123291015625 1.858744502067566 168.65443420410156 10.724726676940918 184.6077880859375 19.592851638793945" stroke-width="2.0" fill="none" stroke="rgb(146, 144, 255)" stroke-opacity="0.76969993" stroke-linecap="round" stroke-linejoin="round"/>
    <path d="M 163.26702880859375 150.9248504638672 C 169.42237854003906 159.59304809570312 177.54788208007812 167.2609405517578 179.55123901367188 163.88253784179688 C 182.52371215820312 160.50503540039062 181.31187438964844 145.0854949951172 180.10009765625 129.65904235839844 C 179.8847198486328 114.23361206054688 172.4316864013672 123.42676544189453 166.96302795410156 132.61965942382812" stroke-width="2.0" fill="none" stroke="rgb(116, 57, 193)" stroke-opacity="0.004990002" stroke-linecap="round" stroke-linejoin="round"/>
    <path d="M 222.98716735839844 189.46556091308594 C 219.27537536621094 187.58030700683594 216.56588745117188 183.69522094726562 212.85421752929688 180.8123321533203 C 209.14256286621094 178.92718505859375 213.45005798339844 168.73963928222656 217.75755310058594 157.5499725341797" stroke-width="2.0" fill="none" stroke="rgb(79, 47, 223)" stroke-opacity="0.30817" stroke-linecap="round" stroke-linejoin="round"/>
    <path d="M 174.4068603515625 196.47669982910156 C 169.38165283203125 197.4286651611328 165.373291015625 198.3819122314453 162.33326721191406 200.33041381835938 C 158.3079071044922 200.28248596191406 162.12466430664062 200.156982421875 164.9419403076172 200.0315399169922" stroke-width="2.0" fill="none" stroke="rgb(53, 45, 134)" stroke-opacity="0.67901003" stroke-linecap="round" stroke-linejoin="round"/>
    <path d="M 166.7572784423828 156.57107543945312 C 164.6807861328125 177.04263305664062 166.99472045898438 186.03614807128906 168.4350128173828 198.940673828125" stroke-width="2.11773943901062" fill="none" stroke="rgb(17, 37, 30)" stroke-opacity="0.30639008" stroke-linecap="round" stroke-linejoin="round"/>
    <path d="M 82.93643188476562 136.1310577392578 C 78.23399353027344 105.22181701660156 83.17623138427734 106.16500091552734 78.18303680419922 106.76557922363281" stroke-width="2.0" fill="none" stroke="rgb(146, 169, 149)" stroke-opacity="0.69035035" stroke-linecap="round" stroke-linejoin="round"/>
    <path d="M 223.28857421875 33.311439514160156 C 223.52809143066406 39.219417572021484 225.76097106933594 44.13944625854492 226.99732971191406 50.05366516113281 C 227.73406982421875 56.465919494628906 227.2211151123047 60.70175552368164 226.71038818359375 64.93535614013672" stroke-width="2.466390371322632" fill="none" stroke="rgb(103, 89, 235)" stroke-opacity="0.07340999" stroke-linecap="round" stroke-linejoin="round"/>
    <path d="M 213.2340850830078 160.38223266601562 C 208.13137817382812 159.7080078125 203.02867126464844 159.0360107421875 202.2702178955078 155.80946350097656 C 199.51185607910156 153.58290100097656 201.10000610351562 149.8062744140625 202.6881561279297 146.02745056152344 C 205.2762908935547 143.2484588623047 207.58119201660156 144.52749633789062 208.88401794433594 144.8065643310547" stroke-width="2.0" fill="none" stroke="rgb(33, 12, 236)" stroke-opacity="0.46864" stroke-linecap="round" stroke-linejoin="round"/>
    <path d="M 98.51697540283203 217.53488159179688 C 95.7281723022461 218.07119750976562 88.41041564941406 210.9479522705078 84.11833190917969 205.30674743652344" stroke-width="2.0" fill="none" stroke="rgb(194, 195, 70)" stroke-opacity="0.32742998" stroke-linecap="round" stroke-linejoin="round"/>
    <path d="M 171.63507080078125 66.62387084960938 C 176.26336669921875 67.7261962890625 178.89068603515625 70.82686614990234 182.5193328857422 72.93023681640625 C 186.14810180664062 75.0296630859375 183.7266082763672 60.21115493774414 181.30743408203125 45.389217376708984" stroke-width="3.4391419887542725" fill="none" stroke="rgb(153, 237, 111)" stroke-opacity="0.06100995" stroke-linecap="round" stroke-linejoin="round"/>
    <path d="M 36.120479583740234 179.4266815185547 C 35.93895721435547 188.46511840820312 41.02379608154297 177.61233520507812 64.86863708496094 179.36978149414062" stroke-width="2.0" fill="none" stroke="rgb(143, 134, 141)" stroke-opacity="0.86786" stroke-linecap="round" stroke-linejoin="round"/>
    <path d="M 124.4726333618164 135.27853393554688 C 126.83113098144531 134.072509765625 129.18788146972656 133.8641815185547 130.32142639160156 135.3246612548828 C 130.45523071289062 136.78533935546875 130.3630828857422 139.9212646484375 130.27125549316406 144.04364013671875 C 131.17930603027344 147.17295837402344 118.95336151123047 151.3684539794922 106.72747039794922 154.5640106201172" stroke-width="2.768404722213745" fill="none" stroke="rgb(182, 175, 185)" stroke-opacity="0.36664996" stroke-linecap="round" stroke-linejoin="round"/>
    <path d="M 143.1556854248047 189.94033813476562 C 143.46942138671875 189.9405517578125 143.1557159423828 190.5699005126953 143.15570068359375 190.88352966308594 C 144.15548706054688 192.69281005859375 144.0883331298828 193.52186584472656 143.842041015625 194.29356384277344 C 142.86990356445312 197.33551025390625 140.50222778320312 199.25070190429688 137.8679962158203 200.89707946777344 C 130.94544982910156 203.59759521484375 123.86483764648438 205.9764862060547 116.8470230102539 205.9767303466797 C 114.70103454589844 206.97642517089844 112.83281707763672 207.15342712402344 111.18640899658203 205.50927734375 C 109.79985809326172 204.1226806640625 110.74381256103516 200.87159729003906 109.9844741821289 199.16241455078125 C 108.1781234741211 198.347900390625 107.05587005615234 196.4013671875 107.78254699707031 193.40101623535156 C 107.53614807128906 192.58587646484375 107.89231872558594 190.6665802001953 107.78254699707031 188.8412628173828 C 106.63475036621094 186.41751098632812 106.05911254882812 184.0092315673828 105.73424530029297 181.60842895507812 C 105.43858337402344 179.4242706298828 105.40946960449219 177.30050659179688 105.21012878417969 175.10885620117188 C 106.19204711914062 173.92259216308594 106.15612030029297 173.6923370361328 105.00015258789062 174.58602905273438 C 104.3863754272461 173.5108184814453 101.15768432617188 175.97474670410156 99.60652923583984 176.57740783691406 C 95.73762512207031 178.0782012939453 92.17145538330078 178.90699768066406 88.22871398925781 177.31211853027344 C 85.9582290649414 174.98831176757812 82.19278717041016 170.2216033935547 80.00431823730469 167.61199951171875 C 74.44908142089844 160.9906005859375 69.27014923095703 154.02203369140625 62.12879943847656 148.90594482421875 C 57.27886199951172 142.08563232421875 51.37703323364258 136.30807495117188 45.3089485168457 130.7169647216797 C 43.83277893066406 129.35726928710938 41.29709243774414 128.5396728515625 39.44008255004883 127.88785552978516 C 37.772979736328125 128.65249633789062 36.97980499267578 128.62120056152344 36.4488410949707 128.153076171875 C 36.233848571777344 126.96314239501953 36.53624725341797 126.57538604736328 37.659339904785156 127.3152847290039 C 38.92940902709961 124.63175201416016 39.4705924987793 121.02226257324219 40.957969665527344 119.45259094238281" stroke-width="2.0" fill="none" stroke="rgb(26, 26, 21)" stroke-opacity="0.99" stroke-linecap="round" stroke-linejoin="round"/>
    <path d="M 47.51082229614258 61.431549072265625 C 48.59859848022461 61.431861877441406 48.276268005371094 60.09680938720703 49.02656936645508 59.440330505371094 C 49.92714309692383 58.654109954833984 51.01148986816406 58.08528137207031 51.855560302734375 57.238277435302734 C 53.44752502441406 55.64891815185547 55.87607192993164 54.90083312988281 56.4677619934082 52.31256866455078 C 58.14855194091797 52.631439208984375 58.921321868896484 52.04005432128906 58.5643424987793 50.32114791870117 C 63.60750198364258 46.796295166015625 67.44462585449219 42.09006881713867 71.51470947265625 37.589908599853516 C 72.06302642822266 36.98260498046875 72.8227767944336 36.59751892089844 73.40074920654297 36.01739501953125 C 72.97879791259766 34.43962478637695 73.47154998779297 33.776527404785156 73.9732894897461 33.13137435913086 C 74.31824493408203 32.69009780883789 75.23888397216797 31.56563377380371 74.60272216796875 30.929533004760742 C 74.33482360839844 29.66160774230957 71.71395874023438 29.809446334838867 70.04660034179688 29.88113021850586 C 68.26091766357422 30.95943260192871 65.45316314697266 29.845605850219727 63.7006721496582 30.194725036621094 C 60.51609802246094 31.032567977905273 55.22989273071289 33.9655876159668 51.49355697631836 36.120460510253906 C 49.39469528198242 37.332298278808594 47.36974334716797 38.73902893066406 45.938385009765625 40.73262405395508 C 44.891380310058594 39.79764938354492 43.76689910888672 41.580684661865234 44.100650787353516 43.2480583190918 C 46.234031677246094 44.51504898071289 50.808135986328125 45.509605407714844 52.333560943603516 45.91729736328125 C 54.814640045166016 47.8491096496582 57.157745361328125 46.54676055908203 60.87176513671875 46.546722412109375 C 65.04253387451172 47.54665756225586 68.23177337646484 47.6900634765625 71.4090805053711 47.54671096801758 C 80.1787109375 47.14790344238281 88.97322845458984 45.651668548583984 97.61517333984375 44.19343185424805 C 103.38191986083984 43.21812438964844 109.12195587158203 42.222198486328125 114.70185852050781 40.41902160644531 C 115.39543151855469 38.872501373291016 117.06869506835938 38.26769256591797 118.73299407958984 37.636009216308594 C 119.5374755859375 37.331451416015625 121.6273422241211 38.23664093017578 121.03800201416016 37.482032775878906 C 121.27770233154297 37.042991638183594 120.44667053222656 36.43144226074219 120.7243881225586 35.015689849853516 C 121.89192199707031 35.76188659667969 123.83200073242188 34.75847244262695 123.24006652832031 33.65328598022461 C 126.9674072265625 32.687843322753906 132.11557006835938 33.189605712890625 135.874267578125 33.65328598022461 C 138.43165588378906 35.090057373046875 142.00460815429688 35.410369873046875 145.56600952148438 34.806880950927734" stroke-width="2.0" fill="none" stroke="rgb(21, 21, 26)" stroke-opacity="0.99" stroke-linecap="round" stroke-linejoin="round"/>
    <path d="M 55.653263092041016 29.14640998840332 C 59.554420471191406 29.146427154541016 56.66033935546875 38.740570068359375 58.7982292175293 43.507076263427734 C 60.35053253173828 50.01210021972656 61.14933395385742 57.454044342041016 63.93454360961914 62.898765563964844 C 65.05902099609375 66.95989227294922 65.91863250732422 72.1087875366211 67.39308166503906 75.0574722290039 C 68.83341217041016 78.91251373291016 71.71625518798828 80.62165832519531 75.67007446289062 79.88023376464844 C 76.82527923583984 79.47708892822266 79.84996032714844 78.57112121582031 80.9644546508789 77.99412536621094 C 81.1806640625 77.94805908203125 81.69966888427734 78.80401611328125 81.59404754638672 77.99443817138672 C 81.28937530517578 78.5588150024414 80.49857330322266 78.7737808227539 80.2320785522461 79.35615539550781 C 80.32459259033203 82.33382415771484 79.68385314941406 84.43248748779297 78.13520812988281 85.54072570800781 C 78.01224517822266 86.01861572265625 78.22041320800781 87.51639556884766 78.24049377441406 88.00770568847656 C 78.25401306152344 88.35687255859375 78.56062316894531 88.9115982055664 78.24068450927734 88.05620574951172 C 68.9244613647461 92.2248306274414 67.42457580566406 90.54707336425781 55.914554595947266 89.89390563964844 C 53.88585662841797 89.45755004882812 50.91551208496094 87.71348571777344 47.90056610107422 87.2161865234375 C 47.52043151855469 87.1539077758789 46.80672836303711 86.83887481689453 45.74706268310547 87.2164535522461 C 45.50518035888672 88.56913757324219 45.8524284362793 90.97062683105469 46.165985107421875 92.30384063720703 C 48.21869659423828 95.78424835205078 49.112430572509766 100.34730529785156 49.83504104614258 105.6164779663086 C 51.62929153442383 110.06733703613281 54.30613708496094 114.1104507446289 56.6491584777832 118.29928588867188 C 57.37287521362305 119.59383392333984 59.588069915771484 124.34506225585938 61.8907356262207 125.11341094970703" stroke-width="2.0" fill="none" stroke="rgb(21, 21, 26)" stroke-opacity="1.0" stroke-linecap="round" stroke-linejoin="round"/>
    <path d="M 134.50933837890625 194.91993713378906 C 139.27523803710938 194.90110778808594 148.34544372558594 188.70272827148438 141.3443603515625 197.73870849609375 C 139.45497131347656 200.28564453125 135.11289978027344 210.46502685546875 145.86447143554688 210.8314666748047 C 146.7401580810547 221.8872833251953 147.04962158203125 219.912353515625 135.0401153564453 217.65663146972656" stroke-width="2.1999974250793457" fill="none" stroke="rgb(121, 165, 157)" stroke-opacity="0.26305366" stroke-linecap="round" stroke-linejoin="round"/>
    <path d="M 127.72749328613281 76.126708984375 C 126.15617370605469 67.13459014892578 127.93785095214844 71.61001586914062 129.80096435546875 74.34173583984375" stroke-width="2.0" fill="none" stroke="rgb(200, 75, 242)" stroke-opacity="0.9510426" stroke-linecap="round" stroke-linejoin="round"/>
    <path d="M 75.72047424316406 103.19419860839844 C 66.59302520751953 113.83870697021484 70.48370361328125 122.62660217285156 68.88030242919922 116.1777572631836 C 58.9682731628418 108.6323471069336 65.8081283569336 101.71442413330078 66.64790344238281 91.0120620727539" stroke-width="2.0" fill="none" stroke="rgb(30, 112, 163)" stroke-opacity="0.7044365" stroke-linecap="round" stroke-linejoin="round"/>
    <path d="M 141.52366638183594 152.23532104492188 C 143.34239196777344 155.70826721191406 141.255859375 162.96995544433594 151.4345703125 166.12733459472656 C 162.33274841308594 156.03138732910156 158.77420043945312 147.6173858642578 166.66085815429688 150.9764862060547 C 163.44017028808594 145.01744079589844 166.34559631347656 137.47470092773438 165.70249938964844 148.65538024902344" stroke-width="2.0" fill="none" stroke="rgb(141, 84, 53)" stroke-opacity="0.4402927" stroke-linecap="round" stroke-linejoin="round"/>
    <path d="M 136.87564086914062 92.11506652832031 C 134.85867309570312 90.16450500488281 133.3564453125 90.63863372802734 139.59634399414062 94.09230041503906" stroke-width="2.0" fill="none" stroke="rgb(145, 218, 116)" stroke-opacity="0.89878404" stroke-linecap="round" stroke-linejoin="round"/>
    <path d="M 45.74705505371094 88.21614074707031 C 48.489688873291016 97.10308837890625 39.430233001708984 107.95626068115234 39.56305694580078 112.62318420410156 C 30.026552200317383 115.43414306640625 37.931434631347656 103.49424743652344 35.3679084777832 95.0588607788086" stroke-width="2.0" fill="none" stroke="rgb(133, 87, 67)" stroke-opacity="0.5936674" stroke-linecap="round" stroke-linejoin="round"/>
    <path d="M 35.36791229248047 96.05874633789062 C 45.85612106323242 104.69977569580078 55.377769470214844 110.85591888427734 67.18599700927734 109.11051177978516 C 56.3381233215332 102.20680236816406 57.100521087646484 105.26937103271484 61.14963912963867 97.82381439208984" stroke-width="2.0" fill="none" stroke="rgb(106, 165, 63)" stroke-opacity="0.9613353" stroke-linecap="round" stroke-linejoin="round"/>
    <path d="M 35.36791229248047 95.05883026123047 C 34.95488739013672 88.29862976074219 41.239261627197266 97.47238159179688 47.415687561035156 99.25223541259766 C 51.443912506103516 109.59001159667969 45.53508377075195 100.94417572021484 35.34699249267578 106.14623260498047" stroke-width="2.0" fill="none" stroke="rgb(171, 89, 16)" stroke-opacity="0.07219198" stroke-linecap="round" stroke-linejoin="round"/>
    <path d="M 129.80099487304688 75.34166717529297 C 134.16192626953125 72.95169067382812 134.2719268798828 68.53797912597656 143.76744079589844 67.38146209716797 C 145.5894012451172 61.64888381958008 151.3437042236328 66.5163803100586 140.95252990722656 61.61764144897461" stroke-width="2.0" fill="none" stroke="rgb(191, 188, 90)" stroke-opacity="0.47086045" stroke-linecap="round" stroke-linejoin="round"/>
    <path d="M 67.64764404296875 91.01213073730469 C 74.55343627929688 83.04474639892578 78.52041625976562 71.39734649658203 89.21981048583984 79.3188705444336" stroke-width="2.0" fill="none" stroke="rgb(61, 72, 0)" stroke-opacity="0.7335267" stroke-linecap="round" stroke-linejoin="round"/>
    <path d="M 135.0401153564453 217.65663146972656 C 126.55305480957031 219.15292358398438 125.03585815429688 217.54185485839844 119.45564270019531 221.46652221679688" stroke-width="2.0" fill="none" stroke="rgb(217, 190, 153)" stroke-opacity="0.21060558" stroke-linecap="round" stroke-linejoin="round"/>
    <path d="M 135.0400848388672 217.6566619873047 C 142.4407196044922 210.89117431640625 146.3627471923828 221.64523315429688 149.26182556152344 214.9434051513672 C 160.0819854736328 205.32977294921875 159.7013397216797 196.4925079345703 159.02667236328125 198.1982421875" stroke-width="2.0" fill="none" stroke="rgb(60, 190, 180)" stroke-opacity="0.66958654" stroke-linecap="round" stroke-linejoin="round"/>
    <path d="M 134.40890502929688 89.68902587890625 C 142.0441436767578 84.04019165039062 132.62571716308594 84.02188873291016 137.06063842773438 79.80598449707031" stroke-width="2.1999950408935547" fill="none" stroke="rgb(226, 70, 72)" stroke-opacity="0.8861342" stroke-linecap="round" stroke-linejoin="round"/>
    <path d="M 196.94143676757812 134.79965209960938 C 198.4896240234375 124.00756072998047 191.67910766601562 123.3534164428711 202.8846893310547 123.65978240966797 C 206.51480102539062 129.54005432128906 215.59112548828125 121.50885772705078 218.48410034179688 120.22077178955078" stroke-width="2.0" fill="none" stroke="rgb(240, 213, 37)" stroke-opacity="0.7265527" stroke-linecap="round" stroke-linejoin="round"/>
    <path d="M 222.85140991210938 201.7372283935547 C 224.8845977783203 201.46212768554688 219.4671630859375 210.26040649414062 210.6830596923828 204.2718963623047 C 220.9888153076172 199.13743591308594 225.62249755859375 199.52914428710938 226.2443084716797 208.14476013183594" stroke-width="2.1999988555908203" fill="none" stroke="rgb(190, 228, 209)" stroke-opacity="0.9373283" stroke-linecap="round" stroke-linejoin="round"/>
    <path d="M 119.36597442626953 150.53335571289062 C 109.38465118408203 152.07794189453125 98.82772064208984 144.8831787109375 92.25068664550781 136.3414764404297 C 93.87425994873047 130.8629608154297 82.02117156982422 130.82286071777344 91.61019134521484 128.78533935546875" stroke-width="2.0" fill="none" stroke="rgb(64, 210, 125)" stroke-opacity="0.37381694" stroke-linecap="round" stroke-linejoin="round"/>
    <path d="M 193.72967529296875 29.24748992919922 C 199.5103759765625 19.474929809570312 203.1472625732422 24.36141014099121 205.8936004638672 30.118459701538086" stroke-width="2.0" fill="none" stroke="rgb(234, 38, 218)" stroke-opacity="0.14946774" stroke-linecap="round" stroke-linejoin="round"/>
    <path d="M 112.34701538085938 220.5413360595703 C 119.02214050292969 209.54180908203125 110.31590270996094 210.18443298339844 108.45024108886719 214.0892791748047 C 118.67465209960938 209.99917602539062 113.15455627441406 207.7975616455078 120.43937683105469 202.36073303222656 C 115.44542694091797 210.26258850097656 118.92176818847656 215.30038452148438 119.38114929199219 222.3405303955078" stroke-width="2.0" fill="none" stroke="rgb(111, 243, 82)" stroke-opacity="0.8481614" stroke-linecap="round" stroke-linejoin="round"/>
    <path d="M 111.51787567138672 157.97801208496094 C 122.6778335571289 148.1658172607422 117.3653793334961 157.4873046875 116.41920471191406 149.84732055664062 C 108.79004669189453 156.08917236328125 115.03277587890625 156.288330078125 114.78253936767578 146.92018127441406 C 111.62274169921875 146.4637451171875 114.35482025146484 154.9465789794922 109.0497817993164 159.43836975097656" stroke-width="2.1999995708465576" fill="none" stroke="rgb(117, 99, 145)" stroke-opacity="0.89520466" stroke-linecap="round" stroke-linejoin="round"/>
    <path d="M 208.9982147216797 70.00894165039062 C 210.47581481933594 69.59638214111328 214.020751953125 74.55328369140625 211.272705078125 72.90306091308594" stroke-width="2.0" fill="none" stroke="rgb(95, 53, 167)" stroke-opacity="0.73514295" stroke-linecap="round" stroke-linejoin="round"/>
    <path d="M 90.40351104736328 200.64356994628906 C 98.49580383300781 203.81690979003906 96.03117370605469 193.60560607910156 96.8204574584961 192.2455291748047 C 98.49239349365234 197.4504852294922 108.4359359741211 205.95101928710938 100.13223266601562 213.92697143554688" stroke-width="2.1999998092651367" fill="none" stroke="rgb(53, 184, 28)" stroke-opacity="0.68366414" stroke-linecap="round" stroke-linejoin="round"/>
    <path d="M 145.85208129882812 152.91351318359375 C 141.00912475585938 143.32357788085938 150.01791381835938 144.42047119140625 146.939697265625 137.25396728515625" stroke-width="2.0" fill="none" stroke="rgb(147, 91, 213)" stroke-opacity="0.39034122" stroke-linecap="round" stroke-linejoin="round"/>
    <path d="M 41.464256286621094 180.67953491210938 C 33.85551834106445 189.5213623046875 29.52260971069336 185.75119018554688 28.506099700927734 190.7119598388672" stroke-width="2.0" fill="none" stroke="rgb(198, 210, 12)" stroke-opacity="0.8517754" stroke-linecap="round" stroke-linejoin="round"/>
    <path d="M 174.5281982421875 52.044105529785156 C 167.52708435058594 59.00121307373047 174.09986877441406 58.4285888671875 171.87164306640625 67.4517822265625 C 176.08541870117188 72.75471496582031 165.0681610107422 67.44374084472656 174.38485717773438 72.04427337646484 C 169.10479736328125 64.4034423828125 180.48831176757812 59.34196853637695 185.30674743652344 66.89514923095703" stroke-width="2.0" fill="none" stroke="rgb(32, 70, 112)" stroke-opacity="0.5999218" stroke-linecap="round" stroke-linejoin="round"/>
    <path d="M 185.0972137451172 173.66297912597656 C 175.15077209472656 173.33267211914062 168.72830200195312 163.93850708007812 171.40451049804688 173.36453247070312" stroke-width="2.0" fill="none" stroke="rgb(142, 112, 215)" stroke-opacity="0.2347808" stroke-linecap="round" stroke-linejoin="round"/>
  </g>
</svg>
