<?xml version="1.0" ?>
<svg xmlns="http://www.w3.org/2000/svg" version="1.1" width="956.0" height="956.0">
  <defs/>
  <g>
    <path d="M 43.67131805419922 59.88606262207031 C 43.48910903930664 61.210025787353516 43.852684020996094 61.98837661743164 44.21541213989258 62.284820556640625 C 43.48936080932617 62.03696060180664 42.763267517089844 61.85017395019531 43.12725830078125 62.87249755859375 C 42.94547653198242 63.89485549926758 43.30897521972656 66.67076110839844 43.12674331665039 68.9009780883789 C 44.034934997558594 71.13179779052734 43.03646469116211 81.5885238647461 42.582679748535156 93.13506317138672" stroke-width="1.0892857313156128" fill="none" stroke="rgb(20, 20, 25)" stroke-opacity="0.71" stroke-linecap="round" stroke-linejoin="round"/>
    <path d="M 75.1913070678711 57.3678092956543 C 75.39982604980469 57.482582092285156 75.6084976196289 57.59735870361328 75.15419006347656 59.07733154296875 C 75.24446868896484 60.01293182373047 75.2176284790039 61.22608184814453 75.19078063964844 62.98233413696289 C 75.1639404296875 64.73910522460938 74.9052963256836 72.87530517578125 75.19129943847656 81.5548095703125" stroke-width="1.0892857313156128" fill="none" stroke="rgb(25, 25, 20)" stroke-opacity="0.7099999" stroke-linecap="round" stroke-linejoin="round"/>
    <path d="M 55.632991790771484 67.7444839477539 C 56.177154541015625 67.94790649414062 56.17756652832031 67.88446807861328 56.17759704589844 68.59938049316406 C 56.17759704589844 69.31430053710938 56.17759704589844 70.80636596679688 56.17759704589844 72.29964447021484 C 56.177589416503906 73.79292297363281 56.1776008605957 81.49356079101562 56.17759704589844 89.4677505493164" stroke-width="1.0892857313156128" fill="none" stroke="rgb(25, 20, 30)" stroke-opacity="0.71" stroke-linecap="round" stroke-linejoin="round"/>
    <path d="M 43.67135238647461 63.144805908203125 C 44.05867004394531 63.14579772949219 44.47026062011719 63.14700698852539 44.35285186767578 63.148162841796875 C 44.76154708862305 63.14938735961914 47.93844985961914 60.897274017333984 51.65993881225586 58.6451530456543" stroke-width="1.1613924503326416" fill="none" stroke="rgb(181, 68, 0)" stroke-opacity="0.7099998" stroke-linecap="round" stroke-linejoin="round"/>
    <path d="M 43.67134475708008 59.88591003417969 C 43.54401779174805 61.8895149230957 43.96126174926758 63.348602294921875 44.37968444824219 64.80787658691406 C 44.79694366455078 66.2669677734375 49.715240478515625 68.3709945678711 53.54344940185547 71.56421661376953" stroke-width="1.1613924503326416" fill="none" stroke="rgb(70, 85, 255)" stroke-opacity="0.71" stroke-linecap="round" stroke-linejoin="round"/>
    <path d="M 75.19203186035156 58.259639739990234 C 79.62061309814453 61.39918899536133 81.39692687988281 65.91925811767578 76.51937866210938 67.45598602294922" stroke-width="1.0892857313156128" fill="none" stroke="rgb(179, 51, 252)" stroke-opacity="0.7099999" stroke-linecap="round" stroke-linejoin="round"/>
    <path d="M 74.64673614501953 64.07099151611328 C 73.76338958740234 65.81265258789062 72.88014221191406 68.09900665283203 72.54146575927734 70.9298324584961 C 71.11356353759766 72.67147827148438 66.7142333984375 73.4132308959961 62.316131591796875 74.15621185302734" stroke-width="1.0892857313156128" fill="none" stroke="rgb(19, 135, 215)" stroke-opacity="0.69000006" stroke-linecap="round" stroke-linejoin="round"/>
    <path d="M 56.17759704589844 69.14376068115234 C 52.129127502441406 67.12178039550781 49.99900817871094 69.9106216430664 50.66391372680664 72.2535400390625" stroke-width="1.1613924503326416" fill="none" stroke="rgb(52, 2, 132)" stroke-opacity="0.7099999" stroke-linecap="round" stroke-linejoin="round"/>
    <path d="M 43.126747131347656 68.08859252929688 C 41.53709030151367 71.49297332763672 39.94864273071289 74.89798736572266 38.35898971557617 78.8464126586914 C 37.31391906738281 82.25143432617188 33.38921356201172 77.96756744384766 28.91864776611328 74.7728271484375" stroke-width="1.0892857313156128" fill="none" stroke="rgb(253, 54, 192)" stroke-opacity="0.69" stroke-linecap="round" stroke-linejoin="round"/>
    <path d="M 75.1920166015625 58.456512451171875 C 77.16119384765625 63.44343185424805 81.40596771240234 62.913204193115234 83.12004852294922 62.243438720703125" stroke-width="1.0892857313156128" fill="none" stroke="rgb(165, 231, 48)" stroke-opacity="0.69" stroke-linecap="round" stroke-linejoin="round"/>
    <path d="M 55.63296890258789 68.28221893310547 C 55.61956024169922 66.33167266845703 55.604949951171875 65.46753692626953 56.707786560058594 66.08766174316406 C 58.355228424072266 66.70733642578125 60.57569885253906 68.80896759033203 62.79609298706055 71.45515441894531 C 65.01649475097656 74.1013412475586 64.86758422851562 74.0782470703125 64.7197494506836 74.0542221069336" stroke-width="1.0892857313156128" fill="none" stroke="rgb(21, 44, 24)" stroke-opacity="0.69" stroke-linecap="round" stroke-linejoin="round"/>
    <path d="M 53.543609619140625 71.56495666503906 C 48.903076171875 65.14661407470703 44.26548767089844 58.72811508178711 41.74498748779297 59.18682098388672 C 38.68110275268555 59.644378662109375 38.825538635253906 67.52333068847656 38.425384521484375 74.85702514648438 C 38.02521514892578 82.1904296875 31.70998764038086 73.38691711425781 25.94060707092285 64.58216857910156" stroke-width="1.0892857313156128" fill="none" stroke="rgb(221, 109, 215)" stroke-opacity="0.71" stroke-linecap="round" stroke-linejoin="round"/>
    <path d="M 64.1759262084961 74.59910583496094 C 64.12416076660156 79.85897827148438 64.6182632446289 84.57430267333984 64.65975189208984 86.60194396972656 C 65.24585723876953 88.62959289550781 64.83592224121094 87.97077941894531 64.42597961425781 87.31199645996094 C 63.47148132324219 86.6531753540039 59.48450469970703 88.67787170410156 55.4975471496582 91.24842071533203" stroke-width="1.0892857313156128" fill="none" stroke="rgb(19, 212, 162)" stroke-opacity="0.71" stroke-linecap="round" stroke-linejoin="round"/>
    <path d="M 82.03010559082031 62.24293518066406 C 85.09158325195312 57.9270133972168 84.90126037597656 59.12363815307617 83.67223358154297 55.08568572998047" stroke-width="1.0892857313156128" fill="none" stroke="rgb(221, 9, 11)" stroke-opacity="0.7099999" stroke-linecap="round" stroke-linejoin="round"/>
    <path d="M 54.08895492553711 72.10957336425781 C 52.06089401245117 73.61466979980469 50.5772819519043 75.66293334960938 49.09375762939453 77.71251678466797 C 47.61024856567383 79.76213073730469 44.91206741333008 80.91554260253906 41.124725341796875 81.52554321289062" stroke-width="1.0892857313156128" fill="none" stroke="rgb(67, 140, 123)" stroke-opacity="0.69" stroke-linecap="round" stroke-linejoin="round"/>
    <path d="M 53.54434585571289 71.5642318725586 C 54.4741096496582 72.44615936279297 55.94802474975586 72.78392791748047 56.33379364013672 74.2103271484375 C 57.80738067626953 74.54794311523438 51.14462661743164 71.77771759033203 45.57212448120117 67.91715240478516" stroke-width="1.1613914966583252" fill="none" stroke="rgb(144, 100, 146)" stroke-opacity="0.71" stroke-linecap="round" stroke-linejoin="round"/>
    <path d="M 64.1754379272461 74.59908294677734 C 60.270408630371094 74.46976470947266 55.27800750732422 74.88507843017578 50.82866287231445 74.7557601928711 C 46.379417419433594 74.62642669677734 45.915557861328125 74.46537017822266 45.44841384887695 73.75973510742188" stroke-width="1.1613928079605103" fill="none" stroke="rgb(14, 48, 66)" stroke-opacity="0.71" stroke-linecap="round" stroke-linejoin="round"/>
    <path d="M 51.116424560546875 58.645145416259766 C 50.91449737548828 61.30754852294922 50.711971282958984 63.42675018310547 50.38015365600586 62.82245635986328 C 50.04830551147461 62.76268005371094 49.58591079711914 60.5264778137207 49.12355422973633 58.8334846496582 C 48.11656188964844 56.59604263305664 52.61028289794922 63.460594177246094 56.55945587158203 70.86955261230469" stroke-width="1.0892857313156128" fill="none" stroke="rgb(124, 120, 223)" stroke-opacity="0.7099998" stroke-linecap="round" stroke-linejoin="round"/>
    <path d="M 64.72074127197266 74.05374908447266 C 65.07698059082031 71.19901275634766 65.4344482421875 68.34429168701172 64.83909606933594 68.46776580810547 C 64.24374389648438 67.50360107421875 62.69676208496094 69.51778411865234 61.151023864746094 71.53321838378906 C 59.60408401489258 73.54743957519531 59.01064682006836 72.3835678100586 57.95950698852539 71.76309204101562" stroke-width="1.1613925695419312" fill="none" stroke="rgb(107, 76, 246)" stroke-opacity="0.6900001" stroke-linecap="round" stroke-linejoin="round"/>
    <path d="M 13.293379783630371 108.91570281982422 C 13.405618667602539 109.71588897705078 13.519076347351074 111.60447692871094 13.071328163146973 111.1186294555664 C 12.623588562011719 111.17713928222656 11.61708927154541 109.94860076904297 10.064746856689453 109.26466369628906 C 9.057036399841309 107.49150848388672 7.805371284484863 108.53583526611328 7.096977233886719 110.1247787475586" stroke-width="1.0892857313156128" fill="none" stroke="rgb(188, 241, 214)" stroke-opacity="0.70999986" stroke-linecap="round" stroke-linejoin="round"/>
    <path d="M 52.97264862060547 34.41732406616211 C 51.539154052734375 29.48106575012207 50.105655670166016 24.546165466308594 48.67094421386719 19.610021591186523 C 47.2374382019043 14.673901557922363 44.61809539794922 17.63853645324707 41.45412826538086 20.601879119873047" stroke-width="1.0892857313156128" fill="none" stroke="rgb(72, 44, 97)" stroke-opacity="0.69000036" stroke-linecap="round" stroke-linejoin="round"/>
    <path d="M 44.000267028808594 10.137967109680176 C 43.21749496459961 8.534981727600098 41.89137268066406 6.933108806610107 43.0319709777832 8.01928997039795 C 44.17399597167969 8.016377449035645 47.782772064208984 10.701586723327637 50.84812927246094 13.931432723999023 C 54.458106994628906 16.61665916442871 47.14788055419922 15.462539672851562 39.837623596191406 14.308417320251465" stroke-width="1.0892857313156128" fill="none" stroke="rgb(85, 242, 105)" stroke-opacity="0.70999986" stroke-linecap="round" stroke-linejoin="round"/>
    <path d="M 51.95222854614258 100.61119079589844 C 57.440853118896484 100.7815170288086 51.822059631347656 99.17967987060547 51.52893829345703 99.89749908447266" stroke-width="1.1613901853561401" fill="none" stroke="rgb(36, 79, 40)" stroke-opacity="0.69000006" stroke-linecap="round" stroke-linejoin="round"/>
    <path d="M 32.61050033569336 21.335115432739258 C 33.5417594909668 21.872840881347656 33.930877685546875 22.94800567626953 34.3176383972168 24.02765655517578 C 34.705596923828125 25.106143951416016 34.93983840942383 26.216339111328125 35.17407989501953 27.325305938720703" stroke-width="1.0892857313156128" fill="none" stroke="rgb(124, 172, 102)" stroke-opacity="0.69000006" stroke-linecap="round" stroke-linejoin="round"/>
    <path d="M 15.446680068969727 84.8897933959961 C 17.824459075927734 79.56254577636719 15.943218231201172 75.61659240722656 13.930206298828125 69.6910629272461" stroke-width="1.0892857313156128" fill="none" stroke="rgb(86, 118, 44)" stroke-opacity="0.69" stroke-linecap="round" stroke-linejoin="round"/>
    <path d="M 58.20106887817383 65.38004302978516 C 58.58049392700195 63.07380294799805 58.96113967895508 61.310916900634766 59.340576171875 59.549198150634766 C 60.26456832885742 57.78749084472656 58.08444595336914 57.325103759765625 55.35847091674805 56.861507415771484" stroke-width="1.161392331123352" fill="none" stroke="rgb(170, 190, 42)" stroke-opacity="0.71" stroke-linecap="round" stroke-linejoin="round"/>
    <path d="M 71.76138305664062 18.350278854370117 C 76.36933135986328 22.2628173828125 74.90946197509766 17.381595611572266 77.13963317871094 21.870689392089844" stroke-width="1.0892857313156128" fill="none" stroke="rgb(141, 74, 94)" stroke-opacity="0.69" stroke-linecap="round" stroke-linejoin="round"/>
    <path d="M 37.837337493896484 64.88304901123047 C 38.50785446166992 64.26203918457031 40.26873016357422 64.1844253540039 41.483909606933594 63.5634765625 C 42.6987419128418 62.94245910644531 47.158042907714844 64.16487121582031 52.70537567138672 65.38615417480469" stroke-width="1.0892857313156128" fill="none" stroke="rgb(157, 150, 61)" stroke-opacity="0.7099999" stroke-linecap="round" stroke-linejoin="round"/>
    <path d="M 79.76264953613281 121.92096710205078 C 80.34162139892578 119.76226806640625 81.46402740478516 118.14698791503906 81.22176361083984 117.15999603271484 C 80.4347915649414 116.7176513671875 77.19281005859375 116.35897827148438 74.49417114257812 116.00030517578125 C 71.79678344726562 115.0970230102539 72.34088134765625 115.98780059814453 72.88623046875 116.33454895019531" stroke-width="1.1613901853561401" fill="none" stroke="rgb(198, 71, 251)" stroke-opacity="0.71" stroke-linecap="round" stroke-linejoin="round"/>
    <path d="M 106.68193817138672 85.03548431396484 C 108.63516235351562 83.31527709960938 110.587158203125 81.59629821777344 111.99575805664062 79.33147430419922 C 113.94896697998047 77.61126708984375 114.95549774169922 75.91549682617188 116.5065689086914 74.76431274414062" stroke-width="1.0892857313156128" fill="none" stroke="rgb(183, 199, 130)" stroke-opacity="0.69" stroke-linecap="round" stroke-linejoin="round"/>
    <path d="M 39.42675018310547 27.53199577331543 C 45.364261627197266 27.86993408203125 50.75834274291992 27.664474487304688 52.253570556640625 29.89098358154297 C 54.838008880615234 32.66208267211914 53.52409362792969 36.777122497558594 52.21015548706055 40.8922119140625 C 50.896217346191406 44.4626579284668 44.38874053955078 38.64690017700195 37.88248062133789 32.8323860168457" stroke-width="1.0892857313156128" fill="none" stroke="rgb(150, 8, 83)" stroke-opacity="0.69000006" stroke-linecap="round" stroke-linejoin="round"/>
    <path d="M 96.90606689453125 24.236770629882812 C 92.80640411376953 27.978023529052734 93.67012786865234 31.605072021484375 89.351318359375 27.29114532470703" stroke-width="1.0892857313156128" fill="none" stroke="rgb(106, 66, 211)" stroke-opacity="0.69000083" stroke-linecap="round" stroke-linejoin="round"/>
    <path d="M 29.202884674072266 4.549576282501221 C 27.131330490112305 8.836217880249023 25.059770584106445 13.668642044067383 22.988203048706055 18.499834060668945 C 21.461275100708008 23.875656127929688 26.57917594909668 17.85007667541504 31.697071075439453 11.824479103088379" stroke-width="1.1613926887512207" fill="none" stroke="rgb(24, 23, 209)" stroke-opacity="0.71" stroke-linecap="round" stroke-linejoin="round"/>
    <path d="M 99.82672119140625 109.23860168457031 C 101.5025405883789 110.7103500366211 100.79615783691406 112.0755386352539 104.09917449951172 114.33744812011719" stroke-width="1.0892857313156128" fill="none" stroke="rgb(196, 213, 234)" stroke-opacity="0.7099999" stroke-linecap="round" stroke-linejoin="round"/>
    <path d="M 10.16356372833252 51.75459289550781 C 11.798399925231934 54.36951446533203 13.977598190307617 55.89551544189453 15.06797981262207 57.965606689453125 C 16.702770233154297 60.03594970703125 11.098094940185547 59.818058013916016 5.493405342102051 59.056800842285156" stroke-width="1.0892857313156128" fill="none" stroke="rgb(241, 6, 63)" stroke-opacity="0.71" stroke-linecap="round" stroke-linejoin="round"/>
    <path d="M 43.671165466308594 68.90583038330078 C 45.45622253417969 67.9945068359375 47.241092681884766 67.08195495605469 49.02471160888672 66.17060852050781 C 50.265037536621094 64.71468353271484 54.3621711730957 62.61670684814453 57.91487503051758 59.975460052490234" stroke-width="1.0892857313156128" fill="none" stroke="rgb(202, 145, 134)" stroke-opacity="0.71" stroke-linecap="round" stroke-linejoin="round"/>
    <path d="M 51.665550231933594 40.89342498779297 C 49.192626953125 36.83686828613281 46.71965026855469 32.77920150756836 44.246734619140625 28.178287506103516 C 41.77384567260742 24.121601104736328 39.929141998291016 26.365175247192383 38.084495544433594 28.608755111694336" stroke-width="1.0892857313156128" fill="none" stroke="rgb(91, 157, 35)" stroke-opacity="0.69000006" stroke-linecap="round" stroke-linejoin="round"/>
    <path d="M 31.69681739807129 11.825691223144531 C 28.396469116210938 6.364560604095459 29.476173400878906 1.761434555053711 33.897464752197266 2.2787046432495117" stroke-width="1.0892857313156128" fill="none" stroke="rgb(192, 68, 22)" stroke-opacity="0.7099999" stroke-linecap="round" stroke-linejoin="round"/>
    <path d="M 106.68070983886719 83.94551086425781 C 103.74169158935547 81.60798645019531 102.35089111328125 84.37619018554688 101.694580078125 86.5934066772461" stroke-width="1.0892857313156128" fill="none" stroke="rgb(159, 247, 112)" stroke-opacity="0.69" stroke-linecap="round" stroke-linejoin="round"/>
    <path d="M 37.882476806640625 33.37824249267578 C 34.5379524230957 31.62874984741211 31.736845016479492 29.33465003967285 29.455747604370117 30.83402442932129 C 26.629188537597656 32.87803268432617 23.232206344604492 37.0804328918457 20.378686904907227 41.82752990722656 C 17.526277542114258 46.57448959350586 21.435672760009766 40.03689193725586 25.886062622070312 34.03867721557617" stroke-width="1.0892857313156128" fill="none" stroke="rgb(212, 245, 29)" stroke-opacity="0.6900001" stroke-linecap="round" stroke-linejoin="round"/>
    <path d="M 77.60688781738281 68.00183868408203 C 78.64704132080078 70.330810546875 80.23307800292969 72.1152572631836 81.1619644165039 71.89068603515625 C 81.5462646484375 71.66622161865234 80.73131561279297 68.88949584960938 79.9151382446289 66.1127700805664 C 78.55433654785156 63.88067626953125 81.39937591552734 66.75011444091797 84.24562072753906 69.61954498291016" stroke-width="1.0892857313156128" fill="none" stroke="rgb(81, 111, 200)" stroke-opacity="0.71" stroke-linecap="round" stroke-linejoin="round"/>
    <path d="M 42.5826301574707 92.59214782714844 C 45.09999084472656 95.19268798828125 47.07395553588867 98.33784484863281 49.046695709228516 101.48300170898438 C 51.0194206237793 104.62818145751953 48.04383087158203 103.1983413696289 45.06814193725586 102.31189727783203" stroke-width="1.0892857313156128" fill="none" stroke="rgb(219, 244, 105)" stroke-opacity="0.69" stroke-linecap="round" stroke-linejoin="round"/>
    <path d="M 54.088844299316406 71.0196304321289 C 56.511863708496094 74.48198699951172 58.93334197998047 77.94453430175781 59.01115798950195 78.25055694580078 C 59.63212966918945 79.10014343261719 58.452388763427734 76.2490234375 57.27264404296875 73.39667510986328 C 56.63751220703125 69.9998550415039 56.277217864990234 74.08187103271484 57.00473403930664 77.07569122314453" stroke-width="1.0892857313156128" fill="none" stroke="rgb(179, 211, 182)" stroke-opacity="0.69" stroke-linecap="round" stroke-linejoin="round"/>
    <path d="M 101.69579315185547 86.5934066772461 C 101.36883544921875 88.61982727050781 101.0418701171875 90.64747619628906 99.19235229492188 91.01296997070312 C 96.79827117919922 91.92308807373047 93.42631530761719 91.71814727783203 90.59989929199219 92.05650329589844 C 87.22782135009766 91.85040283203125 85.92729187011719 95.44329071044922 84.62554931640625 98.49161529541016" stroke-width="1.0892857313156128" fill="none" stroke="rgb(85, 24, 162)" stroke-opacity="0.69" stroke-linecap="round" stroke-linejoin="round"/>
    <path d="M 34.44200134277344 2.278702974319458 C 36.1927375793457 2.981436014175415 37.929012298583984 3.691737413406372 39.1483268737793 4.932716369628906 C 40.89936447143555 5.090805530548096 42.9075927734375 4.323448657989502 44.37165069580078 3.556081771850586" stroke-width="1.178757905960083" fill="none" stroke="rgb(148, 179, 50)" stroke-opacity="0.71" stroke-linecap="round" stroke-linejoin="round"/>
    <path d="M 38.08571243286133 28.60875129699707 C 35.7799072265625 32.144309997558594 34.01995086669922 36.22570037841797 32.61574172973633 39.379417419433594 C 30.66696548461914 42.53429412841797 30.16546630859375 44.76155471801758 29.664043426513672 47.534610748291016 C 29.707258224487305 50.30767059326172 26.524276733398438 43.88193130493164 22.797882080078125 38.00080871582031" stroke-width="1.1787575483322144" fill="none" stroke="rgb(231, 14, 115)" stroke-opacity="0.69" stroke-linecap="round" stroke-linejoin="round"/>
    <path d="M 100.60585021972656 86.59339904785156 C 95.25491333007812 85.38682556152344 99.17112731933594 83.95332336425781 104.19629669189453 82.40637969970703" stroke-width="1.0892857313156128" fill="none" stroke="rgb(169, 21, 52)" stroke-opacity="0.71" stroke-linecap="round" stroke-linejoin="round"/>
    <path d="M 45.613555908203125 102.31189727783203 C 44.870635986328125 107.19401550292969 43.35539245605469 106.63508605957031 39.14710235595703 103.1244125366211" stroke-width="1.0892857313156128" fill="none" stroke="rgb(119, 159, 53)" stroke-opacity="0.6900001" stroke-linecap="round" stroke-linejoin="round"/>
    <path d="M 33.897491455078125 2.2787036895751953 C 38.49242401123047 -0.9115918278694153 43.57741165161133 1.9590651988983154 45.87713623046875 2.34753680229187" stroke-width="1.1787582635879517" fill="none" stroke="rgb(30, 176, 112)" stroke-opacity="0.71" stroke-linecap="round" stroke-linejoin="round"/>
    <path d="M 38.630332946777344 28.063404083251953 C 37.43716812133789 27.209409713745117 36.245216369628906 26.355436325073242 34.248809814453125 24.05863380432129 C 32.797000885009766 21.21727752685547 31.087785720825195 16.387287139892578 29.92135238647461 11.013154983520508 C 28.211320877075195 6.182804584503174 29.820539474487305 8.354397773742676 30.884090423583984 11.0704984664917" stroke-width="1.0892857313156128" fill="none" stroke="rgb(240, 91, 95)" stroke-opacity="0.70999986" stroke-linecap="round" stroke-linejoin="round"/>
    <path d="M 33.8974609375 2.278703451156616 C 35.78523635864258 2.01810359954834 36.58531188964844 0.6683362722396851 38.05034637451172 0.26082611083984375 C 39.516845703125 -0.14665354788303375 41.105308532714844 -0.1551729440689087 42.69379425048828 0.3808908760547638 C 44.28368377685547 -0.1722324788570404 47.687889099121094 -0.3379914164543152 50.54443359375 -1.0489635467529297" stroke-width="1.178757905960083" fill="none" stroke="rgb(135, 21, 60)" stroke-opacity="0.71" stroke-linecap="round" stroke-linejoin="round"/>
    <path d="M 38.55785369873047 52.552982330322266 C 33.100067138671875 51.051876068115234 31.176118850708008 49.280433654785156 25.401378631591797 43.63594055175781" stroke-width="1.1787548065185547" fill="none" stroke="rgb(2, 240, 75)" stroke-opacity="0.7099989" stroke-linecap="round" stroke-linejoin="round"/>
    <path d="M 11.418941497802734 95.705078125 C 12.200967788696289 94.68761444091797 13.528831481933594 94.2147445678711 14.310859680175781 93.19728088378906 C 15.09284496307373 92.17975616455078 19.439281463623047 87.48355102539062 24.87483787536621 83.87770080566406" stroke-width="1.0892857313156128" fill="none" stroke="rgb(159, 56, 215)" stroke-opacity="0.69" stroke-linecap="round" stroke-linejoin="round"/>
    <path d="M 62.34958267211914 86.15056610107422 C 62.780242919921875 83.22010040283203 62.666263580322266 79.74506378173828 63.64155578613281 76.81462860107422 C 64.07221984863281 73.88420104980469 62.6923828125 73.41695404052734 61.31256866455078 72.94844055175781" stroke-width="1.0892857313156128" fill="none" stroke="rgb(210, 62, 155)" stroke-opacity="0.69" stroke-linecap="round" stroke-linejoin="round"/>
    <path d="M 104.30416107177734 6.687067031860352 C 101.58966064453125 8.778861999511719 100.03903198242188 3.0826895236968994 103.28012084960938 8.129837989807129" stroke-width="1.1787583827972412" fill="none" stroke="rgb(218, 225, 7)" stroke-opacity="0.7099999" stroke-linecap="round" stroke-linejoin="round"/>
    <path d="M 44.58511734008789 113.948974609375 C 40.857574462890625 120.48495483398438 39.181278228759766 117.77008056640625 44.230140686035156 113.54315948486328" stroke-width="1.0892857313156128" fill="none" stroke="rgb(213, 165, 40)" stroke-opacity="0.69" stroke-linecap="round" stroke-linejoin="round"/>
    <path d="M 86.45626831054688 48.65011978149414 C 91.96947479248047 44.084739685058594 91.52538299560547 47.2406005859375 89.76004791259766 46.408565521240234" stroke-width="1.0892857313156128" fill="none" stroke="rgb(134, 132, 84)" stroke-opacity="0.69000006" stroke-linecap="round" stroke-linejoin="round"/>
    <path d="M 49.57372283935547 37.68146896362305 C 52.7661018371582 38.03862762451172 56.50288391113281 38.39487838745117 60.23969268798828 38.751121520996094 C 64.52114868164062 39.10735321044922 64.10881805419922 39.30474090576172 63.69767761230469 40.58964538574219" stroke-width="1.178756833076477" fill="none" stroke="rgb(146, 184, 120)" stroke-opacity="0.69" stroke-linecap="round" stroke-linejoin="round"/>
    <path d="M 72.71297454833984 70.85786437988281 C 73.2802734375 66.37266540527344 74.39098358154297 62.97766876220703 74.1689453125 60.778926849365234 C 73.9468994140625 59.12460708618164 72.39096069335938 59.75534439086914 71.92414855957031 60.931941986083984 C 70.3681640625 61.562644958496094 69.50802612304688 66.07252502441406 68.64793395996094 71.12696838378906" stroke-width="1.0892857313156128" fill="none" stroke="rgb(175, 218, 128)" stroke-opacity="0.69" stroke-linecap="round" stroke-linejoin="round"/>
    <path d="M 38.6629524230957 76.4405746459961 C 36.91083908081055 74.13478088378906 35.15891647338867 71.8302001953125 33.58877944946289 70.74632263183594 C 32.01907730102539 70.20707702636719 30.629863739013672 71.43441009521484 29.784069061279297 73.20631408691406 C 27.84998893737793 73.8892593383789 28.051733016967773 74.35888671875 28.797138214111328 74.82843017578125" stroke-width="1.0892857313156128" fill="none" stroke="rgb(46, 240, 35)" stroke-opacity="0.69" stroke-linecap="round" stroke-linejoin="round"/>
    <path d="M 83.31965637207031 103.03498840332031 C 83.63904571533203 101.08319854736328 84.48017120361328 100.12432861328125 84.79386901855469 98.69429779052734 C 85.1037826538086 97.24752044677734 84.84757995605469 99.96324157714844 84.04798889160156 102.6777572631836" stroke-width="1.0892857313156128" fill="none" stroke="rgb(28, 89, 88)" stroke-opacity="0.69000006" stroke-linecap="round" stroke-linejoin="round"/>
    <path d="M 88.03663635253906 106.05958557128906 C 86.66658782958984 107.48828887939453 85.29533386230469 108.91572570800781 85.27215576171875 110.07215118408203 C 85.24896240234375 110.6843032836914 86.57502746582031 111.5689697265625 87.89998626708984 112.45330047607422 C 88.68048095703125 113.88236999511719 81.39817810058594 112.68800354003906 74.66056060791016 110.9489974975586" stroke-width="1.0892857313156128" fill="none" stroke="rgb(145, 186, 183)" stroke-opacity="0.7099999" stroke-linecap="round" stroke-linejoin="round"/>
    <path d="M 58.22719955444336 122.76763916015625 C 59.11534881591797 120.07020568847656 60.00229263305664 117.37156677246094 60.24750900268555 117.1141586303711 C 59.94813537597656 116.31138610839844 60.0937614440918 119.0367202758789 59.696075439453125 121.21823120117188 C 59.2980842590332 123.39800262451172 57.96567916870117 123.02357482910156 57.32548904418945 123.30155181884766" stroke-width="1.0892857313156128" fill="none" stroke="rgb(161, 61, 36)" stroke-opacity="0.69" stroke-linecap="round" stroke-linejoin="round"/>
    <path d="M 73.2413330078125 107.19922637939453 C 73.89414978027344 104.76122283935547 74.5454330444336 102.86653137207031 76.14141845703125 103.6294937133789 C 78.28153991699219 103.30326080322266 80.819091796875 105.63225555419922 82.81336212158203 108.50582885742188 C 85.35234069824219 110.83476257324219 83.34794616699219 108.16166687011719 81.3445053100586 105.48749542236328" stroke-width="1.0892857313156128" fill="none" stroke="rgb(215, 99, 252)" stroke-opacity="0.71" stroke-linecap="round" stroke-linejoin="round"/>
    <path d="M 51.566734313964844 33.41575622558594 C 50.69074630737305 31.314863204956055 49.602516174316406 36.28015899658203 54.11650466918945 39.40818786621094" stroke-width="1.0892857313156128" fill="none" stroke="rgb(27, 207, 48)" stroke-opacity="0.69000006" stroke-linecap="round" stroke-linejoin="round"/>
    <path d="M 93.09844970703125 35.71453857421875 C 87.03742980957031 37.538414001464844 90.67521667480469 34.96747589111328 91.07201385498047 36.33138656616211" stroke-width="1.1787543296813965" fill="none" stroke="rgb(13, 109, 164)" stroke-opacity="0.6900001" stroke-linecap="round" stroke-linejoin="round"/>
    <path d="M 70.06558990478516 39.50260925292969 C 74.70523834228516 33.63026809692383 74.8138198852539 36.480194091796875 69.84036254882812 41.4865608215332" stroke-width="1.1787583827972412" fill="none" stroke="rgb(155, 16, 61)" stroke-opacity="0.7099999" stroke-linecap="round" stroke-linejoin="round"/>
    <path d="M 11.418960571289062 95.70524597167969 C 6.137979984283447 97.38770294189453 7.489799976348877 97.8759765625 5.223751544952393 102.6209945678711 C 1.481750249862671 105.74335479736328 -1.883826494216919 111.28878021240234 0.19211445748806 109.08001708984375 C 3.351353168487549 103.55181884765625 5.74539041519165 99.22091674804688 7.813233852386475 97.46399688720703" stroke-width="1.198214054107666" fill="none" stroke="rgb(194, 212, 96)" stroke-opacity="0.4957996" stroke-linecap="round" stroke-linejoin="round"/>
    <path d="M 54.08772659301758 71.56422424316406 C 58.98982238769531 66.08189392089844 57.88873291015625 64.78836059570312 58.126800537109375 60.169151306152344" stroke-width="1.0892857313156128" fill="none" stroke="rgb(201, 81, 107)" stroke-opacity="0.2920449" stroke-linecap="round" stroke-linejoin="round"/>
    <path d="M 83.86427307128906 102.49073028564453 C 79.98779296875 100.73193359375 81.96492004394531 102.62565612792969 87.79740142822266 98.36738586425781 C 91.90594482421875 99.25497436523438 95.22438049316406 104.81901550292969 89.33203125 109.0206298828125 C 86.40007019042969 104.88141632080078 85.21192169189453 107.79983520507812 90.8021011352539 104.02957153320312" stroke-width="1.1982139348983765" fill="none" stroke="rgb(106, 121, 107)" stroke-opacity="0.77669615" stroke-linecap="round" stroke-linejoin="round"/>
    <path d="M 33.89760971069336 2.2787132263183594 C 32.81878662109375 1.8831416368484497 31.12814712524414 7.306603908538818 28.032468795776367 10.307718276977539 C 22.90549659729004 11.952881813049316 19.341808319091797 14.718451499938965 20.9070987701416 13.471623420715332" stroke-width="1.0892857313156128" fill="none" stroke="rgb(242, 237, 122)" stroke-opacity="0.06949008" stroke-linecap="round" stroke-linejoin="round"/>
    <path d="M 73.25760650634766 70.85786437988281 C 74.28315734863281 65.36221313476562 79.51837921142578 63.545982360839844 82.64220428466797 68.15182495117188" stroke-width="1.1982141733169556" fill="none" stroke="rgb(246, 48, 203)" stroke-opacity="0.49294055" stroke-linecap="round" stroke-linejoin="round"/>
    <path d="M 22.79789924621582 37.45618438720703 C 20.377668380737305 32.948509216308594 16.35723876953125 37.47392272949219 18.842754364013672 41.15542984008789 C 15.689133644104004 36.82816696166992 13.45407485961914 31.420679092407227 15.294775009155273 28.24382972717285 C 12.396240234375 29.662416458129883 9.99355411529541 34.838016510009766 12.788434982299805 29.312013626098633" stroke-width="1.0892857313156128" fill="none" stroke="rgb(108, 124, 72)" stroke-opacity="0.8018468" stroke-linecap="round" stroke-linejoin="round"/>
    <path d="M 74.49415588378906 116.00029754638672 C 71.20153045654297 119.32443237304688 72.47161102294922 122.59134674072266 70.05485534667969 119.60021209716797 C 75.70193481445312 124.17208099365234 77.20355224609375 118.27599334716797 75.35755920410156 115.60810089111328" stroke-width="1.0892857313156128" fill="none" stroke="rgb(152, 15, 159)" stroke-opacity="0.6291336" stroke-linecap="round" stroke-linejoin="round"/>
    <path d="M 34.79343032836914 23.514074325561523 C 33.22922897338867 22.570398330688477 30.41998863220215 20.46143913269043 34.23933410644531 16.15066146850586 C 30.395708084106445 16.945363998413086 28.645965576171875 13.656044960021973 27.086135864257812 8.031207084655762" stroke-width="1.0892857313156128" fill="none" stroke="rgb(60, 119, 16)" stroke-opacity="0.8431212" stroke-linecap="round" stroke-linejoin="round"/>
    <path d="M 58.12677764892578 59.62456512451172 C 58.4172477722168 61.072166442871094 54.95115280151367 60.723602294921875 54.923927307128906 59.24433135986328 C 54.419681549072266 55.74678039550781 54.13859939575195 50.957977294921875 50.319602966308594 51.031742095947266" stroke-width="1.1982123851776123" fill="none" stroke="rgb(6, 23, 141)" stroke-opacity="0.2597427" stroke-linecap="round" stroke-linejoin="round"/>
    <path d="M 75.3575439453125 115.60810089111328 C 72.8429183959961 118.99592590332031 68.26502227783203 115.8071517944336 63.24903869628906 118.13176727294922 C 61.06950759887695 118.96330261230469 66.94637298583984 120.86355590820312 70.988525390625 123.6273193359375" stroke-width="1.1982139348983765" fill="none" stroke="rgb(226, 141, 237)" stroke-opacity="0.4529535" stroke-linecap="round" stroke-linejoin="round"/>
    <path d="M 58.67140197753906 59.62459182739258 C 59.248477935791016 64.76956939697266 57.40964889526367 68.39440155029297 54.09796142578125 75.01750946044922 C 50.36393737792969 71.00687408447266 53.50385665893555 65.56890106201172 58.891082763671875 64.73323822021484" stroke-width="1.0892857313156128" fill="none" stroke="rgb(36, 143, 98)" stroke-opacity="0.5232686" stroke-linecap="round" stroke-linejoin="round"/>
    <path d="M 74.81295776367188 115.6081771850586 C 72.694091796875 111.21119689941406 78.34571075439453 108.24978637695312 73.47058868408203 102.93023681640625 C 73.69288635253906 106.69506072998047 79.6261978149414 103.52167510986328 74.5858154296875 105.301513671875 C 77.13871765136719 102.42393493652344 78.0261001586914 104.03922271728516 80.94038391113281 100.88995361328125" stroke-width="1.0892857313156128" fill="none" stroke="rgb(33, 189, 104)" stroke-opacity="0.09956691" stroke-linecap="round" stroke-linejoin="round"/>
    <path d="M 91.3467025756836 104.02957153320312 C 88.1065444946289 99.4249267578125 87.96925354003906 99.12090301513672 83.51632690429688 97.83717346191406" stroke-width="1.1981945037841797" fill="none" stroke="rgb(206, 108, 147)" stroke-opacity="0.7657106" stroke-linecap="round" stroke-linejoin="round"/>
    <path d="M 90.80210876464844 104.02958679199219 C 93.5018310546875 107.89386749267578 91.03790283203125 109.940673828125 93.1497573852539 109.94513702392578 C 97.90097045898438 107.75484466552734 102.04597473144531 106.45271301269531 95.99310302734375 107.88797760009766 C 96.68548583984375 112.13246154785156 99.01962280273438 111.60244750976562 93.12483215332031 107.122802734375" stroke-width="1.0892857313156128" fill="none" stroke="rgb(160, 149, 82)" stroke-opacity="0.8221804" stroke-linecap="round" stroke-linejoin="round"/>
    <path d="M 91.34455108642578 104.02957916259766 C 87.80237579345703 108.09590148925781 90.20906829833984 103.22258758544922 85.93702697753906 106.80197143554688 C 91.73345947265625 107.42929077148438 95.3604736328125 113.18726348876953 99.6740493774414 118.052490234375 C 98.5198745727539 119.12870788574219 98.69137573242188 124.32400512695312 93.63703918457031 124.74740600585938" stroke-width="1.1982136964797974" fill="none" stroke="rgb(101, 220, 141)" stroke-opacity="0.083935216" stroke-linecap="round" stroke-linejoin="round"/>
    <path d="M 58.126773834228516 60.169185638427734 C 61.3718147277832 64.27861022949219 56.4416389465332 63.95643615722656 55.094383239746094 66.81993103027344" stroke-width="1.198214054107666" fill="none" stroke="rgb(193, 15, 87)" stroke-opacity="0.53738904" stroke-linecap="round" stroke-linejoin="round"/>
    <path d="M 60.11587905883789 115.70791625976562 C 58.67917251586914 118.1669921875 53.7328987121582 115.58618927001953 56.37335968017578 117.99095916748047 C 56.34965133666992 117.52159881591797 56.58818054199219 113.07176208496094 55.96959686279297 108.69850158691406" stroke-width="1.1982133388519287" fill="none" stroke="rgb(221, 218, 32)" stroke-opacity="0.0" stroke-linecap="round" stroke-linejoin="round"/>
    <path d="M 63.99057388305664 4.446928977966309 C 58.87965774536133 -1.4619836807250977 56.239200592041016 2.0776028633117676 59.678627014160156 -0.9643946290016174 C 54.93808364868164 4.923031806945801 57.66387939453125 3.0875205993652344 59.214210510253906 8.680953979492188" stroke-width="1.0892857313156128" fill="none" stroke="rgb(15, 45, 253)" stroke-opacity="0.7609952" stroke-linecap="round" stroke-linejoin="round"/>
    <path d="M 49.19392776489258 50.890960693359375 C 43.04246139526367 46.891727447509766 46.730960845947266 50.44447326660156 43.83510971069336 50.004947662353516 C 42.84743881225586 47.874080657958984 40.78693389892578 46.41023635864258 38.123905181884766 45.22645950317383" stroke-width="1.198214054107666" fill="none" stroke="rgb(39, 212, 47)" stroke-opacity="0.38644254" stroke-linecap="round" stroke-linejoin="round"/>
    <path d="M 47.36491012573242 80.77677154541016 C 48.01272964477539 78.7195053100586 50.15205764770508 79.59040069580078 49.031394958496094 80.06920623779297" stroke-width="1.1982123851776123" fill="none" stroke="rgb(24, 180, 159)" stroke-opacity="0.8337894" stroke-linecap="round" stroke-linejoin="round"/>
    <path d="M 8.605056762695312 92.80277252197266 C 3.9164786338806152 90.17156219482422 9.066573143005371 90.64447021484375 13.827585220336914 88.38569641113281 C 16.432771682739258 91.20980834960938 17.956100463867188 86.9769058227539 23.440715789794922 88.66224670410156" stroke-width="1.0892857313156128" fill="none" stroke="rgb(202, 73, 175)" stroke-opacity="0.94377166" stroke-linecap="round" stroke-linejoin="round"/>
    <path d="M 42.25483703613281 67.91358947753906 C 44.9244270324707 71.41331481933594 50.59584045410156 74.11204528808594 50.210533142089844 75.79449462890625 C 55.80616760253906 72.90719604492188 58.23334503173828 72.97119903564453 52.57768249511719 76.44608306884766 C 49.023128509521484 79.90959167480469 49.80329895019531 79.46851348876953 54.874237060546875 74.51471710205078" stroke-width="1.0892857313156128" fill="none" stroke="rgb(75, 22, 85)" stroke-opacity="0.13304125" stroke-linecap="round" stroke-linejoin="round"/>
    <path d="M 76.81424713134766 116.82030487060547 C 75.25739288330078 113.16151428222656 77.88612365722656 111.38314056396484 79.3967514038086 107.83733367919922" stroke-width="1.0892857313156128" fill="none" stroke="rgb(88, 33, 195)" stroke-opacity="0.2568516" stroke-linecap="round" stroke-linejoin="round"/>
    <path d="M 89.8591079711914 59.424522399902344 C 86.62715911865234 54.65230178833008 89.21219635009766 57.297508239746094 88.22982788085938 55.975830078125" stroke-width="1.0892857313156128" fill="none" stroke="rgb(30, 29, 20)" stroke-opacity="0.4768956" stroke-linecap="round" stroke-linejoin="round"/>
    <path d="M 25.425973892211914 25.3001708984375 C 26.907819747924805 30.567617416381836 21.893672943115234 29.078079223632812 19.303546905517578 32.91265106201172 C 18.386707305908203 31.718358993530273 23.08576202392578 35.64474105834961 25.67988395690918 37.199825286865234 C 28.34495735168457 35.60437774658203 25.296947479248047 41.60146713256836 21.981155395507812 46.110965728759766" stroke-width="1.1982126235961914" fill="none" stroke="rgb(7, 57, 75)" stroke-opacity="0.10877432" stroke-linecap="round" stroke-linejoin="round"/>
    <path d="M 87.07321166992188 48.5717887878418 C 92.15370178222656 44.42420959472656 91.95780944824219 42.745521545410156 89.8020248413086 39.399478912353516 C 88.5708236694336 37.4642448425293 91.27146911621094 34.18648147583008 95.28595733642578 39.3166618347168" stroke-width="1.0892857313156128" fill="none" stroke="rgb(161, 104, 110)" stroke-opacity="0.5868333" stroke-linecap="round" stroke-linejoin="round"/>
    <path d="M 27.111440658569336 55.416542053222656 C 22.84613037109375 60.310462951660156 24.89946746826172 65.80775451660156 25.136152267456055 67.78382110595703 C 30.48196792602539 70.6834716796875 28.635040283203125 68.44586181640625 25.90102195739746 71.70514678955078 C 28.39986801147461 71.89167785644531 30.92488670349121 73.09595489501953 27.40178680419922 73.20561981201172" stroke-width="1.1978839635849" fill="none" stroke="rgb(228, 197, 86)" stroke-opacity="0.009345423" stroke-linecap="round" stroke-linejoin="round"/>
    <path d="M 96.11564636230469 109.12044525146484 C 102.07218170166016 107.08586883544922 103.24348449707031 104.84930419921875 104.71424865722656 102.4200439453125 C 107.8857192993164 98.86859893798828 110.11244201660156 98.90192413330078 106.24481964111328 102.48242950439453 C 102.14432525634766 99.04048156738281 98.07768249511719 94.66062927246094 98.70620727539062 92.49208068847656" stroke-width="1.198213815689087" fill="none" stroke="rgb(242, 116, 216)" stroke-opacity="0.4905991" stroke-linecap="round" stroke-linejoin="round"/>
    <path d="M 37.28252410888672 29.927602767944336 C 41.88222885131836 26.763952255249023 43.07545852661133 27.023605346679688 41.475486755371094 25.972503662109375" stroke-width="1.0892857313156128" fill="none" stroke="rgb(30, 196, 133)" stroke-opacity="0.6119085" stroke-linecap="round" stroke-linejoin="round"/>
    <path d="M 92.17687225341797 33.06569290161133 C 96.40699768066406 37.014984130859375 90.64555358886719 35.07081604003906 88.34667205810547 33.222320556640625 C 83.72789764404297 33.068111419677734 83.28456115722656 31.86224365234375 84.80261993408203 38.211997985839844" stroke-width="1.1982141733169556" fill="none" stroke="rgb(2, 231, 84)" stroke-opacity="0.9550235" stroke-linecap="round" stroke-linejoin="round"/>
    <path d="M 30.927799224853516 98.89054107666016 C 31.308971405029297 103.57630157470703 34.67774200439453 107.36231994628906 35.928253173828125 109.47002410888672 C 38.749656677246094 109.17193603515625 32.458534240722656 113.52989196777344 29.28544807434082 111.7757568359375 C 27.91796875 114.84243774414062 26.91811180114746 115.03617858886719 25.76388931274414 112.840576171875" stroke-width="1.0892857313156128" fill="none" stroke="rgb(30, 158, 218)" stroke-opacity="0.89174956" stroke-linecap="round" stroke-linejoin="round"/>
    <path d="M 97.1009292602539 49.534507751464844 C 103.63288879394531 48.18783950805664 97.64098358154297 52.13813018798828 94.79265594482422 52.32060241699219 C 100.41511535644531 58.13919448852539 98.19400787353516 58.97473907470703 102.44023895263672 64.32810974121094 C 101.60484313964844 66.7066879272461 102.00955963134766 63.651432037353516 104.93196105957031 63.65216064453125" stroke-width="1.0892857313156128" fill="none" stroke="rgb(12, 55, 109)" stroke-opacity="0.49677348" stroke-linecap="round" stroke-linejoin="round"/>
  </g>
</svg>
