<?xml version="1.0" ?>
<svg xmlns="http://www.w3.org/2000/svg" version="1.1" width="956.0" height="956.0">
  <defs/>
  <g>
    <path d="M 14.635228157043457 67.26272583007812 C 14.586868286132812 68.22228240966797 22.659008026123047 71.73916625976562 62.748558044433594 72.67923736572266 C 102.6079330444336 72.01238250732422 105.81555938720703 70.12662506103516 110.11866760253906 69.893798828125" stroke-width="1.1948754787445068" fill="none" stroke="rgb(0, 2, 2)" stroke-opacity="1.0" stroke-linecap="round" stroke-linejoin="round"/>
    <path d="M 60.13404846191406 71.77886199951172 C 61.75617980957031 69.36595153808594 61.87460708618164 69.0751953125 61.79991912841797 68.58053588867188" stroke-width="1.0892857313156128" fill="none" stroke="rgb(7, 7, 0)" stroke-opacity="0.9770292" stroke-linecap="round" stroke-linejoin="round"/>
    <path d="M 59.991554260253906 72.01390075683594 C 60.930240631103516 70.94889831542969 61.23997497558594 69.76513671875 61.64125442504883 69.43939971923828 C 61.77119445800781 68.82511901855469 110.66205596923828 68.13638305664062 111.0532455444336 65.03193664550781" stroke-width="1.2505463361740112" fill="none" stroke="rgb(0, 7, 0)" stroke-opacity="1.0" stroke-linecap="round" stroke-linejoin="round"/>
    <path d="M 18.00045394897461 77.37559509277344 C 21.75358009338379 86.74755096435547 29.801345825195312 95.99120330810547 35.22248458862305 96.74835968017578 C 41.90459060668945 96.4800796508789 84.57256317138672 96.19746398925781 87.9111328125 95.46375274658203 C 92.31761932373047 95.3687515258789 105.33649444580078 89.21302795410156 104.97653198242188 79.8719711303711" stroke-width="1.0892857313156128" fill="none" stroke="rgb(3, 7, 0)" stroke-opacity="1.0" stroke-linecap="round" stroke-linejoin="round"/>
    <path d="M 27.54159927368164 87.07051086425781 C 29.46908187866211 89.70598602294922 32.3852653503418 92.791015625 35.40719223022461 92.60505676269531 C 38.9499626159668 90.95962524414062 42.17958450317383 89.28292083740234 43.796173095703125 88.74383544921875" stroke-width="1.121691346168518" fill="none" stroke="rgb(0, 6, 0)" stroke-opacity="0.99837947" stroke-linecap="round" stroke-linejoin="round"/>
    <path d="M 35.90017318725586 91.9505844116211 C 34.885406494140625 84.31248474121094 35.38344192504883 77.48467254638672 35.99961853027344 78.07366943359375 C 34.158721923828125 77.45919036865234 33.73396682739258 78.02075958251953 33.77353286743164 76.19313049316406 C 33.01384353637695 73.55487823486328 33.692047119140625 71.9398422241211 35.26665115356445 72.52815246582031 C 37.0307502746582 72.95710754394531 37.42689514160156 73.70793151855469 36.33201217651367 75.65081024169922 C 35.31304168701172 77.32069396972656 35.4239501953125 76.64974975585938 36.27994918823242 77.8135757446289" stroke-width="1.306167483329773" fill="none" stroke="rgb(0, 0, 0)" stroke-opacity="1.0" stroke-linecap="round" stroke-linejoin="round"/>
    <path d="M 32.82369613647461 76.17518615722656 C 34.25135040283203 77.00149536132812 35.058658599853516 77.70671081542969 37.91080093383789 77.7773666381836" stroke-width="1.1653130054473877" fill="none" stroke="rgb(0, 0, 3)" stroke-opacity="1.0" stroke-linecap="round" stroke-linejoin="round"/>
    <path d="M 14.571478843688965 68.16323852539062 C 15.947205543518066 74.10718536376953 15.139995574951172 77.31973266601562 15.735746383666992 77.993408203125 C 18.605636596679688 77.92485809326172 40.83139419555664 80.3904037475586 63.27311325073242 80.26519775390625 C 85.30293273925781 81.08800506591797 106.36641693115234 80.04559326171875 107.38851928710938 79.12345123291016 C 107.34624481201172 76.57872772216797 108.5472412109375 69.75308990478516 109.81460571289062 64.69927215576172" stroke-width="1.2924078702926636" fill="none" stroke="rgb(0, 0, 2)" stroke-opacity="1.0" stroke-linecap="round" stroke-linejoin="round"/>
    <path d="M 47.001747131347656 36.224483489990234 C 46.7196044921875 35.80093765258789 45.680423736572266 36.00806427001953 46.19300079345703 35.965049743652344 C 45.560054779052734 36.56062698364258 44.7620849609375 36.3766975402832 44.402957916259766 36.19968032836914 C 43.95663070678711 34.94166946411133 42.80018997192383 34.07040786743164 41.822975158691406 33.665496826171875 C 41.14539337158203 32.165626525878906 38.47578811645508 29.187410354614258 38.36860656738281 28.170644760131836 C 38.68698501586914 27.315608978271484 39.330963134765625 26.161434173583984 38.750240325927734 23.75096321105957 C 38.1174201965332 22.489810943603516 37.85567092895508 21.423847198486328 38.57612609863281 21.847097396850586 C 40.61960220336914 20.91509246826172 43.29132080078125 19.643016815185547 43.27298355102539 18.46807289123535 C 44.57504653930664 16.9969425201416 46.029380798339844 16.66868782043457 47.121158599853516 15.535541534423828 C 51.542747497558594 12.677536010742188 56.704952239990234 10.85377311706543 62.23210144042969 9.835916519165039 C 63.77598571777344 8.555407524108887 66.32192993164062 8.98924446105957 69.3984603881836 9.452136039733887 C 72.34661865234375 8.185811996459961 75.98507690429688 7.437497138977051 78.69266510009766 8.512849807739258 C 79.85807800292969 11.070500373840332 82.02275085449219 13.800368309020996 83.24967956542969 16.288360595703125 C 84.88815307617188 18.714147567749023 85.3968734741211 24.275053024291992 84.67069244384766 27.28096580505371 C 82.15406036376953 27.039928436279297 80.9873046875 29.716270446777344 79.104736328125 29.95743751525879 C 74.86103820800781 33.8510856628418 71.48016357421875 35.765724182128906 67.43758392333984 39.622642517089844 C 64.76325988769531 41.207645416259766 61.80903244018555 43.079139709472656 59.24705123901367 44.542335510253906 C 58.499725341796875 44.82524871826172 57.554744720458984 44.7618293762207 55.85262680053711 43.579647064208984 C 54.519508361816406 43.81689453125 53.285152435302734 44.27817916870117 51.93579864501953 44.48019027709961 C 49.23107147216797 45.105716705322266 44.95405960083008 46.791015625 42.20542526245117 46.143043518066406 C 41.68120574951172 45.67448806762695 40.876220703125 44.43666458129883 41.93798828125 43.55435562133789 C 41.83576583862305 42.11727523803711 42.62386703491211 41.71662139892578 43.58124542236328 40.67579650878906" stroke-width="1.3013826608657837" fill="none" stroke="rgb(21, 30, 16)" stroke-opacity="1.0" stroke-linecap="round" stroke-linejoin="round"/>
    <path d="M 106.72068786621094 77.946044921875 C 109.5457763671875 78.0682144165039 114.61135864257812 74.94606018066406 109.10989379882812 79.2686767578125 C 110.46331024169922 74.5103988647461 112.6065902709961 68.75105285644531 109.0285873413086 65.93638610839844" stroke-width="1.203147053718567" fill="none" stroke="rgb(36, 244, 23)" stroke-opacity="0.18381605" stroke-linecap="round" stroke-linejoin="round"/>
    <path d="M 35.199607849121094 76.60227966308594 C 34.140869140625 75.00875091552734 39.27463912963867 75.00418090820312 45.40037536621094 75.052490234375 C 51.248714447021484 81.95768737792969 52.25711441040039 83.36874389648438 58.64445114135742 80.88267517089844 C 52.5479621887207 76.79170989990234 45.81931686401367 80.25235748291016 43.871849060058594 76.2022476196289" stroke-width="1.096581220626831" fill="none" stroke="rgb(218, 77, 24)" stroke-opacity="0.76443005" stroke-linecap="round" stroke-linejoin="round"/>
    <path d="M 77.3135986328125 10.036199569702148 C 80.82035064697266 9.243515014648438 79.55328369140625 15.15858268737793 81.25798034667969 11.897391319274902" stroke-width="1.3894122838974" fill="none" stroke="rgb(164, 112, 89)" stroke-opacity="0.7318757" stroke-linecap="round" stroke-linejoin="round"/>
    <path d="M 35.98858642578125 75.87139129638672 C 41.942115783691406 77.46131134033203 47.38298797607422 75.19561004638672 51.40787124633789 73.22856140136719 C 53.40674591064453 72.87338256835938 54.90672302246094 71.72685241699219 60.580665588378906 77.10618591308594 C 55.62322235107422 82.53370666503906 53.523040771484375 88.35619354248047 55.05607223510742 89.2975845336914" stroke-width="1.0892857313156128" fill="none" stroke="rgb(61, 98, 201)" stroke-opacity="0.4643744" stroke-linecap="round" stroke-linejoin="round"/>
    <path d="M 83.58567810058594 15.409872055053711 C 87.2435531616211 14.47997760772705 82.0899887084961 9.254140853881836 87.1733169555664 12.425087928771973" stroke-width="1.3146334886550903" fill="none" stroke="rgb(237, 80, 227)" stroke-opacity="0.50019485" stroke-linecap="round" stroke-linejoin="round"/>
    <path d="M 60.579097747802734 71.30506134033203 C 62.595848083496094 73.33634948730469 68.12899017333984 69.43006134033203 71.84933471679688 72.29886627197266 C 67.81291198730469 75.5312271118164 65.14754486083984 72.07567596435547 60.65150833129883 75.09610748291016" stroke-width="1.4124739170074463" fill="none" stroke="rgb(13, 199, 241)" stroke-opacity="0.51532" stroke-linecap="round" stroke-linejoin="round"/>
    <path d="M 60.149261474609375 71.66677856445312 C 65.44631958007812 68.0196533203125 65.1246566772461 65.62974548339844 60.805885314941406 65.45288848876953 C 55.714778900146484 64.49090576171875 57.794097900390625 64.37248992919922 56.576499938964844 70.45877838134766 C 61.19511413574219 76.5992660522461 62.754127502441406 78.52326965332031 69.4832992553711 76.70572662353516" stroke-width="1.4106440544128418" fill="none" stroke="rgb(239, 255, 216)" stroke-opacity="0.4733803" stroke-linecap="round" stroke-linejoin="round"/>
    <path d="M 45.66579055786133 35.92141342163086 C 48.590370178222656 39.44050216674805 47.8601188659668 35.00827407836914 42.84836959838867 38.0867805480957 C 38.520751953125 34.42011260986328 33.473731994628906 36.25327682495117 31.748201370239258 37.255367279052734" stroke-width="1.0892857313156128" fill="none" stroke="rgb(7, 31, 228)" stroke-opacity="0.45895478" stroke-linecap="round" stroke-linejoin="round"/>
    <path d="M 32.00909423828125 37.094512939453125 C 31.269895553588867 37.085731506347656 25.60506820678711 34.60349655151367 25.923227310180664 40.24452590942383 C 29.630653381347656 45.5853385925293 26.071598052978516 49.148406982421875 28.20262908935547 49.98601531982422 C 33.305782318115234 50.60905838012695 30.619651794433594 56.54020309448242 30.73769187927246 52.50578308105469" stroke-width="1.4135346412658691" fill="none" stroke="rgb(221, 0, 187)" stroke-opacity="0.945535" stroke-linecap="round" stroke-linejoin="round"/>
    <path d="M 45.166324615478516 76.42904663085938 C 47.83054733276367 71.9482192993164 41.56084442138672 66.16438293457031 37.42584991455078 65.05925750732422" stroke-width="1.2391984462738037" fill="none" stroke="rgb(159, 43, 216)" stroke-opacity="0.5724762" stroke-linecap="round" stroke-linejoin="round"/>
    <path d="M 108.85594177246094 66.26734161376953 C 104.31623077392578 65.58687591552734 101.05696868896484 64.1736068725586 101.84024810791016 59.53087615966797 C 100.49429321289062 64.63764190673828 99.93374633789062 59.67897033691406 100.92469024658203 57.849796295166016" stroke-width="1.0892857313156128" fill="none" stroke="rgb(131, 16, 74)" stroke-opacity="0.6644182" stroke-linecap="round" stroke-linejoin="round"/>
    <path d="M 69.45176696777344 76.84297943115234 C 69.97853088378906 70.07115173339844 62.76966857910156 72.58827209472656 62.60252380371094 75.6682357788086 C 67.50899505615234 71.87451171875 62.252811431884766 66.3704833984375 58.625221252441406 63.12272262573242" stroke-width="1.2425763607025146" fill="none" stroke="rgb(41, 251, 178)" stroke-opacity="0.97159934" stroke-linecap="round" stroke-linejoin="round"/>
    <path d="M 55.139888763427734 89.30379486083984 C 57.15516662597656 83.43209838867188 55.89847946166992 82.52146911621094 55.74553680419922 86.38505554199219 C 55.37570571899414 83.42953491210938 59.42333221435547 87.22721099853516 54.07583999633789 84.88003540039062 C 48.77583694458008 86.6930923461914 49.46628189086914 84.11720275878906 45.64021682739258 82.78309631347656" stroke-width="1.1031907796859741" fill="none" stroke="rgb(180, 86, 36)" stroke-opacity="0.24810182" stroke-linecap="round" stroke-linejoin="round"/>
    <path d="M 43.74477767944336 76.27793884277344 C 39.57670974731445 81.39134216308594 39.71781539916992 76.4920883178711 35.90589141845703 72.68746185302734 C 33.80036544799805 76.72916412353516 29.35811996459961 81.20808410644531 24.079099655151367 86.77241516113281" stroke-width="1.0892857313156128" fill="none" stroke="rgb(125, 191, 108)" stroke-opacity="0.30366522" stroke-linecap="round" stroke-linejoin="round"/>
    <path d="M 33.0909538269043 37.48249816894531 C 27.05906105041504 42.26443862915039 28.243682861328125 35.780086517333984 22.705705642700195 36.42051696777344 C 23.1550350189209 32.42346954345703 19.236434936523438 34.06771469116211 12.550347328186035 33.45587921142578" stroke-width="1.0892857313156128" fill="none" stroke="rgb(157, 70, 167)" stroke-opacity="0.845358" stroke-linecap="round" stroke-linejoin="round"/>
    <path d="M 107.80601501464844 67.26424407958984 C 113.18421936035156 71.31600189208984 115.91842651367188 70.94991302490234 116.04371643066406 73.93559265136719" stroke-width="1.0892857313156128" fill="none" stroke="rgb(11, 74, 39)" stroke-opacity="0.82899976" stroke-linecap="round" stroke-linejoin="round"/>
    <path d="M 95.30390930175781 21.863615036010742 C 95.9339599609375 23.17512321472168 101.76626586914062 28.091796875 105.70980834960938 26.80832862854004" stroke-width="1.0892857313156128" fill="none" stroke="rgb(233, 187, 228)" stroke-opacity="0.82698053" stroke-linecap="round" stroke-linejoin="round"/>
    <path d="M 89.7691650390625 97.16310119628906 C 89.81880187988281 98.01679992675781 92.022705078125 97.11363220214844 96.16975402832031 95.41661071777344 C 92.37458038330078 101.61287689208984 97.79960632324219 99.85579681396484 92.22637176513672 93.49095153808594 C 86.72008514404297 90.8963851928711 82.34346771240234 96.0870361328125 80.17680358886719 100.8354263305664" stroke-width="1.0892857313156128" fill="none" stroke="rgb(173, 167, 240)" stroke-opacity="0.9863641" stroke-linecap="round" stroke-linejoin="round"/>
    <path d="M 86.35050964355469 14.375192642211914 C 84.36766815185547 12.741728782653809 88.64886474609375 12.936491012573242 87.76009368896484 9.886234283447266 C 89.8606948852539 8.676047325134277 92.67324829101562 4.109314441680908 94.03248596191406 4.0567193031311035" stroke-width="1.0892857313156128" fill="none" stroke="rgb(34, 205, 174)" stroke-opacity="0.92808104" stroke-linecap="round" stroke-linejoin="round"/>
    <path d="M 46.916847229003906 10.29853630065918 C 48.95253372192383 13.31023120880127 46.76264953613281 19.117090225219727 44.10239791870117 17.146499633789062 C 50.30913162231445 14.495138168334961 54.05725860595703 9.9952974319458 51.230499267578125 11.526609420776367" stroke-width="1.0892857313156128" fill="none" stroke="rgb(143, 25, 184)" stroke-opacity="0.7319553" stroke-linecap="round" stroke-linejoin="round"/>
    <path d="M 15.226482391357422 60.87961959838867 C 11.709554672241211 58.17626190185547 17.64103889465332 56.797725677490234 22.10492706298828 52.11069869995117 C 26.533945083618164 48.15095901489258 29.943103790283203 53.673728942871094 24.686973571777344 58.43253707885742" stroke-width="1.0892857313156128" fill="none" stroke="rgb(105, 149, 10)" stroke-opacity="0.20031747" stroke-linecap="round" stroke-linejoin="round"/>
    <path d="M 63.21852111816406 59.75645446777344 C 61.46615219116211 57.742130279541016 65.17013549804688 62.3934211730957 67.15827178955078 64.95626831054688 C 71.6814193725586 61.580570220947266 73.18338012695312 63.49501419067383 71.99256134033203 63.43464660644531" stroke-width="1.0892857313156128" fill="none" stroke="rgb(75, 149, 209)" stroke-opacity="0.86152315" stroke-linecap="round" stroke-linejoin="round"/>
    <path d="M 48.26490783691406 110.87012481689453 C 47.37398147583008 111.29498291015625 52.226505279541016 109.57846069335938 55.28474426269531 110.68609619140625 C 52.916343688964844 106.40093231201172 50.941490173339844 101.05683135986328 55.22186279296875 105.2884750366211 C 53.701045989990234 102.55134582519531 50.7373046875 96.5623550415039 44.527400970458984 99.28105163574219" stroke-width="1.0892857313156128" fill="none" stroke="rgb(0, 255, 80)" stroke-opacity="0.6537574" stroke-linecap="round" stroke-linejoin="round"/>
    <path d="M 20.04955291748047 76.20048522949219 C 19.66999053955078 73.80986022949219 20.565933227539062 77.06886291503906 14.592455863952637 78.75334167480469" stroke-width="1.0892857313156128" fill="none" stroke="rgb(30, 222, 169)" stroke-opacity="0.6416397" stroke-linecap="round" stroke-linejoin="round"/>
    <path d="M 3.233027696609497 14.296354293823242 C 7.198185443878174 11.224011421203613 6.9967780113220215 17.02753448486328 7.732501983642578 9.74300479888916 C 2.6654043197631836 15.760729789733887 -0.013193322345614433 17.458375930786133 4.548430919647217 15.58513069152832 C 0.24689610302448273 20.519672393798828 2.4430766105651855 21.523664474487305 -1.654321551322937 26.949880599975586" stroke-width="1.3783994913101196" fill="none" stroke="rgb(155, 108, 120)" stroke-opacity="0.020489039" stroke-linecap="round" stroke-linejoin="round"/>
    <path d="M 113.3734359741211 63.753353118896484 C 112.99152374267578 59.117340087890625 116.28325653076172 63.756099700927734 115.79227447509766 68.10840606689453" stroke-width="1.2894214391708374" fill="none" stroke="rgb(148, 161, 248)" stroke-opacity="0.14193468" stroke-linecap="round" stroke-linejoin="round"/>
    <path d="M 111.19855499267578 28.060665130615234 C 107.87694549560547 33.05815124511719 113.14728546142578 28.980972290039062 116.40816497802734 35.93030548095703 C 117.02389526367188 33.93850326538086 119.01110076904297 30.697669982910156 122.65713500976562 29.291349411010742 C 128.7788543701172 32.175106048583984 128.7413787841797 30.66240882873535 132.28201293945312 28.63556480407715" stroke-width="1.0892857313156128" fill="none" stroke="rgb(235, 120, 51)" stroke-opacity="0.024286008" stroke-linecap="round" stroke-linejoin="round"/>
    <path d="M 14.561415672302246 7.321633338928223 C 13.494433403015137 12.021544456481934 14.813347816467285 17.7580623626709 10.932150840759277 17.50843048095703" stroke-width="1.1030817031860352" fill="none" stroke="rgb(219, 111, 73)" stroke-opacity="0.96099526" stroke-linecap="round" stroke-linejoin="round"/>
    <path d="M 116.0331802368164 111.87788391113281 C 119.75106811523438 117.488525390625 122.3796157836914 116.10273742675781 128.4020538330078 113.4963150024414 C 133.26553344726562 112.90497589111328 138.02386474609375 113.10660552978516 140.2503204345703 115.41128540039062 C 146.24681091308594 118.65035247802734 147.7001190185547 114.97555541992188 142.28526306152344 118.5969009399414" stroke-width="1.36361563205719" fill="none" stroke="rgb(71, 71, 174)" stroke-opacity="0.087414384" stroke-linecap="round" stroke-linejoin="round"/>
    <path d="M 0.7043704986572266 63.49806594848633 C 5.291938304901123 64.5467300415039 4.196530818939209 70.39617919921875 3.945474624633789 72.75453186035156" stroke-width="1.1518304347991943" fill="none" stroke="rgb(97, 72, 180)" stroke-opacity="0.16952763" stroke-linecap="round" stroke-linejoin="round"/>
    <path d="M 15.93057918548584 50.06887435913086 C 17.093015670776367 44.144859313964844 17.831850051879883 41.99047088623047 23.425437927246094 40.88291549682617" stroke-width="1.310104250907898" fill="none" stroke="rgb(41, 90, 225)" stroke-opacity="0.16049564" stroke-linecap="round" stroke-linejoin="round"/>
    <path d="M 120.35115051269531 12.162033081054688 C 117.92461395263672 12.329459190368652 120.67230224609375 15.153992652893066 123.42181396484375 15.470088005065918 C 128.85107421875 20.769506454467773 124.98890686035156 16.984024047851562 127.54093170166016 22.065195083618164" stroke-width="1.0892857313156128" fill="none" stroke="rgb(87, 171, 88)" stroke-opacity="0.63603944" stroke-linecap="round" stroke-linejoin="round"/>
  </g>
</svg>
