<?xml version="1.0" ?>
<svg xmlns="http://www.w3.org/2000/svg" version="1.1" width="956.0" height="956.0">
  <defs/>
  <g>
    <path d="M 48.009178161621094 15.807283401489258 C 51.3328971862793 15.80737590789795 55.3792724609375 15.904150009155273 59.14582824707031 16.351917266845703 C 61.607818603515625 16.148883819580078 63.955101013183594 18.299739837646484 65.27146911621094 20.273704528808594 C 66.13888549804688 21.574241638183594 66.93312072753906 22.507526397705078 67.56871795654297 23.97399139404297 C 69.57076263427734 29.13866424560547 69.35482025146484 37.73682403564453 68.8101806640625 42.86088180541992 C 69.35482025146484 46.025726318359375 69.35482025146484 48.91834259033203 68.8101806640625 52.082733154296875 C 68.8101806640625 53.572540283203125 69.04930114746094 55.693241119384766 68.97174072265625 58.208900451660156 C 68.23486328125 60.541534423828125 64.62071228027344 61.67562484741211 62.556461334228516 62.51376724243164 C 58.70615768432617 64.07781219482422 54.39476013183594 64.84446716308594 50.84976577758789 64.29984283447266 C 48.175296783447266 64.29984283447266 45.225162506103516 64.61582946777344 43.03158187866211 63.313377380371094 C 40.23337173461914 60.49882125854492 39.74785614013672 55.69157409667969 39.747859954833984 51.666770935058594 C 39.20323181152344 49.863590240478516 39.20688247680664 48.33736801147461 41.117401123046875 47.4553108215332 C 41.993412017822266 47.0516242980957 43.12036895751953 47.61677551269531 44.05277633666992 47.61449432373047 C 46.650123596191406 47.616844177246094 47.959354400634766 49.268699645996094 49.19185256958008 51.57308578491211 C 52.28334426879883 56.80908203125 52.344383239746094 64.26241302490234 52.7305908203125 71.2261962890625 C 52.809879302978516 72.51824951171875 53.55164337158203 77.91304779052734 53.65826416015625 79.13800048828125 C 53.39963912963867 79.8638687133789 52.0697021484375 80.42996215820312 51.36094284057617 80.03099060058594 C 50.861778259277344 79.2060775756836 50.5102653503418 78.72073364257812 50.084922790527344 78.88301849365234" stroke-width="1.0892857313156128" fill="none" stroke="rgb(26, 26, 21)" stroke-opacity="0.99" stroke-linecap="round" stroke-linejoin="round"/>
    <path d="M 59.14585494995117 15.807289123535156 C 59.45161819458008 13.246742248535156 54.983726501464844 11.24864387512207 50.22639083862305 5.307083606719971" stroke-width="1.198214054107666" fill="none" stroke="rgb(234, 79, 226)" stroke-opacity="0.45158175" stroke-linecap="round" stroke-linejoin="round"/>
    <path d="M 50.816402435302734 79.48640441894531 C 50.927242279052734 83.00443267822266 46.53071594238281 81.85202026367188 50.646846771240234 79.26673889160156 C 48.77822494506836 80.2358169555664 49.723331451416016 79.4488525390625 45.90925979614258 82.70976257324219 C 49.967201232910156 83.44542694091797 44.322933197021484 82.04585266113281 47.232269287109375 78.30712890625" stroke-width="1.0892857313156128" fill="none" stroke="rgb(167, 7, 120)" stroke-opacity="0.8840217" stroke-linecap="round" stroke-linejoin="round"/>
    <path d="M 68.81022644042969 51.53865051269531 C 66.13800811767578 55.712745666503906 68.4122314453125 62.35044860839844 67.21707153320312 60.1861686706543 C 60.725318908691406 59.233482360839844 63.16500473022461 59.90620422363281 65.57901763916016 55.68990707397461" stroke-width="1.0892857313156128" fill="none" stroke="rgb(249, 17, 11)" stroke-opacity="0.22953387" stroke-linecap="round" stroke-linejoin="round"/>
    <path d="M 41.11742401123047 47.99992752075195 C 36.941978454589844 43.010398864746094 38.8912467956543 47.60151672363281 41.06930160522461 45.599342346191406" stroke-width="1.1982126235961914" fill="none" stroke="rgb(44, 18, 122)" stroke-opacity="0.2433988" stroke-linecap="round" stroke-linejoin="round"/>
    <path d="M 53.113670349121094 79.13795471191406 C 58.77925109863281 78.72048950195312 57.56278991699219 75.34954833984375 61.30696105957031 81.43801879882812" stroke-width="1.1982139348983765" fill="none" stroke="rgb(176, 35, 170)" stroke-opacity="0.33828613" stroke-linecap="round" stroke-linejoin="round"/>
    <path d="M 48.64732360839844 51.57321548461914 C 51.477210998535156 45.2504997253418 50.274139404296875 40.13848114013672 54.7226448059082 37.99711608886719" stroke-width="1.1982139348983765" fill="none" stroke="rgb(56, 20, 122)" stroke-opacity="0.6461639" stroke-linecap="round" stroke-linejoin="round"/>
    <path d="M 43.576202392578125 63.31337356567383 C 46.8888053894043 62.36944580078125 41.541908264160156 64.31932830810547 37.3098258972168 65.41719818115234 C 41.90819549560547 67.48990631103516 37.10651779174805 61.397972106933594 39.114898681640625 63.326271057128906" stroke-width="1.1982131004333496" fill="none" stroke="rgb(89, 247, 237)" stroke-opacity="0.92732644" stroke-linecap="round" stroke-linejoin="round"/>
    <path d="M 50.816402435302734 79.48641204833984 C 51.631736755371094 74.77259826660156 55.8334846496582 68.87025451660156 59.49502944946289 71.73243713378906 C 56.02064514160156 70.59335327148438 57.62961959838867 73.41698455810547 61.04794692993164 72.08638763427734 C 62.787330627441406 67.11581420898438 65.79578399658203 72.5198974609375 64.51676177978516 68.39644622802734" stroke-width="1.1982128620147705" fill="none" stroke="rgb(46, 163, 160)" stroke-opacity="0.8375428" stroke-linecap="round" stroke-linejoin="round"/>
    <path d="M 55.26727294921875 37.99711608886719 C 57.692649841308594 39.154273986816406 55.18872833251953 33.57584762573242 50.34621810913086 31.895023345947266 C 46.07801818847656 32.27633285522461 41.86779022216797 37.8210563659668 40.383975982666016 34.37335205078125 C 39.44453430175781 31.78175926208496 37.168495178222656 30.792587280273438 33.14064407348633 32.6784782409668" stroke-width="1.1982139348983765" fill="none" stroke="rgb(187, 36, 90)" stroke-opacity="0.847979" stroke-linecap="round" stroke-linejoin="round"/>
    <path d="M 65.57901763916016 55.68990707397461 C 72.09114837646484 57.570865631103516 69.91480255126953 58.54094314575195 64.51428985595703 58.91954040527344 C 64.53195190429688 59.42832565307617 64.50894927978516 59.56044387817383 67.74384307861328 54.26213455200195 C 72.56829833984375 58.61608123779297 78.64970397949219 57.57603454589844 81.62554931640625 53.73676300048828" stroke-width="1.0892857313156128" fill="none" stroke="rgb(189, 218, 29)" stroke-opacity="0.49904144" stroke-linecap="round" stroke-linejoin="round"/>
    <path d="M 61.30696105957031 81.98262786865234 C 62.50092315673828 79.79552459716797 65.122802734375 77.49382781982422 67.27832794189453 78.76106262207031" stroke-width="1.1982052326202393" fill="none" stroke="rgb(157, 229, 60)" stroke-opacity="0.050819106" stroke-linecap="round" stroke-linejoin="round"/>
    <path d="M 40.52510452270508 45.599342346191406 C 45.924964904785156 51.41210174560547 44.68880844116211 57.06826400756836 48.310951232910156 51.13016891479492" stroke-width="1.1982141733169556" fill="none" stroke="rgb(250, 69, 8)" stroke-opacity="0.72589695" stroke-linecap="round" stroke-linejoin="round"/>
    <path d="M 64.51673889160156 68.94107055664062 C 60.09451675415039 69.45953369140625 59.52314376831055 67.21078491210938 63.290645599365234 70.31021118164062 C 67.50672149658203 69.63877868652344 72.19755554199219 74.2479248046875 73.8194808959961 76.56334686279297 C 79.23027038574219 79.12053680419922 78.81977081298828 81.83190155029297 77.18238830566406 85.56134033203125" stroke-width="1.0892857313156128" fill="none" stroke="rgb(143, 144, 231)" stroke-opacity="0.8455117" stroke-linecap="round" stroke-linejoin="round"/>
    <path d="M 47.23226547241211 78.3069076538086 C 45.77170181274414 81.72010803222656 48.41868591308594 83.34884643554688 54.47018814086914 82.19995880126953 C 55.50212478637695 86.22798919677734 53.02086639404297 89.02670288085938 58.14783477783203 91.93318939208984" stroke-width="1.1982139348983765" fill="none" stroke="rgb(155, 143, 98)" stroke-opacity="1.0" stroke-linecap="round" stroke-linejoin="round"/>
    <path d="M 64.51668548583984 68.39645385742188 C 62.53663635253906 73.51812744140625 64.45618438720703 73.54574584960938 69.01948547363281 78.08003997802734 C 69.57928466796875 76.4533462524414 74.74430084228516 75.80633544921875 74.05351257324219 81.73257446289062 C 73.17727661132812 76.5457763671875 72.75946807861328 72.21699523925781 76.21157836914062 70.72838592529297" stroke-width="1.0892857313156128" fill="none" stroke="rgb(61, 109, 169)" stroke-opacity="0.10878509" stroke-linecap="round" stroke-linejoin="round"/>
    <path d="M 64.51673889160156 68.3964614868164 C 65.84012603759766 63.086524963378906 61.103363037109375 59.20956039428711 61.66536331176758 57.106422424316406" stroke-width="1.1982100009918213" fill="none" stroke="rgb(142, 40, 232)" stroke-opacity="0.055864643" stroke-linecap="round" stroke-linejoin="round"/>
    <path d="M 31.831127166748047 12.946146011352539 C 26.86285972595215 19.465787887573242 21.11285400390625 22.02690315246582 21.087074279785156 27.254194259643555 C 25.006568908691406 32.91997528076172 24.3181209564209 32.77655792236328 25.010543823242188 28.546401977539062 C 30.492509841918945 30.398717880249023 26.864879608154297 33.948974609375 23.88111114501953 29.5519962310791" stroke-width="1.198213815689087" fill="none" stroke="rgb(118, 227, 156)" stroke-opacity="0.8171931" stroke-linecap="round" stroke-linejoin="round"/>
    <path d="M 105.74459075927734 93.82219696044922 C 107.13774871826172 94.46329498291016 108.3807144165039 91.204833984375 106.18851470947266 86.736083984375 C 108.28486633300781 85.48310852050781 103.19349670410156 82.36371612548828 108.6979751586914 85.78150177001953" stroke-width="1.1982141733169556" fill="none" stroke="rgb(239, 133, 156)" stroke-opacity="0.9801704" stroke-linecap="round" stroke-linejoin="round"/>
    <path d="M 47.47937774658203 23.835474014282227 C 53.15204620361328 22.810670852661133 51.19843292236328 22.84116554260254 47.4926872253418 20.315122604370117 C 49.298099517822266 19.114524841308594 53.39282989501953 17.20591163635254 50.66004943847656 12.564513206481934" stroke-width="1.0892857313156128" fill="none" stroke="rgb(42, 105, 111)" stroke-opacity="0.21297586" stroke-linecap="round" stroke-linejoin="round"/>
    <path d="M 37.60776901245117 118.58154296875 C 43.52355194091797 118.23040771484375 39.61269760131836 114.01790618896484 44.035396575927734 118.83905029296875 C 48.65907669067383 119.3337173461914 44.79597854614258 123.93274688720703 50.42869186401367 128.07034301757812" stroke-width="1.1982123851776123" fill="none" stroke="rgb(114, 7, 230)" stroke-opacity="0.41904068" stroke-linecap="round" stroke-linejoin="round"/>
    <path d="M 106.38433837890625 110.48204040527344 C 104.71592712402344 104.65625762939453 110.678466796875 108.91368103027344 107.61488342285156 110.07442474365234 C 107.14218139648438 109.60179901123047 106.3701171875 103.75157165527344 111.18936157226562 102.48942565917969 C 109.06987762451172 104.52430725097656 108.1648941040039 101.0830078125 107.0363540649414 104.72299194335938" stroke-width="1.198212742805481" fill="none" stroke="rgb(20, 24, 234)" stroke-opacity="0.2882555" stroke-linecap="round" stroke-linejoin="round"/>
    <path d="M 3.9062554836273193 32.24604415893555 C 4.207440376281738 30.764755249023438 9.622241973876953 33.89054870605469 13.804313659667969 33.50728988647461 C 12.706318855285645 30.087081909179688 17.69041633605957 24.112714767456055 15.303166389465332 28.129676818847656" stroke-width="1.0892857313156128" fill="none" stroke="rgb(188, 151, 97)" stroke-opacity="0.8630813" stroke-linecap="round" stroke-linejoin="round"/>
    <path d="M 66.09078979492188 40.725765228271484 C 69.341552734375 45.7955436706543 70.04586029052734 43.338260650634766 76.64359283447266 40.47671127319336" stroke-width="1.0892857313156128" fill="none" stroke="rgb(236, 149, 83)" stroke-opacity="0.48456973" stroke-linecap="round" stroke-linejoin="round"/>
    <path d="M 26.907716751098633 77.90882873535156 C 28.909996032714844 77.6652603149414 27.276514053344727 76.20464324951172 30.275611877441406 81.90242004394531 C 25.586727142333984 88.1686019897461 29.66360092163086 91.53550720214844 33.433799743652344 94.64767456054688 C 37.313690185546875 94.1053237915039 36.5302848815918 92.3546142578125 36.94590759277344 95.6495361328125" stroke-width="1.0892857313156128" fill="none" stroke="rgb(248, 155, 155)" stroke-opacity="0.648685" stroke-linecap="round" stroke-linejoin="round"/>
    <path d="M 47.11507797241211 19.65259552001953 C 52.40518569946289 24.15081787109375 52.57075500488281 29.68170166015625 47.422611236572266 25.541425704956055 C 50.30006790161133 20.70192527770996 44.8426399230957 24.667848587036133 43.18452072143555 27.2940616607666 C 38.40449142456055 30.684965133666992 34.398067474365234 25.085487365722656 36.94061279296875 19.28972816467285" stroke-width="1.198214054107666" fill="none" stroke="rgb(204, 98, 45)" stroke-opacity="0.5317757" stroke-linecap="round" stroke-linejoin="round"/>
    <path d="M 76.22063446044922 104.75114440917969 C 79.99295043945312 106.51630401611328 81.87638854980469 105.66168975830078 82.52840423583984 111.18534851074219 C 83.59170532226562 111.8493881225586 87.78941345214844 106.58317565917969 84.11719512939453 111.60002136230469" stroke-width="1.0892857313156128" fill="none" stroke="rgb(26, 52, 35)" stroke-opacity="0.21584949" stroke-linecap="round" stroke-linejoin="round"/>
    <path d="M 78.18616485595703 92.07164001464844 C 74.28035736083984 94.78263092041016 74.87647247314453 92.62445068359375 69.56523895263672 88.3736343383789 C 67.59381866455078 85.73127746582031 62.55039596557617 87.33417510986328 60.385353088378906 91.56865692138672" stroke-width="1.0892857313156128" fill="none" stroke="rgb(198, 135, 216)" stroke-opacity="0.5701979" stroke-linecap="round" stroke-linejoin="round"/>
    <path d="M 67.82115173339844 96.67231750488281 C 63.89291000366211 102.16886138916016 60.3701057434082 97.04598236083984 65.26476287841797 100.68256378173828 C 60.67023468017578 106.28949737548828 64.6129150390625 100.6652603149414 60.479736328125 103.21141052246094 C 66.003662109375 98.97577667236328 67.76911926269531 99.67229461669922 70.59861755371094 97.0188980102539" stroke-width="1.0892857313156128" fill="none" stroke="rgb(220, 78, 193)" stroke-opacity="0.32461476" stroke-linecap="round" stroke-linejoin="round"/>
    <path d="M 113.47747039794922 52.35220718383789 C 113.10684204101562 54.46897888183594 118.27890014648438 54.20403289794922 122.92906188964844 55.023475646972656" stroke-width="1.0892857313156128" fill="none" stroke="rgb(20, 50, 173)" stroke-opacity="0.008693456" stroke-linecap="round" stroke-linejoin="round"/>
    <path d="M 120.1936264038086 9.026227951049805 C 125.4586410522461 6.576929569244385 126.02428436279297 2.640558958053589 121.37618255615234 7.7510833740234375 C 120.8600082397461 11.78031063079834 118.63410186767578 8.826224327087402 122.80384826660156 10.918920516967773 C 119.26628875732422 7.773171424865723 114.18873596191406 3.9747989177703857 110.74851989746094 3.6263527870178223" stroke-width="1.0892857313156128" fill="none" stroke="rgb(132, 155, 79)" stroke-opacity="0.6612722" stroke-linecap="round" stroke-linejoin="round"/>
    <path d="M 46.13383102416992 48.01890182495117 C 43.6629753112793 41.989768981933594 38.37118911743164 36.70533752441406 39.62336730957031 32.69724655151367 C 44.11664581298828 26.061443328857422 39.576290130615234 20.768417358398438 37.2449951171875 25.188932418823242" stroke-width="1.0892857313156128" fill="none" stroke="rgb(2, 235, 175)" stroke-opacity="0.5605638" stroke-linecap="round" stroke-linejoin="round"/>
    <path d="M 117.46662902832031 0.8001136183738708 C 112.22428894042969 5.9859185218811035 108.55318450927734 8.044798851013184 113.84618377685547 7.8056230545043945" stroke-width="1.198213815689087" fill="none" stroke="rgb(140, 40, 227)" stroke-opacity="0.2576483" stroke-linecap="round" stroke-linejoin="round"/>
  </g>
</svg>
