<?xml version="1.0" ?>
<svg xmlns="http://www.w3.org/2000/svg" version="1.1" width="1084.99219" height="1084.99219">
  <defs/>
  <g>
    <path d="M 150.41578674316406 128.90919494628906 C 146.89146423339844 121.41841125488281 144.49269104003906 118.1596450805664 147.6282196044922 116.1168441772461 C 153.8870391845703 114.65703582763672 160.30419921875 106.05622100830078 167.3698272705078 107.7963638305664 C 176.87130737304688 107.28162384033203 184.4209442138672 110.06217193603516 197.84323120117188 111.63893127441406 C 206.72630310058594 113.88861083984375 223.9248809814453 114.2225570678711 230.59896850585938 110.02641296386719 C 238.09027099609375 108.65672302246094 238.52481079101562 105.60475158691406 239.41357421875 120.66007232666016 C 241.6470184326172 132.3753662109375 249.07684326171875 157.88839721679688 251.9166259765625 174.10191345214844 C 257.9520568847656 185.24685668945312 265.44854736328125 183.5244140625 268.4010925292969 183.86138916015625 C 270.03582763671875 185.96206665039062 277.8821716308594 185.8878173828125 287.55523681640625 188.10464477539062" stroke-width="8.078544616699219" fill="none" stroke="rgb(5, 19, 19)" stroke-opacity="0.98287594" stroke-linecap="round" stroke-linejoin="round"/>
    <path d="M 312.1860656738281 158.6173095703125 C 330.6244812011719 166.15663146972656 334.2358093261719 166.35450744628906 339.1205139160156 165.9466094970703" stroke-width="3.6206753253936768" fill="none" stroke="rgb(29, 44, 10)" stroke-opacity="0.9704721" stroke-linecap="round" stroke-linejoin="round"/>
    <path d="M 318.8807678222656 212.54864501953125 C 321.09454345703125 218.09654235839844 320.3995666503906 219.43695068359375 320.3612976074219 220.94944763183594 C 319.3642272949219 219.08139038085938 316.2700500488281 224.12924194335938 311.1248474121094 221.33348083496094 C 310.5044860839844 214.13027954101562 300.5830078125 206.62155151367188 289.51513671875 204.20957946777344 C 275.8631591796875 196.62921142578125 228.77166748046875 202.78469848632812 174.71539306640625 207.84120178222656" stroke-width="7.983409404754639" fill="none" stroke="rgb(33, 22, 32)" stroke-opacity="0.97437865" stroke-linecap="round" stroke-linejoin="round"/>
    <path d="M 101.58854675292969 141.92745971679688 C 109.52902221679688 146.92474365234375 111.90425872802734 155.25454711914062 114.17459106445312 158.39483642578125 C 116.67793273925781 161.11026000976562 118.34013366699219 158.66563415527344 114.87454986572266 153.84707641601562 C 112.90463256835938 150.39854431152344 106.1075668334961 144.4283905029297 99.02725982666016 146.31222534179688 C 96.25794219970703 150.192626953125 95.73528289794922 159.84605407714844 93.78658294677734 166.8280487060547 C 92.66666412353516 173.5089111328125 97.30068969726562 181.58953857421875 98.66503143310547 183.7708740234375 C 99.49592590332031 188.71437072753906 99.6814193725586 184.0186004638672 103.63179016113281 182.46958923339844 C 106.08483123779297 181.46603393554688 114.48042297363281 184.1636199951172 115.73693084716797 191.23191833496094 C 115.73406982421875 196.0172882080078 105.92218780517578 206.58885192871094 107.5926284790039 214.71742248535156 C 109.88866424560547 217.60015869140625 116.46804809570312 212.40655517578125 114.72577667236328 209.35325622558594 C 112.94235229492188 205.24696350097656 110.5589370727539 211.6904296875 107.01447296142578 211.50299072265625 C 102.96719360351562 211.96334838867188 101.1932373046875 209.70587158203125 100.12738800048828 208.7030792236328 C 94.43994903564453 208.8589324951172 107.34906768798828 210.777587890625 122.08793640136719 210.45668029785156" stroke-width="5.517948627471924" fill="none" stroke="rgb(5, 22, 18)" stroke-opacity="1.0" stroke-linecap="round" stroke-linejoin="round"/>
    <path d="M 287.80224609375 167.57614135742188 C 283.5635070800781 194.11154174804688 286.2558898925781 178.4916229248047 283.3560791015625 182.0773162841797" stroke-width="3.6206753253936768" fill="none" stroke="rgb(204, 52, 255)" stroke-opacity="0.50457996" stroke-linecap="round" stroke-linejoin="round"/>
    <path d="M 198.62753295898438 187.28955078125 C 207.53152465820312 181.9748992919922 186.48309326171875 197.90870666503906 166.90968322753906 197.03993225097656" stroke-width="5.716076850891113" fill="none" stroke="rgb(252, 19, 230)" stroke-opacity="0.52576107" stroke-linecap="round" stroke-linejoin="round"/>
    <path d="M 96.22293090820312 180.07345581054688 C 97.73822784423828 164.2981414794922 98.8620376586914 169.15118408203125 104.50811004638672 168.45169067382812" stroke-width="3.6206753253936768" fill="none" stroke="rgb(118, 60, 51)" stroke-opacity="0.47422776" stroke-linecap="round" stroke-linejoin="round"/>
    <path d="M 154.32553100585938 121.21324920654297 C 173.14053344726562 118.21134185791016 188.1907196044922 112.09483337402344 189.32945251464844 116.21195220947266 C 195.2303924560547 122.61666870117188 191.43357849121094 132.52706909179688 186.59881591796875 145.27833557128906 C 186.33326721191406 163.2505645751953 174.05776977539062 161.78550720214844 160.80099487304688 157.4583282470703" stroke-width="7.878965854644775" fill="none" stroke="rgb(255, 247, 20)" stroke-opacity="0.5146113" stroke-linecap="round" stroke-linejoin="round"/>
    <path d="M 92.77559661865234 217.55615234375 C 98.68599700927734 224.72201538085938 106.26163482666016 231.82803344726562 114.77499389648438 225.28309631347656 C 121.05875396728516 218.9864501953125 124.22418975830078 194.96771240234375 131.2239227294922 174.91336059570312 C 143.5240936279297 160.298095703125 135.21084594726562 194.06288146972656 123.13238525390625 226.47219848632812" stroke-width="5.711896896362305" fill="none" stroke="rgb(229, 163, 222)" stroke-opacity="0.49508235" stroke-linecap="round" stroke-linejoin="round"/>
    <path d="M 107.96347045898438 170.11744689941406 C 106.71647644042969 164.75306701660156 109.92384338378906 159.08575439453125 114.27872467041016 160.34312438964844 C 115.37203979492188 163.3486328125 112.43297576904297 172.45851135253906 109.82327270507812 184.35446166992188 C 108.14242553710938 193.58428955078125 98.96896362304688 187.9577178955078 94.01881408691406 178.06883239746094" stroke-width="3.6206753253936768" fill="none" stroke="rgb(233, 176, 151)" stroke-opacity="0.4874748" stroke-linecap="round" stroke-linejoin="round"/>
    <path d="M 107.20906066894531 207.74972534179688 C 109.1386489868164 206.96121215820312 114.35301208496094 207.03225708007812 120.76099395751953 209.8433837890625 C 128.9950408935547 211.92230224609375 153.9574737548828 211.50003051757812 175.77188110351562 211.1215362548828" stroke-width="3.6206753253936768" fill="none" stroke="rgb(55, 128, 156)" stroke-opacity="0.52771235" stroke-linecap="round" stroke-linejoin="round"/>
    <path d="M 203.20291137695312 117.6115493774414 C 181.8973846435547 127.02045440673828 166.56304931640625 101.17743682861328 145.4114990234375 87.27743530273438" stroke-width="7.133612632751465" fill="none" stroke="rgb(155, 11, 236)" stroke-opacity="0.4834908" stroke-linecap="round" stroke-linejoin="round"/>
    <path d="M 100.43119049072266 178.9765167236328 C 96.44844055175781 172.70408630371094 92.22027587890625 165.11805725097656 83.21163940429688 158.09544372558594 C 73.51213836669922 152.57420349121094 61.39366912841797 145.21685791015625 48.79439163208008 140.1051025390625 C 34.157100677490234 136.19863891601562 23.140159606933594 142.49156188964844 16.873193740844727 147.20533752441406" stroke-width="3.6206753253936768" fill="none" stroke="rgb(62, 127, 215)" stroke-opacity="0.47053784" stroke-linecap="round" stroke-linejoin="round"/>
    <path d="M 98.09075164794922 190.28048706054688 C 105.8282699584961 200.19363403320312 117.95340728759766 205.7728729248047 121.9719467163086 204.61448669433594 C 125.24015808105469 202.8210906982422 119.06598663330078 194.94822692871094 113.11019897460938 187.56724548339844 C 107.87242889404297 181.34591674804688 139.5085906982422 174.29200744628906 168.6991424560547 167.0344696044922" stroke-width="4.423447608947754" fill="none" stroke="rgb(112, 13, 54)" stroke-opacity="0.52570105" stroke-linecap="round" stroke-linejoin="round"/>
    <path d="M 102.81869506835938 166.6859893798828 C 109.53839874267578 159.99710083007812 112.94224548339844 150.4789276123047 119.53356170654297 143.90765380859375 C 123.81890106201172 134.66163635253906 128.671142578125 129.84823608398438 138.87503051757812 128.76524353027344" stroke-width="7.42510461807251" fill="none" stroke="rgb(202, 53, 151)" stroke-opacity="0.49611828" stroke-linecap="round" stroke-linejoin="round"/>
    <path d="M 277.242919921875 171.44119262695312 C 280.8071594238281 169.15194702148438 281.5503234863281 171.9036407470703 281.5617980957031 176.66860961914062 C 279.8520812988281 179.71995544433594 271.1961669921875 178.2239532470703 260.38787841796875 175.92027282714844" stroke-width="6.913589954376221" fill="none" stroke="rgb(243, 183, 187)" stroke-opacity="0.50561935" stroke-linecap="round" stroke-linejoin="round"/>
    <path d="M 156.66903686523438 90.88880920410156 C 148.13511657714844 93.0365219116211 141.09976196289062 95.5157470703125 130.44334411621094 94.28471374511719 C 125.01154327392578 98.16891479492188 135.81166076660156 97.07633209228516 146.5880889892578 97.46187591552734" stroke-width="3.6206753253936768" fill="none" stroke="rgb(187, 161, 227)" stroke-opacity="0.4720864" stroke-linecap="round" stroke-linejoin="round"/>
    <path d="M 143.86642456054688 84.61101531982422 C 145.65159606933594 104.19645690917969 146.010986328125 121.24961853027344 148.0208282470703 126.33195495605469 C 146.51339721679688 132.12527465820312 141.9881134033203 129.18724060058594 137.93544006347656 130.4650115966797 C 133.6128387451172 127.4510498046875 143.9210968017578 124.63448333740234 149.5586395263672 117.04674530029297" stroke-width="4.854188919067383" fill="none" stroke="rgb(14, 89, 9)" stroke-opacity="0.5134085" stroke-linecap="round" stroke-linejoin="round"/>
    <path d="M 164.7821807861328 168.87228393554688 C 145.43020629882812 167.2139129638672 142.79296875 159.2563018798828 168.51426696777344 154.71810913085938" stroke-width="4.7037248611450195" fill="none" stroke="rgb(10, 34, 0)" stroke-opacity="0.52642936" stroke-linecap="round" stroke-linejoin="round"/>
    <path d="M 133.36892700195312 216.5189208984375 C 122.28943634033203 231.3475799560547 118.36740112304688 249.7694549560547 115.26496887207031 259.04107666015625 C 108.92839050292969 266.810791015625 110.41875457763672 269.9588317871094 111.60554504394531 273.4837646484375 C 109.44944763183594 273.28521728515625 116.13651275634766 240.28125 130.4269561767578 211.8446807861328" stroke-width="3.9615230560302734" fill="none" stroke="rgb(103, 152, 0)" stroke-opacity="0.48581547" stroke-linecap="round" stroke-linejoin="round"/>
    <path d="M 283.2795715332031 180.5572967529297 C 288.2859191894531 182.25576782226562 297.5582580566406 181.213623046875 301.3599548339844 180.62442016601562 C 308.6553649902344 182.7393035888672 301.74468994140625 169.2344207763672 294.2238464355469 156.12957763671875" stroke-width="3.7661709785461426" fill="none" stroke="rgb(190, 237, 12)" stroke-opacity="0.4880046" stroke-linecap="round" stroke-linejoin="round"/>
    <path d="M 115.9771499633789 231.70228576660156 C 118.08221435546875 223.62322998046875 119.94945526123047 213.68801879882812 116.4697036743164 194.6848907470703 C 113.02009582519531 180.6721649169922 104.26799011230469 162.53916931152344 94.17459106445312 145.49667358398438 C 87.60702514648438 124.91747283935547 102.04936981201172 131.91372680664062 116.45037078857422 138.801513671875" stroke-width="4.550215244293213" fill="none" stroke="rgb(145, 0, 108)" stroke-opacity="0.52202815" stroke-linecap="round" stroke-linejoin="round"/>
    <path d="M 284.89862060546875 183.7539520263672 C 284.32568359375 172.2482147216797 283.3123779296875 160.50462341308594 272.9859924316406 154.8282928466797 C 263.96697998046875 143.4969024658203 251.4757537841797 133.2314910888672 235.76473999023438 126.18540954589844 C 219.67820739746094 124.231689453125 221.21702575683594 151.72900390625 227.97901916503906 176.1636199951172" stroke-width="8.097865104675293" fill="none" stroke="rgb(136, 39, 139)" stroke-opacity="0.5270714" stroke-linecap="round" stroke-linejoin="round"/>
    <path d="M 164.13890075683594 147.33282470703125 C 161.27066040039062 144.9973907470703 160.13442993164062 139.35714721679688 158.44566345214844 137.95265197753906 C 153.34487915039062 136.4949188232422 151.64956665039062 138.7848663330078 150.06573486328125 142.9604034423828 C 148.2681884765625 143.17234802246094 156.07064819335938 122.88700103759766 162.18698120117188 101.35350036621094" stroke-width="3.6206753253936768" fill="none" stroke="rgb(229, 78, 163)" stroke-opacity="0.49823627" stroke-linecap="round" stroke-linejoin="round"/>
    <path d="M 280.9364013671875 182.75660705566406 C 269.8067932128906 182.27334594726562 263.8705139160156 176.43621826171875 255.0076446533203 173.90103149414062 C 240.2418975830078 172.13818359375 227.65040588378906 175.52584838867188 217.45547485351562 183.1342010498047" stroke-width="4.967590808868408" fill="none" stroke="rgb(223, 211, 94)" stroke-opacity="0.5225325" stroke-linecap="round" stroke-linejoin="round"/>
    <path d="M 124.9094467163086 221.0350799560547 C 106.85235595703125 237.05462646484375 93.60831451416016 255.69683837890625 91.52766418457031 270.1320495605469 C 87.80523681640625 284.8922424316406 93.49849700927734 294.19305419921875 98.54424285888672 303.6814880371094 C 101.74449920654297 314.96734619140625 103.2141342163086 317.5113220214844 105.18359375 319.7015686035156" stroke-width="4.248861312866211" fill="none" stroke="rgb(72, 68, 155)" stroke-opacity="0.5274159" stroke-linecap="round" stroke-linejoin="round"/>
    <path d="M 89.50142669677734 201.11795043945312 C 98.56510162353516 210.2473602294922 113.19864654541016 216.72840881347656 106.03265380859375 217.6845245361328 C 105.14979553222656 212.33799743652344 87.86917877197266 195.49288940429688 71.3674545288086 177.87457275390625 C 55.331336975097656 160.02101135253906 78.10768127441406 174.18478393554688 98.00171661376953 189.78976440429688" stroke-width="3.7685585021972656" fill="none" stroke="rgb(30, 188, 140)" stroke-opacity="0.49811485" stroke-linecap="round" stroke-linejoin="round"/>
    <path d="M 284.9261474609375 183.83323669433594 C 288.4805908203125 169.74942016601562 291.7652893066406 155.120849609375 295.3319091796875 140.73272705078125 C 298.2969970703125 124.9651107788086 292.2311096191406 130.66578674316406 283.9609069824219 134.4563751220703" stroke-width="3.9981987476348877" fill="none" stroke="rgb(16, 102, 60)" stroke-opacity="0.5297577" stroke-linecap="round" stroke-linejoin="round"/>
    <path d="M 18.30116081237793 151.00514221191406 C 20.667617797851562 164.07298278808594 48.62455749511719 164.2459259033203 37.09050750732422 163.20729064941406" stroke-width="3.6206753253936768" fill="none" stroke="rgb(47, 144, 239)" stroke-opacity="0.5106599" stroke-linecap="round" stroke-linejoin="round"/>
    <path d="M 121.13138580322266 132.5705108642578 C 109.7498779296875 126.02754974365234 98.45362854003906 119.08221435546875 88.28009796142578 110.7856216430664 C 76.99895477294922 105.43763732910156 68.09803009033203 108.46593475341797 58.42647171020508 111.64199829101562" stroke-width="4.3178863525390625" fill="none" stroke="rgb(183, 165, 220)" stroke-opacity="0.5278279" stroke-linecap="round" stroke-linejoin="round"/>
    <path d="M 205.75241088867188 73.51600646972656 C 207.7965087890625 94.8863525390625 208.9774169921875 117.84100341796875 217.13218688964844 122.26074981689453 C 229.94076538085938 129.590576171875 242.03822326660156 123.79888153076172 252.7574920654297 115.82484436035156 C 262.4309997558594 109.72988891601562 256.3599548339844 97.01827239990234 252.0974884033203 80.92486572265625" stroke-width="3.6206753253936768" fill="none" stroke="rgb(193, 156, 54)" stroke-opacity="0.49779478" stroke-linecap="round" stroke-linejoin="round"/>
    <path d="M 125.75774383544922 96.98726654052734 C 114.96017456054688 98.19788360595703 104.92261505126953 98.31185150146484 100.12512969970703 94.32613372802734 C 96.7223129272461 94.3623275756836 100.66285705566406 91.11672973632812 105.02699279785156 88.66035461425781 C 110.01268005371094 86.07646179199219 119.47346496582031 74.92131042480469 126.49028778076172 64.15016174316406" stroke-width="4.250385761260986" fill="none" stroke="rgb(103, 215, 132)" stroke-opacity="0.52903056" stroke-linecap="round" stroke-linejoin="round"/>
    <path d="M 10.908672332763672 165.78042602539062 C 22.763620376586914 187.15966796875 15.123043060302734 205.08535766601562 18.04086685180664 196.23776245117188" stroke-width="3.6206753253936768" fill="none" stroke="rgb(190, 131, 206)" stroke-opacity="0.5164926" stroke-linecap="round" stroke-linejoin="round"/>
    <path d="M 187.0820770263672 246.8144989013672 C 172.13954162597656 266.7479553222656 198.68092346191406 276.3084716796875 205.5018310546875 257.6376037597656" stroke-width="4.572244644165039" fill="none" stroke="rgb(210, 186, 116)" stroke-opacity="0.51472753" stroke-linecap="round" stroke-linejoin="round"/>
    <path d="M 356.4371643066406 99.1224136352539 C 331.1650695800781 94.67646789550781 327.5255432128906 93.62774658203125 291.6856689453125 99.52070617675781" stroke-width="4.107233047485352" fill="none" stroke="rgb(72, 215, 62)" stroke-opacity="0.50266" stroke-linecap="round" stroke-linejoin="round"/>
    <path d="M 52.16937255859375 300.69195556640625 C 49.742042541503906 302.50103759765625 40.541587829589844 295.0923767089844 60.528499603271484 303.5523986816406" stroke-width="4.235945701599121" fill="none" stroke="rgb(104, 216, 133)" stroke-opacity="0.528658" stroke-linecap="round" stroke-linejoin="round"/>
    <path d="M 68.86470794677734 208.1455078125 C 75.43409729003906 218.642333984375 81.6169662475586 229.87802124023438 85.46988677978516 235.98797607421875 C 88.86114501953125 242.47694396972656 89.95237731933594 243.70040893554688 89.55787658691406 244.7128448486328 C 90.48550415039062 246.2637481689453 90.2742919921875 250.65133666992188 88.19075775146484 256.8840637207031" stroke-width="4.310091018676758" fill="none" stroke="rgb(24, 26, 164)" stroke-opacity="0.502814" stroke-linecap="round" stroke-linejoin="round"/>
    <path d="M 254.67440795898438 360.29925537109375 C 286.4345397949219 360.8912048339844 302.6229248046875 360.6502380371094 294.3059997558594 357.730712890625" stroke-width="4.0829949378967285" fill="none" stroke="rgb(0, 159, 5)" stroke-opacity="0.5053287" stroke-linecap="round" stroke-linejoin="round"/>
    <path d="M 269.48583984375 367.12237548828125 C 265.2803649902344 397.05560302734375 261.69464111328125 429.2393798828125 264.18206787109375 443.1226501464844 C 266.285888671875 456.7485046386719 273.52838134765625 450.95770263671875 280.7668762207031 445.1669616699219 C 288.0093688964844 439.376220703125 288.3986511230469 430.03717041015625 288.7920227050781 420.6981506347656" stroke-width="3.6206753253936768" fill="none" stroke="rgb(82, 195, 0)" stroke-opacity="0.51620007" stroke-linecap="round" stroke-linejoin="round"/>
    <path d="M 104.25688934326172 8.281258583068848 C 105.0361099243164 -14.304282188415527 103.36743927001953 -31.78766441345215 101.60889434814453 -48.346160888671875 C 98.01719665527344 -65.0406494140625 99.65547943115234 -56.974945068359375 101.29376220703125 -48.905189514160156" stroke-width="3.7009055614471436" fill="none" stroke="rgb(121, 95, 207)" stroke-opacity="0.5045999" stroke-linecap="round" stroke-linejoin="round"/>
    <path d="M 126.37773895263672 338.93170166015625 C 121.73844146728516 351.1781311035156 117.81766510009766 362.23968505859375 124.32173156738281 359.8197326660156 C 128.66897583007812 355.2201843261719 141.63418579101562 335.4263610839844 153.15191650390625 314.3388671875 C 169.2578125 294.9593200683594 176.0596923828125 304.5042419433594 181.52487182617188 316.04010009765625" stroke-width="3.8285772800445557" fill="none" stroke="rgb(83, 86, 91)" stroke-opacity="0.50377464" stroke-linecap="round" stroke-linejoin="round"/>
    <path d="M 133.3874969482422 65.19322204589844 C 136.81971740722656 72.41891479492188 140.58843994140625 80.9841537475586 151.9455108642578 88.67630004882812 C 160.52621459960938 99.660888671875 174.3580780029297 112.9077377319336 188.371826171875 126.0253677368164 C 203.22943115234375 138.06321716308594 200.63992309570312 135.88525390625 198.0043487548828 133.9622039794922" stroke-width="4.529072284698486" fill="none" stroke="rgb(28, 163, 149)" stroke-opacity="0.49539876" stroke-linecap="round" stroke-linejoin="round"/>
    <path d="M 284.2761535644531 184.4027862548828 C 280.3294982910156 193.62046813964844 266.7585144042969 207.46400451660156 270.31304931640625 188.78883361816406" stroke-width="3.6206753253936768" fill="none" stroke="rgb(211, 20, 29)" stroke-opacity="0.47342992" stroke-linecap="round" stroke-linejoin="round"/>
    <path d="M 350.34375 376.1319580078125 C 362.82012939453125 395.9765319824219 370.2850036621094 407.5807800292969 377.386474609375 417.8605041503906" stroke-width="3.6206753253936768" fill="none" stroke="rgb(221, 176, 76)" stroke-opacity="0.48294362" stroke-linecap="round" stroke-linejoin="round"/>
    <path d="M 166.01275634765625 347.6268005371094 C 181.91793823242188 313.4884948730469 173.57054138183594 328.9180603027344 181.85433959960938 374.4913330078125" stroke-width="3.6206753253936768" fill="none" stroke="rgb(176, 255, 19)" stroke-opacity="0.50974154" stroke-linecap="round" stroke-linejoin="round"/>
    <path d="M 338.87939453125 248.86834716796875 C 345.3065490722656 237.0046844482422 333.1861267089844 250.76870727539062 339.2359924316406 278.7646179199219" stroke-width="4.214177131652832" fill="none" stroke="rgb(121, 255, 58)" stroke-opacity="0.51427025" stroke-linecap="round" stroke-linejoin="round"/>
    <path d="M 44.24976348876953 319.96002197265625 C 56.149410247802734 327.2972106933594 69.23131561279297 334.1249694824219 82.46990966796875 332.2023010253906 C 89.0911865234375 334.5018615722656 95.47880554199219 332.43304443359375 105.66573333740234 335.1844787597656 C 111.2308578491211 331.558349609375 93.42876434326172 324.98388671875 79.6517562866211 312.4244384765625" stroke-width="3.6206753253936768" fill="none" stroke="rgb(125, 28, 46)" stroke-opacity="0.51672953" stroke-linecap="round" stroke-linejoin="round"/>
    <path d="M 299.78363037109375 335.69073486328125 C 319.8065490722656 365.2786560058594 320.02545166015625 363.49017333984375 324.7643737792969 320.55767822265625" stroke-width="3.785632610321045" fill="none" stroke="rgb(100, 121, 210)" stroke-opacity="0.52834314" stroke-linecap="round" stroke-linejoin="round"/>
    <path d="M 88.0050277709961 110.2881088256836 C 106.07353210449219 89.78482818603516 102.49604797363281 90.83451843261719 113.45552825927734 102.62548065185547" stroke-width="3.9167749881744385" fill="none" stroke="rgb(72, 201, 72)" stroke-opacity="0.47846028" stroke-linecap="round" stroke-linejoin="round"/>
    <path d="M 275.7003173828125 184.563232421875 C 269.15350341796875 184.27847290039062 272.4644775390625 188.67796325683594 268.2420654296875 183.09957885742188 C 266.248046875 180.0392303466797 264.52569580078125 171.29908752441406 265.78472900390625 161.91693115234375 C 260.9299011230469 152.858154296875 251.08651733398438 150.23062133789062 241.1299591064453 148.12229919433594" stroke-width="4.732738018035889" fill="none" stroke="rgb(33, 155, 162)" stroke-opacity="0.525495" stroke-linecap="round" stroke-linejoin="round"/>
    <path d="M 311.8293762207031 408.2934265136719 C 310.63311767578125 416.4524230957031 311.6914978027344 405.0736389160156 312.59173583984375 422.940673828125" stroke-width="3.6206753253936768" fill="none" stroke="rgb(132, 254, 67)" stroke-opacity="0.5" stroke-linecap="round" stroke-linejoin="round"/>
    <path d="M 4.792192459106445 259.1948547363281 C 12.632822036743164 259.7485046386719 15.310376167297363 263.7183532714844 22.096900939941406 267.3708190917969 C 22.55338478088379 269.2972106933594 20.201007843017578 258.18963623046875 13.084736824035645 243.86521911621094" stroke-width="4.238053321838379" fill="none" stroke="rgb(49, 209, 122)" stroke-opacity="0.5249976" stroke-linecap="round" stroke-linejoin="round"/>
    <path d="M 137.62490844726562 17.004854202270508 C 134.92279052734375 28.048248291015625 128.9710235595703 34.248294830322266 124.54839324951172 31.840909957885742 C 122.03097534179688 31.38791275024414 122.95265197753906 22.78053092956543 123.5401611328125 16.983776092529297 C 118.76315307617188 8.899809837341309 123.32972717285156 15.511335372924805 132.80242919921875 17.46234130859375" stroke-width="3.6206753253936768" fill="none" stroke="rgb(107, 144, 243)" stroke-opacity="0.4865317" stroke-linecap="round" stroke-linejoin="round"/>
    <path d="M 218.5449676513672 265.8631896972656 C 221.27496337890625 259.6238708496094 224.07289123535156 254.0096435546875 228.8379669189453 251.0618438720703 C 233.48240661621094 249.60177612304688 233.3129425048828 239.6132049560547 235.54055786132812 235.51724243164062" stroke-width="3.7059402465820312" fill="none" stroke="rgb(168, 167, 122)" stroke-opacity="0.47764194" stroke-linecap="round" stroke-linejoin="round"/>
    <path d="M 115.76538848876953 108.73313903808594 C 116.60266876220703 109.56999206542969 116.71472930908203 109.63539123535156 117.31595611572266 109.21040344238281 C 116.25581359863281 108.08090209960938 116.44447326660156 106.8023910522461 116.93251037597656 106.43012237548828 C 119.98897552490234 108.30032348632812 120.3065185546875 107.6712417602539 121.15081787109375 107.00667572021484 C 121.16658020019531 105.11865997314453 124.49270629882812 105.20439910888672 129.28466796875 106.65992736816406 C 131.7516326904297 105.83284759521484 133.38153076171875 105.7835464477539 137.1354217529297 107.3249282836914 C 141.27279663085938 107.39263153076172 143.46238708496094 108.55842590332031 145.09361267089844 111.19381713867188 C 147.53265380859375 112.9532241821289 149.60147094726562 115.87600708007812 154.51959228515625 115.42091369628906 C 152.59866333007812 120.98831176757812 152.39553833007812 122.29489135742188 153.1968536376953 123.83192443847656 C 157.60145568847656 122.01467895507812 157.6303253173828 124.40008544921875 155.7183837890625 129.67092895507812 C 155.91600036621094 133.17152404785156 155.59300231933594 135.7501678466797 152.11541748046875 136.89488220214844 C 150.39222717285156 140.02865600585938 148.07583618164062 144.2107696533203 145.3109588623047 148.21469116210938 C 140.41087341308594 149.16127014160156 133.72181701660156 148.68699645996094 130.63601684570312 150.21726989746094 C 127.66282653808594 151.74395751953125 128.22633361816406 156.46961975097656 126.10162353515625 157.36758422851562 C 122.85163116455078 158.10861206054688 118.96772003173828 159.45431518554688 112.86798858642578 159.83961486816406 C 106.90357208251953 155.99114990234375 105.37538146972656 156.5115966796875 101.88439178466797 155.864013671875 C 96.49880981445312 157.36038208007812 92.90359497070312 156.42930603027344 91.97317504882812 150.57493591308594 C 88.80006408691406 151.87579345703125 85.92195129394531 150.7067413330078 84.83175659179688 149.74545288085938 C 84.3140869140625 148.7591552734375 85.74485778808594 147.9317626953125 87.38522338867188 147.72019958496094 C 88.40621948242188 147.33367919921875 90.93738555908203 147.75302124023438 93.27384185791016 146.09222412109375 C 95.43315887451172 144.15492248535156 97.61018371582031 139.82225036621094 108.2496337890625 136.66612243652344 C 119.51216125488281 134.98577880859375 137.25076293945312 132.25958251953125 147.60946655273438 131.20391845703125 C 160.67315673828125 131.19482421875 164.31259155273438 129.96607971191406 165.19715881347656 131.11813354492188 C 167.9850311279297 135.0508575439453 170.42713928222656 137.48934936523438 170.9332275390625 140.04592895507812 C 173.56141662597656 143.212646484375 174.27809143066406 141.7071075439453 174.77005004882812 145.44598388671875 C 174.5090789794922 147.9327850341797 174.04067993164062 149.96116638183594 174.11338806152344 149.72369384765625 C 172.37257385253906 154.63919067382812 172.61293029785156 156.52452087402344 169.9274139404297 154.31472778320312 C 170.23204040527344 157.4287872314453 169.5655975341797 160.9294891357422 168.60401916503906 162.97247314453125 C 167.08338928222656 164.10162353515625 167.07180786132812 165.6696319580078 166.63101196289062 166.390869140625 C 166.77061462402344 169.62437438964844 166.3681640625 173.1201171875 166.68450927734375 175.19435119628906 C 167.31288146972656 177.16807556152344 169.08987426757812 180.3785858154297 170.9324188232422 180.38400268554688 C 177.25694274902344 180.9715576171875 179.28530883789062 182.55039978027344 182.88250732421875 184.2632293701172 C 184.13198852539062 188.11532592773438 190.2186279296875 188.8291473388672 189.87135314941406 195.48866271972656 C 195.4925537109375 195.8178253173828 200.94107055664062 195.87449645996094 204.2957305908203 196.22781372070312 C 207.31654357910156 197.51516723632812 209.65780639648438 198.35919189453125 210.7108154296875 201.02601623535156 C 213.43125915527344 204.56036376953125 220.0792999267578 204.77830505371094 227.7652587890625 202.708251953125 C 234.20880126953125 197.50405883789062 249.5392608642578 195.24620056152344 261.4743957519531 194.65948486328125 C 271.3175964355469 192.001708984375 277.40264892578125 190.2557373046875 280.880859375 189.03741455078125 C 284.6200256347656 187.61180114746094 281.2574157714844 187.70883178710938 282.1349182128906 185.50119018554688 C 282.8572998046875 187.66473388671875 280.5579528808594 192.84481811523438 275.8644104003906 197.68104553222656 C 268.9284973144531 200.0150146484375 260.1399230957031 204.7828826904297 250.97024536132812 208.8648681640625 C 238.90794372558594 213.5636444091797 228.01251220703125 218.93553161621094 221.4120635986328 224.69378662109375 C 211.45382690429688 227.94190979003906 203.27740478515625 229.06907653808594 190.03111267089844 231.5901336669922 C 176.61599731445312 233.7092742919922 158.18858337402344 236.87892150878906 147.87042236328125 239.2226104736328 C 140.48324584960938 246.71621704101562 135.19796752929688 247.17013549804688 130.38458251953125 247.4423370361328 C 124.04676818847656 247.95582580566406 118.63322448730469 248.2261505126953 115.98120880126953 246.24526977539062 C 114.89100646972656 245.24148559570312 117.74642181396484 245.988037109375 126.19865417480469 247.80978393554688 C 129.59170532226562 247.30963134765625 131.5390625 244.23045349121094 135.52671813964844 243.79115295410156 C 139.5297393798828 244.57208251953125 143.96434020996094 243.48587036132812 146.30108642578125 240.99493408203125 C 151.0265350341797 240.01510620117188 157.92466735839844 239.25006103515625 165.6893310546875 242.87228393554688 C 172.8445587158203 242.61105346679688 172.5370635986328 242.87828063964844 175.2583465576172 242.89060974121094 C 180.3170166015625 238.70132446289062 182.63623046875 241.7270965576172 187.95278930664062 243.24305725097656 C 193.21107482910156 238.87005615234375 200.67120361328125 238.8033447265625 205.06932067871094 239.25949096679688 C 209.99072265625 239.9403839111328 210.19834899902344 240.77880859375 210.62449645996094 241.7702178955078 C 206.54837036132812 245.63323974609375 206.81480407714844 245.39413452148438 206.8789520263672 243.98214721679688 C 207.0544891357422 246.8468017578125 206.48651123046875 252.81814575195312 207.29234313964844 258.9386901855469 C 202.671142578125 258.4943542480469 201.8103485107422 258.7391052246094 204.218505859375 264.109375 C 202.7845001220703 265.51348876953125 200.85421752929688 268.00469970703125 198.7056884765625 269.7610168457031 C 195.84922790527344 270.3169860839844 189.71749877929688 268.687255859375 184.832763671875 270.5042419433594 C 180.0992889404297 272.9259338378906 172.4146728515625 276.04351806640625 165.7950897216797 279.12835693359375 C 158.61083984375 281.6524963378906 152.343017578125 283.96319580078125 148.31629943847656 286.9674377441406 C 145.24005126953125 291.0606384277344 141.62307739257812 293.07403564453125 139.5585174560547 293.98492431640625 C 137.6750946044922 294.672607421875 137.7391815185547 297.6457214355469 139.9886932373047 293.6717834472656 C 140.18641662597656 294.0207824707031 141.30516052246094 294.7731628417969 137.74327087402344 298.7485046386719 C 138.13829040527344 295.5164489746094 137.8990478515625 295.5148010253906 139.60150146484375 294.8730773925781 C 143.8970489501953 297.2956237792969 146.83123779296875 296.1538391113281 153.84217834472656 291.13970947265625 C 163.47987365722656 289.2372131347656 183.1817169189453 289.0007629394531 194.6054229736328 285.9295349121094 C 205.44595336914062 282.3045959472656 211.26295471191406 278.7931213378906 217.11346435546875 275.962158203125 C 223.26214599609375 275.6643981933594 229.0852813720703 278.3109130859375 226.49520874023438 280.43463134765625 C 227.87069702148438 282.47222900390625 227.33148193359375 283.9012145996094 229.64320373535156 285.837158203125 C 228.9359893798828 286.9598388671875 225.88662719726562 288.1263732910156 223.88844299316406 289.88946533203125 C 223.27346801757812 292.7306823730469 221.30508422851562 293.5880126953125 215.0565948486328 289.60528564453125 C 212.2074432373047 290.8813171386719 210.1497344970703 291.8930969238281 208.22341918945312 293.5164489746094 C 206.95159912109375 295.18841552734375 208.7678985595703 301.6356506347656 207.9940948486328 302.7965087890625 C 206.7940673828125 303.8818664550781 206.7458038330078 304.01165771484375 202.26040649414062 300.20098876953125 C 202.2606964111328 301.01055908203125 202.07345581054688 302.1145324707031 201.3937225341797 302.4585876464844 C 201.14352416992188 303.4761047363281 200.79759216308594 303.7729187011719 205.6142578125 302.5706787109375 C 205.26344299316406 297.06732177734375 210.05029296875 290.415283203125 217.15475463867188 286.306396484375 C 224.68231201171875 282.0172424316406 232.83506774902344 273.8955993652344 239.7676239013672 263.7283020019531" stroke-width="17.972057342529297" fill="none" stroke="rgb(237, 73, 85)" stroke-opacity="0.21305835" stroke-linecap="round" stroke-linejoin="round"/>
    <path d="M 90.80635833740234 274.39178466796875 C 89.12987518310547 278.6980895996094 82.98670959472656 260.88629150390625 94.03718566894531 256.0793762207031 C 94.77993774414062 273.44873046875 97.9988021850586 268.00469970703125 95.28987884521484 287.6965637207031 C 94.05525207519531 301.63946533203125 74.65282440185547 305.5149841308594 59.36393737792969 305.0869445800781" stroke-width="3.6206753253936768" fill="none" stroke="rgb(22, 247, 104)" stroke-opacity="0.60941446" stroke-linecap="round" stroke-linejoin="round"/>
    <path d="M 348.839111328125 377.53668212890625 C 327.7537536621094 365.70538330078125 339.2731628417969 347.92572021484375 356.5224914550781 357.1499938964844" stroke-width="3.6206753253936768" fill="none" stroke="rgb(160, 216, 220)" stroke-opacity="0.9630778" stroke-linecap="round" stroke-linejoin="round"/>
    <path d="M 137.3738250732422 296.804443359375 C 118.76061248779297 291.6966247558594 134.71783447265625 277.636474609375 120.68971252441406 258.2446594238281 C 108.33175659179688 278.9515686035156 101.72229766845703 300.1863708496094 103.48194885253906 307.1866760253906" stroke-width="3.6206753253936768" fill="none" stroke="rgb(21, 161, 41)" stroke-opacity="0.6119312" stroke-linecap="round" stroke-linejoin="round"/>
    <path d="M 171.898681640625 154.30703735351562 C 185.4086151123047 155.26463317871094 198.69747924804688 147.06089782714844 212.59942626953125 160.16920471191406 C 212.9966278076172 166.9881134033203 198.43685913085938 162.38778686523438 213.6717987060547 152.16522216796875 C 225.0981903076172 132.12554931640625 233.2892608642578 115.06547546386719 224.13670349121094 113.68746948242188" stroke-width="4.596309661865234" fill="none" stroke="rgb(150, 43, 184)" stroke-opacity="0.51572466" stroke-linecap="round" stroke-linejoin="round"/>
    <path d="M 186.19187927246094 272.97760009765625 C 195.80511474609375 259.74993896484375 200.796630859375 252.0411834716797 194.3046112060547 264.27874755859375 C 201.52633666992188 255.5180206298828 204.1798858642578 264.77117919921875 219.4626922607422 255.43556213378906 C 242.59442138671875 267.3497619628906 232.480712890625 266.1816101074219 244.0569305419922 283.1598205566406" stroke-width="3.6206753253936768" fill="none" stroke="rgb(31, 171, 245)" stroke-opacity="0.04823488" stroke-linecap="round" stroke-linejoin="round"/>
    <path d="M 150.07086181640625 113.2079849243164 C 135.08255004882812 95.98345947265625 129.8934783935547 102.3827896118164 131.51699829101562 112.21221923828125" stroke-width="3.6206753253936768" fill="none" stroke="rgb(33, 110, 56)" stroke-opacity="0.536691" stroke-linecap="round" stroke-linejoin="round"/>
    <path d="M 78.27283477783203 317.31646728515625 C 70.3941421508789 303.2751159667969 79.59037017822266 303.3912048339844 82.41900634765625 295.0096740722656 C 63.5988655090332 285.9385070800781 50.42140579223633 272.35107421875 55.502498626708984 262.7177734375 C 69.24212646484375 266.1116943359375 64.2624282836914 253.79141235351562 49.24578857421875 232.62107849121094" stroke-width="4.198689937591553" fill="none" stroke="rgb(153, 197, 109)" stroke-opacity="0.9857534" stroke-linecap="round" stroke-linejoin="round"/>
    <path d="M 283.7640380859375 184.5032196044922 C 284.1151428222656 171.1441650390625 300.54296875 182.01438903808594 312.3757629394531 180.6618194580078 C 323.1802673339844 182.60350036621094 304.95556640625 200.02772521972656 288.0094299316406 210.1104278564453 C 278.7279052734375 219.16842651367188 294.92901611328125 218.32508850097656 273.2663269042969 222.3468475341797" stroke-width="3.6206753253936768" fill="none" stroke="rgb(77, 198, 222)" stroke-opacity="0.10791546" stroke-linecap="round" stroke-linejoin="round"/>
    <path d="M 227.65997314453125 198.60438537597656 C 243.50799560546875 194.31051635742188 244.29034423828125 196.76165771484375 260.5569152832031 200.99539184570312 C 273.5238952636719 182.86595153808594 286.520263671875 191.42770385742188 277.41741943359375 189.41143798828125 C 268.5630187988281 181.34056091308594 264.2474060058594 184.58615112304688 272.4249572753906 198.55848693847656" stroke-width="3.6206753253936768" fill="none" stroke="rgb(239, 17, 223)" stroke-opacity="0.9355803" stroke-linecap="round" stroke-linejoin="round"/>
    <path d="M 112.43424987792969 154.82513427734375 C 123.89961242675781 166.96142578125 127.15623474121094 170.79869079589844 144.31039428710938 154.5515899658203 C 159.9533233642578 149.19065856933594 141.47207641601562 164.78514099121094 159.43008422851562 179.103271484375 C 159.34225463867188 193.69308471679688 170.3812713623047 204.3912811279297 158.38304138183594 198.9806671142578" stroke-width="3.665060043334961" fill="none" stroke="rgb(103, 5, 195)" stroke-opacity="0.023580633" stroke-linecap="round" stroke-linejoin="round"/>
    <path d="M 145.49139404296875 132.4412841796875 C 160.613525390625 150.61492919921875 142.93069458007812 144.39334106445312 134.08900451660156 133.31585693359375" stroke-width="3.6206753253936768" fill="none" stroke="rgb(13, 177, 89)" stroke-opacity="0.6929608" stroke-linecap="round" stroke-linejoin="round"/>
    <path d="M 114.92278289794922 185.91522216796875 C 103.25012969970703 185.95648193359375 89.10600280761719 186.27159118652344 92.9827651977539 186.1501922607422 C 83.71661376953125 188.55751037597656 92.76470184326172 201.07077026367188 86.34336853027344 182.7393035888672 C 80.57994079589844 174.3112335205078 75.92521667480469 178.1390838623047 80.4114761352539 197.66941833496094" stroke-width="3.7037365436553955" fill="none" stroke="rgb(69, 94, 9)" stroke-opacity="0.8705721" stroke-linecap="round" stroke-linejoin="round"/>
    <path d="M 76.28309631347656 197.1063995361328 C 56.48544692993164 179.51129150390625 44.707462310791016 173.875732421875 51.5662727355957 160.7406768798828 C 43.618621826171875 159.56692504882812 38.670021057128906 148.75900268554688 51.38682556152344 168.95579528808594" stroke-width="3.6323225498199463" fill="none" stroke="rgb(199, 142, 69)" stroke-opacity="0.6258049" stroke-linecap="round" stroke-linejoin="round"/>
    <path d="M 133.4909210205078 113.54639434814453 C 134.70286560058594 106.70015716552734 139.29881286621094 100.71556091308594 119.44850158691406 99.5467758178711 C 104.23895263671875 117.16400909423828 104.01251983642578 104.22685241699219 118.39308166503906 117.89176177978516" stroke-width="4.645273685455322" fill="none" stroke="rgb(48, 103, 232)" stroke-opacity="0.2281234" stroke-linecap="round" stroke-linejoin="round"/>
    <path d="M 273.2222900390625 221.77133178710938 C 261.4859313964844 220.11749267578125 249.38626098632812 230.80831909179688 252.128173828125 230.11024475097656 C 246.54396057128906 223.38339233398438 241.717041015625 209.04295349121094 249.11361694335938 221.80088806152344 C 238.65066528320312 218.2073516845703 259.11334228515625 219.83480834960938 271.9483947753906 218.96929931640625" stroke-width="4.581938743591309" fill="none" stroke="rgb(65, 111, 103)" stroke-opacity="0.16231962" stroke-linecap="round" stroke-linejoin="round"/>
    <path d="M 139.39163208007812 128.4061279296875 C 129.6891326904297 136.1318359375 120.18394470214844 119.04590606689453 124.55429077148438 125.5464096069336 C 115.86431884765625 110.9814224243164 125.46868896484375 97.52651977539062 130.00411987304688 76.62738800048828 C 118.27609252929688 89.267822265625 106.48487854003906 97.99897003173828 119.13990783691406 111.83755493164062" stroke-width="3.6206753253936768" fill="none" stroke="rgb(87, 179, 2)" stroke-opacity="0.3800081" stroke-linecap="round" stroke-linejoin="round"/>
    <path d="M 80.35850524902344 194.64215087890625 C 56.48369598388672 191.31759643554688 37.06591796875 207.29913330078125 52.93634033203125 205.614990234375 C 71.38954162597656 221.04183959960938 52.07976531982422 216.79441833496094 61.33633041381836 224.50650024414062" stroke-width="3.6206753253936768" fill="none" stroke="rgb(110, 239, 160)" stroke-opacity="0.50840545" stroke-linecap="round" stroke-linejoin="round"/>
    <path d="M 277.6524658203125 220.7599639892578 C 281.3064270019531 225.9005889892578 274.2720642089844 214.66128540039062 286.18743896484375 223.6003875732422 C 303.19891357421875 217.0499267578125 291.9888610839844 231.31312561035156 304.1150817871094 240.55718994140625" stroke-width="4.437295436859131" fill="none" stroke="rgb(50, 139, 145)" stroke-opacity="0.51327837" stroke-linecap="round" stroke-linejoin="round"/>
    <path d="M 80.42364501953125 195.96624755859375 C 86.29234313964844 208.09068298339844 92.41255950927734 193.52505493164062 96.25318908691406 183.91319274902344 C 109.69723510742188 194.27838134765625 92.6957015991211 183.2330322265625 97.78398132324219 177.44940185546875" stroke-width="3.6206753253936768" fill="none" stroke="rgb(77, 196, 40)" stroke-opacity="0.3902563" stroke-linecap="round" stroke-linejoin="round"/>
    <path d="M 79.37938690185547 197.16688537597656 C 78.54720306396484 185.088134765625 61.30501174926758 199.11590576171875 74.16963958740234 185.73951721191406 C 88.22735595703125 186.11541748046875 91.63192749023438 202.80654907226562 81.27833557128906 207.61148071289062 C 91.50383758544922 202.40182495117188 75.87942504882812 208.3447723388672 86.90731811523438 198.1154022216797" stroke-width="4.427664756774902" fill="none" stroke="rgb(80, 184, 129)" stroke-opacity="0.029749854" stroke-linecap="round" stroke-linejoin="round"/>
    <path d="M 358.21246337890625 360.17364501953125 C 364.7048645019531 368.48858642578125 354.49615478515625 351.01312255859375 362.3182067871094 350.1832580566406 C 342.78851318359375 361.0765075683594 326.316162109375 357.2276611328125 316.24395751953125 349.3995361328125 C 319.13946533203125 347.3617858886719 306.4740905761719 329.1407165527344 318.332275390625 308.80731201171875" stroke-width="3.6206753253936768" fill="none" stroke="rgb(29, 2, 52)" stroke-opacity="0.60333985" stroke-linecap="round" stroke-linejoin="round"/>
    <path d="M 49.344058990478516 232.42697143554688 C 64.9937973022461 240.8227081298828 59.90269470214844 235.0872802734375 64.04962921142578 223.8109588623047" stroke-width="4.582686424255371" fill="none" stroke="rgb(19, 141, 17)" stroke-opacity="0.06802295" stroke-linecap="round" stroke-linejoin="round"/>
    <path d="M 224.46926879882812 113.63365936279297 C 221.78228759765625 102.2515869140625 225.7511749267578 91.8134765625 226.74195861816406 96.89044189453125 C 243.89566040039062 85.21202087402344 250.19955444335938 88.58499908447266 265.534912109375 100.06265258789062" stroke-width="3.6412978172302246" fill="none" stroke="rgb(248, 230, 245)" stroke-opacity="0.3538238" stroke-linecap="round" stroke-linejoin="round"/>
    <path d="M 101.54289245605469 307.7977600097656 C 100.02247619628906 304.9983825683594 88.4416732788086 284.8500671386719 91.94721221923828 289.7650146484375" stroke-width="4.137100696563721" fill="none" stroke="rgb(39, 114, 109)" stroke-opacity="0.19694097" stroke-linecap="round" stroke-linejoin="round"/>
    <path d="M 273.1537170410156 221.76011657714844 C 267.3683166503906 237.63720703125 278.6004943847656 252.9164581298828 260.6394348144531 259.91278076171875" stroke-width="4.101200103759766" fill="none" stroke="rgb(35, 216, 158)" stroke-opacity="0.15972297" stroke-linecap="round" stroke-linejoin="round"/>
    <path d="M 346.73529052734375 310.86456298828125 C 349.0475769042969 306.2763977050781 340.6844177246094 301.8102111816406 350.8858642578125 286.90972900390625 C 348.1747131347656 293.64581298828125 345.24139404296875 310.4014587402344 343.33465576171875 333.1285705566406" stroke-width="4.105461597442627" fill="none" stroke="rgb(130, 183, 53)" stroke-opacity="0.53843707" stroke-linecap="round" stroke-linejoin="round"/>
    <path d="M 185.9539031982422 99.46965789794922 C 178.8577117919922 85.0927963256836 189.0639190673828 84.88618469238281 191.60711669921875 89.0362319946289 C 183.0367889404297 81.65219116210938 182.8138885498047 79.23955535888672 196.81893920898438 63.03791427612305 C 180.7965087890625 60.47462463378906 167.58294677734375 70.02589416503906 189.12152099609375 76.51656341552734" stroke-width="3.6206753253936768" fill="none" stroke="rgb(64, 248, 8)" stroke-opacity="0.7376216" stroke-linecap="round" stroke-linejoin="round"/>
    <path d="M 334.7923278808594 185.02996826171875 C 326.55340576171875 165.56756591796875 337.9508361816406 164.76231384277344 354.1126403808594 166.34129333496094 C 364.5685729980469 159.81265258789062 378.7519836425781 150.71231079101562 360.00103759765625 152.3672637939453" stroke-width="3.6206753253936768" fill="none" stroke="rgb(100, 59, 176)" stroke-opacity="0.17264378" stroke-linecap="round" stroke-linejoin="round"/>
    <path d="M 151.62950134277344 146.17030334472656 C 150.28733825683594 133.84959411621094 141.57501220703125 122.99601745605469 132.6412353515625 127.86605072021484 C 149.3426971435547 146.7147216796875 156.64688110351562 159.48709106445312 148.43814086914062 162.95635986328125" stroke-width="3.6206753253936768" fill="none" stroke="rgb(90, 227, 70)" stroke-opacity="0.36059642" stroke-linecap="round" stroke-linejoin="round"/>
    <path d="M 47.135108947753906 104.33232879638672 C 23.882165908813477 115.98260498046875 32.45576858520508 136.20370483398438 24.755897521972656 154.7839813232422 C 27.632455825805664 146.6916961669922 28.797143936157227 138.7912139892578 43.22557830810547 138.15415954589844 C 29.68391990661621 145.02088928222656 31.219396591186523 130.8791046142578 22.41767692565918 134.41342163085938" stroke-width="3.6206753253936768" fill="none" stroke="rgb(241, 79, 203)" stroke-opacity="0.9431017" stroke-linecap="round" stroke-linejoin="round"/>
    <path d="M 218.13705444335938 84.11833190917969 C 212.85108947753906 89.30674743652344 216.8074493408203 77.37857055664062 213.2970428466797 58.90514373779297" stroke-width="4.140187740325928" fill="none" stroke="rgb(216, 255, 228)" stroke-opacity="0.53693235" stroke-linecap="round" stroke-linejoin="round"/>
    <path d="M 222.0298614501953 332.14959716796875 C 215.60289001464844 310.93914794921875 216.56423950195312 324.1708984375 208.0983123779297 341.3023986816406" stroke-width="4.564361572265625" fill="none" stroke="rgb(35, 179, 32)" stroke-opacity="0.3150112" stroke-linecap="round" stroke-linejoin="round"/>
    <path d="M 3.4132637977600098 45.293766021728516 C 8.061039924621582 50.74306869506836 9.438145637512207 55.1349983215332 6.771693229675293 66.6611328125 C 14.72101879119873 76.73867797851562 3.23956036567688 77.27450561523438 10.4389066696167 79.78884887695312" stroke-width="3.6206753253936768" fill="none" stroke="rgb(98, 42, 21)" stroke-opacity="0.6093639" stroke-linecap="round" stroke-linejoin="round"/>
    <path d="M 277.0867004394531 93.60787963867188 C 300.5652770996094 76.39141082763672 296.57159423828125 79.36968231201172 306.1348571777344 101.39509582519531" stroke-width="4.105555534362793" fill="none" stroke="rgb(92, 33, 0)" stroke-opacity="0.5691247" stroke-linecap="round" stroke-linejoin="round"/>
    <path d="M 107.27518463134766 58.301326751708984 C 102.88043975830078 60.24796676635742 105.71116638183594 61.40000915527344 98.8737564086914 79.40864562988281" stroke-width="3.6206753253936768" fill="none" stroke="rgb(190, 199, 98)" stroke-opacity="0.16976935" stroke-linecap="round" stroke-linejoin="round"/>
    <path d="M 239.55519104003906 97.56889343261719 C 247.90394592285156 92.8699951171875 240.6140899658203 99.31951904296875 229.02374267578125 91.45922088623047 C 230.6058349609375 104.28109741210938 218.0377197265625 103.39773559570312 233.29066467285156 83.35147857666016 C 248.7081298828125 85.3080825805664 233.02943420410156 102.6568374633789 243.86474609375 95.32815551757812" stroke-width="3.6206753253936768" fill="none" stroke="rgb(222, 192, 98)" stroke-opacity="0.30115432" stroke-linecap="round" stroke-linejoin="round"/>
    <path d="M 62.37199020385742 376.4740295410156 C 63.9352912902832 352.086669921875 52.87013244628906 361.457275390625 48.620361328125 373.083251953125" stroke-width="3.8200178146362305" fill="none" stroke="rgb(152, 123, 42)" stroke-opacity="0.7809159" stroke-linecap="round" stroke-linejoin="round"/>
    <path d="M 132.3423614501953 117.89228820800781 C 140.2144012451172 126.13695526123047 145.05410766601562 106.13633728027344 145.77523803710938 118.72624206542969 C 144.93809509277344 123.35640716552734 141.1488800048828 132.6622772216797 147.8909912109375 149.27548217773438 C 142.69398498535156 159.96876525878906 153.45025634765625 171.11029052734375 139.4431915283203 172.31236267089844" stroke-width="4.565889835357666" fill="none" stroke="rgb(18, 128, 22)" stroke-opacity="0.8498504" stroke-linecap="round" stroke-linejoin="round"/>
    <path d="M 386.34808349609375 127.5825424194336 C 367.035888671875 139.3957061767578 376.5652160644531 155.77268981933594 372.8219909667969 155.31121826171875" stroke-width="4.189240455627441" fill="none" stroke="rgb(210, 249, 134)" stroke-opacity="0.9581285" stroke-linecap="round" stroke-linejoin="round"/>
    <path d="M 163.27670288085938 253.79342651367188 C 173.65167236328125 228.94068908691406 176.42550659179688 221.7090606689453 199.06138610839844 218.61886596679688 C 184.9331817626953 225.62872314453125 183.89295959472656 239.13739013671875 193.60934448242188 251.53138732910156" stroke-width="3.6206753253936768" fill="none" stroke="rgb(161, 184, 126)" stroke-opacity="0.5005011" stroke-linecap="round" stroke-linejoin="round"/>
    <path d="M 100.2621078491211 201.1205596923828 C 109.91280364990234 180.46905517578125 103.35103607177734 195.65928649902344 118.20818328857422 184.95115661621094 C 123.57625579833984 202.90338134765625 118.68671417236328 199.22518920898438 111.25048065185547 210.1891326904297" stroke-width="4.001854419708252" fill="none" stroke="rgb(151, 227, 198)" stroke-opacity="0.83866113" stroke-linecap="round" stroke-linejoin="round"/>
    <path d="M 26.39289665222168 19.622995376586914 C 31.24698829650879 28.338756561279297 47.71858596801758 42.099151611328125 62.25249099731445 52.15472412109375 C 70.19974517822266 56.390106201171875 71.15805053710938 49.09830093383789 74.83802795410156 46.46739959716797" stroke-width="4.298506736755371" fill="none" stroke="rgb(179, 203, 54)" stroke-opacity="0.6401242" stroke-linecap="round" stroke-linejoin="round"/>
    <path d="M 380.6533508300781 323.962646484375 C 392.33074951171875 326.62860107421875 414.6575012207031 317.15673828125 416.9158630371094 312.4891662597656" stroke-width="3.6206753253936768" fill="none" stroke="rgb(101, 198, 205)" stroke-opacity="0.24710174" stroke-linecap="round" stroke-linejoin="round"/>
    <path d="M 267.51422119140625 309.2215881347656 C 271.9153137207031 314.5045471191406 262.01422119140625 303.0823059082031 269.0294189453125 321.1352844238281 C 277.56878662109375 335.3426818847656 279.3437194824219 353.39715576171875 261.23052978515625 356.589111328125 C 259.4101867675781 371.3126220703125 256.6826477050781 355.27923583984375 271.07354736328125 361.1431884765625" stroke-width="3.6206753253936768" fill="none" stroke="rgb(150, 125, 46)" stroke-opacity="0.4556241" stroke-linecap="round" stroke-linejoin="round"/>
    <path d="M 117.42813110351562 176.06253051757812 C 124.31527709960938 193.6861572265625 133.61764526367188 189.9755401611328 128.74513244628906 191.21829223632812" stroke-width="3.6206753253936768" fill="none" stroke="rgb(116, 153, 15)" stroke-opacity="0.34744218" stroke-linecap="round" stroke-linejoin="round"/>
    <path d="M 314.72235107421875 388.2443542480469 C 305.4657287597656 374.72039794921875 300.5386962890625 393.9881591796875 303.8917236328125 407.0729064941406 C 321.7958679199219 414.7533264160156 315.44000244140625 419.8898010253906 320.66888427734375 418.361328125 C 316.146240234375 416.3778381347656 312.8015441894531 435.5381164550781 315.7310485839844 448.0870056152344" stroke-width="3.6206753253936768" fill="none" stroke="rgb(144, 99, 125)" stroke-opacity="0.491068" stroke-linecap="round" stroke-linejoin="round"/>
    <path d="M 106.16329956054688 200.64752197265625 C 124.31240844726562 196.3593292236328 130.12001037597656 210.59103393554688 145.0104217529297 220.33108520507812 C 158.04063415527344 216.58140563964844 143.21046447753906 196.5303192138672 163.27146911621094 177.55210876464844 C 145.66897583007812 191.02413940429688 163.3653106689453 190.8230438232422 183.6936798095703 172.84413146972656" stroke-width="3.6206753253936768" fill="none" stroke="rgb(129, 112, 110)" stroke-opacity="0.028279569" stroke-linecap="round" stroke-linejoin="round"/>
    <path d="M 361.9662170410156 310.1924743652344 C 352.5413513183594 316.9862976074219 372.562255859375 303.9971923828125 365.9198303222656 286.45867919921875" stroke-width="4.046743392944336" fill="none" stroke="rgb(145, 163, 223)" stroke-opacity="0.90202" stroke-linecap="round" stroke-linejoin="round"/>
    <path d="M 261.6313781738281 300.71954345703125 C 241.3614501953125 308.0508117675781 236.63685607910156 310.8973693847656 230.7899627685547 335.572021484375" stroke-width="4.437881946563721" fill="none" stroke="rgb(190, 84, 48)" stroke-opacity="0.34222454" stroke-linecap="round" stroke-linejoin="round"/>
    <path d="M 300.9797668457031 173.9188995361328 C 289.97216796875 168.29750061035156 275.3757019042969 171.82273864746094 291.2471008300781 155.97080993652344 C 305.72906494140625 164.92213439941406 288.8544006347656 151.5806121826172 299.5465393066406 136.62393188476562 C 279.393798828125 148.82191467285156 268.8424987792969 135.87335205078125 255.69906616210938 139.97927856445312" stroke-width="4.657217979431152" fill="none" stroke="rgb(204, 64, 102)" stroke-opacity="0.55536854" stroke-linecap="round" stroke-linejoin="round"/>
  </g>
</svg>
