<?xml version="1.0" ?>
<svg xmlns="http://www.w3.org/2000/svg" version="1.1" width="1104.0" height="1104.0">
  <defs/>
  <g>
    <path d="M 53.91206741333008 35.50200653076172 C 53.61705780029297 35.72549819946289 58.182159423828125 36.224830627441406 61.12312316894531 35.1079216003418 C 59.28586959838867 35.22644805908203 63.36481857299805 36.07135009765625 68.00328063964844 34.86533737182617 C 69.70121765136719 33.63382339477539 70.888427734375 33.90983963012695 72.25321960449219 35.473209381103516 C 72.34142303466797 39.4903450012207 72.12307739257812 41.9792366027832 73.64332580566406 42.49108123779297 C 74.78646850585938 49.71501159667969 75.8691177368164 58.34937286376953 79.48663330078125 62.369407653808594 C 78.71127319335938 64.63177490234375 79.87049102783203 67.3399658203125 79.82084655761719 69.0419921875 C 79.17469024658203 72.75076293945312 80.61620330810547 75.54924774169922 80.72746276855469 77.80193328857422 C 80.48878479003906 73.38475799560547 79.67826843261719 73.73678588867188 77.2730484008789 74.27062225341797 C 71.14605712890625 76.25776672363281 69.4870376586914 76.3210678100586 65.33318328857422 77.17816162109375 C 67.3687973022461 77.27237701416016 63.178749084472656 76.54258728027344 55.528865814208984 77.084716796875 C 51.542205810546875 77.94903564453125 49.74000549316406 77.87294006347656 50.86823654174805 75.2148666381836 C 51.03498458862305 67.4722900390625 50.366912841796875 64.57062530517578 51.339691162109375 59.68818664550781 C 50.83883285522461 60.00309753417969 45.627384185791016 58.84276580810547 47.34059524536133 57.424468994140625 C 53.00873565673828 57.846683502197266 56.85395050048828 56.68450927734375 60.23348617553711 56.193321228027344 C 60.36261749267578 56.25510787963867 62.01152801513672 56.55213165283203 63.10994338989258 55.226409912109375 C 62.76266098022461 55.29438018798828 61.97180938720703 58.90664291381836 63.72401809692383 63.254249572753906" stroke-width="1.4082350730895996" fill="none" stroke="rgb(63, 0, 1)" stroke-opacity="0.93685323" stroke-linecap="round" stroke-linejoin="round"/>
    <path d="M 64.35247802734375 82.61095428466797 C 61.46355056762695 74.84014892578125 65.10507202148438 75.74813842773438 72.73884582519531 75.98407745361328 C 74.08918762207031 74.62509155273438 74.63602447509766 76.08838653564453 76.2724380493164 79.07279968261719 C 74.25151824951172 78.87125396728516 76.26275634765625 82.43650817871094 76.39789581298828 90.10730743408203" stroke-width="2.3759350776672363" fill="none" stroke="rgb(160, 0, 235)" stroke-opacity="0.8155566" stroke-linecap="round" stroke-linejoin="round"/>
    <path d="M 60.13959884643555 36.664268493652344 C 58.84039306640625 40.077022552490234 56.43572998046875 37.462982177734375 59.8834342956543 39.154151916503906" stroke-width="1.0892857313156128" fill="none" stroke="rgb(49, 86, 128)" stroke-opacity="0.56199807" stroke-linecap="round" stroke-linejoin="round"/>
    <path d="M 66.05232238769531 59.24033737182617 C 68.9919204711914 64.26934814453125 70.01488494873047 65.33108520507812 66.93109130859375 66.6310043334961" stroke-width="1.4209386110305786" fill="none" stroke="rgb(110, 47, 134)" stroke-opacity="0.19280928" stroke-linecap="round" stroke-linejoin="round"/>
    <path d="M 60.39872360229492 32.61008834838867 C 53.171207427978516 31.02756118774414 53.039642333984375 34.05351257324219 54.72332000732422 34.04216003417969" stroke-width="1.0892857313156128" fill="none" stroke="rgb(98, 61, 173)" stroke-opacity="0.34022394" stroke-linecap="round" stroke-linejoin="round"/>
    <path d="M 53.59832000732422 37.12940979003906 C 57.68119430541992 34.29247283935547 57.236446380615234 35.05331802368164 58.44254684448242 41.03268051147461 C 65.09050750732422 39.04341125488281 69.04750061035156 39.802886962890625 70.95793914794922 37.61341094970703" stroke-width="1.3844929933547974" fill="none" stroke="rgb(171, 159, 89)" stroke-opacity="0.9323808" stroke-linecap="round" stroke-linejoin="round"/>
    <path d="M 55.07720947265625 36.5749397277832 C 57.48328399658203 36.3007926940918 57.11341094970703 34.775917053222656 53.579341888427734 42.15269470214844" stroke-width="1.4302088022232056" fill="none" stroke="rgb(134, 240, 154)" stroke-opacity="0.20734116" stroke-linecap="round" stroke-linejoin="round"/>
    <path d="M 52.24270248413086 71.6731948852539 C 50.17013168334961 76.98910522460938 54.62995147705078 81.97750091552734 54.662696838378906 87.71953582763672 C 54.167747497558594 82.41773986816406 51.94767379760742 85.08285522460938 45.356529235839844 83.5340576171875" stroke-width="1.7210240364074707" fill="none" stroke="rgb(217, 255, 232)" stroke-opacity="0.8514769" stroke-linecap="round" stroke-linejoin="round"/>
    <path d="M 72.5031967163086 44.132080078125 C 72.959228515625 42.55061721801758 67.78506469726562 41.10554504394531 65.15469360351562 41.9753303527832 C 63.88842010498047 50.207176208496094 67.88054656982422 52.005741119384766 65.72797393798828 50.05204772949219 C 67.34883880615234 56.897361755371094 70.32124328613281 57.767059326171875 63.87210464477539 59.65013885498047" stroke-width="1.2815861701965332" fill="none" stroke="rgb(97, 240, 198)" stroke-opacity="0.7922883" stroke-linecap="round" stroke-linejoin="round"/>
    <path d="M 61.723636627197266 60.95583724975586 C 63.9923210144043 62.484718322753906 65.43064880371094 65.01905822753906 71.2007064819336 62.515892028808594 C 69.4310302734375 61.23518371582031 69.77153015136719 63.05855941772461 72.5759506225586 62.57978820800781" stroke-width="1.217638611793518" fill="none" stroke="rgb(183, 116, 90)" stroke-opacity="0.8749962" stroke-linecap="round" stroke-linejoin="round"/>
    <path d="M 69.16557312011719 36.14605712890625 C 71.05963134765625 35.50605010986328 68.17584228515625 38.34925842285156 72.7265853881836 37.795806884765625 C 66.9410171508789 33.14680480957031 64.24847412109375 28.181427001953125 62.117408752441406 30.11660385131836 C 68.77548217773438 31.02376365661621 60.1994514465332 31.60379409790039 57.827857971191406 32.58769607543945" stroke-width="1.4220733642578125" fill="none" stroke="rgb(131, 134, 109)" stroke-opacity="0.9386168" stroke-linecap="round" stroke-linejoin="round"/>
    <path d="M 55.065696716308594 35.34004592895508 C 45.812278747558594 34.082740783691406 42.4107551574707 38.639442443847656 46.61911392211914 44.16513442993164 C 50.67341613769531 47.72517776489258 55.469356536865234 44.159454345703125 50.83732223510742 46.32326889038086 C 55.21882629394531 44.90700912475586 51.610801696777344 49.058753967285156 53.25227355957031 48.337013244628906" stroke-width="1.0892857313156128" fill="none" stroke="rgb(93, 57, 255)" stroke-opacity="0.08597733" stroke-linecap="round" stroke-linejoin="round"/>
    <path d="M 57.663108825683594 39.462337493896484 C 59.809688568115234 42.902191162109375 57.420379638671875 48.49306106567383 61.88169860839844 41.55691146850586 C 62.13043212890625 44.2750129699707 60.3779411315918 48.0145378112793 62.459815979003906 48.90076446533203" stroke-width="2.6323556900024414" fill="none" stroke="rgb(246, 35, 38)" stroke-opacity="0.9662112" stroke-linecap="round" stroke-linejoin="round"/>
    <path d="M 53.86370086669922 39.9185676574707 C 54.875640869140625 32.277225494384766 52.990379333496094 36.10797119140625 54.829532623291016 30.61174964904785 C 57.69101333618164 27.2410945892334 56.786216735839844 28.402448654174805 58.8154296875 27.09577178955078 C 64.26394653320312 22.012176513671875 64.54855346679688 22.852203369140625 59.36648178100586 20.774412155151367" stroke-width="1.0892857313156128" fill="none" stroke="rgb(177, 184, 85)" stroke-opacity="0.7002647" stroke-linecap="round" stroke-linejoin="round"/>
    <path d="M 63.76956558227539 60.39753341674805 C 57.464637756347656 61.52375030517578 54.91050338745117 57.96615219116211 51.86316680908203 60.89179611206055 C 59.06817626953125 63.02268981933594 61.514915466308594 65.79652404785156 60.74897766113281 70.1341552734375" stroke-width="2.3996856212615967" fill="none" stroke="rgb(93, 35, 81)" stroke-opacity="0.60936964" stroke-linecap="round" stroke-linejoin="round"/>
    <path d="M 62.6492805480957 59.379878997802734 C 64.91739654541016 57.566673278808594 64.18202209472656 63.25834655761719 64.38460540771484 60.76137924194336 C 63.105403900146484 65.42520904541016 65.99520874023438 71.12762451171875 72.22866821289062 69.09905242919922" stroke-width="1.398686170578003" fill="none" stroke="rgb(160, 110, 110)" stroke-opacity="0.34389842" stroke-linecap="round" stroke-linejoin="round"/>
    <path d="M 64.03443908691406 65.94023895263672 C 59.55289077758789 65.73926544189453 59.95061111450195 69.69630432128906 66.96072387695312 68.64232635498047 C 71.92809295654297 69.68771362304688 69.66748046875 66.4946517944336 60.99967575073242 63.86306381225586" stroke-width="1.747651219367981" fill="none" stroke="rgb(4, 247, 157)" stroke-opacity="0.8008504" stroke-linecap="round" stroke-linejoin="round"/>
    <path d="M 104.76367950439453 95.44694519042969 C 106.08290100097656 99.81501770019531 106.3916015625 101.2302474975586 96.70109558105469 99.44064331054688" stroke-width="1.0892857313156128" fill="none" stroke="rgb(103, 194, 155)" stroke-opacity="0.2513392" stroke-linecap="round" stroke-linejoin="round"/>
    <path d="M 48.15483093261719 26.935258865356445 C 47.61212158203125 24.56157875061035 48.122310638427734 31.4224910736084 44.464195251464844 29.911027908325195 C 38.17705535888672 31.54411506652832 34.36048126220703 33.02796936035156 34.83802032470703 36.115089416503906" stroke-width="1.0892857313156128" fill="none" stroke="rgb(159, 84, 112)" stroke-opacity="0.22708656" stroke-linecap="round" stroke-linejoin="round"/>
    <path d="M 111.8172836303711 6.046337604522705 C 111.91356658935547 11.228455543518066 110.80278015136719 11.813827514648438 110.32917785644531 14.525784492492676 C 105.84847259521484 7.503051280975342 103.23150634765625 5.136480331420898 107.2225112915039 4.0907487869262695 C 107.7086410522461 -1.6410603523254395 107.61161804199219 3.5780951976776123 101.01592254638672 5.692928791046143" stroke-width="1.0892857313156128" fill="none" stroke="rgb(242, 180, 204)" stroke-opacity="0.37344143" stroke-linecap="round" stroke-linejoin="round"/>
    <path d="M 68.6168212890625 56.104434967041016 C 67.14248657226562 60.05136489868164 69.3287582397461 55.74317932128906 62.093719482421875 54.12748336791992 C 63.0303955078125 59.109249114990234 64.94792938232422 61.995819091796875 70.14787292480469 58.76984786987305" stroke-width="1.7689100503921509" fill="none" stroke="rgb(62, 249, 142)" stroke-opacity="0.7824043" stroke-linecap="round" stroke-linejoin="round"/>
    <path d="M 83.63434600830078 28.110139846801758 C 82.55791473388672 22.713457107543945 83.24687957763672 22.60529327392578 86.04659271240234 16.9714298248291 C 90.82825469970703 14.872867584228516 92.30255889892578 17.545490264892578 91.86361694335938 21.940412521362305" stroke-width="1.0892857313156128" fill="none" stroke="rgb(130, 59, 69)" stroke-opacity="0.482657" stroke-linecap="round" stroke-linejoin="round"/>
    <path d="M 75.88146209716797 75.68148040771484 C 79.71088409423828 73.90052032470703 82.57257080078125 77.88258361816406 86.5470962524414 71.81340789794922 C 90.77313232421875 77.38633728027344 87.05657958984375 79.6044692993164 88.71167755126953 72.07498168945312" stroke-width="1.8991217613220215" fill="none" stroke="rgb(239, 90, 208)" stroke-opacity="0.6479142" stroke-linecap="round" stroke-linejoin="round"/>
    <path d="M 86.90632629394531 57.3968391418457 C 89.58192443847656 52.63990783691406 88.41629791259766 52.74490737915039 90.53894805908203 49.134521484375 C 91.85444641113281 56.66398239135742 89.78842163085938 48.788726806640625 91.83606719970703 47.42763137817383" stroke-width="1.1986417770385742" fill="none" stroke="rgb(220, 255, 32)" stroke-opacity="0.33183455" stroke-linecap="round" stroke-linejoin="round"/>
    <path d="M 26.16617774963379 108.87577056884766 C 23.289583206176758 103.41035461425781 27.68166732788086 106.5009536743164 27.150358200073242 102.17916870117188 C 28.09925651550293 91.91571807861328 27.88150978088379 86.38420104980469 24.24997329711914 89.85199737548828" stroke-width="1.0892857313156128" fill="none" stroke="rgb(196, 180, 186)" stroke-opacity="0.02445215" stroke-linecap="round" stroke-linejoin="round"/>
    <path d="M 31.85934066772461 105.52725219726562 C 25.406930923461914 108.5113296508789 23.412776947021484 113.68145751953125 19.291608810424805 114.7047348022461 C 23.071645736694336 111.11752319335938 24.07243537902832 108.8005599975586 21.395675659179688 111.98461151123047 C 15.722269058227539 115.13887786865234 13.50907039642334 116.63216400146484 21.020751953125 116.09627532958984" stroke-width="1.0892857313156128" fill="none" stroke="rgb(202, 248, 3)" stroke-opacity="0.14988257" stroke-linecap="round" stroke-linejoin="round"/>
    <path d="M 82.09282684326172 90.10819244384766 C 85.03128051757812 92.8421859741211 88.06761932373047 94.50574493408203 84.75289154052734 87.97779846191406" stroke-width="1.0892857313156128" fill="none" stroke="rgb(127, 255, 209)" stroke-opacity="0.18665382" stroke-linecap="round" stroke-linejoin="round"/>
    <path d="M 67.54146575927734 111.63259887695312 C 72.78944396972656 116.01676177978516 75.58250427246094 111.47296142578125 72.75304412841797 116.3067398071289 C 73.85070037841797 115.10550689697266 78.71245574951172 115.72025299072266 79.26310729980469 116.44986724853516" stroke-width="1.8145869970321655" fill="none" stroke="rgb(186, 34, 229)" stroke-opacity="0.17955773" stroke-linecap="round" stroke-linejoin="round"/>
    <path d="M 116.06127166748047 39.096797943115234 C 120.14222717285156 39.69426345825195 123.20036315917969 36.49058151245117 127.09512329101562 30.49517059326172 C 123.63289642333984 29.13248062133789 122.1827163696289 23.657642364501953 125.72923278808594 19.177650451660156" stroke-width="1.0892857313156128" fill="none" stroke="rgb(13, 252, 191)" stroke-opacity="0.69056296" stroke-linecap="round" stroke-linejoin="round"/>
    <path d="M 50.24363708496094 81.98981475830078 C 51.8017463684082 78.29141998291016 51.465877532958984 82.35659790039062 47.87022018432617 87.19095611572266" stroke-width="2.2036824226379395" fill="none" stroke="rgb(225, 34, 87)" stroke-opacity="1.0" stroke-linecap="round" stroke-linejoin="round"/>
    <path d="M 88.5853042602539 78.44041442871094 C 89.56258392333984 85.15288543701172 92.64718627929688 88.44902038574219 89.4522476196289 84.53546905517578 C 93.56062316894531 82.33920288085938 87.8342514038086 85.92335510253906 92.29298400878906 83.8639907836914 C 93.91779327392578 90.99947357177734 96.57215881347656 92.21700286865234 95.52597045898438 88.89691162109375" stroke-width="1.3885477781295776" fill="none" stroke="rgb(107, 0, 218)" stroke-opacity="0.40754446" stroke-linecap="round" stroke-linejoin="round"/>
    <path d="M 104.7813491821289 35.479881286621094 C 105.77655792236328 43.758766174316406 106.06484985351562 47.38077163696289 111.68029022216797 50.48506164550781" stroke-width="1.0892857313156128" fill="none" stroke="rgb(187, 70, 76)" stroke-opacity="0.7009458" stroke-linecap="round" stroke-linejoin="round"/>
    <path d="M 100.98352813720703 70.19485473632812 C 101.24249267578125 75.39997863769531 107.77558135986328 76.1856918334961 110.2564468383789 78.65938568115234" stroke-width="1.157979130744934" fill="none" stroke="rgb(162, 177, 78)" stroke-opacity="0.17837054" stroke-linecap="round" stroke-linejoin="round"/>
  </g>
</svg>
