<?xml version="1.0" ?>
<svg xmlns="http://www.w3.org/2000/svg" version="1.1" width="870.0" height="870.0">
  <defs/>
  <g>
    <path d="M 244.40609741210938 388.75390625 C 241.7402801513672 389.1725769042969 244.15061950683594 389.8841857910156 245.70631408691406 388.5574035644531 C 243.5413055419922 389.6664123535156 238.8100128173828 390.76715087890625 234.0921173095703 391.10760498046875 C 232.72943115234375 388.4996643066406 234.2598114013672 387.6381530761719 232.8834228515625 378.6493835449219 C 238.03326416015625 364.4962463378906 243.9921112060547 363.4123229980469 247.8870849609375 361.4693298339844 C 246.7894287109375 358.76080322265625 244.34927368164062 359.3431091308594 242.9677276611328 358.73236083984375 C 243.03106689453125 356.3779296875 241.31863403320312 354.57659912109375 236.64280700683594 355.915771484375 C 236.4323272705078 355.59759521484375 236.80758666992188 354.2362976074219 231.18209838867188 349.2969970703125 C 212.49038696289062 359.546875 212.81382751464844 359.0104675292969 216.63577270507812 358.62591552734375 C 219.38058471679688 342.9763488769531 218.95266723632812 345.29815673828125 217.821533203125 358.5726013183594 C 220.56687927246094 359.78765869140625 220.7858428955078 356.5172119140625 227.662841796875 342.91259765625 C 229.47723388671875 342.4272155761719 233.7128448486328 338.630615234375 232.73912048339844 329.3883972167969 C 228.0591278076172 331.40203857421875 226.57333374023438 332.7852478027344 220.68865966796875 342.7297058105469 C 216.821533203125 340.290771484375 213.25868225097656 332.5329284667969 215.3412628173828 322.5920715332031 C 219.03866577148438 318.9961853027344 217.4394989013672 312.67535400390625 220.76364135742188 312.5462951660156 C 228.48434448242188 319.5841064453125 225.67391967773438 315.1169128417969 221.34060668945312 305.44024658203125 C 227.28094482421875 307.1112060546875 229.33380126953125 304.86065673828125 230.5408935546875 299.792724609375 C 234.21502685546875 298.8974609375 239.2377166748047 296.2210998535156 238.5818328857422 285.16314697265625 C 251.89993286132812 295.8904724121094 252.30506896972656 291.9211730957031 246.1370849609375 275.88134765625 C 249.68272399902344 275.6026611328125 253.89088439941406 273.8791198730469 258.10577392578125 274.12225341796875 C 261.84283447265625 273.90509033203125 263.9661560058594 273.2491149902344 265.7822570800781 273.1606140136719 C 269.0768737792969 274.1950988769531 273.99755859375 273.1705322265625 286.5485534667969 274.4596862792969 C 285.86566162109375 275.40313720703125 291.65679931640625 274.9100646972656 294.5224914550781 273.4732666015625 C 292.03826904296875 272.8256530761719 298.7155456542969 276.6961669921875 293.4515686035156 268.26141357421875 C 299.92718505859375 262.82965087890625 312.5314636230469 269.4229736328125 331.0556640625 270.394775390625 C 342.4372863769531 270.5002136230469 362.15606689453125 274.0251159667969 364.37908935546875 275.9413146972656 C 361.7942199707031 274.7049255371094 363.4457702636719 274.1233825683594 370.6480407714844 276.44427490234375 C 384.17486572265625 275.2320556640625 396.92376708984375 281.0680847167969 415.482177734375 281.24322509765625 C 441.0325927734375 273.57586669921875 443.89337158203125 279.591796875 445.636962890625 285.4554748535156 C 451.7692565917969 286.51898193359375 459.8870544433594 287.9814147949219 464.35400390625 288.3785705566406 C 474.48828125 287.26837158203125 480.25311279296875 291.5293884277344 488.93988037109375 293.2342529296875 C 496.8916320800781 296.8719177246094 505.0425720214844 301.6074523925781 505.8639831542969 306.1160888671875 C 517.2487182617188 298.9190673828125 526.6846923828125 300.48272705078125 531.9724731445312 300.5111999511719 C 531.5636596679688 313.5246276855469 536.7702026367188 317.5282897949219 538.627197265625 318.1686706542969 C 539.5488891601562 320.4710693359375 539.2022705078125 327.2637023925781 540.5083618164062 327.3413391113281 C 546.2700805664062 327.0184326171875 550.1539916992188 330.47613525390625 554.968505859375 338.9974060058594 C 556.0406494140625 339.9856262207031 557.4772338867188 341.6078796386719 563.3538208007812 343.7590026855469 C 557.340576171875 353.7395935058594 555.5580444335938 356.10955810546875 558.8419189453125 355.1861572265625 C 574.5515747070312 345.5186462402344 576.7530517578125 350.267333984375 580.2344970703125 351.4548034667969 C 585.0092163085938 349.353271484375 586.5537109375 351.0209655761719 577.9741821289062 349.789306640625 C 573.2988891601562 361.66876220703125 580.62109375 370.0583801269531 573.6468505859375 374.52215576171875 C 569.1563720703125 375.61737060546875 569.89990234375 376.8360290527344 571.4462890625 378.26214599609375 C 571.9798583984375 379.9459533691406 573.6963500976562 381.0547790527344 582.5369873046875 374.9222106933594 C 585.6669921875 377.24176025390625 590.8118286132812 381.9032897949219 589.3693237304688 376.11102294921875 C 579.1725463867188 377.0726318359375 588.6088256835938 376.3594970703125 594.357666015625 382.7945251464844 C 598.4219970703125 373.5387878417969 599.873046875 375.6353454589844 605.4998779296875 377.3817138671875 C 608.83642578125 377.3852844238281 610.3006591796875 376.8730773925781 613.0421142578125 375.7879943847656 C 616.3739624023438 374.52886962890625 618.0697021484375 375.02764892578125 622.527587890625 370.9356689453125 C 617.4840087890625 356.42938232421875 618.1240844726562 355.32037353515625 617.3145141601562 354.7146301269531 C 621.9343872070312 363.95501708984375 624.604248046875 365.9972229003906 620.4851684570312 357.832275390625" stroke-width="13.765079498291016" fill="none" stroke="rgb(36, 14, 25)" stroke-opacity="0.71884674" stroke-linecap="round" stroke-linejoin="round"/>
    <path d="M 260.4609069824219 278.4224548339844 C 302.48394775390625 305.6258850097656 289.4216003417969 357.1300048828125 321.1279296875 348.70703125 C 312.2982482910156 324.8575744628906 273.4822998046875 348.3708190917969 266.6403503417969 380.3844909667969 C 277.5203857421875 345.5833740234375 259.96124267578125 310.2715759277344 310.3211364746094 352.1978454589844" stroke-width="12.133160591125488" fill="none" stroke="rgb(37, 14, 47)" stroke-opacity="0.24197818" stroke-linecap="round" stroke-linejoin="round"/>
    <path d="M 230.26705932617188 337.77978515625 C 268.1157531738281 372.4623107910156 285.80084228515625 384.5669250488281 269.9425964355469 349.4971008300781" stroke-width="7.767857074737549" fill="none" stroke="rgb(128, 133, 177)" stroke-opacity="0.17525616" stroke-linecap="round" stroke-linejoin="round"/>
    <path d="M 223.1768341064453 343.8130798339844 C 230.88304138183594 339.20294189453125 233.36590576171875 338.9941711425781 193.34535217285156 330.5744323730469 C 202.23214721679688 297.7074279785156 204.53147888183594 263.4483337402344 235.40370178222656 235.1106414794922" stroke-width="7.767857074737549" fill="none" stroke="rgb(78, 74, 199)" stroke-opacity="0.0072098146" stroke-linecap="round" stroke-linejoin="round"/>
    <path d="M 278.00115966796875 278.6968078613281 C 249.61349487304688 253.55508422851562 289.9457092285156 257.0871276855469 306.5635681152344 232.41342163085938" stroke-width="9.070786476135254" fill="none" stroke="rgb(210, 227, 239)" stroke-opacity="0.18382572" stroke-linecap="round" stroke-linejoin="round"/>
    <path d="M 218.00379943847656 340.6507263183594 C 215.61630249023438 381.7756652832031 226.06793212890625 366.33624267578125 221.01637268066406 362.68658447265625 C 259.80621337890625 377.70611572265625 228.26202392578125 406.4313659667969 179.30824279785156 378.3926696777344" stroke-width="7.767857074737549" fill="none" stroke="rgb(139, 191, 134)" stroke-opacity="0.40967306" stroke-linecap="round" stroke-linejoin="round"/>
    <path d="M 475.64617919921875 303.73980712890625 C 519.1878051757812 326.8334045410156 522.9917602539062 346.164306640625 515.9576416015625 298.497314453125 C 510.2875061035156 304.8504943847656 517.7546997070312 284.6231994628906 513.2172241210938 306.5815124511719" stroke-width="11.319563865661621" fill="none" stroke="rgb(177, 159, 184)" stroke-opacity="0.8580859" stroke-linecap="round" stroke-linejoin="round"/>
    <path d="M 583.5034790039062 351.8334045410156 C 557.4225463867188 340.058349609375 552.2921142578125 298.91668701171875 557.509765625 317.7981262207031 C 580.7688598632812 305.79339599609375 615.27734375 334.6507568359375 617.5527954101562 324.0877990722656" stroke-width="8.219974517822266" fill="none" stroke="rgb(84, 119, 72)" stroke-opacity="0.034559287" stroke-linecap="round" stroke-linejoin="round"/>
    <path d="M 235.62258911132812 369.3149108886719 C 247.28773498535156 337.5807189941406 244.05470275878906 377.1494140625 296.1141662597656 395.8926086425781 C 283.2863464355469 446.8311767578125 290.89398193359375 485.64422607421875 288.108642578125 482.3681640625 C 276.94091796875 473.4280090332031 290.1285095214844 502.2243957519531 306.5265808105469 526.0576782226562" stroke-width="8.209654808044434" fill="none" stroke="rgb(168, 88, 44)" stroke-opacity="0.28099307" stroke-linecap="round" stroke-linejoin="round"/>
    <path d="M 597.8211669921875 374.6051940917969 C 556.9849243164062 366.92547607421875 576.407958984375 380.4771728515625 584.9095458984375 350.6523132324219 C 579.5194702148438 353.2685852050781 581.9913940429688 313.1329650878906 598.9486694335938 329.0993347167969 C 598.957275390625 310.4229736328125 565.1288452148438 324.3609313964844 560.3672485351562 294.9423522949219" stroke-width="7.767857074737549" fill="none" stroke="rgb(77, 31, 107)" stroke-opacity="0.22283345" stroke-linecap="round" stroke-linejoin="round"/>
    <path d="M 548.1467895507812 323.08575439453125 C 565.1783447265625 347.8014831542969 558.2667846679688 338.6150207519531 537.6954345703125 351.849853515625" stroke-width="7.767857074737549" fill="none" stroke="rgb(118, 183, 74)" stroke-opacity="0.0994889" stroke-linecap="round" stroke-linejoin="round"/>
    <path d="M 240.91249084472656 376.18896484375 C 220.21920776367188 366.5726318359375 231.8323516845703 372.9309997558594 243.31175231933594 370.862060546875 C 210.60458374023438 423.2040710449219 189.6964111328125 378.1766662597656 221.810791015625 345.15301513671875 C 187.34158325195312 370.9151306152344 226.86119079589844 370.1893615722656 213.94309997558594 325.97576904296875" stroke-width="7.767857074737549" fill="none" stroke="rgb(208, 89, 135)" stroke-opacity="0.4395316" stroke-linecap="round" stroke-linejoin="round"/>
    <path d="M 228.7165069580078 331.19610595703125 C 253.99359130859375 374.2218933105469 225.8565673828125 382.35357666015625 258.78173828125 389.38165283203125 C 239.75881958007812 377.5804443359375 246.19039916992188 378.53167724609375 263.1126708984375 393.43572998046875" stroke-width="7.767857074737549" fill="none" stroke="rgb(84, 241, 196)" stroke-opacity="0.34137025" stroke-linecap="round" stroke-linejoin="round"/>
    <path d="M 194.2244110107422 357.48095703125 C 183.074462890625 342.3237609863281 139.12380981445312 377.33441162109375 129.59298706054688 372.7496032714844 C 167.4578857421875 379.9808654785156 195.10543823242188 339.65301513671875 189.38339233398438 317.3387451171875" stroke-width="9.430126190185547" fill="none" stroke="rgb(179, 122, 57)" stroke-opacity="0.6341948" stroke-linecap="round" stroke-linejoin="round"/>
    <path d="M 238.47128295898438 235.2078857421875 C 228.9366455078125 266.6373596191406 214.8219451904297 228.38494873046875 214.79159545898438 212.3185577392578 C 204.98068237304688 184.49913024902344 204.32020568847656 174.9176483154297 218.0418243408203 162.84706115722656" stroke-width="7.914823532104492" fill="none" stroke="rgb(154, 28, 8)" stroke-opacity="0.64539987" stroke-linecap="round" stroke-linejoin="round"/>
    <path d="M 236.2876739501953 237.38217163085938 C 278.4853515625 241.99559020996094 288.8978576660156 215.23785400390625 256.7357482910156 213.64950561523438 C 294.02105712890625 229.7757110595703 297.4195861816406 192.0308837890625 321.1236267089844 224.10218811035156 C 364.1794738769531 204.3179931640625 360.20086669921875 243.22584533691406 327.280517578125 283.255615234375" stroke-width="7.767857074737549" fill="none" stroke="rgb(179, 249, 199)" stroke-opacity="0.33857894" stroke-linecap="round" stroke-linejoin="round"/>
    <path d="M 567.0516357421875 305.48333740234375 C 573.7257080078125 313.7966003417969 538.0794067382812 292.8935546875 526.9447021484375 269.0753173828125 C 526.2117919921875 271.9018859863281 509.69384765625 302.0855712890625 500.1416320800781 275.0697021484375" stroke-width="7.767857074737549" fill="none" stroke="rgb(220, 170, 13)" stroke-opacity="0.17467014" stroke-linecap="round" stroke-linejoin="round"/>
    <path d="M 558.1948852539062 302.41290283203125 C 588.096435546875 252.0999755859375 582.6151123046875 271.33282470703125 573.491455078125 274.86602783203125 C 574.4364013671875 280.5279235839844 566.1763916015625 240.66513061523438 569.484619140625 231.41134643554688" stroke-width="7.767857074737549" fill="none" stroke="rgb(34, 206, 74)" stroke-opacity="0.0032386812" stroke-linecap="round" stroke-linejoin="round"/>
    <path d="M 537.2416381835938 357.4690856933594 C 492.5446472167969 353.9404602050781 472.4969177246094 361.4842834472656 461.461669921875 339.7056884765625 C 436.4901123046875 362.68072509765625 426.81622314453125 377.05194091796875 400.0770263671875 370.4141540527344 C 417.6396789550781 393.8604431152344 393.9619445800781 428.60296630859375 410.0215148925781 457.1387634277344" stroke-width="11.766844749450684" fill="none" stroke="rgb(142, 109, 46)" stroke-opacity="0.5591316" stroke-linecap="round" stroke-linejoin="round"/>
    <path d="M 214.97035217285156 337.89996337890625 C 230.1103973388672 334.43853759765625 217.86512756347656 328.7705993652344 243.11434936523438 287.98956298828125 C 214.7406768798828 267.6867980957031 201.18362426757812 285.0956115722656 204.82762145996094 274.71600341796875" stroke-width="7.767857074737549" fill="none" stroke="rgb(17, 63, 5)" stroke-opacity="0.039540432" stroke-linecap="round" stroke-linejoin="round"/>
    <path d="M 226.2863311767578 232.5065460205078 C 209.89476013183594 185.08309936523438 206.06532287597656 213.5786895751953 173.03590393066406 235.41461181640625" stroke-width="7.767857074737549" fill="none" stroke="rgb(213, 115, 123)" stroke-opacity="0.6033719" stroke-linecap="round" stroke-linejoin="round"/>
    <path d="M 269.2953186035156 358.6669921875 C 237.51943969726562 337.066162109375 243.2638702392578 305.705810546875 205.92147827148438 262.09564208984375" stroke-width="7.767857074737549" fill="none" stroke="rgb(191, 36, 198)" stroke-opacity="0.4192457" stroke-linecap="round" stroke-linejoin="round"/>
    <path d="M 306.6305847167969 525.933349609375 C 299.070556640625 496.3623962402344 285.31976318359375 539.3567504882812 308.0834045410156 506.95343017578125 C 298.3015441894531 514.1301879882812 324.359130859375 491.92401123046875 319.70111083984375 525.2997436523438 C 347.8906555175781 534.59130859375 353.0706787109375 530.2447509765625 334.4466857910156 509.4091491699219" stroke-width="8.787684440612793" fill="none" stroke="rgb(27, 62, 213)" stroke-opacity="0.9050084" stroke-linecap="round" stroke-linejoin="round"/>
    <path d="M 311.4672546386719 527.1754150390625 C 327.066650390625 537.4802856445312 349.2311096191406 520.3394165039062 376.521484375 553.293701171875 C 356.88958740234375 560.9708251953125 371.69775390625 574.4755859375 377.4537658691406 568.904296875" stroke-width="8.055140495300293" fill="none" stroke="rgb(76, 221, 58)" stroke-opacity="0.13519777" stroke-linecap="round" stroke-linejoin="round"/>
    <path d="M 522.9878540039062 303.709228515625 C 558.2350463867188 304.23028564453125 533.8051147460938 351.1070251464844 530.181640625 342.181396484375 C 490.7568664550781 357.8896179199219 539.576904296875 321.4420471191406 492.8805847167969 330.0751037597656 C 525.7820434570312 314.5658874511719 482.8834533691406 291.5211181640625 503.02392578125 337.00787353515625" stroke-width="9.73278522491455" fill="none" stroke="rgb(147, 122, 46)" stroke-opacity="0.33188748" stroke-linecap="round" stroke-linejoin="round"/>
    <path d="M 303.40386962890625 345.25238037109375 C 267.0045166015625 400.4822998046875 227.6136474609375 394.668212890625 208.57203674316406 392.0634765625 C 229.146484375 405.04315185546875 263.63995361328125 428.082763671875 229.96348571777344 432.7244873046875" stroke-width="11.381275177001953" fill="none" stroke="rgb(86, 62, 57)" stroke-opacity="0.6463353" stroke-linecap="round" stroke-linejoin="round"/>
    <path d="M 488.873291015625 588.8247680664062 C 518.213623046875 597.2465209960938 522.9412841796875 594.7578735351562 541.2057495117188 603.9508666992188" stroke-width="8.921639442443848" fill="none" stroke="rgb(207, 105, 147)" stroke-opacity="0.4019066" stroke-linecap="round" stroke-linejoin="round"/>
    <path d="M 129.2454833984375 741.9923095703125 C 135.381591796875 704.6727905273438 122.79242706298828 682.4682006835938 80.65875244140625 724.8056030273438" stroke-width="7.767857074737549" fill="none" stroke="rgb(29, 200, 80)" stroke-opacity="0.61458844" stroke-linecap="round" stroke-linejoin="round"/>
    <path d="M 552.6436157226562 252.40447998046875 C 565.5796508789062 206.4759521484375 547.7392578125 191.35169982910156 568.26708984375 222.58026123046875 C 556.9680786132812 222.12667846679688 549.0633544921875 178.09107971191406 546.0165405273438 155.2473602294922 C 530.9481201171875 174.23095703125 512.9036254882812 138.36082458496094 512.8630981445312 117.07270050048828" stroke-width="7.871356964111328" fill="none" stroke="rgb(66, 255, 184)" stroke-opacity="0.6762034" stroke-linecap="round" stroke-linejoin="round"/>
    <path d="M 170.65084838867188 108.07809448242188 C 189.93197631835938 69.72659301757812 161.6769256591797 42.19820785522461 189.678955078125 93.17999267578125 C 202.11727905273438 78.4350357055664 237.28289794921875 78.15565490722656 196.99832153320312 79.099365234375" stroke-width="7.767857074737549" fill="none" stroke="rgb(93, 122, 236)" stroke-opacity="0.8466796" stroke-linecap="round" stroke-linejoin="round"/>
    <path d="M 385.7692565917969 417.24560546875 C 414.6497497558594 409.7349548339844 407.9141540527344 388.20635986328125 387.0928955078125 439.7449035644531 C 379.48651123046875 407.2875061035156 379.6329650878906 397.65277099609375 399.7095642089844 408.810791015625 C 435.717529296875 396.89666748046875 438.30364990234375 401.215576171875 421.4267578125 427.33953857421875" stroke-width="7.767857074737549" fill="none" stroke="rgb(191, 230, 252)" stroke-opacity="0.5058602" stroke-linecap="round" stroke-linejoin="round"/>
    <path d="M 669.2989501953125 38.56608963012695 C 696.9371948242188 26.87447166442871 687.1854858398438 32.95930480957031 692.1322631835938 67.13768768310547 C 654.7876586914062 121.30667877197266 699.1961059570312 91.93537902832031 751.144775390625 124.22262573242188" stroke-width="7.767857074737549" fill="none" stroke="rgb(94, 84, 255)" stroke-opacity="0.3021281" stroke-linecap="round" stroke-linejoin="round"/>
    <path d="M 280.92138671875 194.04786682128906 C 234.361572265625 169.30377197265625 208.2325439453125 200.286865234375 243.41033935546875 227.997802734375 C 224.6256866455078 253.55174255371094 208.68873596191406 291.5878601074219 183.06704711914062 307.8582458496094" stroke-width="10.073957443237305" fill="none" stroke="rgb(227, 255, 131)" stroke-opacity="0.75027555" stroke-linecap="round" stroke-linejoin="round"/>
    <path d="M 453.57373046875 135.7838592529297 C 404.7315673828125 158.56126403808594 407.4827575683594 157.2068634033203 432.95941162109375 187.08416748046875 C 462.75823974609375 173.12237548828125 447.35986328125 189.66488647460938 492.79010009765625 172.91326904296875" stroke-width="10.95175552368164" fill="none" stroke="rgb(150, 193, 123)" stroke-opacity="0.41630504" stroke-linecap="round" stroke-linejoin="round"/>
    <path d="M 485.91845703125 559.5977783203125 C 515.0147094726562 575.5507202148438 550.5110473632812 566.9876098632812 521.0261840820312 553.2867431640625 C 494.5355224609375 523.2537231445312 524.5316162109375 487.0576171875 543.1495361328125 448.5635681152344" stroke-width="7.767857074737549" fill="none" stroke="rgb(112, 175, 41)" stroke-opacity="0.7374299" stroke-linecap="round" stroke-linejoin="round"/>
    <path d="M 411.0982971191406 210.37503051757812 C 441.90557861328125 163.337158203125 465.51702880859375 159.9042205810547 470.3000793457031 168.14158630371094 C 454.29119873046875 164.2264862060547 429.9736633300781 168.89663696289062 401.3899841308594 174.88758850097656 C 369.37066650390625 185.1003875732422 388.49566650390625 159.0312042236328 424.14678955078125 134.05816650390625" stroke-width="10.6917085647583" fill="none" stroke="rgb(34, 228, 0)" stroke-opacity="0.63280797" stroke-linecap="round" stroke-linejoin="round"/>
    <path d="M 31.77836799621582 857.2523193359375 C 58.36186599731445 844.3283081054688 81.73102569580078 835.0866088867188 35.014068603515625 846.4268188476562" stroke-width="10.914003372192383" fill="none" stroke="rgb(147, 211, 181)" stroke-opacity="0.39925715" stroke-linecap="round" stroke-linejoin="round"/>
    <path d="M 684.7380981445312 552.0404663085938 C 719.6255493164062 525.135009765625 750.0279541015625 498.77154541015625 737.180908203125 522.9619750976562 C 749.6805419921875 582.132568359375 711.0669555664062 610.5382080078125 737.0911865234375 620.8257446289062 C 753.8326416015625 575.8251342773438 720.0778198242188 609.36767578125 683.033935546875 573.6049194335938" stroke-width="11.575325012207031" fill="none" stroke="rgb(255, 243, 7)" stroke-opacity="0.19723757" stroke-linecap="round" stroke-linejoin="round"/>
    <path d="M 684.5961303710938 625.1610717773438 C 686.1551513671875 607.0394287109375 701.6507568359375 602.4466552734375 687.592041015625 561.7091064453125 C 685.6487426757812 580.98388671875 659.589111328125 603.2377319335938 660.9515991210938 626.6530151367188" stroke-width="7.767857074737549" fill="none" stroke="rgb(47, 225, 40)" stroke-opacity="0.68661875" stroke-linecap="round" stroke-linejoin="round"/>
    <path d="M 33.331722259521484 243.97988891601562 C 65.10758209228516 268.1427917480469 57.75084686279297 286.5526123046875 99.79336547851562 327.5962219238281 C 55.413936614990234 353.20147705078125 74.58341217041016 365.0032043457031 54.553367614746094 397.9337463378906" stroke-width="9.707539558410645" fill="none" stroke="rgb(137, 252, 64)" stroke-opacity="0.64730334" stroke-linecap="round" stroke-linejoin="round"/>
    <path d="M 622.7938842773438 -5.111282825469971 C 601.9791870117188 -13.738407135009766 566.665771484375 -34.20854187011719 528.2553100585938 -35.25896453857422 C 479.6958923339844 -1.941149353981018 492.7757873535156 -34.17228317260742 495.05364990234375 -75.94584655761719" stroke-width="7.767857074737549" fill="none" stroke="rgb(175, 176, 102)" stroke-opacity="0.7386189" stroke-linecap="round" stroke-linejoin="round"/>
    <path d="M 750.4598388671875 841.530517578125 C 723.2669677734375 832.7720336914062 696.214599609375 808.9404296875 671.8187255859375 782.6693115234375 C 685.1581420898438 766.6959838867188 663.1582641601562 756.6193237304688 652.9046630859375 740.6787719726562 C 620.0146484375 701.237060546875 596.9349975585938 737.087158203125 596.6326293945312 713.8418579101562" stroke-width="8.905735969543457" fill="none" stroke="rgb(123, 232, 215)" stroke-opacity="0.7308323" stroke-linecap="round" stroke-linejoin="round"/>
    <path d="M 239.8917694091797 509.8983154296875 C 215.17355346679688 531.1275634765625 219.50704956054688 551.49267578125 236.442138671875 513.010009765625 C 256.9685363769531 509.83538818359375 291.33770751953125 470.1854553222656 351.03265380859375 480.9337158203125 C 363.38739013671875 522.5693359375 413.9918518066406 549.414794921875 392.16314697265625 522.8162231445312" stroke-width="10.206655502319336" fill="none" stroke="rgb(0, 64, 91)" stroke-opacity="0.22819404" stroke-linecap="round" stroke-linejoin="round"/>
    <path d="M 463.0201110839844 693.630859375 C 425.0834045410156 707.74658203125 422.7912292480469 736.8990478515625 455.9930419921875 741.252685546875 C 430.5649108886719 752.1591186523438 430.0096435546875 780.7227783203125 398.7306823730469 833.3865966796875" stroke-width="7.767857074737549" fill="none" stroke="rgb(74, 234, 87)" stroke-opacity="0.69184285" stroke-linecap="round" stroke-linejoin="round"/>
    <path d="M 643.6447143554688 827.7653198242188 C 626.9981689453125 839.1552734375 643.8665771484375 889.9924926757812 608.88134765625 907.4201049804688 C 612.0725708007812 861.4111328125 626.2952880859375 878.7562255859375 599.6804809570312 878.766357421875" stroke-width="7.767857074737549" fill="none" stroke="rgb(51, 180, 155)" stroke-opacity="0.7280759" stroke-linecap="round" stroke-linejoin="round"/>
    <path d="M 677.97802734375 37.82427215576172 C 650.9609985351562 58.03701400756836 618.2032470703125 63.67228317260742 620.5739135742188 23.009464263916016 C 645.224365234375 36.15196228027344 657.14453125 -20.67843246459961 681.6073608398438 28.747106552124023 C 641.458251953125 16.034156799316406 682.7584228515625 52.44239807128906 722.7571411132812 13.367358207702637" stroke-width="9.32302474975586" fill="none" stroke="rgb(73, 29, 106)" stroke-opacity="0.8203271" stroke-linecap="round" stroke-linejoin="round"/>
    <path d="M 868.424072265625 802.3851928710938 C 855.2833862304688 793.4512329101562 868.6362915039062 849.3367309570312 882.5333251953125 837.5542602539062" stroke-width="9.512796401977539" fill="none" stroke="rgb(225, 142, 64)" stroke-opacity="0.7925565" stroke-linecap="round" stroke-linejoin="round"/>
    <path d="M 437.5395812988281 813.80810546875 C 472.6358337402344 802.0728759765625 449.84228515625 805.8021850585938 456.7027893066406 815.7969360351562 C 430.8290710449219 826.9384765625 405.1319274902344 862.1959838867188 426.3589782714844 909.5150756835938" stroke-width="7.767857074737549" fill="none" stroke="rgb(174, 59, 54)" stroke-opacity="0.05404071" stroke-linecap="round" stroke-linejoin="round"/>
    <path d="M 266.9463806152344 359.7305603027344 C 257.7415771484375 330.6065368652344 269.0115661621094 328.5857849121094 321.51055908203125 320.0568542480469" stroke-width="10.422314643859863" fill="none" stroke="rgb(239, 215, 173)" stroke-opacity="0.390086" stroke-linecap="round" stroke-linejoin="round"/>
    <path d="M 43.25647735595703 847.3156127929688 C 0.7379864454269409 882.3992919921875 -0.642094075679779 881.3851928710938 21.02251434326172 916.2639770507812" stroke-width="8.129071235656738" fill="none" stroke="rgb(32, 172, 33)" stroke-opacity="0.7969474" stroke-linecap="round" stroke-linejoin="round"/>
    <path d="M 78.59483337402344 250.86138916015625 C 75.19834899902344 210.05499267578125 109.34288024902344 230.44874572753906 98.42241668701172 216.0824432373047 C 86.9372787475586 244.5978546142578 111.84355926513672 231.19252014160156 110.40673065185547 277.730712890625" stroke-width="11.240047454833984" fill="none" stroke="rgb(112, 218, 170)" stroke-opacity="0.37663457" stroke-linecap="round" stroke-linejoin="round"/>
  </g>
</svg>
