<?xml version="1.0" ?>
<svg xmlns="http://www.w3.org/2000/svg" version="1.1" width="956.0" height="956.0">
  <defs/>
  <g>
    <path d="M 92.0946273803711 93.3570785522461 C 95.67151641845703 119.20758819580078 95.05915832519531 131.06202697753906 95.94366455078125 147.07366943359375" stroke-width="1.7356772422790527" fill="none" stroke="rgb(109, 109, 109)" stroke-opacity="0.99" stroke-linecap="round" stroke-linejoin="round"/>
    <path d="M 61.24595260620117 136.91452026367188 C 73.35292053222656 129.3408660888672 79.37338256835938 127.98788452148438 94.3573989868164 120.96239471435547 C 104.85555267333984 122.32513427734375 124.1667251586914 122.88191223144531 131.3750457763672 121.07987976074219" stroke-width="1.7356772422790527" fill="none" stroke="rgb(104, 109, 104)" stroke-opacity="1.0" stroke-linecap="round" stroke-linejoin="round"/>
    <path d="M 65.0716552734375 107.23815155029297 C 62.30539321899414 124.03388214111328 59.591636657714844 140.68775939941406 57.753482818603516 158.18612670898438" stroke-width="1.7356772422790527" fill="none" stroke="rgb(143, 143, 148)" stroke-opacity="1.0" stroke-linecap="round" stroke-linejoin="round"/>
    <path d="M 108.82243347167969 109.36363220214844 C 113.2671127319336 134.34671020507812 112.6547622680664 146.20089721679688 113.53926086425781 163.08042907714844" stroke-width="1.7356772422790527" fill="none" stroke="rgb(148, 148, 143)" stroke-opacity="0.99000007" stroke-linecap="round" stroke-linejoin="round"/>
    <path d="M 129.71800231933594 94.83634948730469 C 131.1545867919922 115.11578369140625 132.3365020751953 131.92324829101562 133.56703186035156 149.4208526611328" stroke-width="1.7356772422790527" fill="none" stroke="rgb(143, 148, 143)" stroke-opacity="1.0" stroke-linecap="round" stroke-linejoin="round"/>
    <path d="M 62.11375427246094 136.91455078125 C 76.9376449584961 141.6236114501953 94.9256820678711 139.53773498535156 111.08712768554688 136.96897888183594 C 120.68443298339844 132.77001953125 127.00231170654297 129.2183837890625 132.69114685058594 125.27298736572266" stroke-width="1.7356772422790527" fill="none" stroke="rgb(148, 148, 143)" stroke-opacity="0.99" stroke-linecap="round" stroke-linejoin="round"/>
    <path d="M 115.95948028564453 109.26449584960938 C 116.61654663085938 110.58833312988281 136.33912658691406 91.70452117919922 132.28013610839844 84.31490325927734 C 130.07260131835938 80.24506378173828 96.16139221191406 77.57716369628906 85.35185241699219 82.94441223144531 C 75.5076675415039 88.33584594726562 55.77371597290039 98.96734619140625 58.53413009643555 104.77312469482422 C 61.294944763183594 112.31455993652344 116.51146697998047 109.8049087524414 115.95946502685547 109.26449584960938" stroke-width="1.7356772422790527" fill="none" stroke="rgb(138, 29, 25)" stroke-opacity="1.0" stroke-linecap="round" stroke-linejoin="round"/>
    <path d="M 121.812744140625 87.47772216796875 C 112.22828674316406 87.23360443115234 103.124755859375 86.87592315673828 94.98805236816406 85.45990753173828 C 89.39529418945312 87.79153442382812 74.12161254882812 98.79238891601562 69.69633483886719 100.62859344482422 C 81.94404602050781 102.18457794189453 106.35357666015625 90.3081283569336 116.26274108886719 95.90672302246094" stroke-width="1.7356772422790527" fill="none" stroke="rgb(241, 0, 0)" stroke-opacity="1.0" stroke-linecap="round" stroke-linejoin="round"/>
    <path d="M 70.54975128173828 105.86061096191406 C 100.73624420166016 108.95848083496094 122.67768096923828 106.63617706298828 127.7943115234375 90.75409698486328" stroke-width="1.7356772422790527" fill="none" stroke="rgb(99, 26, 18)" stroke-opacity="1.0" stroke-linecap="round" stroke-linejoin="round"/>
    <path d="M 116.26272583007812 95.90672302246094 C 118.32777404785156 91.3548583984375 108.98896026611328 84.61123657226562 104.81803131103516 90.94184112548828" stroke-width="1.7356772422790527" fill="none" stroke="rgb(235, 178, 128)" stroke-opacity="0.6508171" stroke-linecap="round" stroke-linejoin="round"/>
    <path d="M 129.71827697753906 94.83621978759766 C 137.42926025390625 86.28565979003906 141.97161865234375 85.42298889160156 136.28224182128906 84.54134368896484" stroke-width="1.7356772422790527" fill="none" stroke="rgb(166, 70, 153)" stroke-opacity="0.19870006" stroke-linecap="round" stroke-linejoin="round"/>
    <path d="M 120.94490814208984 87.47772216796875 C 126.31657409667969 80.10929870605469 133.74514770507812 88.57466125488281 130.73580932617188 97.82611083984375 C 126.99987030029297 89.91797637939453 132.67831420898438 80.20457458496094 128.32643127441406 71.84697723388672 C 132.60501098632812 80.4425277709961 141.07452392578125 89.05447387695312 133.06370544433594 84.22283172607422" stroke-width="1.9092447757720947" fill="none" stroke="rgb(198, 18, 103)" stroke-opacity="0.7594995" stroke-linecap="round" stroke-linejoin="round"/>
    <path d="M 109.6902084350586 109.3636245727539 C 101.35501098632812 112.40929412841797 95.43842315673828 104.91516876220703 92.12952423095703 110.1934814453125 C 98.8594970703125 101.27009582519531 94.99275207519531 104.10272979736328 85.92003631591797 98.77112579345703" stroke-width="1.9092446565628052" fill="none" stroke="rgb(191, 169, 53)" stroke-opacity="0.16944468" stroke-linecap="round" stroke-linejoin="round"/>
    <path d="M 130.5072479248047 120.2120590209961 C 139.62184143066406 127.40560913085938 138.43267822265625 136.71371459960938 132.54298400878906 143.61573791503906" stroke-width="1.7356772422790527" fill="none" stroke="rgb(228, 57, 164)" stroke-opacity="0.29534093" stroke-linecap="round" stroke-linejoin="round"/>
    <path d="M 115.3948974609375 95.90673065185547 C 114.00587463378906 92.0458984375 113.47948455810547 83.8775405883789 115.08208465576172 77.26525115966797 C 113.15211486816406 86.27176666259766 115.5556869506836 79.3445816040039 121.031005859375 84.76010131835938" stroke-width="1.7356772422790527" fill="none" stroke="rgb(149, 203, 105)" stroke-opacity="0.9893043" stroke-linecap="round" stroke-linejoin="round"/>
    <path d="M 127.7943115234375 90.75407409667969 C 130.1098175048828 80.37104034423828 124.02051544189453 71.88043212890625 119.59527587890625 63.21446990966797 C 114.71807861328125 68.75853729248047 110.19818115234375 75.20413208007812 120.19915771484375 78.09674072265625 C 122.95437622070312 72.34632110595703 130.65528869628906 82.68428802490234 122.69303131103516 88.31509399414062" stroke-width="1.7356772422790527" fill="none" stroke="rgb(251, 145, 60)" stroke-opacity="0.678263" stroke-linecap="round" stroke-linejoin="round"/>
    <path d="M 57.753482818603516 157.31829833984375 C 67.46333312988281 165.05307006835938 66.55338287353516 165.20851135253906 71.47071075439453 156.45257568359375 C 70.11613464355469 156.7699432373047 76.4478988647461 153.79908752441406 70.38632202148438 156.6011505126953" stroke-width="1.7356772422790527" fill="none" stroke="rgb(156, 190, 218)" stroke-opacity="0.9027787" stroke-linecap="round" stroke-linejoin="round"/>
    <path d="M 122.6930160522461 88.31509399414062 C 131.521728515625 85.18914031982422 127.40675354003906 86.75114440917969 123.5692138671875 84.83782196044922" stroke-width="1.7356772422790527" fill="none" stroke="rgb(91, 102, 120)" stroke-opacity="0.3030715" stroke-linecap="round" stroke-linejoin="round"/>
    <path d="M 122.69303131103516 88.31509399414062 C 113.95482635498047 87.3285903930664 116.68720245361328 78.51583862304688 113.4825210571289 77.80101013183594 C 107.52566528320312 69.40301513671875 115.4218521118164 71.42738342285156 116.898193359375 66.64414978027344 C 110.95507049560547 61.659725189208984 117.0054931640625 64.15507507324219 115.93740844726562 55.781959533691406" stroke-width="1.7356772422790527" fill="none" stroke="rgb(151, 59, 162)" stroke-opacity="0.053945187" stroke-linecap="round" stroke-linejoin="round"/>
    <path d="M 133.06370544433594 84.22282409667969 C 128.4392547607422 76.49735260009766 128.445068359375 70.82678985595703 124.43850708007812 69.8543701171875" stroke-width="1.7356772422790527" fill="none" stroke="rgb(170, 9, 73)" stroke-opacity="0.68402964" stroke-linecap="round" stroke-linejoin="round"/>
    <path d="M 121.03102111816406 84.76007843017578 C 112.92135620117188 85.71380615234375 121.49549102783203 82.60429382324219 115.47803497314453 77.40068817138672 C 117.93630981445312 85.9051284790039 113.15435028076172 87.12519836425781 104.8324203491211 87.99402618408203 C 103.1028823852539 81.01348114013672 98.8912582397461 79.17855834960938 101.03766632080078 86.65386962890625" stroke-width="1.7356772422790527" fill="none" stroke="rgb(57, 192, 140)" stroke-opacity="0.23756382" stroke-linecap="round" stroke-linejoin="round"/>
    <path d="M 86.78781127929688 98.7711181640625 C 88.32682800292969 105.955322265625 90.88261413574219 103.08324432373047 90.701904296875 96.0865478515625" stroke-width="1.9092435836791992" fill="none" stroke="rgb(8, 35, 33)" stroke-opacity="0.56989247" stroke-linecap="round" stroke-linejoin="round"/>
    <path d="M 85.92002868652344 99.63888549804688 C 91.3226318359375 104.3455810546875 87.66397857666016 101.26799774169922 95.50218200683594 100.39905548095703 C 102.62886047363281 98.37471771240234 95.67306518554688 92.4541015625 89.16114807128906 94.0106430053711" stroke-width="1.909244418144226" fill="none" stroke="rgb(143, 206, 228)" stroke-opacity="0.5241867" stroke-linecap="round" stroke-linejoin="round"/>
    <path d="M 132.54298400878906 142.7479248046875 C 123.35868835449219 137.60382080078125 120.33480072021484 143.54052734375 114.45426940917969 134.84759521484375 C 106.02213287353516 136.4022979736328 100.9292984008789 127.24079895019531 105.71513366699219 136.67340087890625" stroke-width="1.9092447757720947" fill="none" stroke="rgb(125, 31, 43)" stroke-opacity="0.8945501" stroke-linecap="round" stroke-linejoin="round"/>
    <path d="M 132.5416717529297 143.61573791503906 C 139.40858459472656 146.13671875 130.56239318847656 141.7623748779297 120.84447479248047 137.9889373779297 C 116.57837677001953 141.14578247070312 121.5135726928711 147.2139434814453 122.64212799072266 144.783935546875" stroke-width="1.7356772422790527" fill="none" stroke="rgb(226, 128, 202)" stroke-opacity="0.022529032" stroke-linecap="round" stroke-linejoin="round"/>
    <path d="M 93.60470581054688 81.40608978271484 C 85.8030776977539 73.64542388916016 94.53671264648438 81.54166412353516 87.5276870727539 79.44969177246094 C 81.77520751953125 75.96404266357422 74.25788879394531 69.185791015625 70.30477142333984 71.62353515625" stroke-width="1.7356772422790527" fill="none" stroke="rgb(71, 22, 105)" stroke-opacity="0.032397844" stroke-linecap="round" stroke-linejoin="round"/>
    <path d="M 44.062461853027344 73.58462524414062 C 36.333404541015625 71.69254302978516 43.517417907714844 79.26859283447266 38.3093147277832 70.08039855957031" stroke-width="1.7356772422790527" fill="none" stroke="rgb(108, 118, 228)" stroke-opacity="0.33384812" stroke-linecap="round" stroke-linejoin="round"/>
    <path d="M 131.67086791992188 99.44302368164062 C 139.23330688476562 102.417724609375 142.5329132080078 105.43490600585938 144.44024658203125 105.62061309814453" stroke-width="1.7356772422790527" fill="none" stroke="rgb(200, 43, 246)" stroke-opacity="0.92637074" stroke-linecap="round" stroke-linejoin="round"/>
    <path d="M 133.02572631835938 131.640380859375 C 141.26194763183594 125.27161407470703 146.3483428955078 134.28504943847656 147.18283081054688 142.1123504638672" stroke-width="1.909244418144226" fill="none" stroke="rgb(10, 117, 119)" stroke-opacity="0.8001409" stroke-linecap="round" stroke-linejoin="round"/>
    <path d="M 114.4087142944336 36.4332160949707 C 119.59654998779297 38.31830978393555 111.18770599365234 44.02573776245117 117.23908233642578 49.871910095214844 C 119.39189147949219 49.078407287597656 123.78721618652344 46.15509796142578 127.29145050048828 38.67178726196289 C 132.63949584960938 35.80434799194336 142.84512329101562 28.192480087280273 133.24130249023438 36.90425109863281" stroke-width="1.7356772422790527" fill="none" stroke="rgb(158, 106, 78)" stroke-opacity="0.8778154" stroke-linecap="round" stroke-linejoin="round"/>
    <path d="M 158.5484619140625 16.972692489624023 C 156.39491271972656 17.12287139892578 157.57757568359375 8.484493255615234 156.5009307861328 3.1380562782287598" stroke-width="1.7356772422790527" fill="none" stroke="rgb(206, 153, 126)" stroke-opacity="0.5886275" stroke-linecap="round" stroke-linejoin="round"/>
    <path d="M 193.3551483154297 192.23428344726562 C 192.50425720214844 192.652587890625 202.06350708007812 192.9226531982422 202.06265258789062 194.9620819091797 C 202.29090881347656 196.22299194335938 201.09835815429688 192.70774841308594 204.31045532226562 194.15455627441406" stroke-width="1.7356772422790527" fill="none" stroke="rgb(244, 86, 25)" stroke-opacity="0.41138327" stroke-linecap="round" stroke-linejoin="round"/>
    <path d="M 37.45048522949219 33.48410415649414 C 37.980918884277344 29.98602294921875 39.7614860534668 25.98727798461914 47.18510055541992 31.233430862426758" stroke-width="1.7356772422790527" fill="none" stroke="rgb(181, 168, 96)" stroke-opacity="0.63991606" stroke-linecap="round" stroke-linejoin="round"/>
    <path d="M 68.0152816772461 188.61700439453125 C 66.81317901611328 196.67027282714844 64.7443618774414 200.5370330810547 71.14601135253906 192.4264373779297 C 78.94136047363281 185.5572052001953 81.24042510986328 177.09263610839844 76.73749542236328 172.4868927001953" stroke-width="1.7356772422790527" fill="none" stroke="rgb(141, 138, 27)" stroke-opacity="0.68536264" stroke-linecap="round" stroke-linejoin="round"/>
    <path d="M 86.35115051269531 175.04595947265625 C 77.57105255126953 182.7041778564453 79.41960906982422 179.810302734375 79.11788177490234 177.45166015625 C 89.23174285888672 184.09751892089844 91.85087585449219 179.7154541015625 99.9852066040039 184.6249542236328" stroke-width="1.9092427492141724" fill="none" stroke="rgb(170, 255, 185)" stroke-opacity="0.32128543" stroke-linecap="round" stroke-linejoin="round"/>
    <path d="M 73.4951400756836 159.42819213867188 C 77.33378601074219 160.23939514160156 82.74723815917969 159.26719665527344 74.67472076416016 168.3258056640625 C 74.43972778320312 173.58285522460938 73.46427917480469 167.34136962890625 78.87588500976562 159.8631591796875 C 73.78681945800781 155.2564239501953 74.30315399169922 152.7354736328125 74.14253234863281 147.56480407714844" stroke-width="1.7356772422790527" fill="none" stroke="rgb(155, 80, 168)" stroke-opacity="0.6789934" stroke-linecap="round" stroke-linejoin="round"/>
    <path d="M 165.3771209716797 177.7561492919922 C 163.6873016357422 183.20132446289062 156.94764709472656 191.60472106933594 152.7188262939453 197.6474609375" stroke-width="1.7356772422790527" fill="none" stroke="rgb(189, 170, 37)" stroke-opacity="0.654613" stroke-linecap="round" stroke-linejoin="round"/>
    <path d="M 23.68772315979004 175.76193237304688 C 16.50747299194336 171.59530639648438 8.95040512084961 180.03359985351562 0.2123098522424698 176.95968627929688 C 1.0569069385528564 177.70118713378906 3.643796920776367 175.70037841796875 2.8179099559783936 182.16909790039062 C 2.5857770442962646 182.8467559814453 -6.890328884124756 191.08700561523438 -10.227782249450684 188.0218963623047" stroke-width="1.909244179725647" fill="none" stroke="rgb(61, 132, 205)" stroke-opacity="0.57952684" stroke-linecap="round" stroke-linejoin="round"/>
    <path d="M 17.876461029052734 160.2115936279297 C 7.824128150939941 167.9650115966797 0.6672887802124023 173.86387634277344 4.571467876434326 178.57504272460938" stroke-width="1.9092446565628052" fill="none" stroke="rgb(71, 178, 34)" stroke-opacity="0.5240503" stroke-linecap="round" stroke-linejoin="round"/>
    <path d="M 158.9265594482422 32.457237243652344 C 149.9222412109375 40.07231140136719 141.8286895751953 47.026153564453125 133.2169189453125 40.26327133178711 C 131.61148071289062 46.64889907836914 124.1559066772461 43.80919647216797 117.79501342773438 49.174922943115234 C 123.4502182006836 42.81586456298828 130.58030700683594 38.872413635253906 133.6566619873047 29.379451751708984" stroke-width="1.7356772422790527" fill="none" stroke="rgb(17, 124, 101)" stroke-opacity="0.90609425" stroke-linecap="round" stroke-linejoin="round"/>
    <path d="M 91.3563232421875 155.3900909423828 C 99.32022094726562 164.44168090820312 102.53428649902344 168.31520080566406 110.5457534790039 166.0087432861328 C 109.6426773071289 158.5141143798828 112.27462005615234 156.3372802734375 104.09007263183594 146.70252990722656 C 111.03608703613281 148.1350860595703 107.93798828125 140.33128356933594 105.11722564697266 148.7863311767578" stroke-width="1.7356772422790527" fill="none" stroke="rgb(12, 59, 222)" stroke-opacity="0.9493608" stroke-linecap="round" stroke-linejoin="round"/>
  </g>
</svg>
