<?xml version="1.0" ?>
<svg xmlns="http://www.w3.org/2000/svg" version="1.1" width="1104.0" height="1104.0">
  <defs/>
  <g>
    <path d="M 33.89883804321289 82.60775756835938 C 57.78539276123047 90.24712371826172 82.75531005859375 87.41825866699219 83.12886810302734 84.17611694335938 C 83.46732330322266 80.8163070678711 58.00468444824219 71.90670776367188 38.124568939208984 79.19825744628906" stroke-width="2.316924571990967" fill="none" stroke="rgb(92, 88, 85)" stroke-opacity="1.0" stroke-linecap="round" stroke-linejoin="round"/>
    <path d="M 59.25175094604492 83.31157684326172 C 58.410797119140625 70.07464599609375 57.42961120605469 56.836360931396484 59.45989990234375 43.05599594116211" stroke-width="3.7218761444091797" fill="none" stroke="rgb(163, 115, 16)" stroke-opacity="1.0" stroke-linecap="round" stroke-linejoin="round"/>
    <path d="M 59.981727600097656 59.86137008666992 C 64.78858184814453 56.163944244384766 69.18399047851562 55.99011993408203 69.86524200439453 56.25553894042969" stroke-width="1.3912429809570312" fill="none" stroke="rgb(163, 112, 20)" stroke-opacity="1.0" stroke-linecap="round" stroke-linejoin="round"/>
    <path d="M 56.84738540649414 66.83118438720703 C 49.94282150268555 63.085540771484375 50.71049118041992 56.664241790771484 46.0275993347168 56.9775505065918" stroke-width="1.4693293571472168" fill="none" stroke="rgb(164, 112, 18)" stroke-opacity="1.0" stroke-linecap="round" stroke-linejoin="round"/>
    <path d="M 60.42612075805664 43.093231201171875 C 60.64960861206055 36.72224044799805 66.53414154052734 33.878475189208984 68.3221206665039 32.380245208740234" stroke-width="1.7941313982009888" fill="none" stroke="rgb(162, 112, 20)" stroke-opacity="1.0" stroke-linecap="round" stroke-linejoin="round"/>
    <path d="M 59.32825469970703 43.14472961425781 C 56.041831970214844 37.907649993896484 54.543636322021484 37.084739685058594 52.54977798461914 36.39570236206055" stroke-width="1.8523434400558472" fill="none" stroke="rgb(164, 112, 18)" stroke-opacity="1.0" stroke-linecap="round" stroke-linejoin="round"/>
    <path d="M 52.57609939575195 36.48561096191406 C 52.5723876953125 36.4510498046875 53.02095413208008 34.44783020019531 52.36648178100586 33.878902435302734 C 51.74837875366211 33.27949905395508 50.55242156982422 32.74982452392578 50.53998947143555 32.77384948730469" stroke-width="1.03125" fill="none" stroke="rgb(163, 113, 18)" stroke-opacity="1.0" stroke-linecap="round" stroke-linejoin="round"/>
    <path d="M 52.55442428588867 36.50398635864258 C 46.39323806762695 38.43327713012695 46.1884880065918 38.80280303955078 45.99256134033203 39.130775451660156" stroke-width="1.03125" fill="none" stroke="rgb(164, 113, 18)" stroke-opacity="1.0" stroke-linecap="round" stroke-linejoin="round"/>
    <path d="M 69.89119720458984 56.38066864013672 C 69.89366149902344 56.382423400878906 69.53128051757812 54.4369010925293 70.20578002929688 53.86701583862305 C 70.72498321533203 53.16065216064453 71.78034210205078 52.491111755371094 71.79410552978516 52.51165008544922" stroke-width="1.03125" fill="none" stroke="rgb(164, 112, 18)" stroke-opacity="1.0" stroke-linecap="round" stroke-linejoin="round"/>
    <path d="M 69.90023040771484 56.388065338134766 C 76.06841278076172 58.296627044677734 76.26264953613281 58.68276596069336 76.36610412597656 59.123199462890625" stroke-width="1.03125" fill="none" stroke="rgb(165, 114, 20)" stroke-opacity="1.0" stroke-linecap="round" stroke-linejoin="round"/>
    <path d="M 68.34246826171875 32.4881591796875 C 68.32787322998047 32.51031494140625 70.26354217529297 33.2432861328125 71.09420776367188 33.045448303222656 C 71.91184997558594 32.6462516784668 72.75264739990234 33.551048278808594 72.7435302734375 33.5545539855957" stroke-width="1.03125" fill="none" stroke="rgb(166, 111, 20)" stroke-opacity="1.0" stroke-linecap="round" stroke-linejoin="round"/>
    <path d="M 59.38067626953125 43.06855010986328 C 59.33702850341797 43.03234100341797 61.034706115722656 40.8050422668457 61.85265350341797 40.47431945800781 C 62.693443298339844 40.27214431762695 64.20933532714844 41.12001419067383 64.36798095703125 40.96841049194336" stroke-width="1.03125" fill="none" stroke="rgb(164, 113, 18)" stroke-opacity="1.0" stroke-linecap="round" stroke-linejoin="round"/>
    <path d="M 68.52741241455078 32.386837005615234 C 69.89913940429688 26.0723934173584 64.1425552368164 29.033855438232422 63.71943283081055 28.762821197509766" stroke-width="1.03125" fill="none" stroke="rgb(163, 113, 19)" stroke-opacity="1.0" stroke-linecap="round" stroke-linejoin="round"/>
    <path d="M 57.00362777709961 52.17074966430664 C 56.896507263183594 52.26336669921875 56.675289154052734 50.06006622314453 56.08643341064453 49.3282356262207 C 55.53685760498047 48.769039154052734 54.46696090698242 48.11425018310547 54.46257400512695 48.10793685913086" stroke-width="1.03125" fill="none" stroke="rgb(164, 113, 18)" stroke-opacity="1.0" stroke-linecap="round" stroke-linejoin="round"/>
    <path d="M 45.997528076171875 56.838401794433594 C 46.011722564697266 56.85616683959961 46.46229934692383 54.91038131713867 45.83623504638672 54.307682037353516 C 45.18906784057617 53.74919509887695 44.239906311035156 52.97113800048828 44.23814392089844 52.93940353393555" stroke-width="1.03125" fill="none" stroke="rgb(164, 113, 19)" stroke-opacity="1.0" stroke-linecap="round" stroke-linejoin="round"/>
    <path d="M 46.140907287597656 56.867897033691406 C 41.597450256347656 60.699424743652344 39.92710494995117 59.36200714111328 39.56708526611328 59.49055480957031" stroke-width="1.03125" fill="none" stroke="rgb(164, 113, 19)" stroke-opacity="1.0" stroke-linecap="round" stroke-linejoin="round"/>
    <path d="M 38.29003143310547 60.26270294189453 C 37.33249282836914 62.74650192260742 35.1126708984375 65.69571685791016 33.00402069091797 66.2799301147461" stroke-width="1.612744927406311" fill="none" stroke="rgb(30, 129, 13)" stroke-opacity="1.0" stroke-linecap="round" stroke-linejoin="round"/>
    <path d="M 38.260704040527344 60.25699234008789 C 31.722259521484375 62.14715576171875 32.91819381713867 66.14154815673828 33.043338775634766 66.16508483886719" stroke-width="1.5743956565856934" fill="none" stroke="rgb(27, 129, 16)" stroke-opacity="1.0" stroke-linecap="round" stroke-linejoin="round"/>
    <path d="M 39.16813278198242 59.84233856201172 C 34.83880615234375 62.69670486450195 33.549644470214844 64.53182983398438 32.913597106933594 66.24488067626953" stroke-width="1.03125" fill="none" stroke="rgb(89, 229, 50)" stroke-opacity="1.0" stroke-linecap="round" stroke-linejoin="round"/>
    <path d="M 38.24730682373047 58.88643264770508 C 35.55657958984375 59.9422607421875 31.870521545410156 60.19145965576172 30.02276039123535 58.96158218383789" stroke-width="1.6123871803283691" fill="none" stroke="rgb(28, 127, 14)" stroke-opacity="1.0" stroke-linecap="round" stroke-linejoin="round"/>
    <path d="M 38.1380615234375 58.935787200927734 C 32.56186294555664 55.08744430541992 30.17036247253418 58.608154296875 30.296131134033203 58.71027755737305" stroke-width="1.5735727548599243" fill="none" stroke="rgb(27, 129, 16)" stroke-opacity="1.0" stroke-linecap="round" stroke-linejoin="round"/>
    <path d="M 39.669761657714844 59.41358947753906 C 36.52549362182617 57.809173583984375 32.19684600830078 57.992305755615234 30.730440139770508 58.673152923583984" stroke-width="1.03125" fill="none" stroke="rgb(90, 231, 52)" stroke-opacity="1.0" stroke-linecap="round" stroke-linejoin="round"/>
    <path d="M 44.6762809753418 38.623294830322266 C 42.15665054321289 39.50179672241211 38.39015579223633 39.635276794433594 36.59677505493164 38.491676330566406" stroke-width="1.6176811456680298" fill="none" stroke="rgb(30, 129, 16)" stroke-opacity="1.0" stroke-linecap="round" stroke-linejoin="round"/>
    <path d="M 44.67406463623047 38.47679138183594 C 38.99957275390625 34.73046112060547 36.7191276550293 38.27107238769531 36.748592376708984 38.37211227416992" stroke-width="1.6262600421905518" fill="none" stroke="rgb(28, 129, 14)" stroke-opacity="1.0" stroke-linecap="round" stroke-linejoin="round"/>
    <path d="M 45.99521255493164 39.242759704589844 C 41.124114990234375 37.660133361816406 38.8892822265625 37.850589752197266 37.248783111572266 38.446109771728516" stroke-width="1.03125" fill="none" stroke="rgb(87, 231, 48)" stroke-opacity="1.0" stroke-linecap="round" stroke-linejoin="round"/>
    <path d="M 44.81977844238281 40.141143798828125 C 44.49284362792969 42.77281188964844 43.050865173339844 46.159542083740234 41.137855529785156 47.20485305786133" stroke-width="1.5755821466445923" fill="none" stroke="rgb(27, 129, 16)" stroke-opacity="1.0" stroke-linecap="round" stroke-linejoin="round"/>
    <path d="M 44.79018020629883 40.1179313659668 C 39.02095413208008 43.5574951171875 41.143646240234375 47.15189743041992 41.26167678833008 47.231746673583984" stroke-width="1.625136375427246" fill="none" stroke="rgb(28, 128, 14)" stroke-opacity="1.0" stroke-linecap="round" stroke-linejoin="round"/>
    <path d="M 45.9796142578125 39.2147216796875 C 42.47127914428711 42.930240631103516 41.6552734375 45.0229377746582 41.43769836425781 46.76259994506836" stroke-width="1.03125" fill="none" stroke="rgb(88, 230, 51)" stroke-opacity="1.0" stroke-linecap="round" stroke-linejoin="round"/>
    <path d="M 42.6994514465332 52.869789123535156 C 40.54146194458008 54.327999114990234 36.96965408325195 55.579158782958984 34.917545318603516 54.988956451416016" stroke-width="1.6169641017913818" fill="none" stroke="rgb(28, 128, 15)" stroke-opacity="1.0" stroke-linecap="round" stroke-linejoin="round"/>
    <path d="M 42.691707611083984 52.87995910644531 C 36.075157165527344 50.85105895996094 34.87521743774414 54.74271774291992 34.90748977661133 54.98834228515625" stroke-width="1.614118218421936" fill="none" stroke="rgb(27, 129, 16)" stroke-opacity="1.0" stroke-linecap="round" stroke-linejoin="round"/>
    <path d="M 44.14356231689453 53.09608840942383 C 39.05817794799805 53.071956634521484 36.88740921020508 53.88593292236328 35.46128845214844 54.81294250488281" stroke-width="1.03125" fill="none" stroke="rgb(89, 229, 50)" stroke-opacity="1.0" stroke-linecap="round" stroke-linejoin="round"/>
    <path d="M 43.39381408691406 51.66865539550781 C 40.794212341308594 51.084739685058594 37.502281188964844 49.306304931640625 36.66697692871094 47.309532165527344" stroke-width="1.6166143417358398" fill="none" stroke="rgb(28, 128, 14)" stroke-opacity="1.0" stroke-linecap="round" stroke-linejoin="round"/>
    <path d="M 43.41552734375 51.66578674316406 C 40.61582946777344 45.49904251098633 36.78800964355469 47.14915466308594 36.70148849487305 47.17515563964844" stroke-width="1.6183230876922607" fill="none" stroke="rgb(27, 130, 13)" stroke-opacity="1.0" stroke-linecap="round" stroke-linejoin="round"/>
    <path d="M 43.640872955322266 52.414649963378906 C 40.486873626708984 48.91299819946289 38.36343765258789 47.54175567626953 36.593772888183594 46.97917175292969" stroke-width="1.03125" fill="none" stroke="rgb(89, 230, 50)" stroke-opacity="1.0" stroke-linecap="round" stroke-linejoin="round"/>
    <path d="M 49.017295837402344 32.42074966430664 C 46.86628341674805 33.996185302734375 43.403018951416016 35.25088119506836 41.334808349609375 34.66990661621094" stroke-width="1.573077917098999" fill="none" stroke="rgb(30, 129, 13)" stroke-opacity="1.0" stroke-linecap="round" stroke-linejoin="round"/>
    <path d="M 49.12080764770508 32.543636322021484 C 42.522823333740234 30.524147033691406 41.41257858276367 34.42374801635742 41.49262619018555 34.673828125" stroke-width="1.5772297382354736" fill="none" stroke="rgb(28, 129, 14)" stroke-opacity="1.0" stroke-linecap="round" stroke-linejoin="round"/>
    <path d="M 50.669464111328125 32.74739074707031 C 45.48979187011719 32.73286056518555 43.4046745300293 33.547630310058594 41.9869384765625 34.46699142456055" stroke-width="1.03125" fill="none" stroke="rgb(89, 230, 51)" stroke-opacity="1.0" stroke-linecap="round" stroke-linejoin="round"/>
    <path d="M 49.72417068481445 31.38677978515625 C 47.133121490478516 30.839664459228516 43.9096794128418 28.99151039123535 43.0190315246582 26.98676300048828" stroke-width="1.6809262037277222" fill="none" stroke="rgb(30, 127, 16)" stroke-opacity="1.0" stroke-linecap="round" stroke-linejoin="round"/>
    <path d="M 49.85036087036133 31.321285247802734 C 47.147159576416016 25.0330810546875 43.31247329711914 26.70362091064453 43.25467300415039 26.86726951599121" stroke-width="1.6134543418884277" fill="none" stroke="rgb(26, 130, 12)" stroke-opacity="1.0" stroke-linecap="round" stroke-linejoin="round"/>
    <path d="M 50.68760681152344 32.62377166748047 C 47.321842193603516 28.781259536743164 45.24847412109375 27.712167739868164 43.67680358886719 27.267854690551758" stroke-width="1.03125" fill="none" stroke="rgb(88, 228, 49)" stroke-opacity="1.0" stroke-linecap="round" stroke-linejoin="round"/>
    <path d="M 62.15409851074219 28.576597213745117 C 60.02349090576172 30.158775329589844 56.538387298583984 31.534706115722656 54.431888580322266 30.858917236328125" stroke-width="1.6125248670578003" fill="none" stroke="rgb(30, 126, 12)" stroke-opacity="1.0" stroke-linecap="round" stroke-linejoin="round"/>
    <path d="M 62.25761795043945 28.65962028503418 C 55.75946044921875 26.678394317626953 54.554500579833984 30.67449188232422 54.61569595336914 30.80202293395996" stroke-width="1.6178138256072998" fill="none" stroke="rgb(30, 129, 13)" stroke-opacity="1.0" stroke-linecap="round" stroke-linejoin="round"/>
    <path d="M 63.72774887084961 28.879926681518555 C 58.53094482421875 28.75275230407715 56.44419479370117 29.55975341796875 55.033180236816406 30.598360061645508" stroke-width="1.03125" fill="none" stroke="rgb(89, 230, 51)" stroke-opacity="1.0" stroke-linecap="round" stroke-linejoin="round"/>
    <path d="M 62.87431335449219 27.551557540893555 C 60.26557159423828 27.00558853149414 57.08572769165039 25.104785919189453 56.21916961669922 23.14972496032715" stroke-width="1.6127259731292725" fill="none" stroke="rgb(27, 129, 16)" stroke-opacity="1.0" stroke-linecap="round" stroke-linejoin="round"/>
    <path d="M 62.82733154296875 27.564292907714844 C 60.17757034301758 21.308969497680664 56.35173416137695 22.971708297729492 56.385589599609375 23.110349655151367" stroke-width="1.5640337467193604" fill="none" stroke="rgb(27, 129, 16)" stroke-opacity="1.0" stroke-linecap="round" stroke-linejoin="round"/>
    <path d="M 63.698429107666016 28.88652992248535 C 60.45636749267578 24.815092086791992 58.487648010253906 23.758169174194336 56.7806396484375 23.454715728759766" stroke-width="1.03125" fill="none" stroke="rgb(89, 229, 50)" stroke-opacity="1.0" stroke-linecap="round" stroke-linejoin="round"/>
    <path d="M 77.2634506225586 60.259742736816406 C 77.16715240478516 62.87371063232422 78.12198638916016 66.44680786132812 79.8362045288086 67.96617126464844" stroke-width="1.5767791271209717" fill="none" stroke="rgb(27, 130, 16)" stroke-opacity="1.0" stroke-linecap="round" stroke-linejoin="round"/>
    <path d="M 77.45594787597656 60.21857833862305 C 82.63687133789062 64.64625549316406 79.89871978759766 67.78565216064453 79.64388275146484 67.98662567138672" stroke-width="1.6175563335418701" fill="none" stroke="rgb(27, 127, 16)" stroke-opacity="1.0" stroke-linecap="round" stroke-linejoin="round"/>
    <path d="M 76.35150909423828 59.1197509765625 C 79.12545776367188 63.491268157958984 79.56932067871094 65.69447326660156 79.6263656616211 67.34456634521484" stroke-width="1.03125" fill="none" stroke="rgb(88, 231, 52)" stroke-opacity="1.0" stroke-linecap="round" stroke-linejoin="round"/>
    <path d="M 78.04996490478516 58.9398307800293 C 79.96871185302734 60.81727981567383 83.21903991699219 62.55264663696289 85.290771484375 62.3123893737793" stroke-width="1.6137198209762573" fill="none" stroke="rgb(27, 127, 13)" stroke-opacity="1.0" stroke-linecap="round" stroke-linejoin="round"/>
    <path d="M 78.05381774902344 59.138858795166016 C 84.76520538330078 57.94164276123047 85.36690521240234 62.05165481567383 85.24837493896484 62.207054138183594" stroke-width="1.5692768096923828" fill="none" stroke="rgb(30, 129, 16)" stroke-opacity="1.0" stroke-linecap="round" stroke-linejoin="round"/>
    <path d="M 76.37793731689453 59.11502456665039 C 81.48715209960938 59.84151840209961 83.43694305419922 60.96764373779297 84.79285430908203 62.04557800292969" stroke-width="1.03125" fill="none" stroke="rgb(88, 228, 52)" stroke-opacity="1.0" stroke-linecap="round" stroke-linejoin="round"/>
    <path d="M 73.73467254638672 34.66669464111328 C 73.7017593383789 37.320106506347656 74.48834228515625 40.92718505859375 76.16393280029297 42.28981018066406" stroke-width="1.6132675409317017" fill="none" stroke="rgb(30, 129, 16)" stroke-opacity="1.0" stroke-linecap="round" stroke-linejoin="round"/>
    <path d="M 73.73771667480469 34.65908432006836 C 78.92558288574219 39.1722526550293 76.18464660644531 42.24705505371094 76.05113983154297 42.38572311401367" stroke-width="1.619883418083191" fill="none" stroke="rgb(26, 126, 17)" stroke-opacity="1.0" stroke-linecap="round" stroke-linejoin="round"/>
    <path d="M 72.7203369140625 33.56488800048828 C 75.52729797363281 37.918983459472656 75.9616470336914 40.11551284790039 75.85153198242188 41.85734176635742" stroke-width="1.03125" fill="none" stroke="rgb(88, 228, 49)" stroke-opacity="1.0" stroke-linecap="round" stroke-linejoin="round"/>
    <path d="M 74.33821868896484 33.55024719238281 C 76.24434661865234 35.43376159667969 79.4898452758789 37.175418853759766 81.63805389404297 36.80954360961914" stroke-width="1.6159188747406006" fill="none" stroke="rgb(28, 127, 14)" stroke-opacity="1.0" stroke-linecap="round" stroke-linejoin="round"/>
    <path d="M 74.43917846679688 33.562217712402344 C 81.15773010253906 32.42267990112305 81.79743194580078 36.51061248779297 81.61941528320312 36.61826705932617" stroke-width="1.5696295499801636" fill="none" stroke="rgb(30, 127, 16)" stroke-opacity="1.0" stroke-linecap="round" stroke-linejoin="round"/>
    <path d="M 72.88948059082031 33.407020568847656 C 77.98458099365234 34.14337158203125 79.94082641601562 35.271400451660156 81.2187271118164 36.45783996582031" stroke-width="1.03125" fill="none" stroke="rgb(90, 228, 52)" stroke-opacity="1.0" stroke-linecap="round" stroke-linejoin="round"/>
    <path d="M 64.602783203125 42.72841262817383 C 63.110137939453125 44.9394416809082 61.86822509765625 48.451087951660156 62.639102935791016 50.49692153930664" stroke-width="1.618238091468811" fill="none" stroke="rgb(30, 129, 16)" stroke-opacity="1.0" stroke-linecap="round" stroke-linejoin="round"/>
    <path d="M 64.45709228515625 42.62687683105469 C 66.71138763427734 49.049373626708984 62.80221176147461 50.48199462890625 62.78513717651367 50.315208435058594" stroke-width="1.5103291273117065" fill="none" stroke="rgb(28, 129, 14)" stroke-opacity="1.0" stroke-linecap="round" stroke-linejoin="round"/>
    <path d="M 64.2029037475586 41.061859130859375 C 64.42280578613281 46.36725616455078 63.73435974121094 48.48637008666992 62.870849609375 49.82249069213867" stroke-width="1.03125" fill="none" stroke="rgb(89, 230, 50)" stroke-opacity="1.0" stroke-linecap="round" stroke-linejoin="round"/>
    <path d="M 65.5604476928711 41.964439392089844 C 66.29068756103516 44.44426345825195 68.34110260009766 47.56221389770508 70.40031433105469 48.2414665222168" stroke-width="1.5730938911437988" fill="none" stroke="rgb(27, 129, 16)" stroke-opacity="1.0" stroke-linecap="round" stroke-linejoin="round"/>
    <path d="M 65.55347442626953 41.97740173339844 C 72.04205322265625 44.401336669921875 70.52496337890625 48.293643951416016 70.41048431396484 48.2543830871582" stroke-width="1.5760117769241333" fill="none" stroke="rgb(30, 129, 13)" stroke-opacity="1.0" stroke-linecap="round" stroke-linejoin="round"/>
    <path d="M 64.21265411376953 41.17878723144531 C 68.3018798828125 44.36738967895508 69.54750061035156 46.19580078125 70.017333984375 47.85270309448242" stroke-width="1.03125" fill="none" stroke="rgb(88, 228, 49)" stroke-opacity="1.0" stroke-linecap="round" stroke-linejoin="round"/>
    <path d="M 72.66511535644531 51.23163986206055 C 72.24003601074219 48.586936950683594 72.64845275878906 44.92020797729492 74.16688537597656 43.37471389770508" stroke-width="1.6227972507476807" fill="none" stroke="rgb(28, 128, 14)" stroke-opacity="1.0" stroke-linecap="round" stroke-linejoin="round"/>
    <path d="M 72.75581359863281 51.29972839355469 C 77.50118255615234 46.40461730957031 74.48213195800781 43.43784713745117 74.3531494140625 43.52875900268555" stroke-width="1.620622992515564" fill="none" stroke="rgb(26, 129, 12)" stroke-opacity="1.0" stroke-linecap="round" stroke-linejoin="round"/>
    <path d="M 71.91352081298828 52.603363037109375 C 74.2598876953125 47.971595764160156 74.4584732055664 45.726871490478516 74.19293212890625 44.00576400756836" stroke-width="1.03125" fill="none" stroke="rgb(89, 230, 50)" stroke-opacity="1.0" stroke-linecap="round" stroke-linejoin="round"/>
    <path d="M 73.34510040283203 52.34254455566406 C 75.07684326171875 50.315738677978516 78.24999237060547 48.40021896362305 80.41563415527344 48.601951599121094" stroke-width="1.614304780960083" fill="none" stroke="rgb(28, 128, 14)" stroke-opacity="1.0" stroke-linecap="round" stroke-linejoin="round"/>
    <path d="M 73.34237670898438 52.320980072021484 C 80.14418029785156 52.77570724487305 80.39582061767578 48.61597442626953 80.40277099609375 48.45411682128906" stroke-width="1.6169379949569702" fill="none" stroke="rgb(28, 127, 14)" stroke-opacity="1.0" stroke-linecap="round" stroke-linejoin="round"/>
    <path d="M 71.8820571899414 52.48369216918945 C 76.82649230957031 51.289920806884766 78.67042541503906 50.02436447143555 79.82295227050781 48.79913330078125" stroke-width="1.03125" fill="none" stroke="rgb(89, 230, 50)" stroke-opacity="1.0" stroke-linecap="round" stroke-linejoin="round"/>
    <path d="M 52.9058723449707 48.02436447143555 C 50.74039840698242 49.47726058959961 47.18191909790039 50.73530578613281 45.12837600708008 50.06740951538086" stroke-width="1.6138509511947632" fill="none" stroke="rgb(28, 128, 14)" stroke-opacity="1.0" stroke-linecap="round" stroke-linejoin="round"/>
    <path d="M 52.904457092285156 48.0256233215332 C 46.29379653930664 46.015995025634766 45.08433151245117 50.00446701049805 45.0981559753418 50.15502166748047" stroke-width="1.6274198293685913" fill="none" stroke="rgb(30, 129, 16)" stroke-opacity="1.0" stroke-linecap="round" stroke-linejoin="round"/>
    <path d="M 54.35904312133789 48.10639190673828 C 49.16913986206055 48.11334991455078 47.07990646362305 48.92697525024414 45.65779495239258 49.94200897216797" stroke-width="1.03125" fill="none" stroke="rgb(89, 229, 50)" stroke-opacity="1.0" stroke-linecap="round" stroke-linejoin="round"/>
    <path d="M 53.51123809814453 47.12439727783203 C 50.911190032958984 46.44650650024414 47.72052764892578 44.683815002441406 47.026241302490234 42.553855895996094" stroke-width="1.5731443166732788" fill="none" stroke="rgb(29, 127, 14)" stroke-opacity="1.0" stroke-linecap="round" stroke-linejoin="round"/>
    <path d="M 53.516929626464844 46.89244079589844 C 50.83489990234375 40.534027099609375 47.01743698120117 42.173927307128906 46.876522064208984 42.292266845703125" stroke-width="1.6792161464691162" fill="none" stroke="rgb(30, 126, 12)" stroke-opacity="1.0" stroke-linecap="round" stroke-linejoin="round"/>
    <path d="M 54.03281021118164 47.768409729003906 C 50.787017822265625 43.70802688598633 48.816349029541016 42.650211334228516 47.11763000488281 42.242027282714844" stroke-width="1.03125" fill="none" stroke="rgb(90, 228, 49)" stroke-opacity="1.0" stroke-linecap="round" stroke-linejoin="round"/>
    <path d="M 38.843997955322266 87.6721420288086 C 59.295536041259766 95.28898620605469 76.378173828125 91.95984649658203 77.8160629272461 91.39768981933594" stroke-width="3.640385389328003" fill="none" stroke="rgb(214, 70, 25)" stroke-opacity="1.0" stroke-linecap="round" stroke-linejoin="round"/>
  </g>
</svg>
