<?xml version="1.0" ?>
<svg xmlns="http://www.w3.org/2000/svg" version="1.1" width="956.0" height="956.0">
  <defs/>
  <g>
    <path d="M 43.67136001586914 60.43049240112305 C 44.03367614746094 60.66560363769531 44.397247314453125 61.444034576416016 44.21547317504883 61.74068832397461 C 43.48928451538086 62.03680419921875 43.3077392578125 61.8502082824707 42.582618713378906 63.41706466674805 C 42.40083694458008 64.43943786621094 42.76439666748047 66.67081451416016 43.126739501953125 68.9009780883789 C 44.03493881225586 71.13232421875 43.58110427856445 82.13304138183594 42.582618713378906 92.59044647216797" stroke-width="1.0892857313156128" fill="none" stroke="rgb(20, 25, 25)" stroke-opacity="0.71" stroke-linecap="round" stroke-linejoin="round"/>
    <path d="M 74.64666748046875 57.91242218017578 C 75.39990234375 57.48250198364258 75.6085205078125 57.59720230102539 75.69880676269531 58.532981872558594 C 75.24446868896484 59.469947814941406 75.2176284790039 61.226741790771484 75.73542022705078 63.5266227722168 C 75.1639404296875 64.73910522460938 74.9052963256836 72.87529754638672 75.1913070678711 81.55481719970703" stroke-width="1.0892857313156128" fill="none" stroke="rgb(25, 20, 20)" stroke-opacity="0.71" stroke-linecap="round" stroke-linejoin="round"/>
    <path d="M 55.632965087890625 67.73904418945312 C 55.63299560546875 67.94790649414062 55.63297653198242 67.88446807861328 55.632965087890625 68.59938049316406 C 55.63301086425781 69.31430053710938 56.17699432373047 70.80636596679688 56.17759704589844 72.29964447021484 C 56.17759704589844 73.79292297363281 56.1776008605957 81.49356079101562 56.1776008605957 89.4677505493164" stroke-width="1.0892857313156128" fill="none" stroke="rgb(25, 20, 25)" stroke-opacity="0.71" stroke-linecap="round" stroke-linejoin="round"/>
    <path d="M 43.67136764526367 63.14451599121094 C 43.97805404663086 63.146217346191406 43.997657775878906 63.69139099121094 44.35285949707031 63.148170471191406 C 44.76169967651367 63.14942169189453 48.48305130004883 61.441890716552734 51.659934997558594 59.189781188964844" stroke-width="1.161392331123352" fill="none" stroke="rgb(181, 63, 5)" stroke-opacity="0.7099999" stroke-linecap="round" stroke-linejoin="round"/>
    <path d="M 43.67137145996094 60.430511474609375 C 44.08854675292969 61.34525680541992 43.96131134033203 63.34843063354492 44.92431640625 64.26327514648438 C 44.796939849853516 66.26699829101562 49.17062759399414 68.91561889648438 53.54312515258789 71.56422424316406" stroke-width="1.0892857313156128" fill="none" stroke="rgb(75, 85, 255)" stroke-opacity="0.69" stroke-linecap="round" stroke-linejoin="round"/>
    <path d="M 75.1920166015625 58.80426025390625 C 79.62061309814453 61.399192810058594 81.9415512084961 65.91929626464844 77.06401062011719 68.00062561035156" stroke-width="1.0892857313156128" fill="none" stroke="rgb(179, 51, 252)" stroke-opacity="0.6900001" stroke-linecap="round" stroke-linejoin="round"/>
    <path d="M 74.64667510986328 63.5263671875 C 73.76338958740234 65.81265258789062 72.88017272949219 68.09907531738281 72.54146575927734 70.9298324584961 C 71.1135482788086 72.67147827148438 66.71424102783203 73.41323852539062 62.31630325317383 74.70084381103516" stroke-width="1.0892857313156128" fill="none" stroke="rgb(24, 135, 220)" stroke-opacity="0.69" stroke-linecap="round" stroke-linejoin="round"/>
    <path d="M 55.632965087890625 68.59913635253906 C 52.67369842529297 67.12339782714844 49.999080657958984 70.45519256591797 50.66390609741211 72.25347137451172" stroke-width="1.1613926887512207" fill="none" stroke="rgb(57, 0, 126)" stroke-opacity="0.71" stroke-linecap="round" stroke-linejoin="round"/>
    <path d="M 43.12675094604492 68.08807373046875 C 41.53708267211914 71.49295806884766 39.94864273071289 74.89798736572266 38.3589973449707 78.30178833007812 C 37.3139533996582 81.70680236816406 33.38921356201172 77.9675064086914 29.463245391845703 74.22821807861328" stroke-width="1.0892857313156128" fill="none" stroke="rgb(253, 54, 192)" stroke-opacity="0.69" stroke-linecap="round" stroke-linejoin="round"/>
    <path d="M 75.73664855957031 57.91192626953125 C 77.70571899414062 63.44344711303711 81.40594482421875 62.9132080078125 82.57544708251953 62.24342727661133" stroke-width="1.0892857313156128" fill="none" stroke="rgb(160, 236, 53)" stroke-opacity="0.69" stroke-linecap="round" stroke-linejoin="round"/>
    <path d="M 55.632965087890625 67.7390365600586 C 55.619544982910156 66.33118438720703 55.60490798950195 64.92340850830078 56.707786560058594 66.08766174316406 C 57.810665130615234 66.7074203491211 60.031089782714844 69.35358428955078 62.796104431152344 71.45513916015625 C 65.01649475097656 74.1013412475586 64.86749267578125 74.07827758789062 64.71613311767578 74.05377960205078" stroke-width="1.0892857313156128" fill="none" stroke="rgb(21, 39, 24)" stroke-opacity="0.69" stroke-linecap="round" stroke-linejoin="round"/>
    <path d="M 53.54360580444336 71.56495666503906 C 48.903953552246094 65.14653015136719 44.26551818847656 58.72810745239258 41.744998931884766 59.18682098388672 C 38.68107604980469 60.18891143798828 38.280906677246094 66.97901916503906 38.42538070678711 74.85701751708984 C 38.02521896362305 81.64581298828125 32.25461196899414 72.84230041503906 26.4852294921875 64.58216094970703" stroke-width="1.0892857313156128" fill="none" stroke="rgb(226, 109, 215)" stroke-opacity="0.71" stroke-linecap="round" stroke-linejoin="round"/>
    <path d="M 63.631309509277344 75.14360809326172 C 64.66877746582031 79.31462860107422 65.16290283203125 84.02983856201172 65.20438385009766 86.057373046875 C 65.24586486816406 88.08502197265625 64.83587646484375 87.42621612548828 64.42601013183594 87.31199645996094 C 64.01609802246094 86.6531982421875 60.029136657714844 89.22251892089844 55.49754333496094 91.2484130859375" stroke-width="1.0892857313156128" fill="none" stroke="rgb(14, 217, 162)" stroke-opacity="0.71" stroke-linecap="round" stroke-linejoin="round"/>
    <path d="M 82.03013610839844 62.24292755126953 C 84.54698181152344 57.38246536254883 84.90104675292969 58.57936096191406 83.67223358154297 55.085697174072266" stroke-width="1.0892857313156128" fill="none" stroke="rgb(221, 9, 11)" stroke-opacity="0.70999974" stroke-linecap="round" stroke-linejoin="round"/>
    <path d="M 54.08895492553711 72.10956573486328 C 52.605438232421875 74.15917205810547 51.12191390991211 76.20755767822266 49.638389587402344 77.7125473022461 C 47.61024856567383 79.76211547851562 44.36748504638672 80.37091064453125 41.66935729980469 81.52555084228516" stroke-width="1.0892857313156128" fill="none" stroke="rgb(67, 134, 123)" stroke-opacity="0.69" stroke-linecap="round" stroke-linejoin="round"/>
    <path d="M 54.08895492553711 71.01960754394531 C 55.018550872802734 71.9017105102539 55.94757080078125 72.78436279296875 56.333274841308594 74.21038818359375 C 57.80747604370117 74.54786682128906 51.14461135864258 71.77772521972656 45.027503967285156 68.46178436279297" stroke-width="1.1613922119140625" fill="none" stroke="rgb(149, 100, 141)" stroke-opacity="0.71" stroke-linecap="round" stroke-linejoin="round"/>
    <path d="M 64.17540740966797 75.14372253417969 C 59.72614669799805 75.01439666748047 55.27801513671875 74.88507843017578 50.82869338989258 74.7557601928711 C 46.379486083984375 74.62620544433594 45.91482162475586 74.46537780761719 45.448402404785156 73.75971984863281" stroke-width="1.1613928079605103" fill="none" stroke="rgb(14, 48, 71)" stroke-opacity="0.71" stroke-linecap="round" stroke-linejoin="round"/>
    <path d="M 51.11703872680664 58.645145416259766 C 50.91450500488281 61.30742645263672 50.16738510131836 62.882301330566406 50.38015365600586 62.82243347167969 C 50.048316955566406 62.762657165527344 49.5859375 60.526397705078125 49.123558044433594 58.2889404296875 C 48.66116714477539 56.051456451416016 52.61031723022461 63.460487365722656 56.55946350097656 70.86954498291016" stroke-width="1.0892857313156128" fill="none" stroke="rgb(130, 114, 223)" stroke-opacity="0.69" stroke-linecap="round" stroke-linejoin="round"/>
    <path d="M 64.72074127197266 74.05374908447266 C 65.07698059082031 71.19898223876953 65.4344482421875 68.34419250488281 65.38369750976562 68.46782684326172 C 64.78815460205078 68.04816436767578 62.6967658996582 69.51778411865234 61.151023864746094 71.5332260131836 C 59.604095458984375 74.09207153320312 58.78179931640625 72.92819213867188 57.95950698852539 71.7630844116211" stroke-width="1.1613924503326416" fill="none" stroke="rgb(107, 76, 246)" stroke-opacity="0.71" stroke-linecap="round" stroke-linejoin="round"/>
    <path d="M 13.293374061584473 108.9157485961914 C 12.861006736755371 110.26002502441406 13.518989562988281 111.60449981689453 12.526717185974121 111.66319274902344 C 12.07896614074707 111.72175598144531 11.072465896606445 110.49321746826172 10.064750671386719 109.26466369628906 C 9.05756950378418 107.49152374267578 7.805382251739502 108.53585052490234 7.0969648361206055 110.12474822998047" stroke-width="1.0892857313156128" fill="none" stroke="rgb(193, 241, 214)" stroke-opacity="0.69000006" stroke-linecap="round" stroke-linejoin="round"/>
    <path d="M 52.97265625 34.41716766357422 C 51.53915786743164 29.481056213378906 50.10565948486328 24.546157836914062 48.670936584472656 19.610069274902344 C 46.69281768798828 14.67395305633545 44.07346725463867 17.638505935668945 41.454124450683594 21.146501541137695" stroke-width="1.0892857313156128" fill="none" stroke="rgb(67, 44, 97)" stroke-opacity="0.7099999" stroke-linecap="round" stroke-linejoin="round"/>
    <path d="M 44.00027084350586 10.137946128845215 C 42.67290496826172 9.079492568969727 41.34676742553711 7.477622032165527 43.03200149536133 7.474686622619629 C 44.174015045166016 8.016366958618164 47.782772064208984 10.701586723327637 50.84812927246094 13.931406021118164 C 54.45811462402344 16.61663818359375 47.14788818359375 15.462536811828613 39.8376350402832 14.308418273925781" stroke-width="1.1613926887512207" fill="none" stroke="rgb(80, 247, 110)" stroke-opacity="0.71" stroke-linecap="round" stroke-linejoin="round"/>
    <path d="M 52.496856689453125 100.61116790771484 C 56.935943603515625 100.7815170288086 51.277626037597656 99.17980194091797 51.52892303466797 99.89745330810547" stroke-width="1.0892857313156128" fill="none" stroke="rgb(36, 79, 40)" stroke-opacity="0.69" stroke-linecap="round" stroke-linejoin="round"/>
    <path d="M 33.154972076416016 20.791006088256836 C 33.54290008544922 21.869577407836914 33.929012298583984 22.953140258789062 33.773040771484375 24.57216453552246 C 34.705562591552734 25.1063232421875 34.93983459472656 26.216371536254883 35.174072265625 27.325313568115234" stroke-width="1.0892857313156128" fill="none" stroke="rgb(124, 177, 97)" stroke-opacity="0.7099999" stroke-linecap="round" stroke-linejoin="round"/>
    <path d="M 15.446678161621094 84.88978576660156 C 17.824453353881836 79.56255340576172 15.398587226867676 76.16119384765625 13.930218696594238 70.23564910888672" stroke-width="1.0892857313156128" fill="none" stroke="rgb(86, 118, 44)" stroke-opacity="0.69" stroke-linecap="round" stroke-linejoin="round"/>
    <path d="M 58.20109176635742 64.8354263305664 C 59.12510299682617 63.6182975769043 59.50575256347656 61.85542678833008 59.34056091308594 60.09361267089844 C 59.720001220703125 58.33207702636719 57.53986358642578 57.86973190307617 55.35866928100586 57.40609359741211" stroke-width="1.0892857313156128" fill="none" stroke="rgb(170, 190, 47)" stroke-opacity="0.7099999" stroke-linecap="round" stroke-linejoin="round"/>
    <path d="M 71.76139831542969 18.350271224975586 C 76.36936950683594 22.262807846069336 74.36486053466797 17.381591796875 77.13957214355469 21.870820999145508" stroke-width="1.0892857313156128" fill="none" stroke="rgb(141, 74, 94)" stroke-opacity="0.70999974" stroke-linecap="round" stroke-linejoin="round"/>
    <path d="M 37.83733367919922 65.4276351928711 C 39.052433013916016 64.80664825439453 40.2687873840332 64.18445587158203 41.483917236328125 63.5634765625 C 42.698997497558594 62.39787292480469 47.70221710205078 63.62031173706055 52.160850524902344 64.84156036376953" stroke-width="1.0892857313156128" fill="none" stroke="rgb(157, 150, 66)" stroke-opacity="0.7099999" stroke-linecap="round" stroke-linejoin="round"/>
    <path d="M 79.76261138916016 121.92095947265625 C 80.88624572753906 120.30687713623047 81.46405792236328 118.6915283203125 80.67713165283203 117.70463562011719 C 79.89024353027344 116.7176513671875 77.19284057617188 116.35897064208984 75.03875732421875 115.45567321777344 C 71.79682922363281 115.6416015625 72.34088134765625 115.98809051513672 72.8862075805664 115.78994750976562" stroke-width="1.1613900661468506" fill="none" stroke="rgb(198, 76, 251)" stroke-opacity="0.69" stroke-linecap="round" stroke-linejoin="round"/>
    <path d="M 106.68193054199219 85.03547668457031 C 108.6351547241211 83.31526947021484 110.58715057373047 81.5962905883789 111.99575805664062 79.33146667480469 C 113.94896697998047 77.61126708984375 115.5000991821289 76.46009063720703 116.50659942626953 74.76431274414062" stroke-width="1.0892857313156128" fill="none" stroke="rgb(183, 204, 136)" stroke-opacity="0.69000006" stroke-linecap="round" stroke-linejoin="round"/>
    <path d="M 39.4265251159668 26.987363815307617 C 44.82026672363281 27.325454711914062 50.757728576660156 28.209081649780273 52.253562927246094 30.43559455871582 C 54.29340744018555 32.662086486816406 53.52406311035156 36.77712631225586 51.66554260253906 40.8922119140625 C 50.896217346191406 45.00713348388672 44.38874053955078 38.64690017700195 37.88247299194336 32.8323860168457" stroke-width="1.0892857313156128" fill="none" stroke="rgb(145, 3, 88)" stroke-opacity="0.71" stroke-linecap="round" stroke-linejoin="round"/>
    <path d="M 96.36144256591797 23.6921443939209 C 92.80635833740234 27.978002548217773 93.67012023925781 31.60506248474121 89.89595794677734 27.291141510009766" stroke-width="1.0892857313156128" fill="none" stroke="rgb(106, 66, 211)" stroke-opacity="0.70957893" stroke-linecap="round" stroke-linejoin="round"/>
    <path d="M 29.20288848876953 4.005062103271484 C 27.131324768066406 8.836207389831543 25.059762954711914 13.668627738952637 22.988203048706055 18.49983024597168 C 21.461259841918945 23.875633239746094 26.579174041748047 17.850074768066406 31.697072982788086 11.82449722290039" stroke-width="1.1613926887512207" fill="none" stroke="rgb(29, 23, 209)" stroke-opacity="0.7099999" stroke-linecap="round" stroke-linejoin="round"/>
    <path d="M 99.8267593383789 109.23855590820312 C 102.04714965820312 110.16575622558594 101.34068298339844 112.00110626220703 103.55469512939453 114.33744812011719" stroke-width="1.0892857313156128" fill="none" stroke="rgb(196, 218, 229)" stroke-opacity="0.7099999" stroke-linecap="round" stroke-linejoin="round"/>
    <path d="M 10.16356086730957 52.29921340942383 C 11.798362731933594 54.369564056396484 13.977721214294434 55.89535903930664 15.068000793457031 57.965606689453125 C 16.702768325805664 60.03595733642578 11.098106384277344 59.81806564331055 5.4935808181762695 59.056800842285156" stroke-width="1.0892857313156128" fill="none" stroke="rgb(241, 6, 63)" stroke-opacity="0.69" stroke-linecap="round" stroke-linejoin="round"/>
    <path d="M 43.12676239013672 68.36190032958984 C 44.911617279052734 67.44988250732422 46.696468353271484 66.53732299804688 48.4801025390625 65.62598419189453 C 50.26503372192383 64.71466827392578 54.36221694946289 62.61674880981445 57.370243072509766 59.430824279785156" stroke-width="1.1787583827972412" fill="none" stroke="rgb(207, 145, 134)" stroke-opacity="0.71" stroke-linecap="round" stroke-linejoin="round"/>
    <path d="M 51.66581344604492 40.34883117675781 C 49.19260025024414 36.8369140625 47.26424789428711 32.23463821411133 44.79132080078125 28.178752899169922 C 41.773773193359375 24.66617202758789 39.92914962768555 26.365190505981445 38.62911605834961 29.15337562561035" stroke-width="1.0892857313156128" fill="none" stroke="rgb(91, 157, 35)" stroke-opacity="0.69" stroke-linecap="round" stroke-linejoin="round"/>
    <path d="M 31.69707679748535 11.281089782714844 C 28.941085815429688 6.3644914627075195 29.476173400878906 1.7614312171936035 33.897457122802734 2.823169708251953" stroke-width="1.0892857313156128" fill="none" stroke="rgb(192, 73, 22)" stroke-opacity="0.69" stroke-linecap="round" stroke-linejoin="round"/>
    <path d="M 106.68069458007812 83.94551849365234 C 103.74172973632812 82.15235900878906 102.35094451904297 84.92079162597656 101.69458770751953 86.59341430664062" stroke-width="1.1787580251693726" fill="none" stroke="rgb(159, 247, 117)" stroke-opacity="0.69000006" stroke-linecap="round" stroke-linejoin="round"/>
    <path d="M 37.8824577331543 33.377891540527344 C 35.08254623413086 31.084129333496094 32.28141403198242 29.33464813232422 29.4559268951416 31.378347396850586 C 26.629175186157227 32.878013610839844 23.776823043823242 37.625030517578125 20.92314910888672 42.371944427490234 C 17.526287078857422 46.57451248168945 21.433929443359375 40.034061431884766 25.34170913696289 34.03927230834961" stroke-width="1.0892857313156128" fill="none" stroke="rgb(207, 245, 34)" stroke-opacity="0.6900002" stroke-linecap="round" stroke-linejoin="round"/>
    <path d="M 77.06261444091797 68.00183868408203 C 78.64703369140625 70.330810546875 80.2330551147461 72.6597671508789 81.16192626953125 71.89068603515625 C 81.54625701904297 71.6662368774414 80.73130798339844 68.88951110839844 79.9151382446289 66.11277770996094 C 79.09893798828125 63.336090087890625 81.3993911743164 66.75009155273438 84.2456283569336 69.61949920654297" stroke-width="1.0892857313156128" fill="none" stroke="rgb(81, 111, 200)" stroke-opacity="0.69000006" stroke-linecap="round" stroke-linejoin="round"/>
    <path d="M 42.58262634277344 92.5921630859375 C 45.09999465942383 95.19268798828125 47.07395553588867 98.33783721923828 49.046695709228516 101.48301696777344 C 50.47483444213867 105.17280578613281 47.49923324584961 103.74295806884766 44.523643493652344 102.31189727783203" stroke-width="1.0892857313156128" fill="none" stroke="rgb(219, 244, 105)" stroke-opacity="0.69" stroke-linecap="round" stroke-linejoin="round"/>
    <path d="M 54.088958740234375 71.01960754394531 C 56.511878967285156 74.48196411132812 58.93357467651367 77.94434356689453 59.55573654174805 78.25057220458984 C 59.63214111328125 79.1001205444336 58.452392578125 76.24901580810547 57.27264404296875 73.39667510986328 C 56.092918395996094 69.99982452392578 56.27712631225586 73.53868103027344 56.460121154785156 77.07569885253906" stroke-width="1.0892857313156128" fill="none" stroke="rgb(179, 211, 182)" stroke-opacity="0.69" stroke-linecap="round" stroke-linejoin="round"/>
    <path d="M 101.69580078125 86.04878997802734 C 100.82421112060547 88.07521057128906 100.49724578857422 90.10285949707031 99.1923599243164 91.5575942993164 C 96.80065155029297 91.92308807373047 93.97056579589844 91.71813201904297 90.59990692138672 92.05658721923828 C 87.22782135009766 91.85040283203125 85.38270568847656 95.4432601928711 84.62555694580078 99.03617858886719" stroke-width="1.0892857313156128" fill="none" stroke="rgb(85, 24, 157)" stroke-opacity="0.69" stroke-linecap="round" stroke-linejoin="round"/>
    <path d="M 34.44190216064453 2.823329448699951 C 35.64817428588867 3.5260472297668457 37.397640228271484 4.229992389678955 39.14833450317383 4.9327168464660645 C 41.443511962890625 5.635430335998535 42.90763854980469 4.868052005767822 44.37165069580078 4.100674629211426" stroke-width="1.1787570714950562" fill="none" stroke="rgb(153, 184, 50)" stroke-opacity="0.69000006" stroke-linecap="round" stroke-linejoin="round"/>
    <path d="M 38.08572006225586 28.6087646484375 C 35.779911041259766 32.14431381225586 33.47532653808594 35.68109893798828 32.071109771728516 38.83479690551758 C 30.66697883605957 41.98997116088867 30.16547203063965 44.7615966796875 29.664045333862305 47.53461837768555 C 29.706815719604492 50.30792236328125 26.524276733398438 43.881935119628906 23.34252166748047 38.000816345214844" stroke-width="1.0892857313156128" fill="none" stroke="rgb(231, 14, 115)" stroke-opacity="0.6900003" stroke-linecap="round" stroke-linejoin="round"/>
    <path d="M 100.6058349609375 86.59259033203125 C 95.25491333007812 85.38683319091797 99.1711196899414 83.40877532958984 104.19628143310547 81.86175537109375" stroke-width="1.0892857313156128" fill="none" stroke="rgb(174, 26, 52)" stroke-opacity="0.7099999" stroke-linecap="round" stroke-linejoin="round"/>
    <path d="M 45.613616943359375 102.31182861328125 C 44.87063217163086 107.19430541992188 43.35539245605469 106.63508605957031 39.14710235595703 102.5798110961914" stroke-width="1.0892857313156128" fill="none" stroke="rgb(119, 159, 53)" stroke-opacity="0.71" stroke-linecap="round" stroke-linejoin="round"/>
    <path d="M 34.44206237792969 2.8233304023742676 C 38.4924430847168 -0.9115874171257019 43.57740020751953 1.9590680599212646 45.332515716552734 2.3475325107574463" stroke-width="1.0892857313156128" fill="none" stroke="rgb(35, 181, 112)" stroke-opacity="0.69000006" stroke-linecap="round" stroke-linejoin="round"/>
    <path d="M 38.08571243286133 28.608034133911133 C 36.89256286621094 27.754026412963867 35.70063018798828 26.900009155273438 34.793434143066406 23.514053344726562 C 33.34163284301758 20.67265510559082 31.632417678833008 15.842672348022461 29.921972274780273 11.012701034545898 C 27.66691780090332 6.727249622344971 29.276165008544922 8.89827823638916 30.884052276611328 11.070516586303711" stroke-width="1.0892857313156128" fill="none" stroke="rgb(240, 96, 95)" stroke-opacity="0.69" stroke-linecap="round" stroke-linejoin="round"/>
    <path d="M 34.44205093383789 2.8233320713043213 C 35.7852668762207 2.0181233882904053 37.129703521728516 1.2129228115081787 38.594913482666016 0.8054503202438354 C 40.06129837036133 0.3979708254337311 41.649654388427734 0.38943347334861755 42.69369888305664 -0.1637246459722519 C 44.28211975097656 -0.1722753345966339 47.14427185058594 -0.8823093771934509 50.00796127319336 -1.5922889709472656" stroke-width="1.178757667541504" fill="none" stroke="rgb(135, 21, 60)" stroke-opacity="0.7099999" stroke-linecap="round" stroke-linejoin="round"/>
    <path d="M 39.102474212646484 52.552978515625 C 33.10007095336914 51.0518684387207 31.176130294799805 49.28042984008789 25.4013614654541 44.18011474609375" stroke-width="1.1787585020065308" fill="none" stroke="rgb(0, 240, 80)" stroke-opacity="0.7099999" stroke-linecap="round" stroke-linejoin="round"/>
    <path d="M 11.963577270507812 95.705078125 C 12.745595932006836 95.23223876953125 13.528826713562012 94.2147445678711 14.310853004455566 93.19727325439453 C 15.092863082885742 92.17979431152344 19.43923568725586 87.4835205078125 24.330204010009766 83.33306884765625" stroke-width="1.0892857313156128" fill="none" stroke="rgb(159, 51, 215)" stroke-opacity="0.69000006" stroke-linecap="round" stroke-linejoin="round"/>
    <path d="M 62.34958267211914 85.60597229003906 C 62.2356071472168 82.67550659179688 62.666259765625 79.74505615234375 63.096920013427734 76.81461334228516 C 63.527652740478516 74.42858123779297 62.147823333740234 73.9615249633789 60.7679557800293 73.49304962158203" stroke-width="1.0892857313156128" fill="none" stroke="rgb(215, 57, 155)" stroke-opacity="0.7099996" stroke-linecap="round" stroke-linejoin="round"/>
    <path d="M 104.30414581298828 6.687075138092041 C 101.58965301513672 8.778888702392578 99.49456024169922 3.6272835731506348 103.28006744384766 8.12982177734375" stroke-width="1.0892857313156128" fill="none" stroke="rgb(218, 225, 7)" stroke-opacity="0.6900001" stroke-linecap="round" stroke-linejoin="round"/>
    <path d="M 44.58515930175781 114.49310302734375 C 40.8575553894043 119.94054412841797 39.1812629699707 117.77001953125 44.230079650878906 112.99858856201172" stroke-width="1.0892857313156128" fill="none" stroke="rgb(213, 165, 40)" stroke-opacity="0.7099999" stroke-linecap="round" stroke-linejoin="round"/>
    <path d="M 86.4562759399414 48.64970016479492 C 92.5140609741211 44.62907409667969 92.0699234008789 47.24060821533203 89.76007080078125 46.40855026245117" stroke-width="1.0892857313156128" fill="none" stroke="rgb(128, 138, 84)" stroke-opacity="0.6900017" stroke-linecap="round" stroke-linejoin="round"/>
    <path d="M 49.02912139892578 37.68238830566406 C 52.76602554321289 38.038631439208984 56.50292205810547 38.394874572753906 60.7842903137207 38.20648956298828 C 64.52117156982422 38.56272888183594 64.1087875366211 39.30449676513672 63.697662353515625 40.58964920043945" stroke-width="1.0892857313156128" fill="none" stroke="rgb(141, 184, 126)" stroke-opacity="0.69000006" stroke-linecap="round" stroke-linejoin="round"/>
    <path d="M 72.71297454833984 70.85786437988281 C 73.28026580810547 66.3726577758789 73.84634399414062 62.433284759521484 74.1689453125 60.7789306640625 C 73.9468994140625 59.124610900878906 72.39093780517578 59.755348205566406 71.92414855957031 60.93193817138672 C 70.91275787353516 61.56267547607422 69.50814056396484 66.61707305908203 69.19255828857422 71.67160034179688" stroke-width="1.0892857313156128" fill="none" stroke="rgb(175, 213, 122)" stroke-opacity="0.71" stroke-linecap="round" stroke-linejoin="round"/>
    <path d="M 38.66276168823242 76.44004821777344 C 36.91083908081055 74.13477325439453 35.15892028808594 71.83018493652344 34.1334114074707 70.74632263183594 C 32.56326675415039 70.2071304321289 31.173696517944336 71.97903442382812 29.239521026611328 73.20631408691406 C 27.84990882873535 73.88905334472656 28.051225662231445 74.35877990722656 28.797136306762695 74.82843017578125" stroke-width="1.0892857313156128" fill="none" stroke="rgb(41, 240, 35)" stroke-opacity="0.69" stroke-linecap="round" stroke-linejoin="round"/>
    <path d="M 83.86421966552734 102.49076080322266 C 83.6297836303711 101.04499053955078 83.93997955322266 99.59957885742188 84.24938201904297 98.69428253173828 C 84.55917358398438 96.70332336425781 84.30296325683594 99.4188232421875 84.04798126220703 102.13328552246094" stroke-width="1.0892857313156128" fill="none" stroke="rgb(28, 94, 83)" stroke-opacity="0.69000006" stroke-linecap="round" stroke-linejoin="round"/>
    <path d="M 87.49205017089844 105.51510620117188 C 86.12217712402344 106.94379425048828 85.29533386230469 108.91572570800781 85.27215576171875 110.07215118408203 C 85.24897003173828 110.68427276611328 86.57505798339844 112.10355377197266 87.35543823242188 112.99749755859375 C 89.22482299804688 113.33776092529297 81.94273376464844 112.14337921142578 74.11613464355469 110.94898986816406" stroke-width="1.0892857313156128" fill="none" stroke="rgb(150, 181, 178)" stroke-opacity="0.69" stroke-linecap="round" stroke-linejoin="round"/>
    <path d="M 57.68274688720703 122.22371673583984 C 59.11533737182617 120.07018280029297 60.002288818359375 117.37155151367188 60.24749755859375 117.11412811279297 C 59.9481315612793 116.31108093261719 59.54959487915039 119.03482818603516 59.696075439453125 121.21822357177734 C 59.2983283996582 123.39948272705078 58.48677062988281 123.49615478515625 57.66889572143555 123.5707778930664" stroke-width="1.1787285804748535" fill="none" stroke="rgb(166, 61, 36)" stroke-opacity="0.69000006" stroke-linecap="round" stroke-linejoin="round"/>
    <path d="M 73.24129486083984 107.19918060302734 C 74.43854522705078 105.30574798583984 75.0899658203125 102.86658477783203 76.14124298095703 103.08489990234375 C 78.28152465820312 103.30328369140625 80.81913757324219 105.6322250366211 83.35797882080078 107.96121215820312 C 85.35225677490234 110.83373260498047 83.34770965576172 108.16178131103516 81.34445190429688 105.48756408691406" stroke-width="1.0892857313156128" fill="none" stroke="rgb(220, 104, 247)" stroke-opacity="0.69" stroke-linecap="round" stroke-linejoin="round"/>
    <path d="M 51.56674575805664 32.87155532836914 C 50.690757751464844 31.31614112854004 49.602516174316406 36.82469177246094 54.116512298583984 39.95240783691406" stroke-width="1.0892857313156128" fill="none" stroke="rgb(22, 202, 53)" stroke-opacity="0.6900001" stroke-linecap="round" stroke-linejoin="round"/>
    <path d="M 93.09844207763672 35.71453857421875 C 87.03743743896484 37.53842544555664 90.67548370361328 35.51200485229492 91.07202911376953 36.33134841918945" stroke-width="1.0892857313156128" fill="none" stroke="rgb(18, 109, 164)" stroke-opacity="0.69" stroke-linecap="round" stroke-linejoin="round"/>
    <path d="M 70.61015319824219 39.50263595581055 C 74.70525360107422 33.63027572631836 74.81380462646484 36.480186462402344 69.29574584960938 40.94293975830078" stroke-width="1.0892857313156128" fill="none" stroke="rgb(155, 16, 56)" stroke-opacity="0.6900008" stroke-linecap="round" stroke-linejoin="round"/>
    <path d="M 10.064740180969238 109.2646713256836 C 7.086428642272949 108.28555297851562 9.988788604736328 104.02294158935547 7.968145847320557 108.53478240966797" stroke-width="1.0892857313156128" fill="none" stroke="rgb(127, 26, 18)" stroke-opacity="0.97244006" stroke-linecap="round" stroke-linejoin="round"/>
    <path d="M 37.8824462890625 33.37698745727539 C 34.54267883300781 28.2774600982666 29.041378021240234 25.576459884643555 31.37383270263672 21.065826416015625 C 28.25662612915039 22.360965728759766 24.222429275512695 27.353530883789062 28.36161994934082 26.13198471069336 C 25.037799835205078 26.003753662109375 25.558195114135742 23.249359130859375 20.598148345947266 22.49225616455078" stroke-width="1.198198676109314" fill="none" stroke="rgb(215, 189, 210)" stroke-opacity="0.7608903" stroke-linecap="round" stroke-linejoin="round"/>
    <path d="M 54.116539001464844 39.4082145690918 C 51.24306869506836 41.95035934448242 55.84601974487305 47.47686004638672 57.51352310180664 46.74088668823242 C 60.60517501831055 43.76311111450195 55.72866439819336 47.13526916503906 50.39936828613281 42.89415740966797 C 49.621551513671875 39.33514404296875 54.22163772583008 38.217315673828125 59.3431282043457 41.55804443359375" stroke-width="1.0892857313156128" fill="none" stroke="rgb(174, 171, 114)" stroke-opacity="0.37868947" stroke-linecap="round" stroke-linejoin="round"/>
    <path d="M 83.86424255371094 102.49073791503906 C 80.013671875 103.98408508300781 74.94400024414062 100.37415313720703 80.01055908203125 97.65806579589844" stroke-width="1.1982131004333496" fill="none" stroke="rgb(189, 233, 132)" stroke-opacity="0.766025" stroke-linecap="round" stroke-linejoin="round"/>
    <path d="M 63.641502380371094 76.81461334228516 C 66.79489135742188 77.1550521850586 62.88330841064453 83.61653137207031 67.21705627441406 86.22852325439453 C 73.47692108154297 79.73524475097656 78.79803466796875 82.98433685302734 76.60562896728516 88.20709228515625 C 72.5661849975586 88.6050033569336 77.63457489013672 88.71744537353516 75.60498046875 82.74906158447266" stroke-width="1.198214054107666" fill="none" stroke="rgb(249, 252, 81)" stroke-opacity="0.6501162" stroke-linecap="round" stroke-linejoin="round"/>
    <path d="M 5.493452072143555 58.51222229003906 C 6.8093061447143555 60.896751403808594 12.00155258178711 62.33709716796875 8.852505683898926 67.34053039550781 C 3.4797375202178955 66.15950775146484 9.336535453796387 64.20970153808594 10.83825397491455 62.045387268066406" stroke-width="1.0892857313156128" fill="none" stroke="rgb(21, 36, 156)" stroke-opacity="0.015987232" stroke-linecap="round" stroke-linejoin="round"/>
    <path d="M 54.08883285522461 72.10953521728516 C 59.73192596435547 70.2779312133789 56.799049377441406 67.78218841552734 51.58694839477539 72.74905395507812 C 48.188411712646484 78.81839752197266 45.32463455200195 77.14143371582031 42.560977935791016 77.89521026611328 C 48.06988525390625 76.78125 44.796043395996094 77.77400970458984 40.44470977783203 77.70620727539062" stroke-width="1.0892857313156128" fill="none" stroke="rgb(7, 33, 143)" stroke-opacity="0.20084111" stroke-linecap="round" stroke-linejoin="round"/>
    <path d="M 53.54432678222656 71.01960754394531 C 51.698326110839844 77.51194763183594 46.36341094970703 75.58110809326172 49.24162673950195 70.50938415527344 C 52.39799499511719 67.0534439086914 52.381553649902344 68.36007690429688 52.43201446533203 68.01602172851562" stroke-width="1.1982091665267944" fill="none" stroke="rgb(151, 134, 44)" stroke-opacity="0.65972865" stroke-linecap="round" stroke-linejoin="round"/>
    <path d="M 8.512773513793945 109.07939910888672 C 3.007552146911621 112.48628997802734 2.6074390411376953 106.89720916748047 8.493844032287598 100.93416595458984" stroke-width="1.0892857313156128" fill="none" stroke="rgb(240, 124, 208)" stroke-opacity="0.9352273" stroke-linecap="round" stroke-linejoin="round"/>
    <path d="M 51.88844299316406 68.01602935791016 C 48.51301574707031 69.03020477294922 53.36673355102539 71.22869110107422 56.754150390625 71.71537780761719" stroke-width="1.1982135772705078" fill="none" stroke="rgb(162, 91, 146)" stroke-opacity="0.3775373" stroke-linecap="round" stroke-linejoin="round"/>
    <path d="M 59.3431396484375 41.55780029296875 C 56.86433410644531 46.62259292602539 60.89270782470703 45.425479888916016 57.54099655151367 50.248897552490234" stroke-width="1.1982139348983765" fill="none" stroke="rgb(237, 136, 131)" stroke-opacity="0.8821229" stroke-linecap="round" stroke-linejoin="round"/>
    <path d="M 59.3431282043457 41.55778121948242 C 61.56608581542969 42.03207778930664 56.08043670654297 41.88420867919922 60.01175308227539 37.51935958862305 C 60.095550537109375 42.06778335571289 56.658565521240234 46.21718978881836 60.81760025024414 46.79900360107422 C 66.70353698730469 46.745216369628906 66.68672943115234 41.5482063293457 70.4675064086914 41.7395133972168" stroke-width="1.0892857313156128" fill="none" stroke="rgb(143, 117, 33)" stroke-opacity="0.12647372" stroke-linecap="round" stroke-linejoin="round"/>
    <path d="M 52.4319953918457 68.01602172851562 C 49.28154373168945 71.07252502441406 43.61490249633789 73.30253601074219 39.600746154785156 72.0302734375 C 45.260440826416016 75.76656341552734 46.84368896484375 76.7011489868164 51.34053421020508 75.11386108398438" stroke-width="1.198213815689087" fill="none" stroke="rgb(71, 140, 136)" stroke-opacity="0.23086494" stroke-linecap="round" stroke-linejoin="round"/>
    <path d="M 40.444698333740234 77.7061996459961 C 36.60414123535156 71.0976791381836 38.183902740478516 67.60406494140625 43.753929138183594 71.94347381591797 C 48.7430534362793 68.82315826416016 49.49016571044922 66.87064361572266 49.45566940307617 70.51319885253906 C 52.26604461669922 69.13409423828125 55.03130340576172 73.5249252319336 55.86392593383789 69.83302307128906" stroke-width="1.1982135772705078" fill="none" stroke="rgb(221, 147, 91)" stroke-opacity="0.9275612" stroke-linecap="round" stroke-linejoin="round"/>
    <path d="M 10.83831787109375 61.500885009765625 C 14.683279991149902 66.25962829589844 9.36318588256836 68.27799224853516 9.28947639465332 63.93246841430664" stroke-width="1.0892857313156128" fill="none" stroke="rgb(221, 104, 177)" stroke-opacity="0.6340172" stroke-linecap="round" stroke-linejoin="round"/>
    <path d="M 8.512778282165527 108.53477478027344 C 2.456613779067993 105.78713989257812 5.464348793029785 105.31936645507812 4.39756441116333 103.24411010742188 C 9.831893920898438 105.95404052734375 12.221345901489258 111.47018432617188 17.504802703857422 113.13089752197266" stroke-width="1.1982133388519287" fill="none" stroke="rgb(116, 49, 36)" stroke-opacity="0.4023656" stroke-linecap="round" stroke-linejoin="round"/>
    <path d="M 81.91800689697266 119.21525573730469 C 85.90840148925781 123.17017364501953 80.96369934082031 117.82044219970703 85.80821990966797 114.56558990478516 C 82.04550170898438 116.12254333496094 85.94017028808594 111.35862731933594 92.48113250732422 115.22747039794922" stroke-width="1.198214054107666" fill="none" stroke="rgb(55, 53, 219)" stroke-opacity="0.7615039" stroke-linecap="round" stroke-linejoin="round"/>
    <path d="M 104.1146011352539 6.558910846710205 C 108.40068817138672 9.108574867248535 110.04104614257812 3.1688127517700195 108.08111572265625 3.4652302265167236 C 113.47525024414062 2.0597095489501953 114.7359619140625 3.9042255878448486 115.67703247070312 7.646546363830566 C 117.02332305908203 11.798925399780273 115.98224639892578 10.820476531982422 121.71585845947266 16.30352020263672" stroke-width="1.0892857313156128" fill="none" stroke="rgb(229, 26, 122)" stroke-opacity="0.1588528" stroke-linecap="round" stroke-linejoin="round"/>
    <path d="M 90.33540344238281 109.08594512939453 C 93.84992980957031 112.78600311279297 99.11548614501953 116.84017944335938 103.28179931640625 117.83487701416016" stroke-width="1.1982135772705078" fill="none" stroke="rgb(96, 54, 78)" stroke-opacity="0.5131515" stroke-linecap="round" stroke-linejoin="round"/>
    <path d="M 21.143085479736328 93.20494842529297 C 16.262855529785156 94.26732635498047 12.771506309509277 95.39891815185547 8.663311004638672 88.77487182617188 C 13.627240180969238 92.36099243164062 12.512308120727539 88.89340209960938 12.942916870117188 91.89927673339844" stroke-width="1.1982139348983765" fill="none" stroke="rgb(165, 7, 151)" stroke-opacity="0.9335244" stroke-linecap="round" stroke-linejoin="round"/>
    <path d="M 46.91361618041992 73.94535064697266 C 42.92842483520508 75.67655181884766 48.05886459350586 70.60302734375 53.584381103515625 75.43612670898438 C 51.62239074707031 81.35236358642578 53.534156799316406 83.02318572998047 59.255672454833984 82.53498840332031" stroke-width="1.0892857313156128" fill="none" stroke="rgb(83, 32, 11)" stroke-opacity="0.41306108" stroke-linecap="round" stroke-linejoin="round"/>
    <path d="M 106.5184326171875 75.7338638305664 C 109.26095581054688 79.35973358154297 106.20914459228516 78.1678237915039 109.2461166381836 79.9153823852539" stroke-width="1.1982139348983765" fill="none" stroke="rgb(245, 32, 178)" stroke-opacity="0.9357516" stroke-linecap="round" stroke-linejoin="round"/>
    <path d="M 56.07177734375 48.4081916809082 C 53.310455322265625 46.12844467163086 54.94722366333008 45.51226043701172 55.452293395996094 51.547813415527344" stroke-width="1.1982104778289795" fill="none" stroke="rgb(20, 150, 134)" stroke-opacity="0.3279689" stroke-linecap="round" stroke-linejoin="round"/>
    <path d="M 65.63822174072266 13.003122329711914 C 59.44252014160156 14.222783088684082 63.16546630859375 18.569225311279297 58.90520095825195 14.348713874816895 C 60.01731491088867 17.48627281188965 54.155479431152344 16.87116241455078 58.15456771850586 19.146570205688477 C 62.06812286376953 19.018009185791016 61.94684600830078 18.60780143737793 62.499324798583984 22.302391052246094" stroke-width="1.198214054107666" fill="none" stroke="rgb(238, 238, 57)" stroke-opacity="0.9158206" stroke-linecap="round" stroke-linejoin="round"/>
    <path d="M 47.03318405151367 12.561692237854004 C 43.09403610229492 17.65779685974121 49.05479431152344 21.007375717163086 51.67256546020508 23.62202262878418 C 47.315650939941406 22.76542091369629 46.49337387084961 22.95915412902832 47.35417175292969 28.338754653930664" stroke-width="1.1982078552246094" fill="none" stroke="rgb(205, 116, 100)" stroke-opacity="0.96742046" stroke-linecap="round" stroke-linejoin="round"/>
    <path d="M 93.94754028320312 32.469810485839844 C 94.05815124511719 27.16521644592285 98.14239501953125 29.096601486206055 95.39535522460938 33.71860122680664 C 90.16606140136719 33.777400970458984 84.4249038696289 29.36469078063965 88.03309631347656 28.428979873657227" stroke-width="1.0892857313156128" fill="none" stroke="rgb(250, 214, 207)" stroke-opacity="0.1065732" stroke-linecap="round" stroke-linejoin="round"/>
    <path d="M 119.84036254882812 59.657752990722656 C 126.11779022216797 57.224308013916016 121.96337890625 55.608238220214844 123.48118591308594 58.80910873413086 C 128.08323669433594 64.21055603027344 132.34744262695312 69.90170288085938 135.06472778320312 67.53056335449219 C 132.47799682617188 72.11833953857422 135.90480041503906 72.05939483642578 134.49119567871094 75.75263977050781" stroke-width="1.198209524154663" fill="none" stroke="rgb(31, 126, 66)" stroke-opacity="0.6216192" stroke-linecap="round" stroke-linejoin="round"/>
    <path d="M 30.16986083984375 0.8213275074958801 C 31.792055130004883 -2.312948226928711 29.812480926513672 2.8936028480529785 29.41533660888672 6.529720306396484 C 26.595157623291016 1.3836781978607178 23.875720977783203 -3.379133939743042 19.44341278076172 -1.0998717546463013 C 17.51661491394043 -2.9256529808044434 21.526823043823242 -7.397539138793945 23.18597412109375 -10.146013259887695" stroke-width="1.198209524154663" fill="none" stroke="rgb(5, 147, 169)" stroke-opacity="0.6404885" stroke-linecap="round" stroke-linejoin="round"/>
    <path d="M 102.87786102294922 9.925619125366211 C 97.64814758300781 13.804718971252441 92.23367309570312 17.39059066772461 94.12315368652344 21.43511199951172 C 93.25785827636719 22.530366897583008 97.01132202148438 28.113845825195312 95.82170104980469 26.631078720092773 C 89.99964141845703 28.667903900146484 94.04540252685547 27.823028564453125 87.96525573730469 29.112436294555664" stroke-width="1.0892857313156128" fill="none" stroke="rgb(9, 68, 204)" stroke-opacity="0.033295915" stroke-linecap="round" stroke-linejoin="round"/>
    <path d="M 85.8618392944336 109.24575805664062 C 90.65247344970703 107.3272705078125 86.89117431640625 101.01478576660156 92.27119445800781 95.90094757080078 C 97.67219543457031 101.01380157470703 100.94440460205078 100.18376922607422 98.72349548339844 105.36554718017578" stroke-width="1.198214054107666" fill="none" stroke="rgb(233, 174, 172)" stroke-opacity="0.64946723" stroke-linecap="round" stroke-linejoin="round"/>
    <path d="M 81.22093963623047 114.33003234863281 C 75.43197631835938 118.54288482666016 79.75902557373047 115.42687225341797 84.80030822753906 111.50595092773438" stroke-width="1.0892857313156128" fill="none" stroke="rgb(121, 199, 179)" stroke-opacity="0.6194974" stroke-linecap="round" stroke-linejoin="round"/>
    <path d="M 118.18917083740234 63.80486297607422 C 121.03124237060547 64.02533721923828 116.20188903808594 62.008750915527344 113.72799682617188 64.11869812011719 C 115.22003936767578 66.25251007080078 120.52225494384766 66.04566955566406 123.4717025756836 68.48335266113281" stroke-width="1.0892857313156128" fill="none" stroke="rgb(104, 173, 7)" stroke-opacity="0.47843474" stroke-linecap="round" stroke-linejoin="round"/>
  </g>
</svg>
