<?xml version="1.0" ?>
<svg xmlns="http://www.w3.org/2000/svg" version="1.1" width="956.0" height="956.0">
  <defs/>
  <g>
    <path d="M 16.368911743164062 73.47693634033203 C 16.65727424621582 75.07911682128906 24.034534454345703 79.23666381835938 67.98902130126953 79.48800659179688 C 112.85951232910156 78.67427825927734 116.3263168334961 77.42729187011719 119.90941619873047 76.64923095703125" stroke-width="1.2886104583740234" fill="none" stroke="rgb(0, 4, 3)" stroke-opacity="0.99770916" stroke-linecap="round" stroke-linejoin="round"/>
    <path d="M 64.78622436523438 77.68839263916016 C 65.92993927001953 74.08179473876953 66.38434600830078 74.12381744384766 67.51898956298828 73.50361633300781" stroke-width="1.4277018308639526" fill="none" stroke="rgb(9, 0, 0)" stroke-opacity="1.0" stroke-linecap="round" stroke-linejoin="round"/>
    <path d="M 65.64624786376953 79.00001525878906 C 66.42046356201172 77.35932159423828 66.9881820678711 76.31636047363281 67.53955841064453 75.04945373535156 C 66.17061614990234 73.59893035888672 120.24394989013672 73.42381286621094 120.08877563476562 69.3965072631836" stroke-width="1.1892671585083008" fill="none" stroke="rgb(0, 8, 1)" stroke-opacity="0.96147835" stroke-linecap="round" stroke-linejoin="round"/>
    <path d="M 18.534435272216797 85.6175537109375 C 22.86384391784668 95.53057098388672 31.775999069213867 105.16111755371094 37.75943374633789 105.81793212890625 C 45.27212905883789 103.5887680053711 92.80230712890625 103.36060333251953 97.66508483886719 105.47071075439453 C 100.73878479003906 105.80565643310547 114.78754425048828 97.3954086303711 115.83039855957031 87.2982177734375" stroke-width="1.1892671585083008" fill="none" stroke="rgb(4, 9, 0)" stroke-opacity="0.9612914" stroke-linecap="round" stroke-linejoin="round"/>
    <path d="M 29.649185180664062 95.06419372558594 C 31.76545524597168 98.3897705078125 35.07441711425781 101.354736328125 38.43661880493164 101.1357421875 C 42.40471649169922 99.13420104980469 45.465885162353516 97.40995788574219 47.275394439697266 96.51630401611328" stroke-width="1.379652738571167" fill="none" stroke="rgb(9, 1, 0)" stroke-opacity="0.9955688" stroke-linecap="round" stroke-linejoin="round"/>
    <path d="M 38.271484375 99.45225524902344 C 37.995452880859375 92.05982971191406 38.664432525634766 84.58517456054688 38.07225036621094 85.26459503173828 C 37.47095489501953 84.56187438964844 37.586788177490234 84.82750701904297 36.56892776489258 83.02394104003906 C 35.7679328918457 80.06073760986328 36.67483139038086 78.34689331054688 38.32910919189453 79.90419006347656 C 40.6512565612793 79.43629455566406 41.95755386352539 80.09651184082031 40.537559509277344 81.74625396728516 C 37.697513580322266 83.58177185058594 37.81589126586914 82.8324966430664 38.93452072143555 84.49640655517578" stroke-width="1.5229058265686035" fill="none" stroke="rgb(4, 0, 0)" stroke-opacity="1.0" stroke-linecap="round" stroke-linejoin="round"/>
    <path d="M 35.1319580078125 83.71060943603516 C 37.059844970703125 84.05584716796875 38.52202606201172 84.57689666748047 40.27507781982422 83.53075408935547" stroke-width="1.5204954147338867" fill="none" stroke="rgb(2, 0, 0)" stroke-opacity="1.0" stroke-linecap="round" stroke-linejoin="round"/>
    <path d="M 14.60177993774414 74.81695556640625 C 16.07721710205078 82.31143188476562 15.87793254852295 84.52935791015625 17.159595489501953 84.08528900146484 C 20.4022216796875 84.87760162353516 44.78640365600586 87.63818359375 67.48816680908203 87.2154769897461 C 91.63873291015625 86.96836853027344 116.17975616455078 85.99163055419922 116.24187469482422 85.26541137695312 C 118.91812133789062 84.91903686523438 118.5195541381836 76.12106323242188 119.58853912353516 69.85736083984375" stroke-width="1.3463047742843628" fill="none" stroke="rgb(0, 9, 0)" stroke-opacity="0.9728549" stroke-linecap="round" stroke-linejoin="round"/>
    <path d="M 71.2170639038086 73.09304809570312 C 70.44342041015625 72.7789535522461 69.85958099365234 73.22277069091797 69.91297912597656 72.9808578491211 C 68.56517791748047 73.58074951171875 67.99113464355469 73.42787170410156 67.04103088378906 73.13469696044922 C 64.28334045410156 72.48944091796875 62.22195053100586 70.39091491699219 61.35429000854492 67.9709243774414 C 57.192596435546875 61.84383010864258 56.469322204589844 56.46793746948242 57.8317756652832 49.30884552001953 C 57.23430252075195 46.55870819091797 56.49824905395508 44.98967742919922 56.36048126220703 43.152584075927734 C 56.2565803527832 41.8475456237793 58.61182403564453 40.49394607543945 59.4768180847168 39.72087860107422 C 64.00601959228516 39.60040283203125 69.46514892578125 38.842124938964844 72.61852264404297 38.508060455322266 C 73.6245346069336 38.078575134277344 75.47361755371094 38.47665786743164 75.69837951660156 38.35283660888672 C 76.27145385742188 38.98042678833008 77.93240356445312 37.87105941772461 79.30278015136719 38.21704864501953 C 79.44929504394531 37.72670364379883 78.3038558959961 38.61613464355469 78.2802505493164 38.819068908691406" stroke-width="1.319091558456421" fill="none" stroke="rgb(23, 26, 18)" stroke-opacity="1.0" stroke-linecap="round" stroke-linejoin="round"/>
    <path d="M 65.66389465332031 74.4173812866211 C 69.6703109741211 69.89950561523438 74.396728515625 73.26823425292969 76.72370147705078 68.49281311035156 C 70.3919677734375 68.57874298095703 65.78569793701172 64.3827133178711 64.941162109375 63.9156494140625 C 66.4272689819336 63.95375442504883 66.93415832519531 63.57456588745117 75.02274322509766 61.04247283935547" stroke-width="1.1892671585083008" fill="none" stroke="rgb(223, 137, 177)" stroke-opacity="0.08074345" stroke-linecap="round" stroke-linejoin="round"/>
    <path d="M 69.84858703613281 74.52660369873047 C 71.39859771728516 79.4517822265625 76.44060516357422 72.79708862304688 81.59072875976562 79.3651123046875 C 79.46601104736328 83.27068328857422 76.0328369140625 86.44623565673828 81.36013793945312 86.53131103515625 C 87.52816772460938 87.96900939941406 87.42987060546875 91.78673553466797 91.90382385253906 88.78641510009766" stroke-width="1.1892671585083008" fill="none" stroke="rgb(139, 155, 243)" stroke-opacity="0.1436178" stroke-linecap="round" stroke-linejoin="round"/>
    <path d="M 38.55812454223633 105.56629943847656 C 39.462650299072266 104.23786163330078 44.589111328125 103.6164779663086 41.1773796081543 97.81865692138672" stroke-width="1.1892671585083008" fill="none" stroke="rgb(157, 60, 167)" stroke-opacity="0.7338582" stroke-linecap="round" stroke-linejoin="round"/>
    <path d="M 69.89691925048828 74.93678283691406 C 64.09844970703125 75.7155990600586 69.00468444824219 80.68960571289062 66.06159973144531 85.53473663330078" stroke-width="1.309454321861267" fill="none" stroke="rgb(165, 181, 40)" stroke-opacity="0.15935473" stroke-linecap="round" stroke-linejoin="round"/>
    <path d="M 65.56340026855469 74.06904602050781 C 68.15579986572266 71.11199951171875 66.51502990722656 77.36753845214844 59.50221252441406 70.98263549804688 C 55.483917236328125 68.89900207519531 58.333030700683594 71.59805297851562 62.2376594543457 78.60313415527344 C 68.13456726074219 77.88543701171875 73.02936553955078 75.31044006347656 77.63927459716797 72.5467300415039" stroke-width="1.1892671585083008" fill="none" stroke="rgb(127, 213, 131)" stroke-opacity="0.22936742" stroke-linecap="round" stroke-linejoin="round"/>
    <path d="M 40.99150466918945 82.40303802490234 C 38.416770935058594 78.6537857055664 35.542320251464844 84.77266693115234 33.30338668823242 81.17120361328125 C 31.42572021484375 82.12893676757812 31.035261154174805 80.32896423339844 25.89943504333496 73.46661376953125 C 25.99800682067871 73.01275634765625 28.707494735717773 70.98443603515625 29.138769149780273 72.62444305419922" stroke-width="1.1892671585083008" fill="none" stroke="rgb(194, 209, 161)" stroke-opacity="0.8389817" stroke-linecap="round" stroke-linejoin="round"/>
    <path d="M 35.08469009399414 84.13646697998047 C 36.86679458618164 85.78591918945312 36.52076721191406 89.86085510253906 34.557491302490234 93.89797973632812 C 41.61576843261719 98.53760528564453 35.519256591796875 100.51737213134766 35.76377868652344 102.71728515625" stroke-width="1.6374536752700806" fill="none" stroke="rgb(225, 22, 91)" stroke-opacity="0.5747949" stroke-linecap="round" stroke-linejoin="round"/>
    <path d="M 62.54344940185547 66.70063018798828 C 64.9506607055664 62.2872314453125 60.75523376464844 58.121681213378906 54.39460372924805 51.92775344848633 C 55.572574615478516 45.02035903930664 51.41065216064453 47.15208053588867 54.414859771728516 48.164005279541016" stroke-width="1.254112958908081" fill="none" stroke="rgb(26, 211, 109)" stroke-opacity="0.19321679" stroke-linecap="round" stroke-linejoin="round"/>
    <path d="M 35.68933868408203 102.74385833740234 C 39.091670989990234 105.80725860595703 35.86322021484375 99.84315490722656 33.94526290893555 93.22306823730469 C 28.345468521118164 89.81092834472656 21.8604679107666 91.57867431640625 24.966211318969727 90.14990997314453 C 20.393369674682617 90.58385467529297 19.58222007751465 89.41118621826172 20.87471580505371 87.3951187133789" stroke-width="1.5934334993362427" fill="none" stroke="rgb(236, 0, 246)" stroke-opacity="0.54032993" stroke-linecap="round" stroke-linejoin="round"/>
    <path d="M 76.65093231201172 72.2454833984375 C 73.98007202148438 71.2400131225586 73.31329345703125 75.34915161132812 70.63822937011719 75.5493392944336 C 64.46090698242188 72.1830825805664 58.82122039794922 77.55105590820312 55.76318359375 74.20003509521484" stroke-width="1.1892671585083008" fill="none" stroke="rgb(247, 63, 245)" stroke-opacity="0.1900806" stroke-linecap="round" stroke-linejoin="round"/>
    <path d="M 77.23445892333984 72.35860443115234 C 69.95073699951172 75.00933837890625 65.92628479003906 68.2805404663086 66.00942993164062 62.25157928466797 C 59.453651428222656 68.095703125 60.57008743286133 68.44361114501953 61.72258758544922 71.27533721923828" stroke-width="1.3793702125549316" fill="none" stroke="rgb(156, 166, 94)" stroke-opacity="0.3592874" stroke-linecap="round" stroke-linejoin="round"/>
    <path d="M 54.37447738647461 46.91009521484375 C 60.03020095825195 46.578758239746094 56.71830749511719 49.966949462890625 63.0920524597168 45.81633758544922" stroke-width="1.4390372037887573" fill="none" stroke="rgb(219, 156, 165)" stroke-opacity="0.4691722" stroke-linecap="round" stroke-linejoin="round"/>
    <path d="M 41.623252868652344 98.25679779052734 C 47.12777328491211 92.91053009033203 52.8355712890625 89.74269104003906 49.94168472290039 88.60901641845703 C 51.51142120361328 88.82966613769531 57.425323486328125 89.8563003540039 60.65333557128906 91.14447021484375 C 65.64026641845703 90.37040710449219 61.23697280883789 93.01943969726562 64.97334289550781 98.6828842163086" stroke-width="1.2256498336791992" fill="none" stroke="rgb(86, 102, 45)" stroke-opacity="0.82241136" stroke-linecap="round" stroke-linejoin="round"/>
    <path d="M 74.73394012451172 61.04399490356445 C 70.18885040283203 60.263397216796875 64.30069732666016 59.27584457397461 61.53828430175781 53.45630645751953 C 55.84356689453125 56.41236877441406 58.38778305053711 54.42782211303711 62.037166595458984 56.9983024597168" stroke-width="1.452195167541504" fill="none" stroke="rgb(113, 236, 5)" stroke-opacity="0.115790345" stroke-linecap="round" stroke-linejoin="round"/>
    <path d="M 41.946983337402344 98.68963623046875 C 36.77501678466797 103.45714569091797 33.5397834777832 98.22962951660156 27.285356521606445 92.89958190917969" stroke-width="1.192923665046692" fill="none" stroke="rgb(238, 241, 244)" stroke-opacity="0.9431764" stroke-linecap="round" stroke-linejoin="round"/>
    <path d="M 40.98226547241211 97.8840103149414 C 35.979286193847656 98.0750961303711 41.727474212646484 93.707763671875 44.6176872253418 88.11378479003906 C 46.72920227050781 87.39493560791016 48.39389419555664 88.97032165527344 50.745304107666016 87.80803680419922 C 51.67303466796875 87.12201690673828 52.435142517089844 87.76264190673828 56.903724670410156 82.74652862548828" stroke-width="1.366092562675476" fill="none" stroke="rgb(5, 228, 231)" stroke-opacity="0.056270536" stroke-linecap="round" stroke-linejoin="round"/>
    <path d="M 97.04903411865234 3.582312822341919 C 96.00069427490234 10.458321571350098 94.68299102783203 16.442583084106445 99.06431579589844 13.212203025817871" stroke-width="1.1892671585083008" fill="none" stroke="rgb(154, 13, 57)" stroke-opacity="0.6324552" stroke-linecap="round" stroke-linejoin="round"/>
    <path d="M 108.36461639404297 37.452999114990234 C 108.86083984375 36.38016128540039 113.4837417602539 41.724788665771484 111.92042541503906 48.16274642944336 C 112.70269775390625 45.28403854370117 118.06671905517578 49.35577392578125 120.43585205078125 43.93687438964844 C 124.77816772460938 41.82300567626953 128.28482055664062 40.77027893066406 130.16627502441406 39.922367095947266" stroke-width="1.1892671585083008" fill="none" stroke="rgb(179, 189, 74)" stroke-opacity="0.22457112" stroke-linecap="round" stroke-linejoin="round"/>
    <path d="M 18.748319625854492 73.36774444580078 C 24.824424743652344 73.61101531982422 23.028072357177734 78.4695053100586 20.489334106445312 80.5924072265625 C 18.551780700683594 77.09559631347656 20.125659942626953 77.52423095703125 13.85339641571045 77.40245056152344" stroke-width="1.6144964694976807" fill="none" stroke="rgb(210, 65, 90)" stroke-opacity="0.9064409" stroke-linecap="round" stroke-linejoin="round"/>
    <path d="M 60.342227935791016 79.50569152832031 C 61.546749114990234 73.65437316894531 66.73683166503906 72.855224609375 66.22591400146484 76.18746185302734" stroke-width="1.1892671585083008" fill="none" stroke="rgb(26, 240, 120)" stroke-opacity="0.7547353" stroke-linecap="round" stroke-linejoin="round"/>
    <path d="M 40.04716873168945 116.48451232910156 C 41.863525390625 111.52991485595703 44.58724594116211 105.99595642089844 44.2135124206543 111.63811492919922 C 44.84602355957031 105.32390594482422 50.25600814819336 102.37084197998047 47.44268035888672 100.91947174072266" stroke-width="1.1892671585083008" fill="none" stroke="rgb(239, 153, 54)" stroke-opacity="0.16888446" stroke-linecap="round" stroke-linejoin="round"/>
    <path d="M 83.740478515625 12.370325088500977 C 84.35333251953125 17.326171875 83.51930236816406 19.5788631439209 76.76596069335938 25.745012283325195 C 73.80841827392578 32.02968215942383 73.55311584472656 33.10469055175781 77.17991638183594 36.12177276611328" stroke-width="1.1892671585083008" fill="none" stroke="rgb(111, 138, 222)" stroke-opacity="0.23704985" stroke-linecap="round" stroke-linejoin="round"/>
    <path d="M 43.9593505859375 108.50914001464844 C 40.25279235839844 106.1041488647461 43.105369567871094 108.27725982666016 46.495235443115234 109.57090759277344" stroke-width="1.1892671585083008" fill="none" stroke="rgb(79, 199, 21)" stroke-opacity="0.6970253" stroke-linecap="round" stroke-linejoin="round"/>
    <path d="M 10.52071475982666 90.64934539794922 C 9.35898208618164 90.96401977539062 13.17121696472168 88.03363037109375 14.390084266662598 94.60504913330078 C 13.43029499053955 100.59381866455078 14.275067329406738 102.67361450195312 9.595975875854492 106.53653717041016 C 15.10038948059082 101.49107360839844 13.170903205871582 102.06069946289062 17.340970993041992 96.29595947265625" stroke-width="1.2925493717193604" fill="none" stroke="rgb(0, 169, 144)" stroke-opacity="0.09684249" stroke-linecap="round" stroke-linejoin="round"/>
    <path d="M 5.723233222961426 32.024261474609375 C 4.533733367919922 36.78468704223633 -1.7350870370864868 33.04136276245117 -5.226311206817627 36.80426025390625 C -2.4641401767730713 29.89885139465332 -5.682279109954834 33.58660125732422 -4.366132736206055 36.56421661376953 C -3.3350188732147217 32.39396286010742 -9.324666023254395 31.322656631469727 -13.833992958068848 25.159400939941406" stroke-width="1.456127643585205" fill="none" stroke="rgb(22, 252, 124)" stroke-opacity="0.16718185" stroke-linecap="round" stroke-linejoin="round"/>
    <path d="M 47.26634979248047 79.84175872802734 C 45.71180725097656 72.06653594970703 46.777374267578125 76.78033447265625 43.95372009277344 82.44285583496094" stroke-width="1.373758316040039" fill="none" stroke="rgb(136, 60, 78)" stroke-opacity="0.05847565" stroke-linecap="round" stroke-linejoin="round"/>
    <path d="M 41.90715026855469 63.66934585571289 C 45.56114196777344 63.34922409057617 38.591243743896484 62.693138122558594 40.59782791137695 59.125186920166016" stroke-width="1.1892671585083008" fill="none" stroke="rgb(147, 99, 38)" stroke-opacity="0.4878243" stroke-linecap="round" stroke-linejoin="round"/>
    <path d="M 57.87199401855469 106.82049560546875 C 54.587066650390625 109.01660919189453 57.24126434326172 112.60061645507812 51.08396530151367 107.5490951538086 C 49.03976058959961 110.5021743774414 49.72386169433594 111.340576171875 48.60757064819336 112.57763671875" stroke-width="1.2190121412277222" fill="none" stroke="rgb(114, 129, 29)" stroke-opacity="0.95972717" stroke-linecap="round" stroke-linejoin="round"/>
    <path d="M 88.17475128173828 35.463783264160156 C 86.6304931640625 30.71959686279297 79.70244598388672 29.636178970336914 86.18819427490234 33.643760681152344 C 84.98786163330078 38.48238754272461 87.1034927368164 39.41427230834961 93.24897766113281 39.64935302734375" stroke-width="1.1892671585083008" fill="none" stroke="rgb(79, 22, 36)" stroke-opacity="0.41164637" stroke-linecap="round" stroke-linejoin="round"/>
    <path d="M 73.82515716552734 125.80340576171875 C 77.51520538330078 130.5623321533203 81.3232421875 133.5826416015625 82.10853576660156 127.5000991821289 C 76.07914733886719 121.5356216430664 80.79413604736328 116.25680541992188 81.48541259765625 116.55952453613281 C 77.85472106933594 121.45350646972656 73.54508209228516 123.33284759521484 67.23876953125 127.0982666015625" stroke-width="1.3752422332763672" fill="none" stroke="rgb(70, 255, 65)" stroke-opacity="0.89979285" stroke-linecap="round" stroke-linejoin="round"/>
    <path d="M 49.250083923339844 94.40201568603516 C 50.667911529541016 100.17333984375 47.845394134521484 96.72411346435547 46.429500579833984 101.9442138671875 C 43.61240005493164 108.03939819335938 42.38042068481445 109.43102264404297 46.181480407714844 115.75777435302734" stroke-width="1.1892671585083008" fill="none" stroke="rgb(182, 231, 13)" stroke-opacity="0.62629586" stroke-linecap="round" stroke-linejoin="round"/>
    <path d="M 126.21083068847656 89.96603393554688 C 128.71432495117188 85.02383422851562 127.66740417480469 87.23396301269531 132.18199157714844 83.36461639404297 C 135.43898010253906 78.85001373291016 133.67210388183594 79.56710815429688 136.6701202392578 85.84154510498047" stroke-width="1.3278597593307495" fill="none" stroke="rgb(25, 73, 219)" stroke-opacity="0.35879725" stroke-linecap="round" stroke-linejoin="round"/>
  </g>
</svg>
