<?xml version="1.0" ?>
<svg xmlns="http://www.w3.org/2000/svg" version="1.1" width="1084.99219" height="1084.99219">
  <defs/>
  <g>
    <path d="M 144.77386474609375 127.50263977050781 C 148.99815368652344 121.61003875732422 147.14813232421875 122.86216735839844 151.0431671142578 118.98098754882812 C 154.45278930664062 115.30765533447266 163.3990936279297 111.39781951904297 171.4082489013672 110.86407470703125 C 178.84278869628906 108.25212097167969 183.87477111816406 111.1510238647461 193.9342803955078 113.72315979003906 C 206.38992309570312 113.07691955566406 222.94357299804688 111.11238098144531 232.92526245117188 109.41648864746094 C 242.85662841796875 112.19172668457031 240.55287170410156 108.9812240600586 242.15289306640625 118.36831665039062 C 244.1197967529297 129.7747802734375 249.2459259033203 158.57904052734375 251.51199340820312 173.593994140625 C 258.9389343261719 185.45860290527344 263.0162658691406 182.7777557373047 269.0916442871094 182.96278381347656 C 270.85504150390625 185.02931213378906 278.6982116699219 185.25315856933594 282.30322265625 183.63796997070312" stroke-width="7.712226390838623" fill="none" stroke="rgb(20, 22, 29)" stroke-opacity="0.9645392" stroke-linecap="round" stroke-linejoin="round"/>
    <path d="M 311.2347412109375 160.03573608398438 C 331.2743835449219 165.39773559570312 336.03973388671875 165.54928588867188 340.06103515625 168.96575927734375" stroke-width="4.379173755645752" fill="none" stroke="rgb(41, 32, 0)" stroke-opacity="1.0" stroke-linecap="round" stroke-linejoin="round"/>
    <path d="M 316.646484375 216.58335876464844 C 318.0396728515625 218.11605834960938 319.0123291015625 220.25372314453125 318.9836120605469 220.2712860107422 C 319.4936828613281 216.6467742919922 319.2168884277344 218.7353973388672 311.0648193359375 222.39938354492188 C 311.4891052246094 213.24725341796875 301.3334655761719 205.82530212402344 290.5491638183594 204.2673797607422 C 274.84979248046875 195.87376403808594 223.88107299804688 197.93614196777344 173.17747497558594 206.71340942382812" stroke-width="7.372081756591797" fill="none" stroke="rgb(24, 23, 34)" stroke-opacity="0.9606434" stroke-linecap="round" stroke-linejoin="round"/>
    <path d="M 100.39216613769531 140.42308044433594 C 107.17508697509766 149.29518127441406 111.20398712158203 156.52557373046875 116.7027359008789 155.5112762451172 C 116.68035888671875 159.3311309814453 118.7547378540039 157.59840393066406 117.18560028076172 151.70803833007812 C 111.10449981689453 152.30938720703125 101.7874984741211 145.2284393310547 95.3650894165039 146.06597900390625 C 94.70287322998047 147.0398406982422 95.1515121459961 158.1494140625 94.11874389648438 165.80160522460938 C 93.92158508300781 175.35581970214844 94.26199340820312 184.94105529785156 97.75240325927734 182.8766326904297 C 96.96697998046875 183.91989135742188 95.90975952148438 180.57518005371094 99.54721069335938 183.03286743164062 C 105.90269470214844 181.9977569580078 117.86479187011719 184.23602294921875 116.77999877929688 188.51893615722656 C 113.79593658447266 195.84991455078125 106.73890686035156 207.52757263183594 106.47943115234375 211.08401489257812 C 104.29930877685547 214.42066955566406 110.68347930908203 206.6107940673828 111.8935775756836 205.8966064453125 C 115.62870025634766 207.9635772705078 109.336181640625 210.22193908691406 107.04495239257812 209.39190673828125 C 103.8155517578125 210.34373474121094 101.83602142333984 208.5594940185547 99.66741943359375 206.2093963623047 C 92.9144515991211 204.29173278808594 109.61229705810547 208.70828247070312 127.04866027832031 209.5535888671875" stroke-width="6.204825401306152" fill="none" stroke="rgb(0, 25, 6)" stroke-opacity="1.0" stroke-linecap="round" stroke-linejoin="round"/>
    <path d="M 286.1990661621094 165.86968994140625 C 280.63427734375 191.66526794433594 284.3340148925781 177.69027709960938 286.6238098144531 180.23519897460938" stroke-width="4.674654006958008" fill="none" stroke="rgb(202, 43, 244)" stroke-opacity="0.5367855" stroke-linecap="round" stroke-linejoin="round"/>
    <path d="M 195.3408203125 182.73223876953125 C 202.858642578125 180.15052795410156 184.6762237548828 198.7696990966797 168.1797332763672 200.5699462890625" stroke-width="5.745788097381592" fill="none" stroke="rgb(244, 17, 219)" stroke-opacity="0.5330802" stroke-linecap="round" stroke-linejoin="round"/>
    <path d="M 96.28626251220703 176.91729736328125 C 97.92749786376953 164.83087158203125 99.77096557617188 171.70797729492188 104.7318344116211 169.09207153320312" stroke-width="3.6206753253936768" fill="none" stroke="rgb(118, 65, 45)" stroke-opacity="0.47833684" stroke-linecap="round" stroke-linejoin="round"/>
    <path d="M 155.32179260253906 122.13225555419922 C 171.3471221923828 117.43556213378906 189.15487670898438 111.91348266601562 189.8291778564453 115.18911743164062 C 195.77554321289062 120.31389617919922 190.99380493164062 134.85459899902344 189.3206329345703 148.83399963378906 C 187.6170196533203 161.78045654296875 174.53758239746094 157.35018920898438 163.2041473388672 155.48524475097656" stroke-width="8.0917387008667" fill="none" stroke="rgb(255, 237, 22)" stroke-opacity="0.4996972" stroke-linecap="round" stroke-linejoin="round"/>
    <path d="M 94.39752197265625 217.5730438232422 C 100.11480712890625 219.5508270263672 108.96217346191406 226.55848693847656 110.43316650390625 220.53533935546875 C 117.96288299560547 215.6684112548828 125.13260650634766 195.852783203125 132.17672729492188 176.0712432861328 C 142.62644958496094 160.40074157714844 135.32508850097656 194.5178680419922 126.62725830078125 225.62481689453125" stroke-width="5.809084415435791" fill="none" stroke="rgb(245, 172, 222)" stroke-opacity="0.46680874" stroke-linecap="round" stroke-linejoin="round"/>
    <path d="M 106.74093627929688 169.1571807861328 C 109.38581848144531 167.49533081054688 113.38448333740234 162.165771484375 115.62250518798828 163.50405883789062 C 116.62997436523438 163.9580078125 115.44927978515625 175.19442749023438 114.32656860351562 183.79681396484375 C 108.57227325439453 192.92237854003906 98.92371368408203 187.7139434814453 89.41033172607422 183.0465850830078" stroke-width="3.6206753253936768" fill="none" stroke="rgb(219, 175, 145)" stroke-opacity="0.5273387" stroke-linecap="round" stroke-linejoin="round"/>
    <path d="M 108.33441162109375 211.98345947265625 C 113.88014221191406 213.1405792236328 119.5481948852539 212.33827209472656 124.58210754394531 210.18685913085938 C 130.356689453125 210.5828094482422 154.11878967285156 210.0869903564453 178.5386505126953 208.77713012695312" stroke-width="5.006113052368164" fill="none" stroke="rgb(40, 126, 147)" stroke-opacity="0.5339643" stroke-linecap="round" stroke-linejoin="round"/>
    <path d="M 202.5322723388672 117.87977600097656 C 183.01351928710938 126.83867645263672 167.25570678710938 100.53782653808594 146.15806579589844 85.03131866455078" stroke-width="6.5892157554626465" fill="none" stroke="rgb(160, 13, 235)" stroke-opacity="0.48818776" stroke-linecap="round" stroke-linejoin="round"/>
    <path d="M 99.58888244628906 179.318603515625 C 95.91548156738281 173.126708984375 92.68927001953125 164.27305603027344 85.19638061523438 157.30763244628906 C 73.57637023925781 152.44284057617188 60.356239318847656 146.16256713867188 45.09334182739258 142.05233764648438 C 29.837844848632812 133.2863006591797 21.607818603515625 138.94996643066406 13.935203552246094 149.5005340576172" stroke-width="3.8358941078186035" fill="none" stroke="rgb(52, 127, 214)" stroke-opacity="0.51005715" stroke-linecap="round" stroke-linejoin="round"/>
    <path d="M 95.53761291503906 193.19268798828125 C 109.22272491455078 197.0404815673828 121.4982681274414 202.1446533203125 119.1192626953125 201.30657958984375 C 120.46443176269531 207.1361846923828 115.06391906738281 198.8260955810547 110.5238265991211 184.11346435546875 C 104.16638946533203 175.9158477783203 134.1459503173828 169.40345764160156 169.4740753173828 167.34097290039062" stroke-width="3.6206753253936768" fill="none" stroke="rgb(111, 28, 55)" stroke-opacity="0.49791923" stroke-linecap="round" stroke-linejoin="round"/>
    <path d="M 105.56455993652344 167.0467529296875 C 112.03919982910156 162.39834594726562 117.89508056640625 155.29457092285156 122.55699920654297 146.91380310058594 C 126.36369323730469 137.86058044433594 132.143310546875 133.73524475097656 133.96636962890625 125.79814147949219" stroke-width="8.071810722351074" fill="none" stroke="rgb(203, 48, 154)" stroke-opacity="0.5300039" stroke-linecap="round" stroke-linejoin="round"/>
    <path d="M 281.3819885253906 168.74009704589844 C 282.1258850097656 168.45318603515625 281.78564453125 172.10914611816406 281.28094482421875 174.3861541748047 C 282.540283203125 176.45103454589844 274.1229553222656 175.13885498046875 259.83758544921875 174.55970764160156" stroke-width="8.16953182220459" fill="none" stroke="rgb(255, 180, 185)" stroke-opacity="0.53364766" stroke-linecap="round" stroke-linejoin="round"/>
    <path d="M 155.13681030273438 88.57840728759766 C 150.37355041503906 95.41438293457031 142.38107299804688 96.94031524658203 130.65589904785156 95.38733673095703 C 123.562744140625 96.76937866210938 131.89071655273438 94.54173278808594 142.81854248046875 92.7166748046875" stroke-width="3.729846715927124" fill="none" stroke="rgb(185, 159, 226)" stroke-opacity="0.48441446" stroke-linecap="round" stroke-linejoin="round"/>
    <path d="M 142.89559936523438 85.3442611694336 C 146.75877380371094 103.91419219970703 150.61158752441406 120.4350357055664 145.97950744628906 126.74518585205078 C 143.9385528564453 133.6122589111328 141.9576416015625 130.59312438964844 136.39817810058594 125.61056518554688 C 130.84268188476562 125.76891326904297 142.24070739746094 123.44029235839844 151.73886108398438 122.84063720703125" stroke-width="5.693517684936523" fill="none" stroke="rgb(12, 90, 10)" stroke-opacity="0.5302849" stroke-linecap="round" stroke-linejoin="round"/>
    <path d="M 164.9757080078125 165.69866943359375 C 145.1600341796875 168.6997528076172 141.43885803222656 156.52224731445312 167.6103057861328 156.45895385742188" stroke-width="6.524703502655029" fill="none" stroke="rgb(4, 32, 0)" stroke-opacity="0.5367264" stroke-linecap="round" stroke-linejoin="round"/>
    <path d="M 134.26321411132812 216.95413208007812 C 123.44921112060547 232.7548828125 116.96228790283203 248.3999786376953 111.98728942871094 255.76776123046875 C 108.99694061279297 265.16644287109375 108.32032012939453 267.2027587890625 110.31382751464844 272.0255126953125 C 109.73269653320312 273.970458984375 119.684814453125 243.59213256835938 131.07518005371094 211.23358154296875" stroke-width="3.6206753253936768" fill="none" stroke="rgb(104, 164, 0)" stroke-opacity="0.4651637" stroke-linecap="round" stroke-linejoin="round"/>
    <path d="M 286.3975830078125 182.22438049316406 C 288.50994873046875 182.6587677001953 292.7463684082031 185.3030242919922 301.25811767578125 186.1024932861328 C 307.5654602050781 184.3038330078125 300.529296875 170.6918487548828 296.1134033203125 154.14166259765625" stroke-width="3.7833406925201416" fill="none" stroke="rgb(196, 240, 12)" stroke-opacity="0.47282588" stroke-linecap="round" stroke-linejoin="round"/>
    <path d="M 111.27594757080078 232.78863525390625 C 118.93684387207031 219.8834686279297 120.50031280517578 210.45736694335938 117.18740844726562 193.6094512939453 C 113.48725891113281 180.08804321289062 103.73060607910156 163.18185424804688 95.15665435791016 144.84922790527344 C 88.1741943359375 127.88174438476562 97.45912170410156 135.9618682861328 116.60264587402344 141.1957550048828" stroke-width="3.6206753253936768" fill="none" stroke="rgb(147, 10, 105)" stroke-opacity="0.46261954" stroke-linecap="round" stroke-linejoin="round"/>
    <path d="M 283.8703918457031 184.93875122070312 C 286.0137023925781 170.5010223388672 285.17413330078125 158.27711486816406 272.8489685058594 153.45640563964844 C 261.7304992675781 145.85623168945312 248.25123596191406 136.32093811035156 236.43138122558594 125.7493667602539 C 218.3547821044922 122.08106994628906 220.88600158691406 152.5002899169922 226.39402770996094 176.05166625976562" stroke-width="9.286906242370605" fill="none" stroke="rgb(134, 41, 124)" stroke-opacity="0.5274537" stroke-linecap="round" stroke-linejoin="round"/>
    <path d="M 166.29562377929688 146.13816833496094 C 160.42153930664062 145.41818237304688 157.15780639648438 142.2484130859375 155.3677215576172 141.55653381347656 C 157.7886962890625 140.91819763183594 156.5152130126953 143.52099609375 152.10626220703125 145.4023895263672 C 150.60206604003906 145.82461547851562 157.39903259277344 124.30281066894531 163.042724609375 101.0868148803711" stroke-width="3.6206753253936768" fill="none" stroke="rgb(230, 85, 175)" stroke-opacity="0.46737492" stroke-linecap="round" stroke-linejoin="round"/>
    <path d="M 278.1617431640625 178.91989135742188 C 271.81500244140625 180.25767517089844 262.3364562988281 178.22996520996094 250.66184997558594 175.16725158691406 C 240.64431762695312 172.0749969482422 228.51148986816406 176.05056762695312 220.71424865722656 184.92718505859375" stroke-width="3.956294298171997" fill="none" stroke="rgb(223, 217, 108)" stroke-opacity="0.49999908" stroke-linecap="round" stroke-linejoin="round"/>
    <path d="M 125.8284683227539 223.7003936767578 C 106.44835662841797 236.56361389160156 95.60713195800781 255.59808349609375 94.749267578125 275.1968078613281 C 87.03980255126953 288.74053955078125 92.31172943115234 295.1523742675781 100.37593078613281 300.574462890625 C 101.51754760742188 315.2963562011719 102.96427154541016 318.1996154785156 107.70555877685547 314.81683349609375" stroke-width="3.6206753253936768" fill="none" stroke="rgb(87, 66, 154)" stroke-opacity="0.5396818" stroke-linecap="round" stroke-linejoin="round"/>
    <path d="M 88.24602508544922 201.38568115234375 C 100.08885192871094 208.70382690429688 112.39253234863281 217.48899841308594 105.15914154052734 217.48281860351562 C 101.9465560913086 215.58450317382812 87.80075073242188 195.33863830566406 72.18885803222656 176.92315673828125 C 56.16928482055664 159.13731384277344 79.57238006591797 172.83541870117188 100.53823852539062 190.7959442138672" stroke-width="3.6206753253936768" fill="none" stroke="rgb(38, 180, 145)" stroke-opacity="0.46198133" stroke-linecap="round" stroke-linejoin="round"/>
    <path d="M 284.4025573730469 184.77520751953125 C 288.8197937011719 170.05099487304688 291.25555419921875 154.58193969726562 293.993896484375 138.29727172851562 C 297.3152160644531 125.8594741821289 291.51287841796875 130.35255432128906 282.92852783203125 135.09303283691406" stroke-width="4.527812957763672" fill="none" stroke="rgb(7, 105, 58)" stroke-opacity="0.53461194" stroke-linecap="round" stroke-linejoin="round"/>
    <path d="M 21.84694480895996 149.7317657470703 C 23.40772247314453 163.2213897705078 49.36420822143555 163.96731567382812 37.442893981933594 163.43881225585938" stroke-width="3.6206753253936768" fill="none" stroke="rgb(51, 142, 236)" stroke-opacity="0.49005106" stroke-linecap="round" stroke-linejoin="round"/>
    <path d="M 118.14134216308594 135.95938110351562 C 107.5689468383789 128.3690185546875 98.71719360351562 118.90116119384766 90.29205322265625 109.15188598632812 C 74.86503601074219 103.32563018798828 67.15861511230469 107.38682556152344 57.84625244140625 108.92232513427734" stroke-width="4.672618865966797" fill="none" stroke="rgb(181, 174, 224)" stroke-opacity="0.5346715" stroke-linecap="round" stroke-linejoin="round"/>
    <path d="M 201.74192810058594 73.1380844116211 C 207.85110473632812 94.75784301757812 211.0688018798828 113.49164581298828 222.47576904296875 119.01454162597656 C 230.39190673828125 127.76416015625 238.4390106201172 120.6037368774414 255.1003875732422 113.83122253417969 C 266.997314453125 111.03553771972656 258.50628662109375 98.05945587158203 250.26576232910156 79.36111450195312" stroke-width="3.754610776901245" fill="none" stroke="rgb(201, 151, 63)" stroke-opacity="0.46784496" stroke-linecap="round" stroke-linejoin="round"/>
    <path d="M 124.95606231689453 95.83870697021484 C 114.60957336425781 95.08749389648438 100.28316497802734 94.1571273803711 98.2278823852539 94.8558120727539 C 96.87832641601562 94.70677185058594 100.62419128417969 90.8021240234375 105.00798034667969 88.26058197021484 C 108.42638397216797 84.59007263183594 116.94369506835938 72.47032165527344 126.88236236572266 62.40984344482422" stroke-width="3.80088472366333" fill="none" stroke="rgb(106, 206, 132)" stroke-opacity="0.51981294" stroke-linecap="round" stroke-linejoin="round"/>
    <path d="M 13.454872131347656 163.60012817382812 C 23.6326961517334 187.77671813964844 17.550373077392578 206.3728485107422 19.642343521118164 196.4569091796875" stroke-width="4.7700419425964355" fill="none" stroke="rgb(198, 128, 208)" stroke-opacity="0.50918835" stroke-linecap="round" stroke-linejoin="round"/>
    <path d="M 188.6294403076172 247.3133087158203 C 176.8504638671875 264.1601867675781 203.24803161621094 273.4236145019531 206.83990478515625 254.491943359375" stroke-width="5.787609100341797" fill="none" stroke="rgb(217, 183, 112)" stroke-opacity="0.50876117" stroke-linecap="round" stroke-linejoin="round"/>
    <path d="M 357.5641784667969 96.50331115722656 C 330.3838195800781 89.81370544433594 329.76385498046875 91.17373657226562 297.0188903808594 103.51914978027344" stroke-width="4.493997097015381" fill="none" stroke="rgb(70, 217, 76)" stroke-opacity="0.4905093" stroke-linecap="round" stroke-linejoin="round"/>
    <path d="M 50.738712310791016 298.4269104003906 C 49.576473236083984 305.3411560058594 40.098304748535156 295.82391357421875 56.516910552978516 308.1474609375" stroke-width="3.6206753253936768" fill="none" stroke="rgb(111, 208, 125)" stroke-opacity="0.5046654" stroke-linecap="round" stroke-linejoin="round"/>
    <path d="M 70.0996322631836 206.16552734375 C 71.61215209960938 222.2515869140625 78.16527557373047 233.2816162109375 81.68814849853516 239.5835723876953 C 84.81147003173828 245.535888671875 91.54800415039062 242.4459228515625 92.53855895996094 243.94830322265625 C 93.79877471923828 245.2410430908203 91.94824981689453 249.9474639892578 92.54166412353516 259.2883605957031" stroke-width="4.167472839355469" fill="none" stroke="rgb(15, 13, 165)" stroke-opacity="0.5337043" stroke-linecap="round" stroke-linejoin="round"/>
    <path d="M 260.3105163574219 363.7513732910156 C 282.9067077636719 359.3570556640625 299.4639587402344 359.1694030761719 295.5337219238281 361.38323974609375" stroke-width="3.6206753253936768" fill="none" stroke="rgb(0, 160, 19)" stroke-opacity="0.4640655" stroke-linecap="round" stroke-linejoin="round"/>
    <path d="M 269.1949157714844 368.5343322753906 C 266.5853576660156 398.48809814453125 261.9902648925781 429.7258605957031 263.1057434082031 442.2379150390625 C 266.285888671875 456.7485046386719 273.52838134765625 450.95770263671875 280.7668762207031 445.1669616699219 C 288.0093688964844 439.376220703125 288.3986511230469 430.03717041015625 288.7920227050781 420.6981506347656" stroke-width="3.627000331878662" fill="none" stroke="rgb(65, 205, 8)" stroke-opacity="0.4834822" stroke-linecap="round" stroke-linejoin="round"/>
    <path d="M 101.69583129882812 3.4512386322021484 C 100.28751373291016 -9.793596267700195 98.79319763183594 -27.56717300415039 97.53544616699219 -46.441192626953125 C 98.01719665527344 -65.0406494140625 99.65547943115234 -56.974945068359375 101.29376220703125 -48.905189514160156" stroke-width="3.772005558013916" fill="none" stroke="rgb(137, 94, 209)" stroke-opacity="0.47391057" stroke-linecap="round" stroke-linejoin="round"/>
    <path d="M 129.6500701904297 342.8772277832031 C 124.9569091796875 354.7201232910156 114.7118148803711 359.7878112792969 123.52391815185547 358.7667236328125 C 126.77217102050781 353.39935302734375 137.52294921875 331.1468811035156 150.07215881347656 310.966064453125 C 169.47093200683594 292.86041259765625 174.2711944580078 303.6221008300781 184.47164916992188 319.58245849609375" stroke-width="4.193780899047852" fill="none" stroke="rgb(76, 91, 87)" stroke-opacity="0.53540534" stroke-linecap="round" stroke-linejoin="round"/>
    <path d="M 133.65089416503906 62.99622344970703 C 137.0906219482422 72.12273406982422 140.20082092285156 79.88819122314453 154.830078125 85.66632843017578 C 161.85426330566406 98.33894348144531 176.0771026611328 111.11322784423828 190.26524353027344 123.96688842773438 C 202.7205810546875 138.4998779296875 197.19212341308594 138.74171447753906 192.24176025390625 138.5347900390625" stroke-width="5.227518081665039" fill="none" stroke="rgb(32, 160, 149)" stroke-opacity="0.48420146" stroke-linecap="round" stroke-linejoin="round"/>
    <path d="M 284.4404602050781 186.9866180419922 C 279.65338134765625 195.17555236816406 266.848876953125 208.28985595703125 271.7479553222656 190.3314971923828" stroke-width="4.2100138664245605" fill="none" stroke="rgb(215, 11, 36)" stroke-opacity="0.5085155" stroke-linecap="round" stroke-linejoin="round"/>
    <path d="M 350.46649169921875 378.9816589355469 C 361.8522033691406 396.9903564453125 371.0745849609375 406.7842712402344 378.1822204589844 417.0697326660156" stroke-width="3.6206753253936768" fill="none" stroke="rgb(221, 177, 72)" stroke-opacity="0.5309853" stroke-linecap="round" stroke-linejoin="round"/>
    <path d="M 164.20948791503906 344.10845947265625 C 180.60154724121094 310.2999572753906 172.85438537597656 327.19866943359375 183.71469116210938 375.1729431152344" stroke-width="4.035589694976807" fill="none" stroke="rgb(168, 255, 17)" stroke-opacity="0.52675176" stroke-linecap="round" stroke-linejoin="round"/>
    <path d="M 343.6318664550781 252.43214416503906 C 344.4326477050781 238.7064971923828 331.0154113769531 249.48680114746094 337.121337890625 279.195068359375" stroke-width="3.6206753253936768" fill="none" stroke="rgb(133, 245, 59)" stroke-opacity="0.47482845" stroke-linecap="round" stroke-linejoin="round"/>
    <path d="M 48.71687698364258 314.81927490234375 C 56.85316848754883 326.5519714355469 69.82086181640625 333.79345703125 79.16963958740234 333.5651550292969 C 91.36485290527344 335.2583923339844 94.6084213256836 333.4378662109375 106.15258026123047 335.72509765625 C 112.44314575195312 333.0049133300781 91.7513656616211 324.7712097167969 75.81812286376953 316.52532958984375" stroke-width="3.6206753253936768" fill="none" stroke="rgb(134, 13, 61)" stroke-opacity="0.49874043" stroke-linecap="round" stroke-linejoin="round"/>
    <path d="M 303.361328125 335.59393310546875 C 323.7308349609375 365.4590759277344 321.6476745605469 363.40283203125 323.7352294921875 324.4971923828125" stroke-width="3.7040939331054688" fill="none" stroke="rgb(102, 120, 220)" stroke-opacity="0.5022713" stroke-linecap="round" stroke-linejoin="round"/>
    <path d="M 87.73828887939453 110.57865905761719 C 103.92170715332031 87.1166763305664 101.94074249267578 89.44672393798828 117.31385040283203 101.25376892089844" stroke-width="4.482933044433594" fill="none" stroke="rgb(74, 202, 57)" stroke-opacity="0.5272117" stroke-linecap="round" stroke-linejoin="round"/>
    <path d="M 275.7322692871094 187.7376708984375 C 272.4855041503906 190.0329132080078 269.5444030761719 190.7741241455078 265.62835693359375 185.79611206054688 C 263.5943908691406 181.68087768554688 262.2572937011719 171.5932159423828 263.8730163574219 156.95989990234375 C 265.8997497558594 148.4923095703125 254.3563690185547 151.05319213867188 245.21067810058594 145.04360961914062" stroke-width="3.639653205871582" fill="none" stroke="rgb(35, 148, 157)" stroke-opacity="0.50370705" stroke-linecap="round" stroke-linejoin="round"/>
    <path d="M 311.8293762207031 408.2934265136719 C 310.63311767578125 416.4524230957031 311.6914978027344 405.0736389160156 312.59173583984375 422.940673828125" stroke-width="3.6206753253936768" fill="none" stroke="rgb(132, 254, 67)" stroke-opacity="0.5" stroke-linecap="round" stroke-linejoin="round"/>
    <path d="M 6.210495948791504 257.380859375 C 11.905848503112793 260.2854309082031 14.64011287689209 264.4613952636719 18.593433380126953 265.0433654785156 C 26.83048439025879 263.218994140625 22.9404296875 253.41830444335938 16.579790115356445 248.72470092773438" stroke-width="3.6206753253936768" fill="none" stroke="rgb(58, 204, 125)" stroke-opacity="0.49619934" stroke-linecap="round" stroke-linejoin="round"/>
    <path d="M 140.5135955810547 19.44281768798828 C 135.32994079589844 28.59438705444336 130.2272186279297 35.251495361328125 121.02664947509766 32.23746871948242 C 118.69451904296875 34.5518798828125 119.03949737548828 26.377544403076172 118.72207641601562 13.333626747131348 C 119.650390625 4.3907647132873535 127.76681518554688 10.861544609069824 131.8941192626953 19.133543014526367" stroke-width="3.882655620574951" fill="none" stroke="rgb(92, 141, 251)" stroke-opacity="0.53697" stroke-linecap="round" stroke-linejoin="round"/>
    <path d="M 218.7119140625 262.8879089355469 C 222.5476837158203 261.03717041015625 227.39938354492188 257.3307800292969 232.5050048828125 254.19683837890625 C 235.0949249267578 252.12469482421875 235.6195831298828 240.6275634765625 236.2721710205078 231.4422607421875" stroke-width="4.5566205978393555" fill="none" stroke="rgb(169, 160, 120)" stroke-opacity="0.5319889" stroke-linecap="round" stroke-linejoin="round"/>
    <path d="M 118.49018859863281 109.28710174560547 C 118.51203918457031 109.50702667236328 118.10530853271484 108.03927612304688 116.83946990966797 108.0033950805664 C 118.61006164550781 109.63526916503906 119.6826400756836 109.80635070800781 118.61911010742188 108.38468170166016 C 120.03893280029297 108.75857543945312 120.81060791015625 108.69611358642578 122.76617431640625 108.53410339355469 C 123.20948028564453 106.98863220214844 124.47835540771484 106.01271057128906 128.91770935058594 106.7824935913086 C 133.36221313476562 107.47748565673828 136.95372009277344 106.79483795166016 141.7182159423828 105.16414642333984 C 145.48731994628906 103.20466613769531 147.9003143310547 104.14591217041016 149.8804168701172 106.3453598022461 C 151.71939086914062 108.70801544189453 153.3894500732422 111.9271240234375 152.6800994873047 115.68848419189453 C 152.62203979492188 119.82164764404297 153.4017791748047 121.24544525146484 156.34454345703125 122.10347747802734 C 158.31358337402344 121.07281494140625 158.13092041015625 124.09828186035156 153.76019287109375 127.49404907226562 C 151.1375732421875 128.32073974609375 150.24632263183594 130.4696502685547 148.3827667236328 133.1803436279297 C 146.7140350341797 136.2330780029297 143.9369354248047 139.9399871826172 140.05616760253906 142.45806884765625 C 139.0003204345703 147.9366455078125 135.66256713867188 150.86753845214844 132.2388153076172 151.69989013671875 C 128.15765380859375 151.5056915283203 129.785400390625 157.9051971435547 127.33253479003906 158.2069091796875 C 122.02095031738281 154.40866088867188 115.93929290771484 156.21115112304688 111.36666870117188 158.34864807128906 C 106.5785903930664 160.61289978027344 102.71080780029297 159.9184112548828 98.94477844238281 159.3199462890625 C 95.88441467285156 158.0362548828125 92.4464340209961 157.1206817626953 93.88369750976562 151.1359405517578 C 88.74166870117188 149.6426544189453 83.29290771484375 153.20677185058594 83.87214660644531 152.44020080566406 C 84.72705841064453 147.1476593017578 84.92688751220703 146.68841552734375 85.21707153320312 145.1299285888672 C 89.51842498779297 146.80581665039062 90.16526794433594 146.49932861328125 90.57149505615234 143.07565307617188 C 90.6650619506836 139.2989959716797 94.50910186767578 136.75003051757812 104.8671646118164 133.66404724121094 C 119.38643646240234 134.4039764404297 139.43226623535156 133.89833068847656 148.24652099609375 132.41632080078125 C 156.5650634765625 132.1008758544922 159.2025604248047 133.56773376464844 166.23809814453125 133.0496826171875 C 169.57054138183594 133.31277465820312 171.44992065429688 136.04017639160156 171.12930297851562 139.48651123046875 C 173.20419311523438 140.94216918945312 173.43243408203125 141.76353454589844 173.6644744873047 142.30714416503906 C 174.6807403564453 146.1964111328125 174.90045166015625 146.69073486328125 174.1834259033203 148.83822631835938 C 172.8170623779297 151.05381774902344 173.3770751953125 153.42506408691406 171.24398803710938 157.8921661376953 C 173.36241149902344 161.58990478515625 173.0939483642578 164.7886962890625 172.9967498779297 167.17544555664062 C 172.65106201171875 169.53555297851562 172.8414306640625 171.2935333251953 172.5485382080078 172.1716766357422 C 171.5918426513672 172.8567352294922 171.69090270996094 173.6062469482422 168.2797088623047 175.99131774902344 C 166.7004852294922 177.79959106445312 168.2854461669922 181.21803283691406 170.8145751953125 182.52194213867188 C 173.41537475585938 184.9705047607422 179.31790161132812 183.80357360839844 183.73883056640625 183.34120178222656 C 186.0774688720703 186.09034729003906 189.0644989013672 189.81588745117188 193.7053680419922 191.26730346679688 C 197.64683532714844 192.9216766357422 198.97731018066406 196.33078002929688 199.97068786621094 201.03587341308594 C 202.14212036132812 202.42965698242188 205.8174591064453 201.56195068359375 208.56298828125 203.7794189453125 C 211.1862335205078 204.68695068359375 221.1116485595703 205.08950805664062 229.72711181640625 203.3421173095703 C 236.60867309570312 199.34866333007812 247.5329132080078 191.50582885742188 261.1810607910156 194.6067657470703 C 270.6003723144531 191.28646850585938 276.4925537109375 189.3362274169922 280.7045593261719 188.8151397705078 C 280.31317138671875 183.64064025878906 283.9318542480469 183.8910369873047 284.2575378417969 188.06137084960938 C 282.8846435546875 189.07357788085938 280.40301513671875 192.32049560546875 275.6578063964844 197.54351806640625 C 271.0146179199219 202.3378143310547 262.67999267578125 207.50961303710938 252.82528686523438 212.5361785888672 C 242.78372192382812 217.47894287109375 232.106689453125 223.0934600830078 222.35768127441406 225.95655822753906 C 212.52178955078125 228.5605010986328 200.0872039794922 226.04061889648438 188.77394104003906 230.0098419189453 C 180.49337768554688 237.88397216796875 160.10107421875 238.83485412597656 146.07615661621094 238.47503662109375 C 137.7062530517578 244.7405548095703 133.77772521972656 246.58241271972656 131.29348754882812 248.3153533935547 C 124.2958984375 242.33970642089844 119.63738250732422 243.5264129638672 116.31513977050781 244.42539978027344 C 115.3758316040039 243.5384521484375 118.0584487915039 243.3529052734375 120.54512023925781 242.11325073242188 C 123.5250244140625 241.2001190185547 127.72647094726562 240.5321807861328 132.33377075195312 241.206787109375 C 137.06829833984375 241.11618041992188 143.06344604492188 239.8323211669922 151.08546447753906 245.5127410888672 C 155.7274627685547 245.26548767089844 159.02627563476562 242.0198211669922 164.1453399658203 237.8141632080078 C 167.0467529296875 237.28616333007812 172.9799346923828 237.88214111328125 180.04983520507812 237.79759216308594 C 181.55088806152344 242.54751586914062 181.72000122070312 242.77447509765625 187.47042846679688 237.87603759765625 C 195.33612060546875 237.78262329101562 203.03802490234375 237.94070434570312 206.95223999023438 238.5051727294922 C 210.4688720703125 239.33084106445312 210.41958618164062 240.27796936035156 210.86647033691406 240.51809692382812 C 211.3638916015625 241.0719451904297 211.6656494140625 240.62060546875 205.27838134765625 242.92453002929688 C 204.75918579101562 245.77423095703125 203.4182891845703 252.18167114257812 206.57101440429688 259.9483337402344 C 205.23399353027344 260.595947265625 203.56414794921875 260.3894958496094 201.63597106933594 261.38458251953125 C 203.51907348632812 266.3186340332031 201.58558654785156 268.76141357421875 199.49276733398438 270.2280578613281 C 193.7660369873047 268.66326904296875 189.84950256347656 268.3373718261719 190.18490600585938 276.3941955566406 C 185.87692260742188 278.6885986328125 177.90379333496094 281.50054931640625 171.09776306152344 284.5769348144531 C 164.0915985107422 287.1156005859375 157.0492706298828 288.26470947265625 146.7252655029297 285.25006103515625 C 142.16592407226562 287.9202880859375 139.31332397460938 290.4823303222656 140.64791870117188 292.6484375 C 140.7461700439453 298.3537292480469 140.44430541992188 298.28106689453125 140.53065490722656 296.98248291015625 C 140.5298614501953 293.6310119628906 141.61705017089844 294.3768005371094 142.0491943359375 294.8385925292969 C 142.29063415527344 296.01092529296875 137.3428497314453 295.6147155761719 139.10040283203125 294.4229736328125 C 141.27499389648438 293.8863830566406 149.40187072753906 298.0072937011719 158.04489135742188 295.50775146484375 C 163.6437530517578 289.0064392089844 181.56008911132812 287.4599609375 193.80702209472656 285.1478271484375 C 204.7974853515625 281.8493347167969 212.8787384033203 278.707275390625 216.26658630371094 276.5653381347656 C 222.65701293945312 276.7117004394531 227.07794189453125 277.49468994140625 229.59078979492188 277.2041320800781 C 230.84066772460938 277.26727294921875 229.5968780517578 278.8514404296875 230.2595672607422 284.79095458984375 C 228.3646697998047 286.1479797363281 225.39276123046875 287.3913269042969 220.1151123046875 285.66473388671875 C 218.34120178222656 287.7693176269531 216.3328399658203 288.82684326171875 214.02842712402344 289.75885009765625 C 214.49957275390625 293.65863037109375 213.14840698242188 295.5431823730469 211.35426330566406 297.5345764160156 C 207.95252990722656 296.75042724609375 206.5155487060547 299.1104736328125 209.2947540283203 304.2921142578125 C 207.85488891601562 303.9026184082031 207.4472198486328 303.2669677734375 203.38490295410156 301.3246765136719 C 203.2257843017578 301.9150695800781 203.0254364013672 302.97967529296875 201.8955841064453 302.59942626953125 C 201.282470703125 303.14288330078125 200.8577880859375 303.604248046875 205.2390899658203 302.9433288574219 C 210.4766082763672 302.33087158203125 215.14024353027344 295.54278564453125 220.41790771484375 289.3697509765625 C 223.4413299560547 280.8136291503906 231.04702758789062 272.10247802734375 236.26470947265625 263.8845520019531" stroke-width="16.50153923034668" fill="none" stroke="rgb(238, 77, 89)" stroke-opacity="0.20544213" stroke-linecap="round" stroke-linejoin="round"/>
    <path d="M 87.53897857666016 109.2317123413086 C 89.4512939453125 133.53599548339844 73.70507049560547 141.22360229492188 86.36101531982422 143.59716796875 C 87.52051544189453 156.31454467773438 71.38446807861328 154.29949951171875 81.35372161865234 136.29141235351562 C 84.12480163574219 137.08914184570312 71.5774917602539 127.40708923339844 58.168495178222656 126.305419921875" stroke-width="5.039403915405273" fill="none" stroke="rgb(35, 149, 205)" stroke-opacity="0.48194316" stroke-linecap="round" stroke-linejoin="round"/>
    <path d="M 146.37625122070312 108.2935791015625 C 160.16775512695312 126.7741928100586 162.0845184326172 143.9011688232422 162.01747131347656 149.18321228027344" stroke-width="4.387662410736084" fill="none" stroke="rgb(55, 252, 207)" stroke-opacity="0.055096276" stroke-linecap="round" stroke-linejoin="round"/>
    <path d="M 108.46365356445312 139.26321411132812 C 94.66759490966797 129.42674255371094 88.8409423828125 147.48678588867188 73.62969970703125 161.9022674560547 C 77.42134857177734 161.04322814941406 96.39527130126953 170.68765258789062 112.37671661376953 152.40399169921875" stroke-width="3.6206753253936768" fill="none" stroke="rgb(184, 85, 189)" stroke-opacity="0.4242993" stroke-linecap="round" stroke-linejoin="round"/>
    <path d="M 90.86305236816406 196.79051208496094 C 96.07340240478516 206.2036895751953 98.9229736328125 218.3915252685547 98.84679412841797 217.36622619628906 C 117.50666809082031 199.91439819335938 123.41697692871094 182.12562561035156 106.99400329589844 198.9787139892578 C 99.91170501708984 196.81077575683594 99.13368225097656 217.05540466308594 88.00338745117188 222.8271942138672" stroke-width="3.9788503646850586" fill="none" stroke="rgb(216, 49, 224)" stroke-opacity="0.28339568" stroke-linecap="round" stroke-linejoin="round"/>
    <path d="M 89.11424255371094 197.942138671875 C 89.24488830566406 205.71249389648438 77.0634765625 185.13018798828125 85.48928833007812 176.47799682617188 C 97.73102569580078 158.72686767578125 109.95171356201172 154.55191040039062 125.0377426147461 143.57516479492188 C 133.0008087158203 153.8379669189453 113.73489379882812 159.99130249023438 115.8597183227539 174.951171875" stroke-width="4.832797050476074" fill="none" stroke="rgb(228, 91, 145)" stroke-opacity="0.9875174" stroke-linecap="round" stroke-linejoin="round"/>
    <path d="M 293.9386901855469 102.6946029663086 C 293.0571594238281 115.03819274902344 283.2303466796875 113.51062774658203 274.8238220214844 118.77809143066406 C 282.1585388183594 125.12042236328125 259.9112548828125 131.70521545410156 258.9510192871094 116.75099182128906 C 268.40045166015625 138.27430725097656 269.68804931640625 138.1491241455078 259.87384033203125 121.99542236328125" stroke-width="4.979499340057373" fill="none" stroke="rgb(34, 98, 87)" stroke-opacity="1.0" stroke-linecap="round" stroke-linejoin="round"/>
    <path d="M 325.0915222167969 322.2627868652344 C 334.8168640136719 337.849365234375 336.8603515625 349.5694274902344 323.0096435546875 351.50421142578125 C 310.1874694824219 360.1707763671875 329.3582763671875 366.0340270996094 328.88330078125 380.07537841796875 C 321.90301513671875 372.6286926269531 337.6959228515625 386.8180847167969 326.7453918457031 391.1856384277344" stroke-width="3.6206753253936768" fill="none" stroke="rgb(238, 5, 12)" stroke-opacity="0.24017051" stroke-linecap="round" stroke-linejoin="round"/>
    <path d="M 201.1863250732422 256.4631042480469 C 201.74539184570312 238.1942596435547 214.33023071289062 257.9969482421875 217.57850646972656 249.46766662597656 C 204.7306365966797 232.5752410888672 185.33612060546875 213.46624755859375 200.2216033935547 231.49864196777344 C 196.90576171875 239.11346435546875 206.833984375 222.0365753173828 205.79840087890625 199.34278869628906" stroke-width="3.7624430656433105" fill="none" stroke="rgb(188, 50, 242)" stroke-opacity="0.2456951" stroke-linecap="round" stroke-linejoin="round"/>
    <path d="M 96.48229217529297 162.8957061767578 C 101.4462890625 167.13746643066406 103.44324493408203 181.3970947265625 119.62028503417969 168.51791381835938 C 106.9900894165039 167.08969116210938 115.41035461425781 182.74884033203125 93.36268615722656 202.9646759033203" stroke-width="3.6206753253936768" fill="none" stroke="rgb(233, 92, 129)" stroke-opacity="0.11476145" stroke-linecap="round" stroke-linejoin="round"/>
    <path d="M 85.77477264404297 148.51962280273438 C 73.19677734375 139.45578002929688 89.24526977539062 135.71031188964844 108.62982177734375 125.13549041748047" stroke-width="3.6206753253936768" fill="none" stroke="rgb(243, 99, 120)" stroke-opacity="0.8972657" stroke-linecap="round" stroke-linejoin="round"/>
    <path d="M 116.14088439941406 156.65060424804688 C 98.61222839355469 140.55184936523438 81.57711029052734 155.96768188476562 78.15425109863281 136.0931854248047 C 81.89205932617188 155.5869140625 100.62959289550781 174.9713897705078 115.81295776367188 164.42942810058594 C 96.12006378173828 146.91163635253906 105.7518310546875 145.0795440673828 108.2890396118164 141.69850158691406" stroke-width="3.6206753253936768" fill="none" stroke="rgb(128, 73, 221)" stroke-opacity="0.26841202" stroke-linecap="round" stroke-linejoin="round"/>
    <path d="M 219.899169921875 274.8561096191406 C 209.0506591796875 277.8578796386719 214.85020446777344 284.4105529785156 226.78648376464844 299.0236511230469 C 245.4432373046875 283.3820495605469 259.31005859375 276.18951416015625 275.1412353515625 267.8363952636719" stroke-width="3.7293033599853516" fill="none" stroke="rgb(245, 116, 249)" stroke-opacity="0.7713641" stroke-linecap="round" stroke-linejoin="round"/>
    <path d="M 263.8912353515625 118.43025970458984 C 260.6640625 100.755615234375 244.94529724121094 91.98664855957031 229.0358428955078 106.45787811279297 C 238.30657958984375 114.15897369384766 233.90933227539062 130.4110107421875 251.3545684814453 117.86843872070312 C 237.59251403808594 110.29325103759766 254.45542907714844 118.80496215820312 258.45404052734375 125.34333038330078" stroke-width="3.6206753253936768" fill="none" stroke="rgb(132, 125, 216)" stroke-opacity="0.6181688" stroke-linecap="round" stroke-linejoin="round"/>
    <path d="M 121.22261810302734 173.29339599609375 C 134.28244018554688 187.2015380859375 116.93174743652344 182.10873413085938 103.56179809570312 186.31568908691406 C 124.59400177001953 189.50877380371094 144.21212768554688 204.41249084472656 150.53253173828125 194.53504943847656" stroke-width="4.317560195922852" fill="none" stroke="rgb(120, 82, 191)" stroke-opacity="0.63157874" stroke-linecap="round" stroke-linejoin="round"/>
    <path d="M 53.57038116455078 123.48662567138672 C 38.29741287231445 137.03172302246094 28.73849105834961 154.8336181640625 24.294689178466797 152.79266357421875 C 36.12165832519531 161.3399200439453 44.28737258911133 171.97256469726562 47.22890090942383 186.01626586914062" stroke-width="3.6206753253936768" fill="none" stroke="rgb(233, 170, 193)" stroke-opacity="0.8611887" stroke-linecap="round" stroke-linejoin="round"/>
    <path d="M 108.48286437988281 125.75102996826172 C 92.04859161376953 134.09999084472656 92.84014892578125 118.33990478515625 92.86341857910156 127.40975189208984 C 83.92049407958984 111.09683990478516 65.0962905883789 93.83541870117188 65.65071868896484 85.88481140136719 C 54.916622161865234 78.71013641357422 49.371185302734375 78.84626770019531 44.92549514770508 70.4729232788086" stroke-width="3.6206753253936768" fill="none" stroke="rgb(209, 165, 84)" stroke-opacity="0.8964982" stroke-linecap="round" stroke-linejoin="round"/>
    <path d="M 121.57501983642578 179.4208984375 C 109.64810180664062 197.93992614746094 119.90227508544922 176.78009033203125 105.01087188720703 182.22723388671875 C 119.90147399902344 175.61941528320312 108.32048797607422 160.95138549804688 125.79730987548828 139.95724487304688" stroke-width="3.6206753253936768" fill="none" stroke="rgb(111, 39, 97)" stroke-opacity="0.30607575" stroke-linecap="round" stroke-linejoin="round"/>
    <path d="M 119.61490631103516 174.7462921142578 C 123.45747375488281 195.32870483398438 108.84815979003906 194.69393920898438 99.1426010131836 199.88995361328125 C 98.57600402832031 209.3347625732422 109.43243408203125 200.92947387695312 107.49154663085938 213.5404052734375" stroke-width="3.6206753253936768" fill="none" stroke="rgb(243, 177, 121)" stroke-opacity="0.44135898" stroke-linecap="round" stroke-linejoin="round"/>
    <path d="M 93.79600524902344 200.7483673095703 C 104.05187225341797 206.84344482421875 121.20453643798828 199.7577362060547 124.14777374267578 192.56658935546875" stroke-width="3.6206753253936768" fill="none" stroke="rgb(142, 202, 102)" stroke-opacity="0.7300964" stroke-linecap="round" stroke-linejoin="round"/>
    <path d="M 275.4604187011719 263.8278503417969 C 283.11224365234375 270.24591064453125 274.5085144042969 268.0804748535156 259.4888916015625 287.1908874511719 C 271.0776062011719 303.4287109375 282.97308349609375 318.1125183105469 278.8636169433594 325.984375 C 266.6894226074219 345.37493896484375 259.1581726074219 329.641357421875 249.6138458251953 328.12518310546875" stroke-width="3.677556276321411" fill="none" stroke="rgb(17, 8, 45)" stroke-opacity="0.78944474" stroke-linecap="round" stroke-linejoin="round"/>
    <path d="M 205.8420867919922 198.9622802734375 C 206.94972229003906 211.62864685058594 196.50860595703125 212.8709259033203 214.89044189453125 194.3544158935547 C 197.2830047607422 208.523681640625 197.60023498535156 214.8856964111328 186.4242706298828 223.15176391601562" stroke-width="3.6892707347869873" fill="none" stroke="rgb(59, 69, 240)" stroke-opacity="0.5934949" stroke-linecap="round" stroke-linejoin="round"/>
    <path d="M 167.04539489746094 147.25416564941406 C 163.6353302001953 147.6703338623047 159.12185668945312 158.03282165527344 153.14749145507812 146.04306030273438 C 158.77484130859375 149.0880126953125 154.52603149414062 154.5946502685547 138.10150146484375 159.78195190429688 C 135.20416259765625 173.8830108642578 121.82269287109375 161.18479919433594 107.7970962524414 172.4888916015625" stroke-width="3.6206753253936768" fill="none" stroke="rgb(253, 65, 248)" stroke-opacity="0.23134951" stroke-linecap="round" stroke-linejoin="round"/>
    <path d="M 115.51351165771484 173.4835205078125 C 117.57134246826172 182.67359924316406 124.67012023925781 187.45909118652344 115.73736572265625 180.78466796875 C 124.06412506103516 199.6548614501953 133.10784912109375 191.69239807128906 126.8284683227539 202.9029541015625" stroke-width="3.6206753253936768" fill="none" stroke="rgb(55, 179, 108)" stroke-opacity="0.041954048" stroke-linecap="round" stroke-linejoin="round"/>
    <path d="M 204.71051025390625 201.9597625732422 C 195.46786499023438 185.43740844726562 194.1213836669922 181.2473907470703 199.22169494628906 179.16258239746094 C 209.781494140625 189.3833465576172 204.7068634033203 200.1938018798828 217.9844512939453 206.8977508544922" stroke-width="4.129735469818115" fill="none" stroke="rgb(38, 200, 45)" stroke-opacity="0.4169164" stroke-linecap="round" stroke-linejoin="round"/>
    <path d="M 111.92428588867188 150.70265197753906 C 109.55200958251953 157.45913696289062 117.24337005615234 164.30862426757812 133.73728942871094 178.45147705078125 C 123.72388458251953 166.1723175048828 116.34984588623047 180.7899627685547 141.61102294921875 185.7873992919922" stroke-width="3.7987618446350098" fill="none" stroke="rgb(153, 17, 216)" stroke-opacity="0.34201103" stroke-linecap="round" stroke-linejoin="round"/>
    <path d="M 370.37481689453125 139.68612670898438 C 359.0647888183594 136.1829376220703 370.74591064453125 148.94223022460938 369.6993713378906 130.08212280273438 C 368.2441101074219 109.8666763305664 355.27276611328125 107.76663970947266 337.7839050292969 123.31331634521484" stroke-width="3.6206753253936768" fill="none" stroke="rgb(155, 199, 207)" stroke-opacity="0.55833584" stroke-linecap="round" stroke-linejoin="round"/>
    <path d="M 233.92665100097656 239.31956481933594 C 245.26170349121094 236.33152770996094 235.89085388183594 227.4158477783203 229.87075805664062 209.31463623046875 C 212.5851593017578 225.1036834716797 195.4525146484375 214.67567443847656 190.43707275390625 231.41989135742188 C 175.01329040527344 242.51979064941406 194.82058715820312 224.1377716064453 185.26031494140625 223.0253143310547" stroke-width="3.8580782413482666" fill="none" stroke="rgb(194, 98, 206)" stroke-opacity="0.6840365" stroke-linecap="round" stroke-linejoin="round"/>
    <path d="M 224.52825927734375 129.8040313720703 C 231.07070922851562 140.093505859375 221.07337951660156 129.61407470703125 236.02967834472656 110.10375213623047 C 259.8211364746094 111.9935531616211 239.11697387695312 112.66410827636719 243.98306274414062 110.7413330078125" stroke-width="4.1056318283081055" fill="none" stroke="rgb(62, 2, 230)" stroke-opacity="0.5141191" stroke-linecap="round" stroke-linejoin="round"/>
    <path d="M 382.8028869628906 207.70079040527344 C 393.31048583984375 191.69256591796875 413.3990173339844 202.75830078125 414.64703369140625 188.7462615966797 C 414.3427429199219 188.55780029296875 427.5948791503906 178.3993682861328 411.75238037109375 183.74354553222656" stroke-width="3.6206753253936768" fill="none" stroke="rgb(166, 222, 19)" stroke-opacity="0.023179263" stroke-linecap="round" stroke-linejoin="round"/>
    <path d="M 3.887770652770996 92.21973419189453 C 8.632402420043945 85.11912536621094 -4.143263339996338 79.3148193359375 -11.057672500610352 86.54985046386719 C -11.024009704589844 107.36386108398438 -28.72686195373535 108.737548828125 -30.459136962890625 127.7646484375 C -10.737975120544434 134.09295654296875 1.3133867979049683 118.6401596069336 -4.929478645324707 115.93927764892578" stroke-width="4.895954608917236" fill="none" stroke="rgb(121, 234, 0)" stroke-opacity="0.09726481" stroke-linecap="round" stroke-linejoin="round"/>
    <path d="M 343.5736083984375 3.3849172592163086 C 327.8180236816406 7.2218852043151855 314.43328857421875 6.226677417755127 318.16339111328125 17.181842803955078 C 319.83203125 27.2303466796875 329.39453125 40.598812103271484 319.5067443847656 47.056060791015625" stroke-width="3.964324951171875" fill="none" stroke="rgb(9, 52, 178)" stroke-opacity="0.12432852" stroke-linecap="round" stroke-linejoin="round"/>
    <path d="M 356.9138488769531 274.11181640625 C 348.41693115234375 289.52777099609375 366.6195068359375 296.92755126953125 380.9788513183594 286.2742614746094 C 382.8368225097656 271.9137268066406 398.6241455078125 271.1090393066406 375.0585021972656 288.5101318359375 C 356.3572998046875 268.5238037109375 360.6334228515625 264.72735595703125 379.9158935546875 262.1562805175781" stroke-width="3.6206753253936768" fill="none" stroke="rgb(234, 230, 129)" stroke-opacity="0.66919047" stroke-linecap="round" stroke-linejoin="round"/>
    <path d="M 173.4738311767578 269.0121765136719 C 169.3430938720703 287.91107177734375 182.1478729248047 287.1203308105469 200.1527099609375 280.770263671875 C 210.63575744628906 278.86541748046875 216.6153564453125 265.00341796875 231.7102508544922 278.6826171875 C 222.7453155517578 299.8369445800781 209.4605255126953 302.0577697753906 203.45008850097656 307.3888854980469" stroke-width="3.6585991382598877" fill="none" stroke="rgb(123, 199, 45)" stroke-opacity="0.24381576" stroke-linecap="round" stroke-linejoin="round"/>
    <path d="M 356.9231872558594 191.04586791992188 C 361.2883605957031 191.5531768798828 374.1873779296875 191.79666137695312 383.3034362792969 211.23753356933594 C 401.2648010253906 198.01010131835938 418.0421447753906 204.82456970214844 405.6760559082031 224.51353454589844" stroke-width="3.6206753253936768" fill="none" stroke="rgb(156, 112, 241)" stroke-opacity="0.53452176" stroke-linecap="round" stroke-linejoin="round"/>
    <path d="M 396.4664306640625 87.36522674560547 C 404.3894958496094 66.81608581542969 409.5118713378906 65.30220031738281 418.796875 82.55754852294922" stroke-width="4.794647216796875" fill="none" stroke="rgb(23, 168, 18)" stroke-opacity="0.15743157" stroke-linecap="round" stroke-linejoin="round"/>
    <path d="M 154.53955078125 294.0456848144531 C 158.1342315673828 311.2494201660156 161.832275390625 319.94769287109375 143.877685546875 319.6133117675781 C 164.46905517578125 337.5353698730469 161.7286376953125 335.4192199707031 166.96929931640625 344.330078125" stroke-width="4.6676740646362305" fill="none" stroke="rgb(234, 6, 26)" stroke-opacity="0.12060297" stroke-linecap="round" stroke-linejoin="round"/>
    <path d="M 148.60887145996094 71.69392395019531 C 131.91619873046875 76.18872833251953 146.62014770507812 69.58861541748047 139.29635620117188 83.55783081054688 C 148.4153594970703 67.31334686279297 137.90484619140625 92.7474136352539 140.5829315185547 73.54080200195312 C 144.2982177734375 68.77835845947266 156.73158264160156 51.84589385986328 140.2456817626953 45.12058639526367" stroke-width="3.6206753253936768" fill="none" stroke="rgb(238, 222, 74)" stroke-opacity="0.32626048" stroke-linecap="round" stroke-linejoin="round"/>
    <path d="M 52.5314826965332 223.7960205078125 C 44.33514404296875 216.6284942626953 26.56854248046875 235.91184997558594 11.051271438598633 245.85455322265625" stroke-width="3.6206753253936768" fill="none" stroke="rgb(24, 50, 191)" stroke-opacity="0.79541373" stroke-linecap="round" stroke-linejoin="round"/>
    <path d="M 16.705768585205078 328.4849548339844 C 5.110344886779785 316.55377197265625 -9.366665840148926 294.6724548339844 -6.492710113525391 279.1890563964844 C 0.6369826197624207 301.1270446777344 7.826712131500244 320.2781677246094 -12.55509090423584 302.96429443359375 C -2.7065494060516357 308.96356201171875 0.11611485481262207 309.12371826171875 13.770191192626953 301.9687805175781" stroke-width="3.6206753253936768" fill="none" stroke="rgb(99, 28, 82)" stroke-opacity="0.3887632" stroke-linecap="round" stroke-linejoin="round"/>
    <path d="M 400.9239807128906 126.05357360839844 C 391.3077087402344 136.33885192871094 382.48614501953125 140.2480926513672 395.1607971191406 138.23849487304688 C 377.34173583984375 156.8661651611328 369.18695068359375 161.1557159423828 358.6788330078125 155.8243865966797" stroke-width="3.970714807510376" fill="none" stroke="rgb(196, 95, 89)" stroke-opacity="0.46806914" stroke-linecap="round" stroke-linejoin="round"/>
    <path d="M 361.3769836425781 296.2068786621094 C 354.3446044921875 303.80218505859375 337.35626220703125 298.05560302734375 331.1441955566406 286.0260009765625 C 326.6732177734375 284.3402099609375 329.17144775390625 279.60205078125 325.1060791015625 272.25640869140625" stroke-width="3.6206753253936768" fill="none" stroke="rgb(102, 77, 121)" stroke-opacity="0.9672244" stroke-linecap="round" stroke-linejoin="round"/>
    <path d="M 241.8072052001953 321.29119873046875 C 244.42823791503906 338.26953125 238.1137237548828 337.615478515625 255.10159301757812 332.21087646484375" stroke-width="4.2540974617004395" fill="none" stroke="rgb(106, 239, 0)" stroke-opacity="0.2311066" stroke-linecap="round" stroke-linejoin="round"/>
    <path d="M 39.402099609375 156.11814880371094 C 45.33476638793945 160.178955078125 27.318159103393555 175.7705535888672 32.29533767700195 183.5504913330078 C 27.24263572692871 163.83717346191406 40.88435363769531 178.00582885742188 35.22523880004883 185.55137634277344 C 14.43755054473877 189.3325653076172 22.938262939453125 168.71527099609375 20.34400177001953 183.29380798339844" stroke-width="3.652602195739746" fill="none" stroke="rgb(249, 179, 66)" stroke-opacity="0.19549595" stroke-linecap="round" stroke-linejoin="round"/>
    <path d="M 294.985107421875 71.53596496582031 C 286.2956237792969 58.23023986816406 290.64459228515625 43.893821716308594 289.4675598144531 45.12998580932617" stroke-width="4.052149772644043" fill="none" stroke="rgb(73, 96, 186)" stroke-opacity="0.7525076" stroke-linecap="round" stroke-linejoin="round"/>
    <path d="M 38.29534912109375 180.5897979736328 C 43.17919921875 173.5769500732422 61.18186569213867 187.2432403564453 50.9341926574707 189.8955078125 C 49.109046936035156 176.40179443359375 44.6144905090332 194.52894592285156 61.05409240722656 185.34828186035156 C 41.606788635253906 180.03028869628906 26.64097785949707 164.67481994628906 9.455755233764648 160.5279998779297" stroke-width="3.6206753253936768" fill="none" stroke="rgb(8, 67, 58)" stroke-opacity="0.9657818" stroke-linecap="round" stroke-linejoin="round"/>
    <path d="M 229.0791473388672 322.6109924316406 C 231.7721405029297 319.43475341796875 220.4388427734375 304.8074951171875 208.8473358154297 294.9162902832031 C 195.26202392578125 285.4854736328125 208.66201782226562 298.11151123046875 216.32933044433594 282.0047912597656 C 219.43963623046875 289.87957763671875 221.2409210205078 283.4254455566406 228.8827667236328 257.1401672363281" stroke-width="3.6206753253936768" fill="none" stroke="rgb(39, 181, 92)" stroke-opacity="0.86456466" stroke-linecap="round" stroke-linejoin="round"/>
    <path d="M 174.1724853515625 336.0853271484375 C 171.72886657714844 344.1142883300781 160.50267028808594 351.047119140625 171.06268310546875 362.74615478515625 C 179.20706176757812 347.1422424316406 158.8773956298828 358.10076904296875 174.25547790527344 351.7268371582031" stroke-width="4.441798210144043" fill="none" stroke="rgb(160, 194, 196)" stroke-opacity="0.60275394" stroke-linecap="round" stroke-linejoin="round"/>
    <path d="M 240.25343322753906 58.650089263916016 C 230.19508361816406 55.1797981262207 246.88870239257812 31.130455017089844 257.6208190917969 35.70354080200195 C 269.9351501464844 51.73701095581055 258.9360046386719 70.39948272705078 276.2839050292969 84.22509002685547 C 260.4723205566406 69.63683319091797 283.0828857421875 79.3429183959961 277.0231018066406 91.31024932861328" stroke-width="3.6206753253936768" fill="none" stroke="rgb(79, 35, 123)" stroke-opacity="0.12631029" stroke-linecap="round" stroke-linejoin="round"/>
    <path d="M 279.57940673828125 202.27378845214844 C 277.2605285644531 217.7595672607422 270.32427978515625 221.07412719726562 273.26226806640625 220.14727783203125" stroke-width="3.6206753253936768" fill="none" stroke="rgb(184, 52, 10)" stroke-opacity="0.8686135" stroke-linecap="round" stroke-linejoin="round"/>
    <path d="M 263.9355163574219 322.8158264160156 C 260.5806579589844 297.0111999511719 241.3255615234375 289.2957458496094 250.72596740722656 296.4288024902344 C 261.752685546875 309.416259765625 265.9381103515625 295.8114013671875 256.7750549316406 288.8797912597656 C 258.83880615234375 276.4358825683594 258.8833923339844 290.1844177246094 249.90052795410156 273.8385009765625" stroke-width="3.6206753253936768" fill="none" stroke="rgb(140, 69, 55)" stroke-opacity="0.64680904" stroke-linecap="round" stroke-linejoin="round"/>
  </g>
</svg>
