<?xml version="1.0" ?>
<svg xmlns="http://www.w3.org/2000/svg" version="1.1" width="956.0" height="956.0">
  <defs/>
  <g>
    <path d="M 479.86016845703125 555.8379516601562 C 467.48858642578125 525.4675903320312 461.19793701171875 516.8724975585938 459.01495361328125 471.2646484375 C 460.86492919921875 464.3424072265625 468.099365234375 440.686767578125 480.4979553222656 431.5960693359375 C 472.455810546875 432.63812255859375 469.3433837890625 449.5631408691406 478.18798828125 418.0830078125 C 478.5726013183594 386.8318176269531 505.6312561035156 361.3588562011719 532.8968505859375 372.01568603515625 C 546.3917846679688 370.13946533203125 529.8048706054688 376.20159912109375 530.368408203125 364.8876037597656 C 549.2579956054688 366.4897766113281 564.7106323242188 362.896728515625 592.9396362304688 362.54632568359375 C 600.5565185546875 359.47052001953125 628.7494506835938 360.19256591796875 648.4703979492188 354.55401611328125 C 649.9306030273438 353.3086853027344 646.2844848632812 349.10565185546875 666.0010986328125 358.57269287109375 C 649.0853881835938 385.43341064453125 659.0272216796875 386.17822265625 632.8798828125 418.6515808105469 C 622.0887451171875 469.66845703125 653.4889526367188 467.2244873046875 661.6390380859375 477.70489501953125 C 651.8603515625 503.9209899902344 655.2734985351562 554.5606079101562 649.5653076171875 575.4851684570312 C 643.9033813476562 620.6488037109375 652.7339477539062 619.9714965820312 650.1890869140625 614.8494873046875 C 602.839599609375 632.8003540039062 619.3597412109375 611.8663940429688 621.1736450195312 593.9163818359375 C 619.71435546875 603.1340942382812 626.764892578125 547.4674682617188 628.7526245117188 554.9906616210938" stroke-width="10.715295791625977" fill="none" stroke="rgb(35, 41, 34)" stroke-opacity="0.7476527" stroke-linecap="round" stroke-linejoin="round"/>
    <path d="M 625.2510375976562 347.39990234375 C 645.1131591796875 386.4749450683594 656.9172973632812 407.7567443847656 611.733642578125 420.70721435546875" stroke-width="8.535714149475098" fill="none" stroke="rgb(111, 203, 196)" stroke-opacity="0.24471933" stroke-linecap="round" stroke-linejoin="round"/>
    <path d="M 536.6732788085938 373.2140197753906 C 503.95367431640625 394.20281982421875 496.87725830078125 415.9515380859375 525.2233276367188 438.3426818847656 C 559.5575561523438 468.2012634277344 592.1917114257812 476.6956481933594 610.5674438476562 446.12548828125 C 625.3216552734375 409.7725524902344 590.4409790039062 426.03021240234375 525.2681884765625 451.966552734375" stroke-width="23.618247985839844" fill="none" stroke="rgb(255, 128, 133)" stroke-opacity="0.6067859" stroke-linecap="round" stroke-linejoin="round"/>
    <path d="M 606.0383911132812 552.8883666992188 C 620.7644653320312 587.0067138671875 610.6781616210938 595.6554565429688 596.144287109375 605.9340209960938 C 606.740966796875 621.0430908203125 612.3248901367188 663.4617309570312 647.7842407226562 691.4425048828125 C 647.2600708007812 676.2224731445312 590.4788208007812 677.6943359375 554.9378662109375 696.1192626953125" stroke-width="11.424863815307617" fill="none" stroke="rgb(182, 8, 61)" stroke-opacity="0.14259104" stroke-linecap="round" stroke-linejoin="round"/>
    <path d="M 690.2559204101562 594.6778564453125 C 695.6615600585938 575.921875 690.557861328125 521.565673828125 692.8895263671875 515.564453125 C 691.5808715820312 529.8697509765625 692.3491821289062 531.9257202148438 695.1609497070312 510.3998718261719 C 695.0081176757812 502.3243713378906 686.5126953125 475.68402099609375 696.9771118164062 470.107421875" stroke-width="8.535714149475098" fill="none" stroke="rgb(138, 167, 109)" stroke-opacity="0.46074888" stroke-linecap="round" stroke-linejoin="round"/>
    <path d="M 623.0513305664062 559.1015625 C 617.204345703125 618.01513671875 617.6910400390625 630.4405517578125 667.7283935546875 629.9373168945312 C 686.7075805664062 637.98046875 648.8837280273438 630.5283203125 565.9891967773438 627.0023193359375" stroke-width="15.514165878295898" fill="none" stroke="rgb(221, 116, 128)" stroke-opacity="0.7737401" stroke-linecap="round" stroke-linejoin="round"/>
    <path d="M 615.2933959960938 420.04498291015625 C 600.1905517578125 432.1903381347656 592.5031127929688 429.93756103515625 555.1754760742188 422.2091979980469 C 532.6788940429688 425.64031982421875 543.0335693359375 476.8473815917969 577.7139892578125 474.2276306152344" stroke-width="22.38492202758789" fill="none" stroke="rgb(254, 56, 46)" stroke-opacity="0.40926155" stroke-linecap="round" stroke-linejoin="round"/>
    <path d="M 669.1826782226562 448.753173828125 C 637.8038330078125 445.7370910644531 629.6171264648438 451.0829772949219 630.0224609375 459.796875 C 578.8685913085938 479.447998046875 542.7403564453125 486.9088134765625 491.8090515136719 456.4731750488281" stroke-width="19.628976821899414" fill="none" stroke="rgb(167, 24, 56)" stroke-opacity="0.76898926" stroke-linecap="round" stroke-linejoin="round"/>
    <path d="M 595.7866821289062 621.073486328125 C 563.4907836914062 633.7407836914062 548.2130737304688 632.623046875 528.4717407226562 630.3965454101562 C 522.3431396484375 653.4883422851562 531.3461303710938 638.5100708007812 526.865234375 564.0165405273438 C 525.8981323242188 522.906982421875 532.7606201171875 542.6858520507812 534.33251953125 601.6549682617188" stroke-width="8.535714149475098" fill="none" stroke="rgb(109, 120, 98)" stroke-opacity="0.75104386" stroke-linecap="round" stroke-linejoin="round"/>
    <path d="M 544.7513427734375 407.14691162109375 C 603.5125732421875 409.8485412597656 638.519775390625 415.52825927734375 630.7407836914062 425.4234313964844 C 629.7034912109375 430.92340087890625 627.8763427734375 418.03948974609375 623.8934936523438 416.6544189453125 C 622.7909545898438 430.7594299316406 631.6229858398438 494.6368713378906 647.0590209960938 553.28759765625" stroke-width="14.36430549621582" fill="none" stroke="rgb(46, 116, 121)" stroke-opacity="0.0" stroke-linecap="round" stroke-linejoin="round"/>
    <path d="M 677.3505249023438 154.71873474121094 C 618.0595092773438 157.24649047851562 571.6005249023438 150.95921325683594 534.3587036132812 142.5564727783203 C 522.4218139648438 140.81594848632812 531.042236328125 163.28665161132812 540.505615234375 233.6529998779297" stroke-width="8.535714149475098" fill="none" stroke="rgb(66, 10, 255)" stroke-opacity="0.31484896" stroke-linecap="round" stroke-linejoin="round"/>
    <path d="M 228.0060577392578 616.1084594726562 C 238.62489318847656 612.2937622070312 286.9640808105469 591.645751953125 370.14447021484375 582.7588500976562" stroke-width="8.535714149475098" fill="none" stroke="rgb(99, 98, 183)" stroke-opacity="0.4597347" stroke-linecap="round" stroke-linejoin="round"/>
    <path d="M 493.8585510253906 593.9094848632812 C 466.3196105957031 546.7389526367188 443.8450927734375 519.05419921875 462.3008117675781 465.5506591796875" stroke-width="19.51198959350586" fill="none" stroke="rgb(221, 62, 74)" stroke-opacity="0.89243126" stroke-linecap="round" stroke-linejoin="round"/>
    <path d="M 638.8231201171875 554.721435546875 C 666.6182861328125 578.885009765625 681.1666259765625 617.0198364257812 712.94482421875 632.7692260742188 C 725.3994750976562 659.968994140625 763.2708740234375 691.68115234375 798.1671142578125 731.974365234375" stroke-width="8.535714149475098" fill="none" stroke="rgb(95, 119, 102)" stroke-opacity="0.645303" stroke-linecap="round" stroke-linejoin="round"/>
  </g>
</svg>
