<?xml version="1.0" ?>
<svg xmlns="http://www.w3.org/2000/svg" version="1.1" width="1104.0" height="1104.0">
  <defs/>
  <g>
    <path d="M 22.920196533203125 66.91893768310547 C 87.22667694091797 79.32969665527344 160.1827392578125 68.42231750488281 160.18272399902344 65.0391845703125 C 160.1827392578125 62.446651458740234 142.5072784423828 47.02900695800781 123.32839965820312 53.380977630615234" stroke-width="1.5848214626312256" fill="none" stroke="rgb(0, 2, 0)" stroke-opacity="1.0" stroke-linecap="round" stroke-linejoin="round"/>
    <path d="M 59.06172561645508 74.81592559814453 C 56.429405212402344 111.33349609375 50.7884521484375 147.43540954589844 60.19060516357422 149.6516571044922 C 69.59278106689453 152.6602783203125 109.07769012451172 143.67420959472656 116.22383117675781 126.00053405761719 C 122.57579040527344 107.5326919555664 123.7444076538086 100.01203918457031 123.7445068359375 100.80438995361328" stroke-width="1.5848214626312256" fill="none" stroke="rgb(2, 2, 0)" stroke-opacity="0.99" stroke-linecap="round" stroke-linejoin="round"/>
    <path d="M 122.19952392578125 76.69559478759766 C 137.2824249267578 74.85567474365234 141.7944793701172 71.05464935302734 140.24949645996094 78.57532501220703 C 139.49688720703125 86.09600067138672 136.8645477294922 89.1046142578125 132.7686004638672 98.13057708740234 C 127.8802490234375 107.94869232177734 135.77671813964844 111.66844940185547 127.8802490234375 107.15637969970703" stroke-width="1.5848214626312256" fill="none" stroke="rgb(2, 2, 0)" stroke-opacity="0.99" stroke-linecap="round" stroke-linejoin="round"/>
    <path d="M 74.4793701171875 89.52249908447266 C 70.6783447265625 98.50680541992188 63.157676696777344 113.54993438720703 64.70266723632812 115.47122955322266 C 64.66289520263672 116.6001205444336 74.47930145263672 117.35089111328125 76.32255554199219 115.47122955322266" stroke-width="1.5848214626312256" fill="none" stroke="rgb(2, 0, 0)" stroke-opacity="1.0" stroke-linecap="round" stroke-linejoin="round"/>
    <path d="M 61.65425491333008 86.51386260986328 C 68.84019470214844 86.0977783203125 62.82293701171875 87.60120391845703 70.71992492675781 86.85037231445312" stroke-width="1.5848214626312256" fill="none" stroke="rgb(2, 0, 0)" stroke-opacity="1.0" stroke-linecap="round" stroke-linejoin="round"/>
    <path d="M 87.22379302978516 89.93890380859375 C 92.82532501220703 90.31520080566406 86.80801391601562 91.81861114501953 94.70476531982422 91.06777954101562" stroke-width="1.5848214626312256" fill="none" stroke="rgb(2, 2, 0)" stroke-opacity="0.9900002" stroke-linecap="round" stroke-linejoin="round"/>
    <path d="M 68.08759307861328 126.71155548095703 C 83.31465148925781 128.7421417236328 86.13712310791016 126.53936767578125 86.08892822265625 126.58627319335938" stroke-width="1.5848214626312256" fill="none" stroke="rgb(0, 2, 0)" stroke-opacity="1.0" stroke-linecap="round" stroke-linejoin="round"/>
    <path d="M 86.4314956665039 90.73127746582031 C 78.8556900024414 90.41641998291016 77.63410949707031 83.08078002929688 78.29690551757812 86.06080627441406 C 73.5762710571289 89.5203857421875 76.09037780761719 90.04232025146484 75.6456298828125 93.13655090332031" stroke-width="1.5848214626312256" fill="none" stroke="rgb(26, 105, 32)" stroke-opacity="0.5777111" stroke-linecap="round" stroke-linejoin="round"/>
    <path d="M 122.99187469482422 76.69562530517578 C 114.49536895751953 81.06449890136719 120.69196319580078 84.4211196899414 114.07941436767578 81.3204574584961 C 115.900390625 78.84557342529297 123.57815551757812 70.50841522216797 115.1128158569336 63.61983871459961" stroke-width="1.5848214626312256" fill="none" stroke="rgb(233, 141, 61)" stroke-opacity="0.14791156" stroke-linecap="round" stroke-linejoin="round"/>
    <path d="M 132.76861572265625 98.13053894042969 C 133.11819458007812 106.49010467529297 129.17184448242188 100.15009307861328 129.1442413330078 99.62637329101562" stroke-width="1.7433021068572998" fill="none" stroke="rgb(29, 88, 94)" stroke-opacity="0.2779577" stroke-linecap="round" stroke-linejoin="round"/>
    <path d="M 140.24949645996094 78.57538604736328 C 144.0477294921875 70.56092071533203 144.75030517578125 62.80000686645508 151.09793090820312 70.85741424560547 C 145.728515625 79.6929931640625 153.7939453125 71.39550018310547 150.80712890625 71.83453369140625 C 154.16738891601562 69.41749572753906 153.2033233642578 70.26286315917969 151.2506866455078 62.38558578491211" stroke-width="1.7433034181594849" fill="none" stroke="rgb(185, 51, 37)" stroke-opacity="0.61729914" stroke-linecap="round" stroke-linejoin="round"/>
    <path d="M 86.08892059326172 126.58627319335938 C 78.17791748046875 118.17749786376953 74.3174057006836 116.8054428100586 81.81040954589844 116.38619232177734 C 83.3871078491211 122.09058380126953 73.88921356201172 125.82682800292969 72.57261657714844 120.2573013305664 C 70.90327453613281 116.98260498046875 61.76479721069336 116.68295288085938 67.28714752197266 117.34957122802734" stroke-width="1.7433031797409058" fill="none" stroke="rgb(137, 23, 85)" stroke-opacity="0.54704225" stroke-linecap="round" stroke-linejoin="round"/>
    <path d="M 123.7445068359375 100.80440521240234 C 127.12083435058594 96.16588592529297 134.45449829101562 87.35773468017578 135.45057678222656 85.43157196044922" stroke-width="1.5848214626312256" fill="none" stroke="rgb(234, 236, 99)" stroke-opacity="0.7505723" stroke-linecap="round" stroke-linejoin="round"/>
    <path d="M 127.0879135131836 107.15641784667969 C 123.20095825195312 100.31234741210938 127.58281707763672 103.81863403320312 132.34188842773438 103.52079010009766" stroke-width="1.5848214626312256" fill="none" stroke="rgb(80, 35, 71)" stroke-opacity="0.31496906" stroke-linecap="round" stroke-linejoin="round"/>
    <path d="M 59.06171798706055 75.6082534790039 C 57.791927337646484 80.27072143554688 56.57440185546875 82.28388977050781 57.08152770996094 83.16690826416016 C 65.85597229003906 75.261474609375 68.22843170166016 81.4928970336914 61.54481506347656 76.37417602539062 C 58.58951950073242 74.86994171142578 65.22329711914062 76.72828674316406 67.8425521850586 79.28905487060547" stroke-width="1.5848214626312256" fill="none" stroke="rgb(77, 158, 173)" stroke-opacity="0.70247674" stroke-linecap="round" stroke-linejoin="round"/>
    <path d="M 150.45889282226562 62.385589599609375 C 149.8512725830078 54.525089263916016 150.66824340820312 60.01424026489258 144.35107421875 52.735111236572266 C 136.43490600585938 55.59028625488281 133.6089324951172 48.06090545654297 133.73251342773438 44.78480911254883 C 141.65408325195312 46.307464599609375 144.17710876464844 45.97534942626953 147.12864685058594 37.74606704711914" stroke-width="1.7433017492294312" fill="none" stroke="rgb(138, 89, 175)" stroke-opacity="0.115610786" stroke-linecap="round" stroke-linejoin="round"/>
    <path d="M 75.64564514160156 93.13652801513672 C 83.27923583984375 97.8664779663086 86.74510955810547 105.68417358398438 87.70153045654297 98.81559753417969" stroke-width="1.5848214626312256" fill="none" stroke="rgb(80, 250, 0)" stroke-opacity="0.4455238" stroke-linecap="round" stroke-linejoin="round"/>
    <path d="M 67.84254455566406 79.2890625 C 63.03971481323242 72.39158630371094 54.33185958862305 73.3998031616211 53.09656524658203 68.49313354492188 C 54.581233978271484 74.38214874267578 50.265621185302734 66.8023452758789 48.363853454589844 60.67583084106445" stroke-width="1.7433031797409058" fill="none" stroke="rgb(11, 130, 31)" stroke-opacity="0.5163682" stroke-linecap="round" stroke-linejoin="round"/>
    <path d="M 68.07949829101562 117.34956359863281 C 76.08056640625 121.74500274658203 76.55470275878906 130.05081176757812 83.16375732421875 121.5250473022461" stroke-width="1.5848214626312256" fill="none" stroke="rgb(106, 157, 43)" stroke-opacity="0.5585682" stroke-linecap="round" stroke-linejoin="round"/>
    <path d="M 68.63493347167969 79.28905487060547 C 71.54735565185547 70.92208099365234 77.81460571289062 78.50704956054688 72.4825439453125 86.9529800415039 C 73.17328643798828 79.64852905273438 73.28447723388672 75.0521469116211 68.83251953125 79.56779479980469" stroke-width="1.7433034181594849" fill="none" stroke="rgb(112, 73, 233)" stroke-opacity="0.65709996" stroke-linecap="round" stroke-linejoin="round"/>
    <path d="M 150.45884704589844 62.38558578491211 C 152.9887237548828 67.30672454833984 149.7701416015625 74.9470443725586 155.9549560546875 82.4377670288086 C 159.9725341796875 82.64573669433594 156.92210388183594 76.48184204101562 159.25230407714844 69.65148162841797" stroke-width="1.5848214626312256" fill="none" stroke="rgb(58, 126, 211)" stroke-opacity="0.5628851" stroke-linecap="round" stroke-linejoin="round"/>
    <path d="M 67.28716278076172 117.34956359863281 C 73.35323333740234 121.21969604492188 78.9202880859375 114.04631042480469 75.17314910888672 116.15898895263672 C 74.17781829833984 124.00801086425781 69.26494598388672 120.75965118408203 62.14521026611328 128.05123901367188 C 66.4000015258789 134.63543701171875 74.94957733154297 126.11906433105469 73.49720764160156 128.55615234375" stroke-width="1.5848214626312256" fill="none" stroke="rgb(182, 121, 10)" stroke-opacity="0.9352297" stroke-linecap="round" stroke-linejoin="round"/>
    <path d="M 67.8425521850586 79.28902435302734 C 60.183597564697266 76.679443359375 58.0654182434082 81.2062759399414 62.955650329589844 75.92723083496094 C 70.36656951904297 84.56865692138672 79.90998077392578 83.60405731201172 73.50080108642578 83.7226333618164 C 73.337158203125 85.91976928710938 68.5982437133789 92.02275085449219 67.95850372314453 89.34776306152344" stroke-width="1.5848214626312256" fill="none" stroke="rgb(22, 81, 81)" stroke-opacity="0.8152052" stroke-linecap="round" stroke-linejoin="round"/>
    <path d="M 132.9346160888672 138.52203369140625 C 130.2141571044922 138.9351043701172 121.76658630371094 143.10552978515625 116.0967788696289 136.38853454589844" stroke-width="1.5848214626312256" fill="none" stroke="rgb(27, 34, 41)" stroke-opacity="0.8342062" stroke-linecap="round" stroke-linejoin="round"/>
    <path d="M 102.81841278076172 15.593565940856934 C 98.04547882080078 8.086631774902344 96.49410247802734 13.179119110107422 99.54729461669922 16.64748764038086 C 99.83747100830078 17.414745330810547 99.1585922241211 13.682161331176758 106.6795654296875 15.73888111114502" stroke-width="1.5848214626312256" fill="none" stroke="rgb(34, 7, 132)" stroke-opacity="0.44528812" stroke-linecap="round" stroke-linejoin="round"/>
    <path d="M 166.92747497558594 142.77586364746094 C 167.84979248046875 148.08677673339844 161.02496337890625 149.91461181640625 156.3267059326172 148.0018768310547 C 160.8079376220703 148.11985778808594 162.69781494140625 155.556396484375 165.3695068359375 152.07760620117188" stroke-width="1.5848214626312256" fill="none" stroke="rgb(70, 93, 93)" stroke-opacity="0.8697636" stroke-linecap="round" stroke-linejoin="round"/>
    <path d="M 132.8905792236328 150.03599548339844 C 128.70089721679688 150.9142608642578 120.71607208251953 144.38099670410156 120.84536743164062 143.1662139892578 C 121.60920715332031 137.6883087158203 123.40221405029297 140.5449981689453 131.0160675048828 141.93077087402344 C 126.06073760986328 140.38853454589844 128.65658569335938 137.0976104736328 137.396484375 139.62351989746094" stroke-width="1.5848214626312256" fill="none" stroke="rgb(246, 84, 51)" stroke-opacity="0.7800448" stroke-linecap="round" stroke-linejoin="round"/>
    <path d="M 37.45051956176758 149.94015502929688 C 35.081363677978516 150.21510314941406 41.22704315185547 143.17152404785156 32.50833511352539 147.37535095214844" stroke-width="1.5848214626312256" fill="none" stroke="rgb(136, 61, 145)" stroke-opacity="0.08172946" stroke-linecap="round" stroke-linejoin="round"/>
    <path d="M 43.3386344909668 24.65516471862793 C 48.377593994140625 18.127704620361328 52.59611511230469 26.775789260864258 58.54218292236328 29.95292091369629" stroke-width="1.5848214626312256" fill="none" stroke="rgb(31, 175, 52)" stroke-opacity="0.5970955" stroke-linecap="round" stroke-linejoin="round"/>
    <path d="M 155.19541931152344 110.06314849853516 C 148.783203125 110.09941101074219 139.9688720703125 115.15926361083984 136.2183380126953 117.90853118896484" stroke-width="1.5848214626312256" fill="none" stroke="rgb(194, 203, 48)" stroke-opacity="0.6006931" stroke-linecap="round" stroke-linejoin="round"/>
    <path d="M 48.611053466796875 175.45001220703125 C 46.092681884765625 174.35159301757812 45.315025329589844 170.0445098876953 40.952667236328125 171.3899383544922 C 50.19683074951172 164.50828552246094 55.877384185791016 161.9892120361328 58.0269889831543 169.69204711914062 C 63.91427993774414 164.82720947265625 62.21792984008789 166.4248046875 68.45799255371094 174.9618377685547" stroke-width="1.7433007955551147" fill="none" stroke="rgb(167, 228, 52)" stroke-opacity="0.954128" stroke-linecap="round" stroke-linejoin="round"/>
    <path d="M 129.75450134277344 40.61844253540039 C 137.3795166015625 44.68299102783203 138.72332763671875 46.79667663574219 144.1345977783203 40.69598388671875 C 149.91610717773438 47.312232971191406 154.4557647705078 41.54533767700195 159.9661865234375 42.841426849365234 C 167.63356018066406 39.365623474121094 173.71041870117188 37.19908142089844 175.1183624267578 40.88987731933594" stroke-width="1.5848214626312256" fill="none" stroke="rgb(26, 0, 195)" stroke-opacity="0.061531633" stroke-linecap="round" stroke-linejoin="round"/>
    <path d="M 151.68077087402344 44.37651824951172 C 156.81492614746094 36.27342987060547 162.3606719970703 32.009605407714844 158.70248413085938 32.56452941894531 C 160.98809814453125 35.61262893676758 164.96144104003906 32.267906188964844 164.73875427246094 30.091663360595703" stroke-width="1.7433031797409058" fill="none" stroke="rgb(244, 127, 174)" stroke-opacity="0.14619508" stroke-linecap="round" stroke-linejoin="round"/>
    <path d="M 57.235748291015625 81.01194763183594 C 53.409420013427734 73.98668670654297 51.13103485107422 71.03982543945312 55.914588928222656 75.3686294555664" stroke-width="1.5848214626312256" fill="none" stroke="rgb(28, 98, 212)" stroke-opacity="0.74513274" stroke-linecap="round" stroke-linejoin="round"/>
    <path d="M 79.69288635253906 152.0847625732422 C 86.95874786376953 160.44174194335938 95.75324249267578 159.86460876464844 90.97463989257812 167.17750549316406 C 91.7228012084961 162.2589874267578 97.28150939941406 157.67068481445312 90.01229858398438 151.73931884765625 C 84.88094329833984 155.71168518066406 89.92416381835938 148.46484375 92.30098724365234 143.67835998535156" stroke-width="1.5848214626312256" fill="none" stroke="rgb(100, 177, 233)" stroke-opacity="0.66107684" stroke-linecap="round" stroke-linejoin="round"/>
    <path d="M 76.18505096435547 66.30309295654297 C 78.0058822631836 57.97662353515625 71.69464874267578 58.06523895263672 75.87062072753906 66.63706970214844" stroke-width="1.5848214626312256" fill="none" stroke="rgb(178, 11, 141)" stroke-opacity="0.6913698" stroke-linecap="round" stroke-linejoin="round"/>
    <path d="M 18.009082794189453 32.58955764770508 C 22.575162887573242 38.262359619140625 28.560604095458984 33.46487808227539 30.07806968688965 41.172332763671875 C 24.440433502197266 39.607872009277344 23.372203826904297 38.841426849365234 17.531150817871094 46.79177474975586 C 25.871334075927734 39.46034622192383 32.71959686279297 34.67961120605469 40.46420669555664 28.01600456237793" stroke-width="1.5848214626312256" fill="none" stroke="rgb(147, 87, 34)" stroke-opacity="1.0" stroke-linecap="round" stroke-linejoin="round"/>
    <path d="M 133.3607635498047 118.16446685791016 C 135.2196502685547 127.7969741821289 134.04527282714844 127.99552917480469 133.0904998779297 123.08258056640625 C 138.3920440673828 128.80580139160156 141.6817169189453 136.18417358398438 146.04025268554688 134.2921142578125" stroke-width="1.743302822113037" fill="none" stroke="rgb(88, 243, 60)" stroke-opacity="0.71815705" stroke-linecap="round" stroke-linejoin="round"/>
    <path d="M 70.6227035522461 50.98542404174805 C 76.02151489257812 49.14678955078125 78.12981414794922 45.83578109741211 86.70767974853516 37.764869689941406 C 80.35963439941406 31.906482696533203 81.25438690185547 38.72837448120117 84.85350036621094 35.47734069824219 C 79.39554595947266 29.48249053955078 79.10376739501953 26.14345932006836 76.78083038330078 21.5245418548584" stroke-width="1.7433031797409058" fill="none" stroke="rgb(29, 59, 206)" stroke-opacity="0.8722575" stroke-linecap="round" stroke-linejoin="round"/>
  </g>
</svg>
