<?xml version="1.0" ?>
<svg xmlns="http://www.w3.org/2000/svg" version="1.1" width="925.0" height="925.0">
  <defs/>
  <g>
    <path d="M 61.75755310058594 21.27305030822754 C 66.98908996582031 19.411470413208008 73.89508819580078 16.953828811645508 78.62203216552734 18.701602935791016 C 80.88568115234375 22.152620315551758 86.53495788574219 29.61711883544922 88.30777740478516 33.72743225097656 C 89.59376525878906 38.94554138183594 87.64962005615234 38.23883056640625 88.18659210205078 36.61744689941406 C 89.30567932128906 37.33159255981445 91.85078430175781 40.22926330566406 88.18852233886719 45.92422866821289 C 88.759521484375 52.25531768798828 82.30091857910156 60.5974006652832 75.0342025756836 63.319183349609375 C 69.70143127441406 67.9598159790039 64.98611450195312 68.0667495727539 61.73994827270508 68.84593200683594 C 59.35516357421875 69.53372955322266 58.57762145996094 69.19481658935547 57.019683837890625 68.010009765625 C 54.860618591308594 69.64669799804688 54.57881164550781 68.53536987304688 55.57366180419922 68.23262786865234" stroke-width="1.0892857313156128" fill="none" stroke="rgb(0, 58, 26)" stroke-opacity="0.8957498" stroke-linecap="round" stroke-linejoin="round"/>
    <path d="M 73.96585083007812 18.976367950439453 C 69.09854888916016 22.06431007385254 64.00546264648438 28.688478469848633 67.68436431884766 27.72139549255371" stroke-width="1.794726848602295" fill="none" stroke="rgb(95, 180, 113)" stroke-opacity="0.2835746" stroke-linecap="round" stroke-linejoin="round"/>
    <path d="M 90.65345001220703 35.45809555053711 C 92.20645141601562 36.69629669189453 86.19107818603516 35.295326232910156 84.31329345703125 30.58202362060547" stroke-width="1.4306678771972656" fill="none" stroke="rgb(196, 130, 21)" stroke-opacity="0.3320959" stroke-linecap="round" stroke-linejoin="round"/>
    <path d="M 62.01625442504883 20.972637176513672 C 60.55706787109375 20.69546127319336 58.759910583496094 19.839181900024414 60.376792907714844 20.455467224121094 C 60.77980422973633 17.626800537109375 63.751190185546875 14.703346252441406 70.05668640136719 15.00897216796875 C 73.17749786376953 13.913235664367676 67.7563705444336 10.162969589233398 65.12212371826172 6.032243728637695" stroke-width="1.0892857313156128" fill="none" stroke="rgb(202, 197, 124)" stroke-opacity="0.40912262" stroke-linecap="round" stroke-linejoin="round"/>
    <path d="M 62.11167526245117 22.386783599853516 C 56.814117431640625 25.717378616333008 50.20979690551758 28.85466957092285 45.844879150390625 31.880413055419922 C 41.771446228027344 32.61661911010742 40.21881866455078 29.90667152404785 38.50551223754883 27.12357521057129 C 38.15578079223633 23.05796241760254 40.97715377807617 25.433528900146484 44.7545051574707 26.810409545898438" stroke-width="2.619654417037964" fill="none" stroke="rgb(255, 39, 241)" stroke-opacity="0.27745846" stroke-linecap="round" stroke-linejoin="round"/>
    <path d="M 54.77103805541992 67.8828353881836 C 54.82406997680664 64.90865325927734 53.40638732910156 63.03514099121094 58.567874908447266 61.65800857543945" stroke-width="1.1247761249542236" fill="none" stroke="rgb(186, 167, 198)" stroke-opacity="0.32615766" stroke-linecap="round" stroke-linejoin="round"/>
    <path d="M 63.910152435302734 69.91857147216797 C 64.90403747558594 74.99674224853516 63.86329650878906 82.21684265136719 62.109683990478516 82.78446960449219 C 61.890201568603516 82.983154296875 59.88014602661133 76.34708404541016 58.08974838256836 70.33572387695312 C 57.06605529785156 64.1219482421875 61.07470703125 65.61417388916016 65.84200286865234 65.73506164550781" stroke-width="1.222497582435608" fill="none" stroke="rgb(61, 253, 224)" stroke-opacity="0.69393116" stroke-linecap="round" stroke-linejoin="round"/>
    <path d="M 76.4026870727539 22.698596954345703 C 76.8818359375 20.763872146606445 77.31656646728516 21.212078094482422 76.69954681396484 20.67080307006836 C 76.62581634521484 20.37721061706543 76.68496704101562 27.385053634643555 78.18533325195312 33.36649703979492" stroke-width="1.097545862197876" fill="none" stroke="rgb(82, 130, 209)" stroke-opacity="0.37097546" stroke-linecap="round" stroke-linejoin="round"/>
    <path d="M 62.82933044433594 19.46723747253418 C 60.6456298828125 21.448923110961914 59.641357421875 24.995502471923828 58.440834045410156 25.78258514404297 C 56.69380569458008 23.083324432373047 54.827667236328125 20.856525421142578 51.283714294433594 19.510644912719727 C 48.14896011352539 16.606094360351562 49.30593490600586 19.7601318359375 49.80560302734375 25.70461082458496" stroke-width="1.0892857313156128" fill="none" stroke="rgb(34, 231, 171)" stroke-opacity="0.9317429" stroke-linecap="round" stroke-linejoin="round"/>
    <path d="M 88.59757995605469 28.38029670715332 C 88.03295135498047 23.86920928955078 87.10063934326172 19.161298751831055 86.0640869140625 17.577486038208008 C 85.0615234375 17.505523681640625 82.66572570800781 23.162830352783203 81.22196197509766 29.85267448425293 C 77.6021728515625 35.43659973144531 76.12071990966797 31.46295166015625 75.70255279541016 25.2838191986084" stroke-width="1.717560887336731" fill="none" stroke="rgb(116, 218, 178)" stroke-opacity="0.48001707" stroke-linecap="round" stroke-linejoin="round"/>
    <path d="M 86.94719696044922 28.033428192138672 C 90.36787414550781 23.634586334228516 94.38362121582031 19.184833526611328 98.44363403320312 14.802264213562012 C 103.72711944580078 10.988539695739746 101.75145721435547 18.149738311767578 100.51697540283203 26.446250915527344" stroke-width="1.5474910736083984" fill="none" stroke="rgb(114, 49, 127)" stroke-opacity="0.9286593" stroke-linecap="round" stroke-linejoin="round"/>
    <path d="M 90.60345458984375 28.34691619873047 C 85.85112762451172 28.762304306030273 82.08515167236328 29.046709060668945 81.14755249023438 27.13841438293457 C 80.08490753173828 23.440921783447266 82.99869537353516 20.607200622558594 88.18186950683594 17.65324592590332 C 90.7729263305664 13.553990364074707 86.5199966430664 13.693221092224121 81.34291076660156 14.92384147644043" stroke-width="1.1963099241256714" fill="none" stroke="rgb(224, 169, 214)" stroke-opacity="0.5903553" stroke-linecap="round" stroke-linejoin="round"/>
    <path d="M 41.08821105957031 25.587947845458984 C 41.12636947631836 24.894161224365234 38.82138442993164 24.48802947998047 37.2170524597168 23.53985595703125 C 34.953277587890625 23.759777069091797 31.918270111083984 24.38730812072754 28.8322696685791 24.74751853942871 C 27.40593719482422 22.996429443359375 31.273174285888672 31.886388778686523 36.16073226928711 38.54119873046875" stroke-width="1.1022061109542847" fill="none" stroke="rgb(117, 133, 133)" stroke-opacity="0.69528174" stroke-linecap="round" stroke-linejoin="round"/>
    <path d="M 65.34390258789062 62.53919219970703 C 63.313480377197266 64.04983520507812 58.4781608581543 64.59339904785156 55.80655288696289 63.11826705932617 C 56.232784271240234 63.397857666015625 58.56114196777344 64.06534576416016 60.09137725830078 66.27796936035156 C 63.12703323364258 66.26345825195312 53.76969528198242 68.35465240478516 44.433345794677734 70.24950408935547" stroke-width="1.0892857313156128" fill="none" stroke="rgb(137, 180, 106)" stroke-opacity="0.7816582" stroke-linecap="round" stroke-linejoin="round"/>
    <path d="M 77.40947723388672 36.62990951538086 C 75.462158203125 36.1856803894043 81.87644958496094 38.236629486083984 83.62313842773438 36.76470947265625" stroke-width="1.3133940696716309" fill="none" stroke="rgb(45, 36, 146)" stroke-opacity="0.006291065" stroke-linecap="round" stroke-linejoin="round"/>
    <path d="M 65.92909240722656 64.75431060791016 C 62.20200729370117 67.10726165771484 61.6212272644043 64.62496185302734 62.33030700683594 66.858154296875" stroke-width="1.2882039546966553" fill="none" stroke="rgb(122, 34, 80)" stroke-opacity="0.105150715" stroke-linecap="round" stroke-linejoin="round"/>
    <path d="M 44.34211730957031 27.225889205932617 C 42.527000427246094 28.25082015991211 43.90792465209961 28.150012969970703 43.19908142089844 29.921661376953125 C 44.05280303955078 29.72231101989746 49.041473388671875 34.337379455566406 55.83305358886719 38.307437896728516" stroke-width="1.0892857313156128" fill="none" stroke="rgb(159, 247, 208)" stroke-opacity="0.645371" stroke-linecap="round" stroke-linejoin="round"/>
    <path d="M 36.1511344909668 85.0381088256836 C 39.29369354248047 80.56034088134766 42.724117279052734 77.51956176757812 43.24969482421875 78.60787200927734 C 41.65603256225586 78.11328125 38.68522262573242 82.30236053466797 36.0675163269043 87.02887725830078 C 33.88276672363281 92.54446411132812 35.21566390991211 97.4620361328125 36.09214401245117 99.74141693115234" stroke-width="1.0892857313156128" fill="none" stroke="rgb(176, 38, 215)" stroke-opacity="0.31834587" stroke-linecap="round" stroke-linejoin="round"/>
    <path d="M 40.581565856933594 77.80023193359375 C 42.47913360595703 74.70561981201172 45.34593963623047 72.56023406982422 49.74843215942383 71.67765045166016 C 52.39975357055664 73.19633483886719 57.46173858642578 76.58018493652344 62.0751953125 80.28463745117188 C 66.67266845703125 84.40555572509766 63.35725784301758 77.49510192871094 61.83500289916992 70.14713287353516" stroke-width="2.350921869277954" fill="none" stroke="rgb(53, 9, 46)" stroke-opacity="0.7629522" stroke-linecap="round" stroke-linejoin="round"/>
    <path d="M 56.044837951660156 61.21244812011719 C 53.8304328918457 59.09872817993164 51.725059509277344 56.71900939941406 51.29887390136719 52.75498962402344 C 49.035762786865234 50.61030960083008 55.00092697143555 57.502201080322266 61.496028900146484 64.2650146484375" stroke-width="1.6306257247924805" fill="none" stroke="rgb(175, 255, 247)" stroke-opacity="0.8837368" stroke-linecap="round" stroke-linejoin="round"/>
    <path d="M 79.47317504882812 81.1060791015625 C 80.17324829101562 85.99332427978516 82.759765625 90.46772003173828 83.48481750488281 96.82686614990234 C 84.1451644897461 103.33297729492188 82.955322265625 99.13619995117188 82.80099487304688 95.73308563232422" stroke-width="1.5652729272842407" fill="none" stroke="rgb(106, 154, 0)" stroke-opacity="0.6306747" stroke-linecap="round" stroke-linejoin="round"/>
    <path d="M 85.87794494628906 27.636014938354492 C 84.67172241210938 28.22245216369629 84.88068389892578 26.690458297729492 83.93750762939453 26.79268455505371 C 83.02998352050781 25.86773681640625 83.57117462158203 29.4398136138916 85.31788635253906 32.2016716003418" stroke-width="1.0892857313156128" fill="none" stroke="rgb(228, 202, 103)" stroke-opacity="0.30163944" stroke-linecap="round" stroke-linejoin="round"/>
    <path d="M 66.45892333984375 51.06037139892578 C 67.25827026367188 49.473087310791016 70.44597625732422 49.194190979003906 69.97598266601562 46.289756774902344 C 71.04074096679688 44.97513961791992 74.6845474243164 44.11571502685547 74.8463134765625 43.421443939208984" stroke-width="1.0892857313156128" fill="none" stroke="rgb(81, 245, 217)" stroke-opacity="0.77060795" stroke-linecap="round" stroke-linejoin="round"/>
    <path d="M 102.32388305664062 98.52474975585938 C 96.1771011352539 100.3600082397461 91.94087982177734 103.38945770263672 91.22271728515625 104.92402648925781" stroke-width="1.7689460515975952" fill="none" stroke="rgb(83, 42, 255)" stroke-opacity="0.7515842" stroke-linecap="round" stroke-linejoin="round"/>
    <path d="M 63.02073287963867 105.97761535644531 C 68.49212646484375 105.25129699707031 72.6284408569336 101.22055053710938 70.16265869140625 95.3182144165039" stroke-width="1.7158948183059692" fill="none" stroke="rgb(162, 0, 64)" stroke-opacity="0.19201969" stroke-linecap="round" stroke-linejoin="round"/>
    <path d="M 94.90383911132812 10.91337776184082 C 97.89666748046875 8.744881629943848 98.80534362792969 7.9351420402526855 101.75311279296875 7.307185173034668 C 103.31101989746094 7.126522541046143 102.56290435791016 14.310002326965332 101.19698333740234 17.126026153564453" stroke-width="1.2531794309616089" fill="none" stroke="rgb(133, 18, 91)" stroke-opacity="0.67784905" stroke-linecap="round" stroke-linejoin="round"/>
    <path d="M 39.548583984375 68.01513671875 C 36.44820785522461 67.33098602294922 37.38395690917969 70.73810577392578 35.4462776184082 72.625244140625 C 33.59328842163086 74.67440795898438 31.831912994384766 78.21710968017578 26.744823455810547 80.02362823486328 C 23.644733428955078 82.89625549316406 30.466604232788086 84.89048767089844 38.5207633972168 87.0445785522461" stroke-width="1.1851403713226318" fill="none" stroke="rgb(117, 151, 199)" stroke-opacity="0.505933" stroke-linecap="round" stroke-linejoin="round"/>
    <path d="M 111.17094421386719 103.82745361328125 C 111.3428955078125 107.43716430664062 112.35014343261719 109.56208038330078 112.27835845947266 111.60891723632812 C 112.67911529541016 111.43091583251953 112.35987091064453 113.01821899414062 114.00031280517578 116.52993774414062 C 112.57288360595703 118.38875579833984 116.15779113769531 112.45753479003906 117.28816223144531 104.31078338623047" stroke-width="1.0892857313156128" fill="none" stroke="rgb(162, 165, 103)" stroke-opacity="0.6267052" stroke-linecap="round" stroke-linejoin="round"/>
    <path d="M 16.35841941833496 67.3614273071289 C 21.613037109375 65.43251037597656 26.558094024658203 63.7021598815918 26.97869873046875 65.66505432128906 C 27.97924041748047 67.85893249511719 25.139562606811523 73.25621795654297 21.364208221435547 78.3522720336914 C 20.23032569885254 86.19159698486328 16.270883560180664 82.94918060302734 12.669341087341309 79.43850708007812" stroke-width="1.1488269567489624" fill="none" stroke="rgb(196, 179, 236)" stroke-opacity="0.38734704" stroke-linecap="round" stroke-linejoin="round"/>
    <path d="M 17.31788444519043 14.134844779968262 C 17.030412673950195 13.175228118896484 14.780562400817871 13.98410701751709 14.304180145263672 13.809969902038574 C 15.571022987365723 14.582016944885254 15.267325401306152 12.812355995178223 14.357453346252441 12.84183120727539 C 12.568922996520996 12.424964904785156 8.328587532043457 9.301895141601562 5.392428398132324 4.636392116546631" stroke-width="1.4336004257202148" fill="none" stroke="rgb(192, 142, 50)" stroke-opacity="0.20373172" stroke-linecap="round" stroke-linejoin="round"/>
    <path d="M 77.20266723632812 96.09668731689453 C 74.65867614746094 94.7251205444336 72.7132797241211 92.6265640258789 73.64869689941406 92.93055725097656 C 73.76525115966797 91.9316177368164 75.58453369140625 93.02978515625 77.70883178710938 93.37361145019531 C 79.40560913085938 93.7542495727539 80.41254425048828 92.11375427246094 80.83430480957031 90.74287414550781" stroke-width="1.0892857313156128" fill="none" stroke="rgb(51, 200, 14)" stroke-opacity="0.002622418" stroke-linecap="round" stroke-linejoin="round"/>
    <path d="M 88.83699035644531 74.51016235351562 C 81.58973693847656 76.53692626953125 76.71610260009766 79.41250610351562 73.08282470703125 74.12366485595703" stroke-width="1.0892857313156128" fill="none" stroke="rgb(201, 255, 170)" stroke-opacity="0.61512685" stroke-linecap="round" stroke-linejoin="round"/>
    <path d="M 55.915279388427734 39.048362731933594 C 55.46872329711914 33.319454193115234 60.35877990722656 35.21010208129883 53.54680633544922 32.45499801635742" stroke-width="2.219658613204956" fill="none" stroke="rgb(248, 16, 0)" stroke-opacity="0.24783333" stroke-linecap="round" stroke-linejoin="round"/>
    <path d="M 35.797508239746094 23.432056427001953 C 28.440969467163086 28.99393653869629 28.864076614379883 26.062917709350586 35.24752426147461 28.232240676879883" stroke-width="1.0892857313156128" fill="none" stroke="rgb(164, 63, 58)" stroke-opacity="0.63340783" stroke-linecap="round" stroke-linejoin="round"/>
    <path d="M 75.62706756591797 21.211841583251953 C 72.61750030517578 21.62358283996582 75.89928436279297 24.938249588012695 74.17840576171875 22.442459106445312" stroke-width="1.228922724723816" fill="none" stroke="rgb(255, 223, 105)" stroke-opacity="0.05059389" stroke-linecap="round" stroke-linejoin="round"/>
    <path d="M 37.50251007080078 89.98593139648438 C 33.8828239440918 83.30492401123047 31.410829544067383 84.78108978271484 30.304859161376953 89.40767669677734 C 28.962467193603516 82.65804290771484 31.337596893310547 86.87393188476562 32.207489013671875 83.70221710205078 C 29.7038631439209 81.49560546875 24.163564682006836 83.41481018066406 20.983749389648438 82.65284729003906" stroke-width="1.4738680124282837" fill="none" stroke="rgb(126, 121, 33)" stroke-opacity="0.2935456" stroke-linecap="round" stroke-linejoin="round"/>
    <path d="M 52.257301330566406 20.298633575439453 C 56.5601806640625 22.616138458251953 62.62588119506836 24.39386749267578 67.9972915649414 21.43045997619629 C 67.60604095458984 22.619489669799805 72.42941284179688 22.27727508544922 67.90843963623047 27.539459228515625" stroke-width="1.0892857313156128" fill="none" stroke="rgb(238, 192, 217)" stroke-opacity="0.7894693" stroke-linecap="round" stroke-linejoin="round"/>
    <path d="M 12.706809997558594 79.39801025390625 C 8.68175983428955 78.93053436279297 10.376556396484375 81.61730194091797 15.84935188293457 81.33155059814453 C 14.272683143615723 83.87300872802734 13.69977855682373 81.67489624023438 14.234322547912598 86.34043884277344 C 14.223255157470703 89.56999206542969 17.920869827270508 93.9665298461914 20.433635711669922 91.0155029296875" stroke-width="1.7905999422073364" fill="none" stroke="rgb(53, 215, 180)" stroke-opacity="0.5239965" stroke-linecap="round" stroke-linejoin="round"/>
    <path d="M 68.47745513916016 63.317413330078125 C 73.68929290771484 57.70317077636719 75.72801971435547 57.594017028808594 76.5041732788086 63.22226333618164" stroke-width="1.0892857313156128" fill="none" stroke="rgb(86, 205, 210)" stroke-opacity="0.39071777" stroke-linecap="round" stroke-linejoin="round"/>
    <path d="M 88.68692016601562 18.017364501953125 C 83.62092590332031 14.794322967529297 85.12200927734375 12.723068237304688 85.7761459350586 13.744539260864258 C 82.55985260009766 18.635330200195312 80.62356567382812 16.362369537353516 80.48056030273438 15.178268432617188 C 85.45963287353516 17.6728458404541 91.189208984375 12.318992614746094 92.07820129394531 12.137409210205078" stroke-width="1.1045777797698975" fill="none" stroke="rgb(103, 83, 210)" stroke-opacity="0.83727425" stroke-linecap="round" stroke-linejoin="round"/>
    <path d="M 56.452518463134766 68.80779266357422 C 58.91913604736328 69.52467346191406 59.56520462036133 72.7707290649414 58.64889144897461 74.29376220703125 C 59.553977966308594 75.33037567138672 56.2149658203125 77.25634765625 57.68351364135742 74.07132720947266" stroke-width="1.6153010129928589" fill="none" stroke="rgb(145, 65, 0)" stroke-opacity="0.7444909" stroke-linecap="round" stroke-linejoin="round"/>
    <path d="M 37.419471740722656 29.07338523864746 C 36.57631301879883 20.350421905517578 42.27757263183594 19.552480697631836 42.13791275024414 21.703933715820312 C 38.78104782104492 22.525190353393555 41.24432373046875 23.485200881958008 43.8126335144043 19.41653823852539" stroke-width="1.0892857313156128" fill="none" stroke="rgb(112, 52, 169)" stroke-opacity="0.6700436" stroke-linecap="round" stroke-linejoin="round"/>
    <path d="M 67.60749816894531 28.302593231201172 C 65.82921600341797 24.919191360473633 69.60616302490234 26.63055419921875 74.12845611572266 20.89370346069336 C 76.94934844970703 22.70968246459961 76.56534576416016 29.619205474853516 75.93048095703125 21.046894073486328" stroke-width="1.4518800973892212" fill="none" stroke="rgb(142, 9, 0)" stroke-opacity="0.90441406" stroke-linecap="round" stroke-linejoin="round"/>
    <path d="M 77.85993957519531 63.214664459228516 C 73.01615905761719 67.92871856689453 67.02452087402344 69.32852172851562 63.79080581665039 73.38145446777344 C 66.28736877441406 71.46638488769531 70.95684814453125 77.23542785644531 65.93452453613281 73.96026611328125 C 69.20669555664062 78.17068481445312 71.92176055908203 82.67459869384766 72.43598175048828 87.71585083007812" stroke-width="1.406153678894043" fill="none" stroke="rgb(86, 233, 52)" stroke-opacity="0.717242" stroke-linecap="round" stroke-linejoin="round"/>
    <path d="M 35.59160614013672 28.302370071411133 C 34.02595520019531 31.814617156982422 40.41615676879883 33.021034240722656 40.101009368896484 39.09077072143555" stroke-width="1.485793113708496" fill="none" stroke="rgb(16, 156, 99)" stroke-opacity="0.783966" stroke-linecap="round" stroke-linejoin="round"/>
    <path d="M 77.6383056640625 63.58428192138672 C 72.59732818603516 65.46118927001953 69.39158630371094 67.7332992553711 64.14700317382812 73.32755279541016" stroke-width="1.0892857313156128" fill="none" stroke="rgb(101, 207, 21)" stroke-opacity="0.36286387" stroke-linecap="round" stroke-linejoin="round"/>
    <path d="M 76.73348236083984 63.35507583618164 C 71.69178771972656 66.97868347167969 71.3316650390625 69.0118408203125 70.19962310791016 62.62104034423828 C 65.42839813232422 58.54013442993164 57.445438385009766 59.02262496948242 63.82651901245117 57.721981048583984" stroke-width="1.0892857313156128" fill="none" stroke="rgb(52, 24, 25)" stroke-opacity="0.15538244" stroke-linecap="round" stroke-linejoin="round"/>
    <path d="M 77.63719940185547 63.7076416015625 C 79.84464263916016 63.649436950683594 78.15731811523438 63.47709655761719 81.11316680908203 67.86275482177734 C 81.51387023925781 71.29199981689453 83.02881622314453 74.28601837158203 82.42815399169922 69.62150573730469" stroke-width="1.0892857313156128" fill="none" stroke="rgb(111, 16, 253)" stroke-opacity="0.8212435" stroke-linecap="round" stroke-linejoin="round"/>
    <path d="M 20.44295310974121 92.13192749023438 C 16.79703140258789 86.13771057128906 20.39977264404297 91.03312683105469 24.1651554107666 94.67894744873047 C 20.36217498779297 97.39373016357422 20.20091438293457 93.67493438720703 21.269901275634766 89.35313415527344 C 15.942279815673828 85.71891784667969 16.20787239074707 91.21894836425781 18.261877059936523 96.75633239746094" stroke-width="1.7937830686569214" fill="none" stroke="rgb(36, 233, 0)" stroke-opacity="1.0" stroke-linecap="round" stroke-linejoin="round"/>
    <path d="M 35.70891571044922 96.02899169921875 C 32.56124496459961 93.1920166015625 36.42921829223633 96.39940643310547 35.423431396484375 98.62671661376953 C 37.62232208251953 99.47029113769531 35.52314758300781 99.75831604003906 35.66598129272461 92.36172485351562 C 39.56106185913086 94.57547760009766 35.22987365722656 97.72554779052734 36.045249938964844 93.84456634521484" stroke-width="1.0892857313156128" fill="none" stroke="rgb(184, 186, 165)" stroke-opacity="0.24374466" stroke-linecap="round" stroke-linejoin="round"/>
    <path d="M 78.11184692382812 113.22879028320312 C 78.44048309326172 105.96147155761719 75.31173706054688 100.948974609375 79.1162338256836 103.80237579345703 C 80.21673583984375 99.68428039550781 78.9735107421875 104.1408920288086 79.21930694580078 99.28758239746094" stroke-width="1.0892857313156128" fill="none" stroke="rgb(84, 187, 88)" stroke-opacity="0.85665405" stroke-linecap="round" stroke-linejoin="round"/>
    <path d="M 3.172996997833252 66.27127075195312 C 7.714563369750977 60.43284225463867 6.346611976623535 57.169288635253906 5.700433731079102 51.854557037353516 C 10.883541107177734 56.01095962524414 5.664253234863281 56.78805923461914 8.104788780212402 61.642024993896484 C 8.565433502197266 59.95882034301758 8.725264549255371 62.51884841918945 12.539691925048828 57.018585205078125" stroke-width="1.6315770149230957" fill="none" stroke="rgb(95, 166, 103)" stroke-opacity="0.8545501" stroke-linecap="round" stroke-linejoin="round"/>
    <path d="M 19.79554557800293 114.52519226074219 C 15.978276252746582 107.54708862304688 12.536267280578613 100.60179901123047 14.800209999084473 101.63975524902344 C 10.183786392211914 102.84420776367188 6.162322998046875 104.32170867919922 1.9417493343353271 102.6653823852539" stroke-width="1.0892857313156128" fill="none" stroke="rgb(117, 130, 25)" stroke-opacity="0.9910432" stroke-linecap="round" stroke-linejoin="round"/>
    <path d="M 17.96370506286621 2.5057332515716553 C 19.913578033447266 3.212374448776245 19.178279876708984 5.772787570953369 20.266281127929688 11.742719650268555" stroke-width="1.2330857515335083" fill="none" stroke="rgb(5, 229, 153)" stroke-opacity="0.78040856" stroke-linecap="round" stroke-linejoin="round"/>
    <path d="M 10.984681129455566 58.52649688720703 C 12.611863136291504 55.20798873901367 13.548288345336914 51.79060745239258 19.644502639770508 48.139427185058594" stroke-width="1.0892857313156128" fill="none" stroke="rgb(208, 54, 188)" stroke-opacity="0.32761785" stroke-linecap="round" stroke-linejoin="round"/>
    <path d="M 83.65840911865234 16.63872718811035 C 87.97822570800781 14.021079063415527 88.36309814453125 17.100614547729492 86.23737335205078 22.891908645629883 C 82.24208068847656 24.64967918395996 78.61085510253906 26.673851013183594 77.44913482666016 25.666318893432617 C 81.51761627197266 22.792224884033203 81.04489135742188 28.56015396118164 85.4239273071289 26.96149444580078" stroke-width="1.3032807111740112" fill="none" stroke="rgb(224, 151, 203)" stroke-opacity="0.06640792" stroke-linecap="round" stroke-linejoin="round"/>
    <path d="M 17.875877380371094 104.28753662109375 C 17.281091690063477 109.06196594238281 12.996797561645508 105.8770751953125 10.643570899963379 102.2778091430664" stroke-width="1.3219614028930664" fill="none" stroke="rgb(225, 206, 241)" stroke-opacity="0.3747178" stroke-linecap="round" stroke-linejoin="round"/>
    <path d="M 7.35416841506958 79.46611022949219 C 11.948396682739258 85.82672882080078 8.112201690673828 89.05563354492188 7.327098846435547 80.32907104492188" stroke-width="1.6799763441085815" fill="none" stroke="rgb(27, 125, 0)" stroke-opacity="0.86054015" stroke-linecap="round" stroke-linejoin="round"/>
    <path d="M 96.97395324707031 66.00895690917969 C 100.62518310546875 63.31470489501953 94.89649200439453 67.54459381103516 90.62876892089844 66.43738555908203 C 90.87195587158203 69.26009368896484 91.12403869628906 75.44000244140625 87.47859191894531 78.89569854736328 C 88.01425170898438 82.29936218261719 89.45795440673828 79.77019500732422 84.76265716552734 80.44747924804688" stroke-width="1.0892857313156128" fill="none" stroke="rgb(117, 90, 255)" stroke-opacity="0.16357301" stroke-linecap="round" stroke-linejoin="round"/>
    <path d="M 27.109092712402344 28.972082138061523 C 28.3561954498291 33.54591369628906 27.724628448486328 38.78157424926758 30.66304588317871 41.107303619384766 C 28.567773818969727 44.5996208190918 28.84876823425293 40.22413635253906 27.560422897338867 38.059329986572266 C 29.882572174072266 36.119720458984375 32.59400177001953 35.11738967895508 29.507356643676758 40.57157516479492" stroke-width="1.0892857313156128" fill="none" stroke="rgb(174, 225, 29)" stroke-opacity="0.00044682017" stroke-linecap="round" stroke-linejoin="round"/>
    <path d="M 101.11045837402344 39.80332565307617 C 101.5264663696289 39.136627197265625 106.41072082519531 39.47956848144531 111.82890319824219 37.62090301513672" stroke-width="1.0892857313156128" fill="none" stroke="rgb(122, 109, 181)" stroke-opacity="0.66880745" stroke-linecap="round" stroke-linejoin="round"/>
    <path d="M 101.54362487792969 26.617847442626953 C 100.17352294921875 24.967567443847656 98.94731140136719 30.54443359375 96.05461120605469 32.82658386230469" stroke-width="1.0892857313156128" fill="none" stroke="rgb(34, 178, 198)" stroke-opacity="0.65679955" stroke-linecap="round" stroke-linejoin="round"/>
    <path d="M 90.93647766113281 25.45477294921875 C 97.10304260253906 24.205549240112305 101.7784194946289 28.02588653564453 96.24298095703125 34.64369201660156 C 98.34630584716797 31.324941635131836 104.1988525390625 27.853240966796875 107.34049987792969 24.68848991394043" stroke-width="1.0892857313156128" fill="none" stroke="rgb(36, 126, 223)" stroke-opacity="0.08756891" stroke-linecap="round" stroke-linejoin="round"/>
    <path d="M 104.41161346435547 121.96354675292969 C 100.22440338134766 122.34805297851562 99.96047973632812 116.88329315185547 104.75862884521484 117.92365264892578" stroke-width="1.1426234245300293" fill="none" stroke="rgb(228, 138, 205)" stroke-opacity="0.8902679" stroke-linecap="round" stroke-linejoin="round"/>
    <path d="M 108.17074584960938 6.8598952293396 C 110.22952270507812 4.284635066986084 107.16539001464844 10.26768684387207 106.68051147460938 9.659478187561035" stroke-width="1.0892857313156128" fill="none" stroke="rgb(22, 195, 159)" stroke-opacity="0.6668922" stroke-linecap="round" stroke-linejoin="round"/>
  </g>
</svg>
