<?xml version="1.0" ?>
<svg xmlns="http://www.w3.org/2000/svg" version="1.1" width="925.0" height="925.0">
  <defs/>
  <g>
    <path d="M 29.58371353149414 85.31793975830078 C 87.20765686035156 84.41053771972656 144.85125732421875 83.54193115234375 202.51710510253906 82.7468490600586 C 260.13287353515625 81.99624633789062 208.01382446289062 74.78475952148438 155.90945434570312 67.68159484863281" stroke-width="4.779982566833496" fill="none" stroke="rgb(0, 0, 0)" stroke-opacity="1.0" stroke-linecap="round" stroke-linejoin="round"/>
    <path d="M 73.67686462402344 94.71717071533203 C 68.46888732910156 136.6770782470703 63.244815826416016 178.64450073242188 75.29315185546875 189.2469482421875 C 87.28324127197266 199.7964324951172 116.64401245117188 179.0421600341797 145.9455108642578 158.26315307617188 C 175.2325897216797 137.51805114746094 165.32008361816406 132.1298065185547 155.3888397216797 126.56266021728516" stroke-width="4.547281265258789" fill="none" stroke="rgb(0, 0, 0)" stroke-opacity="1.0" stroke-linecap="round" stroke-linejoin="round"/>
    <path d="M 154.91624450683594 97.15955352783203 C 165.12741088867188 96.03056335449219 175.223876953125 94.92636108398438 177.2883758544922 99.47911071777344 C 179.38743591308594 104.05985260009766 173.2520294189453 114.29281616210938 167.36181640625 124.58656311035156 C 161.3572540283203 134.83868408203125 161.20957946777344 135.3388214111328 161.11795043945312 135.87155151367188" stroke-width="4.676362991333008" fill="none" stroke="rgb(0, 0, 0)" stroke-opacity="1.0" stroke-linecap="round" stroke-linejoin="round"/>
    <path d="M 93.2760009765625 112.28740692138672 C 89.16836547851562 123.29029083251953 85.07804870605469 134.29281616210938 81.01891326904297 145.33810424804688 C 76.92022705078125 156.32681274414062 86.69705200195312 150.82643127441406 96.66984558105469 145.2494354248047" stroke-width="4.639418601989746" fill="none" stroke="rgb(0, 0, 0)" stroke-opacity="1.0" stroke-linecap="round" stroke-linejoin="round"/>
    <path d="M 78.35813903808594 108.84243774414062 C 86.50680541992188 109.02654266357422 78.64106750488281 111.13025665283203 88.95353698730469 109.93436431884766" stroke-width="4.869481086730957" fill="none" stroke="rgb(0, 0, 0)" stroke-opacity="1.0" stroke-linecap="round" stroke-linejoin="round"/>
    <path d="M 109.703125 113.81425476074219 C 117.53426361083984 114.62250518798828 109.9709243774414 116.54443359375 119.94583892822266 115.55201721191406" stroke-width="4.629659652709961" fill="none" stroke="rgb(0, 0, 0)" stroke-opacity="1.0" stroke-linecap="round" stroke-linejoin="round"/>
    <path d="M 85.37870788574219 160.18948364257812 C 105.71027374267578 163.1203155517578 108.35783386230469 160.3061065673828 109.3067855834961 159.49298095703125" stroke-width="4.6889142990112305" fill="none" stroke="rgb(0, 0, 0)" stroke-opacity="1.0" stroke-linecap="round" stroke-linejoin="round"/>
    <path d="M 152.15774536132812 130.1126251220703 C 152.40028381347656 135.88072204589844 152.66552734375 141.65963745117188 156.78286743164062 145.3462677001953 C 160.90333557128906 149.12643432617188 168.87803649902344 150.8439178466797 176.81900024414062 152.5989227294922 C 184.8030548095703 154.28131103515625 171.8758544921875 150.97105407714844 158.9501495361328 147.635009765625" stroke-width="2.0" fill="none" stroke="rgb(207, 200, 212)" stroke-opacity="0.812799" stroke-linecap="round" stroke-linejoin="round"/>
    <path d="M 94.98087310791016 145.73190307617188 C 95.57891082763672 140.40664672851562 96.17210388183594 135.1054229736328 96.76060485839844 129.80291748046875 C 97.36896514892578 124.49980926513672 95.6058120727539 116.33505249023438 93.8885726928711 108.03450012207031" stroke-width="2.3792479038238525" fill="none" stroke="rgb(151, 204, 197)" stroke-opacity="0.7514645" stroke-linecap="round" stroke-linejoin="round"/>
    <path d="M 118.71398162841797 115.61017608642578 C 119.18778991699219 107.75159454345703 119.66441345214844 99.97566223144531 120.14482116699219 92.1478271484375 C 120.61241912841797 84.33363342285156 125.8080062866211 83.05213928222656 131.0194549560547 81.73359680175781" stroke-width="2.0" fill="none" stroke="rgb(156, 118, 28)" stroke-opacity="0.2294437" stroke-linecap="round" stroke-linejoin="round"/>
    <path d="M 107.94832611083984 156.49940490722656 C 114.48873138427734 157.23699951171875 121.02850341796875 158.03182983398438 127.49396514892578 158.71250915527344 C 134.10430908203125 159.44744873046875 122.3368911743164 161.12928771972656 110.56822967529297 162.80520629882812" stroke-width="2.0" fill="none" stroke="rgb(87, 246, 203)" stroke-opacity="0.54649496" stroke-linecap="round" stroke-linejoin="round"/>
    <path d="M 78.1468276977539 108.34707641601562 C 77.96986389160156 110.12335968017578 77.77861785888672 112.10181427001953 79.17056274414062 118.16502380371094 C 80.58363342285156 124.2300033569336 83.63214111328125 134.45114135742188 86.56990051269531 144.67303466796875 C 89.5542984008789 154.8707275390625 88.03349304199219 158.44554138183594 86.49330139160156 162.01832580566406" stroke-width="2.9130260944366455" fill="none" stroke="rgb(11, 254, 67)" stroke-opacity="0.39667144" stroke-linecap="round" stroke-linejoin="round"/>
    <path d="M 158.57313537597656 136.47618103027344 C 166.7086181640625 134.87599182128906 174.90196228027344 133.05006408691406 181.1990203857422 132.7247772216797 C 187.44639587402344 132.3672637939453 191.85671997070312 133.45370483398438 196.28860473632812 134.5247344970703 C 200.58750915527344 135.6376190185547 192.34323120117188 144.60736083984375 183.98916625976562 153.57484436035156" stroke-width="2.2505321502685547" fill="none" stroke="rgb(123, 0, 2)" stroke-opacity="0.17732951" stroke-linecap="round" stroke-linejoin="round"/>
    <path d="M 108.81249237060547 160.25045776367188 C 109.72871398925781 167.45697021484375 110.64540100097656 174.55636596679688 111.55342102050781 181.87733459472656 C 112.47894287109375 189.08737182617188 118.76011657714844 176.74786376953125 125.04676055908203 164.32936096191406" stroke-width="2.518078088760376" fill="none" stroke="rgb(80, 50, 250)" stroke-opacity="0.57028496" stroke-linecap="round" stroke-linejoin="round"/>
    <path d="M 128.38055419921875 81.14971160888672 C 141.48707580566406 80.31507873535156 146.5587615966797 83.45674896240234 150.5093536376953 97.62759399414062" stroke-width="2.7657735347747803" fill="none" stroke="rgb(212, 73, 150)" stroke-opacity="0.15194137" stroke-linecap="round" stroke-linejoin="round"/>
    <path d="M 153.64370727539062 145.5472412109375 C 148.00546264648438 152.39173889160156 143.85476684570312 155.01348876953125 147.98013305664062 158.4423065185547" stroke-width="2.0" fill="none" stroke="rgb(46, 109, 6)" stroke-opacity="0.24733973" stroke-linecap="round" stroke-linejoin="round"/>
    <path d="M 111.37725830078125 161.64874267578125 C 116.19255065917969 160.82235717773438 120.96113586425781 160.06204223632812 125.78528594970703 159.33753967285156 C 130.585205078125 158.48324584960938 121.94144439697266 158.91688537597656 113.29228973388672 159.3273468017578" stroke-width="2.0" fill="none" stroke="rgb(120, 220, 159)" stroke-opacity="0.8440475" stroke-linecap="round" stroke-linejoin="round"/>
    <path d="M 110.30575561523438 162.35169982910156 C 108.70671081542969 163.78794860839844 107.18817138671875 165.2651824951172 105.65064239501953 166.69769287109375 C 104.0716323852539 168.22755432128906 108.77824401855469 151.77784729003906 113.52433776855469 135.3773193359375" stroke-width="2.3053102493286133" fill="none" stroke="rgb(147, 125, 147)" stroke-opacity="0.2234506" stroke-linecap="round" stroke-linejoin="round"/>
    <path d="M 109.72237396240234 161.42042541503906 C 109.00006866455078 158.39053344726562 108.31597137451172 155.2671356201172 106.72132873535156 155.35621643066406 C 105.15078735351562 155.44554138183594 102.71087646484375 158.75045776367188 100.23900604248047 162.09918212890625 C 97.76451110839844 165.3637237548828 107.34749603271484 164.31915283203125 116.89716339111328 163.2490692138672" stroke-width="2.0" fill="none" stroke="rgb(5, 46, 42)" stroke-opacity="0.03474495" stroke-linecap="round" stroke-linejoin="round"/>
    <path d="M 161.2270050048828 83.26078033447266 C 164.96017456054688 88.10091400146484 168.75608825683594 92.97796630859375 166.52072143554688 97.06111145019531 C 164.27781677246094 101.25926971435547 156.05343627929688 104.70545959472656 147.82522583007812 108.22399139404297 C 139.5875701904297 111.70207214355469 147.4643096923828 115.35711669921875 155.47463989257812 118.93864440917969" stroke-width="2.0" fill="none" stroke="rgb(40, 152, 51)" stroke-opacity="0.19386189" stroke-linecap="round" stroke-linejoin="round"/>
    <path d="M 71.17510986328125 178.43295288085938 C 66.50743103027344 184.74879455566406 61.74385452270508 190.99424743652344 60.90278244018555 194.0572509765625 C 60.029998779296875 197.11416625976562 63.06256103515625 196.92530822753906 66.08783721923828 196.7825164794922 C 69.13085174560547 196.581787109375 80.33385467529297 208.92881774902344 91.54956817626953 221.27947998046875" stroke-width="2.0" fill="none" stroke="rgb(0, 154, 202)" stroke-opacity="0.2984034" stroke-linecap="round" stroke-linejoin="round"/>
    <path d="M 39.05340576171875 37.275760650634766 C 40.10490036010742 36.24233627319336 41.15574645996094 35.13460922241211 36.99540710449219 36.46451950073242 C 32.72819900512695 37.79569625854492 23.293575286865234 41.52981948852539 13.797752380371094 45.24563217163086 C 4.329525470733643 48.94375228881836 7.21364164352417 39.13053512573242 10.09869384765625 29.325952529907227" stroke-width="2.0" fill="none" stroke="rgb(6, 180, 55)" stroke-opacity="0.8439779" stroke-linecap="round" stroke-linejoin="round"/>
    <path d="M 97.18708801269531 54.19278335571289 C 92.22032928466797 48.84220504760742 87.22074127197266 43.52127456665039 82.19712829589844 41.47832489013672 C 77.20561218261719 39.446533203125 72.16596221923828 40.735443115234375 67.13040161132812 42.02842330932617 C 62.08001708984375 43.315486907958984 56.80875778198242 47.36826705932617 51.55180740356445 51.38972473144531" stroke-width="2.0" fill="none" stroke="rgb(247, 140, 71)" stroke-opacity="0.41958463" stroke-linecap="round" stroke-linejoin="round"/>
    <path d="M 147.46714782714844 69.54073333740234 C 149.51950073242188 75.73316955566406 151.5260467529297 81.94149780273438 153.49607849121094 88.14208984375 C 155.47288513183594 94.33081817626953 155.53668212890625 89.01512145996094 155.5971221923828 83.68934631347656" stroke-width="2.0" fill="none" stroke="rgb(248, 65, 128)" stroke-opacity="0.0" stroke-linecap="round" stroke-linejoin="round"/>
    <path d="M 36.22229766845703 118.26087188720703 C 49.501319885253906 120.62154388427734 51.64851379394531 126.27094268798828 56.90487289428711 125.35769653320312" stroke-width="2.0" fill="none" stroke="rgb(128, 53, 69)" stroke-opacity="0.2856548" stroke-linecap="round" stroke-linejoin="round"/>
    <path d="M 90.5020980834961 148.9375 C 94.22777557373047 145.59967041015625 97.99642944335938 142.26211547851562 101.74906158447266 138.9229736328125 C 105.50960540771484 135.61817932128906 107.26917266845703 130.33067321777344 108.97869873046875 125.16199493408203" stroke-width="3.313621759414673" fill="none" stroke="rgb(101, 23, 187)" stroke-opacity="0.89498353" stroke-linecap="round" stroke-linejoin="round"/>
    <path d="M 8.254579544067383 101.36700439453125 C 8.554441452026367 110.63983154296875 13.433149337768555 123.63461303710938 8.409393310546875 122.56705474853516" stroke-width="2.6338205337524414" fill="none" stroke="rgb(37, 5, 32)" stroke-opacity="0.12634379" stroke-linecap="round" stroke-linejoin="round"/>
    <path d="M 174.601318359375 46.37769317626953 C 170.21949768066406 42.656982421875 165.90835571289062 38.95600128173828 165.6103515625 40.29642868041992 C 165.30615234375 41.8716926574707 169.08033752441406 48.51585006713867 172.810791015625 55.14103698730469 C 176.61184692382812 61.769351959228516 183.81198120117188 62.836830139160156 191.0200653076172 63.93537521362305" stroke-width="2.0" fill="none" stroke="rgb(0, 144, 58)" stroke-opacity="0.10149425" stroke-linecap="round" stroke-linejoin="round"/>
    <path d="M 45.2509765625 157.37881469726562 C 52.697811126708984 158.7963409423828 60.04691696166992 160.19740295410156 67.37255096435547 161.58502197265625 C 74.7720947265625 162.96575927734375 74.80824279785156 159.4686737060547 74.8314437866211 155.95762634277344" stroke-width="2.0" fill="none" stroke="rgb(50, 212, 50)" stroke-opacity="0.8490398" stroke-linecap="round" stroke-linejoin="round"/>
    <path d="M 123.31744384765625 186.31765747070312 C 125.34608459472656 182.93801879882812 127.30780792236328 179.46676635742188 129.33900451660156 176.06788635253906 C 131.30686950683594 172.6884765625 131.5176544189453 177.17176818847656 131.70086669921875 181.6854705810547" stroke-width="3.150778293609619" fill="none" stroke="rgb(54, 211, 100)" stroke-opacity="0.6049726" stroke-linecap="round" stroke-linejoin="round"/>
    <path d="M -2.1021459102630615 189.8655548095703 C 1.7155578136444092 188.8679962158203 5.538080215454102 187.83709716796875 9.374089241027832 186.8882293701172 C 13.191092491149902 185.8597869873047 8.539236068725586 179.85214233398438 3.908719539642334 173.76177978515625" stroke-width="2.0" fill="none" stroke="rgb(70, 74, 195)" stroke-opacity="0.80045193" stroke-linecap="round" stroke-linejoin="round"/>
    <path d="M 120.87916564941406 218.6583709716797 C 119.51187896728516 230.94248962402344 118.25127410888672 243.32818603515625 119.42535400390625 249.2493133544922 C 120.59712219238281 255.17184448242188 124.23040008544922 254.6768035888672 127.86367797851562 254.1817626953125 C 131.4969482421875 253.68670654296875 123.57183837890625 258.2563171386719 115.64447784423828 262.8258972167969" stroke-width="2.69437575340271" fill="none" stroke="rgb(106, 74, 209)" stroke-opacity="0.21598472" stroke-linecap="round" stroke-linejoin="round"/>
    <path d="M 28.41413688659668 53.65180587768555 C 35.53437042236328 40.736793518066406 41.35902786254883 33.03392028808594 54.72821044921875 40.172950744628906 C 33.40996551513672 33.718055725097656 35.057796478271484 34.05698013305664 52.45556640625 56.079811096191406 C 44.580528259277344 55.26246643066406 43.303504943847656 54.97542953491211 44.75066375732422 43.83720779418945" stroke-width="13.159807205200195" fill="none" stroke="rgb(3, 235, 161)" stroke-opacity="0.96454525" stroke-linecap="round" stroke-linejoin="round"/>
    <path d="M 114.42062377929688 107.87623596191406 C 117.24068450927734 106.26654815673828 110.35154724121094 95.35748291015625 103.54631805419922 115.64679718017578 C 93.11019134521484 98.76533508300781 107.39789581298828 93.92780303955078 132.71592712402344 102.35428619384766 C 116.41626739501953 124.18730163574219 104.24722290039062 130.13958740234375 135.51954650878906 130.17080688476562" stroke-width="6.284794807434082" fill="none" stroke="rgb(255, 115, 109)" stroke-opacity="0.9905153" stroke-linecap="round" stroke-linejoin="round"/>
    <path d="M 77.6102523803711 157.7333526611328 C 120.38895416259766 165.67672729492188 138.43795776367188 168.01455688476562 132.588134765625 164.5361328125 C 110.13301849365234 162.25205993652344 113.5300521850586 158.56883239746094 127.29769897460938 161.6482696533203" stroke-width="9.467567443847656" fill="none" stroke="rgb(117, 243, 217)" stroke-opacity="0.97934407" stroke-linecap="round" stroke-linejoin="round"/>
    <path d="M 82.97955322265625 192.68568420410156 C 96.6412353515625 203.65859985351562 96.8769302368164 182.21084594726562 84.70455169677734 184.0826873779297 C 74.7738265991211 184.9923858642578 69.77478790283203 189.71958923339844 60.946372985839844 181.58546447753906 C 74.02627563476562 188.02650451660156 79.18647003173828 187.92469787597656 68.02220153808594 185.38327026367188" stroke-width="2.0" fill="none" stroke="rgb(118, 154, 149)" stroke-opacity="0.30912638" stroke-linecap="round" stroke-linejoin="round"/>
    <path d="M 115.03677368164062 159.16793823242188 C 132.79298400878906 155.36033630371094 122.90092468261719 151.27735900878906 109.53550720214844 148.9904022216797" stroke-width="2.953643798828125" fill="none" stroke="rgb(108, 96, 136)" stroke-opacity="0.59500414" stroke-linecap="round" stroke-linejoin="round"/>
    <path d="M 125.95783996582031 112.58875274658203 C 134.76963806152344 102.91197204589844 87.61119079589844 96.17992401123047 102.5005874633789 120.26167297363281 C 145.17874145507812 127.65229034423828 142.7100372314453 116.6798095703125 145.65492248535156 118.39553833007812 C 151.73416137695312 99.38458251953125 152.12899780273438 107.98236846923828 109.27742004394531 109.14067077636719" stroke-width="6.9539103507995605" fill="none" stroke="rgb(227, 0, 6)" stroke-opacity="1.0" stroke-linecap="round" stroke-linejoin="round"/>
    <path d="M 144.17523193359375 115.41874694824219 C 149.3574981689453 143.46780395507812 147.77056884765625 152.4113311767578 133.87330627441406 144.0722198486328" stroke-width="9.798852920532227" fill="none" stroke="rgb(181, 0, 54)" stroke-opacity="1.0" stroke-linecap="round" stroke-linejoin="round"/>
    <path d="M 56.0514030456543 164.74705505371094 C 55.67272186279297 187.6422882080078 57.71963882446289 200.3584442138672 68.49964904785156 177.99598693847656 C 76.42353057861328 190.44503784179688 65.19204711914062 196.47891235351562 53.59233093261719 214.4002227783203" stroke-width="5.237929344177246" fill="none" stroke="rgb(101, 100, 99)" stroke-opacity="0.8463022" stroke-linecap="round" stroke-linejoin="round"/>
    <path d="M 89.62217712402344 185.27476501464844 C 65.16897583007812 176.3392791748047 50.7855224609375 179.68661499023438 1.2695903778076172 163.3173065185547 C 55.33664321899414 149.72409057617188 64.18978118896484 169.8054656982422 71.01011657714844 154.90753173828125 C 57.38380432128906 158.35997009277344 71.54627227783203 156.34779357910156 71.52571105957031 99.89198303222656" stroke-width="8.0081148147583" fill="none" stroke="rgb(46, 10, 0)" stroke-opacity="0.98016995" stroke-linecap="round" stroke-linejoin="round"/>
    <path d="M 134.980224609375 121.85753631591797 C 128.28933715820312 122.37906646728516 138.79978942871094 137.4202117919922 134.553955078125 139.66773986816406 C 137.47288513183594 128.6917724609375 139.95965576171875 128.9842529296875 143.14834594726562 113.74496459960938" stroke-width="8.692978858947754" fill="none" stroke="rgb(255, 148, 149)" stroke-opacity="0.69958067" stroke-linecap="round" stroke-linejoin="round"/>
    <path d="M 137.83912658691406 156.02439880371094 C 93.43330383300781 148.14669799804688 79.46003723144531 152.2763214111328 101.2752685546875 130.5413360595703 C 158.9818878173828 157.63082885742188 153.91281127929688 141.69456481933594 117.45610809326172 139.997314453125 C 140.42385864257812 136.97291564941406 142.33123779296875 135.2271728515625 146.88232421875 108.59264373779297" stroke-width="16.316633224487305" fill="none" stroke="rgb(238, 0, 7)" stroke-opacity="0.94521934" stroke-linecap="round" stroke-linejoin="round"/>
    <path d="M 133.14984130859375 175.31141662597656 C 137.88966369628906 160.10597229003906 125.21357727050781 174.3874969482422 121.36063385009766 169.49879455566406 C 127.60807800292969 166.60232543945312 140.10546875 165.7534637451172 119.02363586425781 167.42459106445312" stroke-width="2.380734920501709" fill="none" stroke="rgb(221, 108, 151)" stroke-opacity="0.02291518" stroke-linecap="round" stroke-linejoin="round"/>
    <path d="M 42.248512268066406 145.593505859375 C 2.9738502502441406 151.74551391601562 5.227670669555664 155.9298095703125 8.800122261047363 177.1411895751953 C -27.271194458007812 176.70809936523438 -34.948211669921875 172.2070770263672 -25.655811309814453 170.27650451660156 C -9.781084060668945 156.90420532226562 -13.079536437988281 150.35830688476562 -10.448593139648438 150.17604064941406" stroke-width="6.033626079559326" fill="none" stroke="rgb(75, 69, 255)" stroke-opacity="0.7327182" stroke-linecap="round" stroke-linejoin="round"/>
    <path d="M 163.07943725585938 9.984809875488281 C 140.83863830566406 31.858688354492188 134.63111877441406 29.102140426635742 133.93341064453125 31.613718032836914 C 104.36382293701172 28.649927139282227 117.1224365234375 27.479700088500977 143.6481170654297 12.587373733520508" stroke-width="2.02786922454834" fill="none" stroke="rgb(240, 97, 2)" stroke-opacity="0.24753873" stroke-linecap="round" stroke-linejoin="round"/>
    <path d="M 29.059356689453125 82.01053619384766 C 35.68138885498047 95.95393371582031 25.205305099487305 62.48341751098633 33.81034469604492 130.79296875" stroke-width="4.786740779876709" fill="none" stroke="rgb(84, 159, 110)" stroke-opacity="0.9518949" stroke-linecap="round" stroke-linejoin="round"/>
    <path d="M 9.389969825744629 101.51446533203125 C 31.18362045288086 108.33331298828125 27.579177856445312 125.65636444091797 24.06886100769043 127.20360565185547 C 29.747539520263672 122.48302459716797 9.286218643188477 134.85858154296875 -4.414435863494873 127.908203125" stroke-width="2.0" fill="none" stroke="rgb(255, 126, 70)" stroke-opacity="0.70870775" stroke-linecap="round" stroke-linejoin="round"/>
    <path d="M 190.27345275878906 6.003425121307373 C 201.90097045898438 30.38931655883789 186.0039520263672 36.69913101196289 188.61679077148438 2.302985906600952" stroke-width="5.35215425491333" fill="none" stroke="rgb(0, 255, 161)" stroke-opacity="0.6176719" stroke-linecap="round" stroke-linejoin="round"/>
    <path d="M 41.48605728149414 68.42230224609375 C 26.285903930664062 73.63501739501953 25.91575813293457 97.94219970703125 21.626380920410156 93.21952056884766 C 11.162233352661133 72.3783950805664 12.40274715423584 76.31539916992188 6.992118835449219 56.55837631225586" stroke-width="6.229925632476807" fill="none" stroke="rgb(0, 255, 134)" stroke-opacity="0.39038497" stroke-linecap="round" stroke-linejoin="round"/>
    <path d="M 60.38618850708008 202.47967529296875 C 58.86960220336914 200.77926635742188 48.5891227722168 221.7288818359375 45.86604309082031 220.9840850830078 C 50.70719909667969 213.88851928710938 36.497100830078125 240.769775390625 60.018795013427734 229.7240447998047" stroke-width="4.246769905090332" fill="none" stroke="rgb(83, 29, 5)" stroke-opacity="0.51536906" stroke-linecap="round" stroke-linejoin="round"/>
    <path d="M 201.03016662597656 212.73948669433594 C 203.38418579101562 181.96055603027344 208.0312042236328 188.9542694091797 202.33450317382812 159.3600311279297 C 192.95054626464844 161.2951202392578 186.08680725097656 174.59555053710938 181.7136993408203 183.28089904785156" stroke-width="2.0" fill="none" stroke="rgb(195, 166, 138)" stroke-opacity="1.0" stroke-linecap="round" stroke-linejoin="round"/>
    <path d="M 5.703932762145996 123.43782043457031 C 30.844615936279297 113.89073944091797 17.792654037475586 108.33795928955078 21.042261123657227 110.8509521484375" stroke-width="3.524136781692505" fill="none" stroke="rgb(228, 70, 0)" stroke-opacity="0.30362365" stroke-linecap="round" stroke-linejoin="round"/>
    <path d="M 185.59474182128906 70.17919158935547 C 136.1950225830078 65.897216796875 164.71092224121094 61.2979621887207 135.943603515625 71.97908782958984" stroke-width="3.8306171894073486" fill="none" stroke="rgb(108, 93, 253)" stroke-opacity="1.0" stroke-linecap="round" stroke-linejoin="round"/>
    <path d="M 50.51599884033203 207.51402282714844 C 66.80146789550781 177.4836883544922 68.3537826538086 183.09909057617188 89.96236419677734 195.70785522460938 C 101.54631805419922 170.30052185058594 88.64849090576172 178.9564666748047 90.37234497070312 226.6586151123047" stroke-width="5.200313568115234" fill="none" stroke="rgb(152, 85, 42)" stroke-opacity="1.0" stroke-linecap="round" stroke-linejoin="round"/>
    <path d="M 19.343236923217773 119.39006042480469 C 16.2531681060791 85.85890197753906 2.302764654159546 102.1468734741211 4.040226936340332 121.59798431396484" stroke-width="3.4627885818481445" fill="none" stroke="rgb(201, 83, 26)" stroke-opacity="0.7496957" stroke-linecap="round" stroke-linejoin="round"/>
    <path d="M 212.44390869140625 209.35821533203125 C 214.15858459472656 186.8107452392578 212.1435546875 193.8799591064453 216.14768981933594 187.55621337890625 C 215.74195861816406 187.51515197753906 218.1072235107422 192.9870147705078 224.9099884033203 218.00503540039062" stroke-width="5.760682106018066" fill="none" stroke="rgb(78, 70, 255)" stroke-opacity="0.75063634" stroke-linecap="round" stroke-linejoin="round"/>
  </g>
</svg>
