<?xml version="1.0" ?>
<svg xmlns="http://www.w3.org/2000/svg" version="1.1" width="1104.0" height="1104.0">
  <defs/>
  <g>
    <path d="M 21.758398056030273 -6.5118536949157715 C 53.46384811401367 -3.4865100383758545 76.55978393554688 11.394673347473145 114.14189147949219 19.61593246459961 C 152.10403442382812 19.89500617980957 187.3238067626953 42.4811897277832 200.78375244140625 39.27395248413086 C 238.09230041503906 28.77910804748535 191.42984008789062 36.635528564453125 154.1157684326172 79.5539779663086" stroke-width="16.67401885986328" fill="none" stroke="rgb(109, 14, 254)" stroke-opacity="0.49515274" stroke-linecap="round" stroke-linejoin="round"/>
    <path d="M 930.5391235351562 110.27880096435547 C 985.9346313476562 69.69502258300781 1001.51708984375 57.1536979675293 1017.1240844726562 39.74545669555664 C 1023.1256103515625 23.534759521484375 1015.6223754882812 105.04363250732422 1005.7372436523438 168.5184783935547" stroke-width="19.50005531311035" fill="none" stroke="rgb(212, 83, 151)" stroke-opacity="0.5226752" stroke-linecap="round" stroke-linejoin="round"/>
    <path d="M 1024.1826171875 1014.2560424804688 C 1023.1719970703125 992.1121826171875 996.6900024414062 1030.78857421875 997.6759033203125 1011.4882202148438" stroke-width="9.85714340209961" fill="none" stroke="rgb(156, 105, 50)" stroke-opacity="0.49585792" stroke-linecap="round" stroke-linejoin="round"/>
    <path d="M 194.37396240234375 885.9061279296875 C 221.2292022705078 851.71533203125 264.8621520996094 850.222412109375 230.55702209472656 862.282470703125" stroke-width="9.85714340209961" fill="none" stroke="rgb(126, 163, 132)" stroke-opacity="0.45346472" stroke-linecap="round" stroke-linejoin="round"/>
    <path d="M 1093.288818359375 613.4821166992188 C 1080.1533203125 640.875 1064.063720703125 652.861572265625 1042.488525390625 637.6544189453125 C 1068.198486328125 650.0775146484375 1081.8150634765625 644.3341674804688 1071.3299560546875 638.7445068359375 C 1068.951904296875 597.7518310546875 1092.39111328125 535.2862548828125 1118.2366943359375 478.8350830078125" stroke-width="19.29613494873047" fill="none" stroke="rgb(75, 51, 34)" stroke-opacity="0.5658722" stroke-linecap="round" stroke-linejoin="round"/>
    <path d="M 519.8547973632812 883.7890014648438 C 575.0335693359375 919.2661743164062 648.4833374023438 854.6178588867188 639.7388916015625 869.822998046875" stroke-width="16.618555068969727" fill="none" stroke="rgb(93, 27, 255)" stroke-opacity="0.46795923" stroke-linecap="round" stroke-linejoin="round"/>
    <path d="M 634.2572631835938 12.285076141357422 C 654.03076171875 35.929901123046875 672.6355590820312 37.897544860839844 689.46923828125 40.740928649902344 C 687.6748046875 53.08442687988281 692.6652221679688 72.37223815917969 715.8948364257812 86.38709259033203" stroke-width="13.497314453125" fill="none" stroke="rgb(244, 164, 189)" stroke-opacity="0.45772448" stroke-linecap="round" stroke-linejoin="round"/>
    <path d="M 995.20947265625 519.4720458984375 C 1011.6502075195312 548.5414428710938 1054.3409423828125 552.2373046875 1103.6080322265625 538.5684814453125" stroke-width="21.366283416748047" fill="none" stroke="rgb(76, 255, 214)" stroke-opacity="0.5949958" stroke-linecap="round" stroke-linejoin="round"/>
    <path d="M 640.9313354492188 245.41714477539062 C 632.1087646484375 139.56655883789062 602.87109375 107.0398941040039 564.58349609375 101.96031188964844 C 555.46875 93.1728744506836 582.3538818359375 105.38885498046875 578.944580078125 116.87667846679688 C 586.654296875 116.61603546142578 549.5108032226562 59.516536712646484 470.1468505859375 36.159149169921875" stroke-width="34.643409729003906" fill="none" stroke="rgb(134, 85, 38)" stroke-opacity="0.55818474" stroke-linecap="round" stroke-linejoin="round"/>
    <path d="M 615.89501953125 165.59243774414062 C 591.9285278320312 124.20879364013672 562.5375366210938 88.97493743896484 507.0470886230469 96.96751403808594 C 505.57904052734375 61.42906188964844 522.6087036132812 170.3931884765625 562.600341796875 226.19866943359375" stroke-width="25.55828857421875" fill="none" stroke="rgb(98, 17, 229)" stroke-opacity="0.6581262" stroke-linecap="round" stroke-linejoin="round"/>
    <path d="M 504.8715515136719 566.4220581054688 C 522.0347290039062 569.5582885742188 489.523681640625 576.6888427734375 510.9186706542969 644.3788452148438" stroke-width="14.739686012268066" fill="none" stroke="rgb(65, 38, 69)" stroke-opacity="0.6194547" stroke-linecap="round" stroke-linejoin="round"/>
    <path d="M 893.922607421875 151.82310485839844 C 944.9157104492188 167.5727996826172 957.6956787109375 174.22976684570312 956.7138061523438 195.04592895507812 C 979.7997436523438 205.20431518554688 977.2984008789062 178.87950134277344 955.8289184570312 189.83863830566406" stroke-width="9.85714340209961" fill="none" stroke="rgb(224, 78, 94)" stroke-opacity="0.38935196" stroke-linecap="round" stroke-linejoin="round"/>
    <path d="M 103.14368438720703 246.0121307373047 C 103.0986557006836 294.4505310058594 130.8503875732422 298.2167663574219 153.31324768066406 280.3219909667969 C 162.13201904296875 252.43649291992188 160.62977600097656 234.96009826660156 140.35159301757812 228.5129852294922 C 160.52171325683594 174.077392578125 117.09410858154297 191.2337188720703 111.62212371826172 230.84239196777344" stroke-width="25.363283157348633" fill="none" stroke="rgb(0, 255, 119)" stroke-opacity="0.7045869" stroke-linecap="round" stroke-linejoin="round"/>
    <path d="M 764.3773803710938 287.1815185546875 C 731.2586059570312 268.3463439941406 735.2971801757812 223.10975646972656 742.6422119140625 271.3356628417969 C 748.1246337890625 279.0082092285156 780.7706909179688 267.8860778808594 819.8177490234375 284.1153869628906 C 902.435791015625 269.7540588378906 938.415771484375 298.4659423828125 949.728271484375 358.3890075683594" stroke-width="26.683557510375977" fill="none" stroke="rgb(63, 72, 0)" stroke-opacity="0.6285939" stroke-linecap="round" stroke-linejoin="round"/>
    <path d="M 568.8574829101562 62.82393264770508 C 542.5908203125 39.209224700927734 514.0398559570312 29.62030792236328 513.9827270507812 16.250507354736328 C 477.05389404296875 7.239017963409424 454.3219299316406 9.552864074707031 452.1578063964844 36.881065368652344 C 479.93902587890625 -9.956147193908691 478.8868713378906 3.670543670654297 473.55377197265625 -0.32684794068336487" stroke-width="11.758301734924316" fill="none" stroke="rgb(121, 143, 98)" stroke-opacity="0.35695794" stroke-linecap="round" stroke-linejoin="round"/>
    <path d="M 515.8276977539062 133.55006408691406 C 538.9606323242188 116.77941131591797 560.018310546875 131.08755493164062 559.5103149414062 196.55213928222656 C 592.0923461914062 185.62442016601562 573.1205444335938 149.34014892578125 528.4490356445312 172.1576690673828" stroke-width="10.487022399902344" fill="none" stroke="rgb(71, 121, 116)" stroke-opacity="0.51795864" stroke-linecap="round" stroke-linejoin="round"/>
    <path d="M 901.7733764648438 844.0238647460938 C 844.1602172851562 842.06201171875 854.727294921875 849.7435913085938 769.0823974609375 888.6602783203125" stroke-width="10.278423309326172" fill="none" stroke="rgb(141, 130, 0)" stroke-opacity="0.48986512" stroke-linecap="round" stroke-linejoin="round"/>
    <path d="M 1036.7904052734375 680.072998046875 C 1049.6326904296875 674.7775268554688 1100.4390869140625 662.8233032226562 1067.6053466796875 664.301513671875 C 1067.2333984375 674.519287109375 1046.7142333984375 695.84375 981.1788940429688 678.2454833984375 C 958.308837890625 710.046875 1011.079345703125 624.9168090820312 1096.7021484375 585.2054443359375" stroke-width="9.85714340209961" fill="none" stroke="rgb(80, 76, 0)" stroke-opacity="0.31966588" stroke-linecap="round" stroke-linejoin="round"/>
    <path d="M 222.98318481445312 909.946533203125 C 321.889892578125 856.9288940429688 291.23095703125 884.2581787109375 298.6760559082031 915.274658203125" stroke-width="9.85714340209961" fill="none" stroke="rgb(212, 174, 132)" stroke-opacity="0.5425437" stroke-linecap="round" stroke-linejoin="round"/>
    <path d="M 774.7333984375 576.6697387695312 C 822.5559692382812 641.2019653320312 796.9195556640625 672.134033203125 889.9869995117188 685.8623657226562" stroke-width="14.774576187133789" fill="none" stroke="rgb(89, 84, 86)" stroke-opacity="0.51507586" stroke-linecap="round" stroke-linejoin="round"/>
    <path d="M 204.05433654785156 421.5554504394531 C 147.22947692871094 437.6255187988281 105.1526107788086 455.1932678222656 99.91608428955078 405.4862060546875 C 61.05550765991211 387.95947265625 63.825157165527344 360.7261047363281 76.1596908569336 324.3301696777344 C 98.82740783691406 284.0262145996094 73.1275634765625 279.033203125 77.60106658935547 347.2900085449219" stroke-width="16.3802547454834" fill="none" stroke="rgb(219, 153, 34)" stroke-opacity="0.46813312" stroke-linecap="round" stroke-linejoin="round"/>
    <path d="M 919.5665893554688 1094.4873046875 C 960.7120361328125 1067.391845703125 965.9962768554688 1030.8155517578125 971.605224609375 999.11376953125 C 984.238525390625 1026.6917724609375 1015.9258422851562 1043.47607421875 1048.588134765625 1059.931640625 C 1087.4661865234375 1079.790771484375 1110.0887451171875 1061.8797607421875 1127.763916015625 1039.8167724609375" stroke-width="9.91433334350586" fill="none" stroke="rgb(231, 219, 86)" stroke-opacity="0.3695091" stroke-linecap="round" stroke-linejoin="round"/>
    <path d="M 501.8802185058594 489.0028381347656 C 566.8576049804688 509.0021667480469 604.7511596679688 510.2288818359375 607.5634155273438 455.9175720214844 C 629.101318359375 469.7248840332031 673.7980346679688 471.6490478515625 696.767333984375 446.095458984375" stroke-width="29.134593963623047" fill="none" stroke="rgb(244, 227, 94)" stroke-opacity="0.41292801" stroke-linecap="round" stroke-linejoin="round"/>
    <path d="M 518.064453125 699.1939086914062 C 603.8143310546875 701.1514892578125 577.8546142578125 696.4979248046875 491.9756774902344 715.0902709960938" stroke-width="16.233474731445312" fill="none" stroke="rgb(124, 73, 102)" stroke-opacity="0.6160272" stroke-linecap="round" stroke-linejoin="round"/>
    <path d="M 689.0171508789062 919.007568359375 C 662.9378662109375 954.7769165039062 664.3414306640625 992.31494140625 663.1640625 1060.1815185546875 C 625.1200561523438 1099.36669921875 614.8896484375 1043.00048828125 607.3404541015625 945.88916015625" stroke-width="9.85714340209961" fill="none" stroke="rgb(66, 51, 54)" stroke-opacity="0.5085648" stroke-linecap="round" stroke-linejoin="round"/>
    <path d="M 75.12097930908203 324.0811767578125 C 142.82347106933594 348.66339111328125 136.108154296875 351.9840087890625 60.95370864868164 314.6554260253906" stroke-width="16.861642837524414" fill="none" stroke="rgb(188, 86, 140)" stroke-opacity="0.64582205" stroke-linecap="round" stroke-linejoin="round"/>
    <path d="M 939.0250244140625 796.1812744140625 C 899.9835815429688 812.9336547851562 859.8763427734375 827.75146484375 846.8991088867188 824.8441772460938 C 833.8903198242188 836.9304809570312 877.872314453125 846.0836791992188 932.1280517578125 840.84521484375 C 944.2835083007812 844.0874633789062 944.6302490234375 939.39404296875 920.3441772460938 966.4517211914062" stroke-width="11.355536460876465" fill="none" stroke="rgb(36, 255, 195)" stroke-opacity="0.3721697" stroke-linecap="round" stroke-linejoin="round"/>
    <path d="M 979.5172729492188 903.14111328125 C 1006.237060546875 931.5305786132812 974.9158935546875 965.9736328125 989.029296875 973.78662109375 C 1040.155517578125 965.6934814453125 1086.6201171875 975.2124633789062 1091.8563232421875 1023.0262451171875 C 1122.7564697265625 1044.8316650390625 1058.3983154296875 1022.0555419921875 975.114013671875 992.7075805664062" stroke-width="9.85714340209961" fill="none" stroke="rgb(183, 151, 165)" stroke-opacity="0.47831059" stroke-linecap="round" stroke-linejoin="round"/>
    <path d="M 474.5835266113281 855.4335327148438 C 420.6496276855469 795.0552978515625 435.78302001953125 756.7281494140625 408.844970703125 782.744384765625" stroke-width="11.02355670928955" fill="none" stroke="rgb(196, 163, 255)" stroke-opacity="0.37634847" stroke-linecap="round" stroke-linejoin="round"/>
    <path d="M 350.1228942871094 1062.381103515625 C 269.60552978515625 1078.35791015625 232.42388916015625 1106.2130126953125 193.96527099609375 1132.814453125 C 186.863037109375 1192.2318115234375 249.1396942138672 1180.2864990234375 311.41632080078125 1168.34130859375" stroke-width="12.126927375793457" fill="none" stroke="rgb(166, 165, 76)" stroke-opacity="0.42795286" stroke-linecap="round" stroke-linejoin="round"/>
    <path d="M 66.14720916748047 141.9569549560547 C 53.0097541809082 105.16580200195312 30.008493423461914 75.86431121826172 18.449220657348633 62.305233001708984 C 1.1727356910705566 46.24701690673828 7.966852188110352 60.563655853271484 28.212873458862305 75.17615509033203 C 32.163448333740234 77.76742553710938 23.286806106567383 83.45916748046875 24.512048721313477 80.21491241455078" stroke-width="13.556377410888672" fill="none" stroke="rgb(8, 248, 186)" stroke-opacity="0.47333226" stroke-linecap="round" stroke-linejoin="round"/>
    <path d="M 1071.04443359375 611.0507202148438 C 1026.7540283203125 625.5816650390625 976.9971923828125 619.4024047851562 941.3222045898438 602.646484375 C 941.379638671875 593.5260620117188 952.11865234375 592.3619995117188 951.005615234375 610.0609741210938 C 937.6083374023438 577.4180297851562 919.3626708984375 621.4832153320312 921.1044311523438 675.4493408203125" stroke-width="9.88672924041748" fill="none" stroke="rgb(78, 166, 144)" stroke-opacity="0.44763488" stroke-linecap="round" stroke-linejoin="round"/>
    <path d="M 594.7147216796875 572.3479614257812 C 585.5486450195312 567.33154296875 585.1257934570312 582.5872802734375 578.0202026367188 577.8450927734375 C 565.69091796875 573.1466674804688 569.8582153320312 556.8384399414062 576.2792358398438 595.9143676757812 C 583.7286376953125 632.9791870117188 578.3917846679688 637.337158203125 582.4404907226562 665.5695190429688 C 571.9171142578125 694.0520629882812 601.0059204101562 694.4595336914062 650.7039794921875 639.0792236328125 C 661.9234619140625 660.1596069335938 684.418212890625 678.6171875 702.1370239257812 659.3967895507812 C 707.861328125 640.9089965820312 688.3333129882812 598.0563354492188 685.6022338867188 581.9717407226562 C 696.0664672851562 591.3036499023438 722.4334716796875 561.9057006835938 742.7185668945312 529.9315185546875 C 752.334228515625 500.1324157714844 750.2459716796875 458.8949279785156 757.2921142578125 436.1104431152344 C 739.9029541015625 438.4649963378906 752.642578125 447.0057067871094 785.3181762695312 435.6149597167969 C 777.8798828125 437.4385986328125 755.5814819335938 446.3369445800781 755.8299560546875 464.39666748046875 C 757.1041870117188 442.4857177734375 765.63037109375 426.4493713378906 752.7776489257812 342.55999755859375 C 712.2724609375 342.39337158203125 764.1483764648438 370.3544921875 853.7294311523438 355.3044738769531" stroke-width="9.85714340209961" fill="none" stroke="rgb(26, 5, 11)" stroke-opacity="1.0" stroke-linecap="round" stroke-linejoin="round"/>
    <path d="M 461.1106262207031 426.06103515625 C 487.4429931640625 449.60076904296875 497.63043212890625 429.7327575683594 519.3131713867188 420.01458740234375 C 525.7452392578125 426.9352111816406 545.4122314453125 403.5973815917969 557.9784545898438 410.4957275390625 C 530.84521484375 405.5212097167969 514.0999145507812 391.2549133300781 490.95147705078125 404.2098083496094 C 453.1446838378906 391.121337890625 460.0075378417969 381.6521301269531 485.6909484863281 391.79840087890625 C 473.20025634765625 386.7392578125 447.8935241699219 418.62939453125 466.8324890136719 444.50140380859375 C 478.8917541503906 416.4244079589844 457.8703918457031 395.5641174316406 444.83843994140625 419.01922607421875 C 450.9485778808594 481.923828125 421.7079772949219 529.1900024414062 371.09100341796875 519.2114868164062 C 354.97540283203125 538.7373046875 336.9483337402344 514.4555053710938 318.5435791015625 490.3815612792969 C 291.21014404296875 504.916259765625 282.9137878417969 489.0054931640625 271.06744384765625 454.6331481933594" stroke-width="21.823265075683594" fill="none" stroke="rgb(44, 3, 4)" stroke-opacity="1.0" stroke-linecap="round" stroke-linejoin="round"/>
    <path d="M 440.7132263183594 524.6871337890625 C 445.37188720703125 517.382568359375 440.5987243652344 520.1298828125 427.17449951171875 532.8568725585938 C 445.7346496582031 531.0625 440.0123291015625 550.0699462890625 425.5390625 545.3220825195312 C 409.2554931640625 557.5391845703125 377.1020812988281 610.299560546875 389.22802734375 661.1295776367188 C 436.166748046875 640.6893310546875 428.4585876464844 660.412353515625 416.6872863769531 663.560302734375 C 421.25177001953125 704.4030151367188 430.77294921875 739.4810180664062 514.60986328125 702.04052734375 C 531.72314453125 699.9389038085938 528.9151611328125 701.6157836914062 456.9867858886719 735.4188842773438 C 489.065673828125 786.9884643554688 518.7598876953125 780.3159790039062 486.5402526855469 780.1345825195312 C 489.2573547363281 806.0382080078125 475.83135986328125 798.116943359375 457.84527587890625 786.3068237304688 C 421.9227294921875 790.8551025390625 414.3408203125 772.4691772460938 414.0927429199219 735.3617553710938 C 402.5144958496094 732.900390625 406.8401184082031 703.7437133789062 415.33746337890625 714.2677001953125 C 422.8183288574219 746.16796875 380.1141357421875 733.6556396484375 353.9970703125 721.7514038085938 C 307.14532470703125 727.481689453125 279.1034851074219 727.5769653320312 246.18614196777344 733.9773559570312" stroke-width="9.85714340209961" fill="none" stroke="rgb(30, 42, 28)" stroke-opacity="0.7589732" stroke-linecap="round" stroke-linejoin="round"/>
  </g>
</svg>
