<?xml version="1.0" ?>
<svg xmlns="http://www.w3.org/2000/svg" version="1.1" width="925.0" height="925.0">
  <defs/>
  <g>
    <path d="M 366.69635009765625 625.7488403320312 C 371.2193908691406 526.730224609375 365.6957702636719 521.0552978515625 364.9269714355469 510.3063659667969 C 380.9900817871094 501.0352478027344 379.9830627441406 507.4943542480469 356.8499755859375 515.7791748046875 C 361.8247985839844 528.1438598632812 361.6820983886719 497.6560974121094 399.7548522949219 507.8846740722656 C 424.9179382324219 504.9547119140625 467.76031494140625 500.312255859375 492.4370422363281 490.456298828125 C 536.4677734375 487.2764587402344 538.7009887695312 480.83685302734375 534.3678588867188 461.7171936035156 C 521.7322387695312 479.8905944824219 510.8977966308594 472.51812744140625 512.9588623046875 521.009521484375 C 532.7286376953125 561.687744140625 538.3097534179688 641.0704345703125 559.2621459960938 649.6640625 C 571.618896484375 668.1702880859375 574.2459106445312 639.0096435546875 578.9530639648438 606.2412719726562 C 570.6491088867188 630.1394653320312 575.6235961914062 684.9898681640625 583.2119750976562 718.9733276367188 C 577.2921142578125 707.3790893554688 622.7105102539062 696.7202758789062 635.372802734375 675.3222045898438 C 660.6744995117188 677.2809448242188 671.7415771484375 660.9390869140625 692.5758666992188 665.0763549804688 C 696.2034912109375 668.024169921875 718.4666137695312 627.8204345703125 729.028076171875 652.7799072265625" stroke-width="17.901172637939453" fill="none" stroke="rgb(84, 12, 33)" stroke-opacity="0.73883915" stroke-linecap="round" stroke-linejoin="round"/>
    <path d="M 538.5587158203125 496.7904052734375 C 546.5056762695312 499.6767272949219 521.8648071289062 521.310302734375 532.126708984375 507.1070861816406" stroke-width="8.258928298950195" fill="none" stroke="rgb(87, 4, 221)" stroke-opacity="0.22722206" stroke-linecap="round" stroke-linejoin="round"/>
    <path d="M 703.1015625 632.845703125 C 681.9608764648438 624.6170654296875 626.9692993164062 630.81640625 618.6625366210938 625.0736083984375 C 588.3331909179688 615.6029663085938 539.791015625 604.6802978515625 524.4696655273438 637.0120849609375" stroke-width="22.53489875793457" fill="none" stroke="rgb(67, 7, 200)" stroke-opacity="0.36094487" stroke-linecap="round" stroke-linejoin="round"/>
    <path d="M 494.41387939453125 487.6636962890625 C 461.0227966308594 394.84234619140625 499.5426025390625 382.7012023925781 377.5984802246094 397.22271728515625" stroke-width="8.52029800415039" fill="none" stroke="rgb(150, 22, 99)" stroke-opacity="1.0" stroke-linecap="round" stroke-linejoin="round"/>
    <path d="M 613.356201171875 645.7398681640625 C 577.849609375 655.3753051757812 556.682373046875 639.7608032226562 552.8609619140625 618.3919067382812 C 568.32177734375 637.3402709960938 576.460205078125 650.5652465820312 551.3887329101562 648.8092041015625 C 565.9900512695312 649.6846923828125 556.1064453125 668.8642578125 534.3678588867188 665.8078002929688" stroke-width="20.218181610107422" fill="none" stroke="rgb(177, 132, 125)" stroke-opacity="0.35902908" stroke-linecap="round" stroke-linejoin="round"/>
    <path d="M 619.9829711914062 691.2767944335938 C 654.2032470703125 663.4158325195312 682.5869140625 668.2531127929688 674.2019653320312 707.9845581054688 C 625.8153686523438 713.5247192382812 591.2430419921875 681.7515258789062 551.1000366210938 653.942626953125" stroke-width="9.28777027130127" fill="none" stroke="rgb(126, 79, 165)" stroke-opacity="0.25774488" stroke-linecap="round" stroke-linejoin="round"/>
    <path d="M 731.8867797851562 656.428955078125 C 695.7509155273438 641.5082397460938 706.5516357421875 649.0157470703125 709.0851440429688 707.62158203125 C 700.5909423828125 703.3674926757812 706.7662963867188 667.5772705078125 706.9865112304688 733.9111938476562" stroke-width="9.13629150390625" fill="none" stroke="rgb(69, 97, 132)" stroke-opacity="0.5233601" stroke-linecap="round" stroke-linejoin="round"/>
    <path d="M 471.9353332519531 470.6621398925781 C 512.344482421875 461.36041259765625 553.1199340820312 478.09344482421875 542.3954467773438 475.0518493652344 C 527.2940063476562 438.4958801269531 519.0504150390625 429.5065612792969 500.4352722167969 391.0978698730469" stroke-width="10.01918888092041" fill="none" stroke="rgb(86, 136, 235)" stroke-opacity="0.57410777" stroke-linecap="round" stroke-linejoin="round"/>
    <path d="M 376.1131591796875 523.82275390625 C 404.2298889160156 494.77447509765625 353.5279541015625 503.0511474609375 324.2903137207031 507.7881164550781 C 307.92132568359375 477.34564208984375 291.7779846191406 436.64117431640625 284.899658203125 410.4013977050781" stroke-width="17.573781967163086" fill="none" stroke="rgb(55, 25, 113)" stroke-opacity="0.6801424" stroke-linecap="round" stroke-linejoin="round"/>
    <path d="M 554.7188720703125 695.5481567382812 C 537.8482055664062 662.1183471679688 487.020751953125 643.081298828125 492.06842041015625 636.2376098632812 C 495.54541015625 630.0678100585938 531.3233642578125 661.9025268554688 589.939697265625 664.1766967773438 C 634.4888916015625 644.7239990234375 634.0048217773438 648.147705078125 624.02001953125 653.1867065429688" stroke-width="22.56825065612793" fill="none" stroke="rgb(171, 123, 140)" stroke-opacity="0.90750915" stroke-linecap="round" stroke-linejoin="round"/>
    <path d="M 325.3600769042969 437.4338073730469 C 339.9288330078125 472.6336669921875 394.4813537597656 448.67041015625 408.8492431640625 440.87188720703125 C 359.2645263671875 429.1138000488281 355.70001220703125 352.01593017578125 311.4917907714844 368.1861267089844 C 252.18966674804688 356.1346435546875 292.7850646972656 314.3512268066406 313.6363830566406 361.76220703125" stroke-width="37.67481994628906" fill="none" stroke="rgb(255, 21, 7)" stroke-opacity="1.0" stroke-linecap="round" stroke-linejoin="round"/>
    <path d="M 546.6612548828125 639.00048828125 C 570.4542846679688 622.45458984375 628.78759765625 615.569091796875 649.1600341796875 637.8252563476562 C 627.6036987304688 631.7188720703125 577.414794921875 631.99072265625 539.0350952148438 684.1417236328125" stroke-width="26.187997817993164" fill="none" stroke="rgb(81, 3, 37)" stroke-opacity="0.35000682" stroke-linecap="round" stroke-linejoin="round"/>
    <path d="M 301.4725341796875 427.49871826171875 C 326.5063781738281 412.064697265625 339.7571716308594 371.1986083984375 385.72943115234375 383.9945983886719 C 379.08978271484375 405.54388427734375 349.6985168457031 381.5518798828125 353.4338684082031 386.9883117675781 C 372.57879638671875 412.42572021484375 311.5477600097656 427.2585144042969 312.2801208496094 396.9908447265625" stroke-width="10.550532341003418" fill="none" stroke="rgb(145, 64, 119)" stroke-opacity="0.8634455" stroke-linecap="round" stroke-linejoin="round"/>
    <path d="M 592.0631103515625 672.7394409179688 C 568.0701293945312 655.0640869140625 565.5973510742188 618.9408569335938 533.0280151367188 619.061279296875 C 508.50506591796875 623.343505859375 503.2617492675781 623.7005004882812 521.8428955078125 631.329345703125 C 516.1273803710938 651.5359497070312 539.2989501953125 634.5742797851562 564.0348510742188 596.1793823242188" stroke-width="19.435840606689453" fill="none" stroke="rgb(177, 148, 199)" stroke-opacity="0.49289843" stroke-linecap="round" stroke-linejoin="round"/>
    <path d="M 554.7544555664062 618.9619750976562 C 578.1741333007812 634.4606323242188 566.9883422851562 590.501220703125 560.3017578125 578.335205078125 C 529.8912353515625 575.3472900390625 531.409912109375 574.7289428710938 531.7545166015625 645.5637817382812 C 507.9633483886719 626.6875610351562 540.4168701171875 565.9489135742188 640.866943359375 592.257080078125" stroke-width="8.258928298950195" fill="none" stroke="rgb(62, 98, 122)" stroke-opacity="0.28299174" stroke-linecap="round" stroke-linejoin="round"/>
    <path d="M 385.6580810546875 368.7474670410156 C 394.1499328613281 428.4766845703125 390.3497314453125 472.6468505859375 406.8192138671875 478.2033386230469 C 412.2071838378906 433.6937561035156 403.67041015625 420.65667724609375 406.49456787109375 413.3551940917969 C 416.44000244140625 404.43707275390625 412.67169189453125 436.9151306152344 415.42974853515625 501.57525634765625" stroke-width="12.763910293579102" fill="none" stroke="rgb(160, 77, 174)" stroke-opacity="0.3288469" stroke-linecap="round" stroke-linejoin="round"/>
    <path d="M 393.6777038574219 384.8270263671875 C 403.86346435546875 407.7914123535156 424.412109375 434.35833740234375 432.4449157714844 472.9578857421875 C 442.967529296875 501.09808349609375 423.26806640625 492.3249206542969 445.2261657714844 601.9893798828125 C 437.3865661621094 634.9614868164062 414.8983154296875 517.0336303710938 479.5342712402344 480.974609375" stroke-width="8.258928298950195" fill="none" stroke="rgb(98, 22, 210)" stroke-opacity="0.54142743" stroke-linecap="round" stroke-linejoin="round"/>
    <path d="M 615.8200073242188 540.5865478515625 C 622.11181640625 469.5131530761719 627.5887451171875 462.8942565917969 617.6619873046875 404.40032958984375" stroke-width="8.258928298950195" fill="none" stroke="rgb(57, 180, 167)" stroke-opacity="0.10876377" stroke-linecap="round" stroke-linejoin="round"/>
    <path d="M 468.4110412597656 391.7825012207031 C 432.4538879394531 414.8582458496094 400.9098815917969 434.1308288574219 435.6886291503906 431.2455139160156 C 426.5556640625 429.84674072265625 408.7986755371094 400.1976013183594 435.5965576171875 412.0585021972656 C 489.14599609375 392.9663391113281 487.76385498046875 371.7536315917969 418.1683654785156 416.1409912109375" stroke-width="23.769834518432617" fill="none" stroke="rgb(140, 118, 246)" stroke-opacity="0.68253237" stroke-linecap="round" stroke-linejoin="round"/>
    <path d="M 566.8106689453125 -7.876048564910889 C 590.6981811523438 25.754173278808594 574.7852172851562 -2.693063497543335 627.6401977539062 9.513264656066895" stroke-width="8.258928298950195" fill="none" stroke="rgb(193, 106, 154)" stroke-opacity="0.12118823" stroke-linecap="round" stroke-linejoin="round"/>
    <path d="M 50.78567886352539 922.3272705078125 C 39.50975799560547 871.8073120117188 50.662384033203125 843.3101196289062 45.51132583618164 784.1176147460938 C 47.05835723876953 787.529541015625 53.58284378051758 778.181640625 57.9632568359375 746.6673583984375 C 37.23923873901367 718.9205932617188 67.9854507446289 748.8530883789062 85.80659484863281 833.0899658203125" stroke-width="8.258928298950195" fill="none" stroke="rgb(111, 57, 253)" stroke-opacity="0.5681385" stroke-linecap="round" stroke-linejoin="round"/>
    <path d="M 264.5343933105469 495.5827941894531 C 280.37884521484375 512.38623046875 275.30609130859375 485.7914123535156 244.54930114746094 445.7987976074219 C 256.51824951171875 457.17138671875 264.2691650390625 456.3030700683594 285.95654296875 483.28546142578125 C 300.7808837890625 474.623046875 251.207275390625 459.76177978515625 258.3512268066406 434.1623229980469" stroke-width="8.258928298950195" fill="none" stroke="rgb(118, 243, 126)" stroke-opacity="0.0" stroke-linecap="round" stroke-linejoin="round"/>
    <path d="M 897.0313110351562 156.09901428222656 C 846.2786865234375 153.86782836914062 831.8430786132812 151.32484436035156 826.6248779296875 169.6636505126953 C 800.40576171875 173.85255432128906 804.7881469726562 142.10389709472656 811.3598022460938 113.93766021728516" stroke-width="16.802227020263672" fill="none" stroke="rgb(197, 222, 92)" stroke-opacity="0.0" stroke-linecap="round" stroke-linejoin="round"/>
    <path d="M 694.7611694335938 330.5973205566406 C 625.8861083984375 321.7956848144531 625.9671020507812 312.2950134277344 679.5330200195312 323.5941162109375" stroke-width="8.258928298950195" fill="none" stroke="rgb(150, 103, 103)" stroke-opacity="0.47991124" stroke-linecap="round" stroke-linejoin="round"/>
    <path d="M 276.8315734863281 154.29078674316406 C 276.9937744140625 105.77836608886719 278.2003173828125 104.04615783691406 276.3340759277344 113.42951965332031 C 283.2991027832031 128.8301239013672 276.42535400390625 86.79010772705078 282.9507141113281 75.7652587890625 C 281.13824462890625 70.45370483398438 272.3650817871094 17.485118865966797 263.40814208984375 -2.60284423828125" stroke-width="8.670733451843262" fill="none" stroke="rgb(97, 3, 24)" stroke-opacity="0.35806093" stroke-linecap="round" stroke-linejoin="round"/>
    <path d="M 184.0806884765625 782.7446899414062 C 150.9150848388672 762.9221801757812 140.44015502929688 740.6910400390625 87.63280487060547 732.108642578125 C 74.11692810058594 720.5142211914062 104.88165283203125 766.0126953125 162.5482635498047 765.3546142578125" stroke-width="8.258928298950195" fill="none" stroke="rgb(150, 86, 96)" stroke-opacity="0.56543434" stroke-linecap="round" stroke-linejoin="round"/>
    <path d="M 143.0550994873047 657.1423950195312 C 111.76611328125 631.07373046875 96.66881561279297 600.337646484375 28.4852352142334 610.2608032226562 C 19.187803268432617 602.9320068359375 17.598472595214844 663.0889892578125 6.6025285720825195 739.1685791015625" stroke-width="8.258928298950195" fill="none" stroke="rgb(130, 60, 103)" stroke-opacity="0.53013694" stroke-linecap="round" stroke-linejoin="round"/>
    <path d="M 492.0553283691406 317.8020935058594 C 535.5651245117188 355.3767395019531 560.5453491210938 395.2067565917969 539.5982666015625 368.6989440917969 C 548.670166015625 378.1826171875 533.722900390625 374.44970703125 522.973876953125 351.6148376464844 C 491.36370849609375 350.0927734375 507.836669921875 392.02374267578125 528.9063720703125 451.4226989746094" stroke-width="8.258928298950195" fill="none" stroke="rgb(243, 254, 253)" stroke-opacity="0.08754459" stroke-linecap="round" stroke-linejoin="round"/>
    <path d="M 719.3721313476562 50.77173614501953 C 721.8255615234375 150.69139099121094 754.530517578125 178.73056030273438 837.2445678710938 152.52877807617188 C 815.8690795898438 144.11764526367188 833.5587158203125 54.49430847167969 843.3690185546875 30.459835052490234 C 819.2698364257812 12.970005989074707 802.5547485351562 31.577091217041016 741.3634033203125 44.33211135864258" stroke-width="8.258928298950195" fill="none" stroke="rgb(255, 32, 81)" stroke-opacity="0.56878036" stroke-linecap="round" stroke-linejoin="round"/>
    <path d="M 394.8032531738281 789.3038940429688 C 354.56280517578125 776.8639526367188 341.1615905761719 814.1932373046875 321.91790771484375 777.6259765625 C 263.35467529296875 797.24853515625 254.54307556152344 815.833251953125 257.92706298828125 814.0386962890625" stroke-width="8.258928298950195" fill="none" stroke="rgb(57, 0, 199)" stroke-opacity="0.37153858" stroke-linecap="round" stroke-linejoin="round"/>
    <path d="M 146.46961975097656 615.7286987304688 C 191.04544067382812 635.15185546875 227.1649169921875 646.67919921875 192.53314208984375 662.1260375976562 C 173.14918518066406 675.0438232421875 241.74795532226562 651.7180786132812 292.966796875 720.5534057617188" stroke-width="8.258928298950195" fill="none" stroke="rgb(40, 229, 176)" stroke-opacity="0.29066217" stroke-linecap="round" stroke-linejoin="round"/>
    <path d="M 761.3941650390625 430.9108581542969 C 733.4041137695312 372.24591064453125 746.8954467773438 364.07366943359375 742.7620239257812 386.7762756347656 C 740.951904296875 370.97711181640625 812.8304443359375 366.99658203125 871.66259765625 380.6377258300781" stroke-width="8.258928298950195" fill="none" stroke="rgb(134, 57, 21)" stroke-opacity="0.49802336" stroke-linecap="round" stroke-linejoin="round"/>
    <path d="M 661.0235595703125 301.2558898925781 C 657.2462158203125 240.95028686523438 668.422119140625 220.0347900390625 664.8731689453125 187.4913330078125 C 684.1841430664062 173.52696228027344 661.250244140625 174.51974487304688 666.6554565429688 125.64788055419922" stroke-width="8.258928298950195" fill="none" stroke="rgb(174, 133, 137)" stroke-opacity="0.56110936" stroke-linecap="round" stroke-linejoin="round"/>
  </g>
</svg>
