<?xml version="1.0" ?>
<svg xmlns="http://www.w3.org/2000/svg" version="1.1" width="1104.0" height="1104.0">
  <defs/>
  <g>
    <path d="M 42.13710021972656 111.23176574707031 C 42.649925231933594 111.34717559814453 42.37277603149414 112.2565689086914 42.345951080322266 112.26729583740234 C 42.319427490234375 112.27796936035156 41.75124740600586 112.1856918334961 44.64339065551758 111.65953826904297 C 46.74321365356445 111.92578887939453 51.51263427734375 112.55413055419922 59.50367736816406 112.71212005615234 C 67.49470520019531 113.66426849365234 78.70738983154297 113.35543060302734 92.12996673583984 111.94963073730469 C 105.55250549316406 110.5438232421875 121.18669128417969 108.04108428955078 131.1977081298828 106.32821655273438 C 141.20693969726562 104.6153335571289 145.59474182128906 103.69055938720703 148.1968536376953 102.83677673339844 C 150.0066680908203 101.19061279296875 150.82672119140625 100.404296875 151.33970642089844 100.20904541015625 C 151.85458374023438 100.01390075683594 152.06900024414062 100.40991973876953 152.06756591796875 100.655029296875 C 152.0782470703125 100.12033081054688 152.68408203125 97.8574447631836 152.5882568359375 96.62545776367188 C 151.6999969482422 96.18749237060547 151.69468688964844 95.1988754272461 152.20132446289062 92.37066650390625 C 151.91552734375 90.33480834960938 150.55517578125 88.04023742675781 150.58251953125 83.19212341308594 C 149.81748962402344 79.13447570800781 148.85366821289062 74.10591125488281 147.30690002441406 72.19140625 C 146.55252075195312 69.4863052368164 146.00936889648438 69.10466766357422 144.58937072753906 66.36229705810547 C 143.16944885253906 63.619895935058594 140.87429809570312 58.518592834472656 138.66819763183594 55.913917541503906 C 137.25401306152344 54.09987258911133 135.13467407226562 56.369056701660156 133.1182861328125 57.18024444580078 C 131.10179138183594 57.991397857666016 129.18663024902344 58.14051055908203 126.24015808105469 58.79016876220703 C 123.29541015625 59.43981170654297 118.52532958984375 59.79762268066406 113.50025939941406 60.90876770019531 C 108.4734878540039 62.01814651489258 102.3976821899414 63.088478088378906 97.50821685791016 65.27069091796875 C 91.8246841430664 66.66051483154297 86.53340911865234 68.37162017822266 82.43309783935547 69.4614486694336 C 78.33098602294922 70.55128479003906 74.6263198852539 70.22769165039062 70.99432373046875 71.32801055908203 C 68.15502166748047 73.22089385986328 63.802757263183594 74.9515380859375 57.46171569824219 76.92813873291016 C 51.91483688354492 79.6971435546875 45.171630859375 83.50629425048828 43.361846923828125 85.72933197021484 C 40.75969696044922 86.36762237548828 42.29863357543945 85.41975402832031 42.36075973510742 87.35449981689453 C 41.63048553466797 89.29102325439453 40.2193603515625 94.11190795898438 39.59885787963867 98.93212127685547 C 38.18595886230469 104.54429626464844 38.59420394897461 109.10242462158203 38.21005630493164 113.6607437133789" stroke-width="1.5848214626312256" fill="none" stroke="rgb(26, 21, 21)" stroke-opacity="1.0" stroke-linecap="round" stroke-linejoin="round"/>
    <path d="M 63.257083892822266 74.14389038085938 C 63.164798736572266 74.01427459716797 63.07429122924805 73.8846664428711 62.958885192871094 73.38060760498047 C 62.8435173034668 72.87644958496094 62.70507049560547 71.99778747558594 62.56840515136719 71.16344451904297 C 63.222320556640625 69.53709411621094 63.08564758300781 68.74720001220703 62.41115188598633 64.98772430419922 C 61.73664855957031 61.228267669677734 60.524322509765625 54.49750900268555 59.0787353515625 51.37054443359375 C 59.21613693237305 46.660953521728516 59.120296478271484 45.55503845214844 58.80967712402344 44.56100082397461 C 58.499046325683594 43.56700897216797 57.975425720214844 42.684852600097656 58.335750579833984 42.66242980957031 C 57.9027214050293 41.84754943847656 59.936790466308594 41.10048294067383 60.478145599365234 39.99820327758789 C 60.22715759277344 38.10533142089844 60.069183349609375 36.651607513427734 63.77540588378906 36.3381462097168 C 68.27394104003906 35.23234558105469 75.84599304199219 34.47618103027344 80.03749084472656 33.47079849243164 C 84.230712890625 33.25779724121094 84.25130462646484 33.58796691894531 87.44168853759766 33.65895462036133 C 90.63485717773438 33.72816848754883 96.20829010009766 33.53824234008789 99.14944458007812 33.39092254638672 C 102.08879852294922 33.24361038208008 102.39583587646484 33.140647888183594 103.13600158691406 32.851322174072266 C 104.66795349121094 33.354347229003906 105.84529113769531 32.87867736816406 105.35297393798828 33.25319290161133 C 106.44495391845703 33.62770462036133 105.87022399902344 34.8542594909668 105.42826843261719 35.66544723510742 C 104.98450469970703 36.47660446166992 104.67386627197266 36.87416458129883 105.15669250488281 39.8182258605957 C 105.64127349853516 43.55459213256836 106.91925811767578 50.62798309326172 108.2380599975586 55.43832778930664 C 109.55510711669922 60.24851608276367 110.1206283569336 63.586158752441406 111.4767074584961 66.13154602050781 C 113.62521362304688 67.88455200195312 113.70153045654297 69.49979400634766 113.77784729003906 71.11322784423828" stroke-width="1.5848214626312256" fill="none" stroke="rgb(26, 21, 21)" stroke-opacity="1.0" stroke-linecap="round" stroke-linejoin="round"/>
    <path d="M 43.85099792480469 112.45193481445312 C 39.3316650390625 119.88445281982422 47.04109573364258 125.74104309082031 44.05739212036133 125.54107666015625 C 45.18632888793945 131.3724365234375 36.79780197143555 126.61123657226562 33.65462112426758 121.10881042480469" stroke-width="1.5848214626312256" fill="none" stroke="rgb(161, 181, 247)" stroke-opacity="0.93952996" stroke-linecap="round" stroke-linejoin="round"/>
    <path d="M 113.77786254882812 71.1132583618164 C 111.9531478881836 78.61486053466797 117.92050170898438 72.9568099975586 120.45220947265625 81.05513763427734" stroke-width="1.5848214626312256" fill="none" stroke="rgb(70, 83, 239)" stroke-opacity="0.74828625" stroke-linecap="round" stroke-linejoin="round"/>
    <path d="M 58.711307525634766 112.71212005615234 C 62.69489669799805 114.3930892944336 66.11277770996094 119.69300842285156 61.95243453979492 128.02285766601562 C 70.8912353515625 132.15872192382812 76.55643463134766 127.00891876220703 75.75709533691406 124.55144500732422 C 69.66790008544922 119.77202606201172 70.50054168701172 127.6446762084961 77.64417266845703 122.91236114501953" stroke-width="1.5848214626312256" fill="none" stroke="rgb(235, 230, 189)" stroke-opacity="0.8794796" stroke-linecap="round" stroke-linejoin="round"/>
    <path d="M 99.94174194335938 34.18320846557617 C 103.24329376220703 27.476680755615234 111.3019027709961 19.398555755615234 104.80965423583984 14.327178955078125 C 98.50308227539062 8.602437973022461 100.8110580444336 2.2751359939575195 93.63558197021484 -0.5660116672515869 C 101.09115600585938 -4.514000415802002 102.26815032958984 1.1577998399734497 99.71590423583984 -1.2483726739883423" stroke-width="1.5848214626312256" fill="none" stroke="rgb(125, 229, 169)" stroke-opacity="0.79537934" stroke-linecap="round" stroke-linejoin="round"/>
    <path d="M 87.44155883789062 34.45133590698242 C 90.92878723144531 36.950286865234375 87.97957611083984 29.265655517578125 87.658935546875 22.97940444946289 C 88.77454376220703 22.63515281677246 89.85643768310547 20.803573608398438 86.9918441772461 27.620119094848633 C 88.66712951660156 24.6624813079834 80.60621643066406 22.488468170166016 78.78020477294922 31.13762855529785" stroke-width="1.5848214626312256" fill="none" stroke="rgb(217, 21, 152)" stroke-opacity="0.09055406" stroke-linecap="round" stroke-linejoin="round"/>
    <path d="M 125.44780731201172 57.99777603149414 C 132.3446044921875 54.45260238647461 132.20367431640625 59.13676452636719 131.69320678710938 51.535526275634766 C 134.27200317382812 52.25253677368164 135.81837463378906 45.7462043762207 135.24562072753906 36.88093566894531" stroke-width="1.743302822113037" fill="none" stroke="rgb(114, 140, 115)" stroke-opacity="0.1311141" stroke-linecap="round" stroke-linejoin="round"/>
    <path d="M 152.85980224609375 99.87006378173828 C 144.72901916503906 99.91962432861328 136.79225158691406 109.20995330810547 130.7195587158203 109.68415832519531" stroke-width="1.7433009147644043" fill="none" stroke="rgb(234, 62, 176)" stroke-opacity="0.093320556" stroke-linecap="round" stroke-linejoin="round"/>
    <path d="M 152.85983276367188 99.8700180053711 C 157.84385681152344 108.25045776367188 163.08372497558594 116.01958465576172 159.7511749267578 120.32417297363281 C 167.36312866210938 115.35002136230469 171.38571166992188 120.34937286376953 178.5953369140625 128.44252014160156 C 173.81137084960938 129.8463134765625 179.53199768066406 122.25782775878906 183.89845275878906 117.6315689086914" stroke-width="1.7433034181594849" fill="none" stroke="rgb(112, 76, 58)" stroke-opacity="0.8335221" stroke-linecap="round" stroke-linejoin="round"/>
    <path d="M 183.89854431152344 117.6319808959961 C 176.1774444580078 122.92961883544922 167.76617431640625 124.40383911132812 170.06301879882812 128.5442657470703 C 175.75778198242188 135.2477569580078 177.673095703125 136.2979736328125 178.80874633789062 128.68617248535156 C 174.01820373535156 126.25078582763672 173.18780517578125 122.70519256591797 167.0651092529297 117.4452896118164" stroke-width="1.7433034181594849" fill="none" stroke="rgb(91, 82, 78)" stroke-opacity="0.5269912" stroke-linecap="round" stroke-linejoin="round"/>
    <path d="M 78.78020477294922 31.137653350830078 C 78.3554458618164 33.189449310302734 82.55657958984375 38.980533599853516 87.86407470703125 46.652801513671875" stroke-width="1.7433034181594849" fill="none" stroke="rgb(170, 82, 89)" stroke-opacity="0.5653697" stroke-linecap="round" stroke-linejoin="round"/>
    <path d="M 135.24559020996094 36.880943298339844 C 133.9168243408203 41.301490783691406 131.2874298095703 41.67775344848633 124.31061553955078 33.055030822753906" stroke-width="1.743302822113037" fill="none" stroke="rgb(211, 100, 241)" stroke-opacity="0.04162386" stroke-linecap="round" stroke-linejoin="round"/>
    <path d="M 183.9017333984375 118.4216079711914 C 190.20494079589844 117.57763671875 181.81768798828125 113.5910415649414 174.06040954589844 108.1615982055664" stroke-width="1.7433027029037476" fill="none" stroke="rgb(0, 228, 176)" stroke-opacity="0.9104852" stroke-linecap="round" stroke-linejoin="round"/>
    <path d="M 33.65461730957031 121.10877227783203 C 35.123172760009766 118.91576385498047 41.45188522338867 126.5687026977539 49.857357025146484 123.63177490234375 C 41.47066116333008 126.98193359375 43.755123138427734 126.11896514892578 35.90266799926758 122.8559799194336 C 41.82497024536133 121.66004943847656 50.534706115722656 126.72332000732422 52.71908950805664 128.15029907226562" stroke-width="1.7433031797409058" fill="none" stroke="rgb(125, 94, 127)" stroke-opacity="0.6633418" stroke-linecap="round" stroke-linejoin="round"/>
    <path d="M 99.3197250366211 -0.8521777391433716 C 92.55425262451172 -4.282733917236328 100.4681167602539 -8.450116157531738 92.77908325195312 -0.25300338864326477 C 99.93749237060547 -3.6701838970184326 91.56794738769531 -5.892432689666748 84.40125274658203 -9.23347282409668" stroke-width="1.7426002025604248" fill="none" stroke="rgb(204, 48, 199)" stroke-opacity="0.82600343" stroke-linecap="round" stroke-linejoin="round"/>
    <path d="M 135.24562072753906 36.88113021850586 C 128.45472717285156 42.826961517333984 129.3002471923828 38.86871337890625 128.3485565185547 33.25922775268555 C 127.71472930908203 39.211605072021484 132.83372497558594 45.97116470336914 124.88697052001953 43.5147590637207 C 125.23078155517578 47.564666748046875 118.27681732177734 48.60716247558594 116.99256896972656 48.99979019165039" stroke-width="1.5848214626312256" fill="none" stroke="rgb(149, 60, 58)" stroke-opacity="0.053354926" stroke-linecap="round" stroke-linejoin="round"/>
    <path d="M 33.65461349487305 121.10879516601562 C 38.292240142822266 124.72633361816406 36.15833282470703 116.86522674560547 40.07606887817383 124.95911407470703" stroke-width="1.7432924509048462" fill="none" stroke="rgb(131, 105, 239)" stroke-opacity="0.6778179" stroke-linecap="round" stroke-linejoin="round"/>
    <path d="M 20.849246978759766 140.5074005126953 C 12.256784439086914 148.01956176757812 8.35748291015625 151.5071563720703 6.908388614654541 155.61656188964844" stroke-width="1.7433024644851685" fill="none" stroke="rgb(206, 39, 246)" stroke-opacity="0.737103" stroke-linecap="round" stroke-linejoin="round"/>
    <path d="M 155.1344757080078 95.64392852783203 C 149.52566528320312 88.758544921875 142.5307159423828 90.74374389648438 137.25634765625 93.445556640625" stroke-width="1.5848214626312256" fill="none" stroke="rgb(107, 55, 153)" stroke-opacity="0.89808214" stroke-linecap="round" stroke-linejoin="round"/>
    <path d="M 1.5986590385437012 162.2082061767578 C 1.0302913188934326 152.75770568847656 -6.0406317710876465 154.17971801757812 -14.523612976074219 146.20138549804688 C -8.654521942138672 143.6403350830078 -0.8801587224006653 144.86529541015625 0.9023420810699463 144.13031005859375 C 9.32766056060791 151.7068634033203 1.107025146484375 156.46194458007812 7.052560329437256 164.43775939941406" stroke-width="1.7433030605316162" fill="none" stroke="rgb(118, 49, 179)" stroke-opacity="0.35284138" stroke-linecap="round" stroke-linejoin="round"/>
    <path d="M 100.77095031738281 98.07080841064453 C 97.51712799072266 89.25105285644531 97.41329956054688 91.73558807373047 103.79854583740234 88.92288970947266 C 107.3484115600586 91.5562744140625 112.36104583740234 98.0301742553711 109.87399291992188 103.72486114501953" stroke-width="1.7433024644851685" fill="none" stroke="rgb(215, 53, 13)" stroke-opacity="0.3581349" stroke-linecap="round" stroke-linejoin="round"/>
    <path d="M 127.63565826416016 82.44674682617188 C 127.89224243164062 80.96807098388672 129.916015625 72.22018432617188 134.6605682373047 70.85531616210938 C 141.78662109375 67.76988220214844 136.8263397216797 62.53689956665039 138.42120361328125 56.574466705322266" stroke-width="1.5848214626312256" fill="none" stroke="rgb(157, 202, 146)" stroke-opacity="0.07090269" stroke-linecap="round" stroke-linejoin="round"/>
    <path d="M 160.82888793945312 173.9498748779297 C 157.46664428710938 181.6634521484375 162.96102905273438 175.16033935546875 164.92665100097656 172.4435272216797 C 160.99432373046875 169.70208740234375 165.08551025390625 174.76390075683594 171.16659545898438 179.97650146484375 C 170.64219665527344 175.93338012695312 164.6105499267578 184.72286987304688 173.13485717773438 190.19288635253906" stroke-width="1.7433034181594849" fill="none" stroke="rgb(62, 195, 202)" stroke-opacity="0.79913634" stroke-linecap="round" stroke-linejoin="round"/>
    <path d="M 7.782896518707275 137.83563232421875 C 3.0385324954986572 134.8689727783203 7.613941669464111 134.1265411376953 5.635956764221191 126.44715881347656 C 0.7927923202514648 119.4863510131836 8.13775634765625 126.07762908935547 16.389728546142578 121.03014373779297" stroke-width="1.7433024644851685" fill="none" stroke="rgb(143, 121, 49)" stroke-opacity="0.2995209" stroke-linecap="round" stroke-linejoin="round"/>
    <path d="M 56.37989807128906 38.13794708251953 C 61.215023040771484 46.71045684814453 67.3981704711914 48.24326705932617 59.291725158691406 42.23668670654297" stroke-width="1.7433030605316162" fill="none" stroke="rgb(44, 75, 172)" stroke-opacity="0.26574138" stroke-linecap="round" stroke-linejoin="round"/>
    <path d="M 5.692934513092041 51.44470977783203 C 5.502739429473877 51.518096923828125 11.73781967163086 45.409732818603516 5.012291431427002 36.92912673950195" stroke-width="1.5848214626312256" fill="none" stroke="rgb(115, 243, 98)" stroke-opacity="0.6057663" stroke-linecap="round" stroke-linejoin="round"/>
    <path d="M 85.83930969238281 101.56757354736328 C 88.24581146240234 102.67598724365234 87.65216827392578 108.56749725341797 92.87144470214844 111.23865509033203" stroke-width="1.5848214626312256" fill="none" stroke="rgb(117, 108, 126)" stroke-opacity="0.71761453" stroke-linecap="round" stroke-linejoin="round"/>
    <path d="M 72.24513244628906 147.1824493408203 C 75.17191314697266 138.3301239013672 76.48799896240234 136.3244171142578 77.58670806884766 142.07713317871094 C 84.80020141601562 133.61605834960938 80.0497055053711 140.55502319335938 86.72404479980469 141.88607788085938 C 88.47566986083984 147.72299194335938 80.13108825683594 139.65248107910156 75.71501922607422 133.98191833496094" stroke-width="1.5848214626312256" fill="none" stroke="rgb(20, 112, 226)" stroke-opacity="0.6815616" stroke-linecap="round" stroke-linejoin="round"/>
    <path d="M 84.71590423583984 7.760839939117432 C 90.59327697753906 5.243649482727051 98.06648254394531 8.802472114562988 99.6169204711914 14.388326644897461" stroke-width="1.5848214626312256" fill="none" stroke="rgb(205, 75, 103)" stroke-opacity="0.8247356" stroke-linecap="round" stroke-linejoin="round"/>
    <path d="M 120.04499053955078 101.78754425048828 C 122.85687255859375 97.47734832763672 131.33920288085938 98.39541625976562 137.3970489501953 89.6279296875" stroke-width="1.5848214626312256" fill="none" stroke="rgb(162, 211, 223)" stroke-opacity="0.06978354" stroke-linecap="round" stroke-linejoin="round"/>
    <path d="M 149.59104919433594 11.918407440185547 C 150.17962646484375 20.867055892944336 152.06753540039062 18.338869094848633 160.218994140625 19.974380493164062" stroke-width="1.5848214626312256" fill="none" stroke="rgb(46, 89, 39)" stroke-opacity="0.7536073" stroke-linecap="round" stroke-linejoin="round"/>
    <path d="M 98.04105377197266 141.79441833496094 C 91.5085678100586 143.53567504882812 91.521240234375 149.4444122314453 88.2629165649414 155.20294189453125" stroke-width="1.7433034181594849" fill="none" stroke="rgb(186, 32, 18)" stroke-opacity="0.7780442" stroke-linecap="round" stroke-linejoin="round"/>
    <path d="M 73.04157257080078 160.21197509765625 C 65.6908187866211 165.7977294921875 58.45240020751953 174.055419921875 51.848304748535156 172.442138671875" stroke-width="1.743299961090088" fill="none" stroke="rgb(151, 87, 18)" stroke-opacity="0.17668742" stroke-linecap="round" stroke-linejoin="round"/>
  </g>
</svg>
