<?xml version="1.0" ?>
<svg xmlns="http://www.w3.org/2000/svg" version="1.1" width="956.0" height="956.0">
  <defs/>
  <g>
    <path d="M 40.72522735595703 58.46509552001953 C 40.52572250366211 57.920692443847656 39.48602294921875 58.160888671875 39.70513153076172 58.0485725402832 C 38.877960205078125 57.761878967285156 37.59541702270508 57.79876708984375 36.8632698059082 57.31707763671875 C 35.847015380859375 56.64851379394531 34.834415435791016 55.95921325683594 33.927940368652344 55.147918701171875 C 30.85597801208496 52.399253845214844 29.8446044921875 49.156490325927734 30.38923454284668 45.19379425048828 C 29.844667434692383 44.03821563720703 29.710407257080078 42.76321029663086 30.227680206298828 42.225162506103516 C 31.047542572021484 41.372406005859375 32.50114440917969 41.088558197021484 33.0349006652832 40.05600357055664 C 38.327266693115234 37.65748977661133 44.576412200927734 37.92028045654297 50.807029724121094 37.9202995300293 C 54.84368896484375 37.9202995300293 56.001365661621094 37.42374801635742 59.613121032714844 38.65177536010742 C 66.86113739013672 42.21052169799805 71.05183410644531 50.97011947631836 72.34085845947266 58.84939193725586 C 72.51898193359375 59.563087463378906 74.01766204833984 66.54635620117188 73.5235595703125 67.78223419189453 C 68.4576187133789 79.08674621582031 52.81035614013672 79.69381713867188 42.64044952392578 80.79842376708984 C 40.22695541381836 80.35626983642578 38.34208297729492 80.99238586425781 37.02455139160156 80.79841613769531 C 36.00730895996094 80.14764404296875 35.067142486572266 79.65862274169922 33.54486083984375 79.90538024902344" stroke-width="1.0892857313156128" fill="none" stroke="rgb(26, 21, 26)" stroke-opacity="0.99" stroke-linecap="round" stroke-linejoin="round"/>
    <path d="M 29.844608306884766 66.8879623413086 C 31.40498161315918 66.34335327148438 29.361482620239258 69.43238830566406 28.95159339904785 70.93791961669922 C 28.883752822875977 73.72727966308594 27.98948097229004 75.88786315917969 27.327035903930664 78.1180648803711 C 26.765819549560547 80.0065689086914 23.281002044677734 90.94343566894531 23.082141876220703 91.99385833740234 C 22.29036521911621 96.1602554321289 22.617321014404297 100.54119873046875 22.315977096557617 104.75504302978516" stroke-width="1.0892857313156128" fill="none" stroke="rgb(26, 26, 21)" stroke-opacity="0.99" stroke-linecap="round" stroke-linejoin="round"/>
    <path d="M 36.86327362060547 57.31707000732422 C 37.054325103759766 60.19099044799805 40.88904571533203 54.79200744628906 41.3987922668457 58.570899963378906 C 42.60792541503906 56.07926559448242 39.58119201660156 52.912349700927734 41.111976623535156 51.482093811035156 C 41.86518096923828 52.3534049987793 36.105865478515625 53.61306381225586 41.34227752685547 51.94548797607422" stroke-width="1.0892857313156128" fill="none" stroke="rgb(122, 144, 120)" stroke-opacity="0.7452132" stroke-linecap="round" stroke-linejoin="round"/>
    <path d="M 27.32703399658203 78.11807250976562 C 20.939958572387695 82.45068359375 26.7325382232666 82.67215728759766 20.686031341552734 88.86363983154297 C 24.708810806274414 94.2376708984375 27.153121948242188 93.22821807861328 25.5968074798584 88.90250396728516 C 31.346826553344727 91.30998229980469 37.316139221191406 93.38288116455078 32.94148635864258 94.81454467773438" stroke-width="1.0892857313156128" fill="none" stroke="rgb(110, 50, 110)" stroke-opacity="0.4924792" stroke-linecap="round" stroke-linejoin="round"/>
    <path d="M 30.389223098754883 44.64930725097656 C 29.395349502563477 39.36553192138672 31.33576202392578 39.062232971191406 33.3991584777832 39.81612777709961 C 28.127962112426758 41.549381256103516 25.189167022705078 36.860687255859375 24.03790283203125 33.957542419433594" stroke-width="1.0892857313156128" fill="none" stroke="rgb(182, 177, 56)" stroke-opacity="0.91719383" stroke-linecap="round" stroke-linejoin="round"/>
    <path d="M 39.70515060424805 58.048561096191406 C 44.63371276855469 61.12698745727539 43.91735076904297 57.29661560058594 40.306087493896484 61.59726333618164 C 44.665767669677734 64.01371765136719 38.666255950927734 60.54328155517578 32.486812591552734 59.58515930175781 C 36.9283561706543 56.37078094482422 42.81260681152344 61.859046936035156 45.784332275390625 58.664329528808594" stroke-width="1.1982141733169556" fill="none" stroke="rgb(204, 33, 16)" stroke-opacity="0.970713" stroke-linecap="round" stroke-linejoin="round"/>
    <path d="M 36.86327362060547 57.317081451416016 C 32.58145523071289 56.35027313232422 28.217981338500977 54.31193161010742 29.619962692260742 51.40766906738281 C 25.395965576171875 55.84340286254883 24.985191345214844 56.71820831298828 23.070537567138672 61.70597839355469" stroke-width="1.0892857313156128" fill="none" stroke="rgb(111, 236, 150)" stroke-opacity="0.30946684" stroke-linecap="round" stroke-linejoin="round"/>
    <path d="M 33.0349006652832 40.60060119628906 C 34.67343521118164 46.070884704589844 29.652923583984375 45.66029357910156 30.310956954956055 42.13251495361328" stroke-width="1.1982060670852661" fill="none" stroke="rgb(33, 95, 136)" stroke-opacity="0.03572805" stroke-linecap="round" stroke-linejoin="round"/>
    <path d="M 37.407894134521484 56.772464752197266 C 35.99235534667969 51.461063385009766 30.757415771484375 57.51015090942383 35.86738586425781 62.70909118652344" stroke-width="1.1982139348983765" fill="none" stroke="rgb(93, 6, 0)" stroke-opacity="0.6950465" stroke-linecap="round" stroke-linejoin="round"/>
    <path d="M 29.49618911743164 70.9378662109375 C 30.912612915039062 67.06285095214844 28.249942779541016 70.28197479248047 29.085763931274414 66.04100036621094 C 33.75373840332031 68.38519287109375 36.58824920654297 64.21671295166016 37.7938346862793 62.244102478027344 C 42.719058990478516 65.88720703125 37.62362289428711 65.3006591796875 35.205204010009766 70.70374298095703" stroke-width="1.1982141733169556" fill="none" stroke="rgb(201, 34, 29)" stroke-opacity="0.8296112" stroke-linecap="round" stroke-linejoin="round"/>
    <path d="M 32.94148635864258 95.35913848876953 C 38.924224853515625 92.58142852783203 42.75769805908203 94.55643463134766 40.09678649902344 94.98786926269531 C 35.55202102661133 94.094482421875 35.62287902832031 89.53340148925781 30.37601089477539 92.4999771118164 C 31.538503646850586 89.81367492675781 32.20265197753906 89.4021987915039 26.45751953125 91.79623413085938" stroke-width="1.1974226236343384" fill="none" stroke="rgb(33, 186, 135)" stroke-opacity="0.580671" stroke-linecap="round" stroke-linejoin="round"/>
    <path d="M 23.070545196533203 61.70595169067383 C 22.878141403198242 57.799930572509766 22.38751983642578 56.57822799682617 21.527843475341797 59.79911804199219" stroke-width="1.0892857313156128" fill="none" stroke="rgb(141, 195, 129)" stroke-opacity="0.29166025" stroke-linecap="round" stroke-linejoin="round"/>
    <path d="M 23.07054901123047 61.70602035522461 C 25.860422134399414 56.295387268066406 23.93562889099121 59.39751052856445 29.45032501220703 55.167171478271484 C 34.23611068725586 57.14605712890625 30.19806671142578 63.5197868347168 33.59824752807617 57.49431228637695" stroke-width="1.198213815689087" fill="none" stroke="rgb(231, 42, 122)" stroke-opacity="0.49159557" stroke-linecap="round" stroke-linejoin="round"/>
    <path d="M 23.07052993774414 61.16139221191406 C 25.49541473388672 60.18695068359375 31.271739959716797 64.44732666015625 35.24570846557617 62.695003509521484" stroke-width="1.198211908340454" fill="none" stroke="rgb(28, 97, 247)" stroke-opacity="0.8779395" stroke-linecap="round" stroke-linejoin="round"/>
    <path d="M 41.34226989746094 51.94548416137695 C 45.99102020263672 46.35772705078125 49.18821334838867 52.32423400878906 47.08402633666992 46.98027038574219" stroke-width="1.0892857313156128" fill="none" stroke="rgb(186, 250, 186)" stroke-opacity="0.6645053" stroke-linecap="round" stroke-linejoin="round"/>
    <path d="M 35.867374420166016 62.70909118652344 C 41.27326583862305 58.868309020996094 41.354862213134766 55.8432502746582 45.41440200805664 55.6622314453125 C 45.039676666259766 52.60181427001953 48.320552825927734 57.9819221496582 45.73817825317383 57.793819427490234" stroke-width="1.0892857313156128" fill="none" stroke="rgb(61, 59, 219)" stroke-opacity="0.7872644" stroke-linecap="round" stroke-linejoin="round"/>
    <path d="M 22.525922775268555 61.16139221191406 C 28.021514892578125 56.73307418823242 23.015586853027344 58.5860710144043 22.361225128173828 59.183937072753906" stroke-width="1.0892857313156128" fill="none" stroke="rgb(167, 170, 89)" stroke-opacity="0.39697304" stroke-linecap="round" stroke-linejoin="round"/>
    <path d="M 24.5825252532959 33.957542419433594 C 23.80286979675293 36.06278991699219 23.224769592285156 31.516780853271484 24.168033599853516 31.792558670043945" stroke-width="1.0892857313156128" fill="none" stroke="rgb(16, 231, 72)" stroke-opacity="0.17392096" stroke-linecap="round" stroke-linejoin="round"/>
    <path d="M 63.625885009765625 50.12671661376953 C 57.491668701171875 55.7076301574707 57.05791091918945 49.66241455078125 58.20520782470703 51.92756652832031 C 56.57802200317383 48.48235321044922 54.763999938964844 53.00251770019531 54.11728286743164 51.127845764160156" stroke-width="1.0892857313156128" fill="none" stroke="rgb(177, 223, 203)" stroke-opacity="0.8218624" stroke-linecap="round" stroke-linejoin="round"/>
    <path d="M 101.49532318115234 48.414676666259766 C 107.80438995361328 48.958274841308594 113.55187225341797 49.79426574707031 113.52706146240234 50.62223815917969" stroke-width="1.1982135772705078" fill="none" stroke="rgb(136, 180, 254)" stroke-opacity="0.4951771" stroke-linecap="round" stroke-linejoin="round"/>
    <path d="M 0.36287111043930054 33.04221725463867 C 1.8465498685836792 33.189353942871094 3.547518491744995 38.094566345214844 -0.5464907884597778 43.69085693359375 C -3.0024828910827637 38.64906311035156 -8.927058219909668 41.2492790222168 -5.57034969329834 43.42967224121094" stroke-width="1.1982141733169556" fill="none" stroke="rgb(10, 244, 225)" stroke-opacity="0.48625624" stroke-linecap="round" stroke-linejoin="round"/>
    <path d="M 32.79941177368164 33.41716384887695 C 28.194644927978516 34.03285217285156 29.697494506835938 29.973796844482422 24.545412063598633 35.11479568481445" stroke-width="1.0892857313156128" fill="none" stroke="rgb(75, 173, 28)" stroke-opacity="0.1881626" stroke-linecap="round" stroke-linejoin="round"/>
    <path d="M 6.9307355880737305 120.98272705078125 C 6.989672660827637 119.21336364746094 2.156414270401001 117.97061920166016 -1.6479023694992065 114.94964599609375" stroke-width="1.0892857313156128" fill="none" stroke="rgb(141, 159, 23)" stroke-opacity="0.7366696" stroke-linecap="round" stroke-linejoin="round"/>
    <path d="M 101.01998138427734 101.56281280517578 C 102.3363037109375 99.11263275146484 108.25664520263672 98.13536834716797 105.61996459960938 99.7188949584961" stroke-width="1.198206901550293" fill="none" stroke="rgb(130, 231, 31)" stroke-opacity="0.35248625" stroke-linecap="round" stroke-linejoin="round"/>
    <path d="M 34.009864807128906 63.0535774230957 C 34.168087005615234 61.39251708984375 29.929182052612305 64.574462890625 23.918588638305664 68.6903076171875 C 25.48164939880371 70.06693267822266 21.550113677978516 73.02249908447266 23.965463638305664 68.04292297363281 C 24.03223419189453 62.603004455566406 24.592815399169922 67.96327209472656 27.70653533935547 73.77435302734375" stroke-width="1.0892857313156128" fill="none" stroke="rgb(11, 163, 161)" stroke-opacity="0.9466291" stroke-linecap="round" stroke-linejoin="round"/>
    <path d="M 3.744028329849243 78.24787139892578 C 3.55950665473938 81.59113311767578 2.7349042892456055 75.486572265625 -0.008464725688099861 74.49141693115234" stroke-width="1.0892857313156128" fill="none" stroke="rgb(240, 219, 99)" stroke-opacity="0.07731406" stroke-linecap="round" stroke-linejoin="round"/>
    <path d="M 72.75206756591797 15.159255981445312 C 67.00980377197266 18.4544734954834 65.63204956054688 15.875335693359375 68.01045227050781 11.174605369567871" stroke-width="1.0892857313156128" fill="none" stroke="rgb(16, 167, 207)" stroke-opacity="0.7422701" stroke-linecap="round" stroke-linejoin="round"/>
    <path d="M 40.3204460144043 88.46244049072266 C 38.06573486328125 91.15269470214844 38.0936164855957 89.46891784667969 32.6608772277832 88.46815490722656" stroke-width="1.0892857313156128" fill="none" stroke="rgb(29, 204, 216)" stroke-opacity="0.8633149" stroke-linecap="round" stroke-linejoin="round"/>
    <path d="M 40.69780349731445 74.67972564697266 C 34.60306167602539 75.1875 30.875774383544922 71.04641723632812 34.4759635925293 65.35814666748047 C 30.81856346130371 70.12576293945312 27.28531265258789 73.99832916259766 22.249942779541016 77.44965362548828 C 21.184171676635742 79.77725982666016 17.452045440673828 85.82392120361328 12.040183067321777 80.43711853027344" stroke-width="1.1982132196426392" fill="none" stroke="rgb(175, 110, 229)" stroke-opacity="0.048680034" stroke-linecap="round" stroke-linejoin="round"/>
    <path d="M 86.04286193847656 112.6276626586914 C 90.57982635498047 112.73783111572266 87.45731353759766 117.0121078491211 89.61663055419922 115.65059661865234 C 88.71966552734375 120.97802734375 87.58460235595703 121.96098327636719 89.11327362060547 124.24980926513672" stroke-width="1.198202133178711" fill="none" stroke="rgb(161, 115, 178)" stroke-opacity="0.08807585" stroke-linecap="round" stroke-linejoin="round"/>
    <path d="M 44.823299407958984 103.71233367919922 C 48.05702209472656 102.0278549194336 48.92456817626953 105.49898529052734 54.089595794677734 107.92176055908203" stroke-width="1.0892857313156128" fill="none" stroke="rgb(202, 87, 90)" stroke-opacity="0.23314372" stroke-linecap="round" stroke-linejoin="round"/>
    <path d="M 119.31047821044922 36.0012321472168 C 125.27606201171875 32.47967529296875 122.87156677246094 27.86733055114746 117.67665100097656 30.824501037597656 C 122.32637786865234 33.496612548828125 128.40602111816406 33.83148956298828 125.077392578125 28.203109741210938 C 127.29906463623047 23.906675338745117 121.61129760742188 28.83671760559082 127.48725128173828 31.357158660888672" stroke-width="1.0892857313156128" fill="none" stroke="rgb(150, 171, 127)" stroke-opacity="0.2558907" stroke-linecap="round" stroke-linejoin="round"/>
    <path d="M 38.021244049072266 41.40492630004883 C 38.56534957885742 45.663326263427734 38.965850830078125 47.7710075378418 45.15550231933594 50.268821716308594" stroke-width="1.1982015371322632" fill="none" stroke="rgb(74, 220, 243)" stroke-opacity="0.03194465" stroke-linecap="round" stroke-linejoin="round"/>
    <path d="M 20.153167724609375 93.06763458251953 C 21.011470794677734 94.34754180908203 16.00581932067871 96.58440399169922 22.010835647583008 93.13359069824219 C 23.54479217529297 95.99713897705078 19.70298957824707 97.47916412353516 18.949827194213867 99.61231231689453 C 22.09588050842285 93.92218017578125 23.507165908813477 91.5921401977539 25.22968292236328 94.0746841430664" stroke-width="1.1982128620147705" fill="none" stroke="rgb(34, 136, 75)" stroke-opacity="0.11678658" stroke-linecap="round" stroke-linejoin="round"/>
  </g>
</svg>
