<?xml version="1.0" ?>
<svg xmlns="http://www.w3.org/2000/svg" version="1.1" width="693.0" height="693.0">
  <defs/>
  <g>
    <path d="M 18.204837799072266 38.45526885986328 C 17.862947463989258 38.540771484375 17.127954483032227 38.897884368896484 17.19937515258789 39.18130111694336 C 16.381729125976562 41.7874870300293 14.869193077087402 43.536094665527344 12.645766258239746 45.29759979248047 C 10.265772819519043 49.13256072998047 7.834619998931885 53.33772277832031 6.181535720825195 57.96480178833008 C 6.173058032989502 59.92327117919922 5.821650505065918 61.20729064941406 5.730241775512695 62.61840057373047 C 5.549312114715576 63.2090950012207 4.892963886260986 63.95745086669922 5.072693347930908 63.770729064941406 C 5.542028427124023 64.93289947509766 6.307159423828125 63.91364669799805 7.8533101081848145 64.2422103881836 C 10.398704528808594 64.11734008789062 13.333067893981934 62.92717361450195 17.317089080810547 63.38194274902344 C 23.711437225341797 62.16302490234375 29.900104522705078 60.57040786743164 36.69971466064453 60.62616729736328" stroke-width="1.184608817100525" fill="none" stroke="rgb(30, 17, 31)" stroke-opacity="0.9704482" stroke-linecap="round" stroke-linejoin="round"/>
    <path d="M 33.68949508666992 26.679866790771484 C 33.92318344116211 26.726390838623047 33.32062530517578 27.070650100708008 33.01688766479492 27.171375274658203 C 31.772123336791992 26.185550689697266 31.059329986572266 26.14458656311035 30.763076782226562 26.324235916137695 C 30.534914016723633 26.429847717285156 29.039955139160156 27.826745986938477 29.015642166137695 27.798995971679688 C 28.66370391845703 28.868534088134766 28.783267974853516 32.22857666015625 30.281280517578125 32.546321868896484 C 29.86130142211914 34.95161819458008 31.3416748046875 35.22636032104492 32.6676025390625 36.072509765625 C 35.30467224121094 39.11891174316406 39.10670471191406 40.5372314453125 42.70555114746094 43.028018951416016 C 44.1161994934082 44.514060974121094 46.98479080200195 44.629852294921875 49.160560607910156 45.742000579833984 C 49.204078674316406 45.66004943847656 49.44615936279297 45.722816467285156 50.43806838989258 45.2669792175293 C 50.09611892700195 45.31068420410156 50.97540283203125 45.093360900878906 51.71141815185547 45.399959564208984 C 52.25759506225586 45.791160583496094 52.12841033935547 47.48637008666992 52.0803337097168 48.33344650268555" stroke-width="1.3014837503433228" fill="none" stroke="rgb(30, 29, 16)" stroke-opacity="1.0" stroke-linecap="round" stroke-linejoin="round"/>
    <path d="M 35.073020935058594 24.394977569580078 C 36.044464111328125 25.633447647094727 36.818721771240234 24.652069091796875 37.59916687011719 24.12099838256836 C 39.375648498535156 23.034971237182617 41.026268005371094 21.66944122314453 42.88664627075195 20.839815139770508 C 51.116424560546875 17.91151237487793 56.701847076416016 18.376293182373047 66.5934829711914 18.155670166015625 C 68.47146606445312 17.895978927612305 70.72195434570312 16.761873245239258 71.90577697753906 17.967769622802734 C 74.34838104248047 18.686992645263672 78.12053680419922 17.85466194152832 79.98722839355469 19.547405242919922 C 89.58343505859375 28.45021629333496 88.91290283203125 37.43222427368164 89.2148666381836 48.98311996459961 C 88.8773193359375 55.616390228271484 89.72069549560547 60.145538330078125 84.4002914428711 64.67142486572266 C 76.32489776611328 71.71833038330078 71.16270446777344 72.17615509033203 61.547176361083984 72.85845947265625 C 61.323707580566406 73.45156860351562 60.0956916809082 74.20753479003906 59.006263732910156 74.05662536621094 C 55.461448669433594 72.42402648925781 55.46514129638672 71.62036895751953 55.50663375854492 67.64981842041016" stroke-width="1.1678900718688965" fill="none" stroke="rgb(30, 18, 16)" stroke-opacity="0.991743" stroke-linecap="round" stroke-linejoin="round"/>
    <path d="M 17.609268188476562 38.94374084472656 C 13.467146873474121 44.54716491699219 11.816024780273438 45.96815490722656 11.567827224731445 48.45414733886719 C 11.08175277709961 47.12265396118164 7.073553562164307 43.169212341308594 2.317350149154663 39.61471176147461 C 3.305837392807007 36.71836853027344 0.5318624973297119 34.185237884521484 -3.673395872116089 33.08527755737305" stroke-width="0.9429556727409363" fill="none" stroke="rgb(218, 145, 75)" stroke-opacity="0.1941637" stroke-linecap="round" stroke-linejoin="round"/>
    <path d="M 71.77561950683594 17.652311325073242 C 72.36738586425781 15.513178825378418 77.18035125732422 12.506033897399902 74.09093475341797 14.947661399841309" stroke-width="0.9142717719078064" fill="none" stroke="rgb(96, 202, 188)" stroke-opacity="0.9509503" stroke-linecap="round" stroke-linejoin="round"/>
    <path d="M 5.422392845153809 61.32905197143555 C 6.906476020812988 64.84835815429688 2.7631983757019043 61.81938934326172 0.8929033875465393 65.01197814941406" stroke-width="0.9142717719078064" fill="none" stroke="rgb(242, 137, 33)" stroke-opacity="0.05981977" stroke-linecap="round" stroke-linejoin="round"/>
    <path d="M 35.11722183227539 25.354402542114258 C 33.6336784362793 25.80609703063965 30.381975173950195 28.027721405029297 31.101587295532227 30.934534072875977 C 36.75682830810547 32.14095687866211 38.29887008666992 37.31280517578125 38.46818161010742 40.89812469482422" stroke-width="0.9142717719078064" fill="none" stroke="rgb(141, 211, 170)" stroke-opacity="0.007390308" stroke-linecap="round" stroke-linejoin="round"/>
    <path d="M 4.211733341217041 63.36224365234375 C -0.21620845794677734 60.23917007446289 4.144735813140869 59.477134704589844 2.0809812545776367 64.17977142333984 C -2.6280531883239746 64.13626098632812 -2.65544056892395 69.16700744628906 -0.1885191947221756 69.69198608398438 C -0.2402334064245224 73.9483413696289 -1.4389501810073853 69.37136840820312 1.0754978656768799 66.8352279663086" stroke-width="0.9142717719078064" fill="none" stroke="rgb(148, 58, 89)" stroke-opacity="0.9493549" stroke-linecap="round" stroke-linejoin="round"/>
    <path d="M 16.89348793029785 39.02244567871094 C 12.712628364562988 39.547332763671875 10.00135326385498 35.345088958740234 12.436076164245605 38.374576568603516 C 7.999560356140137 34.67072296142578 5.635012149810791 33.79724884033203 5.338833332061768 29.269067764282227 C 4.296968936920166 31.85291862487793 7.982411861419678 29.233800888061523 9.5135498046875 27.167442321777344" stroke-width="0.9142717719078064" fill="none" stroke="rgb(8, 62, 19)" stroke-opacity="0.49082536" stroke-linecap="round" stroke-linejoin="round"/>
    <path d="M 50.24062728881836 46.543758392333984 C 51.59325408935547 49.91234588623047 50.39000701904297 46.253929138183594 46.282962799072266 49.69295883178711 C 45.789485931396484 53.76258087158203 49.85157775878906 54.39479446411133 49.07946014404297 58.79582977294922 C 44.725730895996094 61.421592712402344 40.08367919921875 56.91630172729492 35.66170883178711 56.13643264770508" stroke-width="0.9142717719078064" fill="none" stroke="rgb(255, 229, 51)" stroke-opacity="0.16954307" stroke-linecap="round" stroke-linejoin="round"/>
    <path d="M 29.597082138061523 28.856544494628906 C 28.221858978271484 30.859329223632812 25.00357437133789 31.643362045288086 20.055957794189453 28.75444793701172 C 24.500654220581055 26.48027229309082 27.042755126953125 29.550718307495117 23.446247100830078 31.98900032043457 C 21.455833435058594 29.87352180480957 20.310468673706055 28.27823829650879 22.512229919433594 28.1342830657959" stroke-width="1.0556937456130981" fill="none" stroke="rgb(205, 250, 229)" stroke-opacity="0.15381265" stroke-linecap="round" stroke-linejoin="round"/>
    <path d="M 9.967981338500977 27.68549919128418 C 6.305590629577637 27.078014373779297 5.050660610198975 26.092016220092773 1.1777758598327637 28.201343536376953" stroke-width="1.1803081035614014" fill="none" stroke="rgb(213, 67, 143)" stroke-opacity="0.39801866" stroke-linecap="round" stroke-linejoin="round"/>
    <path d="M 74.12255096435547 15.403566360473633 C 73.44012451171875 10.326558113098145 77.09514617919922 9.535111427307129 79.05229187011719 5.684441089630127" stroke-width="0.9142717719078064" fill="none" stroke="rgb(103, 158, 113)" stroke-opacity="0.71046233" stroke-linecap="round" stroke-linejoin="round"/>
    <path d="M 38.87007522583008 40.74837112426758 C 36.54288101196289 45.0772819519043 34.211856842041016 48.95716094970703 28.69275665283203 44.32673645019531 C 26.06810188293457 39.07354736328125 27.156776428222656 37.715213775634766 31.426511764526367 36.78600311279297" stroke-width="1.0224140882492065" fill="none" stroke="rgb(153, 21, 28)" stroke-opacity="0.685153" stroke-linecap="round" stroke-linejoin="round"/>
    <path d="M 39.15520477294922 40.91432189941406 C 37.569149017333984 44.57246017456055 37.617591857910156 49.159454345703125 39.12551498413086 53.86687469482422 C 42.64253616333008 50.892154693603516 40.02187728881836 49.67798614501953 36.36298751831055 45.02687454223633 C 38.9710693359375 40.693477630615234 37.531593322753906 36.15793991088867 41.51390075683594 41.19621658325195" stroke-width="1.1791045665740967" fill="none" stroke="rgb(238, 0, 215)" stroke-opacity="0.46498984" stroke-linecap="round" stroke-linejoin="round"/>
    <path d="M 74.19629669189453 15.42075252532959 C 75.17271423339844 9.337248802185059 78.73777770996094 5.081043243408203 80.27715301513672 6.892245292663574 C 84.97766876220703 10.378989219665527 88.64875793457031 8.97446060180664 91.24916076660156 9.147745132446289 C 88.48863220214844 15.320598602294922 91.7104263305664 13.193671226501465 95.75228118896484 15.220897674560547" stroke-width="1.0010836124420166" fill="none" stroke="rgb(230, 25, 130)" stroke-opacity="0.6245404" stroke-linecap="round" stroke-linejoin="round"/>
    <path d="M 10.083307266235352 27.596460342407227 C 14.358509063720703 23.1082820892334 13.264449119567871 24.705310821533203 18.326608657836914 23.28472328186035 C 13.221817970275879 20.213958740234375 14.79858684539795 18.187440872192383 18.619022369384766 14.300551414489746 C 24.017087936401367 10.971212387084961 22.730119705200195 11.401466369628906 16.477022171020508 7.15729284286499" stroke-width="0.9142717719078064" fill="none" stroke="rgb(176, 248, 155)" stroke-opacity="0.88527316" stroke-linecap="round" stroke-linejoin="round"/>
    <path d="M 1.0754965543746948 66.77606964111328 C -4.061674118041992 67.4713134765625 -5.213230133056641 67.06168365478516 -0.9014089107513428 67.13453674316406 C -0.18172474205493927 64.57170867919922 -2.200690507888794 61.90023422241211 0.2555585205554962 64.01655578613281 C -3.4234509468078613 65.46540069580078 -0.5624301433563232 64.02565002441406 4.153982639312744 65.72553253173828" stroke-width="0.9142717719078064" fill="none" stroke="rgb(96, 162, 222)" stroke-opacity="0.5681234" stroke-linecap="round" stroke-linejoin="round"/>
    <path d="M -3.480799674987793 32.82746887207031 C -5.261987209320068 33.72007369995117 -6.069648265838623 32.715145111083984 -1.3389086723327637 29.29482650756836 C -1.521984338760376 27.891969680786133 -5.537646770477295 26.26214027404785 -5.719415187835693 26.79591178894043 C -7.752006530761719 29.962575912475586 -7.62373685836792 34.766204833984375 -2.8394393920898438 37.119468688964844" stroke-width="0.9142717719078064" fill="none" stroke="rgb(233, 60, 190)" stroke-opacity="0.42306972" stroke-linecap="round" stroke-linejoin="round"/>
    <path d="M 25.164283752441406 101.90049743652344 C 25.093982696533203 104.10670471191406 29.27509117126465 108.98564910888672 33.09697723388672 108.89039611816406 C 32.920631408691406 110.77434539794922 29.63754653930664 106.08618927001953 26.2222900390625 104.42521667480469" stroke-width="1.1729363203048706" fill="none" stroke="rgb(125, 53, 201)" stroke-opacity="0.2990721" stroke-linecap="round" stroke-linejoin="round"/>
    <path d="M 2.9463322162628174 80.31134796142578 C 1.331167221069336 81.14478302001953 6.079294204711914 81.79150390625 8.984395980834961 80.76168823242188 C 9.406755447387695 81.78448486328125 12.609821319580078 79.59677124023438 10.395187377929688 82.50731658935547 C 14.599651336669922 82.59086608886719 18.773889541625977 83.9593276977539 18.356264114379883 87.35460662841797" stroke-width="1.1670082807540894" fill="none" stroke="rgb(79, 252, 222)" stroke-opacity="0.5885288" stroke-linecap="round" stroke-linejoin="round"/>
    <path d="M 91.14933013916016 97.72412872314453 C 90.45122528076172 101.81359100341797 93.96212005615234 101.88671112060547 95.57867431640625 100.77487182617188 C 100.67615509033203 99.37300109863281 96.20604705810547 102.70862579345703 97.09685516357422 108.43720245361328" stroke-width="0.9142717719078064" fill="none" stroke="rgb(200, 75, 250)" stroke-opacity="0.7739417" stroke-linecap="round" stroke-linejoin="round"/>
    <path d="M 85.23006439208984 33.556339263916016 C 89.8687973022461 35.401668548583984 85.71078491210938 37.40689468383789 82.84464263916016 36.683834075927734 C 84.22453308105469 34.02064514160156 85.2901382446289 33.20645523071289 89.44446563720703 33.038673400878906" stroke-width="0.9142717719078064" fill="none" stroke="rgb(99, 135, 171)" stroke-opacity="0.43759343" stroke-linecap="round" stroke-linejoin="round"/>
    <path d="M 23.59469985961914 8.728629112243652 C 26.66411018371582 9.54285717010498 23.922815322875977 13.098603248596191 23.274324417114258 7.92641019821167" stroke-width="1.1191898584365845" fill="none" stroke="rgb(252, 40, 158)" stroke-opacity="0.7687775" stroke-linecap="round" stroke-linejoin="round"/>
    <path d="M 89.5226821899414 33.64323806762695 C 91.69416046142578 30.578062057495117 95.79175567626953 32.33840560913086 98.17292022705078 28.880962371826172 C 98.34011840820312 31.191770553588867 94.2934341430664 26.52397346496582 92.5003433227539 25.402597427368164 C 92.09902954101562 26.966127395629883 92.14236450195312 28.246633529663086 89.17794036865234 30.9735164642334" stroke-width="0.9142717719078064" fill="none" stroke="rgb(226, 139, 19)" stroke-opacity="0.15115823" stroke-linecap="round" stroke-linejoin="round"/>
    <path d="M 17.484962463378906 59.79042434692383 C 20.82259750366211 63.111732482910156 19.687084197998047 64.67654418945312 17.05086898803711 60.17066955566406 C 13.498062133789062 56.0560417175293 14.506629943847656 53.94856643676758 16.802488327026367 53.91086196899414" stroke-width="1.170495629310608" fill="none" stroke="rgb(166, 21, 70)" stroke-opacity="0.42850155" stroke-linecap="round" stroke-linejoin="round"/>
    <path d="M 17.17396354675293 23.43608856201172 C 12.024577140808105 25.436521530151367 7.870725154876709 24.81464385986328 10.403226852416992 23.15486717224121 C 7.067747592926025 26.408491134643555 9.29908561706543 21.491626739501953 9.24754524230957 19.972440719604492 C 11.828816413879395 14.412541389465332 14.769989013671875 14.529631614685059 17.082143783569336 15.569021224975586" stroke-width="1.177087664604187" fill="none" stroke="rgb(169, 146, 170)" stroke-opacity="0.60965806" stroke-linecap="round" stroke-linejoin="round"/>
    <path d="M 90.57099914550781 17.310422897338867 C 88.34588623046875 17.504745483398438 86.10371398925781 17.488664627075195 90.02153015136719 20.802249908447266" stroke-width="0.9142717719078064" fill="none" stroke="rgb(36, 73, 95)" stroke-opacity="0.28318316" stroke-linecap="round" stroke-linejoin="round"/>
    <path d="M 90.9415054321289 24.0892391204834 C 86.86143493652344 19.164358139038086 89.6193618774414 23.180400848388672 84.9773941040039 25.96527862548828" stroke-width="1.1493544578552246" fill="none" stroke="rgb(50, 124, 57)" stroke-opacity="0.14185074" stroke-linecap="round" stroke-linejoin="round"/>
    <path d="M 42.90244674682617 86.14314270019531 C 40.39235305786133 83.3939437866211 39.74528121948242 79.97059631347656 42.61820602416992 85.74503326416016 C 45.701416015625 87.07383728027344 47.68386459350586 86.25140380859375 49.1885871887207 85.94407653808594 C 47.086177825927734 88.72657012939453 44.61699295043945 90.64759063720703 46.80136489868164 86.05350494384766" stroke-width="0.962672770023346" fill="none" stroke="rgb(26, 240, 62)" stroke-opacity="0.2627328" stroke-linecap="round" stroke-linejoin="round"/>
    <path d="M 35.03321075439453 57.74424743652344 C 34.74923324584961 53.565860748291016 30.034645080566406 50.11482238769531 28.132469177246094 53.250099182128906 C 28.455047607421875 52.68375015258789 29.349109649658203 52.73290252685547 28.117523193359375 54.08224105834961" stroke-width="0.9142717719078064" fill="none" stroke="rgb(198, 195, 70)" stroke-opacity="0.885152" stroke-linecap="round" stroke-linejoin="round"/>
    <path d="M 99.67858123779297 33.50746154785156 C 98.32801055908203 36.94224166870117 93.36096954345703 40.93754577636719 94.18509674072266 39.520050048828125 C 95.24488830566406 43.08427047729492 93.97638702392578 45.40990447998047 90.3962173461914 46.0886116027832 C 86.45790100097656 41.887596130371094 82.66118621826172 41.83406066894531 79.75076293945312 38.5095329284668" stroke-width="0.9142717719078064" fill="none" stroke="rgb(127, 129, 229)" stroke-opacity="0.6801213" stroke-linecap="round" stroke-linejoin="round"/>
    <path d="M 18.45587158203125 92.05399322509766 C 23.89995574951172 94.81158447265625 26.297365188598633 95.50501251220703 29.13536262512207 92.5890884399414 C 24.164796829223633 96.96987915039062 26.87238121032715 94.6454849243164 23.631263732910156 97.8984603881836" stroke-width="1.1488291025161743" fill="none" stroke="rgb(218, 225, 155)" stroke-opacity="0.10452722" stroke-linecap="round" stroke-linejoin="round"/>
    <path d="M 50.41654586791992 52.2532958984375 C 46.18318557739258 56.498226165771484 46.56291198730469 61.144615173339844 43.96131134033203 57.68344497680664" stroke-width="1.0238136053085327" fill="none" stroke="rgb(139, 226, 131)" stroke-opacity="0.123427585" stroke-linecap="round" stroke-linejoin="round"/>
    <path d="M 81.59827423095703 43.450157165527344 C 85.9134292602539 43.8259162902832 81.71572875976562 42.95561218261719 78.93960571289062 45.504249572753906 C 82.22977447509766 45.066558837890625 78.90994262695312 40.87472915649414 80.94666290283203 45.653831481933594" stroke-width="0.9819386601448059" fill="none" stroke="rgb(183, 102, 120)" stroke-opacity="0.6555618" stroke-linecap="round" stroke-linejoin="round"/>
  </g>
</svg>
