<?xml version="1.0" ?>
<svg xmlns="http://www.w3.org/2000/svg" version="1.1" width="1078.99219" height="1078.99219">
  <defs/>
  <g>
    <path d="M 314.3631286621094 362.5640869140625 C 319.14208984375 371.6078796386719 312.85943603515625 372.6592102050781 298.33270263671875 371.3417663574219 C 297.73199462890625 370.7072448730469 299.1280517578125 363.2953186035156 299.7352600097656 353.6804504394531 C 306.2691955566406 342.0104064941406 330.1726379394531 322.0791320800781 341.3061218261719 317.27874755859375 C 350.7317199707031 326.07958984375 366.3945007324219 317.5281677246094 370.2881164550781 310.8858337402344 C 389.8138427734375 313.4187316894531 473.75408935546875 295.1754455566406 504.7561340332031 313.0096130371094 C 522.693359375 312.013916015625 528.9202270507812 331.2461242675781 552.3698120117188 334.1015625 C 586.5687255859375 371.9797668457031 607.05322265625 425.79730224609375 612.3077392578125 488.0079345703125 C 620.4781494140625 499.3228759765625 617.6901245117188 516.8422241210938 630.2125854492188 531.0741577148438 C 635.3352661132812 538.9219360351562 635.83056640625 549.0469970703125 630.4606323242188 571.20556640625 C 632.0438232421875 578.9419555664062 633.5064697265625 585.8406372070312 635.6869506835938 592.303955078125 C 635.4574584960938 593.3555297851562 634.9953002929688 596.2554321289062 637.2023315429688 585.4039916992188 C 643.5391845703125 583.00439453125 646.8577880859375 575.8524780273438 654.7904663085938 576.4567260742188 C 676.017333984375 572.6900634765625 688.0908813476562 558.5507202148438 705.7510375976562 551.83251953125 C 748.8158569335938 524.7420654296875 784.5579223632812 502.6483459472656 834.4654541015625 493.17449951171875" stroke-width="13.310775756835938" fill="none" stroke="rgb(23, 16, 18)" stroke-opacity="0.7772086" stroke-linecap="round" stroke-linejoin="round"/>
    <path d="M 838.77880859375 740.3118286132812 C 838.92333984375 751.7902221679688 838.452880859375 750.2334594726562 839.57666015625 740.4564208984375 C 843.1256103515625 739.9027099609375 846.0496215820312 740.5431518554688 838.8226928710938 743.1322021484375 C 827.6273193359375 751.517822265625 804.3046875 746.9055786132812 762.3567504882812 753.8143310546875 C 729.6527099609375 743.9874267578125 684.8417358398438 740.132568359375 631.1838989257812 740.373291015625 C 579.156494140625 740.5684814453125 522.6110229492188 746.4982299804688 485.7242736816406 754.1246337890625 C 436.19268798828125 753.3685302734375 406.9311218261719 752.6068115234375 369.318603515625 753.49609375 C 344.2701416015625 740.74267578125 339.282470703125 740.004150390625 325.3058776855469 740.1054077148438" stroke-width="9.633858680725098" fill="none" stroke="rgb(30, 16, 18)" stroke-opacity="0.727871" stroke-linecap="round" stroke-linejoin="round"/>
    <path d="M 538.9885864257812 343.4833984375 C 584.34326171875 376.34906005859375 567.3311157226562 410.15203857421875 576.9497680664062 460.5168151855469 C 606.9957275390625 428.96563720703125 580.521728515625 403.1063232421875 557.6597900390625 365.01470947265625" stroke-width="10.430426597595215" fill="none" stroke="rgb(165, 140, 156)" stroke-opacity="0.1615046" stroke-linecap="round" stroke-linejoin="round"/>
    <path d="M 843.330078125 739.8961181640625 C 887.7653198242188 769.8637084960938 846.8345947265625 806.6290283203125 814.3248291015625 786.67236328125 C 862.5681762695312 807.4644775390625 834.2832641601562 754.5133666992188 797.0261840820312 796.797119140625" stroke-width="11.589893341064453" fill="none" stroke="rgb(255, 96, 68)" stroke-opacity="0.15456532" stroke-linecap="round" stroke-linejoin="round"/>
    <path d="M 498.4986877441406 304.2927551269531 C 479.8919677734375 304.2246398925781 434.3086853027344 342.29901123046875 449.8425598144531 349.3329772949219" stroke-width="10.100178718566895" fill="none" stroke="rgb(197, 137, 50)" stroke-opacity="0.597811" stroke-linecap="round" stroke-linejoin="round"/>
    <path d="M 841.5637817382812 753.0107421875 C 783.0196533203125 791.5082397460938 803.398681640625 804.8202514648438 768.1563110351562 767.2379760742188" stroke-width="11.611161231994629" fill="none" stroke="rgb(109, 244, 208)" stroke-opacity="0.7224218" stroke-linecap="round" stroke-linejoin="round"/>
    <path d="M 498.3023376464844 311.8450622558594 C 532.339599609375 358.33685302734375 533.0437622070312 350.1706848144531 575.7120361328125 368.71075439453125 C 522.7356567382812 344.9975280761719 557.0314331054688 347.0000305175781 520.4451904296875 293.9638671875 C 502.573486328125 314.9124450683594 503.0754699707031 329.3796691894531 552.340087890625 349.997314453125" stroke-width="9.633858680725098" fill="none" stroke="rgb(159, 113, 126)" stroke-opacity="0.5279298" stroke-linecap="round" stroke-linejoin="round"/>
    <path d="M 704.439697265625 542.7322998046875 C 751.3438110351562 514.6441040039062 725.1729125976562 521.7001342773438 736.3353881835938 488.5441589355469 C 687.1292114257812 487.8088073730469 647.7567138671875 514.3919677734375 669.679931640625 542.9159545898438 C 699.6239624023438 550.5341796875 712.0052490234375 510.79278564453125 670.649658203125 466.58056640625" stroke-width="9.841403007507324" fill="none" stroke="rgb(33, 199, 206)" stroke-opacity="0.81471056" stroke-linecap="round" stroke-linejoin="round"/>
    <path d="M 348.3279724121094 319.74468994140625 C 347.4422302246094 377.8425598144531 344.5332336425781 412.3814392089844 296.1522521972656 393.1543884277344 C 275.4485168457031 448.8933410644531 327.1712646484375 447.8183288574219 266.94097900390625 482.9065856933594 C 315.76983642578125 503.6126708984375 336.8515319824219 524.03076171875 289.9717712402344 541.94775390625" stroke-width="10.492767333984375" fill="none" stroke="rgb(177, 187, 71)" stroke-opacity="0.41108787" stroke-linecap="round" stroke-linejoin="round"/>
    <path d="M 638.9490966796875 589.0598754882812 C 619.9774780273438 556.9967041015625 591.8822021484375 601.3311157226562 561.1679077148438 583.9522094726562 C 523.5630493164062 544.956298828125 539.7298583984375 583.5791625976562 587.2264404296875 531.2401733398438" stroke-width="11.032097816467285" fill="none" stroke="rgb(236, 237, 233)" stroke-opacity="0.1627261" stroke-linecap="round" stroke-linejoin="round"/>
    <path d="M 647.6881103515625 590.8579711914062 C 596.2913818359375 641.1490478515625 639.2764282226562 657.7484741210938 678.1439819335938 606.0865478515625 C 627.5170288085938 651.8587646484375 670.5231323242188 660.9855346679688 635.8309326171875 689.2348022460938" stroke-width="9.633858680725098" fill="none" stroke="rgb(200, 122, 233)" stroke-opacity="0.5209444" stroke-linecap="round" stroke-linejoin="round"/>
    <path d="M 834.04833984375 485.77423095703125 C 802.5145874023438 478.915283203125 832.8880615234375 514.7058715820312 875.6294555664062 560.5560302734375 C 835.291015625 596.5325927734375 791.3490600585938 568.3723754882812 796.8401489257812 610.9429931640625" stroke-width="12.433831214904785" fill="none" stroke="rgb(6, 220, 192)" stroke-opacity="0.07493181" stroke-linecap="round" stroke-linejoin="round"/>
    <path d="M 304.3919677734375 368.8000183105469 C 262.4700012207031 349.94659423828125 212.96214294433594 367.7552185058594 242.5818634033203 326.4596252441406 C 275.880615234375 282.8614196777344 232.1850128173828 334.757080078125 212.31182861328125 315.028076171875" stroke-width="12.362666130065918" fill="none" stroke="rgb(3, 153, 61)" stroke-opacity="0.114539765" stroke-linecap="round" stroke-linejoin="round"/>
    <path d="M 647.31494140625 581.6195068359375 C 608.5238037109375 545.1785888671875 633.99658203125 499.4910888671875 635.7345581054688 518.4968872070312 C 579.814208984375 567.017578125 546.6240234375 530.7219848632812 564.3245239257812 503.4018249511719 C 577.725830078125 479.3533935546875 528.9578857421875 429.8967590332031 575.1144409179688 427.52276611328125" stroke-width="9.633858680725098" fill="none" stroke="rgb(79, 186, 45)" stroke-opacity="0.6757556" stroke-linecap="round" stroke-linejoin="round"/>
    <path d="M 794.72119140625 616.8944091796875 C 852.1458129882812 610.8050537109375 870.0040283203125 626.7261962890625 831.8729248046875 647.7734375 C 831.5315551757812 594.9329223632812 829.9261474609375 600.0680541992188 853.3079833984375 554.2405395507812 C 874.1148071289062 560.8196411132812 824.963134765625 616.73974609375 867.3026733398438 617.2039794921875" stroke-width="9.633858680725098" fill="none" stroke="rgb(104, 82, 104)" stroke-opacity="0.84835273" stroke-linecap="round" stroke-linejoin="round"/>
    <path d="M 211.7891082763672 316.74871826171875 C 235.2981414794922 277.67138671875 277.5516662597656 321.1592712402344 239.71578979492188 292.7790222167969" stroke-width="10.668547630310059" fill="none" stroke="rgb(212, 81, 167)" stroke-opacity="0.36840302" stroke-linecap="round" stroke-linejoin="round"/>
    <path d="M 805.11181640625 801.8544311523438 C 814.8915405273438 772.1336669921875 765.0633544921875 801.661865234375 788.8299560546875 813.72265625 C 800.790283203125 817.0999145507812 790.7791137695312 782.7549438476562 849.2933349609375 740.1216430664062 C 866.1527099609375 701.0620727539062 910.5504760742188 672.2949829101562 867.69482421875 683.3071899414062" stroke-width="11.17154312133789" fill="none" stroke="rgb(103, 90, 106)" stroke-opacity="0.09197856" stroke-linecap="round" stroke-linejoin="round"/>
    <path d="M 649.7645263671875 690.3286743164062 C 693.4534912109375 641.663330078125 659.7354125976562 639.8615112304688 703.9519653320312 614.2869873046875" stroke-width="9.633858680725098" fill="none" stroke="rgb(169, 17, 115)" stroke-opacity="0.41112372" stroke-linecap="round" stroke-linejoin="round"/>
    <path d="M 449.2705383300781 341.7793273925781 C 443.8644714355469 364.51226806640625 436.1338806152344 400.0293273925781 453.5299072265625 391.89508056640625 C 517.5081176757812 409.9631652832031 509.18951416015625 415.4335632324219 452.95428466796875 435.6043395996094 C 502.1282958984375 489.58575439453125 501.5186767578125 491.24420166015625 464.2023620605469 487.1200256347656" stroke-width="10.199114799499512" fill="none" stroke="rgb(43, 147, 174)" stroke-opacity="0.8689534" stroke-linecap="round" stroke-linejoin="round"/>
    <path d="M 446.08154296875 354.3580017089844 C 396.0032958984375 307.13140869140625 360.3087158203125 306.84100341796875 345.7415771484375 280.671630859375 C 366.2897644042969 241.3560333251953 341.5340270996094 264.86993408203125 328.5251159667969 278.2272033691406" stroke-width="9.633858680725098" fill="none" stroke="rgb(201, 133, 51)" stroke-opacity="0.6709259" stroke-linecap="round" stroke-linejoin="round"/>
    <path d="M 212.0357666015625 319.7533874511719 C 176.89151000976562 355.2727966308594 164.03240966796875 377.611328125 172.21786499023438 359.2209167480469 C 130.54302978515625 349.1601257324219 90.01126098632812 360.0948791503906 80.99605560302734 400.085205078125 C 125.0943832397461 441.3049011230469 90.65608978271484 455.74591064453125 92.31706237792969 472.7080383300781" stroke-width="9.633858680725098" fill="none" stroke="rgb(141, 15, 216)" stroke-opacity="0.8499274" stroke-linecap="round" stroke-linejoin="round"/>
    <path d="M 794.1974487304688 605.9148559570312 C 823.5568237304688 556.2759399414062 821.9548950195312 550.936279296875 865.95751953125 549.941162109375" stroke-width="12.452871322631836" fill="none" stroke="rgb(10, 112, 41)" stroke-opacity="0.44662634" stroke-linecap="round" stroke-linejoin="round"/>
    <path d="M 573.098388671875 426.7221984863281 C 584.3340454101562 459.38720703125 571.4796752929688 424.9637451171875 540.3906860351562 483.0133056640625 C 484.6575012207031 467.1556091308594 457.58770751953125 469.23382568359375 504.8465576171875 488.0187072753906" stroke-width="9.633858680725098" fill="none" stroke="rgb(125, 92, 0)" stroke-opacity="0.14278398" stroke-linecap="round" stroke-linejoin="round"/>
    <path d="M 805.1934814453125 803.54736328125 C 843.792724609375 789.9747924804688 824.0757446289062 784.8718872070312 859.8131713867188 830.7745971679688 C 871.559326171875 824.1530151367188 901.614990234375 784.541259765625 922.6616821289062 736.7223510742188" stroke-width="11.600296974182129" fill="none" stroke="rgb(165, 249, 150)" stroke-opacity="0.4251151" stroke-linecap="round" stroke-linejoin="round"/>
    <path d="M 674.5525512695312 459.2182312011719 C 623.7771606445312 465.0257263183594 667.6358032226562 491.7897033691406 631.615234375 486.6174011230469 C 624.616943359375 429.39495849609375 632.4937744140625 398.41827392578125 648.0625 387.1863708496094 C 637.3988037109375 378.8171081542969 659.3261108398438 431.8807373046875 683.321533203125 458.9949951171875" stroke-width="12.109892845153809" fill="none" stroke="rgb(63, 118, 15)" stroke-opacity="0.98178047" stroke-linecap="round" stroke-linejoin="round"/>
    <path d="M 677.6986083984375 466.00860595703125 C 642.0377197265625 448.6209411621094 659.849853515625 488.8716735839844 684.8334350585938 507.4629821777344 C 665.5606689453125 538.30908203125 640.5526123046875 572.192626953125 603.4017944335938 596.658203125" stroke-width="12.404828071594238" fill="none" stroke="rgb(19, 235, 136)" stroke-opacity="0.014458468" stroke-linecap="round" stroke-linejoin="round"/>
    <path d="M 558.4462280273438 366.23797607421875 C 587.3546142578125 403.7417297363281 549.0755615234375 354.9964904785156 577.6971435546875 396.2453918457031 C 595.5609741210938 433.564208984375 566.8063354492188 466.61669921875 606.83935546875 404.7330322265625" stroke-width="11.800419807434082" fill="none" stroke="rgb(183, 41, 255)" stroke-opacity="0.6992331" stroke-linecap="round" stroke-linejoin="round"/>
    <path d="M 137.4608917236328 452.89349365234375 C 121.2706069946289 407.0498962402344 73.731201171875 418.14508056640625 84.1177978515625 448.96978759765625 C 143.11036682128906 453.158935546875 132.17047119140625 474.3089599609375 148.1481475830078 513.126708984375" stroke-width="11.591303825378418" fill="none" stroke="rgb(28, 197, 255)" stroke-opacity="0.8549663" stroke-linecap="round" stroke-linejoin="round"/>
    <path d="M 1046.5062255859375 825.1185913085938 C 1041.24609375 775.5123901367188 1025.928466796875 736.5433349609375 1043.1021728515625 674.4859008789062 C 1053.17724609375 701.0809326171875 1085.6605224609375 683.7259521484375 1038.036376953125 682.558837890625" stroke-width="11.205595970153809" fill="none" stroke="rgb(58, 255, 237)" stroke-opacity="0.7617134" stroke-linecap="round" stroke-linejoin="round"/>
    <path d="M 296.1068115234375 201.89340209960938 C 283.9749450683594 144.81369018554688 318.7627258300781 122.22562408447266 318.6904602050781 158.55441284179688 C 280.03973388671875 193.3648681640625 265.4955139160156 216.86936950683594 268.0154113769531 224.82981872558594" stroke-width="11.450323104858398" fill="none" stroke="rgb(198, 90, 130)" stroke-opacity="0.11897091" stroke-linecap="round" stroke-linejoin="round"/>
    <path d="M 985.7428588867188 410.35772705078125 C 1029.88427734375 378.6810607910156 999.6536254882812 339.5669860839844 1023.2102661132812 397.83203125 C 1001.2432250976562 345.7614440917969 1025.5411376953125 374.32305908203125 1033.36376953125 414.5927734375" stroke-width="9.633858680725098" fill="none" stroke="rgb(158, 245, 219)" stroke-opacity="0.77272666" stroke-linecap="round" stroke-linejoin="round"/>
    <path d="M 788.9900512695312 126.80424499511719 C 796.256591796875 85.13228607177734 797.0112915039062 35.07523727416992 759.7806396484375 3.729168176651001 C 752.186279296875 -6.118102550506592 723.8873901367188 -21.208099365234375 709.4783325195312 -64.57714080810547" stroke-width="10.395241737365723" fill="none" stroke="rgb(162, 240, 0)" stroke-opacity="0.8999228" stroke-linecap="round" stroke-linejoin="round"/>
    <path d="M 427.55462646484375 198.59608459472656 C 431.0085144042969 163.1868438720703 404.09783935546875 170.36431884765625 453.8031311035156 145.1748504638672" stroke-width="9.633858680725098" fill="none" stroke="rgb(87, 132, 147)" stroke-opacity="0.19188721" stroke-linecap="round" stroke-linejoin="round"/>
    <path d="M 200.1695098876953 589.3483276367188 C 207.41603088378906 577.5299072265625 188.5950469970703 526.8306884765625 237.4091339111328 574.2432250976562 C 288.9574279785156 528.487548828125 312.8417663574219 572.1040649414062 363.80218505859375 567.9561157226562 C 394.8433837890625 546.5704345703125 404.73699951171875 511.7308044433594 384.3067626953125 449.8115234375" stroke-width="9.642940521240234" fill="none" stroke="rgb(43, 89, 66)" stroke-opacity="0.504274" stroke-linecap="round" stroke-linejoin="round"/>
    <path d="M 456.48150634765625 177.04248046875 C 401.86553955078125 191.03335571289062 425.20330810546875 130.97776794433594 453.309326171875 96.73975372314453" stroke-width="9.633858680725098" fill="none" stroke="rgb(88, 118, 91)" stroke-opacity="0.9538683" stroke-linecap="round" stroke-linejoin="round"/>
    <path d="M 994.5941162109375 647.3555908203125 C 1025.9169921875 677.3699951171875 1022.45166015625 718.4537353515625 1049.089599609375 706.2214965820312" stroke-width="11.936810493469238" fill="none" stroke="rgb(141, 25, 242)" stroke-opacity="0.4380821" stroke-linecap="round" stroke-linejoin="round"/>
    <path d="M 182.88287353515625 779.624267578125 C 206.37884521484375 753.3724975585938 205.79884338378906 789.0001220703125 244.66212463378906 782.7438354492188 C 244.7841033935547 773.4425048828125 257.5021057128906 803.083984375 262.81146240234375 799.76611328125 C 206.30178833007812 784.8030395507812 228.27745056152344 836.6912231445312 242.1782684326172 784.747802734375" stroke-width="12.065328598022461" fill="none" stroke="rgb(71, 168, 238)" stroke-opacity="0.7372782" stroke-linecap="round" stroke-linejoin="round"/>
    <path d="M 687.8071899414062 920.9686279296875 C 668.0629272460938 931.39111328125 711.8674926757812 929.5626220703125 647.0551147460938 936.6810913085938" stroke-width="12.314677238464355" fill="none" stroke="rgb(129, 13, 43)" stroke-opacity="0.2562101" stroke-linecap="round" stroke-linejoin="round"/>
    <path d="M 42.91886520385742 511.1465759277344 C 63.78658676147461 494.40301513671875 46.94165802001953 544.1340942382812 -8.780207633972168 525.8161010742188 C -33.790042877197266 548.9468383789062 9.436366081237793 516.6595458984375 -27.98476219177246 555.380615234375 C -24.850488662719727 554.77783203125 -31.971378326416016 520.871337890625 -21.393207550048828 537.7662353515625" stroke-width="9.633858680725098" fill="none" stroke="rgb(237, 113, 144)" stroke-opacity="0.85130316" stroke-linecap="round" stroke-linejoin="round"/>
    <path d="M 223.8323211669922 361.8447265625 C 259.44873046875 352.4550476074219 305.1533508300781 299.4608154296875 330.1317443847656 319.379150390625 C 365.39605712890625 271.3364562988281 326.1870422363281 277.92596435546875 376.1143798828125 311.42962646484375" stroke-width="10.948057174682617" fill="none" stroke="rgb(135, 67, 190)" stroke-opacity="0.52081484" stroke-linecap="round" stroke-linejoin="round"/>
    <path d="M 139.14939880371094 664.6553955078125 C 199.895263671875 689.0310668945312 168.69004821777344 709.05810546875 114.14038848876953 738.3594360351562 C 112.45556640625 749.1279907226562 160.46690368652344 725.3333740234375 205.88040161132812 739.072021484375" stroke-width="12.08945369720459" fill="none" stroke="rgb(107, 255, 56)" stroke-opacity="0.76767874" stroke-linecap="round" stroke-linejoin="round"/>
    <path d="M 684.05029296875 107.16278076171875 C 694.5428466796875 119.87639617919922 711.0963745117188 59.552452087402344 680.4913940429688 3.8123161792755127 C 684.01025390625 23.578523635864258 681.349609375 6.81487512588501 733.3098754882812 35.870330810546875 C 792.5107421875 12.901261329650879 741.539794921875 17.045337677001953 794.5291748046875 -25.20655059814453" stroke-width="9.633858680725098" fill="none" stroke="rgb(162, 145, 29)" stroke-opacity="0.7766892" stroke-linecap="round" stroke-linejoin="round"/>
    <path d="M 522.6882934570312 143.5445556640625 C 471.16802978515625 118.93463897705078 510.9397277832031 134.8778076171875 530.6598510742188 153.22889709472656 C 497.36785888671875 197.67739868164062 452.8447265625 227.17288208007812 463.3782653808594 229.52000427246094" stroke-width="10.364315032958984" fill="none" stroke="rgb(227, 40, 90)" stroke-opacity="0.24780868" stroke-linecap="round" stroke-linejoin="round"/>
    <path d="M 730.1326293945312 1056.9755859375 C 769.08447265625 1018.3206176757812 765.855224609375 1038.0904541015625 781.6014404296875 993.8192749023438 C 805.8042602539062 948.7301635742188 820.6755981445312 930.1992797851562 788.8767700195312 942.2543334960938 C 735.208251953125 935.4793090820312 729.579345703125 942.1742553710938 787.55517578125 983.6253051757812" stroke-width="9.633858680725098" fill="none" stroke="rgb(145, 215, 142)" stroke-opacity="0.92008686" stroke-linecap="round" stroke-linejoin="round"/>
    <path d="M 716.15771484375 625.544677734375 C 745.3828125 606.5775756835938 716.3926391601562 608.1902465820312 713.1829223632812 633.154541015625 C 716.092529296875 588.2534790039062 667.2618408203125 631.7353515625 702.655517578125 648.4522094726562 C 689.2744750976562 650.7333374023438 695.416259765625 628.6474609375 725.901611328125 578.6270141601562" stroke-width="10.462599754333496" fill="none" stroke="rgb(188, 184, 39)" stroke-opacity="0.5094084" stroke-linecap="round" stroke-linejoin="round"/>
    <path d="M 866.9702758789062 984.1069946289062 C 837.315185546875 994.8316650390625 882.7978515625 1011.8776245117188 876.8031005859375 1013.9932250976562 C 826.250244140625 975.1212158203125 867.6499633789062 983.8338012695312 843.48291015625 960.0162353515625" stroke-width="9.633858680725098" fill="none" stroke="rgb(53, 160, 179)" stroke-opacity="0.95386064" stroke-linecap="round" stroke-linejoin="round"/>
    <path d="M 841.0951538085938 550.8336791992188 C 841.4569702148438 554.9237670898438 829.1929931640625 545.2161865234375 842.4519653320312 576.5673217773438 C 808.045654296875 621.2940673828125 805.3523559570312 572.02490234375 776.72802734375 594.1133422851562 C 791.3649291992188 571.3799438476562 793.7678833007812 566.2381591796875 776.4806518554688 564.6356811523438" stroke-width="9.633858680725098" fill="none" stroke="rgb(2, 12, 238)" stroke-opacity="0.42718133" stroke-linecap="round" stroke-linejoin="round"/>
    <path d="M 248.80029296875 933.396240234375 C 261.5971374511719 943.6422729492188 234.2947235107422 942.4922485351562 233.40985107421875 907.234619140625 C 237.54701232910156 864.161865234375 266.4450988769531 889.8600463867188 212.19149780273438 861.6148071289062" stroke-width="12.074174880981445" fill="none" stroke="rgb(20, 185, 74)" stroke-opacity="0.0431752" stroke-linecap="round" stroke-linejoin="round"/>
    <path d="M 160.2032012939453 755.4324340820312 C 206.66766357421875 793.867431640625 175.0958709716797 808.0263061523438 186.1375274658203 809.8088989257812" stroke-width="9.950260162353516" fill="none" stroke="rgb(4, 202, 225)" stroke-opacity="0.018947262" stroke-linecap="round" stroke-linejoin="round"/>
    <path d="M 161.23057556152344 176.71812438964844 C 129.10972595214844 240.79029846191406 113.61131286621094 211.77719116210938 76.8936538696289 185.80300903320312 C 95.60372924804688 174.96754455566406 68.02278137207031 213.269287109375 81.79557800292969 209.9734344482422" stroke-width="9.633858680725098" fill="none" stroke="rgb(25, 18, 47)" stroke-opacity="0.67738724" stroke-linecap="round" stroke-linejoin="round"/>
    <path d="M 149.44070434570312 614.8892822265625 C 116.32695770263672 588.4210205078125 60.53843307495117 560.6155395507812 46.269039154052734 538.646240234375 C 69.06353759765625 554.091552734375 48.86305236816406 526.7178344726562 75.26921081542969 551.7174072265625" stroke-width="12.292560577392578" fill="none" stroke="rgb(232, 2, 57)" stroke-opacity="0.4303192" stroke-linecap="round" stroke-linejoin="round"/>
    <path d="M 216.37258911132812 1026.474853515625 C 234.3258056640625 1050.058837890625 244.77342224121094 1086.347900390625 212.29527282714844 1041.9027099609375" stroke-width="12.115323066711426" fill="none" stroke="rgb(154, 255, 16)" stroke-opacity="0.041227296" stroke-linecap="round" stroke-linejoin="round"/>
  </g>
</svg>
