<?xml version="1.0" ?>
<svg xmlns="http://www.w3.org/2000/svg" version="1.1" width="804.0" height="804.0">
  <defs/>
  <g>
    <path d="M 254.82395935058594 290.20111083984375 C 225.8282012939453 308.59515380859375 223.054931640625 277.1319885253906 224.24464416503906 245.59902954101562" stroke-width="7.178571701049805" fill="none" stroke="rgb(16, 45, 29)" stroke-opacity="0.59717596" stroke-linecap="round" stroke-linejoin="round"/>
    <path d="M 70.71094512939453 302.7789001464844 C 55.23402404785156 309.5801086425781 79.56112670898438 295.7935791015625 59.012271881103516 292.736083984375" stroke-width="7.178571701049805" fill="none" stroke="rgb(244, 85, 89)" stroke-opacity="0.30830932" stroke-linecap="round" stroke-linejoin="round"/>
    <path d="M 90.99365997314453 602.7386474609375 C 69.14685821533203 593.866455078125 49.98346710205078 584.5114135742188 59.978824615478516 577.3353271484375 C 89.63166046142578 562.7628173828125 69.19390869140625 521.7083129882812 54.428707122802734 495.3412780761719" stroke-width="8.247086524963379" fill="none" stroke="rgb(125, 227, 25)" stroke-opacity="0.11903251" stroke-linecap="round" stroke-linejoin="round"/>
    <path d="M 406.40362548828125 282.061279296875 C 383.12109375 253.92507934570312 398.4833068847656 214.03439331054688 400.8210144042969 244.69900512695312" stroke-width="8.59861946105957" fill="none" stroke="rgb(225, 102, 162)" stroke-opacity="0.20416926" stroke-linecap="round" stroke-linejoin="round"/>
    <path d="M 701.5604858398438 678.5249633789062 C 700.4075317382812 716.9170532226562 668.60546875 722.6547241210938 699.4409790039062 733.740234375" stroke-width="7.178571701049805" fill="none" stroke="rgb(80, 180, 26)" stroke-opacity="0.46586624" stroke-linecap="round" stroke-linejoin="round"/>
    <path d="M 670.256103515625 398.1537780761719 C 705.7102661132812 367.0389404296875 730.7239990234375 376.8290100097656 745.8347778320312 376.1739196777344 C 768.7451782226562 410.1260681152344 778.5560913085938 424.1728210449219 792.853759765625 450.83087158203125" stroke-width="9.29943561553955" fill="none" stroke="rgb(181, 145, 7)" stroke-opacity="0.20835564" stroke-linecap="round" stroke-linejoin="round"/>
    <path d="M 130.325927734375 67.50714874267578 C 132.4403533935547 83.72944641113281 149.879638671875 95.55415344238281 118.94051361083984 103.63873291015625" stroke-width="7.178571701049805" fill="none" stroke="rgb(54, 172, 182)" stroke-opacity="0.7558035" stroke-linecap="round" stroke-linejoin="round"/>
    <path d="M 292.9649963378906 481.7712707519531 C 273.0500183105469 501.1917724609375 287.522705078125 485.081298828125 298.9031677246094 500.63336181640625" stroke-width="7.316622734069824" fill="none" stroke="rgb(29, 120, 208)" stroke-opacity="0.8488186" stroke-linecap="round" stroke-linejoin="round"/>
    <path d="M 747.5223999023438 75.0959701538086 C 763.2256469726562 80.77330780029297 763.5440673828125 59.56687927246094 785.73828125 17.546022415161133 C 762.1302490234375 35.205902099609375 756.8545532226562 54.554443359375 726.1506958007812 63.90159606933594 C 761.0166015625 54.89540100097656 760.2008056640625 59.18506622314453 743.0880737304688 21.366025924682617" stroke-width="8.741724014282227" fill="none" stroke="rgb(166, 74, 122)" stroke-opacity="0.30371824" stroke-linecap="round" stroke-linejoin="round"/>
    <path d="M 639.7391967773438 598.3837280273438 C 623.4210815429688 625.2425537109375 632.7183837890625 654.977783203125 635.7816162109375 653.0836791992188 C 595.4540405273438 655.1022338867188 606.696044921875 613.27880859375 582.8206176757812 590.2761840820312" stroke-width="7.178571701049805" fill="none" stroke="rgb(31, 105, 16)" stroke-opacity="0.2114933" stroke-linecap="round" stroke-linejoin="round"/>
    <path d="M 591.9095458984375 571.337646484375 C 578.4317626953125 558.5785522460938 606.407958984375 561.6859130859375 582.1106567382812 547.02392578125 C 608.2582397460938 539.0357666015625 591.1158447265625 497.9739990234375 591.9633178710938 525.6282958984375" stroke-width="7.178571701049805" fill="none" stroke="rgb(237, 19, 145)" stroke-opacity="0.048927758" stroke-linecap="round" stroke-linejoin="round"/>
    <path d="M 443.19805908203125 279.2080383300781 C 421.2284851074219 285.45220947265625 453.9667053222656 252.210693359375 458.2499694824219 269.61529541015625 C 426.4773864746094 295.4494323730469 402.0379333496094 271.57769775390625 432.0522766113281 292.32989501953125 C 414.7466125488281 316.95135498046875 388.3814392089844 291.7994689941406 419.7259521484375 324.9421081542969" stroke-width="8.88722038269043" fill="none" stroke="rgb(209, 139, 156)" stroke-opacity="0.8064175" stroke-linecap="round" stroke-linejoin="round"/>
    <path d="M 546.3372802734375 172.4765625 C 546.4100952148438 129.2841339111328 520.9411010742188 119.72102355957031 531.1232299804688 163.2261962890625 C 510.4110107421875 142.5473175048828 481.3439636230469 170.8843994140625 479.474609375 181.28041076660156" stroke-width="7.178571701049805" fill="none" stroke="rgb(27, 119, 33)" stroke-opacity="0.5871014" stroke-linecap="round" stroke-linejoin="round"/>
    <path d="M 238.40069580078125 368.6913757324219 C 231.94155883789062 393.9913024902344 255.38067626953125 391.5057373046875 222.81544494628906 356.9487609863281 C 227.12295532226562 371.5182189941406 244.1254425048828 333.09161376953125 262.0688171386719 318.2995300292969" stroke-width="7.178571701049805" fill="none" stroke="rgb(222, 239, 215)" stroke-opacity="0.87311035" stroke-linecap="round" stroke-linejoin="round"/>
    <path d="M 208.49571228027344 734.779541015625 C 216.9193878173828 740.1741333007812 192.35565185546875 717.649658203125 222.94256591796875 740.16357421875 C 224.16722106933594 751.5834350585938 206.14224243164062 737.5851440429688 174.07701110839844 740.4029541015625 C 199.28787231445312 725.0076293945312 223.56883239746094 763.5460815429688 240.25210571289062 734.7590942382812" stroke-width="9.115657806396484" fill="none" stroke="rgb(229, 79, 182)" stroke-opacity="0.6918123" stroke-linecap="round" stroke-linejoin="round"/>
    <path d="M 479.5628967285156 389.2660827636719 C 491.7680969238281 361.3379211425781 503.2820129394531 314.50262451171875 488.6458740234375 331.3018493652344" stroke-width="7.178571701049805" fill="none" stroke="rgb(155, 176, 144)" stroke-opacity="0.40865314" stroke-linecap="round" stroke-linejoin="round"/>
    <path d="M 469.5203857421875 109.7612075805664 C 452.24151611328125 129.75442504882812 462.2026672363281 119.70130920410156 445.7483825683594 110.22018432617188" stroke-width="7.178571701049805" fill="none" stroke="rgb(66, 173, 140)" stroke-opacity="0.47174555" stroke-linecap="round" stroke-linejoin="round"/>
    <path d="M 782.128662109375 258.35443115234375 C 769.8778686523438 229.3600616455078 781.9445190429688 206.77774047851562 776.443359375 238.28244018554688" stroke-width="7.178571701049805" fill="none" stroke="rgb(48, 77, 219)" stroke-opacity="0.61945724" stroke-linecap="round" stroke-linejoin="round"/>
    <path d="M 41.59099578857422 142.33462524414062 C 28.67940330505371 116.62366485595703 28.145933151245117 120.306884765625 -5.0629143714904785 151.25709533691406 C -26.0626277923584 163.271484375 -33.366310119628906 180.1688995361328 -18.83133316040039 199.30125427246094" stroke-width="7.178571701049805" fill="none" stroke="rgb(38, 131, 220)" stroke-opacity="0.64434415" stroke-linecap="round" stroke-linejoin="round"/>
    <path d="M 36.61113357543945 507.8435363769531 C 54.11648941040039 527.6183471679688 22.77574348449707 548.1599731445312 39.20011901855469 508.4705810546875 C 46.122467041015625 528.9110717773438 26.388765335083008 506.3724060058594 67.93156433105469 494.98785400390625 C 93.29070281982422 490.8927307128906 104.97826385498047 486.547607421875 98.35734558105469 518.4476318359375" stroke-width="7.178571701049805" fill="none" stroke="rgb(39, 212, 40)" stroke-opacity="0.3227384" stroke-linecap="round" stroke-linejoin="round"/>
    <path d="M 420.1122741699219 525.6395874023438 C 401.52874755859375 498.1644592285156 374.8984375 519.0628051757812 355.8492126464844 505.91668701171875" stroke-width="9.165115356445312" fill="none" stroke="rgb(121, 60, 50)" stroke-opacity="0.51546854" stroke-linecap="round" stroke-linejoin="round"/>
    <path d="M 346.5664978027344 756.2029418945312 C 321.00006103515625 765.6737060546875 333.04339599609375 773.4263916015625 286.9010314941406 802.155517578125" stroke-width="7.178571701049805" fill="none" stroke="rgb(227, 31, 167)" stroke-opacity="0.23353763" stroke-linecap="round" stroke-linejoin="round"/>
    <path d="M 178.89202880859375 479.3907165527344 C 175.7013397216797 514.6021728515625 185.57350158691406 488.12860107421875 212.76425170898438 468.9463806152344 C 203.04107666015625 451.53424072265625 244.81785583496094 444.5587463378906 206.46932983398438 407.9195251464844" stroke-width="7.178571701049805" fill="none" stroke="rgb(183, 133, 13)" stroke-opacity="0.62339604" stroke-linecap="round" stroke-linejoin="round"/>
    <path d="M 564.5717163085938 107.66567993164062 C 573.8698120117188 83.1395034790039 554.6270141601562 90.56814575195312 532.9353637695312 121.28593444824219 C 527.4722290039062 119.78652954101562 556.3709716796875 139.23263549804688 546.9013061523438 152.2750701904297 C 530.578369140625 162.3509521484375 498.5196533203125 194.6370086669922 513.2979125976562 183.6770477294922" stroke-width="7.178571701049805" fill="none" stroke="rgb(217, 209, 105)" stroke-opacity="0.32883987" stroke-linecap="round" stroke-linejoin="round"/>
    <path d="M 630.743896484375 -1.181663990020752 C 618.7771606445312 7.519984722137451 589.7817993164062 3.8744406700134277 574.5209350585938 -20.035070419311523" stroke-width="7.234449863433838" fill="none" stroke="rgb(48, 111, 255)" stroke-opacity="0.2392457" stroke-linecap="round" stroke-linejoin="round"/>
    <path d="M 163.3656463623047 570.7723999023438 C 190.41537475585938 536.4633178710938 176.4231414794922 496.79229736328125 165.31752014160156 453.43145751953125" stroke-width="7.178571701049805" fill="none" stroke="rgb(14, 66, 29)" stroke-opacity="0.43709737" stroke-linecap="round" stroke-linejoin="round"/>
    <path d="M 167.278564453125 648.3685302734375 C 130.920654296875 669.5822143554688 159.6129608154297 685.4793701171875 144.8625030517578 702.6240844726562 C 131.85633850097656 699.4493408203125 142.701904296875 715.6712646484375 145.67236328125 720.6768188476562 C 107.33277893066406 728.4548950195312 120.9051284790039 760.9713745117188 83.56800842285156 768.2120971679688" stroke-width="7.178571701049805" fill="none" stroke="rgb(58, 47, 122)" stroke-opacity="0.5389237" stroke-linecap="round" stroke-linejoin="round"/>
    <path d="M 588.6795654296875 681.59765625 C 566.8877563476562 658.8837890625 595.850830078125 629.6227416992188 636.0091552734375 646.4429931640625 C 671.4611206054688 674.3380126953125 673.3132934570312 683.9442138671875 707.7997436523438 648.268310546875 C 714.1390380859375 668.181640625 749.8621826171875 690.1582641601562 766.1768798828125 719.5220947265625" stroke-width="7.178571701049805" fill="none" stroke="rgb(119, 249, 224)" stroke-opacity="0.5831044" stroke-linecap="round" stroke-linejoin="round"/>
    <path d="M 133.24966430664062 336.8411865234375 C 163.83460998535156 351.4975891113281 181.78334045410156 380.5560607910156 167.42636108398438 350.0480651855469 C 153.88807678222656 333.74969482421875 144.54730224609375 350.3803405761719 142.74002075195312 334.90484619140625 C 172.12904357910156 293.79852294921875 179.11610412597656 288.4921875 144.29568481445312 275.73809814453125" stroke-width="7.178571701049805" fill="none" stroke="rgb(95, 104, 255)" stroke-opacity="0.7661947" stroke-linecap="round" stroke-linejoin="round"/>
    <path d="M 258.51904296875 405.51507568359375 C 286.95257568359375 432.60992431640625 268.50396728515625 438.4837341308594 296.8210754394531 444.5186462402344" stroke-width="7.333676815032959" fill="none" stroke="rgb(223, 96, 67)" stroke-opacity="0.16703714" stroke-linecap="round" stroke-linejoin="round"/>
    <path d="M 282.6065368652344 73.25173950195312 C 308.75830078125 55.13142776489258 287.3912353515625 74.05706024169922 272.4756774902344 66.43404388427734 C 311.44073486328125 76.60758209228516 284.6040344238281 114.2079849243164 263.18359375 116.30427551269531" stroke-width="8.453726768493652" fill="none" stroke="rgb(234, 90, 112)" stroke-opacity="0.48231024" stroke-linecap="round" stroke-linejoin="round"/>
    <path d="M 224.12548828125 216.41403198242188 C 244.65354919433594 233.6207733154297 224.64724731445312 195.70143127441406 243.131591796875 196.36434936523438 C 262.1348876953125 223.5689697265625 280.5789489746094 192.21881103515625 267.58648681640625 229.6110382080078" stroke-width="7.178571701049805" fill="none" stroke="rgb(198, 65, 117)" stroke-opacity="0.3118243" stroke-linecap="round" stroke-linejoin="round"/>
  </g>
</svg>
