<?xml version="1.0" ?>
<svg xmlns="http://www.w3.org/2000/svg" version="1.1" width="925.0" height="925.0">
  <defs/>
  <g>
    <path d="M 44.36233901977539 52.84553527832031 C 47.12160110473633 55.744773864746094 44.8307991027832 59.445411682128906 46.158653259277344 58.4468879699707" stroke-width="1.0892857313156128" fill="none" stroke="rgb(213, 197, 33)" stroke-opacity="0.21205457" stroke-linecap="round" stroke-linejoin="round"/>
    <path d="M 29.59181022644043 23.063474655151367 C 34.72126007080078 25.333492279052734 29.281288146972656 27.088319778442383 26.159759521484375 19.65030860900879 C 32.324501037597656 23.684823989868164 37.92106246948242 28.927228927612305 31.84029769897461 28.35736083984375 C 27.322444915771484 29.86090087890625 26.310075759887695 22.903345108032227 26.403562545776367 26.851682662963867" stroke-width="1.0892857313156128" fill="none" stroke="rgb(54, 193, 181)" stroke-opacity="0.8260043" stroke-linecap="round" stroke-linejoin="round"/>
    <path d="M 21.20926284790039 35.472232818603516 C 16.499309539794922 29.764907836914062 17.979286193847656 24.62689971923828 12.539505958557129 24.297128677368164 C 12.50327205657959 19.25041389465332 15.5396146774292 20.47684669494629 10.520278930664062 19.35116958618164 C 10.745404243469238 21.241230010986328 10.168031692504883 27.067480087280273 11.333863258361816 33.29228591918945" stroke-width="1.6545734405517578" fill="none" stroke="rgb(69, 57, 243)" stroke-opacity="0.46329713" stroke-linecap="round" stroke-linejoin="round"/>
    <path d="M 118.77050018310547 12.234973907470703 C 123.70427703857422 10.06370735168457 125.38941955566406 11.455636978149414 129.7865753173828 14.254617691040039" stroke-width="1.1791253089904785" fill="none" stroke="rgb(158, 255, 77)" stroke-opacity="0.757526" stroke-linecap="round" stroke-linejoin="round"/>
    <path d="M 121.70885467529297 73.02093505859375 C 121.19742584228516 76.41716003417969 121.0296630859375 71.06277465820312 115.80757141113281 72.68154907226562" stroke-width="1.5106470584869385" fill="none" stroke="rgb(218, 48, 95)" stroke-opacity="0.2626143" stroke-linecap="round" stroke-linejoin="round"/>
    <path d="M 100.7232437133789 79.9647216796875 C 99.55101776123047 83.23936462402344 99.95186614990234 89.19913482666016 100.18415069580078 89.83616638183594 C 103.31427764892578 84.08734893798828 97.37012481689453 89.31035614013672 104.03759765625 89.47525787353516" stroke-width="1.530553936958313" fill="none" stroke="rgb(254, 12, 203)" stroke-opacity="0.9897996" stroke-linecap="round" stroke-linejoin="round"/>
    <path d="M 111.57423400878906 44.36601638793945 C 114.16167449951172 50.55556869506836 117.31038665771484 52.16630935668945 122.77465057373047 57.62840270996094" stroke-width="1.5700722932815552" fill="none" stroke="rgb(186, 207, 107)" stroke-opacity="0.0" stroke-linecap="round" stroke-linejoin="round"/>
    <path d="M 77.42471313476562 33.487152099609375 C 73.81783294677734 37.49538040161133 76.24337005615234 39.631649017333984 71.48204803466797 35.88258743286133 C 67.2262954711914 34.893802642822266 68.80486297607422 39.12038040161133 67.72136688232422 44.62775421142578 C 67.86388397216797 45.64482879638672 67.30232238769531 39.06172561645508 71.62439727783203 43.588768005371094" stroke-width="1.6270297765731812" fill="none" stroke="rgb(25, 173, 148)" stroke-opacity="0.5501351" stroke-linecap="round" stroke-linejoin="round"/>
    <path d="M 97.0642318725586 23.987953186035156 C 101.57496643066406 20.8916015625 102.2342758178711 25.81686782836914 101.21833038330078 27.472246170043945" stroke-width="1.0892857313156128" fill="none" stroke="rgb(207, 116, 237)" stroke-opacity="0.0408765" stroke-linecap="round" stroke-linejoin="round"/>
    <path d="M 118.2818374633789 63.775508880615234 C 116.82098388671875 62.146053314208984 120.36810302734375 56.667266845703125 112.26153564453125 61.11851119995117 C 116.09249877929688 60.07537078857422 121.18216705322266 57.91801452636719 118.87998962402344 53.85066223144531 C 119.41999816894531 51.400657653808594 114.74186706542969 51.648048400878906 112.50482940673828 60.2596549987793" stroke-width="1.5693272352218628" fill="none" stroke="rgb(92, 168, 152)" stroke-opacity="0.45430675" stroke-linecap="round" stroke-linejoin="round"/>
    <path d="M 93.89550018310547 1.9267346858978271 C 100.04430389404297 1.1552932262420654 104.30301666259766 0.6773455739021301 106.34087371826172 -3.5825793743133545 C 103.34412384033203 -3.975822925567627 107.8733901977539 -5.530679225921631 108.11457824707031 1.4234507083892822" stroke-width="1.0892857313156128" fill="none" stroke="rgb(148, 45, 83)" stroke-opacity="0.5196837" stroke-linecap="round" stroke-linejoin="round"/>
    <path d="M 102.00678253173828 112.4862060546875 C 103.19486999511719 119.64657592773438 103.63888549804688 118.06548309326172 102.75895690917969 122.63297271728516 C 102.8257827758789 123.23062133789062 107.46298217773438 119.08317565917969 104.7455825805664 124.78308868408203 C 99.27315521240234 128.66468811035156 100.3643798828125 134.46591186523438 104.97069549560547 139.65524291992188" stroke-width="1.0892857313156128" fill="none" stroke="rgb(208, 76, 126)" stroke-opacity="0.71406406" stroke-linecap="round" stroke-linejoin="round"/>
    <path d="M 35.90745162963867 96.30819702148438 C 42.32038879394531 98.46280670166016 44.648677825927734 98.7009048461914 39.350791931152344 98.51481628417969 C 37.86016082763672 95.63563537597656 36.575653076171875 100.42667388916016 39.78453063964844 101.45779418945312" stroke-width="1.0892857313156128" fill="none" stroke="rgb(221, 219, 47)" stroke-opacity="0.26428485" stroke-linecap="round" stroke-linejoin="round"/>
    <path d="M 7.477644920349121 57.77486801147461 C 11.638962745666504 52.84638595581055 12.92683219909668 59.53497314453125 12.803532600402832 66.07512664794922 C 18.79694938659668 62.43595886230469 20.68561363220215 61.710487365722656 24.038908004760742 59.683563232421875 C 17.35780906677246 63.60008239746094 13.163204193115234 60.98893356323242 9.787318229675293 63.6303596496582" stroke-width="1.0892857313156128" fill="none" stroke="rgb(153, 51, 91)" stroke-opacity="0.39263538" stroke-linecap="round" stroke-linejoin="round"/>
    <path d="M 78.29217529296875 74.27793884277344 C 78.12073516845703 79.17173767089844 78.01041412353516 85.70147705078125 79.34912109375 89.23182678222656 C 83.52205657958984 87.16915130615234 86.0645980834961 87.50346374511719 85.64926147460938 79.12937927246094" stroke-width="1.738656997680664" fill="none" stroke="rgb(142, 29, 49)" stroke-opacity="0.706558" stroke-linecap="round" stroke-linejoin="round"/>
    <path d="M 43.31237030029297 108.75575256347656 C 47.72172164916992 109.61841583251953 47.46082305908203 110.09583282470703 44.01420593261719 110.62386322021484" stroke-width="1.0892857313156128" fill="none" stroke="rgb(214, 245, 222)" stroke-opacity="0.701415" stroke-linecap="round" stroke-linejoin="round"/>
    <path d="M 71.8904800415039 104.47795867919922 C 72.93585205078125 105.81987762451172 73.11538696289062 102.88166809082031 74.91905975341797 101.17804718017578 C 82.45830535888672 106.12115478515625 77.77975463867188 103.76045989990234 73.55457305908203 98.81501007080078 C 70.01561737060547 105.46073150634766 73.61582946777344 102.36744689941406 71.21256256103516 105.557861328125" stroke-width="1.0892857313156128" fill="none" stroke="rgb(154, 32, 209)" stroke-opacity="0.0066546253" stroke-linecap="round" stroke-linejoin="round"/>
    <path d="M 58.49296951293945 55.41983413696289 C 58.99604034423828 53.93740463256836 60.91364669799805 47.1462287902832 62.26552200317383 41.4737434387207 C 64.76602935791016 37.2445182800293 62.60685729980469 37.82270431518555 67.63150024414062 39.60049057006836 C 69.66978454589844 41.528282165527344 66.67864227294922 36.828556060791016 69.65132141113281 35.5728645324707" stroke-width="1.0892857313156128" fill="none" stroke="rgb(0, 200, 30)" stroke-opacity="0.66280055" stroke-linecap="round" stroke-linejoin="round"/>
    <path d="M 97.57222747802734 107.20516204833984 C 98.89505767822266 106.91441345214844 104.09537506103516 105.58782958984375 104.26524353027344 104.88353729248047" stroke-width="1.0892857313156128" fill="none" stroke="rgb(100, 35, 89)" stroke-opacity="0.0" stroke-linecap="round" stroke-linejoin="round"/>
    <path d="M 58.00928497314453 12.134121894836426 C 57.7993278503418 6.022309303283691 55.822662353515625 4.813527584075928 59.98994827270508 8.502306938171387 C 57.07086181640625 13.370654106140137 57.95743942260742 15.227994918823242 58.53089904785156 11.73355484008789" stroke-width="1.0892857313156128" fill="none" stroke="rgb(44, 147, 255)" stroke-opacity="0.5325798" stroke-linecap="round" stroke-linejoin="round"/>
    <path d="M 15.101536750793457 48.48970413208008 C 16.65155792236328 54.391571044921875 15.002814292907715 55.75850296020508 16.93882179260254 63.629791259765625 C 12.603721618652344 65.23998260498047 8.26780891418457 66.17219543457031 10.301924705505371 66.21223449707031" stroke-width="1.6988704204559326" fill="none" stroke="rgb(0, 243, 208)" stroke-opacity="0.8454082" stroke-linecap="round" stroke-linejoin="round"/>
    <path d="M 116.63182830810547 2.1972732543945312 C 111.40198516845703 1.7888542413711548 106.46521759033203 2.018190860748291 105.95813751220703 -3.649453639984131 C 102.3095474243164 -10.164031982421875 103.36341857910156 -6.052465915679932 108.14297485351562 -5.9661335945129395" stroke-width="1.1060783863067627" fill="none" stroke="rgb(238, 134, 177)" stroke-opacity="0.06647179" stroke-linecap="round" stroke-linejoin="round"/>
    <path d="M 49.50395584106445 39.601226806640625 C 43.38395690917969 33.63672637939453 45.471771240234375 35.39174270629883 46.295318603515625 39.874267578125" stroke-width="1.6361205577850342" fill="none" stroke="rgb(130, 186, 164)" stroke-opacity="0.9252049" stroke-linecap="round" stroke-linejoin="round"/>
    <path d="M 45.8220100402832 21.225505828857422 C 40.402652740478516 24.38373565673828 44.864898681640625 28.463298797607422 48.39680480957031 24.2561092376709 C 51.13105010986328 18.111968994140625 48.7780876159668 21.134586334228516 51.38254165649414 25.04707908630371" stroke-width="1.1711491346359253" fill="none" stroke="rgb(146, 180, 20)" stroke-opacity="0.5027997" stroke-linecap="round" stroke-linejoin="round"/>
    <path d="M 109.73062133789062 15.899975776672363 C 113.46825408935547 15.338879585266113 111.60236358642578 16.884262084960938 112.1673355102539 11.307151794433594 C 115.10785675048828 10.025445938110352 116.42691802978516 16.798797607421875 119.64370727539062 13.759434700012207" stroke-width="1.0892857313156128" fill="none" stroke="rgb(41, 230, 72)" stroke-opacity="0.46248254" stroke-linecap="round" stroke-linejoin="round"/>
    <path d="M 87.39095306396484 39.695594787597656 C 86.63232421875 41.96895980834961 90.63378143310547 46.28266906738281 94.74663543701172 48.219383239746094 C 95.50061798095703 47.07980728149414 94.74459075927734 49.538814544677734 99.23406219482422 52.58037567138672 C 99.71958923339844 57.04585647583008 100.96446990966797 54.572208404541016 102.0521469116211 59.37413787841797" stroke-width="1.3269908428192139" fill="none" stroke="rgb(144, 76, 89)" stroke-opacity="0.8921841" stroke-linecap="round" stroke-linejoin="round"/>
    <path d="M 111.33131408691406 81.12759399414062 C 104.86743927001953 80.85041809082031 106.3981704711914 82.60497283935547 108.55699157714844 88.67884826660156 C 110.1500244140625 86.74185943603516 114.81615447998047 89.26016235351562 119.69332885742188 89.57854461669922 C 117.7271957397461 92.5987777709961 111.27501678466797 95.41625213623047 111.78260040283203 93.75220489501953" stroke-width="1.0892857313156128" fill="none" stroke="rgb(152, 62, 40)" stroke-opacity="0.20286423" stroke-linecap="round" stroke-linejoin="round"/>
    <path d="M 2.3316309452056885 27.473346710205078 C 1.410778284072876 23.27694320678711 -2.89483380317688 20.597095489501953 2.552705764770508 24.1694278717041" stroke-width="1.0892857313156128" fill="none" stroke="rgb(205, 211, 101)" stroke-opacity="0.5937669" stroke-linecap="round" stroke-linejoin="round"/>
    <path d="M 80.53203582763672 99.87997436523438 C 78.95612335205078 97.20891571044922 83.82451629638672 100.53591918945312 79.38329315185547 100.03285217285156 C 79.49500274658203 103.13150024414062 74.57365417480469 101.22601318359375 70.5174331665039 106.9517822265625 C 69.0724868774414 103.97453308105469 64.2364273071289 110.05741119384766 62.45890426635742 112.2761001586914" stroke-width="1.0892857313156128" fill="none" stroke="rgb(216, 225, 110)" stroke-opacity="0.3863938" stroke-linecap="round" stroke-linejoin="round"/>
    <path d="M 106.06660461425781 6.981213569641113 C 104.64989471435547 11.675409317016602 105.83890533447266 17.546005249023438 103.41484069824219 16.866750717163086" stroke-width="1.0892857313156128" fill="none" stroke="rgb(213, 181, 185)" stroke-opacity="0.9257527" stroke-linecap="round" stroke-linejoin="round"/>
    <path d="M 95.08385467529297 56.46369552612305 C 101.36811065673828 52.720977783203125 103.88380432128906 57.558250427246094 103.98302459716797 61.55734634399414 C 108.48530578613281 55.92987060546875 109.56063079833984 51.61646270751953 106.22045135498047 58.3079833984375" stroke-width="1.209659457206726" fill="none" stroke="rgb(38, 166, 141)" stroke-opacity="0.7066779" stroke-linecap="round" stroke-linejoin="round"/>
    <path d="M 61.41781234741211 12.378129005432129 C 61.01167678833008 7.7149338722229 63.129024505615234 13.646607398986816 64.8617172241211 18.64729118347168 C 64.61174011230469 16.63926124572754 66.0980453491211 22.744197845458984 67.07917022705078 22.099773406982422" stroke-width="1.1621297597885132" fill="none" stroke="rgb(9, 222, 30)" stroke-opacity="0.2600178" stroke-linecap="round" stroke-linejoin="round"/>
  </g>
</svg>
