<?xml version="1.0" ?>
<svg xmlns="http://www.w3.org/2000/svg" version="1.1" width="956.0" height="956.0">
  <defs/>
  <g>
    <path d="M 51.61724853515625 58.52538299560547 C 52.5745849609375 61.018028259277344 50.98986053466797 68.33243560791016 54.75938034057617 67.63842010498047 C 60.65142059326172 68.8553695678711 66.37244415283203 70.03012084960938 69.43531799316406 71.18000793457031 C 72.29350280761719 70.80964660644531 70.58822631835938 68.88746643066406 67.22306823730469 67.07833862304688 C 66.52935791015625 65.9856185913086 71.35057830810547 63.11552429199219 72.73932647705078 57.48798370361328" stroke-width="1.659034252166748" fill="none" stroke="rgb(95, 108, 64)" stroke-opacity="0.95597667" stroke-linecap="round" stroke-linejoin="round"/>
    <path d="M 81.66712951660156 17.618967056274414 C 70.89936828613281 13.776726722717285 57.16790771484375 11.323999404907227 45.18622970581055 20.00077247619629 C 31.70965003967285 28.32653045654297 17.2901611328125 46.871456146240234 26.007593154907227 51.28993606567383 C 35.446205139160156 59.74700927734375 67.00431823730469 57.965431213378906 98.33235931396484 55.724815368652344 C 129.88999938964844 53.05557632446289 108.19220733642578 34.38036346435547 85.70813751220703 17.860740661621094" stroke-width="1.4320226907730103" fill="none" stroke="rgb(214, 221, 45)" stroke-opacity="0.99441576" stroke-linecap="round" stroke-linejoin="round"/>
    <path d="M 71.73268127441406 22.821395874023438 C 78.64323425292969 22.70657730102539 85.19232940673828 23.12153434753418 84.38560485839844 24.221656799316406 C 82.2840576171875 25.515615463256836 73.51287841796875 27.38327407836914 74.07921600341797 27.964279174804688 C 73.98748016357422 27.95812225341797 83.2719955444336 27.287715911865234 84.55774688720703 28.783367156982422 C 84.65463256835938 28.349475860595703 75.0486068725586 31.6904239654541 75.08465576171875 32.665077209472656 C 75.27487182617188 33.421630859375 87.20278930664062 32.31083297729492 88.91468048095703 34.37284851074219 C 88.96981048583984 36.29265594482422 78.55574035644531 40.864418029785156 77.078125 39.900699615478516 C 75.88098907470703 40.681392669677734 85.78441619873047 38.02381896972656 86.35072326660156 38.76423645019531 C 86.54422760009766 38.38840103149414 78.34500122070312 42.29509735107422 79.00502014160156 42.92290496826172 C 79.7316665649414 44.18296813964844 88.64266967773438 41.92576217651367 88.74207305908203 42.75239562988281 C 89.792236328125 43.535125732421875 82.98063659667969 48.42510986328125 75.22602844238281 54.332008361816406 C 68.18328094482422 58.45885467529297 80.07740020751953 53.952720642089844 91.30298614501953 49.846614837646484" stroke-width="1.2246778011322021" fill="none" stroke="rgb(242, 231, 177)" stroke-opacity="0.9784977" stroke-linecap="round" stroke-linejoin="round"/>
    <path d="M 85.98179626464844 30.187108993530273 C 80.94205474853516 26.66408920288086 78.26785278320312 25.113746643066406 81.26406860351562 23.933589935302734 C 83.50967407226562 23.300790786743164 89.13133239746094 26.012765884399414 94.16925048828125 29.372251510620117 C 99.42501831054688 33.5650749206543 93.59716796875 35.177825927734375 86.15975189208984 36.92987060546875" stroke-width="1.7381302118301392" fill="none" stroke="rgb(51, 140, 28)" stroke-opacity="0.110873334" stroke-linecap="round" stroke-linejoin="round"/>
    <path d="M 75.11349487304688 51.996803283691406 C 78.66754150390625 56.97158432006836 79.74527740478516 55.989532470703125 83.8952865600586 55.73275375366211 C 85.96996307373047 56.87123107910156 92.0057373046875 52.25496292114258 92.38574981689453 59.429832458496094" stroke-width="1.598658561706543" fill="none" stroke="rgb(0, 118, 225)" stroke-opacity="0.50968516" stroke-linecap="round" stroke-linejoin="round"/>
    <path d="M 77.59385681152344 38.596832275390625 C 81.23799896240234 36.28535461425781 87.63168334960938 35.217525482177734 83.20391082763672 40.5418586730957" stroke-width="1.9676398038864136" fill="none" stroke="rgb(255, 18, 100)" stroke-opacity="0.7625103" stroke-linecap="round" stroke-linejoin="round"/>
    <path d="M 85.76123809814453 37.30323791503906 C 84.25668334960938 35.63478088378906 84.34794616699219 37.64854049682617 89.88034057617188 35.36776351928711" stroke-width="1.0892857313156128" fill="none" stroke="rgb(229, 157, 128)" stroke-opacity="0.7224603" stroke-linecap="round" stroke-linejoin="round"/>
    <path d="M 86.30081939697266 29.385419845581055 C 79.18521118164062 28.82201385498047 80.70164489746094 29.125905990600586 85.85830688476562 34.089088439941406 C 92.18511962890625 36.04278564453125 92.02213287353516 33.58272171020508 99.73725128173828 37.877601623535156 C 102.30587768554688 34.53725814819336 97.17281341552734 35.33955383300781 99.90057373046875 30.153654098510742" stroke-width="1.0892857313156128" fill="none" stroke="rgb(231, 107, 66)" stroke-opacity="0.49509066" stroke-linecap="round" stroke-linejoin="round"/>
    <path d="M 78.08038330078125 43.81209182739258 C 76.00827026367188 42.9080924987793 82.61758422851562 37.8891716003418 83.83529663085938 32.79938507080078 C 84.6040267944336 28.310867309570312 87.7935791015625 27.121583938598633 82.2361831665039 24.822420120239258 C 86.2298583984375 27.987699508666992 85.36617279052734 27.562292098999023 87.06446075439453 29.767534255981445" stroke-width="1.1046534776687622" fill="none" stroke="rgb(255, 165, 208)" stroke-opacity="0.32468045" stroke-linecap="round" stroke-linejoin="round"/>
    <path d="M 83.42124938964844 28.632532119750977 C 89.03914642333984 31.516799926757812 87.89120483398438 33.250797271728516 95.5410385131836 31.692773818969727 C 87.17033386230469 35.02688980102539 92.2120361328125 35.563514709472656 92.57939910888672 37.251129150390625 C 87.67959594726562 41.715736389160156 85.2694091796875 36.342124938964844 90.67121124267578 33.95107650756836" stroke-width="1.1967878341674805" fill="none" stroke="rgb(15, 203, 132)" stroke-opacity="0.060937278" stroke-linecap="round" stroke-linejoin="round"/>
    <path d="M 85.92131805419922 17.82602310180664 C 79.8769760131836 15.917754173278809 75.87610626220703 14.379273414611816 82.28483581542969 18.123126983642578 C 82.85057067871094 21.615276336669922 75.36386108398438 17.520784378051758 72.02092742919922 21.0029296875" stroke-width="1.0892857313156128" fill="none" stroke="rgb(163, 218, 108)" stroke-opacity="0.7393707" stroke-linecap="round" stroke-linejoin="round"/>
    <path d="M 88.55414581298828 33.34916687011719 C 87.72272491455078 29.391103744506836 85.7874526977539 34.10955047607422 83.17191314697266 33.28740692138672" stroke-width="1.3744208812713623" fill="none" stroke="rgb(49, 231, 103)" stroke-opacity="0.09556253" stroke-linecap="round" stroke-linejoin="round"/>
    <path d="M 89.27723693847656 36.774009704589844 C 93.24827575683594 42.458133697509766 88.49517822265625 44.326995849609375 82.03213500976562 43.286678314208984" stroke-width="1.9092718362808228" fill="none" stroke="rgb(21, 235, 188)" stroke-opacity="1.0" stroke-linecap="round" stroke-linejoin="round"/>
    <path d="M 91.283203125 35.65528106689453 C 95.7320556640625 39.208702087402344 97.51068115234375 38.84342575073242 100.42779541015625 34.53402328491211 C 100.05415344238281 27.670059204101562 96.19587707519531 31.4573974609375 98.7431869506836 32.95511245727539" stroke-width="1.0892857313156128" fill="none" stroke="rgb(90, 116, 191)" stroke-opacity="0.40890324" stroke-linecap="round" stroke-linejoin="round"/>
    <path d="M 71.33348083496094 20.062646865844727 C 75.21729278564453 19.951862335205078 79.44013214111328 22.983287811279297 75.66603088378906 27.68587303161621 C 71.6376724243164 30.726856231689453 72.241943359375 35.71791076660156 69.34407806396484 41.97970962524414" stroke-width="1.8429148197174072" fill="none" stroke="rgb(96, 68, 79)" stroke-opacity="0.5315463" stroke-linecap="round" stroke-linejoin="round"/>
    <path d="M 91.90364074707031 60.392547607421875 C 88.77125549316406 59.13984298706055 92.38446807861328 54.419952392578125 90.7335433959961 51.59519958496094 C 91.5414047241211 46.88010787963867 91.69335174560547 42.2009162902832 90.04871368408203 40.27338409423828" stroke-width="1.7868175506591797" fill="none" stroke="rgb(158, 207, 86)" stroke-opacity="0.41321936" stroke-linecap="round" stroke-linejoin="round"/>
    <path d="M 85.38975524902344 40.337501525878906 C 84.61830139160156 38.909114837646484 85.51927947998047 38.737918853759766 89.77212524414062 36.22956848144531 C 88.9000015258789 38.91516876220703 90.0239028930664 33.297767639160156 98.40655517578125 36.39723587036133 C 97.00298309326172 36.455223083496094 98.58326721191406 43.393795013427734 97.68643951416016 45.267005920410156" stroke-width="1.0892857313156128" fill="none" stroke="rgb(15, 243, 108)" stroke-opacity="0.6864868" stroke-linecap="round" stroke-linejoin="round"/>
    <path d="M 91.43352508544922 34.679805755615234 C 94.09817504882812 34.45164108276367 87.28832244873047 38.440406799316406 81.2249526977539 38.884033203125 C 81.5584945678711 38.47651672363281 84.15092468261719 37.76846694946289 87.01757049560547 36.366859436035156" stroke-width="1.0892857313156128" fill="none" stroke="rgb(46, 141, 50)" stroke-opacity="0.0" stroke-linecap="round" stroke-linejoin="round"/>
    <path d="M 90.8945083618164 36.13675308227539 C 89.3118667602539 30.23622703552246 90.3678207397461 27.764036178588867 87.96574401855469 33.630489349365234 C 85.67082214355469 38.68207550048828 90.47098541259766 39.156925201416016 91.88233184814453 37.98798751831055 C 93.28648376464844 31.709766387939453 92.42378234863281 34.07219314575195 97.61383819580078 38.156394958496094" stroke-width="1.0892857313156128" fill="none" stroke="rgb(56, 20, 215)" stroke-opacity="0.0" stroke-linecap="round" stroke-linejoin="round"/>
    <path d="M 98.90473175048828 29.189054489135742 C 104.73408508300781 34.136505126953125 109.33455657958984 32.743080139160156 108.67140197753906 34.00529861450195" stroke-width="1.0892857313156128" fill="none" stroke="rgb(97, 171, 231)" stroke-opacity="0.6926949" stroke-linecap="round" stroke-linejoin="round"/>
    <path d="M 37.64814376831055 115.7486343383789 C 31.197216033935547 121.0592041015625 34.02677536010742 120.83428955078125 32.54502487182617 120.1531753540039 C 35.978878021240234 126.11542510986328 31.612457275390625 121.20323944091797 33.26216125488281 124.97261810302734 C 27.444915771484375 124.76577758789062 27.908306121826172 130.2628631591797 26.308486938476562 130.16493225097656" stroke-width="1.7083326578140259" fill="none" stroke="rgb(144, 105, 83)" stroke-opacity="0.29861015" stroke-linecap="round" stroke-linejoin="round"/>
    <path d="M 70.35918426513672 53.5677375793457 C 68.6894302368164 55.996124267578125 73.73833465576172 49.96073913574219 70.89677429199219 46.52208709716797 C 66.78602600097656 42.642059326171875 71.18186950683594 37.92650604248047 73.25712585449219 43.01436233520508 C 73.64254760742188 38.390865325927734 69.91972351074219 40.495147705078125 68.78805541992188 40.746620178222656" stroke-width="1.5740021467208862" fill="none" stroke="rgb(237, 247, 136)" stroke-opacity="0.89150816" stroke-linecap="round" stroke-linejoin="round"/>
    <path d="M 85.24053192138672 8.06164264678955 C 88.09304809570312 6.748676776885986 82.8044204711914 12.413074493408203 81.20966339111328 16.866540908813477 C 79.34412384033203 22.89157485961914 84.27168273925781 24.768077850341797 80.53706359863281 23.97705078125 C 81.0824203491211 19.838916778564453 83.1656265258789 20.54693603515625 86.63996887207031 24.83744239807129" stroke-width="1.886945366859436" fill="none" stroke="rgb(85, 226, 210)" stroke-opacity="0.39384374" stroke-linecap="round" stroke-linejoin="round"/>
    <path d="M 26.750417709350586 96.68385314941406 C 28.204160690307617 95.11345672607422 24.411649703979492 103.21595764160156 25.21042251586914 106.77912139892578 C 25.018821716308594 101.28740692138672 27.562620162963867 98.2087173461914 28.95240592956543 103.45294189453125" stroke-width="1.9510351419448853" fill="none" stroke="rgb(11, 232, 188)" stroke-opacity="0.9492747" stroke-linecap="round" stroke-linejoin="round"/>
    <path d="M 115.83955383300781 65.97881317138672 C 117.50019073486328 72.47640991210938 116.13679504394531 69.88478088378906 118.94290924072266 61.60850524902344" stroke-width="1.530313491821289" fill="none" stroke="rgb(100, 66, 164)" stroke-opacity="0.13581377" stroke-linecap="round" stroke-linejoin="round"/>
    <path d="M 17.98937225341797 28.603050231933594 C 17.25250244140625 21.820268630981445 18.66504669189453 25.589895248413086 17.429479598999023 21.650455474853516 C 22.70307731628418 23.62113380432129 16.747211456298828 18.969799041748047 12.825606346130371 22.362092971801758 C 14.745529174804688 20.511917114257812 12.617732048034668 24.2386417388916 17.96758460998535 20.326797485351562" stroke-width="1.0892857313156128" fill="none" stroke="rgb(82, 102, 24)" stroke-opacity="0.35390434" stroke-linecap="round" stroke-linejoin="round"/>
    <path d="M 71.36511993408203 111.82603454589844 C 66.30223846435547 110.5837173461914 64.57826232910156 111.37196350097656 59.112003326416016 114.25651550292969" stroke-width="1.0892857313156128" fill="none" stroke="rgb(9, 255, 79)" stroke-opacity="0.8390791" stroke-linecap="round" stroke-linejoin="round"/>
    <path d="M 23.171865463256836 24.264806747436523 C 24.410486221313477 30.275352478027344 22.68871307373047 29.219282150268555 20.387367248535156 31.07245445251465 C 16.14649200439453 31.035335540771484 19.433805465698242 27.9588680267334 17.890419006347656 24.591915130615234" stroke-width="1.4228429794311523" fill="none" stroke="rgb(175, 89, 112)" stroke-opacity="0.25548393" stroke-linecap="round" stroke-linejoin="round"/>
    <path d="M 9.261529922485352 1.0881329774856567 C 11.66551399230957 -0.02296517975628376 15.069025993347168 -1.7332851886749268 12.561385154724121 1.5731579065322876 C 8.979336738586426 0.28102907538414 11.498004913330078 3.9658923149108887 8.19141960144043 1.6222000122070312" stroke-width="1.7037478685379028" fill="none" stroke="rgb(120, 38, 255)" stroke-opacity="0.11868739" stroke-linecap="round" stroke-linejoin="round"/>
    <path d="M 112.59807586669922 111.8545913696289 C 111.27713775634766 119.84994506835938 115.41557312011719 118.10287475585938 109.00616455078125 115.511474609375 C 110.12310028076172 118.89800262451172 106.53608703613281 124.39324188232422 106.70613861083984 120.65958404541016 C 111.50799560546875 124.91595458984375 106.00920104980469 127.9867935180664 105.54762268066406 128.2130889892578" stroke-width="1.8535900115966797" fill="none" stroke="rgb(225, 252, 107)" stroke-opacity="0.09916976" stroke-linecap="round" stroke-linejoin="round"/>
    <path d="M 47.62599182128906 26.027164459228516 C 48.267913818359375 21.085420608520508 53.65183639526367 19.973125457763672 53.838218688964844 25.687969207763672 C 46.24248504638672 24.479244232177734 45.48417663574219 27.024534225463867 51.07146072387695 27.282135009765625" stroke-width="1.5990540981292725" fill="none" stroke="rgb(90, 222, 159)" stroke-opacity="0.451418" stroke-linecap="round" stroke-linejoin="round"/>
    <path d="M 90.2436752319336 45.52997970581055 C 84.2831039428711 48.40815734863281 79.76148223876953 45.00429916381836 84.1751708984375 47.482765197753906 C 82.05387115478516 51.7431755065918 77.84677124023438 53.40640640258789 71.5129165649414 50.0908203125 C 72.9577865600586 46.87612533569336 67.66327667236328 53.30314636230469 63.70027160644531 55.4417839050293" stroke-width="1.565433382987976" fill="none" stroke="rgb(236, 211, 6)" stroke-opacity="0.7393877" stroke-linecap="round" stroke-linejoin="round"/>
    <path d="M 19.115270614624023 59.82057189941406 C 18.957544326782227 60.26881408691406 19.735307693481445 58.217018127441406 18.44375228881836 60.8198356628418" stroke-width="1.5044217109680176" fill="none" stroke="rgb(226, 239, 236)" stroke-opacity="0.2958341" stroke-linecap="round" stroke-linejoin="round"/>
    <path d="M 29.534013748168945 1.348829984664917 C 32.54884719848633 8.587854385375977 33.695804595947266 6.020871162414551 35.0381965637207 -0.4055134356021881 C 39.106178283691406 -4.512910842895508 38.48123550415039 1.1941843032836914 35.63709259033203 -3.3958816528320312 C 36.29644012451172 -8.541482925415039 35.38991165161133 -11.365894317626953 35.630218505859375 -7.135617733001709" stroke-width="1.0892857313156128" fill="none" stroke="rgb(33, 207, 125)" stroke-opacity="0.6533645" stroke-linecap="round" stroke-linejoin="round"/>
    <path d="M 68.8504867553711 1.1008105278015137 C 67.40773010253906 -0.9264256358146667 62.45939636230469 -3.55184006690979 61.74211502075195 -1.76656973361969 C 58.76414108276367 -3.622936487197876 55.79310989379883 -5.9794087409973145 54.70920944213867 -7.002435684204102" stroke-width="1.0892857313156128" fill="none" stroke="rgb(47, 133, 65)" stroke-opacity="0.860537" stroke-linecap="round" stroke-linejoin="round"/>
    <path d="M 22.453161239624023 34.37382125854492 C 22.859439849853516 37.217472076416016 20.07236099243164 36.91987228393555 15.25929069519043 42.62318801879883 C 16.011825561523438 37.79428482055664 13.656686782836914 33.40789794921875 13.563765525817871 27.779422760009766" stroke-width="1.5790165662765503" fill="none" stroke="rgb(17, 109, 240)" stroke-opacity="0.07537713" stroke-linecap="round" stroke-linejoin="round"/>
  </g>
</svg>
