<?xml version="1.0" ?>
<svg xmlns="http://www.w3.org/2000/svg" version="1.1" width="925.0" height="925.0">
  <defs/>
  <g>
    <path d="M 48.72425079345703 51.715553283691406 C 53.14494705200195 54.97259521484375 55.122013092041016 50.37944412231445 49.931915283203125 49.45560073852539 C 45.86970138549805 44.5596809387207 46.201026916503906 46.708248138427734 47.52421188354492 46.32191848754883" stroke-width="1.5198707580566406" fill="none" stroke="rgb(217, 236, 176)" stroke-opacity="0.29401538" stroke-linecap="round" stroke-linejoin="round"/>
    <path d="M 24.664201736450195 60.265621185302734 C 23.794649124145508 61.56169509887695 29.54458236694336 59.22917938232422 31.86452865600586 53.19609451293945" stroke-width="1.4076482057571411" fill="none" stroke="rgb(93, 26, 126)" stroke-opacity="0.14314196" stroke-linecap="round" stroke-linejoin="round"/>
    <path d="M 53.77840042114258 101.54954528808594 C 51.95402145385742 105.03927612304688 56.174156188964844 105.48003387451172 53.495338439941406 107.26313781738281 C 59.55257797241211 107.58631134033203 54.02394104003906 101.53114318847656 60.11804962158203 101.88572692871094 C 65.43321990966797 101.77754974365234 62.17878723144531 106.40464782714844 58.24267578125 106.16844177246094" stroke-width="1.0892857313156128" fill="none" stroke="rgb(167, 211, 102)" stroke-opacity="0.12662652" stroke-linecap="round" stroke-linejoin="round"/>
    <path d="M 71.00777435302734 56.94158172607422 C 72.78838348388672 61.09268569946289 67.13742065429688 61.070892333984375 67.12653350830078 65.96784973144531 C 64.63105773925781 63.124122619628906 67.05510711669922 67.92719268798828 64.82848358154297 68.03883361816406 C 62.78131103515625 64.54447174072266 64.19386291503906 67.92007446289062 67.60075378417969 72.0966567993164" stroke-width="1.2641257047653198" fill="none" stroke="rgb(101, 208, 217)" stroke-opacity="0.24803266" stroke-linecap="round" stroke-linejoin="round"/>
    <path d="M 31.517995834350586 42.30281448364258 C 27.092897415161133 37.578765869140625 30.151845932006836 39.69486618041992 28.83068084716797 39.914852142333984 C 32.877685546875 34.498069763183594 32.44681930541992 39.317848205566406 32.827369689941406 36.49296188354492 C 35.473472595214844 34.207115173339844 37.913936614990234 28.24502944946289 34.64244842529297 28.610443115234375" stroke-width="1.0892857313156128" fill="none" stroke="rgb(63, 52, 196)" stroke-opacity="0.7601487" stroke-linecap="round" stroke-linejoin="round"/>
    <path d="M 69.82345581054688 94.4149169921875 C 73.48164367675781 94.01657104492188 76.82675170898438 98.14661407470703 76.1127700805664 93.47759246826172" stroke-width="1.3534352779388428" fill="none" stroke="rgb(222, 162, 237)" stroke-opacity="0.8171339" stroke-linecap="round" stroke-linejoin="round"/>
    <path d="M 30.05414581298828 70.95359802246094 C 31.258684158325195 66.45050048828125 34.8702392578125 64.19900512695312 40.61655044555664 59.81779098510742 C 42.066070556640625 54.055328369140625 46.49413299560547 61.14625549316406 48.79255294799805 67.4844970703125" stroke-width="1.6780787706375122" fill="none" stroke="rgb(232, 24, 169)" stroke-opacity="1.0" stroke-linecap="round" stroke-linejoin="round"/>
    <path d="M 30.37772560119629 107.83213806152344 C 28.197908401489258 108.23131561279297 34.11677169799805 106.79381561279297 35.01865005493164 112.16307830810547 C 33.383216857910156 109.57005310058594 35.659812927246094 113.96918487548828 34.86679458618164 113.86274719238281 C 35.47580337524414 119.33348846435547 30.555940628051758 118.01295471191406 27.33249855041504 114.74375915527344" stroke-width="1.0892857313156128" fill="none" stroke="rgb(207, 145, 231)" stroke-opacity="0.41265061" stroke-linecap="round" stroke-linejoin="round"/>
    <path d="M 74.52767181396484 34.02490997314453 C 70.819091796875 39.31671905517578 69.62618255615234 33.851837158203125 65.52909851074219 37.19643020629883 C 67.21676635742188 40.207374572753906 61.42374038696289 43.27938461303711 64.80651092529297 37.559810638427734 C 60.10561752319336 40.14412307739258 62.74912643432617 36.0638427734375 57.853363037109375 44.35396194458008" stroke-width="1.0892857313156128" fill="none" stroke="rgb(252, 137, 158)" stroke-opacity="0.15053913" stroke-linecap="round" stroke-linejoin="round"/>
    <path d="M 75.24883270263672 80.71504211425781 C 77.34122467041016 74.70520782470703 82.4842758178711 77.97967529296875 80.6439208984375 77.2055435180664 C 76.91747283935547 75.16546630859375 79.69558715820312 76.03784942626953 72.00337982177734 73.74116516113281" stroke-width="1.0892857313156128" fill="none" stroke="rgb(18, 110, 147)" stroke-opacity="0.66363376" stroke-linecap="round" stroke-linejoin="round"/>
    <path d="M 77.46733856201172 76.71993255615234 C 75.7309799194336 73.10430145263672 71.67608642578125 75.16900634765625 69.86051177978516 80.14311218261719 C 69.45032501220703 82.5985107421875 63.508541107177734 80.46158599853516 55.887393951416016 76.57846069335938 C 52.75114440917969 83.2250747680664 46.267642974853516 88.80205535888672 51.29037857055664 85.36131286621094" stroke-width="1.0892857313156128" fill="none" stroke="rgb(50, 22, 53)" stroke-opacity="0.3866007" stroke-linecap="round" stroke-linejoin="round"/>
    <path d="M 57.564876556396484 99.46814727783203 C 62.93354415893555 95.16861724853516 61.49704360961914 92.40483093261719 65.94384765625 86.47047424316406 C 59.20775604248047 87.87598419189453 59.603233337402344 84.23323059082031 56.91502380371094 82.91322326660156 C 63.620304107666016 87.27558135986328 67.96945190429688 81.92048645019531 70.240234375 83.12091064453125" stroke-width="1.0892857313156128" fill="none" stroke="rgb(190, 95, 255)" stroke-opacity="0.64713854" stroke-linecap="round" stroke-linejoin="round"/>
    <path d="M 20.392393112182617 25.68866539001465 C 19.488243103027344 22.421035766601562 17.273693084716797 29.739925384521484 22.050033569335938 25.00467872619629" stroke-width="1.687547206878662" fill="none" stroke="rgb(7, 248, 41)" stroke-opacity="0.8039882" stroke-linecap="round" stroke-linejoin="round"/>
    <path d="M 18.78415298461914 107.40572357177734 C 16.419940948486328 112.26335144042969 16.06227684020996 115.94408416748047 19.968856811523438 118.17742156982422 C 20.86381721496582 114.37944793701172 23.43347930908203 114.64730072021484 24.762929916381836 112.34204864501953" stroke-width="1.2165906429290771" fill="none" stroke="rgb(118, 50, 77)" stroke-opacity="0.36585802" stroke-linecap="round" stroke-linejoin="round"/>
    <path d="M 89.92316436767578 71.3072509765625 C 91.70397186279297 69.03424835205078 92.20333862304688 67.30143737792969 93.97843170166016 67.42465209960938" stroke-width="1.0892857313156128" fill="none" stroke="rgb(197, 228, 48)" stroke-opacity="0.5486061" stroke-linecap="round" stroke-linejoin="round"/>
    <path d="M 80.1187515258789 26.124479293823242 C 83.89983367919922 34.269752502441406 81.99508666992188 30.88101577758789 75.79754638671875 33.890777587890625" stroke-width="1.3590342998504639" fill="none" stroke="rgb(139, 143, 140)" stroke-opacity="0.57507616" stroke-linecap="round" stroke-linejoin="round"/>
    <path d="M 97.21939849853516 10.707866668701172 C 97.07649230957031 15.446270942687988 95.8280029296875 19.713214874267578 97.38980102539062 17.417551040649414 C 95.83438110351562 19.583721160888672 97.84231567382812 27.716428756713867 97.52920532226562 25.66468048095703" stroke-width="1.0892857313156128" fill="none" stroke="rgb(0, 139, 108)" stroke-opacity="0.83194226" stroke-linecap="round" stroke-linejoin="round"/>
    <path d="M 48.6431770324707 3.3769612312316895 C 43.8145637512207 -0.16272662580013275 48.06809997558594 4.042952537536621 43.866947174072266 11.055999755859375 C 45.15482711791992 10.317961692810059 47.29262161254883 6.590376377105713 48.6593132019043 4.505349159240723 C 48.21580505371094 7.296626567840576 48.12928009033203 8.335278511047363 46.11701202392578 3.195399045944214" stroke-width="1.2183382511138916" fill="none" stroke="rgb(247, 130, 237)" stroke-opacity="0.6109039" stroke-linecap="round" stroke-linejoin="round"/>
    <path d="M 100.41398620605469 27.13425064086914 C 105.06674194335938 32.239349365234375 101.03021240234375 27.267019271850586 104.37887573242188 21.55436134338379 C 102.67809295654297 27.1524715423584 103.35458374023438 31.86721420288086 109.0465316772461 29.903263092041016 C 103.56973266601562 30.110071182250977 103.02320861816406 30.777048110961914 102.35758209228516 32.562774658203125" stroke-width="1.3741531372070312" fill="none" stroke="rgb(188, 254, 201)" stroke-opacity="0.11886142" stroke-linecap="round" stroke-linejoin="round"/>
    <path d="M 73.84490203857422 121.79714965820312 C 76.56150817871094 122.44076538085938 80.48237609863281 120.11817932128906 87.68331909179688 116.14414978027344" stroke-width="1.0892857313156128" fill="none" stroke="rgb(12, 207, 132)" stroke-opacity="0.24550085" stroke-linecap="round" stroke-linejoin="round"/>
    <path d="M 92.79781341552734 69.00712585449219 C 98.07989501953125 63.67343521118164 101.68388366699219 61.64961242675781 100.31182098388672 57.994327545166016" stroke-width="1.7165578603744507" fill="none" stroke="rgb(71, 0, 233)" stroke-opacity="1.0" stroke-linecap="round" stroke-linejoin="round"/>
    <path d="M 87.68568420410156 46.63461685180664 C 88.26519012451172 43.69664001464844 87.29890441894531 42.20807647705078 85.4384536743164 35.675994873046875" stroke-width="1.3149532079696655" fill="none" stroke="rgb(8, 0, 177)" stroke-opacity="0.07287758" stroke-linecap="round" stroke-linejoin="round"/>
    <path d="M 0.3046094477176666 106.59893798828125 C -4.69698429107666 102.12702941894531 -8.470638275146484 98.9925537109375 -5.646530628204346 100.66858673095703 C -5.058780193328857 106.91942596435547 -5.914773464202881 105.8175048828125 -1.5460360050201416 105.29629516601562" stroke-width="1.1453543901443481" fill="none" stroke="rgb(162, 209, 143)" stroke-opacity="0.8852966" stroke-linecap="round" stroke-linejoin="round"/>
    <path d="M 75.46275329589844 15.536104202270508 C 72.53021240234375 13.877730369567871 74.4632797241211 14.983013153076172 71.39126586914062 6.869019508361816" stroke-width="1.2511709928512573" fill="none" stroke="rgb(173, 116, 161)" stroke-opacity="0.73443484" stroke-linecap="round" stroke-linejoin="round"/>
    <path d="M 90.3714599609375 102.75446319580078 C 91.76394653320312 95.3723373413086 94.47557830810547 101.26710510253906 99.478515625 99.30644989013672 C 96.56906127929688 100.3316421508789 97.68557739257812 101.05812072753906 103.02669525146484 103.74895477294922 C 99.2031478881836 101.48469543457031 96.99553680419922 99.37367248535156 92.65985870361328 98.82796478271484" stroke-width="1.0892857313156128" fill="none" stroke="rgb(101, 117, 165)" stroke-opacity="0.14367096" stroke-linecap="round" stroke-linejoin="round"/>
    <path d="M 78.78203582763672 61.50605010986328 C 82.15899658203125 54.71475601196289 76.75965881347656 55.718692779541016 76.36833953857422 53.87628173828125 C 77.47967529296875 56.913082122802734 73.84471893310547 53.3945198059082 77.4900894165039 49.94482421875" stroke-width="1.0892857313156128" fill="none" stroke="rgb(37, 128, 105)" stroke-opacity="0.63893366" stroke-linecap="round" stroke-linejoin="round"/>
    <path d="M 113.75286865234375 30.021854400634766 C 108.10391998291016 30.815135955810547 103.23013305664062 30.39129638671875 106.1683349609375 32.18067932128906 C 99.3525619506836 31.58515739440918 96.29652404785156 34.26163864135742 91.33184814453125 32.07856369018555" stroke-width="1.0892857313156128" fill="none" stroke="rgb(37, 220, 171)" stroke-opacity="0.8382276" stroke-linecap="round" stroke-linejoin="round"/>
    <path d="M 117.19661712646484 31.953943252563477 C 114.39413452148438 34.38133239746094 115.89128875732422 30.44428062438965 117.1353988647461 30.035367965698242 C 119.09686279296875 26.530223846435547 116.31804656982422 31.732372283935547 114.36651611328125 37.98067092895508" stroke-width="1.375350832939148" fill="none" stroke="rgb(202, 26, 255)" stroke-opacity="0.43857208" stroke-linecap="round" stroke-linejoin="round"/>
    <path d="M 13.868307113647461 102.75642395019531 C 15.832469940185547 100.50659942626953 16.63187026977539 105.92581939697266 11.406519889831543 110.13905334472656 C 9.48896312713623 106.60331726074219 8.537795066833496 107.57768249511719 5.194068431854248 101.90495300292969" stroke-width="1.0892857313156128" fill="none" stroke="rgb(204, 15, 255)" stroke-opacity="0.9274959" stroke-linecap="round" stroke-linejoin="round"/>
    <path d="M 64.94559478759766 42.92085647583008 C 70.803955078125 36.24071502685547 70.69200134277344 37.2557258605957 72.70560455322266 34.295501708984375 C 72.77972412109375 38.757911682128906 78.17627716064453 44.65779495239258 81.22895812988281 47.67211151123047 C 83.7773208618164 44.161930084228516 87.035888671875 40.226722717285156 88.0889892578125 39.95419692993164" stroke-width="1.0892857313156128" fill="none" stroke="rgb(48, 212, 109)" stroke-opacity="0.4908292" stroke-linecap="round" stroke-linejoin="round"/>
    <path d="M 51.68710708618164 41.468971252441406 C 49.05501937866211 35.33915328979492 50.36448669433594 32.477535247802734 54.6370964050293 35.02061462402344 C 54.31956481933594 38.196136474609375 59.72810745239258 33.91384506225586 66.14160919189453 29.15413475036621 C 67.79606628417969 31.966445922851562 63.410804748535156 30.872718811035156 59.63644027709961 31.87299346923828" stroke-width="1.367542028427124" fill="none" stroke="rgb(167, 235, 18)" stroke-opacity="0.32777637" stroke-linecap="round" stroke-linejoin="round"/>
    <path d="M 50.132713317871094 29.914344787597656 C 50.06584167480469 37.036258697509766 54.00157165527344 42.33765411376953 51.88880157470703 43.046905517578125" stroke-width="1.0892857313156128" fill="none" stroke="rgb(158, 229, 71)" stroke-opacity="0.56872654" stroke-linecap="round" stroke-linejoin="round"/>
  </g>
</svg>
