<?xml version="1.0" ?>
<svg xmlns="http://www.w3.org/2000/svg" version="1.1" width="956.0" height="956.0">
  <defs/>
  <g>
    <path d="M 43.671356201171875 57.92295455932617 C 43.96158218383789 58.47221755981445 44.25143814086914 59.02287292480469 43.67096710205078 59.23365020751953 C 44.178768157958984 59.98860168457031 43.81652069091797 59.86312484741211 43.126773834228516 60.909881591796875 C 42.9815673828125 61.956119537353516 43.05354309082031 64.1768798828125 43.671104431152344 65.99615478515625 C 43.74457931518555 68.61698150634766 43.70798110961914 79.62142181396484 43.126739501953125 90.62796020507812" stroke-width="1.0892857313156128" fill="none" stroke="rgb(18, 28, 23)" stroke-opacity="0.71" stroke-linecap="round" stroke-linejoin="round"/>
    <path d="M 75.19078063964844 54.85948181152344 C 75.19080352783203 55.35994338989258 75.19078826904297 55.58808135986328 75.19078826904297 56.56896209716797 C 75.19078826904297 57.549842834472656 75.73524475097656 59.28468322753906 75.73542785644531 61.018306732177734 C 75.73542022705078 62.751922607421875 75.19078826904297 70.76366424560547 75.19078063964844 79.04650115966797" stroke-width="1.0892857313156128" fill="none" stroke="rgb(23, 18, 28)" stroke-opacity="0.71" stroke-linecap="round" stroke-linejoin="round"/>
    <path d="M 56.17708969116211 65.77532958984375 C 56.1771125793457 65.52986145019531 56.17710494995117 65.55792236328125 56.17709732055664 66.36311340332031 C 56.17714309692383 67.16831970214844 56.1771125793457 68.75187683105469 56.177085876464844 70.06484985351562 C 56.177101135253906 71.64712524414062 55.905033111572266 79.03157043457031 56.17759704589844 86.95941162109375" stroke-width="1.0892857313156128" fill="none" stroke="rgb(28, 23, 23)" stroke-opacity="0.7099999" stroke-linecap="round" stroke-linejoin="round"/>
    <path d="M 43.67052459716797 61.18195343017578 C 43.53866958618164 61.362369537353516 43.9450569152832 61.54641342163086 44.35289001464844 61.18401336669922 C 44.76155090332031 61.36574935913086 47.93843460083008 59.02334976196289 51.659934997558594 56.68095779418945" stroke-width="1.1787583827972412" fill="none" stroke="rgb(185, 66, 8)" stroke-opacity="0.71" stroke-linecap="round" stroke-linejoin="round"/>
    <path d="M 43.67137145996094 57.922916412353516 C 43.72580337524414 59.74478530883789 44.32481002807617 61.02338409423828 45.46842956542969 61.75615310668945 C 46.06725311279297 63.57807159423828 49.53297805786133 66.59029388427734 53.54311752319336 69.60125732421875" stroke-width="1.0892857313156128" fill="none" stroke="rgb(78, 88, 255)" stroke-opacity="0.69" stroke-linecap="round" stroke-linejoin="round"/>
    <path d="M 75.19081115722656 56.841270446777344 C 79.61939239501953 59.43618392944336 81.39572143554688 63.9563102722168 77.60689544677734 66.03761291503906" stroke-width="1.0892857313156128" fill="none" stroke="rgb(178, 54, 255)" stroke-opacity="0.7099999" stroke-linecap="round" stroke-linejoin="round"/>
    <path d="M 74.64667510986328 61.01805877685547 C 73.76338958740234 63.30433654785156 72.8801040649414 65.59060668945312 71.996826171875 67.87688446044922 C 71.65817260742188 70.1632080078125 66.9863052368164 71.17820739746094 62.860260009765625 72.19202423095703" stroke-width="1.0892857313156128" fill="none" stroke="rgb(22, 127, 219)" stroke-opacity="0.69" stroke-linecap="round" stroke-linejoin="round"/>
    <path d="M 55.63297653198242 66.63543701171875 C 52.673255920410156 64.61506652832031 50.54362869262695 67.40231323242188 51.752662658691406 69.74470520019531" stroke-width="1.0892857313156128" fill="none" stroke="rgb(60, 5, 130)" stroke-opacity="0.69000006" stroke-linecap="round" stroke-linejoin="round"/>
    <path d="M 44.21549987792969 66.66958618164062 C 42.44526290893555 69.8927993774414 40.12923049926758 72.57148742675781 38.90361022949219 76.33931732177734 C 37.133331298828125 79.56255340576172 33.026466369628906 75.91352081298828 30.00737953186035 72.26573944091797" stroke-width="1.0892857313156128" fill="none" stroke="rgb(252, 52, 191)" stroke-opacity="0.69" stroke-linecap="round" stroke-linejoin="round"/>
    <path d="M 75.19080352783203 55.94820785522461 C 77.7069320678711 60.93510055541992 80.86019134521484 59.86027145385742 82.57423400878906 59.19049835205078" stroke-width="1.0892857313156128" fill="none" stroke="rgb(159, 235, 51)" stroke-opacity="0.69" stroke-linecap="round" stroke-linejoin="round"/>
    <path d="M 56.177085876464844 65.77532958984375 C 55.8903923034668 64.63948822021484 55.60508728027344 63.5048942565918 57.252418518066406 63.578826904296875 C 58.355281829833984 64.19860076904297 60.84770965576172 66.57275390625 63.34001159667969 69.49092864990234 C 65.8326644897461 71.32097625732422 65.54838562011719 71.43325805664062 65.26390075683594 72.08982849121094" stroke-width="1.0892857313156128" fill="none" stroke="rgb(19, 47, 22)" stroke-opacity="0.69" stroke-linecap="round" stroke-linejoin="round"/>
    <path d="M 54.08773422241211 69.05663299560547 C 49.1760139465332 62.86513137817383 44.2642936706543 56.67485809326172 41.20037841796875 57.76725387573242 C 38.681060791015625 57.77165222167969 38.55296325683594 65.05995178222656 38.424861907958984 72.34819030761719 C 38.841400146484375 79.63645935058594 32.93537902832031 70.58284759521484 27.02935791015625 61.52922439575195" stroke-width="1.0892857313156128" fill="none" stroke="rgb(225, 107, 219)" stroke-opacity="0.71" stroke-linecap="round" stroke-linejoin="round"/>
    <path d="M 64.72003936767578 72.0907974243164 C 65.25926971435547 76.80613708496094 65.25267791748047 81.52195739746094 65.20386505126953 84.09362030029297 C 65.69969177246094 86.12124633789062 65.06285095214844 84.9178695678711 64.42601776123047 84.25904846191406 C 63.78916549682617 84.1448745727539 60.18772888183594 86.71418762207031 56.04166030883789 88.74010467529297" stroke-width="1.0892857313156128" fill="none" stroke="rgb(12, 221, 166)" stroke-opacity="0.71" stroke-linecap="round" stroke-linejoin="round"/>
    <path d="M 82.57422637939453 59.73461151123047 C 85.0910873413086 55.418251037597656 85.44538879394531 56.61507034301758 84.76097106933594 52.57737731933594" stroke-width="1.0892857313156128" fill="none" stroke="rgb(225, 12, 9)" stroke-opacity="0.71" stroke-linecap="round" stroke-linejoin="round"/>
    <path d="M 53.543148040771484 69.6012191772461 C 52.24137496948242 71.28681182861328 50.938411712646484 73.51818084716797 49.63666915893555 75.74835968017578 C 48.879520416259766 78.52306365966797 45.544403076171875 78.2261734008789 42.212249755859375 78.47258758544922" stroke-width="1.0892857313156128" fill="none" stroke="rgb(65, 138, 127)" stroke-opacity="0.69" stroke-linecap="round" stroke-linejoin="round"/>
    <path d="M 53.54313659667969 69.60125732421875 C 55.19913101196289 69.75691986083984 56.309303283691406 70.45843505859375 56.87714767456055 71.1590805053711 C 58.532161712646484 71.85897827148438 52.32360076904297 68.63450622558594 45.570404052734375 65.41004943847656" stroke-width="1.1787582635879517" fill="none" stroke="rgb(143, 98, 150)" stroke-opacity="0.7099999" stroke-linecap="round" stroke-linejoin="round"/>
    <path d="M 64.71957397460938 72.09076690673828 C 60.27052307128906 72.50607299804688 56.362266540527344 71.8322525024414 51.91725540161133 71.70280456542969 C 47.467628479003906 72.11811065673828 47.00261306762695 72.22913360595703 45.99253463745117 71.79552459716797" stroke-width="1.1787586212158203" fill="none" stroke="rgb(22, 51, 69)" stroke-opacity="0.71" stroke-linecap="round" stroke-linejoin="round"/>
    <path d="M 51.11581802368164 56.68174362182617 C 50.59588623046875 58.572303771972656 50.62000274658203 60.46427917480469 50.37845230102539 60.31415557861328 C 50.13853454589844 60.164833068847656 49.6293830871582 58.51616287231445 49.12184143066406 55.78059768676758 C 49.158935546875 53.58824920654297 53.131256103515625 60.9753532409668 56.5577278137207 68.90580749511719" stroke-width="1.0892857313156128" fill="none" stroke="rgb(128, 112, 227)" stroke-opacity="0.69000036" stroke-linecap="round" stroke-linejoin="round"/>
    <path d="M 65.2641372680664 72.09077453613281 C 65.57524108886719 69.50672912597656 65.88634490966797 65.83740997314453 65.38227844238281 65.96076202392578 C 64.33402252197266 64.99649810791016 63.01397705078125 67.28275299072266 62.23854064941406 70.11486053466797 C 60.91850662231445 72.40231323242188 59.71071243286133 70.5560073852539 58.50291442871094 69.25550842285156" stroke-width="1.0892857313156128" fill="none" stroke="rgb(110, 84, 245)" stroke-opacity="0.69" stroke-linecap="round" stroke-linejoin="round"/>
    <path d="M 13.83750057220459 105.86283111572266 C 13.722818374633789 107.70672607421875 13.609357833862305 109.00603485107422 13.07133674621582 109.15487670898438 C 12.533315658569336 108.75908660888672 11.571958541870117 107.75746154785156 10.609378814697266 106.7558364868164 C 9.103386878967285 105.75422668457031 7.827261924743652 106.41302490234375 6.552362442016602 107.07182312011719" stroke-width="1.0892857313156128" fill="none" stroke="rgb(192, 240, 213)" stroke-opacity="0.69" stroke-linecap="round" stroke-linejoin="round"/>
    <path d="M 53.51670455932617 32.454345703125 C 51.90149688720703 27.51807403564453 50.28622055053711 22.583168029785156 48.67094039916992 17.647043228149414 C 47.0556526184082 13.2555513381958 44.527809143066406 15.948095321655273 41.45429229736328 18.6394100189209" stroke-width="1.0892857313156128" fill="none" stroke="rgb(65, 37, 100)" stroke-opacity="0.71" stroke-linecap="round" stroke-linejoin="round"/>
    <path d="M 45.08901596069336 7.629626274108887 C 42.99135971069336 6.798063278198242 41.43707275390625 5.423130989074707 43.03208541870117 5.5104899406433105 C 44.08251190185547 6.1424479484558105 47.73762893676758 8.782532691955566 50.84812545776367 11.967208862304688 C 54.50326919555664 14.062682151794434 47.98649597167969 12.931740760803223 40.923927307128906 11.799582481384277" stroke-width="1.0892857313156128" fill="none" stroke="rgb(83, 246, 113)" stroke-opacity="0.69" stroke-linecap="round" stroke-linejoin="round"/>
    <path d="M 52.4963493347168 98.64701843261719 C 56.93593978881836 98.27320861816406 51.82170104980469 97.2159423828125 52.61759948730469 97.38919067382812" stroke-width="1.0892857313156128" fill="none" stroke="rgb(39, 77, 43)" stroke-opacity="0.69" stroke-linecap="round" stroke-linejoin="round"/>
    <path d="M 33.15447998046875 18.282712936401367 C 33.360660552978516 20.087425231933594 33.56684112548828 21.347713470458984 33.77301025390625 22.6080265045166 C 33.97927474975586 23.868196487426758 34.577003479003906 24.88700294494629 35.71817398071289 25.905738830566406" stroke-width="1.0892857313156128" fill="none" stroke="rgb(134, 171, 95)" stroke-opacity="0.71" stroke-linecap="round" stroke-linejoin="round"/>
    <path d="M 15.44415283203125 82.92680358886719 C 17.278602600097656 77.05542755126953 15.397363662719727 74.19816589355469 13.928998947143555 67.18392181396484" stroke-width="1.0892857313156128" fill="none" stroke="rgb(79, 116, 47)" stroke-opacity="0.69000006" stroke-linecap="round" stroke-linejoin="round"/>
    <path d="M 59.28978729248047 63.41701889038086 C 58.94411849975586 61.1114616394043 59.686058044433594 59.89020538330078 59.88514709472656 57.58674240112305 C 60.083892822265625 55.824764251708984 57.72042465209961 55.633460998535156 55.902584075927734 54.8990364074707" stroke-width="1.0892857313156128" fill="none" stroke="rgb(169, 199, 45)" stroke-opacity="0.70999974" stroke-linecap="round" stroke-linejoin="round"/>
    <path d="M 71.76136779785156 15.84195327758789 C 76.91343688964844 19.754491806030273 74.3648452758789 14.873270034790039 77.13961029052734 19.362380981445312" stroke-width="1.0892857313156128" fill="none" stroke="rgb(139, 77, 97)" stroke-opacity="0.69" stroke-linecap="round" stroke-linejoin="round"/>
    <path d="M 37.83732986450195 63.46461486816406 C 39.05242919921875 62.84366989135742 40.268733978271484 62.22145080566406 41.48381423950195 61.600494384765625 C 42.15448760986328 60.97951889038086 47.4296989440918 61.928680419921875 52.7049674987793 62.879058837890625" stroke-width="1.0892857313156128" fill="none" stroke="rgb(161, 149, 64)" stroke-opacity="0.71" stroke-linecap="round" stroke-linejoin="round"/>
    <path d="M 79.76213073730469 119.95793914794922 C 80.93089294433594 117.52723693847656 82.0996322631836 115.639892578125 81.2218017578125 114.65290832519531 C 80.8874282836914 113.66597747802734 77.41877746582031 114.12393951416016 74.49424743652344 114.03732299804688 C 72.1143798828125 113.95069122314453 72.7719955444336 113.61604309082031 72.8862075805664 113.82696533203125" stroke-width="1.1787583827972412" fill="none" stroke="rgb(197, 69, 255)" stroke-opacity="0.6900001" stroke-linecap="round" stroke-linejoin="round"/>
    <path d="M 106.13609313964844 81.9825439453125 C 108.63394165039062 80.80695343017578 110.04254150390625 78.54336547851562 111.99452209472656 76.82315063476562 C 114.49237060546875 75.64757537841797 115.4988784790039 73.9517822265625 116.50537872314453 72.25593566894531" stroke-width="1.0892857313156128" fill="none" stroke="rgb(187, 198, 134)" stroke-opacity="0.69" stroke-linecap="round" stroke-linejoin="round"/>
    <path d="M 39.42648696899414 25.568939208984375 C 44.82011413574219 25.680038452148438 50.21373748779297 25.792280197143555 52.79819107055664 27.383886337280273 C 54.29340362548828 29.52012062072754 52.979461669921875 33.680294036865234 52.21014404296875 37.840511322021484 C 50.35161209106445 42.0007438659668 44.11738204956055 36.707618713378906 37.88197326660156 30.86990737915039" stroke-width="1.0892857313156128" fill="none" stroke="rgb(149, 6, 86)" stroke-opacity="0.69" stroke-linecap="round" stroke-linejoin="round"/>
    <path d="M 97.4501953125 22.27379608154297 C 92.80638885498047 25.47090721130371 94.2147445678711 29.097963333129883 90.4400863647461 24.7840518951416" stroke-width="1.0892857313156128" fill="none" stroke="rgb(104, 69, 210)" stroke-opacity="0.69" stroke-linecap="round" stroke-linejoin="round"/>
    <path d="M 29.74700164794922 2.5866568088531494 C 27.67544937133789 6.873243808746338 25.603885650634766 11.70565128326416 23.53232765197754 16.536855697631836 C 22.00538444519043 21.912660598754883 27.12328338623047 15.887081146240234 32.2411994934082 9.861515998840332" stroke-width="1.1787586212158203" fill="none" stroke="rgb(27, 26, 208)" stroke-opacity="0.71" stroke-linecap="round" stroke-linejoin="round"/>
    <path d="M 100.3708724975586 107.27556610107422 C 102.59127807617188 107.65863800048828 101.88490295410156 109.02381134033203 104.09920501708984 111.82981872558594" stroke-width="1.0892857313156128" fill="none" stroke="rgb(205, 212, 228)" stroke-opacity="0.71" stroke-linecap="round" stroke-linejoin="round"/>
    <path d="M 10.707683563232422 49.24628829956055 C 12.160713195800781 51.861228942871094 13.614951133728027 53.93156051635742 15.067962646484375 56.00191116333008 C 16.520999908447266 58.072242736816406 11.007864952087402 57.30975341796875 5.493409633636475 56.00385284423828" stroke-width="1.0892857313156128" fill="none" stroke="rgb(240, 4, 66)" stroke-opacity="0.71" stroke-linecap="round" stroke-linejoin="round"/>
    <path d="M 41.99874496459961 18.094818115234375 C 39.33870315551758 16.597736358642578 42.62226104736328 21.623857498168945 41.052974700927734 21.18844223022461 C 45.07813262939453 24.75408935546875 50.02141189575195 19.469480514526367 51.33488845825195 16.841808319091797" stroke-width="1.1982133388519287" fill="none" stroke="rgb(85, 10, 36)" stroke-opacity="0.2601618" stroke-linecap="round" stroke-linejoin="round"/>
    <path d="M 100.3708724975586 107.2757568359375 C 94.84297180175781 107.59026336669922 97.35871887207031 108.24989318847656 102.28404998779297 107.7469482421875 C 100.27113342285156 104.924072265625 102.95763397216797 108.71495056152344 102.06828308105469 103.34944915771484 C 97.38290405273438 102.19841766357422 103.23836517333984 101.57115936279297 109.25467681884766 98.74300384521484" stroke-width="1.0892857313156128" fill="none" stroke="rgb(160, 68, 47)" stroke-opacity="0.22263044" stroke-linecap="round" stroke-linejoin="round"/>
    <path d="M 5.493410110473633 56.54846954345703 C 2.004830837249756 52.19538116455078 -1.5459390878677368 51.64329528808594 1.4120196104049683 51.45585632324219 C 5.772980690002441 48.642127990722656 10.511298179626465 43.8099365234375 6.210643768310547 47.593544006347656" stroke-width="1.0892857313156128" fill="none" stroke="rgb(250, 156, 104)" stroke-opacity="0.41942585" stroke-linecap="round" stroke-linejoin="round"/>
    <path d="M 56.17708969116211 70.60774993896484 C 59.211910247802734 74.74893188476562 55.819175720214844 77.46379089355469 50.18090057373047 74.76561737060547 C 49.34905242919922 81.07557678222656 50.09681701660156 76.25336456298828 54.48512649536133 70.80587005615234" stroke-width="1.0892857313156128" fill="none" stroke="rgb(58, 17, 73)" stroke-opacity="0.49340153" stroke-linecap="round" stroke-linejoin="round"/>
    <path d="M 89.89545440673828 24.78427505493164 C 94.9911117553711 23.980165481567383 91.44338989257812 20.029069900512695 95.50885009765625 17.02904510498047 C 102.05406951904297 20.180673599243164 103.58171081542969 24.554784774780273 105.2342758178711 17.95413589477539" stroke-width="1.1982126235961914" fill="none" stroke="rgb(133, 151, 35)" stroke-opacity="0.034434292" stroke-linecap="round" stroke-linejoin="round"/>
    <path d="M 40.939327239990234 61.6003532409668 C 38.63892364501953 55.24760055541992 41.714210510253906 56.835750579833984 47.04050827026367 62.31077575683594" stroke-width="1.198179006576538" fill="none" stroke="rgb(150, 22, 93)" stroke-opacity="0.14949559" stroke-linecap="round" stroke-linejoin="round"/>
    <path d="M 74.64667510986328 61.562679290771484 C 70.76583099365234 59.69316482543945 70.7760238647461 54.925811767578125 74.35449981689453 58.39207077026367" stroke-width="1.198213815689087" fill="none" stroke="rgb(235, 60, 24)" stroke-opacity="0.6203612" stroke-linecap="round" stroke-linejoin="round"/>
    <path d="M 43.03208923339844 6.055072784423828 C 44.49990463256836 9.973152160644531 42.87491989135742 12.36424446105957 37.90761947631836 13.790990829467773 C 35.6116943359375 16.0324649810791 34.028045654296875 22.031021118164062 36.926944732666016 16.109350204467773" stroke-width="1.0892857313156128" fill="none" stroke="rgb(55, 108, 179)" stroke-opacity="0.94666797" stroke-linecap="round" stroke-linejoin="round"/>
    <path d="M 109.79915618896484 98.74300384521484 C 107.17610931396484 100.11883544921875 108.57502746582031 95.39591217041016 103.88990783691406 95.72881317138672" stroke-width="1.1982123851776123" fill="none" stroke="rgb(176, 164, 199)" stroke-opacity="0.41756266" stroke-linecap="round" stroke-linejoin="round"/>
    <path d="M 36.92697525024414 16.653932571411133 C 36.497039794921875 12.572978019714355 33.178314208984375 7.6150736808776855 28.236995697021484 1.289930820465088 C 32.01109313964844 -0.43891799449920654 28.286523818969727 3.707495927810669 25.283594131469727 -2.177415370941162 C 30.568178176879883 2.303021192550659 25.080516815185547 -0.7813685536384583 24.23720932006836 4.9549665451049805" stroke-width="1.0892857313156128" fill="none" stroke="rgb(66, 88, 32)" stroke-opacity="0.8818792" stroke-linecap="round" stroke-linejoin="round"/>
    <path d="M 47.04050827026367 62.31163024902344 C 47.11445617675781 64.64741516113281 50.378658294677734 69.84991455078125 44.94662094116211 67.16253662109375 C 50.88092803955078 64.24866485595703 47.881736755371094 67.0339126586914 41.91853332519531 71.39832305908203 C 47.38435363769531 68.64704895019531 43.6641960144043 62.884742736816406 44.89678955078125 64.94779205322266" stroke-width="1.1981229782104492" fill="none" stroke="rgb(125, 65, 150)" stroke-opacity="0.15120372" stroke-linecap="round" stroke-linejoin="round"/>
    <path d="M 6.210644721984863 47.04894256591797 C 2.7851014137268066 47.029388427734375 -1.8007603883743286 50.25919723510742 -1.9821428060531616 54.64588165283203 C -6.501857757568359 59.09577941894531 -1.1419458389282227 53.881858825683594 -2.9215428829193115 54.18276596069336" stroke-width="1.0892857313156128" fill="none" stroke="rgb(138, 246, 108)" stroke-opacity="0.79134846" stroke-linecap="round" stroke-linejoin="round"/>
    <path d="M 6.210540771484375 47.04895782470703 C 3.6629557609558105 45.119903564453125 0.9048783779144287 39.12051773071289 -2.5240516662597656 35.81520462036133 C -2.1288654804229736 41.60612106323242 3.805449962615967 41.554344177246094 2.5210814476013184 41.15422439575195 C 3.67653751373291 46.75942611694336 7.308011054992676 53.019630432128906 3.3003876209259033 59.099788665771484" stroke-width="1.1982135772705078" fill="none" stroke="rgb(210, 22, 116)" stroke-opacity="0.29350203" stroke-linecap="round" stroke-linejoin="round"/>
    <path d="M 109.79924774169922 98.74300384521484 C 114.54045104980469 100.307373046875 114.91484069824219 100.26675415039062 117.70347595214844 105.60772705078125" stroke-width="1.0892857313156128" fill="none" stroke="rgb(116, 147, 162)" stroke-opacity="0.29749358" stroke-linecap="round" stroke-linejoin="round"/>
    <path d="M 53.94051742553711 70.2855453491211 C 49.09376907348633 71.7655258178711 48.54928207397461 72.91748046875 51.69462966918945 78.45933532714844 C 55.69395446777344 78.74482727050781 54.806732177734375 78.00406646728516 54.552391052246094 79.2071762084961 C 56.30199432373047 73.89739990234375 51.11029815673828 69.90038299560547 52.29090118408203 65.3523941040039" stroke-width="1.0892857313156128" fill="none" stroke="rgb(178, 241, 244)" stroke-opacity="0.8427095" stroke-linecap="round" stroke-linejoin="round"/>
    <path d="M 36.92695999145508 16.653942108154297 C 35.32590103149414 16.237577438354492 39.719696044921875 16.591585159301758 42.93714141845703 19.88605499267578" stroke-width="1.1982132196426392" fill="none" stroke="rgb(212, 136, 48)" stroke-opacity="0.59400016" stroke-linecap="round" stroke-linejoin="round"/>
    <path d="M 78.93566131591797 95.86956024169922 C 82.9865951538086 96.34789276123047 83.67704010009766 96.69651794433594 82.84685516357422 94.69302368164062 C 85.92315673828125 92.06786346435547 84.0072250366211 87.91780853271484 85.91452026367188 92.12808990478516" stroke-width="1.0892857313156128" fill="none" stroke="rgb(165, 207, 171)" stroke-opacity="0.87943774" stroke-linecap="round" stroke-linejoin="round"/>
    <path d="M 23.761457443237305 45.69395446777344 C 22.463306427001953 41.74370574951172 28.42560577392578 45.0091552734375 24.509765625 44.69758987426758 C 26.91455841064453 40.462188720703125 31.621797561645508 39.59425354003906 35.57316589355469 41.24510955810547 C 36.05170822143555 43.130184173583984 32.952274322509766 43.371421813964844 30.48978042602539 39.92768478393555" stroke-width="1.0892857313156128" fill="none" stroke="rgb(51, 76, 13)" stroke-opacity="0.20638072" stroke-linecap="round" stroke-linejoin="round"/>
    <path d="M 87.91090393066406 112.89156341552734 C 94.46469116210938 108.7826919555664 98.25760650634766 113.2581558227539 93.2383804321289 107.74102020263672 C 88.01235961914062 101.7247543334961 87.32806396484375 96.73822784423828 83.81253051757812 96.41771697998047" stroke-width="1.0892857313156128" fill="none" stroke="rgb(119, 202, 22)" stroke-opacity="0.20528346" stroke-linecap="round" stroke-linejoin="round"/>
    <path d="M 109.76309967041016 100.35273742675781 C 114.91050720214844 100.64118957519531 115.76892852783203 100.00719451904297 117.80010223388672 105.73892211914062 C 117.03099060058594 101.671875 112.73129272460938 104.52401733398438 112.50286865234375 110.13727569580078 C 114.635009765625 106.65153503417969 111.46244812011719 107.16891479492188 112.09563446044922 110.19346618652344" stroke-width="1.0892857313156128" fill="none" stroke="rgb(218, 231, 141)" stroke-opacity="0.49725103" stroke-linecap="round" stroke-linejoin="round"/>
    <path d="M 111.51954650878906 102.55845642089844 C 117.00328826904297 96.720458984375 116.85220336914062 97.7063217163086 116.87053680419922 95.96693420410156 C 122.92201232910156 97.00074005126953 126.94644165039062 97.51007843017578 126.91654968261719 101.4288558959961" stroke-width="1.0892857313156128" fill="none" stroke="rgb(181, 117, 236)" stroke-opacity="0.96090364" stroke-linecap="round" stroke-linejoin="round"/>
    <path d="M 106.39134979248047 96.89283752441406 C 111.61370849609375 99.01831817626953 113.8389663696289 104.30693817138672 107.76156616210938 108.93663024902344 C 109.0274887084961 105.27057647705078 109.84259796142578 100.93980407714844 110.95770263671875 106.30241394042969 C 109.08899688720703 104.70935821533203 110.12618255615234 106.02606964111328 113.93199157714844 112.63314819335938" stroke-width="1.0892857313156128" fill="none" stroke="rgb(79, 81, 95)" stroke-opacity="0.46431118" stroke-linecap="round" stroke-linejoin="round"/>
    <path d="M 57.96877670288086 34.65439987182617 C 55.8281364440918 30.277986526489258 60.73281478881836 30.103851318359375 59.16453552246094 29.92005157470703 C 61.884334564208984 29.34035301208496 56.41622543334961 34.96160125732422 56.911678314208984 34.495933532714844" stroke-width="1.198211908340454" fill="none" stroke="rgb(93, 201, 156)" stroke-opacity="0.26824534" stroke-linecap="round" stroke-linejoin="round"/>
    <path d="M 98.1254653930664 92.25691986083984 C 93.41470336914062 98.12120819091797 92.8652572631836 100.6056137084961 95.79646301269531 94.55524444580078 C 99.49083709716797 95.95417022705078 104.68394470214844 91.48188781738281 106.63982391357422 96.14136505126953" stroke-width="1.0892857313156128" fill="none" stroke="rgb(241, 72, 172)" stroke-opacity="0.058533978" stroke-linecap="round" stroke-linejoin="round"/>
    <path d="M 44.55209732055664 74.1801528930664 C 40.67439651489258 70.62889862060547 44.240989685058594 76.24738311767578 44.56428527832031 72.23300170898438 C 45.58506393432617 69.94279479980469 45.51830291748047 74.75180053710938 51.2960205078125 80.33837890625 C 55.9078483581543 86.19485473632812 59.85930633544922 91.12257385253906 65.92243194580078 89.04690551757812" stroke-width="1.0892857313156128" fill="none" stroke="rgb(137, 154, 27)" stroke-opacity="0.6599384" stroke-linecap="round" stroke-linejoin="round"/>
    <path d="M 6.776546001434326 8.1436767578125 C 12.429789543151855 4.934070587158203 13.579785346984863 1.1237757205963135 17.26043128967285 2.3818960189819336" stroke-width="1.0892857313156128" fill="none" stroke="rgb(118, 162, 245)" stroke-opacity="0.23630117" stroke-linecap="round" stroke-linejoin="round"/>
    <path d="M 7.964193820953369 79.71641540527344 C 9.048684120178223 80.83155822753906 12.651415824890137 82.34208679199219 13.557353973388672 80.72761535644531" stroke-width="1.0892857313156128" fill="none" stroke="rgb(136, 81, 45)" stroke-opacity="0.40262118" stroke-linecap="round" stroke-linejoin="round"/>
    <path d="M 94.32752227783203 47.48942184448242 C 89.00917053222656 50.07479476928711 90.15113830566406 54.35578155517578 90.0616226196289 47.833980560302734 C 95.21575927734375 46.72262191772461 93.07910919189453 42.69226837158203 90.65394592285156 39.43478012084961" stroke-width="1.0892857313156128" fill="none" stroke="rgb(214, 68, 163)" stroke-opacity="0.07308146" stroke-linecap="round" stroke-linejoin="round"/>
    <path d="M 21.068801879882812 57.838661193847656 C 15.367475509643555 58.948211669921875 15.875947952270508 60.691123962402344 12.355338096618652 59.49642562866211 C 14.659605026245117 53.1309814453125 16.882471084594727 49.60991668701172 17.32790756225586 51.209495544433594 C 14.5994234085083 47.84980010986328 9.129777908325195 49.85997772216797 9.6483793258667 55.26212692260742" stroke-width="1.0892857313156128" fill="none" stroke="rgb(137, 197, 113)" stroke-opacity="0.23218788" stroke-linecap="round" stroke-linejoin="round"/>
    <path d="M 86.13490295410156 12.622627258300781 C 91.36602783203125 14.988133430480957 94.55803680419922 18.862730026245117 92.67576599121094 16.66156005859375" stroke-width="1.0892857313156128" fill="none" stroke="rgb(124, 127, 191)" stroke-opacity="0.88329613" stroke-linecap="round" stroke-linejoin="round"/>
    <path d="M 71.24724578857422 80.15354919433594 C 73.2110366821289 74.80789947509766 68.4988021850586 69.85509490966797 64.57189178466797 72.03279876708984 C 65.5398941040039 77.43515014648438 68.63819885253906 72.16156768798828 68.50833892822266 75.75267791748047" stroke-width="1.1982135772705078" fill="none" stroke="rgb(85, 218, 114)" stroke-opacity="0.23891705" stroke-linecap="round" stroke-linejoin="round"/>
    <path d="M 95.02784729003906 21.032440185546875 C 96.00750732421875 24.34050178527832 93.0416030883789 30.19341278076172 93.09569549560547 25.102548599243164 C 88.10470581054688 28.449264526367188 90.74929809570312 33.905662536621094 85.52594757080078 29.291719436645508 C 86.80741119384766 32.027618408203125 89.59044647216797 36.327205657958984 94.94013977050781 31.957046508789062" stroke-width="1.1982123851776123" fill="none" stroke="rgb(44, 236, 194)" stroke-opacity="0.047496583" stroke-linecap="round" stroke-linejoin="round"/>
  </g>
</svg>
