<?xml version="1.0" ?>
<svg xmlns="http://www.w3.org/2000/svg" version="1.1" width="956.0" height="956.0">
  <defs/>
  <g>
    <path d="M 48.5538215637207 56.80586624145508 C 48.80879592895508 56.805267333984375 48.55381393432617 57.31584548950195 48.55381393432617 57.572044372558594 C 48.009185791015625 57.768218994140625 48.00918197631836 58.235477447509766 48.009178161621094 58.70396423339844 C 48.00918197631836 60.53274154663086 48.00918960571289 62.36274719238281 48.009178161621094 64.19152069091797 C 48.009178161621094 72.35942077636719 48.009178161621094 80.52610778808594 48.55381393432617 88.42171478271484" stroke-width="1.0892857313156128" fill="none" stroke="rgb(26, 21, 21)" stroke-opacity="1.0" stroke-linecap="round" stroke-linejoin="round"/>
    <path d="M 80.07372283935547 53.74241256713867 C 80.37140655517578 53.742095947265625 80.07371520996094 54.3373908996582 80.07371520996094 54.63204574584961 C 79.52911376953125 55.9370002746582 79.52910614013672 57.51079559326172 79.52910614013672 59.084598541259766 C 79.52911376953125 64.91253662109375 80.07374572753906 70.740478515625 80.07373809814453 76.29610443115234" stroke-width="1.0892857313156128" fill="none" stroke="rgb(21, 26, 26)" stroke-opacity="0.99" stroke-linecap="round" stroke-linejoin="round"/>
    <path d="M 61.06003952026367 63.569583892822266 C 61.52851486206055 63.56955337524414 61.05974197387695 63.96107482910156 60.51539993286133 64.42919921875 C 60.515411376953125 65.93490600585938 61.06002426147461 67.16831970214844 60.515403747558594 68.40174865722656 C 60.51539993286133 73.7612075805664 60.51539993286133 79.12188720703125 60.515403747558594 84.753662109375" stroke-width="1.0892857313156128" fill="none" stroke="rgb(26, 21, 21)" stroke-opacity="1.0" stroke-linecap="round" stroke-linejoin="round"/>
    <path d="M 61.06003189086914 64.97380065917969 C 56.18915557861328 70.53730010986328 51.64149475097656 68.43026733398438 48.30326843261719 65.11934661865234 C 54.4202995300293 67.552978515625 56.02267837524414 65.02508544921875 50.17157745361328 64.72085571289062 C 53.20985412597656 62.64297103881836 59.14469909667969 57.88481521606445 53.26853561401367 58.61941146850586" stroke-width="1.198213815689087" fill="none" stroke="rgb(36, 174, 247)" stroke-opacity="0.16884743" stroke-linecap="round" stroke-linejoin="round"/>
    <path d="M 79.52912902832031 58.812320709228516 C 82.61322784423828 55.6324577331543 76.83876037597656 55.077613830566406 80.5760269165039 59.38874053955078 C 82.7599868774414 55.58421325683594 77.64401245117188 59.97245407104492 74.90902709960938 63.40538787841797" stroke-width="1.198211908340454" fill="none" stroke="rgb(154, 66, 192)" stroke-opacity="0.33150122" stroke-linecap="round" stroke-linejoin="round"/>
    <path d="M 80.07374572753906 54.09088134765625 C 84.79643249511719 59.98381805419922 87.11624908447266 60.50664138793945 84.76983642578125 60.137001037597656 C 87.97734069824219 62.29420471191406 86.26087951660156 65.85982513427734 92.70059967041016 63.076011657714844 C 88.61631774902344 60.50372314453125 85.49090576171875 62.01776885986328 88.19270324707031 64.10151672363281" stroke-width="1.1982139348983765" fill="none" stroke="rgb(226, 122, 119)" stroke-opacity="0.61269027" stroke-linecap="round" stroke-linejoin="round"/>
    <path d="M 79.52911376953125 53.19784927368164 C 80.69541931152344 52.406097412109375 77.99358367919922 56.689579010009766 80.10836029052734 54.78163528442383" stroke-width="1.0892857313156128" fill="none" stroke="rgb(93, 152, 41)" stroke-opacity="0.8406545" stroke-linecap="round" stroke-linejoin="round"/>
    <path d="M 48.55376434326172 64.46368408203125 C 45.28184509277344 65.34124755859375 45.31697463989258 59.75846481323242 47.87566375732422 56.773372650146484 C 43.10895919799805 60.35457992553711 38.65571212768555 56.62202453613281 33.29693603515625 50.7340087890625" stroke-width="1.0892857313156128" fill="none" stroke="rgb(61, 89, 81)" stroke-opacity="0.028439924" stroke-linecap="round" stroke-linejoin="round"/>
    <path d="M 48.5538215637207 88.96631622314453 C 44.53928756713867 93.92549133300781 45.70573425292969 96.78434753417969 43.3624382019043 92.94718933105469 C 38.031551361083984 96.28856658935547 41.61916732788086 96.64909362792969 39.20170211791992 101.91109466552734" stroke-width="1.1982136964797974" fill="none" stroke="rgb(198, 252, 224)" stroke-opacity="0.9643067" stroke-linecap="round" stroke-linejoin="round"/>
    <path d="M 48.00931930541992 58.43164825439453 C 52.67219543457031 64.5101089477539 57.33742904663086 63.77084732055664 61.07512664794922 59.30854034423828 C 58.01789093017578 55.95706558227539 59.273746490478516 61.777347564697266 61.183841705322266 61.482662200927734" stroke-width="1.1982141733169556" fill="none" stroke="rgb(204, 135, 95)" stroke-opacity="0.8404766" stroke-linecap="round" stroke-linejoin="round"/>
    <path d="M 61.060035705566406 84.753662109375 C 55.37739562988281 86.61434173583984 60.53427505493164 87.16179656982422 64.6723403930664 83.01485443115234" stroke-width="1.1982141733169556" fill="none" stroke="rgb(205, 28, 120)" stroke-opacity="0.5427719" stroke-linecap="round" stroke-linejoin="round"/>
    <path d="M 61.18384552001953 61.482662200927734 C 59.99539566040039 58.680423736572266 55.25945281982422 63.961002349853516 57.324466705322266 61.23159408569336 C 59.83448028564453 63.021724700927734 57.27819061279297 62.16456985473633 61.4251823425293 57.16097640991211 C 65.55046081542969 51.459720611572266 63.98118209838867 49.10902404785156 61.648860931396484 43.99538040161133" stroke-width="1.1982135772705078" fill="none" stroke="rgb(22, 74, 210)" stroke-opacity="0.9413774" stroke-linecap="round" stroke-linejoin="round"/>
    <path d="M 39.20170593261719 102.45559692382812 C 40.216224670410156 107.96923065185547 40.07477951049805 104.2700424194336 45.46003341674805 102.0134048461914" stroke-width="1.1982135772705078" fill="none" stroke="rgb(152, 249, 251)" stroke-opacity="0.52176285" stroke-linecap="round" stroke-linejoin="round"/>
    <path d="M 88.19271087646484 64.10152435302734 C 85.06378936767578 65.10472869873047 84.28917694091797 64.59196472167969 79.63971710205078 59.57768249511719 C 78.561767578125 63.71345138549805 78.97693634033203 68.90029907226562 80.57151794433594 63.66510009765625 C 84.78174591064453 58.49415969848633 79.30021667480469 64.15094757080078 76.1032943725586 60.00027084350586" stroke-width="1.0892857313156128" fill="none" stroke="rgb(112, 113, 175)" stroke-opacity="0.63798034" stroke-linecap="round" stroke-linejoin="round"/>
    <path d="M 61.183841705322266 61.482662200927734 C 67.42422485351562 56.134193420410156 69.36852264404297 53.78520965576172 69.82527160644531 51.687469482421875 C 75.16403198242188 55.50132369995117 72.77519226074219 57.92439651489258 77.4723892211914 54.456748962402344 C 76.41764068603516 54.04302978515625 74.29309844970703 56.668216705322266 76.31482696533203 62.94392013549805" stroke-width="1.1982132196426392" fill="none" stroke="rgb(121, 249, 226)" stroke-opacity="0.5077543" stroke-linecap="round" stroke-linejoin="round"/>
    <path d="M 61.728477478027344 61.482662200927734 C 60.88405227661133 66.08209228515625 63.722389221191406 71.72534942626953 60.808929443359375 71.22695922851562" stroke-width="1.0892857313156128" fill="none" stroke="rgb(145, 84, 177)" stroke-opacity="0.36854494" stroke-linecap="round" stroke-linejoin="round"/>
    <path d="M 64.67234802246094 83.01487731933594 C 65.47406005859375 79.13516998291016 59.671573638916016 79.4018783569336 61.97276306152344 77.39288330078125" stroke-width="1.0892857313156128" fill="none" stroke="rgb(25, 233, 17)" stroke-opacity="0.5473957" stroke-linecap="round" stroke-linejoin="round"/>
    <path d="M 53.268531799316406 58.61941146850586 C 55.55252456665039 63.638423919677734 51.01523208618164 66.68067169189453 49.12770462036133 71.4155044555664" stroke-width="1.0892857313156128" fill="none" stroke="rgb(63, 118, 171)" stroke-opacity="0.780119" stroke-linecap="round" stroke-linejoin="round"/>
    <path d="M 39.20170593261719 101.91114807128906 C 41.13101577758789 98.33186340332031 39.900352478027344 102.74385833740234 36.918983459472656 97.12051391601562 C 31.40813446044922 101.984619140625 26.776931762695312 102.32569885253906 30.986360549926758 104.54451751708984" stroke-width="1.1982141733169556" fill="none" stroke="rgb(134, 0, 166)" stroke-opacity="0.8118254" stroke-linecap="round" stroke-linejoin="round"/>
    <path d="M 118.16597747802734 43.370033264160156 C 116.48726654052734 48.544498443603516 112.1288833618164 42.51021194458008 117.13105010986328 41.86371612548828 C 122.1552963256836 35.71416091918945 116.09058380126953 40.921966552734375 119.04464721679688 45.410789489746094" stroke-width="1.1982139348983765" fill="none" stroke="rgb(133, 68, 58)" stroke-opacity="0.6096571" stroke-linecap="round" stroke-linejoin="round"/>
    <path d="M 44.72868347167969 10.752951622009277 C 49.52693557739258 11.733373641967773 52.0916633605957 18.25507164001465 54.778385162353516 13.946002960205078" stroke-width="1.0892857313156128" fill="none" stroke="rgb(134, 230, 169)" stroke-opacity="0.53821325" stroke-linecap="round" stroke-linejoin="round"/>
    <path d="M -0.021013053134083748 78.0270004272461 C -0.7915997505187988 78.72667694091797 2.0904722213745117 74.4697036743164 7.232848644256592 79.79308319091797 C 9.40233325958252 78.58348083496094 9.414804458618164 81.53672790527344 11.301407814025879 80.10936737060547 C 11.883665084838867 74.14544677734375 9.527959823608398 77.83951568603516 11.134873390197754 73.21207427978516" stroke-width="1.0892857313156128" fill="none" stroke="rgb(19, 46, 107)" stroke-opacity="0.67690814" stroke-linecap="round" stroke-linejoin="round"/>
    <path d="M 107.4452133178711 20.771976470947266 C 105.61363220214844 26.29515266418457 105.2697525024414 23.68877601623535 106.70296478271484 29.230623245239258 C 110.31705474853516 34.851558685302734 110.36309814453125 35.47414779663086 109.19209289550781 31.9423770904541" stroke-width="1.1982133388519287" fill="none" stroke="rgb(251, 100, 153)" stroke-opacity="0.65610576" stroke-linecap="round" stroke-linejoin="round"/>
    <path d="M 56.25570297241211 64.58370971679688 C 52.284114837646484 66.24563598632812 47.6692008972168 64.37098693847656 44.93351745605469 68.74456787109375 C 49.15019607543945 70.48645782470703 45.16853332519531 68.21234130859375 49.223785400390625 63.5078125 C 48.60348129272461 57.43111801147461 47.41092300415039 63.102725982666016 46.41958236694336 65.34841918945312" stroke-width="1.1982141733169556" fill="none" stroke="rgb(89, 191, 35)" stroke-opacity="0.92585593" stroke-linecap="round" stroke-linejoin="round"/>
    <path d="M 13.825240135192871 35.99555587768555 C 13.243263244628906 31.371871948242188 13.744903564453125 26.131725311279297 12.743626594543457 32.567466735839844 C 10.39912223815918 36.897674560546875 8.16213321685791 39.8512077331543 2.3946499824523926 39.810577392578125" stroke-width="1.1982089281082153" fill="none" stroke="rgb(191, 107, 79)" stroke-opacity="0.65264404" stroke-linecap="round" stroke-linejoin="round"/>
    <path d="M 3.9562103748321533 61.615047454833984 C -1.5935083627700806 66.68124389648438 1.143883466720581 70.4194564819336 0.43355053663253784 73.40968322753906 C 0.9613137245178223 75.71456146240234 -4.720447063446045 73.78204345703125 -2.6016318798065186 79.06771087646484" stroke-width="1.0892857313156128" fill="none" stroke="rgb(44, 195, 243)" stroke-opacity="0.7435428" stroke-linecap="round" stroke-linejoin="round"/>
    <path d="M 2.5105273723602295 95.7354965209961 C 8.43937873840332 95.13639831542969 12.170919418334961 97.66207885742188 8.99452018737793 101.58744812011719 C 3.004714250564575 105.42720794677734 -1.6990787982940674 107.41178131103516 -5.107437610626221 102.09632110595703" stroke-width="1.0892857313156128" fill="none" stroke="rgb(187, 201, 133)" stroke-opacity="0.36974204" stroke-linecap="round" stroke-linejoin="round"/>
    <path d="M 47.779293060302734 59.29591369628906 C 45.935302734375 64.09100341796875 45.635459899902344 69.75257110595703 50.81599426269531 71.73262023925781" stroke-width="1.0892857313156128" fill="none" stroke="rgb(162, 118, 113)" stroke-opacity="0.34577984" stroke-linecap="round" stroke-linejoin="round"/>
    <path d="M 96.01859283447266 65.68627166748047 C 97.67092895507812 61.09097671508789 95.86431884765625 58.812076568603516 94.44190979003906 57.686668395996094" stroke-width="1.198213815689087" fill="none" stroke="rgb(78, 5, 97)" stroke-opacity="0.49630034" stroke-linecap="round" stroke-linejoin="round"/>
    <path d="M 83.78376770019531 118.10456848144531 C 80.42863464355469 117.1446304321289 85.5372314453125 119.28172302246094 88.95136260986328 121.08464813232422 C 83.54608917236328 115.5498046875 83.42764282226562 119.07246398925781 79.61406707763672 121.76860809326172 C 81.74291229248047 125.65838623046875 80.0577392578125 122.55549621582031 75.02008056640625 123.302978515625" stroke-width="1.0892857313156128" fill="none" stroke="rgb(27, 83, 119)" stroke-opacity="0.909714" stroke-linecap="round" stroke-linejoin="round"/>
    <path d="M 109.48947143554688 93.81547546386719 C 107.4839859008789 92.84712219238281 106.6537094116211 97.35709381103516 103.2964859008789 102.2795639038086" stroke-width="1.0892857313156128" fill="none" stroke="rgb(3, 129, 44)" stroke-opacity="0.4669056" stroke-linecap="round" stroke-linejoin="round"/>
    <path d="M 108.81892395019531 86.00911712646484 C 106.94927978515625 80.5282211303711 112.5207748413086 79.48955535888672 108.77434539794922 82.24249267578125 C 111.31584167480469 76.39228820800781 108.54019165039062 76.29779815673828 112.46200561523438 70.39765930175781" stroke-width="1.0892857313156128" fill="none" stroke="rgb(49, 106, 29)" stroke-opacity="0.5836604" stroke-linecap="round" stroke-linejoin="round"/>
    <path d="M 49.11835861206055 5.033717632293701 C 46.11317825317383 2.5881764888763428 51.59976577758789 6.629504680633545 56.399112701416016 8.594694137573242" stroke-width="1.0892857313156128" fill="none" stroke="rgb(242, 74, 175)" stroke-opacity="0.84161997" stroke-linecap="round" stroke-linejoin="round"/>
    <path d="M 107.5705337524414 95.30883026123047 C 108.17475891113281 97.5151138305664 107.84891510009766 101.76419830322266 105.1287612915039 99.92109680175781" stroke-width="1.0892857313156128" fill="none" stroke="rgb(82, 253, 33)" stroke-opacity="0.0699024" stroke-linecap="round" stroke-linejoin="round"/>
    <path d="M 18.097402572631836 89.5302734375 C 21.365873336791992 92.34386444091797 27.153623580932617 95.26508331298828 22.544631958007812 96.32450866699219 C 26.708274841308594 95.2182846069336 28.279949188232422 100.53223419189453 28.768571853637695 100.42206573486328" stroke-width="1.0892857313156128" fill="none" stroke="rgb(17, 9, 165)" stroke-opacity="0.121198624" stroke-linecap="round" stroke-linejoin="round"/>
  </g>
</svg>
