<?xml version="1.0" ?>
<svg xmlns="http://www.w3.org/2000/svg" version="1.1" width="1619.0" height="1619.0">
  <defs/>
  <g>
    <path d="M 682.6281127929688 439.124755859375 C 687.8682250976562 439.6831970214844 685.6163330078125 442.9970397949219 686.118408203125 433.34454345703125 C 687.0951538085938 436.5050354003906 689.684814453125 439.0269470214844 692.1823120117188 441.8572692871094 C 688.3678588867188 468.91693115234375 695.7346801757812 472.34283447265625 713.8756713867188 483.65875244140625 C 728.6989135742188 494.4403381347656 765.0704345703125 509.0603942871094 792.5682983398438 503.1033020019531 C 805.6075439453125 508.5366516113281 808.7906494140625 525.6650390625 816.0182495117188 536.3978271484375 C 862.2223510742188 558.9915161132812 914.8953247070312 567.223876953125 941.3089599609375 611.0996704101562 C 972.40234375 642.21533203125 996.620849609375 677.8126220703125 1008.0914916992188 722.5999145507812 C 1008.5504150390625 744.6781005859375 1007.7876586914062 764.4671020507812 980.2860717773438 769.0629272460938 C 971.6701049804688 778.7295532226562 963.5858764648438 789.3738403320312 967.4130249023438 812.2081298828125 C 962.9026489257812 817.421142578125 924.7062377929688 825.7887573242188 911.9329223632812 819.595947265625 C 864.0708618164062 841.1323852539062 801.6890258789062 840.6588134765625 748.749755859375 832.083984375 C 724.7024536132812 833.2857055664062 705.0286254882812 827.4421997070312 690.866455078125 815.5043334960938 C 658.2769165039062 807.0700073242188 619.6915283203125 803.5660400390625 617.4417114257812 768.1464233398438" stroke-width="15.344505310058594" fill="none" stroke="rgb(23, 19, 20)" stroke-opacity="1.0" stroke-linecap="round" stroke-linejoin="round"/>
    <path d="M 690.646728515625 824.713623046875 C 706.3836059570312 870.5453491210938 780.0910034179688 838.0499267578125 739.392822265625 913.0364379882812" stroke-width="14.45535659790039" fill="none" stroke="rgb(72, 169, 161)" stroke-opacity="0.60605127" stroke-linecap="round" stroke-linejoin="round"/>
    <path d="M 720.946533203125 472.6285705566406 C 651.3514404296875 481.6956481933594 722.2149047851562 436.4898681640625 694.5851440429688 504.59747314453125" stroke-width="16.779296875" fill="none" stroke="rgb(135, 188, 131)" stroke-opacity="0.67714095" stroke-linecap="round" stroke-linejoin="round"/>
    <path d="M 686.4876098632812 439.0874328613281 C 732.3142700195312 442.3891296386719 727.020263671875 445.48065185546875 751.8878173828125 439.8999328613281" stroke-width="14.45535659790039" fill="none" stroke="rgb(149, 149, 71)" stroke-opacity="0.6804063" stroke-linecap="round" stroke-linejoin="round"/>
    <path d="M 686.220703125 434.3089599609375 C 740.666015625 407.72149658203125 744.379150390625 470.4906311035156 692.7091064453125 405.0407409667969 C 741.5538330078125 450.63262939453125 716.9554443359375 392.485595703125 672.9849243164062 413.8550109863281" stroke-width="16.471281051635742" fill="none" stroke="rgb(214, 194, 94)" stroke-opacity="0.23931313" stroke-linecap="round" stroke-linejoin="round"/>
    <path d="M 686.7852783203125 426.8287048339844 C 662.0256958007812 468.6448059082031 730.527587890625 500.94573974609375 667.1563110351562 419.53289794921875 C 598.063232421875 385.1564025878906 550.345458984375 364.8380432128906 594.227783203125 272.6140441894531" stroke-width="15.452683448791504" fill="none" stroke="rgb(43, 203, 250)" stroke-opacity="0.1679666" stroke-linecap="round" stroke-linejoin="round"/>
    <path d="M 673.7699584960938 425.6327209472656 C 726.0748901367188 392.20098876953125 694.0988159179688 381.43035888671875 787.547119140625 394.7176818847656 C 776.3861083984375 466.6186218261719 688.37548828125 474.5480651855469 699.40478515625 529.8529663085938 C 638.8814697265625 556.5440673828125 696.023193359375 515.1400146484375 776.4707641601562 561.2391357421875" stroke-width="14.45535659790039" fill="none" stroke="rgb(106, 236, 62)" stroke-opacity="0.6658135" stroke-linecap="round" stroke-linejoin="round"/>
    <path d="M 678.1531982421875 816.04736328125 C 720.5383911132812 797.3434448242188 781.0052490234375 742.6514282226562 758.0955810546875 714.0042724609375" stroke-width="14.45535659790039" fill="none" stroke="rgb(104, 153, 170)" stroke-opacity="0.70526844" stroke-linecap="round" stroke-linejoin="round"/>
    <path d="M 915.8276977539062 832.2232055664062 C 940.1068115234375 862.9097900390625 954.2025756835938 869.5606079101562 910.0210571289062 844.8246459960938 C 922.6204223632812 860.1869506835938 929.2653198242188 823.0003662109375 863.3941650390625 839.98095703125 C 829.6591796875 895.6815185546875 806.8978271484375 843.3036499023438 736.3863525390625 873.1748657226562" stroke-width="15.733778953552246" fill="none" stroke="rgb(52, 139, 141)" stroke-opacity="0.7059456" stroke-linecap="round" stroke-linejoin="round"/>
    <path d="M 749.1128540039062 725.6124877929688 C 693.7720947265625 704.339111328125 696.3025512695312 695.3743896484375 684.2801513671875 673.08349609375" stroke-width="14.45535659790039" fill="none" stroke="rgb(8, 112, 113)" stroke-opacity="0.86818767" stroke-linecap="round" stroke-linejoin="round"/>
    <path d="M 607.8368530273438 274.6508483886719 C 617.0122680664062 321.4002380371094 689.2412719726562 287.4438171386719 651.3702392578125 282.32110595703125" stroke-width="17.2364559173584" fill="none" stroke="rgb(123, 150, 139)" stroke-opacity="0.02813073" stroke-linecap="round" stroke-linejoin="round"/>
    <path d="M 673.922119140625 402.9041442871094 C 765.2688598632812 389.8378601074219 758.3729858398438 381.7360534667969 812.6134033203125 318.9688720703125 C 801.2373657226562 230.140869140625 726.508544921875 178.6724853515625 792.550048828125 153.69363403320312 C 811.4560546875 97.58354949951172 769.9070434570312 31.697351455688477 728.5177001953125 45.270362854003906" stroke-width="17.314069747924805" fill="none" stroke="rgb(223, 0, 255)" stroke-opacity="0.5287732" stroke-linecap="round" stroke-linejoin="round"/>
    <path d="M 732.0801391601562 872.1634521484375 C 716.57421875 922.985595703125 669.2188110351562 974.9771728515625 738.0990600585938 1052.8924560546875" stroke-width="14.45535659790039" fill="none" stroke="rgb(137, 145, 102)" stroke-opacity="0.22317342" stroke-linecap="round" stroke-linejoin="round"/>
    <path d="M 607.2808227539062 273.63836669921875 C 593.1696166992188 275.56390380859375 633.2985229492188 237.42547607421875 599.73681640625 277.3515319824219 C 615.2780151367188 329.4875183105469 689.3079833984375 318.9753112792969 705.4110717773438 239.44532775878906" stroke-width="16.46786880493164" fill="none" stroke="rgb(223, 47, 48)" stroke-opacity="0.961305" stroke-linecap="round" stroke-linejoin="round"/>
    <path d="M 771.1571655273438 548.4052124023438 C 781.2061767578125 505.9729919433594 815.01171875 551.4376220703125 884.4933471679688 559.435791015625 C 827.2005615234375 577.9893188476562 809.920654296875 583.7002563476562 884.3074340820312 524.7451171875 C 962.0775756835938 548.266845703125 968.4598388671875 558.5069580078125 1032.5341796875 575.3712158203125" stroke-width="14.45535659790039" fill="none" stroke="rgb(167, 6, 103)" stroke-opacity="0.41528982" stroke-linecap="round" stroke-linejoin="round"/>
    <path d="M 694.5330200195312 505.0815734863281 C 681.2696533203125 432.55615234375 702.984375 447.2608337402344 781.9876098632812 443.2346496582031 C 782.6124877929688 451.6875305175781 704.9856567382812 387.03082275390625 613.5772705078125 393.5251770019531" stroke-width="14.690072059631348" fill="none" stroke="rgb(43, 191, 252)" stroke-opacity="0.57015646" stroke-linecap="round" stroke-linejoin="round"/>
    <path d="M 607.8174438476562 271.6385498046875 C 605.735595703125 342.1466064453125 595.5061645507812 288.2354431152344 535.1688842773438 236.0259552001953 C 604.8436889648438 284.9864501953125 568.5845336914062 327.3610534667969 530.328857421875 282.7566833496094" stroke-width="15.089179992675781" fill="none" stroke="rgb(84, 26, 75)" stroke-opacity="0.8154932" stroke-linecap="round" stroke-linejoin="round"/>
    <path d="M 52.164886474609375 1592.592041015625 C 120.53362274169922 1562.3953857421875 90.38066864013672 1643.4764404296875 56.147464752197266 1705.5736083984375 C 57.734901428222656 1769.4415283203125 59.00122833251953 1765.1278076171875 114.86907958984375 1782.673583984375 C 157.0125732421875 1737.9212646484375 107.25189971923828 1670.7099609375 173.69081115722656 1584.0867919921875" stroke-width="17.31886863708496" fill="none" stroke="rgb(136, 148, 65)" stroke-opacity="0.24505608" stroke-linecap="round" stroke-linejoin="round"/>
    <path d="M 1140.7127685546875 559.7242431640625 C 1105.8021240234375 486.6759338378906 1073.027587890625 505.67791748046875 1051.943603515625 458.5149841308594" stroke-width="14.45535659790039" fill="none" stroke="rgb(212, 20, 129)" stroke-opacity="0.71410155" stroke-linecap="round" stroke-linejoin="round"/>
    <path d="M 1595.1351318359375 584.75390625 C 1565.2166748046875 534.3650512695312 1481.6842041015625 586.8230590820312 1472.1815185546875 533.510498046875 C 1535.8223876953125 512.9856567382812 1622.9703369140625 450.31414794921875 1613.2125244140625 475.587158203125" stroke-width="14.980454444885254" fill="none" stroke="rgb(188, 179, 53)" stroke-opacity="0.2806782" stroke-linecap="round" stroke-linejoin="round"/>
    <path d="M 600.1663208007812 1343.1298828125 C 605.4254760742188 1345.8907470703125 673.9353637695312 1405.1876220703125 610.2357788085938 1411.9959716796875 C 551.9310913085938 1359.572265625 485.3814697265625 1350.376953125 456.7708740234375 1353.1968994140625 C 528.0361938476562 1376.3895263671875 550.5134887695312 1329.7781982421875 566.5010375976562 1396.56201171875" stroke-width="14.45535659790039" fill="none" stroke="rgb(104, 207, 45)" stroke-opacity="0.038288523" stroke-linecap="round" stroke-linejoin="round"/>
    <path d="M 171.3023223876953 1149.298095703125 C 230.81858825683594 1071.8302001953125 281.7853698730469 1060.4844970703125 268.4849548339844 1094.7974853515625 C 323.434326171875 1124.809326171875 377.1990661621094 1184.480712890625 321.5741882324219 1206.15087890625 C 267.49554443359375 1151.0169677734375 258.978759765625 1181.167236328125 232.33587646484375 1233.2113037109375" stroke-width="14.45535659790039" fill="none" stroke="rgb(34, 199, 207)" stroke-opacity="0.6819785" stroke-linecap="round" stroke-linejoin="round"/>
    <path d="M 29.6885986328125 1107.537841796875 C 85.18098449707031 1189.419921875 73.25550079345703 1194.2166748046875 114.40239715576172 1228.0621337890625 C 154.7274169921875 1300.4044189453125 224.8458709716797 1297.901123046875 269.9989013671875 1278.043701171875 C 208.0120391845703 1312.22314453125 170.16278076171875 1316.5164794921875 229.66859436035156 1333.2772216796875" stroke-width="14.45535659790039" fill="none" stroke="rgb(111, 64, 57)" stroke-opacity="0.47300884" stroke-linecap="round" stroke-linejoin="round"/>
    <path d="M 917.5618896484375 798.6242065429688 C 963.3609008789062 766.5093383789062 985.6146240234375 772.19091796875 934.2154541015625 834.6124877929688 C 906.004638671875 771.7400512695312 835.7169799804688 851.4398193359375 826.8629150390625 914.5015258789062 C 849.872802734375 855.8551025390625 905.53369140625 834.9058227539062 921.1063842773438 910.6994018554688" stroke-width="14.495660781860352" fill="none" stroke="rgb(183, 101, 60)" stroke-opacity="0.70205975" stroke-linecap="round" stroke-linejoin="round"/>
    <path d="M 495.65545654296875 170.59744262695312 C 445.3216247558594 203.52377319335938 383.8316650390625 270.3713684082031 383.09814453125 261.8774108886719" stroke-width="15.734663009643555" fill="none" stroke="rgb(24, 148, 43)" stroke-opacity="0.37503603" stroke-linecap="round" stroke-linejoin="round"/>
    <path d="M 408.6537780761719 1368.792724609375 C 490.31640625 1437.1778564453125 570.6509399414062 1452.5848388671875 603.535888671875 1434.927978515625 C 562.69775390625 1458.97998046875 541.1219482421875 1446.24853515625 607.4218139648438 1448.474853515625 C 678.4780883789062 1428.3583984375 663.9439697265625 1433.8046875 586.3306884765625 1364.90673828125" stroke-width="14.45535659790039" fill="none" stroke="rgb(200, 21, 104)" stroke-opacity="0.6395092" stroke-linecap="round" stroke-linejoin="round"/>
    <path d="M 336.7564392089844 256.8249206542969 C 337.3547668457031 250.10842895507812 328.8981628417969 324.4022521972656 313.38958740234375 373.8183288574219" stroke-width="14.45535659790039" fill="none" stroke="rgb(114, 198, 43)" stroke-opacity="0.393195" stroke-linecap="round" stroke-linejoin="round"/>
    <path d="M 1089.40087890625 528.2759399414062 C 1101.52685546875 544.7625122070312 1141.637451171875 606.8067626953125 1180.9354248046875 553.1704711914062 C 1262.448486328125 610.7230834960938 1237.056640625 522.7077026367188 1161.0313720703125 465.6144714355469 C 1121.448974609375 495.0216979980469 1166.659912109375 512.7293701171875 1226.4608154296875 549.111083984375" stroke-width="14.45535659790039" fill="none" stroke="rgb(181, 168, 163)" stroke-opacity="0.81330365" stroke-linecap="round" stroke-linejoin="round"/>
    <path d="M 29.543411254882812 1537.602294921875 C 56.37010192871094 1608.8209228515625 23.94622039794922 1565.11181640625 4.669270038604736 1602.0718994140625 C 27.045488357543945 1612.573486328125 -31.951904296875 1550.08935546875 -0.015486621297895908 1616.0133056640625 C -20.52737045288086 1552.0982666015625 -36.24678039550781 1579.0775146484375 -103.51084899902344 1609.8233642578125" stroke-width="14.45535659790039" fill="none" stroke="rgb(64, 237, 102)" stroke-opacity="0.07458064" stroke-linecap="round" stroke-linejoin="round"/>
    <path d="M 270.2602233886719 243.07090759277344 C 207.9019775390625 159.06455993652344 230.3898468017578 169.05332946777344 297.47454833984375 235.60948181152344 C 277.6241455078125 297.88555908203125 229.17926025390625 261.2758483886719 259.2769470214844 221.84112548828125" stroke-width="17.139142990112305" fill="none" stroke="rgb(67, 172, 194)" stroke-opacity="0.12507722" stroke-linecap="round" stroke-linejoin="round"/>
    <path d="M 1158.7589111328125 75.56774139404297 C 1229.30322265625 84.7150650024414 1289.496337890625 18.311180114746094 1334.7376708984375 59.7507438659668 C 1313.109375 129.8704376220703 1243.7349853515625 77.4722900390625 1222.4876708984375 118.2281265258789" stroke-width="14.45535659790039" fill="none" stroke="rgb(10, 89, 246)" stroke-opacity="0.65119916" stroke-linecap="round" stroke-linejoin="round"/>
    <path d="M 242.3335418701172 727.8300170898438 C 180.1975860595703 646.2109375 240.78880310058594 588.0045776367188 192.84161376953125 540.9371337890625 C 157.70167541503906 624.7261962890625 110.21250915527344 535.530029296875 75.29031372070312 482.73388671875 C -8.742588996887207 563.1082763671875 -35.49680709838867 596.1578369140625 -21.485950469970703 666.712646484375" stroke-width="14.45535659790039" fill="none" stroke="rgb(42, 18, 250)" stroke-opacity="0.45657972" stroke-linecap="round" stroke-linejoin="round"/>
    <path d="M 600.3644409179688 1406.3568115234375 C 560.5623168945312 1417.79052734375 594.4993896484375 1344.6436767578125 647.5364379882812 1260.1739501953125 C 665.963623046875 1301.650146484375 690.2373046875 1238.4647216796875 736.7040405273438 1219.0123291015625 C 775.3446655273438 1282.9954833984375 743.154052734375 1304.732177734375 698.713134765625 1246.782470703125" stroke-width="14.45535659790039" fill="none" stroke="rgb(147, 129, 167)" stroke-opacity="0.81354696" stroke-linecap="round" stroke-linejoin="round"/>
  </g>
</svg>
