<?xml version="1.0" ?>
<svg xmlns="http://www.w3.org/2000/svg" version="1.1" width="102.0" height="102.0">
  <defs/>
  <g>
    <path d="M 37.459842681884766 17.6242618560791 C 47.94956588745117 17.56524085998535 57.52184295654297 15.946416854858398 62.94462585449219 19.127779006958008 C 68.18714141845703 23.06945037841797 69.3626937866211 30.34372901916504 70.28144836425781 32.761436462402344 C 71.20673370361328 35.25249481201172 71.4439697265625 32.96137619018555 70.62677001953125 34.926273345947266 C 70.70437622070312 36.920372009277344 71.3014144897461 43.6081428527832 69.74507141113281 46.977935791015625 C 68.09308624267578 50.1545524597168 64.95637512207031 50.65153121948242 63.40885925292969 51.22031784057617 C 62.434391021728516 52.209877014160156 63.49051284790039 53.71254348754883 61.328269958496094 53.97685623168945 C 59.713687896728516 54.32044219970703 54.819557189941406 54.422237396240234 50.99945831298828 55.22802734375 C 48.02365493774414 55.37003707885742 47.49402618408203 58.05772018432617 46.62792205810547 61.697120666503906 C 45.819129943847656 65.32919311523438 44.91624069213867 70.007080078125 43.763858795166016 74.32714080810547 C 43.4849967956543 78.8645248413086 46.58411407470703 75.85183715820312 48.78824234008789 73.25206756591797" stroke-width="0.9142717719078064" fill="none" stroke="rgb(5, 47, 33)" stroke-opacity="0.7233199" stroke-linecap="round" stroke-linejoin="round"/>
    <path d="M 82.90851593017578 46.157371520996094 C 82.42631530761719 47.464332580566406 81.86499786376953 49.50927734375 81.6248779296875 49.063682556152344 C 81.65681457519531 48.861228942871094 81.70909118652344 46.04137420654297 81.72125244140625 47.45475769042969 C 81.5011978149414 48.37650680541992 81.32774353027344 53.669654846191406 81.36469268798828 58.38896179199219 C 81.99649047851562 61.850040435791016 82.34052276611328 64.60496520996094 82.8201904296875 67.06383514404297 C 82.84490966796875 69.23175048828125 83.5322036743164 72.35545349121094 82.6467514038086 73.0999984741211 C 80.78931427001953 73.76333618164062 76.47520446777344 73.0242691040039 69.6175537109375 73.17449188232422 C 63.911216735839844 74.86702728271484 55.35318374633789 77.07964324951172 46.75545120239258 79.24608612060547 C 37.49760055541992 80.77593994140625 36.059967041015625 79.57425689697266 35.56321334838867 76.80209350585938" stroke-width="1.1380670070648193" fill="none" stroke="rgb(42, 51, 6)" stroke-opacity="0.9570081" stroke-linecap="round" stroke-linejoin="round"/>
    <path d="M 59.849876403808594 19.810274124145508 C 59.56674575805664 17.19725227355957 59.204444885253906 15.328350067138672 60.47586441040039 15.926895141601562 C 61.60157775878906 16.055068969726562 63.857418060302734 18.407875061035156 65.19099426269531 21.611841201782227 C 67.98966217041016 23.38693618774414 66.98677825927734 17.956369400024414 65.23668670654297 13.234731674194336" stroke-width="1.2395237684249878" fill="none" stroke="rgb(135, 164, 168)" stroke-opacity="0.57125074" stroke-linecap="round" stroke-linejoin="round"/>
    <path d="M 35.22698211669922 76.965576171875 C 35.08373260498047 76.5164794921875 34.88056182861328 75.82657623291016 35.010562896728516 75.0873031616211 C 36.534854888916016 75.183837890625 38.15232849121094 74.69865417480469 39.691280364990234 74.17231750488281 C 40.36494064331055 72.8769760131836 39.90217208862305 75.96916961669922 39.96245193481445 79.76469421386719" stroke-width="0.968635618686676" fill="none" stroke="rgb(59, 89, 121)" stroke-opacity="0.5491964" stroke-linecap="round" stroke-linejoin="round"/>
    <path d="M 49.90287780761719 74.31865692138672 C 50.09893035888672 74.33808898925781 50.53831481933594 73.52010345458984 50.49027633666992 73.36494445800781 C 50.402244567871094 73.2607650756836 50.36882781982422 75.41915130615234 50.64973449707031 76.36077880859375" stroke-width="0.9142717719078064" fill="none" stroke="rgb(242, 135, 252)" stroke-opacity="0.45552123" stroke-linecap="round" stroke-linejoin="round"/>
    <path d="M 81.7679214477539 46.549930572509766 C 81.90814208984375 47.17652893066406 82.8128890991211 47.521846771240234 83.60345458984375 46.388328552246094 C 84.40218353271484 45.79681396484375 85.01670837402344 43.9296760559082 86.39421844482422 42.87480545043945 C 86.90151977539062 40.91056823730469 86.59270477294922 43.4685173034668 86.41979217529297 46.278770446777344" stroke-width="1.6740695238113403" fill="none" stroke="rgb(162, 250, 130)" stroke-opacity="0.5716016" stroke-linecap="round" stroke-linejoin="round"/>
    <path d="M 57.67641830444336 19.507308959960938 C 60.64279556274414 16.116701126098633 60.27882385253906 14.572449684143066 63.089332580566406 11.064793586730957" stroke-width="1.4798763990402222" fill="none" stroke="rgb(112, 13, 55)" stroke-opacity="0.57603914" stroke-linecap="round" stroke-linejoin="round"/>
    <path d="M 81.03343963623047 47.84944534301758 C 80.47052764892578 50.37352752685547 79.91326141357422 52.846187591552734 79.42374420166016 53.943687438964844 C 79.01113891601562 55.07246780395508 79.3047103881836 54.71915817260742 78.86988830566406 54.33159637451172 C 78.44092559814453 53.96464157104492 79.2685317993164 58.21632766723633 80.05986022949219 62.714813232421875" stroke-width="0.9142717719078064" fill="none" stroke="rgb(58, 204, 198)" stroke-opacity="0.49270085" stroke-linecap="round" stroke-linejoin="round"/>
    <path d="M 83.13190460205078 59.80992126464844 C 85.51615905761719 60.061004638671875 88.44493865966797 59.65806579589844 90.71790313720703 59.379913330078125 C 92.76227569580078 59.621803283691406 95.28919219970703 58.610477447509766 97.41217803955078 58.05194854736328 C 99.3465805053711 57.293453216552734 99.88763427734375 50.828330993652344 99.72510528564453 43.71875762939453" stroke-width="2.0456786155700684" fill="none" stroke="rgb(28, 255, 191)" stroke-opacity="0.56196266" stroke-linecap="round" stroke-linejoin="round"/>
    <path d="M 49.78750228881836 72.90342712402344 C 52.120635986328125 67.4831771850586 47.6485481262207 69.23540496826172 48.19908905029297 69.8608169555664" stroke-width="0.9142717719078064" fill="none" stroke="rgb(38, 110, 182)" stroke-opacity="0.43567333" stroke-linecap="round" stroke-linejoin="round"/>
    <path d="M 37.964656829833984 81.38372802734375 C 39.408023834228516 81.41754913330078 40.80309295654297 81.44783782958984 42.180110931396484 81.5201187133789 C 43.54765701293945 81.5291976928711 42.04637145996094 77.9343032836914 40.866798400878906 73.4923095703125" stroke-width="0.9142717719078064" fill="none" stroke="rgb(89, 178, 124)" stroke-opacity="0.49886346" stroke-linecap="round" stroke-linejoin="round"/>
    <path d="M 84.56246185302734 48.476966857910156 C 82.74433135986328 48.26641082763672 80.97860717773438 48.06108474731445 79.2455062866211 47.81651306152344 C 78.28289794921875 46.831172943115234 80.17548370361328 48.379852294921875 82.05018615722656 49.981224060058594" stroke-width="0.9142717719078064" fill="none" stroke="rgb(186, 130, 68)" stroke-opacity="0.4749866" stroke-linecap="round" stroke-linejoin="round"/>
    <path d="M 83.96243286132812 44.60980224609375 C 83.29270935058594 46.912689208984375 82.54808044433594 49.79124069213867 82.15438079833984 51.861412048339844 C 80.9201889038086 53.70143127441406 79.1946029663086 55.05381774902344 76.60647583007812 55.566123962402344 C 74.83233642578125 56.92045974731445 79.8985595703125 59.905879974365234 84.24207305908203 62.853736877441406" stroke-width="0.9308905005455017" fill="none" stroke="rgb(126, 47, 36)" stroke-opacity="0.42343655" stroke-linecap="round" stroke-linejoin="round"/>
    <path d="M 98.43135070800781 47.28982162475586 C 99.153564453125 45.5305290222168 100.60237884521484 41.30784606933594 93.48731994628906 42.29554748535156" stroke-width="0.9142717719078064" fill="none" stroke="rgb(74, 89, 120)" stroke-opacity="0.432259" stroke-linecap="round" stroke-linejoin="round"/>
    <path d="M 67.40043640136719 13.218557357788086 C 69.29032135009766 7.394093036651611 68.90682983398438 11.423100471496582 69.04481506347656 17.843385696411133" stroke-width="0.9142717719078064" fill="none" stroke="rgb(120, 255, 121)" stroke-opacity="0.4449559" stroke-linecap="round" stroke-linejoin="round"/>
    <path d="M 50.8994140625 76.1362075805664 C 56.02524185180664 76.22250366210938 61.25373840332031 76.7693099975586 62.26220703125 78.65111541748047 C 63.135860443115234 80.57134246826172 58.86747360229492 83.89148712158203 55.536094665527344 87.38876342773438 C 52.0897216796875 90.65589904785156 58.58687973022461 90.82768249511719 63.3911018371582 91.08501434326172" stroke-width="0.9142717719078064" fill="none" stroke="rgb(194, 53, 137)" stroke-opacity="0.4322597" stroke-linecap="round" stroke-linejoin="round"/>
    <path d="M 81.11475372314453 59.36687469482422 C 82.08924102783203 60.85336685180664 83.62718963623047 62.29236602783203 85.42774200439453 63.491455078125 C 87.4642105102539 64.56987762451172 86.50051879882812 63.82182312011719 84.705078125 63.52883529663086" stroke-width="0.9917682409286499" fill="none" stroke="rgb(120, 70, 88)" stroke-opacity="0.46423876" stroke-linecap="round" stroke-linejoin="round"/>
    <path d="M 65.98880004882812 14.286840438842773 C 65.2156982421875 9.953155517578125 62.39249801635742 8.993988037109375 63.44162368774414 20.087600708007812" stroke-width="1.2021825313568115" fill="none" stroke="rgb(93, 123, 144)" stroke-opacity="0.57532626" stroke-linecap="round" stroke-linejoin="round"/>
    <path d="M 37.00937271118164 13.535202980041504 C 37.16413879394531 13.7084321975708 37.38930130004883 13.876471519470215 37.57085418701172 14.050999641418457 C 38.51210021972656 14.153024673461914 37.278385162353516 19.909975051879883 35.45820617675781 25.135631561279297" stroke-width="0.9142717719078064" fill="none" stroke="rgb(112, 86, 162)" stroke-opacity="0.46439597" stroke-linecap="round" stroke-linejoin="round"/>
    <path d="M 102.37771606445312 98.7042236328125 C 99.783447265625 90.86866760253906 100.31621551513672 88.85800170898438 100.29764556884766 92.83596801757812" stroke-width="0.9142717719078064" fill="none" stroke="rgb(113, 135, 18)" stroke-opacity="0.52292746" stroke-linecap="round" stroke-linejoin="round"/>
    <path d="M 43.754878997802734 42.70280456542969 C 45.422882080078125 47.26688766479492 44.50094985961914 49.125553131103516 51.291473388671875 46.87267303466797" stroke-width="1.4733489751815796" fill="none" stroke="rgb(75, 62, 100)" stroke-opacity="0.51388896" stroke-linecap="round" stroke-linejoin="round"/>
    <path d="M 59.2617073059082 36.26335525512695 C 61.28596496582031 35.649131774902344 63.36566925048828 35.09081268310547 66.21136474609375 35.25565719604492 C 68.16448211669922 34.60470199584961 65.39925384521484 36.977481842041016 61.88048553466797 38.55712890625" stroke-width="1.662645697593689" fill="none" stroke="rgb(62, 15, 26)" stroke-opacity="0.54036754" stroke-linecap="round" stroke-linejoin="round"/>
    <path d="M 1.5786241292953491 51.78152847290039 C 0.15008118748664856 55.010658264160156 1.8096085786819458 50.47331619262695 1.9820574522018433 52.03095245361328" stroke-width="0.999604344367981" fill="none" stroke="rgb(24, 159, 75)" stroke-opacity="0.48424315" stroke-linecap="round" stroke-linejoin="round"/>
    <path d="M 83.66141510009766 61.77568435668945 C 85.85771942138672 62.44180679321289 88.70380401611328 63.29068374633789 89.52705383300781 62.69269561767578 C 90.00092315673828 62.05000305175781 89.39842987060547 59.50828552246094 89.07318115234375 57.225135803222656 C 88.36184692382812 55.73469543457031 91.81631469726562 54.80345916748047 95.6450424194336 53.997955322265625" stroke-width="1.180598258972168" fill="none" stroke="rgb(8, 249, 181)" stroke-opacity="0.5454786" stroke-linecap="round" stroke-linejoin="round"/>
    <path d="M 42.642818450927734 81.91399383544922 C 44.3593864440918 78.84536743164062 45.41271209716797 75.0401382446289 46.41722869873047 71.3394775390625 C 47.43437957763672 67.55992889404297 46.173404693603516 68.41488647460938 45.05164337158203 69.25582122802734" stroke-width="1.070624589920044" fill="none" stroke="rgb(204, 254, 236)" stroke-opacity="0.49176663" stroke-linecap="round" stroke-linejoin="round"/>
    <path d="M 54.015846252441406 99.27265930175781 C 58.153343200683594 99.6013412475586 61.11573791503906 100.13836669921875 62.99694061279297 101.43486785888672 C 64.5312728881836 101.3243637084961 63.61961364746094 103.14281463623047 62.73914337158203 104.14689636230469 C 60.990943908691406 105.16600799560547 58.8099479675293 102.79557037353516 56.73114776611328 99.83722686767578" stroke-width="0.9455812573432922" fill="none" stroke="rgb(0, 79, 65)" stroke-opacity="0.51660943" stroke-linecap="round" stroke-linejoin="round"/>
    <path d="M 87.05640411376953 0.5282249450683594 C 85.47229766845703 1.0618077516555786 83.75501251220703 1.4412013292312622 81.18763732910156 1.1112451553344727 C 80.05259704589844 1.8856148719787598 85.05335235595703 1.0457396507263184 89.44178009033203 -0.4212062954902649" stroke-width="0.9142717719078064" fill="none" stroke="rgb(139, 16, 102)" stroke-opacity="0.47742227" stroke-linecap="round" stroke-linejoin="round"/>
    <path d="M 54.4259033203125 38.846473693847656 C 53.18283462524414 42.883609771728516 51.92911911010742 46.894020080566406 51.19786071777344 50.74302291870117 C 49.83865737915039 54.63602828979492 56.603981018066406 53.14830780029297 62.66377639770508 51.624000549316406" stroke-width="0.9654404520988464" fill="none" stroke="rgb(237, 255, 162)" stroke-opacity="0.46647218" stroke-linecap="round" stroke-linejoin="round"/>
    <path d="M 95.96634674072266 73.54150390625 C 91.84030151367188 74.97674560546875 91.67698669433594 71.04423522949219 91.87380981445312 62.72404479980469" stroke-width="1.401942253112793" fill="none" stroke="rgb(170, 173, 22)" stroke-opacity="0.5193298" stroke-linecap="round" stroke-linejoin="round"/>
    <path d="M 14.173637390136719 20.35330581665039 C 18.126718521118164 14.744693756103516 22.706127166748047 9.093280792236328 23.624168395996094 9.058746337890625 C 23.900718688964844 8.363431930541992 19.568330764770508 12.360431671142578 15.32988452911377 16.42466163635254 C 11.028096199035645 19.595754623413086 14.141068458557129 24.542667388916016 17.226436614990234 30.425369262695312" stroke-width="0.9142717719078064" fill="none" stroke="rgb(35, 2, 184)" stroke-opacity="0.51008576" stroke-linecap="round" stroke-linejoin="round"/>
    <path d="M 21.49308967590332 92.0821533203125 C 17.181541442871094 91.66913604736328 12.993040084838867 92.24893188476562 9.247047424316406 93.20174407958984 C 4.88881254196167 92.74994659423828 13.626872062683105 94.5042724609375 21.7296199798584 96.8987808227539" stroke-width="0.9142717719078064" fill="none" stroke="rgb(148, 172, 0)" stroke-opacity="0.5022335" stroke-linecap="round" stroke-linejoin="round"/>
    <path d="M 49.664852142333984 31.54505729675293 C 48.804405212402344 31.159584045410156 47.924835205078125 29.983659744262695 45.62291717529297 30.025657653808594 C 43.31077194213867 29.175838470458984 39.60090637207031 30.379398345947266 35.9404182434082 31.63849639892578 C 33.0677490234375 32.84336471557617 38.253875732421875 33.162498474121094 43.38225173950195 33.48779296875" stroke-width="1.6498018503189087" fill="none" stroke="rgb(58, 36, 26)" stroke-opacity="0.5605889" stroke-linecap="round" stroke-linejoin="round"/>
    <path d="M 8.380410194396973 26.367355346679688 C 9.000543594360352 15.74223518371582 9.134193420410156 13.863666534423828 4.754132270812988 8.951858520507812" stroke-width="0.9142717719078064" fill="none" stroke="rgb(134, 44, 251)" stroke-opacity="0.5324024" stroke-linecap="round" stroke-linejoin="round"/>
    <path d="M 55.102394104003906 39.69182586669922 C 51.65464401245117 42.75422286987305 53.100311279296875 44.050113677978516 53.07390594482422 49.428009033203125 C 49.50498580932617 49.52017593383789 50.80668640136719 47.228824615478516 47.19664001464844 47.04754638671875" stroke-width="0.9142717719078064" fill="none" stroke="rgb(234, 103, 247)" stroke-opacity="0.5552859" stroke-linecap="round" stroke-linejoin="round"/>
    <path d="M 15.332056999206543 15.541674613952637 C 17.56644058227539 18.028350830078125 21.845529556274414 23.03816795349121 20.669113159179688 20.791433334350586" stroke-width="1.038144588470459" fill="none" stroke="rgb(125, 218, 42)" stroke-opacity="0.34414402" stroke-linecap="round" stroke-linejoin="round"/>
    <path d="M 82.6722183227539 72.33123779296875 C 78.41399383544922 74.84330749511719 81.38094329833984 78.23664855957031 82.78915405273438 77.6269302368164" stroke-width="0.9142717719078064" fill="none" stroke="rgb(62, 130, 245)" stroke-opacity="0.23510368" stroke-linecap="round" stroke-linejoin="round"/>
    <path d="M 63.128536224365234 11.843976020812988 C 65.4822006225586 8.204122543334961 69.24374389648438 9.0947265625 64.54478454589844 10.418951034545898" stroke-width="0.9142717719078064" fill="none" stroke="rgb(179, 70, 173)" stroke-opacity="0.05315742" stroke-linecap="round" stroke-linejoin="round"/>
    <path d="M 1.3747601509094238 51.97715759277344 C -0.17702026665210724 49.99722671508789 1.7908614873886108 47.417362213134766 6.792544841766357 49.32836151123047 C 2.8919312953948975 48.345951080322266 2.592135190963745 48.505489349365234 6.169364929199219 44.638023376464844" stroke-width="1.087650179862976" fill="none" stroke="rgb(164, 132, 64)" stroke-opacity="0.5029343" stroke-linecap="round" stroke-linejoin="round"/>
    <path d="M 81.80052947998047 46.63148498535156 C 77.9200439453125 45.297054290771484 82.90406036376953 49.95671463012695 84.70957946777344 54.098350524902344 C 81.4156723022461 53.3465461730957 79.65459442138672 57.40418243408203 84.44036102294922 58.86182403564453 C 87.81526184082031 56.203346252441406 90.3248062133789 60.30730438232422 89.21581268310547 57.43035125732422" stroke-width="0.9142717719078064" fill="none" stroke="rgb(25, 127, 235)" stroke-opacity="0.8591098" stroke-linecap="round" stroke-linejoin="round"/>
    <path d="M 79.39554595947266 54.65738296508789 C 84.86152648925781 56.76161575317383 86.31243896484375 58.91400146484375 87.19981384277344 63.035797119140625" stroke-width="0.9142717719078064" fill="none" stroke="rgb(91, 144, 14)" stroke-opacity="0.53235364" stroke-linecap="round" stroke-linejoin="round"/>
    <path d="M 1.136763572692871 52.06476593017578 C 2.515001058578491 49.704898834228516 -0.7100641131401062 47.3639030456543 2.548192024230957 41.560096740722656" stroke-width="0.9914242625236511" fill="none" stroke="rgb(252, 35, 11)" stroke-opacity="1.0" stroke-linecap="round" stroke-linejoin="round"/>
    <path d="M 2.83575439453125 41.55638885498047 C 1.1446083784103394 47.130157470703125 -2.149789571762085 50.42805099487305 -6.690478324890137 47.065391540527344 C -11.695831298828125 45.133262634277344 -11.816781044006348 49.47532653808594 -14.11829948425293 47.530033111572266 C -10.791106224060059 48.68597412109375 -12.028398513793945 51.44753646850586 -15.166509628295898 53.099205017089844" stroke-width="1.0967729091644287" fill="none" stroke="rgb(211, 82, 142)" stroke-opacity="0.020364573" stroke-linecap="round" stroke-linejoin="round"/>
    <path d="M 20.718997955322266 20.829008102416992 C 26.049345016479492 24.871068954467773 29.809642791748047 26.86260986328125 27.5518798828125 22.016754150390625 C 27.101600646972656 18.502180099487305 26.754621505737305 15.384699821472168 32.014198303222656 20.540552139282227" stroke-width="1.0899981260299683" fill="none" stroke="rgb(49, 117, 18)" stroke-opacity="0.17160508" stroke-linecap="round" stroke-linejoin="round"/>
    <path d="M 81.92509460449219 77.73017883300781 C 77.76873016357422 76.65798950195312 74.69192504882812 72.53312683105469 72.80305480957031 70.37885284423828" stroke-width="0.9858832359313965" fill="none" stroke="rgb(76, 134, 19)" stroke-opacity="0.19345379" stroke-linecap="round" stroke-linejoin="round"/>
    <path d="M 65.29149627685547 11.31275463104248 C 63.83149719238281 15.459601402282715 58.963050842285156 12.226276397705078 62.25532150268555 9.40202522277832 C 62.517879486083984 11.683349609375 67.42457580566406 7.227551460266113 72.11756134033203 10.7538480758667 C 72.82342529296875 15.82734489440918 74.62503051757812 13.574748992919922 70.34009552001953 15.472526550292969" stroke-width="0.9142717719078064" fill="none" stroke="rgb(225, 37, 128)" stroke-opacity="0.21870963" stroke-linecap="round" stroke-linejoin="round"/>
    <path d="M 2.302417278289795 41.6064567565918 C 3.3793528079986572 38.66318130493164 3.477797031402588 43.141178131103516 6.935157775878906 41.166282653808594 C 5.968898773193359 44.165985107421875 4.730692386627197 39.56013107299805 3.000441789627075 38.58922576904297 C 5.242410182952881 36.094566345214844 5.070545196533203 35.56555938720703 1.8954088687896729 38.62918472290039" stroke-width="0.9513546228408813" fill="none" stroke="rgb(152, 152, 126)" stroke-opacity="0.7629844" stroke-linecap="round" stroke-linejoin="round"/>
    <path d="M 86.87432861328125 62.669342041015625 C 83.51582336425781 64.70769500732422 79.91727447509766 69.39087677001953 80.03058624267578 67.73106384277344 C 77.13423919677734 62.742618560791016 76.68280029296875 66.29378509521484 76.55362701416016 64.80243682861328 C 77.46159362792969 70.39968872070312 80.38082885742188 75.21458435058594 78.2013931274414 71.38088989257812" stroke-width="0.9142717719078064" fill="none" stroke="rgb(241, 131, 96)" stroke-opacity="0.97439694" stroke-linecap="round" stroke-linejoin="round"/>
    <path d="M 89.27581787109375 58.30885314941406 C 87.63668060302734 60.95695114135742 84.5398178100586 58.7863883972168 83.1061019897461 62.567962646484375" stroke-width="0.9142717719078064" fill="none" stroke="rgb(156, 213, 91)" stroke-opacity="0.19657272" stroke-linecap="round" stroke-linejoin="round"/>
    <path d="M 5.807492733001709 44.64928436279297 C 10.003347396850586 46.689361572265625 9.55257511138916 44.2287483215332 5.165763854980469 46.64690017700195 C 9.551786422729492 42.62440490722656 12.268142700195312 47.51023864746094 9.302536964416504 52.07304763793945 C 11.163219451904297 54.16212463378906 6.153360843658447 54.30546188354492 3.1112561225891113 56.731727600097656" stroke-width="0.9142717719078064" fill="none" stroke="rgb(19, 160, 110)" stroke-opacity="0.09261323" stroke-linecap="round" stroke-linejoin="round"/>
    <path d="M 1.459366798400879 29.942745208740234 C -0.6923128366470337 34.81049728393555 -3.6913557052612305 32.481868743896484 -3.9557018280029297 29.945362091064453" stroke-width="0.9922593235969543" fill="none" stroke="rgb(112, 235, 203)" stroke-opacity="0.43227452" stroke-linecap="round" stroke-linejoin="round"/>
    <path d="M 78.68602752685547 1.3943381309509277 C 76.10096740722656 4.548666954040527 71.64442443847656 7.523280143737793 74.50788879394531 8.717020034790039" stroke-width="0.9441645741462708" fill="none" stroke="rgb(224, 65, 18)" stroke-opacity="0.0072410246" stroke-linecap="round" stroke-linejoin="round"/>
    <path d="M 73.08496856689453 34.77968215942383 C 76.00120544433594 29.77196502685547 77.07382202148438 25.80485725402832 81.76428985595703 22.184022903442383 C 79.55207061767578 27.23687744140625 76.92147064208984 31.421430587768555 77.69237518310547 30.9018611907959" stroke-width="0.9142717719078064" fill="none" stroke="rgb(230, 108, 46)" stroke-opacity="0.8735193" stroke-linecap="round" stroke-linejoin="round"/>
    <path d="M 86.23159790039062 21.446229934692383 C 83.91648864746094 21.02158546447754 87.96151733398438 18.897300720214844 90.72645568847656 19.468015670776367 C 86.56536102294922 21.22760772705078 82.80422973632812 23.4084529876709 86.41084289550781 26.073455810546875" stroke-width="1.0015844106674194" fill="none" stroke="rgb(117, 254, 42)" stroke-opacity="0.1707552" stroke-linecap="round" stroke-linejoin="round"/>
    <path d="M 97.74337768554688 82.15689849853516 C 95.93315887451172 84.9153823852539 94.7261734008789 82.35974884033203 97.58518981933594 80.70734405517578" stroke-width="1.0629624128341675" fill="none" stroke="rgb(18, 184, 149)" stroke-opacity="0.72637606" stroke-linecap="round" stroke-linejoin="round"/>
    <path d="M 12.121630668640137 66.212890625 C 7.4285688400268555 65.23907470703125 3.4474265575408936 63.862144470214844 0.5763322710990906 65.39328002929688" stroke-width="1.0513536930084229" fill="none" stroke="rgb(95, 0, 217)" stroke-opacity="0.97727275" stroke-linecap="round" stroke-linejoin="round"/>
    <path d="M 67.594970703125 71.89557647705078 C 63.04780960083008 71.11475372314453 59.37326431274414 71.37178039550781 58.813507080078125 71.71647644042969 C 54.4913444519043 72.3830337524414 58.97223663330078 67.16316986083984 56.33613586425781 68.63914489746094" stroke-width="0.9142717719078064" fill="none" stroke="rgb(230, 109, 229)" stroke-opacity="0.062017545" stroke-linecap="round" stroke-linejoin="round"/>
    <path d="M 41.3511962890625 81.34270477294922 C 45.7569694519043 78.05326843261719 47.01698684692383 82.8145523071289 48.072052001953125 87.47648620605469" stroke-width="0.9142717719078064" fill="none" stroke="rgb(143, 138, 255)" stroke-opacity="0.7966928" stroke-linecap="round" stroke-linejoin="round"/>
    <path d="M 79.3060531616211 53.89856719970703 C 78.43212127685547 58.603633880615234 79.28286743164062 63.11508560180664 75.48954010009766 62.58406066894531 C 79.16780090332031 67.7495346069336 83.61503601074219 70.80459594726562 85.30449676513672 70.6719741821289 C 84.24066925048828 75.81304168701172 84.94469451904297 77.81309509277344 87.14110565185547 78.36166381835938" stroke-width="1.0051788091659546" fill="none" stroke="rgb(127, 37, 163)" stroke-opacity="0.8127869" stroke-linecap="round" stroke-linejoin="round"/>
    <path d="M 19.890533447265625 45.91062927246094 C 24.76421356201172 41.406463623046875 28.12038230895996 39.420166015625 29.49818992614746 39.96198654174805" stroke-width="0.9142717719078064" fill="none" stroke="rgb(231, 204, 227)" stroke-opacity="0.42901266" stroke-linecap="round" stroke-linejoin="round"/>
    <path d="M 21.373462677001953 77.03455352783203 C 25.886499404907227 78.17522430419922 26.411083221435547 79.10844421386719 23.24297332763672 76.64915466308594 C 24.820308685302734 78.43243408203125 27.01702117919922 76.97651672363281 30.89991569519043 74.36888885498047 C 34.69257736206055 79.86711120605469 39.012046813964844 83.0015869140625 37.94367599487305 81.17301177978516" stroke-width="0.9296979308128357" fill="none" stroke="rgb(216, 228, 67)" stroke-opacity="0.9773438" stroke-linecap="round" stroke-linejoin="round"/>
    <path d="M 21.634599685668945 50.27630615234375 C 20.550689697265625 49.56794357299805 23.418197631835938 51.63491439819336 27.134014129638672 51.618751525878906 C 28.819677352905273 53.07344055175781 29.37091827392578 50.7904167175293 33.850955963134766 51.52097702026367" stroke-width="1.0445013046264648" fill="none" stroke="rgb(168, 220, 205)" stroke-opacity="0.8660293" stroke-linecap="round" stroke-linejoin="round"/>
    <path d="M 28.95700454711914 25.229419708251953 C 32.69424057006836 27.252717971801758 28.66880226135254 24.1783504486084 28.99667739868164 28.24951934814453 C 28.32220458984375 31.38652992248535 30.413127899169922 31.50788688659668 28.386470794677734 26.861696243286133 C 30.489473342895508 29.073150634765625 33.24201583862305 26.329381942749023 37.39384841918945 29.518606185913086" stroke-width="0.9142717719078064" fill="none" stroke="rgb(255, 127, 60)" stroke-opacity="0.0" stroke-linecap="round" stroke-linejoin="round"/>
    <path d="M 45.44306564331055 68.16578674316406 C 40.58319854736328 67.15513610839844 37.8570442199707 62.44638442993164 41.386070251464844 67.43595123291016 C 43.90371322631836 64.99714660644531 48.87446212768555 61.38388442993164 53.58162307739258 58.10490036010742 C 52.851417541503906 62.03007507324219 50.154869079589844 57.733673095703125 51.147979736328125 57.554561614990234" stroke-width="0.9142717719078064" fill="none" stroke="rgb(141, 65, 164)" stroke-opacity="0.4337067" stroke-linecap="round" stroke-linejoin="round"/>
    <path d="M 43.81438446044922 91.63007354736328 C 44.6068229675293 89.14767456054688 39.717411041259766 84.8875732421875 42.10536575317383 81.71965789794922 C 44.047550201416016 82.33241271972656 46.849021911621094 77.54914093017578 51.72395324707031 81.85660552978516 C 47.325382232666016 81.53475189208984 44.6815185546875 81.66883850097656 46.82546615600586 81.57508087158203" stroke-width="0.9142717719078064" fill="none" stroke="rgb(45, 193, 7)" stroke-opacity="0.25679386" stroke-linecap="round" stroke-linejoin="round"/>
    <path d="M 83.19773864746094 100.50272369384766 C 81.10628509521484 104.4844970703125 84.3839340209961 105.30287170410156 80.64490509033203 101.94498443603516" stroke-width="0.9450019598007202" fill="none" stroke="rgb(19, 0, 33)" stroke-opacity="0.7922644" stroke-linecap="round" stroke-linejoin="round"/>
  </g>
</svg>
