<?xml version="1.0" ?>
<svg xmlns="http://www.w3.org/2000/svg" version="1.1" width="956.0" height="956.0">
  <defs/>
  <g>
    <path d="M 39.732879638671875 75.82266235351562 C 68.18802642822266 84.52836608886719 96.76741790771484 81.2998046875 97.29443359375 78.24201202392578 C 97.32086944580078 74.6632080078125 67.94677734375 64.39752197265625 44.331748962402344 72.64606475830078" stroke-width="1.1892671585083008" fill="none" stroke="rgb(87, 93, 79)" stroke-opacity="0.9842254" stroke-linecap="round" stroke-linejoin="round"/>
    <path d="M 70.14143371582031 76.38330841064453 C 68.40726470947266 61.59068298339844 67.24342346191406 46.37064743041992 69.23451232910156 30.516387939453125" stroke-width="1.1892671585083008" fill="none" stroke="rgb(165, 118, 23)" stroke-opacity="0.9802927" stroke-linecap="round" stroke-linejoin="round"/>
    <path d="M 69.60970306396484 49.40767288208008 C 76.26722717285156 45.120811462402344 80.15422821044922 45.04823303222656 81.14823913574219 45.36714553833008" stroke-width="1.1892671585083008" fill="none" stroke="rgb(169, 118, 23)" stroke-opacity="0.9804361" stroke-linecap="round" stroke-linejoin="round"/>
    <path d="M 67.27676391601562 57.438514709472656 C 58.7999382019043 53.53033447265625 59.925209045410156 45.66628646850586 54.65917205810547 46.14299774169922" stroke-width="1.1892671585083008" fill="none" stroke="rgb(169, 118, 20)" stroke-opacity="0.9833383" stroke-linecap="round" stroke-linejoin="round"/>
    <path d="M 71.16678619384766 31.196815490722656 C 71.17508697509766 23.47860336303711 77.85063934326172 20.08325958251953 79.36479949951172 17.826644897460938" stroke-width="1.1892671585083008" fill="none" stroke="rgb(169, 108, 23)" stroke-opacity="0.98023623" stroke-linecap="round" stroke-linejoin="round"/>
    <path d="M 70.09054565429688 30.13139533996582 C 65.14494323730469 25.2352294921875 63.48413848876953 23.891685485839844 62.15605163574219 22.45716094970703" stroke-width="1.2475926876068115" fill="none" stroke="rgb(169, 108, 21)" stroke-opacity="0.98210937" stroke-linecap="round" stroke-linejoin="round"/>
    <path d="M 61.258296966552734 22.80327606201172 C 61.31675720214844 22.6788330078125 62.673709869384766 20.269590377807617 61.977996826171875 19.663389205932617 C 60.121524810791016 19.95969581604004 58.840309143066406 19.237380981445312 58.87699890136719 18.97603988647461" stroke-width="1.3004648685455322" fill="none" stroke="rgb(169, 114, 13)" stroke-opacity="1.0" stroke-linecap="round" stroke-linejoin="round"/>
    <path d="M 61.04787063598633 22.443449020385742 C 54.317161560058594 25.118167877197266 53.91933059692383 25.43712615966797 53.583900451660156 26.010419845581055" stroke-width="1.2832876443862915" fill="none" stroke="rgb(169, 108, 15)" stroke-opacity="1.0" stroke-linecap="round" stroke-linejoin="round"/>
    <path d="M 82.24890899658203 45.42207336425781 C 81.63887023925781 45.405487060546875 81.08783721923828 43.202144622802734 81.70890808105469 42.54706573486328 C 82.0837631225586 41.75152587890625 83.30559539794922 40.985374450683594 83.3711166381836 41.34341049194336" stroke-width="1.3081899881362915" fill="none" stroke="rgb(162, 108, 14)" stroke-opacity="1.0" stroke-linecap="round" stroke-linejoin="round"/>
    <path d="M 81.13238525390625 46.52217483520508 C 88.24148559570312 48.71050262451172 89.63600158691406 47.971858978271484 89.55638122558594 48.49748611450195" stroke-width="1.1892671585083008" fill="none" stroke="rgb(166, 118, 23)" stroke-opacity="0.98004836" stroke-linecap="round" stroke-linejoin="round"/>
    <path d="M 79.99717712402344 17.821928024291992 C 79.77972412109375 18.51999282836914 82.00819396972656 19.318851470947266 82.9962158203125 19.18833351135254 C 84.55796813964844 18.807649612426758 85.59406280517578 19.65560531616211 84.54069519042969 19.15610694885254" stroke-width="1.1892671585083008" fill="none" stroke="rgb(165, 118, 23)" stroke-opacity="0.98129827" stroke-linecap="round" stroke-linejoin="round"/>
    <path d="M 70.1294174194336 30.736656188964844 C 68.95682525634766 30.06953239440918 70.90782165527344 27.499135971069336 71.86624145507812 27.91617202758789 C 73.16487121582031 27.761825561523438 74.91350555419922 28.564491271972656 75.76248168945312 28.48347282409668" stroke-width="1.2874157428741455" fill="none" stroke="rgb(169, 108, 13)" stroke-opacity="1.0" stroke-linecap="round" stroke-linejoin="round"/>
    <path d="M 79.42838287353516 18.243715286254883 C 81.65191650390625 11.031170845031738 75.12704467773438 15.107558250427246 74.94810485839844 14.77336597442627" stroke-width="1.2143570184707642" fill="none" stroke="rgb(160, 108, 23)" stroke-opacity="1.0" stroke-linecap="round" stroke-linejoin="round"/>
    <path d="M 66.1789321899414 41.07330322265625 C 67.27974700927734 40.591983795166016 67.03927612304688 38.10219955444336 65.32582092285156 38.51293182373047 C 64.88558959960938 36.792724609375 64.39110565185547 35.96284103393555 64.39189910888672 36.345848083496094" stroke-width="1.302377700805664" fill="none" stroke="rgb(165, 110, 14)" stroke-opacity="1.0" stroke-linecap="round" stroke-linejoin="round"/>
    <path d="M 53.981903076171875 45.89059829711914 C 53.600162506103516 45.977237701416016 54.11922836303711 44.794921875 53.39242935180664 42.95712661743164 C 53.81875228881836 42.33203887939453 51.89702224731445 42.21390151977539 51.465431213378906 42.492523193359375" stroke-width="1.2959245443344116" fill="none" stroke="rgb(169, 108, 20)" stroke-opacity="0.99728876" stroke-linecap="round" stroke-linejoin="round"/>
    <path d="M 54.59983825683594 46.74713897705078 C 49.19656753540039 51.19875717163086 47.37999725341797 49.6085090637207 46.29575729370117 49.68840789794922" stroke-width="1.300287127494812" fill="none" stroke="rgb(169, 109, 14)" stroke-opacity="1.0" stroke-linecap="round" stroke-linejoin="round"/>
    <path d="M 44.52638626098633 49.96479034423828 C 44.63328552246094 53.87050247192383 42.095497131347656 57.28133773803711 39.65864181518555 57.659610748291016" stroke-width="1.1892671585083008" fill="none" stroke="rgb(32, 127, 19)" stroke-opacity="0.98012704" stroke-linecap="round" stroke-linejoin="round"/>
    <path d="M 45.20479965209961 50.520660400390625 C 37.72893524169922 52.69902420043945 39.26980209350586 57.29887771606445 39.61354446411133 56.78109359741211" stroke-width="1.1892671585083008" fill="none" stroke="rgb(23, 125, 19)" stroke-opacity="1.0" stroke-linecap="round" stroke-linejoin="round"/>
    <path d="M 45.845542907714844 49.651302337646484 C 40.93848419189453 52.99704360961914 39.512290954589844 55.11137771606445 38.97373580932617 57.1795654296875" stroke-width="1.1892671585083008" fill="none" stroke="rgb(90, 229, 55)" stroke-opacity="0.9860641" stroke-linecap="round" stroke-linejoin="round"/>
    <path d="M 45.20934295654297 49.04963302612305 C 41.659210205078125 50.20798873901367 37.37205123901367 50.685569763183594 35.77320098876953 49.32612991333008" stroke-width="1.1892671585083008" fill="none" stroke="rgb(24, 123, 16)" stroke-opacity="1.0" stroke-linecap="round" stroke-linejoin="round"/>
    <path d="M 45.6451301574707 48.30546188354492 C 39.14105224609375 43.95553970336914 36.349365234375 48.06725311279297 36.397666931152344 48.16975784301758" stroke-width="1.1892671585083008" fill="none" stroke="rgb(23, 127, 19)" stroke-opacity="0.99375933" stroke-linecap="round" stroke-linejoin="round"/>
    <path d="M 46.16055679321289 49.43204116821289 C 43.27500534057617 47.56120681762695 37.68917465209961 47.47475814819336 35.977508544921875 48.23988723754883" stroke-width="1.1892671585083008" fill="none" stroke="rgb(91, 234, 55)" stroke-opacity="0.98073244" stroke-linecap="round" stroke-linejoin="round"/>
    <path d="M 51.91814422607422 24.843542098999023 C 49.033809661865234 25.89407730102539 45.96662902832031 26.163803100585938 43.85140609741211 24.707612991333008" stroke-width="1.1892671585083008" fill="none" stroke="rgb(25, 133, 11)" stroke-opacity="0.9943724" stroke-linecap="round" stroke-linejoin="round"/>
    <path d="M 51.96025085449219 26.013755798339844 C 46.18061065673828 21.408353805541992 43.5003776550293 25.4199161529541 42.97114944458008 25.87084197998047" stroke-width="1.1892671585083008" fill="none" stroke="rgb(33, 132, 12)" stroke-opacity="0.9815756" stroke-linecap="round" stroke-linejoin="round"/>
    <path d="M 54.25606155395508 26.552888870239258 C 48.094844818115234 25.028512954711914 45.351646423339844 25.255523681640625 44.24547576904297 25.8919677734375" stroke-width="1.2724891901016235" fill="none" stroke="rgb(87, 234, 49)" stroke-opacity="1.0" stroke-linecap="round" stroke-linejoin="round"/>
    <path d="M 53.34775924682617 27.899810791015625 C 53.00602340698242 30.94922637939453 51.36686325073242 34.86936569213867 49.16315460205078 36.05876922607422" stroke-width="1.2970974445343018" fill="none" stroke="rgb(33, 133, 9)" stroke-opacity="1.0" stroke-linecap="round" stroke-linejoin="round"/>
    <path d="M 52.29768371582031 26.75928497314453 C 45.82717514038086 30.707481384277344 48.21150207519531 35.8260498046875 48.2640266418457 35.94620132446289" stroke-width="1.3076860904693604" fill="none" stroke="rgb(23, 123, 9)" stroke-opacity="1.0" stroke-linecap="round" stroke-linejoin="round"/>
    <path d="M 53.6193733215332 25.63458251953125 C 49.551177978515625 29.996580123901367 48.60822296142578 32.389427185058594 49.06023406982422 34.401920318603516" stroke-width="1.2736799716949463" fill="none" stroke="rgb(86, 234, 49)" stroke-opacity="0.98248756" stroke-linecap="round" stroke-linejoin="round"/>
    <path d="M 50.766117095947266 42.43867111206055 C 48.34038543701172 44.287689208984375 44.34293746948242 45.73844528198242 41.65983200073242 44.93408966064453" stroke-width="1.2534435987472534" fill="none" stroke="rgb(26, 123, 15)" stroke-opacity="1.0" stroke-linecap="round" stroke-linejoin="round"/>
    <path d="M 50.80783462524414 41.3869743347168 C 42.61473083496094 39.2097282409668 41.93524932861328 43.949275970458984 41.969207763671875 44.936729431152344" stroke-width="1.2791707515716553" fill="none" stroke="rgb(23, 133, 16)" stroke-opacity="0.9955266" stroke-linecap="round" stroke-linejoin="round"/>
    <path d="M 51.90652847290039 41.533599853515625 C 45.4505500793457 41.51576614379883 43.04220962524414 42.4538459777832 41.44996643066406 43.71220016479492" stroke-width="1.1892671585083008" fill="none" stroke="rgb(88, 235, 55)" stroke-opacity="0.98056155" stroke-linecap="round" stroke-linejoin="round"/>
    <path d="M 50.573638916015625 41.00370788574219 C 47.47435760498047 40.50647735595703 43.777549743652344 38.35826873779297 43.317718505859375 36.01915740966797" stroke-width="1.1892671585083008" fill="none" stroke="rgb(23, 133, 12)" stroke-opacity="1.0" stroke-linecap="round" stroke-linejoin="round"/>
    <path d="M 51.59856033325195 40.0026969909668 C 48.54574203491211 32.787010192871094 44.11091995239258 34.70191955566406 44.0286750793457 34.85816192626953" stroke-width="1.275826096534729" fill="none" stroke="rgb(24, 133, 10)" stroke-opacity="0.99221617" stroke-linecap="round" stroke-linejoin="round"/>
    <path d="M 51.149314880371094 41.5997314453125 C 47.24777603149414 38.00779724121094 44.6518440246582 36.44137191772461 43.4716682434082 35.62276840209961" stroke-width="1.1892671585083008" fill="none" stroke="rgb(84, 235, 48)" stroke-opacity="0.99388415" stroke-linecap="round" stroke-linejoin="round"/>
    <path d="M 57.05225372314453 17.840002059936523 C 54.79280090332031 19.91307830810547 50.99187469482422 21.339399337768555 48.70597457885742 20.550296783447266" stroke-width="1.2491950988769531" fill="none" stroke="rgb(33, 133, 9)" stroke-opacity="0.98011976" stroke-linecap="round" stroke-linejoin="round"/>
    <path d="M 58.21841049194336 18.57823371887207 C 50.636775970458984 16.33769416809082 49.28614044189453 21.11957359313965 49.202919006347656 21.19746208190918" stroke-width="1.2843101024627686" fill="none" stroke="rgb(32, 132, 10)" stroke-opacity="1.0" stroke-linecap="round" stroke-linejoin="round"/>
    <path d="M 59.201663970947266 18.370243072509766 C 53.244712829589844 18.401134490966797 50.88167190551758 19.381624221801758 49.94255065917969 20.65210723876953" stroke-width="1.2808187007904053" fill="none" stroke="rgb(93, 234, 45)" stroke-opacity="1.0" stroke-linecap="round" stroke-linejoin="round"/>
    <path d="M 59.04248809814453 16.543621063232422 C 56.06192398071289 15.87789535522461 51.49958419799805 13.746742248535156 50.346046447753906 12.500086784362793" stroke-width="1.1892671585083008" fill="none" stroke="rgb(27, 133, 19)" stroke-opacity="0.9800142" stroke-linecap="round" stroke-linejoin="round"/>
    <path d="M 57.863895416259766 17.7077579498291 C 54.79821014404297 10.472325325012207 50.40837860107422 12.386695861816406 50.37059783935547 12.509360313415527" stroke-width="1.1892671585083008" fill="none" stroke="rgb(26, 133, 19)" stroke-opacity="0.9804689" stroke-linecap="round" stroke-linejoin="round"/>
    <path d="M 58.8420524597168 19.09957504272461 C 55.0518684387207 14.622703552246094 52.728973388671875 13.451116561889648 50.79703140258789 12.931366920471191" stroke-width="1.1892671585083008" fill="none" stroke="rgb(86, 225, 55)" stroke-opacity="1.0" stroke-linecap="round" stroke-linejoin="round"/>
    <path d="M 73.38768005371094 14.572752952575684 C 70.88826751708984 16.366962432861328 66.90190887451172 17.73755645751953 64.4756088256836 15.858376502990723" stroke-width="1.1892671585083008" fill="none" stroke="rgb(33, 123, 19)" stroke-opacity="0.9801018" stroke-linecap="round" stroke-linejoin="round"/>
    <path d="M 72.64070129394531 13.4531831741333 C 65.39514923095703 11.119329452514648 64.37615203857422 16.372983932495117 63.34638977050781 17.01647186279297" stroke-width="1.3079460859298706" fill="none" stroke="rgb(23, 125, 20)" stroke-opacity="1.0" stroke-linecap="round" stroke-linejoin="round"/>
    <path d="M 74.04365539550781 14.789140701293945 C 68.01240539550781 13.618317604064941 65.69641876220703 14.555663108825684 63.9783935546875 15.82363510131836" stroke-width="1.2646188735961914" fill="none" stroke="rgb(87, 233, 54)" stroke-opacity="0.99087113" stroke-linecap="round" stroke-linejoin="round"/>
    <path d="M 73.7275619506836 12.100098609924316 C 70.0768814086914 11.662454605102539 66.3310775756836 10.447504043579102 66.20488739013672 7.762399196624756" stroke-width="1.1892671585083008" fill="none" stroke="rgb(26, 133, 20)" stroke-opacity="0.981868" stroke-linecap="round" stroke-linejoin="round"/>
    <path d="M 73.07826232910156 13.21794605255127 C 69.9894027709961 5.325866222381592 66.43359375 7.930301189422607 66.40149688720703 7.990680694580078" stroke-width="1.1892671585083008" fill="none" stroke="rgb(33, 132, 19)" stroke-opacity="0.98009074" stroke-linecap="round" stroke-linejoin="round"/>
    <path d="M 75.14474487304688 13.617563247680664 C 71.2542953491211 9.729406356811523 68.30111694335938 8.576993942260742 66.7209701538086 8.247517585754395" stroke-width="1.3015671968460083" fill="none" stroke="rgb(84, 234, 45)" stroke-opacity="1.0" stroke-linecap="round" stroke-linejoin="round"/>
    <path d="M 90.89456176757812 49.88313674926758 C 90.6691665649414 53.61477279663086 90.88834381103516 58.16618728637695 92.38368225097656 59.41790771484375" stroke-width="1.2463618516921997" fill="none" stroke="rgb(23, 123, 9)" stroke-opacity="1.0" stroke-linecap="round" stroke-linejoin="round"/>
    <path d="M 90.52884674072266 50.14228820800781 C 96.37373352050781 55.46788024902344 93.03569793701172 59.120582580566406 92.76876068115234 58.826820373535156" stroke-width="1.3081971406936646" fill="none" stroke="rgb(24, 132, 16)" stroke-opacity="1.0" stroke-linecap="round" stroke-linejoin="round"/>
    <path d="M 89.75481414794922 48.48355484008789 C 92.81954193115234 53.53546142578125 92.30778503417969 57.20345687866211 92.93476104736328 59.263397216796875" stroke-width="1.2835638523101807" fill="none" stroke="rgb(87, 235, 47)" stroke-opacity="1.0" stroke-linecap="round" stroke-linejoin="round"/>
    <path d="M 91.0775146484375 48.8447151184082 C 93.75933074951172 50.64527893066406 97.52436828613281 52.646419525146484 99.54745483398438 53.35489273071289" stroke-width="1.1892671585083008" fill="none" stroke="rgb(27, 133, 13)" stroke-opacity="0.98086166" stroke-linecap="round" stroke-linejoin="round"/>
    <path d="M 91.54686737060547 49.686119079589844 C 98.2905044555664 47.31183624267578 98.87477111816406 53.106475830078125 98.80357360839844 52.66324234008789" stroke-width="1.1892671585083008" fill="none" stroke="rgb(26, 132, 19)" stroke-opacity="0.9807498" stroke-linecap="round" stroke-linejoin="round"/>
    <path d="M 89.07965087890625 49.63624954223633 C 94.50419616699219 50.458534240722656 96.77429962158203 51.736209869384766 98.26051330566406 52.48430252075195" stroke-width="1.1892671585083008" fill="none" stroke="rgb(86, 232, 48)" stroke-opacity="0.9994703" stroke-linecap="round" stroke-linejoin="round"/>
    <path d="M 86.72036743164062 20.462690353393555 C 86.52001190185547 23.61699867248535 87.43486022949219 27.644901275634766 89.37142944335938 29.24761962890625" stroke-width="1.1892671585083008" fill="none" stroke="rgb(23, 133, 17)" stroke-opacity="0.99595237" stroke-linecap="round" stroke-linejoin="round"/>
    <path d="M 85.64924621582031 21.125314712524414 C 92.73036193847656 26.360431671142578 89.51329040527344 30.258594512939453 89.40415954589844 30.325658798217773" stroke-width="1.3027397394180298" fill="none" stroke="rgb(24, 127, 10)" stroke-opacity="1.0" stroke-linecap="round" stroke-linejoin="round"/>
    <path d="M 85.11873626708984 19.49582290649414 C 88.14275360107422 24.952425003051758 89.31116485595703 26.64594078063965 88.95698547363281 29.560382843017578" stroke-width="1.2878198623657227" fill="none" stroke="rgb(84, 229, 51)" stroke-opacity="1.0" stroke-linecap="round" stroke-linejoin="round"/>
    <path d="M 86.2722396850586 20.201309204101562 C 88.47251892089844 22.336597442626953 92.20648193359375 24.332258224487305 95.09384155273438 23.889972686767578" stroke-width="1.2963217496871948" fill="none" stroke="rgb(24, 133, 10)" stroke-opacity="0.99643826" stroke-linecap="round" stroke-linejoin="round"/>
    <path d="M 87.41294860839844 19.45457649230957 C 94.68923950195312 18.17754554748535 94.72614288330078 23.010761260986328 94.76103973388672 22.91004180908203" stroke-width="1.2490767240524292" fill="none" stroke="rgb(24, 133, 10)" stroke-opacity="1.0" stroke-linecap="round" stroke-linejoin="round"/>
    <path d="M 85.1240463256836 19.00383949279785 C 91.51892852783203 19.83833885192871 93.78709411621094 21.110130310058594 95.24066925048828 22.5516414642334" stroke-width="1.3068653345108032" fill="none" stroke="rgb(84, 235, 45)" stroke-opacity="1.0" stroke-linecap="round" stroke-linejoin="round"/>
    <path d="M 76.05641174316406 30.471960067749023 C 74.34326171875 33.31125259399414 73.01336669921875 37.34278106689453 73.18303680419922 39.221824645996094" stroke-width="1.1892671585083008" fill="none" stroke="rgb(24, 133, 19)" stroke-opacity="0.98288506" stroke-linecap="round" stroke-linejoin="round"/>
    <path d="M 74.9245376586914 29.7625732421875 C 77.49166107177734 38.09596633911133 73.28343963623047 39.6961784362793 73.93235778808594 38.85337448120117" stroke-width="1.2569011449813843" fill="none" stroke="rgb(23, 133, 14)" stroke-opacity="1.0" stroke-linecap="round" stroke-linejoin="round"/>
    <path d="M 74.96702575683594 28.929027557373047 C 75.9062728881836 34.95806884765625 75.15066528320312 37.395484924316406 72.8870620727539 38.024654388427734" stroke-width="1.2609732151031494" fill="none" stroke="rgb(84, 234, 55)" stroke-opacity="1.0" stroke-linecap="round" stroke-linejoin="round"/>
    <path d="M 77.28607940673828 28.7152156829834 C 78.14506530761719 31.679851531982422 80.41004180908203 35.293182373046875 82.67694854736328 36.14334487915039" stroke-width="1.1892671585083008" fill="none" stroke="rgb(33, 133, 19)" stroke-opacity="0.98199826" stroke-linecap="round" stroke-linejoin="round"/>
    <path d="M 76.20600891113281 29.157556533813477 C 84.64907836914062 32.64740753173828 82.89823150634766 36.00079345703125 82.66744995117188 36.110015869140625" stroke-width="1.1892671585083008" fill="none" stroke="rgb(33, 133, 19)" stroke-opacity="0.9803727" stroke-linecap="round" stroke-linejoin="round"/>
    <path d="M 75.6215591430664 28.132410049438477 C 79.32040405273438 32.63551712036133 80.63494873046875 34.860595703125 81.83499145507812 36.75711441040039" stroke-width="1.1892671585083008" fill="none" stroke="rgb(86, 235, 48)" stroke-opacity="0.9965878" stroke-linecap="round" stroke-linejoin="round"/>
    <path d="M 85.41069030761719 39.54258346557617 C 84.73680114746094 36.508304595947266 84.3605728149414 32.422183990478516 86.12767791748047 30.485214233398438" stroke-width="1.1892671585083008" fill="none" stroke="rgb(23, 133, 19)" stroke-opacity="0.9802631" stroke-linecap="round" stroke-linejoin="round"/>
    <path d="M 85.48442077636719 40.65320587158203 C 90.94332885742188 35.00434112548828 87.46227264404297 31.710681915283203 86.13517761230469 31.631927490234375" stroke-width="1.265175461769104" fill="none" stroke="rgb(23, 130, 10)" stroke-opacity="1.0" stroke-linecap="round" stroke-linejoin="round"/>
    <path d="M 84.26798248291016 41.97040939331055 C 86.72189331054688 36.372840881347656 87.10511779785156 33.11732482910156 86.7049789428711 31.79218101501465" stroke-width="1.1892671585083008" fill="none" stroke="rgb(94, 235, 45)" stroke-opacity="1.0" stroke-linecap="round" stroke-linejoin="round"/>
    <path d="M 85.1388931274414 40.802345275878906 C 87.10992431640625 38.4673957824707 90.6563720703125 36.211734771728516 93.25094604492188 37.51581573486328" stroke-width="1.1892671585083008" fill="none" stroke="rgb(32, 133, 20)" stroke-opacity="0.9803316" stroke-linecap="round" stroke-linejoin="round"/>
    <path d="M 85.16837310791016 41.48031997680664 C 93.68104553222656 41.39595031738281 93.96935272216797 37.3201904296875 93.20610046386719 37.092506408691406" stroke-width="1.2001619338989258" fill="none" stroke="rgb(31, 124, 14)" stroke-opacity="0.9813177" stroke-linecap="round" stroke-linejoin="round"/>
    <path d="M 84.2331314086914 41.695011138916016 C 90.23927307128906 40.722137451171875 92.33772277832031 39.235958099365234 93.7195053100586 37.47792053222656" stroke-width="1.1892671585083008" fill="none" stroke="rgb(84, 225, 49)" stroke-opacity="1.0" stroke-linecap="round" stroke-linejoin="round"/>
    <path d="M 61.40945816040039 35.697933197021484 C 58.935089111328125 37.52775573730469 54.94252395629883 39.39634704589844 53.7133674621582 38.6024169921875" stroke-width="1.3038079738616943" fill="none" stroke="rgb(33, 127, 10)" stroke-opacity="1.0" stroke-linecap="round" stroke-linejoin="round"/>
    <path d="M 62.47552490234375 35.974884033203125 C 55.093772888183594 33.74272537231445 53.69153594970703 39.11090850830078 52.55658721923828 39.27494812011719" stroke-width="1.305749535560608" fill="none" stroke="rgb(31, 133, 9)" stroke-opacity="0.99528676" stroke-linecap="round" stroke-linejoin="round"/>
    <path d="M 63.26396560668945 37.06341552734375 C 58.28395462036133 37.076194763183594 55.5997314453125 37.76150894165039 53.18344497680664 38.73703384399414" stroke-width="1.3065388202667236" fill="none" stroke="rgb(85, 234, 45)" stroke-opacity="1.0" stroke-linecap="round" stroke-linejoin="round"/>
    <path d="M 62.42104721069336 35.66117858886719 C 59.41573715209961 34.840919494628906 55.61726379394531 32.916542053222656 55.12908935546875 30.64773941040039" stroke-width="1.1892671585083008" fill="none" stroke="rgb(24, 133, 10)" stroke-opacity="0.9963203" stroke-linecap="round" stroke-linejoin="round"/>
    <path d="M 62.920265197753906 34.729454040527344 C 60.24893569946289 27.205158233642578 55.88248062133789 29.10857391357422 55.7161750793457 30.280366897583008" stroke-width="1.3080743551254272" fill="none" stroke="rgb(23, 133, 13)" stroke-opacity="1.0" stroke-linecap="round" stroke-linejoin="round"/>
    <path d="M 63.08388900756836 36.36335372924805 C 59.188655853271484 31.818387985229492 56.95029830932617 29.66840171813965 55.91984939575195 30.195178985595703" stroke-width="1.271153450012207" fill="none" stroke="rgb(84, 235, 46)" stroke-opacity="1.0" stroke-linecap="round" stroke-linejoin="round"/>
    <path d="M 46.32914733886719 82.75009155273438 C 68.73988342285156 91.53229522705078 88.6530532836914 87.03821563720703 91.1877670288086 87.063232421875" stroke-width="1.303519606590271" fill="none" stroke="rgb(219, 64, 29)" stroke-opacity="1.0" stroke-linecap="round" stroke-linejoin="round"/>
    <path d="M 75.89800262451172 86.80339050292969 C 76.49153137207031 86.7801513671875 75.977294921875 87.10768127441406 75.91021728515625 87.85610961914062 C 75.91091918945312 89.76348876953125 75.89752197265625 90.6679458618164 77.07450866699219 92.01435089111328 C 77.01226043701172 94.36980438232422 76.8087158203125 96.49691772460938 76.63988494873047 99.23936462402344 C 76.73564147949219 99.75187683105469 77.04361724853516 102.54704284667969 76.77195739746094 102.98139190673828 C 76.22769165039062 103.42414855957031 74.6331558227539 103.1417465209961 72.81092834472656 102.51573181152344 C 70.55419158935547 102.81997680664062 68.49691772460938 103.30526733398438 66.32050323486328 103.52942657470703 C 61.85246658325195 103.98237609863281 56.72390365600586 105.00875854492188 53.32761001586914 104.95254516601562 C 47.31205368041992 103.37152862548828 43.4555778503418 97.63103485107422 42.8267707824707 93.16571807861328 C 42.683692932128906 91.87387084960938 43.18622589111328 87.4156723022461 43.454891204833984 85.95897674560547 C 44.659523010253906 79.90081787109375 46.57063674926758 77.3232650756836 52.69220733642578 78.22006225585938" stroke-width="1.1892671585083008" fill="none" stroke="rgb(20, 28, 18)" stroke-opacity="1.0" stroke-linecap="round" stroke-linejoin="round"/>
    <path d="M 85.5285415649414 41.28254699707031 C 81.81350708007812 41.25271987915039 84.29571533203125 41.48811340332031 82.80403137207031 43.8675537109375" stroke-width="1.2484076023101807" fill="none" stroke="rgb(214, 153, 180)" stroke-opacity="0.6496999" stroke-linecap="round" stroke-linejoin="round"/>
    <path d="M 61.68718338012695 23.557655334472656 C 60.58930587768555 17.84343719482422 60.46087646484375 17.36509895324707 56.129547119140625 20.098108291625977 C 54.27776336669922 20.694080352783203 48.379295349121094 26.780179977416992 55.45069122314453 31.956602096557617" stroke-width="1.1892671585083008" fill="none" stroke="rgb(13, 79, 189)" stroke-opacity="0.8635733" stroke-linecap="round" stroke-linejoin="round"/>
    <path d="M 68.95165252685547 30.12727928161621 C 73.87151336669922 24.416629791259766 71.26483917236328 30.46126937866211 64.72262573242188 35.71132278442383" stroke-width="1.4268280267715454" fill="none" stroke="rgb(162, 150, 184)" stroke-opacity="0.28061947" stroke-linecap="round" stroke-linejoin="round"/>
    <path d="M 54.62673568725586 46.48011779785156 C 56.769832611083984 48.518550872802734 56.84920120239258 43.7066535949707 57.97757339477539 37.8130989074707" stroke-width="1.2163074016571045" fill="none" stroke="rgb(114, 176, 161)" stroke-opacity="0.12946442" stroke-linecap="round" stroke-linejoin="round"/>
    <path d="M 58.87800979614258 19.243974685668945 C 54.56954574584961 20.007783889770508 49.7628059387207 20.410329818725586 43.14072036743164 26.00347137451172 C 40.65815734863281 27.994585037231445 45.418983459472656 25.339702606201172 43.68183135986328 24.01008415222168 C 43.249267578125 29.466768264770508 37.474327087402344 28.287681579589844 40.59016799926758 23.151391983032227" stroke-width="1.1892671585083008" fill="none" stroke="rgb(193, 41, 246)" stroke-opacity="0.44983298" stroke-linecap="round" stroke-linejoin="round"/>
    <path d="M 90.78515625 49.345664978027344 C 85.76806640625 44.29221725463867 88.81221008300781 45.135169982910156 96.09441375732422 44.265113830566406 C 98.0873794555664 42.83557891845703 96.89157104492188 40.588111877441406 95.19528198242188 39.67029571533203 C 97.47561645507812 41.32771301269531 94.76779174804688 47.34401321411133 88.37510681152344 43.755306243896484" stroke-width="1.4167139530181885" fill="none" stroke="rgb(109, 108, 123)" stroke-opacity="0.33074814" stroke-linecap="round" stroke-linejoin="round"/>
    <path d="M 54.00324630737305 26.283740997314453 C 50.13624954223633 25.808805465698242 47.97502136230469 21.833663940429688 46.325965881347656 23.746328353881836" stroke-width="1.1892671585083008" fill="none" stroke="rgb(126, 181, 5)" stroke-opacity="0.66514003" stroke-linecap="round" stroke-linejoin="round"/>
    <path d="M 63.61915969848633 15.895957946777344 C 67.45791625976562 18.27393913269043 74.00984954833984 23.300426483154297 66.92912292480469 17.62453269958496 C 67.65770721435547 20.506589889526367 71.59581756591797 25.16156005859375 69.74275970458984 23.941755294799805 C 69.61091613769531 19.07953643798828 62.15763854980469 21.710533142089844 58.129173278808594 16.256650924682617" stroke-width="1.4166738986968994" fill="none" stroke="rgb(146, 59, 51)" stroke-opacity="0.7145004" stroke-linecap="round" stroke-linejoin="round"/>
    <path d="M 64.22793579101562 35.13276672363281 C 64.41085815429688 38.45970916748047 68.23694610595703 41.241302490234375 69.82122802734375 36.19908142089844" stroke-width="1.420206904411316" fill="none" stroke="rgb(71, 124, 69)" stroke-opacity="0.512654" stroke-linecap="round" stroke-linejoin="round"/>
    <path d="M 57.98491668701172 38.029781341552734 C 56.2695426940918 36.36088562011719 59.33526611328125 31.888904571533203 58.54771423339844 30.484933853149414" stroke-width="1.4060522317886353" fill="none" stroke="rgb(215, 236, 89)" stroke-opacity="0.78863853" stroke-linecap="round" stroke-linejoin="round"/>
    <path d="M 45.94925308227539 23.6795654296875 C 42.09000015258789 25.233570098876953 39.83060836791992 30.251096725463867 38.95040512084961 29.80063247680664" stroke-width="1.4031270742416382" fill="none" stroke="rgb(185, 113, 177)" stroke-opacity="0.64144635" stroke-linecap="round" stroke-linejoin="round"/>
    <path d="M 39.42612075805664 23.20928192138672 C 42.96445083618164 21.865942001342773 39.27700424194336 16.54199981689453 38.34225082397461 10.362441062927246 C 36.13686752319336 14.40045166015625 31.01581382751465 7.955448627471924 26.219017028808594 8.361954689025879 C 26.24384117126465 12.328821182250977 31.816221237182617 6.051403522491455 33.89431381225586 5.588649749755859" stroke-width="1.4230866432189941" fill="none" stroke="rgb(186, 121, 133)" stroke-opacity="0.13503158" stroke-linecap="round" stroke-linejoin="round"/>
    <path d="M 58.12821578979492 15.449485778808594 C 55.75347900390625 16.586551666259766 52.218196868896484 21.175296783447266 46.81452560424805 15.348302841186523 C 53.313167572021484 8.510974884033203 53.88178253173828 10.28421688079834 59.30788803100586 9.247537612915039" stroke-width="1.4223134517669678" fill="none" stroke="rgb(130, 36, 69)" stroke-opacity="0.6426498" stroke-linecap="round" stroke-linejoin="round"/>
    <path d="M 64.33788299560547 34.86918258666992 C 60.104312896728516 37.888973236083984 59.99678039550781 39.915828704833984 62.52389144897461 43.02818298339844" stroke-width="1.2415634393692017" fill="none" stroke="rgb(62, 188, 86)" stroke-opacity="0.7315982" stroke-linecap="round" stroke-linejoin="round"/>
    <path d="M 56.79806137084961 37.87134552001953 C 54.748416900634766 33.17454147338867 52.35587692260742 31.461685180664062 55.43395233154297 24.689571380615234 C 60.74917221069336 18.973846435546875 53.893653869628906 25.48863983154297 49.06324768066406 24.196619033813477" stroke-width="1.4270613193511963" fill="none" stroke="rgb(40, 19, 170)" stroke-opacity="0.3798585" stroke-linecap="round" stroke-linejoin="round"/>
    <path d="M 58.831539154052734 15.286992073059082 C 60.39633560180664 19.350788116455078 62.65311813354492 24.51603889465332 64.90194702148438 18.313016891479492 C 67.31182098388672 14.801426887512207 69.49026489257812 17.347049713134766 75.47443389892578 10.706086158752441" stroke-width="1.3921478986740112" fill="none" stroke="rgb(162, 133, 93)" stroke-opacity="0.30865297" stroke-linecap="round" stroke-linejoin="round"/>
    <path d="M 11.088235855102539 30.369524002075195 C 10.565775871276855 34.796363830566406 6.289944648742676 32.318382263183594 6.633501052856445 37.228118896484375 C 1.618630051612854 31.515146255493164 2.343146562576294 32.129371643066406 7.646210670471191 30.322771072387695" stroke-width="1.4198278188705444" fill="none" stroke="rgb(102, 114, 97)" stroke-opacity="0.3035446" stroke-linecap="round" stroke-linejoin="round"/>
    <path d="M 8.699413299560547 54.13287353515625 C 10.438246726989746 53.57242965698242 7.884817123413086 49.06139373779297 5.141229152679443 52.165767669677734" stroke-width="1.4093916416168213" fill="none" stroke="rgb(245, 234, 60)" stroke-opacity="0.05428368" stroke-linecap="round" stroke-linejoin="round"/>
    <path d="M 96.6282730102539 120.08853149414062 C 92.85140228271484 120.91011810302734 98.1697998046875 117.741455078125 100.06890106201172 112.89888000488281 C 99.29794311523438 115.56034088134766 100.15562438964844 121.85225677490234 103.02957916259766 125.3730697631836 C 96.46966552734375 125.24275207519531 93.30219268798828 122.064453125 97.94490814208984 117.27792358398438" stroke-width="1.1892671585083008" fill="none" stroke="rgb(184, 178, 145)" stroke-opacity="0.17100851" stroke-linecap="round" stroke-linejoin="round"/>
    <path d="M 121.1225814819336 133.25650024414062 C 119.8006362915039 130.6414031982422 117.11650848388672 125.09160614013672 113.53125 130.88616943359375 C 117.33676147460938 125.70733642578125 115.35555267333984 122.16896057128906 118.939697265625 123.64492797851562 C 117.06953430175781 126.47917175292969 118.13945007324219 128.6311492919922 123.13230895996094 125.00813293457031" stroke-width="1.1892671585083008" fill="none" stroke="rgb(162, 50, 43)" stroke-opacity="0.61871636" stroke-linecap="round" stroke-linejoin="round"/>
    <path d="M 53.307987213134766 6.166810989379883 C 49.29787826538086 12.053194999694824 44.63786315917969 11.799835205078125 47.782257080078125 7.573913097381592 C 41.48978042602539 8.879790306091309 47.30253601074219 3.7264909744262695 45.9977912902832 11.21393871307373" stroke-width="1.2520084381103516" fill="none" stroke="rgb(29, 179, 238)" stroke-opacity="0.37963152" stroke-linecap="round" stroke-linejoin="round"/>
    <path d="M 74.63096618652344 36.69267654418945 C 71.73664093017578 41.26690673828125 75.5159912109375 41.47644805908203 78.44383239746094 43.99367904663086 C 81.75296783447266 47.439247131347656 77.77972412109375 45.574302673339844 81.12521362304688 46.4076042175293" stroke-width="1.355172038078308" fill="none" stroke="rgb(36, 242, 217)" stroke-opacity="0.0016399175" stroke-linecap="round" stroke-linejoin="round"/>
    <path d="M 50.5416145324707 92.93655395507812 C 51.402984619140625 90.91742706298828 47.51013946533203 97.66522979736328 48.185062408447266 92.73035430908203" stroke-width="1.2641983032226562" fill="none" stroke="rgb(9, 32, 96)" stroke-opacity="0.47172326" stroke-linecap="round" stroke-linejoin="round"/>
    <path d="M 101.92741394042969 17.681838989257812 C 97.45452880859375 22.096818923950195 99.2667236328125 22.06692886352539 94.82938385009766 23.864971160888672 C 91.3484878540039 23.830957412719727 93.72863006591797 17.982532501220703 93.71288299560547 18.352012634277344" stroke-width="1.1892671585083008" fill="none" stroke="rgb(177, 42, 236)" stroke-opacity="0.42411378" stroke-linecap="round" stroke-linejoin="round"/>
    <path d="M 4.346147060394287 47.20906066894531 C 5.405841827392578 43.42104721069336 6.471299648284912 37.19903564453125 9.575592994689941 38.657955169677734 C 8.478501319885254 42.56828689575195 8.643868446350098 49.42280197143555 5.065174579620361 44.80052185058594 C 0.3244318962097168 39.430198669433594 -2.7597522735595703 36.35293960571289 -8.9577054977417 35.46464920043945" stroke-width="1.2611184120178223" fill="none" stroke="rgb(211, 17, 25)" stroke-opacity="0.37088063" stroke-linecap="round" stroke-linejoin="round"/>
    <path d="M 128.25784301757812 90.6058120727539 C 133.01084899902344 89.02711486816406 133.37449645996094 82.33302307128906 128.71188354492188 87.86406707763672 C 131.3377227783203 90.36491394042969 133.080322265625 91.82400512695312 128.90463256835938 89.33589935302734 C 129.15306091308594 86.25614166259766 134.97622680664062 82.48805236816406 141.43756103515625 85.0562744140625" stroke-width="1.4271584749221802" fill="none" stroke="rgb(38, 13, 255)" stroke-opacity="0.8392348" stroke-linecap="round" stroke-linejoin="round"/>
    <path d="M 16.054664611816406 6.18056058883667 C 17.28118324279785 0.8260399699211121 20.8111515045166 2.2865965366363525 19.995145797729492 9.059244155883789 C 14.26956844329834 7.034398078918457 10.32706356048584 1.7563929557800293 11.29745101928711 -1.6616456508636475 C 8.235918045043945 3.7321105003356934 13.05954647064209 0.011570394970476627 14.323678970336914 -5.657946586608887" stroke-width="1.1892671585083008" fill="none" stroke="rgb(110, 196, 87)" stroke-opacity="0.4677245" stroke-linecap="round" stroke-linejoin="round"/>
    <path d="M 69.78893280029297 35.01382827758789 C 65.26615905761719 35.42975997924805 64.34886932373047 34.143348693847656 58.58737564086914 38.01551055908203 C 57.07746124267578 32.76095962524414 51.84912109375 26.213993072509766 49.445709228515625 21.28742027282715 C 48.14643478393555 17.155811309814453 51.5211296081543 22.838598251342773 45.7662239074707 25.719730377197266" stroke-width="1.417734980583191" fill="none" stroke="rgb(225, 204, 228)" stroke-opacity="0.17907771" stroke-linecap="round" stroke-linejoin="round"/>
    <path d="M 96.37911224365234 51.648773193359375 C 97.89234161376953 51.413108825683594 92.87236022949219 54.5013313293457 92.4051513671875 59.50303649902344 C 87.79815673828125 64.1256332397461 91.17720031738281 58.39929962158203 94.99689483642578 64.5780029296875" stroke-width="1.4193341732025146" fill="none" stroke="rgb(93, 245, 26)" stroke-opacity="0.016452124" stroke-linecap="round" stroke-linejoin="round"/>
    <path d="M 82.38732147216797 24.370506286621094 C 80.33097839355469 22.208690643310547 77.66693878173828 17.979684829711914 74.62440490722656 16.154834747314453" stroke-width="1.4271115064620972" fill="none" stroke="rgb(147, 133, 207)" stroke-opacity="0.82246023" stroke-linecap="round" stroke-linejoin="round"/>
    <path d="M 24.36265754699707 131.31837463378906 C 25.16206932067871 135.3247528076172 31.57556915283203 129.9500732421875 37.85471725463867 126.67565155029297 C 38.022666931152344 132.61463928222656 33.747528076171875 132.03024291992188 28.24822235107422 129.94810485839844" stroke-width="1.1892671585083008" fill="none" stroke="rgb(104, 63, 193)" stroke-opacity="0.9614716" stroke-linecap="round" stroke-linejoin="round"/>
    <path d="M 35.15536880493164 63.36278533935547 C 28.908967971801758 62.90951156616211 25.018686294555664 58.72536849975586 26.881322860717773 60.9209098815918 C 28.050724029541016 59.8067626953125 31.634057998657227 56.10118103027344 31.574796676635742 57.001895904541016" stroke-width="1.1892671585083008" fill="none" stroke="rgb(150, 114, 10)" stroke-opacity="0.96385044" stroke-linecap="round" stroke-linejoin="round"/>
  </g>
</svg>
