<?xml version="1.0" ?>
<svg xmlns="http://www.w3.org/2000/svg" version="1.1" width="1471.0" height="1471.0">
  <defs/>
  <g>
    <path d="M 765.081787109375 281.438232421875 C 763.9281616210938 301.44732666015625 761.3013916015625 292.0802307128906 765.2647094726562 276.47979736328125 C 771.111572265625 274.7787780761719 773.9869384765625 276.2642517089844 772.0086059570312 277.4416198730469 C 793.8975219726562 277.0653076171875 820.8229370117188 279.91107177734375 836.06982421875 282.5096740722656 C 887.747802734375 289.8314208984375 925.9490356445312 310.46978759765625 978.3421630859375 317.6332092285156 C 1032.744384765625 351.9175720214844 1048.7886962890625 343.03936767578125 1090.9647216796875 377.0462951660156 C 1105.0584716796875 385.472900390625 1166.4656982421875 409.0348815917969 1186.0753173828125 424.67578125 C 1200.56201171875 438.1787109375 1244.0909423828125 439.61248779296875 1259.6663818359375 443.1258239746094 C 1256.824462890625 482.90167236328125 1230.4654541015625 574.6427001953125 1229.6563720703125 609.5287475585938 C 1198.9283447265625 589.6136474609375 1174.434814453125 602.0128784179688 1179.0513916015625 612.7981567382812 C 1147.9019775390625 657.923828125 1083.915283203125 663.9776611328125 1036.430908203125 687.7445678710938 C 1010.9697875976562 693.4786987304688 957.8599853515625 698.5853881835938 929.3182373046875 711.2108764648438" stroke-width="14.979416847229004" fill="none" stroke="rgb(35, 12, 26)" stroke-opacity="1.0" stroke-linecap="round" stroke-linejoin="round"/>
    <path d="M 643.913818359375 204.6144256591797 C 643.6233520507812 189.40672302246094 639.9735717773438 199.8004608154297 645.0177612304688 213.2890625 C 638.626953125 201.92050170898438 634.3740234375 204.67320251464844 629.1201782226562 203.519287109375 C 613.4874877929688 211.0934600830078 603.8026733398438 229.99642944335938 610.2310180664062 248.2613067626953 C 594.5595703125 291.12518310546875 563.6604614257812 341.4066467285156 589.331298828125 364.8542175292969 C 609.390625 390.6485900878906 610.6505126953125 427.93634033203125 632.6783447265625 439.3170471191406 C 645.7341918945312 429.6737060546875 654.6912231445312 435.564453125 666.625244140625 432.303466796875 C 679.2769775390625 437.8558044433594 672.4597778320312 452.9164733886719 668.8036499023438 485.7667236328125 C 694.2889404296875 488.1441650390625 722.6292724609375 493.19403076171875 724.03857421875 500.9893798828125 C 727.78515625 541.6505126953125 728.916259765625 550.3939208984375 696.2348022460938 565.52099609375 C 687.1105346679688 604.0756225585938 666.6868286132812 641.5851440429688 655.895751953125 685.4720458984375 C 662.4851684570312 703.0792846679688 654.0574340820312 704.9207763671875 654.5385131835938 715.1732788085938 C 640.798583984375 734.8400268554688 626.9418334960938 753.2613525390625 614.5968627929688 773.1318969726562 C 613.3438110351562 779.92724609375 608.3289184570312 786.742919921875 608.5315551757812 793.4329223632812 C 607.6541137695312 777.3169555664062 610.2953491210938 782.3263549804688 596.5960693359375 780.8091430664062 C 591.2041015625 792.3855590820312 591.3311767578125 806.7085571289062 593.8607177734375 829.2408447265625 C 564.3408203125 848.60888671875 506.05975341796875 849.3577880859375 485.2564392089844 846.6516723632812" stroke-width="13.133928298950195" fill="none" stroke="rgb(15, 36, 11)" stroke-opacity="0.9637022" stroke-linecap="round" stroke-linejoin="round"/>
    <path d="M 289.4381408691406 650.3827514648438 C 292.0318603515625 647.5614013671875 291.8629150390625 641.141845703125 278.30047607421875 625.6488647460938 C 293.9598388671875 621.5794067382812 333.6509094238281 644.9712524414062 354.61370849609375 649.0582885742188 C 417.7296447753906 648.6859741210938 468.45172119140625 663.0107421875 509.2857666015625 698.526611328125 C 538.1908569335938 711.8152465820312 586.8973388671875 708.87744140625 595.0808715820312 723.3577880859375 C 589.4954833984375 750.5675659179688 549.026123046875 768.0302124023438 558.1644287109375 800.1438598632812 C 535.9639892578125 808.0205688476562 526.749267578125 818.5955810546875 528.8707885742188 810.0140991210938 C 566.2985229492188 818.4724731445312 581.3406372070312 840.817138671875 586.0556030273438 850.3670654296875 C 628.08154296875 852.9817504882812 659.6329345703125 860.3798217773438 674.1185913085938 886.9520263671875 C 726.587158203125 899.7568359375 778.2545166015625 917.6546630859375 814.8784790039062 944.3580322265625 C 842.5979614257812 930.78662109375 855.0170288085938 938.359619140625 868.220703125 947.9032592773438 C 871.8531494140625 948.6307983398438 872.3740234375 943.40869140625 876.4661865234375 944.658447265625 C 879.564453125 944.8104248046875 893.8280029296875 940.6326293945312 903.2431640625 957.8699340820312 C 925.3954467773438 961.3931884765625 934.3782958984375 959.5403442382812 944.3900146484375 942.430419921875" stroke-width="13.133928298950195" fill="none" stroke="rgb(33, 35, 12)" stroke-opacity="0.9671967" stroke-linecap="round" stroke-linejoin="round"/>
    <path d="M 919.374267578125 938.3784790039062 C 848.12890625 875.5828857421875 879.0106201171875 829.02587890625 822.479736328125 780.2147216796875" stroke-width="15.27395248413086" fill="none" stroke="rgb(169, 229, 232)" stroke-opacity="0.53034925" stroke-linecap="round" stroke-linejoin="round"/>
    <path d="M 778.8193359375 289.01171875 C 775.7431640625 353.07220458984375 813.872314453125 404.25909423828125 771.3036499023438 435.38311767578125" stroke-width="13.133928298950195" fill="none" stroke="rgb(149, 218, 187)" stroke-opacity="0.6022546" stroke-linecap="round" stroke-linejoin="round"/>
    <path d="M 606.8431396484375 360.706298828125 C 577.1588745117188 345.6085510253906 518.4016723632812 422.7908935546875 529.6400756835938 441.678955078125 C 487.6670837402344 510.5948791503906 477.6911926269531 506.0350036621094 549.1696166992188 516.211669921875" stroke-width="15.836958885192871" fill="none" stroke="rgb(210, 146, 83)" stroke-opacity="0.9219623" stroke-linecap="round" stroke-linejoin="round"/>
    <path d="M 892.4609375 967.7052612304688 C 828.6116943359375 1021.8705444335938 799.950927734375 1075.1221923828125 742.4872436523438 1088.6279296875" stroke-width="17.164106369018555" fill="none" stroke="rgb(32, 135, 201)" stroke-opacity="0.35250914" stroke-linecap="round" stroke-linejoin="round"/>
    <path d="M 754.7359008789062 278.0029602050781 C 784.7877807617188 282.28948974609375 741.2940063476562 301.69232177734375 701.4553833007812 368.94598388671875 C 679.4437255859375 293.48883056640625 653.5955200195312 264.9250183105469 645.740966796875 311.02874755859375 C 635.6991577148438 355.1264953613281 680.8850708007812 388.8118591308594 741.2506103515625 371.5990905761719" stroke-width="19.4388484954834" fill="none" stroke="rgb(225, 58, 149)" stroke-opacity="0.41616142" stroke-linecap="round" stroke-linejoin="round"/>
    <path d="M 646.4764404296875 216.85211181640625 C 673.4437255859375 260.5539855957031 610.5188598632812 189.69378662109375 521.1556396484375 253.0982208251953 C 576.0015258789062 210.1520233154297 551.757080078125 216.389892578125 476.76544189453125 226.1817169189453 C 525.8692626953125 157.77188110351562 497.78070068359375 187.2120819091797 486.29425048828125 174.6908416748047" stroke-width="16.918825149536133" fill="none" stroke="rgb(113, 49, 230)" stroke-opacity="0.5812413" stroke-linecap="round" stroke-linejoin="round"/>
    <path d="M 685.9595947265625 461.9687805175781 C 752.7451782226562 501.1252746582031 821.179443359375 437.0813903808594 759.3685302734375 476.2320556640625 C 782.1917114257812 484.8312683105469 814.0881958007812 524.3728637695312 868.5842895507812 592.7395629882812 C 936.9204711914062 619.9049682617188 994.1944580078125 628.8311157226562 1072.3721923828125 664.4052734375" stroke-width="13.133928298950195" fill="none" stroke="rgb(239, 81, 131)" stroke-opacity="0.046528652" stroke-linecap="round" stroke-linejoin="round"/>
    <path d="M 279.8592834472656 650.7166748046875 C 297.71771240234375 679.2076416015625 360.9819641113281 747.91796875 305.28936767578125 669.2708129882812" stroke-width="17.890762329101562" fill="none" stroke="rgb(75, 155, 75)" stroke-opacity="0.19448958" stroke-linecap="round" stroke-linejoin="round"/>
    <path d="M 1077.411376953125 667.34326171875 C 1028.2271728515625 676.0276489257812 1021.9567260742188 668.0488891601562 1036.794189453125 725.3182373046875 C 1088.2462158203125 789.3978271484375 1129.459228515625 835.465087890625 1138.4456787109375 920.1727905273438 C 1148.8443603515625 937.775146484375 1215.517333984375 916.4710693359375 1151.583251953125 840.5265502929688" stroke-width="13.133928298950195" fill="none" stroke="rgb(189, 31, 105)" stroke-opacity="0.23752052" stroke-linecap="round" stroke-linejoin="round"/>
    <path d="M 765.8427734375 430.5167236328125 C 797.6402587890625 389.2183837890625 872.2514038085938 352.0332946777344 900.8899536132812 300.44537353515625 C 843.3685913085938 300.927490234375 863.098876953125 353.3948974609375 906.387939453125 390.7412414550781" stroke-width="17.907188415527344" fill="none" stroke="rgb(120, 5, 19)" stroke-opacity="0.11913999" stroke-linecap="round" stroke-linejoin="round"/>
    <path d="M 828.6441650390625 779.9170532226562 C 789.7392578125 793.2739868164062 838.5345458984375 775.8291625976562 877.2890625 745.3309326171875 C 927.1355590820312 753.2305908203125 919.96630859375 694.5004272460938 866.296875 632.9675903320312 C 912.8649291992188 585.5341796875 973.9143676757812 617.9608154296875 1023.621337890625 681.9679565429688" stroke-width="16.417871475219727" fill="none" stroke="rgb(51, 102, 235)" stroke-opacity="0.8601803" stroke-linecap="round" stroke-linejoin="round"/>
    <path d="M 744.4540405273438 1107.744384765625 C 677.5570068359375 1091.119873046875 620.2633056640625 1139.2347412109375 548.0179443359375 1173.1041259765625 C 474.0970764160156 1167.8466796875 422.5328369140625 1192.633544921875 501.10406494140625 1099.144775390625" stroke-width="14.565550804138184" fill="none" stroke="rgb(131, 248, 55)" stroke-opacity="0.43551874" stroke-linecap="round" stroke-linejoin="round"/>
    <path d="M 1056.040283203125 662.4592895507812 C 1040.2706298828125 669.1480102539062 1027.5938720703125 618.7635498046875 996.6840209960938 616.6168823242188 C 1028.294189453125 658.6105346679688 1007.0107421875 629.3699951171875 1057.721435546875 644.8363037109375" stroke-width="18.911376953125" fill="none" stroke="rgb(17, 237, 253)" stroke-opacity="1.0" stroke-linecap="round" stroke-linejoin="round"/>
    <path d="M 1079.591064453125 650.1519775390625 C 1128.9815673828125 679.3763427734375 1162.8477783203125 687.0593872070312 1126.2056884765625 692.4708862304688 C 1143.2904052734375 730.8184814453125 1093.3697509765625 723.3656616210938 1111.5902099609375 738.8678588867188 C 1158.1370849609375 764.2716674804688 1153.2935791015625 761.3115234375 1191.5517578125 727.5255737304688" stroke-width="13.646549224853516" fill="none" stroke="rgb(114, 97, 10)" stroke-opacity="0.91887623" stroke-linecap="round" stroke-linejoin="round"/>
    <path d="M 813.90869140625 780.5763549804688 C 810.5698852539062 778.6340942382812 808.5350341796875 755.1339721679688 850.087890625 794.1834716796875" stroke-width="13.133928298950195" fill="none" stroke="rgb(136, 232, 7)" stroke-opacity="0.6011609" stroke-linecap="round" stroke-linejoin="round"/>
    <path d="M 1078.8201904296875 668.283203125 C 1123.9102783203125 658.3395385742188 1128.3673095703125 597.64892578125 1101.9942626953125 617.2952270507812 C 1119.5909423828125 669.0521850585938 1070.141845703125 680.8849487304688 1023.1969604492188 656.3396606445312" stroke-width="13.133928298950195" fill="none" stroke="rgb(45, 76, 78)" stroke-opacity="0.106724724" stroke-linecap="round" stroke-linejoin="round"/>
    <path d="M 885.2550659179688 381.2055969238281 C 898.8482055664062 409.1475524902344 854.2556762695312 407.9451904296875 853.6943359375 473.9319763183594 C 836.8432006835938 420.3521423339844 867.943603515625 406.28302001953125 923.2936401367188 373.68011474609375 C 965.8134765625 310.3837890625 1000.89306640625 260.952880859375 929.9931030273438 318.9209289550781" stroke-width="19.198118209838867" fill="none" stroke="rgb(99, 202, 215)" stroke-opacity="0.4132138" stroke-linecap="round" stroke-linejoin="round"/>
    <path d="M 928.2002563476562 290.93896484375 C 947.0885620117188 361.8748474121094 937.0778198242188 331.2570495605469 858.2314453125 329.2590637207031 C 922.2186889648438 286.1503601074219 940.5787353515625 345.1475830078125 921.7289428710938 282.8452453613281" stroke-width="13.133928298950195" fill="none" stroke="rgb(148, 127, 25)" stroke-opacity="0.3706181" stroke-linecap="round" stroke-linejoin="round"/>
    <path d="M 797.9216918945312 70.9949951171875 C 773.4620971679688 22.227336883544922 716.3372802734375 -22.567977905273438 753.2047119140625 54.919227600097656 C 747.93701171875 106.3783950805664 778.476318359375 99.77924346923828 811.5158081054688 132.73333740234375" stroke-width="13.195263862609863" fill="none" stroke="rgb(79, 135, 159)" stroke-opacity="0.77242863" stroke-linecap="round" stroke-linejoin="round"/>
    <path d="M 354.0835266113281 850.6673583984375 C 354.88214111328125 805.54638671875 412.10455322265625 782.745361328125 370.8351135253906 777.2250366210938 C 404.011474609375 783.14404296875 340.6072998046875 712.2835693359375 360.7077331542969 672.38623046875 C 420.21221923828125 739.1065673828125 449.84820556640625 683.16015625 397.96087646484375 633.7528076171875" stroke-width="17.516136169433594" fill="none" stroke="rgb(170, 83, 151)" stroke-opacity="0.45238376" stroke-linecap="round" stroke-linejoin="round"/>
    <path d="M 734.7591552734375 86.63842010498047 C 727.1815795898438 45.47163391113281 754.8511352539062 -30.742393493652344 741.6940307617188 20.161100387573242" stroke-width="13.133928298950195" fill="none" stroke="rgb(24, 218, 82)" stroke-opacity="0.39846474" stroke-linecap="round" stroke-linejoin="round"/>
    <path d="M 1119.3416748046875 842.8483276367188 C 1203.0762939453125 911.3882446289062 1210.3109130859375 891.6026611328125 1241.574951171875 848.8348999023438 C 1267.156982421875 888.241943359375 1198.9503173828125 951.0994262695312 1171.9287109375 1028.2264404296875" stroke-width="13.133928298950195" fill="none" stroke="rgb(210, 75, 100)" stroke-opacity="0.8963823" stroke-linecap="round" stroke-linejoin="round"/>
    <path d="M 760.8379516601562 204.93772888183594 C 725.810546875 252.7370147705078 662.3545532226562 244.43536376953125 637.3399658203125 264.9327087402344" stroke-width="13.133928298950195" fill="none" stroke="rgb(24, 75, 62)" stroke-opacity="0.87940544" stroke-linecap="round" stroke-linejoin="round"/>
    <path d="M 130.4264678955078 203.8307342529297 C 128.5509033203125 225.7622833251953 116.5661849975586 251.08444213867188 76.7109603881836 301.3307189941406" stroke-width="19.283702850341797" fill="none" stroke="rgb(122, 225, 103)" stroke-opacity="0.05529661" stroke-linecap="round" stroke-linejoin="round"/>
    <path d="M 507.9446105957031 803.4642944335938 C 496.97552490234375 776.9863891601562 543.3649291992188 710.1442260742188 604.9879150390625 684.7442626953125" stroke-width="13.133928298950195" fill="none" stroke="rgb(209, 52, 34)" stroke-opacity="0.39199185" stroke-linecap="round" stroke-linejoin="round"/>
    <path d="M 1301.6419677734375 705.5362548828125 C 1310.95458984375 755.5599975585938 1258.810791015625 772.2755737304688 1254.70361328125 846.0731201171875 C 1311.94580078125 865.5789794921875 1332.5616455078125 847.1319580078125 1409.01318359375 918.1987915039062" stroke-width="13.133928298950195" fill="none" stroke="rgb(47, 140, 242)" stroke-opacity="0.7921267" stroke-linecap="round" stroke-linejoin="round"/>
    <path d="M 785.733154296875 529.0782470703125 C 789.24267578125 564.7356567382812 721.26513671875 577.6069946289062 724.1753540039062 535.51025390625" stroke-width="16.337512969970703" fill="none" stroke="rgb(250, 231, 190)" stroke-opacity="0.49743712" stroke-linecap="round" stroke-linejoin="round"/>
    <path d="M 727.2467651367188 319.1100158691406 C 660.751953125 263.0753173828125 653.5054931640625 282.18475341796875 647.2900390625 207.85543823242188" stroke-width="14.492252349853516" fill="none" stroke="rgb(207, 58, 60)" stroke-opacity="0.5166271" stroke-linecap="round" stroke-linejoin="round"/>
    <path d="M 1420.9444580078125 552.1327514648438 C 1400.5338134765625 536.628662109375 1383.96044921875 486.2101745605469 1469.7161865234375 500.25323486328125 C 1413.3968505859375 538.7600708007812 1413.552978515625 584.28515625 1488.7838134765625 627.2200317382812 C 1466.8936767578125 630.386474609375 1501.003173828125 612.9721069335938 1523.6942138671875 618.0902709960938" stroke-width="13.133928298950195" fill="none" stroke="rgb(222, 24, 37)" stroke-opacity="0.8221513" stroke-linecap="round" stroke-linejoin="round"/>
    <path d="M 946.79541015625 1311.812255859375 C 910.31787109375 1310.95703125 890.7916870117188 1273.8555908203125 928.6304321289062 1336.5379638671875" stroke-width="17.64099884033203" fill="none" stroke="rgb(232, 190, 191)" stroke-opacity="0.4751399" stroke-linecap="round" stroke-linejoin="round"/>
    <path d="M 1445.8546142578125 1005.4832153320312 C 1371.3642578125 1042.755126953125 1401.9306640625 1026.4332275390625 1421.5687255859375 980.5809326171875 C 1360.324951171875 923.3665771484375 1311.6768798828125 918.5526123046875 1328.1483154296875 986.5667114257812 C 1249.0257568359375 1009.8092041015625 1231.7200927734375 1018.4315795898438 1325.78759765625 1029.787353515625" stroke-width="13.133928298950195" fill="none" stroke="rgb(119, 18, 114)" stroke-opacity="0.5731231" stroke-linecap="round" stroke-linejoin="round"/>
    <path d="M 789.1777954101562 850.0848999023438 C 787.773193359375 860.9509887695312 704.581787109375 881.0423583984375 699.638671875 901.630859375 C 673.6281127929688 837.163330078125 635.9827270507812 851.4700927734375 654.0693359375 814.6400756835938" stroke-width="15.791929244995117" fill="none" stroke="rgb(78, 152, 148)" stroke-opacity="0.3654372" stroke-linecap="round" stroke-linejoin="round"/>
  </g>
</svg>
