<?xml version="1.0" ?>
<svg xmlns="http://www.w3.org/2000/svg" version="1.1" width="925.0" height="925.0">
  <defs/>
  <g>
    <path d="M 60.76327896118164 23.463167190551758 C 68.84848022460938 20.780786514282227 74.53231048583984 17.375511169433594 78.72512817382812 16.995426177978516 C 80.2784423828125 22.7147274017334 85.36901092529297 30.71343421936035 86.24517059326172 34.845863342285156 C 89.63349914550781 37.508323669433594 86.18463134765625 35.94727325439453 88.87030029296875 36.40992736816406 C 90.43107604980469 36.40230941772461 90.5643310546875 38.859554290771484 87.98665618896484 46.59697341918945 C 90.45988464355469 53.55144500732422 83.15817260742188 61.364559173583984 76.62923431396484 63.29490280151367 C 69.70011138916016 68.0066909790039 65.35187530517578 68.63584899902344 62.02997970581055 67.7809829711914 C 60.156673431396484 70.75971221923828 58.606719970703125 70.78543853759766 57.277156829833984 67.41089630126953 C 54.60596466064453 67.4906997680664 53.51138687133789 66.95728302001953 54.15593338012695 67.31537628173828" stroke-width="1.7722529172897339" fill="none" stroke="rgb(12, 35, 20)" stroke-opacity="0.9345997" stroke-linecap="round" stroke-linejoin="round"/>
    <path d="M 73.07227325439453 18.155149459838867 C 70.40213012695312 23.864988327026367 64.25381469726562 29.540307998657227 65.37086486816406 27.825496673583984" stroke-width="2.4473695755004883" fill="none" stroke="rgb(69, 184, 146)" stroke-opacity="0.29681057" stroke-linecap="round" stroke-linejoin="round"/>
    <path d="M 90.8786392211914 39.37679672241211 C 93.72489166259766 36.71909713745117 86.90570831298828 34.93821334838867 87.47872924804688 30.422374725341797" stroke-width="1.2520184516906738" fill="none" stroke="rgb(204, 119, 29)" stroke-opacity="0.31982678" stroke-linecap="round" stroke-linejoin="round"/>
    <path d="M 60.507415771484375 22.895767211914062 C 58.02509307861328 21.40863609313965 56.28910446166992 19.53189468383789 57.444244384765625 18.851526260375977 C 61.04286193847656 18.33454704284668 64.48091888427734 15.406952857971191 70.20325469970703 14.852977752685547 C 73.19991302490234 14.186685562133789 66.8252944946289 11.354981422424316 63.81699752807617 6.782987594604492" stroke-width="1.0892857313156128" fill="none" stroke="rgb(215, 201, 118)" stroke-opacity="0.38592324" stroke-linecap="round" stroke-linejoin="round"/>
    <path d="M 65.66691589355469 25.07419776916504 C 56.123531341552734 25.138216018676758 50.517574310302734 29.301015853881836 46.26433181762695 29.1240177154541 C 42.07152557373047 32.042057037353516 40.447811126708984 29.545379638671875 37.976688385009766 27.407262802124023 C 37.25154113769531 24.499921798706055 40.74348068237305 26.216629028320312 44.51348114013672 27.84711456298828" stroke-width="2.7331502437591553" fill="none" stroke="rgb(247, 28, 254)" stroke-opacity="0.27676317" stroke-linecap="round" stroke-linejoin="round"/>
    <path d="M 53.82243347167969 67.49674224853516 C 57.61888885498047 67.50415802001953 56.750396728515625 64.79009246826172 58.16851806640625 61.84865951538086" stroke-width="1.2309279441833496" fill="none" stroke="rgb(181, 150, 194)" stroke-opacity="0.36129937" stroke-linecap="round" stroke-linejoin="round"/>
    <path d="M 61.080448150634766 73.23396301269531 C 63.667510986328125 77.01170349121094 66.41117858886719 80.84371185302734 63.262752532958984 82.82783508300781 C 64.3179702758789 80.77298736572266 61.909568786621094 74.35753631591797 59.12565994262695 68.07105255126953 C 56.40019226074219 60.437198638916016 60.38009262084961 64.21114349365234 64.43513488769531 65.6816635131836" stroke-width="1.0892857313156128" fill="none" stroke="rgb(61, 254, 233)" stroke-opacity="0.6882963" stroke-linecap="round" stroke-linejoin="round"/>
    <path d="M 77.82252502441406 24.11322021484375 C 78.64720916748047 22.372901916503906 78.18789672851562 20.46424102783203 77.91355895996094 19.05731964111328 C 77.41132354736328 17.446054458618164 77.16590118408203 26.299840927124023 78.07160949707031 31.81990623474121" stroke-width="2.07474422454834" fill="none" stroke="rgb(69, 117, 221)" stroke-opacity="0.43328425" stroke-linecap="round" stroke-linejoin="round"/>
    <path d="M 63.19757080078125 21.064054489135742 C 61.42721176147461 22.055383682250977 57.42613983154297 23.830747604370117 57.00101089477539 25.838245391845703 C 56.59754180908203 23.246593475341797 55.04055404663086 20.69523048400879 52.72370529174805 18.54762077331543 C 48.89015197753906 16.607704162597656 50.11261749267578 20.22392463684082 48.63539505004883 25.776716232299805" stroke-width="1.4844753742218018" fill="none" stroke="rgb(30, 250, 202)" stroke-opacity="0.8938408" stroke-linecap="round" stroke-linejoin="round"/>
    <path d="M 86.24919128417969 24.803239822387695 C 89.6915283203125 20.263389587402344 90.21674346923828 16.45470428466797 89.17219543457031 17.450044631958008 C 87.8989486694336 20.611112594604492 82.38838195800781 23.408836364746094 80.23524475097656 29.3614559173584 C 79.9530258178711 35.999271392822266 79.19044494628906 30.033405303955078 79.49546813964844 24.942293167114258" stroke-width="1.6579549312591553" fill="none" stroke="rgb(106, 208, 188)" stroke-opacity="0.512799" stroke-linecap="round" stroke-linejoin="round"/>
    <path d="M 87.83647918701172 29.6121883392334 C 91.90827941894531 25.231815338134766 95.09925079345703 19.8764705657959 98.32447814941406 15.045878410339355 C 102.81208038330078 11.003915786743164 99.95244598388672 18.024206161499023 99.8717269897461 25.042207717895508" stroke-width="1.6819442510604858" fill="none" stroke="rgb(115, 49, 104)" stroke-opacity="0.93605554" stroke-linecap="round" stroke-linejoin="round"/>
    <path d="M 88.72518920898438 28.99251365661621 C 86.93486785888672 26.50847053527832 83.19705963134766 26.74978256225586 81.7255859375 25.571605682373047 C 81.12593841552734 24.260089874267578 83.49264526367188 20.14508628845215 88.1057357788086 17.418832778930664 C 92.03099822998047 13.25737190246582 87.70448303222656 14.258126258850098 79.63851928710938 15.46456241607666" stroke-width="1.0892857313156128" fill="none" stroke="rgb(209, 156, 194)" stroke-opacity="0.61500585" stroke-linecap="round" stroke-linejoin="round"/>
    <path d="M 43.40739822387695 25.151338577270508 C 39.57664489746094 26.17969512939453 37.16735076904297 25.947978973388672 35.0008544921875 25.026748657226562 C 34.30961227416992 23.411256790161133 31.548383712768555 23.104597091674805 30.106922149658203 22.631132125854492 C 28.96674919128418 22.758392333984375 32.744041442871094 30.763065338134766 35.51289367675781 38.03015899658203" stroke-width="1.4715046882629395" fill="none" stroke="rgb(110, 134, 138)" stroke-opacity="0.68343204" stroke-linecap="round" stroke-linejoin="round"/>
    <path d="M 65.61695098876953 62.150020599365234 C 63.40309524536133 64.2117919921875 58.47146987915039 64.63594055175781 56.58681869506836 63.77009582519531 C 55.86491012573242 63.56467056274414 57.572731018066406 65.03688049316406 58.492862701416016 67.06454467773438 C 63.04109573364258 66.603515625 54.62290954589844 69.44483184814453 43.61848449707031 71.93122100830078" stroke-width="1.0892857313156128" fill="none" stroke="rgb(164, 175, 103)" stroke-opacity="0.7802338" stroke-linecap="round" stroke-linejoin="round"/>
    <path d="M 79.59114837646484 34.389312744140625 C 77.68788146972656 33.91956329345703 83.95868682861328 35.957332611083984 84.40185546875 34.41707992553711" stroke-width="1.4761086702346802" fill="none" stroke="rgb(70, 35, 148)" stroke-opacity="0.0" stroke-linecap="round" stroke-linejoin="round"/>
    <path d="M 66.05744171142578 62.34064483642578 C 59.91232681274414 65.70484924316406 60.66504669189453 64.85149383544922 62.95172119140625 66.2559585571289" stroke-width="1.5709750652313232" fill="none" stroke="rgb(125, 47, 68)" stroke-opacity="0.092940316" stroke-linecap="round" stroke-linejoin="round"/>
    <path d="M 42.9051399230957 24.778179168701172 C 43.98550796508789 26.164840698242188 46.121376037597656 25.438610076904297 46.35771179199219 26.295589447021484 C 46.925724029541016 26.958715438842773 51.52234649658203 31.931957244873047 55.25168991088867 36.521785736083984" stroke-width="1.0892857313156128" fill="none" stroke="rgb(143, 237, 207)" stroke-opacity="0.6861502" stroke-linecap="round" stroke-linejoin="round"/>
    <path d="M 35.330291748046875 85.214111328125 C 37.95975875854492 79.31210327148438 41.66826629638672 76.56021118164062 42.9982795715332 77.03897094726562 C 42.5020866394043 78.71054077148438 39.87724685668945 83.39675903320312 38.3948860168457 89.36488342285156 C 36.585235595703125 93.77812957763672 35.737098693847656 96.95924377441406 36.38498306274414 97.40448760986328" stroke-width="1.0892857313156128" fill="none" stroke="rgb(171, 19, 255)" stroke-opacity="0.38656244" stroke-linecap="round" stroke-linejoin="round"/>
    <path d="M 40.553871154785156 78.86650085449219 C 43.85276412963867 76.04117584228516 46.0081672668457 72.21661376953125 47.72270202636719 74.1082992553711 C 53.48706817626953 73.4127426147461 59.81005096435547 74.16649627685547 63.94173049926758 77.76866149902344 C 66.01045227050781 84.65343475341797 63.20142364501953 78.4756088256836 60.76756286621094 72.7593994140625" stroke-width="2.3081095218658447" fill="none" stroke="rgb(53, 20, 32)" stroke-opacity="0.7609753" stroke-linecap="round" stroke-linejoin="round"/>
    <path d="M 57.997562408447266 59.61384201049805 C 54.79863739013672 57.895484924316406 52.621421813964844 55.59342956542969 50.08389663696289 53.89598083496094 C 48.427490234375 51.08835983276367 54.35851287841797 58.09706497192383 61.58000946044922 64.21372985839844" stroke-width="1.3996502161026" fill="none" stroke="rgb(173, 236, 219)" stroke-opacity="0.9422599" stroke-linecap="round" stroke-linejoin="round"/>
    <path d="M 77.41384887695312 82.4682846069336 C 79.68545532226562 86.76541137695312 80.80159759521484 92.51395416259766 83.25370025634766 96.77457427978516 C 82.09174346923828 104.47600555419922 82.95948028564453 98.75547790527344 85.05565643310547 94.70767211914062" stroke-width="1.0892857313156128" fill="none" stroke="rgb(121, 143, 0)" stroke-opacity="0.62939376" stroke-linecap="round" stroke-linejoin="round"/>
    <path d="M 86.7933578491211 28.85872459411621 C 84.26373291015625 28.266368865966797 84.35457611083984 26.562217712402344 84.4273452758789 23.44921875 C 82.07484436035156 25.917030334472656 84.0054702758789 28.5673828125 87.96407318115234 29.459627151489258" stroke-width="2.0369210243225098" fill="none" stroke="rgb(240, 196, 73)" stroke-opacity="0.38461262" stroke-linecap="round" stroke-linejoin="round"/>
    <path d="M 67.44414520263672 49.42353820800781 C 69.88539123535156 50.11056137084961 70.45565032958984 49.670860290527344 68.2778091430664 44.60995101928711 C 68.27397155761719 43.01403045654297 72.02814483642578 44.37888717651367 74.74766540527344 44.17879104614258" stroke-width="1.5994198322296143" fill="none" stroke="rgb(59, 252, 219)" stroke-opacity="0.8616975" stroke-linecap="round" stroke-linejoin="round"/>
    <path d="M 102.90518951416016 97.63877868652344 C 96.38969421386719 100.64863586425781 91.52816009521484 102.94200897216797 91.06876373291016 106.86843872070312" stroke-width="2.6994411945343018" fill="none" stroke="rgb(76, 43, 255)" stroke-opacity="0.85426664" stroke-linecap="round" stroke-linejoin="round"/>
    <path d="M 61.4374885559082 105.1592025756836 C 67.1835708618164 106.05802154541016 70.88126373291016 100.5882568359375 68.91531372070312 93.6295394897461" stroke-width="1.207318902015686" fill="none" stroke="rgb(183, 1, 79)" stroke-opacity="0.058261435" stroke-linecap="round" stroke-linejoin="round"/>
    <path d="M 95.75531768798828 9.234108924865723 C 97.83859252929688 9.171873092651367 100.30978393554688 9.371258735656738 100.64956665039062 8.973041534423828 C 102.32243347167969 8.947379112243652 101.88774871826172 13.89548110961914 101.5622787475586 19.054859161376953" stroke-width="1.0892857313156128" fill="none" stroke="rgb(131, 33, 113)" stroke-opacity="0.557174" stroke-linecap="round" stroke-linejoin="round"/>
    <path d="M 39.16945266723633 68.53502655029297 C 38.22598648071289 69.25554656982422 35.4756965637207 69.23743438720703 33.735347747802734 70.8846435546875 C 32.17919158935547 73.06024932861328 31.29057502746582 77.73892211914062 29.48830223083496 80.89822387695312 C 26.129880905151367 82.92642974853516 29.909761428833008 85.993896484375 38.4530143737793 85.69741821289062" stroke-width="1.0892857313156128" fill="none" stroke="rgb(115, 169, 187)" stroke-opacity="0.5465585" stroke-linecap="round" stroke-linejoin="round"/>
    <path d="M 111.3033218383789 103.05987548828125 C 111.09159851074219 107.61115264892578 111.36509704589844 110.01841735839844 111.49235534667969 112.55899810791016 C 113.61272430419922 111.58231353759766 111.98079681396484 112.7601547241211 112.06928253173828 116.799072265625 C 109.85309600830078 116.07771301269531 113.04435729980469 109.41455841064453 115.55499267578125 101.80961608886719" stroke-width="1.9983842372894287" fill="none" stroke="rgb(176, 169, 87)" stroke-opacity="0.70429397" stroke-linecap="round" stroke-linejoin="round"/>
    <path d="M 16.85934066772461 68.44627380371094 C 21.69573402404785 64.4123764038086 24.402467727661133 60.612876892089844 25.66010093688965 63.00637435913086 C 26.608808517456055 68.58332824707031 27.040695190429688 75.08543395996094 24.992584228515625 79.62110900878906 C 19.766376495361328 85.03337097167969 15.081670761108398 81.77347564697266 12.093931198120117 78.63045501708984" stroke-width="1.0892857313156128" fill="none" stroke="rgb(208, 168, 198)" stroke-opacity="0.49859622" stroke-linecap="round" stroke-linejoin="round"/>
    <path d="M 17.52688980102539 11.845599174499512 C 17.55935287475586 15.840768814086914 17.251218795776367 17.531585693359375 17.015745162963867 14.201600074768066 C 16.08507537841797 13.110224723815918 15.704289436340332 11.839849472045898 12.840413093566895 13.323783874511719 C 12.700254440307617 12.127288818359375 9.130976676940918 7.451479911804199 5.773914337158203 4.847016334533691" stroke-width="2.6546919345855713" fill="none" stroke="rgb(170, 143, 28)" stroke-opacity="0.3134947" stroke-linecap="round" stroke-linejoin="round"/>
    <path d="M 77.80679321289062 96.05245208740234 C 75.42076110839844 94.22772216796875 75.08381652832031 90.40850067138672 75.27413177490234 89.44110870361328 C 75.15001678466797 89.69024658203125 75.9406967163086 92.24093627929688 78.09741973876953 92.16709899902344 C 80.7479248046875 93.34624481201172 81.55712890625 92.67594909667969 82.63350677490234 92.05301666259766" stroke-width="1.3705167770385742" fill="none" stroke="rgb(20, 204, 41)" stroke-opacity="0.06454298" stroke-linecap="round" stroke-linejoin="round"/>
    <path d="M 86.82205963134766 73.01453399658203 C 81.62681579589844 77.27095794677734 76.7608642578125 79.15572357177734 73.9104232788086 73.62046813964844" stroke-width="1.1491889953613281" fill="none" stroke="rgb(229, 255, 145)" stroke-opacity="0.62889695" stroke-linecap="round" stroke-linejoin="round"/>
    <path d="M 56.40143585205078 35.77668380737305 C 56.23856735229492 33.88987350463867 60.916744232177734 35.53159713745117 53.56959533691406 32.02607345581055" stroke-width="2.4147238731384277" fill="none" stroke="rgb(236, 14, 0)" stroke-opacity="0.27638245" stroke-linecap="round" stroke-linejoin="round"/>
    <path d="M 98.87151336669922 9.592058181762695 C 93.49710083007812 4.457695007324219 94.25794982910156 -3.484774589538574 99.69329833984375 1.0069730281829834 C 106.62540435791016 -2.8953161239624023 102.18952178955078 -0.9636900424957275 100.20470428466797 1.3236680030822754 C 100.14500427246094 1.949556589126587 95.76400756835938 -0.44257810711860657 98.75420379638672 1.870257019996643" stroke-width="1.0892857313156128" fill="none" stroke="rgb(150, 44, 59)" stroke-opacity="0.7416413" stroke-linecap="round" stroke-linejoin="round"/>
    <path d="M 74.49827575683594 63.664310455322266 C 71.9093246459961 62.624717712402344 76.78682708740234 64.3141098022461 77.27130889892578 65.71713256835938 C 86.26701354980469 63.583839416503906 81.2856674194336 67.10262298583984 84.4848403930664 69.53600311279297" stroke-width="1.0892857313156128" fill="none" stroke="rgb(13, 86, 153)" stroke-opacity="0.034326106" stroke-linecap="round" stroke-linejoin="round"/>
    <path d="M 25.689123153686523 65.45406341552734 C 20.562776565551758 57.98746109008789 26.19778823852539 57.660701751708984 24.968008041381836 56.971920013427734 C 25.58257293701172 51.90138626098633 20.0299072265625 55.909969329833984 24.5015926361084 54.98513412475586 C 26.776708602905273 52.20663833618164 21.534006118774414 52.087093353271484 16.9863338470459 54.72700881958008" stroke-width="1.0892857313156128" fill="none" stroke="rgb(227, 49, 121)" stroke-opacity="0.6825723" stroke-linecap="round" stroke-linejoin="round"/>
    <path d="M 61.047203063964844 70.75257110595703 C 64.19800567626953 67.94146728515625 68.74321746826172 62.38332748413086 72.3269271850586 67.07515716552734" stroke-width="1.0892857313156128" fill="none" stroke="rgb(71, 95, 216)" stroke-opacity="0.5841493" stroke-linecap="round" stroke-linejoin="round"/>
    <path d="M 47.80118179321289 25.085681915283203 C 47.315303802490234 19.886240005493164 49.690948486328125 19.584903717041016 45.67378616333008 25.847766876220703" stroke-width="2.0675864219665527" fill="none" stroke="rgb(171, 73, 246)" stroke-opacity="0.354419" stroke-linecap="round" stroke-linejoin="round"/>
    <path d="M 65.85456848144531 65.14199829101562 C 68.8423080444336 63.104923248291016 69.8290786743164 62.67860412597656 67.0873031616211 62.260623931884766 C 69.28366088867188 64.626708984375 64.14549255371094 68.95500946044922 64.04177856445312 64.35258483886719 C 58.38248062133789 70.11184692382812 56.249656677246094 74.92668151855469 48.94122314453125 74.04533386230469" stroke-width="1.0892857313156128" fill="none" stroke="rgb(49, 27, 21)" stroke-opacity="0.15804917" stroke-linecap="round" stroke-linejoin="round"/>
    <path d="M 88.0869140625 29.477577209472656 C 89.56623077392578 30.0999698638916 94.83570098876953 29.867128372192383 100.06509399414062 29.268796920776367 C 100.07194519042969 24.70477294921875 99.16285705566406 24.647241592407227 102.31755828857422 18.59569549560547 C 97.64137268066406 12.874967575073242 94.91157531738281 15.7901611328125 90.17975616455078 16.365196228027344" stroke-width="1.0892857313156128" fill="none" stroke="rgb(116, 86, 199)" stroke-opacity="0.64875376" stroke-linecap="round" stroke-linejoin="round"/>
    <path d="M 113.24273681640625 115.70553588867188 C 116.35159301757812 113.75714874267578 121.62515258789062 109.99581909179688 126.13220977783203 113.75550079345703 C 129.41799926757812 111.63312530517578 126.85833740234375 107.21454620361328 127.07542419433594 107.51432800292969" stroke-width="1.0892857313156128" fill="none" stroke="rgb(132, 106, 184)" stroke-opacity="0.18884258" stroke-linecap="round" stroke-linejoin="round"/>
    <path d="M 16.511024475097656 51.44257354736328 C 19.846736907958984 49.29324722290039 21.640623092651367 45.71299743652344 19.35308074951172 46.11825180053711 C 23.506391525268555 47.72151184082031 17.06627082824707 53.04756164550781 16.685951232910156 50.57600021362305 C 14.06894588470459 56.777191162109375 13.987105369567871 63.0456657409668 10.329416275024414 62.25206756591797" stroke-width="1.3538717031478882" fill="none" stroke="rgb(201, 157, 224)" stroke-opacity="0.0" stroke-linecap="round" stroke-linejoin="round"/>
    <path d="M 47.629249572753906 70.62478637695312 C 46.88492202758789 72.10968780517578 51.1953239440918 66.4659652709961 48.71737289428711 61.39604568481445 C 43.43161392211914 67.98011016845703 36.97710037231445 65.6153564453125 45.5084342956543 60.989925384521484" stroke-width="1.0892857313156128" fill="none" stroke="rgb(122, 90, 104)" stroke-opacity="0.48809004" stroke-linecap="round" stroke-linejoin="round"/>
    <path d="M 47.70096206665039 70.56107330322266 C 43.66929244995117 73.92388153076172 39.930267333984375 78.04592895507812 41.03889465332031 80.68049621582031" stroke-width="1.4395787715911865" fill="none" stroke="rgb(155, 51, 181)" stroke-opacity="0.29916453" stroke-linecap="round" stroke-linejoin="round"/>
    <path d="M 86.47811889648438 68.67857360839844 C 89.28008270263672 73.09193420410156 91.1080551147461 77.32511138916016 93.44132995605469 82.3235092163086" stroke-width="1.6013576984405518" fill="none" stroke="rgb(229, 249, 83)" stroke-opacity="0.45216617" stroke-linecap="round" stroke-linejoin="round"/>
    <path d="M 84.46576690673828 71.06302642822266 C 84.88202667236328 64.1364517211914 89.32059478759766 59.79662322998047 91.47154998779297 58.423492431640625 C 94.53665924072266 54.894126892089844 93.65008544921875 57.34869384765625 93.98990631103516 51.03457260131836" stroke-width="1.0892857313156128" fill="none" stroke="rgb(48, 172, 73)" stroke-opacity="0.278835" stroke-linecap="round" stroke-linejoin="round"/>
    <path d="M 47.55842590332031 71.47797393798828 C 51.60657501220703 68.65201568603516 53.53532409667969 66.06544494628906 58.77521896362305 68.9529800415039 C 61.31521987915039 64.44921875 63.63624572753906 62.50779342651367 59.59097671508789 57.02280044555664 C 58.64701461791992 56.619850158691406 64.62799072265625 52.43272018432617 62.21502685546875 46.82453155517578" stroke-width="1.0892857313156128" fill="none" stroke="rgb(138, 105, 147)" stroke-opacity="0.1942415" stroke-linecap="round" stroke-linejoin="round"/>
    <path d="M 16.964191436767578 51.991371154785156 C 23.448869705200195 51.07908248901367 30.94942855834961 49.2210807800293 31.335912704467773 47.18314743041992" stroke-width="1.0892857313156128" fill="none" stroke="rgb(212, 190, 234)" stroke-opacity="0.65270543" stroke-linecap="round" stroke-linejoin="round"/>
    <path d="M 70.24676513671875 65.70491027832031 C 65.3426284790039 67.92587280273438 62.456302642822266 71.62261962890625 58.1500244140625 76.6865005493164" stroke-width="1.0892857313156128" fill="none" stroke="rgb(147, 45, 122)" stroke-opacity="0.6640971" stroke-linecap="round" stroke-linejoin="round"/>
    <path d="M 66.12344360351562 110.70452117919922 C 62.818321228027344 107.7269058227539 63.58110427856445 102.11494445800781 64.78369140625 97.26947021484375 C 63.08998107910156 103.29545593261719 68.15418243408203 97.79936218261719 63.095237731933594 104.097900390625 C 67.52252197265625 98.5315933227539 67.01117706298828 99.09558868408203 60.82113265991211 98.38617706298828" stroke-width="1.0892857313156128" fill="none" stroke="rgb(44, 11, 37)" stroke-opacity="0.59895885" stroke-linecap="round" stroke-linejoin="round"/>
    <path d="M 71.1846694946289 115.87702178955078 C 77.23625946044922 119.04508972167969 81.61701965332031 119.00371551513672 84.16454315185547 123.87881469726562 C 81.34687042236328 121.00005340576172 81.62775421142578 121.20209503173828 77.9644546508789 120.42867279052734" stroke-width="1.0892857313156128" fill="none" stroke="rgb(77, 170, 7)" stroke-opacity="0.58014643" stroke-linecap="round" stroke-linejoin="round"/>
    <path d="M 71.3604965209961 115.46675109863281 C 62.67601776123047 116.0859375 59.67686080932617 120.72295379638672 61.993961334228516 123.41151428222656 C 63.049861907958984 123.9304428100586 58.896114349365234 122.44572448730469 50.59897994995117 119.75968170166016 C 56.285118103027344 122.14739990234375 58.061519622802734 123.01583099365234 61.16459655761719 123.25115203857422" stroke-width="1.314046859741211" fill="none" stroke="rgb(225, 168, 64)" stroke-opacity="0.116643384" stroke-linecap="round" stroke-linejoin="round"/>
    <path d="M 101.948974609375 66.48609924316406 C 102.15192413330078 65.2952880859375 107.36109924316406 62.3094482421875 105.3974838256836 65.74043273925781" stroke-width="1.1736626625061035" fill="none" stroke="rgb(56, 77, 213)" stroke-opacity="0.12770224" stroke-linecap="round" stroke-linejoin="round"/>
    <path d="M 97.99131774902344 62.025970458984375 C 99.8373031616211 66.24861907958984 99.11554718017578 65.37583923339844 105.69461822509766 70.36162567138672 C 98.15251922607422 72.35342407226562 98.87078094482422 72.162841796875 101.18923950195312 72.0576400756836 C 101.89993286132812 75.84860229492188 103.91704559326172 76.09443664550781 101.77857971191406 81.33269500732422" stroke-width="1.9974526166915894" fill="none" stroke="rgb(117, 118, 0)" stroke-opacity="0.9098797" stroke-linecap="round" stroke-linejoin="round"/>
    <path d="M 89.99604797363281 44.35945129394531 C 91.8337173461914 43.220027923583984 87.97703552246094 37.645851135253906 86.78449249267578 35.69081497192383 C 90.37848663330078 39.89481735229492 92.5777359008789 35.15629196166992 89.65265655517578 30.701393127441406" stroke-width="1.0892857313156128" fill="none" stroke="rgb(80, 97, 131)" stroke-opacity="0.67861867" stroke-linecap="round" stroke-linejoin="round"/>
    <path d="M 72.02086639404297 37.09498977661133 C 75.50879669189453 34.349693298339844 74.56639862060547 38.21012496948242 68.93426513671875 38.55305862426758 C 78.5344467163086 41.35993957519531 80.4197998046875 41.44992446899414 78.95049285888672 41.62156677246094" stroke-width="1.0892857313156128" fill="none" stroke="rgb(42, 117, 27)" stroke-opacity="0.19420306" stroke-linecap="round" stroke-linejoin="round"/>
    <path d="M 88.21459197998047 113.14042663574219 C 89.26349639892578 114.41258239746094 89.91280364990234 109.99657440185547 88.2490005493164 101.78128814697266 C 89.58374786376953 105.4753646850586 91.43359375 101.84241485595703 96.2748794555664 107.97541046142578" stroke-width="1.0892857313156128" fill="none" stroke="rgb(92, 34, 170)" stroke-opacity="0.105767265" stroke-linecap="round" stroke-linejoin="round"/>
    <path d="M 106.61985778808594 71.96286010742188 C 104.84354400634766 74.06527709960938 97.31703186035156 78.93994140625 92.20228576660156 78.0436019897461 C 91.99972534179688 83.52424621582031 95.09986877441406 81.17242431640625 99.56391143798828 77.8702163696289" stroke-width="1.0892857313156128" fill="none" stroke="rgb(53, 233, 8)" stroke-opacity="0.31982008" stroke-linecap="round" stroke-linejoin="round"/>
    <path d="M 59.231773376464844 52.183189392089844 C 54.47410583496094 50.614830017089844 51.80166244506836 48.2790641784668 56.11922836303711 41.44288635253906 C 50.73656463623047 44.404998779296875 47.444705963134766 48.17356491088867 54.69463348388672 46.3713264465332 C 47.8818473815918 42.889278411865234 42.038997650146484 40.05404281616211 41.705650329589844 36.05046844482422" stroke-width="1.0911457538604736" fill="none" stroke="rgb(117, 106, 230)" stroke-opacity="0.5679296" stroke-linecap="round" stroke-linejoin="round"/>
    <path d="M 91.6721420288086 38.552513122558594 C 91.27809143066406 41.57624053955078 94.91950988769531 45.291141510009766 98.18234252929688 53.394683837890625 C 96.954345703125 58.66898727416992 99.33567810058594 64.81980895996094 100.44551086425781 58.00188446044922" stroke-width="1.0892857313156128" fill="none" stroke="rgb(188, 149, 208)" stroke-opacity="0.8081475" stroke-linecap="round" stroke-linejoin="round"/>
    <path d="M 107.40068817138672 2.2818050384521484 C 102.19092559814453 2.9379403591156006 97.78890991210938 1.2689756155014038 98.01326751708984 0.2800240218639374" stroke-width="1.0892857313156128" fill="none" stroke="rgb(100, 11, 140)" stroke-opacity="0.9172158" stroke-linecap="round" stroke-linejoin="round"/>
    <path d="M 48.55740737915039 73.61526489257812 C 52.28573989868164 72.50200653076172 54.62119674682617 71.74091339111328 54.45779800415039 68.37944030761719 C 51.40383529663086 66.02528381347656 49.247989654541016 69.90576171875 45.02900695800781 78.18061828613281" stroke-width="1.0892857313156128" fill="none" stroke="rgb(52, 172, 91)" stroke-opacity="0.14077686" stroke-linecap="round" stroke-linejoin="round"/>
    <path d="M 82.6494140625 58.2657585144043 C 82.91290283203125 61.610504150390625 78.79051971435547 60.15607452392578 78.73683166503906 62.87599182128906 C 83.4969253540039 63.72005844116211 81.15463256835938 62.975826263427734 86.18519592285156 58.729530334472656 C 88.5488510131836 53.22092819213867 88.15033721923828 50.04292678833008 91.908935546875 56.42349624633789" stroke-width="2.015498161315918" fill="none" stroke="rgb(231, 231, 145)" stroke-opacity="0.3547775" stroke-linecap="round" stroke-linejoin="round"/>
    <path d="M 117.61009216308594 88.42432403564453 C 108.97354125976562 87.75797271728516 108.28262329101562 92.62045288085938 108.2240219116211 88.3729248046875 C 109.19225311279297 85.33168029785156 108.58546447753906 81.88626098632812 108.2966079711914 77.84162139892578 C 109.82870483398438 80.1262435913086 112.07796478271484 80.54108428955078 114.41907501220703 84.94677734375" stroke-width="1.3663573265075684" fill="none" stroke="rgb(132, 75, 99)" stroke-opacity="0.25303" stroke-linecap="round" stroke-linejoin="round"/>
    <path d="M 45.93168640136719 34.096649169921875 C 42.296382904052734 29.701122283935547 45.110267639160156 32.63425827026367 47.32300567626953 33.013362884521484 C 44.549434661865234 40.56765365600586 39.22590255737305 36.36497497558594 47.017662048339844 30.63678741455078" stroke-width="1.2071236371994019" fill="none" stroke="rgb(194, 54, 73)" stroke-opacity="0.65967983" stroke-linecap="round" stroke-linejoin="round"/>
  </g>
</svg>
