<?xml version="1.0" ?>
<svg xmlns="http://www.w3.org/2000/svg" version="1.1" width="1104.0" height="1104.0">
  <defs/>
  <g>
    <path d="M 42.137054443359375 111.23176574707031 C 42.64999771118164 111.34716033935547 43.164588928222656 111.46434783935547 43.13740921020508 111.47509002685547 C 43.11058044433594 111.48570251464844 42.51594924926758 111.39384460449219 43.851016998291016 112.45195007324219 C 45.95086669921875 112.71820068359375 50.720272064208984 113.34654235839844 58.71136474609375 113.50453186035156 C 67.49469757080078 113.66426849365234 78.70736694335938 113.35543060302734 91.33758544921875 111.15721893310547 C 104.76029968261719 109.75143432617188 120.39444732666016 107.24869537353516 131.19772338867188 106.32821655273438 C 141.20687866210938 104.61532592773438 144.8029327392578 102.89828491210938 147.4044952392578 102.04438018798828 C 150.00665283203125 101.19061279296875 150.82701110839844 100.4043197631836 152.13206481933594 101.00142669677734 C 152.64486694335938 100.8061294555664 152.85092163085938 101.20198059082031 152.85983276367188 100.66189575195312 C 152.8704833984375 99.33045959472656 151.8917236328125 98.64940643310547 151.7958526611328 97.4177017211914 C 151.6999969482422 96.1875991821289 151.69468688964844 95.19889831542969 151.40890502929688 93.16300964355469 C 151.12313842773438 91.1270751953125 150.55514526367188 88.04033660888672 150.58251953125 83.19212341308594 C 149.81748962402344 79.13447570800781 148.85366821289062 74.10589599609375 148.0992889404297 71.39904022216797 C 147.3448944091797 68.69393920898438 146.8017578125 68.31230926513672 144.58935546875 66.36231231689453 C 143.1693572998047 63.61990737915039 141.66665649414062 57.726253509521484 139.4603271484375 56.70624542236328 C 136.46168518066406 54.89223861694336 134.3423614501953 55.576744079589844 133.11827087402344 57.180240631103516 C 131.10183715820312 57.99140167236328 129.18606567382812 58.1402702331543 125.44780731201172 57.99777603149414 C 122.50334167480469 58.64748001098633 118.52536010742188 59.79763412475586 114.2926254272461 61.701168060302734 C 109.26583099365234 62.81053924560547 103.19001007080078 63.88086700439453 97.50823211669922 65.27069854736328 C 91.03231048583984 65.86811828613281 85.74102783203125 67.5792236328125 81.64100646972656 68.66986846923828 C 77.53997802734375 69.75917053222656 75.41825103759766 71.0198974609375 70.99432373046875 71.32801818847656 C 68.15493774414062 73.22088623046875 63.80270767211914 74.9515151977539 57.461734771728516 76.92815399169922 C 51.91484069824219 79.6971435546875 45.17164993286133 83.50630950927734 42.56951141357422 84.93697357177734 C 39.96735382080078 86.36766815185547 41.50629425048828 86.21188354492188 41.568363189697266 87.35455322265625 C 41.630489349365234 89.2910385131836 40.219364166259766 94.11193084716797 39.5988655090332 99.72342681884766 C 38.18595886230469 103.7520980834961 38.59421157836914 108.31034088134766 39.0024299621582 113.66073608398438" stroke-width="1.5848214626312256" fill="none" stroke="rgb(26, 26, 21)" stroke-opacity="0.99" stroke-linecap="round" stroke-linejoin="round"/>
    <path d="M 64.04947662353516 73.35150909423828 C 63.95716857910156 73.2219467163086 63.86664581298828 73.0923843383789 63.751277923583984 72.5882568359375 C 63.63589859008789 72.08419799804688 63.49740219116211 71.20578002929688 62.56849670410156 71.16252136230469 C 63.222320556640625 69.53707885742188 63.085655212402344 68.7471694946289 62.41115188598633 64.98770904541016 C 61.73664855957031 61.228267669677734 60.52432632446289 54.49746322631836 59.871124267578125 50.57826614379883 C 58.423763275146484 47.453128814697266 59.12028884887695 45.555076599121094 58.809669494628906 44.56101608276367 C 57.70668029785156 43.567626953125 57.18302536010742 43.477088928222656 57.54335021972656 41.87009811401367 C 57.90190505981445 41.05537033081055 59.9367561340332 41.100040435791016 59.685791015625 39.997955322265625 C 60.227149963378906 38.10532760620117 60.06917953491211 36.6515998840332 64.56775665283203 36.33817672729492 C 68.27395629882812 35.23234939575195 75.84609985351562 34.4761962890625 79.24668884277344 33.47079086303711 C 84.23119354248047 33.257789611816406 85.04236602783203 33.58794021606445 88.23380279541016 33.65894317626953 C 90.63500213623047 33.728172302246094 96.20833587646484 33.538246154785156 99.94062042236328 33.390933990478516 C 102.08920288085938 34.03599166870117 102.39584350585938 33.14065170288086 103.13600158691406 32.851318359375 C 103.87619018554688 32.56199645996094 105.05308532714844 32.086299896240234 105.35297393798828 32.46083450317383 C 105.65325927734375 33.62771987915039 105.87022399902344 34.8542594909668 105.42826843261719 35.665443420410156 C 104.98448944091797 36.47659683227539 103.8814926147461 36.87417221069336 105.15669250488281 39.81821060180664 C 105.64126586914062 43.55461502075195 106.91900634765625 51.41922378540039 108.23807525634766 55.43822479248047 C 108.76277160644531 61.040775299072266 110.1206283569336 63.58615493774414 112.26911926269531 65.33914947509766 C 113.62521362304688 67.884521484375 113.70153045654297 69.49978637695312 113.77786254882812 71.11322021484375" stroke-width="1.5848214626312256" fill="none" stroke="rgb(21, 21, 26)" stroke-opacity="0.99" stroke-linecap="round" stroke-linejoin="round"/>
    <path d="M 42.36076354980469 87.35449981689453 C 42.65839385986328 90.82776641845703 50.323280334472656 98.44915008544922 48.21322250366211 101.73664093017578 C 48.1077995300293 100.37191009521484 42.53181457519531 94.06009674072266 47.95692825317383 91.30645751953125" stroke-width="1.5848214626312256" fill="none" stroke="rgb(90, 3, 210)" stroke-opacity="0.36781532" stroke-linecap="round" stroke-linejoin="round"/>
    <path d="M 144.5894012451172 66.36231231689453 C 135.94473266601562 67.58992767333984 137.27935791015625 70.23005676269531 132.80332946777344 77.32769775390625 C 126.15390014648438 75.12777709960938 117.31576538085938 72.48274230957031 118.21732330322266 79.22908020019531" stroke-width="1.5848214626312256" fill="none" stroke="rgb(106, 143, 97)" stroke-opacity="0.47500223" stroke-linecap="round" stroke-linejoin="round"/>
    <path d="M 62.568382263183594 70.37126922607422 C 65.59062194824219 69.27753448486328 71.7091064453125 66.741943359375 71.3206558227539 69.60664367675781" stroke-width="1.5848214626312256" fill="none" stroke="rgb(86, 171, 203)" stroke-opacity="0.8036663" stroke-linecap="round" stroke-linejoin="round"/>
    <path d="M 108.23808288574219 55.43822479248047 C 116.9864730834961 53.0369987487793 114.60238647460938 54.2916374206543 115.2109375 47.74718475341797 C 122.90328979492188 46.56600570678711 126.57075500488281 41.188621520996094 128.31666564941406 46.348350524902344" stroke-width="1.743295431137085" fill="none" stroke="rgb(167, 153, 62)" stroke-opacity="0.4697817" stroke-linecap="round" stroke-linejoin="round"/>
    <path d="M 58.335731506347656 42.66246032714844 C 49.49845886230469 49.31669235229492 47.58480453491211 47.15364074707031 40.277706146240234 40.39799499511719 C 36.722232818603516 36.345794677734375 34.65591812133789 35.598854064941406 39.495296478271484 27.720136642456055" stroke-width="1.5848214626312256" fill="none" stroke="rgb(174, 173, 67)" stroke-opacity="0.11346795" stroke-linecap="round" stroke-linejoin="round"/>
    <path d="M 114.29252624511719 60.908775329589844 C 107.68781280517578 61.71417236328125 101.0057144165039 70.34223937988281 93.72706604003906 72.90815734863281 C 101.74881744384766 68.31269836425781 105.77664947509766 75.51089477539062 102.49610900878906 70.92375946044922" stroke-width="1.5848214626312256" fill="none" stroke="rgb(217, 196, 130)" stroke-opacity="0.19909702" stroke-linecap="round" stroke-linejoin="round"/>
    <path d="M 108.23808288574219 55.43880081176758 C 116.21865844726562 60.760047912597656 111.29397583007812 69.25758361816406 114.50025177001953 66.96537017822266" stroke-width="1.5848214626312256" fill="none" stroke="rgb(47, 249, 197)" stroke-opacity="0.5408036" stroke-linecap="round" stroke-linejoin="round"/>
    <path d="M 64.04946899414062 74.1438980102539 C 57.03966522216797 81.0637435913086 49.70264434814453 84.142333984375 56.512718200683594 80.16438293457031" stroke-width="1.5848214626312256" fill="none" stroke="rgb(15, 2, 211)" stroke-opacity="0.37171537" stroke-linecap="round" stroke-linejoin="round"/>
    <path d="M 102.4961166381836 70.92386627197266 C 97.04203033447266 77.31437683105469 99.08317565917969 78.81442260742188 93.7167739868164 70.1854019165039 C 94.33857727050781 73.52494049072266 87.8753890991211 67.56341552734375 88.82102966308594 72.42332458496094 C 83.720703125 75.16791534423828 82.13809204101562 76.4891357421875 84.33409118652344 73.59822082519531" stroke-width="1.5848214626312256" fill="none" stroke="rgb(236, 194, 103)" stroke-opacity="0.8580249" stroke-linecap="round" stroke-linejoin="round"/>
    <path d="M 56.5127067565918 80.16438293457031 C 64.7934341430664 75.19579315185547 60.30594253540039 78.2785415649414 57.7512092590332 71.9949722290039 C 53.5789680480957 65.20238494873047 50.599281311035156 58.754817962646484 51.234336853027344 58.46845626831055" stroke-width="1.7433034181594849" fill="none" stroke="rgb(89, 119, 71)" stroke-opacity="0.64103335" stroke-linecap="round" stroke-linejoin="round"/>
    <path d="M 39.49530029296875 26.92780303955078 C 48.104576110839844 24.14641571044922 53.79221725463867 26.703527450561523 55.95572280883789 31.00886344909668 C 57.61183547973633 35.59164047241211 54.551414489746094 36.865234375 57.626548767089844 38.99372863769531 C 57.8029670715332 36.40282440185547 64.5377426147461 39.80155563354492 64.20502471923828 41.004600524902344" stroke-width="1.5848214626312256" fill="none" stroke="rgb(90, 56, 58)" stroke-opacity="0.43702266" stroke-linecap="round" stroke-linejoin="round"/>
    <path d="M 47.95691680908203 91.30645751953125 C 52.39965057373047 88.69001770019531 58.420074462890625 84.21865844726562 50.359249114990234 89.85702514648438 C 57.678916931152344 81.6627197265625 51.72394561767578 85.1543197631836 43.38887023925781 79.27658081054688 C 38.317169189453125 83.61395263671875 33.777244567871094 78.45805358886719 33.75992965698242 78.49058532714844" stroke-width="1.5848214626312256" fill="none" stroke="rgb(162, 73, 73)" stroke-opacity="0.6394969" stroke-linecap="round" stroke-linejoin="round"/>
    <path d="M 118.21732330322266 79.22909545898438 C 126.44622039794922 82.35218811035156 134.76084899902344 85.4660415649414 139.97900390625 83.642578125 C 134.85438537597656 75.75592803955078 138.62974548339844 68.99583435058594 138.29122924804688 73.32940673828125 C 128.677978515625 72.26554107666016 122.09153747558594 79.15353393554688 120.50371551513672 82.06768035888672" stroke-width="1.7433030605316162" fill="none" stroke="rgb(47, 55, 59)" stroke-opacity="0.66907007" stroke-linecap="round" stroke-linejoin="round"/>
    <path d="M 115.29256439208984 66.96537780761719 C 111.71771240234375 60.9752082824707 108.2384262084961 65.04530334472656 111.61475372314453 66.94505310058594 C 120.88988494873047 75.70520782470703 119.01403045654297 77.1181411743164 117.75946807861328 81.7330322265625" stroke-width="1.5848214626312256" fill="none" stroke="rgb(59, 189, 87)" stroke-opacity="0.19258516" stroke-linecap="round" stroke-linejoin="round"/>
    <path d="M 56.512718200683594 80.1644058227539 C 57.16940689086914 83.81424713134766 50.0892219543457 90.5165786743164 57.53234100341797 98.0740737915039" stroke-width="1.7433024644851685" fill="none" stroke="rgb(217, 162, 136)" stroke-opacity="0.7970377" stroke-linecap="round" stroke-linejoin="round"/>
    <path d="M 115.2926025390625 66.96540069580078 C 110.80326080322266 67.19430541992188 117.4903793334961 63.02583312988281 123.50172424316406 68.05962371826172 C 131.24899291992188 73.9293212890625 131.4510955810547 73.87431335449219 132.66888427734375 74.06967163085938" stroke-width="1.5848214626312256" fill="none" stroke="rgb(122, 208, 181)" stroke-opacity="0.7982236" stroke-linecap="round" stroke-linejoin="round"/>
    <path d="M 101.40280151367188 63.295982360839844 C 106.17332458496094 68.82180786132812 108.25270080566406 75.69888305664062 113.54373931884766 78.4962158203125 C 114.01026916503906 75.36058807373047 121.68436431884766 72.33325958251953 124.71436309814453 70.98212432861328" stroke-width="1.5848214626312256" fill="none" stroke="rgb(76, 106, 70)" stroke-opacity="0.3960507" stroke-linecap="round" stroke-linejoin="round"/>
    <path d="M 73.55509948730469 139.59506225585938 C 80.23714447021484 137.62623596191406 79.67288208007812 137.46322631835938 88.2699203491211 135.54852294921875 C 91.3956069946289 128.2923126220703 89.27680969238281 132.3557891845703 80.9816665649414 137.94094848632812 C 73.06747436523438 137.69383239746094 67.35395050048828 144.37570190429688 67.58755493164062 138.85765075683594" stroke-width="1.5848214626312256" fill="none" stroke="rgb(29, 220, 39)" stroke-opacity="0.27430397" stroke-linecap="round" stroke-linejoin="round"/>
    <path d="M 126.33240509033203 112.37889862060547 C 126.56069946289062 116.34529113769531 124.03927612304688 119.1095962524414 125.98252868652344 127.81718444824219" stroke-width="1.5848214626312256" fill="none" stroke="rgb(73, 126, 67)" stroke-opacity="0.8434084" stroke-linecap="round" stroke-linejoin="round"/>
    <path d="M 81.6091079711914 161.95355224609375 C 89.70673370361328 156.80380249023438 89.31549835205078 151.7158966064453 81.04867553710938 156.68585205078125 C 77.49034881591797 149.3450927734375 74.37779235839844 146.83438110351562 78.13529968261719 141.3711395263672" stroke-width="1.5848214626312256" fill="none" stroke="rgb(39, 19, 247)" stroke-opacity="0.892865" stroke-linecap="round" stroke-linejoin="round"/>
    <path d="M 118.66789245605469 134.18667602539062 C 125.4181137084961 134.7273406982422 121.65446472167969 133.845458984375 124.98051452636719 142.08944702148438 C 130.50624084472656 139.52879333496094 129.94479370117188 131.5350799560547 135.6894073486328 134.27857971191406 C 131.82806396484375 133.05972290039062 132.7165985107422 133.84278869628906 129.77175903320312 141.05247497558594" stroke-width="1.5848214626312256" fill="none" stroke="rgb(30, 64, 128)" stroke-opacity="0.405009" stroke-linecap="round" stroke-linejoin="round"/>
    <path d="M 2.6555027961730957 14.609156608581543 C -2.6726105213165283 7.5092010498046875 4.455829620361328 4.069406032562256 -3.578930139541626 9.534666061401367 C -5.623929023742676 11.095816612243652 -2.0720577239990234 5.998095989227295 6.737868309020996 1.4473273754119873" stroke-width="1.7433030605316162" fill="none" stroke="rgb(126, 126, 120)" stroke-opacity="0.72472924" stroke-linecap="round" stroke-linejoin="round"/>
    <path d="M 34.69105529785156 175.7366943359375 C 36.13299560546875 184.27049255371094 42.38506317138672 178.31271362304688 35.178531646728516 181.37535095214844" stroke-width="1.7433034181594849" fill="none" stroke="rgb(202, 229, 87)" stroke-opacity="0.85279065" stroke-linecap="round" stroke-linejoin="round"/>
    <path d="M 106.0805892944336 46.928245544433594 C 108.15973663330078 53.39613723754883 113.30953216552734 56.021846771240234 105.23646545410156 48.03386688232422 C 100.64714813232422 43.681983947753906 96.21087646484375 38.03022003173828 91.40680694580078 32.903404235839844" stroke-width="1.7433007955551147" fill="none" stroke="rgb(217, 181, 172)" stroke-opacity="0.20898178" stroke-linecap="round" stroke-linejoin="round"/>
    <path d="M 112.80330657958984 155.53623962402344 C 105.44425964355469 148.79490661621094 100.93473815917969 157.48739624023438 102.47293853759766 149.14559936523438 C 108.74871063232422 147.50819396972656 103.67462921142578 142.14540100097656 109.07726287841797 134.71812438964844 C 109.26171875 132.527587890625 113.94410705566406 132.62030029296875 107.83843231201172 132.94155883789062" stroke-width="1.7433024644851685" fill="none" stroke="rgb(162, 106, 59)" stroke-opacity="0.1248276" stroke-linecap="round" stroke-linejoin="round"/>
    <path d="M 62.90381622314453 40.349456787109375 C 58.04841995239258 48.70198059082031 62.731285095214844 42.4521369934082 59.857303619384766 47.9131965637207" stroke-width="1.5848214626312256" fill="none" stroke="rgb(102, 57, 90)" stroke-opacity="0.014107216" stroke-linecap="round" stroke-linejoin="round"/>
    <path d="M 168.92221069335938 79.97267150878906 C 171.06007385253906 83.63397216796875 168.83718872070312 75.80497741699219 163.74935913085938 69.17488098144531 C 169.612060546875 76.34124755859375 169.80270385742188 69.4476089477539 174.54788208007812 67.98994445800781" stroke-width="1.7433034181594849" fill="none" stroke="rgb(243, 194, 211)" stroke-opacity="0.75716203" stroke-linecap="round" stroke-linejoin="round"/>
    <path d="M 137.5517120361328 75.68705749511719 C 142.1140594482422 68.33870697021484 133.43531799316406 67.05530548095703 139.72071838378906 61.661712646484375 C 147.8144989013672 60.867549896240234 152.661376953125 58.94361114501953 161.06817626953125 52.153255462646484 C 160.01364135742188 61.31758499145508 168.08424377441406 60.20695877075195 164.0618896484375 53.9034309387207" stroke-width="1.5848214626312256" fill="none" stroke="rgb(130, 212, 134)" stroke-opacity="0.6332643" stroke-linecap="round" stroke-linejoin="round"/>
    <path d="M 152.4530029296875 21.675804138183594 C 147.72433471679688 30.218402862548828 140.29164123535156 27.1691951751709 138.50596618652344 33.72727584838867 C 131.52403259277344 36.07059097290039 128.52536010742188 35.58222198486328 129.7301025390625 31.70476531982422 C 125.42456817626953 24.01995849609375 122.04407501220703 15.828747749328613 118.5118408203125 6.414966106414795" stroke-width="1.7433031797409058" fill="none" stroke="rgb(22, 55, 223)" stroke-opacity="0.81837946" stroke-linecap="round" stroke-linejoin="round"/>
    <path d="M 122.4763412475586 71.7183837890625 C 126.72631072998047 67.31464385986328 129.2532501220703 70.3192138671875 124.496337890625 75.24052429199219 C 125.45282745361328 78.7250747680664 124.20301818847656 88.04821014404297 129.84805297851562 80.43035888671875" stroke-width="1.5848214626312256" fill="none" stroke="rgb(125, 195, 215)" stroke-opacity="0.39062196" stroke-linecap="round" stroke-linejoin="round"/>
    <path d="M 17.080415725708008 5.739643096923828 C 23.492311477661133 14.131414413452148 20.560222625732422 13.199881553649902 17.29432487487793 18.729148864746094 C 16.62554931640625 27.359298706054688 17.26650047302246 24.092844009399414 23.629079818725586 32.132835388183594 C 16.877187728881836 34.768680572509766 13.17185115814209 29.006166458129883 15.392882347106934 31.68070411682129" stroke-width="1.5848214626312256" fill="none" stroke="rgb(158, 40, 28)" stroke-opacity="0.12503761" stroke-linecap="round" stroke-linejoin="round"/>
    <path d="M 155.5537872314453 93.96187591552734 C 151.2723846435547 84.64508056640625 152.55169677734375 79.92057037353516 157.0823974609375 78.2967300415039 C 152.40589904785156 80.4769287109375 150.30215454101562 89.10800170898438 153.3480682373047 96.3625717163086 C 149.79820251464844 98.88104248046875 154.93386840820312 98.25767517089844 151.75515747070312 97.40116119384766" stroke-width="1.7433024644851685" fill="none" stroke="rgb(230, 205, 241)" stroke-opacity="0.39829022" stroke-linecap="round" stroke-linejoin="round"/>
  </g>
</svg>
