<?xml version="1.0" ?>
<svg xmlns="http://www.w3.org/2000/svg" version="1.1" width="804.0" height="804.0">
  <defs/>
  <g>
    <path d="M 37.5947151184082 17.719318389892578 C 46.892765045166016 17.481678009033203 56.17787170410156 16.44455337524414 62.4730339050293 19.67314338684082 C 67.84679412841797 22.101869583129883 69.34228515625 29.645261764526367 69.51463317871094 33.16364669799805 C 70.47908782958984 35.08085250854492 71.51100158691406 33.029422760009766 70.58126831054688 34.8908805847168 C 70.52254486083984 36.846153259277344 70.19866180419922 43.35361862182617 69.2327880859375 46.53091812133789 C 67.47077941894531 49.542274475097656 64.81594848632812 50.2499885559082 63.45574188232422 51.462440490722656 C 62.805320739746094 51.95254135131836 64.39743041992188 54.02771759033203 61.57490539550781 54.44292068481445 C 59.12805938720703 54.733604431152344 53.66618347167969 53.945003509521484 51.43539047241211 54.91221618652344 C 47.83061599731445 55.25182342529297 47.77241134643555 57.85230255126953 46.947994232177734 62.0008544921875 C 45.350433349609375 64.82866668701172 44.29767608642578 69.53926849365234 43.74163055419922 74.23856353759766 C 42.165279388427734 79.02596282958984 45.59883499145508 75.9068374633789 48.95873260498047 72.76740264892578" stroke-width="0.9142717719078064" fill="none" stroke="rgb(8, 45, 39)" stroke-opacity="0.736226" stroke-linecap="round" stroke-linejoin="round"/>
    <path d="M 83.17500305175781 45.78037643432617 C 82.047119140625 47.19395065307617 81.69855499267578 49.416954040527344 81.48304748535156 49.10973358154297 C 82.24646759033203 48.8619499206543 82.3127212524414 46.88512420654297 81.37684631347656 47.430335998535156 C 81.34764862060547 48.266273498535156 81.39823913574219 53.324623107910156 81.3254165649414 58.00617599487305 C 81.31021118164062 61.84355926513672 81.82684326171875 64.5226821899414 82.51641082763672 66.80817413330078 C 83.50082397460938 69.39482116699219 83.65257263183594 71.90581512451172 81.83419036865234 72.2145767211914 C 79.51528930664062 73.29483795166016 75.77043914794922 72.64579772949219 69.35417938232422 73.1523208618164 C 63.934940338134766 74.67973327636719 55.22384262084961 76.78618621826172 46.478759765625 78.83269500732422 C 37.666831970214844 80.36615753173828 35.55971145629883 78.55644989013672 35.02602767944336 76.82211303710938" stroke-width="1.409726619720459" fill="none" stroke="rgb(49, 44, 4)" stroke-opacity="0.97635996" stroke-linecap="round" stroke-linejoin="round"/>
    <path d="M 59.66518020629883 19.63031005859375 C 59.6816520690918 17.62237548828125 59.6795654296875 15.729299545288086 60.00434494018555 16.119905471801758 C 61.090911865234375 16.33713150024414 63.516475677490234 18.39402961730957 65.3794937133789 21.269468307495117 C 67.30908203125 24.427778244018555 66.67387390136719 18.49622344970703 65.25636291503906 12.879073143005371" stroke-width="1.5354163646697998" fill="none" stroke="rgb(132, 168, 174)" stroke-opacity="0.56273586" stroke-linecap="round" stroke-linejoin="round"/>
    <path d="M 35.1841926574707 76.9832992553711 C 35.26585388183594 77.03199005126953 35.29974365234375 76.31565856933594 35.077232360839844 74.83824920654297 C 35.826541900634766 74.25686645507812 37.39182662963867 73.82857513427734 39.33230972290039 73.67383575439453 C 40.660560607910156 72.08926391601562 40.28871536254883 75.52671813964844 39.886356353759766 78.93252563476562" stroke-width="1.2974507808685303" fill="none" stroke="rgb(67, 89, 125)" stroke-opacity="0.5328904" stroke-linecap="round" stroke-linejoin="round"/>
    <path d="M 49.862388610839844 73.86184692382812 C 50.145957946777344 72.9756088256836 49.58385467529297 73.59959411621094 50.06504821777344 73.4306869506836 C 49.86960220336914 72.70806884765625 50.495506286621094 74.16793823242188 51.13713455200195 76.47853088378906" stroke-width="1.0278770923614502" fill="none" stroke="rgb(245, 134, 249)" stroke-opacity="0.46119246" stroke-linecap="round" stroke-linejoin="round"/>
    <path d="M 81.21611785888672 45.87571716308594 C 82.6961441040039 46.43501663208008 83.58506774902344 47.07543182373047 83.49890899658203 46.43509292602539 C 84.25940704345703 45.80852127075195 84.89196014404297 43.97000503540039 85.52799987792969 42.128173828125 C 86.92320251464844 40.970924377441406 86.32718658447266 43.34541320800781 85.80060577392578 45.55379867553711" stroke-width="1.7420004606246948" fill="none" stroke="rgb(160, 255, 137)" stroke-opacity="0.5623363" stroke-linecap="round" stroke-linejoin="round"/>
    <path d="M 56.877830505371094 19.43368148803711 C 60.178192138671875 15.834907531738281 59.862186431884766 14.344528198242188 63.268009185791016 11.284794807434082" stroke-width="1.7295790910720825" fill="none" stroke="rgb(115, 17, 61)" stroke-opacity="0.56468487" stroke-linecap="round" stroke-linejoin="round"/>
    <path d="M 81.13116455078125 47.900001525878906 C 80.3316879272461 49.84387969970703 79.78263854980469 52.292537689208984 79.29827117919922 53.974884033203125 C 79.37838745117188 55.50975799560547 78.93348693847656 55.33407211303711 78.15682220458984 54.47985076904297 C 77.49473571777344 55.03388977050781 78.29823303222656 58.97747039794922 79.12211608886719 62.87253952026367" stroke-width="0.9886938333511353" fill="none" stroke="rgb(58, 208, 198)" stroke-opacity="0.49291918" stroke-linecap="round" stroke-linejoin="round"/>
    <path d="M 82.77576446533203 59.38258361816406 C 85.61688232421875 58.92866897583008 88.93658447265625 59.33671951293945 90.66613006591797 59.081417083740234 C 92.51969909667969 58.7583122253418 94.2906265258789 57.803192138671875 96.86247253417969 57.67982864379883 C 98.5048828125 56.64699935913086 98.64069366455078 49.72987747192383 99.55442810058594 43.67160415649414" stroke-width="2.1660871505737305" fill="none" stroke="rgb(31, 255, 195)" stroke-opacity="0.5525051" stroke-linecap="round" stroke-linejoin="round"/>
    <path d="M 49.823265075683594 72.42508697509766 C 51.927696228027344 67.43710327148438 47.31324768066406 69.14627075195312 47.92182922363281 69.39453125" stroke-width="0.9142717719078064" fill="none" stroke="rgb(36, 117, 187)" stroke-opacity="0.4461145" stroke-linecap="round" stroke-linejoin="round"/>
    <path d="M 38.09080123901367 80.4539794921875 C 40.189300537109375 81.01246643066406 41.42561721801758 81.08415985107422 42.5828971862793 80.96221923828125 C 43.84552764892578 80.6184310913086 42.65644836425781 77.14568328857422 40.62981414794922 73.71796417236328" stroke-width="0.9142717719078064" fill="none" stroke="rgb(96, 177, 122)" stroke-opacity="0.5094018" stroke-linecap="round" stroke-linejoin="round"/>
    <path d="M 84.36808013916016 48.0904655456543 C 82.63253784179688 47.866172790527344 80.89830017089844 47.6384162902832 79.14567565917969 47.449954986572266 C 77.57614135742188 46.41632843017578 79.86392211914062 47.92708969116211 81.56364440917969 49.9736328125" stroke-width="0.9142717719078064" fill="none" stroke="rgb(183, 128, 65)" stroke-opacity="0.4845866" stroke-linecap="round" stroke-linejoin="round"/>
    <path d="M 83.9823226928711 44.91077423095703 C 83.1579818725586 46.920955657958984 82.4630126953125 49.27240753173828 81.29483795166016 51.09572219848633 C 80.00882720947266 52.8861198425293 78.39557647705078 54.3529052734375 76.83209228515625 55.69925308227539 C 75.66588592529297 56.871883392333984 79.64207458496094 59.89431381225586 83.68777465820312 62.89020919799805" stroke-width="0.9142717719078064" fill="none" stroke="rgb(121, 52, 35)" stroke-opacity="0.4340518" stroke-linecap="round" stroke-linejoin="round"/>
    <path d="M 97.51970672607422 47.234710693359375 C 98.272216796875 45.58773422241211 99.85092163085938 41.36025619506836 93.58582305908203 41.872833251953125" stroke-width="0.9142717719078064" fill="none" stroke="rgb(79, 93, 119)" stroke-opacity="0.44015473" stroke-linecap="round" stroke-linejoin="round"/>
    <path d="M 66.92517852783203 13.781468391418457 C 69.64645385742188 7.6061530113220215 68.90554809570312 11.562143325805664 68.90249633789062 17.64217185974121" stroke-width="0.9142717719078064" fill="none" stroke="rgb(118, 255, 115)" stroke-opacity="0.45563114" stroke-linecap="round" stroke-linejoin="round"/>
    <path d="M 50.46355056762695 75.73002624511719 C 55.535125732421875 76.20741271972656 60.78932189941406 76.59979248046875 61.73890686035156 78.53755187988281 C 62.38105010986328 81.00196075439453 58.635704040527344 83.76968383789062 55.4598388671875 87.11294555664062 C 52.89667510986328 90.5711669921875 58.30384063720703 90.806396484375 63.73545455932617 91.0610580444336" stroke-width="0.9142717719078064" fill="none" stroke="rgb(192, 51, 141)" stroke-opacity="0.44226447" stroke-linecap="round" stroke-linejoin="round"/>
    <path d="M 80.72991943359375 58.535335540771484 C 82.07850646972656 60.30958557128906 83.60681915283203 61.75082778930664 85.02408599853516 63.333351135253906 C 87.13570404052734 64.2220458984375 86.4285659790039 63.071685791015625 84.80073547363281 62.83237838745117" stroke-width="0.9142717719078064" fill="none" stroke="rgb(127, 65, 94)" stroke-opacity="0.43888906" stroke-linecap="round" stroke-linejoin="round"/>
    <path d="M 65.63613891601562 13.587769508361816 C 64.54471588134766 10.130351066589355 62.339630126953125 9.224879264831543 63.39429473876953 19.976354598999023" stroke-width="1.212557077407837" fill="none" stroke="rgb(92, 127, 139)" stroke-opacity="0.5645283" stroke-linecap="round" stroke-linejoin="round"/>
    <path d="M 37.067970275878906 12.873437881469727 C 37.61486053466797 13.205662727355957 37.65937423706055 13.250571250915527 38.02669906616211 13.794349670410156 C 38.0603141784668 13.809375762939453 36.990264892578125 19.94634437561035 35.91573715209961 25.241302490234375" stroke-width="1.2709147930145264" fill="none" stroke="rgb(112, 79, 168)" stroke-opacity="0.49207687" stroke-linecap="round" stroke-linejoin="round"/>
    <path d="M 101.64071655273438 98.96464538574219 C 98.85889434814453 91.02922058105469 99.85948181152344 88.50991821289062 99.73639678955078 92.37210845947266" stroke-width="0.9142717719078064" fill="none" stroke="rgb(113, 130, 18)" stroke-opacity="0.5487068" stroke-linecap="round" stroke-linejoin="round"/>
    <path d="M 43.31515884399414 42.447696685791016 C 45.100624084472656 47.138587951660156 44.27492904663086 49.01099395751953 51.594482421875 46.91541290283203" stroke-width="1.545141577720642" fill="none" stroke="rgb(73, 57, 103)" stroke-opacity="0.5355912" stroke-linecap="round" stroke-linejoin="round"/>
    <path d="M 59.60702896118164 36.37841796875 C 61.85639953613281 36.6189079284668 63.97783279418945 35.99180603027344 65.26947784423828 34.47589874267578 C 67.55142211914062 34.05953598022461 65.53329467773438 37.14895248413086 61.83460998535156 38.68378448486328" stroke-width="1.6956669092178345" fill="none" stroke="rgb(69, 17, 23)" stroke-opacity="0.5289784" stroke-linecap="round" stroke-linejoin="round"/>
    <path d="M 0.9583104848861694 51.26948928833008 C -0.12712188065052032 54.528133392333984 1.367430329322815 50.04978561401367 1.4860166311264038 51.299644470214844" stroke-width="0.9142717719078064" fill="none" stroke="rgb(22, 158, 78)" stroke-opacity="0.4976309" stroke-linecap="round" stroke-linejoin="round"/>
    <path d="M 83.92353820800781 61.19405746459961 C 85.22158813476562 62.0648307800293 87.2878646850586 62.8138313293457 88.96074676513672 62.23297119140625 C 89.8122787475586 61.579471588134766 89.40541076660156 59.599063873291016 88.15581512451172 57.34003448486328 C 88.264892578125 55.568695068359375 92.068115234375 55.17169189453125 94.9912109375 53.98793411254883" stroke-width="1.0917723178863525" fill="none" stroke="rgb(15, 248, 176)" stroke-opacity="0.5279668" stroke-linecap="round" stroke-linejoin="round"/>
    <path d="M 42.853607177734375 81.73649597167969 C 43.97822570800781 78.62686920166016 44.35064697265625 74.01363372802734 46.130584716796875 70.83538055419922 C 47.17759704589844 66.89600372314453 45.879615783691406 67.0115966796875 44.61973190307617 68.5707778930664" stroke-width="0.9142717719078064" fill="none" stroke="rgb(201, 250, 244)" stroke-opacity="0.50310284" stroke-linecap="round" stroke-linejoin="round"/>
    <path d="M 54.47551345825195 98.9435806274414 C 57.1761474609375 99.91012573242188 60.89480209350586 100.21959686279297 62.435646057128906 100.39825439453125 C 63.285152435302734 101.28199005126953 62.57607650756836 102.60477447509766 61.87293243408203 103.49137878417969 C 61.19315719604492 104.32266998291016 58.73577880859375 102.0151596069336 56.95393371582031 99.76348876953125" stroke-width="0.9142717719078064" fill="none" stroke="rgb(0, 73, 66)" stroke-opacity="0.5002872" stroke-linecap="round" stroke-linejoin="round"/>
    <path d="M 86.35903930664062 0.1869104951620102 C 84.78326416015625 0.6845363974571228 83.11888122558594 1.0947471857070923 81.38741302490234 1.5254000425338745 C 78.9554443359375 1.0850508213043213 84.16641998291016 0.254168301820755 89.57750701904297 0.19192461669445038" stroke-width="0.9142717719078064" fill="none" stroke="rgb(138, 21, 106)" stroke-opacity="0.45874476" stroke-linecap="round" stroke-linejoin="round"/>
    <path d="M 54.47880935668945 38.966854095458984 C 53.16720199584961 42.754150390625 52.662532806396484 47.34873580932617 50.433692932128906 50.99576950073242 C 49.15058517456055 54.847679138183594 55.90015411376953 52.96821212768555 62.83116149902344 51.69256591796875" stroke-width="1.0007888078689575" fill="none" stroke="rgb(241, 255, 171)" stroke-opacity="0.4392235" stroke-linecap="round" stroke-linejoin="round"/>
    <path d="M 95.30865478515625 73.02726745605469 C 91.17381286621094 75.0563735961914 91.55402374267578 71.14220428466797 91.84640502929688 62.23845291137695" stroke-width="1.6224623918533325" fill="none" stroke="rgb(175, 172, 30)" stroke-opacity="0.5192177" stroke-linecap="round" stroke-linejoin="round"/>
    <path d="M 13.78613567352295 20.9105281829834 C 18.94632911682129 15.321609497070312 23.3038272857666 9.677851676940918 23.452465057373047 8.938733100891113 C 22.706544876098633 7.37790060043335 18.425565719604492 11.294286727905273 15.001961708068848 16.153745651245117 C 10.509446144104004 19.34226417541504 13.743769645690918 24.488994598388672 16.878456115722656 29.711711883544922" stroke-width="0.9676031470298767" fill="none" stroke="rgb(38, 0, 185)" stroke-opacity="0.528836" stroke-linecap="round" stroke-linejoin="round"/>
    <path d="M 21.391956329345703 91.40788269042969 C 17.207338333129883 91.23676300048828 13.161776542663574 92.0007553100586 8.67033863067627 92.40019989013672 C 4.288209915161133 93.54033660888672 12.85295295715332 94.4091796875 22.21775245666504 96.36160278320312" stroke-width="0.9142717719078064" fill="none" stroke="rgb(147, 173, 0)" stroke-opacity="0.5037209" stroke-linecap="round" stroke-linejoin="round"/>
    <path d="M 49.694454193115234 31.981393814086914 C 49.352760314941406 29.968101501464844 48.3787727355957 28.877302169799805 46.08717346191406 29.631147384643555 C 43.72981262207031 29.688535690307617 40.15105056762695 31.01034927368164 35.98237228393555 31.75484848022461 C 33.09578323364258 33.486968994140625 37.9455680847168 33.13585662841797 42.869205474853516 33.79683303833008" stroke-width="1.591098666191101" fill="none" stroke="rgb(51, 32, 31)" stroke-opacity="0.54951435" stroke-linecap="round" stroke-linejoin="round"/>
    <path d="M 8.560872077941895 26.020971298217773 C 8.765442848205566 15.685741424560547 9.091730117797852 13.33529281616211 4.999301910400391 9.20229721069336" stroke-width="0.9330968856811523" fill="none" stroke="rgb(133, 48, 255)" stroke-opacity="0.53114355" stroke-linecap="round" stroke-linejoin="round"/>
    <path d="M 0.9729080200195312 51.28984451293945 C -0.03880758956074715 54.730918884277344 -3.7946128845214844 54.625606536865234 -3.7381017208099365 52.29630661010742 C -1.3783317804336548 55.817508697509766 -3.0881826877593994 51.566436767578125 -8.085847854614258 53.26066207885742 C -9.744454383850098 49.9173583984375 -11.141899108886719 47.64664840698242 -9.02003002166748 49.19542694091797" stroke-width="0.9142717719078064" fill="none" stroke="rgb(197, 79, 37)" stroke-opacity="0.5887703" stroke-linecap="round" stroke-linejoin="round"/>
    <path d="M 0.9629475474357605 51.23859786987305 C -0.8036313056945801 50.52849197387695 2.6040072441101074 53.018211364746094 0.042732950299978256 49.289363861083984 C 4.020303726196289 45.971256256103516 5.313045501708984 50.58799743652344 1.8382405042648315 46.21304702758789" stroke-width="0.9142717719078064" fill="none" stroke="rgb(33, 5, 18)" stroke-opacity="0.5761844" stroke-linecap="round" stroke-linejoin="round"/>
    <path d="M 86.62364959716797 0.5013855695724487 C 84.22689819335938 4.353092193603516 81.0459213256836 3.8791260719299316 76.7797622680664 5.363100528717041 C 74.57244873046875 2.176056385040283 71.36517333984375 -0.5025057196617126 75.12214660644531 -5.4752960205078125 C 69.98245239257812 -9.454242706298828 72.85639190673828 -11.655029296875 77.96865844726562 -15.992081642150879" stroke-width="1.0777959823608398" fill="none" stroke="rgb(163, 235, 101)" stroke-opacity="0.8212304" stroke-linecap="round" stroke-linejoin="round"/>
    <path d="M 85.59940338134766 45.014625549316406 C 85.94203186035156 50.43555450439453 84.19654083251953 54.295188903808594 82.23339080810547 51.06084060668945" stroke-width="0.9821608066558838" fill="none" stroke="rgb(155, 133, 240)" stroke-opacity="0.98314655" stroke-linecap="round" stroke-linejoin="round"/>
    <path d="M 80.88577270507812 50.28594970703125 C 85.3475570678711 51.023345947265625 84.7349624633789 52.533653259277344 81.21588897705078 49.265316009521484 C 84.03575897216797 49.65079879760742 87.58626556396484 45.77275085449219 90.74598693847656 47.978023529052734" stroke-width="0.9142717719078064" fill="none" stroke="rgb(24, 143, 149)" stroke-opacity="0.64055294" stroke-linecap="round" stroke-linejoin="round"/>
    <path d="M 39.00801086425781 79.0024642944336 C 42.2092170715332 75.62503051757812 42.59085464477539 72.4139404296875 38.33983612060547 74.53106689453125 C 35.3499641418457 71.35370635986328 38.36551284790039 70.9035415649414 42.00337219238281 67.71033477783203 C 38.32395935058594 70.90563201904297 42.772308349609375 75.94409942626953 42.87189865112305 77.73057556152344" stroke-width="0.9142717719078064" fill="none" stroke="rgb(111, 197, 46)" stroke-opacity="0.7227426" stroke-linecap="round" stroke-linejoin="round"/>
    <path d="M 100.2582015991211 92.8636245727539 C 100.92278289794922 90.71559143066406 99.88462829589844 88.83756256103516 98.462646484375 85.5440673828125 C 98.3486557006836 81.34843444824219 95.2627944946289 81.20061492919922 93.77545928955078 83.17269134521484 C 89.59900665283203 80.8273696899414 86.47483825683594 85.20639038085938 88.59895324707031 90.49075317382812" stroke-width="0.9142717719078064" fill="none" stroke="rgb(176, 78, 135)" stroke-opacity="0.3861973" stroke-linecap="round" stroke-linejoin="round"/>
    <path d="M 63.741493225097656 91.73899841308594 C 65.04022216796875 88.68634796142578 66.0362777709961 83.40281677246094 63.30157470703125 85.52122497558594 C 59.74714279174805 86.09810638427734 56.27119827270508 88.88545227050781 56.89406204223633 83.92699432373047 C 55.8332633972168 81.25254821777344 59.50276184082031 80.57454681396484 62.4069938659668 81.23858642578125" stroke-width="1.094476580619812" fill="none" stroke="rgb(37, 220, 23)" stroke-opacity="0.79271287" stroke-linecap="round" stroke-linejoin="round"/>
    <path d="M 77.96865844726562 -15.992081642150879 C 75.73657989501953 -17.676727294921875 76.3541030883789 -17.445518493652344 76.5224609375 -13.363040924072266 C 74.64984130859375 -8.614538192749023 76.58718872070312 -11.0764799118042 72.27632904052734 -11.245246887207031" stroke-width="0.9142717719078064" fill="none" stroke="rgb(35, 156, 141)" stroke-opacity="0.5682965" stroke-linecap="round" stroke-linejoin="round"/>
    <path d="M -9.02003002166748 49.19542694091797 C -13.363907814025879 53.397891998291016 -16.820369720458984 48.553138732910156 -14.986845970153809 48.026363372802734 C -11.64777946472168 44.26068878173828 -16.082273483276367 41.94654083251953 -16.34466552734375 43.75874710083008" stroke-width="0.9142717719078064" fill="none" stroke="rgb(41, 0, 164)" stroke-opacity="0.119019136" stroke-linecap="round" stroke-linejoin="round"/>
    <path d="M 61.83697509765625 81.0085678100586 C 65.2780532836914 84.03897094726562 63.37804412841797 80.03752136230469 59.218849182128906 78.4072494506836 C 56.7621955871582 77.93313598632812 56.76434326171875 80.69535827636719 54.821834564208984 81.80525207519531 C 57.94307327270508 86.48136901855469 53.13362121582031 86.64297485351562 49.22408676147461 87.97846221923828" stroke-width="0.9142717719078064" fill="none" stroke="rgb(206, 143, 18)" stroke-opacity="0.76217264" stroke-linecap="round" stroke-linejoin="round"/>
    <path d="M 42.456607818603516 78.36772918701172 C 42.195655822753906 78.99850463867188 46.5745964050293 81.47030639648438 49.42778396606445 77.62999725341797 C 51.80398941040039 80.7602767944336 54.615623474121094 84.32032775878906 50.3964729309082 85.52941131591797" stroke-width="0.9142717719078064" fill="none" stroke="rgb(78, 194, 169)" stroke-opacity="0.25371978" stroke-linecap="round" stroke-linejoin="round"/>
    <path d="M 1.871893048286438 46.20358657836914 C 0.8171384334564209 43.48359298706055 -3.8806276321411133 40.150596618652344 -0.17773030698299408 36.62600326538086 C -0.7452619671821594 37.791507720947266 -5.066762447357178 34.64364242553711 -4.232342720031738 35.66355895996094" stroke-width="0.9142717719078064" fill="none" stroke="rgb(15, 9, 112)" stroke-opacity="0.11019352" stroke-linecap="round" stroke-linejoin="round"/>
    <path d="M 88.50067901611328 90.4380874633789 C 89.2918472290039 94.35610961914062 85.1626968383789 96.96595764160156 85.30574798583984 100.0750503540039 C 82.77104187011719 97.36602783203125 84.34101104736328 101.56771850585938 84.44432067871094 103.44680786132812 C 87.04891967773438 98.49774169921875 88.80340576171875 94.40931701660156 83.75057983398438 96.36441802978516" stroke-width="1.0811851024627686" fill="none" stroke="rgb(255, 62, 124)" stroke-opacity="0.39553535" stroke-linecap="round" stroke-linejoin="round"/>
    <path d="M 1.84134042263031 46.19971466064453 C 4.541996002197266 42.56290817260742 5.41412353515625 40.125553131103516 2.380338191986084 41.18295669555664 C 1.4566621780395508 39.24323654174805 3.7229080200195312 34.67033004760742 0.0852704793214798 34.951759338378906" stroke-width="0.9142717719078064" fill="none" stroke="rgb(63, 174, 159)" stroke-opacity="0.2080474" stroke-linecap="round" stroke-linejoin="round"/>
    <path d="M 88.46492767333984 90.52307891845703 C 87.7626953125 88.29624938964844 86.73772430419922 88.38533782958984 90.90494537353516 87.14917755126953 C 87.76923370361328 90.25904083251953 91.52313995361328 85.30715942382812 87.62461853027344 81.50215148925781 C 89.97023010253906 79.12020874023438 94.63192749023438 83.52970123291016 91.92106628417969 80.75873565673828" stroke-width="0.9142717719078064" fill="none" stroke="rgb(97, 107, 175)" stroke-opacity="0.39470625" stroke-linecap="round" stroke-linejoin="round"/>
    <path d="M 56.9490966796875 78.97799682617188 C 56.05306625366211 79.108642578125 55.65848159790039 83.98391723632812 51.65407943725586 79.77116394042969 C 50.995914459228516 84.6279067993164 47.41026306152344 87.27204895019531 45.2984733581543 87.58198547363281" stroke-width="0.9142717719078064" fill="none" stroke="rgb(214, 196, 76)" stroke-opacity="0.86951023" stroke-linecap="round" stroke-linejoin="round"/>
    <path d="M 27.175886154174805 1.2957861423492432 C 27.366233825683594 5.389857769012451 26.6027774810791 7.158901214599609 30.923946380615234 11.068563461303711 C 29.25967788696289 8.752910614013672 24.917484283447266 8.834576606750488 29.09640121459961 10.55517292022705" stroke-width="0.9952228665351868" fill="none" stroke="rgb(247, 17, 139)" stroke-opacity="0.44848314" stroke-linecap="round" stroke-linejoin="round"/>
    <path d="M 9.702718734741211 36.75111389160156 C 9.980558395385742 33.974647521972656 9.794210433959961 33.84267044067383 5.4222822189331055 33.973873138427734 C 4.081455707550049 36.95240783691406 -0.8613197803497314 36.438602447509766 -3.072948932647705 35.798431396484375" stroke-width="0.9142717719078064" fill="none" stroke="rgb(245, 91, 78)" stroke-opacity="0.561947" stroke-linecap="round" stroke-linejoin="round"/>
    <path d="M 71.19220733642578 0.61213618516922 C 75.29679107666016 1.2116872072219849 75.58657836914062 -2.0150866508483887 71.68701171875 -6.806188106536865 C 75.36027526855469 -4.462912559509277 77.10008239746094 -9.227112770080566 72.66993713378906 -13.474859237670898" stroke-width="1.0972270965576172" fill="none" stroke="rgb(161, 146, 201)" stroke-opacity="0.4344154" stroke-linecap="round" stroke-linejoin="round"/>
    <path d="M 5.429612636566162 44.35702896118164 C 9.845029830932617 41.637149810791016 10.847291946411133 45.047000885009766 10.462347030639648 46.05946350097656 C 10.07059097290039 49.59950637817383 13.131550788879395 45.10121154785156 12.12663745880127 46.79192352294922" stroke-width="0.9142717719078064" fill="none" stroke="rgb(154, 41, 129)" stroke-opacity="0.4128773" stroke-linecap="round" stroke-linejoin="round"/>
    <path d="M 28.615989685058594 62.34126281738281 C 24.29656219482422 59.6859130859375 28.703807830810547 54.93749237060547 26.964378356933594 51.21845245361328 C 25.722745895385742 54.645111083984375 28.791088104248047 59.040855407714844 27.71299171447754 60.59245681762695" stroke-width="1.0750606060028076" fill="none" stroke="rgb(91, 134, 77)" stroke-opacity="0.8583244" stroke-linecap="round" stroke-linejoin="round"/>
    <path d="M 7.095227241516113 85.5984878540039 C 5.2266316413879395 81.79896545410156 3.1538872718811035 80.04206085205078 0.9221794009208679 81.21544647216797" stroke-width="1.0663716793060303" fill="none" stroke="rgb(78, 179, 53)" stroke-opacity="0.1983523" stroke-linecap="round" stroke-linejoin="round"/>
    <path d="M 57.985286712646484 101.51908111572266 C 61.96689224243164 102.46774291992188 63.957584381103516 100.17721557617188 62.384769439697266 104.16663360595703" stroke-width="1.0580803155899048" fill="none" stroke="rgb(79, 18, 120)" stroke-opacity="0.4184676" stroke-linecap="round" stroke-linejoin="round"/>
    <path d="M 55.79413604736328 21.08095932006836 C 56.963008880615234 21.17690086364746 62.18669891357422 19.78984832763672 66.41685485839844 19.864681243896484" stroke-width="0.9142717719078064" fill="none" stroke="rgb(15, 120, 66)" stroke-opacity="0.7277766" stroke-linecap="round" stroke-linejoin="round"/>
    <path d="M 93.2746353149414 30.477603912353516 C 90.18048095703125 32.499656677246094 88.19573211669922 32.217010498046875 88.68758392333984 32.63949203491211 C 85.93350219726562 32.70469665527344 89.13728332519531 32.97959899902344 83.77619934082031 37.210960388183594" stroke-width="0.9142717719078064" fill="none" stroke="rgb(166, 225, 100)" stroke-opacity="0.9625406" stroke-linecap="round" stroke-linejoin="round"/>
    <path d="M 80.05685424804688 1.1798938512802124 C 80.14265441894531 3.4856925010681152 82.63481140136719 3.6234304904937744 82.71098327636719 1.9042298793792725" stroke-width="0.9142717719078064" fill="none" stroke="rgb(174, 215, 145)" stroke-opacity="0.45563957" stroke-linecap="round" stroke-linejoin="round"/>
    <path d="M 40.73871612548828 3.7721736431121826 C 36.36988830566406 3.6733274459838867 36.09485626220703 6.514404296875 36.34882354736328 4.680976867675781 C 35.118682861328125 5.837423324584961 40.25159454345703 6.579960346221924 37.720802307128906 11.351177215576172" stroke-width="0.9142717719078064" fill="none" stroke="rgb(154, 170, 163)" stroke-opacity="0.24591297" stroke-linecap="round" stroke-linejoin="round"/>
    <path d="M 74.8530044555664 60.09829330444336 C 73.6669921875 65.58452606201172 74.46263122558594 69.887939453125 74.60890197753906 67.46835327148438 C 78.71011352539062 66.14350128173828 74.94111633300781 63.99068832397461 75.96812438964844 59.375160217285156 C 72.4795913696289 63.700626373291016 77.31072235107422 67.19734954833984 78.17539978027344 69.42680358886719" stroke-width="1.0903325080871582" fill="none" stroke="rgb(98, 185, 132)" stroke-opacity="0.6018771" stroke-linecap="round" stroke-linejoin="round"/>
    <path d="M 74.11404418945312 85.68936920166016 C 71.63172912597656 89.26236724853516 71.43984985351562 90.69696044921875 74.79159545898438 90.49613189697266" stroke-width="0.9142717719078064" fill="none" stroke="rgb(42, 121, 97)" stroke-opacity="0.76613724" stroke-linecap="round" stroke-linejoin="round"/>
    <path d="M 35.60942077636719 75.0937728881836 C 40.03232955932617 71.67054748535156 39.31443405151367 76.62303924560547 42.69816970825195 76.38188171386719 C 38.015071868896484 76.1668930053711 34.921546936035156 75.77703094482422 32.541770935058594 74.64259338378906" stroke-width="0.9142717719078064" fill="none" stroke="rgb(41, 93, 138)" stroke-opacity="0.65187985" stroke-linecap="round" stroke-linejoin="round"/>
    <path d="M 0.044465571641922 62.259944915771484 C 0.7499291300773621 62.07046127319336 -3.55910062789917 62.523193359375 -2.4999518394470215 61.00459289550781" stroke-width="0.9142717719078064" fill="none" stroke="rgb(76, 44, 201)" stroke-opacity="0.2949749" stroke-linecap="round" stroke-linejoin="round"/>
  </g>
</svg>
