<?xml version="1.0" ?>
<svg xmlns="http://www.w3.org/2000/svg" version="1.1" width="956.0" height="956.0">
  <defs/>
  <g>
    <path d="M 106.20632934570312 49.082557678222656 C 102.99785614013672 53.53691864013672 83.79853057861328 57.210205078125 81.99993133544922 58.49797439575195 C 80.20914459228516 59.72090530395508 77.82038116455078 71.34536743164062 79.7348861694336 73.26441955566406 C 81.98125457763672 75.16850280761719 90.2070541381836 70.91363525390625 95.68242645263672 75.5841064453125 C 108.69048309326172 86.49093627929688 112.39761352539062 98.76697540283203 129.30850219726562 73.69392395019531 C 130.83863830566406 72.11712646484375 143.44322204589844 76.93283081054688 144.57537841796875 75.39918518066406 C 145.7017822265625 73.63211059570312 148.20326232910156 63.36419677734375 144.05001831054688 61.13906478881836 C 140.1485595703125 58.9146728515625 120.4818115234375 53.099727630615234 118.97150421142578 50.043067932128906 C 117.38724517822266 46.99109649658203 119.50894165039062 42.029144287109375 113.06624603271484 42.21217727661133 C 106.39030456542969 41.7087287902832 107.91744995117188 43.801025390625 107.17220306396484 47.267677307128906" stroke-width="6.409327030181885" fill="none" stroke="rgb(239, 210, 166)" stroke-opacity="1.0" stroke-linecap="round" stroke-linejoin="round"/>
    <path d="M 112.31897735595703 50.950531005859375 C 111.98755645751953 56.751888275146484 86.8707046508789 59.26044464111328 89.7391586303711 66.86976623535156 C 109.54496002197266 69.2699966430664 109.21287536621094 94.8333511352539 127.67684936523438 74.4656982421875 C 129.77711486816406 72.05973815917969 136.15528869628906 68.90845489501953 135.59776306152344 68.14651489257812 C 135.0506134033203 67.3582992553711 112.22410583496094 56.29188537597656 113.14665222167969 54.66202163696289" stroke-width="14.09659481048584" fill="none" stroke="rgb(238, 210, 166)" stroke-opacity="1.0" stroke-linecap="round" stroke-linejoin="round"/>
    <path d="M 111.6496810913086 69.0276870727539 C 105.1257095336914 73.54747009277344 107.98043060302734 88.34022521972656 109.40172576904297 88.49498748779297 C 110.98117065429688 88.77893829345703 114.51378631591797 72.876220703125 114.66138458251953 70.60890197753906 C 114.80667114257812 68.34209442138672 104.61205291748047 71.51226806640625 104.6513442993164 72.76519012451172" stroke-width="25.34238052368164" fill="none" stroke="rgb(238, 209, 165)" stroke-opacity="1.0" stroke-linecap="round" stroke-linejoin="round"/>
    <path d="M 74.09626770019531 66.87576293945312 C 73.24993896484375 71.60144805908203 73.23228454589844 76.4791259765625 74.2647933959961 76.36500549316406 C 75.55007934570312 76.2493896484375 74.17584228515625 70.71305084228516 75.62248229980469 70.50800323486328 C 77.3240737915039 70.310791015625 76.42546081542969 75.85601806640625 77.5234375 75.07398986816406 C 78.55610656738281 74.4955825805664 77.35772705078125 70.46878814697266 79.5123519897461 71.96736907958984 C 81.63780975341797 73.59532928466797 81.62567901611328 76.2073974609375 83.89690399169922 74.3305892944336 C 86.18769073486328 72.44300842285156 86.33866119384766 72.30250549316406 87.06571197509766 72.82775115966797" stroke-width="5.099619388580322" fill="none" stroke="rgb(0, 111, 208)" stroke-opacity="1.0" stroke-linecap="round" stroke-linejoin="round"/>
    <path d="M 86.52391052246094 78.86238861083984 C 103.02666473388672 77.32988739013672 101.39175415039062 77.25875091552734 106.020751953125 81.36905670166016 C 109.5235824584961 84.0885238647461 130.56199645996094 99.60020446777344 129.5363311767578 102.40779876708984 C 128.53831481933594 104.9660415649414 127.98428344726562 107.3045654296875 118.79658508300781 106.41765594482422 C 109.47457885742188 105.35649871826172 95.06464385986328 105.70845794677734 94.4300765991211 103.55589294433594 C 93.80213928222656 101.39906311035156 88.38341522216797 81.78569793701172 89.28318786621094 81.61499786376953 C 90.42984008789062 81.7005615234375 100.83261108398438 82.63311767578125 103.67184448242188 85.00538635253906 C 106.51644134521484 87.34922790527344 125.01302337646484 100.35406494140625 123.8731460571289 101.25830078125 C 123.23198699951172 102.41394805908203 100.75094604492188 102.79523468017578 99.12728881835938 101.43277740478516 C 97.75020599365234 100.07168579101562 92.4732666015625 89.20148468017578 94.68670654296875 87.40860748291016 C 96.65154266357422 85.36963653564453 115.71782684326172 98.71255493164062 115.25294494628906 98.7135238647461 C 114.66583251953125 98.84940338134766 104.43817138671875 98.90095520019531 102.71279907226562 98.07785034179688 C 101.34916687011719 97.58045959472656 99.1820297241211 94.1878890991211 99.98025512695312 92.78050994873047 C 100.56060791015625 91.32186126708984 103.66989135742188 96.66502380371094 105.19928741455078 96.31550598144531" stroke-width="5.125250339508057" fill="none" stroke="rgb(0, 113, 207)" stroke-opacity="1.0" stroke-linecap="round" stroke-linejoin="round"/>
    <path d="M 117.40137481689453 82.23601531982422 C 124.12056732177734 76.85612487792969 129.7144317626953 75.52959442138672 133.37075805664062 76.6112289428711 C 139.12196350097656 78.51727294921875 133.3363800048828 96.43923950195312 132.43080139160156 96.91897583007812 C 131.81060791015625 97.39287567138672 122.28443145751953 86.216796875 121.71125030517578 84.96076202392578 C 121.13980102539062 83.96871948242188 130.03790283203125 78.3011245727539 130.1147918701172 80.06922912597656 C 130.43951416015625 81.6255874633789 131.30111694335938 90.45479583740234 130.40380859375 89.94867706298828 C 129.56793212890625 89.3736343383789 124.28031921386719 86.16410064697266 126.2472152709961 84.53717803955078 C 128.2310333251953 82.85311889648438 127.76959991455078 83.64383697509766 128.04037475585938 84.92529296875" stroke-width="5.256165981292725" fill="none" stroke="rgb(0, 112, 208)" stroke-opacity="1.0" stroke-linecap="round" stroke-linejoin="round"/>
    <path d="M 139.08900451660156 71.91641235351562 C 148.67474365234375 66.64156341552734 151.0028076171875 63.28415298461914 150.4202880859375 64.85578155517578 C 149.8371124267578 66.42784881591797 148.51165771484375 69.03144073486328 147.5365753173828 69.66443634033203 C 146.61972045898438 70.28048706054688 147.5891571044922 73.27056884765625 145.60508728027344 73.25797271728516 C 143.8512420654297 73.87382507324219 139.79766845703125 73.92498779296875 140.8470458984375 72.72469329833984 C 142.09616088867188 71.6466064453125 143.72442626953125 72.64429473876953 145.02545166015625 71.23065185546875" stroke-width="5.263880252838135" fill="none" stroke="rgb(0, 113, 209)" stroke-opacity="1.0" stroke-linecap="round" stroke-linejoin="round"/>
    <path d="M 94.1507339477539 110.17535400390625 C 106.0633544921875 111.19393920898438 113.56045532226562 111.77630615234375 118.0140380859375 111.43314361572266 C 122.46514892578125 111.1250991821289 129.29315185546875 111.23892211914062 131.20077514648438 110.04165649414062" stroke-width="5.061338901519775" fill="none" stroke="rgb(0, 112, 206)" stroke-opacity="1.0" stroke-linecap="round" stroke-linejoin="round"/>
    <path d="M 75.27108764648438 61.59095001220703 C 76.1667251586914 65.01009368896484 76.22271728515625 69.8211898803711 86.3240966796875 71.38274383544922 C 96.59066009521484 72.71138000488281 98.98690032958984 72.41917419433594 103.99409484863281 75.2645034790039 C 108.69904327392578 78.4188232421875 130.06130981445312 97.03496551513672 132.03057861328125 100.45356750488281 C 136.3997802734375 108.08370208740234 128.57249450683594 108.75862121582031 118.9869613647461 109.3692398071289 C 109.45355224609375 109.79682159423828 92.97712707519531 107.21411895751953 91.67903900146484 106.5731201171875 C 90.0953140258789 105.92500305175781 85.7468032836914 81.44427490234375 84.4371566772461 77.55744934082031" stroke-width="2.92155122756958" fill="none" stroke="rgb(0, 8, 94)" stroke-opacity="1.0" stroke-linecap="round" stroke-linejoin="round"/>
    <path d="M 76.1322250366211 60.53285598754883 C 73.45338439941406 63.183494567871094 70.17359161376953 67.61188507080078 70.45231628417969 69.08192443847656 C 71.08121490478516 70.77778625488281 70.07026672363281 73.99459075927734 71.42850494384766 74.37238311767578 C 73.01100158691406 74.74969482421875 71.99636840820312 79.29962158203125 73.56018829345703 79.97245025634766 C 75.13594055175781 80.34069061279297 81.33562469482422 77.2329330444336 89.74626922607422 75.17341613769531 C 98.35541534423828 73.2431640625 98.65536499023438 73.65667724609375 101.8141098022461 75.07958984375" stroke-width="2.870037317276001" fill="none" stroke="rgb(0, 9, 94)" stroke-opacity="1.0" stroke-linecap="round" stroke-linejoin="round"/>
    <path d="M 113.05451965332031 81.88774108886719 C 117.57683563232422 77.90946197509766 121.23112487792969 73.62033081054688 127.3899154663086 72.69731140136719 C 133.50889587402344 71.92635345458984 139.69351196289062 73.63910675048828 139.86154174804688 78.78829956054688 C 140.24696350097656 83.95332336425781 134.15187072753906 102.64862823486328 133.24429321289062 105.49354553222656" stroke-width="2.933347225189209" fill="none" stroke="rgb(0, 9, 94)" stroke-opacity="1.0" stroke-linecap="round" stroke-linejoin="round"/>
    <path d="M 133.78428649902344 72.44054412841797 C 147.81675720214844 64.1308822631836 148.42013549804688 64.37451171875 150.4500274658203 62.23495864868164" stroke-width="2.8022828102111816" fill="none" stroke="rgb(0, 7, 93)" stroke-opacity="1.0" stroke-linecap="round" stroke-linejoin="round"/>
    <path d="M 150.51922607421875 62.19474411010742 C 153.29107666015625 63.17897415161133 157.04598999023438 60.96195602416992 154.89675903320312 64.80406188964844 C 152.75619506835938 68.58259582519531 152.33877563476562 66.62210845947266 152.19393920898438 69.69905853271484 C 152.16781616210938 73.09757995605469 149.8723602294922 70.32957458496094 149.47793579101562 73.58309173583984 C 149.09494018554688 76.88536071777344 147.05218505859375 78.76679992675781 139.26763916015625 76.61015319824219" stroke-width="2.979930877685547" fill="none" stroke="rgb(0, 8, 93)" stroke-opacity="1.0" stroke-linecap="round" stroke-linejoin="round"/>
    <path d="M 91.0697021484375 105.97798156738281 C 92.82947540283203 113.45928192138672 91.96823120117188 113.41638946533203 94.01937866210938 114.10404968261719 C 96.11992645263672 114.62378692626953 129.6634521484375 114.99835968017578 131.7751007080078 113.12174224853516 C 135.68763732910156 109.61747741699219 134.3505859375 108.23552703857422 132.50685119628906 106.35820007324219" stroke-width="2.913620710372925" fill="none" stroke="rgb(0, 9, 93)" stroke-opacity="1.0" stroke-linecap="round" stroke-linejoin="round"/>
    <path d="M 72.77933502197266 83.58003234863281 C 87.3830337524414 83.35852813720703 86.04999542236328 78.67862701416016 91.43392181396484 85.35011291503906 C 94.30409240722656 82.50305938720703 94.96312713623047 86.94156646728516 94.09284973144531 89.3486099243164" stroke-width="2.0" fill="none" stroke="rgb(118, 42, 194)" stroke-opacity="0.061522424" stroke-linecap="round" stroke-linejoin="round"/>
    <path d="M 78.39593505859375 71.94348907470703 C 82.1748046875 59.2850456237793 82.70845031738281 71.40775299072266 80.43189239501953 67.37850189208984" stroke-width="3.625220775604248" fill="none" stroke="rgb(54, 0, 177)" stroke-opacity="0.6874365" stroke-linecap="round" stroke-linejoin="round"/>
    <path d="M 128.0724639892578 73.72412872314453 C 118.76829528808594 71.1513442993164 123.9365234375 58.78464889526367 133.43312072753906 59.31566619873047" stroke-width="2.7688612937927246" fill="none" stroke="rgb(189, 220, 138)" stroke-opacity="0.6141988" stroke-linecap="round" stroke-linejoin="round"/>
    <path d="M 80.62890625 73.79124450683594 C 92.3525619506836 77.10651397705078 90.20162963867188 73.67023468017578 101.6305160522461 67.35065460205078 C 96.70220184326172 77.8824462890625 85.83036041259766 76.29061126708984 87.99855041503906 77.95707702636719" stroke-width="2.682326316833496" fill="none" stroke="rgb(77, 81, 68)" stroke-opacity="0.16830635" stroke-linecap="round" stroke-linejoin="round"/>
    <path d="M 90.68020629882812 92.95924377441406 C 84.90570831298828 96.79257202148438 84.70708465576172 100.70462799072266 67.65390014648438 95.87767028808594 C 56.43738555908203 95.64112854003906 52.7332649230957 93.82237243652344 58.44799041748047 85.69869995117188 C 47.44108581542969 92.31339263916016 40.760467529296875 85.87875366210938 44.24301528930664 73.26871490478516" stroke-width="2.0" fill="none" stroke="rgb(136, 127, 255)" stroke-opacity="0.48503712" stroke-linecap="round" stroke-linejoin="round"/>
    <path d="M 136.3706512451172 58.503597259521484 C 127.28997039794922 49.77356719970703 132.4992218017578 56.49571228027344 122.94034576416016 64.24710083007812" stroke-width="3.9541754722595215" fill="none" stroke="rgb(181, 50, 74)" stroke-opacity="1.0" stroke-linecap="round" stroke-linejoin="round"/>
    <path d="M 88.13936614990234 77.1475830078125 C 79.05599212646484 83.64019775390625 76.74264526367188 78.01238250732422 74.24415588378906 82.51513671875" stroke-width="2.0" fill="none" stroke="rgb(158, 157, 91)" stroke-opacity="0.12725048" stroke-linecap="round" stroke-linejoin="round"/>
    <path d="M 91.48873901367188 75.27310943603516 C 82.87435150146484 74.3083724975586 75.44161987304688 72.25365447998047 83.01890563964844 75.77555084228516 C 87.71575927734375 63.413612365722656 78.85137176513672 62.39632034301758 88.94231414794922 61.76960372924805 C 94.5971908569336 71.21317291259766 87.02446746826172 78.43328094482422 72.56232452392578 71.2412109375" stroke-width="2.0" fill="none" stroke="rgb(84, 182, 225)" stroke-opacity="0.29895574" stroke-linecap="round" stroke-linejoin="round"/>
    <path d="M 134.10879516601562 59.174224853515625 C 139.19752502441406 46.1588134765625 138.0413818359375 57.14479446411133 139.732177734375 68.0399398803711" stroke-width="4.001171588897705" fill="none" stroke="rgb(224, 61, 115)" stroke-opacity="0.3126059" stroke-linecap="round" stroke-linejoin="round"/>
    <path d="M 19.699935913085938 77.381591796875 C 18.071674346923828 69.62943267822266 19.991605758666992 74.80579376220703 9.743080139160156 70.4730453491211 C -0.35672226548194885 62.772979736328125 11.320035934448242 60.76097106933594 17.479656219482422 64.1159439086914 C 7.138851165771484 60.789390563964844 1.2060941457748413 56.796295166015625 -4.152734756469727 62.939212799072266" stroke-width="2.2150466442108154" fill="none" stroke="rgb(107, 94, 232)" stroke-opacity="0.24193805" stroke-linecap="round" stroke-linejoin="round"/>
    <path d="M 186.4521942138672 -0.2945082187652588 C 186.2498016357422 -5.813211441040039 181.4069061279297 -0.7131661176681519 183.84669494628906 9.064963340759277 C 179.20469665527344 2.218815565109253 188.15455627441406 -0.3261198103427887 202.11444091796875 0.8691906929016113 C 206.58685302734375 -4.909406661987305 197.17237854003906 -8.183765411376953 203.52554321289062 -8.024544715881348" stroke-width="2.0" fill="none" stroke="rgb(128, 238, 62)" stroke-opacity="0.42943695" stroke-linecap="round" stroke-linejoin="round"/>
    <path d="M 211.331298828125 190.40794372558594 C 211.6381378173828 195.6839599609375 211.3555908203125 194.38067626953125 210.4956512451172 186.67984008789062 C 216.18296813964844 184.38075256347656 225.1385040283203 190.53465270996094 214.98574829101562 196.66262817382812 C 212.335205078125 192.4852752685547 223.10888671875 194.4383087158203 229.14625549316406 191.01914978027344" stroke-width="2.0" fill="none" stroke="rgb(132, 29, 181)" stroke-opacity="0.0024901559" stroke-linecap="round" stroke-linejoin="round"/>
    <path d="M 60.502037048339844 186.01971435546875 C 52.252742767333984 190.10183715820312 53.7294807434082 190.85845947265625 53.309669494628906 188.75808715820312 C 55.689395904541016 199.8929443359375 57.10967254638672 191.8643341064453 51.39794921875 181.2155303955078 C 57.18855667114258 175.7769775390625 51.513179779052734 182.36209106445312 63.86183166503906 191.31948852539062" stroke-width="2.0" fill="none" stroke="rgb(212, 214, 62)" stroke-opacity="0.14366975" stroke-linecap="round" stroke-linejoin="round"/>
    <path d="M 81.32196044921875 78.66748809814453 C 84.84751892089844 90.98214721679688 82.27627563476562 93.3273696899414 89.01876068115234 100.68362426757812 C 95.73169708251953 91.1552734375 88.27265167236328 88.0490951538086 97.2533950805664 87.56232452392578 C 106.61556243896484 85.9464111328125 117.28264617919922 83.22483825683594 129.55755615234375 86.16459655761719" stroke-width="2.6639907360076904" fill="none" stroke="rgb(165, 123, 137)" stroke-opacity="0.0" stroke-linecap="round" stroke-linejoin="round"/>
    <path d="M 47.291595458984375 35.18413162231445 C 43.206756591796875 27.052783966064453 33.274566650390625 28.017349243164062 40.885799407958984 37.61825942993164 C 35.75581359863281 49.024436950683594 44.963539123535156 51.89201736450195 41.50967025756836 54.21612548828125" stroke-width="2.0" fill="none" stroke="rgb(84, 101, 151)" stroke-opacity="0.0" stroke-linecap="round" stroke-linejoin="round"/>
    <path d="M 49.18355941772461 134.98678588867188 C 43.05889129638672 142.99090576171875 47.49256134033203 150.23345947265625 45.661861419677734 142.72596740722656" stroke-width="2.0" fill="none" stroke="rgb(74, 157, 139)" stroke-opacity="0.0" stroke-linecap="round" stroke-linejoin="round"/>
    <path d="M 64.80400085449219 152.69183349609375 C 61.13315200805664 152.1270751953125 67.4479751586914 157.48341369628906 69.77311706542969 167.79054260253906 C 77.4914779663086 176.1070098876953 74.6264419555664 172.0330810546875 72.46879577636719 174.01205444335938" stroke-width="2.0" fill="none" stroke="rgb(0, 178, 213)" stroke-opacity="0.099792264" stroke-linecap="round" stroke-linejoin="round"/>
    <path d="M 69.51939392089844 223.44544982910156 C 64.88090515136719 214.11041259765625 74.93948364257812 211.24978637695312 81.76758575439453 202.85301208496094 C 80.20588684082031 206.94790649414062 79.22225952148438 214.7111053466797 86.95170593261719 212.88424682617188 C 87.06356811523438 200.75991821289062 91.42149353027344 197.65634155273438 89.81031036376953 195.4145965576172" stroke-width="2.3502707481384277" fill="none" stroke="rgb(55, 42, 255)" stroke-opacity="0.92337584" stroke-linecap="round" stroke-linejoin="round"/>
  </g>
</svg>
