<?xml version="1.0" ?>
<svg xmlns="http://www.w3.org/2000/svg" version="1.1" width="956.0" height="956.0">
  <defs/>
  <g>
    <path d="M 48.553810119628906 56.26130676269531 C 48.80879592895508 56.805816650390625 48.55381393432617 57.31583023071289 48.553810119628906 57.57199478149414 C 48.009220123291016 57.768218994140625 48.009185791015625 58.235477447509766 48.009178161621094 58.70396423339844 C 48.55379104614258 60.53274154663086 48.55381393432617 62.36274719238281 48.00918197631836 64.19152069091797 C 48.00918197631836 72.35942077636719 48.00920867919922 80.52610778808594 48.00918197631836 88.42168426513672" stroke-width="1.0892857313156128" fill="none" stroke="rgb(26, 26, 21)" stroke-opacity="0.99" stroke-linecap="round" stroke-linejoin="round"/>
    <path d="M 79.52911376953125 53.74247741699219 C 79.82678985595703 53.19797897338867 79.52911376953125 53.79322814941406 79.52910614013672 54.09090042114258 C 79.52912902832031 55.9370002746582 79.52910614013672 57.51079559326172 80.07373809814453 59.084598541259766 C 80.07374572753906 64.91253662109375 80.07374572753906 70.740478515625 79.52910614013672 76.29608917236328" stroke-width="1.0892857313156128" fill="none" stroke="rgb(26, 26, 21)" stroke-opacity="0.99" stroke-linecap="round" stroke-linejoin="round"/>
    <path d="M 60.51540756225586 63.02494812011719 C 60.98388671875 63.02509307861328 60.51540756225586 63.96072006225586 60.51539993286133 64.42919921875 C 60.515403747558594 65.93490600585938 60.51540756225586 67.16831970214844 60.51539993286133 68.40174865722656 C 60.51539993286133 73.7612075805664 60.515403747558594 79.12188720703125 61.060035705566406 84.75365447998047" stroke-width="1.0892857313156128" fill="none" stroke="rgb(26, 26, 26)" stroke-opacity="0.99" stroke-linecap="round" stroke-linejoin="round"/>
    <path d="M 80.07371520996094 53.74242401123047 C 79.913818359375 51.16521453857422 78.74897766113281 53.246864318847656 83.61209106445312 54.77137756347656" stroke-width="1.1982139348983765" fill="none" stroke="rgb(18, 117, 127)" stroke-opacity="0.37113595" stroke-linecap="round" stroke-linejoin="round"/>
    <path d="M 60.51543045043945 64.4292984008789 C 57.47769546508789 62.01105499267578 52.62322235107422 67.18367767333984 47.259822845458984 62.489986419677734 C 43.75358581542969 66.80059051513672 38.11974334716797 70.60409545898438 38.75423049926758 65.65111541748047" stroke-width="1.1982132196426392" fill="none" stroke="rgb(207, 206, 68)" stroke-opacity="0.0" stroke-linecap="round" stroke-linejoin="round"/>
    <path d="M 60.51542663574219 68.12944793701172 C 63.098609924316406 65.11788177490234 57.05075454711914 63.819114685058594 53.51228713989258 68.89134216308594 C 58.029029846191406 70.462158203125 60.43950653076172 75.84503173828125 59.66845703125 73.10417175292969 C 63.649776458740234 77.00176239013672 69.46166229248047 79.50296020507812 69.45353698730469 80.3096923828125" stroke-width="1.0892857313156128" fill="none" stroke="rgb(170, 225, 49)" stroke-opacity="0.0" stroke-linecap="round" stroke-linejoin="round"/>
    <path d="M 48.55381393432617 57.02753829956055 C 47.00143814086914 55.623661041259766 44.39662551879883 55.21094512939453 38.75160598754883 59.920127868652344" stroke-width="1.0892857313156128" fill="none" stroke="rgb(126, 111, 213)" stroke-opacity="0.6224805" stroke-linecap="round" stroke-linejoin="round"/>
    <path d="M 61.06003189086914 84.753662109375 C 54.968109130859375 86.42169189453125 58.72491455078125 80.79093933105469 52.2579345703125 77.90572357177734 C 57.289310455322266 77.51055145263672 59.720916748046875 75.77213287353516 63.223880767822266 73.07969665527344" stroke-width="1.1982141733169556" fill="none" stroke="rgb(89, 49, 230)" stroke-opacity="0.69551677" stroke-linecap="round" stroke-linejoin="round"/>
    <path d="M 48.009185791015625 56.26126480102539 C 46.42879867553711 53.31104278564453 48.42395782470703 49.07261276245117 49.51152420043945 53.05717086791992 C 51.53711700439453 52.550254821777344 56.9866943359375 52.586463928222656 61.6536865234375 48.59925842285156" stroke-width="1.1981836557388306" fill="none" stroke="rgb(157, 115, 239)" stroke-opacity="0.64492553" stroke-linecap="round" stroke-linejoin="round"/>
    <path d="M 48.55381393432617 57.57197570800781 C 47.46695327758789 59.999420166015625 46.13934326171875 65.63934326171875 47.989742279052734 64.71207427978516" stroke-width="1.0892857313156128" fill="none" stroke="rgb(151, 63, 240)" stroke-opacity="0.36995167" stroke-linecap="round" stroke-linejoin="round"/>
    <path d="M 48.00918197631836 57.57205581665039 C 45.23586654663086 52.44300079345703 47.15089416503906 46.985931396484375 50.62080764770508 44.19918441772461 C 55.355472564697266 48.02633285522461 56.55860900878906 54.111785888671875 53.40314483642578 57.66280746459961 C 51.00508117675781 60.57963943481445 46.121788024902344 61.62026596069336 48.82143020629883 67.12345886230469" stroke-width="1.1982141733169556" fill="none" stroke="rgb(58, 24, 17)" stroke-opacity="0.8182924" stroke-linecap="round" stroke-linejoin="round"/>
    <path d="M 48.534122467041016 64.71207427978516 C 46.87016296386719 62.545654296875 51.5718879699707 68.50735473632812 51.9760627746582 73.25984191894531 C 56.94602966308594 73.73838806152344 56.37003707885742 70.68920135498047 54.37299346923828 76.2828369140625" stroke-width="1.0892857313156128" fill="none" stroke="rgb(176, 93, 219)" stroke-opacity="0.57617694" stroke-linecap="round" stroke-linejoin="round"/>
    <path d="M 69.45354461669922 80.30963897705078 C 75.27238464355469 81.12128448486328 80.43334197998047 83.37762451171875 75.50944519042969 89.1339111328125 C 72.01785278320312 92.79408264160156 73.10418701171875 98.61563110351562 67.73463439941406 92.70478057861328" stroke-width="1.0892857313156128" fill="none" stroke="rgb(128, 157, 8)" stroke-opacity="0.93419266" stroke-linecap="round" stroke-linejoin="round"/>
    <path d="M 38.75161361694336 59.375492095947266 C 40.02670669555664 64.40470123291016 36.82053756713867 68.3361587524414 41.79670333862305 66.04572296142578" stroke-width="1.1982131004333496" fill="none" stroke="rgb(66, 240, 198)" stroke-opacity="0.68692505" stroke-linecap="round" stroke-linejoin="round"/>
    <path d="M 38.754234313964844 65.65110778808594 C 38.80123519897461 59.33205795288086 41.12546920776367 60.750030517578125 43.787200927734375 66.78733825683594 C 48.1880989074707 61.29067611694336 51.95448303222656 62.680877685546875 51.834564208984375 60.64741897583008" stroke-width="1.0892857313156128" fill="none" stroke="rgb(133, 143, 116)" stroke-opacity="0.8599033" stroke-linecap="round" stroke-linejoin="round"/>
    <path d="M 38.754234313964844 65.65111541748047 C 42.496036529541016 60.84646987915039 39.56040954589844 64.94200134277344 34.34617614746094 65.39710235595703" stroke-width="1.198208212852478" fill="none" stroke="rgb(120, 33, 189)" stroke-opacity="0.18155709" stroke-linecap="round" stroke-linejoin="round"/>
    <path d="M 38.20698165893555 59.375492095947266 C 41.66517639160156 60.006649017333984 47.38426971435547 58.68098831176758 46.20066833496094 55.56534957885742 C 44.71349334716797 54.864986419677734 42.95330047607422 57.7266845703125 43.0244026184082 57.34670639038086 C 43.748809814453125 61.484954833984375 44.79084777832031 64.23928833007812 45.185760498046875 58.22500228881836" stroke-width="1.0892857313156128" fill="none" stroke="rgb(222, 90, 191)" stroke-opacity="0.08267465" stroke-linecap="round" stroke-linejoin="round"/>
    <path d="M 63.22388458251953 73.62432098388672 C 69.64532470703125 70.03384399414062 69.72053527832031 72.42778778076172 69.50072479248047 72.53527069091797 C 67.59481048583984 76.14678192138672 65.68154907226562 79.47700500488281 71.75897216796875 78.51317596435547 C 72.78469848632812 80.08871459960938 75.96952056884766 82.7277603149414 75.92037963867188 79.9028091430664" stroke-width="1.0892857313156128" fill="none" stroke="rgb(45, 30, 116)" stroke-opacity="0.6251437" stroke-linecap="round" stroke-linejoin="round"/>
    <path d="M 83.06748962402344 54.77137756347656 C 88.05205535888672 50.2487907409668 91.64601135253906 54.67258071899414 95.05780792236328 60.37986755371094" stroke-width="1.0892857313156128" fill="none" stroke="rgb(241, 57, 157)" stroke-opacity="0.76279473" stroke-linecap="round" stroke-linejoin="round"/>
    <path d="M 122.26506042480469 101.90040588378906 C 117.74268341064453 100.54324340820312 119.83284759521484 99.90182495117188 122.1958999633789 100.09761810302734" stroke-width="1.0892857313156128" fill="none" stroke="rgb(252, 27, 106)" stroke-opacity="0.6290851" stroke-linecap="round" stroke-linejoin="round"/>
    <path d="M 4.168785095214844 5.425425052642822 C 4.974997520446777 8.861926078796387 2.315803289413452 3.497344493865967 7.093433856964111 8.68448543548584 C 9.229096412658691 9.007950782775879 7.412056922912598 12.148661613464355 3.0104992389678955 6.919832229614258" stroke-width="1.1982128620147705" fill="none" stroke="rgb(251, 112, 135)" stroke-opacity="0.21810019" stroke-linecap="round" stroke-linejoin="round"/>
    <path d="M 105.70667266845703 68.99334716796875 C 105.24764251708984 67.04444885253906 102.76619720458984 70.96775817871094 104.2290267944336 68.69461059570312" stroke-width="1.0892857313156128" fill="none" stroke="rgb(111, 223, 128)" stroke-opacity="0.51997954" stroke-linecap="round" stroke-linejoin="round"/>
    <path d="M 57.912803649902344 22.721885681152344 C 63.895084381103516 25.574962615966797 69.57633209228516 26.45465087890625 69.47630310058594 25.964466094970703 C 65.97492218017578 22.773740768432617 64.3963851928711 18.48822021484375 68.40062713623047 22.89665985107422" stroke-width="1.0892857313156128" fill="none" stroke="rgb(84, 137, 210)" stroke-opacity="0.905434" stroke-linecap="round" stroke-linejoin="round"/>
    <path d="M 70.44609069824219 49.0767707824707 C 73.49732971191406 47.02573776245117 75.95262908935547 45.692447662353516 80.18184661865234 45.52499008178711 C 85.29153442382812 40.72459411621094 90.31295776367188 41.05647277832031 90.75621032714844 46.53691101074219 C 93.82404327392578 48.60094451904297 98.35363006591797 44.52710723876953 101.9928970336914 40.48936462402344" stroke-width="1.1982125043869019" fill="none" stroke="rgb(221, 236, 141)" stroke-opacity="0.9334337" stroke-linecap="round" stroke-linejoin="round"/>
    <path d="M 93.51924896240234 67.03473663330078 C 90.77313232421875 68.84042358398438 90.95698547363281 73.18621063232422 92.21017456054688 77.70860290527344" stroke-width="1.198213815689087" fill="none" stroke="rgb(64, 187, 154)" stroke-opacity="0.56994027" stroke-linecap="round" stroke-linejoin="round"/>
    <path d="M 0.5274121165275574 44.47746658325195 C -0.44823896884918213 48.47466278076172 -1.262552261352539 45.348018646240234 -3.6305744647979736 43.90243911743164 C -2.231823444366455 40.74053192138672 -7.567605495452881 42.84557342529297 -7.524664878845215 37.83139419555664" stroke-width="1.0892857313156128" fill="none" stroke="rgb(218, 239, 33)" stroke-opacity="0.5276052" stroke-linecap="round" stroke-linejoin="round"/>
    <path d="M 9.830037117004395 77.26708984375 C 10.683030128479004 81.50836944580078 16.174619674682617 87.3507308959961 10.42093563079834 81.3653793334961" stroke-width="1.198213815689087" fill="none" stroke="rgb(130, 212, 126)" stroke-opacity="0.85233986" stroke-linecap="round" stroke-linejoin="round"/>
    <path d="M 32.863529205322266 52.6802864074707 C 28.772592544555664 55.77567672729492 25.43837547302246 50.858341217041016 24.479219436645508 52.033287048339844 C 19.960590362548828 54.760986328125 16.585416793823242 54.015708923339844 12.73665714263916 54.97087478637695" stroke-width="1.0892857313156128" fill="none" stroke="rgb(105, 9, 77)" stroke-opacity="0.2977805" stroke-linecap="round" stroke-linejoin="round"/>
    <path d="M 8.97288703918457 59.1124267578125 C 6.369351863861084 61.63186264038086 0.9495909810066223 57.87583923339844 0.8477854132652283 54.67398452758789 C 5.150606632232666 54.34156036376953 9.154301643371582 58.5087776184082 14.812499046325684 64.27005767822266 C 14.50035285949707 63.53452682495117 20.258508682250977 60.794891357421875 17.202682495117188 65.96089172363281" stroke-width="1.1982132196426392" fill="none" stroke="rgb(172, 26, 86)" stroke-opacity="0.18667743" stroke-linecap="round" stroke-linejoin="round"/>
    <path d="M 2.8428406715393066 81.95938110351562 C 7.871213912963867 80.21820831298828 9.781147003173828 81.49301147460938 12.2358980178833 82.09519958496094" stroke-width="1.1982139348983765" fill="none" stroke="rgb(30, 226, 131)" stroke-opacity="0.93818724" stroke-linecap="round" stroke-linejoin="round"/>
    <path d="M 68.59519958496094 82.98011016845703 C 64.63249969482422 82.8863296508789 69.55005645751953 88.50138854980469 64.93517303466797 93.08665466308594 C 67.30204010009766 91.39923858642578 64.2351303100586 88.61876678466797 59.77625274658203 87.74291229248047" stroke-width="1.198214054107666" fill="none" stroke="rgb(9, 169, 56)" stroke-opacity="0.94211537" stroke-linecap="round" stroke-linejoin="round"/>
    <path d="M 66.033203125 120.9825439453125 C 60.48210144042969 125.1721420288086 64.92987823486328 125.77670288085938 70.57362365722656 126.98690032958984" stroke-width="1.1982076168060303" fill="none" stroke="rgb(214, 208, 100)" stroke-opacity="0.056377567" stroke-linecap="round" stroke-linejoin="round"/>
    <path d="M 18.73525619506836 38.543636322021484 C 14.984711647033691 38.464996337890625 13.706659317016602 34.04136276245117 9.187610626220703 28.42378807067871 C 8.290546417236328 25.401506423950195 3.3181095123291016 19.788055419921875 6.647634506225586 25.091537475585938" stroke-width="1.0892857313156128" fill="none" stroke="rgb(83, 166, 253)" stroke-opacity="0.41540983" stroke-linecap="round" stroke-linejoin="round"/>
    <path d="M 80.15260314941406 61.340782165527344 C 83.15696716308594 58.61577606201172 83.94215393066406 56.394737243652344 84.81826782226562 59.73395538330078 C 80.71697235107422 63.106040954589844 83.4380874633789 58.29457092285156 78.12106323242188 54.095489501953125" stroke-width="1.198213815689087" fill="none" stroke="rgb(226, 194, 231)" stroke-opacity="0.8417501" stroke-linecap="round" stroke-linejoin="round"/>
    <path d="M 36.29410171508789 95.29496765136719 C 36.690975189208984 92.68424987792969 31.629432678222656 93.7018051147461 34.26017379760742 88.34436798095703 C 30.70595359802246 89.99359893798828 26.378597259521484 91.47017669677734 23.34221839904785 96.2542953491211" stroke-width="1.0892857313156128" fill="none" stroke="rgb(185, 220, 80)" stroke-opacity="0.28888893" stroke-linecap="round" stroke-linejoin="round"/>
  </g>
</svg>
