<?xml version="1.0" ?>
<svg xmlns="http://www.w3.org/2000/svg" version="1.1" width="956.0" height="956.0">
  <defs/>
  <g>
    <path d="M 50.24821090698242 25.203081130981445 C 51.59592819213867 25.084041595458984 51.24481964111328 24.673080444335938 51.27455520629883 25.30169677734375 C 50.752403259277344 24.51430892944336 51.24663162231445 24.96641731262207 51.92762756347656 25.168886184692383 C 53.649593353271484 23.504531860351562 56.63568115234375 23.89413070678711 58.32145690917969 23.9562931060791 C 58.98512268066406 24.390596389770508 59.744380950927734 23.87861442565918 60.73770523071289 23.28168296813965 C 61.457420349121094 23.524885177612305 62.062625885009766 25.34237289428711 61.82019805908203 26.04622459411621 C 63.59504318237305 28.65810203552246 64.3869857788086 31.08997917175293 65.9575424194336 34.01853561401367 C 67.68283081054688 37.98263168334961 68.07683563232422 42.944915771484375 67.4967041015625 47.718467712402344 C 67.71269989013672 51.097251892089844 68.42301177978516 55.881591796875 66.2297134399414 58.24175262451172 C 65.70232391357422 59.362327575683594 65.42715454101562 60.72515106201172 63.962738037109375 61.011558532714844 C 60.92863845825195 65.98021697998047 54.62364959716797 67.14649200439453 49.07823944091797 67.13162231445312 C 46.674381256103516 66.48219299316406 43.86473083496094 67.15290832519531 42.13521957397461 67.02763366699219 C 40.397586822509766 63.898963928222656 40.461544036865234 59.69954299926758 40.465457916259766 56.22970962524414" stroke-width="1.2791659832000732" fill="none" stroke="rgb(31, 28, 16)" stroke-opacity="0.9863223" stroke-linecap="round" stroke-linejoin="round"/>
    <path d="M 68.73316955566406 47.74199676513672 C 63.449951171875 44.54698181152344 56.85919189453125 44.99467086791992 60.17692947387695 41.78964614868164 C 67.43207550048828 37.26247024536133 67.06497955322266 35.7177619934082 71.81979370117188 31.959121704101562" stroke-width="1.0892857313156128" fill="none" stroke="rgb(37, 245, 119)" stroke-opacity="0.8172284" stroke-linecap="round" stroke-linejoin="round"/>
    <path d="M 65.86532592773438 34.04045486450195 C 67.59703826904297 29.302248001098633 66.28337860107422 30.34441566467285 69.93003845214844 27.45061683654785" stroke-width="1.3047860860824585" fill="none" stroke="rgb(170, 129, 231)" stroke-opacity="0.34262976" stroke-linecap="round" stroke-linejoin="round"/>
    <path d="M 51.19935989379883 24.420791625976562 C 45.82455062866211 19.398021697998047 42.871280670166016 14.240485191345215 40.562870025634766 10.826322555541992 C 45.80940628051758 13.168253898620605 47.9834098815918 10.724244117736816 45.801212310791016 8.020394325256348" stroke-width="1.3985246419906616" fill="none" stroke="rgb(255, 109, 156)" stroke-opacity="0.5007748" stroke-linecap="round" stroke-linejoin="round"/>
    <path d="M 65.04639434814453 61.334228515625 C 65.2775650024414 60.959415435791016 63.7856330871582 64.7337417602539 61.73289489746094 64.45411682128906 C 65.5093994140625 66.076416015625 66.88430786132812 61.95659637451172 66.58067321777344 56.754913330078125 C 68.61550903320312 56.20348358154297 70.0025634765625 60.722171783447266 70.75312042236328 65.110107421875" stroke-width="1.0892857313156128" fill="none" stroke="rgb(156, 190, 11)" stroke-opacity="0.76859283" stroke-linecap="round" stroke-linejoin="round"/>
    <path d="M 39.829750061035156 57.0020751953125 C 34.61207580566406 63.47978210449219 33.04377365112305 59.2188835144043 37.140968322753906 62.8010139465332 C 41.563350677490234 62.899505615234375 43.091148376464844 61.2514533996582 41.02019119262695 62.658138275146484" stroke-width="1.0892857313156128" fill="none" stroke="rgb(1, 140, 168)" stroke-opacity="0.29657468" stroke-linecap="round" stroke-linejoin="round"/>
    <path d="M 51.669769287109375 25.303800582885742 C 47.79520034790039 26.804611206054688 44.1794319152832 20.767213821411133 40.2984504699707 20.369747161865234" stroke-width="1.0892857313156128" fill="none" stroke="rgb(56, 68, 81)" stroke-opacity="0.7306031" stroke-linecap="round" stroke-linejoin="round"/>
    <path d="M 67.56387329101562 58.592872619628906 C 67.04613494873047 62.0472526550293 65.61148071289062 59.51782989501953 65.63282012939453 60.31412124633789 C 66.8507308959961 58.73756790161133 66.39698791503906 52.958473205566406 71.19844055175781 46.88039779663086 C 72.62882232666016 53.411380767822266 75.90928649902344 59.60011672973633 78.54299926757812 64.39580535888672" stroke-width="1.4118410348892212" fill="none" stroke="rgb(82, 34, 57)" stroke-opacity="0.73588" stroke-linecap="round" stroke-linejoin="round"/>
    <path d="M 60.37983322143555 24.131183624267578 C 60.0529899597168 22.82539176940918 56.63416290283203 16.965824127197266 49.00218200683594 20.119075775146484 C 50.63637924194336 22.479087829589844 49.73081970214844 22.01735496520996 48.449066162109375 17.463050842285156 C 51.04414749145508 12.356301307678223 48.86358642578125 18.119508743286133 47.09893798828125 15.291481971740723" stroke-width="1.0892857313156128" fill="none" stroke="rgb(218, 58, 57)" stroke-opacity="0.5880104" stroke-linecap="round" stroke-linejoin="round"/>
    <path d="M 46.98694610595703 15.445305824279785 C 51.23643112182617 18.55658721923828 49.049346923828125 12.83436393737793 55.1634635925293 9.099114418029785" stroke-width="1.3129518032073975" fill="none" stroke="rgb(80, 69, 249)" stroke-opacity="0.78162503" stroke-linecap="round" stroke-linejoin="round"/>
    <path d="M 69.53972625732422 27.348356246948242 C 70.91734313964844 32.33231735229492 67.09580993652344 36.60955047607422 67.133056640625 41.43770980834961" stroke-width="1.3066965341567993" fill="none" stroke="rgb(173, 76, 231)" stroke-opacity="0.39301738" stroke-linecap="round" stroke-linejoin="round"/>
    <path d="M 78.79476928710938 63.52616500854492 C 80.41144561767578 62.31843566894531 83.01344299316406 67.14378356933594 83.34561920166016 70.40560150146484 C 77.18314361572266 66.86181640625 72.34555053710938 71.56495666503906 72.1222152709961 74.81399536132812 C 72.21981048583984 69.46884155273438 72.82951354980469 70.93018341064453 76.86014556884766 75.0312271118164" stroke-width="1.1482961177825928" fill="none" stroke="rgb(84, 233, 144)" stroke-opacity="0.65000325" stroke-linecap="round" stroke-linejoin="round"/>
    <path d="M 69.29187774658203 65.54471588134766 C 65.75588989257812 70.01608276367188 66.5854263305664 72.30469512939453 64.29125213623047 73.92657470703125 C 68.73423767089844 77.75135040283203 74.38317108154297 81.08557891845703 77.02936553955078 80.39419555664062" stroke-width="1.0892857313156128" fill="none" stroke="rgb(146, 36, 101)" stroke-opacity="0.03833375" stroke-linecap="round" stroke-linejoin="round"/>
    <path d="M 47.127933502197266 15.004207611083984 C 50.83180618286133 14.396722793579102 50.986080169677734 15.06936264038086 47.74811935424805 16.068973541259766" stroke-width="1.0892857313156128" fill="none" stroke="rgb(81, 70, 0)" stroke-opacity="0.8045079" stroke-linecap="round" stroke-linejoin="round"/>
    <path d="M 78.68152618408203 64.22152709960938 C 82.6934585571289 62.029903411865234 81.38074493408203 60.19629669189453 81.07129669189453 64.1081314086914 C 83.1579818725586 69.95621490478516 86.99979400634766 76.01762390136719 86.36105346679688 80.0756607055664" stroke-width="1.2356038093566895" fill="none" stroke="rgb(227, 107, 164)" stroke-opacity="0.78679687" stroke-linecap="round" stroke-linejoin="round"/>
    <path d="M 69.40092468261719 65.59932708740234 C 73.00057983398438 70.05799865722656 77.56218719482422 65.75759887695312 74.78873443603516 67.43110656738281" stroke-width="1.3996707201004028" fill="none" stroke="rgb(0, 250, 27)" stroke-opacity="0.35076946" stroke-linecap="round" stroke-linejoin="round"/>
    <path d="M 69.36853790283203 65.38652801513672 C 65.64768981933594 71.18104553222656 61.054927825927734 75.87049102783203 59.843482971191406 76.29131317138672 C 54.97784423828125 74.69463348388672 60.743682861328125 75.31014251708984 58.89387893676758 71.17236328125 C 65.67904663085938 68.7432632446289 66.6365966796875 71.13568878173828 62.91698455810547 75.34050750732422" stroke-width="1.0892857313156128" fill="none" stroke="rgb(218, 26, 193)" stroke-opacity="0.22054115" stroke-linecap="round" stroke-linejoin="round"/>
    <path d="M 102.42012786865234 56.11402893066406 C 98.95718383789062 60.715789794921875 102.9998550415039 66.52429962158203 97.31587982177734 62.50925827026367 C 94.60256958007812 66.0954360961914 97.3261947631836 69.7575454711914 96.92826843261719 74.1549301147461" stroke-width="1.0892857313156128" fill="none" stroke="rgb(0, 69, 67)" stroke-opacity="0.32408634" stroke-linecap="round" stroke-linejoin="round"/>
    <path d="M 83.6889877319336 44.71011734008789 C 79.14192199707031 41.53310012817383 79.1764907836914 46.54459762573242 81.63370513916016 44.31004333496094 C 86.73893737792969 41.34180450439453 81.0730209350586 41.33587646484375 82.70088195800781 39.97072982788086" stroke-width="1.0892857313156128" fill="none" stroke="rgb(91, 197, 52)" stroke-opacity="0.47561187" stroke-linecap="round" stroke-linejoin="round"/>
    <path d="M 47.76346969604492 52.31937789916992 C 51.7811393737793 46.08385467529297 49.192684173583984 46.71847915649414 43.80095291137695 44.09292221069336 C 44.641056060791016 44.001094818115234 44.487342834472656 47.12269592285156 45.48518371582031 40.087711334228516" stroke-width="1.096838116645813" fill="none" stroke="rgb(78, 15, 168)" stroke-opacity="0.33322045" stroke-linecap="round" stroke-linejoin="round"/>
    <path d="M 67.90814208984375 1.1304396390914917 C 63.893245697021484 -3.2200706005096436 64.44365692138672 -2.0625100135803223 61.428653717041016 2.9289252758026123 C 62.0535888671875 -0.2345840483903885 62.46349334716797 -3.5799167156219482 66.96049499511719 -5.113006114959717 C 69.25568389892578 -6.524989604949951 65.5989761352539 -7.440924167633057 65.74241638183594 -2.1359190940856934" stroke-width="1.310487151145935" fill="none" stroke="rgb(222, 137, 170)" stroke-opacity="0.05691109" stroke-linecap="round" stroke-linejoin="round"/>
    <path d="M 108.13407135009766 105.9806137084961 C 103.58978271484375 109.00843811035156 97.78816223144531 114.08370208740234 102.01666259765625 114.69071197509766 C 107.17516326904297 118.88452911376953 102.90637969970703 119.6188735961914 107.45278930664062 122.689697265625 C 111.66364288330078 127.40058135986328 108.10456085205078 129.40480041503906 103.18694305419922 134.52944946289062" stroke-width="1.3074743747711182" fill="none" stroke="rgb(6, 0, 195)" stroke-opacity="0.36943465" stroke-linecap="round" stroke-linejoin="round"/>
    <path d="M 41.2473030090332 69.19161987304688 C 45.088504791259766 65.92406463623047 41.68336868286133 66.07109832763672 45.50046157836914 62.17900848388672 C 41.805728912353516 57.12616729736328 44.98112487792969 60.397396087646484 49.66358947753906 65.81767272949219" stroke-width="1.0892857313156128" fill="none" stroke="rgb(236, 161, 237)" stroke-opacity="0.8273177" stroke-linecap="round" stroke-linejoin="round"/>
    <path d="M 38.52972412109375 84.2909164428711 C 39.914817810058594 90.82306671142578 39.65399169921875 89.10161590576172 46.042598724365234 88.58190155029297" stroke-width="1.0892857313156128" fill="none" stroke="rgb(58, 166, 191)" stroke-opacity="0.768017" stroke-linecap="round" stroke-linejoin="round"/>
    <path d="M 60.128360748291016 36.1439323425293 C 60.743896484375 38.20518493652344 55.38837814331055 33.111446380615234 51.94212341308594 32.94455337524414" stroke-width="1.3476446866989136" fill="none" stroke="rgb(60, 45, 223)" stroke-opacity="0.96451056" stroke-linecap="round" stroke-linejoin="round"/>
    <path d="M 54.0096549987793 112.02201843261719 C 52.969722747802734 107.4717025756836 50.87466049194336 103.54544067382812 49.57468795776367 107.11454772949219" stroke-width="1.0892857313156128" fill="none" stroke="rgb(11, 39, 114)" stroke-opacity="0.31170136" stroke-linecap="round" stroke-linejoin="round"/>
    <path d="M 77.09477996826172 113.39746856689453 C 82.84626007080078 112.63017272949219 85.75437927246094 111.9472427368164 87.45466613769531 113.27506256103516 C 91.20680236816406 113.51799774169922 91.4056167602539 110.33421325683594 89.45066833496094 113.26136016845703 C 93.41182708740234 108.98872375488281 93.90702819824219 107.62537384033203 92.08720397949219 101.49972534179688" stroke-width="1.0892857313156128" fill="none" stroke="rgb(128, 255, 171)" stroke-opacity="0.5249192" stroke-linecap="round" stroke-linejoin="round"/>
    <path d="M 91.53541564941406 44.193214416503906 C 94.54940795898438 41.3331413269043 92.51781463623047 40.95637512207031 90.37445831298828 40.8601188659668 C 96.52484893798828 38.85416793823242 96.35096740722656 33.63865661621094 99.18909454345703 33.395751953125" stroke-width="1.3457061052322388" fill="none" stroke="rgb(233, 102, 241)" stroke-opacity="0.22777802" stroke-linecap="round" stroke-linejoin="round"/>
    <path d="M 73.5484619140625 23.143190383911133 C 75.00228118896484 21.529170989990234 69.83810424804688 21.816286087036133 70.6634292602539 19.045557022094727 C 72.80770874023438 22.53034210205078 69.25126647949219 17.495695114135742 64.85987854003906 21.007556915283203" stroke-width="1.0892857313156128" fill="none" stroke="rgb(114, 168, 52)" stroke-opacity="0.9155986" stroke-linecap="round" stroke-linejoin="round"/>
    <path d="M 115.97541809082031 60.538780212402344 C 115.34532928466797 57.338199615478516 119.75968933105469 60.17768859863281 120.45257568359375 57.18613815307617 C 125.83357238769531 53.541873931884766 131.18460083007812 59.16572189331055 134.13783264160156 55.61037826538086" stroke-width="1.0892857313156128" fill="none" stroke="rgb(247, 105, 58)" stroke-opacity="0.014751068" stroke-linecap="round" stroke-linejoin="round"/>
    <path d="M 100.65499114990234 12.027647018432617 C 102.10958099365234 10.686104774475098 104.80469512939453 5.362586498260498 103.18890380859375 8.522427558898926" stroke-width="1.0892857313156128" fill="none" stroke="rgb(179, 29, 113)" stroke-opacity="0.3766758" stroke-linecap="round" stroke-linejoin="round"/>
    <path d="M 49.96668243408203 118.95975494384766 C 53.61341857910156 121.16170501708984 49.18153381347656 119.9263687133789 48.705543518066406 114.96642303466797 C 49.350250244140625 110.81707000732422 44.522972106933594 106.81163024902344 43.8647346496582 100.076171875" stroke-width="1.0892857313156128" fill="none" stroke="rgb(117, 146, 95)" stroke-opacity="0.3861011" stroke-linecap="round" stroke-linejoin="round"/>
    <path d="M 96.75407409667969 72.07456970214844 C 89.55406188964844 70.74862670898438 89.40594482421875 70.3857192993164 83.95419311523438 70.55757904052734 C 80.1736068725586 67.87492370605469 80.29166412353516 60.919795989990234 85.99728393554688 57.0534782409668 C 81.85796356201172 58.79924011230469 85.62068939208984 59.0780143737793 80.93618774414062 61.79442596435547" stroke-width="1.0892857313156128" fill="none" stroke="rgb(56, 43, 97)" stroke-opacity="0.34980422" stroke-linecap="round" stroke-linejoin="round"/>
  </g>
</svg>
