<?xml version="1.0" ?>
<svg xmlns="http://www.w3.org/2000/svg" version="1.1" width="925.0" height="925.0">
  <defs/>
  <g>
    <path d="M 112.95735168457031 -2.4585018157958984 C 107.52701568603516 46.09465026855469 91.48551177978516 91.0498275756836 88.08018493652344 110.8403549194336 C 84.7220458984375 130.66433715820312 85.38455200195312 163.2637176513672 82.93047332763672 169.81253051757812 C 80.20877075195312 176.33154296875 63.08973693847656 190.3612823486328 45.2645378112793 191.52392578125" stroke-width="12.512996673583984" fill="none" stroke="rgb(196, 119, 76)" stroke-opacity="1.0" stroke-linecap="round" stroke-linejoin="round"/>
    <path d="M 124.7535400390625 1.9423829317092896 C 118.19432830810547 38.82805633544922 102.51290893554688 99.82144165039062 100.04438781738281 124.22714233398438 C 97.35124969482422 148.83860778808594 96.93669891357422 175.32887268066406 90.96166229248047 178.9750213623047 C 85.18506622314453 182.82791137695312 82.71412658691406 186.7174530029297 67.65079498291016 188.60914611816406" stroke-width="12.535140991210938" fill="none" stroke="rgb(195, 119, 76)" stroke-opacity="1.0" stroke-linecap="round" stroke-linejoin="round"/>
    <path d="M 134.05967712402344 -1.6851341724395752 C 127.64801788330078 35.295021057128906 119.40666198730469 79.1270751953125 116.68732452392578 103.53883361816406 C 113.99697875976562 127.93976593017578 96.84239959716797 175.26654052734375 91.05941009521484 179.11842346191406 C 85.2508316040039 182.8907012939453 82.7828369140625 186.56884765625 67.51176452636719 188.4961395263672" stroke-width="12.52879524230957" fill="none" stroke="rgb(195, 119, 76)" stroke-opacity="1.0" stroke-linecap="round" stroke-linejoin="round"/>
    <path d="M 130.21920776367188 68.27725982666016 C 139.78428649902344 91.98672485351562 127.53374481201172 95.2504653930664 127.5564193725586 95.26240539550781" stroke-width="19.538190841674805" fill="none" stroke="rgb(195, 119, 77)" stroke-opacity="1.0" stroke-linecap="round" stroke-linejoin="round"/>
    <path d="M 140.42250061035156 54.39236831665039 C 116.8233642578125 63.351341247558594 93.71466827392578 67.79552459716797 93.25469970703125 72.33984375 C 92.65394592285156 76.78616333007812 111.98473358154297 99.73643493652344 109.77974700927734 104.02684783935547 C 107.71379852294922 108.27409362792969 85.74520111083984 113.1606216430664 84.96493530273438 117.7508773803711 C 84.1126480102539 122.30361938476562 109.1186294555664 137.3984832763672 116.11202239990234 145.73492431640625" stroke-width="9.464224815368652" fill="none" stroke="rgb(32, 16, 7)" stroke-opacity="1.0" stroke-linecap="round" stroke-linejoin="round"/>
    <path d="M 154.78890991210938 75.91641235351562 C 117.16532897949219 105.00550079345703 118.06299591064453 101.03546905517578 117.74563598632812 105.1164779663086 C 117.31581115722656 109.17942810058594 128.08499145507812 118.81449127197266 133.78131103515625 124.74526977539062" stroke-width="9.361035346984863" fill="none" stroke="rgb(33, 16, 6)" stroke-opacity="1.0" stroke-linecap="round" stroke-linejoin="round"/>
    <path d="M 140.25827026367188 53.122528076171875 C 157.4433135986328 75.3503646850586 168.8275604248047 85.13135528564453 166.5401611328125 101.4989013671875 C 163.97154235839844 121.2696762084961 125.26792907714844 119.91127014160156 116.15689849853516 145.3086395263672" stroke-width="9.515839576721191" fill="none" stroke="rgb(33, 17, 8)" stroke-opacity="1.0" stroke-linecap="round" stroke-linejoin="round"/>
    <path d="M 116.70619201660156 142.81912231445312 C 117.45030212402344 135.82421875 108.92594146728516 138.14495849609375 101.72046661376953 139.120849609375 C 95.13600158691406 141.2298583984375 83.4468002319336 149.8877410888672 88.66161346435547 156.77903747558594 C 84.03883361816406 142.8821258544922 73.63240051269531 152.75875854492188 68.66355895996094 143.4001922607422" stroke-width="2.0" fill="none" stroke="rgb(131, 135, 205)" stroke-opacity="0.14006564" stroke-linecap="round" stroke-linejoin="round"/>
    <path d="M 86.19331359863281 177.401611328125 C 79.3465576171875 187.8168487548828 86.09076690673828 189.35411071777344 99.26888275146484 193.3115692138672 C 100.30555725097656 192.70864868164062 93.09136962890625 182.41909790039062 85.90821075439453 191.87869262695312" stroke-width="2.0" fill="none" stroke="rgb(201, 77, 238)" stroke-opacity="0.75211537" stroke-linecap="round" stroke-linejoin="round"/>
    <path d="M 89.6884765625 178.45555114746094 C 97.92993927001953 165.55841064453125 89.93897247314453 180.00062561035156 91.904541015625 192.7125701904297" stroke-width="2.571735382080078" fill="none" stroke="rgb(48, 19, 112)" stroke-opacity="0.89395744" stroke-linecap="round" stroke-linejoin="round"/>
    <path d="M 121.39403533935547 108.57107543945312 C 124.59026336669922 109.15103149414062 135.1514129638672 115.17583465576172 131.82102966308594 118.88762664794922" stroke-width="2.0" fill="none" stroke="rgb(231, 195, 59)" stroke-opacity="0.39785522" stroke-linecap="round" stroke-linejoin="round"/>
    <path d="M 136.28451538085938 121.9770736694336 C 143.80511474609375 124.389404296875 153.14260864257812 135.27349853515625 159.9745635986328 125.82044982910156 C 162.6394805908203 131.2142333984375 150.2727813720703 133.94264221191406 149.96070861816406 145.3579864501953" stroke-width="2.0" fill="none" stroke="rgb(161, 43, 116)" stroke-opacity="0.27555615" stroke-linecap="round" stroke-linejoin="round"/>
    <path d="M 131.8138885498047 66.7122802734375 C 120.12135314941406 72.84444427490234 122.29218292236328 70.35404205322266 125.70459747314453 82.0302963256836" stroke-width="3.229264259338379" fill="none" stroke="rgb(208, 139, 237)" stroke-opacity="0.2088382" stroke-linecap="round" stroke-linejoin="round"/>
    <path d="M 89.2631607055664 190.5813446044922 C 83.42485809326172 183.1874237060547 91.44206237792969 171.0801239013672 102.81560516357422 169.0902862548828" stroke-width="2.192823886871338" fill="none" stroke="rgb(96, 233, 196)" stroke-opacity="0.39540604" stroke-linecap="round" stroke-linejoin="round"/>
    <path d="M 128.43479919433594 118.84917449951172 C 119.09202575683594 115.31354522705078 120.70063018798828 117.09107971191406 120.07125091552734 125.35594940185547 C 131.16380310058594 131.61447143554688 122.90471649169922 130.7100067138672 135.11256408691406 140.62188720703125 C 134.82276916503906 134.4546661376953 138.7005157470703 140.30030822753906 129.53375244140625 144.87393188476562" stroke-width="2.0" fill="none" stroke="rgb(221, 219, 167)" stroke-opacity="0.78512865" stroke-linecap="round" stroke-linejoin="round"/>
    <path d="M 92.74400329589844 192.96783447265625 C 92.20429992675781 194.07310485839844 93.24156188964844 181.4097442626953 104.51602935791016 178.7260284423828" stroke-width="2.1118383407592773" fill="none" stroke="rgb(213, 60, 255)" stroke-opacity="0.4903834" stroke-linecap="round" stroke-linejoin="round"/>
    <path d="M 152.1070556640625 144.98898315429688 C 150.4088897705078 148.98121643066406 144.3307647705078 149.36813354492188 146.90753173828125 145.6698455810547" stroke-width="2.0" fill="none" stroke="rgb(221, 209, 172)" stroke-opacity="0.25334314" stroke-linecap="round" stroke-linejoin="round"/>
    <path d="M 91.04495239257812 192.75088500976562 C 103.232421875 185.19583129882812 107.4173812866211 190.0357666015625 91.96858978271484 186.33993530273438" stroke-width="3.407102346420288" fill="none" stroke="rgb(0, 37, 232)" stroke-opacity="0.5522958" stroke-linecap="round" stroke-linejoin="round"/>
    <path d="M 150.2279510498047 146.36744689941406 C 151.50186157226562 142.671630859375 146.92630004882812 149.18997192382812 152.52899169921875 140.50045776367188 C 150.0083465576172 141.07928466796875 149.8489532470703 143.5849609375 141.65145874023438 157.35494995117188" stroke-width="2.917764663696289" fill="none" stroke="rgb(185, 29, 22)" stroke-opacity="0.28422546" stroke-linecap="round" stroke-linejoin="round"/>
    <path d="M 180.0716552734375 140.28692626953125 C 194.6598358154297 145.939208984375 185.35813903808594 141.06687927246094 185.95175170898438 146.327392578125 C 185.9894561767578 151.56488037109375 184.3949432373047 146.5806884765625 177.29428100585938 149.61143493652344 C 181.8848876953125 157.4325714111328 179.23109436035156 147.742919921875 186.22618103027344 155.97434997558594" stroke-width="2.0" fill="none" stroke="rgb(207, 197, 81)" stroke-opacity="0.55149037" stroke-linecap="round" stroke-linejoin="round"/>
    <path d="M 131.64630126953125 203.96726989746094 C 127.02767181396484 213.81089782714844 120.26322937011719 220.74569702148438 120.63652801513672 223.77874755859375 C 128.91513061523438 224.1824493408203 120.47261810302734 231.1349639892578 129.43093872070312 240.4807586669922 C 137.68016052246094 229.09881591796875 146.6566162109375 232.74801635742188 157.36256408691406 234.8696746826172" stroke-width="2.0" fill="none" stroke="rgb(255, 168, 160)" stroke-opacity="0.84482616" stroke-linecap="round" stroke-linejoin="round"/>
    <path d="M 61.2957763671875 78.33938598632812 C 51.223533630371094 70.43675231933594 47.7626838684082 71.44678497314453 56.19859313964844 68.23030853271484 C 44.97132110595703 58.793312072753906 42.7651481628418 63.49456787109375 47.76352310180664 51.44371795654297" stroke-width="2.0" fill="none" stroke="rgb(77, 35, 150)" stroke-opacity="0.30840564" stroke-linecap="round" stroke-linejoin="round"/>
    <path d="M 68.45751190185547 219.02464294433594 C 80.09330749511719 214.35873413085938 89.86514282226562 224.64776611328125 98.20159912109375 234.36550903320312 C 103.44242095947266 229.5872039794922 95.63774871826172 225.11032104492188 97.06060028076172 220.08412170410156 C 93.08724212646484 209.0255889892578 96.8673324584961 209.79623413085938 107.3109359741211 221.34783935546875" stroke-width="2.0" fill="none" stroke="rgb(60, 216, 130)" stroke-opacity="0.030508121" stroke-linecap="round" stroke-linejoin="round"/>
    <path d="M 205.9767303466797 154.43606567382812 C 213.9606170654297 163.458984375 214.97215270996094 161.8210906982422 220.58053588867188 160.21888732910156 C 212.57518005371094 149.23130798339844 202.6776885986328 142.80897521972656 202.71636962890625 135.35572814941406" stroke-width="2.0" fill="none" stroke="rgb(172, 155, 55)" stroke-opacity="0.46959493" stroke-linecap="round" stroke-linejoin="round"/>
    <path d="M 134.52825927734375 206.0994873046875 C 138.01296997070312 197.63343811035156 130.3909149169922 189.039306640625 128.39599609375 181.55101013183594 C 119.56147766113281 188.64320373535156 127.2778549194336 180.7830047607422 117.08174896240234 173.79345703125" stroke-width="2.9887259006500244" fill="none" stroke="rgb(166, 249, 50)" stroke-opacity="0.035136" stroke-linecap="round" stroke-linejoin="round"/>
    <path d="M 68.44722747802734 50.53110885620117 C 75.23960876464844 41.946834564208984 77.77647399902344 49.37332534790039 80.84545135498047 42.899269104003906 C 87.3941421508789 40.136024475097656 80.22673797607422 57.87445068359375 88.17002868652344 70.9447250366211 C 98.04676055908203 65.9622802734375 94.45592498779297 68.03790283203125 104.72732543945312 70.05115509033203" stroke-width="2.0" fill="none" stroke="rgb(75, 45, 121)" stroke-opacity="0.20220898" stroke-linecap="round" stroke-linejoin="round"/>
    <path d="M 74.58875274658203 180.1629638671875 C 74.10625457763672 177.2368621826172 59.4599609375 182.4052276611328 59.16271209716797 181.49887084960938 C 46.653873443603516 185.33255004882812 33.484981536865234 191.46958923339844 38.163352966308594 188.11451721191406" stroke-width="2.039584159851074" fill="none" stroke="rgb(232, 81, 222)" stroke-opacity="0.3882052" stroke-linecap="round" stroke-linejoin="round"/>
    <path d="M 102.66832733154297 130.0725555419922 C 114.68192291259766 123.88643646240234 123.01494598388672 120.58563995361328 126.90032196044922 112.8039321899414 C 140.5743408203125 126.48493194580078 130.0762481689453 131.1682586669922 123.36250305175781 124.84721374511719" stroke-width="3.617100715637207" fill="none" stroke="rgb(255, 0, 131)" stroke-opacity="0.3617031" stroke-linecap="round" stroke-linejoin="round"/>
    <path d="M 123.49160766601562 120.61604309082031 C 118.1871109008789 121.25021362304688 120.45047760009766 110.11244201660156 128.60499572753906 100.91926574707031 C 123.1118392944336 108.7079849243164 126.55769348144531 103.8742904663086 123.7917709350586 92.7495346069336" stroke-width="2.0" fill="none" stroke="rgb(58, 90, 104)" stroke-opacity="0.5832101" stroke-linecap="round" stroke-linejoin="round"/>
    <path d="M 47.46708297729492 189.76327514648438 C 36.6490364074707 195.5319366455078 43.952056884765625 195.49697875976562 43.46379852294922 192.2299346923828 C 36.87406539916992 189.80682373046875 34.47066879272461 182.34649658203125 35.39043426513672 174.13510131835938 C 36.86844253540039 175.15585327148438 33.73067092895508 184.39019775390625 38.786399841308594 191.10357666015625" stroke-width="2.0" fill="none" stroke="rgb(183, 192, 187)" stroke-opacity="0.48167497" stroke-linecap="round" stroke-linejoin="round"/>
    <path d="M 169.61305236816406 136.6208953857422 C 169.4300079345703 139.4265899658203 173.8267364501953 144.97947692871094 177.02914428710938 151.50840759277344 C 168.82537841796875 159.22811889648438 166.8091583251953 158.0070343017578 166.7388916015625 149.57826232910156 C 157.18310546875 143.79383850097656 156.07139587402344 145.49798583984375 164.2430419921875 145.28683471679688" stroke-width="2.0" fill="none" stroke="rgb(158, 94, 124)" stroke-opacity="0.044080377" stroke-linecap="round" stroke-linejoin="round"/>
    <path d="M 206.74147033691406 115.43941497802734 C 220.3834686279297 115.33638763427734 220.12301635742188 114.70193481445312 207.61410522460938 116.74208068847656" stroke-width="2.9450502395629883" fill="none" stroke="rgb(192, 90, 81)" stroke-opacity="0.90563065" stroke-linecap="round" stroke-linejoin="round"/>
  </g>
</svg>
