<?xml version="1.0" ?>
<svg xmlns="http://www.w3.org/2000/svg" version="1.1" width="804.0" height="804.0">
  <defs/>
  <g>
    <path d="M 26.774658203125 30.85839080810547 C 26.35772705078125 31.565771102905273 25.81110954284668 31.16742706298828 26.1887149810791 30.819881439208984 C 26.93051528930664 30.60706901550293 27.32537078857422 30.49553108215332 27.421659469604492 30.59140396118164 C 29.74233627319336 29.221084594726562 30.655517578125 28.422258377075195 33.56581115722656 28.868505477905273 C 37.006385803222656 27.57672119140625 39.461631774902344 27.998241424560547 42.822532653808594 27.843036651611328 C 45.05177688598633 27.202592849731445 48.18971252441406 26.778484344482422 49.727325439453125 26.790145874023438 C 54.085514068603516 28.448644638061523 54.89547348022461 34.20341491699219 55.0759391784668 38.448856353759766 C 57.69103240966797 44.60784149169922 57.46162033081055 51.79281997680664 52.4619026184082 57.66194152832031 C 49.85866928100586 61.887969970703125 45.48841857910156 63.059730529785156 41.76457214355469 62.94396209716797 C 39.53720474243164 62.705299377441406 38.88507080078125 62.77363204956055 37.63062286376953 62.39433288574219 C 37.10295486450195 63.509193420410156 36.33530807495117 63.374549865722656 35.90482711791992 63.222843170166016 C 35.78766632080078 63.00001525878906 35.4536018371582 62.554019927978516 35.2824592590332 62.88913345336914 C 35.249229431152344 63.20619201660156 35.722843170166016 63.64695739746094 37.21073532104492 62.67428970336914 C 37.46931838989258 63.244075775146484 37.843055725097656 63.865787506103516 38.30715560913086 64.36773681640625 C 39.1441764831543 66.555419921875 39.52561950683594 69.4640121459961 38.852333068847656 72.97696685791016 C 39.290618896484375 74.97684478759766 39.60580062866211 77.16368103027344 40.70408248901367 77.3909683227539" stroke-width="0.9142717719078064" fill="none" stroke="rgb(32, 32, 14)" stroke-opacity="0.99294317" stroke-linecap="round" stroke-linejoin="round"/>
    <path d="M 32.37051773071289 44.464324951171875 C 31.930578231811523 44.341644287109375 31.579439163208008 44.90232849121094 31.75221061706543 45.36923599243164 C 31.67940902709961 45.643707275390625 31.51723289489746 46.18815231323242 31.73592758178711 46.5162353515625 C 30.304656982421875 46.887657165527344 29.804431915283203 47.50869369506836 30.543228149414062 49.71535110473633 C 29.108299255371094 52.059326171875 29.06955909729004 54.235755920410156 27.880706787109375 56.726444244384766 C 27.700653076171875 59.65618896484375 28.676387786865234 63.24235153198242 29.70798683166504 66.43446350097656 C 29.205177307128906 68.93621063232422 29.240009307861328 71.07283020019531 29.834327697753906 72.61732482910156 C 30.54511833190918 74.69043731689453 30.87360191345215 76.49042510986328 32.239864349365234 77.64715576171875" stroke-width="1.1244711875915527" fill="none" stroke="rgb(32, 15, 25)" stroke-opacity="1.0" stroke-linecap="round" stroke-linejoin="round"/>
    <path d="M 42.65522766113281 27.705759048461914 C 46.722129821777344 26.640087127685547 46.92770004272461 30.806760787963867 44.78091812133789 27.32468605041504 C 41.080787658691406 29.591554641723633 43.241817474365234 29.706331253051758 45.01483154296875 26.390953063964844 C 48.366790771484375 21.667070388793945 48.45062255859375 20.520124435424805 47.166622161865234 14.815536499023438" stroke-width="0.9649128317832947" fill="none" stroke="rgb(172, 180, 23)" stroke-opacity="0.9028089" stroke-linecap="round" stroke-linejoin="round"/>
    <path d="M 53.4472770690918 57.783302307128906 C 49.57115173339844 54.20596694946289 52.609615325927734 57.51814270019531 47.3765983581543 57.46945571899414 C 49.139503479003906 60.53207015991211 43.44997787475586 58.7905158996582 42.55862808227539 61.572120666503906" stroke-width="0.9142717719078064" fill="none" stroke="rgb(62, 249, 157)" stroke-opacity="0.21393666" stroke-linecap="round" stroke-linejoin="round"/>
    <path d="M 31.409788131713867 72.68594360351562 C 29.69480323791504 77.54405212402344 25.274011611938477 79.38214874267578 29.438365936279297 81.73851776123047 C 27.4549617767334 77.30072021484375 24.928800582885742 79.93305969238281 20.781539916992188 81.0694808959961 C 23.0363826751709 81.18386840820312 24.404939651489258 81.96025848388672 28.302488327026367 85.62935638427734" stroke-width="0.9548401236534119" fill="none" stroke="rgb(111, 109, 6)" stroke-opacity="0.55112344" stroke-linecap="round" stroke-linejoin="round"/>
    <path d="M 25.952672958374023 30.771509170532227 C 28.453474044799805 26.18739891052246 23.5216007232666 26.305498123168945 21.587238311767578 24.889726638793945" stroke-width="0.9732879400253296" fill="none" stroke="rgb(117, 188, 90)" stroke-opacity="0.83362174" stroke-linecap="round" stroke-linejoin="round"/>
    <path d="M 27.513687133789062 30.658342361450195 C 24.684894561767578 31.495561599731445 27.067520141601562 34.56037139892578 28.17078971862793 33.968055725097656" stroke-width="1.272969365119934" fill="none" stroke="rgb(84, 150, 148)" stroke-opacity="1.0" stroke-linecap="round" stroke-linejoin="round"/>
    <path d="M 32.392425537109375 44.41519546508789 C 30.799551010131836 45.347320556640625 30.268552780151367 42.26713943481445 29.8793888092041 37.69865798950195 C 31.63673210144043 34.235076904296875 36.556861877441406 32.20527267456055 38.58234405517578 31.78466033935547 C 37.57283020019531 33.57057571411133 32.669281005859375 30.454877853393555 35.19804382324219 32.77970886230469" stroke-width="1.0862318277359009" fill="none" stroke="rgb(223, 108, 179)" stroke-opacity="0.8365522" stroke-linecap="round" stroke-linejoin="round"/>
    <path d="M 42.163536071777344 26.99387550354004 C 38.044654846191406 30.37610626220703 38.28718948364258 26.54767608642578 34.883514404296875 25.404951095581055" stroke-width="0.9142717719078064" fill="none" stroke="rgb(10, 159, 45)" stroke-opacity="0.3107029" stroke-linecap="round" stroke-linejoin="round"/>
    <path d="M 25.801868438720703 30.626781463623047 C 25.709741592407227 25.94379997253418 30.326480865478516 26.071308135986328 35.55424499511719 28.451908111572266 C 39.6654167175293 29.497133255004883 42.559913635253906 34.351619720458984 38.55693435668945 36.36321258544922 C 35.96187973022461 36.8882942199707 33.47420883178711 34.7703971862793 30.987483978271484 35.75052261352539" stroke-width="0.9142717719078064" fill="none" stroke="rgb(149, 54, 31)" stroke-opacity="0.5519419" stroke-linecap="round" stroke-linejoin="round"/>
    <path d="M 47.25459289550781 15.56485366821289 C 48.05567932128906 19.352554321289062 49.376312255859375 20.741539001464844 49.14731979370117 25.04167366027832 C 44.31950378417969 23.577594757080078 47.395015716552734 24.569021224975586 43.82594680786133 25.697221755981445" stroke-width="0.9259732365608215" fill="none" stroke="rgb(34, 76, 184)" stroke-opacity="0.3730945" stroke-linecap="round" stroke-linejoin="round"/>
    <path d="M 21.619117736816406 24.032258987426758 C 21.37032699584961 22.958255767822266 26.355504989624023 26.880508422851562 21.774410247802734 25.842384338378906 C 18.772258758544922 20.690336227416992 20.4506893157959 23.659687042236328 18.104312896728516 24.858821868896484 C 15.031364440917969 29.47239875793457 13.205338478088379 31.457931518554688 10.783003807067871 26.638134002685547" stroke-width="0.9330183267593384" fill="none" stroke="rgb(251, 115, 73)" stroke-opacity="0.76884127" stroke-linecap="round" stroke-linejoin="round"/>
    <path d="M 21.999778747558594 24.73756980895996 C 17.919292449951172 22.729022979736328 16.114151000976562 24.086748123168945 16.222248077392578 28.54550552368164 C 16.70713233947754 33.06214141845703 15.183479309082031 36.42156219482422 15.258482933044434 39.88581085205078 C 14.271252632141113 37.371307373046875 12.193094253540039 42.143768310546875 11.702391624450684 46.91212844848633" stroke-width="0.9768677949905396" fill="none" stroke="rgb(96, 247, 117)" stroke-opacity="0.49362946" stroke-linecap="round" stroke-linejoin="round"/>
    <path d="M 27.150854110717773 34.55156707763672 C 28.297706604003906 32.94685363769531 26.65580177307129 29.061059951782227 24.978076934814453 29.4573917388916 C 30.28044891357422 32.43635559082031 26.789255142211914 29.416927337646484 22.69097900390625 28.036792755126953" stroke-width="0.9142717719078064" fill="none" stroke="rgb(204, 69, 49)" stroke-opacity="0.2589956" stroke-linecap="round" stroke-linejoin="round"/>
    <path d="M 27.8516845703125 85.74336242675781 C 29.30864143371582 81.97734069824219 26.682933807373047 81.37608337402344 26.020376205444336 86.02169036865234 C 25.627826690673828 84.4897689819336 26.202796936035156 83.84750366210938 30.200973510742188 82.97664642333984 C 31.533645629882812 78.7435073852539 31.48701286315918 82.35771942138672 28.69014549255371 77.94204711914062" stroke-width="0.9142717719078064" fill="none" stroke="rgb(88, 255, 120)" stroke-opacity="0.5638814" stroke-linecap="round" stroke-linejoin="round"/>
    <path d="M 31.116981506347656 37.3103141784668 C 27.52484893798828 40.15742111206055 24.80434799194336 34.74748611450195 25.56681251525879 39.54510498046875" stroke-width="0.9142717719078064" fill="none" stroke="rgb(138, 154, 58)" stroke-opacity="0.9935062" stroke-linecap="round" stroke-linejoin="round"/>
    <path d="M 21.763124465942383 24.994667053222656 C 25.025741577148438 25.28387451171875 26.072277069091797 25.380599975585938 21.7364559173584 21.936542510986328 C 19.21506118774414 24.447277069091797 24.411441802978516 23.022478103637695 18.810787200927734 25.988237380981445 C 19.680667877197266 23.75893783569336 24.438779830932617 23.671937942504883 23.720611572265625 19.999420166015625" stroke-width="1.205152153968811" fill="none" stroke="rgb(210, 68, 124)" stroke-opacity="0.4721171" stroke-linecap="round" stroke-linejoin="round"/>
    <path d="M 35.096065521240234 32.21052169799805 C 39.575565338134766 31.183198928833008 38.56403732299805 34.78069305419922 44.590370178222656 31.875057220458984 C 42.994754791259766 32.22272872924805 41.61460494995117 28.8809814453125 38.77381134033203 32.398170471191406 C 44.002845764160156 35.672054290771484 42.051536560058594 39.249324798583984 44.508846282958984 38.25956726074219" stroke-width="1.165824055671692" fill="none" stroke="rgb(158, 66, 209)" stroke-opacity="1.0" stroke-linecap="round" stroke-linejoin="round"/>
    <path d="M 46.23100662231445 70.36608123779297 C 50.75082778930664 69.0359115600586 51.15180206298828 64.71769714355469 46.21579360961914 65.78738403320312" stroke-width="1.271213173866272" fill="none" stroke="rgb(45, 131, 26)" stroke-opacity="0.8003581" stroke-linecap="round" stroke-linejoin="round"/>
    <path d="M 84.36766052246094 100.24169921875 C 87.80278778076172 102.5986557006836 84.70401763916016 97.8116683959961 82.40483093261719 101.04418182373047" stroke-width="0.9142717719078064" fill="none" stroke="rgb(155, 95, 97)" stroke-opacity="0.030905306" stroke-linecap="round" stroke-linejoin="round"/>
    <path d="M 68.67985534667969 12.610307693481445 C 67.97781372070312 11.962239265441895 65.71810913085938 8.177596092224121 63.80875778198242 9.590302467346191 C 62.01612854003906 8.106605529785156 67.50332641601562 7.72288703918457 68.4636001586914 9.460347175598145 C 73.06942749023438 6.786767482757568 78.0135726928711 2.753199338912964 75.5320053100586 1.1363601684570312" stroke-width="0.9142717719078064" fill="none" stroke="rgb(169, 83, 207)" stroke-opacity="0.012116684" stroke-linecap="round" stroke-linejoin="round"/>
    <path d="M 59.322509765625 71.7880859375 C 58.26883316040039 69.78131103515625 56.57638168334961 69.5588607788086 55.26683807373047 67.89895629882812 C 53.6395149230957 68.6606216430664 48.59413146972656 64.29462432861328 46.880672454833984 60.057029724121094 C 47.90486145019531 62.07322311401367 46.094261169433594 66.01708984375 43.96260070800781 67.81241607666016" stroke-width="0.9142717719078064" fill="none" stroke="rgb(123, 95, 251)" stroke-opacity="0.14032815" stroke-linecap="round" stroke-linejoin="round"/>
    <path d="M 30.239608764648438 58.3747673034668 C 27.11750030517578 62.435298919677734 26.39775848388672 66.61421203613281 26.255346298217773 69.20896911621094" stroke-width="0.9142717719078064" fill="none" stroke="rgb(128, 123, 57)" stroke-opacity="0.8853984" stroke-linecap="round" stroke-linejoin="round"/>
    <path d="M 0.1804182231426239 49.287174224853516 C 1.833687663078308 44.96729278564453 -2.3994476795196533 49.78990173339844 -0.8299837112426758 55.66744613647461" stroke-width="1.0081486701965332" fill="none" stroke="rgb(248, 167, 52)" stroke-opacity="0.3464166" stroke-linecap="round" stroke-linejoin="round"/>
    <path d="M 70.47071838378906 66.5138168334961 C 74.51673126220703 61.57902526855469 73.81787109375 60.69883728027344 71.71786499023438 64.57009887695312 C 73.88285064697266 69.76033020019531 76.81133270263672 73.40982055664062 76.58647918701172 74.51469421386719 C 80.02581787109375 77.57073974609375 81.5431137084961 74.56565856933594 81.86766815185547 70.61823272705078" stroke-width="0.9142717719078064" fill="none" stroke="rgb(199, 10, 230)" stroke-opacity="0.9584774" stroke-linecap="round" stroke-linejoin="round"/>
    <path d="M 91.13522338867188 54.04286575317383 C 92.59188079833984 55.2916145324707 88.96709442138672 60.637664794921875 86.94647979736328 65.74247741699219" stroke-width="1.2464888095855713" fill="none" stroke="rgb(203, 27, 104)" stroke-opacity="0.4782693" stroke-linecap="round" stroke-linejoin="round"/>
    <path d="M 95.95721435546875 95.88045501708984 C 97.18400573730469 91.06432342529297 97.25495910644531 89.96286010742188 95.21707916259766 93.71774291992188" stroke-width="1.1768277883529663" fill="none" stroke="rgb(116, 42, 101)" stroke-opacity="0.1474308" stroke-linecap="round" stroke-linejoin="round"/>
    <path d="M 5.072890758514404 50.94529724121094 C 3.3960704803466797 55.412803649902344 2.6964588165283203 54.67905044555664 3.8529489040374756 53.57011795043945" stroke-width="0.9142717719078064" fill="none" stroke="rgb(126, 190, 121)" stroke-opacity="0.284355" stroke-linecap="round" stroke-linejoin="round"/>
    <path d="M 103.10040283203125 86.30697631835938 C 102.72740936279297 81.73328399658203 103.88609313964844 86.71416473388672 104.62586212158203 86.86249542236328 C 101.75153350830078 90.89934539794922 102.32422637939453 87.5560531616211 98.41607666015625 82.79155731201172 C 96.67638397216797 78.54390716552734 96.45855712890625 75.7652816772461 96.88619995117188 74.09957122802734" stroke-width="0.9142717719078064" fill="none" stroke="rgb(233, 160, 77)" stroke-opacity="0.9443613" stroke-linecap="round" stroke-linejoin="round"/>
    <path d="M 22.670330047607422 85.343017578125 C 20.721479415893555 90.012451171875 24.740182876586914 87.59223175048828 21.26375389099121 88.99431610107422 C 18.62299346923828 86.68192291259766 16.523916244506836 81.80609893798828 19.38765525817871 82.59831237792969 C 19.814170837402344 85.7438735961914 23.97513198852539 84.90880584716797 25.369932174682617 87.7846908569336" stroke-width="0.9142717719078064" fill="none" stroke="rgb(60, 151, 53)" stroke-opacity="0.840283" stroke-linecap="round" stroke-linejoin="round"/>
    <path d="M 46.85664749145508 24.553922653198242 C 50.45819854736328 21.990741729736328 52.90510177612305 17.992273330688477 54.40617752075195 16.984628677368164" stroke-width="0.9142717719078064" fill="none" stroke="rgb(114, 40, 112)" stroke-opacity="0.098146565" stroke-linecap="round" stroke-linejoin="round"/>
    <path d="M 31.678869247436523 16.100929260253906 C 34.72221374511719 20.1010684967041 32.25870895385742 21.984352111816406 33.36439895629883 18.72739601135254 C 36.298152923583984 23.687196731567383 38.303993225097656 18.677961349487305 35.768798828125 21.760366439819336 C 34.02136993408203 18.04512596130371 32.779388427734375 17.753814697265625 31.976154327392578 15.359895706176758" stroke-width="1.1878961324691772" fill="none" stroke="rgb(174, 0, 33)" stroke-opacity="0.21175596" stroke-linecap="round" stroke-linejoin="round"/>
    <path d="M 74.91838836669922 99.97389221191406 C 73.62850952148438 103.97689819335938 73.71582794189453 101.91970825195312 70.81710052490234 102.17630767822266" stroke-width="0.9142717719078064" fill="none" stroke="rgb(178, 0, 22)" stroke-opacity="0.88273674" stroke-linecap="round" stroke-linejoin="round"/>
    <path d="M 18.087711334228516 15.845691680908203 C 16.278217315673828 13.20361328125 12.895130157470703 7.976603031158447 9.567422866821289 12.174087524414062" stroke-width="0.9142717719078064" fill="none" stroke="rgb(83, 214, 102)" stroke-opacity="0.0016163501" stroke-linecap="round" stroke-linejoin="round"/>
  </g>
</svg>
