<?xml version="1.0" ?>
<svg xmlns="http://www.w3.org/2000/svg" version="1.1" width="804.0" height="804.0">
  <defs/>
  <g>
    <path d="M 41.79349136352539 57.341156005859375 C 42.016258239746094 57.272422790527344 41.6290283203125 57.98093032836914 40.61616134643555 57.886680603027344 C 41.017547607421875 58.997406005859375 41.06897735595703 59.64512634277344 40.76607894897461 60.69038772583008 C 41.58483123779297 64.61821746826172 43.0815315246582 67.36653900146484 44.76188278198242 70.11105346679688 C 46.18190002441406 72.84657287597656 47.74755859375 73.35102844238281 49.78853988647461 75.07866668701172 C 50.30311965942383 77.41309356689453 51.311058044433594 78.76911163330078 52.85989761352539 79.87692260742188 C 54.68377685546875 80.15138244628906 56.47073745727539 79.8456802368164 57.345428466796875 80.44645690917969 C 61.58102035522461 79.84859466552734 64.29473876953125 79.88409423828125 68.48957061767578 78.05313110351562 C 69.97277069091797 75.71810913085938 70.66831970214844 72.98460388183594 74.2557144165039 72.33949279785156 C 76.22622680664062 70.32783508300781 79.22175598144531 64.07635498046875 80.51364135742188 62.2141227722168 C 82.37840270996094 56.481990814208984 83.84513092041016 48.38976287841797 81.85564422607422 41.13011932373047 C 82.56076049804688 39.384647369384766 80.40959930419922 40.132240295410156 79.41956329345703 42.507469177246094 C 74.8852310180664 47.125789642333984 69.97758483886719 52.17525100708008 64.27811431884766 55.70792770385742 C 63.036216735839844 56.0894775390625 61.83674621582031 57.69002914428711 61.5422477722168 58.95640182495117 C 59.22026062011719 57.90523147583008 57.92162322998047 53.190921783447266 57.69791793823242 51.17379379272461" stroke-width="1.3616948127746582" fill="none" stroke="rgb(36, 13, 11)" stroke-opacity="1.0" stroke-linecap="round" stroke-linejoin="round"/>
    <path d="M 59.141876220703125 80.16593170166016 C 53.49779510498047 78.89808654785156 57.782657623291016 82.11405944824219 60.730106353759766 82.46097564697266 C 62.854286193847656 83.86748504638672 61.957542419433594 85.32486724853516 57.126014709472656 84.53746795654297 C 57.232872009277344 79.7046890258789 58.57467269897461 83.09342193603516 57.66124725341797 87.44913482666016" stroke-width="0.9154530763626099" fill="none" stroke="rgb(151, 114, 252)" stroke-opacity="0.63026005" stroke-linecap="round" stroke-linejoin="round"/>
    <path d="M 41.287288665771484 56.98111343383789 C 37.6292610168457 55.338069915771484 38.001861572265625 59.42647933959961 33.8624267578125 61.23463439941406" stroke-width="0.9142717719078064" fill="none" stroke="rgb(178, 183, 252)" stroke-opacity="0.8066123" stroke-linecap="round" stroke-linejoin="round"/>
    <path d="M 53.48881530761719 78.27410125732422 C 52.78544998168945 74.00796508789062 51.81381607055664 75.25841522216797 49.13279724121094 76.17588806152344 C 45.27991485595703 79.97923278808594 44.63653564453125 80.13983154296875 39.64387512207031 79.80663299560547 C 42.31986999511719 79.91200256347656 37.56685256958008 79.43016815185547 42.63584518432617 80.39318084716797" stroke-width="0.9142717719078064" fill="none" stroke="rgb(202, 131, 109)" stroke-opacity="0.18491709" stroke-linecap="round" stroke-linejoin="round"/>
    <path d="M 48.37753677368164 76.74749755859375 C 53.29328155517578 78.05864715576172 53.18427658081055 80.14807891845703 55.443824768066406 76.4956283569336" stroke-width="0.9142717719078064" fill="none" stroke="rgb(88, 48, 234)" stroke-opacity="0.058176264" stroke-linecap="round" stroke-linejoin="round"/>
    <path d="M 67.11510467529297 77.68114471435547 C 71.6752700805664 81.83027648925781 68.3946304321289 81.22832489013672 65.10438537597656 82.20001220703125 C 69.35218811035156 82.21240234375 66.27936553955078 80.76913452148438 70.2312240600586 77.74151611328125" stroke-width="1.243489384651184" fill="none" stroke="rgb(140, 37, 152)" stroke-opacity="0.60971636" stroke-linecap="round" stroke-linejoin="round"/>
    <path d="M 41.21142578125 56.80442810058594 C 38.12236785888672 52.93705749511719 39.18755340576172 48.77117156982422 36.02732849121094 52.8157844543457 C 32.32146072387695 57.21236038208008 34.57127380371094 51.8633918762207 34.23884582519531 50.050716400146484" stroke-width="0.9142717719078064" fill="none" stroke="rgb(83, 46, 98)" stroke-opacity="0.033548474" stroke-linecap="round" stroke-linejoin="round"/>
    <path d="M 60.26601791381836 57.99320983886719 C 64.65473937988281 62.4806022644043 68.00993347167969 59.24599075317383 71.81423950195312 59.924293518066406 C 68.47610473632812 57.87070846557617 67.2647705078125 61.757747650146484 66.130615234375 61.36134719848633" stroke-width="1.2184300422668457" fill="none" stroke="rgb(175, 190, 78)" stroke-opacity="0.547558" stroke-linecap="round" stroke-linejoin="round"/>
    <path d="M 49.112884521484375 75.89827728271484 C 52.630435943603516 79.07691955566406 52.88737487792969 77.25775146484375 56.35780334472656 76.32548522949219 C 60.5261344909668 77.22290802001953 64.29325866699219 74.44503784179688 64.89581298828125 74.97634887695312" stroke-width="1.0635360479354858" fill="none" stroke="rgb(207, 247, 226)" stroke-opacity="0.7431267" stroke-linecap="round" stroke-linejoin="round"/>
    <path d="M 33.79576110839844 61.18943405151367 C 30.812971115112305 63.401859283447266 30.277278900146484 66.39421081542969 28.77688980102539 71.33763122558594" stroke-width="1.2073558568954468" fill="none" stroke="rgb(73, 149, 60)" stroke-opacity="0.5103814" stroke-linecap="round" stroke-linejoin="round"/>
    <path d="M 71.03038787841797 78.56678009033203 C 71.2113265991211 82.29936981201172 75.23499298095703 78.29952239990234 77.44608306884766 77.19541931152344" stroke-width="1.1352996826171875" fill="none" stroke="rgb(85, 138, 38)" stroke-opacity="0.81434506" stroke-linecap="round" stroke-linejoin="round"/>
    <path d="M 71.70697784423828 78.16349029541016 C 68.91831970214844 73.6943588256836 70.5198974609375 74.12891387939453 67.9223403930664 77.84133911132812" stroke-width="0.9461706280708313" fill="none" stroke="rgb(16, 32, 111)" stroke-opacity="0.49256608" stroke-linecap="round" stroke-linejoin="round"/>
    <path d="M 33.841556549072266 61.17686462402344 C 32.19741439819336 62.96196365356445 35.795326232910156 68.63578796386719 35.76434326171875 67.672119140625" stroke-width="1.019051432609558" fill="none" stroke="rgb(68, 165, 176)" stroke-opacity="0.4267726" stroke-linecap="round" stroke-linejoin="round"/>
    <path d="M 66.93334197998047 61.21097946166992 C 69.43507385253906 63.5345344543457 64.92376708984375 60.59068298339844 64.83972930908203 62.903873443603516" stroke-width="0.9142717719078064" fill="none" stroke="rgb(59, 233, 245)" stroke-opacity="0.0808158" stroke-linecap="round" stroke-linejoin="round"/>
    <path d="M 70.10395812988281 79.05047607421875 C 69.7924575805664 76.94463348388672 69.4299545288086 72.27593994140625 73.00495147705078 67.2015151977539 C 73.0631103515625 70.8765640258789 76.03736877441406 66.3436050415039 78.78020477294922 64.0244369506836" stroke-width="1.028084397315979" fill="none" stroke="rgb(169, 167, 116)" stroke-opacity="0.8336329" stroke-linecap="round" stroke-linejoin="round"/>
    <path d="M 42.55251693725586 81.28736877441406 C 46.23655700683594 76.48822784423828 48.797889709472656 76.72709655761719 49.7829704284668 73.57027435302734 C 48.12238311767578 77.21748352050781 44.71522903442383 73.28380584716797 44.58442306518555 70.13079833984375" stroke-width="0.9142717719078064" fill="none" stroke="rgb(228, 101, 79)" stroke-opacity="0.8765068" stroke-linecap="round" stroke-linejoin="round"/>
    <path d="M 64.58587646484375 75.41201782226562 C 64.35560607910156 74.53627014160156 64.39920043945312 70.86016082763672 63.51959991455078 74.95088958740234 C 63.09347915649414 76.26817321777344 67.67229461669922 74.79949188232422 67.17945861816406 74.1631851196289" stroke-width="1.0174453258514404" fill="none" stroke="rgb(52, 148, 85)" stroke-opacity="0.5723539" stroke-linecap="round" stroke-linejoin="round"/>
    <path d="M 18.258405685424805 51.117427825927734 C 22.772165298461914 56.34619140625 17.256507873535156 55.93903732299805 19.253477096557617 52.078731536865234" stroke-width="1.2300783395767212" fill="none" stroke="rgb(241, 1, 218)" stroke-opacity="0.71345073" stroke-linecap="round" stroke-linejoin="round"/>
    <path d="M 67.2911605834961 55.266571044921875 C 65.92668914794922 59.27407455444336 65.87438201904297 60.00818634033203 63.03485107421875 59.20323181152344" stroke-width="0.9142717719078064" fill="none" stroke="rgb(120, 199, 165)" stroke-opacity="0.54715675" stroke-linecap="round" stroke-linejoin="round"/>
    <path d="M 101.27327728271484 95.79402923583984 C 96.4535140991211 99.18951416015625 97.53427124023438 101.53783416748047 95.33544921875 104.75401306152344 C 98.46975708007812 103.14185333251953 95.19927215576172 106.7008285522461 91.59906005859375 111.4261474609375 C 92.35965728759766 108.03022003173828 90.47945404052734 109.81217956542969 90.86510467529297 113.5637435913086" stroke-width="0.9156575798988342" fill="none" stroke="rgb(24, 229, 210)" stroke-opacity="0.8230186" stroke-linecap="round" stroke-linejoin="round"/>
    <path d="M 2.7069761753082275 93.77657318115234 C 0.636317789554596 99.16400909423828 2.689539670944214 94.39934539794922 1.5221774578094482 97.63021850585938" stroke-width="1.090174674987793" fill="none" stroke="rgb(174, 224, 20)" stroke-opacity="0.21490903" stroke-linecap="round" stroke-linejoin="round"/>
    <path d="M 37.80470275878906 87.53571319580078 C 38.76523971557617 91.99530792236328 42.23762130737305 88.16788482666016 42.99264907836914 84.95077514648438 C 49.339691162109375 84.30852508544922 52.81630325317383 86.27008819580078 46.7993049621582 89.71867370605469" stroke-width="1.014570713043213" fill="none" stroke="rgb(160, 146, 219)" stroke-opacity="0.6966219" stroke-linecap="round" stroke-linejoin="round"/>
    <path d="M 27.849769592285156 53.87523651123047 C 32.7206916809082 53.46531677246094 36.160823822021484 48.62081527709961 32.138328552246094 45.695194244384766" stroke-width="1.311099886894226" fill="none" stroke="rgb(101, 18, 244)" stroke-opacity="0.54083824" stroke-linecap="round" stroke-linejoin="round"/>
    <path d="M 1.6067512035369873 37.271095275878906 C 3.057209014892578 37.7569465637207 7.1017913818359375 37.071590423583984 1.1438751220703125 32.35622787475586 C 1.4971657991409302 27.78565788269043 3.5665738582611084 30.693937301635742 6.999619960784912 27.551727294921875 C 7.556399822235107 25.765382766723633 9.216919898986816 30.98713493347168 5.100342750549316 31.59783935546875" stroke-width="1.3027563095092773" fill="none" stroke="rgb(255, 62, 132)" stroke-opacity="0.118917" stroke-linecap="round" stroke-linejoin="round"/>
    <path d="M 13.629718780517578 56.731197357177734 C 12.98226261138916 56.97770309448242 9.423288345336914 56.41743850708008 8.3383150100708 61.49182891845703 C 6.9308977127075195 57.13493347167969 4.9129815101623535 52.95903778076172 4.926180839538574 48.994964599609375" stroke-width="1.3497695922851562" fill="none" stroke="rgb(74, 252, 189)" stroke-opacity="0.64693236" stroke-linecap="round" stroke-linejoin="round"/>
    <path d="M 30.551393508911133 79.48039245605469 C 30.34481430053711 82.08576202392578 30.834808349609375 86.1573486328125 30.514060974121094 89.03582000732422" stroke-width="1.1315609216690063" fill="none" stroke="rgb(57, 69, 189)" stroke-opacity="0.35133892" stroke-linecap="round" stroke-linejoin="round"/>
    <path d="M 20.366519927978516 86.7951889038086 C 21.306241989135742 86.95518493652344 21.93695831298828 89.60100555419922 26.58169937133789 87.3390121459961" stroke-width="0.9142717719078064" fill="none" stroke="rgb(59, 161, 167)" stroke-opacity="0.49159992" stroke-linecap="round" stroke-linejoin="round"/>
    <path d="M 20.756967544555664 46.216121673583984 C 19.534996032714844 48.35193634033203 20.979402542114258 50.5303840637207 22.018470764160156 49.2442626953125" stroke-width="0.9283857345581055" fill="none" stroke="rgb(161, 199, 83)" stroke-opacity="0.89827746" stroke-linecap="round" stroke-linejoin="round"/>
    <path d="M 14.008363723754883 65.71590423583984 C 15.370168685913086 72.5257339477539 17.581787109375 74.66678619384766 19.762941360473633 71.46730041503906 C 23.00340461730957 75.92617797851562 26.85482406616211 71.22737884521484 23.328922271728516 72.29901123046875 C 22.8436279296875 67.8482894897461 20.283214569091797 63.38021469116211 22.25029754638672 66.69038391113281" stroke-width="1.151310682296753" fill="none" stroke="rgb(71, 200, 149)" stroke-opacity="0.34412044" stroke-linecap="round" stroke-linejoin="round"/>
    <path d="M 2.6022543907165527 2.388526201248169 C 1.0649323463439941 -2.912174701690674 1.8733484745025635 0.8658309578895569 3.6457574367523193 5.4141387939453125" stroke-width="0.9142717719078064" fill="none" stroke="rgb(62, 168, 55)" stroke-opacity="0.38031775" stroke-linecap="round" stroke-linejoin="round"/>
    <path d="M 89.48509216308594 87.64817810058594 C 88.8706283569336 84.87334442138672 86.56173706054688 80.56470489501953 87.6177749633789 82.00171661376953 C 87.86383056640625 80.82906341552734 85.59030151367188 77.80396270751953 85.25325775146484 75.7049331665039 C 81.99789428710938 70.8315658569336 83.8074951171875 74.73578643798828 88.99553680419922 70.99605560302734" stroke-width="1.0451438426971436" fill="none" stroke="rgb(93, 53, 216)" stroke-opacity="0.5093128" stroke-linecap="round" stroke-linejoin="round"/>
    <path d="M 76.656494140625 52.9122428894043 C 76.07524108886719 51.71244812011719 79.00961303710938 48.685794830322266 80.09689331054688 52.010353088378906 C 83.91705322265625 49.821815490722656 88.10818481445312 51.80284118652344 92.91445922851562 55.102516174316406 C 90.14300537109375 52.37057113647461 88.6448745727539 50.611000061035156 86.3697280883789 55.00086212158203" stroke-width="0.9142717719078064" fill="none" stroke="rgb(116, 127, 19)" stroke-opacity="0.7124083" stroke-linecap="round" stroke-linejoin="round"/>
    <path d="M 101.36988067626953 65.18993377685547 C 100.0845718383789 59.63886260986328 95.08821105957031 56.403568267822266 97.29017639160156 55.86638259887695" stroke-width="0.9142717719078064" fill="none" stroke="rgb(124, 214, 148)" stroke-opacity="0.70628995" stroke-linecap="round" stroke-linejoin="round"/>
  </g>
</svg>
