<?xml version="1.0" ?>
<svg xmlns="http://www.w3.org/2000/svg" version="1.1" width="1555.99219" height="1555.99219">
  <defs/>
  <g>
    <path d="M 74.33161163330078 222.49041748046875 C 73.79759216308594 210.4951171875 73.46321868896484 205.0062255859375 69.52806091308594 211.88201904296875 C 73.97105407714844 208.96725463867188 77.0334243774414 204.69247436523438 85.14400482177734 195.440185546875 C 99.28317260742188 197.74574279785156 108.95197296142578 221.6901092529297 122.43576049804688 228.14202880859375 C 120.40715789794922 240.16273498535156 128.2977294921875 223.59706115722656 142.0406494140625 231.6424560546875 C 155.62631225585938 226.884033203125 168.5507049560547 232.4221649169922 181.84075927734375 233.693115234375 C 188.3462371826172 246.94552612304688 190.28250122070312 244.388671875 194.7076416015625 236.6286163330078 C 199.69122314453125 235.85501098632812 214.08477783203125 238.17698669433594 216.00685119628906 238.92742919921875 C 216.3045196533203 239.2926788330078 230.78549194335938 240.29513549804688 235.07730102539062 243.9257354736328 C 246.55752563476562 243.31301879882812 247.2006378173828 242.02784729003906 249.43783569335938 240.70407104492188" stroke-width="8.044447898864746" fill="none" stroke="rgb(23, 15, 17)" stroke-opacity="0.8012086" stroke-linecap="round" stroke-linejoin="round"/>
    <path d="M 261.3491516113281 317.144775390625 C 261.59619140625 310.87017822265625 259.6028747558594 314.1688232421875 265.2479248046875 315.0745849609375 C 267.7956237792969 305.849609375 265.0262756347656 299.9637145996094 265.62109375 305.1629638671875 C 266.1729736328125 305.2036437988281 265.7967529296875 304.6685791015625 263.6697082519531 303.6110534667969 C 268.5010070800781 295.7299499511719 267.08709716796875 290.9610900878906 264.1957092285156 288.7606506347656 C 248.68821716308594 298.4212341308594 251.6764373779297 289.12152099609375 250.36734008789062 281.5020446777344 C 230.7704315185547 289.30615234375 227.8546142578125 285.8205871582031 224.62977600097656 283.47784423828125 C 223.91500854492188 279.0902404785156 223.11611938476562 273.9862365722656 219.77114868164062 274.6599426269531 C 219.77560424804688 277.97430419921875 218.20361328125 283.3281555175781 212.8362579345703 282.80780029296875 C 210.41293334960938 284.0281677246094 210.19277954101562 287.8760070800781 203.30853271484375 289.1490173339844 C 199.98416137695312 292.6185607910156 197.5557098388672 297.6274719238281 202.04151916503906 304.9337158203125 C 199.1361846923828 303.07080078125 197.965576171875 303.3200988769531 202.3459930419922 300.9284973144531 C 208.60104370117188 308.7764587402344 208.1717529296875 309.9041748046875 206.19082641601562 308.7149963378906 C 197.26156616210938 302.7327880859375 192.7538604736328 303.8198547363281 192.4874725341797 307.6219177246094 C 179.6096649169922 311.7818603515625 171.8179168701172 312.9543762207031 166.77957153320312 308.8390808105469 C 169.18585205078125 294.9546203613281 163.0323028564453 289.911865234375 162.26284790039062 288.09716796875 C 148.62881469726562 287.42681884765625 145.3232421875 288.9646301269531 145.2399139404297 300.9454040527344 C 145.69107055664062 304.3677978515625 139.37249755859375 304.5786437988281 136.67088317871094 299.6736755371094 C 143.06277465820312 298.831787109375 140.11407470703125 299.4316101074219 136.8461151123047 305.27276611328125 C 138.5123748779297 293.5809020996094 137.58396911621094 293.95660400390625 121.5107421875 292.9286193847656" stroke-width="6.4931159019470215" fill="none" stroke="rgb(26, 21, 15)" stroke-opacity="0.77364945" stroke-linecap="round" stroke-linejoin="round"/>
    <path d="M 158.84884643554688 293.5927734375 C 157.0449676513672 278.30194091796875 182.0927734375 301.39898681640625 192.35337829589844 295.80615234375" stroke-width="5.245913982391357" fill="none" stroke="rgb(158, 58, 232)" stroke-opacity="0.7820252" stroke-linecap="round" stroke-linejoin="round"/>
    <path d="M 258.5130920410156 298.71142578125 C 276.5415344238281 329.1746826171875 259.01568603515625 305.5777282714844 274.130859375 323.2468566894531 C 281.2002868652344 327.2915344238281 298.1283264160156 319.835693359375 292.98553466796875 325.4574279785156 C 263.8031005859375 331.1529846191406 276.46038818359375 330.2923278808594 302.3152770996094 360.53216552734375" stroke-width="5.22802734375" fill="none" stroke="rgb(151, 132, 255)" stroke-opacity="0.3875493" stroke-linecap="round" stroke-linejoin="round"/>
    <path d="M 258.1703796386719 293.4962463378906 C 237.39974975585938 265.4869384765625 243.8213348388672 267.53228759765625 248.14300537109375 262.02435302734375 C 252.64134216308594 262.6037902832031 246.98187255859375 238.0342254638672 234.12388610839844 253.1173858642578 C 248.04769897460938 274.610107421875 264.71527099609375 266.39385986328125 239.58815002441406 275.258056640625" stroke-width="6.612390995025635" fill="none" stroke="rgb(210, 125, 127)" stroke-opacity="0.6608787" stroke-linecap="round" stroke-linejoin="round"/>
    <path d="M 133.65084838867188 228.79319763183594 C 136.4924774169922 230.53175354003906 123.29185485839844 245.02984619140625 105.26692199707031 256.9308166503906" stroke-width="8.41506576538086" fill="none" stroke="rgb(117, 37, 137)" stroke-opacity="0.15233143" stroke-linecap="round" stroke-linejoin="round"/>
    <path d="M 110.7577133178711 238.3060302734375 C 93.4817123413086 234.93125915527344 103.00829315185547 219.6578826904297 121.1980209350586 214.36773681640625" stroke-width="5.379083156585693" fill="none" stroke="rgb(246, 15, 252)" stroke-opacity="0.13445951" stroke-linecap="round" stroke-linejoin="round"/>
    <path d="M 87.9865493774414 198.7008819580078 C 53.797943115234375 186.77735900878906 33.63137435913086 158.5316162109375 45.85622024536133 174.72789001464844" stroke-width="5.308145046234131" fill="none" stroke="rgb(148, 52, 162)" stroke-opacity="0.5818787" stroke-linecap="round" stroke-linejoin="round"/>
    <path d="M 136.87269592285156 300.58343505859375 C 125.52168273925781 292.0429382324219 129.69996643066406 279.4678955078125 115.71070098876953 306.0453796386719 C 118.5820541381836 336.812744140625 131.54180908203125 311.0328063964844 138.40647888183594 323.523681640625 C 121.33819580078125 320.9595947265625 142.9938201904297 318.7101745605469 151.56040954589844 326.7391662597656" stroke-width="5.22802734375" fill="none" stroke="rgb(27, 44, 100)" stroke-opacity="0.32439733" stroke-linecap="round" stroke-linejoin="round"/>
    <path d="M 190.96778869628906 310.7044372558594 C 204.36997985839844 334.7632751464844 234.22666931152344 316.9735412597656 233.3362274169922 311.14898681640625" stroke-width="5.22802734375" fill="none" stroke="rgb(210, 129, 151)" stroke-opacity="0.44211298" stroke-linecap="round" stroke-linejoin="round"/>
    <path d="M 136.1613006591797 224.82867431640625 C 136.42127990722656 253.44696044921875 125.55805969238281 249.21530151367188 130.30799865722656 244.13404846191406 C 155.22853088378906 214.75057983398438 151.41783142089844 205.82504272460938 164.24925231933594 220.1156005859375 C 138.10752868652344 207.01422119140625 159.8004913330078 200.39324951171875 145.6518096923828 172.2391357421875" stroke-width="5.22802734375" fill="none" stroke="rgb(205, 161, 23)" stroke-opacity="0.37483445" stroke-linecap="round" stroke-linejoin="round"/>
    <path d="M 260.0442199707031 303.43560791015625 C 254.2793426513672 330.0246276855469 270.9943542480469 317.3650207519531 263.60833740234375 318.406982421875 C 237.6524658203125 314.8701171875 264.4734191894531 318.6962585449219 261.8979797363281 320.0818786621094" stroke-width="5.22802734375" fill="none" stroke="rgb(216, 187, 14)" stroke-opacity="0.5679058" stroke-linecap="round" stroke-linejoin="round"/>
    <path d="M 64.67318725585938 206.25083923339844 C 51.22359085083008 228.3021697998047 66.92142486572266 264.3396911621094 73.28418731689453 280.3840026855469" stroke-width="5.9993438720703125" fill="none" stroke="rgb(203, 52, 58)" stroke-opacity="0.7837193" stroke-linecap="round" stroke-linejoin="round"/>
    <path d="M 131.75515747070312 302.25482177734375 C 116.768310546875 316.5809020996094 86.12593841552734 322.9098205566406 105.74980163574219 294.66650390625 C 119.43403625488281 306.0364990234375 118.12982940673828 298.8564147949219 112.79270935058594 316.7250671386719 C 122.96882629394531 335.75958251953125 141.17623901367188 311.9903259277344 149.37049865722656 289.82098388671875" stroke-width="6.461946964263916" fill="none" stroke="rgb(216, 122, 95)" stroke-opacity="0.13180622" stroke-linecap="round" stroke-linejoin="round"/>
    <path d="M 226.0431671142578 305.2280578613281 C 234.98806762695312 278.15924072265625 271.5267639160156 271.73590087890625 280.3147277832031 234.01962280273438" stroke-width="7.988714694976807" fill="none" stroke="rgb(62, 50, 75)" stroke-opacity="0.88459176" stroke-linecap="round" stroke-linejoin="round"/>
    <path d="M 237.58395385742188 273.2961120605469 C 223.84959411621094 274.0739440917969 239.33901977539062 282.173828125 216.8929443359375 294.4767150878906 C 238.81065368652344 318.1107177734375 221.92233276367188 307.6802673339844 233.42306518554688 333.5014953613281" stroke-width="5.22802734375" fill="none" stroke="rgb(78, 40, 128)" stroke-opacity="0.030159196" stroke-linecap="round" stroke-linejoin="round"/>
    <path d="M 141.7291259765625 286.197265625 C 170.49436950683594 270.519287109375 148.23291015625 281.55084228515625 168.81402587890625 299.66705322265625 C 173.46339416503906 290.76007080078125 184.78416442871094 280.5341491699219 185.69154357910156 307.72918701171875" stroke-width="7.42014217376709" fill="none" stroke="rgb(44, 65, 36)" stroke-opacity="0.9548658" stroke-linecap="round" stroke-linejoin="round"/>
    <path d="M 75.43956756591797 281.1775817871094 C 51.48627471923828 302.889892578125 77.2746353149414 309.30718994140625 81.54595184326172 336.8453369140625" stroke-width="6.076385974884033" fill="none" stroke="rgb(198, 166, 128)" stroke-opacity="0.974393" stroke-linecap="round" stroke-linejoin="round"/>
    <path d="M 152.31504821777344 327.1097717285156 C 160.7767791748047 326.6626281738281 165.93710327148438 363.0331115722656 180.17379760742188 381.7749328613281 C 220.2157745361328 394.4178161621094 223.19915771484375 390.0800476074219 211.6920623779297 422.959716796875" stroke-width="5.844300270080566" fill="none" stroke="rgb(31, 255, 142)" stroke-opacity="0.6694497" stroke-linecap="round" stroke-linejoin="round"/>
    <path d="M 55.652610778808594 167.80908203125 C 77.51141357421875 161.47335815429688 106.52780151367188 182.6648406982422 130.5222625732422 192.3406982421875 C 160.64610290527344 209.48959350585938 151.17807006835938 225.92446899414062 156.36346435546875 206.3573455810547 C 126.97117614746094 223.7296142578125 134.7536163330078 200.31944274902344 161.70045471191406 211.4901123046875" stroke-width="5.22802734375" fill="none" stroke="rgb(121, 104, 140)" stroke-opacity="0.13607265" stroke-linecap="round" stroke-linejoin="round"/>
    <path d="M 263.78167724609375 323.88800048828125 C 252.1812744140625 357.85479736328125 224.7935333251953 373.7774353027344 214.78201293945312 352.266845703125 C 217.3325958251953 346.9058532714844 211.0840606689453 339.55682373046875 219.0948028564453 371.7768859863281 C 212.58238220214844 394.70916748046875 209.8892364501953 403.97845458984375 232.4788818359375 389.4271545410156" stroke-width="5.293219566345215" fill="none" stroke="rgb(234, 151, 77)" stroke-opacity="0.92645043" stroke-linecap="round" stroke-linejoin="round"/>
    <path d="M 190.81756591796875 294.8896179199219 C 209.28250122070312 313.4089050292969 232.73150634765625 295.6540832519531 240.7894744873047 314.86566162109375 C 223.67893981933594 297.0159912109375 208.43798828125 320.2303466796875 203.6243896484375 326.483154296875 C 213.4403839111328 335.7892150878906 186.35360717773438 346.00726318359375 181.3912353515625 339.5496826171875" stroke-width="5.22802734375" fill="none" stroke="rgb(167, 18, 65)" stroke-opacity="0.0" stroke-linecap="round" stroke-linejoin="round"/>
    <path d="M 151.98558044433594 329.4068908691406 C 121.46805572509766 332.3500061035156 93.96516418457031 340.3951110839844 110.5513916015625 359.40423583984375" stroke-width="5.22802734375" fill="none" stroke="rgb(67, 146, 130)" stroke-opacity="0.27115393" stroke-linecap="round" stroke-linejoin="round"/>
    <path d="M 109.6959228515625 208.16188049316406 C 94.67755889892578 208.3601837158203 98.7982406616211 233.4486846923828 79.85044860839844 251.49490356445312 C 83.34150695800781 280.5158996582031 57.4465217590332 294.56890869140625 40.0904655456543 306.0316162109375" stroke-width="5.2406392097473145" fill="none" stroke="rgb(162, 96, 247)" stroke-opacity="0.47724804" stroke-linecap="round" stroke-linejoin="round"/>
    <path d="M 191.8260955810547 295.0745544433594 C 164.69664001464844 281.488525390625 166.80105590820312 275.54388427734375 193.3697509765625 296.87451171875 C 192.68104553222656 325.9488525390625 219.31483459472656 305.1094055175781 206.3015899658203 330.1294860839844 C 214.21710205078125 344.0158386230469 205.01251220703125 338.27996826171875 218.3994140625 357.657958984375" stroke-width="5.22802734375" fill="none" stroke="rgb(218, 171, 163)" stroke-opacity="0.9211035" stroke-linecap="round" stroke-linejoin="round"/>
    <path d="M 152.28546142578125 332.41278076171875 C 158.025390625 299.4523010253906 129.47280883789062 301.9892883300781 142.9151153564453 297.53253173828125 C 133.78286743164062 327.2026062011719 152.5878143310547 296.1983642578125 164.36016845703125 305.2080993652344" stroke-width="5.22802734375" fill="none" stroke="rgb(156, 83, 125)" stroke-opacity="0.5881577" stroke-linecap="round" stroke-linejoin="round"/>
    <path d="M 74.51703643798828 278.270751953125 C 74.44208526611328 281.3935241699219 96.7061767578125 278.6153564453125 67.51081848144531 281.1780090332031 C 77.68655395507812 293.9951477050781 95.5625 306.8750305175781 108.69547271728516 312.28790283203125 C 137.6989288330078 317.68377685546875 118.98438262939453 314.19549560546875 148.49781799316406 327.84381103515625" stroke-width="5.22802734375" fill="none" stroke="rgb(131, 118, 125)" stroke-opacity="0.8304405" stroke-linecap="round" stroke-linejoin="round"/>
    <path d="M 204.8429412841797 163.45542907714844 C 190.00640869140625 163.24635314941406 194.5832061767578 146.68605041503906 188.23683166503906 104.97570037841797 C 193.09434509277344 123.78671264648438 209.11572265625 121.149658203125 183.31121826171875 112.82603454589844 C 174.54579162597656 110.17324829101562 160.5856170654297 120.96045684814453 170.8539276123047 116.90534973144531" stroke-width="5.22802734375" fill="none" stroke="rgb(198, 106, 56)" stroke-opacity="0.089514025" stroke-linecap="round" stroke-linejoin="round"/>
    <path d="M 462.10906982421875 448.8691101074219 C 457.0068359375 409.083740234375 477.6652526855469 439.03924560546875 499.8590087890625 418.4783630371094 C 518.02880859375 436.7371520996094 528.2518310546875 424.0578918457031 499.226806640625 404.9764404296875 C 501.0247497558594 394.4191589355469 490.776123046875 406.1067810058594 499.3243408203125 413.7543029785156" stroke-width="5.230074405670166" fill="none" stroke="rgb(88, 182, 131)" stroke-opacity="0.0026202092" stroke-linecap="round" stroke-linejoin="round"/>
    <path d="M 233.17831420898438 85.41477966308594 C 252.2461395263672 84.80775451660156 278.0191345214844 90.90769958496094 296.6208190917969 95.15364074707031 C 274.5166015625 88.45142364501953 285.1728210449219 85.30485534667969 291.3439025878906 79.562744140625 C 312.4975891113281 67.24068450927734 318.9026794433594 76.72407531738281 332.07830810546875 71.5355453491211" stroke-width="5.22802734375" fill="none" stroke="rgb(223, 73, 165)" stroke-opacity="0.30378225" stroke-linecap="round" stroke-linejoin="round"/>
    <path d="M 312.6932373046875 491.0357971191406 C 326.5320129394531 518.8233032226562 307.2555236816406 519.5686645507812 292.0352478027344 502.2284851074219 C 307.54150390625 505.3001403808594 298.37371826171875 483.22650146484375 281.07861328125 506.6251220703125 C 314.6072692871094 520.2760620117188 303.41827392578125 529.0092163085938 280.8019104003906 537.1319580078125" stroke-width="7.771914005279541" fill="none" stroke="rgb(57, 23, 89)" stroke-opacity="0.057445828" stroke-linecap="round" stroke-linejoin="round"/>
    <path d="M 403.87554931640625 425.0400390625 C 403.2016906738281 410.78985595703125 378.9994812011719 433.4595642089844 358.3509521484375 440.40576171875 C 354.5574035644531 420.31439208984375 386.05560302734375 409.50927734375 395.7513427734375 402.3346862792969 C 379.45733642578125 399.2142639160156 361.29486083984375 391.17572021484375 335.0095520019531 419.1842346191406" stroke-width="5.705365180969238" fill="none" stroke="rgb(96, 209, 255)" stroke-opacity="0.6355006" stroke-linecap="round" stroke-linejoin="round"/>
    <path d="M 526.9498291015625 463.36102294921875 C 507.1577453613281 477.3904724121094 506.5819091796875 466.7313537597656 502.95477294921875 443.26678466796875" stroke-width="7.067631721496582" fill="none" stroke="rgb(137, 212, 184)" stroke-opacity="0.6732804" stroke-linecap="round" stroke-linejoin="round"/>
    <path d="M 47.89118576049805 268.12750244140625 C 55.82848358154297 270.4232177734375 40.2103385925293 299.1435546875 47.169517517089844 310.0285339355469 C 58.550621032714844 315.6060485839844 49.933074951171875 340.21173095703125 23.560426712036133 301.3211975097656 C 14.126167297363281 298.9393615722656 1.283247470855713 287.24822998046875 3.1315650939941406 272.6533203125" stroke-width="5.22802734375" fill="none" stroke="rgb(106, 193, 37)" stroke-opacity="0.8872496" stroke-linecap="round" stroke-linejoin="round"/>
    <path d="M 245.14212036132812 16.13579750061035 C 262.9341125488281 5.739664077758789 266.7199401855469 1.8684362173080444 284.92449951171875 15.888373374938965 C 301.5403747558594 32.50192642211914 303.12646484375 52.103050231933594 303.6535339355469 25.60093879699707 C 312.02716064453125 36.930030822753906 278.7635803222656 45.36912536621094 249.24537658691406 33.01753234863281" stroke-width="7.806086540222168" fill="none" stroke="rgb(255, 213, 0)" stroke-opacity="1.0" stroke-linecap="round" stroke-linejoin="round"/>
    <path d="M 207.3143768310547 315.14910888671875 C 218.04884338378906 328.23931884765625 186.80307006835938 350.7015075683594 202.2690887451172 372.8759765625" stroke-width="5.8392720222473145" fill="none" stroke="rgb(138, 239, 64)" stroke-opacity="0.8304953" stroke-linecap="round" stroke-linejoin="round"/>
    <path d="M 236.89035034179688 132.0743408203125 C 213.6834716796875 114.42509460449219 210.28355407714844 99.1424789428711 208.57774353027344 79.69691467285156 C 227.53627014160156 65.10037994384766 200.96917724609375 65.79491424560547 186.14321899414062 60.09282684326172 C 162.3483123779297 81.58259582519531 150.6104278564453 60.96536636352539 115.8851089477539 30.448884963989258" stroke-width="5.22802734375" fill="none" stroke="rgb(88, 122, 64)" stroke-opacity="0.55241144" stroke-linecap="round" stroke-linejoin="round"/>
    <path d="M 307.7582702636719 372.8006896972656 C 303.7176208496094 380.83404541015625 328.37786865234375 360.1424560546875 348.9814453125 368.10113525390625 C 321.81646728515625 337.85601806640625 352.16363525390625 343.74188232421875 363.4367370605469 361.581298828125 C 372.3876647949219 378.9293212890625 355.4399719238281 354.716064453125 322.1261291503906 344.0466003417969" stroke-width="5.22802734375" fill="none" stroke="rgb(53, 56, 0)" stroke-opacity="0.6071476" stroke-linecap="round" stroke-linejoin="round"/>
    <path d="M 455.10699462890625 24.085412979125977 C 455.1114501953125 26.20448875427246 485.4114990234375 14.121450424194336 509.040771484375 -16.241031646728516 C 520.6588745117188 2.0949079990386963 495.1026916503906 -11.53443431854248 484.7408447265625 3.048096179962158 C 505.9247741699219 -1.7906888723373413 528.8104248046875 20.2836856842041 511.4239501953125 16.35939598083496" stroke-width="5.22802734375" fill="none" stroke="rgb(28, 87, 54)" stroke-opacity="0.42715698" stroke-linecap="round" stroke-linejoin="round"/>
    <path d="M 554.590576171875 391.8258361816406 C 569.2403564453125 421.46173095703125 562.1254272460938 438.33929443359375 588.0098266601562 451.9615173339844" stroke-width="5.22802734375" fill="none" stroke="rgb(54, 82, 0)" stroke-opacity="0.45291314" stroke-linecap="round" stroke-linejoin="round"/>
    <path d="M 558.345947265625 358.77728271484375 C 561.3576049804688 364.22454833984375 537.4257202148438 394.6889953613281 551.0027465820312 403.4023132324219 C 536.474853515625 388.4449462890625 551.1132202148438 370.3942565917969 543.8414306640625 394.2136535644531" stroke-width="5.22802734375" fill="none" stroke="rgb(127, 81, 178)" stroke-opacity="0.55686754" stroke-linecap="round" stroke-linejoin="round"/>
    <path d="M 189.5635986328125 116.27904510498047 C 208.56455993652344 132.4429168701172 221.67166137695312 143.6555633544922 205.58294677734375 130.70994567871094" stroke-width="6.419930934906006" fill="none" stroke="rgb(220, 232, 40)" stroke-opacity="0.7753825" stroke-linecap="round" stroke-linejoin="round"/>
    <path d="M 524.8165283203125 331.6662902832031 C 534.253173828125 361.2506408691406 527.31201171875 368.6831970214844 540.9212646484375 378.7475280761719 C 568.3977661132812 370.8207092285156 557.7595825195312 348.0099792480469 547.7141723632812 361.15289306640625 C 514.6859130859375 379.45745849609375 533.3016967773438 411.9083251953125 553.3563232421875 415.6577453613281" stroke-width="7.556463241577148" fill="none" stroke="rgb(43, 0, 214)" stroke-opacity="0.2715617" stroke-linecap="round" stroke-linejoin="round"/>
    <path d="M 436.38836669921875 235.67286682128906 C 435.0174255371094 224.44590759277344 470.78912353515625 245.5303497314453 471.44476318359375 261.38262939453125" stroke-width="5.22802734375" fill="none" stroke="rgb(148, 52, 80)" stroke-opacity="0.009026525" stroke-linecap="round" stroke-linejoin="round"/>
    <path d="M 189.25991821289062 102.22079467773438 C 172.4818115234375 95.17005157470703 192.7645263671875 111.65654754638672 211.61363220214844 89.61198425292969 C 234.4966278076172 86.34208679199219 253.27992248535156 97.25614929199219 235.1512908935547 134.512451171875" stroke-width="5.913834095001221" fill="none" stroke="rgb(19, 132, 0)" stroke-opacity="0.3697657" stroke-linecap="round" stroke-linejoin="round"/>
    <path d="M 120.56135559082031 437.4951171875 C 125.58602142333984 456.3944091796875 105.55392456054688 429.4166259765625 106.40724182128906 430.2961120605469 C 104.5254135131836 433.4789123535156 82.77375793457031 440.31622314453125 92.43683624267578 446.138916015625" stroke-width="7.320130825042725" fill="none" stroke="rgb(98, 239, 52)" stroke-opacity="0.42716017" stroke-linecap="round" stroke-linejoin="round"/>
    <path d="M 269.7208251953125 27.401391983032227 C 263.4129943847656 -2.2483997344970703 285.8015441894531 0.47378578782081604 268.1604309082031 -9.78490924835205" stroke-width="5.656002044677734" fill="none" stroke="rgb(153, 113, 87)" stroke-opacity="0.805274" stroke-linecap="round" stroke-linejoin="round"/>
    <path d="M 279.0503845214844 370.8504333496094 C 259.9229431152344 359.5075378417969 280.6371765136719 357.4972229003906 308.09844970703125 335.8354187011719 C 318.5138854980469 351.3853454589844 329.6737060546875 372.9924011230469 352.3832702636719 371.16375732421875" stroke-width="5.665008544921875" fill="none" stroke="rgb(88, 6, 244)" stroke-opacity="0.22048664" stroke-linecap="round" stroke-linejoin="round"/>
    <path d="M 363.0316467285156 68.8992919921875 C 344.22369384765625 60.2306022644043 355.7642822265625 67.35506439208984 359.2535095214844 64.08707427978516" stroke-width="5.22802734375" fill="none" stroke="rgb(77, 83, 243)" stroke-opacity="0.61670065" stroke-linecap="round" stroke-linejoin="round"/>
    <path d="M 201.018798828125 59.91236114501953 C 228.32354736328125 45.320777893066406 257.8977966308594 46.22753143310547 226.8340606689453 54.75709915161133 C 237.30726623535156 30.998140335083008 226.48255920410156 47.64590072631836 213.9138641357422 41.72261428833008" stroke-width="7.4495954513549805" fill="none" stroke="rgb(255, 141, 181)" stroke-opacity="0.37533113" stroke-linecap="round" stroke-linejoin="round"/>
    <path d="M 480.3325500488281 510.948974609375 C 497.5886535644531 507.62542724609375 520.7885131835938 486.8579406738281 503.91180419921875 510.2566833496094 C 505.7256774902344 505.1009521484375 504.3845520019531 527.39892578125 521.2257690429688 540.3485717773438 C 544.4402465820312 500.04168701171875 552.8462524414062 525.2486572265625 541.9380493164062 552.3671875" stroke-width="5.22802734375" fill="none" stroke="rgb(238, 68, 214)" stroke-opacity="0.3914259" stroke-linecap="round" stroke-linejoin="round"/>
    <path d="M 6.779926776885986 158.5890655517578 C 22.77076530456543 156.48219299316406 8.169120788574219 140.0250701904297 -13.466541290283203 148.40452575683594 C -1.2673826217651367 146.393798828125 1.5710418224334717 157.69998168945312 -17.96341323852539 127.25364685058594 C -0.5370941758155823 146.8629150390625 27.790626525878906 136.92129516601562 48.24872970581055 146.74310302734375" stroke-width="7.659916877746582" fill="none" stroke="rgb(255, 230, 107)" stroke-opacity="0.49746415" stroke-linecap="round" stroke-linejoin="round"/>
  </g>
</svg>
