<?xml version="1.0" ?>
<svg xmlns="http://www.w3.org/2000/svg" version="1.1" width="122.0" height="122.0">
  <defs/>
  <g>
    <path d="M 25.774600982666016 46.536869049072266 C 25.16588592529297 48.241886138916016 23.155229568481445 47.980674743652344 21.741792678833008 48.11463928222656 C 20.292219161987305 48.22669982910156 18.927295684814453 48.53199768066406 17.88105010986328 48.91475296020508 C 17.32921600341797 49.61769485473633 16.789323806762695 50.673221588134766 17.049501419067383 51.160274505615234 C 17.606595993041992 52.39404296875 19.669404983520508 55.83122253417969 21.925477981567383 58.936851501464844 C 24.13043212890625 62.06792449951172 24.60255241394043 63.34099197387695 26.172103881835938 63.73659896850586" stroke-width="1.4428893327713013" fill="none" stroke="rgb(20, 1, 72)" stroke-opacity="0.9990548" stroke-linecap="round" stroke-linejoin="round"/>
    <path d="M 41.82143783569336 57.62590026855469 C 39.5079345703125 57.40778350830078 36.11872100830078 57.83988571166992 36.70068359375 58.659996032714844 C 37.10668182373047 57.864986419677734 40.76200866699219 57.392311096191406 41.18130874633789 58.27561569213867 C 42.63922882080078 59.67241287231445 40.729339599609375 61.56087875366211 39.76601791381836 61.44348907470703 C 38.40617752075195 61.0750732421875 39.56847381591797 59.573726654052734 41.67346954345703 60.11334991455078 C 40.620243072509766 59.736968994140625 40.0179557800293 61.455604553222656 39.92218780517578 63.721031188964844 C 39.574317932128906 64.96128845214844 39.9227409362793 64.19001007080078 42.16158676147461 62.86894989013672" stroke-width="1.4233644008636475" fill="none" stroke="rgb(0, 88, 228)" stroke-opacity="0.7668304" stroke-linecap="round" stroke-linejoin="round"/>
    <path d="M 19.709686279296875 46.97844314575195 C 20.273962020874023 45.10660171508789 21.283130645751953 44.22123718261719 23.59842300415039 43.14407730102539 C 25.032100677490234 43.10872268676758 28.351301193237305 45.537750244140625 31.73577308654785 47.75580596923828 C 33.860050201416016 52.16609191894531 37.744686126708984 49.03932571411133 41.183258056640625 46.776275634765625" stroke-width="1.0892857313156128" fill="none" stroke="rgb(192, 200, 177)" stroke-opacity="0.3795752" stroke-linecap="round" stroke-linejoin="round"/>
    <path d="M 25.8861026763916 65.85855102539062 C 27.38164520263672 60.91520309448242 29.293819427490234 56.56748962402344 31.50076675415039 52.71607208251953 C 34.10947036743164 49.35491180419922 28.811479568481445 50.14645004272461 25.0150089263916 52.85307312011719" stroke-width="1.0892857313156128" fill="none" stroke="rgb(118, 177, 188)" stroke-opacity="0.39299703" stroke-linecap="round" stroke-linejoin="round"/>
    <path d="M 40.00560760498047 65.55583953857422 C 43.58673095703125 70.57218933105469 46.929378509521484 65.87110137939453 45.06846618652344 65.83432006835938" stroke-width="1.0892857313156128" fill="none" stroke="rgb(129, 36, 60)" stroke-opacity="0.22021003" stroke-linecap="round" stroke-linejoin="round"/>
    <path d="M 40.1262321472168 63.970359802246094 C 41.324337005615234 61.63683319091797 43.05862045288086 60.915157318115234 44.609458923339844 60.119789123535156 C 46.18754959106445 59.23839569091797 45.06940460205078 61.39078140258789 44.896026611328125 64.59131622314453" stroke-width="1.117158055305481" fill="none" stroke="rgb(100, 12, 203)" stroke-opacity="0.18865903" stroke-linecap="round" stroke-linejoin="round"/>
    <path d="M 40.31001663208008 56.47086715698242 C 43.581214904785156 62.43360900878906 37.59080123901367 61.694908142089844 35.324161529541016 60.5209846496582" stroke-width="1.5713672637939453" fill="none" stroke="rgb(122, 11, 190)" stroke-opacity="0.78343445" stroke-linecap="round" stroke-linejoin="round"/>
    <path d="M 42.96491622924805 63.71432113647461 C 43.997562408447266 64.52030944824219 43.28456115722656 67.14692687988281 44.661495208740234 67.2960433959961 C 45.131526947021484 65.74616241455078 45.34136962890625 63.517494201660156 46.01564025878906 61.7547607421875 C 47.2781982421875 61.079864501953125 42.26984405517578 65.4428939819336 36.99496841430664 69.77359008789062" stroke-width="1.0892857313156128" fill="none" stroke="rgb(172, 177, 57)" stroke-opacity="0.07028948" stroke-linecap="round" stroke-linejoin="round"/>
    <path d="M 25.776485443115234 66.49832916259766 C 18.562973022460938 67.1748046875 13.503133773803711 70.1294937133789 11.997237205505371 71.2669906616211 C 11.95588493347168 70.51212310791016 13.471564292907715 66.35017395019531 13.236738204956055 60.33782196044922 C 14.973803520202637 56.36528015136719 15.584753036499023 52.40779113769531 15.936858177185059 49.49851608276367" stroke-width="1.0892857313156128" fill="none" stroke="rgb(196, 211, 121)" stroke-opacity="0.6916429" stroke-linecap="round" stroke-linejoin="round"/>
    <path d="M 21.360673904418945 48.78083038330078 C 21.433366775512695 44.416839599609375 22.126066207885742 38.176788330078125 21.1977596282959 34.6793212890625 C 20.871524810791016 30.706111907958984 23.743419647216797 33.009193420410156 26.30394172668457 35.506046295166016" stroke-width="1.0991853475570679" fill="none" stroke="rgb(169, 76, 32)" stroke-opacity="0.46670887" stroke-linecap="round" stroke-linejoin="round"/>
    <path d="M 39.20386505126953 69.13802337646484 C 39.36870574951172 75.04490661621094 39.21173858642578 81.21700286865234 40.645484924316406 86.31776428222656 C 40.63993835449219 93.09076690673828 39.62221145629883 88.93665313720703 39.49496078491211 82.73979949951172" stroke-width="1.5644527673721313" fill="none" stroke="rgb(222, 21, 108)" stroke-opacity="0.29145795" stroke-linecap="round" stroke-linejoin="round"/>
    <path d="M 35.608253479003906 61.51467514038086 C 34.75782012939453 59.69921875 36.3587760925293 61.62716293334961 37.02640914916992 67.27713012695312" stroke-width="1.0892857313156128" fill="none" stroke="rgb(198, 40, 147)" stroke-opacity="0.776976" stroke-linecap="round" stroke-linejoin="round"/>
    <path d="M 41.66568374633789 46.92249298095703 C 45.508975982666016 42.484039306640625 48.83292007446289 37.48725891113281 50.52901077270508 37.36101531982422 C 51.510658264160156 35.287017822265625 49.80586624145508 37.92190933227539 48.61470413208008 41.55482864379883 C 47.875423431396484 46.825008392333984 52.048377990722656 50.99059295654297 56.98759460449219 54.7439079284668" stroke-width="1.183809757232666" fill="none" stroke="rgb(185, 185, 182)" stroke-opacity="0.065549746" stroke-linecap="round" stroke-linejoin="round"/>
    <path d="M 40.3128662109375 45.90319061279297 C 44.54551696777344 50.501399993896484 40.987857818603516 45.34877014160156 36.31719207763672 39.101318359375" stroke-width="1.5269414186477661" fill="none" stroke="rgb(153, 235, 225)" stroke-opacity="0.5946183" stroke-linecap="round" stroke-linejoin="round"/>
    <path d="M 18.40119743347168 48.7144889831543 C 20.01700782775879 49.5960693359375 21.381498336791992 49.5856819152832 23.124675750732422 51.62813949584961 C 24.968509674072266 53.71426773071289 27.36712646484375 57.68379592895508 29.61905288696289 63.22866439819336 C 31.471269607543945 68.1672592163086 33.717857360839844 63.04496383666992 36.064239501953125 57.54625701904297" stroke-width="1.6373662948608398" fill="none" stroke="rgb(177, 89, 91)" stroke-opacity="0.91367155" stroke-linecap="round" stroke-linejoin="round"/>
    <path d="M 37.96678924560547 69.53970336914062 C 37.773681640625 65.46173095703125 36.790626525878906 61.95507049560547 35.77913284301758 58.32840347290039 C 36.0572624206543 52.43673324584961 35.128971099853516 53.42719650268555 32.1698112487793 54.160423278808594" stroke-width="1.1667615175247192" fill="none" stroke="rgb(216, 28, 156)" stroke-opacity="0.24429642" stroke-linecap="round" stroke-linejoin="round"/>
    <path d="M 39.05427551269531 70.39018249511719 C 32.874088287353516 69.91387939453125 36.1783332824707 69.09253692626953 33.24545669555664 74.86075592041016" stroke-width="1.1590814590454102" fill="none" stroke="rgb(32, 53, 250)" stroke-opacity="0.7184725" stroke-linecap="round" stroke-linejoin="round"/>
    <path d="M 39.80038833618164 69.57852935791016 C 33.22404479980469 71.52965545654297 28.712154388427734 69.84004974365234 25.503076553344727 70.84275817871094" stroke-width="1.6892931461334229" fill="none" stroke="rgb(74, 44, 255)" stroke-opacity="0.8924173" stroke-linecap="round" stroke-linejoin="round"/>
    <path d="M 59.89666748046875 50.10597610473633 C 61.996315002441406 50.61161422729492 63.057132720947266 51.21711730957031 63.11994171142578 53.035675048828125 C 63.994598388671875 53.04697799682617 61.969276428222656 53.467185974121094 60.43877029418945 51.647300720214844" stroke-width="1.4988042116165161" fill="none" stroke="rgb(71, 33, 1)" stroke-opacity="0.9117108" stroke-linecap="round" stroke-linejoin="round"/>
    <path d="M 50.41465377807617 69.88867950439453 C 53.82827377319336 70.48176574707031 56.84239959716797 70.1146469116211 57.69902420043945 68.91063690185547 C 59.97922897338867 68.15775299072266 61.8775749206543 67.84761047363281 62.277591705322266 68.13267517089844 C 62.95277786254883 67.39004516601562 60.68087387084961 68.4028549194336 58.52727508544922 70.15373229980469" stroke-width="1.255114197731018" fill="none" stroke="rgb(184, 79, 124)" stroke-opacity="0.27251485" stroke-linecap="round" stroke-linejoin="round"/>
    <path d="M 97.5618896484375 119.6854476928711 C 95.14244842529297 120.67608642578125 92.17237091064453 121.79046630859375 87.39747619628906 121.38085174560547 C 84.10061645507812 122.40642547607422 87.64976501464844 119.44745635986328 90.0619888305664 115.69827270507812" stroke-width="1.113665223121643" fill="none" stroke="rgb(216, 191, 198)" stroke-opacity="0.79224646" stroke-linecap="round" stroke-linejoin="round"/>
    <path d="M 32.15383529663086 79.76517486572266 C 26.84843635559082 80.40559387207031 21.96788787841797 80.7799301147461 18.13848114013672 79.8864974975586 C 14.324423789978027 79.62290954589844 10.894185066223145 84.12908935546875 8.533482551574707 90.35890197753906" stroke-width="1.0892857313156128" fill="none" stroke="rgb(132, 110, 185)" stroke-opacity="0.7696695" stroke-linecap="round" stroke-linejoin="round"/>
    <path d="M 11.384895324707031 30.690357208251953 C 16.220199584960938 27.676237106323242 21.098323822021484 24.605966567993164 19.98024559020996 22.73763084411621 C 20.349767684936523 20.816490173339844 15.580243110656738 21.436050415039062 9.888696670532227 22.109233856201172 C 4.464090347290039 22.991413116455078 11.244955062866211 17.95123863220215 16.560754776000977 12.41897964477539" stroke-width="1.114432692527771" fill="none" stroke="rgb(213, 215, 244)" stroke-opacity="0.90201664" stroke-linecap="round" stroke-linejoin="round"/>
    <path d="M 11.421748161315918 94.6771469116211 C 16.012073516845703 93.71929931640625 20.662931442260742 91.68505859375 22.523923873901367 92.71454620361328 C 22.000669479370117 95.37821197509766 21.578697204589844 102.25579833984375 22.083986282348633 107.94734954833984 C 22.315793991088867 113.57176971435547 22.134977340698242 107.68067169189453 21.784317016601562 102.51407623291016" stroke-width="1.0892857313156128" fill="none" stroke="rgb(154, 0, 233)" stroke-opacity="0.54122883" stroke-linecap="round" stroke-linejoin="round"/>
    <path d="M 1.7798148393630981 85.74674987792969 C 0.7656428217887878 85.54643249511719 -2.046637773513794 91.56324005126953 -1.363035798072815 93.45414733886719" stroke-width="1.5780967473983765" fill="none" stroke="rgb(101, 195, 166)" stroke-opacity="0.34698936" stroke-linecap="round" stroke-linejoin="round"/>
    <path d="M 91.4709243774414 108.15582275390625 C 94.54874420166016 103.3174819946289 92.48670196533203 108.50402069091797 90.24835205078125 114.12626647949219" stroke-width="1.0892857313156128" fill="none" stroke="rgb(168, 31, 82)" stroke-opacity="0.17822318" stroke-linecap="round" stroke-linejoin="round"/>
    <path d="M 48.13997268676758 106.82182312011719 C 50.138641357421875 115.91766357421875 51.263267517089844 119.05683898925781 47.19314193725586 118.20137786865234" stroke-width="1.0892857313156128" fill="none" stroke="rgb(103, 77, 114)" stroke-opacity="0.4818069" stroke-linecap="round" stroke-linejoin="round"/>
    <path d="M 110.07807159423828 120.8880615234375 C 110.18362426757812 122.41590118408203 110.80934143066406 123.33776092529297 112.32823181152344 123.95386505126953 C 112.86188507080078 121.9989242553711 114.8763656616211 118.57158660888672 117.71554565429688 115.84185028076172 C 121.32870483398438 113.8880615234375 124.61892700195312 113.19013977050781 127.9045639038086 112.51165008544922" stroke-width="1.2425099611282349" fill="none" stroke="rgb(164, 19, 10)" stroke-opacity="0.0701333" stroke-linecap="round" stroke-linejoin="round"/>
    <path d="M 0.6279727220535278 16.92131996154785 C 6.904556751251221 11.130426406860352 7.4060468673706055 11.729350090026855 13.940670013427734 7.714071750640869" stroke-width="1.3171123266220093" fill="none" stroke="rgb(100, 0, 236)" stroke-opacity="0.34662342" stroke-linecap="round" stroke-linejoin="round"/>
    <path d="M 39.12371826171875 125.40772247314453 C 38.40439224243164 121.84322357177734 37.663333892822266 118.20626831054688 37.23652267456055 120.29361724853516 C 37.74249267578125 120.66509246826172 39.56291961669922 126.17514038085938 41.42266845703125 131.6392364501953 C 44.08470153808594 136.2996063232422 41.622737884521484 132.00277709960938 39.16199493408203 127.70594024658203" stroke-width="1.0892857313156128" fill="none" stroke="rgb(66, 233, 198)" stroke-opacity="0.12919396" stroke-linecap="round" stroke-linejoin="round"/>
    <path d="M 57.71215057373047 116.2803955078125 C 57.97871017456055 116.09423065185547 60.02793502807617 116.28675079345703 60.266109466552734 116.3721923828125 C 61.0771598815918 117.49300384521484 58.6738166809082 116.50614929199219 56.55070877075195 115.23296356201172" stroke-width="1.097303032875061" fill="none" stroke="rgb(231, 60, 35)" stroke-opacity="0.020259473" stroke-linecap="round" stroke-linejoin="round"/>
    <path d="M 5.664477348327637 122.59847259521484 C 4.318612098693848 116.4729995727539 8.052506446838379 114.2928695678711 5.404626846313477 107.79803466796875" stroke-width="1.268783450126648" fill="none" stroke="rgb(228, 38, 230)" stroke-opacity="0.4464772" stroke-linecap="round" stroke-linejoin="round"/>
    <path d="M 86.14937591552734 123.58890533447266 C 80.56237030029297 122.69026947021484 79.9947509765625 117.33634185791016 77.52742004394531 122.28857421875" stroke-width="1.0892857313156128" fill="none" stroke="rgb(2, 204, 46)" stroke-opacity="0.43352178" stroke-linecap="round" stroke-linejoin="round"/>
    <path d="M 110.33509826660156 77.4421157836914 C 113.52141571044922 77.73338317871094 115.20050811767578 76.16031646728516 117.80538940429688 77.71634674072266 C 119.08880615234375 77.13084411621094 114.15365600585938 73.06446838378906 108.87509155273438 68.45278930664062" stroke-width="1.261819839477539" fill="none" stroke="rgb(141, 220, 161)" stroke-opacity="0.4071365" stroke-linecap="round" stroke-linejoin="round"/>
    <path d="M 27.10384178161621 46.7910270690918 C 25.25757598876953 45.86067199707031 22.80127716064453 45.111671447753906 22.504289627075195 47.92546844482422 C 24.010732650756836 47.373172760009766 27.957698822021484 50.85144805908203 30.406124114990234 55.783050537109375 C 33.22787094116211 60.04357147216797 30.19702911376953 58.923770904541016 26.521299362182617 59.272830963134766" stroke-width="1.5054771900177002" fill="none" stroke="rgb(95, 47, 232)" stroke-opacity="0.36429358" stroke-linecap="round" stroke-linejoin="round"/>
    <path d="M 13.004273414611816 62.95417022705078 C 10.55675220489502 60.257469177246094 8.997626304626465 56.72380065917969 9.076176643371582 56.803218841552734 C 10.14555549621582 56.201637268066406 13.336691856384277 58.2828369140625 16.77585220336914 60.25846481323242 C 21.321475982666016 60.96048355102539 18.35124969482422 57.06336975097656 15.657062530517578 53.19510269165039" stroke-width="1.0892857313156128" fill="none" stroke="rgb(135, 68, 51)" stroke-opacity="0.02478222" stroke-linecap="round" stroke-linejoin="round"/>
    <path d="M 58.050079345703125 115.6494369506836 C 58.742733001708984 117.65241241455078 62.8923225402832 114.13343048095703 65.11270141601562 114.44580841064453" stroke-width="1.0892857313156128" fill="none" stroke="rgb(231, 166, 151)" stroke-opacity="0.5308212" stroke-linecap="round" stroke-linejoin="round"/>
    <path d="M 10.943087577819824 31.88140106201172 C 10.023601531982422 29.284650802612305 8.69843578338623 26.38383674621582 7.829388618469238 22.684343338012695 C 7.9991374015808105 17.850868225097656 7.621442794799805 20.35796356201172 6.580870151519775 21.83017921447754" stroke-width="1.1663366556167603" fill="none" stroke="rgb(0, 239, 8)" stroke-opacity="0.84026706" stroke-linecap="round" stroke-linejoin="round"/>
    <path d="M 16.692209243774414 12.7183198928833 C 19.06254768371582 12.471516609191895 20.52996826171875 12.073332786560059 19.098106384277344 8.732217788696289 C 16.876632690429688 7.440288066864014 13.04089641571045 4.14923620223999 8.752337455749512 1.3691186904907227 C 3.669299840927124 -0.6879374384880066 7.160401344299316 -5.73806095123291 10.666143417358398 -10.817699432373047" stroke-width="1.0892857313156128" fill="none" stroke="rgb(114, 94, 234)" stroke-opacity="0.74198884" stroke-linecap="round" stroke-linejoin="round"/>
    <path d="M 40.68822479248047 63.50212860107422 C 43.98738479614258 56.83305358886719 39.62765884399414 58.13298416137695 38.38985824584961 53.39213180541992" stroke-width="1.5024183988571167" fill="none" stroke="rgb(99, 50, 198)" stroke-opacity="0.79607767" stroke-linecap="round" stroke-linejoin="round"/>
    <path d="M 98.49336242675781 119.6268539428711 C 99.00707244873047 118.45923614501953 99.68631744384766 117.08634185791016 99.34817504882812 117.50955200195312 C 98.84061431884766 116.58329772949219 96.44184875488281 115.67404174804688 95.5732421875 113.17255401611328 C 93.55390167236328 111.9628677368164 90.4604721069336 109.45320129394531 87.22168731689453 107.00963592529297" stroke-width="1.0892857313156128" fill="none" stroke="rgb(249, 147, 224)" stroke-opacity="0.9358156" stroke-linecap="round" stroke-linejoin="round"/>
    <path d="M 17.52644920349121 51.11193084716797 C 13.39684009552002 51.141578674316406 17.531591415405273 56.7222785949707 15.648207664489746 51.842586517333984" stroke-width="1.0892857313156128" fill="none" stroke="rgb(214, 126, 199)" stroke-opacity="0.9679741" stroke-linecap="round" stroke-linejoin="round"/>
    <path d="M 28.506338119506836 58.96055603027344 C 29.567764282226562 62.337562561035156 30.469968795776367 58.59541702270508 29.59881019592285 54.93349075317383" stroke-width="1.096714973449707" fill="none" stroke="rgb(196, 17, 89)" stroke-opacity="0.06466985" stroke-linecap="round" stroke-linejoin="round"/>
    <path d="M 15.93004322052002 51.112789154052734 C 15.729512214660645 50.11434555053711 15.46539306640625 48.0633430480957 17.83781623840332 49.81998825073242 C 18.963926315307617 52.264312744140625 21.078508377075195 59.15591812133789 24.573287963867188 64.92544555664062 C 29.142799377441406 71.0669174194336 24.435874938964844 74.72361755371094 19.66775131225586 78.07032775878906" stroke-width="1.0892857313156128" fill="none" stroke="rgb(162, 147, 172)" stroke-opacity="0.44266173" stroke-linecap="round" stroke-linejoin="round"/>
    <path d="M 27.939809799194336 59.01636505126953 C 28.207889556884766 64.53154754638672 31.3505859375 67.02639770507812 28.662675857543945 68.08155059814453" stroke-width="1.307876467704773" fill="none" stroke="rgb(205, 49, 151)" stroke-opacity="0.8620533" stroke-linecap="round" stroke-linejoin="round"/>
    <path d="M 66.40912628173828 114.69598388671875 C 71.4349365234375 115.2086181640625 74.4864273071289 114.04362487792969 74.19646453857422 114.08810424804688 C 73.11149597167969 112.98615264892578 72.24921417236328 114.47073364257812 69.83090209960938 115.65349578857422 C 67.06051635742188 116.6460189819336 71.94780731201172 117.57987976074219 76.54513549804688 117.94078826904297" stroke-width="1.0892857313156128" fill="none" stroke="rgb(166, 145, 106)" stroke-opacity="0.70158756" stroke-linecap="round" stroke-linejoin="round"/>
    <path d="M 38.42384719848633 53.217010498046875 C 37.43745422363281 49.44956970214844 36.49723815917969 55.88509750366211 28.74614143371582 54.93729782104492" stroke-width="1.4841629266738892" fill="none" stroke="rgb(75, 83, 30)" stroke-opacity="0.68082094" stroke-linecap="round" stroke-linejoin="round"/>
    <path d="M 86.69691467285156 107.98910522460938 C 83.81160736083984 104.0735092163086 83.0091323852539 98.08743286132812 80.58428192138672 93.83580780029297 C 76.57302856445312 91.0526351928711 77.2955551147461 92.49170684814453 78.88726043701172 92.35874938964844" stroke-width="1.0892857313156128" fill="none" stroke="rgb(216, 140, 113)" stroke-opacity="0.1403693" stroke-linecap="round" stroke-linejoin="round"/>
    <path d="M 5.259981632232666 21.558822631835938 C 2.0623013973236084 23.07123565673828 7.018324851989746 23.21438217163086 11.270792961120605 25.824481964111328" stroke-width="1.6800072193145752" fill="none" stroke="rgb(0, 250, 249)" stroke-opacity="0.31514224" stroke-linecap="round" stroke-linejoin="round"/>
    <path d="M 16.20819091796875 52.36787796020508 C 20.3775691986084 50.0164680480957 17.934391021728516 48.830604553222656 20.012451171875 54.10591506958008" stroke-width="1.0892857313156128" fill="none" stroke="rgb(199, 243, 230)" stroke-opacity="0.5638652" stroke-linecap="round" stroke-linejoin="round"/>
    <path d="M 74.80265045166016 56.43842697143555 C 71.45155334472656 55.97956848144531 69.29034423828125 53.678550720214844 67.19580841064453 50.57315444946289 C 66.4939956665039 47.75617599487305 76.34764862060547 50.79329299926758 83.95695495605469 56.55083465576172" stroke-width="1.0892857313156128" fill="none" stroke="rgb(255, 116, 120)" stroke-opacity="0.7240196" stroke-linecap="round" stroke-linejoin="round"/>
    <path d="M 71.9251708984375 104.89451599121094 C 78.69296264648438 103.8706283569336 82.80072784423828 100.77029418945312 81.32648468017578 101.05894470214844" stroke-width="1.0892857313156128" fill="none" stroke="rgb(176, 132, 111)" stroke-opacity="0.94213706" stroke-linecap="round" stroke-linejoin="round"/>
    <path d="M 70.9701919555664 67.04309844970703 C 73.582275390625 71.69924926757812 79.23709106445312 69.63662719726562 75.43163299560547 70.50027465820312" stroke-width="1.2863578796386719" fill="none" stroke="rgb(7, 204, 124)" stroke-opacity="0.19218156" stroke-linecap="round" stroke-linejoin="round"/>
    <path d="M 27.619848251342773 108.85608673095703 C 25.427038192749023 109.0887680053711 26.10595703125 106.44764709472656 25.609922409057617 105.4588851928711 C 23.684242248535156 104.86428833007812 24.453760147094727 104.45198822021484 26.205623626708984 104.72245788574219" stroke-width="1.0892857313156128" fill="none" stroke="rgb(113, 243, 58)" stroke-opacity="0.4689544" stroke-linecap="round" stroke-linejoin="round"/>
    <path d="M 80.94420623779297 105.98080444335938 C 83.23654174804688 107.68209075927734 85.06420135498047 110.27311706542969 85.20203399658203 111.37837982177734 C 86.81916046142578 109.88338470458984 88.02332305908203 107.6997299194336 91.09794616699219 107.3294906616211 C 92.72293090820312 105.79075622558594 91.54779052734375 110.16688537597656 90.31597900390625 114.43202209472656" stroke-width="1.0892857313156128" fill="none" stroke="rgb(71, 109, 185)" stroke-opacity="0.3806687" stroke-linecap="round" stroke-linejoin="round"/>
    <path d="M 86.94062042236328 83.36833953857422 C 85.7735595703125 82.35888671875 81.80535125732422 83.49285888671875 79.19407653808594 83.3727798461914 C 77.0079574584961 80.67886352539062 74.76643371582031 85.42433166503906 71.88143920898438 91.8297119140625" stroke-width="1.3409125804901123" fill="none" stroke="rgb(98, 30, 248)" stroke-opacity="0.57574946" stroke-linecap="round" stroke-linejoin="round"/>
    <path d="M 58.51418685913086 15.019302368164062 C 60.11442565917969 11.277520179748535 58.365474700927734 8.403590202331543 63.112266540527344 4.978259563446045" stroke-width="1.0892857313156128" fill="none" stroke="rgb(30, 157, 122)" stroke-opacity="0.3108665" stroke-linecap="round" stroke-linejoin="round"/>
    <path d="M -0.39044392108917236 48.77024459838867 C 2.047456741333008 51.80799102783203 3.990276575088501 55.35951614379883 7.075404644012451 58.20893859863281 C 10.07252311706543 62.153011322021484 9.390419960021973 58.638824462890625 8.469590187072754 54.676422119140625" stroke-width="1.0892857313156128" fill="none" stroke="rgb(149, 142, 83)" stroke-opacity="0.48058832" stroke-linecap="round" stroke-linejoin="round"/>
    <path d="M 29.6846866607666 17.069059371948242 C 33.431331634521484 12.979007720947266 37.84629821777344 9.837288856506348 40.941986083984375 6.249487400054932 C 46.73057556152344 4.048373699188232 40.5878791809082 5.728484630584717 32.290157318115234 6.1177520751953125" stroke-width="1.2302746772766113" fill="none" stroke="rgb(76, 47, 69)" stroke-opacity="0.82956135" stroke-linecap="round" stroke-linejoin="round"/>
    <path d="M 70.82295227050781 117.71646118164062 C 68.60084533691406 114.56116485595703 65.45286560058594 112.67984771728516 72.65522766113281 110.07896423339844" stroke-width="1.1500182151794434" fill="none" stroke="rgb(44, 247, 92)" stroke-opacity="0.68104035" stroke-linecap="round" stroke-linejoin="round"/>
    <path d="M 1.998977541923523 105.1546859741211 C 7.204811096191406 104.30058288574219 9.562189102172852 100.49329376220703 13.93883991241455 98.54818725585938 C 19.72832679748535 98.19979095458984 13.062967300415039 103.5595703125 6.411592483520508 108.95801544189453" stroke-width="1.0892857313156128" fill="none" stroke="rgb(246, 32, 14)" stroke-opacity="0.103107646" stroke-linecap="round" stroke-linejoin="round"/>
    <path d="M 84.85771942138672 84.1432876586914 C 84.31968688964844 89.01628875732422 82.8819808959961 93.08918762207031 79.45624542236328 94.64940643310547 C 78.20159149169922 96.68972778320312 75.55348205566406 95.23185729980469 72.68382263183594 94.19172668457031 C 71.46415710449219 91.8865737915039 76.11463165283203 94.62165832519531 81.93641662597656 96.224853515625" stroke-width="1.6229193210601807" fill="none" stroke="rgb(44, 255, 253)" stroke-opacity="0.97400904" stroke-linecap="round" stroke-linejoin="round"/>
    <path d="M 6.005464553833008 61.7156982421875 C 1.7314156293869019 59.44036102294922 -0.33371204137802124 56.499698638916016 -1.7333149909973145 52.57501983642578 C -5.9170002937316895 51.56818389892578 -6.121960163116455 49.70036315917969 -6.3269195556640625 47.83253860473633" stroke-width="1.0892857313156128" fill="none" stroke="rgb(114, 41, 206)" stroke-opacity="0.95654243" stroke-linecap="round" stroke-linejoin="round"/>
    <path d="M 83.95956420898438 51.5438117980957 C 85.45175170898438 49.43562316894531 86.01791381835938 47.25090026855469 86.02207946777344 44.18434143066406 C 88.3716049194336 43.77887725830078 96.19432830810547 43.47327423095703 102.03300476074219 43.73386001586914" stroke-width="1.0892857313156128" fill="none" stroke="rgb(74, 64, 167)" stroke-opacity="0.25157022" stroke-linecap="round" stroke-linejoin="round"/>
    <path d="M 96.92066192626953 57.003231048583984 C 98.75228881835938 58.638275146484375 98.8499526977539 60.78511047363281 98.7855453491211 64.76846313476562 C 97.24376678466797 66.86249542236328 100.66570281982422 67.66471099853516 103.13755798339844 70.28669738769531" stroke-width="1.1081364154815674" fill="none" stroke="rgb(35, 35, 115)" stroke-opacity="0.005458952" stroke-linecap="round" stroke-linejoin="round"/>
    <path d="M 5.022150993347168 60.93571472167969 C -1.0531436204910278 63.06306457519531 -3.9518299102783203 67.050537109375 -1.3112753629684448 62.27024841308594" stroke-width="1.0892857313156128" fill="none" stroke="rgb(49, 9, 224)" stroke-opacity="0.9748122" stroke-linecap="round" stroke-linejoin="round"/>
    <path d="M 16.953062057495117 51.34498596191406 C 20.460914611816406 48.10927200317383 24.265804290771484 45.00249481201172 25.93073844909668 49.37962341308594" stroke-width="1.4473472833633423" fill="none" stroke="rgb(121, 157, 133)" stroke-opacity="0.93918556" stroke-linecap="round" stroke-linejoin="round"/>
    <path d="M 17.326826095581055 48.90044021606445 C 23.650959014892578 46.758689880371094 19.086013793945312 52.46096420288086 21.4202823638916 47.285308837890625" stroke-width="1.0892857313156128" fill="none" stroke="rgb(3, 30, 25)" stroke-opacity="0.5977253" stroke-linecap="round" stroke-linejoin="round"/>
    <path d="M 40.095401763916016 63.75148010253906 C 39.8526496887207 63.334014892578125 35.938045501708984 65.96985626220703 31.422643661499023 61.78204345703125 C 30.456771850585938 58.603450775146484 28.269174575805664 59.9565544128418 26.260906219482422 56.24452590942383 C 24.62401008605957 52.274085998535156 19.952844619750977 52.07327651977539 21.70355224609375 48.378353118896484" stroke-width="1.0892857313156128" fill="none" stroke="rgb(72, 77, 255)" stroke-opacity="0.90889007" stroke-linecap="round" stroke-linejoin="round"/>
    <path d="M 36.96284866333008 70.671142578125 C 33.710506439208984 68.61566925048828 35.09587860107422 69.07247924804688 38.50891876220703 70.91255187988281" stroke-width="1.0892857313156128" fill="none" stroke="rgb(235, 185, 56)" stroke-opacity="0.8869402" stroke-linecap="round" stroke-linejoin="round"/>
    <path d="M 73.32646179199219 94.87566375732422 C 71.38385009765625 97.98175048828125 75.7855453491211 99.3870849609375 72.44940948486328 102.30200958251953 C 77.13612365722656 106.40310668945312 80.13426971435547 107.0002212524414 83.06224060058594 108.17459106445312 C 83.71327209472656 111.67300415039062 85.30120086669922 114.7779769897461 80.90739440917969 110.2904281616211" stroke-width="1.31996488571167" fill="none" stroke="rgb(192, 239, 240)" stroke-opacity="0.011690936" stroke-linecap="round" stroke-linejoin="round"/>
    <path d="M 42.25071716308594 46.98970413208008 C 40.30473327636719 51.7579345703125 35.9190559387207 52.63704299926758 40.80710220336914 52.236080169677734 C 45.58530044555664 55.38332748413086 49.974693298339844 50.101924896240234 50.98182678222656 53.31760787963867" stroke-width="1.0892857313156128" fill="none" stroke="rgb(22, 113, 73)" stroke-opacity="0.5489261" stroke-linecap="round" stroke-linejoin="round"/>
    <path d="M 70.38795471191406 91.15975952148438 C 71.61422729492188 95.54277038574219 71.77269744873047 93.73506927490234 72.031005859375 94.84729766845703" stroke-width="1.2001817226409912" fill="none" stroke="rgb(244, 226, 43)" stroke-opacity="0.7168031" stroke-linecap="round" stroke-linejoin="round"/>
    <path d="M 39.31659698486328 59.42043685913086 C 33.680442810058594 58.9788703918457 35.890865325927734 60.24232864379883 34.64485168457031 61.93187713623047 C 33.958152770996094 60.8167724609375 29.425460815429688 63.34352493286133 23.8907470703125 60.4143180847168" stroke-width="1.0892857313156128" fill="none" stroke="rgb(84, 232, 104)" stroke-opacity="0.37213588" stroke-linecap="round" stroke-linejoin="round"/>
    <path d="M 25.93790054321289 60.4403076171875 C 30.351930618286133 55.89963150024414 33.113319396972656 50.44379806518555 37.163909912109375 45.39976119995117 C 35.695377349853516 46.63397216796875 35.5034294128418 46.11140441894531 39.97139358520508 49.65974426269531 C 42.9384765625 52.00094985961914 46.00159454345703 55.99995422363281 49.97873306274414 52.722286224365234" stroke-width="1.239900827407837" fill="none" stroke="rgb(81, 39, 165)" stroke-opacity="0.48192483" stroke-linecap="round" stroke-linejoin="round"/>
    <path d="M 25.01231575012207 49.132102966308594 C 26.37797737121582 47.76720428466797 28.929471969604492 43.10231018066406 33.39759063720703 49.25773239135742 C 29.342424392700195 44.50228500366211 26.766693115234375 41.093441009521484 23.003095626831055 39.30917739868164" stroke-width="1.4701710939407349" fill="none" stroke="rgb(147, 191, 189)" stroke-opacity="0.45403728" stroke-linecap="round" stroke-linejoin="round"/>
    <path d="M 72.31661224365234 93.37319946289062 C 76.62126159667969 87.3700942993164 81.26915740966797 87.16323852539062 84.84724426269531 85.08185577392578 C 84.55033111572266 88.15415954589844 82.04866027832031 93.10279083251953 83.99251556396484 93.93575286865234 C 82.38983917236328 87.00794982910156 80.26721954345703 86.9459457397461 84.61620330810547 93.13082885742188" stroke-width="1.0892857313156128" fill="none" stroke="rgb(177, 210, 190)" stroke-opacity="0.36494946" stroke-linecap="round" stroke-linejoin="round"/>
    <path d="M 23.7972469329834 59.563507080078125 C 23.073148727416992 54.25360870361328 27.648527145385742 55.2473258972168 25.57900047302246 57.800743103027344 C 20.119720458984375 57.62822341918945 21.631603240966797 57.28569793701172 23.937318801879883 59.09685134887695 C 21.731708526611328 58.27906799316406 20.4781551361084 56.714908599853516 20.28354263305664 57.625728607177734" stroke-width="1.0892857313156128" fill="none" stroke="rgb(109, 69, 121)" stroke-opacity="0.36696118" stroke-linecap="round" stroke-linejoin="round"/>
    <path d="M 25.395862579345703 59.64247512817383 C 28.756832122802734 62.05364990234375 27.138729095458984 62.00454330444336 29.201875686645508 57.17149353027344 C 32.52445602416992 55.4592399597168 32.7027587890625 58.152740478515625 32.87016677856445 53.485443115234375 C 27.290985107421875 49.7631721496582 23.899133682250977 55.10333251953125 21.412221908569336 54.0419921875" stroke-width="1.0892857313156128" fill="none" stroke="rgb(55, 205, 100)" stroke-opacity="0.30480734" stroke-linecap="round" stroke-linejoin="round"/>
    <path d="M 21.720510482788086 49.657344818115234 C 22.909250259399414 43.772769927978516 25.785581588745117 43.653377532958984 32.1336669921875 38.41081619262695" stroke-width="1.2414997816085815" fill="none" stroke="rgb(181, 200, 146)" stroke-opacity="0.62839067" stroke-linecap="round" stroke-linejoin="round"/>
    <path d="M 79.88605499267578 109.81745910644531 C 83.58330535888672 105.43695068359375 87.1641616821289 110.29390716552734 93.20635223388672 106.06107330322266" stroke-width="1.0892857313156128" fill="none" stroke="rgb(85, 15, 235)" stroke-opacity="0.2285192" stroke-linecap="round" stroke-linejoin="round"/>
    <path d="M 22.432147979736328 49.824214935302734 C 21.92336082458496 45.98407745361328 25.33687973022461 39.04200744628906 19.02537727355957 34.72307205200195 C 20.48092269897461 34.26780319213867 25.983346939086914 29.794828414916992 28.15434455871582 29.57101058959961 C 26.716564178466797 30.89684295654297 22.698034286499023 30.513532638549805 24.363235473632812 27.057788848876953" stroke-width="1.4474871158599854" fill="none" stroke="rgb(207, 57, 133)" stroke-opacity="0.39743024" stroke-linecap="round" stroke-linejoin="round"/>
    <path d="M 120.31507110595703 27.4201717376709 C 119.1408920288086 25.72223663330078 120.19388580322266 28.989213943481445 122.33197784423828 32.35258865356445 C 128.93057250976562 32.55751419067383 132.0518341064453 26.647659301757812 128.0382080078125 32.337547302246094 C 124.13481903076172 33.7598762512207 123.85951232910156 29.648977279663086 128.72463989257812 27.912782669067383" stroke-width="1.0892857313156128" fill="none" stroke="rgb(15, 100, 173)" stroke-opacity="0.2985961" stroke-linecap="round" stroke-linejoin="round"/>
    <path d="M 32.13804626464844 119.96463012695312 C 39.88908767700195 123.54108428955078 34.09640884399414 117.85176086425781 39.34675598144531 114.47355651855469 C 43.49063491821289 121.19902038574219 44.44981002807617 122.52677917480469 41.201210021972656 123.37236022949219 C 44.29450988769531 126.19020080566406 49.85484313964844 129.49412536621094 49.268943786621094 126.40582275390625" stroke-width="1.0999757051467896" fill="none" stroke="rgb(194, 59, 92)" stroke-opacity="0.09961544" stroke-linecap="round" stroke-linejoin="round"/>
    <path d="M 118.51386260986328 73.91239166259766 C 115.96044921875 68.31877899169922 110.65277862548828 62.669673919677734 107.60697937011719 61.448516845703125" stroke-width="1.0892857313156128" fill="none" stroke="rgb(17, 92, 67)" stroke-opacity="0.37618113" stroke-linecap="round" stroke-linejoin="round"/>
    <path d="M 39.417789459228516 12.786215782165527 C 39.33434295654297 9.590198516845703 37.77771759033203 10.925763130187988 40.67444610595703 9.801139831542969" stroke-width="1.2779055833816528" fill="none" stroke="rgb(193, 201, 149)" stroke-opacity="0.43481717" stroke-linecap="round" stroke-linejoin="round"/>
    <path d="M 58.57062530517578 46.05191421508789 C 59.862815856933594 48.51537322998047 62.068138122558594 51.366634368896484 60.85811233520508 56.95009994506836 C 56.09421920776367 54.03398132324219 55.74922180175781 57.497188568115234 59.97133255004883 60.89097213745117" stroke-width="1.1875817775726318" fill="none" stroke="rgb(202, 14, 192)" stroke-opacity="0.27534273" stroke-linecap="round" stroke-linejoin="round"/>
    <path d="M 39.851497650146484 75.24128723144531 C 38.77880859375 76.2562484741211 39.00914001464844 69.6801528930664 38.61687469482422 68.03250885009766 C 41.27825927734375 74.60376739501953 36.13774871826172 70.08373260498047 30.34656524658203 65.5558090209961 C 34.4037971496582 65.57695770263672 27.397552490234375 66.4878921508789 25.355575561523438 64.75403594970703" stroke-width="1.0892857313156128" fill="none" stroke="rgb(23, 120, 75)" stroke-opacity="0.47382277" stroke-linecap="round" stroke-linejoin="round"/>
    <path d="M 22.666215896606445 18.690149307250977 C 21.311199188232422 12.681374549865723 25.323293685913086 10.05344295501709 19.392784118652344 12.904804229736328" stroke-width="1.0892857313156128" fill="none" stroke="rgb(7, 209, 44)" stroke-opacity="0.84315455" stroke-linecap="round" stroke-linejoin="round"/>
    <path d="M 121.38024139404297 117.73914337158203 C 120.1277084350586 112.40914154052734 126.09918212890625 112.62458801269531 120.0794448852539 108.23464965820312 C 115.5589370727539 114.15567779541016 120.96615600585938 114.72372436523438 127.36187744140625 120.90025329589844" stroke-width="1.4975711107254028" fill="none" stroke="rgb(252, 87, 196)" stroke-opacity="0.050216135" stroke-linecap="round" stroke-linejoin="round"/>
    <path d="M 84.34961700439453 95.1492691040039 C 80.14371490478516 96.71603393554688 77.8831558227539 100.08794403076172 81.86195373535156 107.01669311523438 C 84.37954711914062 112.7657241821289 89.22299194335938 110.14360809326172 82.28173065185547 114.96651458740234 C 84.15687561035156 115.32630920410156 83.404541015625 111.4552993774414 84.89549255371094 111.41007995605469" stroke-width="1.1186109781265259" fill="none" stroke="rgb(199, 213, 203)" stroke-opacity="1.0" stroke-linecap="round" stroke-linejoin="round"/>
    <path d="M 120.05450439453125 66.484619140625 C 125.39796447753906 66.3955078125 120.08775329589844 70.03738403320312 120.02748107910156 75.81220245361328" stroke-width="1.0892857313156128" fill="none" stroke="rgb(227, 143, 112)" stroke-opacity="0.889012" stroke-linecap="round" stroke-linejoin="round"/>
    <path d="M 94.70194244384766 107.5906982421875 C 95.4501724243164 110.08155059814453 92.4673080444336 108.12699127197266 92.35845184326172 108.98001098632812 C 90.06082916259766 107.09033966064453 96.55294799804688 105.06187438964844 96.89350891113281 109.83425903320312 C 102.64085388183594 103.83671569824219 108.34207916259766 109.5105209350586 108.49076080322266 108.15130615234375" stroke-width="1.0892857313156128" fill="none" stroke="rgb(234, 188, 255)" stroke-opacity="0.25186637" stroke-linecap="round" stroke-linejoin="round"/>
    <path d="M 10.706851959228516 96.01930236816406 C 12.891939163208008 96.92279815673828 13.265962600708008 95.03473663330078 14.224627494812012 93.97381591796875 C 11.414953231811523 99.00775909423828 8.011568069458008 97.63208770751953 8.33492374420166 103.6204605102539 C 8.927492141723633 104.22392272949219 16.663583755493164 106.31085205078125 16.46430206298828 100.79496002197266" stroke-width="1.0892857313156128" fill="none" stroke="rgb(147, 150, 183)" stroke-opacity="0.7622686" stroke-linecap="round" stroke-linejoin="round"/>
    <path d="M 109.67654418945312 32.419803619384766 C 106.81751251220703 32.421043395996094 107.751220703125 29.623075485229492 108.37230682373047 29.610864639282227 C 109.32809448242188 28.853857040405273 105.21910858154297 24.97642707824707 108.60103607177734 27.968809127807617 C 109.51048278808594 29.194915771484375 105.84127044677734 30.207456588745117 109.0086441040039 36.71754455566406" stroke-width="1.0892857313156128" fill="none" stroke="rgb(201, 38, 90)" stroke-opacity="0.15213768" stroke-linecap="round" stroke-linejoin="round"/>
    <path d="M 89.15791320800781 5.925106048583984 C 96.9611587524414 5.183725357055664 93.37934875488281 2.5818440914154053 95.0842514038086 4.307376384735107 C 101.85195922851562 2.1925253868103027 98.09963989257812 3.661742687225342 95.98522186279297 4.002413272857666" stroke-width="1.0892857313156128" fill="none" stroke="rgb(211, 108, 122)" stroke-opacity="0.91101533" stroke-linecap="round" stroke-linejoin="round"/>
    <path d="M 8.372700691223145 1.0715852975845337 C 3.0991430282592773 2.6898140907287598 4.889410018920898 4.452618598937988 10.315152168273926 3.8487472534179688 C 8.80921459197998 3.9593048095703125 6.3926897048950195 3.4073338508605957 12.076881408691406 7.7538323402404785 C 11.81415843963623 5.551619052886963 11.8373384475708 9.241212844848633 13.705007553100586 14.77546215057373" stroke-width="1.0892857313156128" fill="none" stroke="rgb(235, 207, 91)" stroke-opacity="0.14196366" stroke-linecap="round" stroke-linejoin="round"/>
    <path d="M 118.95999145507812 102.31378173828125 C 121.72517395019531 101.16565704345703 117.21565246582031 105.2364273071289 112.5344467163086 106.24617004394531 C 116.27690124511719 111.21973419189453 119.32610321044922 115.56790161132812 116.85930633544922 112.95780944824219 C 116.46187591552734 113.64395904541016 116.59882354736328 118.00130462646484 113.46012115478516 119.39383697509766" stroke-width="1.0892857313156128" fill="none" stroke="rgb(136, 188, 115)" stroke-opacity="0.5341259" stroke-linecap="round" stroke-linejoin="round"/>
  </g>
</svg>
