<?xml version="1.0" ?>
<svg xmlns="http://www.w3.org/2000/svg" version="1.1" width="956.0" height="956.0">
  <defs/>
  <g>
    <path d="M 39.63767623901367 76.25443267822266 C 67.46300506591797 85.29156494140625 95.90738677978516 82.03527069091797 96.2337417602539 77.83724212646484 C 97.40333557128906 73.57999420166016 67.39753723144531 63.26471710205078 44.401432037353516 71.56228637695312" stroke-width="1.2942900657653809" fill="none" stroke="rgb(89, 93, 79)" stroke-opacity="1.0" stroke-linecap="round" stroke-linejoin="round"/>
    <path d="M 70.11441040039062 76.41051483154297 C 68.45178985595703 62.25636672973633 67.67552185058594 46.360931396484375 70.13005828857422 31.144662857055664" stroke-width="1.1892671585083008" fill="none" stroke="rgb(167, 114, 23)" stroke-opacity="0.9805186" stroke-linecap="round" stroke-linejoin="round"/>
    <path d="M 69.56137084960938 49.385887145996094 C 76.23692321777344 46.17890548706055 80.65164184570312 46.163902282714844 82.26085662841797 46.5084342956543" stroke-width="1.1892671585083008" fill="none" stroke="rgb(162, 108, 23)" stroke-opacity="0.9941648" stroke-linecap="round" stroke-linejoin="round"/>
    <path d="M 67.18994140625 57.815059661865234 C 58.108516693115234 54.239810943603516 59.126007080078125 46.53416061401367 53.890037536621094 46.15570068359375" stroke-width="1.307247281074524" fill="none" stroke="rgb(169, 108, 14)" stroke-opacity="1.0" stroke-linecap="round" stroke-linejoin="round"/>
    <path d="M 70.91096496582031 30.030906677246094 C 70.35845184326172 22.69085121154785 77.1148452758789 19.367401123046875 79.65479278564453 18.14588737487793" stroke-width="1.1892671585083008" fill="none" stroke="rgb(169, 110, 23)" stroke-opacity="0.98020357" stroke-linecap="round" stroke-linejoin="round"/>
    <path d="M 69.37525177001953 30.895654678344727 C 65.1624755859375 25.180278778076172 64.0279541015625 23.6650390625 61.026466369628906 23.620241165161133" stroke-width="1.2319103479385376" fill="none" stroke="rgb(169, 108, 14)" stroke-opacity="1.0" stroke-linecap="round" stroke-linejoin="round"/>
    <path d="M 62.10176467895508 23.514978408813477 C 62.1513557434082 23.422460556030273 62.680152893066406 20.232940673828125 61.97439956665039 19.49751091003418 C 60.49610137939453 19.587432861328125 59.98014450073242 18.092031478881836 58.85560989379883 18.097091674804688" stroke-width="1.1892671585083008" fill="none" stroke="rgb(168, 118, 23)" stroke-opacity="0.9814837" stroke-linecap="round" stroke-linejoin="round"/>
    <path d="M 62.20232009887695 23.606369018554688 C 53.89936828613281 24.624736785888672 53.67058181762695 25.052026748657227 54.31391143798828 25.65398597717285" stroke-width="1.3064322471618652" fill="none" stroke="rgb(169, 108, 20)" stroke-opacity="1.0" stroke-linecap="round" stroke-linejoin="round"/>
    <path d="M 82.31212615966797 45.35028076171875 C 82.31201934814453 45.36311721801758 81.78972625732422 43.79391098022461 81.36121368408203 42.41956329345703 C 82.10042572021484 41.76966857910156 83.44491577148438 41.15054702758789 83.37036895751953 41.480934143066406" stroke-width="1.3003584146499634" fill="none" stroke="rgb(165, 109, 13)" stroke-opacity="1.0" stroke-linecap="round" stroke-linejoin="round"/>
    <path d="M 81.90678405761719 45.7152214050293 C 88.24227905273438 48.73092269897461 88.85475158691406 49.0162353515625 89.7490005493164 49.530433654785156" stroke-width="1.1892671585083008" fill="none" stroke="rgb(169, 109, 24)" stroke-opacity="0.9801327" stroke-linecap="round" stroke-linejoin="round"/>
    <path d="M 79.7934799194336 18.499652862548828 C 79.6777572631836 18.492008209228516 81.97431945800781 19.282371520996094 83.68863677978516 18.42062759399414 C 84.50892639160156 18.215185165405273 85.5283203125 19.098159790039062 85.61988067626953 18.98728370666504" stroke-width="1.3072093725204468" fill="none" stroke="rgb(159, 108, 23)" stroke-opacity="1.0" stroke-linecap="round" stroke-linejoin="round"/>
    <path d="M 69.1162109375 30.24818229675293 C 69.16651916503906 30.2769775390625 71.09687042236328 27.670930862426758 72.06000518798828 27.20876121520996 C 73.2591323852539 27.70355987548828 75.07872772216797 28.45489501953125 75.59880828857422 27.834848403930664" stroke-width="1.1892671585083008" fill="none" stroke="rgb(159, 108, 24)" stroke-opacity="1.0" stroke-linecap="round" stroke-linejoin="round"/>
    <path d="M 80.42182159423828 18.567930221557617 C 81.0901870727539 10.590825080871582 74.84795379638672 14.007502555847168 74.67179107666016 14.307851791381836" stroke-width="1.3073320388793945" fill="none" stroke="rgb(165, 108, 23)" stroke-opacity="1.0" stroke-linecap="round" stroke-linejoin="round"/>
    <path d="M 67.30281829833984 40.6619758605957 C 66.13260650634766 41.766273498535156 65.91170501708984 39.22295379638672 65.16295623779297 38.54704666137695 C 64.42207336425781 37.88862228393555 63.28315353393555 37.072471618652344 64.11621856689453 37.083984375" stroke-width="1.1892671585083008" fill="none" stroke="rgb(168, 109, 23)" stroke-opacity="0.98133135" stroke-linecap="round" stroke-linejoin="round"/>
    <path d="M 54.41596221923828 46.568519592285156 C 54.74491882324219 46.924591064453125 55.27206802368164 43.64374542236328 54.56797790527344 42.956993103027344 C 52.64153289794922 43.45393371582031 51.48406982421875 42.64400100708008 51.48282241821289 42.644161224365234" stroke-width="1.1892671585083008" fill="none" stroke="rgb(169, 108, 23)" stroke-opacity="0.98201305" stroke-linecap="round" stroke-linejoin="round"/>
    <path d="M 54.277008056640625 46.56280517578125 C 48.53120422363281 51.61458206176758 46.96654510498047 50.067283630371094 47.29255676269531 50.16384506225586" stroke-width="1.1892671585083008" fill="none" stroke="rgb(169, 108, 23)" stroke-opacity="0.9818698" stroke-linecap="round" stroke-linejoin="round"/>
    <path d="M 44.52589797973633 49.80472183227539 C 43.46640396118164 52.713836669921875 40.981040954589844 56.790321350097656 39.30248260498047 57.749542236328125" stroke-width="1.1892671585083008" fill="none" stroke="rgb(32, 133, 12)" stroke-opacity="0.98000586" stroke-linecap="round" stroke-linejoin="round"/>
    <path d="M 44.529266357421875 49.84994888305664 C 36.991085052490234 51.99864196777344 39.037906646728516 56.642757415771484 39.478885650634766 56.75322723388672" stroke-width="1.3083209991455078" fill="none" stroke="rgb(23, 123, 9)" stroke-opacity="1.0" stroke-linecap="round" stroke-linejoin="round"/>
    <path d="M 46.833091735839844 50.58788299560547 C 41.8288459777832 53.882537841796875 39.687164306640625 55.349300384521484 39.61257553100586 57.60298538208008" stroke-width="1.1892671585083008" fill="none" stroke="rgb(84, 234, 47)" stroke-opacity="1.0" stroke-linecap="round" stroke-linejoin="round"/>
    <path d="M 44.53290939331055 49.465850830078125 C 42.78231430053711 50.541107177734375 37.82937240600586 50.78355026245117 35.82011032104492 49.3461799621582" stroke-width="1.1892671585083008" fill="none" stroke="rgb(24, 131, 15)" stroke-opacity="1.0" stroke-linecap="round" stroke-linejoin="round"/>
    <path d="M 45.68035888671875 48.29031753540039 C 39.124977111816406 43.950897216796875 36.475582122802734 49.19504928588867 35.811283111572266 49.299659729003906" stroke-width="1.1892671585083008" fill="none" stroke="rgb(24, 133, 13)" stroke-opacity="0.98182285" stroke-linecap="round" stroke-linejoin="round"/>
    <path d="M 47.160804748535156 49.0858039855957 C 43.597476959228516 47.20016860961914 37.700504302978516 47.43644332885742 35.946571350097656 48.22821044921875" stroke-width="1.297882318496704" fill="none" stroke="rgb(90, 235, 50)" stroke-opacity="1.0" stroke-linecap="round" stroke-linejoin="round"/>
    <path d="M 51.92493438720703 24.850189208984375 C 49.059383392333984 26.010784149169922 44.810791015625 27.337135314941406 43.100162506103516 25.839296340942383" stroke-width="1.1892671585083008" fill="none" stroke="rgb(23, 133, 19)" stroke-opacity="0.98019314" stroke-linecap="round" stroke-linejoin="round"/>
    <path d="M 53.07599639892578 24.849992752075195 C 45.440460205078125 21.676204681396484 43.122955322265625 24.89610481262207 43.1356086730957 25.87529754638672" stroke-width="1.1892671585083008" fill="none" stroke="rgb(24, 133, 19)" stroke-opacity="0.9825734" stroke-linecap="round" stroke-linejoin="round"/>
    <path d="M 54.68404769897461 25.61003875732422 C 48.17226791381836 23.944568634033203 45.60157012939453 24.09718132019043 43.42286682128906 25.205936431884766" stroke-width="1.300009846687317" fill="none" stroke="rgb(85, 235, 55)" stroke-opacity="1.0" stroke-linecap="round" stroke-linejoin="round"/>
    <path d="M 53.311370849609375 27.551694869995117 C 52.57365417480469 30.471757888793945 50.238525390625 34.13336181640625 48.45814895629883 35.386024475097656" stroke-width="1.2623213529586792" fill="none" stroke="rgb(23, 133, 19)" stroke-opacity="0.9900609" stroke-linecap="round" stroke-linejoin="round"/>
    <path d="M 53.30986404418945 27.828205108642578 C 46.316162109375 31.6274356842041 48.69847869873047 35.7366943359375 48.209083557128906 35.95149612426758" stroke-width="1.2672233581542969" fill="none" stroke="rgb(24, 123, 15)" stroke-opacity="1.0" stroke-linecap="round" stroke-linejoin="round"/>
    <path d="M 54.75172424316406 25.994150161743164 C 49.91041946411133 30.34522819519043 49.009151458740234 32.79489517211914 49.48973083496094 34.846824645996094" stroke-width="1.303375005722046" fill="none" stroke="rgb(84, 233, 45)" stroke-opacity="1.0" stroke-linecap="round" stroke-linejoin="round"/>
    <path d="M 50.112953186035156 41.78738021850586 C 48.32200622558594 44.27968978881836 44.280235290527344 45.727149963378906 40.817970275878906 44.934906005859375" stroke-width="1.2842763662338257" fill="none" stroke="rgb(24, 133, 10)" stroke-opacity="1.0" stroke-linecap="round" stroke-linejoin="round"/>
    <path d="M 49.67420959472656 41.28749465942383 C 43.2934684753418 38.97345733642578 41.93444061279297 44.70552062988281 40.85234069824219 44.93986129760742" stroke-width="1.303309440612793" fill="none" stroke="rgb(23, 132, 18)" stroke-opacity="0.9903328" stroke-linecap="round" stroke-linejoin="round"/>
    <path d="M 51.496620178222656 41.52560043334961 C 45.44633865356445 41.510345458984375 43.06928634643555 42.45315933227539 42.34377670288086 43.7110595703125" stroke-width="1.1892671585083008" fill="none" stroke="rgb(86, 235, 53)" stroke-opacity="0.9840586" stroke-linecap="round" stroke-linejoin="round"/>
    <path d="M 50.512229919433594 41.10435485839844 C 47.46079635620117 40.49409484863281 44.717018127441406 37.516990661621094 44.030548095703125 35.098045349121094" stroke-width="1.1892671585083008" fill="none" stroke="rgb(24, 133, 19)" stroke-opacity="0.9810957" stroke-linecap="round" stroke-linejoin="round"/>
    <path d="M 50.52217483520508 40.387969970703125 C 48.2918815612793 33.15350341796875 43.97566604614258 35.15237045288086 43.94183349609375 35.95895004272461" stroke-width="1.285707712173462" fill="none" stroke="rgb(23, 131, 18)" stroke-opacity="0.99556303" stroke-linecap="round" stroke-linejoin="round"/>
    <path d="M 51.130210876464844 41.61640548706055 C 47.482933044433594 37.691898345947266 44.83030700683594 36.276458740234375 42.91810607910156 35.68867874145508" stroke-width="1.3081450462341309" fill="none" stroke="rgb(85, 234, 55)" stroke-opacity="1.0" stroke-linecap="round" stroke-linejoin="round"/>
    <path d="M 58.20415496826172 18.979413986206055 C 55.3192253112793 19.646190643310547 50.61980438232422 21.250625610351562 48.43973922729492 21.428564071655273" stroke-width="1.1892671585083008" fill="none" stroke="rgb(25, 133, 11)" stroke-opacity="0.999591" stroke-linecap="round" stroke-linejoin="round"/>
    <path d="M 58.170291900634766 17.831398010253906 C 49.55057144165039 15.509909629821777 48.16534423828125 20.118473052978516 48.283451080322266 21.054458618164062" stroke-width="1.2772562503814697" fill="none" stroke="rgb(23, 132, 18)" stroke-opacity="0.9950492" stroke-linecap="round" stroke-linejoin="round"/>
    <path d="M 59.698970794677734 19.17377471923828 C 54.0440559387207 19.240758895874023 51.55080795288086 20.151264190673828 49.28445816040039 20.8969669342041" stroke-width="1.217335820198059" fill="none" stroke="rgb(85, 234, 52)" stroke-opacity="0.98023987" stroke-linecap="round" stroke-linejoin="round"/>
    <path d="M 57.882659912109375 17.678319931030273 C 54.87539291381836 17.067537307739258 51.25192642211914 14.886137962341309 51.417415618896484 11.388882637023926" stroke-width="1.2820991277694702" fill="none" stroke="rgb(23, 123, 18)" stroke-opacity="1.0" stroke-linecap="round" stroke-linejoin="round"/>
    <path d="M 58.950157165527344 16.662281036376953 C 55.77519607543945 9.363680839538574 51.538360595703125 11.284286499023438 51.30944061279297 11.412566184997559" stroke-width="1.1892671585083008" fill="none" stroke="rgb(32, 123, 19)" stroke-opacity="0.9828548" stroke-linecap="round" stroke-linejoin="round"/>
    <path d="M 60.00920486450195 18.086519241333008 C 54.98867416381836 14.675440788269043 52.70875930786133 13.45220947265625 50.750267028808594 12.19917106628418" stroke-width="1.1942312717437744" fill="none" stroke="rgb(85, 226, 54)" stroke-opacity="0.9869871" stroke-linecap="round" stroke-linejoin="round"/>
    <path d="M 72.21666717529297 13.406082153320312 C 69.75218963623047 15.227134704589844 65.74983215332031 16.647493362426758 63.40619659423828 16.962642669677734" stroke-width="1.1892671585083008" fill="none" stroke="rgb(24, 133, 9)" stroke-opacity="0.9983677" stroke-linecap="round" stroke-linejoin="round"/>
    <path d="M 73.3083267211914 13.710565567016602 C 65.87255859375 12.18748950958252 63.633602142333984 16.85495376586914 63.43085479736328 16.115999221801758" stroke-width="1.1967588663101196" fill="none" stroke="rgb(23, 133, 20)" stroke-opacity="0.9811449" stroke-linecap="round" stroke-linejoin="round"/>
    <path d="M 74.67072296142578 14.639335632324219 C 68.00774383544922 14.38712215423584 65.6049575805664 14.551066398620605 64.02411651611328 15.733757019042969" stroke-width="1.2823377847671509" fill="none" stroke="rgb(85, 233, 54)" stroke-opacity="1.0" stroke-linecap="round" stroke-linejoin="round"/>
    <path d="M 74.186767578125 12.135181427001953 C 71.18743896484375 11.47829818725586 67.48356628417969 9.293593406677246 66.57437133789062 7.038500785827637" stroke-width="1.1892671585083008" fill="none" stroke="rgb(32, 132, 19)" stroke-opacity="0.9830638" stroke-linecap="round" stroke-linejoin="round"/>
    <path d="M 74.13748168945312 13.241632461547852 C 69.91631317138672 6.070740699768066 65.52366638183594 7.95247745513916 66.47958374023438 7.425477981567383" stroke-width="1.1892671585083008" fill="none" stroke="rgb(32, 123, 19)" stroke-opacity="0.98394173" stroke-linecap="round" stroke-linejoin="round"/>
    <path d="M 74.12096405029297 14.700727462768555 C 70.18219757080078 10.186786651611328 67.8663330078125 9.011005401611328 66.59661102294922 8.531720161437988" stroke-width="1.1933544874191284" fill="none" stroke="rgb(85, 225, 48)" stroke-opacity="1.0" stroke-linecap="round" stroke-linejoin="round"/>
    <path d="M 90.42517852783203 50.218379974365234 C 90.37397766113281 53.10043716430664 91.43209838867188 57.26199722290039 93.53715515136719 59.792823791503906" stroke-width="1.3083341121673584" fill="none" stroke="rgb(30, 123, 10)" stroke-opacity="1.0" stroke-linecap="round" stroke-linejoin="round"/>
    <path d="M 90.86832427978516 50.5457878112793 C 96.78191375732422 55.041255950927734 93.2763442993164 58.646568298339844 92.43888092041016 59.49504470825195" stroke-width="1.1892671585083008" fill="none" stroke="rgb(33, 133, 14)" stroke-opacity="0.98110193" stroke-linecap="round" stroke-linejoin="round"/>
    <path d="M 89.7156982421875 48.478607177734375 C 91.94467163085938 54.46999740600586 92.3748779296875 57.14441680908203 93.28472900390625 58.08228302001953" stroke-width="1.1892671585083008" fill="none" stroke="rgb(85, 228, 47)" stroke-opacity="0.9985017" stroke-linecap="round" stroke-linejoin="round"/>
    <path d="M 91.09818267822266 48.961551666259766 C 93.28480529785156 51.1163330078125 97.1528549194336 52.71171188354492 99.98915100097656 53.108009338378906" stroke-width="1.1892671585083008" fill="none" stroke="rgb(33, 133, 11)" stroke-opacity="0.98077714" stroke-linecap="round" stroke-linejoin="round"/>
    <path d="M 91.52740478515625 49.624794006347656 C 98.19673156738281 48.42466735839844 100.03886413574219 53.12310028076172 99.9344711303711 53.36227798461914" stroke-width="1.1892671585083008" fill="none" stroke="rgb(33, 123, 9)" stroke-opacity="0.9831141" stroke-linecap="round" stroke-linejoin="round"/>
    <path d="M 89.76519775390625 49.4197883605957 C 94.98773193359375 50.12069320678711 97.86978912353516 50.594120025634766 98.91069793701172 52.45488357543945" stroke-width="1.1892671585083008" fill="none" stroke="rgb(94, 225, 48)" stroke-opacity="0.9946277" stroke-linecap="round" stroke-linejoin="round"/>
    <path d="M 86.63619232177734 20.427265167236328 C 86.51863098144531 23.48181915283203 87.4474868774414 27.627750396728516 89.40499877929688 29.200593948364258" stroke-width="1.1892671585083008" fill="none" stroke="rgb(33, 126, 11)" stroke-opacity="0.9976406" stroke-linecap="round" stroke-linejoin="round"/>
    <path d="M 85.63611602783203 21.537446975708008 C 91.62020874023438 26.618196487426758 89.56256866455078 30.325225830078125 89.3890609741211 29.960058212280273" stroke-width="1.1892671585083008" fill="none" stroke="rgb(32, 132, 10)" stroke-opacity="0.98575956" stroke-linecap="round" stroke-linejoin="round"/>
    <path d="M 84.4312515258789 20.104026794433594 C 88.3557357788086 24.439298629760742 88.81216430664062 27.099712371826172 88.01588439941406 29.021909713745117" stroke-width="1.3011327981948853" fill="none" stroke="rgb(84, 224, 45)" stroke-opacity="1.0" stroke-linecap="round" stroke-linejoin="round"/>
    <path d="M 87.21251678466797 19.034908294677734 C 89.61027526855469 21.188013076782227 93.3759765625 23.152904510498047 95.84605407714844 23.60036277770996" stroke-width="1.1892671585083008" fill="none" stroke="rgb(23, 131, 19)" stroke-opacity="0.9954492" stroke-linecap="round" stroke-linejoin="round"/>
    <path d="M 86.24624633789062 20.191295623779297 C 93.99742126464844 18.998035430908203 94.71875762939453 23.724571228027344 95.56092834472656 23.752450942993164" stroke-width="1.2012135982513428" fill="none" stroke="rgb(24, 133, 20)" stroke-opacity="0.99833035" stroke-linecap="round" stroke-linejoin="round"/>
    <path d="M 85.61680603027344 19.73537254333496 C 91.4902114868164 20.490863800048828 93.78263854980469 21.11724853515625 95.1787338256836 22.546987533569336" stroke-width="1.2685768604278564" fill="none" stroke="rgb(85, 226, 49)" stroke-opacity="1.0" stroke-linecap="round" stroke-linejoin="round"/>
    <path d="M 76.04917907714844 30.27266502380371 C 73.2190170288086 32.80873489379883 71.87991333007812 36.22938919067383 72.79762268066406 39.25526809692383" stroke-width="1.2942928075790405" fill="none" stroke="rgb(29, 123, 10)" stroke-opacity="1.0" stroke-linecap="round" stroke-linejoin="round"/>
    <path d="M 75.0501937866211 30.75417709350586 C 77.98912811279297 38.170021057128906 74.12239837646484 39.73945999145508 73.91691589355469 38.6900634765625" stroke-width="1.1892671585083008" fill="none" stroke="rgb(23, 123, 19)" stroke-opacity="1.0" stroke-linecap="round" stroke-linejoin="round"/>
    <path d="M 75.05670928955078 27.865720748901367 C 75.2326889038086 33.80118942260742 73.9919662475586 36.227542877197266 73.20582580566406 37.891700744628906" stroke-width="1.1892671585083008" fill="none" stroke="rgb(90, 229, 55)" stroke-opacity="0.98086137" stroke-linecap="round" stroke-linejoin="round"/>
    <path d="M 77.31790161132812 28.735010147094727 C 78.16411590576172 31.67106056213379 80.38097381591797 36.148502349853516 82.09210968017578 37.24531555175781" stroke-width="1.1892671585083008" fill="none" stroke="rgb(31, 133, 9)" stroke-opacity="0.98024446" stroke-linecap="round" stroke-linejoin="round"/>
    <path d="M 76.41513061523438 29.65828514099121 C 83.98526000976562 32.19248962402344 81.78893280029297 36.02762985229492 81.58776092529297 36.13207244873047" stroke-width="1.1892671585083008" fill="none" stroke="rgb(28, 133, 17)" stroke-opacity="0.97998655" stroke-linecap="round" stroke-linejoin="round"/>
    <path d="M 75.57722473144531 27.845813751220703 C 79.3327407836914 32.63072967529297 80.65509033203125 34.84602737426758 81.2392349243164 36.76655578613281" stroke-width="1.1892671585083008" fill="none" stroke="rgb(84, 234, 51)" stroke-opacity="1.0" stroke-linecap="round" stroke-linejoin="round"/>
    <path d="M 85.09058380126953 40.25139236450195 C 84.59856414794922 37.197410583496094 85.08539581298828 32.98586654663086 86.87281799316406 31.35183334350586" stroke-width="1.3082879781723022" fill="none" stroke="rgb(23, 124, 17)" stroke-opacity="1.0" stroke-linecap="round" stroke-linejoin="round"/>
    <path d="M 85.5057373046875 40.67689514160156 C 90.96047973632812 35.019657135009766 87.47026062011719 31.604124069213867 86.37337493896484 31.44200897216797" stroke-width="1.2841254472732544" fill="none" stroke="rgb(23, 131, 16)" stroke-opacity="1.0" stroke-linecap="round" stroke-linejoin="round"/>
    <path d="M 83.80962371826172 41.49323272705078 C 86.41291809082031 36.150997161865234 86.42293548583984 33.30207824707031 86.06229400634766 31.332979202270508" stroke-width="1.1892671585083008" fill="none" stroke="rgb(84, 229, 52)" stroke-opacity="1.0" stroke-linecap="round" stroke-linejoin="round"/>
    <path d="M 85.19766235351562 40.87604522705078 C 87.17473602294922 38.54234313964844 90.72061157226562 36.446441650390625 93.61605834960938 37.455265045166016" stroke-width="1.1892671585083008" fill="none" stroke="rgb(33, 133, 18)" stroke-opacity="0.980142" stroke-linecap="round" stroke-linejoin="round"/>
    <path d="M 85.9836654663086 40.81181716918945 C 93.8082504272461 41.37029266357422 93.96035766601562 37.422908782958984 93.17816925048828 37.0700798034668" stroke-width="1.1892671585083008" fill="none" stroke="rgb(27, 133, 9)" stroke-opacity="0.99552166" stroke-linecap="round" stroke-linejoin="round"/>
    <path d="M 83.29987335205078 40.97883224487305 C 90.10503387451172 40.329010009765625 92.41119384765625 39.314178466796875 92.77594757080078 37.77239990234375" stroke-width="1.1892671585083008" fill="none" stroke="rgb(85, 234, 45)" stroke-opacity="0.9961121" stroke-linecap="round" stroke-linejoin="round"/>
    <path d="M 62.342594146728516 36.6723747253418 C 60.0295524597168 38.650604248046875 56.102027893066406 40.10441207885742 53.0689811706543 38.1772346496582" stroke-width="1.3051800727844238" fill="none" stroke="rgb(24, 124, 11)" stroke-opacity="1.0" stroke-linecap="round" stroke-linejoin="round"/>
    <path d="M 61.415897369384766 36.064395904541016 C 53.91087341308594 33.52714920043945 52.519866943359375 38.02073669433594 53.40784454345703 38.16597366333008" stroke-width="1.273389458656311" fill="none" stroke="rgb(24, 133, 10)" stroke-opacity="1.0" stroke-linecap="round" stroke-linejoin="round"/>
    <path d="M 64.3705062866211 35.93254089355469 C 58.40684509277344 37.106998443603516 56.00264358520508 38.04685592651367 53.430152893066406 39.222877502441406" stroke-width="1.1892671585083008" fill="none" stroke="rgb(85, 235, 50)" stroke-opacity="0.9861935" stroke-linecap="round" stroke-linejoin="round"/>
    <path d="M 62.241519927978516 35.360687255859375 C 59.23347091674805 35.047977447509766 55.543006896972656 33.0285530090332 54.74465560913086 30.660545349121094" stroke-width="1.1892671585083008" fill="none" stroke="rgb(24, 133, 13)" stroke-opacity="0.98146605" stroke-linecap="round" stroke-linejoin="round"/>
    <path d="M 62.564640045166016 35.14810562133789 C 59.60669708251953 27.864770889282227 55.88167190551758 29.868701934814453 55.010353088378906 30.443429946899414" stroke-width="1.1892671585083008" fill="none" stroke="rgb(24, 133, 11)" stroke-opacity="0.9971575" stroke-linecap="round" stroke-linejoin="round"/>
    <path d="M 64.00563049316406 35.47464370727539 C 59.37718200683594 31.536518096923828 57.84739303588867 29.67115592956543 55.21247863769531 29.17005157470703" stroke-width="1.1892671585083008" fill="none" stroke="rgb(84, 235, 47)" stroke-opacity="0.980406" stroke-linecap="round" stroke-linejoin="round"/>
    <path d="M 46.22700119018555 82.69390869140625 C 68.75377655029297 91.50556182861328 88.91706848144531 87.68254852294922 91.04804992675781 87.0732421875" stroke-width="1.3082331418991089" fill="none" stroke="rgb(219, 64, 29)" stroke-opacity="1.0" stroke-linecap="round" stroke-linejoin="round"/>
    <path d="M 54.6557731628418 121.04255676269531 C 55.847267150878906 121.4339370727539 54.65687942504883 120.92463684082031 54.14740753173828 120.91452026367188 C 53.433380126953125 120.98905944824219 53.12023162841797 121.4826431274414 52.118858337402344 122.0613784790039 C 50.16688919067383 120.86333465576172 48.63547897338867 118.71371459960938 47.822227478027344 116.40211486816406 C 45.73458480834961 115.31524658203125 44.82780838012695 113.3321533203125 43.5399055480957 111.71471405029297 C 43.48396682739258 110.90096282958984 43.48109817504883 107.18806457519531 43.34782409667969 107.04312896728516 C 42.03508758544922 103.94304656982422 40.396087646484375 100.90900421142578 40.035118103027344 97.265869140625 C 38.985137939453125 96.20413208007812 39.45681381225586 90.45230865478516 38.75790786743164 87.63764953613281 C 39.025386810302734 86.40664672851562 40.49016189575195 85.80641174316406 42.440486907958984 85.85867309570312 C 43.19647979736328 85.21115112304688 42.61415100097656 83.20365905761719 43.48035430908203 82.72298431396484 C 43.93431091308594 83.69062805175781 44.44007873535156 83.93001556396484 44.90151596069336 83.91231536865234 C 46.101844787597656 83.0176010131836 46.79354476928711 82.89810943603516 48.42462158203125 83.6684799194336 C 51.9107551574707 83.60001373291016 55.808631896972656 81.92517852783203 58.341697692871094 84.12964630126953" stroke-width="1.1892671585083008" fill="none" stroke="rgb(19, 28, 19)" stroke-opacity="0.981708" stroke-linecap="round" stroke-linejoin="round"/>
    <path d="M 47.725135803222656 7.254164695739746 C 48.0222053527832 7.237823963165283 47.64505386352539 7.936244487762451 47.457096099853516 8.06262493133545 C 46.600067138671875 9.903159141540527 46.54574966430664 12.668478965759277 47.39704895019531 14.99020004272461 C 47.30033493041992 22.893335342407227 47.23351287841797 31.030519485473633 47.36464309692383 39.25810623168945 C 47.689903259277344 42.492401123046875 47.43406295776367 46.000457763671875 46.55018615722656 48.63890838623047 C 47.4338264465332 56.52397155761719 49.07921600341797 64.28671264648438 50.904483795166016 71.0538330078125 C 51.71078872680664 79.16793823242188 52.2408447265625 87.20416259765625 51.983131408691406 96.44794464111328" stroke-width="1.1892671585083008" fill="none" stroke="rgb(28, 21, 26)" stroke-opacity="0.9822053" stroke-linecap="round" stroke-linejoin="round"/>
    <path d="M 69.76702880859375 31.21356201171875 C 67.91722106933594 30.799285888671875 61.551944732666016 24.790273666381836 62.27098083496094 29.82754898071289 C 58.086490631103516 25.12980079650879 56.86651611328125 27.697101593017578 61.83440399169922 21.820695877075195" stroke-width="1.3941651582717896" fill="none" stroke="rgb(218, 140, 189)" stroke-opacity="0.55494237" stroke-linecap="round" stroke-linejoin="round"/>
    <path d="M 65.09087371826172 15.942976951599121 C 65.1080322265625 16.80971908569336 71.4134292602539 13.434836387634277 71.65785217285156 16.310190200805664" stroke-width="1.1892671585083008" fill="none" stroke="rgb(183, 20, 118)" stroke-opacity="0.07833949" stroke-linecap="round" stroke-linejoin="round"/>
    <path d="M 86.90451049804688 19.046396255493164 C 93.64567565917969 18.247779846191406 98.75578308105469 20.371110916137695 103.08955383300781 20.050935745239258 C 103.76679229736328 20.13786506652832 101.96112060546875 24.565170288085938 96.97704315185547 22.627426147460938" stroke-width="1.1892671585083008" fill="none" stroke="rgb(163, 205, 35)" stroke-opacity="0.122809194" stroke-linecap="round" stroke-linejoin="round"/>
    <path d="M 99.81393432617188 53.21223449707031 C 102.05167388916016 47.27922439575195 103.64102172851562 49.44273376464844 97.4878921508789 50.335140228271484" stroke-width="1.360826849937439" fill="none" stroke="rgb(75, 158, 63)" stroke-opacity="0.6152554" stroke-linecap="round" stroke-linejoin="round"/>
    <path d="M 86.07780456542969 32.174720764160156 C 92.3515396118164 31.53413200378418 86.56095123291016 27.854232788085938 85.86100006103516 32.1775016784668 C 88.73424530029297 37.471927642822266 94.66650390625 33.50749206542969 98.06060791015625 32.22786331176758 C 100.10844421386719 34.25532150268555 95.4596176147461 31.817195892333984 101.33897399902344 26.969383239746094" stroke-width="1.1892671585083008" fill="none" stroke="rgb(182, 70, 152)" stroke-opacity="0.33008188" stroke-linecap="round" stroke-linejoin="round"/>
    <path d="M 86.04918670654297 31.86516571044922 C 81.91209411621094 27.228445053100586 82.83486938476562 29.70709800720215 76.98636627197266 29.14310073852539 C 79.17277526855469 27.487394332885742 76.66861724853516 31.037063598632812 81.18315887451172 35.95284652709961 C 78.08682250976562 37.803466796875 79.47966003417969 40.83803176879883 78.01704406738281 41.73667907714844" stroke-width="1.292685866355896" fill="none" stroke="rgb(57, 181, 183)" stroke-opacity="0.910813" stroke-linecap="round" stroke-linejoin="round"/>
    <path d="M 46.552955627441406 48.766929626464844 C 43.800106048583984 46.59703826904297 50.098793029785156 41.99903106689453 50.94575881958008 40.42252731323242" stroke-width="1.4254580736160278" fill="none" stroke="rgb(12, 241, 151)" stroke-opacity="0.3111698" stroke-linecap="round" stroke-linejoin="round"/>
    <path d="M 50.825767517089844 41.31433868408203 C 52.24209213256836 43.75909423828125 54.87263870239258 51.05301284790039 53.98152160644531 56.877140045166016 C 57.775482177734375 62.23630905151367 54.889671325683594 62.057491302490234 50.105098724365234 56.44422149658203" stroke-width="1.4272783994674683" fill="none" stroke="rgb(222, 1, 164)" stroke-opacity="0.5815838" stroke-linecap="round" stroke-linejoin="round"/>
    <path d="M 49.7890739440918 40.47897720336914 C 55.50114440917969 45.20214080810547 48.74371337890625 47.01375961303711 48.904319763183594 48.5550537109375 C 49.630943298339844 53.962650299072266 45.90689468383789 58.094566345214844 42.15461730957031 53.890602111816406 C 49.11116409301758 57.449127197265625 52.038482666015625 52.068580627441406 50.62102508544922 53.220947265625" stroke-width="1.1892671585083008" fill="none" stroke="rgb(37, 162, 129)" stroke-opacity="0.7577543" stroke-linecap="round" stroke-linejoin="round"/>
    <path d="M 101.10494995117188 26.96491241455078 C 103.39826202392578 29.238622665405273 105.68992614746094 31.474302291870117 112.06880187988281 35.95747756958008 C 108.85614013671875 41.10677719116211 109.18572235107422 39.26136779785156 108.3948745727539 43.2918701171875" stroke-width="1.1892671585083008" fill="none" stroke="rgb(75, 146, 215)" stroke-opacity="0.39640725" stroke-linecap="round" stroke-linejoin="round"/>
    <path d="M 77.470458984375 41.29463577270508 C 72.56988525390625 37.80516815185547 76.80948638916016 35.20409393310547 73.45674896240234 32.615718841552734 C 68.4358139038086 33.503448486328125 69.28872680664062 34.567100524902344 64.3217544555664 33.29799270629883" stroke-width="1.4030003547668457" fill="none" stroke="rgb(225, 182, 203)" stroke-opacity="0.47471544" stroke-linecap="round" stroke-linejoin="round"/>
    <path d="M 50.293067932128906 55.58128356933594 C 45.11894989013672 53.94154739379883 49.36513900756836 50.19093704223633 47.358402252197266 50.93646240234375 C 52.35528564453125 45.61423873901367 52.909278869628906 52.0174560546875 53.7211799621582 54.78883361816406" stroke-width="1.1892671585083008" fill="none" stroke="rgb(154, 136, 101)" stroke-opacity="0.89033896" stroke-linecap="round" stroke-linejoin="round"/>
    <path d="M 50.31837463378906 55.44697189331055 C 47.12444305419922 61.89896011352539 44.517791748046875 67.75872039794922 38.107852935791016 70.85749053955078" stroke-width="1.4217345714569092" fill="none" stroke="rgb(228, 154, 183)" stroke-opacity="0.078908786" stroke-linecap="round" stroke-linejoin="round"/>
    <path d="M 97.20587158203125 51.29513931274414 C 92.53298950195312 45.07841491699219 92.69149017333984 47.806419372558594 96.76116943359375 51.72608184814453 C 90.68424224853516 47.79557800292969 84.79472351074219 46.70478820800781 90.65792083740234 51.185516357421875" stroke-width="1.4240896701812744" fill="none" stroke="rgb(15, 12, 255)" stroke-opacity="0.67263114" stroke-linecap="round" stroke-linejoin="round"/>
    <path d="M 97.61907958984375 50.16333770751953 C 100.8487319946289 48.51095962524414 101.23454284667969 51.931705474853516 98.79930877685547 57.02806854248047" stroke-width="1.2779278755187988" fill="none" stroke="rgb(3, 170, 132)" stroke-opacity="0.5890219" stroke-linecap="round" stroke-linejoin="round"/>
    <path d="M 50.48805618286133 55.54630661010742 C 51.95511245727539 55.7838249206543 50.50395584106445 61.00705337524414 51.18486404418945 56.05122375488281 C 46.16908264160156 53.957279205322266 50.142494201660156 48.604801177978516 44.80656433105469 42.83395767211914 C 39.327911376953125 48.71194076538086 37.28627014160156 48.392478942871094 33.08759307861328 45.25971603393555" stroke-width="1.362962245941162" fill="none" stroke="rgb(107, 163, 182)" stroke-opacity="0.21531674" stroke-linecap="round" stroke-linejoin="round"/>
    <path d="M 8.272279739379883 10.817788124084473 C 10.795886993408203 13.358566284179688 5.513326644897461 12.411359786987305 10.48656177520752 7.126917839050293" stroke-width="1.1892671585083008" fill="none" stroke="rgb(42, 214, 52)" stroke-opacity="0.8129586" stroke-linecap="round" stroke-linejoin="round"/>
    <path d="M 79.58428192138672 7.526489734649658 C 83.1858901977539 6.569488048553467 89.70075988769531 12.171551704406738 89.28562927246094 10.401039123535156" stroke-width="1.1892671585083008" fill="none" stroke="rgb(49, 120, 181)" stroke-opacity="0.040860064" stroke-linecap="round" stroke-linejoin="round"/>
    <path d="M 38.22160720825195 79.64837646484375 C 42.52606201171875 79.94432830810547 36.92940902709961 74.45327758789062 37.62364959716797 68.00313568115234 C 40.14225387573242 71.44129180908203 33.904056549072266 71.2859878540039 40.79387283325195 75.09212493896484" stroke-width="1.1892671585083008" fill="none" stroke="rgb(109, 46, 73)" stroke-opacity="0.28889254" stroke-linecap="round" stroke-linejoin="round"/>
    <path d="M 0.297086626291275 41.18324279785156 C -1.5215851068496704 40.17380142211914 -0.8303534388542175 40.932796478271484 -4.886149883270264 47.34682083129883 C -0.17759719491004944 50.059078216552734 -1.0180494785308838 47.00311279296875 -6.759560585021973 43.628814697265625" stroke-width="1.1892671585083008" fill="none" stroke="rgb(166, 230, 201)" stroke-opacity="0.0988484" stroke-linecap="round" stroke-linejoin="round"/>
    <path d="M 114.8623275756836 74.86939239501953 C 113.86833953857422 80.97055053710938 115.12754821777344 77.1586685180664 108.7755126953125 75.46741485595703 C 108.3344955444336 78.22463989257812 108.91735076904297 76.25696563720703 113.30814361572266 75.0859375 C 116.9803466796875 70.94708251953125 117.49208068847656 67.02605438232422 112.79115295410156 65.52204895019531" stroke-width="1.1892671585083008" fill="none" stroke="rgb(157, 62, 157)" stroke-opacity="0.16119018" stroke-linecap="round" stroke-linejoin="round"/>
    <path d="M 101.95745086669922 38.6577262878418 C 105.45472717285156 37.46664810180664 104.66896057128906 41.96255111694336 106.9017562866211 46.664363861083984" stroke-width="1.4251015186309814" fill="none" stroke="rgb(124, 25, 180)" stroke-opacity="0.057567284" stroke-linecap="round" stroke-linejoin="round"/>
    <path d="M 18.912513732910156 55.364620208740234 C 20.643003463745117 54.20768356323242 17.732816696166992 57.21192169189453 11.264607429504395 56.97821044921875 C 9.279491424560547 56.16697311401367 6.444117546081543 55.37268829345703 0.45437946915626526 61.17173767089844" stroke-width="1.418609857559204" fill="none" stroke="rgb(21, 63, 201)" stroke-opacity="0.4021727" stroke-linecap="round" stroke-linejoin="round"/>
    <path d="M 18.693449020385742 6.465972900390625 C 15.9493989944458 1.6379109621047974 10.741973876953125 2.7957396507263184 6.038576602935791 2.661468505859375 C 6.100876331329346 9.116130828857422 12.593809127807617 9.315813064575195 7.128026008605957 7.712124824523926" stroke-width="1.1892671585083008" fill="none" stroke="rgb(15, 159, 110)" stroke-opacity="0.96783644" stroke-linecap="round" stroke-linejoin="round"/>
    <path d="M 54.60968017578125 101.6456298828125 C 49.71511459350586 105.71491241455078 46.81063461303711 109.5074462890625 49.748043060302734 104.33687591552734 C 53.47483444213867 109.86557006835938 57.38887405395508 108.56929779052734 61.76565170288086 106.50169372558594" stroke-width="1.1892671585083008" fill="none" stroke="rgb(146, 222, 207)" stroke-opacity="0.41630706" stroke-linecap="round" stroke-linejoin="round"/>
    <path d="M 113.56485748291016 52.95122146606445 C 117.4509048461914 56.57863998413086 119.70072937011719 53.97933578491211 120.18286895751953 49.44849395751953 C 121.17579650878906 50.46876525878906 126.14973449707031 55.272743225097656 131.44515991210938 50.28669357299805 C 137.10372924804688 46.21665954589844 139.4210205078125 47.848106384277344 141.31289672851562 49.64279556274414" stroke-width="1.1892671585083008" fill="none" stroke="rgb(230, 173, 186)" stroke-opacity="0.7058157" stroke-linecap="round" stroke-linejoin="round"/>
    <path d="M 9.287063598632812 80.64608001708984 C 13.239602088928223 81.32146453857422 18.65403938293457 77.99082946777344 18.034305572509766 75.10832214355469" stroke-width="1.1892671585083008" fill="none" stroke="rgb(226, 126, 210)" stroke-opacity="0.2584045" stroke-linecap="round" stroke-linejoin="round"/>
    <path d="M 131.6921844482422 104.01142120361328 C 135.8499755859375 99.19803619384766 138.51229858398438 103.02550506591797 132.27230834960938 102.07501983642578 C 138.54583740234375 108.00568389892578 140.17721557617188 101.83264923095703 134.4779510498047 95.81419372558594" stroke-width="1.423732876777649" fill="none" stroke="rgb(206, 139, 247)" stroke-opacity="0.52204174" stroke-linecap="round" stroke-linejoin="round"/>
    <path d="M 41.493629455566406 119.88018035888672 C 45.770782470703125 121.748046875 41.0142822265625 118.53897857666016 39.189109802246094 123.43567657470703 C 40.604740142822266 119.60071563720703 37.72587585449219 117.12619018554688 35.336856842041016 113.98638916015625" stroke-width="1.425592303276062" fill="none" stroke="rgb(219, 52, 50)" stroke-opacity="0.15150028" stroke-linecap="round" stroke-linejoin="round"/>
    <path d="M 18.856184005737305 41.757354736328125 C 12.171579360961914 44.263851165771484 14.119757652282715 50.57183837890625 8.524544715881348 48.3602294921875 C 9.343438148498535 43.11686706542969 3.832801580429077 42.457698822021484 -0.13672307133674622 46.231624603271484 C -2.9943583011627197 46.085140228271484 1.4528183937072754 50.214229583740234 5.301339149475098 53.90057373046875" stroke-width="1.1892671585083008" fill="none" stroke="rgb(133, 138, 105)" stroke-opacity="0.85814756" stroke-linecap="round" stroke-linejoin="round"/>
    <path d="M 104.60777282714844 66.84143829345703 C 101.35624694824219 66.58032989501953 102.86524200439453 62.52931213378906 100.96613311767578 68.4142837524414 C 104.9427490234375 75.32267761230469 102.85929107666016 78.40631866455078 108.30435943603516 76.8355484008789 C 109.40776824951172 70.84464263916016 113.10469818115234 66.90296936035156 112.494140625 65.58014678955078" stroke-width="1.405509114265442" fill="none" stroke="rgb(165, 21, 44)" stroke-opacity="0.15824588" stroke-linecap="round" stroke-linejoin="round"/>
    <path d="M 23.7487735748291 114.22891998291016 C 24.89422607421875 112.93458557128906 29.318973541259766 109.2607421875 29.93730354309082 104.80374145507812 C 28.618864059448242 105.01899719238281 28.24019432067871 111.28486633300781 28.388025283813477 106.53305053710938" stroke-width="1.1892671585083008" fill="none" stroke="rgb(171, 217, 7)" stroke-opacity="0.99103636" stroke-linecap="round" stroke-linejoin="round"/>
  </g>
</svg>
