<?xml version="1.0" ?>
<svg xmlns="http://www.w3.org/2000/svg" version="1.1" width="1182.99609" height="1182.99609">
  <defs/>
  <g>
    <path d="M 284.82745361328125 354.4754943847656 C 283.9167785644531 347.7672119140625 288.2777404785156 341.0552062988281 305.3761291503906 317.7384338378906 C 333.0158996582031 304.99072265625 378.6439208984375 275.6405334472656 385.9903564453125 264.3666076660156 C 393.3367004394531 253.09268188476562 362.4013977050781 259.8948974609375 364.9208984375 269.3114929199219 C 367.4410095214844 273.44708251953125 403.4278564453125 285.4781188964844 425.43157958984375 297.7930908203125 C 442.154296875 310.1082458496094 450.1630554199219 328.01171875 461.4183044433594 348.9700622558594 C 467.3924865722656 375.22021484375 471.32000732421875 415.11083984375 480.04547119140625 441.29559326171875 C 494.0639953613281 462.2109375 518.1618041992188 464.1388854980469 527.429443359375 465.826171875 C 531.4161376953125 478.0749206542969 515.3037719726562 490.07049560546875 499.1913757324219 502.0660705566406 C 477.79803466796875 514.0616455078125 541.3724365234375 513.6947631835938 610.2392578125 513.3282470703125" stroke-width="26.037534713745117" fill="none" stroke="rgb(55, 24, 6)" stroke-opacity="0.92248" stroke-linecap="round" stroke-linejoin="round"/>
    <path d="M 741.771484375 382.0156555175781 C 770.2355346679688 371.2690124511719 798.7095947265625 365.81536865234375 863.1637573242188 369.044921875 C 922.337158203125 372.2745056152344 1012.2212524414062 384.187255859375 1021.8108520507812 387.53521728515625 C 1036.6810302734375 390.88311767578125 976.5382080078125 385.65423583984375 972.4962158203125 392.9769592285156 C 963.1622924804688 400.302490234375 999.3585205078125 425.4549865722656 997.5242309570312 430.4829406738281 C 995.6898803710938 435.51068115234375 950.546875 425.67999267578125 905.3917846679688 410.568115234375 C 860.24853515625 400.73748779296875 878.8689575195312 454.533203125 902.7823486328125 497.7667236328125" stroke-width="25.797826766967773" fill="none" stroke="rgb(43, 28, 0)" stroke-opacity="1.0" stroke-linecap="round" stroke-linejoin="round"/>
    <path d="M 611.4221801757812 557.00439453125 C 597.7110595703125 554.2311401367188 584.000244140625 556.7390747070312 559.4885864257812 546.139404296875 C 529.69580078125 540.8209228515625 494.3716125488281 511.8443908691406 454.6938781738281 525.5316162109375 C 415.0161437988281 539.2189331054688 370.9975280761719 590.2890014648438 360.7689514160156 620.1763916015625 C 339.97869873046875 639.595703125 353.00347900390625 637.6679077148438 353.8907775878906 632.2970581054688 C 360.05810546875 632.2025146484375 348.8321533203125 623.322509765625 353.2875061035156 626.1268310546875 C 363.02349853515625 628.918701171875 393.73406982421875 643.410400390625 401.0922546386719 656.7427368164062 C 408.45050048828125 664.7939453125 392.4445495605469 676.9906616210938 400.02081298828125 697.2789916992188 C 402.3158264160156 717.5673828125 422.89996337890625 751.2404174804688 471.9301452636719 769.4468383789062 C 526.2415161132812 787.6414184570312 614.268310546875 795.6620483398438 644.759033203125 808.740966796875 C 669.9803466796875 827.1129760742188 627.1036987304688 855.8245239257812 634.1898803710938 860.4378662109375 C 641.2761840820312 865.0397338867188 693.0558471679688 845.5322265625 709.0194091796875 851.7713623046875 C 719.7136840820312 852.729736328125 689.322509765625 874.1538696289062 695.3555908203125 872.03125 C 696.1079711914062 875.1898193359375 738.5662841796875 860.0712280273438 786.3045043945312 850.2337036132812 C 823.481689453125 829.8338012695312 782.9327392578125 820.7723999023438 731.8343505859375 817.0033569335938" stroke-width="10.562464714050293" fill="none" stroke="rgb(33, 31, 6)" stroke-opacity="0.96239" stroke-linecap="round" stroke-linejoin="round"/>
    <path d="M 677.8592529296875 690.4227294921875 C 676.55712890625 693.6620483398438 669.9757690429688 691.742919921875 664.3800048828125 696.0132446289062 C 658.7847290039062 700.2958374023438 654.1755981445312 710.8203125 668.1182861328125 716.3185424804688 C 692.6227416992188 716.5264892578125 740.9601440429688 722.2521362304688 750.364990234375 725.3280029296875 C 759.7694702148438 733.684814453125 730.2420654296875 734.1216430664062 739.1453857421875 719.4249877929688 C 758.610595703125 715.289306640625 816.5182495117188 696.006591796875 835.0794677734375 698.3793334960938 C 848.3609619140625 706.0333862304688 827.5743408203125 740.6241455078125 818.7018432617188 744.1258544921875 C 809.8218994140625 747.6299438476562 818.126953125 725.3297119140625 817.0386962890625 726.9291381835938 C 815.950439453125 728.5267333984375 805.48779296875 759.3085327148438 811.4146118164062 767.1114501953125 C 822.6223754882812 780.2071533203125 839.678466796875 775.6170654296875 845.0877075195312 771.31103515625 C 850.493896484375 767.01708984375 844.259521484375 763.0064086914062 843.5733642578125 769.1107177734375 C 842.88720703125 775.203369140625 842.480224609375 791.3984985351562 838.9783935546875 795.3612060546875 C 835.4771118164062 799.3125610351562 823.5994873046875 796.3126220703125 818.027587890625 793.4025268554688 C 812.455810546875 790.4923095703125 813.1893920898438 792.9647216796875 813.9108276367188 795.4371337890625 C 819.9232788085938 792.629150390625 825.011962890625 797.5263671875 830.1107788085938 807.693115234375" stroke-width="10.562464714050293" fill="none" stroke="rgb(50, 13, 2)" stroke-opacity="1.0" stroke-linecap="round" stroke-linejoin="round"/>
    <path d="M 658.1381225585938 600.10791015625 C 659.8364868164062 600.109130859375 657.71240234375 596.7132568359375 657.1331176757812 595.1036376953125 C 656.0328369140625 592.01611328125 654.1400756835938 589.224365234375 653.1345825195312 586.1011352539062 C 642.7073974609375 575.4352416992188 638.8507690429688 560.0563354492188 644.1318969726562 538.1080932617188 C 644.1319580078125 535.7764892578125 642.2391357421875 532.4761962890625 644.1319580078125 536.384765625 C 647.1129760742188 534.2198486328125 651.4534301757812 535.5211181640625 649.8549194335938 530.0982055664062 C 664.5582885742188 529.766845703125 687.0765991210938 530.5475463867188 689.8499755859375 530.0979614257812 C 726.3615112304688 533.6143188476562 766.4653930664062 522.3021240234375 797.1286010742188 527.0932006835938 C 799.8093872070312 533.6165161132812 806.777099609375 538.5140991210938 813.8514404296875 542.3707275390625 C 832.0626831054688 549.4187622070312 860.54931640625 579.277587890625 842.1300659179688 598.3737182617188" stroke-width="10.562464714050293" fill="none" stroke="rgb(26, 21, 21)" stroke-opacity="1.0" stroke-linecap="round" stroke-linejoin="round"/>
    <path d="M 300.8691101074219 344.11944580078125 C 303.01318359375 349.3967590332031 297.54632568359375 346.4294738769531 302.15142822265625 339.12188720703125 C 301.41796875 336.904541015625 302.0565490722656 334.4481506347656 302.1512451171875 337.3904113769531 C 302.7666015625 321.3620300292969 301.1576232910156 309.744384765625 311.15411376953125 301.3944091796875 C 323.47027587890625 272.1221923828125 349.7032470703125 275.18603515625 379.8694763183594 272.1102600097656 C 395.79345703125 270.48956298828125 411.8741760253906 272.1103515625 433.1387023925781 277.3913879394531 C 455.4790954589844 277.3914794921875 478.11004638671875 273.771484375 494.8684387207031 277.3914794921875 C 545.8793334960938 285.7670593261719 603.0111083984375 306.8667297363281 633.1537475585938 350.1051940917969 C 647.2855834960938 377.9652404785156 642.8729858398438 389.4208679199219 648.1541748046875 415.11083984375 C 648.1541748046875 423.7821960449219 652.4957885742188 433.61328125 648.1541748046875 446.3938903808594 C 634.024169921875 456.4210510253906 625.8191528320312 474.5258483886719 611.1500854492188 484.3921203613281 C 536.8341674804688 534.3854370117188 445.9327392578125 550.8173217773438 352.875 546.3929443359375 C 315.8692932128906 544.5237426757812 288.7786560058594 536.2901000976562 261.8772888183594 509.3887939453125 C 256.4355163574219 503.9469909667969 231.3914794921875 473.6622619628906 238.8798370361328 451.1109313964844 C 248.21371459960938 429.5788269042969 284.2714538574219 426.85797119140625 299.8753356933594 425.107177734375 C 346.34393310546875 419.9137878417969 393.130859375 417.4413146972656 445.1519470214844 421.3857421875 C 480.06561279296875 415.0990295410156 516.1906127929688 409.6098937988281 550.15478515625 418.1037902832031 C 592.411376953125 428.6679992675781 631.39111328125 450.3996276855469 669.1524047851562 472.1075744628906 C 682.3023681640625 487.9883728027344 697.1961669921875 504.0061950683594 717.1463623046875 514.1041870117188 C 724.98486328125 533.1314697265625 737.9622802734375 547.5995483398438 752.1512451171875 564.3857421875 C 758.2438354492188 570.60400390625 759.556884765625 584.1849975585938 755.8728637695312 602.3841552734375 C 769.482421875 669.96875 728.8582763671875 731.8157348632812 678.155029296875 772.3806762695312 C 653.3782348632812 782.6915893554688 636.82080078125 800.3820190429688 610.873046875 814.3770141601562" stroke-width="10.562464714050293" fill="none" stroke="rgb(255, 251, 251)" stroke-opacity="0.99" stroke-linecap="round" stroke-linejoin="round"/>
    <path d="M 534.146484375 533.11474609375 C 533.1763305664062 533.1148071289062 528.1723022460938 533.1148071289062 526.5042724609375 533.1146850585938 C 520.8377075195312 533.1146850585938 515.171142578125 533.1146850585938 506.8664855957031 533.1146850585938 C 510.5089416503906 533.1146850585938 492.2225341796875 533.6707153320312 488.1419677734375 532.109130859375 C 483.8122253417969 530.4649047851562 479.62445068359375 528.1580200195312 470.86572265625 525.1058959960938 C 467.4229736328125 527.3702392578125 465.3290710449219 518.7935180664062 465.86151123046875 518.3912353515625 C 467.2933349609375 517.314697265625 469.8487243652344 518.9117431640625 476.1466369628906 515.1094970703125 C 476.4493408203125 528.5057983398438 484.0370788574219 533.16259765625 488.1422119140625 542.1055297851562 C 494.9681091308594 556.9876098632812 509.8620300292969 594.2073364257812 492.1407775878906 606.3826293945312 C 478.9338684082031 606.5433959960938 472.4990539550781 611.0553588867188 468.1368103027344 606.1055297851562 C 442.6748352050781 606.7798461914062 436.8780212402344 606.87939453125 435.13214111328125 582.103271484375 C 431.7488098144531 572.7098999023438 429.773193359375 553.727294921875 440.1361999511719 542.1060791015625 C 441.73101806640625 537.8939819335938 450.8048400878906 538.8167724609375 458.86492919921875 539.1007080078125 C 469.64727783203125 544.7720947265625 481.2640686035156 544.4291381835938 490.8580627441406 549.3859252929688 C 514.8140258789062 561.7362670898438 549.0424194335938 597.97900390625 556.8574829101562 622.3884887695312 C 562.9262084960938 631.260986328125 568.2852172851562 640.6657104492188 572.8515625 650.3900146484375 C 579.65380859375 664.8580322265625 582.3154907226562 675.9071655273438 588.12841796875 691.391357421875 C 588.2554931640625 695.0682983398438 589.9859008789062 700.0750732421875 587.1234130859375 702.3945922851562 C 583.2074584960938 705.5767822265625 577.16162109375 704.1925048828125 566.842529296875 699.1127319335938 C 555.1898193359375 699.5740966796875 542.7806396484375 703.1821899414062 537.1182250976562 699.1126708984375 C 520.9110107421875 693.0912475585938 507.54302978515625 681.001220703125 494.11474609375 670.1175537109375 C 473.6099853515625 663.048095703125 432.6783142089844 616.7929077148438 421.8302917480469 604.3951416015625 C 403.42718505859375 572.047607421875 392.4567565917969 571.96875 375.8353576660156 541.4005126953125 C 371.2808532714844 533.0130615234375 367.2113952636719 524.329833984375 369.1207275390625 510.1187744140625 C 365.5715026855469 500.73712158203125 358.1142272949219 493.5946960449219 356.83648681640625 483.3982238769531 C 356.6708679199219 482.04888916015625 355.2157897949219 467.958740234375 355.8309631347656 462.12310791015625 C 367.6065368652344 456.35003662109375 384.3934020996094 460.14739990234375 383.8326416015625 462.1230773925781 C 392.5395202636719 471.04779052734375 405.5335998535156 471.51605224609375 413.1164245605469 477.12347412109375 C 435.9788818359375 503.2371520996094 457.80511474609375 528.080078125 463.8384094238281 563.4043579101562 C 465.6365966796875 573.9209594726562 466.16888427734375 595.4628295898438 459.8403015136719 605.4005737304688 C 460.5540771484375 612.5693969726562 430.9560241699219 629.84130859375 426.11767578125 632.396728515625 C 394.8156433105469 649.0059814453125 360.26025390625 656.2459106445312 331.8397216796875 680.1137084960938 C 317.80950927734375 697.7879028320312 317.6368408203125 718.89453125 313.8345947265625 746.389892578125 C 314.13043212890625 750.7669677734375 313.3968505859375 755.7476196289062 321.1149597167969 754.110107421875 C 334.1160888671875 773.6177368164062 375.0714111328125 805.9490966796875 389.1134033203125 817.10498046875 C 413.1165466308594 836.1863403320312 437.4981384277344 854.818603515625 462.1163024902344 873.107666015625 C 479.2814636230469 885.8604125976562 499.0138854980469 898.9562377929688 512.8381958007812 914.3875122070312 C 515.3580322265625 915.7241821289062 517.9962158203125 917.6405639648438 526.1160278320312 912.111083984375 C 531.1914672851562 911.6510620117188 529.1211547851562 902.2102661132812 529.1212158203125 897.1112670898438 C 529.1212158203125 894.65185546875 529.5588989257812 885.9906616210938 528.1156616210938 883.1158447265625 C 520.2318725585938 883.1799926757812 515.5235595703125 878.98046875 513.83251953125 873.3966064453125 C 504.7110595703125 843.2890014648438 503.40283203125 807.1205444335938 498.11492919921875 776.1139526367188 C 495.0154724121094 757.931396484375 494.31744384765625 739.429443359375 486.8359069824219 726.3975219726562 C 484.209716796875 704.4645385742188 486.11932373046875 677.203857421875 486.1192932128906 655.1173095703125 C 480.8382263183594 653.4278564453125 480.838134765625 649.0863037109375 480.838134765625 647.3963012695312 C 480.83837890625 645.7263793945312 479.3006286621094 637.763427734375 480.838134765625 637.11181640625 C 499.64776611328125 634.5615844726562 530.8197021484375 669.8740234375 541.11669921875 684.3892822265625 C 544.772216796875 689.661376953125 549.906494140625 722.8596801757812 546.1209106445312 733.388916015625 C 541.4006958007812 746.5202026367188 511.67193603515625 762.9757080078125 492.8458251953125 762.1070556640625 C 488.24371337890625 763.6094970703125 446.6732482910156 775.4749755859375 436.842529296875 775.3853759765625 C 432.65472412109375 773.101806640625 433.83770751953125 764.34716796875 433.84185791015625 756.1094360351562 C 433.83770751953125 740.978759765625 444.5083923339844 733.9991455078125 459.8400573730469 739.1096801757812 C 470.97198486328125 748.1054077148438 476.31915283203125 761.0354614257812 491.1233215332031 762.1070556640625 C 502.5509948730469 769.7257080078125 511.46588134765625 778.9698486328125 520.8469848632812 789.3920288085938 C 530.575927734375 789.0447998046875 535.0122680664062 795.3970947265625 530.843505859375 807.3920288085938 C 531.1749877929688 809.3265380859375 530.8441162109375 806.1769409179688 536.1154174804688 808.1327514648438 C 536.1234130859375 810.1231689453125 537.7918090820312 815.2259521484375 536.1244506835938 814.1116943359375 C 533.0604858398438 812.0657958984375 529.4405517578125 784.7650756835938 531.1204833984375 776.1139526367188 C 527.9924926757812 771.8076782226562 548.15087890625 766.2593994140625 554.1177368164062 771.3986206054688 C 568.8575439453125 768.3583374023438 585.0943603515625 763.113037109375 594.8626098632812 763.11328125 C 604.0394897460938 768.3927612304688 603.7673950195312 765.8380737304688 612.1082763671875 768.3933715820312 C 616.2133178710938 771.808349609375 611.2921142578125 789.675537109375 604.8280639648438 794.393310546875 C 603.5789794921875 820.5046997070312 596.9305419921875 825.3905029296875 569.1061401367188 825.390380859375 C 559.8287963867188 820.1094970703125 560.3391723632812 822.463623046875 557.1109008789062 820.1094360351562 C 546.1563110351562 812.1362915039062 540.90380859375 788.7291870117188 554.1061401367188 776.1138305664062 C 558.4073486328125 770.7902221679688 589.3901977539062 769.8201293945312 606.1098022460938 772.115234375 C 610.4517822265625 772.9791870117188 608.4708251953125 778.2688598632812 610.8258666992188 781.1178588867188" stroke-width="10.562464714050293" fill="none" stroke="rgb(255, 251, 255)" stroke-opacity="0.99" stroke-linecap="round" stroke-linejoin="round"/>
    <path d="M 130.1437530517578 262.3909912109375 C 128.19886779785156 262.3899230957031 130.14370727539062 269.0509033203125 130.14385986328125 272.3870544433594 C 124.86309051513672 273.4140319824219 124.86290740966797 277.0813293457031 130.1438751220703 280.7486267089844 C 130.14390563964844 291.076171875 130.1439208984375 301.4155578613281 130.14393615722656 311.7431335449219 C 130.1437225341797 314.40484619140625 130.1437225341797 317.07843017578125 130.14366149902344 322.2437438964844 C 124.96495056152344 324.0316467285156 123.19837188720703 327.38262939453125 124.86315155029297 322.1037902832031 C 128.58970642089844 322.1039123535156 131.18031311035156 317.6794738769531 134.85911560058594 317.0995788574219 C 155.2776336669922 313.89361572265625 219.83384704589844 312.33209228515625 240.13890075683594 314.0947570800781 C 272.1625671386719 317.8567199707031 311.84014892578125 338.3699035644531 332.85711669921875 358.3793640136719 C 344.6871337890625 365.0041198730469 363.6435852050781 372.2510681152344 372.1374816894531 383.0989990234375 C 367.2586364746094 388.9006042480469 373.28009033203125 398.41192626953125 376.135986328125 401.3812561035156 C 373.8521728515625 398.8931884765625 364.1591796875 399.31781005859375 367.1334533691406 402.0980224609375 C 359.64501953125 416.4169921875 348.5200500488281 421.4281311035156 347.1290283203125 436.3742980957031" stroke-width="10.562464714050293" fill="none" stroke="rgb(255, 255, 255)" stroke-opacity="0.99" stroke-linecap="round" stroke-linejoin="round"/>
    <path d="M 335.87945556640625 436.3808898925781 C 336.75164794921875 436.65582275390625 341.6697692871094 432.9280090332031 335.86590576171875 436.39300537109375 C 334.72808837890625 435.2126159667969 331.8897399902344 432.2541198730469 324.8601379394531 421.3973693847656 C 317.83306884765625 410.5375671386719 306.6182861328125 391.76348876953125 298.85784912109375 375.402587890625 C 291.0979919433594 359.0230407714844 286.8031005859375 345.0705261230469 289.1384582519531 331.1184997558594 C 286.19287109375 322.4588317871094 284.6076354980469 319.0992126464844 284.13446044921875 315.1243896484375 C 278.3819274902344 316.4050598144531 284.311767578125 311.8202209472656 284.13446044921875 303.13031005859375 C 283.9565124511719 299.70025634765625 277.6944885253906 297.4532165527344 284.134521484375 299.406982421875 C 285.2938537597656 296.0826110839844 288.61767578125 291.6936950683594 299.85174560546875 280.1310119628906 C 316.366455078125 273.8492736816406 346.0949401855469 265.6629333496094 377.12969970703125 267.4069519042969 C 402.8821105957031 263.86981201171875 424.67926025390625 264.99365234375 447.84478759765625 265.4076843261719 C 476.2978210449219 265.82171630859375 511.39715576171875 260.2566223144531 533.8507690429688 260.1264953613281 C 561.5822143554688 259.9969482421875 571.377685546875 260.0318603515625 581.125732421875 262.125732421875 C 590.8573608398438 264.2196960449219 595.28125 273.67681884765625 602.8409423828125 277.40313720703125 C 615.68017578125 275.86102294921875 621.122802734375 279.1491394042969 625.121337890625 283.1239318847656 C 623.8386840820312 292.3681335449219 626.4176025390625 297.0054931640625 627.8372192382812 301.40625 C 629.2568359375 305.7950744628906 629.5289916992188 309.94671630859375 627.83740234375 308.12078857421875 C 626.1456298828125 311.5750732421875 622.5140991210938 319.6089782714844 623.1218872070312 322.404296875 C 613.1681518554688 319.91510009765625 607.4661865234375 322.7306823730469 602.840576171875 325.12030029296875 C 598.2150268554688 327.50994873046875 594.6779174804688 329.4737243652344 589.8397216796875 331.1183166503906 C 590.2813720703125 338.04345703125 578.886962890625 334.08770751953125 572.8402099609375 335.1166687011719 C 566.797119140625 336.1462707519531 566.1223754882812 342.17218017578125 561.1203002929688 342.3970031738281 C 551.3162231445312 342.621337890625 546.8794555664062 342.3370666503906 542.9291381835938 337.119384765625 C 543.89013671875 337.17608642578125 540.2608642578125 337.5658874511719 537.114990234375 337.11614990234375 C 533.9551391601562 336.668212890625 531.5440673828125 335.38983154296875 529.1207275390625 334.1113586425781 C 526.694580078125 332.83428955078125 525.3832397460938 331.978271484375 524.0828857421875 336.3873291015625" stroke-width="10.562464714050293" fill="none" stroke="rgb(255, 251, 251)" stroke-opacity="0.99000007" stroke-linecap="round" stroke-linejoin="round"/>
    <path d="M 341.14306640625 436.39727783203125 C 302.82830810546875 408.9291687011719 357.8033752441406 406.84124755859375 400.6125793457031 435.3475036621094 C 412.17852783203125 446.5596008300781 386.6930847167969 429.1421203613281 406.58978271484375 456.1946105957031" stroke-width="11.618694305419922" fill="none" stroke="rgb(143, 158, 184)" stroke-opacity="0.017593132" stroke-linecap="round" stroke-linejoin="round"/>
    <path d="M 910.6728515625 410.5682067871094 C 873.2867431640625 365.8230285644531 876.061767578125 385.42364501953125 880.290283203125 366.7925109863281 C 887.0106811523438 412.103759765625 862.6995849609375 443.29638671875 863.6976928710938 384.388916015625" stroke-width="10.562464714050293" fill="none" stroke="rgb(239, 98, 70)" stroke-opacity="0.51672053" stroke-linecap="round" stroke-linejoin="round"/>
    <path d="M 360.7689208984375 614.8952026367188 C 371.75518798828125 676.6859741210938 372.18621826171875 651.43994140625 380.5914001464844 607.0003051757812 C 368.53411865234375 635.2657470703125 377.20135498046875 608.0742797851562 341.04803466796875 661.1192016601562 C 365.4007263183594 644.9656982421875 346.8191833496094 644.0104370117188 343.7716064453125 669.8843994140625" stroke-width="10.562464714050293" fill="none" stroke="rgb(95, 95, 154)" stroke-opacity="0.17922094" stroke-linecap="round" stroke-linejoin="round"/>
    <path d="M 531.8370361328125 704.3937377929688 C 583.2024536132812 703.8141479492188 590.3529052734375 691.8471069335938 531.1553344726562 653.7672119140625 C 565.3286743164062 605.6839599609375 583.2526245117188 559.9228515625 554.5203247070312 618.0743408203125 C 604.3294067382812 594.9512939453125 607.9092407226562 646.3535766601562 565.2139282226562 607.6876220703125" stroke-width="11.6187105178833" fill="none" stroke="rgb(193, 78, 55)" stroke-opacity="0.9124461" stroke-linecap="round" stroke-linejoin="round"/>
    <path d="M 459.97479248046875 525.5319213867188 C 477.4088439941406 475.89288330078125 456.5089111328125 423.7253723144531 476.7426452636719 479.9342956542969 C 426.15966796875 484.8069763183594 439.00823974609375 538.2761840820312 491.261474609375 481.8821716308594" stroke-width="11.61870288848877" fill="none" stroke="rgb(147, 210, 58)" stroke-opacity="0.059401996" stroke-linecap="round" stroke-linejoin="round"/>
    <path d="M 524.1171264648438 331.1063537597656 C 578.804443359375 368.92913818359375 630.15771484375 373.07391357421875 613.4908447265625 332.0015563964844" stroke-width="10.562464714050293" fill="none" stroke="rgb(128, 107, 163)" stroke-opacity="0.44360977" stroke-linecap="round" stroke-linejoin="round"/>
    <path d="M 811.757568359375 721.6488647460938 C 762.3170776367188 691.7583618164062 743.8231811523438 688.186767578125 796.1539306640625 648.0586547851562 C 801.8511352539062 679.4951782226562 757.456298828125 673.3876953125 761.7968139648438 684.2630615234375 C 815.4139404296875 656.9192504882812 870.9654541015625 700.6502075195312 818.2993774414062 646.7080688476562" stroke-width="10.562464714050293" fill="none" stroke="rgb(139, 226, 126)" stroke-opacity="0.8283129" stroke-linecap="round" stroke-linejoin="round"/>
    <path d="M 695.3553466796875 872.0314331054688 C 655.2744750976562 873.6053466796875 703.0305786132812 895.2710571289062 710.4053955078125 930.7313232421875" stroke-width="11.618670463562012" fill="none" stroke="rgb(211, 197, 210)" stroke-opacity="0.10003933" stroke-linecap="round" stroke-linejoin="round"/>
    <path d="M 813.0185546875 651.9892578125 C 838.9862670898438 659.2781982421875 846.2490844726562 706.3948364257812 844.6370849609375 738.9419555664062 C 881.757568359375 695.8038330078125 915.0541381835938 638.7996826171875 952.7352905273438 610.8063354492188" stroke-width="11.618703842163086" fill="none" stroke="rgb(168, 52, 232)" stroke-opacity="0.45937723" stroke-linecap="round" stroke-linejoin="round"/>
    <path d="M 406.5898132324219 456.1946105957031 C 391.6131896972656 405.21612548828125 448.8420715332031 369.2502746582031 391.56768798828125 324.7910461425781 C 437.87481689453125 347.5917053222656 471.7619934082031 354.7405700683594 418.13580322265625 361.6750183105469" stroke-width="11.6187105178833" fill="none" stroke="rgb(176, 169, 146)" stroke-opacity="0.69375414" stroke-linecap="round" stroke-linejoin="round"/>
    <path d="M 496.542236328125 481.8827209472656 C 535.553955078125 477.34039306640625 507.8467712402344 419.00244140625 505.12982177734375 431.1897277832031 C 491.6280517578125 402.492431640625 537.7944946289062 414.39288330078125 528.4854736328125 367.731689453125 C 477.28411865234375 311.4399108886719 500.9615478515625 337.5241394042969 489.1290588378906 322.6754455566406" stroke-width="10.562464714050293" fill="none" stroke="rgb(135, 179, 14)" stroke-opacity="0.13756594" stroke-linecap="round" stroke-linejoin="round"/>
    <path d="M 710.4049072265625 930.7308349609375 C 649.320068359375 938.8693237304688 702.185302734375 923.4773559570312 700.3271484375 906.4356079101562 C 756.6738891601562 928.5045776367188 728.9848022460938 919.9488525390625 708.9480590820312 945.8368530273438" stroke-width="11.61870002746582" fill="none" stroke="rgb(252, 10, 70)" stroke-opacity="0.0878015" stroke-linecap="round" stroke-linejoin="round"/>
    <path d="M 496.5418701171875 481.882080078125 C 459.73699951171875 484.53656005859375 457.9568176269531 480.14373779296875 503.4245910644531 437.06219482421875" stroke-width="10.562464714050293" fill="none" stroke="rgb(219, 75, 47)" stroke-opacity="0.13039908" stroke-linecap="round" stroke-linejoin="round"/>
    <path d="M 863.6976928710938 389.669677734375 C 906.5624389648438 341.50372314453125 946.4915161132812 319.92425537109375 908.3224487304688 314.5795593261719 C 858.6329345703125 321.22515869140625 891.9012451171875 339.8658752441406 852.5931396484375 378.5937194824219 C 821.1741943359375 384.1123962402344 781.5414428710938 435.68048095703125 749.96875 428.15704345703125" stroke-width="10.562464714050293" fill="none" stroke="rgb(141, 154, 11)" stroke-opacity="0.7950578" stroke-linecap="round" stroke-linejoin="round"/>
    <path d="M 406.58978271484375 456.1946105957031 C 416.6909484863281 489.6392517089844 438.00250244140625 493.6199951171875 418.4638977050781 456.6938781738281 C 439.3288269042969 433.36199951171875 452.9118347167969 376.61004638671875 496.8946533203125 354.7869567871094" stroke-width="11.618674278259277" fill="none" stroke="rgb(71, 33, 8)" stroke-opacity="0.34027356" stroke-linecap="round" stroke-linejoin="round"/>
    <path d="M 565.2138671875 607.687744140625 C 531.8699340820312 578.7098999023438 506.2879638671875 532.4856567382812 528.46826171875 541.9136352539062 C 564.6592407226562 564.1627197265625 605.1077880859375 542.5079345703125 586.1470336914062 556.7678833007812 C 569.39892578125 559.9838256835938 620.8446655273438 511.25103759765625 581.0400390625 525.419677734375" stroke-width="10.562464714050293" fill="none" stroke="rgb(179, 62, 75)" stroke-opacity="0.108701915" stroke-linecap="round" stroke-linejoin="round"/>
    <path d="M 275.3130798339844 459.2178039550781 C 232.49331665039062 505.2176208496094 272.14202880859375 482.06439208984375 316.58526611328125 426.3117980957031 C 283.2527770996094 399.9100341796875 300.19891357421875 367.8877868652344 358.5996398925781 317.8052978515625" stroke-width="11.618706703186035" fill="none" stroke="rgb(97, 104, 203)" stroke-opacity="0.5703703" stroke-linecap="round" stroke-linejoin="round"/>
    <path d="M 1173.423828125 224.8028106689453 C 1201.20361328125 190.67831420898438 1186.7982177734375 245.61395263671875 1235.36376953125 291.9326171875 C 1219.154296875 333.1978759765625 1261.339111328125 275.2060852050781 1204.2470703125 266.9041442871094" stroke-width="10.562464714050293" fill="none" stroke="rgb(71, 93, 122)" stroke-opacity="0.5869967" stroke-linecap="round" stroke-linejoin="round"/>
    <path d="M 138.59201049804688 231.96563720703125 C 115.81820678710938 207.95384216308594 105.23332977294922 199.2243194580078 62.70665740966797 150.79904174804688 C 41.282352447509766 136.44508361816406 24.576066970825195 110.13461303710938 36.74312973022461 96.26951599121094" stroke-width="11.618709564208984" fill="none" stroke="rgb(141, 41, 80)" stroke-opacity="0.38210732" stroke-linecap="round" stroke-linejoin="round"/>
    <path d="M 864.68408203125 607.20703125 C 879.005126953125 667.7675170898438 871.9913940429688 718.3231811523438 862.762451171875 738.6027221679688 C 806.002685546875 768.168212890625 860.3963623046875 720.2420043945312 900.6672973632812 768.3423461914062 C 913.9315795898438 755.5375366210938 869.64404296875 807.4083862304688 900.0762939453125 827.2086791992188" stroke-width="10.562464714050293" fill="none" stroke="rgb(44, 167, 29)" stroke-opacity="0.57245564" stroke-linecap="round" stroke-linejoin="round"/>
    <path d="M 662.8404541015625 581.8424682617188 C 708.9684448242188 524.02783203125 761.89794921875 545.533203125 736.244873046875 603.517822265625" stroke-width="11.618707656860352" fill="none" stroke="rgb(217, 142, 145)" stroke-opacity="0.2427594" stroke-linecap="round" stroke-linejoin="round"/>
    <path d="M 249.3312530517578 387.8409118652344 C 222.69354248046875 373.7950744628906 230.26223754882812 410.1355895996094 252.38339233398438 386.70440673828125" stroke-width="10.562464714050293" fill="none" stroke="rgb(120, 66, 91)" stroke-opacity="0.0" stroke-linecap="round" stroke-linejoin="round"/>
    <path d="M 973.200927734375 328.14031982421875 C 952.2421875 385.9196472167969 897.3326416015625 415.6300354003906 876.9735717773438 463.6454772949219 C 853.3207397460938 521.8488159179688 803.144287109375 546.1422729492188 819.4774780273438 538.6036376953125 C 853.0020751953125 555.2101440429688 863.6024169921875 554.3364868164062 806.123046875 590.6388549804688" stroke-width="11.618703842163086" fill="none" stroke="rgb(241, 223, 9)" stroke-opacity="0.5383672" stroke-linecap="round" stroke-linejoin="round"/>
    <path d="M 882.7275390625 1176.679443359375 C 926.5703735351562 1229.2210693359375 950.3179321289062 1285.9608154296875 892.9342651367188 1343.98681640625 C 914.1213989257812 1339.7684326171875 956.8998413085938 1358.7218017578125 958.6417846679688 1372.240966796875 C 899.9099731445312 1403.9393310546875 850.3584594726562 1398.0567626953125 868.1976928710938 1341.8408203125" stroke-width="10.562464714050293" fill="none" stroke="rgb(55, 74, 211)" stroke-opacity="0.9604549" stroke-linecap="round" stroke-linejoin="round"/>
    <path d="M 158.50601196289062 1033.27880859375 C 130.84344482421875 1020.4252319335938 81.83775329589844 1008.5140991210938 108.44717407226562 1031.140380859375 C 82.90296173095703 1007.7109375 50.898990631103516 1040.2001953125 66.2130355834961 1012.179931640625 C 38.93111801147461 1059.296142578125 63.116817474365234 1013.1984252929688 43.53767013549805 962.7085571289062" stroke-width="10.562464714050293" fill="none" stroke="rgb(159, 231, 157)" stroke-opacity="0.22249408" stroke-linecap="round" stroke-linejoin="round"/>
    <path d="M 487.5419921875 867.30029296875 C 516.3701782226562 844.5440063476562 499.04400634765625 856.705322265625 530.8322143554688 833.8088989257812" stroke-width="10.562464714050293" fill="none" stroke="rgb(154, 42, 208)" stroke-opacity="0.3746683" stroke-linecap="round" stroke-linejoin="round"/>
    <path d="M 293.8321533203125 303.7908630371094 C 245.23963928222656 355.2392272949219 297.0803527832031 390.9105529785156 329.3713684082031 411.4962463378906 C 279.59820556640625 392.7823181152344 299.6419982910156 339.90478515625 301.90673828125 295.57611083984375" stroke-width="11.618701934814453" fill="none" stroke="rgb(38, 89, 73)" stroke-opacity="0.4616191" stroke-linecap="round" stroke-linejoin="round"/>
    <path d="M 941.8677368164062 977.7405395507812 C 903.0573120117188 918.7940063476562 916.877685546875 876.439453125 974.1978759765625 921.0205078125 C 931.351318359375 926.8720092773438 972.9132690429688 898.1504516601562 947.3184814453125 947.708984375" stroke-width="11.618709564208984" fill="none" stroke="rgb(209, 22, 92)" stroke-opacity="0.2625885" stroke-linecap="round" stroke-linejoin="round"/>
    <path d="M 794.2096557617188 881.0484619140625 C 830.6984252929688 904.5185546875 776.666259765625 886.6088256835938 776.1519775390625 913.1776123046875" stroke-width="10.562464714050293" fill="none" stroke="rgb(192, 59, 76)" stroke-opacity="0.76291376" stroke-linecap="round" stroke-linejoin="round"/>
    <path d="M 766.8511352539062 6.193472385406494 C 749.149658203125 -42.873634338378906 706.8963623046875 -50.5291748046875 656.227294921875 -71.56124114990234" stroke-width="10.562464714050293" fill="none" stroke="rgb(183, 187, 197)" stroke-opacity="0.02717902" stroke-linecap="round" stroke-linejoin="round"/>
    <path d="M 654.8801879882812 223.0579376220703 C 661.0589599609375 176.7642059326172 604.0032348632812 120.58753967285156 552.6052856445312 155.86903381347656" stroke-width="11.6187105178833" fill="none" stroke="rgb(43, 219, 186)" stroke-opacity="0.4727421" stroke-linecap="round" stroke-linejoin="round"/>
    <path d="M 508.35284423828125 457.8148193359375 C 554.4077758789062 421.5216369628906 585.7278442382812 474.0022277832031 569.2391357421875 440.8444519042969 C 590.8823852539062 478.2673645019531 557.8109741210938 482.3720703125 587.5066528320312 533.497314453125" stroke-width="11.618709564208984" fill="none" stroke="rgb(126, 101, 90)" stroke-opacity="0.885297" stroke-linecap="round" stroke-linejoin="round"/>
  </g>
</svg>
