<?xml version="1.0" ?>
<svg xmlns="http://www.w3.org/2000/svg" version="1.1" width="925.0" height="925.0">
  <defs/>
  <g>
    <path d="M 106.10993194580078 49.18699645996094 C 102.99822235107422 53.54121017456055 83.78775787353516 57.192596435546875 82.00398254394531 58.276981353759766 C 80.2217025756836 59.71622848510742 77.82130432128906 71.33625030517578 79.96109771728516 73.25262451171875 C 82.19378662109375 75.05549621582031 90.65106201171875 70.84919738769531 96.30774688720703 75.8009033203125 C 108.83039855957031 86.6118392944336 112.43904876708984 98.81088256835938 129.29217529296875 73.70636749267578 C 130.82554626464844 72.1283187866211 143.43038940429688 76.705810546875 144.55792236328125 75.16548919677734 C 145.48170471191406 73.64732360839844 148.1970977783203 63.13802719116211 144.09613037109375 61.09348678588867 C 140.17852783203125 58.8710823059082 120.50967407226562 53.0471305847168 119.20022583007812 49.999534606933594 C 117.66438293457031 46.74013137817383 119.8212661743164 42.23960494995117 112.87653350830078 42.055240631103516 C 106.1817626953125 41.962032318115234 107.69110107421875 43.82685089111328 107.02523040771484 47.03031921386719" stroke-width="6.198304653167725" fill="none" stroke="rgb(242, 206, 162)" stroke-opacity="1.0" stroke-linecap="round" stroke-linejoin="round"/>
    <path d="M 112.77516174316406 50.459842681884766 C 111.59561157226562 56.94431686401367 86.46852111816406 59.743370056152344 89.12344360351562 67.47706604003906 C 110.20569610595703 68.62549591064453 109.50176239013672 94.20410919189453 127.14142608642578 75.0040283203125 C 130.22872924804688 71.67156219482422 135.87808227539062 69.15367889404297 135.22547912597656 68.51807403564453 C 134.6847686767578 67.72662353515625 111.85443878173828 56.66252136230469 113.55281829833984 55.25750732421875" stroke-width="13.902018547058105" fill="none" stroke="rgb(236, 211, 163)" stroke-opacity="1.0" stroke-linecap="round" stroke-linejoin="round"/>
    <path d="M 111.15367126464844 69.523193359375 C 105.67339324951172 74.09066772460938 108.51882934570312 88.85941314697266 109.75275421142578 88.68555450439453 C 110.30162811279297 88.0811767578125 113.84742736816406 72.20308685302734 113.97895050048828 69.92339324951172 C 114.71437072753906 68.23036193847656 103.9028091430664 71.45057678222656 104.15520477294922 72.26844024658203" stroke-width="25.146923065185547" fill="none" stroke="rgb(242, 213, 162)" stroke-opacity="1.0" stroke-linecap="round" stroke-linejoin="round"/>
    <path d="M 73.75334167480469 66.52978515625 C 73.89599609375 72.19343566894531 73.9098892211914 76.61833190917969 73.87462615966797 76.79515075683594 C 74.9158706665039 75.56021118164062 73.54743957519531 70.05050659179688 75.3419418334961 70.76307678222656 C 77.0369873046875 70.56551361083984 76.18091583251953 76.0220718383789 77.16736602783203 74.7159652709961 C 78.20799255371094 74.14337158203125 77.1219253540039 70.16209411621094 79.9810562133789 71.60985565185547 C 82.11766815185547 73.1098403930664 82.10725402832031 75.73382568359375 84.1413803100586 74.36894989013672 C 86.20733642578125 72.29309844970703 86.71489715576172 71.88277435302734 87.56365966796875 73.32149505615234" stroke-width="5.461612224578857" fill="none" stroke="rgb(0, 116, 204)" stroke-opacity="1.0" stroke-linecap="round" stroke-linejoin="round"/>
    <path d="M 86.41061401367188 78.9782943725586 C 102.89380645751953 77.4664306640625 101.25167846679688 77.41191864013672 105.90709686279297 81.48381042480469 C 109.1794662475586 84.42424011230469 130.1992645263672 99.95983123779297 129.19544982910156 102.55130767822266 C 128.20252990722656 105.15528106689453 128.1441650390625 107.50826263427734 118.93694305419922 106.5889663696289 C 109.24422454833984 105.15487670898438 94.93984985351562 105.81947326660156 94.34147644042969 103.67298126220703 C 93.6854248046875 101.52425384521484 88.25091552734375 81.91441345214844 89.14601135253906 81.4873275756836 C 90.55958557128906 81.5662612915039 100.96623992919922 82.47757720947266 103.8055191040039 84.84945678710938 C 106.11621856689453 87.75395202636719 124.59024810791016 100.78654479980469 123.7038345336914 101.0718994140625 C 122.85032653808594 101.93377685546875 100.37513732910156 102.36856079101562 98.9969482421875 101.06797790527344 C 97.61428833007812 100.20184326171875 92.32563781738281 89.3341064453125 94.80754852294922 87.05074310302734 C 96.77679443359375 85.24771881103516 115.84934997558594 98.5809326171875 115.38831329345703 98.58192443847656 C 115.06198120117188 99.03829956054688 104.8615951538086 99.07752227783203 103.28964233398438 98.17404174804688 C 100.65145874023438 96.88396453857422 98.84439086914062 93.63336944580078 100.10205841064453 92.90493774414062 C 100.68933868408203 91.33901977539062 103.98189544677734 96.96146392822266 104.641845703125 95.73806762695312" stroke-width="4.924986839294434" fill="none" stroke="rgb(0, 115, 204)" stroke-opacity="1.0" stroke-linecap="round" stroke-linejoin="round"/>
    <path d="M 116.89045715332031 81.726806640625 C 123.61451721191406 76.3544692993164 129.23731994628906 75.0663070678711 133.91213989257812 76.10331726074219 C 138.35255432128906 77.7283706665039 132.831787109375 95.94932556152344 131.91673278808594 97.70999145507812 C 131.01710510253906 98.18620300292969 121.494384765625 87.00694274902344 120.91908264160156 85.75170135498047 C 120.34900665283203 83.9438705444336 129.9388427734375 78.3741226196289 129.61082458496094 80.58271026611328 C 131.2228546142578 80.83509826660156 132.0906524658203 89.66425323486328 131.1971893310547 89.15515899658203 C 129.74777221679688 89.2317886352539 124.55491638183594 85.950927734375 126.46481323242188 84.3548355102539 C 128.23089599609375 82.85293579101562 127.76958465576172 83.64381408691406 128.1039581298828 84.85423278808594" stroke-width="5.447091102600098" fill="none" stroke="rgb(0, 115, 205)" stroke-opacity="1.0" stroke-linecap="round" stroke-linejoin="round"/>
    <path d="M 139.17330932617188 71.79467010498047 C 148.1534423828125 66.12017059326172 150.48297119140625 62.76252365112305 149.92372131347656 64.33489990234375 C 149.3162841796875 65.90750885009766 147.9903564453125 68.5104751586914 147.01588439941406 69.14463806152344 C 146.07115173339844 70.71675872802734 148.15194702148438 73.91748046875 146.32127380371094 74.16412353515625 C 143.6336669921875 74.3996810913086 139.1102294921875 74.5136947631836 140.32720947265625 73.40570068359375 C 142.6952667236328 72.30406951904297 144.15264892578125 73.2351303100586 145.06494140625 71.37682342529297" stroke-width="5.461881637573242" fill="none" stroke="rgb(0, 116, 204)" stroke-opacity="1.0" stroke-linecap="round" stroke-linejoin="round"/>
    <path d="M 93.60712432861328 109.58972930908203 C 105.90987396240234 111.35147094726562 113.1725082397461 111.92301940917969 118.41063690185547 111.55230712890625 C 122.12709045410156 111.16117858886719 128.99708557128906 110.9977798461914 131.73443603515625 109.52031707763672" stroke-width="4.903535842895508" fill="none" stroke="rgb(0, 116, 204)" stroke-opacity="1.0" stroke-linecap="round" stroke-linejoin="round"/>
    <path d="M 75.99541473388672 60.857810974121094 C 76.90234375 64.26821899414062 76.97358703613281 70.3426284790039 87.07164001464844 70.65009307861328 C 97.16492462158203 72.25275421142578 99.56803894042969 71.8967056274414 104.49037170410156 74.79907989501953 C 108.12836456298828 78.9852066040039 129.4748077392578 97.61620330810547 132.60462951660156 99.82203674316406 C 135.808349609375 107.5701904296875 128.0039825439453 108.28621673583984 118.41529083251953 108.60997009277344 C 108.87904357910156 110.27202606201172 92.40315246582031 107.7183609008789 92.2691650390625 105.83656311035156 C 90.74739837646484 105.20313262939453 86.4990463256836 80.70757293701172 84.0265884399414 78.08592987060547" stroke-width="3.1431167125701904" fill="none" stroke="rgb(0, 12, 90)" stroke-opacity="1.0" stroke-linecap="round" stroke-linejoin="round"/>
    <path d="M 75.29635620117188 59.789833068847656 C 72.86917114257812 62.59858703613281 70.9795913696289 67.04640197753906 71.28726959228516 69.8737564086914 C 70.2809829711914 69.99006652832031 69.25516510009766 73.21149444580078 72.17191314697266 73.60309600830078 C 73.7505111694336 73.97984313964844 72.52189636230469 78.74286651611328 74.10609436035156 80.49765014648438 C 75.69951629638672 80.873779296875 81.8930892944336 77.7554702758789 90.51963806152344 75.91163635253906 C 97.78983306884766 72.70420837402344 99.44218444824219 73.10111999511719 102.56816101074219 74.34465789794922" stroke-width="2.6021335124969482" fill="none" stroke="rgb(0, 12, 90)" stroke-opacity="1.0" stroke-linecap="round" stroke-linejoin="round"/>
    <path d="M 113.56822204589844 82.39559936523438 C 118.1164321899414 78.44145202636719 121.75847625732422 72.8506851196289 126.6322021484375 72.32046508789062 C 132.74560546875 72.68173217773438 140.20358276367188 73.12507629394531 140.495361328125 78.2723159790039 C 139.73748779296875 83.41801452636719 133.67288208007812 102.11248779296875 132.74403381347656 104.94954681396484" stroke-width="2.5982682704925537" fill="none" stroke="rgb(2, 12, 89)" stroke-opacity="1.0" stroke-linecap="round" stroke-linejoin="round"/>
    <path d="M 134.33343505859375 72.97388458251953 C 147.21182250976562 63.521881103515625 147.81863403320312 63.762611389160156 151.23568725585938 61.68292236328125" stroke-width="2.604283094406128" fill="none" stroke="rgb(0, 3, 99)" stroke-opacity="1.0" stroke-linecap="round" stroke-linejoin="round"/>
    <path d="M 149.6918182373047 61.39043426513672 C 152.68270874023438 62.60478973388672 157.8370361328125 60.39356231689453 155.51025390625 65.4389419555664 C 153.33563232421875 69.18002319335938 151.6990509033203 67.2274398803711 151.63990783691406 70.46762084960938 C 152.94827270507812 73.70960235595703 150.49740600585938 70.94982147216797 150.1690216064453 72.8328628540039 C 148.47747802734375 76.09065246582031 146.43081665039062 79.33688354492188 138.48443603515625 77.18641662597656" stroke-width="3.1285011768341064" fill="none" stroke="rgb(0, 3, 98)" stroke-opacity="1.0" stroke-linecap="round" stroke-linejoin="round"/>
    <path d="M 91.58963012695312 105.3989486694336 C 92.01429748535156 114.23082733154297 91.18305206298828 112.80731964111328 94.63711547851562 113.41578674316406 C 96.73595428466797 113.9219970703125 130.2678985595703 115.58792114257812 131.1918182373047 112.26338195800781 C 136.316650390625 109.01009368896484 134.9783172607422 107.46162414550781 133.27944946289062 105.57830047607422" stroke-width="2.5995969772338867" fill="none" stroke="rgb(0, 14, 99)" stroke-opacity="1.0" stroke-linecap="round" stroke-linejoin="round"/>
    <path d="M 171.3527374267578 6.240132808685303 C 180.65269470214844 6.062325477600098 191.3804168701172 7.054028034210205 201.97044372558594 7.866405963897705 C 205.7422332763672 6.7534027099609375 208.17848205566406 7.069192886352539 209.23448181152344 8.636441230773926 C 209.47657775878906 8.6404390335083 211.5408477783203 9.026803970336914 211.67901611328125 9.349167823791504 C 212.09962463378906 9.151871681213379 210.16940307617188 10.624953269958496 210.81532287597656 12.45492172241211 C 207.70700073242188 14.821039199829102 205.99948120117188 13.688606262207031 202.83407592773438 11.414758682250977 C 201.587646484375 11.021080017089844 197.9703826904297 11.16328239440918 196.65634155273438 11.172646522521973" stroke-width="2.0" fill="none" stroke="rgb(19, 19, 28)" stroke-opacity="1.0" stroke-linecap="round" stroke-linejoin="round"/>
    <path d="M 78.11483764648438 72.5699691772461 C 77.4034652709961 65.86565399169922 84.23833465576172 60.12174987792969 75.73008728027344 65.64270782470703" stroke-width="2.0" fill="none" stroke="rgb(152, 110, 234)" stroke-opacity="0.08199586" stroke-linecap="round" stroke-linejoin="round"/>
    <path d="M 113.84268951416016 101.47230529785156 C 105.85284423828125 111.61412811279297 97.01686096191406 99.64585876464844 91.5552978515625 89.20431518554688 C 90.73385620117188 91.03312683105469 83.71763610839844 93.43486022949219 70.62352752685547 96.26390075683594 C 74.54412078857422 105.58335876464844 67.66571807861328 117.74938201904297 77.26437377929688 104.950927734375" stroke-width="2.0" fill="none" stroke="rgb(79, 57, 198)" stroke-opacity="0.08836904" stroke-linecap="round" stroke-linejoin="round"/>
    <path d="M 150.76425170898438 63.082908630371094 C 147.45838928222656 62.24787139892578 136.8790283203125 54.26681137084961 132.80984497070312 58.52308654785156 C 133.86302185058594 54.493106842041016 144.50730895996094 54.98624038696289 137.0383758544922 56.5505256652832" stroke-width="2.0428407192230225" fill="none" stroke="rgb(213, 145, 156)" stroke-opacity="0.883251" stroke-linecap="round" stroke-linejoin="round"/>
    <path d="M 88.72329711914062 81.51570129394531 C 95.93974304199219 71.85790252685547 101.87971496582031 72.33650970458984 102.49925994873047 73.4117660522461 C 96.4793930053711 68.46226501464844 87.61846923828125 57.439998626708984 82.20343017578125 68.7780990600586 C 92.92919921875 69.20268249511719 92.03915405273438 73.8283462524414 92.94458770751953 82.25950622558594" stroke-width="2.524069309234619" fill="none" stroke="rgb(149, 116, 146)" stroke-opacity="0.43638486" stroke-linecap="round" stroke-linejoin="round"/>
    <path d="M 76.47437286376953 104.12107849121094 C 74.83812713623047 113.75861358642578 69.69229125976562 108.67558288574219 70.5230484008789 103.70526885986328" stroke-width="2.0" fill="none" stroke="rgb(124, 149, 150)" stroke-opacity="0.5974586" stroke-linecap="round" stroke-linejoin="round"/>
    <path d="M 75.28678131103516 102.57025146484375 C 78.52476501464844 108.27326202392578 68.12274932861328 119.14212036132812 65.566650390625 133.724365234375 C 76.83572387695312 120.9547348022461 79.025146484375 122.18217468261719 81.19801330566406 117.7319564819336" stroke-width="3.0796923637390137" fill="none" stroke="rgb(214, 109, 110)" stroke-opacity="1.0" stroke-linecap="round" stroke-linejoin="round"/>
    <path d="M 75.8359146118164 65.79913330078125 C 86.98190307617188 69.75814056396484 92.40862274169922 70.09645080566406 88.4756088256836 82.68006134033203 C 89.79759216308594 75.81117248535156 90.09741973876953 86.1839828491211 84.334228515625 92.88545227050781" stroke-width="2.5086469650268555" fill="none" stroke="rgb(140, 78, 161)" stroke-opacity="0.3642319" stroke-linecap="round" stroke-linejoin="round"/>
    <path d="M 76.86064147949219 104.71322631835938 C 72.22867584228516 104.95926666259766 76.83161926269531 93.56253814697266 75.37442016601562 88.98823547363281" stroke-width="2.5796871185302734" fill="none" stroke="rgb(226, 96, 48)" stroke-opacity="0.72171146" stroke-linecap="round" stroke-linejoin="round"/>
    <path d="M 132.36251831054688 56.45841979980469 C 128.86708068847656 50.97068786621094 133.2307891845703 40.05439376831055 127.5248031616211 44.893985748291016 C 120.0240249633789 50.52874755859375 119.56278991699219 55.72537612915039 119.25059509277344 66.04069519042969 C 118.44682312011719 72.59717559814453 115.30530548095703 80.46666717529297 121.2485122680664 81.63089752197266" stroke-width="2.0" fill="none" stroke="rgb(81, 216, 155)" stroke-opacity="0.32191402" stroke-linecap="round" stroke-linejoin="round"/>
    <path d="M 185.39247131347656 33.24699020385742 C 191.92820739746094 32.31513214111328 193.96507263183594 39.36626052856445 193.73150634765625 39.87221145629883 C 188.70838928222656 36.832366943359375 195.614990234375 32.0091552734375 197.04429626464844 38.121673583984375" stroke-width="2.0" fill="none" stroke="rgb(50, 218, 181)" stroke-opacity="0.021220729" stroke-linecap="round" stroke-linejoin="round"/>
    <path d="M 100.43023681640625 195.4545135498047 C 93.0887451171875 202.13218688964844 87.25078582763672 193.49081420898438 93.71305084228516 202.50515747070312 C 85.28262329101562 195.80130004882812 93.10081481933594 204.15589904785156 95.7135238647461 193.69607543945312 C 100.02186584472656 186.65988159179688 92.08441162109375 192.70384216308594 85.68461608886719 199.27532958984375" stroke-width="2.4469311237335205" fill="none" stroke="rgb(200, 111, 118)" stroke-opacity="0.051150844" stroke-linecap="round" stroke-linejoin="round"/>
    <path d="M 3.348123550415039 156.38592529296875 C 10.226383209228516 158.64808654785156 19.264301300048828 169.44117736816406 21.581539154052734 171.71925354003906" stroke-width="3.0570623874664307" fill="none" stroke="rgb(191, 26, 22)" stroke-opacity="0.91476256" stroke-linecap="round" stroke-linejoin="round"/>
    <path d="M 40.628257751464844 55.3754768371582 C 37.458770751953125 54.408203125 43.6987419128418 60.444602966308594 48.962120056152344 60.09520721435547 C 50.434818267822266 71.74979400634766 56.52772903442383 70.93769836425781 68.37911987304688 65.54536437988281 C 72.98748016357422 62.758365631103516 69.25374603271484 65.34394836425781 81.01925659179688 56.58195877075195" stroke-width="2.0" fill="none" stroke="rgb(42, 169, 233)" stroke-opacity="0.87158155" stroke-linecap="round" stroke-linejoin="round"/>
    <path d="M 204.63729858398438 41.21121597290039 C 205.62216186523438 42.77906799316406 197.9822540283203 40.345516204833984 203.59815979003906 39.821632385253906 C 193.1414337158203 40.991050720214844 195.7216339111328 34.430870056152344 199.06419372558594 34.16639709472656 C 194.17620849609375 40.71657943725586 187.24444580078125 51.18722152709961 182.52365112304688 55.78361129760742" stroke-width="2.0" fill="none" stroke="rgb(154, 125, 68)" stroke-opacity="0.40611207" stroke-linecap="round" stroke-linejoin="round"/>
    <path d="M 195.9480438232422 151.059814453125 C 193.40036010742188 139.56741333007812 189.17018127441406 142.50274658203125 194.78233337402344 146.45912170410156 C 187.29119873046875 152.5467071533203 186.315673828125 145.54502868652344 181.55482482910156 151.9561004638672" stroke-width="2.0" fill="none" stroke="rgb(182, 230, 130)" stroke-opacity="0.10298152" stroke-linecap="round" stroke-linejoin="round"/>
    <path d="M 11.246038436889648 33.43010711669922 C 7.724893093109131 41.5346794128418 0.8053451180458069 39.7799072265625 -2.205686092376709 46.43628692626953 C 0.7070691585540771 41.40650177001953 -0.06838694214820862 50.33908462524414 10.046576499938965 41.384029388427734" stroke-width="2.0" fill="none" stroke="rgb(228, 104, 91)" stroke-opacity="0.9385419" stroke-linecap="round" stroke-linejoin="round"/>
    <path d="M 190.1962890625 51.6252555847168 C 203.7925262451172 52.11259460449219 197.71795654296875 52.68603515625 198.44851684570312 42.94066619873047" stroke-width="2.0" fill="none" stroke="rgb(92, 64, 217)" stroke-opacity="0.68488103" stroke-linecap="round" stroke-linejoin="round"/>
    <path d="M 202.3072967529297 16.540203094482422 C 202.45162963867188 25.981027603149414 201.3380584716797 27.107492446899414 200.9187774658203 35.750465393066406" stroke-width="2.0" fill="none" stroke="rgb(211, 238, 78)" stroke-opacity="0.939792" stroke-linecap="round" stroke-linejoin="round"/>
  </g>
</svg>
