<?xml version="1.0" ?>
<svg xmlns="http://www.w3.org/2000/svg" version="1.1" width="956.0" height="956.0">
  <defs/>
  <g>
    <path d="M 66.38365173339844 38.319915771484375 C 70.7023696899414 37.63505172729492 69.23216247558594 42.91025924682617 69.27428436279297 46.15670394897461 C 69.88027954101562 48.02971649169922 69.31224822998047 49.536155700683594 69.44676208496094 51.45777130126953 C 69.24896240234375 50.916812896728516 69.64513397216797 51.597415924072266 70.15348815917969 53.232357025146484 C 70.12067413330078 57.46705627441406 68.15178680419922 60.84782028198242 65.11758422851562 62.62881088256836 C 62.75685119628906 70.41292572021484 58.96110534667969 75.08219909667969 54.54847717285156 81.32416534423828 C 52.06706619262695 83.75177001953125 48.74155044555664 85.29055786132812 43.883541107177734 85.69627380371094 C 43.44977569580078 86.16648864746094 42.43779373168945 86.82991027832031 40.84089660644531 86.68254852294922 C 38.82695388793945 85.40049743652344 37.44041442871094 82.31336975097656 37.535125732421875 79.65007781982422 C 36.137962341308594 72.17586517333984 36.097373962402344 63.91994094848633 35.869285583496094 58.059268951416016 C 36.35696792602539 56.342201232910156 36.67789840698242 48.578975677490234 38.089542388916016 47.68384552001953 C 39.5787353515625 48.903053283691406 40.727577209472656 50.48579025268555 42.46467971801758 50.599578857421875 C 45.059593200683594 51.343807220458984 46.47648620605469 54.1458625793457 48.10858917236328 55.28566360473633" stroke-width="1.3612006902694702" fill="none" stroke="rgb(33, 14, 14)" stroke-opacity="1.0" stroke-linecap="round" stroke-linejoin="round"/>
    <path d="M 65.39090728759766 38.25064468383789 C 64.11735534667969 38.63999938964844 58.59230041503906 36.554473876953125 56.76254653930664 41.32527542114258 C 51.97945022583008 43.505462646484375 50.30913543701172 41.75761413574219 47.680625915527344 36.92791748046875 C 54.140235900878906 39.17755889892578 48.79036331176758 35.29409408569336 52.14524459838867 36.834327697753906" stroke-width="1.0892857313156128" fill="none" stroke="rgb(45, 131, 75)" stroke-opacity="0.93087626" stroke-linecap="round" stroke-linejoin="round"/>
    <path d="M 41.86769104003906 50.0388069152832 C 38.834991455078125 47.26130676269531 41.68662643432617 49.89198303222656 41.0106201171875 53.87801742553711 C 46.09883117675781 58.97760009765625 42.7579231262207 53.84306335449219 48.41914367675781 48.692237854003906 C 45.89596939086914 51.368621826171875 43.24623489379883 54.133209228515625 46.3751106262207 51.59880065917969" stroke-width="1.156612515449524" fill="none" stroke="rgb(120, 105, 221)" stroke-opacity="0.87375814" stroke-linecap="round" stroke-linejoin="round"/>
    <path d="M 40.77965545654297 86.78083801269531 C 38.47234344482422 83.40702056884766 32.7374267578125 86.47306060791016 37.615318298339844 86.21256256103516" stroke-width="1.2186295986175537" fill="none" stroke="rgb(18, 186, 208)" stroke-opacity="0.094104216" stroke-linecap="round" stroke-linejoin="round"/>
    <path d="M 49.74678421020508 55.440650939941406 C 47.513145446777344 55.403404235839844 52.41007614135742 55.17577362060547 51.44496536254883 50.37596130371094" stroke-width="1.0909335613250732" fill="none" stroke="rgb(142, 215, 45)" stroke-opacity="0.8710544" stroke-linecap="round" stroke-linejoin="round"/>
    <path d="M 69.37450408935547 50.11849594116211 C 63.527740478515625 49.62070846557617 65.55535125732422 43.7870979309082 70.01724243164062 38.43775177001953 C 69.80941009521484 40.1540412902832 75.82781219482422 36.5064811706543 73.5625991821289 36.3813362121582" stroke-width="1.1765350103378296" fill="none" stroke="rgb(221, 117, 64)" stroke-opacity="0.8023429" stroke-linecap="round" stroke-linejoin="round"/>
    <path d="M 70.42371368408203 51.494667053222656 C 67.41854858398438 52.93104553222656 64.60763549804688 56.774288177490234 65.23336791992188 62.373924255371094 C 71.25009155273438 61.477867126464844 70.39625549316406 66.01317596435547 70.46796417236328 70.72036743164062" stroke-width="1.4941926002502441" fill="none" stroke="rgb(193, 0, 39)" stroke-opacity="0.15046968" stroke-linecap="round" stroke-linejoin="round"/>
    <path d="M 70.2109603881836 46.0400390625 C 68.52445220947266 46.110286712646484 67.15975952148438 50.5078010559082 70.10316467285156 50.021846771240234" stroke-width="1.2104911804199219" fill="none" stroke="rgb(231, 17, 26)" stroke-opacity="0.4743268" stroke-linecap="round" stroke-linejoin="round"/>
    <path d="M 41.720237731933594 50.75931930541992 C 44.25390625 53.01661682128906 48.355953216552734 51.352928161621094 52.21181106567383 52.069854736328125" stroke-width="1.0892857313156128" fill="none" stroke="rgb(7, 56, 187)" stroke-opacity="0.49170884" stroke-linecap="round" stroke-linejoin="round"/>
    <path d="M 37.736148834228516 86.20915222167969 C 38.3040657043457 81.09090423583984 37.58094024658203 77.5580825805664 42.04764938354492 77.70433044433594 C 42.798439025878906 74.51685333251953 41.90574264526367 74.58574676513672 42.44639205932617 70.17774200439453" stroke-width="1.4860111474990845" fill="none" stroke="rgb(116, 225, 23)" stroke-opacity="0.8330018" stroke-linecap="round" stroke-linejoin="round"/>
    <path d="M 70.18097686767578 50.30965805053711 C 68.61003875732422 55.186771392822266 62.361446380615234 50.52139663696289 55.69895935058594 54.4693603515625 C 57.45806121826172 55.264671325683594 55.43355178833008 57.697750091552734 53.061092376708984 56.3332633972168" stroke-width="1.0892857313156128" fill="none" stroke="rgb(49, 18, 97)" stroke-opacity="0.87363625" stroke-linecap="round" stroke-linejoin="round"/>
    <path d="M 52.02079391479492 36.717464447021484 C 52.642333984375 41.12824630737305 55.82221984863281 35.25769805908203 51.172889709472656 34.55446243286133 C 54.44786071777344 38.428646087646484 52.376895904541016 45.195953369140625 52.86359786987305 46.79279327392578 C 50.77902603149414 48.903324127197266 52.41962814331055 43.5576057434082 58.2401237487793 38.48554992675781" stroke-width="1.0892857313156128" fill="none" stroke="rgb(65, 204, 248)" stroke-opacity="0.14291926" stroke-linecap="round" stroke-linejoin="round"/>
    <path d="M 37.51947021484375 86.0757064819336 C 42.07585906982422 84.0746078491211 38.97465515136719 84.41644287109375 41.97591781616211 89.33606719970703 C 44.45481491088867 91.60894012451172 49.103458404541016 97.25067138671875 46.094329833984375 93.19685363769531" stroke-width="1.0892857313156128" fill="none" stroke="rgb(148, 137, 255)" stroke-opacity="0.3232183" stroke-linecap="round" stroke-linejoin="round"/>
    <path d="M 53.128334045410156 50.79155349731445 C 58.51057815551758 43.987091064453125 60.18010330200195 48.265113830566406 54.38505935668945 51.000701904296875 C 59.24522399902344 49.0993537902832 59.39348220825195 48.94717788696289 58.05284881591797 44.09297561645508" stroke-width="1.2815338373184204" fill="none" stroke="rgb(33, 225, 247)" stroke-opacity="0.5798524" stroke-linecap="round" stroke-linejoin="round"/>
    <path d="M 72.8954086303711 35.99678421020508 C 77.20587158203125 41.4052619934082 72.61917877197266 39.64223861694336 70.0244369506836 42.961570739746094 C 66.23117065429688 39.03945541381836 62.107574462890625 43.06779861450195 57.646629333496094 41.39156723022461" stroke-width="1.491586685180664" fill="none" stroke="rgb(191, 31, 137)" stroke-opacity="0.18875301" stroke-linecap="round" stroke-linejoin="round"/>
    <path d="M 52.28592300415039 51.06957244873047 C 50.33155059814453 48.687347412109375 47.97316360473633 42.63410568237305 51.200931549072266 45.906158447265625 C 54.60575485229492 43.193721771240234 55.722408294677734 40.79607009887695 54.07463836669922 37.22779846191406 C 52.48786163330078 33.50094985961914 53.384910583496094 38.569068908691406 53.715797424316406 38.102333068847656" stroke-width="1.0892857313156128" fill="none" stroke="rgb(50, 123, 194)" stroke-opacity="0.28142226" stroke-linecap="round" stroke-linejoin="round"/>
    <path d="M 46.43318176269531 51.56288146972656 C 46.54814910888672 55.08901596069336 46.603118896484375 50.171531677246094 52.81177520751953 45.298526763916016 C 54.581932067871094 49.8343505859375 55.47123718261719 50.42726135253906 52.7044563293457 50.265228271484375" stroke-width="1.3266998529434204" fill="none" stroke="rgb(53, 72, 167)" stroke-opacity="0.87568766" stroke-linecap="round" stroke-linejoin="round"/>
    <path d="M 108.76142883300781 51.33869552612305 C 105.65422058105469 56.63090133666992 104.64985656738281 56.694793701171875 100.20360565185547 60.640647888183594 C 96.46946716308594 54.64765167236328 100.30416870117188 50.031707763671875 96.47346496582031 51.78678512573242 C 102.73109436035156 56.38886642456055 97.66602325439453 61.093631744384766 99.51927947998047 64.69679260253906" stroke-width="1.3839125633239746" fill="none" stroke="rgb(206, 102, 238)" stroke-opacity="0.3905137" stroke-linecap="round" stroke-linejoin="round"/>
    <path d="M 81.59955596923828 76.02053833007812 C 79.42687225341797 72.73859405517578 80.5213851928711 73.00436401367188 79.05279541015625 67.86073303222656" stroke-width="1.0892857313156128" fill="none" stroke="rgb(46, 54, 82)" stroke-opacity="0.20483159" stroke-linecap="round" stroke-linejoin="round"/>
    <path d="M 37.83137893676758 34.39005661010742 C 40.1768913269043 36.762672424316406 45.01344680786133 31.987720489501953 49.11261749267578 30.40260887145996 C 51.13541030883789 35.93576431274414 47.60565948486328 34.353912353515625 51.17140197753906 33.48172378540039" stroke-width="1.0892857313156128" fill="none" stroke="rgb(71, 113, 30)" stroke-opacity="0.9009778" stroke-linecap="round" stroke-linejoin="round"/>
    <path d="M 44.196563720703125 103.18255615234375 C 41.02136993408203 107.41827392578125 39.468990325927734 106.75980377197266 35.330039978027344 102.86747741699219 C 34.115936279296875 108.45406341552734 29.083526611328125 108.63507080078125 27.26385498046875 107.28429412841797" stroke-width="1.0892857313156128" fill="none" stroke="rgb(42, 82, 15)" stroke-opacity="0.24488762" stroke-linecap="round" stroke-linejoin="round"/>
    <path d="M 27.483287811279297 34.002201080322266 C 30.318819046020508 33.30203628540039 25.613080978393555 28.08203887939453 30.061622619628906 20.98096466064453" stroke-width="1.4198123216629028" fill="none" stroke="rgb(255, 88, 121)" stroke-opacity="0.63409907" stroke-linecap="round" stroke-linejoin="round"/>
    <path d="M 74.83609008789062 3.1113877296447754 C 70.10753631591797 2.7897636890411377 70.70863342285156 6.9822306632995605 66.44514465332031 7.536869525909424 C 67.02963256835938 10.91102123260498 70.68639373779297 15.994851112365723 71.17552947998047 20.46535301208496 C 69.76200103759766 15.780012130737305 68.53569030761719 14.080595016479492 66.83414459228516 9.168319702148438" stroke-width="1.0892857313156128" fill="none" stroke="rgb(68, 99, 50)" stroke-opacity="0.6020046" stroke-linecap="round" stroke-linejoin="round"/>
    <path d="M 64.47193908691406 37.29221725463867 C 69.29830169677734 32.80463790893555 68.15422821044922 28.61522674560547 68.50457763671875 32.348655700683594 C 70.56587982177734 33.751014709472656 66.98299407958984 32.10216522216797 69.16529846191406 32.70618438720703" stroke-width="1.0892857313156128" fill="none" stroke="rgb(48, 193, 41)" stroke-opacity="0.2491355" stroke-linecap="round" stroke-linejoin="round"/>
    <path d="M 1.6928523778915405 71.29798889160156 C 0.3162957429885864 71.42262268066406 3.6652352809906006 71.1801528930664 -1.9823591709136963 68.32161712646484" stroke-width="1.0892857313156128" fill="none" stroke="rgb(219, 136, 72)" stroke-opacity="0.07700793" stroke-linecap="round" stroke-linejoin="round"/>
    <path d="M 14.365087509155273 67.8880386352539 C 15.664778709411621 72.2880630493164 11.203539848327637 74.48226928710938 13.136813163757324 74.90887451171875 C 9.277349472045898 71.6214370727539 8.038460731506348 71.89704895019531 12.682387351989746 74.75028991699219 C 10.275604248046875 73.3140869140625 4.58951473236084 77.68724060058594 5.257699012756348 74.93338775634766" stroke-width="1.0892857313156128" fill="none" stroke="rgb(99, 236, 124)" stroke-opacity="0.57350874" stroke-linecap="round" stroke-linejoin="round"/>
    <path d="M 87.55371856689453 107.8503646850586 C 86.90550994873047 107.68401336669922 82.06243896484375 104.63291931152344 84.1630630493164 103.419677734375" stroke-width="1.0892857313156128" fill="none" stroke="rgb(11, 94, 205)" stroke-opacity="0.0" stroke-linecap="round" stroke-linejoin="round"/>
    <path d="M 8.79153823852539 82.842529296875 C 8.133438110351562 82.67438507080078 11.428484916687012 85.2046890258789 7.170173645019531 87.18228912353516" stroke-width="1.0892857313156128" fill="none" stroke="rgb(122, 12, 116)" stroke-opacity="0.0899722" stroke-linecap="round" stroke-linejoin="round"/>
    <path d="M 112.84815979003906 104.47672271728516 C 111.97504425048828 109.74931335449219 117.91754150390625 107.76824188232422 111.40947723388672 109.1408920288086" stroke-width="1.0892857313156128" fill="none" stroke="rgb(171, 193, 133)" stroke-opacity="0.87711346" stroke-linecap="round" stroke-linejoin="round"/>
    <path d="M 72.25989532470703 91.04080963134766 C 74.06422424316406 89.69684600830078 75.84446716308594 93.06306457519531 78.8687515258789 95.54647827148438" stroke-width="1.0892857313156128" fill="none" stroke="rgb(5, 200, 93)" stroke-opacity="0.50830907" stroke-linecap="round" stroke-linejoin="round"/>
    <path d="M 90.0772933959961 26.173242568969727 C 95.03699493408203 28.67302703857422 89.4204330444336 26.56930160522461 83.12033081054688 23.74100112915039 C 85.66941833496094 23.764102935791016 83.34256744384766 21.785375595092773 85.9986343383789 15.325536727905273 C 84.02920532226562 16.505725860595703 84.00971984863281 17.096240997314453 86.7642822265625 14.837783813476562" stroke-width="1.0892857313156128" fill="none" stroke="rgb(92, 124, 220)" stroke-opacity="0.8473082" stroke-linecap="round" stroke-linejoin="round"/>
    <path d="M 34.82045364379883 62.07535934448242 C 40.898948669433594 56.10831832885742 37.38066864013672 56.227657318115234 39.765655517578125 59.93110275268555 C 40.036460876464844 62.332298278808594 44.416290283203125 63.10851287841797 40.258201599121094 60.516300201416016" stroke-width="1.4946430921554565" fill="none" stroke="rgb(231, 13, 206)" stroke-opacity="0.35992223" stroke-linecap="round" stroke-linejoin="round"/>
    <path d="M 7.339460372924805 72.72624969482422 C 3.6984505653381348 75.88694763183594 5.965134143829346 75.17190551757812 1.788748025894165 69.336181640625 C -3.158721923828125 64.38050842285156 -7.275384902954102 66.9904556274414 -7.743711948394775 68.264892578125" stroke-width="1.0892857313156128" fill="none" stroke="rgb(108, 160, 154)" stroke-opacity="0.2521735" stroke-linecap="round" stroke-linejoin="round"/>
  </g>
</svg>
