<?xml version="1.0" ?>
<svg xmlns="http://www.w3.org/2000/svg" version="1.1" width="956.0" height="956.0">
  <defs/>
  <g>
    <path d="M 48.00918197631836 16.351900100708008 C 51.33256530761719 15.807281494140625 55.379337310791016 15.359541893005371 59.14583206176758 15.807287216186523 C 61.0632209777832 16.148908615112305 63.41046905517578 18.844369888305664 64.72684478759766 20.818336486816406 C 66.13888549804688 21.57423973083496 66.38849639892578 23.0521297454834 67.02410125732422 24.518596649169922 C 69.026123046875 29.13873291015625 68.8101806640625 38.2813720703125 69.35480499267578 43.40517044067383 C 69.35481262207031 46.025726318359375 69.35482025146484 48.91834259033203 69.35482025146484 52.075592041015625 C 68.81018829345703 54.116737365722656 69.0495376586914 56.237342834472656 68.97174072265625 58.208900451660156 C 68.23486328125 60.541542053222656 65.16533660888672 62.220252990722656 62.55649185180664 62.513771057128906 C 58.70619583129883 64.07784271240234 54.9387321472168 64.84446716308594 50.30575180053711 64.29984283447266 C 47.63102340698242 64.29985046386719 45.22514724731445 65.16046142578125 43.031578063964844 63.313385009765625 C 40.23341751098633 60.49882125854492 39.747859954833984 55.6915283203125 39.747859954833984 51.666751861572266 C 39.20322036743164 49.86358642578125 39.206878662109375 48.33736801147461 41.117401123046875 47.45530700683594 C 42.53676223754883 47.59611892700195 43.664024353027344 47.616859436035156 44.59735870361328 47.07222366333008 C 47.194740295410156 47.07221984863281 47.95966339111328 48.7241096496582 48.64724349975586 51.57331085205078 C 51.73881530761719 56.8090705871582 52.337745666503906 64.8066177368164 53.27522277832031 70.68167114257812 C 52.809879302978516 71.97393035888672 53.551639556884766 77.9130859375 53.113670349121094 79.13800811767578 C 53.399658203125 79.8638916015625 52.06983947753906 79.88534545898438 50.81654739379883 79.48640441894531 C 50.31743240356445 79.75041961669922 49.966068267822266 79.26487731933594 50.08491134643555 78.88301849365234" stroke-width="1.0892857313156128" fill="none" stroke="rgb(21, 26, 21)" stroke-opacity="1.0" stroke-linecap="round" stroke-linejoin="round"/>
    <path d="M 50.849849700927734 64.2999038696289 C 55.90044021606445 68.9374771118164 49.534576416015625 68.80595397949219 54.516326904296875 64.93587493896484 C 56.567344665527344 60.8463134765625 60.13720703125 61.13527297973633 58.39371109008789 59.31331253051758" stroke-width="1.0892857313156128" fill="none" stroke="rgb(107, 138, 115)" stroke-opacity="0.6059822" stroke-linecap="round" stroke-linejoin="round"/>
    <path d="M 50.305233001708984 64.84446716308594 C 56.23139953613281 60.54473114013672 57.31684494018555 59.45960998535156 55.73771286010742 63.61458206176758" stroke-width="1.0892857313156128" fill="none" stroke="rgb(75, 185, 238)" stroke-opacity="0.28357312" stroke-linecap="round" stroke-linejoin="round"/>
    <path d="M 62.556461334228516 62.513763427734375 C 65.29421997070312 61.41026306152344 69.96704864501953 56.76017379760742 69.73931121826172 51.900611877441406 C 63.834022521972656 49.2921028137207 59.281341552734375 44.553680419921875 64.14427947998047 38.75267028808594" stroke-width="1.0892857313156128" fill="none" stroke="rgb(34, 182, 78)" stroke-opacity="0.6004592" stroke-linecap="round" stroke-linejoin="round"/>
    <path d="M 68.42710876464844 58.208900451660156 C 70.939208984375 64.25323486328125 75.62998962402344 62.946937561035156 71.99679565429688 58.60640335083008" stroke-width="1.1982134580612183" fill="none" stroke="rgb(151, 112, 145)" stroke-opacity="0.86823356" stroke-linecap="round" stroke-linejoin="round"/>
    <path d="M 44.597354888916016 47.072227478027344 C 48.61293411254883 52.00303649902344 48.75381851196289 52.778682708740234 49.72911071777344 54.51247024536133" stroke-width="1.0892857313156128" fill="none" stroke="rgb(94, 61, 33)" stroke-opacity="0.18297267" stroke-linecap="round" stroke-linejoin="round"/>
    <path d="M 67.56874084472656 24.518598556518555 C 66.54216766357422 25.894668579101562 72.45370483398438 30.3697509765625 72.66793823242188 33.86429214477539 C 75.6946792602539 28.12849235534668 71.8023681640625 30.942625045776367 69.71842956542969 34.882816314697266" stroke-width="1.0892857313156128" fill="none" stroke="rgb(54, 178, 93)" stroke-opacity="0.3981272" stroke-linecap="round" stroke-linejoin="round"/>
    <path d="M 63.101097106933594 62.51376724243164 C 61.290618896484375 60.52558898925781 58.16121292114258 64.93806457519531 51.6107292175293 62.949947357177734 C 53.851776123046875 65.9815444946289 56.11500549316406 60.321205139160156 55.866416931152344 65.06240844726562" stroke-width="1.0892857313156128" fill="none" stroke="rgb(31, 136, 121)" stroke-opacity="0.9385847" stroke-linecap="round" stroke-linejoin="round"/>
    <path d="M 43.57619857788086 62.76874542236328 C 39.53622055053711 57.961605072021484 38.53982162475586 63.96994400024414 39.17200469970703 59.637779235839844" stroke-width="1.0892857313156128" fill="none" stroke="rgb(223, 162, 96)" stroke-opacity="0.33886567" stroke-linecap="round" stroke-linejoin="round"/>
    <path d="M 64.14427947998047 38.75272750854492 C 68.63068389892578 41.899696350097656 67.54141998291016 39.276309967041016 72.60403442382812 37.46173858642578 C 76.19381713867188 33.66733169555664 70.65217590332031 37.969085693359375 73.76083374023438 44.1647834777832 C 70.91375732421875 43.14989471435547 71.44342041015625 38.83444595336914 71.20182037353516 43.76961898803711" stroke-width="1.0892857313156128" fill="none" stroke="rgb(156, 29, 77)" stroke-opacity="0.65180165" stroke-linecap="round" stroke-linejoin="round"/>
    <path d="M 49.728233337402344 54.51246643066406 C 48.376434326171875 58.38596725463867 49.845481872558594 61.61686325073242 53.72700119018555 55.584877014160156 C 59.19419860839844 52.54466247558594 59.84601593017578 50.77615737915039 55.42045211791992 46.93239974975586 C 58.544097900390625 43.8039665222168 53.93231964111328 46.882301330566406 56.884033203125 51.01725387573242" stroke-width="1.1982073783874512" fill="none" stroke="rgb(59, 205, 209)" stroke-opacity="0.07685468" stroke-linecap="round" stroke-linejoin="round"/>
    <path d="M 39.17200469970703 59.637779235839844 C 34.98273468017578 53.61332702636719 30.166528701782227 52.00551986694336 31.028369903564453 52.57040023803711" stroke-width="1.0892857313156128" fill="none" stroke="rgb(203, 147, 250)" stroke-opacity="0.06281185" stroke-linecap="round" stroke-linejoin="round"/>
    <path d="M 58.390342712402344 59.31331253051758 C 59.91768264770508 64.27129364013672 56.559898376464844 65.74915313720703 52.155113220214844 67.63252258300781" stroke-width="1.0892857313156128" fill="none" stroke="rgb(223, 140, 86)" stroke-opacity="0.5749591" stroke-linecap="round" stroke-linejoin="round"/>
    <path d="M 64.14427947998047 38.75272750854492 C 69.78567504882812 35.37498474121094 74.0108413696289 33.72693634033203 77.34549713134766 31.284738540649414 C 73.7968521118164 34.230430603027344 70.3380126953125 30.440357208251953 69.27721405029297 33.4329719543457" stroke-width="1.1982141733169556" fill="none" stroke="rgb(204, 67, 60)" stroke-opacity="0.67508185" stroke-linecap="round" stroke-linejoin="round"/>
    <path d="M 56.280860900878906 63.61458969116211 C 55.97846603393555 66.1026840209961 53.737937927246094 59.89170455932617 58.54030990600586 56.862159729003906 C 62.07127380371094 54.08958435058594 67.6474609375 52.090538024902344 67.0240249633789 46.377105712890625" stroke-width="1.1982141733169556" fill="none" stroke="rgb(118, 85, 61)" stroke-opacity="0.41817358" stroke-linecap="round" stroke-linejoin="round"/>
    <path d="M 69.1742172241211 34.88283920288086 C 63.251461029052734 40.77894592285156 63.81021499633789 44.30808639526367 68.68917083740234 38.708038330078125" stroke-width="1.0892857313156128" fill="none" stroke="rgb(62, 56, 242)" stroke-opacity="0.16955884" stroke-linecap="round" stroke-linejoin="round"/>
    <path d="M 56.28232192993164 63.614593505859375 C 52.33579635620117 68.7452621459961 47.4478645324707 71.69659423828125 44.98651123046875 74.27281188964844 C 45.13639831542969 69.09429931640625 44.88492202758789 72.16020202636719 41.80728530883789 70.69300842285156" stroke-width="1.0892857313156128" fill="none" stroke="rgb(140, 96, 193)" stroke-opacity="0.934138" stroke-linecap="round" stroke-linejoin="round"/>
    <path d="M 78.2257080078125 91.74778747558594 C 78.39701080322266 92.71351623535156 77.86883544921875 94.66085815429688 77.5349349975586 99.26335906982422 C 83.39032745361328 103.25713348388672 89.14185333251953 107.15328216552734 89.38304901123047 113.07118225097656 C 91.82665252685547 113.13970947265625 88.63079071044922 115.66789245605469 88.3812255859375 117.15074157714844" stroke-width="1.0892857313156128" fill="none" stroke="rgb(245, 12, 154)" stroke-opacity="0.65956813" stroke-linecap="round" stroke-linejoin="round"/>
    <path d="M 41.916526794433594 40.40132522583008 C 43.801849365234375 41.75422668457031 40.48861312866211 44.61765670776367 35.33591079711914 41.59664535522461 C 30.036113739013672 41.1684684753418 25.667743682861328 39.08728790283203 25.51061248779297 38.9382438659668" stroke-width="1.0892857313156128" fill="none" stroke="rgb(73, 159, 21)" stroke-opacity="0.019056804" stroke-linecap="round" stroke-linejoin="round"/>
    <path d="M 7.6519927978515625 101.31901550292969 C 11.753252029418945 107.59344482421875 12.96310806274414 108.39288330078125 10.089078903198242 110.59214782714844" stroke-width="1.0892857313156128" fill="none" stroke="rgb(20, 83, 38)" stroke-opacity="0.51500237" stroke-linecap="round" stroke-linejoin="round"/>
    <path d="M 24.6331844329834 104.18038940429688 C 29.145790100097656 110.01844024658203 24.505325317382812 113.82262420654297 25.49159812927246 118.69408416748047 C 26.07438087463379 113.81370544433594 30.737228393554688 117.49034881591797 27.105384826660156 113.45955657958984" stroke-width="1.1982141733169556" fill="none" stroke="rgb(218, 72, 200)" stroke-opacity="0.8616911" stroke-linecap="round" stroke-linejoin="round"/>
    <path d="M 106.34397888183594 56.990928649902344 C 103.88750457763672 51.82044982910156 101.7774429321289 57.1677360534668 103.74790954589844 53.226226806640625 C 104.6741714477539 53.12513732910156 103.3141860961914 57.58994674682617 105.50227355957031 54.64760971069336" stroke-width="1.0892857313156128" fill="none" stroke="rgb(231, 150, 107)" stroke-opacity="0.7825084" stroke-linecap="round" stroke-linejoin="round"/>
    <path d="M 73.1521224975586 48.675506591796875 C 73.43429565429688 44.41865539550781 67.51127624511719 49.445640563964844 63.314735412597656 53.98732376098633 C 60.43278121948242 57.83572769165039 55.30366516113281 63.69025421142578 50.88914108276367 66.61589050292969 C 52.16233825683594 67.66416931152344 56.58335876464844 62.03618240356445 51.8243293762207 63.317081451416016" stroke-width="1.1982135772705078" fill="none" stroke="rgb(168, 66, 54)" stroke-opacity="0.083195716" stroke-linecap="round" stroke-linejoin="round"/>
    <path d="M 32.375205993652344 87.48125457763672 C 26.62826919555664 85.7904052734375 29.617565155029297 85.54208374023438 26.846309661865234 89.13650512695312" stroke-width="1.0892857313156128" fill="none" stroke="rgb(162, 196, 20)" stroke-opacity="0.5837469" stroke-linecap="round" stroke-linejoin="round"/>
    <path d="M 61.01594161987305 121.8994140625 C 65.22180938720703 127.77305603027344 65.8254623413086 121.90205383300781 63.19020080566406 123.32218170166016 C 66.3028793334961 116.68375396728516 60.27850341796875 119.87007141113281 56.37110900878906 117.34703826904297 C 51.036834716796875 119.89485168457031 49.374752044677734 115.11804962158203 46.111148834228516 112.79750061035156" stroke-width="1.0892857313156128" fill="none" stroke="rgb(154, 181, 54)" stroke-opacity="0.7472471" stroke-linecap="round" stroke-linejoin="round"/>
    <path d="M 19.09265899658203 86.25891876220703 C 16.204126358032227 85.4517593383789 20.68148422241211 87.37593078613281 22.298213958740234 91.99533081054688" stroke-width="1.0892857313156128" fill="none" stroke="rgb(114, 188, 49)" stroke-opacity="0.18727376" stroke-linecap="round" stroke-linejoin="round"/>
    <path d="M 108.83354187011719 44.485328674316406 C 103.66715240478516 46.75124740600586 104.16658782958984 50.82076644897461 105.11519622802734 46.50651550292969 C 98.57328033447266 50.34086227416992 93.2003402709961 44.3619270324707 88.82875061035156 37.79484176635742" stroke-width="1.0892857313156128" fill="none" stroke="rgb(103, 164, 63)" stroke-opacity="0.976493" stroke-linecap="round" stroke-linejoin="round"/>
    <path d="M 89.36865234375 92.2450942993164 C 91.90643310546875 92.35674285888672 87.4493637084961 95.80937957763672 88.45198822021484 97.5821304321289 C 92.11363983154297 97.50125885009766 94.34838104248047 93.89743041992188 95.19755554199219 94.75393676757812 C 97.18724822998047 99.76410675048828 92.83719635009766 94.98309326171875 97.23990631103516 90.761474609375" stroke-width="1.0892857313156128" fill="none" stroke="rgb(59, 219, 163)" stroke-opacity="0.64584035" stroke-linecap="round" stroke-linejoin="round"/>
    <path d="M 42.78761291503906 0.40110114216804504 C 44.66632080078125 4.624349594116211 47.408409118652344 1.9844261407852173 42.19502258300781 6.937343120574951" stroke-width="1.1982141733169556" fill="none" stroke="rgb(227, 138, 146)" stroke-opacity="0.22322199" stroke-linecap="round" stroke-linejoin="round"/>
    <path d="M 45.577030181884766 91.93285369873047 C 43.577030181884766 97.08145904541016 37.61732482910156 90.93427276611328 32.09811782836914 90.92282104492188" stroke-width="1.0892857313156128" fill="none" stroke="rgb(219, 238, 167)" stroke-opacity="0.5182866" stroke-linecap="round" stroke-linejoin="round"/>
    <path d="M 97.8251724243164 42.634063720703125 C 93.39628601074219 43.511451721191406 91.56314086914062 47.766990661621094 96.68228149414062 46.087158203125 C 101.6828842163086 43.03887176513672 107.1288070678711 37.490570068359375 112.02344512939453 42.34056091308594" stroke-width="1.1982122659683228" fill="none" stroke="rgb(141, 1, 55)" stroke-opacity="0.10546053" stroke-linecap="round" stroke-linejoin="round"/>
    <path d="M 35.09120559692383 14.407766342163086 C 33.70528030395508 20.42807960510254 36.45524978637695 16.491010665893555 30.423809051513672 18.838212966918945" stroke-width="1.0892857313156128" fill="none" stroke="rgb(30, 105, 191)" stroke-opacity="0.93978584" stroke-linecap="round" stroke-linejoin="round"/>
    <path d="M 107.35060119628906 13.303144454956055 C 103.06219482421875 8.877013206481934 107.52041625976562 9.230010986328125 103.37922668457031 10.660993576049805" stroke-width="1.1982128620147705" fill="none" stroke="rgb(37, 132, 217)" stroke-opacity="0.71128273" stroke-linecap="round" stroke-linejoin="round"/>
  </g>
</svg>
