<?xml version="1.0" ?>
<svg xmlns="http://www.w3.org/2000/svg" version="1.1" width="1182.99609" height="1182.99609">
  <defs/>
  <g>
    <path d="M 113.88391876220703 154.81736755371094 C 111.36338806152344 154.1212158203125 107.24569702148438 155.01870727539062 106.003173828125 154.1441192626953 C 104.75719451904297 151.67933654785156 104.79289245605469 150.629638671875 106.75288391113281 145.85997009277344 C 110.30665588378906 142.68405151367188 114.1909408569336 134.1942901611328 118.38939666748047 129.65670776367188 C 122.58785247802734 125.11910247802734 127.10047912597656 124.53716278076172 131.75233459472656 122.64856719970703 C 134.81044006347656 119.16619873046875 139.60154724121094 115.97808074951172 147.54147338867188 113.35403442382812 C 155.4814453125 110.73001098632812 166.57046508789062 108.67361450195312 171.13282775878906 107.76116943359375 C 175.69541931152344 105.25495147705078 173.72470092773438 102.30603790283203 182.12875366210938 111.55264282226562 C 192.12661743164062 119.20545196533203 210.89828491210938 140.65472412109375 218.35264587402344 154.61032104492188 C 224.21327209472656 170.15968322753906 220.34329223632812 176.62864685058594 220.98023986816406 179.09425354003906 C 220.02346801757812 183.1534423828125 221.9727783203125 184.80636596679688 222.51898193359375 186.04165649414062 C 221.4679412841797 188.8697509765625 220.6041259765625 189.6915283203125 221.27655029296875 188.3136749267578 C 220.35552978515625 186.93209838867188 219.38087463378906 183.3477020263672 224.04193115234375 176.3416290283203 C 230.2968292236328 170.92938232421875 245.37843322753906 165.28292846679688 257.2725830078125 156.44537353515625 C 272.3542175292969 150.7989501953125 315.5618896484375 107.5383529663086 360.35968017578125 65.87506103515625" stroke-width="3.1876046657562256" fill="none" stroke="rgb(29, 20, 17)" stroke-opacity="0.99" stroke-linecap="round" stroke-linejoin="round"/>
    <path d="M 247.50270080566406 174.63259887695312 C 247.6707000732422 173.57054138183594 247.81092834472656 170.97317504882812 248.68792724609375 171.17210388183594 C 249.52676391601562 171.38992309570312 249.4398193359375 172.8670196533203 249.1791534423828 175.3314971923828 C 248.91525268554688 177.79937744140625 248.47377014160156 182.8513641357422 245.70541381835938 187.64944458007812 C 244.53085327148438 190.85060119628906 244.21669006347656 196.98410034179688 245.03067016601562 207.79574584960938 C 247.4420166015625 215.42018127441406 247.7939453125 229.32000732421875 247.53689575195312 233.8184051513672 C 248.8735809326172 238.31674194335938 246.41012573242188 233.417236328125 246.22816467285156 237.42282104492188 C 246.04595947265625 241.42515563964844 246.54440307617188 254.3313446044922 247.18853759765625 257.5061340332031 C 246.2388916015625 259.086181640625 242.24746704101562 254.12374877929688 236.7066650390625 252.48512268066406 C 231.16580200195312 252.440185546875 224.0755615234375 254.12525939941406 216.48194885253906 255.67825317382812 C 208.8881378173828 257.23126220703125 200.79042053222656 258.652099609375 193.2260284423828 255.3733367919922 C 185.6610107421875 253.684814453125 177.034423828125 250.4836883544922 168.51950073242188 247.06358337402344 C 160.00479125976562 243.6398162841797 150.01202392578125 241.590576171875 146.138427734375 237.06724548339844 C 142.26502990722656 232.54034423828125 146.10426330566406 225.54287719726562 146.86111450195312 220.6946563720703 C 146.02418518066406 215.84605407714844 145.2887725830078 211.55795288085938 145.49729919433594 209.572265625 C 142.5188446044922 209.18089294433594 140.4835205078125 207.9099578857422 137.7808074951172 205.53240966796875 C 135.07464599609375 203.15469360351562 131.70089721679688 199.67022705078125 139.2418670654297 196.32508850097656 C 143.59690856933594 191.38612365722656 158.8695068359375 188.1801300048828 171.2807159423828 184.7721710205078 C 182.09817504882812 179.7704315185547 188.4636688232422 172.9693603515625 198.32789611816406 172.06613159179688 C 208.1915740966797 171.162841796875 221.55831909179688 174.56015014648438 230.33401489257812 174.770751953125 C 239.10935974121094 176.57518005371094 243.29710388183594 172.00543212890625 246.2353057861328 171.97329711914062 C 249.1695098876953 170.34390258789062 249.2613067626953 176.4385528564453 251.12637329101562 180.9484405517578 C 251.39773559570312 185.45712280273438 250.25169372558594 189.96978759765625 250.4822235107422 192.8691864013672 C 252.3065948486328 195.7681121826172 257.10491943359375 197.05308532714844 255.49124145507812 197.27828979492188 C 255.47459411621094 197.5032196044922 245.85906982421875 196.67137145996094 239.94833374023438 201.09471130371094 C 232.44039916992188 205.51812744140625 225.44654846191406 215.1967010498047 215.7235565185547 219.07591247558594 C 207.59800720214844 224.54893493652344 199.93087768554688 227.41368103027344 184.80787658691406 230.95523071289062 C 168.08763122558594 232.9029998779297 147.09524536132812 238.7222900390625 135.90289306640625 240.53231811523438 C 124.7109375 242.3459930419922 123.31986999511719 241.74758911132812 120.7098159790039 242.19036865234375 C 114.9106674194336 241.039306640625 107.89177703857422 244.11671447753906 103.52196502685547 244.980712890625 C 99.15220642089844 247.44189453125 97.42779541015625 246.09603881835938 97.5562973022461 243.92868041992188 C 99.27925109863281 241.75938415527344 101.26709747314453 238.7700958251953 99.26277923583984 235.953369140625 C 98.85579681396484 233.1365203857422 96.05326080322266 230.49461364746094 96.01399993896484 227.9348907470703 C 97.5684814453125 225.37869262695312 100.29248046875 222.90460205078125 101.04431915283203 218.24072265625 C 103.39340209960938 215.17022705078125 105.36412048339844 211.50013732910156 108.35592651367188 208.00506591796875 C 111.34762573242188 204.50987243652344 115.35688018798828 201.1896514892578 118.00232696533203 197.25180053710938 C 122.24144744873047 193.31423950195312 121.92591094970703 188.76206970214844 126.1457748413086 187.64105224609375 C 131.95936584472656 188.11366271972656 139.12818908691406 188.83346557617188 142.42205810546875 191.80885314941406 C 148.90272521972656 193.19046020507812 149.9390411376953 193.63674926757812 153.057861328125 191.997802734375 C 157.7891845703125 190.35940551757812 161.4521484375 186.6322021484375 161.65921020507812 187.30694580078125 C 161.8662872314453 187.98162841796875 158.620849609375 193.06138610839844 155.94583129882812 193.2501220703125 C 154.87161254882812 195.03683471679688 156.03404235839844 193.55673217773438 158.7519073486328 195.23614501953125 C 163.14010620117188 195.36097717285156 167.64266967773438 195.53460693359375 167.33558654785156 196.27000427246094 C 165.43508911132812 197.0054473876953 160.31948852539062 196.70556640625 156.69235229492188 198.18865966796875 C 153.06832885742188 198.07797241210938 152.51878356933594 198.15650939941406 148.0457000732422 198.20651245117188 C 143.56919860839844 198.2599334716797 136.75401306152344 196.6912841796875 130.0167999267578 194.21005249023438 C 123.28044891357422 191.72528076171875 116.62572479248047 186.73065185546875 110.62289428710938 183.82606506347656 C 106.21736145019531 179.32772827148438 104.05744934082031 175.332763671875 95.48204040527344 169.8776092529297 C 88.50028228759766 162.83233642578125 71.91303253173828 155.9286346435547 64.96111297607422 152.2305145263672 C 59.60385513305664 145.3458709716797 59.10258483886719 141.6758270263672 58.035072326660156 138.624755859375 C 58.55782699584961 132.3863067626953 55.326873779296875 126.77407836914062 54.06306076049805 123.4395751953125 C 51.205440521240234 121.6988525390625 51.90518569946289 120.6421127319336 51.03407287597656 119.61036682128906 C 50.15944290161133 118.57496643066406 49.30406188964844 115.96733093261719 47.901031494140625 114.96411895751953 C 46.49797439575195 113.9609146118164 46.140960693359375 112.97201538085938 45.02560043334961 112.34366607666016 C 47.097633361816406 111.71570587158203 46.82136917114258 113.0448989868164 45.386146545410156 110.8600082397461 C 43.95173645019531 108.67864990234375 41.360565185546875 104.57659149169922 45.87319564819336 104.94432830810547 C 50.382266998291016 103.71825408935547 63.5881233215332 108.559326171875 69.63590240478516 110.28012084960938 C 74.09022521972656 112.00096130371094 72.97962188720703 110.60147857666016 78.37554168701172 111.54190063476562 C 82.18125915527344 110.885009765625 89.30585479736328 109.38044738769531 93.67933654785156 108.79496002197266 C 99.64630126953125 109.80681610107422 99.67129516601562 108.5501480102539 99.37349700927734 108.9000015258789 C 100.66944122314453 109.2463150024414 104.8301010131836 109.60539245605469 107.09001159667969 110.65498352050781 C 109.3498764038086 111.70819091796875 111.3026351928711 111.86170196533203 110.8692855834961 111.28334045410156 C 112.02609252929688 110.70507049560547 112.39020538330078 109.3947982788086 112.46865844726562 110.00174713134766 C 112.54721069335938 112.20203399658203 112.34019470214844 113.13312530517578 115.76895141601562 114.85140991210938 C 117.60400390625 114.97636413574219 121.48467254638672 112.69495391845703 121.47254180908203 112.15444946289062 C 123.05406188964844 114.8009262084961 122.34002685546875 117.5884017944336 123.16268157958984 124.46570587158203 C 122.39511108398438 129.74949645996094 119.98020935058594 134.33990478515625 119.60888671875 138.65904235839844 C 119.23836517333984 142.98123168945312 120.90985870361328 147.025146484375 117.91666412353516 148.212646484375 C 116.51359558105469 150.99375915527344 113.63251495361328 154.1033477783203 114.54290771484375 158.52674865722656 C 115.45330810546875 164.5474090576172 120.15876007080078 170.2876739501953 119.5767822265625 172.56591796875 C 120.58860778808594 174.84365844726562 114.72285461425781 173.65122985839844 111.20276641845703 173.72262573242188 C 107.68264770507812 173.79403686523438 106.50452423095703 175.1328125 107.77191162109375 176.5385284423828 C 109.0392837524414 179.53689575195312 112.75579071044922 184.19586181640625 110.87433624267578 187.68174743652344 C 108.99630737304688 189.57382202148438 101.5232925415039 187.0985870361328 96.51748657226562 187.97450256347656 C 93.10440826416016 187.25694274902344 93.75061798095703 186.7035675048828 89.65209197998047 185.5560760498047 C 85.55387115478516 187.59950256347656 78.3040771484375 189.0526885986328 75.60871887207031 184.35292053222656 C 71.31981658935547 181.24380493164062 76.36201477050781 175.16494750976562 77.03319549560547 172.8265380859375 C 77.70249938964844 168.89573669433594 74.00186920166016 171.88722229003906 73.1866683959961 172.54441833496094 C 72.3726806640625 171.60902404785156 72.85108947753906 166.7464599609375 71.97642517089844 165.43629455566406 C 72.69269561767578 164.1260223388672 68.87202453613281 166.36769104003906 69.07876586914062 164.8744659423828 C 67.69002532958984 164.97085571289062 65.55044555664062 162.91799926757812 68.76337432861328 162.60736083984375 C 73.57003021240234 163.88694763183594 80.54256439208984 165.3150177001953 85.85494995117188 162.89089965820312 C 89.5735092163086 158.8730010986328 93.22576141357422 152.59674072265625 99.25211334228516 152.5717315673828 C 105.27526092529297 152.546875 113.67193603515625 160.36309814453125 122.08448028564453 160.6952667236328 C 128.90342712402344 161.02731323242188 132.55416870117188 155.46121215820312 137.79864501953125 148.30545043945312 C 143.0431671142578 142.7434844970703 147.9520721435547 147.75360107421875 152.86097717285156 149.57998657226562" stroke-width="4.164067268371582" fill="none" stroke="rgb(30, 17, 17)" stroke-opacity="0.99" stroke-linecap="round" stroke-linejoin="round"/>
    <path d="M 114.47651672363281 185.61680603027344 C 107.03240203857422 190.14857482910156 99.5924072265625 193.0868377685547 92.1480712890625 196.0248565673828 C 84.53292846679688 198.9619903564453 103.15526580810547 193.888916015625 124.78691101074219 190.40789794921875" stroke-width="3.6510863304138184" fill="none" stroke="rgb(119, 230, 179)" stroke-opacity="0.051340025" stroke-linecap="round" stroke-linejoin="round"/>
    <path d="M 196.62496948242188 174.1246337890625 C 203.22254943847656 174.7458038330078 203.52955627441406 193.1176300048828 215.7998809814453 197.2068328857422" stroke-width="4.614697456359863" fill="none" stroke="rgb(206, 43, 70)" stroke-opacity="0.90696" stroke-linecap="round" stroke-linejoin="round"/>
    <path d="M 139.9049835205078 152.9966278076172 C 148.45187377929688 136.99893188476562 159.70849609375 132.15428161621094 151.3651123046875 145.35450744628906" stroke-width="4.63476037979126" fill="none" stroke="rgb(145, 59, 224)" stroke-opacity="0.82294" stroke-linecap="round" stroke-linejoin="round"/>
    <path d="M 150.21237182617188 187.3639373779297 C 149.27061462402344 185.8091278076172 148.3315887451172 184.2598114013672 148.98065185546875 181.1151123046875 C 146.44577026367188 179.56187438964844 163.7499237060547 178.6479034423828 182.64784240722656 177.7303924560547" stroke-width="3.9410271644592285" fill="none" stroke="rgb(151, 204, 58)" stroke-opacity="0.12696004" stroke-linecap="round" stroke-linejoin="round"/>
    <path d="M 47.30447769165039 105.68684387207031 C 51.57316970825195 113.12345886230469 55.84658432006836 120.56360626220703 61.713802337646484 128.00015258789062 C 65.98722839355469 135.43667602539062 42.01026916503906 133.87864685058594 18.033409118652344 135.50453186035156" stroke-width="3.1876046657562256" fill="none" stroke="rgb(237, 14, 113)" stroke-opacity="0.47755998" stroke-linecap="round" stroke-linejoin="round"/>
    <path d="M 227.37998962402344 180.9327850341797 C 221.1108856201172 188.7513427734375 214.8381805419922 196.56991577148438 208.56903076171875 204.38844299316406 C 202.2999267578125 212.2069854736328 191.90879821777344 216.4141082763672 179.9275360107422 219.02389526367188" stroke-width="4.241558074951172" fill="none" stroke="rgb(255, 0, 55)" stroke-opacity="0.57221" stroke-linecap="round" stroke-linejoin="round"/>
    <path d="M 255.78892517089844 197.4032440185547 C 256.6692810058594 189.686767578125 259.14361572265625 183.5646209716797 263.2112121582031 179.03497314453125 C 265.6852722167969 172.9121856689453 263.3739318847656 164.77223205566406 262.6563415527344 156.63250732421875" stroke-width="3.1876046657562256" fill="none" stroke="rgb(25, 214, 108)" stroke-opacity="0.55727" stroke-linecap="round" stroke-linejoin="round"/>
    <path d="M 108.32526397705078 112.59156036376953 C 111.50265502929688 118.4664535522461 114.6764907836914 125.93870544433594 117.8539047241211 133.4073944091797 C 121.03120422363281 142.4698486328125 126.41004943847656 137.8286590576172 133.38597106933594 131.59376525878906" stroke-width="3.1876046657562256" fill="none" stroke="rgb(242, 125, 243)" stroke-opacity="0.60857004" stroke-linecap="round" stroke-linejoin="round"/>
    <path d="M 120.78703308105469 192.08277893066406 C 123.78236389160156 183.2755126953125 125.08545684814453 170.09400939941406 111.20126342773438 183.34408569335938" stroke-width="3.1876046657562256" fill="none" stroke="rgb(100, 93, 130)" stroke-opacity="0.40246" stroke-linecap="round" stroke-linejoin="round"/>
    <path d="M 135.14959716796875 128.1307373046875 C 128.3914031982422 141.05233764648438 119.76032257080078 133.59097290039062 108.7000961303711 146.62547302246094" stroke-width="3.1876046657562256" fill="none" stroke="rgb(80, 23, 189)" stroke-opacity="0.62773" stroke-linecap="round" stroke-linejoin="round"/>
    <path d="M 156.5932159423828 141.6900634765625 C 168.64476013183594 141.58653259277344 184.80636596679688 155.90269470214844 171.35060119628906 156.5952911376953" stroke-width="3.972799062728882" fill="none" stroke="rgb(78, 248, 15)" stroke-opacity="0.39484" stroke-linecap="round" stroke-linejoin="round"/>
    <path d="M 16.362560272216797 132.0450897216797 C 8.668938636779785 128.99620056152344 12.663747787475586 134.72262573242188 16.129840850830078 141.3024139404297" stroke-width="3.7053160667419434" fill="none" stroke="rgb(232, 232, 205)" stroke-opacity="0.6747399" stroke-linecap="round" stroke-linejoin="round"/>
    <path d="M 175.23638916015625 176.70933532714844 C 168.89585876464844 171.711181640625 162.5553436279297 166.70944213867188 156.21466064453125 163.3050537109375 C 148.28048706054688 158.3068084716797 143.87496948242188 167.18426513671875 141.063232421875 177.65896606445312" stroke-width="3.1876046657562256" fill="none" stroke="rgb(0, 119, 141)" stroke-opacity="0.73417" stroke-linecap="round" stroke-linejoin="round"/>
    <path d="M 182.0693359375 179.65176391601562 C 177.5532684326172 177.41163635253906 176.2172088623047 172.00128173828125 174.46853637695312 170.58349609375 C 172.69027709960938 170.7591552734375 170.56214904785156 171.7442169189453 169.98757934570312 171.13998413085938 C 171.00929260253906 172.12890625 166.3717041015625 168.46954345703125 161.73052978515625 164.81016540527344" stroke-width="3.1876046657562256" fill="none" stroke="rgb(235, 10, 195)" stroke-opacity="0.048050076" stroke-linecap="round" stroke-linejoin="round"/>
    <path d="M 177.34629821777344 219.78997802734375 C 176.99560546875 219.77621459960938 178.237548828125 219.76541137695312 178.0960235595703 223.29013061523438 C 176.36094665527344 225.2251434326172 171.64840698242188 229.10227966308594 166.9358673095703 232.9829864501953 C 162.22299194335938 236.863525390625 158.2246856689453 239.06643676757812 152.63621520996094 241.27279663085938" stroke-width="3.1876046657562256" fill="none" stroke="rgb(47, 154, 227)" stroke-opacity="0.24595001" stroke-linecap="round" stroke-linejoin="round"/>
    <path d="M 20.216886520385742 129.67697143554688 C 14.45833683013916 143.53610229492188 8.707640647888184 157.40565490722656 4.538028240203857 172.8471221923828 C -2.8138387203216553 185.11473083496094 -0.16488587856292725 161.20550537109375 2.4841115474700928 137.2956085205078" stroke-width="3.1876046657562256" fill="none" stroke="rgb(120, 95, 162)" stroke-opacity="0.0042500095" stroke-linecap="round" stroke-linejoin="round"/>
    <path d="M 124.1015853881836 32.97433853149414 C 122.97550964355469 18.929353713989258 123.44676208496094 4.880956172943115 117.95276641845703 -1.5358742475509644 C 112.45833587646484 -6.359036445617676 101.00152587890625 -1.960724949836731 89.54137420654297 2.4376375675201416 C 78.08502197265625 6.836101055145264 75.56216430664062 17.204517364501953 69.8557357788086 25.980344772338867" stroke-width="3.1876046657562256" fill="none" stroke="rgb(148, 123, 175)" stroke-opacity="0.44013" stroke-linecap="round" stroke-linejoin="round"/>
    <path d="M 165.51097106933594 261.27410888671875 C 169.2667236328125 256.7696533203125 170.2735595703125 269.77899169921875 181.64434814453125 270.6928405761719" stroke-width="3.1876046657562256" fill="none" stroke="rgb(101, 47, 213)" stroke-opacity="0.0036700936" stroke-linecap="round" stroke-linejoin="round"/>
    <path d="M 191.5467529296875 137.9450225830078 C 189.96519470214844 145.11029052734375 189.97702026367188 153.86746215820312 188.3994140625 161.03431701660156 C 186.8176727294922 168.19955444335938 190.87564086914062 172.75152587890625 196.5271453857422 177.30316162109375" stroke-width="4.26300048828125" fill="none" stroke="rgb(75, 71, 212)" stroke-opacity="0.15274999" stroke-linecap="round" stroke-linejoin="round"/>
    <path d="M 74.81964874267578 137.08612060546875 C 58.26713562011719 122.09876251220703 46.97990798950195 134.41209411621094 65.65878295898438 119.2105484008789" stroke-width="3.1876046657562256" fill="none" stroke="rgb(196, 186, 208)" stroke-opacity="0.65972" stroke-linecap="round" stroke-linejoin="round"/>
    <path d="M 314.98858642578125 53.613182067871094 C 304.9813232421875 57.047603607177734 294.9706726074219 58.888607025146484 291.1473693847656 65.18037414550781 C 285.7300109863281 69.87788391113281 289.6800537109375 74.2505874633789 292.0399169921875 80.21620178222656 C 294.39971923828125 86.18189239501953 302.0610656738281 89.18572235107422 309.7226867675781 89.00227355957031" stroke-width="4.8802103996276855" fill="none" stroke="rgb(79, 57, 255)" stroke-opacity="0.90223" stroke-linecap="round" stroke-linejoin="round"/>
    <path d="M 312.8072814941406 330.0494689941406 C 311.6327209472656 323.9554138183594 310.4580078125 317.8581848144531 307.6901550292969 313.3542785644531 C 306.519287109375 305.6694030761719 295.7837829589844 306.18328857421875 286.6059265136719 306.69732666015625" stroke-width="3.1876046657562256" fill="none" stroke="rgb(125, 245, 42)" stroke-opacity="0.071190014" stroke-linecap="round" stroke-linejoin="round"/>
    <path d="M 329.73321533203125 292.9502868652344 C 336.03448486328125 274.39996337890625 340.74554443359375 254.2594757080078 339.03546142578125 246.9299774169922 C 338.9190979003906 241.19427490234375 329.19744873046875 245.08567810058594 317.8825378417969 247.3798065185547 C 308.16119384765625 251.27127075195312 319.34295654296875 246.32672119140625 332.1180419921875 242.97933959960938" stroke-width="3.1876046657562256" fill="none" stroke="rgb(6, 173, 163)" stroke-opacity="0.9243901" stroke-linecap="round" stroke-linejoin="round"/>
    <path d="M 194.2779083251953 252.485107421875 C 196.82009887695312 250.99293518066406 199.36268615722656 249.49713134765625 197.71604919433594 249.41127014160156 C 192.8861083984375 249.3255615234375 183.8640899658203 250.646484375 174.84579467773438 251.9709930419922 C 165.82765197753906 253.29209899902344 169.8011932373047 263.11468505859375 173.7747344970703 269.750244140625" stroke-width="3.1876046657562256" fill="none" stroke="rgb(156, 135, 94)" stroke-opacity="0.77768993" stroke-linecap="round" stroke-linejoin="round"/>
    <path d="M 333.38751220703125 61.58883285522461 C 330.1614685058594 40.81723403930664 344.031494140625 25.287757873535156 336.2201232910156 21.439302444458008" stroke-width="4.026512622833252" fill="none" stroke="rgb(165, 154, 44)" stroke-opacity="0.6142" stroke-linecap="round" stroke-linejoin="round"/>
    <path d="M 128.16287231445312 276.677734375 C 136.31349182128906 278.5984191894531 146.05772399902344 278.928955078125 154.20838928222656 280.84967041015625 C 160.76527404785156 284.3641052246094 150.32289123535156 284.3570251464844 141.47735595703125 284.3463439941406" stroke-width="4.13140869140625" fill="none" stroke="rgb(102, 67, 9)" stroke-opacity="0.51916003" stroke-linecap="round" stroke-linejoin="round"/>
    <path d="M 66.26927947998047 164.5067138671875 C 79.5465316772461 170.8507843017578 92.8237533569336 177.19131469726562 98.29312133789062 178.1409454345703 C 102.16891479492188 179.0906524658203 101.42777252197266 174.6422576904297 99.08935546875 170.1974334716797 C 96.75447845458984 167.3463897705078 102.3238296508789 166.3217315673828 107.89678955078125 163.70816040039062" stroke-width="4.4059858322143555" fill="none" stroke="rgb(228, 249, 211)" stroke-opacity="0.77301997" stroke-linecap="round" stroke-linejoin="round"/>
    <path d="M 332.84991455078125 79.2094955444336 C 344.4800109863281 66.18226623535156 339.0570068359375 64.54107666015625 347.421630859375 81.531494140625" stroke-width="3.1876046657562256" fill="none" stroke="rgb(33, 248, 141)" stroke-opacity="0.15497997" stroke-linecap="round" stroke-linejoin="round"/>
    <path d="M 347.5187683105469 360.40692138671875 C 358.8539123535156 360.8531799316406 370.192626953125 361.2994689941406 380.3281555175781 352.9239501953125 C 390.46728515625 344.5484619140625 399.40325927734375 327.3547668457031 408.3428649902344 310.15753173828125 C 417.2824401855469 292.96026611328125 422.9196472167969 302.5424499511719 428.5568542480469 312.12109375" stroke-width="3.1876046657562256" fill="none" stroke="rgb(149, 169, 230)" stroke-opacity="0.06424" stroke-linecap="round" stroke-linejoin="round"/>
    <path d="M 95.2107162475586 162.796630859375 C 92.75239562988281 167.80137634277344 91.88484191894531 174.39378356933594 89.42504119873047 179.39553833007812 C 86.96392822265625 184.39669799804688 88.02195739746094 182.56578063964844 89.07518005371094 180.7379150390625" stroke-width="4.551056385040283" fill="none" stroke="rgb(170, 54, 27)" stroke-opacity="0.73307" stroke-linecap="round" stroke-linejoin="round"/>
    <path d="M 102.2060546875 203.10678100585938 C 111.4591064453125 205.90240478515625 119.12340545654297 210.2913360595703 129.9708709716797 211.48941040039062 C 139.22459411621094 214.28485107421875 137.55726623535156 223.72781372070312 134.29635620117188 234.76451110839844" stroke-width="3.1876046657562256" fill="none" stroke="rgb(28, 189, 72)" stroke-opacity="0.49947" stroke-linecap="round" stroke-linejoin="round"/>
    <path d="M 159.29583740234375 100.05683898925781 C 168.08187866210938 87.30438232421875 155.54360961914062 68.14220428466797 143.48939514160156 52.18159484863281" stroke-width="3.1876046657562256" fill="none" stroke="rgb(218, 16, 183)" stroke-opacity="0.91473" stroke-linecap="round" stroke-linejoin="round"/>
    <path d="M 18.03329086303711 133.91085815429688 C 22.152498245239258 131.37200927734375 37.63874435424805 115.58170318603516 30.893728256225586 118.16952514648438 C 15.579437255859375 108.20397186279297 23.134580612182617 111.51454162597656 10.819914817810059 103.17439270019531 C 20.039794921875 104.71780395507812 7.990065574645996 102.55131530761719 -1.3025623559951782 98.79277038574219" stroke-width="3.5063533782958984" fill="none" stroke="rgb(95, 65, 212)" stroke-opacity="0.21598774" stroke-linecap="round" stroke-linejoin="round"/>
    <path d="M 160.1369171142578 164.8101348876953 C 161.5205535888672 175.46649169921875 153.09486389160156 187.50245666503906 139.88046264648438 191.3154296875 C 125.70437622070312 204.03909301757812 133.47604370117188 192.00563049316406 150.25143432617188 179.69024658203125 C 140.50936889648438 173.06390380859375 148.9688262939453 163.62738037109375 132.56637573242188 174.60574340820312" stroke-width="3.506364345550537" fill="none" stroke="rgb(79, 0, 246)" stroke-opacity="0.37002692" stroke-linecap="round" stroke-linejoin="round"/>
    <path d="M 197.71739196777344 249.41119384765625 C 196.29074096679688 254.491455078125 210.91246032714844 266.3844909667969 224.8785858154297 253.513427734375" stroke-width="3.1876046657562256" fill="none" stroke="rgb(4, 197, 211)" stroke-opacity="0.6668166" stroke-linecap="round" stroke-linejoin="round"/>
    <path d="M 349.0154113769531 81.531494140625 C 347.0018005371094 64.9225082397461 362.0621032714844 73.1535415649414 366.3279724121094 61.73263168334961 C 377.5943908691406 54.6975212097168 365.9642639160156 59.25941848754883 355.3957824707031 60.60768508911133 C 357.3831787109375 70.8107681274414 351.5805358886719 84.05294036865234 352.439453125 73.87479400634766" stroke-width="3.1876046657562256" fill="none" stroke="rgb(110, 129, 83)" stroke-opacity="0.3264246" stroke-linecap="round" stroke-linejoin="round"/>
    <path d="M 120.70989227294922 242.19036865234375 C 124.47003936767578 235.4061737060547 134.7321014404297 250.81777954101562 142.666748046875 245.89315795898438" stroke-width="3.1876046657562256" fill="none" stroke="rgb(241, 186, 195)" stroke-opacity="0.43919134" stroke-linecap="round" stroke-linejoin="round"/>
    <path d="M 67.48518371582031 164.87449645996094 C 60.007415771484375 150.50318908691406 64.05593872070312 141.22659301757812 58.89824295043945 145.4176025390625 C 46.913848876953125 154.85072326660156 27.538667678833008 147.54161071777344 41.26480484008789 159.58119201660156" stroke-width="3.1876046657562256" fill="none" stroke="rgb(46, 122, 240)" stroke-opacity="0.7396929" stroke-linecap="round" stroke-linejoin="round"/>
    <path d="M 45.02556228637695 113.93746185302734 C 30.27508544921875 101.17290496826172 35.636077880859375 111.94471740722656 31.65589141845703 94.21623229980469 C 32.235225677490234 91.9134521484375 20.282882690429688 89.25757598876953 37.81958770751953 81.3104248046875 C 40.027671813964844 65.23087310791016 23.754671096801758 71.03668975830078 35.70356369018555 63.71931076049805" stroke-width="3.1876046657562256" fill="none" stroke="rgb(160, 188, 235)" stroke-opacity="0.4014648" stroke-linecap="round" stroke-linejoin="round"/>
    <path d="M 67.48524475097656 164.8743896484375 C 82.32071685791016 150.6324920654297 87.22882843017578 151.5911865234375 103.63497924804688 167.59085083007812" stroke-width="3.1876046657562256" fill="none" stroke="rgb(243, 5, 118)" stroke-opacity="0.23383631" stroke-linecap="round" stroke-linejoin="round"/>
    <path d="M 352.439453125 73.87480926513672 C 359.0510559082031 63.201881408691406 371.4706726074219 54.153446197509766 387.43182373046875 55.352481842041016 C 377.86932373046875 50.78828811645508 372.2535705566406 43.445125579833984 360.3182678222656 58.41645812988281 C 346.11431884765625 54.274871826171875 358.9183349609375 39.09843826293945 370.8644714355469 38.367923736572266" stroke-width="3.1876046657562256" fill="none" stroke="rgb(48, 202, 57)" stroke-opacity="0.6311405" stroke-linecap="round" stroke-linejoin="round"/>
    <path d="M -2.099334716796875 99.58963012695312 C -11.718548774719238 109.4007339477539 -1.9026243686676025 104.1322021484375 -8.07334041595459 93.43250274658203 C -3.3508689403533936 99.24465942382812 -11.776703834533691 103.59095001220703 -18.51688575744629 90.85249328613281 C -3.097524404525757 85.74186706542969 -12.049626350402832 72.06404876708984 -17.57976531982422 78.37593841552734" stroke-width="3.1876046657562256" fill="none" stroke="rgb(248, 24, 33)" stroke-opacity="0.05989135" stroke-linecap="round" stroke-linejoin="round"/>
    <path d="M -2.894698143005371 100.38253784179688 C -10.38013744354248 114.05449676513672 -1.2552709579467773 126.87528228759766 2.960981845855713 141.37525939941406 C 1.0714212656021118 135.56947326660156 -15.853815078735352 126.59423828125 -27.03855323791504 126.14246368408203 C -20.30874252319336 120.75725555419922 -34.92856216430664 125.63082122802734 -50.97011947631836 129.6609344482422" stroke-width="3.1876046657562256" fill="none" stroke="rgb(134, 83, 213)" stroke-opacity="0.18429956" stroke-linecap="round" stroke-linejoin="round"/>
    <path d="M 134.15982055664062 174.6053924560547 C 132.82106018066406 179.67477416992188 123.01759338378906 163.99024963378906 120.41144561767578 158.4450225830078 C 112.91801452636719 162.82891845703125 99.71537017822266 161.1189422607422 105.98844146728516 169.47804260253906 C 118.90656280517578 177.9794464111328 135.05465698242188 160.13905334472656 118.07684326171875 152.13323974609375" stroke-width="3.1876046657562256" fill="none" stroke="rgb(157, 98, 95)" stroke-opacity="0.756128" stroke-linecap="round" stroke-linejoin="round"/>
    <path d="M 42.85857009887695 159.5808563232422 C 44.656105041503906 159.4812774658203 43.84041213989258 163.65731811523438 57.68148422241211 172.35655212402344 C 39.09593963623047 189.4159393310547 30.023225784301758 175.4857940673828 36.011085510253906 185.52056884765625 C 41.03233337402344 179.01699829101562 37.02068328857422 174.82901000976562 37.34447479248047 188.03707885742188" stroke-width="3.506361722946167" fill="none" stroke="rgb(103, 46, 115)" stroke-opacity="0.9542179" stroke-linecap="round" stroke-linejoin="round"/>
    <path d="M 103.63533020019531 167.59083557128906 C 106.79279327392578 175.72201538085938 98.31922912597656 162.41246032714844 108.56702423095703 150.41525268554688" stroke-width="3.1876046657562256" fill="none" stroke="rgb(220, 153, 213)" stroke-opacity="0.56003827" stroke-linecap="round" stroke-linejoin="round"/>
    <path d="M 224.87863159179688 255.10711669921875 C 218.21310424804688 256.9877624511719 227.82501220703125 256.5828552246094 213.3441162109375 263.8121643066406 C 231.21780395507812 263.355712890625 245.71876525878906 273.0024719238281 249.04005432128906 281.361572265625" stroke-width="3.506364107131958" fill="none" stroke="rgb(78, 130, 149)" stroke-opacity="0.37508595" stroke-linecap="round" stroke-linejoin="round"/>
    <path d="M -1.302452802658081 100.38651275634766 C 9.125151634216309 94.94314575195312 -7.687005996704102 84.69038391113281 -10.210351943969727 101.63117218017578 C -10.609101295471191 98.43236541748047 -17.432077407836914 112.56613159179688 -26.077285766601562 120.24562072753906 C -20.096860885620117 127.27328491210938 -19.384449005126953 138.22296142578125 -36.96766662597656 131.3805389404297" stroke-width="3.506361484527588" fill="none" stroke="rgb(82, 188, 140)" stroke-opacity="0.90193415" stroke-linecap="round" stroke-linejoin="round"/>
    <path d="M 159.86106872558594 248.19277954101562 C 175.66519165039062 250.08447265625 172.2077178955078 261.77734375 169.76625061035156 253.80563354492188" stroke-width="3.1876046657562256" fill="none" stroke="rgb(9, 54, 217)" stroke-opacity="0.6654667" stroke-linecap="round" stroke-linejoin="round"/>
    <path d="M 143.09713745117188 68.14741516113281 C 158.51734924316406 68.24375915527344 156.54490661621094 63.25220489501953 164.799072265625 70.56871795654297 C 156.56793212890625 65.60636138916016 154.01210021972656 73.42650604248047 140.72830200195312 80.96337127685547" stroke-width="3.1876046657562256" fill="none" stroke="rgb(209, 14, 176)" stroke-opacity="0.11340013" stroke-linecap="round" stroke-linejoin="round"/>
    <path d="M 33.52363586425781 211.86204528808594 C 34.684322357177734 200.07447814941406 25.537826538085938 205.52618408203125 40.23472213745117 217.65975952148438" stroke-width="3.1876046657562256" fill="none" stroke="rgb(187, 87, 43)" stroke-opacity="0.16439983" stroke-linecap="round" stroke-linejoin="round"/>
    <path d="M 157.34007263183594 302.906494140625 C 162.38211059570312 303.8818664550781 179.5240478515625 300.9314270019531 184.4978485107422 295.9893798828125 C 169.57217407226562 298.6539306640625 162.00103759765625 307.2569274902344 176.85189819335938 297.6466369628906" stroke-width="3.1876046657562256" fill="none" stroke="rgb(124, 192, 14)" stroke-opacity="0.12113794" stroke-linecap="round" stroke-linejoin="round"/>
    <path d="M 330.5252380371094 138.222412109375 C 320.4169921875 127.79845428466797 337.2572021484375 127.80956268310547 325.3392639160156 130.2942657470703" stroke-width="3.1876046657562256" fill="none" stroke="rgb(10, 70, 194)" stroke-opacity="0.67400306" stroke-linecap="round" stroke-linejoin="round"/>
    <path d="M 35.662994384765625 18.61260223388672 C 19.64242935180664 2.70188045501709 30.868465423583984 -9.128150939941406 15.261874198913574 7.0453267097473145 C 29.126535415649414 1.6230720281600952 25.085073471069336 13.554421424865723 39.547340393066406 11.013286590576172 C 32.05841064453125 17.512901306152344 41.5728874206543 31.7576961517334 53.930198669433594 15.183357238769531" stroke-width="3.5063557624816895" fill="none" stroke="rgb(177, 90, 207)" stroke-opacity="0.7472955" stroke-linecap="round" stroke-linejoin="round"/>
    <path d="M 1.023816466331482 260.4165344238281 C 4.183801174163818 242.89410400390625 1.7102117538452148 233.54489135742188 5.579042911529541 220.7406463623047" stroke-width="3.5063564777374268" fill="none" stroke="rgb(189, 14, 233)" stroke-opacity="0.53324467" stroke-linecap="round" stroke-linejoin="round"/>
    <path d="M 311.9162902832031 203.19296264648438 C 314.6975402832031 219.45706176757812 313.9524230957031 224.7340850830078 322.72601318359375 234.0137481689453 C 330.8792419433594 225.9881134033203 329.10943603515625 236.2847900390625 326.2816467285156 220.1693572998047" stroke-width="3.1876046657562256" fill="none" stroke="rgb(159, 121, 185)" stroke-opacity="0.58029366" stroke-linecap="round" stroke-linejoin="round"/>
    <path d="M 174.77133178710938 25.615764617919922 C 170.2701873779297 30.475679397583008 164.20721435546875 37.92828369140625 174.03927612304688 38.0223274230957 C 157.34600830078125 54.23949432373047 155.80833435058594 40.328731536865234 139.0769500732422 32.71821212768555" stroke-width="3.5063636302948" fill="none" stroke="rgb(226, 185, 171)" stroke-opacity="0.5882011" stroke-linecap="round" stroke-linejoin="round"/>
    <path d="M 301.1343688964844 295.5702209472656 C 296.0476989746094 301.6036682128906 295.02630615234375 312.6105651855469 299.4761657714844 328.2403259277344 C 302.79644775390625 337.4930419921875 299.38323974609375 340.7283020019531 316.4736022949219 329.53253173828125" stroke-width="3.1876046657562256" fill="none" stroke="rgb(185, 92, 237)" stroke-opacity="0.88060075" stroke-linecap="round" stroke-linejoin="round"/>
    <path d="M 11.368658065795898 24.534177780151367 C -2.514075994491577 24.029890060424805 14.14355182647705 37.60319519042969 17.841102600097656 46.90316390991211" stroke-width="3.5063579082489014" fill="none" stroke="rgb(112, 13, 251)" stroke-opacity="0.0527975" stroke-linecap="round" stroke-linejoin="round"/>
    <path d="M 34.49187469482422 212.18580627441406 C 22.44521713256836 212.43814086914062 11.932377815246582 215.60304260253906 17.177677154541016 213.1999969482422 C 13.441059112548828 204.71212768554688 7.433575630187988 187.8445587158203 -1.2491739988327026 198.27346801757812 C -15.644899368286133 212.2724609375 1.2129275798797607 200.44003295898438 12.47702693939209 212.57260131835938" stroke-width="3.506362199783325" fill="none" stroke="rgb(96, 176, 167)" stroke-opacity="0.64707917" stroke-linecap="round" stroke-linejoin="round"/>
    <path d="M 81.53472900390625 232.73171997070312 C 95.41058349609375 239.0279083251953 98.78719329833984 224.3634033203125 96.58439636230469 229.01235961914062" stroke-width="3.1876046657562256" fill="none" stroke="rgb(160, 24, 55)" stroke-opacity="0.7827976" stroke-linecap="round" stroke-linejoin="round"/>
    <path d="M 203.1455078125 298.1112060546875 C 218.2671356201172 313.951904296875 213.82537841796875 320.0345764160156 206.2875213623047 326.1059265136719 C 198.90814208984375 321.85662841796875 192.74330139160156 334.3246765136719 182.03671264648438 351.4992370605469 C 170.9384307861328 367.7212219238281 184.61314392089844 377.7051696777344 190.52825927734375 393.606689453125" stroke-width="3.506364345550537" fill="none" stroke="rgb(39, 192, 228)" stroke-opacity="0.59027696" stroke-linecap="round" stroke-linejoin="round"/>
    <path d="M 71.63509368896484 347.9342346191406 C 57.47000503540039 336.38287353515625 71.51838684082031 342.5350036621094 85.26142120361328 354.153076171875" stroke-width="3.506362199783325" fill="none" stroke="rgb(147, 105, 70)" stroke-opacity="0.6089384" stroke-linecap="round" stroke-linejoin="round"/>
    <path d="M 29.396839141845703 49.31317138671875 C 34.592166900634766 56.649288177490234 21.887727737426758 45.162200927734375 34.29209518432617 36.24494934082031 C 23.70712661743164 54.49039077758789 24.134998321533203 54.08489227294922 6.848050117492676 45.76435089111328 C -6.194570064544678 31.229318618774414 -9.58717155456543 33.445377349853516 -7.8897576332092285 50.96390151977539" stroke-width="3.506362199783325" fill="none" stroke="rgb(166, 56, 170)" stroke-opacity="0.39430085" stroke-linecap="round" stroke-linejoin="round"/>
  </g>
</svg>
