<?xml version="1.0" ?>
<svg xmlns="http://www.w3.org/2000/svg" version="1.1" width="956.0" height="956.0">
  <defs/>
  <g>
    <path d="M 39.62727355957031 76.44969177246094 C 68.22222137451172 84.6561508178711 96.22989654541016 81.71711730957031 96.38810729980469 77.77171325683594 C 97.78093719482422 73.49736785888672 68.45652770996094 63.22460174560547 45.502197265625 71.56153869628906" stroke-width="1.2902048826217651" fill="none" stroke="rgb(87, 93, 80)" stroke-opacity="1.0" stroke-linecap="round" stroke-linejoin="round"/>
    <path d="M 70.10607147216797 76.37738800048828 C 68.60517120361328 61.3596305847168 67.3559799194336 46.224544525146484 69.44731903076172 30.092966079711914" stroke-width="1.1892671585083008" fill="none" stroke="rgb(159, 118, 23)" stroke-opacity="0.97998875" stroke-linecap="round" stroke-linejoin="round"/>
    <path d="M 69.60416412353516 49.3942756652832 C 75.76780700683594 45.7280387878418 80.81529998779297 45.70700454711914 81.84690856933594 45.408935546875" stroke-width="1.1892671585083008" fill="none" stroke="rgb(169, 114, 23)" stroke-opacity="0.98528355" stroke-linecap="round" stroke-linejoin="round"/>
    <path d="M 67.26513671875 57.358131408691406 C 59.25148391723633 53.09653854370117 60.12135314941406 46.41593551635742 54.18692398071289 47.33281326293945" stroke-width="1.1892671585083008" fill="none" stroke="rgb(167, 112, 18)" stroke-opacity="0.9926819" stroke-linecap="round" stroke-linejoin="round"/>
    <path d="M 70.57261657714844 31.13526153564453 C 70.49790954589844 22.66568374633789 77.11000061035156 19.375253677368164 79.39701080322266 17.877107620239258" stroke-width="1.1892671585083008" fill="none" stroke="rgb(169, 108, 23)" stroke-opacity="1.0" stroke-linecap="round" stroke-linejoin="round"/>
    <path d="M 68.98657989501953 31.207834243774414 C 65.83008575439453 24.488967895507812 64.18171691894531 23.207490921020508 62.13356018066406 23.119953155517578" stroke-width="1.218260407447815" fill="none" stroke="rgb(169, 108, 17)" stroke-opacity="0.9975315" stroke-linecap="round" stroke-linejoin="round"/>
    <path d="M 62.15552520751953 23.113601684570312 C 62.131736755371094 23.266582489013672 62.00994110107422 20.176326751708984 61.83723068237305 19.660240173339844 C 61.02069854736328 19.279205322265625 58.870994567871094 19.247825622558594 59.5273323059082 19.012155532836914" stroke-width="1.1892671585083008" fill="none" stroke="rgb(169, 118, 23)" stroke-opacity="0.9803401" stroke-linecap="round" stroke-linejoin="round"/>
    <path d="M 61.349674224853516 22.833892822265625 C 53.94742965698242 24.653173446655273 54.38077163696289 25.74075698852539 53.5963249206543 26.612401962280273" stroke-width="1.3021045923233032" fill="none" stroke="rgb(169, 108, 16)" stroke-opacity="1.0" stroke-linecap="round" stroke-linejoin="round"/>
    <path d="M 82.30799102783203 45.41942596435547 C 82.26998138427734 46.035282135009766 81.49348449707031 43.87834930419922 82.07093811035156 42.47763442993164 C 83.25476837158203 42.57481002807617 84.42597961425781 42.110801696777344 84.4820785522461 41.3777961730957" stroke-width="1.2589555978775024" fill="none" stroke="rgb(168, 109, 21)" stroke-opacity="1.0" stroke-linecap="round" stroke-linejoin="round"/>
    <path d="M 82.20379638671875 45.45022964477539 C 89.38400268554688 47.61147689819336 89.65284729003906 47.9992790222168 89.31098175048828 48.48069381713867" stroke-width="1.3082334995269775" fill="none" stroke="rgb(166, 111, 17)" stroke-opacity="1.0" stroke-linecap="round" stroke-linejoin="round"/>
    <path d="M 80.0259780883789 18.240604400634766 C 80.10839080810547 18.12152671813965 82.52623748779297 18.75259780883789 83.67240142822266 19.023958206176758 C 84.49492645263672 18.817977905273438 85.52253723144531 19.027082443237305 84.7490005493164 19.12714195251465" stroke-width="1.1892671585083008" fill="none" stroke="rgb(160, 108, 23)" stroke-opacity="1.0" stroke-linecap="round" stroke-linejoin="round"/>
    <path d="M 69.64461517333984 31.24251365661621 C 69.6375503540039 30.752416610717773 70.96366882324219 27.5301456451416 71.90030670166016 27.284326553344727 C 73.93804931640625 27.06787872314453 74.90760040283203 27.7589168548584 74.58206176757812 28.920856475830078" stroke-width="1.1892671585083008" fill="none" stroke="rgb(169, 114, 20)" stroke-opacity="0.98421973" stroke-linecap="round" stroke-linejoin="round"/>
    <path d="M 79.30896759033203 17.79718017578125 C 81.38272094726562 11.044458389282227 75.54330444335938 15.122806549072266 75.1751937866211 14.799262046813965" stroke-width="1.1892671585083008" fill="none" stroke="rgb(159, 108, 23)" stroke-opacity="0.98014265" stroke-linecap="round" stroke-linejoin="round"/>
    <path d="M 66.19819641113281 40.69689178466797 C 66.31773376464844 41.64207077026367 66.36468505859375 38.80546188354492 66.30635833740234 37.44449996948242 C 65.20148468017578 37.13257598876953 63.971473693847656 36.37234115600586 63.228816986083984 36.40522384643555" stroke-width="1.1958750486373901" fill="none" stroke="rgb(159, 110, 23)" stroke-opacity="1.0" stroke-linecap="round" stroke-linejoin="round"/>
    <path d="M 54.715633392333984 46.86371994018555 C 54.11377716064453 46.36810302734375 55.27744674682617 43.94780349731445 54.553985595703125 42.976409912109375 C 53.765419006347656 42.36124801635742 52.48601531982422 41.65030288696289 52.58481979370117 42.02638626098633" stroke-width="1.1892671585083008" fill="none" stroke="rgb(159, 114, 23)" stroke-opacity="0.99468076" stroke-linecap="round" stroke-linejoin="round"/>
    <path d="M 53.61635208129883 45.91874313354492 C 48.406673431396484 51.1763801574707 46.6353645324707 49.99989318847656 47.201961517333984 50.19343948364258" stroke-width="1.1892671585083008" fill="none" stroke="rgb(159, 108, 23)" stroke-opacity="0.9814838" stroke-linecap="round" stroke-linejoin="round"/>
    <path d="M 44.54264450073242 49.81649398803711 C 43.45002365112305 52.70804977416992 41.31250762939453 57.256778717041016 39.66984939575195 57.89400863647461" stroke-width="1.2120389938354492" fill="none" stroke="rgb(26, 132, 10)" stroke-opacity="1.0" stroke-linecap="round" stroke-linejoin="round"/>
    <path d="M 44.57113265991211 49.80652618408203 C 38.000125885009766 52.688087463378906 39.54425811767578 57.52783966064453 39.66993713378906 56.857669830322266" stroke-width="1.297551155090332" fill="none" stroke="rgb(23, 133, 16)" stroke-opacity="1.0" stroke-linecap="round" stroke-linejoin="round"/>
    <path d="M 46.86515808105469 50.63322448730469 C 40.69122314453125 53.041229248046875 39.21080017089844 54.85490798950195 38.91897964477539 57.9158935546875" stroke-width="1.2988775968551636" fill="none" stroke="rgb(86, 234, 49)" stroke-opacity="1.0" stroke-linecap="round" stroke-linejoin="round"/>
    <path d="M 45.606842041015625 49.467140197753906 C 42.6916389465332 50.52410888671875 38.20363235473633 50.128814697265625 35.336551666259766 49.27864456176758" stroke-width="1.1892671585083008" fill="none" stroke="rgb(23, 133, 19)" stroke-opacity="1.0" stroke-linecap="round" stroke-linejoin="round"/>
    <path d="M 44.80033493041992 49.24498748779297 C 38.34153366088867 45.13494110107422 35.80813980102539 48.52068328857422 36.481361389160156 48.59837341308594" stroke-width="1.1892671585083008" fill="none" stroke="rgb(23, 132, 20)" stroke-opacity="0.99421567" stroke-linecap="round" stroke-linejoin="round"/>
    <path d="M 47.130184173583984 49.01634216308594 C 43.70055389404297 47.916969299316406 38.11715316772461 48.19796371459961 35.94588851928711 48.55988693237305" stroke-width="1.2304563522338867" fill="none" stroke="rgb(87, 235, 49)" stroke-opacity="0.9947099" stroke-linecap="round" stroke-linejoin="round"/>
    <path d="M 52.30540466308594 24.8356876373291 C 49.058189392089844 25.935522079467773 45.16557312011719 26.178335189819336 42.79814529418945 24.756397247314453" stroke-width="1.1892671585083008" fill="none" stroke="rgb(32, 132, 10)" stroke-opacity="0.9911421" stroke-linecap="round" stroke-linejoin="round"/>
    <path d="M 51.91349411010742 26.018280029296875 C 46.54325485229492 21.674114227294922 43.91458511352539 25.75052261352539 43.854122161865234 25.14255142211914" stroke-width="1.1892671585083008" fill="none" stroke="rgb(24, 133, 19)" stroke-opacity="0.98036486" stroke-linecap="round" stroke-linejoin="round"/>
    <path d="M 53.89030838012695 26.418960571289062 C 48.251094818115234 23.912302017211914 45.697486877441406 24.08694839477539 43.4754753112793 24.994604110717773" stroke-width="1.3003928661346436" fill="none" stroke="rgb(84, 235, 49)" stroke-opacity="1.0" stroke-linecap="round" stroke-linejoin="round"/>
    <path d="M 52.181304931640625 26.71762466430664 C 51.82516860961914 30.26569175720215 51.36832809448242 34.869197845458984 49.16830825805664 36.08094787597656" stroke-width="1.1892671585083008" fill="none" stroke="rgb(33, 133, 10)" stroke-opacity="0.9799876" stroke-linecap="round" stroke-linejoin="round"/>
    <path d="M 52.24567794799805 26.786148071289062 C 45.44373321533203 30.677881240844727 47.905094146728516 34.85929489135742 48.03644561767578 36.00193786621094" stroke-width="1.301013708114624" fill="none" stroke="rgb(23, 123, 9)" stroke-opacity="1.0" stroke-linecap="round" stroke-linejoin="round"/>
    <path d="M 53.73841094970703 26.743131637573242 C 49.61408996582031 30.170310974121094 48.56112289428711 32.38852310180664 49.091861724853516 34.36963653564453" stroke-width="1.1892671585083008" fill="none" stroke="rgb(84, 234, 47)" stroke-opacity="0.9935538" stroke-linecap="round" stroke-linejoin="round"/>
    <path d="M 49.658321380615234 41.30923843383789 C 48.15908432006836 44.23296356201172 44.313987731933594 45.71871566772461 41.955650329589844 44.93077850341797" stroke-width="1.272193431854248" fill="none" stroke="rgb(29, 123, 9)" stroke-opacity="1.0" stroke-linecap="round" stroke-linejoin="round"/>
    <path d="M 49.63691329956055 42.47471618652344 C 42.132286071777344 39.03481674194336 40.74773406982422 43.581756591796875 41.88040542602539 43.77098846435547" stroke-width="1.1892671585083008" fill="none" stroke="rgb(23, 133, 13)" stroke-opacity="0.98001945" stroke-linecap="round" stroke-linejoin="round"/>
    <path d="M 52.239261627197266 42.60636520385742 C 46.551570892333984 42.57554244995117 44.165225982666016 43.56131362915039 42.59885025024414 44.69887924194336" stroke-width="1.2511500120162964" fill="none" stroke="rgb(87, 234, 45)" stroke-opacity="1.0" stroke-linecap="round" stroke-linejoin="round"/>
    <path d="M 51.62508773803711 40.02131652832031 C 47.64567947387695 40.088661193847656 43.8171272277832 38.27017593383789 42.84950256347656 36.03459167480469" stroke-width="1.2518421411514282" fill="none" stroke="rgb(25, 133, 11)" stroke-opacity="1.0" stroke-linecap="round" stroke-linejoin="round"/>
    <path d="M 50.749900817871094 40.04707717895508 C 48.534156799316406 32.79154968261719 44.120296478271484 34.74338150024414 43.58494186401367 34.849239349365234" stroke-width="1.2831841707229614" fill="none" stroke="rgb(23, 126, 16)" stroke-opacity="1.0" stroke-linecap="round" stroke-linejoin="round"/>
    <path d="M 50.70357131958008 42.03575897216797 C 47.15656661987305 38.01849365234375 45.0172119140625 36.07282257080078 43.61093521118164 35.80150604248047" stroke-width="1.1892671585083008" fill="none" stroke="rgb(84, 234, 46)" stroke-opacity="1.0" stroke-linecap="round" stroke-linejoin="round"/>
    <path d="M 57.53939437866211 17.86579704284668 C 54.59151077270508 19.65962028503418 50.57502746582031 22.27324867248535 48.24083709716797 21.475154876708984" stroke-width="1.217560887336731" fill="none" stroke="rgb(32, 132, 9)" stroke-opacity="0.99218607" stroke-linecap="round" stroke-linejoin="round"/>
    <path d="M 57.06175231933594 19.013959884643555 C 49.5554084777832 16.689220428466797 48.6073112487793 21.296669006347656 48.21662902832031 21.458295822143555" stroke-width="1.1892671585083008" fill="none" stroke="rgb(23, 133, 17)" stroke-opacity="0.9965902" stroke-linecap="round" stroke-linejoin="round"/>
    <path d="M 59.511531829833984 18.761856079101562 C 53.61577224731445 18.73516273498535 51.58561706542969 19.83880615234375 50.01346206665039 21.366676330566406" stroke-width="1.3081943988800049" fill="none" stroke="rgb(84, 235, 53)" stroke-opacity="0.9916642" stroke-linecap="round" stroke-linejoin="round"/>
    <path d="M 59.02693557739258 16.557188034057617 C 55.04757308959961 16.643451690673828 51.319820404052734 14.779057502746582 51.398841857910156 11.389260292053223" stroke-width="1.1892671585083008" fill="none" stroke="rgb(23, 133, 16)" stroke-opacity="0.9945188" stroke-linecap="round" stroke-linejoin="round"/>
    <path d="M 57.86033630371094 16.547372817993164 C 55.959686279296875 9.328804016113281 51.534786224365234 11.24821662902832 51.29092025756836 11.403901100158691" stroke-width="1.1892671585083008" fill="none" stroke="rgb(33, 133, 16)" stroke-opacity="0.9818062" stroke-linecap="round" stroke-linejoin="round"/>
    <path d="M 59.96962356567383 18.062604904174805 C 54.98857116699219 14.655646324157715 52.742820739746094 13.417405128479004 51.0651741027832 12.814196586608887" stroke-width="1.1892671585083008" fill="none" stroke="rgb(88, 235, 45)" stroke-opacity="0.9801121" stroke-linecap="round" stroke-linejoin="round"/>
    <path d="M 73.25350952148438 14.462479591369629 C 70.82835388183594 16.28338623046875 66.83695983886719 17.665510177612305 64.46073913574219 16.71584129333496" stroke-width="1.1892671585083008" fill="none" stroke="rgb(33, 133, 9)" stroke-opacity="0.9820594" stroke-linecap="round" stroke-linejoin="round"/>
    <path d="M 73.38412475585938 13.873764038085938 C 65.15314483642578 11.583995819091797 63.35626220703125 16.14916229248047 63.4620475769043 15.865679740905762" stroke-width="1.2960178852081299" fill="none" stroke="rgb(23, 126, 13)" stroke-opacity="1.0" stroke-linecap="round" stroke-linejoin="round"/>
    <path d="M 74.45931243896484 14.341423988342285 C 68.00817108154297 13.620434761047363 65.60183715820312 14.54954719543457 63.983680725097656 15.739489555358887" stroke-width="1.1892671585083008" fill="none" stroke="rgb(84, 235, 49)" stroke-opacity="0.99724513" stroke-linecap="round" stroke-linejoin="round"/>
    <path d="M 73.05791473388672 13.240567207336426 C 70.06121826171875 12.57724666595459 66.36398315429688 10.427929878234863 65.41912078857422 8.13107967376709" stroke-width="1.1892671585083008" fill="none" stroke="rgb(23, 133, 20)" stroke-opacity="0.98085296" stroke-linecap="round" stroke-linejoin="round"/>
    <path d="M 73.00630950927734 13.285338401794434 C 69.99603271484375 6.070674419403076 65.89268493652344 7.939239501953125 66.56585693359375 8.088351249694824" stroke-width="1.1892671585083008" fill="none" stroke="rgb(23, 133, 19)" stroke-opacity="0.98087806" stroke-linecap="round" stroke-linejoin="round"/>
    <path d="M 75.13944244384766 14.388937950134277 C 71.31336975097656 9.052608489990234 69.0301284790039 7.8465704917907715 67.08423614501953 7.378889560699463" stroke-width="1.2387791872024536" fill="none" stroke="rgb(84, 229, 55)" stroke-opacity="0.9962497" stroke-linecap="round" stroke-linejoin="round"/>
    <path d="M 89.74002838134766 49.89404296875 C 90.7140121459961 52.93257141113281 91.61283111572266 57.092044830322266 93.06964874267578 59.85392379760742" stroke-width="1.1892671585083008" fill="none" stroke="rgb(24, 125, 10)" stroke-opacity="1.0" stroke-linecap="round" stroke-linejoin="round"/>
    <path d="M 90.9171371459961 49.873634338378906 C 96.82465362548828 54.9970588684082 92.5976333618164 58.725521087646484 92.37287902832031 59.85501480102539" stroke-width="1.215505599975586" fill="none" stroke="rgb(24, 133, 17)" stroke-opacity="0.9816875" stroke-linecap="round" stroke-linejoin="round"/>
    <path d="M 88.74763488769531 49.463226318359375 C 92.07257080078125 54.38227844238281 92.69474792480469 57.10604476928711 92.37272644042969 59.25925064086914" stroke-width="1.308239221572876" fill="none" stroke="rgb(85, 235, 52)" stroke-opacity="1.0" stroke-linecap="round" stroke-linejoin="round"/>
    <path d="M 91.17454528808594 48.51172637939453 C 93.65093994140625 50.709564208984375 97.5002670288086 52.64335250854492 99.48379516601562 52.214393615722656" stroke-width="1.1892671585083008" fill="none" stroke="rgb(26, 133, 18)" stroke-opacity="0.9800922" stroke-linecap="round" stroke-linejoin="round"/>
    <path d="M 91.5704345703125 49.47149658203125 C 98.62751007080078 47.367340087890625 99.1406478881836 52.72942352294922 98.80286407470703 53.35990524291992" stroke-width="1.1892671585083008" fill="none" stroke="rgb(30, 133, 18)" stroke-opacity="0.98460186" stroke-linecap="round" stroke-linejoin="round"/>
    <path d="M 88.5777359008789 49.66539001464844 C 94.49907684326172 50.46547317504883 96.75411987304688 51.75508117675781 99.35891723632812 53.1562385559082" stroke-width="1.3076412677764893" fill="none" stroke="rgb(84, 234, 55)" stroke-opacity="1.0" stroke-linecap="round" stroke-linejoin="round"/>
    <path d="M 85.62638854980469 21.389726638793945 C 85.49479675292969 23.472543716430664 87.34243774414062 27.775035858154297 89.31543731689453 29.22584342956543" stroke-width="1.2212997674942017" fill="none" stroke="rgb(23, 129, 13)" stroke-opacity="1.0" stroke-linecap="round" stroke-linejoin="round"/>
    <path d="M 85.60649871826172 21.53024673461914 C 91.58262634277344 26.69701385498047 89.5405044555664 30.32313346862793 89.38992309570312 30.36467170715332" stroke-width="1.2890539169311523" fill="none" stroke="rgb(23, 132, 10)" stroke-opacity="1.0" stroke-linecap="round" stroke-linejoin="round"/>
    <path d="M 85.53975677490234 19.02271842956543 C 88.7857666015625 24.212995529174805 89.28748321533203 26.636648178100586 88.49040985107422 29.73092269897461" stroke-width="1.1892671585083008" fill="none" stroke="rgb(87, 234, 45)" stroke-opacity="1.0" stroke-linecap="round" stroke-linejoin="round"/>
    <path d="M 87.28187561035156 19.02413558959961 C 89.62825012207031 21.17728614807129 93.375 23.16061782836914 95.4114990234375 23.381166458129883" stroke-width="1.1892671585083008" fill="none" stroke="rgb(24, 133, 13)" stroke-opacity="0.99759305" stroke-linecap="round" stroke-linejoin="round"/>
    <path d="M 86.32225036621094 20.035558700561523 C 94.07035827636719 18.903993606567383 94.756103515625 23.70357894897461 95.34441375732422 23.755197525024414" stroke-width="1.1892671585083008" fill="none" stroke="rgb(29, 133, 14)" stroke-opacity="0.9857636" stroke-linecap="round" stroke-linejoin="round"/>
    <path d="M 84.7930908203125 19.004873275756836 C 90.35489654541016 20.982654571533203 92.60566711425781 22.2845458984375 95.172607421875 23.602190017700195" stroke-width="1.302086353302002" fill="none" stroke="rgb(86, 235, 46)" stroke-opacity="1.0" stroke-linecap="round" stroke-linejoin="round"/>
    <path d="M 74.89019775390625 29.59592056274414 C 73.30565643310547 32.264801025390625 71.89430236816406 36.45848846435547 72.8393783569336 39.029415130615234" stroke-width="1.3017821311950684" fill="none" stroke="rgb(23, 132, 9)" stroke-opacity="1.0" stroke-linecap="round" stroke-linejoin="round"/>
    <path d="M 75.26173400878906 30.7274227142334 C 78.6760025024414 37.68379211425781 74.08264923095703 38.59781265258789 73.84761810302734 38.832645416259766" stroke-width="1.2114499807357788" fill="none" stroke="rgb(31, 130, 9)" stroke-opacity="0.9961616" stroke-linecap="round" stroke-linejoin="round"/>
    <path d="M 75.73612976074219 28.935436248779297 C 75.99585723876953 34.91033172607422 75.11812591552734 37.34101486206055 74.0088882446289 39.04759216308594" stroke-width="1.1892671585083008" fill="none" stroke="rgb(88, 235, 49)" stroke-opacity="0.98104215" stroke-linecap="round" stroke-linejoin="round"/>
    <path d="M 77.2989273071289 28.730863571166992 C 78.16416931152344 31.671689987182617 79.7230453491211 36.2432975769043 82.77368927001953 36.32802963256836" stroke-width="1.1892671585083008" fill="none" stroke="rgb(33, 133, 19)" stroke-opacity="0.9806342" stroke-linecap="round" stroke-linejoin="round"/>
    <path d="M 76.87487030029297 28.726985931396484 C 83.51885223388672 32.6895866394043 82.40898895263672 37.140567779541016 81.5858154296875 36.23890686035156" stroke-width="1.1892671585083008" fill="none" stroke="rgb(33, 130, 20)" stroke-opacity="0.9807024" stroke-linecap="round" stroke-linejoin="round"/>
    <path d="M 75.2887954711914 27.85988998413086 C 80.06227111816406 31.897438049316406 81.34364318847656 34.106388092041016 81.90408325195312 36.80474090576172" stroke-width="1.3064159154891968" fill="none" stroke="rgb(84, 225, 46)" stroke-opacity="1.0" stroke-linecap="round" stroke-linejoin="round"/>
    <path d="M 85.4449691772461 39.50675964355469 C 84.62715148925781 36.47795867919922 84.39146423339844 32.294532775878906 86.14483642578125 30.47057342529297" stroke-width="1.2768021821975708" fill="none" stroke="rgb(29, 133, 14)" stroke-opacity="0.9800063" stroke-linecap="round" stroke-linejoin="round"/>
    <path d="M 85.4963150024414 40.671470642089844 C 90.92732238769531 35.0270881652832 87.14498138427734 31.6606388092041 87.29247283935547 30.512250900268555" stroke-width="1.2714924812316895" fill="none" stroke="rgb(29, 130, 12)" stroke-opacity="0.9959018" stroke-linecap="round" stroke-linejoin="round"/>
    <path d="M 83.62805938720703 41.34949493408203 C 86.1695556640625 35.813297271728516 86.68174743652344 33.21418762207031 86.66860961914062 32.06929397583008" stroke-width="1.1892671585083008" fill="none" stroke="rgb(84, 235, 49)" stroke-opacity="0.9825306" stroke-linecap="round" stroke-linejoin="round"/>
    <path d="M 85.13687896728516 40.86763000488281 C 87.09131622314453 38.44622802734375 90.64266204833984 36.13444519042969 93.16484832763672 37.25799560546875" stroke-width="1.1892671585083008" fill="none" stroke="rgb(24, 133, 19)" stroke-opacity="0.98004127" stroke-linecap="round" stroke-linejoin="round"/>
    <path d="M 85.86564636230469 40.91792297363281 C 94.0501480102539 41.32915496826172 94.39043426513672 37.619937896728516 93.19806671142578 37.481571197509766" stroke-width="1.1892671585083008" fill="none" stroke="rgb(25, 133, 9)" stroke-opacity="0.9994084" stroke-linecap="round" stroke-linejoin="round"/>
    <path d="M 83.57715606689453 41.01239013671875 C 89.2664794921875 39.70448684692383 91.39432525634766 38.28794479370117 92.64067077636719 36.67798614501953" stroke-width="1.1892671585083008" fill="none" stroke="rgb(86, 234, 53)" stroke-opacity="0.99394614" stroke-linecap="round" stroke-linejoin="round"/>
    <path d="M 61.926273345947266 36.84547805786133 C 60.109588623046875 38.69424819946289 56.11355209350586 40.14543151855469 53.23945617675781 38.66015625" stroke-width="1.289760708808899" fill="none" stroke="rgb(23, 123, 10)" stroke-opacity="1.0" stroke-linecap="round" stroke-linejoin="round"/>
    <path d="M 62.40780258178711 35.70608139038086 C 53.939735412597656 33.38203811645508 53.2972297668457 38.02731704711914 53.434879302978516 38.16077423095703" stroke-width="1.248672604560852" fill="none" stroke="rgb(30, 124, 15)" stroke-opacity="0.9973025" stroke-linecap="round" stroke-linejoin="round"/>
    <path d="M 63.48134994506836 36.206886291503906 C 58.34787368774414 36.40254592895508 55.95093536376953 37.995704650878906 53.191307067871094 39.15983963012695" stroke-width="1.1892671585083008" fill="none" stroke="rgb(90, 234, 49)" stroke-opacity="0.9975104" stroke-linecap="round" stroke-linejoin="round"/>
    <path d="M 62.24083709716797 35.84086608886719 C 59.26054000854492 35.025596618652344 55.57634735107422 33.00178909301758 55.78619384765625 30.624584197998047" stroke-width="1.1987409591674805" fill="none" stroke="rgb(23, 127, 13)" stroke-opacity="0.99914503" stroke-linecap="round" stroke-linejoin="round"/>
    <path d="M 62.21951675415039 35.5760383605957 C 59.4847526550293 28.0418643951416 55.04423904418945 29.54254913330078 54.631221771240234 29.261667251586914" stroke-width="1.1892671585083008" fill="none" stroke="rgb(23, 127, 13)" stroke-opacity="1.0" stroke-linecap="round" stroke-linejoin="round"/>
    <path d="M 63.156105041503906 36.59370803833008 C 59.36402893066406 31.64467430114746 57.05506134033203 30.48830795288086 55.157047271728516 29.148117065429688" stroke-width="1.3014475107192993" fill="none" stroke="rgb(84, 234, 55)" stroke-opacity="0.99454653" stroke-linecap="round" stroke-linejoin="round"/>
    <path d="M 46.28529739379883 82.28424835205078 C 69.228271484375 90.4441909790039 88.96370697021484 86.73441314697266 91.47449493408203 86.44712829589844" stroke-width="1.3065229654312134" fill="none" stroke="rgb(219, 64, 29)" stroke-opacity="1.0" stroke-linecap="round" stroke-linejoin="round"/>
    <path d="M 75.94866180419922 86.20492553710938 C 76.69821166992188 86.12068939208984 76.00469970703125 87.1572265625 75.92810821533203 87.62801361083984 C 75.93751525878906 89.62544250488281 75.92951965332031 90.99755096435547 75.96719360351562 92.456787109375 C 77.08610534667969 94.15086364746094 77.0545654296875 96.28734588623047 76.77023315429688 99.2379150390625 C 76.6629867553711 99.80628204345703 77.21826934814453 102.57869720458984 76.80120849609375 102.99457550048828 C 76.25007629394531 103.54198455810547 73.89315795898438 102.40087127685547 72.69235229492188 102.50926208496094 C 70.57618713378906 102.84131622314453 68.43885040283203 103.25569152832031 66.33818817138672 103.54843139648438 C 62.51270294189453 104.02074432373047 56.686737060546875 105.47769927978516 52.21738052368164 105.08869171142578 C 46.249664306640625 104.51499938964844 43.42268371582031 98.57515716552734 42.74457550048828 93.23656463623047 C 42.57576370239258 91.95560455322266 42.0124626159668 87.47180938720703 43.500423431396484 86.00277709960938 C 44.67441940307617 80.63629150390625 47.38636779785156 77.66893768310547 52.67403030395508 77.44099426269531" stroke-width="1.1892671585083008" fill="none" stroke="rgb(19, 28, 18)" stroke-opacity="0.9865198" stroke-linecap="round" stroke-linejoin="round"/>
    <path d="M 76.32998657226562 98.26920318603516 C 78.2833480834961 92.24378967285156 74.10243225097656 91.50902557373047 79.59217071533203 84.69647216796875" stroke-width="1.1892671585083008" fill="none" stroke="rgb(154, 218, 146)" stroke-opacity="0.8097952" stroke-linecap="round" stroke-linejoin="round"/>
    <path d="M 88.97712707519531 49.24333190917969 C 82.79117584228516 46.17415237426758 83.3167724609375 41.60049057006836 77.39006805419922 44.964420318603516 C 71.79267120361328 50.5848388671875 76.03395080566406 49.50657272338867 69.62854766845703 49.33085250854492" stroke-width="1.1892671585083008" fill="none" stroke="rgb(231, 244, 97)" stroke-opacity="0.91375357" stroke-linecap="round" stroke-linejoin="round"/>
    <path d="M 86.48096466064453 30.933330535888672 C 90.32442474365234 27.430906295776367 89.5792007446289 22.33290672302246 82.48615264892578 25.90816879272461" stroke-width="1.426925539970398" fill="none" stroke="rgb(121, 62, 10)" stroke-opacity="0.6017543" stroke-linecap="round" stroke-linejoin="round"/>
    <path d="M 69.42960357666016 30.51431655883789 C 74.27794647216797 24.298168182373047 72.77136993408203 24.51464080810547 77.35919189453125 21.397478103637695 C 81.78987884521484 26.71263885498047 75.1720199584961 31.024513244628906 74.8714370727539 26.29322624206543 C 77.74876403808594 25.289653778076172 71.9324722290039 21.381145477294922 72.53756713867188 19.549198150634766" stroke-width="1.4229174852371216" fill="none" stroke="rgb(181, 54, 51)" stroke-opacity="0.26977664" stroke-linecap="round" stroke-linejoin="round"/>
    <path d="M 67.16886901855469 57.424076080322266 C 60.62651443481445 60.597129821777344 55.31193923950195 55.27106475830078 51.63683319091797 57.39712905883789 C 51.51094055175781 57.55695724487305 46.01608657836914 64.16763305664062 43.43852233886719 68.00667572021484 C 47.74053955078125 63.01090621948242 51.55948257446289 63.32719802856445 54.0438346862793 62.204978942871094" stroke-width="1.4215761423110962" fill="none" stroke="rgb(73, 12, 11)" stroke-opacity="0.44725913" stroke-linecap="round" stroke-linejoin="round"/>
    <path d="M 76.14427947998047 28.927326202392578 C 71.2373046875 26.376893997192383 67.68047332763672 30.0519962310791 65.72095489501953 36.27176284790039" stroke-width="1.1892671585083008" fill="none" stroke="rgb(100, 151, 245)" stroke-opacity="0.3958268" stroke-linecap="round" stroke-linejoin="round"/>
    <path d="M 73.86966705322266 38.54027557373047 C 74.92156219482422 41.59675979614258 69.56529998779297 35.15541076660156 63.68856430053711 30.366506576538086 C 65.60901641845703 36.07945251464844 61.23334884643555 41.0940055847168 63.781429290771484 39.10956954956055 C 69.50626373291016 42.042545318603516 70.55209350585938 39.96683883666992 76.09785461425781 33.469459533691406" stroke-width="1.4101569652557373" fill="none" stroke="rgb(44, 23, 142)" stroke-opacity="0.51902276" stroke-linecap="round" stroke-linejoin="round"/>
    <path d="M 46.17598342895508 49.47309875488281 C 42.24947738647461 43.52408981323242 39.678680419921875 42.14652633666992 42.27101135253906 40.746700286865234 C 38.27458953857422 37.577980041503906 36.390220642089844 35.43556594848633 33.99940490722656 30.53570556640625 C 39.9797477722168 35.47941207885742 46.03932189941406 35.69709777832031 50.980934143066406 37.46355056762695" stroke-width="1.265982985496521" fill="none" stroke="rgb(193, 156, 98)" stroke-opacity="0.8327086" stroke-linecap="round" stroke-linejoin="round"/>
    <path d="M 54.2097282409668 61.57787322998047 C 54.14215850830078 62.80451583862305 59.425201416015625 63.78427505493164 64.24620819091797 62.07168197631836 C 63.279930114746094 61.75069808959961 63.707767486572266 63.33845520019531 61.775699615478516 58.47245407104492" stroke-width="1.3512552976608276" fill="none" stroke="rgb(201, 84, 21)" stroke-opacity="0.4312919" stroke-linecap="round" stroke-linejoin="round"/>
    <path d="M 72.16659545898438 18.750795364379883 C 76.43424987792969 22.830106735229492 70.26405334472656 29.66154670715332 66.49285125732422 26.103134155273438 C 69.32902526855469 21.903295516967773 68.4329605102539 25.439058303833008 64.74160766601562 26.993083953857422 C 66.2318344116211 32.94453430175781 62.742279052734375 33.32188034057617 56.05470657348633 38.10433578491211" stroke-width="1.4263136386871338" fill="none" stroke="rgb(227, 58, 16)" stroke-opacity="0.5614198" stroke-linecap="round" stroke-linejoin="round"/>
    <path d="M 54.20233917236328 62.6278076171875 C 59.087158203125 63.666683197021484 56.71207046508789 58.95820236206055 55.0789909362793 58.44563293457031" stroke-width="1.1892671585083008" fill="none" stroke="rgb(215, 68, 224)" stroke-opacity="0.09277368" stroke-linecap="round" stroke-linejoin="round"/>
    <path d="M 72.75723266601562 19.510618209838867 C 74.7237319946289 21.010906219482422 79.64517211914062 18.95726203918457 77.2608413696289 18.937538146972656 C 70.31285858154297 14.093425750732422 65.63179779052734 9.042830467224121 69.05473327636719 9.026127815246582" stroke-width="1.4116125106811523" fill="none" stroke="rgb(226, 126, 206)" stroke-opacity="0.19538479" stroke-linecap="round" stroke-linejoin="round"/>
    <path d="M 66.41310119628906 36.525882720947266 C 59.39101028442383 41.43130874633789 63.9985466003418 43.76395797729492 58.5662727355957 47.17765426635742 C 53.91798400878906 44.06382369995117 55.50102233886719 48.536434173583984 61.883209228515625 51.644630432128906" stroke-width="1.4184964895248413" fill="none" stroke="rgb(63, 216, 173)" stroke-opacity="0.97570544" stroke-linecap="round" stroke-linejoin="round"/>
    <path d="M 72.83363342285156 18.38280487060547 C 76.38899993896484 22.072824478149414 71.25118255615234 16.182178497314453 65.38729095458984 9.527681350708008 C 65.28187561035156 13.30463695526123 64.01022338867188 12.939478874206543 63.79304885864258 17.49819564819336" stroke-width="1.1892671585083008" fill="none" stroke="rgb(43, 131, 203)" stroke-opacity="0.49904454" stroke-linecap="round" stroke-linejoin="round"/>
    <path d="M 50.96217346191406 38.53331756591797 C 53.51517868041992 32.41317367553711 55.589385986328125 35.4212646484375 50.751190185546875 31.66119956970215 C 52.74417495727539 31.513545989990234 56.785831451416016 32.23866271972656 52.66719436645508 36.63248062133789 C 59.219417572021484 37.5153694152832 54.376075744628906 39.612030029296875 49.70432662963867 45.87034606933594" stroke-width="1.4261977672576904" fill="none" stroke="rgb(132, 49, 140)" stroke-opacity="0.6007773" stroke-linecap="round" stroke-linejoin="round"/>
    <path d="M 53.83811950683594 62.58311462402344 C 52.615379333496094 61.40261459350586 51.347408294677734 61.2076301574707 54.928192138671875 64.96024322509766 C 60.19512939453125 60.054378509521484 59.6113166809082 54.731143951416016 60.854637145996094 54.51481628417969" stroke-width="1.426576852798462" fill="none" stroke="rgb(168, 115, 139)" stroke-opacity="0.6202335" stroke-linecap="round" stroke-linejoin="round"/>
    <path d="M 7.979909420013428 123.37560272216797 C 9.524887084960938 120.36457824707031 9.270919799804688 123.96694946289062 11.41822338104248 127.70165252685547" stroke-width="1.1892671585083008" fill="none" stroke="rgb(42, 189, 115)" stroke-opacity="0.38353533" stroke-linecap="round" stroke-linejoin="round"/>
    <path d="M 31.727863311767578 38.01471710205078 C 31.28301239013672 42.0064582824707 34.86846160888672 35.975242614746094 32.191802978515625 41.700233459472656 C 38.48429489135742 46.27843475341797 43.425819396972656 43.95664596557617 48.78505325317383 47.076316833496094" stroke-width="1.2176486253738403" fill="none" stroke="rgb(194, 67, 208)" stroke-opacity="0.7927605" stroke-linecap="round" stroke-linejoin="round"/>
    <path d="M 83.225830078125 89.90935516357422 C 82.912353515625 95.48186492919922 82.83966064453125 101.91838836669922 84.23287200927734 101.17927551269531 C 84.51923370361328 102.63370513916016 86.76753997802734 106.64434814453125 82.77857971191406 104.32149505615234 C 83.49239349365234 104.59523010253906 80.31830596923828 107.77285766601562 74.58204650878906 114.37519836425781" stroke-width="1.4224265813827515" fill="none" stroke="rgb(27, 59, 162)" stroke-opacity="0.58543056" stroke-linecap="round" stroke-linejoin="round"/>
    <path d="M 121.36226654052734 130.3432159423828 C 114.99483489990234 125.38805389404297 119.09811401367188 131.17367553710938 122.54170989990234 135.78770446777344 C 117.95598602294922 140.66587829589844 124.36422729492188 138.90199279785156 129.3098602294922 144.945068359375" stroke-width="1.1892671585083008" fill="none" stroke="rgb(167, 12, 152)" stroke-opacity="0.58954155" stroke-linecap="round" stroke-linejoin="round"/>
    <path d="M 82.75670623779297 38.65060806274414 C 87.61155700683594 42.32833480834961 87.90050506591797 36.7843132019043 80.70569610595703 39.63518524169922" stroke-width="1.4271152019500732" fill="none" stroke="rgb(215, 181, 164)" stroke-opacity="0.43620038" stroke-linecap="round" stroke-linejoin="round"/>
    <path d="M 65.39795684814453 79.38190460205078 C 67.8333740234375 81.11612701416016 62.23418426513672 78.6181640625 67.71272277832031 75.824951171875" stroke-width="1.2269511222839355" fill="none" stroke="rgb(184, 100, 25)" stroke-opacity="0.59854716" stroke-linecap="round" stroke-linejoin="round"/>
    <path d="M 107.09998321533203 100.16940307617188 C 103.00867462158203 104.97769927978516 96.39904022216797 104.04803466796875 93.92778778076172 103.6645736694336 C 92.7862548828125 104.52542877197266 92.87603759765625 106.1252670288086 92.85257720947266 109.37081146240234" stroke-width="1.1892671585083008" fill="none" stroke="rgb(26, 137, 33)" stroke-opacity="0.6340329" stroke-linecap="round" stroke-linejoin="round"/>
    <path d="M 78.10552215576172 127.70764923095703 C 74.57083892822266 123.20954895019531 70.26638793945312 124.79466247558594 65.29204559326172 126.01244354248047" stroke-width="1.1892671585083008" fill="none" stroke="rgb(150, 199, 210)" stroke-opacity="0.8827333" stroke-linecap="round" stroke-linejoin="round"/>
    <path d="M 22.054115295410156 86.68281555175781 C 18.492090225219727 90.35562133789062 12.28279972076416 84.93038940429688 10.146472930908203 83.46054077148438 C 6.516249179840088 83.06895446777344 11.143370628356934 86.3765640258789 17.63153648376465 81.54071807861328 C 22.95208740234375 82.7438735961914 26.216278076171875 88.39148712158203 30.909645080566406 94.55984497070312" stroke-width="1.2424521446228027" fill="none" stroke="rgb(212, 84, 161)" stroke-opacity="0.7116935" stroke-linecap="round" stroke-linejoin="round"/>
    <path d="M 111.50431823730469 37.15626907348633 C 113.05792999267578 32.575462341308594 108.18180847167969 29.825088500976562 110.30690002441406 32.6536750793457" stroke-width="1.2995604276657104" fill="none" stroke="rgb(170, 177, 133)" stroke-opacity="0.84402895" stroke-linecap="round" stroke-linejoin="round"/>
    <path d="M 104.99383544921875 58.71097183227539 C 99.9717025756836 54.280372619628906 104.79856872558594 51.872737884521484 106.7925033569336 56.563751220703125 C 104.42024993896484 61.8697624206543 101.18144989013672 56.43824005126953 105.32549285888672 62.525108337402344" stroke-width="1.396458625793457" fill="none" stroke="rgb(104, 251, 225)" stroke-opacity="0.57382053" stroke-linecap="round" stroke-linejoin="round"/>
    <path d="M 78.55541229248047 11.293169975280762 C 80.28631591796875 6.510489463806152 81.69063568115234 3.0372745990753174 84.4897689819336 2.8346917629241943 C 86.44767761230469 8.780550956726074 83.30302429199219 13.407000541687012 82.27242279052734 18.736570358276367" stroke-width="1.1892671585083008" fill="none" stroke="rgb(21, 42, 17)" stroke-opacity="0.59227365" stroke-linecap="round" stroke-linejoin="round"/>
    <path d="M 100.49935913085938 100.36858367919922 C 99.01954650878906 105.03459930419922 97.73970794677734 109.5762710571289 94.00853729248047 110.74485778808594 C 88.26945495605469 115.05261993408203 88.32121276855469 117.8133773803711 84.1289291381836 121.98474884033203" stroke-width="1.3991550207138062" fill="none" stroke="rgb(6, 206, 171)" stroke-opacity="0.21035333" stroke-linecap="round" stroke-linejoin="round"/>
    <path d="M 84.50129699707031 123.02871704101562 C 90.64141082763672 122.35884094238281 97.25092315673828 123.18143463134766 94.59093475341797 118.58683776855469 C 91.59880065917969 118.9862060546875 87.3310317993164 125.55287170410156 90.70368957519531 129.98300170898438" stroke-width="1.1892671585083008" fill="none" stroke="rgb(126, 231, 22)" stroke-opacity="0.0" stroke-linecap="round" stroke-linejoin="round"/>
    <path d="M 22.751930236816406 82.4011459350586 C 20.678911209106445 83.08020782470703 21.60227394104004 77.82239532470703 21.522937774658203 83.50692749023438 C 19.0050106048584 77.63304138183594 22.580801010131836 77.8480453491211 28.975595474243164 81.95429229736328 C 22.587047576904297 77.26917266845703 20.404560089111328 80.05977630615234 15.083246231079102 83.95439910888672" stroke-width="1.1892671585083008" fill="none" stroke="rgb(197, 242, 222)" stroke-opacity="0.5364604" stroke-linecap="round" stroke-linejoin="round"/>
    <path d="M 1.4237353801727295 67.69239044189453 C -4.718669414520264 63.79513168334961 -8.001338005065918 68.84294128417969 -12.390905380249023 65.11679077148438 C -13.765661239624023 67.9824447631836 -17.326114654541016 69.11058807373047 -16.51297950744629 66.59833526611328 C -19.47463607788086 61.07658004760742 -25.426475524902344 61.08697509765625 -27.88791847229004 55.02604293823242" stroke-width="1.1892671585083008" fill="none" stroke="rgb(51, 229, 204)" stroke-opacity="0.019098934" stroke-linecap="round" stroke-linejoin="round"/>
  </g>
</svg>
