<?xml version="1.0" ?>
<svg xmlns="http://www.w3.org/2000/svg" version="1.1" width="122.0" height="122.0">
  <defs/>
  <g>
    <path d="M 33.60938262939453 38.590511322021484 C 30.975997924804688 38.83358383178711 29.310176849365234 38.52570343017578 27.752519607543945 39.007381439208984 C 25.408435821533203 38.82871627807617 25.23090362548828 39.23811340332031 24.517486572265625 39.72237777709961 C 24.071453094482422 40.4749870300293 22.862577438354492 40.4921760559082 22.76262664794922 42.46918869018555 C 23.906774520874023 43.55872344970703 26.067174911499023 46.81001663208008 27.595518112182617 50.70561981201172 C 29.704381942749023 54.016090393066406 30.41968536376953 55.02069091796875 31.372060775756836 55.96073913574219" stroke-width="1.0892857313156128" fill="none" stroke="rgb(9, 0, 82)" stroke-opacity="0.9993767" stroke-linecap="round" stroke-linejoin="round"/>
    <path d="M 47.77518081665039 47.18209457397461 C 44.86185073852539 47.536766052246094 41.99296188354492 48.24858856201172 42.270774841308594 48.3203239440918 C 42.89350128173828 48.386207580566406 45.906822204589844 47.410762786865234 47.33698654174805 47.934364318847656 C 47.93120193481445 49.38560485839844 45.69410705566406 51.18980026245117 45.34571838378906 51.627193450927734 C 44.24208450317383 51.156044006347656 45.39289093017578 50.06161117553711 46.55522537231445 50.32451248168945 C 47.029327392578125 51.572566986083984 46.70582962036133 53.20377731323242 46.23226547241211 54.759185791015625 C 44.79574966430664 56.12077713012695 45.97868347167969 55.76964569091797 48.310813903808594 55.45817565917969" stroke-width="1.1479096412658691" fill="none" stroke="rgb(0, 101, 217)" stroke-opacity="0.7194533" stroke-linecap="round" stroke-linejoin="round"/>
    <path d="M 27.6019229888916 37.788970947265625 C 27.82798957824707 36.1204833984375 27.840778350830078 33.73241424560547 29.689054489135742 33.979244232177734 C 30.49867057800293 34.35829544067383 33.11951446533203 37.75276184082031 36.76572036743164 39.91264724731445 C 38.98454284667969 42.836265563964844 42.82363510131836 39.60946273803711 46.74774169921875 36.44864273071289" stroke-width="1.0892857313156128" fill="none" stroke="rgb(195, 206, 174)" stroke-opacity="0.39277643" stroke-linecap="round" stroke-linejoin="round"/>
    <path d="M 31.452402114868164 56.05265426635742 C 34.12920379638672 52.45602798461914 36.84817123413086 48.90175247192383 39.5849609375 45.36180877685547 C 42.2915153503418 40.772037506103516 37.00229263305664 41.78789520263672 31.036033630371094 43.25165557861328" stroke-width="1.3842495679855347" fill="none" stroke="rgb(112, 185, 186)" stroke-opacity="0.3922201" stroke-linecap="round" stroke-linejoin="round"/>
    <path d="M 47.219844818115234 55.68246841430664 C 50.6614990234375 60.67182540893555 52.30559158325195 57.71757888793945 51.878623962402344 57.008174896240234" stroke-width="1.0892857313156128" fill="none" stroke="rgb(120, 25, 56)" stroke-opacity="0.26432115" stroke-linecap="round" stroke-linejoin="round"/>
    <path d="M 46.4354248046875 54.09071350097656 C 48.24974060058594 53.43800354003906 48.97885513305664 51.688720703125 50.789466857910156 51.0247688293457 C 52.966514587402344 50.37763595581055 51.94701385498047 53.014488220214844 51.85350799560547 56.38753128051758" stroke-width="1.0892857313156128" fill="none" stroke="rgb(101, 15, 204)" stroke-opacity="0.17245598" stroke-linecap="round" stroke-linejoin="round"/>
    <path d="M 46.373531341552734 47.66010284423828 C 49.077911376953125 53.899085998535156 44.516326904296875 52.7787971496582 40.69982147216797 52.54634475708008" stroke-width="1.0918301343917847" fill="none" stroke="rgb(137, 30, 183)" stroke-opacity="0.706073" stroke-linecap="round" stroke-linejoin="round"/>
    <path d="M 47.510398864746094 55.639122009277344 C 48.39719772338867 56.65038299560547 50.12980651855469 57.30506896972656 51.015892028808594 57.322364807128906 C 51.830867767333984 56.98313522338867 52.68938064575195 55.449249267578125 53.636634826660156 54.006103515625 C 54.3393440246582 52.28102111816406 48.870662689208984 56.70136642456055 44.53932571411133 61.60590744018555" stroke-width="1.1897597312927246" fill="none" stroke="rgb(167, 185, 70)" stroke-opacity="0.023272738" stroke-linecap="round" stroke-linejoin="round"/>
    <path d="M 31.125539779663086 56.60652542114258 C 26.114702224731445 59.15467071533203 20.45777130126953 61.216121673583984 19.395654678344727 60.70698928833008 C 17.68271827697754 60.53361892700195 19.383716583251953 56.83766174316406 20.504602432250977 53.0983772277832 C 22.282608032226562 48.85774230957031 23.03087043762207 44.52423095703125 23.47793197631836 40.764522552490234" stroke-width="1.0892857313156128" fill="none" stroke="rgb(211, 198, 123)" stroke-opacity="0.7068709" stroke-linecap="round" stroke-linejoin="round"/>
    <path d="M 28.28134536743164 39.20180892944336 C 27.61713218688965 34.189266204833984 26.435558319091797 30.570205688476562 25.963241577148438 25.232524871826172 C 25.52785873413086 20.92620277404785 29.54902458190918 23.68388557434082 31.843833923339844 27.255666732788086" stroke-width="1.1680470705032349" fill="none" stroke="rgb(169, 75, 26)" stroke-opacity="0.51368994" stroke-linecap="round" stroke-linejoin="round"/>
    <path d="M 44.321964263916016 61.41557693481445 C 44.439144134521484 67.3719253540039 45.4406852722168 72.42186737060547 46.82567596435547 77.03394317626953 C 48.45392990112305 81.64041137695312 46.745880126953125 78.04232788085938 44.37697219848633 75.34895324707031" stroke-width="1.1502323150634766" fill="none" stroke="rgb(207, 36, 130)" stroke-opacity="0.23755395" stroke-linecap="round" stroke-linejoin="round"/>
    <path d="M 40.57868957519531 52.541751861572266 C 40.59886169433594 51.066017150878906 41.767852783203125 53.65779495239258 45.339599609375 58.350399017333984" stroke-width="1.0892857313156128" fill="none" stroke="rgb(188, 62, 130)" stroke-opacity="0.80437905" stroke-linecap="round" stroke-linejoin="round"/>
    <path d="M 46.020660400390625 36.13086700439453 C 50.88271713256836 32.29869079589844 55.46345520019531 28.147476196289062 56.30570983886719 26.78522300720215 C 58.146121978759766 26.811199188232422 56.771453857421875 30.105754852294922 55.273475646972656 32.690277099609375 C 54.040077209472656 36.10308074951172 58.798004150390625 40.82856369018555 63.47880172729492 45.70970153808594" stroke-width="1.1354122161865234" fill="none" stroke="rgb(201, 196, 179)" stroke-opacity="0.066970855" stroke-linecap="round" stroke-linejoin="round"/>
    <path d="M 46.504188537597656 37.19877243041992 C 49.56146240234375 42.91990661621094 47.32741928100586 36.41936111450195 41.69824981689453 30.493892669677734" stroke-width="1.0892857313156128" fill="none" stroke="rgb(165, 244, 227)" stroke-opacity="0.52908343" stroke-linecap="round" stroke-linejoin="round"/>
    <path d="M 24.84571647644043 39.82564163208008 C 25.915699005126953 40.726219177246094 26.73560905456543 41.49773406982422 27.859100341796875 44.380645751953125 C 29.249752044677734 46.95513916015625 32.38806915283203 50.133609771728516 35.011173248291016 53.89877700805664 C 37.43097686767578 57.49675369262695 39.74870681762695 52.60486602783203 42.132991790771484 48.562530517578125" stroke-width="1.374264121055603" fill="none" stroke="rgb(182, 101, 78)" stroke-opacity="0.8800813" stroke-linecap="round" stroke-linejoin="round"/>
    <path d="M 44.677101135253906 60.60236740112305 C 44.43531036376953 56.64857482910156 43.35917282104492 53.43982696533203 44.04338073730469 48.62891387939453 C 43.79902648925781 44.62605667114258 41.650787353515625 45.084835052490234 38.475032806396484 45.56196212768555" stroke-width="1.098775029182434" fill="none" stroke="rgb(206, 40, 148)" stroke-opacity="0.24543205" stroke-linecap="round" stroke-linejoin="round"/>
    <path d="M 44.690975189208984 61.010555267333984 C 39.15351104736328 60.81635284423828 42.18309783935547 60.34906768798828 38.90229797363281 65.79542541503906" stroke-width="1.1472491025924683" fill="none" stroke="rgb(21, 44, 240)" stroke-opacity="0.801065" stroke-linecap="round" stroke-linejoin="round"/>
    <path d="M 43.78932571411133 60.66451644897461 C 38.48408889770508 61.22610092163086 35.91640090942383 61.69017791748047 32.97771072387695 63.277645111083984" stroke-width="1.3840456008911133" fill="none" stroke="rgb(77, 55, 255)" stroke-opacity="0.84694076" stroke-linecap="round" stroke-linejoin="round"/>
    <path d="M 66.75716400146484 40.75484848022461 C 68.18502044677734 41.93342590332031 68.35697174072266 43.51087188720703 69.19034576416016 44.379608154296875 C 70.37762451171875 44.544559478759766 68.35946655273438 44.72559356689453 67.72669219970703 44.00225067138672" stroke-width="1.0892857313156128" fill="none" stroke="rgb(53, 28, 4)" stroke-opacity="0.8252008" stroke-linecap="round" stroke-linejoin="round"/>
    <path d="M 58.0413932800293 63.27945327758789 C 60.565460205078125 62.17367172241211 62.231597900390625 60.171722412109375 63.99612808227539 59.47999954223633 C 65.79008483886719 58.822689056396484 66.91849517822266 58.76595687866211 67.86328887939453 58.597496032714844 C 68.72911834716797 58.09169387817383 66.71913146972656 59.42930221557617 65.80276489257812 61.852294921875" stroke-width="1.0892857313156128" fill="none" stroke="rgb(177, 88, 125)" stroke-opacity="0.26705888" stroke-linecap="round" stroke-linejoin="round"/>
    <path d="M 104.80146789550781 111.3636703491211 C 100.69722747802734 111.13469696044922 96.8660659790039 111.7625503540039 93.04703521728516 112.37892150878906 C 89.37822723388672 113.77411651611328 92.3547592163086 110.01612091064453 95.31224822998047 106.58251953125" stroke-width="1.0892857313156128" fill="none" stroke="rgb(225, 191, 204)" stroke-opacity="0.73175085" stroke-linecap="round" stroke-linejoin="round"/>
    <path d="M 37.811546325683594 70.81489562988281 C 33.83909225463867 70.637451171875 29.822452545166016 70.4365005493164 25.08001708984375 70.66305541992188 C 21.020246505737305 70.39610290527344 18.13741683959961 75.50264739990234 16.001636505126953 81.39422607421875" stroke-width="1.0892857313156128" fill="none" stroke="rgb(129, 115, 173)" stroke-opacity="0.81114376" stroke-linecap="round" stroke-linejoin="round"/>
    <path d="M 17.936519622802734 22.171648025512695 C 23.269668579101562 19.181838989257812 27.986692428588867 15.586221694946289 27.437162399291992 13.377872467041016 C 26.624910354614258 11.911551475524902 20.71395492553711 12.96098518371582 14.997138023376465 13.150681495666504 C 9.358922958374023 14.075114250183105 16.508153915405273 9.003790855407715 23.49471092224121 3.8403351306915283" stroke-width="1.0892857313156128" fill="none" stroke="rgb(222, 224, 245)" stroke-opacity="0.8273057" stroke-linecap="round" stroke-linejoin="round"/>
    <path d="M 19.54060935974121 87.01325225830078 C 21.986753463745117 85.86348724365234 26.044713973999023 84.3469467163086 27.674800872802734 84.9485092163086 C 28.251052856445312 87.65936279296875 28.98676109313965 92.82230377197266 29.279605865478516 97.10369873046875 C 28.970285415649414 102.12201690673828 28.838088989257812 97.55642700195312 27.97345733642578 93.06102752685547" stroke-width="1.0892857313156128" fill="none" stroke="rgb(147, 3, 224)" stroke-opacity="0.47617272" stroke-linecap="round" stroke-linejoin="round"/>
    <path d="M 6.627975940704346 75.94869232177734 C 5.747187614440918 75.1807632446289 3.031233310699463 81.50018310546875 2.794180393218994 83.3798599243164" stroke-width="1.2555886507034302" fill="none" stroke="rgb(111, 184, 165)" stroke-opacity="0.3084697" stroke-linecap="round" stroke-linejoin="round"/>
    <path d="M 98.38665008544922 100.17041778564453 C 101.82112121582031 95.12080383300781 98.90782928466797 100.11541748046875 96.05220031738281 104.90840911865234" stroke-width="1.1316136121749878" fill="none" stroke="rgb(166, 33, 84)" stroke-opacity="0.2143471" stroke-linecap="round" stroke-linejoin="round"/>
    <path d="M 53.06291961669922 98.14811706542969 C 57.658748626708984 105.73394775390625 58.23878860473633 109.67935180664062 55.432926177978516 109.28860473632812" stroke-width="1.1492680311203003" fill="none" stroke="rgb(92, 78, 128)" stroke-opacity="0.46347523" stroke-linecap="round" stroke-linejoin="round"/>
    <path d="M 115.7215576171875 112.11663055419922 C 116.87621307373047 113.40022277832031 116.92113494873047 115.17355346679688 117.5819320678711 114.22427368164062 C 118.96820068359375 113.38460540771484 121.56123352050781 110.25326538085938 124.1586685180664 107.12488555908203 C 127.29846954345703 104.53936004638672 130.95724487304688 104.29415130615234 134.61602783203125 104.0501480102539" stroke-width="1.3558926582336426" fill="none" stroke="rgb(157, 13, 14)" stroke-opacity="0.0830935" stroke-linecap="round" stroke-linejoin="round"/>
    <path d="M 8.441781997680664 7.28938627243042 C 12.851213455200195 1.9596718549728394 13.901189804077148 3.0734877586364746 17.87473487854004 -1.8540492057800293" stroke-width="1.0921772718429565" fill="none" stroke="rgb(107, 1, 224)" stroke-opacity="0.3172993" stroke-linecap="round" stroke-linejoin="round"/>
    <path d="M 45.83721923828125 116.40621948242188 C 44.59510040283203 112.66192626953125 43.327110290527344 109.53147888183594 43.992958068847656 110.36417388916016 C 44.71002960205078 111.15815734863281 46.4188232421875 116.76138305664062 48.875099182128906 121.61560821533203 C 50.5661506652832 127.22564697265625 47.54567337036133 123.5750732421875 44.56853103637695 119.86112213134766" stroke-width="1.0892857313156128" fill="none" stroke="rgb(62, 220, 212)" stroke-opacity="0.1590879" stroke-linecap="round" stroke-linejoin="round"/>
    <path d="M 63.579647064208984 105.79005432128906 C 63.87825012207031 107.19902038574219 65.17941284179688 107.63114929199219 66.59443664550781 107.9661636352539 C 68.1956558227539 108.14739990234375 65.79520416259766 107.08397674560547 63.863346099853516 105.593505859375" stroke-width="1.1906894445419312" fill="none" stroke="rgb(237, 69, 19)" stroke-opacity="0.0710982" stroke-linecap="round" stroke-linejoin="round"/>
    <path d="M 12.122512817382812 113.58203887939453 C 12.060344696044922 109.13907623291016 15.469963073730469 105.61988830566406 11.38334846496582 100.38742065429688" stroke-width="1.1696724891662598" fill="none" stroke="rgb(228, 33, 220)" stroke-opacity="0.474501" stroke-linecap="round" stroke-linejoin="round"/>
    <path d="M 91.72897338867188 115.49491119384766 C 86.26557922363281 113.43346405029297 86.93004608154297 108.76436614990234 84.63988494873047 115.18217468261719" stroke-width="1.1862859725952148" fill="none" stroke="rgb(10, 205, 44)" stroke-opacity="0.44541678" stroke-linecap="round" stroke-linejoin="round"/>
    <path d="M 117.531005859375 70.50007629394531 C 119.20201110839844 68.9731216430664 121.99269104003906 68.66375732421875 124.17996215820312 67.79466247558594 C 125.60163879394531 66.6966781616211 120.81524658203125 63.665122985839844 115.82363891601562 60.88737487792969" stroke-width="1.0892857313156128" fill="none" stroke="rgb(153, 210, 167)" stroke-opacity="0.42637017" stroke-linecap="round" stroke-linejoin="round"/>
    <path d="M 52.59526062011719 52.97425079345703 C 55.93446731567383 50.90769958496094 51.495174407958984 45.67456817626953 52.377342224121094 51.70768737792969" stroke-width="1.2146978378295898" fill="none" stroke="rgb(65, 93, 148)" stroke-opacity="0.08073094" stroke-linecap="round" stroke-linejoin="round"/>
    <path d="M 44.45931625366211 58.47269821166992 C 45.3764762878418 54.470054626464844 45.019588470458984 60.84783935546875 41.53931427001953 62.86631393432617 C 45.09037780761719 62.67531204223633 50.69884490966797 56.664695739746094 47.10926818847656 52.15310287475586 C 46.23557662963867 57.06096267700195 52.48773193359375 52.188438415527344 54.685020446777344 53.458309173583984" stroke-width="1.0892857313156128" fill="none" stroke="rgb(113, 108, 255)" stroke-opacity="0.22429642" stroke-linecap="round" stroke-linejoin="round"/>
    <path d="M 11.323890686035156 100.65229797363281 C 11.402177810668945 101.40707397460938 10.459927558898926 100.00643157958984 8.727992057800293 100.4918212890625 C 9.840198516845703 96.36205291748047 5.078032970428467 95.37439727783203 8.667332649230957 97.2337646484375 C 9.31671142578125 91.13941192626953 11.280533790588379 96.35153198242188 7.976145267486572 91.32991790771484" stroke-width="1.0892857313156128" fill="none" stroke="rgb(118, 132, 31)" stroke-opacity="0.85663784" stroke-linecap="round" stroke-linejoin="round"/>
    <path d="M 43.95051574707031 74.60679626464844 C 44.678192138671875 78.97738647460938 42.64539337158203 83.03131103515625 42.938934326171875 85.40161895751953 C 38.437591552734375 86.89641571044922 38.2161979675293 83.43325805664062 35.04920196533203 82.87201690673828" stroke-width="1.2869232892990112" fill="none" stroke="rgb(72, 252, 64)" stroke-opacity="0.18051581" stroke-linecap="round" stroke-linejoin="round"/>
    <path d="M 26.845251083374023 38.079227447509766 C 24.165081024169922 41.68828582763672 19.012157440185547 37.98116683959961 19.306461334228516 42.231300354003906 C 20.017160415649414 39.5585823059082 24.452835083007812 37.3601188659668 21.943727493286133 42.30018997192383" stroke-width="1.2803168296813965" fill="none" stroke="rgb(181, 86, 131)" stroke-opacity="0.31991848" stroke-linecap="round" stroke-linejoin="round"/>
    <path d="M 31.917695999145508 55.97674560546875 C 36.03561782836914 51.021244049072266 39.37437057495117 55.495361328125 44.893585205078125 55.658660888671875" stroke-width="1.0892857313156128" fill="none" stroke="rgb(133, 62, 189)" stroke-opacity="0.7474072" stroke-linecap="round" stroke-linejoin="round"/>
    <path d="M 30.2465763092041 56.59684753417969 C 32.652950286865234 57.8877067565918 27.728715896606445 56.15642547607422 22.632793426513672 59.63532257080078" stroke-width="1.1492446660995483" fill="none" stroke="rgb(247, 235, 253)" stroke-opacity="0.6692856" stroke-linecap="round" stroke-linejoin="round"/>
    <path d="M 25.113811492919922 40.13362121582031 C 29.434206008911133 39.69393539428711 33.428951263427734 42.59307098388672 29.043272018432617 44.381404876708984 C 22.786855697631836 50.26910400390625 19.556453704833984 47.04179763793945 23.854576110839844 46.893211364746094" stroke-width="1.0892857313156128" fill="none" stroke="rgb(48, 46, 22)" stroke-opacity="0.78684413" stroke-linecap="round" stroke-linejoin="round"/>
    <path d="M 21.807886123657227 42.63683319091797 C 27.429306030273438 39.30037307739258 30.115142822265625 33.21485137939453 29.999467849731445 33.99843215942383 C 29.3727970123291 33.77470016479492 29.134763717651367 33.48875045776367 28.434232711791992 27.871572494506836 C 23.670438766479492 24.479158401489258 20.98339080810547 20.473173141479492 26.647846221923828 22.2342472076416" stroke-width="1.0892857313156128" fill="none" stroke="rgb(86, 214, 135)" stroke-opacity="0.4352329" stroke-linecap="round" stroke-linejoin="round"/>
    <path d="M 23.850961685180664 46.79514694213867 C 25.886646270751953 46.30372619628906 31.102205276489258 46.9441032409668 32.07996368408203 43.36032485961914" stroke-width="1.168556571006775" fill="none" stroke="rgb(233, 3, 65)" stroke-opacity="0.49759227" stroke-linecap="round" stroke-linejoin="round"/>
    <path d="M 22.72381019592285 60.570167541503906 C 22.741941452026367 55.53146743774414 26.630672454833984 55.95058059692383 31.724199295043945 51.557518005371094 C 32.25067901611328 46.718013763427734 28.672128677368164 52.8192253112793 33.782161712646484 47.4595947265625 C 28.34443473815918 53.067466735839844 22.275314331054688 53.52192687988281 27.048654556274414 57.152801513671875" stroke-width="1.1547791957855225" fill="none" stroke="rgb(200, 105, 151)" stroke-opacity="0.60687244" stroke-linecap="round" stroke-linejoin="round"/>
    <path d="M 7.4996724128723145 91.2344741821289 C 7.23831033706665 97.2413101196289 6.7195258140563965 91.8027572631836 11.65038776397705 84.97982788085938" stroke-width="1.2093348503112793" fill="none" stroke="rgb(216, 167, 136)" stroke-opacity="0.25730014" stroke-linecap="round" stroke-linejoin="round"/>
    <path d="M 53.716392517089844 53.52367401123047 C 57.2779655456543 58.988338470458984 54.98180389404297 57.38193893432617 60.1630859375 53.49687957763672 C 58.63395309448242 55.46757507324219 63.486106872558594 50.51739501953125 65.27682495117188 48.6111946105957 C 60.98342514038086 53.70423126220703 59.187286376953125 49.9376220703125 57.95582962036133 45.527896881103516" stroke-width="1.1050070524215698" fill="none" stroke="rgb(16, 120, 19)" stroke-opacity="0.28930122" stroke-linecap="round" stroke-linejoin="round"/>
    <path d="M 22.63235092163086 60.6175537109375 C 20.346115112304688 55.438194274902344 15.618119239807129 55.369346618652344 19.291053771972656 50.354225158691406" stroke-width="1.0892857313156128" fill="none" stroke="rgb(249, 209, 83)" stroke-opacity="0.65159947" stroke-linecap="round" stroke-linejoin="round"/>
    <path d="M 22.01024627685547 41.84816360473633 C 19.402395248413086 44.79802703857422 15.383438110351562 46.94126892089844 16.349443435668945 48.19842529296875 C 10.331128120422363 50.67628479003906 6.18860387802124 46.2550163269043 6.051807403564453 40.34177017211914 C 8.874394416809082 38.91313171386719 14.883538246154785 33.78543472290039 14.30317497253418 35.07270812988281" stroke-width="1.0892857313156128" fill="none" stroke="rgb(111, 149, 221)" stroke-opacity="0.7787175" stroke-linecap="round" stroke-linejoin="round"/>
    <path d="M 23.850528717041016 47.16851806640625 C 21.966835021972656 42.638404846191406 26.519393920898438 47.2972526550293 23.811784744262695 43.523956298828125" stroke-width="1.0892857313156128" fill="none" stroke="rgb(141, 110, 171)" stroke-opacity="0.57782304" stroke-linecap="round" stroke-linejoin="round"/>
    <path d="M 23.974645614624023 76.75077819824219 C 30.078493118286133 78.0650405883789 26.99715232849121 78.06769561767578 30.17022132873535 73.04186248779297" stroke-width="1.3070776462554932" fill="none" stroke="rgb(95, 27, 41)" stroke-opacity="0.10630989" stroke-linecap="round" stroke-linejoin="round"/>
    <path d="M 26.447769165039062 17.841999053955078 C 24.314220428466797 13.440710067749023 18.99289894104004 11.82219123840332 23.156530380249023 11.223416328430176" stroke-width="1.2890958786010742" fill="none" stroke="rgb(19, 202, 103)" stroke-opacity="0.7542625" stroke-linecap="round" stroke-linejoin="round"/>
    <path d="M 67.1769790649414 36.33699035644531 C 72.21890258789062 34.38822555541992 73.32756805419922 32.96500778198242 70.23371124267578 27.06974220275879 C 70.10401153564453 30.698040008544922 73.68225860595703 31.34221839904785 69.38818359375 28.3114070892334 C 72.41250610351562 31.488983154296875 66.70465850830078 27.433162689208984 64.90498352050781 26.071475982666016" stroke-width="1.3036426305770874" fill="none" stroke="rgb(228, 62, 65)" stroke-opacity="0.9304658" stroke-linecap="round" stroke-linejoin="round"/>
    <path d="M 63.43928527832031 82.53417205810547 C 58.448455810546875 81.3467788696289 61.64891815185547 85.58036804199219 58.66710662841797 87.03181457519531" stroke-width="1.0892857313156128" fill="none" stroke="rgb(5, 29, 113)" stroke-opacity="0.0" stroke-linecap="round" stroke-linejoin="round"/>
    <path d="M 6.1216325759887695 25.962207794189453 C 10.36581802368164 19.756235122680664 4.8240885734558105 24.013303756713867 10.316600799560547 23.589208602905273" stroke-width="1.290558934211731" fill="none" stroke="rgb(23, 149, 123)" stroke-opacity="0.40271008" stroke-linecap="round" stroke-linejoin="round"/>
    <path d="M 63.860008239746094 42.173789978027344 C 68.19659423828125 39.397151947021484 63.98847961425781 40.263648986816406 68.65287780761719 39.15536117553711 C 73.602783203125 36.545753479003906 72.70587921142578 32.08150100708008 72.67808532714844 28.440738677978516" stroke-width="1.1315046548843384" fill="none" stroke="rgb(125, 219, 45)" stroke-opacity="0.026185509" stroke-linecap="round" stroke-linejoin="round"/>
    <path d="M 22.458284378051758 100.04512023925781 C 26.249618530273438 106.02899169921875 21.75492286682129 99.93926239013672 21.679847717285156 97.44380187988281 C 24.12527847290039 94.80015563964844 26.34296417236328 99.9644546508789 23.218402862548828 104.30183410644531 C 17.448732376098633 100.70509338378906 19.633522033691406 96.20189666748047 17.587881088256836 96.13078308105469" stroke-width="1.3042818307876587" fill="none" stroke="rgb(31, 21, 183)" stroke-opacity="0.10967171" stroke-linecap="round" stroke-linejoin="round"/>
    <path d="M 17.679157257080078 46.1323127746582 C 19.809526443481445 46.47021484375 17.469980239868164 43.50310516357422 16.581546783447266 42.24642562866211" stroke-width="1.0892857313156128" fill="none" stroke="rgb(3, 201, 110)" stroke-opacity="0.40071806" stroke-linecap="round" stroke-linejoin="round"/>
    <path d="M 114.42302703857422 41.389892578125 C 111.36100769042969 40.7932014465332 108.5809555053711 42.92531967163086 108.6075668334961 48.756553649902344" stroke-width="1.0892857313156128" fill="none" stroke="rgb(127, 190, 124)" stroke-opacity="0.11007807" stroke-linecap="round" stroke-linejoin="round"/>
    <path d="M 55.89685821533203 36.835853576660156 C 55.99851608276367 39.073116302490234 58.57358169555664 39.796756744384766 56.090492248535156 40.28608322143555" stroke-width="1.0892857313156128" fill="none" stroke="rgb(4, 182, 152)" stroke-opacity="0.17425907" stroke-linecap="round" stroke-linejoin="round"/>
    <path d="M 13.811197280883789 70.3575210571289 C 7.7693095207214355 64.47185516357422 10.731149673461914 63.74217987060547 13.708816528320312 63.187870025634766 C 9.774900436401367 59.74139404296875 9.557010650634766 58.6051025390625 13.018416404724121 62.387962341308594 C 14.599392890930176 59.449623107910156 16.960805892944336 61.48127746582031 15.226622581481934 57.175636291503906" stroke-width="1.0892857313156128" fill="none" stroke="rgb(200, 211, 19)" stroke-opacity="0.99366105" stroke-linecap="round" stroke-linejoin="round"/>
    <path d="M 104.27828979492188 94.69778442382812 C 104.17020416259766 89.23501586914062 106.50605010986328 84.69598388671875 108.2319107055664 85.78524017333984" stroke-width="1.0892857313156128" fill="none" stroke="rgb(89, 47, 48)" stroke-opacity="0.85758877" stroke-linecap="round" stroke-linejoin="round"/>
    <path d="M 39.29944610595703 112.48530578613281 C 40.67240524291992 114.7677993774414 44.55775451660156 119.57263946533203 44.03311538696289 120.35802459716797 C 46.33619689941406 119.01990509033203 41.699737548828125 120.9641342163086 40.732669830322266 116.28921508789062 C 42.36397171020508 122.24922943115234 42.37009048461914 126.69744873046875 44.23003005981445 129.4414520263672" stroke-width="1.3067408800125122" fill="none" stroke="rgb(181, 57, 243)" stroke-opacity="0.16134457" stroke-linecap="round" stroke-linejoin="round"/>
    <path d="M 86.63290405273438 56.768550872802734 C 91.92536163330078 62.61159896850586 92.4286117553711 62.98225784301758 86.49278259277344 68.78138732910156 C 82.98628234863281 69.87936401367188 87.6285171508789 75.97969055175781 89.24726104736328 70.57695770263672" stroke-width="1.0892857313156128" fill="none" stroke="rgb(247, 86, 10)" stroke-opacity="0.3251961" stroke-linecap="round" stroke-linejoin="round"/>
    <path d="M 82.95707702636719 96.68872833251953 C 83.44329071044922 91.17385864257812 89.46131134033203 89.1136474609375 89.0251235961914 86.05101013183594" stroke-width="1.1281344890594482" fill="none" stroke="rgb(216, 48, 36)" stroke-opacity="0.12738913" stroke-linecap="round" stroke-linejoin="round"/>
    <path d="M 97.91985321044922 42.54536819458008 C 93.22482299804688 39.66026306152344 99.06008911132812 41.29597854614258 101.78282928466797 34.586551666259766" stroke-width="1.3063011169433594" fill="none" stroke="rgb(40, 121, 97)" stroke-opacity="0.16988876" stroke-linecap="round" stroke-linejoin="round"/>
  </g>
</svg>
