<?xml version="1.0" ?>
<svg xmlns="http://www.w3.org/2000/svg" version="1.1" width="956.0" height="956.0">
  <defs/>
  <g>
    <path d="M 622.5447387695312 159.1368865966797 C 628.340576171875 154.87213134765625 608.541748046875 154.87014770507812 611.5324096679688 154.86996459960938 C 620.4232177734375 154.86997985839844 631.8857421875 153.19862365722656 640.5277709960938 159.1377716064453 C 677.3529052734375 162.00221252441406 718.4512329101562 197.90347290039062 734.7930908203125 229.8682861328125" stroke-width="8.535714149475098" fill="none" stroke="rgb(26, 26, 26)" stroke-opacity="0.99" stroke-linecap="round" stroke-linejoin="round"/>
    <path d="M 734.79296875 229.8681640625 C 780.9598999023438 252.73202514648438 781.3413696289062 227.2950439453125 812.5840454101562 189.98741149902344 C 782.8604125976562 182.19032287597656 799.3807373046875 199.5095672607422 768.6614990234375 225.56658935546875 C 804.0189208984375 227.45201110839844 782.3121948242188 219.13697814941406 753.0669555664062 196.10397338867188" stroke-width="9.389284133911133" fill="none" stroke="rgb(136, 33, 236)" stroke-opacity="0.7308084" stroke-linecap="round" stroke-linejoin="round"/>
    <path d="M 730.5352172851562 229.86819458007812 C 731.4005737304688 230.6320343017578 706.6182250976562 271.9423828125 727.5043334960938 227.25013732910156 C 685.9642944335938 251.84022521972656 730.9127807617188 253.64854431152344 720.49462890625 281.0793151855469 C 767.7093505859375 305.80169677734375 777.0064086914062 337.24749755859375 736.5670776367188 336.2273864746094" stroke-width="9.389276504516602" fill="none" stroke="rgb(100, 255, 235)" stroke-opacity="0.26229772" stroke-linecap="round" stroke-linejoin="round"/>
    <path d="M 644.7952880859375 159.1377410888672 C 601.7493286132812 172.79737854003906 579.4554443359375 125.841552734375 574.2328491210938 102.96694946289062" stroke-width="9.389276504516602" fill="none" stroke="rgb(186, 132, 80)" stroke-opacity="0.6814748" stroke-linecap="round" stroke-linejoin="round"/>
    <path d="M 644.7952880859375 159.1377716064453 C 625.5889282226562 152.70797729492188 669.7794799804688 194.674560546875 622.3370971679688 231.78549194335938 C 592.5472412109375 230.86807250976562 625.6174926757812 192.34629821777344 603.9942016601562 228.41067504882812" stroke-width="9.389276504516602" fill="none" stroke="rgb(139, 178, 68)" stroke-opacity="0.40643218" stroke-linecap="round" stroke-linejoin="round"/>
    <path d="M 730.5260620117188 229.8682098388672 C 733.6275024414062 255.97032165527344 687.0753173828125 213.54702758789062 679.686767578125 225.01980590820312 C 707.0407104492188 214.7690887451172 734.0341796875 225.28073120117188 755.426513671875 187.7577362060547" stroke-width="9.38927173614502" fill="none" stroke="rgb(104, 255, 219)" stroke-opacity="0.26174602" stroke-linecap="round" stroke-linejoin="round"/>
    <path d="M 615.7998046875 154.86996459960938 C 603.5986938476562 138.26048278808594 572.4517211914062 142.35601806640625 533.8948364257812 117.58805084228516 C 578.8926391601562 76.78276062011719 574.0601806640625 113.4509048461914 603.1143798828125 71.62290954589844" stroke-width="9.3892822265625" fill="none" stroke="rgb(194, 84, 159)" stroke-opacity="0.8737081" stroke-linecap="round" stroke-linejoin="round"/>
    <path d="M 644.7950439453125 159.13763427734375 C 594.280517578125 170.22869873046875 561.5191040039062 215.94354248046875 562.140625 248.30740356445312" stroke-width="9.389284133911133" fill="none" stroke="rgb(77, 230, 153)" stroke-opacity="0.9238264" stroke-linecap="round" stroke-linejoin="round"/>
    <path d="M 622.535888671875 154.8700408935547 C 638.7372436523438 146.2734375 655.9788818359375 166.812255859375 658.6163330078125 190.8501739501953" stroke-width="8.535714149475098" fill="none" stroke="rgb(110, 132, 26)" stroke-opacity="0.058404792" stroke-linecap="round" stroke-linejoin="round"/>
    <path d="M 562.1763305664062 248.30740356445312 C 551.958740234375 215.0076141357422 566.6253662109375 233.51470947265625 559.2832641601562 246.67466735839844 C 576.2723388671875 202.48834228515625 594.1211547851562 249.18234252929688 639.0283203125 242.99224853515625 C 657.1395263671875 259.83428955078125 667.912841796875 217.72120666503906 682.6651611328125 253.8974609375" stroke-width="8.535714149475098" fill="none" stroke="rgb(105, 203, 226)" stroke-opacity="0.7932852" stroke-linecap="round" stroke-linejoin="round"/>
    <path d="M 753.06689453125 196.1006317138672 C 780.669189453125 163.49948120117188 771.0240478515625 116.488525390625 814.9853515625 79.1314926147461 C 801.8843383789062 52.86167907714844 799.8695678710938 71.7073974609375 774.0594482421875 29.075597763061523 C 784.394775390625 74.73206329345703 774.8977661132812 96.0134506225586 730.5870971679688 61.082210540771484" stroke-width="9.389284133911133" fill="none" stroke="rgb(248, 3, 47)" stroke-opacity="0.56375533" stroke-linecap="round" stroke-linejoin="round"/>
    <path d="M 598.846923828125 71.62371826171875 C 561.283935546875 25.442615509033203 547.044189453125 65.51508331298828 553.5418090820312 27.37621307373047 C 577.2191772460938 61.26768493652344 605.226318359375 66.71537780761719 599.5369873046875 78.32147979736328" stroke-width="9.389278411865234" fill="none" stroke="rgb(56, 255, 103)" stroke-opacity="0.9929044" stroke-linecap="round" stroke-linejoin="round"/>
    <path d="M 755.426513671875 187.75767517089844 C 789.806884765625 172.67332458496094 796.3016967773438 175.7349853515625 778.6649169921875 193.26629638671875 C 791.6039428710938 226.6298828125 783.302490234375 180.4290771484375 760.2069702148438 206.3665771484375 C 746.0516967773438 200.2718963623047 748.1585083007812 226.94174194335938 792.3587646484375 249.06109619140625" stroke-width="8.535714149475098" fill="none" stroke="rgb(232, 182, 35)" stroke-opacity="0.3446213" stroke-linecap="round" stroke-linejoin="round"/>
    <path d="M 598.8468627929688 75.89048767089844 C 578.5867309570312 58.53860092163086 595.5570678710938 91.94568634033203 585.7567749023438 110.36377716064453" stroke-width="9.389278411865234" fill="none" stroke="rgb(218, 65, 53)" stroke-opacity="0.5169931" stroke-linecap="round" stroke-linejoin="round"/>
    <path d="M 755.4268188476562 192.02503967285156 C 795.9444580078125 165.30018615722656 821.2877197265625 145.18905639648438 826.4365234375 126.48164367675781 C 821.52197265625 146.41151428222656 841.6732177734375 115.55530548095703 810.1455078125 88.05696105957031 C 784.3297729492188 128.66049194335938 809.0670776367188 151.1788330078125 771.9421997070312 135.55471801757812" stroke-width="9.389274597167969" fill="none" stroke="rgb(242, 151, 18)" stroke-opacity="0.6713063" stroke-linecap="round" stroke-linejoin="round"/>
    <path d="M 603.9942626953125 232.67843627929688 C 566.824951171875 246.94842529296875 531.130126953125 256.9615173339844 499.60772705078125 251.54379272460938" stroke-width="8.535714149475098" fill="none" stroke="rgb(67, 28, 85)" stroke-opacity="0.59716326" stroke-linecap="round" stroke-linejoin="round"/>
    <path d="M 574.2327270507812 107.2342300415039 C 549.9256591796875 141.65481567382812 535.13623046875 105.57463836669922 495.2584533691406 66.79241943359375" stroke-width="9.3892822265625" fill="none" stroke="rgb(232, 235, 138)" stroke-opacity="0.34487176" stroke-linecap="round" stroke-linejoin="round"/>
    <path d="M 442.1037902832031 308.83135986328125 C 435.1849365234375 356.4029235839844 463.47198486328125 318.87982177734375 420.1036682128906 272.06109619140625" stroke-width="9.389284133911133" fill="none" stroke="rgb(233, 146, 104)" stroke-opacity="0.8216076" stroke-linecap="round" stroke-linejoin="round"/>
    <path d="M 66.38227081298828 458.0945739746094 C 90.98243713378906 420.51068115234375 102.61550903320312 431.462158203125 74.69673919677734 449.9651184082031 C 101.78084564208984 419.9407958984375 139.72384643554688 393.66796875 161.191162109375 399.6423645019531" stroke-width="8.535714149475098" fill="none" stroke="rgb(228, 9, 116)" stroke-opacity="0.079086624" stroke-linecap="round" stroke-linejoin="round"/>
    <path d="M 469.9649963378906 368.48248291015625 C 514.2566528320312 327.5833740234375 520.967529296875 320.16595458984375 549.9061889648438 304.9521789550781 C 560.3719482421875 296.93756103515625 578.935546875 299.61004638671875 535.3469848632812 296.2879638671875" stroke-width="9.389281272888184" fill="none" stroke="rgb(223, 160, 90)" stroke-opacity="0.5307146" stroke-linecap="round" stroke-linejoin="round"/>
    <path d="M 397.5281066894531 336.8516540527344 C 381.533203125 363.8794250488281 348.0451965332031 351.08624267578125 344.2899169921875 353.8428649902344 C 315.8797912597656 357.5303649902344 279.0225830078125 398.0327453613281 266.7249450683594 370.097900390625 C 306.8919677734375 376.08447265625 315.88623046875 376.0697937011719 286.0840759277344 378.3927001953125" stroke-width="8.535714149475098" fill="none" stroke="rgb(19, 180, 110)" stroke-opacity="0.075824425" stroke-linecap="round" stroke-linejoin="round"/>
    <path d="M 212.79364013671875 302.2253723144531 C 221.3548126220703 346.5232238769531 206.3048095703125 353.8713073730469 177.99929809570312 350.27716064453125 C 175.4398651123047 332.47271728515625 212.77197265625 297.24224853515625 169.86878967285156 328.60760498046875" stroke-width="9.389284133911133" fill="none" stroke="rgb(71, 212, 157)" stroke-opacity="0.83903927" stroke-linecap="round" stroke-linejoin="round"/>
    <path d="M 328.4992370605469 565.5865478515625 C 342.22125244140625 580.9889526367188 369.2254638671875 570.77392578125 393.2035217285156 558.6036987304688 C 363.75445556640625 545.75732421875 343.45343017578125 557.8935546875 349.1837463378906 554.7845458984375 C 390.8307189941406 530.6471557617188 374.8919982910156 560.0314331054688 374.9707946777344 533.892333984375" stroke-width="8.535714149475098" fill="none" stroke="rgb(242, 239, 29)" stroke-opacity="0.6035097" stroke-linecap="round" stroke-linejoin="round"/>
    <path d="M 176.3841552734375 705.9712524414062 C 201.74330139160156 682.7890014648438 228.5869903564453 729.3967895507812 258.82806396484375 740.9395751953125 C 262.2543640136719 763.9686279296875 237.39279174804688 727.6173706054688 201.12608337402344 712.255859375 C 223.889892578125 694.0968627929688 218.666748046875 665.9072265625 224.45115661621094 616.6361694335938" stroke-width="9.38928508758545" fill="none" stroke="rgb(136, 127, 196)" stroke-opacity="0.50523114" stroke-linecap="round" stroke-linejoin="round"/>
    <path d="M 543.5953979492188 900.68505859375 C 574.4354858398438 892.8473510742188 590.9291381835938 901.230712890625 563.6885375976562 883.1679077148438 C 527.6795654296875 899.9200439453125 572.8116455078125 932.74462890625 578.2366333007812 913.6611938476562" stroke-width="8.535714149475098" fill="none" stroke="rgb(48, 114, 113)" stroke-opacity="0.6633807" stroke-linecap="round" stroke-linejoin="round"/>
    <path d="M 453.7646484375 789.4992065429688 C 424.4726257324219 792.5062866210938 424.71221923828125 772.8385620117188 463.48626708984375 785.2520141601562 C 435.8623962402344 741.4246215820312 418.19049072265625 758.6318969726562 395.14166259765625 748.0438842773438 C 367.4696350097656 773.0938110351562 383.38763427734375 812.8423461914062 386.0436096191406 790.0431518554688" stroke-width="9.389278411865234" fill="none" stroke="rgb(133, 18, 88)" stroke-opacity="0.30599946" stroke-linecap="round" stroke-linejoin="round"/>
    <path d="M 611.0230712890625 818.2047729492188 C 576.1851196289062 814.052978515625 560.9840698242188 780.0005493164062 537.3167724609375 808.14599609375 C 530.38818359375 768.3525390625 516.485595703125 783.7010498046875 521.26806640625 791.9590454101562" stroke-width="8.535714149475098" fill="none" stroke="rgb(108, 34, 84)" stroke-opacity="0.565972" stroke-linecap="round" stroke-linejoin="round"/>
    <path d="M 736.2909545898438 127.41870880126953 C 747.2329711914062 167.18772888183594 778.7525024414062 141.7485809326172 778.8112182617188 177.7173309326172 C 768.9725952148438 197.6122283935547 740.1240844726562 205.3535614013672 706.2608642578125 224.88198852539062" stroke-width="9.389284133911133" fill="none" stroke="rgb(236, 41, 75)" stroke-opacity="0.7830373" stroke-linecap="round" stroke-linejoin="round"/>
    <path d="M 782.9335327148438 75.50203704833984 C 735.435791015625 74.41677856445312 691.2913208007812 105.89833068847656 724.6558837890625 142.8588409423828 C 763.7551879882812 177.87939453125 766.0391235351562 205.2769012451172 796.521240234375 166.82774353027344" stroke-width="8.535714149475098" fill="none" stroke="rgb(52, 160, 42)" stroke-opacity="0.46400723" stroke-linecap="round" stroke-linejoin="round"/>
    <path d="M 586.1190795898438 904.470947265625 C 620.2623291015625 938.68798828125 598.5071411132812 949.3380126953125 604.1744384765625 994.5873413085938" stroke-width="8.535714149475098" fill="none" stroke="rgb(213, 18, 111)" stroke-opacity="0.7679261" stroke-linecap="round" stroke-linejoin="round"/>
    <path d="M 795.606201171875 753.9151000976562 C 839.8927001953125 725.9124755859375 858.7841796875 694.8777465820312 831.5302124023438 715.880615234375" stroke-width="8.535714149475098" fill="none" stroke="rgb(72, 59, 223)" stroke-opacity="0.1941566" stroke-linecap="round" stroke-linejoin="round"/>
    <path d="M 876.3665771484375 896.9468994140625 C 914.046142578125 861.7053833007812 955.1837768554688 841.9706420898438 966.5889892578125 869.2000732421875 C 1000.7042846679688 836.8897094726562 996.7250366210938 857.6936645507812 950.8749389648438 879.0068359375 C 965.68701171875 838.427978515625 963.8130493164062 791.2487182617188 949.9190673828125 809.0272216796875" stroke-width="8.535714149475098" fill="none" stroke="rgb(70, 95, 241)" stroke-opacity="0.9368179" stroke-linecap="round" stroke-linejoin="round"/>
    <path d="M 772.2235717773438 543.2215576171875 C 759.98974609375 553.0931396484375 791.4776611328125 536.17529296875 796.008544921875 548.5723266601562 C 755.2918701171875 514.9937133789062 795.1528930664062 498.32122802734375 835.0894775390625 504.4836120605469" stroke-width="8.535714149475098" fill="none" stroke="rgb(88, 39, 23)" stroke-opacity="0.92753476" stroke-linecap="round" stroke-linejoin="round"/>
  </g>
</svg>
