<?xml version="1.0" ?>
<svg xmlns="http://www.w3.org/2000/svg" version="1.1" width="956.0" height="956.0">
  <defs/>
  <g>
    <path d="M 26.55877685546875 69.39502716064453 C 77.947265625 70.76356506347656 129.3358154296875 72.13016510009766 179.8568115234375 74.36654663085938 C 231.2451934814453 75.73509216308594 183.34677124023438 67.38302612304688 134.5806427001953 59.898780822753906" stroke-width="1.7356772422790527" fill="none" stroke="rgb(1, 14, 0)" stroke-opacity="0.85499007" stroke-linecap="round" stroke-linejoin="round"/>
    <path d="M 63.26460266113281 83.18238830566406 C 57.288875579833984 119.49163055419922 51.31314468383789 155.8009033203125 60.9796257019043 164.30882263183594 C 72.3816909790039 173.68450927734375 99.42416381835938 156.99452209472656 126.46656799316406 139.43667602539062 C 152.6411590576172 121.0110855102539 144.7000732421875 113.62283325195312 136.75900268554688 104.49903106689453" stroke-width="1.7356772422790527" fill="none" stroke="rgb(8, 24, 2)" stroke-opacity="0.9410399" stroke-linecap="round" stroke-linejoin="round"/>
    <path d="M 131.3334197998047 86.28689575195312 C 141.5496368408203 84.57426452636719 150.89813232421875 82.86161041259766 152.55950927734375 86.80007934570312 C 155.0905303955078 90.73851013183594 150.8041229248047 99.46044921875 147.38551330566406 109.91571044921875 C 143.09906005859375 119.5052261352539 143.01934814453125 120.90457153320312 142.93966674804688 121.43675994873047" stroke-width="2.6950652599334717" fill="none" stroke="rgb(7, 15, 4)" stroke-opacity="0.97400004" stroke-linecap="round" stroke-linejoin="round"/>
    <path d="M 78.04840087890625 93.21823120117188 C 75.75064849853516 106.10359191894531 73.45267486572266 118.1199951171875 70.28534698486328 129.27284240722656 C 67.98761749267578 141.2904052734375 77.20196533203125 134.3640594482422 86.41632843017578 128.30555725097656" stroke-width="1.8908023834228516" fill="none" stroke="rgb(13, 13, 2)" stroke-opacity="0.95116" stroke-linecap="round" stroke-linejoin="round"/>
    <path d="M 72.105712890625 99.06452178955078 C 75.12200164794922 95.54127502441406 66.12605285644531 91.84776306152344 72.31680297851562 93.57479095458984" stroke-width="1.7356772422790527" fill="none" stroke="rgb(22, 25, 0)" stroke-opacity="0.90221965" stroke-linecap="round" stroke-linejoin="round"/>
    <path d="M 96.83010864257812 100.01705932617188 C 100.38641357421875 100.81523132324219 95.19602966308594 99.9676513671875 106.43213653564453 100.22816467285156" stroke-width="1.7356772422790527" fill="none" stroke="rgb(0, 16, 2)" stroke-opacity="0.95602" stroke-linecap="round" stroke-linejoin="round"/>
    <path d="M 71.06682586669922 136.1960906982422 C 96.28385925292969 140.55250549316406 98.29002380371094 142.7025146484375 99.23561096191406 142.0124053955078" stroke-width="2.685826063156128" fill="none" stroke="rgb(3, 18, 0)" stroke-opacity="1.0" stroke-linecap="round" stroke-linejoin="round"/>
    <path d="M 95.9289321899414 135.1074676513672 C 94.2454605102539 135.50405883789062 92.56001281738281 135.90060424804688 90.00878143310547 135.43128967285156 C 89.19309997558594 135.82785034179688 85.28768157958984 133.89752197265625 80.51641082763672 132.83499145507812" stroke-width="3.871863842010498" fill="none" stroke="rgb(214, 39, 86)" stroke-opacity="1.0" stroke-linecap="round" stroke-linejoin="round"/>
    <path d="M 108.46552276611328 104.7292251586914 C 111.2220458984375 94.52925109863281 120.98443603515625 89.5544204711914 122.16963195800781 83.32737731933594" stroke-width="2.341930627822876" fill="none" stroke="rgb(117, 156, 1)" stroke-opacity="0.13177998" stroke-linecap="round" stroke-linejoin="round"/>
    <path d="M 77.96607971191406 95.07331085205078 C 82.60636138916016 97.78533172607422 88.10801696777344 98.76485443115234 92.75428009033203 100.60528564453125 C 96.52689361572266 102.45014190673828 96.7368392944336 99.16291809082031 97.81452178955078 96.7453842163086" stroke-width="1.7356772422790527" fill="none" stroke="rgb(141, 166, 125)" stroke-opacity="0.08661001" stroke-linecap="round" stroke-linejoin="round"/>
    <path d="M 63.996707916259766 83.31963348388672 C 58.68387222290039 83.15516662597656 53.37294387817383 82.12487030029297 52.60385513305664 81.12955474853516 C 50.969032287597656 80.13617706298828 53.01018524169922 79.17975616455078 55.05125045776367 77.35769653320312 C 57.09248733520508 77.26825714111328 56.80284118652344 74.0626449584961 56.5112190246582 69.98796081542969" stroke-width="1.7356772422790527" fill="none" stroke="rgb(75, 238, 194)" stroke-opacity="0.26558" stroke-linecap="round" stroke-linejoin="round"/>
    <path d="M 93.69532775878906 97.34136962890625 C 101.36925506591797 95.2768783569336 104.83534240722656 95.47322082519531 109.31697845458984 90.56278228759766" stroke-width="2.473938226699829" fill="none" stroke="rgb(44, 175, 101)" stroke-opacity="0.40915987" stroke-linecap="round" stroke-linejoin="round"/>
    <path d="M 103.0235595703125 104.34822082519531 C 96.00975036621094 100.12788391113281 101.76271057128906 91.0643539428711 97.77764129638672 85.6329116821289" stroke-width="1.9534016847610474" fill="none" stroke="rgb(193, 187, 62)" stroke-opacity="0.36618003" stroke-linecap="round" stroke-linejoin="round"/>
    <path d="M 174.81204223632812 71.35652923583984 C 177.5297088623047 64.03950500488281 180.245361328125 56.72237014770508 182.576171875 55.1088752746582 C 185.77468872070312 54.3626708984375 186.85096740722656 58.45322036743164 188.7948760986328 62.54144287109375 C 190.73892211914062 66.63152313232422 194.33786010742188 57.611507415771484 197.0672607421875 48.59156799316406" stroke-width="2.0167505741119385" fill="none" stroke="rgb(101, 109, 100)" stroke-opacity="0.84937006" stroke-linecap="round" stroke-linejoin="round"/>
    <path d="M 138.3048095703125 118.132080078125 C 135.4999237060547 119.64518737792969 131.82794189453125 120.29255676269531 128.1558380126953 120.9379653930664 C 123.61595916748047 121.58332061767578 132.5309600830078 125.21464538574219 142.31558227539062 128.84591674804688" stroke-width="1.7356772422790527" fill="none" stroke="rgb(149, 216, 163)" stroke-opacity="0.40614" stroke-linecap="round" stroke-linejoin="round"/>
    <path d="M 139.1575927734375 118.99983215332031 C 136.56375122070312 126.3635482788086 145.9364471435547 116.9604263305664 146.4945526123047 111.73023986816406 C 144.42982482910156 107.0568618774414 139.16876220703125 97.88445281982422 128.892822265625 90.39080047607422" stroke-width="1.7356772422790527" fill="none" stroke="rgb(217, 244, 83)" stroke-opacity="0.9516858" stroke-linecap="round" stroke-linejoin="round"/>
    <path d="M 107.59771728515625 104.7292251586914 C 110.50218200683594 108.85028839111328 106.5974349975586 105.28935241699219 103.45833587646484 100.53668212890625" stroke-width="1.909244418144226" fill="none" stroke="rgb(42, 93, 102)" stroke-opacity="0.7697423" stroke-linecap="round" stroke-linejoin="round"/>
    <path d="M 134.5806121826172 59.898807525634766 C 138.32803344726562 62.2296028137207 135.62583923339844 54.58680725097656 131.99159240722656 61.43641662597656 C 136.70620727539062 66.52640533447266 136.6956329345703 63.709068298339844 141.93020629882812 68.90040588378906 C 144.61273193359375 68.97258758544922 140.36241149902344 66.0613021850586 135.8936767578125 58.00983810424805" stroke-width="1.7356772422790527" fill="none" stroke="rgb(181, 106, 215)" stroke-opacity="0.33592123" stroke-linecap="round" stroke-linejoin="round"/>
    <path d="M 188.79502868652344 62.54127502441406 C 188.7659912109375 61.770782470703125 184.33035278320312 59.35847473144531 193.3541259765625 66.32344055175781 C 187.8111114501953 63.493995666503906 182.8424530029297 59.45001220703125 189.7929229736328 54.49848937988281" stroke-width="1.9092276096343994" fill="none" stroke="rgb(15, 21, 204)" stroke-opacity="0.07683247" stroke-linecap="round" stroke-linejoin="round"/>
    <path d="M 63.99666213989258 83.31985473632812 C 56.64442825317383 92.23787689208984 66.51815795898438 89.2621078491211 72.79735565185547 84.4244155883789" stroke-width="1.7356772422790527" fill="none" stroke="rgb(112, 128, 170)" stroke-opacity="0.24200153" stroke-linecap="round" stroke-linejoin="round"/>
    <path d="M 71.93464660644531 135.32826232910156 C 79.04502868652344 137.66989135742188 70.53103637695312 140.9410858154297 68.22114562988281 144.61524963378906 C 74.12410736083984 151.84872436523438 64.535400390625 151.58267211914062 73.66204071044922 148.93063354492188" stroke-width="1.7356772422790527" fill="none" stroke="rgb(158, 99, 192)" stroke-opacity="0.32879612" stroke-linecap="round" stroke-linejoin="round"/>
    <path d="M 92.75443267822266 100.60530090332031 C 88.44780731201172 106.75392150878906 96.7879409790039 104.74827575683594 105.49658203125 112.93801879882812 C 106.41447448730469 104.8531494140625 107.65904998779297 95.5346450805664 98.9133529663086 94.68706512451172" stroke-width="1.909244179725647" fill="none" stroke="rgb(72, 111, 255)" stroke-opacity="0.12281677" stroke-linecap="round" stroke-linejoin="round"/>
    <path d="M 127.28803253173828 120.93795013427734 C 120.36324310302734 113.0877685546875 126.71749877929688 120.62318420410156 122.27039337158203 123.37471008300781" stroke-width="1.7356772422790527" fill="none" stroke="rgb(18, 155, 9)" stroke-opacity="0.5353061" stroke-linecap="round" stroke-linejoin="round"/>
    <path d="M 189.7929229736328 53.630821228027344 C 183.52493286132812 49.00334167480469 182.45199584960938 40.00130844116211 179.19256591796875 29.595266342163086" stroke-width="1.9092429876327515" fill="none" stroke="rgb(188, 38, 31)" stroke-opacity="0.50363016" stroke-linecap="round" stroke-linejoin="round"/>
    <path d="M 189.79290771484375 54.49851608276367 C 183.27430725097656 46.083518981933594 184.65966796875 49.874053955078125 185.98683166503906 57.004085540771484 C 184.7585906982422 56.013404846191406 185.35430908203125 46.4667854309082 192.43016052246094 38.69507598876953" stroke-width="1.7356772422790527" fill="none" stroke="rgb(175, 81, 211)" stroke-opacity="0.55613315" stroke-linecap="round" stroke-linejoin="round"/>
    <path d="M 103.45833587646484 100.53667449951172 C 104.39688873291016 94.54940795898438 99.81502532958984 93.08272552490234 97.53656768798828 91.5994873046875" stroke-width="1.7356772422790527" fill="none" stroke="rgb(238, 242, 205)" stroke-opacity="0.80776775" stroke-linecap="round" stroke-linejoin="round"/>
    <path d="M 72.79750061035156 83.5566177368164 C 63.368255615234375 74.70268249511719 68.50758361816406 65.73404693603516 67.32809448242188 69.67523193359375" stroke-width="1.9092446565628052" fill="none" stroke="rgb(107, 144, 0)" stroke-opacity="0.4137871" stroke-linecap="round" stroke-linejoin="round"/>
    <path d="M 72.79747009277344 84.42443084716797 C 81.38752746582031 81.66862487792969 73.23551940917969 90.23584747314453 74.44693756103516 92.8742904663086 C 67.15806579589844 93.10761260986328 66.63724517822266 93.3857192993164 71.2181396484375 97.28194427490234 C 73.51752471923828 95.53834533691406 77.67398834228516 103.3405532836914 85.9769515991211 97.1031265258789" stroke-width="1.7356772422790527" fill="none" stroke="rgb(83, 217, 109)" stroke-opacity="0.7691065" stroke-linecap="round" stroke-linejoin="round"/>
    <path d="M 128.89305114746094 90.39080047607422 C 135.3106689453125 91.01497650146484 131.518310546875 88.7629623413086 121.80188751220703 91.77741241455078 C 113.15848541259766 93.24614715576172 116.14055633544922 91.23121643066406 108.0945816040039 87.41752624511719" stroke-width="1.7356772422790527" fill="none" stroke="rgb(211, 126, 15)" stroke-opacity="0.27199155" stroke-linecap="round" stroke-linejoin="round"/>
    <path d="M 103.45834350585938 100.53667449951172 C 109.0049057006836 93.58975219726562 107.05833435058594 90.91407012939453 112.24144744873047 84.7822494506836" stroke-width="1.7356772422790527" fill="none" stroke="rgb(4, 190, 139)" stroke-opacity="0.14058934" stroke-linecap="round" stroke-linejoin="round"/>
    <path d="M 129.76063537597656 90.39080047607422 C 139.35226440429688 95.36302947998047 144.1103515625 87.04737854003906 146.7133026123047 89.0550765991211" stroke-width="1.7356772422790527" fill="none" stroke="rgb(66, 156, 98)" stroke-opacity="0.87156725" stroke-linecap="round" stroke-linejoin="round"/>
    <path d="M 12.140961647033691 179.5812225341797 C 17.881526947021484 181.8299102783203 13.875289916992188 173.63723754882812 7.312466621398926 177.01809692382812" stroke-width="1.7356772422790527" fill="none" stroke="rgb(50, 150, 245)" stroke-opacity="0.6679812" stroke-linecap="round" stroke-linejoin="round"/>
    <path d="M 70.10032653808594 152.02481079101562 C 76.56449127197266 153.46005249023438 73.24569702148438 146.2371368408203 64.69007873535156 154.797119140625 C 65.02490234375 163.3125457763672 60.04244613647461 170.57762145996094 66.34700775146484 172.61073303222656" stroke-width="1.9092438220977783" fill="none" stroke="rgb(115, 189, 213)" stroke-opacity="0.5443339" stroke-linecap="round" stroke-linejoin="round"/>
    <path d="M 158.5849609375 104.6672134399414 C 152.5289306640625 96.147216796875 146.25901794433594 95.48934173583984 145.19448852539062 101.8461685180664 C 148.96495056152344 102.92234802246094 156.48292541503906 95.94478607177734 156.2578887939453 99.50660705566406 C 151.94471740722656 90.26148223876953 152.9337615966797 96.99528503417969 149.22879028320312 89.55846405029297" stroke-width="1.7356772422790527" fill="none" stroke="rgb(57, 151, 179)" stroke-opacity="0.5637993" stroke-linecap="round" stroke-linejoin="round"/>
    <path d="M 73.51569366455078 80.43299865722656 C 65.11029052734375 79.09159088134766 70.40007019042969 77.87667846679688 79.99006652832031 76.98828887939453 C 77.29851531982422 80.77581024169922 83.49044036865234 85.05029296875 86.58293151855469 84.68883514404297 C 93.16095733642578 82.82943725585938 89.99161529541016 83.51107788085938 87.38848876953125 84.27940368652344" stroke-width="1.909244179725647" fill="none" stroke="rgb(3, 204, 241)" stroke-opacity="0.18075769" stroke-linecap="round" stroke-linejoin="round"/>
    <path d="M 187.927490234375 154.3704833984375 C 184.57095336914062 145.4035186767578 181.4733123779297 151.68777465820312 183.3989715576172 150.69651794433594" stroke-width="1.7356772422790527" fill="none" stroke="rgb(204, 154, 38)" stroke-opacity="0.10298054" stroke-linecap="round" stroke-linejoin="round"/>
    <path d="M 36.87744903564453 155.53927612304688 C 27.100067138671875 150.65306091308594 21.979488372802734 144.2442626953125 27.945877075195312 147.06143188476562 C 27.943567276000977 144.51290893554688 21.920368194580078 141.0454559326172 19.79282569885254 141.65072631835938 C 28.775304794311523 139.81253051757812 21.066097259521484 149.2373809814453 13.846473693847656 141.61863708496094" stroke-width="1.7356772422790527" fill="none" stroke="rgb(201, 191, 244)" stroke-opacity="0.40817544" stroke-linecap="round" stroke-linejoin="round"/>
    <path d="M 116.65904998779297 95.8045654296875 C 108.31890106201172 92.23454284667969 110.56990051269531 82.56538391113281 104.41755676269531 79.0064697265625 C 108.08901977539062 84.14677429199219 107.80197143554688 87.31916046142578 106.4019775390625 77.89848327636719 C 110.31707000732422 74.94458770751953 104.57215118408203 76.76961517333984 104.22282409667969 79.84407043457031" stroke-width="1.9092367887496948" fill="none" stroke="rgb(119, 15, 111)" stroke-opacity="0.032395765" stroke-linecap="round" stroke-linejoin="round"/>
    <path d="M 102.73460388183594 179.04293823242188 C 106.75808715820312 189.18490600585938 105.47224426269531 188.57418823242188 109.1588134765625 180.972900390625 C 118.29173278808594 172.9508056640625 122.73688507080078 164.51153564453125 127.7688217163086 169.05303955078125 C 119.35391235351562 168.7816162109375 111.75592803955078 167.30967712402344 103.15201568603516 176.52880859375" stroke-width="1.9092340469360352" fill="none" stroke="rgb(8, 27, 163)" stroke-opacity="0.997745" stroke-linecap="round" stroke-linejoin="round"/>
    <path d="M 129.42185974121094 163.1985321044922 C 137.72193908691406 163.8406982421875 140.0142822265625 168.34034729003906 135.5373077392578 164.9044647216797" stroke-width="1.9092427492141724" fill="none" stroke="rgb(48, 132, 49)" stroke-opacity="0.2933701" stroke-linecap="round" stroke-linejoin="round"/>
    <path d="M 82.39308166503906 170.7595977783203 C 79.83647918701172 160.25881958007812 86.1302719116211 160.67855834960938 80.46619415283203 161.15199279785156 C 83.60901641845703 166.27769470214844 89.92424011230469 170.57032775878906 83.67765045166016 174.64385986328125" stroke-width="1.7356772422790527" fill="none" stroke="rgb(158, 67, 169)" stroke-opacity="0.38625053" stroke-linecap="round" stroke-linejoin="round"/>
    <path d="M 20.869226455688477 26.760597229003906 C 13.86493968963623 30.663822174072266 20.148475646972656 30.497285842895508 22.325077056884766 20.822343826293945" stroke-width="1.7356772422790527" fill="none" stroke="rgb(153, 51, 151)" stroke-opacity="0.08371541" stroke-linecap="round" stroke-linejoin="round"/>
    <path d="M 88.09889221191406 133.69699096679688 C 90.7753677368164 143.39407348632812 88.42323303222656 135.07186889648438 97.23218536376953 143.53514099121094" stroke-width="1.7356772422790527" fill="none" stroke="rgb(39, 203, 202)" stroke-opacity="0.12534559" stroke-linecap="round" stroke-linejoin="round"/>
    <path d="M 156.59573364257812 2.1490044593811035 C 156.27757263183594 2.968082904815674 152.24961853027344 8.842772483825684 152.5703125 6.527039051055908 C 156.36280822753906 11.084425926208496 147.81509399414062 8.721333503723145 149.2603759765625 4.925093650817871" stroke-width="1.7356772422790527" fill="none" stroke="rgb(136, 246, 189)" stroke-opacity="0.2583677" stroke-linecap="round" stroke-linejoin="round"/>
    <path d="M 25.475860595703125 149.2310791015625 C 26.84441375732422 148.1876678466797 22.440345764160156 154.73223876953125 23.66887664794922 148.79055786132812 C 15.385065078735352 153.70115661621094 12.199990272521973 160.901123046875 13.8518648147583 154.41461181640625 C 13.44875717163086 158.33274841308594 21.275075912475586 162.6179656982422 20.63504981994629 168.19085693359375" stroke-width="1.7356772422790527" fill="none" stroke="rgb(194, 32, 46)" stroke-opacity="0.669237" stroke-linecap="round" stroke-linejoin="round"/>
    <path d="M 77.2081069946289 78.89966583251953 C 73.31635284423828 85.1076431274414 71.12559509277344 81.56892395019531 80.15998840332031 85.95465087890625 C 74.40026092529297 86.37135314941406 69.88774108886719 81.18033599853516 69.7312240600586 74.6980972290039 C 64.86188507080078 76.95339965820312 57.79621124267578 77.02859497070312 61.39336013793945 76.99366760253906" stroke-width="1.7356772422790527" fill="none" stroke="rgb(114, 62, 195)" stroke-opacity="0.13411751" stroke-linecap="round" stroke-linejoin="round"/>
    <path d="M 96.82919311523438 157.60157775878906 C 97.0314712524414 153.9564971923828 89.86096954345703 159.7075653076172 98.1880874633789 159.8008575439453" stroke-width="1.7356772422790527" fill="none" stroke="rgb(222, 223, 113)" stroke-opacity="0.85346615" stroke-linecap="round" stroke-linejoin="round"/>
  </g>
</svg>
