<?xml version="1.0" ?>
<svg xmlns="http://www.w3.org/2000/svg" version="1.1" width="956.0" height="956.0">
  <defs/>
  <g>
    <path d="M 486.3831787109375 445.76495361328125 C 509.9283752441406 447.9794921875 557.5452270507812 442.59332275390625 546.994873046875 444.64129638671875" stroke-width="8.535714149475098" fill="none" stroke="rgb(235, 149, 84)" stroke-opacity="0.8096074" stroke-linecap="round" stroke-linejoin="round"/>
    <path d="M 887.1589965820312 899.3521118164062 C 921.162109375 883.521728515625 927.7227783203125 844.2239990234375 915.3731689453125 876.6334838867188" stroke-width="8.535714149475098" fill="none" stroke="rgb(176, 30, 22)" stroke-opacity="0.3145957" stroke-linecap="round" stroke-linejoin="round"/>
    <path d="M 346.3394775390625 816.1870727539062 C 391.8250427246094 797.4981689453125 340.1046142578125 810.7866821289062 330.37249755859375 806.2323608398438 C 346.5715637207031 807.674560546875 362.9024658203125 781.4544677734375 320.89434814453125 813.3306274414062" stroke-width="13.243758201599121" fill="none" stroke="rgb(104, 85, 52)" stroke-opacity="0.11189001" stroke-linecap="round" stroke-linejoin="round"/>
    <path d="M 472.567138671875 132.19586181640625 C 431.074462890625 123.50363159179688 390.1436767578125 155.36756896972656 444.896728515625 150.02642822265625 C 434.73419189453125 195.68978881835938 462.38580322265625 192.78509521484375 457.37054443359375 167.57066345214844 C 453.57757568359375 136.22711181640625 464.78936767578125 143.3712921142578 501.9612731933594 184.65089416503906" stroke-width="8.535714149475098" fill="none" stroke="rgb(12, 45, 18)" stroke-opacity="0.9179026" stroke-linecap="round" stroke-linejoin="round"/>
    <path d="M 917.8565063476562 16.31175994873047 C 890.529052734375 5.810539245605469 859.079345703125 -15.891976356506348 899.4606323242188 5.737611293792725 C 868.9688720703125 -15.098442077636719 901.7568969726562 28.133468627929688 872.0252075195312 -7.916189193725586 C 830.681884765625 -33.67277145385742 835.626220703125 -30.32587432861328 854.7928466796875 -43.51448440551758" stroke-width="8.535714149475098" fill="none" stroke="rgb(31, 14, 104)" stroke-opacity="0.6192334" stroke-linecap="round" stroke-linejoin="round"/>
    <path d="M 278.3674011230469 745.0910034179688 C 268.1551818847656 729.3013916015625 305.1049499511719 723.641845703125 360.8056945800781 742.5399780273438 C 364.8337097167969 772.0147705078125 398.6349792480469 802.8667602539062 352.205322265625 809.9310302734375" stroke-width="8.535714149475098" fill="none" stroke="rgb(138, 118, 150)" stroke-opacity="0.7037286" stroke-linecap="round" stroke-linejoin="round"/>
    <path d="M 826.3485717773438 882.187255859375 C 782.1370239257812 915.2538452148438 796.3895263671875 865.47314453125 779.1797485351562 834.608642578125 C 751.5975341796875 860.3941040039062 796.322509765625 902.9305419921875 817.8917846679688 912.2952880859375" stroke-width="13.088286399841309" fill="none" stroke="rgb(255, 24, 28)" stroke-opacity="0.12094184" stroke-linecap="round" stroke-linejoin="round"/>
    <path d="M 934.650390625 156.1645965576172 C 967.9326782226562 117.22266387939453 989.4776000976562 93.96709442138672 956.5982666015625 66.17725372314453" stroke-width="8.535714149475098" fill="none" stroke="rgb(223, 67, 253)" stroke-opacity="0.8452704" stroke-linecap="round" stroke-linejoin="round"/>
    <path d="M 69.33877563476562 170.8688507080078 C 60.859375 136.46192932128906 101.69281005859375 88.26708221435547 122.7658920288086 92.61372375488281 C 134.52658081054688 56.94643020629883 182.20458984375 81.94041442871094 209.9978485107422 86.47264862060547 C 206.83645629882812 141.52708435058594 194.1942138671875 166.61880493164062 151.97019958496094 183.9314422607422" stroke-width="8.535714149475098" fill="none" stroke="rgb(129, 213, 184)" stroke-opacity="0.46448204" stroke-linecap="round" stroke-linejoin="round"/>
    <path d="M 679.4130859375 357.76458740234375 C 692.3451538085938 325.1841125488281 716.7147216796875 362.17669677734375 706.6795043945312 391.7489318847656 C 729.6635131835938 363.8590393066406 688.8632202148438 386.5191345214844 639.734619140625 378.8200378417969" stroke-width="8.535714149475098" fill="none" stroke="rgb(32, 255, 194)" stroke-opacity="0.31012037" stroke-linecap="round" stroke-linejoin="round"/>
    <path d="M 73.44673156738281 154.94735717773438 C 52.63381576538086 100.2847671508789 61.99319839477539 125.38937377929688 52.72134780883789 175.96343994140625 C 73.43444061279297 171.15321350097656 103.83865356445312 162.5458221435547 116.38963317871094 132.58067321777344" stroke-width="12.78170394897461" fill="none" stroke="rgb(163, 200, 187)" stroke-opacity="0.73770523" stroke-linecap="round" stroke-linejoin="round"/>
    <path d="M 557.8794555664062 901.08740234375 C 590.1156616210938 951.9119873046875 596.1607666015625 927.9720458984375 621.2324829101562 932.1229248046875 C 598.9922485351562 918.3723754882812 618.4133911132812 947.6505737304688 624.4800415039062 931.6959838867188 C 643.7092895507812 911.5629272460938 664.3963012695312 886.5742797851562 699.5913696289062 869.392822265625" stroke-width="11.621634483337402" fill="none" stroke="rgb(195, 93, 64)" stroke-opacity="0.05537226" stroke-linecap="round" stroke-linejoin="round"/>
    <path d="M 309.92999267578125 142.17002868652344 C 307.2697448730469 191.52337646484375 321.7963562011719 228.11322021484375 311.7543640136719 217.1822052001953 C 287.20501708984375 237.6648712158203 269.9356689453125 260.9122619628906 258.622802734375 261.0448913574219" stroke-width="8.535714149475098" fill="none" stroke="rgb(219, 222, 12)" stroke-opacity="0.0" stroke-linecap="round" stroke-linejoin="round"/>
    <path d="M 445.490478515625 469.66363525390625 C 410.8854675292969 497.1261291503906 397.3712463378906 466.9794616699219 354.7643737792969 487.9932861328125" stroke-width="8.535714149475098" fill="none" stroke="rgb(7, 160, 197)" stroke-opacity="0.053966023" stroke-linecap="round" stroke-linejoin="round"/>
    <path d="M 577.5836181640625 913.1300048828125 C 583.0573120117188 854.6166381835938 556.9298706054688 874.2127075195312 512.8681030273438 848.1920166015625 C 473.5771789550781 882.425048828125 413.5382995605469 860.752685546875 469.820068359375 912.6760864257812 C 501.5414733886719 950.42431640625 534.0194702148438 934.4867553710938 485.9804382324219 935.3779296875" stroke-width="13.475431442260742" fill="none" stroke="rgb(254, 5, 248)" stroke-opacity="0.15404361" stroke-linecap="round" stroke-linejoin="round"/>
    <path d="M 240.09603881835938 23.68405532836914 C 240.71340942382812 48.733455657958984 252.32139587402344 72.56912231445312 248.69003295898438 59.18751525878906 C 252.74391174316406 71.97232055664062 270.65472412109375 103.53141784667969 307.97442626953125 68.76422119140625 C 341.49481201171875 59.46050262451172 333.3368225097656 103.85102844238281 365.572998046875 82.66390991210938" stroke-width="8.535714149475098" fill="none" stroke="rgb(55, 213, 89)" stroke-opacity="0.2332204" stroke-linecap="round" stroke-linejoin="round"/>
    <path d="M 38.53310012817383 818.4828491210938 C 61.47685241699219 805.48193359375 40.222900390625 787.4906616210938 43.06385040283203 775.5802612304688 C 59.63283157348633 740.40625 34.4308967590332 715.7343139648438 -0.4145989716053009 717.8951416015625" stroke-width="10.111695289611816" fill="none" stroke="rgb(155, 24, 105)" stroke-opacity="0.21925963" stroke-linecap="round" stroke-linejoin="round"/>
    <path d="M 737.5375366210938 49.60197830200195 C 742.9398193359375 -4.139001369476318 750.4108276367188 -32.5233039855957 712.3666381835938 -28.056499481201172" stroke-width="10.653340339660645" fill="none" stroke="rgb(255, 161, 228)" stroke-opacity="0.038556002" stroke-linecap="round" stroke-linejoin="round"/>
    <path d="M 104.35694885253906 585.085693359375 C 131.02012634277344 638.960205078125 101.39546966552734 595.885009765625 142.4459991455078 632.7239379882812" stroke-width="8.535714149475098" fill="none" stroke="rgb(103, 90, 163)" stroke-opacity="0.24520333" stroke-linecap="round" stroke-linejoin="round"/>
    <path d="M 401.1732482910156 226.661376953125 C 407.0081481933594 195.27001953125 469.440185546875 195.59417724609375 443.14605712890625 252.19412231445312 C 412.9289245605469 228.41261291503906 440.5296325683594 213.06402587890625 460.3089294433594 257.66180419921875" stroke-width="13.3084716796875" fill="none" stroke="rgb(102, 0, 78)" stroke-opacity="0.33715358" stroke-linecap="round" stroke-linejoin="round"/>
    <path d="M 123.9020004272461 264.7912292480469 C 98.56510925292969 265.0284423828125 56.17231369018555 232.3133544921875 22.310379028320312 220.54696655273438" stroke-width="12.872761726379395" fill="none" stroke="rgb(235, 147, 213)" stroke-opacity="0.2047629" stroke-linecap="round" stroke-linejoin="round"/>
    <path d="M 406.8321533203125 304.193115234375 C 407.1812438964844 286.8125915527344 425.44970703125 302.5181884765625 469.28851318359375 277.4364013671875 C 433.2768249511719 250.8992156982422 395.2371520996094 266.2637634277344 404.4212646484375 301.46368408203125" stroke-width="12.77695369720459" fill="none" stroke="rgb(152, 108, 77)" stroke-opacity="0.7077726" stroke-linecap="round" stroke-linejoin="round"/>
    <path d="M 364.2391052246094 712.9963989257812 C 367.35601806640625 731.428955078125 348.3577880859375 704.9686889648438 385.1912536621094 740.9638671875" stroke-width="8.535714149475098" fill="none" stroke="rgb(232, 145, 124)" stroke-opacity="0.34464544" stroke-linecap="round" stroke-linejoin="round"/>
    <path d="M 673.0317993164062 562.4080810546875 C 641.7297973632812 572.5672607421875 604.1712646484375 584.0135498046875 587.66455078125 632.525146484375" stroke-width="13.236875534057617" fill="none" stroke="rgb(160, 0, 144)" stroke-opacity="0.082476966" stroke-linecap="round" stroke-linejoin="round"/>
    <path d="M 855.3446044921875 516.8649291992188 C 865.774658203125 510.58856201171875 826.89990234375 517.6182250976562 805.722412109375 514.2435913085938 C 751.7095947265625 536.771240234375 732.15087890625 518.4986572265625 793.0003051757812 536.502197265625 C 774.8216552734375 536.5112915039062 791.2207641601562 532.6376953125 826.4680786132812 537.3457641601562" stroke-width="8.535714149475098" fill="none" stroke="rgb(27, 143, 55)" stroke-opacity="0.44341493" stroke-linecap="round" stroke-linejoin="round"/>
    <path d="M 261.5610656738281 788.6929321289062 C 297.37420654296875 814.2509765625 314.22845458984375 823.4522094726562 299.1968994140625 803.7394409179688 C 304.0984191894531 822.0487670898438 279.7490234375 810.283935546875 270.0281982421875 799.6416625976562" stroke-width="13.34171199798584" fill="none" stroke="rgb(216, 19, 255)" stroke-opacity="0.9146781" stroke-linecap="round" stroke-linejoin="round"/>
    <path d="M -3.8700461387634277 365.3692321777344 C -0.05673108994960785 389.00146484375 7.240396022796631 395.56341552734375 27.086694717407227 434.1431884765625 C 58.33588409423828 441.46746826171875 98.6152572631836 463.0447998046875 130.11178588867188 448.3346862792969" stroke-width="8.535714149475098" fill="none" stroke="rgb(68, 91, 209)" stroke-opacity="0.9185177" stroke-linecap="round" stroke-linejoin="round"/>
    <path d="M 19.353130340576172 793.776123046875 C 20.95826530456543 797.8600463867188 62.1053352355957 820.7772827148438 44.993316650390625 781.2107543945312" stroke-width="8.535714149475098" fill="none" stroke="rgb(162, 116, 126)" stroke-opacity="0.5563096" stroke-linecap="round" stroke-linejoin="round"/>
    <path d="M 96.79729461669922 22.198945999145508 C 85.36522674560547 29.74991798400879 56.16692352294922 46.65926742553711 108.87792205810547 55.463348388671875 C 135.16888427734375 65.29234313964844 97.02890014648438 103.71536254882812 59.3807258605957 47.75676727294922 C 107.10184478759766 55.82341766357422 135.2351531982422 86.26483154296875 143.25205993652344 136.55738830566406" stroke-width="13.28538703918457" fill="none" stroke="rgb(210, 24, 252)" stroke-opacity="0.2041017" stroke-linecap="round" stroke-linejoin="round"/>
    <path d="M 46.62035369873047 772.3001708984375 C 13.134644508361816 767.7225952148438 -14.987303733825684 731.370849609375 -2.5629496574401855 735.8009033203125 C -36.77605438232422 755.1337280273438 -9.473766326904297 770.5513916015625 -51.00722885131836 727.1338500976562 C -14.370905876159668 745.357177734375 -54.994056701660156 731.0947875976562 -53.16361999511719 701.3277587890625" stroke-width="8.535714149475098" fill="none" stroke="rgb(115, 95, 96)" stroke-opacity="0.445421" stroke-linecap="round" stroke-linejoin="round"/>
    <path d="M 839.7061767578125 679.5803833007812 C 809.1226196289062 700.8617553710938 843.6387329101562 697.056884765625 878.2144165039062 663.7614135742188" stroke-width="8.535714149475098" fill="none" stroke="rgb(85, 39, 98)" stroke-opacity="0.89930844" stroke-linecap="round" stroke-linejoin="round"/>
    <path d="M 668.4193115234375 314.147216796875 C 703.3320922851562 280.6987609863281 693.6805419921875 329.0026550292969 681.794677734375 284.8472595214844" stroke-width="9.878875732421875" fill="none" stroke="rgb(174, 201, 249)" stroke-opacity="0.17322801" stroke-linecap="round" stroke-linejoin="round"/>
  </g>
</svg>
