<?xml version="1.0" ?>
<svg xmlns="http://www.w3.org/2000/svg" version="1.1" width="925.0" height="925.0">
  <defs/>
  <g>
    <path d="M 91.10896301269531 104.97188568115234 C 99.86798095703125 122.31869506835938 101.26190185546875 121.00776672363281 101.86180114746094 125.5665054321289 C 101.82088470458984 129.82273864746094 120.76750946044922 128.13990783691406 124.02694702148438 127.84877014160156 C 126.95111083984375 127.15655517578125 125.7895278930664 125.05084228515625 125.66390991210938 122.85428619384766 C 125.59949493408203 121.0807876586914 134.41317749023438 110.04744720458984 135.44430541992188 107.06779479980469" stroke-width="5.148381233215332" fill="none" stroke="rgb(91, 90, 83)" stroke-opacity="1.0" stroke-linecap="round" stroke-linejoin="round"/>
    <path d="M 150.6632537841797 33.97743606567383 C 144.3568572998047 27.387441635131836 85.12850952148438 32.29560089111328 79.82437896728516 35.256919860839844 C 73.60208892822266 39.37416076660156 39.38855743408203 87.97303009033203 45.082603454589844 97.6285629272461 C 51.17921829223633 107.2381362915039 173.85494995117188 106.37677001953125 178.6153106689453 99.84827423095703 C 183.0101318359375 93.40170288085938 157.19810485839844 35.74587631225586 155.0966033935547 35.32371139526367" stroke-width="4.13979959487915" fill="none" stroke="rgb(232, 203, 70)" stroke-opacity="1.0" stroke-linecap="round" stroke-linejoin="round"/>
    <path d="M 132.86962890625 39.827552795410156 C 150.279296875 40.915042877197266 153.3973388671875 36.56740188598633 153.49334716796875 43.72651672363281 C 153.98910522460938 49.949745178222656 135.60330200195312 43.78770446777344 136.32391357421875 49.941104888916016 C 137.1645050048828 56.458656311035156 154.26551818847656 45.27919387817383 155.9898681640625 51.71052551269531 C 156.9208526611328 57.84765625 137.46617126464844 54.79733657836914 139.15139770507812 61.3254280090332 C 141.29702758789062 67.89178466796875 157.9675750732422 54.449344635009766 159.5939483642578 60.89091491699219 C 161.87551879882812 67.92279052734375 137.62277221679688 65.98152923583984 140.21885681152344 73.7142562866211 C 142.257080078125 79.46549224853516 157.63368225097656 65.44790649414062 159.7610626220703 71.66646575927734 C 161.44215393066406 77.01408386230469 145.38491821289062 75.7559585571289 146.72769165039062 80.64756774902344 C 148.73785400390625 85.90371704101562 162.579833984375 73.0888442993164 165.10443115234375 78.67609405517578 C 168.37527465820312 88.05672454833984 130.60589599609375 89.86202239990234 138.93910217285156 96.59831237792969 C 143.30174255371094 100.36886596679688 164.705078125 92.92816162109375 167.84207153320312 91.65333557128906" stroke-width="4.078611850738525" fill="none" stroke="rgb(249, 243, 196)" stroke-opacity="1.0" stroke-linecap="round" stroke-linejoin="round"/>
    <path d="M 143.9698486328125 79.16641235351562 C 158.08082580566406 81.94166564941406 165.72787475585938 82.13398742675781 153.4084930419922 79.20741271972656" stroke-width="3.243610143661499" fill="none" stroke="rgb(233, 35, 124)" stroke-opacity="0.5572373" stroke-linecap="round" stroke-linejoin="round"/>
    <path d="M 154.33229064941406 41.77455139160156 C 148.98951721191406 39.2837028503418 146.11610412597656 48.248008728027344 147.81956481933594 48.056095123291016 C 160.6722869873047 45.49681854248047 159.8715057373047 52.38660430908203 162.9291534423828 44.492156982421875 C 153.84945678710938 37.257835388183594 163.41116333007812 49.543514251708984 168.89620971679688 57.43679428100586" stroke-width="2.0" fill="none" stroke="rgb(141, 80, 202)" stroke-opacity="0.3221837" stroke-linecap="round" stroke-linejoin="round"/>
    <path d="M 162.01449584960938 81.62521362304688 C 176.10641479492188 83.75658416748047 184.88282775878906 86.4659423828125 180.7115478515625 79.44451904296875" stroke-width="2.0" fill="none" stroke="rgb(220, 107, 53)" stroke-opacity="0.663489" stroke-linecap="round" stroke-linejoin="round"/>
    <path d="M 139.06661987304688 59.782798767089844 C 137.19091796875 70.94656372070312 141.8699951171875 63.05229187011719 142.20916748046875 71.92132568359375 C 145.09361267089844 68.50797271728516 138.6912384033203 78.1113052368164 145.5273895263672 74.62632751464844" stroke-width="2.0" fill="none" stroke="rgb(83, 22, 63)" stroke-opacity="0.8287211" stroke-linecap="round" stroke-linejoin="round"/>
    <path d="M 137.47500610351562 94.13226318359375 C 137.92929077148438 95.91586303710938 138.62452697753906 93.3627700805664 140.6654510498047 87.63900756835938" stroke-width="2.0" fill="none" stroke="rgb(139, 146, 121)" stroke-opacity="0.27026346" stroke-linecap="round" stroke-linejoin="round"/>
    <path d="M 126.93325805664062 123.29851531982422 C 113.42789459228516 125.40037536621094 117.73928833007812 117.01641082763672 116.75806427001953 125.84442138671875 C 112.20896911621094 136.79481506347656 119.4116439819336 130.31166076660156 114.10316467285156 134.29193115234375 C 111.50619506835938 124.31360626220703 100.8469467163086 133.40980529785156 108.90711975097656 134.7985076904297" stroke-width="2.0" fill="none" stroke="rgb(210, 192, 19)" stroke-opacity="0.24320126" stroke-linecap="round" stroke-linejoin="round"/>
    <path d="M 162.35511779785156 80.52566528320312 C 175.60043334960938 87.67671203613281 178.0751953125 80.6784896850586 174.62298583984375 77.54420471191406" stroke-width="2.0" fill="none" stroke="rgb(121, 21, 247)" stroke-opacity="0.25995842" stroke-linecap="round" stroke-linejoin="round"/>
    <path d="M 153.13369750976562 80.3304214477539 C 143.8264617919922 81.29554748535156 137.5153350830078 91.2860107421875 134.71165466308594 96.72982788085938 C 136.7632293701172 91.68067169189453 148.120849609375 87.21202850341797 140.33978271484375 79.0921859741211 C 132.80630493164062 84.89460754394531 126.30371856689453 95.69439697265625 124.365478515625 99.64549255371094" stroke-width="2.0" fill="none" stroke="rgb(118, 76, 125)" stroke-opacity="0.4492633" stroke-linecap="round" stroke-linejoin="round"/>
    <path d="M 146.2252197265625 74.09618377685547 C 147.1340789794922 75.26617431640625 156.3289031982422 73.29408264160156 162.07351684570312 73.24261474609375 C 159.97137451171875 64.46063995361328 165.5757598876953 68.72344207763672 159.9412384033203 73.11878204345703" stroke-width="2.0" fill="none" stroke="rgb(20, 24, 28)" stroke-opacity="0.41683832" stroke-linecap="round" stroke-linejoin="round"/>
    <path d="M 181.36386108398438 78.10153198242188 C 180.96644592285156 71.7895736694336 185.8983612060547 69.00350952148438 191.22311401367188 68.56267547607422 C 181.1967315673828 60.266387939453125 175.91842651367188 54.643714904785156 182.4117431640625 58.86720657348633" stroke-width="2.11846661567688" fill="none" stroke="rgb(211, 33, 122)" stroke-opacity="0.08834123" stroke-linecap="round" stroke-linejoin="round"/>
    <path d="M 139.413818359375 87.52412414550781 C 146.4327850341797 79.2974624633789 148.6521759033203 73.93389129638672 144.1270294189453 72.97801208496094" stroke-width="2.0" fill="none" stroke="rgb(109, 85, 197)" stroke-opacity="0.21540628" stroke-linecap="round" stroke-linejoin="round"/>
    <path d="M 156.4728546142578 81.01309967041016 C 158.65634155273438 81.23851013183594 147.0591583251953 87.09355163574219 141.3405303955078 82.78813934326172" stroke-width="2.0" fill="none" stroke="rgb(73, 150, 30)" stroke-opacity="0.1941154" stroke-linecap="round" stroke-linejoin="round"/>
    <path d="M 181.3962860107422 79.33568572998047 C 180.7535400390625 72.86038970947266 186.61318969726562 74.91532135009766 182.75074768066406 75.1598129272461 C 175.9988250732422 67.82352447509766 180.7086944580078 60.2301025390625 185.5098419189453 50.17589569091797" stroke-width="2.0" fill="none" stroke="rgb(207, 133, 228)" stroke-opacity="0.58342415" stroke-linecap="round" stroke-linejoin="round"/>
    <path d="M 108.58108520507812 132.54656982421875 C 123.77715301513672 129.1038818359375 135.6063690185547 128.98556518554688 142.43075561523438 124.82559204101562 C 133.185791015625 111.97835540771484 134.39895629882812 103.14099884033203 124.37537384033203 99.60665893554688" stroke-width="2.0" fill="none" stroke="rgb(74, 87, 161)" stroke-opacity="0.89140207" stroke-linecap="round" stroke-linejoin="round"/>
    <path d="M 126.17976379394531 49.039737701416016 C 120.3614273071289 55.151344299316406 128.45550537109375 61.318763732910156 135.87269592285156 50.11458206176758" stroke-width="2.5899429321289062" fill="none" stroke="rgb(223, 127, 192)" stroke-opacity="0.03261984" stroke-linecap="round" stroke-linejoin="round"/>
    <path d="M 160.87693786621094 225.30520629882812 C 163.54046630859375 224.6912841796875 169.74447631835938 220.47239685058594 171.35391235351562 225.59423828125 C 176.8228759765625 227.90823364257812 177.4251708984375 219.1918182373047 188.99761962890625 218.8043670654297" stroke-width="2.0" fill="none" stroke="rgb(51, 58, 10)" stroke-opacity="0.6072559" stroke-linecap="round" stroke-linejoin="round"/>
    <path d="M 45.66484451293945 58.30152130126953 C 46.901817321777344 48.709510803222656 47.334068298339844 57.82570266723633 39.80918502807617 64.43403625488281 C 31.20594024658203 65.62017822265625 27.575407028198242 62.33882141113281 24.22109031677246 56.666053771972656" stroke-width="2.0" fill="none" stroke="rgb(91, 220, 56)" stroke-opacity="0.44994736" stroke-linecap="round" stroke-linejoin="round"/>
    <path d="M 65.11526489257812 24.806076049804688 C 62.960838317871094 37.54627990722656 54.27336502075195 36.137779235839844 48.03250503540039 29.126646041870117 C 43.52657699584961 28.38585662841797 44.33008575439453 22.546018600463867 44.971961975097656 26.241374969482422" stroke-width="2.0" fill="none" stroke="rgb(155, 56, 198)" stroke-opacity="0.7927842" stroke-linecap="round" stroke-linejoin="round"/>
    <path d="M 106.66165161132812 111.74943542480469 C 95.96527099609375 114.136962890625 93.91509246826172 113.85367584228516 94.5641098022461 114.40191650390625 C 89.39237213134766 119.03364562988281 83.87864685058594 116.57653045654297 78.04720306396484 105.38646697998047" stroke-width="3.12361741065979" fill="none" stroke="rgb(109, 136, 130)" stroke-opacity="0.41667494" stroke-linecap="round" stroke-linejoin="round"/>
    <path d="M 54.71915054321289 216.3963623046875 C 59.60074996948242 204.17733764648438 65.17060852050781 200.9921112060547 67.2196273803711 202.57015991210938" stroke-width="2.0742955207824707" fill="none" stroke="rgb(253, 52, 166)" stroke-opacity="0.7258854" stroke-linecap="round" stroke-linejoin="round"/>
    <path d="M 24.32041358947754 1.2746994495391846 C 32.63438415527344 11.046936988830566 41.554691314697266 3.0162696838378906 48.30537796020508 -8.584389686584473 C 45.17045974731445 -8.750301361083984 50.55072784423828 -10.783470153808594 41.88786315917969 -18.810104370117188 C 52.83522415161133 -8.665736198425293 51.88263702392578 0.38776934146881104 60.04097366333008 -1.26738440990448" stroke-width="2.0" fill="none" stroke="rgb(255, 112, 139)" stroke-opacity="0.7266996" stroke-linecap="round" stroke-linejoin="round"/>
    <path d="M 23.37247657775879 120.21241760253906 C 18.23870277404785 114.70384216308594 13.468515396118164 118.85557556152344 11.62240982055664 110.28266906738281 C 7.88092041015625 109.65564727783203 0.25237372517585754 115.78034973144531 -6.437842845916748 123.9619369506836" stroke-width="2.461107015609741" fill="none" stroke="rgb(60, 13, 205)" stroke-opacity="0.8291661" stroke-linecap="round" stroke-linejoin="round"/>
    <path d="M 144.3395233154297 22.02271270751953 C 142.47543334960938 8.698266983032227 131.52272033691406 13.416030883789062 125.63944244384766 25.972848892211914 C 118.01205444335938 20.955204010009766 124.32737731933594 11.624483108520508 134.5655059814453 20.90894317626953" stroke-width="3.2246930599212646" fill="none" stroke="rgb(195, 0, 110)" stroke-opacity="0.656257" stroke-linecap="round" stroke-linejoin="round"/>
    <path d="M 97.19873809814453 56.02793884277344 C 97.92658996582031 66.40532684326172 90.73294067382812 65.63710021972656 97.19096374511719 73.35870361328125" stroke-width="3.4135937690734863" fill="none" stroke="rgb(255, 18, 70)" stroke-opacity="0.73428124" stroke-linecap="round" stroke-linejoin="round"/>
    <path d="M 113.31321716308594 192.34754943847656 C 115.47721862792969 197.12571716308594 108.72586822509766 191.75555419921875 113.6402816772461 180.2942657470703 C 114.69999694824219 183.21835327148438 124.72523498535156 177.5487823486328 117.32320404052734 180.09976196289062" stroke-width="2.252448797225952" fill="none" stroke="rgb(126, 130, 36)" stroke-opacity="0.29401118" stroke-linecap="round" stroke-linejoin="round"/>
    <path d="M 38.88654327392578 170.70855712890625 C 26.175830841064453 164.955078125 19.814481735229492 170.119384765625 32.16237258911133 155.65435791015625" stroke-width="2.0" fill="none" stroke="rgb(128, 193, 43)" stroke-opacity="0.6068241" stroke-linecap="round" stroke-linejoin="round"/>
    <path d="M 68.54277801513672 156.9730682373047 C 79.1662826538086 162.41087341308594 78.32280731201172 160.76812744140625 82.8253173828125 163.6824493408203 C 80.08370208740234 164.26556396484375 79.1185531616211 171.04669189453125 79.32070922851562 187.2513427734375 C 75.62605285644531 185.01197814941406 84.12492370605469 174.25140380859375 79.93155670166016 176.0523223876953" stroke-width="2.0" fill="none" stroke="rgb(84, 2, 21)" stroke-opacity="0.45548552" stroke-linecap="round" stroke-linejoin="round"/>
    <path d="M 56.815006256103516 210.09332275390625 C 69.73023223876953 209.70510864257812 71.21491241455078 215.4665069580078 68.802001953125 221.71575927734375 C 69.46379852294922 213.49269104003906 62.01084899902344 200.46493530273438 52.32773971557617 202.6276092529297 C 48.20989227294922 210.24156188964844 43.274261474609375 201.04977416992188 42.55366134643555 212.2362823486328" stroke-width="2.0" fill="none" stroke="rgb(160, 195, 215)" stroke-opacity="0.028076183" stroke-linecap="round" stroke-linejoin="round"/>
    <path d="M 143.0703125 56.89885711669922 C 147.32196044921875 54.493675231933594 153.0975799560547 56.67388916015625 159.61500549316406 54.757930755615234" stroke-width="2.0" fill="none" stroke="rgb(0, 161, 103)" stroke-opacity="0.82897985" stroke-linecap="round" stroke-linejoin="round"/>
  </g>
</svg>
