<?xml version="1.0" ?>
<svg xmlns="http://www.w3.org/2000/svg" version="1.1" width="925.0" height="925.0">
  <defs/>
  <g>
    <path d="M 237.58950805664062 435.3736877441406 C 214.8287353515625 421.9067077636719 212.55393981933594 418.64019775390625 211.66964721679688 417.8932800292969 C 206.78709411621094 409.5522155761719 211.52413940429688 405.20806884765625 208.95285034179688 412.0133361816406 C 201.71572875976562 411.66357421875 202.23175048828125 380.4455261230469 202.9670867919922 365.6085205078125 C 259.0892028808594 334.1105651855469 288.5300598144531 321.4552001953125 343.15167236328125 311.0368957519531 C 365.57855224609375 324.15826416015625 381.0101013183594 333.67388916015625 382.3111572265625 344.36187744140625 C 388.036865234375 348.2074279785156 444.5664367675781 399.85137939453125 448.087158203125 402.65692138671875 C 477.68145751953125 400.2620544433594 481.3114318847656 428.2382507324219 523.08984375 430.7833251953125 C 490.2430419921875 472.6664733886719 530.0491943359375 460.1632080078125 591.564697265625 475.9396057128906 C 600.9359130859375 513.9803466796875 582.994140625 485.05535888671875 603.3895263671875 448.12969970703125 C 600.8350830078125 384.4912109375 635.339599609375 351.90032958984375 654.4900512695312 313.5289306640625" stroke-width="8.258928298950195" fill="none" stroke="rgb(45, 18, 19)" stroke-opacity="0.8967229" stroke-linecap="round" stroke-linejoin="round"/>
    <path d="M 298.4782409667969 516.0866088867188 C 317.3480224609375 521.3994750976562 331.85223388671875 515.4641723632812 319.52838134765625 505.62628173828125 C 307.25360107421875 523.333740234375 311.18878173828125 529.84375 329.8455810546875 521.9060668945312 C 328.2667236328125 513.2423095703125 310.5626525878906 558.1240234375 320.74664306640625 580.8662719726562 C 363.6123962402344 559.3967895507812 401.2343444824219 546.1838989257812 434.5782470703125 528.70703125 C 459.6712951660156 517.0919799804688 487.5416259765625 505.21771240234375 518.1649780273438 495.2565002441406 C 531.0847778320312 501.95556640625 549.1004028320312 521.6124877929688 581.972900390625 520.7872314453125 C 614.0346069335938 558.3855590820312 658.6681518554688 568.5086059570312 678.1047973632812 593.69580078125" stroke-width="20.902206420898438" fill="none" stroke="rgb(96, 0, 0)" stroke-opacity="0.9354249" stroke-linecap="round" stroke-linejoin="round"/>
    <path d="M 689.985595703125 583.8460083007812 C 654.4104614257812 574.8097534179688 667.65234375 564.012939453125 664.8807983398438 579.1911010742188" stroke-width="8.258928298950195" fill="none" stroke="rgb(132, 170, 176)" stroke-opacity="0.16969931" stroke-linecap="round" stroke-linejoin="round"/>
    <path d="M 336.1299133300781 568.048828125 C 279.8155822753906 531.406982421875 332.041015625 484.3512878417969 348.2926025390625 543.9534301757812" stroke-width="27.297266006469727" fill="none" stroke="rgb(234, 19, 55)" stroke-opacity="0.63063526" stroke-linecap="round" stroke-linejoin="round"/>
    <path d="M 568.6654663085938 477.21441650390625 C 541.0916748046875 446.5539855957031 508.7487487792969 441.0247802734375 535.6387939453125 431.6148681640625" stroke-width="8.258928298950195" fill="none" stroke="rgb(149, 248, 129)" stroke-opacity="0.112314485" stroke-linecap="round" stroke-linejoin="round"/>
    <path d="M 444.6444091796875 516.2041625976562 C 422.9310607910156 589.692138671875 436.70050048828125 564.6083374023438 390.3119201660156 557.0023803710938 C 406.1471862792969 532.7262573242188 389.0166320800781 564.7000732421875 388.4458923339844 588.3086547851562 C 325.4326171875 596.9072265625 346.1756591796875 591.6531372070312 345.447265625 655.7367553710938" stroke-width="8.258928298950195" fill="none" stroke="rgb(233, 116, 137)" stroke-opacity="0.5516261" stroke-linecap="round" stroke-linejoin="round"/>
    <path d="M 510.9716491699219 514.4126586914062 C 506.5620422363281 544.6468505859375 516.9756469726562 552.8715209960938 515.2753295898438 466.3131103515625" stroke-width="15.45796012878418" fill="none" stroke="rgb(18, 12, 0)" stroke-opacity="0.72047603" stroke-linecap="round" stroke-linejoin="round"/>
    <path d="M 298.1295471191406 510.1536865234375 C 249.44834899902344 537.3469848632812 265.3705749511719 532.0355224609375 248.97915649414062 508.1174621582031 C 303.703369140625 489.8959655761719 314.7550048828125 481.46185302734375 307.6358337402344 517.10302734375 C 331.36749267578125 503.39715576171875 303.4315185546875 478.0798645019531 246.26907348632812 442.7015075683594" stroke-width="11.10081958770752" fill="none" stroke="rgb(51, 10, 10)" stroke-opacity="0.77497166" stroke-linecap="round" stroke-linejoin="round"/>
    <path d="M 577.2855224609375 437.2275085449219 C 605.2418212890625 382.5451354980469 578.4150390625 378.88726806640625 597.407958984375 388.1964416503906 C 626.96826171875 379.8782043457031 593.909423828125 340.74822998046875 662.592041015625 364.07391357421875" stroke-width="9.631332397460938" fill="none" stroke="rgb(130, 233, 151)" stroke-opacity="0.17297196" stroke-linecap="round" stroke-linejoin="round"/>
    <path d="M 406.28076171875 355.50048828125 C 413.34405517578125 318.7804870605469 397.2699890136719 297.2376403808594 420.7213439941406 290.5627746582031 C 463.69805908203125 324.7546081542969 466.4263000488281 355.9241638183594 425.27154541015625 358.675537109375" stroke-width="11.615110397338867" fill="none" stroke="rgb(211, 53, 231)" stroke-opacity="0.0" stroke-linecap="round" stroke-linejoin="round"/>
    <path d="M 437.1262512207031 356.86669921875 C 490.0304870605469 362.85296630859375 460.7442626953125 392.4631042480469 446.9468994140625 360.4577941894531 C 444.4739990234375 367.7359619140625 469.2149963378906 365.3904724121094 464.4775390625 386.7836608886719 C 437.0345153808594 367.0783386230469 484.5648193359375 381.8050537109375 489.8029479980469 372.82733154296875" stroke-width="9.868212699890137" fill="none" stroke="rgb(42, 205, 175)" stroke-opacity="0.33080038" stroke-linecap="round" stroke-linejoin="round"/>
    <path d="M 502.8940124511719 468.42572021484375 C 530.62353515625 443.95684814453125 533.2491455078125 481.6188049316406 526.6944580078125 471.7958068847656 C 518.3814086914062 429.7190856933594 484.7471618652344 475.6678161621094 475.0990295410156 433.4207763671875 C 497.7248229980469 462.66009521484375 487.3878479003906 496.9737548828125 485.7337951660156 497.9331970214844" stroke-width="8.258928298950195" fill="none" stroke="rgb(179, 198, 186)" stroke-opacity="0.38372865" stroke-linecap="round" stroke-linejoin="round"/>
    <path d="M 673.5670776367188 370.6008605957031 C 660.7006225585938 368.0263366699219 663.912841796875 401.7457580566406 622.3566284179688 414.11907958984375 C 611.766357421875 433.3149719238281 641.5950317382812 417.3819274902344 628.7783203125 404.4516296386719" stroke-width="8.439391136169434" fill="none" stroke="rgb(54, 206, 187)" stroke-opacity="0.090493195" stroke-linecap="round" stroke-linejoin="round"/>
    <path d="M 654.221923828125 584.2107543945312 C 627.34033203125 529.5408935546875 572.7470703125 511.5627136230469 586.3554077148438 485.0437316894531 C 539.0111694335938 473.3713073730469 540.5130004882812 447.5478210449219 552.8369140625 435.90625 C 573.8194580078125 389.61285400390625 585.2985229492188 376.6598205566406 630.3519897460938 418.6336975097656" stroke-width="10.892208099365234" fill="none" stroke="rgb(93, 110, 7)" stroke-opacity="0.1341711" stroke-linecap="round" stroke-linejoin="round"/>
    <path d="M 255.73568725585938 447.0166015625 C 220.29147338867188 428.8901672363281 175.0386505126953 417.48736572265625 177.42324829101562 412.5152893066406" stroke-width="8.258928298950195" fill="none" stroke="rgb(113, 254, 119)" stroke-opacity="0.61800253" stroke-linecap="round" stroke-linejoin="round"/>
    <path d="M 670.9987182617188 380.106689453125 C 663.7092895507812 370.555908203125 668.4248046875 379.34637451171875 673.2539672851562 365.4842529296875" stroke-width="8.258928298950195" fill="none" stroke="rgb(188, 253, 100)" stroke-opacity="0.50588715" stroke-linecap="round" stroke-linejoin="round"/>
    <path d="M 661.1209106445312 575.8792114257812 C 690.2734375 583.5223388671875 715.4625854492188 555.6275634765625 739.3802490234375 617.910888671875 C 716.5671997070312 590.1675415039062 743.239501953125 619.932373046875 732.1723022460938 633.6441650390625 C 783.467041015625 659.0010375976562 774.8626708984375 634.18798828125 797.697021484375 669.8064575195312" stroke-width="8.258928298950195" fill="none" stroke="rgb(61, 251, 145)" stroke-opacity="0.2292762" stroke-linecap="round" stroke-linejoin="round"/>
    <path d="M 366.03515625 566.7523193359375 C 341.08258056640625 546.1890869140625 371.18524169921875 531.6294555664062 401.4814147949219 499.69915771484375 C 367.9480285644531 532.9527587890625 354.0616149902344 514.1127319335938 372.1447448730469 482.8436279296875 C 324.0071105957031 455.78851318359375 341.6570129394531 463.6941223144531 341.9502868652344 450.3780822753906" stroke-width="13.319512367248535" fill="none" stroke="rgb(255, 51, 209)" stroke-opacity="0.070433855" stroke-linecap="round" stroke-linejoin="round"/>
    <path d="M 259.1131591796875 409.4793395996094 C 239.42919921875 394.61309814453125 300.746826171875 403.4320068359375 325.5084533691406 384.9853210449219" stroke-width="8.258928298950195" fill="none" stroke="rgb(100, 47, 63)" stroke-opacity="0.3746453" stroke-linecap="round" stroke-linejoin="round"/>
    <path d="M 456.9840087890625 327.65966796875 C 439.35772705078125 344.1611022949219 441.2588806152344 366.15069580078125 411.6964416503906 312.0282287597656 C 448.5021667480469 279.5528869628906 458.17510986328125 276.7096252441406 452.39068603515625 246.0894012451172" stroke-width="23.372819900512695" fill="none" stroke="rgb(20, 255, 227)" stroke-opacity="0.69621855" stroke-linecap="round" stroke-linejoin="round"/>
    <path d="M 126.70587158203125 365.6930236816406 C 61.47886276245117 368.65899658203125 77.62442016601562 361.3387451171875 53.09256362915039 388.2005920410156 C 49.2410774230957 376.7149353027344 27.24399185180664 386.9841003417969 -3.5992252826690674 411.0229187011719" stroke-width="11.54437255859375" fill="none" stroke="rgb(228, 2, 255)" stroke-opacity="0.42280418" stroke-linecap="round" stroke-linejoin="round"/>
    <path d="M 518.535400390625 688.5352172851562 C 479.8664245605469 656.2299194335938 467.4671325683594 653.212646484375 487.0760192871094 685.5220947265625" stroke-width="8.258928298950195" fill="none" stroke="rgb(106, 32, 213)" stroke-opacity="0.37641695" stroke-linecap="round" stroke-linejoin="round"/>
    <path d="M 210.6576385498047 433.76007080078125 C 133.92767333984375 435.13165283203125 99.23675537109375 455.4938049316406 76.96821594238281 456.2256774902344 C 18.656085968017578 477.29449462890625 0.6282222867012024 472.1313781738281 72.57171630859375 463.6948547363281" stroke-width="8.258928298950195" fill="none" stroke="rgb(231, 24, 229)" stroke-opacity="0.49985757" stroke-linecap="round" stroke-linejoin="round"/>
    <path d="M 402.44921875 760.4515380859375 C 411.34161376953125 784.7573852539062 439.1199951171875 827.4788208007812 449.425048828125 842.3029174804688" stroke-width="8.258928298950195" fill="none" stroke="rgb(95, 0, 253)" stroke-opacity="0.27247164" stroke-linecap="round" stroke-linejoin="round"/>
    <path d="M 707.7042236328125 34.48575973510742 C 715.3338012695312 26.816349029541016 742.9921875 77.71304321289062 754.5966796875 88.19892120361328 C 737.867919921875 58.437469482421875 752.75439453125 48.92238235473633 783.385009765625 -10.582712173461914" stroke-width="8.258928298950195" fill="none" stroke="rgb(98, 195, 141)" stroke-opacity="0.0" stroke-linecap="round" stroke-linejoin="round"/>
    <path d="M 101.4661865234375 128.87718200683594 C 94.96874237060547 52.67584991455078 47.95076370239258 26.718597412109375 76.57024383544922 25.328277587890625 C 151.81649780273438 44.07878875732422 201.18637084960938 23.169095993041992 223.64749145507812 8.231745719909668" stroke-width="9.55941104888916" fill="none" stroke="rgb(0, 176, 115)" stroke-opacity="0.20827341" stroke-linecap="round" stroke-linejoin="round"/>
    <path d="M 35.62113952636719 42.74562072753906 C 32.13675308227539 15.805161476135254 51.41147232055664 24.25472640991211 9.83161449432373 17.950956344604492 C 63.99409103393555 24.046592712402344 99.82980346679688 -0.4845680296421051 88.99224853515625 70.8786849975586" stroke-width="8.857213020324707" fill="none" stroke="rgb(140, 255, 64)" stroke-opacity="0.07680271" stroke-linecap="round" stroke-linejoin="round"/>
    <path d="M 244.09918212890625 416.2413635253906 C 251.2331085205078 429.2471008300781 230.2737274169922 427.9737854003906 230.01734924316406 413.078125 C 267.8175048828125 384.2308654785156 304.3917541503906 368.81158447265625 337.3433532714844 423.3974914550781 C 374.359619140625 409.0423583984375 324.7376403808594 378.9344787597656 293.3677673339844 354.0730895996094" stroke-width="8.258928298950195" fill="none" stroke="rgb(195, 177, 29)" stroke-opacity="0.07947755" stroke-linecap="round" stroke-linejoin="round"/>
    <path d="M 703.3207397460938 660.7118530273438 C 672.8897705078125 660.8966674804688 620.4728393554688 689.8604125976562 667.005126953125 695.4177856445312 C 632.0369262695312 693.4275512695312 603.8539428710938 732.6366577148438 563.3366088867188 752.4556274414062 C 575.640380859375 803.096435546875 614.9158325195312 788.6133422851562 618.0177612304688 794.8828125" stroke-width="8.258928298950195" fill="none" stroke="rgb(220, 255, 164)" stroke-opacity="0.38731548" stroke-linecap="round" stroke-linejoin="round"/>
    <path d="M 491.7279052734375 346.82574462890625 C 484.7076721191406 344.46832275390625 506.0834655761719 403.935302734375 473.3171081542969 372.111083984375 C 445.8290100097656 315.4791564941406 463.83160400390625 338.1210021972656 455.8170166015625 377.82861328125 C 449.6177673339844 351.7110290527344 475.2633972167969 320.75421142578125 462.87078857421875 314.02392578125" stroke-width="12.96619987487793" fill="none" stroke="rgb(0, 199, 65)" stroke-opacity="0.12619017" stroke-linecap="round" stroke-linejoin="round"/>
    <path d="M 818.3878173828125 211.40182495117188 C 785.26220703125 233.3726043701172 765.0194702148438 207.57728576660156 746.0990600585938 210.1474151611328 C 767.548095703125 225.7147979736328 722.6921997070312 246.68368530273438 676.1942138671875 245.23011779785156 C 698.2269897460938 240.28993225097656 656.4978637695312 258.14447021484375 616.9073486328125 224.84564208984375" stroke-width="9.482219696044922" fill="none" stroke="rgb(117, 62, 255)" stroke-opacity="0.6046942" stroke-linecap="round" stroke-linejoin="round"/>
    <path d="M 704.6054077148438 1.6339337825775146 C 764.1658935546875 -10.94353199005127 752.290771484375 -27.764848709106445 741.9502563476562 -59.81423568725586" stroke-width="8.719651222229004" fill="none" stroke="rgb(131, 167, 28)" stroke-opacity="0.27007318" stroke-linecap="round" stroke-linejoin="round"/>
    <path d="M 364.09002685546875 508.5811767578125 C 344.6060485839844 497.97613525390625 316.9413146972656 460.8453063964844 284.9396057128906 436.69696044921875 C 306.057373046875 456.25439453125 299.864501953125 435.48876953125 267.75054931640625 476.044677734375 C 175.2921600341797 470.481689453125 187.17567443847656 459.6233215332031 219.38336181640625 576.8368530273438" stroke-width="8.258928298950195" fill="none" stroke="rgb(176, 87, 132)" stroke-opacity="0.5530086" stroke-linecap="round" stroke-linejoin="round"/>
    <path d="M 351.4742431640625 638.4094848632812 C 344.21673583984375 561.4093627929688 362.0215759277344 545.64794921875 354.8929443359375 551.2079467773438 C 357.90679931640625 525.0701904296875 353.9173889160156 521.543701171875 308.601318359375 547.738037109375" stroke-width="10.233488082885742" fill="none" stroke="rgb(86, 88, 69)" stroke-opacity="0.8878179" stroke-linecap="round" stroke-linejoin="round"/>
  </g>
</svg>
