<?xml version="1.0" ?>
<svg xmlns="http://www.w3.org/2000/svg" version="1.1" width="2137.0" height="2137.0">
  <defs/>
  <g>
    <path d="M 31.990394592285156 82.93467712402344 C 89.54498291015625 82.3769302368164 147.07762145996094 82.40062713623047 203.96311950683594 82.42391204833984 C 261.4847106933594 83.0499496459961 209.00924682617188 74.35435485839844 157.1358184814453 66.27306365966797" stroke-width="2.0" fill="none" stroke="rgb(7, 0, 4)" stroke-opacity="0.96904427" stroke-linecap="round" stroke-linejoin="round"/>
    <path d="M 73.77488708496094 92.92977905273438 C 68.54148864746094 134.86672973632812 63.32597732543945 176.79986572265625 76.20314025878906 187.4980926513672 C 88.49038696289062 199.33274841308594 118.31526184082031 179.9345245361328 147.58229064941406 160.0245361328125 C 177.9673614501953 140.59840393066406 167.37579345703125 133.38223266601562 156.21986389160156 126.739501953125" stroke-width="2.5421741008758545" fill="none" stroke="rgb(4, 0, 0)" stroke-opacity="1.0" stroke-linecap="round" stroke-linejoin="round"/>
    <path d="M 154.49020385742188 94.78691101074219 C 165.5950469970703 93.58467864990234 176.0911407470703 92.3857650756836 177.95077514648438 97.5772933959961 C 180.39857482910156 102.17688751220703 173.00723266601562 112.56932830810547 165.61878967285156 122.9592514038086 C 157.64080810546875 132.7587890625 159.88038635253906 133.00912475585938 162.12757873535156 133.26992797851562" stroke-width="2.0" fill="none" stroke="rgb(0, 0, 0)" stroke-opacity="0.9773747" stroke-linecap="round" stroke-linejoin="round"/>
    <path d="M 93.46035766601562 109.50296783447266 C 90.11778259277344 122.15160369873047 86.18771362304688 134.2054901123047 81.66973114013672 145.663330078125 C 77.72954559326172 157.72042846679688 86.70001220703125 150.91236877441406 96.2497329711914 144.09616088867188" stroke-width="2.0" fill="none" stroke="rgb(0, 0, 0)" stroke-opacity="0.9856023" stroke-linecap="round" stroke-linejoin="round"/>
    <path d="M 77.29293823242188 111.7142333984375 C 87.52220916748047 107.80011749267578 79.80684661865234 111.22665405273438 91.59082794189453 111.32506561279297" stroke-width="2.0" fill="none" stroke="rgb(0, 0, 5)" stroke-opacity="0.9998649" stroke-linecap="round" stroke-linejoin="round"/>
    <path d="M 111.26485443115234 116.0876693725586 C 119.78941345214844 113.05387115478516 112.06973266601562 115.85281372070312 119.71538543701172 117.56354522705078" stroke-width="2.0" fill="none" stroke="rgb(0, 0, 5)" stroke-opacity="0.9859777" stroke-linecap="round" stroke-linejoin="round"/>
    <path d="M 85.18309783935547 161.2458953857422 C 107.06145477294922 162.47552490234375 107.5627212524414 163.3566436767578 107.63237762451172 162.34609985351562" stroke-width="2.1284244060516357" fill="none" stroke="rgb(0, 2, 0)" stroke-opacity="1.0" stroke-linecap="round" stroke-linejoin="round"/>
    <path d="M 117.43965911865234 119.80184173583984 C 117.68485260009766 119.44329071044922 118.52381134033203 119.6936264038086 121.68074798583984 119.77474212646484 C 124.23995208740234 120.44156646728516 128.50779724121094 122.14913177490234 132.4920196533203 123.62359619140625 C 135.8856964111328 125.66248321533203 140.1752471923828 126.32534790039062 143.96983337402344 126.45726776123047 C 147.7783966064453 126.52926635742188 151.68373107910156 125.48460388183594 153.4022979736328 127.54299926757812 C 155.12759399414062 129.5985107421875 154.7106475830078 134.75653076171875 152.88233947753906 137.88162231445312 C 151.59278869628906 140.98019409179688 149.44973754882812 142.62808227539062 148.62539672851562 142.1149139404297 C 147.7999725341797 141.6155242919922 148.8761749267578 138.9519805908203 146.99996948242188 139.84494018554688 C 145.12722778320312 140.1266326904297 140.9097900390625 142.81057739257812 136.67665100097656 142.1122589111328 C 133.04495239257812 142.5312042236328 129.99050903320312 139.5864715576172 128.28623962402344 137.13771057128906 C 125.99422454833984 135.27243041992188 124.45144653320312 134.5014190673828 123.24214935302734 133.7257080078125 C 121.44231414794922 133.5331573486328 120.56575012207031 132.7487030029297 120.5912094116211 133.390869140625 C 120.6220932006836 134.0302734375 121.55070495605469 136.10223388671875 120.74284362792969 136.45315551757812 C 119.9298095703125 137.40087890625 117.387939453125 137.19500732421875 116.7809829711914 136.66571044921875 C 115.57074737548828 136.14202880859375 115.69172668457031 135.29991149902344 116.28351593017578 135.7533416748047 C 116.28176879882812 136.80178833007812 117.35701751708984 138.5410614013672 118.43634033203125 140.2767791748047 C 120.0741195678711 142.02516174316406 112.93505096435547 144.37083435058594 105.24515533447266 146.19985961914062" stroke-width="2.0" fill="none" stroke="rgb(16, 19, 17)" stroke-opacity="1.0" stroke-linecap="round" stroke-linejoin="round"/>
    <path d="M 126.40511322021484 78.81116485595703 C 126.36973571777344 78.66908264160156 126.94796752929688 78.5235824584961 126.65162658691406 78.64311981201172 C 126.96446228027344 78.76313781738281 127.6165542602539 79.15458679199219 127.6956787109375 79.06503295898438 C 127.77470397949219 78.97633361816406 127.27687072753906 78.40306854248047 127.5260009765625 75.32513427734375 C 127.16983795166016 72.8509521484375 126.96080780029297 68.4701919555664 126.60010528564453 64.17630004882812 C 126.24942779541016 59.881866455078125 125.72928619384766 55.67266082763672 124.62305450439453 53.221229553222656 C 124.70657348632812 49.56591033935547 124.19464874267578 47.6674919128418 123.69105529785156 45.7700309753418 C 122.59278106689453 44.471065521240234 122.52066802978516 40.37002944946289 123.04159545898438 36.26482391357422" stroke-width="2.0" fill="none" stroke="rgb(15, 21, 20)" stroke-opacity="0.97825956" stroke-linecap="round" stroke-linejoin="round"/>
    <path d="M 114.43318939208984 36.4223747253418 C 114.22259521484375 37.31552505493164 112.8157958984375 37.658592224121094 113.20500946044922 37.1694221496582 C 112.37970733642578 37.32387161254883 112.74365997314453 37.32926940917969 112.65077209472656 38.480628967285156 C 111.9604263305664 39.031166076660156 110.21554565429688 40.130950927734375 107.75979614257812 40.42277908325195 C 105.90872192382812 41.31633377075195 103.94181060791016 41.99707794189453 98.90643310546875 45.528194427490234 C 93.82057189941406 48.98518371582031 85.67011260986328 55.30500030517578 81.39793395996094 58.792301177978516 C 77.12427520751953 62.2808952331543 76.71250915527344 62.92379379272461 76.6327896118164 64.28272247314453 C 75.9703369140625 65.05498504638672 75.04100036621094 65.94213104248047 74.10742950439453 66.83055877685547 C 72.5735092163086 67.1095962524414 69.65478515625 68.10501861572266 67.33863830566406 68.5029067993164" stroke-width="2.0" fill="none" stroke="rgb(22, 15, 17)" stroke-opacity="0.9979925" stroke-linecap="round" stroke-linejoin="round"/>
    <path d="M 54.13311767578125 91.64364624023438 C 54.22038269042969 92.69547271728516 54.314308166503906 93.73422241210938 55.879695892333984 94.66511535644531 C 56.859378814697266 96.18586730957031 58.72389602661133 98.19510650634766 58.606727600097656 103.91358947753906 C 57.978206634521484 108.43428802490234 55.975833892822266 116.66986846923828 56.39075469970703 121.79813385009766 C 57.31782150268555 126.93269348144531 60.106178283691406 129.55674743652344 61.125770568847656 130.28506469726562 C 62.72464370727539 131.06494140625 63.15169906616211 130.5594940185547 64.55216217041016 131.2612762451172 C 65.34638977050781 131.36904907226562 66.51703643798828 133.27842712402344 67.79354095458984 134.2723388671875 C 69.08647918701172 135.25035095214844 69.86846923828125 135.32960510253906 74.67987060546875 135.0951385498047 C 79.48869323730469 134.82005310058594 87.72259521484375 134.23475646972656 93.10379028320312 134.42861938476562 C 97.88310241699219 134.6058807373047 99.20840454101562 135.57025146484375 100.53280639648438 137.1313934326172 C 101.85916137695312 138.0904541015625 105.1242446899414 137.08619689941406 108.38249969482422 136.09133911132812" stroke-width="2.0" fill="none" stroke="rgb(22, 15, 16)" stroke-opacity="1.0" stroke-linecap="round" stroke-linejoin="round"/>
    <path d="M 105.16409301757812 120.09668731689453 C 104.58914947509766 120.32380676269531 104.01995086669922 120.55384063720703 104.11461639404297 120.48875427246094 C 104.206787109375 120.42178344726562 104.9548110961914 120.04927062988281 105.03599548339844 118.06453704833984 C 104.5341567993164 116.07079315185547 102.16934204101562 113.06025695800781 100.72737121582031 111.72976684570312 C 99.28446960449219 110.39869689941406 98.76741027832031 111.35118865966797 98.88339233398438 111.49713897705078 C 98.37458801269531 111.03244018554688 99.70765686035156 110.3665542602539 101.69695281982422 110.32783508300781 C 103.04942321777344 109.67528533935547 102.5038833618164 106.67444610595703 101.37010192871094 103.08010864257812" stroke-width="2.0" fill="none" stroke="rgb(22, 23, 15)" stroke-opacity="1.0" stroke-linecap="round" stroke-linejoin="round"/>
    <path d="M 99.66844940185547 96.51265716552734 C 99.3407211303711 96.10108947753906 98.41165924072266 95.68912506103516 96.76968383789062 95.77185821533203 C 95.729248046875 95.84222412109375 94.5735092163086 96.40827178955078 93.41691589355469 97.55070495605469 C 92.26148986816406 98.12265014648438 89.98574829101562 96.75790405273438 86.51242065429688 94.78043365478516" stroke-width="2.0" fill="none" stroke="rgb(21, 20, 27)" stroke-opacity="1.0" stroke-linecap="round" stroke-linejoin="round"/>
    <path d="M 136.65435791015625 92.89741516113281 C 135.68914794921875 94.07401275634766 134.72146606445312 95.24555969238281 133.92259216308594 96.6216812133789 C 133.6536865234375 99.19691467285156 134.11732482910156 101.9808349609375 136.3015899658203 103.66828155517578 C 137.90957641601562 105.94116973876953 140.64804077148438 108.31500244140625 141.88909912109375 108.0822525024414 C 143.1309356689453 108.44207763671875 142.87466430664062 107.99577331542969 143.4732208251953 108.29466247558594 C 144.67391967773438 108.5951156616211 147.3292236328125 110.23706817626953 148.6427459716797 111.48345947265625 C 149.94956970214844 112.73639678955078 149.913818359375 113.59217071533203 150.6912384033203 113.46021270751953 C 150.87120056152344 113.93131256103516 151.26319885253906 114.0210952758789 151.83831787109375 114.66687774658203 C 152.4102020263672 114.11412811279297 153.16165161132812 114.12265014648438 153.80360412597656 115.06546783447266 C 153.85446166992188 116.60381317138672 154.39315795898438 118.47982025146484 154.53738403320312 119.96556091308594 C 154.6653594970703 120.85029602050781 154.39320373535156 121.94327545166016 154.0997314453125 122.60646057128906 C 153.80674743652344 122.66888427734375 153.4957275390625 121.69705963134766 149.47837829589844 121.13439178466797 C 145.46116638183594 120.58484649658203 137.7364959716797 119.87921142578125 129.97647094726562 119.75918579101562 C 122.89772033691406 120.22245025634766 126.67808532714844 117.56058502197266 131.09376525878906 115.52954864501953" stroke-width="2.0" fill="none" stroke="rgb(28, 18, 26)" stroke-opacity="1.0" stroke-linecap="round" stroke-linejoin="round"/>
    <path d="M 133.7092742919922 28.306262969970703 C 133.16116333007812 29.318498611450195 133.091552734375 30.28314971923828 133.35752868652344 30.16573143005371 C 133.62933349609375 29.452112197875977 134.2819061279297 28.846826553344727 135.78228759765625 33.05741882324219 C 137.1751251220703 37.31080627441406 140.0531768798828 46.36638641357422 141.47344970703125 52.42335510253906 C 142.29641723632812 59.08103561401367 142.8263702392578 61.54900360107422 144.05575561523438 63.45844268798828 C 144.7176055908203 65.96186065673828 145.50448608398438 68.5016098022461 146.01524353027344 69.53414154052734 C 146.5782928466797 70.5403060913086 146.23236083984375 70.6514892578125 146.95152282714844 72.61820220947266 C 147.6213836669922 74.60205841064453 149.35401916503906 78.4228286743164 150.10028076171875 80.34104919433594 C 150.84988403320312 82.86000061035156 150.6049346923828 82.19647979736328 151.0236053466797 83.21195983886719 C 150.843994140625 84.23101043701172 149.52003479003906 86.91332244873047 149.71588134765625 88.7464599609375 C 150.49713134765625 91.18290710449219 151.5922393798828 93.36695098876953 151.55596923828125 95.05204772949219 C 152.11270141601562 96.138427734375 152.13772583007812 96.12469482421875 152.48577880859375 99.34996032714844 C 152.22633361816406 102.57420349121094 151.7215118408203 109.04442596435547 150.1182861328125 111.32864379882812 C 147.92678833007812 114.21656036376953 145.1787872314453 113.4900894165039 144.54954528808594 113.20435333251953 C 143.92617797851562 113.51653289794922 145.4228057861328 113.6666030883789 140.69944763183594 110.92195892333984 C 135.95980834960938 108.19774627685547 125.0257339477539 102.54266357421875 119.15862274169922 99.50248718261719 C 112.73009490966797 96.94817352294922 110.19166564941406 98.15784454345703 109.41617584228516 97.9621810913086 C 108.64180755615234 97.16210174560547 109.03540802001953 96.13334655761719 109.1103744506836 95.76468658447266 C 109.17792510986328 95.39433288574219 108.9314193725586 95.68363189697266 108.72102355957031 96.16958618164062 C 109.11009979248047 97.25691223144531 108.93450927734375 97.9350814819336 108.36456298828125 98.86497497558594 C 107.80010223388672 99.79618835449219 106.8415298461914 100.97918701171875 105.16576385498047 102.92472076416016 C 103.57577514648438 104.93792724609375 101.28670501708984 107.7298583984375 100.50340270996094 109.15460205078125 C 99.71543884277344 110.5843276977539 100.40577697753906 110.61744689941406 99.51727294921875 111.65055847167969 C 98.04296112060547 112.10124969482422 95.59393310546875 114.15470886230469 93.30463409423828 114.38005065917969 C 91.60845947265625 114.59073638916016 89.49031066894531 113.00228881835938 87.37763977050781 111.40335845947266 C 85.26251220703125 109.80854797363281 80.28983306884766 107.20230102539062 76.51484680175781 103.98200988769531" stroke-width="2.0" fill="none" stroke="rgb(18, 27, 18)" stroke-opacity="1.0" stroke-linecap="round" stroke-linejoin="round"/>
    <path d="M 166.580322265625 142.0403594970703 C 166.46981811523438 145.44033813476562 166.3633575439453 148.8365478515625 166.249267578125 152.2293701171875 C 166.14395141601562 155.6251983642578 157.1985321044922 156.39230346679688 147.64915466308594 156.5604705810547" stroke-width="3.7078657150268555" fill="none" stroke="rgb(189, 121, 11)" stroke-opacity="0.22120033" stroke-linecap="round" stroke-linejoin="round"/>
    <path d="M 149.12997436523438 103.08879089355469 C 148.42474365234375 88.92172241210938 163.08914184570312 99.3041000366211 159.39984130859375 91.70635223388672" stroke-width="2.0" fill="none" stroke="rgb(255, 58, 168)" stroke-opacity="0.18547015" stroke-linecap="round" stroke-linejoin="round"/>
    <path d="M 74.10822296142578 91.1903305053711 C 77.33920288085938 94.92340087890625 80.58013153076172 99.2608642578125 83.32649993896484 99.17583465576172 C 86.68396759033203 99.6927490234375 90.169677734375 96.99532318115234 94.25639343261719 94.8968276977539 C 97.74431610107422 92.20083618164062 93.17569732666016 86.4521713256836 89.81761932373047 80.1001205444336" stroke-width="2.414844274520874" fill="none" stroke="rgb(128, 253, 170)" stroke-opacity="0.11889031" stroke-linecap="round" stroke-linejoin="round"/>
    <path d="M 201.1528778076172 83.90274047851562 C 203.7965850830078 83.58090209960938 205.83486938476562 82.65271759033203 208.4802703857422 82.93083190917969 C 211.12411499023438 82.60365295410156 205.9498748779297 80.88729858398438 200.77418518066406 79.16937255859375" stroke-width="2.0" fill="none" stroke="rgb(131, 159, 62)" stroke-opacity="0.49673983" stroke-linecap="round" stroke-linejoin="round"/>
    <path d="M 141.32473754882812 151.43092346191406 C 153.07833862304688 148.71975708007812 140.38641357421875 157.45108032226562 142.98374938964844 165.16925048828125" stroke-width="2.0" fill="none" stroke="rgb(143, 13, 240)" stroke-opacity="0.0" stroke-linecap="round" stroke-linejoin="round"/>
    <path d="M 29.72971534729004 80.19721984863281 C 26.982873916625977 82.6649169921875 24.845447540283203 85.7419204711914 22.108322143554688 88.21907806396484 C 19.370574951171875 90.6981201171875 20.15654182434082 84.63460540771484 20.944618225097656 77.9693832397461" stroke-width="2.0" fill="none" stroke="rgb(45, 49, 58)" stroke-opacity="0.32869786" stroke-linecap="round" stroke-linejoin="round"/>
    <path d="M 202.79769897460938 76.90101623535156 C 206.85806274414062 83.77629852294922 210.9210968017578 91.25228118896484 214.39633178710938 99.32318878173828 C 219.03724670410156 106.20433807373047 219.70538330078125 91.50569915771484 220.97499084472656 76.81204986572266" stroke-width="2.0" fill="none" stroke="rgb(76, 66, 216)" stroke-opacity="0.65621066" stroke-linecap="round" stroke-linejoin="round"/>
    <path d="M 17.852218627929688 84.29022216796875 C 13.566625595092773 85.89402770996094 9.86353874206543 88.07575988769531 6.761813163757324 90.84149169921875 C 2.463878631591797 93.02864074707031 1.0689759254455566 89.69860076904297 -0.3279368281364441 86.36072540283203" stroke-width="2.0" fill="none" stroke="rgb(43, 32, 220)" stroke-opacity="0.7275292" stroke-linecap="round" stroke-linejoin="round"/>
    <path d="M 133.95005798339844 167.01513671875 C 136.88612365722656 164.92587280273438 139.82492065429688 162.8404083251953 142.76336669921875 160.74937438964844 C 145.7118377685547 158.67730712890625 154.02101135253906 154.6230926513672 163.52053833007812 151.15191650390625" stroke-width="5.740499019622803" fill="none" stroke="rgb(254, 0, 12)" stroke-opacity="0.78166497" stroke-linecap="round" stroke-linejoin="round"/>
    <path d="M 141.0811004638672 157.55224609375 C 141.7141876220703 154.90695190429688 142.34812927246094 152.8616485595703 144.0286407470703 151.0802001953125 C 145.70819091796875 149.2968292236328 148.43759155273438 147.7749786376953 151.7704315185547 146.2520751953125 C 154.49806213378906 145.334716796875 156.15907287597656 138.7342529296875 157.2153778076172 131.53208923339844" stroke-width="2.0" fill="none" stroke="rgb(53, 70, 6)" stroke-opacity="0.054801397" stroke-linecap="round" stroke-linejoin="round"/>
    <path d="M 150.2694854736328 167.7988739013672 C 135.03271484375 167.15426635742188 119.19776153564453 166.50167846679688 112.72940826416016 170.5153350830078 C 106.86035919189453 173.94029235839844 110.94489288330078 182.6244354248047 115.03822326660156 191.9074249267578 C 119.73070526123047 199.9904327392578 127.51969146728516 197.55572509765625 135.30938720703125 195.72007751464844" stroke-width="2.0" fill="none" stroke="rgb(232, 84, 198)" stroke-opacity="0.10144364" stroke-linecap="round" stroke-linejoin="round"/>
    <path d="M 150.1585235595703 151.91409301757812 C 146.86631774902344 150.97927856445312 143.5757293701172 150.03720092773438 142.1981658935547 152.4733123779297 C 141.4261016845703 154.30970764160156 143.15573120117188 158.9197540283203 144.89215087890625 163.5286102294922 C 147.20741271972656 167.54501342773438 146.03602600097656 166.8257598876953 144.26779174804688 166.11680603027344" stroke-width="2.0" fill="none" stroke="rgb(254, 122, 78)" stroke-opacity="0.37070018" stroke-linecap="round" stroke-linejoin="round"/>
    <path d="M 118.19801330566406 108.4018783569336 C 118.58515167236328 110.76930236816406 118.9725112915039 112.5354232788086 119.09508514404297 107.91239166259766 C 119.20020294189453 103.8923568725586 119.62774658203125 94.08650970458984 119.45740509033203 84.28352355957031 C 119.29808807373047 74.47867584228516 114.30989074707031 68.60783386230469 110.52096557617188 61.53548812866211" stroke-width="2.573209524154663" fill="none" stroke="rgb(194, 51, 90)" stroke-opacity="0.38812852" stroke-linecap="round" stroke-linejoin="round"/>
    <path d="M 179.82815551757812 22.20940399169922 C 184.85104370117188 20.37502670288086 190.46621704101562 18.5418643951416 187.76101684570312 16.384809494018555 C 185.03506469726562 13.631874084472656 173.9897003173828 9.977150917053223 162.94189453125 5.7259111404418945 C 151.90145874023438 2.0570476055145264 168.45343017578125 10.927968978881836 183.81488037109375 20.382925033569336" stroke-width="2.0" fill="none" stroke="rgb(147, 143, 254)" stroke-opacity="0.76561403" stroke-linecap="round" stroke-linejoin="round"/>
    <path d="M 163.06849670410156 150.12417602539062 C 170.22317504882812 158.79237365722656 177.3809814453125 167.45640563964844 179.75047302246094 164.0810546875 C 182.71987915039062 160.701904296875 182.1128692626953 145.27896118164062 180.298828125 129.8547821044922 C 179.0786895751953 114.43121337890625 172.61846923828125 123.62386322021484 166.76698303222656 133.42063903808594" stroke-width="2.0" fill="none" stroke="rgb(112, 56, 194)" stroke-opacity="0.009369753" stroke-linecap="round" stroke-linejoin="round"/>
    <path d="M 223.7823486328125 189.6686553955078 C 220.0718536376953 186.7850799560547 215.76747131347656 184.49293518066406 212.0653076171875 181.60015869140625 C 208.34832763671875 178.12872314453125 212.65061950683594 168.54022216796875 217.5506134033203 158.3311767578125" stroke-width="2.0" fill="none" stroke="rgb(80, 46, 219)" stroke-opacity="0.2924633" stroke-linecap="round" stroke-linejoin="round"/>
    <path d="M 174.2093048095703 197.27418518066406 C 170.18153381347656 198.22496032714844 165.55892944335938 198.58343505859375 161.5360870361328 199.547119140625 C 158.10922241210938 200.4829559326172 161.92611694335938 200.3487091064453 165.1467742919922 200.7982635498047" stroke-width="2.0" fill="none" stroke="rgb(57, 41, 138)" stroke-opacity="0.69503045" stroke-linecap="round" stroke-linejoin="round"/>
    <path d="M 166.5457000732422 157.36830139160156 C 164.4727325439453 177.24070739746094 166.78932189941406 186.23556518554688 168.22959899902344 199.73870849609375" stroke-width="2.4348366260528564" fill="none" stroke="rgb(21, 33, 34)" stroke-opacity="0.31044927" stroke-linecap="round" stroke-linejoin="round"/>
    <path d="M 82.13995361328125 136.9295654296875 C 78.43750762939453 106.02235412597656 83.3753890991211 105.96595764160156 77.38259887695312 106.56423950195312" stroke-width="2.0" fill="none" stroke="rgb(145, 170, 148)" stroke-opacity="0.6943658" stroke-linecap="round" stroke-linejoin="round"/>
    <path d="M 222.49185180664062 32.51118087768555 C 223.72621154785156 39.0267219543457 224.959716796875 44.941463470458984 226.19546508789062 50.85776901245117 C 227.73406982421875 56.465919494628906 227.2211151123047 60.70175552368164 226.71038818359375 64.93535614013672" stroke-width="2.385913133621216" fill="none" stroke="rgb(104, 93, 234)" stroke-opacity="0.06926199" stroke-linecap="round" stroke-linejoin="round"/>
    <path d="M 213.44564819335938 159.59864807128906 C 208.93089294433594 158.91912841796875 203.2316131591797 158.83218383789062 201.49293518066406 156.58389282226562 C 200.3025360107422 154.3802032470703 201.8897247314453 150.60440063476562 202.9063720703125 146.23976135253906 C 204.4834442138672 142.4523162841797 206.78439331054688 144.32421875 209.0935821533203 145.57473754882812" stroke-width="2.0" fill="none" stroke="rgb(37, 8, 232)" stroke-opacity="0.4846129" stroke-linecap="round" stroke-linejoin="round"/>
    <path d="M 99.31639862060547 217.73471069335938 C 96.52766418457031 217.27207946777344 88.60902404785156 210.75152587890625 84.31829071044922 206.10508728027344" stroke-width="2.0" fill="none" stroke="rgb(190, 194, 74)" stroke-opacity="0.311486" stroke-linecap="round" stroke-linejoin="round"/>
    <path d="M 172.43519592285156 65.82442474365234 C 176.06480407714844 67.92539978027344 179.69126892089844 70.02667236328125 182.71786499023438 72.1287841796875 C 186.34727478027344 74.84046936035156 183.92552185058594 60.0181884765625 182.1086883544922 45.19070816040039" stroke-width="3.1203246116638184" fill="none" stroke="rgb(157, 233, 115)" stroke-opacity="0.04533351" stroke-linecap="round" stroke-linejoin="round"/>
    <path d="M 35.91740417480469 179.21754455566406 C 35.73871994018555 188.25885009765625 40.824462890625 177.41311645507812 64.07179260253906 179.57626342773438" stroke-width="2.0" fill="none" stroke="rgb(144, 130, 145)" stroke-opacity="0.8519172" stroke-linecap="round" stroke-linejoin="round"/>
    <path d="M 123.67842102050781 134.4827117919922 C 126.64466857910156 134.2707977294922 128.38563537597656 134.0607147216797 129.5233154296875 136.12451171875 C 130.6561737060547 137.5860137939453 130.56324768066406 140.7158966064453 131.0709991455078 143.84231567382812 C 130.97914123535156 146.97238159179688 118.7543716430664 151.16900634765625 105.92710876464844 155.36099243164062" stroke-width="3.087048292160034" fill="none" stroke="rgb(183, 171, 184)" stroke-opacity="0.36248273" stroke-linecap="round" stroke-linejoin="round"/>
    <path d="M 143.94131469726562 190.73219299316406 C 143.67181396484375 190.73974609375 143.953125 191.36920166015625 143.9429473876953 191.68263244628906 C 143.355224609375 191.8929443359375 143.29067993164062 192.7222900390625 143.08860778808594 193.51304626464844 C 142.09463500976562 196.5518341064453 139.71372985839844 198.4610595703125 137.66729736328125 200.6860809326172 C 131.73793029785156 204.37319946289062 124.65863800048828 206.75582885742188 117.64585876464844 206.77284240722656 C 115.5016098022461 206.77572631835938 113.62850189208984 206.35812377929688 111.9400634765625 204.74964904785156 C 110.58300018310547 203.3308868408203 110.53681182861328 201.0738067626953 109.75155639648438 199.3758544921875 C 108.96561431884766 197.55335998535156 107.85357666015625 195.60171508789062 106.98743438720703 193.59527587890625 C 106.74536895751953 191.78497314453125 107.09911346435547 189.86578369140625 107.58014678955078 188.0411376953125 C 107.43104553222656 185.61720275878906 106.85517120361328 183.20944213867188 105.930908203125 180.78163146972656 C 106.22998046875 178.6239776611328 106.17801666259766 176.5022430419922 105.95442199707031 174.3136444091797 C 105.99101257324219 174.12057495117188 105.35469055175781 174.49188232421875 105.19920349121094 174.37074279785156 C 104.18254089355469 173.29440307617188 100.9530258178711 175.7605743408203 99.4024658203125 176.36790466308594 C 95.5380859375 177.28123474121094 92.37065124511719 178.11428833007812 88.43106842041016 177.108642578125 C 85.15729522705078 175.7898406982422 81.39630126953125 171.01901245117188 79.79718780517578 167.8173065185547 C 74.24922943115234 161.19012451171875 68.47425079345703 154.8186492919922 62.924339294433594 148.11111450195312 C 56.48603820800781 142.87806701660156 50.59041213989258 137.0940704345703 44.51911163330078 131.50511169433594 C 43.03439712524414 130.15264892578125 40.49977111816406 129.3313751220703 38.644161224365234 128.67404174804688 C 38.57340621948242 127.85151672363281 37.77762222290039 127.82670593261719 37.24263381958008 127.36286926269531 C 37.03438949584961 127.76691436767578 37.33848571777344 126.76097869873047 37.45153045654297 127.11189270019531 C 38.725257873535156 124.43017578125 40.26838302612305 121.82164764404297 41.160125732421875 118.66661834716797" stroke-width="2.0" fill="none" stroke="rgb(25, 22, 25)" stroke-opacity="1.0" stroke-linecap="round" stroke-linejoin="round"/>
    <path d="M 46.714229583740234 62.22104263305664 C 47.80498504638672 61.63349151611328 48.47767639160156 60.29814910888672 49.822792053222656 60.23628234863281 C 50.7264518737793 59.45307922363281 51.80879592895508 58.882171630859375 52.62868118286133 58.01124572753906 C 54.234004974365234 56.436851501464844 55.673004150390625 54.69905471801758 56.667327880859375 52.51261520385742 C 57.35011672973633 51.83331298828125 58.12411880493164 51.24305725097656 59.36304473876953 51.1215934753418 C 63.38858413696289 46.58015441894531 67.2343978881836 41.881553649902344 70.73399353027344 36.808353424072266 C 71.26472473144531 36.18425750732422 72.02256774902344 35.79753494262695 72.60914611816406 35.22563552856445 C 73.17889404296875 34.63959503173828 74.27223205566406 34.57740020751953 74.77620697021484 33.3293571472168 C 75.1156997680664 33.488853454589844 76.03817749023438 32.365394592285156 74.80390167236328 31.726045608520508 C 73.5346450805664 30.459074020385742 70.9121322631836 30.605480194091797 69.84903717041016 30.670452117919922 C 67.42870330810547 30.757762908935547 65.64982604980469 30.044431686401367 64.4915542602539 30.95171356201172 C 60.312435150146484 31.815818786621094 55.02720260620117 33.756622314453125 51.28455352783203 35.901458740234375 C 48.602081298828125 36.54048538208008 46.583770751953125 37.954620361328125 45.15350341796875 39.946773529052734 C 45.689456939697266 40.59762954711914 44.56264877319336 42.379764556884766 44.300662994384766 43.041255950927734 C 45.43865966796875 45.304649353027344 50.011314392089844 46.299560546875 52.13321304321289 46.119873046875 C 55.613765716552734 47.62643814086914 57.35538101196289 47.30771255493164 61.07054901123047 46.76714324951172 C 64.248291015625 47.33606719970703 67.43147277832031 47.48867416381836 70.61112976074219 46.79161834716797 C 79.37908172607422 46.35909652709961 88.17215728759766 44.854530334472656 97.40979766845703 43.9560432434082 C 103.18110656738281 43.001102447509766 108.92304229736328 42.02032470703125 114.52140045166016 39.61667251586914 C 116.19390869140625 39.666534423828125 117.8676986694336 39.063114166259766 119.5290756225586 38.423274993896484 C 120.33744812011719 38.129398345947266 120.82701873779297 38.03780746459961 121.23988342285156 36.68348693847656 C 122.11920166015625 36.85457229614258 121.26821899414062 36.242366790771484 121.52741241455078 35.208980560302734 C 121.69751739501953 35.56381607055664 123.6326904296875 34.557865142822266 124.03982543945312 33.84634780883789 C 127.16354370117188 32.89164733886719 131.316650390625 33.978736877441406 135.0766143798828 34.42690658569336 C 138.6306610107422 34.88597106933594 142.20712280273438 35.17258071899414 145.78553771972656 35.49726104736328" stroke-width="2.0" fill="none" stroke="rgb(25, 22, 25)" stroke-opacity="1.0" stroke-linecap="round" stroke-linejoin="round"/>
    <path d="M 55.44927215576172 29.38422203063965 C 60.32786178588867 29.35407066345215 57.4367561340332 38.94071960449219 58.587799072265625 44.313621520996094 C 59.55891036987305 50.81050109863281 61.35966873168945 57.252166748046875 63.72483444213867 63.100730895996094 C 64.8458023071289 67.16278076171875 65.69734191894531 71.31596374511719 66.59481811523438 75.85303497314453 C 68.04098510742188 79.70853424072266 70.91706085205078 80.8215103149414 75.4751968383789 80.68190002441406 C 77.63430786132812 80.27901458740234 79.05197143554688 78.77298736572266 81.1685791015625 78.21186828613281 C 81.36473846435547 78.13964080810547 81.8870620727539 78.01113891601562 82.39510345458984 78.19368743896484 C 81.4881362915039 78.7574691772461 80.69847869873047 78.97348022460938 80.43770599365234 79.55891418457031 C 79.52342987060547 81.53104400634766 78.8853759765625 83.63214874267578 78.33939361572266 85.74158477783203 C 78.810791015625 86.21229553222656 79.02323150634766 86.70380401611328 78.44696807861328 87.80827331542969 C 78.45520782470703 88.1583023071289 78.7591552734375 88.71537017822266 78.43927001953125 88.8548583984375 C 69.724609375 92.42391967773438 68.22259521484375 90.75629425048828 56.712989807128906 89.11212921142578 C 53.089149475097656 89.25004577636719 50.11677932739258 88.50333404541016 47.09891128540039 88.01551818847656 C 47.32285690307617 87.35307312011719 46.61726379394531 87.63729095458984 45.958351135253906 88.01512908935547 C 45.72281265258789 89.3641357421875 46.06459045410156 90.77101135253906 46.36796951293945 92.10655975341797 C 48.010189056396484 95.98590087890625 48.89200210571289 100.55193328857422 50.04283142089844 105.41264343261719 C 51.82987594604492 109.86778259277344 54.509613037109375 113.90886688232422 56.85660934448242 118.09573364257812 C 58.173240661621094 118.79393768310547 60.38396072387695 123.5478744506836 62.683589935302734 124.31281280517578" stroke-width="2.0" fill="none" stroke="rgb(25, 25, 22)" stroke-opacity="0.9989275" stroke-linecap="round" stroke-linejoin="round"/>
    <path d="M 108.53893280029297 189.531494140625 C 113.09150695800781 188.70260620117188 119.41620635986328 191.66961669921875 116.11785888671875 192.088623046875 C 121.02821350097656 197.3183135986328 122.0003890991211 201.31178283691406 112.38702392578125 198.93992614746094" stroke-width="2.0" fill="none" stroke="rgb(219, 238, 19)" stroke-opacity="0.46474534" stroke-linecap="round" stroke-linejoin="round"/>
    <path d="M 136.1134796142578 31.494388580322266 C 136.25717163085938 20.925600051879883 139.1473846435547 24.02268409729004 134.55821228027344 26.34685707092285 C 131.6540985107422 25.806018829345703 124.82878875732422 25.209728240966797 127.242919921875 23.07235336303711 C 130.76702880859375 28.79490852355957 141.8376922607422 16.61863899230957 147.88206481933594 8.878425598144531" stroke-width="2.0" fill="none" stroke="rgb(202, 114, 32)" stroke-opacity="0.12240274" stroke-linecap="round" stroke-linejoin="round"/>
    <path d="M 83.50033569335938 205.432373046875 C 91.25413513183594 205.79286193847656 93.84010314941406 203.09234619140625 101.6278305053711 197.14064025878906" stroke-width="2.0" fill="none" stroke="rgb(71, 106, 78)" stroke-opacity="0.6419662" stroke-linecap="round" stroke-linejoin="round"/>
    <path d="M 149.60890197753906 168.74319458007812 C 146.4933624267578 173.2822723388672 135.68919372558594 168.1376190185547 130.95687866210938 163.11375427246094" stroke-width="2.0" fill="none" stroke="rgb(95, 191, 211)" stroke-opacity="0.0" stroke-linecap="round" stroke-linejoin="round"/>
    <path d="M 110.78314208984375 63.30588150024414 C 109.89754486083984 73.11744689941406 119.73393249511719 63.72806930541992 113.92176818847656 56.13806915283203" stroke-width="2.0" fill="none" stroke="rgb(17, 223, 225)" stroke-opacity="0.66579586" stroke-linecap="round" stroke-linejoin="round"/>
    <path d="M 116.62150573730469 136.65383911132812 C 122.16204071044922 138.0686798095703 116.19788360595703 133.3673858642578 112.00050354003906 139.28842163085938" stroke-width="2.2137062549591064" fill="none" stroke="rgb(216, 223, 133)" stroke-opacity="0.875884" stroke-linecap="round" stroke-linejoin="round"/>
    <path d="M 113.46553039550781 137.9868621826172 C 111.204345703125 132.87110900878906 115.6564712524414 141.5953826904297 126.89351654052734 150.8104705810547 C 135.2206573486328 153.1403350830078 131.01222229003906 156.1209716796875 121.75856018066406 145.37713623046875 C 131.2190399169922 137.068603515625 134.1312713623047 131.9794921875 136.647705078125 132.90103149414062" stroke-width="2.0" fill="none" stroke="rgb(151, 47, 61)" stroke-opacity="0.3489905" stroke-linecap="round" stroke-linejoin="round"/>
    <path d="M 113.91104888916016 199.5277099609375 C 105.11131286621094 207.09962463378906 113.88761138916016 212.25430297851562 123.03591918945312 206.7264404296875" stroke-width="2.0427379608154297" fill="none" stroke="rgb(13, 23, 227)" stroke-opacity="0.5842276" stroke-linecap="round" stroke-linejoin="round"/>
    <path d="M 145.2377166748047 8.795204162597656 C 135.9964599609375 14.382743835449219 142.9202117919922 6.059781551361084 146.29502868652344 4.959778785705566 C 150.77296447753906 4.880196571350098 148.70260620117188 1.0155218839645386 155.03233337402344 -10.726035118103027 C 162.57830810546875 -18.07274055480957 154.33596801757812 -26.951889038085938 150.3336639404297 -19.47422981262207" stroke-width="2.0" fill="none" stroke="rgb(217, 247, 43)" stroke-opacity="0.61056525" stroke-linecap="round" stroke-linejoin="round"/>
    <path d="M 113.6751937866211 56.16011047363281 C 113.37080383300781 48.48072052001953 112.24765014648438 48.10337829589844 107.21773529052734 55.660709381103516 C 109.79745483398438 48.99073791503906 104.93958282470703 45.72549819946289 99.22152709960938 52.754337310791016 C 103.91185760498047 51.10185241699219 111.97807312011719 61.37962341308594 109.89849090576172 58.5894660949707" stroke-width="2.1560451984405518" fill="none" stroke="rgb(218, 217, 106)" stroke-opacity="0.54584587" stroke-linecap="round" stroke-linejoin="round"/>
    <path d="M 112.55653381347656 55.30336380004883 C 104.190185546875 58.197479248046875 101.6965103149414 62.10135269165039 93.96701049804688 57.720481872558594" stroke-width="2.003272294998169" fill="none" stroke="rgb(48, 248, 229)" stroke-opacity="0.3707989" stroke-linecap="round" stroke-linejoin="round"/>
    <path d="M 112.36585235595703 56.21877670288086 C 120.32918548583984 65.35263061523438 121.91948699951172 55.43680953979492 110.28852844238281 57.75887680053711 C 119.01226043701172 61.86447525024414 120.38369750976562 55.92939376831055 122.56861877441406 44.52162551879883" stroke-width="2.5686731338500977" fill="none" stroke="rgb(255, 30, 120)" stroke-opacity="0.20210561" stroke-linecap="round" stroke-linejoin="round"/>
    <path d="M 180.65756225585938 103.11972045898438 C 176.13453674316406 98.53433227539062 179.601806640625 95.68093872070312 190.9706268310547 99.30007934570312 C 180.20204162597656 97.19818878173828 187.98207092285156 89.9524917602539 187.7161102294922 91.64349365234375" stroke-width="2.0" fill="none" stroke="rgb(156, 131, 211)" stroke-opacity="0.5106835" stroke-linecap="round" stroke-linejoin="round"/>
    <path d="M 66.7930908203125 37.182926177978516 C 61.92496109008789 38.315608978271484 49.631526947021484 35.86526870727539 45.08699417114258 40.08305358886719 C 42.15635299682617 41.40979766845703 38.42905044555664 45.76799774169922 48.09081268310547 54.268985748291016 C 48.505638122558594 51.908756256103516 41.775062561035156 49.78502655029297 35.15361022949219 43.86387252807617" stroke-width="2.0" fill="none" stroke="rgb(107, 13, 226)" stroke-opacity="0.4229351" stroke-linecap="round" stroke-linejoin="round"/>
    <path d="M 105.63741302490234 68.71592712402344 C 99.51443481445312 62.052154541015625 97.84275817871094 72.46090698242188 95.88948822021484 80.04698944091797 C 97.62203216552734 81.9866943359375 98.0631332397461 88.5954360961914 101.5295181274414 91.3409423828125" stroke-width="2.077998638153076" fill="none" stroke="rgb(32, 67, 250)" stroke-opacity="0.97488135" stroke-linecap="round" stroke-linejoin="round"/>
    <path d="M 23.789731979370117 76.37998962402344 C 22.611433029174805 86.58798217773438 31.393386840820312 97.3919677734375 39.95817184448242 99.39842987060547" stroke-width="2.0" fill="none" stroke="rgb(165, 107, 193)" stroke-opacity="0.4265365" stroke-linecap="round" stroke-linejoin="round"/>
    <path d="M 187.34982299804688 172.6488494873047 C 192.97720336914062 173.50502014160156 198.8834228515625 180.96751403808594 204.4722137451172 185.68661499023438 C 199.92100524902344 180.400634765625 198.99993896484375 170.606201171875 192.6071319580078 169.45767211914062 C 188.36163330078125 156.94992065429688 196.10003662109375 150.09620666503906 192.99325561523438 139.44607543945312" stroke-width="2.0" fill="none" stroke="rgb(81, 84, 174)" stroke-opacity="0.92954355" stroke-linecap="round" stroke-linejoin="round"/>
    <path d="M 129.3289337158203 218.5957489013672 C 121.54114532470703 217.520751953125 121.45525360107422 216.52467346191406 129.94248962402344 208.30772399902344 C 123.46540832519531 209.09884643554688 132.811767578125 196.24574279785156 128.4311065673828 185.82518005371094" stroke-width="2.5241074562072754" fill="none" stroke="rgb(165, 165, 98)" stroke-opacity="0.8710898" stroke-linecap="round" stroke-linejoin="round"/>
    <path d="M 120.56453704833984 148.59616088867188 C 116.92189025878906 142.62843322753906 125.1112060546875 137.34661865234375 128.95816040039062 145.7459716796875 C 136.75840759277344 155.08006286621094 138.66526794433594 153.62635803222656 140.6500701904297 154.7943572998047" stroke-width="2.0" fill="none" stroke="rgb(167, 164, 221)" stroke-opacity="0.20146601" stroke-linecap="round" stroke-linejoin="round"/>
    <path d="M 103.2768325805664 100.1562728881836 C 104.84115600585938 108.53797149658203 96.84557342529297 107.87541961669922 104.58385467529297 104.79408264160156 C 103.18130493164062 103.16319274902344 113.92151641845703 109.49959564208984 114.57628631591797 116.49951934814453" stroke-width="2.0" fill="none" stroke="rgb(51, 191, 56)" stroke-opacity="0.24590322" stroke-linecap="round" stroke-linejoin="round"/>
    <path d="M 6.831749439239502 34.49256896972656 C 2.668571710586548 37.80488204956055 6.82684326171875 31.02158546447754 12.52000617980957 36.71519470214844 C 18.219091415405273 29.413787841796875 25.944799423217773 38.29102325439453 30.32261848449707 39.51503372192383" stroke-width="2.0" fill="none" stroke="rgb(112, 82, 249)" stroke-opacity="0.77483016" stroke-linecap="round" stroke-linejoin="round"/>
    <path d="M 112.14502716064453 145.8820037841797 C 102.61312866210938 154.45985412597656 111.69000244140625 154.60865783691406 112.19296264648438 144.23907470703125" stroke-width="2.1318306922912598" fill="none" stroke="rgb(187, 202, 22)" stroke-opacity="0.87169504" stroke-linecap="round" stroke-linejoin="round"/>
    <path d="M 137.67477416992188 149.14735412597656 C 135.99534606933594 153.7516326904297 133.4586181640625 145.96234130859375 131.48312377929688 153.40855407714844 C 139.6212158203125 158.4790496826172 142.3579864501953 154.8419952392578 135.82286071777344 152.39752197265625 C 142.8486785888672 147.80821228027344 140.67063903808594 143.7641143798828 130.7659149169922 136.111083984375" stroke-width="2.0" fill="none" stroke="rgb(48, 247, 204)" stroke-opacity="0.105500415" stroke-linecap="round" stroke-linejoin="round"/>
    <path d="M 208.42269897460938 200.6177520751953 C 218.2784423828125 202.96286010742188 218.39048767089844 197.1317138671875 213.8763885498047 187.83641052246094 C 204.70352172851562 192.4114990234375 197.20567321777344 188.98013305664062 195.6763153076172 191.78565979003906 C 191.6659698486328 191.77529907226562 194.4435272216797 190.43374633789062 199.53005981445312 198.09854125976562" stroke-width="2.0" fill="none" stroke="rgb(16, 32, 177)" stroke-opacity="0.46071595" stroke-linecap="round" stroke-linejoin="round"/>
    <path d="M 42.43419647216797 87.05542755126953 C 39.299442291259766 85.06259155273438 48.1872673034668 84.20545959472656 38.98015594482422 87.89949035644531 C 35.078025817871094 78.9684829711914 28.331295013427734 79.9290542602539 20.258543014526367 82.86261749267578 C 18.876079559326172 77.77310180664062 16.091773986816406 87.35877227783203 13.365592956542969 79.84888458251953" stroke-width="2.0" fill="none" stroke="rgb(116, 28, 14)" stroke-opacity="0.10743515" stroke-linecap="round" stroke-linejoin="round"/>
  </g>
</svg>
