<?xml version="1.0" ?>
<svg xmlns="http://www.w3.org/2000/svg" version="1.1" width="1350.0" height="1350.0">
  <defs/>
  <g>
    <path d="M 492.2082824707031 537.7025146484375 C 497.97119140625 534.0444946289062 486.9248352050781 527.6560668945312 485.1197204589844 524.9396362304688 C 491.7974853515625 491.2348327636719 492.0362854003906 474.66241455078125 492.26007080078125 452.911376953125 C 489.6443176269531 450.3218688964844 487.03167724609375 445.49053955078125 489.8270263671875 451.62445068359375 C 493.0423889160156 447.52923583984375 499.20477294921875 447.24078369140625 501.24005126953125 443.8337097167969 C 509.8531188964844 441.1086120605469 521.0101928710938 440.503173828125 542.4373168945312 442.39544677734375 C 564.753662109375 439.4693603515625 583.9774169921875 432.9408874511719 584.4756469726562 445.4596862792969 C 623.6963500976562 464.42333984375 681.3348388671875 500.7010192871094 695.0079956054688 534.217041015625 C 688.3782958984375 581.5789794921875 654.0025024414062 590.29541015625 622.642578125 601.4863891601562 C 606.4154052734375 609.1390991210938 572.1550903320312 608.1202392578125 552.8521728515625 607.0303344726562 C 540.3980712890625 595.0804443359375 520.8104858398438 596.8359985351562 512.54150390625 596.4839477539062 C 509.6281433105469 592.9231567382812 502.7013244628906 592.57080078125 501.35076904296875 591.8051147460938 C 543.0005493164062 604.3772583007812 570.2783813476562 617.7218627929688 599.17919921875 647.4426879882812 C 625.8709106445312 659.9852905273438 646.0408325195312 680.345947265625 651.0515747070312 716.0089721679688 C 666.615478515625 728.1527709960938 677.02880859375 744.651611328125 688.9369506835938 758.0745849609375 C 718.9559326171875 767.9127197265625 734.6663818359375 792.7996215820312 742.641845703125 820.269775390625 C 744.6932983398438 820.918212890625 743.76025390625 840.2520141601562 743.3401489257812 847.7628784179688 C 742.1439819335938 854.570556640625 743.3453369140625 863.3069458007812 742.080322265625 863.8866577148438 C 743.1116943359375 864.1572265625 746.1143798828125 857.9044799804688 746.6240844726562 846.4954223632812" stroke-width="13.684167861938477" fill="none" stroke="rgb(22, 16, 19)" stroke-opacity="1.0" stroke-linecap="round" stroke-linejoin="round"/>
    <path d="M 744.249267578125 681.2415771484375 C 747.312744140625 688.9029541015625 751.2748413085938 687.604248046875 755.5843505859375 689.5853881835938 C 785.6212158203125 680.4097290039062 816.2210693359375 679.7415161132812 829.3951416015625 675.8152465820312 C 849.08984375 673.3274536132812 881.4876708984375 669.5479125976562 903.8790893554688 672.1631469726562 C 925.4404907226562 679.11767578125 936.0053100585938 707.4668579101562 941.502685546875 739.7117919921875 C 950.9815063476562 747.1578369140625 950.6542358398438 756.00830078125 951.1882934570312 762.1030883789062 C 950.1386108398438 758.9623413085938 952.8123779296875 772.2263793945312 949.508544921875 782.3118896484375 C 950.2435913085938 776.5057983398438 950.2938232421875 782.7005004882812 943.0914916992188 783.6557006835938 C 937.2013549804688 796.7392578125 908.4742431640625 839.694091796875 905.0548706054688 840.0361938476562 C 858.5521240234375 872.0933837890625 803.4207153320312 901.9938354492188 746.8796997070312 909.9869995117188 C 721.2659912109375 916.621826171875 715.9274291992188 920.1742553710938 691.7731323242188 920.6956787109375 C 667.143798828125 910.230224609375 644.007568359375 917.9982299804688 639.2499389648438 892.7142333984375 C 633.443359375 881.3004760742188 644.4476928710938 884.57373046875 636.50244140625 887.78955078125" stroke-width="12.90787410736084" fill="none" stroke="rgb(254, 7, 7)" stroke-opacity="1.0" stroke-linecap="round" stroke-linejoin="round"/>
    <path d="M 172.5419464111328 920.0126342773438 C 164.39491271972656 918.8530883789062 166.68736267089844 926.3231201171875 174.10574340820312 918.8890380859375 C 172.28677368164062 911.5789794921875 171.44456481933594 921.0927124023438 172.60208129882812 915.5720825195312 C 171.99072265625 908.5693359375 177.4153594970703 902.6624755859375 177.58709716796875 881.1709594726562 C 185.56747436523438 862.71875 200.0843505859375 840.9960327148438 221.20201110839844 807.2484130859375 C 247.18992614746094 778.2771606445312 279.1351013183594 736.6458129882812 316.1427307128906 680.1654052734375 C 352.3387451171875 622.4672241210938 418.1949462890625 574.0562744140625 435.5204772949219 537.419189453125 C 449.0265808105469 495.7383117675781 447.335693359375 497.15557861328125 454.2702331542969 492.5274963378906 C 475.0774230957031 495.8544616699219 488.7591857910156 480.19012451171875 494.40240478515625 461.35662841796875 C 507.9445495605469 456.5018615722656 515.7781372070312 451.78387451171875 507.8087158203125 439.927978515625 C 521.131103515625 445.4874572753906 525.1732177734375 444.531982421875 529.5283813476562 446.77197265625 C 526.0469970703125 447.6672668457031 516.1011962890625 452.58660888671875 505.0434265136719 459.4237365722656 C 487.5732116699219 458.94482421875 471.80572509765625 463.1501770019531 452.9703674316406 473.492919921875 C 427.97821044921875 480.03662109375 396.85040283203125 490.5274658203125 356.36773681640625 486.910400390625 C 322.853759765625 491.89190673828125 288.565185546875 492.0153503417969 258.92694091796875 507.5056457519531 C 224.31129455566406 498.20220947265625 186.93614196777344 497.5419006347656 160.84027099609375 496.3254089355469 C 122.18402099609375 508.7626037597656 111.62928771972656 502.3174133300781 99.30073547363281 491.94232177734375 C 85.46436309814453 483.6546325683594 80.63037109375 459.23095703125 70.31250762939453 455.0849304199219 C 46.37960433959961 460.6639404296875 44.84282302856445 457.541259765625 39.7793083190918 455.9920654296875 C 44.43087387084961 443.7241516113281 40.80978775024414 436.45208740234375 42.543209075927734 436.99066162109375 C 42.192413330078125 443.105224609375 45.68938446044922 446.0643310546875 44.85301971435547 447.79852294921875 C 49.98843002319336 442.0322265625 46.62864685058594 440.19195556640625 46.15766143798828 460.7820129394531 C 59.563262939453125 467.503662109375 91.61680603027344 481.3150939941406 122.9272689819336 493.5635681152344 C 165.5713653564453 494.8121643066406 191.2218780517578 512.08349609375 220.422119140625 537.5477905273438 C 257.9033508300781 554.5625 298.3421325683594 580.7431030273438 334.1890869140625 596.3224487304688 C 367.490966796875 613.4964599609375 385.5702209472656 630.6134643554688 402.78436279296875 643.2115478515625 C 419.330810546875 656.311279296875 432.3936462402344 667.1011962890625 443.6776123046875 678.310791015625 C 451.7630310058594 692.4046020507812 459.5380554199219 706.0979614257812 466.19915771484375 712.4570922851562 C 464.264892578125 727.810791015625 465.71783447265625 730.848876953125 477.0898132324219 725.7542724609375 C 466.082763671875 738.9171752929688 466.5948486328125 738.7769165039062 467.6083984375 741.9054565429688" stroke-width="36.11773681640625" fill="none" stroke="rgb(255, 20, 5)" stroke-opacity="0.97432536" stroke-linecap="round" stroke-linejoin="round"/>
    <path d="M 477.02581787109375 456.6468811035156 C 452.9770812988281 505.1277160644531 486.042236328125 452.72412109375 414.4547424316406 501.74224853515625 C 361.71160888671875 469.55108642578125 312.82611083984375 471.87750244140625 337.5614929199219 425.5682373046875" stroke-width="12.053571701049805" fill="none" stroke="rgb(146, 7, 155)" stroke-opacity="0.036795925" stroke-linecap="round" stroke-linejoin="round"/>
    <path d="M 46.38313293457031 454.7803039550781 C 104.34435272216797 426.8183898925781 145.65740966796875 399.9037170410156 208.6639404296875 335.9596252441406 C 249.8111114501953 293.46722412109375 195.05142211914062 283.7567443847656 241.17916870117188 343.6505126953125 C 289.63873291015625 378.6935119628906 353.8538513183594 402.7091064453125 301.2270202636719 425.79339599609375" stroke-width="15.314562797546387" fill="none" stroke="rgb(166, 136, 217)" stroke-opacity="0.38510442" stroke-linecap="round" stroke-linejoin="round"/>
    <path d="M 162.36495971679688 902.7620849609375 C 181.44195556640625 856.8049926757812 182.1835174560547 878.3422241210938 124.37358856201172 818.88623046875 C 188.76922607421875 770.3009033203125 132.50657653808594 815.1106567382812 63.32386016845703 817.9417724609375" stroke-width="12.053571701049805" fill="none" stroke="rgb(233, 7, 214)" stroke-opacity="0.2169913" stroke-linecap="round" stroke-linejoin="round"/>
    <path d="M 367.6307373046875 485.54107666015625 C 404.6242980957031 467.1213073730469 432.9003601074219 421.5960998535156 427.28662109375 458.8948669433594 C 392.0605163574219 483.14398193359375 405.0252380371094 536.6165771484375 338.98809814453125 542.1229248046875 C 277.0875549316406 551.9305419921875 211.60023498535156 510.8764953613281 209.71328735351562 571.5093994140625" stroke-width="13.887187004089355" fill="none" stroke="rgb(34, 65, 66)" stroke-opacity="0.6370602" stroke-linecap="round" stroke-linejoin="round"/>
    <path d="M 227.35789489746094 536.5025024414062 C 279.2781066894531 540.07666015625 198.17373657226562 487.8345642089844 239.7134246826172 551.927490234375 C 311.06207275390625 578.182861328125 327.6348876953125 524.517822265625 352.7406921386719 494.6233825683594" stroke-width="15.207366943359375" fill="none" stroke="rgb(159, 224, 198)" stroke-opacity="0.44626373" stroke-linecap="round" stroke-linejoin="round"/>
    <path d="M 49.755123138427734 446.6208190917969 C 26.330791473388672 415.5052490234375 88.94792938232422 392.5975341796875 74.56973266601562 388.8089904785156 C 42.61605453491211 439.2118225097656 42.75420379638672 486.1730041503906 17.212509155273438 545.2232055664062 C 51.0333251953125 568.1156616210938 91.26481628417969 508.24163818359375 133.4971160888672 469.04632568359375" stroke-width="12.053571701049805" fill="none" stroke="rgb(25, 106, 168)" stroke-opacity="0.58229136" stroke-linecap="round" stroke-linejoin="round"/>
    <path d="M 110.67559814453125 492.2140197753906 C 99.0938491821289 530.55810546875 149.7630157470703 516.3518676757812 138.255859375 467.34375" stroke-width="13.289278030395508" fill="none" stroke="rgb(169, 123, 76)" stroke-opacity="0.37023115" stroke-linecap="round" stroke-linejoin="round"/>
    <path d="M 693.4520263671875 534.3463134765625 C 735.3213500976562 547.7531127929688 787.8651733398438 502.86492919921875 849.4832763671875 485.3375549316406" stroke-width="12.2659912109375" fill="none" stroke="rgb(73, 221, 66)" stroke-opacity="0.15329713" stroke-linecap="round" stroke-linejoin="round"/>
    <path d="M 334.243896484375 425.7259521484375 C 301.8227844238281 372.9797668457031 307.51068115234375 343.35308837890625 265.5270690917969 348.1501159667969 C 229.4236297607422 364.0099792480469 191.96917724609375 354.49578857421875 198.2637176513672 322.324462890625" stroke-width="12.053571701049805" fill="none" stroke="rgb(23, 218, 238)" stroke-opacity="0.07800454" stroke-linecap="round" stroke-linejoin="round"/>
    <path d="M 334.89569091796875 425.87786865234375 C 282.0682067871094 468.4844970703125 351.4747619628906 517.3235473632812 326.78265380859375 503.80084228515625 C 300.0352783203125 550.5133056640625 360.94195556640625 541.3098754882812 393.8582763671875 521.310302734375" stroke-width="12.053571701049805" fill="none" stroke="rgb(121, 118, 44)" stroke-opacity="0.5683733" stroke-linecap="round" stroke-linejoin="round"/>
    <path d="M 64.51404571533203 820.7354736328125 C 0.8269215226173401 779.9134521484375 -39.6826057434082 714.5982666015625 -16.317113876342773 721.6969604492188" stroke-width="12.053571701049805" fill="none" stroke="rgb(15, 92, 33)" stroke-opacity="0.48769385" stroke-linecap="round" stroke-linejoin="round"/>
    <path d="M 63.75800323486328 820.7218627929688 C 82.58942413330078 802.1724853515625 118.49251556396484 737.6265869140625 147.93597412109375 699.3873291015625 C 222.49771118164062 664.5014038085938 228.67213439941406 640.8619384765625 218.53895568847656 599.0801391601562" stroke-width="15.354101181030273" fill="none" stroke="rgb(238, 204, 137)" stroke-opacity="0.56349677" stroke-linecap="round" stroke-linejoin="round"/>
    <path d="M 334.4150390625 425.4718017578125 C 308.398193359375 438.0654602050781 337.59393310546875 474.9264831542969 317.36761474609375 515.2933959960938" stroke-width="12.053571701049805" fill="none" stroke="rgb(241, 224, 125)" stroke-opacity="0.74215496" stroke-linecap="round" stroke-linejoin="round"/>
    <path d="M 211.9492950439453 570.440673828125 C 230.36065673828125 579.3751831054688 221.43466186523438 536.0302734375 258.6022644042969 593.1466674804688 C 306.78118896484375 582.7794799804688 266.7489929199219 645.2598876953125 276.23046875 667.7032470703125" stroke-width="12.053571701049805" fill="none" stroke="rgb(45, 177, 40)" stroke-opacity="0.49622214" stroke-linecap="round" stroke-linejoin="round"/>
    <path d="M 339.5897521972656 495.2100830078125 C 297.3008728027344 464.693359375 331.2445983886719 462.19775390625 374.52203369140625 430.05902099609375 C 344.37152099609375 381.78863525390625 395.6214599609375 350.02288818359375 407.67901611328125 379.0832824707031" stroke-width="12.246498107910156" fill="none" stroke="rgb(47, 122, 165)" stroke-opacity="0.07919939" stroke-linecap="round" stroke-linejoin="round"/>
    <path d="M 301.24908447265625 419.8304443359375 C 362.10369873046875 463.3731689453125 286.36065673828125 441.4732971191406 261.5931701660156 421.4736022949219 C 238.98202514648438 348.9420471191406 166.5352020263672 373.55047607421875 173.79566955566406 417.48565673828125" stroke-width="14.767523765563965" fill="none" stroke="rgb(125, 0, 118)" stroke-opacity="0.21618032" stroke-linecap="round" stroke-linejoin="round"/>
    <path d="M 371.4690246582031 1231.4691162109375 C 385.3841857910156 1186.6688232421875 387.82550048828125 1138.547607421875 330.3399658203125 1198.4892578125 C 277.1607666015625 1208.2000732421875 215.8385772705078 1254.34619140625 198.1424102783203 1284.1708984375 C 195.00015258789062 1340.9246826171875 137.5274658203125 1387.314697265625 122.91184997558594 1317.0048828125" stroke-width="12.56617546081543" fill="none" stroke="rgb(35, 122, 123)" stroke-opacity="0.14289501" stroke-linecap="round" stroke-linejoin="round"/>
    <path d="M 570.9391479492188 633.6021118164062 C 513.4872436523438 596.055419921875 504.5621643066406 549.9982299804688 498.3805236816406 557.4868774414062 C 556.0172729492188 604.3500366210938 586.4671020507812 642.0458374023438 591.0892944335938 663.4928588867188 C 613.9645385742188 615.1886596679688 540.9874877929688 666.6180419921875 522.4083251953125 602.703857421875" stroke-width="12.053571701049805" fill="none" stroke="rgb(241, 20, 28)" stroke-opacity="0.32039282" stroke-linecap="round" stroke-linejoin="round"/>
    <path d="M 484.6811828613281 266.7064514160156 C 541.3729248046875 194.5850067138672 551.2891845703125 194.16171264648438 594.4207153320312 210.2674102783203 C 578.2761840820312 250.72239685058594 607.6993408203125 277.60833740234375 671.6092529296875 282.9754333496094 C 605.7001953125 286.599609375 662.2507934570312 339.1004943847656 611.2431640625 326.6586608886719" stroke-width="12.23360538482666" fill="none" stroke="rgb(244, 167, 207)" stroke-opacity="0.11332706" stroke-linecap="round" stroke-linejoin="round"/>
    <path d="M 340.9189453125 1025.6680908203125 C 359.0726623535156 969.5673828125 378.115234375 1024.2896728515625 433.2847595214844 1042.6790771484375 C 425.4990234375 1044.6182861328125 416.0106201171875 1042.072998046875 353.9739074707031 1103.6614990234375 C 279.5228576660156 1086.9530029296875 338.1676940917969 1040.8052978515625 320.8431701660156 987.5269165039062" stroke-width="15.581504821777344" fill="none" stroke="rgb(35, 64, 96)" stroke-opacity="0.24933583" stroke-linecap="round" stroke-linejoin="round"/>
    <path d="M 647.8291015625 169.76234436035156 C 635.435791015625 148.90745544433594 640.35986328125 98.1640396118164 603.1749877929688 140.10951232910156 C 528.0362548828125 126.2392349243164 531.63134765625 144.1132049560547 534.2097778320312 117.73936462402344 C 515.6177368164062 120.14901733398438 580.10498046875 155.9090118408203 557.6116943359375 171.2856903076172" stroke-width="15.658990859985352" fill="none" stroke="rgb(221, 30, 202)" stroke-opacity="0.32925016" stroke-linecap="round" stroke-linejoin="round"/>
    <path d="M 233.02035522460938 455.03515625 C 229.86370849609375 519.7115478515625 225.83018493652344 560.2964477539062 161.8459930419922 515.683349609375 C 185.2469482421875 489.3948669433594 126.53440856933594 527.4409790039062 169.55975341796875 520.6718139648438" stroke-width="13.503033638000488" fill="none" stroke="rgb(178, 86, 120)" stroke-opacity="0.049267463" stroke-linecap="round" stroke-linejoin="round"/>
    <path d="M 275.8696594238281 682.391357421875 C 230.82545471191406 624.0450439453125 180.80459594726562 635.2514038085938 215.2484588623047 589.7715454101562 C 215.0236358642578 610.4639282226562 199.18431091308594 574.1948852539062 224.2592010498047 563.8378295898438" stroke-width="12.053571701049805" fill="none" stroke="rgb(255, 83, 59)" stroke-opacity="0.46634358" stroke-linecap="round" stroke-linejoin="round"/>
    <path d="M 917.6602172851562 64.31660461425781 C 975.8796997070312 117.67660522460938 1012.0017700195312 132.8657684326172 986.44091796875 150.04586791992188 C 979.4302368164062 104.38240051269531 994.4256591796875 83.20632934570312 968.7919311523438 113.74188995361328" stroke-width="15.408349990844727" fill="none" stroke="rgb(201, 161, 98)" stroke-opacity="0.4551553" stroke-linecap="round" stroke-linejoin="round"/>
    <path d="M 1270.5843505859375 352.6624450683594 C 1247.9561767578125 353.071533203125 1203.858642578125 299.9893798828125 1233.338623046875 307.32855224609375" stroke-width="12.857193946838379" fill="none" stroke="rgb(172, 199, 83)" stroke-opacity="0.56054133" stroke-linecap="round" stroke-linejoin="round"/>
    <path d="M 518.3909301757812 1086.9100341796875 C 504.18359375 1039.1458740234375 479.503662109375 1076.1558837890625 453.6473693847656 1049.9578857421875 C 413.3214416503906 1045.219970703125 382.7283020019531 1001.7490844726562 390.93438720703125 1067.3814697265625" stroke-width="12.281492233276367" fill="none" stroke="rgb(242, 168, 70)" stroke-opacity="0.6130942" stroke-linecap="round" stroke-linejoin="round"/>
    <path d="M 1322.095947265625 212.40298461914062 C 1283.519287109375 213.6556396484375 1310.6719970703125 280.9267883300781 1336.026123046875 264.3626708984375 C 1359.531494140625 316.56060791015625 1358.2095947265625 388.0547180175781 1396.4200439453125 362.6946105957031 C 1413.0506591796875 333.50946044921875 1449.25146484375 307.1397399902344 1393.2655029296875 331.753662109375" stroke-width="14.850674629211426" fill="none" stroke="rgb(88, 255, 213)" stroke-opacity="0.26959556" stroke-linecap="round" stroke-linejoin="round"/>
    <path d="M 1284.975830078125 736.9500732421875 C 1342.3118896484375 673.3214721679688 1390.32080078125 609.0925903320312 1425.875732421875 593.1885986328125" stroke-width="12.150317192077637" fill="none" stroke="rgb(140, 138, 204)" stroke-opacity="0.51778877" stroke-linecap="round" stroke-linejoin="round"/>
    <path d="M 163.5580291748047 935.0234985351562 C 178.48553466796875 922.72314453125 242.26512145996094 873.7725830078125 183.69009399414062 900.0499267578125" stroke-width="14.804890632629395" fill="none" stroke="rgb(220, 185, 190)" stroke-opacity="0.3472143" stroke-linecap="round" stroke-linejoin="round"/>
    <path d="M 763.4638671875 600.7886962890625 C 734.08642578125 638.7366333007812 707.267578125 646.8511352539062 670.3058471679688 660.1287231445312 C 710.6102905273438 696.8880004882812 706.9437255859375 747.9537963867188 699.1019287109375 701.27978515625 C 691.02197265625 743.675537109375 700.4845581054688 726.291015625 762.7587890625 668.3729858398438" stroke-width="12.053571701049805" fill="none" stroke="rgb(183, 145, 148)" stroke-opacity="0.4051377" stroke-linecap="round" stroke-linejoin="round"/>
    <path d="M 106.71199035644531 1323.650634765625 C 164.122314453125 1260.603759765625 196.41375732421875 1275.7783203125 231.22601318359375 1218.0015869140625 C 262.90618896484375 1229.739990234375 305.06494140625 1202.1129150390625 313.3656921386719 1147.369384765625 C 357.0635681152344 1113.8240966796875 374.5871276855469 1060.3076171875 353.2977600097656 1053.4534912109375" stroke-width="15.529841423034668" fill="none" stroke="rgb(236, 182, 206)" stroke-opacity="0.9633313" stroke-linecap="round" stroke-linejoin="round"/>
    <path d="M 425.1092224121094 415.3562927246094 C 431.35919189453125 463.349365234375 446.3251647949219 494.978271484375 446.38494873046875 524.4525756835938" stroke-width="14.495993614196777" fill="none" stroke="rgb(2, 31, 132)" stroke-opacity="0.52002746" stroke-linecap="round" stroke-linejoin="round"/>
  </g>
</svg>
