<?xml version="1.0" ?>
<svg xmlns="http://www.w3.org/2000/svg" version="1.1" width="1104.0" height="1104.0">
  <defs/>
  <g>
    <path d="M 51.958343505859375 73.23553466796875 C 52.633018493652344 77.97992706298828 53.306427001953125 82.72352600097656 54.52569580078125 86.92353057861328 C 55.20034408569336 91.66810607910156 57.61961364746094 90.32122802734375 59.49549102783203 89.52019500732422" stroke-width="1.1500831842422485" fill="none" stroke="rgb(116, 83, 65)" stroke-opacity="0.9492" stroke-linecap="round" stroke-linejoin="round"/>
    <path d="M 68.3453598022461 86.79716491699219 C 68.30878448486328 86.42357635498047 68.81800842285156 85.50473022460938 68.78141784667969 85.67597198486328 C 68.74481201171875 85.30264282226562 69.91915893554688 80.2513427734375 71.63813781738281 75.74588012695312" stroke-width="1.4259637594223022" fill="none" stroke="rgb(106, 96, 56)" stroke-opacity="1.0" stroke-linecap="round" stroke-linejoin="round"/>
    <path d="M 83.21471405029297 35.11918258666992 C 80.88211059570312 34.30421829223633 74.67621612548828 34.9703369140625 64.12416076660156 35.261924743652344" stroke-width="1.0892857313156128" fill="none" stroke="rgb(224, 211, 45)" stroke-opacity="0.99" stroke-linecap="round" stroke-linejoin="round"/>
    <path d="M 51.01167678833008 37.5030517578125 C 48.65140151977539 36.43870162963867 45.74534225463867 35.91777038574219 42.29597854614258 35.39806365966797 C 39.93572235107422 34.87834167480469 40.445674896240234 38.555721282958984 40.41227722167969 41.14427185058594" stroke-width="1.0892857313156128" fill="none" stroke="rgb(218, 217, 100)" stroke-opacity="0.8831299" stroke-linecap="round" stroke-linejoin="round"/>
    <path d="M 33.13789367675781 46.63108825683594 C 32.37903594970703 49.14056396484375 31.872255325317383 53.229225158691406 32.282615661621094 56.21662139892578" stroke-width="1.0892857313156128" fill="none" stroke="rgb(228, 214, 59)" stroke-opacity="0.9253298" stroke-linecap="round" stroke-linejoin="round"/>
    <path d="M 27.202592849731445 63.073246002197266 C 26.292482376098633 65.94490814208984 25.382343292236328 68.81551361083984 24.472230911254883 71.14160919189453 C 23.562116622924805 74.02024841308594 31.36237907409668 74.89361572265625 38.61884689331055 75.23033905029297" stroke-width="1.0892857313156128" fill="none" stroke="rgb(218, 218, 89)" stroke-opacity="0.89100003" stroke-linecap="round" stroke-linejoin="round"/>
    <path d="M 48.270267486572266 74.947998046875 C 52.36874008178711 74.71998596191406 52.9860725402832 74.1799087524414 54.82217025756836 73.26979064941406" stroke-width="1.4530251026153564" fill="none" stroke="rgb(200, 184, 42)" stroke-opacity="1.0" stroke-linecap="round" stroke-linejoin="round"/>
    <path d="M 61.04365921020508 72.83060455322266 C 74.18717956542969 72.35602569580078 86.24165344238281 71.33679962158203 99.38634490966797 70.86100006103516 C 111.98528289794922 70.38643646240234 98.83490753173828 52.147422790527344 85.14111328125 34.45305633544922" stroke-width="1.2032078504562378" fill="none" stroke="rgb(197, 194, 33)" stroke-opacity="0.75891" stroke-linecap="round" stroke-linejoin="round"/>
    <path d="M 74.096435546875 40.36832046508789 C 80.29901885986328 41.09595489501953 87.04600524902344 41.278953552246094 85.53811645507812 42.8222541809082 C 83.48556518554688 43.820926666259766 74.26724243164062 46.72330093383789 75.1419906616211 47.896236419677734 C 76.56134796142578 48.52576446533203 87.5279312133789 46.879981994628906 86.96759033203125 47.38017654418945 C 86.95166778564453 47.33576583862305 76.49666595458984 50.52532958984375 76.48812866210938 50.76032257080078 C 75.93512725830078 51.53986358642578 87.46049499511719 50.45284652709961 87.4815673828125 52.251625061035156 C 87.5010986328125 53.50579833984375 76.55770874023438 57.099918365478516 76.37591552734375 58.01979446411133 C 75.65098571777344 58.39521026611328 86.23190307617188 56.638248443603516 86.6502685546875 57.25800323486328 C 87.06871795654297 57.87776184082031 77.32457733154297 60.87164306640625 77.37459564208984 61.88597106933594 C 77.42463684082031 61.81226348876953 87.27003479003906 59.75777816772461 88.61445617675781 60.52272033691406 C 89.95889282226562 61.28765869140625 82.8023681640625 64.86959075927734 76.19048309326172 68.99732208251953 C 69.03396606445312 72.0359115600586 80.95336151123047 70.77855682373047 92.87154388427734 68.97784423828125" stroke-width="1.0892857313156128" fill="none" stroke="rgb(236, 202, 190)" stroke-opacity="0.96053" stroke-linecap="round" stroke-linejoin="round"/>
    <path d="M 78.20215606689453 58.437034606933594 C 74.8849868774414 60.58418273925781 71.56651306152344 62.7325553894043 68.24942016601562 64.87889862060547 C 64.93206787109375 66.48243713378906 70.59397888183594 66.30186462402344 76.25631713867188 66.12129974365234" stroke-width="1.3096349239349365" fill="none" stroke="rgb(145, 95, 104)" stroke-opacity="0.20391998" stroke-linecap="round" stroke-linejoin="round"/>
    <path d="M 93.12162017822266 68.5979232788086 C 87.34445190429688 69.68247985839844 82.11308288574219 70.7682876586914 82.09732055664062 71.30021667480469 C 82.08201599121094 72.37675476074219 87.28257751464844 72.35480499267578 93.02767944335938 72.33406066894531 C 98.22855377197266 72.31209564208984 93.66088104248047 74.73380279541016 89.09196472167969 77.15428924560547" stroke-width="1.0892857313156128" fill="none" stroke="rgb(102, 166, 96)" stroke-opacity="0.59676" stroke-linecap="round" stroke-linejoin="round"/>
    <path d="M 77.6312484741211 67.73048400878906 C 77.73981475830078 67.59514617919922 77.84839630126953 66.91442108154297 77.95579528808594 65.69068908691406 C 78.06429290771484 65.01113891601562 75.7542953491211 65.28684997558594 73.9866714477539 66.10839080810547" stroke-width="1.0892857313156128" fill="none" stroke="rgb(95, 66, 149)" stroke-opacity="0.35581988" stroke-linecap="round" stroke-linejoin="round"/>
    <path d="M 98.23587799072266 69.22132873535156 C 97.99259185791016 70.81676483154297 98.29393005371094 71.32357025146484 96.92632293701172 71.73696899414062 C 95.55874633789062 72.15055847167969 92.52338409423828 72.47069549560547 89.48796844482422 72.2474365234375 C 86.45260620117188 71.47831726074219 93.06501007080078 68.54788208007812 99.67862701416016 65.61622619628906" stroke-width="1.5449200868606567" fill="none" stroke="rgb(185, 0, 33)" stroke-opacity="0.45126998" stroke-linecap="round" stroke-linejoin="round"/>
    <path d="M 71.09210205078125 39.82297897338867 C 75.70735168457031 42.38864517211914 80.32257843017578 44.953102111816406 80.54585266113281 46.70673370361328 C 80.76911163330078 47.915740966796875 76.59910583496094 47.2259521484375 72.43042755126953 47.07954025268555 C 68.26168823242188 46.93315505981445 69.4511947631836 50.30896759033203 70.09613037109375 54.22925567626953" stroke-width="1.0892857313156128" fill="none" stroke="rgb(125, 116, 172)" stroke-opacity="0.55083" stroke-linecap="round" stroke-linejoin="round"/>
    <path d="M 23.0960636138916 73.2143783569336 C 16.910646438598633 71.11719512939453 18.158222198486328 72.28402709960938 22.02562141418457 77.67642974853516" stroke-width="1.0892857313156128" fill="none" stroke="rgb(149, 112, 27)" stroke-opacity="0.34626" stroke-linecap="round" stroke-linejoin="round"/>
    <path d="M 32.915855407714844 45.32260513305664 C 32.273651123046875 49.556358337402344 31.631935119628906 54.30099105834961 31.534772872924805 59.59098815917969 C 30.893037796020508 63.79251480102539 26.42621421813965 57.226688385009766 23.04971694946289 49.57322311401367" stroke-width="1.0892857313156128" fill="none" stroke="rgb(132, 244, 198)" stroke-opacity="0.20468" stroke-linecap="round" stroke-linejoin="round"/>
    <path d="M 74.62349700927734 52.71157455444336 C 73.40471649169922 49.11499786376953 72.1871566772461 45.518409729003906 70.96836853027344 41.92308807373047 C 70.29418182373047 37.781986236572266 66.56443786621094 39.376522064208984 63.377532958984375 40.9722785949707" stroke-width="1.4009040594100952" fill="none" stroke="rgb(205, 131, 56)" stroke-opacity="0.70148003" stroke-linecap="round" stroke-linejoin="round"/>
    <path d="M 89.29450225830078 75.87642669677734 C 92.1492919921875 85.39170837402344 93.49323272705078 89.10130310058594 100.67780303955078 88.63814544677734" stroke-width="1.3487704992294312" fill="none" stroke="rgb(55, 68, 46)" stroke-opacity="0.86318" stroke-linecap="round" stroke-linejoin="round"/>
    <path d="M 74.10183715820312 65.09821319580078 C 72.7159194946289 69.82450103759766 71.32878875732422 74.549560546875 71.25436401367188 75.42919158935547 C 71.17994689941406 76.3088150024414 72.4157943725586 73.34300231933594 73.10823822021484 69.8337631225586 C 74.3441162109375 67.41255187988281 80.8557357788086 66.61713409423828 86.27816772460938 65.2758560180664" stroke-width="1.0892857313156128" fill="none" stroke="rgb(205, 35, 85)" stroke-opacity="0.36777002" stroke-linecap="round" stroke-linejoin="round"/>
    <path d="M 73.7687759399414 53.16419982910156 C 77.25308990478516 49.44075393676758 80.73741912841797 45.71609878540039 80.40924835205078 43.728206634521484 C 80.0810546875 42.829559326171875 75.93915557861328 43.66649627685547 71.79724884033203 44.504634857177734 C 67.65534973144531 44.79692077636719 66.61957550048828 42.9937629699707 65.58502197265625 41.19059753417969" stroke-width="1.5342466831207275" fill="none" stroke="rgb(255, 103, 119)" stroke-opacity="0.94733" stroke-linecap="round" stroke-linejoin="round"/>
    <path d="M 88.36068725585938 74.65885925292969 C 90.52424621582031 75.03462219238281 92.14274597167969 75.40927124023438 93.21751403808594 76.3295669555664 C 94.8364486694336 76.16071319580078 93.89215850830078 77.3196792602539 92.9490966796875 78.47868347167969" stroke-width="1.4497857093811035" fill="none" stroke="rgb(96, 252, 240)" stroke-opacity="0.77048004" stroke-linecap="round" stroke-linejoin="round"/>
    <path d="M 74.82967376708984 66.60855102539062 C 73.26319122314453 63.363380432128906 71.69670104980469 60.118186950683594 70.1302261352539 56.871768951416016 C 69.10836791992188 53.08198547363281 70.92449188232422 59.3372917175293 73.28515625 64.50385284423828" stroke-width="1.0892857313156128" fill="none" stroke="rgb(113, 113, 142)" stroke-opacity="0.53324044" stroke-linecap="round" stroke-linejoin="round"/>
    <path d="M 74.04399108886719 54.8546028137207 C 76.45153045654297 54.781917572021484 78.31438446044922 54.16334915161133 80.17742919921875 53.5460205078125 C 82.04037475585938 52.92869186401367 81.15708923339844 49.47444534301758 80.27381896972656 47.110557556152344" stroke-width="1.5793633460998535" fill="none" stroke="rgb(109, 25, 17)" stroke-opacity="0.3615" stroke-linecap="round" stroke-linejoin="round"/>
    <path d="M 99.13011932373047 65.7028579711914 C 105.81652069091797 62.78862762451172 105.45899200439453 62.455623626708984 105.41262817382812 60.20358657836914" stroke-width="1.0892857313156128" fill="none" stroke="rgb(125, 116, 160)" stroke-opacity="0.21322997" stroke-linecap="round" stroke-linejoin="round"/>
    <path d="M 22.96551513671875 78.39571380615234 C 18.73529052734375 74.61299896240234 15.04966926574707 70.28565979003906 14.268158912658691 67.3656997680664 C 12.94196891784668 65.53478240966797 13.976527214050293 65.11283874511719 15.011107444763184 64.69071960449219 C 16.045677185058594 64.26860809326172 11.687366485595703 68.36734771728516 7.873623371124268 73.01065826416016" stroke-width="1.0892857313156128" fill="none" stroke="rgb(105, 78, 127)" stroke-opacity="0.51458997" stroke-linecap="round" stroke-linejoin="round"/>
    <path d="M 81.84222412109375 27.728418350219727 C 80.44288635253906 24.998043060302734 79.0435562133789 22.266450881958008 78.18882751464844 19.536104202270508 C 76.78946685791016 16.805755615234375 72.78907775878906 19.859407424926758 68.24410247802734 22.367429733276367" stroke-width="1.0892857313156128" fill="none" stroke="rgb(90, 70, 58)" stroke-opacity="0.42833" stroke-linecap="round" stroke-linejoin="round"/>
    <path d="M 111.4618911743164 104.20890045166016 C 109.45986938476562 100.76688385009766 107.45785522460938 97.8693618774414 105.45584106445312 94.97184753417969 C 102.90919494628906 92.61897277832031 107.28823852539062 90.71822357177734 110.57811737060547 88.81868743896484" stroke-width="1.0892857313156128" fill="none" stroke="rgb(228, 224, 108)" stroke-opacity="0.28552002" stroke-linecap="round" stroke-linejoin="round"/>
    <path d="M 51.431541442871094 111.00292205810547 C 46.65036392211914 109.41448211669922 52.14158248901367 106.09974670410156 46.20750045776367 106.00336456298828" stroke-width="1.0892857313156128" fill="none" stroke="rgb(23, 83, 157)" stroke-opacity="0.009999995" stroke-linecap="round" stroke-linejoin="round"/>
    <path d="M 119.54544830322266 92.37001037597656 C 122.47311401367188 89.95401000976562 121.36170196533203 88.96337127685547 118.0230712890625 96.43392181396484" stroke-width="1.0892857313156128" fill="none" stroke="rgb(81, 43, 62)" stroke-opacity="0.73158" stroke-linecap="round" stroke-linejoin="round"/>
    <path d="M 120.17096710205078 87.17414093017578 C 120.37960052490234 83.73464965820312 120.58942413330078 80.84062957763672 120.79804229736328 77.94556427001953 C 121.00666809082031 75.05050659179688 121.87773895263672 72.77885437011719 122.74884033203125 70.50721740722656" stroke-width="1.0892857313156128" fill="none" stroke="rgb(209, 206, 159)" stroke-opacity="0.95016986" stroke-linecap="round" stroke-linejoin="round"/>
    <path d="M 46.049156188964844 63.837467193603516 C 46.62676239013672 66.2912826538086 46.66227722167969 69.27906036376953 47.78399658203125 71.19043731689453 C 48.36227798461914 73.64141845703125 48.59406661987305 78.87409210205078 48.2824592590332 84.65239715576172" stroke-width="1.5607914924621582" fill="none" stroke="rgb(255, 0, 255)" stroke-opacity="0.79783" stroke-linecap="round" stroke-linejoin="round"/>
    <path d="M 76.6901626586914 103.99549865722656 C 80.1086196899414 105.10933685302734 83.52583312988281 105.67979431152344 85.26118469238281 104.32194519042969 C 85.90727233886719 103.50871276855469 84.8702621459961 99.68035888671875 83.83326721191406 95.85073852539062 C 83.34089660644531 91.47659301757812 82.38320922851562 86.71369171142578 81.42550659179688 82.49421691894531" stroke-width="1.0892857313156128" fill="none" stroke="rgb(167, 88, 88)" stroke-opacity="0.97864" stroke-linecap="round" stroke-linejoin="round"/>
    <path d="M 76.56816101074219 95.762939453125 C 76.38200378417969 96.86699676513672 76.8687973022461 98.11628723144531 75.6463623046875 100.68563079833984" stroke-width="1.1047440767288208" fill="none" stroke="rgb(231, 67, 245)" stroke-opacity="0.72762" stroke-linecap="round" stroke-linejoin="round"/>
    <path d="M 84.97883605957031 1.800974726676941 C 89.21833801269531 6.150278568267822 87.33953857421875 13.775278091430664 90.25343322753906 12.4113187789917" stroke-width="1.0892857313156128" fill="none" stroke="rgb(191, 195, 94)" stroke-opacity="0.46494" stroke-linecap="round" stroke-linejoin="round"/>
    <path d="M 85.72962188720703 33.933841705322266 C 83.5772933959961 31.615135192871094 80.8810043334961 29.841304779052734 79.27217864990234 27.523448944091797 C 77.12010192871094 25.205398559570312 85.0340347290039 21.209522247314453 92.94959259033203 18.30269432067871" stroke-width="1.0892857313156128" fill="none" stroke="rgb(177, 129, 132)" stroke-opacity="0.12623002" stroke-linecap="round" stroke-linejoin="round"/>
    <path d="M 95.41960906982422 104.06625366210938 C 90.8494873046875 102.79257202148438 86.28064727783203 101.51888275146484 82.25509643554688 99.70059204101562 C 77.68496704101562 98.42692565917969 81.05086517333984 96.43708801269531 84.95932006835938 94.44729614257812" stroke-width="1.1492376327514648" fill="none" stroke="rgb(87, 49, 203)" stroke-opacity="0.37836" stroke-linecap="round" stroke-linejoin="round"/>
    <path d="M 58.26938247680664 18.524734497070312 C 56.074607849121094 13.577627182006836 53.88108444213867 8.63044261932373 54.946617126464844 9.368128776550293 C 55.467506408691406 10.650456428527832 58.15836715698242 18.70528221130371 61.395015716552734 26.21561622619629 C 64.63047790527344 33.72556686401367 63.525638580322266 30.18134307861328 61.8749885559082 27.181350708007812" stroke-width="1.0892857313156128" fill="none" stroke="rgb(64, 64, 81)" stroke-opacity="0.75189" stroke-linecap="round" stroke-linejoin="round"/>
    <path d="M 30.204919815063477 35.187259674072266 C 31.03430938720703 37.894351959228516 32.95119857788086 39.514400482177734 34.324928283691406 42.221981048583984 C 35.69866943359375 44.38502883911133 34.057762145996094 46.200374603271484 31.872276306152344 47.46998977661133" stroke-width="1.0892857313156128" fill="none" stroke="rgb(230, 219, 243)" stroke-opacity="0.47773993" stroke-linecap="round" stroke-linejoin="round"/>
    <path d="M 63.30362319946289 93.54202270507812 C 61.47568130493164 93.7713851928711 61.56106948852539 93.640869140625 61.36209487915039 93.93049621582031" stroke-width="1.0892857313156128" fill="none" stroke="rgb(184, 16, 242)" stroke-opacity="0.8513299" stroke-linecap="round" stroke-linejoin="round"/>
    <path d="M 61.014896392822266 90.2973403930664 C 57.01402282714844 89.79713439941406 53.55781936645508 89.29570770263672 50.64472961425781 88.2508773803711 C 46.644012451171875 88.29528045654297 50.97867202758789 90.42420959472656 55.85914993286133 92.55431365966797" stroke-width="1.7632851600646973" fill="none" stroke="rgb(190, 0, 245)" stroke-opacity="0.92552006" stroke-linecap="round" stroke-linejoin="round"/>
    <path d="M 42.74417495727539 33.0202751159668 C 37.842933654785156 31.55799674987793 33.48508834838867 29.551097869873047 29.128461837768555 27.542978286743164 C 25.31635284423828 25.53591537475586 23.836610794067383 23.101669311523438 22.356752395629883 21.75651741027832" stroke-width="1.1239526271820068" fill="none" stroke="rgb(255, 26, 30)" stroke-opacity="0.75708" stroke-linecap="round" stroke-linejoin="round"/>
    <path d="M 48.52036666870117 50.712711334228516 C 47.3236198425293 51.17557907104492 46.12677001953125 51.09382629394531 46.33181381225586 49.727420806884766 C 47.08126449584961 48.362239837646484 48.685577392578125 45.712425231933594 48.62788391113281 44.51312255859375 C 49.11454391479492 42.76942825317383 48.48171615600586 43.021846771240234 48.151119232177734 43.245750427246094 C 48.33456802368164 43.43739700317383 48.29393768310547 43.5832405090332 47.583431243896484 43.86643981933594 C 47.41629409790039 43.0621452331543 47.132057189941406 42.38865661621094 49.68925094604492 42.36058044433594 C 52.24626541137695 42.877132415771484 57.64596939086914 43.495704650878906 60.06523132324219 44.77060317993164 C 62.4844856262207 46.045448303222656 61.92328643798828 47.433349609375 60.410484313964844 49.8420524597168 C 59.442317962646484 51.705078125 56.97792053222656 53.49970245361328 55.064453125 54.432498931884766 C 54.240203857421875 56.45447540283203 53.96817398071289 57.615970611572266 51.96200942993164 58.07784652709961 C 51.04497528076172 59.62896728515625 47.850650787353516 59.937129974365234 45.9437370300293 60.28848648071289 C 44.58148193359375 61.18447494506836 43.41879653930664 60.489784240722656 41.71033477783203 60.88313674926758 C 41.09207534790039 60.73306655883789 39.79177474975586 59.135589599609375 37.94785690307617 58.62613296508789" stroke-width="3.0252065658569336" fill="none" stroke="rgb(33, 34, 11)" stroke-opacity="0.99" stroke-linecap="round" stroke-linejoin="round"/>
    <path d="M 74.82966613769531 66.06395721435547 C 79.39754486083984 67.158935546875 82.63162231445312 62.32304000854492 83.90673065185547 57.05192947387695 C 85.5329818725586 52.92605972290039 91.30210876464844 58.662349700927734 86.91641998291016 54.85526657104492 C 87.57878112792969 60.20732879638672 87.6452865600586 58.968711853027344 87.95509338378906 59.98003005981445" stroke-width="1.0892857313156128" fill="none" stroke="rgb(233, 121, 63)" stroke-opacity="0.767149" stroke-linecap="round" stroke-linejoin="round"/>
    <path d="M 51.95832443237305 72.69100189208984 C 53.75098419189453 73.32727813720703 59.57646942138672 73.51483917236328 56.5286865234375 77.69585418701172" stroke-width="1.0892857313156128" fill="none" stroke="rgb(21, 126, 141)" stroke-opacity="0.81325924" stroke-linecap="round" stroke-linejoin="round"/>
    <path d="M 49.064998626708984 51.257328033447266 C 49.24455642700195 47.78521728515625 43.630435943603516 49.18769454956055 46.7126579284668 53.059669494628906 C 47.91665267944336 55.78208923339844 53.29071807861328 57.71013259887695 49.815242767333984 62.55072021484375" stroke-width="1.0892857313156128" fill="none" stroke="rgb(156, 115, 171)" stroke-opacity="0.93320686" stroke-linecap="round" stroke-linejoin="round"/>
    <path d="M 40.41225814819336 41.144264221191406 C 46.759857177734375 42.87382507324219 46.12139129638672 48.115116119384766 48.43016815185547 43.75096893310547 C 50.804378509521484 43.37565612792969 45.02570343017578 44.0247688293457 43.51077651977539 40.12953567504883 C 46.572383880615234 41.27290344238281 46.903350830078125 39.43257522583008 42.1624755859375 45.064292907714844" stroke-width="1.1982141733169556" fill="none" stroke="rgb(5, 255, 226)" stroke-opacity="0.604162" stroke-linecap="round" stroke-linejoin="round"/>
    <path d="M 42.25428009033203 60.340232849121094 C 43.58088302612305 58.68451690673828 38.49521255493164 61.70800018310547 32.04308319091797 58.48434066772461 C 31.983989715576172 59.388221740722656 35.336307525634766 62.92399215698242 29.98747444152832 61.53327560424805" stroke-width="1.198150396347046" fill="none" stroke="rgb(191, 70, 146)" stroke-opacity="0.0071722744" stroke-linecap="round" stroke-linejoin="round"/>
    <path d="M 73.7687759399414 53.16419982910156 C 77.96845245361328 48.22014236450195 83.56246185302734 51.72056579589844 87.171630859375 51.70966339111328" stroke-width="1.198214054107666" fill="none" stroke="rgb(229, 54, 80)" stroke-opacity="0.65557617" stroke-linecap="round" stroke-linejoin="round"/>
    <path d="M 31.738069534301758 55.67202377319336 C 30.322418212890625 53.309688568115234 28.81765365600586 51.375205993652344 25.7159481048584 54.35992431640625 C 21.871257781982422 51.428993225097656 27.366085052490234 57.70634078979492 27.074682235717773 54.809452056884766" stroke-width="1.0892857313156128" fill="none" stroke="rgb(145, 14, 49)" stroke-opacity="0.124367" stroke-linecap="round" stroke-linejoin="round"/>
    <path d="M 61.395042419433594 25.670982360839844 C 66.56866455078125 23.44113540649414 68.30152130126953 22.266420364379883 67.39779663085938 20.338214874267578 C 65.41744232177734 17.33662223815918 71.16818237304688 16.126434326171875 72.83175659179688 17.39373779296875" stroke-width="1.0892857313156128" fill="none" stroke="rgb(170, 123, 200)" stroke-opacity="0.61664087" stroke-linecap="round" stroke-linejoin="round"/>
    <path d="M 72.83174896240234 16.849103927612305 C 76.32829284667969 14.725358009338379 80.47579956054688 17.011198043823242 74.12109375 13.550100326538086" stroke-width="1.0892857313156128" fill="none" stroke="rgb(81, 209, 55)" stroke-opacity="0.75876755" stroke-linecap="round" stroke-linejoin="round"/>
    <path d="M 87.95509338378906 59.98003387451172 C 85.2022476196289 59.85930633544922 84.74945068359375 61.10205841064453 91.1595687866211 62.182472229003906 C 94.00198364257812 58.024105072021484 95.1695327758789 61.07447814941406 90.21709442138672 61.695133209228516" stroke-width="1.0892857313156128" fill="none" stroke="rgb(170, 42, 75)" stroke-opacity="0.6696286" stroke-linecap="round" stroke-linejoin="round"/>
    <path d="M 87.9551010131836 59.98003387451172 C 90.14112091064453 53.96685791015625 85.66425323486328 54.20109939575195 88.08927154541016 54.14611053466797 C 89.2873306274414 56.270111083984375 93.75260925292969 55.54866409301758 99.64742279052734 50.61845016479492 C 101.95203399658203 52.30235290527344 106.78079223632812 53.94181823730469 101.60289764404297 50.74620819091797" stroke-width="1.198214054107666" fill="none" stroke="rgb(14, 241, 203)" stroke-opacity="0.14865336" stroke-linecap="round" stroke-linejoin="round"/>
    <path d="M 87.95509338378906 59.97997283935547 C 82.90509033203125 57.043304443359375 81.85957336425781 56.94512939453125 76.63824462890625 56.67868423461914" stroke-width="1.198213815689087" fill="none" stroke="rgb(235, 59, 2)" stroke-opacity="0.10706437" stroke-linecap="round" stroke-linejoin="round"/>
    <path d="M 72.83175659179688 16.849105834960938 C 78.28994750976562 17.143657684326172 74.78892517089844 17.77738380432129 73.40886688232422 15.269768714904785" stroke-width="1.1982133388519287" fill="none" stroke="rgb(67, 40, 171)" stroke-opacity="0.3263039" stroke-linecap="round" stroke-linejoin="round"/>
    <path d="M 72.83174896240234 17.39373207092285 C 77.4129409790039 20.981719970703125 80.20970916748047 26.875869750976562 76.372802734375 26.058753967285156" stroke-width="1.1982132196426392" fill="none" stroke="rgb(77, 96, 50)" stroke-opacity="0.07395785" stroke-linecap="round" stroke-linejoin="round"/>
    <path d="M 87.171630859375 51.16505432128906 C 85.44905853271484 56.39777755737305 80.37495422363281 51.80970001220703 85.65609741210938 57.72126388549805" stroke-width="1.1981792449951172" fill="none" stroke="rgb(6, 132, 148)" stroke-opacity="0.8520708" stroke-linecap="round" stroke-linejoin="round"/>
    <path d="M 87.955078125 59.98003387451172 C 83.84158325195312 57.418678283691406 82.64326477050781 53.56825637817383 84.97982025146484 50.94315719604492 C 87.28275299072266 53.574031829833984 87.14237976074219 50.785972595214844 85.32860565185547 53.78535842895508 C 83.93144989013672 52.70672607421875 78.71776580810547 51.24813461303711 79.98384857177734 54.49210739135742" stroke-width="1.0892857313156128" fill="none" stroke="rgb(102, 237, 125)" stroke-opacity="0.96388054" stroke-linecap="round" stroke-linejoin="round"/>
    <path d="M 61.35616683959961 119.75163269042969 C 57.627357482910156 123.08802795410156 56.62810134887695 126.33289337158203 51.76938247680664 126.6932373046875 C 58.08113098144531 129.40072631835938 63.42241287231445 124.74272155761719 59.67163848876953 123.70149993896484" stroke-width="1.0892857313156128" fill="none" stroke="rgb(130, 3, 79)" stroke-opacity="0.6995734" stroke-linecap="round" stroke-linejoin="round"/>
    <path d="M 110.08673858642578 52.320091247558594 C 111.42682647705078 57.92875289916992 114.9169692993164 52.77657699584961 112.06739807128906 53.71799087524414 C 117.90023040771484 47.58309555053711 118.191162109375 43.414737701416016 118.51371765136719 43.15715789794922" stroke-width="1.0892857313156128" fill="none" stroke="rgb(31, 6, 2)" stroke-opacity="0.40108588" stroke-linecap="round" stroke-linejoin="round"/>
    <path d="M 6.041955947875977 108.37709045410156 C 7.084587097167969 109.7918472290039 8.686824798583984 110.23148345947266 9.252379417419434 110.24862670898438" stroke-width="1.0892857313156128" fill="none" stroke="rgb(10, 19, 119)" stroke-opacity="0.6969949" stroke-linecap="round" stroke-linejoin="round"/>
    <path d="M 82.76302337646484 45.25907897949219 C 88.63638305664062 44.970458984375 85.90967559814453 39.03495788574219 80.29425048828125 43.0463981628418 C 79.79574584960938 40.945579528808594 74.87486267089844 40.083683013916016 76.91519927978516 35.25758361816406 C 81.94283294677734 31.876201629638672 77.9897232055664 31.348480224609375 79.26339721679688 27.319934844970703" stroke-width="1.1982139348983765" fill="none" stroke="rgb(55, 120, 129)" stroke-opacity="0.13758463" stroke-linecap="round" stroke-linejoin="round"/>
    <path d="M 71.58650207519531 108.76531982421875 C 69.97999572753906 110.9256820678711 73.5055923461914 116.1996078491211 68.18460083007812 118.53280639648438" stroke-width="1.0892857313156128" fill="none" stroke="rgb(145, 9, 159)" stroke-opacity="0.5236653" stroke-linecap="round" stroke-linejoin="round"/>
    <path d="M 31.34971046447754 94.29840850830078 C 34.931907653808594 88.90523529052734 32.75204849243164 89.6486587524414 32.98291015625 87.83464050292969 C 38.2950553894043 88.60801696777344 43.09404754638672 85.9259262084961 38.86654281616211 81.59645080566406" stroke-width="1.1982085704803467" fill="none" stroke="rgb(23, 147, 184)" stroke-opacity="0.10463559" stroke-linecap="round" stroke-linejoin="round"/>
    <path d="M 76.7542953491211 21.76249885559082 C 78.31838989257812 25.97035026550293 81.41073608398438 22.75178337097168 78.36434173583984 28.828716278076172 C 75.42328643798828 25.53721046447754 70.865966796875 25.031553268432617 74.2891616821289 26.738569259643555 C 79.84465789794922 20.40073013305664 77.62020874023438 25.855703353881836 80.63320922851562 27.65741729736328" stroke-width="1.1982121467590332" fill="none" stroke="rgb(54, 253, 82)" stroke-opacity="0.22057687" stroke-linecap="round" stroke-linejoin="round"/>
    <path d="M 39.79330062866211 16.00174903869629 C 35.75802993774414 9.920104026794434 31.865266799926758 6.922267436981201 36.65509796142578 6.419631481170654" stroke-width="1.1982126235961914" fill="none" stroke="rgb(115, 76, 113)" stroke-opacity="0.04757274" stroke-linecap="round" stroke-linejoin="round"/>
    <path d="M 42.907840728759766 52.6478157043457 C 45.3522834777832 54.06156921386719 40.979522705078125 54.11570358276367 37.4730339050293 59.99020004272461 C 38.88470458984375 55.6908073425293 32.933773040771484 60.3271598815918 38.998252868652344 57.26202392578125" stroke-width="1.1982126235961914" fill="none" stroke="rgb(158, 107, 112)" stroke-opacity="0.35513535" stroke-linecap="round" stroke-linejoin="round"/>
    <path d="M 36.133174896240234 20.197954177856445 C 31.78758430480957 21.454345703125 30.979921340942383 24.484066009521484 27.26689910888672 28.527568817138672" stroke-width="1.0892857313156128" fill="none" stroke="rgb(247, 81, 236)" stroke-opacity="0.20164989" stroke-linecap="round" stroke-linejoin="round"/>
    <path d="M 9.768099784851074 82.61866760253906 C 4.014072895050049 77.35802459716797 3.837608575820923 77.38737487792969 3.257652759552002 83.2613754272461 C -1.0186383724212646 85.17218780517578 -5.264011383056641 82.75135040283203 -7.296232223510742 76.72760772705078 C -11.893754005432129 79.57080078125 -9.740368843078613 77.66936492919922 -8.66955852508545 75.68342590332031" stroke-width="1.0892857313156128" fill="none" stroke="rgb(48, 18, 82)" stroke-opacity="0.48702568" stroke-linecap="round" stroke-linejoin="round"/>
    <path d="M 65.86819458007812 61.51478576660156 C 61.87035369873047 56.27667999267578 56.391807556152344 59.11008834838867 52.47245788574219 55.888790130615234 C 53.97426986694336 50.341426849365234 56.365318298339844 51.16263198852539 62.077667236328125 56.10859298706055 C 57.32317352294922 50.726837158203125 57.2595329284668 53.63861083984375 53.87308883666992 52.24928665161133" stroke-width="1.198214054107666" fill="none" stroke="rgb(78, 209, 206)" stroke-opacity="0.7451549" stroke-linecap="round" stroke-linejoin="round"/>
    <path d="M 52.62006759643555 79.45036315917969 C 53.67854690551758 77.37398529052734 51.964195251464844 81.63798522949219 50.451011657714844 83.75585174560547" stroke-width="1.0892857313156128" fill="none" stroke="rgb(13, 129, 224)" stroke-opacity="0.46786886" stroke-linecap="round" stroke-linejoin="round"/>
    <path d="M 13.92058277130127 113.12328338623047 C 9.553632736206055 109.531005859375 4.90432071685791 109.67804718017578 0.8368006348609924 104.74491119384766 C 6.574896812438965 99.23463439941406 9.397638320922852 97.78489685058594 7.57741641998291 97.03759765625 C 7.301253318786621 90.60256958007812 12.794610977172852 93.49849700927734 16.924448013305664 93.12592315673828" stroke-width="1.0892857313156128" fill="none" stroke="rgb(201, 123, 245)" stroke-opacity="0.6375888" stroke-linecap="round" stroke-linejoin="round"/>
    <path d="M 46.32825469970703 1.6389273405075073 C 40.10747146606445 -0.5223881602287292 36.68339920043945 0.617356538772583 39.65776443481445 0.8572673201560974 C 42.89430236816406 4.012622356414795 48.4078369140625 3.4146316051483154 51.17523956298828 3.182908296585083" stroke-width="1.1982084512710571" fill="none" stroke="rgb(144, 48, 112)" stroke-opacity="0.5959122" stroke-linecap="round" stroke-linejoin="round"/>
    <path d="M 119.81372833251953 81.50304412841797 C 119.74390411376953 80.39857482910156 121.95429229736328 86.22322082519531 116.16265869140625 83.94793701171875 C 113.23994445800781 89.8868408203125 117.15657043457031 87.29823303222656 119.98628234863281 80.87139892578125" stroke-width="1.1982141733169556" fill="none" stroke="rgb(252, 162, 255)" stroke-opacity="0.9626667" stroke-linecap="round" stroke-linejoin="round"/>
  </g>
</svg>
