<?xml version="1.0" ?>
<svg xmlns="http://www.w3.org/2000/svg" version="1.1" width="122.0" height="122.0">
  <defs/>
  <g>
    <path d="M 35.3505973815918 37.62089157104492 C 33.35704803466797 37.474788665771484 30.699939727783203 38.91963195800781 28.2569580078125 39.55058670043945 C 26.608604431152344 39.39519500732422 26.31925392150879 40.21617889404297 24.468191146850586 39.98935317993164 C 23.17914581298828 40.14783477783203 21.108293533325195 40.71331787109375 24.388336181640625 41.0331916809082 C 24.97037696838379 42.4724235534668 27.023555755615234 45.86163330078125 28.304004669189453 49.93728256225586 C 30.210046768188477 53.585105895996094 30.3062744140625 55.499290466308594 32.354339599609375 56.95795822143555" stroke-width="1.0938395261764526" fill="none" stroke="rgb(25, 0, 66)" stroke-opacity="0.9429558" stroke-linecap="round" stroke-linejoin="round"/>
    <path d="M 48.51815414428711 48.52208709716797 C 46.28334045410156 48.977012634277344 43.10205078125 49.364356994628906 43.553733825683594 49.55523681640625 C 44.00825119018555 49.61797332763672 47.16550827026367 48.554718017578125 46.96871566772461 48.066375732421875 C 47.39453887939453 49.64474105834961 45.99054718017578 51.91999816894531 46.58866500854492 52.27646255493164 C 45.00313949584961 51.6155891418457 46.351261138916016 51.094970703125 47.25634002685547 51.764312744140625 C 47.66048049926758 50.880958557128906 46.88111114501953 52.33251190185547 46.817962646484375 54.52773666381836 C 45.36016845703125 55.695621490478516 44.76508331298828 55.164608001708984 46.648921966552734 55.04808807373047" stroke-width="1.1958086490631104" fill="none" stroke="rgb(0, 89, 224)" stroke-opacity="0.76816946" stroke-linecap="round" stroke-linejoin="round"/>
    <path d="M 27.254770278930664 38.18727493286133 C 27.941566467285156 35.522483825683594 27.90177345275879 33.051944732666016 29.4638729095459 33.126651763916016 C 30.918466567993164 33.896583557128906 34.67389678955078 36.24443435668945 38.53037643432617 40.32695388793945 C 39.46593475341797 45.16099166870117 42.57902145385742 41.91450500488281 47.630775451660156 36.0820426940918" stroke-width="1.0892857313156128" fill="none" stroke="rgb(177, 227, 183)" stroke-opacity="0.3295394" stroke-linecap="round" stroke-linejoin="round"/>
    <path d="M 29.75831413269043 53.79639434814453 C 31.72380828857422 49.976646423339844 34.154544830322266 46.22998046875 38.37937927246094 44.91182327270508 C 41.24579620361328 41.99341583251953 35.994361877441406 42.939571380615234 32.52681350708008 44.7645378112793" stroke-width="1.0892857313156128" fill="none" stroke="rgb(131, 198, 166)" stroke-opacity="0.2918457" stroke-linecap="round" stroke-linejoin="round"/>
    <path d="M 46.17546463012695 56.15528106689453 C 50.504180908203125 59.597564697265625 53.85100555419922 57.2413444519043 52.95476531982422 56.21546173095703" stroke-width="1.0892857313156128" fill="none" stroke="rgb(129, 35, 44)" stroke-opacity="0.23545855" stroke-linecap="round" stroke-linejoin="round"/>
    <path d="M 45.49919128417969 52.0393180847168 C 46.39596939086914 51.81965255737305 48.04365158081055 51.4058723449707 51.605045318603516 51.99635314941406 C 53.09006881713867 50.39619827270508 52.137420654296875 52.8016357421875 52.20865249633789 57.23952865600586" stroke-width="1.0907622575759888" fill="none" stroke="rgb(87, 23, 214)" stroke-opacity="0.19875392" stroke-linecap="round" stroke-linejoin="round"/>
    <path d="M 46.34577560424805 48.68901062011719 C 48.532955169677734 53.52857971191406 44.4063720703125 51.930850982666016 40.94545364379883 52.334564208984375" stroke-width="1.1019046306610107" fill="none" stroke="rgb(131, 16, 189)" stroke-opacity="0.766675" stroke-linecap="round" stroke-linejoin="round"/>
    <path d="M 49.3000602722168 54.138633728027344 C 48.938961029052734 56.23970413208008 49.07853317260742 58.84404373168945 51.35020065307617 58.22440719604492 C 51.69844055175781 56.89006042480469 51.487300872802734 54.44316864013672 54.48377227783203 55.296775817871094 C 54.80558776855469 52.81941223144531 48.177330017089844 56.0320930480957 43.176612854003906 60.896751403808594" stroke-width="1.4490236043930054" fill="none" stroke="rgb(161, 197, 79)" stroke-opacity="0.004588874" stroke-linecap="round" stroke-linejoin="round"/>
    <path d="M 30.902950286865234 55.21695327758789 C 26.09221076965332 59.0595817565918 20.487075805664062 61.16350555419922 19.46026611328125 60.93238067626953 C 19.018579483032227 62.14170455932617 21.365753173828125 58.66765594482422 21.066133499145508 52.45488357543945 C 21.609272003173828 48.21205520629883 21.882286071777344 43.756683349609375 24.25596046447754 41.051292419433594" stroke-width="1.0892857313156128" fill="none" stroke="rgb(194, 198, 130)" stroke-opacity="0.7064822" stroke-linecap="round" stroke-linejoin="round"/>
    <path d="M 29.300992965698242 37.58625030517578 C 27.11695098876953 34.2853889465332 26.18120002746582 30.61184310913086 26.745508193969727 27.227296829223633 C 27.54326057434082 22.705856323242188 29.436750411987305 25.35008430480957 31.55101203918457 25.275625228881836" stroke-width="1.0892857313156128" fill="none" stroke="rgb(144, 73, 43)" stroke-opacity="0.46639964" stroke-linecap="round" stroke-linejoin="round"/>
    <path d="M 45.13921356201172 60.43756103515625 C 45.77084732055664 65.78972625732422 46.241722106933594 71.2757797241211 45.948299407958984 78.43502044677734 C 46.4622688293457 83.91731262207031 47.05314254760742 78.08102416992188 46.39613723754883 73.35430908203125" stroke-width="1.760621190071106" fill="none" stroke="rgb(226, 17, 106)" stroke-opacity="0.31410277" stroke-linecap="round" stroke-linejoin="round"/>
    <path d="M 40.423072814941406 52.64091873168945 C 41.7025260925293 49.94900131225586 41.91529083251953 53.42750930786133 43.29861068725586 57.226898193359375" stroke-width="1.0892857313156128" fill="none" stroke="rgb(202, 50, 134)" stroke-opacity="0.8172589" stroke-linecap="round" stroke-linejoin="round"/>
    <path d="M 47.75101089477539 37.78236770629883 C 52.27354049682617 33.687538146972656 56.621524810791016 29.340818405151367 57.95751190185547 27.907283782958984 C 58.48881530761719 25.58003807067871 55.325592041015625 28.585668563842773 56.00276184082031 31.959184646606445 C 55.42951583862305 35.39926528930664 59.53841781616211 40.19864273071289 62.644290924072266 46.121612548828125" stroke-width="1.0892857313156128" fill="none" stroke="rgb(191, 209, 187)" stroke-opacity="0.015610231" stroke-linecap="round" stroke-linejoin="round"/>
    <path d="M 46.908260345458984 36.37541961669922 C 50.19384765625 41.91846466064453 47.47950744628906 36.20941162109375 43.264808654785156 30.407705307006836" stroke-width="1.4909201860427856" fill="none" stroke="rgb(166, 255, 215)" stroke-opacity="0.5348118" stroke-linecap="round" stroke-linejoin="round"/>
    <path d="M 24.13080596923828 39.571372985839844 C 25.056249618530273 41.218650817871094 26.342960357666016 41.7562141418457 30.233610153198242 42.264827728271484 C 30.996606826782227 45.13876724243164 33.86316680908203 48.79322052001953 35.29031753540039 53.657649993896484 C 35.951839447021484 54.93647003173828 39.43291091918945 51.18755340576172 43.40468215942383 48.76713943481445" stroke-width="2.1103434562683105" fill="none" stroke="rgb(208, 84, 97)" stroke-opacity="0.9401511" stroke-linecap="round" stroke-linejoin="round"/>
    <path d="M 43.64474105834961 59.8795166015625 C 42.61553955078125 58.54800796508789 42.402099609375 54.45796203613281 42.12710189819336 50.890113830566406 C 41.524253845214844 47.00673294067383 39.272769927978516 47.3856315612793 39.97110366821289 45.812198638916016" stroke-width="1.5241252183914185" fill="none" stroke="rgb(212, 32, 148)" stroke-opacity="0.2856454" stroke-linecap="round" stroke-linejoin="round"/>
    <path d="M 46.42005920410156 60.333709716796875 C 39.72036361694336 59.86809158325195 42.40245819091797 59.780967712402344 37.96501922607422 64.9309310913086" stroke-width="1.4205198287963867" fill="none" stroke="rgb(41, 32, 255)" stroke-opacity="0.7293788" stroke-linecap="round" stroke-linejoin="round"/>
    <path d="M 46.24674606323242 59.64094924926758 C 38.23408508300781 60.837974548339844 35.620235443115234 61.44202423095703 32.05108642578125 62.29142379760742" stroke-width="2.0532941818237305" fill="none" stroke="rgb(68, 39, 255)" stroke-opacity="0.9015074" stroke-linecap="round" stroke-linejoin="round"/>
    <path d="M 67.33390045166016 39.98171615600586 C 67.40188598632812 42.996944427490234 67.71305084228516 44.17158889770508 68.71684265136719 45.29447555541992 C 69.93414306640625 46.403358459472656 68.3650131225586 45.25822830200195 68.00399017333984 42.55659866333008" stroke-width="1.0892857313156128" fill="none" stroke="rgb(71, 17, 14)" stroke-opacity="0.7608707" stroke-linecap="round" stroke-linejoin="round"/>
    <path d="M 57.70205307006836 63.487613677978516 C 58.44733428955078 60.43988800048828 61.88019943237305 60.28416442871094 64.5487289428711 60.366912841796875 C 66.33824920654297 59.36057662963867 68.87545776367188 59.59130096435547 69.40106201171875 59.5396842956543 C 68.49586486816406 58.583160400390625 66.00737762451172 59.703125 66.68265533447266 59.63506317138672" stroke-width="1.3340590000152588" fill="none" stroke="rgb(181, 71, 141)" stroke-opacity="0.32838917" stroke-linecap="round" stroke-linejoin="round"/>
    <path d="M 105.77326965332031 112.37777709960938 C 100.5155258178711 110.76873016357422 97.08850860595703 111.81503295898438 93.47039031982422 113.34320068359375 C 89.23626708984375 113.7516860961914 91.2000961303711 108.72833251953125 94.02762603759766 106.31511688232422" stroke-width="1.0892857313156128" fill="none" stroke="rgb(225, 195, 221)" stroke-opacity="0.6831891" stroke-linecap="round" stroke-linejoin="round"/>
    <path d="M 39.24226379394531 71.32417297363281 C 33.59125518798828 70.96751403808594 29.269222259521484 70.96841430664062 23.347089767456055 70.99299621582031 C 19.316162109375 68.62505340576172 17.24915885925293 73.9100112915039 15.86205005645752 82.55915832519531" stroke-width="1.143229365348816" fill="none" stroke="rgb(133, 105, 175)" stroke-opacity="0.8267968" stroke-linecap="round" stroke-linejoin="round"/>
    <path d="M 17.704971313476562 21.686084747314453 C 22.260915756225586 18.09271240234375 28.736976623535156 15.624093055725098 26.57413673400879 14.775069236755371 C 25.327062606811523 12.172919273376465 21.28729248046875 12.952874183654785 14.942880630493164 13.65677261352539 C 9.159732818603516 14.1392240524292 16.182594299316406 8.684161186218262 23.714447021484375 3.398442506790161" stroke-width="1.1193252801895142" fill="none" stroke="rgb(229, 215, 255)" stroke-opacity="0.8522174" stroke-linecap="round" stroke-linejoin="round"/>
    <path d="M 18.90890884399414 86.44010162353516 C 20.7425594329834 84.41061401367188 23.90666389465332 85.11127471923828 27.74848175048828 85.42742919921875 C 27.669750213623047 86.31182861328125 27.567716598510742 93.39574432373047 27.89396095275879 97.7022476196289 C 28.32909393310547 102.41597747802734 29.391359329223633 97.03023529052734 28.256731033325195 92.95006561279297" stroke-width="1.0892857313156128" fill="none" stroke="rgb(140, 11, 238)" stroke-opacity="0.44823867" stroke-linecap="round" stroke-linejoin="round"/>
    <path d="M 5.734979152679443 74.92024993896484 C 6.32375955581665 75.55896759033203 3.5589709281921387 81.86698150634766 3.0844383239746094 84.21592712402344" stroke-width="1.1640369892120361" fill="none" stroke="rgb(110, 192, 154)" stroke-opacity="0.342966" stroke-linecap="round" stroke-linejoin="round"/>
    <path d="M 98.37389373779297 99.47455596923828 C 100.21308898925781 93.33951568603516 99.4493179321289 100.07398223876953 98.34806060791016 106.28626251220703" stroke-width="1.1177339553833008" fill="none" stroke="rgb(177, 33, 69)" stroke-opacity="0.21708706" stroke-linecap="round" stroke-linejoin="round"/>
    <path d="M 53.408103942871094 98.12342071533203 C 57.3712272644043 106.09764862060547 57.4710693359375 111.2927474975586 55.119449615478516 110.14160919189453" stroke-width="1.0892857313156128" fill="none" stroke="rgb(104, 64, 128)" stroke-opacity="0.45851067" stroke-linecap="round" stroke-linejoin="round"/>
    <path d="M 117.37825775146484 110.05731964111328 C 116.35755920410156 115.06539154052734 115.70521545410156 116.70022583007812 117.97499084472656 115.87846374511719 C 118.4222412109375 113.25504302978516 120.31342315673828 108.86354064941406 123.07722473144531 106.06275939941406 C 127.29846954345703 104.53936004638672 130.95724487304688 104.29415130615234 134.61602783203125 104.0501480102539" stroke-width="1.9156486988067627" fill="none" stroke="rgb(168, 0, 37)" stroke-opacity="0.12668955" stroke-linecap="round" stroke-linejoin="round"/>
    <path d="M 8.449180603027344 8.344977378845215 C 13.679841995239258 2.8514742851257324 14.268959999084473 3.3719897270202637 18.431072235107422 -1.4694443941116333" stroke-width="1.0892857313156128" fill="none" stroke="rgb(96, 21, 229)" stroke-opacity="0.24567807" stroke-linecap="round" stroke-linejoin="round"/>
    <path d="M 45.90582275390625 116.70903015136719 C 44.618656158447266 112.6336669921875 43.86345291137695 109.12615966796875 44.36381912231445 110.2701416015625 C 45.66877746582031 110.20774841308594 48.17087173461914 115.04874420166016 49.943214416503906 120.14889526367188 C 50.992794036865234 127.28791046142578 48.17723083496094 122.93006134033203 45.5189094543457 118.3515853881836" stroke-width="1.0914347171783447" fill="none" stroke="rgb(57, 232, 198)" stroke-opacity="0.17998955" stroke-linecap="round" stroke-linejoin="round"/>
    <path d="M 62.21611022949219 104.88217163085938 C 64.50328826904297 106.9395523071289 64.89595031738281 107.981689453125 66.34101104736328 108.22705841064453 C 68.97443389892578 107.4936294555664 65.45038604736328 107.23926544189453 63.96784210205078 107.11002349853516" stroke-width="1.1583396196365356" fill="none" stroke="rgb(232, 56, 31)" stroke-opacity="0.0732706" stroke-linecap="round" stroke-linejoin="round"/>
    <path d="M 11.919877052307129 115.0641860961914 C 10.451781272888184 107.4771728515625 13.36607837677002 104.76254272460938 12.083969116210938 98.67958068847656" stroke-width="1.0892857313156128" fill="none" stroke="rgb(238, 39, 229)" stroke-opacity="0.42657998" stroke-linecap="round" stroke-linejoin="round"/>
    <path d="M 93.576904296875 115.58824920654297 C 85.38485717773438 116.04206848144531 86.67143249511719 110.62102508544922 84.58863067626953 115.03502655029297" stroke-width="1.1925369501113892" fill="none" stroke="rgb(0, 204, 60)" stroke-opacity="0.4182054" stroke-linecap="round" stroke-linejoin="round"/>
    <path d="M 116.61101531982422 69.84619140625 C 119.7630615234375 69.33468627929688 122.52404022216797 69.10364532470703 124.45193481445312 68.57975006103516 C 124.94357299804688 67.2822036743164 121.830810546875 62.445003509521484 117.15632629394531 58.92264938354492" stroke-width="1.0892857313156128" fill="none" stroke="rgb(151, 206, 180)" stroke-opacity="0.389838" stroke-linecap="round" stroke-linejoin="round"/>
    <path d="M 45.28497314453125 60.969913482666016 C 44.29913330078125 64.26823425292969 41.61695861816406 65.95654296875 44.135013580322266 62.82853317260742 C 44.953853607177734 70.27227783203125 45.397640228271484 70.3565902709961 44.937252044677734 66.47122955322266" stroke-width="1.641100525856018" fill="none" stroke="rgb(255, 24, 158)" stroke-opacity="0.653149" stroke-linecap="round" stroke-linejoin="round"/>
    <path d="M 45.0535774230957 115.21473693847656 C 45.20199966430664 114.09691619873047 48.8509635925293 118.86549377441406 45.62943649291992 125.22021484375 C 42.895626068115234 119.43822479248047 47.49992370605469 112.17190551757812 44.6428108215332 111.31092834472656 C 47.77998352050781 111.140380859375 44.02462387084961 109.85472106933594 37.13169479370117 112.64810180664062" stroke-width="1.0892857313156128" fill="none" stroke="rgb(57, 132, 113)" stroke-opacity="0.52539194" stroke-linecap="round" stroke-linejoin="round"/>
    <path d="M 43.529541015625 62.515804290771484 C 38.577110290527344 64.60553741455078 39.58281707763672 65.58134460449219 43.6630859375 64.59245300292969 C 36.3809700012207 58.35236740112305 33.28488540649414 58.407310485839844 41.42761993408203 57.80104064941406" stroke-width="1.2702150344848633" fill="none" stroke="rgb(254, 68, 123)" stroke-opacity="0.3433927" stroke-linecap="round" stroke-linejoin="round"/>
    <path d="M 45.794273376464844 36.87626647949219 C 39.77986145019531 34.596370697021484 44.57831954956055 35.97452163696289 47.116371154785156 38.12248229980469 C 43.543663024902344 39.04825210571289 48.095176696777344 35.83829116821289 46.11309051513672 31.259719848632812 C 45.532039642333984 36.05675506591797 50.913978576660156 36.508445739746094 45.67258834838867 39.70096206665039" stroke-width="1.0892857313156128" fill="none" stroke="rgb(54, 182, 13)" stroke-opacity="0.41587704" stroke-linecap="round" stroke-linejoin="round"/>
    <path d="M 41.79914855957031 50.812198638916016 C 39.81108093261719 52.74176788330078 40.340736389160156 47.650482177734375 43.78902816772461 52.02538299560547 C 41.59904861450195 56.67361068725586 34.75688171386719 56.54344177246094 38.71614074707031 51.402015686035156 C 33.70869064331055 47.108482360839844 34.86531066894531 42.582054138183594 31.651351928710938 41.319393157958984" stroke-width="1.0892857313156128" fill="none" stroke="rgb(255, 231, 122)" stroke-opacity="0.49909022" stroke-linecap="round" stroke-linejoin="round"/>
    <path d="M 92.1452865600586 113.93972778320312 C 90.87603759765625 105.17820739746094 95.2814712524414 101.67668914794922 90.25074768066406 98.77174377441406 C 87.7580337524414 99.53298950195312 83.52992248535156 96.12486267089844 88.84129333496094 101.70580291748047 C 88.13796997070312 98.5368423461914 82.76579284667969 97.60835266113281 86.13899993896484 89.56627655029297" stroke-width="1.0892857313156128" fill="none" stroke="rgb(151, 58, 146)" stroke-opacity="0.75157803" stroke-linecap="round" stroke-linejoin="round"/>
    <path d="M 45.69746017456055 35.61934280395508 C 40.9554443359375 37.79931640625 44.78633499145508 35.42021179199219 51.3856315612793 36.19498825073242" stroke-width="1.0892857313156128" fill="none" stroke="rgb(205, 233, 174)" stroke-opacity="0.54866767" stroke-linecap="round" stroke-linejoin="round"/>
    <path d="M 47.10345458984375 49.152626037597656 C 46.74399948120117 48.02836227416992 48.507843017578125 44.45795822143555 50.17233657836914 40.4616813659668" stroke-width="1.1910350322723389" fill="none" stroke="rgb(100, 204, 141)" stroke-opacity="0.40611008" stroke-linecap="round" stroke-linejoin="round"/>
    <path d="M 37.5991096496582 112.49797821044922 C 36.236732482910156 117.2894515991211 40.59563446044922 119.95667266845703 40.92402267456055 113.96070861816406" stroke-width="1.4296200275421143" fill="none" stroke="rgb(64, 38, 235)" stroke-opacity="0.41820335" stroke-linecap="round" stroke-linejoin="round"/>
    <path d="M 44.395057678222656 66.81623077392578 C 43.30097961425781 66.15534210205078 38.236881256103516 69.61102294921875 37.261592864990234 76.48661041259766" stroke-width="1.0892857313156128" fill="none" stroke="rgb(74, 134, 151)" stroke-opacity="0.8238287" stroke-linecap="round" stroke-linejoin="round"/>
    <path d="M 37.10194778442383 111.78280639648438 C 43.21196746826172 113.50862884521484 41.17552947998047 114.11943054199219 41.60175704956055 105.93327331542969 C 41.95968246459961 103.11265563964844 37.76553726196289 105.18224334716797 33.776153564453125 106.49351501464844" stroke-width="1.4962743520736694" fill="none" stroke="rgb(132, 0, 188)" stroke-opacity="0.40541813" stroke-linecap="round" stroke-linejoin="round"/>
    <path d="M 50.632713317871094 36.178123474121094 C 51.451133728027344 41.967491149902344 54.47550582885742 40.29974365234375 52.02132797241211 45.26947784423828" stroke-width="1.5089126825332642" fill="none" stroke="rgb(189, 255, 112)" stroke-opacity="0.16736546" stroke-linecap="round" stroke-linejoin="round"/>
    <path d="M 51.3194694519043 35.49408721923828 C 52.663787841796875 43.72917938232422 51.73297119140625 43.43264389038086 52.3019905090332 42.2501106262207" stroke-width="1.0892857313156128" fill="none" stroke="rgb(70, 135, 225)" stroke-opacity="0.43296292" stroke-linecap="round" stroke-linejoin="round"/>
    <path d="M 51.38618469238281 36.34196472167969 C 50.17967224121094 32.11058807373047 49.542667388916016 32.88504409790039 42.90449523925781 30.225662231445312 C 39.81298828125 35.054290771484375 44.79043960571289 31.040132522583008 40.70819091796875 30.927732467651367 C 34.5966682434082 35.3271598815918 36.88191223144531 36.97269058227539 33.75358963012695 40.238704681396484" stroke-width="1.7807940244674683" fill="none" stroke="rgb(175, 207, 47)" stroke-opacity="0.95039934" stroke-linecap="round" stroke-linejoin="round"/>
    <path d="M 85.15596008300781 90.28999328613281 C 88.15184783935547 84.00083923339844 87.0277099609375 84.23541259765625 88.62950134277344 78.31889343261719" stroke-width="1.0892857313156128" fill="none" stroke="rgb(113, 193, 169)" stroke-opacity="0.92177844" stroke-linecap="round" stroke-linejoin="round"/>
    <path d="M 40.022953033447266 57.33448791503906 C 47.181846618652344 59.76486587524414 49.920902252197266 57.797550201416016 54.073272705078125 52.62077331542969 C 60.98212432861328 57.62192153930664 64.65557098388672 53.77656173706055 64.40017700195312 56.396583557128906" stroke-width="1.355262279510498" fill="none" stroke="rgb(16, 206, 152)" stroke-opacity="0.3448023" stroke-linecap="round" stroke-linejoin="round"/>
    <path d="M 62.16930389404297 63.76008224487305 C 59.634613037109375 58.533329010009766 56.56771469116211 63.31645202636719 57.42675018310547 63.423980712890625 C 56.7001838684082 69.4815444946289 53.524169921875 69.2533950805664 55.60297775268555 77.04335021972656 C 59.91647720336914 78.9935302734375 62.80378341674805 81.12943267822266 57.719993591308594 77.5793228149414" stroke-width="1.5522959232330322" fill="none" stroke="rgb(255, 51, 44)" stroke-opacity="0.17613938" stroke-linecap="round" stroke-linejoin="round"/>
    <path d="M 37.90037155151367 109.56441497802734 C 38.182212829589844 113.41459655761719 32.726470947265625 111.21664428710938 31.805509567260742 116.3345947265625 C 36.20359420776367 113.82809448242188 31.30709457397461 111.29535675048828 35.06297302246094 105.05223083496094" stroke-width="1.3862460851669312" fill="none" stroke="rgb(123, 247, 201)" stroke-opacity="0.87492025" stroke-linecap="round" stroke-linejoin="round"/>
    <path d="M 35.94667434692383 37.25727844238281 C 39.23202896118164 44.44697189331055 41.07296371459961 48.332618713378906 45.567569732666016 45.85629653930664" stroke-width="1.575352668762207" fill="none" stroke="rgb(4, 182, 10)" stroke-opacity="0.67100614" stroke-linecap="round" stroke-linejoin="round"/>
    <path d="M 117.00005340576172 45.59288787841797 C 115.11394500732422 40.792259216308594 115.63411712646484 38.46780014038086 111.46464538574219 39.4458122253418 C 107.39201354980469 41.13679504394531 105.17694091796875 44.145111083984375 99.3026351928711 48.84639358520508" stroke-width="1.0892857313156128" fill="none" stroke="rgb(151, 131, 255)" stroke-opacity="0.8143732" stroke-linecap="round" stroke-linejoin="round"/>
    <path d="M 72.42325592041016 86.12378692626953 C 66.8780746459961 93.76643371582031 67.03597259521484 93.83394622802734 73.48014068603516 94.24774169921875 C 76.4172592163086 95.71914672851562 81.41799926757812 97.26353454589844 83.02154541015625 93.45632934570312" stroke-width="1.0892857313156128" fill="none" stroke="rgb(38, 207, 143)" stroke-opacity="0.3404438" stroke-linecap="round" stroke-linejoin="round"/>
    <path d="M 104.42353057861328 119.74283599853516 C 96.2112808227539 123.42029571533203 95.82144165039062 120.6844711303711 93.92868041992188 123.94318389892578 C 95.20806121826172 126.00914764404297 97.42682647705078 120.6965560913086 93.69869995117188 126.71133422851562 C 89.22433471679688 125.556884765625 83.8293685913086 124.34195709228516 82.88536834716797 122.85636138916016" stroke-width="1.1889396905899048" fill="none" stroke="rgb(39, 72, 135)" stroke-opacity="0.24787322" stroke-linecap="round" stroke-linejoin="round"/>
    <path d="M 98.3796157836914 18.757226943969727 C 96.71483612060547 12.16356086730957 95.12895202636719 16.673683166503906 99.46158599853516 14.593873023986816" stroke-width="1.4383269548416138" fill="none" stroke="rgb(166, 204, 108)" stroke-opacity="0.38394606" stroke-linecap="round" stroke-linejoin="round"/>
    <path d="M 102.70362091064453 23.86270523071289 C 96.34486389160156 23.6069393157959 92.9668960571289 23.025501251220703 95.07271575927734 24.217601776123047 C 98.80741119384766 23.07128143310547 95.29913330078125 30.128080368041992 99.65087127685547 26.517921447753906" stroke-width="2.0309813022613525" fill="none" stroke="rgb(136, 19, 56)" stroke-opacity="0.8216065" stroke-linecap="round" stroke-linejoin="round"/>
    <path d="M 108.04718780517578 17.738916397094727 C 103.79972076416016 15.939882278442383 100.21680450439453 11.873058319091797 95.7306900024414 17.0524959564209" stroke-width="1.0892857313156128" fill="none" stroke="rgb(114, 126, 152)" stroke-opacity="0.9584852" stroke-linecap="round" stroke-linejoin="round"/>
    <path d="M 72.4311752319336 81.08439636230469 C 66.1350326538086 82.9255142211914 65.3245620727539 81.42308044433594 57.59250259399414 85.28168487548828 C 53.26400375366211 81.42810821533203 52.68699264526367 74.58920288085938 57.52577590942383 75.468017578125" stroke-width="1.0892857313156128" fill="none" stroke="rgb(22, 206, 103)" stroke-opacity="0.17394333" stroke-linecap="round" stroke-linejoin="round"/>
    <path d="M 71.41207122802734 71.06495666503906 C 71.10504913330078 66.67627716064453 75.26779174804688 65.0295639038086 75.4554214477539 60.340431213378906 C 80.99425506591797 62.2203483581543 86.23035430908203 61.307193756103516 89.5226821899414 65.50495910644531" stroke-width="1.4487334489822388" fill="none" stroke="rgb(194, 0, 226)" stroke-opacity="0.90711915" stroke-linecap="round" stroke-linejoin="round"/>
    <path d="M 19.038217544555664 52.10556411743164 C 13.58720874786377 52.81775665283203 11.668697357177734 50.930877685546875 14.881707191467285 58.79730987548828 C 10.846774101257324 55.20916748046875 13.985677719116211 61.039093017578125 13.491744041442871 68.2745132446289" stroke-width="1.0892857313156128" fill="none" stroke="rgb(6, 162, 102)" stroke-opacity="0.6474895" stroke-linecap="round" stroke-linejoin="round"/>
    <path d="M 109.64221954345703 70.37173461914062 C 107.8897705078125 70.92764282226562 104.65766906738281 68.0298080444336 110.02436065673828 70.84845733642578 C 111.47322845458984 70.54376220703125 116.34471893310547 64.86746215820312 117.14253997802734 58.852874755859375" stroke-width="1.1870652437210083" fill="none" stroke="rgb(139, 165, 156)" stroke-opacity="0.52369434" stroke-linecap="round" stroke-linejoin="round"/>
    <path d="M 108.48580169677734 2.3331496715545654 C 108.42864990234375 0.7930323481559753 103.74817657470703 5.591538906097412 102.22200012207031 7.302746772766113 C 99.37535858154297 12.17576789855957 100.71896362304688 8.94384765625 99.22958374023438 7.458899974822998 C 95.41111755371094 10.12619400024414 92.69332885742188 12.251453399658203 89.37152862548828 15.396708488464355" stroke-width="1.5102217197418213" fill="none" stroke="rgb(183, 219, 49)" stroke-opacity="0.44743893" stroke-linecap="round" stroke-linejoin="round"/>
    <path d="M 92.10665893554688 53.83708572387695 C 90.62210083007812 54.34333801269531 88.8053207397461 58.97426223754883 93.41596221923828 53.450374603271484" stroke-width="1.0892857313156128" fill="none" stroke="rgb(213, 147, 162)" stroke-opacity="0.7389026" stroke-linecap="round" stroke-linejoin="round"/>
    <path d="M 27.447036743164062 15.108516693115234 C 30.73537826538086 18.831783294677734 30.381969451904297 19.70490074157715 25.852149963378906 19.648618698120117 C 27.713775634765625 14.35240364074707 19.63715934753418 10.019471168518066 14.888327598571777 10.266257286071777" stroke-width="1.0892857313156128" fill="none" stroke="rgb(130, 170, 143)" stroke-opacity="0.451603" stroke-linecap="round" stroke-linejoin="round"/>
  </g>
</svg>
