<?xml version="1.0" ?>
<svg xmlns="http://www.w3.org/2000/svg" version="1.1" width="956.0" height="956.0">
  <defs/>
  <g>
    <path d="M 92.96245574951172 93.35706329345703 C 96.53933715820312 118.34002685546875 95.05915832519531 131.06202697753906 95.94366455078125 147.9414825439453" stroke-width="1.7356772422790527" fill="none" stroke="rgb(109, 104, 104)" stroke-opacity="1.0" stroke-linecap="round" stroke-linejoin="round"/>
    <path d="M 62.113773345947266 137.78236389160156 C 74.22041320800781 129.34088134765625 79.37335968017578 127.98786926269531 95.22520446777344 120.96239471435547 C 104.85543060302734 123.19292449951172 124.1661148071289 122.01483154296875 130.5072479248047 120.21204376220703" stroke-width="1.7356772422790527" fill="none" stroke="rgb(109, 109, 104)" stroke-opacity="0.99" stroke-linecap="round" stroke-linejoin="round"/>
    <path d="M 65.0716552734375 107.23808288574219 C 62.30539321899414 124.03388214111328 59.591636657714844 140.68775939941406 57.753482818603516 158.18614196777344" stroke-width="1.7356772422790527" fill="none" stroke="rgb(143, 148, 143)" stroke-opacity="1.0" stroke-linecap="round" stroke-linejoin="round"/>
    <path d="M 109.69022369384766 109.36360931396484 C 112.3992691040039 135.21435546875 111.78692626953125 147.068603515625 113.53926086425781 163.9480438232422" stroke-width="1.7356772422790527" fill="none" stroke="rgb(148, 143, 143)" stroke-opacity="1.0" stroke-linecap="round" stroke-linejoin="round"/>
    <path d="M 129.71800231933594 94.8364028930664 C 131.1545867919922 115.1157455444336 133.20433044433594 131.05563354492188 134.43487548828125 149.4208526611328" stroke-width="1.7356772422790527" fill="none" stroke="rgb(143, 148, 143)" stroke-opacity="1.0" stroke-linecap="round" stroke-linejoin="round"/>
    <path d="M 62.11337661743164 137.78236389160156 C 76.9376449584961 141.62362670898438 94.05811309814453 139.53773498535156 111.08712005615234 136.96896362304688 C 120.68443298339844 132.77001953125 127.0023193359375 129.21839904785156 132.69107055664062 125.27284240722656" stroke-width="1.7356772422790527" fill="none" stroke="rgb(148, 143, 143)" stroke-opacity="0.99" stroke-linecap="round" stroke-linejoin="round"/>
    <path d="M 115.09164428710938 108.39666748046875 C 115.74870300292969 109.72050476074219 136.33912658691406 90.83688354492188 133.14794921875 84.31490325927734 C 129.20494079589844 80.24507141113281 96.16139221191406 78.4449691772461 85.35186004638672 83.81218719482422 C 75.50765991210938 88.33584594726562 55.77370834350586 98.96733093261719 58.53413009643555 104.77311706542969 C 62.16237258911133 112.31455993652344 115.64376068115234 108.93708038330078 115.0916519165039 108.39665985107422" stroke-width="1.7356772422790527" fill="none" stroke="rgb(132, 29, 30)" stroke-opacity="1.0" stroke-linecap="round" stroke-linejoin="round"/>
    <path d="M 121.81272888183594 87.47772216796875 C 112.22840881347656 87.23360443115234 103.12467193603516 86.87593078613281 94.12023162841797 86.32772827148438 C 89.39529418945312 87.7915267944336 74.12158203125 98.79237365722656 69.69633483886719 100.62860107421875 C 81.0762710571289 101.31675720214844 106.35356140136719 90.30812072753906 116.2625503540039 95.90672302246094" stroke-width="1.7356772422790527" fill="none" stroke="rgb(241, 0, 2)" stroke-opacity="1.0" stroke-linecap="round" stroke-linejoin="round"/>
    <path d="M 70.55286407470703 104.99279022216797 C 100.736328125 108.95845794677734 122.67780303955078 105.7684326171875 127.7943115234375 90.75409698486328" stroke-width="1.7356772422790527" fill="none" stroke="rgb(104, 21, 18)" stroke-opacity="1.0" stroke-linecap="round" stroke-linejoin="round"/>
    <path d="M 70.56410217285156 100.62860870361328 C 72.22064208984375 96.14911651611328 65.63261413574219 97.52940368652344 69.89698791503906 106.29264068603516" stroke-width="1.9092391729354858" fill="none" stroke="rgb(162, 191, 167)" stroke-opacity="0.95804995" stroke-linecap="round" stroke-linejoin="round"/>
    <path d="M 130.5074462890625 121.07987976074219 C 141.00682067871094 118.6875228881836 148.48988342285156 120.32659912109375 138.895263671875 128.58114624023438 C 147.1119842529297 131.12911987304688 146.16836547851562 134.026611328125 146.5381317138672 139.05096435546875" stroke-width="1.7356772422790527" fill="none" stroke="rgb(92, 72, 6)" stroke-opacity="0.6325495" stroke-linecap="round" stroke-linejoin="round"/>
    <path d="M 129.71835327148438 94.8363037109375 C 135.26318359375 104.06187438964844 140.7071075439453 98.92556762695312 144.7596435546875 93.06708526611328 C 151.93948364257812 99.40446472167969 152.05142211914062 95.9018783569336 153.99404907226562 92.46331787109375" stroke-width="1.7356772422790527" fill="none" stroke="rgb(216, 158, 152)" stroke-opacity="0.27266514" stroke-linecap="round" stroke-linejoin="round"/>
    <path d="M 121.81271362304688 88.34554290771484 C 115.33545684814453 90.47470092773438 110.92523193359375 88.6515121459961 105.52784729003906 91.23056030273438" stroke-width="1.7356772422790527" fill="none" stroke="rgb(9, 232, 153)" stroke-opacity="0.4637089" stroke-linecap="round" stroke-linejoin="round"/>
    <path d="M 69.69635009765625 100.62860870361328 C 66.23509979248047 102.81348419189453 68.92720794677734 99.20892333984375 62.2414665222168 96.08221435546875" stroke-width="1.7356772422790527" fill="none" stroke="rgb(32, 40, 71)" stroke-opacity="0.20154376" stroke-linecap="round" stroke-linejoin="round"/>
    <path d="M 113.53926086425781 163.08023071289062 C 107.54318237304688 166.11404418945312 101.08467102050781 173.20211791992188 103.63831329345703 172.6099853515625 C 97.06922912597656 181.0950469970703 101.66259765625 187.73184204101562 108.41162109375 191.1234588623047" stroke-width="1.909244179725647" fill="none" stroke="rgb(148, 19, 155)" stroke-opacity="0.5846738" stroke-linecap="round" stroke-linejoin="round"/>
    <path d="M 120.94490814208984 87.47772216796875 C 119.2408218383789 95.86504364013672 119.16795349121094 89.242431640625 124.66156005859375 83.87159729003906 C 130.4613494873047 75.90228271484375 122.74237060546875 79.25909423828125 132.0641326904297 77.32476043701172 C 128.41458129882812 70.86991119384766 125.50516510009766 78.38800811767578 126.48501586914062 69.18446350097656" stroke-width="1.9092447757720947" fill="none" stroke="rgb(44, 17, 250)" stroke-opacity="0.6900817" stroke-linecap="round" stroke-linejoin="round"/>
    <path d="M 70.54975891113281 104.9927978515625 C 61.1243896484375 109.37956237792969 61.99192428588867 118.17790222167969 65.67801666259766 119.35337829589844 C 72.61715698242188 120.82225799560547 67.09186553955078 117.3238754272461 63.13777542114258 120.5664291381836" stroke-width="1.7356772422790527" fill="none" stroke="rgb(22, 191, 232)" stroke-opacity="0.3137763" stroke-linecap="round" stroke-linejoin="round"/>
    <path d="M 108.41162109375 191.12332153320312 C 116.44002532958984 180.75125122070312 119.99929809570312 176.65536499023438 115.31822967529297 177.16375732421875 C 116.53767395019531 170.1794891357422 121.37559509277344 175.5208740234375 115.55420684814453 180.8751983642578 C 123.01667785644531 184.61492919921875 116.39632415771484 192.5212860107422 111.96495819091797 190.73744201660156" stroke-width="1.7356772422790527" fill="none" stroke="rgb(80, 117, 19)" stroke-opacity="0.79193" stroke-linecap="round" stroke-linejoin="round"/>
    <path d="M 108.41162109375 191.12342834472656 C 99.57473754882812 188.3728790283203 101.4997787475586 192.80313110351562 99.18212890625 193.2730712890625" stroke-width="1.7356772422790527" fill="none" stroke="rgb(53, 65, 118)" stroke-opacity="0.7568149" stroke-linecap="round" stroke-linejoin="round"/>
    <path d="M 108.41162109375 191.12342834472656 C 103.83006286621094 184.01072692871094 97.40849304199219 179.31460571289062 106.94623565673828 175.86521911621094 C 116.15191650390625 169.8802490234375 110.79072570800781 167.68869018554688 112.1673583984375 162.43858337402344" stroke-width="1.7356772422790527" fill="none" stroke="rgb(242, 14, 152)" stroke-opacity="0.5437619" stroke-linecap="round" stroke-linejoin="round"/>
    <path d="M 70.7647705078125 105.42487335205078 C 73.5953369140625 110.76551055908203 80.15042877197266 111.08633422851562 88.89095306396484 106.36674499511719" stroke-width="1.7356772422790527" fill="none" stroke="rgb(68, 85, 169)" stroke-opacity="0.84194803" stroke-linecap="round" stroke-linejoin="round"/>
    <path d="M 108.41162109375 190.25564575195312 C 115.56177520751953 194.0587921142578 112.78546905517578 199.64053344726562 118.92674255371094 192.2080078125" stroke-width="1.9092435836791992" fill="none" stroke="rgb(72, 92, 165)" stroke-opacity="0.07928269" stroke-linecap="round" stroke-linejoin="round"/>
    <path d="M 62.2414665222168 96.08201599121094 C 65.18840789794922 87.13725280761719 61.852298736572266 80.2734146118164 69.79146575927734 78.78659057617188 C 76.21944427490234 83.88441467285156 79.18858337402344 87.58959197998047 86.23698425292969 86.80247497558594" stroke-width="1.9092367887496948" fill="none" stroke="rgb(217, 59, 129)" stroke-opacity="0.14663836" stroke-linecap="round" stroke-linejoin="round"/>
    <path d="M 146.53811645507812 138.1833038330078 C 149.5001983642578 134.7548828125 152.86940002441406 125.76870727539062 147.184326171875 117.95365905761719" stroke-width="1.9092447757720947" fill="none" stroke="rgb(120, 66, 93)" stroke-opacity="0.7655497" stroke-linecap="round" stroke-linejoin="round"/>
    <path d="M 146.53811645507812 138.18325805664062 C 154.5962371826172 136.76416015625 159.84388732910156 138.17324829101562 151.87774658203125 135.307373046875 C 154.8965606689453 142.8900146484375 157.94122314453125 144.4878387451172 157.69729614257812 150.53060913085938" stroke-width="1.9092446565628052" fill="none" stroke="rgb(4, 8, 204)" stroke-opacity="0.20540178" stroke-linecap="round" stroke-linejoin="round"/>
    <path d="M 19.002182006835938 59.343013763427734 C 25.66065788269043 53.99394989013672 27.671552658081055 59.0727424621582 30.70159149169922 65.03655242919922 C 28.378402709960938 65.01974487304688 20.487380981445312 58.28879928588867 12.607632637023926 60.66807174682617" stroke-width="1.7356772422790527" fill="none" stroke="rgb(149, 168, 32)" stroke-opacity="0.29642698" stroke-linecap="round" stroke-linejoin="round"/>
    <path d="M 17.578012466430664 41.92006301879883 C 11.205954551696777 33.43727493286133 13.833885192871094 32.8690185546875 14.800542831420898 22.775087356567383" stroke-width="1.7356772422790527" fill="none" stroke="rgb(113, 190, 231)" stroke-opacity="0.35690117" stroke-linecap="round" stroke-linejoin="round"/>
    <path d="M 99.33132934570312 179.8207244873047 C 91.05017852783203 177.68373107910156 94.95467376708984 178.57496643066406 101.58010864257812 173.84837341308594 C 106.2328109741211 181.67910766601562 100.02816009521484 177.28536987304688 96.5724105834961 176.4868621826172 C 91.3606948852539 180.91778564453125 96.36720275878906 188.4888153076172 101.515625 195.81265258789062" stroke-width="1.7356772422790527" fill="none" stroke="rgb(230, 83, 108)" stroke-opacity="0.46644726" stroke-linecap="round" stroke-linejoin="round"/>
    <path d="M 5.155946731567383 38.52387619018555 C -3.0221784114837646 42.474464416503906 -2.3938887119293213 35.61186599731445 4.651503562927246 42.417755126953125 C 8.720778465270996 34.06149673461914 3.3507919311523438 33.17132568359375 -1.9466593265533447 35.73103332519531 C -10.382308006286621 39.17025375366211 -18.04036521911621 36.06977462768555 -24.723220825195312 30.87442970275879" stroke-width="1.7356772422790527" fill="none" stroke="rgb(34, 43, 193)" stroke-opacity="0.31560808" stroke-linecap="round" stroke-linejoin="round"/>
    <path d="M 179.5566864013672 142.96823120117188 C 177.23388671875 140.06790161132812 178.89706420898438 141.1841583251953 183.15789794921875 143.2650909423828" stroke-width="1.7356772422790527" fill="none" stroke="rgb(40, 11, 187)" stroke-opacity="0.19588149" stroke-linecap="round" stroke-linejoin="round"/>
    <path d="M 176.63253784179688 18.30295181274414 C 182.346435546875 20.166465759277344 176.50228881835938 25.1755428314209 166.82810974121094 32.42951202392578" stroke-width="1.9092447757720947" fill="none" stroke="rgb(155, 85, 251)" stroke-opacity="0.23951973" stroke-linecap="round" stroke-linejoin="round"/>
    <path d="M 102.62564849853516 151.8837432861328 C 100.98452758789062 161.38153076171875 96.32720184326172 154.62969970703125 99.32328796386719 158.76177978515625" stroke-width="1.909244179725647" fill="none" stroke="rgb(137, 192, 161)" stroke-opacity="0.5497501" stroke-linecap="round" stroke-linejoin="round"/>
    <path d="M 70.65846252441406 59.18568420410156 C 66.25105285644531 63.154075622558594 74.54713439941406 60.738468170166016 74.0172119140625 65.79248809814453" stroke-width="1.7356772422790527" fill="none" stroke="rgb(150, 139, 170)" stroke-opacity="0.59548384" stroke-linecap="round" stroke-linejoin="round"/>
    <path d="M 126.38324737548828 82.66431427001953 C 118.96405029296875 84.4368667602539 109.85137939453125 91.01568603515625 107.63648223876953 85.2140884399414" stroke-width="1.7356772422790527" fill="none" stroke="rgb(6, 209, 170)" stroke-opacity="0.7296766" stroke-linecap="round" stroke-linejoin="round"/>
    <path d="M 88.61206817626953 179.00233459472656 C 90.67179870605469 170.80850219726562 93.89613342285156 165.72164916992188 96.44534301757812 157.77061462402344 C 95.87931060791016 151.61239624023438 94.46245574951172 149.80374145507812 85.55537414550781 142.53269958496094 C 81.43772888183594 138.3983612060547 75.93077087402344 135.55555725097656 69.73570251464844 127.0077896118164" stroke-width="1.7356772422790527" fill="none" stroke="rgb(111, 242, 159)" stroke-opacity="0.9521765" stroke-linecap="round" stroke-linejoin="round"/>
    <path d="M 67.51324462890625 37.144412994384766 C 77.14898681640625 30.87264060974121 69.01802825927734 28.951881408691406 64.46266174316406 33.957366943359375 C 66.85114288330078 27.79024314880371 56.64375305175781 23.072471618652344 56.56906509399414 17.545948028564453 C 48.76543426513672 13.140944480895996 53.18205261230469 4.210405349731445 47.927120208740234 -1.893794059753418" stroke-width="1.7356772422790527" fill="none" stroke="rgb(108, 120, 112)" stroke-opacity="0.82630336" stroke-linecap="round" stroke-linejoin="round"/>
    <path d="M 71.3465805053711 2.999974250793457 C 78.60352325439453 -1.1957260370254517 77.1276626586914 4.212306976318359 70.01909637451172 1.273280382156372" stroke-width="1.9092447757720947" fill="none" stroke="rgb(226, 153, 57)" stroke-opacity="0.7400571" stroke-linecap="round" stroke-linejoin="round"/>
    <path d="M 49.334407806396484 113.66984558105469 C 51.83979034423828 112.43938446044922 56.98933792114258 104.57980346679688 64.6822509765625 112.41183471679688 C 65.23470306396484 116.87627410888672 69.44302368164062 121.13441467285156 76.19532012939453 115.34558868408203 C 74.98567199707031 110.07337188720703 69.82171630859375 105.29118347167969 77.750732421875 107.79681396484375" stroke-width="1.7356772422790527" fill="none" stroke="rgb(135, 53, 230)" stroke-opacity="0.7055626" stroke-linecap="round" stroke-linejoin="round"/>
    <path d="M 121.4039077758789 115.3417739868164 C 121.04268646240234 118.73065185546875 116.3508529663086 116.49201202392578 113.11511993408203 122.91394805908203" stroke-width="1.909238576889038" fill="none" stroke="rgb(74, 68, 55)" stroke-opacity="0.15587404" stroke-linecap="round" stroke-linejoin="round"/>
    <path d="M 168.03314208984375 142.52804565429688 C 161.8795623779297 148.51853942871094 155.47769165039062 143.6692352294922 147.4842071533203 139.19122314453125 C 149.33248901367188 139.25881958007812 142.0111846923828 139.87477111816406 144.10401916503906 141.67832946777344 C 139.44476318359375 135.82608032226562 130.7625274658203 142.23284912109375 125.65597534179688 142.13343811035156" stroke-width="1.7356772422790527" fill="none" stroke="rgb(60, 196, 207)" stroke-opacity="0.50674516" stroke-linecap="round" stroke-linejoin="round"/>
    <path d="M 61.121192932128906 3.5088319778442383 C 69.61161804199219 -0.4874061346054077 79.2061996459961 8.730619430541992 74.56359100341797 10.374464988708496 C 71.63056182861328 1.5334545373916626 62.5198974609375 10.2816162109375 70.42127227783203 4.001954555511475" stroke-width="1.9092446565628052" fill="none" stroke="rgb(202, 236, 194)" stroke-opacity="0.38950717" stroke-linecap="round" stroke-linejoin="round"/>
  </g>
</svg>
