<?xml version="1.0" ?>
<svg xmlns="http://www.w3.org/2000/svg" version="1.1" width="1104.0" height="1104.0">
  <defs/>
  <g>
    <path d="M 24.467432022094727 66.87439727783203 C 86.12374114990234 78.45459747314453 159.37301635742188 67.51419830322266 159.69210815429688 64.0871353149414 C 161.70809936523438 63.2155647277832 141.925048828125 48.197227478027344 122.3779067993164 53.00766372680664" stroke-width="1.5848214626312256" fill="none" stroke="rgb(1, 0, 7)" stroke-opacity="0.9637505" stroke-linecap="round" stroke-linejoin="round"/>
    <path d="M 59.803550720214844 76.50935363769531 C 56.97828674316406 111.84049987792969 49.575050354003906 148.40841674804688 58.39850997924805 151.09890747070312 C 69.37908935546875 151.54270935058594 110.0288314819336 144.20118713378906 117.35362243652344 127.09176635742188 C 122.01850891113281 107.15478515625 122.1508560180664 99.15320587158203 124.54341125488281 100.67158508300781" stroke-width="1.58589506149292" fill="none" stroke="rgb(8, 0, 1)" stroke-opacity="0.98854816" stroke-linecap="round" stroke-linejoin="round"/>
    <path d="M 122.33316802978516 76.75997161865234 C 138.2283935546875 75.3188247680664 142.40179443359375 71.53056335449219 139.08338928222656 77.61634063720703 C 138.9555206298828 85.4800796508789 136.07058715820312 88.31118774414062 131.2462921142578 97.62982940673828 C 127.93283081054688 106.57840728759766 136.09353637695312 110.7618408203125 128.10842895507812 107.92251586914062" stroke-width="1.6049636602401733" fill="none" stroke="rgb(4, 0, 4)" stroke-opacity="0.9745951" stroke-linecap="round" stroke-linejoin="round"/>
    <path d="M 72.55558013916016 87.99268341064453 C 69.91654968261719 97.72388458251953 64.85646057128906 115.3014144897461 65.3295669555664 115.91353607177734 C 66.60314178466797 114.71334838867188 75.61241912841797 115.4764404296875 76.27130126953125 116.60539245605469" stroke-width="1.90175199508667" fill="none" stroke="rgb(0, 4, 0)" stroke-opacity="1.0" stroke-linecap="round" stroke-linejoin="round"/>
    <path d="M 60.808956146240234 85.99325561523438 C 69.81698608398438 85.12045288085938 63.7437629699707 86.53773498535156 71.70587158203125 88.62429809570312" stroke-width="1.5975487232208252" fill="none" stroke="rgb(0, 3, 4)" stroke-opacity="0.98910266" stroke-linecap="round" stroke-linejoin="round"/>
    <path d="M 87.59911346435547 88.93803405761719 C 94.63204956054688 89.57928466796875 87.4973373413086 92.46974182128906 93.69071960449219 91.1312484741211" stroke-width="1.5848214626312256" fill="none" stroke="rgb(0, 9, 0)" stroke-opacity="0.9631227" stroke-linecap="round" stroke-linejoin="round"/>
    <path d="M 66.35731506347656 125.93085479736328 C 85.19417572021484 127.72537231445312 87.06744384765625 126.43567657470703 87.19244384765625 126.2478256225586" stroke-width="1.5848214626312256" fill="none" stroke="rgb(3, 4, 0)" stroke-opacity="0.97226495" stroke-linecap="round" stroke-linejoin="round"/>
    <path d="M 114.8966293334961 124.54725646972656 C 112.31995391845703 131.99737548828125 119.8910903930664 138.39822387695312 128.2068634033203 134.9554901123047" stroke-width="1.5848214626312256" fill="none" stroke="rgb(225, 237, 79)" stroke-opacity="0.3390177" stroke-linecap="round" stroke-linejoin="round"/>
    <path d="M 126.24433898925781 107.80201721191406 C 123.81037902832031 105.51342010498047 119.5609130859375 113.39816284179688 120.64451599121094 114.7064437866211" stroke-width="1.5848214626312256" fill="none" stroke="rgb(106, 161, 94)" stroke-opacity="0.5575306" stroke-linecap="round" stroke-linejoin="round"/>
    <path d="M 123.23714447021484 98.89592742919922 C 117.45399475097656 107.30486297607422 123.88679504394531 101.77633666992188 133.5972442626953 94.6910400390625 C 127.71127319335938 89.71415710449219 128.60433959960938 90.39389038085938 128.5603790283203 82.9279556274414" stroke-width="2.182643413543701" fill="none" stroke="rgb(255, 31, 33)" stroke-opacity="0.8143197" stroke-linecap="round" stroke-linejoin="round"/>
    <path d="M 123.03340911865234 76.64899444580078 C 121.68379974365234 74.39359283447266 116.44910430908203 79.2619857788086 109.08708190917969 85.34502410888672 C 110.6520004272461 90.83528137207031 112.88887786865234 92.9590072631836 114.26992797851562 83.88725280761719 C 111.97664642333984 86.79631805419922 111.63419342041016 95.84835815429688 114.48036193847656 89.97687530517578" stroke-width="2.1242997646331787" fill="none" stroke="rgb(164, 255, 222)" stroke-opacity="0.9542782" stroke-linecap="round" stroke-linejoin="round"/>
    <path d="M 124.5041732788086 99.64384460449219 C 114.8399658203125 100.51685333251953 111.05309295654297 110.3463363647461 119.26805114746094 111.85677337646484 C 128.03311157226562 114.18966674804688 122.52877044677734 123.1680679321289 123.46289825439453 128.224609375" stroke-width="2.0405259132385254" fill="none" stroke="rgb(178, 39, 252)" stroke-opacity="0.44257063" stroke-linecap="round" stroke-linejoin="round"/>
    <path d="M 61.06047058105469 87.0457534790039 C 56.20137023925781 82.16717529296875 49.570987701416016 72.91954803466797 42.138160705566406 79.86483001708984" stroke-width="1.5848214626312256" fill="none" stroke="rgb(20, 166, 17)" stroke-opacity="0.3642526" stroke-linecap="round" stroke-linejoin="round"/>
    <path d="M 61.650264739990234 85.79443359375 C 56.497379302978516 89.83411407470703 61.137630462646484 98.42386627197266 67.08670043945312 93.33845520019531 C 62.21015548706055 93.39476013183594 66.22136688232422 91.93301391601562 66.10374450683594 90.11625671386719" stroke-width="1.5848214626312256" fill="none" stroke="rgb(149, 15, 211)" stroke-opacity="0.04554289" stroke-linecap="round" stroke-linejoin="round"/>
    <path d="M 58.75804138183594 149.35336303710938 C 51.24260711669922 145.6964569091797 59.872291564941406 140.24343872070312 61.734779357910156 144.40599060058594 C 69.84835052490234 145.91969299316406 64.52163696289062 143.51315307617188 69.0301513671875 147.3232879638672 C 62.893043518066406 139.2550506591797 66.8553466796875 137.62033081054688 66.23775482177734 136.41432189941406" stroke-width="1.6625853776931763" fill="none" stroke="rgb(163, 50, 228)" stroke-opacity="0.051064998" stroke-linecap="round" stroke-linejoin="round"/>
    <path d="M 128.44497680664062 82.6844482421875 C 121.53876495361328 89.2802963256836 127.25871276855469 90.64808654785156 123.26976776123047 98.77896881103516 C 115.09007263183594 102.1121597290039 112.5055160522461 108.10559844970703 114.02742767333984 106.16532135009766" stroke-width="1.5848214626312256" fill="none" stroke="rgb(143, 197, 240)" stroke-opacity="0.06421598" stroke-linecap="round" stroke-linejoin="round"/>
    <path d="M 127.56007385253906 135.23806762695312 C 118.3927230834961 140.38670349121094 117.9752197265625 142.5037841796875 112.96797943115234 149.71240234375" stroke-width="1.5848214626312256" fill="none" stroke="rgb(214, 142, 190)" stroke-opacity="0.17560428" stroke-linecap="round" stroke-linejoin="round"/>
    <path d="M 43.41504669189453 79.57075500488281 C 45.92976760864258 88.98607635498047 40.93623352050781 82.2334976196289 46.66431427001953 90.52931213378906 C 37.91184616088867 90.25582122802734 45.79194259643555 90.90006256103516 46.588722229003906 96.15902709960938 C 37.8741569519043 98.83392333984375 43.57871627807617 100.71724700927734 50.66144943237305 102.13658905029297" stroke-width="1.6202343702316284" fill="none" stroke="rgb(189, 169, 186)" stroke-opacity="0.7762108" stroke-linecap="round" stroke-linejoin="round"/>
    <path d="M 42.96639633178711 79.93586730957031 C 37.76099395751953 71.10884857177734 35.4449348449707 74.64491271972656 33.53165817260742 74.64534759521484 C 36.36798858642578 67.44112396240234 40.778648376464844 71.61111450195312 49.2187385559082 61.93060302734375" stroke-width="1.5848214626312256" fill="none" stroke="rgb(87, 118, 21)" stroke-opacity="0.06220209" stroke-linecap="round" stroke-linejoin="round"/>
    <path d="M 128.5767059326172 82.8735580444336 C 128.34088134765625 86.89167785644531 133.34046936035156 84.10364532470703 133.4391326904297 86.18353271484375 C 132.32281494140625 84.40699768066406 135.40081787109375 77.85104370117188 142.11524963378906 78.52599334716797" stroke-width="1.7192020416259766" fill="none" stroke="rgb(168, 242, 113)" stroke-opacity="0.46569362" stroke-linecap="round" stroke-linejoin="round"/>
    <path d="M 128.8031005859375 82.51231384277344 C 130.39634704589844 92.56835174560547 132.61996459960938 89.34139251708984 132.25367736816406 95.27378845214844 C 137.623046875 90.0771484375 140.73178100585938 89.01820373535156 138.05929565429688 86.57289123535156 C 146.8028564453125 92.2275390625 143.6344757080078 83.37532043457031 146.49620056152344 78.52398681640625" stroke-width="1.6438508033752441" fill="none" stroke="rgb(175, 75, 202)" stroke-opacity="1.0" stroke-linecap="round" stroke-linejoin="round"/>
    <path d="M 42.513729095458984 81.14027404785156 C 41.116424560546875 86.4634780883789 40.792415618896484 95.79619598388672 39.19065475463867 90.34661865234375 C 30.147043228149414 84.43881225585938 21.487085342407227 86.58698272705078 18.378847122192383 78.8111572265625 C 10.969320297241211 71.66324615478516 15.523894309997559 64.5188980102539 10.155851364135742 56.952247619628906" stroke-width="2.1942832469940186" fill="none" stroke="rgb(199, 231, 111)" stroke-opacity="0.18350545" stroke-linecap="round" stroke-linejoin="round"/>
    <path d="M 120.53731536865234 117.40731048583984 C 127.67687225341797 121.90579986572266 134.55508422851562 119.85716247558594 131.0467987060547 114.04769897460938" stroke-width="1.6747523546218872" fill="none" stroke="rgb(123, 33, 130)" stroke-opacity="0.6328514" stroke-linecap="round" stroke-linejoin="round"/>
    <path d="M 9.267600059509277 18.165054321289062 C 13.889932632446289 24.99713706970215 15.672165870666504 29.168582916259766 23.679004669189453 20.454927444458008 C 25.235015869140625 14.990636825561523 28.177104949951172 21.702747344970703 30.030921936035156 21.004335403442383 C 22.25798797607422 17.984865188598633 23.77269172668457 18.89616584777832 25.648935317993164 23.964923858642578" stroke-width="1.5848214626312256" fill="none" stroke="rgb(207, 225, 90)" stroke-opacity="0.80743897" stroke-linecap="round" stroke-linejoin="round"/>
    <path d="M 63.22269058227539 86.35979461669922 C 69.02898406982422 82.87538146972656 64.15978240966797 79.4748764038086 61.823387145996094 73.15904235839844 C 63.165035247802734 75.13592529296875 62.01930618286133 78.7266845703125 67.85807800292969 77.94383239746094" stroke-width="1.5848214626312256" fill="none" stroke="rgb(55, 47, 29)" stroke-opacity="0.80061305" stroke-linecap="round" stroke-linejoin="round"/>
    <path d="M 101.81102752685547 121.1650619506836 C 103.89514923095703 127.6455307006836 97.45592498779297 126.94722747802734 88.36474609375 127.03106689453125 C 88.60114288330078 127.8724365234375 93.81324768066406 125.09271240234375 89.79651641845703 126.42919158935547 C 91.37787628173828 128.14231872558594 90.17024993896484 135.03335571289062 84.19743347167969 128.0238037109375" stroke-width="1.8382090330123901" fill="none" stroke="rgb(233, 190, 238)" stroke-opacity="0.4045776" stroke-linecap="round" stroke-linejoin="round"/>
    <path d="M 117.0618896484375 54.59617614746094 C 124.38204956054688 49.35599899291992 122.43219757080078 50.915382385253906 123.65206909179688 40.810306549072266 C 130.10580444335938 38.21263122558594 123.00614166259766 43.70002365112305 128.6063690185547 43.72772216796875" stroke-width="1.9170098304748535" fill="none" stroke="rgb(75, 91, 0)" stroke-opacity="0.7899038" stroke-linecap="round" stroke-linejoin="round"/>
    <path d="M 7.555866718292236 32.91404724121094 C 6.04560661315918 36.886478424072266 1.6260207891464233 36.92976760864258 8.687695503234863 44.928253173828125" stroke-width="1.5848214626312256" fill="none" stroke="rgb(223, 224, 10)" stroke-opacity="0.39159164" stroke-linecap="round" stroke-linejoin="round"/>
    <path d="M 28.2537784576416 58.157779693603516 C 35.08919906616211 64.97463989257812 38.996700286865234 64.8187484741211 50.12730026245117 61.03000259399414 C 49.88511657714844 66.16404724121094 47.49397277832031 56.780338287353516 53.576133728027344 51.56291580200195" stroke-width="1.5848214626312256" fill="none" stroke="rgb(116, 196, 102)" stroke-opacity="0.017831549" stroke-linecap="round" stroke-linejoin="round"/>
    <path d="M 54.60115432739258 66.74983978271484 C 60.65758514404297 59.39533996582031 57.51150131225586 60.13444519042969 66.61709594726562 60.72324752807617 C 71.54906463623047 62.04032516479492 68.74787139892578 56.55302429199219 64.1690673828125 64.98213958740234" stroke-width="1.5848214626312256" fill="none" stroke="rgb(30, 160, 117)" stroke-opacity="0.041733403" stroke-linecap="round" stroke-linejoin="round"/>
    <path d="M 66.68888092041016 30.990201950073242 C 62.30073928833008 38.519866943359375 54.75957107543945 31.012693405151367 57.74005126953125 23.23910140991211 C 64.69547271728516 16.65201187133789 70.34718322753906 6.661860942840576 64.09481048583984 12.035940170288086 C 69.78382873535156 18.687374114990234 74.8722152709961 17.344552993774414 73.90090942382812 14.912731170654297" stroke-width="1.5848214626312256" fill="none" stroke="rgb(45, 243, 98)" stroke-opacity="0.448982" stroke-linecap="round" stroke-linejoin="round"/>
    <path d="M 58.45204162597656 92.6083755493164 C 61.96053695678711 95.92943572998047 57.928951263427734 98.6394271850586 59.71113204956055 96.55621337890625 C 61.666561126708984 98.388916015625 56.502296447753906 99.37176513671875 51.26593017578125 106.52740478515625" stroke-width="1.5848214626312256" fill="none" stroke="rgb(46, 117, 152)" stroke-opacity="0.115112536" stroke-linecap="round" stroke-linejoin="round"/>
    <path d="M 38.984527587890625 93.22522735595703 C 35.15089416503906 101.65623474121094 42.63480758666992 109.39105987548828 46.626068115234375 104.71839904785156" stroke-width="1.5848214626312256" fill="none" stroke="rgb(220, 255, 12)" stroke-opacity="0.8733132" stroke-linecap="round" stroke-linejoin="round"/>
    <path d="M 74.22259521484375 105.04318237304688 C 72.90325164794922 110.51927947998047 73.16853332519531 112.62654876708984 68.72171020507812 106.4078140258789 C 76.22834014892578 99.37570190429688 76.2761001586914 91.71196746826172 83.47987365722656 84.54769134521484" stroke-width="2.0646417140960693" fill="none" stroke="rgb(93, 242, 35)" stroke-opacity="0.89663106" stroke-linecap="round" stroke-linejoin="round"/>
    <path d="M 112.59737396240234 73.52543640136719 C 122.70993041992188 71.97545623779297 118.7100830078125 74.4986343383789 118.79971313476562 78.12831115722656" stroke-width="1.5848214626312256" fill="none" stroke="rgb(122, 242, 108)" stroke-opacity="0.931489" stroke-linecap="round" stroke-linejoin="round"/>
    <path d="M 172.1321258544922 85.84521484375 C 173.52151489257812 88.01636505126953 184.11170959472656 82.89533996582031 176.11495971679688 92.80574798583984" stroke-width="1.5848214626312256" fill="none" stroke="rgb(149, 242, 124)" stroke-opacity="0.48418492" stroke-linecap="round" stroke-linejoin="round"/>
    <path d="M 32.54257583618164 138.79452514648438 C 36.789031982421875 137.11927795410156 36.862606048583984 134.8621063232422 33.22937774658203 144.86532592773438 C 25.423738479614258 144.80828857421875 33.80095291137695 142.1968536376953 35.220062255859375 148.80711364746094 C 31.590890884399414 153.6857452392578 30.844154357910156 145.16090393066406 34.55640411376953 155.70960998535156" stroke-width="1.5848214626312256" fill="none" stroke="rgb(163, 174, 103)" stroke-opacity="0.1909007" stroke-linecap="round" stroke-linejoin="round"/>
    <path d="M 131.1355743408203 2.293522596359253 C 130.8604278564453 8.380084991455078 121.67878723144531 10.73583698272705 119.42826080322266 16.904685974121094 C 122.3168716430664 15.718860626220703 119.2120132446289 8.790266036987305 113.84919738769531 14.433576583862305 C 118.82459259033203 12.35810661315918 115.76873016357422 10.848916053771973 112.10603332519531 6.319055557250977" stroke-width="1.5848214626312256" fill="none" stroke="rgb(82, 183, 247)" stroke-opacity="0.013857877" stroke-linecap="round" stroke-linejoin="round"/>
    <path d="M 124.8111343383789 5.445331573486328 C 122.9044189453125 -0.8121203780174255 119.00354766845703 -7.901913642883301 114.99235534667969 -12.778190612792969" stroke-width="1.5848214626312256" fill="none" stroke="rgb(15, 89, 242)" stroke-opacity="0.024159739" stroke-linecap="round" stroke-linejoin="round"/>
  </g>
</svg>
