<?xml version="1.0" ?>
<svg xmlns="http://www.w3.org/2000/svg" version="1.1" width="956.0" height="956.0">
  <defs/>
  <g>
    <path d="M 14.349413871765137 67.88968658447266 C 30.44798469543457 68.84668731689453 46.32893753051758 71.039794921875 64.31656646728516 72.72349548339844 C 80.4359130859375 74.28081512451172 95.17475891113281 72.36026763916016 108.77507781982422 71.05329132080078" stroke-width="1.0892857313156128" fill="none" stroke="rgb(19, 8, 3)" stroke-opacity="0.8911688" stroke-linecap="round" stroke-linejoin="round"/>
    <path d="M 60.63679122924805 72.68672943115234 C 61.60926055908203 69.0511474609375 62.28767013549805 68.93126678466797 63.96963882446289 66.11106872558594" stroke-width="1.403115153312683" fill="none" stroke="rgb(25, 0, 0)" stroke-opacity="1.0" stroke-linecap="round" stroke-linejoin="round"/>
    <path d="M 56.503395080566406 71.25337219238281 C 58.59029006958008 69.83377075195312 59.47378921508789 68.16996002197266 60.050384521484375 66.4500732421875 C 61.43364715576172 64.80097198486328 85.79679107666016 64.00334930419922 110.30171966552734 63.59362030029297" stroke-width="1.360908031463623" fill="none" stroke="rgb(17, 23, 0)" stroke-opacity="0.9834083" stroke-linecap="round" stroke-linejoin="round"/>
    <path d="M 16.064695358276367 80.79904174804688 C 20.938936233520508 87.45484161376953 23.996702194213867 95.26944732666016 35.4616584777832 98.46390533447266 C 47.831302642822266 101.20008087158203 67.7863998413086 98.05680847167969 87.16012573242188 95.2623291015625 C 107.96195983886719 93.07269287109375 106.95893096923828 87.66007995605469 104.12822723388672 81.96776580810547" stroke-width="1.2153712511062622" fill="none" stroke="rgb(0, 16, 0)" stroke-opacity="0.9899144" stroke-linecap="round" stroke-linejoin="round"/>
    <path d="M 25.809717178344727 89.20429992675781 C 29.870561599731445 88.99421691894531 32.572509765625 89.80615997314453 34.274749755859375 91.80068969726562 C 37.899925231933594 91.19987487792969 39.8667106628418 90.07817077636719 43.08454895019531 90.49609375" stroke-width="1.0927293300628662" fill="none" stroke="rgb(10, 15, 7)" stroke-opacity="0.93069834" stroke-linecap="round" stroke-linejoin="round"/>
    <path d="M 34.11856460571289 90.40850830078125 C 35.135311126708984 84.31678009033203 37.02191925048828 77.93245697021484 36.538818359375 76.22162628173828 C 36.87356948852539 74.74693298339844 33.33247375488281 77.15655517578125 33.921875 76.2350082397461 C 32.839019775390625 75.39679718017578 32.988304138183594 71.68205261230469 32.80794906616211 70.43582153320312 C 35.573421478271484 69.3040771484375 36.119873046875 70.90621185302734 36.40435028076172 72.69110107421875 C 36.04195022583008 75.41748809814453 36.68603515625 76.8840103149414 36.4850959777832 78.61132049560547" stroke-width="1.525849461555481" fill="none" stroke="rgb(32, 0, 0)" stroke-opacity="1.0" stroke-linecap="round" stroke-linejoin="round"/>
    <path d="M 33.27324676513672 78.2543716430664 C 33.26161193847656 78.4865493774414 35.32712173461914 78.1773452758789 37.557777404785156 78.11748504638672" stroke-width="1.3278635740280151" fill="none" stroke="rgb(29, 0, 4)" stroke-opacity="1.0" stroke-linecap="round" stroke-linejoin="round"/>
    <path d="M 13.116761207580566 67.83978271484375 C 11.483362197875977 72.50994873046875 8.153383255004883 76.2843246459961 16.557497024536133 77.0124282836914 C 26.352317810058594 79.3675765991211 45.59336853027344 80.86422729492188 62.61952590942383 80.80411529541016 C 78.3844985961914 81.3151626586914 92.771484375 79.39421081542969 107.60082244873047 77.39826202392578 C 122.2618179321289 77.85987091064453 115.37686920166016 71.30421447753906 109.36474609375 64.08857727050781" stroke-width="1.120399832725525" fill="none" stroke="rgb(2, 21, 0)" stroke-opacity="0.9948168" stroke-linecap="round" stroke-linejoin="round"/>
    <path d="M 112.86964416503906 61.78070831298828 C 114.84281921386719 62.7072639465332 117.12037658691406 63.46706008911133 118.35189819335938 65.146728515625 C 119.86943817138672 64.57854461669922 122.01897430419922 59.90046310424805 124.204833984375 55.290409088134766" stroke-width="1.0892857313156128" fill="none" stroke="rgb(121, 48, 114)" stroke-opacity="0.18691526" stroke-linecap="round" stroke-linejoin="round"/>
    <path d="M 34.81591033935547 78.02417755126953 C 37.7879638671875 77.61067199707031 39.0506591796875 77.58856964111328 40.804073333740234 77.70962524414062 C 41.49412536621094 77.5396728515625 40.50944519042969 84.80533599853516 40.44660949707031 90.83164978027344" stroke-width="1.477266788482666" fill="none" stroke="rgb(165, 96, 29)" stroke-opacity="0.27588814" stroke-linecap="round" stroke-linejoin="round"/>
    <path d="M 35.74270248413086 76.05265045166016 C 39.05048751831055 80.8440933227539 40.95704650878906 85.15386199951172 40.51293182373047 89.16554260253906 C 43.086761474609375 90.23175811767578 43.542972564697266 90.7016372680664 43.978702545166016 91.07557678222656 C 45.12018966674805 89.43384552001953 43.759971618652344 97.77490997314453 42.19391632080078 107.68578338623047" stroke-width="1.3526556491851807" fill="none" stroke="rgb(254, 85, 60)" stroke-opacity="0.42555362" stroke-linecap="round" stroke-linejoin="round"/>
    <path d="M 34.033782958984375 71.9715576171875 C 36.88499450683594 73.85498809814453 39.329132080078125 74.79386901855469 39.805198669433594 73.42744445800781 C 40.76308059692383 71.48738861083984 40.38269805908203 68.65361022949219 38.90880584716797 63.87017059326172 C 40.69673156738281 60.90794372558594 37.22539138793945 61.957679748535156 32.09230041503906 61.21926498413086" stroke-width="2.3104920387268066" fill="none" stroke="rgb(162, 0, 3)" stroke-opacity="0.73956746" stroke-linecap="round" stroke-linejoin="round"/>
    <path d="M 60.06240463256836 69.93997192382812 C 66.22772979736328 63.87154006958008 70.9229965209961 67.4001693725586 71.54345703125 67.72433471679688" stroke-width="2.1070408821105957" fill="none" stroke="rgb(229, 0, 13)" stroke-opacity="0.5813058" stroke-linecap="round" stroke-linejoin="round"/>
    <path d="M 19.667999267578125 78.52291870117188 C 21.60089111328125 75.01203155517578 22.61018943786621 79.64253234863281 24.103179931640625 79.74226379394531" stroke-width="1.0892857313156128" fill="none" stroke="rgb(9, 171, 109)" stroke-opacity="0.0362257" stroke-linecap="round" stroke-linejoin="round"/>
    <path d="M 13.510856628417969 67.8885726928711 C 19.48933982849121 65.53285217285156 25.162126541137695 62.94902420043945 27.150325775146484 62.33150100708008 C 28.203201293945312 59.56275177001953 26.800945281982422 61.72421646118164 26.244169235229492 63.86920928955078 C 23.275815963745117 65.53317260742188 26.20926856994629 69.62151336669922 29.61318016052246 73.1659164428711" stroke-width="1.2835336923599243" fill="none" stroke="rgb(197, 92, 101)" stroke-opacity="0.463289" stroke-linecap="round" stroke-linejoin="round"/>
    <path d="M 13.284679412841797 67.48094940185547 C 13.763901710510254 64.20470428466797 16.75737953186035 65.72341918945312 13.996265411376953 67.7714614868164" stroke-width="1.0892857313156128" fill="none" stroke="rgb(251, 96, 146)" stroke-opacity="0.64119494" stroke-linecap="round" stroke-linejoin="round"/>
    <path d="M 126.92893981933594 56.119327545166016 C 122.77290344238281 60.2512321472168 118.64179992675781 64.4120101928711 115.26063537597656 69.38333892822266 C 111.39060974121094 73.79914093017578 118.69427490234375 67.80872344970703 125.91111755371094 61.78868103027344" stroke-width="1.1174854040145874" fill="none" stroke="rgb(213, 34, 31)" stroke-opacity="0.38945118" stroke-linecap="round" stroke-linejoin="round"/>
    <path d="M 72.00076293945312 68.11136627197266 C 70.45507049560547 73.20256805419922 68.61954498291016 78.09062194824219 68.25227355957031 79.5810775756836 C 67.17484283447266 79.48324584960938 70.1388931274414 78.5927734375 75.09489440917969 78.11217498779297 C 77.9216079711914 78.79032135009766 76.59492492675781 73.41407012939453 76.01235961914062 68.19144439697266" stroke-width="1.0892857313156128" fill="none" stroke="rgb(0, 255, 212)" stroke-opacity="0.7710669" stroke-linecap="round" stroke-linejoin="round"/>
    <path d="M 42.62903594970703 105.25887298583984 C 48.979949951171875 102.3415756225586 50.7395133972168 102.75496673583984 48.19609069824219 108.17645263671875" stroke-width="1.2559655904769897" fill="none" stroke="rgb(147, 255, 5)" stroke-opacity="0.10634968" stroke-linecap="round" stroke-linejoin="round"/>
    <path d="M 126.01380157470703 57.69136428833008 C 129.67015075683594 59.11388397216797 133.32647705078125 60.536399841308594 136.98281860351562 61.95892333984375 C 140.63916015625 63.381439208984375 138.24185180664062 65.98736572265625 135.8445587158203 68.59327697753906" stroke-width="1.0892857313156128" fill="none" stroke="rgb(176, 73, 246)" stroke-opacity="0.22044" stroke-linecap="round" stroke-linejoin="round"/>
    <path d="M 126.61302947998047 57.12010192871094 C 123.987548828125 55.82521438598633 121.38983917236328 54.50107192993164 118.93148040771484 53.183650970458984 C 116.25465393066406 52.16481018066406 116.49349975585938 55.755672454833984 115.50818634033203 59.15848922729492" stroke-width="1.0892857313156128" fill="none" stroke="rgb(187, 119, 189)" stroke-opacity="0.01830133" stroke-linecap="round" stroke-linejoin="round"/>
    <path d="M 40.54267501831055 90.79129791259766 C 37.69586181640625 92.13224029541016 37.20397186279297 94.89501190185547 35.8580207824707 96.95539093017578 C 33.67060089111328 98.17191314697266 30.467275619506836 102.66678619384766 27.4086856842041 107.70905303955078" stroke-width="1.3071049451828003" fill="none" stroke="rgb(142, 148, 99)" stroke-opacity="0.4456035" stroke-linecap="round" stroke-linejoin="round"/>
    <path d="M 104.18399047851562 82.97109985351562 C 104.18009948730469 79.45173645019531 101.22460174560547 78.4329605102539 105.31832885742188 83.5214614868164 C 101.88408660888672 78.213623046875 98.79073333740234 82.03492736816406 101.1247329711914 84.67949676513672 C 104.71329498291016 88.50777435302734 104.05406951904297 92.69718933105469 99.13536071777344 91.4627456665039" stroke-width="1.354349136352539" fill="none" stroke="rgb(244, 233, 117)" stroke-opacity="0.26493743" stroke-linecap="round" stroke-linejoin="round"/>
    <path d="M 30.48571014404297 73.93917846679688 C 25.868206024169922 73.61207580566406 30.69321632385254 73.50920867919922 27.344308853149414 71.7679443359375 C 33.63328552246094 71.90084838867188 37.23406219482422 75.05671691894531 31.79298973083496 77.54946899414062" stroke-width="1.2379982471466064" fill="none" stroke="rgb(172, 45, 70)" stroke-opacity="0.81338906" stroke-linecap="round" stroke-linejoin="round"/>
    <path d="M 30.023605346679688 73.95860290527344 C 33.20198440551758 73.50126647949219 30.897642135620117 79.59256744384766 28.8348445892334 75.29559326171875 C 34.90597152709961 70.65110778808594 30.54607391357422 69.43348693847656 28.71521759033203 71.79476928710938" stroke-width="1.0892857313156128" fill="none" stroke="rgb(255, 43, 122)" stroke-opacity="0.35879803" stroke-linecap="round" stroke-linejoin="round"/>
    <path d="M 107.77545928955078 78.91639709472656 C 107.86730194091797 81.52490234375 102.84256744384766 76.60248565673828 96.55464935302734 71.85334014892578" stroke-width="1.0892857313156128" fill="none" stroke="rgb(143, 227, 63)" stroke-opacity="0.011810489" stroke-linecap="round" stroke-linejoin="round"/>
    <path d="M 35.72541046142578 73.8784408569336 C 37.481101989746094 78.22162628173828 34.73796463012695 76.36371612548828 40.004844665527344 81.87576293945312" stroke-width="1.0892857313156128" fill="none" stroke="rgb(14, 71, 138)" stroke-opacity="0.007580053" stroke-linecap="round" stroke-linejoin="round"/>
    <path d="M 112.12254333496094 63.67124938964844 C 112.47148895263672 59.701568603515625 108.32718658447266 60.15352249145508 106.23108673095703 62.13951873779297 C 107.63477325439453 56.69473648071289 106.50686645507812 61.850337982177734 106.68816375732422 60.2042236328125" stroke-width="1.0892857313156128" fill="none" stroke="rgb(37, 73, 28)" stroke-opacity="0.4668989" stroke-linecap="round" stroke-linejoin="round"/>
    <path d="M 108.52767181396484 64.50282287597656 C 110.47603607177734 63.946128845214844 106.3238754272461 66.24889373779297 108.20233917236328 61.40036392211914 C 108.73673248291016 61.98196792602539 104.91527557373047 58.837440490722656 105.94290161132812 60.450279235839844 C 102.44540405273438 59.99831771850586 104.70994567871094 61.537841796875 99.9781494140625 65.44110107421875" stroke-width="1.0892857313156128" fill="none" stroke="rgb(198, 59, 208)" stroke-opacity="0.7324512" stroke-linecap="round" stroke-linejoin="round"/>
    <path d="M 119.51251220703125 65.55948638916016 C 121.49810028076172 68.2738037109375 122.70797729492188 64.55415344238281 128.17160034179688 61.5978889465332 C 132.1060028076172 65.7935562133789 138.0106201171875 61.05230712890625 141.36911010742188 65.93047332763672 C 138.6675567626953 66.02064514160156 139.3900909423828 69.556640625 136.3196258544922 71.82112121582031" stroke-width="1.0892857313156128" fill="none" stroke="rgb(67, 177, 160)" stroke-opacity="0.29808167" stroke-linecap="round" stroke-linejoin="round"/>
    <path d="M 97.87864685058594 71.82569122314453 C 95.18851470947266 76.48038482666016 92.33394622802734 70.92987823486328 87.2747802734375 73.48430633544922 C 84.10957336425781 76.07340240478516 81.19667053222656 80.98641967773438 87.6136703491211 82.03936767578125" stroke-width="1.0892857313156128" fill="none" stroke="rgb(193, 128, 61)" stroke-opacity="0.88020015" stroke-linecap="round" stroke-linejoin="round"/>
    <path d="M 106.74378967285156 61.747764587402344 C 102.74012756347656 62.76228713989258 107.17330169677734 65.80802917480469 105.85438537597656 59.33573913574219 C 108.38182067871094 57.30241012573242 104.35932922363281 61.59123992919922 106.85072326660156 57.166812896728516" stroke-width="1.0892857313156128" fill="none" stroke="rgb(102, 179, 141)" stroke-opacity="0.67584544" stroke-linecap="round" stroke-linejoin="round"/>
    <path d="M 39.72726058959961 82.4903335571289 C 39.00843048095703 78.90986633300781 44.620628356933594 84.81226348876953 40.55995178222656 85.51126861572266 C 44.67085266113281 82.05309295654297 47.004737854003906 84.41258239746094 44.25466537475586 80.08544158935547" stroke-width="1.0892857313156128" fill="none" stroke="rgb(48, 92, 149)" stroke-opacity="0.768521" stroke-linecap="round" stroke-linejoin="round"/>
    <path d="M 101.05842590332031 66.74467468261719 C 106.88734436035156 69.05416107177734 107.99990844726562 69.13861083984375 106.33689880371094 73.09109497070312 C 111.3257827758789 73.43982696533203 117.22197723388672 69.27574920654297 111.05167388916016 72.04136657714844 C 117.16890716552734 70.02070617675781 122.13970947265625 69.44335174560547 126.39405822753906 72.87505340576172" stroke-width="1.0892857313156128" fill="none" stroke="rgb(45, 52, 191)" stroke-opacity="0.09518366" stroke-linecap="round" stroke-linejoin="round"/>
    <path d="M 136.3196258544922 71.82112121582031 C 140.35211181640625 74.68968963623047 145.64553833007812 69.4326171875 147.2096710205078 66.87937927246094" stroke-width="1.0892857313156128" fill="none" stroke="rgb(61, 39, 208)" stroke-opacity="0.36865437" stroke-linecap="round" stroke-linejoin="round"/>
    <path d="M 40.17194747924805 81.69154357910156 C 42.806365966796875 85.1772689819336 46.24242401123047 86.72372436523438 45.03468322753906 81.34833526611328 C 43.76734924316406 84.61111450195312 50.12487030029297 90.31204223632812 51.87627410888672 96.31021881103516" stroke-width="1.438328504562378" fill="none" stroke="rgb(139, 76, 147)" stroke-opacity="0.83556265" stroke-linecap="round" stroke-linejoin="round"/>
    <path d="M 29.04322624206543 72.4696273803711 C 32.74516677856445 77.02999114990234 27.70900535583496 81.2458267211914 29.764205932617188 82.28966522216797" stroke-width="1.0892857313156128" fill="none" stroke="rgb(196, 198, 83)" stroke-opacity="0.8788775" stroke-linecap="round" stroke-linejoin="round"/>
    <path d="M 31.703330993652344 75.98930358886719 C 31.84265899658203 80.84684753417969 35.679283142089844 86.28177642822266 36.90373229980469 90.5674057006836" stroke-width="1.0892857313156128" fill="none" stroke="rgb(33, 233, 51)" stroke-opacity="0.030701634" stroke-linecap="round" stroke-linejoin="round"/>
    <path d="M 30.165279388427734 13.822325706481934 C 35.654239654541016 7.018848896026611 36.55693054199219 7.623030185699463 30.279037475585938 2.866441249847412 C 28.09966278076172 -2.1386656761169434 24.695209503173828 -4.565046787261963 30.467517852783203 -6.630620956420898" stroke-width="1.0892857313156128" fill="none" stroke="rgb(11, 179, 243)" stroke-opacity="0.35903755" stroke-linecap="round" stroke-linejoin="round"/>
    <path d="M 20.125818252563477 43.32018280029297 C 20.323097229003906 48.298179626464844 17.92796516418457 47.361637115478516 18.968486785888672 45.20488357543945 C 18.965267181396484 50.62146759033203 20.755123138427734 51.325191497802734 22.721609115600586 47.62273025512695 C 20.44135284423828 51.14882278442383 20.194602966308594 56.47689437866211 23.814924240112305 56.58405303955078" stroke-width="1.0892857313156128" fill="none" stroke="rgb(114, 32, 167)" stroke-opacity="0.7656284" stroke-linecap="round" stroke-linejoin="round"/>
    <path d="M 92.15035247802734 37.590667724609375 C 91.18441772460938 38.392723083496094 84.9630126953125 39.7307243347168 81.88606262207031 39.820335388183594 C 88.16944122314453 45.235862731933594 84.83577728271484 50.536842346191406 87.20410919189453 50.951053619384766 C 84.38643646240234 56.568519592285156 81.59320831298828 60.11528778076172 83.85889434814453 58.9608268737793" stroke-width="1.0892857313156128" fill="none" stroke="rgb(63, 65, 75)" stroke-opacity="0.56267935" stroke-linecap="round" stroke-linejoin="round"/>
    <path d="M 85.17317962646484 2.0092008113861084 C 91.54469299316406 -1.8661632537841797 95.23465728759766 0.7176433801651001 94.52094268798828 3.032665729522705" stroke-width="1.0892857313156128" fill="none" stroke="rgb(108, 102, 122)" stroke-opacity="0.39535376" stroke-linecap="round" stroke-linejoin="round"/>
    <path d="M 97.57115936279297 62.706764221191406 C 97.31661224365234 60.98989486694336 97.67438507080078 66.27867889404297 95.49334716796875 72.17192840576172 C 97.25495147705078 73.61170196533203 97.13783264160156 80.17874145507812 102.67119598388672 85.54376220703125 C 100.39505767822266 89.78787231445312 104.37870788574219 89.6968994140625 100.78650665283203 91.70984649658203" stroke-width="1.111596703529358" fill="none" stroke="rgb(255, 27, 131)" stroke-opacity="0.41878447" stroke-linecap="round" stroke-linejoin="round"/>
    <path d="M 46.8484001159668 53.61647033691406 C 42.760154724121094 48.58400344848633 43.35959243774414 45.43961715698242 50.31637191772461 49.27614212036133 C 53.32701110839844 49.20553970336914 48.249412536621094 55.12028503417969 44.732540130615234 52.222259521484375" stroke-width="1.0892857313156128" fill="none" stroke="rgb(6, 197, 222)" stroke-opacity="0.6531498" stroke-linecap="round" stroke-linejoin="round"/>
    <path d="M 107.4318618774414 90.40359497070312 C 104.52352905273438 86.4855728149414 110.59092712402344 88.91071319580078 108.19184112548828 81.86997985839844 C 106.02799987792969 80.10951232910156 110.35742950439453 84.44926452636719 107.34133911132812 79.12895202636719 C 108.9104995727539 74.85121154785156 109.4897232055664 79.08441162109375 110.65735626220703 74.8888931274414" stroke-width="1.0892857313156128" fill="none" stroke="rgb(98, 112, 0)" stroke-opacity="0.091776885" stroke-linecap="round" stroke-linejoin="round"/>
    <path d="M 88.09689331054688 120.27335357666016 C 88.47622680664062 118.0643310546875 92.52861022949219 118.65583038330078 95.94153594970703 114.40805053710938 C 89.0569076538086 118.91299438476562 88.79610443115234 113.87548065185547 88.68333435058594 112.19416046142578 C 85.24472045898438 107.63346862792969 91.19530487060547 109.24237060546875 91.18496704101562 107.36978912353516" stroke-width="1.0892857313156128" fill="none" stroke="rgb(244, 80, 41)" stroke-opacity="0.25128627" stroke-linecap="round" stroke-linejoin="round"/>
    <path d="M 69.22924041748047 70.87295532226562 C 72.10640716552734 72.23135375976562 67.34942626953125 66.99903106689453 72.46492767333984 67.37892150878906 C 69.41602325439453 67.86087799072266 63.35993194580078 71.8338623046875 64.74922180175781 73.04872131347656" stroke-width="1.0892857313156128" fill="none" stroke="rgb(104, 191, 244)" stroke-opacity="0.5063871" stroke-linecap="round" stroke-linejoin="round"/>
    <path d="M 86.98136901855469 42.061805725097656 C 88.58812713623047 35.55132293701172 84.5634765625 30.12904930114746 87.18291473388672 24.97612190246582 C 81.52006530761719 21.921382904052734 81.43030548095703 23.75481414794922 84.13260650634766 26.915224075317383 C 84.83525848388672 28.517921447753906 89.76795959472656 32.56680679321289 86.0097885131836 28.21638298034668" stroke-width="1.0892857313156128" fill="none" stroke="rgb(190, 95, 217)" stroke-opacity="0.4270493" stroke-linecap="round" stroke-linejoin="round"/>
    <path d="M 92.8052978515625 117.28425598144531 C 86.7266845703125 122.14594268798828 90.18278503417969 118.06574249267578 90.94121551513672 115.18142700195312 C 88.14285278320312 113.45085144042969 90.0728759765625 109.77922058105469 88.46988677978516 114.68132781982422 C 86.54366302490234 112.54828643798828 88.507568359375 118.18629455566406 92.35905456542969 113.75352478027344" stroke-width="1.0892857313156128" fill="none" stroke="rgb(165, 178, 144)" stroke-opacity="0.4293885" stroke-linecap="round" stroke-linejoin="round"/>
    <path d="M 41.76054382324219 35.98324203491211 C 44.89947509765625 35.232845306396484 51.15202331542969 30.38843536376953 51.179039001464844 26.59101104736328 C 54.813697814941406 32.3496208190918 56.32898712158203 35.6931266784668 61.72700500488281 34.27974319458008 C 56.345298767089844 32.111663818359375 61.290584564208984 35.523155212402344 65.54255676269531 32.91374969482422" stroke-width="1.0892857313156128" fill="none" stroke="rgb(143, 84, 216)" stroke-opacity="0.95442384" stroke-linecap="round" stroke-linejoin="round"/>
    <path d="M 77.77352142333984 34.333702087402344 C 77.68248748779297 34.68098068237305 72.70812225341797 29.930702209472656 75.57215881347656 30.09031105041504 C 70.56838989257812 34.01405334472656 74.71137237548828 28.306116104125977 77.5313720703125 23.829097747802734" stroke-width="1.1528165340423584" fill="none" stroke="rgb(190, 120, 158)" stroke-opacity="0.72822165" stroke-linecap="round" stroke-linejoin="round"/>
    <path d="M 102.3313980102539 64.84712982177734 C 102.18769073486328 67.42154693603516 103.62014770507812 71.20389556884766 103.51893615722656 75.14887237548828 C 107.33411407470703 80.91570281982422 107.63513946533203 76.35196685791016 105.89434051513672 72.64659881591797" stroke-width="1.1026946306228638" fill="none" stroke="rgb(209, 90, 78)" stroke-opacity="0.785433" stroke-linecap="round" stroke-linejoin="round"/>
    <path d="M 73.99929809570312 56.4239616394043 C 75.62477111816406 55.6497917175293 72.36782836914062 58.35344314575195 71.47019958496094 63.61170196533203" stroke-width="1.0892857313156128" fill="none" stroke="rgb(228, 88, 245)" stroke-opacity="0.95419306" stroke-linecap="round" stroke-linejoin="round"/>
    <path d="M 41.018306732177734 103.19873809814453 C 40.932525634765625 99.77644348144531 43.80672836303711 104.04682159423828 47.64845275878906 106.38349914550781 C 51.408809661865234 110.1238021850586 47.32828140258789 111.253662109375 52.394535064697266 110.58097076416016 C 49.11109161376953 107.65625 46.7224006652832 102.60138702392578 46.67071533203125 102.17628479003906" stroke-width="1.0892857313156128" fill="none" stroke="rgb(67, 223, 224)" stroke-opacity="0.94623995" stroke-linecap="round" stroke-linejoin="round"/>
  </g>
</svg>
