<?xml version="1.0" ?>
<svg xmlns="http://www.w3.org/2000/svg" version="1.1" width="956.0" height="956.0">
  <defs/>
  <g>
    <path d="M 39.14742660522461 76.17808532714844 C 68.6202163696289 86.17842102050781 96.03666687011719 83.00312042236328 95.88460540771484 76.83081817626953 C 98.42092895507812 72.94576263427734 67.97364044189453 64.22930908203125 44.83911895751953 71.3083724975586" stroke-width="1.4354268312454224" fill="none" stroke="rgb(84, 96, 81)" stroke-opacity="1.0" stroke-linecap="round" stroke-linejoin="round"/>
    <path d="M 69.36521911621094 75.85437774658203 C 67.6616439819336 62.31696319580078 66.65680694580078 46.3251838684082 69.3838882446289 30.623580932617188" stroke-width="1.1892671585083008" fill="none" stroke="rgb(174, 115, 23)" stroke-opacity="0.970078" stroke-linecap="round" stroke-linejoin="round"/>
    <path d="M 69.61175537109375 49.00414276123047 C 75.5606689453125 45.36918258666992 79.80097961425781 45.12190246582031 82.28275299072266 45.42546463012695" stroke-width="1.1892671585083008" fill="none" stroke="rgb(173, 104, 23)" stroke-opacity="0.97907877" stroke-linecap="round" stroke-linejoin="round"/>
    <path d="M 66.86851501464844 58.07625198364258 C 58.42502975463867 54.16917419433594 59.83007049560547 45.93811798095703 54.31072235107422 46.22890853881836" stroke-width="1.194335699081421" fill="none" stroke="rgb(172, 107, 17)" stroke-opacity="0.99409026" stroke-linecap="round" stroke-linejoin="round"/>
    <path d="M 71.60213470458984 31.336645126342773 C 71.18557739257812 23.460561752319336 77.83441925048828 19.943336486816406 79.9239273071289 18.320680618286133" stroke-width="1.1892671585083008" fill="none" stroke="rgb(166, 117, 18)" stroke-opacity="0.97630554" stroke-linecap="round" stroke-linejoin="round"/>
    <path d="M 70.56256103515625 29.74602699279785 C 65.2490234375 25.086021423339844 64.06727600097656 23.72844123840332 60.99680709838867 23.311487197875977" stroke-width="1.1892671585083008" fill="none" stroke="rgb(159, 116, 28)" stroke-opacity="0.96274066" stroke-linecap="round" stroke-linejoin="round"/>
    <path d="M 62.0993537902832 23.334476470947266 C 62.11623001098633 23.13077163696289 62.641990661621094 20.301712036132812 61.961612701416016 19.78083610534668 C 59.65573501586914 20.372922897338867 58.37613296508789 19.791868209838867 58.321556091308594 19.749629974365234" stroke-width="1.1892671585083008" fill="none" stroke="rgb(165, 117, 22)" stroke-opacity="0.9830769" stroke-linecap="round" stroke-linejoin="round"/>
    <path d="M 61.76399612426758 23.180221557617188 C 53.95107650756836 24.74301528930664 53.58517837524414 24.696758270263672 54.6461181640625 25.31266975402832" stroke-width="1.1892671585083008" fill="none" stroke="rgb(168, 120, 21)" stroke-opacity="0.97894096" stroke-linecap="round" stroke-linejoin="round"/>
    <path d="M 82.53346252441406 45.28944396972656 C 82.22114562988281 46.22297668457031 81.6707534790039 44.29991149902344 81.66930389404297 42.81040954589844 C 81.57865905761719 41.3354377746582 82.83688354492188 40.79985427856445 82.91873168945312 41.9068717956543" stroke-width="1.1892671585083008" fill="none" stroke="rgb(173, 113, 19)" stroke-opacity="0.97963095" stroke-linecap="round" stroke-linejoin="round"/>
    <path d="M 81.83985137939453 47.01020431518555 C 87.68193054199219 49.29286193847656 88.80694580078125 49.64659881591797 90.18011474609375 48.013301849365234" stroke-width="1.1892671585083008" fill="none" stroke="rgb(172, 109, 29)" stroke-opacity="0.97084635" stroke-linecap="round" stroke-linejoin="round"/>
    <path d="M 80.55594635009766 17.935222625732422 C 80.89200592041016 17.339746475219727 83.30911254882812 18.10695457458496 84.18038940429688 18.98636817932129 C 85.08932495117188 18.158071517944336 86.0429458618164 18.625877380371094 85.18163299560547 18.48894500732422" stroke-width="1.1892671585083008" fill="none" stroke="rgb(158, 123, 28)" stroke-opacity="0.9654789" stroke-linecap="round" stroke-linejoin="round"/>
    <path d="M 69.75614166259766 30.76490592956543 C 68.5046615600586 29.600160598754883 70.43848419189453 27.0300235748291 71.43697357177734 27.127948760986328 C 74.15377807617188 26.830522537231445 75.67606353759766 27.4783992767334 74.80210876464844 28.695556640625" stroke-width="1.2731401920318604" fill="none" stroke="rgb(156, 110, 22)" stroke-opacity="1.0" stroke-linecap="round" stroke-linejoin="round"/>
    <path d="M 78.9600830078125 18.653717041015625 C 80.5232162475586 10.758968353271484 73.9426498413086 13.998172760009766 74.93670654296875 13.677751541137695" stroke-width="1.1892671585083008" fill="none" stroke="rgb(155, 114, 28)" stroke-opacity="0.9628208" stroke-linecap="round" stroke-linejoin="round"/>
    <path d="M 66.35244750976562 40.464805603027344 C 67.33284759521484 41.301937103271484 67.61891174316406 38.184776306152344 66.56365966796875 36.927734375 C 66.09735107421875 36.23370361328125 64.84571838378906 35.49729537963867 63.19397735595703 36.50896453857422" stroke-width="1.4527710676193237" fill="none" stroke="rgb(171, 105, 21)" stroke-opacity="0.9864271" stroke-linecap="round" stroke-linejoin="round"/>
    <path d="M 54.49848556518555 46.7319221496582 C 54.9580192565918 47.2787971496582 55.482357025146484 44.3692512512207 53.86219024658203 43.79200744628906 C 53.061912536621094 43.06563949584961 51.97047805786133 42.14752197265625 51.9549560546875 41.61431884765625" stroke-width="1.1892671585083008" fill="none" stroke="rgb(174, 122, 12)" stroke-opacity="0.97944254" stroke-linecap="round" stroke-linejoin="round"/>
    <path d="M 54.420345306396484 47.458370208740234 C 50.0854377746582 52.14203643798828 48.24816131591797 50.517765045166016 47.81267166137695 50.53797149658203" stroke-width="1.4547605514526367" fill="none" stroke="rgb(173, 110, 10)" stroke-opacity="1.0" stroke-linecap="round" stroke-linejoin="round"/>
    <path d="M 46.122589111328125 51.35394287109375 C 44.77151870727539 53.9962043762207 42.41917037963867 57.77040100097656 40.0932502746582 58.26081848144531" stroke-width="1.2751861810684204" fill="none" stroke="rgb(19, 121, 9)" stroke-opacity="1.0" stroke-linecap="round" stroke-linejoin="round"/>
    <path d="M 45.329952239990234 49.889183044433594 C 38.23606491088867 52.701927185058594 39.65733337402344 57.894386291503906 39.774261474609375 57.682647705078125" stroke-width="1.329911708831787" fill="none" stroke="rgb(19, 130, 4)" stroke-opacity="1.0" stroke-linecap="round" stroke-linejoin="round"/>
    <path d="M 46.802059173583984 50.42499923706055 C 41.302791595458984 53.28727722167969 39.84040451049805 55.556396484375 39.09013366699219 57.06608581542969" stroke-width="1.2053405046463013" fill="none" stroke="rgb(81, 239, 46)" stroke-opacity="1.0" stroke-linecap="round" stroke-linejoin="round"/>
    <path d="M 45.874568939208984 49.39031219482422 C 43.166290283203125 50.34423828125 38.95846939086914 49.828704833984375 36.250125885009766 48.72466278076172" stroke-width="1.1892671585083008" fill="none" stroke="rgb(36, 122, 9)" stroke-opacity="0.98655665" stroke-linecap="round" stroke-linejoin="round"/>
    <path d="M 46.03007507324219 48.45905685424805 C 38.713382720947266 44.78443908691406 36.180843353271484 49.6563835144043 36.70155334472656 49.0150146484375" stroke-width="1.4275317192077637" fill="none" stroke="rgb(33, 127, 5)" stroke-opacity="1.0" stroke-linecap="round" stroke-linejoin="round"/>
    <path d="M 46.89852523803711 49.44746398925781 C 43.31584548950195 47.57990646362305 38.472843170166016 47.86152267456055 35.50422286987305 48.946224212646484" stroke-width="1.1918283700942993" fill="none" stroke="rgb(99, 239, 44)" stroke-opacity="0.97467065" stroke-linecap="round" stroke-linejoin="round"/>
    <path d="M 52.30782699584961 25.561298370361328 C 49.291847229003906 26.50196075439453 44.83274459838867 26.851783752441406 44.07835006713867 25.568462371826172" stroke-width="1.1892671585083008" fill="none" stroke="rgb(18, 134, 24)" stroke-opacity="0.9724246" stroke-linecap="round" stroke-linejoin="round"/>
    <path d="M 53.41968536376953 24.491716384887695 C 46.57906723022461 20.142221450805664 43.530941009521484 25.082351684570312 43.50876998901367 26.321027755737305" stroke-width="1.291218876838684" fill="none" stroke="rgb(19, 132, 22)" stroke-opacity="0.9938867" stroke-linecap="round" stroke-linejoin="round"/>
    <path d="M 54.44345474243164 25.119327545166016 C 49.517974853515625 23.35088539123535 46.95795822143555 23.720617294311523 43.697940826416016 24.67206573486328" stroke-width="1.1892671585083008" fill="none" stroke="rgb(80, 235, 60)" stroke-opacity="0.9959174" stroke-linecap="round" stroke-linejoin="round"/>
    <path d="M 52.428279876708984 27.424213409423828 C 52.276790618896484 30.156654357910156 50.41832733154297 33.893585205078125 48.124656677246094 35.046051025390625" stroke-width="1.3710423707962036" fill="none" stroke="rgb(20, 130, 22)" stroke-opacity="1.0" stroke-linecap="round" stroke-linejoin="round"/>
    <path d="M 52.3686637878418 26.408710479736328 C 45.735931396484375 31.018238067626953 47.97084045410156 36.38449478149414 47.49125671386719 36.57008361816406" stroke-width="1.4974814653396606" fill="none" stroke="rgb(21, 125, 19)" stroke-opacity="1.0" stroke-linecap="round" stroke-linejoin="round"/>
    <path d="M 54.86567687988281 26.806381225585938 C 50.204307556152344 30.823057174682617 48.16764450073242 32.037689208984375 47.93133544921875 33.842124938964844" stroke-width="1.4271495342254639" fill="none" stroke="rgb(80, 228, 59)" stroke-opacity="1.0" stroke-linecap="round" stroke-linejoin="round"/>
    <path d="M 50.49052810668945 42.17292785644531 C 48.57044219970703 44.599788665771484 44.65304946899414 45.66436767578125 42.37735366821289 44.390663146972656" stroke-width="1.2007180452346802" fill="none" stroke="rgb(18, 132, 17)" stroke-opacity="1.0" stroke-linecap="round" stroke-linejoin="round"/>
    <path d="M 49.12812805175781 41.628536224365234 C 42.39012145996094 38.551795959472656 41.21079635620117 43.79672622680664 41.50121307373047 44.32787322998047" stroke-width="1.53432035446167" fill="none" stroke="rgb(19, 126, 7)" stroke-opacity="1.0" stroke-linecap="round" stroke-linejoin="round"/>
    <path d="M 52.15837860107422 41.42874526977539 C 45.58156967163086 41.54664993286133 43.012672424316406 42.5219841003418 41.121646881103516 43.45537185668945" stroke-width="1.1892671585083008" fill="none" stroke="rgb(87, 237, 48)" stroke-opacity="0.9991342" stroke-linecap="round" stroke-linejoin="round"/>
    <path d="M 50.84762191772461 40.75129318237305 C 47.46779251098633 40.386844635009766 43.397056579589844 38.53063201904297 42.276851654052734 36.54100799560547" stroke-width="1.1892671585083008" fill="none" stroke="rgb(38, 137, 10)" stroke-opacity="0.9619518" stroke-linecap="round" stroke-linejoin="round"/>
    <path d="M 50.545372009277344 40.92558670043945 C 47.753257751464844 33.981231689453125 43.28297424316406 36.40312194824219 43.74094772338867 36.55765914916992" stroke-width="1.2200039625167847" fill="none" stroke="rgb(32, 124, 10)" stroke-opacity="0.99557626" stroke-linecap="round" stroke-linejoin="round"/>
    <path d="M 52.235286712646484 40.521507263183594 C 48.61402893066406 36.49689865112305 46.22682189941406 34.84500503540039 44.23728942871094 34.05081558227539" stroke-width="1.3138201236724854" fill="none" stroke="rgb(91, 239, 51)" stroke-opacity="1.0" stroke-linecap="round" stroke-linejoin="round"/>
    <path d="M 56.57233428955078 17.34906768798828 C 54.136756896972656 19.20598793029785 50.131282806396484 20.866931915283203 48.141563415527344 21.668624877929688" stroke-width="1.2927502393722534" fill="none" stroke="rgb(22, 136, 11)" stroke-opacity="1.0" stroke-linecap="round" stroke-linejoin="round"/>
    <path d="M 57.85700607299805 18.732192993164062 C 50.311981201171875 16.094432830810547 49.10102844238281 20.902263641357422 48.039913177490234 21.975439071655273" stroke-width="1.4299591779708862" fill="none" stroke="rgb(19, 134, 22)" stroke-opacity="1.0" stroke-linecap="round" stroke-linejoin="round"/>
    <path d="M 59.6345100402832 19.783096313476562 C 52.99193572998047 18.9910831451416 50.67613983154297 19.45806884765625 50.07756805419922 20.620317459106445" stroke-width="1.5125908851623535" fill="none" stroke="rgb(83, 239, 53)" stroke-opacity="1.0" stroke-linecap="round" stroke-linejoin="round"/>
    <path d="M 59.5594367980957 16.00189208984375 C 56.49263381958008 15.400588035583496 52.82914352416992 13.304481506347656 51.82769775390625 11.613809585571289" stroke-width="1.1892671585083008" fill="none" stroke="rgb(36, 137, 22)" stroke-opacity="0.96695924" stroke-linecap="round" stroke-linejoin="round"/>
    <path d="M 57.3877067565918 18.11658477783203 C 54.46239471435547 10.481985092163086 49.92406463623047 11.580286026000977 49.85674285888672 12.971514701843262" stroke-width="1.2619245052337646" fill="none" stroke="rgb(29, 125, 18)" stroke-opacity="0.9932736" stroke-linecap="round" stroke-linejoin="round"/>
    <path d="M 59.75989532470703 17.91047477722168 C 56.393211364746094 13.29944896697998 54.08298110961914 12.528276443481445 51.23666763305664 12.871488571166992" stroke-width="1.3575248718261719" fill="none" stroke="rgb(80, 230, 54)" stroke-opacity="1.0" stroke-linecap="round" stroke-linejoin="round"/>
    <path d="M 72.47515869140625 13.54494857788086 C 69.84688568115234 15.369110107421875 65.87589263916016 18.190942764282227 64.2892837524414 16.910701751708984" stroke-width="1.1892671585083008" fill="none" stroke="rgb(21, 136, 19)" stroke-opacity="0.97816354" stroke-linecap="round" stroke-linejoin="round"/>
    <path d="M 72.82845306396484 15.110296249389648 C 66.05529022216797 12.643768310546875 64.04786682128906 17.084388732910156 64.11593627929688 16.647932052612305" stroke-width="1.1892671585083008" fill="none" stroke="rgb(27, 137, 13)" stroke-opacity="0.9745412" stroke-linecap="round" stroke-linejoin="round"/>
    <path d="M 74.54170989990234 15.085577011108398 C 69.24101257324219 15.061078071594238 66.23582458496094 15.587275505065918 64.40309143066406 16.42122459411621" stroke-width="1.4885728359222412" fill="none" stroke="rgb(81, 235, 52)" stroke-opacity="1.0" stroke-linecap="round" stroke-linejoin="round"/>
    <path d="M 74.58284759521484 13.211505889892578 C 71.54647827148438 11.105237007141113 67.8797836303711 8.913348197937012 67.0703353881836 7.493515968322754" stroke-width="1.1892671585083008" fill="none" stroke="rgb(38, 137, 10)" stroke-opacity="0.9625708" stroke-linecap="round" stroke-linejoin="round"/>
    <path d="M 72.81147003173828 13.281428337097168 C 69.92805480957031 6.289590835571289 65.49853515625 8.407546997070312 66.74708557128906 8.535508155822754" stroke-width="1.1892671585083008" fill="none" stroke="rgb(35, 129, 18)" stroke-opacity="0.9802172" stroke-linecap="round" stroke-linejoin="round"/>
    <path d="M 74.80984497070312 14.210334777832031 C 70.77519226074219 9.83185863494873 67.4829330444336 9.390137672424316 66.30011749267578 8.459278106689453" stroke-width="1.2326675653457642" fill="none" stroke="rgb(99, 228, 50)" stroke-opacity="1.0" stroke-linecap="round" stroke-linejoin="round"/>
    <path d="M 90.20295715332031 49.39148712158203 C 90.58051300048828 53.04714584350586 90.9413070678711 57.96074676513672 92.00360107421875 60.01702880859375" stroke-width="1.5252461433410645" fill="none" stroke="rgb(19, 135, 5)" stroke-opacity="1.0" stroke-linecap="round" stroke-linejoin="round"/>
    <path d="M 89.3669662475586 51.30311965942383 C 97.11165618896484 55.62508773803711 94.05901336669922 59.454647064208984 93.97918701171875 59.16633987426758" stroke-width="1.4619457721710205" fill="none" stroke="rgb(19, 136, 6)" stroke-opacity="1.0" stroke-linecap="round" stroke-linejoin="round"/>
    <path d="M 88.31511688232422 49.20576858520508 C 91.43441009521484 55.06513214111328 92.00741577148438 57.548770904541016 92.61224365234375 59.46457290649414" stroke-width="1.218355655670166" fill="none" stroke="rgb(80, 239, 42)" stroke-opacity="1.0" stroke-linecap="round" stroke-linejoin="round"/>
    <path d="M 92.08537292480469 48.14793395996094 C 94.19599151611328 50.220306396484375 97.94036102294922 52.204437255859375 99.10675811767578 52.26251220703125" stroke-width="1.1892671585083008" fill="none" stroke="rgb(26, 137, 24)" stroke-opacity="0.97817194" stroke-linecap="round" stroke-linejoin="round"/>
    <path d="M 90.08393859863281 48.686744689941406 C 97.69158935546875 47.94048309326172 98.3369140625 53.64949035644531 98.44949340820312 52.36069107055664" stroke-width="1.2671585083007812" fill="none" stroke="rgb(19, 132, 17)" stroke-opacity="1.0" stroke-linecap="round" stroke-linejoin="round"/>
    <path d="M 89.11965942382812 48.09180450439453 C 94.68912506103516 50.16487503051758 96.6304931640625 51.85210418701172 99.26045227050781 52.79047775268555" stroke-width="1.5216001272201538" fill="none" stroke="rgb(80, 238, 41)" stroke-opacity="1.0" stroke-linecap="round" stroke-linejoin="round"/>
    <path d="M 87.21357727050781 20.053752899169922 C 86.90959930419922 23.154460906982422 87.73516845703125 29.090579986572266 87.937255859375 30.062820434570312" stroke-width="1.3665516376495361" fill="none" stroke="rgb(20, 137, 8)" stroke-opacity="1.0" stroke-linecap="round" stroke-linejoin="round"/>
    <path d="M 85.8135986328125 21.25350570678711 C 92.22344970703125 26.809715270996094 89.58917999267578 30.866870880126953 89.71696472167969 30.556243896484375" stroke-width="1.4289593696594238" fill="none" stroke="rgb(29, 137, 5)" stroke-opacity="0.9982849" stroke-linecap="round" stroke-linejoin="round"/>
    <path d="M 84.3542251586914 20.580307006835938 C 87.09846496582031 25.789669036865234 87.77352142333984 28.12853240966797 89.50080871582031 30.03482437133789" stroke-width="1.3288918733596802" fill="none" stroke="rgb(81, 236, 53)" stroke-opacity="1.0" stroke-linecap="round" stroke-linejoin="round"/>
    <path d="M 86.18187713623047 20.63686752319336 C 88.1334228515625 22.59081268310547 92.10945892333984 24.414222717285156 94.53083801269531 24.16577911376953" stroke-width="1.1892671585083008" fill="none" stroke="rgb(23, 138, 6)" stroke-opacity="0.9756808" stroke-linecap="round" stroke-linejoin="round"/>
    <path d="M 87.87104797363281 19.756805419921875 C 94.7563247680664 18.202930450439453 95.06570434570312 22.96279525756836 94.23973083496094 24.434553146362305" stroke-width="1.4757407903671265" fill="none" stroke="rgb(19, 133, 6)" stroke-opacity="1.0" stroke-linecap="round" stroke-linejoin="round"/>
    <path d="M 85.37837982177734 18.47458839416504 C 91.80410766601562 19.307296752929688 93.5787353515625 21.07524299621582 94.36932373046875 23.379289627075195" stroke-width="1.1892671585083008" fill="none" stroke="rgb(80, 239, 56)" stroke-opacity="0.9906662" stroke-linecap="round" stroke-linejoin="round"/>
    <path d="M 74.81143188476562 29.439298629760742 C 73.37599182128906 32.15131759643555 72.94066619873047 36.17362594604492 73.71183776855469 39.22713851928711" stroke-width="1.3321934938430786" fill="none" stroke="rgb(24, 133, 18)" stroke-opacity="0.99792814" stroke-linecap="round" stroke-linejoin="round"/>
    <path d="M 76.2139663696289 29.393131256103516 C 78.55233764648438 38.095340728759766 74.13004302978516 40.118717193603516 73.6211929321289 40.2808723449707" stroke-width="1.4669008255004883" fill="none" stroke="rgb(34, 131, 9)" stroke-opacity="0.9919686" stroke-linecap="round" stroke-linejoin="round"/>
    <path d="M 74.80349731445312 29.420103073120117 C 76.38614654541016 34.70724868774414 74.64318084716797 36.71584701538086 73.09634399414062 38.168663024902344" stroke-width="1.3203688859939575" fill="none" stroke="rgb(84, 232, 53)" stroke-opacity="0.9990951" stroke-linecap="round" stroke-linejoin="round"/>
    <path d="M 76.44873046875 29.640869140625 C 77.27855682373047 32.576393127441406 79.45391082763672 36.287818908691406 81.45794677734375 36.490447998046875" stroke-width="1.1892671585083008" fill="none" stroke="rgb(36, 135, 25)" stroke-opacity="0.96626383" stroke-linecap="round" stroke-linejoin="round"/>
    <path d="M 76.96273040771484 29.07871437072754 C 84.06586456298828 31.934471130371094 81.86238098144531 36.394840240478516 81.8932876586914 36.48506164550781" stroke-width="1.2621780633926392" fill="none" stroke="rgb(31, 134, 21)" stroke-opacity="0.9941324" stroke-linecap="round" stroke-linejoin="round"/>
    <path d="M 74.24565124511719 28.72943115234375 C 79.86995697021484 31.98126983642578 80.98663330078125 34.459190368652344 81.97880554199219 36.0361442565918" stroke-width="1.3525669574737549" fill="none" stroke="rgb(82, 232, 55)" stroke-opacity="1.0" stroke-linecap="round" stroke-linejoin="round"/>
    <path d="M 84.59049224853516 39.504791259765625 C 83.67098999023438 36.16173553466797 84.08514404296875 32.98231506347656 86.89727783203125 31.261852264404297" stroke-width="1.2092561721801758" fill="none" stroke="rgb(28, 136, 19)" stroke-opacity="0.9867184" stroke-linecap="round" stroke-linejoin="round"/>
    <path d="M 85.8194808959961 40.97521209716797 C 90.9603271484375 35.30397033691406 86.8165512084961 31.06011199951172 86.60211944580078 29.959789276123047" stroke-width="1.4443604946136475" fill="none" stroke="rgb(21, 134, 13)" stroke-opacity="1.0" stroke-linecap="round" stroke-linejoin="round"/>
    <path d="M 84.85369110107422 42.332698822021484 C 87.60476684570312 37.24104690551758 87.84674072265625 34.823333740234375 86.4788818359375 30.89579200744629" stroke-width="1.3297380208969116" fill="none" stroke="rgb(85, 238, 43)" stroke-opacity="0.9992529" stroke-linecap="round" stroke-linejoin="round"/>
    <path d="M 85.01142883300781 40.62007522583008 C 86.97185516357422 39.69053268432617 92.33390045166016 37.791404724121094 93.93534088134766 37.97626495361328" stroke-width="1.1892671585083008" fill="none" stroke="rgb(32, 137, 23)" stroke-opacity="0.9622226" stroke-linecap="round" stroke-linejoin="round"/>
    <path d="M 85.35760498046875 40.888668060302734 C 92.57323455810547 41.167537689208984 92.69489288330078 36.15541076660156 92.54999542236328 35.936771392822266" stroke-width="1.2323421239852905" fill="none" stroke="rgb(35, 134, 7)" stroke-opacity="0.9824426" stroke-linecap="round" stroke-linejoin="round"/>
    <path d="M 83.56873321533203 41.647979736328125 C 89.8814697265625 40.35880661010742 92.09642791748047 38.95426559448242 93.5497055053711 37.47671890258789" stroke-width="1.4821971654891968" fill="none" stroke="rgb(82, 228, 46)" stroke-opacity="1.0" stroke-linecap="round" stroke-linejoin="round"/>
    <path d="M 62.30290603637695 36.503719329833984 C 59.33051300048828 38.62141036987305 55.90458297729492 40.614158630371094 53.68960189819336 39.6943359375" stroke-width="1.1892671585083008" fill="none" stroke="rgb(38, 125, 12)" stroke-opacity="0.9864217" stroke-linecap="round" stroke-linejoin="round"/>
    <path d="M 61.76585006713867 35.85831832885742 C 54.195953369140625 33.62789535522461 52.535457611083984 38.23808288574219 52.67580032348633 38.29634475708008" stroke-width="1.3798272609710693" fill="none" stroke="rgb(35, 134, 11)" stroke-opacity="0.982561" stroke-linecap="round" stroke-linejoin="round"/>
    <path d="M 62.675148010253906 35.68339920043945 C 57.83998489379883 35.93382263183594 55.372554779052734 37.415008544921875 52.83198928833008 37.71879577636719" stroke-width="1.2831758260726929" fill="none" stroke="rgb(94, 228, 42)" stroke-opacity="1.0" stroke-linecap="round" stroke-linejoin="round"/>
    <path d="M 61.78843307495117 36.27833557128906 C 58.88302230834961 35.47483444213867 55.4377555847168 33.29383850097656 55.08546447753906 29.9622802734375" stroke-width="1.1892671585083008" fill="none" stroke="rgb(26, 136, 13)" stroke-opacity="0.98986447" stroke-linecap="round" stroke-linejoin="round"/>
    <path d="M 63.389556884765625 34.31584548950195 C 60.460575103759766 27.046789169311523 56.395477294921875 30.00973129272461 54.304656982421875 30.69426918029785" stroke-width="1.3673886060714722" fill="none" stroke="rgb(25, 132, 22)" stroke-opacity="0.9906738" stroke-linecap="round" stroke-linejoin="round"/>
    <path d="M 64.11028289794922 34.88392639160156 C 60.60663604736328 30.447221755981445 58.23060989379883 29.283273696899414 54.52898025512695 29.53294563293457" stroke-width="1.204391360282898" fill="none" stroke="rgb(87, 232, 53)" stroke-opacity="0.9709968" stroke-linecap="round" stroke-linejoin="round"/>
    <path d="M 45.83578109741211 82.4808120727539 C 70.06925964355469 90.88534545898438 90.28524780273438 87.5379638671875 90.7773666381836 87.48511505126953" stroke-width="1.4803410768508911" fill="none" stroke="rgb(224, 59, 35)" stroke-opacity="1.0" stroke-linecap="round" stroke-linejoin="round"/>
    <path d="M 75.57981872558594 85.66980743408203 C 76.72798156738281 87.38245391845703 76.41144561767578 88.82870483398438 75.36348724365234 88.61644744873047 C 75.52871704101562 90.19293975830078 76.49394226074219 91.50273895263672 76.10118865966797 92.86348724365234 C 77.40540313720703 93.64945220947266 77.30612182617188 95.91340637207031 77.45921325683594 98.07593536376953 C 77.58364868164062 99.51630401611328 77.0792465209961 102.52354431152344 77.04655456542969 103.33427429199219 C 76.54692840576172 103.81838989257812 74.96121215820312 103.88237762451172 74.44903564453125 102.93301391601562 C 71.05827331542969 102.64306640625 68.18402862548828 103.0645523071289 65.81006622314453 103.30852508544922 C 62.187137603759766 105.12955474853516 57.514774322509766 105.81009674072266 53.690025329589844 104.0842514038086 C 47.38438415527344 103.05877685546875 42.81385040283203 98.35433959960938 42.26325607299805 93.82837677001953 C 44.033729553222656 90.70223236083984 43.649131774902344 86.77428436279297 43.95549392700195 86.48872375488281 C 45.10439682006836 80.05329895019531 46.71174240112305 77.3334732055664 52.509422302246094 77.73441314697266" stroke-width="1.3743568658828735" fill="none" stroke="rgb(14, 32, 15)" stroke-opacity="1.0" stroke-linecap="round" stroke-linejoin="round"/>
    <path d="M 48.114585876464844 34.4991569519043 C 50.04452133178711 29.57579231262207 55.26313400268555 32.495052337646484 53.384864807128906 36.17751693725586 C 45.65742111206055 39.89302444458008 43.86664962768555 44.877777099609375 47.34056091308594 43.92168426513672 C 45.712406158447266 46.38642501831055 43.19549560546875 46.274620056152344 49.13086700439453 39.98106384277344" stroke-width="1.1892671585083008" fill="none" stroke="rgb(211, 161, 207)" stroke-opacity="0.8435258" stroke-linecap="round" stroke-linejoin="round"/>
    <path d="M 82.6004409790039 45.237762451171875 C 85.04962921142578 47.28801727294922 82.48318481445312 42.69641876220703 80.61632537841797 37.19264602661133 C 77.65841674804688 36.65776062011719 76.85043334960938 34.31713104248047 79.45511627197266 37.558021545410156" stroke-width="1.2589879035949707" fill="none" stroke="rgb(81, 208, 85)" stroke-opacity="0.30930138" stroke-linecap="round" stroke-linejoin="round"/>
    <path d="M 44.6926383972168 49.44708251953125 C 48.60932540893555 51.08303451538086 45.4532356262207 57.94266128540039 42.3209114074707 51.843353271484375 C 44.54594039916992 54.03235626220703 44.711029052734375 58.538978576660156 48.7613639831543 61.60076141357422 C 52.484046936035156 55.34139633178711 48.82375717163086 61.75768280029297 51.052066802978516 57.067691802978516" stroke-width="1.1892671585083008" fill="none" stroke="rgb(169, 15, 148)" stroke-opacity="0.88094383" stroke-linecap="round" stroke-linejoin="round"/>
    <path d="M 94.06951904296875 38.0079231262207 C 91.65165710449219 40.87709045410156 87.79912567138672 40.958251953125 82.41998291015625 38.00153732299805 C 78.77976989746094 41.23574447631836 82.17235565185547 38.410987854003906 77.85597229003906 35.965660095214844" stroke-width="1.1892671585083008" fill="none" stroke="rgb(113, 15, 1)" stroke-opacity="0.16871513" stroke-linecap="round" stroke-linejoin="round"/>
    <path d="M 70.70870208740234 31.829008102416992 C 64.4356689453125 38.47663116455078 58.58579635620117 34.310672760009766 61.830108642578125 36.69773483276367 C 68.09172058105469 41.638343811035156 61.681236267089844 45.824493408203125 57.68220138549805 47.170997619628906 C 52.495025634765625 43.078277587890625 57.15302276611328 41.45492935180664 59.90196228027344 44.6084098815918" stroke-width="1.1892671585083008" fill="none" stroke="rgb(179, 157, 12)" stroke-opacity="0.94726676" stroke-linecap="round" stroke-linejoin="round"/>
    <path d="M 38.80784225463867 56.38668441772461 C 43.11476516723633 61.81553268432617 39.74165344238281 57.925819396972656 34.05540466308594 57.44853210449219 C 39.8957633972168 51.34243392944336 38.55440902709961 45.60368728637695 38.72828674316406 46.13401412963867 C 42.1812744140625 44.46043014526367 44.45444869995117 44.47762680053711 50.7820930480957 46.17286682128906" stroke-width="1.6054017543792725" fill="none" stroke="rgb(12, 40, 251)" stroke-opacity="0.90410125" stroke-linecap="round" stroke-linejoin="round"/>
    <path d="M 68.590087890625 30.721620559692383 C 71.39131927490234 26.92394256591797 73.46556091308594 25.20871925354004 79.36702728271484 21.257854461669922 C 82.97128295898438 15.47171688079834 77.75743865966797 19.7846736907959 72.45762634277344 20.453126907348633" stroke-width="1.388210654258728" fill="none" stroke="rgb(66, 238, 230)" stroke-opacity="0.8103835" stroke-linecap="round" stroke-linejoin="round"/>
    <path d="M 63.73045349121094 35.77848434448242 C 59.40192794799805 38.857826232910156 61.68657302856445 41.913272857666016 62.16666793823242 40.267967224121094 C 64.84151458740234 32.235660552978516 64.49540710449219 30.712242126464844 59.677284240722656 24.319263458251953 C 67.1357192993164 18.323698043823242 70.47356414794922 15.317256927490234 65.73110961914062 12.686659812927246" stroke-width="1.5049456357955933" fill="none" stroke="rgb(198, 134, 157)" stroke-opacity="0.71941745" stroke-linecap="round" stroke-linejoin="round"/>
    <path d="M 48.33835220336914 39.140499114990234 C 54.692657470703125 35.04145050048828 52.43525314331055 36.838592529296875 51.927059173583984 33.350929260253906 C 51.40790557861328 28.94607162475586 53.21019744873047 29.726287841796875 48.3292350769043 26.274694442749023 C 47.80830764770508 23.412857055664062 54.2967414855957 27.69959259033203 50.504180908203125 29.772533416748047" stroke-width="1.1892671585083008" fill="none" stroke="rgb(223, 2, 98)" stroke-opacity="0.18286711" stroke-linecap="round" stroke-linejoin="round"/>
    <path d="M 49.75461196899414 57.260318756103516 C 51.564640045166016 63.27709197998047 48.1943244934082 62.58228302001953 48.856292724609375 64.53865051269531" stroke-width="1.1892671585083008" fill="none" stroke="rgb(94, 224, 239)" stroke-opacity="0.9249005" stroke-linecap="round" stroke-linejoin="round"/>
    <path d="M 63.98334503173828 12.090088844299316 C 70.28956604003906 17.187543869018555 74.45967102050781 10.626901626586914 70.40095520019531 12.501602172851562 C 66.99516296386719 18.52518081665039 62.45359420776367 21.177093505859375 60.00345230102539 24.791427612304688 C 60.90597915649414 27.779132843017578 62.514617919921875 27.739442825317383 62.80132293701172 23.8071346282959" stroke-width="1.6411045789718628" fill="none" stroke="rgb(98, 230, 94)" stroke-opacity="0.84559834" stroke-linecap="round" stroke-linejoin="round"/>
    <path d="M 76.81563568115234 35.38333511352539 C 74.84000396728516 39.584747314453125 78.27208709716797 37.43263626098633 78.8039779663086 32.094688415527344 C 79.13671875 27.065093994140625 79.7018814086914 30.40934181213379 78.83715057373047 30.618995666503906" stroke-width="1.1892671585083008" fill="none" stroke="rgb(206, 63, 24)" stroke-opacity="0.036739293" stroke-linecap="round" stroke-linejoin="round"/>
    <path d="M 49.72287368774414 45.46174240112305 C 44.89091110229492 48.820960998535156 46.963375091552734 48.482383728027344 44.20686721801758 55.941219329833984" stroke-width="1.6249396800994873" fill="none" stroke="rgb(82, 133, 124)" stroke-opacity="0.6875939" stroke-linecap="round" stroke-linejoin="round"/>
    <path d="M 47.63225555419922 39.424468994140625 C 53.966983795166016 45.343292236328125 54.96074295043945 47.8829345703125 56.60652160644531 40.61820983886719 C 60.25998306274414 44.347049713134766 61.85709762573242 47.77788543701172 67.50061798095703 48.34053039550781" stroke-width="1.6174978017807007" fill="none" stroke="rgb(254, 48, 166)" stroke-opacity="0.8810321" stroke-linecap="round" stroke-linejoin="round"/>
    <path d="M 79.29847717285156 37.10317611694336 C 83.4239273071289 43.1119499206543 78.80335235595703 46.22909927368164 78.32835388183594 45.89793014526367 C 75.50209045410156 43.75569152832031 78.85232543945312 50.48908996582031 83.62629699707031 53.674983978271484" stroke-width="1.4286096096038818" fill="none" stroke="rgb(140, 24, 217)" stroke-opacity="0.7184034" stroke-linecap="round" stroke-linejoin="round"/>
    <path d="M 50.415428161621094 57.277225494384766 C 48.23273468017578 56.63367462158203 51.696067810058594 58.061553955078125 45.29306411743164 65.77418518066406 C 49.49885177612305 69.73249816894531 46.22295379638672 68.59226989746094 45.64065170288086 66.44630432128906" stroke-width="1.6577695608139038" fill="none" stroke="rgb(255, 207, 197)" stroke-opacity="0.7333667" stroke-linecap="round" stroke-linejoin="round"/>
    <path d="M 11.437793731689453 47.93616485595703 C 10.045706748962402 47.26251220703125 8.381640434265137 53.97840118408203 9.365967750549316 54.1646728515625" stroke-width="1.1892671585083008" fill="none" stroke="rgb(80, 34, 63)" stroke-opacity="0.30587435" stroke-linecap="round" stroke-linejoin="round"/>
    <path d="M 83.0244140625 93.98766326904297 C 85.09182739257812 91.69615936279297 85.93932342529297 88.66326141357422 92.41036987304688 91.32950592041016 C 88.86048889160156 97.64852905273438 84.32208251953125 95.86833953857422 79.71241760253906 89.93954467773438" stroke-width="1.1892671585083008" fill="none" stroke="rgb(242, 249, 33)" stroke-opacity="0.75291395" stroke-linecap="round" stroke-linejoin="round"/>
    <path d="M 133.11669921875 125.30875396728516 C 127.2201156616211 122.68685150146484 131.9600372314453 123.24373626708984 135.21343994140625 129.52210998535156 C 137.38426208496094 134.2153778076172 135.95809936523438 128.09078979492188 131.69842529296875 132.40472412109375 C 128.36624145507812 127.5635757446289 120.42967987060547 122.71481323242188 119.36579895019531 124.36854553222656" stroke-width="1.1892671585083008" fill="none" stroke="rgb(177, 243, 161)" stroke-opacity="0.5860954" stroke-linecap="round" stroke-linejoin="round"/>
    <path d="M 25.316770553588867 72.61679077148438 C 26.38239097595215 71.05158233642578 28.13995361328125 74.62580108642578 35.07785415649414 75.14075469970703 C 32.36003112792969 73.61483764648438 29.72261619567871 74.48179626464844 30.465730667114258 80.02082061767578" stroke-width="1.1892671585083008" fill="none" stroke="rgb(100, 77, 106)" stroke-opacity="0.36346924" stroke-linecap="round" stroke-linejoin="round"/>
    <path d="M 111.95832824707031 116.76167297363281 C 116.59911346435547 115.37046813964844 119.93209075927734 121.7092514038086 115.04365539550781 116.47482299804688 C 113.71127319335938 116.46592712402344 107.36976623535156 115.36373901367188 107.87017822265625 109.72354125976562 C 111.7779769897461 112.59424591064453 109.46951293945312 110.30506134033203 102.99356842041016 113.40583801269531" stroke-width="1.2308971881866455" fill="none" stroke="rgb(53, 208, 127)" stroke-opacity="0.31815168" stroke-linecap="round" stroke-linejoin="round"/>
    <path d="M 91.64552307128906 105.63992309570312 C 91.20582580566406 109.88482666015625 88.15507507324219 109.6323013305664 94.01990509033203 106.61198425292969 C 97.63790130615234 112.5999984741211 100.01676177978516 106.02153015136719 95.43244934082031 107.05594635009766 C 91.8792724609375 108.71656799316406 85.71784973144531 108.46467590332031 86.6804428100586 106.12445068359375" stroke-width="1.1892671585083008" fill="none" stroke="rgb(65, 175, 193)" stroke-opacity="0.0032893121" stroke-linecap="round" stroke-linejoin="round"/>
    <path d="M 119.03611755371094 110.22600555419922 C 117.2893295288086 107.29463195800781 112.42513275146484 101.5654525756836 114.08382415771484 107.74674987792969 C 118.74889373779297 113.97830963134766 113.18785858154297 110.7857437133789 107.64248657226562 104.9504165649414 C 102.33406829833984 110.25428771972656 107.04627990722656 113.72577667236328 110.79581451416016 113.39291381835938" stroke-width="1.4359232187271118" fill="none" stroke="rgb(255, 74, 14)" stroke-opacity="0.26000944" stroke-linecap="round" stroke-linejoin="round"/>
    <path d="M 116.42183685302734 20.417613983154297 C 118.68763732910156 16.247432708740234 120.26081085205078 13.382041931152344 120.68993377685547 16.75594139099121 C 118.50078582763672 14.768594741821289 123.71186828613281 12.262876510620117 124.07977294921875 7.02784538269043" stroke-width="1.1892671585083008" fill="none" stroke="rgb(175, 90, 29)" stroke-opacity="0.8467174" stroke-linecap="round" stroke-linejoin="round"/>
    <path d="M 29.894561767578125 5.6624531745910645 C 32.29216384887695 11.258569717407227 35.36967849731445 11.021564483642578 28.529409408569336 6.247408866882324 C 25.568218231201172 0.32071754336357117 24.731563568115234 4.4521050453186035 29.48598861694336 1.9218157529830933 C 36.09363555908203 4.2749552726745605 38.81393051147461 3.5379111766815186 34.11268997192383 3.21834397315979" stroke-width="1.293250322341919" fill="none" stroke="rgb(182, 129, 45)" stroke-opacity="0.24290629" stroke-linecap="round" stroke-linejoin="round"/>
    <path d="M 17.085636138916016 -0.20943523943424225 C 13.150566101074219 5.778411388397217 14.690038681030273 10.936657905578613 8.5784273147583 15.317926406860352 C 4.585122585296631 16.36844825744629 3.089430570602417 17.710485458374023 -0.16810336709022522 19.503992080688477 C 3.6256282329559326 14.998483657836914 5.450325965881348 19.396930694580078 4.01815938949585 19.871110916137695" stroke-width="1.1892671585083008" fill="none" stroke="rgb(141, 157, 214)" stroke-opacity="0.8076229" stroke-linecap="round" stroke-linejoin="round"/>
    <path d="M 48.15287399291992 38.45620346069336 C 49.738731384277344 42.1401252746582 46.22195816040039 44.89284133911133 48.53071212768555 50.989967346191406 C 48.441776275634766 54.74015426635742 43.94738006591797 53.39357376098633 46.69943618774414 56.38987350463867" stroke-width="1.1892671585083008" fill="none" stroke="rgb(147, 125, 222)" stroke-opacity="1.0" stroke-linecap="round" stroke-linejoin="round"/>
    <path d="M 46.90865707397461 84.97595977783203 C 43.4029426574707 89.7159652709961 43.31290054321289 83.89615631103516 41.72644805908203 88.29646301269531 C 43.20566940307617 88.92192840576172 39.09029769897461 94.39723205566406 34.0926628112793 94.73080444335938" stroke-width="1.3264988660812378" fill="none" stroke="rgb(122, 121, 250)" stroke-opacity="0.851074" stroke-linecap="round" stroke-linejoin="round"/>
    <path d="M 63.68907928466797 72.82025146484375 C 63.711669921875 70.0813217163086 62.16340637207031 74.53215789794922 64.7874755859375 78.16403198242188" stroke-width="1.5074918270111084" fill="none" stroke="rgb(115, 0, 128)" stroke-opacity="0.2588701" stroke-linecap="round" stroke-linejoin="round"/>
    <path d="M 10.920897483825684 114.04313659667969 C 9.953205108642578 111.90442657470703 14.499197959899902 116.49032592773438 9.875954627990723 110.70356750488281 C 11.193587303161621 115.9596176147461 16.296152114868164 114.98468017578125 13.287833213806152 119.46350860595703" stroke-width="1.5394614934921265" fill="none" stroke="rgb(231, 199, 0)" stroke-opacity="0.11353396" stroke-linecap="round" stroke-linejoin="round"/>
    <path d="M 14.070158004760742 108.76283264160156 C 10.340089797973633 105.28836822509766 7.935676574707031 104.1242446899414 9.162392616271973 102.41143035888672 C 9.979355812072754 102.6728515625 8.187911987304688 97.51166534423828 11.106986045837402 97.05725860595703" stroke-width="1.1892671585083008" fill="none" stroke="rgb(244, 217, 114)" stroke-opacity="0.57629985" stroke-linecap="round" stroke-linejoin="round"/>
    <path d="M 96.68601989746094 12.72012996673584 C 97.58941650390625 19.15640640258789 96.4330062866211 22.115100860595703 90.68588256835938 18.032072067260742" stroke-width="1.4540293216705322" fill="none" stroke="rgb(148, 88, 254)" stroke-opacity="0.6279473" stroke-linecap="round" stroke-linejoin="round"/>
  </g>
</svg>
