<?xml version="1.0" ?>
<svg xmlns="http://www.w3.org/2000/svg" version="1.1" width="956.0" height="956.0">
  <defs/>
  <g>
    <path d="M 39.06709671020508 35.36683654785156 C 39.06709671020508 35.094520568847656 39.06709289550781 31.484539031982422 39.067073822021484 31.153804779052734 C 39.06709289550781 29.92422866821289 38.725494384765625 27.115764617919922 38.77806091308594 25.63439178466797 C 39.09834671020508 25.13054847717285 39.967105865478516 26.050859451293945 41.1070442199707 26.050920486450195 C 42.171913146972656 26.050920486450195 43.25026321411133 25.872798919677734 44.29843521118164 26.050918579101562 C 48.26223373413086 26.17972755432129 49.205299377441406 27.408266067504883 51.95518112182617 30.73886489868164 C 56.99987030029297 36.84864044189453 57.95341491699219 40.30887985229492 61.0161247253418 47.71150588989258 C 63.66108322143555 56.06119155883789 63.661781311035156 64.55128479003906 63.661781311035156 73.77974700927734 C 64.20641326904297 78.94402313232422 64.69197845458984 80.51902770996094 60.3780517578125 84.24369049072266 C 56.66925048828125 87.4474105834961 49.95905685424805 86.97721099853516 45.66802215576172 87.27244567871094 C 41.97587966918945 88.07074737548828 38.20774841308594 88.7332992553711 34.56600570678711 88.07206726074219 C 23.824024200439453 86.12372589111328 20.878116607666016 82.35462951660156 11.850823402404785 77.48001861572266" stroke-width="1.0892857313156128" fill="none" stroke="rgb(26, 21, 21)" stroke-opacity="1.0" stroke-linecap="round" stroke-linejoin="round"/>
    <path d="M 41.10810852050781 26.050607681274414 C 44.192710876464844 21.300050735473633 39.382511138916016 24.009136199951172 42.01063537597656 21.83796501159668 C 44.15463638305664 20.542003631591797 40.459083557128906 24.356685638427734 37.771785736083984 28.814376831054688" stroke-width="1.1982132196426392" fill="none" stroke="rgb(52, 179, 58)" stroke-opacity="0.05623945" stroke-linecap="round" stroke-linejoin="round"/>
    <path d="M 38.7774658203125 25.634414672851562 C 38.83284378051758 31.230728149414062 35.213523864746094 31.381254196166992 30.497112274169922 33.47569274902344 C 32.954750061035156 27.663806915283203 29.98041343688965 27.661516189575195 29.552249908447266 25.95958137512207 C 26.817041397094727 29.057086944580078 21.135862350463867 33.07150650024414 22.8331241607666 29.15662956237793" stroke-width="1.0892857313156128" fill="none" stroke="rgb(203, 242, 56)" stroke-opacity="0.12494388" stroke-linecap="round" stroke-linejoin="round"/>
    <path d="M 39.06709289550781 34.822208404541016 C 37.10202407836914 35.695037841796875 31.705665588378906 32.244503021240234 27.885194778442383 31.209274291992188 C 24.443389892578125 24.59293556213379 22.950944900512695 29.54438018798828 17.69630241394043 32.421607971191406 C 16.60528564453125 36.045841217041016 15.720108032226562 41.95458221435547 21.64630126953125 38.51248550415039" stroke-width="1.0892857313156128" fill="none" stroke="rgb(57, 49, 235)" stroke-opacity="0.6023607" stroke-linecap="round" stroke-linejoin="round"/>
    <path d="M 60.37801742553711 84.24368286132812 C 61.9637451171875 80.34490966796875 62.94997024536133 77.76229095458984 60.72651290893555 76.88777923583984 C 61.660396575927734 78.2657699584961 61.492820739746094 82.72981262207031 60.811824798583984 87.84821319580078 C 58.515384674072266 83.80738067626953 57.3110466003418 86.2122573852539 58.432552337646484 83.85273742675781" stroke-width="1.1982096433639526" fill="none" stroke="rgb(174, 209, 162)" stroke-opacity="0.4666951" stroke-linecap="round" stroke-linejoin="round"/>
    <path d="M 43.75383758544922 25.50629997253418 C 49.101722717285156 20.51494598388672 49.181884765625 26.56841278076172 55.01698684692383 23.66347312927246 C 53.9952278137207 20.98549461364746 56.76878356933594 14.978581428527832 61.295169830322266 20.700000762939453" stroke-width="1.0892857313156128" fill="none" stroke="rgb(151, 151, 168)" stroke-opacity="0.15866943" stroke-linecap="round" stroke-linejoin="round"/>
    <path d="M 61.01611328125 48.25613784790039 C 57.07673645019531 48.58088684082031 59.43588638305664 52.81781005859375 55.73609924316406 47.85601806640625" stroke-width="1.0892857313156128" fill="none" stroke="rgb(225, 182, 160)" stroke-opacity="0.48493963" stroke-linecap="round" stroke-linejoin="round"/>
    <path d="M 43.75383758544922 25.50629997253418 C 50.07508087158203 31.067325592041016 52.46553421020508 27.33980369567871 49.69026565551758 30.742753982543945" stroke-width="1.1982136964797974" fill="none" stroke="rgb(182, 49, 121)" stroke-opacity="0.5945236" stroke-linecap="round" stroke-linejoin="round"/>
    <path d="M 63.66179656982422 73.2351303100586 C 58.44883346557617 77.65100860595703 58.38120651245117 78.3166732788086 57.49245071411133 75.24177551269531 C 54.713565826416016 73.74764251708984 53.849185943603516 74.61276245117188 48.266021728515625 77.9939193725586 C 43.70537185668945 83.3923568725586 48.64542007446289 83.07508087158203 42.21786117553711 83.88262176513672" stroke-width="1.0892857313156128" fill="none" stroke="rgb(52, 133, 30)" stroke-opacity="0.2845165" stroke-linecap="round" stroke-linejoin="round"/>
    <path d="M 37.771785736083984 28.814376831054688 C 40.18612289428711 23.265682220458984 41.674869537353516 25.37625503540039 37.13142013549805 21.205434799194336 C 33.46498489379883 16.870384216308594 32.387638092041016 11.906331062316895 37.98115158081055 17.003862380981445" stroke-width="1.1982126235961914" fill="none" stroke="rgb(9, 91, 19)" stroke-opacity="0.18147026" stroke-linecap="round" stroke-linejoin="round"/>
    <path d="M 42.21787643432617 83.88262176513672 C 44.03772735595703 80.06121063232422 43.371559143066406 82.34111022949219 43.268043518066406 81.80314636230469 C 43.94717788696289 81.62200927734375 46.65109634399414 79.34337615966797 49.309722900390625 75.15512084960938 C 48.44154357910156 80.3215560913086 46.403499603271484 75.75704193115234 46.63172149658203 78.94978332519531" stroke-width="1.1982139348983765" fill="none" stroke="rgb(247, 69, 187)" stroke-opacity="0.6171631" stroke-linecap="round" stroke-linejoin="round"/>
    <path d="M 55.191471099853516 47.85601806640625 C 51.72753143310547 42.52388381958008 47.73936462402344 37.02937316894531 49.07127380371094 40.416194915771484" stroke-width="1.0892857313156128" fill="none" stroke="rgb(238, 140, 75)" stroke-opacity="0.9291376" stroke-linecap="round" stroke-linejoin="round"/>
    <path d="M 42.21786880493164 83.88262176513672 C 39.99898910522461 87.01217651367188 41.53966522216797 92.97444152832031 40.91796112060547 92.82586669921875" stroke-width="1.0892857313156128" fill="none" stroke="rgb(17, 91, 201)" stroke-opacity="0.24237958" stroke-linecap="round" stroke-linejoin="round"/>
    <path d="M 58.432552337646484 83.85272979736328 C 55.78314208984375 84.35371398925781 55.62898635864258 78.69486236572266 57.53913879394531 78.19086456298828" stroke-width="1.1982132196426392" fill="none" stroke="rgb(208, 129, 114)" stroke-opacity="0.29280683" stroke-linecap="round" stroke-linejoin="round"/>
    <path d="M 55.736114501953125 47.85601806640625 C 59.83464050292969 44.196678161621094 64.93199920654297 42.20061111450195 62.779659271240234 44.03327560424805" stroke-width="1.1982141733169556" fill="none" stroke="rgb(220, 77, 160)" stroke-opacity="0.8853706" stroke-linecap="round" stroke-linejoin="round"/>
    <path d="M 55.73606491088867 47.85601806640625 C 53.26047897338867 52.902339935302734 56.99798583984375 57.316280364990234 61.12303924560547 54.44208908081055 C 61.454166412353516 54.900882720947266 55.58955764770508 54.51654052734375 55.14949035644531 50.6766471862793 C 53.41367721557617 56.68947982788086 54.204776763916016 59.16865158081055 59.60844421386719 59.600032806396484" stroke-width="1.1982122659683228" fill="none" stroke="rgb(55, 241, 151)" stroke-opacity="0.09286618" stroke-linecap="round" stroke-linejoin="round"/>
    <path d="M 37.77177810668945 28.26976203918457 C 33.72860336303711 32.219966888427734 31.659992218017578 36.22443389892578 26.984289169311523 34.0514030456543" stroke-width="1.1982139348983765" fill="none" stroke="rgb(24, 220, 56)" stroke-opacity="0.752076" stroke-linecap="round" stroke-linejoin="round"/>
    <path d="M 113.30326080322266 90.91059875488281 C 109.02654266357422 93.64869689941406 105.585693359375 98.27547454833984 99.7646713256836 102.60762023925781" stroke-width="1.198213815689087" fill="none" stroke="rgb(209, 250, 230)" stroke-opacity="0.10663989" stroke-linecap="round" stroke-linejoin="round"/>
    <path d="M 20.855709075927734 61.10245132446289 C 23.52016258239746 57.19520950317383 26.7228946685791 58.76879119873047 24.96438980102539 62.705970764160156 C 19.764785766601562 58.86524200439453 25.029455184936523 57.00605392456055 25.610504150390625 56.355552673339844 C 20.726057052612305 61.2308235168457 20.363889694213867 66.2251205444336 14.758462905883789 64.16382598876953" stroke-width="1.1982141733169556" fill="none" stroke="rgb(250, 16, 221)" stroke-opacity="0.8336582" stroke-linecap="round" stroke-linejoin="round"/>
    <path d="M 50.003482818603516 50.01121139526367 C 45.552738189697266 55.316165924072266 39.645999908447266 54.52073669433594 40.655033111572266 49.52647399902344" stroke-width="1.198214054107666" fill="none" stroke="rgb(140, 98, 124)" stroke-opacity="0.58302486" stroke-linecap="round" stroke-linejoin="round"/>
    <path d="M 116.99288177490234 6.799919128417969 C 115.53660583496094 8.206698417663574 119.19207000732422 4.258167743682861 117.72319030761719 5.925840854644775 C 117.1738510131836 4.970688343048096 116.1794204711914 3.1038713455200195 114.0772933959961 -1.2512775659561157" stroke-width="1.0892857313156128" fill="none" stroke="rgb(55, 4, 130)" stroke-opacity="0.5129303" stroke-linecap="round" stroke-linejoin="round"/>
    <path d="M 121.10832977294922 52.1186408996582 C 122.45492553710938 54.8512077331543 120.8039779663086 53.16680145263672 118.98857116699219 58.50288391113281 C 116.35980224609375 60.6886100769043 110.31314086914062 66.4382553100586 109.64385986328125 61.569698333740234 C 107.00093078613281 63.845672607421875 103.46253204345703 58.027626037597656 100.27442169189453 54.79793930053711" stroke-width="1.198214054107666" fill="none" stroke="rgb(80, 240, 32)" stroke-opacity="0.5507285" stroke-linecap="round" stroke-linejoin="round"/>
    <path d="M 8.281269073486328 83.27410125732422 C 8.487841606140137 79.98564910888672 9.391936302185059 81.46649169921875 14.165943145751953 78.42969512939453" stroke-width="1.0892857313156128" fill="none" stroke="rgb(179, 215, 53)" stroke-opacity="0.16108677" stroke-linecap="round" stroke-linejoin="round"/>
    <path d="M 63.215267181396484 78.1934585571289 C 62.19297409057617 81.26688385009766 56.37815856933594 82.37161254882812 54.453060150146484 86.00822448730469 C 58.13554763793945 83.24859619140625 56.18994903564453 77.77992248535156 54.75191879272461 76.20064544677734 C 51.17623519897461 74.51761627197266 49.73258972167969 74.01219177246094 49.02479934692383 72.59828186035156" stroke-width="1.0892857313156128" fill="none" stroke="rgb(51, 223, 72)" stroke-opacity="0.42396617" stroke-linecap="round" stroke-linejoin="round"/>
    <path d="M 84.42581176757812 107.11290740966797 C 86.35824584960938 106.09164428710938 91.5305404663086 102.64321899414062 96.99170684814453 104.69132232666016 C 100.6186294555664 109.36317443847656 97.37993621826172 104.22625732421875 93.98057556152344 105.11331176757812" stroke-width="1.198214054107666" fill="none" stroke="rgb(254, 128, 213)" stroke-opacity="0.21060023" stroke-linecap="round" stroke-linejoin="round"/>
    <path d="M 114.73600006103516 32.827857971191406 C 110.59977722167969 38.1058349609375 105.13410949707031 41.7574462890625 108.61918640136719 43.41935348510742 C 104.30480194091797 44.726234436035156 100.55134582519531 47.660301208496094 94.7973403930664 52.05691146850586" stroke-width="1.0892857313156128" fill="none" stroke="rgb(126, 161, 111)" stroke-opacity="0.82951725" stroke-linecap="round" stroke-linejoin="round"/>
    <path d="M 90.88856506347656 79.17159271240234 C 86.4093246459961 80.39998626708984 80.94921112060547 79.70384216308594 81.1407699584961 83.57762908935547 C 78.76757049560547 84.31458282470703 75.21209716796875 90.14093780517578 69.3261489868164 90.70677947998047 C 72.80706787109375 93.67730712890625 75.06481170654297 94.07212829589844 77.15271759033203 91.85448455810547" stroke-width="1.0892857313156128" fill="none" stroke="rgb(52, 31, 39)" stroke-opacity="0.07547329" stroke-linecap="round" stroke-linejoin="round"/>
    <path d="M 61.57722854614258 47.147735595703125 C 62.190467834472656 46.792442321777344 67.67172241210938 42.96297073364258 73.10762023925781 37.88645935058594 C 72.15235137939453 32.79103469848633 69.99698638916016 29.690053939819336 75.78103637695312 34.39118576049805 C 81.42010498046875 32.770896911621094 75.40272521972656 31.48722267150879 72.71275329589844 33.03938293457031" stroke-width="1.0892857313156128" fill="none" stroke="rgb(230, 241, 82)" stroke-opacity="0.3580864" stroke-linecap="round" stroke-linejoin="round"/>
    <path d="M 89.72278594970703 73.46092224121094 C 92.86355590820312 69.78845977783203 89.8824462890625 68.99467468261719 92.26579284667969 70.41777038574219 C 87.61573791503906 75.46375274658203 88.44654846191406 77.83077239990234 83.16943359375 73.30902862548828" stroke-width="1.0892857313156128" fill="none" stroke="rgb(150, 148, 181)" stroke-opacity="0.46455908" stroke-linecap="round" stroke-linejoin="round"/>
    <path d="M 115.62422943115234 45.887611389160156 C 116.39051818847656 44.7100715637207 120.17755126953125 40.6049919128418 116.87913513183594 45.80412292480469 C 115.70590209960938 51.221614837646484 115.61539459228516 53.88868713378906 113.07130432128906 57.982112884521484 C 107.80369567871094 60.13719940185547 105.76486206054688 59.519229888916016 109.39229583740234 55.83005905151367" stroke-width="1.1982126235961914" fill="none" stroke="rgb(101, 56, 72)" stroke-opacity="0.17574695" stroke-linecap="round" stroke-linejoin="round"/>
    <path d="M 5.506602764129639 113.50077819824219 C 3.2252845764160156 119.15735626220703 8.48533821105957 124.55705261230469 13.951845169067383 128.63613891601562 C 8.9860258102417 134.7216033935547 3.7264597415924072 133.86863708496094 4.0336103439331055 138.36019897460938" stroke-width="1.0892857313156128" fill="none" stroke="rgb(48, 114, 137)" stroke-opacity="0.09706062" stroke-linecap="round" stroke-linejoin="round"/>
    <path d="M 90.75611877441406 112.35072326660156 C 92.53038787841797 116.65186309814453 98.29008483886719 119.34002685546875 94.91559600830078 118.64849090576172 C 100.21708679199219 116.29890441894531 97.15867614746094 118.49403381347656 95.19916534423828 113.12537384033203 C 97.12706756591797 109.10250091552734 95.74114227294922 107.42375183105469 99.08689880371094 110.50321960449219" stroke-width="1.1982134580612183" fill="none" stroke="rgb(244, 152, 181)" stroke-opacity="0.044674374" stroke-linecap="round" stroke-linejoin="round"/>
    <path d="M 20.920217514038086 18.7303409576416 C 18.32373046875 17.431657791137695 17.874595642089844 14.888248443603516 17.86232566833496 13.297063827514648" stroke-width="1.0892857313156128" fill="none" stroke="rgb(90, 102, 9)" stroke-opacity="0.9179074" stroke-linecap="round" stroke-linejoin="round"/>
  </g>
</svg>
