<?xml version="1.0" ?>
<svg xmlns="http://www.w3.org/2000/svg" version="1.1" width="122.0" height="122.0">
  <defs/>
  <g>
    <path d="M 65.2408218383789 26.863128662109375 C 67.23220825195312 26.877321243286133 66.76264190673828 25.919410705566406 66.13655853271484 25.092391967773438 C 66.37687683105469 23.98078727722168 65.49668884277344 22.51140785217285 66.24994659423828 20.523550033569336 C 67.58006286621094 19.37464714050293 72.06807708740234 19.556028366088867 74.78489685058594 24.12750816345215 C 78.4390640258789 27.109975814819336 79.24156188964844 35.968177795410156 77.82008361816406 40.19436264038086 C 77.63329315185547 45.44926452636719 75.94269561767578 43.94612503051758 75.42511749267578 46.27275085449219 C 75.05962371826172 48.186790466308594 75.6324462890625 52.98134231567383 76.38969421386719 54.92108154296875 C 76.23527526855469 56.784812927246094 73.89636993408203 56.01963424682617 71.52347564697266 57.24734115600586 C 69.84845733642578 58.81105041503906 65.69827270507812 59.97945022583008 63.662166595458984 62.67803192138672 C 60.39990997314453 64.25989532470703 56.41316604614258 64.5909652709961 54.34245300292969 66.01937103271484 C 50.94392776489258 66.11811828613281 47.91121292114258 65.85448455810547 48.171241760253906 68.49268341064453 C 49.16217041015625 70.04370880126953 53.74575424194336 72.40595245361328 57.01911926269531 75.62958526611328 C 59.40388107299805 79.4422607421875 58.6751708984375 86.57906341552734 59.96308898925781 94.53134155273438" stroke-width="2.142538070678711" fill="none" stroke="rgb(49, 34, 13)" stroke-opacity="0.8494845" stroke-linecap="round" stroke-linejoin="round"/>
    <path d="M 75.29332733154297 24.301788330078125 C 78.11994934082031 21.173830032348633 80.4084243774414 16.864360809326172 82.92886352539062 12.775016784667969 C 85.83938598632812 8.718846321105957 81.11647033691406 11.380051612854004 74.80593872070312 14.009647369384766" stroke-width="2.1497457027435303" fill="none" stroke="rgb(137, 255, 227)" stroke-opacity="0.27046475" stroke-linecap="round" stroke-linejoin="round"/>
    <path d="M 74.62274169921875 40.6300163269043 C 74.00848388671875 39.86791229248047 73.19085693359375 39.38433074951172 72.74134063720703 38.56258010864258 C 71.76134490966797 38.30180740356445 76.82319641113281 43.8339958190918 80.64312744140625 50.46047592163086" stroke-width="2.337960720062256" fill="none" stroke="rgb(33, 255, 225)" stroke-opacity="0.8216157" stroke-linecap="round" stroke-linejoin="round"/>
    <path d="M 54.51521682739258 79.66356658935547 C 57.44644546508789 78.19342803955078 58.6409912109375 79.24745178222656 63.99201583862305 76.87088775634766" stroke-width="1.3830434083938599" fill="none" stroke="rgb(67, 103, 108)" stroke-opacity="0.85798687" stroke-linecap="round" stroke-linejoin="round"/>
    <path d="M 63.21696090698242 63.2515754699707 C 70.73170471191406 66.03961181640625 70.7428970336914 68.44364166259766 64.21830749511719 69.16944122314453" stroke-width="1.0892857313156128" fill="none" stroke="rgb(139, 229, 125)" stroke-opacity="0.31788355" stroke-linecap="round" stroke-linejoin="round"/>
    <path d="M 78.33454132080078 40.628841400146484 C 79.41106414794922 43.26506423950195 76.98152160644531 38.29717254638672 76.65522003173828 32.420711517333984" stroke-width="1.287760615348816" fill="none" stroke="rgb(65, 5, 119)" stroke-opacity="0.19123134" stroke-linecap="round" stroke-linejoin="round"/>
    <path d="M 64.51731872558594 26.254241943359375 C 62.352317810058594 26.343429565429688 60.14707565307617 26.324718475341797 58.72285461425781 26.340543746948242 C 56.70987319946289 25.83285140991211 55.724117279052734 23.05637550354004 56.79631042480469 21.342639923095703" stroke-width="1.2474098205566406" fill="none" stroke="rgb(87, 228, 171)" stroke-opacity="0.48842508" stroke-linecap="round" stroke-linejoin="round"/>
    <path d="M 73.7568359375 48.53007507324219 C 70.79364013671875 49.331512451171875 64.35358428955078 49.30888748168945 73.66654968261719 50.158966064453125" stroke-width="1.5781948566436768" fill="none" stroke="rgb(163, 255, 200)" stroke-opacity="0.41801077" stroke-linecap="round" stroke-linejoin="round"/>
    <path d="M 62.66063690185547 63.759971618652344 C 66.7109375 59.64005661010742 68.09786987304688 63.74545669555664 61.59659957885742 65.54093933105469" stroke-width="1.33210289478302" fill="none" stroke="rgb(30, 213, 174)" stroke-opacity="0.47234777" stroke-linecap="round" stroke-linejoin="round"/>
    <path d="M 74.68004608154297 50.39839553833008 C 72.53048706054688 52.67755126953125 69.40071105957031 54.55933380126953 66.61775207519531 56.616825103759766 C 64.07514190673828 58.928096771240234 64.99742126464844 53.71289825439453 64.42411804199219 49.00596618652344" stroke-width="1.3173058032989502" fill="none" stroke="rgb(83, 170, 116)" stroke-opacity="0.20286675" stroke-linecap="round" stroke-linejoin="round"/>
    <path d="M 64.80213928222656 70.74760437011719 C 67.71482849121094 68.28107452392578 69.60511779785156 64.21019744873047 68.81468200683594 60.03398513793945 C 67.9906234741211 55.669090270996094 66.20587158203125 50.29957962036133 64.33885955810547 44.89665222167969 C 62.067867279052734 39.663536071777344 63.527828216552734 46.6732063293457 64.32817077636719 54.47518539428711" stroke-width="1.7001665830612183" fill="none" stroke="rgb(20, 219, 228)" stroke-opacity="0.29096073" stroke-linecap="round" stroke-linejoin="round"/>
    <path d="M 64.17387390136719 70.38500213623047 C 63.35774612426758 61.921024322509766 65.03534698486328 61.134395599365234 62.53221130371094 52.6235237121582" stroke-width="1.3365757465362549" fill="none" stroke="rgb(213, 48, 95)" stroke-opacity="0.59269255" stroke-linecap="round" stroke-linejoin="round"/>
    <path d="M 76.96536254882812 34.0760498046875 C 79.31295013427734 25.916587829589844 77.5978775024414 30.85077667236328 79.02470397949219 30.160207748413086" stroke-width="1.0892857313156128" fill="none" stroke="rgb(159, 54, 17)" stroke-opacity="0.21062095" stroke-linecap="round" stroke-linejoin="round"/>
    <path d="M 78.9730453491211 34.66789245605469 C 81.07942962646484 32.69520950317383 84.55204010009766 31.72060775756836 86.51145935058594 29.125194549560547 C 89.07678985595703 26.251815795898438 88.18067169189453 24.161521911621094 87.30746459960938 23.507844924926758" stroke-width="1.4566038846969604" fill="none" stroke="rgb(239, 80, 171)" stroke-opacity="0.0" stroke-linecap="round" stroke-linejoin="round"/>
    <path d="M 63.72304916381836 76.32479858398438 C 66.83557891845703 73.27417755126953 72.31079864501953 76.77989959716797 69.24073791503906 73.31227111816406" stroke-width="1.8623485565185547" fill="none" stroke="rgb(54, 29, 4)" stroke-opacity="0.2160415" stroke-linecap="round" stroke-linejoin="round"/>
    <path d="M 62.26172637939453 65.11549377441406 C 65.2881851196289 71.82145690917969 67.53050231933594 77.78096008300781 64.6749267578125 80.36287689208984 C 62.503360748291016 83.84880828857422 57.72126007080078 81.90485382080078 53.068603515625 79.42720794677734 C 47.91370391845703 76.75677490234375 48.852455139160156 74.36083984375 50.23940658569336 71.96630859375" stroke-width="1.0892857313156128" fill="none" stroke="rgb(49, 155, 21)" stroke-opacity="0.15490417" stroke-linecap="round" stroke-linejoin="round"/>
    <path d="M 65.8420639038086 76.13473510742188 C 64.2154769897461 76.4253158569336 63.09834671020508 76.70761108398438 63.04009246826172 76.32735443115234 C 62.16911697387695 76.7903823852539 61.27778244018555 71.96229553222656 59.97221755981445 67.2601089477539" stroke-width="1.4315587282180786" fill="none" stroke="rgb(80, 157, 123)" stroke-opacity="0.5313226" stroke-linecap="round" stroke-linejoin="round"/>
    <path d="M 113.11285400390625 74.45496368408203 C 112.1565933227539 73.89896392822266 111.93767547607422 72.63664245605469 111.8110122680664 69.3348159790039 C 112.70581817626953 67.56844329833984 113.5292739868164 62.7967529296875 114.43151092529297 57.89458465576172 C 116.66424560546875 54.580135345458984 109.55264282226562 61.051719665527344 103.3636703491211 68.2161865234375" stroke-width="1.3770846128463745" fill="none" stroke="rgb(178, 254, 0)" stroke-opacity="0.3340793" stroke-linecap="round" stroke-linejoin="round"/>
    <path d="M 21.574106216430664 59.39551544189453 C 24.04827117919922 58.62809371948242 26.05548095703125 58.35940933227539 26.61189842224121 57.759395599365234 C 28.206811904907227 57.024356842041016 23.667470932006836 56.599430084228516 18.81355857849121 56.82437515258789" stroke-width="1.0892857313156128" fill="none" stroke="rgb(90, 196, 37)" stroke-opacity="0.1443657" stroke-linecap="round" stroke-linejoin="round"/>
    <path d="M 11.77985668182373 87.3031005859375 C 9.288222312927246 86.56919860839844 6.749037742614746 85.84978485107422 2.5449447631835938 87.31877136230469 C 0.8275407552719116 86.7764663696289 3.438467264175415 77.74895477294922 8.065513610839844 71.28935241699219" stroke-width="1.0892857313156128" fill="none" stroke="rgb(118, 43, 67)" stroke-opacity="0.6435716" stroke-linecap="round" stroke-linejoin="round"/>
    <path d="M 73.87151336669922 89.7657699584961 C 67.85072326660156 91.80179595947266 62.662635803222656 95.69192504882812 66.68976593017578 93.3438491821289" stroke-width="1.0892857313156128" fill="none" stroke="rgb(133, 227, 176)" stroke-opacity="0.7227464" stroke-linecap="round" stroke-linejoin="round"/>
    <path d="M 66.84034729003906 69.13888549804688 C 70.98051452636719 76.13396453857422 67.4563217163086 75.48809051513672 59.819740295410156 76.57763671875" stroke-width="1.702382206916809" fill="none" stroke="rgb(174, 123, 131)" stroke-opacity="0.48644617" stroke-linecap="round" stroke-linejoin="round"/>
    <path d="M 84.69850158691406 -1.545740008354187 C 84.84246063232422 -1.7958400249481201 84.98764038085938 -2.0459399223327637 83.89300537109375 -1.1344971656799316 C 82.73377227783203 -0.3060744106769562 80.23844909667969 1.610241174697876 77.37952423095703 3.1048011779785156 C 76.0841064453125 6.313507556915283 74.241455078125 10.305219650268555 73.34930419921875 14.617059707641602" stroke-width="1.276320219039917" fill="none" stroke="rgb(104, 211, 159)" stroke-opacity="0.0" stroke-linecap="round" stroke-linejoin="round"/>
    <path d="M 67.6905288696289 74.68382263183594 C 74.63851928710938 71.85780334472656 76.11457824707031 70.69135284423828 83.87693786621094 67.37679290771484" stroke-width="2.2800796031951904" fill="none" stroke="rgb(255, 51, 58)" stroke-opacity="0.48664525" stroke-linecap="round" stroke-linejoin="round"/>
    <path d="M 105.09724426269531 80.11955261230469 C 108.53687286376953 77.18209075927734 110.20133972167969 72.71836853027344 108.6395263671875 71.0108642578125 C 108.70204162597656 72.7057876586914 104.05335235595703 77.2512435913086 99.37677001953125 81.82677459716797 C 94.49576568603516 84.62704467773438 100.4644546508789 86.86353302001953 105.87870025634766 88.5406723022461" stroke-width="1.0892857313156128" fill="none" stroke="rgb(152, 92, 107)" stroke-opacity="0.45733488" stroke-linecap="round" stroke-linejoin="round"/>
    <path d="M 114.62028503417969 29.20172882080078 C 116.27021026611328 18.85215187072754 110.00670623779297 19.064746856689453 108.82102966308594 29.145610809326172" stroke-width="1.2288568019866943" fill="none" stroke="rgb(160, 19, 255)" stroke-opacity="0.8132032" stroke-linecap="round" stroke-linejoin="round"/>
    <path d="M 109.7746810913086 113.24380493164062 C 106.87065887451172 108.7890396118164 103.58619689941406 104.82379913330078 104.77434539794922 104.05146026611328 C 106.74455261230469 103.1397705078125 109.82392883300781 107.54505157470703 114.27992248535156 111.24609375 C 119.48590087890625 114.90258026123047 112.4199447631836 115.47328186035156 105.11599731445312 115.77422332763672" stroke-width="1.3027371168136597" fill="none" stroke="rgb(163, 88, 237)" stroke-opacity="0.116451494" stroke-linecap="round" stroke-linejoin="round"/>
    <path d="M 79.41690063476562 110.8004150390625 C 82.57962799072266 111.57981872558594 85.94035339355469 112.1786117553711 86.88420104980469 112.78572082519531 C 88.37125396728516 112.54959869384766 86.67495727539062 113.30941009521484 84.98428344726562 114.0252685546875 C 83.16496276855469 114.4225845336914 85.35486602783203 119.35016632080078 87.54598236083984 124.27896118164062" stroke-width="1.0892857313156128" fill="none" stroke="rgb(235, 209, 226)" stroke-opacity="0.0" stroke-linecap="round" stroke-linejoin="round"/>
    <path d="M 73.1082992553711 89.73130798339844 C 78.06603240966797 88.36837005615234 82.70471954345703 86.39868927001953 86.14970397949219 83.17176818847656 C 90.14360046386719 80.56163024902344 92.97814178466797 78.25816345214844 94.63307189941406 75.65006256103516" stroke-width="1.468662142753601" fill="none" stroke="rgb(147, 219, 171)" stroke-opacity="0.6655959" stroke-linecap="round" stroke-linejoin="round"/>
    <path d="M 6.371456146240234 86.42717742919922 C 6.138995170593262 86.05611419677734 9.257411003112793 86.6199951171875 18.928417205810547 83.04436492919922" stroke-width="1.0961135625839233" fill="none" stroke="rgb(58, 23, 255)" stroke-opacity="0.64872414" stroke-linecap="round" stroke-linejoin="round"/>
    <path d="M 119.44896697998047 -3.4968674182891846 C 119.65261840820312 -2.100497007369995 119.85466766357422 -0.7517115473747253 119.94683837890625 0.6681670546531677 C 119.29180908203125 2.974281072616577 119.30371856689453 1.234102487564087 119.1691665649414 -0.6188913583755493" stroke-width="1.0892857313156128" fill="none" stroke="rgb(175, 241, 84)" stroke-opacity="0.2366199" stroke-linecap="round" stroke-linejoin="round"/>
    <path d="M 94.99081420898438 8.337228775024414 C 98.13009643554688 8.073284149169922 92.3718490600586 6.685718059539795 93.13291931152344 16.297582626342773" stroke-width="1.0892857313156128" fill="none" stroke="rgb(160, 191, 102)" stroke-opacity="0.27695355" stroke-linecap="round" stroke-linejoin="round"/>
    <path d="M 78.72750854492188 62.206424713134766 C 81.5848617553711 64.37359619140625 84.20938110351562 65.36422729492188 86.45713806152344 66.61158752441406 C 88.0789566040039 68.51461029052734 86.34565734863281 62.75550842285156 81.80382537841797 59.12797546386719" stroke-width="1.0892857313156128" fill="none" stroke="rgb(41, 6, 244)" stroke-opacity="0.6566826" stroke-linecap="round" stroke-linejoin="round"/>
    <path d="M 43.292606353759766 14.315613746643066 C 41.56243896484375 14.148871421813965 41.303592681884766 14.03359603881836 41.37995529174805 13.318439483642578 C 40.79323959350586 14.103699684143066 39.22578048706055 13.386210441589355 39.5007438659668 14.150514602661133 C 37.1655387878418 14.197965621948242 34.732032775878906 16.129383087158203 34.96733856201172 19.724815368652344 C 33.6148796081543 22.609020233154297 32.327999114990234 24.62147331237793 32.50386428833008 27.000986099243164 C 32.75846862792969 30.29172706604004 33.985321044921875 32.12532424926758 34.30086135864258 34.10628890991211 C 34.46806335449219 37.05096435546875 33.79296875 37.5337028503418 34.049468994140625 38.685401916503906 C 34.78778839111328 39.72054672241211 36.19292068481445 41.018890380859375 38.44086837768555 42.871253967285156 C 39.67306900024414 45.826168060302734 41.5677490234375 49.660560607910156 43.3082275390625 53.21168899536133 C 45.515167236328125 56.31882858276367 47.09904861450195 59.69746017456055 48.6875 60.62194061279297 C 49.90389633178711 62.22955322265625 50.48097610473633 63.134361267089844 50.193519592285156 63.35451889038086 C 49.77397155761719 63.55528259277344 49.008480072021484 63.88521957397461 46.189029693603516 64.28645324707031 C 44.49977493286133 65.60328674316406 42.26390075683594 68.34818267822266 39.79526901245117 70.71344757080078 C 38.24771499633789 74.40766906738281 35.358306884765625 76.02500915527344 31.798778533935547 77.31684112548828 C 27.550100326538086 77.1151351928711 27.570417404174805 79.22484588623047 27.49302101135254 80.05232238769531" stroke-width="1.0892857313156128" fill="none" stroke="rgb(30, 37, 8)" stroke-opacity="0.6601568" stroke-linecap="round" stroke-linejoin="round"/>
    <path d="M 38.472198486328125 117.10523223876953 C 37.389015197753906 117.15715026855469 37.22267532348633 117.171630859375 37.19281768798828 113.31505584716797 C 38.23057174682617 109.94080352783203 38.43046951293945 100.72460174560547 38.100955963134766 93.7566909790039 C 37.09776306152344 85.48115539550781 36.790489196777344 57.97438049316406 37.382083892822266 28.691781997680664" stroke-width="1.452260971069336" fill="none" stroke="rgb(35, 30, 7)" stroke-opacity="1.0" stroke-linecap="round" stroke-linejoin="round"/>
    <path d="M 56.04558563232422 26.23236083984375 C 57.16216278076172 24.460615158081055 57.217742919921875 25.513675689697266 56.45923614501953 25.49221420288086 C 55.316009521484375 25.312511444091797 52.66086959838867 25.440872192382812 51.028160095214844 26.746665954589844 C 49.769500732421875 26.530405044555664 46.859981536865234 26.130775451660156 44.235321044921875 25.641496658325195 C 42.10341262817383 24.62360954284668 39.79872131347656 23.484596252441406 38.26457595825195 23.247074127197266 C 37.84699249267578 22.11406707763672 37.59441375732422 22.501361846923828 37.7817497253418 22.180004119873047 C 37.72186279296875 22.22292709350586 32.803062438964844 21.027267456054688 28.018030166625977 19.86367416381836" stroke-width="1.352308750152588" fill="none" stroke="rgb(36, 27, 10)" stroke-opacity="1.0" stroke-linecap="round" stroke-linejoin="round"/>
    <path d="M 38.01901626586914 23.39577293395996 C 43.916160583496094 18.720544815063477 42.304344177246094 25.038625717163086 47.70985794067383 27.01006317138672" stroke-width="1.4633293151855469" fill="none" stroke="rgb(243, 57, 71)" stroke-opacity="0.66403764" stroke-linecap="round" stroke-linejoin="round"/>
    <path d="M 52.349082946777344 25.801267623901367 C 52.72390365600586 25.60868263244629 54.44673156738281 25.586809158325195 55.573204040527344 25.673404693603516 C 55.78886032104492 25.2080135345459 55.85578155517578 24.673398971557617 55.62339401245117 24.56666374206543 C 55.20405578613281 24.04800796508789 56.96311569213867 19.008548736572266 59.759395599365234 15.180654525756836" stroke-width="1.179131031036377" fill="none" stroke="rgb(139, 183, 23)" stroke-opacity="0.34465325" stroke-linecap="round" stroke-linejoin="round"/>
    <path d="M 6.733733177185059 70.4273452758789 C 5.177997589111328 77.53257751464844 3.3971636295318604 84.35746002197266 3.2018651962280273 87.13394927978516 C 2.068434238433838 88.10127258300781 2.3983068466186523 85.71192169189453 2.2754926681518555 84.29224395751953 C 3.4942643642425537 82.25431823730469 5.144827842712402 81.7128677368164 7.385565280914307 80.4951400756836" stroke-width="1.2361334562301636" fill="none" stroke="rgb(7, 213, 150)" stroke-opacity="0.18984786" stroke-linecap="round" stroke-linejoin="round"/>
    <path d="M 58.69241714477539 26.170982360839844 C 56.603572845458984 27.936038970947266 54.4344596862793 28.65676498413086 51.405059814453125 28.278301239013672 C 48.99893569946289 29.178447723388672 52.80067825317383 28.2950382232666 55.45735549926758 26.59172248840332" stroke-width="1.1490179300308228" fill="none" stroke="rgb(97, 124, 141)" stroke-opacity="0.46282116" stroke-linecap="round" stroke-linejoin="round"/>
    <path d="M 78.82041931152344 40.86494827270508 C 78.10319519042969 46.41716003417969 78.44111633300781 49.56206130981445 84.6558837890625 47.296958923339844" stroke-width="1.0892857313156128" fill="none" stroke="rgb(127, 8, 241)" stroke-opacity="0.6052717" stroke-linecap="round" stroke-linejoin="round"/>
    <path d="M 62.69770431518555 67.90123748779297 C 67.21308898925781 64.90660858154297 72.8601303100586 62.733558654785156 79.70661163330078 58.482688903808594" stroke-width="1.0892857313156128" fill="none" stroke="rgb(23, 94, 110)" stroke-opacity="0.79322314" stroke-linecap="round" stroke-linejoin="round"/>
    <path d="M 69.30390167236328 73.6128921508789 C 72.46379089355469 77.54899597167969 75.73011016845703 82.33256530761719 77.52908325195312 84.2967758178711 C 80.35157775878906 84.77693939208984 83.55481719970703 81.46924591064453 86.27543640136719 78.74943542480469 C 88.9581527709961 75.97262573242188 85.4814224243164 80.06787109375 84.02326202392578 85.10597229003906" stroke-width="1.0892857313156128" fill="none" stroke="rgb(234, 171, 114)" stroke-opacity="0.40558514" stroke-linecap="round" stroke-linejoin="round"/>
    <path d="M 65.53962707519531 26.156736373901367 C 64.6422119140625 27.77361297607422 63.74123001098633 28.370824813842773 65.6348876953125 31.632740020751953 C 67.90026092529297 34.53645706176758 73.06768035888672 39.198486328125 78.39579772949219 43.789093017578125 C 82.75881958007812 49.35340118408203 85.19645690917969 46.80957794189453 87.62763214111328 44.34550857543945" stroke-width="1.4891595840454102" fill="none" stroke="rgb(251, 233, 2)" stroke-opacity="0.034618955" stroke-linecap="round" stroke-linejoin="round"/>
    <path d="M 77.43148803710938 56.19881057739258 C 73.44827270507812 57.45203399658203 77.52728271484375 65.11309051513672 78.2513198852539 61.53898239135742" stroke-width="1.1005030870437622" fill="none" stroke="rgb(180, 238, 133)" stroke-opacity="0.9586093" stroke-linecap="round" stroke-linejoin="round"/>
    <path d="M 6.590428829193115 80.70711517333984 C 9.222463607788086 80.59420776367188 10.697284698486328 79.99102020263672 11.721977233886719 79.2754898071289 C 11.806424140930176 76.84546661376953 5.233913421630859 77.29759979248047 -1.359555721282959 76.42535400390625" stroke-width="1.5849905014038086" fill="none" stroke="rgb(2, 195, 165)" stroke-opacity="0.27356932" stroke-linecap="round" stroke-linejoin="round"/>
    <path d="M 60.45345687866211 14.884077072143555 C 62.783695220947266 19.336578369140625 61.97299575805664 23.159788131713867 57.76421356201172 21.983797073364258" stroke-width="1.2492977380752563" fill="none" stroke="rgb(89, 253, 238)" stroke-opacity="0.8729981" stroke-linecap="round" stroke-linejoin="round"/>
    <path d="M 82.17915344238281 87.74320983886719 C 86.24811553955078 91.99209594726562 89.54473114013672 86.8687515258789 84.54524230957031 89.48594665527344" stroke-width="1.1098744869232178" fill="none" stroke="rgb(178, 216, 203)" stroke-opacity="0.64326274" stroke-linecap="round" stroke-linejoin="round"/>
    <path d="M 8.343393325805664 79.98543548583984 C 10.202750205993652 85.04338836669922 10.706978797912598 88.19252014160156 6.415862083435059 89.42228698730469" stroke-width="1.1165024042129517" fill="none" stroke="rgb(155, 67, 106)" stroke-opacity="0.60677135" stroke-linecap="round" stroke-linejoin="round"/>
    <path d="M 6.869264125823975 81.06608581542969 C 8.337777137756348 77.45368957519531 6.78413200378418 81.20138549804688 5.771912097930908 80.20272827148438" stroke-width="1.2336710691452026" fill="none" stroke="rgb(214, 249, 125)" stroke-opacity="0.09155739" stroke-linecap="round" stroke-linejoin="round"/>
    <path d="M 61.46282958984375 13.439258575439453 C 57.18326187133789 10.2866849899292 53.77360153198242 6.471263885498047 53.611507415771484 3.0622148513793945 C 52.22091293334961 -0.25967004895210266 53.003231048583984 -1.295479416847229 55.385902404785156 -2.8854527473449707 C 57.357078552246094 -4.283419609069824 58.808876037597656 -6.985720157623291 60.26190185546875 -9.688019752502441" stroke-width="1.0892857313156128" fill="none" stroke="rgb(147, 115, 16)" stroke-opacity="0.64119816" stroke-linecap="round" stroke-linejoin="round"/>
    <path d="M 59.63434600830078 15.073235511779785 C 60.84560012817383 16.49381446838379 63.72703170776367 17.17406463623047 65.77205657958984 18.265806198120117 C 68.12855529785156 19.188861846923828 70.43437194824219 20.02190399169922 70.98765563964844 20.97981834411621 C 73.15743255615234 21.834442138671875 75.57495880126953 14.833150863647461 79.20692443847656 8.217998504638672" stroke-width="1.0892857313156128" fill="none" stroke="rgb(73, 119, 152)" stroke-opacity="0.32025707" stroke-linecap="round" stroke-linejoin="round"/>
    <path d="M 21.387636184692383 29.175273895263672 C 21.327194213867188 25.727951049804688 21.03057289123535 23.191247940063477 19.502506256103516 22.483657836914062 C 18.9540958404541 22.68010139465332 17.507112503051758 25.45473289489746 17.42352867126465 29.218082427978516 C 16.182876586914062 30.993650436401367 17.496440887451172 34.81474304199219 17.244258880615234 40.128501892089844" stroke-width="1.5073108673095703" fill="none" stroke="rgb(224, 249, 75)" stroke-opacity="0.23092096" stroke-linecap="round" stroke-linejoin="round"/>
    <path d="M 70.505126953125 114.90521240234375 C 76.68873596191406 111.18466186523438 77.82799530029297 108.01515197753906 74.51966857910156 112.92826080322266" stroke-width="1.3792873620986938" fill="none" stroke="rgb(214, 16, 172)" stroke-opacity="0.7565912" stroke-linecap="round" stroke-linejoin="round"/>
    <path d="M 39.110408782958984 88.94620513916016 C 44.036277770996094 88.56228637695312 47.91318130493164 92.53260803222656 51.60508728027344 91.1133041381836" stroke-width="1.0892857313156128" fill="none" stroke="rgb(136, 199, 169)" stroke-opacity="0.7567311" stroke-linecap="round" stroke-linejoin="round"/>
    <path d="M 113.54095458984375 61.25975799560547 C 113.39094543457031 65.78353881835938 113.0759506225586 69.99048614501953 112.52516174316406 72.78959655761719 C 114.5873794555664 73.61033630371094 116.771484375 75.09477233886719 118.81602478027344 76.72159576416016 C 120.8511962890625 77.78186798095703 120.53789520263672 75.9603271484375 120.42733764648438 75.6521987915039" stroke-width="1.0892857313156128" fill="none" stroke="rgb(42, 201, 141)" stroke-opacity="0.069047414" stroke-linecap="round" stroke-linejoin="round"/>
    <path d="M 91.02635955810547 38.032188415527344 C 88.9942855834961 36.28020477294922 88.00328826904297 34.09746551513672 88.4535903930664 30.1512393951416 C 87.86134338378906 27.9967041015625 95.71450805664062 30.822559356689453 102.30830383300781 34.62131881713867" stroke-width="1.255414605140686" fill="none" stroke="rgb(197, 165, 43)" stroke-opacity="0.45046037" stroke-linecap="round" stroke-linejoin="round"/>
    <path d="M 53.369930267333984 110.40533447265625 C 52.945796966552734 110.69039916992188 52.3549690246582 111.18775939941406 51.556522369384766 111.94672393798828 C 50.188236236572266 112.50663757324219 50.18299865722656 107.74720764160156 48.57609176635742 104.63163757324219" stroke-width="1.0892857313156128" fill="none" stroke="rgb(182, 208, 144)" stroke-opacity="0.37015468" stroke-linecap="round" stroke-linejoin="round"/>
    <path d="M 109.916748046875 109.41534423828125 C 110.98065185546875 110.43579864501953 112.00335693359375 111.15837097167969 111.87736511230469 111.75231170654297 C 112.69473266601562 111.71621704101562 114.41529083251953 109.23381042480469 116.30086517333984 106.9452133178711" stroke-width="1.0892857313156128" fill="none" stroke="rgb(113, 194, 35)" stroke-opacity="0.6870476" stroke-linecap="round" stroke-linejoin="round"/>
    <path d="M 2.96016001701355 97.77269744873047 C 4.915004730224609 96.4456558227539 6.758523464202881 94.83967590332031 8.64462661743164 96.19434356689453 C 9.7408447265625 97.54195404052734 13.746307373046875 97.25926971435547 15.543088912963867 99.30926513671875 C 17.952880859375 100.7878646850586 15.992783546447754 100.30787658691406 15.310956001281738 100.92544555664062" stroke-width="1.2813422679901123" fill="none" stroke="rgb(164, 238, 118)" stroke-opacity="0.3792688" stroke-linecap="round" stroke-linejoin="round"/>
    <path d="M 83.08901977539062 110.76327514648438 C 83.90238189697266 104.03851318359375 81.3027114868164 98.71598052978516 82.4576187133789 102.43085479736328" stroke-width="1.0892857313156128" fill="none" stroke="rgb(196, 101, 179)" stroke-opacity="0.721419" stroke-linecap="round" stroke-linejoin="round"/>
    <path d="M 27.147655487060547 32.1225471496582 C 26.033275604248047 27.611921310424805 23.915185928344727 25.151525497436523 26.673843383789062 29.004108428955078" stroke-width="1.0892857313156128" fill="none" stroke="rgb(106, 161, 139)" stroke-opacity="0.9512005" stroke-linecap="round" stroke-linejoin="round"/>
    <path d="M 55.014976501464844 114.0772476196289 C 56.55768585205078 113.56092071533203 58.306922912597656 113.53234100341797 58.14564514160156 111.40361785888672 C 57.01769256591797 110.31976318359375 55.241737365722656 108.2334976196289 53.91645431518555 105.69231414794922 C 51.11696243286133 104.61185455322266 53.48529815673828 105.80951690673828 54.58865737915039 108.53047943115234" stroke-width="1.0892857313156128" fill="none" stroke="rgb(225, 137, 243)" stroke-opacity="0.7839068" stroke-linecap="round" stroke-linejoin="round"/>
    <path d="M 41.752681732177734 105.69149017333984 C 35.712684631347656 107.75057983398438 35.96488952636719 109.2032241821289 31.22425651550293 105.87813568115234" stroke-width="1.0892857313156128" fill="none" stroke="rgb(116, 138, 205)" stroke-opacity="0.68671083" stroke-linecap="round" stroke-linejoin="round"/>
    <path d="M 62.23245620727539 6.683297634124756 C 66.17833709716797 4.272851943969727 70.00629425048828 1.2573189735412598 72.32966613769531 0.3642624020576477 C 74.27290344238281 -0.39956578612327576 74.8429946899414 1.3180572986602783 74.96522521972656 3.7337663173675537 C 75.31952667236328 4.51675271987915 75.9839096069336 3.157787561416626 77.15714263916016 2.40790057182312" stroke-width="1.1274796724319458" fill="none" stroke="rgb(194, 184, 102)" stroke-opacity="0.59045297" stroke-linecap="round" stroke-linejoin="round"/>
    <path d="M 101.65567779541016 100.31256866455078 C 103.77273559570312 99.74028015136719 110.04362487792969 104.3779067993164 110.55418395996094 107.5908203125" stroke-width="1.1604372262954712" fill="none" stroke="rgb(245, 68, 81)" stroke-opacity="0.75322616" stroke-linecap="round" stroke-linejoin="round"/>
    <path d="M 24.308298110961914 25.96872329711914 C 18.970155715942383 21.827720642089844 13.52934455871582 17.920896530151367 13.002959251403809 18.547006607055664 C 12.302501678466797 19.113779067993164 17.499406814575195 23.017993927001953 24.160085678100586 25.487693786621094 C 29.77231788635254 28.702022552490234 25.541006088256836 27.740650177001953 21.441896438598633 26.59733009338379" stroke-width="1.0892857313156128" fill="none" stroke="rgb(203, 176, 196)" stroke-opacity="0.445956" stroke-linecap="round" stroke-linejoin="round"/>
    <path d="M 88.43888092041016 47.6090087890625 C 88.47651672363281 45.52631759643555 85.72525787353516 51.726253509521484 84.67889404296875 49.69700622558594" stroke-width="1.1305429935455322" fill="none" stroke="rgb(187, 218, 190)" stroke-opacity="0.7738217" stroke-linecap="round" stroke-linejoin="round"/>
    <path d="M 108.88865661621094 110.04698944091797 C 113.34536743164062 115.39743041992188 114.152587890625 117.68083953857422 116.36073303222656 121.42863464355469" stroke-width="1.2396773099899292" fill="none" stroke="rgb(172, 128, 221)" stroke-opacity="0.8195076" stroke-linecap="round" stroke-linejoin="round"/>
    <path d="M 104.56045532226562 67.82804870605469 C 107.78612518310547 71.66332244873047 107.22527313232422 74.2366943359375 105.78327941894531 69.71806335449219 C 101.60271453857422 74.44103240966797 103.90583801269531 73.61856079101562 100.28809356689453 73.61555480957031 C 99.66559600830078 73.8014907836914 98.5355224609375 66.83844757080078 98.44037628173828 65.8563232421875" stroke-width="1.0892857313156128" fill="none" stroke="rgb(37, 122, 13)" stroke-opacity="0.43999985" stroke-linecap="round" stroke-linejoin="round"/>
    <path d="M 9.361455917358398 97.14522552490234 C 12.001633644104004 90.40392303466797 5.962927341461182 85.85859680175781 7.995608806610107 84.51272583007812" stroke-width="1.0892857313156128" fill="none" stroke="rgb(253, 204, 115)" stroke-opacity="0.60446167" stroke-linecap="round" stroke-linejoin="round"/>
    <path d="M 7.882030487060547 72.26993560791016 C 9.087332725524902 74.16887664794922 12.812220573425293 79.80027770996094 11.34310245513916 84.1882095336914 C 15.890254020690918 86.92909240722656 17.879961013793945 81.96487426757812 11.688345909118652 81.00374603271484" stroke-width="1.0892857313156128" fill="none" stroke="rgb(180, 204, 27)" stroke-opacity="0.71395105" stroke-linecap="round" stroke-linejoin="round"/>
    <path d="M 55.97888946533203 19.44055938720703 C 52.654170989990234 25.045774459838867 55.8721809387207 27.352157592773438 53.91715621948242 27.560787200927734" stroke-width="1.0892857313156128" fill="none" stroke="rgb(226, 8, 11)" stroke-opacity="0.0" stroke-linecap="round" stroke-linejoin="round"/>
    <path d="M 70.77230834960938 115.16561889648438 C 65.72000885009766 108.5191879272461 67.50557708740234 104.89445495605469 73.31482696533203 107.94718170166016" stroke-width="1.3427131175994873" fill="none" stroke="rgb(103, 180, 80)" stroke-opacity="0.44625062" stroke-linecap="round" stroke-linejoin="round"/>
    <path d="M 114.47781372070312 28.0289363861084 C 108.26782989501953 32.43165969848633 104.230712890625 35.05458068847656 100.5215835571289 34.98209762573242 C 99.5995864868164 36.5282096862793 97.58502197265625 32.94474411010742 92.93456268310547 35.20208740234375" stroke-width="1.0892857313156128" fill="none" stroke="rgb(207, 182, 114)" stroke-opacity="0.45206138" stroke-linecap="round" stroke-linejoin="round"/>
    <path d="M 56.3073616027832 25.90360450744629 C 52.0556640625 21.733304977416992 51.296756744384766 16.597719192504883 56.85955810546875 19.085973739624023 C 60.368473052978516 25.110179901123047 57.91851043701172 26.44130516052246 59.63970184326172 32.016143798828125" stroke-width="1.0892857313156128" fill="none" stroke="rgb(76, 87, 229)" stroke-opacity="0.049624868" stroke-linecap="round" stroke-linejoin="round"/>
    <path d="M 98.73340606689453 65.57794952392578 C 103.50574493408203 67.23711395263672 98.78819274902344 65.04019927978516 99.41732788085938 62.3211669921875 C 100.88008117675781 58.30454635620117 100.10504913330078 59.69269943237305 98.6943359375 65.13736724853516" stroke-width="1.0892857313156128" fill="none" stroke="rgb(58, 152, 168)" stroke-opacity="0.88840854" stroke-linecap="round" stroke-linejoin="round"/>
    <path d="M 59.31952667236328 31.62044906616211 C 65.51595306396484 35.333961486816406 70.21295928955078 29.032238006591797 68.40404510498047 32.661651611328125 C 70.98524475097656 28.20293426513672 66.51092529296875 34.2771110534668 69.16548156738281 37.79204177856445" stroke-width="1.0892857313156128" fill="none" stroke="rgb(139, 156, 52)" stroke-opacity="0.6400398" stroke-linecap="round" stroke-linejoin="round"/>
    <path d="M 116.33583068847656 121.49890899658203 C 121.23635864257812 118.24201965332031 118.5627212524414 117.37238311767578 113.6171875 111.03751373291016 C 108.20393371582031 106.14620971679688 112.79344940185547 104.24908447265625 114.99646759033203 98.71825408935547" stroke-width="1.1302317380905151" fill="none" stroke="rgb(49, 90, 130)" stroke-opacity="0.6727675" stroke-linecap="round" stroke-linejoin="round"/>
    <path d="M 73.02491760253906 107.93498992919922 C 75.17288208007812 105.56104278564453 80.81018829345703 111.31661224365234 85.57591247558594 111.0271987915039 C 87.47964477539062 116.8192138671875 93.64856719970703 118.38571166992188 92.1390151977539 113.13280487060547" stroke-width="1.0892857313156128" fill="none" stroke="rgb(30, 19, 217)" stroke-opacity="0.2765702" stroke-linecap="round" stroke-linejoin="round"/>
    <path d="M 116.48104095458984 121.2424545288086 C 111.21430969238281 117.84342193603516 105.3094482421875 114.24853515625 108.47645568847656 112.2047348022461 C 112.40495300292969 115.54219055175781 107.43682098388672 114.78019714355469 111.23096466064453 116.48088836669922 C 112.7091064453125 117.26358032226562 118.4367446899414 121.96528625488281 119.45584869384766 121.2476806640625" stroke-width="1.430221676826477" fill="none" stroke="rgb(234, 108, 202)" stroke-opacity="0.8736297" stroke-linecap="round" stroke-linejoin="round"/>
    <path d="M 92.18954467773438 33.983211517333984 C 87.84009552001953 29.343748092651367 82.04895782470703 24.25565528869629 77.23294830322266 23.604459762573242 C 72.42479705810547 23.358985900878906 67.98371124267578 23.365079879760742 69.53781127929688 20.095441818237305" stroke-width="1.0892857313156128" fill="none" stroke="rgb(220, 122, 147)" stroke-opacity="0.2439008" stroke-linecap="round" stroke-linejoin="round"/>
    <path d="M 91.92561340332031 33.93821716308594 C 91.56717681884766 38.283790588378906 93.49248504638672 39.692787170410156 91.10892486572266 40.86528396606445 C 93.64268493652344 39.488922119140625 96.84098815917969 38.03142547607422 96.0157470703125 40.647403717041016" stroke-width="1.0892857313156128" fill="none" stroke="rgb(247, 146, 167)" stroke-opacity="0.012382718" stroke-linecap="round" stroke-linejoin="round"/>
    <path d="M 59.309024810791016 31.90159034729004 C 54.218528747558594 33.10116958618164 54.75332260131836 27.983943939208984 56.79060745239258 23.02995491027832 C 57.72589111328125 22.093477249145508 60.9981689453125 21.14160919189453 55.394229888916016 26.74938201904297" stroke-width="1.5041499137878418" fill="none" stroke="rgb(150, 225, 0)" stroke-opacity="0.953204" stroke-linecap="round" stroke-linejoin="round"/>
    <path d="M 112.66102600097656 30.70985984802246 C 109.31597900390625 26.241558074951172 112.60437774658203 29.738561630249023 116.34706115722656 34.268558502197266 C 121.99373626708984 33.76642990112305 119.44196319580078 38.44404983520508 115.10983276367188 43.445011138916016" stroke-width="1.0892857313156128" fill="none" stroke="rgb(147, 45, 14)" stroke-opacity="0.27517956" stroke-linecap="round" stroke-linejoin="round"/>
    <path d="M 39.02619171142578 60.3436393737793 C 38.24544143676758 62.98860549926758 41.423545837402344 58.663944244384766 44.33576202392578 54.652400970458984" stroke-width="1.189175009727478" fill="none" stroke="rgb(26, 233, 100)" stroke-opacity="0.09775294" stroke-linecap="round" stroke-linejoin="round"/>
    <path d="M 90.55735778808594 93.32979583740234 C 92.94087219238281 93.25841522216797 98.174560546875 95.38451385498047 95.9776840209961 97.12300872802734 C 98.16654205322266 102.77535247802734 98.32046508789062 106.98375701904297 99.20552825927734 113.2973403930664" stroke-width="1.0914065837860107" fill="none" stroke="rgb(91, 230, 232)" stroke-opacity="0.16719307" stroke-linecap="round" stroke-linejoin="round"/>
    <path d="M 60.470977783203125 28.814390182495117 C 57.17738342285156 27.77931785583496 52.46059799194336 30.582313537597656 53.07311248779297 23.903398513793945 C 53.985145568847656 19.010120391845703 53.716426849365234 16.49823760986328 58.45454788208008 15.966922760009766" stroke-width="1.504377007484436" fill="none" stroke="rgb(34, 251, 26)" stroke-opacity="0.42119578" stroke-linecap="round" stroke-linejoin="round"/>
    <path d="M 101.96832275390625 104.10087585449219 C 102.75170135498047 110.1486587524414 103.80921173095703 116.2993392944336 105.60200500488281 111.55988311767578" stroke-width="1.4236527681350708" fill="none" stroke="rgb(99, 74, 109)" stroke-opacity="0.6529979" stroke-linecap="round" stroke-linejoin="round"/>
    <path d="M 39.38113021850586 114.28031921386719 C 35.06620788574219 110.41114807128906 31.362951278686523 104.73064422607422 32.07831573486328 100.19795989990234 C 27.737455368041992 96.61507415771484 24.012849807739258 95.3097152709961 25.056367874145508 99.96389770507812" stroke-width="1.0892857313156128" fill="none" stroke="rgb(181, 14, 78)" stroke-opacity="0.8607658" stroke-linecap="round" stroke-linejoin="round"/>
    <path d="M 116.93919372558594 74.9964599609375 C 119.9832534790039 68.5338134765625 122.64510345458984 64.0379638671875 121.97900390625 66.17826080322266 C 119.81222534179688 64.239501953125 122.14009094238281 63.48674392700195 127.5518569946289 57.639251708984375 C 125.11527252197266 62.22517013549805 122.43666076660156 62.77131652832031 127.5474853515625 64.8332748413086" stroke-width="1.153339147567749" fill="none" stroke="rgb(183, 8, 156)" stroke-opacity="0.87718785" stroke-linecap="round" stroke-linejoin="round"/>
    <path d="M 102.39669036865234 114.9585952758789 C 106.9907455444336 119.59947204589844 110.10730743408203 113.75401306152344 111.91799926757812 108.27586364746094" stroke-width="1.0892857313156128" fill="none" stroke="rgb(186, 105, 87)" stroke-opacity="0.83420926" stroke-linecap="round" stroke-linejoin="round"/>
    <path d="M 62.59020233154297 0.09152977168560028 C 58.65371322631836 0.6679259538650513 52.954044342041016 -4.483440399169922 47.109134674072266 -0.12994681298732758 C 41.82015609741211 4.028807163238525 40.29511260986328 8.009358406066895 37.848140716552734 2.878180980682373" stroke-width="1.0892857313156128" fill="none" stroke="rgb(145, 181, 239)" stroke-opacity="0.28068507" stroke-linecap="round" stroke-linejoin="round"/>
    <path d="M 60.34404754638672 117.76675415039062 C 60.7298583984375 119.14732360839844 65.07955169677734 124.71143341064453 64.96823120117188 128.69454956054688 C 61.04043197631836 131.14532470703125 61.0523681640625 136.63119506835938 66.41362762451172 133.24363708496094" stroke-width="1.11445152759552" fill="none" stroke="rgb(181, 103, 209)" stroke-opacity="0.46170172" stroke-linecap="round" stroke-linejoin="round"/>
    <path d="M 43.84227752685547 108.1406478881836 C 47.96712112426758 107.0875473022461 46.2884635925293 106.02237701416016 47.39030838012695 110.20161437988281" stroke-width="1.1850221157073975" fill="none" stroke="rgb(116, 169, 88)" stroke-opacity="0.15348756" stroke-linecap="round" stroke-linejoin="round"/>
    <path d="M 1.2306432723999023 109.98340606689453 C -0.7976108193397522 105.90721893310547 -6.222384452819824 100.98124694824219 -11.501542091369629 106.66849517822266 C -13.447342872619629 101.8912124633789 -8.236039161682129 105.975341796875 -13.14509105682373 107.39924621582031 C -11.855331420898438 102.53688049316406 -15.294127464294434 102.02737426757812 -16.37087059020996 96.59796905517578" stroke-width="1.0892857313156128" fill="none" stroke="rgb(82, 119, 185)" stroke-opacity="0.029026978" stroke-linecap="round" stroke-linejoin="round"/>
    <path d="M 109.69621276855469 42.190494537353516 C 111.56307983398438 41.32622528076172 106.75642395019531 44.02229690551758 103.91043090820312 45.59506607055664" stroke-width="1.3189393281936646" fill="none" stroke="rgb(252, 73, 192)" stroke-opacity="0.23688793" stroke-linecap="round" stroke-linejoin="round"/>
    <path d="M 70.79633331298828 63.40946960449219 C 65.64852905273438 64.42919921875 67.42291259765625 62.186546325683594 71.47451782226562 66.5112075805664 C 67.541015625 62.599998474121094 63.93684387207031 57.4847412109375 64.11577606201172 61.93356704711914 C 61.734989166259766 67.15274810791016 61.45485305786133 65.72278594970703 55.793880462646484 70.6264419555664" stroke-width="1.5013866424560547" fill="none" stroke="rgb(46, 28, 73)" stroke-opacity="0.32568568" stroke-linecap="round" stroke-linejoin="round"/>
    <path d="M 61.38570785522461 115.63517761230469 C 56.141685485839844 116.11737060546875 59.52298355102539 120.17447662353516 58.7093620300293 118.28040313720703 C 57.19972229003906 118.05963134765625 51.38739776611328 123.57111358642578 51.37306594848633 121.66163635253906" stroke-width="1.3938415050506592" fill="none" stroke="rgb(63, 248, 182)" stroke-opacity="0.18231732" stroke-linecap="round" stroke-linejoin="round"/>
    <path d="M 24.28535270690918 -0.18416474759578705 C 28.022884368896484 -1.5004503726959229 31.519201278686523 -1.3010274171829224 26.55742835998535 2.654721736907959 C 20.739803314208984 2.8008651733398438 21.45684051513672 3.3193869590759277 23.981719970703125 2.9994800090789795" stroke-width="1.1575446128845215" fill="none" stroke="rgb(172, 88, 81)" stroke-opacity="0.56053674" stroke-linecap="round" stroke-linejoin="round"/>
  </g>
</svg>
