<?xml version="1.0" ?>
<svg xmlns="http://www.w3.org/2000/svg" version="1.1" width="1104.0" height="1104.0">
  <defs/>
  <g>
    <path d="M 103.7995834350586 73.57877349853516 C 105.29067993164062 69.68812561035156 107.2292251586914 69.11067199707031 111.26860809326172 75.1915054321289 C 111.970703125 72.97331237792969 114.41007232666016 69.80365753173828 113.96517181396484 69.14979553222656" stroke-width="1.2128971815109253" fill="none" stroke="rgb(116, 101, 108)" stroke-opacity="0.062123332" stroke-linecap="round" stroke-linejoin="round"/>
    <path d="M 59.885257720947266 111.02223205566406 C 61.24354934692383 108.52761840820312 57.803958892822266 107.74609375 58.32343292236328 106.72416687011719" stroke-width="1.1026785373687744" fill="none" stroke="rgb(5, 74, 139)" stroke-opacity="0.5214268" stroke-linecap="round" stroke-linejoin="round"/>
    <path d="M 70.43487548828125 14.760703086853027 C 65.81053924560547 17.747783660888672 61.63314437866211 22.3973445892334 55.83144760131836 26.43604278564453 C 51.61273956298828 30.93800163269043 46.592742919921875 33.54730987548828 49.91813278198242 31.030380249023438 C 51.41523361206055 27.826705932617188 56.868587493896484 27.927244186401367 59.13730239868164 22.281036376953125" stroke-width="1.212945818901062" fill="none" stroke="rgb(103, 66, 58)" stroke-opacity="0.39995742" stroke-linecap="round" stroke-linejoin="round"/>
    <path d="M 79.77726745605469 101.56632232666016 C 79.39291381835938 103.49718475341797 83.06422424316406 99.52591705322266 85.88853454589844 104.18148040771484 C 81.22569274902344 104.55388641357422 76.03534698486328 100.76817321777344 79.16032409667969 94.99095916748047 C 81.42433166503906 94.23046875 87.19400024414062 88.82877349853516 85.9356460571289 85.41026306152344" stroke-width="1.2129446268081665" fill="none" stroke="rgb(106, 165, 144)" stroke-opacity="0.65384674" stroke-linecap="round" stroke-linejoin="round"/>
    <path d="M 78.70052337646484 80.0875015258789 C 84.47602844238281 78.78606414794922 78.41165924072266 80.87541961669922 84.56477355957031 76.70529174804688 C 86.73986053466797 80.58270263671875 83.85820770263672 83.3538818359375 86.01348114013672 80.37897491455078" stroke-width="1.1026785373687744" fill="none" stroke="rgb(198, 62, 79)" stroke-opacity="0.80342615" stroke-linecap="round" stroke-linejoin="round"/>
    <path d="M 12.275224685668945 60.810585021972656 C 8.133879661560059 54.56340789794922 5.945289611816406 55.13441848754883 6.66887903213501 58.374813079833984 C 7.443043231964111 53.68562698364258 6.561218738555908 58.05736541748047 2.109882116317749 52.60719299316406" stroke-width="1.2129459381103516" fill="none" stroke="rgb(121, 227, 117)" stroke-opacity="0.23312986" stroke-linecap="round" stroke-linejoin="round"/>
    <path d="M 13.191618919372559 29.702470779418945 C 18.041595458984375 31.12192153930664 15.658685684204102 32.03163146972656 13.04354190826416 31.067516326904297" stroke-width="1.1026785373687744" fill="none" stroke="rgb(56, 18, 174)" stroke-opacity="0.23565741" stroke-linecap="round" stroke-linejoin="round"/>
    <path d="M 72.80145263671875 111.60594177246094 C 78.84597778320312 109.96058654785156 81.65741729736328 106.89605712890625 75.50599670410156 102.64826202392578 C 71.16268157958984 100.58280944824219 73.84059143066406 99.73918151855469 79.82501983642578 99.37702178955078 C 82.78694152832031 99.8271484375 82.930908203125 97.3896255493164 87.15521240234375 99.30333709716797" stroke-width="1.2129461765289307" fill="none" stroke="rgb(110, 50, 221)" stroke-opacity="0.91611826" stroke-linecap="round" stroke-linejoin="round"/>
    <path d="M 104.01773834228516 96.26537322998047 C 108.3748779296875 94.03965759277344 109.77099609375 93.37371063232422 108.51888275146484 98.920654296875 C 109.88948059082031 104.42488098144531 116.0546875 101.0907211303711 112.6597900390625 103.26040649414062" stroke-width="1.1026785373687744" fill="none" stroke="rgb(183, 243, 109)" stroke-opacity="0.5084385" stroke-linecap="round" stroke-linejoin="round"/>
    <path d="M 80.24443054199219 58.23643493652344 C 86.1218032836914 63.09348678588867 87.64530181884766 68.26991271972656 82.93433380126953 69.9074478149414 C 86.7095718383789 75.50789642333984 90.26006317138672 78.81832122802734 90.80888366699219 84.24494171142578" stroke-width="1.212945818901062" fill="none" stroke="rgb(229, 164, 180)" stroke-opacity="0.44957098" stroke-linecap="round" stroke-linejoin="round"/>
    <path d="M 120.83280181884766 113.4223403930664 C 125.87139129638672 108.20661926269531 120.90751647949219 114.26265716552734 115.3333969116211 115.3488998413086" stroke-width="1.212944746017456" fill="none" stroke="rgb(6, 14, 85)" stroke-opacity="0.6868019" stroke-linecap="round" stroke-linejoin="round"/>
    <path d="M 32.397926330566406 102.01820373535156 C 36.333534240722656 100.58504486083984 33.46086883544922 103.83467102050781 34.56827163696289 105.07263946533203 C 36.381568908691406 98.9402847290039 33.00406265258789 99.15631866455078 37.47317123413086 93.68761444091797" stroke-width="1.2129461765289307" fill="none" stroke="rgb(222, 64, 212)" stroke-opacity="0.5639047" stroke-linecap="round" stroke-linejoin="round"/>
    <path d="M 84.07640838623047 74.6226577758789 C 88.7463150024414 75.87593841552734 91.32247161865234 77.7649917602539 89.50275421142578 77.70987701416016" stroke-width="1.2129454612731934" fill="none" stroke="rgb(137, 198, 162)" stroke-opacity="0.6484186" stroke-linecap="round" stroke-linejoin="round"/>
    <path d="M 117.51023864746094 16.459976196289062 C 123.24700927734375 18.616914749145508 122.20063781738281 19.651445388793945 116.1683120727539 14.442968368530273 C 119.42218017578125 12.521781921386719 121.46853637695312 16.9926700592041 125.56803131103516 16.45688247680664" stroke-width="1.1026785373687744" fill="none" stroke="rgb(56, 140, 2)" stroke-opacity="0.21316881" stroke-linecap="round" stroke-linejoin="round"/>
    <path d="M 16.727855682373047 91.2190170288086 C 11.489614486694336 91.45362854003906 9.073878288269043 94.32328033447266 6.429220199584961 91.6062240600586" stroke-width="1.212945580482483" fill="none" stroke="rgb(106, 158, 222)" stroke-opacity="0.8579821" stroke-linecap="round" stroke-linejoin="round"/>
    <path d="M 12.48415756225586 34.418540954589844 C 11.467293739318848 35.071624755859375 6.266050338745117 39.1071891784668 6.435851097106934 44.45458221435547 C 8.162714958190918 48.440555572509766 9.211189270019531 47.46106719970703 13.619803428649902 52.05215835571289 C 16.835811614990234 51.522979736328125 16.877683639526367 47.1353645324707 14.09586238861084 51.684547424316406" stroke-width="1.2129462957382202" fill="none" stroke="rgb(80, 183, 73)" stroke-opacity="0.8516216" stroke-linecap="round" stroke-linejoin="round"/>
    <path d="M 62.80077362060547 5.1791558265686035 C 62.22475051879883 -0.574414074420929 59.47425079345703 2.4176111221313477 61.09421920776367 7.9562883377075195 C 63.42181396484375 6.760221004486084 59.740577697753906 10.332913398742676 58.355255126953125 8.174273490905762 C 54.944576263427734 7.291028022766113 51.733341217041016 8.77051067352295 55.14516830444336 4.430531024932861" stroke-width="1.2129449844360352" fill="none" stroke="rgb(223, 67, 21)" stroke-opacity="0.06781928" stroke-linecap="round" stroke-linejoin="round"/>
    <path d="M 33.05658721923828 39.28096008300781 C 28.012317657470703 44.80791473388672 33.45852279663086 43.22641372680664 33.34170913696289 40.28095626831055 C 33.995758056640625 45.051448822021484 39.6258430480957 48.8699951171875 37.269832611083984 48.27096939086914" stroke-width="1.2129430770874023" fill="none" stroke="rgb(36, 128, 212)" stroke-opacity="0.2535643" stroke-linecap="round" stroke-linejoin="round"/>
    <path d="M 55.46205139160156 104.19751739501953 C 60.11085510253906 108.90629577636719 60.90869140625 105.26187133789062 55.26405334472656 107.85118103027344" stroke-width="1.2129454612731934" fill="none" stroke="rgb(119, 15, 226)" stroke-opacity="0.33355916" stroke-linecap="round" stroke-linejoin="round"/>
    <path d="M 11.753860473632812 106.40143585205078 C 17.23569679260254 108.53640747070312 12.07753849029541 105.4476318359375 8.893465995788574 103.4725341796875" stroke-width="1.212945818901062" fill="none" stroke="rgb(135, 115, 177)" stroke-opacity="0.40478563" stroke-linecap="round" stroke-linejoin="round"/>
    <path d="M 121.4884262084961 1.7196251153945923 C 121.6789321899414 -2.851073980331421 126.16863250732422 -8.531384468078613 127.46641540527344 -3.269116163253784 C 131.476806640625 -2.443277597427368 130.27540588378906 0.5510810613632202 127.21021270751953 6.337993144989014 C 131.66636657714844 6.86719274520874 137.5530548095703 7.975276947021484 133.43531799316406 14.018996238708496" stroke-width="1.1026785373687744" fill="none" stroke="rgb(237, 165, 228)" stroke-opacity="0.8669631" stroke-linecap="round" stroke-linejoin="round"/>
    <path d="M 54.8231315612793 116.34120178222656 C 49.90815353393555 113.29325103759766 48.83206558227539 118.9499740600586 43.15879821777344 116.49585723876953 C 45.50420379638672 118.65286254882812 43.88141632080078 122.58634185791016 46.79658508300781 123.42169952392578 C 43.47311019897461 120.6448745727539 44.71004104614258 119.89610290527344 49.53627014160156 124.68637084960938" stroke-width="1.2129459381103516" fill="none" stroke="rgb(44, 106, 88)" stroke-opacity="0.9333" stroke-linecap="round" stroke-linejoin="round"/>
    <path d="M 101.2686767578125 71.7053451538086 C 96.32634735107422 77.55557250976562 93.22701263427734 80.2859878540039 96.59437561035156 86.25981140136719 C 100.55474853515625 86.16102600097656 102.79524230957031 88.01386260986328 103.79692840576172 86.80850219726562 C 104.78715515136719 89.62963104248047 98.8054428100586 93.9301528930664 94.71693420410156 95.0716323852539" stroke-width="1.1026785373687744" fill="none" stroke="rgb(209, 54, 100)" stroke-opacity="0.6662844" stroke-linecap="round" stroke-linejoin="round"/>
    <path d="M 30.836820602416992 47.078834533691406 C 29.341663360595703 45.03954315185547 35.46418762207031 46.55301284790039 39.186309814453125 50.0617561340332" stroke-width="1.1026785373687744" fill="none" stroke="rgb(165, 43, 156)" stroke-opacity="0.24414283" stroke-linecap="round" stroke-linejoin="round"/>
    <path d="M 85.68193054199219 55.58256149291992 C 85.96180725097656 61.14624786376953 83.56501770019531 65.60964965820312 84.08721923828125 64.78816986083984 C 82.02738189697266 61.691184997558594 79.1593246459961 56.21588134765625 82.5352554321289 52.349281311035156" stroke-width="1.1026785373687744" fill="none" stroke="rgb(55, 214, 237)" stroke-opacity="0.11307376" stroke-linecap="round" stroke-linejoin="round"/>
    <path d="M 34.69719314575195 44.51774215698242 C 33.02394104003906 42.39073181152344 29.727201461791992 42.084815979003906 25.05634117126465 38.29247283935547" stroke-width="1.2129403352737427" fill="none" stroke="rgb(35, 255, 4)" stroke-opacity="0.8828125" stroke-linecap="round" stroke-linejoin="round"/>
    <path d="M 24.6690673828125 40.6114616394043 C 18.746442794799805 38.399967193603516 17.444547653198242 36.97037124633789 19.28618621826172 41.80836486816406 C 18.192197799682617 38.137428283691406 17.375642776489258 38.11659240722656 23.45701789855957 37.71824264526367 C 26.64485740661621 39.45744323730469 20.69053840637207 33.59626388549805 16.108173370361328 36.56310272216797" stroke-width="1.1026785373687744" fill="none" stroke="rgb(43, 189, 92)" stroke-opacity="0.22805431" stroke-linecap="round" stroke-linejoin="round"/>
    <path d="M 39.16386413574219 25.55333137512207 C 44.27035140991211 29.791664123535156 42.713783264160156 32.99433135986328 45.15283203125 37.38570785522461 C 50.3106575012207 35.83197021484375 52.78200149536133 32.17715072631836 46.98908615112305 37.36404800415039" stroke-width="1.1026785373687744" fill="none" stroke="rgb(138, 140, 72)" stroke-opacity="0.34700364" stroke-linecap="round" stroke-linejoin="round"/>
    <path d="M 122.84122467041016 83.87061309814453 C 120.57999420166016 84.48844909667969 116.0914535522461 82.30372619628906 118.40528869628906 76.15949249267578 C 117.57231140136719 82.20349884033203 117.27364349365234 88.31554412841797 117.22320556640625 87.26898193359375" stroke-width="1.2129462957382202" fill="none" stroke="rgb(254, 72, 141)" stroke-opacity="0.52628684" stroke-linecap="round" stroke-linejoin="round"/>
    <path d="M 113.79206085205078 50.646514892578125 C 117.1679916381836 51.15479278564453 112.84905242919922 57.10707092285156 118.46237182617188 59.68125915527344 C 115.40711212158203 62.5942497253418 121.20985412597656 59.94828796386719 120.16287231445312 64.0856704711914 C 125.76408386230469 63.95696258544922 120.94721984863281 58.95707321166992 116.74796295166016 57.09686279296875" stroke-width="1.1026785373687744" fill="none" stroke="rgb(8, 236, 68)" stroke-opacity="0.94567895" stroke-linecap="round" stroke-linejoin="round"/>
    <path d="M 60.19806671142578 87.48413848876953 C 65.29258728027344 84.4594955444336 62.87920379638672 78.02665710449219 57.361183166503906 80.61238098144531" stroke-width="1.212902545928955" fill="none" stroke="rgb(3, 174, 96)" stroke-opacity="0.26064306" stroke-linecap="round" stroke-linejoin="round"/>
    <path d="M 39.159278869628906 120.70298767089844 C 35.9840202331543 125.48765563964844 40.83579635620117 127.37971496582031 43.85457992553711 127.365966796875 C 48.100765228271484 130.19737243652344 47.8975830078125 127.81653594970703 48.45001220703125 124.23902893066406 C 50.9412727355957 122.35404205322266 53.1765022277832 122.11038208007812 49.584747314453125 120.63829803466797" stroke-width="1.2129460573196411" fill="none" stroke="rgb(3, 84, 15)" stroke-opacity="0.6675634" stroke-linecap="round" stroke-linejoin="round"/>
  </g>
</svg>
