<?xml version="1.0" ?>
<svg xmlns="http://www.w3.org/2000/svg" version="1.1" width="1104.0" height="1104.0">
  <defs/>
  <g>
    <path d="M 42.1370964050293 111.23177337646484 C 42.649898529052734 111.34717559814453 43.16434097290039 111.46440124511719 43.13713455200195 111.47503662109375 C 42.32052993774414 112.27772521972656 41.75125503540039 112.1856918334961 43.851016998291016 112.45195007324219 C 46.74296951293945 112.71818542480469 50.72028350830078 113.34654235839844 59.5019416809082 112.71212005615234 C 67.49439239501953 112.87186431884766 78.70731353759766 113.35541534423828 92.12989807128906 111.94963073730469 C 104.76013946533203 109.75141143798828 120.39432525634766 107.24867248535156 130.40536499023438 105.53582000732422 C 141.2069091796875 104.61532592773438 145.59474182128906 103.69055938720703 148.1968536376953 102.83677673339844 C 150.00669860839844 101.19063568115234 150.82672119140625 100.40428924560547 151.33969116210938 100.20903015136719 C 151.85301208496094 100.01380920410156 152.05862426757812 100.40965270996094 152.06741333007812 100.6573715209961 C 152.0780792236328 100.12276458740234 151.89169311523438 98.64949798583984 151.79586791992188 97.41761779785156 C 152.49237060546875 95.39561462402344 152.487060546875 94.40686798095703 152.20130920410156 92.37068176269531 C 151.91552734375 90.33474731445312 151.34754943847656 87.24801635742188 150.58251953125 83.19213104248047 C 149.0250701904297 79.92684936523438 148.06126403808594 74.89828491210938 147.306884765625 72.19140625 C 147.34490966796875 68.69393157958984 146.8017578125 68.31229400634766 145.38177490234375 65.56991577148438 C 143.9617462158203 62.82756042480469 140.87435913085938 58.51852798461914 138.66796875 56.70631790161133 C 136.46168518066406 54.100040435791016 134.34231567382812 55.57667541503906 133.1182403564453 57.18022537231445 C 131.1015625 57.199058532714844 128.39430236816406 57.348121643066406 126.24014282226562 58.79016876220703 C 122.50308227539062 58.64741897583008 118.52529907226562 59.79762268066406 114.29263305664062 61.701168060302734 C 108.4734878540039 62.01813888549805 102.39763641357422 63.08846664428711 96.7158432006836 64.47828674316406 C 91.82466888427734 66.66051483154297 86.53336334228516 68.3716049194336 81.64077758789062 68.6690673828125 C 77.53874969482422 69.75891876220703 74.62598419189453 70.22752380371094 71.78667449951172 72.12039947509766 C 68.15498352050781 73.22089385986328 63.0103874206543 74.15914916992188 57.461734771728516 76.92814636230469 C 52.70722961425781 80.48954010009766 45.96400833129883 84.2986831665039 43.36186218261719 85.72933959960938 C 40.759708404541016 87.1496353149414 42.29863739013672 85.41975402832031 42.36075973510742 87.35449981689453 C 42.42287063598633 90.0833511352539 41.01176452636719 94.904296875 39.59882736206055 99.72342681884766 C 37.393558502197266 103.7519760131836 37.80181121826172 109.10248565673828 38.210060119628906 113.66073608398438" stroke-width="1.5848214626312256" fill="none" stroke="rgb(26, 26, 21)" stroke-opacity="0.99" stroke-linecap="round" stroke-linejoin="round"/>
    <path d="M 63.257083892822266 74.14385986328125 C 63.16482925415039 74.01419067382812 63.074275970458984 73.8846664428711 62.95887756347656 73.38063049316406 C 62.843509674072266 72.8764877319336 63.49739074707031 71.20608520507812 63.36077117919922 70.37129211425781 C 63.22231674194336 69.5371322631836 63.085636138916016 68.74727630615234 61.61874771118164 65.78009033203125 C 60.944244384765625 62.02063751220703 59.731929779052734 55.289825439453125 59.0787239074707 51.370628356933594 C 58.423763275146484 47.4531135559082 59.120296478271484 45.55504608154297 58.80966567993164 44.56105422973633 C 57.706695556640625 44.35923767089844 57.18308639526367 43.47694778442383 57.543460845947266 41.88369369506836 C 57.90214538574219 41.0556755065918 59.14447784423828 40.30817794799805 59.685813903808594 39.20587921142578 C 60.22718811035156 38.105403900146484 60.06928253173828 37.44389343261719 63.77544021606445 35.5457763671875 C 67.48161315917969 34.43994903564453 75.05374908447266 33.68379592895508 79.24632263183594 33.470794677734375 C 84.22774505615234 33.25779724121094 84.25040435791016 34.38023376464844 87.44157409667969 34.45134353637695 C 90.63713836669922 33.72819137573242 96.50956726074219 33.538352966308594 99.94141387939453 34.183319091796875 C 102.08889770507812 33.24360275268555 103.18815612792969 33.93290328979492 103.92838287353516 33.64372253417969 C 104.66856384277344 33.35439682006836 105.84536743164062 32.878692626953125 105.35295867919922 33.253211975097656 C 105.6529312133789 32.83535385131836 105.07782745361328 34.06187438964844 104.6358642578125 34.873050689697266 C 104.98450469970703 36.47657012939453 104.67388153076172 36.874141693115234 105.15666961669922 40.61053466796875 C 104.84886169433594 44.34695816040039 106.12686157226562 51.42032241821289 108.23808288574219 55.438194274902344 C 108.76274871826172 61.040809631347656 110.12061309814453 63.586177825927734 111.4767074584961 66.13153839111328 C 112.83280944824219 68.6768798828125 112.90914154052734 70.2921142578125 113.77784729003906 71.1133041381836" stroke-width="1.5848214626312256" fill="none" stroke="rgb(26, 26, 21)" stroke-opacity="1.0" stroke-linecap="round" stroke-linejoin="round"/>
    <path d="M 147.30690002441406 72.19142150878906 C 143.73817443847656 68.93260192871094 135.3140411376953 62.70277404785156 136.5452117919922 54.66368103027344" stroke-width="1.5848214626312256" fill="none" stroke="rgb(201, 210, 175)" stroke-opacity="0.8950407" stroke-linecap="round" stroke-linejoin="round"/>
    <path d="M 108.23807525634766 55.43819046020508 C 101.50505828857422 57.578651428222656 106.19446563720703 66.60701751708984 109.62682342529297 71.01110076904297 C 108.64533233642578 64.02069091796875 112.27737426757812 57.82405471801758 119.48735046386719 52.650020599365234 C 115.52629089355469 43.919212341308594 109.38676452636719 43.02688980102539 115.43821716308594 35.54032516479492" stroke-width="1.5848214626312256" fill="none" stroke="rgb(165, 110, 71)" stroke-opacity="0.42691433" stroke-linecap="round" stroke-linejoin="round"/>
    <path d="M 64.56763458251953 36.33797073364258 C 65.36436462402344 38.07564163208008 58.83718490600586 44.78601837158203 62.7186279296875 35.89229202270508 C 62.353858947753906 34.738040924072266 69.05549621582031 35.50740432739258 67.21511840820312 42.63053512573242 C 72.68018341064453 50.720130920410156 64.08464050292969 43.9134521484375 59.58141326904297 36.73927307128906" stroke-width="1.743299126625061" fill="none" stroke="rgb(148, 54, 49)" stroke-opacity="0.0" stroke-linecap="round" stroke-linejoin="round"/>
    <path d="M 64.5677719116211 35.5457763671875 C 69.10287475585938 40.893550872802734 61.9889030456543 43.74555587768555 59.577816009521484 45.557369232177734 C 57.5004768371582 42.34904861450195 62.22109603881836 36.12155532836914 57.17866134643555 44.463626861572266" stroke-width="1.7433007955551147" fill="none" stroke="rgb(93, 140, 214)" stroke-opacity="0.19888741" stroke-linecap="round" stroke-linejoin="round"/>
    <path d="M 59.0787353515625 50.578243255615234 C 62.734893798828125 42.24755096435547 64.75955200195312 45.13820266723633 67.66047668457031 46.03141403198242 C 65.55169677734375 39.42612075805664 57.68833541870117 37.04084777832031 58.79116439819336 42.025672912597656 C 51.497222900390625 37.37926483154297 56.687503814697266 43.51738357543945 55.79990005493164 44.49290466308594" stroke-width="1.5848214626312256" fill="none" stroke="rgb(226, 151, 25)" stroke-opacity="0.78943366" stroke-linecap="round" stroke-linejoin="round"/>
    <path d="M 57.54336166381836 41.87010192871094 C 60.285972595214844 34.54335021972656 58.66007995605469 35.940086364746094 56.03995132446289 44.9135627746582 C 60.06565856933594 45.758487701416016 63.810646057128906 42.859127044677734 58.65986633300781 36.077781677246094 C 64.98902893066406 43.563385009765625 59.47027587890625 40.78322219848633 66.79171752929688 41.06957244873047" stroke-width="1.5848214626312256" fill="none" stroke="rgb(230, 165, 51)" stroke-opacity="0.94151217" stroke-linecap="round" stroke-linejoin="round"/>
    <path d="M 99.14939880371094 34.17607879638672 C 98.34278106689453 28.592893600463867 103.53030395507812 33.24100875854492 105.44722747802734 30.64124870300293 C 104.25675964355469 38.28588104248047 107.73157501220703 34.33430099487305 100.20369720458984 34.055755615234375 C 102.6467056274414 27.665815353393555 99.57825469970703 35.49988555908203 98.61663818359375 42.1214599609375" stroke-width="1.7433031797409058" fill="none" stroke="rgb(146, 165, 158)" stroke-opacity="0.33260116" stroke-linecap="round" stroke-linejoin="round"/>
    <path d="M 151.33973693847656 100.2090835571289 C 160.0421905517578 96.7225112915039 157.78477478027344 97.08090209960938 162.6573944091797 105.97593688964844 C 159.1757354736328 102.5001220703125 153.7628631591797 96.55768585205078 156.37844848632812 103.49954223632812" stroke-width="1.7433031797409058" fill="none" stroke="rgb(151, 137, 255)" stroke-opacity="0.29622832" stroke-linecap="round" stroke-linejoin="round"/>
    <path d="M 136.54519653320312 54.6636848449707 C 140.63076782226562 61.25185775756836 136.4155731201172 55.833282470703125 137.21807861328125 61.689208984375" stroke-width="1.5848214626312256" fill="none" stroke="rgb(70, 233, 190)" stroke-opacity="0.98364794" stroke-linecap="round" stroke-linejoin="round"/>
    <path d="M 136.5452117919922 54.66365051269531 C 127.76697540283203 55.476444244384766 128.15811157226562 50.5876350402832 119.5188980102539 55.85434341430664" stroke-width="1.5848214626312256" fill="none" stroke="rgb(106, 124, 22)" stroke-opacity="0.7072973" stroke-linecap="round" stroke-linejoin="round"/>
    <path d="M 56.38631057739258 44.463626861572266 C 52.254310607910156 50.34943771362305 61.005760192871094 46.45872116088867 66.89803314208984 46.149658203125 C 73.9998779296875 50.70211410522461 67.54987335205078 41.917903900146484 76.09559631347656 43.40043258666992" stroke-width="1.7433030605316162" fill="none" stroke="rgb(195, 30, 84)" stroke-opacity="0.24173146" stroke-linecap="round" stroke-linejoin="round"/>
    <path d="M 136.54510498046875 54.66368103027344 C 128.45919799804688 46.097530364990234 135.1048126220703 50.155670166015625 140.6121368408203 42.668922424316406" stroke-width="1.5848214626312256" fill="none" stroke="rgb(20, 212, 104)" stroke-opacity="0.15617654" stroke-linecap="round" stroke-linejoin="round"/>
    <path d="M 60.3736457824707 36.73929214477539 C 65.41401672363281 34.83969497680664 69.90176391601562 37.18827819824219 73.60550689697266 42.62183380126953" stroke-width="1.5848214626312256" fill="none" stroke="rgb(64, 176, 77)" stroke-opacity="0.9278371" stroke-linecap="round" stroke-linejoin="round"/>
    <path d="M 136.54522705078125 54.66368103027344 C 135.9532470703125 61.21331024169922 142.20852661132812 54.9442253112793 137.79261779785156 62.094844818115234" stroke-width="1.5848214626312256" fill="none" stroke="rgb(150, 119, 243)" stroke-opacity="0.9394927" stroke-linecap="round" stroke-linejoin="round"/>
    <path d="M 66.79170989990234 41.86197280883789 C 59.40815734863281 39.46985626220703 61.86298370361328 33.2933349609375 53.387939453125 35.41884994506836 C 57.89751434326172 41.353214263916016 56.33308410644531 46.40923309326172 53.42189407348633 38.106658935546875" stroke-width="1.7433030605316162" fill="none" stroke="rgb(63, 45, 225)" stroke-opacity="0.84434944" stroke-linecap="round" stroke-linejoin="round"/>
    <path d="M 60.37371826171875 36.73921585083008 C 63.88562774658203 28.365848541259766 56.702816009521484 21.917394638061523 51.9379768371582 29.020126342773438 C 55.88221740722656 37.675113677978516 59.012489318847656 31.200634002685547 51.72813415527344 23.810686111450195" stroke-width="1.7433018684387207" fill="none" stroke="rgb(69, 184, 9)" stroke-opacity="0.0623348" stroke-linecap="round" stroke-linejoin="round"/>
    <path d="M 130.51873779296875 119.73448181152344 C 124.12664794921875 124.40167236328125 132.78732299804688 131.47557067871094 133.6249542236328 136.196044921875 C 129.25360107421875 141.85621643066406 132.1194610595703 149.8979034423828 123.79803466796875 153.66864013671875" stroke-width="1.7433027029037476" fill="none" stroke="rgb(32, 95, 29)" stroke-opacity="0.19514726" stroke-linecap="round" stroke-linejoin="round"/>
    <path d="M 86.06343078613281 88.32239532470703 C 92.74250793457031 81.17015075683594 94.74163818359375 84.9052963256836 90.39860534667969 91.97704315185547 C 94.91516876220703 99.19316101074219 86.88140106201172 101.32775115966797 81.5708236694336 92.46322631835938" stroke-width="1.5848214626312256" fill="none" stroke="rgb(126, 192, 187)" stroke-opacity="0.30197424" stroke-linecap="round" stroke-linejoin="round"/>
    <path d="M 118.85231018066406 109.08325958251953 C 122.16813659667969 112.39507293701172 129.54010009765625 117.69805908203125 130.72572326660156 111.98428344726562" stroke-width="1.5848214626312256" fill="none" stroke="rgb(69, 254, 230)" stroke-opacity="0.68788934" stroke-linecap="round" stroke-linejoin="round"/>
    <path d="M 154.66456604003906 35.65972137451172 C 150.47718811035156 30.53082847595215 158.9079132080078 38.04365921020508 157.95033264160156 41.09436798095703 C 167.51242065429688 47.32546615600586 165.2519073486328 56.00056457519531 165.86593627929688 53.357627868652344" stroke-width="1.743298888206482" fill="none" stroke="rgb(188, 155, 235)" stroke-opacity="0.037539516" stroke-linecap="round" stroke-linejoin="round"/>
    <path d="M 105.3434829711914 79.54953002929688 C 103.49750518798828 73.21392059326172 101.01448059082031 69.34515380859375 96.05326843261719 63.30184555053711 C 97.24998474121094 65.18557739257812 97.52580261230469 67.4777603149414 93.707763671875 63.674339294433594" stroke-width="1.5848214626312256" fill="none" stroke="rgb(142, 168, 230)" stroke-opacity="0.036249034" stroke-linecap="round" stroke-linejoin="round"/>
    <path d="M 43.02445983886719 19.01420783996582 C 37.195369720458984 20.604516983032227 40.93436050415039 25.940448760986328 38.446109771728516 23.720121383666992" stroke-width="1.743302822113037" fill="none" stroke="rgb(39, 7, 32)" stroke-opacity="0.17500545" stroke-linecap="round" stroke-linejoin="round"/>
    <path d="M 21.44114112854004 173.04844665527344 C 30.027847290039062 166.65371704101562 22.5687313079834 158.4696807861328 19.940330505371094 164.1511688232422" stroke-width="1.5848214626312256" fill="none" stroke="rgb(202, 185, 232)" stroke-opacity="0.5630247" stroke-linecap="round" stroke-linejoin="round"/>
    <path d="M 1.6730337142944336 84.0444564819336 C 5.4689040184021 75.25496673583984 -1.4920135736465454 75.2581787109375 2.4705612659454346 66.43659973144531" stroke-width="1.7433030605316162" fill="none" stroke="rgb(34, 168, 125)" stroke-opacity="0.08811284" stroke-linecap="round" stroke-linejoin="round"/>
    <path d="M 175.46153259277344 134.03640747070312 C 181.83270263671875 130.90283203125 185.60292053222656 125.00506591796875 176.74761962890625 118.10294342041016 C 175.59841918945312 121.96345520019531 177.1079559326172 114.55460357666016 181.07435607910156 118.18289184570312" stroke-width="1.7432994842529297" fill="none" stroke="rgb(174, 59, 193)" stroke-opacity="0.099263206" stroke-linecap="round" stroke-linejoin="round"/>
    <path d="M 56.76596450805664 152.22357177734375 C 48.419063568115234 157.0574493408203 52.04356002807617 153.96649169921875 45.56071853637695 156.5292205810547" stroke-width="1.5848214626312256" fill="none" stroke="rgb(88, 170, 159)" stroke-opacity="0.57168067" stroke-linecap="round" stroke-linejoin="round"/>
    <path d="M 36.99642562866211 135.24058532714844 C 36.39126968383789 131.45111083984375 36.94424819946289 124.38219451904297 36.72985076904297 126.76148223876953" stroke-width="1.5848214626312256" fill="none" stroke="rgb(76, 87, 23)" stroke-opacity="0.5678675" stroke-linecap="round" stroke-linejoin="round"/>
    <path d="M 33.18970489501953 83.35384368896484 C 27.396596908569336 88.09662628173828 26.251480102539062 86.65414428710938 32.782474517822266 90.07119750976562" stroke-width="1.7433034181594849" fill="none" stroke="rgb(62, 66, 253)" stroke-opacity="0.79412246" stroke-linecap="round" stroke-linejoin="round"/>
    <path d="M 142.97108459472656 55.106773376464844 C 136.30116271972656 47.91999435424805 133.06124877929688 51.71642303466797 137.55709838867188 52.089141845703125 C 136.1675567626953 54.82635498046875 137.08995056152344 57.07477951049805 138.4837646484375 61.71061706542969" stroke-width="1.7433034181594849" fill="none" stroke="rgb(254, 76, 90)" stroke-opacity="0.91018397" stroke-linecap="round" stroke-linejoin="round"/>
    <path d="M 80.82096862792969 146.47714233398438 C 77.6830062866211 150.08160400390625 80.48448181152344 143.439697265625 79.63143157958984 151.46266174316406" stroke-width="1.7433031797409058" fill="none" stroke="rgb(232, 191, 87)" stroke-opacity="0.52310824" stroke-linecap="round" stroke-linejoin="round"/>
    <path d="M 87.6995620727539 160.24490356445312 C 85.68755340576172 163.67623901367188 88.64974212646484 165.06605529785156 87.62884521484375 159.85293579101562 C 85.40238952636719 156.12059020996094 86.25691223144531 150.1150360107422 91.28748321533203 141.4672393798828 C 88.69223022460938 150.61001586914062 94.47868347167969 149.34329223632812 91.11534881591797 155.025634765625" stroke-width="1.5848214626312256" fill="none" stroke="rgb(55, 98, 137)" stroke-opacity="0.12577045" stroke-linecap="round" stroke-linejoin="round"/>
    <path d="M 39.635597229003906 160.3384246826172 C 37.05965042114258 151.712646484375 32.058353424072266 147.39964294433594 27.80937385559082 142.03948974609375" stroke-width="1.5848214626312256" fill="none" stroke="rgb(226, 210, 110)" stroke-opacity="0.5299557" stroke-linecap="round" stroke-linejoin="round"/>
  </g>
</svg>
