<?xml version="1.0" ?>
<svg xmlns="http://www.w3.org/2000/svg" version="1.1" width="122.0" height="122.0">
  <defs/>
  <g>
    <path d="M 65.34227752685547 25.51348876953125 C 65.85029602050781 24.974855422973633 66.33868408203125 24.572845458984375 66.12943267822266 24.59952735900879 C 66.85206604003906 24.10155487060547 66.00446319580078 23.493711471557617 67.48970794677734 22.45624351501465 C 69.0329360961914 20.31328010559082 72.75801086425781 18.765869140625 74.56755828857422 22.71917724609375 C 77.0477294921875 27.69660186767578 79.08777618408203 36.08815002441406 78.684814453125 41.09531784057617 C 78.90380859375 46.302276611328125 77.3954086303711 46.08771896362305 75.6276626586914 46.5991096496582 C 75.48008728027344 48.110931396484375 75.49967956542969 51.965728759765625 74.53559112548828 53.658843994140625 C 74.63778686523438 55.65985870361328 73.88917541503906 56.195343017578125 71.56395721435547 57.00667953491211 C 69.64212799072266 58.613304138183594 65.95370483398438 60.23756790161133 62.6180534362793 61.689796447753906 C 59.78616714477539 63.67500686645508 57.77284240722656 65.888671875 54.66685104370117 66.21417236328125 C 52.43701171875 67.4620132446289 48.98424530029297 67.50708770751953 49.06020736694336 69.26322937011719 C 49.350181579589844 70.91284942626953 53.315223693847656 73.35552215576172 56.214752197265625 76.6978530883789 C 58.62185287475586 80.22074890136719 58.32857131958008 87.11905670166016 59.13321304321289 93.4447250366211" stroke-width="1.8958314657211304" fill="none" stroke="rgb(58, 33, 14)" stroke-opacity="0.8192299" stroke-linecap="round" stroke-linejoin="round"/>
    <path d="M 74.46208953857422 24.087976455688477 C 77.50340270996094 20.781082153320312 79.8338623046875 16.713571548461914 82.5109634399414 13.004743576049805 C 85.6871109008789 9.656384468078613 80.30438995361328 11.540718078613281 74.67121124267578 14.086150169372559" stroke-width="1.7387934923171997" fill="none" stroke="rgb(145, 255, 223)" stroke-opacity="0.26702753" stroke-linecap="round" stroke-linejoin="round"/>
    <path d="M 74.82756042480469 41.38612747192383 C 73.31915283203125 41.207359313964844 72.09347534179688 40.96559524536133 70.89445495605469 40.031280517578125 C 70.23056030273438 39.76752853393555 76.22925567626953 44.40680694580078 81.87308502197266 50.413570404052734" stroke-width="2.1717748641967773" fill="none" stroke="rgb(38, 255, 214)" stroke-opacity="0.8160523" stroke-linecap="round" stroke-linejoin="round"/>
    <path d="M 55.57993698120117 79.45467376708984 C 56.92131423950195 77.6498031616211 58.69962692260742 79.31871032714844 63.48905944824219 76.46734619140625" stroke-width="1.1977483034133911" fill="none" stroke="rgb(72, 105, 121)" stroke-opacity="0.8446722" stroke-linecap="round" stroke-linejoin="round"/>
    <path d="M 64.20464324951172 62.27394104003906 C 71.05768585205078 65.44021606445312 71.06903076171875 68.00401306152344 63.19209671020508 70.72561645507812" stroke-width="1.0892857313156128" fill="none" stroke="rgb(131, 239, 119)" stroke-opacity="0.3525444" stroke-linecap="round" stroke-linejoin="round"/>
    <path d="M 78.24378967285156 41.1368408203125 C 79.37181091308594 42.74480056762695 78.29431915283203 37.098907470703125 78.01190185546875 32.85319519042969" stroke-width="1.194943904876709" fill="none" stroke="rgb(52, 9, 129)" stroke-opacity="0.18726681" stroke-linecap="round" stroke-linejoin="round"/>
    <path d="M 65.27273559570312 26.387588500976562 C 63.7162971496582 25.508377075195312 61.80185317993164 25.00238037109375 59.60940170288086 24.811729431152344 C 57.506446838378906 24.465978622436523 57.076873779296875 22.431283950805664 55.64659881591797 21.452848434448242" stroke-width="1.0892857313156128" fill="none" stroke="rgb(97, 216, 182)" stroke-opacity="0.44932884" stroke-linecap="round" stroke-linejoin="round"/>
    <path d="M 73.91761016845703 49.1971549987793 C 71.28976440429688 50.04970169067383 65.58296966552734 50.340492248535156 72.2626724243164 49.613624572753906" stroke-width="1.5005944967269897" fill="none" stroke="rgb(171, 255, 199)" stroke-opacity="0.3782329" stroke-linecap="round" stroke-linejoin="round"/>
    <path d="M 63.34797286987305 61.937705993652344 C 65.63397216796875 58.59877014160156 67.29562377929688 64.21788787841797 62.48159408569336 66.53120422363281" stroke-width="1.1870582103729248" fill="none" stroke="rgb(30, 216, 181)" stroke-opacity="0.47132775" stroke-linecap="round" stroke-linejoin="round"/>
    <path d="M 75.61396026611328 50.778114318847656 C 73.05596160888672 53.20106887817383 69.91796112060547 55.01701354980469 67.16175079345703 57.10478210449219 C 64.75321197509766 59.42293930053711 65.218017578125 53.704124450683594 65.53484344482422 48.581626892089844" stroke-width="1.0892857313156128" fill="none" stroke="rgb(94, 160, 133)" stroke-opacity="0.16688035" stroke-linecap="round" stroke-linejoin="round"/>
    <path d="M 64.51020050048828 70.7353744506836 C 67.123046875 67.48017120361328 69.58121490478516 63.35645294189453 69.48450469970703 59.11325454711914 C 69.31456756591797 53.8897590637207 66.73988342285156 49.636024475097656 64.08369445800781 46.12862014770508 C 60.46292495727539 42.21671676635742 61.87361145019531 48.505592346191406 64.11528015136719 54.61082077026367" stroke-width="1.7587858438491821" fill="none" stroke="rgb(35, 222, 221)" stroke-opacity="0.23214215" stroke-linecap="round" stroke-linejoin="round"/>
    <path d="M 63.3604621887207 69.44120788574219 C 62.42274856567383 62.630252838134766 64.15286254882812 60.25020980834961 62.55047607421875 52.44154357910156" stroke-width="1.5154409408569336" fill="none" stroke="rgb(219, 35, 101)" stroke-opacity="0.61548215" stroke-linecap="round" stroke-linejoin="round"/>
    <path d="M 78.40818786621094 35.44276428222656 C 79.91451263427734 26.705612182617188 78.13693237304688 31.725276947021484 78.46923065185547 30.400951385498047" stroke-width="1.7981605529785156" fill="none" stroke="rgb(165, 46, 21)" stroke-opacity="0.17748848" stroke-linecap="round" stroke-linejoin="round"/>
    <path d="M 79.02926635742188 34.57435989379883 C 82.23890686035156 33.3309211730957 84.52599334716797 31.404617309570312 86.77981567382812 29.458202362060547 C 89.03459167480469 27.361343383789062 87.78983306884766 24.9177188873291 86.48719024658203 24.296785354614258" stroke-width="2.1674139499664307" fill="none" stroke="rgb(239, 77, 181)" stroke-opacity="0.009018157" stroke-linecap="round" stroke-linejoin="round"/>
    <path d="M 64.01013946533203 75.94148254394531 C 66.51355743408203 72.67398834228516 70.80866241455078 76.23116302490234 68.6814193725586 73.27296447753906" stroke-width="1.8690717220306396" fill="none" stroke="rgb(52, 44, 2)" stroke-opacity="0.17406686" stroke-linecap="round" stroke-linejoin="round"/>
    <path d="M 62.58797836303711 65.72555541992188 C 64.88253021240234 72.29386901855469 67.35015869140625 78.45433044433594 64.73367309570312 81.6887435913086 C 63.16913604736328 83.97333526611328 58.03533935546875 82.00359344482422 53.23580551147461 79.24494934082031 C 47.45025634765625 77.3758773803711 49.5205192565918 74.9971694946289 51.84164047241211 72.66387176513672" stroke-width="1.3631330728530884" fill="none" stroke="rgb(56, 164, 19)" stroke-opacity="0.1481083" stroke-linecap="round" stroke-linejoin="round"/>
    <path d="M 65.14009857177734 76.07028198242188 C 63.12226104736328 75.52937316894531 62.11509704589844 75.94654846191406 61.77778625488281 76.30760955810547 C 60.802894592285156 76.94883728027344 60.80940628051758 72.3703842163086 60.16531753540039 67.48223876953125" stroke-width="1.2216194868087769" fill="none" stroke="rgb(73, 164, 134)" stroke-opacity="0.5351392" stroke-linecap="round" stroke-linejoin="round"/>
    <path d="M 114.3446044921875 73.52201843261719 C 113.1371841430664 73.06819152832031 112.2759017944336 72.74776458740234 112.4568099975586 69.06051635742188 C 111.64012145996094 66.42530822753906 113.2099609375 62.15235137939453 115.45523071289062 58.493263244628906 C 116.04682922363281 53.19025421142578 110.0856704711914 60.52369689941406 103.65827941894531 67.7655029296875" stroke-width="1.0892857313156128" fill="none" stroke="rgb(170, 255, 0)" stroke-opacity="0.3263438" stroke-linecap="round" stroke-linejoin="round"/>
    <path d="M 22.40773582458496 59.422611236572266 C 24.16852378845215 58.666507720947266 25.717531204223633 57.93827819824219 26.256746292114258 56.10318374633789 C 27.758798599243164 55.35121536254883 23.715442657470703 55.70698165893555 19.708757400512695 56.03862762451172" stroke-width="1.0892857313156128" fill="none" stroke="rgb(97, 190, 41)" stroke-opacity="0.13906182" stroke-linecap="round" stroke-linejoin="round"/>
    <path d="M 11.052852630615234 86.79735565185547 C 8.720773696899414 86.62033081054688 6.6624860763549805 86.004150390625 2.954296827316284 86.1485366821289 C 0.308470755815506 86.62151336669922 4.953327655792236 79.61076354980469 8.644181251525879 72.56843566894531" stroke-width="1.0892857313156128" fill="none" stroke="rgb(129, 35, 77)" stroke-opacity="0.6506758" stroke-linecap="round" stroke-linejoin="round"/>
    <path d="M 75.24996185302734 90.24320220947266 C 68.64844512939453 92.04054260253906 64.34784698486328 97.5059585571289 67.79356384277344 94.67711639404297" stroke-width="1.2417033910751343" fill="none" stroke="rgb(122, 230, 183)" stroke-opacity="0.7353191" stroke-linecap="round" stroke-linejoin="round"/>
    <path d="M 67.00293731689453 68.53974151611328 C 70.28807067871094 76.62757110595703 66.86112213134766 75.19673919677734 60.63810348510742 75.91062927246094" stroke-width="1.4787235260009766" fill="none" stroke="rgb(166, 132, 133)" stroke-opacity="0.45037168" stroke-linecap="round" stroke-linejoin="round"/>
    <path d="M 84.69850158691406 -1.545740008354187 C 84.81927490234375 -1.8153599500656128 84.9388427734375 -2.0837600231170654 83.64820861816406 -1.3873584270477295 C 82.55253601074219 -0.4942183494567871 80.25151062011719 1.5677696466445923 78.4870834350586 4.073184013366699 C 75.89276123046875 5.88201379776001 75.13459777832031 10.768512725830078 74.3663558959961 15.602160453796387" stroke-width="1.16890549659729" fill="none" stroke="rgb(103, 214, 162)" stroke-opacity="0.018893855" stroke-linecap="round" stroke-linejoin="round"/>
    <path d="M 68.39506530761719 75.36570739746094 C 74.50381469726562 71.71336364746094 77.09058380126953 72.23169708251953 82.79900360107422 68.6287612915039" stroke-width="2.270050287246704" fill="none" stroke="rgb(251, 63, 73)" stroke-opacity="0.44806582" stroke-linecap="round" stroke-linejoin="round"/>
    <path d="M 105.17665100097656 80.68682861328125 C 107.88261413574219 76.63536071777344 110.2427749633789 72.58023071289062 108.51192474365234 71.5478744506836 C 107.54944610595703 71.58694458007812 102.92648315429688 75.70938110351562 98.31128692626953 79.84622192382812 C 93.7046127319336 84.01419830322266 99.38429260253906 87.06517028808594 105.63617706298828 88.91732788085938" stroke-width="1.0892857313156128" fill="none" stroke="rgb(154, 96, 119)" stroke-opacity="0.41930494" stroke-linecap="round" stroke-linejoin="round"/>
    <path d="M 114.61676025390625 27.710113525390625 C 117.31876373291016 19.86539649963379 109.71165466308594 19.235645294189453 106.98231506347656 28.891738891601562" stroke-width="1.1592016220092773" fill="none" stroke="rgb(152, 32, 255)" stroke-opacity="0.7765353" stroke-linecap="round" stroke-linejoin="round"/>
    <path d="M 109.13343048095703 113.79911041259766 C 106.61990356445312 109.00857543945312 104.3064193725586 103.66825866699219 105.22047424316406 104.1628189086914 C 105.06239318847656 103.77730560302734 109.83137512207031 107.33247375488281 114.671142578125 110.87960052490234 C 120.39643096923828 114.42398071289062 113.2671127319336 115.4981689453125 106.06888580322266 116.51893615722656" stroke-width="1.0892857313156128" fill="none" stroke="rgb(160, 89, 239)" stroke-opacity="0.11890414" stroke-linecap="round" stroke-linejoin="round"/>
    <path d="M 80.7420883178711 109.0295181274414 C 84.44890594482422 109.7729721069336 87.6347427368164 110.61817169189453 88.60553741455078 111.31183624267578 C 88.6596908569336 111.83837127685547 86.19244384765625 112.19096374511719 85.01519012451172 113.77037048339844 C 82.85310363769531 114.15800476074219 85.23900604248047 118.8140869140625 87.63282012939453 124.19371032714844" stroke-width="1.1940319538116455" fill="none" stroke="rgb(227, 210, 227)" stroke-opacity="0.02649221" stroke-linecap="round" stroke-linejoin="round"/>
    <path d="M 73.1165542602539 89.92720794677734 C 78.26690673828125 88.4776611328125 82.7275390625 86.34637451171875 87.62029266357422 84.6113052368164 C 91.68603515625 82.1559829711914 92.72746276855469 78.31890869140625 93.8434829711914 74.53843688964844" stroke-width="1.1977630853652954" fill="none" stroke="rgb(158, 213, 174)" stroke-opacity="0.6023393" stroke-linecap="round" stroke-linejoin="round"/>
    <path d="M 5.8285980224609375 86.58512115478516 C 6.53802490234375 85.31072998046875 10.018464088439941 86.916748046875 20.70705223083496 83.19976043701172" stroke-width="2.0496699810028076" fill="none" stroke="rgb(45, 12, 255)" stroke-opacity="0.71915185" stroke-linecap="round" stroke-linejoin="round"/>
    <path d="M 119.19092559814453 -2.944535732269287 C 119.3198471069336 -1.6049776077270508 118.98143768310547 0.32412195205688477 118.86859893798828 1.7248568534851074 C 118.98085021972656 1.9624465703964233 118.97599029541016 0.9285616278648376 119.7801513671875 -0.11783721297979355" stroke-width="1.0892857313156128" fill="none" stroke="rgb(174, 244, 90)" stroke-opacity="0.2237133" stroke-linecap="round" stroke-linejoin="round"/>
    <path d="M 94.34284973144531 7.059437274932861 C 97.77980041503906 8.651314735412598 93.46601104736328 7.610558032989502 94.16940307617188 15.632318496704102" stroke-width="1.1351240873336792" fill="none" stroke="rgb(155, 196, 113)" stroke-opacity="0.24457625" stroke-linecap="round" stroke-linejoin="round"/>
    <path d="M 79.25484466552734 63.04471969604492 C 81.71656799316406 64.54842376708984 83.51148223876953 66.04882049560547 85.89871215820312 66.62265014648438 C 87.6469955444336 68.87753295898438 85.16865539550781 63.88124465942383 83.77318572998047 59.0580940246582" stroke-width="1.0892857313156128" fill="none" stroke="rgb(34, 3, 255)" stroke-opacity="0.7116968" stroke-linecap="round" stroke-linejoin="round"/>
    <path d="M 41.29346466064453 13.371345520019531 C 41.70921325683594 12.728232383728027 40.37748336791992 12.742691993713379 40.2059211730957 12.959808349609375 C 39.918617248535156 13.223686218261719 40.110496520996094 14.28487491607666 39.755157470703125 14.575196266174316 C 37.73543930053711 15.84244441986084 36.32577133178711 17.9547061920166 34.22173309326172 18.987125396728516 C 32.982173919677734 21.468341827392578 33.19499206542969 24.614717483520508 34.27709197998047 27.72102165222168 C 33.486087799072266 29.661733627319336 33.40930938720703 31.90712547302246 33.63475799560547 34.276832580566406 C 33.71384048461914 35.724246978759766 34.41438674926758 36.59452819824219 34.3730354309082 39.01744079589844 C 34.139469146728516 40.569122314453125 36.170196533203125 42.98348617553711 37.87183380126953 43.418357849121094 C 39.80427932739258 46.596683502197266 42.27714538574219 49.160682678222656 44.385372161865234 52.12245559692383 C 46.98988723754883 55.13447952270508 48.27375030517578 56.898799896240234 48.246456146240234 61.01951599121094 C 48.341278076171875 61.3927116394043 49.56289291381836 61.9066047668457 49.288604736328125 62.50706481933594 C 48.794158935546875 63.54971694946289 47.15018081665039 63.56890869140625 46.51741409301758 64.47437286376953 C 44.15568923950195 66.40672302246094 41.82130813598633 68.46918487548828 39.44448471069336 70.41192626953125 C 35.82667541503906 73.36151123046875 35.088592529296875 74.09632110595703 31.020954132080078 76.53728485107422 C 30.280052185058594 78.72086334228516 28.331897735595703 79.60906219482422 26.485511779785156 79.78246307373047" stroke-width="1.0892857313156128" fill="none" stroke="rgb(22, 28, 28)" stroke-opacity="0.9811227" stroke-linecap="round" stroke-linejoin="round"/>
    <path d="M 37.748390197753906 115.88127899169922 C 37.421119689941406 116.58695983886719 37.50165557861328 113.52476501464844 37.122474670410156 113.52474975585938 C 37.12996292114258 106.39922332763672 36.80707550048828 99.67758178710938 37.670589447021484 92.95658874511719 C 37.64009475708008 71.92262268066406 37.56292724609375 50.483577728271484 36.76512145996094 28.31256675720215" stroke-width="1.1637080907821655" fill="none" stroke="rgb(21, 28, 24)" stroke-opacity="0.99298495" stroke-linecap="round" stroke-linejoin="round"/>
    <path d="M 57.693504333496094 26.40280532836914 C 57.61424255371094 26.435632705688477 56.57587814331055 26.447317123413086 55.99058532714844 26.420265197753906 C 54.67179870605469 25.787282943725586 53.35295867919922 25.71575355529785 52.09171676635742 26.017803192138672 C 50.4567985534668 25.99519157409668 48.18985366821289 25.126787185668945 45.907798767089844 24.748027801513672 C 42.84416961669922 24.89850425720215 40.590126037597656 23.865293502807617 38.13007736206055 23.428455352783203 C 38.6059455871582 22.764266967773438 38.0745964050293 23.549724578857422 36.58004379272461 23.454631805419922 C 33.29887390136719 22.586566925048828 30.07054328918457 21.384859085083008 26.938140869140625 21.077720642089844" stroke-width="1.1944899559020996" fill="none" stroke="rgb(28, 23, 18)" stroke-opacity="0.9974958" stroke-linecap="round" stroke-linejoin="round"/>
    <path d="M 64.00171661376953 69.37962341308594 C 64.11359405517578 71.87247467041016 63.40531921386719 67.11688995361328 58.130924224853516 72.96015167236328 C 56.812965393066406 72.5158462524414 62.09970474243164 73.29443359375 65.14022064208984 78.40155792236328 C 63.77082824707031 74.34909057617188 67.19891357421875 69.897216796875 65.67562103271484 65.07429504394531" stroke-width="1.0892857313156128" fill="none" stroke="rgb(176, 180, 191)" stroke-opacity="0.36201853" stroke-linecap="round" stroke-linejoin="round"/>
    <path d="M 63.17156219482422 66.80294036865234 C 58.3426513671875 62.81745529174805 54.89006423950195 61.02762985229492 50.36216735839844 65.98477172851562" stroke-width="1.0892857313156128" fill="none" stroke="rgb(118, 184, 61)" stroke-opacity="0.7710809" stroke-linecap="round" stroke-linejoin="round"/>
    <path d="M 37.07157516479492 92.83152770996094 C 35.208106994628906 98.67474365234375 30.13382911682129 102.81929779052734 29.117794036865234 99.8083724975586" stroke-width="1.0892857313156128" fill="none" stroke="rgb(59, 227, 39)" stroke-opacity="0.54650724" stroke-linecap="round" stroke-linejoin="round"/>
    <path d="M 114.96048736572266 28.083133697509766 C 111.41915893554688 33.457908630371094 107.78707885742188 27.695066452026367 104.0931167602539 32.90398025512695 C 107.15634155273438 33.36261749267578 103.23037719726562 32.48013687133789 108.09230041503906 34.90730285644531 C 106.44986724853516 34.42435836791992 105.0416030883789 37.33444595336914 99.99575805664062 33.73518753051758" stroke-width="1.0892857313156128" fill="none" stroke="rgb(126, 96, 156)" stroke-opacity="0.7636937" stroke-linecap="round" stroke-linejoin="round"/>
    <path d="M 59.714908599853516 24.95549201965332 C 58.216861724853516 29.054866790771484 59.919803619384766 27.134376525878906 57.23298263549805 30.33748435974121 C 62.025047302246094 35.931304931640625 63.31427764892578 40.10047912597656 68.20698547363281 36.79587173461914" stroke-width="1.2504757642745972" fill="none" stroke="rgb(62, 255, 9)" stroke-opacity="0.7003426" stroke-linecap="round" stroke-linejoin="round"/>
    <path d="M 64.52024841308594 75.54759979248047 C 60.25167465209961 79.26068115234375 58.29029083251953 82.30082702636719 53.412696838378906 85.07158660888672 C 52.566532135009766 82.75985717773438 47.55409240722656 81.70220184326172 53.63435745239258 86.93583679199219" stroke-width="1.0892857313156128" fill="none" stroke="rgb(41, 217, 43)" stroke-opacity="0.0" stroke-linecap="round" stroke-linejoin="round"/>
    <path d="M 62.75084686279297 65.73585510253906 C 67.72027587890625 66.5425796508789 67.1080322265625 73.61750793457031 63.427921295166016 75.65164184570312 C 66.2254409790039 80.54389953613281 67.22390747070312 87.24858093261719 68.04121398925781 87.99717712402344 C 61.868831634521484 88.57582092285156 66.75035095214844 88.05994415283203 72.3460922241211 84.93387603759766" stroke-width="1.2929104566574097" fill="none" stroke="rgb(40, 45, 43)" stroke-opacity="0.6432403" stroke-linecap="round" stroke-linejoin="round"/>
    <path d="M 80.56120300292969 110.08853149414062 C 76.25191497802734 112.14718627929688 72.61497497558594 113.7947769165039 69.8089828491211 115.35623931884766" stroke-width="1.1201274394989014" fill="none" stroke="rgb(145, 31, 238)" stroke-opacity="0.85234624" stroke-linecap="round" stroke-linejoin="round"/>
    <path d="M 53.625972747802734 86.9465560913086 C 48.76192092895508 85.05012512207031 45.91175842285156 90.840576171875 45.173683166503906 90.5785140991211" stroke-width="1.1110119819641113" fill="none" stroke="rgb(42, 222, 169)" stroke-opacity="0.22193885" stroke-linecap="round" stroke-linejoin="round"/>
    <path d="M 65.81939697265625 65.19816589355469 C 64.6861572265625 64.22478485107422 58.06010437011719 67.19733428955078 54.167083740234375 71.58733367919922 C 60.069087982177734 72.69904327392578 64.15815734863281 72.83456420898438 69.40821075439453 75.20720672607422" stroke-width="1.283565878868103" fill="none" stroke="rgb(133, 56, 117)" stroke-opacity="0.32132152" stroke-linecap="round" stroke-linejoin="round"/>
    <path d="M 69.8311538696289 115.1431884765625 C 75.62493896484375 116.70359802246094 71.2789535522461 118.00334930419922 71.8254165649414 122.06697845458984 C 69.95843505859375 121.44883728027344 69.07535552978516 122.51176452636719 74.72235107421875 124.53555297851562 C 75.3737564086914 123.55594635009766 78.92521667480469 127.576416015625 79.08367156982422 129.3970184326172" stroke-width="1.2898046970367432" fill="none" stroke="rgb(119, 146, 184)" stroke-opacity="0.45953736" stroke-linecap="round" stroke-linejoin="round"/>
    <path d="M 69.85816192626953 115.39082336425781 C 64.71344757080078 120.10050964355469 59.591339111328125 116.30628204345703 53.09228515625 118.85336303710938" stroke-width="1.1337063312530518" fill="none" stroke="rgb(93, 81, 196)" stroke-opacity="0.3581737" stroke-linecap="round" stroke-linejoin="round"/>
    <path d="M 72.35689544677734 85.12740325927734 C 67.73387145996094 82.52487182617188 70.71099853515625 81.9891128540039 67.6910629272461 85.57393646240234" stroke-width="1.0892857313156128" fill="none" stroke="rgb(214, 210, 232)" stroke-opacity="0.56497246" stroke-linecap="round" stroke-linejoin="round"/>
    <path d="M 65.95011901855469 65.6104507446289 C 66.77079010009766 69.4396743774414 64.31402587890625 65.9794692993164 59.686885833740234 61.65688705444336 C 55.22146224975586 58.562870025634766 49.53765106201172 62.555233001708984 51.30685806274414 59.442405700683594" stroke-width="1.1567113399505615" fill="none" stroke="rgb(151, 121, 228)" stroke-opacity="0.13700989" stroke-linecap="round" stroke-linejoin="round"/>
    <path d="M 51.311527252197266 67.06729125976562 C 51.50448226928711 63.43368911743164 57.39365005493164 67.57362365722656 52.94194793701172 66.75259399414062 C 51.69453048706055 64.69287109375 53.367671966552734 70.56585693359375 57.94660568237305 68.93603515625 C 55.04359436035156 67.28163146972656 53.586551666259766 63.44078063964844 49.78977584838867 69.54085540771484" stroke-width="1.292546272277832" fill="none" stroke="rgb(251, 201, 13)" stroke-opacity="0.07263202" stroke-linecap="round" stroke-linejoin="round"/>
    <path d="M 51.44361114501953 65.99172973632812 C 45.63241958618164 64.18635559082031 41.52336883544922 62.759273529052734 40.8348503112793 60.497901916503906 C 43.08580017089844 66.40455627441406 45.92015075683594 63.10869216918945 48.32302474975586 65.07974243164062 C 54.5466423034668 66.3275146484375 56.63444519042969 71.329833984375 53.48063278198242 73.81637573242188" stroke-width="1.0892857313156128" fill="none" stroke="rgb(132, 33, 214)" stroke-opacity="0.27789867" stroke-linecap="round" stroke-linejoin="round"/>
    <path d="M 54.237308502197266 27.73597526550293 C 59.81163024902344 23.980737686157227 57.17893600463867 26.735261917114258 57.81919860839844 24.161977767944336 C 58.69879913330078 26.490081787109375 59.89881134033203 26.53154182434082 56.942649841308594 26.348121643066406" stroke-width="1.0892857313156128" fill="none" stroke="rgb(194, 101, 201)" stroke-opacity="0.23270547" stroke-linecap="round" stroke-linejoin="round"/>
    <path d="M 7.731717109680176 113.9502182006836 C 0.8129053115844727 109.56818389892578 -0.07822257280349731 114.90876770019531 -2.1614344120025635 110.44692993164062 C -7.721742630004883 108.53097534179688 -3.8652942180633545 103.71040344238281 -1.7875880002975464 107.85111236572266 C -4.931902885437012 111.00423431396484 -4.461977005004883 115.3907699584961 -6.099421977996826 118.17781066894531" stroke-width="1.0892857313156128" fill="none" stroke="rgb(103, 185, 116)" stroke-opacity="0.5661986" stroke-linecap="round" stroke-linejoin="round"/>
    <path d="M 50.202762603759766 36.879756927490234 C 53.173072814941406 42.02533721923828 59.39752960205078 43.279666900634766 55.65461730957031 44.972373962402344" stroke-width="1.0892857313156128" fill="none" stroke="rgb(160, 67, 212)" stroke-opacity="0.8641687" stroke-linecap="round" stroke-linejoin="round"/>
    <path d="M 60.112831115722656 67.05972290039062 C 62.425479888916016 73.80552673339844 59.3732795715332 74.56303405761719 59.07466125488281 67.5823974609375 C 64.38880920410156 68.81585693359375 65.22867584228516 66.85623168945312 59.0369873046875 65.04156494140625 C 59.293052673339844 69.43395233154297 53.53081130981445 67.74649810791016 47.534461975097656 68.75788879394531" stroke-width="1.3035027980804443" fill="none" stroke="rgb(193, 70, 77)" stroke-opacity="0.5615789" stroke-linecap="round" stroke-linejoin="round"/>
    <path d="M 44.6815299987793 76.13980865478516 C 46.563968658447266 80.57960510253906 45.86001205444336 80.47300720214844 47.43791198730469 80.37066650390625" stroke-width="1.1184996366500854" fill="none" stroke="rgb(21, 181, 4)" stroke-opacity="0.16313484" stroke-linecap="round" stroke-linejoin="round"/>
    <path d="M 21.875417709350586 100.60453033447266 C 24.070009231567383 99.318115234375 27.62116813659668 96.45633697509766 31.598918914794922 94.33316802978516" stroke-width="1.0892857313156128" fill="none" stroke="rgb(120, 35, 133)" stroke-opacity="0.86550516" stroke-linecap="round" stroke-linejoin="round"/>
    <path d="M 106.54865264892578 19.573822021484375 C 102.00335693359375 18.007617950439453 102.16047668457031 14.391205787658691 100.4039535522461 17.568256378173828" stroke-width="1.2360981702804565" fill="none" stroke="rgb(122, 165, 8)" stroke-opacity="0.09942404" stroke-linecap="round" stroke-linejoin="round"/>
    <path d="M 36.268192291259766 85.83345794677734 C 33.58609390258789 81.7655258178711 27.983505249023438 81.3585205078125 30.14126968383789 79.4300765991211 C 32.30208969116211 77.44144439697266 28.850317001342773 82.36192321777344 31.00990867614746 88.39990997314453" stroke-width="1.0892857313156128" fill="none" stroke="rgb(123, 35, 231)" stroke-opacity="0.8653216" stroke-linecap="round" stroke-linejoin="round"/>
    <path d="M 92.78577423095703 78.61514282226562 C 96.57929992675781 78.90782928466797 98.82077026367188 83.83678436279297 96.26213073730469 85.77745056152344 C 98.33831024169922 81.26524353027344 93.43961334228516 83.68548583984375 91.6612548828125 82.04855346679688 C 96.38079071044922 76.9859619140625 96.04405975341797 73.03266143798828 99.59583282470703 67.13653564453125" stroke-width="1.0892857313156128" fill="none" stroke="rgb(49, 106, 242)" stroke-opacity="0.71028644" stroke-linecap="round" stroke-linejoin="round"/>
    <path d="M 67.11708068847656 70.41644287109375 C 68.42652130126953 68.9879150390625 63.51204299926758 69.49906921386719 61.690757751464844 72.85916137695312 C 62.91720962524414 72.03047943115234 67.28499603271484 77.0906982421875 69.2924575805664 78.78551483154297" stroke-width="1.147348165512085" fill="none" stroke="rgb(255, 186, 227)" stroke-opacity="0.44120547" stroke-linecap="round" stroke-linejoin="round"/>
    <path d="M 115.53456115722656 23.236297607421875 C 120.11795043945312 21.21491241455078 124.69169616699219 20.36397933959961 122.00146484375 15.674248695373535 C 119.68590545654297 13.584275245666504 117.57435607910156 18.145944595336914 117.58158111572266 20.858919143676758 C 120.00344848632812 14.506596565246582 118.0377197265625 10.951878547668457 122.05036163330078 8.775272369384766" stroke-width="1.0892857313156128" fill="none" stroke="rgb(65, 81, 41)" stroke-opacity="0.34885508" stroke-linecap="round" stroke-linejoin="round"/>
    <path d="M 121.06623840332031 96.68340301513672 C 124.1177978515625 99.8468017578125 123.58509063720703 100.7260971069336 117.88939666748047 96.14159393310547 C 113.91857147216797 93.50861358642578 118.95014953613281 87.41439819335938 121.74549865722656 93.52783966064453" stroke-width="1.0892857313156128" fill="none" stroke="rgb(202, 93, 61)" stroke-opacity="0.7555595" stroke-linecap="round" stroke-linejoin="round"/>
    <path d="M 83.44595336914062 14.800121307373047 C 85.17228698730469 18.240802764892578 89.46245574951172 22.365198135375977 91.8560791015625 23.778959274291992 C 97.56615447998047 19.342876434326172 98.13874816894531 20.687881469726562 103.86332702636719 15.461859703063965 C 106.1398696899414 19.520627975463867 109.22269439697266 23.99171257019043 113.32418823242188 28.206863403320312" stroke-width="1.0892857313156128" fill="none" stroke="rgb(32, 143, 5)" stroke-opacity="0.6279096" stroke-linecap="round" stroke-linejoin="round"/>
    <path d="M 93.41545104980469 44.083683013916016 C 90.8555908203125 45.993534088134766 88.11579895019531 41.60096740722656 87.64616394042969 36.414100646972656 C 90.94064331054688 33.33734893798828 85.52899169921875 32.876224517822266 80.12754821777344 30.294450759887695" stroke-width="1.278659462928772" fill="none" stroke="rgb(206, 66, 60)" stroke-opacity="0.06999509" stroke-linecap="round" stroke-linejoin="round"/>
    <path d="M 51.773372650146484 9.439282417297363 C 51.87870788574219 12.604509353637695 56.982540130615234 15.691327095031738 58.22372817993164 17.16739273071289" stroke-width="1.1228193044662476" fill="none" stroke="rgb(42, 122, 164)" stroke-opacity="0.9722564" stroke-linecap="round" stroke-linejoin="round"/>
    <path d="M 7.918106555938721 92.91010284423828 C 10.941959381103516 97.37429809570312 9.212605476379395 102.01372528076172 5.4487080574035645 101.979248046875 C 5.084264278411865 100.88477325439453 8.796110153198242 97.7027359008789 9.722387313842773 101.95597839355469 C 6.316093921661377 103.25460815429688 3.3203375339508057 106.47673034667969 8.594233512878418 106.57162475585938" stroke-width="1.292829990386963" fill="none" stroke="rgb(196, 234, 27)" stroke-opacity="0.97838885" stroke-linecap="round" stroke-linejoin="round"/>
  </g>
</svg>
