<?xml version="1.0" ?>
<svg xmlns="http://www.w3.org/2000/svg" version="1.1" width="925.0" height="925.0">
  <defs/>
  <g>
    <path d="M 104.47249603271484 91.02227020263672 C 101.85609436035156 85.93692016601562 98.6218032836914 84.18280029296875 102.54766845703125 85.72357940673828 C 108.88079833984375 81.36137390136719 107.1600112915039 86.6387939453125 110.90267181396484 90.65818786621094" stroke-width="1.0892857313156128" fill="none" stroke="rgb(21, 73, 46)" stroke-opacity="0.8086589" stroke-linecap="round" stroke-linejoin="round"/>
    <path d="M 32.86878204345703 16.518125534057617 C 34.32865524291992 22.224313735961914 35.40946578979492 17.594022750854492 31.342304229736328 13.757286071777344" stroke-width="1.5110011100769043" fill="none" stroke="rgb(253, 50, 68)" stroke-opacity="0.1355105" stroke-linecap="round" stroke-linejoin="round"/>
    <path d="M 105.31407165527344 117.39864349365234 C 104.25086975097656 121.07852935791016 104.7875747680664 120.77986145019531 103.34221649169922 123.51400756835938 C 103.54803466796875 123.014892578125 100.07488250732422 128.4228057861328 95.52628326416016 123.63389587402344" stroke-width="1.4797035455703735" fill="none" stroke="rgb(245, 217, 227)" stroke-opacity="0.9150243" stroke-linecap="round" stroke-linejoin="round"/>
    <path d="M 4.662890911102295 39.05908966064453 C 7.186405181884766 40.90473175048828 9.943222999572754 38.740013122558594 6.380228519439697 33.72869110107422 C 1.9473077058792114 38.407073974609375 -2.0033552646636963 32.78636932373047 -2.2832446098327637 34.451576232910156" stroke-width="1.0892857313156128" fill="none" stroke="rgb(147, 66, 45)" stroke-opacity="0.14671108" stroke-linecap="round" stroke-linejoin="round"/>
    <path d="M 117.34492492675781 89.2527847290039 C 117.60272216796875 87.34520721435547 114.17774963378906 80.81782531738281 120.022216796875 74.25567626953125 C 125.08211517333984 76.3829574584961 129.31011962890625 81.4676742553711 124.45140838623047 77.5811767578125" stroke-width="1.499234676361084" fill="none" stroke="rgb(48, 136, 255)" stroke-opacity="0.18580748" stroke-linecap="round" stroke-linejoin="round"/>
    <path d="M 2.1076321601867676 54.96803283691406 C 5.190755367279053 55.10060501098633 11.316064834594727 58.20195388793945 9.398172378540039 58.07780075073242 C 10.456876754760742 58.86354446411133 12.879026412963867 59.42948532104492 12.893291473388672 60.01655578613281" stroke-width="1.0892857313156128" fill="none" stroke="rgb(255, 181, 189)" stroke-opacity="0.8418706" stroke-linecap="round" stroke-linejoin="round"/>
    <path d="M 55.244876861572266 107.84683227539062 C 59.199378967285156 106.8481674194336 53.8571662902832 108.57222747802734 53.18793487548828 111.50841522216797 C 51.7491455078125 113.96311950683594 54.43125534057617 116.5208969116211 53.17062759399414 113.09673309326172 C 49.0359001159668 109.88920593261719 47.769290924072266 107.1480484008789 46.439083099365234 103.33405303955078" stroke-width="1.0892857313156128" fill="none" stroke="rgb(36, 206, 24)" stroke-opacity="0.14772576" stroke-linecap="round" stroke-linejoin="round"/>
    <path d="M 59.72800064086914 80.31397247314453 C 65.59233093261719 80.85811614990234 69.7266845703125 78.9939193725586 66.86969757080078 81.09307861328125 C 67.21785736083984 83.15982818603516 66.49687194824219 88.8752670288086 66.21263885498047 84.30908966064453" stroke-width="1.4756299257278442" fill="none" stroke="rgb(228, 89, 124)" stroke-opacity="0.38038" stroke-linecap="round" stroke-linejoin="round"/>
    <path d="M 14.828758239746094 98.90325164794922 C 18.328096389770508 97.36485290527344 23.00112533569336 99.0581283569336 25.640310287475586 97.7623062133789 C 20.284523010253906 99.87138366699219 19.26947021484375 96.0870590209961 24.457822799682617 94.67180633544922" stroke-width="1.0892857313156128" fill="none" stroke="rgb(102, 166, 22)" stroke-opacity="0.29433864" stroke-linecap="round" stroke-linejoin="round"/>
    <path d="M 83.08810424804688 120.72049713134766 C 84.17219543457031 116.65931701660156 78.90923309326172 121.81352996826172 75.31867218017578 124.07408905029297 C 77.18245697021484 121.27129364013672 78.18415832519531 126.09788513183594 79.49317932128906 126.56641387939453 C 73.42353820800781 127.951904296875 78.73628234863281 122.10639190673828 77.27359771728516 121.48145294189453" stroke-width="1.1949902772903442" fill="none" stroke="rgb(196, 32, 131)" stroke-opacity="0.09101299" stroke-linecap="round" stroke-linejoin="round"/>
    <path d="M 111.45475006103516 55.916404724121094 C 108.55995178222656 57.44321060180664 105.4598388671875 58.19036102294922 110.7437515258789 59.2998161315918" stroke-width="1.0892857313156128" fill="none" stroke="rgb(174, 178, 86)" stroke-opacity="0.7983034" stroke-linecap="round" stroke-linejoin="round"/>
    <path d="M 25.04686164855957 26.100780487060547 C 19.693756103515625 24.589555740356445 17.046939849853516 19.80588150024414 20.040096282958984 16.9831600189209 C 15.2523832321167 18.006603240966797 18.891714096069336 15.541943550109863 22.536001205444336 20.809490203857422 C 20.3663330078125 25.151626586914062 26.67465591430664 28.07499122619629 22.073383331298828 29.078332901000977" stroke-width="1.0892857313156128" fill="none" stroke="rgb(27, 128, 129)" stroke-opacity="0.14922781" stroke-linecap="round" stroke-linejoin="round"/>
    <path d="M 70.0657958984375 118.21349334716797 C 64.93741607666016 114.9835433959961 69.17937469482422 117.28978729248047 64.86943817138672 124.74055480957031 C 65.1891098022461 119.28079223632812 61.91518020629883 121.79464721679688 65.12700653076172 121.36573791503906 C 68.48163604736328 117.15679931640625 72.9090576171875 114.32088470458984 77.7911148071289 116.41966247558594" stroke-width="1.0892857313156128" fill="none" stroke="rgb(153, 118, 219)" stroke-opacity="0.49651122" stroke-linecap="round" stroke-linejoin="round"/>
    <path d="M 93.24618530273438 113.35578155517578 C 96.77765655517578 115.01105499267578 93.54193878173828 113.47915649414062 94.31722259521484 105.6044692993164 C 88.14886474609375 101.04119110107422 90.04679870605469 102.92143249511719 85.45226287841797 96.74382781982422 C 81.39256286621094 92.2161636352539 79.90837097167969 87.16996002197266 81.86639404296875 91.73680877685547" stroke-width="1.0892857313156128" fill="none" stroke="rgb(35, 21, 152)" stroke-opacity="0.8946178" stroke-linecap="round" stroke-linejoin="round"/>
    <path d="M 88.31138610839844 22.314496994018555 C 86.6171875 23.251495361328125 86.74310302734375 17.773441314697266 89.36128234863281 21.868242263793945" stroke-width="1.602857232093811" fill="none" stroke="rgb(205, 4, 105)" stroke-opacity="0.07728855" stroke-linecap="round" stroke-linejoin="round"/>
    <path d="M 111.20874786376953 37.144073486328125 C 107.28927612304688 44.08216857910156 111.83972930908203 47.18886184692383 118.31544494628906 43.11261749267578 C 119.19149780273438 48.21365737915039 115.68934631347656 41.38669204711914 118.4317398071289 43.385597229003906" stroke-width="1.0904977321624756" fill="none" stroke="rgb(178, 230, 143)" stroke-opacity="0.37251487" stroke-linecap="round" stroke-linejoin="round"/>
    <path d="M 23.427675247192383 30.197792053222656 C 22.95561981201172 23.6770076751709 26.84379768371582 20.756671905517578 23.052513122558594 20.36581802368164 C 20.9652156829834 16.948389053344727 23.768375396728516 11.898098945617676 21.76426124572754 10.438924789428711" stroke-width="1.0892857313156128" fill="none" stroke="rgb(41, 183, 169)" stroke-opacity="0.5768844" stroke-linecap="round" stroke-linejoin="round"/>
    <path d="M 42.458675384521484 25.568492889404297 C 47.31116485595703 31.371814727783203 52.5449104309082 29.6448917388916 58.913814544677734 29.017438888549805" stroke-width="1.0892857313156128" fill="none" stroke="rgb(27, 209, 223)" stroke-opacity="0.7032775" stroke-linecap="round" stroke-linejoin="round"/>
    <path d="M 81.84624481201172 107.03985595703125 C 83.1208267211914 110.55230712890625 82.09394073486328 111.43372344970703 80.33476257324219 105.6854248046875" stroke-width="1.686490774154663" fill="none" stroke="rgb(175, 18, 47)" stroke-opacity="0.96850103" stroke-linecap="round" stroke-linejoin="round"/>
    <path d="M 69.19517517089844 22.194215774536133 C 73.68609619140625 18.685047149658203 75.74112701416016 17.13543701171875 71.92285919189453 16.331512451171875" stroke-width="1.384919285774231" fill="none" stroke="rgb(28, 95, 255)" stroke-opacity="0.4489589" stroke-linecap="round" stroke-linejoin="round"/>
    <path d="M 65.65506744384766 91.50657653808594 C 72.04802703857422 85.7481460571289 73.2219467163086 87.79179382324219 74.96992492675781 95.49585723876953" stroke-width="1.1127783060073853" fill="none" stroke="rgb(23, 53, 248)" stroke-opacity="0.40400273" stroke-linecap="round" stroke-linejoin="round"/>
    <path d="M 95.9169921875 69.95623016357422 C 92.64210510253906 73.55916595458984 96.94075012207031 72.787109375 95.34978485107422 70.58216094970703 C 96.9837875366211 70.81550598144531 98.92227935791016 70.1584243774414 103.49225616455078 68.89318084716797" stroke-width="1.5121393203735352" fill="none" stroke="rgb(38, 154, 234)" stroke-opacity="0.1321867" stroke-linecap="round" stroke-linejoin="round"/>
    <path d="M 67.56232452392578 117.80662536621094 C 70.96996307373047 121.25487518310547 65.44319152832031 118.33394622802734 67.29573822021484 111.78634643554688 C 66.33747100830078 119.44763946533203 67.18061828613281 124.6382827758789 71.32392120361328 128.4224090576172 C 71.73809051513672 121.36054992675781 74.60038757324219 124.4676742553711 74.09263610839844 128.43760681152344" stroke-width="1.0917714834213257" fill="none" stroke="rgb(150, 140, 28)" stroke-opacity="0.2861183" stroke-linecap="round" stroke-linejoin="round"/>
    <path d="M 115.36636352539062 115.25958251953125 C 120.48661804199219 118.93750762939453 124.9627685546875 118.80268096923828 122.76844787597656 123.48812103271484 C 123.19632720947266 119.29301452636719 125.85272979736328 120.69403839111328 131.93992614746094 119.70236206054688" stroke-width="1.0892857313156128" fill="none" stroke="rgb(19, 69, 109)" stroke-opacity="0.0" stroke-linecap="round" stroke-linejoin="round"/>
    <path d="M 28.637197494506836 73.67800903320312 C 32.058135986328125 71.71275329589844 35.79785919189453 76.82352447509766 38.65750503540039 72.76066589355469 C 41.31895065307617 70.88960266113281 38.9126091003418 69.7585220336914 38.68703079223633 70.77529907226562" stroke-width="1.2307443618774414" fill="none" stroke="rgb(165, 166, 210)" stroke-opacity="0.83647317" stroke-linecap="round" stroke-linejoin="round"/>
    <path d="M 98.97899627685547 109.57524871826172 C 97.4228744506836 109.11035919189453 98.80952453613281 109.80182647705078 98.7350082397461 103.08866882324219 C 99.30943298339844 106.82291412353516 101.2659912109375 103.37234497070312 104.20823669433594 108.56415557861328" stroke-width="1.6288548707962036" fill="none" stroke="rgb(111, 22, 235)" stroke-opacity="0.34794283" stroke-linecap="round" stroke-linejoin="round"/>
    <path d="M 60.055458068847656 104.79032897949219 C 64.9454345703125 107.41167449951172 61.51498794555664 112.83099365234375 57.336856842041016 111.80262756347656 C 55.03993606567383 110.82271575927734 49.69413375854492 114.95857238769531 45.97226333618164 112.62409973144531" stroke-width="1.6820257902145386" fill="none" stroke="rgb(12, 0, 215)" stroke-opacity="0.9795063" stroke-linecap="round" stroke-linejoin="round"/>
    <path d="M 6.148969650268555 116.19241333007812 C 6.806299686431885 116.56201934814453 2.7650632858276367 111.7109603881836 2.5223429203033447 108.3780288696289" stroke-width="1.72953200340271" fill="none" stroke="rgb(158, 91, 249)" stroke-opacity="0.15352277" stroke-linecap="round" stroke-linejoin="round"/>
    <path d="M 91.48182678222656 102.60070037841797 C 86.02967071533203 102.0010986328125 81.43365478515625 106.32996368408203 74.1920394897461 101.42292785644531 C 74.95812225341797 106.48612213134766 71.37969970703125 101.06452941894531 73.58468627929688 105.07621765136719" stroke-width="1.2312206029891968" fill="none" stroke="rgb(236, 236, 211)" stroke-opacity="0.7140289" stroke-linecap="round" stroke-linejoin="round"/>
    <path d="M 30.821685791015625 39.657989501953125 C 30.33827781677246 43.07448959350586 36.737022399902344 37.855098724365234 38.240028381347656 36.86574935913086 C 33.131221771240234 34.27272415161133 32.366390228271484 36.91754913330078 31.547042846679688 31.659870147705078 C 34.13963317871094 34.47536849975586 38.06739044189453 40.349239349365234 35.347328186035156 41.88803482055664" stroke-width="1.5457924604415894" fill="none" stroke="rgb(115, 108, 255)" stroke-opacity="0.06893471" stroke-linecap="round" stroke-linejoin="round"/>
    <path d="M 109.15179443359375 6.915828704833984 C 112.83753967285156 -0.9643979072570801 108.51231384277344 -2.6304726600646973 113.33321380615234 -4.908768177032471 C 113.08033752441406 -7.880043029785156 119.154296875 -8.755813598632812 121.2411880493164 -13.484658241271973" stroke-width="1.1677255630493164" fill="none" stroke="rgb(28, 109, 230)" stroke-opacity="0.24546547" stroke-linecap="round" stroke-linejoin="round"/>
    <path d="M 58.339439392089844 110.93458557128906 C 63.124088287353516 112.145263671875 63.473365783691406 110.76509857177734 67.33854675292969 110.4175796508789 C 67.35130310058594 110.43603515625 62.95389938354492 109.79249572753906 60.07431411743164 110.67684173583984 C 61.91829299926758 109.09855651855469 61.47581481933594 111.34602355957031 61.36214828491211 105.19818115234375" stroke-width="1.0892857313156128" fill="none" stroke="rgb(169, 93, 73)" stroke-opacity="0.5554971" stroke-linecap="round" stroke-linejoin="round"/>
  </g>
</svg>
