<?xml version="1.0" ?>
<svg xmlns="http://www.w3.org/2000/svg" version="1.1" width="1104.0" height="1104.0">
  <defs/>
  <g>
    <path d="M 41.344703674316406 111.2317886352539 C 42.64994430541992 111.34717559814453 43.164730072021484 111.46431732177734 43.138084411621094 111.47527313232422 C 42.3216552734375 112.27792358398438 42.54349136352539 111.39330291748047 44.643394470214844 111.65953826904297 C 46.23994064331055 112.71812438964844 50.720489501953125 113.34651947021484 59.50343704223633 113.5045166015625 C 66.70274353027344 113.66426849365234 77.91510772705078 112.56303405761719 92.12996673583984 111.94963073730469 C 105.5524673461914 110.54380798339844 121.18607330322266 108.04102325439453 131.1977081298828 106.32821655273438 C 141.2039794921875 104.61526489257812 145.5943145751953 102.89820861816406 148.19688415527344 102.83677673339844 C 150.7990264892578 101.98300170898438 151.61907958984375 101.19667053222656 152.13198852539062 100.20909881591797 C 151.85400390625 100.0138168334961 152.0590057373047 100.40968322753906 152.06744384765625 99.87054443359375 C 152.0780792236328 100.12271881103516 151.89169311523438 98.64952087402344 151.7958526611328 97.41769409179688 C 151.70001220703125 96.18730926513672 151.6947021484375 95.19871520996094 152.20132446289062 92.37065887451172 C 151.91552734375 90.33480072021484 150.55514526367188 88.04035186767578 149.7901153564453 83.98450469970703 C 149.81683349609375 79.9219970703125 148.061279296875 74.89818572998047 147.30690002441406 72.19137573242188 C 146.55294799804688 68.69424438476562 146.80172729492188 68.31234741210938 144.58937072753906 66.36229705810547 C 143.1693572998047 63.61989974975586 141.66668701171875 57.726200103759766 139.4603729248047 55.91391372680664 C 137.2540283203125 54.099884033203125 134.3423309326172 55.57668685913086 132.32589721679688 56.38783264160156 C 130.30950927734375 57.19901657104492 129.18643188476562 58.14049530029297 126.24015808105469 58.79016876220703 C 123.29542541503906 59.43981170654297 119.3176498413086 60.59001541137695 113.50025939941406 60.90876770019531 C 108.47346496582031 62.01813888549805 102.397705078125 63.088478088378906 97.50823974609375 65.27069854736328 C 91.0323486328125 65.86813354492188 85.74102783203125 67.5792236328125 81.64077758789062 68.6690673828125 C 77.53874969482422 69.75891876220703 74.6259765625 70.22752380371094 70.99433135986328 71.32801818847656 C 67.3626708984375 72.42852020263672 63.0103645324707 74.15914154052734 57.46171188354492 76.92813110351562 C 52.70723342895508 80.48954010009766 45.964012145996094 84.29869079589844 42.56948471069336 84.93694305419922 C 40.75969696044922 86.36760711669922 42.29862976074219 85.41976928710938 41.568359375 87.35449981689453 C 41.63048553466797 89.2910385131836 41.01173782348633 94.90425872802734 39.59886932373047 99.72344207763672 C 38.18596267700195 104.54432678222656 37.80181121826172 109.10252380371094 38.21005630493164 112.86834716796875" stroke-width="1.5848214626312256" fill="none" stroke="rgb(26, 26, 21)" stroke-opacity="0.99" stroke-linecap="round" stroke-linejoin="round"/>
    <path d="M 63.2570915222168 74.14387512207031 C 63.16481018066406 74.01424407958984 63.074275970458984 73.88467407226562 62.95887756347656 73.38063049316406 C 62.843505859375 72.87651062011719 62.705055236816406 71.99788665771484 62.56837463378906 71.16365814208984 C 62.42995834350586 70.32921600341797 63.08559036254883 68.74754333496094 62.41115188598633 64.98771667480469 C 61.736656188964844 61.22825622558594 60.52432632446289 54.49746322631836 59.87112808227539 50.57825469970703 C 59.216148376464844 46.66087341308594 59.120296478271484 45.555057525634766 58.01728439331055 45.353370666503906 C 57.70664978027344 44.35938262939453 57.18302536010742 43.47719955444336 57.54342269897461 42.6624755859375 C 58.69428634643555 41.84775161743164 59.93678665161133 41.10047912597656 60.47654342651367 39.99816131591797 C 60.227169036865234 38.897499084472656 60.86155319213867 37.443992614746094 64.56776428222656 36.338172912597656 C 67.481689453125 34.43999481201172 75.8458251953125 34.476158142089844 79.24632263183594 33.470794677734375 C 84.23109436035156 33.25779724121094 85.04235076904297 33.58794403076172 88.23381042480469 34.451297760009766 C 91.4267349243164 34.52056884765625 96.20831298828125 33.53825378417969 99.14938354492188 33.39091873168945 C 102.08877563476562 33.24359893798828 102.39582061767578 33.14064407348633 103.135986328125 32.851318359375 C 103.87617492675781 32.56199645996094 105.05302429199219 32.086307525634766 106.1453628540039 33.253196716308594 C 106.44534301757812 33.62773132324219 105.8702392578125 34.8542594909668 105.42825317382812 35.665428161621094 C 104.1921157836914 35.68423843383789 103.88150787353516 36.08184814453125 105.15669250488281 39.81819534301758 C 105.64124298095703 44.346858978271484 106.12686157226562 51.420345306396484 107.44567108154297 56.230587005615234 C 109.55512237548828 60.24851989746094 110.91299438476562 62.793827056884766 112.26911926269531 65.33914947509766 C 112.83282470703125 68.67687225341797 112.90914154052734 70.2921142578125 112.98548889160156 71.11322784423828" stroke-width="1.5848214626312256" fill="none" stroke="rgb(26, 26, 21)" stroke-opacity="0.99" stroke-linecap="round" stroke-linejoin="round"/>
    <path d="M 139.46034240722656 56.70630645751953 C 144.9329071044922 60.45197296142578 140.54388427734375 57.95377731323242 147.60618591308594 49.90564727783203" stroke-width="1.5848214626312256" fill="none" stroke="rgb(58, 81, 54)" stroke-opacity="0.077117145" stroke-linecap="round" stroke-linejoin="round"/>
    <path d="M 96.71586608886719 65.27068328857422 C 100.2027359008789 59.50959777832031 106.56001281738281 68.67922973632812 106.76797485351562 63.464012145996094" stroke-width="1.7432904243469238" fill="none" stroke="rgb(71, 147, 217)" stroke-opacity="0.10782835" stroke-linecap="round" stroke-linejoin="round"/>
    <path d="M 139.46034240722656 56.7062873840332 C 130.55567932128906 61.57221603393555 131.3387908935547 59.7705192565918 129.40480041503906 57.48561477661133" stroke-width="1.5848214626312256" fill="none" stroke="rgb(137, 217, 60)" stroke-opacity="0.10982471" stroke-linecap="round" stroke-linejoin="round"/>
    <path d="M 132.3258819580078 56.38785171508789 C 128.75502014160156 62.9102897644043 121.70636749267578 58.3587646484375 127.30686950683594 50.84090042114258 C 127.42461395263672 53.716880798339844 131.71290588378906 52.59320831298828 135.02584838867188 48.65129089355469 C 142.3564910888672 40.256248474121094 137.5645294189453 33.723968505859375 132.79344177246094 41.711185455322266" stroke-width="1.5848214626312256" fill="none" stroke="rgb(94, 246, 233)" stroke-opacity="0.7818596" stroke-linecap="round" stroke-linejoin="round"/>
    <path d="M 58.01728439331055 44.56103515625 C 61.21997833251953 42.6923828125 67.08482360839844 48.240264892578125 70.57028198242188 56.41993713378906 C 63.29071807861328 60.38494110107422 69.13505554199219 62.51926040649414 66.11319732666016 69.78096771240234" stroke-width="1.5848214626312256" fill="none" stroke="rgb(182, 102, 115)" stroke-opacity="0.18364498" stroke-linecap="round" stroke-linejoin="round"/>
    <path d="M 106.1452407836914 33.253204345703125 C 101.12482452392578 39.724666595458984 107.3558349609375 34.089962005615234 107.0640640258789 26.958232879638672 C 108.65028381347656 19.293306350708008 114.65489959716797 12.782959938049316 122.52865600585938 12.67565631866455 C 121.15624237060547 8.425799369812012 121.42723083496094 9.792547225952148 121.02259826660156 2.67848539352417" stroke-width="1.5848214626312256" fill="none" stroke="rgb(219, 128, 12)" stroke-opacity="0.12903596" stroke-linecap="round" stroke-linejoin="round"/>
    <path d="M 58.7113151550293 112.71212768554688 C 55.82891082763672 113.50423431396484 52.27802658081055 121.10987091064453 47.11770248413086 125.48932647705078" stroke-width="1.5848214626312256" fill="none" stroke="rgb(193, 199, 72)" stroke-opacity="0.75168216" stroke-linecap="round" stroke-linejoin="round"/>
    <path d="M 152.5882568359375 96.62532806396484 C 152.11178588867188 102.02521514892578 157.7946319580078 103.85482025146484 156.2089385986328 96.62818145751953 C 157.0341796875 88.89806365966797 149.67034912109375 89.47703552246094 157.4645538330078 92.60686492919922 C 148.59445190429688 97.16736602783203 147.04820251464844 92.88365936279297 149.3474884033203 99.15801239013672" stroke-width="1.7433031797409058" fill="none" stroke="rgb(90, 44, 19)" stroke-opacity="0.41998798" stroke-linecap="round" stroke-linejoin="round"/>
    <path d="M 128.61244201660156 57.48562240600586 C 136.80825805664062 65.2048568725586 139.25262451171875 73.47496795654297 136.98641967773438 69.50975799560547" stroke-width="1.7433034181594849" fill="none" stroke="rgb(246, 48, 80)" stroke-opacity="0.8755464" stroke-linecap="round" stroke-linejoin="round"/>
    <path d="M 133.58583068847656 41.71120071411133 C 126.452880859375 50.143367767333984 129.7265625 46.94182586669922 135.0442657470703 53.006526947021484 C 141.19113159179688 46.75541687011719 141.6127471923828 46.341224670410156 144.40936279296875 54.8409538269043" stroke-width="1.5848214626312256" fill="none" stroke="rgb(24, 176, 55)" stroke-opacity="0.36302215" stroke-linecap="round" stroke-linejoin="round"/>
    <path d="M 132.79344177246094 41.71120071411133 C 137.90232849121094 43.65510177612305 132.71018981933594 36.196624755859375 133.2981719970703 33.36640167236328" stroke-width="1.5848214626312256" fill="none" stroke="rgb(231, 110, 232)" stroke-opacity="0.96662825" stroke-linecap="round" stroke-linejoin="round"/>
    <path d="M 129.40480041503906 57.48562240600586 C 120.10823822021484 58.57399368286133 113.64507293701172 53.26298904418945 107.6517562866211 52.11830139160156 C 110.34635925292969 54.5572395324707 102.33513641357422 48.08428192138672 106.5469970703125 53.526519775390625 C 100.28598022460938 55.3082389831543 98.54791259765625 55.784095764160156 100.18074035644531 46.885108947753906" stroke-width="1.5848214626312256" fill="none" stroke="rgb(86, 151, 248)" stroke-opacity="0.14076294" stroke-linecap="round" stroke-linejoin="round"/>
    <path d="M 132.79344177246094 41.71119689941406 C 126.89913940429688 46.14680099487305 128.60670471191406 40.79629135131836 138.20469665527344 33.182029724121094 C 133.05758666992188 26.68079948425293 126.8519287109375 20.11469268798828 132.87234497070312 28.62744903564453 C 140.9783477783203 21.091245651245117 147.3685760498047 22.986072540283203 154.6596221923828 18.512630462646484" stroke-width="1.5848214626312256" fill="none" stroke="rgb(255, 170, 53)" stroke-opacity="0.66742265" stroke-linecap="round" stroke-linejoin="round"/>
    <path d="M 66.11318969726562 69.78097534179688 C 73.67298126220703 65.0799789428711 81.08767700195312 68.10432434082031 87.77828979492188 63.12344741821289 C 85.06768035888672 62.35244369506836 79.9862060546875 57.980255126953125 79.0230712890625 65.2095718383789 C 85.02762603759766 60.28485107421875 87.56999969482422 67.20246124267578 89.8478012084961 60.58319854736328" stroke-width="1.5848214626312256" fill="none" stroke="rgb(190, 176, 218)" stroke-opacity="0.47903305" stroke-linecap="round" stroke-linejoin="round"/>
    <path d="M 147.60618591308594 49.90565490722656 C 153.02061462402344 45.09203338623047 154.81143188476562 47.86518859863281 151.6422576904297 41.35254669189453" stroke-width="1.5848214626312256" fill="none" stroke="rgb(76, 215, 145)" stroke-opacity="0.66651446" stroke-linecap="round" stroke-linejoin="round"/>
    <path d="M 66.1131820678711 68.98858642578125 C 70.96512603759766 74.60822296142578 63.55423355102539 74.47163391113281 66.38209533691406 71.8982162475586 C 61.817691802978516 78.7659683227539 67.09127044677734 71.65762329101562 63.90553283691406 63.25876998901367 C 57.378662109375 66.7306900024414 58.79218292236328 70.25538635253906 59.362579345703125 65.06704711914062" stroke-width="1.7433030605316162" fill="none" stroke="rgb(167, 8, 57)" stroke-opacity="0.42541662" stroke-linecap="round" stroke-linejoin="round"/>
    <path d="M 46.77240753173828 63.820735931396484 C 53.571922302246094 59.8912239074707 54.446781158447266 63.598365783691406 56.37788391113281 68.49673461914062 C 60.09231948852539 65.38037109375 51.5180549621582 68.70092010498047 53.457828521728516 74.6410140991211 C 46.55633544921875 66.60279846191406 48.21782684326172 59.46486282348633 47.84829330444336 57.190635681152344" stroke-width="1.7433034181594849" fill="none" stroke="rgb(136, 24, 33)" stroke-opacity="0.8915175" stroke-linecap="round" stroke-linejoin="round"/>
    <path d="M 156.9094696044922 84.75626373291016 C 157.8235321044922 84.03905487060547 151.29693603515625 88.49906921386719 156.4942169189453 89.23118591308594" stroke-width="1.5848214626312256" fill="none" stroke="rgb(113, 192, 179)" stroke-opacity="0.5897187" stroke-linecap="round" stroke-linejoin="round"/>
    <path d="M 40.57721710205078 142.40328979492188 C 43.851078033447266 142.90509033203125 43.623016357421875 146.61595153808594 47.55881881713867 154.2061309814453 C 52.569908142089844 158.17807006835938 44.93568420410156 157.9913330078125 40.92680740356445 151.5517120361328" stroke-width="1.5848214626312256" fill="none" stroke="rgb(229, 32, 239)" stroke-opacity="0.26104766" stroke-linecap="round" stroke-linejoin="round"/>
    <path d="M 9.307826042175293 161.97286987304688 C 4.038127422332764 157.34921264648438 9.701047897338867 150.6305389404297 5.969792366027832 143.7968292236328 C -1.1357699632644653 150.39527893066406 5.795990943908691 157.04116821289062 -1.3256797790527344 150.96798706054688 C -3.0071933269500732 148.9012908935547 -9.13895320892334 141.0697784423828 -9.496793746948242 143.68667602539062" stroke-width="1.7433027029037476" fill="none" stroke="rgb(156, 56, 227)" stroke-opacity="0.8437626" stroke-linecap="round" stroke-linejoin="round"/>
    <path d="M 48.061859130859375 139.2582244873047 C 54.69612121582031 140.01998901367188 60.9110107421875 142.7332305908203 53.32006072998047 134.67977905273438 C 61.34081268310547 135.83749389648438 60.39590072631836 127.57904052734375 65.69722747802734 132.3468780517578" stroke-width="1.5848214626312256" fill="none" stroke="rgb(65, 179, 233)" stroke-opacity="0.95997685" stroke-linecap="round" stroke-linejoin="round"/>
    <path d="M 143.89942932128906 166.8839111328125 C 150.17080688476562 171.03628540039062 151.88580322265625 172.61795043945312 155.15028381347656 174.61524963378906" stroke-width="1.7433007955551147" fill="none" stroke="rgb(91, 117, 72)" stroke-opacity="0.03284321" stroke-linecap="round" stroke-linejoin="round"/>
    <path d="M 78.06059265136719 162.5750274658203 C 70.3149185180664 155.4398193359375 67.36701202392578 156.3154296875 74.81248474121094 149.87672424316406 C 70.2145767211914 156.9840087890625 74.85726165771484 154.33340454101562 78.59058380126953 157.8013458251953 C 86.3462905883789 160.9770050048828 91.30972290039062 153.455078125 90.93441009521484 147.6228485107422" stroke-width="1.5848214626312256" fill="none" stroke="rgb(230, 86, 136)" stroke-opacity="0.025639612" stroke-linecap="round" stroke-linejoin="round"/>
    <path d="M 55.43231201171875 15.81716251373291 C 61.22315216064453 20.799924850463867 60.74053192138672 28.24325942993164 58.44089889526367 35.466243743896484 C 53.53794479370117 41.62066650390625 55.866188049316406 50.285335540771484 59.91832733154297 41.77482223510742 C 65.29643249511719 35.75204849243164 70.71070098876953 31.709138870239258 72.87300872802734 25.999610900878906" stroke-width="1.743298888206482" fill="none" stroke="rgb(242, 105, 239)" stroke-opacity="0.33313993" stroke-linecap="round" stroke-linejoin="round"/>
    <path d="M 118.51148223876953 35.24330139160156 C 114.8900375366211 41.879249572753906 110.8575668334961 48.31295394897461 111.97172546386719 44.71549606323242 C 117.14257049560547 35.86227798461914 111.2581558227539 37.59698486328125 115.46630859375 33.16440200805664 C 118.46327209472656 37.137149810791016 127.65068817138672 28.50889015197754 119.30480194091797 29.553115844726562" stroke-width="1.7433031797409058" fill="none" stroke="rgb(81, 25, 43)" stroke-opacity="0.562502" stroke-linecap="round" stroke-linejoin="round"/>
    <path d="M 173.62506103515625 160.7236785888672 C 182.48760986328125 155.91799926757812 175.09732055664062 161.3852996826172 166.99374389648438 168.45257568359375 C 172.53160095214844 168.41542053222656 178.5730743408203 165.5851593017578 169.86672973632812 158.3136444091797" stroke-width="1.7432782649993896" fill="none" stroke="rgb(62, 213, 160)" stroke-opacity="0.023141187" stroke-linecap="round" stroke-linejoin="round"/>
    <path d="M 78.67354583740234 157.89393615722656 C 75.08348083496094 167.38565063476562 71.75341033935547 172.758056640625 77.30058288574219 174.12265014648438 C 73.59367370605469 177.56597900390625 80.26272583007812 181.42430114746094 84.32906341552734 190.26785278320312" stroke-width="1.5848214626312256" fill="none" stroke="rgb(194, 208, 59)" stroke-opacity="0.40125334" stroke-linecap="round" stroke-linejoin="round"/>
    <path d="M 6.361210346221924 101.35688781738281 C 13.437300682067871 102.41961669921875 19.92335319519043 110.07917022705078 13.034214973449707 104.02617645263672" stroke-width="1.5848214626312256" fill="none" stroke="rgb(254, 167, 90)" stroke-opacity="0.40733024" stroke-linecap="round" stroke-linejoin="round"/>
    <path d="M 75.87989044189453 67.07725524902344 C 72.73387145996094 63.2366943359375 64.16912841796875 60.80479049682617 57.43108367919922 61.74619674682617 C 53.030601501464844 68.29438018798828 55.61980056762695 70.09227752685547 53.3555793762207 67.6040267944336" stroke-width="1.5848214626312256" fill="none" stroke="rgb(77, 147, 184)" stroke-opacity="0.20449007" stroke-linecap="round" stroke-linejoin="round"/>
    <path d="M 53.46144104003906 161.6558074951172 C 60.44691848754883 166.6869354248047 53.18576431274414 170.35848999023438 54.356937408447266 171.30621337890625" stroke-width="1.7433024644851685" fill="none" stroke="rgb(117, 0, 213)" stroke-opacity="0.06603463" stroke-linecap="round" stroke-linejoin="round"/>
    <path d="M 48.62002182006836 31.905298233032227 C 54.75212097167969 28.738739013671875 47.31103515625 35.84072494506836 51.341712951660156 31.94292640686035" stroke-width="1.7433009147644043" fill="none" stroke="rgb(228, 122, 65)" stroke-opacity="0.92138755" stroke-linecap="round" stroke-linejoin="round"/>
    <path d="M 30.949810028076172 110.36651611328125 C 37.00004196166992 119.98503875732422 38.955875396728516 111.44705963134766 43.156654357910156 108.70965576171875 C 40.9959831237793 103.02527618408203 37.689701080322266 97.88152313232422 36.15814208984375 98.61392974853516" stroke-width="1.5848214626312256" fill="none" stroke="rgb(104, 64, 12)" stroke-opacity="0.08662125" stroke-linecap="round" stroke-linejoin="round"/>
  </g>
</svg>
