<?xml version="1.0" ?>
<svg xmlns="http://www.w3.org/2000/svg" version="1.1" width="925.0" height="925.0">
  <defs/>
  <g>
    <path d="M 29.59090232849121 85.16331481933594 C 87.20269775390625 84.4626235961914 144.84927368164062 83.620361328125 202.4964599609375 82.7686996459961 C 260.11724853515625 81.91727447509766 208.01858520507812 74.81509399414062 155.96006774902344 67.70636749267578" stroke-width="4.789915084838867" fill="none" stroke="rgb(0, 0, 0)" stroke-opacity="1.0" stroke-linecap="round" stroke-linejoin="round"/>
    <path d="M 73.64723205566406 94.73258972167969 C 68.51061248779297 136.6832733154297 63.26308059692383 178.67953491210938 75.30028533935547 189.2316436767578 C 87.33628845214844 199.8123016357422 116.64425659179688 179.055908203125 145.94601440429688 158.2912139892578 C 175.20477294921875 137.51443481445312 165.2283935546875 132.0411834716797 155.41188049316406 126.54328155517578" stroke-width="4.57391357421875" fill="none" stroke="rgb(0, 0, 0)" stroke-opacity="1.0" stroke-linecap="round" stroke-linejoin="round"/>
    <path d="M 154.95372009277344 97.11917877197266 C 165.06613159179688 96.00888061523438 175.233642578125 94.91731262207031 177.36691284179688 99.47533416748047 C 179.38743591308594 104.07056427001953 173.28616333007812 114.35237121582031 167.36813354492188 124.5639877319336 C 161.33058166503906 134.78720092773438 161.2470703125 135.3450927734375 161.07196044921875 135.80577087402344" stroke-width="4.645888805389404" fill="none" stroke="rgb(0, 0, 0)" stroke-opacity="1.0" stroke-linecap="round" stroke-linejoin="round"/>
    <path d="M 93.20781707763672 112.33848571777344 C 89.2308120727539 123.40507507324219 85.08319854736328 134.32815551757812 80.9822006225586 145.3636016845703 C 76.914794921875 156.32127380371094 86.7870864868164 150.80369567871094 96.64813995361328 145.30841064453125" stroke-width="4.670017719268799" fill="none" stroke="rgb(0, 0, 0)" stroke-opacity="1.0" stroke-linecap="round" stroke-linejoin="round"/>
    <path d="M 78.35575103759766 108.82462310791016 C 86.50682830810547 109.0335464477539 78.63554382324219 111.1781234741211 88.95417022705078 109.89238739013672" stroke-width="4.864920616149902" fill="none" stroke="rgb(0, 0, 0)" stroke-opacity="1.0" stroke-linecap="round" stroke-linejoin="round"/>
    <path d="M 109.76852416992188 113.83423614501953 C 117.5060806274414 114.6386947631836 109.94261932373047 116.48554992675781 119.92787170410156 115.54446411132812" stroke-width="4.718052387237549" fill="none" stroke="rgb(0, 0, 0)" stroke-opacity="1.0" stroke-linecap="round" stroke-linejoin="round"/>
    <path d="M 85.38617706298828 160.18914794921875 C 105.70543670654297 163.0797119140625 108.29639434814453 160.3031463623047 109.33753204345703 159.43479919433594" stroke-width="4.704011917114258" fill="none" stroke="rgb(0, 0, 0)" stroke-opacity="1.0" stroke-linecap="round" stroke-linejoin="round"/>
    <path d="M 152.13818359375 130.11227416992188 C 152.41421508789062 135.8934783935547 152.629150390625 141.63914489746094 156.81092834472656 145.35537719726562 C 160.91648864746094 149.0429229736328 168.89309692382812 150.83229064941406 176.86940002441406 152.55941772460938 C 184.7987060546875 154.309326171875 171.9035186767578 150.9556884765625 158.95367431640625 147.58863830566406" stroke-width="2.0" fill="none" stroke="rgb(207, 200, 212)" stroke-opacity="0.8122704" stroke-linecap="round" stroke-linejoin="round"/>
    <path d="M 94.9762954711914 145.69993591308594 C 95.55912780761719 140.40394592285156 96.16678619384766 135.10499572753906 96.74703979492188 129.80126953125 C 97.3500747680664 124.51347351074219 95.57286834716797 116.27350616455078 93.90837097167969 108.03672790527344" stroke-width="2.448565721511841" fill="none" stroke="rgb(151, 204, 197)" stroke-opacity="0.75375694" stroke-linecap="round" stroke-linejoin="round"/>
    <path d="M 118.70783233642578 115.6208724975586 C 119.19197845458984 107.77252197265625 119.67281341552734 99.97405242919922 120.1379165649414 92.1412124633789 C 120.60567474365234 84.3309326171875 125.8546371459961 82.92498016357422 131.13951110839844 81.72703552246094" stroke-width="2.0" fill="none" stroke="rgb(156, 118, 29)" stroke-opacity="0.22822154" stroke-linecap="round" stroke-linejoin="round"/>
    <path d="M 107.94944763183594 156.4466552734375 C 114.4917221069336 157.227783203125 121.02682495117188 157.97315979003906 127.6356430053711 158.77749633789062 C 134.1049041748047 159.43690490722656 122.3371810913086 161.1476593017578 110.57083129882812 162.80921936035156" stroke-width="2.0" fill="none" stroke="rgb(87, 247, 204)" stroke-opacity="0.5467841" stroke-linecap="round" stroke-linejoin="round"/>
    <path d="M 78.27168273925781 108.30624389648438 C 77.97686004638672 110.21163177490234 77.78206634521484 112.1051254272461 79.16465759277344 118.16722106933594 C 80.56745147705078 124.19046020507812 83.65757751464844 134.4187774658203 86.5700454711914 144.6705322265625 C 89.55162811279297 154.88861083984375 88.03797912597656 158.4416046142578 86.53509521484375 162.0028533935547" stroke-width="2.924259662628174" fill="none" stroke="rgb(10, 253, 67)" stroke-opacity="0.39562604" stroke-linecap="round" stroke-linejoin="round"/>
    <path d="M 158.54383850097656 136.5585479736328 C 166.73800659179688 134.80006408691406 174.9069366455078 133.0408172607422 181.20166015625 132.72628784179688 C 187.4669647216797 132.3582763671875 191.8738555908203 133.48117065429688 196.24435424804688 134.55967712402344 C 200.58457946777344 135.62371826171875 192.28128051757812 144.61402893066406 183.97085571289062 153.57054138183594" stroke-width="2.286724328994751" fill="none" stroke="rgb(123, 0, 2)" stroke-opacity="0.17702392" stroke-linecap="round" stroke-linejoin="round"/>
    <path d="M 108.81484985351562 160.24093627929688 C 109.72871398925781 167.44717407226562 110.6922836303711 174.65834045410156 111.56168365478516 181.86715698242188 C 112.52294921875 189.08798217773438 118.76083374023438 176.80897521972656 125.06442260742188 164.43902587890625" stroke-width="2.5163521766662598" fill="none" stroke="rgb(80, 49, 250)" stroke-opacity="0.5706487" stroke-linecap="round" stroke-linejoin="round"/>
    <path d="M 128.3831024169922 81.1516342163086 C 141.4444122314453 80.31488037109375 146.58602905273438 83.39421844482422 150.48912048339844 97.5743179321289" stroke-width="2.707270622253418" fill="none" stroke="rgb(212, 73, 150)" stroke-opacity="0.14983921" stroke-linecap="round" stroke-linejoin="round"/>
    <path d="M 153.60972595214844 145.45654296875 C 147.97569274902344 152.36058044433594 143.86280822753906 154.90016174316406 147.97357177734375 158.40185546875" stroke-width="2.0" fill="none" stroke="rgb(46, 109, 6)" stroke-opacity="0.24476212" stroke-linecap="round" stroke-linejoin="round"/>
    <path d="M 111.37678527832031 161.72201538085938 C 116.1741714477539 160.83819580078125 120.95952606201172 160.08355712890625 125.78974914550781 159.2682342529297 C 130.618408203125 158.46473693847656 121.96377563476562 158.88763427734375 113.27161407470703 159.3120574951172" stroke-width="2.0" fill="none" stroke="rgb(120, 220, 159)" stroke-opacity="0.843317" stroke-linecap="round" stroke-linejoin="round"/>
    <path d="M 110.3044204711914 162.3105926513672 C 108.6924819946289 163.73411560058594 107.17070007324219 165.27386474609375 105.60594177246094 166.75865173339844 C 104.06024169921875 168.23226928710938 108.78658294677734 151.77096557617188 113.51559448242188 135.31166076660156" stroke-width="2.2481374740600586" fill="none" stroke="rgb(147, 125, 146)" stroke-opacity="0.22297065" stroke-linecap="round" stroke-linejoin="round"/>
    <path d="M 109.72342681884766 161.4976806640625 C 109.01296997070312 158.39100646972656 108.22692108154297 155.25897216796875 106.72823333740234 155.3605499267578 C 105.1778793334961 155.4398956298828 102.70831298828125 158.7125701904297 100.23677825927734 162.0399169921875 C 97.79557800292969 165.37062072753906 107.33859252929688 164.31655883789062 116.91220092773438 163.25860595703125" stroke-width="2.0" fill="none" stroke="rgb(6, 46, 42)" stroke-opacity="0.03399209" stroke-linecap="round" stroke-linejoin="round"/>
    <path d="M 161.14524841308594 83.14421844482422 C 164.98890686035156 87.98715209960938 168.70840454101562 92.94526672363281 166.52403259277344 97.10942077636719 C 164.2948760986328 101.21685028076172 156.00985717773438 104.75341796875 147.85983276367188 108.22071838378906 C 139.62384033203125 111.71269226074219 147.558349609375 115.35313415527344 155.49896240234375 119.00403594970703" stroke-width="2.0" fill="none" stroke="rgb(40, 152, 50)" stroke-opacity="0.19443892" stroke-linecap="round" stroke-linejoin="round"/>
    <path d="M 71.23043823242188 178.43466186523438 C 66.4910659790039 184.7050018310547 61.75566101074219 190.98681640625 60.886226654052734 194.0817108154297 C 60.03458023071289 197.08876037597656 63.08677291870117 196.9151153564453 66.08917236328125 196.7156524658203 C 69.11295318603516 196.62237548828125 80.3314208984375 208.9323272705078 91.55796813964844 221.27816772460938" stroke-width="2.0" fill="none" stroke="rgb(0, 154, 202)" stroke-opacity="0.29544935" stroke-linecap="round" stroke-linejoin="round"/>
    <path d="M 39.00925064086914 37.31148147583008 C 40.106197357177734 36.211944580078125 41.17986297607422 35.13330841064453 36.951778411865234 36.44580078125 C 32.6773681640625 37.78376770019531 23.34581184387207 41.51077651977539 13.851099014282227 45.200496673583984 C 4.3094611167907715 48.978580474853516 7.208512783050537 39.1518440246582 10.103790283203125 29.326780319213867" stroke-width="2.0" fill="none" stroke="rgb(6, 180, 55)" stroke-opacity="0.8436216" stroke-linecap="round" stroke-linejoin="round"/>
    <path d="M 97.17119598388672 54.17566680908203 C 92.1947021484375 48.82883834838867 87.2240982055664 43.46321105957031 82.21544647216797 41.4749641418457 C 77.1504898071289 39.50445556640625 72.17003631591797 40.730743408203125 67.13004302978516 42.02500534057617 C 62.09477996826172 43.3089485168457 56.768798828125 47.342247009277344 51.58584213256836 51.40282440185547" stroke-width="2.0" fill="none" stroke="rgb(246, 140, 71)" stroke-opacity="0.42097104" stroke-linecap="round" stroke-linejoin="round"/>
    <path d="M 147.58741760253906 69.54734802246094 C 149.5577392578125 75.74830627441406 151.54342651367188 81.95278930664062 153.50062561035156 88.21306610107422 C 155.4744110107422 94.31080627441406 155.50709533691406 89.01545715332031 155.60044860839844 83.68867492675781" stroke-width="2.0" fill="none" stroke="rgb(249, 65, 128)" stroke-opacity="0.0" stroke-linecap="round" stroke-linejoin="round"/>
    <path d="M 36.20353317260742 118.1105728149414 C 49.5053825378418 120.64794921875 51.625980377197266 126.29911041259766 56.8369026184082 125.34615325927734" stroke-width="2.0" fill="none" stroke="rgb(128, 53, 69)" stroke-opacity="0.28562182" stroke-linecap="round" stroke-linejoin="round"/>
    <path d="M 90.49288177490234 148.97415161132812 C 94.23667907714844 145.58041381835938 98.00547790527344 142.26251220703125 101.73443603515625 138.93482971191406 C 105.5592269897461 135.56729125976562 107.26152038574219 130.369873046875 108.99946594238281 125.1430892944336" stroke-width="3.298550605773926" fill="none" stroke="rgb(101, 23, 187)" stroke-opacity="0.8965683" stroke-linecap="round" stroke-linejoin="round"/>
    <path d="M 8.197399139404297 101.35081481933594 C 8.542960166931152 110.63697814941406 13.363354682922363 123.62891387939453 8.369921684265137 122.5904769897461" stroke-width="2.68261456489563" fill="none" stroke="rgb(37, 4, 32)" stroke-opacity="0.1259802" stroke-linecap="round" stroke-linejoin="round"/>
    <path d="M 174.56185913085938 46.34645080566406 C 170.23497009277344 42.64951705932617 165.8699188232422 38.98566436767578 165.6044464111328 40.41907501220703 C 165.27859497070312 41.89013671875 169.0737762451172 48.537601470947266 172.83741760253906 55.12903594970703 C 176.65042114257812 61.81528854370117 183.82305908203125 62.850677490234375 191.01683044433594 63.9338493347168" stroke-width="2.0" fill="none" stroke="rgb(0, 144, 58)" stroke-opacity="0.099801496" stroke-linecap="round" stroke-linejoin="round"/>
    <path d="M 45.299800872802734 157.4344940185547 C 52.69354248046875 158.84945678710938 59.94574737548828 160.19500732421875 67.39479064941406 161.57943725585938 C 74.74946594238281 162.989990234375 74.78529357910156 159.5452117919922 74.83321380615234 155.9764404296875" stroke-width="2.0" fill="none" stroke="rgb(50, 212, 50)" stroke-opacity="0.84896034" stroke-linecap="round" stroke-linejoin="round"/>
    <path d="M 123.2691650390625 186.3611602783203 C 125.3173599243164 182.9275360107422 127.31802368164062 179.57046508789062 129.3177032470703 176.0670928955078 C 131.3128204345703 172.626708984375 131.55116271972656 177.17323303222656 131.72467041015625 181.67831420898438" stroke-width="3.1568870544433594" fill="none" stroke="rgb(54, 211, 100)" stroke-opacity="0.60703516" stroke-linecap="round" stroke-linejoin="round"/>
    <path d="M -2.1041085720062256 189.87266540527344 C 1.7106468677520752 188.84715270996094 5.519768714904785 187.8847198486328 9.368906021118164 186.88327026367188 C 13.23188591003418 185.8783416748047 8.530158042907715 179.66201782226562 3.9273014068603516 173.72547912597656" stroke-width="2.0" fill="none" stroke="rgb(70, 74, 194)" stroke-opacity="0.8004342" stroke-linecap="round" stroke-linejoin="round"/>
    <path d="M 120.79630279541016 218.68014526367188 C 119.5367202758789 230.9764862060547 118.25727844238281 243.3287353515625 119.4233169555664 249.24676513671875 C 120.59712219238281 255.17184448242188 124.23040008544922 254.6768035888672 127.86367797851562 254.1817626953125 C 131.4969482421875 253.68670654296875 123.57183837890625 258.2563171386719 115.64447784423828 262.8258972167969" stroke-width="2.698967933654785" fill="none" stroke="rgb(106, 74, 208)" stroke-opacity="0.21440078" stroke-linecap="round" stroke-linejoin="round"/>
    <path d="M 40.88591003417969 175.10958862304688 C 6.452061176300049 171.9247283935547 -12.60605525970459 178.41433715820312 -9.663106918334961 193.35533142089844 C -1.7675447463989258 222.66831970214844 -1.2017534971237183 209.53616333007812 3.842125415802002 176.90554809570312" stroke-width="2.5188777446746826" fill="none" stroke="rgb(43, 0, 0)" stroke-opacity="1.0" stroke-linecap="round" stroke-linejoin="round"/>
    <path d="M 97.71155548095703 159.74937438964844 C 121.77779388427734 161.4396514892578 107.76848602294922 184.97940063476562 109.65086364746094 141.1555633544922 C 85.45938110351562 140.09706115722656 87.8224868774414 140.7628173828125 86.57554626464844 163.6242218017578 C 85.31623840332031 165.8265838623047 92.62652587890625 124.58090209960938 74.64179992675781 162.02891540527344" stroke-width="5.765439987182617" fill="none" stroke="rgb(180, 0, 0)" stroke-opacity="1.0" stroke-linecap="round" stroke-linejoin="round"/>
    <path d="M 150.04342651367188 92.13053131103516 C 143.08387756347656 124.16657257080078 138.63514709472656 164.79534912109375 139.6909942626953 162.56398010253906 C 161.93215942382812 134.72427368164062 150.31446838378906 98.27360534667969 161.64305114746094 97.08253479003906" stroke-width="18.063846588134766" fill="none" stroke="rgb(155, 8, 25)" stroke-opacity="0.99011236" stroke-linecap="round" stroke-linejoin="round"/>
    <path d="M 164.72140502929688 95.5143814086914 C 140.88417053222656 79.79685974121094 149.2397918701172 93.97178649902344 146.20965576171875 83.59454345703125 C 148.3014678955078 91.90707397460938 152.24063110351562 87.13993072509766 144.26832580566406 85.07727813720703 C 152.00466918945312 83.70571899414062 169.54501342773438 78.72176361083984 158.79205322265625 112.49321746826172" stroke-width="4.486481189727783" fill="none" stroke="rgb(255, 51, 73)" stroke-opacity="1.0" stroke-linecap="round" stroke-linejoin="round"/>
    <path d="M 32.91132354736328 40.91864013671875 C 60.383094787597656 18.711517333984375 60.300750732421875 27.803525924682617 54.34120178222656 22.807401657104492 C 56.751747131347656 43.638919830322266 79.4939193725586 30.624723434448242 31.506879806518555 38.93944549560547 C 28.038408279418945 31.577184677124023 26.037017822265625 17.42612648010254 9.687280654907227 16.34039306640625" stroke-width="2.3980653285980225" fill="none" stroke="rgb(172, 27, 35)" stroke-opacity="0.9247767" stroke-linecap="round" stroke-linejoin="round"/>
    <path d="M 81.22184753417969 107.61265563964844 C 69.1341552734375 123.84912872314453 93.74922943115234 123.19879150390625 93.72635650634766 104.60803985595703 C 88.40706634521484 103.11624908447266 102.85014343261719 118.72720336914062 94.44071197509766 110.76892852783203 C 124.55223083496094 110.41858673095703 129.04641723632812 94.10128784179688 121.86762237548828 136.10536193847656" stroke-width="8.3773775100708" fill="none" stroke="rgb(224, 11, 6)" stroke-opacity="0.9992539" stroke-linecap="round" stroke-linejoin="round"/>
    <path d="M 99.95885467529297 132.49786376953125 C 110.46668243408203 132.00331115722656 104.29422760009766 113.11763763427734 118.4168472290039 117.33425903320312" stroke-width="3.27262282371521" fill="none" stroke="rgb(46, 2, 0)" stroke-opacity="0.98167306" stroke-linecap="round" stroke-linejoin="round"/>
    <path d="M -6.439510822296143 177.97323608398438 C 3.4430665969848633 164.20204162597656 11.932418823242188 194.45848083496094 -0.8232733011245728 158.51065063476562" stroke-width="4.155082702636719" fill="none" stroke="rgb(10, 32, 112)" stroke-opacity="0.94433194" stroke-linecap="round" stroke-linejoin="round"/>
    <path d="M 50.25022888183594 10.547076225280762 C 10.156412124633789 20.424503326416016 -14.811177253723145 17.447668075561523 19.895536422729492 5.034393787384033 C 26.003555297851562 8.874177932739258 14.195819854736328 5.2130913734436035 21.104806900024414 5.085606575012207 C 20.261125564575195 -2.764134407043457 9.652969360351562 3.0121090412139893 43.951026916503906 -1.47230863571167" stroke-width="17.823286056518555" fill="none" stroke="rgb(196, 5, 26)" stroke-opacity="0.8310059" stroke-linecap="round" stroke-linejoin="round"/>
    <path d="M 43.852210998535156 6.471860408782959 C 60.14908981323242 4.878533840179443 46.27385711669922 7.504260063171387 65.73261260986328 58.68352508544922" stroke-width="2.4634947776794434" fill="none" stroke="rgb(138, 60, 42)" stroke-opacity="1.0" stroke-linecap="round" stroke-linejoin="round"/>
    <path d="M 102.34207916259766 121.97095489501953 C 122.23802947998047 140.68408203125 97.2052001953125 141.5159149169922 83.4527359008789 139.06285095214844 C 91.86141967773438 143.78036499023438 99.05280303955078 138.79641723632812 100.17610168457031 154.00486755371094" stroke-width="6.594066619873047" fill="none" stroke="rgb(207, 5, 0)" stroke-opacity="1.0" stroke-linecap="round" stroke-linejoin="round"/>
    <path d="M 177.41050720214844 90.21450805664062 C 163.55580139160156 84.6272964477539 164.22914123535156 82.70281219482422 167.53250122070312 96.04146575927734" stroke-width="2.0" fill="none" stroke="rgb(129, 86, 83)" stroke-opacity="0.8061701" stroke-linecap="round" stroke-linejoin="round"/>
    <path d="M 57.42860794067383 161.59584045410156 C 49.338321685791016 155.91732788085938 39.224220275878906 154.61407470703125 59.216163635253906 147.05419921875 C 73.51724243164062 164.17002868652344 52.46261978149414 162.3476104736328 58.58841323852539 165.21022033691406 C 59.17167663574219 157.78614807128906 49.97734451293945 158.94235229492188 62.577308654785156 175.19085693359375" stroke-width="4.3698272705078125" fill="none" stroke="rgb(44, 255, 210)" stroke-opacity="0.33658728" stroke-linecap="round" stroke-linejoin="round"/>
    <path d="M 182.09841918945312 58.8206787109375 C 153.6678924560547 33.21490478515625 142.92523193359375 25.489999771118164 155.2250213623047 57.27244567871094" stroke-width="8.641995429992676" fill="none" stroke="rgb(130, 76, 43)" stroke-opacity="0.660658" stroke-linecap="round" stroke-linejoin="round"/>
    <path d="M 26.92902946472168 156.74964904785156 C -26.648296356201172 160.887939453125 -28.99051284790039 166.59402465820312 -15.82783031463623 161.2761993408203 C -7.2049689292907715 172.6711883544922 -11.861420631408691 177.32351684570312 -19.98282241821289 183.81666564941406" stroke-width="18.532432556152344" fill="none" stroke="rgb(3, 32, 151)" stroke-opacity="0.7754632" stroke-linecap="round" stroke-linejoin="round"/>
    <path d="M 109.00515747070312 202.3133087158203 C 128.3972625732422 187.28431701660156 113.73494720458984 201.60284423828125 124.07756042480469 200.3740692138672 C 147.4558563232422 183.21498107910156 139.4930877685547 195.0188446044922 156.16888427734375 203.22918701171875" stroke-width="2.0" fill="none" stroke="rgb(130, 113, 255)" stroke-opacity="0.90472066" stroke-linecap="round" stroke-linejoin="round"/>
    <path d="M 205.30926513671875 -0.6323031187057495 C 195.4085235595703 13.97635555267334 193.6807403564453 33.265445709228516 196.56712341308594 34.34477996826172" stroke-width="3.926478147506714" fill="none" stroke="rgb(247, 87, 1)" stroke-opacity="0.23554052" stroke-linecap="round" stroke-linejoin="round"/>
    <path d="M 98.89080047607422 128.2440643310547 C 109.84188842773438 125.10375213623047 91.19530487060547 135.49520874023438 83.41240692138672 144.92320251464844 C 91.9142837524414 148.0301971435547 97.55367279052734 145.76849365234375 121.72592163085938 144.79415893554688" stroke-width="5.962292194366455" fill="none" stroke="rgb(54, 0, 0)" stroke-opacity="1.0" stroke-linecap="round" stroke-linejoin="round"/>
    <path d="M 164.6328887939453 5.431519985198975 C 161.02142333984375 20.45458984375 168.16641235351562 11.768454551696777 169.38690185546875 5.078391075134277 C 163.6951141357422 8.686354637145996 146.73379516601562 11.88054370880127 119.0167007446289 29.12453842163086" stroke-width="9.123332023620605" fill="none" stroke="rgb(24, 22, 124)" stroke-opacity="0.8206109" stroke-linecap="round" stroke-linejoin="round"/>
    <path d="M 32.115562438964844 150.59429931640625 C 17.271181106567383 146.045166015625 -5.544838905334473 143.6519012451172 2.8666605949401855 164.32803344726562 C 40.794681549072266 149.046875 31.372621536254883 149.31036376953125 39.37492370605469 198.8035125732422" stroke-width="2.210207223892212" fill="none" stroke="rgb(36, 29, 158)" stroke-opacity="1.0" stroke-linecap="round" stroke-linejoin="round"/>
    <path d="M 117.61029815673828 114.697509765625 C 113.87052154541016 139.7277374267578 117.36546325683594 143.41421508789062 112.43498992919922 133.13247680664062 C 120.40283966064453 127.89945220947266 118.62971496582031 136.13587951660156 97.75225830078125 134.0130615234375 C 76.39286804199219 135.08676147460938 78.0289535522461 123.35238647460938 95.96420288085938 128.4313201904297" stroke-width="8.434793472290039" fill="none" stroke="rgb(246, 17, 8)" stroke-opacity="0.9968365" stroke-linecap="round" stroke-linejoin="round"/>
    <path d="M 11.143097877502441 7.252713680267334 C 6.091236591339111 7.979944229125977 14.854509353637695 12.28465461730957 22.971677780151367 12.52348518371582 C 14.93883228302002 2.6600255966186523 23.68330192565918 -19.088287353515625 27.103290557861328 -33.917724609375" stroke-width="2.092214822769165" fill="none" stroke="rgb(255, 141, 140)" stroke-opacity="0.74130505" stroke-linecap="round" stroke-linejoin="round"/>
    <path d="M 5.607854843139648 116.78691101074219 C 7.668267726898193 129.18234252929688 14.46169662475586 107.90245056152344 12.89515209197998 114.8960189819336" stroke-width="7.058681964874268" fill="none" stroke="rgb(23, 246, 137)" stroke-opacity="0.69162434" stroke-linecap="round" stroke-linejoin="round"/>
    <path d="M 110.29570770263672 125.46673583984375 C 77.91149139404297 135.2184295654297 76.97156524658203 122.92977142333984 83.55753326416016 118.28279113769531 C 66.84175872802734 148.87686157226562 75.63997650146484 142.5459747314453 75.3534164428711 104.15445709228516" stroke-width="3.413670539855957" fill="none" stroke="rgb(255, 166, 153)" stroke-opacity="0.94638526" stroke-linecap="round" stroke-linejoin="round"/>
    <path d="M 102.34600067138672 189.9501953125 C 116.89549255371094 180.84165954589844 130.04502868652344 180.0821075439453 103.51084899902344 191.29141235351562 C 90.99618530273438 188.73228454589844 113.5369644165039 188.18911743164062 118.32213592529297 192.3645782470703 C 89.8942642211914 186.6342010498047 79.14384460449219 202.73629760742188 92.05532836914062 158.2947998046875" stroke-width="5.7961859703063965" fill="none" stroke="rgb(255, 239, 236)" stroke-opacity="0.43680596" stroke-linecap="round" stroke-linejoin="round"/>
  </g>
</svg>
