<?xml version="1.0" ?>
<svg xmlns="http://www.w3.org/2000/svg" version="1.1" width="956.0" height="956.0">
  <defs/>
  <g>
    <path d="M 43.67136764526367 60.42988204956055 C 44.0336799621582 60.66555404663086 44.39717483520508 61.444061279296875 43.67145919799805 61.74043273925781 C 43.48911666870117 62.03677749633789 42.76319122314453 61.85009002685547 42.5826301574707 62.872459411621094 C 42.40084457397461 64.43939208984375 42.764400482177734 66.67079162597656 43.12674331665039 68.90097045898438 C 44.034934997558594 71.13226318359375 43.58110046386719 82.13301086425781 42.582618713378906 93.13506317138672" stroke-width="1.0892857313156128" fill="none" stroke="rgb(20, 20, 25)" stroke-opacity="0.71" stroke-linecap="round" stroke-linejoin="round"/>
    <path d="M 74.64716339111328 57.91242980957031 C 74.85533142089844 58.027069091796875 75.06394958496094 58.1417121887207 75.1541976928711 59.077476501464844 C 75.78909301757812 59.470420837402344 75.76225280761719 61.76272201538086 75.73542785644531 63.52672576904297 C 75.70858001708984 65.28355407714844 75.44994354248047 73.4197769165039 74.64667510986328 81.55480194091797" stroke-width="1.0892857313156128" fill="none" stroke="rgb(30, 20, 20)" stroke-opacity="0.7099998" stroke-linecap="round" stroke-linejoin="round"/>
    <path d="M 56.17758560180664 68.28365325927734 C 56.17751693725586 67.94790649414062 56.177581787109375 67.88446807861328 56.177589416503906 68.59938049316406 C 55.632972717285156 69.31430053710938 55.63296890258789 70.80636596679688 56.17755126953125 72.29964447021484 C 56.1776008605957 73.79292297363281 56.1776008605957 81.49356079101562 55.63296127319336 88.92321014404297" stroke-width="1.0892857313156128" fill="none" stroke="rgb(20, 20, 30)" stroke-opacity="0.71" stroke-linecap="round" stroke-linejoin="round"/>
    <path d="M 43.671363830566406 63.14453125 C 44.060245513916016 63.14578628540039 44.43449020385742 63.147151947021484 44.35285949707031 63.14817428588867 C 44.76154708862305 63.14938735961914 47.93843078613281 60.89726257324219 51.65993118286133 58.64515686035156" stroke-width="1.161392331123352" fill="none" stroke="rgb(181, 63, 0)" stroke-opacity="0.71" stroke-linecap="round" stroke-linejoin="round"/>
    <path d="M 43.6713752746582 60.43049240112305 C 44.08854675292969 61.34525680541992 44.505760192871094 62.80447006225586 44.924320220947266 64.26325988769531 C 44.79692840576172 66.26699829101562 49.170631408691406 68.91561126708984 54.08772277832031 71.01960754394531" stroke-width="1.0892857313156128" fill="none" stroke="rgb(70, 85, 255)" stroke-opacity="0.69" stroke-linecap="round" stroke-linejoin="round"/>
    <path d="M 75.19218444824219 58.25963592529297 C 79.62062072753906 60.85687255859375 81.39692687988281 65.37466430664062 77.06400299072266 67.45598602294922" stroke-width="1.0892857313156128" fill="none" stroke="rgb(179, 56, 252)" stroke-opacity="0.69" stroke-linecap="round" stroke-linejoin="round"/>
    <path d="M 75.19129180908203 64.0708999633789 C 73.76339721679688 65.81268310546875 72.88014221191406 68.09901428222656 72.54146575927734 70.92982482910156 C 71.11355590820312 72.6714859008789 66.71424102783203 73.41323852539062 62.3161506652832 74.15621948242188" stroke-width="1.0892857313156128" fill="none" stroke="rgb(24, 129, 215)" stroke-opacity="0.69000006" stroke-linecap="round" stroke-linejoin="round"/>
    <path d="M 56.17734909057617 69.14375305175781 C 52.673702239990234 67.12342834472656 50.5434684753418 70.45523834228516 50.6639404296875 71.70890045166016" stroke-width="1.0892857313156128" fill="none" stroke="rgb(57, 2, 126)" stroke-opacity="0.69" stroke-linecap="round" stroke-linejoin="round"/>
    <path d="M 43.12674331665039 68.08799743652344 C 41.53708267211914 71.49295806884766 39.948646545410156 74.89799499511719 38.903621673583984 78.8464126586914 C 37.313907623291016 81.70682525634766 32.844608306884766 78.51207733154297 28.91864013671875 74.77278900146484" stroke-width="1.0892857313156128" fill="none" stroke="rgb(253, 54, 192)" stroke-opacity="0.69" stroke-linecap="round" stroke-linejoin="round"/>
    <path d="M 75.73664093017578 57.91195297241211 C 77.16131591796875 63.44342041015625 81.40592193603516 62.36859893798828 83.12007141113281 62.24342727661133" stroke-width="1.0892857313156128" fill="none" stroke="rgb(165, 236, 53)" stroke-opacity="0.69" stroke-linecap="round" stroke-linejoin="round"/>
    <path d="M 56.177589416503906 68.28365325927734 C 56.16416931152344 66.87470245361328 56.14946746826172 65.46727752685547 57.25239181518555 65.54305267333984 C 57.8106803894043 66.7073974609375 60.03106689453125 69.35359954833984 62.796104431152344 71.45513916015625 C 65.01649475097656 74.10133361816406 64.86762237548828 74.07819366455078 64.17549896240234 74.05398559570312" stroke-width="1.0892857313156128" fill="none" stroke="rgb(21, 44, 19)" stroke-opacity="0.69" stroke-linecap="round" stroke-linejoin="round"/>
    <path d="M 52.9990119934082 72.10944366455078 C 48.90383529663086 65.14656066894531 44.26551055908203 58.728111267089844 41.744998931884766 59.73145294189453 C 38.68107986450195 60.18893814086914 38.28093338012695 66.97905731201172 38.42537307739258 74.85700225830078 C 38.025211334228516 82.1903305053711 32.254608154296875 72.84231567382812 25.940622329711914 64.03755187988281" stroke-width="1.0892857313156128" fill="none" stroke="rgb(226, 109, 215)" stroke-opacity="0.71" stroke-linecap="round" stroke-linejoin="round"/>
    <path d="M 64.1759262084961 74.59910583496094 C 64.6688003540039 79.3144302368164 65.16285705566406 84.03340148925781 65.20437622070312 86.05744934082031 C 64.7012939453125 88.08544921875 64.29137420654297 87.97054290771484 64.42601013183594 87.3119888305664 C 64.01609802246094 86.6531982421875 60.029136657714844 89.22251892089844 55.4975471496582 91.79305267333984" stroke-width="1.0892857313156128" fill="none" stroke="rgb(19, 212, 167)" stroke-opacity="0.69000006" stroke-linecap="round" stroke-linejoin="round"/>
    <path d="M 82.57473754882812 62.24295425415039 C 85.09159851074219 57.927059173583984 84.35669708251953 59.123878479003906 83.67222595214844 54.541072845458984" stroke-width="1.0892857313156128" fill="none" stroke="rgb(221, 9, 11)" stroke-opacity="0.7099999" stroke-linecap="round" stroke-linejoin="round"/>
    <path d="M 54.08894729614258 72.10955810546875 C 52.605411529541016 74.15914154052734 50.57729721069336 75.66295623779297 49.093772888183594 77.7125244140625 C 47.610252380371094 79.76211547851562 44.36748504638672 80.37091064453125 41.66936111450195 80.98092651367188" stroke-width="1.0892857313156128" fill="none" stroke="rgb(67, 134, 123)" stroke-opacity="0.69" stroke-linecap="round" stroke-linejoin="round"/>
    <path d="M 54.08891296386719 71.01962280273438 C 55.018455505371094 71.90180206298828 55.40374755859375 73.3282241821289 56.87763595581055 73.66590118408203 C 57.80747985839844 74.54786682128906 51.68878936767578 71.23326110839844 45.02751159667969 68.46178436279297" stroke-width="1.1613876819610596" fill="none" stroke="rgb(149, 105, 141)" stroke-opacity="0.7099999" stroke-linecap="round" stroke-linejoin="round"/>
    <path d="M 64.17549133300781 74.59907531738281 C 59.727691650390625 75.01435089111328 55.277984619140625 74.88507843017578 50.82862854003906 74.7557601928711 C 46.92376708984375 74.08184051513672 46.45899963378906 73.92076110839844 45.44841003417969 73.75971984863281" stroke-width="1.1613926887512207" fill="none" stroke="rgb(14, 48, 66)" stroke-opacity="0.71" stroke-linecap="round" stroke-linejoin="round"/>
    <path d="M 50.572425842285156 58.64519119262695 C 50.37004470825195 60.765380859375 50.70769500732422 63.42081832885742 50.380149841308594 62.822444915771484 C 50.04830551147461 62.76267623901367 49.041664123535156 60.52667999267578 48.57892608642578 58.83347702026367 C 48.116641998291016 56.05223846435547 52.065704345703125 64.00508117675781 56.01482391357422 71.41417694091797" stroke-width="1.0892857313156128" fill="none" stroke="rgb(124, 120, 228)" stroke-opacity="0.6900002" stroke-linecap="round" stroke-linejoin="round"/>
    <path d="M 64.72074127197266 74.05377197265625 C 65.07698059082031 71.19896697998047 65.4344482421875 68.34419250488281 64.83946990966797 67.92327117919922 C 64.78833770751953 68.04815673828125 63.24138259887695 70.06239318847656 61.151023864746094 71.53321838378906 C 59.60408401489258 73.54743957519531 59.32637405395508 72.3835678100586 58.50411605834961 71.21846771240234" stroke-width="1.1613926887512207" fill="none" stroke="rgb(107, 76, 241)" stroke-opacity="0.71" stroke-linecap="round" stroke-linejoin="round"/>
    <path d="M 13.293381690979004 108.91575622558594 C 12.860980987548828 110.26014709472656 12.974442481994629 111.6046142578125 13.071298599243164 111.66320037841797 C 12.623598098754883 111.17713165283203 11.617100715637207 109.9485855102539 10.064741134643555 109.26467895507812 C 9.057021141052246 107.49150085449219 7.805303573608398 108.53581237792969 6.552360534667969 110.1247787475586" stroke-width="1.0892857313156128" fill="none" stroke="rgb(188, 236, 214)" stroke-opacity="0.70999974" stroke-linecap="round" stroke-linejoin="round"/>
    <path d="M 52.97264862060547 34.9617805480957 C 51.53915786743164 29.481054306030273 50.105655670166016 24.546175003051758 48.126304626464844 20.15463638305664 C 47.2374153137207 14.673906326293945 44.61809539794922 18.183116912841797 41.99874496459961 21.14650535583496" stroke-width="1.0892857313156128" fill="none" stroke="rgb(72, 44, 97)" stroke-opacity="0.69000024" stroke-linecap="round" stroke-linejoin="round"/>
    <path d="M 44.544898986816406 10.137943267822266 C 42.672916412353516 9.079456329345703 41.346771240234375 7.477431297302246 43.032073974609375 7.474684238433838 C 43.629512786865234 8.560669898986816 47.2381591796875 11.246208190917969 51.39270782470703 13.386822700500488 C 54.458133697509766 16.616653442382812 47.147918701171875 15.462535858154297 39.837623596191406 13.763786315917969" stroke-width="1.161392331123352" fill="none" stroke="rgb(80, 247, 110)" stroke-opacity="0.7099999" stroke-linecap="round" stroke-linejoin="round"/>
    <path d="M 51.95222854614258 100.61122131347656 C 57.48053741455078 100.78150177001953 51.82218933105469 99.17964935302734 51.528987884521484 99.35289764404297" stroke-width="1.1613924503326416" fill="none" stroke="rgb(36, 79, 40)" stroke-opacity="0.71" stroke-linecap="round" stroke-linejoin="round"/>
    <path d="M 32.6103515625 20.79104232788086 C 32.99839782714844 22.413822174072266 33.38728332519531 23.48975944519043 34.317596435546875 24.027786254882812 C 34.7055549621582 25.10628318786621 34.93975830078125 26.21663475036621 35.174041748046875 27.325450897216797" stroke-width="1.0892857313156128" fill="none" stroke="rgb(124, 172, 102)" stroke-opacity="0.70999986" stroke-linecap="round" stroke-linejoin="round"/>
    <path d="M 15.446673393249512 84.88978576660156 C 17.8244571685791 79.5622329711914 15.943218231201172 75.61658477783203 13.930213928222656 70.23564147949219" stroke-width="1.0892857313156128" fill="none" stroke="rgb(81, 118, 44)" stroke-opacity="0.70999944" stroke-linecap="round" stroke-linejoin="round"/>
    <path d="M 58.201072692871094 64.83544158935547 C 58.580501556396484 63.0738410949707 59.50550079345703 61.854248046875 59.88517379760742 60.09378433227539 C 59.719974517822266 58.332115173339844 57.539833068847656 57.8697395324707 55.358463287353516 57.406131744384766" stroke-width="1.1613925695419312" fill="none" stroke="rgb(170, 190, 42)" stroke-opacity="0.71" stroke-linecap="round" stroke-linejoin="round"/>
    <path d="M 71.76136779785156 17.805641174316406 C 76.9139175415039 21.718183517456055 74.9094467163086 16.836973190307617 76.59500122070312 22.41526222229004" stroke-width="1.0892857313156128" fill="none" stroke="rgb(141, 69, 94)" stroke-opacity="0.71" stroke-linecap="round" stroke-linejoin="round"/>
    <path d="M 37.292728424072266 65.4276123046875 C 39.05118179321289 64.8060073852539 39.75519943237305 63.65748977661133 40.93958282470703 63.563472747802734 C 42.15446853637695 62.94249725341797 47.15773391723633 64.16493225097656 52.70545959472656 64.8415298461914" stroke-width="1.0892857313156128" fill="none" stroke="rgb(157, 145, 66)" stroke-opacity="0.6900002" stroke-linecap="round" stroke-linejoin="round"/>
    <path d="M 79.76258087158203 121.92095947265625 C 80.34162902832031 119.76229858398438 81.46403503417969 118.14700317382812 81.22175598144531 117.16000366210938 C 80.43482971191406 116.17304229736328 77.19292449951172 116.35897064208984 74.49417114257812 116.00030517578125 C 71.79975891113281 115.64160919189453 72.88482666015625 115.98808288574219 73.43083190917969 115.78994750976562" stroke-width="1.161392331123352" fill="none" stroke="rgb(198, 71, 246)" stroke-opacity="0.69000006" stroke-linecap="round" stroke-linejoin="round"/>
    <path d="M 106.68194580078125 85.03548431396484 C 108.6351547241211 83.31527709960938 110.04298400878906 81.05206298828125 111.99575805664062 79.33146667480469 C 113.94896697998047 77.61126708984375 114.95548248291016 75.91548156738281 116.48535919189453 74.76429748535156" stroke-width="1.0892857313156128" fill="none" stroke="rgb(178, 204, 130)" stroke-opacity="0.7099999" stroke-linecap="round" stroke-linejoin="round"/>
    <path d="M 39.42654037475586 26.987363815307617 C 44.82014465332031 27.869922637939453 50.213741302490234 28.209096908569336 52.25356674194336 30.435596466064453 C 54.293418884277344 32.66205978393555 53.52403259277344 36.77709197998047 52.21014404296875 40.8922004699707 C 50.89619827270508 44.46333694458008 44.388729095458984 38.64691162109375 37.882469177246094 32.8323974609375" stroke-width="1.0892857313156128" fill="none" stroke="rgb(150, 8, 83)" stroke-opacity="0.7099999" stroke-linecap="round" stroke-linejoin="round"/>
    <path d="M 96.3614501953125 23.692148208618164 C 93.35099792480469 27.978158950805664 93.67012786865234 31.605066299438477 89.35133361816406 27.835779190063477" stroke-width="1.0892857313156128" fill="none" stroke="rgb(106, 66, 211)" stroke-opacity="0.69000006" stroke-linecap="round" stroke-linejoin="round"/>
    <path d="M 29.747520446777344 4.5496344566345215 C 27.131324768066406 8.836210250854492 25.059762954711914 13.668628692626953 22.988203048706055 18.499826431274414 C 20.916645050048828 23.331026077270508 26.034543991088867 17.305442810058594 31.697052001953125 11.279875755310059" stroke-width="1.1613926887512207" fill="none" stroke="rgb(24, 28, 209)" stroke-opacity="0.69000006" stroke-linecap="round" stroke-linejoin="round"/>
    <path d="M 99.8267593383789 109.23854064941406 C 101.50269317626953 110.16575622558594 101.34073638916016 111.53094482421875 104.09918212890625 114.33744812011719" stroke-width="1.0892857313156128" fill="none" stroke="rgb(196, 218, 229)" stroke-opacity="0.71" stroke-linecap="round" stroke-linejoin="round"/>
    <path d="M 10.163592338562012 52.299198150634766 C 11.798399925231934 54.36951446533203 13.433192253112793 56.43986129760742 15.067989349365234 57.965614318847656 C 16.702774047851562 60.58057403564453 11.098087310791016 59.818084716796875 5.493401527404785 59.056800842285156" stroke-width="1.0892857313156128" fill="none" stroke="rgb(241, 6, 63)" stroke-opacity="0.7099999" stroke-linecap="round" stroke-linejoin="round"/>
    <path d="M 43.12677001953125 68.3612289428711 C 44.911659240722656 67.44990539550781 46.69649124145508 66.5373306274414 48.4801025390625 65.62598419189453 C 50.264976501464844 64.71464538574219 53.8176383972168 62.07215118408203 57.914878845214844 59.97544860839844" stroke-width="1.0892857313156128" fill="none" stroke="rgb(202, 145, 134)" stroke-opacity="0.7099999" stroke-linecap="round" stroke-linejoin="round"/>
    <path d="M 51.66553497314453 40.8934326171875 C 49.1926383972168 36.83684539794922 46.71965408325195 32.77919387817383 44.2467041015625 28.722719192504883 C 41.773773193359375 24.66620445251465 39.92913055419922 26.365175247192383 38.08449172973633 28.608749389648438" stroke-width="1.0892857313156128" fill="none" stroke="rgb(91, 157, 30)" stroke-opacity="0.6900002" stroke-linecap="round" stroke-linejoin="round"/>
    <path d="M 31.152448654174805 11.825716972351074 C 28.39647102355957 6.364496231079102 29.476167678833008 1.7614508867263794 33.897464752197266 2.278717279434204" stroke-width="1.0892857313156128" fill="none" stroke="rgb(192, 68, 22)" stroke-opacity="0.6900001" stroke-linecap="round" stroke-linejoin="round"/>
    <path d="M 106.14009094238281 83.94551849365234 C 103.1971435546875 81.60798645019531 101.80632019042969 84.37618255615234 101.14996337890625 86.048828125" stroke-width="1.1787540912628174" fill="none" stroke="rgb(159, 247, 112)" stroke-opacity="0.69000006" stroke-linecap="round" stroke-linejoin="round"/>
    <path d="M 37.337852478027344 33.37823486328125 C 34.537967681884766 31.62874984741211 31.736833572387695 29.33466148376465 28.911304473876953 30.834022521972656 C 26.629196166992188 32.87803649902344 23.776823043823242 37.62504577636719 20.378631591796875 41.82746887207031 C 17.52626609802246 46.5744743347168 21.433929443359375 40.034061431884766 25.886213302612305 34.03947448730469" stroke-width="1.0892857313156128" fill="none" stroke="rgb(207, 240, 29)" stroke-opacity="0.71" stroke-linecap="round" stroke-linejoin="round"/>
    <path d="M 77.06227111816406 68.00183868408203 C 78.64704895019531 70.33079528808594 80.23308563232422 72.65975189208984 80.61736297607422 71.89080810546875 C 81.00224304199219 72.20149993896484 80.7313003540039 68.88953399658203 79.9151382446289 66.1127700805664 C 78.55443572998047 63.88066101074219 81.9439697265625 66.20556640625 84.24562072753906 69.61955261230469" stroke-width="1.0892857313156128" fill="none" stroke="rgb(81, 111, 200)" stroke-opacity="0.69000006" stroke-linecap="round" stroke-linejoin="round"/>
    <path d="M 42.58262634277344 92.04766082763672 C 45.09999465942383 95.19268798828125 47.073951721191406 98.33786010742188 48.502105712890625 101.48301696777344 C 50.47482681274414 104.628173828125 47.49924087524414 103.1983642578125 44.52364730834961 102.31189727783203" stroke-width="1.0892857313156128" fill="none" stroke="rgb(219, 244, 105)" stroke-opacity="0.69" stroke-linecap="round" stroke-linejoin="round"/>
    <path d="M 54.088470458984375 71.0196304321289 C 56.511871337890625 74.48197174072266 58.93357849121094 77.94432830810547 59.55575942993164 78.25054931640625 C 59.63212203979492 79.10016632080078 58.45238494873047 76.2490463256836 57.27264404296875 73.39667510986328 C 56.6374397277832 70.5433120727539 56.27717208862305 74.08197021484375 56.46013641357422 77.07574462890625" stroke-width="1.0892857313156128" fill="none" stroke="rgb(179, 211, 182)" stroke-opacity="0.69" stroke-linecap="round" stroke-linejoin="round"/>
    <path d="M 101.15118408203125 86.59341430664062 C 100.82421112060547 88.0752182006836 100.49724578857422 90.6474380493164 99.19234466552734 91.0130615234375 C 96.79827880859375 91.92308807373047 93.97059631347656 91.71813201904297 90.05534362792969 91.51194763183594 C 86.68319702148438 91.3057861328125 85.38267517089844 94.898681640625 84.62555694580078 98.49163055419922" stroke-width="1.0892857313156128" fill="none" stroke="rgb(85, 24, 157)" stroke-opacity="0.69" stroke-linecap="round" stroke-linejoin="round"/>
    <path d="M 33.89744186401367 2.278702974319458 C 35.648311614990234 3.525991439819336 37.94089126586914 3.6859118938446045 39.14834213256836 4.932714939117432 C 41.44351577758789 5.6354265213012695 42.90747833251953 4.868034839630127 44.37163543701172 3.5560429096221924" stroke-width="1.1787585020065308" fill="none" stroke="rgb(148, 184, 50)" stroke-opacity="0.71" stroke-linecap="round" stroke-linejoin="round"/>
    <path d="M 38.630332946777344 29.15336799621582 C 36.32453536987305 32.688934326171875 34.01995849609375 36.2257194519043 32.61574172973633 39.379417419433594 C 30.666889190673828 41.989742279052734 30.16546630859375 44.761566162109375 29.664043426513672 47.53464126586914 C 29.70722770690918 50.85224533081055 26.524261474609375 43.88197326660156 22.797895431518555 38.00081253051758" stroke-width="1.1787586212158203" fill="none" stroke="rgb(231, 9, 115)" stroke-opacity="0.71" stroke-linecap="round" stroke-linejoin="round"/>
    <path d="M 101.15040588378906 86.59339904785156 C 95.25491333007812 84.84221649169922 99.1711196899414 83.40872192382812 104.1962890625 81.86174774169922" stroke-width="1.0892857313156128" fill="none" stroke="rgb(169, 21, 52)" stroke-opacity="0.71" stroke-linecap="round" stroke-linejoin="round"/>
    <path d="M 45.61362075805664 102.31187438964844 C 44.870635986328125 106.64973449707031 43.35530471801758 106.63508605957031 39.147098541259766 103.12442779541016" stroke-width="1.0892857313156128" fill="none" stroke="rgb(119, 154, 53)" stroke-opacity="0.71" stroke-linecap="round" stroke-linejoin="round"/>
    <path d="M 33.89744567871094 2.278705596923828 C 38.49224853515625 -0.36699119210243225 43.03291320800781 2.5036849975585938 45.33250427246094 2.3475265502929688" stroke-width="1.0892857313156128" fill="none" stroke="rgb(35, 181, 118)" stroke-opacity="0.69000006" stroke-linecap="round" stroke-linejoin="round"/>
    <path d="M 38.630313873291016 28.063444137573242 C 37.436920166015625 27.216270446777344 36.245182037353516 26.355487823486328 34.24880599975586 24.05864906311035 C 33.34162902832031 20.67267608642578 31.632417678833008 15.842671394348145 29.921979904174805 11.012686729431152 C 27.66702651977539 6.182775974273682 29.820295333862305 8.354368209838867 31.428668975830078 11.070531845092773" stroke-width="1.1787322759628296" fill="none" stroke="rgb(240, 91, 95)" stroke-opacity="0.71" stroke-linecap="round" stroke-linejoin="round"/>
    <path d="M 33.89744186401367 2.2787024974823 C 35.24068069458008 1.4735112190246582 36.58511734008789 0.6683101058006287 38.594940185546875 0.8054564595222473 C 40.06118392944336 -0.14661210775375366 41.10555648803711 -0.15519092977046967 43.237762451171875 -0.16373541951179504 C 44.82664489746094 0.37234535813331604 47.68876647949219 -0.33769500255584717 50.55197525024414 -1.0477628707885742" stroke-width="1.178756833076477" fill="none" stroke="rgb(141, 21, 65)" stroke-opacity="0.69000006" stroke-linecap="round" stroke-linejoin="round"/>
    <path d="M 38.557857513427734 52.552974700927734 C 33.100059509277344 51.051876068115234 31.17613410949707 49.280433654785156 25.94598960876465 43.6354866027832" stroke-width="1.1787577867507935" fill="none" stroke="rgb(0, 240, 75)" stroke-opacity="0.7099999" stroke-linecap="round" stroke-linejoin="round"/>
    <path d="M 11.963577270507812 96.24971008300781 C 12.200979232788086 94.68762969970703 12.984208106994629 93.67012786865234 14.310847282409668 93.197265625 C 15.092864990234375 92.17979431152344 19.98385238647461 88.02813720703125 24.330202102661133 83.33309173583984" stroke-width="1.0892857313156128" fill="none" stroke="rgb(159, 51, 215)" stroke-opacity="0.7099999" stroke-linecap="round" stroke-linejoin="round"/>
    <path d="M 62.349578857421875 85.6059341430664 C 62.23561096191406 82.675537109375 62.666263580322266 79.74506378173828 63.096923828125 76.81462097167969 C 64.07191467285156 74.42876434326172 62.147789001464844 73.96153259277344 60.76799011230469 73.49304962158203" stroke-width="1.0892857313156128" fill="none" stroke="rgb(210, 57, 155)" stroke-opacity="0.71" stroke-linecap="round" stroke-linejoin="round"/>
    <path d="M 104.30415344238281 6.6870574951171875 C 101.58965301513672 9.323460578918457 100.03899383544922 3.082732677459717 103.28006744384766 8.129842758178711" stroke-width="1.1787580251693726" fill="none" stroke="rgb(218, 225, 7)" stroke-opacity="0.7099999" stroke-linecap="round" stroke-linejoin="round"/>
    <path d="M 44.58515548706055 114.49358367919922 C 41.40208435058594 120.4850082397461 39.725887298583984 118.31462860107422 44.230140686035156 113.54254913330078" stroke-width="1.0892857313156128" fill="none" stroke="rgb(213, 165, 40)" stroke-opacity="0.69" stroke-linecap="round" stroke-linejoin="round"/>
    <path d="M 86.45633697509766 49.19431686401367 C 92.51390838623047 44.629024505615234 92.06973266601562 47.240699768066406 90.3045654296875 46.4085578918457" stroke-width="1.0892857313156128" fill="none" stroke="rgb(134, 132, 79)" stroke-opacity="0.70999986" stroke-linecap="round" stroke-linejoin="round"/>
    <path d="M 49.02914047241211 37.68239974975586 C 52.76606750488281 38.038631439208984 57.04718780517578 37.85026550292969 60.239723205566406 38.7511100769043 C 63.97659683227539 39.10734939575195 64.10877990722656 39.849098205566406 63.69767761230469 40.58965301513672" stroke-width="1.0892857313156128" fill="none" stroke="rgb(141, 184, 126)" stroke-opacity="0.69" stroke-linecap="round" stroke-linejoin="round"/>
    <path d="M 73.25759887695312 70.85763549804688 C 73.82489776611328 66.9172134399414 74.39097595214844 62.97774887084961 74.1689453125 60.7789306640625 C 73.9468994140625 59.12461853027344 72.93549346923828 59.75539016723633 71.92411804199219 60.93192672729492 C 70.36814880371094 61.01816940307617 69.508056640625 66.0726547241211 69.19255065917969 71.12699890136719" stroke-width="1.0892857313156128" fill="none" stroke="rgb(170, 218, 128)" stroke-opacity="0.6900001" stroke-linecap="round" stroke-linejoin="round"/>
    <path d="M 39.20738220214844 76.44035339355469 C 36.91085433959961 74.134765625 35.158931732177734 71.8301773071289 33.588802337646484 71.29095458984375 C 32.56321334838867 70.751708984375 30.63513946533203 71.97898864746094 29.239482879638672 72.66172790527344 C 27.849905014038086 73.88905334472656 28.05121421813965 74.35877227783203 28.797136306762695 74.82844543457031" stroke-width="1.0892857313156128" fill="none" stroke="rgb(46, 240, 35)" stroke-opacity="0.69" stroke-linecap="round" stroke-linejoin="round"/>
    <path d="M 83.86425018310547 102.49072265625 C 83.63220977783203 101.05589294433594 83.94034576416016 99.60124206542969 84.79383850097656 98.15001678466797 C 85.10379028320312 97.24730682373047 84.84758758544922 99.9632339477539 84.59261322021484 102.13330841064453" stroke-width="1.0892857313156128" fill="none" stroke="rgb(23, 94, 83)" stroke-opacity="0.70999986" stroke-linecap="round" stroke-linejoin="round"/>
    <path d="M 88.03668212890625 106.05972290039062 C 86.12199401855469 106.94373321533203 85.29529571533203 108.37117767333984 85.27216339111328 109.52771759033203 C 85.24897766113281 110.68427276611328 86.57496643066406 112.11334991455078 87.35543060302734 112.45325469970703 C 89.22493743896484 113.33775329589844 81.94275665283203 112.14337158203125 74.11597442626953 111.4936294555664" stroke-width="1.0892857313156128" fill="none" stroke="rgb(145, 186, 183)" stroke-opacity="0.69" stroke-linecap="round" stroke-linejoin="round"/>
    <path d="M 57.68256759643555 122.22303771972656 C 58.57076644897461 119.52577209472656 60.002281188964844 117.37152862548828 59.7028923034668 117.11409759521484 C 60.49257278442383 116.85546112060547 60.093788146972656 119.03683471679688 59.69605255126953 121.2165298461914 C 58.75376510620117 122.85513305664062 57.94282531738281 122.95399475097656 57.14014434814453 123.07742309570312" stroke-width="1.178755760192871" fill="none" stroke="rgb(166, 61, 36)" stroke-opacity="0.69000006" stroke-linecap="round" stroke-linejoin="round"/>
    <path d="M 73.24122619628906 106.65459442138672 C 73.89393615722656 104.76119232177734 74.54550170898438 103.41082000732422 76.68576049804688 103.08488464355469 C 78.28153228759766 103.30326080322266 80.81912231445312 105.63224792480469 82.81336212158203 108.50582122802734 C 85.35221099853516 110.83476257324219 83.3477783203125 108.16168212890625 81.3444595336914 105.48755645751953" stroke-width="1.1787577867507935" fill="none" stroke="rgb(220, 99, 247)" stroke-opacity="0.7099999" stroke-linecap="round" stroke-linejoin="round"/>
    <path d="M 52.11130905151367 33.416011810302734 C 50.69106674194336 31.314727783203125 50.14712905883789 36.28012466430664 54.1165885925293 39.40823745727539" stroke-width="1.1787575483322144" fill="none" stroke="rgb(22, 207, 53)" stroke-opacity="0.70999956" stroke-linecap="round" stroke-linejoin="round"/>
    <path d="M 93.09844970703125 35.16990280151367 C 87.03746795654297 37.5384407043457 90.1313705444336 35.51201248168945 90.52740478515625 36.33134460449219" stroke-width="1.178757667541504" fill="none" stroke="rgb(13, 109, 164)" stroke-opacity="0.7099999" stroke-linecap="round" stroke-linejoin="round"/>
    <path d="M 70.61019134521484 39.50263977050781 C 75.24983215332031 34.17488098144531 74.81381225585938 36.480194091796875 69.29574584960938 40.94293975830078" stroke-width="1.0892857313156128" fill="none" stroke="rgb(155, 16, 61)" stroke-opacity="0.7099999" stroke-linecap="round" stroke-linejoin="round"/>
    <path d="M 38.66276168823242 75.89653778076172 C 32.8162727355957 70.91949462890625 33.43586349487305 72.90765380859375 32.04027557373047 72.85860443115234" stroke-width="1.0892857313156128" fill="none" stroke="rgb(82, 17, 91)" stroke-opacity="0.6109222" stroke-linecap="round" stroke-linejoin="round"/>
    <path d="M 48.57929229736328 58.28913497924805 C 50.840919494628906 56.28169631958008 45.29218673706055 62.29096984863281 42.21874237060547 64.45977783203125 C 42.43990707397461 68.4471206665039 37.37567901611328 67.58536529541016 41.57789993286133 70.38839721679688 C 39.585304260253906 67.91106414794922 38.68454360961914 70.8769760131836 41.11883544921875 73.32826232910156" stroke-width="1.0892857313156128" fill="none" stroke="rgb(215, 234, 114)" stroke-opacity="0.009535697" stroke-linecap="round" stroke-linejoin="round"/>
    <path d="M 43.67131805419922 59.885894775390625 C 47.21300506591797 58.74243927001953 42.165767669677734 61.75459289550781 46.89149475097656 66.15967559814453" stroke-width="1.1981678009033203" fill="none" stroke="rgb(226, 230, 230)" stroke-opacity="0.3088243" stroke-linecap="round" stroke-linejoin="round"/>
    <path d="M 37.29275894165039 64.88302612304688 C 41.3640022277832 61.58257293701172 38.92396545410156 67.06134796142578 33.52235412597656 64.69702911376953" stroke-width="1.0892857313156128" fill="none" stroke="rgb(209, 125, 223)" stroke-opacity="0.31622222" stroke-linecap="round" stroke-linejoin="round"/>
    <path d="M 10.70816707611084 52.29922103881836 C 11.436774253845215 56.492008209228516 6.404752731323242 53.568729400634766 5.6471452713012695 52.07787322998047 C 10.427210807800293 49.90195846557617 13.549302101135254 55.125572204589844 8.487569808959961 50.96686935424805" stroke-width="1.0892857313156128" fill="none" stroke="rgb(6, 121, 92)" stroke-opacity="0.6712911" stroke-linecap="round" stroke-linejoin="round"/>
    <path d="M 52.253570556640625 30.43552589416504 C 56.62642288208008 36.04572677612305 59.42536544799805 39.21368408203125 57.274662017822266 34.40421676635742" stroke-width="1.1982128620147705" fill="none" stroke="rgb(200, 158, 88)" stroke-opacity="0.69366634" stroke-linecap="round" stroke-linejoin="round"/>
    <path d="M 38.62891387939453 28.6087703704834 C 33.32252502441406 31.634159088134766 29.425260543823242 36.274688720703125 31.19410514831543 35.68668746948242 C 37.0762939453125 29.984460830688477 31.742027282714844 26.686548233032227 31.57109260559082 28.346105575561523 C 32.279335021972656 33.576805114746094 26.34461212158203 34.48834991455078 29.167926788330078 35.084373474121094" stroke-width="1.1982141733169556" fill="none" stroke="rgb(50, 216, 232)" stroke-opacity="0.97683126" stroke-linecap="round" stroke-linejoin="round"/>
    <path d="M 51.952274322509766 100.61114501953125 C 57.201534271240234 96.86510467529297 60.083194732666016 93.62774658203125 63.768890380859375 95.01692199707031 C 63.53744125366211 96.95870208740234 62.73048782348633 100.51741027832031 60.36513900756836 96.98617553710938 C 62.82250213623047 91.34688568115234 61.80247497558594 90.80477142333984 63.75056457519531 91.25445556640625" stroke-width="1.1982136964797974" fill="none" stroke="rgb(16, 115, 73)" stroke-opacity="0.09281559" stroke-linecap="round" stroke-linejoin="round"/>
    <path d="M 41.11892318725586 72.78413391113281 C 43.900474548339844 69.52039337158203 41.416603088378906 64.1331787109375 46.73949432373047 61.522064208984375" stroke-width="1.1982084512710571" fill="none" stroke="rgb(66, 157, 16)" stroke-opacity="0.106372185" stroke-linecap="round" stroke-linejoin="round"/>
    <path d="M 32.97773361206055 64.69705200195312 C 30.73769760131836 61.13922119140625 32.665287017822266 57.28364181518555 34.99513626098633 58.25749969482422" stroke-width="1.1982139348983765" fill="none" stroke="rgb(214, 175, 124)" stroke-opacity="0.535558" stroke-linecap="round" stroke-linejoin="round"/>
    <path d="M 63.75054931640625 90.7098388671875 C 68.13257598876953 91.16785430908203 64.07514190673828 86.7996597290039 66.18512725830078 85.48954010009766 C 71.5301742553711 89.41753387451172 68.89730834960938 93.88015747070312 67.17626953125 93.55975341796875 C 70.31165313720703 97.96810150146484 64.88610076904297 100.72745513916016 64.5816421508789 99.26737976074219" stroke-width="1.198212742805481" fill="none" stroke="rgb(85, 48, 202)" stroke-opacity="0.91099036" stroke-linecap="round" stroke-linejoin="round"/>
    <path d="M 33.52228546142578 64.69702911376953 C 32.56708908081055 61.02303695678711 31.399269104003906 63.42171859741211 25.85308837890625 63.9627799987793 C 22.157543182373047 60.64741516113281 24.22355842590332 62.51176071166992 25.582508087158203 67.64491271972656 C 28.820695877075195 71.06010437011719 27.56647491455078 72.72978210449219 30.979248046875 74.0923843383789" stroke-width="1.1982123851776123" fill="none" stroke="rgb(65, 114, 36)" stroke-opacity="0.31272876" stroke-linecap="round" stroke-linejoin="round"/>
    <path d="M 63.750553131103516 91.25446319580078 C 69.18205261230469 94.45950317382812 74.32030487060547 98.84046173095703 72.18562316894531 102.90291595458984" stroke-width="1.198211669921875" fill="none" stroke="rgb(155, 174, 3)" stroke-opacity="0.0" stroke-linecap="round" stroke-linejoin="round"/>
    <path d="M 33.52235794067383 64.69702911376953 C 37.247711181640625 70.25533294677734 41.44977569580078 70.90947723388672 45.66953659057617 76.82330322265625" stroke-width="1.0892857313156128" fill="none" stroke="rgb(59, 22, 23)" stroke-opacity="0.0" stroke-linecap="round" stroke-linejoin="round"/>
    <path d="M 63.75056838989258 91.25444030761719 C 62.1986083984375 92.4949951171875 61.09823226928711 92.776123046875 59.822486877441406 90.47188568115234 C 54.974082946777344 85.9317626953125 57.18507766723633 86.61182403564453 53.58580780029297 87.82081604003906" stroke-width="1.1982113122940063" fill="none" stroke="rgb(48, 174, 33)" stroke-opacity="0.0" stroke-linecap="round" stroke-linejoin="round"/>
    <path d="M 41.11890411376953 72.78409576416016 C 41.056697845458984 73.82421875 44.16014862060547 72.76409149169922 44.18881607055664 70.05741882324219 C 43.95660400390625 65.40878295898438 40.088462829589844 71.41446685791016 36.61037826538086 77.42591857910156 C 32.006141662597656 80.28803253173828 28.169326782226562 80.58635711669922 33.743412017822266 85.3953628540039" stroke-width="1.0892857313156128" fill="none" stroke="rgb(19, 165, 68)" stroke-opacity="0.0047019552" stroke-linecap="round" stroke-linejoin="round"/>
    <path d="M 32.70664978027344 29.315778732299805 C 38.700828552246094 24.69938087463379 41.39542007446289 20.559724807739258 38.99412155151367 23.839733123779297 C 37.72250747680664 21.269681930541992 43.49081802368164 24.978498458862305 39.524375915527344 26.091672897338867" stroke-width="1.1982065439224243" fill="none" stroke="rgb(78, 114, 167)" stroke-opacity="0.64852816" stroke-linecap="round" stroke-linejoin="round"/>
    <path d="M 64.85462951660156 41.63617706298828 C 59.9724006652832 43.61185073852539 61.39572525024414 38.11414337158203 56.296592712402344 32.41926956176758 C 55.76356887817383 36.259037017822266 52.492515563964844 41.448970794677734 47.24028396606445 38.0088005065918" stroke-width="1.0892857313156128" fill="none" stroke="rgb(169, 245, 255)" stroke-opacity="0.6887492" stroke-linecap="round" stroke-linejoin="round"/>
    <path d="M 60.4120979309082 113.61266326904297 C 64.70587921142578 118.20569610595703 68.4247817993164 113.40084075927734 74.6526870727539 111.3883056640625" stroke-width="1.0892857313156128" fill="none" stroke="rgb(23, 93, 195)" stroke-opacity="0.49419415" stroke-linecap="round" stroke-linejoin="round"/>
    <path d="M 35.8504638671875 54.96076965332031 C 39.37163162231445 52.6423454284668 36.576175689697266 53.14137649536133 38.12269973754883 47.418914794921875 C 37.737735748291016 46.095455169677734 34.45441818237305 42.730709075927734 28.451251983642578 40.862831115722656 C 33.01329040527344 36.97640609741211 27.573444366455078 33.532901763916016 22.46031951904297 38.86098861694336" stroke-width="1.1982134580612183" fill="none" stroke="rgb(117, 139, 75)" stroke-opacity="0.16270727" stroke-linecap="round" stroke-linejoin="round"/>
    <path d="M 26.307058334350586 79.08778381347656 C 25.179006576538086 81.18636322021484 26.57979965209961 87.20053100585938 26.645265579223633 88.3271484375" stroke-width="1.0892857313156128" fill="none" stroke="rgb(22, 71, 189)" stroke-opacity="0.16470923" stroke-linecap="round" stroke-linejoin="round"/>
    <path d="M 15.025686264038086 53.1251220703125 C 20.168567657470703 56.939048767089844 16.78960609436035 54.39959716796875 22.882213592529297 56.21767044067383 C 26.47740936279297 61.48426818847656 25.122150421142578 63.80249786376953 22.48282241821289 64.26073455810547" stroke-width="1.198211431503296" fill="none" stroke="rgb(203, 119, 124)" stroke-opacity="0.084688365" stroke-linecap="round" stroke-linejoin="round"/>
    <path d="M 118.08551025390625 42.155521392822266 C 120.59566497802734 46.71686935424805 123.08488464355469 51.14198684692383 121.38018035888672 52.3079948425293" stroke-width="1.0892857313156128" fill="none" stroke="rgb(18, 14, 133)" stroke-opacity="0.8429401" stroke-linecap="round" stroke-linejoin="round"/>
    <path d="M 80.3377914428711 45.382694244384766 C 76.63968658447266 39.637454986572266 73.99040985107422 34.84735107421875 76.30875396728516 33.13960647583008 C 74.3713607788086 33.48056411743164 69.31013488769531 32.64558792114258 75.10938262939453 32.79145050048828" stroke-width="1.1982121467590332" fill="none" stroke="rgb(221, 39, 199)" stroke-opacity="0.7316666" stroke-linecap="round" stroke-linejoin="round"/>
    <path d="M 116.95149230957031 43.90829086303711 C 120.56941223144531 49.8673210144043 125.18980407714844 49.219337463378906 123.04080963134766 51.52370071411133" stroke-width="1.0892857313156128" fill="none" stroke="rgb(222, 237, 82)" stroke-opacity="0.12460952" stroke-linecap="round" stroke-linejoin="round"/>
    <path d="M 31.168964385986328 83.92670440673828 C 36.69121551513672 82.99575805664062 42.302452087402344 83.88980102539062 46.37720489501953 83.58653259277344 C 45.62057876586914 83.1670913696289 49.678470611572266 86.06623840332031 50.14358901977539 92.66432189941406 C 44.457916259765625 96.1755142211914 45.49806213378906 100.70993041992188 41.42927932739258 101.04305267333984" stroke-width="1.0892857313156128" fill="none" stroke="rgb(66, 84, 200)" stroke-opacity="0.070597455" stroke-linecap="round" stroke-linejoin="round"/>
    <path d="M 112.22808837890625 104.80382537841797 C 109.15846252441406 101.21865844726562 111.30397033691406 105.35426330566406 107.09103393554688 102.60403442382812 C 100.54830932617188 105.23474884033203 100.24658203125 107.88646697998047 101.81755065917969 104.0221176147461 C 104.74766540527344 105.49171447753906 100.66803741455078 107.09656524658203 95.01195526123047 105.0633316040039" stroke-width="1.0892857313156128" fill="none" stroke="rgb(207, 188, 102)" stroke-opacity="0.8242851" stroke-linecap="round" stroke-linejoin="round"/>
    <path d="M 69.23043060302734 72.85813903808594 C 64.9486312866211 67.98931121826172 59.40353012084961 65.73106384277344 53.98058319091797 65.68421173095703 C 50.131893157958984 70.08248138427734 48.85009765625 69.79304504394531 49.00699234008789 74.0111083984375" stroke-width="1.0892857313156128" fill="none" stroke="rgb(40, 30, 44)" stroke-opacity="0.56861275" stroke-linecap="round" stroke-linejoin="round"/>
    <path d="M 30.231924057006836 6.79417610168457 C 35.98574447631836 4.299553871154785 33.167762756347656 5.663844108581543 27.946664810180664 10.811381340026855" stroke-width="1.198211669921875" fill="none" stroke="rgb(137, 218, 48)" stroke-opacity="0.30065405" stroke-linecap="round" stroke-linejoin="round"/>
    <path d="M 36.11048889160156 66.67483520507812 C 31.037395477294922 66.08549499511719 30.306650161743164 66.8432388305664 29.29203224182129 70.35247802734375 C 27.886320114135742 69.76795959472656 26.214160919189453 74.79338836669922 31.124052047729492 70.78368377685547" stroke-width="1.1982126235961914" fill="none" stroke="rgb(231, 124, 40)" stroke-opacity="0.024311867" stroke-linecap="round" stroke-linejoin="round"/>
    <path d="M 54.65562438964844 49.62926483154297 C 51.296722412109375 54.8541374206543 52.195194244384766 48.994503021240234 56.650691986083984 54.20500183105469 C 50.76337814331055 53.12255859375 54.94038772583008 53.10953140258789 58.65049743652344 53.113372802734375 C 60.25032043457031 53.17563247680664 59.941715240478516 55.81615447998047 56.7501106262207 56.304264068603516" stroke-width="1.19820237159729" fill="none" stroke="rgb(55, 192, 173)" stroke-opacity="0.038169395" stroke-linecap="round" stroke-linejoin="round"/>
    <path d="M 81.44029998779297 112.11173248291016 C 77.0365219116211 112.26360321044922 72.16695404052734 107.04408264160156 74.90360260009766 104.56536102294922" stroke-width="1.0892857313156128" fill="none" stroke="rgb(41, 134, 65)" stroke-opacity="0.44599327" stroke-linecap="round" stroke-linejoin="round"/>
  </g>
</svg>
