<?xml version="1.0" ?>
<svg xmlns="http://www.w3.org/2000/svg" version="1.1" width="1555.99219" height="1555.99219">
  <defs/>
  <g>
    <path d="M 70.0693588256836 227.06536865234375 C 69.91385650634766 218.783203125 72.4969253540039 213.94680786132812 69.95388793945312 212.20701599121094 C 71.97557830810547 206.8505096435547 78.16352844238281 205.49343872070312 79.8105239868164 204.29364013671875 C 104.68431091308594 205.5633544921875 110.80461883544922 221.2875518798828 120.11610412597656 242.3413848876953 C 118.59056091308594 243.55686950683594 124.24403381347656 223.27157592773438 135.8075408935547 231.26348876953125 C 156.1403350830078 228.6145782470703 169.81410217285156 232.6525115966797 181.1539764404297 235.46231079101562 C 185.8831329345703 242.53341674804688 190.4849090576172 241.85284423828125 198.27735900878906 242.2430419921875 C 202.11019897460938 236.47764587402344 209.15957641601562 231.97256469726562 216.53555297851562 236.8341522216797 C 220.37586975097656 241.30873107910156 231.28329467773438 237.55380249023438 241.32821655273438 237.94696044921875 C 241.7108154296875 237.92752075195312 239.8958282470703 242.70718383789062 238.3083038330078 243.68756103515625" stroke-width="7.602305889129639" fill="none" stroke="rgb(31, 15, 23)" stroke-opacity="0.76298475" stroke-linecap="round" stroke-linejoin="round"/>
    <path d="M 267.92974853515625 310.4678955078125 C 264.4289245605469 307.3697204589844 265.72174072265625 307.57470703125 268.6221923828125 312.7765808105469 C 263.3179016113281 316.8418884277344 260.97259521484375 310.6034851074219 262.2737731933594 312.67071533203125 C 263.40093994140625 309.6680603027344 263.52716064453125 308.213623046875 263.69732666015625 305.0875244140625 C 264.0298156738281 301.5107421875 259.21429443359375 300.1087341308594 256.1181945800781 295.46136474609375 C 253.48260498046875 291.05029296875 248.82911682128906 286.3858642578125 239.72535705566406 285.6929931640625 C 235.03207397460938 286.3013610839844 239.30856323242188 275.1698913574219 229.05111694335938 279.84698486328125 C 224.27560424804688 278.2120056152344 219.6641845703125 277.9286804199219 215.4398956298828 275.56097412109375 C 212.65098571777344 273.7521667480469 210.36073303222656 276.605712890625 214.2545623779297 289.70574951171875 C 210.78787231445312 285.6894836425781 205.18707275390625 287.8841857910156 212.29635620117188 292.84649658203125 C 205.97784423828125 295.98187255859375 201.18846130371094 299.06085205078125 200.1874237060547 301.1067810058594 C 200.65261840820312 307.5380554199219 200.52891540527344 309.86248779296875 201.73574829101562 313.9385681152344 C 207.664794921875 314.5560302734375 206.9326934814453 316.48382568359375 206.81027221679688 314.6391296386719 C 200.84683227539062 304.1016540527344 196.53237915039062 307.1051025390625 194.5044708251953 304.9393005371094 C 190.55384826660156 302.59381103515625 185.35850524902344 299.5232238769531 172.4745330810547 299.67938232421875 C 162.34385681152344 301.4571533203125 157.50653076171875 295.4216003417969 148.1669921875 299.0376281738281 C 144.6365509033203 301.00042724609375 144.35348510742188 300.8931884765625 143.78558349609375 294.6904296875 C 143.29774475097656 294.3169250488281 141.9075469970703 297.1999206542969 139.39036560058594 297.8676452636719 C 133.9725799560547 297.20147705078125 132.8374786376953 294.4470520019531 131.96295166015625 292.84844970703125 C 139.88636779785156 294.3357849121094 123.6461410522461 298.0559997558594 123.88264465332031 300.0198669433594" stroke-width="7.024956226348877" fill="none" stroke="rgb(32, 12, 22)" stroke-opacity="0.7419865" stroke-linecap="round" stroke-linejoin="round"/>
    <path d="M 209.5787353515625 285.9290771484375 C 227.6529083251953 284.1673583984375 215.565673828125 260.2818298339844 218.38340759277344 292.256591796875 C 228.09800720214844 266.7790832519531 236.41781616210938 252.00836181640625 212.22821044921875 249.49044799804688 C 182.30003356933594 278.7565612792969 157.73004150390625 298.5699157714844 157.2381591796875 331.1735534667969" stroke-width="5.447786331176758" fill="none" stroke="rgb(105, 14, 5)" stroke-opacity="0.1243351" stroke-linecap="round" stroke-linejoin="round"/>
    <path d="M 124.53975677490234 304.196533203125 C 131.93714904785156 310.69085693359375 122.51349639892578 321.1422424316406 128.4661865234375 303.3209533691406 C 118.32044982910156 333.2591247558594 126.29473114013672 359.6582336425781 143.28065490722656 356.8608703613281" stroke-width="6.293713569641113" fill="none" stroke="rgb(171, 13, 131)" stroke-opacity="0.50757074" stroke-linecap="round" stroke-linejoin="round"/>
    <path d="M 267.1344909667969 314.4814453125 C 277.1536865234375 330.48638916015625 282.2845153808594 357.551513671875 274.79547119140625 380.5262145996094 C 265.5404968261719 358.4494934082031 285.9983825683594 357.69659423828125 268.8875732421875 380.0322570800781 C 246.89971923828125 366.8761291503906 264.6397399902344 393.2523193359375 257.68438720703125 417.7545471191406" stroke-width="6.550861358642578" fill="none" stroke="rgb(34, 93, 212)" stroke-opacity="0.22208075" stroke-linecap="round" stroke-linejoin="round"/>
    <path d="M 243.16339111328125 244.84762573242188 C 253.2354278564453 240.61842346191406 257.6765441894531 268.1165466308594 283.86505126953125 256.4107666015625 C 297.9154968261719 252.581787109375 272.2120361328125 274.69073486328125 285.40252685546875 249.9425506591797 C 305.1200256347656 232.7601776123047 299.5837097167969 201.16793823242188 285.9446716308594 189.25650024414062" stroke-width="5.22802734375" fill="none" stroke="rgb(149, 0, 80)" stroke-opacity="0.15970623" stroke-linecap="round" stroke-linejoin="round"/>
    <path d="M 135.61911010742188 297.8629150390625 C 134.06082153320312 310.3966979980469 115.785888671875 301.4903869628906 116.98163604736328 298.0615539550781 C 129.7595672607422 296.6840515136719 106.10758209228516 283.0650329589844 84.83753204345703 298.8182067871094 C 112.94010162353516 281.1648864746094 122.95799255371094 292.5863037109375 100.86376953125 314.8585510253906" stroke-width="5.238378524780273" fill="none" stroke="rgb(191, 186, 198)" stroke-opacity="0.7718677" stroke-linecap="round" stroke-linejoin="round"/>
    <path d="M 239.28512573242188 291.0790710449219 C 255.34075927734375 261.0912170410156 244.30906677246094 253.55892944335938 259.1738586425781 274.6159973144531 C 249.0275115966797 246.9547119140625 248.4685516357422 241.06201171875 236.3572998046875 248.71449279785156" stroke-width="5.22802734375" fill="none" stroke="rgb(114, 63, 187)" stroke-opacity="0.18340544" stroke-linecap="round" stroke-linejoin="round"/>
    <path d="M 235.2404327392578 272.40960693359375 C 222.3768768310547 257.25091552734375 251.0039520263672 237.75491333007812 234.874755859375 218.01820373535156 C 245.30372619628906 190.60525512695312 262.4912109375 191.90789794921875 280.1272277832031 182.552978515625 C 284.0796203613281 199.13186645507812 287.93414306640625 220.43142700195312 294.7149963378906 231.99098205566406" stroke-width="5.969252586364746" fill="none" stroke="rgb(9, 255, 55)" stroke-opacity="0.054248616" stroke-linecap="round" stroke-linejoin="round"/>
    <path d="M 136.21817016601562 234.73812866210938 C 120.53621673583984 224.65576171875 120.48731231689453 206.06915283203125 116.1452865600586 186.24046325683594 C 140.42889404296875 172.59242248535156 164.8478240966797 190.55633544921875 194.59249877929688 183.22206115722656" stroke-width="8.388715744018555" fill="none" stroke="rgb(91, 193, 67)" stroke-opacity="0.14750583" stroke-linecap="round" stroke-linejoin="round"/>
    <path d="M 262.3802185058594 315.5276794433594 C 252.95567321777344 291.2972717285156 281.447021484375 272.80828857421875 288.59674072265625 264.5964050292969 C 293.3625183105469 248.69046020507812 285.97955322265625 238.01409912109375 260.62213134765625 253.1014404296875" stroke-width="5.22802734375" fill="none" stroke="rgb(179, 90, 38)" stroke-opacity="0.17675462" stroke-linecap="round" stroke-linejoin="round"/>
    <path d="M 193.13623046875 311.2615051269531 C 213.2340545654297 301.00335693359375 224.49053955078125 278.36785888671875 220.66412353515625 268.43975830078125 C 217.36485290527344 248.24598693847656 233.45660400390625 245.96795654296875 201.03634643554688 230.4417724609375 C 223.36581420898438 211.5233154296875 213.14393615722656 222.91329956054688 236.76376342773438 215.2246551513672" stroke-width="5.22802734375" fill="none" stroke="rgb(145, 65, 208)" stroke-opacity="0.3026733" stroke-linecap="round" stroke-linejoin="round"/>
    <path d="M 195.76966857910156 309.25555419921875 C 178.0376434326172 307.4305419921875 166.24656677246094 302.6629333496094 178.97494506835938 305.6453857421875 C 203.6610107421875 318.0013732910156 178.79331970214844 290.0857849121094 179.55914306640625 318.88525390625 C 159.9378204345703 319.4248046875 137.07769775390625 337.06182861328125 162.70155334472656 320.8951110839844" stroke-width="5.22802734375" fill="none" stroke="rgb(70, 223, 14)" stroke-opacity="0.0915482" stroke-linecap="round" stroke-linejoin="round"/>
    <path d="M 200.0634765625 243.50030517578125 C 209.17601013183594 217.05718994140625 186.17816162109375 219.2124481201172 174.7659149169922 230.46231079101562" stroke-width="7.303866386413574" fill="none" stroke="rgb(31, 21, 18)" stroke-opacity="0.6742859" stroke-linecap="round" stroke-linejoin="round"/>
    <path d="M 296.0606384277344 229.15866088867188 C 284.8668212890625 215.56488037109375 293.29473876953125 210.30458068847656 265.75799560546875 210.4662322998047 C 252.20803833007812 201.02056884765625 238.60830688476562 227.78053283691406 220.02227783203125 240.48155212402344" stroke-width="5.272550582885742" fill="none" stroke="rgb(88, 255, 143)" stroke-opacity="0.50355333" stroke-linecap="round" stroke-linejoin="round"/>
    <path d="M 97.42386627197266 319.0817565917969 C 117.10887145996094 303.6851501464844 104.19622802734375 317.18115234375 134.8335418701172 314.25079345703125" stroke-width="5.641833782196045" fill="none" stroke="rgb(90, 100, 214)" stroke-opacity="0.23355037" stroke-linecap="round" stroke-linejoin="round"/>
    <path d="M 233.6607208251953 219.54075622558594 C 232.49737548828125 248.51353454589844 253.91915893554688 233.863037109375 241.6904296875 256.4931640625" stroke-width="5.22802734375" fill="none" stroke="rgb(68, 210, 108)" stroke-opacity="0.40150964" stroke-linecap="round" stroke-linejoin="round"/>
    <path d="M 173.81809997558594 239.32196044921875 C 198.0858154296875 263.58416748046875 179.8612823486328 284.2994079589844 188.9582977294922 278.29339599609375 C 192.5092315673828 314.32952880859375 212.6378936767578 286.22711181640625 225.5892791748047 271.814453125" stroke-width="5.22802734375" fill="none" stroke="rgb(126, 142, 109)" stroke-opacity="0.34196228" stroke-linecap="round" stroke-linejoin="round"/>
    <path d="M 289.1273193359375 194.81690979003906 C 278.3825988769531 193.54710388183594 299.27606201171875 172.1417236328125 267.38092041015625 145.17596435546875 C 282.4891357421875 127.8085708618164 300.81195068359375 154.70120239257812 336.5372009277344 145.3942108154297 C 355.86358642578125 117.82844543457031 362.6759033203125 126.15457916259766 361.66357421875 120.53831481933594" stroke-width="5.22802734375" fill="none" stroke="rgb(168, 155, 255)" stroke-opacity="0.77113193" stroke-linecap="round" stroke-linejoin="round"/>
    <path d="M 156.618896484375 331.7922058105469 C 167.06187438964844 355.0125427246094 174.67724609375 355.3649597167969 177.4204864501953 321.7138671875" stroke-width="8.264227867126465" fill="none" stroke="rgb(231, 109, 186)" stroke-opacity="0.8525316" stroke-linecap="round" stroke-linejoin="round"/>
    <path d="M 100.85853576660156 316.25335693359375 C 134.0993194580078 319.9795227050781 146.8989715576172 351.760498046875 144.53684997558594 362.7086181640625 C 181.17471313476562 351.23724365234375 176.18359375 378.9835205078125 157.6259307861328 370.6041259765625" stroke-width="7.049182415008545" fill="none" stroke="rgb(1, 103, 157)" stroke-opacity="0.012345927" stroke-linecap="round" stroke-linejoin="round"/>
    <path d="M 287.0331115722656 188.1360321044922 C 296.5174560546875 206.39732360839844 292.34100341796875 214.8520050048828 288.460693359375 243.30137634277344 C 307.3497009277344 222.17111206054688 306.9304504394531 252.4501190185547 322.68902587890625 285.6790466308594" stroke-width="8.404464721679688" fill="none" stroke="rgb(177, 244, 171)" stroke-opacity="0.84903586" stroke-linecap="round" stroke-linejoin="round"/>
    <path d="M 286.4307556152344 195.2548370361328 C 271.98974609375 217.4453887939453 270.2115783691406 210.92489624023438 249.7392120361328 200.29904174804688" stroke-width="5.22802734375" fill="none" stroke="rgb(91, 40, 227)" stroke-opacity="0.32914945" stroke-linecap="round" stroke-linejoin="round"/>
    <path d="M 234.4302978515625 210.67672729492188 C 249.18406677246094 225.9828338623047 241.8966064453125 253.63677978515625 216.8371124267578 239.62319946289062" stroke-width="5.22802734375" fill="none" stroke="rgb(222, 230, 117)" stroke-opacity="0.6931267" stroke-linecap="round" stroke-linejoin="round"/>
    <path d="M 194.1817169189453 183.66412353515625 C 176.4431610107422 199.732666015625 156.23486328125 181.6367645263672 134.73568725585938 149.20889282226562 C 119.93071746826172 163.3940887451172 119.14558410644531 181.12744140625 124.4644546508789 188.12237548828125 C 90.1944351196289 180.21255493164062 112.99346160888672 199.37200927734375 139.47943115234375 192.89732360839844" stroke-width="8.252847671508789" fill="none" stroke="rgb(54, 254, 134)" stroke-opacity="0.7419547" stroke-linecap="round" stroke-linejoin="round"/>
    <path d="M 287.03375244140625 196.07017517089844 C 301.3497314453125 192.24569702148438 286.3398742675781 168.8011932373047 255.5628204345703 170.75250244140625" stroke-width="6.335986137390137" fill="none" stroke="rgb(204, 123, 133)" stroke-opacity="0.43595737" stroke-linecap="round" stroke-linejoin="round"/>
    <path d="M 250.04396057128906 421.5817565917969 C 232.58290100097656 411.00567626953125 242.25051879882812 414.2002868652344 237.69239807128906 396.1456604003906" stroke-width="7.8541975021362305" fill="none" stroke="rgb(223, 57, 167)" stroke-opacity="0.3397733" stroke-linecap="round" stroke-linejoin="round"/>
    <path d="M 548.275634765625 167.87677001953125 C 564.7990112304688 146.06863403320312 585.4555053710938 123.13375091552734 583.251953125 140.63894653320312" stroke-width="7.678888320922852" fill="none" stroke="rgb(187, 160, 241)" stroke-opacity="0.48649803" stroke-linecap="round" stroke-linejoin="round"/>
    <path d="M 144.34963989257812 353.6748046875 C 144.17916870117188 345.57501220703125 165.62210083007812 341.1907653808594 158.17327880859375 353.52972412109375" stroke-width="5.564638614654541" fill="none" stroke="rgb(11, 152, 226)" stroke-opacity="0.29807788" stroke-linecap="round" stroke-linejoin="round"/>
    <path d="M 368.936767578125 445.4264831542969 C 341.4212951660156 421.0249328613281 336.703369140625 444.2381591796875 333.4303894042969 429.82501220703125 C 307.29254150390625 422.8501892089844 288.052001953125 426.809326171875 268.40582275390625 438.1921691894531" stroke-width="7.565945148468018" fill="none" stroke="rgb(180, 241, 147)" stroke-opacity="0.7282977" stroke-linecap="round" stroke-linejoin="round"/>
    <path d="M 112.85509490966797 480.7626647949219 C 97.63570404052734 468.6984558105469 110.98809051513672 491.7573547363281 94.06095123291016 479.9068908691406" stroke-width="7.110171794891357" fill="none" stroke="rgb(74, 181, 165)" stroke-opacity="0.26116326" stroke-linecap="round" stroke-linejoin="round"/>
    <path d="M 278.7876892089844 41.3245735168457 C 258.05609130859375 48.04366683959961 237.9003448486328 73.01692962646484 260.4372863769531 74.07572174072266 C 287.5523681640625 75.755126953125 303.05615234375 58.347103118896484 288.7768249511719 57.574073791503906" stroke-width="7.034824371337891" fill="none" stroke="rgb(137, 172, 140)" stroke-opacity="0.44594994" stroke-linecap="round" stroke-linejoin="round"/>
    <path d="M 216.2557373046875 191.4745330810547 C 199.82749938964844 197.73379516601562 198.5825653076172 217.18443298339844 182.16986083984375 199.10198974609375 C 192.7822723388672 218.22439575195312 175.18475341796875 193.78233337402344 176.20535278320312 189.58529663085938 C 203.49256896972656 181.91143798828125 220.54776000976562 185.054931640625 243.87857055664062 200.40936279296875" stroke-width="6.999029159545898" fill="none" stroke="rgb(183, 19, 160)" stroke-opacity="0.69396895" stroke-linecap="round" stroke-linejoin="round"/>
    <path d="M 233.63931274414062 524.1844482421875 C 234.7893524169922 519.6820068359375 236.2020263671875 529.3546142578125 240.74388122558594 528.7634887695312" stroke-width="5.22802734375" fill="none" stroke="rgb(227, 118, 11)" stroke-opacity="0.8282119" stroke-linecap="round" stroke-linejoin="round"/>
    <path d="M 300.47271728515625 511.88525390625 C 293.00885009765625 528.3308715820312 265.02313232421875 535.52490234375 243.56243896484375 527.1489868164062" stroke-width="5.271138668060303" fill="none" stroke="rgb(124, 69, 162)" stroke-opacity="0.6219305" stroke-linecap="round" stroke-linejoin="round"/>
    <path d="M 565.5385131835938 435.4908447265625 C 542.7347412109375 444.7334899902344 533.35009765625 417.0391845703125 530.6736450195312 381.5364685058594 C 523.9196166992188 379.8606262207031 515.1240234375 398.6120910644531 499.1173095703125 408.9066162109375 C 500.483154296875 427.78680419921875 528.7039184570312 411.61602783203125 499.3974304199219 402.5180358886719" stroke-width="5.22802734375" fill="none" stroke="rgb(201, 120, 22)" stroke-opacity="0.2501689" stroke-linecap="round" stroke-linejoin="round"/>
    <path d="M 470.5498046875 523.4061889648438 C 480.06146240234375 535.914306640625 460.55511474609375 511.72869873046875 490.2288513183594 539.9241333007812" stroke-width="5.799160480499268" fill="none" stroke="rgb(0, 234, 186)" stroke-opacity="0.4256614" stroke-linecap="round" stroke-linejoin="round"/>
    <path d="M 77.90796661376953 15.625717163085938 C 107.89532470703125 -1.1725102663040161 103.55648040771484 10.826922416687012 126.53825378417969 11.092913627624512 C 157.7962646484375 10.78321647644043 162.7554473876953 29.94313621520996 143.2886199951172 38.985843658447266 C 136.06106567382812 55.17830276489258 127.21989440917969 36.757938385009766 131.0841064453125 43.47822570800781" stroke-width="5.22802734375" fill="none" stroke="rgb(220, 18, 162)" stroke-opacity="0.7409611" stroke-linecap="round" stroke-linejoin="round"/>
    <path d="M 555.0419921875 141.85806274414062 C 565.092041015625 169.2440948486328 566.6015014648438 178.08596801757812 548.7069702148438 197.0144805908203" stroke-width="8.628622055053711" fill="none" stroke="rgb(218, 188, 221)" stroke-opacity="0.09253237" stroke-linecap="round" stroke-linejoin="round"/>
    <path d="M 537.5775756835938 356.95172119140625 C 538.6275024414062 388.6116638183594 529.46240234375 371.8613586425781 523.3272094726562 351.9332275390625" stroke-width="5.22802734375" fill="none" stroke="rgb(195, 242, 155)" stroke-opacity="0.5213801" stroke-linecap="round" stroke-linejoin="round"/>
    <path d="M 40.23032760620117 441.32098388671875 C 30.97519302368164 433.9280700683594 33.156707763671875 420.9863586425781 7.408411502838135 391.9385681152344 C 18.958091735839844 381.58721923828125 -8.416370391845703 353.4911804199219 -10.853394508361816 349.7630615234375 C -3.451003313064575 355.0291442871094 -27.00936508178711 368.3529052734375 -14.9198637008667 341.5165710449219" stroke-width="5.22802734375" fill="none" stroke="rgb(77, 174, 110)" stroke-opacity="0.8025843" stroke-linecap="round" stroke-linejoin="round"/>
    <path d="M 257.5899353027344 129.68666076660156 C 249.34095764160156 119.66593933105469 235.79425048828125 146.10768127441406 254.02371215820312 127.08963775634766 C 236.85794067382812 138.50936889648438 250.57791137695312 147.33416748046875 276.3594970703125 176.7746124267578" stroke-width="5.22802734375" fill="none" stroke="rgb(88, 184, 65)" stroke-opacity="0.059983294" stroke-linecap="round" stroke-linejoin="round"/>
    <path d="M 314.100341796875 450.21466064453125 C 331.3291931152344 441.2010498046875 340.4066162109375 463.0904541015625 338.6639709472656 505.9126892089844 C 333.35382080078125 529.306884765625 335.21881103515625 540.4890747070312 323.60528564453125 514.5311889648438 C 303.6720886230469 497.5274353027344 287.5697326660156 465.2042236328125 276.7243957519531 446.9031066894531" stroke-width="6.136891841888428" fill="none" stroke="rgb(37, 231, 117)" stroke-opacity="0.41635105" stroke-linecap="round" stroke-linejoin="round"/>
    <path d="M 221.73646545410156 545.1484375 C 237.44290161132812 562.79052734375 240.89305114746094 564.4151611328125 216.60537719726562 562.106201171875 C 207.88674926757812 578.0457153320312 181.9152374267578 571.287109375 164.8363037109375 579.1873779296875" stroke-width="5.637068748474121" fill="none" stroke="rgb(0, 19, 115)" stroke-opacity="0.47588083" stroke-linecap="round" stroke-linejoin="round"/>
    <path d="M 251.88983154296875 247.29010009765625 C 277.2958068847656 260.8480529785156 272.3507385253906 260.5946960449219 251.52627563476562 250.39898681640625 C 240.72866821289062 239.79820251464844 227.955078125 221.45701599121094 241.2478485107422 192.6196746826172" stroke-width="6.1789093017578125" fill="none" stroke="rgb(66, 99, 249)" stroke-opacity="0.8609641" stroke-linecap="round" stroke-linejoin="round"/>
    <path d="M 494.4979553222656 468.2474060058594 C 511.3697204589844 467.2180480957031 519.2500610351562 456.68304443359375 509.95196533203125 466.94525146484375 C 536.5507202148438 454.0715026855469 563.333251953125 440.7328796386719 579.9178466796875 408.6500244140625" stroke-width="5.22802734375" fill="none" stroke="rgb(12, 108, 103)" stroke-opacity="0.65564436" stroke-linecap="round" stroke-linejoin="round"/>
    <path d="M 429.72650146484375 263.68389892578125 C 425.4029235839844 252.73695373535156 412.1343078613281 229.096923828125 395.7749328613281 260.8943786621094" stroke-width="5.4188079833984375" fill="none" stroke="rgb(174, 198, 40)" stroke-opacity="0.1670452" stroke-linecap="round" stroke-linejoin="round"/>
    <path d="M 171.8903350830078 568.2656860351562 C 168.3168487548828 566.2403564453125 190.2950439453125 592.5025634765625 187.2131805419922 571.2042846679688 C 169.4226531982422 556.7254028320312 148.9213104248047 553.2986450195312 160.6451416015625 549.16845703125 C 154.18296813964844 522.4843139648438 173.96316528320312 551.48193359375 167.41415405273438 579.3046264648438" stroke-width="5.22802734375" fill="none" stroke="rgb(103, 210, 224)" stroke-opacity="0.4722689" stroke-linecap="round" stroke-linejoin="round"/>
    <path d="M 249.6448974609375 253.24644470214844 C 244.5792236328125 244.3857421875 255.84271240234375 225.37875366210938 246.28135681152344 225.94793701171875 C 230.49887084960938 208.21751403808594 211.0001678466797 203.33335876464844 252.69590759277344 175.56036376953125" stroke-width="7.4005818367004395" fill="none" stroke="rgb(130, 231, 202)" stroke-opacity="0.903317" stroke-linecap="round" stroke-linejoin="round"/>
    <path d="M 271.3338623046875 374.15155029296875 C 250.3180694580078 380.58160400390625 218.17538452148438 383.86309814453125 211.6844024658203 394.3240966796875 C 197.67013549804688 366.6684265136719 171.08424377441406 391.9999084472656 194.66082763671875 390.89337158203125" stroke-width="8.752668380737305" fill="none" stroke="rgb(255, 138, 186)" stroke-opacity="0.120098054" stroke-linecap="round" stroke-linejoin="round"/>
    <path d="M 519.4601440429688 146.79421997070312 C 556.2550048828125 143.45626831054688 580.4962768554688 157.85797119140625 585.54345703125 152.01907348632812 C 581.53125 131.49090576171875 574.67041015625 155.4298553466797 601.9612426757812 128.96124267578125" stroke-width="5.22802734375" fill="none" stroke="rgb(17, 229, 153)" stroke-opacity="0.07044545" stroke-linecap="round" stroke-linejoin="round"/>
    <path d="M 534.76318359375 192.05787658691406 C 555.833740234375 169.74806213378906 550.78369140625 162.2517852783203 528.9526977539062 159.96762084960938 C 541.822998046875 168.17471313476562 564.5401611328125 168.78684997558594 556.6404418945312 161.3606719970703" stroke-width="8.029606819152832" fill="none" stroke="rgb(70, 1, 238)" stroke-opacity="0.27493963" stroke-linecap="round" stroke-linejoin="round"/>
  </g>
</svg>
