<?xml version="1.0" ?>
<svg xmlns="http://www.w3.org/2000/svg" version="1.1" width="925.0" height="925.0">
  <defs/>
  <g>
    <path d="M 107.02789306640625 106.66303253173828 C 111.1458740234375 136.45057678222656 110.43872833251953 150.11016845703125 110.6571044921875 170.37637329101562" stroke-width="6.161084175109863" fill="none" stroke="rgb(104, 105, 108)" stroke-opacity="1.0" stroke-linecap="round" stroke-linejoin="round"/>
    <path d="M 70.67149353027344 157.86839294433594 C 84.61549377441406 149.13002014160156 92.37422943115234 148.39671325683594 108.819580078125 140.29063415527344 C 119.91390991210938 141.85525512695312 143.1661834716797 141.51023864746094 150.47515869140625 138.63021850585938" stroke-width="5.84235954284668" fill="none" stroke="rgb(108, 104, 108)" stroke-opacity="1.0" stroke-linecap="round" stroke-linejoin="round"/>
    <path d="M 75.07140350341797 123.65779876708984 C 71.85933685302734 143.007080078125 68.7392578125 162.1981201171875 66.468017578125 181.3659210205078" stroke-width="5.848119735717773" fill="none" stroke="rgb(145, 147, 144)" stroke-opacity="1.0" stroke-linecap="round" stroke-linejoin="round"/>
    <path d="M 126.33332061767578 125.10665893554688 C 129.6235809326172 155.71334838867188 128.90777587890625 169.373779296875 129.93563842773438 188.0214385986328" stroke-width="6.151785850524902" fill="none" stroke="rgb(144, 145, 147)" stroke-opacity="1.0" stroke-linecap="round" stroke-linejoin="round"/>
    <path d="M 149.61293029785156 109.1521987915039 C 151.25303649902344 132.52061462402344 152.60638427734375 151.88816833496094 154.03567504882812 172.03317260742188" stroke-width="5.85263729095459" fill="none" stroke="rgb(144, 148, 144)" stroke-opacity="1.0" stroke-linecap="round" stroke-linejoin="round"/>
    <path d="M 70.66527557373047 158.6774139404297 C 88.74890899658203 163.10409545898438 108.47750854492188 159.8991241455078 128.09817504882812 157.9469757080078 C 139.96580505371094 153.88706970214844 147.24887084960938 149.80116271972656 152.80792236328125 144.25372314453125" stroke-width="6.152647018432617" fill="none" stroke="rgb(144, 147, 147)" stroke-opacity="1.0" stroke-linecap="round" stroke-linejoin="round"/>
    <path d="M 132.7471160888672 125.02889251708984 C 133.50230407714844 126.55427551269531 157.24549865722656 104.79664611816406 152.6217803955078 98.00892639160156 C 149.0207977294922 91.59347534179688 111.6809310913086 89.56194305419922 98.23717498779297 96.5115737915039 C 86.88206481933594 101.66014862060547 65.16499328613281 113.92344665527344 67.63186645507812 121.61170196533203 C 70.75990295410156 129.30833435058594 133.38558959960938 125.69815063476562 132.74794006347656 125.06321716308594" stroke-width="6.0900044441223145" fill="none" stroke="rgb(133, 30, 26)" stroke-opacity="1.0" stroke-linecap="round" stroke-linejoin="round"/>
    <path d="M 140.2350311279297 101.67939758300781 C 130.21194458007812 99.62672424316406 119.72211456298828 99.21736145019531 109.34503936767578 98.5473861694336 C 102.8982925415039 101.04827117919922 85.29692077636719 113.72222137451172 81.1980209350586 116.8433609008789 C 93.56224822998047 117.63873291015625 123.29247283935547 104.85783386230469 133.0749969482422 111.40550231933594" stroke-width="20.162256240844727" fill="none" stroke="rgb(238, 0, 0)" stroke-opacity="1.0" stroke-linecap="round" stroke-linejoin="round"/>
    <path d="M 81.39219665527344 121.05668640136719 C 115.173095703125 126.44315338134766 141.26458740234375 121.9674072265625 147.1467742919922 104.4929428100586" stroke-width="10.1514892578125" fill="none" stroke="rgb(103, 25, 22)" stroke-opacity="1.0" stroke-linecap="round" stroke-linejoin="round"/>
    <path d="M 152.02964782714844 143.19798278808594 C 161.95936584472656 148.8282012939453 161.85202026367188 141.38082885742188 155.76548767089844 138.02163696289062" stroke-width="2.295931577682495" fill="none" stroke="rgb(228, 184, 245)" stroke-opacity="1.0" stroke-linecap="round" stroke-linejoin="round"/>
    <path d="M 126.88192749023438 158.11004638671875 C 138.78907775878906 158.2406463623047 131.27484130859375 152.4282684326172 120.29212188720703 152.76637268066406" stroke-width="2.0419163703918457" fill="none" stroke="rgb(132, 75, 222)" stroke-opacity="0.41687575" stroke-linecap="round" stroke-linejoin="round"/>
    <path d="M 132.04061889648438 112.90225219726562 C 130.16485595703125 121.61280822753906 128.0731201171875 120.61064147949219 118.3214111328125 131.15753173828125 C 126.78955078125 123.38790130615234 123.86637878417969 125.65816497802734 130.27259826660156 116.04593658447266" stroke-width="2.0" fill="none" stroke="rgb(85, 243, 99)" stroke-opacity="0.44973308" stroke-linecap="round" stroke-linejoin="round"/>
    <path d="M 72.293212890625 158.87901306152344 C 81.76131439208984 155.7716827392578 86.31165313720703 164.54571533203125 93.26314544677734 170.5758819580078" stroke-width="2.0" fill="none" stroke="rgb(104, 157, 19)" stroke-opacity="0.9246212" stroke-linecap="round" stroke-linejoin="round"/>
    <path d="M 98.09406280517578 95.5728530883789 C 102.14212799072266 89.46334838867188 108.34555053710938 87.39965057373047 101.07522583007812 96.02984619140625 C 112.12919616699219 93.1026382446289 105.09757995605469 96.08207702636719 110.54411315917969 106.44658660888672 C 120.40840148925781 105.41390228271484 119.73351287841797 111.20693969726562 113.08539581298828 120.0816421508789" stroke-width="2.0" fill="none" stroke="rgb(9, 144, 40)" stroke-opacity="0.83445024" stroke-linecap="round" stroke-linejoin="round"/>
    <path d="M 97.67256927490234 95.81558990478516 C 86.35284423828125 91.51879119873047 85.18462371826172 89.67190551757812 89.30706787109375 89.21273803710938" stroke-width="2.0" fill="none" stroke="rgb(87, 233, 101)" stroke-opacity="0.632755" stroke-linecap="round" stroke-linejoin="round"/>
    <path d="M 154.74636840820312 136.36849975585938 C 163.35748291015625 128.5781707763672 153.0589141845703 130.89772033691406 157.52645874023438 132.40248107910156" stroke-width="2.0" fill="none" stroke="rgb(111, 193, 127)" stroke-opacity="0.43842554" stroke-linecap="round" stroke-linejoin="round"/>
    <path d="M 110.91585540771484 120.76472473144531 C 121.00289916992188 114.26945495605469 128.4989013671875 119.10054016113281 137.07534790039062 121.70342254638672 C 139.2024383544922 109.40419006347656 149.46214294433594 106.41458129882812 146.611328125 115.6415786743164" stroke-width="2.2238762378692627" fill="none" stroke="rgb(166, 218, 19)" stroke-opacity="0.90059453" stroke-linecap="round" stroke-linejoin="round"/>
    <path d="M 88.4221420288086 89.72746276855469 C 84.9743881225586 95.59139251708984 89.46925354003906 87.8573989868164 80.44107818603516 91.27690124511719" stroke-width="2.687410831451416" fill="none" stroke="rgb(87, 50, 112)" stroke-opacity="0.98669785" stroke-linecap="round" stroke-linejoin="round"/>
    <path d="M 89.3134536743164 89.14936828613281 C 98.3174819946289 83.14124298095703 104.5803451538086 70.55054473876953 107.37397766113281 60.59890365600586" stroke-width="2.442755937576294" fill="none" stroke="rgb(125, 185, 19)" stroke-opacity="0.49671778" stroke-linecap="round" stroke-linejoin="round"/>
    <path d="M 129.85240173339844 115.908935546875 C 127.8142318725586 113.07089233398438 125.77446746826172 120.1238784790039 138.3192596435547 121.6187515258789 C 140.40667724609375 128.4097442626953 136.08192443847656 135.26187133789062 130.14991760253906 133.0555877685547 C 121.21372985839844 125.18074035644531 130.6056671142578 120.72232818603516 120.69861602783203 110.53404998779297" stroke-width="2.0" fill="none" stroke="rgb(187, 39, 59)" stroke-opacity="0.87218904" stroke-linecap="round" stroke-linejoin="round"/>
    <path d="M 120.3025894165039 152.33230590820312 C 125.67198181152344 154.34922790527344 114.26277923583984 145.36585998535156 117.53022766113281 139.67703247070312" stroke-width="2.358494520187378" fill="none" stroke="rgb(76, 104, 18)" stroke-opacity="0.57974833" stroke-linecap="round" stroke-linejoin="round"/>
    <path d="M 114.860595703125 136.15003967285156 C 106.98127746582031 122.8656005859375 107.14968872070312 136.1757049560547 97.45238494873047 145.74913024902344 C 103.5035171508789 131.6003875732422 109.17211151123047 138.69602966308594 113.25147247314453 141.11997985839844" stroke-width="2.760132312774658" fill="none" stroke="rgb(165, 88, 206)" stroke-opacity="0.7384827" stroke-linecap="round" stroke-linejoin="round"/>
    <path d="M 194.45706176757812 121.37843322753906 C 193.49713134765625 128.51487731933594 187.36146545410156 135.1317596435547 182.67205810546875 148.443603515625" stroke-width="2.5444142818450928" fill="none" stroke="rgb(212, 98, 12)" stroke-opacity="0.115979135" stroke-linecap="round" stroke-linejoin="round"/>
    <path d="M 10.865822792053223 67.98176574707031 C 11.576251983642578 71.87954711914062 10.371776580810547 64.73381042480469 8.532641410827637 76.32234954833984 C 11.70823860168457 78.68485260009766 8.543891906738281 73.87512969970703 10.834339141845703 72.04002380371094" stroke-width="2.100325584411621" fill="none" stroke="rgb(128, 21, 125)" stroke-opacity="0.31497458" stroke-linecap="round" stroke-linejoin="round"/>
    <path d="M 161.41659545898438 134.6263885498047 C 153.32481384277344 130.2652587890625 141.25184631347656 135.08782958984375 147.138671875 143.45193481445312 C 146.21360778808594 153.38406372070312 150.1987762451172 148.50241088867188 153.3499755859375 138.18002319335938 C 161.6654052734375 142.3589630126953 154.25204467773438 151.0331573486328 150.41246032714844 140.4371795654297" stroke-width="2.0" fill="none" stroke="rgb(33, 74, 192)" stroke-opacity="0.74404514" stroke-linecap="round" stroke-linejoin="round"/>
    <path d="M 141.11517333984375 65.73868560791016 C 134.58328247070312 57.816951751708984 142.5036163330078 63.43096160888672 147.68240356445312 58.83182907104492" stroke-width="2.0" fill="none" stroke="rgb(63, 121, 174)" stroke-opacity="0.0" stroke-linecap="round" stroke-linejoin="round"/>
    <path d="M 202.9291229248047 180.23834228515625 C 190.4122314453125 184.4300994873047 193.8172607421875 178.4403076171875 182.59576416015625 189.5346221923828" stroke-width="2.7557272911071777" fill="none" stroke="rgb(5, 220, 21)" stroke-opacity="0.078669645" stroke-linecap="round" stroke-linejoin="round"/>
    <path d="M 47.71053695678711 151.74411010742188 C 46.299095153808594 146.4257354736328 38.745506286621094 140.4024200439453 49.798744201660156 137.1320037841797 C 51.30791091918945 126.63984680175781 54.0803337097168 129.6982879638672 62.8503303527832 137.47683715820312 C 55.75265121459961 149.97946166992188 53.40550231933594 147.55133056640625 48.37601852416992 156.71595764160156" stroke-width="2.556715965270996" fill="none" stroke="rgb(81, 244, 181)" stroke-opacity="0.7549965" stroke-linecap="round" stroke-linejoin="round"/>
    <path d="M 68.79151916503906 40.725650787353516 C 61.86002731323242 33.035667419433594 51.4112548828125 27.793102264404297 46.4215087890625 27.127696990966797 C 56.35554122924805 34.64878463745117 57.721168518066406 40.34395217895508 50.362831115722656 34.438575744628906" stroke-width="2.2179341316223145" fill="none" stroke="rgb(206, 40, 14)" stroke-opacity="0.302109" stroke-linecap="round" stroke-linejoin="round"/>
    <path d="M 163.32138061523438 56.753963470458984 C 162.31365966796875 51.252777099609375 158.8666534423828 44.56406021118164 163.6840057373047 43.17623519897461 C 154.38998413085938 51.098175048828125 147.2389678955078 48.66181182861328 149.5883331298828 35.119537353515625" stroke-width="2.0" fill="none" stroke="rgb(77, 174, 0)" stroke-opacity="0.44428584" stroke-linecap="round" stroke-linejoin="round"/>
    <path d="M 48.301170349121094 19.643831253051758 C 57.85768127441406 20.605188369750977 50.57074737548828 14.975560188293457 53.1417121887207 22.712833404541016 C 54.51543426513672 21.299623489379883 62.11962127685547 19.32499122619629 73.20379638671875 14.008498191833496" stroke-width="2.0" fill="none" stroke="rgb(184, 94, 98)" stroke-opacity="0.36435762" stroke-linecap="round" stroke-linejoin="round"/>
    <path d="M 124.0423812866211 65.21709442138672 C 126.27687072753906 66.9563217163086 118.01936340332031 65.6886978149414 117.6308364868164 76.47037506103516 C 121.69140625 70.61260986328125 129.0440673828125 63.010284423828125 118.2714614868164 64.1798324584961 C 121.92564392089844 66.23795318603516 120.98194122314453 58.50680160522461 116.95336151123047 45.38052749633789" stroke-width="2.6313929557800293" fill="none" stroke="rgb(181, 68, 153)" stroke-opacity="0.68125457" stroke-linecap="round" stroke-linejoin="round"/>
  </g>
</svg>
