<?xml version="1.0" ?>
<svg xmlns="http://www.w3.org/2000/svg" version="1.1" width="1104.0" height="1104.0">
  <defs/>
  <g>
    <path d="M 83.17882537841797 65.50589752197266 C 80.45152282714844 69.3210220336914 65.66400909423828 72.13887786865234 64.23799896240234 73.17793273925781 C 62.83174514770508 74.19490051269531 60.939231872558594 83.40615844726562 62.64340591430664 84.92847442626953 C 64.08197784423828 86.18339538574219 70.51112365722656 82.80695343017578 74.78450775146484 86.5532455444336 C 85.37749481201172 95.36896514892578 88.23702239990234 105.03562927246094 101.28594970703125 85.45452117919922 C 102.49482727050781 84.2031021118164 112.48410034179688 87.83074188232422 113.83856201171875 86.6155014038086 C 114.73115539550781 84.94868469238281 116.71337127685547 77.0799331665039 113.16714477539062 75.31108093261719 C 110.05506134033203 73.57218933105469 94.9036636352539 68.53253936767578 93.56183624267578 66.1873779296875 C 92.42367553710938 64.0966567993164 93.73558044433594 60.3485221862793 88.43062591552734 60.2215576171875 C 83.55502319335938 59.670143127441406 84.69671630859375 61.76399230957031 84.06532287597656 64.29456329345703" stroke-width="5.042144298553467" fill="none" stroke="rgb(238, 210, 165)" stroke-opacity="1.0" stroke-linecap="round" stroke-linejoin="round"/>
    <path d="M 87.91860961914062 66.93009948730469 C 87.66695404052734 71.79960632324219 67.8468017578125 73.920166015625 69.95738983154297 80.0300521850586 C 86.01105499267578 81.5714111328125 85.72301483154297 101.83831024169922 100.33940887451172 85.71768951416016 C 101.96482849121094 83.90657043457031 107.31970977783203 81.06320190429688 106.88001251220703 80.44605255126953 C 106.03652954101562 80.23271179199219 88.13096618652344 71.2803726196289 88.68913269042969 70.17698669433594" stroke-width="11.3319673538208" fill="none" stroke="rgb(238, 210, 165)" stroke-opacity="1.0" stroke-linecap="round" stroke-linejoin="round"/>
    <path d="M 87.80159759521484 81.58724975585938 C 82.42134857177734 84.99523162841797 84.76490020751953 96.7169189453125 85.88790130615234 96.9071273803711 C 87.00837707519531 97.01432800292969 89.78791809082031 84.39352416992188 89.70906829833984 82.58557891845703 C 90.03977966308594 80.77436065673828 81.89948272705078 83.27259063720703 81.91815948486328 84.24664306640625" stroke-width="20.052989959716797" fill="none" stroke="rgb(237, 211, 165)" stroke-opacity="1.0" stroke-linecap="round" stroke-linejoin="round"/>
    <path d="M 58.128143310546875 79.56720733642578 C 57.319149017333984 83.49080657958984 57.304420471191406 87.19072723388672 57.86090850830078 87.13233947753906 C 58.684478759765625 86.88487243652344 57.60016632080078 82.48601531982422 58.9417724609375 82.47996520996094 C 60.548648834228516 82.31730651855469 59.83979415893555 86.75508117675781 60.404212951660156 86.05992889404297 C 61.221744537353516 85.59745788574219 60.264404296875 82.39541625976562 62.40407180786133 83.5950698852539 C 64.09492492675781 84.7850570678711 64.0927734375 86.85325622558594 65.89061737060547 85.3663330078125 C 67.69226837158203 83.87902069091797 67.82592010498047 83.75909423828125 68.40235900878906 84.72241973876953" stroke-width="4.201988697052002" fill="none" stroke="rgb(0, 114, 206)" stroke-opacity="1.0" stroke-linecap="round" stroke-linejoin="round"/>
    <path d="M 67.56537628173828 88.90474700927734 C 80.63874053955078 87.69049835205078 79.3344955444336 87.65091705322266 82.99577331542969 91.38014221191406 C 85.59435272216797 93.70391845703125 102.26747131347656 105.99386596679688 101.5061264038086 107.57234191894531 C 101.14690399169922 109.59815216064453 100.69593048095703 111.4449234008789 92.94220733642578 110.73439025878906 C 86.12863159179688 110.02369689941406 74.3306884765625 110.1713638305664 73.83346557617188 108.93160247802734 C 73.79708099365234 106.75648498535156 69.49842071533203 91.2158432006836 70.2140121459961 91.7406997680664 C 70.46676635742188 91.7966537475586 78.71501159667969 92.51502990722656 80.9624252319336 94.40161895751953 C 83.21391296386719 96.28425598144531 97.87535858154297 106.58360290527344 97.16568756103516 107.30998992919922 C 96.45610809326172 107.56983947753906 78.64051818847656 107.86636352539062 77.55526733398438 107.2509536743164 C 76.47593688964844 106.16618347167969 72.30757904052734 97.55062103271484 73.84980773925781 95.67855072021484 C 75.85690307617188 94.26321411132812 90.96870422363281 104.82793426513672 90.6052017211914 104.82489776611328 C 90.01921844482422 105.2951431274414 81.91206359863281 105.34083557128906 80.56858825683594 104.76522827148438 C 79.3426284790039 103.95841979980469 78.01448059082031 101.32964324951172 78.49708557128906 100.3926773071289 C 78.96160888671875 99.24146270751953 81.61939239501953 103.66560363769531 82.38359069824219 102.94867706298828" stroke-width="4.013445854187012" fill="none" stroke="rgb(0, 114, 209)" stroke-opacity="1.0" stroke-linecap="round" stroke-linejoin="round"/>
    <path d="M 92.04376220703125 91.79461669921875 C 97.376953125 87.53978729248047 101.80595397949219 86.48273468017578 104.7181625366211 87.32524871826172 C 109.06939697265625 89.08331298828125 104.68221282958984 103.50347137451172 103.95112609863281 103.88502502441406 C 103.23976135253906 104.26309204101562 95.69198608398438 95.4045639038086 95.71208190917969 94.40840148925781 C 95.26184844970703 93.17385864257812 102.26459503173828 88.81201171875 102.5801010131836 89.8405532836914 C 102.82445526123047 91.07571411132812 103.51927947998047 98.07125854492188 102.81746673583984 97.66722869873047 C 101.87767791748047 97.49445343017578 97.69461822509766 94.94569396972656 99.22611999511719 93.6665267944336 C 100.75070190429688 92.3921890258789 100.3851089477539 93.01885223388672 100.64960479736328 93.97915649414062" stroke-width="4.187469005584717" fill="none" stroke="rgb(0, 113, 206)" stroke-opacity="1.0" stroke-linecap="round" stroke-linejoin="round"/>
    <path d="M 109.66786193847656 83.40946197509766 C 117.04683685302734 79.86400604248047 118.63530731201172 77.202392578125 118.1745376586914 78.44834899902344 C 118.19073486328125 79.69689178466797 117.13807678222656 81.75736999511719 116.36618041992188 82.2599868774414 C 115.60665130615234 82.76828002929688 116.37578582763672 85.0796127319336 114.8493423461914 85.26964569091797 C 113.2994384765625 85.43801879882812 110.05452728271484 85.04769897460938 110.58766174316406 84.20585632324219 C 112.06075286865234 83.82916259765625 113.35758209228516 84.62387084960938 114.26615142822266 83.52861785888672" stroke-width="4.011821269989014" fill="none" stroke="rgb(0, 114, 206)" stroke-opacity="1.0" stroke-linecap="round" stroke-linejoin="round"/>
    <path d="M 73.92094421386719 114.20167541503906 C 83.11302947998047 114.9282455444336 89.11066436767578 115.40606689453125 92.55797576904297 115.12042236328125 C 96.08250427246094 114.84395599365234 101.46195220947266 114.76107025146484 103.2874526977539 113.7575454711914" stroke-width="4.202632904052734" fill="none" stroke="rgb(0, 111, 209)" stroke-opacity="1.0" stroke-linecap="round" stroke-linejoin="round"/>
    <path d="M 59.03537368774414 75.25334167480469 C 59.76762390136719 77.94556427001953 59.856624603271484 82.166015625 67.40585327148438 83.3714599609375 C 75.8497543334961 84.27658081054688 77.76713562011719 83.96134185791016 81.20733642578125 86.71161651611328 C 85.09188842773438 89.05905151367188 102.0285873413086 103.80067443847656 103.55769348144531 106.5045394897461 C 107.4862289428711 112.22440338134766 100.83830261230469 112.75192260742188 93.24423217773438 113.09636688232422 C 85.69255065917969 113.90309143066406 72.64037322998047 111.82667541503906 71.53429412841797 111.32949829101562 C 70.4222183227539 110.839111328125 66.98619842529297 91.43794250488281 66.38143920898438 87.87647247314453" stroke-width="2.360501289367676" fill="none" stroke="rgb(0, 10, 92)" stroke-opacity="1.0" stroke-linecap="round" stroke-linejoin="round"/>
    <path d="M 59.15468978881836 74.8672103881836 C 57.64055633544922 77.10750579833984 55.069419860839844 80.6328353881836 55.319847106933594 81.80604553222656 C 55.13008117675781 82.49725341796875 54.32836151123047 85.04851531982422 56.04013442993164 85.35755157470703 C 57.277645111083984 85.66128540039062 56.30113983154297 89.4356918334961 57.56169891357422 90.21900177001953 C 58.82647705078125 90.53434753417969 63.26129913330078 87.59703826904297 70.10004425048828 86.14884948730469 C 76.9288330078125 84.65364074707031 77.63969421386719 84.96481323242188 79.64238739013672 86.41028594970703" stroke-width="2.3660738468170166" fill="none" stroke="rgb(0, 10, 92)" stroke-opacity="1.0" stroke-linecap="round" stroke-linejoin="round"/>
    <path d="M 88.85272979736328 91.74812316894531 C 92.47261810302734 88.16436767578125 94.8905029296875 84.75908660888672 99.75182342529297 84.19200134277344 C 104.60552978515625 83.58362579345703 109.50419616699219 85.42337036132812 110.2233657836914 89.48822784423828 C 110.55635833740234 93.57502746582031 105.24504852294922 107.90924835205078 104.54776763916016 110.17088317871094" stroke-width="2.3665988445281982" fill="none" stroke="rgb(0, 10, 92)" stroke-opacity="1.0" stroke-linecap="round" stroke-linejoin="round"/>
    <path d="M 105.288330078125 84.26728057861328 C 116.0887222290039 77.3715591430664 116.57135009765625 77.56574249267578 118.21109008789062 75.9163589477539" stroke-width="2.189288854598999" fill="none" stroke="rgb(0, 10, 92)" stroke-opacity="1.0" stroke-linecap="round" stroke-linejoin="round"/>
    <path d="M 118.5030746459961 76.05894470214844 C 120.90300750732422 76.64625549316406 123.89159393310547 74.90565490722656 122.07754516601562 78.29767608642578 C 120.32218170166016 81.23857116699219 119.64879608154297 79.6985092163086 119.62614440917969 81.7974624633789 C 119.55640411376953 84.83544158935547 118.08381652832031 82.64570617675781 117.82548522949219 85.23001861572266 C 117.0989990234375 87.81471252441406 115.47657012939453 89.29615783691406 109.18346405029297 87.5914535522461" stroke-width="2.1987664699554443" fill="none" stroke="rgb(0, 10, 95)" stroke-opacity="0.99886835" stroke-linecap="round" stroke-linejoin="round"/>
    <path d="M 70.9964828491211 111.0301513671875 C 72.798583984375 116.48262023925781 72.14628601074219 116.44248962402344 73.825439453125 117.27591705322266 C 75.01304626464844 117.74890899658203 102.05487060546875 117.98023223876953 103.40670776367188 116.45297241210938 C 106.84642028808594 113.43494415283203 105.77875518798828 112.20265197753906 104.42765808105469 111.1729507446289" stroke-width="2.343562126159668" fill="none" stroke="rgb(0, 7, 95)" stroke-opacity="1.0" stroke-linecap="round" stroke-linejoin="round"/>
    <path d="M 59.72137451171875 85.43142700195312 C 59.699459075927734 88.02281951904297 67.78506469726562 96.33621215820312 73.32202911376953 92.13114166259766 C 75.46003723144531 98.1807861328125 79.32421875 95.29508209228516 86.51022338867188 97.14108276367188" stroke-width="1.5848214626312256" fill="none" stroke="rgb(24, 227, 180)" stroke-opacity="0.79033303" stroke-linecap="round" stroke-linejoin="round"/>
    <path d="M 103.68941497802734 113.54390716552734 C 106.64942932128906 110.96927642822266 113.52757263183594 119.3204345703125 113.54984283447266 117.01826477050781 C 108.55777740478516 119.86030578613281 119.3666000366211 115.78124237060547 117.0108413696289 113.09659576416016 C 119.27547454833984 106.43285369873047 117.02064514160156 112.10406494140625 119.16930389404297 106.74240112304688" stroke-width="1.5848214626312256" fill="none" stroke="rgb(53, 17, 161)" stroke-opacity="0.40372378" stroke-linecap="round" stroke-linejoin="round"/>
    <path d="M 103.97159576416016 113.0608139038086 C 106.69931030273438 107.87494659423828 109.55783081054688 107.84232330322266 116.3211669921875 102.56303405761719" stroke-width="2.0094456672668457" fill="none" stroke="rgb(109, 20, 157)" stroke-opacity="0.029204594" stroke-linecap="round" stroke-linejoin="round"/>
    <path d="M 70.02125549316406 111.783447265625 C 76.89717102050781 112.77332305908203 83.86431884765625 116.59872436523438 86.5691146850586 115.27471923828125 C 86.91001892089844 113.7912368774414 90.29438018798828 116.6321792602539 90.63228607177734 118.18221282958984 C 96.29592895507812 120.17398071289062 96.39749145507812 128.43057250976562 89.84243774414062 126.01033020019531" stroke-width="2.0432565212249756" fill="none" stroke="rgb(92, 244, 65)" stroke-opacity="0.5055291" stroke-linecap="round" stroke-linejoin="round"/>
    <path d="M 89.69142150878906 126.27033996582031 C 96.84310150146484 119.81301879882812 96.50704193115234 112.82044219970703 88.17430877685547 103.41078186035156" stroke-width="1.9283853769302368" fill="none" stroke="rgb(96, 43, 114)" stroke-opacity="0.10297603" stroke-linecap="round" stroke-linejoin="round"/>
    <path d="M 91.5780029296875 126.25523376464844 C 84.13275146484375 125.7641372680664 79.65554809570312 133.8806915283203 80.2208480834961 132.26918029785156 C 73.21769714355469 123.37554168701172 80.85821533203125 118.03853607177734 79.28158569335938 110.02124786376953 C 70.81262969970703 106.59163665771484 66.1395492553711 108.80982971191406 57.3142204284668 106.3376693725586" stroke-width="1.5848214626312256" fill="none" stroke="rgb(195, 223, 195)" stroke-opacity="0.79532486" stroke-linecap="round" stroke-linejoin="round"/>
    <path d="M 115.5541000366211 102.50812530517578 C 116.57613372802734 98.84122467041016 117.69419860839844 92.64532470703125 116.17851257324219 98.61233520507812" stroke-width="1.9413800239562988" fill="none" stroke="rgb(27, 167, 214)" stroke-opacity="0.65874064" stroke-linecap="round" stroke-linejoin="round"/>
    <path d="M 119.24214172363281 107.60686492919922 C 127.40350341796875 109.19584655761719 122.53276824951172 106.84319305419922 119.61479187011719 112.78958892822266 C 112.4920654296875 109.41748809814453 115.3846664428711 111.71341705322266 121.84835815429688 104.4705581665039 C 118.36888885498047 106.00140380859375 120.63677978515625 109.04481506347656 128.98446655273438 104.74457550048828" stroke-width="2.051485776901245" fill="none" stroke="rgb(3, 202, 43)" stroke-opacity="0.28654528" stroke-linecap="round" stroke-linejoin="round"/>
    <path d="M 86.64574432373047 97.79737854003906 C 90.7303237915039 92.99053955078125 96.74955749511719 101.84893798828125 89.57538604736328 106.09735870361328 C 96.44251251220703 100.48249053955078 88.48401641845703 104.54793548583984 92.95128631591797 99.52250671386719 C 82.54878234863281 103.09701538085938 90.49134063720703 112.39774322509766 85.61040496826172 115.4901351928711" stroke-width="1.5848214626312256" fill="none" stroke="rgb(182, 176, 113)" stroke-opacity="0.20232072" stroke-linecap="round" stroke-linejoin="round"/>
    <path d="M 113.47683715820312 112.26689147949219 C 114.36396026611328 113.42816925048828 111.0572509765625 111.60859680175781 108.33527374267578 114.83946228027344 C 103.75053405761719 109.54631805419922 98.09368133544922 114.96391296386719 93.21318817138672 122.11188507080078" stroke-width="2.054490327835083" fill="none" stroke="rgb(174, 195, 80)" stroke-opacity="0.19635285" stroke-linecap="round" stroke-linejoin="round"/>
    <path d="M 135.05027770996094 171.37222290039062 C 141.84979248046875 171.34344482421875 147.1453857421875 168.45298767089844 139.83152770996094 164.62261962890625" stroke-width="1.5848214626312256" fill="none" stroke="rgb(232, 172, 70)" stroke-opacity="0.42655033" stroke-linecap="round" stroke-linejoin="round"/>
    <path d="M 43.729454040527344 139.31967163085938 C 52.12907409667969 136.3118438720703 57.243465423583984 131.52024841308594 53.93364715576172 136.09237670898438" stroke-width="1.5848214626312256" fill="none" stroke="rgb(206, 70, 133)" stroke-opacity="0.48628113" stroke-linecap="round" stroke-linejoin="round"/>
    <path d="M 42.20486068725586 126.69922637939453 C 35.53993225097656 125.27210998535156 37.84121322631836 124.26856231689453 33.7641716003418 123.85545349121094 C 25.819210052490234 116.39305877685547 18.18561363220215 121.78205871582031 17.215221405029297 114.86262512207031 C 23.790557861328125 122.1087875366211 24.204635620117188 116.31624603271484 29.45270538330078 115.26383972167969" stroke-width="1.5848214626312256" fill="none" stroke="rgb(110, 135, 113)" stroke-opacity="0.90201867" stroke-linecap="round" stroke-linejoin="round"/>
    <path d="M 42.03050231933594 105.30847930908203 C 39.787471771240234 100.9887924194336 48.2744140625 98.08613586425781 49.64741134643555 103.08319854736328" stroke-width="1.5848214626312256" fill="none" stroke="rgb(59, 255, 104)" stroke-opacity="0.23210788" stroke-linecap="round" stroke-linejoin="round"/>
    <path d="M 81.13377380371094 52.78152847290039 C 77.700927734375 57.14984130859375 84.9850082397461 62.68965530395508 87.87114715576172 60.20610046386719" stroke-width="1.9629547595977783" fill="none" stroke="rgb(161, 71, 247)" stroke-opacity="0.4069344" stroke-linecap="round" stroke-linejoin="round"/>
    <path d="M 25.514631271362305 76.05728912353516 C 33.32564163208008 77.13528442382812 35.24492645263672 86.36967468261719 36.298126220703125 78.52110290527344 C 31.699054718017578 73.68207550048828 36.1046028137207 73.59326171875 33.9880256652832 82.37057495117188 C 29.833261489868164 71.8321304321289 21.815664291381836 70.47502899169922 25.09864616394043 67.7397232055664" stroke-width="1.5848214626312256" fill="none" stroke="rgb(22, 20, 190)" stroke-opacity="0.49927756" stroke-linecap="round" stroke-linejoin="round"/>
    <path d="M 172.10546875 169.04893493652344 C 173.7210693359375 174.37103271484375 176.62350463867188 178.9654998779297 183.320556640625 178.2769317626953" stroke-width="1.5848214626312256" fill="none" stroke="rgb(82, 54, 182)" stroke-opacity="0.9131751" stroke-linecap="round" stroke-linejoin="round"/>
    <path d="M 88.75115966796875 38.20687484741211 C 86.99668884277344 46.19166564941406 79.77301025390625 39.869564056396484 81.24234771728516 48.46330261230469 C 74.28959655761719 47.18284225463867 78.04326629638672 39.1534309387207 76.43168640136719 45.054744720458984 C 70.05792999267578 42.26406478881836 72.12030792236328 46.44160461425781 77.39608764648438 44.61668395996094" stroke-width="1.8109171390533447" fill="none" stroke="rgb(70, 65, 225)" stroke-opacity="0.936518" stroke-linecap="round" stroke-linejoin="round"/>
  </g>
</svg>
