<?xml version="1.0" ?>
<svg xmlns="http://www.w3.org/2000/svg" version="1.1" width="956.0" height="956.0">
  <defs/>
  <g>
    <path d="M 41.242515563964844 75.7528305053711 C 68.62007141113281 84.14362335205078 96.91653442382812 81.06977081298828 97.12248229980469 77.12102508544922 C 98.09619903564453 74.71902465820312 66.87623596191406 64.5663070678711 43.94416046142578 71.10789489746094" stroke-width="1.3598861694335938" fill="none" stroke="rgb(83, 92, 85)" stroke-opacity="0.99813336" stroke-linecap="round" stroke-linejoin="round"/>
    <path d="M 69.63101959228516 76.59542083740234 C 68.52256774902344 61.463138580322266 67.31629943847656 46.51194763183594 70.6037368774414 31.5567626953125" stroke-width="1.1892671585083008" fill="none" stroke="rgb(167, 120, 28)" stroke-opacity="0.962235" stroke-linecap="round" stroke-linejoin="round"/>
    <path d="M 69.85977172851562 48.917503356933594 C 76.65186309814453 45.0128288269043 80.48698425292969 44.54050827026367 81.96287536621094 45.663726806640625" stroke-width="1.1892671585083008" fill="none" stroke="rgb(174, 119, 28)" stroke-opacity="0.961057" stroke-linecap="round" stroke-linejoin="round"/>
    <path d="M 66.80928802490234 57.92311096191406 C 57.9242057800293 54.3830451965332 59.10240173339844 46.008304595947266 53.840206146240234 45.77920150756836" stroke-width="1.4565106630325317" fill="none" stroke="rgb(172, 108, 17)" stroke-opacity="0.98745006" stroke-linecap="round" stroke-linejoin="round"/>
    <path d="M 71.0434799194336 31.306190490722656 C 71.30860137939453 23.831035614013672 78.4935531616211 20.89276123046875 80.97317504882812 19.403278350830078" stroke-width="1.1892671585083008" fill="none" stroke="rgb(172, 120, 17)" stroke-opacity="0.97357666" stroke-linecap="round" stroke-linejoin="round"/>
    <path d="M 68.9618148803711 30.865873336791992 C 66.06675720214844 23.538156509399414 65.07662200927734 23.715576171875 60.56976318359375 24.14096450805664" stroke-width="1.2506608963012695" fill="none" stroke="rgb(174, 107, 13)" stroke-opacity="0.995621" stroke-linecap="round" stroke-linejoin="round"/>
    <path d="M 61.87276077270508 23.072223663330078 C 61.8367919921875 22.83138084411621 62.651641845703125 19.658946990966797 62.42087173461914 19.88878059387207 C 61.06648635864258 18.972164154052734 59.84515380859375 18.17483139038086 59.8888053894043 18.556272506713867" stroke-width="1.194563388824463" fill="none" stroke="rgb(173, 119, 21)" stroke-opacity="0.9721796" stroke-linecap="round" stroke-linejoin="round"/>
    <path d="M 61.08268737792969 22.6157169342041 C 53.60505294799805 24.307920455932617 53.477386474609375 24.73624610900879 54.04605484008789 25.300792694091797" stroke-width="1.450010061264038" fill="none" stroke="rgb(166, 105, 17)" stroke-opacity="1.0" stroke-linecap="round" stroke-linejoin="round"/>
    <path d="M 82.04315948486328 45.60324478149414 C 82.22709655761719 45.50397872924805 80.94493865966797 43.16264343261719 80.98973083496094 42.08834457397461 C 81.6617202758789 41.32865524291992 83.03936767578125 40.735137939453125 83.27499389648438 40.917118072509766" stroke-width="1.4067060947418213" fill="none" stroke="rgb(166, 104, 16)" stroke-opacity="1.0" stroke-linecap="round" stroke-linejoin="round"/>
    <path d="M 81.29942321777344 46.9974365234375 C 87.73989868164062 49.24762725830078 88.81857299804688 49.166717529296875 88.81633758544922 48.78203201293945" stroke-width="1.1892671585083008" fill="none" stroke="rgb(171, 120, 25)" stroke-opacity="0.96297896" stroke-linecap="round" stroke-linejoin="round"/>
    <path d="M 79.13640594482422 18.990076065063477 C 79.1833724975586 18.786209106445312 81.64624786376953 19.419307708740234 82.86669158935547 18.370811462402344 C 83.82315063476562 18.83420181274414 84.75751495361328 19.839019775390625 84.91378021240234 19.306142807006836" stroke-width="1.339642882347107" fill="none" stroke="rgb(166, 104, 18)" stroke-opacity="1.0" stroke-linecap="round" stroke-linejoin="round"/>
    <path d="M 69.66165161132812 30.904401779174805 C 69.81871795654297 30.913511276245117 71.63142395019531 28.141447067260742 72.18224334716797 26.7595157623291 C 73.59880065917969 26.73462677001953 74.78433990478516 28.289926528930664 74.6714859008789 28.486953735351562" stroke-width="1.1892671585083008" fill="none" stroke="rgb(161, 119, 28)" stroke-opacity="0.96205246" stroke-linecap="round" stroke-linejoin="round"/>
    <path d="M 79.06993865966797 19.240007400512695 C 80.63751983642578 10.544304847717285 74.89942169189453 14.585331916809082 75.49591064453125 14.699896812438965" stroke-width="1.1892671585083008" fill="none" stroke="rgb(169, 108, 20)" stroke-opacity="0.98138547" stroke-linecap="round" stroke-linejoin="round"/>
    <path d="M 66.26465606689453 40.405216217041016 C 65.95208740234375 41.868492126464844 65.6683120727539 39.39411163330078 65.4922103881836 37.22785186767578 C 65.89875030517578 36.31179428100586 64.7960433959961 35.4710578918457 64.77568054199219 36.01736831665039" stroke-width="1.2224079370498657" fill="none" stroke="rgb(171, 106, 19)" stroke-opacity="0.97529054" stroke-linecap="round" stroke-linejoin="round"/>
    <path d="M 54.404911041259766 46.58744430541992 C 54.260501861572266 46.50505065917969 54.80694580078125 44.36460876464844 54.730934143066406 42.68852615356445 C 52.948604583740234 43.21352767944336 51.64991760253906 42.47739791870117 51.61183547973633 42.183719635009766" stroke-width="1.358540415763855" fill="none" stroke="rgb(170, 105, 21)" stroke-opacity="0.9989663" stroke-linecap="round" stroke-linejoin="round"/>
    <path d="M 54.354225158691406 47.09856033325195 C 49.95561599731445 52.00505447387695 48.25530242919922 50.22037124633789 47.80518341064453 49.15364074707031" stroke-width="1.2891287803649902" fill="none" stroke="rgb(174, 104, 14)" stroke-opacity="1.0" stroke-linecap="round" stroke-linejoin="round"/>
    <path d="M 45.473915100097656 50.76084899902344 C 43.20811080932617 52.4382438659668 41.20783233642578 56.485443115234375 38.98514175415039 58.05742645263672" stroke-width="1.1892671585083008" fill="none" stroke="rgb(37, 137, 22)" stroke-opacity="0.9618708" stroke-linecap="round" stroke-linejoin="round"/>
    <path d="M 44.458465576171875 49.683677673339844 C 37.098690032958984 51.88789367675781 39.260169982910156 56.6416015625 39.73332214355469 56.98847579956055" stroke-width="1.4756284952163696" fill="none" stroke="rgb(20, 137, 6)" stroke-opacity="1.0" stroke-linecap="round" stroke-linejoin="round"/>
    <path d="M 46.60298156738281 50.38185119628906 C 41.64690017700195 54.35712432861328 39.74187469482422 55.531742095947266 38.689022064208984 58.34479904174805" stroke-width="1.5091956853866577" fill="none" stroke="rgb(81, 238, 41)" stroke-opacity="1.0" stroke-linecap="round" stroke-linejoin="round"/>
    <path d="M 46.03168869018555 49.82097625732422 C 43.365821838378906 50.79269790649414 38.71486282348633 50.66044998168945 36.95402526855469 49.020206451416016" stroke-width="1.1892671585083008" fill="none" stroke="rgb(22, 132, 10)" stroke-opacity="0.98266405" stroke-linecap="round" stroke-linejoin="round"/>
    <path d="M 46.184814453125 47.78895950317383 C 39.38865661621094 44.62772750854492 36.777252197265625 49.302303314208984 36.78551483154297 49.70711898803711" stroke-width="1.2378865480422974" fill="none" stroke="rgb(19, 134, 24)" stroke-opacity="1.0" stroke-linecap="round" stroke-linejoin="round"/>
    <path d="M 47.22166442871094 49.09957504272461 C 43.077392578125 46.72247314453125 37.81143569946289 46.925804138183594 36.163818359375 49.31007766723633" stroke-width="1.256468653678894" fill="none" stroke="rgb(84, 239, 59)" stroke-opacity="0.964382" stroke-linecap="round" stroke-linejoin="round"/>
    <path d="M 53.162757873535156 26.41300392150879 C 50.65891647338867 27.535810470581055 44.45759201049805 27.83106231689453 43.425025939941406 26.409082412719727" stroke-width="1.1892671585083008" fill="none" stroke="rgb(19, 137, 18)" stroke-opacity="0.97643775" stroke-linecap="round" stroke-linejoin="round"/>
    <path d="M 51.867515563964844 25.798442840576172 C 46.92228698730469 21.421035766601562 44.35261154174805 25.88273048400879 44.303104400634766 26.238529205322266" stroke-width="1.1898778676986694" fill="none" stroke="rgb(19, 129, 10)" stroke-opacity="1.0" stroke-linecap="round" stroke-linejoin="round"/>
    <path d="M 54.62617111206055 25.86684799194336 C 49.02500915527344 23.413347244262695 46.828880310058594 23.524728775024414 44.19125747680664 24.81890869140625" stroke-width="1.1892671585083008" fill="none" stroke="rgb(79, 239, 60)" stroke-opacity="0.9887778" stroke-linecap="round" stroke-linejoin="round"/>
    <path d="M 52.865623474121094 27.44091033935547 C 52.767269134521484 31.224872589111328 51.59810256958008 35.044925689697266 49.17351150512695 35.532859802246094" stroke-width="1.436944842338562" fill="none" stroke="rgb(33, 135, 6)" stroke-opacity="0.9942304" stroke-linecap="round" stroke-linejoin="round"/>
    <path d="M 52.052833557128906 26.278539657592773 C 45.81086349487305 30.93158531188965 48.15812301635742 36.0379753112793 48.10103225708008 36.3327522277832" stroke-width="1.4452039003372192" fill="none" stroke="rgb(21, 130, 16)" stroke-opacity="0.9980261" stroke-linecap="round" stroke-linejoin="round"/>
    <path d="M 54.4781494140625 26.48712921142578 C 49.593772888183594 29.978988647460938 48.74586486816406 32.49513244628906 49.786685943603516 34.028411865234375" stroke-width="1.507249116897583" fill="none" stroke="rgb(80, 239, 50)" stroke-opacity="1.0" stroke-linecap="round" stroke-linejoin="round"/>
    <path d="M 49.70627975463867 41.387969970703125 C 48.77903366088867 44.73652648925781 44.83250045776367 46.06429672241211 40.28962707519531 45.34886932373047" stroke-width="1.5381783246994019" fill="none" stroke="rgb(19, 135, 7)" stroke-opacity="1.0" stroke-linecap="round" stroke-linejoin="round"/>
    <path d="M 50.238582611083984 41.477012634277344 C 42.81587219238281 39.199440002441406 41.365203857421875 44.13862609863281 41.078468322753906 45.26400375366211" stroke-width="1.5098984241485596" fill="none" stroke="rgb(19, 137, 11)" stroke-opacity="1.0" stroke-linecap="round" stroke-linejoin="round"/>
    <path d="M 52.17605972290039 42.685916900634766 C 45.75720977783203 41.9367790222168 42.528236389160156 42.6958122253418 42.778316497802734 43.19770812988281" stroke-width="1.1892671585083008" fill="none" stroke="rgb(85, 239, 58)" stroke-opacity="0.99448556" stroke-linecap="round" stroke-linejoin="round"/>
    <path d="M 51.0726318359375 40.15703201293945 C 47.368202209472656 39.801048278808594 43.45650100708008 38.55363845825195 43.03107833862305 36.44697952270508" stroke-width="1.212243676185608" fill="none" stroke="rgb(22, 134, 8)" stroke-opacity="0.99529135" stroke-linecap="round" stroke-linejoin="round"/>
    <path d="M 50.12699890136719 41.582584381103516 C 47.163330078125 33.54325485229492 43.925350189208984 35.524147033691406 43.279449462890625 36.23209762573242" stroke-width="1.2064485549926758" fill="none" stroke="rgb(25, 131, 20)" stroke-opacity="0.98763025" stroke-linecap="round" stroke-linejoin="round"/>
    <path d="M 51.76083755493164 40.58147048950195 C 48.45216751098633 36.65507888793945 45.99166488647461 35.05018997192383 44.17927169799805 35.09246826171875" stroke-width="1.24418044090271" fill="none" stroke="rgb(82, 236, 57)" stroke-opacity="1.0" stroke-linecap="round" stroke-linejoin="round"/>
    <path d="M 58.13261032104492 19.139415740966797 C 56.17508316040039 21.362010955810547 52.35281753540039 22.859643936157227 48.059242248535156 21.968170166015625" stroke-width="1.3221529722213745" fill="none" stroke="rgb(25, 136, 7)" stroke-opacity="1.0" stroke-linecap="round" stroke-linejoin="round"/>
    <path d="M 57.26172637939453 17.966732025146484 C 49.536773681640625 15.759023666381836 47.981319427490234 20.163951873779297 47.93227767944336 21.796892166137695" stroke-width="1.4848319292068481" fill="none" stroke="rgb(20, 119, 11)" stroke-opacity="1.0" stroke-linecap="round" stroke-linejoin="round"/>
    <path d="M 58.45134353637695 18.861557006835938 C 52.2713623046875 17.53046417236328 49.90437698364258 18.440141677856445 50.05012512207031 19.692686080932617" stroke-width="1.1892671585083008" fill="none" stroke="rgb(81, 239, 57)" stroke-opacity="0.9649784" stroke-linecap="round" stroke-linejoin="round"/>
    <path d="M 57.43879318237305 18.104928970336914 C 54.42137908935547 17.54912757873535 51.34763717651367 15.2090482711792 51.82759094238281 11.51535701751709" stroke-width="1.1892671585083008" fill="none" stroke="rgb(19, 137, 12)" stroke-opacity="1.0" stroke-linecap="round" stroke-linejoin="round"/>
    <path d="M 59.486663818359375 17.433439254760742 C 54.884029388427734 10.58614444732666 50.187686920166016 12.535362243652344 51.560081481933594 12.715669631958008" stroke-width="1.4013595581054688" fill="none" stroke="rgb(19, 135, 21)" stroke-opacity="1.0" stroke-linecap="round" stroke-linejoin="round"/>
    <path d="M 59.77565383911133 19.08364486694336 C 55.698394775390625 13.992955207824707 53.156978607177734 13.257028579711914 50.40367889404297 13.104537010192871" stroke-width="1.465907096862793" fill="none" stroke="rgb(80, 239, 57)" stroke-opacity="1.0" stroke-linecap="round" stroke-linejoin="round"/>
    <path d="M 72.15158081054688 13.383127212524414 C 70.02326965332031 15.690488815307617 66.45845031738281 18.180992126464844 62.88838195800781 16.51629066467285" stroke-width="1.4656734466552734" fill="none" stroke="rgb(32, 138, 6)" stroke-opacity="1.0" stroke-linecap="round" stroke-linejoin="round"/>
    <path d="M 73.4264144897461 13.217440605163574 C 65.43852233886719 11.201780319213867 64.12274169921875 16.103607177734375 65.04818725585938 17.557723999023438" stroke-width="1.3024952411651611" fill="none" stroke="rgb(25, 136, 13)" stroke-opacity="1.0" stroke-linecap="round" stroke-linejoin="round"/>
    <path d="M 75.62445831298828 14.97873592376709 C 69.34637451171875 14.963444709777832 66.27910614013672 15.6520357131958 63.553951263427734 16.06812858581543" stroke-width="1.4785680770874023" fill="none" stroke="rgb(87, 238, 44)" stroke-opacity="0.9948992" stroke-linecap="round" stroke-linejoin="round"/>
    <path d="M 73.44441223144531 12.7847900390625 C 70.3701400756836 12.270170211791992 66.67886352539062 10.103919982910156 65.63720703125 8.072239875793457" stroke-width="1.4895551204681396" fill="none" stroke="rgb(24, 128, 17)" stroke-opacity="1.0" stroke-linecap="round" stroke-linejoin="round"/>
    <path d="M 74.36578369140625 12.897279739379883 C 69.74820709228516 6.309836387634277 65.16839599609375 6.609620571136475 65.74840545654297 7.072117805480957" stroke-width="1.3626230955123901" fill="none" stroke="rgb(23, 127, 12)" stroke-opacity="1.0" stroke-linecap="round" stroke-linejoin="round"/>
    <path d="M 75.66046142578125 13.596290588378906 C 70.96234893798828 9.557609558105469 68.34418487548828 8.625777244567871 66.41780090332031 8.209525108337402" stroke-width="1.5380288362503052" fill="none" stroke="rgb(80, 233, 54)" stroke-opacity="1.0" stroke-linecap="round" stroke-linejoin="round"/>
    <path d="M 90.08732604980469 50.00492858886719 C 89.84761047363281 53.63379669189453 90.14225006103516 58.50309371948242 92.4274673461914 58.87577819824219" stroke-width="1.5136048793792725" fill="none" stroke="rgb(19, 131, 5)" stroke-opacity="1.0" stroke-linecap="round" stroke-linejoin="round"/>
    <path d="M 91.03662109375 49.97081756591797 C 97.14203643798828 54.909915924072266 93.9954833984375 59.507938385009766 94.02822875976562 58.90626525878906" stroke-width="1.452049970626831" fill="none" stroke="rgb(20, 131, 7)" stroke-opacity="1.0" stroke-linecap="round" stroke-linejoin="round"/>
    <path d="M 90.25499725341797 47.947147369384766 C 92.21747589111328 54.01472473144531 91.77446746826172 57.70456314086914 92.53413391113281 59.78714370727539" stroke-width="1.3290455341339111" fill="none" stroke="rgb(87, 239, 48)" stroke-opacity="0.9730246" stroke-linecap="round" stroke-linejoin="round"/>
    <path d="M 90.40020751953125 49.509639739990234 C 92.81320190429688 51.530616760253906 97.31501770019531 53.39089584350586 99.25531005859375 53.03670120239258" stroke-width="1.2131692171096802" fill="none" stroke="rgb(26, 135, 17)" stroke-opacity="0.992731" stroke-linecap="round" stroke-linejoin="round"/>
    <path d="M 91.36820983886719 48.717777252197266 C 99.27679443359375 47.28010940551758 98.65430450439453 51.98369216918945 99.07379150390625 53.64186477661133" stroke-width="1.289557933807373" fill="none" stroke="rgb(20, 135, 17)" stroke-opacity="1.0" stroke-linecap="round" stroke-linejoin="round"/>
    <path d="M 89.03297424316406 49.17191696166992 C 94.11083984375 50.84501647949219 96.29521942138672 52.20240020751953 98.76532745361328 52.71943664550781" stroke-width="1.1892671585083008" fill="none" stroke="rgb(81, 238, 60)" stroke-opacity="0.98727655" stroke-linecap="round" stroke-linejoin="round"/>
    <path d="M 86.11286926269531 21.00101661682129 C 85.91036224365234 24.185945510864258 86.69547271728516 28.525766372680664 89.13320922851562 29.013822555541992" stroke-width="1.537287712097168" fill="none" stroke="rgb(18, 132, 6)" stroke-opacity="1.0" stroke-linecap="round" stroke-linejoin="round"/>
    <path d="M 85.956298828125 21.20572280883789 C 92.29712677001953 26.087793350219727 89.31935119628906 30.569875717163086 89.981201171875 30.11161994934082" stroke-width="1.5052917003631592" fill="none" stroke="rgb(22, 137, 6)" stroke-opacity="1.0" stroke-linecap="round" stroke-linejoin="round"/>
    <path d="M 85.7031021118164 18.552797317504883 C 89.36783599853516 23.65013885498047 88.35880279541016 27.470945358276367 87.722412109375 29.5428409576416" stroke-width="1.5154273509979248" fill="none" stroke="rgb(80, 240, 43)" stroke-opacity="1.0" stroke-linecap="round" stroke-linejoin="round"/>
    <path d="M 85.724365234375 20.57978630065918 C 87.96575927734375 22.829471588134766 91.73145294189453 24.01080322265625 94.88223266601562 23.038951873779297" stroke-width="1.1892671585083008" fill="none" stroke="rgb(36, 137, 16)" stroke-opacity="0.96588355" stroke-linecap="round" stroke-linejoin="round"/>
    <path d="M 86.9989013671875 19.278587341308594 C 94.1536865234375 18.216796875 94.62348937988281 23.536386489868164 94.65619659423828 24.224573135375977" stroke-width="1.2214703559875488" fill="none" stroke="rgb(20, 132, 22)" stroke-opacity="0.9865182" stroke-linecap="round" stroke-linejoin="round"/>
    <path d="M 85.37906646728516 18.42825698852539 C 91.80207824707031 19.477685928344727 93.65536499023438 20.927289962768555 94.43010711669922 23.24625587463379" stroke-width="1.1892671585083008" fill="none" stroke="rgb(79, 234, 59)" stroke-opacity="0.98807794" stroke-linecap="round" stroke-linejoin="round"/>
    <path d="M 76.13809967041016 30.726402282714844 C 74.75994110107422 33.62051773071289 73.45236206054688 37.85081481933594 74.1883544921875 40.138404846191406" stroke-width="1.2503852844238281" fill="none" stroke="rgb(32, 133, 6)" stroke-opacity="0.98905164" stroke-linecap="round" stroke-linejoin="round"/>
    <path d="M 75.42391967773438 29.13930892944336 C 77.02951049804688 37.593467712402344 72.47674560546875 39.586143493652344 73.77167510986328 38.450721740722656" stroke-width="1.203259825706482" fill="none" stroke="rgb(24, 128, 7)" stroke-opacity="0.9999406" stroke-linecap="round" stroke-linejoin="round"/>
    <path d="M 75.70233917236328 28.851613998413086 C 76.21532440185547 35.18992614746094 75.46027374267578 37.7672119140625 73.89692687988281 38.337890625" stroke-width="1.4521830081939697" fill="none" stroke="rgb(83, 233, 44)" stroke-opacity="1.0" stroke-linecap="round" stroke-linejoin="round"/>
    <path d="M 77.83826446533203 28.17035484313965 C 78.69903564453125 31.123079299926758 80.89315795898438 36.015560150146484 81.80374145507812 36.74669647216797" stroke-width="1.1892671585083008" fill="none" stroke="rgb(26, 137, 6)" stroke-opacity="0.9669779" stroke-linecap="round" stroke-linejoin="round"/>
    <path d="M 76.82390594482422 29.562644958496094 C 83.10115814208984 31.490514755249023 81.26101684570312 36.84065628051758 81.11944580078125 35.84423065185547" stroke-width="1.1892671585083008" fill="none" stroke="rgb(34, 138, 7)" stroke-opacity="0.9643224" stroke-linecap="round" stroke-linejoin="round"/>
    <path d="M 76.14849090576172 27.351314544677734 C 80.41905212402344 31.603925704956055 81.85397338867188 33.68326950073242 82.58086395263672 35.6806640625" stroke-width="1.4672472476959229" fill="none" stroke="rgb(79, 238, 41)" stroke-opacity="1.0" stroke-linecap="round" stroke-linejoin="round"/>
    <path d="M 85.8005142211914 40.296199798583984 C 85.32687377929688 38.22728729248047 86.11857604980469 33.87612533569336 87.80599975585938 32.08657455444336" stroke-width="1.2843623161315918" fill="none" stroke="rgb(22, 134, 20)" stroke-opacity="1.0" stroke-linecap="round" stroke-linejoin="round"/>
    <path d="M 85.7328109741211 40.99797058105469 C 90.5743408203125 35.50230026245117 86.6903305053711 30.487346649169922 87.12942504882812 30.218360900878906" stroke-width="1.2749475240707397" fill="none" stroke="rgb(31, 138, 4)" stroke-opacity="0.9980165" stroke-linecap="round" stroke-linejoin="round"/>
    <path d="M 83.62432098388672 41.258026123046875 C 85.78215026855469 35.4320182800293 86.09359741210938 32.874637603759766 85.61161804199219 31.7254638671875" stroke-width="1.4168095588684082" fill="none" stroke="rgb(84, 240, 40)" stroke-opacity="1.0" stroke-linecap="round" stroke-linejoin="round"/>
    <path d="M 84.86333465576172 40.586544036865234 C 88.62207794189453 40.057621002197266 92.19332885742188 37.64399719238281 94.17975616455078 37.79386901855469" stroke-width="1.1892671585083008" fill="none" stroke="rgb(26, 138, 23)" stroke-opacity="0.9644241" stroke-linecap="round" stroke-linejoin="round"/>
    <path d="M 84.756591796875 40.3079833984375 C 92.34397888183594 40.77922821044922 92.62852478027344 35.90672302246094 92.8022232055664 37.16611862182617" stroke-width="1.1892671585083008" fill="none" stroke="rgb(20, 138, 15)" stroke-opacity="0.99829125" stroke-linecap="round" stroke-linejoin="round"/>
    <path d="M 84.96420288085938 42.56826400756836 C 90.10266876220703 40.91768264770508 91.126220703125 38.06367111206055 94.04744720458984 37.21926498413086" stroke-width="1.4098122119903564" fill="none" stroke="rgb(80, 237, 49)" stroke-opacity="1.0" stroke-linecap="round" stroke-linejoin="round"/>
    <path d="M 62.60157775878906 37.07449722290039 C 60.296241760253906 38.82258224487305 56.473262786865234 38.85470199584961 54.30402755737305 37.800933837890625" stroke-width="1.3194772005081177" fill="none" stroke="rgb(24, 120, 7)" stroke-opacity="1.0" stroke-linecap="round" stroke-linejoin="round"/>
    <path d="M 61.16099548339844 36.67422866821289 C 53.842655181884766 33.183597564697266 52.36513900756836 37.701839447021484 53.00322341918945 37.80840301513672" stroke-width="1.195924997329712" fill="none" stroke="rgb(34, 121, 17)" stroke-opacity="0.983173" stroke-linecap="round" stroke-linejoin="round"/>
    <path d="M 63.38878631591797 37.0532341003418 C 58.879791259765625 37.61293029785156 56.38710403442383 38.485107421875 54.65468978881836 39.45377731323242" stroke-width="1.1892671585083008" fill="none" stroke="rgb(93, 239, 58)" stroke-opacity="0.9695314" stroke-linecap="round" stroke-linejoin="round"/>
    <path d="M 62.86157989501953 34.86142349243164 C 58.97264099121094 35.13446807861328 55.170562744140625 33.33644104003906 54.20600891113281 31.038028717041016" stroke-width="1.2401527166366577" fill="none" stroke="rgb(29, 134, 22)" stroke-opacity="0.98131084" stroke-linecap="round" stroke-linejoin="round"/>
    <path d="M 62.31331253051758 34.15790939331055 C 60.74803924560547 26.877620697021484 56.37073516845703 29.17693519592285 55.34556198120117 30.714876174926758" stroke-width="1.1892671585083008" fill="none" stroke="rgb(35, 120, 14)" stroke-opacity="0.9958346" stroke-linecap="round" stroke-linejoin="round"/>
    <path d="M 62.39801788330078 35.015838623046875 C 59.848411560058594 31.065616607666016 57.9493293762207 30.171478271484375 55.01866149902344 29.10623550415039" stroke-width="1.1892671585083008" fill="none" stroke="rgb(98, 222, 55)" stroke-opacity="0.964572" stroke-linecap="round" stroke-linejoin="round"/>
    <path d="M 46.157962799072266 81.55093383789062 C 69.11580657958984 90.15362548828125 88.25813293457031 86.2601318359375 92.05313110351562 85.62047576904297" stroke-width="1.5354734659194946" fill="none" stroke="rgb(224, 60, 32)" stroke-opacity="1.0" stroke-linecap="round" stroke-linejoin="round"/>
    <path d="M 76.5737075805664 87.38063049316406 C 77.52972412109375 87.23504638671875 77.11323547363281 88.19499206542969 75.49055480957031 88.69319152832031 C 75.54871368408203 89.10152435302734 75.54052734375 91.19509887695312 75.69428253173828 92.31961059570312 C 75.81211853027344 94.20573425292969 75.88758850097656 96.32833862304688 75.78883361816406 99.6872329711914 C 76.99441528320312 100.3067855834961 77.33433532714844 103.18135070800781 77.20465850830078 102.959716796875 C 75.26083374023438 101.87319946289062 73.64193725585938 102.39183044433594 73.56373596191406 103.07574462890625 C 70.9796142578125 103.2513198852539 68.09430694580078 102.93536376953125 65.93865966796875 103.08021545410156 C 62.10222244262695 104.30165100097656 57.129329681396484 104.5213623046875 51.65629959106445 104.8424072265625 C 45.985713958740234 105.03936767578125 43.054466247558594 98.87366485595703 43.28411102294922 93.44409942626953 C 43.10003662109375 91.52730560302734 42.71626281738281 87.10894775390625 43.87577438354492 86.26525115966797 C 44.8094482421875 80.66741943359375 47.348968505859375 77.36644744873047 52.35136795043945 77.677001953125" stroke-width="1.2140048742294312" fill="none" stroke="rgb(25, 34, 14)" stroke-opacity="1.0" stroke-linecap="round" stroke-linejoin="round"/>
    <path d="M 43.92433166503906 93.7603988647461 C 44.936431884765625 95.53865814208984 41.125736236572266 93.64781951904297 36.52293014526367 98.33624267578125 C 39.461814880371094 98.04402160644531 41.45566940307617 99.78421020507812 44.47481918334961 95.21995544433594 C 37.75702667236328 99.75234985351562 42.186004638671875 104.493408203125 38.455726623535156 99.25840759277344" stroke-width="1.1892671585083008" fill="none" stroke="rgb(105, 68, 229)" stroke-opacity="0.21236426" stroke-linecap="round" stroke-linejoin="round"/>
    <path d="M 81.82270050048828 36.72352981567383 C 79.68392944335938 36.93650817871094 86.45222473144531 39.224525451660156 81.78265380859375 39.677330017089844" stroke-width="1.2842200994491577" fill="none" stroke="rgb(246, 255, 160)" stroke-opacity="0.8230101" stroke-linecap="round" stroke-linejoin="round"/>
    <path d="M 57.84751892089844 17.568897247314453 C 53.239479064941406 23.61245346069336 57.410545349121094 20.694398880004883 63.01699447631836 16.72940444946289 C 69.21987915039062 11.927483558654785 66.99808502197266 9.746006965637207 63.429134368896484 10.551736831665039 C 62.13896179199219 8.014671325683594 63.22000503540039 12.801487922668457 56.887027740478516 19.845991134643555" stroke-width="1.479183554649353" fill="none" stroke="rgb(15, 211, 15)" stroke-opacity="0.47168362" stroke-linecap="round" stroke-linejoin="round"/>
    <path d="M 59.55839538574219 16.591045379638672 C 54.84996032714844 17.917848587036133 59.036067962646484 14.136693954467773 63.484920501708984 19.52265167236328 C 66.88350677490234 20.89708709716797 70.29265594482422 15.405062675476074 74.30906677246094 21.480031967163086" stroke-width="1.1892671585083008" fill="none" stroke="rgb(247, 255, 93)" stroke-opacity="0.5638149" stroke-linecap="round" stroke-linejoin="round"/>
    <path d="M 67.00163269042969 104.36160278320312 C 61.657981872558594 106.16727447509766 58.754634857177734 109.51075744628906 52.46556091308594 115.15604400634766" stroke-width="1.3536880016326904" fill="none" stroke="rgb(240, 50, 176)" stroke-opacity="0.4387876" stroke-linecap="round" stroke-linejoin="round"/>
    <path d="M 59.105934143066406 18.203845977783203 C 55.412986755371094 19.28850555419922 52.8140869140625 16.145912170410156 50.633750915527344 12.155406951904297 C 53.96332931518555 11.489086151123047 55.85071563720703 6.740051746368408 61.38546371459961 14.48715591430664 C 64.97444915771484 9.13686752319336 62.12871170043945 2.307753562927246 58.58256530761719 4.810633182525635" stroke-width="1.1892671585083008" fill="none" stroke="rgb(5, 92, 94)" stroke-opacity="0.18283142" stroke-linecap="round" stroke-linejoin="round"/>
    <path d="M 63.071502685546875 36.54661178588867 C 67.51271057128906 32.660770416259766 68.27522277832031 33.672794342041016 71.5566635131836 34.84147262573242 C 68.98162841796875 33.147762298583984 67.64118957519531 29.306964874267578 73.78787231445312 32.11687469482422 C 69.79183197021484 32.51217269897461 70.39646911621094 29.708574295043945 68.06774139404297 30.262073516845703" stroke-width="1.1892671585083008" fill="none" stroke="rgb(173, 152, 15)" stroke-opacity="0.56285965" stroke-linecap="round" stroke-linejoin="round"/>
    <path d="M 46.77841567993164 81.09397888183594 C 38.86936950683594 78.09645080566406 40.608001708984375 79.43257904052734 38.853904724121094 82.83402252197266 C 32.39247512817383 83.9827880859375 26.12906265258789 86.3974609375 25.31256103515625 91.29610443115234 C 29.486913681030273 88.75991821289062 29.147308349609375 89.91525268554688 31.187467575073242 82.65187072753906" stroke-width="1.2622203826904297" fill="none" stroke="rgb(255, 171, 177)" stroke-opacity="0.9016745" stroke-linecap="round" stroke-linejoin="round"/>
    <path d="M 37.45278549194336 101.24285125732422 C 37.78306579589844 102.26363372802734 41.718990325927734 98.18012237548828 43.953067779541016 98.96336364746094" stroke-width="1.1892671585083008" fill="none" stroke="rgb(69, 189, 144)" stroke-opacity="0.060382195" stroke-linecap="round" stroke-linejoin="round"/>
    <path d="M 74.23695373535156 21.530746459960938 C 73.01606750488281 15.265624046325684 69.28520202636719 15.09676456451416 73.6395492553711 16.498851776123047 C 73.61898040771484 11.176820755004883 68.80404663085938 9.717445373535156 67.48445892333984 11.027198791503906" stroke-width="1.1892671585083008" fill="none" stroke="rgb(220, 84, 165)" stroke-opacity="0.2063302" stroke-linecap="round" stroke-linejoin="round"/>
    <path d="M 74.96146392822266 21.491487503051758 C 73.54347229003906 16.82560157775879 70.69483184814453 17.836347579956055 65.4072265625 14.41201114654541" stroke-width="1.1892671585083008" fill="none" stroke="rgb(76, 136, 84)" stroke-opacity="0.21220988" stroke-linecap="round" stroke-linejoin="round"/>
    <path d="M 59.15225601196289 4.717590808868408 C 58.52623748779297 1.8466397523880005 63.71918487548828 7.434783458709717 67.65702819824219 5.9347991943359375 C 71.36956787109375 5.831886291503906 75.51834106445312 8.817915916442871 80.19760131835938 14.123804092407227" stroke-width="1.2385963201522827" fill="none" stroke="rgb(20, 149, 175)" stroke-opacity="0.9037525" stroke-linecap="round" stroke-linejoin="round"/>
    <path d="M 32.98630142211914 84.38725280761719 C 35.94810485839844 87.6267318725586 39.94686508178711 92.07281494140625 36.93734359741211 84.60128784179688 C 38.25177001953125 84.47799682617188 40.204898834228516 81.6078109741211 42.74154281616211 81.49189758300781 C 47.93564224243164 78.73474884033203 52.475303649902344 76.80323028564453 48.45491027832031 79.6806869506836" stroke-width="1.542655348777771" fill="none" stroke="rgb(20, 216, 105)" stroke-opacity="0.026928706" stroke-linecap="round" stroke-linejoin="round"/>
    <path d="M 59.62395477294922 4.864333152770996 C 53.73857116699219 11.174294471740723 60.145484924316406 10.401310920715332 61.312740325927734 4.915936470031738 C 66.07450103759766 8.583963394165039 64.5584716796875 13.134772300720215 67.03616333007812 7.4054436683654785 C 70.5526351928711 5.173427581787109 69.91522216796875 1.3515368700027466 72.1458511352539 -2.7146944999694824" stroke-width="1.450873851776123" fill="none" stroke="rgb(128, 39, 76)" stroke-opacity="0.8610277" stroke-linecap="round" stroke-linejoin="round"/>
    <path d="M 37.48676300048828 99.75401306152344 C 38.676231384277344 98.29317474365234 33.99580001831055 98.963623046875 27.39639663696289 103.22962951660156" stroke-width="1.1892671585083008" fill="none" stroke="rgb(92, 135, 161)" stroke-opacity="0.3326383" stroke-linecap="round" stroke-linejoin="round"/>
    <path d="M 74.01148223876953 21.261699676513672 C 72.94194793701172 20.70383644104004 71.09661865234375 22.070253372192383 74.4044418334961 17.207975387573242 C 74.57171630859375 12.373980522155762 72.70881652832031 12.244182586669922 69.84317016601562 13.550299644470215 C 67.7034683227539 10.025282859802246 63.29180908203125 8.463159561157227 69.24990844726562 2.747084379196167" stroke-width="1.1892671585083008" fill="none" stroke="rgb(37, 40, 127)" stroke-opacity="0.8396932" stroke-linecap="round" stroke-linejoin="round"/>
    <path d="M 127.39242553710938 111.66572570800781 C 131.85562133789062 107.44440460205078 133.7005157470703 111.36087799072266 137.35362243652344 113.6898422241211" stroke-width="1.6044011116027832" fill="none" stroke="rgb(146, 102, 252)" stroke-opacity="1.0" stroke-linecap="round" stroke-linejoin="round"/>
    <path d="M 125.4480972290039 16.72926139831543 C 127.4675521850586 23.89022445678711 131.6729278564453 19.053133010864258 129.82015991210938 12.619274139404297" stroke-width="1.1892671585083008" fill="none" stroke="rgb(224, 73, 125)" stroke-opacity="0.2755834" stroke-linecap="round" stroke-linejoin="round"/>
    <path d="M 68.57146453857422 94.51730346679688 C 64.62078857421875 90.01105499267578 59.30099105834961 92.8477783203125 54.898860931396484 86.64729309082031" stroke-width="1.6546694040298462" fill="none" stroke="rgb(156, 0, 25)" stroke-opacity="0.7029855" stroke-linecap="round" stroke-linejoin="round"/>
    <path d="M 114.52035522460938 114.9549331665039 C 111.37777709960938 114.23779296875 117.96517944335938 109.69905090332031 114.22630310058594 112.76677703857422 C 114.24365234375 114.6583251953125 120.02349090576172 120.36837005615234 125.45987701416016 123.0733871459961 C 127.40961456298828 130.52767944335938 133.94390869140625 125.28763580322266 137.1060791015625 120.18368530273438" stroke-width="1.1892671585083008" fill="none" stroke="rgb(203, 164, 27)" stroke-opacity="0.6225926" stroke-linecap="round" stroke-linejoin="round"/>
    <path d="M 71.8961181640625 123.67321014404297 C 77.17930603027344 128.05575561523438 75.56505584716797 129.11843872070312 78.78392791748047 131.9876708984375 C 80.6185531616211 126.67184448242188 77.76150512695312 122.78965759277344 83.57403564453125 127.11787414550781" stroke-width="1.1892671585083008" fill="none" stroke="rgb(208, 21, 184)" stroke-opacity="0.2281646" stroke-linecap="round" stroke-linejoin="round"/>
    <path d="M 74.93344116210938 33.92905044555664 C 72.9808349609375 36.79121017456055 72.67375946044922 39.934486389160156 65.63722229003906 34.28438949584961 C 63.74357604980469 28.77214813232422 63.92662811279297 26.493061065673828 58.13349533081055 31.449020385742188 C 56.25999069213867 37.72467803955078 49.93440246582031 33.18144989013672 52.80317306518555 37.07381057739258" stroke-width="1.424984335899353" fill="none" stroke="rgb(94, 125, 185)" stroke-opacity="0.116465665" stroke-linecap="round" stroke-linejoin="round"/>
    <path d="M 115.43382263183594 29.22206687927246 C 111.93011474609375 24.516834259033203 106.04331970214844 27.61229705810547 100.79531860351562 25.720115661621094 C 98.58670043945312 21.03508949279785 95.85317993164062 18.452123641967773 100.11688232421875 19.618513107299805" stroke-width="1.1892671585083008" fill="none" stroke="rgb(17, 138, 12)" stroke-opacity="0.9560479" stroke-linecap="round" stroke-linejoin="round"/>
    <path d="M 1.1105356216430664 71.84677124023438 C 0.8714690208435059 74.7114486694336 2.9534878730773926 79.32640075683594 4.25806999206543 86.99359130859375" stroke-width="1.1892671585083008" fill="none" stroke="rgb(64, 157, 90)" stroke-opacity="0.7005685" stroke-linecap="round" stroke-linejoin="round"/>
    <path d="M 22.945737838745117 57.875282287597656 C 20.39055061340332 53.58037185668945 19.74508285522461 54.08189010620117 15.491195678710938 54.343509674072266 C 21.27520751953125 47.4793701171875 18.928367614746094 50.286590576171875 19.74995994567871 47.602596282958984 C 19.907907485961914 45.482948303222656 22.779386520385742 39.99612045288086 25.46734046936035 46.428245544433594" stroke-width="1.1892671585083008" fill="none" stroke="rgb(245, 161, 107)" stroke-opacity="0.058850504" stroke-linecap="round" stroke-linejoin="round"/>
    <path d="M 45.19894790649414 129.05296325683594 C 46.346168518066406 132.3161163330078 49.59794616699219 125.61749267578125 44.74658966064453 126.71165466308594" stroke-width="1.1892671585083008" fill="none" stroke="rgb(130, 91, 13)" stroke-opacity="0.14886211" stroke-linecap="round" stroke-linejoin="round"/>
    <path d="M 66.39750671386719 66.77672576904297 C 59.7720832824707 63.099246978759766 66.04520416259766 66.31714630126953 70.0229263305664 65.46363067626953 C 63.26605224609375 69.94407653808594 64.5168228149414 70.06362915039062 63.961734771728516 77.38074493408203 C 69.10993194580078 78.8685302734375 63.67887878417969 83.06564331054688 62.90866470336914 85.95513916015625" stroke-width="1.4501253366470337" fill="none" stroke="rgb(49, 24, 226)" stroke-opacity="0.6349993" stroke-linecap="round" stroke-linejoin="round"/>
    <path d="M 42.94983673095703 73.77629089355469 C 36.102684020996094 72.82308197021484 39.5723762512207 75.18794250488281 37.184627532958984 78.4103775024414 C 41.5966796875 82.00104522705078 45.623992919921875 78.62639617919922 45.85678482055664 82.42992401123047" stroke-width="1.257169485092163" fill="none" stroke="rgb(92, 231, 64)" stroke-opacity="0.9776811" stroke-linecap="round" stroke-linejoin="round"/>
    <path d="M 29.68895149230957 128.23452758789062 C 31.31941032409668 124.30591583251953 31.976848602294922 127.58299255371094 29.632083892822266 128.1658477783203 C 30.310420989990234 124.76618194580078 30.73706817626953 119.61593627929688 28.80446434020996 126.38055419921875 C 34.76008224487305 125.2933349609375 37.5871696472168 120.16240692138672 41.44569396972656 117.38616943359375" stroke-width="1.5810766220092773" fill="none" stroke="rgb(254, 40, 175)" stroke-opacity="0.16250044" stroke-linecap="round" stroke-linejoin="round"/>
    <path d="M 43.43631362915039 130.72433471679688 C 47.63442611694336 131.36683654785156 41.623451232910156 129.3017120361328 42.82719421386719 128.7740478515625" stroke-width="1.1892671585083008" fill="none" stroke="rgb(234, 108, 134)" stroke-opacity="0.2733374" stroke-linecap="round" stroke-linejoin="round"/>
    <path d="M 98.35008239746094 81.26718139648438 C 98.0009536743164 83.41522216796875 97.15656280517578 86.12581634521484 91.63288879394531 90.9553451538086 C 88.18286895751953 86.12223052978516 82.73870086669922 89.63091278076172 86.18190002441406 88.01686096191406" stroke-width="1.5050394535064697" fill="none" stroke="rgb(255, 89, 180)" stroke-opacity="0.96855384" stroke-linecap="round" stroke-linejoin="round"/>
    <path d="M 43.30398178100586 48.7603874206543 C 48.89849853515625 54.51443862915039 42.81922912597656 53.94039535522461 47.8420295715332 58.80310821533203 C 44.232872009277344 57.686431884765625 39.89936828613281 55.86009979248047 41.061363220214844 52.910728454589844 C 46.82590866088867 47.316776275634766 43.80185317993164 50.57847213745117 38.57943344116211 54.40800857543945" stroke-width="1.3376530408859253" fill="none" stroke="rgb(143, 103, 135)" stroke-opacity="0.010464894" stroke-linecap="round" stroke-linejoin="round"/>
  </g>
</svg>
