<?xml version="1.0" ?>
<svg xmlns="http://www.w3.org/2000/svg" version="1.1" width="956.0" height="956.0">
  <defs/>
  <g>
    <path d="M 106.03744506835938 49.06720733642578 C 102.91056060791016 53.452423095703125 83.69241333007812 57.07301330566406 81.89964294433594 58.245357513427734 C 80.13565063476562 59.64247512817383 77.75128173828125 71.26919555664062 79.89865112304688 73.18915557861328 C 82.1164321899414 74.91512298583984 90.44974517822266 70.64545440673828 95.92706298828125 75.31582641601562 C 108.83039855957031 86.6118392944336 112.43904876708984 98.81088256835938 129.15626525878906 73.8544921875 C 130.67813110351562 72.28440856933594 143.28187561035156 76.87057495117188 144.4187774658203 75.33475494384766 C 145.62506103515625 73.70862579345703 148.1316375732422 63.28911590576172 144.1964569091797 61.01110076904297 C 140.31996154785156 58.73904037475586 120.69760131835938 52.87369155883789 118.9109878540039 49.819087982177734 C 117.34171295166016 46.92385482788086 119.63580322265625 42.07914733886719 113.0457992553711 41.9160041809082 C 106.37437438964844 41.966835021972656 107.93599700927734 44.010032653808594 107.22227478027344 47.224971771240234" stroke-width="6.60623025894165" fill="none" stroke="rgb(239, 210, 166)" stroke-opacity="1.0" stroke-linecap="round" stroke-linejoin="round"/>
    <path d="M 112.43763732910156 50.959632873535156 C 112.00558471679688 56.731178283691406 86.90287017822266 59.312721252441406 89.56199645996094 67.04893493652344 C 109.63986206054688 69.18854522705078 109.31292724609375 94.78121185302734 127.61821746826172 74.4351806640625 C 129.6667938232422 72.12599182128906 136.2322235107422 68.77018737792969 135.6590576171875 68.08394622802734 C 135.11837768554688 67.29275512695312 112.33902740478516 56.19835662841797 113.08692932128906 54.736270904541016" stroke-width="14.245054244995117" fill="none" stroke="rgb(239, 210, 166)" stroke-opacity="1.0" stroke-linecap="round" stroke-linejoin="round"/>
    <path d="M 111.66959381103516 68.99960327148438 C 105.14892578125 73.5671157836914 108.01313781738281 88.3587417602539 109.44049072265625 88.52049255371094 C 110.83546447753906 88.63172149658203 114.36771392822266 72.72650909423828 114.51118469238281 70.44354248046875 C 114.60624694824219 68.1490478515625 104.5333251953125 71.30464172363281 104.6712875366211 72.78294372558594" stroke-width="25.476991653442383" fill="none" stroke="rgb(239, 210, 166)" stroke-opacity="1.0" stroke-linecap="round" stroke-linejoin="round"/>
    <path d="M 74.2327880859375 66.93863677978516 C 73.36870574951172 71.6253433227539 73.36492156982422 76.32064819335938 74.3819351196289 76.21711730957031 C 75.42019653320312 76.1013412475586 74.0517349243164 70.57908630371094 75.72188568115234 70.39852142333984 C 77.41625213623047 70.20558166503906 76.53759002685547 75.7113265991211 77.63005065917969 75.17522430419922 C 78.65779113769531 74.5879898071289 77.45761108398438 70.505615234375 79.55823516845703 72.01304626464844 C 81.65785217285156 73.56878662109375 81.65605926513672 76.17758178710938 83.92778778076172 74.3006362915039 C 86.2170181274414 72.38827514648438 86.42870330810547 72.20645141601562 87.13325500488281 72.87405395507812" stroke-width="5.163335800170898" fill="none" stroke="rgb(0, 111, 207)" stroke-opacity="1.0" stroke-linecap="round" stroke-linejoin="round"/>
    <path d="M 86.61243438720703 78.8289794921875 C 103.06306457519531 77.10537719726562 101.41122436523438 77.02544403076172 106.06201934814453 81.36659240722656 C 109.38817596435547 84.21418762207031 130.38258361816406 99.77288818359375 129.408203125 102.30230712890625 C 128.39132690429688 104.78361511230469 127.77619934082031 107.09944915771484 118.61608123779297 106.21128845214844 C 109.51689147949219 105.35675048828125 95.15404510498047 105.60782623291016 94.4682846069336 103.45184326171875 C 93.91106414794922 101.24890899658203 88.50228881835938 81.62944793701172 89.420166015625 81.80851745605469 C 90.35135650634766 81.88726806640625 100.78062438964844 82.64306640625 103.60369110107422 85.02949523925781 C 106.30596923828125 87.55977630615234 124.84794616699219 100.5232162475586 124.07975006103516 101.47093963623047 C 123.07998657226562 102.28732299804688 100.60415649414062 102.63917541503906 99.29996490478516 101.26640319824219 C 97.9625244140625 99.896240234375 92.62474060058594 89.00697326660156 94.499755859375 87.30803680419922 C 96.4515609741211 85.46849060058594 115.51698303222656 98.92401885986328 115.08277893066406 98.89134979248047 C 114.68151092529297 98.79113006591797 104.46021270751953 98.87796783447266 102.7663803100586 98.14596557617188 C 101.31272888183594 97.24493408203125 99.3416976928711 94.1207275390625 99.77783203125 92.56735229492188 C 100.39102935791016 91.1559066772461 103.81974029541016 96.80399322509766 105.022216796875 96.10409545898438" stroke-width="5.142139911651611" fill="none" stroke="rgb(0, 112, 209)" stroke-opacity="1.0" stroke-linecap="round" stroke-linejoin="round"/>
    <path d="M 117.49105834960938 82.32089233398438 C 124.21165466308594 76.94965362548828 129.80255126953125 75.61702728271484 133.454345703125 76.78536224365234 C 138.99244689941406 78.42909240722656 133.48277282714844 96.62608337402344 132.6097869873047 97.10619354248047 C 131.6218719482422 97.58182525634766 122.09587097167969 86.40568542480469 121.62090301513672 85.1471176147461 C 121.052001953125 83.78996276855469 129.9581756591797 78.62057495117188 130.29293823242188 79.88223266601562 C 130.55984497070312 81.53670501708984 131.3977508544922 90.366455078125 130.49330139160156 89.75871276855469 C 129.67874145507812 89.2213363647461 124.30231475830078 86.09085845947266 126.23870849609375 84.45967102050781 C 128.22186279296875 82.84394073486328 127.7529067993164 83.62857055664062 128.07150268554688 84.90292358398438" stroke-width="5.206735610961914" fill="none" stroke="rgb(0, 112, 208)" stroke-opacity="1.0" stroke-linecap="round" stroke-linejoin="round"/>
    <path d="M 139.09228515625 71.8956069946289 C 148.84535217285156 66.8194351196289 151.02622985839844 63.46757507324219 150.43136596679688 65.0000991821289 C 149.8481903076172 66.44087219238281 148.52249145507812 69.04369354248047 147.5506591796875 69.67945861816406 C 146.755615234375 70.47018432617188 147.73321533203125 73.4164810180664 145.6005859375 73.62361907958984 C 143.83555603027344 73.85518646240234 139.77951049804688 73.91886901855469 141.0364532470703 72.9135971069336 C 142.24407958984375 71.66777038574219 143.80027770996094 72.67672729492188 145.01828002929688 71.25423431396484" stroke-width="5.126623153686523" fill="none" stroke="rgb(0, 113, 208)" stroke-opacity="1.0" stroke-linecap="round" stroke-linejoin="round"/>
    <path d="M 94.22992706298828 110.08683776855469 C 105.89060974121094 111.32365417480469 113.53478240966797 111.94092559814453 117.97792053222656 111.51365661621094 C 122.4266357421875 111.3167953491211 129.20948791503906 111.15837860107422 131.1212921142578 110.1283950805664" stroke-width="5.192882061004639" fill="none" stroke="rgb(0, 113, 208)" stroke-opacity="1.0" stroke-linecap="round" stroke-linejoin="round"/>
    <path d="M 75.2884292602539 61.56991958618164 C 76.26837158203125 64.95806884765625 76.31382751464844 69.66199493408203 86.37232208251953 71.2034683227539 C 96.59317016601562 72.86695098876953 99.00568389892578 72.3924789428711 103.78888702392578 75.46395874023438 C 108.68539428710938 78.40755462646484 130.03492736816406 97.0650405883789 132.0812530517578 100.33876037597656 C 136.38015747070312 108.0777587890625 128.5649871826172 108.8754653930664 118.98360443115234 109.03856658935547 C 109.45653533935547 109.66015625 93.12220764160156 107.0562744140625 91.58096313476562 106.46189880371094 C 90.1517333984375 105.91276550292969 85.83615112304688 81.42536926269531 84.37797546386719 77.42424011230469" stroke-width="2.850358486175537" fill="none" stroke="rgb(0, 8, 93)" stroke-opacity="1.0" stroke-linecap="round" stroke-linejoin="round"/>
    <path d="M 75.93869018554688 60.51534652709961 C 73.56160736083984 63.28779602050781 70.37665557861328 67.76863861083984 70.58453369140625 69.234619140625 C 71.12582397460938 70.61968231201172 70.09941101074219 73.94742584228516 71.4266357421875 74.22779846191406 C 73.14083862304688 74.6047134399414 71.80982208251953 79.37869262695312 73.45818328857422 79.8360366821289 C 75.10124969482422 80.19923400878906 81.29537963867188 77.0620346069336 89.9133071899414 75.30167388916016 C 98.41382598876953 73.2957992553711 98.70460510253906 73.70406341552734 101.82440948486328 75.03956604003906" stroke-width="2.937821388244629" fill="none" stroke="rgb(0, 9, 93)" stroke-opacity="1.0" stroke-linecap="round" stroke-linejoin="round"/>
    <path d="M 112.99169158935547 81.80867004394531 C 117.47021484375 77.74952697753906 121.02989959716797 73.47591400146484 127.18915557861328 72.85050201416016 C 133.3719482421875 72.05998229980469 139.54959106445312 73.79415130615234 139.8773193359375 78.97325897216797 C 140.28070068359375 84.09479522705078 134.2423553466797 102.76828002929688 133.2523193359375 105.56480407714844" stroke-width="2.884291410446167" fill="none" stroke="rgb(0, 8, 92)" stroke-opacity="1.0" stroke-linecap="round" stroke-linejoin="round"/>
    <path d="M 133.70980834960938 72.41495513916016 C 147.90432739257812 64.20939636230469 148.52183532714844 64.4660873413086 150.60446166992188 62.402931213378906" stroke-width="2.9066126346588135" fill="none" stroke="rgb(0, 9, 94)" stroke-opacity="1.0" stroke-linecap="round" stroke-linejoin="round"/>
    <path d="M 150.36117553710938 62.04304504394531 C 153.3349151611328 63.3018798828125 157.11903381347656 60.99039077758789 154.96717834472656 64.85897827148438 C 152.63064575195312 68.46658325195312 152.36306762695312 66.51089477539062 152.31393432617188 69.74356842041016 C 152.21847534179688 72.99024963378906 149.7753448486328 70.22966766357422 149.580322265625 73.48905944824219 C 149.12818908691406 76.74143981933594 147.1480712890625 78.75419616699219 139.19329833984375 76.32962036132812" stroke-width="2.9073333740234375" fill="none" stroke="rgb(0, 9, 94)" stroke-opacity="1.0" stroke-linecap="round" stroke-linejoin="round"/>
    <path d="M 90.93912506103516 106.09990692138672 C 92.75794982910156 113.55033111572266 91.8558120727539 113.5115966796875 93.929443359375 113.82392120361328 C 96.06536865234375 114.64901733398438 129.5955810546875 114.9340591430664 131.8551788330078 112.9895248413086 C 135.62451171875 109.7247314453125 134.39015197753906 108.16621398925781 132.642333984375 106.28300476074219" stroke-width="2.8282759189605713" fill="none" stroke="rgb(0, 9, 93)" stroke-opacity="1.0" stroke-linecap="round" stroke-linejoin="round"/>
    <path d="M 92.51419067382812 110.77252197265625 C 101.1571273803711 107.77400207519531 98.68571472167969 107.80701446533203 98.54414367675781 98.13053131103516 C 98.59815979003906 106.93203735351562 98.62741088867188 94.09032440185547 96.22174072265625 102.53180694580078 C 87.23047637939453 105.29275512695312 74.84300994873047 98.6727294921875 74.47693634033203 86.41722106933594" stroke-width="3.959144115447998" fill="none" stroke="rgb(7, 47, 104)" stroke-opacity="0.41043016" stroke-linecap="round" stroke-linejoin="round"/>
    <path d="M 140.3406524658203 75.58820343017578 C 128.9923858642578 69.39921569824219 126.57386779785156 77.45198059082031 130.56610107421875 70.60072326660156" stroke-width="3.7787294387817383" fill="none" stroke="rgb(98, 137, 227)" stroke-opacity="0.20630449" stroke-linecap="round" stroke-linejoin="round"/>
    <path d="M 147.239501953125 75.36917877197266 C 141.22044372558594 83.6999740600586 136.0523681640625 88.1953125 142.65524291992188 97.92095184326172 C 144.68450927734375 99.2046890258789 142.48350524902344 87.16807556152344 153.42788696289062 97.524169921875 C 167.08399963378906 91.78409576416016 169.10513305664062 97.69367218017578 173.38035583496094 85.815673828125" stroke-width="2.0" fill="none" stroke="rgb(212, 69, 199)" stroke-opacity="0.0" stroke-linecap="round" stroke-linejoin="round"/>
    <path d="M 128.55682373046875 113.29423522949219 C 134.63986206054688 112.25566101074219 127.88513946533203 100.30070495605469 124.86109924316406 104.25497436523438 C 113.87542724609375 96.10930633544922 110.64619445800781 86.52564239501953 106.73633575439453 98.1768569946289" stroke-width="3.914567470550537" fill="none" stroke="rgb(155, 227, 26)" stroke-opacity="0.19342948" stroke-linecap="round" stroke-linejoin="round"/>
    <path d="M 174.33323669433594 84.8782730102539 C 174.6826629638672 89.204833984375 171.0212860107422 85.37124633789062 177.86849975585938 85.09931182861328 C 168.70606994628906 85.5320053100586 161.49778747558594 90.71484375 161.23670959472656 89.80844116210938 C 171.04867553710938 84.29537200927734 174.26451110839844 90.00482177734375 167.5896453857422 84.29682159423828" stroke-width="2.0" fill="none" stroke="rgb(100, 31, 68)" stroke-opacity="0.0" stroke-linecap="round" stroke-linejoin="round"/>
    <path d="M 102.26249694824219 94.35564422607422 C 103.68531036376953 88.58013916015625 101.58744812011719 97.38246154785156 101.42467498779297 87.70626068115234 C 104.17144775390625 83.26972198486328 109.18663787841797 75.80387878417969 101.67118835449219 78.06749725341797" stroke-width="2.0" fill="none" stroke="rgb(160, 89, 213)" stroke-opacity="0.031896837" stroke-linecap="round" stroke-linejoin="round"/>
    <path d="M 73.66065979003906 90.72858428955078 C 82.08380126953125 96.70642852783203 85.78593444824219 109.92689514160156 84.62621307373047 128.12144470214844 C 82.75148010253906 131.94117736816406 86.49595642089844 128.05274963378906 99.00494384765625 129.4782257080078" stroke-width="2.0" fill="none" stroke="rgb(58, 152, 49)" stroke-opacity="0.2764315" stroke-linecap="round" stroke-linejoin="round"/>
    <path d="M 167.869873046875 93.87349700927734 C 164.6307830810547 85.07334899902344 167.66090393066406 71.62931060791016 165.012451171875 75.81895446777344" stroke-width="2.0" fill="none" stroke="rgb(238, 160, 174)" stroke-opacity="0.6532631" stroke-linecap="round" stroke-linejoin="round"/>
    <path d="M 131.93051147460938 69.55896759033203 C 121.6122817993164 73.27442169189453 118.02323913574219 61.199012756347656 112.71678924560547 64.9956283569336 C 116.77560424804688 62.28322982788086 128.0367431640625 59.39289855957031 125.6935806274414 55.522037506103516 C 124.2692642211914 62.801631927490234 129.65965270996094 59.11442184448242 137.85772705078125 56.6920280456543" stroke-width="4.168388366699219" fill="none" stroke="rgb(26, 150, 135)" stroke-opacity="0.54721576" stroke-linecap="round" stroke-linejoin="round"/>
    <path d="M 33.10480880737305 12.413946151733398 C 19.592702865600586 12.21980094909668 8.285079956054688 11.221896171569824 14.38564682006836 17.439638137817383 C 6.975625991821289 15.891189575195312 16.67546272277832 12.422201156616211 30.428165435791016 19.351669311523438 C 28.12609100341797 24.84966278076172 34.15988540649414 28.421628952026367 30.424497604370117 22.4586181640625" stroke-width="3.2282605171203613" fill="none" stroke="rgb(57, 255, 189)" stroke-opacity="0.67227453" stroke-linecap="round" stroke-linejoin="round"/>
    <path d="M 49.139671325683594 111.94921112060547 C 43.900596618652344 119.19763946533203 48.9562873840332 110.54666900634766 54.03886413574219 104.57650756835938 C 45.470951080322266 115.0672836303711 46.747520446777344 111.07083129882812 52.211273193359375 95.44680786132812" stroke-width="2.0" fill="none" stroke="rgb(202, 113, 115)" stroke-opacity="0.34345424" stroke-linecap="round" stroke-linejoin="round"/>
    <path d="M 141.47093200683594 101.13241577148438 C 141.4246826171875 111.59184265136719 141.64382934570312 127.4001235961914 136.3251953125 133.26901245117188 C 135.4315948486328 143.5995330810547 129.2965087890625 142.5722198486328 137.6005401611328 129.50991821289062 C 153.02108764648438 129.74346923828125 150.2471160888672 140.3409423828125 154.04530334472656 145.00497436523438" stroke-width="2.9471309185028076" fill="none" stroke="rgb(100, 107, 98)" stroke-opacity="0.6403131" stroke-linecap="round" stroke-linejoin="round"/>
    <path d="M 203.46949768066406 49.57780456542969 C 203.3624725341797 56.20919418334961 208.20425415039062 51.028236389160156 211.86647033691406 60.688358306884766" stroke-width="2.0" fill="none" stroke="rgb(134, 101, 167)" stroke-opacity="0.0" stroke-linecap="round" stroke-linejoin="round"/>
    <path d="M 52.51717758178711 216.0315704345703 C 57.90378952026367 216.1463165283203 53.12276840209961 204.49212646484375 55.98905563354492 195.50942993164062 C 55.69795227050781 203.27210998535156 48.263763427734375 212.97213745117188 45.059818267822266 205.4737548828125" stroke-width="2.0" fill="none" stroke="rgb(255, 76, 92)" stroke-opacity="0.57958806" stroke-linecap="round" stroke-linejoin="round"/>
    <path d="M 165.21337890625 215.67897033691406 C 168.4962921142578 227.6085968017578 170.658447265625 230.2509307861328 181.6407470703125 229.76339721679688 C 175.89730834960938 222.9146270751953 183.8350372314453 223.179931640625 195.38050842285156 210.1771240234375" stroke-width="2.0" fill="none" stroke="rgb(207, 0, 0)" stroke-opacity="0.47849563" stroke-linecap="round" stroke-linejoin="round"/>
    <path d="M 70.896728515625 178.9056854248047 C 78.11809539794922 178.47438049316406 80.2587890625 185.4125518798828 94.15803527832031 187.5580291748047 C 89.67952728271484 187.02565002441406 103.1041259765625 185.36131286621094 113.62127685546875 191.63690185546875 C 111.08747863769531 183.0865936279297 105.72037506103516 185.33056640625 106.4914321899414 188.7678680419922" stroke-width="2.0" fill="none" stroke="rgb(210, 89, 93)" stroke-opacity="1.0" stroke-linecap="round" stroke-linejoin="round"/>
    <path d="M 82.27369689941406 138.6737060546875 C 83.97858428955078 157.30206298828125 77.09376525878906 154.72499084472656 82.59324645996094 149.9435272216797" stroke-width="3.2796733379364014" fill="none" stroke="rgb(28, 53, 7)" stroke-opacity="0.23310561" stroke-linecap="round" stroke-linejoin="round"/>
    <path d="M 97.23308563232422 122.35274505615234 C 77.19390869140625 126.38658142089844 74.59158325195312 121.3173828125 77.40706634521484 132.3852081298828" stroke-width="4.143151760101318" fill="none" stroke="rgb(145, 158, 147)" stroke-opacity="1.0" stroke-linecap="round" stroke-linejoin="round"/>
  </g>
</svg>
