<?xml version="1.0" ?>
<svg xmlns="http://www.w3.org/2000/svg" version="1.1" width="956.0" height="956.0">
  <defs/>
  <g>
    <path d="M 20.850313186645508 109.49812316894531 C 20.724609375 108.65215301513672 37.04026794433594 113.16060638427734 100.62752532958984 115.985107421875 C 163.72691345214844 112.6413345336914 170.09934997558594 112.79168701171875 174.59674072265625 112.45742797851562" stroke-width="2.32295823097229" fill="none" stroke="rgb(8, 0, 0)" stroke-opacity="1.0" stroke-linecap="round" stroke-linejoin="round"/>
    <path d="M 94.27824401855469 113.05584716796875 C 96.3548583984375 109.11660766601562 98.22430419921875 109.8433837890625 96.9782485961914 108.67005157470703" stroke-width="1.7356772422790527" fill="none" stroke="rgb(3, 13, 3)" stroke-opacity="0.94907707" stroke-linecap="round" stroke-linejoin="round"/>
    <path d="M 93.22242736816406 112.6048583984375 C 95.660400390625 111.29889678955078 97.46078491210938 110.61836242675781 99.08370971679688 110.52552795410156 C 95.83756256103516 106.53935241699219 174.87583923339844 106.31843566894531 178.16043090820312 101.15672302246094" stroke-width="1.7356772422790527" fill="none" stroke="rgb(0, 12, 3)" stroke-opacity="0.9540045" stroke-linecap="round" stroke-linejoin="round"/>
    <path d="M 29.963226318359375 122.27979278564453 C 33.06858825683594 141.35179138183594 44.07447052001953 155.1858673095703 55.96510314941406 152.46380615234375 C 65.83629608154297 151.27328491210938 133.9206085205078 150.60208129882812 143.6921844482422 154.19468688964844 C 149.8761749267578 154.9355010986328 170.16062927246094 144.9944610595703 168.03274536132812 128.95672607421875" stroke-width="1.7356772422790527" fill="none" stroke="rgb(0, 9, 0)" stroke-opacity="0.9864883" stroke-linecap="round" stroke-linejoin="round"/>
    <path d="M 45.18732452392578 141.41075134277344 C 44.52167510986328 144.760009765625 50.42535400390625 148.989013671875 56.74524688720703 146.44476318359375 C 63.305850982666016 145.60623168945312 69.0205307006836 144.060546875 70.50518035888672 143.39381408691406" stroke-width="1.7729243040084839" fill="none" stroke="rgb(6, 11, 0)" stroke-opacity="0.9890882" stroke-linecap="round" stroke-linejoin="round"/>
    <path d="M 55.131526947021484 146.22378540039062 C 55.89693832397461 134.69313049316406 56.88276672363281 123.78023529052734 58.4166259765625 122.38921356201172 C 56.287906646728516 121.55213928222656 55.49700164794922 122.33861541748047 53.44789123535156 122.27178192138672 C 54.44646072387695 119.36273193359375 55.84279251098633 116.7698745727539 55.320213317871094 117.92558288574219 C 59.678955078125 116.93315124511719 61.7299690246582 116.45806121826172 56.952354431152344 119.12979888916016 C 55.97604751586914 122.66925811767578 57.00388717651367 123.51432037353516 55.96634292602539 123.36036682128906" stroke-width="2.3155159950256348" fill="none" stroke="rgb(9, 7, 0)" stroke-opacity="0.957008" stroke-linecap="round" stroke-linejoin="round"/>
    <path d="M 51.85689926147461 122.65467834472656 C 54.448307037353516 122.3004150390625 57.01585006713867 123.00293731689453 58.1652946472168 123.41627502441406" stroke-width="1.7356772422790527" fill="none" stroke="rgb(14, 13, 0)" stroke-opacity="0.94907945" stroke-linecap="round" stroke-linejoin="round"/>
    <path d="M 20.56103515625 109.76329803466797 C 26.003450393676758 117.97522735595703 22.573226928710938 123.32009887695312 25.11334800720215 126.03742980957031 C 25.832359313964844 127.65706634521484 61.868370056152344 131.5932159423828 97.12281799316406 127.83971405029297 C 137.66539001464844 127.93869018554688 169.560791015625 129.2968292236328 170.64707946777344 125.70957946777344 C 171.26988220214844 123.30663299560547 171.71337890625 109.8505630493164 175.19483947753906 102.3732681274414" stroke-width="1.9977761507034302" fill="none" stroke="rgb(0, 12, 1)" stroke-opacity="1.0" stroke-linecap="round" stroke-linejoin="round"/>
    <path d="M 54.015995025634766 121.4181137084961 C 63.546348571777344 113.78608703613281 68.67350006103516 112.85387420654297 74.30035400390625 105.70870208740234" stroke-width="2.587533712387085" fill="none" stroke="rgb(255, 7, 175)" stroke-opacity="0.14010286" stroke-linecap="round" stroke-linejoin="round"/>
    <path d="M 22.3792667388916 107.37348937988281 C 28.92417335510254 100.42456817626953 29.190147399902344 103.67781066894531 29.34128761291504 111.09706115722656 C 33.9193115234375 103.33309936523438 40.35791778564453 108.13822174072266 35.31829071044922 117.3031005859375" stroke-width="2.4647650718688965" fill="none" stroke="rgb(76, 18, 7)" stroke-opacity="0.79487324" stroke-linecap="round" stroke-linejoin="round"/>
    <path d="M 20.739646911621094 105.21533966064453 C 28.869827270507812 100.38169860839844 36.764156341552734 103.99162292480469 38.37287139892578 108.88780975341797 C 46.548797607421875 114.1443862915039 47.47514724731445 120.4404067993164 49.025978088378906 115.39390563964844 C 38.538795471191406 110.8921890258789 38.37224197387695 115.03665924072266 43.747596740722656 112.10810089111328" stroke-width="1.7356772422790527" fill="none" stroke="rgb(22, 39, 61)" stroke-opacity="0.24567588" stroke-linecap="round" stroke-linejoin="round"/>
    <path d="M 98.64553833007812 127.8655776977539 C 109.08302307128906 117.46752166748047 107.52818298339844 114.28794860839844 98.74836730957031 116.7539291381836 C 95.4508056640625 124.06929779052734 88.80755615234375 131.2841796875 81.58055114746094 133.2484893798828 C 79.75279235839844 131.74594116210938 75.11096954345703 125.29732513427734 82.68201446533203 132.482666015625" stroke-width="1.7356772422790527" fill="none" stroke="rgb(135, 145, 23)" stroke-opacity="0.9007615" stroke-linecap="round" stroke-linejoin="round"/>
    <path d="M 21.235158920288086 106.90425872802734 C 32.021358489990234 107.9862289428711 33.58026885986328 110.7957534790039 37.49913024902344 108.31978607177734 C 40.998382568359375 114.2201919555664 50.164573669433594 106.43215942382812 41.97944259643555 107.12227630615234 C 50.53656768798828 110.8542709350586 55.61772155761719 112.83892059326172 60.987579345703125 116.83827209472656" stroke-width="2.7645113468170166" fill="none" stroke="rgb(147, 25, 48)" stroke-opacity="0.5834683" stroke-linecap="round" stroke-linejoin="round"/>
    <path d="M 176.23257446289062 101.15403747558594 C 177.65310668945312 105.09254455566406 186.1397705078125 103.21656036376953 185.6031951904297 105.72134399414062 C 177.93112182617188 115.86641693115234 176.48147583007812 115.34539794921875 179.773681640625 116.04978942871094" stroke-width="1.9508198499679565" fill="none" stroke="rgb(146, 116, 248)" stroke-opacity="0.3480658" stroke-linecap="round" stroke-linejoin="round"/>
    <path d="M 57.87245178222656 124.36359405517578 C 62.268341064453125 117.18038177490234 64.04279327392578 116.34310913085938 55.545406341552734 121.0229263305664 C 58.34730911254883 123.76387023925781 58.76732635498047 129.5927276611328 59.815284729003906 126.94822692871094 C 63.9095573425293 128.24893188476562 64.90193176269531 134.0106964111328 58.01103973388672 133.75588989257812" stroke-width="2.7013871669769287" fill="none" stroke="rgb(0, 255, 216)" stroke-opacity="1.0" stroke-linecap="round" stroke-linejoin="round"/>
    <path d="M 59.048072814941406 146.92872619628906 C 50.342342376708984 141.14976501464844 46.524906158447266 133.3667755126953 37.53639602661133 134.1937713623047" stroke-width="2.4267032146453857" fill="none" stroke="rgb(75, 84, 3)" stroke-opacity="0.9649039" stroke-linecap="round" stroke-linejoin="round"/>
    <path d="M 43.71168518066406 112.04753112792969 C 48.28196334838867 109.65115356445312 48.25840377807617 108.8055191040039 56.63565444946289 107.75861358642578 C 65.87516021728516 100.73756408691406 55.40037536621094 92.98339080810547 58.206180572509766 92.32797241210938 C 59.14017105102539 94.239013671875 54.173824310302734 97.83485412597656 53.45221710205078 99.10430145263672" stroke-width="1.7356772422790527" fill="none" stroke="rgb(243, 144, 37)" stroke-opacity="0.45201287" stroke-linecap="round" stroke-linejoin="round"/>
    <path d="M 35.52843475341797 136.8471221923828 C 34.80929183959961 139.83241271972656 39.0955924987793 143.11447143554688 34.836910247802734 146.62039184570312 C 35.942481994628906 147.03170776367188 24.137588500976562 156.1007080078125 18.617151260375977 155.30386352539062" stroke-width="1.7475701570510864" fill="none" stroke="rgb(43, 53, 36)" stroke-opacity="0.0018549308" stroke-linecap="round" stroke-linejoin="round"/>
    <path d="M 38.574310302734375 134.8599853515625 C 45.15280532836914 134.62753295898438 50.84497833251953 141.44998168945312 49.65523910522461 135.13186645507812 C 50.42520523071289 141.94651794433594 46.432594299316406 134.2651824951172 46.85430908203125 142.21974182128906" stroke-width="1.7356772422790527" fill="none" stroke="rgb(22, 0, 165)" stroke-opacity="0.4319181" stroke-linecap="round" stroke-linejoin="round"/>
    <path d="M 60.00730895996094 136.84471130371094 C 52.01142501831055 143.71328735351562 51.141136169433594 138.8601531982422 53.28093338012695 142.45111083984375" stroke-width="1.7356772422790527" fill="none" stroke="rgb(70, 230, 201)" stroke-opacity="0.23874827" stroke-linecap="round" stroke-linejoin="round"/>
    <path d="M 35.07099914550781 118.37646484375 C 41.60627746582031 108.57669830322266 41.65414810180664 98.77423095703125 47.31251525878906 91.90287017822266 C 43.9112548828125 97.28166961669922 41.61959457397461 104.6740493774414 45.00750732421875 109.00579071044922 C 51.19184494018555 111.45660400390625 58.176082611083984 118.98841094970703 58.14088439941406 114.31147003173828" stroke-width="1.7356772422790527" fill="none" stroke="rgb(226, 221, 217)" stroke-opacity="0.37960088" stroke-linecap="round" stroke-linejoin="round"/>
    <path d="M 83.80796813964844 130.7815704345703 C 82.2206039428711 131.9730682373047 86.41737365722656 130.87095642089844 86.17692565917969 120.92742156982422 C 78.74885559082031 127.92171478271484 71.7022705078125 132.11566162109375 71.06299591064453 133.1581268310547 C 62.33631896972656 140.29063415527344 58.77120590209961 136.16510009765625 65.90016174316406 137.5605926513672" stroke-width="2.0127809047698975" fill="none" stroke="rgb(212, 81, 44)" stroke-opacity="0.8061022" stroke-linecap="round" stroke-linejoin="round"/>
    <path d="M 59.00574493408203 137.53211975097656 C 57.80189895629883 131.64657592773438 50.04578399658203 126.41045379638672 50.039649963378906 135.47344970703125 C 46.50372314453125 142.01589965820312 40.67230987548828 151.35317993164062 38.69212341308594 156.23922729492188 C 42.86102294921875 158.23948669433594 37.00648880004883 153.96751403808594 35.352195739746094 153.56790161132812" stroke-width="1.9590824842453003" fill="none" stroke="rgb(204, 192, 119)" stroke-opacity="0.99701446" stroke-linecap="round" stroke-linejoin="round"/>
    <path d="M 76.0175552368164 106.20588684082031 C 73.21549224853516 100.38209533691406 65.57206726074219 91.68820190429688 69.45909881591797 85.61493682861328" stroke-width="2.162442922592163" fill="none" stroke="rgb(190, 133, 55)" stroke-opacity="0.8577701" stroke-linecap="round" stroke-linejoin="round"/>
    <path d="M 73.56122589111328 154.0841827392578 C 82.19391632080078 148.66238403320312 89.38856506347656 157.46719360351562 91.10753631591797 154.13731384277344 C 91.97223663330078 151.37789916992188 89.05760955810547 157.7035369873047 94.14522552490234 161.943603515625" stroke-width="2.2475898265838623" fill="none" stroke="rgb(255, 103, 203)" stroke-opacity="0.060641333" stroke-linecap="round" stroke-linejoin="round"/>
    <path d="M 106.08580780029297 21.76923179626465 C 112.73179626464844 16.060712814331055 115.3149185180664 22.460342407226562 125.36962890625 28.498260498046875 C 124.64457702636719 31.878679275512695 120.48661804199219 40.35728454589844 117.41688537597656 45.15637969970703 C 117.5729751586914 48.647491455078125 119.15387725830078 49.141605377197266 118.11170196533203 41.17787170410156" stroke-width="1.7356772422790527" fill="none" stroke="rgb(74, 57, 156)" stroke-opacity="0.58229685" stroke-linecap="round" stroke-linejoin="round"/>
    <path d="M 10.664552688598633 81.77254486083984 C 18.000455856323242 70.06692504882812 13.368157386779785 64.87660217285156 21.364845275878906 74.70126342773438 C 17.186080932617188 76.95380401611328 10.667905807495117 83.42938232421875 13.697088241577148 94.52764129638672 C 7.654751777648926 95.71196746826172 3.604666233062744 100.7611312866211 -3.281101942062378 100.71082305908203" stroke-width="1.7356772422790527" fill="none" stroke="rgb(189, 190, 70)" stroke-opacity="0.9132667" stroke-linecap="round" stroke-linejoin="round"/>
    <path d="M 86.69776916503906 117.47212219238281 C 81.46976470947266 109.39411163330078 77.72401428222656 103.1650619506836 78.478271484375 96.84770202636719 C 72.84733581542969 89.67642974853516 70.89884185791016 92.27745056152344 70.30425262451172 89.6695556640625 C 70.2402114868164 96.92264556884766 76.87210083007812 91.16011047363281 78.98819732666016 79.81336212158203" stroke-width="2.2816662788391113" fill="none" stroke="rgb(178, 188, 108)" stroke-opacity="0.72297174" stroke-linecap="round" stroke-linejoin="round"/>
    <path d="M 2.53212833404541 130.79364013671875 C -2.387814998626709 126.80514526367188 4.650298595428467 130.78199768066406 -0.5924865007400513 137.5159912109375 C -8.855992317199707 132.56161499023438 -9.370584487915039 141.6180877685547 -17.6048526763916 132.44500732421875 C -18.510929107666016 134.4703369140625 -9.2279691696167 135.689697265625 -8.662849426269531 127.35784912109375" stroke-width="2.702204942703247" fill="none" stroke="rgb(56, 0, 199)" stroke-opacity="0.8812002" stroke-linecap="round" stroke-linejoin="round"/>
    <path d="M 55.62661361694336 69.5549545288086 C 62.409908294677734 74.85836791992188 57.70348358154297 74.56969451904297 54.14101028442383 65.18087005615234 C 49.72301483154297 57.874916076660156 43.6861686706543 56.64620590209961 48.56797409057617 48.875755310058594" stroke-width="1.7356772422790527" fill="none" stroke="rgb(175, 230, 137)" stroke-opacity="0.660329" stroke-linecap="round" stroke-linejoin="round"/>
    <path d="M 170.24952697753906 77.74388122558594 C 175.87176513671875 76.79481506347656 175.01425170898438 74.07146453857422 168.04893493652344 70.80111694335938 C 177.86419677734375 63.92366409301758 180.9210968017578 61.475502014160156 181.0107421875 67.62420654296875" stroke-width="1.9582544565200806" fill="none" stroke="rgb(215, 198, 255)" stroke-opacity="0.53933066" stroke-linecap="round" stroke-linejoin="round"/>
    <path d="M 18.53826904296875 193.60060119628906 C 12.583135604858398 188.7803497314453 14.603792190551758 194.3155517578125 7.474691390991211 189.2042236328125 C -2.5650272369384766 192.57928466796875 -6.5424675941467285 193.45346069335938 -13.159073829650879 185.90052795410156 C -13.213396072387695 179.60037231445312 -14.07759952545166 170.86683654785156 -19.3499698638916 165.30679321289062" stroke-width="1.7356772422790527" fill="none" stroke="rgb(61, 50, 48)" stroke-opacity="0.6225848" stroke-linecap="round" stroke-linejoin="round"/>
    <path d="M 116.30864715576172 89.27425384521484 C 114.29810333251953 82.67406463623047 113.97752380371094 86.15428161621094 120.58551025390625 78.21208190917969" stroke-width="1.7356772422790527" fill="none" stroke="rgb(198, 52, 113)" stroke-opacity="0.36746395" stroke-linecap="round" stroke-linejoin="round"/>
    <path d="M 62.94120407104492 171.77340698242188 C 66.37684631347656 168.9680633544922 65.36791229248047 169.6850128173828 61.15945053100586 169.0861053466797 C 65.30870056152344 178.9958953857422 61.59553527832031 186.12820434570312 56.57002639770508 184.0792999267578" stroke-width="1.932806372642517" fill="none" stroke="rgb(116, 242, 161)" stroke-opacity="0.35916588" stroke-linecap="round" stroke-linejoin="round"/>
    <path d="M 23.021331787109375 84.9797592163086 C 25.139211654663086 90.59415435791016 22.899389266967773 83.41793060302734 18.280675888061523 73.57137298583984" stroke-width="2.1553990840911865" fill="none" stroke="rgb(162, 151, 88)" stroke-opacity="0.9214398" stroke-linecap="round" stroke-linejoin="round"/>
    <path d="M 173.43385314941406 155.7582244873047 C 173.53785705566406 146.49400329589844 168.9396514892578 147.9733123779297 166.3641815185547 160.64495849609375" stroke-width="1.7356772422790527" fill="none" stroke="rgb(128, 69, 133)" stroke-opacity="0.5262126" stroke-linecap="round" stroke-linejoin="round"/>
    <path d="M 186.716064453125 159.3201141357422 C 185.41757202148438 166.77601623535156 190.8849639892578 155.9075164794922 191.16741943359375 153.61424255371094 C 194.24705505371094 151.97828674316406 203.53196716308594 154.2197265625 199.72512817382812 164.12002563476562 C 193.55882263183594 171.4353790283203 192.96197509765625 171.72694396972656 193.8101806640625 163.0558624267578" stroke-width="1.7356772422790527" fill="none" stroke="rgb(165, 208, 142)" stroke-opacity="0.517215" stroke-linecap="round" stroke-linejoin="round"/>
    <path d="M 33.184818267822266 187.51409912109375 C 28.90744400024414 188.6925506591797 37.03687286376953 197.20558166503906 30.624330520629883 192.3143310546875 C 32.2750358581543 190.2495574951172 27.80014419555664 197.11122131347656 34.77920150756836 196.78480529785156 C 30.54960823059082 204.71417236328125 21.29981231689453 212.80508422851562 19.604290008544922 220.6979217529297" stroke-width="2.5132627487182617" fill="none" stroke="rgb(135, 231, 0)" stroke-opacity="0.51661897" stroke-linecap="round" stroke-linejoin="round"/>
    <path d="M 22.510303497314453 69.09888458251953 C 31.487401962280273 69.80509948730469 24.26073455810547 68.05352020263672 28.956430435180664 64.52823638916016 C 34.763858795166016 71.21760559082031 26.716249465942383 80.55426788330078 16.24652862548828 77.84742736816406 C 22.305938720703125 84.5753173828125 14.595663070678711 87.6836929321289 22.341472625732422 94.66850280761719" stroke-width="1.7356772422790527" fill="none" stroke="rgb(218, 134, 75)" stroke-opacity="0.017204953" stroke-linecap="round" stroke-linejoin="round"/>
    <path d="M 144.10736083984375 9.070880889892578 C 147.93630981445312 15.048782348632812 145.5172882080078 12.089526176452637 140.24111938476562 8.355546951293945" stroke-width="1.7356772422790527" fill="none" stroke="rgb(143, 150, 186)" stroke-opacity="0.5107737" stroke-linecap="round" stroke-linejoin="round"/>
  </g>
</svg>
