<?xml version="1.0" ?>
<svg xmlns="http://www.w3.org/2000/svg" version="1.1" width="956.0" height="956.0">
  <defs/>
  <g>
    <path d="M 26.558773040771484 69.39502716064453 C 77.947265625 70.76356506347656 129.3358154296875 72.13016510009766 180.72430419921875 73.49871826171875 C 232.11289978027344 74.86727142333984 183.3468017578125 67.38302612304688 133.7128143310547 60.766605377197266" stroke-width="1.7356772422790527" fill="none" stroke="rgb(1, 9, 5)" stroke-opacity="0.85499" stroke-linecap="round" stroke-linejoin="round"/>
    <path d="M 62.39677047729492 82.31458282470703 C 57.28883743286133 118.62384796142578 51.313148498535156 154.93309020996094 61.84745788574219 164.30880737304688 C 71.5139389038086 173.68450927734375 98.55634307861328 156.12667846679688 125.59874725341797 138.56883239746094 C 152.6411590576172 121.0110092163086 144.70008850097656 112.75507354736328 137.62684631347656 105.36679077148438" stroke-width="1.7356772422790527" fill="none" stroke="rgb(8, 19, 2)" stroke-opacity="0.92104" stroke-linecap="round" stroke-linejoin="round"/>
    <path d="M 131.3334197998047 85.4190673828125 C 141.54974365234375 84.57427215576172 150.8982391357422 82.86164093017578 153.42733764648438 85.9322738647461 C 155.0905303955078 89.87073516845703 150.80410766601562 99.46028137207031 146.51766967773438 109.04788208007812 C 142.2312469482422 118.63744354248047 143.01937866210938 120.90486145019531 142.93968200683594 122.30455780029297" stroke-width="2.6950652599334717" fill="none" stroke="rgb(7, 15, 4)" stroke-opacity="0.97400004" stroke-linecap="round" stroke-linejoin="round"/>
    <path d="M 77.18057250976562 93.21965789794922 C 75.75064086914062 106.1035385131836 73.45286560058594 118.12100982666016 71.15318298339844 130.14064025878906 C 67.98770141601562 141.29039001464844 77.20197296142578 134.3640594482422 86.41635131835938 127.4377212524414" stroke-width="1.8908023834228516" fill="none" stroke="rgb(8, 13, 0)" stroke-opacity="0.95116" stroke-linecap="round" stroke-linejoin="round"/>
    <path d="M 71.23793029785156 98.19674682617188 C 75.1219482421875 95.54126739501953 66.12610626220703 91.84774017333984 73.18461608886719 92.70699310302734" stroke-width="1.7356772422790527" fill="none" stroke="rgb(17, 30, 2)" stroke-opacity="0.88222003" stroke-linecap="round" stroke-linejoin="round"/>
    <path d="M 96.83010864257812 100.01707458496094 C 99.51862335205078 101.68299865722656 94.32829284667969 99.9676513671875 106.43212890625 100.2281494140625" stroke-width="1.7356772422790527" fill="none" stroke="rgb(2, 16, 0)" stroke-opacity="0.95602" stroke-linecap="round" stroke-linejoin="round"/>
    <path d="M 71.06683349609375 136.1960906982422 C 96.28386688232422 140.55250549316406 98.29006958007812 142.70249938964844 99.23561096191406 141.1445770263672" stroke-width="2.685825824737549" fill="none" stroke="rgb(3, 18, 0)" stroke-opacity="1.0" stroke-linecap="round" stroke-linejoin="round"/>
    <path d="M 95.92891693115234 135.10748291015625 C 94.24539184570312 135.50404357910156 91.69239807128906 135.03282165527344 90.00878143310547 135.4313507080078 C 89.19287109375 136.69564819335938 85.28766632080078 133.8975372314453 80.51640319824219 131.96714782714844" stroke-width="3.871863842010498" fill="none" stroke="rgb(214, 44, 86)" stroke-opacity="1.0" stroke-linecap="round" stroke-linejoin="round"/>
    <path d="M 107.59781646728516 104.72920989990234 C 111.22199249267578 94.52921295166016 120.98365020751953 89.54808044433594 122.16960906982422 84.1948013305664" stroke-width="2.3419299125671387" fill="none" stroke="rgb(117, 156, 1)" stroke-opacity="0.13177998" stroke-linecap="round" stroke-linejoin="round"/>
    <path d="M 77.96641540527344 95.0732421875 C 82.60646057128906 97.78528594970703 88.1137466430664 98.76258850097656 92.7543716430664 100.60533905029297 C 97.3942642211914 103.3178482055664 97.60441589355469 100.03044891357422 96.94693756103516 95.87765502929688" stroke-width="1.7356772422790527" fill="none" stroke="rgb(135, 166, 131)" stroke-opacity="0.08661003" stroke-linecap="round" stroke-linejoin="round"/>
    <path d="M 63.99666213989258 84.18741607666016 C 58.6838264465332 83.1551742553711 53.37293243408203 82.1248779296875 51.73611068725586 81.12957000732422 C 50.10130310058594 79.26846313476562 52.14246368408203 78.31200408935547 55.05135726928711 78.22526550292969 C 57.09252166748047 77.26883697509766 56.8028678894043 74.06317138671875 56.51127624511719 70.85575103759766" stroke-width="1.7356772422790527" fill="none" stroke="rgb(75, 238, 194)" stroke-opacity="0.28557998" stroke-linecap="round" stroke-linejoin="round"/>
    <path d="M 93.69532775878906 97.34136199951172 C 101.36930847167969 95.27689361572266 104.83556365966797 95.47325897216797 109.31697082519531 91.43054962158203" stroke-width="2.1268043518066406" fill="none" stroke="rgb(44, 175, 106)" stroke-opacity="0.38916" stroke-linecap="round" stroke-linejoin="round"/>
    <path d="M 103.89138793945312 103.48039245605469 C 96.87757873535156 99.26008605957031 101.7627182006836 91.93177032470703 96.9098129272461 86.50072479248047" stroke-width="1.7356772422790527" fill="none" stroke="rgb(198, 182, 67)" stroke-opacity="0.36618" stroke-linecap="round" stroke-linejoin="round"/>
    <path d="M 174.81202697753906 71.35648345947266 C 178.39747619628906 64.90723419189453 181.11318969726562 57.59018325805664 183.44400024414062 55.1088981628418 C 185.77479553222656 53.49540710449219 187.71876525878906 57.58547592163086 189.66268920898438 61.673648834228516 C 191.60667419433594 66.63150024414062 194.33792114257812 57.61153030395508 196.19947814941406 47.72396469116211" stroke-width="2.016749858856201" fill="none" stroke="rgb(96, 109, 100)" stroke-opacity="0.86937" stroke-linecap="round" stroke-linejoin="round"/>
    <path d="M 138.30447387695312 118.13202667236328 C 134.63241577148438 118.77739715576172 130.96023559570312 119.42474365234375 127.28812408447266 120.07013702392578 C 124.48345947265625 120.71581268310547 133.39866638183594 124.34688568115234 142.3155517578125 127.97821807861328" stroke-width="1.7356772422790527" fill="none" stroke="rgb(149, 216, 158)" stroke-opacity="0.42613995" stroke-linecap="round" stroke-linejoin="round"/>
    <path d="M 125.59880065917969 138.5688934326172 C 129.41009521484375 131.0237274169922 136.9901123046875 137.3876190185547 131.8151092529297 144.57447814941406 C 140.81201171875 144.06182861328125 134.2816619873047 138.26556396484375 134.70977783203125 141.4118194580078 C 143.63282775878906 145.72080993652344 143.5580596923828 140.07530212402344 151.54867553710938 147.6548614501953" stroke-width="1.7356772422790527" fill="none" stroke="rgb(95, 179, 228)" stroke-opacity="0.7186289" stroke-linecap="round" stroke-linejoin="round"/>
    <path d="M 96.91033935546875 86.500732421875 C 105.69569396972656 92.357177734375 111.47344207763672 101.44550323486328 105.00775909423828 106.58843994140625 C 103.28036499023438 98.68560791015625 99.30038452148438 104.10163116455078 107.77497100830078 112.2811508178711" stroke-width="1.9092446565628052" fill="none" stroke="rgb(163, 130, 101)" stroke-opacity="0.72842383" stroke-linecap="round" stroke-linejoin="round"/>
    <path d="M 62.39676284790039 83.18240356445312 C 70.47029876708984 89.57682800292969 72.34091186523438 92.65778350830078 70.99569702148438 97.12549591064453 C 64.49522399902344 88.58660125732422 55.62525177001953 84.87006378173828 49.187137603759766 80.93666076660156 C 54.66230010986328 74.06497192382812 49.28358459472656 74.45402526855469 40.68830871582031 83.83628845214844" stroke-width="1.909244418144226" fill="none" stroke="rgb(224, 255, 229)" stroke-opacity="0.72180724" stroke-linecap="round" stroke-linejoin="round"/>
    <path d="M 141.44784545898438 128.84585571289062 C 136.2543487548828 134.13739013671875 144.78005981445312 138.73529052734375 147.5457305908203 137.87034606933594" stroke-width="1.7356772422790527" fill="none" stroke="rgb(165, 201, 118)" stroke-opacity="0.19956256" stroke-linecap="round" stroke-linejoin="round"/>
    <path d="M 55.643497467041016 69.98793029785156 C 51.690364837646484 78.72762298583984 42.97265625 84.8766098022461 47.80010223388672 90.48247528076172" stroke-width="1.9092433452606201" fill="none" stroke="rgb(150, 144, 182)" stroke-opacity="0.09776605" stroke-linecap="round" stroke-linejoin="round"/>
    <path d="M 141.44786071777344 128.84593200683594 C 148.49118041992188 130.69265747070312 154.4431915283203 139.4162139892578 154.26565551757812 135.0758514404297" stroke-width="1.7356772422790527" fill="none" stroke="rgb(139, 53, 0)" stroke-opacity="0.4879867" stroke-linecap="round" stroke-linejoin="round"/>
    <path d="M 128.15565490722656 120.93772888183594 C 130.33438110351562 118.17864227294922 135.59803771972656 119.40776824951172 139.83200073242188 115.23631286621094 C 135.80072021484375 112.46939849853516 130.7120819091797 107.63182830810547 126.9715576171875 114.62149047851562 C 127.51686096191406 119.92034149169922 133.06239318847656 116.84310150146484 130.06825256347656 113.90727233886719" stroke-width="1.9091711044311523" fill="none" stroke="rgb(138, 174, 220)" stroke-opacity="0.10062771" stroke-linecap="round" stroke-linejoin="round"/>
    <path d="M 71.93465423583984 136.1960906982422 C 69.04026794433594 139.82992553710938 69.78506469726562 146.51138305664062 71.28272247314453 139.3438262939453 C 67.46369934082031 139.79043579101562 71.31158447265625 144.01722717285156 72.23395538330078 135.1836700439453 C 78.1903076171875 129.98483276367188 81.0583267211914 135.4457244873047 85.2717514038086 142.7106475830078" stroke-width="1.7356772422790527" fill="none" stroke="rgb(239, 203, 31)" stroke-opacity="0.79066825" stroke-linecap="round" stroke-linejoin="round"/>
    <path d="M 107.77498626708984 112.2811279296875 C 109.35918426513672 118.89810180664062 106.3481216430664 122.2804183959961 96.77758026123047 126.30583953857422 C 102.57246398925781 118.94969177246094 109.31524658203125 123.22872924804688 104.87984466552734 131.74835205078125 C 103.51517486572266 128.99169921875 109.53238677978516 137.8494873046875 119.06780242919922 129.56033325195312" stroke-width="1.9092446565628052" fill="none" stroke="rgb(14, 21, 4)" stroke-opacity="0.83266574" stroke-linecap="round" stroke-linejoin="round"/>
    <path d="M 151.5487060546875 146.78707885742188 C 155.75729370117188 153.50521850585938 163.6904296875 151.28855895996094 157.54432678222656 146.04962158203125 C 159.80039978027344 148.5145721435547 154.30052185058594 151.8040313720703 163.28890991210938 143.397705078125" stroke-width="1.909244179725647" fill="none" stroke="rgb(12, 127, 37)" stroke-opacity="0.16632098" stroke-linecap="round" stroke-linejoin="round"/>
    <path d="M 107.77497100830078 112.2811279296875 C 101.02265167236328 110.27018737792969 106.09420013427734 109.05189514160156 97.33409118652344 108.09043884277344 C 92.25641632080078 100.40132141113281 87.2835464477539 95.72978210449219 84.61910247802734 91.78759002685547 C 89.94556427001953 100.41170501708984 80.81578826904297 109.51667022705078 77.97550201416016 100.21440887451172" stroke-width="1.909244418144226" fill="none" stroke="rgb(185, 169, 84)" stroke-opacity="0.81236595" stroke-linecap="round" stroke-linejoin="round"/>
    <path d="M 85.27179718017578 142.7105712890625 C 77.95568084716797 146.5906219482422 78.62487030029297 148.7131805419922 80.83431243896484 149.16835021972656" stroke-width="1.7356772422790527" fill="none" stroke="rgb(9, 140, 197)" stroke-opacity="0.32788515" stroke-linecap="round" stroke-linejoin="round"/>
    <path d="M 40.68830871582031 82.96868133544922 C 37.75689697265625 80.92616271972656 44.64985275268555 89.11344146728516 37.0889892578125 82.09600830078125 C 27.62859344482422 83.08271789550781 23.524812698364258 81.50627899169922 18.97951889038086 87.47010803222656" stroke-width="1.7356772422790527" fill="none" stroke="rgb(205, 162, 72)" stroke-opacity="0.58045197" stroke-linecap="round" stroke-linejoin="round"/>
    <path d="M 106.90734100341797 112.28113555908203 C 115.21741485595703 116.92741394042969 120.96654510498047 109.05304718017578 111.82154083251953 112.03409576416016 C 102.79007720947266 110.14884185791016 102.26459503173828 113.03430938720703 105.98771667480469 121.34505462646484" stroke-width="1.909244418144226" fill="none" stroke="rgb(14, 176, 181)" stroke-opacity="0.7745134" stroke-linecap="round" stroke-linejoin="round"/>
    <path d="M 147.54574584960938 137.87034606933594 C 146.8335723876953 138.82086181640625 155.27978515625 131.45326232910156 145.8629608154297 131.88250732421875 C 151.12203979492188 126.45433807373047 143.1866455078125 137.00698852539062 134.60255432128906 137.24862670898438" stroke-width="1.7356772422790527" fill="none" stroke="rgb(237, 132, 179)" stroke-opacity="0.8530261" stroke-linecap="round" stroke-linejoin="round"/>
    <path d="M 130.06822204589844 113.90727233886719 C 128.4886016845703 115.52642059326172 134.6925811767578 108.2718505859375 129.62107849121094 114.64270782470703" stroke-width="1.7356772422790527" fill="none" stroke="rgb(15, 192, 35)" stroke-opacity="0.68075913" stroke-linecap="round" stroke-linejoin="round"/>
    <path d="M 180.77337646484375 136.1387939453125 C 187.05072021484375 132.57373046875 180.06472778320312 132.38816833496094 179.74661254882812 139.82479858398438 C 169.22518920898438 137.41253662109375 173.06103515625 135.3713836669922 180.48374938964844 136.5352783203125" stroke-width="1.7356772422790527" fill="none" stroke="rgb(69, 236, 18)" stroke-opacity="0.056399174" stroke-linecap="round" stroke-linejoin="round"/>
    <path d="M 22.674304962158203 75.23448181152344 C 13.25265884399414 74.97978210449219 10.22618293762207 77.01069641113281 0.6765850186347961 80.97830963134766 C 8.73155689239502 72.87340545654297 0.7599816918373108 64.8824234008789 -6.576007843017578 69.52935028076172" stroke-width="1.9092447757720947" fill="none" stroke="rgb(124, 78, 70)" stroke-opacity="0.9843401" stroke-linecap="round" stroke-linejoin="round"/>
    <path d="M 121.2176284790039 2.4117848873138428 C 123.0623550415039 -5.04790735244751 120.82087707519531 -0.1397584229707718 121.60865783691406 -6.451936721801758" stroke-width="1.7356772422790527" fill="none" stroke="rgb(210, 24, 12)" stroke-opacity="0.727382" stroke-linecap="round" stroke-linejoin="round"/>
    <path d="M 159.2159881591797 39.191959381103516 C 162.04542541503906 29.496551513671875 159.4917449951172 26.41671371459961 155.62484741210938 17.65940284729004" stroke-width="1.9092421531677246" fill="none" stroke="rgb(124, 140, 13)" stroke-opacity="0.11018156" stroke-linecap="round" stroke-linejoin="round"/>
    <path d="M 128.17282104492188 188.30479431152344 C 123.21483612060547 186.36558532714844 115.731689453125 194.47828674316406 116.42485046386719 186.0355682373047 C 112.21546936035156 183.4413299560547 108.37593078613281 176.90408325195312 108.64152526855469 180.56690979003906 C 108.20421600341797 185.47413635253906 102.31011199951172 192.41175842285156 111.10336303710938 182.8162384033203" stroke-width="1.7356772422790527" fill="none" stroke="rgb(215, 124, 181)" stroke-opacity="0.3388012" stroke-linecap="round" stroke-linejoin="round"/>
    <path d="M 63.13081741333008 140.07969665527344 C 58.7340087890625 134.71389770507812 63.02830123901367 137.4462127685547 70.06025695800781 143.72181701660156 C 78.0262680053711 145.47055053710938 68.34285736083984 141.09207153320312 65.65400695800781 141.6429443359375" stroke-width="1.9092433452606201" fill="none" stroke="rgb(29, 72, 237)" stroke-opacity="0.16056164" stroke-linecap="round" stroke-linejoin="round"/>
    <path d="M 187.80984497070312 157.4850616455078 C 196.41920471191406 160.28921508789062 190.0059814453125 152.40972900390625 190.92349243164062 149.4854736328125 C 185.165283203125 158.31663513183594 189.1397247314453 165.85784912109375 197.87600708007812 162.30239868164062 C 187.96841430664062 152.8457489013672 188.59275817871094 151.91348266601562 196.6029510498047 153.20220947265625" stroke-width="1.7356772422790527" fill="none" stroke="rgb(11, 134, 153)" stroke-opacity="0.9399498" stroke-linecap="round" stroke-linejoin="round"/>
    <path d="M 59.061832427978516 163.2211151123047 C 52.68629837036133 159.83743286132812 52.036888122558594 158.8492889404297 54.48271942138672 162.3251495361328 C 52.680912017822266 169.5460968017578 45.766239166259766 173.54034423828125 50.808006286621094 171.1781463623047 C 44.43630599975586 165.3723907470703 41.01972961425781 157.49111938476562 45.2827033996582 159.67620849609375" stroke-width="1.7356772422790527" fill="none" stroke="rgb(115, 189, 29)" stroke-opacity="0.8424261" stroke-linecap="round" stroke-linejoin="round"/>
    <path d="M 133.84613037109375 8.756220817565918 C 135.25022888183594 1.5056934356689453 127.11576843261719 10.893110275268555 133.8616485595703 8.088902473449707 C 126.75765991210938 6.256152153015137 131.6558380126953 -2.9347903728485107 122.6627197265625 5.113037109375 C 127.69549560546875 -2.6925604343414307 126.54901885986328 4.779984474182129 127.47537231445312 -1.1691844463348389" stroke-width="1.7356772422790527" fill="none" stroke="rgb(109, 78, 90)" stroke-opacity="0.9007714" stroke-linecap="round" stroke-linejoin="round"/>
    <path d="M 2.5027613639831543 37.045379638671875 C -3.514347791671753 40.35029602050781 -9.136726379394531 44.90863800048828 -0.11660663783550262 38.4600715637207" stroke-width="1.7356772422790527" fill="none" stroke="rgb(130, 185, 232)" stroke-opacity="0.82613695" stroke-linecap="round" stroke-linejoin="round"/>
    <path d="M 80.2018814086914 138.67227172851562 C 86.26255798339844 140.126953125 84.8333740234375 147.7025146484375 78.82707214355469 146.49359130859375" stroke-width="1.7356772422790527" fill="none" stroke="rgb(112, 215, 186)" stroke-opacity="0.80033445" stroke-linecap="round" stroke-linejoin="round"/>
    <path d="M 43.59109878540039 74.37075805664062 C 39.8201904296875 69.06182098388672 38.514625549316406 76.19486236572266 35.33944320678711 78.38955688476562 C 36.85157775878906 73.51448822021484 36.22734069824219 70.4428939819336 43.57921600341797 79.9326400756836 C 46.119789123535156 73.40719604492188 50.3675422668457 70.60936737060547 43.39043045043945 73.70899963378906" stroke-width="1.9092416763305664" fill="none" stroke="rgb(136, 111, 68)" stroke-opacity="0.20150244" stroke-linecap="round" stroke-linejoin="round"/>
    <path d="M 25.411561965942383 41.98659133911133 C 30.962427139282227 37.20624923706055 36.73566436767578 46.52166748046875 46.44696044921875 41.39517593383789 C 42.8156623840332 43.562191009521484 40.94765090942383 46.1948127746582 39.08476638793945 44.813053131103516 C 46.24732971191406 48.95161819458008 44.38284683227539 48.304107666015625 43.322425842285156 41.0704345703125" stroke-width="1.9092447757720947" fill="none" stroke="rgb(35, 24, 249)" stroke-opacity="0.5850108" stroke-linecap="round" stroke-linejoin="round"/>
    <path d="M 88.06314849853516 71.43138885498047 C 85.434326171875 62.14262771606445 92.5014877319336 63.867008209228516 101.32674407958984 60.229305267333984 C 104.29410552978516 59.87137222290039 102.89513397216797 57.27516555786133 109.14737701416016 56.851078033447266 C 107.16300964355469 48.1358642578125 116.63159942626953 48.449520111083984 108.31204223632812 40.061424255371094" stroke-width="1.9091649055480957" fill="none" stroke="rgb(98, 206, 173)" stroke-opacity="0.1891188" stroke-linecap="round" stroke-linejoin="round"/>
    <path d="M 83.73987579345703 71.91362762451172 C 91.7522964477539 65.19722747802734 89.7002944946289 56.33238983154297 83.92012023925781 49.11128234863281 C 89.97491455078125 58.748313903808594 84.30242156982422 54.98844909667969 81.8399429321289 62.40597915649414" stroke-width="1.9092446565628052" fill="none" stroke="rgb(0, 132, 170)" stroke-opacity="0.22167094" stroke-linecap="round" stroke-linejoin="round"/>
    <path d="M 75.40184783935547 64.6761703491211 C 78.67015838623047 60.29770278930664 88.06985473632812 66.66069030761719 95.46497344970703 66.19083404541016 C 85.61274719238281 62.226715087890625 80.57098388671875 69.49200439453125 71.99694061279297 69.70356750488281 C 77.36310577392578 61.86366653442383 86.66600036621094 53.99612808227539 83.29415130615234 58.09696578979492" stroke-width="1.9092446565628052" fill="none" stroke="rgb(237, 165, 251)" stroke-opacity="0.34418434" stroke-linecap="round" stroke-linejoin="round"/>
  </g>
</svg>
