<?xml version="1.0" ?>
<svg xmlns="http://www.w3.org/2000/svg" version="1.1" width="1104.0" height="1104.0">
  <defs/>
  <g>
    <path d="M 56.84315872192383 33.800418853759766 C 56.97559356689453 32.90962219238281 56.85527420043945 32.52855682373047 56.81524658203125 33.55997848510742 C 57.29793930053711 33.551578521728516 57.460941314697266 33.05437469482422 57.32880401611328 32.959590911865234 C 58.05567169189453 31.6644344329834 57.817413330078125 29.118362426757812 59.51636505126953 29.880565643310547 C 65.18250274658203 27.548385620117188 68.58171844482422 27.61197280883789 75.23200988769531 27.057390213012695 C 76.28935241699219 28.018136978149414 79.03594970703125 25.31625747680664 80.95952606201172 26.418821334838867 C 81.0212631225586 27.753538131713867 80.82044982910156 34.418941497802734 81.01215362548828 35.09856414794922 C 81.03102111816406 36.12179183959961 80.8406982421875 37.96445846557617 80.47373962402344 39.096534729003906 C 80.8387222290039 40.57965087890625 80.23799133300781 42.669673919677734 79.99959564208984 44.43386459350586 C 78.19961547851562 49.77593994140625 73.9062271118164 52.1661262512207 69.43315124511719 55.86701965332031 C 69.25151824951172 57.75639343261719 66.68540954589844 57.55064392089844 63.35527801513672 57.457881927490234 C 62.9700813293457 57.581626892089844 62.010231018066406 58.3067741394043 63.04624557495117 58.71780014038086 C 63.69148254394531 60.64164352416992 64.01011657714844 62.66421890258789 64.32955169677734 64.1469955444336 C 64.80309295654297 64.08356475830078 64.92778778076172 65.67439270019531 64.0700912475586 68.73206329345703 C 66.97403717041016 71.44799041748047 71.82650756835938 72.24180603027344 77.05354309082031 72.36112976074219" stroke-width="1.2834203243255615" fill="none" stroke="rgb(21, 28, 22)" stroke-opacity="0.9473316" stroke-linecap="round" stroke-linejoin="round"/>
    <path d="M 57.25703048706055 53.7513427734375 C 56.35972595214844 53.90156936645508 56.03626251220703 54.750545501708984 55.86220169067383 53.86496353149414 C 55.19814682006836 55.03366470336914 55.20808410644531 57.19429397583008 55.931243896484375 59.70962905883789 C 55.50095748901367 65.89183807373047 55.88376235961914 71.71813201904297 57.05896759033203 78.8213882446289" stroke-width="1.5523368120193481" fill="none" stroke="rgb(37, 11, 10)" stroke-opacity="1.0" stroke-linecap="round" stroke-linejoin="round"/>
    <path d="M 68.4176254272461 54.57893371582031 C 72.5602035522461 54.88153076171875 75.77824401855469 55.103668212890625 79.0213623046875 55.16053009033203 C 79.55975341796875 53.73458480834961 83.09759521484375 53.98589324951172 84.55074310302734 52.9927978515625 C 85.49190521240234 52.94802474975586 86.09041595458984 54.15842056274414 86.0809326171875 55.28645324707031 C 86.59709167480469 58.81394577026367 87.73486328125 61.15800476074219 89.07735443115234 63.498600006103516 C 89.64112854003906 66.75245666503906 89.88336181640625 70.92455291748047 90.41791534423828 74.5238265991211 C 92.50159454345703 79.4179458618164 88.26795196533203 85.37483215332031 83.74137115478516 87.9034423828125 C 81.2142333984375 87.953125 80.07538604736328 89.34867095947266 78.0295639038086 89.89007568359375 C 77.09117126464844 91.16106414794922 75.68943786621094 92.13951873779297 74.64134216308594 90.98321533203125 C 71.85486602783203 90.24002838134766 69.35526275634766 89.2016372680664 67.17098236083984 88.64342498779297 C 66.0562744140625 88.75013732910156 64.9235610961914 87.94784545898438 64.29447937011719 87.14049530029297 C 63.839717864990234 86.09558868408203 63.2042236328125 86.58287048339844 65.20621490478516 86.7491683959961" stroke-width="1.400069236755371" fill="none" stroke="rgb(28, 37, 11)" stroke-opacity="0.97954774" stroke-linecap="round" stroke-linejoin="round"/>
    <path d="M 65.84532165527344 88.3521728515625 C 70.27149963378906 88.15802001953125 67.35718536376953 84.73516845703125 69.05307006835938 83.62864685058594 C 74.48369598388672 83.28038787841797 69.08380126953125 86.6960678100586 67.79254150390625 79.92398071289062" stroke-width="1.1741070747375488" fill="none" stroke="rgb(95, 106, 45)" stroke-opacity="0.119799405" stroke-linecap="round" stroke-linejoin="round"/>
    <path d="M 78.52955627441406 89.45597076416016 C 74.66431427001953 94.90019989013672 75.44271087646484 90.63645935058594 73.01878356933594 85.57793426513672 C 73.2258529663086 90.11248016357422 76.09507751464844 83.17730712890625 72.56025695800781 76.47362518310547 C 73.86018371582031 85.63214111328125 71.3145980834961 90.15042877197266 70.23321533203125 90.25565338134766" stroke-width="1.6559492349624634" fill="none" stroke="rgb(32, 251, 157)" stroke-opacity="0.91395485" stroke-linecap="round" stroke-linejoin="round"/>
    <path d="M 56.10079574584961 34.081485748291016 C 60.4011344909668 27.662126541137695 56.909976959228516 23.32695198059082 61.666419982910156 29.373241424560547" stroke-width="1.286675214767456" fill="none" stroke="rgb(55, 29, 224)" stroke-opacity="0.5130349" stroke-linecap="round" stroke-linejoin="round"/>
    <path d="M 64.58085632324219 57.29318618774414 C 63.02840805053711 58.802188873291016 66.07708740234375 64.19615173339844 62.35289001464844 68.21098327636719 C 65.82009887695312 68.36978149414062 63.80424118041992 66.11573791503906 68.57693481445312 65.33283996582031" stroke-width="1.807023048400879" fill="none" stroke="rgb(255, 71, 103)" stroke-opacity="0.60684204" stroke-linecap="round" stroke-linejoin="round"/>
    <path d="M 78.28742218017578 52.96479415893555 C 72.72013092041016 59.43596267700195 78.1832046508789 59.44545364379883 76.65097045898438 54.6429328918457 C 81.52778625488281 53.58654022216797 85.66580200195312 47.496517181396484 83.91183471679688 47.508487701416016" stroke-width="1.1741070747375488" fill="none" stroke="rgb(126, 124, 95)" stroke-opacity="0.23357908" stroke-linecap="round" stroke-linejoin="round"/>
    <path d="M 68.6579360961914 54.358150482177734 C 67.61495971679688 49.44418716430664 72.97604370117188 55.52958679199219 70.00830841064453 53.67509078979492 C 78.08377075195312 53.035213470458984 76.91305541992188 47.46808624267578 78.20443725585938 45.92131042480469 C 72.23259735107422 45.621341705322266 71.0392074584961 43.987510681152344 67.90472412109375 39.19794464111328" stroke-width="1.6910090446472168" fill="none" stroke="rgb(190, 75, 151)" stroke-opacity="0.032052003" stroke-linecap="round" stroke-linejoin="round"/>
    <path d="M 55.865379333496094 33.319732666015625 C 55.525550842285156 38.150394439697266 59.57667541503906 39.24172592163086 66.4266128540039 34.73173141479492" stroke-width="1.1741070747375488" fill="none" stroke="rgb(64, 197, 167)" stroke-opacity="0.5147948" stroke-linecap="round" stroke-linejoin="round"/>
    <path d="M 69.96769714355469 54.89655303955078 C 67.04352569580078 53.906166076660156 73.18502807617188 54.74639129638672 67.69879913330078 49.100830078125 C 68.42604064941406 45.92720413208008 74.50176239013672 46.18403625488281 79.13582611083984 44.266845703125" stroke-width="1.1741070747375488" fill="none" stroke="rgb(21, 93, 9)" stroke-opacity="0.34373617" stroke-linecap="round" stroke-linejoin="round"/>
    <path d="M 68.31381225585938 38.94228744506836 C 64.1784896850586 39.27428436279297 63.5272216796875 41.88718795776367 67.58680725097656 37.77523422241211 C 62.206851959228516 32.587989807128906 65.55286407470703 34.15901565551758 61.87022018432617 33.27894592285156" stroke-width="1.6976206302642822" fill="none" stroke="rgb(34, 53, 177)" stroke-opacity="0.33140126" stroke-linecap="round" stroke-linejoin="round"/>
    <path d="M 69.50938415527344 64.79827880859375 C 70.51380920410156 69.95500183105469 64.44139862060547 63.7347526550293 61.88594436645508 56.55805206298828 C 59.20112991333008 58.379573822021484 60.104454040527344 61.579559326171875 60.31890106201172 69.23939514160156 C 55.74149703979492 63.434356689453125 58.47222900390625 64.83604431152344 58.08312225341797 62.87865447998047" stroke-width="1.1741070747375488" fill="none" stroke="rgb(82, 187, 63)" stroke-opacity="0.2904544" stroke-linecap="round" stroke-linejoin="round"/>
    <path d="M 66.94065856933594 65.4379653930664 C 63.53179168701172 71.65847778320312 66.65530395507812 76.24075317382812 76.1955795288086 77.3407211303711" stroke-width="1.6488194465637207" fill="none" stroke="rgb(171, 50, 52)" stroke-opacity="0.44895002" stroke-linecap="round" stroke-linejoin="round"/>
    <path d="M 62.06711196899414 30.145545959472656 C 63.51013946533203 32.65663528442383 61.805416107177734 31.35015106201172 63.323455810546875 28.873300552368164 C 65.87340545654297 32.113616943359375 71.72948455810547 28.698102951049805 76.2454833984375 29.26557731628418 C 78.28491973876953 33.58530044555664 72.06547546386719 38.14189529418945 75.8348159790039 38.91532897949219" stroke-width="1.5144985914230347" fill="none" stroke="rgb(105, 224, 190)" stroke-opacity="0.31293908" stroke-linecap="round" stroke-linejoin="round"/>
    <path d="M 68.41463470458984 65.00980377197266 C 69.86050415039062 67.24829864501953 70.41101837158203 70.31700134277344 74.20436096191406 67.34500122070312 C 76.27881622314453 71.02969360351562 73.10981750488281 65.22632598876953 65.70867919921875 64.578125" stroke-width="1.251078724861145" fill="none" stroke="rgb(241, 102, 204)" stroke-opacity="0.6676045" stroke-linecap="round" stroke-linejoin="round"/>
    <path d="M 67.8814926147461 39.06537628173828 C 65.10523223876953 41.03957748413086 71.83580017089844 41.443050384521484 74.1591796875 43.686649322509766" stroke-width="1.567492961883545" fill="none" stroke="rgb(200, 29, 201)" stroke-opacity="0.11858377" stroke-linecap="round" stroke-linejoin="round"/>
    <path d="M 69.36743927001953 65.74798583984375 C 66.34483337402344 64.45500946044922 67.30126953125 65.088134765625 64.56751251220703 70.26826477050781 C 62.576087951660156 68.94981384277344 67.9657974243164 72.0389404296875 68.93196105957031 73.5180892944336" stroke-width="1.1741070747375488" fill="none" stroke="rgb(65, 149, 56)" stroke-opacity="0.024771947" stroke-linecap="round" stroke-linejoin="round"/>
    <path d="M 78.28694915771484 44.63078689575195 C 79.060546875 47.86310958862305 74.43537139892578 53.44807434082031 78.77399444580078 48.756248474121094 C 85.36888885498047 47.11771774291992 88.68814086914062 51.55564498901367 89.42037200927734 56.089969635009766" stroke-width="1.1741070747375488" fill="none" stroke="rgb(41, 136, 68)" stroke-opacity="0.26180086" stroke-linecap="round" stroke-linejoin="round"/>
    <path d="M 92.47914123535156 58.53272247314453 C 89.15743255615234 58.30363845825195 83.0350341796875 64.05441284179688 83.70111083984375 68.34700012207031 C 85.87443542480469 67.22005462646484 80.2135238647461 67.71888732910156 88.16511535644531 67.71092987060547" stroke-width="1.2211679220199585" fill="none" stroke="rgb(174, 216, 138)" stroke-opacity="0.094768755" stroke-linecap="round" stroke-linejoin="round"/>
    <path d="M 114.272705078125 14.633261680603027 C 107.60604095458984 16.74968910217285 105.19781494140625 20.62435531616211 101.81224822998047 20.54220199584961 C 103.84928894042969 22.881479263305664 107.44096374511719 27.53836441040039 109.07990264892578 30.984464645385742" stroke-width="1.1741070747375488" fill="none" stroke="rgb(158, 90, 233)" stroke-opacity="0.5108784" stroke-linecap="round" stroke-linejoin="round"/>
    <path d="M 21.550338745117188 68.38526916503906 C 16.934558868408203 66.4062271118164 16.859647750854492 61.70575714111328 10.602339744567871 60.568233489990234" stroke-width="1.1741070747375488" fill="none" stroke="rgb(176, 29, 106)" stroke-opacity="0.0" stroke-linecap="round" stroke-linejoin="round"/>
    <path d="M 120.35734558105469 81.57058715820312 C 119.71637725830078 83.56668090820312 121.62451171875 85.10823059082031 115.78877258300781 79.69065856933594 C 113.97649383544922 73.34840393066406 113.81939697265625 80.00696563720703 117.45403289794922 79.06767272949219" stroke-width="1.4836927652359009" fill="none" stroke="rgb(208, 240, 151)" stroke-opacity="0.19155732" stroke-linecap="round" stroke-linejoin="round"/>
    <path d="M 125.09147644042969 24.38416862487793 C 127.74007415771484 30.398420333862305 127.81117248535156 36.68603515625 125.78527069091797 35.563507080078125" stroke-width="1.1741070747375488" fill="none" stroke="rgb(242, 100, 42)" stroke-opacity="0.0815203" stroke-linecap="round" stroke-linejoin="round"/>
    <path d="M 123.50486755371094 104.24671936035156 C 125.98843383789062 110.47480010986328 131.3834686279297 116.34979248046875 124.98143768310547 123.24533081054688" stroke-width="1.1741070747375488" fill="none" stroke="rgb(68, 53, 147)" stroke-opacity="0.004472795" stroke-linecap="round" stroke-linejoin="round"/>
    <path d="M 114.59930419921875 130.6087188720703 C 118.53006744384766 130.94488525390625 117.94603729248047 130.75357055664062 123.44882202148438 128.63560485839844" stroke-width="1.3132634162902832" fill="none" stroke="rgb(47, 8, 235)" stroke-opacity="0.53474534" stroke-linecap="round" stroke-linejoin="round"/>
    <path d="M 115.86734008789062 60.627464294433594 C 111.82150268554688 66.58265686035156 106.65369415283203 66.49031829833984 108.2012710571289 66.28395080566406 C 104.88898468017578 70.70012664794922 98.9256820678711 74.71109771728516 99.68938446044922 75.15303039550781" stroke-width="1.2979459762573242" fill="none" stroke="rgb(0, 169, 161)" stroke-opacity="0.1241327" stroke-linecap="round" stroke-linejoin="round"/>
    <path d="M 37.639671325683594 73.30293273925781 C 35.18876647949219 80.69180297851562 35.11432647705078 81.84286499023438 32.56825637817383 85.44268035888672 C 34.44624710083008 82.74559020996094 32.464195251464844 78.98059844970703 37.29313278198242 84.42466735839844 C 40.51923751831055 89.41178894042969 33.278900146484375 83.79096984863281 31.478229522705078 90.67760467529297" stroke-width="1.1741070747375488" fill="none" stroke="rgb(101, 94, 187)" stroke-opacity="0.91784763" stroke-linecap="round" stroke-linejoin="round"/>
    <path d="M 38.789493560791016 95.64472198486328 C 36.68610763549805 95.05867767333984 30.54412078857422 94.66633605957031 28.960098266601562 90.27018737792969 C 30.862117767333984 92.99827575683594 32.9321403503418 101.29725646972656 30.068147659301758 102.76678466796875 C 31.878477096557617 98.88902282714844 29.859737396240234 100.27499389648438 26.131956100463867 98.49797821044922" stroke-width="1.1741070747375488" fill="none" stroke="rgb(0, 157, 228)" stroke-opacity="0.52060103" stroke-linecap="round" stroke-linejoin="round"/>
    <path d="M 55.821895599365234 95.97911834716797 C 53.54514694213867 96.50366973876953 48.23002624511719 94.17074584960938 52.57286071777344 87.8887710571289" stroke-width="1.3543611764907837" fill="none" stroke="rgb(51, 254, 135)" stroke-opacity="0.22869657" stroke-linecap="round" stroke-linejoin="round"/>
    <path d="M 1.2178590297698975 2.139756917953491 C 0.16343814134597778 1.809609293937683 -5.936476707458496 1.194617748260498 -10.005326271057129 6.840755462646484 C -8.812237739562988 9.95093822479248 -13.257391929626465 7.063436985015869 -15.764567375183105 11.031425476074219 C -11.999645233154297 12.294096946716309 -17.041744232177734 13.992085456848145 -11.87608528137207 11.874396324157715" stroke-width="1.1741070747375488" fill="none" stroke="rgb(19, 27, 223)" stroke-opacity="0.3526248" stroke-linecap="round" stroke-linejoin="round"/>
    <path d="M 59.680015563964844 37.507110595703125 C 65.03702545166016 44.23443603515625 70.7435302734375 50.580928802490234 69.74612426757812 46.01543045043945 C 63.856266021728516 42.038089752197266 65.66368865966797 47.94883346557617 66.48600006103516 51.6778678894043" stroke-width="1.4420934915542603" fill="none" stroke="rgb(173, 107, 255)" stroke-opacity="0.9336168" stroke-linecap="round" stroke-linejoin="round"/>
    <path d="M 81.19385528564453 113.40309143066406 C 75.9170913696289 111.33772277832031 79.82539367675781 117.62638854980469 83.46186828613281 115.15494537353516 C 79.48853302001953 118.96519470214844 79.46308135986328 115.22570037841797 79.74922943115234 113.09544372558594" stroke-width="1.1741070747375488" fill="none" stroke="rgb(96, 255, 39)" stroke-opacity="0.62534535" stroke-linecap="round" stroke-linejoin="round"/>
    <path d="M 50.31980514526367 46.130409240722656 C 53.40869140625 45.69197463989258 58.418888092041016 50.18092727661133 56.43008041381836 45.144325256347656 C 54.00777816772461 39.61620330810547 49.16546630859375 41.74052810668945 56.38056182861328 44.50545120239258 C 52.024330139160156 40.72380447387695 54.962608337402344 43.85273361206055 50.31041717529297 49.42524337768555" stroke-width="1.1741070747375488" fill="none" stroke="rgb(170, 200, 166)" stroke-opacity="0.0" stroke-linecap="round" stroke-linejoin="round"/>
    <path d="M 62.470211029052734 95.0166244506836 C 66.78648376464844 96.5362777709961 66.81902313232422 98.20462036132812 71.3786392211914 101.26409149169922 C 68.4058609008789 98.8834457397461 64.99573516845703 102.9610824584961 67.33797454833984 98.9068832397461" stroke-width="1.4690383672714233" fill="none" stroke="rgb(49, 227, 100)" stroke-opacity="0.16963138" stroke-linecap="round" stroke-linejoin="round"/>
  </g>
</svg>
