<?xml version="1.0" ?>
<svg xmlns="http://www.w3.org/2000/svg" version="1.1" width="956.0" height="956.0">
  <defs/>
  <g>
    <path d="M 48.00918960571289 15.807291984558105 C 51.332523345947266 15.807280540466309 55.379356384277344 15.35954761505127 59.14585494995117 15.807292938232422 C 61.60781478881836 16.148883819580078 63.9550895690918 18.299745559692383 64.72683715820312 20.81833839416504 C 65.59426879882812 22.118850708007812 66.93311309814453 22.50752830505371 67.02410125732422 24.518590927124023 C 69.026123046875 29.13869857788086 68.8101806640625 38.281341552734375 68.8101806640625 43.40493392944336 C 69.35472869873047 46.025726318359375 69.35482025146484 48.91834259033203 68.8101806640625 52.083229064941406 C 68.8101806640625 54.116920471191406 69.04931640625 56.23734664916992 68.97174072265625 58.20890808105469 C 68.23486328125 60.541526794433594 64.62071990966797 61.675628662109375 62.55647277832031 62.51376724243164 C 58.7061653137207 64.07781219482422 54.39478302001953 64.84444427490234 50.309024810791016 64.29984283447266 C 47.63101577758789 64.84444427490234 45.22514724731445 65.16046142578125 43.03158187866211 63.313385009765625 C 40.23341751098633 59.95488357543945 39.74785614013672 55.69153594970703 39.74784851074219 51.6667594909668 C 39.20322036743164 49.86359405517578 39.20688247680664 48.33737564086914 41.117408752441406 47.455322265625 C 41.9921760559082 47.051490783691406 43.1195068359375 47.072227478027344 44.59735870361328 47.07222366333008 C 47.19474411010742 47.07221984863281 47.95967483520508 48.7241096496582 48.647239685058594 51.57331466674805 C 51.73871612548828 57.35367965698242 52.337745666503906 64.80664825439453 53.27522277832031 70.68167114257812 C 52.809879302978516 72.51817321777344 53.551639556884766 77.91303253173828 53.1136589050293 79.13777160644531 C 53.39963912963867 79.31929779052734 52.06948471069336 79.8853530883789 51.36103439331055 79.48640441894531 C 50.862056732177734 79.20579528808594 50.510704040527344 78.72024536132812 49.540283203125 78.33845520019531" stroke-width="1.0892857313156128" fill="none" stroke="rgb(26, 26, 21)" stroke-opacity="1.0" stroke-linecap="round" stroke-linejoin="round"/>
    <path d="M 51.36103820800781 80.03104400634766 C 56.57742691040039 74.94645690917969 54.25368118286133 71.593994140625 60.88532638549805 66.99911499023438" stroke-width="1.198214054107666" fill="none" stroke="rgb(27, 163, 1)" stroke-opacity="0.5398302" stroke-linecap="round" stroke-linejoin="round"/>
    <path d="M 69.35482025146484 51.5386848449707 C 65.09501647949219 49.02229690551758 61.003849029541016 44.17692947387695 61.65479278564453 40.670509338378906 C 67.01212310791016 38.596580505371094 67.88150024414062 43.478233337402344 67.1380386352539 42.20365905761719 C 67.70571899414062 46.37705612182617 63.49878692626953 50.795963287353516 64.75920867919922 45.6952018737793" stroke-width="1.1982067823410034" fill="none" stroke="rgb(193, 172, 42)" stroke-opacity="0.2808953" stroke-linecap="round" stroke-linejoin="round"/>
    <path d="M 51.36103820800781 80.03101348876953 C 53.511627197265625 82.28352355957031 56.99929428100586 77.7278060913086 56.86296463012695 73.66258239746094 C 60.020233154296875 77.8672103881836 60.21855163574219 74.99237823486328 65.70869445800781 72.83507537841797" stroke-width="1.0892857313156128" fill="none" stroke="rgb(37, 67, 235)" stroke-opacity="0.173645" stroke-linecap="round" stroke-linejoin="round"/>
    <path d="M 62.55646514892578 63.05834197998047 C 62.42906951904297 59.38303756713867 57.44170379638672 56.33587646484375 57.078041076660156 50.74462890625 C 52.434120178222656 47.86115264892578 52.21176528930664 52.148502349853516 46.283573150634766 57.960670471191406 C 41.69964599609375 54.11345291137695 43.5418815612793 53.20606231689453 40.39925765991211 49.467899322509766" stroke-width="1.1982141733169556" fill="none" stroke="rgb(244, 77, 225)" stroke-opacity="0.27168402" stroke-linecap="round" stroke-linejoin="round"/>
    <path d="M 51.36103439331055 80.03104400634766 C 53.81554412841797 85.5026626586914 56.24880599975586 89.44662475585938 61.171241760253906 92.180419921875" stroke-width="1.0892857313156128" fill="none" stroke="rgb(99, 181, 248)" stroke-opacity="0.47606304" stroke-linecap="round" stroke-linejoin="round"/>
    <path d="M 48.00920104980469 16.351890563964844 C 47.513092041015625 18.089054107666016 44.21046829223633 17.978796005249023 48.414939880371094 12.12232494354248 C 48.86738204956055 7.941847801208496 51.57551193237305 4.80375337600708 55.33695602416992 7.560196399688721 C 53.5232048034668 11.369948387145996 49.73567199707031 15.787567138671875 54.45503616333008 19.003616333007812" stroke-width="1.0892857313156128" fill="none" stroke="rgb(220, 199, 145)" stroke-opacity="0.24352086" stroke-linecap="round" stroke-linejoin="round"/>
    <path d="M 44.59735870361328 47.61684799194336 C 48.830894470214844 53.547882080078125 44.79167938232422 48.716453552246094 43.24524688720703 53.451011657714844" stroke-width="1.0892857313156128" fill="none" stroke="rgb(45, 153, 196)" stroke-opacity="0.8858923" stroke-linecap="round" stroke-linejoin="round"/>
    <path d="M 68.97174072265625 58.208900451660156 C 65.45294189453125 58.24113845825195 63.665584564208984 57.22288131713867 68.4867935180664 51.910682678222656 C 73.4157485961914 54.202938079833984 79.2656478881836 48.23343276977539 76.6011962890625 46.023075103759766 C 81.87311553955078 41.49726104736328 79.50692749023438 38.03543472290039 76.88146209716797 39.55192947387695" stroke-width="1.0892857313156128" fill="none" stroke="rgb(80, 150, 208)" stroke-opacity="0.14096877" stroke-linecap="round" stroke-linejoin="round"/>
    <path d="M 76.8814926147461 39.55192184448242 C 74.77531433105469 36.660377502441406 78.26206970214844 38.82651138305664 76.76338958740234 39.780452728271484 C 70.9904556274414 45.133949279785156 65.65966796875 49.61382293701172 59.7284049987793 51.56669235229492" stroke-width="1.198212742805481" fill="none" stroke="rgb(5, 143, 123)" stroke-opacity="0.7064645" stroke-linecap="round" stroke-linejoin="round"/>
    <path d="M 65.70868682861328 72.29045867919922 C 68.71670532226562 72.03773498535156 71.27877044677734 66.55603790283203 75.318359375 61.393001556396484 C 74.09732818603516 63.31355285644531 67.54227447509766 64.11618041992188 68.85892486572266 66.22216796875" stroke-width="1.1982132196426392" fill="none" stroke="rgb(201, 171, 34)" stroke-opacity="0.15445784" stroke-linecap="round" stroke-linejoin="round"/>
    <path d="M 64.75920867919922 45.69519805908203 C 67.44438171386719 45.54774475097656 61.61034393310547 40.22440719604492 66.93852996826172 38.95518493652344 C 65.9179916381836 43.79795455932617 69.66231536865234 44.59846115112305 67.81010437011719 45.210662841796875 C 69.18122100830078 48.083927154541016 66.91029357910156 48.63728332519531 63.335391998291016 47.28765869140625" stroke-width="1.1982141733169556" fill="none" stroke="rgb(237, 14, 15)" stroke-opacity="0.7789533" stroke-linecap="round" stroke-linejoin="round"/>
    <path d="M 40.39925765991211 49.467918395996094 C 40.0077018737793 47.457298278808594 43.61663818359375 45.73927307128906 40.738067626953125 50.63404846191406" stroke-width="1.1982139348983765" fill="none" stroke="rgb(206, 1, 111)" stroke-opacity="0.33591676" stroke-linecap="round" stroke-linejoin="round"/>
    <path d="M 61.17127990722656 91.63581085205078 C 66.80428314208984 91.25701904296875 61.83306884765625 87.93962860107422 59.125877380371094 87.38302612304688" stroke-width="1.0892857313156128" fill="none" stroke="rgb(39, 119, 94)" stroke-opacity="0.16446494" stroke-linecap="round" stroke-linejoin="round"/>
    <path d="M 43.245243072509766 53.451011657714844 C 39.765785217285156 50.717586517333984 33.79607391357422 52.168636322021484 28.875629425048828 57.48832702636719 C 33.633941650390625 62.94647979736328 29.91399383544922 60.92686462402344 31.608726501464844 55.760772705078125 C 38.17971420288086 50.254337310791016 41.704097747802734 48.599464416503906 36.359432220458984 43.856040954589844" stroke-width="1.0892857313156128" fill="none" stroke="rgb(226, 161, 139)" stroke-opacity="0.94579846" stroke-linecap="round" stroke-linejoin="round"/>
    <path d="M 60.885318756103516 66.99909973144531 C 61.002105712890625 72.51497650146484 66.4443588256836 67.6771011352539 68.01580810546875 71.52318572998047" stroke-width="1.0892857313156128" fill="none" stroke="rgb(162, 121, 231)" stroke-opacity="0.29468924" stroke-linecap="round" stroke-linejoin="round"/>
    <path d="M 61.715858459472656 91.63580322265625 C 60.27361297607422 90.4239273071289 58.132789611816406 88.83073425292969 53.05447006225586 90.306884765625 C 58.86146926879883 91.76023864746094 60.53184127807617 89.95236206054688 54.14980697631836 88.27714538574219" stroke-width="1.1982136964797974" fill="none" stroke="rgb(232, 70, 168)" stroke-opacity="0.2938463" stroke-linecap="round" stroke-linejoin="round"/>
    <path d="M 56.24201965332031 93.41720581054688 C 59.063411712646484 97.9930191040039 54.30598449707031 94.43885040283203 59.181400299072266 94.14883422851562 C 61.19717788696289 99.0581283569336 58.69945526123047 99.98089599609375 58.5226936340332 104.20875549316406 C 55.85374450683594 100.54318237304688 58.911827087402344 101.90760040283203 61.890201568603516 96.39004516601562" stroke-width="1.0892857313156128" fill="none" stroke="rgb(157, 11, 113)" stroke-opacity="0.18816979" stroke-linecap="round" stroke-linejoin="round"/>
    <path d="M 37.25266647338867 52.02299118041992 C 42.53337478637695 57.239112854003906 38.113162994384766 54.596519470214844 39.09894561767578 56.58327102661133" stroke-width="1.0892857313156128" fill="none" stroke="rgb(234, 202, 8)" stroke-opacity="0.9169178" stroke-linecap="round" stroke-linejoin="round"/>
    <path d="M 53.2096061706543 65.94995880126953 C 55.68734359741211 64.12409973144531 50.80959701538086 68.86946105957031 44.94751739501953 72.44039154052734 C 40.341251373291016 69.52445220947266 43.63833999633789 68.99486541748047 46.79734802246094 73.04439544677734 C 47.24991226196289 77.8259506225586 46.29331588745117 80.4351577758789 46.3171272277832 78.37923431396484" stroke-width="1.1982134580612183" fill="none" stroke="rgb(53, 48, 212)" stroke-opacity="0.18599695" stroke-linecap="round" stroke-linejoin="round"/>
    <path d="M 87.29660034179688 98.27513885498047 C 93.04389953613281 98.9022216796875 94.9900131225586 95.15887451171875 91.95034790039062 91.83074188232422" stroke-width="1.0892857313156128" fill="none" stroke="rgb(154, 152, 26)" stroke-opacity="0.6064362" stroke-linecap="round" stroke-linejoin="round"/>
    <path d="M 21.738664627075195 61.14457702636719 C 19.877904891967773 56.42911911010742 16.141096115112305 61.066375732421875 19.10618019104004 58.44533920288086" stroke-width="1.198213815689087" fill="none" stroke="rgb(189, 68, 65)" stroke-opacity="0.96145767" stroke-linecap="round" stroke-linejoin="round"/>
    <path d="M 37.84797286987305 92.6930160522461 C 37.64180374145508 89.60051727294922 34.53896713256836 91.87229919433594 31.11551856994629 87.39665985107422 C 31.065034866333008 89.52628326416016 34.5601692199707 84.00945281982422 36.517181396484375 88.3259048461914" stroke-width="1.0892857313156128" fill="none" stroke="rgb(243, 217, 142)" stroke-opacity="0.016589038" stroke-linecap="round" stroke-linejoin="round"/>
    <path d="M 83.97681427001953 31.725404739379883 C 88.62053680419922 36.523563385009766 92.69691467285156 33.753501892089844 96.10321807861328 30.00663948059082 C 96.25616455078125 34.34850311279297 94.42475891113281 34.18339920043945 88.56443786621094 28.588464736938477" stroke-width="1.1982141733169556" fill="none" stroke="rgb(253, 3, 23)" stroke-opacity="0.61798495" stroke-linecap="round" stroke-linejoin="round"/>
    <path d="M 27.79505729675293 93.79302978515625 C 24.166688919067383 90.73456573486328 21.949832916259766 89.9942626953125 22.212881088256836 91.25847625732422" stroke-width="1.198214054107666" fill="none" stroke="rgb(137, 40, 245)" stroke-opacity="0.8390473" stroke-linecap="round" stroke-linejoin="round"/>
    <path d="M 21.86250877380371 117.77647399902344 C 16.832294464111328 119.02799987792969 17.00497055053711 117.9925765991211 20.852798461914062 120.55313110351562 C 17.639530181884766 125.6647720336914 17.10829734802246 126.14937591552734 13.244895935058594 121.18972778320312 C 17.8685359954834 124.1373519897461 20.421478271484375 127.12638092041016 18.094627380371094 121.30411529541016" stroke-width="1.0892857313156128" fill="none" stroke="rgb(190, 228, 30)" stroke-opacity="0.47175393" stroke-linecap="round" stroke-linejoin="round"/>
    <path d="M 76.2502212524414 95.19432830810547 C 75.9283676147461 92.41729736328125 81.061767578125 91.39425659179688 80.14817810058594 86.10921478271484 C 83.12137603759766 80.17303466796875 88.51344299316406 76.67127227783203 86.4347915649414 72.58502960205078 C 88.58885192871094 72.80292510986328 93.42914581298828 72.16930389404297 96.15941619873047 70.77725219726562" stroke-width="1.1982110738754272" fill="none" stroke="rgb(160, 195, 163)" stroke-opacity="0.28359425" stroke-linecap="round" stroke-linejoin="round"/>
    <path d="M 84.16867065429688 19.430633544921875 C 82.7497787475586 16.172605514526367 80.7928466796875 12.700769424438477 77.32296752929688 18.365501403808594" stroke-width="1.0892857313156128" fill="none" stroke="rgb(225, 28, 113)" stroke-opacity="0.6537534" stroke-linecap="round" stroke-linejoin="round"/>
    <path d="M 100.43756866455078 36.68092727661133 C 106.97753143310547 39.04698944091797 108.57889556884766 43.47731399536133 106.10430908203125 39.91411590576172 C 103.06644439697266 39.074745178222656 104.80925750732422 39.326236724853516 99.42546081542969 39.508243560791016" stroke-width="1.1982133388519287" fill="none" stroke="rgb(27, 212, 42)" stroke-opacity="0.46206495" stroke-linecap="round" stroke-linejoin="round"/>
    <path d="M 64.97418975830078 68.54078674316406 C 68.5152816772461 63.83475875854492 64.01522827148438 60.046268463134766 67.03038787841797 61.01386260986328 C 65.2141342163086 55.81995391845703 62.86486053466797 60.801918029785156 68.9571304321289 64.2644271850586 C 64.16567993164062 66.80816650390625 63.030723571777344 66.24369812011719 64.43075561523438 60.920955657958984" stroke-width="1.0892857313156128" fill="none" stroke="rgb(148, 198, 44)" stroke-opacity="0.6352393" stroke-linecap="round" stroke-linejoin="round"/>
    <path d="M 14.282308578491211 28.435871124267578 C 16.555931091308594 30.948932647705078 15.87092399597168 25.78431510925293 17.483375549316406 21.829484939575195 C 18.010534286499023 20.599618911743164 16.916046142578125 24.907129287719727 15.60657787322998 28.834299087524414" stroke-width="1.0892857313156128" fill="none" stroke="rgb(33, 247, 188)" stroke-opacity="0.5549139" stroke-linecap="round" stroke-linejoin="round"/>
    <path d="M 16.933073043823242 69.24517059326172 C 12.770442962646484 73.51332092285156 11.376947402954102 77.85021209716797 14.684646606445312 73.36405181884766 C 12.498052597045898 75.06739044189453 9.554729461669922 80.8576431274414 7.6763224601745605 75.5494384765625" stroke-width="1.0892857313156128" fill="none" stroke="rgb(184, 2, 43)" stroke-opacity="0.8165153" stroke-linecap="round" stroke-linejoin="round"/>
    <path d="M 58.34272766113281 23.5953311920166 C 53.06343460083008 27.830852508544922 47.44105911254883 32.28548812866211 42.019718170166016 36.390316009521484 C 35.99222946166992 31.007856369018555 40.63462448120117 28.437442779541016 42.76706314086914 24.79833221435547 C 39.77293395996094 22.179840087890625 43.04371643066406 23.934019088745117 39.3464241027832 24.78843116760254" stroke-width="1.0892857313156128" fill="none" stroke="rgb(195, 76, 65)" stroke-opacity="0.6191226" stroke-linecap="round" stroke-linejoin="round"/>
  </g>
</svg>
