<?xml version="1.0" ?>
<svg xmlns="http://www.w3.org/2000/svg" version="1.1" width="1104.0" height="1104.0">
  <defs/>
  <g>
    <path d="M 518.5354614257812 334.4591979980469 C 565.19091796875 329.5306091308594 611.6471557617188 325.1036071777344 663.462158203125 328.5260009765625 C 685.111572265625 330.1047058105469 702.9144897460938 345.0751647949219 701.5344848632812 373.4523620605469 C 706.3081665039062 376.1337890625 707.136474609375 379.3585510253906 705.4584350585938 381.4564514160156 C 695.1801147460938 394.3069763183594 660.6646728515625 401.0146789550781 649.5252685546875 404.525390625 C 598.2669067382812 420.7100830078125 587.293212890625 418.5682067871094 535.527099609375 423.5252380371094 C 520.4493408203125 430.36358642578125 500.45635986328125 432.4833068847656 480.4520263671875 434.44842529296875 C 473.45220947265625 435.1438903808594 466.430908203125 435.62969970703125 459.4532165527344 431.5190124511719 C 450.1770324707031 432.0260314941406 439.1802062988281 429.8070068359375 446.4490051269531 433.51641845703125 C 459.5633544921875 459.19976806640625 476.9037780761719 473.0111389160156 490.51605224609375 493.44622802734375 C 510.745849609375 511.45904541015625 516.0022583007812 537.4619750976562 527.5110473632812 567.4473876953125 C 544.6674194335938 604.7510986328125 560.6756591796875 642.5623779296875 576.506591796875 680.4527587890625 C 597.7632446289062 714.5839233398438 610.5031127929688 759.5967407226562 624.5084838867188 797.4547119140625" stroke-width="9.85714340209961" fill="none" stroke="rgb(21, 26, 21)" stroke-opacity="1.0" stroke-linecap="round" stroke-linejoin="round"/>
    <path d="M 591.5319213867188 889.5347290039062 C 601.5562133789062 889.5349731445312 590.085693359375 909.5282592773438 589.53369140625 919.5311279296875 C 589.4234008789062 926.4560546875 591.5322265625 930.4506225585938 594.4609375 925.525146484375 C 590.5756225585938 925.5252075195312 587.5177001953125 921.9261474609375 584.459716796875 919.5303955078125 C 571.5496826171875 918.1658325195312 563.7112426757812 911.6411743164062 556.5350952148438 904.454345703125 C 521.5053100585938 869.4243774414062 498.33673095703125 820.0272827148438 491.4589538574219 770.5236206054688 C 490.862548828125 766.21044921875 488.5656433105469 739.5488891601562 490.4542236328125 741.4486694335938 C 499.17572021484375 727.5051879882812 559.3654174804688 727.6044311523438 556.5244140625 722.521484375 C 598.4647216796875 724.6454467773438 635.4313354492188 721.146240234375 672.4473266601562 718.4520263671875 C 684.8431396484375 712.2654418945312 702.2638549804688 712.4420166015625 724.4449462890625 710.5210571289062 C 726.2794799804688 715.2507934570312 737.2864990234375 713.9480590820312 739.4503784179688 710.4483642578125 C 743.822265625 703.3495483398438 743.5020141601562 694.241455078125 746.4498291015625 686.4474487304688 C 749.4085083007812 678.6309204101562 748.1011962890625 666.1514892578125 756.4520263671875 663.4510498046875 C 780.2827758789062 594.3582763671875 809.163330078125 534.3999633789062 820.4508056640625 463.52325439453125 C 821.0689697265625 461.5826110839844 817.1234130859375 440.6632080078125 813.524169921875 430.451904296875 C 811.7357177734375 425.38446044921875 811.927490234375 416.6930236816406 810.4486694335938 411.52484130859375 C 804.4052734375 407.6170654296875 807.4411010742188 391.0567321777344 807.5184326171875 395.4551086425781" stroke-width="9.85714340209961" fill="none" stroke="rgb(21, 21, 26)" stroke-opacity="1.0" stroke-linecap="round" stroke-linejoin="round"/>
    <path d="M 259.4644470214844 154.46295166015625 C 270.802490234375 154.46258544921875 258.5260009765625 177.12802124023438 253.53123474121094 188.466064453125 C 258.08428955078125 252.54530334472656 258.45977783203125 321.5455322265625 258.4598083496094 390.5775146484375 C 258.4597473144531 489.8959655761719 256.17449951171875 584.8565673828125 253.53126525878906 679.4698486328125 C 255.45220947265625 758.8363647460938 267.52996826171875 836.2599487304688 272.45849609375 910.5437622070312" stroke-width="9.85714340209961" fill="none" stroke="rgb(26, 21, 26)" stroke-opacity="0.99" stroke-linecap="round" stroke-linejoin="round"/>
    <path d="M 349.46246337890625 675.4627075195312 C 354.7947998046875 670.53466796875 349.4624938964844 659.8697509765625 349.4624938964844 654.5374145507812 C 344.5340881347656 646.66796875 344.534423828125 636.3345947265625 344.53399658203125 626.0011596679688 C 344.53399658203125 584.0050048828125 344.5340270996094 541.9977416992188 349.4624938964844 502.4627380371094 C 344.5340270996094 489.83172607421875 338.2633056640625 464.538818359375 352.5380554199219 464.53875732421875 C 382.7480163574219 464.538818359375 394.6160888671875 473.6468200683594 417.46868896484375 488.5398254394531 C 422.4874572753906 499.94879150390625 431.4188537597656 507.8644104003906 440.537841796875 515.4710083007812 C 461.0943908691406 532.60498046875 488.91656494140625 557.2787475585938 513.4616088867188 571.53857421875 C 511.80108642578125 579.66845703125 528.1849365234375 595.8526611328125 531.5294799804688 603.4707641601562 C 536.3760986328125 614.488525390625 536.2214965820312 625.6939697265625 536.5306396484375 637.4730224609375 C 541.9219360351562 654.9485473632812 543.2806396484375 662.4242553710938 527.5330810546875 673.5482177734375 C 502.9914245605469 709.9470825195312 453.27801513671875 730.7243041992188 413.534423828125 744.5647583007812 C 411.89129638671875 751.7594604492188 405.2572021484375 753.9678344726562 398.456298828125 750.5430297851562 C 388.2862854003906 751.7113037109375 382.85467529296875 751.8438110351562 377.5337219238281 752.5393676757812 C 380.1047668457031 752.8489379882812 370.54010009765625 751.1822509765625 375.4615478515625 753.544189453125 C 375.4615783691406 758.169921875 379.73406982421875 761.8019409179688 382.4610595703125 765.54443359375 C 395.5986022949219 783.517578125 414.83026123046875 802.1752319335938 426.5280456542969 821.4777221679688 C 444.1148681640625 836.6576538085938 463.34649658203125 848.4041748046875 484.5325622558594 852.5505981445312" stroke-width="9.85714340209961" fill="none" stroke="rgb(21, 26, 21)" stroke-opacity="0.99000007" stroke-linecap="round" stroke-linejoin="round"/>
    <path d="M 393.5295104980469 755.46875 C 363.45245361328125 724.3698120117188 376.08367919921875 700.2255249023438 389.5926208496094 661.6094360351562 C 426.3629455566406 705.6682739257812 387.785888671875 716.121826171875 410.7062072753906 702.20556640625 C 407.687744140625 748.366943359375 455.8315124511719 797.7171630859375 475.5533142089844 848.1482543945312" stroke-width="10.842855453491211" fill="none" stroke="rgb(106, 45, 12)" stroke-opacity="0.31331596" stroke-linecap="round" stroke-linejoin="round"/>
    <path d="M 746.4498291015625 686.447509765625 C 729.9607543945312 722.0249633789062 760.9869995117188 719.164306640625 752.481201171875 679.5040893554688" stroke-width="10.842849731445312" fill="none" stroke="rgb(25, 33, 33)" stroke-opacity="0.76637584" stroke-linecap="round" stroke-linejoin="round"/>
    <path d="M 377.53271484375 757.4678344726562 C 323.427734375 711.436767578125 323.92303466796875 746.9419555664062 288.49261474609375 692.6065063476562" stroke-width="10.842835426330566" fill="none" stroke="rgb(63, 199, 96)" stroke-opacity="0.16764101" stroke-linecap="round" stroke-linejoin="round"/>
    <path d="M 576.506591796875 675.5243530273438 C 525.505615234375 712.2232055664062 531.3595581054688 686.090576171875 505.5511779785156 667.8427124023438" stroke-width="9.85714340209961" fill="none" stroke="rgb(102, 15, 236)" stroke-opacity="0.59403425" stroke-linecap="round" stroke-linejoin="round"/>
    <path d="M 513.461669921875 576.4669799804688 C 504.0851135253906 555.791015625 545.871826171875 544.0018310546875 565.5325317382812 508.0428771972656 C 602.3831176757812 500.9770202636719 624.5494995117188 531.25390625 670.1217041015625 574.4735717773438 C 685.1431274414062 572.6256713867188 648.2838134765625 566.281494140625 624.4970092773438 576.728271484375" stroke-width="9.85714340209961" fill="none" stroke="rgb(191, 111, 66)" stroke-opacity="0.8938594" stroke-linecap="round" stroke-linejoin="round"/>
    <path d="M 594.4620361328125 919.5302124023438 C 553.6902465820312 915.8877563476562 558.6983642578125 917.027099609375 597.9042358398438 916.2628784179688 C 584.973876953125 894.3374633789062 593.1302490234375 857.55078125 562.9534301757812 862.5372924804688 C 567.6879272460938 809.096435546875 522.0272827148438 798.0703125 555.2073364257812 840.0009155273438" stroke-width="10.842845916748047" fill="none" stroke="rgb(25, 2, 85)" stroke-opacity="0.68047166" stroke-linecap="round" stroke-linejoin="round"/>
    <path d="M 377.53289794921875 757.4677124023438 C 435.4275817871094 785.9948120117188 470.75653076171875 731.7535400390625 450.722900390625 703.7525634765625" stroke-width="10.842839241027832" fill="none" stroke="rgb(166, 30, 213)" stroke-opacity="0.0627603" stroke-linecap="round" stroke-linejoin="round"/>
    <path d="M 370.5332946777344 753.5440063476562 C 386.9010009765625 731.3803100585938 348.6855163574219 704.3952026367188 376.5201721191406 727.6183471679688 C 376.4291687011719 708.4658203125 413.126220703125 707.1683349609375 401.4330749511719 739.4544677734375 C 439.4917297363281 777.2811889648438 483.8793640136719 774.7808837890625 482.7257385253906 741.4266357421875" stroke-width="9.85714340209961" fill="none" stroke="rgb(185, 43, 120)" stroke-opacity="0.76454026" stroke-linecap="round" stroke-linejoin="round"/>
    <path d="M 555.2072143554688 840.00537109375 C 551.0489501953125 802.5438842773438 497.4577941894531 799.2339477539062 543.7323608398438 836.1199340820312 C 543.9188232421875 805.561767578125 518.8446044921875 807.6035766601562 510.0325012207031 851.6627197265625 C 460.9432373046875 886.8203735351562 461.4219665527344 929.844482421875 505.00018310546875 926.5333251953125" stroke-width="10.842851638793945" fill="none" stroke="rgb(136, 61, 201)" stroke-opacity="0.117084056" stroke-linecap="round" stroke-linejoin="round"/>
    <path d="M 475.5533142089844 848.1486206054688 C 471.75836181640625 813.57958984375 503.4091491699219 800.5072021484375 505.419921875 783.5946655273438 C 494.52740478515625 843.5089111328125 523.3407592773438 803.4205322265625 511.233154296875 808.8745727539062" stroke-width="10.842854499816895" fill="none" stroke="rgb(254, 59, 208)" stroke-opacity="0.43940303" stroke-linecap="round" stroke-linejoin="round"/>
    <path d="M 505.5511474609375 667.8424072265625 C 471.1689453125 712.902587890625 485.4436950683594 698.4647827148438 497.666748046875 725.43798828125 C 545.1322021484375 752.618408203125 516.119384765625 726.7329711914062 472.2763671875 745.217041015625 C 521.3483276367188 758.9644165039062 570.7782592773438 716.0550537109375 585.110107421875 688.3201904296875" stroke-width="10.842850685119629" fill="none" stroke="rgb(33, 239, 191)" stroke-opacity="0.66598403" stroke-linecap="round" stroke-linejoin="round"/>
    <path d="M 505.5511474609375 667.8423461914062 C 491.5504150390625 706.2904052734375 491.979248046875 657.334716796875 450.24493408203125 700.3289184570312 C 452.2333679199219 740.6924438476562 465.40606689453125 722.5855712890625 443.6676330566406 732.7429809570312" stroke-width="9.85714340209961" fill="none" stroke="rgb(68, 149, 204)" stroke-opacity="0.591968" stroke-linecap="round" stroke-linejoin="round"/>
    <path d="M 475.55322265625 848.148681640625 C 523.40869140625 865.2432250976562 526.320068359375 846.2134399414062 519.4092407226562 797.3165283203125 C 546.8232421875 802.1896362304688 520.3585205078125 841.70556640625 535.8443603515625 828.8172607421875 C 505.519775390625 844.8880004882812 501.4932556152344 847.3598022460938 533.84130859375 833.621826171875" stroke-width="10.84284782409668" fill="none" stroke="rgb(243, 45, 244)" stroke-opacity="0.51424974" stroke-linecap="round" stroke-linejoin="round"/>
    <path d="M 450.72265625 703.7526245117188 C 448.7984619140625 655.9334106445312 442.6950988769531 707.5315551757812 472.65283203125 668.095458984375" stroke-width="10.8428373336792" fill="none" stroke="rgb(218, 210, 92)" stroke-opacity="0.031086752" stroke-linecap="round" stroke-linejoin="round"/>
    <path d="M 450.7228088378906 703.7526245117188 C 404.88623046875 662.0302734375 409.49920654296875 658.6886596679688 429.3564758300781 650.231689453125 C 466.4259948730469 655.4207763671875 470.1234130859375 660.2843627929688 421.74993896484375 695.5123901367188 C 466.7774963378906 669.0178833007812 452.908203125 690.8468017578125 458.7142639160156 715.837890625" stroke-width="10.842851638793945" fill="none" stroke="rgb(50, 173, 52)" stroke-opacity="0.5507518" stroke-linecap="round" stroke-linejoin="round"/>
    <path d="M 752.4822387695312 679.5038452148438 C 708.9736328125 632.7645263671875 652.8637084960938 686.4620971679688 634.7160034179688 715.01171875" stroke-width="9.85714340209961" fill="none" stroke="rgb(128, 159, 128)" stroke-opacity="0.65851295" stroke-linecap="round" stroke-linejoin="round"/>
    <path d="M 689.59423828125 265.8359069824219 C 744.358642578125 270.77294921875 763.6591796875 254.89688110351562 762.07763671875 221.51734924316406" stroke-width="9.85714340209961" fill="none" stroke="rgb(117, 21, 128)" stroke-opacity="0.11592925" stroke-linecap="round" stroke-linejoin="round"/>
    <path d="M 938.1588134765625 614.2581787109375 C 963.488525390625 656.8853149414062 959.5184326171875 635.7646484375 961.0349731445312 611.6585693359375 C 965.8869018554688 570.9885864257812 981.4404296875 603.6768188476562 962.4821166992188 551.9688110351562" stroke-width="9.85714340209961" fill="none" stroke="rgb(21, 226, 130)" stroke-opacity="0.86857164" stroke-linecap="round" stroke-linejoin="round"/>
    <path d="M 376.74395751953125 396.75018310546875 C 347.98455810546875 421.265380859375 350.06890869140625 470.6119384765625 389.5675354003906 462.14508056640625 C 373.8741149902344 469.1813659667969 374.7262878417969 526.9945068359375 368.5344543457031 538.7088012695312 C 357.3000793457031 590.7252197265625 340.70751953125 643.9879760742188 351.3448181152344 663.0013427734375" stroke-width="9.85714340209961" fill="none" stroke="rgb(114, 79, 110)" stroke-opacity="0.8594587" stroke-linecap="round" stroke-linejoin="round"/>
    <path d="M 597.0784912109375 674.5631103515625 C 602.5572509765625 637.355224609375 554.499267578125 602.8306884765625 495.2246398925781 578.8328247070312 C 547.156494140625 525.7799072265625 596.1063232421875 498.39398193359375 588.7076416015625 509.4114074707031 C 621.6018676757812 513.3582763671875 600.4500732421875 488.3980712890625 616.491455078125 439.046142578125" stroke-width="9.85714340209961" fill="none" stroke="rgb(115, 164, 192)" stroke-opacity="0.39944687" stroke-linecap="round" stroke-linejoin="round"/>
    <path d="M 808.5972290039062 355.7880859375 C 825.5518798828125 320.5733642578125 828.2147827148438 269.8092956542969 788.9801025390625 257.9615173339844" stroke-width="10.842757225036621" fill="none" stroke="rgb(101, 58, 66)" stroke-opacity="0.015344635" stroke-linecap="round" stroke-linejoin="round"/>
    <path d="M 761.82861328125 1090.8653564453125 C 805.2139282226562 1106.3179931640625 783.3112182617188 1140.08544921875 757.7022705078125 1181.0792236328125" stroke-width="9.85714340209961" fill="none" stroke="rgb(169, 22, 108)" stroke-opacity="0.8338361" stroke-linecap="round" stroke-linejoin="round"/>
    <path d="M 1090.947021484375 296.1976318359375 C 1106.8870849609375 280.38275146484375 1094.79833984375 276.2140197753906 1059.0484619140625 271.9095764160156 C 1007.540771484375 224.9777374267578 965.0963134765625 226.6900177001953 940.9575805664062 228.1732177734375" stroke-width="9.85714340209961" fill="none" stroke="rgb(14, 14, 121)" stroke-opacity="0.3125409" stroke-linecap="round" stroke-linejoin="round"/>
    <path d="M 614.4537963867188 508.439697265625 C 659.27392578125 557.7444458007812 627.18310546875 534.1494750976562 667.0291137695312 555.812255859375" stroke-width="9.85714340209961" fill="none" stroke="rgb(96, 193, 167)" stroke-opacity="0.5699679" stroke-linecap="round" stroke-linejoin="round"/>
    <path d="M 710.6096801757812 163.37002563476562 C 692.9060668945312 169.74935913085938 693.8018798828125 161.5395050048828 659.3488159179688 193.1357421875" stroke-width="10.842855453491211" fill="none" stroke="rgb(105, 62, 230)" stroke-opacity="0.09197467" stroke-linecap="round" stroke-linejoin="round"/>
    <path d="M 4.699202060699463 931.4921264648438 C 43.032005310058594 897.6014404296875 -6.649497032165527 917.0699462890625 28.642885208129883 931.2600708007812" stroke-width="10.842854499816895" fill="none" stroke="rgb(110, 86, 230)" stroke-opacity="0.43001336" stroke-linecap="round" stroke-linejoin="round"/>
    <path d="M 293.9002685546875 310.77325439453125 C 252.2227020263672 347.9289855957031 230.50775146484375 346.9985656738281 273.4247131347656 339.72198486328125" stroke-width="10.842854499816895" fill="none" stroke="rgb(177, 198, 12)" stroke-opacity="0.29295212" stroke-linecap="round" stroke-linejoin="round"/>
    <path d="M 456.2351989746094 726.5073852539062 C 500.7059326171875 700.6519775390625 461.23663330078125 720.9315795898438 499.72906494140625 760.1270141601562 C 544.6063842773438 731.134521484375 563.0556640625 745.5233154296875 585.0300903320312 736.1324462890625" stroke-width="10.842823028564453" fill="none" stroke="rgb(220, 220, 133)" stroke-opacity="0.5868163" stroke-linecap="round" stroke-linejoin="round"/>
    <path d="M 750.066162109375 767.7273559570312 C 746.13525390625 783.529296875 735.175048828125 745.2218017578125 715.8358154296875 781.7443237304688 C 748.4821166992188 826.01513671875 700.2780151367188 859.2908935546875 655.702392578125 833.595703125 C 625.1520385742188 877.533203125 637.8447265625 834.564453125 672.453125 819.849853515625" stroke-width="9.85714340209961" fill="none" stroke="rgb(115, 190, 20)" stroke-opacity="0.51872605" stroke-linecap="round" stroke-linejoin="round"/>
    <path d="M 236.17120361328125 337.2027893066406 C 220.36764526367188 315.2312927246094 245.27708435058594 295.174560546875 230.5342559814453 286.3038635253906" stroke-width="9.85714340209961" fill="none" stroke="rgb(119, 28, 0)" stroke-opacity="0.06744659" stroke-linecap="round" stroke-linejoin="round"/>
    <path d="M 402.4790954589844 1072.948974609375 C 429.31024169921875 1119.239013671875 385.3116760253906 1137.771240234375 403.9477844238281 1116.335205078125" stroke-width="10.842855453491211" fill="none" stroke="rgb(75, 36, 253)" stroke-opacity="0.87689084" stroke-linecap="round" stroke-linejoin="round"/>
    <path d="M 1034.945556640625 880.1364135742188 C 998.044677734375 868.2786254882812 1001.4539184570312 858.3773803710938 950.051513671875 901.043212890625 C 965.8698120117188 859.9818115234375 931.2418212890625 865.2064819335938 903.9171142578125 814.9989624023438 C 874.5770874023438 791.9241333007812 862.4722900390625 827.7791137695312 839.1932373046875 829.1923828125" stroke-width="9.85714340209961" fill="none" stroke="rgb(147, 67, 90)" stroke-opacity="0.7838359" stroke-linecap="round" stroke-linejoin="round"/>
  </g>
</svg>
