<?xml version="1.0" ?>
<svg xmlns="http://www.w3.org/2000/svg" version="1.1" width="1104.0" height="1104.0">
  <defs/>
  <g>
    <path d="M 43.52570724487305 40.0552978515625 C 44.71518325805664 40.0552978515625 44.53340530395508 41.41925811767578 44.85182571411133 42.15491485595703 C 45.199527740478516 42.95645523071289 45.747314453125 43.66282272338867 46.611568450927734 43.9307861328125 C 46.84824752807617 44.52860641479492 46.87018966674805 45.19237518310547 46.508636474609375 46.35391616821289 C 47.558292388916016 47.507789611816406 48.28053665161133 49.151123046875 48.60017776489258 50.89327621459961 C 48.2824821472168 52.67843246459961 48.86734390258789 53.40172576904297 49.04182052612305 54.6508674621582 C 49.384639739990234 57.10551834106445 49.46464538574219 60.00594711303711 49.71229934692383 62.48866271972656 C 49.92702102661133 64.63340759277344 51.00233840942383 68.8436279296875 50.0361213684082 70.776123046875" stroke-width="1.0892857313156128" fill="none" stroke="rgb(26, 21, 21)" stroke-opacity="0.99" stroke-linecap="round" stroke-linejoin="round"/>
    <path d="M 49.491661071777344 70.23149108886719 C 50.433685302734375 73.61209106445312 46.63506317138672 72.02558898925781 42.422828674316406 76.10894775390625 C 38.2750358581543 74.8008804321289 35.674293518066406 79.25836944580078 38.71662521362305 81.1905288696289 C 33.32377624511719 83.66767883300781 35.33525085449219 78.72623443603516 33.026432037353516 75.12100982666016" stroke-width="1.1982136964797974" fill="none" stroke="rgb(183, 57, 31)" stroke-opacity="0.071879536" stroke-linecap="round" stroke-linejoin="round"/>
    <path d="M 45.39644241333008 41.610286712646484 C 43.1024284362793 42.17736053466797 41.66606140136719 37.42196273803711 45.647552490234375 43.2398567199707 C 41.67058181762695 43.059486389160156 37.247802734375 43.14728546142578 42.17249298095703 43.492774963378906 C 46.690670013427734 44.73000717163086 52.681705474853516 40.70963668823242 48.10200119018555 45.159793853759766" stroke-width="1.1982128620147705" fill="none" stroke="rgb(39, 177, 60)" stroke-opacity="0.9884383" stroke-linecap="round" stroke-linejoin="round"/>
    <path d="M 46.50859451293945 46.35416030883789 C 43.9354362487793 49.555274963378906 37.97560501098633 47.11170196533203 36.04706954956055 48.589759826660156" stroke-width="1.0892857313156128" fill="none" stroke="rgb(43, 115, 160)" stroke-opacity="0.21905835" stroke-linecap="round" stroke-linejoin="round"/>
    <path d="M 50.25693893432617 61.94406509399414 C 50.09861373901367 66.43515014648438 55.386409759521484 63.622501373291016 51.79203796386719 61.86134719848633" stroke-width="1.0892857313156128" fill="none" stroke="rgb(167, 92, 231)" stroke-opacity="0.23603019" stroke-linecap="round" stroke-linejoin="round"/>
    <path d="M 46.066959381103516 43.93073272705078 C 46.90666198730469 44.94833755493164 51.52128982543945 44.0610466003418 54.27077865600586 49.54164505004883" stroke-width="1.1982131004333496" fill="none" stroke="rgb(72, 216, 7)" stroke-opacity="0.48778498" stroke-linecap="round" stroke-linejoin="round"/>
    <path d="M 45.396461486816406 42.15486145019531 C 44.211917877197266 35.725830078125 41.52788162231445 36.946537017822266 38.71877670288086 31.890708923339844" stroke-width="1.0892857313156128" fill="none" stroke="rgb(135, 167, 181)" stroke-opacity="0.105316535" stroke-linecap="round" stroke-linejoin="round"/>
    <path d="M 46.508583068847656 46.35416030883789 C 48.8516845703125 45.872474670410156 43.58694076538086 50.87916946411133 45.469181060791016 53.55656814575195 C 48.27545928955078 50.966156005859375 44.824493408203125 54.099609375 41.5267333984375 55.15812301635742" stroke-width="1.0892857313156128" fill="none" stroke="rgb(255, 198, 187)" stroke-opacity="0.7885948" stroke-linecap="round" stroke-linejoin="round"/>
    <path d="M 46.06696319580078 43.93074035644531 C 50.799320220947266 43.936668395996094 53.184288024902344 46.37858581542969 54.19175338745117 48.49174499511719" stroke-width="1.1982083320617676" fill="none" stroke="rgb(213, 174, 73)" stroke-opacity="0.4735483" stroke-linecap="round" stroke-linejoin="round"/>
    <path d="M 54.73562240600586 48.491390228271484 C 60.60505676269531 52.46088790893555 55.43448257446289 50.94907760620117 56.935420989990234 48.35005569458008 C 62.548545837402344 49.16925811767578 57.304866790771484 46.76960372924805 58.39712905883789 50.795379638671875" stroke-width="1.0892857313156128" fill="none" stroke="rgb(190, 41, 136)" stroke-opacity="0.873241" stroke-linecap="round" stroke-linejoin="round"/>
    <path d="M 41.5267219543457 55.15822219848633 C 39.22770309448242 49.19953155517578 37.598533630371094 54.30390930175781 32.673030853271484 57.390403747558594 C 29.0382080078125 63.052459716796875 25.233510971069336 66.01270294189453 25.10919952392578 71.15491485595703 C 28.053091049194336 67.74819946289062 32.14442825317383 72.16891479492188 35.97054672241211 69.5271987915039" stroke-width="1.1982139348983765" fill="none" stroke="rgb(239, 139, 169)" stroke-opacity="0.52568287" stroke-linecap="round" stroke-linejoin="round"/>
    <path d="M 33.026432037353516 75.12711334228516 C 35.35255432128906 71.00350189208984 31.017475128173828 67.68924713134766 33.54222106933594 67.36152648925781" stroke-width="1.0892857313156128" fill="none" stroke="rgb(44, 223, 48)" stroke-opacity="0.014710144" stroke-linecap="round" stroke-linejoin="round"/>
    <path d="M 54.270774841308594 49.541648864746094 C 49.584747314453125 45.40142059326172 47.6563606262207 50.09691619873047 45.29345703125 51.723419189453125 C 45.57451629638672 52.37889862060547 43.45915603637695 55.600196838378906 41.55618667602539 54.039878845214844 C 45.23377227783203 54.38145065307617 44.614768981933594 55.845428466796875 42.08710479736328 58.52650451660156" stroke-width="1.0892857313156128" fill="none" stroke="rgb(164, 183, 229)" stroke-opacity="0.596276" stroke-linecap="round" stroke-linejoin="round"/>
    <path d="M 51.79204177856445 61.861351013183594 C 50.96918869018555 58.708885192871094 52.61654281616211 59.75386428833008 55.324520111083984 57.1886100769043 C 55.88871765136719 53.437843322753906 51.548423767089844 58.597808837890625 45.75117874145508 56.10312271118164 C 47.75350570678711 50.341819763183594 49.32158660888672 54.68248748779297 54.336822509765625 51.94672393798828" stroke-width="1.198214054107666" fill="none" stroke="rgb(36, 195, 200)" stroke-opacity="0.7010431" stroke-linecap="round" stroke-linejoin="round"/>
    <path d="M 54.191001892089844 49.036014556884766 C 57.08740997314453 53.27715301513672 56.801361083984375 51.580108642578125 61.175994873046875 55.420310974121094 C 60.45207214355469 59.104251861572266 59.011837005615234 61.007904052734375 54.73789978027344 63.18745040893555 C 59.33109664916992 69.22295379638672 54.20393753051758 68.41567993164062 58.56698989868164 72.70797729492188" stroke-width="1.1982131004333496" fill="none" stroke="rgb(140, 149, 183)" stroke-opacity="0.088369004" stroke-linecap="round" stroke-linejoin="round"/>
    <path d="M 36.04706954956055 48.589759826660156 C 40.8968391418457 46.462642669677734 39.597869873046875 44.9056282043457 37.27555465698242 48.37650680541992" stroke-width="1.1982117891311646" fill="none" stroke="rgb(167, 143, 93)" stroke-opacity="0.4027184" stroke-linecap="round" stroke-linejoin="round"/>
    <path d="M 36.04706954956055 48.589759826660156 C 40.94496154785156 43.93466567993164 42.48258590698242 38.2279052734375 39.2880859375 42.442081451416016" stroke-width="1.1982141733169556" fill="none" stroke="rgb(248, 101, 178)" stroke-opacity="0.42173105" stroke-linecap="round" stroke-linejoin="round"/>
    <path d="M 56.987159729003906 72.77239227294922 C 58.43879699707031 77.11080932617188 55.12065887451172 76.34476470947266 58.49568557739258 74.79010772705078 C 58.76455307006836 70.73207092285156 64.4273452758789 70.90351104736328 66.52267456054688 66.1412353515625 C 66.00965118408203 63.785797119140625 67.2610855102539 65.52348327636719 72.44584655761719 70.8479232788086" stroke-width="1.1982141733169556" fill="none" stroke="rgb(63, 16, 219)" stroke-opacity="0.72822434" stroke-linecap="round" stroke-linejoin="round"/>
    <path d="M 38.32597732543945 29.661014556884766 C 39.5057258605957 28.463590621948242 34.28226852416992 26.325366973876953 30.190298080444336 31.927671432495117 C 31.090951919555664 36.19868469238281 27.143108367919922 31.16095733642578 23.958171844482422 30.808616638183594 C 21.335311889648438 33.164608001708984 23.612089157104492 27.76055908203125 27.955089569091797 29.52134132385254" stroke-width="1.0892857313156128" fill="none" stroke="rgb(4, 201, 131)" stroke-opacity="0.46047276" stroke-linecap="round" stroke-linejoin="round"/>
    <path d="M 14.900012016296387 27.369937896728516 C 11.04653549194336 25.535234451293945 6.1754865646362305 22.721757888793945 2.374276876449585 18.997055053710938" stroke-width="1.0892857313156128" fill="none" stroke="rgb(112, 127, 47)" stroke-opacity="0.86451626" stroke-linecap="round" stroke-linejoin="round"/>
    <path d="M 94.38140106201172 83.66207885742188 C 93.40172576904297 87.62405395507812 93.7311019897461 91.98567199707031 91.28031921386719 89.01366424560547" stroke-width="1.0892857313156128" fill="none" stroke="rgb(173, 11, 123)" stroke-opacity="0.72033626" stroke-linecap="round" stroke-linejoin="round"/>
    <path d="M 86.70417022705078 28.55416488647461 C 89.33737182617188 34.08850860595703 84.3105697631836 32.65706253051758 88.0224838256836 30.34122657775879" stroke-width="1.1982139348983765" fill="none" stroke="rgb(105, 4, 26)" stroke-opacity="0.74916095" stroke-linecap="round" stroke-linejoin="round"/>
    <path d="M 105.98793029785156 5.749156475067139 C 102.31690216064453 0.29947513341903687 102.2326431274414 6.191721439361572 104.74493408203125 6.588963985443115 C 100.86685180664062 6.332642078399658 100.86822509765625 0.9797080755233765 104.1266098022461 -3.719405174255371" stroke-width="1.0892857313156128" fill="none" stroke="rgb(128, 240, 212)" stroke-opacity="0.7827438" stroke-linecap="round" stroke-linejoin="round"/>
    <path d="M 14.502174377441406 35.23115539550781 C 16.405691146850586 33.69239044189453 19.290342330932617 28.110069274902344 16.348052978515625 26.02136993408203 C 20.459228515625 22.737201690673828 26.395301818847656 23.700302124023438 25.126956939697266 29.594261169433594 C 19.714794158935547 32.69978713989258 17.900686264038086 36.8243522644043 11.936604499816895 41.91434097290039" stroke-width="1.1982113122940063" fill="none" stroke="rgb(125, 225, 124)" stroke-opacity="0.123654455" stroke-linecap="round" stroke-linejoin="round"/>
    <path d="M 52.498985290527344 64.71048736572266 C 55.10551452636719 70.66329193115234 51.012916564941406 73.885986328125 55.10253143310547 69.34605407714844" stroke-width="1.1982125043869019" fill="none" stroke="rgb(45, 17, 101)" stroke-opacity="0.1397831" stroke-linecap="round" stroke-linejoin="round"/>
    <path d="M 80.52764892578125 120.91205596923828 C 81.15701293945312 118.88536071777344 80.37146759033203 116.98543548583984 76.05908966064453 112.95140075683594" stroke-width="1.0892857313156128" fill="none" stroke="rgb(129, 141, 154)" stroke-opacity="0.18528847" stroke-linecap="round" stroke-linejoin="round"/>
    <path d="M 83.1235122680664 40.71772003173828 C 77.64501190185547 46.649749755859375 74.85869598388672 45.3741455078125 79.47528076171875 40.0280876159668 C 85.02237701416016 35.575035095214844 86.45796203613281 37.94256591796875 80.63261413574219 32.02980422973633" stroke-width="1.0892857313156128" fill="none" stroke="rgb(179, 171, 62)" stroke-opacity="0.6166957" stroke-linecap="round" stroke-linejoin="round"/>
    <path d="M 54.80812454223633 101.58253479003906 C 50.20905303955078 105.05205535888672 51.19919204711914 105.77300262451172 55.885440826416016 101.42926788330078 C 61.65991973876953 101.53516387939453 65.59391021728516 98.34577941894531 63.723453521728516 104.10831451416016 C 61.54784393310547 104.21283721923828 59.712066650390625 100.11396026611328 60.71494674682617 96.2922592163086" stroke-width="1.0892857313156128" fill="none" stroke="rgb(181, 27, 16)" stroke-opacity="0.60190725" stroke-linecap="round" stroke-linejoin="round"/>
    <path d="M 76.08483123779297 96.36937713623047 C 73.61289978027344 93.51420593261719 71.25471496582031 94.2657699584961 70.25157165527344 94.90301513671875 C 73.8792953491211 100.7156753540039 70.14468383789062 106.10298156738281 68.68568420410156 110.02581024169922" stroke-width="1.198213815689087" fill="none" stroke="rgb(50, 132, 0)" stroke-opacity="0.30141947" stroke-linecap="round" stroke-linejoin="round"/>
    <path d="M 119.18756103515625 71.57135772705078 C 122.19271850585938 68.99991607666016 118.29541778564453 63.78020477294922 113.01891326904297 68.86823272705078 C 111.76365661621094 71.14053344726562 112.13311004638672 66.5245361328125 109.88117218017578 62.47165298461914" stroke-width="1.0892857313156128" fill="none" stroke="rgb(97, 174, 129)" stroke-opacity="0.11682281" stroke-linecap="round" stroke-linejoin="round"/>
    <path d="M 13.098320007324219 53.047523498535156 C 9.924769401550293 52.95354080200195 4.3229498863220215 52.322017669677734 7.569021701812744 51.1999397277832" stroke-width="1.0892857313156128" fill="none" stroke="rgb(102, 95, 18)" stroke-opacity="0.37253946" stroke-linecap="round" stroke-linejoin="round"/>
    <path d="M 16.42353630065918 84.78594207763672 C 15.33596420288086 88.7194595336914 12.117751121520996 83.07034301757812 16.678890228271484 79.4683837890625 C 13.61189079284668 81.4999771118164 12.658172607421875 83.7222900390625 10.929298400878906 88.78504180908203 C 11.981300354003906 92.4953842163086 6.307788848876953 87.52334594726562 9.009197235107422 88.37010955810547" stroke-width="1.1982133388519287" fill="none" stroke="rgb(120, 38, 236)" stroke-opacity="0.4269431" stroke-linecap="round" stroke-linejoin="round"/>
    <path d="M 119.59669494628906 57.23649215698242 C 119.89973449707031 57.079505920410156 125.73576354980469 61.710472106933594 128.41607666015625 65.4601058959961" stroke-width="1.0892857313156128" fill="none" stroke="rgb(78, 18, 46)" stroke-opacity="0.53383285" stroke-linecap="round" stroke-linejoin="round"/>
  </g>
</svg>
