<?xml version="1.0" ?>
<svg xmlns="http://www.w3.org/2000/svg" version="1.1" width="122.0" height="122.0">
  <defs/>
  <g>
    <path d="M 65.43497467041016 25.291221618652344 C 63.227413177490234 26.04042625427246 63.13861846923828 23.14484214782715 68.2066421508789 22.68016242980957 C 68.35771179199219 22.69020652770996 66.58598327636719 22.912878036499023 67.45475006103516 22.037302017211914 C 69.79350280761719 19.308059692382812 75.1641616821289 16.431255340576172 77.06603240966797 21.500513076782227 C 80.22370147705078 23.289621353149414 79.7432861328125 33.584991455078125 76.75574493408203 41.789669036865234 C 78.30723571777344 48.65845489501953 78.56090545654297 47.619842529296875 73.3247299194336 43.9185905456543 C 73.3018798828125 46.4804573059082 74.41851043701172 51.34665298461914 77.2828140258789 57.159759521484375 C 77.84635925292969 58.23472213745117 76.31684875488281 56.06132888793945 72.44613647460938 57.958702087402344 C 70.92023468017578 59.91659164428711 63.5557746887207 59.167503356933594 62.74422073364258 62.054874420166016 C 59.61030578613281 63.07322692871094 55.051734924316406 63.56302261352539 52.0156364440918 64.29129791259766 C 47.46278762817383 65.48738861083984 45.2946662902832 63.225135803222656 45.4490966796875 69.31462097167969 C 48.97648239135742 71.20796966552734 54.19454574584961 72.94181060791016 58.55400466918945 74.64383697509766 C 59.54158020019531 78.08631134033203 58.15554428100586 85.75730895996094 59.37104797363281 96.08190155029297" stroke-width="2.9115402698516846" fill="none" stroke="rgb(82, 5, 21)" stroke-opacity="0.95826" stroke-linecap="round" stroke-linejoin="round"/>
    <path d="M 74.34317016601562 23.830739974975586 C 77.25069427490234 20.604948043823242 81.27212524414062 18.303634643554688 82.72560119628906 11.501219749450684 C 84.26936340332031 7.362221717834473 80.4889907836914 10.150447845458984 73.74464416503906 15.302966117858887" stroke-width="1.7484338283538818" fill="none" stroke="rgb(159, 255, 202)" stroke-opacity="0.22432555" stroke-linecap="round" stroke-linejoin="round"/>
    <path d="M 74.23314666748047 42.345237731933594 C 74.80583190917969 37.35485076904297 75.32430267333984 36.45359802246094 74.34886932373047 38.200531005859375 C 69.57711029052734 41.13933181762695 78.18653869628906 42.71941375732422 79.20008850097656 53.528907775878906" stroke-width="3.0971546173095703" fill="none" stroke="rgb(37, 255, 255)" stroke-opacity="0.81076574" stroke-linecap="round" stroke-linejoin="round"/>
    <path d="M 55.95006561279297 78.24182891845703 C 59.335792541503906 79.4083480834961 61.4556999206543 81.08226776123047 66.53226470947266 77.94963073730469" stroke-width="1.0907089710235596" fill="none" stroke="rgb(91, 103, 81)" stroke-opacity="0.7955099" stroke-linecap="round" stroke-linejoin="round"/>
    <path d="M 63.65818405151367 63.11222839355469 C 70.5101318359375 64.7095718383789 71.33132934570312 68.9166030883789 65.64904022216797 70.87018585205078" stroke-width="1.0892857313156128" fill="none" stroke="rgb(168, 216, 108)" stroke-opacity="0.25126946" stroke-linecap="round" stroke-linejoin="round"/>
    <path d="M 79.09828186035156 38.9456672668457 C 76.4056396484375 46.57389831542969 74.58248138427734 40.76792907714844 75.27970886230469 33.429298400878906" stroke-width="2.4740822315216064" fill="none" stroke="rgb(66, 0, 96)" stroke-opacity="0.2812163" stroke-linecap="round" stroke-linejoin="round"/>
    <path d="M 63.13059997558594 24.928529739379883 C 63.42607116699219 26.159170150756836 61.390140533447266 28.86820411682129 60.18791198730469 27.80747413635254 C 57.57497787475586 24.530120849609375 56.52552795410156 22.48308753967285 57.0620231628418 20.88428497314453" stroke-width="1.0892857313156128" fill="none" stroke="rgb(109, 198, 189)" stroke-opacity="0.41778922" stroke-linecap="round" stroke-linejoin="round"/>
    <path d="M 72.20643615722656 50.13390350341797 C 71.70226287841797 49.62876892089844 66.09835052490234 51.39022445678711 72.7508544921875 49.860511779785156" stroke-width="1.0892857313156128" fill="none" stroke="rgb(167, 243, 220)" stroke-opacity="0.3676659" stroke-linecap="round" stroke-linejoin="round"/>
    <path d="M 64.21305084228516 63.762691497802734 C 68.4804458618164 59.794830322265625 68.83595275878906 62.889617919921875 59.26662063598633 63.62961959838867" stroke-width="1.0892857313156128" fill="none" stroke="rgb(61, 212, 164)" stroke-opacity="0.36465856" stroke-linecap="round" stroke-linejoin="round"/>
    <path d="M 77.24781799316406 53.71333312988281 C 74.48902130126953 53.31468200683594 70.43563079833984 54.50146484375 65.70703125 53.444847106933594 C 66.0699234008789 59.54719924926758 67.23241424560547 55.684810638427734 65.22175598144531 48.900306701660156" stroke-width="2.4693453311920166" fill="none" stroke="rgb(72, 153, 135)" stroke-opacity="0.25712013" stroke-linecap="round" stroke-linejoin="round"/>
    <path d="M 66.37873840332031 70.8009033203125 C 66.22139739990234 66.5870590209961 69.300537109375 62.278194427490234 69.66358184814453 59.97672653198242 C 65.93973541259766 57.42255401611328 64.527587890625 51.32279586791992 63.83394241333008 42.58991622924805 C 60.635475158691406 38.80721664428711 59.83707046508789 47.465248107910156 61.13055419921875 54.46345520019531" stroke-width="1.0892857313156128" fill="none" stroke="rgb(38, 234, 212)" stroke-opacity="0.18489246" stroke-linecap="round" stroke-linejoin="round"/>
    <path d="M 65.53911590576172 72.62348175048828 C 62.57026672363281 62.37495803833008 63.26447296142578 62.955284118652344 61.339962005615234 49.54389953613281" stroke-width="2.7695724964141846" fill="none" stroke="rgb(255, 35, 48)" stroke-opacity="0.8071158" stroke-linecap="round" stroke-linejoin="round"/>
    <path d="M 75.60778045654297 34.55461883544922 C 77.94355773925781 22.068227767944336 80.12511444091797 26.096940994262695 79.75224304199219 32.5673713684082" stroke-width="2.9023847579956055" fill="none" stroke="rgb(216, 0, 8)" stroke-opacity="0.42277068" stroke-linecap="round" stroke-linejoin="round"/>
    <path d="M 79.35377502441406 35.723140716552734 C 80.15177917480469 31.258520126342773 82.62532043457031 29.597681045532227 87.5374526977539 30.341737747192383 C 88.3103256225586 29.64229393005371 86.93609619140625 27.110618591308594 88.34136199951172 22.630691528320312" stroke-width="2.3024089336395264" fill="none" stroke="rgb(245, 78, 191)" stroke-opacity="0.0" stroke-linecap="round" stroke-linejoin="round"/>
    <path d="M 62.88776397705078 76.89092254638672 C 67.14079284667969 74.84605407714844 74.74877166748047 76.77130126953125 71.4807357788086 74.60638427734375" stroke-width="2.946148633956909" fill="none" stroke="rgb(75, 20, 0)" stroke-opacity="0.27478403" stroke-linecap="round" stroke-linejoin="round"/>
    <path d="M 61.298702239990234 63.508262634277344 C 67.06292724609375 71.39093780517578 69.61124420166016 79.23632049560547 65.08174896240234 78.42809295654297 C 61.321388244628906 83.63497924804688 57.44867706298828 82.4808120727539 54.991943359375 76.86811828613281 C 45.00053405761719 75.63709259033203 46.3294677734375 74.60921478271484 49.880401611328125 71.73616790771484" stroke-width="1.5383884906768799" fill="none" stroke="rgb(79, 110, 0)" stroke-opacity="0.21991214" stroke-linecap="round" stroke-linejoin="round"/>
    <path d="M 67.66130828857422 77.1764144897461 C 65.48833465576172 77.6898193359375 63.5214958190918 77.07804107666016 63.27556228637695 76.74520874023438 C 61.84247970581055 77.10252380371094 59.96247482299805 73.0538101196289 56.478981018066406 68.3473892211914" stroke-width="1.6089578866958618" fill="none" stroke="rgb(101, 143, 116)" stroke-opacity="0.5612513" stroke-linecap="round" stroke-linejoin="round"/>
    <path d="M 113.03209686279297 72.41932678222656 C 110.65258026123047 73.60643768310547 109.83098602294922 74.72230529785156 113.29475402832031 70.86503601074219 C 112.97335815429688 67.62361907958984 115.609375 63.14449691772461 114.14617919921875 54.90845489501953 C 115.64883422851562 53.1721305847168 107.42442321777344 58.69144058227539 104.00711059570312 70.6562271118164" stroke-width="2.125932216644287" fill="none" stroke="rgb(170, 255, 12)" stroke-opacity="0.27633914" stroke-linecap="round" stroke-linejoin="round"/>
    <path d="M 22.41053581237793 60.64124298095703 C 25.245311737060547 59.845054626464844 26.181411743164062 58.83024978637695 30.00687026977539 57.54178237915039 C 31.824695587158203 54.729637145996094 27.329303741455078 54.81120681762695 18.144575119018555 57.10816192626953" stroke-width="1.0892857313156128" fill="none" stroke="rgb(130, 208, 3)" stroke-opacity="0.18112797" stroke-linecap="round" stroke-linejoin="round"/>
    <path d="M 14.172210693359375 88.94921875 C 8.888867378234863 84.787353515625 8.151137351989746 84.18038177490234 2.959785223007202 86.72075653076172 C 1.885259985923767 88.92112731933594 4.216306209564209 77.55773162841797 7.549422740936279 73.24811553955078" stroke-width="1.0892857313156128" fill="none" stroke="rgb(81, 75, 104)" stroke-opacity="0.52367586" stroke-linecap="round" stroke-linejoin="round"/>
    <path d="M 74.72693634033203 89.34708404541016 C 67.8759765625 92.1500473022461 61.18925857543945 96.18402862548828 66.3521957397461 93.70780181884766" stroke-width="1.0892857313156128" fill="none" stroke="rgb(168, 199, 151)" stroke-opacity="0.67927265" stroke-linecap="round" stroke-linejoin="round"/>
    <path d="M 65.54125213623047 70.07999420166016 C 70.08378601074219 77.05470275878906 67.01141357421875 75.19043731689453 57.5616569519043 74.92215728759766" stroke-width="2.808859348297119" fill="none" stroke="rgb(192, 120, 93)" stroke-opacity="0.5806823" stroke-linecap="round" stroke-linejoin="round"/>
    <path d="M 84.69850158691406 -1.545740008354187 C 84.81927490234375 -1.8153599500656128 84.9388427734375 -2.0837600231170654 84.06503295898438 -0.9265915751457214 C 84.03092193603516 1.0037729740142822 81.82557678222656 3.14381742477417 79.32715606689453 5.124953269958496 C 73.85970306396484 4.218801021575928 72.76055908203125 8.512771606445312 71.82382202148438 16.634231567382812" stroke-width="1.0892857313156128" fill="none" stroke="rgb(105, 212, 160)" stroke-opacity="0.0" stroke-linecap="round" stroke-linejoin="round"/>
    <path d="M 67.20978546142578 74.80232238769531 C 74.641357421875 71.90776824951172 77.30612182617188 71.7508544921875 86.22673034667969 67.04303741455078" stroke-width="3.5405874252319336" fill="none" stroke="rgb(240, 21, 33)" stroke-opacity="0.61533326" stroke-linecap="round" stroke-linejoin="round"/>
    <path d="M 104.77597045898438 83.81696319580078 C 106.82665252685547 74.22264099121094 108.09614562988281 69.361572265625 107.07286834716797 69.81561279296875 C 106.72478485107422 71.25434875488281 103.30455017089844 76.44863891601562 100.02450561523438 84.21603393554688 C 90.34362030029297 85.36934661865234 97.41279602050781 85.21336364746094 109.35018920898438 87.4122543334961" stroke-width="1.1220667362213135" fill="none" stroke="rgb(126, 100, 120)" stroke-opacity="0.50639576" stroke-linecap="round" stroke-linejoin="round"/>
    <path d="M 114.94468688964844 29.691682815551758 C 116.55876159667969 15.54126262664795 110.86219787597656 15.56010913848877 110.85836029052734 30.2081356048584" stroke-width="1.0892857313156128" fill="none" stroke="rgb(173, 47, 255)" stroke-opacity="0.61949956" stroke-linecap="round" stroke-linejoin="round"/>
    <path d="M 107.80895233154297 114.68341064453125 C 106.17235565185547 108.87976837158203 101.91597747802734 105.0374984741211 104.11274719238281 104.15575408935547 C 104.9719467163086 104.08901977539062 111.09481048583984 106.5611572265625 114.41551971435547 111.1885757446289 C 120.16728973388672 115.17277526855469 113.05289459228516 115.80657958984375 102.08274841308594 113.8846206665039" stroke-width="1.0892857313156128" fill="none" stroke="rgb(149, 113, 196)" stroke-opacity="0.14204526" stroke-linecap="round" stroke-linejoin="round"/>
    <path d="M 79.1941146850586 111.07270050048828 C 82.90962982177734 111.50740051269531 86.98628997802734 111.57268524169922 87.07890319824219 112.14241790771484 C 89.01495361328125 113.503173828125 88.09508514404297 114.17169952392578 86.188720703125 114.37804412841797 C 84.07584381103516 112.1994400024414 86.31735229492188 117.81120300292969 88.61576843261719 123.22952270507812" stroke-width="1.5537899732589722" fill="none" stroke="rgb(246, 200, 237)" stroke-opacity="0.0" stroke-linecap="round" stroke-linejoin="round"/>
    <path d="M 72.53649139404297 89.20694732666016 C 77.41986846923828 87.85018920898438 81.93384552001953 85.66690826416016 86.2957763671875 83.3005599975586 C 91.9777603149414 79.91154479980469 96.13176727294922 79.81057739257812 94.44022369384766 74.35482025146484" stroke-width="1.7423712015151978" fill="none" stroke="rgb(168, 187, 125)" stroke-opacity="0.78620017" stroke-linecap="round" stroke-linejoin="round"/>
    <path d="M 6.373480319976807 85.27909851074219 C 7.405710697174072 84.3319091796875 11.303261756896973 87.43449401855469 16.971656799316406 84.77469635009766" stroke-width="1.0892857313156128" fill="none" stroke="rgb(48, 16, 255)" stroke-opacity="0.6470476" stroke-linecap="round" stroke-linejoin="round"/>
    <path d="M 120.33336639404297 -4.317023754119873 C 120.582275390625 -3.0913519859313965 120.77615356445312 -1.8668062686920166 119.88543701171875 0.536050021648407 C 118.93071746826172 2.462505578994751 119.2458267211914 0.8570683002471924 119.09564971923828 -1.04887056350708" stroke-width="1.095518946647644" fill="none" stroke="rgb(200, 255, 78)" stroke-opacity="0.23080327" stroke-linecap="round" stroke-linejoin="round"/>
    <path d="M 97.38359832763672 8.646148681640625 C 98.68147277832031 7.6347551345825195 93.5263671875 8.070852279663086 93.208984375 18.896760940551758" stroke-width="1.0892857313156128" fill="none" stroke="rgb(170, 201, 72)" stroke-opacity="0.33124346" stroke-linecap="round" stroke-linejoin="round"/>
    <path d="M 77.66544342041016 61.3050422668457 C 81.64680480957031 65.03610229492188 85.93424987792969 64.71914672851562 88.66570281982422 64.6860122680664 C 90.45555114746094 66.14164733886719 88.09100341796875 61.916107177734375 80.29191589355469 59.75937271118164" stroke-width="1.0892857313156128" fill="none" stroke="rgb(72, 20, 215)" stroke-opacity="0.5579512" stroke-linecap="round" stroke-linejoin="round"/>
    <path d="M 42.622520446777344 12.757328033447266 C 44.9351806640625 13.736519813537598 43.45107650756836 11.938141822814941 42.44141387939453 13.478896141052246 C 39.90632629394531 13.969319343566895 37.17115783691406 14.559785842895508 39.57112121582031 15.250006675720215 C 36.72901153564453 15.009739875793457 35.14344024658203 17.312694549560547 34.022029876708984 17.968050003051758 C 34.13145065307617 22.987163543701172 30.493436813354492 23.86930274963379 31.17152214050293 26.310546875 C 31.17835807800293 30.718448638916016 31.704524993896484 33.35879898071289 33.12766647338867 35.0692138671875 C 34.27853775024414 34.31618118286133 35.312442779541016 34.85366439819336 34.78515625 38.57698440551758 C 34.38656234741211 40.5931282043457 37.90715789794922 41.414405822753906 39.541419982910156 41.76823425292969 C 40.92440414428711 45.62131881713867 43.85575485229492 47.67876434326172 44.70741271972656 52.14031982421875 C 49.044334411621094 52.69228744506836 46.47692108154297 55.351524353027344 48.3481559753418 62.23453903198242 C 48.15776443481445 61.82693099975586 48.81473922729492 63.00275421142578 50.1258659362793 61.29671859741211 C 48.32855224609375 62.926944732666016 42.54254913330078 61.79161071777344 44.92170715332031 64.50618743896484 C 47.38176727294922 69.85811614990234 44.72455978393555 69.82596588134766 40.70009231567383 70.89533996582031 C 35.788352966308594 73.06053161621094 34.37659454345703 73.20922088623047 28.285964965820312 74.76580047607422 C 30.376996994018555 78.99439239501953 24.99148941040039 76.23784637451172 27.77616310119629 79.6293716430664" stroke-width="1.0892857313156128" fill="none" stroke="rgb(34, 36, 10)" stroke-opacity="0.92253536" stroke-linecap="round" stroke-linejoin="round"/>
    <path d="M 38.85142135620117 114.70992279052734 C 38.84947204589844 114.03555297851562 37.566349029541016 112.8740005493164 39.09138107299805 114.11199188232422 C 36.3281364440918 108.03617095947266 36.82093048095703 100.9909896850586 38.844337463378906 94.42185974121094 C 40.88024139404297 69.45649719238281 40.54002380371094 48.32756423950195 38.237579345703125 30.39289093017578" stroke-width="2.162339925765991" fill="none" stroke="rgb(42, 31, 12)" stroke-opacity="0.90263045" stroke-linecap="round" stroke-linejoin="round"/>
    <path d="M 54.494789123535156 25.97732162475586 C 60.38956832885742 25.541784286499023 56.83203887939453 23.000524520874023 51.70399856567383 23.850553512573242 C 55.715415954589844 24.996044158935547 52.93122100830078 24.33418846130371 51.105308532714844 23.96729850769043 C 51.42638397216797 24.924442291259766 48.70237731933594 24.53340721130371 43.69276428222656 24.509260177612305 C 41.207244873046875 25.918851852416992 39.1348762512207 25.252405166625977 36.64583206176758 24.651569366455078 C 38.936683654785156 23.684932708740234 38.59621810913086 22.94638442993164 38.292091369628906 22.307872772216797 C 34.42979049682617 21.787023544311523 29.895278930664062 20.440671920776367 30.558141708374023 19.29634666442871" stroke-width="1.7894564867019653" fill="none" stroke="rgb(63, 2, 0)" stroke-opacity="1.0" stroke-linecap="round" stroke-linejoin="round"/>
    <path d="M 34.28725814819336 25.11509895324707 C 41.37966537475586 21.81949806213379 40.17436218261719 28.135658264160156 49.4930534362793 27.487730026245117" stroke-width="3.4213080406188965" fill="none" stroke="rgb(255, 33, 23)" stroke-opacity="0.858834" stroke-linecap="round" stroke-linejoin="round"/>
    <path d="M 50.61433029174805 27.842294692993164 C 51.061859130859375 28.57452964782715 52.47153854370117 29.59749984741211 57.74882507324219 27.550838470458984 C 57.79186248779297 28.87481117248535 57.408485412597656 28.06673812866211 57.51322555541992 28.71693229675293 C 58.31033706665039 24.438899993896484 61.290348052978516 17.732772827148438 60.772945404052734 16.869094848632812" stroke-width="1.0892857313156128" fill="none" stroke="rgb(174, 140, 61)" stroke-opacity="0.19951524" stroke-linecap="round" stroke-linejoin="round"/>
    <path d="M 9.231082916259766 70.99283599853516 C 6.1445536613464355 75.74512481689453 1.8958275318145752 79.26659393310547 3.341421604156494 86.29437255859375 C -2.7885663509368896 86.42324829101562 3.3055288791656494 84.25634002685547 2.785534143447876 84.9457778930664 C 2.2124407291412354 83.71280670166016 -0.898330569267273 82.7960433959961 6.137216567993164 83.28324127197266" stroke-width="2.3600096702575684" fill="none" stroke="rgb(9, 245, 159)" stroke-opacity="0.23296359" stroke-linecap="round" stroke-linejoin="round"/>
    <path d="M 60.612586975097656 27.387907028198242 C 56.09794616699219 29.77885627746582 49.38616943359375 23.664417266845703 51.41210174560547 29.473430633544922 C 51.2266960144043 27.831954956054688 48.24745178222656 26.32213020324707 54.514068603515625 26.938650131225586" stroke-width="1.154770851135254" fill="none" stroke="rgb(125, 118, 137)" stroke-opacity="0.37314975" stroke-linecap="round" stroke-linejoin="round"/>
    <path d="M 79.8276138305664 43.18575668334961 C 78.65643310546875 48.598777770996094 77.24098205566406 52.55644607543945 83.88675689697266 49.109859466552734" stroke-width="1.0892857313156128" fill="none" stroke="rgb(134, 36, 250)" stroke-opacity="0.4526689" stroke-linecap="round" stroke-linejoin="round"/>
    <path d="M 59.84911346435547 66.14234924316406 C 65.55342864990234 63.656253814697266 72.08148193359375 62.55449676513672 80.03746795654297 59.000091552734375" stroke-width="1.0892857313156128" fill="none" stroke="rgb(55, 75, 83)" stroke-opacity="0.70461744" stroke-linecap="round" stroke-linejoin="round"/>
    <path d="M 70.78677368164062 70.50089263916016 C 75.49024963378906 74.8299331665039 76.9347915649414 79.96585845947266 75.73047637939453 85.6965103149414 C 76.30230712890625 87.78829956054688 81.52064514160156 83.75779724121094 85.19139099121094 78.74923706054688 C 86.68433380126953 83.7408218383789 83.74633026123047 82.74937438964844 83.71894836425781 85.29508972167969" stroke-width="1.0892857313156128" fill="none" stroke="rgb(207, 151, 142)" stroke-opacity="0.29278693" stroke-linecap="round" stroke-linejoin="round"/>
    <path d="M 64.41468048095703 28.608362197875977 C 65.1863021850586 31.362060546875 66.18883514404297 34.22267532348633 64.1738510131836 34.209739685058594 C 69.84060668945312 36.56458282470703 76.65116882324219 38.20545196533203 77.0537338256836 45.290287017822266 C 76.99322509765625 49.02163314819336 86.17304992675781 52.005615234375 90.35795593261719 45.867271423339844" stroke-width="2.1691300868988037" fill="none" stroke="rgb(238, 255, 20)" stroke-opacity="0.0" stroke-linecap="round" stroke-linejoin="round"/>
    <path d="M 77.6553955078125 57.47272872924805 C 75.16848754882812 57.038631439208984 79.53814697265625 66.23655700683594 78.60797119140625 63.23910903930664" stroke-width="1.0892857313156128" fill="none" stroke="rgb(166, 202, 132)" stroke-opacity="0.99888253" stroke-linecap="round" stroke-linejoin="round"/>
    <path d="M 7.4285502433776855 79.58794403076172 C 12.44697380065918 85.98588562011719 16.39558219909668 84.45188903808594 10.946776390075684 78.00891876220703 C 9.641658782958984 82.87272644042969 1.2853953838348389 84.17109680175781 0.49014636874198914 75.1274185180664" stroke-width="1.937347412109375" fill="none" stroke="rgb(9, 227, 134)" stroke-opacity="0.29911953" stroke-linecap="round" stroke-linejoin="round"/>
    <path d="M 62.1231689453125 17.920995712280273 C 63.502681732177734 18.435195922851562 62.302852630615234 23.061914443969727 58.3111457824707 21.268552780151367" stroke-width="1.0892857313156128" fill="none" stroke="rgb(137, 255, 230)" stroke-opacity="0.6800286" stroke-linecap="round" stroke-linejoin="round"/>
    <path d="M 85.72151184082031 88.72875213623047 C 85.80550384521484 93.95680236816406 88.46222686767578 87.78873443603516 82.97682189941406 87.4515380859375" stroke-width="1.0892857313156128" fill="none" stroke="rgb(187, 236, 199)" stroke-opacity="0.5455298" stroke-linecap="round" stroke-linejoin="round"/>
    <path d="M 7.9934611320495605 83.89340209960938 C 12.180503845214844 88.63982391357422 14.778141021728516 89.76397705078125 7.183635234832764 87.17501831054688" stroke-width="1.0892857313156128" fill="none" stroke="rgb(106, 107, 147)" stroke-opacity="0.45015296" stroke-linecap="round" stroke-linejoin="round"/>
    <path d="M 6.562374591827393 79.22266387939453 C 8.787835121154785 78.13917541503906 6.843165874481201 82.51325988769531 3.151339054107666 79.93683624267578" stroke-width="3.0112056732177734" fill="none" stroke="rgb(218, 255, 97)" stroke-opacity="0.18771464" stroke-linecap="round" stroke-linejoin="round"/>
    <path d="M 63.19835662841797 11.77405834197998 C 53.889400482177734 9.870157241821289 51.93026351928711 2.028228282928467 52.74435043334961 2.7074670791625977 C 48.088680267333984 -0.1836177557706833 51.11396789550781 -5.501518726348877 53.45175552368164 -2.799344301223755 C 52.76945877075195 -0.5782001614570618 55.7359504699707 -6.49643611907959 60.26204299926758 -9.68800163269043" stroke-width="1.0892857313156128" fill="none" stroke="rgb(111, 157, 35)" stroke-opacity="0.5117766" stroke-linecap="round" stroke-linejoin="round"/>
    <path d="M 58.0804557800293 10.246332168579102 C 65.08895874023438 12.218949317932129 65.98099517822266 14.635385513305664 65.39896392822266 16.667747497558594 C 71.03853607177734 26.267011642456055 67.94596862792969 29.110498428344727 70.19825744628906 20.11956024169922 C 75.32135009765625 18.792236328125 77.4917984008789 12.638214111328125 81.02769470214844 6.757321834564209" stroke-width="1.0892857313156128" fill="none" stroke="rgb(92, 148, 139)" stroke-opacity="0.18108484" stroke-linecap="round" stroke-linejoin="round"/>
    <path d="M 21.618019104003906 28.84173583984375 C 22.679744720458984 28.167190551757812 21.02928924560547 30.928577423095703 17.796245574951172 24.160402297973633 C 12.812588691711426 18.867725372314453 13.409090042114258 23.59069061279297 17.146974563598633 30.137157440185547 C 16.434131622314453 31.72883415222168 20.914567947387695 37.878761291503906 20.05859375 38.51935958862305" stroke-width="1.6775933504104614" fill="none" stroke="rgb(175, 239, 82)" stroke-opacity="0.31697208" stroke-linecap="round" stroke-linejoin="round"/>
    <path d="M 70.97974395751953 113.62654876708984 C 74.09333038330078 108.75303649902344 76.77525329589844 108.52890014648438 73.66505432128906 112.76329803466797" stroke-width="1.6766599416732788" fill="none" stroke="rgb(197, 16, 226)" stroke-opacity="0.73173237" stroke-linecap="round" stroke-linejoin="round"/>
    <path d="M 37.98194122314453 88.34783935546875 C 43.941749572753906 86.80927276611328 47.43239974975586 91.15914916992188 51.60602569580078 92.93997955322266" stroke-width="1.2551144361495972" fill="none" stroke="rgb(162, 195, 146)" stroke-opacity="0.72904444" stroke-linecap="round" stroke-linejoin="round"/>
    <path d="M 115.00629425048828 62.85400390625 C 113.71429443359375 65.57060241699219 113.6041259765625 68.51568603515625 111.73815155029297 74.90885162353516 C 113.38314056396484 77.29582214355469 110.57256317138672 74.13981628417969 119.23345184326172 76.54151153564453 C 120.25199127197266 75.33006286621094 125.30895233154297 74.370361328125 120.20641326904297 75.53932189941406" stroke-width="2.171464681625366" fill="none" stroke="rgb(12, 239, 131)" stroke-opacity="0.17050879" stroke-linecap="round" stroke-linejoin="round"/>
    <path d="M 92.52424621582031 35.34696960449219 C 89.09677124023438 31.653926849365234 90.68412780761719 36.932289123535156 86.42366790771484 34.125064849853516 C 92.18326568603516 38.66828155517578 97.85614776611328 32.39112091064453 102.79348754882812 34.48499298095703" stroke-width="1.0892857313156128" fill="none" stroke="rgb(163, 209, 79)" stroke-opacity="0.2975833" stroke-linecap="round" stroke-linejoin="round"/>
    <path d="M 53.44355392456055 109.56385803222656 C 56.2093391418457 113.45838928222656 57.975830078125 117.15021514892578 51.35579299926758 111.31985473632812 C 44.13750076293945 107.8898696899414 41.099456787109375 105.36685180664062 46.91876220703125 105.30094909667969" stroke-width="1.426732063293457" fill="none" stroke="rgb(179, 220, 129)" stroke-opacity="0.41389757" stroke-linecap="round" stroke-linejoin="round"/>
    <path d="M 109.52218627929688 109.94071197509766 C 113.13299560546875 113.50326538085938 112.38716125488281 113.55416107177734 111.88727569580078 113.04383087158203 C 108.04366302490234 113.23929595947266 116.12281036376953 112.03907775878906 119.59868621826172 108.0830078125" stroke-width="1.497389316558838" fill="none" stroke="rgb(146, 224, 44)" stroke-opacity="0.53102994" stroke-linecap="round" stroke-linejoin="round"/>
    <path d="M 3.63101863861084 95.65983581542969 C 5.756035804748535 97.92657470703125 7.054037570953369 98.51078033447266 7.626262664794922 96.08085632324219 C 10.969232559204102 101.79580688476562 16.331640243530273 101.63971710205078 14.897114753723145 100.8293228149414 C 15.637947082519531 103.51034545898438 21.255064010620117 103.56968688964844 13.835107803344727 100.66426849365234" stroke-width="2.408853769302368" fill="none" stroke="rgb(176, 255, 89)" stroke-opacity="0.4150289" stroke-linecap="round" stroke-linejoin="round"/>
    <path d="M 84.98080444335938 113.89970397949219 C 83.07577514648438 105.64054870605469 81.27677917480469 99.89833068847656 81.87493133544922 101.77132415771484" stroke-width="1.0892857313156128" fill="none" stroke="rgb(204, 131, 163)" stroke-opacity="0.58939666" stroke-linecap="round" stroke-linejoin="round"/>
    <path d="M 26.044227600097656 33.09061050415039 C 23.720762252807617 29.25606346130371 22.875732421875 23.602155685424805 25.51813316345215 30.34718894958496" stroke-width="1.0892857313156128" fill="none" stroke="rgb(145, 194, 142)" stroke-opacity="0.78844386" stroke-linecap="round" stroke-linejoin="round"/>
    <path d="M 55.64160919189453 111.39392852783203 C 56.086036682128906 116.64032745361328 59.3567008972168 115.63714599609375 54.51948928833008 113.98770904541016 C 54.3526725769043 111.51671600341797 51.70436477661133 106.26251983642578 54.338096618652344 108.51339721679688 C 54.68556594848633 112.45964050292969 59.00149917602539 109.21943664550781 56.977142333984375 106.25286865234375" stroke-width="1.238402247428894" fill="none" stroke="rgb(227, 173, 255)" stroke-opacity="0.6594226" stroke-linecap="round" stroke-linejoin="round"/>
    <path d="M 39.628665924072266 102.4614028930664 C 37.02729797363281 109.00676727294922 37.72140884399414 110.00820922851562 29.377168655395508 105.9564437866211" stroke-width="1.0892857313156128" fill="none" stroke="rgb(149, 102, 217)" stroke-opacity="0.62156135" stroke-linecap="round" stroke-linejoin="round"/>
    <path d="M 59.69800567626953 3.0354690551757812 C 65.24629974365234 9.977776527404785 66.22834777832031 3.7235944271087646 71.19882202148438 -1.4776288270950317 C 73.42740631103516 -5.413042068481445 76.44120025634766 1.5122742652893066 72.70033264160156 3.6475865840911865 C 75.46923828125 -5.192091941833496 75.11332702636719 -3.620542287826538 77.26211547851562 2.750185012817383" stroke-width="1.3611301183700562" fill="none" stroke="rgb(159, 221, 100)" stroke-opacity="0.6256128" stroke-linecap="round" stroke-linejoin="round"/>
    <path d="M 103.9498519897461 97.71346282958984 C 104.35601043701172 98.79541778564453 109.27693939208984 104.32183074951172 109.92301940917969 104.75257110595703" stroke-width="1.0892857313156128" fill="none" stroke="rgb(221, 71, 113)" stroke-opacity="0.62406546" stroke-linecap="round" stroke-linejoin="round"/>
    <path d="M 25.901826858520508 26.220802307128906 C 20.00164794921875 27.758028030395508 20.002038955688477 23.197324752807617 15.449141502380371 17.28569221496582 C 17.969417572021484 17.883325576782227 22.48320770263672 22.441591262817383 24.792943954467773 26.87209701538086 C 24.416555404663086 25.352750778198242 20.55667495727539 24.349939346313477 20.040285110473633 27.78533935546875" stroke-width="1.3967926502227783" fill="none" stroke="rgb(154, 224, 165)" stroke-opacity="0.4475486" stroke-linecap="round" stroke-linejoin="round"/>
    <path d="M 86.76411437988281 48.635841369628906 C 88.9686050415039 46.808109283447266 86.5679931640625 53.378334045410156 84.08621215820312 51.292484283447266" stroke-width="1.828560471534729" fill="none" stroke="rgb(181, 245, 188)" stroke-opacity="0.72790074" stroke-linecap="round" stroke-linejoin="round"/>
  </g>
</svg>
