<?xml version="1.0" ?>
<svg xmlns="http://www.w3.org/2000/svg" version="1.1" width="925.0" height="925.0">
  <defs/>
  <g>
    <path d="M 90.79296875 105.3752670288086 C 93.16874694824219 113.2062759399414 95.27549743652344 121.32725524902344 101.70099639892578 125.43862915039062 C 107.90282440185547 129.21022033691406 118.7442626953125 128.6624755859375 123.8266830444336 127.63174438476562 C 128.64158630371094 126.54500579833984 127.4369125366211 124.96292114257812 125.97237396240234 123.12140655517578 C 124.75233459472656 121.5204086303711 130.1320037841797 114.34896850585938 135.5354766845703 107.48460388183594" stroke-width="4.412257671356201" fill="none" stroke="rgb(91, 87, 84)" stroke-opacity="1.0" stroke-linecap="round" stroke-linejoin="round"/>
    <path d="M 150.85305786132812 34.0728645324707 C 127.77848052978516 28.182106018066406 104.69508361816406 21.712329864501953 80.0381088256836 35.436824798583984 C 55.70435333251953 49.55952072143555 29.51321792602539 83.33013153076172 45.34763717651367 96.9586410522461 C 61.70534896850586 110.88845825195312 119.80860137939453 105.07865142822266 178.17373657226562 99.27437591552734 C 236.54017639160156 93.82093048095703 195.6318817138672 64.4881820678711 154.76429748535156 35.124549865722656" stroke-width="3.7855753898620605" fill="none" stroke="rgb(230, 202, 69)" stroke-opacity="1.0" stroke-linecap="round" stroke-linejoin="round"/>
    <path d="M 132.5362548828125 40.21729278564453 C 144.52792358398438 41.05348587036133 156.2561798095703 41.896568298339844 153.9536895751953 44.24184799194336 C 151.6388702392578 46.27145004272461 135.26730346679688 49.184696197509766 136.0010528564453 50.11493682861328 C 137.25340270996094 50.966644287109375 155.5968780517578 49.55360794067383 155.98602294921875 51.8707389831543 C 156.3804168701172 54.455745697021484 138.76329040527344 60.183349609375 139.34153747558594 60.77411651611328 C 140.20565795898438 61.78584671020508 159.55003356933594 58.39399337768555 159.70362854003906 60.6782112121582 C 159.8539581298828 62.6191520690918 140.90606689453125 71.0960693359375 140.5415802001953 73.45619201660156 C 140.42152404785156 75.53538513183594 158.62608337402344 71.21717071533203 160.20164489746094 72.22958374023438 C 161.76510620117188 73.26773834228516 146.6873779296875 79.64187622070312 147.13735961914062 80.23114013671875 C 147.33407592773438 81.07532501220703 163.31561279296875 76.39222717285156 164.6103973388672 78.13706970214844 C 166.1741943359375 80.13739776611328 152.78561401367188 88.26554107666016 139.11778259277344 96.09014892578125 C 125.7530288696289 104.25312042236328 146.4945068359375 97.6232681274414 167.53330993652344 90.90506744384766" stroke-width="3.8973801136016846" fill="none" stroke="rgb(249, 238, 194)" stroke-opacity="0.9972972" stroke-linecap="round" stroke-linejoin="round"/>
    <path d="M 144.79013061523438 78.6404037475586 C 158.09332275390625 81.44036102294922 165.0731201171875 82.40922546386719 153.1284942626953 79.74756622314453" stroke-width="2.5390841960906982" fill="none" stroke="rgb(226, 38, 126)" stroke-opacity="0.5420621" stroke-linecap="round" stroke-linejoin="round"/>
    <path d="M 154.03480529785156 41.65181350708008 C 150.4113006591797 44.41630935668945 146.534423828125 46.924503326416016 147.9145050048828 47.41443634033203 C 149.29421997070312 47.87907791137695 155.92886352539062 46.308082580566406 162.5653533935547 44.7477912902832 C 168.9464111328125 43.18156814575195 169.32444763183594 49.97936248779297 169.69981384277344 56.7814826965332" stroke-width="2.0" fill="none" stroke="rgb(136, 82, 201)" stroke-opacity="0.34222567" stroke-linecap="round" stroke-linejoin="round"/>
    <path d="M 162.59963989257812 81.12271118164062 C 175.71148681640625 83.71903991699219 184.62362670898438 86.1240234375 180.81639099121094 79.0689926147461" stroke-width="2.0" fill="none" stroke="rgb(216, 103, 48)" stroke-opacity="0.67754585" stroke-linecap="round" stroke-linejoin="round"/>
    <path d="M 139.2101287841797 60.56008529663086 C 140.65713500976562 63.910614013671875 141.830078125 67.52178192138672 142.71200561523438 71.40113830566406 C 143.89346313476562 75.00963592529297 144.9838409423828 74.69650268554688 146.06434631347656 74.38652038574219" stroke-width="2.0" fill="none" stroke="rgb(79, 23, 59)" stroke-opacity="0.8498957" stroke-linecap="round" stroke-linejoin="round"/>
    <path d="M 137.55162048339844 94.35957336425781 C 136.96778869628906 95.13180541992188 137.65420532226562 92.51107025146484 140.04393005371094 87.52019500732422" stroke-width="2.0" fill="none" stroke="rgb(138, 143, 120)" stroke-opacity="0.2848844" stroke-linecap="round" stroke-linejoin="round"/>
    <path d="M 126.38981628417969 123.1356201171875 C 122.78741455078125 123.43540954589844 119.18486785888672 123.73289489746094 117.00506591796875 125.58682250976562 C 115.0846176147461 127.701171875 114.32489776611328 131.1103057861328 113.56607818603516 134.51947021484375 C 112.80913543701172 137.92889404296875 111.0398941040039 136.25665283203125 109.27870178222656 135.10008239746094" stroke-width="2.0" fill="none" stroke="rgb(207, 191, 17)" stroke-opacity="0.24762167" stroke-linecap="round" stroke-linejoin="round"/>
    <path d="M 162.96875 80.30135345458984 C 174.9117889404297 87.49176788330078 177.52633666992188 80.12609100341797 174.74473571777344 77.52877807617188" stroke-width="2.0" fill="none" stroke="rgb(118, 18, 245)" stroke-opacity="0.27304652" stroke-linecap="round" stroke-linejoin="round"/>
    <path d="M 153.48834228515625 80.2166748046875 C 145.67996215820312 88.69660949707031 137.59951782226562 97.16443634033203 135.062744140625 96.81040954589844 C 133.05934143066406 97.0100326538086 136.33837890625 88.1225357055664 139.86129760742188 79.48529052734375 C 143.68646240234375 71.12631225585938 134.0995635986328 85.63456726074219 124.48638153076172 100.12614440917969" stroke-width="2.0" fill="none" stroke="rgb(115, 79, 128)" stroke-opacity="0.43887213" stroke-linecap="round" stroke-linejoin="round"/>
    <path d="M 145.99652099609375 74.02546691894531 C 151.13844299316406 73.4124984741211 156.54080200195312 73.06405639648438 161.94154357910156 72.72347259521484 C 167.34420776367188 72.40170288085938 163.20724487304688 72.60779571533203 159.06320190429688 72.55949401855469" stroke-width="2.0" fill="none" stroke="rgb(18, 22, 25)" stroke-opacity="0.4281448" stroke-linecap="round" stroke-linejoin="round"/>
    <path d="M 181.19970703125 78.03809356689453 C 184.62254333496094 74.89403533935547 188.04750061035156 71.74685668945312 191.46812438964844 68.34430694580078 C 194.8917236328125 65.19917297363281 188.67953491210938 62.42795944213867 182.20875549316406 59.4027099609375" stroke-width="2.148752212524414" fill="none" stroke="rgb(210, 34, 116)" stroke-opacity="0.10093814" stroke-linecap="round" stroke-linejoin="round"/>
    <path d="M 139.68557739257812 87.7315902709961 C 147.36166381835938 80.12479400634766 149.51458740234375 73.74799346923828 145.00245666503906 72.37406158447266" stroke-width="2.0" fill="none" stroke="rgb(105, 86, 199)" stroke-opacity="0.22123213" stroke-linecap="round" stroke-linejoin="round"/>
    <path d="M 155.96600341796875 80.60054016113281 C 158.82737731933594 81.52850341796875 147.13621520996094 87.31468200683594 141.76812744140625 82.82785034179688" stroke-width="2.0" fill="none" stroke="rgb(69, 153, 34)" stroke-opacity="0.19777834" stroke-linecap="round" stroke-linejoin="round"/>
    <path d="M 181.19070434570312 79.00741577148438 C 181.9789581298828 77.54286193847656 182.5118408203125 75.81888580322266 183.29026794433594 74.35026550292969 C 184.35064697265625 72.888916015625 185.16673278808594 62.1407585144043 185.9845733642578 51.13705825805664" stroke-width="2.0" fill="none" stroke="rgb(203, 137, 223)" stroke-opacity="0.5689184" stroke-linecap="round" stroke-linejoin="round"/>
    <path d="M 108.85899353027344 132.9090118408203 C 119.97477722167969 130.16326904296875 130.8267059326172 127.17870330810547 141.39443969726562 124.21665954589844 C 152.23785400390625 120.86941528320312 138.51126098632812 110.20023345947266 124.21637725830078 99.85438537597656" stroke-width="2.0" fill="none" stroke="rgb(69, 84, 166)" stroke-opacity="0.91187966" stroke-linecap="round" stroke-linejoin="round"/>
    <path d="M 126.18641662597656 49.70293045043945 C 120.1501235961914 55.65744400024414 128.87269592285156 61.820674896240234 136.38018798828125 50.34955978393555" stroke-width="2.395735263824463" fill="none" stroke="rgb(219, 122, 191)" stroke-opacity="0.045371808" stroke-linecap="round" stroke-linejoin="round"/>
    <path d="M 160.8046112060547 224.85569763183594 C 164.58152770996094 224.8495330810547 168.10357666015625 225.1082763671875 171.37448120117188 225.363525390625 C 174.89930725097656 225.61888122558594 181.54685974121094 222.02230834960938 188.45570373535156 218.69203186035156" stroke-width="2.0" fill="none" stroke="rgb(53, 56, 7)" stroke-opacity="0.6219195" stroke-linecap="round" stroke-linejoin="round"/>
    <path d="M 45.66279602050781 58.36659622192383 C 43.698753356933594 60.30164337158203 41.477508544921875 61.980220794677734 39.77145004272461 64.18657684326172 C 37.80633544921875 66.11273193359375 31.1044864654541 61.44096374511719 24.125625610351562 57.04085159301758" stroke-width="2.0" fill="none" stroke="rgb(89, 215, 55)" stroke-opacity="0.4618372" stroke-linecap="round" stroke-linejoin="round"/>
    <path d="M 65.68115234375 25.4633846282959 C 59.97600555419922 27.06867218017578 54.01298904418945 28.400171279907227 48.044776916503906 29.715362548828125 C 42.07432556152344 30.766571044921875 43.29857635498047 28.997119903564453 44.2519645690918 26.968976974487305" stroke-width="2.0" fill="none" stroke="rgb(149, 56, 192)" stroke-opacity="0.80847967" stroke-linecap="round" stroke-linejoin="round"/>
    <path d="M 106.08335876464844 112.29802703857422 C 102.19322967529297 113.20809936523438 98.04808807373047 113.86363983154297 94.15921020507812 114.78168487548828 C 90.27216339111328 115.95687866210938 83.9344711303711 110.83769226074219 77.34230041503906 105.97567749023438" stroke-width="2.439101457595825" fill="none" stroke="rgb(107, 137, 132)" stroke-opacity="0.3976643" stroke-linecap="round" stroke-linejoin="round"/>
    <path d="M 55.18000030517578 216.10552978515625 C 60.0399284362793 204.6834716796875 65.7164535522461 201.6448516845703 67.27830505371094 203.01229858398438" stroke-width="2.0" fill="none" stroke="rgb(251, 53, 162)" stroke-opacity="0.72898835" stroke-linecap="round" stroke-linejoin="round"/>
    <path d="M 24.29206085205078 1.7591454982757568 C 34.98253631591797 -1.566515564918518 45.67408752441406 -4.895270347595215 48.62580108642578 -8.304201126098633 C 51.45504379272461 -11.836159706115723 46.67040252685547 -15.32383918762207 41.88576126098633 -18.811519622802734 C 37.10112380981445 -22.299198150634766 48.569923400878906 -11.784639358520508 60.03872299194336 -1.2678394317626953" stroke-width="2.0" fill="none" stroke="rgb(253, 114, 138)" stroke-opacity="0.71146655" stroke-linecap="round" stroke-linejoin="round"/>
    <path d="M 23.417116165161133 120.03265380859375 C 19.537240982055664 116.73430633544922 15.659699440002441 113.44013977050781 11.530717849731445 110.13089752197266 C 7.917166233062744 106.83387756347656 1.0172345638275146 115.8135986328125 -5.884562015533447 124.53239440917969" stroke-width="2.1691484451293945" fill="none" stroke="rgb(64, 11, 199)" stroke-opacity="0.8220185" stroke-linecap="round" stroke-linejoin="round"/>
    <path d="M 145.19088745117188 21.876731872558594 C 138.8634033203125 23.37038230895996 132.5353546142578 24.84292984008789 125.9455337524414 26.04690933227539 C 119.61799621582031 27.53427505493164 126.7011489868164 24.043222427368164 133.78822326660156 20.540315628051758" stroke-width="2.675081968307495" fill="none" stroke="rgb(190, 0, 111)" stroke-opacity="0.6529124" stroke-linecap="round" stroke-linejoin="round"/>
    <path d="M 96.82170867919922 56.579227447509766 C 98.27469635009766 66.93907165527344 90.00184631347656 65.61064147949219 97.02396392822266 73.68158721923828" stroke-width="2.928309440612793" fill="none" stroke="rgb(254, 13, 73)" stroke-opacity="0.72450393" stroke-linecap="round" stroke-linejoin="round"/>
    <path d="M 113.9330825805664 191.984130859375 C 113.7434310913086 187.79469299316406 113.30162048339844 184.10348510742188 113.11602020263672 180.178466796875 C 112.93498229980469 176.24493408203125 114.84243774414062 178.19219970703125 116.75442504882812 179.88504028320312" stroke-width="2.1473965644836426" fill="none" stroke="rgb(121, 131, 39)" stroke-opacity="0.28598362" stroke-linecap="round" stroke-linejoin="round"/>
    <path d="M 38.828651428222656 171.02944946289062 C 26.976974487304688 163.9273681640625 19.8695125579834 169.19093322753906 31.425785064697266 155.5703582763672" stroke-width="2.0" fill="none" stroke="rgb(123, 193, 46)" stroke-opacity="0.6197898" stroke-linecap="round" stroke-linejoin="round"/>
    <path d="M 69.56183624267578 156.07852172851562 C 75.5353012084961 158.02001953125 81.51732635498047 159.4381561279297 83.18580627441406 164.4800567626953 C 84.56098937988281 169.53433227539062 81.87913513183594 177.95306396484375 79.2032241821289 186.37185668945312 C 76.8101577758789 195.05397033691406 78.15518188476562 185.46437072753906 79.5064926147461 175.8769989013672" stroke-width="2.0" fill="none" stroke="rgb(81, 4, 21)" stroke-opacity="0.45452815" stroke-linecap="round" stroke-linejoin="round"/>
    <path d="M 57.43760299682617 209.34600830078125 C 63.76061248779297 215.9952850341797 70.085693359375 222.64425659179688 68.98265838623047 221.80145263671875 C 68.13214874267578 220.7045440673828 60.36398696899414 211.6056671142578 52.340641021728516 202.76185607910156 C 44.06169509887695 194.17100524902344 43.171504974365234 202.94898986816406 42.28129196166992 211.97666931152344" stroke-width="2.0" fill="none" stroke="rgb(156, 194, 215)" stroke-opacity="0.036473934" stroke-linecap="round" stroke-linejoin="round"/>
    <path d="M 142.92611694335938 56.84650421142578 C 147.3246307373047 54.592464447021484 153.2150421142578 57.37068557739258 159.45419311523438 54.66366195678711" stroke-width="2.0" fill="none" stroke="rgb(0, 157, 105)" stroke-opacity="0.8328544" stroke-linecap="round" stroke-linejoin="round"/>
    <path d="M 22.402915954589844 121.10503387451172 C 27.740798950195312 129.67251586914062 28.735815048217773 132.80532836914062 19.5991268157959 133.03009033203125 C 25.26558494567871 132.5106201171875 15.570120811462402 142.34344482421875 15.484566688537598 143.90509033203125 C 4.5089335441589355 136.36903381347656 14.094417572021484 147.0961456298828 16.288806915283203 149.75648498535156" stroke-width="2.2749223709106445" fill="none" stroke="rgb(215, 228, 207)" stroke-opacity="0.35307914" stroke-linecap="round" stroke-linejoin="round"/>
    <path d="M 158.42127990722656 72.233154296875 C 168.1095428466797 65.23218536376953 178.04754638671875 74.65303039550781 186.1985626220703 79.02556610107422" stroke-width="2.0" fill="none" stroke="rgb(75, 82, 121)" stroke-opacity="0.55451304" stroke-linecap="round" stroke-linejoin="round"/>
    <path d="M 39.62025451660156 169.9061737060547 C 32.76756286621094 179.11891174316406 24.72917366027832 183.9080047607422 26.39090347290039 185.09542846679688 C 34.56904220581055 179.01397705078125 34.435943603515625 186.36001586914062 25.115570068359375 177.90992736816406" stroke-width="2.0" fill="none" stroke="rgb(176, 184, 32)" stroke-opacity="0.80243367" stroke-linecap="round" stroke-linejoin="round"/>
    <path d="M 123.52131652832031 98.8382339477539 C 118.84766387939453 107.36515045166016 125.17724609375 103.67729949951172 127.43193817138672 108.27388763427734 C 132.10757446289062 113.91360473632812 125.54733276367188 124.80252838134766 133.34466552734375 120.47171783447266" stroke-width="2.378498077392578" fill="none" stroke="rgb(188, 77, 70)" stroke-opacity="0.28637964" stroke-linecap="round" stroke-linejoin="round"/>
    <path d="M 132.52195739746094 41.32853698730469 C 126.21208190917969 43.51789474487305 122.27659606933594 35.35041046142578 117.96417236328125 45.14295196533203 C 115.62600708007812 36.742591857910156 119.099853515625 41.94060516357422 121.52163696289062 43.94428634643555 C 121.32279968261719 45.820491790771484 128.9027099609375 45.60469055175781 134.08848571777344 56.18219757080078" stroke-width="2.0" fill="none" stroke="rgb(51, 98, 171)" stroke-opacity="0.62886786" stroke-linecap="round" stroke-linejoin="round"/>
    <path d="M 108.04351806640625 133.7954559326172 C 107.49805450439453 138.0714111328125 109.17710876464844 135.9836883544922 99.14561462402344 137.02597045898438" stroke-width="2.0" fill="none" stroke="rgb(116, 195, 103)" stroke-opacity="0.49746123" stroke-linecap="round" stroke-linejoin="round"/>
    <path d="M 156.81971740722656 52.888648986816406 C 164.6780242919922 45.218406677246094 157.5616912841797 38.611602783203125 160.86997985839844 43.0029411315918 C 152.69456481933594 46.863433837890625 154.61099243164062 38.84367370605469 162.37921142578125 26.74651527404785" stroke-width="2.0" fill="none" stroke="rgb(105, 246, 213)" stroke-opacity="0.30423" stroke-linecap="round" stroke-linejoin="round"/>
    <path d="M 17.005901336669922 150.3165740966797 C 15.229340553283691 141.271728515625 23.409923553466797 132.08038330078125 14.229658126831055 125.72608184814453 C 3.687633752822876 118.38270568847656 12.624542236328125 128.96958923339844 23.729679107666016 129.4359588623047 C 14.695108413696289 120.49173736572266 19.35930633544922 116.63756561279297 12.473713874816895 124.14411926269531" stroke-width="2.0" fill="none" stroke="rgb(41, 36, 46)" stroke-opacity="0.8136595" stroke-linecap="round" stroke-linejoin="round"/>
    <path d="M 133.28497314453125 120.65950775146484 C 135.28207397460938 124.47496795654297 145.35391235351562 134.10650634765625 153.7301483154297 123.722900390625 C 152.0957489013672 116.53861999511719 145.3902587890625 122.76028442382812 151.77792358398438 129.5266876220703" stroke-width="2.0" fill="none" stroke="rgb(32, 146, 158)" stroke-opacity="0.37630922" stroke-linecap="round" stroke-linejoin="round"/>
    <path d="M 133.25634765625 120.26880645751953 C 121.11360931396484 121.94645690917969 126.88043975830078 123.20746612548828 119.6423568725586 118.11328887939453" stroke-width="2.066336154937744" fill="none" stroke="rgb(39, 194, 255)" stroke-opacity="0.76261353" stroke-linecap="round" stroke-linejoin="round"/>
    <path d="M 132.44654846191406 56.504878997802734 C 143.00196838378906 67.56936645507812 132.82614135742188 60.88974380493164 139.9645233154297 55.93032455444336" stroke-width="2.0" fill="none" stroke="rgb(107, 100, 16)" stroke-opacity="0.038359713" stroke-linecap="round" stroke-linejoin="round"/>
    <path d="M 133.40567016601562 118.91444396972656 C 126.83193969726562 113.13431549072266 116.006591796875 110.2179183959961 110.99263763427734 114.72551727294922" stroke-width="2.398524284362793" fill="none" stroke="rgb(29, 77, 249)" stroke-opacity="0.67625695" stroke-linecap="round" stroke-linejoin="round"/>
    <path d="M 163.5909881591797 26.76877212524414 C 164.57470703125 17.052650451660156 168.51510620117188 23.000709533691406 176.1067657470703 25.908628463745117 C 186.56979370117188 29.11760902404785 191.55813598632812 35.90201950073242 200.2502899169922 33.72472381591797 C 211.15414428710938 39.02479553222656 213.17242431640625 42.750831604003906 210.90249633789062 35.45045852661133" stroke-width="2.0" fill="none" stroke="rgb(36, 188, 36)" stroke-opacity="0.23995419" stroke-linecap="round" stroke-linejoin="round"/>
    <path d="M 133.33851623535156 120.61686706542969 C 138.02500915527344 115.36634826660156 141.6824951171875 124.61988830566406 142.91778564453125 115.65462493896484" stroke-width="2.3520405292510986" fill="none" stroke="rgb(123, 80, 176)" stroke-opacity="0.07499215" stroke-linecap="round" stroke-linejoin="round"/>
    <path d="M 224.3140106201172 190.22830200195312 C 214.46310424804688 197.68792724609375 210.8165283203125 186.74815368652344 209.3289337158203 196.7052001953125 C 201.60702514648438 192.84471130371094 198.87646484375 192.3167724609375 204.63804626464844 197.97885131835938" stroke-width="2.3695716857910156" fill="none" stroke="rgb(204, 72, 216)" stroke-opacity="0.37309211" stroke-linecap="round" stroke-linejoin="round"/>
    <path d="M 68.34961700439453 21.826534271240234 C 71.4254150390625 22.316110610961914 82.11109161376953 26.941370010375977 91.93844604492188 25.961793899536133 C 93.2485580444336 36.410736083984375 95.38536834716797 25.4376277923584 104.07354736328125 32.92815399169922" stroke-width="2.382169246673584" fill="none" stroke="rgb(135, 77, 110)" stroke-opacity="0.05576606" stroke-linecap="round" stroke-linejoin="round"/>
    <path d="M 220.2640838623047 49.387123107910156 C 209.5937957763672 44.98320388793945 219.27603149414062 49.12278747558594 207.33511352539062 55.915714263916016 C 209.3715057373047 61.4709587097168 199.0074005126953 52.93098449707031 209.15859985351562 40.726070404052734" stroke-width="2.0" fill="none" stroke="rgb(17, 81, 164)" stroke-opacity="0.2670827" stroke-linecap="round" stroke-linejoin="round"/>
    <path d="M 110.69725799560547 213.89430236816406 C 102.41929626464844 217.55784606933594 101.78626251220703 226.5670623779297 98.88124084472656 216.983154296875 C 89.48263549804688 219.5840606689453 88.34690856933594 226.62014770507812 88.68318939208984 230.88931274414062 C 87.94377136230469 232.6837921142578 96.28060913085938 226.100341796875 94.45938873291016 218.7709197998047" stroke-width="2.0" fill="none" stroke="rgb(79, 127, 2)" stroke-opacity="0.48442212" stroke-linecap="round" stroke-linejoin="round"/>
    <path d="M 36.57174301147461 158.2095947265625 C 45.607975006103516 167.21426391601562 49.81371307373047 166.8009033203125 56.65205764770508 168.94895935058594" stroke-width="2.0597853660583496" fill="none" stroke="rgb(115, 130, 198)" stroke-opacity="0.007944001" stroke-linecap="round" stroke-linejoin="round"/>
    <path d="M 107.58403015136719 51.66776657104492 C 116.02297973632812 48.81138229370117 106.82893371582031 37.03493881225586 107.2007827758789 33.804988861083984 C 98.89717102050781 34.07380676269531 97.22309875488281 44.05040740966797 93.96697998046875 51.33829116821289" stroke-width="2.0" fill="none" stroke="rgb(179, 208, 104)" stroke-opacity="0.31351542" stroke-linecap="round" stroke-linejoin="round"/>
    <path d="M 63.526092529296875 59.77067947387695 C 60.609153747558594 64.67288208007812 67.20330047607422 58.78196716308594 60.20936965942383 61.38150405883789 C 55.226287841796875 62.875831604003906 44.55908966064453 67.0338134765625 47.482303619384766 66.22486114501953" stroke-width="2.0102508068084717" fill="none" stroke="rgb(204, 22, 40)" stroke-opacity="0.43764502" stroke-linecap="round" stroke-linejoin="round"/>
    <path d="M 178.50326538085938 159.09408569335938 C 182.38584899902344 161.1806182861328 176.88568115234375 163.57167053222656 186.2781524658203 156.4936065673828" stroke-width="2.3999104499816895" fill="none" stroke="rgb(52, 41, 249)" stroke-opacity="0.23056869" stroke-linecap="round" stroke-linejoin="round"/>
    <path d="M 197.76763916015625 132.3856964111328 C 193.5488739013672 140.43899536132812 184.99977111816406 144.7401123046875 188.98439025878906 142.7738494873047 C 188.35421752929688 152.44818115234375 196.75059509277344 147.34445190429688 199.7855682373047 151.94422912597656" stroke-width="2.0" fill="none" stroke="rgb(90, 155, 134)" stroke-opacity="0.14966154" stroke-linecap="round" stroke-linejoin="round"/>
    <path d="M 139.0553741455078 192.32275390625 C 145.05203247070312 190.87889099121094 153.26136779785156 193.8353729248047 164.13865661621094 204.90826416015625 C 175.74160766601562 200.7964324951172 181.6602020263672 193.18321228027344 189.6666717529297 193.08233642578125 C 193.5706787109375 200.5896453857422 200.4639434814453 193.07810974121094 189.93353271484375 184.67507934570312" stroke-width="2.0" fill="none" stroke="rgb(54, 66, 36)" stroke-opacity="0.5798057" stroke-linecap="round" stroke-linejoin="round"/>
    <path d="M 50.16232681274414 124.41461944580078 C 52.05838394165039 123.41729736328125 43.77701187133789 133.36524963378906 49.6209831237793 143.04421997070312" stroke-width="2.0" fill="none" stroke="rgb(205, 212, 66)" stroke-opacity="0.90631014" stroke-linecap="round" stroke-linejoin="round"/>
    <path d="M 181.07102966308594 41.91645812988281 C 175.85537719726562 34.38565444946289 169.84278869628906 32.91342544555664 162.65309143066406 22.857481002807617 C 169.53811645507812 31.780719757080078 165.07879638671875 34.91471862792969 173.31748962402344 45.23155975341797 C 181.77113342285156 43.73197937011719 190.9093017578125 44.401832580566406 191.38552856445312 54.23535919189453" stroke-width="2.0" fill="none" stroke="rgb(73, 105, 195)" stroke-opacity="0.679955" stroke-linecap="round" stroke-linejoin="round"/>
    <path d="M 74.32044982910156 96.86018371582031 C 66.91334533691406 96.55223083496094 57.68400573730469 95.19082641601562 58.59394454956055 95.48184967041016 C 48.812076568603516 91.3526611328125 46.281246185302734 94.43968963623047 41.03659439086914 101.5576400756836" stroke-width="2.3872556686401367" fill="none" stroke="rgb(224, 156, 214)" stroke-opacity="0.90769863" stroke-linecap="round" stroke-linejoin="round"/>
    <path d="M 134.72901916503906 184.5783233642578 C 131.66725158691406 177.97357177734375 130.69137573242188 181.05218505859375 122.91637420654297 190.7676544189453 C 112.54466247558594 188.25965881347656 106.38587188720703 187.79957580566406 117.56973266601562 182.16506958007812 C 113.16583251953125 174.49159240722656 105.62539672851562 163.51385498046875 111.86114501953125 174.24024963378906" stroke-width="2.0" fill="none" stroke="rgb(140, 54, 186)" stroke-opacity="0.95227736" stroke-linecap="round" stroke-linejoin="round"/>
    <path d="M 52.72743606567383 44.316707611083984 C 54.22567367553711 48.01087188720703 44.58018112182617 46.39976501464844 52.03135299682617 47.14089584350586 C 49.77430725097656 49.88982391357422 41.958248138427734 61.13041305541992 44.72402572631836 58.31953430175781" stroke-width="2.0" fill="none" stroke="rgb(171, 10, 71)" stroke-opacity="0.96239305" stroke-linecap="round" stroke-linejoin="round"/>
  </g>
</svg>
