<?xml version="1.0" ?>
<svg xmlns="http://www.w3.org/2000/svg" version="1.1" width="122.0" height="122.0">
  <defs/>
  <g>
    <path d="M 27.73560333251953 46.82460021972656 C 26.332693099975586 47.84173583984375 22.274024963378906 47.74271011352539 21.900571823120117 47.28752136230469 C 20.2856502532959 46.47575378417969 19.067119598388672 47.21372604370117 17.453706741333008 47.63202667236328 C 15.95556640625 48.56962585449219 14.564194679260254 48.748199462890625 17.81977653503418 49.659568786621094 C 17.82133674621582 52.2154655456543 20.653907775878906 54.42152786254883 22.718603134155273 56.566810607910156 C 24.799419403076172 61.95315933227539 25.469444274902344 63.198883056640625 25.576566696166992 66.28729248046875" stroke-width="1.6145141124725342" fill="none" stroke="rgb(13, 0, 99)" stroke-opacity="0.98614365" stroke-linecap="round" stroke-linejoin="round"/>
    <path d="M 41.32143783569336 56.22243881225586 C 38.29446029663086 56.891502380371094 35.683494567871094 57.88163375854492 35.57877731323242 58.10088348388672 C 35.919864654541016 56.437774658203125 41.304012298583984 55.50187301635742 41.653011322021484 56.002281188964844 C 42.79673767089844 59.513877868652344 40.34639358520508 60.84111785888672 39.97316360473633 59.81742477416992 C 38.39730453491211 60.21086883544922 39.42226028442383 58.80343246459961 39.499778747558594 59.670291900634766 C 41.13883590698242 59.26194763183594 40.474430084228516 61.26991271972656 40.950313568115234 63.343868255615234 C 40.33497619628906 66.02814483642578 40.98870086669922 66.14405822753906 40.67859649658203 66.0554428100586" stroke-width="1.0892857313156128" fill="none" stroke="rgb(0, 75, 203)" stroke-opacity="0.8149166" stroke-linecap="round" stroke-linejoin="round"/>
    <path d="M 20.1976261138916 46.642478942871094 C 22.02044105529785 46.297908782958984 22.977521896362305 44.394683837890625 24.205656051635742 42.91826248168945 C 24.357738494873047 43.795921325683594 28.411338806152344 45.46889114379883 32.318824768066406 47.62789535522461 C 34.73887252807617 52.68437576293945 39.611270904541016 50.47056198120117 41.96681594848633 45.04129409790039" stroke-width="1.1745350360870361" fill="none" stroke="rgb(215, 216, 188)" stroke-opacity="0.3199702" stroke-linecap="round" stroke-linejoin="round"/>
    <path d="M 25.8193416595459 66.6492919921875 C 28.045991897583008 61.58648681640625 29.048120498657227 56.44458770751953 33.344940185546875 53.324947357177734 C 36.60179901123047 48.93620300292969 31.2354736328125 49.397098541259766 23.535783767700195 50.62236022949219" stroke-width="1.0892857313156128" fill="none" stroke="rgb(136, 172, 187)" stroke-opacity="0.35366133" stroke-linecap="round" stroke-linejoin="round"/>
    <path d="M 41.11662673950195 65.98360443115234 C 43.49576187133789 71.84749603271484 46.7220458984375 68.31396484375 44.36246109008789 65.61563873291016" stroke-width="1.3529119491577148" fill="none" stroke="rgb(110, 9, 43)" stroke-opacity="0.30967915" stroke-linecap="round" stroke-linejoin="round"/>
    <path d="M 39.723514556884766 61.559532165527344 C 40.084014892578125 60.3800048828125 41.91721725463867 59.74273681640625 43.772865295410156 59.49602508544922 C 45.50594711303711 57.15622329711914 44.10136032104492 59.9251594543457 44.79697036743164 65.24765014648438" stroke-width="1.0892857313156128" fill="none" stroke="rgb(115, 18, 175)" stroke-opacity="0.18941924" stroke-linecap="round" stroke-linejoin="round"/>
    <path d="M 37.4931640625 57.4337043762207 C 41.11416244506836 61.71548080444336 36.22210693359375 60.74464416503906 35.07107162475586 60.13551330566406" stroke-width="1.3620527982711792" fill="none" stroke="rgb(159, 8, 160)" stroke-opacity="0.7622324" stroke-linecap="round" stroke-linejoin="round"/>
    <path d="M 44.106239318847656 64.13888549804688 C 44.50003433227539 64.37823486328125 44.65593338012695 65.87147521972656 45.856754302978516 67.26884460449219 C 45.4081916809082 65.80675506591797 45.33551788330078 63.271575927734375 47.822574615478516 64.29950714111328 C 48.60185623168945 62.70192337036133 43.23432159423828 66.46426391601562 37.3017463684082 70.00015258789062" stroke-width="1.0892857313156128" fill="none" stroke="rgb(176, 193, 70)" stroke-opacity="0.0" stroke-linecap="round" stroke-linejoin="round"/>
    <path d="M 26.273033142089844 67.20848846435547 C 21.15900993347168 69.42420959472656 16.55077362060547 69.82349395751953 14.017546653747559 68.17598724365234 C 13.271727561950684 71.80130004882812 14.807159423828125 67.57539367675781 14.696907997131348 61.17461013793945 C 13.864396095275879 55.3022575378418 13.746627807617188 50.47465896606445 17.534517288208008 50.03751754760742" stroke-width="1.0892857313156128" fill="none" stroke="rgb(204, 213, 148)" stroke-opacity="0.61256266" stroke-linecap="round" stroke-linejoin="round"/>
    <path d="M 23.338642120361328 47.146968841552734 C 22.438724517822266 42.41578674316406 21.55789566040039 38.106590270996094 20.463218688964844 35.363441467285156 C 23.00934410095215 29.097021102905273 25.720857620239258 30.780088424682617 25.492637634277344 38.008724212646484" stroke-width="1.8370227813720703" fill="none" stroke="rgb(171, 60, 38)" stroke-opacity="0.53290653" stroke-linecap="round" stroke-linejoin="round"/>
    <path d="M 38.53340530395508 68.50914764404297 C 39.127906799316406 75.4639892578125 38.46812438964844 82.26205444335938 39.311458587646484 89.03547668457031 C 41.272857666015625 93.97583770751953 38.57979965209961 89.77721405029297 39.5942268371582 84.24402618408203" stroke-width="1.6368911266326904" fill="none" stroke="rgb(211, 10, 97)" stroke-opacity="0.34323195" stroke-linecap="round" stroke-linejoin="round"/>
    <path d="M 34.413429260253906 61.62557601928711 C 34.883541107177734 57.92009353637695 36.923492431640625 60.19038009643555 37.44883346557617 67.48663330078125" stroke-width="2.0061428546905518" fill="none" stroke="rgb(185, 22, 120)" stroke-opacity="0.9342112" stroke-linecap="round" stroke-linejoin="round"/>
    <path d="M 40.51027297973633 45.96620178222656 C 44.72852325439453 41.84896469116211 48.62032699584961 37.2735595703125 50.56694030761719 34.7823600769043 C 52.100868225097656 33.57435607910156 50.53398132324219 38.437095642089844 49.462162017822266 43.875152587890625 C 45.498634338378906 48.437530517578125 50.07094955444336 52.47002410888672 57.45882034301758 55.15203857421875" stroke-width="1.0892857313156128" fill="none" stroke="rgb(184, 198, 202)" stroke-opacity="0.030470315" stroke-linecap="round" stroke-linejoin="round"/>
    <path d="M 42.44001388549805 46.111942291259766 C 44.44306564331055 50.413944244384766 40.70834732055664 45.54827117919922 37.13161087036133 38.99261474609375" stroke-width="1.103916883468628" fill="none" stroke="rgb(178, 255, 242)" stroke-opacity="0.4861327" stroke-linecap="round" stroke-linejoin="round"/>
    <path d="M 18.678302764892578 48.74443054199219 C 20.024627685546875 49.245994567871094 21.20345115661621 49.837738037109375 21.810195922851562 53.725257873535156 C 24.358285903930664 54.442935943603516 27.65566635131836 57.325233459472656 27.243389129638672 62.46433639526367 C 29.328105926513672 65.6834945678711 32.805885314941406 61.28577423095703 34.97801208496094 58.20790100097656" stroke-width="2.371974468231201" fill="none" stroke="rgb(214, 75, 100)" stroke-opacity="0.94208485" stroke-linecap="round" stroke-linejoin="round"/>
    <path d="M 37.716636657714844 69.41912078857422 C 36.846092224121094 66.38951873779297 36.8062858581543 62.11466598510742 36.879302978515625 57.7125244140625 C 35.58128356933594 52.810630798339844 34.5190544128418 51.87364959716797 30.56955909729004 52.62611389160156" stroke-width="2.112287998199463" fill="none" stroke="rgb(218, 11, 124)" stroke-opacity="0.37335417" stroke-linecap="round" stroke-linejoin="round"/>
    <path d="M 39.47966003417969 68.838134765625 C 31.77621841430664 69.14967346191406 34.1304817199707 67.11385345458984 32.88945770263672 75.65066528320312" stroke-width="1.0892857313156128" fill="none" stroke="rgb(55, 55, 237)" stroke-opacity="0.68481815" stroke-linecap="round" stroke-linejoin="round"/>
    <path d="M 40.983192443847656 69.6367416381836 C 32.91573715209961 70.7203140258789 28.774497985839844 70.0401611328125 25.422887802124023 71.47369384765625" stroke-width="1.337227702140808" fill="none" stroke="rgb(71, 58, 240)" stroke-opacity="0.865463" stroke-linecap="round" stroke-linejoin="round"/>
    <path d="M 58.39213943481445 49.02775573730469 C 60.77501678466797 51.954559326171875 62.301483154296875 52.352638244628906 62.31576156616211 53.44194030761719 C 63.645835876464844 53.703216552734375 62.60694122314453 53.316097259521484 62.14448928833008 51.601829528808594" stroke-width="1.0892857313156128" fill="none" stroke="rgb(53, 56, 23)" stroke-opacity="0.7619328" stroke-linecap="round" stroke-linejoin="round"/>
    <path d="M 50.48383331298828 69.87718200683594 C 54.73053741455078 71.42300415039062 58.70539855957031 71.5395736694336 59.11371612548828 69.23509216308594 C 58.65980911254883 66.8249740600586 60.215171813964844 67.031982421875 63.20376968383789 68.38545227050781 C 62.3936653137207 67.71126556396484 60.76950454711914 68.6734390258789 58.69218063354492 69.44563293457031" stroke-width="1.0892857313156128" fill="none" stroke="rgb(177, 93, 105)" stroke-opacity="0.30116573" stroke-linecap="round" stroke-linejoin="round"/>
    <path d="M 100.11107635498047 119.34624481201172 C 94.7115478515625 120.20088195800781 90.65379333496094 120.44510650634766 86.74323272705078 119.8809814453125 C 85.43738555908203 123.9874038696289 89.22795867919922 120.79210662841797 89.14090728759766 114.52033996582031" stroke-width="1.0892857313156128" fill="none" stroke="rgb(232, 168, 197)" stroke-opacity="0.8552113" stroke-linecap="round" stroke-linejoin="round"/>
    <path d="M 32.642635345458984 80.15406036376953 C 26.216577529907227 80.75831604003906 21.861907958984375 81.3084716796875 18.214717864990234 81.56546020507812 C 13.750904083251953 79.97596740722656 12.491776466369629 85.17510223388672 9.708295822143555 90.56883239746094" stroke-width="1.1823657751083374" fill="none" stroke="rgb(141, 131, 159)" stroke-opacity="0.72445637" stroke-linecap="round" stroke-linejoin="round"/>
    <path d="M 10.835211753845215 30.761091232299805 C 16.40590476989746 27.67033576965332 22.588726043701172 25.81551170349121 21.51331901550293 25.403093338012695 C 18.688697814941406 22.765300750732422 13.976967811584473 21.888988494873047 6.900110244750977 20.596689224243164 C 1.5498197078704834 21.312397003173828 8.312893867492676 15.769350051879883 17.247291564941406 11.316678047180176" stroke-width="1.0892857313156128" fill="none" stroke="rgb(208, 226, 255)" stroke-opacity="0.9049437" stroke-linecap="round" stroke-linejoin="round"/>
    <path d="M 11.183867454528809 97.44896697998047 C 16.704355239868164 94.29547882080078 21.504547119140625 93.5101089477539 23.1490421295166 92.1091537475586 C 22.257505416870117 94.93859100341797 21.964675903320312 103.06848907470703 22.593708038330078 107.93815612792969 C 22.031694412231445 113.71870422363281 21.703346252441406 108.0089111328125 22.290414810180664 100.13471984863281" stroke-width="1.0892857313156128" fill="none" stroke="rgb(147, 3, 200)" stroke-opacity="0.55108124" stroke-linecap="round" stroke-linejoin="round"/>
    <path d="M 1.7569355964660645 84.7287826538086 C 1.154710054397583 86.17819213867188 -1.8701719045639038 92.0372543334961 -1.4695124626159668 93.55723571777344" stroke-width="1.1693512201309204" fill="none" stroke="rgb(101, 180, 148)" stroke-opacity="0.4043327" stroke-linecap="round" stroke-linejoin="round"/>
    <path d="M 89.90219116210938 105.68971252441406 C 95.01008605957031 101.93492889404297 93.5001449584961 109.21009826660156 90.15673065185547 113.86386108398438" stroke-width="1.2205069065093994" fill="none" stroke="rgb(180, 5, 99)" stroke-opacity="0.20308228" stroke-linecap="round" stroke-linejoin="round"/>
    <path d="M 49.05168914794922 105.65332794189453 C 49.7709846496582 117.44290924072266 51.548179626464844 120.19336700439453 48.52984619140625 118.37629699707031" stroke-width="1.0892857313156128" fill="none" stroke="rgb(92, 92, 103)" stroke-opacity="0.4317954" stroke-linecap="round" stroke-linejoin="round"/>
    <path d="M 111.3450927734375 121.83512115478516 C 109.53782653808594 123.4134750366211 109.67626953125 124.74346160888672 111.86734008789062 123.56316375732422 C 112.58504486083984 121.93743896484375 114.82112121582031 118.5166015625 118.16497039794922 116.33186340332031 C 121.45304870605469 113.77816009521484 123.92154693603516 112.26068878173828 126.74209594726562 111.21800994873047" stroke-width="1.8169445991516113" fill="none" stroke="rgb(163, 0, 39)" stroke-opacity="0.14263362" stroke-linecap="round" stroke-linejoin="round"/>
    <path d="M 0.7848931550979614 15.514875411987305 C 5.1614298820495605 10.1074857711792 6.933121681213379 11.601900100708008 14.259931564331055 9.426715850830078" stroke-width="1.0892857313156128" fill="none" stroke="rgb(86, 23, 247)" stroke-opacity="0.2959703" stroke-linecap="round" stroke-linejoin="round"/>
    <path d="M 40.189971923828125 124.11180877685547 C 39.58328628540039 120.42374420166016 38.91193389892578 116.96095275878906 38.71867752075195 120.07634735107422 C 37.34653854370117 121.23149108886719 39.97599411010742 125.8329849243164 41.96015167236328 131.13145446777344 C 44.08470153808594 136.2996063232422 41.622737884521484 132.00277709960938 39.16199493408203 127.70594024658203" stroke-width="1.2815033197402954" fill="none" stroke="rgb(70, 240, 188)" stroke-opacity="0.12420172" stroke-linecap="round" stroke-linejoin="round"/>
    <path d="M 58.25634765625 117.73974609375 C 59.52837371826172 118.03141021728516 61.64971160888672 116.76725769042969 60.33435821533203 115.90750885009766 C 60.53346252441406 116.35551452636719 58.969642639160156 116.46998596191406 58.968502044677734 112.64862823486328" stroke-width="1.0892857313156128" fill="none" stroke="rgb(218, 94, 42)" stroke-opacity="0.0" stroke-linecap="round" stroke-linejoin="round"/>
    <path d="M 5.63762092590332 120.20895385742188 C 3.2199323177337646 116.75076293945312 6.381549835205078 116.2125015258789 4.2925124168396 107.11206817626953" stroke-width="1.0892857313156128" fill="none" stroke="rgb(238, 27, 211)" stroke-opacity="0.49349135" stroke-linecap="round" stroke-linejoin="round"/>
    <path d="M 85.80510711669922 124.25684356689453 C 80.54658508300781 123.54830932617188 80.91172790527344 119.23258209228516 76.2507095336914 123.72183990478516" stroke-width="1.1826549768447876" fill="none" stroke="rgb(0, 198, 51)" stroke-opacity="0.46373704" stroke-linecap="round" stroke-linejoin="round"/>
    <path d="M 111.04443359375 78.734619140625 C 113.69867706298828 77.98355102539062 115.67750549316406 76.99248504638672 118.53484344482422 77.11280059814453 C 119.5767593383789 76.8678207397461 114.36640167236328 72.83016967773438 108.66002655029297 68.9016342163086" stroke-width="1.0892857313156128" fill="none" stroke="rgb(144, 194, 177)" stroke-opacity="0.39589652" stroke-linecap="round" stroke-linejoin="round"/>
    <path d="M 28.107213973999023 47.163326263427734 C 24.392066955566406 46.25693130493164 21.978567123413086 45.106201171875 22.423267364501953 46.506683349609375 C 24.158382415771484 47.063636779785156 26.864940643310547 51.79763412475586 29.649890899658203 56.54383850097656 C 33.507503509521484 58.555824279785156 30.484189987182617 57.527767181396484 25.653085708618164 57.69075393676758" stroke-width="1.831505537033081" fill="none" stroke="rgb(80, 44, 253)" stroke-opacity="0.39505363" stroke-linecap="round" stroke-linejoin="round"/>
    <path d="M 12.976866722106934 61.23050308227539 C 11.14194393157959 59.69562530517578 9.031954765319824 57.321041107177734 10.889534950256348 56.3781623840332 C 12.154400825500488 54.4691047668457 15.64975357055664 56.05445098876953 16.439437866210938 59.746761322021484 C 20.712411880493164 59.67926025390625 17.629684448242188 57.9359130859375 16.584426879882812 52.832794189453125" stroke-width="1.0892857313156128" fill="none" stroke="rgb(154, 57, 67)" stroke-opacity="0.0027304448" stroke-linecap="round" stroke-linejoin="round"/>
    <path d="M 56.68466567993164 115.66183471679688 C 57.72661590576172 120.55393981933594 64.66305541992188 116.47859954833984 64.97222900390625 115.17374420166016" stroke-width="1.0892857313156128" fill="none" stroke="rgb(217, 208, 160)" stroke-opacity="0.46924672" stroke-linecap="round" stroke-linejoin="round"/>
    <path d="M 11.370223999023438 32.77238464355469 C 11.194339752197266 27.87921142578125 10.042319297790527 25.081079483032227 8.215025901794434 22.241580963134766 C 6.927213668823242 18.95220184326172 7.058139801025391 21.160797119140625 7.381800174713135 23.127201080322266" stroke-width="2.1420130729675293" fill="none" stroke="rgb(14, 255, 4)" stroke-opacity="0.85833323" stroke-linecap="round" stroke-linejoin="round"/>
    <path d="M 16.65176773071289 12.584019660949707 C 18.557518005371094 13.012998580932617 17.162986755371094 13.033957481384277 15.488533973693848 11.321377754211426 C 16.524173736572266 7.740147113800049 11.335021018981934 5.811620235443115 8.075372695922852 0.6554783582687378 C 3.3237674236297607 -0.8388556241989136 6.392557621002197 -5.264518737792969 9.744773864746094 -10.039196968078613" stroke-width="1.0892857313156128" fill="none" stroke="rgb(110, 93, 250)" stroke-opacity="0.656465" stroke-linecap="round" stroke-linejoin="round"/>
    <path d="M 39.356597900390625 61.46004104614258 C 44.072914123535156 55.2996711730957 40.45828628540039 57.18828582763672 37.72303009033203 52.091426849365234" stroke-width="1.2797619104385376" fill="none" stroke="rgb(104, 40, 179)" stroke-opacity="0.7788666" stroke-linecap="round" stroke-linejoin="round"/>
    <path d="M 98.08846282958984 119.7079849243164 C 101.35432434082031 121.04635620117188 100.91940307617188 119.44950103759766 102.37651062011719 114.25993347167969 C 101.8492202758789 114.15646362304688 97.76534271240234 114.75946807861328 96.13401794433594 112.8009033203125 C 92.94557189941406 112.41024780273438 88.8453598022461 110.98606872558594 84.98091888427734 109.25640869140625" stroke-width="1.3042666912078857" fill="none" stroke="rgb(255, 158, 241)" stroke-opacity="0.8532539" stroke-linecap="round" stroke-linejoin="round"/>
    <path d="M 17.72269058227539 49.7542724609375 C 14.31522274017334 50.44371032714844 19.24251365661621 55.79450225830078 17.058414459228516 51.658470153808594" stroke-width="1.0892857313156128" fill="none" stroke="rgb(208, 120, 196)" stroke-opacity="0.88604754" stroke-linecap="round" stroke-linejoin="round"/>
    <path d="M 26.573516845703125 58.28727340698242 C 30.449323654174805 63.237483978271484 31.76263427734375 59.6666374206543 31.362707138061523 53.17801284790039" stroke-width="1.8789762258529663" fill="none" stroke="rgb(204, 6, 79)" stroke-opacity="0.13472222" stroke-linecap="round" stroke-linejoin="round"/>
    <path d="M 16.66217041015625 51.43547058105469 C 16.45484161376953 51.407386779785156 14.910192489624023 51.1264533996582 18.634687423706055 50.620445251464844 C 20.515413284301758 50.78594207763672 22.581993103027344 57.76255798339844 24.90026092529297 64.20811462402344 C 27.827131271362305 71.96186065673828 24.261381149291992 75.04613494873047 20.612285614013672 76.67460632324219" stroke-width="1.0892857313156128" fill="none" stroke="rgb(150, 117, 171)" stroke-opacity="0.47946513" stroke-linecap="round" stroke-linejoin="round"/>
    <path d="M 27.935287475585938 58.057533264160156 C 29.73823356628418 62.38173294067383 30.08086585998535 67.24800109863281 30.32452392578125 70.45853424072266" stroke-width="1.585938811302185" fill="none" stroke="rgb(179, 30, 118)" stroke-opacity="0.9889031" stroke-linecap="round" stroke-linejoin="round"/>
    <path d="M 66.52506256103516 113.77147674560547 C 71.24614715576172 114.87718963623047 74.29630279541016 113.77821350097656 74.47763061523438 112.72120666503906 C 73.29484558105469 111.96112060546875 71.25813293457031 113.29401397705078 67.78638458251953 113.6807632446289 C 65.21984100341797 117.61981201171875 70.52738189697266 118.4381103515625 76.09420776367188 118.71856689453125" stroke-width="1.0892857313156128" fill="none" stroke="rgb(161, 156, 110)" stroke-opacity="0.61979663" stroke-linecap="round" stroke-linejoin="round"/>
    <path d="M 38.705352783203125 54.506683349609375 C 37.60903549194336 49.897098541259766 34.058563232421875 53.8984489440918 27.144681930541992 53.78190612792969" stroke-width="1.0892857313156128" fill="none" stroke="rgb(112, 68, 25)" stroke-opacity="0.67816126" stroke-linecap="round" stroke-linejoin="round"/>
    <path d="M 86.76145935058594 107.541259765625 C 85.18965148925781 102.71708679199219 82.59989929199219 98.6292724609375 78.1885986328125 96.35990142822266 C 75.08932495117188 92.566650390625 76.7989501953125 93.12296295166016 78.19625091552734 93.21514892578125" stroke-width="1.0892857313156128" fill="none" stroke="rgb(224, 158, 140)" stroke-opacity="0.06984841" stroke-linecap="round" stroke-linejoin="round"/>
    <path d="M 4.961577892303467 20.026107788085938 C 1.4379745721817017 21.9605770111084 6.265913009643555 23.883739471435547 9.226005554199219 28.88382339477539" stroke-width="2.4770939350128174" fill="none" stroke="rgb(0, 255, 255)" stroke-opacity="0.4527041" stroke-linecap="round" stroke-linejoin="round"/>
    <path d="M 16.824865341186523 53.31367492675781 C 20.200782775878906 50.1544303894043 17.150619506835938 48.52811050415039 20.58791732788086 54.162437438964844" stroke-width="1.0892857313156128" fill="none" stroke="rgb(213, 216, 241)" stroke-opacity="0.5062642" stroke-linecap="round" stroke-linejoin="round"/>
    <path d="M 74.76343536376953 55.304866790771484 C 72.07856750488281 54.906280517578125 67.97486877441406 54.83274459838867 68.67765808105469 50.23735046386719 C 66.94758605957031 47.21799087524414 76.18846130371094 50.7509765625 82.34754943847656 55.96397399902344" stroke-width="1.0916674137115479" fill="none" stroke="rgb(255, 108, 134)" stroke-opacity="0.71815944" stroke-linecap="round" stroke-linejoin="round"/>
    <path d="M 71.5898666381836 104.77999114990234 C 77.3494873046875 102.73541259765625 81.2876968383789 99.702392578125 82.2226791381836 101.08123016357422" stroke-width="1.0892857313156128" fill="none" stroke="rgb(180, 142, 115)" stroke-opacity="0.88803166" stroke-linecap="round" stroke-linejoin="round"/>
    <path d="M 70.6396713256836 66.65227508544922 C 73.69649505615234 71.94129943847656 78.59175872802734 70.3268051147461 76.77410125732422 71.20254516601562" stroke-width="1.0892857313156128" fill="none" stroke="rgb(11, 190, 124)" stroke-opacity="0.21149462" stroke-linecap="round" stroke-linejoin="round"/>
    <path d="M 28.307031631469727 107.95940399169922 C 28.47584342956543 106.66309356689453 26.95368194580078 106.52859497070312 24.781856536865234 106.82951354980469 C 22.75629425048828 105.69137573242188 24.322742462158203 104.71173858642578 25.245254516601562 104.83147430419922" stroke-width="1.0892857313156128" fill="none" stroke="rgb(129, 229, 62)" stroke-opacity="0.4193724" stroke-linecap="round" stroke-linejoin="round"/>
    <path d="M 78.81747436523438 108.05438232421875 C 83.02039337158203 107.58320617675781 85.3275375366211 110.32815551757812 88.4990005493164 111.78373718261719 C 88.89910888671875 112.9735107421875 90.36873626708984 110.14225769042969 92.40448760986328 108.48442077636719 C 92.50381469726562 105.01075744628906 91.56350708007812 110.35797119140625 88.92821502685547 114.65766143798828" stroke-width="1.0892857313156128" fill="none" stroke="rgb(88, 79, 188)" stroke-opacity="0.41005883" stroke-linecap="round" stroke-linejoin="round"/>
    <path d="M 87.93973541259766 84.47377014160156 C 86.4558334350586 80.95027923583984 84.97964477539062 80.8357162475586 78.79006958007812 81.82966613769531 C 77.63619995117188 81.04361724853516 75.80672454833984 87.77190399169922 72.23143005371094 91.64936828613281" stroke-width="1.236212134361267" fill="none" stroke="rgb(92, 56, 241)" stroke-opacity="0.5378787" stroke-linecap="round" stroke-linejoin="round"/>
    <path d="M 58.85470199584961 15.862565994262695 C 59.775421142578125 9.912893295288086 58.255615234375 6.4921417236328125 62.65074157714844 2.766648530960083" stroke-width="1.0892857313156128" fill="none" stroke="rgb(42, 147, 124)" stroke-opacity="0.27203426" stroke-linecap="round" stroke-linejoin="round"/>
    <path d="M 0.9942339658737183 47.26466751098633 C 2.163731336593628 51.71482849121094 4.178206920623779 55.193355560302734 7.07122802734375 57.10273742675781 C 8.116552352905273 61.40266036987305 6.380033016204834 60.22911071777344 6.4077982902526855 55.60908508300781" stroke-width="1.090354084968567" fill="none" stroke="rgb(140, 165, 85)" stroke-opacity="0.40800732" stroke-linecap="round" stroke-linejoin="round"/>
    <path d="M 27.270912170410156 17.286184310913086 C 33.07576370239258 12.66651439666748 37.75956726074219 9.674985885620117 41.26367950439453 5.280029773712158 C 45.06596755981445 2.0102736949920654 39.799072265625 4.945465564727783 34.106170654296875 7.724776268005371" stroke-width="1.0892857313156128" fill="none" stroke="rgb(77, 60, 63)" stroke-opacity="0.7298731" stroke-linecap="round" stroke-linejoin="round"/>
    <path d="M 71.1382064819336 117.41000366210938 C 67.81185150146484 114.38819885253906 64.1629409790039 111.5492935180664 70.81034851074219 109.5028305053711" stroke-width="1.0892857313156128" fill="none" stroke="rgb(53, 249, 104)" stroke-opacity="0.64230543" stroke-linecap="round" stroke-linejoin="round"/>
    <path d="M 2.8720929622650146 106.05482482910156 C 6.90690279006958 103.85095977783203 11.620781898498535 102.5398941040039 16.106048583984375 100.15129852294922 C 19.442949295043945 97.43506622314453 13.90536117553711 104.27999877929688 6.617079257965088 108.93054962158203" stroke-width="1.8066024780273438" fill="none" stroke="rgb(255, 15, 30)" stroke-opacity="0.14288814" stroke-linecap="round" stroke-linejoin="round"/>
    <path d="M 82.10944366455078 81.30522918701172 C 80.5116195678711 85.1027603149414 79.6962661743164 90.55597686767578 78.78134155273438 94.87899780273438 C 78.45604705810547 97.85454559326172 75.67562866210938 96.53242492675781 72.1910171508789 94.52760314941406 C 70.07298278808594 93.20001983642578 75.81207275390625 94.75577545166016 84.72705078125 94.470947265625" stroke-width="2.175882339477539" fill="none" stroke="rgb(29, 255, 242)" stroke-opacity="1.0" stroke-linecap="round" stroke-linejoin="round"/>
    <path d="M 3.2904393672943115 61.35913848876953 C 2.4877665042877197 58.488582611083984 1.2166029214859009 54.50884246826172 -1.3383926153182983 52.060115814208984 C -5.9170002937316895 51.56818389892578 -6.121960163116455 49.70036315917969 -6.3269195556640625 47.83253860473633" stroke-width="1.0892857313156128" fill="none" stroke="rgb(110, 63, 227)" stroke-opacity="0.86370325" stroke-linecap="round" stroke-linejoin="round"/>
    <path d="M 83.83524322509766 49.3740348815918 C 87.42109680175781 51.39501953125 87.69546508789062 49.648590087890625 85.93002319335938 43.32853317260742 C 88.79511260986328 42.71196746826172 94.71168518066406 42.25932312011719 103.448974609375 43.56616973876953" stroke-width="1.0892857313156128" fill="none" stroke="rgb(61, 69, 193)" stroke-opacity="0.33843675" stroke-linecap="round" stroke-linejoin="round"/>
    <path d="M 96.20149993896484 57.00114822387695 C 97.548095703125 59.66891860961914 97.63023376464844 62.46574401855469 98.96449279785156 64.56813049316406 C 98.52914428710938 66.5885009765625 100.03903198242188 69.82331085205078 104.19792175292969 69.28753662109375" stroke-width="1.0892857313156128" fill="none" stroke="rgb(36, 25, 128)" stroke-opacity="0.0" stroke-linecap="round" stroke-linejoin="round"/>
    <path d="M 2.976107358932495 60.090267181396484 C -1.558937907218933 62.534767150878906 -3.4966509342193604 67.6245346069336 -1.0780565738677979 62.67036056518555" stroke-width="1.0892857313156128" fill="none" stroke="rgb(57, 28, 236)" stroke-opacity="0.8849883" stroke-linecap="round" stroke-linejoin="round"/>
    <path d="M 83.22014617919922 47.972408294677734 C 79.75782775878906 44.39495086669922 80.58170318603516 45.8289680480957 82.46800231933594 46.37636947631836 C 79.91068267822266 39.48057556152344 76.37550354003906 40.99698257446289 78.08002471923828 46.51762771606445" stroke-width="1.455843448638916" fill="none" stroke="rgb(180, 16, 97)" stroke-opacity="0.26619914" stroke-linecap="round" stroke-linejoin="round"/>
    <path d="M 40.66761779785156 59.80072021484375 C 38.98899841308594 62.138633728027344 35.320533752441406 64.3909912109375 38.64877700805664 70.72055053710938 C 36.167137145996094 69.57207489013672 31.683889389038086 70.08534240722656 34.08872985839844 76.84520721435547 C 39.85563659667969 70.28266906738281 45.58789825439453 68.00543212890625 50.99285888671875 65.95391082763672" stroke-width="1.1744228601455688" fill="none" stroke="rgb(91, 21, 90)" stroke-opacity="0.187145" stroke-linecap="round" stroke-linejoin="round"/>
    <path d="M 22.298460006713867 105.84497833251953 C 27.148897171020508 108.71471405029297 23.684541702270508 111.9556884765625 25.266328811645508 111.12863159179688 C 22.698850631713867 107.00218200683594 24.859657287597656 104.08181762695312 31.928415298461914 99.3048095703125 C 26.344968795776367 96.98590850830078 26.20415496826172 95.31993865966797 26.562368392944336 93.00946044921875" stroke-width="1.0892857313156128" fill="none" stroke="rgb(165, 31, 138)" stroke-opacity="0.20809111" stroke-linecap="round" stroke-linejoin="round"/>
    <path d="M 5.567020416259766 107.34576416015625 C 5.055656909942627 107.50230407714844 5.123001575469971 102.42639923095703 4.638221740722656 106.9943618774414 C 8.331786155700684 107.50841522216797 10.986002922058105 106.44519805908203 17.763051986694336 104.10749816894531" stroke-width="1.4305202960968018" fill="none" stroke="rgb(172, 69, 35)" stroke-opacity="0.21147083" stroke-linecap="round" stroke-linejoin="round"/>
    <path d="M 79.70053100585938 83.19295501708984 C 85.99365997314453 82.29656219482422 89.2017822265625 79.36860656738281 93.49254608154297 73.66282653808594" stroke-width="1.8971906900405884" fill="none" stroke="rgb(156, 163, 127)" stroke-opacity="0.8667827" stroke-linecap="round" stroke-linejoin="round"/>
    <path d="M 66.35083770751953 116.22584533691406 C 65.26904296875 116.88089752197266 64.27603912353516 109.868408203125 69.51683807373047 113.46509552001953 C 65.67137145996094 118.51683807373047 63.49209976196289 121.17726135253906 65.32030487060547 117.08181762695312 C 61.88335418701172 117.25814819335938 64.27987670898438 116.53459167480469 60.164886474609375 110.8554458618164" stroke-width="2.3239846229553223" fill="none" stroke="rgb(177, 255, 65)" stroke-opacity="0.21623924" stroke-linecap="round" stroke-linejoin="round"/>
    <path d="M 40.3211669921875 62.680870056152344 C 37.24631881713867 60.01572799682617 41.57013702392578 59.326087951660156 37.28802490234375 60.47847366333008 C 33.45917510986328 65.27031707763672 29.306873321533203 60.804386138916016 32.7230339050293 61.519248962402344 C 31.270166397094727 61.27390670776367 29.060794830322266 58.02159118652344 33.971038818359375 63.4827995300293" stroke-width="1.7484041452407837" fill="none" stroke="rgb(167, 61, 32)" stroke-opacity="0.7598265" stroke-linecap="round" stroke-linejoin="round"/>
    <path d="M 44.11442184448242 65.26220703125 C 43.502742767333984 62.57070541381836 45.58613586425781 66.33070373535156 45.464576721191406 71.05323791503906 C 40.40880584716797 65.903564453125 39.441802978515625 67.5025405883789 34.94010543823242 67.79727172851562 C 32.06898880004883 69.6161117553711 27.290613174438477 70.04278564453125 25.67916488647461 68.46892547607422" stroke-width="1.2774686813354492" fill="none" stroke="rgb(219, 117, 109)" stroke-opacity="0.2182689" stroke-linecap="round" stroke-linejoin="round"/>
    <path d="M 27.991079330444336 93.64353942871094 C 27.6853084564209 99.44136047363281 21.33436393737793 93.31657409667969 15.605051040649414 91.82341766357422 C 19.511987686157227 82.66780090332031 25.856388092041016 87.9085693359375 22.299030303955078 90.56620788574219 C 18.27571678161621 83.63878631591797 17.353012084960938 84.96747589111328 19.82459259033203 86.75421142578125" stroke-width="1.0892857313156128" fill="none" stroke="rgb(187, 224, 84)" stroke-opacity="0.62931186" stroke-linecap="round" stroke-linejoin="round"/>
    <path d="M 51.736846923828125 63.44718933105469 C 56.48966979980469 68.92871856689453 61.299320220947266 64.67743682861328 67.2135238647461 62.24000549316406" stroke-width="1.0892857313156128" fill="none" stroke="rgb(111, 106, 125)" stroke-opacity="0.052246783" stroke-linecap="round" stroke-linejoin="round"/>
    <path d="M 77.57352447509766 45.837650299072266 C 77.3614273071289 38.485713958740234 79.82378387451172 37.77177047729492 74.03170013427734 33.59854507446289 C 75.57740783691406 39.81352615356445 72.94193267822266 34.273231506347656 67.29320526123047 34.43771743774414" stroke-width="1.202623963356018" fill="none" stroke="rgb(255, 154, 165)" stroke-opacity="0.62866145" stroke-linecap="round" stroke-linejoin="round"/>
    <path d="M 49.478904724121094 65.7884521484375 C 51.0640754699707 73.15433502197266 47.51026916503906 70.94477844238281 51.29663848876953 62.437477111816406" stroke-width="1.3662699460983276" fill="none" stroke="rgb(52, 251, 188)" stroke-opacity="0.70955986" stroke-linecap="round" stroke-linejoin="round"/>
    <path d="M 95.77257537841797 75.61351013183594 C 91.28465270996094 81.2226333618164 92.0144271850586 85.04460144042969 94.84642028808594 78.88288116455078 C 99.60279846191406 75.85897827148438 103.98928833007812 73.51564025878906 104.54605865478516 64.77909088134766" stroke-width="1.0997880697250366" fill="none" stroke="rgb(150, 192, 178)" stroke-opacity="0.60076916" stroke-linecap="round" stroke-linejoin="round"/>
    <path d="M 80.3092041015625 45.257747650146484 C 81.25464630126953 42.46688461303711 80.80599212646484 37.952571868896484 80.60823059082031 36.628604888916016 C 80.5216064453125 32.8852653503418 79.70584106445312 35.0028190612793 77.93475341796875 27.673343658447266" stroke-width="1.0892857313156128" fill="none" stroke="rgb(135, 94, 242)" stroke-opacity="0.16464123" stroke-linecap="round" stroke-linejoin="round"/>
    <path d="M 92.48589324951172 76.80540466308594 C 87.4281234741211 72.19911193847656 93.07305908203125 72.04006958007812 97.43254852294922 73.4725112915039 C 100.50836181640625 73.75991821289062 94.81485748291016 79.24922180175781 90.68968963623047 83.84597778320312" stroke-width="1.0892857313156128" fill="none" stroke="rgb(255, 52, 89)" stroke-opacity="0.44876397" stroke-linecap="round" stroke-linejoin="round"/>
    <path d="M 79.932861328125 46.59507751464844 C 78.05341339111328 51.62158966064453 72.4310073852539 54.95693588256836 65.12504577636719 53.68667984008789 C 67.25597381591797 54.10287094116211 69.07239532470703 58.464271545410156 68.3062973022461 57.684715270996094 C 69.96644592285156 58.25735855102539 76.61734008789062 59.14475631713867 71.58283996582031 59.25711441040039" stroke-width="1.0892857313156128" fill="none" stroke="rgb(129, 200, 125)" stroke-opacity="0.8806077" stroke-linecap="round" stroke-linejoin="round"/>
    <path d="M 94.66806030273438 80.1755599975586 C 90.87741088867188 85.00227355957031 93.07329559326172 84.01176452636719 96.12345886230469 78.77085876464844 C 95.2857437133789 77.79600524902344 99.48070526123047 77.61656951904297 97.86489868164062 76.64397430419922" stroke-width="1.144490361213684" fill="none" stroke="rgb(37, 91, 185)" stroke-opacity="0.47379124" stroke-linecap="round" stroke-linejoin="round"/>
    <path d="M 19.255142211914062 85.47272491455078 C 20.283788681030273 91.19700622558594 26.05354118347168 96.50653839111328 27.192026138305664 89.18284606933594 C 29.9641056060791 86.53530883789062 26.07949447631836 91.33979797363281 27.98004722595215 100.87757873535156 C 22.246158599853516 99.74470520019531 27.458711624145508 99.93235778808594 31.484020233154297 104.45816802978516" stroke-width="1.65944242477417" fill="none" stroke="rgb(87, 65, 4)" stroke-opacity="0.3367512" stroke-linecap="round" stroke-linejoin="round"/>
    <path d="M 111.75481414794922 59.300933837890625 C 109.1738510131836 67.202392578125 104.63167572021484 61.50486755371094 106.0106430053711 58.309837341308594 C 112.42942810058594 60.26093673706055 112.36438751220703 61.18535232543945 105.427978515625 62.124053955078125 C 107.3711166381836 57.74993133544922 102.50180053710938 59.50534439086914 99.3062973022461 54.307315826416016" stroke-width="1.0892857313156128" fill="none" stroke="rgb(0, 149, 148)" stroke-opacity="0.2416982" stroke-linecap="round" stroke-linejoin="round"/>
    <path d="M 48.81208038330078 112.22672271728516 C 56.107421875 111.99093627929688 56.7106819152832 110.81523132324219 52.641326904296875 107.98890686035156 C 55.81584167480469 112.06199645996094 49.53762435913086 112.32524871826172 48.94005584716797 117.90616607666016 C 48.048458099365234 119.02425384521484 52.11940383911133 119.09249877929688 46.7825813293457 118.75772857666016" stroke-width="1.1735613346099854" fill="none" stroke="rgb(59, 197, 129)" stroke-opacity="0.13009122" stroke-linecap="round" stroke-linejoin="round"/>
    <path d="M 6.36419677734375 90.94115447998047 C 8.748258590698242 83.98111724853516 13.485878944396973 83.32666015625 12.580389022827148 83.5091781616211" stroke-width="2.1422653198242188" fill="none" stroke="rgb(150, 185, 67)" stroke-opacity="0.6328021" stroke-linecap="round" stroke-linejoin="round"/>
    <path d="M 119.50909423828125 58.84748840332031 C 125.88943481445312 63.05735397338867 119.39337921142578 62.14805221557617 122.98392486572266 62.763511657714844 C 128.04244995117188 56.584720611572266 134.08938598632812 56.69914627075195 130.06687927246094 57.072105407714844" stroke-width="1.0909892320632935" fill="none" stroke="rgb(30, 215, 141)" stroke-opacity="0.25557184" stroke-linecap="round" stroke-linejoin="round"/>
    <path d="M 121.16619873046875 42.76332473754883 C 115.58918762207031 43.8411979675293 113.57951354980469 43.85298538208008 110.53907012939453 42.741004943847656" stroke-width="1.0892857313156128" fill="none" stroke="rgb(162, 140, 237)" stroke-opacity="0.8241974" stroke-linecap="round" stroke-linejoin="round"/>
    <path d="M 95.9061279296875 52.423587799072266 C 94.53897857666016 51.92495346069336 88.50346374511719 51.09625244140625 88.7854995727539 48.57209396362305 C 91.19097137451172 44.3009033203125 90.60700988769531 48.6843376159668 87.36197662353516 47.7847785949707" stroke-width="1.0892857313156128" fill="none" stroke="rgb(152, 184, 151)" stroke-opacity="0.8151227" stroke-linecap="round" stroke-linejoin="round"/>
    <path d="M 58.40202713012695 39.44566345214844 C 57.494781494140625 38.838417053222656 59.59901809692383 44.09805679321289 63.11582946777344 50.14056396484375 C 58.34700393676758 47.48775100708008 56.572044372558594 41.634761810302734 60.243438720703125 39.753570556640625" stroke-width="1.9061148166656494" fill="none" stroke="rgb(74, 62, 255)" stroke-opacity="0.7252495" stroke-linecap="round" stroke-linejoin="round"/>
    <path d="M 118.53016662597656 7.327866554260254 C 117.07091522216797 14.95872688293457 115.5501480102539 14.228572845458984 116.22879791259766 11.63871955871582" stroke-width="1.0892857313156128" fill="none" stroke="rgb(177, 232, 85)" stroke-opacity="0.65650415" stroke-linecap="round" stroke-linejoin="round"/>
    <path d="M 96.7828598022461 67.05911254882812 C 94.56427764892578 70.94300842285156 92.37506103515625 73.75927734375 87.50225830078125 80.4061050415039 C 86.71316528320312 81.40177917480469 86.20321655273438 79.1097183227539 86.38545227050781 82.63275146484375 C 80.20280456542969 81.25021362304688 78.3232650756836 76.47428894042969 79.75882720947266 78.1771469116211" stroke-width="1.784252405166626" fill="none" stroke="rgb(165, 36, 60)" stroke-opacity="0.5801513" stroke-linecap="round" stroke-linejoin="round"/>
    <path d="M 29.37607192993164 58.841068267822266 C 35.8505744934082 58.15341567993164 38.48509216308594 58.14603805541992 36.992034912109375 54.23432159423828 C 30.632465362548828 56.630043029785156 24.237228393554688 56.32258987426758 24.978391647338867 56.255577087402344" stroke-width="1.717445731163025" fill="none" stroke="rgb(71, 50, 175)" stroke-opacity="0.9565811" stroke-linecap="round" stroke-linejoin="round"/>
    <path d="M 78.40811157226562 121.16077423095703 C 72.38976287841797 120.83316802978516 70.65960693359375 119.68917083740234 64.81084442138672 123.13209533691406 C 58.48663330078125 123.24720001220703 55.6655158996582 126.77690887451172 58.979461669921875 127.77965545654297" stroke-width="1.0892857313156128" fill="none" stroke="rgb(172, 165, 214)" stroke-opacity="1.0" stroke-linecap="round" stroke-linejoin="round"/>
    <path d="M 80.94825744628906 94.08719635009766 C 81.45409393310547 101.5756607055664 76.50281524658203 100.37023162841797 74.571533203125 100.23715209960938 C 72.54850769042969 99.86581420898438 70.82864379882812 98.04231262207031 77.40933227539062 98.47234344482422" stroke-width="1.1667057275772095" fill="none" stroke="rgb(31, 214, 23)" stroke-opacity="0.17973293" stroke-linecap="round" stroke-linejoin="round"/>
    <path d="M 36.14691162109375 14.308832168579102 C 37.85791015625 13.071617126464844 33.54167938232422 9.941198348999023 34.30138397216797 7.020020008087158 C 31.144145965576172 3.4798383712768555 34.1312141418457 0.4376889169216156 30.7073917388916 -4.919521331787109 C 35.46022415161133 0.8242215514183044 39.19047927856445 -1.1555039882659912 33.279842376708984 1.7278496026992798" stroke-width="1.1451481580734253" fill="none" stroke="rgb(112, 78, 101)" stroke-opacity="0.30587587" stroke-linecap="round" stroke-linejoin="round"/>
    <path d="M 106.5919189453125 71.69389343261719 C 106.02849578857422 76.03827667236328 106.09625244140625 73.36122131347656 106.06732940673828 78.48189544677734" stroke-width="1.4404511451721191" fill="none" stroke="rgb(165, 255, 22)" stroke-opacity="0.45669964" stroke-linecap="round" stroke-linejoin="round"/>
  </g>
</svg>
