<?xml version="1.0" ?>
<svg xmlns="http://www.w3.org/2000/svg" version="1.1" width="956.0" height="956.0">
  <defs/>
  <g>
    <path d="M 39.79357147216797 76.43153381347656 C 67.67872619628906 84.54595947265625 97.30475616455078 81.92303466796875 95.96771240234375 78.83927917480469 C 97.00436401367188 73.2635269165039 67.79369354248047 63.14790344238281 45.14002990722656 71.2635726928711" stroke-width="1.3725371360778809" fill="none" stroke="rgb(85, 89, 86)" stroke-opacity="1.0" stroke-linecap="round" stroke-linejoin="round"/>
    <path d="M 68.96431732177734 76.15769958496094 C 67.54228973388672 62.219947814941406 66.29218292236328 46.9636116027832 69.55455017089844 31.476585388183594" stroke-width="1.1892671585083008" fill="none" stroke="rgb(171, 106, 26)" stroke-opacity="0.9719156" stroke-linecap="round" stroke-linejoin="round"/>
    <path d="M 69.28605651855469 49.100257873535156 C 76.12184143066406 46.4410400390625 80.90208435058594 46.207820892333984 81.84947967529297 46.4306755065918" stroke-width="1.3527162075042725" fill="none" stroke="rgb(171, 106, 23)" stroke-opacity="0.9982453" stroke-linecap="round" stroke-linejoin="round"/>
    <path d="M 67.4466552734375 57.06719207763672 C 57.85064697265625 54.41618347167969 58.70601272583008 46.432186126708984 54.883056640625 46.10258865356445" stroke-width="1.3548836708068848" fill="none" stroke="rgb(171, 106, 14)" stroke-opacity="1.0" stroke-linecap="round" stroke-linejoin="round"/>
    <path d="M 71.40673065185547 30.0841064453125 C 71.323486328125 23.21709442138672 76.82405853271484 19.0729923248291 79.2513427734375 18.056663513183594" stroke-width="1.1892671585083008" fill="none" stroke="rgb(171, 105, 24)" stroke-opacity="0.9809108" stroke-linecap="round" stroke-linejoin="round"/>
    <path d="M 70.3793716430664 30.086702346801758 C 66.42234802246094 24.009164810180664 64.47289276123047 23.98118019104004 61.04798126220703 23.732765197753906" stroke-width="1.2160863876342773" fill="none" stroke="rgb(171, 106, 25)" stroke-opacity="0.9963897" stroke-linecap="round" stroke-linejoin="round"/>
    <path d="M 61.82706832885742 23.82378578186035 C 61.72415542602539 23.6978816986084 62.26350402832031 20.88915252685547 61.392303466796875 20.030519485473633 C 60.51011657714844 19.56055450439453 58.831844329833984 19.194480895996094 58.67301559448242 18.66546630859375" stroke-width="1.1892671585083008" fill="none" stroke="rgb(164, 107, 18)" stroke-opacity="1.0" stroke-linecap="round" stroke-linejoin="round"/>
    <path d="M 61.41551971435547 22.870615005493164 C 53.7320671081543 24.483308792114258 53.531558990478516 24.930021286010742 55.01206588745117 25.493043899536133" stroke-width="1.1892671585083008" fill="none" stroke="rgb(171, 106, 12)" stroke-opacity="1.0" stroke-linecap="round" stroke-linejoin="round"/>
    <path d="M 81.6556625366211 46.076080322265625 C 81.640869140625 46.04113006591797 80.411865234375 43.26735305786133 81.09878540039062 42.3388786315918 C 82.22944641113281 42.16400146484375 84.72310638427734 42.38722229003906 84.60997009277344 41.52164840698242" stroke-width="1.3796344995498657" fill="none" stroke="rgb(170, 106, 12)" stroke-opacity="1.0" stroke-linecap="round" stroke-linejoin="round"/>
    <path d="M 82.1567153930664 45.48796081542969 C 89.60274505615234 48.02521896362305 89.90523529052734 47.75434494018555 89.1108169555664 48.24029541015625" stroke-width="1.1892671585083008" fill="none" stroke="rgb(171, 106, 26)" stroke-opacity="0.9715821" stroke-linecap="round" stroke-linejoin="round"/>
    <path d="M 79.88154602050781 18.47321128845215 C 79.40779876708984 18.72365951538086 81.64266967773438 19.456314086914062 82.98411560058594 18.23072052001953 C 83.70429992675781 17.857303619384766 84.32097625732422 20.162353515625 85.57733917236328 20.19205665588379" stroke-width="1.1892671585083008" fill="none" stroke="rgb(164, 108, 25)" stroke-opacity="0.9970234" stroke-linecap="round" stroke-linejoin="round"/>
    <path d="M 69.6951904296875 30.321596145629883 C 69.10895538330078 30.129684448242188 70.92716217041016 27.495147705078125 71.7574462890625 27.26982879638672 C 74.07868957519531 27.050861358642578 75.80511474609375 27.689300537109375 75.66856384277344 27.99156951904297" stroke-width="1.2667977809906006" fill="none" stroke="rgb(171, 106, 14)" stroke-opacity="1.0" stroke-linecap="round" stroke-linejoin="round"/>
    <path d="M 80.78913116455078 18.880332946777344 C 82.4395751953125 11.041463851928711 75.7640151977539 15.046713829040527 75.35792541503906 15.02962589263916" stroke-width="1.1892671585083008" fill="none" stroke="rgb(165, 106, 26)" stroke-opacity="0.9715818" stroke-linecap="round" stroke-linejoin="round"/>
    <path d="M 67.39250183105469 40.31312561035156 C 67.60517120361328 40.32556915283203 67.36304473876953 37.94169235229492 65.08680725097656 38.818946838378906 C 64.1954345703125 38.113582611083984 63.03017807006836 37.3324089050293 64.2043228149414 37.233177185058594" stroke-width="1.3478124141693115" fill="none" stroke="rgb(160, 106, 21)" stroke-opacity="1.0" stroke-linecap="round" stroke-linejoin="round"/>
    <path d="M 54.18003463745117 46.54705810546875 C 53.47227096557617 47.152400970458984 53.953861236572266 45.03591537475586 53.1287727355957 44.43663024902344 C 52.41590118408203 43.70664978027344 51.406028747558594 42.814327239990234 51.69248580932617 41.316864013671875" stroke-width="1.3803030252456665" fill="none" stroke="rgb(171, 107, 12)" stroke-opacity="1.0" stroke-linecap="round" stroke-linejoin="round"/>
    <path d="M 54.94657516479492 47.27811050415039 C 49.53108596801758 50.21158981323242 46.315731048583984 48.6007194519043 46.11589431762695 48.743507385253906" stroke-width="1.3214205503463745" fill="none" stroke="rgb(171, 110, 19)" stroke-opacity="0.981105" stroke-linecap="round" stroke-linejoin="round"/>
    <path d="M 44.701725006103516 49.994117736816406 C 43.85566329956055 53.13217544555664 41.44057846069336 56.65212631225586 38.958560943603516 58.074066162109375" stroke-width="1.1892671585083008" fill="none" stroke="rgb(21, 135, 21)" stroke-opacity="0.97581667" stroke-linecap="round" stroke-linejoin="round"/>
    <path d="M 44.593692779541016 49.76560974121094 C 37.56969451904297 52.08933639526367 39.07735824584961 56.88677978515625 39.83562088012695 57.4054069519043" stroke-width="1.2667981386184692" fill="none" stroke="rgb(25, 133, 8)" stroke-opacity="0.9714694" stroke-linecap="round" stroke-linejoin="round"/>
    <path d="M 45.62342834472656 49.39847946166992 C 40.7409553527832 52.7849006652832 39.22354507446289 54.89408874511719 39.17673110961914 56.6790657043457" stroke-width="1.334650993347168" fill="none" stroke="rgb(82, 236, 58)" stroke-opacity="1.0" stroke-linecap="round" stroke-linejoin="round"/>
    <path d="M 45.527896881103516 49.143455505371094 C 42.691184997558594 50.222923278808594 37.17031478881836 50.42739486694336 35.23223876953125 49.30376434326172" stroke-width="1.3845996856689453" fill="none" stroke="rgb(21, 135, 7)" stroke-opacity="1.0" stroke-linecap="round" stroke-linejoin="round"/>
    <path d="M 44.37934875488281 49.60203552246094 C 38.13956069946289 45.32081985473633 36.04071044921875 49.27284240722656 35.17778778076172 48.63918685913086" stroke-width="1.1892671585083008" fill="none" stroke="rgb(28, 135, 21)" stroke-opacity="0.977366" stroke-linecap="round" stroke-linejoin="round"/>
    <path d="M 45.97026443481445 50.360469818115234 C 42.946651458740234 47.69517517089844 39.11873245239258 47.94922637939453 36.61362838745117 48.494850158691406" stroke-width="1.2436778545379639" fill="none" stroke="rgb(82, 237, 57)" stroke-opacity="1.0" stroke-linecap="round" stroke-linejoin="round"/>
    <path d="M 51.96720504760742 25.029111862182617 C 49.26829147338867 26.299081802368164 45.45210647583008 26.694894790649414 44.07970428466797 24.698091506958008" stroke-width="1.2219719886779785" fill="none" stroke="rgb(22, 135, 17)" stroke-opacity="0.98904985" stroke-linecap="round" stroke-linejoin="round"/>
    <path d="M 51.83139419555664 25.962324142456055 C 45.572574615478516 21.5631103515625 44.18065643310547 25.759868621826172 44.05464172363281 24.766433715820312" stroke-width="1.290506362915039" fill="none" stroke="rgb(21, 135, 8)" stroke-opacity="1.0" stroke-linecap="round" stroke-linejoin="round"/>
    <path d="M 54.02558517456055 26.309843063354492 C 48.20912170410156 24.729833602905273 45.32406997680664 24.21335220336914 43.222713470458984 24.71021842956543" stroke-width="1.4072051048278809" fill="none" stroke="rgb(83, 237, 50)" stroke-opacity="1.0" stroke-linecap="round" stroke-linejoin="round"/>
    <path d="M 53.4249382019043 27.717037200927734 C 52.460357666015625 29.660066604614258 49.96564483642578 33.435916900634766 47.74619674682617 34.62030029296875" stroke-width="1.1892671585083008" fill="none" stroke="rgb(25, 135, 7)" stroke-opacity="0.9871471" stroke-linecap="round" stroke-linejoin="round"/>
    <path d="M 53.05165481567383 27.444387435913086 C 46.13515090942383 31.966642379760742 48.35333251953125 36.05447769165039 48.934722900390625 36.345767974853516" stroke-width="1.3232018947601318" fill="none" stroke="rgb(22, 131, 14)" stroke-opacity="1.0" stroke-linecap="round" stroke-linejoin="round"/>
    <path d="M 54.88530349731445 26.81629180908203 C 50.78718566894531 31.211406707763672 49.96891403198242 33.748600006103516 48.994911193847656 34.51145935058594" stroke-width="1.4220999479293823" fill="none" stroke="rgb(82, 237, 50)" stroke-opacity="1.0" stroke-linecap="round" stroke-linejoin="round"/>
    <path d="M 49.67995834350586 41.348533630371094 C 47.26446533203125 43.23759841918945 43.28055953979492 45.02988815307617 41.084354400634766 45.15415573120117" stroke-width="1.3578366041183472" fill="none" stroke="rgb(21, 125, 11)" stroke-opacity="1.0" stroke-linecap="round" stroke-linejoin="round"/>
    <path d="M 49.668731689453125 41.379207611083984 C 42.69445037841797 38.90373992919922 41.508358001708984 43.761878967285156 40.83378601074219 45.032222747802734" stroke-width="1.2734376192092896" fill="none" stroke="rgb(21, 134, 21)" stroke-opacity="0.9984253" stroke-linecap="round" stroke-linejoin="round"/>
    <path d="M 51.40717315673828 41.26079177856445 C 46.47968673706055 42.576725006103516 44.252601623535156 43.6788330078125 42.62128448486328 44.150123596191406" stroke-width="1.2999180555343628" fill="none" stroke="rgb(82, 237, 58)" stroke-opacity="0.981333" stroke-linecap="round" stroke-linejoin="round"/>
    <path d="M 50.383766174316406 40.426334381103516 C 47.72489547729492 40.636722564697266 44.40601348876953 37.92290115356445 44.178157806396484 35.25004959106445" stroke-width="1.2397245168685913" fill="none" stroke="rgb(30, 129, 15)" stroke-opacity="0.99285525" stroke-linecap="round" stroke-linejoin="round"/>
    <path d="M 51.851531982421875 40.964324951171875 C 48.33147048950195 34.21028137207031 44.05108642578125 35.89729309082031 44.025665283203125 36.0704345703125" stroke-width="1.3890937566757202" fill="none" stroke="rgb(21, 122, 13)" stroke-opacity="1.0" stroke-linecap="round" stroke-linejoin="round"/>
    <path d="M 51.43492889404297 42.22829818725586 C 46.86578369140625 38.2099609375 45.42533493041992 35.54707717895508 43.51408004760742 35.90925979614258" stroke-width="1.3957669734954834" fill="none" stroke="rgb(87, 237, 56)" stroke-opacity="0.9995626" stroke-linecap="round" stroke-linejoin="round"/>
    <path d="M 58.494747161865234 19.30707550048828 C 55.80758285522461 21.035486221313477 51.88544464111328 22.568138122558594 48.79054641723633 21.554338455200195" stroke-width="1.3232532739639282" fill="none" stroke="rgb(31, 135, 7)" stroke-opacity="1.0" stroke-linecap="round" stroke-linejoin="round"/>
    <path d="M 56.761741638183594 19.299772262573242 C 49.81052017211914 16.44001579284668 48.60032653808594 20.43007469177246 49.484466552734375 20.368967056274414" stroke-width="1.3543554544448853" fill="none" stroke="rgb(29, 124, 8)" stroke-opacity="1.0" stroke-linecap="round" stroke-linejoin="round"/>
    <path d="M 58.551570892333984 19.36578941345215 C 52.647212982177734 17.808834075927734 50.93050765991211 18.79785919189453 48.55077362060547 20.74734878540039" stroke-width="1.1892671585083008" fill="none" stroke="rgb(83, 236, 54)" stroke-opacity="0.9763629" stroke-linecap="round" stroke-linejoin="round"/>
    <path d="M 59.173709869384766 16.37032127380371 C 54.92166519165039 15.743928909301758 50.90469741821289 15.183661460876465 51.219295501708984 11.235519409179688" stroke-width="1.1892671585083008" fill="none" stroke="rgb(22, 131, 18)" stroke-opacity="0.9933641" stroke-linecap="round" stroke-linejoin="round"/>
    <path d="M 58.17702102661133 17.17361831665039 C 55.456565856933594 9.091252326965332 51.84406280517578 11.42440128326416 51.69843673706055 12.829667091369629" stroke-width="1.1892671585083008" fill="none" stroke="rgb(27, 126, 20)" stroke-opacity="0.9712009" stroke-linecap="round" stroke-linejoin="round"/>
    <path d="M 58.73493957519531 19.22857666015625 C 54.839683532714844 14.841495513916016 52.49521255493164 13.658029556274414 51.23524856567383 12.469972610473633" stroke-width="1.1892671585083008" fill="none" stroke="rgb(85, 228, 52)" stroke-opacity="0.9702768" stroke-linecap="round" stroke-linejoin="round"/>
    <path d="M 72.02094268798828 13.287193298339844 C 70.04885864257812 15.73140811920166 67.12036895751953 17.993637084960938 64.8092041015625 16.030372619628906" stroke-width="1.1892671585083008" fill="none" stroke="rgb(36, 135, 7)" stroke-opacity="0.97172475" stroke-linecap="round" stroke-linejoin="round"/>
    <path d="M 71.94306945800781 13.138594627380371 C 65.50205993652344 10.813365936279297 64.3131103515625 16.259193420410156 64.15888214111328 17.240787506103516" stroke-width="1.3285402059555054" fill="none" stroke="rgb(21, 128, 22)" stroke-opacity="1.0" stroke-linecap="round" stroke-linejoin="round"/>
    <path d="M 74.52385711669922 13.435434341430664 C 67.71504211425781 13.337187767028809 65.36302185058594 14.268974304199219 63.780574798583984 15.869458198547363" stroke-width="1.3402148485183716" fill="none" stroke="rgb(83, 237, 51)" stroke-opacity="1.0" stroke-linecap="round" stroke-linejoin="round"/>
    <path d="M 74.35193634033203 11.802887916564941 C 71.27871704101562 11.23805046081543 67.34083557128906 9.564809799194336 66.83879852294922 6.68071985244751" stroke-width="1.1892671585083008" fill="none" stroke="rgb(21, 124, 20)" stroke-opacity="0.99145097" stroke-linecap="round" stroke-linejoin="round"/>
    <path d="M 72.8917236328125 13.427972793579102 C 69.76583099365234 4.6246795654296875 66.91764831542969 6.606603622436523 66.80635070800781 6.775954723358154" stroke-width="1.1892671585083008" fill="none" stroke="rgb(27, 132, 21)" stroke-opacity="0.973775" stroke-linecap="round" stroke-linejoin="round"/>
    <path d="M 73.93355560302734 15.096536636352539 C 69.83910369873047 10.514339447021484 67.7151107788086 8.851383209228516 66.39898681640625 8.0039644241333" stroke-width="1.1892671585083008" fill="none" stroke="rgb(92, 236, 53)" stroke-opacity="0.98447466" stroke-linecap="round" stroke-linejoin="round"/>
    <path d="M 89.861328125 50.40824508666992 C 90.08512115478516 53.43781280517578 91.08573150634766 57.525630950927734 93.74447631835938 59.0841064453125" stroke-width="1.3951336145401" fill="none" stroke="rgb(21, 129, 8)" stroke-opacity="1.0" stroke-linecap="round" stroke-linejoin="round"/>
    <path d="M 89.66799926757812 50.76415252685547 C 96.25741577148438 55.09671401977539 93.11846923828125 60.048377990722656 92.95539855957031 58.63473892211914" stroke-width="1.1892671585083008" fill="none" stroke="rgb(26, 136, 8)" stroke-opacity="0.99367505" stroke-linecap="round" stroke-linejoin="round"/>
    <path d="M 89.94560241699219 48.514793395996094 C 93.08251190185547 53.34952163696289 92.6866455078125 55.89420700073242 92.33195495605469 59.14838790893555" stroke-width="1.3948277235031128" fill="none" stroke="rgb(83, 237, 58)" stroke-opacity="0.9958451" stroke-linecap="round" stroke-linejoin="round"/>
    <path d="M 91.02835845947266 49.006752014160156 C 93.93831634521484 50.3914680480957 97.77131652832031 52.41351318359375 99.29624938964844 52.70005416870117" stroke-width="1.1892671585083008" fill="none" stroke="rgb(36, 135, 21)" stroke-opacity="0.97094345" stroke-linecap="round" stroke-linejoin="round"/>
    <path d="M 91.74163818359375 48.81807327270508 C 98.28881072998047 47.02338409423828 98.73643493652344 53.05319595336914 98.85057067871094 53.642311096191406" stroke-width="1.1892671585083008" fill="none" stroke="rgb(22, 122, 21)" stroke-opacity="0.99580306" stroke-linecap="round" stroke-linejoin="round"/>
    <path d="M 89.23110961914062 49.64168167114258 C 94.23580169677734 50.71132278442383 96.68148803710938 51.93423843383789 98.45281219482422 53.09510040283203" stroke-width="1.3009614944458008" fill="none" stroke="rgb(82, 237, 54)" stroke-opacity="0.99380195" stroke-linecap="round" stroke-linejoin="round"/>
    <path d="M 86.06100463867188 21.01162338256836 C 85.94059753417969 24.01961898803711 86.87761688232422 28.175378799438477 88.83979797363281 29.739398956298828" stroke-width="1.3333525657653809" fill="none" stroke="rgb(21, 127, 8)" stroke-opacity="1.0" stroke-linecap="round" stroke-linejoin="round"/>
    <path d="M 85.32164001464844 21.720600128173828 C 92.80473327636719 26.993173599243164 89.8160171508789 30.600950241088867 89.70433807373047 30.64898109436035" stroke-width="1.4208217859268188" fill="none" stroke="rgb(22, 127, 17)" stroke-opacity="1.0" stroke-linecap="round" stroke-linejoin="round"/>
    <path d="M 85.67156219482422 19.274770736694336 C 89.06207275390625 23.85282325744629 89.59342193603516 26.317577362060547 89.29881286621094 28.378543853759766" stroke-width="1.1892671585083008" fill="none" stroke="rgb(82, 233, 52)" stroke-opacity="0.9968637" stroke-linecap="round" stroke-linejoin="round"/>
    <path d="M 87.2945556640625 19.49066925048828 C 89.75450134277344 21.108074188232422 93.1825180053711 23.36750602722168 94.9964370727539 22.78168296813965" stroke-width="1.1892671585083008" fill="none" stroke="rgb(31, 128, 8)" stroke-opacity="0.99241835" stroke-linecap="round" stroke-linejoin="round"/>
    <path d="M 87.58866882324219 20.16144561767578 C 95.34171295166016 18.308767318725586 95.40579223632812 22.320363998413086 95.13927459716797 23.438385009765625" stroke-width="1.1892671585083008" fill="none" stroke="rgb(27, 135, 19)" stroke-opacity="0.9707707" stroke-linecap="round" stroke-linejoin="round"/>
    <path d="M 85.66792297363281 20.13143539428711 C 90.2759017944336 20.8947696685791 92.33446502685547 22.547359466552734 93.88311767578125 23.833786010742188" stroke-width="1.1892671585083008" fill="none" stroke="rgb(83, 230, 52)" stroke-opacity="1.0" stroke-linecap="round" stroke-linejoin="round"/>
    <path d="M 76.13238525390625 30.154733657836914 C 72.9581527709961 32.47502899169922 71.67496490478516 35.935142517089844 73.43492889404297 38.36799621582031" stroke-width="1.2053782939910889" fill="none" stroke="rgb(21, 130, 12)" stroke-opacity="1.0" stroke-linecap="round" stroke-linejoin="round"/>
    <path d="M 74.70697784423828 30.8286075592041 C 77.32554626464844 38.08036422729492 73.58786010742188 39.9552001953125 74.02113342285156 38.8403205871582" stroke-width="1.1892671585083008" fill="none" stroke="rgb(26, 135, 14)" stroke-opacity="0.9956888" stroke-linecap="round" stroke-linejoin="round"/>
    <path d="M 74.43607330322266 27.937423706054688 C 74.75151062011719 34.4279899597168 74.52220153808594 36.68667984008789 72.9405288696289 37.82590866088867" stroke-width="1.1892671585083008" fill="none" stroke="rgb(82, 233, 56)" stroke-opacity="0.9950118" stroke-linecap="round" stroke-linejoin="round"/>
    <path d="M 77.39405822753906 28.490501403808594 C 78.31708526611328 32.209877014160156 79.67338562011719 36.15398406982422 82.76903533935547 35.9230842590332" stroke-width="1.1892671585083008" fill="none" stroke="rgb(28, 131, 12)" stroke-opacity="0.97976214" stroke-linecap="round" stroke-linejoin="round"/>
    <path d="M 75.86180114746094 30.160194396972656 C 84.0542984008789 32.98833465576172 82.97954559326172 37.453468322753906 82.92471313476562 36.04014587402344" stroke-width="1.1892671585083008" fill="none" stroke="rgb(26, 135, 22)" stroke-opacity="0.9741799" stroke-linecap="round" stroke-linejoin="round"/>
    <path d="M 75.91910552978516 28.441360473632812 C 80.71861267089844 31.2509822845459 82.06465148925781 33.445804595947266 82.56881713867188 35.80378341674805" stroke-width="1.206821322441101" fill="none" stroke="rgb(84, 235, 58)" stroke-opacity="0.98241943" stroke-linecap="round" stroke-linejoin="round"/>
    <path d="M 84.03260803222656 40.17687225341797 C 84.02522277832031 37.00778579711914 84.84235382080078 32.94718551635742 86.84190368652344 31.817777633666992" stroke-width="1.4142231941223145" fill="none" stroke="rgb(22, 129, 11)" stroke-opacity="1.0" stroke-linecap="round" stroke-linejoin="round"/>
    <path d="M 85.73348236083984 40.90236282348633 C 91.20189666748047 35.191951751708984 87.24823760986328 31.937461853027344 86.5884780883789 31.214601516723633" stroke-width="1.1892671585083008" fill="none" stroke="rgb(33, 133, 11)" stroke-opacity="0.98214895" stroke-linecap="round" stroke-linejoin="round"/>
    <path d="M 84.45508575439453 42.260440826416016 C 86.19332122802734 35.822532653808594 86.62455749511719 33.188018798828125 87.06617736816406 32.035972595214844" stroke-width="1.1892671585083008" fill="none" stroke="rgb(82, 233, 55)" stroke-opacity="0.993085" stroke-linecap="round" stroke-linejoin="round"/>
    <path d="M 85.29257202148438 40.682064056396484 C 87.0700454711914 38.40757751464844 90.55941009521484 36.103355407714844 93.02467346191406 36.7503547668457" stroke-width="1.1892671585083008" fill="none" stroke="rgb(21, 135, 22)" stroke-opacity="0.9829561" stroke-linecap="round" stroke-linejoin="round"/>
    <path d="M 86.48019409179688 40.595699310302734 C 94.2103042602539 42.58389663696289 94.28541564941406 37.83424377441406 93.17040252685547 36.137996673583984" stroke-width="1.1892671585083008" fill="none" stroke="rgb(23, 120, 21)" stroke-opacity="0.9986433" stroke-linecap="round" stroke-linejoin="round"/>
    <path d="M 83.79513549804688 41.134666442871094 C 88.9109878540039 39.47566223144531 90.95100402832031 37.84657287597656 92.27394104003906 36.31644058227539" stroke-width="1.1892671585083008" fill="none" stroke="rgb(95, 236, 58)" stroke-opacity="0.97402275" stroke-linecap="round" stroke-linejoin="round"/>
    <path d="M 62.34270095825195 36.599849700927734 C 59.83334732055664 38.462947845458984 56.03021240234375 39.966896057128906 54.02901077270508 37.88959884643555" stroke-width="1.298104166984558" fill="none" stroke="rgb(25, 127, 7)" stroke-opacity="1.0" stroke-linecap="round" stroke-linejoin="round"/>
    <path d="M 62.4608039855957 36.257362365722656 C 54.37786865234375 33.974124908447266 52.5742073059082 38.5389289855957 53.568641662597656 37.98286819458008" stroke-width="1.1892671585083008" fill="none" stroke="rgb(28, 135, 15)" stroke-opacity="0.9829663" stroke-linecap="round" stroke-linejoin="round"/>
    <path d="M 64.1912841796875 35.69597625732422 C 58.04563522338867 36.378089904785156 55.48983383178711 37.61774444580078 53.218814849853516 37.78480911254883" stroke-width="1.297091007232666" fill="none" stroke="rgb(82, 237, 45)" stroke-opacity="0.99933463" stroke-linecap="round" stroke-linejoin="round"/>
    <path d="M 61.996002197265625 35.99542236328125 C 58.961544036865234 35.32680130004883 55.322853088378906 33.282440185546875 56.06241226196289 30.706945419311523" stroke-width="1.1892671585083008" fill="none" stroke="rgb(21, 135, 15)" stroke-opacity="1.0" stroke-linecap="round" stroke-linejoin="round"/>
    <path d="M 62.22582244873047 35.38960266113281 C 60.50180435180664 27.17070198059082 56.07704544067383 30.23052406311035 54.82929992675781 29.758668899536133" stroke-width="1.1892671585083008" fill="none" stroke="rgb(22, 126, 16)" stroke-opacity="1.0" stroke-linecap="round" stroke-linejoin="round"/>
    <path d="M 63.92631530761719 35.470645904541016 C 60.305702209472656 30.64250946044922 58.119686126708984 29.40346336364746 55.284297943115234 28.877500534057617" stroke-width="1.1892671585083008" fill="none" stroke="rgb(82, 237, 55)" stroke-opacity="0.9901875" stroke-linecap="round" stroke-linejoin="round"/>
    <path d="M 45.02138137817383 81.8769302368164 C 69.64408874511719 90.3796157836914 89.8897705078125 86.49400329589844 91.72242736816406 86.89598846435547" stroke-width="1.4088735580444336" fill="none" stroke="rgb(221, 62, 32)" stroke-opacity="1.0" stroke-linecap="round" stroke-linejoin="round"/>
    <path d="M 54.337406158447266 121.06195068359375 C 54.57712936401367 120.61642456054688 53.96171951293945 120.7145767211914 53.69567108154297 120.66729736328125 C 53.07121276855469 121.73328399658203 52.565860748291016 122.34944915771484 51.93107223510742 122.16474151611328 C 51.22987747192383 119.71302032470703 49.70214080810547 117.59054565429688 48.17499542236328 115.89801788330078 C 46.95130920410156 114.10203552246094 45.202056884765625 112.89415740966797 43.67022705078125 111.41966247558594 C 44.10806655883789 109.62427520751953 43.414493560791016 107.0714340209961 42.84626770019531 107.53752136230469 C 42.02309799194336 103.93551635742188 41.01006317138672 100.33433532714844 38.951416015625 98.57160186767578 C 39.30524826049805 95.30941009521484 39.068546295166016 89.6907730102539 39.418174743652344 87.88812255859375 C 38.845619201660156 86.10606384277344 40.1263427734375 85.14166259765625 42.19746017456055 85.68669128417969 C 41.7711296081543 83.8729019165039 42.515464782714844 83.15504455566406 43.62371826171875 82.88904571533203 C 44.05998992919922 83.68697357177734 44.492271423339844 83.91231536865234 44.92109298706055 83.77224731445312 C 46.87800598144531 83.87247467041016 47.47010803222656 83.55327606201172 48.68135452270508 84.020263671875 C 52.184852600097656 83.95471954345703 56.100196838378906 82.08063507080078 58.84223556518555 84.00764465332031" stroke-width="1.1892671585083008" fill="none" stroke="rgb(16, 30, 20)" stroke-opacity="0.98698723" stroke-linecap="round" stroke-linejoin="round"/>
    <path d="M 48.01766586303711 7.561244964599609 C 47.87703323364258 6.0937981605529785 47.61135482788086 7.913150310516357 47.577510833740234 8.504990577697754 C 47.57023620605469 9.963943481445312 47.567195892333984 12.283514976501465 47.64125442504883 14.73945140838623 C 46.568756103515625 22.848848342895508 46.43135452270508 30.880002975463867 46.41838073730469 39.30380630493164 C 46.485198974609375 42.432621002197266 46.08974075317383 46.147674560546875 46.33529281616211 47.71841812133789 C 48.71813201904297 55.244293212890625 50.40924072265625 62.9626350402832 50.926124572753906 70.93010711669922 C 51.83793258666992 79.0374755859375 52.390445709228516 86.84624481201172 51.00899887084961 96.61628723144531" stroke-width="1.1892671585083008" fill="none" stroke="rgb(31, 29, 17)" stroke-opacity="0.97026265" stroke-linecap="round" stroke-linejoin="round"/>
    <path d="M 42.676963806152344 34.907264709472656 C 45.34297561645508 42.4952392578125 44.710662841796875 44.573280334472656 46.8719596862793 50.261199951171875 C 49.2421875 52.699790954589844 45.76739501953125 50.15857696533203 50.59051513671875 56.44523239135742 C 48.871952056884766 52.6319694519043 47.02317810058594 57.49677276611328 46.5053825378418 62.72560119628906" stroke-width="1.1892671585083008" fill="none" stroke="rgb(84, 112, 161)" stroke-opacity="0.45158783" stroke-linecap="round" stroke-linejoin="round"/>
    <path d="M 87.55784606933594 31.30525016784668 C 84.96894073486328 25.956995010375977 84.77182006835938 26.85637855529785 86.01307678222656 30.507787704467773 C 80.83146667480469 29.585582733154297 83.58162689208984 30.44934844970703 81.68172454833984 30.169191360473633 C 87.2064208984375 25.384252548217773 80.75657653808594 18.76598358154297 80.32801818847656 25.500959396362305" stroke-width="1.1892671585083008" fill="none" stroke="rgb(80, 97, 226)" stroke-opacity="0.074722014" stroke-linecap="round" stroke-linejoin="round"/>
    <path d="M 94.37948608398438 22.462234497070312 C 90.231689453125 22.23443031311035 96.6176528930664 17.122222900390625 100.82843017578125 13.351601600646973" stroke-width="1.2406703233718872" fill="none" stroke="rgb(186, 153, 24)" stroke-opacity="0.066904664" stroke-linecap="round" stroke-linejoin="round"/>
    <path d="M 86.53394317626953 20.170549392700195 C 80.25804901123047 23.870424270629883 86.75080108642578 26.32061767578125 89.23948669433594 19.64017105102539" stroke-width="1.3311710357666016" fill="none" stroke="rgb(166, 253, 239)" stroke-opacity="0.046575535" stroke-linecap="round" stroke-linejoin="round"/>
    <path d="M 49.36380386352539 35.908512115478516 C 51.531734466552734 35.88897705078125 48.8129768371582 29.780128479003906 46.94115447998047 24.74464988708496 C 41.284934997558594 21.85526466369629 41.34652328491211 20.53706169128418 43.23474884033203 22.56534767150879" stroke-width="1.1892671585083008" fill="none" stroke="rgb(43, 162, 202)" stroke-opacity="0.6959829" stroke-linecap="round" stroke-linejoin="round"/>
    <path d="M 53.60553741455078 38.393226623535156 C 52.71097183227539 37.136634826660156 50.58994674682617 35.476844787597656 45.7171630859375 39.88017272949219 C 40.016090393066406 41.69778060913086 34.282100677490234 41.46614074707031 30.83597755432129 46.910919189453125 C 27.32737159729004 52.677146911621094 25.639022827148438 55.035247802734375 30.604434967041016 49.1763801574707" stroke-width="1.542922019958496" fill="none" stroke="rgb(81, 213, 172)" stroke-opacity="0.45242938" stroke-linecap="round" stroke-linejoin="round"/>
    <path d="M 48.01213073730469 14.6176118850708 C 41.9989128112793 11.118505477905273 40.085365295410156 15.322429656982422 43.509666442871094 8.93912410736084 C 43.695457458496094 4.320641994476318 40.7280387878418 7.508823394775391 35.070735931396484 12.636504173278809" stroke-width="1.2008663415908813" fill="none" stroke="rgb(207, 169, 182)" stroke-opacity="0.35668522" stroke-linecap="round" stroke-linejoin="round"/>
    <path d="M 50.85871887207031 72.28119659423828 C 49.7905158996582 66.91071319580078 54.742977142333984 60.77546310424805 46.810585021972656 54.27199935913086 C 46.18303680419922 60.737239837646484 42.03532791137695 56.819149017333984 35.052242279052734 62.258201599121094" stroke-width="1.5416735410690308" fill="none" stroke="rgb(223, 51, 105)" stroke-opacity="0.52005595" stroke-linecap="round" stroke-linejoin="round"/>
    <path d="M 100.7907943725586 13.487253189086914 C 96.80687713623047 19.073280334472656 102.60697174072266 22.65176773071289 95.77750396728516 20.539777755737305 C 90.96394348144531 24.570165634155273 96.11515045166016 29.705326080322266 100.18853759765625 32.2507438659668" stroke-width="1.3428606986999512" fill="none" stroke="rgb(12, 21, 188)" stroke-opacity="0.49816382" stroke-linecap="round" stroke-linejoin="round"/>
    <path d="M 88.9659652709961 19.347471237182617 C 93.31488800048828 17.726009368896484 93.37925720214844 13.81234359741211 93.69799041748047 17.657888412475586 C 89.268310546875 20.0245304107666 90.13680267333984 26.48985481262207 84.10626220703125 28.014877319335938" stroke-width="1.381064534187317" fill="none" stroke="rgb(210, 108, 65)" stroke-opacity="0.45377633" stroke-linecap="round" stroke-linejoin="round"/>
    <path d="M 43.390506744384766 22.676237106323242 C 48.303733825683594 26.370872497558594 49.2357292175293 29.150304794311523 54.98173904418945 35.89289474487305" stroke-width="1.4767403602600098" fill="none" stroke="rgb(3, 177, 89)" stroke-opacity="0.5428915" stroke-linecap="round" stroke-linejoin="round"/>
    <path d="M 88.82237243652344 20.249120712280273 C 92.49800872802734 26.306167602539062 87.98228454589844 28.013477325439453 92.07398223876953 23.25044059753418 C 95.26569366455078 27.543804168701172 97.28345489501953 25.710952758789062 102.36275482177734 26.10985565185547" stroke-width="1.1892671585083008" fill="none" stroke="rgb(155, 228, 226)" stroke-opacity="1.0" stroke-linecap="round" stroke-linejoin="round"/>
    <path d="M 34.88413619995117 12.217040061950684 C 38.12383270263672 13.04875659942627 37.8963623046875 17.050397872924805 42.18889617919922 13.408773422241211 C 46.7569694519043 10.822444915771484 49.00493240356445 16.817758560180664 49.55702209472656 12.748248100280762" stroke-width="1.1892671585083008" fill="none" stroke="rgb(62, 78, 69)" stroke-opacity="0.18399863" stroke-linecap="round" stroke-linejoin="round"/>
    <path d="M 89.7896499633789 19.916135787963867 C 87.09778594970703 15.120372772216797 82.55943298339844 10.987266540527344 79.80851745605469 4.0477294921875 C 79.192138671875 -1.5792943239212036 82.3318862915039 5.409821510314941 86.86198425292969 4.533409118652344 C 85.07958984375 4.791162490844727 82.93643188476562 9.614848136901855 88.84667205810547 5.019974231719971" stroke-width="1.386956810951233" fill="none" stroke="rgb(157, 242, 58)" stroke-opacity="0.3625329" stroke-linecap="round" stroke-linejoin="round"/>
    <path d="M 35.64006042480469 63.042903900146484 C 30.144969940185547 57.686134338378906 25.763696670532227 58.046241760253906 25.98197364807129 59.76830291748047 C 26.677350997924805 59.89464569091797 24.413148880004883 55.75223159790039 17.515853881835938 58.62360382080078" stroke-width="1.1892671585083008" fill="none" stroke="rgb(247, 229, 95)" stroke-opacity="0.6397281" stroke-linecap="round" stroke-linejoin="round"/>
    <path d="M 46.721412658691406 62.880126953125 C 50.975120544433594 56.44526672363281 48.931148529052734 62.29977798461914 49.432525634765625 67.74998474121094 C 54.31657028198242 62.15089416503906 54.62432861328125 61.255577087402344 59.086856842041016 58.78969192504883 C 55.216941833496094 63.19575119018555 49.948116302490234 68.31776428222656 46.69466781616211 66.39982604980469" stroke-width="1.3170616626739502" fill="none" stroke="rgb(253, 147, 120)" stroke-opacity="0.18515076" stroke-linecap="round" stroke-linejoin="round"/>
    <path d="M 92.49252319335938 126.75446319580078 C 99.37633514404297 123.01091766357422 98.76712799072266 127.62557983398438 95.28038024902344 123.1776123046875 C 98.94976043701172 115.46227264404297 103.59555053710938 112.16671752929688 102.60578155517578 107.55841064453125 C 100.8788833618164 101.98658752441406 104.02008056640625 105.65243530273438 110.33842468261719 107.2950210571289" stroke-width="1.1892671585083008" fill="none" stroke="rgb(173, 69, 140)" stroke-opacity="0.32078984" stroke-linecap="round" stroke-linejoin="round"/>
    <path d="M 50.79669189453125 122.74444580078125 C 48.62866973876953 124.50251007080078 49.20677185058594 124.1730728149414 48.14822006225586 124.66057586669922 C 50.80193328857422 119.12057495117188 51.94017791748047 121.78373718261719 51.282264709472656 117.08775329589844 C 57.764156341552734 109.51348876953125 52.14090347290039 110.03239440917969 51.57834243774414 115.69975280761719" stroke-width="1.1892671585083008" fill="none" stroke="rgb(90, 137, 182)" stroke-opacity="0.0" stroke-linecap="round" stroke-linejoin="round"/>
    <path d="M 71.82070922851562 27.87021255493164 C 72.54507446289062 25.419605255126953 69.88249969482422 27.926607131958008 69.56884765625 26.822011947631836" stroke-width="1.1892671585083008" fill="none" stroke="rgb(30, 121, 126)" stroke-opacity="0.44711512" stroke-linecap="round" stroke-linejoin="round"/>
    <path d="M 41.90979766845703 51.62364196777344 C 41.73920822143555 55.966251373291016 39.59470748901367 52.48261260986328 41.886165618896484 51.02593994140625 C 42.72422409057617 45.491146087646484 38.34597396850586 46.9940299987793 42.138450622558594 40.83345413208008 C 42.7720947265625 41.26988220214844 44.34389877319336 39.87480163574219 49.23923873901367 45.09486389160156" stroke-width="1.2877792119979858" fill="none" stroke="rgb(212, 201, 159)" stroke-opacity="0.20880517" stroke-linecap="round" stroke-linejoin="round"/>
    <path d="M 67.79125213623047 5.283665657043457 C 73.14226531982422 1.826905608177185 73.13980865478516 3.3381621837615967 77.36625671386719 -0.030886894091963768" stroke-width="1.1943618059158325" fill="none" stroke="rgb(144, 18, 204)" stroke-opacity="0.31616908" stroke-linecap="round" stroke-linejoin="round"/>
    <path d="M 113.57603454589844 12.132222175598145 C 115.30709838867188 16.53944969177246 117.64503479003906 17.582067489624023 121.0663070678711 23.72832489013672" stroke-width="1.4907397031784058" fill="none" stroke="rgb(78, 207, 204)" stroke-opacity="0.4416688" stroke-linecap="round" stroke-linejoin="round"/>
    <path d="M 123.10525512695312 64.58784484863281 C 117.83289337158203 58.45196533203125 118.21739196777344 54.612247467041016 114.55108642578125 59.040653228759766 C 108.93462371826172 60.65864181518555 107.38646697998047 65.87482452392578 105.76883697509766 67.0655746459961 C 106.67796325683594 60.26231002807617 109.79852294921875 63.98165512084961 105.25829315185547 68.04845428466797" stroke-width="1.1892671585083008" fill="none" stroke="rgb(49, 202, 188)" stroke-opacity="0.80420434" stroke-linecap="round" stroke-linejoin="round"/>
    <path d="M 28.437402725219727 53.71770095825195 C 33.756439208984375 49.9959602355957 31.590808868408203 46.54738235473633 27.229578018188477 39.719940185546875 C 29.104124069213867 44.30390167236328 35.17388916015625 44.59443283081055 32.5780029296875 43.31083297729492 C 38.87173080444336 49.87445831298828 42.23875427246094 49.241878509521484 42.08547592163086 54.12656021118164" stroke-width="1.1892671585083008" fill="none" stroke="rgb(9, 16, 51)" stroke-opacity="0.88756675" stroke-linecap="round" stroke-linejoin="round"/>
    <path d="M 129.28135681152344 95.11489868164062 C 131.7963409423828 100.42589569091797 136.05694580078125 104.39862060546875 130.7516632080078 108.22727966308594 C 136.56149291992188 106.59539794921875 132.59873962402344 107.59475708007812 133.8438720703125 111.76527404785156 C 132.41961669921875 106.22016906738281 133.84410095214844 110.5959701538086 127.42530822753906 113.80831909179688" stroke-width="1.446370244026184" fill="none" stroke="rgb(246, 8, 126)" stroke-opacity="0.004522187" stroke-linecap="round" stroke-linejoin="round"/>
    <path d="M 26.87291145324707 54.07242202758789 C 31.56621551513672 59.73194122314453 36.37922286987305 55.97859573364258 37.27614974975586 50.046913146972656 C 39.28091049194336 47.43489074707031 43.359798431396484 48.22185516357422 40.10688018798828 48.46432113647461 C 37.76347351074219 52.322540283203125 31.52121925354004 52.534114837646484 32.11199951171875 54.04917526245117" stroke-width="1.5447081327438354" fill="none" stroke="rgb(178, 35, 79)" stroke-opacity="0.64194083" stroke-linecap="round" stroke-linejoin="round"/>
    <path d="M 35.563358306884766 11.028807640075684 C 32.56625747680664 15.17103099822998 38.37020492553711 8.273749351501465 32.904266357421875 8.697297096252441 C 28.73689842224121 9.18876838684082 33.90951156616211 4.8836750984191895 34.83928680419922 9.649389266967773 C 35.66210174560547 3.220968246459961 30.630399703979492 5.876956462860107 32.42061233520508 -0.5242498517036438" stroke-width="1.502426028251648" fill="none" stroke="rgb(120, 189, 201)" stroke-opacity="0.16599211" stroke-linecap="round" stroke-linejoin="round"/>
    <path d="M 131.73854064941406 118.5124740600586 C 128.39503479003906 113.68663024902344 130.05982971191406 114.15026092529297 135.65676879882812 108.81739807128906 C 134.75502014160156 115.02760314941406 131.75787353515625 109.9863510131836 127.98503112792969 105.82674407958984" stroke-width="1.4661040306091309" fill="none" stroke="rgb(158, 35, 33)" stroke-opacity="0.8740615" stroke-linecap="round" stroke-linejoin="round"/>
    <path d="M 108.52847290039062 46.87649917602539 C 112.32664489746094 49.62539291381836 116.66939544677734 52.95263671875 111.36371612548828 51.566001892089844 C 105.98739624023438 51.57012176513672 105.25735473632812 58.325469970703125 106.52436065673828 64.48748779296875 C 106.16332244873047 60.125423431396484 104.42955017089844 56.83302307128906 110.16606903076172 56.955039978027344" stroke-width="1.1902921199798584" fill="none" stroke="rgb(226, 155, 220)" stroke-opacity="0.83346635" stroke-linecap="round" stroke-linejoin="round"/>
    <path d="M 55.35356140136719 15.384034156799316 C 49.421905517578125 18.637203216552734 44.12891387939453 13.670646667480469 42.43573760986328 13.071274757385254 C 50.207759857177734 13.554612159729004 45.635414123535156 14.30015754699707 44.676918029785156 9.620752334594727" stroke-width="1.4505060911178589" fill="none" stroke="rgb(205, 107, 108)" stroke-opacity="0.73525214" stroke-linecap="round" stroke-linejoin="round"/>
    <path d="M 38.8624382019043 122.7805404663086 C 40.160072326660156 117.01615905761719 41.46110916137695 111.5751724243164 44.97400665283203 106.95214080810547" stroke-width="1.4608771800994873" fill="none" stroke="rgb(224, 75, 112)" stroke-opacity="0.65492725" stroke-linecap="round" stroke-linejoin="round"/>
    <path d="M 113.84850311279297 111.90826416015625 C 114.67223358154297 109.75641632080078 111.19159698486328 115.73873138427734 108.30486297607422 114.72003173828125 C 112.04560852050781 116.86247253417969 108.60504150390625 110.40918731689453 101.4158706665039 110.7293701171875 C 103.88346862792969 105.10833740234375 102.4900894165039 103.34085083007812 98.08206176757812 104.41336822509766" stroke-width="1.1892671585083008" fill="none" stroke="rgb(246, 201, 233)" stroke-opacity="0.1705309" stroke-linecap="round" stroke-linejoin="round"/>
  </g>
</svg>
