<?xml version="1.0" ?>
<svg xmlns="http://www.w3.org/2000/svg" version="1.1" width="122.0" height="122.0">
  <defs/>
  <g>
    <path d="M 65.25233459472656 25.32757568359375 C 65.75970458984375 24.86469268798828 66.26826477050781 24.50821876525879 67.17790222167969 24.566131591796875 C 67.00558471679688 24.130809783935547 66.15401458740234 22.60087013244629 66.75337219238281 22.532180786132812 C 69.0324935913086 21.35892105102539 72.59232330322266 18.766321182250977 74.21014404296875 23.10608673095703 C 77.80811309814453 26.649145126342773 79.01752471923828 36.06636047363281 79.04349517822266 41.10568618774414 C 78.29849243164062 45.34672927856445 76.37992858886719 45.0471076965332 76.68428802490234 47.65026092529297 C 75.94586181640625 49.15280532836914 75.64938354492188 52.093788146972656 75.19835662841797 54.24056625366211 C 75.18475341796875 56.185333251953125 74.45362854003906 56.81689453125 71.36634826660156 57.14354705810547 C 69.27129364013672 58.24462890625 66.40445709228516 60.695228576660156 62.845062255859375 61.95277786254883 C 59.54857635498047 63.40623474121094 56.78589630126953 64.89866638183594 54.035057067871094 65.6135482788086 C 52.39951705932617 67.46436309814453 48.90641784667969 66.93788146972656 49.082862854003906 68.26382446289062 C 50.38301467895508 69.92140197753906 53.47890090942383 73.20379638671875 55.576026916503906 77.48029327392578 C 58.64527893066406 80.75720977783203 58.33115768432617 87.12074279785156 59.14159393310547 93.46979522705078" stroke-width="1.9209040403366089" fill="none" stroke="rgb(49, 33, 13)" stroke-opacity="0.8410968" stroke-linecap="round" stroke-linejoin="round"/>
    <path d="M 73.44577026367188 23.66701316833496 C 76.42291259765625 19.69864845275879 80.50550842285156 17.383453369140625 82.73011779785156 13.231599807739258 C 85.8843002319336 10.70362663269043 80.76678466796875 12.570596694946289 74.29674530029297 14.43531608581543" stroke-width="1.654742956161499" fill="none" stroke="rgb(138, 251, 231)" stroke-opacity="0.29088938" stroke-linecap="round" stroke-linejoin="round"/>
    <path d="M 75.43995666503906 40.76028823852539 C 73.35982513427734 41.208396911621094 72.11090087890625 40.91751480102539 70.83380126953125 40.688621520996094 C 69.62154388427734 40.37728500366211 75.25262451171875 45.37508773803711 81.66590881347656 49.593528747558594" stroke-width="2.1768691539764404" fill="none" stroke="rgb(31, 255, 217)" stroke-opacity="0.8468632" stroke-linecap="round" stroke-linejoin="round"/>
    <path d="M 55.522701263427734 78.8983383178711 C 56.78260040283203 77.47059631347656 58.60973358154297 79.2222671508789 63.466651916503906 76.47003173828125" stroke-width="1.1561483144760132" fill="none" stroke="rgb(69, 105, 117)" stroke-opacity="0.8197972" stroke-linecap="round" stroke-linejoin="round"/>
    <path d="M 64.18694305419922 62.601810455322266 C 71.12899017333984 65.259521484375 71.01823425292969 67.61921691894531 63.38536071777344 70.03248596191406" stroke-width="1.0892857313156128" fill="none" stroke="rgb(125, 239, 119)" stroke-opacity="0.35307184" stroke-linecap="round" stroke-linejoin="round"/>
    <path d="M 78.3189468383789 42.1851806640625 C 80.06014251708984 42.47065734863281 78.48932647705078 36.92229461669922 78.36087799072266 32.991661071777344" stroke-width="1.0892857313156128" fill="none" stroke="rgb(52, 10, 120)" stroke-opacity="0.17275587" stroke-linecap="round" stroke-linejoin="round"/>
    <path d="M 65.3227767944336 26.406200408935547 C 63.3530387878418 25.972835540771484 61.61476516723633 25.090740203857422 59.26821517944336 25.05035972595215 C 57.0549201965332 24.93828773498535 56.86790084838867 22.79092788696289 56.499141693115234 21.453615188598633" stroke-width="1.0892857313156128" fill="none" stroke="rgb(103, 212, 183)" stroke-opacity="0.42757863" stroke-linecap="round" stroke-linejoin="round"/>
    <path d="M 74.12574768066406 49.65393829345703 C 71.23088836669922 49.01350784301758 65.54627227783203 49.34243392944336 72.5286865234375 49.8431396484375" stroke-width="1.2620413303375244" fill="none" stroke="rgb(167, 255, 202)" stroke-opacity="0.41452116" stroke-linecap="round" stroke-linejoin="round"/>
    <path d="M 63.66004943847656 61.9243278503418 C 65.6539306640625 58.698299407958984 67.6855697631836 64.55663299560547 62.72319793701172 66.54239654541016" stroke-width="1.1985951662063599" fill="none" stroke="rgb(29, 223, 180)" stroke-opacity="0.47173208" stroke-linecap="round" stroke-linejoin="round"/>
    <path d="M 75.6335220336914 50.828163146972656 C 73.10540771484375 53.253753662109375 69.93709564208984 55.0304069519043 68.02243041992188 57.02922058105469 C 65.52745819091797 59.50645065307617 65.99673461914062 53.66328430175781 66.46179962158203 48.1865234375" stroke-width="1.0964000225067139" fill="none" stroke="rgb(92, 159, 127)" stroke-opacity="0.18970384" stroke-linecap="round" stroke-linejoin="round"/>
    <path d="M 63.67789077758789 70.68360900878906 C 66.90767669677734 67.31982421875 69.34037017822266 63.07936477661133 69.10564422607422 59.102874755859375 C 68.35595703125 54.878360748291016 65.72311401367188 50.66360092163086 63.715721130371094 45.42875671386719 C 61.497615814208984 41.224952697753906 62.3404655456543 48.053245544433594 63.70734405517578 54.587581634521484" stroke-width="1.6901744604110718" fill="none" stroke="rgb(29, 226, 220)" stroke-opacity="0.22446026" stroke-linecap="round" stroke-linejoin="round"/>
    <path d="M 63.84190368652344 69.44635772705078 C 61.41380310058594 62.63511657714844 63.50437545776367 60.1734504699707 62.62301254272461 52.092979431152344" stroke-width="1.4550119638442993" fill="none" stroke="rgb(216, 37, 101)" stroke-opacity="0.60142237" stroke-linecap="round" stroke-linejoin="round"/>
    <path d="M 78.84941101074219 34.81968688964844 C 80.86478424072266 27.54816246032715 79.20147705078125 32.43042755126953 79.11644744873047 31.02288246154785" stroke-width="1.5507838726043701" fill="none" stroke="rgb(155, 46, 19)" stroke-opacity="0.1911119" stroke-linecap="round" stroke-linejoin="round"/>
    <path d="M 79.14453887939453 34.26060485839844 C 82.26753997802734 33.3579216003418 84.49359893798828 31.380979537963867 85.70596313476562 28.402029037475586 C 87.95502471923828 26.482627868652344 86.70101928710938 25.88627815246582 85.48657989501953 23.570859909057617" stroke-width="2.258187770843506" fill="none" stroke="rgb(233, 78, 171)" stroke-opacity="0.042789742" stroke-linecap="round" stroke-linejoin="round"/>
    <path d="M 64.64320373535156 76.6140365600586 C 67.14273834228516 73.5693130493164 70.80850219726562 77.25068664550781 67.90373992919922 72.69621276855469" stroke-width="1.6928622722625732" fill="none" stroke="rgb(61, 39, 0)" stroke-opacity="0.20218122" stroke-linecap="round" stroke-linejoin="round"/>
    <path d="M 62.748138427734375 65.76881408691406 C 64.77416229248047 72.32470703125 66.60454559326172 79.47183227539062 65.79544067382812 81.61270141601562 C 63.18121337890625 83.894775390625 57.80588912963867 82.00662231445312 53.19041061401367 79.24691009521484 C 47.45283126831055 77.72889709472656 48.862125396728516 74.99714660644531 51.06220626831055 72.64857482910156" stroke-width="1.3568503856658936" fill="none" stroke="rgb(50, 170, 26)" stroke-opacity="0.14629629" stroke-linecap="round" stroke-linejoin="round"/>
    <path d="M 65.15106201171875 75.5498275756836 C 63.52614974975586 75.9682388305664 63.08928298950195 76.94798278808594 62.101806640625 77.23849487304688 C 61.083038330078125 76.65562438964844 60.08992385864258 72.01766204833984 60.19441604614258 67.75662994384766" stroke-width="1.0892857313156128" fill="none" stroke="rgb(73, 164, 136)" stroke-opacity="0.507169" stroke-linecap="round" stroke-linejoin="round"/>
    <path d="M 113.6845932006836 73.87332153320312 C 112.9073715209961 73.69963073730469 112.37210845947266 72.37726593017578 112.55474853515625 70.13028717041016 C 112.71646118164062 67.4634017944336 114.17298126220703 63.05607986450195 115.63626098632812 58.666419982910156 C 116.86572265625 53.87843704223633 110.41764068603516 61.372764587402344 103.93772888183594 68.79573059082031" stroke-width="1.2093952894210815" fill="none" stroke="rgb(170, 255, 0)" stroke-opacity="0.3264332" stroke-linecap="round" stroke-linejoin="round"/>
    <path d="M 21.691211700439453 58.482086181640625 C 23.305198669433594 57.83354949951172 25.032840728759766 57.29399871826172 27.139360427856445 57.18379592895508 C 27.725427627563477 56.379554748535156 24.48292350769043 56.71405792236328 20.21417236328125 55.958465576171875" stroke-width="1.1586787700653076" fill="none" stroke="rgb(91, 190, 51)" stroke-opacity="0.11674857" stroke-linecap="round" stroke-linejoin="round"/>
    <path d="M 11.051071166992188 86.07727813720703 C 9.361717224121094 85.94279479980469 6.484060287475586 85.8179702758789 2.890320301055908 86.77078247070312 C 1.2130389213562012 86.68155670166016 4.929535388946533 79.60627746582031 7.9402618408203125 71.70763397216797" stroke-width="1.0892857313156128" fill="none" stroke="rgb(129, 35, 74)" stroke-opacity="0.66282433" stroke-linecap="round" stroke-linejoin="round"/>
    <path d="M 74.89643859863281 89.77017211914062 C 68.92832946777344 92.29755401611328 64.2386245727539 97.30081176757812 67.79935455322266 94.68314361572266" stroke-width="1.0892857313156128" fill="none" stroke="rgb(129, 226, 189)" stroke-opacity="0.738098" stroke-linecap="round" stroke-linejoin="round"/>
    <path d="M 66.74585723876953 68.55099487304688 C 70.1065673828125 76.91258239746094 66.82197570800781 76.17534637451172 61.2977294921875 75.8989486694336" stroke-width="1.4795403480529785" fill="none" stroke="rgb(176, 132, 133)" stroke-opacity="0.45051804" stroke-linecap="round" stroke-linejoin="round"/>
    <path d="M 84.69850158691406 -1.545740008354187 C 84.81927490234375 -1.8153599500656128 84.9388427734375 -2.0837600231170654 83.84693908691406 -1.1882801055908203 C 82.75382232666016 -0.29280009865760803 80.4492416381836 1.7665599584579468 78.54808044433594 4.089678764343262 C 76.29534149169922 6.323931694030762 75.53369903564453 11.175359725952148 74.78182220458984 16.021217346191406" stroke-width="1.0892857313156128" fill="none" stroke="rgb(105, 212, 160)" stroke-opacity="0.0" stroke-linecap="round" stroke-linejoin="round"/>
    <path d="M 68.0099868774414 75.66526794433594 C 74.32098388671875 71.53784942626953 77.49238586425781 72.04398345947266 83.41040802001953 68.62939453125" stroke-width="2.53869366645813" fill="none" stroke="rgb(250, 62, 67)" stroke-opacity="0.44831976" stroke-linecap="round" stroke-linejoin="round"/>
    <path d="M 104.90898132324219 80.68794250488281 C 107.83100128173828 76.630859375 109.5344009399414 72.44088745117188 108.51827239990234 71.56182861328125 C 108.18291473388672 72.21192169189453 103.56737518310547 76.35326385498047 98.33071899414062 79.99777221679688 C 93.70993041992188 83.9724349975586 99.53783416748047 86.42374420166016 105.64795684814453 88.92386627197266" stroke-width="1.1850500106811523" fill="none" stroke="rgb(155, 96, 116)" stroke-opacity="0.42347535" stroke-linecap="round" stroke-linejoin="round"/>
    <path d="M 115.34487915039062 28.5091495513916 C 116.41560363769531 19.899782180786133 108.8196029663086 19.2357234954834 107.71578979492188 28.230995178222656" stroke-width="1.0892857313156128" fill="none" stroke="rgb(156, 39, 255)" stroke-opacity="0.7433868" stroke-linecap="round" stroke-linejoin="round"/>
    <path d="M 109.75569915771484 113.1738052368164 C 107.21403503417969 108.22830200195312 104.28749084472656 103.6974868774414 104.89060974121094 103.60346221923828 C 105.11221313476562 103.7155990600586 109.92967224121094 107.2154769897461 115.6866455078125 110.18402862548828 C 120.43305206298828 113.99439239501953 113.25601959228516 114.42462158203125 104.9930191040039 115.60362243652344" stroke-width="1.1941741704940796" fill="none" stroke="rgb(167, 89, 234)" stroke-opacity="0.118746236" stroke-linecap="round" stroke-linejoin="round"/>
    <path d="M 80.14485931396484 109.9732666015625 C 83.71034240722656 110.52885437011719 88.00288391113281 110.25624084472656 88.6280517578125 110.90215301513672 C 89.25215148925781 112.46080017089844 87.04047393798828 112.93878936767578 84.94659423828125 112.82467651367188 C 82.84242248535156 113.42399597167969 85.2495346069336 118.95161437988281 87.43314361572266 124.43636322021484" stroke-width="1.1674007177352905" fill="none" stroke="rgb(226, 210, 228)" stroke-opacity="0.02531045" stroke-linecap="round" stroke-linejoin="round"/>
    <path d="M 73.54080200195312 90.3302993774414 C 77.964599609375 88.18578338623047 82.35884094238281 85.98225402832031 86.62570190429688 83.93785858154297 C 91.7594223022461 82.1314926147461 93.12474060058594 78.41657257080078 93.24852752685547 74.97071075439453" stroke-width="1.0892857313156128" fill="none" stroke="rgb(160, 203, 184)" stroke-opacity="0.586451" stroke-linecap="round" stroke-linejoin="round"/>
    <path d="M 6.2375264167785645 86.04486083984375 C 6.199540615081787 85.2936782836914 9.737171173095703 86.66967010498047 20.67873764038086 83.33850860595703" stroke-width="1.6234463453292847" fill="none" stroke="rgb(46, 20, 255)" stroke-opacity="0.7193705" stroke-linecap="round" stroke-linejoin="round"/>
    <path d="M 119.1594009399414 -3.183244228363037 C 119.29839324951172 -1.9284452199935913 119.25281524658203 -0.646250307559967 118.97314453125 1.4227323532104492 C 119.04582214355469 2.587009906768799 119.43665313720703 1.3512133359909058 120.02342224121094 -0.003350677667185664" stroke-width="1.1636583805084229" fill="none" stroke="rgb(169, 241, 81)" stroke-opacity="0.25524163" stroke-linecap="round" stroke-linejoin="round"/>
    <path d="M 94.64837646484375 6.648639678955078 C 98.1019058227539 9.282869338989258 93.6645736694336 8.665053367614746 94.04891204833984 16.622085571289062" stroke-width="1.0892857313156128" fill="none" stroke="rgb(154, 193, 121)" stroke-opacity="0.22992723" stroke-linecap="round" stroke-linejoin="round"/>
    <path d="M 78.89788818359375 62.984352111816406 C 81.09617614746094 65.16397094726562 83.38257598876953 66.21135711669922 86.5030746459961 66.56718444824219 C 88.44609832763672 68.14752960205078 85.97756958007812 63.70907974243164 83.66238403320312 59.05869674682617" stroke-width="1.0892857313156128" fill="none" stroke="rgb(37, 6, 255)" stroke-opacity="0.6991046" stroke-linecap="round" stroke-linejoin="round"/>
    <path d="M 41.7000617980957 13.165066719055176 C 42.67576217651367 13.749119758605957 41.39815139770508 13.785463333129883 41.041507720947266 13.944753646850586 C 40.53437423706055 14.027253150939941 40.13238525390625 14.291951179504395 39.51584243774414 14.354486465454102 C 37.37831497192383 15.48300838470459 35.943275451660156 17.566139221191406 34.20919418334961 19.012666702270508 C 33.285865783691406 21.56511878967285 33.413822174072266 24.973251342773438 33.18803787231445 28.365285873413086 C 33.19645309448242 29.376480102539062 33.03366470336914 31.828998565673828 33.22407913208008 34.13035202026367 C 34.23294448852539 35.34872817993164 34.26084899902344 36.732723236083984 34.51524353027344 38.36088943481445 C 34.737274169921875 39.97423553466797 37.08294677734375 42.04042434692383 38.0365104675293 43.308555603027344 C 39.5109748840332 46.90056610107422 41.906646728515625 49.529380798339844 45.3432502746582 51.7607536315918 C 48.065486907958984 54.05137634277344 48.28609085083008 55.85087585449219 48.31695556640625 60.97978210449219 C 48.32826614379883 61.49420166015625 49.501380920410156 62.04881286621094 49.28565979003906 62.535438537597656 C 48.8113899230957 63.51273727416992 47.02983093261719 63.46634292602539 46.28726577758789 64.23094940185547 C 44.77804946899414 67.07096099853516 42.579898834228516 69.25373840332031 40.12490463256836 71.07862091064453 C 35.90835189819336 73.44549560546875 35.285606384277344 74.30428314208984 31.13568115234375 76.69171142578125 C 29.89122200012207 78.38082885742188 28.040266036987305 79.35082244873047 26.45418930053711 80.30650329589844" stroke-width="1.0892857313156128" fill="none" stroke="rgb(25, 28, 18)" stroke-opacity="0.9811203" stroke-linecap="round" stroke-linejoin="round"/>
    <path d="M 37.16411209106445 116.21812438964844 C 37.135807037353516 116.58695983886719 37.10078430175781 113.5247573852539 37.669761657714844 113.52473449707031 C 37.82578659057617 106.60132598876953 37.82837677001953 99.87810516357422 37.81804656982422 93.15945434570312 C 37.79830551147461 71.7220230102539 37.70418930053711 50.28104782104492 37.736183166503906 28.516075134277344" stroke-width="1.093306303024292" fill="none" stroke="rgb(28, 18, 20)" stroke-opacity="0.98034465" stroke-linecap="round" stroke-linejoin="round"/>
    <path d="M 57.695613861083984 25.363075256347656 C 57.352149963378906 25.38555145263672 56.330970764160156 25.36312484741211 55.99057388305664 26.286067962646484 C 54.672035217285156 26.32888412475586 53.35295867919922 26.425609588623047 52.336727142333984 25.54420280456543 C 50.465694427490234 25.36764907836914 47.47989273071289 25.746288299560547 45.263851165771484 25.31151580810547 C 42.654483795166016 24.516366958618164 40.991146087646484 23.465295791625977 39.09077453613281 22.52202033996582 C 38.56231689453125 23.329059600830078 38.04020690917969 23.55998420715332 37.19004821777344 23.445955276489258 C 33.84096145629883 21.986858367919922 30.706693649291992 20.652626037597656 27.002094268798828 21.0642032623291" stroke-width="1.1246095895767212" fill="none" stroke="rgb(25, 28, 19)" stroke-opacity="0.9802762" stroke-linecap="round" stroke-linejoin="round"/>
    <path d="M 27.160554885864258 56.802894592285156 C 21.238676071166992 56.616607666015625 23.040973663330078 60.9788932800293 27.37725830078125 62.30401611328125 C 33.816734313964844 60.6536865234375 35.49383544921875 60.782005310058594 36.18571472167969 63.00098419189453" stroke-width="1.1082121133804321" fill="none" stroke="rgb(47, 234, 229)" stroke-opacity="0.19480126" stroke-linecap="round" stroke-linejoin="round"/>
    <path d="M 69.1043930053711 58.053550720214844 C 65.51785278320312 63.13582992553711 70.61402893066406 60.61402130126953 73.05186462402344 54.90267562866211" stroke-width="1.2995977401733398" fill="none" stroke="rgb(208, 56, 228)" stroke-opacity="0.14444046" stroke-linecap="round" stroke-linejoin="round"/>
    <path d="M 62.056640625 66.16031646728516 C 62.85000228881836 70.30619049072266 66.10197448730469 71.21190643310547 61.05051040649414 72.07130432128906" stroke-width="1.0892857313156128" fill="none" stroke="rgb(94, 180, 233)" stroke-opacity="0.33847728" stroke-linecap="round" stroke-linejoin="round"/>
    <path d="M 21.655981063842773 59.084007263183594 C 19.528841018676758 60.073150634765625 16.982282638549805 64.42352294921875 11.899760246276855 66.18125915527344" stroke-width="1.0892857313156128" fill="none" stroke="rgb(239, 209, 12)" stroke-opacity="0.33564204" stroke-linecap="round" stroke-linejoin="round"/>
    <path d="M 64.44892120361328 70.72126007080078 C 61.85611343383789 67.11783599853516 57.649349212646484 69.9444580078125 51.9750862121582 73.4166030883789" stroke-width="1.3070210218429565" fill="none" stroke="rgb(113, 86, 0)" stroke-opacity="0.33834675" stroke-linecap="round" stroke-linejoin="round"/>
    <path d="M 78.81640625 41.10984802246094 C 83.76493835449219 42.766258239746094 85.27300262451172 38.25442886352539 80.32987213134766 42.23085403442383" stroke-width="1.0892857313156128" fill="none" stroke="rgb(77, 177, 180)" stroke-opacity="0.52801836" stroke-linecap="round" stroke-linejoin="round"/>
    <path d="M 74.13819885253906 89.97537231445312 C 70.40415954589844 87.34075164794922 69.37281799316406 85.7374038696289 65.61673736572266 91.22447967529297 C 68.65209197998047 86.68928527832031 62.59095764160156 81.08224487304688 60.8901481628418 79.72061157226562" stroke-width="1.1596813201904297" fill="none" stroke="rgb(83, 212, 228)" stroke-opacity="0.09372968" stroke-linecap="round" stroke-linejoin="round"/>
    <path d="M 7.580972194671631 71.50688171386719 C 8.281412124633789 67.66838836669922 12.448831558227539 62.50053024291992 16.342065811157227 59.87543869018555" stroke-width="1.0892857313156128" fill="none" stroke="rgb(219, 137, 71)" stroke-opacity="0.15770611" stroke-linecap="round" stroke-linejoin="round"/>
    <path d="M 10.924699783325195 65.20661926269531 C 10.49887752532959 71.31420135498047 13.325117111206055 75.53252410888672 15.37227725982666 81.61260986328125 C 11.299081802368164 78.00471496582031 15.126368522644043 79.37433624267578 15.560338020324707 82.53084564208984" stroke-width="1.2715193033218384" fill="none" stroke="rgb(46, 14, 74)" stroke-opacity="0.63260394" stroke-linecap="round" stroke-linejoin="round"/>
    <path d="M 15.878594398498535 59.63694381713867 C 16.416780471801758 58.0163459777832 12.865862846374512 52.22219467163086 13.934046745300293 51.49400329589844" stroke-width="1.0892857313156128" fill="none" stroke="rgb(69, 59, 63)" stroke-opacity="0.667977" stroke-linecap="round" stroke-linejoin="round"/>
    <path d="M 60.88726806640625 79.69844818115234 C 62.614681243896484 82.69892120361328 67.12123107910156 83.40794372558594 62.25769805908203 77.56331634521484" stroke-width="1.0892857313156128" fill="none" stroke="rgb(79, 240, 59)" stroke-opacity="0.5622466" stroke-linecap="round" stroke-linejoin="round"/>
    <path d="M 61.83551788330078 78.68578338623047 C 59.35358428955078 76.51789855957031 62.529788970947266 70.96519470214844 61.18813705444336 71.08828735351562 C 57.19524383544922 66.03357696533203 62.42953109741211 67.61155700683594 58.82286834716797 62.7864990234375" stroke-width="1.3061374425888062" fill="none" stroke="rgb(255, 42, 61)" stroke-opacity="0.52083147" stroke-linecap="round" stroke-linejoin="round"/>
    <path d="M 60.79368209838867 79.37535095214844 C 56.3934440612793 76.99365997314453 60.33930587768555 73.04830169677734 64.1410903930664 74.16563415527344" stroke-width="1.121870756149292" fill="none" stroke="rgb(225, 55, 11)" stroke-opacity="0.6999966" stroke-linecap="round" stroke-linejoin="round"/>
    <path d="M 36.15774154663086 63.90040588378906 C 31.189117431640625 60.249351501464844 27.953105926513672 65.43179321289062 26.88889503479004 60.971961975097656 C 26.563480377197266 63.226234436035156 26.679105758666992 56.64286422729492 28.230146408081055 61.48025894165039 C 24.220800399780273 61.546756744384766 28.658571243286133 58.744346618652344 27.009540557861328 59.69860076904297" stroke-width="1.0892857313156128" fill="none" stroke="rgb(76, 151, 191)" stroke-opacity="0.6899784" stroke-linecap="round" stroke-linejoin="round"/>
    <path d="M 10.860960006713867 66.19694519042969 C 8.305462837219238 64.36624908447266 12.09982967376709 68.6695556640625 10.096599578857422 71.16665649414062" stroke-width="1.0892857313156128" fill="none" stroke="rgb(172, 150, 48)" stroke-opacity="0.22941114" stroke-linecap="round" stroke-linejoin="round"/>
    <path d="M 81.38253784179688 42.22379684448242 C 81.78321075439453 46.79316711425781 77.2587661743164 41.79764175415039 76.53423309326172 41.51172637939453 C 71.74486541748047 43.6531982421875 67.73396301269531 39.24267578125 63.393882751464844 34.923274993896484 C 61.53044128417969 39.012718200683594 64.01216888427734 34.82179641723633 68.24906921386719 36.26030349731445" stroke-width="1.2357938289642334" fill="none" stroke="rgb(132, 66, 57)" stroke-opacity="0.013800518" stroke-linecap="round" stroke-linejoin="round"/>
    <path d="M 71.07266998291016 10.53060531616211 C 65.52200317382812 12.177399635314941 68.584716796875 13.724712371826172 65.32836151123047 12.821358680725098 C 59.14017105102539 8.404402732849121 57.08271408081055 9.439552307128906 55.20567321777344 8.07133674621582" stroke-width="1.0954400300979614" fill="none" stroke="rgb(147, 224, 184)" stroke-opacity="0.17323068" stroke-linecap="round" stroke-linejoin="round"/>
    <path d="M 81.5807876586914 54.40443420410156 C 82.80231475830078 49.701778411865234 80.02356719970703 45.99959945678711 83.87055206298828 44.94340515136719 C 84.4980239868164 43.0747184753418 80.97306823730469 48.042022705078125 79.6261978149414 53.478843688964844 C 76.10904693603516 50.18243408203125 71.51641082763672 56.093360900878906 66.4790267944336 51.66337966918945" stroke-width="1.0892857313156128" fill="none" stroke="rgb(161, 143, 19)" stroke-opacity="0.47782695" stroke-linecap="round" stroke-linejoin="round"/>
    <path d="M 19.146814346313477 114.27033996582031 C 18.850229263305664 113.18476867675781 23.17028045654297 108.89019775390625 20.58893394470215 106.97716522216797 C 23.56700897216797 107.35187530517578 27.89360237121582 111.95218658447266 26.156818389892578 116.52005004882812" stroke-width="1.2136467695236206" fill="none" stroke="rgb(90, 58, 126)" stroke-opacity="0.2667941" stroke-linecap="round" stroke-linejoin="round"/>
    <path d="M 0.3447897136211395 58.88178634643555 C -0.004229652229696512 63.6167106628418 5.699685573577881 67.8224868774414 0.915468692779541 66.58422088623047 C -4.607885360717773 64.75241088867188 -5.515250205993652 68.16551208496094 -0.22661899030208588 73.27532196044922 C -2.0553600788116455 70.899169921875 -8.024660110473633 68.6555404663086 -8.027199745178223 62.53963088989258" stroke-width="1.148956298828125" fill="none" stroke="rgb(47, 89, 240)" stroke-opacity="0.15878591" stroke-linecap="round" stroke-linejoin="round"/>
    <path d="M 111.59091186523438 90.97456359863281 C 111.16661071777344 90.20096588134766 110.53494262695312 89.9396743774414 111.9947738647461 96.91883087158203 C 110.7247085571289 97.29669952392578 114.6144790649414 92.09318542480469 110.34439849853516 90.50506591796875 C 113.603271484375 94.86194610595703 110.3478012084961 96.6397705078125 114.27951049804688 97.78836822509766" stroke-width="1.0892857313156128" fill="none" stroke="rgb(84, 100, 33)" stroke-opacity="0.54175884" stroke-linecap="round" stroke-linejoin="round"/>
    <path d="M 117.78219604492188 67.13824462890625 C 117.5932846069336 67.19100189208984 121.49964141845703 72.23419952392578 125.38365173339844 67.6248779296875 C 119.98469543457031 64.27561950683594 113.83072662353516 60.70980453491211 113.49718475341797 63.13938903808594 C 108.64009094238281 59.12162780761719 104.7934341430664 56.992610931396484 103.28897857666016 51.80196762084961" stroke-width="1.0892857313156128" fill="none" stroke="rgb(117, 86, 99)" stroke-opacity="0.21148601" stroke-linecap="round" stroke-linejoin="round"/>
    <path d="M 0.31676268577575684 7.07046365737915 C -3.265744209289551 8.721694946289062 -8.341654777526855 13.446120262145996 -8.463933944702148 12.653364181518555 C -10.002388954162598 12.199789047241211 -4.521762847900391 16.577232360839844 -3.6276228427886963 11.405754089355469" stroke-width="1.0892857313156128" fill="none" stroke="rgb(161, 97, 168)" stroke-opacity="0.4833821" stroke-linecap="round" stroke-linejoin="round"/>
    <path d="M 68.99017333984375 70.76950073242188 C 67.77546691894531 72.07743835449219 65.47506713867188 72.72234344482422 71.64779663085938 69.17886352539062" stroke-width="1.0892857313156128" fill="none" stroke="rgb(151, 66, 248)" stroke-opacity="0.30613792" stroke-linecap="round" stroke-linejoin="round"/>
    <path d="M 25.22720718383789 104.84727478027344 C 19.537364959716797 102.8998794555664 14.52458381652832 101.20962524414062 15.564936637878418 105.6155014038086 C 12.30732536315918 103.32452392578125 15.59267520904541 109.03672790527344 13.814408302307129 105.38278198242188 C 10.059453010559082 104.18584442138672 12.194859504699707 101.85391998291016 10.286249160766602 98.54425048828125" stroke-width="1.1286907196044922" fill="none" stroke="rgb(225, 151, 205)" stroke-opacity="0.27421534" stroke-linecap="round" stroke-linejoin="round"/>
    <path d="M 16.191808700561523 30.942867279052734 C 16.484010696411133 33.66328048706055 17.27659797668457 32.72364807128906 14.35516357421875 29.03881072998047" stroke-width="1.0892857313156128" fill="none" stroke="rgb(7, 159, 15)" stroke-opacity="0.8661737" stroke-linecap="round" stroke-linejoin="round"/>
    <path d="M 36.90472412109375 64.84403991699219 C 40.016300201416016 68.76189422607422 42.903533935546875 72.61495971679688 44.34395980834961 73.08454895019531" stroke-width="1.0892857313156128" fill="none" stroke="rgb(39, 30, 88)" stroke-opacity="0.76435304" stroke-linecap="round" stroke-linejoin="round"/>
    <path d="M 29.626317977905273 48.338531494140625 C 26.37837791442871 48.723289489746094 24.292728424072266 46.1435432434082 25.494285583496094 48.85187911987305 C 20.971267700195312 45.27824020385742 26.24239730834961 42.852176666259766 27.44853973388672 45.333961486816406 C 22.08568000793457 44.293861389160156 18.691734313964844 39.173118591308594 20.662485122680664 38.60121154785156" stroke-width="1.0892857313156128" fill="none" stroke="rgb(111, 237, 200)" stroke-opacity="0.813694" stroke-linecap="round" stroke-linejoin="round"/>
    <path d="M 34.67154312133789 94.60597229003906 C 34.30357360839844 87.87149047851562 29.780057907104492 83.24346160888672 26.15493392944336 78.54112243652344" stroke-width="1.1240049600601196" fill="none" stroke="rgb(33, 89, 116)" stroke-opacity="0.088726655" stroke-linecap="round" stroke-linejoin="round"/>
    <path d="M 78.81019592285156 77.48822784423828 C 81.00664520263672 73.11314392089844 78.49568939208984 68.41852569580078 81.18639373779297 64.84786987304688 C 85.31605529785156 65.15708923339844 83.64059448242188 68.08837127685547 84.06936645507812 65.56620025634766" stroke-width="1.1494381427764893" fill="none" stroke="rgb(54, 219, 63)" stroke-opacity="0.32984546" stroke-linecap="round" stroke-linejoin="round"/>
    <path d="M 67.91062927246094 61.799808502197266 C 64.89240264892578 55.47527313232422 66.73033142089844 55.742530822753906 61.498329162597656 55.864898681640625 C 61.657588958740234 60.58523178100586 58.11658477783203 57.480384826660156 59.279151916503906 54.81731414794922" stroke-width="1.0892857313156128" fill="none" stroke="rgb(156, 179, 100)" stroke-opacity="0.23873323" stroke-linecap="round" stroke-linejoin="round"/>
    <path d="M 63.690643310546875 96.80254364013672 C 68.3875503540039 95.16206359863281 72.44928741455078 91.98535919189453 76.8572998046875 88.88230895996094 C 71.12406158447266 94.9288558959961 70.05464935302734 95.53723907470703 74.12775421142578 98.46378326416016 C 79.60973358154297 100.1871566772461 78.71025085449219 99.63288879394531 74.48506164550781 97.9771499633789" stroke-width="1.2187422513961792" fill="none" stroke="rgb(161, 134, 142)" stroke-opacity="0.5359776" stroke-linecap="round" stroke-linejoin="round"/>
  </g>
</svg>
