<?xml version="1.0" ?>
<svg xmlns="http://www.w3.org/2000/svg" version="1.1" width="1104.0" height="1104.0">
  <defs/>
  <g>
    <path d="M 48.956939697265625 31.381738662719727 C 51.913578033447266 31.535293579101562 58.49713897705078 30.699188232421875 60.59550094604492 31.878971099853516 C 64.80359649658203 31.262794494628906 66.43477630615234 30.983795166015625 64.97779846191406 33.3559684753418 C 65.0962142944336 35.347808837890625 65.74356079101562 36.782012939453125 66.31158447265625 35.83527374267578 C 64.21438598632812 36.62371063232422 60.184661865234375 36.50934600830078 60.5522346496582 37.9924430847168 C 56.391883850097656 39.05061721801758 54.8961181640625 39.02666473388672 49.14498519897461 39.25932312011719 C 45.853946685791016 39.51999282836914 43.9021110534668 39.33610153198242 44.12589645385742 39.9804573059082 C 42.484527587890625 38.822288513183594 42.11548614501953 39.63262939453125 42.96074676513672 40.76322937011719 C 41.98495101928711 40.22882080078125 41.530338287353516 39.75620651245117 41.16108322143555 40.55000305175781 C 40.518707275390625 43.84393310546875 42.6215934753418 44.68489074707031 45.286922454833984 43.63972091674805 C 45.6657600402832 48.00460433959961 48.223201751708984 49.979042053222656 48.596275329589844 53.04731750488281 C 49.655357360839844 56.89020538330078 51.48292541503906 60.267059326171875 52.06158447265625 64.46403503417969 C 55.27632141113281 66.3587646484375 56.26715850830078 70.44744110107422 56.7288932800293 75.2911605834961" stroke-width="1.647161841392517" fill="none" stroke="rgb(1, 28, 24)" stroke-opacity="0.99613" stroke-linecap="round" stroke-linejoin="round"/>
    <path d="M 54.16597366333008 84.28982543945312 C 58.242252349853516 84.90711212158203 57.4140510559082 86.9089584350586 57.33806228637695 87.82492065429688 C 56.630409240722656 84.85482025146484 56.743247985839844 85.61249542236328 57.45071792602539 86.79019165039062 C 55.80348205566406 86.45842742919922 52.753150939941406 85.99097442626953 51.799339294433594 86.28230285644531 C 51.04970932006836 87.09920501708984 51.156089782714844 86.50385284423828 52.695030212402344 82.98893737792969 C 46.27425003051758 82.10726165771484 43.849159240722656 78.83778381347656 45.00404739379883 73.45027160644531 C 45.24009704589844 72.13078308105469 43.051265716552734 69.45855712890625 43.17931365966797 69.1694564819336 C 45.760040283203125 67.6456527709961 52.13738250732422 67.55905151367188 52.15801239013672 68.06853485107422 C 54.12214279174805 67.48568725585938 56.34485626220703 67.24247741699219 61.260623931884766 66.1584701538086 C 63.38408660888672 65.98318481445312 65.61288452148438 65.75749969482422 67.36649322509766 65.89745330810547 C 68.30064392089844 67.31354522705078 69.32389831542969 66.95857238769531 67.75148010253906 65.43877410888672 C 67.91193389892578 64.16561889648438 67.9848861694336 63.01192092895508 67.98867797851562 62.36322784423828 C 68.61238861083984 62.534114837646484 70.59935760498047 62.92815399169922 70.58501434326172 61.98963928222656 C 72.36549377441406 55.3076286315918 72.9075698852539 47.94340133666992 73.15402221679688 40.56645965576172 C 74.82630157470703 43.45133972167969 73.90788269042969 42.65754318237305 73.85612487792969 41.87734603881836 C 74.36979675292969 40.63256072998047 74.45118713378906 38.81169128417969 74.53347778320312 38.57712173461914 C 75.13777923583984 36.681434631347656 75.18634033203125 35.52347183227539 74.89352416992188 37.08511734008789" stroke-width="1.3845494985580444" fill="none" stroke="rgb(11, 34, 27)" stroke-opacity="0.889556" stroke-linecap="round" stroke-linejoin="round"/>
    <path d="M 25.575788497924805 11.508866310119629 C 25.494295120239258 13.288729667663574 24.488441467285156 16.80126190185547 22.862228393554688 18.493173599243164 C 21.689889907836914 21.556324005126953 23.231449127197266 29.44577980041504 22.141963958740234 35.24641418457031 C 21.84876823425293 43.04335021972656 21.818035125732422 54.437171936035156 22.03011131286621 64.91078186035156 C 21.920270919799805 71.78607940673828 23.714902877807617 78.49675750732422 25.009765625 84.54310607910156" stroke-width="1.2307456731796265" fill="none" stroke="rgb(15, 31, 12)" stroke-opacity="1.0" stroke-linecap="round" stroke-linejoin="round"/>
    <path d="M 24.834331512451172 84.68521881103516 C 22.879295349121094 82.81097412109375 18.02165412902832 78.85411071777344 17.575159072875977 80.50132751464844" stroke-width="0.914248526096344" fill="none" stroke="rgb(90, 176, 71)" stroke-opacity="0.19494036" stroke-linecap="round" stroke-linejoin="round"/>
    <path d="M 69.07447052001953 67.37138366699219 C 69.88236236572266 69.52240753173828 71.89205169677734 69.6242446899414 70.61026763916016 71.22856903076172 C 74.45645904541016 71.37236022949219 70.08179473876953 69.09549713134766 71.47565460205078 74.94438171386719 C 76.43170928955078 78.7394790649414 72.39189147949219 78.1878662109375 66.8419189453125 78.75251770019531" stroke-width="0.914248526096344" fill="none" stroke="rgb(129, 194, 63)" stroke-opacity="0.40780827" stroke-linecap="round" stroke-linejoin="round"/>
    <path d="M 45.97454833984375 40.4650993347168 C 47.03353500366211 42.54002380371094 45.65220260620117 43.06412887573242 42.5338134765625 45.755584716796875" stroke-width="0.914248526096344" fill="none" stroke="rgb(73, 139, 159)" stroke-opacity="0.08478518" stroke-linecap="round" stroke-linejoin="round"/>
    <path d="M 26.19341468811035 86.67729187011719 C 23.989126205444336 91.52515411376953 25.30980682373047 93.56147766113281 25.675487518310547 90.32763671875" stroke-width="0.914248526096344" fill="none" stroke="rgb(151, 139, 80)" stroke-opacity="0.25905862" stroke-linecap="round" stroke-linejoin="round"/>
    <path d="M 74.63885498046875 38.86466598510742 C 73.6357421875 42.4876823425293 76.43258666992188 44.59006881713867 72.64090728759766 41.09322738647461 C 75.22900390625 42.125640869140625 71.27107238769531 38.77437210083008 72.04534149169922 39.048282623291016 C 73.64952087402344 41.092498779296875 70.87370300292969 37.29364776611328 70.32394409179688 38.4101448059082" stroke-width="0.914248526096344" fill="none" stroke="rgb(121, 179, 243)" stroke-opacity="0.42198405" stroke-linecap="round" stroke-linejoin="round"/>
    <path d="M 25.46339988708496 17.164030075073242 C 18.886751174926758 16.77682876586914 19.36508560180664 16.436067581176758 18.56252670288086 12.348665237426758" stroke-width="0.914248526096344" fill="none" stroke="rgb(102, 36, 166)" stroke-opacity="0.17713165" stroke-linecap="round" stroke-linejoin="round"/>
    <path d="M 25.051597595214844 17.19070053100586 C 16.684825897216797 14.262887001037598 13.070730209350586 18.463289260864258 12.485316276550293 19.400146484375 C 15.250356674194336 24.30424690246582 17.800800323486328 26.076030731201172 15.95333480834961 30.318193435668945" stroke-width="2.1261510848999023" fill="none" stroke="rgb(241, 5, 0)" stroke-opacity="1.0" stroke-linecap="round" stroke-linejoin="round"/>
    <path d="M 74.20223236083984 37.23677062988281 C 69.2854232788086 37.7869758605957 73.4732894897461 42.62611389160156 70.73106384277344 44.18461227416992 C 73.63291931152344 41.80445861816406 76.46934509277344 42.98108673095703 81.75080871582031 44.86924743652344" stroke-width="0.914248526096344" fill="none" stroke="rgb(30, 27, 108)" stroke-opacity="0.41896674" stroke-linecap="round" stroke-linejoin="round"/>
    <path d="M 70.87895965576172 38.380985260009766 C 75.39102935791016 37.40326690673828 76.83028411865234 34.25028991699219 72.80650329589844 37.458492279052734" stroke-width="0.9304601550102234" fill="none" stroke="rgb(56, 65, 255)" stroke-opacity="0.49435085" stroke-linecap="round" stroke-linejoin="round"/>
    <path d="M 66.44123077392578 79.16639709472656 C 66.85691833496094 78.2880630493164 73.30316162109375 79.35699462890625 66.63386535644531 78.77980041503906 C 69.56827545166016 78.3797378540039 72.22498321533203 82.47207641601562 72.92141723632812 87.45259094238281" stroke-width="0.914248526096344" fill="none" stroke="rgb(0, 244, 120)" stroke-opacity="0.9781853" stroke-linecap="round" stroke-linejoin="round"/>
    <path d="M 83.61036682128906 44.35780715942383 C 75.91696166992188 44.393768310546875 73.39006805419922 41.53691864013672 79.90692901611328 44.24615478515625" stroke-width="1.5603770017623901" fill="none" stroke="rgb(158, 15, 72)" stroke-opacity="0.6313922" stroke-linecap="round" stroke-linejoin="round"/>
    <path d="M 66.7203369140625 81.36033630371094 C 67.25273132324219 80.43852996826172 67.32980346679688 83.9852066040039 67.8489761352539 86.05738830566406 C 69.99041748046875 87.8312759399414 66.41761779785156 84.4427719116211 61.19816589355469 83.04005432128906 C 64.42170715332031 84.53743743896484 67.30746459960938 82.22595977783203 61.219032287597656 81.81615447998047" stroke-width="0.914248526096344" fill="none" stroke="rgb(173, 37, 155)" stroke-opacity="0.7480825" stroke-linecap="round" stroke-linejoin="round"/>
    <path d="M 17.44098472595215 81.16309356689453 C 21.1959171295166 73.32176971435547 18.96128273010254 71.99129486083984 24.06259536743164 70.92849731445312" stroke-width="1.2589631080627441" fill="none" stroke="rgb(71, 104, 88)" stroke-opacity="0.7499044" stroke-linecap="round" stroke-linejoin="round"/>
    <path d="M 71.0764389038086 38.456932067871094 C 74.21649932861328 40.87252426147461 75.35899353027344 36.65740966796875 75.3341293334961 40.06006622314453" stroke-width="0.914248526096344" fill="none" stroke="rgb(214, 203, 34)" stroke-opacity="0.37345985" stroke-linecap="round" stroke-linejoin="round"/>
    <path d="M 18.875356674194336 11.691644668579102 C 21.132143020629883 15.174857139587402 19.60633087158203 19.768104553222656 18.034149169921875 14.181954383850098" stroke-width="1.169027328491211" fill="none" stroke="rgb(140, 40, 30)" stroke-opacity="0.95385927" stroke-linecap="round" stroke-linejoin="round"/>
    <path d="M 69.54305267333984 37.645416259765625 C 77.89911651611328 40.087162017822266 79.1360855102539 41.8314208984375 79.31816101074219 34.6237678527832 C 78.4488296508789 32.092464447021484 81.72488403320312 39.1107063293457 84.4008560180664 36.14372634887695" stroke-width="0.9292173385620117" fill="none" stroke="rgb(180, 33, 175)" stroke-opacity="0.4846217" stroke-linecap="round" stroke-linejoin="round"/>
    <path d="M 78.22898864746094 91.83506774902344 C 76.91189575195312 86.0446548461914 73.34431457519531 88.8456039428711 73.78626251220703 92.95077514648438 C 74.62226867675781 90.82806396484375 72.66194152832031 87.45703887939453 74.49870300292969 90.36783599853516" stroke-width="0.914248526096344" fill="none" stroke="rgb(185, 88, 149)" stroke-opacity="0.39932403" stroke-linecap="round" stroke-linejoin="round"/>
    <path d="M 54.70554733276367 97.0672607421875 C 51.64539337158203 94.45207977294922 48.99095153808594 100.37538146972656 47.96084976196289 94.17575073242188 C 47.925899505615234 99.11277770996094 47.316741943359375 98.97783660888672 50.37677001953125 102.40099334716797" stroke-width="0.914248526096344" fill="none" stroke="rgb(204, 112, 144)" stroke-opacity="0.51200676" stroke-linecap="round" stroke-linejoin="round"/>
    <path d="M 72.41995239257812 50.232078552246094 C 73.68193817138672 48.880043029785156 74.80596160888672 48.331668853759766 79.28990936279297 48.5301628112793 C 84.64918518066406 53.67487716674805 87.79344177246094 54.09773635864258 90.71541595458984 47.8651237487793" stroke-width="0.914248526096344" fill="none" stroke="rgb(178, 100, 114)" stroke-opacity="0.3966499" stroke-linecap="round" stroke-linejoin="round"/>
    <path d="M 99.65264129638672 31.58979034423828 C 100.31370544433594 27.791563034057617 102.67022705078125 20.870075225830078 103.43155670166016 16.0184383392334" stroke-width="0.914248526096344" fill="none" stroke="rgb(40, 62, 253)" stroke-opacity="0.60485023" stroke-linecap="round" stroke-linejoin="round"/>
    <path d="M 24.95122528076172 94.75790405273438 C 24.006919860839844 93.51777648925781 24.84562873840332 88.53158569335938 27.438182830810547 90.3213882446289 C 28.912574768066406 90.99897003173828 30.712284088134766 89.2319107055664 32.893089294433594 92.53361511230469" stroke-width="0.914248526096344" fill="none" stroke="rgb(122, 199, 171)" stroke-opacity="0.6679387" stroke-linecap="round" stroke-linejoin="round"/>
    <path d="M 101.58277130126953 20.829286575317383 C 107.5704345703125 20.802268981933594 112.33402252197266 24.685026168823242 112.80548095703125 21.248493194580078 C 116.76537322998047 23.17455291748047 116.15767669677734 23.75328826904297 117.20641326904297 22.056486129760742 C 112.52629852294922 20.980419158935547 110.52861022949219 23.850215911865234 110.67351531982422 18.977996826171875" stroke-width="2.1721901893615723" fill="none" stroke="rgb(224, 133, 255)" stroke-opacity="0.45165476" stroke-linecap="round" stroke-linejoin="round"/>
    <path d="M 63.673973083496094 -0.92540043592453 C 63.51390075683594 3.195828676223755 64.15154266357422 3.950688123703003 67.82936096191406 -0.6603949069976807" stroke-width="1.3071662187576294" fill="none" stroke="rgb(176, 211, 74)" stroke-opacity="0.15557323" stroke-linecap="round" stroke-linejoin="round"/>
    <path d="M 0.5918827056884766 45.352779388427734 C 0.6588957905769348 45.1333122253418 -3.99804949760437 50.234375 -3.6341826915740967 53.979496002197266 C 0.6286879777908325 56.42630386352539 -1.1029304265975952 51.95529556274414 -5.3332366943359375 50.72898864746094 C -0.7790846228599548 52.39745330810547 -2.0941572189331055 50.75001525878906 -5.156774044036865 55.402305603027344" stroke-width="0.914248526096344" fill="none" stroke="rgb(114, 191, 89)" stroke-opacity="0.5318396" stroke-linecap="round" stroke-linejoin="round"/>
    <path d="M 53.9093132019043 34.302711486816406 C 48.96153259277344 35.031429290771484 46.261817932128906 32.87385559082031 46.00883865356445 31.82590675354004 C 47.89048385620117 33.30596160888672 51.23092269897461 31.969215393066406 47.46405029296875 22.9247989654541 C 45.778690338134766 28.791793823242188 42.339176177978516 34.25844955444336 46.44281005859375 32.9100341796875" stroke-width="0.914248526096344" fill="none" stroke="rgb(36, 147, 167)" stroke-opacity="0.24784985" stroke-linecap="round" stroke-linejoin="round"/>
    <path d="M 47.22310256958008 10.449315071105957 C 42.47911071777344 15.062691688537598 41.16562271118164 13.757686614990234 35.992591857910156 8.107637405395508" stroke-width="0.914248526096344" fill="none" stroke="rgb(245, 153, 152)" stroke-opacity="0.74755144" stroke-linecap="round" stroke-linejoin="round"/>
    <path d="M 60.2884521484375 31.566864013671875 C 59.70036315917969 31.704954147338867 62.06148910522461 31.56583023071289 58.971153259277344 26.208627700805664 C 56.210025787353516 25.779848098754883 60.53567886352539 24.199129104614258 63.66211700439453 26.63451385498047 C 66.52062225341797 21.103981018066406 64.63548278808594 25.455543518066406 60.91136932373047 28.421342849731445" stroke-width="1.5875788927078247" fill="none" stroke="rgb(94, 30, 255)" stroke-opacity="0.79612213" stroke-linecap="round" stroke-linejoin="round"/>
    <path d="M 86.57479095458984 76.63030242919922 C 80.87306213378906 73.03978729248047 80.3033218383789 78.22506713867188 84.78761291503906 76.35604858398438" stroke-width="1.6813827753067017" fill="none" stroke="rgb(7, 247, 194)" stroke-opacity="0.3566898" stroke-linecap="round" stroke-linejoin="round"/>
    <path d="M 52.93556213378906 40.820098876953125 C 53.28139114379883 39.81249237060547 55.59117889404297 37.14614486694336 58.754432678222656 36.44124221801758" stroke-width="0.914248526096344" fill="none" stroke="rgb(65, 173, 155)" stroke-opacity="0.653144" stroke-linecap="round" stroke-linejoin="round"/>
    <path d="M 96.81450653076172 45.19011688232422 C 96.9859619140625 42.47871017456055 98.48279571533203 44.32384490966797 100.91899108886719 49.45244598388672 C 98.69849395751953 52.12516784667969 98.10809326171875 55.311767578125 97.13375091552734 48.46359634399414 C 95.67145538330078 43.70783996582031 100.96516418457031 40.63771438598633 105.89386749267578 42.56417465209961" stroke-width="0.914248526096344" fill="none" stroke="rgb(5, 48, 50)" stroke-opacity="0.80299395" stroke-linecap="round" stroke-linejoin="round"/>
    <path d="M 16.202144622802734 52.55095291137695 C 14.52277946472168 46.299888610839844 14.987316131591797 41.230133056640625 14.86727523803711 40.8036003112793 C 10.543853759765625 41.64377975463867 12.817657470703125 38.957271575927734 10.251256942749023 37.461753845214844 C 7.285360336303711 34.015743255615234 11.220252990722656 38.23359680175781 7.280810356140137 31.42862892150879" stroke-width="0.914248526096344" fill="none" stroke="rgb(194, 126, 156)" stroke-opacity="0.49026793" stroke-linecap="round" stroke-linejoin="round"/>
    <path d="M 62.36772918701172 58.8473014831543 C 65.86250305175781 56.47269821166992 64.54893493652344 58.4501953125 66.90044403076172 55.01941680908203" stroke-width="0.914248526096344" fill="none" stroke="rgb(93, 40, 24)" stroke-opacity="0.21318224" stroke-linecap="round" stroke-linejoin="round"/>
  </g>
</svg>
