<?xml version="1.0" ?>
<svg xmlns="http://www.w3.org/2000/svg" version="1.1" width="956.0" height="956.0">
  <defs/>
  <g>
    <path d="M 40.18207931518555 58.464847564697266 C 40.52458572387695 57.92048645019531 39.485206604003906 58.16082000732422 39.705142974853516 58.04856872558594 C 38.87797927856445 57.761871337890625 37.595279693603516 57.79896926879883 37.407867431640625 56.772464752197266 C 36.391632080078125 56.10388946533203 34.834415435791016 55.95920944213867 33.927940368652344 55.147918701171875 C 30.855993270874023 52.399253845214844 30.38923454284668 48.6123046875 30.389236450195312 44.649314880371094 C 30.38922691345215 44.038238525390625 29.710636138916016 42.76360321044922 30.227705001831055 42.22519302368164 C 31.04755210876465 41.37241744995117 32.50210189819336 41.088558197021484 33.579532623291016 40.600643157958984 C 38.87188720703125 38.20212173461914 45.12071990966797 37.92030334472656 50.80713653564453 37.92030334472656 C 54.8441047668457 37.37568664550781 56.00190353393555 36.87912368774414 59.613121032714844 38.65177536010742 C 66.86113739013672 42.21052551269531 71.05181884765625 50.970123291015625 72.34085845947266 58.849395751953125 C 72.51898193359375 59.563072204589844 73.47301483154297 66.54634857177734 73.52355194091797 67.78221893310547 C 69.0021743774414 79.08675384521484 52.810386657714844 80.23844909667969 42.640438079833984 80.2537841796875 C 40.76955795288086 80.90089416503906 38.88624954223633 80.99240112304688 37.024803161621094 80.2537841796875 C 36.007301330566406 80.14764404296875 34.523311614990234 80.20304870605469 33.544857025146484 79.90538024902344" stroke-width="1.0892857313156128" fill="none" stroke="rgb(26, 21, 21)" stroke-opacity="0.9900002" stroke-linecap="round" stroke-linejoin="round"/>
    <path d="M 29.844600677490234 66.88797760009766 C 31.404977798461914 66.34333801269531 29.361480712890625 69.43238067626953 29.496198654174805 71.48248291015625 C 28.883758544921875 73.727294921875 27.989498138427734 75.88790893554688 27.327037811279297 78.11807250976562 C 26.765836715698242 80.00662231445312 23.825538635253906 91.48782348632812 23.082143783569336 91.99385833740234 C 22.834997177124023 96.7047348022461 23.161958694458008 101.08575439453125 22.31597900390625 104.75505065917969" stroke-width="1.0892857313156128" fill="none" stroke="rgb(26, 21, 21)" stroke-opacity="1.0" stroke-linecap="round" stroke-linejoin="round"/>
    <path d="M 50.806976318359375 37.9202995300293 C 44.7855339050293 38.54149627685547 46.31654357910156 40.60103225708008 46.906227111816406 43.237361907958984" stroke-width="1.0892857313156128" fill="none" stroke="rgb(129, 162, 248)" stroke-opacity="0.51322126" stroke-linecap="round" stroke-linejoin="round"/>
    <path d="M 72.885498046875 58.849395751953125 C 73.7597885131836 54.10201644897461 78.01897430419922 47.627227783203125 73.18914794921875 43.46542739868164" stroke-width="1.0892857313156128" fill="none" stroke="rgb(211, 160, 48)" stroke-opacity="0.94953454" stroke-linecap="round" stroke-linejoin="round"/>
    <path d="M 36.86330032348633 57.316864013671875 C 36.232078552246094 51.70551300048828 37.97814178466797 52.07511520385742 35.27660369873047 52.7929573059082 C 35.14332962036133 53.964752197265625 35.20170211791992 54.59956741333008 37.223392486572266 59.845985412597656" stroke-width="1.1982102394104004" fill="none" stroke="rgb(176, 218, 128)" stroke-opacity="0.0506823" stroke-linecap="round" stroke-linejoin="round"/>
    <path d="M 29.8446044921875 66.3433609008789 C 28.776687622070312 68.57038116455078 29.326152801513672 73.88682556152344 24.92112159729004 74.07756042480469" stroke-width="1.0892857313156128" fill="none" stroke="rgb(202, 238, 233)" stroke-opacity="0.22260092" stroke-linecap="round" stroke-linejoin="round"/>
    <path d="M 39.70510482788086 58.04856872558594 C 44.77472686767578 58.084312438964844 46.89313888549805 56.29319381713867 40.94981384277344 52.11478042602539" stroke-width="1.198124647140503" fill="none" stroke="rgb(41, 180, 248)" stroke-opacity="0.63188577" stroke-linecap="round" stroke-linejoin="round"/>
    <path d="M 37.02481460571289 80.2538070678711 C 39.276607513427734 85.01925659179688 42.82160186767578 84.25354766845703 43.343135833740234 85.95674896240234 C 40.09638595581055 90.50326538085938 43.491981506347656 96.8093490600586 42.10954666137695 101.12542724609375 C 47.75649642944336 102.21819305419922 50.93805694580078 100.83827209472656 49.53997039794922 103.33067321777344" stroke-width="1.0892857313156128" fill="none" stroke="rgb(30, 245, 70)" stroke-opacity="0.5406061" stroke-linecap="round" stroke-linejoin="round"/>
    <path d="M 39.705101013183594 58.0485725402832 C 37.41419219970703 54.54206085205078 39.839378356933594 58.87010955810547 33.96434783935547 54.33671188354492 C 34.98349380493164 56.645111083984375 32.40359878540039 53.252220153808594 35.595855712890625 55.05984115600586 C 40.461456298828125 55.58039855957031 36.29903793334961 53.7302360534668 39.440589904785156 50.472991943359375" stroke-width="1.0892857313156128" fill="none" stroke="rgb(66, 168, 72)" stroke-opacity="0.10355563" stroke-linecap="round" stroke-linejoin="round"/>
    <path d="M 33.035133361816406 40.05607223510742 C 29.19280433654785 45.1266975402832 30.27920913696289 48.909912109375 32.09666061401367 51.354129791259766" stroke-width="1.0892857313156128" fill="none" stroke="rgb(13, 146, 37)" stroke-opacity="0.1139312" stroke-linecap="round" stroke-linejoin="round"/>
    <path d="M 36.678951263427734 59.84607696533203 C 37.51670837402344 64.44953155517578 31.73993682861328 60.262725830078125 27.236371994018555 58.81885528564453 C 32.93031692504883 63.92338180541992 36.9260368347168 65.7051773071289 41.01516342163086 66.85855102539062" stroke-width="1.0892857313156128" fill="none" stroke="rgb(204, 173, 114)" stroke-opacity="0.030302197" stroke-linecap="round" stroke-linejoin="round"/>
    <path d="M 47.4507942199707 43.23734664916992 C 49.68196487426758 45.96163558959961 48.42754364013672 49.46550750732422 51.97889709472656 44.10325241088867" stroke-width="1.1982120275497437" fill="none" stroke="rgb(111, 60, 94)" stroke-opacity="0.7264559" stroke-linecap="round" stroke-linejoin="round"/>
    <path d="M 36.67887878417969 60.39054489135742 C 39.18412399291992 65.80113983154297 35.221466064453125 65.19007873535156 32.613037109375 66.85395812988281 C 34.73155212402344 73.23151397705078 37.80931854248047 76.16205596923828 33.31923294067383 74.3621597290039 C 33.344356536865234 76.69477081298828 32.845558166503906 77.85662078857422 35.45051574707031 73.49832153320312" stroke-width="1.0892857313156128" fill="none" stroke="rgb(26, 219, 140)" stroke-opacity="0.13557631" stroke-linecap="round" stroke-linejoin="round"/>
    <path d="M 39.440242767333984 51.01722717285156 C 38.08102798461914 53.075340270996094 43.63118362426758 58.8056640625 39.31974411010742 57.51467514038086 C 39.01396560668945 53.11118698120117 44.561981201171875 48.02207946777344 39.24039077758789 51.404296875" stroke-width="1.0892857313156128" fill="none" stroke="rgb(76, 82, 175)" stroke-opacity="0.7768293" stroke-linecap="round" stroke-linejoin="round"/>
    <path d="M 46.906166076660156 43.237369537353516 C 47.42665100097656 40.13485336303711 48.00031661987305 41.10221862792969 46.63015365600586 41.67659378051758 C 43.77119827270508 44.85313034057617 49.16305160522461 49.69526672363281 43.24876022338867 53.235801696777344 C 48.13842010498047 53.80580139160156 48.82067108154297 55.47138595581055 43.510459899902344 50.3570556640625" stroke-width="1.1982131004333496" fill="none" stroke="rgb(201, 189, 62)" stroke-opacity="0.20963371" stroke-linecap="round" stroke-linejoin="round"/>
    <path d="M 32.641292572021484 51.354129791259766 C 31.47671127319336 47.9125862121582 27.68315887451172 48.56918716430664 26.479839324951172 46.98066329956055 C 28.727628707885742 40.90814971923828 34.095211029052734 40.75591278076172 31.75389289855957 39.2649040222168" stroke-width="1.1982141733169556" fill="none" stroke="rgb(106, 75, 86)" stroke-opacity="0.69166815" stroke-linecap="round" stroke-linejoin="round"/>
    <path d="M 46.906166076660156 43.23735809326172 C 43.401817321777344 45.8029670715332 39.8478889465332 49.837867736816406 45.6771240234375 45.73223114013672" stroke-width="1.198213815689087" fill="none" stroke="rgb(224, 95, 57)" stroke-opacity="0.37273324" stroke-linecap="round" stroke-linejoin="round"/>
    <path d="M 32.09666061401367 51.354129791259766 C 26.85284996032715 56.2460823059082 20.33058738708496 53.29563522338867 17.45231056213379 59.05355453491211 C 19.741790771484375 64.65116119384766 21.238483428955078 63.58222198486328 26.124513626098633 57.79130172729492 C 21.017892837524414 60.31525802612305 19.96323585510254 55.61928176879883 16.389904022216797 58.88239669799805" stroke-width="1.0892857313156128" fill="none" stroke="rgb(135, 206, 54)" stroke-opacity="0.09762565" stroke-linecap="round" stroke-linejoin="round"/>
    <path d="M 95.69522094726562 20.474838256835938 C 97.3041000366211 18.55543327331543 102.08236694335938 16.075424194335938 107.47315979003906 19.527189254760742" stroke-width="1.0892857313156128" fill="none" stroke="rgb(69, 214, 11)" stroke-opacity="0.57827216" stroke-linecap="round" stroke-linejoin="round"/>
    <path d="M 54.816585540771484 55.83796691894531 C 57.75858688354492 56.04026412963867 52.405208587646484 60.02976608276367 56.56061935424805 58.62458801269531 C 51.49464416503906 58.877159118652344 48.174888610839844 54.08904266357422 51.76335906982422 53.8387451171875" stroke-width="1.0892857313156128" fill="none" stroke="rgb(248, 47, 122)" stroke-opacity="0.94700694" stroke-linecap="round" stroke-linejoin="round"/>
    <path d="M 67.57131958007812 112.34439849853516 C 70.33477020263672 114.69978332519531 75.62616729736328 119.82482147216797 73.56538391113281 123.76371002197266" stroke-width="1.198214054107666" fill="none" stroke="rgb(57, 126, 235)" stroke-opacity="0.5726081" stroke-linecap="round" stroke-linejoin="round"/>
    <path d="M 51.81136703491211 43.1157112121582 C 52.3400764465332 41.64215087890625 49.0492057800293 37.640480041503906 45.69874954223633 38.994895935058594 C 50.20716857910156 41.88609313964844 49.21577072143555 47.41874313354492 52.167205810546875 53.72694396972656" stroke-width="1.1982141733169556" fill="none" stroke="rgb(34, 238, 171)" stroke-opacity="0.8306972" stroke-linecap="round" stroke-linejoin="round"/>
    <path d="M 37.95930862426758 93.03492736816406 C 38.20555877685547 94.38610076904297 43.373512268066406 98.24290466308594 44.822357177734375 95.1834716796875 C 45.38660430908203 91.79270935058594 51.210296630859375 88.77992248535156 46.58789825439453 84.98186492919922 C 46.20787048339844 87.13804626464844 49.591983795166016 81.38019561767578 50.24858474731445 78.41947174072266" stroke-width="1.0892857313156128" fill="none" stroke="rgb(45, 64, 144)" stroke-opacity="0.4144651" stroke-linecap="round" stroke-linejoin="round"/>
    <path d="M 83.57887268066406 113.1233139038086 C 78.63021850585938 115.40066528320312 82.0188217163086 118.58807373046875 87.05463409423828 119.64848327636719" stroke-width="1.0892857313156128" fill="none" stroke="rgb(77, 161, 232)" stroke-opacity="0.590395" stroke-linecap="round" stroke-linejoin="round"/>
    <path d="M 73.1324462890625 54.821434020996094 C 76.78600311279297 55.46275329589844 72.30996704101562 51.89316940307617 74.32012939453125 51.02268600463867 C 77.82307434082031 56.297386169433594 82.24490356445312 52.430198669433594 81.37226867675781 56.904354095458984" stroke-width="1.0892857313156128" fill="none" stroke="rgb(4, 216, 27)" stroke-opacity="0.21262786" stroke-linecap="round" stroke-linejoin="round"/>
    <path d="M 38.979393005371094 25.825345993041992 C 33.19242858886719 29.431171417236328 36.53352355957031 26.508716583251953 41.0080680847168 23.58285903930664 C 40.6838264465332 27.06167221069336 41.1851921081543 24.347591400146484 45.966068267822266 20.6153507232666" stroke-width="1.0892857313156128" fill="none" stroke="rgb(115, 110, 19)" stroke-opacity="0.060393475" stroke-linecap="round" stroke-linejoin="round"/>
    <path d="M 26.448057174682617 116.43505096435547 C 31.11026382446289 111.48413848876953 29.636837005615234 114.46589660644531 31.393505096435547 119.27556610107422 C 31.28118133544922 121.24560546875 28.712251663208008 122.06947326660156 32.93012619018555 120.7838363647461" stroke-width="1.0892857313156128" fill="none" stroke="rgb(239, 95, 150)" stroke-opacity="0.8936862" stroke-linecap="round" stroke-linejoin="round"/>
    <path d="M 13.12402629852295 99.34307098388672 C 16.410354614257812 100.20291900634766 14.381573677062988 102.45922088623047 12.48069953918457 99.02864074707031" stroke-width="1.1982125043869019" fill="none" stroke="rgb(194, 143, 159)" stroke-opacity="0.62086976" stroke-linecap="round" stroke-linejoin="round"/>
    <path d="M 81.7310791015625 4.865562438964844 C 84.57685089111328 2.751237392425537 85.16178894042969 6.810122489929199 88.14916229248047 6.700726509094238 C 86.1526107788086 10.010568618774414 83.07820892333984 14.40878963470459 86.09930419921875 19.94741439819336 C 87.44219970703125 25.87531089782715 86.96355438232422 31.628284454345703 83.26683807373047 32.353424072265625" stroke-width="1.0892857313156128" fill="none" stroke="rgb(7, 187, 38)" stroke-opacity="0.1714261" stroke-linecap="round" stroke-linejoin="round"/>
    <path d="M 98.75823211669922 94.03980255126953 C 100.87938690185547 99.14471435546875 99.25314331054688 96.70594024658203 100.80728912353516 101.01924133300781 C 105.5887222290039 101.29902648925781 111.92658996582031 105.48271942138672 106.60330200195312 106.68474578857422 C 100.9675521850586 101.1794204711914 105.2332763671875 99.40923309326172 107.16983032226562 103.03582000732422" stroke-width="1.0892857313156128" fill="none" stroke="rgb(162, 23, 164)" stroke-opacity="0.65434265" stroke-linecap="round" stroke-linejoin="round"/>
    <path d="M 0.40080976486206055 43.199119567871094 C 0.7779006958007812 48.83694839477539 -1.8584058284759521 42.867034912109375 0.8479021787643433 43.20536422729492 C 0.6417009234428406 47.4932746887207 0.5235990285873413 45.52933883666992 -4.0380988121032715 40.69332504272461" stroke-width="1.0892857313156128" fill="none" stroke="rgb(55, 187, 226)" stroke-opacity="0.97817343" stroke-linecap="round" stroke-linejoin="round"/>
    <path d="M 84.72223663330078 56.27726745605469 C 82.09880065917969 61.04502868652344 77.50283813476562 66.69636535644531 84.00212860107422 68.81087493896484 C 86.17044830322266 72.53642272949219 81.89258575439453 69.25657653808594 86.8648681640625 69.0880355834961" stroke-width="1.1982133388519287" fill="none" stroke="rgb(166, 185, 82)" stroke-opacity="0.12972961" stroke-linecap="round" stroke-linejoin="round"/>
    <path d="M 66.95267486572266 115.72384643554688 C 67.82645416259766 110.64761352539062 63.87998580932617 112.25686645507812 60.419960021972656 111.22335815429688 C 66.41227722167969 111.06684875488281 65.00342559814453 115.96306610107422 67.0749740600586 111.71722412109375 C 66.89063262939453 105.80485534667969 69.73375701904297 111.09136199951172 69.5282974243164 105.78238677978516" stroke-width="1.1982141733169556" fill="none" stroke="rgb(156, 155, 21)" stroke-opacity="0.9535101" stroke-linecap="round" stroke-linejoin="round"/>
    <path d="M 55.59848403930664 105.27693939208984 C 52.09708023071289 103.76472473144531 48.46913528442383 106.29596710205078 45.28343200683594 109.8692855834961 C 50.18727111816406 109.15184783935547 55.55335998535156 114.77503967285156 58.54595184326172 111.13330078125 C 62.30809020996094 116.67576599121094 64.39263916015625 119.65013885498047 65.8216781616211 123.99652099609375" stroke-width="1.0892857313156128" fill="none" stroke="rgb(54, 132, 156)" stroke-opacity="0.581332" stroke-linecap="round" stroke-linejoin="round"/>
  </g>
</svg>
