<?xml version="1.0" ?>
<svg xmlns="http://www.w3.org/2000/svg" version="1.1" width="1104.0" height="1104.0">
  <defs/>
  <g>
    <path d="M 54.22825241088867 0.14825201034545898 C 48.502532958984375 -4.970399379730225 51.65299987792969 -11.12275505065918 50.0004997253418 -7.4373860359191895" stroke-width="1.1026785373687744" fill="none" stroke="rgb(53, 55, 244)" stroke-opacity="0.11588091" stroke-linecap="round" stroke-linejoin="round"/>
    <path d="M 48.553348541259766 20.577800750732422 C 53.171382904052734 19.890308380126953 51.45531463623047 17.799436569213867 50.15291213989258 14.337000846862793 C 45.72642517089844 8.944972038269043 43.118743896484375 14.381063461303711 39.1370849609375 18.491376876831055" stroke-width="1.2129456996917725" fill="none" stroke="rgb(31, 194, 53)" stroke-opacity="0.89350057" stroke-linecap="round" stroke-linejoin="round"/>
    <path d="M 9.420711517333984 106.1461410522461 C 9.274482727050781 110.77649688720703 3.6938283443450928 110.42189025878906 7.990053176879883 112.85870361328125 C 13.003271102905273 112.76673889160156 18.557857513427734 111.43724822998047 23.964956283569336 108.68525695800781 C 27.81467628479004 102.13667297363281 27.631086349487305 98.95950317382812 33.47636413574219 92.88457489013672" stroke-width="1.2128711938858032" fill="none" stroke="rgb(93, 47, 131)" stroke-opacity="0.9183502" stroke-linecap="round" stroke-linejoin="round"/>
    <path d="M 21.55341339111328 61.28965377807617 C 20.509618759155273 58.952396392822266 21.016834259033203 56.93449401855469 15.93192195892334 57.59008026123047 C 20.217056274414062 53.90538024902344 22.281972885131836 53.94760513305664 25.20388412475586 51.201263427734375 C 20.000497817993164 57.35597229003906 18.28001594543457 62.188812255859375 20.405969619750977 57.22857666015625" stroke-width="1.2129459381103516" fill="none" stroke="rgb(102, 80, 25)" stroke-opacity="0.5018009" stroke-linecap="round" stroke-linejoin="round"/>
    <path d="M 99.5943832397461 79.12931060791016 C 96.61309051513672 84.40572357177734 101.44742584228516 89.59471130371094 101.49213409423828 85.70452117919922" stroke-width="1.2129446268081665" fill="none" stroke="rgb(162, 179, 27)" stroke-opacity="0.9643451" stroke-linecap="round" stroke-linejoin="round"/>
    <path d="M 55.088497161865234 6.377549648284912 C 56.17448806762695 0.45215103030204773 56.06117248535156 6.5030388832092285 59.645782470703125 1.626968502998352 C 60.824546813964844 -2.64582896232605 57.07716369628906 -4.16829252243042 51.96165084838867 -3.0924205780029297 C 50.347206115722656 -0.7695397138595581 49.9979362487793 3.938457727432251 52.738304138183594 6.766770839691162" stroke-width="1.1026785373687744" fill="none" stroke="rgb(250, 10, 221)" stroke-opacity="0.53307796" stroke-linecap="round" stroke-linejoin="round"/>
    <path d="M 60.520782470703125 83.24801635742188 C 59.63444519042969 82.01982879638672 60.86237716674805 82.0872802734375 58.38471603393555 75.93121337890625 C 62.07828903198242 73.94698333740234 66.02739715576172 71.81820678710938 71.10697174072266 74.21479034423828" stroke-width="1.1026785373687744" fill="none" stroke="rgb(52, 68, 214)" stroke-opacity="0.02973922" stroke-linecap="round" stroke-linejoin="round"/>
    <path d="M 67.9998779296875 86.87982940673828 C 69.90983581542969 86.99042510986328 75.16383361816406 87.0556869506836 73.63638305664062 90.48697662353516" stroke-width="1.1026785373687744" fill="none" stroke="rgb(60, 124, 220)" stroke-opacity="0.12427835" stroke-linecap="round" stroke-linejoin="round"/>
    <path d="M 57.367347717285156 104.61343383789062 C 61.91033935546875 105.9787826538086 67.72740173339844 102.91382598876953 64.87694549560547 104.7081527709961" stroke-width="1.1026785373687744" fill="none" stroke="rgb(199, 31, 156)" stroke-opacity="0.7336038" stroke-linecap="round" stroke-linejoin="round"/>
    <path d="M 92.78964233398438 27.428226470947266 C 90.55168151855469 31.654605865478516 88.7707748413086 35.29304885864258 85.66322326660156 30.158287048339844 C 84.6591796875 27.462955474853516 79.37061309814453 30.58928871154785 82.56887817382812 25.837841033935547" stroke-width="1.2129462957382202" fill="none" stroke="rgb(241, 214, 132)" stroke-opacity="0.88058174" stroke-linecap="round" stroke-linejoin="round"/>
    <path d="M 89.73175811767578 100.7470474243164 C 86.39529418945312 100.37692260742188 91.44994354248047 94.59056091308594 87.7529067993164 92.44525909423828 C 87.76094818115234 95.50189971923828 82.51472473144531 91.74234771728516 86.99573516845703 98.06867218017578" stroke-width="1.1026785373687744" fill="none" stroke="rgb(59, 49, 122)" stroke-opacity="0.25640616" stroke-linecap="round" stroke-linejoin="round"/>
    <path d="M 122.29513549804688 45.4926872253418 C 121.59596252441406 42.90772247314453 122.25182342529297 38.382816314697266 124.48137664794922 41.58255386352539 C 123.14751434326172 45.03620147705078 127.21422576904297 41.547645568847656 129.92483520507812 44.83317184448242" stroke-width="1.1026785373687744" fill="none" stroke="rgb(100, 228, 158)" stroke-opacity="0.4235984" stroke-linecap="round" stroke-linejoin="round"/>
    <path d="M 108.24510192871094 89.03143310546875 C 105.72264862060547 94.39558410644531 107.53557586669922 95.37975311279297 103.76490783691406 91.10549926757812 C 102.98685455322266 95.88697814941406 102.4555892944336 90.31336212158203 108.50249481201172 86.37699127197266 C 111.82434844970703 91.94677734375 116.57334899902344 92.14470672607422 114.96708679199219 90.22468566894531" stroke-width="1.1026785373687744" fill="none" stroke="rgb(207, 231, 41)" stroke-opacity="0.41575292" stroke-linecap="round" stroke-linejoin="round"/>
    <path d="M 0.7992913722991943 101.3333969116211 C 2.5011823177337646 103.26161193847656 -0.41982758045196533 109.3871841430664 -4.777133941650391 102.88128662109375 C -1.9145503044128418 97.9146957397461 -2.464010715484619 93.53346252441406 1.6814860105514526 91.7039794921875 C 5.056859016418457 92.64558410644531 8.612824440002441 92.85148620605469 4.398383140563965 93.4190902709961" stroke-width="1.1026785373687744" fill="none" stroke="rgb(139, 70, 147)" stroke-opacity="0.7416301" stroke-linecap="round" stroke-linejoin="round"/>
    <path d="M 98.35491943359375 19.364791870117188 C 101.09137725830078 20.575597763061523 103.39378356933594 21.322175979614258 102.4749526977539 25.021093368530273" stroke-width="1.1026785373687744" fill="none" stroke="rgb(197, 222, 173)" stroke-opacity="0.11729963" stroke-linecap="round" stroke-linejoin="round"/>
    <path d="M 57.73139190673828 114.91189575195312 C 52.900577545166016 119.65965270996094 48.406002044677734 114.73846435546875 43.482540130615234 110.76786804199219 C 47.75806427001953 113.19766998291016 51.563697814941406 115.33033752441406 48.12985610961914 109.73941802978516 C 45.01002502441406 114.88856506347656 48.92257308959961 109.68306732177734 46.27881622314453 116.36915588378906" stroke-width="1.1026785373687744" fill="none" stroke="rgb(185, 35, 199)" stroke-opacity="0.20398517" stroke-linecap="round" stroke-linejoin="round"/>
    <path d="M 18.78953742980957 90.48168182373047 C 12.352643966674805 87.44831848144531 14.950318336486816 81.73082733154297 17.66798210144043 76.76016235351562 C 24.11039161682129 73.75572204589844 18.98595428466797 77.51404571533203 24.2979793548584 78.1716537475586 C 18.856290817260742 77.22807312011719 18.203075408935547 76.94799041748047 22.15584373474121 71.4475326538086" stroke-width="1.2129461765289307" fill="none" stroke="rgb(70, 55, 105)" stroke-opacity="0.8319988" stroke-linecap="round" stroke-linejoin="round"/>
    <path d="M 108.02448272705078 117.29935455322266 C 104.80499267578125 123.9256820678711 110.50179290771484 121.57048797607422 112.90033721923828 117.69127655029297 C 109.9886703491211 111.31208801269531 111.10832977294922 114.6371841430664 107.55720520019531 113.34716796875" stroke-width="1.1026785373687744" fill="none" stroke="rgb(172, 210, 114)" stroke-opacity="0.34760934" stroke-linecap="round" stroke-linejoin="round"/>
    <path d="M 61.537837982177734 16.408910751342773 C 60.379371643066406 21.550601959228516 59.04779815673828 22.099504470825195 61.10601806640625 21.164108276367188 C 55.29553985595703 17.1862850189209 50.210289001464844 14.869197845458984 44.83454513549805 16.297821044921875 C 41.58897399902344 17.226940155029297 44.24274444580078 22.754043579101562 48.481536865234375 17.297121047973633" stroke-width="1.2129380702972412" fill="none" stroke="rgb(166, 219, 205)" stroke-opacity="0.38543278" stroke-linecap="round" stroke-linejoin="round"/>
    <path d="M 25.835800170898438 28.13597297668457 C 28.429948806762695 26.057443618774414 28.4996280670166 31.498655319213867 23.42428970336914 28.161813735961914 C 29.172412872314453 29.296964645385742 28.146652221679688 26.568876266479492 25.684711456298828 29.31259536743164" stroke-width="1.1026785373687744" fill="none" stroke="rgb(25, 74, 83)" stroke-opacity="0.6962761" stroke-linecap="round" stroke-linejoin="round"/>
    <path d="M 88.36079406738281 23.694093704223633 C 86.53387451171875 24.442943572998047 85.81005859375 30.1453914642334 90.02226257324219 24.291202545166016 C 92.57209777832031 29.030189514160156 91.85940551757812 28.954753875732422 89.32622528076172 27.332338333129883 C 83.73567199707031 24.78812599182129 79.52898406982422 20.634986877441406 84.65937805175781 16.692625045776367" stroke-width="1.2129461765289307" fill="none" stroke="rgb(138, 173, 174)" stroke-opacity="0.7040011" stroke-linecap="round" stroke-linejoin="round"/>
    <path d="M 96.27045440673828 11.796123504638672 C 97.37054443359375 9.011017799377441 101.41937255859375 15.009285926818848 106.73078155517578 11.105855941772461 C 101.15447235107422 5.4730448722839355 103.5489273071289 10.747965812683105 100.18202209472656 12.760397911071777" stroke-width="1.1026785373687744" fill="none" stroke="rgb(2, 225, 16)" stroke-opacity="0.7232483" stroke-linecap="round" stroke-linejoin="round"/>
    <path d="M 51.5327033996582 39.59852600097656 C 55.16939163208008 43.984588623046875 59.53731155395508 48.53843688964844 55.399925231933594 45.0704345703125 C 54.661563873291016 39.343021392822266 59.380828857421875 36.91933822631836 62.608909606933594 41.827064514160156 C 60.55845260620117 40.723785400390625 54.74695587158203 46.76573181152344 57.900394439697266 47.40711975097656" stroke-width="1.1026785373687744" fill="none" stroke="rgb(118, 178, 149)" stroke-opacity="0.4142001" stroke-linecap="round" stroke-linejoin="round"/>
    <path d="M 40.561607360839844 57.96675109863281 C 39.905921936035156 54.42155075073242 34.13918685913086 49.57961654663086 33.74379348754883 45.635475158691406 C 28.329185485839844 42.27675247192383 32.21500778198242 47.5355339050293 30.522632598876953 43.40731430053711" stroke-width="1.2129460573196411" fill="none" stroke="rgb(62, 208, 28)" stroke-opacity="0.5197996" stroke-linecap="round" stroke-linejoin="round"/>
    <path d="M 3.3590524196624756 13.211822509765625 C 6.952603816986084 14.209687232971191 11.668761253356934 13.019068717956543 11.120939254760742 11.505970001220703 C 16.204851150512695 17.03630256652832 17.17780113220215 17.583600997924805 16.718332290649414 13.802472114562988" stroke-width="1.1026785373687744" fill="none" stroke="rgb(182, 189, 211)" stroke-opacity="0.32359332" stroke-linecap="round" stroke-linejoin="round"/>
    <path d="M 73.41022491455078 40.62469482421875 C 76.5002670288086 38.21330261230469 75.16014862060547 34.0274543762207 69.07564544677734 35.56221389770508 C 68.68995666503906 36.07798767089844 73.3853759765625 40.6253662109375 73.42691040039062 41.64659118652344 C 76.21492767333984 37.33583450317383 72.41487884521484 36.927913665771484 72.75341033935547 40.29362869262695" stroke-width="1.2129446268081665" fill="none" stroke="rgb(51, 218, 41)" stroke-opacity="0.32471874" stroke-linecap="round" stroke-linejoin="round"/>
    <path d="M 21.72811508178711 18.91875457763672 C 20.609251022338867 23.18569564819336 18.706111907958984 23.338584899902344 13.539351463317871 28.222915649414062 C 16.328901290893555 32.23257827758789 18.377729415893555 32.33134841918945 17.7923526763916 34.6397590637207" stroke-width="1.2129446268081665" fill="none" stroke="rgb(40, 61, 0)" stroke-opacity="0.31897828" stroke-linecap="round" stroke-linejoin="round"/>
    <path d="M 15.127945899963379 120.3766098022461 C 11.606440544128418 114.31344604492188 12.280255317687988 118.03522491455078 8.596699714660645 123.65957641601562 C 14.261347770690918 123.03561401367188 11.401237487792969 121.32476043701172 6.6812639236450195 124.8591537475586 C 8.170677185058594 126.20622253417969 3.481732130050659 125.12893676757812 0.7996798157691956 125.3681640625" stroke-width="1.1026785373687744" fill="none" stroke="rgb(18, 241, 117)" stroke-opacity="0.42301154" stroke-linecap="round" stroke-linejoin="round"/>
    <path d="M 78.41565704345703 81.09329223632812 C 77.60427856445312 79.74796295166016 78.38235473632812 74.01406860351562 83.49639892578125 73.77284240722656" stroke-width="1.212937355041504" fill="none" stroke="rgb(177, 44, 76)" stroke-opacity="0.018168231" stroke-linecap="round" stroke-linejoin="round"/>
    <path d="M 19.780839920043945 63.36604309082031 C 19.66721534729004 63.58700942993164 17.626665115356445 58.25899124145508 15.571114540100098 64.00943756103516 C 15.77302074432373 61.804595947265625 21.024089813232422 56.819889068603516 16.960330963134766 57.75552749633789 C 21.477615356445312 58.96037292480469 21.391090393066406 62.05009078979492 23.901010513305664 58.28378677368164" stroke-width="1.2129461765289307" fill="none" stroke="rgb(28, 255, 30)" stroke-opacity="0.6341597" stroke-linecap="round" stroke-linejoin="round"/>
    <path d="M 101.00074768066406 51.38753890991211 C 101.47698974609375 47.46345138549805 101.02755737304688 52.016292572021484 106.99627685546875 50.802337646484375 C 106.17680358886719 47.06475067138672 110.67616271972656 45.96140670776367 106.71855926513672 42.32459259033203 C 110.3925552368164 43.61166763305664 114.26766204833984 48.64636993408203 115.08331298828125 44.271240234375" stroke-width="1.1026785373687744" fill="none" stroke="rgb(68, 14, 210)" stroke-opacity="0.92478013" stroke-linecap="round" stroke-linejoin="round"/>
    <path d="M 85.84252166748047 95.53266906738281 C 91.25385284423828 100.02701568603516 91.17051696777344 96.05773162841797 91.08307647705078 90.67604064941406" stroke-width="1.2129460573196411" fill="none" stroke="rgb(204, 122, 87)" stroke-opacity="0.5064813" stroke-linecap="round" stroke-linejoin="round"/>
  </g>
</svg>
