<?xml version="1.0" ?>
<svg xmlns="http://www.w3.org/2000/svg" version="1.1" width="956.0" height="956.0">
  <defs/>
  <g>
    <path d="M 106.64127349853516 107.08049011230469 C 110.73410034179688 136.87281799316406 109.95518493652344 150.5375518798828 111.00090789794922 170.03009033203125" stroke-width="6.013984680175781" fill="none" stroke="rgb(107, 106, 106)" stroke-opacity="1.0" stroke-linecap="round" stroke-linejoin="round"/>
    <path d="M 71.05162048339844 158.28448486328125 C 85.03925323486328 149.4926300048828 91.97715759277344 147.93190002441406 109.20451354980469 139.90032958984375 C 120.29733276367188 141.4144744873047 143.5485076904297 141.05125427246094 150.85650634765625 138.9897003173828" stroke-width="5.955885887145996" fill="none" stroke="rgb(107, 106, 106)" stroke-opacity="1.0" stroke-linecap="round" stroke-linejoin="round"/>
    <path d="M 75.5067367553711 124.10128784179688 C 72.2768783569336 143.45010375976562 69.08733367919922 162.6260223388672 66.22350311279297 181.74378967285156" stroke-width="6.060330390930176" fill="none" stroke="rgb(146, 146, 146)" stroke-opacity="1.0" stroke-linecap="round" stroke-linejoin="round"/>
    <path d="M 125.87586975097656 125.46575164794922 C 130.04437255859375 155.25750732421875 129.3239288330078 168.9186553955078 130.1632843017578 188.4539794921875" stroke-width="5.9401445388793945" fill="none" stroke="rgb(146, 146, 146)" stroke-opacity="1.0" stroke-linecap="round" stroke-linejoin="round"/>
    <path d="M 150.06234741210938 108.75372314453125 C 151.64883422851562 132.1229705810547 152.97755432128906 151.53533935546875 154.25872802734375 171.6472625732422" stroke-width="6.0045342445373535" fill="none" stroke="rgb(146, 146, 146)" stroke-opacity="1.0" stroke-linecap="round" stroke-linejoin="round"/>
    <path d="M 71.09490966796875 158.23158264160156 C 89.1801528930664 162.69696044921875 108.90715026855469 160.29574584960938 128.48294067382812 158.31349182128906 C 139.60720825195312 153.45729064941406 146.8394317626953 149.4529571533203 152.37709045410156 143.8277130126953" stroke-width="5.986417293548584" fill="none" stroke="rgb(146, 146, 146)" stroke-opacity="1.0" stroke-linecap="round" stroke-linejoin="round"/>
    <path d="M 133.0444793701172 125.29593658447266 C 133.83514404296875 126.86822509765625 157.58203125 105.15730285644531 153.04823303222656 97.56522369384766 C 149.42445373535156 91.85890197753906 111.3351821899414 89.86027526855469 97.81547546386719 95.96222686767578 C 86.48394775390625 101.29176330566406 64.7827377319336 113.55288696289062 68.00250244140625 121.2689208984375 C 71.1043930053711 128.9932861328125 133.7349853515625 126.13055419921875 133.14401245117188 125.39109802246094" stroke-width="5.974454402923584" fill="none" stroke="rgb(135, 31, 27)" stroke-opacity="1.0" stroke-linecap="round" stroke-linejoin="round"/>
    <path d="M 140.088134765625 101.37049865722656 C 129.84222412109375 100.1278305053711 119.35160064697266 99.71675109863281 108.94442749023438 99.07183074951172 C 102.54790496826172 100.74016571044922 84.94763946533203 113.4141845703125 80.81591796875 116.51737976074219 C 93.89326477050781 117.2256088256836 123.01606750488281 104.53497314453125 133.45016479492188 111.03195190429688" stroke-width="20.077531814575195" fill="none" stroke="rgb(238, 0, 0)" stroke-opacity="1.0" stroke-linecap="round" stroke-linejoin="round"/>
    <path d="M 81.81428527832031 121.53074645996094 C 115.58351135253906 126.03329467773438 140.893798828125 122.36483764648438 146.7711944580078 104.0345687866211" stroke-width="9.934436798095703" fill="none" stroke="rgb(102, 23, 21)" stroke-opacity="1.0" stroke-linecap="round" stroke-linejoin="round"/>
    <path d="M 110.39315032958984 142.66680908203125 C 107.92179870605469 131.4317626953125 97.87214660644531 137.14089965820312 110.03328704833984 135.59751892089844 C 98.36073303222656 145.5998992919922 100.24256134033203 138.630615234375 104.62755584716797 131.52232360839844" stroke-width="3.643254280090332" fill="none" stroke="rgb(161, 21, 42)" stroke-opacity="0.89694524" stroke-linecap="round" stroke-linejoin="round"/>
    <path d="M 113.37535858154297 173.13714599609375 C 115.21898651123047 182.9435272216797 104.52179718017578 177.06521606445312 85.3150863647461 170.18003845214844 C 92.99623107910156 190.36936950683594 89.706787109375 190.5497589111328 83.17113494873047 188.01515197753906 C 79.98258209228516 176.32884216308594 67.90538024902344 174.21253967285156 72.99613952636719 181.59080505371094" stroke-width="2.0" fill="none" stroke="rgb(47, 191, 143)" stroke-opacity="0.41769367" stroke-linecap="round" stroke-linejoin="round"/>
    <path d="M 77.673828125 111.97338104248047 C 80.27050018310547 107.86366271972656 81.0592269897461 119.20130920410156 73.5514144897461 125.6506118774414" stroke-width="2.0" fill="none" stroke="rgb(31, 59, 208)" stroke-opacity="0.41730252" stroke-linecap="round" stroke-linejoin="round"/>
    <path d="M 63.455814361572266 116.94335174560547 C 73.94849395751953 113.90229797363281 85.48543548583984 114.26480102539062 82.03176879882812 123.3218002319336 C 89.93028259277344 121.54566192626953 90.74584197998047 118.46743774414062 92.27618408203125 112.47820281982422 C 95.89387512207031 98.62899780273438 84.37055206298828 100.36910247802734 91.54367065429688 89.32697296142578" stroke-width="4.360203742980957" fill="none" stroke="rgb(255, 224, 210)" stroke-opacity="0.59792954" stroke-linecap="round" stroke-linejoin="round"/>
    <path d="M 82.35957336425781 113.2939453125 C 68.97454071044922 118.36498260498047 79.81107330322266 131.8525390625 84.97272491455078 136.51022338867188 C 97.69889831542969 143.91207885742188 94.5663833618164 149.5495147705078 97.87052154541016 153.48985290527344" stroke-width="2.0" fill="none" stroke="rgb(99, 169, 67)" stroke-opacity="0.0" stroke-linecap="round" stroke-linejoin="round"/>
    <path d="M 59.58843231201172 126.09246826171875 C 52.202579498291016 122.41453552246094 48.85479736328125 110.9930648803711 42.72470474243164 103.12779998779297 C 36.96302032470703 91.33547973632812 34.474082946777344 86.90390014648438 28.12317657470703 83.3982162475586" stroke-width="2.833782911300659" fill="none" stroke="rgb(255, 113, 59)" stroke-opacity="0.1391585" stroke-linecap="round" stroke-linejoin="round"/>
    <path d="M 25.085796356201172 87.23028564453125 C 34.49930953979492 78.60016632080078 40.26523208618164 69.0194091796875 47.44032669067383 63.86140060424805" stroke-width="2.0" fill="none" stroke="rgb(58, 70, 81)" stroke-opacity="0.7008104" stroke-linecap="round" stroke-linejoin="round"/>
    <path d="M 70.66154479980469 121.60564422607422 C 80.80815887451172 120.32197570800781 82.10110473632812 113.31951141357422 74.83824920654297 104.42080688476562 C 64.67680358886719 102.96382141113281 67.0464096069336 105.77798461914062 64.77640533447266 116.02152252197266" stroke-width="4.856667995452881" fill="none" stroke="rgb(238, 0, 25)" stroke-opacity="1.0" stroke-linecap="round" stroke-linejoin="round"/>
    <path d="M 92.25147247314453 85.35906982421875 C 100.74177551269531 79.9819107055664 102.13493347167969 79.88029479980469 91.72847747802734 84.96209716796875 C 97.69914245605469 78.82484436035156 100.33390808105469 74.33419036865234 109.5403823852539 74.04362487792969" stroke-width="2.0" fill="none" stroke="rgb(209, 147, 134)" stroke-opacity="0.27983892" stroke-linecap="round" stroke-linejoin="round"/>
    <path d="M 76.43936920166016 191.01123046875 C 68.92295837402344 191.75132751464844 61.86966323852539 194.28158569335938 68.1137466430664 203.1004638671875 C 73.74105834960938 216.252685546875 72.0117416381836 224.95791625976562 78.86709594726562 216.95863342285156" stroke-width="2.0" fill="none" stroke="rgb(186, 105, 253)" stroke-opacity="0.7678617" stroke-linecap="round" stroke-linejoin="round"/>
    <path d="M 99.59149932861328 149.47390747070312 C 107.76309967041016 146.21914672851562 99.06658172607422 137.25448608398438 100.18440246582031 142.9586639404297 C 90.0507583618164 143.2178955078125 97.31360626220703 131.84461975097656 103.25239562988281 145.0245819091797" stroke-width="2.0" fill="none" stroke="rgb(87, 155, 163)" stroke-opacity="0.5216597" stroke-linecap="round" stroke-linejoin="round"/>
    <path d="M 73.88623046875 191.44793701171875 C 63.45896911621094 190.80963134765625 67.28826904296875 203.0515899658203 70.92501068115234 211.82046508789062 C 87.0195541381836 203.5041046142578 87.99385070800781 196.97006225585938 79.72142028808594 199.28652954101562" stroke-width="2.5701773166656494" fill="none" stroke="rgb(137, 24, 250)" stroke-opacity="0.55009854" stroke-linecap="round" stroke-linejoin="round"/>
    <path d="M 166.76657104492188 33.145172119140625 C 163.67987060546875 35.09273910522461 156.7046661376953 35.224510192871094 163.6614990234375 38.15108108520508" stroke-width="5.085963726043701" fill="none" stroke="rgb(173, 21, 255)" stroke-opacity="0.21835566" stroke-linecap="round" stroke-linejoin="round"/>
    <path d="M 36.7747917175293 55.594581604003906 C 23.11463737487793 64.57569122314453 11.737364768981934 58.80895233154297 9.395242691040039 55.04716110229492 C 15.26662540435791 60.936153411865234 16.80509376525879 54.66312789916992 10.913960456848145 55.496421813964844" stroke-width="2.247126817703247" fill="none" stroke="rgb(88, 12, 90)" stroke-opacity="0.20213585" stroke-linecap="round" stroke-linejoin="round"/>
    <path d="M 30.726036071777344 201.8723907470703 C 19.597620010375977 201.2596435546875 28.05152702331543 197.18724060058594 35.578208923339844 208.9359893798828 C 46.193992614746094 200.79791259765625 38.87361145019531 199.947265625 48.16400909423828 206.5178680419922" stroke-width="3.329618453979492" fill="none" stroke="rgb(173, 112, 212)" stroke-opacity="0.6956892" stroke-linecap="round" stroke-linejoin="round"/>
    <path d="M 120.42664337158203 160.93980407714844 C 134.71652221679688 171.98876953125 136.60719299316406 169.557373046875 130.1027069091797 168.94140625" stroke-width="4.417049407958984" fill="none" stroke="rgb(218, 14, 31)" stroke-opacity="0.62574446" stroke-linecap="round" stroke-linejoin="round"/>
    <path d="M 142.39620971679688 10.82160472869873 C 146.08837890625 22.840999603271484 155.7996368408203 14.478072166442871 155.48435974121094 10.571252822875977 C 153.8896942138672 8.20463752746582 153.50192260742188 12.33262825012207 144.70188903808594 23.622894287109375" stroke-width="4.695165634155273" fill="none" stroke="rgb(255, 30, 0)" stroke-opacity="0.11590455" stroke-linecap="round" stroke-linejoin="round"/>
    <path d="M 119.02845001220703 24.389822006225586 C 124.24911499023438 22.868844985961914 118.47441101074219 26.5126895904541 118.54827880859375 20.141437530517578 C 119.78411865234375 30.274818420410156 119.92235565185547 32.52107238769531 118.6435546875 24.747365951538086" stroke-width="2.0" fill="none" stroke="rgb(162, 124, 73)" stroke-opacity="0.21272653" stroke-linecap="round" stroke-linejoin="round"/>
    <path d="M 118.44953918457031 23.4888973236084 C 121.60465240478516 28.91509437561035 118.992431640625 28.31744956970215 117.64691925048828 20.277637481689453 C 103.14048767089844 29.06867027282715 100.40553283691406 27.14737319946289 110.33297729492188 40.47170639038086 C 112.40191650390625 48.71377182006836 117.35724639892578 61.52529525756836 115.90172576904297 57.143470764160156" stroke-width="2.0" fill="none" stroke="rgb(222, 117, 65)" stroke-opacity="0.61826116" stroke-linecap="round" stroke-linejoin="round"/>
    <path d="M 148.94261169433594 145.8490447998047 C 136.44497680664062 140.0791473388672 130.3387908935547 148.49420166015625 126.47138977050781 154.7936248779297 C 132.14720153808594 149.2409210205078 131.11196899414062 142.05197143554688 135.16598510742188 142.54100036621094 C 129.03936767578125 149.09661865234375 126.34395599365234 142.7861785888672 120.26968383789062 145.0879364013672" stroke-width="2.0" fill="none" stroke="rgb(191, 134, 162)" stroke-opacity="0.6608203" stroke-linecap="round" stroke-linejoin="round"/>
    <path d="M 203.60775756835938 180.89031982421875 C 210.68975830078125 188.62628173828125 207.42263793945312 188.703857421875 212.36727905273438 181.0316162109375" stroke-width="2.0" fill="none" stroke="rgb(236, 184, 73)" stroke-opacity="0.8327931" stroke-linecap="round" stroke-linejoin="round"/>
    <path d="M 188.48362731933594 188.3844451904297 C 195.13172912597656 195.64862060546875 188.46749877929688 192.19509887695312 178.2960205078125 177.1864471435547" stroke-width="3.2066972255706787" fill="none" stroke="rgb(242, 129, 48)" stroke-opacity="0.4479156" stroke-linecap="round" stroke-linejoin="round"/>
    <path d="M 21.534425735473633 132.28697204589844 C 24.113704681396484 142.5119171142578 27.52927017211914 158.19302368164062 27.43429946899414 155.1191864013672 C 35.49036407470703 163.3804168701172 25.011945724487305 158.5959014892578 24.74759864807129 156.610595703125" stroke-width="2.2569990158081055" fill="none" stroke="rgb(65, 255, 226)" stroke-opacity="0.40573746" stroke-linecap="round" stroke-linejoin="round"/>
  </g>
</svg>
