<?xml version="1.0" ?>
<svg xmlns="http://www.w3.org/2000/svg" version="1.1" width="956.0" height="956.0">
  <defs/>
  <g>
    <path d="M 447.4070129394531 322.5541687011719 C 451.19146728515625 317.4295959472656 449.9471740722656 312.280029296875 453.1202087402344 308.4423828125 C 456.0731506347656 299.1114807128906 466.46002197265625 302.77325439453125 485.8898620605469 295.896484375 C 512.1083984375 293.3600158691406 555.2116088867188 291.3099365234375 580.5392456054688 285.0082092285156 C 608.1244506835938 280.21868896484375 620.4421997070312 271.9541320800781 628.28857421875 278.5340270996094 C 629.5138549804688 299.6431884765625 634.8321533203125 334.4429016113281 637.71484375 357.7699279785156 C 637.5577392578125 383.658935546875 636.37744140625 397.6695556640625 644.1979370117188 410.6910705566406 C 636.4428100585938 416.79022216796875 593.2998657226562 454.686279296875 549.0100708007812 490.5104064941406" stroke-width="8.975621223449707" fill="none" stroke="rgb(33, 22, 22)" stroke-opacity="0.98061454" stroke-linecap="round" stroke-linejoin="round"/>
    <path d="M 814.147216796875 773.2301025390625 C 823.292236328125 767.9484252929688 839.3612060546875 768.5708618164062 848.7826538085938 764.8997192382812 C 850.2227783203125 754.47119140625 853.1444091796875 779.2178955078125 854.702392578125 796.7069091796875" stroke-width="8.535714149475098" fill="none" stroke="rgb(174, 10, 47)" stroke-opacity="0.5418316" stroke-linecap="round" stroke-linejoin="round"/>
    <path d="M 480.1158142089844 287.74407958984375 C 519.4246826171875 266.1960144042969 559.294921875 251.36038208007812 574.218017578125 263.3356628417969 C 591.0856323242188 273.3601379394531 579.6119995117188 318.5765075683594 566.00390625 357.1494445800781 C 551.40869140625 401.8236389160156 504.46197509765625 360.3111267089844 451.6641845703125 326.064697265625" stroke-width="9.172761917114258" fill="none" stroke="rgb(20, 198, 183)" stroke-opacity="0.32375968" stroke-linecap="round" stroke-linejoin="round"/>
    <path d="M 633.10888671875 402.0252380371094 C 643.7191162109375 377.9894714355469 656.252685546875 356.5849914550781 664.5092163085938 331.1014709472656 C 675.8162231445312 308.6302490234375 646.661376953125 340.686279296875 617.93505859375 373.51483154296875" stroke-width="8.535714149475098" fill="none" stroke="rgb(170, 70, 191)" stroke-opacity="0.589585" stroke-linecap="round" stroke-linejoin="round"/>
    <path d="M 494.03564453125 294.80322265625 C 482.5086364746094 297.0650329589844 472.06085205078125 299.7403564453125 459.9048767089844 297.0084533691406 C 453.2489318847656 300.303955078125 452.2623596191406 295.5408020019531 451.5426025390625 299.0934143066406" stroke-width="8.535714149475098" fill="none" stroke="rgb(151, 23, 218)" stroke-opacity="0.5780613" stroke-linecap="round" stroke-linejoin="round"/>
    <path d="M 620.5907592773438 278.9156188964844 C 625.174072265625 290.1236267089844 621.518798828125 294.21258544921875 614.01416015625 295.046142578125 C 610.9607543945312 298.9203796386719 605.4794921875 352.40570068359375 596.7029418945312 402.5108642578125" stroke-width="8.535714149475098" fill="none" stroke="rgb(106, 147, 84)" stroke-opacity="0.6334257" stroke-linecap="round" stroke-linejoin="round"/>
    <path d="M 590.0316162109375 283.6571350097656 C 586.0811767578125 307.8224182128906 584.0899047851562 326.2265930175781 581.9171142578125 344.4017333984375 C 579.1061401367188 362.0598449707031 550.5437622070312 359.7974853515625 522.0878295898438 367.63720703125" stroke-width="9.094290733337402" fill="none" stroke="rgb(221, 158, 72)" stroke-opacity="0.015902024" stroke-linecap="round" stroke-linejoin="round"/>
    <path d="M 635.6546630859375 405.7618713378906 C 646.0001831054688 402.4002685546875 652.9793701171875 398.1773986816406 640.6282348632812 390.531494140625 C 635.2039184570312 388.7082824707031 605.1784057617188 392.8525390625 584.096923828125 392.5865783691406 C 558.5831298828125 384.2748107910156 570.0573120117188 400.2277526855469 580.4065551757812 414.6022033691406" stroke-width="9.124872207641602" fill="none" stroke="rgb(221, 86, 135)" stroke-opacity="0.8936893" stroke-linecap="round" stroke-linejoin="round"/>
    <path d="M 639.6835327148438 352.2197570800781 C 653.3535766601562 359.05963134765625 664.6156005859375 368.4472351074219 677.8814086914062 374.7967529296875 C 691.4478759765625 382.89849853515625 684.01708984375 341.3160095214844 679.6913452148438 299.0970764160156" stroke-width="8.697022438049316" fill="none" stroke="rgb(204, 253, 95)" stroke-opacity="0.688475" stroke-linecap="round" stroke-linejoin="round"/>
    <path d="M 449.409423828125 309.9818420410156 C 458.8094482421875 291.4343566894531 468.2359313964844 272.8011474609375 477.4019470214844 254.0642547607422 C 490.2590026855469 238.0944366455078 450.9442138671875 269.0534362792969 411.16485595703125 298.59808349609375" stroke-width="9.254240989685059" fill="none" stroke="rgb(194, 71, 26)" stroke-opacity="0.6324262" stroke-linecap="round" stroke-linejoin="round"/>
    <path d="M 447.20404052734375 326.629638671875 C 410.3644714355469 315.6518859863281 415.9887390136719 315.6619873046875 435.8205261230469 290.16534423828125" stroke-width="9.315082550048828" fill="none" stroke="rgb(236, 35, 185)" stroke-opacity="0.4632151" stroke-linecap="round" stroke-linejoin="round"/>
    <path d="M 455.30413818359375 317.70123291015625 C 456.54595947265625 297.3055114746094 457.4995422363281 276.30084228515625 460.9256286621094 256.33990478515625 C 466.224853515625 240.6638641357422 455.0648498535156 264.3191223144531 442.9519958496094 286.21356201171875" stroke-width="10.661510467529297" fill="none" stroke="rgb(41, 138, 218)" stroke-opacity="0.8333852" stroke-linecap="round" stroke-linejoin="round"/>
    <path d="M 579.4270629882812 414.8421936035156 C 551.9711303710938 405.5279235839844 517.9764404296875 397.1834411621094 487.03167724609375 385.43218994140625 C 448.5730895996094 384.76348876953125 477.1483154296875 361.1896057128906 509.9541320800781 334.5246276855469" stroke-width="10.7846097946167" fill="none" stroke="rgb(42, 0, 235)" stroke-opacity="0.98998964" stroke-linecap="round" stroke-linejoin="round"/>
    <path d="M 454.97381591796875 319.14752197265625 C 447.8072509765625 308.041748046875 432.4649963378906 297.7215270996094 409.8207702636719 295.2191162109375 C 395.5963134765625 280.66375732421875 410.1692199707031 252.96051025390625 431.6567687988281 235.09133911132812" stroke-width="10.401013374328613" fill="none" stroke="rgb(119, 247, 125)" stroke-opacity="0.90481377" stroke-linecap="round" stroke-linejoin="round"/>
    <path d="M 511.7839050292969 376.5062561035156 C 479.8918151855469 326.4932861328125 456.4144592285156 268.1630554199219 447.2013244628906 259.67059326171875 C 442.0758361816406 243.4767608642578 463.507080078125 260.3191223144531 489.6060485839844 274.67083740234375 C 513.442626953125 289.3992614746094 466.6202392578125 295.16650390625 422.8976135253906 305.228515625" stroke-width="8.535714149475098" fill="none" stroke="rgb(106, 248, 54)" stroke-opacity="0.3776489" stroke-linecap="round" stroke-linejoin="round"/>
    <path d="M 633.641845703125 377.1954345703125 C 577.7581787109375 390.2882385253906 539.5118408203125 403.884033203125 549.3394165039062 364.0414733886719" stroke-width="8.535714149475098" fill="none" stroke="rgb(108, 219, 178)" stroke-opacity="0.90529555" stroke-linecap="round" stroke-linejoin="round"/>
    <path d="M 677.219970703125 304.0021667480469 C 646.6701049804688 330.2996826171875 608.7346801757812 350.7113037109375 568.328857421875 368.6469421386719 C 532.580810546875 391.218994140625 568.0094604492188 371.6187438964844 601.71826171875 350.61260986328125" stroke-width="8.535714149475098" fill="none" stroke="rgb(104, 154, 23)" stroke-opacity="0.9193832" stroke-linecap="round" stroke-linejoin="round"/>
    <path d="M 622.2911987304688 379.7334899902344 C 648.7183227539062 399.06524658203125 680.7064208984375 412.7377014160156 692.9432373046875 421.04498291015625 C 702.6409301757812 422.16162109375 695.0140380859375 404.3339538574219 692.8474731445312 386.43896484375 C 690.7960205078125 359.9753723144531 688.05029296875 372.9757080078125 686.6937255859375 387.5176086425781" stroke-width="8.535714149475098" fill="none" stroke="rgb(131, 167, 117)" stroke-opacity="0.5507534" stroke-linecap="round" stroke-linejoin="round"/>
    <path d="M 724.5095825195312 734.8170166015625 C 714.910400390625 724.4495239257812 713.1641845703125 716.0877075195312 716.6722412109375 703.6234741210938 C 717.665771484375 698.1348876953125 699.9050903320312 710.5100708007812 683.9390869140625 726.4788818359375" stroke-width="8.705933570861816" fill="none" stroke="rgb(227, 105, 120)" stroke-opacity="0.64784235" stroke-linecap="round" stroke-linejoin="round"/>
    <path d="M 747.4691162109375 735.3308715820312 C 788.4483642578125 733.9857177734375 749.8988037109375 698.117919921875 770.9959106445312 692.151123046875" stroke-width="9.37529182434082" fill="none" stroke="rgb(117, 95, 215)" stroke-opacity="0.90730083" stroke-linecap="round" stroke-linejoin="round"/>
    <path d="M 728.5701293945312 763.8450927734375 C 703.6893920898438 758.8385620117188 688.1897583007812 750.21630859375 673.7600708007812 744.9996948242188 C 659.8583374023438 731.2930908203125 626.6663208007812 693.494384765625 601.6455078125 647.4624633789062" stroke-width="8.535714149475098" fill="none" stroke="rgb(50, 44, 33)" stroke-opacity="0.6451428" stroke-linecap="round" stroke-linejoin="round"/>
    <path d="M 694.003662109375 394.2592468261719 C 655.2977294921875 406.7362060546875 616.774658203125 420.7946472167969 597.7470092773438 415.2470397949219 C 579.294189453125 411.8634033203125 580.1288452148438 384.837890625 589.643798828125 360.48687744140625 C 590.9340209960938 334.0812683105469 607.9662475585938 320.42901611328125 632.0504150390625 314.265869140625" stroke-width="9.538714408874512" fill="none" stroke="rgb(215, 157, 136)" stroke-opacity="0.5381545" stroke-linecap="round" stroke-linejoin="round"/>
    <path d="M 276.8228759765625 877.955322265625 C 287.9752197265625 909.741943359375 297.8863525390625 935.0291748046875 292.62109375 930.1988525390625 C 272.15460205078125 932.8287353515625 236.28097534179688 921.7100219726562 200.6043243408203 901.9966430664062 C 164.71397399902344 882.6649780273438 230.24205017089844 888.875 287.814208984375 888.612548828125" stroke-width="8.535714149475098" fill="none" stroke="rgb(99, 6, 255)" stroke-opacity="0.24186109" stroke-linecap="round" stroke-linejoin="round"/>
    <path d="M 80.30542755126953 318.49774169921875 C 80.47100067138672 286.8045654296875 117.52312469482422 267.5358581542969 107.4187240600586 220.2249298095703" stroke-width="9.204275131225586" fill="none" stroke="rgb(236, 7, 223)" stroke-opacity="0.12666668" stroke-linecap="round" stroke-linejoin="round"/>
    <path d="M 507.58514404296875 743.9992065429688 C 503.79150390625 740.1187744140625 491.6564636230469 745.0213623046875 471.18072509765625 741.4615478515625 C 456.6266174316406 731.572998046875 417.3309631347656 729.387939453125 374.4562072753906 730.6257934570312 C 342.46258544921875 720.729736328125 372.91168212890625 764.0701293945312 403.1258544921875 806.6340942382812" stroke-width="8.535714149475098" fill="none" stroke="rgb(145, 151, 88)" stroke-opacity="0.3061008" stroke-linecap="round" stroke-linejoin="round"/>
    <path d="M 839.7981567382812 689.553466796875 C 885.3732299804688 684.9147338867188 870.1986083984375 678.1100463867188 865.8438720703125 704.803955078125" stroke-width="8.535714149475098" fill="none" stroke="rgb(89, 171, 43)" stroke-opacity="0.48622823" stroke-linecap="round" stroke-linejoin="round"/>
    <path d="M 748.3604125976562 326.7759704589844 C 755.4425048828125 313.19134521484375 763.0499267578125 287.0937805175781 758.8877563476562 297.5765075683594 C 762.9075317382812 316.072509765625 763.3477783203125 357.0230712890625 769.122314453125 394.4903564453125 C 772.3953247070312 435.5948791503906 777.2421264648438 433.576416015625 785.8209838867188 432.4359130859375" stroke-width="8.535714149475098" fill="none" stroke="rgb(56, 140, 253)" stroke-opacity="0.44416812" stroke-linecap="round" stroke-linejoin="round"/>
    <path d="M 913.0114135742188 388.6276550292969 C 955.6148071289062 351.9334411621094 930.9710693359375 312.84344482421875 878.072509765625 356.4261474609375" stroke-width="8.911128044128418" fill="none" stroke="rgb(191, 213, 21)" stroke-opacity="0.2970595" stroke-linecap="round" stroke-linejoin="round"/>
    <path d="M 748.058349609375 200.37974548339844 C 779.2833251953125 198.16285705566406 807.4110107421875 200.56971740722656 803.2313842773438 195.99269104003906 C 798.5843505859375 198.3250274658203 762.7100830078125 204.7508544921875 724.5401000976562 210.59547424316406 C 687.1948852539062 212.4930877685547 689.4885864257812 218.2604522705078 692.0221557617188 231.9490509033203" stroke-width="8.980635643005371" fill="none" stroke="rgb(30, 10, 108)" stroke-opacity="0.39901885" stroke-linecap="round" stroke-linejoin="round"/>
    <path d="M 184.0440673828125 250.33177185058594 C 187.42324829101562 289.50177001953125 142.8221893310547 269.07867431640625 171.34266662597656 303.55743408203125" stroke-width="8.535714149475098" fill="none" stroke="rgb(53, 51, 118)" stroke-opacity="0.7839892" stroke-linecap="round" stroke-linejoin="round"/>
    <path d="M 296.9356994628906 147.41592407226562 C 255.5035400390625 117.21912384033203 247.10992431640625 127.7015151977539 211.6774444580078 96.30836486816406" stroke-width="8.535714149475098" fill="none" stroke="rgb(75, 103, 62)" stroke-opacity="0.15328705" stroke-linecap="round" stroke-linejoin="round"/>
    <path d="M 843.4622802734375 620.914794921875 C 852.5198974609375 626.5765991210938 861.8782958984375 626.9491577148438 872.9491577148438 629.2511596679688 C 877.7855834960938 623.3551025390625 875.9496459960938 633.5838623046875 874.3087158203125 639.0726318359375 C 871.6289672851562 636.90185546875 901.02490234375 642.1499633789062 925.987548828125 648.9031372070312" stroke-width="8.535714149475098" fill="none" stroke="rgb(4, 109, 67)" stroke-opacity="0.26073658" stroke-linecap="round" stroke-linejoin="round"/>
    <path d="M 374.8892517089844 99.57620239257812 C 377.04632568359375 51.480384826660156 387.2937316894531 17.265806198120117 390.2598876953125 -23.962512969970703 C 384.7845153808594 -65.27565002441406 404.13726806640625 -22.659358978271484 430.23138427734375 12.189659118652344" stroke-width="10.350262641906738" fill="none" stroke="rgb(245, 4, 228)" stroke-opacity="0.83488667" stroke-linecap="round" stroke-linejoin="round"/>
  </g>
</svg>
