<?xml version="1.0" ?>
<svg xmlns="http://www.w3.org/2000/svg" version="1.1" width="956.0" height="956.0">
  <defs/>
  <g>
    <path d="M 106.26604461669922 49.045345306396484 C 102.85475158691406 53.57595443725586 83.79981231689453 57.2264404296875 81.76953125 58.279232025146484 C 79.98456573486328 59.499794006347656 77.59844970703125 71.12592315673828 79.75016784667969 73.046142578125 C 82.13044738769531 74.9316177368164 90.4279556274414 70.66641235351562 95.90303802490234 75.33641052246094 C 108.96419525146484 86.74568939208984 112.5764389038086 98.94783020019531 129.2881622314453 73.71095275878906 C 130.821044921875 72.13011932373047 143.425537109375 76.71136474609375 144.3583526611328 75.3816909790039 C 145.48252868652344 73.85111999511719 147.97970581054688 63.349430084228516 144.07400512695312 61.102169036865234 C 140.1611785888672 58.92185592651367 120.47530364990234 53.12191390991211 118.90601348876953 50.048118591308594 C 117.31926727294922 46.96648025512695 119.53701782226562 42.040130615234375 113.04067993164062 42.159454345703125 C 106.14885711669922 41.70304870605469 107.69721984863281 43.80287170410156 107.14605712890625 47.03496170043945" stroke-width="6.506747722625732" fill="none" stroke="rgb(238, 209, 166)" stroke-opacity="1.0" stroke-linecap="round" stroke-linejoin="round"/>
    <path d="M 112.3814697265625 51.06343460083008 C 111.89844512939453 56.719818115234375 87.05901336669922 59.16569519042969 89.71599578857422 66.88856506347656 C 109.74232482910156 69.05751037597656 109.18437957763672 94.73416900634766 127.72323608398438 74.56348419189453 C 129.60768127441406 72.23047637939453 136.32664489746094 68.79849243164062 135.8146209716797 67.9303207397461 C 135.27447509765625 67.13539123535156 112.2647476196289 56.2515754699707 113.15914916992188 54.86317825317383" stroke-width="14.137324333190918" fill="none" stroke="rgb(239, 209, 167)" stroke-opacity="1.0" stroke-linecap="round" stroke-linejoin="round"/>
    <path d="M 111.64380645751953 68.97792053222656 C 105.11630249023438 73.52934265136719 107.96822357177734 88.3096694946289 109.3593978881836 88.42802429199219 C 110.93973541259766 88.73680114746094 114.47197723388672 72.83135986328125 114.61974334716797 70.36259460449219 C 114.76752471923828 68.29986572265625 104.57157135009766 71.47127532958984 104.71150207519531 72.82312774658203" stroke-width="25.40473175048828" fill="none" stroke="rgb(238, 209, 166)" stroke-opacity="1.0" stroke-linecap="round" stroke-linejoin="round"/>
    <path d="M 74.27894592285156 67.06842803955078 C 73.25737762451172 71.74402618408203 73.23966979980469 76.452392578125 74.4891128540039 76.22899627685547 C 75.53577423095703 76.0760269165039 74.1668472290039 70.66802978515625 75.64012145996094 70.49288177490234 C 77.56048583984375 70.12643432617188 76.67316436767578 75.6090316772461 77.70793914794922 75.20170593261719 C 78.71900177001953 74.65142059326172 77.44566345214844 70.62210083007812 79.67460632324219 71.91511535644531 C 81.8113021850586 73.61644744873047 81.81006622314453 76.25720977783203 84.08000183105469 74.38400268554688 C 86.12303161621094 72.51200103759766 86.3954849243164 72.2334213256836 87.2559814453125 73.0158462524414" stroke-width="5.160152435302734" fill="none" stroke="rgb(0, 113, 208)" stroke-opacity="1.0" stroke-linecap="round" stroke-linejoin="round"/>
    <path d="M 86.76107025146484 78.64595031738281 C 103.24674224853516 77.11941528320312 101.5946273803711 77.0759506225586 106.23690795898438 81.16558074951172 C 109.50544738769531 84.10648345947266 130.53892517089844 99.62220764160156 129.55545043945312 102.41070556640625 C 128.54721069335938 104.97067260742188 127.97291564941406 107.30583953857422 118.77789306640625 106.41576385498047 C 109.41139221191406 105.49988555908203 95.28530883789062 105.49229431152344 94.46660614013672 103.33308410644531 C 93.82250213623047 101.37857818603516 88.3976821899414 81.76696014404297 89.2955322265625 81.65888214111328 C 90.40718078613281 81.74976348876953 100.61261749267578 82.63007354736328 103.62309265136719 85.2342758178711 C 106.49456787109375 87.37360382080078 124.99806213378906 100.36795043945312 124.1055679321289 101.26499938964844 C 123.20641326904297 102.37936401367188 100.72280883789062 102.77094268798828 99.13679504394531 101.41707611083984 C 97.75548553466797 100.06504821777344 92.53572845458984 89.20113372802734 94.44496154785156 87.1570053100586 C 96.64908599853516 85.36631774902344 115.70465087890625 98.71874237060547 115.23490905761719 98.73161315917969 C 114.8314437866211 98.67850494384766 104.60646057128906 98.7309341430664 102.965087890625 97.98429870605469 C 101.3177261352539 97.54132080078125 99.25021362304688 94.00224304199219 99.9675521850586 92.76763153076172 C 100.54153442382812 91.30296325683594 103.80733489990234 96.77295684814453 104.9625244140625 96.14601135253906" stroke-width="5.165442943572998" fill="none" stroke="rgb(0, 111, 208)" stroke-opacity="1.0" stroke-linecap="round" stroke-linejoin="round"/>
    <path d="M 117.44706726074219 82.2929916381836 C 124.16268157958984 76.89510345458984 129.75527954101562 75.56501770019531 133.38917541503906 76.84737396240234 C 138.8751983642578 78.47747802734375 133.563720703125 96.67350006103516 132.65756225585938 97.15847778320312 C 131.56692504882812 97.63665771484375 122.04581451416016 86.45632934570312 121.68661499023438 85.19865417480469 C 121.10254669189453 83.7841796875 129.96380615234375 78.48200225830078 130.16220092773438 80.02481079101562 C 130.67861938476562 81.3921127319336 131.53564453125 90.22244262695312 130.63658142089844 89.70660400390625 C 129.77975463867188 89.1626968383789 124.4885482788086 85.95283508300781 126.34495544433594 84.35891723632812 C 128.27908325195312 82.73308563232422 127.8943099975586 83.5236587524414 128.022216796875 84.92332458496094" stroke-width="5.128860950469971" fill="none" stroke="rgb(0, 112, 208)" stroke-opacity="1.0" stroke-linecap="round" stroke-linejoin="round"/>
    <path d="M 139.2545166015625 71.74996185302734 C 148.702880859375 66.66887664794922 151.02809143066406 63.30952072143555 150.44737243652344 64.88602447509766 C 149.86618041992188 66.4583740234375 148.5392303466797 69.06053924560547 147.56600952148438 69.69525909423828 C 146.666259765625 70.43150329589844 147.6058807373047 73.28980255126953 145.70669555664062 73.55123138427734 C 143.7288818359375 73.79301452636719 139.58677673339844 73.90570831298828 141.01365661621094 72.89067840576172 C 142.25949096679688 71.81121063232422 143.8574981689453 72.79812622070312 145.10581970214844 71.25709533691406" stroke-width="5.139340877532959" fill="none" stroke="rgb(0, 112, 208)" stroke-opacity="1.0" stroke-linecap="round" stroke-linejoin="round"/>
    <path d="M 94.13211059570312 110.13645935058594 C 105.81967163085938 111.4991455078125 113.48184967041016 111.78494262695312 118.00033569335938 111.43368530273438 C 122.36209869384766 111.18019104003906 129.20309448242188 110.9597396850586 131.2233123779297 110.02312469482422" stroke-width="5.222738742828369" fill="none" stroke="rgb(0, 112, 208)" stroke-opacity="1.0" stroke-linecap="round" stroke-linejoin="round"/>
    <path d="M 75.33650970458984 61.53304672241211 C 76.25113677978516 64.94160461425781 76.30126190185547 69.68997192382812 86.46626281738281 71.14434051513672 C 96.50090789794922 72.83977508544922 98.90201568603516 72.50565338134766 103.71859741210938 75.53817749023438 C 108.62885284423828 78.4923095703125 130.01406860351562 97.093017578125 132.03372192382812 100.3750991821289 C 136.36868286132812 108.13660430908203 128.6358184814453 108.78843688964844 119.07991790771484 109.28701782226562 C 109.5594711303711 109.61480712890625 93.03187561035156 107.10110473632812 91.6318588256836 106.50069427490234 C 90.20549774169922 105.86254119873047 85.83832550048828 81.3871078491211 84.51097106933594 77.52090454101562" stroke-width="2.863433599472046" fill="none" stroke="rgb(0, 7, 93)" stroke-opacity="1.0" stroke-linecap="round" stroke-linejoin="round"/>
    <path d="M 76.0589599609375 60.55971908569336 C 73.49864196777344 63.23183059692383 70.32626342773438 67.7559585571289 70.72562408447266 69.22537994384766 C 70.90354919433594 70.63387298583984 69.81453704833984 73.85528564453125 71.47444152832031 74.30635833740234 C 73.10762786865234 74.69036865234375 71.83477783203125 79.38457489013672 73.47390747070312 79.95783996582031 C 75.01107025146484 80.3746566772461 81.1974105834961 77.17445373535156 89.8766860961914 75.16829681396484 C 98.5031967163086 73.4075698852539 98.79945373535156 73.80815124511719 101.92676544189453 74.97481536865234" stroke-width="2.838008403778076" fill="none" stroke="rgb(0, 9, 93)" stroke-opacity="1.0" stroke-linecap="round" stroke-linejoin="round"/>
    <path d="M 112.90367889404297 81.73796844482422 C 117.43082427978516 77.90538787841797 121.19859313964844 73.58049011230469 127.3265151977539 72.86690521240234 C 133.31385803222656 72.15186309814453 139.645751953125 73.85893249511719 139.7848358154297 78.8226089477539 C 140.23634338378906 83.95503234863281 134.19741821289062 102.78528594970703 133.35499572753906 105.65750122070312" stroke-width="2.868242025375366" fill="none" stroke="rgb(0, 9, 93)" stroke-opacity="1.0" stroke-linecap="round" stroke-linejoin="round"/>
    <path d="M 133.7401123046875 72.4430160522461 C 147.78085327148438 64.07234954833984 148.5944366455078 64.56464385986328 150.6107177734375 62.44282531738281" stroke-width="3.0161991119384766" fill="none" stroke="rgb(0, 8, 93)" stroke-opacity="1.0" stroke-linecap="round" stroke-linejoin="round"/>
    <path d="M 150.27969360351562 62.267784118652344 C 153.31219482421875 63.451988220214844 157.2733612060547 61.159996032714844 155.09625244140625 64.89842224121094 C 152.7150421142578 68.56041717529297 152.42127990722656 66.59672546386719 152.32809448242188 69.70549011230469 C 152.1950225830078 72.95511627197266 149.7264862060547 70.18801879882812 149.32518005371094 73.46952819824219 C 149.2963409423828 76.83964538574219 147.18540954589844 78.54391479492188 139.3204345703125 76.34246063232422" stroke-width="3.002408266067505" fill="none" stroke="rgb(0, 9, 93)" stroke-opacity="1.0" stroke-linecap="round" stroke-linejoin="round"/>
    <path d="M 90.8427734375 106.08647155761719 C 92.67427825927734 113.54525756835938 91.87931060791016 113.48430633544922 93.96875 114.02307891845703 C 96.05076599121094 114.41495513916016 129.5818328857422 114.73973846435547 131.95730590820312 113.04608154296875 C 135.6600341796875 109.72599029541016 134.283935546875 108.18012237548828 132.55174255371094 106.2712173461914" stroke-width="2.8658978939056396" fill="none" stroke="rgb(0, 9, 93)" stroke-opacity="1.0" stroke-linecap="round" stroke-linejoin="round"/>
    <path d="M 80.71930694580078 73.97673034667969 C 76.03429412841797 66.89962768554688 85.92459869384766 63.11826705932617 85.40287017822266 76.01971435546875" stroke-width="2.0" fill="none" stroke="rgb(223, 164, 150)" stroke-opacity="0.62857276" stroke-linecap="round" stroke-linejoin="round"/>
    <path d="M 81.12593078613281 77.49903106689453 C 88.4146499633789 74.66991424560547 98.9143295288086 71.0882568359375 106.5385971069336 76.97876739501953 C 100.39604949951172 67.84066009521484 96.39583587646484 67.0312728881836 83.78507232666016 59.90410232543945" stroke-width="2.4759585857391357" fill="none" stroke="rgb(78, 38, 179)" stroke-opacity="0.9212589" stroke-linecap="round" stroke-linejoin="round"/>
    <path d="M 147.70127868652344 64.10807037353516 C 150.49024963378906 76.6662826538086 146.7697296142578 80.05226135253906 137.862548828125 75.43475341796875 C 150.89300537109375 79.1925277709961 157.67430114746094 78.99810791015625 152.64260864257812 66.34390258789062" stroke-width="5.1012749671936035" fill="none" stroke="rgb(255, 0, 31)" stroke-opacity="0.61552644" stroke-linecap="round" stroke-linejoin="round"/>
    <path d="M 109.71302795410156 50.31371307373047 C 108.8750991821289 51.97840881347656 100.90896606445312 59.32109451293945 96.06543731689453 60.65907669067383" stroke-width="3.5552799701690674" fill="none" stroke="rgb(151, 193, 9)" stroke-opacity="0.7766043" stroke-linecap="round" stroke-linejoin="round"/>
    <path d="M 154.74826049804688 67.38508605957031 C 151.71527099609375 65.67597198486328 161.06964111328125 67.25910949707031 148.3057861328125 78.42608642578125" stroke-width="3.974491834640503" fill="none" stroke="rgb(255, 12, 0)" stroke-opacity="0.8888583" stroke-linecap="round" stroke-linejoin="round"/>
    <path d="M 80.10990905761719 60.93768310546875 C 72.79741668701172 66.58181762695312 73.7067642211914 61.82306671142578 73.58878326416016 66.93230438232422 C 70.29268646240234 56.802650451660156 74.49982452392578 60.15090560913086 74.98094177246094 70.38957214355469" stroke-width="2.125912666320801" fill="none" stroke="rgb(139, 94, 254)" stroke-opacity="0.75322974" stroke-linecap="round" stroke-linejoin="round"/>
    <path d="M 95.95098876953125 60.521053314208984 C 98.48751831054688 58.52422332763672 96.26838684082031 63.40842056274414 91.26394653320312 57.98974609375 C 99.26191711425781 50.34463882446289 91.49296569824219 61.48712921142578 86.69573211669922 55.484710693359375 C 101.37850189208984 46.848148345947266 106.63184356689453 44.56961441040039 113.1120376586914 46.90407943725586" stroke-width="2.0" fill="none" stroke="rgb(152, 81, 116)" stroke-opacity="0.4462064" stroke-linecap="round" stroke-linejoin="round"/>
    <path d="M 96.68208312988281 61.0820198059082 C 86.97046661376953 53.03565216064453 96.50798034667969 59.882205963134766 90.98568725585938 68.81859588623047 C 89.35255432128906 68.15189361572266 78.9914779663086 70.47590637207031 70.44417572021484 71.61091613769531" stroke-width="2.0" fill="none" stroke="rgb(76, 81, 213)" stroke-opacity="0.0" stroke-linecap="round" stroke-linejoin="round"/>
    <path d="M 156.541015625 65.44789123535156 C 157.49493408203125 65.92980194091797 148.87513732910156 67.47708129882812 153.38662719726562 55.700035095214844 C 141.8962860107422 48.20352554321289 134.14295959472656 43.358055114746094 141.7366180419922 43.44680404663086 C 157.77232360839844 39.850887298583984 167.88914489746094 30.44176483154297 166.47341918945312 42.383941650390625" stroke-width="2.0" fill="none" stroke="rgb(204, 185, 69)" stroke-opacity="0.81892455" stroke-linecap="round" stroke-linejoin="round"/>
    <path d="M 145.0254364013672 103.83526611328125 C 156.11477661132812 97.9970703125 160.95350646972656 95.0688705444336 164.0977020263672 94.3503189086914 C 168.96438598632812 88.6884536743164 166.7873992919922 97.03880310058594 154.07455444335938 95.89524841308594" stroke-width="3.571476459503174" fill="none" stroke="rgb(255, 26, 30)" stroke-opacity="0.4617334" stroke-linecap="round" stroke-linejoin="round"/>
    <path d="M 202.7863006591797 169.16151428222656 C 202.3038787841797 170.81993103027344 206.6077880859375 176.3701171875 193.707763671875 170.8803253173828" stroke-width="2.0" fill="none" stroke="rgb(191, 44, 64)" stroke-opacity="0.10837174" stroke-linecap="round" stroke-linejoin="round"/>
    <path d="M 40.47475051879883 18.05109214782715 C 29.090213775634766 23.599407196044922 33.31171798706055 24.176591873168945 21.04546546936035 20.320363998413086 C 31.181121826171875 17.463119506835938 31.696805953979492 18.881874084472656 28.609668731689453 19.93369483947754 C 37.11722946166992 24.685924530029297 42.55790328979492 20.55061149597168 47.89609909057617 23.21204948425293" stroke-width="3.1812572479248047" fill="none" stroke="rgb(243, 40, 255)" stroke-opacity="0.7683072" stroke-linecap="round" stroke-linejoin="round"/>
    <path d="M 70.66634368896484 103.54564666748047 C 76.98251342773438 100.34671783447266 85.98995208740234 105.04108428955078 79.61433410644531 94.7882308959961" stroke-width="2.0" fill="none" stroke="rgb(57, 45, 134)" stroke-opacity="0.25419044" stroke-linecap="round" stroke-linejoin="round"/>
    <path d="M 163.0279998779297 222.3529815673828 C 162.72360229492188 226.89443969726562 157.10125732421875 218.57522583007812 137.58572387695312 219.5311737060547" stroke-width="2.619699716567993" fill="none" stroke="rgb(122, 120, 255)" stroke-opacity="0.42312607" stroke-linecap="round" stroke-linejoin="round"/>
    <path d="M 126.65777587890625 31.061384201049805 C 129.7810821533203 36.75482177734375 119.7484359741211 38.40544509887695 112.12076568603516 50.488033294677734 C 109.67945098876953 51.77716827392578 119.63810729980469 40.80363845825195 115.45002746582031 45.407833099365234 C 123.51602935791016 42.116493225097656 124.76406860351562 50.65716552734375 129.1700897216797 50.25868606567383" stroke-width="2.0" fill="none" stroke="rgb(98, 87, 241)" stroke-opacity="0.5369607" stroke-linecap="round" stroke-linejoin="round"/>
    <path d="M 220.7982940673828 10.437186241149902 C 225.76968383789062 6.788101673126221 229.78582763671875 -1.8225775957107544 235.69456481933594 1.2411659955978394 C 247.25665283203125 7.276961326599121 253.92538452148438 -0.6990886926651001 254.12551879882812 0.15518227219581604 C 260.788818359375 -3.9258766174316406 250.26773071289062 4.95623779296875 246.94479370117188 13.373244285583496" stroke-width="2.0" fill="none" stroke="rgb(202, 181, 236)" stroke-opacity="0.46875834" stroke-linecap="round" stroke-linejoin="round"/>
    <path d="M 26.225475311279297 18.39962387084961 C 20.079612731933594 23.1839656829834 13.666748046875 29.440046310424805 12.474969863891602 35.36885070800781 C 8.494396209716797 46.42093276977539 3.366072177886963 51.141849517822266 7.082597255706787 50.10409164428711" stroke-width="2.0" fill="none" stroke="rgb(245, 91, 74)" stroke-opacity="0.21832341" stroke-linecap="round" stroke-linejoin="round"/>
    <path d="M 72.16348266601562 83.59382629394531 C 79.86671447753906 74.87155151367188 70.88834381103516 85.23367309570312 80.22978210449219 93.34974670410156" stroke-width="2.7912254333496094" fill="none" stroke="rgb(0, 18, 128)" stroke-opacity="0.18075576" stroke-linecap="round" stroke-linejoin="round"/>
  </g>
</svg>
