<?xml version="1.0" ?>
<svg xmlns="http://www.w3.org/2000/svg" version="1.1" width="122.0" height="122.0">
  <defs/>
  <g>
    <path d="M 65.51252746582031 25.498958587646484 C 66.0224838256836 25.135408401489258 66.5324478149414 24.770627975463867 66.36286163330078 24.750301361083984 C 66.7366943359375 24.185523986816406 65.88636016845703 23.418155670166016 67.32351684570312 22.2677001953125 C 68.76063537597656 21.11723518371582 72.48531341552734 19.582477569580078 75.01072692871094 22.97723388671875 C 76.99272155761719 27.46235466003418 78.32008361816406 36.87714385986328 78.22735595703125 40.931976318359375 C 78.1358642578125 45.53139114379883 76.6242904663086 45.315547943115234 76.42100524902344 46.83448028564453 C 75.12859344482422 48.89762878417969 75.14442443847656 51.60823059082031 74.79306030273438 54.08039855957031 C 74.98633575439453 56.008018493652344 74.26896667480469 56.60824203491211 71.62106323242188 57.277523040771484 C 69.517822265625 58.491455078125 66.02896881103516 60.31674575805664 63.43535232543945 62.506954193115234 C 60.29751968383789 64.1527328491211 57.51103973388672 65.61673736572266 54.839237213134766 66.40485382080078 C 51.6228141784668 66.6471176147461 49.06568908691406 66.75814056396484 49.33287811279297 68.45638275146484 C 50.14468002319336 70.15584564208984 53.23616027832031 73.4425277709961 56.32764434814453 76.73043060302734 C 58.87449645996094 80.01832580566406 58.5999870300293 86.33673858642578 58.8689079284668 93.19971466064453" stroke-width="1.811963438987732" fill="none" stroke="rgb(57, 36, 11)" stroke-opacity="0.83199" stroke-linecap="round" stroke-linejoin="round"/>
    <path d="M 73.6523666381836 23.31029510498047 C 76.68660736083984 19.96394157409668 80.26527404785156 17.1632080078125 82.75477600097656 13.272120475769043 C 86.33353424072266 10.470292091369629 80.5214614868164 12.317377090454102 74.16477966308594 14.164457321166992" stroke-width="1.9689821004867554" fill="none" stroke="rgb(137, 255, 226)" stroke-opacity="0.2949" stroke-linecap="round" stroke-linejoin="round"/>
    <path d="M 75.34134674072266 40.73432540893555 C 73.56698608398438 40.99103927612305 72.33600616455078 40.703121185302734 71.10624694824219 39.871788024902344 C 69.87646484375 40.12849807739258 75.46894836425781 45.16465377807617 81.0626449584961 49.65496826171875" stroke-width="1.8508803844451904" fill="none" stroke="rgb(39, 255, 214)" stroke-opacity="0.81723" stroke-linecap="round" stroke-linejoin="round"/>
    <path d="M 55.10470962524414 79.55036926269531 C 56.74732208251953 77.5117416381836 58.429691314697266 79.07577514648438 63.22065353393555 76.20511627197266" stroke-width="1.0892857313156128" fill="none" stroke="rgb(74, 108, 113)" stroke-opacity="0.83484" stroke-linecap="round" stroke-linejoin="round"/>
    <path d="M 64.32183837890625 61.811161041259766 C 71.31121063232422 65.17386627197266 71.28804779052734 67.18791961669922 62.80659866333008 70.296142578125" stroke-width="1.0892857313156128" fill="none" stroke="rgb(123, 241, 117)" stroke-opacity="0.38253996" stroke-linecap="round" stroke-linejoin="round"/>
    <path d="M 77.51249694824219 41.91572189331055 C 79.58528900146484 43.1793327331543 77.93095397949219 37.49535369873047 77.6576919555664 33.40279769897461" stroke-width="1.0892857313156128" fill="none" stroke="rgb(54, 12, 122)" stroke-opacity="0.17795995" stroke-linecap="round" stroke-linejoin="round"/>
    <path d="M 65.54059600830078 26.18389892578125 C 63.32875442504883 25.95819854736328 61.118125915527344 25.732498168945312 59.450836181640625 25.50557518005371 C 57.238990783691406 24.735254287719727 56.83392333984375 22.689329147338867 55.885501861572266 20.64459991455078" stroke-width="1.0892857313156128" fill="none" stroke="rgb(96, 214, 189)" stroke-opacity="0.45579997" stroke-linecap="round" stroke-linejoin="round"/>
    <path d="M 73.91387176513672 48.844886779785156 C 70.47435760498047 49.240169525146484 64.78672790527344 49.5439567565918 72.40078735351562 49.46830368041992" stroke-width="1.578713297843933" fill="none" stroke="rgb(169, 251, 206)" stroke-opacity="0.40667996" stroke-linecap="round" stroke-linejoin="round"/>
    <path d="M 62.85780715942383 62.7302131652832 C 65.9065933227539 59.165374755859375 67.55359649658203 64.89691925048828 63.29138946533203 66.76669311523438" stroke-width="1.5137487649917603" fill="none" stroke="rgb(28, 223, 179)" stroke-opacity="0.48078004" stroke-linecap="round" stroke-linejoin="round"/>
    <path d="M 75.36062622070312 50.56465148925781 C 72.28985595703125 52.4379997253418 69.76309204101562 54.85347366333008 67.7822036743164 57.81483459472656 C 65.2555923461914 60.23163604736328 65.72408294677734 54.45610809326172 66.19134521484375 48.13608932495117" stroke-width="1.1430518627166748" fill="none" stroke="rgb(93, 161, 125)" stroke-opacity="0.19670996" stroke-linecap="round" stroke-linejoin="round"/>
    <path d="M 63.9167594909668 70.95616912841797 C 66.34090423583984 66.7484130859375 68.76505279541016 62.54064178466797 68.66744995117188 58.32555389404297 C 69.11445617675781 54.11045455932617 66.496337890625 49.88802719116211 63.87820816040039 45.66566467285156 C 61.260040283203125 41.98749923706055 62.68864822387695 48.24271011352539 64.11854553222656 53.95597457885742" stroke-width="1.8299278020858765" fill="none" stroke="rgb(35, 218, 218)" stroke-opacity="0.23287001" stroke-linecap="round" stroke-linejoin="round"/>
    <path d="M 63.75258255004883 69.17425537109375 C 62.225135803222656 62.362892150878906 64.27473449707031 59.996158599853516 62.40314865112305 52.88603591918945" stroke-width="1.5011157989501953" fill="none" stroke="rgb(216, 40, 104)" stroke-opacity="0.60873" stroke-linecap="round" stroke-linejoin="round"/>
    <path d="M 78.03308868408203 35.5803108215332 C 80.16597747802734 26.95950698852539 78.40068817138672 31.981632232666016 78.84683990478516 30.750328063964844" stroke-width="1.64126455783844" fill="none" stroke="rgb(157, 54, 18)" stroke-opacity="0.18505003" stroke-linecap="round" stroke-linejoin="round"/>
    <path d="M 79.77347564697266 35.07737350463867 C 82.02136993408203 33.116539001464844 83.72765350341797 30.611225128173828 85.97564697265625 28.650310516357422 C 88.22415161132812 26.690279006958008 86.9736557006836 25.629716873168945 86.26763916015625 23.482311248779297" stroke-width="1.9537451267242432" fill="none" stroke="rgb(233, 85, 173)" stroke-opacity="0.018920023" stroke-linecap="round" stroke-linejoin="round"/>
    <path d="M 64.52476501464844 76.34297180175781 C 66.87085723876953 73.31614685058594 71.61174011230469 76.99565124511719 68.71797180175781 73.04042053222656" stroke-width="1.659342646598816" fill="none" stroke="rgb(59, 42, 0)" stroke-opacity="0.19217" stroke-linecap="round" stroke-linejoin="round"/>
    <path d="M 62.48011016845703 65.99811553955078 C 64.80541229248047 72.33238983154297 66.58621978759766 79.21212005615234 65.54474639892578 81.45719909667969 C 63.41551208496094 83.70197296142578 58.46376419067383 81.31159210205078 52.96772003173828 79.46688842773438 C 46.92707824707031 78.1656265258789 49.130470275878906 75.81217193603516 51.876976013183594 73.45886993408203" stroke-width="1.0892857313156128" fill="none" stroke="rgb(58, 162, 27)" stroke-opacity="0.118110016" stroke-linecap="round" stroke-linejoin="round"/>
    <path d="M 64.88595581054688 75.93183135986328 C 63.32263946533203 75.7666244506836 62.30516815185547 76.14482879638672 61.28644943237305 76.52424621582031 C 60.26774215698242 77.44698333740234 60.3470458984375 72.82926177978516 60.42512893676758 68.21146392822266" stroke-width="1.0892857313156128" fill="none" stroke="rgb(71, 166, 136)" stroke-opacity="0.50542" stroke-linecap="round" stroke-linejoin="round"/>
    <path d="M 113.94652557373047 73.79390716552734 C 113.32483673095703 72.88378143310547 112.15972900390625 71.97245025634766 112.30858612060547 69.86225128173828 C 112.4574203491211 67.20636749267578 113.9226303100586 62.807044982910156 114.84202575683594 58.40644836425781 C 116.85063171386719 54.00599670410156 110.27362060546875 61.28451919555664 103.69538116455078 68.56182098388672" stroke-width="1.1012942790985107" fill="none" stroke="rgb(167, 251, 0)" stroke-opacity="0.31642" stroke-linecap="round" stroke-linejoin="round"/>
    <path d="M 22.471410751342773 59.24467086791992 C 23.964712142944336 58.46753692626953 25.45674705505371 57.69160461425781 26.405439376831055 56.36984634399414 C 27.89887046813965 55.59271240234375 23.87895965576172 55.902587890625 20.403533935546875 56.21245574951172" stroke-width="1.0892857313156128" fill="none" stroke="rgb(94, 187, 44)" stroke-opacity="0.10932001" stroke-linecap="round" stroke-linejoin="round"/>
    <path d="M 11.797630310058594 86.31230926513672 C 9.094846725463867 86.20008850097656 6.392244338989258 86.08907318115234 3.146136522293091 85.9769058227539 C 0.4438408613204956 86.40901184082031 4.692373275756836 79.36124420166016 8.397517204284668 72.31210327148438" stroke-width="1.0892857313156128" fill="none" stroke="rgb(121, 37, 75)" stroke-opacity="0.68044" stroke-linecap="round" stroke-linejoin="round"/>
    <path d="M 75.00453186035156 90.5864486694336 C 68.99612426757812 92.3896255493164 64.20759582519531 97.26961517333984 66.98384094238281 93.86898803710938" stroke-width="1.0892857313156128" fill="none" stroke="rgb(130, 228, 185)" stroke-opacity="0.72967994" stroke-linecap="round" stroke-linejoin="round"/>
    <path d="M 66.79891204833984 68.80530548095703 C 69.50437927246094 76.17289733886719 66.11400604248047 75.44210052490234 61.02708435058594 76.70409393310547" stroke-width="1.3719637393951416" fill="none" stroke="rgb(173, 134, 135)" stroke-opacity="0.44052" stroke-linecap="round" stroke-linejoin="round"/>
    <path d="M 84.69850158691406 -1.545740008354187 C 84.81927490234375 -1.8153599500656128 84.9388427734375 -2.0837600231170654 83.84693908691406 -1.1882801055908203 C 82.75382232666016 -0.29280009865760803 80.4492416381836 1.7665599584579468 78.1297378540039 3.824822425842285 C 75.63700103759766 5.801503658294678 74.79480743408203 10.467114448547363 74.01441192626953 15.263956069946289" stroke-width="1.0892857313156128" fill="none" stroke="rgb(105, 212, 160)" stroke-opacity="0.0" stroke-linecap="round" stroke-linejoin="round"/>
    <path d="M 68.00132751464844 74.90896606445312 C 74.1586685180664 71.3660888671875 76.90125274658203 71.49052429199219 83.18106842041016 68.38491821289062" stroke-width="2.4299442768096924" fill="none" stroke="rgb(249, 65, 75)" stroke-opacity="0.43855998" stroke-linecap="round" stroke-linejoin="round"/>
    <path d="M 104.38904571533203 80.42387390136719 C 107.06573486328125 75.82276916503906 109.7424087524414 71.76626586914062 108.77505493164062 72.34991455078125 C 107.80780792236328 72.38894653320312 103.19465637207031 75.97645568847656 98.58184814453125 80.10982513427734 C 93.96903228759766 84.78780364990234 99.94624328613281 86.68563079833984 105.38020324707031 89.12806701660156" stroke-width="1.0892857313156128" fill="none" stroke="rgb(152, 99, 117)" stroke-opacity="0.41401" stroke-linecap="round" stroke-linejoin="round"/>
    <path d="M 115.42688751220703 28.52141571044922 C 116.55366516113281 20.67315673828125 109.4403305053711 20.042417526245117 107.79823303222656 28.634864807128906" stroke-width="1.0892857313156128" fill="none" stroke="rgb(159, 32, 251)" stroke-opacity="0.7530902" stroke-linecap="round" stroke-linejoin="round"/>
    <path d="M 109.91004180908203 112.99492645263672 C 106.97473907470703 108.46507263183594 104.03939056396484 103.93647003173828 104.41437530517578 103.44845581054688 C 105.87651062011719 102.96050262451172 110.10372161865234 107.0599594116211 114.87495422363281 110.614013671875 C 120.19084167480469 114.16786193847656 112.99907684326172 114.69197082519531 105.2613754272461 115.76067352294922" stroke-width="1.090401530265808" fill="none" stroke="rgb(162, 92, 237)" stroke-opacity="0.10915" stroke-linecap="round" stroke-linejoin="round"/>
    <path d="M 80.92298889160156 109.29631042480469 C 84.3438949584961 109.89925384521484 87.76190948486328 110.5040054321289 88.4006118774414 111.66386413574219 C 89.04158782958984 112.29505157470703 86.8955307006836 112.9425048828125 84.7521743774414 113.59091186523438 C 82.06684112548828 114.23709869384766 84.44358825683594 119.61274719238281 86.87847137451172 124.51644897460938" stroke-width="1.0892857313156128" fill="none" stroke="rgb(234, 217, 225)" stroke-opacity="0.0" stroke-linecap="round" stroke-linejoin="round"/>
    <path d="M 73.37908172607422 90.19679260253906 C 77.86259460449219 88.0837631225586 82.3473129272461 85.97071075439453 86.83080291748047 83.85767364501953 C 91.31430053710938 81.74463653564453 92.38301849365234 77.96995544433594 93.4517593383789 74.7398910522461" stroke-width="1.0892857313156128" fill="none" stroke="rgb(160, 210, 176)" stroke-opacity="0.5964102" stroke-linecap="round" stroke-linejoin="round"/>
    <path d="M 5.759365081787109 86.42623901367188 C 6.954225063323975 86.04197692871094 10.497072219848633 87.4474105834961 20.069963455200195 82.59862518310547" stroke-width="1.7324028015136719" fill="none" stroke="rgb(48, 19, 255)" stroke-opacity="0.7099999" stroke-linecap="round" stroke-linejoin="round"/>
    <path d="M 118.46205139160156 -2.4613733291625977 C 118.65209197998047 -1.154085636138916 118.84361267089844 0.15148429572582245 119.03392028808594 1.456923246383667 C 119.22425842285156 2.217912435531616 119.2303466796875 1.180849313735962 119.78105926513672 0.14249983429908752" stroke-width="1.0892857313156128" fill="none" stroke="rgb(173, 242, 83)" stroke-opacity="0.23330005" stroke-linecap="round" stroke-linejoin="round"/>
    <path d="M 94.439208984375 6.903727054595947 C 97.96208190917969 9.050111770629883 93.70550537109375 7.856569290161133 94.23377227783203 16.376243591308594" stroke-width="1.0892857313156128" fill="none" stroke="rgb(152, 194, 120)" stroke-opacity="0.23808001" stroke-linecap="round" stroke-linejoin="round"/>
    <path d="M 79.71505737304688 63.13473892211914 C 81.35687255859375 64.91268157958984 83.54169464111328 66.1449966430664 85.72797393798828 66.83380889892578 C 88.45877838134766 68.06722259521484 85.98096466064453 63.69841003417969 82.95974731445312 59.87541198730469" stroke-width="1.0892857313156128" fill="none" stroke="rgb(37, 7, 255)" stroke-opacity="0.68504" stroke-linecap="round" stroke-linejoin="round"/>
    <path d="M 41.500640869140625 13.0000638961792 C 41.92881393432617 13.000065803527832 40.63433074951172 13.00494384765625 40.224430084228516 13.128164291381836 C 40.313926696777344 13.809432983398438 39.89547348022461 14.057095527648926 39.49287033081055 14.310856819152832 C 36.93159103393555 15.039908409118652 35.52759552001953 17.16273307800293 35.02646255493164 19.798416137695312 C 33.79060363769531 22.270124435424805 33.460693359375 25.417659759521484 33.46068572998047 27.548725128173828 C 33.46068572998047 29.64458656311035 33.297203063964844 31.84062957763672 33.46068572998047 34.47372055053711 C 33.57414627075195 35.92556381225586 33.59732437133789 37.405418395996094 33.970672607421875 38.267578125 C 34.917877197265625 39.78396224975586 36.95894241333008 42.188568115234375 37.41592788696289 43.916603088378906 C 39.741249084472656 46.665260314941406 42.11902618408203 49.317543029785156 44.56269073486328 51.95640182495117 C 47.797428131103516 54.31781005859375 49.063289642333984 56.122188568115234 48.519142150878906 60.762325286865234 C 49.06377029418945 60.728050231933594 49.30289840698242 61.8431282043457 49.06378173828125 62.29346466064453 C 48.540401458740234 63.27922821044922 47.626625061035156 64.002685546875 46.34999084472656 64.30107116699219 C 44.33699417114258 66.61663818359375 42.090972900390625 68.74064636230469 39.714412689208984 70.6816635131836 C 36.098567962646484 73.6341323852539 35.35780334472656 74.36729431152344 31.836097717285156 77.35187530517578 C 29.462766647338867 77.90406799316406 28.060190200805664 79.3368148803711 26.220502853393555 80.41412353515625" stroke-width="1.0892857313156128" fill="none" stroke="rgb(26, 26, 21)" stroke-opacity="0.99000007" stroke-linecap="round" stroke-linejoin="round"/>
    <path d="M 37.578704833984375 116.11202239990234 C 37.57870101928711 116.38434600830078 37.57870101928711 113.3221435546875 37.034061431884766 113.3221435546875 C 37.034061431884766 106.60115814208984 37.03406524658203 99.88018798828125 37.03409957885742 93.1592025756836 C 37.57870101928711 71.72013854980469 37.578704833984375 50.28108215332031 37.578704833984375 28.568485260009766" stroke-width="1.0892857313156128" fill="none" stroke="rgb(26, 26, 21)" stroke-opacity="1.0" stroke-linecap="round" stroke-linejoin="round"/>
    <path d="M 56.94222640991211 26.177793502807617 C 57.55472183227539 26.177724838256836 56.5335807800293 25.633243560791016 56.19320297241211 25.633163452148438 C 54.87438201904297 25.63316535949707 53.55555725097656 25.633163452148438 52.5088996887207 25.63318634033203 C 50.239688873291016 25.633167266845703 47.410186767578125 25.92769432067871 45.20074462890625 25.411640167236328 C 42.85591125488281 24.863855361938477 40.645267486572266 23.826858520507812 38.85359191894531 22.697839736938477 C 38.35801696777344 23.119234085083008 37.82698440551758 23.3144474029541 37.3224983215332 22.697839736938477 C 33.6759147644043 22.176898956298828 30.450225830078125 20.911760330200195 26.730457305908203 20.911773681640625" stroke-width="1.0892857313156128" fill="none" stroke="rgb(26, 26, 21)" stroke-opacity="0.99" stroke-linecap="round" stroke-linejoin="round"/>
    <path d="M 40.259029388427734 70.6816635131836 C 43.43356704711914 72.6784896850586 37.58424758911133 68.2768325805664 34.543033599853516 73.2729721069336 C 40.243534088134766 77.34709930419922 36.02400207519531 76.36189270019531 34.668670654296875 79.53343963623047 C 39.23363494873047 74.52445983886719 44.24369430541992 70.84233856201172 49.734859466552734 74.53120422363281" stroke-width="1.1982132196426392" fill="none" stroke="rgb(173, 108, 154)" stroke-opacity="0.4218309" stroke-linecap="round" stroke-linejoin="round"/>
    <path d="M 83.18106842041016 67.84040832519531 C 87.84334564208984 71.24104309082031 84.34911346435547 71.97450256347656 84.56966400146484 74.66736602783203" stroke-width="1.0892857313156128" fill="none" stroke="rgb(172, 226, 210)" stroke-opacity="0.94272345" stroke-linecap="round" stroke-linejoin="round"/>
    <path d="M 81.60659790039062 49.655433654785156 C 84.16085815429688 49.66242599487305 88.42715454101562 51.594573974609375 90.74099731445312 54.72411346435547 C 91.40736389160156 48.806365966796875 96.71431732177734 53.47077178955078 102.62687683105469 47.960811614990234" stroke-width="1.0892857313156128" fill="none" stroke="rgb(116, 132, 44)" stroke-opacity="0.009181939" stroke-linecap="round" stroke-linejoin="round"/>
    <path d="M 72.400634765625 50.012935638427734 C 70.72279357910156 47.51559829711914 69.67073822021484 46.244869232177734 71.68136596679688 45.86916732788086 C 66.45323944091797 49.042816162109375 71.9688949584961 44.47136688232422 70.81853485107422 49.1721305847168 C 72.96958923339844 54.542808532714844 67.75170135498047 59.38717269897461 67.83684539794922 60.1641731262207" stroke-width="1.0892857313156128" fill="none" stroke="rgb(63, 24, 44)" stroke-opacity="0.7652949" stroke-linecap="round" stroke-linejoin="round"/>
    <path d="M 5.759366512298584 86.42626953125 C 8.497393608093262 90.30674743652344 3.501572370529175 89.42234802246094 0.9106661081314087 94.48072814941406" stroke-width="1.0892857313156128" fill="none" stroke="rgb(185, 105, 51)" stroke-opacity="0.8800977" stroke-linecap="round" stroke-linejoin="round"/>
    <path d="M 75.00460815429688 90.58644104003906 C 71.25700378417969 96.61447143554688 68.81544494628906 97.45895385742188 72.19852447509766 93.0877685546875 C 71.34687805175781 91.5256118774414 72.34630584716797 95.16486358642578 69.1455078125 93.80115509033203" stroke-width="1.1982132196426392" fill="none" stroke="rgb(96, 198, 82)" stroke-opacity="0.0033709472" stroke-linecap="round" stroke-linejoin="round"/>
    <path d="M 11.253061294555664 86.31230926513672 C 9.598320960998535 89.03439331054688 12.947257995605469 94.51593780517578 16.567142486572266 88.98817443847656" stroke-width="1.0892857313156128" fill="none" stroke="rgb(27, 135, 105)" stroke-opacity="0.4040322" stroke-linecap="round" stroke-linejoin="round"/>
    <path d="M 55.885501861572266 21.188682556152344 C 57.86143112182617 21.769968032836914 52.00558853149414 26.81807518005371 54.02370834350586 23.631019592285156 C 55.10816192626953 18.343284606933594 58.913822174072266 16.487302780151367 63.78519058227539 15.0956449508667" stroke-width="1.1982136964797974" fill="none" stroke="rgb(157, 169, 91)" stroke-opacity="0.3793658" stroke-linecap="round" stroke-linejoin="round"/>
    <path d="M 84.02508544921875 74.66736602783203 C 89.93704223632812 68.98384094238281 94.23951721191406 63.7733039855957 94.79774475097656 60.67420196533203 C 94.72907257080078 65.59651184082031 94.95138549804688 68.89026641845703 91.81697082519531 67.69166564941406 C 93.41422271728516 68.44987487792969 91.72999572753906 65.95993041992188 90.28422546386719 67.59354400634766" stroke-width="1.0892857313156128" fill="none" stroke="rgb(104, 60, 118)" stroke-opacity="0.21684821" stroke-linecap="round" stroke-linejoin="round"/>
    <path d="M 63.78519058227539 15.095648765563965 C 68.06957244873047 17.47071075439453 68.41717529296875 11.872017860412598 67.51808166503906 16.682310104370117 C 68.09911346435547 17.236976623535156 73.37028503417969 14.80498218536377 68.9837875366211 20.588958740234375" stroke-width="1.0892857313156128" fill="none" stroke="rgb(113, 206, 133)" stroke-opacity="0.90805143" stroke-linecap="round" stroke-linejoin="round"/>
    <path d="M 63.78519058227539 15.095649719238281 C 59.88629150390625 16.65367317199707 53.56403350830078 13.962798118591309 53.00236129760742 8.21445369720459 C 49.27755355834961 4.190205097198486 53.819454193115234 -0.07155412435531616 55.48737335205078 -3.214492082595825" stroke-width="1.198214054107666" fill="none" stroke="rgb(219, 60, 193)" stroke-opacity="0.7181739" stroke-linecap="round" stroke-linejoin="round"/>
    <path d="M 69.14549255371094 93.80115509033203 C 70.43671417236328 94.46675109863281 74.0312728881836 97.48987579345703 73.91197967529297 99.36677551269531 C 78.06446075439453 95.69253540039062 74.16153717041016 94.53077697753906 70.06573486328125 91.55719757080078 C 75.4097900390625 97.63423919677734 73.0551528930664 97.82262420654297 70.91088104248047 97.67498016357422" stroke-width="1.0892857313156128" fill="none" stroke="rgb(103, 153, 26)" stroke-opacity="0.41861594" stroke-linecap="round" stroke-linejoin="round"/>
    <path d="M 49.20172882080078 74.53124237060547 C 53.22669982910156 73.60272216796875 52.61846923828125 73.6241226196289 58.53937911987305 72.05692291259766 C 60.3733024597168 70.21660614013672 58.96149826049805 66.19126892089844 62.74158477783203 70.0732192993164" stroke-width="1.0892857313156128" fill="none" stroke="rgb(74, 35, 223)" stroke-opacity="0.7534448" stroke-linecap="round" stroke-linejoin="round"/>
    <path d="M 84.02506256103516 74.66736602783203 C 81.22691345214844 74.78168487548828 82.93275451660156 80.87638092041016 78.30596923828125 78.57423400878906 C 82.93550109863281 83.54010772705078 85.99295806884766 80.80891418457031 80.62531280517578 82.49519348144531 C 81.8506088256836 78.01248931884766 81.42060852050781 83.1279525756836 82.15145111083984 78.1834487915039" stroke-width="1.0892857313156128" fill="none" stroke="rgb(138, 51, 203)" stroke-opacity="0.6405349" stroke-linecap="round" stroke-linejoin="round"/>
    <path d="M 49.73478698730469 74.5312271118164 C 54.428775787353516 69.7929916381836 50.90388488769531 72.25078582763672 50.79941940307617 74.5279541015625 C 56.47903060913086 78.15607452392578 57.57905197143555 76.88117218017578 61.582881927490234 73.74543762207031" stroke-width="1.1982076168060303" fill="none" stroke="rgb(242, 243, 23)" stroke-opacity="0.1945846" stroke-linecap="round" stroke-linejoin="round"/>
    <path d="M 69.1455307006836 93.8011474609375 C 68.66569519042969 88.41183471679688 71.75751495361328 86.5069808959961 66.52668762207031 89.92900848388672" stroke-width="1.1982134580612183" fill="none" stroke="rgb(178, 71, 16)" stroke-opacity="0.59470797" stroke-linecap="round" stroke-linejoin="round"/>
    <path d="M 2.7982265949249268 86.6429214477539 C 7.766419887542725 88.22093200683594 3.044602394104004 83.19482421875 1.6802128553390503 86.74609375 C 1.1475749015808105 92.08757019042969 6.5065155029296875 91.72789764404297 1.4346039295196533 88.55525970458984" stroke-width="1.0892857313156128" fill="none" stroke="rgb(66, 97, 110)" stroke-opacity="0.75052273" stroke-linecap="round" stroke-linejoin="round"/>
    <path d="M 9.39882755279541 94.80010986328125 C 8.211248397827148 88.16046142578125 8.19466781616211 92.23223876953125 5.79788875579834 86.44760131835938 C 5.891587257385254 86.50094604492188 2.4910101890563965 83.8721694946289 3.0345818996429443 86.98653411865234 C 8.139128684997559 90.64846801757812 8.986567497253418 86.59817504882812 12.042753219604492 89.97293853759766" stroke-width="1.0892857313156128" fill="none" stroke="rgb(160, 245, 158)" stroke-opacity="0.929938" stroke-linecap="round" stroke-linejoin="round"/>
    <path d="M 81.16603088378906 41.92391586303711 C 87.24995422363281 41.20180892944336 92.08174896240234 42.56538772583008 88.16160583496094 47.29840087890625 C 87.50686645507812 44.879051208496094 92.63697052001953 45.371376037597656 87.64878845214844 50.914459228515625" stroke-width="1.0892857313156128" fill="none" stroke="rgb(34, 196, 182)" stroke-opacity="0.97159106" stroke-linecap="round" stroke-linejoin="round"/>
    <path d="M 77.88567352294922 100.52945709228516 C 77.4694595336914 104.00613403320312 78.83905029296875 98.8075180053711 83.40087127685547 102.86210632324219 C 86.4661636352539 97.67144775390625 88.54390716552734 94.82303619384766 89.30035400390625 96.10263061523438 C 94.28884887695312 99.72136688232422 98.47677612304688 99.45426940917969 92.87852478027344 96.54907989501953" stroke-width="1.0892857313156128" fill="none" stroke="rgb(150, 62, 204)" stroke-opacity="0.75271" stroke-linecap="round" stroke-linejoin="round"/>
    <path d="M 37.83645248413086 109.26905822753906 C 38.994266510009766 109.90630340576172 33.45412063598633 106.72856140136719 38.55000686645508 100.25790405273438 C 33.578285217285156 106.27114868164062 33.70182800292969 104.0765609741211 37.24827194213867 98.9759750366211 C 40.18553161621094 93.24495697021484 38.9428825378418 94.15714263916016 44.05476760864258 94.53389739990234" stroke-width="1.1982133388519287" fill="none" stroke="rgb(83, 217, 233)" stroke-opacity="0.470494" stroke-linecap="round" stroke-linejoin="round"/>
    <path d="M 52.606048583984375 18.975406646728516 C 55.919044494628906 17.782339096069336 53.905826568603516 17.461816787719727 56.81399154663086 18.78790283203125 C 59.64388656616211 14.917119026184082 56.545135498046875 9.098930358886719 60.52901077270508 11.219812393188477" stroke-width="1.0892857313156128" fill="none" stroke="rgb(199, 109, 46)" stroke-opacity="0.4533549" stroke-linecap="round" stroke-linejoin="round"/>
    <path d="M 112.00479888916016 40.813926696777344 C 109.46978759765625 40.44770812988281 110.90876007080078 45.683528900146484 112.55363464355469 48.64716339111328 C 117.39686584472656 48.76900863647461 111.8373794555664 48.17764663696289 116.43437194824219 48.01642608642578" stroke-width="1.0892857313156128" fill="none" stroke="rgb(112, 198, 74)" stroke-opacity="0.7782627" stroke-linecap="round" stroke-linejoin="round"/>
    <path d="M 66.34652709960938 16.994447708129883 C 71.20206451416016 12.702865600585938 73.06783294677734 17.73626136779785 67.14571380615234 19.41861915588379" stroke-width="1.1982141733169556" fill="none" stroke="rgb(102, 45, 75)" stroke-opacity="0.684382" stroke-linecap="round" stroke-linejoin="round"/>
    <path d="M 16.320898056030273 57.250858306884766 C 17.429176330566406 60.25001525878906 12.580601692199707 65.68341064453125 17.62904167175293 71.04560852050781 C 20.903961181640625 71.94670104980469 25.722606658935547 77.7850341796875 20.160186767578125 81.38459014892578 C 13.631635665893555 85.25698852539062 7.956611156463623 89.35580444335938 3.0787904262542725 83.49700927734375" stroke-width="1.0892857313156128" fill="none" stroke="rgb(28, 22, 255)" stroke-opacity="0.29011345" stroke-linecap="round" stroke-linejoin="round"/>
    <path d="M 96.86036682128906 20.421451568603516 C 97.42076873779297 21.8935546875 93.69259643554688 25.78801918029785 93.15768432617188 25.754913330078125 C 96.55001068115234 20.436399459838867 98.15141296386719 15.776948928833008 95.04154968261719 10.258913040161133" stroke-width="1.0892857313156128" fill="none" stroke="rgb(27, 27, 250)" stroke-opacity="0.47601336" stroke-linecap="round" stroke-linejoin="round"/>
    <path d="M 24.397735595703125 82.41006469726562 C 28.619125366210938 87.89668273925781 33.07925033569336 84.36325073242188 27.537370681762695 89.01789093017578" stroke-width="1.198213815689087" fill="none" stroke="rgb(230, 76, 64)" stroke-opacity="0.437155" stroke-linecap="round" stroke-linejoin="round"/>
    <path d="M 45.00916290283203 92.36540222167969 C 40.743934631347656 87.5064697265625 43.28114318847656 90.5171890258789 37.41434860229492 86.45894622802734 C 38.90038299560547 84.8363037109375 41.35335922241211 87.42900848388672 42.75398635864258 92.42546844482422" stroke-width="1.1982135772705078" fill="none" stroke="rgb(100, 38, 43)" stroke-opacity="0.6589459" stroke-linecap="round" stroke-linejoin="round"/>
    <path d="M 28.632129669189453 58.690677642822266 C 27.46464729309082 55.99665832519531 27.399776458740234 59.459007263183594 26.21860694885254 55.0312385559082" stroke-width="1.1982139348983765" fill="none" stroke="rgb(232, 218, 172)" stroke-opacity="0.2524512" stroke-linecap="round" stroke-linejoin="round"/>
    <path d="M 25.61454963684082 116.52890014648438 C 29.34774398803711 119.77415466308594 35.40592575073242 124.13568878173828 35.02024459838867 123.13359069824219 C 29.607044219970703 128.68704223632812 34.8426628112793 131.31727600097656 29.172487258911133 133.71310424804688" stroke-width="1.1982110738754272" fill="none" stroke="rgb(236, 208, 29)" stroke-opacity="0.99970967" stroke-linecap="round" stroke-linejoin="round"/>
    <path d="M 118.9959716796875 16.31911849975586 C 117.7138900756836 14.360520362854004 118.87995147705078 14.353617668151855 115.88396453857422 8.618325233459473 C 122.41692352294922 3.787112236022949 125.18528747558594 7.2765655517578125 129.22427368164062 12.973952293395996" stroke-width="1.0892857313156128" fill="none" stroke="rgb(100, 242, 228)" stroke-opacity="0.54342866" stroke-linecap="round" stroke-linejoin="round"/>
    <path d="M 59.171695709228516 46.82529830932617 C 64.37872314453125 41.2342643737793 60.195858001708984 39.3743896484375 64.956298828125 44.650142669677734 C 69.24823760986328 46.20266342163086 65.72388458251953 44.822547912597656 61.83090591430664 39.7136344909668 C 66.53113555908203 33.82061004638672 61.849578857421875 36.50843811035156 58.29065704345703 32.07745361328125" stroke-width="1.1982141733169556" fill="none" stroke="rgb(155, 219, 208)" stroke-opacity="0.5993813" stroke-linecap="round" stroke-linejoin="round"/>
  </g>
</svg>
