<?xml version="1.0" ?>
<svg xmlns="http://www.w3.org/2000/svg" version="1.1" width="1104.0" height="1104.0">
  <defs/>
  <g>
    <path d="M 52.523353576660156 73.46292114257812 C 53.390052795410156 77.22361755371094 54.05675506591797 81.97405242919922 54.78520202636719 86.65087890625 C 55.43828582763672 91.43160247802734 57.89045715332031 90.1317138671875 60.22980499267578 89.78445434570312" stroke-width="1.1184158325195312" fill="none" stroke="rgb(118, 86, 66)" stroke-opacity="0.9576034" stroke-linecap="round" stroke-linejoin="round"/>
    <path d="M 68.42559814453125 86.98849487304688 C 69.1116714477539 86.06224060058594 69.08808898925781 85.64111328125 68.92938995361328 85.79920196533203 C 68.81482696533203 85.3666763305664 70.48466491699219 80.82196044921875 72.4194107055664 75.57683563232422" stroke-width="1.521208643913269" fill="none" stroke="rgb(98, 103, 53)" stroke-opacity="1.0" stroke-linecap="round" stroke-linejoin="round"/>
    <path d="M 84.00497436523438 34.311649322509766 C 81.6751480102539 33.79810333251953 75.0919189453125 34.37080001831055 64.87370300292969 35.17097473144531" stroke-width="1.2469291687011719" fill="none" stroke="rgb(227, 207, 38)" stroke-opacity="1.0" stroke-linecap="round" stroke-linejoin="round"/>
    <path d="M 51.36855697631836 36.740386962890625 C 48.8715934753418 36.22477722167969 45.20729064941406 36.41575241088867 43.10042190551758 36.04513168334961 C 40.18642807006836 35.65972137451172 40.688995361328125 38.8170166015625 41.21702194213867 41.00923156738281" stroke-width="1.0892857313156128" fill="none" stroke="rgb(224, 211, 101)" stroke-opacity="0.8542511" stroke-linecap="round" stroke-linejoin="round"/>
    <path d="M 32.3213005065918 46.77717590332031 C 31.590728759765625 48.629058837890625 32.22628402709961 53.03249740600586 31.933223724365234 56.48103713989258" stroke-width="1.1949222087860107" fill="none" stroke="rgb(232, 210, 59)" stroke-opacity="0.92405486" stroke-linecap="round" stroke-linejoin="round"/>
    <path d="M 26.553430557250977 62.275794982910156 C 26.202884674072266 65.90089416503906 24.6185359954834 68.14417266845703 24.118268966674805 70.96402740478516 C 23.747922897338867 74.03770446777344 31.322200775146484 74.51859283447266 39.39920425415039 74.77324676513672" stroke-width="1.0892857313156128" fill="none" stroke="rgb(216, 221, 89)" stroke-opacity="0.8819242" stroke-linecap="round" stroke-linejoin="round"/>
    <path d="M 48.00441360473633 74.71218872070312 C 51.59058380126953 74.45806884765625 52.87910842895508 74.00859069824219 54.069583892822266 73.1307144165039" stroke-width="1.4484513998031616" fill="none" stroke="rgb(193, 183, 43)" stroke-opacity="0.99556196" stroke-linecap="round" stroke-linejoin="round"/>
    <path d="M 60.878204345703125 73.10307312011719 C 74.37068939208984 72.54129028320312 86.81700897216797 71.91612243652344 98.65276336669922 71.2182388305664 C 111.44100952148438 70.17118072509766 99.02167510986328 51.98503494262695 85.95394897460938 33.65922164916992" stroke-width="1.1414755582809448" fill="none" stroke="rgb(197, 192, 30)" stroke-opacity="0.7688014" stroke-linecap="round" stroke-linejoin="round"/>
    <path d="M 74.0695571899414 40.499881744384766 C 80.94796752929688 40.54835510253906 87.2853775024414 40.61294174194336 85.80184936523438 43.00275802612305 C 83.9042739868164 44.20089340209961 73.99652099609375 46.450645446777344 74.90381622314453 47.79218673706055 C 76.76591491699219 48.73642349243164 87.74632263183594 47.10205078125 87.71727752685547 47.63753890991211 C 86.9816665649414 47.3845329284668 75.86358642578125 49.918277740478516 75.75704193115234 51.10969924926758 C 76.08584594726562 51.979454040527344 87.73453521728516 50.87605285644531 87.6904296875 52.52313232421875 C 87.76517486572266 53.77070617675781 75.79047393798828 56.315345764160156 75.56293487548828 58.29247283935547 C 76.41976165771484 59.19430160522461 86.96459197998047 57.312835693359375 86.81682586669922 57.624534606933594 C 87.05490112304688 57.85358428955078 77.33430480957031 60.88413619995117 77.31637573242188 62.13697052001953 C 78.17900085449219 62.501468658447266 87.74629974365234 60.13322830200195 89.29268646240234 60.87070846557617 C 90.43956756591797 61.73128890991211 83.30387115478516 65.37628173828125 76.1141586303711 68.878662109375 C 68.30609130859375 71.77216339111328 80.13817596435547 69.96347045898438 92.054443359375 68.1729507446289" stroke-width="1.194888949394226" fill="none" stroke="rgb(243, 200, 198)" stroke-opacity="0.9689933" stroke-linecap="round" stroke-linejoin="round"/>
    <path d="M 78.46867370605469 58.35184860229492 C 74.10161590576172 59.79148483276367 70.7588119506836 61.9178581237793 68.10852813720703 64.6805648803711 C 65.17723083496094 66.32776641845703 70.72969055175781 66.06204986572266 76.4446792602539 65.87542724609375" stroke-width="1.0892857313156128" fill="none" stroke="rgb(148, 100, 101)" stroke-opacity="0.18438542" stroke-linecap="round" stroke-linejoin="round"/>
    <path d="M 93.38800048828125 69.37115478515625 C 87.16304016113281 69.70751953125 82.63981628417969 70.546142578125 82.7669677734375 72.07225036621094 C 81.83151245117188 72.35665893554688 87.0661392211914 72.32212829589844 93.29478454589844 71.54586029052734 C 98.4844741821289 72.54141998291016 93.93354034423828 75.00580596923828 89.35609436035156 76.75703430175781" stroke-width="1.0892857313156128" fill="none" stroke="rgb(104, 164, 93)" stroke-opacity="0.56709915" stroke-linecap="round" stroke-linejoin="round"/>
    <path d="M 77.68473052978516 67.4825210571289 C 77.61824798583984 67.8660659790039 77.03678131103516 66.5112533569336 78.19364929199219 65.55010986328125 C 78.32421875 64.91964721679688 75.7299575805664 65.21590423583984 74.65088653564453 65.53917694091797" stroke-width="1.1355371475219727" fill="none" stroke="rgb(89, 73, 142)" stroke-opacity="0.3622538" stroke-linecap="round" stroke-linejoin="round"/>
    <path d="M 98.078857421875 70.03388977050781 C 97.77710723876953 70.8010482788086 98.102294921875 71.05570220947266 96.65440368652344 71.46427917480469 C 95.30217742919922 71.87841796875 92.27875518798828 71.67882537841797 89.2818374633789 72.42436981201172 C 86.54460144042969 71.65589141845703 93.26639556884766 69.30895233154297 99.44341278076172 66.40923309326172" stroke-width="1.6104621887207031" fill="none" stroke="rgb(188, 1, 30)" stroke-opacity="0.4587963" stroke-linecap="round" stroke-linejoin="round"/>
    <path d="M 71.32022857666016 39.575557708740234 C 75.97854614257812 42.11769104003906 80.58842468261719 44.6834831237793 80.60953521728516 46.96049499511719 C 80.94847106933594 48.18254470825195 76.54749298095703 48.007442474365234 71.62403869628906 47.23226547241211 C 67.47906494140625 46.66270446777344 69.25279235839844 50.042457580566406 70.18722534179688 54.48014450073242" stroke-width="1.132822871208191" fill="none" stroke="rgb(120, 115, 170)" stroke-opacity="0.55829203" stroke-linecap="round" stroke-linejoin="round"/>
    <path d="M 22.460874557495117 72.95328521728516 C 16.159454345703125 71.91875457763672 17.904766082763672 72.55587768554688 21.78452491760254 77.94871520996094" stroke-width="1.0892857313156128" fill="none" stroke="rgb(147, 113, 26)" stroke-opacity="0.342565" stroke-linecap="round" stroke-linejoin="round"/>
    <path d="M 33.40492630004883 45.155029296875 C 32.64120101928711 49.9160041809082 31.365137100219727 54.042503356933594 30.726879119873047 59.449851989746094 C 30.707584381103516 64.56060791015625 26.856138229370117 56.85090255737305 22.339235305786133 50.38152313232422" stroke-width="1.1424123048782349" fill="none" stroke="rgb(139, 251, 198)" stroke-opacity="0.17627189" stroke-linecap="round" stroke-linejoin="round"/>
    <path d="M 74.70462799072266 52.888824462890625 C 73.18063354492188 49.32798767089844 72.80093383789062 44.70193099975586 70.7054672241211 42.14945602416992 C 69.50590515136719 37.96757507324219 66.3231430053711 39.44878005981445 64.18474578857422 41.08515548706055" stroke-width="1.353332757949829" fill="none" stroke="rgb(208, 123, 63)" stroke-opacity="0.71936685" stroke-linecap="round" stroke-linejoin="round"/>
    <path d="M 89.50292205810547 75.62683868408203 C 92.27217102050781 84.58773803710938 94.30738830566406 89.86991882324219 100.40830993652344 88.89704132080078" stroke-width="1.0892857313156128" fill="none" stroke="rgb(56, 67, 43)" stroke-opacity="0.8379809" stroke-linecap="round" stroke-linejoin="round"/>
    <path d="M 74.36864471435547 65.36898803710938 C 72.0868148803711 69.22856903076172 70.55130767822266 73.9266357421875 71.09274291992188 75.2847671508789 C 70.39916229248047 75.52125549316406 71.60264587402344 72.5270004272461 72.9179916381836 69.6409912109375 C 74.1412124633789 66.64884185791016 80.89360046386719 66.75022888183594 86.21086120605469 66.07052612304688" stroke-width="1.0892857313156128" fill="none" stroke="rgb(211, 37, 84)" stroke-opacity="0.35784525" stroke-linecap="round" stroke-linejoin="round"/>
    <path d="M 73.3498306274414 52.35437774658203 C 77.5145263671875 49.705074310302734 80.99847412109375 45.9781494140625 79.65228271484375 43.46440505981445 C 80.31595611572266 42.64656066894531 76.0445556640625 43.67681884765625 71.69435119628906 44.5131721496582 C 66.93528747558594 45.49993896484375 65.96012115478516 43.70592498779297 65.8540267944336 40.924774169921875" stroke-width="1.632029414176941" fill="none" stroke="rgb(255, 105, 117)" stroke-opacity="0.9754102" stroke-linecap="round" stroke-linejoin="round"/>
    <path d="M 88.28008270263672 74.70430755615234 C 90.79547882080078 74.92790985107422 91.7097396850586 75.90017700195312 93.36888885498047 76.26814270019531 C 94.9586181640625 75.92752838134766 93.88578033447266 77.13441467285156 93.75372314453125 79.01687622070312" stroke-width="1.4950064420700073" fill="none" stroke="rgb(91, 254, 238)" stroke-opacity="0.78969073" stroke-linecap="round" stroke-linejoin="round"/>
    <path d="M 75.29576110839844 66.84285736083984 C 73.12571716308594 63.59306335449219 71.84981536865234 59.98128128051758 70.93396759033203 56.06742477416992 C 68.69996643066406 53.4869384765625 70.85086059570312 59.460025787353516 73.01807403564453 65.25399017333984" stroke-width="1.1976567506790161" fill="none" stroke="rgb(115, 115, 134)" stroke-opacity="0.5534391" stroke-linecap="round" stroke-linejoin="round"/>
    <path d="M 73.94719696044922 54.59538650512695 C 76.63497161865234 54.96489334106445 78.45455932617188 54.30989456176758 80.4365234375 53.80781555175781 C 82.31118774414062 53.16645812988281 81.29075622558594 49.66367721557617 80.22663879394531 47.37459182739258" stroke-width="1.637798547744751" fill="none" stroke="rgb(101, 23, 15)" stroke-opacity="0.37004498" stroke-linecap="round" stroke-linejoin="round"/>
    <path d="M 98.41289520263672 65.4335708618164 C 105.65309143066406 62.144676208496094 105.30656433105469 62.2896728515625 105.56268310546875 59.413734436035156" stroke-width="1.1384544372558594" fill="none" stroke="rgb(125, 114, 158)" stroke-opacity="0.20029062" stroke-linecap="round" stroke-linejoin="round"/>
    <path d="M 22.899503707885742 78.30884552001953 C 19.089540481567383 74.25910186767578 14.840193748474121 69.9404525756836 14.497353553771973 67.13155364990234 C 13.180931091308594 65.78810119628906 14.224571228027344 65.37871551513672 15.161872863769531 64.5281982421875 C 16.3182430267334 64.54113006591797 11.44002628326416 68.12110137939453 7.684366703033447 72.7789306640625" stroke-width="1.0892857313156128" fill="none" stroke="rgb(102, 85, 128)" stroke-opacity="0.4926438" stroke-linecap="round" stroke-linejoin="round"/>
    <path d="M 82.37631225585938 27.99636459350586 C 80.94672393798828 24.493812561035156 78.79301452636719 22.519733428955078 78.28055572509766 18.776729583740234 C 77.04925537109375 17.078310012817383 72.442626953125 20.11151123046875 68.05990600585938 22.156328201293945" stroke-width="1.1983088254928589" fill="none" stroke="rgb(82, 67, 65)" stroke-opacity="0.43832988" stroke-linecap="round" stroke-linejoin="round"/>
    <path d="M 111.60587310791016 103.53839874267578 C 109.62767791748047 100.59908294677734 107.71903991699219 97.60818481445312 105.31249237060547 94.76128387451172 C 103.2959213256836 92.63859558105469 107.27561950683594 90.88594055175781 110.39645385742188 88.0898666381836" stroke-width="1.1485986709594727" fill="none" stroke="rgb(221, 226, 110)" stroke-opacity="0.2764799" stroke-linecap="round" stroke-linejoin="round"/>
    <path d="M 51.63329315185547 111.20511627197266 C 46.85211181640625 109.61003875732422 52.32666015625 106.29922485351562 46.4091796875 105.80084991455078" stroke-width="1.0892857313156128" fill="none" stroke="rgb(25, 81, 155)" stroke-opacity="0.01354179" stroke-linecap="round" stroke-linejoin="round"/>
    <path d="M 120.01887512207031 92.64168548583984 C 123.25431823730469 90.71826171875 122.17469787597656 89.77279663085938 118.25523376464844 96.68618774414062" stroke-width="1.0892857313156128" fill="none" stroke="rgb(73, 45, 64)" stroke-opacity="0.7237437" stroke-linecap="round" stroke-linejoin="round"/>
    <path d="M 120.62447357177734 87.41719055175781 C 120.80806732177734 84.16278076171875 121.28863525390625 81.53959655761719 121.57872009277344 78.7628173828125 C 121.16605377197266 75.14698791503906 121.61357116699219 72.50887298583984 122.52084350585938 70.28164672851562" stroke-width="1.2546265125274658" fill="none" stroke="rgb(207, 212, 154)" stroke-opacity="0.9534344" stroke-linecap="round" stroke-linejoin="round"/>
    <path d="M 46.119834899902344 64.2562484741211 C 45.88261413574219 67.02324676513672 46.45687484741211 69.487548828125 47.00271987915039 72.00737762451172 C 48.631080627441406 73.3693618774414 48.86185073852539 78.60136413574219 48.64632034301758 84.67236328125" stroke-width="1.6696957349777222" fill="none" stroke="rgb(253, 0, 249)" stroke-opacity="0.80781734" stroke-linecap="round" stroke-linejoin="round"/>
    <path d="M 77.29373931884766 104.2424087524414 C 80.40470123291016 104.30492401123047 83.63341522216797 105.40907287597656 85.53372955322266 105.0863037109375 C 86.4901123046875 103.78135681152344 85.4834976196289 98.93689727783203 83.6715087890625 95.9610824584961 C 82.62879943847656 92.19756317138672 81.7452163696289 87.35385131835938 80.89376068115234 82.39385986328125" stroke-width="1.1459431648254395" fill="none" stroke="rgb(169, 80, 95)" stroke-opacity="0.9870238" stroke-linecap="round" stroke-linejoin="round"/>
    <path d="M 77.29484558105469 95.8783950805664 C 76.43698120117188 96.92840576171875 76.83976745605469 98.09390258789062 75.91123962402344 100.9480209350586" stroke-width="1.0892857313156128" fill="none" stroke="rgb(231, 68, 238)" stroke-opacity="0.7251159" stroke-linecap="round" stroke-linejoin="round"/>
    <path d="M 85.67890167236328 1.1995418071746826 C 90.00809478759766 5.35895299911499 88.15679931640625 13.13425350189209 89.49980163574219 11.850581169128418" stroke-width="1.0892857313156128" fill="none" stroke="rgb(190, 197, 94)" stroke-opacity="0.46120423" stroke-linecap="round" stroke-linejoin="round"/>
    <path d="M 85.28602600097656 34.31687927246094 C 83.03385162353516 32.158573150634766 80.71766662597656 30.004634857177734 78.45492553710938 27.63805389404297 C 77.2258529663086 25.361684799194336 85.22415924072266 21.953275680541992 93.1900405883789 17.622739791870117" stroke-width="1.0892857313156128" fill="none" stroke="rgb(179, 121, 134)" stroke-opacity="0.12855417" stroke-linecap="round" stroke-linejoin="round"/>
    <path d="M 95.2137222290039 104.27986145019531 C 90.71983337402344 102.94783782958984 87.09747314453125 100.70503997802734 82.5208740234375 99.58818817138672 C 77.92369842529297 99.2265625 81.8440170288086 97.22893524169922 85.71935272216797 95.2608413696289" stroke-width="1.1884944438934326" fill="none" stroke="rgb(82, 47, 203)" stroke-opacity="0.38131908" stroke-linecap="round" stroke-linejoin="round"/>
    <path d="M 59.04368591308594 17.730112075805664 C 55.83682632446289 13.816462516784668 53.61080551147461 8.900609970092773 55.21635055541992 9.098031997680664 C 54.68482971191406 11.426831245422363 57.8996467590332 18.9645938873291 61.133975982666016 26.447307586669922 C 64.37080383300781 33.32461929321289 63.43612289428711 30.21018409729004 61.07012176513672 27.33115005493164" stroke-width="1.0892857313156128" fill="none" stroke="rgb(65, 58, 86)" stroke-opacity="0.7440562" stroke-linecap="round" stroke-linejoin="round"/>
    <path d="M 30.157562255859375 35.00042724609375 C 31.744306564331055 37.18452453613281 33.122650146484375 39.34291458129883 34.335628509521484 41.467613220214844 C 35.697391510009766 44.65687942504883 34.252437591552734 46.463722229003906 32.5316047668457 48.19284439086914" stroke-width="1.1066546440124512" fill="none" stroke="rgb(238, 223, 241)" stroke-opacity="0.48521248" stroke-linecap="round" stroke-linejoin="round"/>
    <path d="M 62.51488494873047 93.2832260131836 C 61.62835693359375 93.69042205810547 62.079139709472656 93.54346466064453 61.73860549926758 94.16537475585938" stroke-width="1.0892857313156128" fill="none" stroke="rgb(186, 23, 244)" stroke-opacity="0.8218647" stroke-linecap="round" stroke-linejoin="round"/>
    <path d="M 60.198707580566406 90.56889343261719 C 56.811012268066406 90.0141830444336 53.65229797363281 89.24597930908203 49.83286666870117 88.23902893066406 C 46.37528991699219 88.5530014038086 50.70967483520508 90.69459533691406 55.39952850341797 92.43119049072266" stroke-width="1.8554224967956543" fill="none" stroke="rgb(186, 0, 248)" stroke-opacity="0.9326358" stroke-linecap="round" stroke-linejoin="round"/>
    <path d="M 42.36205291748047 33.61952590942383 C 37.778568267822266 31.622339248657227 33.26974868774414 29.766414642333984 28.874149322509766 27.80499267578125 C 25.365270614624023 24.926836013793945 23.948711395263672 22.995376586914062 22.51640510559082 20.94608497619629" stroke-width="1.4426556825637817" fill="none" stroke="rgb(255, 30, 24)" stroke-opacity="0.7441907" stroke-linecap="round" stroke-linejoin="round"/>
    <path d="M 48.89738082885742 50.84806823730469 C 47.19350051879883 51.21582794189453 46.18970489501953 51.290069580078125 47.11820602416992 49.99708938598633 C 47.22171401977539 48.479942321777344 48.66807556152344 45.688865661621094 49.29842758178711 44.54428482055664 C 49.885860443115234 43.53704071044922 49.26436996459961 43.79246139526367 48.51378631591797 43.44197082519531 C 48.19561767578125 43.59659957885742 48.223045349121094 43.70424270629883 48.14748764038086 43.344844818115234 C 47.14806365966797 42.93075180053711 46.89339065551758 43.18911361694336 49.77455139160156 43.10822677612305 C 52.38737869262695 42.75873565673828 58.42202377319336 43.303749084472656 60.48655700683594 44.07777404785156 C 62.222068786621094 46.25532150268555 61.80105972290039 47.55495834350586 60.558921813964844 50.04802703857422 C 59.65670394897461 51.89859390258789 57.075286865234375 53.592864990234375 55.766502380371094 55.12948226928711 C 54.44722366333008 56.655887603759766 53.15309143066406 56.7999267578125 51.746070861816406 57.85282516479492 C 50.2334098815918 58.820064544677734 47.627540588378906 59.717041015625 46.40129089355469 61.057212829589844 C 44.797359466552734 60.368019104003906 43.08228302001953 60.23258972167969 41.45601272583008 61.085323333740234 C 40.304298400878906 61.005184173583984 39.84375 59.05423355102539 38.051902770996094 57.86060333251953" stroke-width="2.753424644470215" fill="none" stroke="rgb(35, 30, 14)" stroke-opacity="0.9812911" stroke-linecap="round" stroke-linejoin="round"/>
    <path d="M 74.83035278320312 99.86972045898438 C 70.14085388183594 102.48564910888672 75.53949737548828 105.67179107666016 69.66366577148438 101.40821075439453" stroke-width="1.143607497215271" fill="none" stroke="rgb(208, 1, 56)" stroke-opacity="0.43609774" stroke-linecap="round" stroke-linejoin="round"/>
    <path d="M 76.51736450195312 95.91737365722656 C 78.40122985839844 91.5484619140625 80.69247436523438 89.98101043701172 84.74003601074219 86.08252716064453 C 88.37393951416016 87.57777404785156 87.84691619873047 84.70086669921875 83.79695129394531 81.32925415039062" stroke-width="1.236985683441162" fill="none" stroke="rgb(192, 205, 36)" stroke-opacity="0.29290032" stroke-linecap="round" stroke-linejoin="round"/>
    <path d="M 95.27693939208984 103.30229949951172 C 100.01664733886719 103.9100570678711 98.06291198730469 103.53490447998047 100.0630874633789 101.52875518798828 C 97.55296325683594 106.32466888427734 102.64391326904297 109.47134399414062 105.90292358398438 107.15243530273438" stroke-width="1.0892857313156128" fill="none" stroke="rgb(109, 211, 169)" stroke-opacity="0.3393282" stroke-linecap="round" stroke-linejoin="round"/>
    <path d="M 85.70540618896484 42.16936492919922 C 88.10607147216797 46.63376998901367 84.29927062988281 46.601478576660156 88.90045166015625 40.73278045654297" stroke-width="1.2852575778961182" fill="none" stroke="rgb(216, 34, 117)" stroke-opacity="0.17495193" stroke-linecap="round" stroke-linejoin="round"/>
    <path d="M 75.83866119384766 47.169437408447266 C 75.32291412353516 53.33409118652344 76.48587036132812 48.97496795654297 73.90338134765625 48.40481185913086 C 69.89912414550781 47.21786880493164 67.33582305908203 45.69074630737305 72.73689270019531 38.991539001464844" stroke-width="1.1118770837783813" fill="none" stroke="rgb(218, 38, 150)" stroke-opacity="0.08739963" stroke-linecap="round" stroke-linejoin="round"/>
    <path d="M 92.26972961425781 68.37237548828125 C 97.09567260742188 64.4268798828125 95.51099395751953 68.7509765625 98.74903869628906 63.99247360229492 C 101.35614776611328 62.68754577636719 97.21639251708984 64.44215393066406 91.6738052368164 59.18767166137695 C 90.61211395263672 63.636497497558594 86.95635223388672 63.34047317504883 86.99774932861328 67.91712188720703" stroke-width="1.2808899879455566" fill="none" stroke="rgb(247, 120, 175)" stroke-opacity="0.20566495" stroke-linecap="round" stroke-linejoin="round"/>
    <path d="M 117.23375701904297 96.62206268310547 C 117.48246002197266 98.72142791748047 123.5556411743164 97.45480346679688 123.20475006103516 99.98332977294922 C 117.14226531982422 104.9267578125 121.13260650634766 101.44933319091797 122.57310485839844 103.60643005371094" stroke-width="1.1126550436019897" fill="none" stroke="rgb(147, 93, 233)" stroke-opacity="0.17846216" stroke-linecap="round" stroke-linejoin="round"/>
    <path d="M 74.92286682128906 47.07894515991211 C 72.73811340332031 53.6566276550293 76.43653869628906 54.04242706298828 71.2838134765625 48.588321685791016 C 77.15196228027344 46.44471740722656 75.71167755126953 41.60594940185547 70.50831604003906 43.35596466064453 C 73.09011840820312 41.10416030883789 68.7150650024414 35.5682258605957 69.45703887939453 35.15563201904297" stroke-width="1.2147362232208252" fill="none" stroke="rgb(230, 113, 62)" stroke-opacity="0.3708515" stroke-linecap="round" stroke-linejoin="round"/>
    <path d="M 69.2518310546875 101.68592071533203 C 68.95281982421875 96.136962890625 66.91790008544922 96.60124969482422 65.39242553710938 102.58940124511719" stroke-width="1.0892857313156128" fill="none" stroke="rgb(16, 8, 71)" stroke-opacity="0.22384341" stroke-linecap="round" stroke-linejoin="round"/>
    <path d="M 83.7109603881836 80.71998596191406 C 87.1167984008789 81.93383026123047 81.88216400146484 83.8539047241211 86.89238739013672 89.47870635986328" stroke-width="1.2924246788024902" fill="none" stroke="rgb(192, 170, 97)" stroke-opacity="0.12613985" stroke-linecap="round" stroke-linejoin="round"/>
    <path d="M 105.26007843017578 107.1884536743164 C 112.07901763916016 107.06945037841797 116.22543334960938 106.16353607177734 115.29421997070312 106.89191436767578" stroke-width="1.0892857313156128" fill="none" stroke="rgb(189, 141, 62)" stroke-opacity="0.38469023" stroke-linecap="round" stroke-linejoin="round"/>
    <path d="M 73.00870513916016 39.0084342956543 C 74.10528564453125 37.70555114746094 71.97189331054688 32.96319580078125 73.9984359741211 35.07915115356445 C 78.15293884277344 35.67250061035156 77.46224212646484 41.414215087890625 78.3095703125 40.09126663208008" stroke-width="1.0892857313156128" fill="none" stroke="rgb(47, 39, 159)" stroke-opacity="0.2643116" stroke-linecap="round" stroke-linejoin="round"/>
    <path d="M 68.87321472167969 101.92567443847656 C 65.37126159667969 102.97611999511719 67.83295440673828 101.22078704833984 71.65569305419922 102.8022689819336 C 74.38858795166016 106.2824478149414 74.78009033203125 103.6494140625 79.62265014648438 105.43567657470703" stroke-width="1.2398631572723389" fill="none" stroke="rgb(206, 10, 97)" stroke-opacity="0.63472295" stroke-linecap="round" stroke-linejoin="round"/>
    <path d="M 122.77111053466797 102.76863861083984 C 116.04034423828125 106.77318572998047 111.53771209716797 102.5025405883789 108.6237564086914 104.14051818847656 C 111.36442565917969 101.22711944580078 113.5556411743164 96.70774841308594 117.6697769165039 91.78990936279297" stroke-width="1.0892857313156128" fill="none" stroke="rgb(138, 102, 230)" stroke-opacity="0.84948826" stroke-linecap="round" stroke-linejoin="round"/>
    <path d="M 88.92682647705078 40.69234085083008 C 86.3373031616211 47.10153579711914 87.3030776977539 53.059871673583984 83.73145294189453 53.601890563964844 C 87.60939025878906 47.23414611816406 85.66797637939453 42.188575744628906 85.72530364990234 45.12203598022461 C 81.49037170410156 45.79066848754883 84.54361724853516 42.750038146972656 87.80583190917969 37.01382827758789" stroke-width="1.133976936340332" fill="none" stroke="rgb(235, 236, 33)" stroke-opacity="0.6378859" stroke-linecap="round" stroke-linejoin="round"/>
    <path d="M 122.46062469482422 103.57720184326172 C 121.95996856689453 107.58929443359375 125.04093933105469 108.58826446533203 128.64984130859375 107.35722351074219" stroke-width="1.1153730154037476" fill="none" stroke="rgb(5, 218, 203)" stroke-opacity="0.9149823" stroke-linecap="round" stroke-linejoin="round"/>
    <path d="M 16.01486587524414 5.612756252288818 C 10.589896202087402 2.0794284343719482 8.493289947509766 -2.9605064392089844 5.097280025482178 -3.42134690284729 C -1.010428547859192 -3.6925532817840576 2.9700474739074707 -1.7385295629501343 4.65333366394043 3.4635934829711914" stroke-width="1.1405447721481323" fill="none" stroke="rgb(188, 53, 199)" stroke-opacity="0.18201773" stroke-linecap="round" stroke-linejoin="round"/>
    <path d="M 87.7586669921875 42.26213455200195 C 83.34455108642578 47.23377990722656 85.06240844726562 44.983123779296875 84.42225646972656 40.03166961669922" stroke-width="1.0892857313156128" fill="none" stroke="rgb(75, 249, 125)" stroke-opacity="0.4296574" stroke-linecap="round" stroke-linejoin="round"/>
    <path d="M 92.33000946044922 94.23648071289062 C 93.36967468261719 99.37641143798828 94.18321228027344 98.2898941040039 98.5246810913086 104.08641815185547 C 100.88915252685547 98.73920440673828 97.12052154541016 97.66032409667969 96.63650512695312 102.08861541748047 C 99.5128173828125 106.99711608886719 95.3111343383789 108.55911254882812 95.5250473022461 114.79866790771484" stroke-width="1.0892857313156128" fill="none" stroke="rgb(70, 244, 0)" stroke-opacity="0.20275173" stroke-linecap="round" stroke-linejoin="round"/>
    <path d="M 40.79885482788086 86.4115219116211 C 44.769596099853516 87.1520004272461 48.881309509277344 81.81684112548828 51.32514572143555 83.14627838134766 C 54.89218521118164 82.66405487060547 52.07853317260742 88.03491973876953 54.97243881225586 93.18689727783203 C 61.27736282348633 91.4674072265625 65.98795318603516 97.3451919555664 72.03433227539062 98.04779815673828" stroke-width="1.169329047203064" fill="none" stroke="rgb(238, 175, 114)" stroke-opacity="0.09255069" stroke-linecap="round" stroke-linejoin="round"/>
    <path d="M 3.9437382221221924 61.369361877441406 C 4.4883341789245605 66.08814239501953 7.648471355438232 63.43925857543945 3.748105764389038 70.16355895996094 C 6.301140785217285 69.77481842041016 2.1501224040985107 73.95243072509766 -3.598067283630371 79.63216400146484 C 1.7551852464675903 76.93141174316406 5.584888458251953 80.887939453125 6.891571521759033 76.7592544555664" stroke-width="1.0892857313156128" fill="none" stroke="rgb(213, 43, 182)" stroke-opacity="0.18144397" stroke-linecap="round" stroke-linejoin="round"/>
    <path d="M 46.065185546875 36.549095153808594 C 46.74490737915039 40.87908172607422 52.15635299682617 37.00936508178711 48.554100036621094 33.7066535949707" stroke-width="1.2396526336669922" fill="none" stroke="rgb(212, 7, 167)" stroke-opacity="0.8225233" stroke-linecap="round" stroke-linejoin="round"/>
    <path d="M 103.36419677734375 31.921030044555664 C 106.56160736083984 28.640487670898438 107.71722412109375 29.715415954589844 102.4990463256836 31.900253295898438 C 98.45787811279297 35.359378814697266 93.14773559570312 35.08848190307617 98.68618774414062 34.634342193603516 C 99.74695587158203 33.47616195678711 101.59455871582031 33.25962448120117 103.27494049072266 35.262943267822266" stroke-width="1.0892857313156128" fill="none" stroke="rgb(163, 123, 69)" stroke-opacity="0.63883805" stroke-linecap="round" stroke-linejoin="round"/>
    <path d="M 81.04692077636719 29.137048721313477 C 86.95478057861328 27.062955856323242 81.5177993774414 22.145620346069336 84.71641540527344 22.815534591674805" stroke-width="1.0892857313156128" fill="none" stroke="rgb(135, 156, 221)" stroke-opacity="0.19484296" stroke-linecap="round" stroke-linejoin="round"/>
    <path d="M 99.01275634765625 27.766902923583984 C 97.11103820800781 31.90218162536621 102.02775573730469 34.5624885559082 103.39136505126953 36.17295837402344 C 106.43942260742188 30.364816665649414 109.85883331298828 25.239059448242188 114.3735580444336 23.17011260986328 C 108.66548919677734 19.298425674438477 111.81902313232422 14.303446769714355 113.43634033203125 9.812945365905762" stroke-width="1.0892857313156128" fill="none" stroke="rgb(147, 129, 251)" stroke-opacity="0.7056597" stroke-linecap="round" stroke-linejoin="round"/>
    <path d="M 109.43856811523438 115.22715759277344 C 108.67969512939453 110.70677947998047 109.30706787109375 109.27350616455078 105.89873504638672 111.07190704345703 C 111.26407623291016 106.90090942382812 109.3783950805664 109.83728790283203 108.98599243164062 112.79781341552734 C 113.96866607666016 108.55583190917969 114.49794006347656 113.10657501220703 111.26812744140625 110.45399475097656" stroke-width="1.2650948762893677" fill="none" stroke="rgb(159, 250, 222)" stroke-opacity="0.20405896" stroke-linecap="round" stroke-linejoin="round"/>
    <path d="M -0.1545858532190323 108.0376968383789 C 0.676967203617096 103.13182067871094 5.509674549102783 105.79723358154297 9.354957580566406 103.06156921386719" stroke-width="1.0892857313156128" fill="none" stroke="rgb(199, 247, 216)" stroke-opacity="0.3627568" stroke-linecap="round" stroke-linejoin="round"/>
    <path d="M 29.197744369506836 98.36927032470703 C 28.91256332397461 103.16138458251953 27.46476936340332 104.2076187133789 25.3581600189209 100.89796447753906 C 26.64858627319336 96.96228790283203 21.754627227783203 91.41389465332031 23.913867950439453 91.61641693115234 C 29.53196907043457 92.40245056152344 23.910934448242188 90.37159729003906 25.599050521850586 92.31737518310547" stroke-width="1.0892857313156128" fill="none" stroke="rgb(232, 28, 155)" stroke-opacity="0.17354594" stroke-linecap="round" stroke-linejoin="round"/>
    <path d="M 16.405521392822266 19.51957130432129 C 11.004636764526367 13.424614906311035 16.526077270507812 16.4437313079834 21.275272369384766 18.935056686401367" stroke-width="1.0892857313156128" fill="none" stroke="rgb(73, 194, 175)" stroke-opacity="0.30882007" stroke-linecap="round" stroke-linejoin="round"/>
    <path d="M 55.9460334777832 52.2818603515625 C 53.69649887084961 47.037166595458984 57.44900131225586 50.82427215576172 53.213077545166016 56.66653060913086" stroke-width="1.1204774379730225" fill="none" stroke="rgb(159, 138, 65)" stroke-opacity="0.80992025" stroke-linecap="round" stroke-linejoin="round"/>
    <path d="M 38.26744842529297 39.046226501464844 C 32.33943557739258 37.76120376586914 30.979530334472656 41.19761657714844 30.145662307739258 46.11674499511719 C 30.638134002685547 46.34244155883789 33.4390754699707 51.27799987792969 37.031280517578125 52.91286849975586 C 32.04658889770508 48.85581588745117 33.826416015625 46.09076690673828 38.196895599365234 47.52611541748047" stroke-width="1.0892857313156128" fill="none" stroke="rgb(93, 8, 195)" stroke-opacity="0.08767716" stroke-linecap="round" stroke-linejoin="round"/>
    <path d="M 119.61419677734375 50.57469940185547 C 121.85308837890625 55.75511169433594 119.59526062011719 58.44388961791992 116.09199523925781 62.6097412109375 C 120.10455322265625 59.38878631591797 114.47456359863281 62.459327697753906 116.0479965209961 60.28752899169922 C 112.10454559326172 65.59642028808594 117.64541625976562 63.36878204345703 118.96318054199219 61.7360954284668" stroke-width="1.0892857313156128" fill="none" stroke="rgb(5, 222, 15)" stroke-opacity="0.0072124363" stroke-linecap="round" stroke-linejoin="round"/>
  </g>
</svg>
