<?xml version="1.0" ?>
<svg xmlns="http://www.w3.org/2000/svg" version="1.1" width="1104.0" height="1104.0">
  <defs/>
  <g>
    <path d="M 24.324098587036133 67.87332153320312 C 88.51139831542969 79.18011474609375 159.99916076660156 68.85343933105469 162.080322265625 64.49320983886719 C 161.79452514648438 61.71852493286133 143.56324768066406 47.98094940185547 122.56182861328125 55.065338134765625" stroke-width="1.5848214626312256" fill="none" stroke="rgb(0, 8, 0)" stroke-opacity="0.9788729" stroke-linecap="round" stroke-linejoin="round"/>
    <path d="M 59.221656799316406 76.50699615478516 C 56.5332145690918 111.2892074584961 50.777339935302734 146.39195251464844 59.999610900878906 150.98410034179688 C 70.56859588623047 154.20779418945312 110.12470245361328 144.693359375 116.81941223144531 126.90196228027344 C 121.99052429199219 106.9800796508789 123.08602905273438 100.06649017333984 124.236083984375 100.64960479736328" stroke-width="1.8950753211975098" fill="none" stroke="rgb(1, 6, 0)" stroke-opacity="1.0" stroke-linecap="round" stroke-linejoin="round"/>
    <path d="M 122.68913269042969 76.86773681640625 C 137.458984375 74.43720245361328 142.8531951904297 72.10295104980469 142.12393188476562 79.3013687133789 C 139.6867218017578 85.35733795166016 137.7846221923828 90.12203979492188 133.86451721191406 100.04301452636719 C 126.75294494628906 108.80378723144531 134.4823760986328 111.92477416992188 126.9654769897461 108.90505981445312" stroke-width="1.9395596981048584" fill="none" stroke="rgb(1, 8, 0)" stroke-opacity="0.9962923" stroke-linecap="round" stroke-linejoin="round"/>
    <path d="M 74.40948486328125 89.600830078125 C 71.34269714355469 99.0618667602539 63.353271484375 113.69989776611328 63.684329986572266 116.24574279785156 C 63.79399108886719 115.91388702392578 72.52899169921875 115.4428939819336 76.22113037109375 113.70349884033203" stroke-width="1.8897249698638916" fill="none" stroke="rgb(3, 8, 0)" stroke-opacity="1.0" stroke-linecap="round" stroke-linejoin="round"/>
    <path d="M 61.749122619628906 85.07279968261719 C 67.88960266113281 87.24526977539062 61.88230514526367 88.81300354003906 70.15613555908203 88.23786926269531" stroke-width="1.5848214626312256" fill="none" stroke="rgb(0, 8, 0)" stroke-opacity="1.0" stroke-linecap="round" stroke-linejoin="round"/>
    <path d="M 86.11798858642578 90.20137023925781 C 94.18994140625 89.62152862548828 88.37213897705078 92.75377655029297 94.33018493652344 92.20895385742188" stroke-width="1.5848214626312256" fill="none" stroke="rgb(0, 9, 0)" stroke-opacity="0.987488" stroke-linecap="round" stroke-linejoin="round"/>
    <path d="M 67.66349792480469 125.9134750366211 C 82.88330841064453 127.5792007446289 84.7735366821289 125.70208740234375 87.52375030517578 127.74555206298828" stroke-width="1.9451054334640503" fill="none" stroke="rgb(2, 2, 2)" stroke-opacity="1.0" stroke-linecap="round" stroke-linejoin="round"/>
    <path d="M 124.64892578125 98.9056167602539 C 116.38446807861328 95.90994262695312 108.0022964477539 101.3295669555664 101.44274139404297 102.08646392822266" stroke-width="1.5848214626312256" fill="none" stroke="rgb(230, 208, 246)" stroke-opacity="0.5871721" stroke-linecap="round" stroke-linejoin="round"/>
    <path d="M 122.61678314208984 75.86273193359375 C 115.4124984741211 69.44996643066406 112.29788208007812 71.70014190673828 110.62797546386719 77.18741607666016 C 112.96330261230469 77.65248107910156 107.40580749511719 86.70011138916016 110.1677017211914 90.95759582519531 C 113.31846618652344 96.06526184082031 111.45712280273438 89.83830261230469 109.42352294921875 95.08248138427734" stroke-width="1.5848214626312256" fill="none" stroke="rgb(184, 13, 83)" stroke-opacity="0.6963098" stroke-linecap="round" stroke-linejoin="round"/>
    <path d="M 87.78363800048828 127.45450592041016 C 80.012939453125 117.74706268310547 81.40045928955078 109.58350372314453 86.32227325439453 115.92138671875" stroke-width="2.1937525272369385" fill="none" stroke="rgb(2, 126, 169)" stroke-opacity="0.6005538" stroke-linecap="round" stroke-linejoin="round"/>
    <path d="M 159.60525512695312 66.4815444946289 C 155.42820739746094 61.884368896484375 162.24363708496094 63.5811653137207 166.18014526367188 59.02698516845703" stroke-width="1.6686774492263794" fill="none" stroke="rgb(203, 125, 57)" stroke-opacity="0.56302035" stroke-linecap="round" stroke-linejoin="round"/>
    <path d="M 67.03678131103516 125.96617126464844 C 60.309852600097656 130.37937927246094 54.022220611572266 137.7480926513672 53.67903518676758 141.1861572265625 C 60.211456298828125 143.64022827148438 50.393310546875 141.86817932128906 52.45964050292969 140.0478057861328" stroke-width="1.5848214626312256" fill="none" stroke="rgb(25, 112, 61)" stroke-opacity="0.72720456" stroke-linecap="round" stroke-linejoin="round"/>
    <path d="M 141.90135192871094 79.49201202392578 C 130.72073364257812 81.38602447509766 129.12184143066406 76.96847534179688 133.70050048828125 76.0763168334961 C 125.16842651367188 72.43722534179688 130.35430908203125 71.76405334472656 123.8031234741211 73.03556060791016" stroke-width="1.5848214626312256" fill="none" stroke="rgb(157, 231, 60)" stroke-opacity="0.38329253" stroke-linecap="round" stroke-linejoin="round"/>
    <path d="M 132.9730682373047 99.76333618164062 C 137.17095947265625 89.12601470947266 130.46327209472656 91.010009765625 126.23920440673828 99.91683197021484 C 134.0881805419922 98.0962142944336 139.6678009033203 103.8862075805664 143.4097900390625 111.378662109375 C 146.5474395751953 111.42607879638672 153.20999145507812 116.90875244140625 149.3881072998047 123.92609405517578" stroke-width="1.7164913415908813" fill="none" stroke="rgb(56, 21, 173)" stroke-opacity="0.8619244" stroke-linecap="round" stroke-linejoin="round"/>
    <path d="M 77.54862976074219 116.20464324951172 C 82.5722427368164 116.94474792480469 84.72810363769531 109.03431701660156 84.51521301269531 115.99286651611328" stroke-width="1.5848214626312256" fill="none" stroke="rgb(187, 218, 240)" stroke-opacity="0.4226759" stroke-linecap="round" stroke-linejoin="round"/>
    <path d="M 109.784912109375 97.54200744628906 C 103.50021362304688 92.8311996459961 110.087646484375 87.03860473632812 114.0737075805664 92.98594665527344" stroke-width="1.6285234689712524" fill="none" stroke="rgb(183, 198, 231)" stroke-opacity="0.8914861" stroke-linecap="round" stroke-linejoin="round"/>
    <path d="M 82.01494598388672 114.32461547851562 C 76.57498931884766 120.44172668457031 71.94351196289062 123.29923248291016 64.8018569946289 129.78192138671875 C 64.47445678710938 121.48663330078125 66.3373031616211 129.4400634765625 59.04971694946289 133.5578155517578" stroke-width="2.1774723529815674" fill="none" stroke="rgb(187, 178, 50)" stroke-opacity="0.83560723" stroke-linecap="round" stroke-linejoin="round"/>
    <path d="M 151.92178344726562 123.92524719238281 C 150.55844116210938 129.60023498535156 157.83740234375 124.81988525390625 163.65538024902344 133.08920288085938 C 161.94244384765625 135.50595092773438 166.69091796875 142.60122680664062 171.4835205078125 145.11407470703125" stroke-width="1.5848214626312256" fill="none" stroke="rgb(115, 218, 213)" stroke-opacity="0.88925093" stroke-linecap="round" stroke-linejoin="round"/>
    <path d="M 100.86360931396484 102.46410369873047 C 94.85658264160156 101.261962890625 102.2055892944336 94.76280212402344 99.3764877319336 90.96345520019531 C 92.45285034179688 95.00111389160156 101.06832122802734 91.98097229003906 95.43724060058594 94.79031372070312 C 89.73343658447266 97.26460266113281 91.00896453857422 90.11014556884766 90.37615203857422 89.95976257324219" stroke-width="1.5927081108093262" fill="none" stroke="rgb(49, 249, 232)" stroke-opacity="0.19630617" stroke-linecap="round" stroke-linejoin="round"/>
    <path d="M 99.09356689453125 102.61978912353516 C 105.2445297241211 95.43050384521484 102.53241729736328 96.52760314941406 101.87084197998047 102.26019287109375" stroke-width="1.5848214626312256" fill="none" stroke="rgb(39, 52, 112)" stroke-opacity="0.86585563" stroke-linecap="round" stroke-linejoin="round"/>
    <path d="M 124.19580078125 71.27333068847656 C 114.34123229980469 76.23192596435547 117.99308013916016 78.58476257324219 121.98626708984375 77.54087829589844 C 114.4748764038086 84.74761962890625 110.3896713256836 88.91556549072266 106.7739486694336 83.26506805419922 C 105.89700317382812 79.81207275390625 105.5306396484375 78.18032836914062 109.39358520507812 68.72698211669922" stroke-width="1.747044324874878" fill="none" stroke="rgb(255, 124, 190)" stroke-opacity="0.460747" stroke-linecap="round" stroke-linejoin="round"/>
    <path d="M 82.9017562866211 115.00901794433594 C 88.17825317382812 106.7942123413086 86.50000762939453 112.62332153320312 93.40697479248047 109.47883605957031" stroke-width="1.8727885484695435" fill="none" stroke="rgb(56, 75, 34)" stroke-opacity="0.86929816" stroke-linecap="round" stroke-linejoin="round"/>
    <path d="M 150.66455078125 124.13237762451172 C 155.1118927001953 117.41775512695312 156.1849365234375 121.06752014160156 160.82211303710938 116.9090805053711 C 157.17691040039062 116.15904998779297 150.65159606933594 122.51045227050781 156.8040008544922 128.71287536621094" stroke-width="1.5848214626312256" fill="none" stroke="rgb(150, 104, 26)" stroke-opacity="0.7196081" stroke-linecap="round" stroke-linejoin="round"/>
    <path d="M 161.5459747314453 152.82595825195312 C 157.9279022216797 159.3805694580078 149.70469665527344 157.39382934570312 152.59620666503906 158.3018798828125" stroke-width="1.6336373090744019" fill="none" stroke="rgb(74, 133, 136)" stroke-opacity="0.7698128" stroke-linecap="round" stroke-linejoin="round"/>
    <path d="M 69.43570709228516 161.69369506835938 C 63.81822204589844 161.6400909423828 57.072410583496094 166.3584442138672 60.157745361328125 172.70367431640625 C 66.30763244628906 176.61972045898438 59.871620178222656 181.92160034179688 65.1469497680664 184.09701538085938 C 67.32710266113281 186.9917755126953 72.43294525146484 183.00135803222656 63.7561149597168 181.84986877441406" stroke-width="1.9935612678527832" fill="none" stroke="rgb(181, 217, 210)" stroke-opacity="0.0973231" stroke-linecap="round" stroke-linejoin="round"/>
    <path d="M 21.68889045715332 162.91156005859375 C 17.243078231811523 168.31910705566406 18.34418296813965 163.21060180664062 27.15630531311035 160.36585998535156 C 32.4534912109375 163.02830505371094 28.896100997924805 156.87220764160156 22.094038009643555 147.6712646484375" stroke-width="1.5848214626312256" fill="none" stroke="rgb(151, 173, 149)" stroke-opacity="0.62702525" stroke-linecap="round" stroke-linejoin="round"/>
    <path d="M 109.16667938232422 15.733479499816895 C 118.57972717285156 12.31053352355957 117.42575073242188 2.8904266357421875 117.63663482666016 9.041827201843262" stroke-width="1.6388565301895142" fill="none" stroke="rgb(232, 118, 131)" stroke-opacity="0.41428566" stroke-linecap="round" stroke-linejoin="round"/>
    <path d="M 60.4040641784668 53.97714614868164 C 63.285240173339844 55.37792205810547 70.62227630615234 63.46900177001953 67.68858337402344 66.16422271728516 C 70.27214813232422 69.62470245361328 78.05123138427734 74.45845031738281 72.82987213134766 72.01423645019531 C 80.13114929199219 73.44383239746094 84.02591705322266 65.41040802001953 87.45542907714844 69.7252426147461" stroke-width="1.5848214626312256" fill="none" stroke="rgb(151, 28, 140)" stroke-opacity="0.8209708" stroke-linecap="round" stroke-linejoin="round"/>
    <path d="M 27.426828384399414 137.9431610107422 C 34.66996383666992 142.76791381835938 36.06625747680664 137.7812042236328 37.09577178955078 137.49578857421875 C 31.865947723388672 141.03269958496094 25.663537979125977 138.08963012695312 18.689136505126953 130.5021514892578" stroke-width="1.5848214626312256" fill="none" stroke="rgb(118, 22, 130)" stroke-opacity="0.062671565" stroke-linecap="round" stroke-linejoin="round"/>
    <path d="M 6.7471418380737305 93.8016128540039 C 10.656270027160645 86.28589630126953 6.212480068206787 88.32351684570312 -0.374223917722702 83.09966278076172 C -9.54399299621582 81.91024017333984 -1.169970989227295 88.08203887939453 -1.2998465299606323 91.1113510131836" stroke-width="1.5848214626312256" fill="none" stroke="rgb(43, 224, 125)" stroke-opacity="0.55219233" stroke-linecap="round" stroke-linejoin="round"/>
    <path d="M 43.67494201660156 57.436119079589844 C 45.41755676269531 55.733253479003906 46.83645248413086 55.9893684387207 48.47868347167969 52.25423049926758 C 51.398956298828125 52.22853088378906 49.05312728881836 50.556819915771484 51.32765579223633 49.93202590942383" stroke-width="1.6535528898239136" fill="none" stroke="rgb(48, 54, 3)" stroke-opacity="0.80452436" stroke-linecap="round" stroke-linejoin="round"/>
    <path d="M 122.2369613647461 104.28884887695312 C 122.15894317626953 99.36100006103516 115.7554702758789 95.44091796875 106.79322052001953 102.63179016113281" stroke-width="1.5848214626312256" fill="none" stroke="rgb(92, 138, 69)" stroke-opacity="0.5302474" stroke-linecap="round" stroke-linejoin="round"/>
    <path d="M 139.4695587158203 170.90545654296875 C 145.74337768554688 173.0607452392578 149.73902893066406 178.596923828125 151.2062530517578 183.41964721679688 C 145.3495635986328 181.40599060058594 145.40194702148438 190.2359619140625 142.36416625976562 197.162109375" stroke-width="2.0439226627349854" fill="none" stroke="rgb(8, 254, 30)" stroke-opacity="0.8780993" stroke-linecap="round" stroke-linejoin="round"/>
    <path d="M 61.29502868652344 147.48028564453125 C 66.47403717041016 148.80322265625 74.40750885009766 145.17825317382812 66.75357818603516 142.58131408691406" stroke-width="2.127918004989624" fill="none" stroke="rgb(209, 240, 126)" stroke-opacity="0.9221446" stroke-linecap="round" stroke-linejoin="round"/>
    <path d="M 44.10250473022461 159.8234405517578 C 51.39054870605469 155.669677734375 61.29685974121094 156.95298767089844 65.02616119384766 149.3645782470703" stroke-width="1.7973394393920898" fill="none" stroke="rgb(161, 46, 169)" stroke-opacity="0.6632131" stroke-linecap="round" stroke-linejoin="round"/>
    <path d="M 17.339860916137695 128.18484497070312 C 23.401432037353516 119.54583740234375 26.234832763671875 113.0700454711914 29.92195701599121 116.19308471679688 C 31.242813110351562 110.26165771484375 29.644786834716797 119.61833953857422 26.401762008666992 118.61840057373047 C 29.46643829345703 122.80673217773438 35.98542785644531 126.85195922851562 39.69498825073242 128.56997680664062" stroke-width="1.5848214626312256" fill="none" stroke="rgb(22, 44, 1)" stroke-opacity="0.74501777" stroke-linecap="round" stroke-linejoin="round"/>
    <path d="M 1.9788410663604736 41.83595275878906 C 0.2117813527584076 48.232826232910156 -6.546603202819824 55.72189712524414 -10.232247352600098 61.7159538269043" stroke-width="2.0261573791503906" fill="none" stroke="rgb(196, 27, 60)" stroke-opacity="0.629331" stroke-linecap="round" stroke-linejoin="round"/>
    <path d="M 113.70699310302734 75.65330505371094 C 112.7265396118164 71.79264068603516 120.44659423828125 74.00183868408203 125.35719299316406 73.03121185302734" stroke-width="1.767751932144165" fill="none" stroke="rgb(171, 100, 41)" stroke-opacity="0.49495474" stroke-linecap="round" stroke-linejoin="round"/>
    <path d="M 167.5137176513672 87.2883071899414 C 164.68051147460938 88.84738159179688 162.14578247070312 80.60530090332031 162.93763732910156 81.00070190429688 C 153.6243133544922 89.29263305664062 162.02978515625 86.0283432006836 153.66677856445312 78.16410827636719 C 149.7114715576172 73.92060852050781 146.7827606201172 67.25823974609375 139.98388671875 64.2879638671875" stroke-width="2.1101491451263428" fill="none" stroke="rgb(158, 69, 78)" stroke-opacity="0.9540366" stroke-linecap="round" stroke-linejoin="round"/>
  </g>
</svg>
