<?xml version="1.0" ?>
<svg xmlns="http://www.w3.org/2000/svg" version="1.1" width="1104.0" height="1104.0">
  <defs/>
  <g>
    <path d="M 57.50495910644531 25.32206153869629 C 60.07137680053711 25.86669921875 64.66145324707031 25.253040313720703 67.5614242553711 26.095539093017578 C 70.22782135009766 27.63208770751953 72.50189971923828 32.08869552612305 73.86829376220703 35.14967727661133 C 74.65324401855469 35.68888473510742 74.50930786132812 36.32688903808594 74.52392578125 36.91730880737305 C 74.00249481201172 37.33169174194336 73.97931671142578 38.28885269165039 73.97931671142578 39.79051208496094 C 73.97931671142578 42.1475715637207 74.27210235595703 44.52410125732422 73.97932434082031 46.86286926269531 C 73.99569702148438 51.086524963378906 71.37024688720703 56.615570068359375 68.66673278808594 59.902259826660156 C 65.38247680664062 63.89653396606445 60.143802642822266 66.82892608642578 54.30926513671875 67.09363555908203 C 52.53426742553711 67.20954132080078 50.212257385253906 67.09364318847656 47.34671401977539 67.09364318847656" stroke-width="1.0892857313156128" fill="none" stroke="rgb(26, 26, 21)" stroke-opacity="0.99" stroke-linecap="round" stroke-linejoin="round"/>
    <path d="M 51.426918029785156 64.32353973388672 C 51.06650924682617 64.3234634399414 50.88232421875 64.69175720214844 51.42691421508789 64.87603759765625 C 51.426910400390625 66.2984619140625 51.42609405517578 67.9930419921875 50.88227844238281 69.68762969970703 C 50.88228225708008 78.63876342773438 51.426918029785156 87.58991241455078 51.426918029785156 96.26875305175781" stroke-width="1.0892857313156128" fill="none" stroke="rgb(26, 21, 21)" stroke-opacity="1.0" stroke-linecap="round" stroke-linejoin="round"/>
    <path d="M 40.533538818359375 33.42459487915039 C 40.204856872558594 32.880069732666016 39.78571319580078 34.13697814941406 39.43754959106445 33.98615264892578 C 39.300445556640625 34.14302062988281 39.149566650390625 34.289085388183594 38.99460220336914 34.42692184448242 C 38.631046295166016 34.750221252441406 37.794158935546875 35.359073638916016 37.992271423339844 36.07687759399414 C 37.584754943847656 36.280609130859375 37.012481689453125 36.112239837646484 36.12153625488281 35.86420440673828 C 36.10725021362305 36.34234619140625 36.57585144042969 36.485069274902344 36.777156829833984 36.85838317871094 C 36.82423400878906 38.502197265625 37.86417007446289 39.243507385253906 38.32412338256836 40.395164489746094 C 39.74734878540039 45.860023498535156 42.032875061035156 51.3006706237793 42.964996337890625 55.97702407836914 C 43.210166931152344 57.35333251953125 43.50985336303711 59.63954544067383 43.08283996582031 61.6053581237793 C 43.31878662109375 62.63383102416992 42.1304817199707 63.29990768432617 41.3070182800293 63.27143096923828" stroke-width="1.0892857313156128" fill="none" stroke="rgb(26, 21, 21)" stroke-opacity="1.0" stroke-linecap="round" stroke-linejoin="round"/>
    <path d="M 50.88932418823242 96.26874542236328 C 53.60035705566406 100.31360626220703 57.80287551879883 103.41853332519531 52.68439865112305 108.45780944824219 C 56.81651306152344 108.64907836914062 53.38951110839844 109.61229705810547 51.62852478027344 104.89034271240234" stroke-width="1.0892857313156128" fill="none" stroke="rgb(133, 113, 93)" stroke-opacity="0.24951418" stroke-linecap="round" stroke-linejoin="round"/>
    <path d="M 43.62746047973633 61.60535430908203 C 44.844303131103516 66.12981414794922 40.833587646484375 65.23413848876953 40.67551040649414 68.82994842529297 C 39.703128814697266 69.29436492919922 38.66733932495117 73.86776733398438 40.256813049316406 77.29556274414062" stroke-width="1.198214054107666" fill="none" stroke="rgb(36, 41, 7)" stroke-opacity="0.60823417" stroke-linecap="round" stroke-linejoin="round"/>
    <path d="M 40.533447265625 32.87996292114258 C 38.297515869140625 30.594053268432617 33.238929748535156 24.530357360839844 36.782508850097656 24.48527717590332 C 42.546409606933594 26.908597946166992 46.034122467041016 30.341060638427734 50.055606842041016 30.601613998413086 C 53.237518310546875 24.108842849731445 50.85543441772461 24.932144165039062 56.126251220703125 27.412174224853516" stroke-width="1.0892857313156128" fill="none" stroke="rgb(70, 159, 22)" stroke-opacity="0.019940969" stroke-linecap="round" stroke-linejoin="round"/>
    <path d="M 74.5239486694336 36.91745376586914 C 77.76412200927734 32.66968536376953 80.9725112915039 28.09547996520996 78.61422729492188 24.334047317504883 C 81.63745880126953 23.29304313659668 86.75108337402344 26.35971450805664 84.8220443725586 31.663373947143555 C 81.59681701660156 32.665889739990234 76.6931381225586 37.04117202758789 72.04438781738281 32.03765869140625" stroke-width="1.0892857313156128" fill="none" stroke="rgb(250, 149, 50)" stroke-opacity="0.0" stroke-linecap="round" stroke-linejoin="round"/>
    <path d="M 41.30690002441406 63.816001892089844 C 41.32753372192383 63.07400131225586 44.227115631103516 57.9971809387207 38.88336181640625 64.02690124511719 C 36.538414001464844 58.40874099731445 41.305049896240234 59.79911804199219 35.418975830078125 61.942996978759766 C 35.146568298339844 61.46240997314453 32.50331497192383 64.06790924072266 29.506750106811523 58.451690673828125" stroke-width="1.0892857313156128" fill="none" stroke="rgb(35, 216, 96)" stroke-opacity="0.24366575" stroke-linecap="round" stroke-linejoin="round"/>
    <path d="M 39.9889030456543 32.87996292114258 C 38.83340835571289 38.212276458740234 38.16758346557617 33.49964904785156 37.14595413208008 34.68113708496094" stroke-width="1.0892857313156128" fill="none" stroke="rgb(138, 186, 214)" stroke-opacity="0.32359347" stroke-linecap="round" stroke-linejoin="round"/>
    <path d="M 43.082828521728516 61.60537338256836 C 46.72804641723633 67.63916778564453 42.7625846862793 71.9586181640625 44.7730827331543 66.33586883544922 C 45.053287506103516 64.57854461669922 45.115840911865234 62.300086975097656 41.60426330566406 59.946327209472656 C 38.08845520019531 59.27360916137695 39.69257354736328 57.72126007080078 40.636966705322266 53.1445198059082" stroke-width="1.0892857313156128" fill="none" stroke="rgb(159, 196, 123)" stroke-opacity="0.29609847" stroke-linecap="round" stroke-linejoin="round"/>
    <path d="M 68.66671752929688 59.90225601196289 C 70.68315887451172 56.40521240234375 71.44152069091797 59.938133239746094 65.60978698730469 58.60860824584961" stroke-width="1.1982135772705078" fill="none" stroke="rgb(134, 53, 154)" stroke-opacity="0.33519775" stroke-linecap="round" stroke-linejoin="round"/>
    <path d="M 51.62851333618164 104.89034271240234 C 47.04941177368164 101.79383850097656 49.47261047363281 107.21424102783203 48.81218719482422 102.44173431396484" stroke-width="1.0892857313156128" fill="none" stroke="rgb(94, 11, 113)" stroke-opacity="0.30989945" stroke-linecap="round" stroke-linejoin="round"/>
    <path d="M 37.14595413208008 34.68113708496094 C 36.881710052490234 40.5552978515625 39.12824249267578 38.45119094848633 35.17961883544922 37.30482864379883 C 31.062108993530273 40.383522033691406 26.145187377929688 45.21804428100586 24.47780418395996 44.778812408447266 C 18.614974975585938 49.14122772216797 15.191790580749512 55.64267349243164 10.194746017456055 57.957115173339844" stroke-width="1.0892857313156128" fill="none" stroke="rgb(232, 34, 243)" stroke-opacity="0.63283736" stroke-linecap="round" stroke-linejoin="round"/>
    <path d="M 51.628509521484375 104.89035034179688 C 47.023719787597656 99.24755096435547 43.00839614868164 99.58629608154297 47.24736022949219 96.83711242675781" stroke-width="1.0892857313156128" fill="none" stroke="rgb(53, 206, 26)" stroke-opacity="0.51595765" stroke-linecap="round" stroke-linejoin="round"/>
    <path d="M 40.636959075927734 53.144561767578125 C 35.55784606933594 58.50934982299805 31.62320327758789 55.34768295288086 26.270666122436523 61.14817810058594" stroke-width="1.1982141733169556" fill="none" stroke="rgb(161, 56, 254)" stroke-opacity="0.64454997" stroke-linecap="round" stroke-linejoin="round"/>
    <path d="M 56.12625503540039 27.412185668945312 C 61.766380310058594 23.759294509887695 59.0164794921875 17.693819046020508 58.534698486328125 12.182860374450684 C 52.686885833740234 13.860589027404785 52.040504455566406 16.65191650390625 52.01709747314453 10.995729446411133" stroke-width="1.0892857313156128" fill="none" stroke="rgb(68, 132, 8)" stroke-opacity="0.8746969" stroke-linecap="round" stroke-linejoin="round"/>
    <path d="M 65.60977935791016 58.60862731933594 C 68.8552017211914 60.49048614501953 63.65650177001953 60.796653747558594 65.21981811523438 54.76261901855469" stroke-width="1.0892857313156128" fill="none" stroke="rgb(12, 79, 125)" stroke-opacity="0.55897444" stroke-linecap="round" stroke-linejoin="round"/>
    <path d="M 40.6369743347168 53.1445198059082 C 45.14046096801758 58.652015686035156 44.5648193359375 60.03068923950195 44.8692512512207 57.804012298583984 C 39.793067932128906 56.36631393432617 42.535614013671875 60.83868408203125 48.62504959106445 65.38937377929688 C 54.61750793457031 65.5741195678711 54.79503631591797 66.09374237060547 49.2140998840332 66.35689544677734" stroke-width="1.0892857313156128" fill="none" stroke="rgb(206, 219, 209)" stroke-opacity="0.7414435" stroke-linecap="round" stroke-linejoin="round"/>
    <path d="M 40.6369743347168 53.1445198059082 C 36.02927780151367 48.797569274902344 39.021480560302734 52.80277633666992 36.93852996826172 46.91433334350586" stroke-width="1.0892857313156128" fill="none" stroke="rgb(54, 90, 29)" stroke-opacity="0.14940272" stroke-linecap="round" stroke-linejoin="round"/>
    <path d="M 59.85198974609375 89.45771026611328 C 63.01198196411133 92.76841735839844 64.93318176269531 91.90673065185547 60.32077407836914 93.36884307861328 C 54.2266845703125 95.60591125488281 57.986053466796875 96.56481170654297 60.9593620300293 99.07290649414062" stroke-width="1.0892857313156128" fill="none" stroke="rgb(132, 99, 55)" stroke-opacity="0.60147154" stroke-linecap="round" stroke-linejoin="round"/>
    <path d="M 50.79356384277344 16.475826263427734 C 53.17238235473633 19.210180282592773 52.60072326660156 23.11564826965332 57.82804489135742 24.892292022705078 C 60.546165466308594 23.23375129699707 61.387847900390625 19.35336685180664 63.80336380004883 15.160526275634766" stroke-width="1.1982141733169556" fill="none" stroke="rgb(195, 122, 243)" stroke-opacity="0.47121328" stroke-linecap="round" stroke-linejoin="round"/>
    <path d="M 95.50918579101562 108.99102020263672 C 93.64645385742188 113.50255584716797 97.92912292480469 109.9134750366211 95.99744415283203 112.2203598022461" stroke-width="1.1982139348983765" fill="none" stroke="rgb(185, 29, 171)" stroke-opacity="0.312428" stroke-linecap="round" stroke-linejoin="round"/>
    <path d="M 114.99984741210938 98.27091979980469 C 114.25444793701172 95.4894027709961 118.7166748046875 96.59197235107422 115.4197006225586 96.64102172851562" stroke-width="1.1982097625732422" fill="none" stroke="rgb(203, 27, 26)" stroke-opacity="0.07527865" stroke-linecap="round" stroke-linejoin="round"/>
    <path d="M 104.37029266357422 29.14137077331543 C 107.01741790771484 28.967437744140625 110.44156646728516 33.15665817260742 110.7753677368164 35.338714599609375 C 106.37554931640625 30.587984085083008 101.38761138916016 24.57086753845215 101.23812866210938 30.41084861755371 C 105.95244598388672 26.811227798461914 112.22650909423828 30.413923263549805 113.42609405517578 34.33561325073242" stroke-width="1.0892857313156128" fill="none" stroke="rgb(37, 94, 246)" stroke-opacity="0.9159575" stroke-linecap="round" stroke-linejoin="round"/>
    <path d="M 29.76878547668457 87.03435516357422 C 30.730562210083008 85.6262435913086 27.939523696899414 83.53423309326172 29.92690658569336 86.6390609741211 C 35.05986022949219 80.99584197998047 41.176513671875 81.19153594970703 34.73271560668945 77.94159698486328 C 34.48230743408203 76.75193786621094 37.130802154541016 81.91091918945312 34.107547760009766 82.5433349609375" stroke-width="1.0892857313156128" fill="none" stroke="rgb(232, 104, 80)" stroke-opacity="0.7221411" stroke-linecap="round" stroke-linejoin="round"/>
    <path d="M 106.51181030273438 15.994446754455566 C 101.05461883544922 11.198393821716309 102.88755798339844 5.225351810455322 107.18994140625 4.949037551879883 C 103.95024871826172 6.580204486846924 107.09959411621094 7.994321346282959 106.93340301513672 13.476173400878906 C 104.50601196289062 9.153700828552246 102.01156616210938 4.096127986907959 96.01625061035156 4.059219837188721" stroke-width="1.0892857313156128" fill="none" stroke="rgb(166, 232, 65)" stroke-opacity="0.27823043" stroke-linecap="round" stroke-linejoin="round"/>
    <path d="M 113.6147232055664 115.73941802978516 C 119.34568786621094 113.75033569335938 113.31118774414062 112.32950592041016 116.26819610595703 115.91888427734375 C 114.25889587402344 115.4327392578125 120.01687622070312 116.24172973632812 114.87149047851562 111.67709350585938" stroke-width="1.1982141733169556" fill="none" stroke="rgb(163, 53, 52)" stroke-opacity="0.9703788" stroke-linecap="round" stroke-linejoin="round"/>
    <path d="M 95.41651153564453 11.614888191223145 C 92.67417907714844 7.336569786071777 97.25521850585938 9.217937469482422 94.2217788696289 5.199138641357422 C 94.47022247314453 11.170615196228027 90.0557632446289 6.528508186340332 93.88131713867188 3.6378843784332275 C 93.24613189697266 3.3539257049560547 92.11348724365234 6.004855155944824 90.50989532470703 8.118535041809082" stroke-width="1.198214054107666" fill="none" stroke="rgb(170, 101, 253)" stroke-opacity="0.51370144" stroke-linecap="round" stroke-linejoin="round"/>
    <path d="M 121.13565826416016 50.06095886230469 C 118.56021881103516 43.83469009399414 117.75174713134766 42.18754959106445 117.0218276977539 43.58304214477539" stroke-width="1.1982139348983765" fill="none" stroke="rgb(110, 2, 198)" stroke-opacity="0.11912571" stroke-linecap="round" stroke-linejoin="round"/>
    <path d="M 97.76166534423828 68.14603424072266 C 93.14350128173828 62.918331146240234 88.75787353515625 58.337059020996094 86.76927185058594 61.185909271240234 C 80.96971893310547 60.0296516418457 86.3536605834961 63.138153076171875 82.70297241210938 68.32513427734375 C 79.65650177001953 67.26860046386719 76.16871643066406 69.70931243896484 78.35125732421875 76.16627502441406" stroke-width="1.1982135772705078" fill="none" stroke="rgb(175, 225, 119)" stroke-opacity="0.90968186" stroke-linecap="round" stroke-linejoin="round"/>
    <path d="M 113.53053283691406 74.06991577148438 C 112.67002868652344 71.43757629394531 114.9091567993164 70.52703857421875 118.35684204101562 64.72881317138672 C 118.36257934570312 67.16898345947266 116.20685577392578 66.0441665649414 116.98612976074219 71.27794647216797 C 112.75939178466797 67.8247299194336 109.89966583251953 63.00456619262695 104.2997055053711 57.0057373046875" stroke-width="1.1982139348983765" fill="none" stroke="rgb(114, 215, 207)" stroke-opacity="0.18178326" stroke-linecap="round" stroke-linejoin="round"/>
    <path d="M 6.768858909606934 70.79721069335938 C 8.866921424865723 68.17957305908203 8.712190628051758 64.31364440917969 8.33495044708252 60.527042388916016" stroke-width="1.1982136964797974" fill="none" stroke="rgb(146, 208, 104)" stroke-opacity="0.073527746" stroke-linecap="round" stroke-linejoin="round"/>
    <path d="M 115.02085876464844 27.135889053344727 C 109.02055358886719 21.362539291381836 114.69066619873047 21.29663848876953 110.4113540649414 16.874860763549805 C 114.48731231689453 17.804445266723633 109.12098693847656 19.197019577026367 112.89575958251953 20.876434326171875" stroke-width="1.1982136964797974" fill="none" stroke="rgb(9, 230, 78)" stroke-opacity="0.19478874" stroke-linecap="round" stroke-linejoin="round"/>
    <path d="M 116.92733764648438 63.604366302490234 C 115.68793487548828 68.69939422607422 115.51285552978516 70.80585479736328 110.50717163085938 66.80168914794922 C 117.09293365478516 60.78792190551758 120.87056732177734 65.6086196899414 119.30012512207031 70.42626190185547 C 123.08222961425781 74.50527954101562 123.45490264892578 72.08487701416016 122.45100402832031 74.05549621582031" stroke-width="1.0892857313156128" fill="none" stroke="rgb(66, 19, 140)" stroke-opacity="0.96635175" stroke-linecap="round" stroke-linejoin="round"/>
    <path d="M 92.9792709350586 69.97417449951172 C 93.96299743652344 71.70028686523438 98.90790557861328 73.2823715209961 94.52567291259766 71.99124145507812 C 99.32381439208984 71.23090362548828 99.564453125 75.97529602050781 102.7563247680664 72.33492279052734 C 105.74111938476562 78.34530639648438 109.12882232666016 80.80354309082031 110.68470764160156 84.73456573486328" stroke-width="1.1982141733169556" fill="none" stroke="rgb(210, 140, 233)" stroke-opacity="0.7178124" stroke-linecap="round" stroke-linejoin="round"/>
  </g>
</svg>
