<?xml version="1.0" ?>
<svg xmlns="http://www.w3.org/2000/svg" version="1.1" width="122.0" height="122.0">
  <defs/>
  <g>
    <path d="M 32.95987319946289 38.66843795776367 C 31.57942008972168 38.215171813964844 28.283449172973633 38.75905227661133 27.456666946411133 38.858036041259766 C 25.698139190673828 38.606422424316406 24.949100494384766 39.04219436645508 24.144670486450195 39.949947357177734 C 23.966999053955078 40.32716369628906 23.04979705810547 40.36507034301758 22.777833938598633 42.336063385009766 C 23.510889053344727 43.950401306152344 25.65639305114746 47.21922302246094 28.32257843017578 49.933589935302734 C 29.726408004760742 54.05377197265625 31.03175926208496 54.40721130371094 32.06474304199219 54.91572570800781" stroke-width="1.0892857313156128" fill="none" stroke="rgb(9, 0, 84)" stroke-opacity="0.99543" stroke-linecap="round" stroke-linejoin="round"/>
    <path d="M 48.69690704345703 47.81305694580078 C 44.86611557006836 47.51338195800781 42.11546325683594 48.35036849975586 42.34762954711914 48.68309020996094 C 43.43394088745117 49.21250915527344 46.77470016479492 48.424861907958984 47.43288803100586 48.98638916015625 C 47.99604797363281 49.526485443115234 45.85573959350586 51.358314514160156 45.43549346923828 51.76057815551758 C 44.834808349609375 51.99311065673828 46.19935607910156 51.00590515136719 46.774837493896484 50.98037338256836 C 46.3564338684082 50.72169876098633 46.703453063964844 53.218711853027344 46.241477966308594 54.7666015625 C 44.839717864990234 55.98249816894531 46.094608306884766 55.682342529296875 47.50435256958008 54.796939849853516" stroke-width="1.159368872642517" fill="none" stroke="rgb(0, 101, 217)" stroke-opacity="0.7200107" stroke-linecap="round" stroke-linejoin="round"/>
    <path d="M 26.82379150390625 38.75553894042969 C 28.021072387695312 36.40078353881836 28.125478744506836 34.00035858154297 29.40424919128418 34.4129638671875 C 30.17412757873535 34.71241760253906 33.084774017333984 37.786495208740234 36.911598205566406 39.79933166503906 C 38.9810791015625 43.48590087890625 43.4953498840332 40.25775146484375 47.75950622558594 36.8697395324707" stroke-width="1.1804275512695312" fill="none" stroke="rgb(186, 203, 176)" stroke-opacity="0.41505975" stroke-linecap="round" stroke-linejoin="round"/>
    <path d="M 31.36692237854004 56.001102447509766 C 34.13448715209961 52.46649932861328 36.18708038330078 48.227294921875 38.707183837890625 44.634071350097656 C 41.290443420410156 41.744815826416016 36.03472137451172 42.054691314697266 30.68747329711914 42.853492736816406" stroke-width="1.329972743988037" fill="none" stroke="rgb(112, 191, 178)" stroke-opacity="0.39244187" stroke-linecap="round" stroke-linejoin="round"/>
    <path d="M 47.18292999267578 55.695594787597656 C 50.69936752319336 60.64968490600586 52.95160675048828 57.3062744140625 51.59603500366211 57.53965759277344" stroke-width="1.0892857313156128" fill="none" stroke="rgb(120, 26, 50)" stroke-opacity="0.2637557" stroke-linecap="round" stroke-linejoin="round"/>
    <path d="M 46.435062408447266 54.09212112426758 C 48.210227966308594 53.40206527709961 49.345802307128906 52.078857421875 51.82124328613281 52.0499382019043 C 53.043609619140625 50.78699493408203 52.30108642578125 53.3424186706543 51.38205337524414 55.81354522705078" stroke-width="1.1422239542007446" fill="none" stroke="rgb(106, 10, 194)" stroke-opacity="0.19595125" stroke-linecap="round" stroke-linejoin="round"/>
    <path d="M 45.36892318725586 48.73233413696289 C 49.7281379699707 53.288978576660156 45.1577262878418 52.176937103271484 41.71791076660156 51.50926208496094" stroke-width="1.2133439779281616" fill="none" stroke="rgb(131, 24, 180)" stroke-opacity="0.7362833" stroke-linecap="round" stroke-linejoin="round"/>
    <path d="M 48.563331604003906 55.03022384643555 C 49.24727249145508 55.769378662109375 50.123233795166016 56.653045654296875 50.985164642333984 57.286354064941406 C 51.827667236328125 56.9629020690918 52.325077056884766 55.08790588378906 53.3260612487793 53.96250534057617 C 53.865478515625 51.843345642089844 48.7479248046875 56.63616180419922 43.60032272338867 61.317996978759766" stroke-width="1.2494535446166992" fill="none" stroke="rgb(166, 183, 60)" stroke-opacity="0.063255236" stroke-linecap="round" stroke-linejoin="round"/>
    <path d="M 31.19082260131836 56.57781982421875 C 26.116233825683594 59.19049072265625 21.064970016479492 61.84634017944336 18.775794982910156 61.29414749145508 C 17.04991340637207 59.76607131958008 19.619029998779297 57.19219970703125 20.4439640045166 52.4835319519043 C 22.343036651611328 48.86655044555664 23.61727523803711 45.08625793457031 23.350833892822266 40.4230842590332" stroke-width="1.0892857313156128" fill="none" stroke="rgb(210, 201, 124)" stroke-opacity="0.706935" stroke-linecap="round" stroke-linejoin="round"/>
    <path d="M 27.33159637451172 38.982112884521484 C 26.862459182739258 34.815181732177734 27.04933738708496 29.517417907714844 27.03322982788086 25.27104949951172 C 25.52631950378418 21.98841667175293 28.46894073486328 24.744831085205078 31.72660255432129 27.515045166015625" stroke-width="1.0892857313156128" fill="none" stroke="rgb(159, 85, 26)" stroke-opacity="0.51297325" stroke-linecap="round" stroke-linejoin="round"/>
    <path d="M 44.50016784667969 61.256683349609375 C 45.48683547973633 66.33174896240234 45.45314407348633 72.41575622558594 46.42558670043945 77.48436737060547 C 48.124393463134766 81.90721130371094 46.49175262451172 78.31063842773438 44.9951171875 74.83377075195312" stroke-width="1.218411922454834" fill="none" stroke="rgb(213, 33, 121)" stroke-opacity="0.24707954" stroke-linecap="round" stroke-linejoin="round"/>
    <path d="M 40.712806701660156 52.474822998046875 C 41.00223159790039 50.692928314208984 42.83919906616211 52.600337982177734 44.3377571105957 58.52898025512695" stroke-width="1.154504656791687" fill="none" stroke="rgb(188, 52, 136)" stroke-opacity="0.81958544" stroke-linecap="round" stroke-linejoin="round"/>
    <path d="M 47.07653045654297 37.20226287841797 C 50.9595947265625 32.32279968261719 54.45484924316406 27.172832489013672 55.85469055175781 27.3591251373291 C 57.334754943847656 26.939504623413086 57.00196075439453 30.316669464111328 55.550662994384766 33.59404754638672 C 53.221092224121094 36.58319854736328 58.0562629699707 41.55266571044922 63.682823181152344 45.4562873840332" stroke-width="1.0892857313156128" fill="none" stroke="rgb(191, 187, 179)" stroke-opacity="0.07517822" stroke-linecap="round" stroke-linejoin="round"/>
    <path d="M 47.50959014892578 36.19490432739258 C 50.18360137939453 42.30665588378906 46.87778854370117 36.868995666503906 42.32871627807617 30.895978927612305" stroke-width="1.2985838651657104" fill="none" stroke="rgb(165, 243, 222)" stroke-opacity="0.5519832" stroke-linecap="round" stroke-linejoin="round"/>
    <path d="M 24.750995635986328 40.88099670410156 C 25.789594650268555 40.84782028198242 26.69782066345215 41.559993743896484 28.50240135192871 43.71635437011719 C 29.666610717773438 46.53959274291992 32.298484802246094 50.246097564697266 34.67863464355469 54.16059494018555 C 38.16225051879883 57.685035705566406 40.45831298828125 53.480770111083984 42.124752044677734 48.56975173950195" stroke-width="1.3629474639892578" fill="none" stroke="rgb(185, 101, 88)" stroke-opacity="0.879445" stroke-linecap="round" stroke-linejoin="round"/>
    <path d="M 44.25388717651367 60.72307205200195 C 44.025787353515625 57.05318069458008 43.80904006958008 53.05380630493164 43.007938385009766 48.70228576660156 C 43.75825119018555 44.61159896850586 41.643463134765625 45.05587387084961 38.49516296386719 45.517181396484375" stroke-width="1.3262529373168945" fill="none" stroke="rgb(206, 41, 146)" stroke-opacity="0.2754686" stroke-linecap="round" stroke-linejoin="round"/>
    <path d="M 44.66740036010742 61.04838180541992 C 39.148162841796875 60.76930618286133 42.81436538696289 60.46012878417969 38.85956954956055 66.10700988769531" stroke-width="1.1758840084075928" fill="none" stroke="rgb(28, 48, 239)" stroke-opacity="0.76388484" stroke-linecap="round" stroke-linejoin="round"/>
    <path d="M 44.76874542236328 60.85636901855469 C 38.733863830566406 61.501861572265625 36.22010040283203 61.96988296508789 32.95985794067383 63.13905715942383" stroke-width="1.3696248531341553" fill="none" stroke="rgb(77, 57, 255)" stroke-opacity="0.84464294" stroke-linecap="round" stroke-linejoin="round"/>
    <path d="M 66.7510986328125 41.63087844848633 C 67.89222717285156 42.19924545288086 68.728271484375 43.0960578918457 70.1953125 43.39060592651367 C 70.16364288330078 45.31987380981445 68.29180145263672 44.75916290283203 67.52680969238281 43.214019775390625" stroke-width="1.3622978925704956" fill="none" stroke="rgb(60, 33, 0)" stroke-opacity="0.8646816" stroke-linecap="round" stroke-linejoin="round"/>
    <path d="M 57.042335510253906 62.34121322631836 C 60.59137725830078 62.20698165893555 63.17255783081055 61.10319519042969 64.88247680664062 60.39565658569336 C 65.80663299560547 58.82575225830078 66.80132293701172 58.58384704589844 68.1502685546875 58.7511100769043 C 69.017578125 58.32374954223633 66.90877532958984 59.610679626464844 64.85184478759766 60.80302047729492" stroke-width="1.0892857313156128" fill="none" stroke="rgb(175, 89, 127)" stroke-opacity="0.25673425" stroke-linecap="round" stroke-linejoin="round"/>
    <path d="M 105.02547454833984 111.36366271972656 C 101.61235046386719 112.02213287353516 97.83574676513672 112.74267578125 93.9403076171875 112.36394500732422 C 90.27442932128906 113.10701751708984 93.2087173461914 110.82382202148438 95.74452209472656 106.49446868896484" stroke-width="1.0892857313156128" fill="none" stroke="rgb(226, 192, 204)" stroke-opacity="0.7505249" stroke-linecap="round" stroke-linejoin="round"/>
    <path d="M 37.26506805419922 71.49705505371094 C 33.05894088745117 71.41698455810547 28.864778518676758 71.39224243164062 24.752552032470703 70.88285827636719 C 21.515625 70.65889739990234 18.717838287353516 76.02460479736328 14.942034721374512 80.71971130371094" stroke-width="1.0892857313156128" fill="none" stroke="rgb(123, 121, 176)" stroke-opacity="0.81193376" stroke-linecap="round" stroke-linejoin="round"/>
    <path d="M 17.47443199157715 21.705856323242188 C 22.824663162231445 18.158092498779297 27.909805297851562 15.48619556427002 26.74626350402832 14.06494140625 C 26.8640079498291 12.52011775970459 20.374513626098633 13.034381866455078 15.315780639648438 13.555181503295898 C 9.497465133666992 13.98961067199707 16.467538833618164 8.900694847106934 23.407352447509766 3.634864330291748" stroke-width="1.0892857313156128" fill="none" stroke="rgb(225, 218, 248)" stroke-opacity="0.8580808" stroke-linecap="round" stroke-linejoin="round"/>
    <path d="M 18.894275665283203 87.07190704345703 C 23.049888610839844 86.23775482177734 26.114038467407227 84.3801498413086 27.709474563598633 84.95458984375 C 28.254243850708008 87.02511596679688 28.37904167175293 92.84549713134766 28.712120056152344 97.94762420654297 C 28.810564041137695 103.04058074951172 28.841121673583984 97.56025695800781 27.97517967224121 93.31733703613281" stroke-width="1.0892857313156128" fill="none" stroke="rgb(153, 3, 223)" stroke-opacity="0.4999942" stroke-linecap="round" stroke-linejoin="round"/>
    <path d="M 7.237865447998047 76.34093475341797 C 5.882414817810059 75.61480712890625 3.046285629272461 81.52340698242188 3.7370808124542236 83.38821411132812" stroke-width="1.2554508447647095" fill="none" stroke="rgb(111, 185, 165)" stroke-opacity="0.30897442" stroke-linecap="round" stroke-linejoin="round"/>
    <path d="M 97.80845642089844 99.47905731201172 C 101.95508575439453 95.23772430419922 99.7667465209961 100.42687225341797 96.4290771484375 104.64096069335938" stroke-width="1.114712119102478" fill="none" stroke="rgb(175, 33, 75)" stroke-opacity="0.21920429" stroke-linecap="round" stroke-linejoin="round"/>
    <path d="M 53.65703201293945 99.0472640991211 C 57.69664001464844 105.7802505493164 58.363704681396484 109.66732788085938 54.41496658325195 109.21754455566406" stroke-width="1.0980250835418701" fill="none" stroke="rgb(92, 77, 124)" stroke-opacity="0.4385817" stroke-linecap="round" stroke-linejoin="round"/>
    <path d="M 116.03099060058594 112.4852523803711 C 115.90696716308594 113.40948486328125 116.14444732666016 114.99394989013672 117.89707946777344 114.27013397216797 C 119.96538543701172 114.37652587890625 122.5806655883789 111.26920318603516 125.19187927246094 108.15818786621094 C 127.29846954345703 104.53936004638672 130.95724487304688 104.29415130615234 134.61602783203125 104.0501480102539" stroke-width="1.0892857313156128" fill="none" stroke="rgb(156, 13, 19)" stroke-opacity="0.058998294" stroke-linecap="round" stroke-linejoin="round"/>
    <path d="M 8.033838272094727 7.13859224319458 C 13.089728355407715 2.1400983333587646 14.127752304077148 3.285675287246704 18.934059143066406 -0.767899751663208" stroke-width="1.257546067237854" fill="none" stroke="rgb(113, 2, 225)" stroke-opacity="0.3177067" stroke-linecap="round" stroke-linejoin="round"/>
    <path d="M 44.797847747802734 116.85588073730469 C 44.038917541503906 113.22142791748047 42.87869644165039 109.97877502441406 44.17024612426758 110.20609283447266 C 44.73965072631836 111.12556457519531 46.250267028808594 116.94210052490234 48.512237548828125 121.972900390625 C 50.83281326293945 126.97947692871094 47.92816925048828 123.21946716308594 45.45071029663086 118.83675384521484" stroke-width="1.3285287618637085" fill="none" stroke="rgb(55, 223, 212)" stroke-opacity="0.16110685" stroke-linecap="round" stroke-linejoin="round"/>
    <path d="M 63.4911994934082 106.81771087646484 C 64.86518859863281 106.15792846679688 66.26212310791016 106.54389953613281 67.2166976928711 107.37225341796875 C 68.89734649658203 107.40037536621094 66.39718627929688 106.48190307617188 63.54207229614258 105.60989379882812" stroke-width="1.0892857313156128" fill="none" stroke="rgb(237, 71, 25)" stroke-opacity="0.042963307" stroke-linecap="round" stroke-linejoin="round"/>
    <path d="M 12.0631742477417 113.57852935791016 C 11.409300804138184 108.75142669677734 14.597414016723633 106.68391418457031 10.764607429504395 100.20394897460938" stroke-width="1.0892857313156128" fill="none" stroke="rgb(228, 41, 221)" stroke-opacity="0.43997484" stroke-linecap="round" stroke-linejoin="round"/>
    <path d="M 91.66107177734375 115.43780517578125 C 86.23998260498047 114.47818756103516 86.95052337646484 109.1666259765625 84.64965057373047 114.30172729492188" stroke-width="1.0892857313156128" fill="none" stroke="rgb(10, 201, 44)" stroke-opacity="0.42181754" stroke-linecap="round" stroke-linejoin="round"/>
    <path d="M 117.6060791015625 69.54033660888672 C 119.83523559570312 69.43118286132812 121.420166015625 68.09400939941406 124.22206115722656 67.79279327392578 C 126.44285583496094 65.85806274414062 121.63352966308594 62.85624694824219 115.83902740478516 59.85641860961914" stroke-width="1.0892857313156128" fill="none" stroke="rgb(153, 210, 166)" stroke-opacity="0.4266017" stroke-linecap="round" stroke-linejoin="round"/>
    <path d="M 32.95922088623047 38.94986343383789 C 32.02995300292969 42.087162017822266 29.803802490234375 41.139373779296875 28.865320205688477 37.84482192993164 C 30.39835548400879 44.26378631591797 36.125762939453125 44.845245361328125 36.7496337890625 46.98080062866211 C 40.899383544921875 51.385162353515625 38.62811279296875 49.451416015625 34.01097869873047 50.79214096069336" stroke-width="1.0892857313156128" fill="none" stroke="rgb(98, 59, 238)" stroke-opacity="0.31782848" stroke-linecap="round" stroke-linejoin="round"/>
    <path d="M 20.443506240844727 52.78561019897461 C 20.03691864013672 53.89374923706055 16.715301513671875 52.977474212646484 16.472448348999023 46.93585205078125 C 22.279436111450195 44.5306282043457 24.2336368560791 49.58357238769531 24.184070587158203 50.35346984863281 C 28.965181350708008 45.1370964050293 25.53188133239746 47.02734375 22.274744033813477 43.891944885253906" stroke-width="1.3025927543640137" fill="none" stroke="rgb(145, 57, 55)" stroke-opacity="0.046367127" stroke-linecap="round" stroke-linejoin="round"/>
    <path d="M 63.59427261352539 106.66897583007812 C 64.51168060302734 109.34748077392578 68.3839111328125 105.05044555664062 72.42833709716797 106.80194854736328" stroke-width="1.0892857313156128" fill="none" stroke="rgb(243, 179, 141)" stroke-opacity="0.56366485" stroke-linecap="round" stroke-linejoin="round"/>
    <path d="M 18.263694763183594 22.718347549438477 C 16.14512062072754 16.015987396240234 18.90884780883789 12.077899932861328 14.91741943359375 13.287687301635742 C 10.553521156311035 14.797228813171387 9.886820793151855 19.03336524963379 11.961359977722168 13.006649017333984" stroke-width="1.275100588798523" fill="none" stroke="rgb(6, 228, 13)" stroke-opacity="0.8645568" stroke-linecap="round" stroke-linejoin="round"/>
    <path d="M 22.607271194458008 2.9463322162628174 C 22.47291374206543 1.290490984916687 22.063562393188477 3.9687907695770264 24.424436569213867 0.32748323678970337 C 21.044878005981445 -5.076294422149658 21.208118438720703 -3.400599241256714 14.786542892456055 -7.237756729125977 C 13.17824935913086 -13.299894332885742 14.88387393951416 -15.590156555175781 17.57135581970215 -20.280298233032227" stroke-width="1.0892857313156128" fill="none" stroke="rgb(105, 105, 228)" stroke-opacity="0.727418" stroke-linecap="round" stroke-linejoin="round"/>
    <path d="M 46.44255447387695 53.88386154174805 C 51.273189544677734 48.078006744384766 46.01340866088867 49.550636291503906 44.52962875366211 45.3443489074707" stroke-width="1.1645597219467163" fill="none" stroke="rgb(110, 63, 187)" stroke-opacity="0.74763954" stroke-linecap="round" stroke-linejoin="round"/>
    <path d="M 104.98918914794922 110.92776489257812 C 105.45926666259766 108.30924987792969 110.87010192871094 102.9915771484375 106.31804656982422 108.10419464111328 C 102.9134750366211 104.82406616210938 98.14708709716797 100.82604217529297 101.0832748413086 105.12953186035156 C 98.42094421386719 108.5716781616211 92.10887908935547 102.38841247558594 92.77951049804688 98.99639892578125" stroke-width="1.0892857313156128" fill="none" stroke="rgb(252, 141, 225)" stroke-opacity="0.958682" stroke-linecap="round" stroke-linejoin="round"/>
    <path d="M 23.374958038330078 41.43220520019531 C 19.29998207092285 41.92475509643555 24.748184204101562 46.93899154663086 21.72564697265625 42.25856399536133" stroke-width="1.0892857313156128" fill="none" stroke="rgb(214, 137, 201)" stroke-opacity="0.96992826" stroke-linecap="round" stroke-linejoin="round"/>
    <path d="M 34.78366470336914 50.833248138427734 C 35.54274368286133 53.05470275878906 36.686248779296875 49.17793273925781 36.67320251464844 46.140159606933594" stroke-width="1.2642143964767456" fill="none" stroke="rgb(195, 20, 84)" stroke-opacity="0.09872433" stroke-linecap="round" stroke-linejoin="round"/>
    <path d="M 22.312721252441406 42.25454330444336 C 23.778549194335938 47.155277252197266 26.375452041625977 45.5045051574707 22.99729347229004 42.02175521850586 C 23.273914337158203 45.23582077026367 25.820770263671875 49.64409637451172 31.12112045288086 55.42580032348633 C 34.020896911621094 58.51416778564453 28.68122100830078 63.11457824707031 25.10708999633789 69.06356048583984" stroke-width="1.0892857313156128" fill="none" stroke="rgb(164, 145, 182)" stroke-opacity="0.48573288" stroke-linecap="round" stroke-linejoin="round"/>
    <path d="M 34.32406234741211 50.83601760864258 C 34.903175354003906 55.45277404785156 38.813167572021484 58.14690399169922 35.27819061279297 59.84821319580078" stroke-width="1.213922142982483" fill="none" stroke="rgb(194, 60, 146)" stroke-opacity="0.878392" stroke-linecap="round" stroke-linejoin="round"/>
    <path d="M 73.4624252319336 106.10128021240234 C 78.524658203125 108.64437103271484 83.88914489746094 104.22553253173828 80.07782745361328 104.04563903808594 C 75.09001922607422 107.98323822021484 76.8262710571289 110.5014419555664 76.34172821044922 106.73799896240234 C 78.093017578125 109.78821563720703 81.00894165039062 108.78675079345703 81.81936645507812 110.13842010498047" stroke-width="1.2706787586212158" fill="none" stroke="rgb(179, 152, 96)" stroke-opacity="0.6800864" stroke-linecap="round" stroke-linejoin="round"/>
    <path d="M 43.60759353637695 45.515380859375 C 42.64829635620117 41.09172821044922 41.884098052978516 46.63685607910156 36.26993942260742 45.23405075073242" stroke-width="1.110843300819397" fill="none" stroke="rgb(82, 96, 30)" stroke-opacity="0.6343874" stroke-linecap="round" stroke-linejoin="round"/>
    <path d="M 93.78284454345703 98.28165435791016 C 93.3514175415039 93.71099090576172 87.65885925292969 88.79804992675781 85.70360565185547 86.1385498046875 C 81.8062973022461 89.44024658203125 79.52961730957031 90.55623626708984 84.08026885986328 84.80673217773438" stroke-width="1.3067902326583862" fill="none" stroke="rgb(226, 130, 118)" stroke-opacity="0.17515272" stroke-linecap="round" stroke-linejoin="round"/>
    <path d="M 11.924872398376465 12.933940887451172 C 9.481334686279297 13.129274368286133 14.23831844329834 13.295604705810547 16.56253433227539 17.91901969909668" stroke-width="1.3056741952896118" fill="none" stroke="rgb(8, 239, 245)" stroke-opacity="0.343559" stroke-linecap="round" stroke-linejoin="round"/>
    <path d="M 22.813894271850586 43.7784423828125 C 27.45068359375 41.621402740478516 24.58982276916504 40.34229278564453 25.586933135986328 46.17844009399414" stroke-width="1.0892857313156128" fill="none" stroke="rgb(204, 243, 236)" stroke-opacity="0.6084977" stroke-linecap="round" stroke-linejoin="round"/>
    <path d="M 81.09940338134766 48.1605224609375 C 76.38907623291016 45.022438049316406 75.32550811767578 42.31081771850586 74.54344177246094 41.404624938964844 C 78.67437744140625 41.035003662109375 84.68717193603516 41.07918167114258 90.75788116455078 46.666404724121094" stroke-width="1.0892857313156128" fill="none" stroke="rgb(251, 128, 109)" stroke-opacity="0.747774" stroke-linecap="round" stroke-linejoin="round"/>
    <path d="M 77.65084838867188 95.89485168457031 C 83.71684265136719 93.71497344970703 87.86579895019531 90.68194580078125 87.02702331542969 91.55882263183594" stroke-width="1.0942256450653076" fill="none" stroke="rgb(184, 142, 109)" stroke-opacity="0.9225964" stroke-linecap="round" stroke-linejoin="round"/>
    <path d="M 76.30603790283203 58.429744720458984 C 78.92022705078125 64.15248107910156 84.48749542236328 61.77900314331055 81.34873962402344 60.73241424560547" stroke-width="1.0892857313156128" fill="none" stroke="rgb(11, 195, 136)" stroke-opacity="0.17364146" stroke-linecap="round" stroke-linejoin="round"/>
    <path d="M 33.96000671386719 99.72594451904297 C 31.728364944458008 98.16671752929688 33.510841369628906 103.22099304199219 30.609506607055664 97.73869323730469 C 30.072906494140625 98.15017700195312 34.550148010253906 99.19451141357422 33.13964080810547 95.54034423828125" stroke-width="1.2895817756652832" fill="none" stroke="rgb(112, 238, 47)" stroke-opacity="0.5153711" stroke-linecap="round" stroke-linejoin="round"/>
    <path d="M 86.16365814208984 97.64454650878906 C 89.0616683959961 101.50167083740234 92.28097534179688 106.67646789550781 92.50420379638672 102.1851577758789 C 96.95651245117188 98.44401550292969 100.04873657226562 98.70695495605469 96.84899139404297 98.02916717529297 C 98.05318450927734 101.95149993896484 99.44982147216797 102.06958770751953 95.47307586669922 104.51160430908203" stroke-width="1.2253254652023315" fill="none" stroke="rgb(60, 101, 193)" stroke-opacity="0.42521074" stroke-linecap="round" stroke-linejoin="round"/>
    <path d="M 93.4989013671875 74.70479583740234 C 89.77084350585938 78.15325164794922 91.12178802490234 75.9333267211914 86.72948455810547 73.42279815673828 C 85.46138000488281 72.5921630859375 83.09305572509766 77.13191986083984 77.1866455078125 82.18687438964844" stroke-width="1.1210660934448242" fill="none" stroke="rgb(98, 42, 239)" stroke-opacity="0.5651823" stroke-linecap="round" stroke-linejoin="round"/>
    <path d="M 63.48785400390625 6.608838081359863 C 66.96814727783203 2.3595569133758545 64.88336181640625 -1.5398122072219849 68.76685333251953 -4.482218265533447" stroke-width="1.0892857313156128" fill="none" stroke="rgb(21, 169, 111)" stroke-opacity="0.35958064" stroke-linecap="round" stroke-linejoin="round"/>
    <path d="M 4.639060974121094 41.16553497314453 C 10.461625099182129 45.80282211303711 6.728354454040527 49.789039611816406 12.573010444641113 49.68842697143555 C 18.167694091796875 45.27888870239258 12.688854217529297 45.90310287475586 14.06143856048584 45.72290802001953" stroke-width="1.0892857313156128" fill="none" stroke="rgb(162, 141, 73)" stroke-opacity="0.47521546" stroke-linecap="round" stroke-linejoin="round"/>
    <path d="M 35.52280807495117 7.4606523513793945 C 40.34377670288086 4.505985260009766 43.31916427612305 1.2872170209884644 48.34651184082031 -2.424393653869629 C 42.91141128540039 -3.1530983448028564 39.44875717163086 -2.090066432952881 39.67048263549805 -2.181438446044922" stroke-width="1.0892857313156128" fill="none" stroke="rgb(65, 41, 81)" stroke-opacity="0.83567184" stroke-linecap="round" stroke-linejoin="round"/>
    <path d="M 77.24876403808594 108.84037017822266 C 75.87932586669922 105.95690155029297 72.90486145019531 104.45480346679688 77.78822326660156 102.33216094970703" stroke-width="1.0892857313156128" fill="none" stroke="rgb(33, 246, 89)" stroke-opacity="0.7274509" stroke-linecap="round" stroke-linejoin="round"/>
    <path d="M 8.825441360473633 96.7987289428711 C 13.362950325012207 90.30479431152344 17.981143951416016 91.86073303222656 20.987518310546875 90.68338012695312 C 23.71809196472168 97.6259994506836 19.690166473388672 100.49732208251953 13.290372848510742 100.47442626953125" stroke-width="1.3066349029541016" fill="none" stroke="rgb(245, 45, 7)" stroke-opacity="0.13035256" stroke-linecap="round" stroke-linejoin="round"/>
    <path d="M 90.65762329101562 74.01714324951172 C 92.8235855102539 79.56266021728516 88.43094635009766 85.41839599609375 86.13868713378906 85.52774810791016 C 84.6584243774414 82.3792724609375 79.28021240234375 82.54131317138672 79.64801025390625 84.87873077392578 C 83.19854736328125 79.91909790039062 85.70574951171875 85.29872131347656 88.44954681396484 87.14093017578125" stroke-width="1.227062463760376" fill="none" stroke="rgb(57, 244, 249)" stroke-opacity="0.92468154" stroke-linecap="round" stroke-linejoin="round"/>
    <path d="M 11.833085060119629 51.86746597290039 C 8.331802368164062 46.101200103759766 5.820204257965088 43.50926971435547 3.2383885383605957 44.99056625366211 C -2.1707170009613037 49.397403717041016 3.4647507667541504 45.83552932739258 -0.035854972898960114 38.96230697631836" stroke-width="1.0892857313156128" fill="none" stroke="rgb(124, 35, 203)" stroke-opacity="0.96967274" stroke-linecap="round" stroke-linejoin="round"/>
    <path d="M 89.37483978271484 41.33905029296875 C 90.36646270751953 36.93674087524414 88.69281005859375 35.273258209228516 93.24076080322266 35.74602508544922 C 95.83973693847656 38.5626335144043 101.5009765625 33.439876556396484 108.02059936523438 34.08815383911133" stroke-width="1.2251049280166626" fill="none" stroke="rgb(82, 55, 167)" stroke-opacity="0.2964641" stroke-linecap="round" stroke-linejoin="round"/>
    <path d="M 103.8990478515625 48.61368179321289 C 106.39779663085938 48.83719253540039 106.74141693115234 52.34711837768555 104.29914855957031 55.06645584106445 C 106.2570571899414 59.5850830078125 109.49958038330078 55.59831619262695 110.42398834228516 60.79845428466797" stroke-width="1.0892857313156128" fill="none" stroke="rgb(25, 43, 125)" stroke-opacity="0.035700344" stroke-linecap="round" stroke-linejoin="round"/>
    <path d="M 10.724682807922363 51.903987884521484 C 5.800935745239258 54.738487243652344 2.496401071548462 58.309539794921875 4.637316703796387 53.04142761230469" stroke-width="1.2976189851760864" fill="none" stroke="rgb(48, 13, 214)" stroke-opacity="0.9647652" stroke-linecap="round" stroke-linejoin="round"/>
  </g>
</svg>
