<?xml version="1.0" ?>
<svg xmlns="http://www.w3.org/2000/svg" version="1.1" width="693.0" height="693.0">
  <defs/>
  <g>
    <path d="M 49.890682220458984 55.24726486206055 C 49.433834075927734 55.559059143066406 50.27328872680664 54.63380813598633 51.031829833984375 55.00625991821289 C 50.08088302612305 55.564544677734375 49.07746124267578 55.57667541503906 47.57984924316406 55.477848052978516 C 47.25783920288086 56.041587829589844 45.310855865478516 56.22362518310547 41.67424392700195 54.076969146728516 C 41.35593795776367 49.85557556152344 39.81834411621094 42.494754791259766 40.39451217651367 37.50223922729492 C 38.956298828125 33.436256408691406 38.839847564697266 32.93923568725586 38.02824401855469 35.66768264770508 C 38.6170539855957 35.71468734741211 39.05726623535156 35.82396697998047 42.58946990966797 35.19594192504883 C 45.93295669555664 34.075016021728516 50.9365119934082 33.9512939453125 52.83915710449219 37.014835357666016 C 55.497257232666016 39.069488525390625 56.29450988769531 44.45378494262695 56.206966400146484 49.71342086791992 C 53.45411682128906 52.65531921386719 51.717620849609375 58.94973373413086 50.03691482543945 66.10665130615234" stroke-width="1.5549499988555908" fill="none" stroke="rgb(20, 4, 16)" stroke-opacity="1.0" stroke-linecap="round" stroke-linejoin="round"/>
    <path d="M 52.877384185791016 67.51571655273438 C 56.74711990356445 67.33818817138672 60.77096939086914 68.14175415039062 61.168235778808594 68.17552947998047 C 62.02927017211914 68.2280502319336 60.08024978637695 66.87895965576172 57.828086853027344 66.08356475830078 C 57.849849700927734 63.06061553955078 61.255184173583984 64.98238372802734 64.95314025878906 67.34246063232422" stroke-width="1.4408599138259888" fill="none" stroke="rgb(205, 180, 89)" stroke-opacity="0.5275442" stroke-linecap="round" stroke-linejoin="round"/>
    <path d="M 46.726173400878906 56.91240310668945 C 45.17158889770508 56.05076599121094 43.44559097290039 54.76322937011719 42.09964370727539 53.13905715942383 C 40.63787078857422 51.891197204589844 42.253543853759766 51.75907516479492 42.86497116088867 54.0949592590332" stroke-width="0.9142717719078064" fill="none" stroke="rgb(115, 57, 145)" stroke-opacity="0.45556894" stroke-linecap="round" stroke-linejoin="round"/>
    <path d="M 67.93569946289062 43.334922790527344 C 68.29498291015625 41.122859954833984 68.00639343261719 40.81161880493164 68.39917755126953 41.66552734375 C 68.37673950195312 40.39546585083008 68.81636047363281 38.89980697631836 68.89414978027344 37.32656478881836 C 68.82671356201172 37.78532791137695 69.00826263427734 35.39603042602539 69.00423431396484 34.991912841796875 C 69.15830993652344 36.45462417602539 70.13063049316406 40.218116760253906 70.35061645507812 40.53205490112305 C 70.3409652709961 45.1788215637207 71.05387878417969 48.4141731262207 67.98441314697266 52.7717399597168 C 66.93169403076172 54.4442253112793 64.27025604248047 53.72006607055664 61.711326599121094 54.23431396484375 C 61.950477600097656 54.177982330322266 61.40498352050781 53.59376525878906 60.16432189941406 53.59423828125 C 59.36444091796875 53.955692291259766 58.53714370727539 53.866477966308594 59.13608169555664 54.38534927368164 C 60.4718017578125 54.392601013183594 60.930702209472656 54.28971862792969 61.589691162109375 53.0743408203125 C 62.5658073425293 53.51587677001953 61.073055267333984 57.3365364074707 63.70610809326172 56.49616622924805 C 66.73567962646484 58.56694412231445 66.91694641113281 64.64435577392578 67.7900619506836 69.11956024169922 C 69.59893035888672 71.86897277832031 69.06433868408203 72.5472640991211 64.51101684570312 71.8485336303711 C 64.21826171875 73.53739166259766 59.13405227661133 74.77423858642578 61.29081344604492 72.53466796875" stroke-width="1.343387484550476" fill="none" stroke="rgb(39, 8, 26)" stroke-opacity="0.98616743" stroke-linecap="round" stroke-linejoin="round"/>
    <path d="M 60.78789138793945 54.63514709472656 C 63.93764877319336 57.024620056152344 63.760215759277344 52.62340545654297 66.13362121582031 52.13874435424805" stroke-width="0.9142717719078064" fill="none" stroke="rgb(60, 155, 127)" stroke-opacity="0.47655138" stroke-linecap="round" stroke-linejoin="round"/>
    <path d="M 66.21775817871094 73.74508666992188 C 67.18223571777344 72.09022521972656 62.503971099853516 76.13843536376953 66.05635833740234 77.15704345703125 C 66.6179428100586 74.3006820678711 68.03729248046875 77.00172424316406 63.533145904541016 76.6169662475586 C 65.33576965332031 77.74163818359375 70.29170227050781 73.37428283691406 66.08023834228516 74.38597869873047" stroke-width="0.9142717719078064" fill="none" stroke="rgb(154, 70, 147)" stroke-opacity="0.95627993" stroke-linecap="round" stroke-linejoin="round"/>
    <path d="M 42.12915802001953 52.4422607421875 C 45.81952667236328 52.13981628417969 48.967369079589844 49.14870071411133 48.76897048950195 45.48530578613281 C 47.08329772949219 49.47287368774414 42.39435958862305 51.4265022277832 42.39876174926758 46.707149505615234" stroke-width="1.5260530710220337" fill="none" stroke="rgb(164, 172, 78)" stroke-opacity="0.23112416" stroke-linecap="round" stroke-linejoin="round"/>
    <path d="M 51.71237564086914 66.89049530029297 C 47.2531623840332 71.33973693847656 48.518104553222656 71.12506866455078 50.45759582519531 73.00911712646484 C 50.38130187988281 74.23857879638672 49.7888069152832 72.63697052001953 48.74181365966797 73.3627700805664 C 42.48540496826172 74.59976196289062 38.679771423339844 71.41859436035156 37.56766128540039 71.5650405883789" stroke-width="1.0597271919250488" fill="none" stroke="rgb(149, 38, 0)" stroke-opacity="0.38553703" stroke-linecap="round" stroke-linejoin="round"/>
    <path d="M 64.89379119873047 68.11775207519531 C 57.76099395751953 66.90575408935547 60.6417350769043 71.39382934570312 55.79293441772461 73.07086181640625 C 56.07088851928711 74.97238159179688 58.15635681152344 80.49430084228516 60.290836334228516 83.33003997802734" stroke-width="0.9142717719078064" fill="none" stroke="rgb(200, 112, 85)" stroke-opacity="0.4266165" stroke-linecap="round" stroke-linejoin="round"/>
    <path d="M 64.87911224365234 68.05081176757812 C 60.32099533081055 71.68667602539062 58.17599105834961 73.14575958251953 57.103755950927734 66.871337890625 C 53.87686538696289 69.01355743408203 50.89531326293945 66.06752014160156 46.11447525024414 69.37870025634766" stroke-width="1.437862753868103" fill="none" stroke="rgb(183, 69, 81)" stroke-opacity="0.0" stroke-linecap="round" stroke-linejoin="round"/>
    <path d="M 67.821533203125 41.11658477783203 C 67.16582489013672 38.88578796386719 72.93637084960938 41.257381439208984 75.59424591064453 36.252166748046875 C 76.74444580078125 31.434167861938477 79.4412841796875 32.313812255859375 79.63806915283203 33.399864196777344 C 84.00035095214844 34.684471130371094 86.74468994140625 36.292755126953125 83.38750457763672 35.532920837402344" stroke-width="0.9142717719078064" fill="none" stroke="rgb(58, 102, 237)" stroke-opacity="0.0" stroke-linecap="round" stroke-linejoin="round"/>
    <path d="M 67.76614379882812 66.4981689453125 C 70.98828887939453 64.58905029296875 75.47755432128906 65.17811584472656 70.83695983886719 66.17906188964844 C 66.44462585449219 63.90974044799805 62.406288146972656 67.32797241210938 65.2477035522461 64.96028137207031 C 70.37019348144531 61.111366271972656 72.592529296875 59.633995056152344 76.51596069335938 59.925418853759766" stroke-width="0.9142717719078064" fill="none" stroke="rgb(77, 190, 104)" stroke-opacity="0.4686813" stroke-linecap="round" stroke-linejoin="round"/>
    <path d="M 82.94168090820312 34.34902572631836 C 78.1927719116211 33.53106689453125 82.21260070800781 30.380325317382812 85.26567077636719 31.103343963623047" stroke-width="0.9142717719078064" fill="none" stroke="rgb(215, 182, 179)" stroke-opacity="0.0" stroke-linecap="round" stroke-linejoin="round"/>
    <path d="M 37.85940170288086 71.5384292602539 C 37.63166046142578 71.35967254638672 33.91338348388672 70.04080200195312 33.412960052490234 68.08077239990234 C 36.091697692871094 69.73027801513672 33.93449020385742 74.95205688476562 33.23442077636719 81.36499786376953 C 30.701017379760742 78.516845703125 35.1397590637207 75.7899398803711 35.537166595458984 73.99784851074219" stroke-width="1.3498660326004028" fill="none" stroke="rgb(0, 170, 139)" stroke-opacity="0.21364598" stroke-linecap="round" stroke-linejoin="round"/>
    <path d="M 65.02081298828125 52.8419303894043 C 64.70124053955078 49.49537658691406 66.3106918334961 52.80413818359375 65.9148178100586 53.00459289550781 C 67.06700134277344 51.68177032470703 70.60639953613281 47.972625732421875 73.17478942871094 49.35630798339844" stroke-width="1.3609659671783447" fill="none" stroke="rgb(110, 230, 51)" stroke-opacity="0.8568589" stroke-linecap="round" stroke-linejoin="round"/>
    <path d="M 61.12201690673828 83.0084228515625 C 62.5751838684082 85.13887786865234 56.51538848876953 88.99192810058594 52.41191482543945 96.45440673828125 C 49.82228469848633 99.71939086914062 53.92583084106445 97.89028930664062 60.23012924194336 100.87144470214844" stroke-width="0.9142717719078064" fill="none" stroke="rgb(17, 196, 177)" stroke-opacity="0.5473355" stroke-linecap="round" stroke-linejoin="round"/>
    <path d="M 64.23116302490234 74.14854431152344 C 64.43585968017578 77.85694885253906 64.39883422851562 83.07437896728516 59.92536163330078 78.70382690429688 C 63.46552276611328 74.39734649658203 58.78422546386719 78.15609741210938 59.72187805175781 82.5444564819336" stroke-width="0.9142717719078064" fill="none" stroke="rgb(238, 149, 27)" stroke-opacity="0.20489797" stroke-linecap="round" stroke-linejoin="round"/>
    <path d="M 63.959835052490234 74.47737884521484 C 68.44316864013672 70.98390197753906 70.28767395019531 66.62890625 74.24340057373047 69.89769744873047 C 77.71233367919922 65.39067077636719 77.91313171386719 68.31751251220703 78.12670135498047 66.17655944824219 C 77.274169921875 67.33891296386719 74.58409881591797 68.62850189208984 76.75289916992188 67.65409088134766" stroke-width="0.9142717719078064" fill="none" stroke="rgb(174, 145, 126)" stroke-opacity="0.3595954" stroke-linecap="round" stroke-linejoin="round"/>
    <path d="M 75.45907592773438 59.200469970703125 C 83.16041564941406 60.126441955566406 76.67058563232422 59.84225082397461 80.97016906738281 54.90976333618164 C 76.65504455566406 54.87895965576172 77.48011016845703 50.94920349121094 78.50758361816406 46.75943374633789 C 83.11434936523438 49.51007843017578 83.64555358886719 54.36282730102539 85.43634033203125 57.457725524902344" stroke-width="1.4298303127288818" fill="none" stroke="rgb(79, 76, 8)" stroke-opacity="0.3247344" stroke-linecap="round" stroke-linejoin="round"/>
    <path d="M 47.32939529418945 69.47799682617188 C 47.684078216552734 71.62708282470703 42.72359848022461 67.52156066894531 46.31940460205078 65.23667907714844" stroke-width="0.9451270699501038" fill="none" stroke="rgb(147, 75, 174)" stroke-opacity="0.568724" stroke-linecap="round" stroke-linejoin="round"/>
    <path d="M 7.5968403816223145 91.05523681640625 C 4.745644569396973 94.51107788085938 5.334425449371338 93.35374450683594 6.096233367919922 91.22264099121094 C 9.206894874572754 91.95296478271484 9.505427360534668 89.62528228759766 3.2218246459960938 89.312255859375 C 6.095089912414551 89.7438735961914 3.680438756942749 92.4245834350586 -0.5786380171775818 92.05792236328125" stroke-width="0.9142717719078064" fill="none" stroke="rgb(224, 33, 139)" stroke-opacity="0.118548475" stroke-linecap="round" stroke-linejoin="round"/>
    <path d="M 82.99549865722656 94.23590087890625 C 78.32160186767578 97.23649597167969 75.67108154296875 95.50372314453125 76.12837982177734 95.46247863769531 C 77.8663558959961 90.91307830810547 74.10980987548828 94.1858901977539 69.41925048828125 96.08377838134766" stroke-width="0.9142717719078064" fill="none" stroke="rgb(0, 248, 100)" stroke-opacity="0.45337546" stroke-linecap="round" stroke-linejoin="round"/>
    <path d="M 96.05337524414062 18.151668548583984 C 99.6887435913086 16.294260025024414 101.50499725341797 11.110395431518555 106.18193817138672 10.42745590209961 C 105.829345703125 6.279524326324463 102.08082580566406 9.955865859985352 105.50802612304688 12.083126068115234" stroke-width="1.2062978744506836" fill="none" stroke="rgb(127, 88, 255)" stroke-opacity="0.70289576" stroke-linecap="round" stroke-linejoin="round"/>
    <path d="M 57.188961029052734 78.6299057006836 C 54.94588851928711 77.81524658203125 51.86656188964844 76.16635131835938 47.266387939453125 77.69824981689453 C 45.47198486328125 76.58856201171875 47.78602981567383 75.68915557861328 48.38304138183594 71.70660400390625 C 48.467437744140625 69.8843994140625 46.6676139831543 63.93129348754883 48.80699920654297 61.23833084106445" stroke-width="1.1901170015335083" fill="none" stroke="rgb(25, 3, 155)" stroke-opacity="0.35597345" stroke-linecap="round" stroke-linejoin="round"/>
    <path d="M 87.79582214355469 101.48481750488281 C 81.62344360351562 101.86907196044922 80.44771575927734 101.75830841064453 82.46690368652344 96.99768829345703 C 81.12688446044922 95.51150512695312 77.42399597167969 99.29804229736328 77.37091064453125 101.37232208251953 C 79.93938446044922 99.86376953125 75.84184265136719 99.22500610351562 77.54045867919922 103.31458282470703" stroke-width="0.9142717719078064" fill="none" stroke="rgb(244, 25, 165)" stroke-opacity="0.1038339" stroke-linecap="round" stroke-linejoin="round"/>
    <path d="M 75.071044921875 37.2768669128418 C 73.85723876953125 42.65535354614258 71.71892547607422 47.63190460205078 73.62220001220703 49.86849594116211 C 76.72209930419922 47.64570236206055 78.1286849975586 49.324398040771484 78.45830535888672 51.97695541381836 C 77.29401397705078 51.408546447753906 79.2728271484375 51.7940559387207 73.94542694091797 51.95618438720703" stroke-width="1.3851425647735596" fill="none" stroke="rgb(190, 157, 48)" stroke-opacity="0.74282795" stroke-linecap="round" stroke-linejoin="round"/>
    <path d="M 62.127349853515625 92.46910095214844 C 62.032962799072266 98.64797973632812 60.31470489501953 95.8531723022461 64.73339080810547 96.36954498291016 C 65.622802734375 100.0295181274414 65.85778045654297 105.87374114990234 63.57417678833008 108.67459869384766 C 60.27752685546875 108.36833190917969 64.89581298828125 111.16337585449219 66.7215576171875 106.19646453857422" stroke-width="1.152991533279419" fill="none" stroke="rgb(49, 224, 236)" stroke-opacity="0.5740237" stroke-linecap="round" stroke-linejoin="round"/>
    <path d="M 30.511943817138672 74.27336120605469 C 32.207008361816406 74.19281005859375 36.342498779296875 71.25425720214844 37.55464553833008 68.3431396484375 C 37.302459716796875 74.12647247314453 34.43134689331055 72.3178482055664 36.3041877746582 74.75370788574219" stroke-width="0.9213742017745972" fill="none" stroke="rgb(227, 59, 35)" stroke-opacity="0.0" stroke-linecap="round" stroke-linejoin="round"/>
    <path d="M 10.242616653442383 85.02318572998047 C 10.2433500289917 85.91233825683594 8.857025146484375 82.54432678222656 11.556065559387207 85.73628997802734" stroke-width="1.216070532798767" fill="none" stroke="rgb(218, 18, 231)" stroke-opacity="0.8715802" stroke-linecap="round" stroke-linejoin="round"/>
    <path d="M 6.79855489730835 90.51029205322266 C 3.075430393218994 88.74088287353516 2.335648775100708 91.48216247558594 5.650555610656738 97.14724731445312 C 6.284186840057373 97.18772888183594 7.238902568817139 100.95247650146484 7.300526142120361 100.70514678955078 C 4.714351654052734 96.41964721679688 2.2638323307037354 99.18856048583984 3.3332293033599854 101.81987762451172" stroke-width="0.9142717719078064" fill="none" stroke="rgb(96, 84, 217)" stroke-opacity="0.68795365" stroke-linecap="round" stroke-linejoin="round"/>
    <path d="M 94.72074890136719 95.19151306152344 C 100.3017349243164 97.69218444824219 102.8739242553711 100.0177230834961 106.85102081298828 97.12548828125 C 110.25479125976562 97.0934066772461 111.66841125488281 94.09078216552734 115.46930694580078 89.91764068603516 C 116.60582733154297 92.12944030761719 116.9537353515625 87.70445251464844 116.51835632324219 86.8619155883789" stroke-width="0.9142717719078064" fill="none" stroke="rgb(196, 184, 146)" stroke-opacity="0.7808453" stroke-linecap="round" stroke-linejoin="round"/>
    <path d="M 87.8672866821289 42.47836685180664 C 88.45339965820312 41.64536666870117 91.29601287841797 42.826255798339844 89.0067367553711 42.63743591308594 C 91.67277526855469 48.742218017578125 87.80329132080078 44.50618362426758 86.24882507324219 39.05575180053711" stroke-width="1.2603670358657837" fill="none" stroke="rgb(68, 28, 216)" stroke-opacity="0.7862417" stroke-linecap="round" stroke-linejoin="round"/>
    <path d="M 53.52544021606445 56.698307037353516 C 49.57749938964844 60.57057571411133 49.9996223449707 62.18837356567383 50.6068115234375 62.416236877441406 C 48.230224609375 60.08620071411133 43.01619338989258 64.49046325683594 41.547367095947266 64.6591567993164 C 45.36751937866211 65.70366668701172 46.46685028076172 66.41472625732422 43.87075424194336 71.35595703125" stroke-width="1.4481863975524902" fill="none" stroke="rgb(68, 252, 17)" stroke-opacity="0.71951973" stroke-linecap="round" stroke-linejoin="round"/>
    <path d="M 74.32784271240234 1.190831184387207 C 72.36959075927734 3.89571475982666 76.05464172363281 -0.9212504029273987 76.40985870361328 -1.0020525455474854 C 74.94234466552734 -0.7409093976020813 73.67340087890625 -2.3422446250915527 69.06104278564453 2.5290229320526123" stroke-width="1.0026144981384277" fill="none" stroke="rgb(210, 185, 243)" stroke-opacity="0.5971079" stroke-linecap="round" stroke-linejoin="round"/>
    <path d="M 28.970626831054688 52.63887023925781 C 26.043773651123047 52.60951232910156 29.138254165649414 53.31706237792969 26.77899932861328 49.26936721801758 C 30.572486877441406 51.357025146484375 33.136688232421875 50.77859878540039 38.676513671875 49.75634002685547" stroke-width="0.9142717719078064" fill="none" stroke="rgb(135, 35, 174)" stroke-opacity="0.7588616" stroke-linecap="round" stroke-linejoin="round"/>
    <path d="M 44.22129821777344 17.142141342163086 C 42.79358673095703 18.413785934448242 46.06354904174805 18.89944839477539 50.99940872192383 14.351962089538574" stroke-width="0.9165313243865967" fill="none" stroke="rgb(216, 76, 132)" stroke-opacity="0.51035255" stroke-linecap="round" stroke-linejoin="round"/>
  </g>
</svg>
