<?xml version="1.0" ?>
<svg xmlns="http://www.w3.org/2000/svg" version="1.1" width="1104.0" height="1104.0">
  <defs/>
  <g>
    <path d="M 39.92446517944336 76.39595031738281 C 67.92454528808594 84.79217529296875 96.71794128417969 81.56883239746094 97.12554931640625 78.27404022216797 C 96.94254302978516 73.79003143310547 68.17096710205078 63.52180480957031 44.626373291015625 71.8586654663086" stroke-width="1.1892671585083008" fill="none" stroke="rgb(90, 91, 87)" stroke-opacity="0.99" stroke-linecap="round" stroke-linejoin="round"/>
    <path d="M 69.84390258789062 76.67510986328125 C 68.01457214355469 62.01698684692383 66.86907196044922 46.75126647949219 69.84394073486328 30.9581298828125" stroke-width="1.1892671585083008" fill="none" stroke="rgb(166, 111, 21)" stroke-opacity="0.99" stroke-linecap="round" stroke-linejoin="round"/>
    <path d="M 70.4513168334961 50.24253463745117 C 75.97103881835938 45.940242767333984 81.03253173828125 45.926918029785156 82.01941680908203 46.24659729003906" stroke-width="1.1892671585083008" fill="none" stroke="rgb(166, 116, 21)" stroke-opacity="0.99" stroke-linecap="round" stroke-linejoin="round"/>
    <path d="M 66.98019409179688 57.655765533447266 C 58.99628829956055 53.36680221557617 59.88340377807617 45.960994720458984 54.36368179321289 46.440513610839844" stroke-width="1.1892671585083008" fill="none" stroke="rgb(166, 111, 21)" stroke-opacity="1.0" stroke-linecap="round" stroke-linejoin="round"/>
    <path d="M 70.98677825927734 30.902198791503906 C 70.61061096191406 22.941753387451172 78.00218963623047 20.259668350219727 80.19873046875 18.674623489379883" stroke-width="1.1892671585083008" fill="none" stroke="rgb(166, 111, 21)" stroke-opacity="0.9900006" stroke-linecap="round" stroke-linejoin="round"/>
    <path d="M 69.24932098388672 30.95813751220703 C 65.43852996826172 24.93758773803711 63.60840606689453 24.098438262939453 61.31073760986328 23.325895309448242" stroke-width="1.1892671585083008" fill="none" stroke="rgb(166, 111, 21)" stroke-opacity="0.99000007" stroke-linecap="round" stroke-linejoin="round"/>
    <path d="M 61.310752868652344 22.724884033203125 C 61.31073760986328 22.72475814819336 61.83161544799805 20.473690032958984 61.686885833740234 19.794279098510742 C 60.35316848754883 19.72281265258789 59.137001037597656 18.950302124023438 59.731468200683594 18.950321197509766" stroke-width="1.1892671585083008" fill="none" stroke="rgb(166, 116, 21)" stroke-opacity="0.99" stroke-linecap="round" stroke-linejoin="round"/>
    <path d="M 61.31074142456055 22.724620819091797 C 54.196651458740234 24.92238998413086 53.96223831176758 25.34867286682129 53.86231231689453 25.854915618896484" stroke-width="1.1892671585083008" fill="none" stroke="rgb(166, 111, 21)" stroke-opacity="0.99000025" stroke-linecap="round" stroke-linejoin="round"/>
    <path d="M 81.425048828125 46.23895263671875 C 81.42499542236328 46.23948287963867 80.90428924560547 43.988609313964844 82.23639678955078 42.715293884277344 C 82.38136291503906 42.04901123046875 83.59745025634766 41.276458740234375 83.5974349975586 41.87082290649414" stroke-width="1.1892671585083008" fill="none" stroke="rgb(166, 111, 21)" stroke-opacity="0.9900005" stroke-linecap="round" stroke-linejoin="round"/>
    <path d="M 82.01821899414062 46.23969268798828 C 89.13360595703125 47.843109130859375 89.3680648803711 48.26933288574219 89.4679183959961 48.775489807128906" stroke-width="1.1892671585083008" fill="none" stroke="rgb(166, 111, 16)" stroke-opacity="1.0" stroke-linecap="round" stroke-linejoin="round"/>
    <path d="M 80.19871520996094 18.082674026489258 C 80.19872283935547 18.082670211791992 82.43378448486328 18.881860733032227 83.3927993774414 18.6154842376709 C 84.3504409790039 18.34908103942871 84.72830200195312 19.875946044921875 85.3227767944336 19.876052856445312" stroke-width="1.1892671585083008" fill="none" stroke="rgb(161, 111, 21)" stroke-opacity="0.9900001" stroke-linecap="round" stroke-linejoin="round"/>
    <path d="M 69.24951934814453 30.363691329956055 C 69.24933624267578 30.36353302001953 71.20468139648438 27.792800903320312 72.1636962890625 28.094375610351562 C 73.71448516845703 27.82798194885254 75.47151184082031 28.032577514648438 75.47154998779297 28.032550811767578" stroke-width="1.1892671585083008" fill="none" stroke="rgb(166, 111, 21)" stroke-opacity="1.0" stroke-linecap="round" stroke-linejoin="round"/>
    <path d="M 80.1987533569336 18.677274703979492 C 81.84907531738281 11.418001174926758 74.67740631103516 14.841184616088867 74.28555297851562 14.508174896240234" stroke-width="1.1892671585083008" fill="none" stroke="rgb(161, 111, 21)" stroke-opacity="0.99000007" stroke-linecap="round" stroke-linejoin="round"/>
    <path d="M 66.42826843261719 41.48209762573242 C 67.02272033691406 40.8875846862793 66.78038024902344 38.34341812133789 66.0531234741211 37.66409683227539 C 65.31385803222656 36.99811553955078 64.09776306152344 36.22556686401367 63.5032958984375 36.2255744934082" stroke-width="1.1892671585083008" fill="none" stroke="rgb(166, 111, 16)" stroke-opacity="1.0" stroke-linecap="round" stroke-linejoin="round"/>
    <path d="M 53.89560317993164 46.18485641479492 C 53.895599365234375 46.184814453125 54.416404724121094 43.93376541137695 54.27171325683594 43.254817962646484 C 52.937923431396484 43.18302536010742 51.721839904785156 42.41046905517578 51.724464416503906 42.41044998168945" stroke-width="1.1892671585083008" fill="none" stroke="rgb(166, 111, 21)" stroke-opacity="1.0" stroke-linecap="round" stroke-linejoin="round"/>
    <path d="M 53.89559555053711 46.18476486206055 C 48.66891098022461 50.74013137817383 46.864097595214844 49.195037841796875 47.042598724365234 49.31494903564453" stroke-width="1.1892671585083008" fill="none" stroke="rgb(166, 111, 16)" stroke-opacity="0.9900002" stroke-linecap="round" stroke-linejoin="round"/>
    <path d="M 45.418060302734375 50.696353912353516 C 43.74462127685547 52.9792594909668 41.20321273803711 56.38908004760742 38.77764892578125 57.02841567993164" stroke-width="1.1892671585083008" fill="none" stroke="rgb(26, 131, 17)" stroke-opacity="0.99000007" stroke-linecap="round" stroke-linejoin="round"/>
    <path d="M 45.41810989379883 50.696739196777344 C 37.875083923339844 52.88117599487305 39.24837875366211 56.90857696533203 39.372249603271484 57.02845001220703" stroke-width="1.1892671585083008" fill="none" stroke="rgb(26, 131, 17)" stroke-opacity="0.9900002" stroke-linecap="round" stroke-linejoin="round"/>
    <path d="M 46.58490753173828 50.35308074951172 C 40.98743438720703 53.03516387939453 40.087501525878906 55.734214782714844 38.77901077270508 57.62569808959961" stroke-width="1.1892671585083008" fill="none" stroke="rgb(87, 232, 53)" stroke-opacity="1.0" stroke-linecap="round" stroke-linejoin="round"/>
    <path d="M 44.79551315307617 48.584983825683594 C 41.901126861572266 49.650569915771484 37.66183853149414 49.916969299316406 36.200801849365234 48.45446014404297" stroke-width="1.1892671585083008" fill="none" stroke="rgb(31, 131, 17)" stroke-opacity="0.99" stroke-linecap="round" stroke-linejoin="round"/>
    <path d="M 45.390132904052734 48.584991455078125 C 38.843421936035156 44.24273681640625 36.211814880371094 48.318603515625 36.200809478759766 48.45448684692383" stroke-width="1.1892671585083008" fill="none" stroke="rgb(26, 131, 17)" stroke-opacity="0.99000007" stroke-linecap="round" stroke-linejoin="round"/>
    <path d="M 46.44853210449219 49.908206939697266 C 42.84689712524414 48.083335876464844 37.93191146850586 47.72854232788086 36.241546630859375 48.514400482177734" stroke-width="1.1892671585083008" fill="none" stroke="rgb(92, 232, 53)" stroke-opacity="0.99000007" stroke-linecap="round" stroke-linejoin="round"/>
    <path d="M 52.21067810058594 25.126178741455078 C 49.316314697265625 26.191768646240234 45.076622009277344 26.45832633972168 43.021339416503906 25.590251922607422" stroke-width="1.1892671585083008" fill="none" stroke="rgb(26, 125, 12)" stroke-opacity="1.0" stroke-linecap="round" stroke-linejoin="round"/>
    <path d="M 52.80514907836914 25.720788955688477 C 46.258567810058594 21.378543853759766 43.627925872802734 25.45440101623535 43.61594009399414 25.590259552001953" stroke-width="1.1892671585083008" fill="none" stroke="rgb(26, 131, 17)" stroke-opacity="0.99" stroke-linecap="round" stroke-linejoin="round"/>
    <path d="M 54.456905364990234 25.854766845703125 C 48.72128677368164 24.163164138793945 45.55487823486328 24.376283645629883 43.655757904052734 25.055580139160156" stroke-width="1.1892671585083008" fill="none" stroke="rgb(87, 227, 53)" stroke-opacity="1.0" stroke-linecap="round" stroke-linejoin="round"/>
    <path d="M 53.0716438293457 27.605417251586914 C 52.71332550048828 30.655738830566406 51.071022033691406 34.57179260253906 48.87059783935547 35.78390121459961" stroke-width="1.1892671585083008" fill="none" stroke="rgb(26, 125, 17)" stroke-opacity="1.0" stroke-linecap="round" stroke-linejoin="round"/>
    <path d="M 52.47809982299805 27.605464935302734 C 46.278507232666016 30.953706741333008 48.1254768371582 35.690650939941406 48.27597427368164 35.78390121459961" stroke-width="1.1892671585083008" fill="none" stroke="rgb(26, 125, 12)" stroke-opacity="1.0" stroke-linecap="round" stroke-linejoin="round"/>
    <path d="M 53.86231231689453 25.854846954345703 C 49.79576873779297 30.236997604370117 48.85139465332031 32.64787673950195 49.20756912231445 34.645835876464844" stroke-width="1.1892671585083008" fill="none" stroke="rgb(87, 232, 53)" stroke-opacity="0.9900001" stroke-linecap="round" stroke-linejoin="round"/>
    <path d="M 49.93429946899414 41.58411407470703 C 47.44883728027344 43.3956184387207 43.4583625793457 45.442073822021484 41.08200454711914 44.64289474487305" stroke-width="1.1892671585083008" fill="none" stroke="rgb(26, 125, 12)" stroke-opacity="1.0" stroke-linecap="round" stroke-linejoin="round"/>
    <path d="M 50.528900146484375 41.584102630615234 C 42.430030822753906 39.26646423339844 41.637935638427734 43.87512969970703 41.08197784423828 44.642879486083984" stroke-width="1.1892671585083008" fill="none" stroke="rgb(26, 131, 17)" stroke-opacity="0.99000007" stroke-linecap="round" stroke-linejoin="round"/>
    <path d="M 52.31904602050781 42.410491943359375 C 46.33847427368164 42.40250015258789 43.932926177978516 43.34288024902344 41.708045959472656 44.52811813354492" stroke-width="1.1892671585083008" fill="none" stroke="rgb(87, 232, 48)" stroke-opacity="1.0" stroke-linecap="round" stroke-linejoin="round"/>
    <path d="M 50.7441291809082 40.89470291137695 C 47.756500244140625 40.22871780395508 44.06691360473633 38.0709114074707 43.1385383605957 35.73993682861328" stroke-width="1.1892671585083008" fill="none" stroke="rgb(26, 131, 17)" stroke-opacity="0.99000025" stroke-linecap="round" stroke-linejoin="round"/>
    <path d="M 51.33875274658203 40.300079345703125 C 48.248558044433594 33.08075714111328 43.83835983276367 34.998817443847656 43.73283386230469 35.14535903930664" stroke-width="1.1892671585083008" fill="none" stroke="rgb(26, 131, 17)" stroke-opacity="0.99" stroke-linecap="round" stroke-linejoin="round"/>
    <path d="M 50.99593734741211 41.77909469604492 C 47.389862060546875 37.72963333129883 44.94612503051758 36.14482498168945 42.905452728271484 34.91091537475586" stroke-width="1.1892671585083008" fill="none" stroke="rgb(87, 232, 53)" stroke-opacity="1.0" stroke-linecap="round" stroke-linejoin="round"/>
    <path d="M 57.94266891479492 18.718555450439453 C 54.86281204223633 19.935461044311523 50.87202835083008 21.387311935424805 48.49580001831055 20.588125228881836" stroke-width="1.1892671585083008" fill="none" stroke="rgb(31, 131, 12)" stroke-opacity="1.0" stroke-linecap="round" stroke-linejoin="round"/>
    <path d="M 57.348087310791016 18.71858787536621 C 49.84373092651367 16.400941848754883 48.4571647644043 21.009571075439453 49.09035873413086 20.588146209716797" stroke-width="1.1892671585083008" fill="none" stroke="rgb(26, 131, 17)" stroke-opacity="0.9900053" stroke-linecap="round" stroke-linejoin="round"/>
    <path d="M 59.13856506347656 18.95168113708496 C 53.1577033996582 18.349077224731445 50.75215148925781 19.28944206237793 49.121803283691406 20.47491455078125" stroke-width="1.1892671585083008" fill="none" stroke="rgb(92, 232, 48)" stroke-opacity="1.0" stroke-linecap="round" stroke-linejoin="round"/>
    <path d="M 58.752540588378906 16.841266632080078 C 55.764915466308594 16.175275802612305 52.07533645629883 14.017468452453613 51.14694595336914 11.686505317687988" stroke-width="1.1892671585083008" fill="none" stroke="rgb(31, 131, 12)" stroke-opacity="1.0" stroke-linecap="round" stroke-linejoin="round"/>
    <path d="M 58.75251388549805 17.435884475708008 C 55.0677375793457 10.216560363769531 50.6576042175293 12.134611129760742 50.55243682861328 12.281126976013184" stroke-width="1.1892671585083008" fill="none" stroke="rgb(26, 131, 12)" stroke-opacity="1.0" stroke-linecap="round" stroke-linejoin="round"/>
    <path d="M 59.732295989990234 18.9516658782959 C 55.27552795410156 14.382989883422852 53.005836486816406 13.157570838928223 51.047847747802734 12.678049087524414" stroke-width="1.1892671585083008" fill="none" stroke="rgb(92, 232, 48)" stroke-opacity="1.0" stroke-linecap="round" stroke-linejoin="round"/>
    <path d="M 72.49537658691406 13.680492401123047 C 70.01285552978516 16.08658218383789 66.6138687133789 17.538448333740234 64.23746490478516 16.739259719848633" stroke-width="1.1892671585083008" fill="none" stroke="rgb(31, 131, 12)" stroke-opacity="0.99000007" stroke-linecap="round" stroke-linejoin="round"/>
    <path d="M 72.49535369873047 14.275103569030762 C 64.9909896850586 11.362839698791504 63.604408264160156 15.971487998962402 64.23763275146484 16.14468002319336" stroke-width="1.1892671585083008" fill="none" stroke="rgb(31, 131, 12)" stroke-opacity="0.99" stroke-linecap="round" stroke-linejoin="round"/>
    <path d="M 74.2856216430664 13.913593292236328 C 68.30496978759766 13.905585289001465 65.89939880371094 14.84596061706543 64.2690658569336 16.031423568725586" stroke-width="1.1892671585083008" fill="none" stroke="rgb(87, 232, 53)" stroke-opacity="0.99000067" stroke-linecap="round" stroke-linejoin="round"/>
    <path d="M 73.89848327636719 12.39777946472168 C 70.91085815429688 11.731790542602539 67.22126007080078 9.57398796081543 66.2928695678711 7.24303674697876" stroke-width="1.1892671585083008" fill="none" stroke="rgb(26, 131, 12)" stroke-opacity="0.9900003" stroke-linecap="round" stroke-linejoin="round"/>
    <path d="M 73.89848327636719 12.397785186767578 C 70.21373748779297 5.773068904876709 65.80358123779297 7.691122531890869 65.69828796386719 7.837575912475586" stroke-width="1.1892671585083008" fill="none" stroke="rgb(31, 131, 17)" stroke-opacity="0.99000007" stroke-linecap="round" stroke-linejoin="round"/>
    <path d="M 74.28572082519531 13.913603782653809 C 70.42279815673828 9.939498901367188 68.15311431884766 8.714064598083496 66.19518280029297 7.640305995941162" stroke-width="1.1892671585083008" fill="none" stroke="rgb(87, 232, 48)" stroke-opacity="1.0" stroke-linecap="round" stroke-linejoin="round"/>
    <path d="M 90.0255355834961 50.16476058959961 C 90.4163589477539 53.22828674316406 91.31810760498047 57.38407516479492 93.26139068603516 59.56367492675781" stroke-width="1.1892671585083008" fill="none" stroke="rgb(26, 125, 12)" stroke-opacity="1.0" stroke-linecap="round" stroke-linejoin="round"/>
    <path d="M 90.62015533447266 50.16472625732422 C 96.58209991455078 55.27952194213867 92.83203125 58.90251541137695 92.66685485839844 59.563720703125" stroke-width="1.1892671585083008" fill="none" stroke="rgb(31, 131, 17)" stroke-opacity="0.99000007" stroke-linecap="round" stroke-linejoin="round"/>
    <path d="M 88.87337493896484 49.36873245239258 C 92.07278442382812 54.41694641113281 92.56430053710938 56.96101379394531 93.02835845947266 58.972286224365234" stroke-width="1.1892671585083008" fill="none" stroke="rgb(87, 227, 53)" stroke-opacity="0.99000007" stroke-linecap="round" stroke-linejoin="round"/>
    <path d="M 91.27275848388672 49.3886604309082 C 92.88662719726562 51.53321838378906 96.63481140136719 53.51786804199219 99.10032653808594 53.064998626708984" stroke-width="1.1892671585083008" fill="none" stroke="rgb(31, 125, 17)" stroke-opacity="0.99000007" stroke-linecap="round" stroke-linejoin="round"/>
    <path d="M 91.27279663085938 49.38873291015625 C 99.02755737304688 47.59534454345703 99.16157531738281 52.31064987182617 99.10029602050781 53.06499481201172" stroke-width="1.1892671585083008" fill="none" stroke="rgb(26, 125, 17)" stroke-opacity="0.99000174" stroke-linecap="round" stroke-linejoin="round"/>
    <path d="M 88.8734130859375 49.36874771118164 C 94.84368133544922 50.16791915893555 97.64231872558594 50.865360260009766 98.49695587158203 52.26392364501953" stroke-width="1.1892671585083008" fill="none" stroke="rgb(87, 227, 53)" stroke-opacity="1.0" stroke-linecap="round" stroke-linejoin="round"/>
    <path d="M 86.47502136230469 20.690746307373047 C 86.27123260498047 23.754356384277344 86.57840728759766 28.504615783691406 88.52174377441406 29.495176315307617" stroke-width="1.1892671585083008" fill="none" stroke="rgb(26, 125, 12)" stroke-opacity="1.0" stroke-linecap="round" stroke-linejoin="round"/>
    <path d="M 85.88042449951172 20.690738677978516 C 91.84243774414062 26.40008544921875 89.28150177001953 30.036396026611328 89.11634063720703 29.49512481689453" stroke-width="1.1892671585083008" fill="none" stroke="rgb(26, 131, 12)" stroke-opacity="1.0" stroke-linecap="round" stroke-linejoin="round"/>
    <path d="M 84.728271484375 19.896024703979492 C 88.52227783203125 24.34966468811035 89.01378631591797 26.893733978271484 88.88325500488281 29.499614715576172" stroke-width="1.1892671585083008" fill="none" stroke="rgb(87, 232, 53)" stroke-opacity="1.0" stroke-linecap="round" stroke-linejoin="round"/>
    <path d="M 87.12770080566406 19.321414947509766 C 89.3360824584961 21.465986251831055 92.4897689819336 24.045143127441406 94.95532989501953 23.59223747253418" stroke-width="1.1892671585083008" fill="none" stroke="rgb(26, 131, 12)" stroke-opacity="1.0" stroke-linecap="round" stroke-linejoin="round"/>
    <path d="M 87.12767791748047 19.321420669555664 C 94.88245391845703 18.12263298034668 95.01651000976562 22.837858200073242 94.9552001953125 22.997821807861328" stroke-width="1.1892671585083008" fill="none" stroke="rgb(26, 131, 12)" stroke-opacity="0.9900002" stroke-linecap="round" stroke-linejoin="round"/>
    <path d="M 85.3228530883789 19.30144691467285 C 91.24614715576172 20.100624084472656 92.90275573730469 21.39270782470703 94.9462661743164 23.38581657409668" stroke-width="1.1892671585083008" fill="none" stroke="rgb(87, 232, 48)" stroke-opacity="1.0" stroke-linecap="round" stroke-linejoin="round"/>
    <path d="M 75.77389526367188 30.466594696044922 C 74.06497192382812 33.023983001708984 72.76895141601562 37.07318878173828 73.06574249267578 39.41750717163086" stroke-width="1.1892671585083008" fill="none" stroke="rgb(26, 125, 17)" stroke-opacity="1.0" stroke-linecap="round" stroke-linejoin="round"/>
    <path d="M 75.17929077148438 29.872041702270508 C 77.78730773925781 37.8724250793457 73.83316802978516 39.44414520263672 73.06546783447266 38.8230094909668" stroke-width="1.1892671585083008" fill="none" stroke="rgb(26, 131, 17)" stroke-opacity="0.99000007" stroke-linecap="round" stroke-linejoin="round"/>
    <path d="M 74.87559509277344 28.686933517456055 C 75.71379852294922 34.66765213012695 74.87348175048828 37.105186462402344 73.7546157836914 38.18912887573242" stroke-width="1.1892671585083008" fill="none" stroke="rgb(87, 227, 53)" stroke-opacity="1.0" stroke-linecap="round" stroke-linejoin="round"/>
    <path d="M 77.02330780029297 29.011564254760742 C 77.86644744873047 31.968563079833984 79.51898193359375 36.17282485961914 81.88314056396484 36.99866485595703" stroke-width="1.1892671585083008" fill="none" stroke="rgb(26, 131, 17)" stroke-opacity="0.99000007" stroke-linecap="round" stroke-linejoin="round"/>
    <path d="M 76.4287109375 29.606168746948242 C 83.76524353027344 32.403324127197266 82.6136245727539 36.89209747314453 82.4777603149414 36.4040412902832" stroke-width="1.1892671585083008" fill="none" stroke="rgb(31, 131, 17)" stroke-opacity="0.99" stroke-linecap="round" stroke-linejoin="round"/>
    <path d="M 75.47020721435547 28.09249496459961 C 80.1867446899414 31.768766403198242 81.50273895263672 33.993167877197266 82.05818176269531 36.51913070678711" stroke-width="1.1892671585083008" fill="none" stroke="rgb(87, 227, 48)" stroke-opacity="1.0" stroke-linecap="round" stroke-linejoin="round"/>
    <path d="M 84.61373138427734 39.784698486328125 C 84.12886047363281 36.74771499633789 84.62967681884766 32.53864669799805 86.4145278930664 30.76711082458496" stroke-width="1.1892671585083008" fill="none" stroke="rgb(31, 131, 12)" stroke-opacity="1.0" stroke-linecap="round" stroke-linejoin="round"/>
    <path d="M 85.20832061767578 40.37922286987305 C 90.66277313232422 34.73162841796875 87.17964935302734 31.41497230529785 86.41456604003906 31.361724853515625" stroke-width="1.1892671585083008" fill="none" stroke="rgb(26, 125, 12)" stroke-opacity="1.0" stroke-linecap="round" stroke-linejoin="round"/>
    <path d="M 84.19197845458984 41.87100601196289 C 86.30797576904297 35.94853591918945 86.55847930908203 33.37781524658203 86.83332061767578 31.379819869995117" stroke-width="1.1892671585083008" fill="none" stroke="rgb(87, 227, 53)" stroke-opacity="1.0" stroke-linecap="round" stroke-linejoin="round"/>
    <path d="M 85.39159393310547 41.08729934692383 C 87.38822174072266 38.743003845214844 90.93262481689453 36.41204071044922 93.43018341064453 37.23309326171875" stroke-width="1.1892671585083008" fill="none" stroke="rgb(26, 131, 17)" stroke-opacity="0.99" stroke-linecap="round" stroke-linejoin="round"/>
    <path d="M 85.39159393310547 41.087276458740234 C 93.22894287109375 41.62007141113281 93.50599670410156 36.78499221801758 93.4300765991211 37.23301696777344" stroke-width="1.1892671585083008" fill="none" stroke="rgb(26, 125, 17)" stroke-opacity="1.0" stroke-linecap="round" stroke-linejoin="round"/>
    <path d="M 84.1919937133789 41.87104415893555 C 90.01142883300781 40.48579025268555 92.1332778930664 39.020606994628906 93.44525146484375 37.488792419433594" stroke-width="1.1892671585083008" fill="none" stroke="rgb(87, 232, 48)" stroke-opacity="1.0" stroke-linecap="round" stroke-linejoin="round"/>
    <path d="M 62.300941467285156 36.585750579833984 C 59.81546401977539 38.397239685058594 55.82484436035156 39.254478454589844 53.448585510253906 38.45528793334961" stroke-width="1.1892671585083008" fill="none" stroke="rgb(26, 125, 12)" stroke-opacity="1.0" stroke-linecap="round" stroke-linejoin="round"/>
    <path d="M 61.70633316040039 36.585731506347656 C 54.20197677612305 33.673492431640625 52.815372467041016 38.282142639160156 52.85398864746094 38.455326080322266" stroke-width="1.1892671585083008" fill="none" stroke="rgb(26, 131, 17)" stroke-opacity="0.99000007" stroke-linecap="round" stroke-linejoin="round"/>
    <path d="M 63.496543884277344 36.81751251220703 C 58.11052322387695 36.80952453613281 55.70497131347656 37.749900817871094 53.48003387451172 38.935359954833984" stroke-width="1.1892671585083008" fill="none" stroke="rgb(87, 232, 53)" stroke-opacity="1.0" stroke-linecap="round" stroke-linejoin="round"/>
    <path d="M 63.11076736450195 34.96017837524414 C 59.529876708984375 34.75551986694336 55.838951110839844 32.73100280761719 55.50515365600586 30.4000301361084" stroke-width="1.1892671585083008" fill="none" stroke="rgb(26, 131, 17)" stroke-opacity="1.0" stroke-linecap="round" stroke-linejoin="round"/>
    <path d="M 62.51615905761719 35.30168151855469 C 60.02058792114258 27.487777709960938 55.610382080078125 29.40582847595215 55.499359130859375 29.552350997924805" stroke-width="1.1892671585083008" fill="none" stroke="rgb(26, 125, 17)" stroke-opacity="1.0" stroke-linecap="round" stroke-linejoin="round"/>
    <path d="M 63.712825775146484 35.718082427978516 C 59.85009002685547 31.149391174316406 57.58039474487305 29.923973083496094 55.02779006958008 30.039066314697266" stroke-width="1.1892671585083008" fill="none" stroke="rgb(87, 232, 53)" stroke-opacity="1.0" stroke-linecap="round" stroke-linejoin="round"/>
    <path d="M 45.442962646484375 81.87647247314453 C 69.63214874267578 90.68085479736328 88.94538116455078 86.87139892578125 90.5837631225586 86.24536895751953" stroke-width="1.1892671585083008" fill="none" stroke="rgb(216, 67, 27)" stroke-opacity="1.0" stroke-linecap="round" stroke-linejoin="round"/>
    <path d="M 69.85670471191406 49.647911071777344 C 69.53479766845703 53.270198822021484 72.93669128417969 49.6318359375 73.92570495605469 55.28670120239258" stroke-width="1.1892671585083008" fill="none" stroke="rgb(145, 175, 10)" stroke-opacity="0.8730264" stroke-linecap="round" stroke-linejoin="round"/>
    <path d="M 52.80525207519531 25.126497268676758 C 53.373390197753906 24.797475814819336 46.770938873291016 19.500463485717773 45.74454879760742 15.425544738769531 C 43.40472412109375 19.162752151489258 43.13826370239258 16.741201400756836 48.257606506347656 15.8473539352417" stroke-width="1.3081928491592407" fill="none" stroke="rgb(84, 195, 6)" stroke-opacity="0.26961592" stroke-linecap="round" stroke-linejoin="round"/>
    <path d="M 61.68681716918945 19.794288635253906 C 64.27257537841797 21.076921463012695 69.01377868652344 15.863180160522461 70.29676055908203 18.011123657226562" stroke-width="1.3081928491592407" fill="none" stroke="rgb(100, 189, 215)" stroke-opacity="0.782414" stroke-linecap="round" stroke-linejoin="round"/>
    <path d="M 91.27281188964844 48.79413604736328 C 89.0400619506836 46.25581359863281 89.9195785522461 40.18133544921875 85.26541137695312 39.98368453979492 C 81.76366424560547 36.905338287353516 86.45172119140625 39.222511291503906 80.14164733886719 44.509613037109375" stroke-width="1.1892671585083008" fill="none" stroke="rgb(168, 242, 115)" stroke-opacity="0.79015523" stroke-linecap="round" stroke-linejoin="round"/>
    <path d="M 82.0195083618164 46.23991012573242 C 84.70092010498047 41.57602310180664 84.74343872070312 46.143985748291016 84.3371810913086 49.642398834228516 C 79.07840728759766 45.645145416259766 75.15151977539062 51.54225158691406 80.99793243408203 49.71556854248047" stroke-width="1.3081934452056885" fill="none" stroke="rgb(213, 155, 9)" stroke-opacity="0.7798913" stroke-linecap="round" stroke-linejoin="round"/>
    <path d="M 52.80521774291992 25.126243591308594 C 51.942378997802734 30.575227737426758 50.53337097167969 32.245460510253906 53.041648864746094 34.69039535522461 C 49.9816780090332 31.747629165649414 46.258087158203125 25.28497314453125 41.063106536865234 31.1947021484375" stroke-width="1.308192491531372" fill="none" stroke="rgb(49, 77, 93)" stroke-opacity="0.5540613" stroke-linecap="round" stroke-linejoin="round"/>
    <path d="M 51.724491119384766 42.410484313964844 C 53.79491424560547 46.843963623046875 48.72593688964844 45.52638626098633 53.42159652709961 47.4251594543457 C 54.494384765625 50.48409652709961 55.677284240722656 46.28471755981445 50.70556640625 42.95332336425781 C 51.107303619384766 48.018638610839844 47.185142517089844 50.62448501586914 44.44709396362305 46.64303970336914" stroke-width="1.1892671585083008" fill="none" stroke="rgb(48, 54, 18)" stroke-opacity="0.5459983" stroke-linecap="round" stroke-linejoin="round"/>
    <path d="M 79.60415649414062 18.08271026611328 C 75.50228118896484 14.44489574432373 77.04864501953125 16.769046783447266 75.11804962158203 12.965021133422852 C 74.99130249023438 17.836408615112305 74.46273040771484 19.83440399169922 76.26651000976562 18.48481559753418 C 79.2070083618164 16.19378662109375 85.21463012695312 12.319534301757812 91.34091186523438 16.848207473754883" stroke-width="1.308193564414978" fill="none" stroke="rgb(251, 106, 72)" stroke-opacity="0.4959486" stroke-linecap="round" stroke-linejoin="round"/>
    <path d="M 45.04169464111328 46.64303970336914 C 39.6653938293457 50.375606536865234 40.335853576660156 54.54804611206055 39.53432083129883 52.284149169921875 C 46.330440521240234 56.72517013549805 43.73713302612305 61.64700698852539 39.47086715698242 65.172607421875" stroke-width="1.3081917762756348" fill="none" stroke="rgb(120, 244, 145)" stroke-opacity="0.18335626" stroke-linecap="round" stroke-linejoin="round"/>
    <path d="M 80.99791717529297 49.71607208251953 C 85.008056640625 55.67020797729492 83.98081970214844 50.477970123291016 85.56695556640625 49.575218200683594" stroke-width="1.3081932067871094" fill="none" stroke="rgb(156, 63, 132)" stroke-opacity="0.54092234" stroke-linecap="round" stroke-linejoin="round"/>
    <path d="M 45.041683197021484 46.64303970336914 C 47.584659576416016 51.12860870361328 48.036109924316406 54.197933197021484 42.1640510559082 48.13456726074219" stroke-width="1.1892671585083008" fill="none" stroke="rgb(95, 33, 103)" stroke-opacity="0.015658418" stroke-linecap="round" stroke-linejoin="round"/>
    <path d="M 44.447113037109375 46.64303970336914 C 39.75489044189453 51.28193664550781 34.11530303955078 52.95783233642578 30.2963924407959 58.932464599609375" stroke-width="1.1892671585083008" fill="none" stroke="rgb(28, 184, 50)" stroke-opacity="0.17329428" stroke-linecap="round" stroke-linejoin="round"/>
    <path d="M 90.74638366699219 16.849184036254883 C 86.52786254882812 16.294763565063477 88.63228607177734 20.121408462524414 89.28416442871094 20.810232162475586 C 89.59181213378906 16.075485229492188 90.99850463867188 11.539648056030273 91.59638214111328 6.2358479499816895" stroke-width="1.1892671585083008" fill="none" stroke="rgb(115, 255, 30)" stroke-opacity="0.84661555" stroke-linecap="round" stroke-linejoin="round"/>
    <path d="M 90.74635314941406 17.442800521850586 C 90.17115020751953 17.061445236206055 94.6134262084961 21.284687042236328 98.98019409179688 27.2741641998291 C 93.86969757080078 20.717737197875977 93.70458984375 19.10698127746582 95.15270233154297 25.89728546142578 C 94.25968933105469 25.68848991394043 95.81414031982422 28.096742630004883 89.19747161865234 22.410240173339844" stroke-width="1.1892671585083008" fill="none" stroke="rgb(71, 57, 156)" stroke-opacity="0.5951938" stroke-linecap="round" stroke-linejoin="round"/>
    <path d="M 70.29676055908203 18.011117935180664 C 68.04888916015625 19.41073226928711 62.393836975097656 18.3736572265625 63.99012756347656 13.264795303344727 C 58.123130798339844 10.866842269897461 60.28913497924805 11.771122932434082 57.81340408325195 6.998641014099121" stroke-width="1.3081912994384766" fill="none" stroke="rgb(105, 146, 149)" stroke-opacity="0.72772527" stroke-linecap="round" stroke-linejoin="round"/>
    <path d="M 73.92555236816406 55.88130187988281 C 72.538330078125 51.859283447265625 69.43736267089844 57.035343170166016 65.43830108642578 56.37192153930664" stroke-width="1.3081936836242676" fill="none" stroke="rgb(246, 64, 121)" stroke-opacity="0.33652514" stroke-linecap="round" stroke-linejoin="round"/>
    <path d="M 46.25607681274414 22.353818893432617 C 51.79533767700195 19.881269454956055 52.277015686035156 21.531476974487305 46.74973678588867 15.541102409362793 C 52.572044372558594 9.08395767211914 53.92948913574219 4.797535419464111 56.84177780151367 3.323650598526001" stroke-width="1.3081929683685303" fill="none" stroke="rgb(62, 59, 29)" stroke-opacity="0.3620575" stroke-linecap="round" stroke-linejoin="round"/>
    <path d="M 108.52131652832031 23.136699676513672 C 105.29385375976562 29.696063995361328 107.1525650024414 30.529521942138672 111.10431671142578 27.03232192993164 C 114.31414794921875 21.725345611572266 114.17279052734375 26.089921951293945 109.23564147949219 21.282344818115234" stroke-width="1.1892671585083008" fill="none" stroke="rgb(92, 21, 154)" stroke-opacity="0.4698857" stroke-linecap="round" stroke-linejoin="round"/>
    <path d="M 61.70113754272461 74.74463653564453 C 61.10731887817383 81.77330780029297 57.343788146972656 78.32640075683594 56.762760162353516 83.11479949951172" stroke-width="1.3081936836242676" fill="none" stroke="rgb(11, 227, 86)" stroke-opacity="0.89697814" stroke-linecap="round" stroke-linejoin="round"/>
    <path d="M 42.208797454833984 101.28250122070312 C 44.388519287109375 104.8691177368164 40.64619827270508 108.82154083251953 34.38850402832031 103.72647857666016 C 38.10508728027344 98.54855346679688 31.553525924682617 103.05723571777344 28.24595832824707 102.23279571533203" stroke-width="1.1892671585083008" fill="none" stroke="rgb(132, 86, 121)" stroke-opacity="0.71475154" stroke-linecap="round" stroke-linejoin="round"/>
    <path d="M 86.69163513183594 67.46430206298828 C 80.50106811523438 63.586448669433594 80.07364654541016 60.419349670410156 79.56444549560547 62.817543029785156 C 74.6422119140625 69.2593994140625 74.65724182128906 72.33180236816406 68.99078369140625 78.19880676269531 C 64.61112213134766 83.84781646728516 66.79580688476562 88.83867645263672 67.04940795898438 86.09054565429688" stroke-width="1.3081936836242676" fill="none" stroke="rgb(224, 40, 7)" stroke-opacity="0.32084447" stroke-linecap="round" stroke-linejoin="round"/>
    <path d="M 56.71177673339844 90.00379180908203 C 51.138694763183594 92.21268463134766 49.535667419433594 85.5606918334961 54.4770393371582 85.06761169433594" stroke-width="1.1892671585083008" fill="none" stroke="rgb(32, 33, 56)" stroke-opacity="0.38827634" stroke-linecap="round" stroke-linejoin="round"/>
    <path d="M 1.0071992874145508 55.72361755371094 C 3.9443798065185547 50.26516342163086 0.350606769323349 46.775970458984375 3.6998114585876465 47.77350616455078" stroke-width="1.3081936836242676" fill="none" stroke="rgb(164, 115, 246)" stroke-opacity="0.7242566" stroke-linecap="round" stroke-linejoin="round"/>
    <path d="M 48.71361541748047 52.30600357055664 C 44.40060806274414 54.92747497558594 49.3832893371582 56.7818717956543 46.31673049926758 59.7349967956543" stroke-width="1.3081928491592407" fill="none" stroke="rgb(50, 172, 217)" stroke-opacity="0.611117" stroke-linecap="round" stroke-linejoin="round"/>
    <path d="M 72.77467346191406 70.28485107421875 C 78.96166229248047 68.26443481445312 83.64961242675781 63.80704116821289 85.51951599121094 58.20674514770508 C 88.97602081298828 54.85649108886719 87.81810760498047 50.50239181518555 86.21131134033203 45.031002044677734 C 80.40864562988281 44.752628326416016 80.59471130371094 40.98854064941406 75.71448516845703 45.86827850341797" stroke-width="1.1892671585083008" fill="none" stroke="rgb(161, 198, 49)" stroke-opacity="0.9733007" stroke-linecap="round" stroke-linejoin="round"/>
    <path d="M 96.74993896484375 132.30105590820312 C 100.05815887451172 135.53936767578125 95.3086166381836 132.15567016601562 92.57952880859375 137.8751678466797 C 92.7135009765625 142.5136260986328 87.5869140625 147.55982971191406 93.0503921508789 152.310302734375" stroke-width="1.1892671585083008" fill="none" stroke="rgb(184, 135, 0)" stroke-opacity="0.84835416" stroke-linecap="round" stroke-linejoin="round"/>
    <path d="M 97.43663787841797 12.124670028686523 C 101.9614486694336 15.541267395019531 107.39139556884766 20.30595588684082 111.9451675415039 23.580305099487305 C 107.85179138183594 18.942625045776367 113.79881286621094 16.54129981994629 110.16803741455078 17.101455688476562" stroke-width="1.1892671585083008" fill="none" stroke="rgb(248, 143, 248)" stroke-opacity="0.060930632" stroke-linecap="round" stroke-linejoin="round"/>
    <path d="M 23.702266693115234 17.742599487304688 C 27.981597900390625 22.437318801879883 32.91522216796875 21.314111709594727 33.38558578491211 27.6535587310791" stroke-width="1.3081934452056885" fill="none" stroke="rgb(246, 107, 238)" stroke-opacity="0.36117423" stroke-linecap="round" stroke-linejoin="round"/>
    <path d="M 14.609439849853516 31.8106632232666 C 9.207794189453125 33.83673095703125 13.047142028808594 36.647499084472656 6.463652610778809 36.22100067138672 C 6.723757266998291 40.82994842529297 0.09899746626615524 47.58845901489258 -3.3915324211120605 41.833351135253906" stroke-width="1.1892671585083008" fill="none" stroke="rgb(34, 170, 141)" stroke-opacity="0.86779296" stroke-linecap="round" stroke-linejoin="round"/>
    <path d="M 40.11757278442383 61.1630973815918 C 42.0264778137207 55.10778045654297 37.197662353515625 56.21998977661133 34.03568649291992 51.02403259277344 C 33.72441864013672 55.25025939941406 28.173845291137695 55.37662887573242 25.99321937561035 58.21186447143555" stroke-width="1.3081934452056885" fill="none" stroke="rgb(108, 244, 82)" stroke-opacity="0.3604098" stroke-linecap="round" stroke-linejoin="round"/>
    <path d="M 22.103029251098633 5.700301170349121 C 18.95965003967285 3.7307653427124023 24.36780548095703 -2.139817476272583 28.80633544921875 -2.2259318828582764 C 33.909889221191406 -7.741877555847168 37.934783935546875 -12.667348861694336 43.70118713378906 -10.809640884399414 C 42.15412139892578 -6.9715681076049805 39.64305114746094 -10.450629234313965 40.566646575927734 -14.255904197692871" stroke-width="1.3081889152526855" fill="none" stroke="rgb(118, 28, 80)" stroke-opacity="0.17866485" stroke-linecap="round" stroke-linejoin="round"/>
    <path d="M 32.657989501953125 96.25152587890625 C 29.21832847595215 98.50347137451172 27.878313064575195 102.82295227050781 32.22114562988281 104.1440200805664 C 27.419097900390625 103.2105941772461 26.79585075378418 98.25975799560547 28.74949073791504 101.50636291503906" stroke-width="1.1892671585083008" fill="none" stroke="rgb(14, 18, 205)" stroke-opacity="0.023327459" stroke-linecap="round" stroke-linejoin="round"/>
  </g>
</svg>
