<?xml version="1.0" ?>
<svg xmlns="http://www.w3.org/2000/svg" version="1.1" width="956.0" height="956.0">
  <defs/>
  <g>
    <path d="M 33.726959228515625 38.81726837158203 C 31.016895294189453 38.36778259277344 28.194534301757812 37.96528625488281 27.529502868652344 38.703651428222656 C 26.41717529296875 39.0362663269043 24.261049270629883 38.750999450683594 24.40310287475586 39.57612991333008 C 25.495718002319336 41.857723236083984 23.395288467407227 42.269962310791016 23.5471134185791 41.732486724853516 C 23.627065658569336 42.6712532043457 26.367645263671875 45.19339370727539 27.888099670410156 50.37849044799805 C 30.634254455566406 54.38064193725586 31.470373153686523 54.64276885986328 31.828100204467773 55.62009048461914" stroke-width="1.0892857313156128" fill="none" stroke="rgb(7, 1, 86)" stroke-opacity="0.9913566" stroke-linecap="round" stroke-linejoin="round"/>
    <path d="M 48.14894104003906 47.206199645996094 C 45.269588470458984 47.85221481323242 42.7637939453125 48.81230926513672 42.6171760559082 48.52467727661133 C 42.761104583740234 49.076072692871094 45.30022430419922 47.309837341308594 46.78428649902344 48.55750274658203 C 47.61992263793945 50.31712341308594 44.713035583496094 51.0853271484375 44.82191467285156 51.48135757446289 C 45.538448333740234 51.74382781982422 47.37419891357422 50.25862121582031 46.25941467285156 50.91881561279297 C 46.11511993408203 52.368309020996094 45.54015350341797 52.54169845581055 45.73373794555664 54.486629486083984 C 46.97517013549805 55.10844802856445 48.366973876953125 54.49183654785156 47.7180290222168 55.23070526123047" stroke-width="1.0892857313156128" fill="none" stroke="rgb(3, 105, 215)" stroke-opacity="1.0" stroke-linecap="round" stroke-linejoin="round"/>
    <path d="M 27.379487991333008 38.033390045166016 C 30.197664260864258 34.130943298339844 32.48257064819336 37.136505126953125 28.956253051757812 34.03083038330078 C 35.27163314819336 33.62159729003906 35.92149353027344 38.26945877075195 36.46730422973633 40.17876052856445 C 41.66737747192383 44.75373840332031 44.63361358642578 39.94112777709961 47.48393249511719 36.92333221435547" stroke-width="1.0892857313156128" fill="none" stroke="rgb(191, 211, 170)" stroke-opacity="0.4119844" stroke-linecap="round" stroke-linejoin="round"/>
    <path d="M 30.82744789123535 55.50501251220703 C 37.44326400756836 53.64012145996094 33.39269256591797 49.8700065612793 39.248905181884766 44.99217987060547 C 37.97968292236328 43.62757873535156 37.43202209472656 42.086490631103516 30.97256088256836 43.40315246582031" stroke-width="1.4144750833511353" fill="none" stroke="rgb(117, 193, 183)" stroke-opacity="0.37256426" stroke-linecap="round" stroke-linejoin="round"/>
    <path d="M 47.5131721496582 55.33494567871094 C 51.00416946411133 60.39624786376953 52.54937744140625 57.95088195800781 52.21234130859375 57.54942321777344" stroke-width="1.0892857313156128" fill="none" stroke="rgb(119, 23, 50)" stroke-opacity="0.2739334" stroke-linecap="round" stroke-linejoin="round"/>
    <path d="M 45.73126220703125 53.47248840332031 C 50.606903076171875 50.52936935424805 52.95914077758789 48.88760757446289 51.133819580078125 51.335697174072266 C 52.40290832519531 53.6361083984375 51.055145263671875 57.82329559326172 51.95924758911133 56.10149383544922" stroke-width="1.1744734048843384" fill="none" stroke="rgb(104, 10, 203)" stroke-opacity="0.19718172" stroke-linecap="round" stroke-linejoin="round"/>
    <path d="M 45.5969352722168 48.13048553466797 C 49.366031646728516 53.56911849975586 44.83987808227539 52.4321403503418 41.41889190673828 51.76238250732422" stroke-width="1.1598961353302002" fill="none" stroke="rgb(139, 28, 181)" stroke-opacity="0.7206896" stroke-linecap="round" stroke-linejoin="round"/>
    <path d="M 48.177635192871094 55.69133377075195 C 47.84840774536133 61.026554107666016 48.60823059082031 59.5527458190918 50.66984939575195 56.63541030883789 C 54.76608657836914 61.584171295166016 54.3864860534668 57.53680419921875 52.88851547241211 53.390953063964844 C 52.362735748291016 53.07059860229492 49.514076232910156 59.09798049926758 44.099632263183594 61.83104705810547" stroke-width="1.3915529251098633" fill="none" stroke="rgb(165, 183, 64)" stroke-opacity="0.05174727" stroke-linecap="round" stroke-linejoin="round"/>
    <path d="M 30.790767669677734 56.16844940185547 C 28.770565032958984 55.49024963378906 22.67980194091797 57.92595672607422 18.728240966796875 60.57802963256836 C 24.36736488342285 57.553340911865234 25.877408981323242 54.033267974853516 20.874114990234375 52.98381423950195 C 22.660444259643555 50.145328521728516 24.982650756835938 45.56719970703125 23.344425201416016 40.101783752441406" stroke-width="1.0892857313156128" fill="none" stroke="rgb(213, 199, 124)" stroke-opacity="0.71642804" stroke-linecap="round" stroke-linejoin="round"/>
    <path d="M 27.911849975585938 38.8015022277832 C 24.00222396850586 37.162689208984375 23.61760711669922 31.70430564880371 26.277158737182617 25.63667869567871 C 31.694372177124023 26.70313835144043 31.907255172729492 26.486738204956055 31.992382049560547 26.903966903686523" stroke-width="1.0892857313156128" fill="none" stroke="rgb(164, 79, 24)" stroke-opacity="0.5266176" stroke-linecap="round" stroke-linejoin="round"/>
    <path d="M 44.05445861816406 61.65900802612305 C 39.79078674316406 65.88469696044922 44.668704986572266 71.89688873291016 46.93886947631836 77.00342559814453 C 46.25316619873047 74.05768585205078 48.879859924316406 78.00733947753906 44.657569885253906 74.87168884277344" stroke-width="1.0892857313156128" fill="none" stroke="rgb(208, 41, 129)" stroke-opacity="0.21963824" stroke-linecap="round" stroke-linejoin="round"/>
    <path d="M 41.239505767822266 51.79741668701172 C 40.91836166381836 50.481632232666016 42.05555725097656 53.358097076416016 45.09673309326172 58.71269607543945" stroke-width="1.413712978363037" fill="none" stroke="rgb(187, 56, 134)" stroke-opacity="0.8342011" stroke-linecap="round" stroke-linejoin="round"/>
    <path d="M 46.73373031616211 36.599632263183594 C 46.25471115112305 33.78169631958008 52.75615692138672 28.388668060302734 56.53923416137695 27.278608322143555 C 61.441287994384766 27.701263427734375 58.184940338134766 33.64569091796875 54.90985870361328 32.89502716064453 C 58.17364501953125 37.20634078979492 62.388423919677734 43.09192657470703 63.00639343261719 46.17502212524414" stroke-width="1.0892857313156128" fill="none" stroke="rgb(199, 192, 175)" stroke-opacity="0.07980797" stroke-linecap="round" stroke-linejoin="round"/>
    <path d="M 47.16939926147461 36.496517181396484 C 49.8711051940918 42.63158416748047 46.51858901977539 37.23109436035156 42.2398567199707 30.848344802856445" stroke-width="1.2646081447601318" fill="none" stroke="rgb(168, 242, 222)" stroke-opacity="0.5418256" stroke-linecap="round" stroke-linejoin="round"/>
    <path d="M 24.850114822387695 40.113037109375 C 29.07636260986328 47.36223220825195 24.969186782836914 47.92123031616211 27.961925506591797 44.29000473022461 C 30.905458450317383 44.59217071533203 30.136262893676758 49.58189392089844 35.1533203125 53.70851516723633 C 30.258039474487305 51.97761154174805 36.681854248046875 50.62105178833008 42.77698516845703 49.34661865234375" stroke-width="1.412014365196228" fill="none" stroke="rgb(189, 104, 86)" stroke-opacity="0.8698957" stroke-linecap="round" stroke-linejoin="round"/>
    <path d="M 44.328975677490234 60.95706558227539 C 42.912174224853516 56.54756164550781 44.457763671875 52.661537170410156 43.438209533691406 49.144474029541016 C 39.12052536010742 46.452571868896484 40.25711441040039 50.92836380004883 38.755096435546875 45.842254638671875" stroke-width="1.4105806350708008" fill="none" stroke="rgb(204, 43, 143)" stroke-opacity="0.26628628" stroke-linecap="round" stroke-linejoin="round"/>
    <path d="M 44.32500457763672 61.20840072631836 C 39.45286560058594 60.38803482055664 42.45598602294922 59.80501174926758 38.6328010559082 65.51563262939453" stroke-width="1.0892857313156128" fill="none" stroke="rgb(28, 51, 239)" stroke-opacity="0.77232474" stroke-linecap="round" stroke-linejoin="round"/>
    <path d="M 44.44746398925781 61.02110290527344 C 39.00474166870117 61.724544525146484 36.54791259765625 62.24064254760742 33.72494125366211 63.553565979003906" stroke-width="1.4034943580627441" fill="none" stroke="rgb(81, 60, 255)" stroke-opacity="0.8363342" stroke-linecap="round" stroke-linejoin="round"/>
    <path d="M 67.25898742675781 40.910221099853516 C 72.52816009521484 42.37324905395508 67.26627349853516 47.016380310058594 69.81000518798828 44.16789627075195 C 74.05342102050781 45.60490417480469 68.887451171875 41.04738235473633 67.2890625 43.504112243652344" stroke-width="1.3928625583648682" fill="none" stroke="rgb(61, 31, 1)" stroke-opacity="0.83936435" stroke-linecap="round" stroke-linejoin="round"/>
    <path d="M 57.71405029296875 62.571510314941406 C 57.047367095947266 68.04312133789062 62.14707565307617 63.95819854736328 64.68700408935547 59.904117584228516 C 69.15238952636719 59.17293930053711 71.36206817626953 53.35434341430664 68.03604888916016 59.0617790222168 C 63.09821701049805 57.741127014160156 63.2063102722168 57.28239440917969 65.50656127929688 61.570709228515625" stroke-width="1.4047642946243286" fill="none" stroke="rgb(175, 94, 129)" stroke-opacity="0.2528763" stroke-linecap="round" stroke-linejoin="round"/>
    <path d="M 105.02696990966797 111.02555847167969 C 102.39385986328125 108.13556671142578 100.7494125366211 110.7183609008789 93.62283325195312 113.03614044189453 C 87.56036376953125 116.3014907836914 90.2451171875 111.42750549316406 95.69490051269531 107.02227783203125" stroke-width="1.0892857313156128" fill="none" stroke="rgb(222, 193, 208)" stroke-opacity="0.75051135" stroke-linecap="round" stroke-linejoin="round"/>
    <path d="M 37.144737243652344 71.53433990478516 C 33.34550857543945 66.74413299560547 26.89389991760254 66.02262878417969 25.531312942504883 70.5998306274414 C 18.913166046142578 70.79193878173828 20.37713623046875 74.67134857177734 15.245054244995117 80.7414321899414" stroke-width="1.0892857313156128" fill="none" stroke="rgb(125, 121, 175)" stroke-opacity="0.8263239" stroke-linecap="round" stroke-linejoin="round"/>
    <path d="M 18.203086853027344 22.43602752685547 C 22.1252498626709 20.295372009277344 23.776229858398438 15.685922622680664 26.879859924316406 13.287652969360352 C 22.70492935180664 10.56344985961914 19.495759963989258 14.542716979980469 15.017167091369629 12.958468437194824 C 13.823126792907715 8.808123588562012 18.470657348632812 3.7671921253204346 22.954444885253906 3.3779337406158447" stroke-width="1.1138660907745361" fill="none" stroke="rgb(227, 223, 249)" stroke-opacity="0.83409876" stroke-linecap="round" stroke-linejoin="round"/>
    <path d="M 19.574487686157227 87.81847381591797 C 24.778972625732422 87.76746368408203 23.125404357910156 84.45307922363281 27.079689025878906 85.58467102050781 C 30.155244827270508 89.92378234863281 29.813539505004883 94.13582611083984 29.262483596801758 97.62979888916016 C 29.539155960083008 101.53694152832031 29.182252883911133 95.94856262207031 27.22971534729004 93.32723999023438" stroke-width="1.2130889892578125" fill="none" stroke="rgb(151, 6, 222)" stroke-opacity="0.4814573" stroke-linecap="round" stroke-linejoin="round"/>
    <path d="M 7.042213439941406 75.57611083984375 C 5.337725639343262 74.9881820678711 2.6023812294006348 81.04883575439453 3.2819631099700928 82.91783142089844" stroke-width="1.1054273843765259" fill="none" stroke="rgb(117, 183, 169)" stroke-opacity="0.29681784" stroke-linecap="round" stroke-linejoin="round"/>
    <path d="M 98.22349548339844 99.9837875366211 C 101.4573974609375 94.61380767822266 99.14176177978516 99.77528381347656 95.97056579589844 104.5039291381836" stroke-width="1.2558807134628296" fill="none" stroke="rgb(170, 32, 81)" stroke-opacity="0.22087401" stroke-linecap="round" stroke-linejoin="round"/>
    <path d="M 53.34714889526367 98.82389831542969 C 57.99875259399414 105.46219635009766 58.11262130737305 109.32194519042969 55.09508514404297 109.61872100830078" stroke-width="1.0892857313156128" fill="none" stroke="rgb(90, 80, 129)" stroke-opacity="0.44793892" stroke-linecap="round" stroke-linejoin="round"/>
    <path d="M 116.1258773803711 111.86104583740234 C 118.50479125976562 115.81149291992188 116.72516632080078 120.64634704589844 117.84811401367188 114.7750473022461 C 120.38287353515625 112.41798400878906 118.16344451904297 109.39986419677734 124.81990051269531 107.50366973876953 C 125.32359313964844 106.37684631347656 128.74441528320312 105.91151428222656 134.61587524414062 104.04977416992188" stroke-width="1.3249459266662598" fill="none" stroke="rgb(150, 17, 18)" stroke-opacity="0.071191944" stroke-linecap="round" stroke-linejoin="round"/>
    <path d="M 8.302096366882324 7.573730945587158 C 13.335589408874512 2.416372776031494 14.18109130859375 3.343492269515991 18.16570281982422 -1.5527385473251343" stroke-width="1.1359117031097412" fill="none" stroke="rgb(111, 8, 223)" stroke-opacity="0.2934781" stroke-linecap="round" stroke-linejoin="round"/>
    <path d="M 45.42761993408203 116.58305358886719 C 44.917724609375 112.43474578857422 39.49770736694336 105.92659759521484 43.78218460083008 110.56161499023438 C 42.312808990478516 115.81123352050781 44.54889678955078 116.24927520751953 48.57823944091797 121.77435302734375 C 47.07396697998047 117.24600982666016 40.263160705566406 121.8914566040039 45.03855514526367 119.1466064453125" stroke-width="1.3222733736038208" fill="none" stroke="rgb(58, 221, 216)" stroke-opacity="0.15101907" stroke-linecap="round" stroke-linejoin="round"/>
    <path d="M 63.30685806274414 106.0127944946289 C 62.281410217285156 101.58891296386719 61.94455337524414 102.38188171386719 66.79270935058594 107.76069641113281 C 65.33189392089844 104.38029479980469 67.24305725097656 109.16901397705078 63.54502487182617 106.06584930419922" stroke-width="1.0892857313156128" fill="none" stroke="rgb(236, 72, 23)" stroke-opacity="0.05421119" stroke-linecap="round" stroke-linejoin="round"/>
    <path d="M 11.845125198364258 113.14497375488281 C 11.660764694213867 108.99165344238281 14.98359489440918 106.3563461303711 11.029656410217285 100.66278839111328" stroke-width="1.0892857313156128" fill="none" stroke="rgb(223, 39, 218)" stroke-opacity="0.4505858" stroke-linecap="round" stroke-linejoin="round"/>
    <path d="M 92.03407287597656 115.25011444091797 C 86.91445922851562 113.77083587646484 87.69117736816406 108.46343994140625 84.14632415771484 114.3984375" stroke-width="1.0892857313156128" fill="none" stroke="rgb(18, 204, 43)" stroke-opacity="0.4308436" stroke-linecap="round" stroke-linejoin="round"/>
    <path d="M 116.93006134033203 69.83196258544922 C 119.69263458251953 66.57459259033203 120.70467376708984 67.12255859375 123.93324279785156 67.06299591064453 C 121.42163848876953 61.12770462036133 117.94808959960938 64.23987579345703 116.01104736328125 60.629493713378906" stroke-width="1.0892857313156128" fill="none" stroke="rgb(148, 215, 165)" stroke-opacity="0.4365011" stroke-linecap="round" stroke-linejoin="round"/>
  </g>
</svg>
