<?xml version="1.0" ?>
<svg xmlns="http://www.w3.org/2000/svg" version="1.1" width="956.0" height="956.0">
  <defs/>
  <g>
    <path d="M 22.643592834472656 107.6221694946289 C 23.496532440185547 108.9078598022461 35.628910064697266 115.25726318359375 99.64398956298828 116.81919860839844 C 162.24696350097656 116.18507385253906 166.821533203125 110.18635559082031 175.0109405517578 109.01837921142578" stroke-width="1.8120555877685547" fill="none" stroke="rgb(0, 9, 0)" stroke-opacity="0.9997288" stroke-linecap="round" stroke-linejoin="round"/>
    <path d="M 94.39523315429688 113.00716400146484 C 97.82144165039062 109.82176971435547 97.61971282958984 109.6633071899414 97.1871109008789 108.55193328857422" stroke-width="1.7356772422790527" fill="none" stroke="rgb(0, 6, 4)" stroke-opacity="0.9728541" stroke-linecap="round" stroke-linejoin="round"/>
    <path d="M 93.46833038330078 113.60551452636719 C 95.24519348144531 111.53736877441406 96.3624267578125 110.55724334716797 97.68343353271484 109.33598327636719 C 98.0989761352539 108.6333236694336 176.71299743652344 109.26707458496094 176.17758178710938 104.05926513671875" stroke-width="2.186680793762207" fill="none" stroke="rgb(0, 2, 0)" stroke-opacity="0.9812099" stroke-linecap="round" stroke-linejoin="round"/>
    <path d="M 28.75308609008789 123.60640716552734 C 32.06559371948242 140.99098205566406 44.761566162109375 154.74075317382812 54.565574645996094 154.73281860351562 C 65.68775939941406 153.0020294189453 133.36830139160156 151.79608154296875 141.5364990234375 150.80702209472656 C 148.41259765625 153.5465545654297 168.7135772705078 143.46762084960938 167.61952209472656 128.32931518554688" stroke-width="2.2952022552490234" fill="none" stroke="rgb(0, 8, 0)" stroke-opacity="1.0" stroke-linecap="round" stroke-linejoin="round"/>
    <path d="M 41.90068054199219 139.63795471191406 C 45.36517333984375 143.0645294189453 52.073638916015625 146.3985595703125 56.95353317260742 146.82545471191406 C 61.28660202026367 144.07797241210938 65.88836669921875 142.05764770507812 70.20391845703125 143.11526489257812" stroke-width="1.8264260292053223" fill="none" stroke="rgb(8, 0, 0)" stroke-opacity="0.99287206" stroke-linecap="round" stroke-linejoin="round"/>
    <path d="M 55.71525573730469 146.0691680908203 C 55.79147720336914 134.41273498535156 56.66132354736328 123.13140106201172 56.35018539428711 121.25375366210938 C 54.585975646972656 120.5272216796875 53.89914321899414 123.16461944580078 53.5325813293457 120.70581817626953 C 52.58271408081055 116.52937316894531 53.28413391113281 113.99406433105469 55.137516021728516 116.55308532714844 C 57.575252532958984 117.2953109741211 59.33486557006836 117.89122009277344 56.377689361572266 119.16183471679688 C 55.13738250732422 122.0788345336914 55.33915710449219 121.10783386230469 55.41210174560547 121.61432647705078" stroke-width="2.40165114402771" fill="none" stroke="rgb(9, 0, 0)" stroke-opacity="1.0" stroke-linecap="round" stroke-linejoin="round"/>
    <path d="M 52.608219146728516 122.42422485351562 C 54.61253356933594 121.53598022460938 56.98296356201172 122.74368286132812 58.574546813964844 122.78772735595703" stroke-width="1.8705185651779175" fill="none" stroke="rgb(9, 4, 0)" stroke-opacity="1.0" stroke-linecap="round" stroke-linejoin="round"/>
    <path d="M 22.15382957458496 107.68689727783203 C 24.655803680419922 119.0658950805664 23.85529899597168 122.61422729492188 25.678930282592773 123.86228942871094 C 29.106168746948242 124.50201416015625 64.68486785888672 129.26400756835938 99.32156372070312 129.22061157226562 C 134.68557739257812 127.72388458251953 168.5615234375 126.57996368408203 172.50611877441406 126.3049087524414 C 174.05665588378906 125.03263092041016 172.67250061035156 111.20487976074219 174.09951782226562 103.74305725097656" stroke-width="2.09623646736145" fill="none" stroke="rgb(0, 1, 1)" stroke-opacity="1.0" stroke-linecap="round" stroke-linejoin="round"/>
    <path d="M 56.521453857421875 121.21566772460938 C 51.31313705444336 121.88328552246094 55.74892044067383 114.8965835571289 52.74014663696289 123.78091430664062" stroke-width="2.0003421306610107" fill="none" stroke="rgb(66, 197, 76)" stroke-opacity="0.7376122" stroke-linecap="round" stroke-linejoin="round"/>
    <path d="M 97.73123168945312 108.96723937988281 C 107.30158996582031 116.43973541259766 108.53535461425781 111.56137084960938 112.40972900390625 117.62980651855469 C 101.72969055175781 120.03294372558594 100.0398941040039 123.95733642578125 94.19686126708984 130.65228271484375 C 105.32430267333984 130.0220947265625 113.4277114868164 137.68966674804688 116.94976806640625 139.09976196289062" stroke-width="2.54838490486145" fill="none" stroke="rgb(211, 255, 77)" stroke-opacity="0.09338719" stroke-linecap="round" stroke-linejoin="round"/>
    <path d="M 58.43289566040039 124.15010833740234 C 53.493412017822266 118.2697982788086 62.70049285888672 119.92202758789062 54.408180236816406 130.4088134765625 C 52.624874114990234 132.77001953125 53.422576904296875 131.5352325439453 56.820335388183594 135.1395721435547 C 55.81817626953125 131.92556762695312 48.19316864013672 128.78646850585938 47.99330139160156 135.8416290283203" stroke-width="1.7356772422790527" fill="none" stroke="rgb(31, 38, 99)" stroke-opacity="0.14265837" stroke-linecap="round" stroke-linejoin="round"/>
    <path d="M 55.46331787109375 152.89422607421875 C 60.699668884277344 151.72714233398438 54.16481399536133 145.879638671875 61.21779251098633 150.49493408203125 C 71.54692077636719 147.6454620361328 69.7123031616211 146.9518585205078 61.72129440307617 142.3316650390625" stroke-width="1.7356772422790527" fill="none" stroke="rgb(155, 51, 7)" stroke-opacity="0.16348359" stroke-linecap="round" stroke-linejoin="round"/>
    <path d="M 97.35070037841797 107.67363739013672 C 105.25827026367188 103.17578125 114.28843688964844 108.03807067871094 113.487060546875 111.84193420410156" stroke-width="1.8545416593551636" fill="none" stroke="rgb(92, 169, 110)" stroke-opacity="0.30124563" stroke-linecap="round" stroke-linejoin="round"/>
    <path d="M 174.74032592773438 102.7588119506836 C 172.20262145996094 114.05916595458984 166.18301391601562 112.11465454101562 173.90550231933594 117.10240173339844 C 171.1027069091797 109.97467803955078 166.3475799560547 105.00826263427734 175.6529998779297 108.78255462646484" stroke-width="1.7356772422790527" fill="none" stroke="rgb(135, 125, 144)" stroke-opacity="0.13323362" stroke-linecap="round" stroke-linejoin="round"/>
    <path d="M 22.52614974975586 108.90726470947266 C 19.690847396850586 96.61909484863281 17.396852493286133 100.8072509765625 14.122032165527344 97.80648803710938 C 15.462698936462402 92.67040252685547 21.420387268066406 99.42980194091797 16.931495666503906 103.11011505126953 C 11.949902534484863 97.0650863647461 5.4776387214660645 96.00899505615234 -3.9544472694396973 94.09593963623047" stroke-width="2.5183660984039307" fill="none" stroke="rgb(255, 71, 247)" stroke-opacity="0.21930066" stroke-linecap="round" stroke-linejoin="round"/>
    <path d="M 49.85403823852539 121.69503021240234 C 43.54117202758789 125.1363525390625 36.69264602661133 123.40966796875 30.88321876525879 115.07762908935547 C 26.920808792114258 116.03860473632812 33.302940368652344 113.56334686279297 29.632410049438477 122.50590515136719 C 26.757539749145508 128.0157928466797 17.777395248413086 122.44670867919922 25.22075653076172 112.8423843383789" stroke-width="1.7356772422790527" fill="none" stroke="rgb(200, 203, 237)" stroke-opacity="0.32633898" stroke-linecap="round" stroke-linejoin="round"/>
    <path d="M 60.29433822631836 143.27284240722656 C 58.97294998168945 135.390380859375 57.62239456176758 126.94644165039062 64.04523468017578 120.52825164794922" stroke-width="2.2171730995178223" fill="none" stroke="rgb(249, 84, 239)" stroke-opacity="0.9892388" stroke-linecap="round" stroke-linejoin="round"/>
    <path d="M 175.63925170898438 109.10509490966797 C 182.85169982910156 100.60428619384766 171.43080139160156 99.77706909179688 170.79367065429688 110.71829986572266" stroke-width="1.7356772422790527" fill="none" stroke="rgb(74, 217, 225)" stroke-opacity="0.52478755" stroke-linecap="round" stroke-linejoin="round"/>
    <path d="M 48.80870056152344 137.75552368164062 C 47.16820526123047 142.35488891601562 56.640625 146.0784912109375 50.476192474365234 149.8805694580078 C 47.050010681152344 141.4237518310547 49.68734359741211 134.81118774414062 50.925575256347656 131.7234344482422 C 46.07351303100586 134.97647094726562 55.32014465332031 134.94927978515625 47.61453628540039 140.2954559326172" stroke-width="2.411794424057007" fill="none" stroke="rgb(0, 217, 54)" stroke-opacity="0.27411562" stroke-linecap="round" stroke-linejoin="round"/>
    <path d="M 26.30015754699707 111.51203155517578 C 30.65398597717285 108.73511505126953 36.335357666015625 112.2021713256836 43.16472625732422 120.33055877685547 C 47.56211853027344 132.34548950195312 50.46400833129883 129.197998046875 60.48628234863281 122.21324157714844 C 63.687896728515625 126.32788848876953 61.46310043334961 124.1434326171875 57.73509979248047 118.7037353515625" stroke-width="1.8283989429473877" fill="none" stroke="rgb(187, 76, 105)" stroke-opacity="0.6308496" stroke-linecap="round" stroke-linejoin="round"/>
    <path d="M 59.88820266723633 142.25791931152344 C 51.75123596191406 145.888671875 45.21022033691406 148.99761962890625 54.11225128173828 143.6373748779297 C 45.708587646484375 142.87709045410156 54.50202941894531 150.034912109375 52.18251037597656 157.8096466064453" stroke-width="1.7356772422790527" fill="none" stroke="rgb(65, 121, 143)" stroke-opacity="0.63196015" stroke-linecap="round" stroke-linejoin="round"/>
    <path d="M -5.567492961883545 95.72869110107422 C -3.8971612453460693 94.23564147949219 2.244088888168335 99.1225814819336 -3.0619678497314453 95.60469818115234 C -4.011892318725586 99.5531005859375 -4.243518829345703 91.11245727539062 -11.268176078796387 94.02564239501953 C -18.30788803100586 86.57588958740234 -27.65126609802246 81.90016174316406 -33.051021575927734 78.91631317138672" stroke-width="1.7356772422790527" fill="none" stroke="rgb(51, 175, 20)" stroke-opacity="0.9887806" stroke-linecap="round" stroke-linejoin="round"/>
    <path d="M 60.22972869873047 143.1444854736328 C 65.83428955078125 147.15029907226562 60.93935775756836 149.99560546875 57.173465728759766 141.68484497070312 C 47.48262023925781 136.59579467773438 46.77328872680664 128.6877899169922 43.57618713378906 130.13844299316406 C 36.56211471557617 124.03768920898438 33.285648345947266 118.04988861083984 28.934843063354492 115.65470886230469" stroke-width="1.7356772422790527" fill="none" stroke="rgb(69, 216, 97)" stroke-opacity="0.9896471" stroke-linecap="round" stroke-linejoin="round"/>
    <path d="M 175.1749267578125 107.80907440185547 C 179.11024475097656 101.54904174804688 188.56240844726562 110.18094635009766 184.7948455810547 111.13014221191406 C 184.41473388671875 118.70831298828125 181.67660522460938 108.48945617675781 181.52760314941406 106.02850341796875" stroke-width="1.7356772422790527" fill="none" stroke="rgb(243, 255, 71)" stroke-opacity="0.6138254" stroke-linecap="round" stroke-linejoin="round"/>
    <path d="M -0.6492143869400024 19.880069732666016 C -7.7162370681762695 24.8458251953125 -16.555194854736328 28.967784881591797 -8.15477180480957 38.60477066040039 C -0.7946377992630005 29.943796157836914 1.8846478462219238 34.953765869140625 -1.7949550151824951 37.789058685302734" stroke-width="1.8434970378875732" fill="none" stroke="rgb(250, 82, 119)" stroke-opacity="0.15197878" stroke-linecap="round" stroke-linejoin="round"/>
    <path d="M 16.671857833862305 17.46792984008789 C 11.426933288574219 27.01311683654785 10.237982749938965 35.26252746582031 5.7690043449401855 32.015018463134766 C 0.21406732499599457 22.352256774902344 3.3757190704345703 26.50448989868164 5.737306118011475 33.72370529174805 C 12.286311149597168 36.158451080322266 7.699368000030518 35.49886703491211 5.7098822593688965 31.665021896362305" stroke-width="1.7356772422790527" fill="none" stroke="rgb(231, 255, 40)" stroke-opacity="0.6548045" stroke-linecap="round" stroke-linejoin="round"/>
    <path d="M 59.68877410888672 104.99385833740234 C 63.31892395019531 110.84561157226562 55.95718002319336 109.58760070800781 54.582115173339844 102.15882110595703" stroke-width="2.2741639614105225" fill="none" stroke="rgb(242, 116, 141)" stroke-opacity="0.80041766" stroke-linecap="round" stroke-linejoin="round"/>
    <path d="M 133.4766082763672 68.3504867553711 C 123.02136993408203 72.12361145019531 128.33990478515625 65.20269012451172 115.96668243408203 73.31067657470703 C 117.86193084716797 65.98735046386719 114.9101333618164 57.00754165649414 114.3785400390625 47.6389274597168" stroke-width="1.9947141408920288" fill="none" stroke="rgb(97, 0, 10)" stroke-opacity="0.46022272" stroke-linecap="round" stroke-linejoin="round"/>
    <path d="M 89.82212829589844 41.90605926513672 C 98.1506576538086 42.603694915771484 97.76914978027344 52.846736907958984 95.25296020507812 50.16862869262695 C 96.64283752441406 45.91423034667969 98.27593231201172 34.23906326293945 100.1388168334961 26.570415496826172 C 103.3875732421875 19.019285202026367 99.30400085449219 13.993033409118652 100.52752685546875 18.516849517822266" stroke-width="1.9159739017486572" fill="none" stroke="rgb(216, 219, 126)" stroke-opacity="0.5521779" stroke-linecap="round" stroke-linejoin="round"/>
    <path d="M 131.89129638671875 179.9606170654297 C 131.50991821289062 172.34646606445312 136.33396911621094 173.04269409179688 136.64024353027344 176.40933227539062 C 136.9520721435547 176.67262268066406 142.17947387695312 180.0431365966797 148.9239959716797 174.13687133789062" stroke-width="1.7356772422790527" fill="none" stroke="rgb(143, 122, 52)" stroke-opacity="0.021382295" stroke-linecap="round" stroke-linejoin="round"/>
    <path d="M 41.29375457763672 100.05397033691406 C 32.26576614379883 94.86354064941406 34.370758056640625 98.52116394042969 30.177268981933594 97.06575775146484 C 30.1987247467041 99.31966400146484 35.569305419921875 95.61140441894531 40.06541442871094 103.15388488769531" stroke-width="1.7356772422790527" fill="none" stroke="rgb(187, 148, 50)" stroke-opacity="0.121879905" stroke-linecap="round" stroke-linejoin="round"/>
    <path d="M 167.56101989746094 87.274658203125 C 164.57794189453125 90.14495086669922 163.3402557373047 82.74078369140625 157.4693603515625 76.3515625" stroke-width="1.7356772422790527" fill="none" stroke="rgb(183, 39, 73)" stroke-opacity="0.9341918" stroke-linecap="round" stroke-linejoin="round"/>
    <path d="M 73.37837982177734 169.21209716796875 C 83.2685317993164 172.79238891601562 88.3318099975586 179.31846618652344 80.4710693359375 179.39999389648438" stroke-width="1.7356772422790527" fill="none" stroke="rgb(167, 189, 44)" stroke-opacity="0.5181264" stroke-linecap="round" stroke-linejoin="round"/>
    <path d="M 6.905428886413574 4.572216987609863 C 12.036177635192871 2.3859002590179443 1.7246835231781006 7.473938465118408 -0.05604126304388046 13.982028007507324" stroke-width="1.8070721626281738" fill="none" stroke="rgb(183, 149, 187)" stroke-opacity="0.19408646" stroke-linecap="round" stroke-linejoin="round"/>
    <path d="M 65.63660430908203 148.58566284179688 C 72.72277069091797 154.14791870117188 70.08899688720703 155.788330078125 77.21568298339844 156.84478759765625 C 74.8154296875 152.02879333496094 65.77554321289062 147.6221160888672 68.1028060913086 157.49081420898438" stroke-width="2.5219616889953613" fill="none" stroke="rgb(162, 79, 121)" stroke-opacity="0.47694156" stroke-linecap="round" stroke-linejoin="round"/>
    <path d="M 171.79383850097656 125.57743835449219 C 172.92520141601562 119.77862548828125 182.26840209960938 114.63252258300781 188.99754333496094 113.4132080078125 C 195.31626892089844 106.44725036621094 203.15133666992188 108.84512329101562 204.08401489257812 103.9269027709961 C 211.87269592285156 105.34532165527344 215.72438049316406 98.95643615722656 214.7137908935547 101.0057373046875" stroke-width="2.3109686374664307" fill="none" stroke="rgb(47, 229, 36)" stroke-opacity="0.7350283" stroke-linecap="round" stroke-linejoin="round"/>
    <path d="M 29.70758628845215 101.78162384033203 C 32.2819938659668 107.20535278320312 32.51508331298828 107.33937072753906 27.580429077148438 101.10643768310547" stroke-width="1.7356772422790527" fill="none" stroke="rgb(187, 194, 27)" stroke-opacity="0.5203899" stroke-linecap="round" stroke-linejoin="round"/>
    <path d="M 108.43829345703125 154.91941833496094 C 114.08686828613281 159.8925323486328 112.93571472167969 151.7390899658203 120.76187133789062 146.11264038085938 C 125.08103942871094 151.45709228515625 125.22093200683594 150.7396697998047 114.45369720458984 153.73287963867188" stroke-width="1.7356772422790527" fill="none" stroke="rgb(60, 220, 184)" stroke-opacity="0.28048846" stroke-linecap="round" stroke-linejoin="round"/>
    <path d="M 100.04901885986328 14.682303428649902 C 105.49359130859375 17.541717529296875 103.38589477539062 22.540590286254883 93.85636138916016 19.29899024963379 C 99.88838195800781 12.074223518371582 109.56180572509766 9.651006698608398 104.1498031616211 15.394757270812988 C 99.80450439453125 23.75396156311035 92.84529113769531 18.798616409301758 89.13465118408203 27.850236892700195" stroke-width="2.4375267028808594" fill="none" stroke="rgb(92, 95, 51)" stroke-opacity="0.8852573" stroke-linecap="round" stroke-linejoin="round"/>
    <path d="M 182.4613800048828 115.98025512695312 C 176.75759887695312 120.26268005371094 179.66114807128906 110.34666442871094 177.0341033935547 107.78926849365234 C 172.37857055664062 106.8603515625 168.44073486328125 109.98445892333984 166.46963500976562 120.66819763183594 C 174.1157684326172 113.6600341796875 179.38238525390625 106.89459991455078 172.2920379638672 104.66377258300781" stroke-width="1.7356772422790527" fill="none" stroke="rgb(136, 13, 131)" stroke-opacity="0.75445825" stroke-linecap="round" stroke-linejoin="round"/>
  </g>
</svg>
