<?xml version="1.0" ?>
<svg xmlns="http://www.w3.org/2000/svg" version="1.1" width="1104.0" height="1104.0">
  <defs/>
  <g>
    <path d="M 29.347373962402344 36.74470520019531 C 29.514108657836914 36.744773864746094 29.583078384399414 36.96338653564453 30.23965072631836 36.937225341796875 C 31.885282516479492 36.67783737182617 33.57175827026367 36.44449996948242 35.23841857910156 36.444488525390625 C 38.857513427734375 36.44449234008789 42.72395324707031 36.44449234008789 46.34293746948242 36.44448471069336 C 46.66967010498047 36.44448471069336 51.71165084838867 36.10784149169922 53.633644104003906 36.84404373168945 C 55.78264236450195 37.95110321044922 55.53319549560547 39.913578033447266 55.53319549560547 41.94340515136719 C 55.040496826171875 43.04280471801758 55.316402435302734 44.17853546142578 55.04046630859375 45.73520278930664 C 55.09501266479492 47.425048828125 54.236289978027344 48.98354721069336 53.43387222290039 50.53432083129883 C 49.8201904296875 57.51995849609375 45.457054138183594 63.18064880371094 38.14426040649414 67.33734130859375 C 36.34957504272461 68.43115997314453 34.5361213684082 69.5614013671875 33.03877258300781 70.7296371459961 C 31.34782600402832 71.3035888671875 29.520017623901367 71.38526916503906 27.739641189575195 71.03710174560547 C 25.017820358276367 71.25675964355469 21.55204963684082 71.3858871459961 18.749164581298828 69.53711700439453" stroke-width="0.9854910373687744" fill="none" stroke="rgb(26, 21, 21)" stroke-opacity="1.0" stroke-linecap="round" stroke-linejoin="round"/>
    <path d="M 55.040462493896484 41.943416595458984 C 49.92007827758789 47.11296844482422 47.41522216796875 46.83330535888672 47.40800857543945 45.908687591552734" stroke-width="0.9854910373687744" fill="none" stroke="rgb(192, 253, 199)" stroke-opacity="0.83464813" stroke-linecap="round" stroke-linejoin="round"/>
    <path d="M 55.040462493896484 45.24248123168945 C 55.17378616333008 44.507930755615234 58.407684326171875 40.567962646484375 54.38267135620117 42.46284866333008" stroke-width="1.0840394496917725" fill="none" stroke="rgb(60, 167, 112)" stroke-opacity="0.44742697" stroke-linecap="round" stroke-linejoin="round"/>
    <path d="M 53.63364028930664 36.84404373168945 C 57.90268325805664 35.259342193603516 55.70255661010742 33.13813400268555 60.21892166137695 37.6062126159668 C 63.86932373046875 39.106910705566406 64.01846313476562 37.98662185668945 58.57410430908203 38.922271728515625" stroke-width="0.9854910373687744" fill="none" stroke="rgb(179, 194, 251)" stroke-opacity="0.5148906" stroke-linecap="round" stroke-linejoin="round"/>
    <path d="M 29.746938705444336 36.937225341796875 C 34.92618179321289 38.7575798034668 37.50807189941406 36.830360412597656 35.123695373535156 36.20045471191406" stroke-width="0.9854910373687744" fill="none" stroke="rgb(14, 41, 7)" stroke-opacity="0.38822192" stroke-linecap="round" stroke-linejoin="round"/>
    <path d="M 55.040470123291016 45.242488861083984 C 59.69570541381836 48.78923416137695 62.291526794433594 53.18239212036133 59.93733215332031 56.96715545654297 C 63.761295318603516 62.08642578125 61.17319869995117 57.491981506347656 58.319915771484375 56.25286865234375" stroke-width="0.9854910373687744" fill="none" stroke="rgb(171, 246, 77)" stroke-opacity="0.85351783" stroke-linecap="round" stroke-linejoin="round"/>
    <path d="M 55.040470123291016 45.24247741699219 C 60.92326354980469 45.07544708251953 64.2054672241211 42.758785247802734 59.78938674926758 42.88834762573242 C 60.32105255126953 37.296142578125 60.90934753417969 39.801143646240234 65.73839569091797 39.49348831176758" stroke-width="1.0840392112731934" fill="none" stroke="rgb(121, 153, 183)" stroke-opacity="0.6622488" stroke-linecap="round" stroke-linejoin="round"/>
    <path d="M 18.749164581298828 69.5371322631836 C 23.392818450927734 65.82750701904297 22.61066436767578 68.45777893066406 20.378082275390625 67.64673614501953 C 18.093721389770508 71.50382232666016 20.011537551879883 74.88790130615234 19.443580627441406 72.54045104980469 C 24.01919174194336 73.06855010986328 24.742155075073242 78.02735900878906 19.561559677124023 72.0215835571289" stroke-width="0.9854910373687744" fill="none" stroke="rgb(110, 167, 6)" stroke-opacity="0.1801543" stroke-linecap="round" stroke-linejoin="round"/>
    <path d="M 53.633644104003906 36.844058990478516 C 50.947509765625 42.12593460083008 54.098941802978516 39.72289276123047 54.16184616088867 40.41531753540039" stroke-width="0.9854910373687744" fill="none" stroke="rgb(113, 203, 41)" stroke-opacity="0.24927804" stroke-linecap="round" stroke-linejoin="round"/>
    <path d="M 65.73838806152344 39.49348831176758 C 68.02418518066406 40.69980239868164 73.09722137451172 45.837337493896484 69.55799865722656 47.51605224609375 C 64.19329071044922 49.300846099853516 62.50575637817383 47.9327507019043 56.761474609375 49.6948127746582 C 57.79649353027344 46.90056610107422 59.1745491027832 50.801979064941406 62.888187408447266 50.61585235595703" stroke-width="1.0840396881103516" fill="none" stroke="rgb(174, 226, 93)" stroke-opacity="0.41771808" stroke-linecap="round" stroke-linejoin="round"/>
    <path d="M 58.574092864990234 39.414974212646484 C 61.34270477294922 42.37323760986328 65.74219512939453 45.379207611083984 65.40181732177734 43.579864501953125 C 65.18508911132812 48.909793853759766 66.89034271240234 51.33128356933594 66.02401733398438 50.94243621826172 C 61.479469299316406 53.2076416015625 58.938846588134766 55.337867736816406 56.51813507080078 55.83164978027344" stroke-width="1.0840399265289307" fill="none" stroke="rgb(149, 73, 110)" stroke-opacity="0.55088943" stroke-linecap="round" stroke-linejoin="round"/>
    <path d="M 35.123695373535156 36.2004508972168 C 37.1112174987793 40.54254913330078 39.59341049194336 39.12381362915039 40.62934112548828 43.94511413574219" stroke-width="0.9854910373687744" fill="none" stroke="rgb(14, 136, 138)" stroke-opacity="0.81762475" stroke-linecap="round" stroke-linejoin="round"/>
    <path d="M 19.561569213867188 72.02157592773438 C 18.9583683013916 75.78690338134766 20.753009796142578 70.58143615722656 17.37285614013672 73.9537582397461" stroke-width="0.9854910373687744" fill="none" stroke="rgb(63, 40, 28)" stroke-opacity="0.0932468" stroke-linecap="round" stroke-linejoin="round"/>
    <path d="M 54.16184616088867 40.41529846191406 C 59.43324279785156 41.375389099121094 61.996089935302734 41.49021530151367 67.90436553955078 44.91447448730469 C 67.19294738769531 48.32634353637695 69.4862060546875 43.675445556640625 67.08436584472656 42.8734130859375" stroke-width="0.9854910373687744" fill="none" stroke="rgb(72, 125, 183)" stroke-opacity="0.46071103" stroke-linecap="round" stroke-linejoin="round"/>
    <path d="M 47.408016204833984 45.90866470336914 C 49.54771423339844 47.08445358276367 51.950801849365234 52.05857849121094 50.39295959472656 56.280521392822266 C 51.15386199951172 53.08941650390625 55.20036697387695 56.17465591430664 57.800296783447266 53.893760681152344" stroke-width="0.9854910373687744" fill="none" stroke="rgb(89, 30, 173)" stroke-opacity="0.13972594" stroke-linecap="round" stroke-linejoin="round"/>
    <path d="M 54.16184616088867 40.415313720703125 C 56.851558685302734 41.007354736328125 58.78849792480469 38.91386795043945 57.28585433959961 35.68888854980469 C 60.65830612182617 40.08019256591797 56.399654388427734 36.59245300292969 60.19059753417969 36.2378044128418 C 56.01360321044922 41.62395477294922 55.30474853515625 38.07436752319336 54.06527328491211 41.293190002441406" stroke-width="0.9854910373687744" fill="none" stroke="rgb(130, 115, 170)" stroke-opacity="0.09079593" stroke-linecap="round" stroke-linejoin="round"/>
    <path d="M 65.7383804321289 39.000755310058594 C 63.38210678100586 41.86063003540039 59.82429504394531 44.09733963012695 62.328731536865234 47.28570556640625 C 62.03410339355469 48.90259552001953 62.768978118896484 51.99922180175781 57.017330169677734 48.07173538208008 C 61.26129150390625 42.745426177978516 59.987369537353516 39.637962341308594 60.49898147583008 39.346534729003906" stroke-width="1.0840400457382202" fill="none" stroke="rgb(215, 170, 238)" stroke-opacity="0.87190324" stroke-linecap="round" stroke-linejoin="round"/>
    <path d="M 61.533531188964844 102.96076965332031 C 61.6666145324707 107.849365234375 60.26839065551758 102.38865661621094 58.97818374633789 105.23247528076172" stroke-width="0.9854910373687744" fill="none" stroke="rgb(47, 101, 115)" stroke-opacity="0.10548446" stroke-linecap="round" stroke-linejoin="round"/>
    <path d="M 56.741844177246094 100.7171630859375 C 54.77474594116211 101.07878875732422 53.44816970825195 99.44766998291016 58.52174758911133 101.30558776855469 C 56.68001174926758 100.30316925048828 56.077884674072266 97.486572265625 60.941688537597656 93.05138397216797" stroke-width="0.9854910373687744" fill="none" stroke="rgb(72, 226, 61)" stroke-opacity="0.2580829" stroke-linecap="round" stroke-linejoin="round"/>
    <path d="M 23.550783157348633 39.686607360839844 C 18.934484481811523 36.84882736206055 23.065853118896484 40.787841796875 24.11444854736328 41.52121353149414 C 21.553403854370117 45.777061462402344 19.887622833251953 46.39021682739258 20.655101776123047 46.95352554321289" stroke-width="1.0840400457382202" fill="none" stroke="rgb(7, 2, 22)" stroke-opacity="0.9033615" stroke-linecap="round" stroke-linejoin="round"/>
    <path d="M 71.11257934570312 6.221194267272949 C 71.05039978027344 7.441915512084961 66.80335235595703 6.82802152633667 70.32988739013672 8.93891716003418" stroke-width="0.9854910373687744" fill="none" stroke="rgb(82, 35, 34)" stroke-opacity="0.8658334" stroke-linecap="round" stroke-linejoin="round"/>
    <path d="M 47.218963623046875 52.86708068847656 C 50.80854034423828 51.079345703125 49.6989860534668 50.12482452392578 49.4405632019043 46.23086929321289" stroke-width="0.9854910373687744" fill="none" stroke="rgb(12, 65, 47)" stroke-opacity="0.098415755" stroke-linecap="round" stroke-linejoin="round"/>
    <path d="M 32.73245620727539 102.63615417480469 C 34.13209915161133 103.4705810546875 39.48215103149414 106.02587890625 40.997657775878906 111.1004867553711" stroke-width="0.9854910373687744" fill="none" stroke="rgb(3, 199, 64)" stroke-opacity="0.30734733" stroke-linecap="round" stroke-linejoin="round"/>
    <path d="M 5.54112434387207 12.531195640563965 C 1.6404321193695068 15.297151565551758 -3.252321243286133 15.004887580871582 -2.9152565002441406 11.267138481140137" stroke-width="1.0840399265289307" fill="none" stroke="rgb(114, 203, 207)" stroke-opacity="0.842484" stroke-linecap="round" stroke-linejoin="round"/>
    <path d="M 50.015830993652344 41.85612869262695 C 49.59076690673828 41.51947784423828 47.112300872802734 37.28456115722656 50.47419357299805 38.9627571105957 C 44.966392517089844 40.9681510925293 47.706268310546875 46.112918853759766 43.29548645019531 44.16960525512695" stroke-width="1.084036946296692" fill="none" stroke="rgb(68, 231, 126)" stroke-opacity="0.058631174" stroke-linecap="round" stroke-linejoin="round"/>
    <path d="M 8.529900550842285 108.3602523803711 C 11.895317077636719 110.69307708740234 6.40095329284668 108.870361328125 5.5166168212890625 103.45298767089844 C 1.3395289182662964 105.54110717773438 2.218228340148926 110.43447875976562 -2.160743474960327 105.89335632324219 C -0.3623920977115631 109.21908569335938 0.8370559215545654 105.12767791748047 -0.409804105758667 102.18804168701172" stroke-width="1.0840394496917725" fill="none" stroke="rgb(249, 5, 33)" stroke-opacity="0.42875513" stroke-linecap="round" stroke-linejoin="round"/>
    <path d="M 101.57763671875 69.09671783447266 C 97.30549621582031 63.314964294433594 98.46246337890625 65.48246765136719 102.86479949951172 63.019065856933594" stroke-width="0.9854910373687744" fill="none" stroke="rgb(71, 70, 57)" stroke-opacity="0.97841346" stroke-linecap="round" stroke-linejoin="round"/>
    <path d="M 13.278657913208008 15.02757740020752 C 16.259965896606445 10.00739574432373 18.75328826904297 4.943187236785889 13.810397148132324 7.389462947845459 C 18.759723663330078 7.533085823059082 19.15554428100586 7.118341445922852 19.483182907104492 2.062598943710327" stroke-width="1.0840398073196411" fill="none" stroke="rgb(157, 173, 160)" stroke-opacity="0.79268837" stroke-linecap="round" stroke-linejoin="round"/>
    <path d="M 98.96369171142578 101.58094787597656 C 98.21894073486328 105.02320861816406 102.64106750488281 102.29083251953125 100.38518524169922 106.17090606689453 C 98.12589263916016 107.46893310546875 100.71493530273438 104.88142395019531 102.15763854980469 102.64697265625" stroke-width="1.0840396881103516" fill="none" stroke="rgb(176, 247, 28)" stroke-opacity="0.7109666" stroke-linecap="round" stroke-linejoin="round"/>
    <path d="M 20.05599021911621 38.333900451660156 C 15.257769584655762 41.681636810302734 14.354787826538086 42.03175354003906 9.074441909790039 37.98530578613281 C 13.970553398132324 42.71733856201172 16.498361587524414 43.95670700073242 18.98676872253418 40.38945388793945" stroke-width="1.0840394496917725" fill="none" stroke="rgb(66, 208, 122)" stroke-opacity="0.3064677" stroke-linecap="round" stroke-linejoin="round"/>
    <path d="M 70.59138488769531 22.497039794921875 C 72.6097640991211 18.22579574584961 77.12113189697266 20.58907127380371 77.99388885498047 21.637104034423828 C 80.30826568603516 15.954487800598145 82.27149963378906 18.274415969848633 79.51339721679688 20.646860122680664 C 78.6749038696289 25.213098526000977 75.89373016357422 21.971601486206055 73.71622467041016 18.189924240112305" stroke-width="1.0840400457382202" fill="none" stroke="rgb(210, 145, 91)" stroke-opacity="0.5648076" stroke-linecap="round" stroke-linejoin="round"/>
    <path d="M 11.976247787475586 92.18867492675781 C 11.82335090637207 90.54650115966797 16.577621459960938 96.50584411621094 12.778533935546875 96.22636413574219 C 11.169177055358887 95.00287628173828 10.390209197998047 97.82374572753906 6.094067096710205 100.18550109863281" stroke-width="1.0840394496917725" fill="none" stroke="rgb(217, 94, 56)" stroke-opacity="0.43603632" stroke-linecap="round" stroke-linejoin="round"/>
    <path d="M 33.24813461303711 46.573368072509766 C 32.62925720214844 50.019657135009766 29.5283260345459 47.93862533569336 34.69267272949219 51.76769256591797 C 40.10917282104492 49.699161529541016 39.574851989746094 48.00234603881836 38.68834686279297 44.94924545288086" stroke-width="1.0840364694595337" fill="none" stroke="rgb(166, 4, 178)" stroke-opacity="0.82173026" stroke-linecap="round" stroke-linejoin="round"/>
  </g>
</svg>
