<?xml version="1.0" ?>
<svg xmlns="http://www.w3.org/2000/svg" version="1.1" width="804.0" height="804.0">
  <defs/>
  <g>
    <path d="M 27.60487937927246 29.780139923095703 C 27.047691345214844 30.663747787475586 25.446983337402344 30.949413299560547 25.804759979248047 29.013975143432617 C 27.118938446044922 29.798337936401367 27.086181640625 30.12202262878418 27.989545822143555 30.860767364501953 C 30.805885314941406 30.3048152923584 32.32902526855469 29.988779067993164 32.23736572265625 27.388607025146484 C 35.7738037109375 27.438928604125977 40.16568374633789 26.96126365661621 44.092987060546875 28.065053939819336 C 46.38369369506836 29.188884735107422 48.542877197265625 27.462841033935547 50.32624816894531 26.730146408081055 C 53.44863510131836 27.853862762451172 54.23189163208008 35.645225524902344 55.715415954589844 37.902427673339844 C 55.87994384765625 44.651763916015625 56.893524169921875 52.80389404296875 51.550392150878906 56.796592712402344 C 49.23714065551758 61.05891036987305 44.71489334106445 61.204505920410156 40.154273986816406 62.44426345825195 C 40.922393798828125 63.98804473876953 39.558570861816406 63.523292541503906 38.22550964355469 63.22108459472656 C 38.60749053955078 62.99114990234375 38.86805725097656 60.577980041503906 38.40901565551758 61.88096237182617 C 36.44906234741211 63.104610443115234 35.22344970703125 62.4963264465332 34.23932647705078 62.288021087646484 C 35.556880950927734 62.284088134765625 36.96397399902344 62.35308074951172 37.575721740722656 62.06885528564453 C 37.62424850463867 62.718414306640625 38.03675842285156 63.51102828979492 37.730892181396484 66.3981704711914 C 37.486148834228516 68.17005157470703 39.413570404052734 69.62024688720703 40.461544036865234 70.2846450805664 C 40.55528259277344 74.24873352050781 41.044986724853516 76.67990112304688 41.14302444458008 78.58572387695312" stroke-width="0.9142717719078064" fill="none" stroke="rgb(34, 22, 22)" stroke-opacity="0.9592733" stroke-linecap="round" stroke-linejoin="round"/>
    <path d="M 31.15251350402832 45.255374908447266 C 30.964332580566406 44.96750259399414 30.73406982421875 44.9669303894043 31.43705177307129 46.56279373168945 C 30.240215301513672 44.56922149658203 30.24303436279297 44.73562240600586 30.410362243652344 45.83806228637695 C 30.852783203125 47.79484939575195 31.53321647644043 49.81312561035156 29.59161376953125 49.33563995361328 C 28.857585906982422 51.9705924987793 27.89470672607422 54.14540481567383 27.945520401000977 56.36964416503906 C 28.253694534301758 59.7219123840332 28.069520950317383 62.987571716308594 30.414602279663086 65.86896514892578 C 30.67422103881836 67.20938110351562 31.851837158203125 69.03740692138672 31.999116897583008 70.66278076171875 C 32.46318817138672 72.78209686279297 32.41267395019531 75.17752075195312 29.367830276489258 78.26180267333984" stroke-width="0.9142717719078064" fill="none" stroke="rgb(27, 10, 30)" stroke-opacity="0.9654006" stroke-linecap="round" stroke-linejoin="round"/>
    <path d="M 71.44832611083984 36.35268020629883 C 72.41807556152344 33.14748764038086 76.21027374267578 32.56650161743164 77.68201446533203 35.963157653808594 C 78.97882080078125 38.292236328125 79.37638092041016 41.30335235595703 79.49761962890625 42.87239456176758 C 78.58793640136719 45.769100189208984 78.27265930175781 50.69424057006836 75.40359497070312 53.94832229614258 C 73.80563354492188 57.10514831542969 69.79353332519531 59.6857795715332 66.81395721435547 59.868896484375 C 67.60718536376953 57.864830017089844 67.25841522216797 57.35768508911133 67.2557373046875 58.239776611328125 C 66.88646697998047 55.85115051269531 66.20240020751953 55.51565170288086 65.53582000732422 55.46437072753906 C 65.41976165771484 55.60816192626953 64.65287780761719 55.389259338378906 64.18067169189453 55.199825286865234 C 63.958351135253906 56.19590759277344 63.774391174316406 56.5767707824707 64.36520385742188 57.33894729614258 C 64.68204498291016 59.290130615234375 63.77382278442383 60.26777648925781 61.62929916381836 60.51740264892578 C 60.0464973449707 64.72431945800781 58.589271545410156 69.29582977294922 61.0032958984375 74.22461700439453 C 61.07072067260742 79.40576171875 59.70930099487305 80.79895782470703 62.831756591796875 80.21842956542969" stroke-width="1.7883208990097046" fill="none" stroke="rgb(28, 14, 22)" stroke-opacity="0.9948091" stroke-linecap="round" stroke-linejoin="round"/>
    <path d="M 18.36598014831543 13.356849670410156 C 28.120189666748047 13.13449764251709 35.307254791259766 10.247930526733398 43.84549331665039 11.076537132263184 C 47.96612548828125 11.212252616882324 53.61789321899414 12.691793441772461 60.13735580444336 12.901137351989746" stroke-width="1.6889562606811523" fill="none" stroke="rgb(22, 22, 16)" stroke-opacity="1.0" stroke-linecap="round" stroke-linejoin="round"/>
    <path d="M 64.82144927978516 55.25764846801758 C 63.2644157409668 52.03169631958008 67.82708740234375 55.7213020324707 66.28311920166016 60.14988327026367" stroke-width="1.1107268333435059" fill="none" stroke="rgb(228, 252, 251)" stroke-opacity="0.49146608" stroke-linecap="round" stroke-linejoin="round"/>
    <path d="M 34.5089111328125 62.91204071044922 C 29.289749145507812 60.17868423461914 34.5589714050293 60.66811752319336 34.19520568847656 58.70143508911133 C 34.70795440673828 60.358524322509766 33.92765426635742 59.21004867553711 30.506053924560547 57.94487380981445 C 24.748666763305664 58.065650939941406 22.54492950439453 55.45892333984375 25.679750442504883 58.828617095947266" stroke-width="1.385538101196289" fill="none" stroke="rgb(45, 23, 12)" stroke-opacity="0.35696405" stroke-linecap="round" stroke-linejoin="round"/>
    <path d="M 77.25606536865234 42.36389923095703 C 77.7256851196289 44.771514892578125 79.26200103759766 44.717533111572266 83.12744903564453 43.77449035644531 C 89.21646118164062 46.28837966918945 88.1888656616211 48.81275177001953 87.90611267089844 47.741275787353516" stroke-width="0.9142717719078064" fill="none" stroke="rgb(224, 107, 164)" stroke-opacity="0.0014604167" stroke-linecap="round" stroke-linejoin="round"/>
    <path d="M 18.626482009887695 13.219307899475098 C 16.923542022705078 16.394927978515625 12.657594680786133 14.782588958740234 13.803489685058594 10.758282661437988 C 11.924944877624512 16.25804328918457 13.20910358428955 18.45050811767578 12.42080020904541 22.447711944580078 C 8.438725471496582 27.509050369262695 5.596042156219482 33.09178924560547 5.308225154876709 30.65087127685547" stroke-width="1.5907810926437378" fill="none" stroke="rgb(83, 0, 238)" stroke-opacity="0.30563262" stroke-linecap="round" stroke-linejoin="round"/>
    <path d="M 61.03717041015625 75.2284927368164 C 60.658451080322266 76.7420425415039 62.46906661987305 73.96996307373047 61.87212371826172 73.2898941040039 C 57.03157424926758 70.20223236083984 56.63961410522461 66.77594757080078 54.80107498168945 69.5484619140625" stroke-width="0.9142717719078064" fill="none" stroke="rgb(53, 173, 85)" stroke-opacity="0.47519183" stroke-linecap="round" stroke-linejoin="round"/>
    <path d="M 35.01903533935547 64.51213073730469 C 33.3862419128418 62.12641143798828 29.456701278686523 58.5306282043457 24.414274215698242 58.820858001708984" stroke-width="0.9142717719078064" fill="none" stroke="rgb(173, 193, 164)" stroke-opacity="0.8474989" stroke-linecap="round" stroke-linejoin="round"/>
    <path d="M 29.998998641967773 71.19178009033203 C 28.200109481811523 71.73948669433594 32.51254653930664 74.60159301757812 29.11196517944336 71.69183349609375 C 31.781511306762695 69.98863983154297 28.05036163330078 72.84530639648438 27.558753967285156 78.20877075195312 C 31.689010620117188 78.35127258300781 33.26348876953125 82.10448455810547 31.75707244873047 80.10760498046875" stroke-width="0.9142717719078064" fill="none" stroke="rgb(32, 139, 79)" stroke-opacity="0.6484819" stroke-linecap="round" stroke-linejoin="round"/>
    <path d="M 63.652557373046875 54.0219612121582 C 67.57369995117188 55.188568115234375 71.02589416503906 59.22551345825195 74.3069076538086 61.13002395629883 C 73.55766296386719 61.69873809814453 75.22047424316406 61.31049728393555 73.48970794677734 59.61873245239258 C 77.4264144897461 62.53776550292969 76.51234436035156 63.8388557434082 78.27989196777344 69.82237243652344" stroke-width="1.07674241065979" fill="none" stroke="rgb(70, 196, 111)" stroke-opacity="0.9496351" stroke-linecap="round" stroke-linejoin="round"/>
    <path d="M 79.10964965820312 69.39291381835938 C 80.00943756103516 65.25470733642578 83.02243041992188 61.107139587402344 82.08078002929688 61.48256301879883 C 78.4663314819336 58.991790771484375 78.2437973022461 59.54813003540039 71.62001037597656 57.14125442504883" stroke-width="0.9142717719078064" fill="none" stroke="rgb(101, 154, 243)" stroke-opacity="0.7778408" stroke-linecap="round" stroke-linejoin="round"/>
    <path d="M 25.16633415222168 59.644309997558594 C 25.762996673583984 61.48766326904297 27.07191276550293 60.25205993652344 30.837806701660156 65.58773803710938 C 34.99834442138672 68.94538116455078 33.02943420410156 67.82823944091797 30.006053924560547 64.69688415527344 C 29.057937622070312 64.99066925048828 33.67155456542969 65.36893463134766 35.92695617675781 66.7347640991211" stroke-width="0.9142717719078064" fill="none" stroke="rgb(163, 175, 25)" stroke-opacity="0.7231211" stroke-linecap="round" stroke-linejoin="round"/>
    <path d="M 55.06726837158203 69.68389892578125 C 57.7249870300293 64.86658477783203 58.60640335083008 59.063907623291016 56.83002471923828 54.79948425292969 C 53.54731750488281 55.259307861328125 51.04719924926758 60.073184967041016 50.085426330566406 64.05162048339844 C 48.316558837890625 57.440643310546875 50.87187194824219 61.91709518432617 56.62752914428711 58.44738006591797" stroke-width="1.4195740222930908" fill="none" stroke="rgb(91, 161, 2)" stroke-opacity="0.7665954" stroke-linecap="round" stroke-linejoin="round"/>
    <path d="M 6.289886951446533 29.60637664794922 C 9.730191230773926 31.683305740356445 9.315556526184082 28.525131225585938 15.029912948608398 24.963895797729492 C 16.502849578857422 20.283939361572266 18.58775520324707 21.044286727905273 21.555099487304688 20.983219146728516 C 16.532527923583984 16.221900939941406 21.521120071411133 20.57694435119629 27.472639083862305 16.716201782226562" stroke-width="0.9142717719078064" fill="none" stroke="rgb(39, 112, 33)" stroke-opacity="0.6427547" stroke-linecap="round" stroke-linejoin="round"/>
    <path d="M 54.17684555053711 68.2202377319336 C 57.818912506103516 72.79869842529297 61.605777740478516 67.93952178955078 63.51540756225586 65.1669692993164 C 67.60981750488281 67.89920043945312 68.64105987548828 71.17872619628906 69.48856353759766 76.81383514404297" stroke-width="0.9142717719078064" fill="none" stroke="rgb(90, 57, 191)" stroke-opacity="0.41783428" stroke-linecap="round" stroke-linejoin="round"/>
    <path d="M 79.75212097167969 69.61705780029297 C 75.9046630859375 73.2542495727539 75.35433959960938 73.46248626708984 73.69319152832031 69.97962188720703" stroke-width="1.2258464097976685" fill="none" stroke="rgb(46, 162, 68)" stroke-opacity="0.4231088" stroke-linecap="round" stroke-linejoin="round"/>
    <path d="M 26.212873458862305 58.27084732055664 C 20.724639892578125 54.56654739379883 22.54343605041504 57.502349853515625 27.342941284179688 53.59232711791992" stroke-width="1.3300153017044067" fill="none" stroke="rgb(153, 117, 151)" stroke-opacity="0.9967001" stroke-linecap="round" stroke-linejoin="round"/>
    <path d="M 78.75216674804688 68.84784698486328 C 83.13890838623047 71.77449035644531 82.78117370605469 67.49925231933594 86.46435546875 72.56840515136719 C 86.23699951171875 68.71790313720703 82.11180877685547 64.4689712524414 79.39237976074219 67.34900665283203" stroke-width="1.411850094795227" fill="none" stroke="rgb(254, 149, 223)" stroke-opacity="0.13270068" stroke-linecap="round" stroke-linejoin="round"/>
    <path d="M 94.44239044189453 10.249346733093262 C 93.16617584228516 9.749398231506348 90.32246398925781 14.126147270202637 83.29118347167969 17.320842742919922 C 88.19038391113281 20.689708709716797 84.22581481933594 17.81207847595215 80.84803771972656 13.114331245422363" stroke-width="0.9142717719078064" fill="none" stroke="rgb(113, 218, 197)" stroke-opacity="0.76465595" stroke-linecap="round" stroke-linejoin="round"/>
    <path d="M 62.4556999206543 58.4695930480957 C 63.267276763916016 61.65409469604492 59.83761978149414 56.081626892089844 57.43320083618164 55.92229080200195" stroke-width="1.5750459432601929" fill="none" stroke="rgb(7, 174, 69)" stroke-opacity="0.15578632" stroke-linecap="round" stroke-linejoin="round"/>
    <path d="M 7.122931480407715 54.75954055786133 C 5.816614151000977 58.34095764160156 6.563886642456055 58.1209602355957 7.553017616271973 60.703487396240234 C 11.151689529418945 60.55868911743164 10.378271102905273 60.07086181640625 6.6620988845825195 60.97472381591797 C 10.969179153442383 59.95209884643555 13.074292182922363 61.3763313293457 13.493856430053711 60.14863586425781" stroke-width="0.9142717719078064" fill="none" stroke="rgb(108, 118, 183)" stroke-opacity="0.0" stroke-linecap="round" stroke-linejoin="round"/>
    <path d="M 14.285820007324219 14.497793197631836 C 12.755131721496582 19.977985382080078 10.605239868164062 21.73244857788086 14.320608139038086 19.18071746826172 C 11.788408279418945 17.61722755432129 15.084668159484863 19.639041900634766 14.392107963562012 16.113168716430664" stroke-width="1.1365631818771362" fill="none" stroke="rgb(28, 228, 167)" stroke-opacity="0.764088" stroke-linecap="round" stroke-linejoin="round"/>
    <path d="M 88.0481948852539 33.6739501953125 C 84.57129669189453 28.270597457885742 84.58821868896484 27.35946273803711 85.11062622070312 25.385269165039062 C 86.26166534423828 29.81376838684082 88.92176818847656 32.34446334838867 85.18602752685547 30.244321823120117 C 86.88861083984375 35.22537612915039 92.94707489013672 39.57878112792969 90.40428161621094 40.879947662353516" stroke-width="0.924625039100647" fill="none" stroke="rgb(104, 255, 25)" stroke-opacity="0.29628748" stroke-linecap="round" stroke-linejoin="round"/>
    <path d="M 41.3121452331543 16.32168960571289 C 36.63083267211914 19.75132942199707 40.22795486450195 16.89350700378418 41.03475570678711 14.950460433959961 C 45.05485153198242 10.871258735656738 42.50403594970703 8.881837844848633 43.62935256958008 4.3165202140808105 C 40.91006088256836 8.328429222106934 37.8343505859375 9.179914474487305 33.05432891845703 13.485377311706543" stroke-width="0.9811780452728271" fill="none" stroke="rgb(156, 89, 74)" stroke-opacity="0.02205086" stroke-linecap="round" stroke-linejoin="round"/>
    <path d="M 30.424001693725586 31.06490707397461 C 37.089622497558594 29.1412296295166 33.639190673828125 32.8117561340332 30.937707901000977 34.17830276489258 C 29.988235473632812 38.28947067260742 31.337007522583008 40.83318328857422 27.629207611083984 45.790653228759766 C 26.179330825805664 41.455772399902344 22.975522994995117 41.77534866333008 22.96533966064453 45.917579650878906" stroke-width="1.3927987813949585" fill="none" stroke="rgb(28, 169, 45)" stroke-opacity="0.38531458" stroke-linecap="round" stroke-linejoin="round"/>
    <path d="M 22.712732315063477 3.070359945297241 C 19.888587951660156 1.928102970123291 20.9976806640625 -2.6882619857788086 28.44186782836914 0.9016645550727844" stroke-width="0.9623727202415466" fill="none" stroke="rgb(133, 255, 226)" stroke-opacity="0.99320745" stroke-linecap="round" stroke-linejoin="round"/>
    <path d="M 7.734502792358398 87.9688491821289 C 6.969331741333008 88.22725677490234 3.807490110397339 88.20919036865234 6.156678676605225 83.97117614746094" stroke-width="0.9640054106712341" fill="none" stroke="rgb(255, 238, 8)" stroke-opacity="0.494593" stroke-linecap="round" stroke-linejoin="round"/>
    <path d="M 96.97396087646484 33.632843017578125 C 90.84392547607422 30.336040496826172 94.68770599365234 33.83177947998047 92.83619689941406 35.86566162109375 C 93.48755645751953 37.336326599121094 96.21761322021484 41.65863800048828 98.65264892578125 39.10401153564453" stroke-width="1.0284570455551147" fill="none" stroke="rgb(168, 222, 44)" stroke-opacity="0.5649636" stroke-linecap="round" stroke-linejoin="round"/>
    <path d="M 15.668817520141602 18.512296676635742 C 14.824864387512207 13.945069313049316 13.997942924499512 11.397077560424805 17.749530792236328 7.2065229415893555 C 19.467830657958984 1.7275789976119995 22.583322525024414 0.18763120472431183 18.548625946044922 -3.9735171794891357" stroke-width="1.533791184425354" fill="none" stroke="rgb(125, 255, 203)" stroke-opacity="0.82349426" stroke-linecap="round" stroke-linejoin="round"/>
    <path d="M 90.79820251464844 80.23924255371094 C 93.54027557373047 79.00076293945312 97.42799377441406 81.02271270751953 100.10617065429688 83.07899475097656" stroke-width="0.9142717719078064" fill="none" stroke="rgb(165, 69, 201)" stroke-opacity="0.09726241" stroke-linecap="round" stroke-linejoin="round"/>
    <path d="M 79.20401000976562 -0.35601332783699036 C 82.34429931640625 3.9508509635925293 81.86161041259766 3.751565933227539 88.49160766601562 6.398774147033691" stroke-width="0.9142717719078064" fill="none" stroke="rgb(65, 241, 182)" stroke-opacity="0.0" stroke-linecap="round" stroke-linejoin="round"/>
    <path d="M 33.40652847290039 13.785384178161621 C 34.20621109008789 12.171231269836426 29.66553497314453 15.002983093261719 24.920915603637695 17.689950942993164 C 21.399307250976562 18.057106018066406 22.043006896972656 18.067289352416992 24.327322006225586 17.63047981262207" stroke-width="0.9142717719078064" fill="none" stroke="rgb(101, 92, 47)" stroke-opacity="0.390848" stroke-linecap="round" stroke-linejoin="round"/>
    <path d="M 24.646886825561523 41.38525390625 C 23.043704986572266 42.25499725341797 21.255964279174805 39.329158782958984 22.041179656982422 38.40502166748047" stroke-width="0.9230599403381348" fill="none" stroke="rgb(11, 105, 139)" stroke-opacity="0.3345719" stroke-linecap="round" stroke-linejoin="round"/>
    <path d="M 32.324031829833984 76.235107421875 C 34.48313522338867 78.15888977050781 32.57414245605469 78.84099578857422 35.83089065551758 80.95342254638672" stroke-width="0.9142717719078064" fill="none" stroke="rgb(119, 218, 137)" stroke-opacity="0.8782822" stroke-linecap="round" stroke-linejoin="round"/>
  </g>
</svg>
