<?xml version="1.0" ?>
<svg xmlns="http://www.w3.org/2000/svg" version="1.1" width="1104.0" height="1104.0">
  <defs/>
  <g>
    <path d="M 25.807161331176758 123.82406616210938 C 26.058996200561523 125.99098205566406 40.921730041503906 132.47206115722656 114.5353775024414 132.3103485107422 C 188.14967346191406 132.06756591796875 193.81138610839844 128.35952758789062 200.88818359375 127.06444549560547" stroke-width="3.0107975006103516" fill="none" stroke="rgb(0, 0, 0)" stroke-opacity="1.0" stroke-linecap="round" stroke-linejoin="round"/>
    <path d="M 110.22416687011719 131.58010864257812 C 111.94910430908203 125.90856170654297 112.1590347290039 125.33191680908203 112.15795135498047 125.34171295166016" stroke-width="2.9602315425872803" fill="none" stroke="rgb(0, 0, 0)" stroke-opacity="1.0" stroke-linecap="round" stroke-linejoin="round"/>
    <path d="M 109.9747314453125 131.9803009033203 C 110.55712127685547 128.9940185546875 111.18830871582031 126.83009338378906 111.92828369140625 126.1694564819336 C 112.66410827636719 125.4607925415039 202.26803588867188 125.17267608642578 202.60989379882812 118.37906646728516" stroke-width="2.97094464302063" fill="none" stroke="rgb(0, 0, 0)" stroke-opacity="1.0" stroke-linecap="round" stroke-linejoin="round"/>
    <path d="M 31.805831909179688 143.29962158203125 C 38.554710388183594 160.72178649902344 53.4000244140625 176.43212890625 64.78565979003906 176.2529296875 C 76.11152648925781 176.16580200195312 154.43557739257812 175.62449645996094 162.60768127441406 175.98544311523438 C 170.7923583984375 176.3932342529297 193.83786010742188 165.03453063964844 194.1929168701172 147.22146606445312" stroke-width="2.9476616382598877" fill="none" stroke="rgb(0, 0, 0)" stroke-opacity="1.0" stroke-linecap="round" stroke-linejoin="round"/>
    <path d="M 50.40155029296875 161.15492248535156 C 53.30834197998047 165.097412109375 59.691131591796875 169.0353240966797 66.31695556640625 168.65994262695312 C 72.9211196899414 168.37550354003906 77.97644805908203 165.36314392089844 78.91293334960938 162.69302368164062" stroke-width="2.9760565757751465" fill="none" stroke="rgb(0, 0, 0)" stroke-opacity="1.0" stroke-linecap="round" stroke-linejoin="round"/>
    <path d="M 64.72293090820312 168.33416748046875 C 64.83670806884766 155.61370849609375 65.7821273803711 143.2384490966797 64.98824310302734 142.06451416015625 C 64.1781997680664 140.8354034423828 63.33741760253906 141.8003387451172 62.62034225463867 139.1199493408203 C 61.71599578857422 136.51324462890625 63.32642364501953 133.52877807617188 64.91532897949219 134.2205047607422 C 66.50131225585938 135.02647399902344 68.71159362792969 136.17263793945312 66.99006652832031 139.30960083007812 C 65.28950500488281 142.39622497558594 65.18984985351562 140.8963623046875 65.33247375488281 141.5996856689453" stroke-width="2.9539201259613037" fill="none" stroke="rgb(0, 0, 0)" stroke-opacity="1.0" stroke-linecap="round" stroke-linejoin="round"/>
    <path d="M 59.11764144897461 140.87501525878906 C 63.16646194458008 140.8922882080078 65.77288818359375 141.2386016845703 69.00502014160156 141.41127014160156" stroke-width="2.960211992263794" fill="none" stroke="rgb(0, 0, 0)" stroke-opacity="1.0" stroke-linecap="round" stroke-linejoin="round"/>
    <path d="M 25.40553092956543 124.02202606201172 C 28.413877487182617 136.99044799804688 27.970169067382812 140.65716552734375 30.316171646118164 142.6048583984375 C 32.71783447265625 144.53097534179688 73.51663970947266 149.0491485595703 114.78251647949219 148.6507110595703 C 155.98492431640625 148.21852111816406 194.20419311523438 146.27842712402344 196.35830688476562 144.1173095703125 C 198.50863647460938 141.95120239257812 200.66554260253906 129.50291442871094 202.82188415527344 118.64360046386719" stroke-width="2.979072093963623" fill="none" stroke="rgb(0, 0, 0)" stroke-opacity="1.0" stroke-linecap="round" stroke-linejoin="round"/>
    <path d="M 59.800777435302734 132.1868438720703 C 73.65135192871094 156.35121154785156 53.92607498168945 139.9365234375 96.75797271728516 131.98350524902344 C 124.45101165771484 133.76356506347656 159.71913146972656 147.5037384033203 103.23931121826172 153.81307983398438 C 54.32772445678711 160.36021423339844 77.45555114746094 148.52488708496094 81.3623275756836 207.18800354003906" stroke-width="2.0" fill="none" stroke="rgb(118, 148, 130)" stroke-opacity="0.73641" stroke-linecap="round" stroke-linejoin="round"/>
    <path d="M 66.75423431396484 154.22714233398438 C 71.4197006225586 120.27279663085938 80.57177734375 123.44622802734375 65.10403442382812 178.34849548339844 C 58.40476608276367 192.6541290283203 51.664859771728516 173.0992431640625 107.85984802246094 221.13795471191406" stroke-width="6.296704292297363" fill="none" stroke="rgb(0, 8, 4)" stroke-opacity="1.0" stroke-linecap="round" stroke-linejoin="round"/>
    <path d="M 51.953575134277344 221.03909301757812 C 56.461463928222656 178.9146728515625 74.19329833984375 188.6123504638672 9.709833145141602 196.30072021484375 C -0.7631252408027649 206.0105743408203 15.072253227233887 187.00418090820312 10.099772453308105 195.58641052246094 C 23.588197708129883 212.9408416748047 9.332779884338379 240.54330444335938 22.27125358581543 230.07510375976562" stroke-width="6.485140323638916" fill="none" stroke="rgb(0, 9, 110)" stroke-opacity="1.0" stroke-linecap="round" stroke-linejoin="round"/>
    <path d="M 137.25865173339844 34.102970123291016 C 124.54214477539062 44.6614875793457 119.58395385742188 47.33347702026367 124.98682403564453 61.126529693603516 C 121.638427734375 65.52120971679688 115.39414978027344 82.129150390625 122.94647216796875 103.06148529052734" stroke-width="2.0" fill="none" stroke="rgb(22, 251, 192)" stroke-opacity="0.34038475" stroke-linecap="round" stroke-linejoin="round"/>
  </g>
</svg>
