<?xml version="1.0" ?>
<svg xmlns="http://www.w3.org/2000/svg" version="1.1" width="1104.0" height="1104.0">
  <defs/>
  <g>
    <path d="M 28.821563720703125 63.454132080078125 C 26.264463424682617 62.70206069946289 23.85431480407715 63.67172622680664 24.661739349365234 63.75636291503906 C 25.881776809692383 60.923954010009766 26.442516326904297 60.82704544067383 24.020362854003906 61.89078140258789 C 25.147964477539062 61.18556213378906 24.855422973632812 58.567283630371094 24.615623474121094 55.56033706665039 C 23.5587215423584 56.23777770996094 24.643295288085938 52.984737396240234 25.6608829498291 54.834903717041016 C 24.344257354736328 54.9767951965332 25.952472686767578 55.182708740234375 25.590484619140625 54.86946487426758 C 29.193031311035156 54.40141677856445 32.674625396728516 53.89155578613281 37.05538558959961 55.51655197143555 C 41.528560638427734 57.19675827026367 46.943702697753906 56.94431686401367 54.556819915771484 57.48736572265625 C 58.933067321777344 58.10687255859375 63.32969284057617 59.08848190307617 66.99605560302734 59.588558197021484 C 67.445556640625 62.35190200805664 67.67436981201172 64.45026397705078 68.20750427246094 63.53205108642578 C 68.0112533569336 58.88269805908203 74.1286392211914 53.53266906738281 74.52339935302734 52.63556671142578 C 76.12995147705078 47.96113967895508 78.50900268554688 43.95140838623047 81.06193542480469 40.512451171875 C 81.57655334472656 39.09672927856445 82.09153747558594 37.93357849121094 82.26408386230469 35.98198318481445" stroke-width="1.0614383220672607" fill="none" stroke="rgb(59, 0, 16)" stroke-opacity="0.9640657" stroke-linecap="round" stroke-linejoin="round"/>
    <path d="M 28.02321434020996 54.91486740112305 C 28.4266357421875 58.21562576293945 28.57417106628418 64.21258544921875 26.629100799560547 62.97052001953125 C 32.31076431274414 63.79186248779297 36.61116409301758 64.11969757080078 32.671913146972656 63.86674118041992 C 31.84205436706543 67.70487976074219 31.574222564697266 71.6661605834961 30.556137084960938 73.4178466796875" stroke-width="1.1366827487945557" fill="none" stroke="rgb(139, 9, 34)" stroke-opacity="0.9197565" stroke-linecap="round" stroke-linejoin="round"/>
    <path d="M 24.436124801635742 53.56183624267578 C 22.409587860107422 54.88434600830078 21.30021858215332 54.1773681640625 19.94759750366211 49.46233367919922 C 22.412124633789062 47.524253845214844 20.302438735961914 53.32147216796875 27.848796844482422 50.030818939208984" stroke-width="2.2696926593780518" fill="none" stroke="rgb(218, 36, 39)" stroke-opacity="1.0" stroke-linecap="round" stroke-linejoin="round"/>
    <path d="M 73.60612487792969 54.18082046508789 C 77.6507339477539 56.30480194091797 74.75762939453125 56.617244720458984 72.26110076904297 61.12746810913086 C 73.26580047607422 58.09297561645508 72.93579864501953 62.29494857788086 71.37333679199219 62.973716735839844" stroke-width="1.0569669008255005" fill="none" stroke="rgb(130, 89, 123)" stroke-opacity="0.46183747" stroke-linecap="round" stroke-linejoin="round"/>
    <path d="M 55.51254653930664 58.2901611328125 C 58.66134262084961 59.78912353515625 55.679744720458984 63.16844177246094 60.75596237182617 62.79103088378906 C 66.78306579589844 65.92330169677734 68.85486602783203 66.0351333618164 68.52391052246094 63.252288818359375" stroke-width="0.914248526096344" fill="none" stroke="rgb(28, 179, 64)" stroke-opacity="0.42185858" stroke-linecap="round" stroke-linejoin="round"/>
    <path d="M 24.594879150390625 53.56949996948242 C 27.794713973999023 49.222965240478516 27.399330139160156 55.629764556884766 28.95789337158203 55.39811706542969" stroke-width="0.914248526096344" fill="none" stroke="rgb(88, 125, 87)" stroke-opacity="0.5338265" stroke-linecap="round" stroke-linejoin="round"/>
    <path d="M 23.421234130859375 53.573326110839844 C 23.872272491455078 53.50402069091797 21.5156192779541 54.224822998046875 19.234981536865234 52.507572174072266 C 13.979825019836426 49.999542236328125 13.078804016113281 55.35232925415039 14.230772018432617 54.64947509765625 C 16.04704475402832 50.724342346191406 19.299367904663086 47.35118865966797 18.446197509765625 51.53072738647461" stroke-width="0.914248526096344" fill="none" stroke="rgb(195, 255, 165)" stroke-opacity="0.22242038" stroke-linecap="round" stroke-linejoin="round"/>
    <path d="M 22.175670623779297 55.53974533081055 C 20.716833114624023 60.46396255493164 25.107994079589844 62.45551681518555 20.14980125427246 62.71498489379883 C 20.159156799316406 67.05426025390625 20.068933486938477 61.856666564941406 21.322559356689453 63.3453254699707" stroke-width="0.914248526096344" fill="none" stroke="rgb(166, 189, 69)" stroke-opacity="0.664994" stroke-linecap="round" stroke-linejoin="round"/>
    <path d="M 25.67888641357422 62.65410232543945 C 23.277057647705078 64.66629028320312 22.79384994506836 60.234561920166016 23.14600944519043 61.989749908447266 C 23.802345275878906 56.77622985839844 22.399545669555664 60.216896057128906 24.077150344848633 63.50497817993164" stroke-width="0.914248526096344" fill="none" stroke="rgb(206, 208, 215)" stroke-opacity="0.21554202" stroke-linecap="round" stroke-linejoin="round"/>
    <path d="M 31.058765411376953 73.17202758789062 C 30.20106315612793 77.14402770996094 30.613107681274414 77.9692611694336 30.916526794433594 78.92158508300781" stroke-width="1.3765439987182617" fill="none" stroke="rgb(211, 82, 254)" stroke-opacity="0.58546543" stroke-linecap="round" stroke-linejoin="round"/>
    <path d="M 19.755435943603516 62.415306091308594 C 24.297609329223633 65.22040557861328 26.451772689819336 63.118465423583984 25.207128524780273 62.16872024536133 C 29.356189727783203 64.12268829345703 26.556726455688477 59.6688232421875 22.327838897705078 55.74654006958008 C 24.79182243347168 57.07057189941406 27.115604400634766 60.70076370239258 23.83864974975586 63.47406005859375" stroke-width="1.3060002326965332" fill="none" stroke="rgb(251, 115, 105)" stroke-opacity="0.30506864" stroke-linecap="round" stroke-linejoin="round"/>
    <path d="M 19.17817497253418 50.601070404052734 C 20.5526180267334 52.3335075378418 20.621877670288086 55.26096725463867 21.918397903442383 62.16043472290039" stroke-width="1.0478721857070923" fill="none" stroke="rgb(209, 0, 143)" stroke-opacity="0.9558634" stroke-linecap="round" stroke-linejoin="round"/>
    <path d="M 70.77162170410156 66.72598266601562 C 73.59765625 59.93456268310547 74.24370574951172 60.06144714355469 75.60357666015625 53.43486785888672 C 72.55001831054688 61.678043365478516 73.03609466552734 60.60309600830078 71.61497497558594 57.614009857177734" stroke-width="1.5513650178909302" fill="none" stroke="rgb(107, 124, 102)" stroke-opacity="0.5955881" stroke-linecap="round" stroke-linejoin="round"/>
    <path d="M 18.826536178588867 64.54084014892578 C 22.51995849609375 63.068153381347656 24.27385711669922 62.23801803588867 23.88595199584961 64.03553009033203" stroke-width="0.914248526096344" fill="none" stroke="rgb(96, 66, 144)" stroke-opacity="0.7092924" stroke-linecap="round" stroke-linejoin="round"/>
    <path d="M 30.606529235839844 54.3021125793457 C 28.045080184936523 56.39952850341797 32.05547332763672 60.75177001953125 32.3474006652832 67.26240539550781 C 36.122215270996094 62.811466217041016 32.42182159423828 63.31717300415039 30.724416732788086 63.91933822631836 C 28.42525863647461 61.144073486328125 25.299009323120117 60.20436096191406 22.7580509185791 62.33934020996094" stroke-width="0.9276161193847656" fill="none" stroke="rgb(189, 123, 120)" stroke-opacity="0.43939307" stroke-linecap="round" stroke-linejoin="round"/>
    <path d="M 28.619478225708008 52.66482162475586 C 30.75860595703125 46.46760940551758 30.518157958984375 48.815208435058594 23.138202667236328 48.569007873535156 C 26.663433074951172 53.88389587402344 30.395872116088867 55.04642105102539 26.337188720703125 51.358036041259766 C 29.245988845825195 49.096214294433594 29.06450843811035 53.19125747680664 29.046276092529297 56.73460388183594" stroke-width="2.235595941543579" fill="none" stroke="rgb(188, 22, 49)" stroke-opacity="0.79801303" stroke-linecap="round" stroke-linejoin="round"/>
    <path d="M 18.550079345703125 50.28296661376953 C 18.60166358947754 51.3862190246582 16.79184913635254 48.6588134765625 13.200081825256348 46.81669998168945 C 13.195158004760742 48.40416717529297 12.678396224975586 48.21908187866211 14.746170997619629 51.018341064453125 C 19.068151473999023 53.023014068603516 19.787595748901367 56.17861557006836 22.426088333129883 56.609954833984375" stroke-width="0.914248526096344" fill="none" stroke="rgb(162, 133, 226)" stroke-opacity="0.6831203" stroke-linecap="round" stroke-linejoin="round"/>
    <path d="M 71.57904815673828 56.95991134643555 C 70.98685455322266 55.088863372802734 72.97856903076172 54.189273834228516 68.69093322753906 52.4689826965332 C 68.28095245361328 48.548667907714844 70.02396392822266 46.663658142089844 70.01676177978516 49.32511901855469 C 65.70012664794922 46.63529968261719 66.30479431152344 49.52498245239258 69.95759582519531 42.420833587646484" stroke-width="0.914248526096344" fill="none" stroke="rgb(71, 233, 113)" stroke-opacity="0.7438334" stroke-linecap="round" stroke-linejoin="round"/>
    <path d="M 40.755794525146484 49.13150405883789 C 37.95197677612305 50.683998107910156 34.99660110473633 47.084251403808594 35.17235565185547 48.722843170166016 C 31.990371704101562 53.834266662597656 34.43638610839844 53.55042266845703 32.221736907958984 51.171409606933594" stroke-width="0.914248526096344" fill="none" stroke="rgb(54, 255, 197)" stroke-opacity="0.20687899" stroke-linecap="round" stroke-linejoin="round"/>
    <path d="M 47.596031188964844 67.01944732666016 C 46.460662841796875 73.55608367919922 46.97673797607422 75.33699035644531 44.25990295410156 73.82649993896484 C 50.59724426269531 73.08545684814453 49.59059524536133 75.45796203613281 51.29136657714844 76.59160614013672 C 54.93206024169922 74.16114807128906 55.305084228515625 79.0870361328125 57.50886154174805 82.6581802368164" stroke-width="1.0830894708633423" fill="none" stroke="rgb(158, 62, 137)" stroke-opacity="0.32363197" stroke-linecap="round" stroke-linejoin="round"/>
    <path d="M 25.839244842529297 79.62352752685547 C 26.223514556884766 77.21524810791016 26.889278411865234 76.83363342285156 27.94476318359375 70.49124908447266" stroke-width="1.3637104034423828" fill="none" stroke="rgb(160, 81, 228)" stroke-opacity="0.41305172" stroke-linecap="round" stroke-linejoin="round"/>
    <path d="M 38.67290115356445 75.0985107421875 C 42.050453186035156 69.5941390991211 42.8145866394043 72.96626281738281 44.06798553466797 75.24451446533203" stroke-width="1.5708982944488525" fill="none" stroke="rgb(33, 249, 69)" stroke-opacity="0.63019794" stroke-linecap="round" stroke-linejoin="round"/>
    <path d="M 41.769439697265625 23.091583251953125 C 39.09420394897461 18.260967254638672 38.361602783203125 16.401628494262695 37.08503723144531 22.047016143798828 C 32.73729705810547 21.261980056762695 27.22017478942871 20.99442481994629 25.130468368530273 16.898569107055664 C 24.725831985473633 16.578428268432617 21.410734176635742 12.542448043823242 21.749011993408203 5.486703395843506" stroke-width="0.914248526096344" fill="none" stroke="rgb(124, 49, 166)" stroke-opacity="0.6209724" stroke-linecap="round" stroke-linejoin="round"/>
    <path d="M 83.47954559326172 103.37337493896484 C 84.1780014038086 98.749755859375 86.36589050292969 94.30307006835938 87.92013549804688 98.3049545288086 C 90.6804428100586 100.27397155761719 91.21658325195312 102.72650909423828 89.75948333740234 103.21625518798828" stroke-width="0.914248526096344" fill="none" stroke="rgb(152, 140, 50)" stroke-opacity="0.82931674" stroke-linecap="round" stroke-linejoin="round"/>
    <path d="M 86.11829376220703 48.15774154663086 C 85.57829284667969 50.76435470581055 86.56098175048828 48.25316619873047 85.32614135742188 45.49492263793945 C 84.72047424316406 41.2602653503418 85.7551498413086 44.973915100097656 84.08435821533203 38.953895568847656" stroke-width="1.3660200834274292" fill="none" stroke="rgb(79, 211, 71)" stroke-opacity="0.3143809" stroke-linecap="round" stroke-linejoin="round"/>
    <path d="M 91.67144775390625 84.47988891601562 C 95.17627716064453 85.17649841308594 91.8849105834961 85.74690246582031 92.4634780883789 82.27352142333984 C 88.85569763183594 83.48265838623047 92.98271179199219 79.94091796875 92.898193359375 81.92070770263672 C 92.73468017578125 77.00355529785156 91.21571350097656 81.01256561279297 87.91799926757812 80.7431869506836" stroke-width="0.914248526096344" fill="none" stroke="rgb(116, 137, 20)" stroke-opacity="0.0004979714" stroke-linecap="round" stroke-linejoin="round"/>
    <path d="M 63.94651412963867 74.3575210571289 C 63.48434066772461 71.46778106689453 66.67269134521484 75.72483825683594 68.5477066040039 79.4184799194336 C 71.0159912109375 78.7387466430664 69.77513885498047 78.34943389892578 70.31488037109375 72.89389038085938" stroke-width="0.9476641416549683" fill="none" stroke="rgb(68, 0, 47)" stroke-opacity="0.21161446" stroke-linecap="round" stroke-linejoin="round"/>
    <path d="M 58.720298767089844 7.876109600067139 C 56.962528228759766 10.711669921875 55.272377014160156 11.664924621582031 51.070770263671875 14.445252418518066 C 49.34925079345703 13.896601676940918 53.21397399902344 12.739450454711914 49.161399841308594 14.096635818481445 C 47.31338119506836 18.845985412597656 46.711673736572266 19.066221237182617 46.72482681274414 22.82455062866211" stroke-width="0.914248526096344" fill="none" stroke="rgb(0, 135, 44)" stroke-opacity="0.52599496" stroke-linecap="round" stroke-linejoin="round"/>
    <path d="M 37.73762512207031 53.62908172607422 C 34.334327697753906 51.41990280151367 34.286338806152344 49.12616729736328 34.46702575683594 42.825721740722656" stroke-width="0.914248526096344" fill="none" stroke="rgb(143, 42, 235)" stroke-opacity="0.5488348" stroke-linecap="round" stroke-linejoin="round"/>
    <path d="M 71.86324310302734 38.494510650634766 C 71.60938262939453 40.652061462402344 76.90278625488281 38.54920959472656 73.68417358398438 39.2001953125 C 71.58628845214844 35.514991760253906 75.99864196777344 38.33899688720703 78.08133697509766 32.98198699951172 C 84.62487030029297 34.51355743408203 84.80325317382812 35.74608612060547 84.81773376464844 39.45790100097656" stroke-width="0.914248526096344" fill="none" stroke="rgb(84, 62, 255)" stroke-opacity="0.7049971" stroke-linecap="round" stroke-linejoin="round"/>
    <path d="M 83.88920593261719 39.85175704956055 C 80.80266571044922 45.78923034667969 80.60779571533203 44.64179229736328 76.73259735107422 41.32388687133789 C 80.0824966430664 36.203758239746094 77.87973022460938 31.78040885925293 78.2951431274414 33.829750061035156" stroke-width="1.0313732624053955" fill="none" stroke="rgb(73, 148, 73)" stroke-opacity="0.10313604" stroke-linecap="round" stroke-linejoin="round"/>
    <path d="M 85.19698333740234 9.541129112243652 C 92.56573486328125 5.570167064666748 95.35060119628906 8.46302604675293 92.06360626220703 6.252356052398682 C 96.13729858398438 9.330303192138672 91.13800811767578 4.204183578491211 92.45932006835938 4.554233551025391 C 87.95933532714844 -0.40241867303848267 84.8556900024414 0.5570468306541443 84.72193145751953 5.611189365386963" stroke-width="0.914248526096344" fill="none" stroke="rgb(130, 88, 229)" stroke-opacity="0.6562864" stroke-linecap="round" stroke-linejoin="round"/>
    <path d="M 83.33140563964844 41.414424896240234 C 83.35470581054688 42.98482894897461 84.29425811767578 37.322139739990234 82.40247344970703 39.461734771728516 C 79.67919158935547 41.65327072143555 84.93218994140625 39.56045913696289 84.50214385986328 35.645137786865234" stroke-width="0.914341926574707" fill="none" stroke="rgb(156, 3, 43)" stroke-opacity="0.08335198" stroke-linecap="round" stroke-linejoin="round"/>
  </g>
</svg>
