<?xml version="1.0" ?>
<svg xmlns="http://www.w3.org/2000/svg" version="1.1" width="992.0" height="992.0">
  <defs/>
  <g>
    <path d="M 67.70215606689453 52.09400939941406 C 82.74436950683594 51.61104202270508 80.50839233398438 52.24606704711914 78.15238952636719 50.68103790283203 C 70.66748046875 50.451045989990234 70.67937469482422 48.51068878173828 64.72296905517578 51.67107391357422 C 67.97295379638672 67.69363403320312 69.4617919921875 74.37325286865234 70.75587463378906 75.55136108398438 C 70.803955078125 73.72455596923828 70.48168182373047 76.08289337158203 71.9554672241211 76.70321655273438 C 72.17379760742188 79.57494354248047 71.79444885253906 85.22753143310547 68.56958770751953 95.26323699951172" stroke-width="2.7812178134918213" fill="none" stroke="rgb(111, 5, 31)" stroke-opacity="0.6540225" stroke-linecap="round" stroke-linejoin="round"/>
    <path d="M 74.31243133544922 76.24341583251953 C 81.26810455322266 77.08851623535156 86.13285064697266 78.6230239868164 69.93383026123047 75.62381744384766 C 65.7663345336914 70.87071990966797 62.793479919433594 78.38407897949219 49.90562438964844 78.80503845214844" stroke-width="1.5401785373687744" fill="none" stroke="rgb(37, 99, 104)" stroke-opacity="0.39063987" stroke-linecap="round" stroke-linejoin="round"/>
    <path d="M 70.81875610351562 68.30197143554688 C 88.4631118774414 66.04396057128906 82.84095001220703 66.22457885742188 82.98436737060547 75.53564453125" stroke-width="1.5401785373687744" fill="none" stroke="rgb(52, 47, 84)" stroke-opacity="0.84060746" stroke-linecap="round" stroke-linejoin="round"/>
    <path d="M 71.5397720336914 87.43263244628906 C 62.62900161743164 98.62117767333984 67.01887512207031 103.14171600341797 80.86575317382812 101.44355010986328 C 78.26537322998047 111.00302124023438 79.43238067626953 91.87272644042969 81.28367614746094 83.4546127319336 C 63.40851593017578 80.64319610595703 69.14131927490234 93.34700775146484 67.46839904785156 111.24398040771484" stroke-width="2.317065954208374" fill="none" stroke="rgb(193, 66, 63)" stroke-opacity="0.7607952" stroke-linecap="round" stroke-linejoin="round"/>
    <path d="M 69.97808837890625 68.06875610351562 C 61.57512283325195 78.9546127319336 61.818843841552734 84.62136840820312 59.67427062988281 96.93421173095703 C 67.08139038085938 103.92512512207031 76.32095336914062 108.5866928100586 70.15267944335938 101.6794204711914" stroke-width="1.6802510023117065" fill="none" stroke="rgb(168, 149, 76)" stroke-opacity="0.021942846" stroke-linecap="round" stroke-linejoin="round"/>
    <path d="M 77.54723358154297 52.22922897338867 C 84.19772338867188 51.532676696777344 79.81494140625 51.75511932373047 82.07376098632812 63.8973388671875" stroke-width="2.8439810276031494" fill="none" stroke="rgb(170, 82, 114)" stroke-opacity="0.85401225" stroke-linecap="round" stroke-linejoin="round"/>
    <path d="M 68.24504089355469 74.94266510009766 C 65.260009765625 69.6148681640625 62.87818908691406 72.02405548095703 63.343196868896484 76.41880798339844 C 60.277587890625 77.93643188476562 62.22062683105469 75.70285034179688 62.54511260986328 76.12059783935547 C 60.79559326171875 61.24491882324219 60.93572998046875 55.45159149169922 60.59978485107422 57.84438705444336" stroke-width="1.5401785373687744" fill="none" stroke="rgb(255, 181, 192)" stroke-opacity="0.6222285" stroke-linecap="round" stroke-linejoin="round"/>
    <path d="M 77.52803039550781 70.55829620361328 C 77.83480834960938 90.6424331665039 79.92801666259766 85.53548431396484 70.52105712890625 84.30892181396484" stroke-width="4.854309558868408" fill="none" stroke="rgb(163, 55, 22)" stroke-opacity="0.16507441" stroke-linecap="round" stroke-linejoin="round"/>
    <path d="M 71.45873260498047 69.63380432128906 C 74.74293518066406 63.65829849243164 62.942726135253906 73.5830307006836 58.58217239379883 74.15567016601562" stroke-width="1.5401785373687744" fill="none" stroke="rgb(112, 130, 137)" stroke-opacity="0.09586108" stroke-linecap="round" stroke-linejoin="round"/>
    <path d="M 73.03939819335938 98.94017791748047 C 65.93900299072266 101.98210906982422 65.93859100341797 99.63542175292969 64.65008544921875 97.3744125366211" stroke-width="2.0437989234924316" fill="none" stroke="rgb(63, 139, 101)" stroke-opacity="0.12723832" stroke-linecap="round" stroke-linejoin="round"/>
    <path d="M 67.02416229248047 95.72499084472656 C 62.194602966308594 106.62273406982422 64.53350830078125 110.19656372070312 64.96055603027344 114.60259246826172" stroke-width="1.5401785373687744" fill="none" stroke="rgb(229, 165, 193)" stroke-opacity="0.42086905" stroke-linecap="round" stroke-linejoin="round"/>
    <path d="M 72.57765197753906 76.85948181152344 C 90.1782455444336 74.66146087646484 86.40237426757812 83.76844024658203 90.27161407470703 83.23490905761719 C 81.81446838378906 84.37075805664062 71.30455017089844 84.86190795898438 74.28630065917969 88.48181915283203 C 90.01838684082031 84.79972839355469 94.26912689208984 79.2913818359375 91.10458374023438 83.06613159179688" stroke-width="1.599507451057434" fill="none" stroke="rgb(148, 100, 116)" stroke-opacity="0.7596272" stroke-linecap="round" stroke-linejoin="round"/>
    <path d="M 77.91626739501953 63.602569580078125 C 77.93766784667969 65.78577423095703 77.75013732910156 54.15808868408203 75.65813446044922 52.579280853271484" stroke-width="2.9394216537475586" fill="none" stroke="rgb(131, 127, 130)" stroke-opacity="0.7973367" stroke-linecap="round" stroke-linejoin="round"/>
    <path d="M 80.3313217163086 76.3856430053711 C 90.22376251220703 81.09180450439453 90.06643676757812 78.71135711669922 86.5535888671875 92.21028900146484 C 87.23675537109375 85.06773376464844 85.64202117919922 99.90126037597656 87.73921966552734 101.27729034423828 C 85.70584106445312 97.96048736572266 89.83135986328125 98.72306060791016 85.57418060302734 99.9827880859375" stroke-width="1.9413111209869385" fill="none" stroke="rgb(117, 1, 11)" stroke-opacity="0.6284207" stroke-linecap="round" stroke-linejoin="round"/>
    <path d="M 73.74717712402344 78.00289916992188 C 89.73180389404297 73.72897338867188 85.67257690429688 70.50794219970703 84.83687591552734 71.36652374267578 C 77.5444107055664 63.685054779052734 83.99346160888672 65.94227600097656 83.59368896484375 64.87591552734375" stroke-width="1.5401785373687744" fill="none" stroke="rgb(40, 192, 165)" stroke-opacity="0.4738507" stroke-linecap="round" stroke-linejoin="round"/>
    <path d="M 80.1393051147461 64.19664001464844 C 79.88542938232422 70.72396850585938 79.6833267211914 75.67852783203125 93.13334655761719 73.77547454833984 C 95.0256576538086 74.1778793334961 104.26713562011719 68.99293518066406 98.93267822265625 75.08649444580078 C 97.97732543945312 78.75341033935547 91.37091827392578 80.38631439208984 80.90287780761719 83.76411437988281" stroke-width="5.62984561920166" fill="none" stroke="rgb(236, 24, 7)" stroke-opacity="0.63039607" stroke-linecap="round" stroke-linejoin="round"/>
    <path d="M 76.01935577392578 56.07981872558594 C 83.10641479492188 49.51653289794922 77.92335510253906 54.73561477661133 82.2363052368164 45.90570831298828 C 84.55366516113281 53.36210632324219 82.06046295166016 45.19939422607422 80.68714904785156 40.95745849609375" stroke-width="1.5401785373687744" fill="none" stroke="rgb(180, 253, 213)" stroke-opacity="0.0" stroke-linecap="round" stroke-linejoin="round"/>
    <path d="M 90.2774887084961 155.1392364501953 C 84.85513305664062 152.7848358154297 82.67646026611328 148.7185516357422 75.48406219482422 151.6647491455078 C 71.4006576538086 142.70428466796875 85.42281341552734 144.64486694335938 82.97796630859375 137.1558074951172 C 79.21818542480469 137.3090362548828 76.8979721069336 150.13076782226562 75.09300994873047 154.52401733398438" stroke-width="1.5938647985458374" fill="none" stroke="rgb(218, 255, 250)" stroke-opacity="0.49065313" stroke-linecap="round" stroke-linejoin="round"/>
    <path d="M 30.119596481323242 14.422164916992188 C 32.28734588623047 19.575952529907227 39.74337387084961 21.24146842956543 47.5045051574707 22.109880447387695" stroke-width="1.6416950225830078" fill="none" stroke="rgb(55, 231, 195)" stroke-opacity="0.44175425" stroke-linecap="round" stroke-linejoin="round"/>
    <path d="M 149.4767608642578 48.47096252441406 C 145.169677734375 62.39545822143555 141.06591796875 58.32850646972656 142.61424255371094 48.698238372802734 C 131.4551544189453 47.56301498413086 137.28683471679688 45.3286018371582 147.1217041015625 44.8303337097168 C 145.55154418945312 38.38499450683594 148.49850463867188 37.438289642333984 153.73243713378906 33.115970611572266" stroke-width="1.5401785373687744" fill="none" stroke="rgb(0, 69, 66)" stroke-opacity="0.33724415" stroke-linecap="round" stroke-linejoin="round"/>
    <path d="M 54.13924789428711 61.16627502441406 C 53.94820022583008 63.476680755615234 49.89608383178711 63.190364837646484 35.76416015625 65.0036849975586 C 44.73792266845703 72.44120025634766 45.131622314453125 78.57511901855469 51.776649475097656 75.38096618652344" stroke-width="2.174884557723999" fill="none" stroke="rgb(0, 255, 123)" stroke-opacity="0.35303208" stroke-linecap="round" stroke-linejoin="round"/>
    <path d="M 80.21199798583984 24.479198455810547 C 71.76698303222656 28.60288429260254 76.88088989257812 33.61825942993164 93.83936309814453 34.78151321411133" stroke-width="1.5401785373687744" fill="none" stroke="rgb(28, 255, 194)" stroke-opacity="0.32768327" stroke-linecap="round" stroke-linejoin="round"/>
    <path d="M 51.45699691772461 124.01759338378906 C 48.96903610229492 127.70069885253906 53.18767547607422 126.72001647949219 51.016788482666016 116.44864654541016 C 50.97273635864258 131.85047912597656 51.07835388183594 143.00460815429688 50.78605270385742 142.14300537109375 C 57.84015655517578 130.4197540283203 62.48073196411133 132.0227813720703 61.47511291503906 146.5585174560547" stroke-width="2.126206636428833" fill="none" stroke="rgb(17, 68, 57)" stroke-opacity="0.3121822" stroke-linecap="round" stroke-linejoin="round"/>
    <path d="M 11.436442375183105 68.5934066772461 C 10.980680465698242 74.7613296508789 6.585347652435303 83.67501068115234 -0.2696510851383209 86.54148864746094" stroke-width="1.5401785373687744" fill="none" stroke="rgb(63, 78, 253)" stroke-opacity="0.3928649" stroke-linecap="round" stroke-linejoin="round"/>
    <path d="M 40.4820442199707 144.26736450195312 C 43.44658660888672 147.6979522705078 45.943546295166016 145.28707885742188 40.98141098022461 132.63101196289062 C 34.29189682006836 141.86648559570312 36.63054275512695 154.71424865722656 31.249774932861328 146.0944366455078 C 35.0828857421875 151.4003143310547 32.61500930786133 153.97030639648438 38.88160705566406 141.26715087890625" stroke-width="1.5883021354675293" fill="none" stroke="rgb(148, 141, 172)" stroke-opacity="0.59523785" stroke-linecap="round" stroke-linejoin="round"/>
    <path d="M -2.7174932956695557 99.83297729492188 C 4.404056549072266 95.54121398925781 9.334118843078613 88.46791076660156 6.145997047424316 98.31143951416016" stroke-width="1.5401785373687744" fill="none" stroke="rgb(109, 73, 238)" stroke-opacity="0.0" stroke-linecap="round" stroke-linejoin="round"/>
    <path d="M 83.28339385986328 132.5806121826172 C 87.92101287841797 142.98568725585938 87.24906158447266 150.07212829589844 89.92655181884766 147.1122283935547" stroke-width="2.693084716796875" fill="none" stroke="rgb(77, 160, 140)" stroke-opacity="0.45251408" stroke-linecap="round" stroke-linejoin="round"/>
    <path d="M 20.230127334594727 17.279190063476562 C 14.585949897766113 18.880645751953125 6.668297290802002 12.850330352783203 9.694679260253906 14.0437650680542 C 13.419395446777344 5.635650634765625 21.748756408691406 5.624664306640625 8.713099479675293 5.474218845367432" stroke-width="1.5401785373687744" fill="none" stroke="rgb(199, 255, 238)" stroke-opacity="0.33537367" stroke-linecap="round" stroke-linejoin="round"/>
    <path d="M 12.829784393310547 44.4262809753418 C 2.6924350261688232 46.094661712646484 1.5470508337020874 35.874420166015625 0.09526429325342178 34.3543701171875 C -12.42788314819336 35.587158203125 -7.735230922698975 29.0969295501709 -4.2696533203125 34.458152770996094" stroke-width="1.5401785373687744" fill="none" stroke="rgb(96, 96, 227)" stroke-opacity="0.2816355" stroke-linecap="round" stroke-linejoin="round"/>
    <path d="M 133.2116241455078 70.99559020996094 C 131.4300994873047 51.493587493896484 141.13783264160156 59.19699478149414 135.7412567138672 47.7795524597168 C 147.711669921875 56.65849304199219 161.32801818847656 55.138328552246094 163.67813110351562 55.08967208862305 C 164.31130981445312 52.45378875732422 171.12936401367188 51.75510787963867 177.1615753173828 59.16740798950195" stroke-width="5.846571922302246" fill="none" stroke="rgb(189, 0, 0)" stroke-opacity="0.98539263" stroke-linecap="round" stroke-linejoin="round"/>
    <path d="M 112.54389190673828 143.4686737060547 C 110.27665710449219 129.97891235351562 110.31875610351562 131.54800415039062 104.1720962524414 129.58555603027344 C 101.32449340820312 147.7930145263672 100.82020568847656 143.4786376953125 101.66535949707031 132.38629150390625 C 104.38336181640625 116.7300033569336 102.87671661376953 117.76972198486328 102.14676666259766 126.68147277832031" stroke-width="2.5479929447174072" fill="none" stroke="rgb(176, 92, 114)" stroke-opacity="0.46700978" stroke-linecap="round" stroke-linejoin="round"/>
    <path d="M 61.29892349243164 154.492919921875 C 69.83165740966797 148.31483459472656 74.93190002441406 157.49554443359375 67.99534606933594 152.6304473876953 C 72.18842315673828 140.00694274902344 75.810302734375 145.21826171875 73.6259536743164 144.38162231445312 C 79.79114532470703 134.96778869628906 74.05545043945312 134.63504028320312 76.70718383789062 145.01791381835938" stroke-width="1.5401785373687744" fill="none" stroke="rgb(21, 253, 160)" stroke-opacity="0.37361827" stroke-linecap="round" stroke-linejoin="round"/>
    <path d="M 151.517333984375 111.4902114868164 C 145.83155822753906 118.38350677490234 145.12744140625 131.02503967285156 147.23541259765625 130.1735076904297 C 161.63177490234375 122.65899658203125 161.022705078125 127.02767944335938 158.58404541015625 109.01522064208984" stroke-width="1.5401785373687744" fill="none" stroke="rgb(254, 130, 155)" stroke-opacity="0.61482966" stroke-linecap="round" stroke-linejoin="round"/>
  </g>
</svg>
