<?xml version="1.0" ?>
<svg xmlns="http://www.w3.org/2000/svg" version="1.1" width="956.0" height="956.0">
  <defs/>
  <g>
    <path d="M 40.1467170715332 77.52896118164062 C 67.08505249023438 84.95095825195312 96.7317886352539 81.45433044433594 95.55960845947266 77.92329406738281 C 97.94518280029297 73.91400909423828 68.68612670898438 64.99197387695312 45.68193054199219 73.4467544555664" stroke-width="1.7259870767593384" fill="none" stroke="rgb(82, 96, 86)" stroke-opacity="1.0" stroke-linecap="round" stroke-linejoin="round"/>
    <path d="M 68.33741760253906 75.3824234008789 C 69.58780670166016 60.27214431762695 66.76397705078125 44.88641357421875 68.98480224609375 31.9764347076416" stroke-width="1.1892671585083008" fill="none" stroke="rgb(177, 99, 34)" stroke-opacity="0.9479287" stroke-linecap="round" stroke-linejoin="round"/>
    <path d="M 68.79855346679688 49.35974884033203 C 76.7922134399414 46.513916015625 81.5523681640625 46.16116714477539 82.0612564086914 46.34477996826172" stroke-width="1.3065299987792969" fill="none" stroke="rgb(174, 98, 33)" stroke-opacity="1.0" stroke-linecap="round" stroke-linejoin="round"/>
    <path d="M 65.47278594970703 59.50556182861328 C 57.13428497314453 55.1961784362793 58.197853088378906 46.329872131347656 54.8665771484375 45.846229553222656" stroke-width="1.5987211465835571" fill="none" stroke="rgb(176, 100, 27)" stroke-opacity="1.0" stroke-linecap="round" stroke-linejoin="round"/>
    <path d="M 70.31766510009766 30.906686782836914 C 70.29361724853516 22.081459045410156 76.24026489257812 18.557945251464844 79.1015396118164 17.868690490722656" stroke-width="1.3451735973358154" fill="none" stroke="rgb(178, 98, 28)" stroke-opacity="1.0" stroke-linecap="round" stroke-linejoin="round"/>
    <path d="M 70.00492858886719 30.469545364379883 C 64.08216094970703 26.34320068359375 62.391937255859375 25.228317260742188 62.17584228515625 22.343931198120117" stroke-width="1.6614923477172852" fill="none" stroke="rgb(177, 98, 19)" stroke-opacity="1.0" stroke-linecap="round" stroke-linejoin="round"/>
    <path d="M 61.10383987426758 22.615468978881836 C 61.17932891845703 24.093120574951172 61.22325897216797 21.582490921020508 60.90340805053711 20.703584671020508 C 61.36500549316406 18.64824867248535 60.17426681518555 17.95356559753418 57.98337173461914 17.945524215698242" stroke-width="1.295586109161377" fill="none" stroke="rgb(172, 98, 19)" stroke-opacity="0.99337405" stroke-linecap="round" stroke-linejoin="round"/>
    <path d="M 61.77102279663086 23.215593338012695 C 54.21977996826172 25.285911560058594 53.524993896484375 25.48100471496582 53.705692291259766 25.657756805419922" stroke-width="1.6431052684783936" fill="none" stroke="rgb(178, 99, 16)" stroke-opacity="1.0" stroke-linecap="round" stroke-linejoin="round"/>
    <path d="M 81.74677276611328 46.10266876220703 C 82.29597473144531 45.540470123291016 81.96097564697266 43.83564376831055 81.44123077392578 41.86147689819336 C 81.84773254394531 41.538490295410156 83.22025299072266 40.62053298950195 85.1155776977539 41.77446746826172" stroke-width="1.2875193357467651" fill="none" stroke="rgb(160, 99, 16)" stroke-opacity="0.998256" stroke-linecap="round" stroke-linejoin="round"/>
    <path d="M 81.32534790039062 46.34539794921875 C 88.50503540039062 48.5445442199707 90.3630599975586 48.441280364990234 90.50015258789062 48.72090530395508" stroke-width="1.1892671585083008" fill="none" stroke="rgb(178, 99, 33)" stroke-opacity="0.9462914" stroke-linecap="round" stroke-linejoin="round"/>
    <path d="M 80.30603790283203 17.814350128173828 C 80.11354064941406 17.742919921875 81.55392456054688 18.537677764892578 82.67350769042969 17.3250789642334 C 84.26021575927734 17.953458786010742 85.03547668457031 19.32823371887207 84.656982421875 19.78736114501953" stroke-width="1.4767811298370361" fill="none" stroke="rgb(177, 99, 29)" stroke-opacity="1.0" stroke-linecap="round" stroke-linejoin="round"/>
    <path d="M 69.2261962890625 30.319780349731445 C 68.75862884521484 29.825315475463867 70.4089584350586 26.63512420654297 71.2898178100586 27.579837799072266 C 72.5232162475586 28.098495483398438 75.93992614746094 27.419300079345703 75.80158233642578 27.02507781982422" stroke-width="1.3613532781600952" fill="none" stroke="rgb(179, 99, 18)" stroke-opacity="1.0" stroke-linecap="round" stroke-linejoin="round"/>
    <path d="M 81.42163848876953 19.876436233520508 C 81.7256088256836 10.768446922302246 75.21580505371094 14.737215995788574 73.59969329833984 14.78398323059082" stroke-width="1.4146074056625366" fill="none" stroke="rgb(176, 99, 16)" stroke-opacity="0.9925842" stroke-linecap="round" stroke-linejoin="round"/>
    <path d="M 65.95523071289062 40.13943099975586 C 67.60678100585938 41.54408264160156 68.02310180664062 37.41604995727539 67.37600708007812 36.66924285888672 C 65.72054290771484 36.79759979248047 64.39409637451172 36.051307678222656 63.83747482299805 34.936126708984375" stroke-width="1.5681202411651611" fill="none" stroke="rgb(173, 98, 28)" stroke-opacity="1.0" stroke-linecap="round" stroke-linejoin="round"/>
    <path d="M 54.996639251708984 47.32598114013672 C 54.4093017578125 47.71337890625 54.20621109008789 45.04598617553711 54.083717346191406 42.12084197998047 C 52.25588607788086 43.212181091308594 50.896873474121094 43.18988037109375 50.8499641418457 43.18809127807617" stroke-width="1.1892671585083008" fill="none" stroke="rgb(158, 102, 29)" stroke-opacity="1.0" stroke-linecap="round" stroke-linejoin="round"/>
    <path d="M 54.32659912109375 45.86207580566406 C 48.078857421875 49.43508529663086 45.5659294128418 48.09884262084961 45.57088851928711 48.59315490722656" stroke-width="1.3595448732376099" fill="none" stroke="rgb(177, 100, 30)" stroke-opacity="0.9903502" stroke-linecap="round" stroke-linejoin="round"/>
    <path d="M 43.93162155151367 49.19102478027344 C 42.99402618408203 52.2817497253418 40.77280807495117 56.006465911865234 38.519439697265625 58.70873260498047" stroke-width="1.2569496631622314" fill="none" stroke="rgb(21, 134, 24)" stroke-opacity="0.993247" stroke-linecap="round" stroke-linejoin="round"/>
    <path d="M 44.25190353393555 49.68579864501953 C 37.0211067199707 51.33150100708008 38.83796310424805 56.01593017578125 39.23779296875 56.6363525390625" stroke-width="1.462200403213501" fill="none" stroke="rgb(19, 138, 13)" stroke-opacity="1.0" stroke-linecap="round" stroke-linejoin="round"/>
    <path d="M 45.104591369628906 48.88207244873047 C 40.72612762451172 52.82990646362305 39.73940658569336 55.177764892578125 39.763980865478516 57.376983642578125" stroke-width="1.3850654363632202" fill="none" stroke="rgb(80, 241, 57)" stroke-opacity="1.0" stroke-linecap="round" stroke-linejoin="round"/>
    <path d="M 45.93972396850586 49.623680114746094 C 43.350982666015625 50.87065887451172 38.93832778930664 50.92178726196289 37.0243034362793 47.63228988647461" stroke-width="1.1892671585083008" fill="none" stroke="rgb(28, 142, 19)" stroke-opacity="0.9605716" stroke-linecap="round" stroke-linejoin="round"/>
    <path d="M 44.88386535644531 49.110252380371094 C 37.580562591552734 44.795040130615234 35.57056427001953 47.99007797241211 37.15940856933594 47.32866668701172" stroke-width="1.1892671585083008" fill="none" stroke="rgb(14, 141, 24)" stroke-opacity="0.99741596" stroke-linecap="round" stroke-linejoin="round"/>
    <path d="M 46.827823638916016 50.03371810913086 C 42.90034103393555 47.11994934082031 39.17154312133789 47.32919692993164 36.053138732910156 49.688377380371094" stroke-width="1.693899154663086" fill="none" stroke="rgb(76, 244, 58)" stroke-opacity="1.0" stroke-linecap="round" stroke-linejoin="round"/>
    <path d="M 52.72399139404297 26.948280334472656 C 49.5941276550293 28.045310974121094 45.84415817260742 26.74534034729004 44.636993408203125 24.297460556030273" stroke-width="1.397073745727539" fill="none" stroke="rgb(28, 134, 6)" stroke-opacity="0.9769881" stroke-linecap="round" stroke-linejoin="round"/>
    <path d="M 51.69490432739258 24.360319137573242 C 45.22095489501953 20.004791259765625 42.376991271972656 24.168149948120117 43.17070770263672 24.07918357849121" stroke-width="1.531945824623108" fill="none" stroke="rgb(31, 135, 8)" stroke-opacity="0.9847826" stroke-linecap="round" stroke-linejoin="round"/>
    <path d="M 53.9039306640625 25.828662872314453 C 49.2484130859375 24.99652862548828 47.13874053955078 26.01815414428711 43.554100036621094 27.025192260742188" stroke-width="1.5100812911987305" fill="none" stroke="rgb(83, 239, 44)" stroke-opacity="1.0" stroke-linecap="round" stroke-linejoin="round"/>
    <path d="M 52.45553970336914 27.888992309570312 C 53.01353454589844 30.920440673828125 50.43859100341797 33.769203186035156 47.53641128540039 34.33367919921875" stroke-width="1.636013388633728" fill="none" stroke="rgb(23, 125, 8)" stroke-opacity="1.0" stroke-linecap="round" stroke-linejoin="round"/>
    <path d="M 54.38058090209961 28.72748374938965 C 46.613128662109375 32.77495193481445 48.69569778442383 36.77781295776367 48.225765228271484 35.33634567260742" stroke-width="1.3183774948120117" fill="none" stroke="rgb(20, 123, 2)" stroke-opacity="1.0" stroke-linecap="round" stroke-linejoin="round"/>
    <path d="M 53.92888259887695 25.296939849853516 C 49.97647476196289 30.40452003479004 48.99340057373047 32.86791229248047 49.54018783569336 35.59919357299805" stroke-width="1.3177223205566406" fill="none" stroke="rgb(95, 231, 38)" stroke-opacity="0.9526246" stroke-linecap="round" stroke-linejoin="round"/>
    <path d="M 51.092647552490234 42.76862716674805 C 48.5051155090332 44.35569381713867 44.03009796142578 45.748348236083984 40.10007858276367 45.414710998535156" stroke-width="1.6469520330429077" fill="none" stroke="rgb(15, 123, 1)" stroke-opacity="1.0" stroke-linecap="round" stroke-linejoin="round"/>
    <path d="M 49.51662063598633 40.56096267700195 C 41.81744384765625 38.29533767700195 41.304630279541016 42.94839096069336 41.17268371582031 44.262840270996094" stroke-width="1.6288689374923706" fill="none" stroke="rgb(15, 136, 17)" stroke-opacity="1.0" stroke-linecap="round" stroke-linejoin="round"/>
    <path d="M 53.358848571777344 41.80976867675781 C 46.9059944152832 42.86350631713867 44.45426940917969 43.82737731933594 42.48991394042969 43.83156967163086" stroke-width="1.613951563835144" fill="none" stroke="rgb(89, 244, 38)" stroke-opacity="1.0" stroke-linecap="round" stroke-linejoin="round"/>
    <path d="M 50.80984878540039 40.367431640625 C 48.68986892700195 38.74424362182617 43.52080154418945 38.194313049316406 42.769439697265625 36.66523742675781" stroke-width="1.2185450792312622" fill="none" stroke="rgb(21, 135, 26)" stroke-opacity="0.9622787" stroke-linecap="round" stroke-linejoin="round"/>
    <path d="M 50.178768157958984 40.89635467529297 C 47.04823303222656 32.049591064453125 45.0532341003418 34.84149169921875 44.51710510253906 36.1725959777832" stroke-width="1.7303392887115479" fill="none" stroke="rgb(15, 134, 20)" stroke-opacity="1.0" stroke-linecap="round" stroke-linejoin="round"/>
    <path d="M 51.893028259277344 40.412879943847656 C 48.863224029541016 36.36138153076172 45.939796447753906 35.3513069152832 44.827457427978516 35.22322463989258" stroke-width="1.1892671585083008" fill="none" stroke="rgb(79, 242, 60)" stroke-opacity="0.98225343" stroke-linecap="round" stroke-linejoin="round"/>
    <path d="M 58.12302017211914 18.69748878479004 C 55.308406829833984 19.596513748168945 50.43247985839844 20.887720108032227 48.367454528808594 20.095684051513672" stroke-width="1.3639106750488281" fill="none" stroke="rgb(22, 137, 4)" stroke-opacity="1.0" stroke-linecap="round" stroke-linejoin="round"/>
    <path d="M 59.3441276550293 18.898256301879883 C 51.55989074707031 17.788660049438477 48.6970329284668 22.196632385253906 47.7878303527832 22.17658805847168" stroke-width="1.4713324308395386" fill="none" stroke="rgb(19, 132, 5)" stroke-opacity="1.0" stroke-linecap="round" stroke-linejoin="round"/>
    <path d="M 59.86481857299805 19.591482162475586 C 53.994319915771484 19.32367706298828 51.81593704223633 20.214149475097656 48.64645004272461 21.32369041442871" stroke-width="1.4806419610977173" fill="none" stroke="rgb(78, 241, 58)" stroke-opacity="1.0" stroke-linecap="round" stroke-linejoin="round"/>
    <path d="M 57.33652114868164 18.28650665283203 C 53.99100875854492 17.919923782348633 51.40830993652344 15.125455856323242 50.87155532836914 11.417204856872559" stroke-width="1.2010585069656372" fill="none" stroke="rgb(24, 133, 26)" stroke-opacity="0.9772706" stroke-linecap="round" stroke-linejoin="round"/>
    <path d="M 59.58696365356445 16.00084686279297 C 56.4063606262207 9.124329566955566 52.434749603271484 12.545467376708984 51.92143630981445 13.031533241271973" stroke-width="1.1892671585083008" fill="none" stroke="rgb(29, 132, 28)" stroke-opacity="0.9573601" stroke-linecap="round" stroke-linejoin="round"/>
    <path d="M 59.34727478027344 17.8551082611084 C 57.193050384521484 12.479419708251953 54.072242736816406 12.407980918884277 52.770015716552734 12.156558990478516" stroke-width="1.1892671585083008" fill="none" stroke="rgb(77, 230, 55)" stroke-opacity="0.996836" stroke-linecap="round" stroke-linejoin="round"/>
    <path d="M 73.99213409423828 15.153361320495605 C 71.38797760009766 16.98987579345703 67.00879669189453 18.512298583984375 64.2302017211914 16.86530113220215" stroke-width="1.1892671585083008" fill="none" stroke="rgb(32, 133, 20)" stroke-opacity="0.94580287" stroke-linecap="round" stroke-linejoin="round"/>
    <path d="M 71.30242156982422 15.087278366088867 C 63.92866134643555 10.67025089263916 62.93648910522461 15.099209785461426 64.4087142944336 15.596843719482422" stroke-width="1.3133224248886108" fill="none" stroke="rgb(21, 132, 23)" stroke-opacity="0.99780405" stroke-linecap="round" stroke-linejoin="round"/>
    <path d="M 73.26493072509766 14.325788497924805 C 68.80095672607422 13.862863540649414 65.92266082763672 15.036131858825684 64.10743713378906 15.43889331817627" stroke-width="1.223438024520874" fill="none" stroke="rgb(84, 234, 52)" stroke-opacity="1.0" stroke-linecap="round" stroke-linejoin="round"/>
    <path d="M 73.54145812988281 12.134952545166016 C 71.64775848388672 11.017038345336914 67.97588348388672 8.849235534667969 67.03473663330078 7.174953460693359" stroke-width="1.1892671585083008" fill="none" stroke="rgb(26, 126, 12)" stroke-opacity="0.99369913" stroke-linecap="round" stroke-linejoin="round"/>
    <path d="M 72.546630859375 13.665079116821289 C 69.7632827758789 5.61348819732666 66.59860229492188 7.589430809020996 66.52851867675781 8.349355697631836" stroke-width="1.1928558349609375" fill="none" stroke="rgb(32, 129, 14)" stroke-opacity="0.9522106" stroke-linecap="round" stroke-linejoin="round"/>
    <path d="M 73.82034301757812 14.349658012390137 C 70.80265808105469 9.60391902923584 68.35700225830078 8.564376831054688 65.84314727783203 7.783601760864258" stroke-width="1.2229878902435303" fill="none" stroke="rgb(92, 228, 49)" stroke-opacity="0.9843561" stroke-linecap="round" stroke-linejoin="round"/>
    <path d="M 91.11222076416016 50.14670944213867 C 90.67232513427734 53.009769439697266 91.55050659179688 57.11711502075195 93.5731430053711 59.78479766845703" stroke-width="1.6452946662902832" fill="none" stroke="rgb(18, 130, 21)" stroke-opacity="1.0" stroke-linecap="round" stroke-linejoin="round"/>
    <path d="M 90.7048110961914 50.598636627197266 C 96.8127670288086 54.796268463134766 93.34519958496094 57.67271041870117 92.7441635131836 59.07686233520508" stroke-width="1.2064417600631714" fill="none" stroke="rgb(19, 132, 28)" stroke-opacity="0.98593926" stroke-linecap="round" stroke-linejoin="round"/>
    <path d="M 89.4557876586914 48.53459167480469 C 91.87987518310547 54.335811614990234 91.787353515625 57.515506744384766 92.32984161376953 58.98141860961914" stroke-width="1.1892671585083008" fill="none" stroke="rgb(76, 229, 62)" stroke-opacity="0.9701208" stroke-linecap="round" stroke-linejoin="round"/>
    <path d="M 91.25186157226562 49.636146545410156 C 91.65718078613281 52.82123565673828 95.3624267578125 54.58137893676758 99.73917388916016 52.46221160888672" stroke-width="1.1892671585083008" fill="none" stroke="rgb(31, 139, 29)" stroke-opacity="0.952712" stroke-linecap="round" stroke-linejoin="round"/>
    <path d="M 91.7469253540039 49.86504364013672 C 97.32152557373047 47.53078842163086 98.0947265625 53.78330993652344 97.79258728027344 54.16373062133789" stroke-width="1.1892671585083008" fill="none" stroke="rgb(22, 135, 26)" stroke-opacity="0.9906901" stroke-linecap="round" stroke-linejoin="round"/>
    <path d="M 89.79297637939453 48.717681884765625 C 96.35803985595703 48.502288818359375 98.10366821289062 50.094058990478516 99.79740905761719 52.5806884765625" stroke-width="1.1892671585083008" fill="none" stroke="rgb(93, 240, 63)" stroke-opacity="0.9540929" stroke-linecap="round" stroke-linejoin="round"/>
    <path d="M 85.40917205810547 21.273033142089844 C 85.0676498413086 24.59510612487793 86.49266815185547 28.340044021606445 89.42424011230469 29.005037307739258" stroke-width="1.5323890447616577" fill="none" stroke="rgb(18, 119, 14)" stroke-opacity="1.0" stroke-linecap="round" stroke-linejoin="round"/>
    <path d="M 85.03324890136719 22.19070816040039 C 91.41781616210938 27.247295379638672 89.569091796875 31.189882278442383 90.27049255371094 30.290332794189453" stroke-width="1.309287428855896" fill="none" stroke="rgb(20, 123, 1)" stroke-opacity="1.0" stroke-linecap="round" stroke-linejoin="round"/>
    <path d="M 84.50446319580078 20.82947540283203 C 88.4136734008789 24.602035522460938 89.56151580810547 26.87252426147461 89.75688171386719 28.8844051361084" stroke-width="1.1892671585083008" fill="none" stroke="rgb(78, 235, 38)" stroke-opacity="1.0" stroke-linecap="round" stroke-linejoin="round"/>
    <path d="M 88.09606170654297 17.980548858642578 C 89.82039642333984 21.918588638305664 92.17108154296875 24.51120948791504 94.89775085449219 23.103837966918945" stroke-width="1.209385633468628" fill="none" stroke="rgb(33, 142, 20)" stroke-opacity="0.9699426" stroke-linecap="round" stroke-linejoin="round"/>
    <path d="M 87.35005950927734 18.58843421936035 C 95.24800872802734 17.836790084838867 95.99937438964844 22.460865020751953 95.70803833007812 21.833885192871094" stroke-width="1.2786554098129272" fill="none" stroke="rgb(22, 131, 18)" stroke-opacity="0.9926463" stroke-linecap="round" stroke-linejoin="round"/>
    <path d="M 85.80867004394531 20.360816955566406 C 91.61248016357422 19.942453384399414 92.68061828613281 21.177196502685547 94.14986419677734 23.907508850097656" stroke-width="1.1892671585083008" fill="none" stroke="rgb(85, 243, 58)" stroke-opacity="0.9526801" stroke-linecap="round" stroke-linejoin="round"/>
    <path d="M 75.37946319580078 30.013051986694336 C 74.5655517578125 33.08934783935547 73.02462768554688 36.468177795410156 74.79670715332031 38.15788269042969" stroke-width="1.2942957878112793" fill="none" stroke="rgb(21, 140, 16)" stroke-opacity="0.9948723" stroke-linecap="round" stroke-linejoin="round"/>
    <path d="M 74.43000793457031 29.689096450805664 C 77.2497787475586 38.25563430786133 73.96100616455078 40.212520599365234 74.35601043701172 37.98646545410156" stroke-width="1.3545259237289429" fill="none" stroke="rgb(30, 142, 13)" stroke-opacity="0.9707788" stroke-linecap="round" stroke-linejoin="round"/>
    <path d="M 76.22228240966797 29.913516998291016 C 76.4763412475586 34.906681060791016 74.20279693603516 36.236270904541016 72.39263153076172 37.942962646484375" stroke-width="1.424028992652893" fill="none" stroke="rgb(76, 243, 56)" stroke-opacity="0.98621243" stroke-linecap="round" stroke-linejoin="round"/>
    <path d="M 78.1717758178711 27.67586898803711 C 78.43450927734375 31.43590545654297 80.41556549072266 35.192893981933594 81.70182037353516 36.92862319946289" stroke-width="1.195338487625122" fill="none" stroke="rgb(29, 138, 22)" stroke-opacity="0.96226835" stroke-linecap="round" stroke-linejoin="round"/>
    <path d="M 76.34605407714844 29.483091354370117 C 82.6742172241211 33.42653274536133 80.86527252197266 37.953277587890625 80.64065551757812 36.464298248291016" stroke-width="1.1892671585083008" fill="none" stroke="rgb(15, 141, 27)" stroke-opacity="0.95552504" stroke-linecap="round" stroke-linejoin="round"/>
    <path d="M 74.41156005859375 29.51756477355957 C 80.98271942138672 31.144180297851562 82.0043716430664 32.992855072021484 80.50477600097656 36.88092041015625" stroke-width="1.4835453033447266" fill="none" stroke="rgb(80, 241, 57)" stroke-opacity="1.0" stroke-linecap="round" stroke-linejoin="round"/>
    <path d="M 86.1087417602539 38.96720886230469 C 85.15058898925781 36.47425079345703 84.65022277832031 32.33481216430664 85.64710235595703 31.40528678894043" stroke-width="1.2369669675827026" fill="none" stroke="rgb(26, 130, 3)" stroke-opacity="1.0" stroke-linecap="round" stroke-linejoin="round"/>
    <path d="M 86.39776611328125 41.48094940185547 C 91.54745483398438 35.257442474365234 86.14685821533203 31.940366744995117 85.92208862304688 31.900409698486328" stroke-width="1.1892671585083008" fill="none" stroke="rgb(31, 139, 22)" stroke-opacity="0.9618418" stroke-linecap="round" stroke-linejoin="round"/>
    <path d="M 84.24800109863281 41.888633728027344 C 86.57401275634766 36.24227523803711 86.80354309082031 33.53221893310547 86.41537475585938 32.016048431396484" stroke-width="1.1892671585083008" fill="none" stroke="rgb(78, 240, 56)" stroke-opacity="0.9845621" stroke-linecap="round" stroke-linejoin="round"/>
    <path d="M 84.08137512207031 40.59287643432617 C 87.45030212402344 38.968971252441406 91.88194274902344 37.456695556640625 93.92840576171875 36.78085708618164" stroke-width="1.1892671585083008" fill="none" stroke="rgb(37, 139, 27)" stroke-opacity="0.9597144" stroke-linecap="round" stroke-linejoin="round"/>
    <path d="M 86.72286987304688 42.703125 C 93.07173919677734 43.043922424316406 92.95548248291016 36.74586868286133 93.86381530761719 35.81577682495117" stroke-width="1.2997361421585083" fill="none" stroke="rgb(21, 133, 4)" stroke-opacity="0.9966427" stroke-linecap="round" stroke-linejoin="round"/>
    <path d="M 82.9783935546875 40.59550476074219 C 88.48910522460938 38.97294235229492 90.58973693847656 37.46806716918945 92.10162353515625 35.72146224975586" stroke-width="1.2186485528945923" fill="none" stroke="rgb(93, 241, 63)" stroke-opacity="0.9929027" stroke-linecap="round" stroke-linejoin="round"/>
    <path d="M 63.13093185424805 37.6580696105957 C 60.74557113647461 39.30120849609375 56.38936996459961 40.90584945678711 53.644954681396484 39.46544647216797" stroke-width="1.5909993648529053" fill="none" stroke="rgb(16, 124, 0)" stroke-opacity="1.0" stroke-linecap="round" stroke-linejoin="round"/>
    <path d="M 61.51409149169922 35.05093002319336 C 53.526344299316406 32.65442657470703 52.11848068237305 37.33720779418945 54.28937530517578 37.53150177001953" stroke-width="1.3088905811309814" fill="none" stroke="rgb(14, 141, 19)" stroke-opacity="0.9911072" stroke-linecap="round" stroke-linejoin="round"/>
    <path d="M 64.13335418701172 36.40780258178711 C 58.86843490600586 37.3639030456543 55.02753448486328 37.47748947143555 53.5327033996582 37.094844818115234" stroke-width="1.3919460773468018" fill="none" stroke="rgb(80, 243, 56)" stroke-opacity="0.9680339" stroke-linecap="round" stroke-linejoin="round"/>
    <path d="M 61.88890838623047 35.46895217895508 C 58.93817138671875 35.89752197265625 55.742042541503906 33.31968688964844 56.64860153198242 30.605344772338867" stroke-width="1.7047555446624756" fill="none" stroke="rgb(23, 132, 11)" stroke-opacity="0.99515617" stroke-linecap="round" stroke-linejoin="round"/>
    <path d="M 62.774505615234375 34.79802703857422 C 59.56502914428711 27.536407470703125 55.247337341308594 29.09785270690918 55.05693435668945 28.412450790405273" stroke-width="1.1892671585083008" fill="none" stroke="rgb(29, 129, 18)" stroke-opacity="0.9818744" stroke-linecap="round" stroke-linejoin="round"/>
    <path d="M 63.381011962890625 35.99382400512695 C 59.69684982299805 30.831836700439453 58.673892974853516 28.521747589111328 56.160484313964844 28.965824127197266" stroke-width="1.35367751121521" fill="none" stroke="rgb(81, 241, 51)" stroke-opacity="0.99337524" stroke-linecap="round" stroke-linejoin="round"/>
    <path d="M 46.54065704345703 83.22398376464844 C 68.36756134033203 91.68605041503906 87.60102844238281 87.61687469482422 90.57664489746094 85.07915496826172" stroke-width="1.6890908479690552" fill="none" stroke="rgb(229, 55, 38)" stroke-opacity="1.0" stroke-linecap="round" stroke-linejoin="round"/>
    <path d="M 53.87129592895508 120.75086212158203 C 55.44527053833008 121.3294906616211 55.28117370605469 121.20011138916016 54.08953857421875 120.10861206054688 C 53.16921615600586 120.6609115600586 52.537174224853516 121.59331512451172 51.186058044433594 122.37083435058594 C 49.25767135620117 121.79560852050781 47.8404655456543 119.63018035888672 48.09364700317383 115.8437271118164 C 47.11622619628906 113.9360122680664 44.88152313232422 113.0306625366211 42.54399871826172 112.82681274414062 C 42.33373260498047 111.88890075683594 42.31401443481445 108.15900421142578 41.87702560424805 108.5026626586914 C 40.988521575927734 105.09761810302734 41.14992904663086 99.52494049072266 40.08287048339844 97.81513977050781 C 39.62873840332031 96.16212463378906 39.36820983886719 89.7023696899414 38.14470291137695 86.57962036132812 C 38.214569091796875 85.71603393554688 40.401695251464844 85.54975128173828 42.38763427734375 85.56018829345703 C 42.4353141784668 84.03598022460938 42.2848014831543 82.80371856689453 43.410770416259766 83.05365753173828 C 43.97951889038086 83.82352447509766 44.204322814941406 84.00672912597656 44.28934097290039 82.5829086303711 C 45.179569244384766 82.62300872802734 46.435264587402344 82.67493438720703 48.77577209472656 83.55597686767578 C 51.815582275390625 84.53823852539062 56.141624450683594 82.90145874023438 57.59722900390625 84.16352844238281" stroke-width="1.2933450937271118" fill="none" stroke="rgb(15, 33, 13)" stroke-opacity="0.96773565" stroke-linecap="round" stroke-linejoin="round"/>
    <path d="M 48.45813751220703 7.259448051452637 C 48.7426643371582 7.059902191162109 47.73822784423828 7.579131126403809 47.246639251708984 7.460445880889893 C 47.52006149291992 9.850664138793945 46.946632385253906 12.933854103088379 47.11006164550781 15.269700050354004 C 48.183189392089844 23.271467208862305 47.97613525390625 31.00098991394043 46.498207092285156 38.80186462402344 C 45.82603073120117 40.659908294677734 45.7158088684082 46.54838180541992 46.16786193847656 49.14399337768555 C 46.72556686401367 57.22969055175781 49.430110931396484 64.15878295898438 51.50859832763672 70.651123046875 C 50.68832015991211 80.08345794677734 52.332725524902344 87.34488677978516 51.62710189819336 96.51898956298828" stroke-width="1.2350443601608276" fill="none" stroke="rgb(19, 35, 23)" stroke-opacity="0.9622465" stroke-linecap="round" stroke-linejoin="round"/>
    <path d="M 46.35214614868164 15.100909233093262 C 43.173885345458984 18.670753479003906 47.044227600097656 21.392559051513672 44.47917175292969 20.402523040771484" stroke-width="1.1892671585083008" fill="none" stroke="rgb(180, 143, 222)" stroke-opacity="0.6720936" stroke-linecap="round" stroke-linejoin="round"/>
    <path d="M 72.67271423339844 39.642852783203125 C 67.14046478271484 38.1412467956543 70.2352294921875 37.743614196777344 74.50990295410156 32.74836730957031" stroke-width="1.1892671585083008" fill="none" stroke="rgb(232, 230, 69)" stroke-opacity="0.14043272" stroke-linecap="round" stroke-linejoin="round"/>
    <path d="M 70.85151672363281 32.22312545776367 C 64.14591979980469 32.87717056274414 70.81159973144531 33.26942443847656 76.01945495605469 27.406797409057617" stroke-width="1.1892671585083008" fill="none" stroke="rgb(86, 114, 168)" stroke-opacity="0.1680771" stroke-linecap="round" stroke-linejoin="round"/>
    <path d="M 51.20243835449219 41.339420318603516 C 45.63804244995117 46.210147857666016 40.9738655090332 51.794517517089844 37.22671890258789 53.93022155761719 C 34.36509704589844 51.66563034057617 30.81005096435547 48.40153121948242 26.61966896057129 54.20028305053711" stroke-width="1.491386890411377" fill="none" stroke="rgb(53, 228, 237)" stroke-opacity="0.45023617" stroke-linecap="round" stroke-linejoin="round"/>
    <path d="M 80.66171264648438 18.584983825683594 C 75.02767181396484 14.060935020446777 73.71063995361328 14.110734939575195 67.20481872558594 16.77509117126465 C 64.37437438964844 20.27574920654297 62.33021545410156 18.421504974365234 57.28296661376953 23.290342330932617" stroke-width="1.2446166276931763" fill="none" stroke="rgb(209, 96, 52)" stroke-opacity="0.14985208" stroke-linecap="round" stroke-linejoin="round"/>
    <path d="M 66.42156219482422 58.36086654663086 C 71.67988586425781 51.232887268066406 76.75636291503906 44.8236083984375 81.45977783203125 42.843177795410156" stroke-width="1.6790834665298462" fill="none" stroke="rgb(240, 26, 66)" stroke-opacity="0.06560634" stroke-linecap="round" stroke-linejoin="round"/>
    <path d="M 49.65415954589844 19.944377899169922 C 47.1037712097168 14.287945747375488 54.390621185302734 13.383456230163574 53.44113540649414 7.247744560241699 C 53.45964431762695 5.790928840637207 61.52452087402344 6.611545562744141 65.50089263916016 3.900641918182373 C 69.00809478759766 8.86695671081543 72.95040130615234 11.66422176361084 70.12277221679688 13.575974464416504" stroke-width="1.3431540727615356" fill="none" stroke="rgb(205, 224, 43)" stroke-opacity="0.27122813" stroke-linecap="round" stroke-linejoin="round"/>
    <path d="M 53.51395797729492 24.8526668548584 C 49.76906204223633 27.391592025756836 50.45972442626953 23.97493553161621 51.98789596557617 28.646198272705078 C 45.857269287109375 29.279909133911133 45.436256408691406 25.492000579833984 48.30864334106445 33.683837890625 C 45.601806640625 39.28402328491211 46.89547348022461 45.95027160644531 42.96704864501953 45.95111083984375" stroke-width="1.8707267045974731" fill="none" stroke="rgb(40, 222, 73)" stroke-opacity="0.7028009" stroke-linecap="round" stroke-linejoin="round"/>
    <path d="M 81.0955581665039 42.65303421020508 C 85.09451293945312 40.86739730834961 81.28648376464844 40.777099609375 81.0003433227539 36.824974060058594 C 89.34667205810547 31.57848358154297 88.53400421142578 27.83238410949707 89.0807876586914 20.756990432739258" stroke-width="1.1892671585083008" fill="none" stroke="rgb(71, 196, 24)" stroke-opacity="0.4884779" stroke-linecap="round" stroke-linejoin="round"/>
    <path d="M 81.5509033203125 43.30910873413086 C 75.23772430419922 42.22499465942383 71.56356048583984 47.83012771606445 68.89791107177734 41.647274017333984" stroke-width="1.3964146375656128" fill="none" stroke="rgb(164, 26, 153)" stroke-opacity="0.28195068" stroke-linecap="round" stroke-linejoin="round"/>
    <path d="M 81.65167236328125 43.31866455078125 C 76.79141998291016 47.757450103759766 77.0425796508789 50.15781021118164 70.30575561523438 44.082401275634766" stroke-width="1.1892671585083008" fill="none" stroke="rgb(116, 110, 150)" stroke-opacity="0.17113093" stroke-linecap="round" stroke-linejoin="round"/>
    <path d="M 44.496368408203125 20.153133392333984 C 52.918792724609375 16.172414779663086 55.854705810546875 15.901389122009277 57.094268798828125 17.018842697143555" stroke-width="1.5858594179153442" fill="none" stroke="rgb(156, 248, 168)" stroke-opacity="0.37329006" stroke-linecap="round" stroke-linejoin="round"/>
    <path d="M 76.6872787475586 26.404468536376953 C 81.22364807128906 28.620786666870117 79.8349380493164 27.541231155395508 73.06903839111328 24.17671775817871" stroke-width="1.4507540464401245" fill="none" stroke="rgb(234, 246, 73)" stroke-opacity="0.015743624" stroke-linecap="round" stroke-linejoin="round"/>
    <path d="M 59.57019805908203 24.995603561401367 C 52.30339050292969 30.206228256225586 49.41228485107422 28.51311492919922 47.12892532348633 29.276487350463867 C 43.30729293823242 30.6928768157959 44.883819580078125 31.502805709838867 41.70689010620117 28.66325569152832" stroke-width="1.6845051050186157" fill="none" stroke="rgb(233, 38, 175)" stroke-opacity="0.95756614" stroke-linecap="round" stroke-linejoin="round"/>
    <path d="M 56.99971008300781 24.004343032836914 C 54.62052536010742 20.293331146240234 50.54799270629883 23.100496292114258 46.29786682128906 23.017351150512695 C 45.94160842895508 19.835031509399414 45.8320198059082 21.971372604370117 41.354827880859375 28.512170791625977 C 36.24198532104492 21.87110710144043 39.30415344238281 23.93454360961914 39.57316589355469 24.496004104614258" stroke-width="1.1892671585083008" fill="none" stroke="rgb(58, 36, 143)" stroke-opacity="0.5730524" stroke-linecap="round" stroke-linejoin="round"/>
    <path d="M 44.62471008300781 20.402542114257812 C 44.41901779174805 15.422293663024902 45.70211410522461 14.136428833007812 51.644535064697266 20.684804916381836 C 46.43994140625 24.686046600341797 50.50898361206055 30.418703079223633 57.0327033996582 24.738712310791016 C 53.86840057373047 19.02840232849121 50.01380157470703 26.009925842285156 49.54750061035156 30.046142578125" stroke-width="1.215741515159607" fill="none" stroke="rgb(184, 105, 86)" stroke-opacity="0.056653764" stroke-linecap="round" stroke-linejoin="round"/>
    <path d="M 92.93801879882812 91.65685272216797 C 87.21086883544922 92.60588073730469 85.4924545288086 90.26021575927734 88.72587585449219 89.72991180419922 C 87.04290008544922 94.0185317993164 81.6399154663086 98.0057373046875 79.2655258178711 96.12586975097656 C 79.6721420288086 101.10517883300781 80.6215591430664 106.01244354248047 83.91824340820312 102.52654266357422" stroke-width="1.1892671585083008" fill="none" stroke="rgb(244, 97, 103)" stroke-opacity="0.39773712" stroke-linecap="round" stroke-linejoin="round"/>
    <path d="M 62.78141403198242 45.8226318359375 C 64.39447784423828 44.66908264160156 70.10820770263672 39.29663848876953 71.54963684082031 41.95368194580078" stroke-width="1.3741720914840698" fill="none" stroke="rgb(255, 196, 75)" stroke-opacity="0.57441586" stroke-linecap="round" stroke-linejoin="round"/>
    <path d="M 88.33374786376953 43.543304443359375 C 86.357421875 47.435699462890625 86.78308868408203 53.78766632080078 87.63085174560547 59.32683181762695" stroke-width="1.8227550983428955" fill="none" stroke="rgb(148, 19, 98)" stroke-opacity="0.89438665" stroke-linecap="round" stroke-linejoin="round"/>
    <path d="M 95.87066650390625 26.173324584960938 C 94.5853500366211 28.761573791503906 94.89094543457031 25.382740020751953 89.69294738769531 30.235950469970703 C 97.41834259033203 29.156448364257812 93.45353698730469 35.77036666870117 94.4595947265625 28.102153778076172" stroke-width="1.236423373222351" fill="none" stroke="rgb(106, 80, 182)" stroke-opacity="0.88866967" stroke-linecap="round" stroke-linejoin="round"/>
    <path d="M 75.33805847167969 77.6857681274414 C 81.20682525634766 73.5199203491211 86.7249755859375 80.81991577148438 85.42402648925781 81.63932037353516" stroke-width="1.453317403793335" fill="none" stroke="rgb(240, 203, 206)" stroke-opacity="0.2631889" stroke-linecap="round" stroke-linejoin="round"/>
    <path d="M 38.429569244384766 52.63804626464844 C 42.91469192504883 53.81583023071289 38.375144958496094 48.402645111083984 34.87765121459961 44.026371002197266 C 38.151763916015625 46.55720901489258 42.6610107421875 52.63922119140625 40.5352783203125 56.76515579223633" stroke-width="1.1892671585083008" fill="none" stroke="rgb(153, 204, 36)" stroke-opacity="0.7331648" stroke-linecap="round" stroke-linejoin="round"/>
    <path d="M 86.12130737304688 73.04348754882812 C 80.20270538330078 76.0116195678711 76.30523681640625 80.79954528808594 75.80888366699219 83.82771301269531 C 83.34422302246094 84.01734161376953 89.51620483398438 84.39962005615234 93.32511138916016 82.86394500732422" stroke-width="1.859395980834961" fill="none" stroke="rgb(255, 131, 153)" stroke-opacity="0.5107238" stroke-linecap="round" stroke-linejoin="round"/>
    <path d="M 83.16824340820312 11.918842315673828 C 73.50276184082031 13.935182571411133 69.97039031982422 12.178274154663086 71.40959167480469 10.303483009338379 C 75.10591888427734 13.856239318847656 71.36370086669922 11.923816680908203 78.0035629272461 11.549635887145996 C 75.07917022705078 5.756647109985352 76.74574279785156 10.37916088104248 74.04113006591797 14.06972885131836" stroke-width="1.810462474822998" fill="none" stroke="rgb(14, 52, 255)" stroke-opacity="0.7039212" stroke-linecap="round" stroke-linejoin="round"/>
    <path d="M 17.1412296295166 43.388946533203125 C 12.584781646728516 40.75496292114258 9.06980037689209 44.62716293334961 1.61344575881958 47.84060287475586" stroke-width="1.288292646408081" fill="none" stroke="rgb(253, 17, 250)" stroke-opacity="0.6896795" stroke-linecap="round" stroke-linejoin="round"/>
    <path d="M 87.45056915283203 73.67557525634766 C 90.85608673095703 70.73827362060547 97.83661651611328 67.38545227050781 102.0286636352539 63.306129455566406" stroke-width="1.1892671585083008" fill="none" stroke="rgb(92, 85, 176)" stroke-opacity="0.10673688" stroke-linecap="round" stroke-linejoin="round"/>
    <path d="M 97.69820404052734 24.940353393554688 C 104.78910827636719 28.42615509033203 108.6107406616211 22.038644790649414 113.81581115722656 15.850454330444336" stroke-width="1.1892671585083008" fill="none" stroke="rgb(174, 246, 94)" stroke-opacity="0.123121224" stroke-linecap="round" stroke-linejoin="round"/>
    <path d="M 126.62183380126953 73.81101989746094 C 127.8493881225586 72.13078308105469 127.08377075195312 67.13270568847656 127.08982849121094 74.32672119140625 C 130.70584106445312 71.64804077148438 127.89191436767578 71.38102722167969 131.52857971191406 64.49433898925781" stroke-width="1.1892671585083008" fill="none" stroke="rgb(157, 25, 56)" stroke-opacity="0.7251516" stroke-linecap="round" stroke-linejoin="round"/>
    <path d="M 19.30845832824707 94.26911163330078 C 16.72359275817871 92.90568542480469 23.215805053710938 99.19630432128906 20.05905532836914 97.35173034667969 C 22.526823043823242 96.79367065429688 20.156044006347656 95.30331420898438 21.204858779907227 97.23628997802734 C 19.72701644897461 92.49996185302734 24.6622314453125 88.43000793457031 30.058395385742188 92.44365692138672" stroke-width="1.1892671585083008" fill="none" stroke="rgb(206, 16, 21)" stroke-opacity="0.47521743" stroke-linecap="round" stroke-linejoin="round"/>
    <path d="M 39.36180114746094 72.3326644897461 C 39.867340087890625 70.7063980102539 33.39326858520508 75.86604309082031 32.258331298828125 71.34754943847656 C 35.79487228393555 66.24091339111328 31.767807006835938 66.13970184326172 26.314006805419922 63.289146423339844 C 21.216909408569336 64.0631103515625 25.87602996826172 59.42451095581055 25.334444046020508 55.8697395324707" stroke-width="1.461889624595642" fill="none" stroke="rgb(15, 65, 255)" stroke-opacity="0.5398106" stroke-linecap="round" stroke-linejoin="round"/>
    <path d="M 119.83858489990234 103.72618865966797 C 124.91354370117188 99.1347427368164 127.52924346923828 101.66242980957031 121.7647933959961 102.315673828125" stroke-width="1.1892671585083008" fill="none" stroke="rgb(51, 145, 81)" stroke-opacity="0.6042688" stroke-linecap="round" stroke-linejoin="round"/>
    <path d="M 70.35403442382812 56.18549346923828 C 68.75801086425781 62.28819274902344 71.89672088623047 62.710994720458984 70.1071548461914 66.51529693603516 C 65.40280151367188 60.99433517456055 62.06269836425781 54.32715606689453 68.80193328857422 51.9499626159668 C 65.73650360107422 49.62753677368164 63.04194641113281 49.949092864990234 67.95027160644531 55.84144592285156" stroke-width="1.8530141115188599" fill="none" stroke="rgb(248, 62, 84)" stroke-opacity="0.27472004" stroke-linecap="round" stroke-linejoin="round"/>
  </g>
</svg>
