<?xml version="1.0" ?>
<svg xmlns="http://www.w3.org/2000/svg" version="1.1" width="925.0" height="925.0">
  <defs/>
  <g>
    <path d="M 445.9349670410156 310.1658935546875 C 438.61102294921875 318.57330322265625 435.0936584472656 321.8806457519531 427.77166748046875 324.86029052734375 C 431.26922607421875 325.3980712890625 432.1255187988281 324.66925048828125 432.6687316894531 324.2418212890625 C 418.1766662597656 323.16815185546875 394.89703369140625 325.03985595703125 392.4263610839844 324.19183349609375 C 370.887451171875 318.9348449707031 367.103759765625 324.6427001953125 342.0668640136719 315.1217346191406 C 335.5555114746094 305.43072509765625 334.6363525390625 273.3598937988281 333.5245666503906 260.3984680175781 C 331.62420654296875 234.57516479492188 369.50384521484375 224.32318115234375 397.5062561035156 234.80160522460938 C 429.79156494140625 223.0988311767578 490.032470703125 201.43624877929688 516.86328125 220.25430297851562 C 512.78466796875 220.29539489746094 511.75299072265625 235.9547119140625 521.7274169921875 241.8370361328125 C 512.6569213867188 254.38824462890625 512.5706787109375 265.7391357421875 507.97760009765625 265.50555419921875 C 505.0803527832031 280.0717468261719 490.84814453125 305.6952819824219 486.09539794921875 321.9172668457031 C 470.1063232421875 341.5113525390625 462.6995544433594 379.65838623046875 459.31695556640625 414.7616271972656 C 413.69659423828125 424.50103759765625 353.1658630371094 428.68402099609375 315.4540710449219 434.579833984375 C 301.9807434082031 444.8961181640625 257.69329833984375 448.6443176269531 237.67445373535156 445.11602783203125 C 212.4016876220703 435.1059875488281 208.35792541503906 402.8542785644531 204.65902709960938 365.3160400390625 C 198.83265686035156 366.90057373046875 184.7836151123047 339.7355041503906 186.99606323242188 333.9571838378906 C 190.43511962890625 335.8713073730469 194.7047576904297 335.546875 200.9247283935547 335.0903625488281" stroke-width="8.258928298950195" fill="none" stroke="rgb(34, 36, 10)" stroke-opacity="0.9420674" stroke-linecap="round" stroke-linejoin="round"/>
    <path d="M 205.2823028564453 335.74188232421875 C 229.5940399169922 327.08172607421875 200.44894409179688 281.93609619140625 179.90380859375 315.8252258300781" stroke-width="9.358565330505371" fill="none" stroke="rgb(16, 157, 164)" stroke-opacity="0.61149883" stroke-linecap="round" stroke-linejoin="round"/>
    <path d="M 493.23095703125 322.30828857421875 C 519.3115234375 331.0833740234375 493.0851135253906 355.433349609375 508.3544616699219 405.86383056640625 C 526.22900390625 396.4220275878906 550.0363159179688 433.70196533203125 526.2069091796875 406.8763122558594" stroke-width="11.47066879272461" fill="none" stroke="rgb(55, 106, 174)" stroke-opacity="0.9918926" stroke-linecap="round" stroke-linejoin="round"/>
    <path d="M 403.33404541015625 235.797607421875 C 427.1283264160156 232.58668518066406 407.543701171875 194.0748748779297 368.5356140136719 173.55885314941406" stroke-width="8.258928298950195" fill="none" stroke="rgb(229, 142, 42)" stroke-opacity="0.93522245" stroke-linecap="round" stroke-linejoin="round"/>
    <path d="M 243.12269592285156 445.1036071777344 C 244.91404724121094 387.8817443847656 251.49038696289062 411.5617370605469 298.7032775878906 404.06170654296875" stroke-width="9.5318021774292" fill="none" stroke="rgb(146, 208, 36)" stroke-opacity="0.7626934" stroke-linecap="round" stroke-linejoin="round"/>
    <path d="M 191.40704345703125 376.5254821777344 C 169.44322204589844 371.3853454589844 164.47732543945312 346.2343444824219 129.50942993164062 339.106689453125 C 136.7828369140625 386.4514465332031 120.97959899902344 399.9082946777344 103.70274353027344 345.8952331542969 C 96.56903076171875 303.4864196777344 98.54167175292969 290.6202392578125 74.65306091308594 248.1291961669922" stroke-width="8.323138236999512" fill="none" stroke="rgb(90, 65, 236)" stroke-opacity="0.45032024" stroke-linecap="round" stroke-linejoin="round"/>
    <path d="M 348.06927490234375 302.33819580078125 C 370.6546936035156 347.9075012207031 411.5755615234375 373.2792663574219 458.1529846191406 365.6416015625 C 478.2767028808594 349.6562194824219 520.5069580078125 390.56378173828125 524.02392578125 355.9897766113281 C 529.364990234375 359.3260192871094 505.49859619140625 377.81488037109375 492.45135498046875 326.41717529296875" stroke-width="12.516057014465332" fill="none" stroke="rgb(255, 93, 134)" stroke-opacity="0.31704786" stroke-linecap="round" stroke-linejoin="round"/>
    <path d="M 430.2734680175781 334.1002502441406 C 396.80023193359375 349.00238037109375 383.15533447265625 345.2071533203125 375.9830322265625 378.66607666015625 C 392.6064453125 366.8181457519531 420.6833190917969 364.0939636230469 424.0631103515625 369.2642517089844 C 413.8974609375 358.52899169921875 447.6098937988281 401.57586669921875 417.15478515625 390.8046875" stroke-width="8.848006248474121" fill="none" stroke="rgb(12, 228, 46)" stroke-opacity="0.65680367" stroke-linecap="round" stroke-linejoin="round"/>
    <path d="M 378.6573181152344 333.58209228515625 C 423.0923767089844 368.27691650390625 452.1812438964844 350.2419128417969 438.7718811035156 354.4721374511719" stroke-width="8.258928298950195" fill="none" stroke="rgb(56, 193, 38)" stroke-opacity="0.6392841" stroke-linecap="round" stroke-linejoin="round"/>
    <path d="M 66.11009216308594 247.30224609375 C 35.82893371582031 296.0206604003906 25.995620727539062 322.6819152832031 70.5030746459961 339.7448425292969 C 75.4007339477539 292.1601867675781 44.7220344543457 262.29241943359375 55.14728927612305 284.8469543457031 C 6.501673698425293 291.2803039550781 36.440399169921875 319.6413879394531 64.72697448730469 361.6622314453125" stroke-width="10.79817008972168" fill="none" stroke="rgb(95, 127, 0)" stroke-opacity="0.6242714" stroke-linecap="round" stroke-linejoin="round"/>
    <path d="M 417.5887451171875 384.25628662109375 C 375.8060302734375 394.3843994140625 363.5202331542969 389.50421142578125 387.6200866699219 365.830078125 C 355.9683532714844 353.0176086425781 343.28741455078125 324.8940734863281 359.2806701660156 348.2596435546875" stroke-width="9.444022178649902" fill="none" stroke="rgb(82, 85, 32)" stroke-opacity="0.9133907" stroke-linecap="round" stroke-linejoin="round"/>
    <path d="M 285.06549072265625 403.8743591308594 C 281.7477111816406 375.7366027832031 288.2650451660156 380.3035583496094 277.42803955078125 345.1672058105469 C 286.2807922363281 357.7201232910156 255.6430206298828 394.9732971191406 270.661376953125 355.45880126953125 C 242.63833618164062 324.2052307128906 259.9209289550781 329.9184265136719 225.7042694091797 281.9215087890625" stroke-width="12.017984390258789" fill="none" stroke="rgb(168, 148, 196)" stroke-opacity="0.6625832" stroke-linecap="round" stroke-linejoin="round"/>
    <path d="M 427.9230041503906 354.2311706542969 C 384.89947509765625 369.38409423828125 428.75274658203125 380.8306579589844 414.07550048828125 412.56011962890625 C 410.8499755859375 375.4079895019531 432.04339599609375 333.93218994140625 399.6885681152344 333.1959228515625 C 441.6859130859375 316.2843322753906 439.8297424316406 359.8883361816406 411.75531005859375 332.9114074707031" stroke-width="8.258928298950195" fill="none" stroke="rgb(239, 136, 60)" stroke-opacity="0.384694" stroke-linecap="round" stroke-linejoin="round"/>
    <path d="M 170.18592834472656 323.4021911621094 C 186.67039489746094 345.0706481933594 173.1328582763672 338.30255126953125 161.98538208007812 280.2513732910156" stroke-width="9.469080924987793" fill="none" stroke="rgb(4, 171, 218)" stroke-opacity="0.7263623" stroke-linecap="round" stroke-linejoin="round"/>
    <path d="M 527.0725708007812 410.4866943359375 C 506.93927001953125 401.0525817871094 525.5076904296875 385.2607727050781 507.09820556640625 416.5368347167969 C 457.23480224609375 429.7034606933594 501.5743713378906 378.0975036621094 520.0244750976562 381.75531005859375" stroke-width="8.560012817382812" fill="none" stroke="rgb(134, 152, 82)" stroke-opacity="0.7216705" stroke-linecap="round" stroke-linejoin="round"/>
    <path d="M 360.3638610839844 169.4949951171875 C 395.4510192871094 177.64498901367188 398.65289306640625 167.80117797851562 375.2939147949219 203.79591369628906" stroke-width="11.95803165435791" fill="none" stroke="rgb(206, 162, 255)" stroke-opacity="1.0" stroke-linecap="round" stroke-linejoin="round"/>
    <path d="M 418.76287841796875 393.8071594238281 C 384.3817138671875 363.0642395019531 341.13104248046875 346.4609680175781 318.1285400390625 346.7595520019531" stroke-width="12.271596908569336" fill="none" stroke="rgb(214, 45, 179)" stroke-opacity="0.084287256" stroke-linecap="round" stroke-linejoin="round"/>
    <path d="M 259.2483825683594 441.8557434082031 C 253.5977783203125 485.2198791503906 239.23545837402344 479.8601989746094 283.109619140625 475.26287841796875" stroke-width="10.989830017089844" fill="none" stroke="rgb(86, 0, 216)" stroke-opacity="0.8792387" stroke-linecap="round" stroke-linejoin="round"/>
    <path d="M 694.784912109375 542.5712890625 C 665.4757080078125 518.4730224609375 683.28955078125 499.44140625 686.93701171875 548.1470336914062 C 728.2904052734375 523.6954345703125 704.2877197265625 518.281005859375 690.49853515625 548.857421875" stroke-width="8.258928298950195" fill="none" stroke="rgb(172, 236, 151)" stroke-opacity="0.94205815" stroke-linecap="round" stroke-linejoin="round"/>
    <path d="M 356.19927978515625 791.8478393554688 C 369.9417419433594 759.02880859375 344.7779541015625 731.9493408203125 387.7785339355469 740.8709106445312 C 386.215087890625 794.419921875 342.5423583984375 755.578857421875 315.34112548828125 717.0725708007812 C 327.74078369140625 732.2617797851562 292.3489685058594 706.6818237304688 289.3396301269531 735.2393798828125" stroke-width="10.190668106079102" fill="none" stroke="rgb(180, 3, 200)" stroke-opacity="0.011431499" stroke-linecap="round" stroke-linejoin="round"/>
    <path d="M 874.0059204101562 114.91386413574219 C 886.3162231445312 159.1431884765625 888.0669555664062 183.06866455078125 904.7385864257812 143.73736572265625 C 874.0165405273438 125.52994537353516 834.4620971679688 82.77922821044922 871.2366333007812 92.72274017333984 C 907.1654663085938 130.19149780273438 884.0242919921875 105.92157745361328 886.1864624023438 48.33070755004883" stroke-width="8.258928298950195" fill="none" stroke="rgb(246, 100, 95)" stroke-opacity="0.48359165" stroke-linecap="round" stroke-linejoin="round"/>
    <path d="M 116.45037078857422 290.8299865722656 C 100.34233093261719 236.55433654785156 89.00836181640625 217.4580535888672 67.63118743896484 246.0513916015625" stroke-width="8.258928298950195" fill="none" stroke="rgb(53, 128, 36)" stroke-opacity="0.74708307" stroke-linecap="round" stroke-linejoin="round"/>
    <path d="M 292.99407958984375 261.3318786621094 C 272.975341796875 240.2687530517578 273.33758544921875 191.61041259765625 249.22164916992188 161.81483459472656 C 265.5331115722656 161.2777557373047 286.4187927246094 174.504638671875 306.99609375 141.74887084960938" stroke-width="8.258928298950195" fill="none" stroke="rgb(134, 31, 75)" stroke-opacity="0.83290076" stroke-linecap="round" stroke-linejoin="round"/>
    <path d="M 303.4337158203125 823.0843505859375 C 337.57501220703125 823.9874877929688 306.0333557128906 810.6617431640625 331.0950927734375 855.0463256835938" stroke-width="8.258928298950195" fill="none" stroke="rgb(87, 246, 9)" stroke-opacity="0.07590982" stroke-linecap="round" stroke-linejoin="round"/>
    <path d="M 781.0908813476562 307.19708251953125 C 788.3737182617188 290.62548828125 775.9613647460938 302.1587829589844 782.89892578125 284.7646789550781 C 774.0549926757812 259.89019775390625 816.2315063476562 245.20558166503906 824.4281005859375 274.8918762207031 C 832.8073120117188 237.47825622558594 806.4236450195312 276.2962341308594 799.4168090820312 328.502685546875" stroke-width="8.79345989227295" fill="none" stroke="rgb(79, 193, 166)" stroke-opacity="0.2685359" stroke-linecap="round" stroke-linejoin="round"/>
    <path d="M 613.9828491210938 2.164846658706665 C 622.9884643554688 40.935054779052734 614.75390625 49.917510986328125 626.1294555664062 93.66241455078125 C 606.8872680664062 136.8910675048828 644.3064575195312 112.95082092285156 661.8514404296875 139.71629333496094 C 680.1132202148438 145.8099365234375 675.9066772460938 131.2030487060547 684.8067626953125 151.03952026367188" stroke-width="8.258928298950195" fill="none" stroke="rgb(138, 97, 149)" stroke-opacity="0.93646085" stroke-linecap="round" stroke-linejoin="round"/>
    <path d="M 526.0756225585938 660.02001953125 C 522.723876953125 644.70556640625 523.271240234375 666.4764404296875 503.3555908203125 671.5715942382812" stroke-width="8.258928298950195" fill="none" stroke="rgb(79, 125, 108)" stroke-opacity="0.7808192" stroke-linecap="round" stroke-linejoin="round"/>
    <path d="M 835.7865600585938 796.29931640625 C 841.8905639648438 781.5940551757812 797.5636596679688 775.2274780273438 779.5155639648438 731.2052001953125 C 748.9386596679688 719.8336791992188 761.5740356445312 715.9030151367188 759.5072021484375 722.6181640625" stroke-width="8.258928298950195" fill="none" stroke="rgb(143, 46, 86)" stroke-opacity="0.28949928" stroke-linecap="round" stroke-linejoin="round"/>
    <path d="M 733.7600708007812 394.59332275390625 C 700.9940795898438 380.0467529296875 726.7365112304688 389.6892395019531 678.6558227539062 353.6587219238281" stroke-width="9.28879451751709" fill="none" stroke="rgb(34, 24, 149)" stroke-opacity="0.5763913" stroke-linecap="round" stroke-linejoin="round"/>
    <path d="M 74.7860336303711 160.2073211669922 C 90.09371185302734 112.60208129882812 78.01239776611328 75.99208068847656 76.32120513916016 131.83067321777344" stroke-width="11.611924171447754" fill="none" stroke="rgb(187, 210, 29)" stroke-opacity="0.25257763" stroke-linecap="round" stroke-linejoin="round"/>
    <path d="M 568.8153076171875 134.26100158691406 C 557.0858764648438 103.61833953857422 542.7579956054688 70.41291809082031 530.0535888671875 70.37776184082031 C 537.7304077148438 55.3962516784668 513.5413818359375 40.96268844604492 488.1634521484375 42.44403839111328" stroke-width="9.298905372619629" fill="none" stroke="rgb(52, 53, 255)" stroke-opacity="0.44165596" stroke-linecap="round" stroke-linejoin="round"/>
    <path d="M 723.778076171875 52.119468688964844 C 665.3090209960938 32.45088577270508 689.6177978515625 42.52149963378906 689.0293579101562 44.333900451660156 C 711.5228881835938 77.2758560180664 696.2314453125 116.34270477294922 711.5579223632812 114.51750946044922" stroke-width="8.258928298950195" fill="none" stroke="rgb(1, 102, 133)" stroke-opacity="0.79735595" stroke-linecap="round" stroke-linejoin="round"/>
    <path d="M 339.9607238769531 7.054621696472168 C 305.39581298828125 45.26384353637695 274.4915771484375 8.746686935424805 236.59262084960938 30.968040466308594 C 249.51454162597656 -12.679576873779297 285.34698486328125 -50.2364387512207 301.5999755859375 -9.20648193359375" stroke-width="8.258928298950195" fill="none" stroke="rgb(146, 224, 210)" stroke-opacity="0.6736814" stroke-linecap="round" stroke-linejoin="round"/>
  </g>
</svg>
