<?xml version="1.0" ?>
<svg xmlns="http://www.w3.org/2000/svg" version="1.1" width="925.0" height="925.0">
  <defs/>
  <g>
    <path d="M 106.4868392944336 107.20258331298828 C 110.6106948852539 136.9899444580078 109.90727233886719 150.64852905273438 111.18399810791016 169.8367156982422" stroke-width="5.934788227081299" fill="none" stroke="rgb(107, 107, 105)" stroke-opacity="0.997199" stroke-linecap="round" stroke-linejoin="round"/>
    <path d="M 70.9424819946289 158.13365173339844 C 84.89495849609375 149.40733337402344 91.82660675048828 147.83424377441406 109.36524963378906 139.75137329101562 C 120.45159912109375 141.30044555664062 143.4453125 140.94117736816406 150.75045776367188 138.86160278320312" stroke-width="5.944227695465088" fill="none" stroke="rgb(107, 107, 105)" stroke-opacity="0.9971262" stroke-linecap="round" stroke-linejoin="round"/>
    <path d="M 75.32813262939453 123.9371337890625 C 72.15584564208984 143.293212890625 69.2978515625 162.74118041992188 66.18305206298828 181.93722534179688" stroke-width="6.054159641265869" fill="none" stroke="rgb(147, 145, 145)" stroke-opacity="1.0" stroke-linecap="round" stroke-linejoin="round"/>
    <path d="M 125.75983428955078 125.64798736572266 C 130.17373657226562 155.177001953125 129.46377563476562 168.8363494873047 130.2003936767578 188.5576171875" stroke-width="5.92758846282959" fill="none" stroke="rgb(145, 147, 145)" stroke-opacity="1.0" stroke-linecap="round" stroke-linejoin="round"/>
    <path d="M 149.82981872558594 108.90872192382812 C 151.4955291748047 132.27462768554688 152.8477783203125 151.6424102783203 154.5377960205078 171.80889892578125" stroke-width="5.941905975341797" fill="none" stroke="rgb(145, 147, 145)" stroke-opacity="1.0" stroke-linecap="round" stroke-linejoin="round"/>
    <path d="M 70.94234466552734 158.12527465820312 C 89.28382110595703 162.5158233642578 108.75345611572266 160.12106323242188 128.3705291748047 158.1557159423828 C 139.42807006835938 153.34445190429688 146.9822998046875 149.53482055664062 152.546875 144.00457763671875" stroke-width="6.053354263305664" fill="none" stroke="rgb(147, 145, 145)" stroke-opacity="1.0" stroke-linecap="round" stroke-linejoin="round"/>
    <path d="M 133.25567626953125 125.54965209960938 C 134.01605224609375 127.07154846191406 157.73570251464844 105.30503845214844 153.05624389648438 97.80037689208984 C 149.2501983642578 92.15131378173828 111.17577362060547 90.06782531738281 97.70223236083984 95.92654418945312 C 86.36245727539062 101.1325912475586 64.63262176513672 113.3965072631836 68.07927703857422 121.36133575439453 C 70.99890899658203 128.76669311523438 133.6261749267578 125.84992218017578 132.9901885986328 125.24552154541016" stroke-width="5.947728157043457" fill="none" stroke="rgb(136, 31, 28)" stroke-opacity="0.9969511" stroke-linecap="round" stroke-linejoin="round"/>
    <path d="M 139.99169921875 101.1612319946289 C 129.94644165039062 99.8890151977539 119.20123291015625 99.74183654785156 108.82221984863281 99.10497283935547 C 102.37894439697266 100.52969360351562 84.77913665771484 113.20571899414062 80.68263244628906 116.32435607910156 C 93.79863739013672 117.37356567382812 122.9222412109375 104.68986511230469 133.33905029296875 111.14315032958984" stroke-width="20.05194664001465" fill="none" stroke="rgb(240, 0, 0)" stroke-opacity="0.99497324" stroke-linecap="round" stroke-linejoin="round"/>
    <path d="M 81.93251037597656 121.61499786376953 C 115.70854187011719 126.19458770751953 140.9921112060547 122.52000427246094 146.8933868408203 104.21287536621094" stroke-width="9.939695358276367" fill="none" stroke="rgb(100, 23, 21)" stroke-opacity="1.0" stroke-linecap="round" stroke-linejoin="round"/>
    <path d="M 75.70599365234375 123.09597778320312 C 66.19331359863281 122.04365539550781 57.648372650146484 124.58401489257812 59.96532440185547 124.3271255493164 C 60.01421356201172 133.36199951171875 64.80403137207031 142.89752197265625 71.74234008789062 133.48573303222656 C 74.45443725585938 132.5364990234375 71.29656219482422 127.13630676269531 74.15705108642578 118.7149887084961" stroke-width="2.0" fill="none" stroke="rgb(211, 246, 163)" stroke-opacity="0.36744848" stroke-linecap="round" stroke-linejoin="round"/>
    <path d="M 152.68994140625 96.65581512451172 C 146.10870361328125 98.39006042480469 136.45266723632812 104.20966339111328 144.4086456298828 96.27095794677734 C 140.34481811523438 93.9233627319336 144.24256896972656 95.33882141113281 153.4249267578125 101.089111328125 C 158.22169494628906 93.84998321533203 168.0299072265625 100.09310150146484 174.8509063720703 96.20384216308594" stroke-width="2.390928268432617" fill="none" stroke="rgb(91, 105, 62)" stroke-opacity="0.94856024" stroke-linecap="round" stroke-linejoin="round"/>
    <path d="M 140.84954833984375 100.86468505859375 C 136.85655212402344 111.59954833984375 132.91946411132812 110.08936309814453 138.08685302734375 105.28631591796875 C 134.78334045410156 98.91903686523438 130.220947265625 94.00703430175781 122.30220794677734 96.27671813964844" stroke-width="2.0641562938690186" fill="none" stroke="rgb(34, 155, 150)" stroke-opacity="0.20145935" stroke-linecap="round" stroke-linejoin="round"/>
    <path d="M 133.46217346191406 124.70532989501953 C 144.81802368164062 128.44329833984375 153.02928161621094 133.22108459472656 146.04583740234375 138.26902770996094 C 155.68763732910156 134.63754272460938 148.1737518310547 126.76514434814453 149.05679321289062 135.1663055419922 C 158.75521850585938 129.81893920898438 153.16224670410156 132.2582550048828 159.53512573242188 136.6202392578125" stroke-width="2.0" fill="none" stroke="rgb(125, 200, 122)" stroke-opacity="0.8082897" stroke-linecap="round" stroke-linejoin="round"/>
    <path d="M 132.6815185546875 124.42178344726562 C 130.73455810546875 123.73735809326172 123.349853515625 125.53966522216797 129.21730041503906 115.32882690429688 C 126.75988006591797 114.07325744628906 122.3382797241211 106.66706848144531 111.88270568847656 97.54646301269531" stroke-width="2.0" fill="none" stroke="rgb(40, 210, 53)" stroke-opacity="0.8304122" stroke-linecap="round" stroke-linejoin="round"/>
    <path d="M 147.4832000732422 104.58333587646484 C 153.79849243164062 95.29878997802734 151.94044494628906 96.25495910644531 161.0970458984375 88.34241485595703 C 156.18190002441406 90.12226104736328 161.65196228027344 85.82491302490234 170.68008422851562 82.33116912841797" stroke-width="2.370171546936035" fill="none" stroke="rgb(49, 56, 203)" stroke-opacity="0.5524695" stroke-linecap="round" stroke-linejoin="round"/>
    <path d="M 122.31956481933594 97.996826171875 C 132.59915161132812 104.70054626464844 132.72496032714844 97.23300170898438 141.98558044433594 103.49652099609375" stroke-width="2.0" fill="none" stroke="rgb(127, 207, 109)" stroke-opacity="0.36065164" stroke-linecap="round" stroke-linejoin="round"/>
    <path d="M 159.50686645507812 135.79322814941406 C 170.8167266845703 145.2235870361328 176.40283203125 145.04421997070312 167.8531036376953 146.05831909179688 C 164.95372009277344 150.802001953125 174.4437255859375 147.31639099121094 168.38839721679688 153.89376831054688 C 173.88246154785156 149.8401336669922 169.77711486816406 154.10345458984375 159.43601989746094 144.0537872314453" stroke-width="2.0" fill="none" stroke="rgb(255, 166, 171)" stroke-opacity="0.64333564" stroke-linecap="round" stroke-linejoin="round"/>
    <path d="M 111.89002227783203 97.53553009033203 C 104.747314453125 94.1702651977539 100.83478546142578 89.7620620727539 104.42024993896484 90.75434112548828 C 103.84469604492188 80.18605041503906 93.59735107421875 87.2294692993164 99.00081634521484 88.56427001953125 C 104.09388732910156 95.21929168701172 108.1188735961914 90.98750305175781 109.89671325683594 98.73391723632812" stroke-width="2.0" fill="none" stroke="rgb(117, 229, 63)" stroke-opacity="0.36633515" stroke-linecap="round" stroke-linejoin="round"/>
    <path d="M 174.9268035888672 95.99169158935547 C 179.474365234375 96.39173126220703 180.51918029785156 101.74637603759766 182.15078735351562 94.29084014892578" stroke-width="2.4002256393432617" fill="none" stroke="rgb(239, 118, 193)" stroke-opacity="0.5550352" stroke-linecap="round" stroke-linejoin="round"/>
    <path d="M 111.9043197631836 97.54676055908203 C 120.47662353515625 88.71717071533203 125.69815826416016 98.8067855834961 116.19757843017578 92.15892791748047 C 114.52245330810547 94.72575378417969 105.51171875 92.83662414550781 96.30902862548828 91.83573913574219" stroke-width="2.0" fill="none" stroke="rgb(29, 53, 1)" stroke-opacity="0.3657162" stroke-linecap="round" stroke-linejoin="round"/>
    <path d="M 122.69818878173828 96.97606658935547 C 115.84252166748047 106.89173889160156 114.90560913085938 99.6579818725586 112.78559875488281 103.45240020751953 C 103.59020233154297 105.48169708251953 104.4774169921875 96.45005798339844 114.7773666381836 102.0607681274414 C 124.31007385253906 96.76464080810547 130.7218780517578 94.61739349365234 140.2741241455078 99.79383087158203" stroke-width="2.0" fill="none" stroke="rgb(96, 64, 152)" stroke-opacity="0.5821894" stroke-linecap="round" stroke-linejoin="round"/>
    <path d="M 120.19463348388672 54.31608963012695 C 130.5242462158203 58.47352600097656 130.79356384277344 46.66512680053711 124.69757080078125 44.66340255737305 C 116.54115295410156 37.7564811706543 109.3593978881836 26.70249366760254 103.83628845214844 24.369888305664062 C 109.22040557861328 14.273279190063477 116.79771423339844 10.210824966430664 126.06391906738281 8.896036148071289" stroke-width="2.0" fill="none" stroke="rgb(114, 191, 190)" stroke-opacity="0.7818888" stroke-linecap="round" stroke-linejoin="round"/>
    <path d="M 207.1688232421875 143.05897521972656 C 200.24916076660156 152.04449462890625 194.77410888671875 140.93638610839844 200.1880645751953 149.5680694580078" stroke-width="2.245145559310913" fill="none" stroke="rgb(125, 82, 178)" stroke-opacity="0.23802172" stroke-linecap="round" stroke-linejoin="round"/>
    <path d="M 62.72897720336914 108.18916320800781 C 66.60980224609375 106.75435638427734 67.14496612548828 106.62616729736328 69.37594604492188 114.33960723876953 C 61.7612190246582 124.07357025146484 70.13788604736328 123.30569458007812 80.93245697021484 117.60894012451172 C 89.85897064208984 117.86357879638672 88.4468765258789 107.82453155517578 94.12976837158203 116.03929901123047" stroke-width="2.384239912033081" fill="none" stroke="rgb(120, 116, 210)" stroke-opacity="0.5476781" stroke-linecap="round" stroke-linejoin="round"/>
    <path d="M 163.326904296875 32.17832946777344 C 168.38592529296875 30.286165237426758 157.77320861816406 37.00154113769531 156.2093048095703 29.268850326538086" stroke-width="2.0" fill="none" stroke="rgb(73, 28, 160)" stroke-opacity="0.7817416" stroke-linecap="round" stroke-linejoin="round"/>
    <path d="M 73.28270721435547 4.407761096954346 C 72.1817626953125 -2.1585378646850586 76.13871765136719 6.307758808135986 75.0235366821289 8.946406364440918" stroke-width="2.0" fill="none" stroke="rgb(46, 54, 66)" stroke-opacity="0.08857491" stroke-linecap="round" stroke-linejoin="round"/>
    <path d="M 75.25447845458984 37.37705612182617 C 72.75122833251953 36.379940032958984 68.7431869506836 25.99839210510254 67.70735931396484 21.07895278930664" stroke-width="2.1984446048736572" fill="none" stroke="rgb(94, 170, 36)" stroke-opacity="0.16812052" stroke-linecap="round" stroke-linejoin="round"/>
    <path d="M 165.7108612060547 219.9924774169922 C 176.26780700683594 217.32774353027344 172.38949584960938 213.2395477294922 180.8933868408203 216.30267333984375" stroke-width="2.340603828430176" fill="none" stroke="rgb(153, 77, 248)" stroke-opacity="0.14047831" stroke-linecap="round" stroke-linejoin="round"/>
    <path d="M 100.29193115234375 81.96356201171875 C 106.49834442138672 79.28304290771484 116.79975891113281 73.3612289428711 105.60069274902344 72.97529602050781" stroke-width="2.2460830211639404" fill="none" stroke="rgb(75, 16, 239)" stroke-opacity="0.634646" stroke-linecap="round" stroke-linejoin="round"/>
    <path d="M 180.32174682617188 114.20999908447266 C 173.35455322265625 114.87456512451172 175.4960174560547 116.22969055175781 174.26449584960938 126.7255630493164 C 161.7256317138672 136.61328125 169.95713806152344 132.01107788085938 171.10997009277344 137.47073364257812 C 171.52659606933594 135.25611877441406 164.40599060058594 141.7694854736328 163.7017822265625 142.5493927001953" stroke-width="2.3226349353790283" fill="none" stroke="rgb(79, 97, 227)" stroke-opacity="0.88964945" stroke-linecap="round" stroke-linejoin="round"/>
    <path d="M 63.33685302734375 77.80308532714844 C 71.3705825805664 72.15077209472656 62.125099182128906 82.76300048828125 67.81640625 89.92489624023438" stroke-width="2.1363677978515625" fill="none" stroke="rgb(250, 55, 183)" stroke-opacity="0.17976199" stroke-linecap="round" stroke-linejoin="round"/>
    <path d="M 156.063232421875 126.20477294921875 C 156.1917266845703 136.57281494140625 161.4072723388672 146.65037536621094 168.0729522705078 155.38299560546875" stroke-width="2.0" fill="none" stroke="rgb(72, 55, 137)" stroke-opacity="0.95967126" stroke-linecap="round" stroke-linejoin="round"/>
  </g>
</svg>
