<?xml version="1.0" ?>
<svg xmlns="http://www.w3.org/2000/svg" version="1.1" width="1104.0" height="1104.0">
  <defs/>
  <g>
    <path d="M 656.0071411132812 274.3687438964844 C 667.8395385742188 250.93389892578125 697.5187377929688 245.25494384765625 703.3818359375 246.5862579345703 C 712.6265258789062 247.03964233398438 711.0770874023438 264.9647216796875 724.0651245117188 265.26220703125 C 736.3557739257812 270.9516296386719 749.29345703125 273.3067321777344 756.8948974609375 278.1502990722656 C 754.3089599609375 292.207275390625 753.2046508789062 301.05523681640625 775.3195190429688 307.74822998046875 C 781.72607421875 314.048095703125 790.0806884765625 325.6033020019531 804.9032592773438 334.2153015136719" stroke-width="15.603341102600098" fill="none" stroke="rgb(39, 0, 20)" stroke-opacity="0.99873716" stroke-linecap="round" stroke-linejoin="round"/>
    <path d="M 837.4344482421875 346.1917724609375 C 850.6891479492188 354.7773132324219 849.8772583007812 355.5089111328125 857.5479125976562 363.03399658203125 C 859.4185791015625 371.92633056640625 873.864990234375 388.4727478027344 850.9441528320312 414.0799865722656 C 847.1532592773438 420.9010925292969 839.21484375 426.3860778808594 843.2296752929688 446.2846374511719" stroke-width="16.42078971862793" fill="none" stroke="rgb(47, 1, 9)" stroke-opacity="1.0" stroke-linecap="round" stroke-linejoin="round"/>
    <path d="M 798.14501953125 462.82464599609375 C 781.716796875 479.0444030761719 758.4998779296875 481.2242431640625 746.908935546875 486.489013671875 C 720.228515625 507.1466064453125 733.1089477539062 507.0536804199219 755.30126953125 505.5728759765625 C 768.482666015625 500.52740478515625 732.397216796875 482.8924560546875 693.5123291015625 462.22760009765625" stroke-width="16.215225219726562" fill="none" stroke="rgb(47, 0, 17)" stroke-opacity="1.0" stroke-linecap="round" stroke-linejoin="round"/>
    <path d="M 655.038330078125 401.3876037597656 C 666.3469848632812 401.6712341308594 667.1734008789062 402.42852783203125 655.0858154296875 395.2450866699219 C 654.16455078125 402.6117858886719 651.0117797851562 411.1710510253906 643.7496337890625 415.74072265625 C 632.078369140625 415.8408508300781 627.9586181640625 417.8887634277344 619.7068481445312 435.89178466796875 C 594.70166015625 435.7067565917969 581.7743530273438 450.670654296875 568.1505737304688 455.9684143066406 C 551.807861328125 464.7457580566406 533.0845336914062 469.6803894042969 538.0204467773438 470.36993408203125 C 540.2461547851562 476.9287109375 557.450927734375 492.09759521484375 574.612060546875 506.4003601074219 C 591.1368408203125 522.2153930664062 617.5309448242188 548.4017944335938 656.7702026367188 567.411376953125" stroke-width="15.378838539123535" fill="none" stroke="rgb(30, 13, 21)" stroke-opacity="1.0" stroke-linecap="round" stroke-linejoin="round"/>
    <path d="M 736.404541015625 276.8552551269531 C 728.34619140625 273.849853515625 715.5198974609375 272.25567626953125 713.9945068359375 281.61456298828125 C 711.3695678710938 290.9541015625 734.7652587890625 308.8316650390625 755.0108642578125 331.0694885253906 C 770.5982055664062 347.1894226074219 782.33837890625 359.9803161621094 796.7632446289062 371.1145935058594" stroke-width="10.638998031616211" fill="none" stroke="rgb(92, 185, 135)" stroke-opacity="0.19166487" stroke-linecap="round" stroke-linejoin="round"/>
    <path d="M 848.089599609375 367.0620422363281 C 876.759521484375 352.77618408203125 861.5255737304688 360.92901611328125 866.587890625 338.4552307128906" stroke-width="9.947704315185547" fill="none" stroke="rgb(220, 187, 219)" stroke-opacity="0.0" stroke-linecap="round" stroke-linejoin="round"/>
    <path d="M 1106.6971435546875 711.7272338867188 C 1089.0206298828125 691.84716796875 1074.7667236328125 667.4390869140625 1054.03466796875 655.600341796875 C 1047.9632568359375 652.8538818359375 1042.060791015625 650.81005859375 1044.271728515625 640.7214965820312" stroke-width="16.140079498291016" fill="none" stroke="rgb(238, 85, 255)" stroke-opacity="0.71552944" stroke-linecap="round" stroke-linejoin="round"/>
    <path d="M 994.0527954101562 639.8868408203125 C 991.3219604492188 636.2294311523438 986.1915283203125 633.2664794921875 984.8273315429688 639.2454223632812 C 955.7472534179688 640.9791870117188 961.71484375 638.802978515625 972.2192993164062 620.8080444335938" stroke-width="13.817341804504395" fill="none" stroke="rgb(238, 84, 255)" stroke-opacity="0.69120216" stroke-linecap="round" stroke-linejoin="round"/>
    <path d="M 863.8897705078125 674.7938842773438 C 859.56396484375 677.9750366210938 824.3049926757812 679.2960205078125 793.9108276367188 681.2080078125" stroke-width="9.85714340209961" fill="none" stroke="rgb(238, 110, 179)" stroke-opacity="0.71673244" stroke-linecap="round" stroke-linejoin="round"/>
    <path d="M 793.4364624023438 427.54364013671875 C 792.0997924804688 431.76715087890625 798.4016723632812 427.4987487792969 801.3045654296875 417.740966796875" stroke-width="16.471879959106445" fill="none" stroke="rgb(226, 29, 108)" stroke-opacity="0.8668218" stroke-linecap="round" stroke-linejoin="round"/>
    <path d="M 833.154052734375 375.06787109375 C 851.3460083007812 380.70416259765625 857.0781860351562 377.881591796875 861.9547729492188 372.37353515625 C 868.7626953125 349.4267272949219 860.1918334960938 354.6069030761719 840.5369873046875 358.9297180175781" stroke-width="17.076290130615234" fill="none" stroke="rgb(227, 29, 108)" stroke-opacity="0.87066424" stroke-linecap="round" stroke-linejoin="round"/>
    <path d="M 800.5173950195312 383.239013671875 C 803.365478515625 390.4533386230469 799.9044799804688 391.7794494628906 791.6827392578125 392.8025817871094" stroke-width="15.489026069641113" fill="none" stroke="rgb(227, 29, 107)" stroke-opacity="0.85382825" stroke-linecap="round" stroke-linejoin="round"/>
    <path d="M 1055.6180419921875 466.84100341796875 C 1041.4237060546875 468.6670837402344 1036.7047119140625 473.58380126953125 1032.849609375 481.6108093261719 C 1038.0318603515625 497.76251220703125 1051.76904296875 476.6767883300781 1073.3917236328125 458.9246826171875" stroke-width="11.56624984741211" fill="none" stroke="rgb(159, 85, 228)" stroke-opacity="0.6211404" stroke-linecap="round" stroke-linejoin="round"/>
    <path d="M 1083.7049560546875 281.9144592285156 C 1064.378173828125 335.8164978027344 1086.728515625 385.69097900390625 1025.719482421875 395.3945617675781" stroke-width="11.296162605285645" fill="none" stroke="rgb(83, 215, 88)" stroke-opacity="0.02786569" stroke-linecap="round" stroke-linejoin="round"/>
    <path d="M 796.1343994140625 646.571533203125 C 747.166259765625 640.4635620117188 787.5018920898438 669.15576171875 826.3740234375 696.3822631835938" stroke-width="9.85714340209961" fill="none" stroke="rgb(78, 255, 17)" stroke-opacity="0.20116486" stroke-linecap="round" stroke-linejoin="round"/>
    <path d="M 553.508544921875 495.4667663574219 C 553.540771484375 487.93780517578125 555.821533203125 483.5509033203125 556.4208374023438 466.8746032714844 C 547.0145874023438 461.39288330078125 506.504638671875 487.98760986328125 464.2380676269531 514.218017578125" stroke-width="9.85714340209961" fill="none" stroke="rgb(46, 146, 109)" stroke-opacity="0.5805133" stroke-linecap="round" stroke-linejoin="round"/>
    <path d="M 656.5261840820312 402.31524658203125 C 659.2551879882812 348.2902526855469 639.6796875 359.5832214355469 573.8650512695312 396.6011657714844" stroke-width="10.367292404174805" fill="none" stroke="rgb(126, 80, 162)" stroke-opacity="0.87072194" stroke-linecap="round" stroke-linejoin="round"/>
    <path d="M 556.7070922851562 446.524169921875 C 568.7568359375 513.3709106445312 551.6165161132812 539.105224609375 607.1128540039062 501.05902099609375" stroke-width="10.106063842773438" fill="none" stroke="rgb(152, 88, 30)" stroke-opacity="0.0" stroke-linecap="round" stroke-linejoin="round"/>
    <path d="M 652.62158203125 569.9317016601562 C 643.30908203125 557.9608154296875 638.708984375 546.3302612304688 628.4739379882812 537.5382080078125 C 609.18359375 533.493408203125 592.9222412109375 522.4053344726562 575.9686279296875 511.08966064453125 C 566.5995483398438 492.8455810546875 604.2525634765625 522.2100830078125 641.2041015625 552.385498046875" stroke-width="9.85714340209961" fill="none" stroke="rgb(44, 127, 141)" stroke-opacity="0.8759328" stroke-linecap="round" stroke-linejoin="round"/>
    <path d="M 703.7415161132812 238.7633514404297 C 658.862060546875 220.74070739746094 620.0550537109375 195.60523986816406 635.4712524414062 186.477783203125 C 632.9218139648438 194.03697204589844 670.9520874023438 228.3595733642578 719.3614501953125 258.26934814453125 C 768.2626953125 280.0000305175781 745.4682006835938 297.8651123046875 720.791748046875 306.8954772949219" stroke-width="9.85714340209961" fill="none" stroke="rgb(28, 0, 47)" stroke-opacity="0.9369902" stroke-linecap="round" stroke-linejoin="round"/>
    <path d="M 649.9163208007812 571.03759765625 C 685.4754638671875 512.7715454101562 661.5374145507812 468.3380432128906 663.2332153320312 537.5879516601562" stroke-width="11.385396957397461" fill="none" stroke="rgb(212, 67, 131)" stroke-opacity="0.90903527" stroke-linecap="round" stroke-linejoin="round"/>
    <path d="M 582.7915649414062 445.9197082519531 C 563.1198120117188 399.0215759277344 537.5000610351562 436.3348083496094 541.5122680664062 406.30181884765625" stroke-width="9.85714340209961" fill="none" stroke="rgb(200, 245, 58)" stroke-opacity="0.11763105" stroke-linecap="round" stroke-linejoin="round"/>
    <path d="M 720.7457275390625 293.26849365234375 C 683.8276977539062 312.3247985839844 640.2133178710938 315.77362060546875 633.2288818359375 315.2216491699219 C 634.5185546875 318.3092041015625 658.8206176757812 330.8437194824219 678.2879638671875 339.48382568359375 C 704.8937377929688 342.6815185546875 646.0404052734375 401.6761779785156 590.8667602539062 457.7744445800781" stroke-width="9.85714340209961" fill="none" stroke="rgb(25, 37, 173)" stroke-opacity="0.04517844" stroke-linecap="round" stroke-linejoin="round"/>
    <path d="M 662.9952392578125 546.5426025390625 C 711.0581665039062 493.98138427734375 662.0046997070312 514.7896728515625 672.8828125 516.1878051757812" stroke-width="14.433579444885254" fill="none" stroke="rgb(56, 139, 253)" stroke-opacity="0.13676332" stroke-linecap="round" stroke-linejoin="round"/>
    <path d="M 563.6268310546875 390.0742492675781 C 576.0599365234375 432.2702331542969 591.0977783203125 465.90728759765625 607.790283203125 491.98175048828125 C 620.0671997070312 530.054443359375 562.1163330078125 535.5184936523438 508.0122375488281 535.09423828125" stroke-width="9.85714340209961" fill="none" stroke="rgb(29, 197, 109)" stroke-opacity="0.60307324" stroke-linecap="round" stroke-linejoin="round"/>
    <path d="M 582.1315307617188 511.305419921875 C 555.1718139648438 495.4674072265625 528.2700805664062 480.1668701171875 535.91357421875 476.678466796875 C 534.0435791015625 461.73321533203125 554.2359008789062 469.626708984375 574.49462890625 476.919921875 C 592.2192993164062 487.8594970703125 539.5469970703125 467.7261962890625 492.8040466308594 443.046142578125" stroke-width="9.85714340209961" fill="none" stroke="rgb(38, 6, 108)" stroke-opacity="0.41544977" stroke-linecap="round" stroke-linejoin="round"/>
    <path d="M 561.15283203125 390.0085144042969 C 569.0120849609375 329.95953369140625 546.8486938476562 334.98126220703125 536.825439453125 351.2717590332031" stroke-width="9.85714340209961" fill="none" stroke="rgb(235, 197, 106)" stroke-opacity="0.2314728" stroke-linecap="round" stroke-linejoin="round"/>
    <path d="M 592.6246948242188 494.24725341796875 C 583.9923095703125 514.5087890625 562.7581176757812 525.9791870117188 579.8922729492188 527.2626953125 C 597.4533081054688 527.908447265625 644.4393920898438 515.9403076171875 694.6739501953125 498.0823974609375 C 750.5780029296875 489.0967712402344 745.8334350585938 489.4084167480469 741.1824951171875 489.8297424316406" stroke-width="9.85714340209961" fill="none" stroke="rgb(224, 233, 44)" stroke-opacity="0.22286347" stroke-linecap="round" stroke-linejoin="round"/>
    <path d="M 584.5702514648438 501.1612548828125 C 598.9115600585938 475.4539489746094 615.3533325195312 454.3168640136719 633.801025390625 436.65350341796875 C 653.1030883789062 419.59478759765625 673.9983520507812 405.501953125 700.631103515625 403.3362731933594 C 716.86669921875 390.5379943847656 694.3120727539062 373.0783996582031 675.3665161132812 344.9513244628906" stroke-width="10.021265983581543" fill="none" stroke="rgb(30, 66, 137)" stroke-opacity="0.3210882" stroke-linecap="round" stroke-linejoin="round"/>
    <path d="M 602.7628784179688 668.474609375 C 611.132568359375 662.6367797851562 564.0662231445312 618.508056640625 576.22216796875 597.08056640625" stroke-width="10.181011199951172" fill="none" stroke="rgb(240, 17, 53)" stroke-opacity="0.4543855" stroke-linecap="round" stroke-linejoin="round"/>
    <path d="M 219.6677703857422 1055.626953125 C 165.97869873046875 1053.389892578125 190.8209228515625 1039.7742919921875 226.5415496826172 1095.1260986328125" stroke-width="10.048561096191406" fill="none" stroke="rgb(117, 1, 167)" stroke-opacity="0.23499009" stroke-linecap="round" stroke-linejoin="round"/>
    <path d="M 133.5305938720703 848.4069213867188 C 133.49588012695312 898.3097534179688 133.64239501953125 853.8074951171875 85.92507934570312 902.5444946289062" stroke-width="9.85714340209961" fill="none" stroke="rgb(38, 147, 88)" stroke-opacity="0.21737744" stroke-linecap="round" stroke-linejoin="round"/>
    <path d="M 416.6116943359375 945.0419311523438 C 433.182373046875 973.433349609375 490.9357604980469 934.7255249023438 536.7697143554688 936.7227172851562" stroke-width="9.85714340209961" fill="none" stroke="rgb(129, 0, 171)" stroke-opacity="0.2288526" stroke-linecap="round" stroke-linejoin="round"/>
    <path d="M 1053.4630126953125 953.125 C 1085.6575927734375 961.334228515625 1118.4556884765625 940.6122436523438 1103.2135009765625 943.9171142578125" stroke-width="9.85714340209961" fill="none" stroke="rgb(214, 249, 162)" stroke-opacity="0.63198054" stroke-linecap="round" stroke-linejoin="round"/>
    <path d="M 429.9549560546875 1035.2841796875 C 469.1722717285156 1107.2098388671875 448.0121154785156 1142.46484375 398.5356140136719 1119.623291015625" stroke-width="11.470306396484375" fill="none" stroke="rgb(15, 207, 213)" stroke-opacity="0.47923756" stroke-linecap="round" stroke-linejoin="round"/>
    <path d="M 101.56173706054688 795.129150390625 C 150.75222778320312 760.4949951171875 100.63825225830078 798.91943359375 54.82117462158203 834.5782470703125" stroke-width="9.85714340209961" fill="none" stroke="rgb(83, 195, 13)" stroke-opacity="0.09655591" stroke-linecap="round" stroke-linejoin="round"/>
    <path d="M 222.1884307861328 253.07211303710938 C 237.88992309570312 269.4906005859375 215.48785400390625 261.2735595703125 227.2416534423828 325.76800537109375" stroke-width="11.958882331848145" fill="none" stroke="rgb(116, 11, 156)" stroke-opacity="0.16986328" stroke-linecap="round" stroke-linejoin="round"/>
    <path d="M 703.4767456054688 991.8853149414062 C 678.2461547851562 1003.6608276367188 663.2369995117188 1020.1187133789062 636.533203125 1022.044921875 C 605.3006591796875 1021.6636352539062 629.2268676757812 994.2424926757812 667.9832763671875 980.607666015625" stroke-width="9.85714340209961" fill="none" stroke="rgb(178, 98, 127)" stroke-opacity="0.7233675" stroke-linecap="round" stroke-linejoin="round"/>
    <path d="M 146.26876831054688 569.503173828125 C 182.55419921875 602.2142944335938 174.40048217773438 548.4869384765625 187.1724853515625 476.0989074707031" stroke-width="9.85714340209961" fill="none" stroke="rgb(32, 89, 72)" stroke-opacity="0.5981681" stroke-linecap="round" stroke-linejoin="round"/>
  </g>
</svg>
