<?xml version="1.0" ?>
<svg xmlns="http://www.w3.org/2000/svg" version="1.1" width="1104.0" height="1104.0">
  <defs/>
  <g>
    <path d="M 22.920223236083984 66.91889190673828 C 88.01904296875 79.32969665527344 160.18309020996094 68.42232513427734 160.9750518798828 65.03917694091797 C 160.18276977539062 62.44664764404297 142.5072784423828 46.236656188964844 123.32840728759766 53.380977630615234" stroke-width="1.5848214626312256" fill="none" stroke="rgb(0, 2, 0)" stroke-opacity="0.99" stroke-linecap="round" stroke-linejoin="round"/>
    <path d="M 58.269325256347656 75.6081314086914 C 55.637001037597656 110.54134368896484 50.78828430175781 146.6431121826172 60.19062423706055 149.65167236328125 C 69.59278869628906 153.4526824951172 108.28528594970703 143.6741943359375 115.4314193725586 125.20812225341797 C 122.57579040527344 107.5326919555664 122.95210266113281 100.01202392578125 123.7445068359375 100.01200103759766" stroke-width="1.5848214626312256" fill="none" stroke="rgb(2, 2, 0)" stroke-opacity="0.99000007" stroke-linecap="round" stroke-linejoin="round"/>
    <path d="M 122.19950866699219 76.69559478759766 C 137.28244018554688 74.85568237304688 141.7944793701172 71.84705352783203 141.0418701171875 78.57532501220703 C 139.49688720703125 86.09600067138672 136.8645477294922 89.1046142578125 132.76861572265625 98.92290496826172 C 127.8802490234375 107.94876861572266 134.98483276367188 111.66841125488281 127.88026428222656 107.94877624511719" stroke-width="1.5848214626312256" fill="none" stroke="rgb(0, 2, 0)" stroke-opacity="0.99" stroke-linecap="round" stroke-linejoin="round"/>
    <path d="M 73.68696594238281 88.73009490966797 C 70.67835235595703 98.50682830810547 63.950050354003906 114.34227752685547 63.9102783203125 115.47122955322266 C 64.66288757324219 116.60013580322266 74.47914123535156 117.35094451904297 77.1134262084961 115.47122955322266" stroke-width="1.5848214626312256" fill="none" stroke="rgb(0, 2, 2)" stroke-opacity="0.99" stroke-linecap="round" stroke-linejoin="round"/>
    <path d="M 61.6542854309082 86.51385498046875 C 68.8401107788086 86.89015197753906 62.82292556762695 88.39358520507812 70.71992492675781 87.64278411865234" stroke-width="1.5848214626312256" fill="none" stroke="rgb(0, 2, 0)" stroke-opacity="1.0" stroke-linecap="round" stroke-linejoin="round"/>
    <path d="M 86.43148040771484 90.73127746582031 C 92.82504272460938 91.10757446289062 86.80799865722656 91.81861114501953 94.70475769042969 91.86018371582031" stroke-width="1.5848214626312256" fill="none" stroke="rgb(2, 2, 0)" stroke-opacity="0.99" stroke-linecap="round" stroke-linejoin="round"/>
    <path d="M 67.29528045654297 127.50394439697266 C 84.10693359375 128.7423095703125 86.13756561279297 127.3317642211914 86.08889770507812 126.5862808227539" stroke-width="1.5848214626312256" fill="none" stroke="rgb(2, 0, 2)" stroke-opacity="0.9900003" stroke-linecap="round" stroke-linejoin="round"/>
    <path d="M 58.269439697265625 74.81635284423828 C 65.2034912109375 75.43453216552734 60.95718765258789 72.26051330566406 62.16118240356445 69.42012786865234" stroke-width="1.743283987045288" fill="none" stroke="rgb(115, 157, 82)" stroke-opacity="0.06802809" stroke-linecap="round" stroke-linejoin="round"/>
    <path d="M 86.08889770507812 125.79388427734375 C 89.20535278320312 124.10882568359375 91.82128143310547 124.64851379394531 86.09834289550781 117.78669738769531 C 93.5793685913086 124.62977600097656 92.11112976074219 126.15094757080078 94.32537078857422 133.66029357910156 C 90.17916870117188 137.2321319580078 85.33026123046875 133.9173126220703 90.18424987792969 135.52467346191406" stroke-width="1.743302822113037" fill="none" stroke="rgb(118, 194, 0)" stroke-opacity="0.3210844" stroke-linecap="round" stroke-linejoin="round"/>
    <path d="M 22.920207977294922 66.91890716552734 C 22.644256591796875 73.72490692138672 15.665127754211426 79.6124267578125 9.34202766418457 80.77669525146484 C 16.34488296508789 82.14559936523438 10.55704116821289 84.52044677734375 2.794004201889038 83.15753173828125" stroke-width="1.7433027029037476" fill="none" stroke="rgb(101, 241, 149)" stroke-opacity="0.5020734" stroke-linecap="round" stroke-linejoin="round"/>
    <path d="M 122.99188232421875 76.69560241699219 C 115.08563995361328 71.68586730957031 121.59126281738281 65.56092071533203 113.08658599853516 60.59033966064453 C 107.46900939941406 52.28702926635742 110.1302261352539 52.85273361206055 108.6932373046875 50.991554260253906" stroke-width="1.5848214626312256" fill="none" stroke="rgb(2, 152, 154)" stroke-opacity="0.28342703" stroke-linecap="round" stroke-linejoin="round"/>
    <path d="M 116.22374725341797 126.00051879882812 C 108.84468078613281 132.14273071289062 111.32852172851562 126.5853500366211 110.98323059082031 131.20762634277344" stroke-width="1.743302345275879" fill="none" stroke="rgb(221, 130, 64)" stroke-opacity="0.5708994" stroke-linecap="round" stroke-linejoin="round"/>
    <path d="M 61.65428924560547 85.72154998779297 C 70.0221939086914 81.47725677490234 73.58695220947266 77.77587890625 71.6272201538086 84.38356018066406 C 65.65744018554688 86.73484802246094 57.761722564697266 80.0409164428711 60.29167556762695 87.64566802978516" stroke-width="1.5848214626312256" fill="none" stroke="rgb(35, 77, 184)" stroke-opacity="0.49408954" stroke-linecap="round" stroke-linejoin="round"/>
    <path d="M 60.190616607666016 150.43922424316406 C 62.40239334106445 149.5140380859375 56.616844177246094 142.40872192382812 59.42732620239258 147.78610229492188 C 53.404022216796875 152.94174194335938 47.79964828491211 145.3343048095703 54.864501953125 148.36175537109375 C 56.290504455566406 139.70118713378906 59.36543655395508 133.08372497558594 67.2240219116211 128.38778686523438" stroke-width="1.7433031797409058" fill="none" stroke="rgb(199, 49, 176)" stroke-opacity="0.9865477" stroke-linecap="round" stroke-linejoin="round"/>
    <path d="M 67.29524993896484 126.71160888671875 C 68.46355438232422 124.46065521240234 60.17410659790039 120.43660736083984 62.33639144897461 127.98905944824219" stroke-width="1.743301510810852" fill="none" stroke="rgb(76, 69, 99)" stroke-opacity="0.89781564" stroke-linecap="round" stroke-linejoin="round"/>
    <path d="M 62.161197662353516 69.42013549804688 C 58.51508712768555 66.60460662841797 64.76892852783203 65.11160278320312 66.689697265625 71.02845764160156 C 59.90567398071289 74.07713317871094 57.50078201293945 79.3783187866211 56.63134002685547 79.41722106933594 C 49.77957534790039 85.57164764404297 52.895320892333984 78.21820831298828 49.48833084106445 83.57365417480469" stroke-width="1.5848214626312256" fill="none" stroke="rgb(231, 189, 9)" stroke-opacity="0.1837076" stroke-linecap="round" stroke-linejoin="round"/>
    <path d="M 62.33647155761719 127.98904418945312 C 69.05331420898438 125.0745849609375 64.15213012695312 132.66529846191406 71.93389129638672 137.6110382080078 C 79.90746307373047 128.7291259765625 82.72354888916016 131.69285583496094 77.8963851928711 133.6107940673828" stroke-width="1.5848214626312256" fill="none" stroke="rgb(58, 219, 250)" stroke-opacity="0.012692414" stroke-linecap="round" stroke-linejoin="round"/>
    <path d="M 68.01640319824219 128.38778686523438 C 64.64088439941406 120.43573760986328 68.6805648803711 114.02362823486328 66.64857482910156 108.76409912109375" stroke-width="1.7433034181594849" fill="none" stroke="rgb(169, 3, 163)" stroke-opacity="0.980295" stroke-linecap="round" stroke-linejoin="round"/>
    <path d="M 62.161170959472656 69.42008972167969 C 56.83628463745117 71.60723876953125 61.1672248840332 80.46476745605469 52.0842399597168 76.44747924804688 C 44.68558883666992 78.68482971191406 48.64089584350586 75.0943603515625 50.853641510009766 83.14531707763672" stroke-width="1.7431889772415161" fill="none" stroke="rgb(69, 64, 215)" stroke-opacity="0.6333485" stroke-linecap="round" stroke-linejoin="round"/>
    <path d="M 62.16149139404297 69.42012023925781 C 63.70357131958008 73.86389923095703 61.429325103759766 75.61369323730469 68.87650299072266 77.80680084228516 C 62.561058044433594 78.19512939453125 64.02685546875 76.64401245117188 69.77832794189453 79.20449829101562 C 76.70103454589844 72.05069732666016 76.6570816040039 76.42134857177734 80.81511688232422 71.4705581665039" stroke-width="1.743302822113037" fill="none" stroke="rgb(197, 159, 181)" stroke-opacity="0.8098663" stroke-linecap="round" stroke-linejoin="round"/>
    <path d="M 60.291656494140625 88.4380111694336 C 52.27381134033203 83.5890121459961 43.68783950805664 78.00962829589844 36.8819580078125 80.9288330078125 C 37.17666244506836 82.84027862548828 29.146303176879883 80.07757568359375 21.300670623779297 88.76521301269531" stroke-width="1.5848214626312256" fill="none" stroke="rgb(170, 74, 12)" stroke-opacity="0.8005972" stroke-linecap="round" stroke-linejoin="round"/>
    <path d="M 63.1287841796875 127.9890365600586 C 70.71147918701172 132.86070251464844 76.59747314453125 136.43748474121094 72.16864776611328 144.36802673339844" stroke-width="1.7433034181594849" fill="none" stroke="rgb(250, 20, 181)" stroke-opacity="0.846727" stroke-linecap="round" stroke-linejoin="round"/>
    <path d="M 108.6932373046875 50.991512298583984 C 103.40774536132812 57.52906036376953 99.41685485839844 65.19507598876953 103.86017608642578 57.28162384033203 C 109.5168685913086 63.58491516113281 113.71675109863281 71.16261291503906 116.30744171142578 76.74761199951172" stroke-width="1.7432901859283447" fill="none" stroke="rgb(222, 78, 164)" stroke-opacity="0.6631697" stroke-linecap="round" stroke-linejoin="round"/>
    <path d="M 155.33155822753906 109.46958923339844 C 150.74697875976562 107.53158569335938 150.54872131347656 100.50464630126953 147.39666748046875 98.29241180419922 C 154.4331817626953 91.21369934082031 154.3555145263672 86.56609344482422 160.48472595214844 77.5479736328125" stroke-width="1.5848214626312256" fill="none" stroke="rgb(86, 120, 240)" stroke-opacity="0.9518462" stroke-linecap="round" stroke-linejoin="round"/>
    <path d="M 174.724609375 94.06420135498047 C 179.63113403320312 91.83454132080078 182.17356872558594 83.04834747314453 183.42724609375 87.17833709716797 C 177.88343811035156 79.11200714111328 178.0531005859375 71.56260681152344 174.4383087158203 66.01231384277344 C 170.1044921875 60.37249755859375 178.4111785888672 53.799537658691406 172.33181762695312 54.31382751464844" stroke-width="1.5848214626312256" fill="none" stroke="rgb(205, 96, 12)" stroke-opacity="0.53907084" stroke-linecap="round" stroke-linejoin="round"/>
    <path d="M 71.6614761352539 79.91798400878906 C 70.46712493896484 83.38715362548828 71.40452575683594 76.39521789550781 74.68245697021484 75.28587341308594 C 82.12995910644531 69.56233978271484 79.64485931396484 77.44684600830078 80.60247039794922 85.50694274902344 C 78.12329864501953 83.16536712646484 81.4127197265625 92.0152816772461 85.96037292480469 88.4140625" stroke-width="1.7433030605316162" fill="none" stroke="rgb(172, 100, 129)" stroke-opacity="0.8123369" stroke-linecap="round" stroke-linejoin="round"/>
    <path d="M 43.181114196777344 124.9424819946289 C 51.486812591552734 125.67082977294922 55.916839599609375 133.43272399902344 54.9787483215332 125.87547302246094" stroke-width="1.5848214626312256" fill="none" stroke="rgb(159, 183, 206)" stroke-opacity="0.6840059" stroke-linecap="round" stroke-linejoin="round"/>
    <path d="M 59.38768005371094 13.7459716796875 C 57.404022216796875 19.53155517578125 64.53999328613281 15.190714836120605 66.42784881591797 16.340444564819336" stroke-width="1.5848214626312256" fill="none" stroke="rgb(141, 175, 93)" stroke-opacity="0.46904203" stroke-linecap="round" stroke-linejoin="round"/>
    <path d="M 5.350903034210205 23.807701110839844 C 7.999764919281006 18.244108200073242 6.855964183807373 18.024274826049805 -1.6272225379943848 14.75405502319336 C -4.140010356903076 22.33833122253418 -9.75217342376709 14.6182279586792 -15.316393852233887 18.547990798950195" stroke-width="1.7433013916015625" fill="none" stroke="rgb(45, 2, 117)" stroke-opacity="0.062044814" stroke-linecap="round" stroke-linejoin="round"/>
    <path d="M 11.090442657470703 140.27511596679688 C 2.84663462638855 138.59437561035156 11.219694137573242 144.7469940185547 12.89747428894043 153.39669799804688" stroke-width="1.5848214626312256" fill="none" stroke="rgb(170, 116, 88)" stroke-opacity="0.031027779" stroke-linecap="round" stroke-linejoin="round"/>
    <path d="M 13.316173553466797 151.4793243408203 C 15.073673248291016 156.93634033203125 11.060372352600098 157.24266052246094 2.454549551010132 149.98666381835938 C 1.871463656425476 151.74217224121094 1.1144065856933594 149.67892456054688 -7.204672813415527 157.64825439453125 C -3.7045111656188965 164.435302734375 3.683755874633789 171.6857147216797 5.818053245544434 168.15090942382812" stroke-width="1.5848214626312256" fill="none" stroke="rgb(224, 66, 203)" stroke-opacity="0.6285636" stroke-linecap="round" stroke-linejoin="round"/>
    <path d="M 120.03467559814453 84.80332946777344 C 112.15132904052734 92.11287689208984 120.44307708740234 97.88390350341797 127.55918884277344 97.17603302001953 C 122.01204681396484 98.39800262451172 125.43270874023438 103.09796142578125 132.322998046875 97.63691711425781 C 139.90548706054688 103.64937591552734 135.1882781982422 107.32568359375 134.33477783203125 115.30522918701172" stroke-width="1.5848214626312256" fill="none" stroke="rgb(166, 148, 141)" stroke-opacity="0.34802654" stroke-linecap="round" stroke-linejoin="round"/>
    <path d="M 113.42706298828125 161.4325408935547 C 119.68396759033203 168.6087646484375 114.67631530761719 168.96591186523438 112.0986099243164 171.37339782714844 C 114.26342010498047 177.07159423828125 106.16658782958984 170.50575256347656 107.91513061523438 167.60560607910156 C 113.54727935791016 169.2436065673828 117.50257873535156 175.37515258789062 114.74588775634766 180.72877502441406" stroke-width="1.5848214626312256" fill="none" stroke="rgb(68, 193, 13)" stroke-opacity="0.46480387" stroke-linecap="round" stroke-linejoin="round"/>
    <path d="M 58.90991973876953 83.86360168457031 C 54.33646774291992 82.7222900390625 48.90236282348633 86.4329605102539 50.7098274230957 85.0800552368164 C 51.43671798706055 91.3540267944336 50.04569625854492 92.08686828613281 56.03617858886719 92.19032287597656" stroke-width="1.5848214626312256" fill="none" stroke="rgb(110, 77, 222)" stroke-opacity="0.52834296" stroke-linecap="round" stroke-linejoin="round"/>
    <path d="M 108.26295471191406 160.6976776123047 C 106.9094009399414 155.8880615234375 111.15007781982422 157.6210479736328 111.29927825927734 162.2620849609375 C 112.00838470458984 155.83999633789062 115.28024291992188 161.026611328125 120.32588958740234 153.71173095703125" stroke-width="1.5848214626312256" fill="none" stroke="rgb(153, 99, 81)" stroke-opacity="0.9044264" stroke-linecap="round" stroke-linejoin="round"/>
    <path d="M 145.3733673095703 106.93077087402344 C 139.84725952148438 110.78546142578125 145.59567260742188 117.04621887207031 146.5353546142578 107.84173583984375 C 137.935791015625 116.67598724365234 141.9535369873047 118.51363372802734 149.5921630859375 125.94884490966797 C 142.9302520751953 118.51142120361328 151.04627990722656 113.74569702148438 153.84426879882812 105.3956069946289" stroke-width="1.5848214626312256" fill="none" stroke="rgb(89, 227, 220)" stroke-opacity="0.14918141" stroke-linecap="round" stroke-linejoin="round"/>
    <path d="M 70.29895782470703 173.69482421875 C 74.76776123046875 178.75674438476562 83.49127960205078 179.9564971923828 86.18211364746094 182.3160858154297 C 77.25558471679688 174.72605895996094 85.38388061523438 179.28335571289062 83.5032730102539 176.82342529296875" stroke-width="1.5848214626312256" fill="none" stroke="rgb(4, 39, 251)" stroke-opacity="0.038245864" stroke-linecap="round" stroke-linejoin="round"/>
    <path d="M 79.92387390136719 171.9697723388672 C 85.25943756103516 167.3348846435547 89.56715393066406 162.5534210205078 86.54412078857422 170.84317016601562 C 95.3221664428711 172.93496704101562 95.02264404296875 176.90347290039062 87.29276275634766 182.34010314941406" stroke-width="1.7433030605316162" fill="none" stroke="rgb(47, 255, 60)" stroke-opacity="0.43227974" stroke-linecap="round" stroke-linejoin="round"/>
    <path d="M 52.118675231933594 51.6954460144043 C 46.984493255615234 46.60528564453125 42.537296295166016 42.51152038574219 40.399085998535156 44.57394790649414 C 37.664859771728516 51.0625114440918 36.050228118896484 56.624473571777344 38.21018981933594 61.7191047668457 C 31.93014907836914 69.06149291992188 32.18891143798828 65.69654083251953 37.10423278808594 56.876773834228516" stroke-width="1.5848214626312256" fill="none" stroke="rgb(242, 36, 225)" stroke-opacity="0.43776166" stroke-linecap="round" stroke-linejoin="round"/>
  </g>
</svg>
