<?xml version="1.0" ?>
<svg xmlns="http://www.w3.org/2000/svg" version="1.1" width="1104.0" height="1104.0">
  <defs/>
  <g>
    <path d="M 67.68321228027344 127.95731353759766 C 113.78494262695312 143.0332489013672 162.20945739746094 137.63050842285156 162.87205505371094 131.10081481933594 C 163.58236694335938 124.53952026367188 114.09573364257812 107.29481506347656 75.59765625 121.26342010498047" stroke-width="4.600205898284912" fill="none" stroke="rgb(91, 90, 83)" stroke-opacity="1.0" stroke-linecap="round" stroke-linejoin="round"/>
    <path d="M 116.98484802246094 129.38796997070312 C 114.90335845947266 103.72586822509766 112.98576354980469 78.19258880615234 117.00553131103516 51.49595642089844" stroke-width="7.158944606781006" fill="none" stroke="rgb(163, 114, 20)" stroke-opacity="1.0" stroke-linecap="round" stroke-linejoin="round"/>
    <path d="M 118.0061264038086 84.0190658569336 C 127.29603576660156 76.7894058227539 135.8068084716797 76.69364166259766 137.46884155273438 77.23684692382812" stroke-width="2.739116907119751" fill="none" stroke="rgb(164, 113, 18)" stroke-opacity="1.0" stroke-linecap="round" stroke-linejoin="round"/>
    <path d="M 112.14720153808594 97.45695495605469 C 98.72660827636719 90.23419189453125 100.17999267578125 77.81686401367188 90.90330505371094 78.61993408203125" stroke-width="2.817514657974243" fill="none" stroke="rgb(164, 113, 18)" stroke-opacity="1.0" stroke-linecap="round" stroke-linejoin="round"/>
    <path d="M 118.86396789550781 51.44578552246094 C 119.22367095947266 39.108577728271484 130.7003936767578 33.59085464477539 134.3367919921875 30.876554489135742" stroke-width="3.5368845462799072" fill="none" stroke="rgb(165, 112, 19)" stroke-opacity="1.0" stroke-linecap="round" stroke-linejoin="round"/>
    <path d="M 116.96822357177734 51.54758071899414 C 110.56491088867188 41.462646484375 107.44845581054688 40.049259185791016 103.62226867675781 38.74075698852539" stroke-width="3.558683395385742" fill="none" stroke="rgb(164, 113, 18)" stroke-opacity="1.0" stroke-linecap="round" stroke-linejoin="round"/>
    <path d="M 103.5865478515625 38.691898345947266 C 103.59026336669922 38.69927215576172 104.46782684326172 34.91591262817383 103.21990203857422 33.78041076660156 C 102.0022964477539 32.66463851928711 99.95836639404297 31.364273071289062 99.96211242675781 31.36172866821289" stroke-width="2.0" fill="none" stroke="rgb(164, 113, 18)" stroke-opacity="1.0" stroke-linecap="round" stroke-linejoin="round"/>
    <path d="M 103.62786102294922 38.735530853271484 C 91.66450500488281 42.4335823059082 91.27009582519531 43.14995193481445 91.06290435791016 43.96096420288086" stroke-width="2.0" fill="none" stroke="rgb(165, 112, 18)" stroke-opacity="1.0" stroke-linecap="round" stroke-linejoin="round"/>
    <path d="M 137.4489288330078 77.2437515258789 C 137.44544982910156 77.24383544921875 136.56472778320312 73.49246978759766 137.79605102539062 72.33967590332031 C 139.05563354492188 71.22706604003906 141.1011199951172 69.92830657958984 141.10145568847656 69.9311752319336" stroke-width="2.0" fill="none" stroke="rgb(164, 113, 18)" stroke-opacity="1.0" stroke-linecap="round" stroke-linejoin="round"/>
    <path d="M 137.4452667236328 77.25727844238281 C 149.37974548339844 80.98112487792969 149.7767333984375 81.6882095336914 149.94570922851562 82.53541564941406" stroke-width="2.0" fill="none" stroke="rgb(165, 112, 19)" stroke-opacity="1.0" stroke-linecap="round" stroke-linejoin="round"/>
    <path d="M 134.3560028076172 30.921613693237305 C 134.35763549804688 30.919597625732422 138.15545654296875 32.262962341308594 139.75523376464844 31.7984619140625 C 141.36607360839844 31.337770462036133 142.99795532226562 32.91520309448242 142.99362182617188 32.9201545715332" stroke-width="2.0" fill="none" stroke="rgb(163, 112, 19)" stroke-opacity="1.0" stroke-linecap="round" stroke-linejoin="round"/>
    <path d="M 116.92236328125 51.53169631958008 C 116.94062805175781 51.54648208618164 120.23108673095703 47.22572708129883 121.84603118896484 46.74613952636719 C 123.45349884033203 46.28702926635742 126.40823364257812 47.65254211425781 126.40509796142578 47.65054702758789" stroke-width="2.0" fill="none" stroke="rgb(164, 113, 19)" stroke-opacity="1.0" stroke-linecap="round" stroke-linejoin="round"/>
    <path d="M 134.3793182373047 30.930702209472656 C 137.13784790039062 18.728364944458008 126.06719207763672 24.447023391723633 125.44458770751953 23.92130470275879" stroke-width="2.0" fill="none" stroke="rgb(164, 113, 19)" stroke-opacity="1.0" stroke-linecap="round" stroke-linejoin="round"/>
    <path d="M 112.2316665649414 69.23948669433594 C 112.18268585205078 69.28498840332031 111.7740478515625 65.00743865966797 110.55789184570312 63.85911560058594 C 109.36141967773438 62.700958251953125 107.31175994873047 61.40616226196289 107.3131103515625 61.402198791503906" stroke-width="2.0" fill="none" stroke="rgb(164, 113, 18)" stroke-opacity="1.0" stroke-linecap="round" stroke-linejoin="round"/>
    <path d="M 91.11760711669922 78.14678192138672 C 91.1182632446289 78.15032958984375 91.9896011352539 74.36873626708984 90.76911926269531 73.23905944824219 C 89.54434204101562 72.07884979248047 87.46946716308594 70.83245086669922 87.47297668457031 70.8166275024414" stroke-width="2.0" fill="none" stroke="rgb(165, 112, 19)" stroke-opacity="1.0" stroke-linecap="round" stroke-linejoin="round"/>
    <path d="M 91.15885162353516 78.19408416748047 C 82.37499237060547 85.81765747070312 79.34034729003906 83.22314453125 78.63697052001953 83.41850280761719" stroke-width="2.0" fill="none" stroke="rgb(164, 113, 18)" stroke-opacity="1.0" stroke-linecap="round" stroke-linejoin="round"/>
    <path d="M 75.9000244140625 84.78478240966797 C 74.09147644042969 89.62342071533203 69.81973266601562 95.35724639892578 65.73968505859375 96.42205810546875" stroke-width="3.1134510040283203" fill="none" stroke="rgb(28, 128, 14)" stroke-opacity="1.0" stroke-linecap="round" stroke-linejoin="round"/>
    <path d="M 75.90008544921875 84.77745056152344 C 63.22231674194336 88.45292663574219 65.48372650146484 96.22720336914062 65.73162078857422 96.38784790039062" stroke-width="3.1000921726226807" fill="none" stroke="rgb(28, 129, 14)" stroke-opacity="1.0" stroke-linecap="round" stroke-linejoin="round"/>
    <path d="M 77.82083129882812 84.15825653076172 C 69.40562438964844 89.66642761230469 66.89420318603516 93.20682525634766 65.6995620727539 96.40601348876953" stroke-width="2.0" fill="none" stroke="rgb(89, 230, 50)" stroke-opacity="1.0" stroke-linecap="round" stroke-linejoin="round"/>
    <path d="M 75.81718444824219 82.19377136230469 C 70.952392578125 83.98568725585938 63.82364273071289 84.4305191040039 60.400428771972656 82.00357055664062" stroke-width="3.08004093170166" fill="none" stroke="rgb(28, 128, 15)" stroke-opacity="1.0" stroke-linecap="round" stroke-linejoin="round"/>
    <path d="M 75.80848693847656 82.2220687866211 C 64.80103302001953 74.92070007324219 60.37777328491211 81.78144836425781 60.386714935302734 81.97016143798828" stroke-width="3.080573081970215" fill="none" stroke="rgb(28, 129, 15)" stroke-opacity="1.0" stroke-linecap="round" stroke-linejoin="round"/>
    <path d="M 78.62367248535156 83.4173812866211 C 72.56879425048828 80.35484313964844 64.30934143066406 80.75941467285156 61.430747985839844 82.07698822021484" stroke-width="2.0" fill="none" stroke="rgb(88, 229, 51)" stroke-opacity="1.0" stroke-linecap="round" stroke-linejoin="round"/>
    <path d="M 88.32971954345703 42.773216247558594 C 83.46395874023438 44.567626953125 76.2767562866211 45.01622009277344 72.82815551757812 42.55698013305664" stroke-width="3.095660448074341" fill="none" stroke="rgb(28, 128, 14)" stroke-opacity="1.0" stroke-linecap="round" stroke-linejoin="round"/>
    <path d="M 88.3304214477539 42.73301315307617 C 77.31842041015625 35.432186126708984 72.84410095214844 42.28402328491211 72.8602066040039 42.51863098144531" stroke-width="3.098818778991699" fill="none" stroke="rgb(28, 129, 15)" stroke-opacity="1.0" stroke-linecap="round" stroke-linejoin="round"/>
    <path d="M 91.08528137207031 43.980743408203125 C 81.44207000732422 41.13523483276367 77.19459533691406 41.49262237548828 73.93060302734375 42.62749481201172" stroke-width="2.0" fill="none" stroke="rgb(88, 230, 51)" stroke-opacity="1.0" stroke-linecap="round" stroke-linejoin="round"/>
    <path d="M 88.73928833007812 45.907344818115234 C 88.1343002319336 51.0367317199707 85.40856170654297 57.6597785949707 81.70463562011719 59.695281982421875" stroke-width="3.1019692420959473" fill="none" stroke="rgb(28, 129, 14)" stroke-opacity="1.0" stroke-linecap="round" stroke-linejoin="round"/>
    <path d="M 88.73766326904297 45.90474319458008 C 77.3420639038086 52.535125732421875 81.44395446777344 59.54307174682617 81.70240783691406 59.7000846862793" stroke-width="3.1099352836608887" fill="none" stroke="rgb(28, 128, 14)" stroke-opacity="1.0" stroke-linecap="round" stroke-linejoin="round"/>
    <path d="M 91.06580352783203 43.96751403808594 C 84.25167846679688 51.36298370361328 82.662109375 55.415199279785156 82.26023864746094 58.75020980834961" stroke-width="2.0" fill="none" stroke="rgb(89, 230, 50)" stroke-opacity="1.0" stroke-linecap="round" stroke-linejoin="round"/>
    <path d="M 84.49346923828125 70.44979095458984 C 80.27386474609375 73.463134765625 73.56317138671875 75.91069030761719 69.5629653930664 74.56897735595703" stroke-width="3.0883543491363525" fill="none" stroke="rgb(28, 129, 15)" stroke-opacity="1.0" stroke-linecap="round" stroke-linejoin="round"/>
    <path d="M 84.49566650390625 70.44174194335938 C 71.87967681884766 66.54729461669922 69.50191497802734 74.3075180053711 69.57181549072266 74.5519790649414" stroke-width="3.088020086288452" fill="none" stroke="rgb(28, 128, 15)" stroke-opacity="1.0" stroke-linecap="round" stroke-linejoin="round"/>
    <path d="M 87.49797058105469 70.80975341796875 C 77.44499206542969 70.82299041748047 73.39923095703125 72.40447998046875 70.61945343017578 74.39833068847656" stroke-width="2.0" fill="none" stroke="rgb(89, 230, 50)" stroke-opacity="1.0" stroke-linecap="round" stroke-linejoin="round"/>
    <path d="M 85.85706329345703 68.25289154052734 C 80.8279800415039 67.137451171875 74.59008026123047 63.508663177490234 73.06105041503906 59.58931350708008" stroke-width="3.088330030441284" fill="none" stroke="rgb(28, 129, 15)" stroke-opacity="1.0" stroke-linecap="round" stroke-linejoin="round"/>
    <path d="M 85.83484649658203 68.25875091552734 C 80.65227508544922 56.12263488769531 73.25021362304688 59.34923553466797 73.04043579101562 59.598167419433594" stroke-width="3.089829206466675" fill="none" stroke="rgb(29, 127, 15)" stroke-opacity="1.0" stroke-linecap="round" stroke-linejoin="round"/>
    <path d="M 86.26762390136719 69.75225830078125 C 80.20536804199219 62.93889617919922 76.07393646240234 60.296688079833984 72.66622924804688 59.21097946166992" stroke-width="2.0" fill="none" stroke="rgb(88, 229, 51)" stroke-opacity="1.0" stroke-linecap="round" stroke-linejoin="round"/>
    <path d="M 96.92169189453125 30.960023880004883 C 92.74026489257812 34.00547409057617 86.02893829345703 36.44981384277344 82.0285415649414 35.10875701904297" stroke-width="3.0859367847442627" fill="none" stroke="rgb(29, 129, 15)" stroke-opacity="1.0" stroke-linecap="round" stroke-linejoin="round"/>
    <path d="M 97.03185272216797 30.97585105895996 C 84.31021118164062 27.079601287841797 82.01455688476562 34.842132568359375 82.055419921875 35.120418548583984" stroke-width="3.109318494796753" fill="none" stroke="rgb(28, 128, 14)" stroke-opacity="1.0" stroke-linecap="round" stroke-linejoin="round"/>
    <path d="M 99.93612670898438 31.372398376464844 C 89.8868408203125 31.354413986206055 85.84161376953125 32.93436813354492 83.11576843261719 34.92404556274414" stroke-width="2.0" fill="none" stroke="rgb(89, 230, 50)" stroke-opacity="1.0" stroke-linecap="round" stroke-linejoin="round"/>
    <path d="M 98.32192993164062 28.802955627441406 C 93.26323699951172 27.683712005615234 87.0650863647461 24.084941864013672 85.5123291015625 20.159156799316406" stroke-width="3.0985167026519775" fill="none" stroke="rgb(28, 127, 14)" stroke-opacity="1.0" stroke-linecap="round" stroke-linejoin="round"/>
    <path d="M 98.29263305664062 28.83975601196289 C 93.08755493164062 16.70111083984375 85.66844940185547 19.881967544555664 85.53884887695312 20.134361267089844" stroke-width="3.0826568603515625" fill="none" stroke="rgb(29, 129, 14)" stroke-opacity="1.0" stroke-linecap="round" stroke-linejoin="round"/>
    <path d="M 99.94625091552734 31.38368034362793 C 93.47135162353516 23.675901412963867 89.65154266357422 21.617895126342773 86.35616302490234 20.817590713500977" stroke-width="2.0" fill="none" stroke="rgb(89, 230, 50)" stroke-opacity="1.0" stroke-linecap="round" stroke-linejoin="round"/>
    <path d="M 122.39794921875 23.49186897277832 C 118.22137451171875 26.5411319732666 111.50806427001953 28.972789764404297 107.5521011352539 27.658870697021484" stroke-width="3.0943820476531982" fill="none" stroke="rgb(29, 129, 15)" stroke-opacity="1.0" stroke-linecap="round" stroke-linejoin="round"/>
    <path d="M 122.38617706298828 23.524703979492188 C 109.823486328125 19.626523971557617 107.49371337890625 27.3845157623291 107.54939270019531 27.629444122314453" stroke-width="3.083874464035034" fill="none" stroke="rgb(27, 129, 14)" stroke-opacity="1.0" stroke-linecap="round" stroke-linejoin="round"/>
    <path d="M 125.43870544433594 23.905662536621094 C 115.38311767578125 23.897918701171875 111.3104476928711 25.482107162475586 108.5694808959961 27.45001792907715" stroke-width="2.0" fill="none" stroke="rgb(89, 230, 50)" stroke-opacity="1.0" stroke-linecap="round" stroke-linejoin="round"/>
    <path d="M 123.79763793945312 21.32781410217285 C 118.77539825439453 20.202985763549805 112.56523132324219 16.57908058166504 110.99720764160156 12.654552459716797" stroke-width="3.0884718894958496" fill="none" stroke="rgb(28, 128, 15)" stroke-opacity="1.0" stroke-linecap="round" stroke-linejoin="round"/>
    <path d="M 123.75029754638672 21.384639739990234 C 118.54588317871094 9.24070930480957 111.13311004638672 12.462623596191406 111.00434875488281 12.703063011169434" stroke-width="3.071604013442993" fill="none" stroke="rgb(29, 127, 15)" stroke-opacity="1.0" stroke-linecap="round" stroke-linejoin="round"/>
    <path d="M 125.42306518554688 23.901033401489258 C 118.91322326660156 16.220748901367188 115.10480499267578 14.163535118103027 111.83179473876953 13.35521125793457" stroke-width="2.0" fill="none" stroke="rgb(88, 229, 50)" stroke-opacity="1.0" stroke-linecap="round" stroke-linejoin="round"/>
    <path d="M 151.9185791015625 84.84519958496094 C 151.57095336914062 89.997314453125 153.08572387695312 96.98692321777344 156.35040283203125 99.64842987060547" stroke-width="3.088437795639038" fill="none" stroke="rgb(29, 127, 15)" stroke-opacity="1.0" stroke-linecap="round" stroke-linejoin="round"/>
    <path d="M 151.891845703125 84.87486267089844 C 161.92193603515625 93.4798812866211 156.6117401123047 99.57799530029297 156.3124542236328 99.6517333984375" stroke-width="3.091252565383911" fill="none" stroke="rgb(29, 129, 15)" stroke-opacity="1.0" stroke-linecap="round" stroke-linejoin="round"/>
    <path d="M 149.9472198486328 82.53211212158203 C 155.32489013671875 91.02580261230469 156.17323303222656 95.27823638916016 155.94830322265625 98.65646362304688" stroke-width="2.0" fill="none" stroke="rgb(89, 230, 50)" stroke-opacity="1.0" stroke-linecap="round" stroke-linejoin="round"/>
    <path d="M 153.0101776123047 82.53987884521484 C 156.72189331054688 86.15303802490234 163.0266876220703 89.52173614501953 167.16554260253906 88.74447631835938" stroke-width="3.106665849685669" fill="none" stroke="rgb(28, 128, 14)" stroke-opacity="1.0" stroke-linecap="round" stroke-linejoin="round"/>
    <path d="M 152.95887756347656 82.55503845214844 C 166.0032501220703 80.56550598144531 167.22698974609375 88.50193786621094 167.13534545898438 88.7177505493164" stroke-width="3.086068868637085" fill="none" stroke="rgb(28, 129, 15)" stroke-opacity="1.0" stroke-linecap="round" stroke-linejoin="round"/>
    <path d="M 149.97596740722656 82.50894165039062 C 159.93438720703125 83.85578155517578 163.71932983398438 86.0287094116211 166.15200805664062 88.382568359375" stroke-width="2.0" fill="none" stroke="rgb(89, 230, 50)" stroke-opacity="1.0" stroke-linecap="round" stroke-linejoin="round"/>
    <path d="M 144.90232849121094 35.31962585449219 C 144.56375122070312 40.47239303588867 146.1282958984375 47.410804748535156 149.38973999023438 50.080047607421875" stroke-width="3.0888924598693848" fill="none" stroke="rgb(29, 127, 14)" stroke-opacity="1.0" stroke-linecap="round" stroke-linejoin="round"/>
    <path d="M 144.93540954589844 35.3171272277832 C 154.94113159179688 43.88347244262695 149.6370391845703 50.029170989990234 149.3880615234375 50.1142578125" stroke-width="3.096712827682495" fill="none" stroke="rgb(29, 128, 14)" stroke-opacity="1.0" stroke-linecap="round" stroke-linejoin="round"/>
    <path d="M 142.9949188232422 32.93686294555664 C 148.37100219726562 41.43909454345703 149.197509765625 45.72145462036133 148.97970581054688 49.116607666015625" stroke-width="2.0" fill="none" stroke="rgb(89, 230, 50)" stroke-opacity="1.0" stroke-linecap="round" stroke-linejoin="round"/>
    <path d="M 146.0149383544922 33.00023651123047 C 149.72471618652344 36.58464050292969 156.05137634277344 39.94627380371094 160.20529174804688 39.181640625" stroke-width="3.102792739868164" fill="none" stroke="rgb(28, 128, 14)" stroke-opacity="1.0" stroke-linecap="round" stroke-linejoin="round"/>
    <path d="M 146.0112762451172 32.98243713378906 C 159.03981018066406 30.99785804748535 160.2638702392578 38.93120193481445 160.17576599121094 39.16159439086914" stroke-width="3.089986562728882" fill="none" stroke="rgb(28, 127, 15)" stroke-opacity="1.0" stroke-linecap="round" stroke-linejoin="round"/>
    <path d="M 142.97647094726562 32.95133972167969 C 152.961669921875 34.297264099121094 156.7477264404297 36.46640396118164 159.18353271484375 38.816856384277344" stroke-width="2.0" fill="none" stroke="rgb(89, 230, 50)" stroke-opacity="1.0" stroke-linecap="round" stroke-linejoin="round"/>
    <path d="M 126.9461898803711 50.758182525634766 C 124.07179260253906 55.06378173828125 121.88871765136719 61.87308883666992 123.33414459228516 65.80777740478516" stroke-width="3.0941460132598877" fill="none" stroke="rgb(29, 129, 14)" stroke-opacity="1.0" stroke-linecap="round" stroke-linejoin="round"/>
    <path d="M 126.91600799560547 50.71916198730469 C 131.30271911621094 63.21442794799805 123.64866638183594 65.81459045410156 123.36077117919922 65.7845230102539" stroke-width="3.089303970336914" fill="none" stroke="rgb(28, 128, 15)" stroke-opacity="1.0" stroke-linecap="round" stroke-linejoin="round"/>
    <path d="M 126.42367553710938 47.72063446044922 C 126.81968688964844 57.78144073486328 125.39801025390625 61.88003921508789 123.51359558105469 64.69788360595703" stroke-width="2.0" fill="none" stroke="rgb(89, 230, 50)" stroke-opacity="1.0" stroke-linecap="round" stroke-linejoin="round"/>
    <path d="M 129.01719665527344 49.314083099365234 C 130.467041015625 54.24510192871094 134.241455078125 60.31966018676758 138.2177734375 61.71843338012695" stroke-width="3.087113857269287" fill="none" stroke="rgb(28, 129, 15)" stroke-opacity="1.0" stroke-linecap="round" stroke-linejoin="round"/>
    <path d="M 129.05104064941406 49.3283576965332 C 141.38877868652344 53.97605514526367 138.45875549316406 61.51789474487305 138.2259063720703 61.70943832397461" stroke-width="3.092743158340454" fill="none" stroke="rgb(28, 129, 15)" stroke-opacity="1.0" stroke-linecap="round" stroke-linejoin="round"/>
    <path d="M 126.4306640625 47.75619125366211 C 134.34219360351562 53.93523406982422 136.55413818359375 57.676151275634766 137.50601196289062 60.90176773071289" stroke-width="2.0" fill="none" stroke="rgb(89, 230, 50)" stroke-opacity="1.0" stroke-linecap="round" stroke-linejoin="round"/>
    <path d="M 142.77542114257812 67.37837219238281 C 141.957763671875 62.27119064331055 142.7954864501953 55.19296646118164 145.79527282714844 52.22309494018555" stroke-width="3.116800546646118" fill="none" stroke="rgb(27, 128, 16)" stroke-opacity="1.0" stroke-linecap="round" stroke-linejoin="round"/>
    <path d="M 142.83262634277344 67.39283752441406 C 151.99790954589844 57.93513107299805 146.1331024169922 52.30971145629883 145.79611206054688 52.247135162353516" stroke-width="3.0891685485839844" fill="none" stroke="rgb(28, 128, 14)" stroke-opacity="1.0" stroke-linecap="round" stroke-linejoin="round"/>
    <path d="M 141.06300354003906 69.89556884765625 C 145.651611328125 60.93746566772461 146.06893920898438 56.64543914794922 145.536376953125 53.286537170410156" stroke-width="2.0" fill="none" stroke="rgb(89, 230, 50)" stroke-opacity="1.0" stroke-linecap="round" stroke-linejoin="round"/>
    <path d="M 144.08883666992188 69.58146667480469 C 147.44461059570312 65.66600799560547 153.4346160888672 61.746002197265625 157.62564086914062 62.13174057006836" stroke-width="3.0965261459350586" fill="none" stroke="rgb(28, 128, 14)" stroke-opacity="1.0" stroke-linecap="round" stroke-linejoin="round"/>
    <path d="M 144.1167449951172 69.59239196777344 C 157.27056884765625 70.50525665283203 157.73123168945312 62.347877502441406 157.60841369628906 62.12583923339844" stroke-width="3.103788375854492" fill="none" stroke="rgb(28, 128, 14)" stroke-opacity="1.0" stroke-linecap="round" stroke-linejoin="round"/>
    <path d="M 141.09080505371094 69.87320709228516 C 150.8789825439453 67.588134765625 154.44969177246094 65.12792205810547 156.64547729492188 62.53781509399414" stroke-width="2.0" fill="none" stroke="rgb(89, 230, 50)" stroke-opacity="1.0" stroke-linecap="round" stroke-linejoin="round"/>
    <path d="M 104.24305725097656 61.002708435058594 C 100.07030487060547 64.06517028808594 93.35765075683594 66.50762176513672 89.3505859375 65.15476989746094" stroke-width="3.091524362564087" fill="none" stroke="rgb(28, 128, 14)" stroke-opacity="1.0" stroke-linecap="round" stroke-linejoin="round"/>
    <path d="M 104.29325103759766 61.05192565917969 C 91.6744384765625 57.14607620239258 89.29620361328125 64.9007568359375 89.35738372802734 65.19407653808594" stroke-width="3.110623598098755" fill="none" stroke="rgb(28, 128, 14)" stroke-opacity="1.0" stroke-linecap="round" stroke-linejoin="round"/>
    <path d="M 107.30340576171875 61.40631866455078 C 97.24952697753906 61.418846130371094 93.15469360351562 62.95693588256836 90.41411590576172 64.95101928710938" stroke-width="2.0" fill="none" stroke="rgb(89, 230, 50)" stroke-opacity="1.0" stroke-linecap="round" stroke-linejoin="round"/>
    <path d="M 105.61334228515625 59.266998291015625 C 100.58975982666016 57.96796798706055 94.4345932006836 54.564945220947266 92.86515808105469 50.6002197265625" stroke-width="3.0818450450897217" fill="none" stroke="rgb(28, 128, 14)" stroke-opacity="1.0" stroke-linecap="round" stroke-linejoin="round"/>
    <path d="M 105.62303161621094 58.884185791015625 C 100.45510864257812 46.70991516113281 93.03854370117188 49.931488037109375 92.8331527709961 50.18442916870117" stroke-width="3.0837321281433105" fill="none" stroke="rgb(29, 127, 15)" stroke-opacity="1.0" stroke-linecap="round" stroke-linejoin="round"/>
    <path d="M 106.65620422363281 60.5545539855957 C 100.16253662109375 52.86894607543945 96.32234954833984 50.8348388671875 93.04924011230469 50.026432037353516" stroke-width="2.0" fill="none" stroke="rgb(89, 230, 50)" stroke-opacity="1.0" stroke-linecap="round" stroke-linejoin="round"/>
    <path d="M 76.84220886230469 138.22142028808594 C 116.68883514404297 152.94912719726562 150.1758575439453 146.51905822753906 152.7565460205078 145.64112854003906" stroke-width="7.167082786560059" fill="none" stroke="rgb(214, 67, 26)" stroke-opacity="1.0" stroke-linecap="round" stroke-linejoin="round"/>
  </g>
</svg>
