<?xml version="1.0" ?>
<svg xmlns="http://www.w3.org/2000/svg" version="1.1" width="122.0" height="122.0">
  <defs/>
  <g>
    <path d="M 65.18665313720703 25.798612594604492 C 65.59004211425781 24.636157989501953 66.09674835205078 24.276615142822266 65.85493469238281 25.428823471069336 C 66.27264404296875 24.418548583984375 65.87061309814453 23.583446502685547 67.52186584472656 22.511497497558594 C 69.19921112060547 21.435558319091797 73.10426330566406 18.395780563354492 74.41338348388672 23.617300033569336 C 77.30615997314453 27.02884292602539 78.02877807617188 36.76371765136719 77.99312591552734 41.90283203125 C 79.1487045288086 46.75606918334961 77.80879974365234 46.41904830932617 76.04235076904297 47.37492752075195 C 75.10755157470703 48.13853454589844 75.78140258789062 52.413978576660156 75.478271484375 54.75050354003906 C 75.71646881103516 56.74460220336914 74.99675750732422 57.304996490478516 72.23091888427734 57.67489242553711 C 69.59624481201172 58.556549072265625 65.96075439453125 60.2331657409668 63.57776641845703 62.654747009277344 C 60.24916076660156 64.09870147705078 57.186767578125 65.34691619873047 54.34330368041992 65.88277435302734 C 51.784725189208984 66.05219268798828 49.54081344604492 67.169677734375 49.191524505615234 68.980224609375 C 49.52375411987305 70.66910552978516 52.8087158203125 73.55215454101562 55.49882507324219 77.681640625 C 60.00118637084961 79.75318145751953 58.60556411743164 85.92318725585938 58.93699645996094 93.09416198730469" stroke-width="2.1340155601501465" fill="none" stroke="rgb(48, 39, 11)" stroke-opacity="0.8353647" stroke-linecap="round" stroke-linejoin="round"/>
    <path d="M 73.29586029052734 22.581233978271484 C 76.67375183105469 19.97859001159668 80.23938751220703 17.141937255859375 83.79638671875 13.690045356750488 C 86.0896224975586 9.29665756225586 81.21915435791016 11.586010932922363 74.132568359375 14.055712699890137" stroke-width="2.2341933250427246" fill="none" stroke="rgb(137, 255, 220)" stroke-opacity="0.28410956" stroke-linecap="round" stroke-linejoin="round"/>
    <path d="M 74.54158020019531 40.457576751708984 C 74.66621398925781 41.093902587890625 72.15467834472656 41.42660140991211 70.48464965820312 41.07977294921875 C 69.14049530029297 40.86799621582031 74.68885803222656 45.942195892333984 80.46392059326172 50.9963264465332" stroke-width="2.280071258544922" fill="none" stroke="rgb(31, 255, 222)" stroke-opacity="0.8508547" stroke-linecap="round" stroke-linejoin="round"/>
    <path d="M 56.33054733276367 78.42012786865234 C 56.69194412231445 76.38787078857422 57.462730407714844 77.86637115478516 63.4124870300293 75.84174346923828" stroke-width="1.395731806755066" fill="none" stroke="rgb(63, 100, 117)" stroke-opacity="0.86360574" stroke-linecap="round" stroke-linejoin="round"/>
    <path d="M 65.1926498413086 62.92515563964844 C 72.57865905761719 65.6528549194336 72.61717987060547 68.16683197021484 63.91896438598633 69.50659942626953" stroke-width="1.0892857313156128" fill="none" stroke="rgb(128, 235, 122)" stroke-opacity="0.362515" stroke-linecap="round" stroke-linejoin="round"/>
    <path d="M 78.85541534423828 42.6069450378418 C 80.74996185302734 43.30487823486328 79.06558227539062 36.46463394165039 78.54634857177734 33.384552001953125" stroke-width="1.109727382659912" fill="none" stroke="rgb(59, 16, 116)" stroke-opacity="0.1651192" stroke-linecap="round" stroke-linejoin="round"/>
    <path d="M 64.74393463134766 26.135774612426758 C 63.557029724121094 25.88276481628418 61.31174087524414 25.72104263305664 58.30442810058594 26.30252456665039 C 56.075408935546875 25.88948631286621 55.926509857177734 23.914737701416016 56.89014434814453 20.549114227294922" stroke-width="1.0892857313156128" fill="none" stroke="rgb(108, 220, 177)" stroke-opacity="0.40812412" stroke-linecap="round" stroke-linejoin="round"/>
    <path d="M 73.81051635742188 49.26795959472656 C 70.75277709960938 49.368019104003906 65.24852752685547 50.18735122680664 71.79920196533203 50.42737579345703" stroke-width="1.50745689868927" fill="none" stroke="rgb(169, 255, 213)" stroke-opacity="0.360236" stroke-linecap="round" stroke-linejoin="round"/>
    <path d="M 63.5723762512207 61.63690948486328 C 66.3023452758789 59.165348052978516 68.01295471191406 64.59232330322266 62.04536056518555 66.09326171875" stroke-width="1.0892857313156128" fill="none" stroke="rgb(34, 229, 172)" stroke-opacity="0.45601553" stroke-linecap="round" stroke-linejoin="round"/>
    <path d="M 74.34773254394531 51.159664154052734 C 72.20941162109375 52.395851135253906 69.6963119506836 54.81680679321289 66.7414779663086 56.92490768432617 C 65.44328308105469 59.263614654541016 65.85421752929688 53.621639251708984 65.67742156982422 48.02265167236328" stroke-width="1.0892857313156128" fill="none" stroke="rgb(100, 174, 138)" stroke-opacity="0.14739579" stroke-linecap="round" stroke-linejoin="round"/>
    <path d="M 64.21070861816406 70.13742065429688 C 66.1146240234375 66.52946472167969 69.1875 62.29829025268555 68.40807342529297 59.26657485961914 C 68.09083557128906 55.165653228759766 65.58645629882812 50.842689514160156 64.50349426269531 44.98722457885742 C 61.01567077636719 40.87005615234375 61.399654388427734 48.12144088745117 63.24018859863281 54.58232116699219" stroke-width="2.0252697467803955" fill="none" stroke="rgb(31, 224, 210)" stroke-opacity="0.25230098" stroke-linecap="round" stroke-linejoin="round"/>
    <path d="M 63.256202697753906 69.80352020263672 C 61.64542770385742 63.08787155151367 63.46583938598633 60.76142883300781 62.45295715332031 51.62541961669922" stroke-width="1.6077321767807007" fill="none" stroke="rgb(221, 38, 97)" stroke-opacity="0.636576" stroke-linecap="round" stroke-linejoin="round"/>
    <path d="M 79.34436798095703 36.20842361450195 C 81.41741180419922 28.181386947631836 79.64530944824219 32.206905364990234 78.48139190673828 30.502891540527344" stroke-width="2.05295467376709" fill="none" stroke="rgb(167, 51, 12)" stroke-opacity="0.19377036" stroke-linecap="round" stroke-linejoin="round"/>
    <path d="M 79.77892303466797 35.67571258544922 C 82.77645874023438 33.90890121459961 84.90780639648438 31.785051345825195 86.43880462646484 29.375551223754883 C 87.56331634521484 26.797067642211914 86.18428039550781 26.34341049194336 85.07064819335938 24.005016326904297" stroke-width="2.3401553630828857" fill="none" stroke="rgb(238, 85, 184)" stroke-opacity="0.017043378" stroke-linecap="round" stroke-linejoin="round"/>
    <path d="M 63.373802185058594 75.71601867675781 C 66.44573974609375 72.98213958740234 71.68841552734375 76.9402847290039 68.66699981689453 73.67671966552734" stroke-width="2.027366876602173" fill="none" stroke="rgb(58, 51, 0)" stroke-opacity="0.21744499" stroke-linecap="round" stroke-linejoin="round"/>
    <path d="M 62.713348388671875 65.68650817871094 C 65.5296630859375 71.57688903808594 66.6844711303711 78.59172821044922 64.27217864990234 80.71136474609375 C 63.22152328491211 84.01837158203125 58.827999114990234 82.04097747802734 53.305091857910156 79.99276733398438 C 48.20238494873047 76.87654876708984 50.27605438232422 74.62274169921875 51.68152618408203 73.11284637451172" stroke-width="1.4439196586608887" fill="none" stroke="rgb(48, 167, 22)" stroke-opacity="0.14667314" stroke-linecap="round" stroke-linejoin="round"/>
    <path d="M 65.32785034179688 75.91631317138672 C 64.0028305053711 76.6244125366211 63.34658432006836 77.26005554199219 60.909305572509766 76.78821563720703 C 59.97365951538086 77.42571258544922 60.118896484375 72.00102233886719 60.059234619140625 67.46755981445312" stroke-width="1.211176872253418" fill="none" stroke="rgb(77, 159, 133)" stroke-opacity="0.51835626" stroke-linecap="round" stroke-linejoin="round"/>
    <path d="M 113.35137176513672 73.67733001708984 C 112.04087829589844 74.05329895019531 110.8565902709961 73.19103240966797 112.02498626708984 70.20532989501953 C 112.91690063476562 67.70507049560547 113.95165252685547 63.029144287109375 114.06376647949219 57.39722442626953 C 117.53731536865234 54.626678466796875 111.05863189697266 62.066707611083984 104.46622467041016 68.97064971923828" stroke-width="1.3686106204986572" fill="none" stroke="rgb(174, 255, 0)" stroke-opacity="0.30400544" stroke-linecap="round" stroke-linejoin="round"/>
    <path d="M 21.352529525756836 59.964942932128906 C 24.11820411682129 58.75710678100586 25.016260147094727 57.28135299682617 26.808961868286133 55.769290924072266 C 28.922348022460938 55.507259368896484 24.509580612182617 55.742340087890625 19.240833282470703 56.97982406616211" stroke-width="1.2876341342926025" fill="none" stroke="rgb(97, 195, 37)" stroke-opacity="0.1298082" stroke-linecap="round" stroke-linejoin="round"/>
    <path d="M 10.779608726501465 86.38019561767578 C 9.88510513305664 85.61433410644531 6.3407673835754395 85.64399719238281 3.2985241413116455 86.55311584472656 C 1.734387755393982 87.10126495361328 5.476574897766113 80.12480926513672 7.974339485168457 72.16795349121094" stroke-width="1.0892857313156128" fill="none" stroke="rgb(118, 48, 71)" stroke-opacity="0.6315124" stroke-linecap="round" stroke-linejoin="round"/>
    <path d="M 74.74718475341797 89.9482421875 C 69.04684448242188 92.79513549804688 63.22587585449219 96.3219223022461 66.81407165527344 93.87466430664062" stroke-width="1.0892857313156128" fill="none" stroke="rgb(126, 228, 188)" stroke-opacity="0.7256948" stroke-linecap="round" stroke-linejoin="round"/>
    <path d="M 66.43856048583984 68.68440246582031 C 70.19371795654297 76.83409881591797 66.88435363769531 76.03336334228516 60.33796691894531 77.2131576538086" stroke-width="1.5757648944854736" fill="none" stroke="rgb(180, 128, 128)" stroke-opacity="0.45968878" stroke-linecap="round" stroke-linejoin="round"/>
    <path d="M 84.69850158691406 -1.545740008354187 C 84.81927490234375 -1.8153599500656128 84.9388427734375 -2.0837600231170654 83.84693908691406 -1.1882801055908203 C 82.75382232666016 -0.29280009865760803 80.4492416381836 1.7665599584579468 78.74717712402344 4.227828025817871 C 76.57527160644531 6.576653480529785 75.84430694580078 11.47695255279541 75.09200286865234 16.32859230041504" stroke-width="1.0892857313156128" fill="none" stroke="rgb(105, 212, 160)" stroke-opacity="0.0" stroke-linecap="round" stroke-linejoin="round"/>
    <path d="M 67.89889526367188 74.8050308227539 C 74.70490264892578 71.88858032226562 77.58343505859375 72.10724639892578 83.95765686035156 68.64067077636719" stroke-width="2.7349984645843506" fill="none" stroke="rgb(255, 58, 62)" stroke-opacity="0.4666455" stroke-linecap="round" stroke-linejoin="round"/>
    <path d="M 105.73574829101562 79.9985122680664 C 107.31835174560547 76.30074310302734 109.09745025634766 71.15531158447266 108.13330841064453 71.180419921875 C 107.83605194091797 71.76341247558594 103.49239349365234 76.24337005615234 98.00346374511719 81.45317077636719 C 93.22764587402344 83.75452423095703 98.7563247680664 87.0802993774414 106.02812194824219 90.33531188964844" stroke-width="1.0892857313156128" fill="none" stroke="rgb(142, 110, 126)" stroke-opacity="0.3668298" stroke-linecap="round" stroke-linejoin="round"/>
    <path d="M 115.39124298095703 28.923795700073242 C 116.60272216796875 20.254779815673828 108.67089080810547 19.198274612426758 107.76786041259766 29.415620803833008" stroke-width="1.0892857313156128" fill="none" stroke="rgb(147, 37, 255)" stroke-opacity="0.77547556" stroke-linecap="round" stroke-linejoin="round"/>
    <path d="M 110.5543212890625 113.67709350585938 C 107.44036102294922 108.04041290283203 104.46774291992188 103.4859848022461 104.72167205810547 103.61412811279297 C 104.74925231933594 104.10689544677734 109.58643341064453 107.60972595214844 116.00133514404297 110.7196044921875 C 120.88018035888672 114.90194702148438 113.7221908569336 115.72745513916016 106.35488891601562 116.75735473632812" stroke-width="1.2840569019317627" fill="none" stroke="rgb(155, 85, 244)" stroke-opacity="0.13571271" stroke-linecap="round" stroke-linejoin="round"/>
    <path d="M 80.54248809814453 110.38695526123047 C 84.1360092163086 110.0748519897461 87.58419036865234 110.6738052368164 88.26229095458984 111.29906463623047 C 88.9394760131836 111.92721557617188 86.65674591064453 113.61062622070312 84.0121841430664 112.95633697509766 C 81.66494750976562 114.98213958740234 83.79966735839844 120.33946228027344 86.10437774658203 125.72806549072266" stroke-width="1.3859014511108398" fill="none" stroke="rgb(226, 219, 216)" stroke-opacity="0.043599207" stroke-linecap="round" stroke-linejoin="round"/>
    <path d="M 74.67108154296875 90.39923858642578 C 78.64116668701172 88.88221740722656 82.45206451416016 86.09465026855469 86.36486053466797 83.41999053955078 C 91.64368438720703 81.0479965209961 93.49828338623047 78.69109344482422 93.22704315185547 75.36888885498047" stroke-width="1.2257912158966064" fill="none" stroke="rgb(153, 202, 184)" stroke-opacity="0.64557415" stroke-linecap="round" stroke-linejoin="round"/>
    <path d="M 6.7621541023254395 85.58191680908203 C 6.8499369621276855 85.45481872558594 10.465725898742676 87.31681823730469 20.325096130371094 83.92253875732422" stroke-width="1.544663429260254" fill="none" stroke="rgb(47, 8, 255)" stroke-opacity="0.7303586" stroke-linecap="round" stroke-linejoin="round"/>
    <path d="M 117.78321075439453 -1.8044747114181519 C 117.91509246826172 -0.42355555295944214 118.12779998779297 0.8622666597366333 118.3012924194336 1.817906379699707 C 120.1733169555664 3.0176656246185303 120.44036865234375 1.880841612815857 120.5437240600586 -0.21420200169086456" stroke-width="1.2323359251022339" fill="none" stroke="rgb(169, 239, 76)" stroke-opacity="0.2530715" stroke-linecap="round" stroke-linejoin="round"/>
    <path d="M 95.1249008178711 7.200308322906494 C 98.13628387451172 7.8696064949035645 93.78089904785156 7.323636531829834 94.2436294555664 17.083110809326172" stroke-width="1.0892857313156128" fill="none" stroke="rgb(149, 197, 113)" stroke-opacity="0.2645403" stroke-linecap="round" stroke-linejoin="round"/>
    <path d="M 80.09730529785156 62.634098052978516 C 81.5137710571289 64.9222640991211 84.2243881225586 65.57975006103516 86.4875259399414 66.76882934570312 C 87.89332580566406 68.6286849975586 86.10856628417969 63.613712310791016 82.96995544433594 59.2216911315918" stroke-width="1.349906086921692" fill="none" stroke="rgb(49, 0, 255)" stroke-opacity="0.73203033" stroke-linecap="round" stroke-linejoin="round"/>
    <path d="M 40.98747634887695 13.451160430908203 C 42.70602798461914 13.621092796325684 41.75215148925781 14.227378845214844 40.75921630859375 13.746783256530762 C 40.05989074707031 13.547752380371094 39.51655197143555 13.640437126159668 38.93899917602539 13.743738174438477 C 36.18199157714844 14.264933586120605 35.23079299926758 16.63393783569336 35.10470199584961 18.84859275817871 C 33.93730545043945 22.454179763793945 32.694244384765625 25.377546310424805 32.77926254272461 27.723098754882812 C 33.18526077270508 29.626888275146484 32.73307800292969 32.572872161865234 32.81654739379883 34.43979263305664 C 34.26737976074219 35.282630920410156 34.32907485961914 36.72751235961914 34.31721878051758 38.996917724609375 C 33.94777297973633 40.70724105834961 37.2252311706543 41.948143005371094 38.03904724121094 43.300785064697266 C 40.112388610839844 46.294891357421875 42.31046676635742 49.16013717651367 45.84882354736328 50.68212890625 C 47.60215759277344 54.39458465576172 47.84825897216797 56.74863052368164 48.225826263427734 60.82037353515625 C 49.1239128112793 61.22550582885742 49.26856231689453 62.34705352783203 49.606266021728516 62.99674987792969 C 49.164546966552734 63.71438980102539 46.40782928466797 62.929466247558594 45.58109664916992 63.54615020751953 C 43.627838134765625 65.90343475341797 41.47685623168945 68.15388488769531 39.771705627441406 70.73896026611328 C 36.73323440551758 74.29387664794922 36.62712860107422 75.55130004882812 31.681509017944336 77.11497497558594 C 29.870750427246094 78.28753662109375 28.013031005859375 79.24122619628906 27.0202693939209 80.07475280761719" stroke-width="1.0892857313156128" fill="none" stroke="rgb(14, 33, 18)" stroke-opacity="0.965939" stroke-linecap="round" stroke-linejoin="round"/>
    <path d="M 37.256492614746094 115.50161743164062 C 37.48434829711914 116.92387390136719 37.291011810302734 113.68190002441406 37.414024353027344 113.4614028930664 C 37.38045120239258 106.75033569335938 37.150733947753906 99.80389404296875 37.991703033447266 92.70880889892578 C 37.412845611572266 71.0632095336914 36.87210464477539 49.63330078125 37.590850830078125 29.0773983001709" stroke-width="1.3870902061462402" fill="none" stroke="rgb(34, 14, 28)" stroke-opacity="0.9822332" stroke-linecap="round" stroke-linejoin="round"/>
    <path d="M 56.89339828491211 26.67246437072754 C 57.408912658691406 25.525440216064453 57.1953239440918 25.47524642944336 56.8029670715332 26.20850372314453 C 54.51021194458008 26.349853515625 53.185062408447266 26.551923751831055 52.77556610107422 26.492061614990234 C 50.10679244995117 25.72405242919922 46.90532302856445 25.288166046142578 45.55335998535156 25.027902603149414 C 43.218631744384766 24.48154067993164 39.84564208984375 24.606678009033203 38.21892547607422 23.30990219116211 C 37.156463623046875 23.137657165527344 36.65768814086914 22.69342803955078 37.15886306762695 22.701894760131836 C 33.421363830566406 22.38783073425293 29.911222457885742 21.44923210144043 27.26206398010254 20.454214096069336" stroke-width="1.2559336423873901" fill="none" stroke="rgb(29, 33, 14)" stroke-opacity="0.96644455" stroke-linecap="round" stroke-linejoin="round"/>
    <path d="M 63.96756362915039 67.8712387084961 C 66.23698425292969 70.44466400146484 61.74094772338867 70.12127685546875 55.77412414550781 68.67052459716797 C 60.303470611572266 73.48974609375 56.98646545410156 79.14730834960938 58.75617218017578 80.25483703613281" stroke-width="1.5187444686889648" fill="none" stroke="rgb(180, 126, 150)" stroke-opacity="0.74432653" stroke-linecap="round" stroke-linejoin="round"/>
    <path d="M 39.976802825927734 70.18480682373047 C 39.22286605834961 71.99452209472656 35.65769577026367 76.3282241821289 40.92808151245117 81.70149993896484 C 38.6846923828125 82.22517395019531 44.16476058959961 81.77721405029297 47.74362564086914 77.23698425292969" stroke-width="1.0892857313156128" fill="none" stroke="rgb(109, 145, 98)" stroke-opacity="0.06360716" stroke-linecap="round" stroke-linejoin="round"/>
    <path d="M 63.273441314697266 66.1649398803711 C 68.72036743164062 68.54656982421875 71.12657928466797 63.949092864990234 65.8704833984375 59.88711929321289 C 65.27091979980469 54.694881439208984 62.992855072021484 61.32453536987305 66.11211395263672 63.77997589111328" stroke-width="1.1482802629470825" fill="none" stroke="rgb(72, 133, 3)" stroke-opacity="0.0074975826" stroke-linecap="round" stroke-linejoin="round"/>
    <path d="M 68.88684844970703 73.68023681640625 C 67.30490112304688 74.97464752197266 65.08110046386719 75.90554809570312 62.92441940307617 76.14728546142578 C 62.40458297729492 74.90827178955078 67.24866485595703 79.76956176757812 72.28067779541016 81.88880920410156" stroke-width="1.0892857313156128" fill="none" stroke="rgb(83, 13, 220)" stroke-opacity="0.60994726" stroke-linecap="round" stroke-linejoin="round"/>
    <path d="M 79.22894287109375 31.139625549316406 C 81.61676788330078 26.198707580566406 76.55635833740234 29.638240814208984 80.93817138671875 34.22996139526367 C 80.9420166015625 40.731285095214844 84.24356079101562 42.97336959838867 81.03378295898438 48.57167434692383" stroke-width="1.0892857313156128" fill="none" stroke="rgb(88, 126, 81)" stroke-opacity="0.12853134" stroke-linecap="round" stroke-linejoin="round"/>
    <path d="M 75.26956176757812 41.736297607421875 C 75.71953582763672 43.37114715576172 78.1095199584961 43.143863677978516 80.95735168457031 44.822662353515625" stroke-width="1.476594090461731" fill="none" stroke="rgb(152, 240, 193)" stroke-opacity="0.30228266" stroke-linecap="round" stroke-linejoin="round"/>
    <path d="M 75.74848175048828 91.18880462646484 C 78.63761901855469 86.10391235351562 74.35643005371094 84.88858032226562 79.12361145019531 81.13636779785156 C 75.24252319335938 83.79244995117188 72.2021255493164 83.71318817138672 70.03009033203125 81.07341766357422" stroke-width="1.291221261024475" fill="none" stroke="rgb(121, 94, 115)" stroke-opacity="0.7904055" stroke-linecap="round" stroke-linejoin="round"/>
    <path d="M 85.21830749511719 29.68178367614746 C 83.12162017822266 24.285140991210938 87.15271759033203 28.10855484008789 90.04972076416016 25.401968002319336" stroke-width="1.0892857313156128" fill="none" stroke="rgb(9, 211, 49)" stroke-opacity="0.63832194" stroke-linecap="round" stroke-linejoin="round"/>
    <path d="M 58.25149154663086 80.22875213623047 C 54.1609001159668 85.2706069946289 53.86264419555664 82.19633483886719 49.82389450073242 80.687255859375" stroke-width="1.0892857313156128" fill="none" stroke="rgb(85, 47, 26)" stroke-opacity="0.016728025" stroke-linecap="round" stroke-linejoin="round"/>
    <path d="M 70.00875854492188 81.3549575805664 C 68.21968078613281 85.11412048339844 68.75912475585938 90.03466033935547 65.63435363769531 87.69123077392578 C 61.5839729309082 82.38679504394531 57.29113006591797 87.18370819091797 59.03327178955078 90.8857421875 C 61.06687545776367 86.86260223388672 55.69247055053711 84.6885757446289 56.14329528808594 86.17021942138672" stroke-width="1.0892857313156128" fill="none" stroke="rgb(24, 191, 220)" stroke-opacity="0.4261504" stroke-linecap="round" stroke-linejoin="round"/>
    <path d="M 65.89260864257812 63.970306396484375 C 64.93534088134766 60.79532241821289 66.09410095214844 61.95576477050781 65.64216613769531 59.25682830810547 C 67.61966705322266 64.46385192871094 69.91848754882812 58.75193405151367 70.9207763671875 60.197914123535156 C 66.78055572509766 58.754520416259766 70.54312133789062 60.98977279663086 75.9759292602539 56.63798522949219" stroke-width="1.3398100137710571" fill="none" stroke="rgb(215, 19, 83)" stroke-opacity="0.8508207" stroke-linecap="round" stroke-linejoin="round"/>
    <path d="M 58.60088348388672 81.18566131591797 C 61.8090705871582 83.46414947509766 66.4541015625 87.44364929199219 62.413150787353516 93.0950698852539 C 59.18653106689453 94.85741424560547 57.876155853271484 96.02515411376953 53.77509307861328 96.97549438476562" stroke-width="1.0892857313156128" fill="none" stroke="rgb(234, 162, 234)" stroke-opacity="0.95734435" stroke-linecap="round" stroke-linejoin="round"/>
    <path d="M 80.78456115722656 45.787696838378906 C 86.43358612060547 48.31558609008789 85.3556900024414 50.050411224365234 78.62689971923828 53.13572311401367 C 77.31607818603516 54.137779235839844 73.31922149658203 48.41349411010742 77.13426208496094 52.672645568847656" stroke-width="1.0892857313156128" fill="none" stroke="rgb(147, 216, 188)" stroke-opacity="0.8822606" stroke-linecap="round" stroke-linejoin="round"/>
    <path d="M 65.99909210205078 63.8480224609375 C 70.131591796875 66.17730712890625 74.51497650146484 65.22356414794922 79.58572387695312 71.25481414794922 C 86.13768768310547 68.18746185302734 83.84347534179688 70.65034484863281 79.11270904541016 65.05382537841797 C 82.17210388183594 62.27313232421875 82.09333038330078 67.13217163085938 78.97847747802734 71.14229583740234" stroke-width="1.4904283285140991" fill="none" stroke="rgb(179, 62, 73)" stroke-opacity="0.34055007" stroke-linecap="round" stroke-linejoin="round"/>
    <path d="M 66.16361999511719 63.81455612182617 C 62.43913650512695 59.9853515625 68.55572509765625 59.10294723510742 73.14402770996094 55.6136360168457" stroke-width="1.1501657962799072" fill="none" stroke="rgb(247, 18, 80)" stroke-opacity="0.29649448" stroke-linecap="round" stroke-linejoin="round"/>
    <path d="M 81.01472473144531 48.45874786376953 C 81.16799926757812 43.56507873535156 86.5180435180664 46.58314514160156 84.61013793945312 41.14216232299805" stroke-width="1.1915218830108643" fill="none" stroke="rgb(73, 48, 83)" stroke-opacity="0.3954729" stroke-linecap="round" stroke-linejoin="round"/>
    <path d="M 66.31914520263672 34.11701202392578 C 69.45014953613281 33.30913162231445 69.34021759033203 33.92634582519531 74.85956573486328 36.097694396972656" stroke-width="1.0892857313156128" fill="none" stroke="rgb(186, 219, 30)" stroke-opacity="0.64083505" stroke-linecap="round" stroke-linejoin="round"/>
    <path d="M 5.430694103240967 56.067623138427734 C 6.967619895935059 54.038516998291016 7.111706256866455 50.27931594848633 8.202919006347656 46.04098129272461" stroke-width="1.0892857313156128" fill="none" stroke="rgb(39, 0, 142)" stroke-opacity="0.003768796" stroke-linecap="round" stroke-linejoin="round"/>
    <path d="M 98.85035705566406 46.375091552734375 C 102.9645767211914 44.75961685180664 97.41885375976562 50.333194732666016 90.53296661376953 48.116546630859375" stroke-width="1.0892857313156128" fill="none" stroke="rgb(69, 181, 152)" stroke-opacity="0.7815268" stroke-linecap="round" stroke-linejoin="round"/>
    <path d="M 37.78561019897461 93.18585205078125 C 41.95652770996094 92.1611328125 37.54644775390625 96.77827453613281 36.7751350402832 102.33113861083984 C 37.616729736328125 101.0373306274414 43.5853271484375 102.52580261230469 45.414283752441406 99.57479858398438 C 40.21411895751953 100.42533874511719 41.41004180908203 97.62825775146484 37.83807373046875 96.2616958618164" stroke-width="1.1638503074645996" fill="none" stroke="rgb(30, 0, 114)" stroke-opacity="0.19175729" stroke-linecap="round" stroke-linejoin="round"/>
    <path d="M 81.5433349609375 87.33499145507812 C 80.67259979248047 80.53333282470703 81.26335144042969 79.63191223144531 76.51947784423828 78.58440399169922 C 70.6101303100586 74.47264099121094 66.04197692871094 70.4598388671875 62.45018768310547 73.1256103515625 C 61.42369842529297 78.5050048828125 58.41520690917969 83.6177978515625 59.3334846496582 83.38156127929688" stroke-width="1.0892857313156128" fill="none" stroke="rgb(39, 67, 71)" stroke-opacity="0.6504076" stroke-linecap="round" stroke-linejoin="round"/>
    <path d="M 79.6106948852539 38.97795486450195 C 77.2265396118164 32.95460510253906 74.0761947631836 37.62311935424805 77.01985931396484 33.8425178527832" stroke-width="1.1018338203430176" fill="none" stroke="rgb(64, 228, 164)" stroke-opacity="0.068462245" stroke-linecap="round" stroke-linejoin="round"/>
    <path d="M 34.09180450439453 13.224003791809082 C 30.361719131469727 14.822578430175781 30.071971893310547 19.13361167907715 31.246232986450195 20.377914428710938" stroke-width="1.0892857313156128" fill="none" stroke="rgb(42, 99, 203)" stroke-opacity="0.7566351" stroke-linecap="round" stroke-linejoin="round"/>
    <path d="M 33.782936096191406 58.73893356323242 C 36.19849395751953 52.7515869140625 34.66946792602539 54.60026931762695 34.79138946533203 58.42402648925781 C 39.22983932495117 58.24575424194336 36.81671142578125 52.838321685791016 41.52179718017578 50.43483352661133" stroke-width="1.0892857313156128" fill="none" stroke="rgb(9, 7, 20)" stroke-opacity="0.69174695" stroke-linecap="round" stroke-linejoin="round"/>
    <path d="M 94.01686096191406 55.84067916870117 C 89.78810119628906 53.18748092651367 85.49565887451172 55.878055572509766 92.18841552734375 60.4139404296875" stroke-width="1.1686468124389648" fill="none" stroke="rgb(3, 85, 70)" stroke-opacity="0.1078072" stroke-linecap="round" stroke-linejoin="round"/>
    <path d="M 97.3880615234375 1.9067574739456177 C 90.9300537109375 5.5232086181640625 91.0149154663086 7.028693199157715 94.5833969116211 1.8990488052368164 C 97.96483612060547 5.600113868713379 96.30680847167969 3.8304452896118164 101.76380920410156 -1.6174112558364868 C 104.54283905029297 1.6969993114471436 100.03399658203125 2.158506393432617 99.81117248535156 -0.866520345211029" stroke-width="1.098893165588379" fill="none" stroke="rgb(225, 238, 113)" stroke-opacity="0.579319" stroke-linecap="round" stroke-linejoin="round"/>
    <path d="M 44.64674758911133 10.597113609313965 C 46.068477630615234 14.975727081298828 45.9013671875 19.43928337097168 41.975341796875 20.73388671875" stroke-width="1.0965999364852905" fill="none" stroke="rgb(136, 13, 166)" stroke-opacity="0.10428692" stroke-linecap="round" stroke-linejoin="round"/>
    <path d="M 95.55535888671875 57.4334602355957 C 99.12452697753906 56.86530685424805 94.01338958740234 55.02477264404297 95.19740295410156 56.631553649902344 C 96.0833511352539 58.53327178955078 99.67320251464844 57.50021743774414 95.37235260009766 57.34502410888672" stroke-width="1.0892857313156128" fill="none" stroke="rgb(36, 114, 188)" stroke-opacity="0.3831322" stroke-linecap="round" stroke-linejoin="round"/>
    <path d="M 119.90254211425781 24.21023941040039 C 118.32982635498047 19.061859130859375 114.09403991699219 22.089494705200195 116.9596176147461 18.522014617919922 C 123.61616516113281 20.952470779418945 126.38679504394531 18.909425735473633 128.63345336914062 23.291522979736328 C 131.9385986328125 19.695005416870117 134.42259216308594 25.38138771057129 132.83338928222656 27.084877014160156" stroke-width="1.0892857313156128" fill="none" stroke="rgb(99, 97, 33)" stroke-opacity="0.28765553" stroke-linecap="round" stroke-linejoin="round"/>
    <path d="M 70.7813949584961 112.59436798095703 C 76.83332824707031 107.48182678222656 74.92241668701172 109.04436492919922 71.8132095336914 104.12598419189453 C 69.5356674194336 96.8926773071289 73.2340316772461 98.25988006591797 72.1904296875 97.1234359741211 C 73.97660827636719 98.02421569824219 68.35382843017578 100.70369720458984 72.69649505615234 98.40973663330078" stroke-width="1.0892857313156128" fill="none" stroke="rgb(47, 21, 121)" stroke-opacity="0.31620327" stroke-linecap="round" stroke-linejoin="round"/>
    <path d="M 39.40554428100586 106.38165283203125 C 36.39689636230469 103.54405212402344 40.41130065917969 111.00963592529297 36.42238235473633 113.55418395996094 C 30.893857955932617 115.96916961669922 32.5313835144043 116.62855529785156 32.80183792114258 121.83592987060547" stroke-width="1.4670852422714233" fill="none" stroke="rgb(102, 57, 149)" stroke-opacity="0.27801168" stroke-linecap="round" stroke-linejoin="round"/>
    <path d="M 54.1390380859375 76.62469482421875 C 51.23744583129883 82.57368469238281 56.3359489440918 81.19488525390625 54.14401626586914 81.08086395263672" stroke-width="1.1567364931106567" fill="none" stroke="rgb(133, 27, 99)" stroke-opacity="0.57941103" stroke-linecap="round" stroke-linejoin="round"/>
  </g>
</svg>
