<?xml version="1.0" ?>
<svg xmlns="http://www.w3.org/2000/svg" version="1.1" width="2137.0" height="2137.0">
  <defs/>
  <g>
    <path d="M 31.738304138183594 82.55803680419922 C 89.13618469238281 82.68946075439453 146.81735229492188 82.65613555908203 204.30908203125 82.7120590209961 C 261.7405700683594 82.76220703125 209.26942443847656 74.6655502319336 156.78880310058594 66.54971313476562" stroke-width="2.0" fill="none" stroke="rgb(6, 0, 3)" stroke-opacity="0.9605118" stroke-linecap="round" stroke-linejoin="round"/>
    <path d="M 74.07406616210938 92.58666229248047 C 68.85179138183594 134.62046813964844 63.620849609375 176.55313110351562 75.82098388671875 187.76417541503906 C 88.14452362060547 198.99954223632812 117.98542022705078 179.6221160888672 147.8365936279297 160.28802490234375 C 177.71841430664062 140.9399871826172 167.03794860839844 133.7137908935547 156.4816436767578 126.4742660522461" stroke-width="2.6628377437591553" fill="none" stroke="rgb(2, 0, 0)" stroke-opacity="1.0" stroke-linecap="round" stroke-linejoin="round"/>
    <path d="M 154.16201782226562 95.10926055908203 C 165.25376892089844 93.91107940673828 176.35592651367188 92.7071762084961 178.29705810546875 97.30680847167969 C 180.13633728027344 101.91007232666016 172.63595581054688 112.22261047363281 165.3356170654297 122.68560791015625 C 157.96798706054688 133.09043884277344 160.21942138671875 133.26939392089844 162.44810485839844 133.51344299316406" stroke-width="2.0" fill="none" stroke="rgb(1, 2, 0)" stroke-opacity="0.96835124" stroke-linecap="round" stroke-linejoin="round"/>
    <path d="M 93.72763061523438 109.81791687011719 C 89.77789306640625 121.81257629394531 85.87666320800781 133.87657165527344 81.99687957763672 146.0005645751953 C 78.05188751220703 158.047607421875 87.02103424072266 151.2263946533203 95.99772644042969 144.3658447265625" stroke-width="2.0" fill="none" stroke="rgb(0, 2, 0)" stroke-opacity="0.9820669" stroke-linecap="round" stroke-linejoin="round"/>
    <path d="M 77.01410675048828 111.40826416015625 C 87.1972885131836 108.1248779296875 79.48053741455078 111.50831604003906 91.26869201660156 111.0701904296875" stroke-width="2.0" fill="none" stroke="rgb(0, 0, 5)" stroke-opacity="0.9897106" stroke-linecap="round" stroke-linejoin="round"/>
    <path d="M 110.93804931640625 115.82141876220703 C 119.46320343017578 112.78192901611328 111.74536895751953 116.17880249023438 119.98699951171875 117.88850402832031" stroke-width="2.0" fill="none" stroke="rgb(0, 0, 3)" stroke-opacity="0.97838885" stroke-linecap="round" stroke-linejoin="round"/>
    <path d="M 85.46122741699219 160.95767211914062 C 107.39849090576172 162.13941955566406 107.89765167236328 163.0372314453125 107.35739135742188 162.68968200683594" stroke-width="2.1457016468048096" fill="none" stroke="rgb(0, 4, 0)" stroke-opacity="1.0" stroke-linecap="round" stroke-linejoin="round"/>
    <path d="M 117.13459777832031 120.0843505859375 C 118.01490783691406 119.77014923095703 118.85501861572266 119.42296600341797 121.4069595336914 120.0521240234375 C 123.91525268554688 120.74986267089844 128.19371032714844 122.42964935302734 132.24591064453125 123.82903289794922 C 136.21163940429688 125.34890747070312 139.89956665039062 126.66883850097656 143.63648986816406 126.7566146850586 C 147.49874877929688 126.86256408691406 151.3988037109375 125.77687072753906 153.12493896484375 127.8481216430664 C 154.87757873535156 129.92881774902344 154.44723510742188 135.0244903564453 153.1785888671875 138.16851806640625 C 151.87339782714844 141.30958557128906 149.77346801757812 142.3336639404297 148.93902587890625 141.81390380859375 C 148.05731201171875 141.34718322753906 148.54833984375 139.27748107910156 146.69183349609375 139.5519256591797 C 144.81199645996094 139.83583068847656 140.5893096923828 142.50711059570312 136.95030212402344 142.44134521484375 C 133.314208984375 142.26327514648438 130.2654266357422 139.3110809326172 127.96639251708984 137.45504760742188 C 125.66376495361328 135.6016082763672 124.12342071533203 134.82696533203125 122.92330169677734 134.03248596191406 C 121.76693725585938 133.20921325683594 120.89408874511719 132.42295837402344 120.92277526855469 133.06210327148438 C 120.93048095703125 133.70034790039062 121.84099578857422 135.83883666992188 121.0367202758789 136.76060485839844 C 120.25944519042969 137.63385009765625 117.65695190429688 137.50257873535156 116.50682067871094 136.92880249023438 C 115.2935791015625 136.4184112548828 115.41912841796875 135.57284545898438 115.95808410644531 136.084716796875 C 116.55180358886719 136.53152465820312 117.62226104736328 138.27395629882812 118.6957778930664 140.01211547851562 C 119.7445068359375 141.70391845703125 112.61901092529297 144.08787536621094 105.54588317871094 146.46231079101562" stroke-width="2.0" fill="none" stroke="rgb(13, 22, 14)" stroke-opacity="1.0" stroke-linecap="round" stroke-linejoin="round"/>
    <path d="M 126.71951293945312 78.5039291381836 C 126.69876098632812 78.39060974121094 126.6688003540039 78.24317169189453 126.97781372070312 78.31476593017578 C 127.28681182861328 78.44328308105469 127.93797302246094 78.83638000488281 128.02000427246094 78.74479675292969 C 128.0986328125 78.65274047851562 127.59764099121094 78.08065032958984 127.22381591796875 75.60893249511719 C 126.89189147949219 73.13117218017578 126.69392395019531 68.74940490722656 126.310302734375 64.45765686035156 C 125.96402740478516 60.160682678222656 125.45034790039062 55.93208312988281 124.93698120117188 52.93790054321289 C 124.41610717773438 49.84669876098633 123.90131378173828 47.94871139526367 123.3829116821289 46.04442596435547 C 122.89346313476562 44.189414978027344 122.81488037109375 40.08883285522461 122.72855377197266 35.987308502197266" stroke-width="2.0" fill="none" stroke="rgb(16, 19, 21)" stroke-opacity="0.97146875" stroke-linecap="round" stroke-linejoin="round"/>
    <path d="M 114.75358581542969 36.71221160888672 C 113.94728088378906 37.03620147705078 113.14684295654297 37.342350006103516 112.92886352539062 37.49870300292969 C 112.70879364013672 37.655094146728516 113.07015228271484 37.658470153808594 112.32818603515625 38.1626091003418 C 111.63825988769531 38.713836669921875 109.89625549316406 39.81990051269531 108.03865814208984 40.70596694946289 C 106.22985076904297 41.62870788574219 104.25907135009766 42.30617141723633 99.19656372070312 45.79892349243164 C 94.14403533935547 49.306644439697266 85.99524688720703 55.62837600708008 81.71682739257812 59.110389709472656 C 77.43830871582031 62.592628479003906 76.98589324951172 63.19498062133789 76.36959838867188 64.0150146484375 C 75.6860580444336 64.76996612548828 74.76029968261719 65.6609115600586 73.79256439208984 66.51514434814453 C 72.84709930419922 67.38550567626953 69.93033599853516 67.77635955810547 67.01879119873047 68.2130126953125" stroke-width="2.0" fill="none" stroke="rgb(21, 16, 18)" stroke-opacity="0.99154675" stroke-linecap="round" stroke-linejoin="round"/>
    <path d="M 54.446136474609375 91.37109375 C 54.56468200683594 92.34687042236328 54.65571212768555 93.38764953613281 55.579002380371094 94.94351196289062 C 56.574031829833984 96.45581817626953 58.36940383911133 98.4556655883789 58.366180419921875 103.6661376953125 C 58.339759826660156 108.78607177734375 56.2885627746582 117.018310546875 56.587493896484375 122.05631256103516 C 57.06165313720703 127.27898406982422 59.76383972167969 129.2953643798828 61.4603385925293 129.97996520996094 C 63.06856918334961 130.7394561767578 63.495479583740234 130.23143005371094 64.2896728515625 130.93252563476562 C 65.0105972290039 131.70750427246094 66.18856811523438 133.6101837158203 67.46776580810547 134.5936279296875 C 68.73748779296875 135.5880584716797 70.119140625 135.65402221679688 74.92943572998047 135.29244995117188 C 79.84165954589844 135.1575927734375 88.07408905029297 134.56698608398438 92.75088500976562 134.77406311035156 C 97.5306625366211 134.967529296875 98.86054229736328 135.92086791992188 100.1908187866211 136.8572998046875 C 101.61080169677734 137.8271026611328 104.77113342285156 136.82968139648438 108.05752563476562 135.789794921875" stroke-width="2.0" fill="none" stroke="rgb(23, 16, 18)" stroke-opacity="1.0" stroke-linecap="round" stroke-linejoin="round"/>
    <path d="M 105.47103881835938 120.27467346191406 C 104.88408660888672 120.6195068359375 104.33045196533203 120.8603515625 104.4201889038086 120.79275512695312 C 104.5128173828125 120.7275619506836 105.2635726928711 120.35651397705078 104.76777648925781 118.35261535644531 C 104.24833679199219 116.3634262084961 102.47762298583984 112.7547836303711 101.02619171142578 111.43093872070312 C 99.59275817871094 110.04478454589844 98.47352600097656 111.05684661865234 98.59038543701172 111.20299530029297 C 98.72362518310547 111.2043685913086 99.87220001220703 110.5430908203125 101.4145278930664 110.03817749023438 C 102.7613525390625 109.37550354003906 102.20745086669922 106.36724853515625 101.65802764892578 103.38021087646484" stroke-width="2.0" fill="none" stroke="rgb(24, 21, 16)" stroke-opacity="1.0" stroke-linecap="round" stroke-linejoin="round"/>
    <path d="M 99.99877166748047 96.81205749511719 C 99.01903533935547 96.41473388671875 98.08863067626953 96.00489807128906 97.04446411132812 96.08500671386719 C 96.00428009033203 96.11617279052734 94.85013580322266 96.68492126464844 93.69775390625 97.26947784423828 C 92.58456420898438 97.82154846191406 89.70756530761719 96.44003295898438 86.82536315917969 95.06331634521484" stroke-width="2.0" fill="none" stroke="rgb(23, 19, 26)" stroke-opacity="1.0" stroke-linecap="round" stroke-linejoin="round"/>
    <path d="M 136.38026428222656 92.57588958740234 C 135.41123962402344 93.79711151123047 134.43907165527344 94.96846771240234 134.19650268554688 96.94432830810547 C 133.9176788330078 98.92390441894531 134.3851776123047 101.71096801757812 135.9513397216797 104.01519775390625 C 137.62017822265625 106.2336654663086 140.3572540283203 108.00963592529297 141.6041259765625 108.37605285644531 C 142.80020141601562 108.71416473388672 142.54637145996094 107.66741180419922 143.7542724609375 108.01331329345703 C 144.95944213867188 108.30179595947266 147.61756896972656 109.94023895263672 148.9298553466797 111.19490814208984 C 150.2800750732422 112.40583801269531 150.24276733398438 113.2620849609375 150.36761474609375 113.789306640625 C 150.5412139892578 114.18981170654297 150.99462890625 114.2926025390625 151.56494140625 114.34154510498047 C 152.1526641845703 114.38072967529297 152.89064025878906 114.38960266113281 153.51983642578125 115.34459686279297 C 154.1748809814453 116.27984619140625 154.66458129882812 118.21100616455078 154.81875610351562 119.68981170654297 C 154.97923278808594 121.17691040039062 154.7058563232422 122.2687759399414 154.41885375976562 122.330322265625 C 154.134521484375 122.34405517578125 153.8221893310547 121.37405395507812 149.7494659423828 120.8530044555664 C 145.73251342773438 120.2638168334961 138.06948852539062 120.16218566894531 130.29270935058594 120.05307006835938 C 122.58447265625 119.91006469726562 126.98324584960938 117.88372802734375 131.32928466796875 115.79901885986328" stroke-width="2.0" fill="none" stroke="rgb(27, 19, 24)" stroke-opacity="1.0" stroke-linecap="round" stroke-linejoin="round"/>
    <path d="M 133.56988525390625 28.026899337768555 C 133.4376678466797 28.984560012817383 133.3450164794922 29.950515747070312 133.68011474609375 29.833152770996094 C 133.9580841064453 29.72087860107422 134.59771728515625 28.521203994750977 136.06539916992188 32.78783416748047 C 137.5303955078125 36.9713249206543 139.7921905517578 46.63478469848633 141.214111328125 52.74074935913086 C 142.56317138671875 58.81074142456055 143.09823608398438 61.27705764770508 143.765869140625 63.73614501953125 C 144.40902709960938 66.28787231445312 145.20413208007812 68.8228988647461 145.73544311523438 69.84385681152344 C 146.2556915283203 70.86869049072266 146.50828552246094 70.38105773925781 147.24227905273438 72.3026351928711 C 147.92701721191406 74.278564453125 149.06285095214844 78.7215805053711 149.775634765625 80.63143920898438 C 150.57496643066406 82.51097106933594 150.93511962890625 81.86502075195312 150.71514892578125 82.88477325439453 C 150.552490234375 83.90486145019531 149.82884216308594 86.58445739746094 150.07179260253906 89.01199340820312 C 150.1791534423828 91.50923156738281 151.25857543945312 93.69988250732422 151.86737060546875 94.72564697265625 C 152.43505859375 95.80863952636719 152.40591430664062 95.79268646240234 152.24221801757812 99.02493286132812 C 151.9395751953125 102.25010681152344 151.44874572753906 108.72492218017578 149.89401245117188 111.65691375732422 C 148.24822998046875 114.47653198242188 145.5107421875 113.76274871826172 144.87612915039062 113.48414611816406 C 144.24574279785156 113.19812774658203 145.72463989257812 113.36981201171875 140.97616577148438 110.61790466308594 C 136.2476043701172 107.89458465576172 125.30615997314453 102.25341796875 118.8472671508789 99.77086639404297 C 112.46659851074219 97.24967193603516 110.46432495117188 97.84849548339844 109.68838500976562 97.65852355957031 C 108.97428131103516 97.50529479980469 109.36054229736328 96.46913146972656 109.44296264648438 96.09500885009766 C 109.44886779785156 95.72795104980469 109.27008819580078 96.01594543457031 108.99983215332031 96.43673706054688 C 108.77835845947266 96.9257583618164 108.6038818359375 97.6050796508789 108.03446960449219 98.604736328125 C 107.47676086425781 99.47053527832031 106.51156616210938 100.64849853515625 104.89971160888672 102.6458969116211 C 103.29547119140625 104.6468276977539 100.99803924560547 107.43058776855469 100.19486999511719 108.84017944335938 C 99.3815689086914 110.24378204345703 100.14099884033203 110.21965789794922 99.20911407470703 111.33833312988281 C 98.37863159179688 112.43126678466797 95.91839599609375 114.46875 93.63531494140625 114.64778900146484 C 91.35584259033203 114.83161926269531 89.19363403320312 113.27745819091797 87.07087707519531 111.69645690917969 C 84.93206024169922 110.13768005371094 80.57438659667969 106.91299438476562 76.20197296142578 103.669677734375" stroke-width="2.0" fill="none" stroke="rgb(20, 25, 19)" stroke-opacity="1.0" stroke-linecap="round" stroke-linejoin="round"/>
    <path d="M 166.29400634765625 141.7275390625 C 166.1616973876953 145.11483764648438 166.0560760498047 148.51649475097656 165.94384765625 151.94717407226562 C 165.85939025878906 155.34356689453125 156.91221618652344 156.1061553955078 147.9340362548828 156.8749542236328" stroke-width="3.601860523223877" fill="none" stroke="rgb(191, 123, 10)" stroke-opacity="0.22757539" stroke-linecap="round" stroke-linejoin="round"/>
    <path d="M 149.4315185546875 103.3807144165039 C 148.1161346435547 88.61644744873047 162.7747039794922 98.99724578857422 159.6929931640625 91.41556549072266" stroke-width="2.0" fill="none" stroke="rgb(253, 56, 169)" stroke-opacity="0.19379881" stroke-linecap="round" stroke-linejoin="round"/>
    <path d="M 73.82012176513672 91.47838592529297 C 77.05142211914062 95.21168518066406 80.2825927734375 98.94730377197266 83.64301300048828 99.46797180175781 C 86.97452545166016 99.9841537475586 90.46095275878906 97.28804016113281 93.97081756591797 94.62037658691406 C 97.45557403564453 91.88426971435547 93.49006652832031 86.13737487792969 89.49747467041016 80.390869140625" stroke-width="2.304800510406494" fill="none" stroke="rgb(130, 252, 172)" stroke-opacity="0.11329007" stroke-linecap="round" stroke-linejoin="round"/>
    <path d="M 200.8797607421875 83.59349060058594 C 203.51585388183594 83.28976440429688 206.1099395751953 82.93064880371094 208.76036071777344 82.60780334472656 C 211.40353393554688 82.3252182006836 206.22769165039062 80.611572265625 201.08966064453125 78.86720275878906" stroke-width="2.0" fill="none" stroke="rgb(133, 158, 60)" stroke-opacity="0.49040437" stroke-linecap="round" stroke-linejoin="round"/>
    <path d="M 141.02528381347656 151.73936462402344 C 152.7816619873047 148.4132080078125 140.0865478515625 157.10122680664062 143.28521728515625 165.4683380126953" stroke-width="2.0" fill="none" stroke="rgb(144, 12, 242)" stroke-opacity="0.0" stroke-linecap="round" stroke-linejoin="round"/>
    <path d="M 30.027084350585938 80.50301361083984 C 27.307838439941406 82.9886474609375 24.5120792388916 85.40927124023438 21.777273178100586 87.89178466796875 C 19.09943199157715 90.3625717163086 19.89076805114746 84.29932403564453 20.65137481689453 78.23069763183594" stroke-width="2.0" fill="none" stroke="rgb(46, 50, 59)" stroke-opacity="0.32216397" stroke-linecap="round" stroke-linejoin="round"/>
    <path d="M 202.47425842285156 76.59343719482422 C 206.57225036621094 84.05687713623047 210.6305389404297 91.53528594970703 214.68226623535156 99.01094055175781 C 218.70010375976562 106.52745056152344 219.96966552734375 91.83200073242188 221.298583984375 77.13309478759766" stroke-width="2.0" fill="none" stroke="rgb(77, 64, 215)" stroke-opacity="0.6496084" stroke-linecap="round" stroke-linejoin="round"/>
    <path d="M 17.572877883911133 84.01226043701172 C 13.876490592956543 86.19132232666016 10.182266235351562 88.38897705078125 6.451655387878418 90.57734680175781 C 2.7410383224487305 92.72731018066406 1.3462580442428589 89.43009948730469 -0.0591021329164505 86.05030822753906" stroke-width="2.0" fill="none" stroke="rgb(45, 30, 222)" stroke-opacity="0.7221783" stroke-linecap="round" stroke-linejoin="round"/>
    <path d="M 133.6106414794922 166.6654815673828 C 136.53704833984375 164.58047485351562 139.47869873046875 162.49932861328125 142.41416931152344 160.5128173828125 C 145.45721435546875 158.40931701660156 154.3621063232422 154.9435577392578 163.2734375 151.5008087158203" stroke-width="5.8983564376831055" fill="none" stroke="rgb(253, 0, 9)" stroke-opacity="0.7911438" stroke-linecap="round" stroke-linejoin="round"/>
    <path d="M 141.3876495361328 157.24452209472656 C 142.00521850585938 155.1902313232422 142.62046813964844 153.21546936035156 144.33505249023438 151.38644409179688 C 146.0160369873047 149.60366821289062 148.74618530273438 148.0825653076172 151.47271728515625 146.55813598632812 C 154.2014923095703 145.03839111328125 155.86093139648438 138.4384765625 157.5201416015625 131.83749389648438" stroke-width="2.0" fill="none" stroke="rgb(54, 71, 4)" stroke-opacity="0.04862071" stroke-linecap="round" stroke-linejoin="round"/>
    <path d="M 150.58892822265625 167.52731323242188 C 134.70407104492188 166.87380981445312 118.85969543457031 166.22821044921875 113.0016098022461 170.245849609375 C 107.13190460205078 174.2127685546875 111.26801300048828 182.90103149414062 115.34762573242188 191.5975341796875 C 119.4451904296875 200.29139709472656 127.2389144897461 197.85653686523438 134.98558044433594 195.40769958496094" stroke-width="2.0" fill="none" stroke="rgb(234, 82, 197)" stroke-opacity="0.107375406" stroke-linecap="round" stroke-linejoin="round"/>
    <path d="M 149.86520385742188 152.24520874023438 C 146.59262084960938 151.26881408691406 143.26068115234375 150.3294219970703 142.48226928710938 152.1654510498047 C 141.72776794433594 153.99708557128906 143.46066284179688 158.6069793701172 145.18836975097656 163.23912048339844 C 146.90023803710938 167.85885620117188 145.72265625 167.14129638671875 144.57118225097656 166.3933868408203" stroke-width="2.0" fill="none" stroke="rgb(253, 120, 76)" stroke-opacity="0.36292583" stroke-linecap="round" stroke-linejoin="round"/>
    <path d="M 118.48284912109375 108.71663665771484 C 118.87440490722656 110.4814224243164 119.26454162597656 112.24800872802734 119.40190124511719 108.19720458984375 C 119.50460815429688 104.212890625 119.3385238647461 94.40440368652344 119.15210723876953 84.5744857788086 C 118.99365234375 74.79875946044922 114.58380126953125 68.33121490478516 110.2376708984375 61.8336181640625" stroke-width="2.5261406898498535" fill="none" stroke="rgb(193, 49, 91)" stroke-opacity="0.39570943" stroke-linecap="round" stroke-linejoin="round"/>
    <path d="M 179.51612854003906 22.48825454711914 C 185.17396545410156 20.63111686706543 190.77215576171875 18.808258056640625 188.04150390625 16.07805061340332 C 185.35171508789062 13.33293628692627 174.25791931152344 9.703906059265137 163.28753662109375 5.947070121765137 C 152.23687744140625 2.321470022201538 168.12744140625 11.249218940734863 184.0821075439453 20.11330795288086" stroke-width="2.0" fill="none" stroke="rgb(150, 141, 253)" stroke-opacity="0.762687" stroke-linecap="round" stroke-linejoin="round"/>
    <path d="M 162.75160217285156 150.43917846679688 C 169.90859985351562 159.10643005371094 177.08346557617188 167.75502014160156 180.05320739746094 164.3658447265625 C 183.01222229003906 160.96170043945312 181.80026245117188 145.55374145507812 180.58941650390625 130.28025817871094 C 179.37364196777344 114.73924255371094 172.93173217773438 123.90142059326172 166.44802856445312 133.10284423828125" stroke-width="2.0" fill="none" stroke="rgb(113, 54, 196)" stroke-opacity="0.015175914" stroke-linecap="round" stroke-linejoin="round"/>
    <path d="M 223.4665069580078 189.98704528808594 C 219.80825805664062 187.04627990722656 216.0980682373047 184.1629180908203 212.3380889892578 181.33840942382812 C 208.62269592285156 178.45240783691406 212.97750854492188 168.26577758789062 217.2288055419922 158.02340698242188" stroke-width="2.0" fill="none" stroke="rgb(81, 44, 221)" stroke-opacity="0.29837906" stroke-linecap="round" stroke-linejoin="round"/>
    <path d="M 173.92735290527344 197.01132202148438 C 169.85589599609375 197.90530395507812 165.83383178710938 198.8561248779297 161.80992126464844 199.81333923339844 C 157.78269958496094 200.76751708984375 161.65390014648438 200.6429901123047 165.42491149902344 200.5503692626953" stroke-width="2.0" fill="none" stroke="rgb(55, 42, 137)" stroke-opacity="0.6885781" stroke-linecap="round" stroke-linejoin="round"/>
    <path d="M 166.28428649902344 157.04136657714844 C 164.193603515625 177.5174102783203 166.50900268554688 186.5115203857422 167.95709228515625 199.42539978027344" stroke-width="2.3302464485168457" fill="none" stroke="rgb(19, 35, 32)" stroke-opacity="0.31750283" stroke-linecap="round" stroke-linejoin="round"/>
    <path d="M 82.42417907714844 136.61856079101562 C 78.71764373779297 105.74134063720703 83.65727996826172 105.64678192138672 77.66582489013672 106.24348449707031" stroke-width="2.0" fill="none" stroke="rgb(144, 172, 147)" stroke-opacity="0.7007087" stroke-linecap="round" stroke-linejoin="round"/>
    <path d="M 222.79823303222656 32.802127838134766 C 224.01937866210938 38.73381805419922 225.25262451171875 44.64910888671875 226.48684692382812 50.57376480102539 C 227.73406982421875 56.465919494628906 227.2211151123047 60.70175552368164 226.71038818359375 64.93535614013672" stroke-width="2.271660566329956" fill="none" stroke="rgb(105, 91, 233)" stroke-opacity="0.06360143" stroke-linecap="round" stroke-linejoin="round"/>
    <path d="M 213.76461791992188 159.8474578857422 C 208.6663818359375 159.19091796875 203.56211853027344 158.51609802246094 201.69825744628906 156.35415649414062 C 200.00726318359375 154.1165771484375 201.5902557373047 150.33302307128906 203.1962127685547 146.5641632080078 C 204.73959350585938 142.72296142578125 207.04078674316406 143.99794006347656 209.3970947265625 145.25186157226562" stroke-width="2.0" fill="none" stroke="rgb(35, 10, 234)" stroke-opacity="0.47842264" stroke-linecap="round" stroke-linejoin="round"/>
    <path d="M 99.05426025390625 218.01100158691406 C 96.24824523925781 217.55221557617188 88.93428802490234 210.42730712890625 84.59062957763672 205.8624725341797" stroke-width="2.0" fill="none" stroke="rgb(192, 193, 72)" stroke-opacity="0.31844953" stroke-linecap="round" stroke-linejoin="round"/>
    <path d="M 172.15419006347656 66.12781524658203 C 175.75027465820312 68.23893737792969 179.37637329101562 70.3405532836914 183.0065460205078 72.44441986083984 C 186.63671875 74.54634094238281 184.21461486816406 59.726219177246094 181.8110809326172 44.903411865234375" stroke-width="3.251497745513916" fill="none" stroke="rgb(156, 235, 113)" stroke-opacity="0.051799558" stroke-linecap="round" stroke-linejoin="round"/>
    <path d="M 35.64598083496094 178.95689392089844 C 35.41117477416992 187.9925994873047 40.4930534362793 177.1487579345703 64.40087890625 179.8865509033203" stroke-width="2.0" fill="none" stroke="rgb(146, 131, 144)" stroke-opacity="0.85947937" stroke-linecap="round" stroke-linejoin="round"/>
    <path d="M 123.98308563232422 134.79644775390625 C 126.3485336303711 134.5591583251953 128.7035675048828 134.35214233398438 129.8321990966797 135.81423950195312 C 130.97520446777344 137.2682342529297 130.8459930419922 140.46034240722656 130.75811767578125 143.56004333496094 C 130.69552612304688 146.6873779296875 118.47005462646484 150.8844757080078 106.2451400756836 155.08148193359375" stroke-width="2.9602718353271484" fill="none" stroke="rgb(185, 173, 183)" stroke-opacity="0.3568917" stroke-linecap="round" stroke-linejoin="round"/>
    <path d="M 143.57241821289062 190.3451690673828 C 143.91519165039062 190.3813934326172 143.597900390625 191.00558471679688 143.66896057128906 191.44281005859375 C 143.69381713867188 192.2540740966797 143.6385040283203 193.082763671875 143.3422088623047 193.8254852294922 C 142.39524841308594 196.8702392578125 140.05880737304688 198.82566833496094 137.38858032226562 200.443359375 C 131.47915649414062 204.07627868652344 124.39717864990234 206.41885375976562 117.38736724853516 206.42391967773438 C 115.14456939697266 206.5454559326172 113.28564453125 206.70391845703125 111.68804931640625 205.01248168945312 C 110.25950622558594 203.67535400390625 110.28239440917969 201.32260131835938 109.45101928710938 199.640869140625 C 108.71537017822266 197.80076599121094 107.61927795410156 195.84136962890625 107.30077362060547 193.82298278808594 C 107.00550842285156 192.00880432128906 107.34728240966797 190.1079559326172 107.25264739990234 188.39678955078125 C 107.09441375732422 185.97406005859375 106.61986541748047 183.45184326171875 106.22820281982422 181.05860900878906 C 105.95249938964844 178.87205505371094 105.9192123413086 176.74847412109375 105.7166976928711 174.55740356445312 C 105.74468994140625 174.3651123046875 105.7101821899414 174.1331329345703 105.44157409667969 174.11807250976562 C 103.83016204833984 173.05178833007812 100.60137939453125 175.4136505126953 99.03564453125 175.99111938476562 C 95.18238830566406 177.5329132080078 92.61181640625 178.4857177734375 88.6780014038086 176.8744659423828 C 85.40779876708984 175.53509521484375 81.65530395507812 170.7621612548828 79.49549102783203 168.12887573242188 C 73.9039535522461 161.53785705566406 68.71791076660156 154.57492065429688 62.590206146240234 148.44569396972656 C 56.81650161743164 142.5479736328125 50.92452621459961 136.75929260253906 44.74855422973633 131.2716522216797 C 43.284385681152344 129.90243530273438 40.8505973815918 128.9896697998047 38.984554290771484 128.35105895996094 C 38.22078323364258 128.20291137695312 37.43141174316406 128.16371154785156 36.900943756103516 127.69313049316406 C 36.78555679321289 127.51673126220703 37.082496643066406 127.12676239013672 37.19689178466797 126.86736297607422 C 38.38282012939453 124.08329010009766 39.93449020385742 121.47835540771484 41.482757568359375 118.97887420654297" stroke-width="2.0" fill="none" stroke="rgb(24, 23, 24)" stroke-opacity="1.0" stroke-linecap="round" stroke-linejoin="round"/>
    <path d="M 46.98046875 61.89493179321289 C 48.065406799316406 61.89341354370117 48.74406433105469 60.563232421875 49.508365631103516 59.92826461791992 C 50.41214370727539 59.15216827392578 51.497581481933594 58.58326721191406 52.402915954589844 57.78861618041992 C 53.97340774536133 56.175785064697266 55.402095794677734 54.42757797241211 56.928775787353516 52.76920700073242 C 57.685142517089844 52.16624450683594 58.394371032714844 51.51235580444336 59.04819107055664 50.80501937866211 C 63.12897872924805 46.31939697265625 66.97703552246094 41.6225700378418 71.0539779663086 37.12786865234375 C 71.5925521850586 36.509220123291016 72.3497543334961 36.11897277832031 72.87933349609375 35.495079040527344 C 73.4402847290039 34.911399841308594 73.98397827148438 34.30332565307617 74.48894500732422 33.657501220703125 C 74.85615539550781 33.23971939086914 75.77259826660156 32.10563659667969 75.06257629394531 31.401180267333984 C 73.87349700927734 30.152984619140625 71.24708557128906 30.319856643676758 69.57678985595703 30.37226676940918 C 67.80389404296875 30.49030303955078 65.88118743896484 30.380613327026367 64.18250274658203 30.73882293701172 C 60.15370178222656 31.493837356567383 54.74082946777344 33.456382751464844 51.01602554321289 35.62996292114258 C 48.89764404296875 36.846073150634766 46.89155197143555 38.2626953125 45.4488639831543 40.240570068359375 C 45.379878997802734 40.271583557128906 44.25965118408203 42.05399703979492 44.627296447753906 42.73662567138672 C 45.75237274169922 45.01332092285156 50.330589294433594 46.00637435913086 51.87089920043945 46.41680908203125 C 55.28413772583008 47.33713150024414 57.620933532714844 47.02935028076172 61.405242919921875 47.0022087097168 C 64.5863265991211 47.01229476928711 67.7714614868164 47.15176773071289 70.94306945800781 47.081886291503906 C 79.71299743652344 46.677093505859375 88.43740844726562 45.08116149902344 97.01192474365234 43.740089416503906 C 102.85244750976562 42.70418167114258 108.51380157470703 41.710289001464844 114.24815368652344 39.9690055847168 C 115.86282348632812 39.338314056396484 117.53268432617188 38.726627349853516 119.26605987548828 38.1597785949707 C 120.0722885131836 37.86437225341797 121.17189025878906 37.777278900146484 121.5691146850586 37.034423828125 C 121.74292755126953 36.580631256103516 120.92155456542969 35.9644775390625 121.19908142089844 35.493186950683594 C 121.41526794433594 35.27549743652344 123.3544692993164 34.260459899902344 123.77497100830078 34.152767181396484 C 127.43841552734375 33.17098617553711 131.5850067138672 33.705631256103516 135.343505859375 34.154884338378906 C 138.89483642578125 34.6303596496582 142.5408935546875 34.88581848144531 146.01776123046875 35.258026123046875" stroke-width="2.0" fill="none" stroke="rgb(24, 24, 23)" stroke-opacity="1.0" stroke-linecap="round" stroke-linejoin="round"/>
    <path d="M 55.10618209838867 29.634449005126953 C 60.05894088745117 29.678573608398438 57.1461067199707 39.279727935791016 58.344730377197266 44.04071044921875 C 59.82978057861328 50.54682922363281 61.62736892700195 56.98885726928711 63.50190353393555 63.34968566894531 C 64.60318756103516 67.41868591308594 65.46031951904297 71.57029724121094 66.88182067871094 75.55414581298828 C 68.32958221435547 79.41809844970703 71.23383331298828 81.112060546875 75.12836456298828 80.35099792480469 C 77.28289794921875 79.93321990966797 79.31205749511719 79.03165435791016 81.42436981201172 78.45575714111328 C 81.70591735839844 78.47702026367188 82.23140716552734 78.35517883300781 82.12309265136719 78.52832794189453 C 81.82457733154297 79.09442138671875 81.03809356689453 79.31293487548828 80.71174621582031 79.82377624511719 C 79.79461669921875 81.79888153076172 79.21224212646484 83.97003173828125 78.64942932128906 86.07388305664062 C 78.5508804321289 86.47223663330078 78.75839233398438 86.97557830810547 78.77362060546875 87.46778869628906 C 78.79428100585938 87.81556701660156 79.09839630126953 88.45935821533203 78.78115844726562 88.58491516113281 C 69.47569274902344 92.72613525390625 67.96771240234375 91.04308319091797 56.449676513671875 89.3566665649414 C 53.34965896606445 88.9784164428711 50.376407623291016 88.24295806884766 47.35746383666992 87.76913452148438 C 46.98274612426758 87.69298553466797 46.27760696411133 87.37847900390625 46.24589920043945 87.67549133300781 C 46.00531768798828 89.10020446777344 46.331459045410156 90.5054702758789 46.59743881225586 91.78339385986328 C 47.738895416259766 96.24775695800781 48.67859649658203 100.799560546875 50.32485580444336 105.15030670166016 C 52.09183120727539 109.60597229003906 54.77222442626953 113.64741516113281 57.111385345458984 117.83811950683594 C 57.836700439453125 119.13313293457031 60.04301071166992 123.88954162597656 62.33073043823242 124.65243530273438" stroke-width="2.0" fill="none" stroke="rgb(23, 24, 24)" stroke-opacity="1.0" stroke-linecap="round" stroke-linejoin="round"/>
    <path d="M 115.42212677001953 37.231719970703125 C 122.0241470336914 33.78480911254883 129.19432067871094 25.881378173828125 132.2885284423828 15.313987731933594" stroke-width="2.0" fill="none" stroke="rgb(200, 134, 67)" stroke-opacity="0.1159695" stroke-linecap="round" stroke-linejoin="round"/>
    <path d="M 100.1414794921875 102.59904479980469 C 92.67327880859375 104.35055541992188 90.22517395019531 115.37762451171875 91.40423583984375 122.4885482788086 C 102.5313491821289 132.86166381835938 102.1624526977539 136.98916625976562 112.24336242675781 130.05572509765625 C 110.5429916381836 122.92094421386719 111.31830596923828 125.24866485595703 104.67465209960938 114.83570861816406" stroke-width="2.0" fill="none" stroke="rgb(160, 81, 232)" stroke-opacity="0.43130487" stroke-linecap="round" stroke-linejoin="round"/>
    <path d="M 116.47952270507812 138.44955444335938 C 103.8532485961914 130.95147705078125 100.46529388427734 132.1763916015625 94.95189666748047 142.03941345214844 C 104.99502563476562 142.65782165527344 93.69342803955078 150.6118927001953 90.8968734741211 142.31201171875 C 83.34876251220703 147.59970092773438 85.42529296875 138.39315795898438 78.27352905273438 140.66102600097656" stroke-width="3.145989418029785" fill="none" stroke="rgb(111, 193, 246)" stroke-opacity="0.14099453" stroke-linecap="round" stroke-linejoin="round"/>
    <path d="M 75.33379364013672 64.81901550292969 C 75.19571685791016 52.463043212890625 78.45728302001953 54.50253677368164 79.60127258300781 53.17800521850586 C 80.06957244873047 57.113197326660156 79.06949615478516 49.68837356567383 86.25634002685547 38.426631927490234" stroke-width="2.0" fill="none" stroke="rgb(155, 221, 196)" stroke-opacity="0.72049516" stroke-linecap="round" stroke-linejoin="round"/>
    <path d="M 145.3043670654297 128.60838317871094 C 147.5895538330078 131.29534912109375 156.8712158203125 131.7585906982422 151.5859832763672 133.86325073242188" stroke-width="2.0" fill="none" stroke="rgb(154, 10, 225)" stroke-opacity="0.39545068" stroke-linecap="round" stroke-linejoin="round"/>
    <path d="M 106.11981201171875 98.93114471435547 C 103.72467803955078 101.27056884765625 114.53952026367188 95.78556060791016 105.86795806884766 103.36536407470703 C 100.24104309082031 94.12610626220703 108.78604888916016 103.04734802246094 119.0351791381836 99.13756561279297 C 113.10262298583984 101.44668579101562 116.87236785888672 95.98493957519531 120.87157440185547 87.93671417236328" stroke-width="2.0" fill="none" stroke="rgb(214, 227, 197)" stroke-opacity="0.38539088" stroke-linecap="round" stroke-linejoin="round"/>
    <path d="M 103.9654769897461 113.01067352294922 C 97.25646209716797 113.06863403320312 98.44221496582031 111.602294921875 100.89889526367188 102.62583923339844 C 96.5548324584961 115.25846862792969 101.07563018798828 117.38954162597656 105.2326889038086 119.36028289794922 C 107.39106750488281 119.03126525878906 111.65290069580078 111.78533172607422 105.77647399902344 121.75214385986328" stroke-width="2.0" fill="none" stroke="rgb(131, 212, 208)" stroke-opacity="0.74704117" stroke-linecap="round" stroke-linejoin="round"/>
    <path d="M 120.46115112304688 88.17330169677734 C 132.41171264648438 83.74385833740234 131.64048767089844 88.52237701416016 130.95347595214844 93.3250732421875 C 141.1931915283203 88.83369445800781 143.35411071777344 95.38218688964844 145.76467895507812 95.45685577392578" stroke-width="2.0" fill="none" stroke="rgb(59, 141, 129)" stroke-opacity="0.4610373" stroke-linecap="round" stroke-linejoin="round"/>
    <path d="M 86.76195526123047 40.50634002685547 C 99.41117858886719 28.553102493286133 107.0698471069336 24.43611717224121 107.29328918457031 30.249000549316406" stroke-width="2.0" fill="none" stroke="rgb(149, 67, 252)" stroke-opacity="0.54951996" stroke-linecap="round" stroke-linejoin="round"/>
    <path d="M 78.56651306152344 140.30393981933594 C 77.52616119384766 148.55323791503906 73.59657287597656 154.2283935546875 62.59395217895508 150.09519958496094 C 66.20885467529297 154.9962921142578 74.04592895507812 158.53758239746094 81.20777130126953 151.66146850585938" stroke-width="3.3635969161987305" fill="none" stroke="rgb(233, 48, 67)" stroke-opacity="0.6199674" stroke-linecap="round" stroke-linejoin="round"/>
    <path d="M 131.6288604736328 19.475175857543945 C 131.35238647460938 10.086464881896973 138.35903930664062 11.224759101867676 134.75469970703125 -1.601567029953003 C 138.99954223632812 -6.021008491516113 146.049560546875 -3.667963743209839 140.9917449951172 -5.679187774658203 C 146.65296936035156 -3.970611095428467 151.51339721679688 7.30548095703125 153.53553771972656 12.966876983642578" stroke-width="2.474034070968628" fill="none" stroke="rgb(85, 89, 17)" stroke-opacity="0.35307172" stroke-linecap="round" stroke-linejoin="round"/>
    <path d="M 120.4471664428711 85.75633239746094 C 131.82640075683594 75.6502685546875 130.8375244140625 84.96521759033203 135.82557678222656 86.10533142089844 C 143.28868103027344 87.62873077392578 131.99436950683594 86.40071105957031 132.75796508789062 80.46353149414062 C 126.80697631835938 80.85649108886719 127.86844635009766 77.30138397216797 133.8712158203125 85.61017608642578" stroke-width="2.0" fill="none" stroke="rgb(219, 134, 49)" stroke-opacity="0.51838547" stroke-linecap="round" stroke-linejoin="round"/>
    <path d="M 162.58824157714844 158.16864013671875 C 157.18057250976562 157.36476135253906 152.54261779785156 160.29237365722656 148.54962158203125 160.48838806152344 C 153.02841186523438 160.52001953125 161.09805297851562 168.29095458984375 159.64418029785156 161.6851806640625 C 159.002197265625 170.34022521972656 157.81785583496094 162.06832885742188 154.79025268554688 155.69525146484375" stroke-width="2.0" fill="none" stroke="rgb(237, 5, 190)" stroke-opacity="0.8628783" stroke-linecap="round" stroke-linejoin="round"/>
    <path d="M 65.35420989990234 40.01153564453125 C 71.67437744140625 28.739938735961914 78.59713745117188 18.548643112182617 79.779541015625 11.323484420776367" stroke-width="2.0" fill="none" stroke="rgb(206, 214, 200)" stroke-opacity="0.71332794" stroke-linecap="round" stroke-linejoin="round"/>
    <path d="M 87.43695068359375 18.471298217773438 C 87.26581573486328 17.353160858154297 79.533203125 23.66419219970703 69.8171615600586 34.82210922241211" stroke-width="2.0" fill="none" stroke="rgb(218, 195, 156)" stroke-opacity="0.86182725" stroke-linecap="round" stroke-linejoin="round"/>
    <path d="M 170.3662567138672 102.95565032958984 C 160.48599243164062 109.80140686035156 159.734619140625 99.40814971923828 164.49114990234375 93.10680389404297 C 156.23361206054688 95.06483459472656 150.87644958496094 89.83246612548828 150.40054321289062 91.20113372802734" stroke-width="2.0" fill="none" stroke="rgb(35, 233, 210)" stroke-opacity="0.36345586" stroke-linecap="round" stroke-linejoin="round"/>
    <path d="M 50.428062438964844 183.6221466064453 C 59.99358367919922 176.78549194335938 57.778873443603516 166.60598754882812 47.3530158996582 156.77999877929688 C 43.89756774902344 149.94131469726562 38.41514587402344 153.89500427246094 46.085025787353516 158.05747985839844 C 49.356571197509766 149.71409606933594 47.83860778808594 156.28594970703125 58.977210998535156 152.97325134277344" stroke-width="2.0" fill="none" stroke="rgb(230, 162, 76)" stroke-opacity="0.3695585" stroke-linecap="round" stroke-linejoin="round"/>
    <path d="M 223.9034423828125 10.871285438537598 C 223.4347686767578 23.054561614990234 218.76553344726562 22.454954147338867 215.90306091308594 12.811229705810547 C 217.463134765625 28.708621978759766 213.11517333984375 35.81172180175781 209.32786560058594 33.4094123840332 C 200.87109375 36.444400787353516 206.3490447998047 31.25948143005371 203.80606079101562 39.42042541503906" stroke-width="2.0" fill="none" stroke="rgb(193, 57, 255)" stroke-opacity="0.78153545" stroke-linecap="round" stroke-linejoin="round"/>
    <path d="M 117.2692642211914 203.9813690185547 C 112.38524627685547 192.763671875 113.09154510498047 189.12057495117188 118.66527557373047 187.6578826904297 C 127.74846649169922 194.32723999023438 131.36422729492188 203.6144561767578 122.73612976074219 213.73583984375 C 111.28406524658203 216.1982879638672 106.81676483154297 221.71653747558594 113.27105712890625 226.19908142089844" stroke-width="2.742339849472046" fill="none" stroke="rgb(217, 210, 165)" stroke-opacity="0.81817895" stroke-linecap="round" stroke-linejoin="round"/>
    <path d="M 149.57366943359375 143.19447326660156 C 159.09133911132812 139.3705596923828 159.181640625 143.4449920654297 157.556640625 139.08985900878906" stroke-width="2.0" fill="none" stroke="rgb(82, 197, 47)" stroke-opacity="0.20418777" stroke-linecap="round" stroke-linejoin="round"/>
    <path d="M 98.69664001464844 182.5110321044922 C 100.13383483886719 190.98269653320312 96.88121032714844 193.02696228027344 100.42866516113281 183.94802856445312 C 96.76136016845703 194.6975555419922 101.14527893066406 193.61952209472656 106.57501983642578 189.58856201171875" stroke-width="2.0" fill="none" stroke="rgb(18, 233, 15)" stroke-opacity="0.056275122" stroke-linecap="round" stroke-linejoin="round"/>
    <path d="M 217.62388610839844 10.542620658874512 C 210.04928588867188 14.029608726501465 202.61265563964844 7.5005083084106445 205.8367156982422 15.398698806762695 C 200.45608520507812 10.137784957885742 204.1641845703125 7.611019611358643 208.93902587890625 16.98322296142578" stroke-width="2.853522777557373" fill="none" stroke="rgb(241, 54, 30)" stroke-opacity="0.9509191" stroke-linecap="round" stroke-linejoin="round"/>
    <path d="M 146.08731079101562 168.09205627441406 C 141.1516876220703 165.83071899414062 136.84625244140625 154.61001586914062 130.74786376953125 145.14218139648438" stroke-width="2.0" fill="none" stroke="rgb(208, 96, 86)" stroke-opacity="0.7297092" stroke-linecap="round" stroke-linejoin="round"/>
    <path d="M 49.88620376586914 42.17741775512695 C 59.961177825927734 34.093223571777344 66.33675384521484 36.11700439453125 67.57099914550781 31.0043888092041" stroke-width="2.0" fill="none" stroke="rgb(22, 172, 153)" stroke-opacity="0.11449703" stroke-linecap="round" stroke-linejoin="round"/>
    <path d="M 164.26173400878906 81.31596374511719 C 150.76417541503906 72.35476684570312 149.88943481445312 80.1380386352539 153.5264892578125 84.75114440917969 C 148.0704803466797 86.87263488769531 148.2250518798828 85.41144561767578 151.57717895507812 77.76702117919922" stroke-width="2.0" fill="none" stroke="rgb(204, 134, 123)" stroke-opacity="0.14396654" stroke-linecap="round" stroke-linejoin="round"/>
  </g>
</svg>
