<?xml version="1.0" ?>
<svg xmlns="http://www.w3.org/2000/svg" version="1.1" width="956.0" height="956.0">
  <defs/>
  <g>
    <path d="M 360.76409912109375 770.5994262695312 C 413.2499694824219 726.4940795898438 466.3672180175781 687.4742431640625 516.6073608398438 649.7568359375 C 566.78662109375 608.9482421875 607.9674072265625 620.2606811523438 660.6517333984375 631.79638671875" stroke-width="8.535714149475098" fill="none" stroke="rgb(210, 127, 46)" stroke-opacity="0.5666263" stroke-linecap="round" stroke-linejoin="round"/>
    <path d="M 330.0401306152344 593.27783203125 C 313.9270324707031 660.9089965820312 312.16497802734375 757.359130859375 308.6360168457031 846.2730712890625" stroke-width="13.257009506225586" fill="none" stroke="rgb(255, 53, 75)" stroke-opacity="0.9280108" stroke-linecap="round" stroke-linejoin="round"/>
    <path d="M 562.207275390625 574.0787353515625 C 566.288330078125 685.9483032226562 565.3182373046875 791.7959594726562 573.1258544921875 851.2713623046875" stroke-width="8.535714149475098" fill="none" stroke="rgb(247, 28, 51)" stroke-opacity="0.93179744" stroke-linecap="round" stroke-linejoin="round"/>
    <path d="M 659.1981201171875 521.2078857421875 C 627.5681762695312 606.2266235351562 689.91796875 694.9331665039062 729.3802490234375 820.1614990234375" stroke-width="10.528096199035645" fill="none" stroke="rgb(163, 102, 42)" stroke-opacity="0.9521157" stroke-linecap="round" stroke-linejoin="round"/>
    <path d="M 354.50567626953125 772.4140014648438 C 416.6728820800781 760.9600830078125 502.9006652832031 751.3523559570312 577.86474609375 736.1048583984375 C 659.0823974609375 722.6574096679688 706.85107421875 736.2120971679688 702.991455078125 739.7534790039062" stroke-width="8.535714149475098" fill="none" stroke="rgb(190, 135, 115)" stroke-opacity="0.70983595" stroke-linecap="round" stroke-linejoin="round"/>
    <path d="M 630.3944702148438 606.8901977539062 C 667.6041870117188 523.8972778320312 708.396240234375 458.3983459472656 669.3455200195312 422.13153076171875 C 636.967529296875 396.8361511230469 518.2879028320312 422.89697265625 448.78326416015625 456.4858703613281 C 369.6327209472656 484.50537109375 324.3355407714844 506.2409362792969 281.71502685546875 538.8994140625 C 242.88494873046875 565.3668823242188 451.57403564453125 572.5765991210938 663.3900146484375 579.3604736328125" stroke-width="19.25395393371582" fill="none" stroke="rgb(253, 9, 2)" stroke-opacity="0.99206537" stroke-linecap="round" stroke-linejoin="round"/>
    <path d="M 612.4207763671875 446.78082275390625 C 582.127197265625 441.7893981933594 584.5885620117188 429.449951171875 528.6670532226562 432.58209228515625 C 484.87493896484375 436.724609375 425.2253723144531 453.2059020996094 366.0759582519531 467.4930419921875 C 304.44146728515625 483.81781005859375 421.1949768066406 505.62493896484375 543.2002563476562 526.5333862304688" stroke-width="43.60590362548828" fill="none" stroke="rgb(255, 2, 21)" stroke-opacity="0.97275895" stroke-linecap="round" stroke-linejoin="round"/>
    <path d="M 345.5922546386719 593.734619140625 C 558.4359741210938 620.10205078125 646.94580078125 599.11376953125 668.4558715820312 466.6048278808594" stroke-width="25.399078369140625" fill="none" stroke="rgb(0, 21, 20)" stroke-opacity="1.0" stroke-linecap="round" stroke-linejoin="round"/>
    <path d="M 323.4364013671875 563.4290161132812 C 343.8982238769531 582.8681030273438 369.1672058105469 613.3694458007812 385.1460876464844 645.219482421875 C 402.9573669433594 676.4814453125 402.2684631347656 714.67333984375 409.5029296875 742.14111328125 C 416.2869567871094 795.0174560546875 424.22125244140625 819.8154907226562 422.0993347167969 801.033203125" stroke-width="11.810877799987793" fill="none" stroke="rgb(166, 43, 2)" stroke-opacity="0.743157" stroke-linecap="round" stroke-linejoin="round"/>
    <path d="M 636.9815063476562 583.0680541992188 C 655.3239135742188 580.2631225585938 629.1292724609375 575.2263793945312 607.55224609375 574.6360473632812 C 592.9995727539062 558.1206665039062 593.7713012695312 521.384033203125 596.4257202148438 510.0978088378906" stroke-width="9.140981674194336" fill="none" stroke="rgb(246, 78, 141)" stroke-opacity="0.24851757" stroke-linecap="round" stroke-linejoin="round"/>
    <path d="M 604.9440307617188 578.6405029296875 C 582.7073364257812 572.302490234375 573.0341796875 656.4788208007812 568.7821655273438 618.9725952148438" stroke-width="8.535714149475098" fill="none" stroke="rgb(201, 50, 84)" stroke-opacity="0.3153522" stroke-linecap="round" stroke-linejoin="round"/>
    <path d="M 363.7118835449219 605.528564453125 C 377.0982971191406 662.4677124023438 401.498779296875 624.2723388671875 501.2496032714844 628.8445434570312" stroke-width="8.535714149475098" fill="none" stroke="rgb(248, 71, 63)" stroke-opacity="0.4310976" stroke-linecap="round" stroke-linejoin="round"/>
    <path d="M 579.3191528320312 507.7727355957031 C 596.0281982421875 460.5668640136719 600.6881103515625 448.0872802734375 581.8793334960938 451.64154052734375 C 569.9686279296875 471.70440673828125 567.5867309570312 508.02093505859375 581.6824951171875 520.1869506835938 C 597.20654296875 530.7738037109375 564.0257568359375 520.3460693359375 554.5913696289062 494.06494140625" stroke-width="32.3918342590332" fill="none" stroke="rgb(255, 0, 31)" stroke-opacity="0.9032334" stroke-linecap="round" stroke-linejoin="round"/>
    <path d="M 625.356201171875 447.3892822265625 C 571.385986328125 448.87896728515625 565.882080078125 440.05096435546875 538.8434448242188 442.08526611328125 C 530.7577514648438 461.9175109863281 507.7877502441406 497.84869384765625 490.6817932128906 529.9840087890625 C 473.00115966796875 564.4577026367188 424.23199462890625 545.176513671875 391.22894287109375 522.782470703125" stroke-width="9.061521530151367" fill="none" stroke="rgb(247, 67, 62)" stroke-opacity="0.5160568" stroke-linecap="round" stroke-linejoin="round"/>
    <path d="M 613.1652221679688 551.1151733398438 C 610.7727661132812 550.779296875 624.2023315429688 536.3095092773438 600.61181640625 552.1049194335938" stroke-width="10.255050659179688" fill="none" stroke="rgb(106, 183, 104)" stroke-opacity="0.4010897" stroke-linecap="round" stroke-linejoin="round"/>
    <path d="M 488.77667236328125 627.4400024414062 C 396.1837158203125 630.24951171875 388.4444885253906 574.5531616210938 370.3595275878906 592.5776977539062" stroke-width="11.97719955444336" fill="none" stroke="rgb(83, 100, 73)" stroke-opacity="0.22523285" stroke-linecap="round" stroke-linejoin="round"/>
    <path d="M 583.7659912109375 502.38739013671875 C 592.6116943359375 488.9906921386719 524.8793334960938 533.8352661132812 480.58795166015625 515.3681640625" stroke-width="9.909602165222168" fill="none" stroke="rgb(242, 20, 34)" stroke-opacity="0.6037497" stroke-linecap="round" stroke-linejoin="round"/>
    <path d="M 440.273681640625 518.1763916015625 C 478.2945251464844 549.0789794921875 500.6962585449219 569.4362182617188 452.5150451660156 594.3246459960938 C 423.0529479980469 604.4927978515625 343.1019592285156 577.037841796875 267.5656433105469 580.2030639648438 C 188.30918884277344 541.8547973632812 250.25469970703125 527.5504150390625 317.55029296875 528.7872924804688" stroke-width="8.535714149475098" fill="none" stroke="rgb(255, 38, 117)" stroke-opacity="0.18835676" stroke-linecap="round" stroke-linejoin="round"/>
    <path d="M 555.3680419921875 523.481689453125 C 563.1007080078125 484.3512878417969 585.3844604492188 471.94964599609375 599.5062866210938 465.51910400390625 C 598.678466796875 423.6002502441406 602.6905517578125 452.07489013671875 602.2333984375 507.3241882324219" stroke-width="23.23694610595703" fill="none" stroke="rgb(255, 0, 38)" stroke-opacity="0.6913352" stroke-linecap="round" stroke-linejoin="round"/>
    <path d="M 505.7830505371094 609.5975952148438 C 551.052001953125 618.6195068359375 599.0026245117188 615.18359375 611.8574829101562 609.799560546875 C 572.8216552734375 599.3265991210938 507.38018798828125 620.8825073242188 440.61993408203125 619.0377197265625 C 399.9949645996094 628.0682983398438 425.94964599609375 598.4176635742188 457.25390625 561.4026489257812" stroke-width="8.535714149475098" fill="none" stroke="rgb(208, 113, 158)" stroke-opacity="0.28246245" stroke-linecap="round" stroke-linejoin="round"/>
    <path d="M 632.4664916992188 493.2940368652344 C 647.9617309570312 469.4892578125 664.6109008789062 449.8216552734375 672.758544921875 469.4273986816406 C 691.3473510742188 480.91510009765625 687.9822998046875 531.5587768554688 686.955810546875 496.62396240234375 C 689.81005859375 501.1134338378906 682.6756591796875 358.5656433105469 689.2962646484375 308.5202331542969 C 691.6648559570312 301.9364013671875 687.2192993164062 344.94757080078125 690.5575561523438 355.2630920410156 C 700.1361694335938 383.2834777832031 692.3619384765625 323.5334167480469 692.4240112304688 257.5481262207031 C 697.3850708007812 197.3815155029297 707.80419921875 140.79429626464844 695.3252563476562 119.67650604248047 C 682.2853393554688 97.54287719726562 639.8640747070312 101.8607177734375 627.005615234375 113.77216339111328 C 616.3162841796875 122.5262680053711 635.4384765625 140.52761840820312 655.2456665039062 161.12550354003906 C 658.4282836914062 182.5301055908203 682.55078125 150.60337829589844 689.0450439453125 113.9981689453125" stroke-width="8.535714149475098" fill="none" stroke="rgb(32, 28, 20)" stroke-opacity="0.8309813" stroke-linecap="round" stroke-linejoin="round"/>
    <path d="M 395.5126647949219 508.7314758300781 C 383.9870910644531 488.99383544921875 373.0584411621094 470.6363830566406 377.8856506347656 471.9235534667969 C 389.9788818359375 469.29547119140625 389.8769836425781 490.55517578125 370.9486999511719 478.162841796875 C 379.8702697753906 461.78387451171875 377.2843322753906 397.8349914550781 373.15277099609375 336.2811279296875 C 370.31036376953125 279.465576171875 358.595703125 220.87672424316406 357.817626953125 164.03076171875 C 359.2362976074219 141.3174285888672 372.07098388671875 119.92594146728516 357.6056213378906 139.37791442871094 C 384.66015625 122.9870376586914 366.21246337890625 104.45494842529297 362.6820373535156 138.23472595214844" stroke-width="25.46390724182129" fill="none" stroke="rgb(34, 31, 30)" stroke-opacity="0.95512056" stroke-linecap="round" stroke-linejoin="round"/>
    <path d="M 370.5368957519531 110.2972640991211 C 411.9739990234375 108.74578857421875 539.7903442382812 111.92222595214844 561.0610961914062 111.51570129394531 C 620.0433959960938 113.26918029785156 622.4087524414062 115.48124694824219 611.6055297851562 117.00756072998047 C 631.1638793945312 114.67125701904297 654.064453125 121.83914184570312 664.9078979492188 128.5303192138672" stroke-width="11.19001579284668" fill="none" stroke="rgb(25, 20, 17)" stroke-opacity="0.9667667" stroke-linecap="round" stroke-linejoin="round"/>
    <path d="M 453.9977722167969 576.9599609375 C 439.4948425292969 581.8709716796875 427.0115051269531 582.4664306640625 405.6070251464844 557.467041015625 C 427.643798828125 546.003662109375 385.2334289550781 535.733642578125 345.3251953125 521.8782348632812" stroke-width="18.544570922851562" fill="none" stroke="rgb(255, 159, 171)" stroke-opacity="0.1365582" stroke-linecap="round" stroke-linejoin="round"/>
    <path d="M 618.0323486328125 614.8887329101562 C 640.7158203125 629.76708984375 643.485107421875 627.322509765625 624.6151123046875 615.9738159179688 C 613.3447265625 617.568359375 589.4885864257812 606.2301025390625 546.4397583007812 615.4617919921875 C 565.9722900390625 613.181396484375 566.5531616210938 629.3907470703125 549.9864501953125 628.8247680664062" stroke-width="11.137242317199707" fill="none" stroke="rgb(254, 96, 109)" stroke-opacity="0.2416898" stroke-linecap="round" stroke-linejoin="round"/>
    <path d="M 398.5738830566406 477.5108337402344 C 402.8739318847656 449.01312255859375 430.67755126953125 430.3062438964844 458.55426025390625 406.8345947265625 C 486.59368896484375 385.94439697265625 414.74957275390625 442.145751953125 349.8093566894531 503.80419921875" stroke-width="9.728373527526855" fill="none" stroke="rgb(59, 100, 81)" stroke-opacity="0.30916893" stroke-linecap="round" stroke-linejoin="round"/>
    <path d="M 721.3248901367188 781.6265258789062 C 717.3659057617188 818.6038208007812 715.5250244140625 814.1543579101562 709.8031616210938 838.3065795898438 C 692.60302734375 841.9013671875 670.2262573242188 878.9926147460938 638.0460205078125 911.015380859375 C 626.18896484375 950.6918334960938 607.6473388671875 919.2578735351562 615.1129150390625 895.6730346679688" stroke-width="8.535714149475098" fill="none" stroke="rgb(255, 103, 130)" stroke-opacity="0.33017394" stroke-linecap="round" stroke-linejoin="round"/>
    <path d="M 679.4319458007812 110.63116455078125 C 724.1626586914062 125.09033203125 727.3446044921875 95.22947692871094 717.6060791015625 71.5262222290039 C 739.0736083984375 62.100215911865234 741.3914794921875 83.87297058105469 738.6666870117188 108.67044830322266 C 731.5067749023438 111.41432189941406 729.9112548828125 82.25545501708984 739.6430053710938 41.3751106262207" stroke-width="11.820662498474121" fill="none" stroke="rgb(255, 211, 255)" stroke-opacity="0.21113542" stroke-linecap="round" stroke-linejoin="round"/>
    <path d="M 365.6764831542969 504.9541931152344 C 387.4134826660156 508.4611511230469 361.0632019042969 507.59698486328125 362.4407958984375 498.0472717285156 C 372.73150634765625 481.0821228027344 356.14227294921875 468.6355895996094 349.9413146972656 496.09814453125" stroke-width="8.535714149475098" fill="none" stroke="rgb(171, 71, 52)" stroke-opacity="0.2658148" stroke-linecap="round" stroke-linejoin="round"/>
    <path d="M 448.03961181640625 546.0183715820312 C 465.46685791015625 558.7630004882812 466.9017028808594 567.9920043945312 459.8718566894531 587.0331420898438 C 456.9441223144531 606.928466796875 469.7275390625 597.021728515625 487.70465087890625 582.3955078125" stroke-width="9.904770851135254" fill="none" stroke="rgb(198, 161, 144)" stroke-opacity="0.44202468" stroke-linecap="round" stroke-linejoin="round"/>
    <path d="M 470.1922912597656 587.0693359375 C 460.5627746582031 594.6039428710938 455.6473083496094 625.6851196289062 444.8324890136719 625.7821044921875 C 422.8415832519531 630.2391357421875 418.1768493652344 636.2171630859375 413.1265869140625 624.165283203125" stroke-width="10.72840404510498" fill="none" stroke="rgb(118, 139, 129)" stroke-opacity="0.30584455" stroke-linecap="round" stroke-linejoin="round"/>
    <path d="M 504.70440673828125 647.4758911132812 C 529.0057373046875 624.0784301757812 503.2501525878906 631.0289306640625 455.64727783203125 629.4697265625 C 435.366455078125 636.7007446289062 389.11053466796875 636.5153198242188 416.7229919433594 644.8724975585938 C 391.828857421875 657.1094970703125 408.5863952636719 685.3726196289062 441.1606140136719 668.8914184570312" stroke-width="15.820365905761719" fill="none" stroke="rgb(205, 200, 206)" stroke-opacity="0.28915766" stroke-linecap="round" stroke-linejoin="round"/>
    <path d="M 400.6997375488281 690.8589477539062 C 451.13134765625 675.8958740234375 491.1980285644531 664.4166259765625 535.490234375 652.5565795898438 C 575.5154418945312 642.7088623046875 541.7565307617188 599.5823364257812 503.5255126953125 560.9159545898438" stroke-width="8.535714149475098" fill="none" stroke="rgb(198, 44, 53)" stroke-opacity="0.4184654" stroke-linecap="round" stroke-linejoin="round"/>
    <path d="M 428.9202575683594 125.90306854248047 C 432.1902770996094 121.91654205322266 426.4250183105469 137.68817138671875 427.0145263671875 157.4889678955078 C 421.05902099609375 151.0494842529297 429.24359130859375 165.5131072998047 423.5727233886719 138.7440643310547 C 429.1854553222656 167.01844787597656 429.09228515625 201.92359924316406 428.7718200683594 225.85133361816406 C 423.7337341308594 249.92396545410156 430.2030334472656 285.2068786621094 425.6966857910156 342.6981506347656 C 430.5207214355469 365.9766845703125 425.0708923339844 404.43096923828125 430.377685546875 422.9507141113281" stroke-width="8.535714149475098" fill="none" stroke="rgb(29, 26, 9)" stroke-opacity="0.994416" stroke-linecap="round" stroke-linejoin="round"/>
    <path d="M 498.88116455078125 150.5722198486328 C 499.5315246582031 161.45999145507812 499.4497985839844 160.34800720214844 498.5839538574219 148.8382568359375 C 498.625 136.7585906982422 499.7322998046875 156.34825134277344 498.779296875 139.98931884765625 C 499.9164733886719 152.15789794921875 499.6736755371094 180.66368103027344 499.3638610839844 157.20562744140625 C 498.6641845703125 220.27767944335938 499.890869140625 301.9966735839844 498.94659423828125 345.496337890625 C 498.5022888183594 380.63812255859375 499.7242736816406 412.6649475097656 499.46881103515625 406.9322814941406" stroke-width="8.535714149475098" fill="none" stroke="rgb(35, 30, 34)" stroke-opacity="0.86794037" stroke-linecap="round" stroke-linejoin="round"/>
    <path d="M 583.460693359375 132.1195831298828 C 585.9373779296875 141.54310607910156 581.6298828125 126.48238372802734 585.2786254882812 129.560791015625 C 586.0725708007812 165.1326904296875 584.64111328125 181.2754364013672 583.760009765625 153.5666961669922 C 587.132568359375 168.11019897460938 586.1578369140625 177.15090942382812 584.3884887695312 162.99652099609375 C 583.4161376953125 231.81719970703125 585.1536254882812 344.4443664550781 583.4620361328125 398.58807373046875" stroke-width="8.535714149475098" fill="none" stroke="rgb(45, 39, 14)" stroke-opacity="0.8286146" stroke-linecap="round" stroke-linejoin="round"/>
    <path d="M 650.7271728515625 155.2645263671875 C 651.5772705078125 152.18389892578125 653.005126953125 147.2626495361328 655.2039184570312 137.40171813964844 C 656.5223999023438 133.67266845703125 655.1453247070312 140.00741577148438 651.8598022460938 186.07943725585938 C 653.496826171875 150.90269470214844 655.4418334960938 180.7490234375 653.4017944335938 178.07135009765625 C 653.3273315429688 261.8838195800781 652.0271606445312 360.3254699707031 653.40625 411.1708679199219" stroke-width="8.535714149475098" fill="none" stroke="rgb(43, 15, 36)" stroke-opacity="0.8397362" stroke-linecap="round" stroke-linejoin="round"/>
    <path d="M 418.0196533203125 265.0886535644531 C 370.3412780761719 255.8155059814453 383.9438171386719 214.88873291015625 420.0087585449219 196.6989288330078 C 400.80712890625 200.88406372070312 390.19384765625 234.96812438964844 401.0133972167969 206.29209899902344 C 441.9740905761719 161.35321044921875 448.0075988769531 212.01638793945312 449.90191650390625 215.6217041015625" stroke-width="8.535714149475098" fill="none" stroke="rgb(237, 233, 173)" stroke-opacity="0.25114432" stroke-linecap="round" stroke-linejoin="round"/>
    <path d="M 415.6269836425781 322.2738037109375 C 386.4278259277344 337.3829040527344 391.5218505859375 345.734130859375 388.5746154785156 334.85089111328125" stroke-width="8.535714149475098" fill="none" stroke="rgb(220, 191, 51)" stroke-opacity="0.39202416" stroke-linecap="round" stroke-linejoin="round"/>
    <path d="M 416.7768249511719 243.18406677246094 C 409.9839782714844 244.6696319580078 428.6698913574219 282.9173583984375 434.489990234375 285.3956604003906 C 459.7648620605469 277.6073303222656 416.7341613769531 328.74658203125 454.9345397949219 333.82373046875" stroke-width="8.535714149475098" fill="none" stroke="rgb(255, 225, 77)" stroke-opacity="0.044530265" stroke-linecap="round" stroke-linejoin="round"/>
    <path d="M 433.83966064453125 284.0179138183594 C 432.35675048828125 294.1357727050781 401.7210998535156 251.0233154296875 454.9402160644531 230.5796356201172 C 431.92010498046875 223.9172821044922 396.2905578613281 214.2848358154297 443.40008544921875 218.1920928955078 C 427.7500915527344 226.7716827392578 461.5344543457031 229.70188903808594 479.5475769042969 233.21652221679688" stroke-width="9.369382858276367" fill="none" stroke="rgb(196, 110, 12)" stroke-opacity="0.027886098" stroke-linecap="round" stroke-linejoin="round"/>
    <path d="M 410.5605163574219 240.0244598388672 C 433.3323669433594 208.8616180419922 450.8301696777344 223.08816528320312 473.0987548828125 208.6331329345703" stroke-width="8.535714149475098" fill="none" stroke="rgb(25, 58, 51)" stroke-opacity="0.0" stroke-linecap="round" stroke-linejoin="round"/>
    <path d="M 422.04229736328125 401.0845031738281 C 480.89532470703125 393.75970458984375 455.4094543457031 376.66107177734375 465.353515625 362.2779235839844" stroke-width="8.535714149475098" fill="none" stroke="rgb(111, 225, 212)" stroke-opacity="0.33368868" stroke-linecap="round" stroke-linejoin="round"/>
    <path d="M 419.4954528808594 164.32875061035156 C 406.57861328125 167.27078247070312 415.18988037109375 162.40087890625 465.5353698730469 161.36557006835938" stroke-width="8.535714149475098" fill="none" stroke="rgb(93, 211, 150)" stroke-opacity="0.25045103" stroke-linecap="round" stroke-linejoin="round"/>
    <path d="M 416.8434753417969 415.51934814453125 C 420.293212890625 388.260009765625 484.3280334472656 403.0960693359375 461.1771240234375 363.69287109375 C 482.2509765625 313.1778869628906 475.727294921875 290.53790283203125 456.6461181640625 335.9411926269531" stroke-width="8.535714149475098" fill="none" stroke="rgb(211, 201, 219)" stroke-opacity="0.523214" stroke-linecap="round" stroke-linejoin="round"/>
    <path d="M 418.5477600097656 199.33255004882812 C 429.00933837890625 250.71043395996094 400.6184997558594 257.50909423828125 321.9283752441406 227.02764892578125 C 309.76348876953125 260.7403564453125 331.13446044921875 225.7862091064453 316.9657897949219 192.7797393798828 C 290.7345886230469 224.74853515625 280.64947509765625 208.97940063476562 331.7657165527344 202.62350463867188" stroke-width="8.535714149475098" fill="none" stroke="rgb(172, 175, 151)" stroke-opacity="0.35736218" stroke-linecap="round" stroke-linejoin="round"/>
    <path d="M 423.02947998046875 407.4449768066406 C 376.684326171875 429.8961181640625 329.2867431640625 421.4920959472656 310.4394836425781 424.0606994628906 C 349.2318115234375 422.781982421875 309.5912780761719 445.0694580078125 325.38043212890625 438.0881652832031" stroke-width="8.535714149475098" fill="none" stroke="rgb(219, 255, 216)" stroke-opacity="0.22318892" stroke-linecap="round" stroke-linejoin="round"/>
    <path d="M 403.8089904785156 308.9727478027344 C 427.4150695800781 297.85919189453125 401.4637145996094 280.6063537597656 421.22076416015625 294.08203125 C 411.422119140625 271.4543151855469 427.4638671875 304.0045166015625 503.77508544921875 254.19125366210938 C 542.8123779296875 338.6094055175781 494.9983825683594 340.6057434082031 467.7198181152344 294.9593811035156" stroke-width="8.535714149475098" fill="none" stroke="rgb(229, 188, 255)" stroke-opacity="0.3909171" stroke-linecap="round" stroke-linejoin="round"/>
    <path d="M 399.1687927246094 350.6417236328125 C 396.79071044921875 322.8667907714844 391.9645690917969 288.9140319824219 390.04364013671875 244.8119659423828 C 353.61370849609375 225.6934356689453 317.6822204589844 204.44354248046875 331.9575500488281 188.3731231689453" stroke-width="10.383641242980957" fill="none" stroke="rgb(73, 112, 227)" stroke-opacity="0.0" stroke-linecap="round" stroke-linejoin="round"/>
    <path d="M 408.4820556640625 420.4919128417969 C 428.2464904785156 400.1067199707031 419.1768798828125 382.27423095703125 413.5080871582031 417.9006652832031" stroke-width="8.932557106018066" fill="none" stroke="rgb(35, 195, 22)" stroke-opacity="0.017087428" stroke-linecap="round" stroke-linejoin="round"/>
    <path d="M 416.7928466796875 402.0188903808594 C 453.02288818359375 399.85345458984375 434.5268249511719 404.004150390625 455.32891845703125 401.9569396972656" stroke-width="8.535714149475098" fill="none" stroke="rgb(233, 65, 115)" stroke-opacity="0.11889185" stroke-linecap="round" stroke-linejoin="round"/>
    <path d="M 413.0858154296875 141.65545654296875 C 418.87188720703125 132.0643310546875 383.6229553222656 141.51055908203125 393.2076416015625 203.60882568359375" stroke-width="12.780051231384277" fill="none" stroke="rgb(2, 164, 109)" stroke-opacity="0.10439634" stroke-linecap="round" stroke-linejoin="round"/>
    <path d="M 392.44561767578125 378.1313781738281 C 438.3857421875 417.1821594238281 421.41583251953125 424.7138366699219 397.06317138671875 425.27716064453125" stroke-width="8.535714149475098" fill="none" stroke="rgb(233, 217, 168)" stroke-opacity="0.34134218" stroke-linecap="round" stroke-linejoin="round"/>
    <path d="M 430.9537048339844 176.76170349121094 C 398.5394287109375 216.7666473388672 436.7425537109375 268.94940185546875 448.7041015625 243.74517822265625 C 454.925537109375 243.3799591064453 476.9863586425781 276.4839782714844 458.90533447265625 298.54986572265625" stroke-width="14.041874885559082" fill="none" stroke="rgb(27, 120, 214)" stroke-opacity="0.10107928" stroke-linecap="round" stroke-linejoin="round"/>
    <path d="M 416.23602294921875 133.20333862304688 C 429.0444641113281 151.14688110351562 474.85980224609375 177.91754150390625 550.9154663085938 164.55149841308594" stroke-width="16.88675308227539" fill="none" stroke="rgb(83, 34, 117)" stroke-opacity="0.0062303394" stroke-linecap="round" stroke-linejoin="round"/>
    <path d="M 411.89007568359375 320.19879150390625 C 398.89593505859375 315.2795104980469 390.54522705078125 304.9431457519531 385.4273681640625 350.5491943359375" stroke-width="8.535714149475098" fill="none" stroke="rgb(115, 87, 198)" stroke-opacity="0.32293105" stroke-linecap="round" stroke-linejoin="round"/>
    <path d="M 417.3209228515625 382.75372314453125 C 364.4815979003906 435.5673522949219 368.1974182128906 443.6270751953125 383.3014831542969 436.424072265625 C 384.7683410644531 445.40948486328125 439.1319885253906 465.9433898925781 456.8563537597656 463.3617248535156 C 453.62445068359375 443.1118469238281 467.8554992675781 386.151611328125 462.78497314453125 408.580322265625" stroke-width="8.535714149475098" fill="none" stroke="rgb(167, 129, 171)" stroke-opacity="0.07453133" stroke-linecap="round" stroke-linejoin="round"/>
    <path d="M 417.789794921875 153.83595275878906 C 409.6526184082031 207.8816680908203 401.0075988769531 171.0821075439453 443.3861389160156 171.6638641357422 C 470.8250427246094 145.06488037109375 466.29339599609375 156.073486328125 495.7812805175781 151.061767578125" stroke-width="21.344388961791992" fill="none" stroke="rgb(136, 180, 255)" stroke-opacity="0.35950795" stroke-linecap="round" stroke-linejoin="round"/>
    <path d="M 425.72393798828125 178.1033477783203 C 431.2095947265625 180.35702514648438 491.1030578613281 175.67291259765625 468.111083984375 158.4073028564453 C 482.8983154296875 183.47726440429688 460.59979248046875 250.3153839111328 477.3334655761719 189.47581481933594 C 439.4617919921875 221.59217834472656 449.0446472167969 243.58319091796875 468.5682067871094 219.33749389648438" stroke-width="8.535714149475098" fill="none" stroke="rgb(105, 246, 183)" stroke-opacity="0.39421314" stroke-linecap="round" stroke-linejoin="round"/>
    <path d="M 440.516845703125 278.9900207519531 C 406.9700012207031 275.6184387207031 412.1363830566406 239.53575134277344 450.39288330078125 253.48094177246094 C 450.2695007324219 245.1899871826172 417.9627990722656 258.8533935546875 428.27593994140625 238.91835021972656 C 449.9414978027344 217.6683807373047 422.67962646484375 190.64788818359375 399.64483642578125 145.1939239501953" stroke-width="10.167108535766602" fill="none" stroke="rgb(63, 254, 167)" stroke-opacity="0.014246974" stroke-linecap="round" stroke-linejoin="round"/>
    <path d="M 422.2306213378906 145.10231018066406 C 419.8327941894531 180.4865264892578 385.44970703125 206.242919921875 373.6856994628906 116.02819061279297 C 391.3183288574219 152.88360595703125 402.183837890625 182.35018920898438 377.6188049316406 173.27565002441406" stroke-width="9.946191787719727" fill="none" stroke="rgb(214, 140, 206)" stroke-opacity="0.12104426" stroke-linecap="round" stroke-linejoin="round"/>
    <path d="M 410.6254577636719 188.0424041748047 C 391.5296936035156 151.86891174316406 363.31982421875 134.9693145751953 342.9702453613281 150.0442352294922 C 366.3521728515625 104.37638092041016 335.3940124511719 136.1497802734375 357.61083984375 117.93387603759766 C 347.81072998046875 150.3297576904297 292.7524108886719 129.93275451660156 323.6553649902344 150.88307189941406" stroke-width="8.535714149475098" fill="none" stroke="rgb(178, 187, 174)" stroke-opacity="0.362568" stroke-linecap="round" stroke-linejoin="round"/>
    <path d="M 421.89459228515625 255.2260284423828 C 420.4332275390625 238.39471435546875 425.0292663574219 255.5620880126953 419.32373046875 270.7063293457031 C 392.013671875 296.73162841796875 433.5243225097656 345.2812805175781 429.1036376953125 374.9210205078125 C 468.295166015625 323.87225341796875 467.07666015625 330.3714904785156 472.2012939453125 389.6798400878906" stroke-width="8.535714149475098" fill="none" stroke="rgb(105, 157, 191)" stroke-opacity="0.059109487" stroke-linecap="round" stroke-linejoin="round"/>
    <path d="M 391.7491455078125 280.9728088378906 C 389.3763122558594 274.7015686035156 394.2057189941406 288.8664245605469 396.2908630371094 285.43646240234375" stroke-width="8.535714149475098" fill="none" stroke="rgb(96, 94, 135)" stroke-opacity="0.5383268" stroke-linecap="round" stroke-linejoin="round"/>
    <path d="M 425.9216613769531 351.2548828125 C 422.3373718261719 395.4502868652344 411.7543029785156 388.613525390625 384.315185546875 361.8207702636719 C 405.2995910644531 399.3643493652344 400.1190490722656 375.0884094238281 371.51043701171875 343.6978454589844 C 372.1194763183594 238.32566833496094 325.5413818359375 256.88128662109375 304.6617431640625 300.8069152832031" stroke-width="8.535714149475098" fill="none" stroke="rgb(122, 137, 110)" stroke-opacity="0.42555457" stroke-linecap="round" stroke-linejoin="round"/>
    <path d="M 432.8061218261719 382.4407043457031 C 418.1144104003906 350.2566223144531 403.3630676269531 329.23345947265625 424.5616760253906 378.7623596191406" stroke-width="8.775988578796387" fill="none" stroke="rgb(111, 54, 111)" stroke-opacity="0.10960205" stroke-linecap="round" stroke-linejoin="round"/>
    <path d="M 437.1872253417969 395.8257751464844 C 464.5938415527344 386.7497863769531 420.09210205078125 411.06829833984375 442.0417785644531 410.7206726074219 C 413.6759338378906 423.9611511230469 387.53607177734375 366.45123291015625 397.29437255859375 397.91864013671875 C 398.2685241699219 351.3558044433594 379.58953857421875 293.6993103027344 398.7893371582031 271.9789733886719" stroke-width="24.425939559936523" fill="none" stroke="rgb(144, 240, 241)" stroke-opacity="0.0011183326" stroke-linecap="round" stroke-linejoin="round"/>
    <path d="M 408.80810546875 192.1064453125 C 419.8985900878906 275.595458984375 429.089111328125 304.75311279296875 449.70904541015625 273.9158630371094 C 485.5074157714844 286.6891174316406 513.6129150390625 265.3306884765625 525.668212890625 305.1043701171875" stroke-width="29.926671981811523" fill="none" stroke="rgb(77, 196, 255)" stroke-opacity="0.09187181" stroke-linecap="round" stroke-linejoin="round"/>
    <path d="M 398.0404357910156 428.51177978515625 C 448.7987060546875 452.20587158203125 497.8063049316406 444.4281921386719 496.9443054199219 387.94476318359375 C 492.6260986328125 365.9741516113281 550.6804809570312 359.7416076660156 542.66259765625 316.8233642578125 C 483.92254638671875 349.85693359375 452.0160217285156 347.84442138671875 495.9207763671875 374.8374328613281" stroke-width="8.99280071258545" fill="none" stroke="rgb(153, 44, 221)" stroke-opacity="0.09836971" stroke-linecap="round" stroke-linejoin="round"/>
  </g>
</svg>
