<?xml version="1.0" ?>
<svg xmlns="http://www.w3.org/2000/svg" version="1.1" width="956.0" height="956.0">
  <defs/>
  <g>
    <path d="M 48.009178161621094 16.351917266845703 C 51.33255386352539 15.807280540466309 55.379329681396484 15.359539031982422 58.60124206542969 15.807392120361328 C 61.60781478881836 16.148887634277344 63.95509719848633 18.299739837646484 65.27147674560547 20.273704528808594 C 66.13887786865234 21.574275970458984 66.93312072753906 22.507524490356445 67.56874084472656 23.973966598510742 C 69.02613067626953 28.59413719177246 68.8101806640625 37.737464904785156 68.81027221679688 43.40522766113281 C 69.35480499267578 46.025726318359375 68.8101806640625 48.91834259033203 68.81018829345703 51.539005279541016 C 69.35482025146484 54.11689758300781 69.59393310546875 56.23734664916992 68.97174072265625 58.20890808105469 C 68.23486328125 60.54154586791992 65.16533660888672 62.22025680541992 62.55646514892578 62.513763427734375 C 58.706199645996094 64.07781219482422 54.394744873046875 64.29984283447266 50.305274963378906 64.844482421875 C 47.63099670410156 64.844482421875 45.22514724731445 65.16046142578125 43.031578063964844 63.313385009765625 C 39.68878936767578 60.49884033203125 39.74785614013672 55.69158172607422 39.20322036743164 51.666770935058594 C 39.747806549072266 49.86360168457031 39.206886291503906 48.337371826171875 41.117401123046875 47.4553108215332 C 42.536739349365234 47.59611892700195 43.66399002075195 47.61685562133789 44.597354888916016 47.07222366333008 C 47.194740295410156 47.07222366333008 47.95967102050781 48.7241096496582 48.647239685058594 51.57332229614258 C 51.73871994018555 57.35367202758789 52.33798599243164 64.8063735961914 53.27522277832031 70.68167877197266 C 52.80987548828125 72.51826477050781 53.551639556884766 77.91310119628906 53.65829849243164 79.13800811767578 C 53.399658203125 79.86390686035156 52.069847106933594 80.42996978759766 51.36100387573242 79.48648071289062 C 50.86201477050781 79.20581817626953 49.9660758972168 79.2648696899414 49.540287017822266 78.88301086425781" stroke-width="1.0892857313156128" fill="none" stroke="rgb(26, 26, 21)" stroke-opacity="1.0" stroke-linecap="round" stroke-linejoin="round"/>
    <path d="M 51.360992431640625 80.0310287475586 C 56.2992057800293 79.63477325439453 53.482059478759766 75.20236206054688 55.80770492553711 80.40005493164062" stroke-width="1.0892857313156128" fill="none" stroke="rgb(29, 234, 145)" stroke-opacity="0.12695715" stroke-linecap="round" stroke-linejoin="round"/>
    <path d="M 53.113670349121094 78.59668731689453 C 57.21398162841797 79.1119384765625 57.32015609741211 79.65457153320312 56.0706672668457 84.34173583984375" stroke-width="1.0892857313156128" fill="none" stroke="rgb(225, 195, 141)" stroke-opacity="0.44506484" stroke-linecap="round" stroke-linejoin="round"/>
    <path d="M 50.849857330322266 64.844482421875 C 55.54589080810547 60.00689697265625 51.336143493652344 59.86508560180664 49.46303939819336 62.55293655395508" stroke-width="1.0892857313156128" fill="none" stroke="rgb(111, 30, 157)" stroke-opacity="0.5692069" stroke-linecap="round" stroke-linejoin="round"/>
    <path d="M 43.031593322753906 63.31336975097656 C 43.82219314575195 62.97368621826172 46.06441879272461 57.522430419921875 48.11935043334961 61.109642028808594" stroke-width="1.1982136964797974" fill="none" stroke="rgb(16, 0, 182)" stroke-opacity="0.7485326" stroke-linecap="round" stroke-linejoin="round"/>
    <path d="M 41.11740493774414 47.45530700683594 C 36.149375915527344 45.6204719543457 34.88275146484375 40.96379089355469 36.79501724243164 43.806888580322266" stroke-width="1.0892857313156128" fill="none" stroke="rgb(136, 144, 171)" stroke-opacity="0.15218318" stroke-linecap="round" stroke-linejoin="round"/>
    <path d="M 41.66202926635742 47.45530700683594 C 35.67626953125 42.77072525024414 37.09521484375 40.80084991455078 33.316062927246094 38.54338073730469 C 28.503149032592773 40.191898345947266 33.68515396118164 38.891571044921875 38.12676239013672 44.98069763183594" stroke-width="1.0892857313156128" fill="none" stroke="rgb(254, 63, 68)" stroke-opacity="0.40122092" stroke-linecap="round" stroke-linejoin="round"/>
    <path d="M 65.27147674560547 20.81833839416504 C 62.600563049316406 22.703075408935547 60.29621887207031 21.62957191467285 60.867916107177734 23.777088165283203 C 60.955379486083984 19.07707977294922 60.46852493286133 22.106138229370117 59.53491973876953 27.299476623535156 C 60.53575134277344 22.103742599487305 61.04804992675781 25.122386932373047 58.36186981201172 24.462886810302734" stroke-width="1.1982134580612183" fill="none" stroke="rgb(190, 177, 238)" stroke-opacity="0.7728099" stroke-linecap="round" stroke-linejoin="round"/>
    <path d="M 43.57621765136719 63.313377380371094 C 37.81023406982422 68.21812438964844 33.78645706176758 68.45063781738281 39.125953674316406 73.03601837158203 C 40.80226135253906 70.37594604492188 37.67811584472656 68.00321960449219 35.61819076538086 65.09793090820312" stroke-width="1.198213815689087" fill="none" stroke="rgb(219, 4, 14)" stroke-opacity="0.6652088" stroke-linecap="round" stroke-linejoin="round"/>
    <path d="M 56.0706672668457 84.34171295166016 C 55.59811782836914 84.6582260131836 51.05251693725586 80.10682678222656 46.15209197998047 76.89055633544922 C 48.479087829589844 82.49051666259766 45.021175384521484 82.91765594482422 49.50738525390625 85.86363983154297" stroke-width="1.1982141733169556" fill="none" stroke="rgb(152, 26, 27)" stroke-opacity="1.0" stroke-linecap="round" stroke-linejoin="round"/>
    <path d="M 56.07067108154297 84.34169006347656 C 56.546165466308594 86.60193634033203 52.24489212036133 89.16455078125 49.33133316040039 93.59754180908203" stroke-width="1.0892857313156128" fill="none" stroke="rgb(184, 84, 40)" stroke-opacity="0.74499553" stroke-linecap="round" stroke-linejoin="round"/>
    <path d="M 58.36186599731445 24.462892532348633 C 63.04536819458008 27.0045166015625 65.94732666015625 31.40813636779785 60.96120071411133 35.3620491027832 C 64.64927673339844 31.588491439819336 62.5043830871582 34.04713821411133 68.47330474853516 38.18242263793945" stroke-width="1.0892857313156128" fill="none" stroke="rgb(202, 159, 70)" stroke-opacity="0.25913826" stroke-linecap="round" stroke-linejoin="round"/>
    <path d="M 58.90615463256836 24.462886810302734 C 53.678123474121094 22.142086029052734 51.03472137451172 27.743915557861328 44.84233474731445 27.074359893798828 C 44.224578857421875 23.33119010925293 48.17652130126953 23.78543472290039 43.18762969970703 30.038225173950195" stroke-width="1.0892857313156128" fill="none" stroke="rgb(155, 168, 86)" stroke-opacity="0.6338704" stroke-linecap="round" stroke-linejoin="round"/>
    <path d="M 47.574920654296875 61.10964584350586 C 43.43944549560547 56.73058319091797 44.2138557434082 52.80705642700195 38.95436096191406 58.19029235839844" stroke-width="1.198214054107666" fill="none" stroke="rgb(175, 152, 47)" stroke-opacity="0.558603" stroke-linecap="round" stroke-linejoin="round"/>
    <path d="M 35.61818313598633 64.55329895019531 C 40.371055603027344 64.16046905517578 45.83567428588867 68.35185241699219 46.082584381103516 69.90586853027344 C 47.65449523925781 71.08277893066406 48.51322937011719 72.48023986816406 44.86772918701172 75.72159576416016 C 48.484153747558594 71.35853576660156 50.19705581665039 69.76116943359375 44.917945861816406 69.68074035644531" stroke-width="1.0892857313156128" fill="none" stroke="rgb(199, 223, 35)" stroke-opacity="0.64001423" stroke-linecap="round" stroke-linejoin="round"/>
    <path d="M 58.36186599731445 23.918254852294922 C 52.39352798461914 26.556503295898438 49.03445053100586 24.335479736328125 53.43522644042969 19.60603141784668 C 52.026466369628906 24.189682006835938 49.215087890625 19.175046920776367 55.184749603271484 17.287424087524414 C 53.92665100097656 18.956499099731445 48.26118469238281 15.939096450805664 50.04323959350586 15.505455017089844" stroke-width="1.0892857313156128" fill="none" stroke="rgb(166, 64, 185)" stroke-opacity="0.7677316" stroke-linecap="round" stroke-linejoin="round"/>
    <path d="M 55.26313781738281 80.40007019042969 C 50.429927825927734 77.16857147216797 55.699398040771484 78.65159606933594 58.29985427856445 83.84695434570312 C 61.813350677490234 85.9580078125 58.29530334472656 91.13367462158203 56.149932861328125 91.03718566894531" stroke-width="1.1982141733169556" fill="none" stroke="rgb(254, 49, 127)" stroke-opacity="0.25499466" stroke-linecap="round" stroke-linejoin="round"/>
    <path d="M 110.11524963378906 46.339744567871094 C 107.04081726074219 45.2742805480957 112.38384246826172 49.305328369140625 117.59896087646484 53.483741760253906" stroke-width="1.1982139348983765" fill="none" stroke="rgb(125, 41, 198)" stroke-opacity="0.73688674" stroke-linecap="round" stroke-linejoin="round"/>
    <path d="M 46.32099533081055 19.014467239379883 C 49.46268844604492 15.932862281799316 51.14813232421875 19.030685424804688 56.17454147338867 18.37049674987793" stroke-width="1.1982109546661377" fill="none" stroke="rgb(171, 101, 99)" stroke-opacity="0.08180764" stroke-linecap="round" stroke-linejoin="round"/>
    <path d="M 24.018957138061523 88.81026458740234 C 29.19622230529785 89.4355697631836 29.40276527404785 94.3536376953125 29.38718605041504 89.69346618652344" stroke-width="1.1982139348983765" fill="none" stroke="rgb(208, 23, 185)" stroke-opacity="0.61088526" stroke-linecap="round" stroke-linejoin="round"/>
    <path d="M 85.31827545166016 86.38736724853516 C 79.40557098388672 92.2009506225586 75.39432525634766 95.90080261230469 70.48606872558594 98.2626724243164" stroke-width="1.198214054107666" fill="none" stroke="rgb(123, 54, 229)" stroke-opacity="0.70284235" stroke-linecap="round" stroke-linejoin="round"/>
    <path d="M 48.14942932128906 43.36077117919922 C 45.494686126708984 37.628929138183594 43.34649658203125 39.33121109008789 44.41212463378906 39.328033447265625 C 47.1114616394043 38.46092987060547 52.98048782348633 41.33615493774414 56.539329528808594 39.114219665527344" stroke-width="1.1982141733169556" fill="none" stroke="rgb(71, 73, 58)" stroke-opacity="0.78453386" stroke-linecap="round" stroke-linejoin="round"/>
    <path d="M 86.23753356933594 113.53882598876953 C 91.02540588378906 111.47871398925781 88.54248046875 109.76155853271484 83.32767486572266 105.38361358642578 C 88.8252182006836 107.99626159667969 86.65777587890625 108.18587493896484 89.2603530883789 104.23194885253906" stroke-width="1.0892857313156128" fill="none" stroke="rgb(238, 120, 224)" stroke-opacity="0.46015066" stroke-linecap="round" stroke-linejoin="round"/>
    <path d="M 55.4081916809082 113.511474609375 C 60.32438659667969 111.59684753417969 65.27305603027344 109.75100708007812 67.8878173828125 114.8091812133789 C 72.63060760498047 114.73056030273438 72.82027435302734 113.24163818359375 76.91412353515625 112.35503387451172 C 72.99696350097656 112.98164367675781 76.39511108398438 115.3883285522461 81.1936264038086 110.00631713867188" stroke-width="1.0892857313156128" fill="none" stroke="rgb(168, 142, 110)" stroke-opacity="0.49772304" stroke-linecap="round" stroke-linejoin="round"/>
    <path d="M 66.25763702392578 73.82125854492188 C 60.768680572509766 71.1254653930664 66.08882141113281 74.66815185546875 68.67759704589844 73.86526489257812 C 72.57931518554688 79.251953125 70.9884262084961 75.31175994873047 68.69518280029297 73.09778594970703" stroke-width="1.0892857313156128" fill="none" stroke="rgb(27, 232, 201)" stroke-opacity="0.76567185" stroke-linecap="round" stroke-linejoin="round"/>
    <path d="M 16.530738830566406 16.96245765686035 C 15.718238830566406 11.51280689239502 18.823772430419922 9.558589935302734 16.067638397216797 5.265012264251709 C 20.294206619262695 3.795245409011841 22.7244930267334 3.1484813690185547 22.926057815551758 -0.7373242974281311" stroke-width="1.0892857313156128" fill="none" stroke="rgb(106, 78, 8)" stroke-opacity="0.6739655" stroke-linecap="round" stroke-linejoin="round"/>
    <path d="M 116.4626693725586 67.24141693115234 C 114.55074310302734 65.71568298339844 113.27251434326172 60.5244255065918 108.51812744140625 55.585968017578125 C 109.75983428955078 51.232723236083984 106.1867446899414 55.571720123291016 109.01466369628906 59.64788055419922" stroke-width="1.0892857313156128" fill="none" stroke="rgb(39, 26, 116)" stroke-opacity="0.85150015" stroke-linecap="round" stroke-linejoin="round"/>
    <path d="M 12.963861465454102 113.65848541259766 C 14.389183044433594 113.89263916015625 15.423855781555176 119.937744140625 10.63364028930664 122.93942260742188 C 12.855550765991211 125.3596420288086 16.034757614135742 127.01790618896484 12.59426498413086 131.59996032714844 C 12.501355171203613 128.11842346191406 16.009822845458984 129.73768615722656 18.98912239074707 133.41966247558594" stroke-width="1.0892857313156128" fill="none" stroke="rgb(221, 155, 36)" stroke-opacity="0.5922493" stroke-linecap="round" stroke-linejoin="round"/>
    <path d="M 11.416791915893555 103.373291015625 C 8.742172241210938 106.36605834960938 9.409671783447266 103.59098815917969 12.893394470214844 98.75375366210938" stroke-width="1.0892857313156128" fill="none" stroke="rgb(251, 116, 220)" stroke-opacity="0.37361053" stroke-linecap="round" stroke-linejoin="round"/>
    <path d="M 117.16506958007812 98.77442169189453 C 116.56598663330078 95.0738296508789 121.39136505126953 92.14031982421875 118.27851104736328 87.59601593017578 C 113.06560516357422 88.71488189697266 111.40312194824219 83.23893737792969 106.56464385986328 84.11874389648438 C 101.40412139892578 88.73189544677734 107.0675277709961 86.48678588867188 111.97101593017578 81.63856506347656" stroke-width="1.198213815689087" fill="none" stroke="rgb(85, 42, 59)" stroke-opacity="0.606737" stroke-linecap="round" stroke-linejoin="round"/>
    <path d="M 71.56173706054688 4.130931377410889 C 76.78886413574219 3.247304916381836 77.89976501464844 9.415192604064941 71.85033416748047 7.973509311676025 C 65.50593566894531 11.568751335144043 64.4269027709961 9.944472312927246 63.141754150390625 9.072320938110352 C 58.994659423828125 6.265485763549805 54.180389404296875 5.131482124328613 52.8403434753418 9.737464904785156" stroke-width="1.0892857313156128" fill="none" stroke="rgb(84, 89, 98)" stroke-opacity="0.09764363" stroke-linecap="round" stroke-linejoin="round"/>
    <path d="M 26.784439086914062 93.64453887939453 C 26.398578643798828 98.67801666259766 23.395219802856445 95.27062225341797 24.15647315979004 92.1420669555664 C 25.282957077026367 95.27301788330078 21.09270668029785 96.5741195678711 26.873943328857422 94.43360900878906 C 22.909982681274414 97.53823852539062 27.138103485107422 92.8807373046875 33.04745101928711 95.34637451171875" stroke-width="1.0892857313156128" fill="none" stroke="rgb(29, 84, 20)" stroke-opacity="0.56845635" stroke-linecap="round" stroke-linejoin="round"/>
    <path d="M 28.06431770324707 47.7159309387207 C 31.064367294311523 43.997989654541016 28.79570960998535 46.28011703491211 33.64998245239258 49.612789154052734 C 29.396133422851562 50.10149383544922 28.329715728759766 48.52326583862305 25.408613204956055 43.623748779296875 C 23.789981842041016 41.49403381347656 20.17685317993164 37.77033996582031 24.964170455932617 36.04497528076172" stroke-width="1.0892857313156128" fill="none" stroke="rgb(157, 68, 51)" stroke-opacity="0.11543595" stroke-linecap="round" stroke-linejoin="round"/>
  </g>
</svg>
