<?xml version="1.0" ?>
<svg xmlns="http://www.w3.org/2000/svg" version="1.1" width="2137.0" height="2137.0">
  <defs/>
  <g>
    <path d="M 32.09061050415039 82.23562622070312 C 89.04147338867188 83.04238891601562 146.40560913085938 83.08224487304688 203.89466857910156 82.32969665527344 C 261.415283203125 83.1198959350586 208.93980407714844 75.03500366210938 157.20693969726562 66.2264633178711" stroke-width="2.0" fill="none" stroke="rgb(7, 0, 1)" stroke-opacity="0.96821314" stroke-linecap="round" stroke-linejoin="round"/>
    <path d="M 74.39845275878906 92.30448913574219 C 68.54618835449219 134.27496337890625 63.30613327026367 176.1786651611328 76.23029327392578 188.11648559570312 C 88.51963806152344 199.36734008789062 117.69287109375 179.3166961669922 147.451904296875 159.85055541992188 C 177.33309936523438 140.54916381835938 166.76112365722656 133.34739685058594 156.17059326171875 126.79544830322266" stroke-width="2.51576566696167" fill="none" stroke="rgb(2, 0, 0)" stroke-opacity="1.0" stroke-linecap="round" stroke-linejoin="round"/>
    <path d="M 153.83309936523438 94.75794982910156 C 164.937744140625 93.5398178100586 176.02914428710938 93.05380249023438 177.8595733642578 97.67253112792969 C 180.452880859375 102.22539520263672 173.03756713867188 112.60429382324219 164.93882751464844 122.28968811035156 C 157.573974609375 132.70425415039062 159.8175506591797 133.66380310058594 162.07484436035156 133.90567016601562" stroke-width="2.0" fill="none" stroke="rgb(0, 0, 0)" stroke-opacity="0.9754832" stroke-linecap="round" stroke-linejoin="round"/>
    <path d="M 93.37459564208984 110.15931701660156 C 89.451904296875 121.49305725097656 85.51972198486328 133.54612731933594 81.62122344970703 145.60308837890625 C 78.38666534423828 157.6494598388672 86.64006042480469 150.83738708496094 95.5971908569336 144.00067138671875" stroke-width="2.0" fill="none" stroke="rgb(0, 0, 0)" stroke-opacity="0.97242033" stroke-linecap="round" stroke-linejoin="round"/>
    <path d="M 76.62397003173828 111.04222106933594 C 87.5876693725586 107.7330322265625 79.87362670898438 111.16285705566406 90.92649841308594 111.41024017333984" stroke-width="2.0" fill="none" stroke="rgb(0, 0, 5)" stroke-opacity="0.9982747" stroke-linecap="round" stroke-linejoin="round"/>
    <path d="M 111.32665252685547 116.15282440185547 C 119.12623596191406 112.40232849121094 111.40035247802734 116.52633666992188 119.64752960205078 118.24407196044922" stroke-width="2.0" fill="none" stroke="rgb(0, 0, 5)" stroke-opacity="0.98532873" stroke-linecap="round" stroke-linejoin="round"/>
    <path d="M 85.83645629882812 161.30990600585938 C 107.01091003417969 162.54600524902344 108.2146224975586 162.70677185058594 107.68612670898438 162.28289794921875" stroke-width="2.0171473026275635" fill="none" stroke="rgb(0, 4, 0)" stroke-opacity="1.0" stroke-linecap="round" stroke-linejoin="round"/>
    <path d="M 116.82915496826172 120.41767120361328 C 117.63200378417969 119.37395477294922 118.47455596923828 119.02828216552734 121.03728485107422 120.40007019042969 C 123.58009338378906 121.11351776123047 127.84794616699219 122.82131958007812 131.8501739501953 124.24822998046875 C 136.54092407226562 125.00180053710938 139.52215576171875 126.97116088867188 143.3189239501953 126.35945892333984 C 147.82069396972656 126.46826171875 151.72991943359375 125.42699432373047 153.45545959472656 127.49034118652344 C 155.19198608398438 130.253173828125 154.7829132080078 135.40664672851562 152.83908081054688 137.82666015625 C 151.52490234375 140.91883850097656 149.39340209960938 142.67796325683594 149.27191162109375 142.17298889160156 C 148.4541778564453 140.96095275878906 148.93817138671875 138.88714599609375 147.05506896972656 139.14834594726562 C 145.1858673095703 140.1951141357422 140.9650115966797 142.1639404296875 136.6201171875 142.03909301757812 C 132.99191284179688 142.59030151367188 130.65365600585938 139.62156677246094 128.3711700439453 137.0474090576172 C 125.33586120605469 135.9382781982422 123.79121398925781 135.1673126220703 122.59536743164062 134.3697967529297 C 121.39312744140625 133.58270263671875 120.51797485351562 132.7982940673828 121.25088500976562 133.43887329101562 C 120.55701446533203 134.08050537109375 121.47205352783203 136.1492919921875 120.6439208984375 136.35275268554688 C 119.86942291259766 137.31240844726562 117.3328857421875 137.13787841796875 116.83167266845703 136.61859130859375 C 115.62474060058594 136.09732055664062 115.74616241455078 135.9512481689453 115.62390899658203 136.40296936035156 C 116.93597412109375 136.14358520507812 118.02133178710938 137.88006591796875 118.367919921875 139.62876892089844 C 119.41299438476562 141.35870361328125 112.27096557617188 143.69140625 105.12602996826172 146.0737762451172" stroke-width="2.0" fill="none" stroke="rgb(16, 19, 17)" stroke-opacity="1.0" stroke-linecap="round" stroke-linejoin="round"/>
    <path d="M 127.06748962402344 78.14895629882812 C 127.03255462646484 78.72628021240234 127.0028305053711 78.58153533935547 127.314208984375 77.98409271240234 C 127.62615966796875 78.10155487060547 128.27818298339844 78.4936752319336 127.63402557373047 78.40678405761719 C 127.71263122558594 79.0347900390625 127.93984985351562 77.74251556396484 127.60986328125 75.25918579101562 C 126.51551055908203 73.51205444335938 126.31243133544922 69.13068389892578 126.65355682373047 64.11412048339844 C 126.31260681152344 60.44486618041992 125.06230163574219 56.335819244384766 124.5400619506836 53.28452682495117 C 124.04800415039062 50.22675704956055 123.53833770751953 48.327293395996094 123.76261138916016 45.71360778808594 C 123.2652587890625 43.80776596069336 123.19692993164062 39.707340240478516 122.3739013671875 36.34370803833008" stroke-width="2.0" fill="none" stroke="rgb(18, 21, 20)" stroke-opacity="0.96541923" stroke-linecap="round" stroke-linejoin="round"/>
    <path d="M 114.37845611572266 36.367645263671875 C 113.56327819824219 36.65962600708008 112.7613754272461 36.961280822753906 113.25778198242188 37.829246520996094 C 113.03429412841797 37.97482681274414 112.71073150634766 37.973934173583984 112.71263122558594 38.5450553894043 C 112.02079772949219 39.093074798583984 109.55684661865234 39.47393798828125 107.70352172851562 40.36848068237305 C 105.8424301147461 41.24271774291992 103.87027740478516 41.915382385253906 98.81584930419922 45.42018508911133 C 93.760986328125 48.925384521484375 85.6139144897461 55.24911880493164 82.07601165771484 59.47006607055664 C 77.77790832519531 62.93297576904297 77.3748779296875 63.58534240722656 76.70680236816406 64.35255432128906 C 75.31655883789062 64.39889526367188 74.38319396972656 65.2829818725586 73.44773864746094 66.16459655761719 C 72.51696014404297 67.77294158935547 70.31932830810547 68.16880798339844 67.40088653564453 67.81550598144531" stroke-width="2.0" fill="none" stroke="rgb(22, 19, 16)" stroke-opacity="0.98881525" stroke-linecap="round" stroke-linejoin="round"/>
    <path d="M 54.06571578979492 90.98540496826172 C 54.17926025390625 92.73967742919922 54.27066421508789 93.7798080444336 55.2558479309082 95.30387115478516 C 56.92873001098633 96.1285400390625 58.774017333984375 98.1440658569336 58.64718246459961 103.26905059814453 C 57.94297409057617 108.39026641845703 55.907691955566406 116.62226104736328 56.29595947265625 121.744873046875 C 57.39168167114258 127.5671615600586 59.47392654418945 129.59483337402344 61.06261444091797 130.38381958007812 C 62.670963287353516 131.133544921875 63.10226058959961 130.61502075195312 64.60755157470703 130.60621643066406 C 65.4104995727539 131.30776977539062 66.58463287353516 133.2130584716797 67.86553192138672 134.19798278808594 C 69.13267517089844 135.19837951660156 70.51591491699219 135.9619140625 75.32704162597656 135.71881103515625 C 80.13568115234375 135.45443725585938 88.36723327636719 134.18527221679688 93.14566802978516 134.43124389648438 C 97.92636108398438 134.5767364501953 99.25743865966797 135.52281188964844 100.58634948730469 136.46209716796875 C 101.90281677246094 138.11941528320312 105.1666488647461 137.11477661132812 108.43978118896484 136.13815307617188" stroke-width="2.0" fill="none" stroke="rgb(22, 15, 19)" stroke-opacity="1.0" stroke-linecap="round" stroke-linejoin="round"/>
    <path d="M 105.07876586914062 120.7712173461914 C 105.26274871826172 121.0009765625 103.95136260986328 120.48385620117188 104.78523254394531 121.17018127441406 C 104.88252258300781 121.09878540039062 104.87493133544922 120.7274169921875 104.38191223144531 117.97940826416016 C 104.63317108154297 115.98442840576172 102.86158752441406 112.3744888305664 100.64763641357422 111.81299591064453 C 99.20763397216797 110.47882843017578 98.08981323242188 110.79623413085938 98.20592498779297 110.8214340209961 C 99.009765625 111.6911849975586 100.37974548339844 111.04354095458984 101.77677917480469 110.40752410888672 C 103.12649536132812 109.75167846679688 102.578125 105.99535369873047 102.04261779785156 102.99942779541016" stroke-width="2.0" fill="none" stroke="rgb(22, 23, 15)" stroke-opacity="1.0" stroke-linecap="round" stroke-linejoin="round"/>
    <path d="M 99.59973907470703 96.44152069091797 C 98.67935180664062 96.76017761230469 97.74838256835938 96.34806823730469 96.70574188232422 96.42207336425781 C 95.66405487060547 95.772216796875 94.50704193115234 96.33702850341797 93.35120391845703 96.8886947631836 C 92.20024108886719 97.46328735351562 89.3226547241211 96.81935119628906 87.18197631835938 95.4677505493164" stroke-width="2.0" fill="none" stroke="rgb(21, 20, 24)" stroke-opacity="1.0" stroke-linecap="round" stroke-linejoin="round"/>
    <path d="M 136.0387420654297 92.2444839477539 C 135.05413818359375 94.1407470703125 134.0780487060547 94.59828186035156 133.78424072265625 96.5678939819336 C 133.5502471923828 99.25482940673828 134.0452117919922 102.03556823730469 135.6485137939453 104.32542419433594 C 137.24362182617188 106.6095199584961 140.69784545898438 107.66468048095703 141.9434814453125 108.01918029785156 C 143.18333435058594 109.09478759765625 142.9287872314453 108.05184173583984 144.1250762939453 107.64592742919922 C 144.61294555664062 108.65803527832031 147.26724243164062 110.30108642578125 148.5751190185547 111.55091857910156 C 150.5987548828125 112.0859603881836 149.85516357421875 113.6473388671875 150.0272979736328 114.12136840820312 C 150.213134765625 114.58895111083984 150.60658264160156 114.67807006835938 151.1792755126953 114.73394775390625 C 152.46206665039062 114.06554412841797 153.21522521972656 114.07164764404297 153.8638153076172 115.00912475585938 C 154.52102661132812 116.64774322509766 155.0684051513672 117.81906127929688 155.20677185058594 119.30540466308594 C 154.60235595703125 120.79496002197266 154.33164978027344 121.88706970214844 154.04481506347656 121.95294952392578 C 153.7516632080078 122.73342895507812 153.4390869140625 121.76136779785156 149.42027282714844 121.22686767578125 C 145.40577697753906 120.665771484375 137.68270874023438 120.54290771484375 130.6762237548828 119.6460189819336 C 122.25030517578125 119.56706237792969 126.63336944580078 117.51305389404297 130.9978790283203 115.39867401123047" stroke-width="2.0" fill="none" stroke="rgb(25, 21, 26)" stroke-opacity="1.0" stroke-linecap="round" stroke-linejoin="round"/>
    <path d="M 133.9162139892578 27.683372497558594 C 133.1125946044922 29.37126922607422 133.02630615234375 30.337724685668945 133.29794311523438 30.2243595123291 C 133.57382202148438 30.104537963867188 134.21295166015625 28.904224395751953 135.64990234375 33.13529586791992 C 137.141845703125 37.358524322509766 140.15843200683594 46.3012809753418 141.53143310546875 52.371986389160156 C 142.23117065429688 59.13634490966797 142.7705078125 61.59921646118164 144.1581573486328 63.390594482421875 C 144.82858276367188 65.89093017578125 145.620361328125 68.42710876464844 146.1202850341797 69.46138000488281 C 145.91671752929688 71.19924926757812 146.1676483154297 70.71056365966797 146.8597869873047 72.68600463867188 C 148.26284790039062 73.95166015625 149.39466857910156 78.39512634277344 150.16168212890625 80.28450775146484 C 150.90286254882812 82.18627166748047 151.25738525390625 81.551513671875 151.07623291015625 83.26084899902344 C 150.8961639404297 84.28118896484375 149.4737091064453 86.26128387451172 149.58937072753906 89.41583251953125 C 149.79669189453125 91.85035705566406 150.92091369628906 93.32051086425781 152.21896362304688 94.39392852783203 C 152.78199768066406 95.48247528076172 152.8109130859375 95.46997833251953 152.5760498046875 99.40481567382812 C 152.30250549316406 102.62943267822266 151.80088806152344 109.10269927978516 150.19447326660156 111.98184967041016 C 147.87164306640625 114.14354705810547 145.12789916992188 113.41075134277344 145.20623779296875 113.13063049316406 C 144.5767364501953 112.86616516113281 146.06893920898438 113.02262115478516 140.6768035888672 110.91311645507812 C 136.6505126953125 107.48117065429688 125.67687225341797 101.90264892578125 118.49607849121094 99.4655532836914 C 112.78411102294922 96.89627075195312 110.84246826171875 98.22445678710938 109.36276245117188 98.02474975585938 C 108.59339904785156 97.68255615234375 108.98261260986328 96.08990478515625 109.05644226074219 96.41270446777344 C 109.12480163574219 96.04298400878906 109.58112335205078 96.33047485351562 109.37784576416016 96.821533203125 C 109.16886901855469 97.31153106689453 108.9928970336914 97.98986053466797 108.42715454101562 98.9238052368164 C 107.87146759033203 99.86241912841797 106.2194595336914 100.35103607177734 105.31232452392578 103.05612182617188 C 103.65754699707031 105.01348876953125 101.35942077636719 107.79710388183594 100.56480407714844 109.2123031616211 C 99.76873779296875 110.62928009033203 100.45832061767578 110.66766357421875 99.59839630126953 111.72570037841797 C 97.98957824707031 112.03791046142578 95.52783966064453 114.06961822509766 93.24213409423828 114.27897644042969 C 90.9681625366211 115.22312927246094 89.56829071044922 112.91300201416016 87.45877838134766 111.31615447998047 C 84.59474182128906 110.4820556640625 80.22523498535156 107.2720718383789 75.86941528320312 104.07144927978516" stroke-width="2.0" fill="none" stroke="rgb(18, 27, 18)" stroke-opacity="1.0" stroke-linecap="round" stroke-linejoin="round"/>
    <path d="M 165.914794921875 141.3750457763672 C 165.8043212890625 144.7742919921875 165.69578552246094 148.1682891845703 165.58267211914062 152.2979736328125 C 166.2118682861328 155.69496154785156 157.266357421875 156.462158203125 148.31910705566406 157.23336791992188" stroke-width="3.439941883087158" fill="none" stroke="rgb(189, 125, 11)" stroke-opacity="0.21964511" stroke-linecap="round" stroke-linejoin="round"/>
    <path d="M 149.06459045410156 103.01969909667969 C 147.75778198242188 88.24784088134766 162.41661071777344 98.6292724609375 159.3409881591797 91.77169036865234" stroke-width="2.0" fill="none" stroke="rgb(254, 55, 171)" stroke-opacity="0.18532349" stroke-linecap="round" stroke-linejoin="round"/>
    <path d="M 73.43907165527344 91.86155700683594 C 77.40827178955078 94.85424041748047 80.64012908935547 98.59052276611328 83.25820922851562 99.8488540649414 C 86.6158218383789 99.62371063232422 90.09947967529297 96.92415618896484 93.58340454101562 94.22286987304688 C 97.0738525390625 91.52936553955078 93.8471450805664 85.78095245361328 89.1415786743164 80.0311050415039" stroke-width="2.439000129699707" fill="none" stroke="rgb(128, 253, 170)" stroke-opacity="0.12027287" stroke-linecap="round" stroke-linejoin="round"/>
    <path d="M 200.48377990722656 83.97050476074219 C 203.86244201660156 83.65156555175781 205.77188110351562 82.58634948730469 208.41424560546875 82.26029205322266 C 211.0570831298828 82.67313385009766 205.8822021484375 80.95806884765625 201.44351196289062 79.2413330078125" stroke-width="2.0" fill="none" stroke="rgb(131, 156, 62)" stroke-opacity="0.48331666" stroke-linecap="round" stroke-linejoin="round"/>
    <path d="M 141.40867614746094 152.03671264648438 C 152.3915252685547 148.0391082763672 139.6990509033203 156.7656707763672 142.90115356445312 165.0855255126953" stroke-width="2.0" fill="none" stroke="rgb(145, 16, 243)" stroke-opacity="0.0" stroke-linecap="round" stroke-linejoin="round"/>
    <path d="M 29.652524948120117 80.11968231201172 C 26.920642852783203 82.60303497314453 24.912982940673828 85.81009674072266 21.443035125732422 87.55670928955078 C 18.700925827026367 90.0331039428711 20.221071243286133 84.69876098632812 21.008380889892578 78.64059448242188" stroke-width="2.0" fill="none" stroke="rgb(48, 48, 57)" stroke-opacity="0.31535673" stroke-linecap="round" stroke-linejoin="round"/>
    <path d="M 202.84544372558594 76.24089050292969 C 206.9249725341797 83.71345520019531 210.987548828125 91.18936157226562 214.32286071777344 99.39179229736328 C 218.38551330566406 106.14988708496094 219.65467834472656 91.44988250732422 220.91513061523438 77.46524810791016" stroke-width="2.0" fill="none" stroke="rgb(75, 66, 217)" stroke-opacity="0.643178" stroke-linecap="round" stroke-linejoin="round"/>
    <path d="M 17.935827255249023 83.63042449951172 C 13.49732780456543 85.81541442871094 9.797296524047852 88.00257873535156 6.822422504425049 90.919677734375 C 2.4030282497406006 93.09687805175781 1.009606122970581 89.76074981689453 0.325690895318985 85.72013854980469" stroke-width="2.0" fill="none" stroke="rgb(42, 32, 220)" stroke-opacity="0.7288139" stroke-linecap="round" stroke-linejoin="round"/>
    <path d="M 133.91525268554688 167.06817626953125 C 136.93197631835938 164.9737548828125 139.8826446533203 162.9049835205078 142.8338623046875 160.8370819091797 C 145.75685119628906 158.72369384765625 154.65623474121094 155.24720764160156 163.57742309570312 151.79397583007812" stroke-width="5.746143341064453" fill="none" stroke="rgb(254, 0, 12)" stroke-opacity="0.78230286" stroke-linecap="round" stroke-linejoin="round"/>
    <path d="M 141.0052947998047 157.6269989013672 C 141.64022827148438 154.8349609375 142.27420043945312 152.7894287109375 143.95445251464844 151.00613403320312 C 146.3813934326172 149.97201538085938 149.11488342285156 148.45277404785156 151.8321075439453 146.2237548828125 C 154.57203674316406 145.40548706054688 156.23240661621094 138.80653381347656 157.8919677734375 131.4563446044922" stroke-width="2.0" fill="none" stroke="rgb(52, 73, 3)" stroke-opacity="0.05619753" stroke-linecap="round" stroke-linejoin="round"/>
    <path d="M 150.92849731445312 167.1409912109375 C 134.36856079101562 166.4882049560547 118.53559112548828 165.8387908935547 113.39530181884766 169.85903930664062 C 106.79814147949219 174.6041259765625 110.88203430175781 183.28880310058594 115.69744110107422 191.23867797851562 C 119.79002380371094 199.9137725830078 127.57975006103516 197.4801025390625 135.3721466064453 195.05203247070312" stroke-width="2.0" fill="none" stroke="rgb(232, 84, 195)" stroke-opacity="0.10017595" stroke-linecap="round" stroke-linejoin="round"/>
    <path d="M 149.48468017578125 152.59701538085938 C 146.93203735351562 150.91903686523438 143.64096069335938 150.71127319335938 142.85894775390625 152.54241943359375 C 141.34288024902344 154.3804931640625 143.07681274414062 158.989990234375 145.55458068847656 162.86264038085938 C 146.54579162597656 167.47756958007812 145.3679962158203 167.48623657226562 144.18502807617188 166.03627014160156" stroke-width="2.0" fill="none" stroke="rgb(254, 122, 78)" stroke-opacity="0.37096825" stroke-linecap="round" stroke-linejoin="round"/>
    <path d="M 118.1287612915039 108.33111572265625 C 118.51673889160156 110.83592987060547 119.64141082763672 112.60089874267578 119.7466049194336 108.583251953125 C 119.121826171875 104.5449447631836 118.95503234863281 94.7528305053711 118.78565216064453 84.95431518554688 C 118.62335968017578 75.1503677368164 114.9812240600586 67.9360122680664 109.8597412109375 62.20234298706055" stroke-width="2.3325769901275635" fill="none" stroke="rgb(191, 51, 89)" stroke-opacity="0.38747966" stroke-linecap="round" stroke-linejoin="round"/>
    <path d="M 179.873291015625 22.133190155029297 C 185.4893035888672 21.00994300842285 191.105224609375 19.18777847290039 188.41348266601562 15.729089736938477 C 185.67153930664062 13.00183391571045 174.61973571777344 9.358335494995117 162.90859985351562 6.360593795776367 C 151.87123107910156 2.6882975101470947 167.82284545898438 11.555274963378906 183.77740478515625 20.4223690032959" stroke-width="2.0" fill="none" stroke="rgb(151, 144, 254)" stroke-opacity="0.7532641" stroke-linecap="round" stroke-linejoin="round"/>
    <path d="M 162.37484741210938 150.0561981201172 C 169.7600860595703 158.71339416503906 177.44906616210938 167.3692626953125 180.44541931152344 164.77569580078125 C 183.41749572753906 161.3944091796875 182.20620727539062 145.1929473876953 180.99215698242188 130.5486297607422 C 178.99925231933594 115.1250991821289 173.06689453125 124.31717681884766 166.072021484375 132.72616577148438" stroke-width="2.0" fill="none" stroke="rgb(115, 52, 198)" stroke-opacity="0.022320865" stroke-linecap="round" stroke-linejoin="round"/>
    <path d="M 223.85894775390625 189.5948486328125 C 220.1479034423828 186.7064971923828 216.44064331054688 183.8184356689453 211.96810913085938 180.95306396484375 C 208.27102661132812 178.79977416992188 213.32408142089844 168.61097717285156 216.88787841796875 157.6932830810547" stroke-width="2.0" fill="none" stroke="rgb(83, 46, 219)" stroke-opacity="0.2907336" stroke-linecap="round" stroke-linejoin="round"/>
    <path d="M 173.5523223876953 196.61294555664062 C 169.5192108154297 197.56224060058594 165.49586486816406 198.51121520996094 162.1962127685547 200.19171142578125 C 158.17059326171875 200.4190673828125 161.9855194091797 200.29212951660156 165.07691955566406 200.18414306640625" stroke-width="2.0" fill="none" stroke="rgb(54, 44, 135)" stroke-opacity="0.6820488" stroke-linecap="round" stroke-linejoin="round"/>
    <path d="M 166.60720825195312 157.4323272705078 C 163.81512451171875 177.18292236328125 166.13427734375 186.17257690429688 168.30856323242188 199.80934143066406" stroke-width="2.4661762714385986" fill="none" stroke="rgb(21, 33, 34)" stroke-opacity="0.30950376" stroke-linecap="round" stroke-linejoin="round"/>
    <path d="M 82.05696868896484 137.00436401367188 C 78.36378479003906 106.0929183959961 84.04949188232422 105.31157684326172 78.0539779663086 106.63445281982422" stroke-width="2.0" fill="none" stroke="rgb(146, 170, 149)" stroke-opacity="0.69329023" stroke-linecap="round" stroke-linejoin="round"/>
    <path d="M 223.16209411621094 33.18635177612305 C 224.39907836914062 38.35468292236328 224.88792419433594 45.00901794433594 226.1259002685547 50.916812896728516 C 227.73406982421875 56.465919494628906 227.2211151123047 60.70175552368164 226.71038818359375 64.93535614013672" stroke-width="2.119818687438965" fill="none" stroke="rgb(103, 93, 231)" stroke-opacity="0.056056947" stroke-linecap="round" stroke-linejoin="round"/>
    <path d="M 213.37420654296875 159.53146362304688 C 208.27554321289062 159.56646728515625 203.17393493652344 158.89198303222656 201.40908813476562 155.94923400878906 C 199.6409454345703 153.7281951904297 201.23744201660156 149.95188903808594 203.570556640625 146.8976593017578 C 205.13441467285156 143.10818481445312 207.43296813964844 144.39053344726562 209.7256622314453 144.9530792236328" stroke-width="2.0" fill="none" stroke="rgb(37, 8, 235)" stroke-opacity="0.4859074" stroke-linecap="round" stroke-linejoin="round"/>
    <path d="M 98.6510009765625 217.6746063232422 C 95.86554718017578 217.93299865722656 88.54737091064453 210.8107147216797 84.2535171508789 206.168701171875" stroke-width="2.0" fill="none" stroke="rgb(194, 191, 74)" stroke-opacity="0.310295" stroke-linecap="round" stroke-linejoin="round"/>
    <path d="M 171.76319885253906 65.75508880615234 C 175.39486694335938 68.5951156616211 179.0205078125 70.69721221923828 182.6484375 72.80022430419922 C 187.01495361328125 74.1630859375 184.59327697753906 59.343467712402344 181.4359130859375 45.25921630859375" stroke-width="3.0941290855407715" fill="none" stroke="rgb(158, 233, 115)" stroke-opacity="0.05861297" stroke-linecap="round" stroke-linejoin="round"/>
    <path d="M 35.245765686035156 178.56607055664062 C 35.08572006225586 188.31654357910156 40.87955093383789 177.46282958984375 64.00759887695312 180.22503662109375" stroke-width="2.0" fill="none" stroke="rgb(148, 129, 146)" stroke-opacity="0.85119313" stroke-linecap="round" stroke-linejoin="round"/>
    <path d="M 123.61135864257812 135.14962768554688 C 126.6960220336914 134.93707275390625 129.0548095703125 133.99517822265625 130.1958770751953 135.45016479492188 C 131.3210906982422 136.91915893554688 131.22946166992188 140.04928588867188 131.14381408691406 143.912109375 C 131.0477752685547 147.0441131591797 118.82211303710938 151.240966796875 106.59257507324219 155.43594360351562" stroke-width="3.1106367111206055" fill="none" stroke="rgb(186, 171, 185)" stroke-opacity="0.36369935" stroke-linecap="round" stroke-linejoin="round"/>
    <path d="M 144.00302124023438 190.8088836669922 C 144.3158721923828 190.7807159423828 144.00125122070312 191.40992736816406 143.97113037109375 191.72496032714844 C 143.29513549804688 191.85806274414062 143.23074340820312 193.34014892578125 143.02078247070312 193.4696807861328 C 142.05389404296875 196.5140838623047 139.6757354736328 198.421875 137.0200958251953 200.0293426513672 C 131.77587890625 204.40216064453125 124.69496154785156 206.7938232421875 117.68191528320312 206.79701232910156 C 115.5399398803711 206.13661193847656 113.66253662109375 206.33364868164062 112.00920867919922 204.71324157714844 C 110.65887451171875 203.27426147460938 110.59183502197266 201.0282440185547 109.1250991821289 200.0096435546875 C 108.32061767578125 198.1956024169922 107.21044921875 196.2445526123047 107.02276611328125 194.22225952148438 C 107.41511535644531 192.4132080078125 107.755859375 190.50250244140625 107.66998291015625 187.99720764160156 C 107.49461364746094 185.57662963867188 106.8993911743164 183.84524536132812 105.88162231445312 181.4532928466797 C 105.5901107788086 179.26602172851562 106.22979736328125 176.46778869628906 106.02409362792969 174.27215576171875 C 106.02783203125 174.09019470214844 105.99513244628906 173.85206604003906 105.8500747680664 173.67898559570312 C 103.54046630859375 172.62623596191406 100.31449127197266 175.1151885986328 99.44146728515625 176.38973999023438 C 95.56820678710938 177.19874572753906 92.32386016845703 178.04965209960938 89.019775390625 176.5750732421875 C 85.80033874511719 175.1519317626953 82.04826354980469 170.37132263183594 79.24449920654297 168.38587951660156 C 74.31631469726562 161.12811279296875 69.11228942871094 154.18045043945312 62.971107482910156 148.0642547607422 C 56.44172286987305 142.9222869873047 51.22261428833008 136.4619598388672 45.11412811279297 130.91712951660156 C 43.67186737060547 129.5154266357422 41.14110565185547 128.68618774414062 38.60231018066406 128.7249298095703 C 37.93621826171875 128.50038146972656 37.82890319824219 127.76909637451172 37.33403396606445 127.27275085449219 C 37.09910202026367 127.80845642089844 37.401676177978516 127.42589569091797 36.82911682128906 126.47872924804688 C 38.03654098510742 123.76258087158203 39.60042190551758 121.16667938232422 41.82719039916992 119.32295989990234" stroke-width="2.0" fill="none" stroke="rgb(25, 22, 25)" stroke-opacity="1.0" stroke-linecap="round" stroke-linejoin="round"/>
    <path d="M 47.362823486328125 62.258155822753906 C 48.448204040527344 62.27756881713867 49.12186050415039 60.94279861450195 49.873714447021484 60.28471374511719 C 50.78350067138672 59.51053237915039 51.166587829589844 58.24247741699219 52.01110076904297 57.39406967163086 C 53.596534729003906 55.794979095458984 55.018531799316406 54.039512634277344 57.310997009277344 53.15445327758789 C 58.004058837890625 52.48746871948242 58.77531051635742 51.89450454711914 59.40630340576172 51.16436767578125 C 63.46465301513672 46.65243911743164 67.31840515136719 41.96082305908203 71.38070678710938 37.452335357666016 C 71.20429992675781 36.129154205322266 71.96650695800781 35.745033264160156 72.54800415039062 35.15945053100586 C 73.84208679199219 35.298675537109375 74.33950805664062 34.64153289794922 74.84843444824219 34.0018310546875 C 75.18079376220703 33.54929733276367 76.09803771972656 32.42060852050781 74.73819732666016 31.808809280395508 C 73.47665405273438 30.529460906982422 70.85997009277344 30.672470092773438 69.19490051269531 30.063962936401367 C 67.83151245117188 30.836376190185547 65.60504150390625 30.712512969970703 63.848365783691406 30.33775520324707 C 60.37238693237305 31.89823341369629 55.08894729614258 33.83796691894531 50.6421012878418 35.2649040222168 C 48.53927993774414 36.475101470947266 46.526607513427734 37.89540481567383 45.802154541015625 40.59425735473633 C 45.04083251953125 39.946388244628906 44.619483947753906 42.431297302246094 44.96223831176758 43.09504699707031 C 45.381526947021484 45.37567138671875 49.95487976074219 46.37127685546875 51.478511810302734 46.07980728149414 C 55.667232513427734 46.97945022583008 58.00786590576172 46.67446517944336 61.019466400146484 46.66730880737305 C 64.88938903808594 47.40010452270508 68.0730209350586 47.5522575378418 70.5582275390625 46.71253967285156 C 79.32389068603516 46.25673294067383 88.8191909790039 44.78800582885742 97.4641342163086 44.03960418701172 C 102.53582763671875 42.37615966796875 108.97911071777344 42.101688385009766 113.8587417602539 39.58192825317383 C 116.24738311767578 39.721839904785156 117.9243392944336 39.13242721557617 119.5979995727539 38.51417922973633 C 119.69212341308594 37.48640441894531 120.77874755859375 37.38901901245117 121.89649200439453 36.630489349365234 C 122.13482666015625 36.191680908203125 121.30098724365234 36.27571487426758 121.57820129394531 35.863121032714844 C 121.03755950927734 34.90444564819336 122.9789047241211 33.89977264404297 124.08674621582031 34.504329681396484 C 127.11737823486328 33.541748046875 131.26380920410156 34.052757263183594 135.0220489501953 34.531951904296875 C 139.28224182128906 34.24477767944336 142.85409545898438 34.566505432128906 146.41046142578125 35.68601989746094" stroke-width="2.0" fill="none" stroke="rgb(25, 22, 22)" stroke-opacity="1.0" stroke-linecap="round" stroke-linejoin="round"/>
    <path d="M 54.77658462524414 30.095449447631836 C 59.727115631103516 30.03817367553711 57.57169723510742 39.6031379699707 57.93696975708008 44.36693572998047 C 59.486412048339844 50.868896484375 62.01798629760742 56.597721099853516 63.82099914550781 63.03485870361328 C 64.20862579345703 67.81268310546875 65.0637435913086 71.96530151367188 67.25419616699219 75.20154571533203 C 68.68472290039062 79.05845642089844 70.86327362060547 81.47233581542969 74.8199234008789 80.73275756835938 C 76.96827697753906 79.61598205566406 78.99274444580078 78.6993408203125 81.1036148071289 78.11835479736328 C 81.3227310180664 78.08522033691406 82.54414367675781 77.95811462402344 82.44950866699219 78.14801788330078 C 81.44123840332031 78.70912170410156 80.64783477783203 78.92127227783203 81.11054229736328 80.21532440185547 C 80.18384552001953 82.19014739990234 78.82637023925781 83.57817077636719 78.27140045166016 85.68365478515625 C 78.15866088867188 86.86673736572266 78.36524200439453 87.37017822265625 78.3842544555664 87.86158752441406 C 78.40167236328125 88.2107162475586 78.70812225341797 88.76641845703125 79.0953140258789 88.90613555908203 C 69.06971740722656 92.35201263427734 68.2827377319336 90.6495361328125 56.77644729614258 88.97335815429688 C 53.74229431152344 88.60868835449219 50.0620002746582 88.58348083496094 47.04163360595703 88.12248229980469 C 46.67251968383789 87.30529022216797 45.9627685546875 86.98591613769531 46.60883331298828 87.36483764648438 C 46.358917236328125 88.71260833740234 46.690650939941406 90.12284851074219 46.23920440673828 92.1798324584961 C 48.090660095214844 95.92725372314453 48.983646392822266 100.48951721191406 49.992950439453125 105.46527099609375 C 52.45710372924805 109.22814178466797 55.1251335144043 113.27739715576172 56.79780197143555 118.15968322753906 C 58.22782897949219 118.74358367919922 60.432621002197266 123.50259399414062 62.69856643676758 124.70724487304688" stroke-width="2.0" fill="none" stroke="rgb(25, 22, 25)" stroke-opacity="1.0" stroke-linecap="round" stroke-linejoin="round"/>
    <path d="M 153.5841522216797 113.62274169921875 C 149.52728271484375 108.02304077148438 153.04910278320312 96.1070785522461 157.95574951171875 100.89948272705078" stroke-width="2.0" fill="none" stroke="rgb(120, 228, 158)" stroke-opacity="0.21461038" stroke-linecap="round" stroke-linejoin="round"/>
    <path d="M 129.5909881591797 119.3874740600586 C 130.9514617919922 111.25472259521484 138.05413818359375 99.32107543945312 144.569091796875 107.66646575927734" stroke-width="2.0" fill="none" stroke="rgb(45, 187, 43)" stroke-opacity="0.3070394" stroke-linecap="round" stroke-linejoin="round"/>
    <path d="M 93.37364196777344 92.74054718017578 C 89.81415557861328 85.6242446899414 99.84270477294922 75.00125885009766 106.86578369140625 78.76006317138672 C 117.40689086914062 89.78351593017578 116.53279113769531 97.9395751953125 105.67415618896484 87.44192504882812 C 113.97054290771484 92.16584777832031 115.19699096679688 99.48566436767578 116.15338897705078 88.28755187988281" stroke-width="2.0" fill="none" stroke="rgb(132, 181, 61)" stroke-opacity="0.23736852" stroke-linecap="round" stroke-linejoin="round"/>
    <path d="M 153.21046447753906 140.0915069580078 C 163.4064483642578 139.0983123779297 155.9017333984375 137.1942596435547 161.72096252441406 143.601318359375" stroke-width="2.0" fill="none" stroke="rgb(113, 233, 63)" stroke-opacity="0.61778253" stroke-linecap="round" stroke-linejoin="round"/>
    <path d="M 107.94145202636719 98.07535552978516 C 105.75769805908203 99.98575592041016 110.30831146240234 107.9840087890625 117.26652526855469 116.1078872680664" stroke-width="2.0" fill="none" stroke="rgb(49, 178, 42)" stroke-opacity="0.027345471" stroke-linecap="round" stroke-linejoin="round"/>
    <path d="M 141.4801483154297 190.88890075683594 C 148.50425720214844 196.22889709472656 140.5509796142578 194.34664916992188 148.95298767089844 201.66171264648438 C 147.22145080566406 191.5902862548828 154.7796630859375 187.93447875976562 146.9380340576172 196.0816650390625 C 141.6787872314453 205.01280212402344 140.01548767089844 195.45639038085938 148.09849548339844 191.3670654296875" stroke-width="2.5059120655059814" fill="none" stroke="rgb(151, 83, 86)" stroke-opacity="0.37448153" stroke-linecap="round" stroke-linejoin="round"/>
    <path d="M 142.70736694335938 107.31673431396484 C 134.27597045898438 101.7801513671875 137.05650329589844 96.18962097167969 144.9200439453125 102.6795425415039 C 147.4193878173828 101.75614929199219 153.41294860839844 97.95848083496094 152.2874298095703 100.64495849609375 C 143.8411865234375 91.69564819335938 145.86752319335938 100.07598114013672 135.52952575683594 99.31281280517578" stroke-width="2.0" fill="none" stroke="rgb(85, 101, 194)" stroke-opacity="0.21036525" stroke-linecap="round" stroke-linejoin="round"/>
    <path d="M 116.45155334472656 91.34908294677734 C 120.68836975097656 94.1777114868164 116.1882553100586 100.0596923828125 107.8692626953125 112.04931640625" stroke-width="2.0" fill="none" stroke="rgb(178, 189, 51)" stroke-opacity="0.69469607" stroke-linecap="round" stroke-linejoin="round"/>
    <path d="M 145.79684448242188 192.60760498046875 C 144.13827514648438 181.6702423095703 136.59658813476562 184.00804138183594 125.75833129882812 176.0636749267578 C 126.22968292236328 178.1634979248047 123.17306518554688 175.41067504882812 113.41458892822266 181.68490600585938" stroke-width="2.6204116344451904" fill="none" stroke="rgb(235, 0, 213)" stroke-opacity="0.076879464" stroke-linecap="round" stroke-linejoin="round"/>
    <path d="M 161.69883728027344 143.55117797851562 C 159.66748046875 154.03155517578125 159.12901306152344 162.60394287109375 150.7433624267578 156.65708923339844" stroke-width="2.0" fill="none" stroke="rgb(185, 0, 244)" stroke-opacity="0.14533198" stroke-linecap="round" stroke-linejoin="round"/>
    <path d="M 144.70204162597656 106.83491516113281 C 135.59230041503906 109.9802474975586 132.45846557617188 101.94013977050781 122.95063781738281 112.57660675048828" stroke-width="2.0" fill="none" stroke="rgb(56, 187, 162)" stroke-opacity="0.22884856" stroke-linecap="round" stroke-linejoin="round"/>
    <path d="M 117.9780044555664 116.20465850830078 C 117.7280502319336 122.89230346679688 106.85555267333984 126.13359832763672 113.34294891357422 115.70658874511719" stroke-width="2.0" fill="none" stroke="rgb(61, 225, 168)" stroke-opacity="0.14188" stroke-linecap="round" stroke-linejoin="round"/>
    <path d="M 138.37615966796875 65.60166931152344 C 128.54006958007812 65.74252319335938 134.7175750732422 64.44902801513672 126.16097259521484 53.94050598144531" stroke-width="2.0" fill="none" stroke="rgb(101, 196, 54)" stroke-opacity="0.42380023" stroke-linecap="round" stroke-linejoin="round"/>
    <path d="M 97.79940795898438 163.82138061523438 C 102.90563201904297 159.94134521484375 103.37603759765625 166.67884826660156 93.54192352294922 158.51486206054688" stroke-width="2.0" fill="none" stroke="rgb(228, 103, 121)" stroke-opacity="0.037390396" stroke-linecap="round" stroke-linejoin="round"/>
    <path d="M 57.82319641113281 136.1973419189453 C 70.45697784423828 127.517578125 63.105926513671875 117.08744049072266 57.39124298095703 127.44635772705078 C 66.69645690917969 129.5421600341797 73.11612701416016 118.409912109375 85.01437377929688 120.74891662597656" stroke-width="2.0" fill="none" stroke="rgb(255, 106, 134)" stroke-opacity="0.26872256" stroke-linecap="round" stroke-linejoin="round"/>
    <path d="M 126.34864044189453 1.0084538459777832 C 118.74443054199219 -7.653383731842041 122.16780090332031 -7.36588191986084 127.93409729003906 -11.787028312683105 C 137.45443725585938 -7.305375099182129 127.31312561035156 -10.704371452331543 125.87976837158203 -11.710216522216797 C 122.21105194091797 -3.187838554382324 128.4080047607422 3.672914981842041 121.75837707519531 0.4620967507362366" stroke-width="2.0" fill="none" stroke="rgb(107, 130, 43)" stroke-opacity="0.48078272" stroke-linecap="round" stroke-linejoin="round"/>
    <path d="M 6.457947254180908 52.92195510864258 C 5.787413597106934 60.8016242980957 -0.5305817723274231 55.949764251708984 2.5137572288513184 43.95125961303711 C -11.07831859588623 43.523704528808594 -11.371686935424805 42.99885177612305 -13.65152645111084 51.57783508300781 C -17.852447509765625 45.23989486694336 -9.412158012390137 43.307823181152344 -2.4328341484069824 36.33466339111328" stroke-width="2.0" fill="none" stroke="rgb(68, 51, 62)" stroke-opacity="0.04755671" stroke-linecap="round" stroke-linejoin="round"/>
    <path d="M 157.6512908935547 1.3190267086029053 C 170.00238037109375 -5.765434265136719 176.99468994140625 -1.5366275310516357 169.44186401367188 -11.42674446105957 C 176.5649871826172 -20.814376831054688 180.92355346679688 -31.105682373046875 189.184326171875 -28.460561752319336" stroke-width="2.0650529861450195" fill="none" stroke="rgb(79, 169, 166)" stroke-opacity="0.49462613" stroke-linecap="round" stroke-linejoin="round"/>
    <path d="M 52.7778434753418 47.70811080932617 C 55.86402893066406 36.20722961425781 44.67403793334961 26.77775764465332 52.83015060424805 24.127059936523438 C 56.467708587646484 21.440383911132812 52.65647888183594 19.080337524414062 53.733795166015625 12.968637466430664 C 56.787376403808594 1.6691893339157104 65.0366439819336 8.506117820739746 70.04027557373047 10.557502746582031" stroke-width="2.018400192260742" fill="none" stroke="rgb(10, 211, 161)" stroke-opacity="0.055185426" stroke-linecap="round" stroke-linejoin="round"/>
    <path d="M 216.70947265625 106.7640380859375 C 223.49810791015625 98.22867584228516 217.35107421875 90.38250732421875 211.6882781982422 96.18475341796875" stroke-width="2.0" fill="none" stroke="rgb(207, 229, 248)" stroke-opacity="0.94930464" stroke-linecap="round" stroke-linejoin="round"/>
    <path d="M 24.88983917236328 31.812496185302734 C 27.705394744873047 21.245756149291992 18.485090255737305 24.30391502380371 25.55965805053711 32.413414001464844" stroke-width="2.2037360668182373" fill="none" stroke="rgb(105, 240, 223)" stroke-opacity="0.8438725" stroke-linecap="round" stroke-linejoin="round"/>
    <path d="M 53.42760467529297 41.790802001953125 C 59.30835723876953 32.46037292480469 60.80107498168945 39.911231994628906 62.49153137207031 43.163299560546875 C 70.35663604736328 53.516727447509766 77.60964965820312 57.21209716796875 83.2107925415039 48.75236892700195 C 81.5270767211914 43.6057243347168 74.00032043457031 47.59941864013672 75.0776138305664 39.68666458129883" stroke-width="2.2678349018096924" fill="none" stroke="rgb(220, 110, 75)" stroke-opacity="0.6171527" stroke-linecap="round" stroke-linejoin="round"/>
    <path d="M 196.93032836914062 101.10711669921875 C 198.570556640625 101.23189544677734 197.90521240234375 104.82324981689453 195.1715850830078 113.56635284423828" stroke-width="2.0" fill="none" stroke="rgb(152, 66, 167)" stroke-opacity="0.56055963" stroke-linecap="round" stroke-linejoin="round"/>
    <path d="M 91.34072875976562 57.76020050048828 C 81.30768585205078 64.45706176757812 75.15025329589844 65.77995300292969 86.88030242919922 75.0127944946289 C 95.31258392333984 67.15132141113281 104.55565643310547 67.55098724365234 105.24834442138672 62.58981704711914 C 98.78156280517578 65.42483520507812 89.36332702636719 65.3809585571289 89.09165954589844 66.953369140625" stroke-width="2.1620194911956787" fill="none" stroke="rgb(174, 56, 66)" stroke-opacity="0.61550885" stroke-linecap="round" stroke-linejoin="round"/>
    <path d="M 40.430816650390625 83.02143859863281 C 49.263492584228516 91.75881958007812 49.8856201171875 92.91036987304688 41.67113494873047 92.21894836425781" stroke-width="2.2364423274993896" fill="none" stroke="rgb(149, 39, 165)" stroke-opacity="0.0131329745" stroke-linecap="round" stroke-linejoin="round"/>
  </g>
</svg>
