<?xml version="1.0" ?>
<svg xmlns="http://www.w3.org/2000/svg" version="1.1" width="1190.0" height="1190.0">
  <defs/>
  <g>
    <path d="M 657.434326171875 510.35235595703125 C 657.310302734375 465.80975341796875 654.9879760742188 464.323486328125 657.857177734375 480.9254150390625 C 653.600341796875 465.5343933105469 668.4334716796875 452.2205505371094 700.450927734375 456.8172607421875 C 677.2937622070312 456.9288024902344 661.8382568359375 459.1150207519531 604.701416015625 466.14312744140625 C 602.3058471679688 467.8709716796875 589.3922119140625 478.09759521484375 592.9247436523438 430.653564453125 C 537.476806640625 448.2127380371094 507.7108459472656 438.8244934082031 523.0720825195312 368.4952697753906 C 553.6732177734375 369.2729797363281 502.4281311035156 345.5021667480469 477.33831787109375 356.51611328125 C 531.8848266601562 352.45672607421875 579.158935546875 342.7616271972656 533.2401123046875 346.0323181152344 C 595.53662109375 338.73162841796875 649.847900390625 344.17181396484375 678.9742431640625 362.9781494140625 C 701.8311157226562 381.2351379394531 728.9771118164062 406.9127197265625 716.64892578125 489.5902099609375 C 716.0918579101562 513.6586303710938 715.5105590820312 518.622802734375 754.5504150390625 511.8651123046875" stroke-width="10.727167129516602" fill="none" stroke="rgb(27, 50, 38)" stroke-opacity="0.8542381" stroke-linecap="round" stroke-linejoin="round"/>
    <path d="M 639.7896118164062 462.5662536621094 C 643.8897094726562 453.89691162109375 604.93359375 494.4175720214844 564.8956909179688 466.49505615234375" stroke-width="10.625957489013672" fill="none" stroke="rgb(107, 164, 170)" stroke-opacity="0.21352647" stroke-linecap="round" stroke-linejoin="round"/>
    <path d="M 487.0144348144531 347.79052734375 C 491.79217529296875 322.8926086425781 549.0573120117188 302.91033935546875 555.2189331054688 336.5504455566406" stroke-width="10.704107284545898" fill="none" stroke="rgb(49, 227, 174)" stroke-opacity="0.08050165" stroke-linecap="round" stroke-linejoin="round"/>
    <path d="M 630.510498046875 459.06201171875 C 578.6923828125 510.2470397949219 616.2713623046875 584.7706298828125 611.9412841796875 660.865234375 C 612.36962890625 630.5442504882812 612.6338500976562 620.35009765625 687.5149536132812 630.3086547851562" stroke-width="10.625" fill="none" stroke="rgb(201, 111, 175)" stroke-opacity="0.0" stroke-linecap="round" stroke-linejoin="round"/>
    <path d="M 507.5856628417969 345.63427734375 C 474.04852294921875 323.6519470214844 516.8236694335938 353.67144775390625 490.19683837890625 417.87188720703125" stroke-width="29.18688201904297" fill="none" stroke="rgb(221, 69, 173)" stroke-opacity="0.3144433" stroke-linecap="round" stroke-linejoin="round"/>
    <path d="M 770.5347290039062 486.8298645019531 C 692.929443359375 501.0091247558594 650.7942504882812 492.50726318359375 653.5053100585938 481.19720458984375 C 669.3716430664062 432.4266662597656 693.1243286132812 428.7027587890625 693.4774169921875 357.1258544921875 C 619.2646484375 373.3387451171875 663.8302612304688 310.1859130859375 627.9962158203125 332.7862854003906" stroke-width="10.625" fill="none" stroke="rgb(3, 28, 184)" stroke-opacity="0.0018097457" stroke-linecap="round" stroke-linejoin="round"/>
    <path d="M 684.8421630859375 365.53521728515625 C 737.7828369140625 420.7436828613281 737.6089477539062 401.05645751953125 739.0721435546875 375.7701110839844 C 707.5625610351562 340.45880126953125 705.3236083984375 312.83258056640625 745.62158203125 399.0042724609375 C 711.4209594726562 453.2889709472656 753.423095703125 446.2179260253906 655.1644287109375 463.05938720703125" stroke-width="10.625" fill="none" stroke="rgb(97, 55, 91)" stroke-opacity="0.705635" stroke-linecap="round" stroke-linejoin="round"/>
    <path d="M 635.5326538085938 355.5539855957031 C 592.003662109375 383.66357421875 638.30126953125 430.9852294921875 649.7274780273438 395.3110656738281 C 692.6743774414062 434.0577392578125 607.2207641601562 400.9397277832031 586.49365234375 427.5633850097656" stroke-width="29.038375854492188" fill="none" stroke="rgb(255, 72, 0)" stroke-opacity="0.82106507" stroke-linecap="round" stroke-linejoin="round"/>
    <path d="M 567.9385375976562 364.3635559082031 C 508.2516784667969 384.0985412597656 506.36114501953125 337.5910339355469 611.3359375 317.6650695800781 C 636.310302734375 275.86785888671875 645.215576171875 243.43856811523438 649.6286010742188 257.52288818359375 C 634.628173828125 263.0029296875 643.7244262695312 221.09596252441406 660.265625 244.560302734375" stroke-width="10.625" fill="none" stroke="rgb(217, 125, 54)" stroke-opacity="0.051778387" stroke-linecap="round" stroke-linejoin="round"/>
    <path d="M 581.2078857421875 436.909912109375 C 494.0193176269531 419.51641845703125 450.06878662109375 455.5144958496094 438.5124206542969 369.7515563964844 C 479.6688537597656 341.7871398925781 512.235107421875 340.6717224121094 438.0346984863281 374.6645202636719 C 425.1492614746094 337.502197265625 452.7962951660156 327.7704162597656 433.1339416503906 288.096923828125" stroke-width="11.19798469543457" fill="none" stroke="rgb(89, 98, 129)" stroke-opacity="0.9670038" stroke-linecap="round" stroke-linejoin="round"/>
    <path d="M 458.8043518066406 432.3241882324219 C 456.0184020996094 464.205078125 425.903564453125 500.6421203613281 381.82855224609375 559.9893188476562" stroke-width="19.78047752380371" fill="none" stroke="rgb(93, 26, 228)" stroke-opacity="0.7595977" stroke-linecap="round" stroke-linejoin="round"/>
    <path d="M 465.502197265625 424.2083435058594 C 562.867919921875 379.8725891113281 611.9749755859375 336.7834777832031 637.65869140625 320.4873962402344" stroke-width="25.15259552001953" fill="none" stroke="rgb(234, 158, 50)" stroke-opacity="0.14045475" stroke-linecap="round" stroke-linejoin="round"/>
    <path d="M 590.0178833007812 449.26910400390625 C 655.6209716796875 436.0336608886719 655.7675170898438 445.7757873535156 609.6889038085938 448.25048828125 C 583.2794799804688 426.2178649902344 580.04833984375 428.4438171386719 496.501708984375 395.767333984375" stroke-width="26.504802703857422" fill="none" stroke="rgb(221, 255, 100)" stroke-opacity="0.37462375" stroke-linecap="round" stroke-linejoin="round"/>
    <path d="M 678.23583984375 250.96580505371094 C 704.7650756835938 210.0503387451172 731.0802612304688 222.8349609375 704.4937744140625 271.37872314453125 C 680.0669555664062 246.3643798828125 647.8809204101562 280.75836181640625 669.4483032226562 366.6269836425781 C 726.6788330078125 283.2244873046875 713.9954833984375 318.9158020019531 670.7373046875 276.3494873046875" stroke-width="37.10060501098633" fill="none" stroke="rgb(128, 74, 255)" stroke-opacity="0.30332705" stroke-linecap="round" stroke-linejoin="round"/>
    <path d="M 559.3433227539062 477.89019775390625 C 546.2516479492188 470.7960205078125 583.66943359375 517.4315795898438 545.7566528320312 468.2464599609375 C 605.025390625 478.22491455078125 644.2943725585938 477.6881103515625 689.7867431640625 455.36163330078125" stroke-width="10.994810104370117" fill="none" stroke="rgb(120, 42, 255)" stroke-opacity="0.6664686" stroke-linecap="round" stroke-linejoin="round"/>
    <path d="M 467.8652038574219 397.2703552246094 C 503.2839660644531 362.80987548828125 466.1391296386719 405.3016052246094 524.6569213867188 366.79547119140625 C 481.0429382324219 347.63714599609375 475.19830322265625 326.33209228515625 449.40350341796875 294.12445068359375" stroke-width="10.625" fill="none" stroke="rgb(200, 17, 28)" stroke-opacity="0.7242126" stroke-linecap="round" stroke-linejoin="round"/>
    <path d="M 515.2325439453125 474.45794677734375 C 476.7845458984375 442.4331359863281 529.7054443359375 494.0092468261719 578.9000854492188 478.517578125 C 619.2714233398438 504.7985534667969 613.9651489257812 473.6849670410156 608.771484375 532.7552490234375" stroke-width="10.625" fill="none" stroke="rgb(200, 199, 244)" stroke-opacity="0.8227604" stroke-linecap="round" stroke-linejoin="round"/>
    <path d="M 434.89947509765625 560.0023803710938 C 449.48040771484375 604.1295776367188 380.82171630859375 576.25927734375 312.7308654785156 583.7262573242188 C 283.3834228515625 570.232177734375 250.5157928466797 601.9545288085938 257.0325927734375 543.8687133789062 C 301.07501220703125 536.2727661132812 376.3380126953125 529.0521850585938 388.5263671875 488.1408386230469" stroke-width="10.625" fill="none" stroke="rgb(110, 142, 96)" stroke-opacity="0.7335309" stroke-linecap="round" stroke-linejoin="round"/>
    <path d="M 996.1961669921875 1200.235107421875 C 949.4277954101562 1205.7442626953125 949.4786987304688 1228.971923828125 900.3341064453125 1207.9573974609375 C 897.1423950195312 1201.4361572265625 916.166748046875 1151.3388671875 957.8538818359375 1137.60107421875 C 1019.2221069335938 1111.723388671875 1037.9931640625 1100.281982421875 1070.5865478515625 1086.133544921875" stroke-width="10.625" fill="none" stroke="rgb(175, 160, 71)" stroke-opacity="0.3383023" stroke-linecap="round" stroke-linejoin="round"/>
    <path d="M 482.9818115234375 473.3193664550781 C 587.60546875 480.2701721191406 643.0508422851562 443.3304138183594 687.9373779296875 497.9726867675781 C 696.9730834960938 506.5391540527344 716.33203125 523.168701171875 741.1029052734375 469.5672302246094" stroke-width="23.88375473022461" fill="none" stroke="rgb(185, 101, 255)" stroke-opacity="0.34716463" stroke-linecap="round" stroke-linejoin="round"/>
    <path d="M 820.4104614257812 290.1807861328125 C 840.6339111328125 276.5490417480469 801.221435546875 323.7271728515625 873.2435302734375 356.713623046875 C 843.930908203125 326.3199768066406 822.7015991210938 319.0331726074219 873.4276123046875 300.0787353515625" stroke-width="11.944795608520508" fill="none" stroke="rgb(255, 255, 218)" stroke-opacity="0.6371674" stroke-linecap="round" stroke-linejoin="round"/>
    <path d="M 1079.1558837890625 738.9191284179688 C 1018.8614501953125 763.9412841796875 983.2078247070312 724.2303466796875 989.2874755859375 733.1848754882812" stroke-width="10.625" fill="none" stroke="rgb(36, 188, 0)" stroke-opacity="0.67218196" stroke-linecap="round" stroke-linejoin="round"/>
    <path d="M 246.98069763183594 1116.89697265625 C 252.19912719726562 1053.87890625 224.39852905273438 985.1019287109375 236.445068359375 993.0859985351562 C 205.30543518066406 984.5579833984375 123.41993713378906 965.2711791992188 83.39114379882812 997.9619750976562" stroke-width="21.091434478759766" fill="none" stroke="rgb(136, 41, 77)" stroke-opacity="0.19146605" stroke-linecap="round" stroke-linejoin="round"/>
    <path d="M 1205.357177734375 1207.1309814453125 C 1219.9697265625 1223.707275390625 1201.8126220703125 1195.71630859375 1244.3271484375 1200.275390625 C 1213.1435546875 1203.1097412109375 1182.593994140625 1168.567138671875 1242.0816650390625 1168.2762451171875 C 1231.19091796875 1166.5966796875 1200.008544921875 1221.5533447265625 1210.8388671875 1210.17626953125" stroke-width="10.625" fill="none" stroke="rgb(32, 236, 215)" stroke-opacity="0.29555017" stroke-linecap="round" stroke-linejoin="round"/>
    <path d="M 522.0684814453125 991.3049926757812 C 492.02880859375 1017.5798950195312 540.774658203125 992.22705078125 515.584228515625 942.6929321289062 C 405.8800354003906 904.5216674804688 439.731201171875 854.3106079101562 493.6173095703125 862.0067138671875" stroke-width="21.754547119140625" fill="none" stroke="rgb(184, 106, 121)" stroke-opacity="0.5215794" stroke-linecap="round" stroke-linejoin="round"/>
    <path d="M 957.7672119140625 868.6212768554688 C 941.5494995117188 910.406494140625 891.873779296875 957.435791015625 821.646728515625 919.8529052734375 C 888.8309936523438 889.30078125 935.8309326171875 908.3833618164062 968.7998657226562 904.2494506835938 C 1020.6218872070312 871.70068359375 960.8893432617188 847.4517211914062 975.4651489257812 886.6828002929688" stroke-width="35.800350189208984" fill="none" stroke="rgb(237, 101, 52)" stroke-opacity="0.20467001" stroke-linecap="round" stroke-linejoin="round"/>
    <path d="M 785.3944702148438 810.2462158203125 C 793.2748413085938 756.29443359375 782.716552734375 740.2969970703125 820.815673828125 803.7280883789062 C 895.3119506835938 728.6055908203125 865.4696044921875 731.2156982421875 893.9327392578125 847.8546142578125 C 851.9910888671875 878.05615234375 751.92333984375 851.5088500976562 773.6123657226562 846.911376953125" stroke-width="10.625" fill="none" stroke="rgb(106, 41, 255)" stroke-opacity="0.6853115" stroke-linecap="round" stroke-linejoin="round"/>
    <path d="M 729.697021484375 364.2687072753906 C 832.9239501953125 352.212646484375 899.3091430664062 353.9510192871094 881.0897216796875 237.08181762695312" stroke-width="24.72031593322754" fill="none" stroke="rgb(61, 188, 41)" stroke-opacity="0.6005811" stroke-linecap="round" stroke-linejoin="round"/>
    <path d="M 1021.5794677734375 249.2720947265625 C 1062.634033203125 308.66766357421875 1113.098876953125 248.2411651611328 1102.2913818359375 243.13397216796875 C 1049.0286865234375 276.1508483886719 998.9429321289062 246.7718048095703 1021.0411376953125 200.76332092285156" stroke-width="10.625" fill="none" stroke="rgb(56, 254, 22)" stroke-opacity="0.6531392" stroke-linecap="round" stroke-linejoin="round"/>
    <path d="M 682.5308227539062 420.8115539550781 C 724.4082641601562 489.752197265625 671.1900024414062 492.4522705078125 655.730712890625 451.1572570800781 C 645.3004760742188 488.9659423828125 702.556640625 488.6891784667969 666.2791748046875 459.1736755371094" stroke-width="10.63200569152832" fill="none" stroke="rgb(52, 27, 153)" stroke-opacity="0.09022154" stroke-linecap="round" stroke-linejoin="round"/>
    <path d="M 142.5384521484375 164.1660614013672 C 109.85560607910156 137.10154724121094 110.69895935058594 81.44047546386719 150.43344116210938 158.40443420410156 C 139.84681701660156 70.50364685058594 165.606201171875 30.576173782348633 197.06655883789062 125.25326538085938 C 204.53416442871094 181.27215576171875 252.30262756347656 158.86085510253906 223.19578552246094 92.36235809326172" stroke-width="28.868919372558594" fill="none" stroke="rgb(17, 255, 83)" stroke-opacity="0.4762177" stroke-linecap="round" stroke-linejoin="round"/>
    <path d="M 604.5859985351562 467.4539489746094 C 589.0505981445312 468.9920349121094 628.4807739257812 535.8215942382812 612.8201904296875 583.7763671875 C 661.9869384765625 584.6317138671875 652.0535278320312 593.4837646484375 658.6914672851562 501.24774169921875" stroke-width="10.625" fill="none" stroke="rgb(93, 146, 96)" stroke-opacity="0.7095822" stroke-linecap="round" stroke-linejoin="round"/>
    <path d="M 699.2249755859375 895.48095703125 C 726.7111206054688 888.0342407226562 691.4891357421875 925.3610229492188 691.5111083984375 885.7803955078125 C 686.5333862304688 789.7206420898438 725.6179809570312 759.5634765625 775.1892700195312 744.9074096679688 C 769.8611450195312 710.3577270507812 729.5809936523438 760.7054443359375 721.1614990234375 789.9328002929688" stroke-width="20.001523971557617" fill="none" stroke="rgb(151, 97, 255)" stroke-opacity="0.14428416" stroke-linecap="round" stroke-linejoin="round"/>
  </g>
</svg>
