<?xml version="1.0" ?>
<svg xmlns="http://www.w3.org/2000/svg" version="1.1" width="956.0" height="956.0">
  <defs/>
  <g>
    <path d="M 284.82086181640625 557.4780883789062 C 420.0599365234375 551.3865356445312 554.5055541992188 552.5208129882812 675.1182861328125 550.531982421875 C 807.2587890625 568.8366088867188 565.8765258789062 541.634033203125 324.92138671875 514.6367797851562" stroke-width="10.587318420410156" fill="none" stroke="rgb(99, 81, 71)" stroke-opacity="1.0" stroke-linecap="round" stroke-linejoin="round"/>
    <path d="M 490.75860595703125 539.2735595703125 C 474.3411560058594 455.377685546875 464.1661682128906 323.5325927734375 492.6338195800781 227.64039611816406" stroke-width="8.898241996765137" fill="none" stroke="rgb(183, 87, 40)" stroke-opacity="0.99606454" stroke-linecap="round" stroke-linejoin="round"/>
    <path d="M 496.4431457519531 402.3674011230469 C 418.27825927734375 383.837890625 413.6404724121094 341.65875244140625 382.532958984375 335.930908203125" stroke-width="11.4741792678833" fill="none" stroke="rgb(168, 88, 40)" stroke-opacity="1.0" stroke-linecap="round" stroke-linejoin="round"/>
    <path d="M 510.33563232421875 206.44195556640625 C 521.3526000976562 177.046630859375 560.5708618164062 144.96435546875 568.1925659179688 124.36990356445312" stroke-width="9.660796165466309" fill="none" stroke="rgb(172, 121, 9)" stroke-opacity="1.0" stroke-linecap="round" stroke-linejoin="round"/>
    <path d="M 502.7414245605469 216.59498596191406 C 465.1314392089844 184.65330505371094 459.7893371582031 169.28297424316406 451.4770202636719 154.384765625" stroke-width="10.276960372924805" fill="none" stroke="rgb(161, 114, 0)" stroke-opacity="1.0" stroke-linecap="round" stroke-linejoin="round"/>
    <path d="M 462.05877685546875 158.73780822753906 C 443.3448181152344 165.4180908203125 440.8525695800781 155.96588134765625 436.2811279296875 147.49159240722656 C 445.7039489746094 125.38409423828125 437.5610656738281 123.35649871826172 431.7221374511719 130.71072387695312" stroke-width="11.887857437133789" fill="none" stroke="rgb(158, 111, 0)" stroke-opacity="1.0" stroke-linecap="round" stroke-linejoin="round"/>
    <path d="M 449.9156799316406 168.32696533203125 C 403.3348083496094 194.14254760742188 390.9774475097656 190.8341522216797 386.69390869140625 179.08486938476562" stroke-width="11.483708381652832" fill="none" stroke="rgb(161, 115, 7)" stroke-opacity="1.0" stroke-linecap="round" stroke-linejoin="round"/>
    <path d="M 580.941162109375 329.5868835449219 C 588.335693359375 326.0374755859375 589.0469360351562 316.3904724121094 581.9315185546875 294.4144592285156 C 584.8464965820312 288.8618469238281 590.7967529296875 290.2568664550781 587.5526123046875 287.66217041015625" stroke-width="8.969429969787598" fill="none" stroke="rgb(180, 86, 33)" stroke-opacity="0.9422154" stroke-linecap="round" stroke-linejoin="round"/>
    <path d="M 565.5914916992188 139.12094116210938 C 589.585205078125 142.9801483154297 598.6107177734375 142.03021240234375 603.1253662109375 135.9966583251953 C 614.5390625 125.34110260009766 615.195556640625 140.19163513183594 606.5571899414062 144.35972595214844" stroke-width="10.027257919311523" fill="none" stroke="rgb(170, 100, 16)" stroke-opacity="1.0" stroke-linecap="round" stroke-linejoin="round"/>
    <path d="M 503.4268798828125 223.8994903564453 C 504.6350402832031 211.150390625 515.2778930664062 207.4567108154297 519.5695190429688 198.6910400390625 C 509.49273681640625 187.13818359375 515.22705078125 199.61477661132812 522.1804809570312 210.90719604492188" stroke-width="8.535714149475098" fill="none" stroke="rgb(146, 133, 17)" stroke-opacity="0.9746458" stroke-linecap="round" stroke-linejoin="round"/>
    <path d="M 562.8513793945312 121.18732452392578 C 579.444091796875 65.32711791992188 542.1626586914062 99.77284240722656 542.3153686523438 101.77122497558594" stroke-width="8.535714149475098" fill="none" stroke="rgb(179, 96, 9)" stroke-opacity="0.94028485" stroke-linecap="round" stroke-linejoin="round"/>
    <path d="M 484.301513671875 289.26385498046875 C 482.4233703613281 284.078369140625 474.552734375 284.52850341796875 469.90411376953125 281.24139404296875 C 457.830322265625 286.0540466308594 452.78546142578125 273.4620361328125 461.6221923828125 252.6117706298828" stroke-width="8.535714149475098" fill="none" stroke="rgb(186, 90, 33)" stroke-opacity="0.97255117" stroke-linecap="round" stroke-linejoin="round"/>
    <path d="M 374.3680114746094 321.2337341308594 C 379.3081970214844 324.9216613769531 370.9564514160156 329.10723876953125 369.08892822265625 329.1929626464844 C 366.7857360839844 328.5204162597656 361.8782043457031 318.72064208984375 363.751220703125 293.2489013671875" stroke-width="12.47823429107666" fill="none" stroke="rgb(183, 91, 0)" stroke-opacity="1.0" stroke-linecap="round" stroke-linejoin="round"/>
    <path d="M 397.09326171875 333.9743957519531 C 360.4056701660156 354.8118591308594 342.03765869140625 340.87969970703125 333.4088134765625 343.4542236328125" stroke-width="8.733065605163574" fill="none" stroke="rgb(167, 88, 29)" stroke-opacity="0.99903536" stroke-linecap="round" stroke-linejoin="round"/>
    <path d="M 314.606201171875 364.501708984375 C 305.953857421875 370.7667541503906 287.1359558105469 397.111328125 270.2508544921875 409.7849426269531" stroke-width="8.535714149475098" fill="none" stroke="rgb(25, 151, 28)" stroke-opacity="0.90944606" stroke-linecap="round" stroke-linejoin="round"/>
    <path d="M 320.0781555175781 375.24945068359375 C 269.23236083984375 383.5431823730469 278.6399841308594 409.4173278808594 283.81109619140625 412.0237121582031" stroke-width="10.298239707946777" fill="none" stroke="rgb(5, 149, 24)" stroke-opacity="0.99089974" stroke-linecap="round" stroke-linejoin="round"/>
    <path d="M 333.75665283203125 365.2738342285156 C 290.75421142578125 374.4269714355469 293.54248046875 396.75286865234375 295.3438720703125 415.78289794921875" stroke-width="12.882659912109375" fill="none" stroke="rgb(63, 252, 61)" stroke-opacity="1.0" stroke-linecap="round" stroke-linejoin="round"/>
  </g>
</svg>
