<?xml version="1.0" ?>
<svg xmlns="http://www.w3.org/2000/svg" version="1.1" width="956.0" height="956.0">
  <defs/>
  <g>
    <path d="M 26.558774948120117 69.39503479003906 C 77.0796890258789 71.63139343261719 129.33518981933594 72.13018798828125 180.7240753173828 73.49871063232422 C 232.11288452148438 74.86726379394531 183.3465576171875 67.38316345214844 133.7128143310547 60.76662063598633" stroke-width="1.7356772422790527" fill="none" stroke="rgb(1, 14, 0)" stroke-opacity="0.85499" stroke-linecap="round" stroke-linejoin="round"/>
    <path d="M 63.26460266113281 83.18238067626953 C 57.28887176513672 119.4915771484375 51.313148498535156 154.93309020996094 61.84745407104492 165.17662048339844 C 71.51394653320312 173.68455505371094 98.55633544921875 156.12667846679688 125.59877014160156 138.56883239746094 C 153.5089874267578 121.87884521484375 145.56788635253906 113.62283325195312 136.75906372070312 105.3668441772461" stroke-width="1.7356772422790527" fill="none" stroke="rgb(13, 19, 2)" stroke-opacity="0.92104006" stroke-linecap="round" stroke-linejoin="round"/>
    <path d="M 131.3334197998047 86.28689575195312 C 141.5497283935547 84.57426452636719 150.8982391357422 81.99381256103516 153.42733764648438 85.9322738647461 C 155.09054565429688 90.73855590820312 151.6719512939453 100.32810974121094 147.38546752929688 109.91561889648438 C 142.2312469482422 118.6374282836914 143.01937866210938 120.9048080444336 142.07183837890625 122.30457305908203" stroke-width="2.695065498352051" fill="none" stroke="rgb(7, 15, 0)" stroke-opacity="0.9740001" stroke-linecap="round" stroke-linejoin="round"/>
    <path d="M 78.04840087890625 94.08602142333984 C 75.75059509277344 106.10330200195312 73.45288848876953 118.1211166381836 71.15318298339844 129.27284240722656 C 68.85542297363281 141.2904510498047 78.06977844238281 135.2318572998047 87.28414916992188 128.30555725097656" stroke-width="1.8908023834228516" fill="none" stroke="rgb(8, 18, 0)" stroke-opacity="0.95116" stroke-linecap="round" stroke-linejoin="round"/>
    <path d="M 72.10370635986328 99.06453704833984 C 75.98974609375 95.54126739501953 66.12610626220703 91.84774017333984 73.18462371826172 93.57479858398438" stroke-width="1.7356772422790527" fill="none" stroke="rgb(17, 30, 0)" stroke-opacity="0.88222003" stroke-linecap="round" stroke-linejoin="round"/>
    <path d="M 96.8301010131836 100.01707458496094 C 99.51862335205078 100.81523895263672 94.32829284667969 99.9676513671875 106.43212890625 101.09583282470703" stroke-width="1.7356772422790527" fill="none" stroke="rgb(0, 16, 0)" stroke-opacity="0.95602" stroke-linecap="round" stroke-linejoin="round"/>
    <path d="M 71.93462371826172 136.19589233398438 C 96.28385925292969 140.55250549316406 98.29002380371094 142.7025146484375 99.235595703125 142.0124053955078" stroke-width="2.6858255863189697" fill="none" stroke="rgb(3, 18, 0)" stroke-opacity="1.0" stroke-linecap="round" stroke-linejoin="round"/>
    <path d="M 95.06111145019531 134.23963928222656 C 93.37765502929688 134.63621520996094 91.69224548339844 135.03277587890625 90.00885009765625 135.43128967285156 C 89.19310760498047 135.82785034179688 84.41996002197266 133.8975372314453 81.38423156738281 132.83494567871094" stroke-width="3.871863842010498" fill="none" stroke="rgb(214, 44, 86)" stroke-opacity="1.0" stroke-linecap="round" stroke-linejoin="round"/>
    <path d="M 108.46551513671875 103.86145782470703 C 110.35433959960938 93.66157531738281 120.11687469482422 88.68695068359375 123.0373764038086 83.32820892333984" stroke-width="2.3419291973114014" fill="none" stroke="rgb(123, 156, 1)" stroke-opacity="0.111780025" stroke-linecap="round" stroke-linejoin="round"/>
    <path d="M 77.96627807617188 95.07279205322266 C 83.47377014160156 96.91766357421875 88.11409759521484 98.76244354248047 92.75431060791016 100.60533142089844 C 96.52699279785156 103.31753540039062 96.73692321777344 99.16322326660156 97.81449890136719 96.7453384399414" stroke-width="1.7356772422790527" fill="none" stroke="rgb(141, 161, 131)" stroke-opacity="0.08661001" stroke-linecap="round" stroke-linejoin="round"/>
    <path d="M 64.86447143554688 84.18740844726562 C 58.69087600708008 83.15442657470703 53.38759231567383 81.25813293457031 52.603660583496094 81.1294937133789 C 50.96900177001953 80.13613891601562 53.010162353515625 79.17974090576172 54.18366622924805 77.3575668334961 C 57.090354919433594 76.40122985839844 56.80282974243164 73.19600677490234 56.511268615722656 70.85575103759766" stroke-width="1.7356772422790527" fill="none" stroke="rgb(80, 233, 194)" stroke-opacity="0.26558" stroke-linecap="round" stroke-linejoin="round"/>
    <path d="M 93.69529724121094 97.34136199951172 C 101.36927032470703 95.2768783569336 104.8353500366211 95.47322845458984 108.44917297363281 90.56278228759766" stroke-width="2.1268045902252197" fill="none" stroke="rgb(39, 175, 106)" stroke-opacity="0.38916007" stroke-linecap="round" stroke-linejoin="round"/>
    <path d="M 103.0235595703125 104.34822082519531 C 96.00975036621094 100.12785339355469 100.89491271972656 91.93208312988281 96.90982055664062 85.63528442382812" stroke-width="1.7356772422790527" fill="none" stroke="rgb(198, 182, 67)" stroke-opacity="0.36618" stroke-linecap="round" stroke-linejoin="round"/>
    <path d="M 175.67979431152344 72.22430419921875 C 178.3974609375 64.90721893310547 180.24534606933594 56.72235870361328 182.57615661621094 55.10887908935547 C 185.77479553222656 54.36320114135742 187.71875 57.585479736328125 188.7948760986328 62.54144287109375 C 191.60667419433594 66.63153076171875 194.33795166015625 57.6115608215332 197.0672607421875 48.59157943725586" stroke-width="2.363884210586548" fill="none" stroke="rgb(96, 109, 100)" stroke-opacity="0.86937" stroke-linecap="round" stroke-linejoin="round"/>
    <path d="M 138.30450439453125 118.13201904296875 C 134.6324462890625 118.77741241455078 130.96029663085938 119.42475891113281 127.2880859375 120.93791198730469 C 123.61591339111328 121.5833511352539 132.5309600830078 125.21464538574219 142.3156280517578 127.97825622558594" stroke-width="1.7356772422790527" fill="none" stroke="rgb(144, 221, 163)" stroke-opacity="0.42613992" stroke-linecap="round" stroke-linejoin="round"/>
    <path d="M 127.28807830810547 120.9379653930664 C 136.43385314941406 117.34403991699219 137.44927978515625 110.28711700439453 133.34945678710938 115.1646957397461 C 132.42031860351562 116.09420776367188 129.1317596435547 114.39588165283203 128.8785858154297 111.50972747802734 C 137.93313598632812 113.4768295288086 145.3502655029297 105.92244720458984 154.24118041992188 107.18702697753906" stroke-width="1.7356772422790527" fill="none" stroke="rgb(70, 152, 146)" stroke-opacity="0.5989095" stroke-linecap="round" stroke-linejoin="round"/>
    <path d="M 137.62684631347656 104.4990463256836 C 137.18873596191406 95.16766357421875 129.77871704101562 94.29452514648438 125.58560943603516 85.64916229248047" stroke-width="1.7356772422790527" fill="none" stroke="rgb(127, 91, 89)" stroke-opacity="0.51352227" stroke-linecap="round" stroke-linejoin="round"/>
    <path d="M 131.33349609375 85.41912841796875 C 130.56678771972656 91.93772888183594 127.26151275634766 96.64628601074219 121.7549819946289 95.07125091552734 C 130.3115692138672 94.43405151367188 130.0065155029297 103.80702209472656 127.8858413696289 96.4675064086914" stroke-width="1.7356772422790527" fill="none" stroke="rgb(133, 171, 180)" stroke-opacity="0.48455548" stroke-linecap="round" stroke-linejoin="round"/>
    <path d="M 64.86447143554688 83.31964111328125 C 56.45673751831055 75.10955047607422 57.58633041381836 72.3127212524414 53.817047119140625 73.20623779296875 C 51.2598762512207 63.82832717895508 44.70446014404297 67.29452514648438 48.868194580078125 69.70838928222656 C 47.24763870239258 66.54219055175781 49.623817443847656 60.171146392822266 55.02546691894531 51.4580078125" stroke-width="1.9092419147491455" fill="none" stroke="rgb(119, 133, 54)" stroke-opacity="0.11898907" stroke-linecap="round" stroke-linejoin="round"/>
    <path d="M 96.83011627197266 99.14929962158203 C 99.12261199951172 106.94621276855469 92.02902221679688 96.69784545898438 90.30200958251953 97.00885772705078" stroke-width="1.909239411354065" fill="none" stroke="rgb(149, 51, 233)" stroke-opacity="0.035940874" stroke-linecap="round" stroke-linejoin="round"/>
    <path d="M 99.23560333251953 141.1445770263672 C 99.45943450927734 148.79193115234375 100.19945526123047 141.2932891845703 96.59514617919922 143.7241668701172" stroke-width="1.7356772422790527" fill="none" stroke="rgb(8, 168, 211)" stroke-opacity="0.70207673" stroke-linecap="round" stroke-linejoin="round"/>
    <path d="M 95.92889404296875 135.107421875 C 102.42486572265625 125.46633911132812 99.69744110107422 123.64894104003906 98.2784652709961 119.42476654052734" stroke-width="1.9092422723770142" fill="none" stroke="rgb(153, 143, 98)" stroke-opacity="0.31931806" stroke-linecap="round" stroke-linejoin="round"/>
    <path d="M 103.02357482910156 104.34822082519531 C 99.29283905029297 100.27740478515625 96.06542205810547 92.12950134277344 95.29357147216797 95.5469741821289 C 88.58572387695312 97.80778503417969 81.3178939819336 103.32391357421875 89.30606079101562 111.7160415649414" stroke-width="1.7356772422790527" fill="none" stroke="rgb(126, 122, 80)" stroke-opacity="0.63726085" stroke-linecap="round" stroke-linejoin="round"/>
    <path d="M 90.17375946044922 111.71602630615234 C 86.71021270751953 104.96730041503906 92.0188217163086 109.24295806884766 90.91683197021484 101.98975372314453" stroke-width="1.9092438220977783" fill="none" stroke="rgb(65, 36, 219)" stroke-opacity="0.2933532" stroke-linecap="round" stroke-linejoin="round"/>
    <path d="M 55.89328384399414 51.45801544189453 C 64.42540740966797 48.21299362182617 67.1398696899414 42.592124938964844 64.15357971191406 48.37360382080078" stroke-width="1.7356772422790527" fill="none" stroke="rgb(179, 238, 23)" stroke-opacity="0.8838121" stroke-linecap="round" stroke-linejoin="round"/>
    <path d="M 90.17388916015625 111.71602630615234 C 92.35908508300781 119.15629577636719 86.23342895507812 118.6072769165039 88.09732818603516 115.18643188476562 C 90.50651550292969 125.34449768066406 93.8722915649414 131.68350219726562 87.8424301147461 140.4618682861328" stroke-width="1.7356772422790527" fill="none" stroke="rgb(7, 245, 201)" stroke-opacity="0.6057499" stroke-linecap="round" stroke-linejoin="round"/>
    <path d="M 127.8858413696289 96.46751403808594 C 135.2522430419922 101.80279541015625 135.1005401611328 100.76719665527344 135.32858276367188 95.43279266357422 C 127.52297973632812 104.24273681640625 121.3024673461914 103.92164611816406 116.60298156738281 94.65111541748047 C 111.60264587402344 90.40018463134766 117.2457046508789 97.5600357055664 116.9397964477539 88.55984497070312" stroke-width="1.7356772422790527" fill="none" stroke="rgb(99, 84, 31)" stroke-opacity="0.6679232" stroke-linecap="round" stroke-linejoin="round"/>
    <path d="M 154.24118041992188 108.0548095703125 C 152.5561981201172 100.0482177734375 147.2063751220703 94.13470458984375 155.49790954589844 92.95671844482422" stroke-width="1.7356772422790527" fill="none" stroke="rgb(89, 147, 231)" stroke-opacity="0.12267233" stroke-linecap="round" stroke-linejoin="round"/>
    <path d="M 98.2784652709961 119.42475891113281 C 96.93734741210938 125.04801940917969 92.38593292236328 133.25062561035156 99.7155532836914 134.15785217285156 C 96.63736724853516 138.8292236328125 96.19536590576172 133.99203491210938 91.1392822265625 137.27513122558594 C 83.8307876586914 139.29409790039062 91.1833724975586 146.74574279785156 83.95204162597656 144.2918701171875" stroke-width="1.7356772422790527" fill="none" stroke="rgb(35, 134, 202)" stroke-opacity="0.92078626" stroke-linecap="round" stroke-linejoin="round"/>
    <path d="M 127.8858413696289 96.4675064086914 C 137.12692260742188 96.31312561035156 128.04660034179688 102.68263244628906 133.62049865722656 98.59574127197266" stroke-width="1.9092363119125366" fill="none" stroke="rgb(33, 22, 213)" stroke-opacity="0.04081701" stroke-linecap="round" stroke-linejoin="round"/>
    <path d="M 90.302001953125 97.00885772705078 C 90.90841674804688 92.77901458740234 90.7978744506836 97.63113403320312 83.37237548828125 91.8475112915039" stroke-width="1.7356772422790527" fill="none" stroke="rgb(167, 240, 96)" stroke-opacity="0.5425945" stroke-linecap="round" stroke-linejoin="round"/>
    <path d="M 37.028621673583984 153.6048126220703 C 45.57917022705078 157.08096313476562 47.771644592285156 154.3340606689453 52.730220794677734 151.24627685546875" stroke-width="1.9092433452606201" fill="none" stroke="rgb(5, 121, 180)" stroke-opacity="0.6095488" stroke-linecap="round" stroke-linejoin="round"/>
    <path d="M 57.94843673706055 69.8790283203125 C 59.255245208740234 71.51940155029297 54.78865432739258 78.1520767211914 63.426780700683594 86.924560546875" stroke-width="1.9092447757720947" fill="none" stroke="rgb(170, 103, 237)" stroke-opacity="0.9920445" stroke-linecap="round" stroke-linejoin="round"/>
    <path d="M 49.683345794677734 90.08084106445312 C 42.822509765625 81.44519805908203 38.640438079833984 86.78484344482422 32.89266586303711 83.85397338867188" stroke-width="1.7356772422790527" fill="none" stroke="rgb(232, 240, 181)" stroke-opacity="0.9133373" stroke-linecap="round" stroke-linejoin="round"/>
    <path d="M -0.2368541806936264 145.2945556640625 C -6.42492151260376 154.33621215820312 -4.8494086265563965 154.06077575683594 1.4567642211914062 145.6899871826172" stroke-width="1.9092433452606201" fill="none" stroke="rgb(171, 198, 241)" stroke-opacity="0.99525446" stroke-linecap="round" stroke-linejoin="round"/>
    <path d="M 42.18625259399414 127.38450622558594 C 37.60383224487305 132.79754638671875 38.146305084228516 124.06682586669922 38.822021484375 131.96615600585938" stroke-width="1.909244418144226" fill="none" stroke="rgb(110, 61, 148)" stroke-opacity="0.6017877" stroke-linecap="round" stroke-linejoin="round"/>
    <path d="M 2.286386013031006 79.26698303222656 C -5.009790897369385 74.0018310546875 4.265592098236084 75.196044921875 -0.4573545753955841 84.60193634033203 C 6.596957206726074 90.63189697265625 16.24355697631836 99.21833038330078 9.410489082336426 100.40756225585938" stroke-width="1.7356772422790527" fill="none" stroke="rgb(34, 85, 100)" stroke-opacity="0.044507578" stroke-linecap="round" stroke-linejoin="round"/>
    <path d="M 146.31040954589844 163.52264404296875 C 138.63929748535156 164.8967742919922 136.9336700439453 161.66575622558594 129.99961853027344 155.60885620117188 C 130.52615356445312 152.24684143066406 135.01271057128906 155.02801513671875 141.0974578857422 147.87448120117188" stroke-width="1.7356772422790527" fill="none" stroke="rgb(62, 243, 50)" stroke-opacity="0.15057127" stroke-linecap="round" stroke-linejoin="round"/>
    <path d="M 81.4826889038086 186.7269744873047 C 73.7522964477539 184.2676544189453 64.6251449584961 190.6102294921875 73.52484893798828 199.97242736816406 C 83.39334869384766 200.0629119873047 82.80292510986328 197.0505828857422 89.34949493408203 205.31907653808594" stroke-width="1.7356772422790527" fill="none" stroke="rgb(219, 157, 96)" stroke-opacity="0.7054518" stroke-linecap="round" stroke-linejoin="round"/>
    <path d="M 148.8369598388672 79.81904602050781 C 146.6843719482422 81.69303131103516 152.50526428222656 78.04438781738281 150.3965301513672 70.4369888305664 C 146.0286102294922 67.18650817871094 137.47665405273438 57.11233901977539 130.5977783203125 63.71363830566406 C 125.7049331665039 58.67146301269531 118.98320007324219 67.951171875 124.63520812988281 60.457847595214844" stroke-width="1.9092447757720947" fill="none" stroke="rgb(255, 157, 140)" stroke-opacity="0.99819916" stroke-linecap="round" stroke-linejoin="round"/>
    <path d="M 143.32461547851562 9.975593566894531 C 152.97113037109375 13.259546279907227 156.19117736816406 15.10875129699707 155.07867431640625 19.211267471313477" stroke-width="1.7356772422790527" fill="none" stroke="rgb(52, 11, 139)" stroke-opacity="0.5830388" stroke-linecap="round" stroke-linejoin="round"/>
    <path d="M 43.22746658325195 77.55734252929688 C 35.196739196777344 86.78675842285156 26.449954986572266 82.21056365966797 28.700092315673828 91.49642181396484 C 25.39250946044922 100.59732818603516 18.986907958984375 96.85765838623047 20.842782974243164 99.88656616210938 C 23.145254135131836 104.17427825927734 13.668888092041016 97.72576904296875 8.168425559997559 92.9247055053711" stroke-width="1.7356772422790527" fill="none" stroke="rgb(11, 142, 190)" stroke-opacity="0.54594076" stroke-linecap="round" stroke-linejoin="round"/>
    <path d="M 42.07589340209961 160.0337371826172 C 49.03682327270508 153.49234008789062 49.45350646972656 159.92430114746094 49.039634704589844 151.69342041015625" stroke-width="1.7356772422790527" fill="none" stroke="rgb(236, 19, 177)" stroke-opacity="0.74188536" stroke-linecap="round" stroke-linejoin="round"/>
    <path d="M 139.593505859375 117.07691955566406 C 143.04550170898438 113.6171646118164 142.1217041015625 114.540771484375 148.25587463378906 112.04839324951172" stroke-width="1.9092435836791992" fill="none" stroke="rgb(149, 1, 30)" stroke-opacity="0.2652066" stroke-linecap="round" stroke-linejoin="round"/>
    <path d="M 184.08775329589844 38.08422088623047 C 177.36070251464844 43.74825668334961 173.64376831054688 43.003944396972656 166.82264709472656 52.82455825805664 C 164.50643920898438 52.641380310058594 157.22181701660156 49.70659637451172 157.0831756591797 41.94618225097656" stroke-width="1.909244179725647" fill="none" stroke="rgb(227, 75, 232)" stroke-opacity="0.28898266" stroke-linecap="round" stroke-linejoin="round"/>
    <path d="M 47.94443893432617 193.0214385986328 C 47.80364227294922 198.09742736816406 54.356910705566406 194.76971435546875 56.12740707397461 187.27664184570312" stroke-width="1.9092376232147217" fill="none" stroke="rgb(115, 100, 148)" stroke-opacity="0.11539708" stroke-linecap="round" stroke-linejoin="round"/>
    <path d="M 136.50547790527344 94.5000228881836 C 129.37705993652344 85.45478057861328 136.57582092285156 83.4667739868164 146.08790588378906 75.04741668701172 C 150.20681762695312 67.3236083984375 141.9547576904297 61.643104553222656 148.58929443359375 68.15460205078125" stroke-width="1.7356772422790527" fill="none" stroke="rgb(44, 179, 82)" stroke-opacity="0.5619868" stroke-linecap="round" stroke-linejoin="round"/>
  </g>
</svg>
