<?xml version="1.0" ?>
<svg xmlns="http://www.w3.org/2000/svg" version="1.1" width="956.0" height="956.0">
  <defs/>
  <g>
    <path d="M 40.181758880615234 57.920475006103516 C 41.069061279296875 58.465091705322266 40.02960205078125 58.70543670654297 39.70515060424805 58.04856491088867 C 38.87799072265625 57.76186752319336 38.139892578125 57.25434875488281 37.407894134521484 56.77244567871094 C 36.39162826538086 56.1038932800293 35.378997802734375 55.414608001708984 33.92805862426758 55.14783477783203 C 30.856077194213867 51.85504150390625 29.844741821289062 49.15633773803711 30.38923454284668 44.65214538574219 C 30.38922691345215 44.582420349121094 30.25502586364746 43.30773162841797 30.77231216430664 42.76979446411133 C 31.592124938964844 41.91697311401367 31.957664489746094 40.54401779174805 33.0349006652832 40.05600357055664 C 38.327266693115234 38.202117919921875 45.1207160949707 37.92030334472656 50.80714797973633 37.92030334472656 C 54.8441276550293 37.37566375732422 56.00191116333008 36.879119873046875 59.613121032714844 38.65177536010742 C 66.3165054321289 42.755149841308594 70.50719451904297 51.51475524902344 72.34085845947266 58.849395751953125 C 72.51898193359375 59.56306838989258 73.47301483154297 66.54634857177734 73.5235595703125 67.78223419189453 C 68.45760345458984 78.54212188720703 52.26576232910156 79.69380187988281 42.095848083496094 80.25377655029297 C 40.227745056152344 80.90087127685547 38.34260177612305 80.99239349365234 37.02451705932617 80.79837799072266 C 35.462745666503906 80.69225311279297 34.523319244384766 80.20304870605469 33.54486846923828 79.9053726196289" stroke-width="1.0892857313156128" fill="none" stroke="rgb(26, 26, 21)" stroke-opacity="1.0" stroke-linecap="round" stroke-linejoin="round"/>
    <path d="M 29.8446044921875 66.34333801269531 C 31.40498161315918 66.34335327148438 29.36148452758789 69.43240356445312 29.496185302734375 71.48243713378906 C 28.33913230895996 73.18269348144531 27.444860458374023 75.3432846069336 27.327030181884766 78.11795806884766 C 26.765838623046875 80.00662994384766 23.825637817382812 91.48805236816406 23.62677574157715 92.5384750366211 C 22.290361404418945 96.1601791381836 22.617321014404297 100.54119873046875 22.315977096557617 105.2996826171875" stroke-width="1.0892857313156128" fill="none" stroke="rgb(26, 21, 21)" stroke-opacity="1.0" stroke-linecap="round" stroke-linejoin="round"/>
    <path d="M 33.927940368652344 55.147918701171875 C 35.59787368774414 60.09696578979492 30.147462844848633 60.512939453125 30.692922592163086 63.05556869506836 C 32.002071380615234 68.50994110107422 35.74811553955078 62.74845504760742 36.934593200683594 62.41728591918945 C 36.105472564697266 66.32219696044922 34.726768493652344 62.692718505859375 33.42365264892578 56.06603240966797" stroke-width="1.0892857313156128" fill="none" stroke="rgb(91, 183, 111)" stroke-opacity="0.6693615" stroke-linecap="round" stroke-linejoin="round"/>
    <path d="M 39.160526275634766 58.048561096191406 C 44.83224105834961 52.65412521362305 46.64414978027344 57.909576416015625 45.28376007080078 62.03608322143555 C 43.48814010620117 59.52558517456055 46.885284423828125 60.81298828125 47.291259765625 63.241249084472656" stroke-width="1.1982136964797974" fill="none" stroke="rgb(13, 250, 144)" stroke-opacity="0.3367168" stroke-linecap="round" stroke-linejoin="round"/>
    <path d="M 37.40788650512695 56.774478912353516 C 36.10122299194336 59.72063064575195 37.38084030151367 56.57399368286133 33.93059158325195 50.71218490600586 C 28.802024841308594 48.01680374145508 29.07952880859375 45.25497817993164 33.25318908691406 45.76084518432617 C 29.393022537231445 48.1251335144043 32.40643310546875 53.225772857666016 32.51060104370117 57.20256042480469" stroke-width="1.0892857313156128" fill="none" stroke="rgb(165, 174, 37)" stroke-opacity="0.45116124" stroke-linecap="round" stroke-linejoin="round"/>
    <path d="M 39.1605339050293 58.04859924316406 C 41.43953323364258 61.58406448364258 43.96260452270508 63.09156799316406 43.344669342041016 68.18977355957031" stroke-width="1.1982097625732422" fill="none" stroke="rgb(205, 170, 173)" stroke-opacity="0.19913608" stroke-linecap="round" stroke-linejoin="round"/>
    <path d="M 33.0349006652832 40.055999755859375 C 37.11357116699219 39.806671142578125 35.068687438964844 36.939048767089844 31.685230255126953 41.4571418762207 C 31.830917358398438 42.64466857910156 30.561626434326172 39.73549270629883 35.24515151977539 36.70513153076172" stroke-width="1.0892857313156128" fill="none" stroke="rgb(24, 17, 8)" stroke-opacity="0.91754067" stroke-linecap="round" stroke-linejoin="round"/>
    <path d="M 36.480194091796875 80.2537841796875 C 32.85014343261719 86.24095153808594 29.774402618408203 88.00218963623047 32.414161682128906 92.73157501220703" stroke-width="1.1982139348983765" fill="none" stroke="rgb(216, 246, 192)" stroke-opacity="0.85080105" stroke-linecap="round" stroke-linejoin="round"/>
    <path d="M 39.70439910888672 58.0485725402832 C 36.21595764160156 54.86655807495117 34.12025833129883 59.561927795410156 39.588985443115234 53.6038703918457 C 40.730018615722656 47.8260498046875 41.785675048828125 44.303890228271484 46.43133544921875 44.29118347167969" stroke-width="1.0892857313156128" fill="none" stroke="rgb(207, 97, 134)" stroke-opacity="0.07662521" stroke-linecap="round" stroke-linejoin="round"/>
    <path d="M 40.181663513183594 58.465091705322266 C 39.84232711791992 52.37654113769531 38.055355072021484 51.065574645996094 41.66106414794922 56.709259033203125 C 43.624366760253906 57.6888542175293 38.22952651977539 61.13895034790039 37.31319808959961 64.71204376220703 C 39.7296257019043 70.03057861328125 34.265254974365234 64.32439422607422 29.127735137939453 61.655696868896484" stroke-width="1.0892857313156128" fill="none" stroke="rgb(26, 82, 141)" stroke-opacity="0.37882516" stroke-linecap="round" stroke-linejoin="round"/>
    <path d="M 32.5106086730957 56.657955169677734 C 27.10580825805664 63.12215805053711 28.31002426147461 67.13737487792969 23.41706657409668 63.09468460083008" stroke-width="1.0892857313156128" fill="none" stroke="rgb(210, 207, 46)" stroke-opacity="0.42959103" stroke-linecap="round" stroke-linejoin="round"/>
    <path d="M 32.51063537597656 56.6581916809082 C 37.05091094970703 54.83803939819336 35.54636764526367 59.095909118652344 34.67815399169922 54.97279357910156" stroke-width="1.198208212852478" fill="none" stroke="rgb(78, 27, 131)" stroke-opacity="0.0028291792" stroke-linecap="round" stroke-linejoin="round"/>
    <path d="M 32.510623931884766 56.65805435180664 C 34.184085845947266 59.1882438659668 36.48038864135742 60.94068908691406 38.097599029541016 57.08281707763672 C 39.22515869140625 56.27358627319336 43.88044738769531 62.2418098449707 44.229740142822266 64.94401550292969" stroke-width="1.0892857313156128" fill="none" stroke="rgb(31, 34, 13)" stroke-opacity="0.07092658" stroke-linecap="round" stroke-linejoin="round"/>
    <path d="M 33.42365264892578 56.06603240966797 C 29.661239624023438 60.75282287597656 33.596656799316406 60.641910552978516 29.16503143310547 65.90452575683594" stroke-width="1.1982122659683228" fill="none" stroke="rgb(104, 34, 212)" stroke-opacity="0.046245016" stroke-linecap="round" stroke-linejoin="round"/>
    <path d="M 32.41415786743164 93.27619171142578 C 36.666683197021484 90.34181213378906 40.60604476928711 89.67269897460938 44.425907135009766 84.09239196777344 C 40.9486198425293 88.09224700927734 41.98033142089844 83.85725402832031 42.46052551269531 87.099853515625" stroke-width="1.1982131004333496" fill="none" stroke="rgb(244, 55, 167)" stroke-opacity="0.01791859" stroke-linecap="round" stroke-linejoin="round"/>
    <path d="M 32.51061248779297 56.65802001953125 C 31.137935638427734 51.14884567260742 29.843355178833008 52.53230667114258 26.962596893310547 54.50016403198242" stroke-width="1.1982110738754272" fill="none" stroke="rgb(33, 90, 41)" stroke-opacity="0.09890329" stroke-linecap="round" stroke-linejoin="round"/>
    <path d="M 46.36524963378906 44.83570861816406 C 48.386085510253906 45.9019660949707 48.549076080322266 51.1898307800293 43.236427307128906 52.85858154296875" stroke-width="1.0892857313156128" fill="none" stroke="rgb(187, 100, 251)" stroke-opacity="0.09653607" stroke-linecap="round" stroke-linejoin="round"/>
    <path d="M 33.42353820800781 56.0660285949707 C 28.416465759277344 59.635353088378906 29.950422286987305 64.92990112304688 25.749067306518555 60.51651382446289" stroke-width="1.1982126235961914" fill="none" stroke="rgb(214, 143, 5)" stroke-opacity="0.50447583" stroke-linecap="round" stroke-linejoin="round"/>
    <path d="M 96.4935073852539 87.24803161621094 C 95.73944854736328 90.93331146240234 97.38894653320312 93.1794204711914 94.55091857910156 96.09654235839844 C 92.39289855957031 96.66529083251953 89.1256103515625 91.44711303710938 84.41531372070312 94.35350036621094" stroke-width="1.0892857313156128" fill="none" stroke="rgb(213, 144, 237)" stroke-opacity="0.5046741" stroke-linecap="round" stroke-linejoin="round"/>
    <path d="M 90.85365295410156 5.017400741577148 C 86.34854125976562 5.207482814788818 81.82467651367188 0.7444776892662048 82.80042266845703 0.6298025846481323 C 80.62826538085938 0.5827049016952515 82.72236633300781 -3.19173264503479 76.87566375732422 -5.873140811920166 C 76.87274169921875 -0.560074508190155 76.68206024169922 1.3852757215499878 78.0107192993164 5.69889497756958" stroke-width="1.1982135772705078" fill="none" stroke="rgb(245, 201, 91)" stroke-opacity="0.85602653" stroke-linecap="round" stroke-linejoin="round"/>
    <path d="M 116.8333740234375 107.4840087890625 C 119.54745483398438 106.55599212646484 121.89828491210938 102.0281753540039 119.98721313476562 104.51918029785156" stroke-width="1.1982125043869019" fill="none" stroke="rgb(29, 231, 197)" stroke-opacity="0.33625653" stroke-linecap="round" stroke-linejoin="round"/>
    <path d="M 0.6118614077568054 101.83942413330078 C 1.7626889944076538 99.09654235839844 -0.1015789732336998 103.71537017822266 4.417821407318115 98.12608337402344" stroke-width="1.0892857313156128" fill="none" stroke="rgb(197, 209, 99)" stroke-opacity="0.23849645" stroke-linecap="round" stroke-linejoin="round"/>
    <path d="M 28.006959915161133 47.98118209838867 C 23.358091354370117 48.5063362121582 25.80196189880371 47.08403778076172 23.96255111694336 45.688209533691406 C 26.297687530517578 50.238155364990234 20.70623779296875 46.21448516845703 24.91986083984375 41.25377655029297" stroke-width="1.1982141733169556" fill="none" stroke="rgb(131, 12, 14)" stroke-opacity="0.6606041" stroke-linecap="round" stroke-linejoin="round"/>
    <path d="M 15.682079315185547 16.291454315185547 C 19.192941665649414 16.488481521606445 13.343330383300781 17.274778366088867 15.748499870300293 20.30729866027832 C 15.139837265014648 26.382976531982422 13.04680347442627 23.61885643005371 14.878796577453613 24.594675064086914 C 14.84161376953125 21.397994995117188 11.821856498718262 22.77301788330078 10.487873077392578 26.05962562561035" stroke-width="1.0892857313156128" fill="none" stroke="rgb(82, 116, 89)" stroke-opacity="0.9123059" stroke-linecap="round" stroke-linejoin="round"/>
    <path d="M 74.4655990600586 44.06218719482422 C 72.27886199951172 43.91196060180664 70.99210357666016 47.469635009765625 70.99957275390625 49.320804595947266" stroke-width="1.0892857313156128" fill="none" stroke="rgb(219, 161, 101)" stroke-opacity="0.84579986" stroke-linecap="round" stroke-linejoin="round"/>
    <path d="M 30.13712501525879 107.63101196289062 C 33.24302291870117 111.79000854492188 31.173553466796875 118.3840560913086 35.84757995605469 116.32677459716797 C 39.271812438964844 121.712646484375 45.201255798339844 115.90465545654297 50.26518630981445 115.9001235961914 C 52.25007629394531 119.73053741455078 57.90585708618164 120.65892028808594 61.73002624511719 123.3836669921875" stroke-width="1.1982008218765259" fill="none" stroke="rgb(114, 0, 93)" stroke-opacity="0.48525676" stroke-linecap="round" stroke-linejoin="round"/>
    <path d="M 16.9472599029541 88.66519165039062 C 20.712575912475586 85.47847747802734 18.61846351623535 90.661376953125 19.36988639831543 88.77375793457031" stroke-width="1.0892857313156128" fill="none" stroke="rgb(3, 142, 101)" stroke-opacity="0.78413063" stroke-linecap="round" stroke-linejoin="round"/>
    <path d="M 39.68589782714844 51.14619064331055 C 42.40887451171875 57.332313537597656 44.787593841552734 58.3433952331543 41.518348693847656 53.888397216796875 C 46.20973587036133 53.57740020751953 42.44671630859375 56.27649688720703 41.2949104309082 60.36058807373047" stroke-width="1.1982135772705078" fill="none" stroke="rgb(38, 206, 150)" stroke-opacity="0.12230219" stroke-linecap="round" stroke-linejoin="round"/>
    <path d="M 94.2665786743164 40.104087829589844 C 97.43529510498047 38.897769927978516 103.37566375732422 43.94715118408203 103.25997161865234 43.91471862792969 C 100.43746185302734 43.26072311401367 96.77024841308594 43.15481948852539 93.56967163085938 46.97511672973633 C 94.67666625976562 46.67885971069336 95.32372283935547 46.46367263793945 100.1990966796875 41.657310485839844" stroke-width="1.0892857313156128" fill="none" stroke="rgb(201, 59, 90)" stroke-opacity="0.04938645" stroke-linecap="round" stroke-linejoin="round"/>
    <path d="M 8.686617851257324 75.00707244873047 C 7.8609185218811035 79.35807800292969 12.513010025024414 73.10670471191406 14.903260231018066 67.81815338134766 C 9.210665702819824 71.11157989501953 11.542767524719238 68.8335952758789 15.223987579345703 66.7404556274414" stroke-width="1.0892857313156128" fill="none" stroke="rgb(224, 156, 111)" stroke-opacity="0.7744468" stroke-linecap="round" stroke-linejoin="round"/>
    <path d="M 71.91034698486328 120.83917236328125 C 66.85957336425781 118.56495666503906 66.4468765258789 118.36699676513672 70.59446716308594 120.87818908691406" stroke-width="1.0892857313156128" fill="none" stroke="rgb(209, 99, 49)" stroke-opacity="0.6298461" stroke-linecap="round" stroke-linejoin="round"/>
    <path d="M 40.77965545654297 89.99687194824219 C 39.554100036621094 85.0274429321289 43.00416564941406 87.5808334350586 47.650352478027344 83.72706604003906" stroke-width="1.0892857313156128" fill="none" stroke="rgb(103, 97, 151)" stroke-opacity="0.86022335" stroke-linecap="round" stroke-linejoin="round"/>
    <path d="M 93.79097747802734 26.72938346862793 C 90.75447845458984 27.623123168945312 94.23998260498047 22.94084930419922 91.55975341796875 19.726076126098633" stroke-width="1.0892857313156128" fill="none" stroke="rgb(94, 250, 22)" stroke-opacity="0.73482865" stroke-linecap="round" stroke-linejoin="round"/>
    <path d="M 90.37733459472656 54.953697204589844 C 92.087890625 56.40070343017578 86.71603393554688 59.96413040161133 83.78309631347656 60.6611213684082 C 81.26618957519531 63.109779357910156 83.88591003417969 59.539302825927734 81.4493408203125 57.99085235595703 C 77.15784454345703 60.115447998046875 78.4072036743164 61.47856140136719 77.180419921875 58.38563537597656" stroke-width="1.1982141733169556" fill="none" stroke="rgb(205, 9, 164)" stroke-opacity="0.83305955" stroke-linecap="round" stroke-linejoin="round"/>
  </g>
</svg>
