<?xml version="1.0" ?>
<svg xmlns="http://www.w3.org/2000/svg" version="1.1" width="1104.0" height="1104.0">
  <defs/>
  <g>
    <path d="M 57.174381256103516 34.17988204956055 C 56.84213638305664 34.28752517700195 58.069610595703125 33.91313552856445 57.14121627807617 33.15992736816406 C 57.08907699584961 33.01530075073242 57.44624328613281 33.263362884521484 56.38907241821289 31.6303653717041 C 56.77928924560547 30.341001510620117 57.957855224609375 29.38678741455078 59.700950622558594 29.67397689819336 C 66.10301208496094 28.162240982055664 69.5966567993164 28.08808708190918 74.69058227539062 26.80016326904297 C 75.97051239013672 28.19548988342285 78.77217102050781 27.582408905029297 80.35261535644531 26.47059440612793 C 80.15215301513672 27.941606521606445 79.90664672851562 34.376251220703125 80.42933654785156 35.9877815246582 C 80.76905822753906 35.2429313659668 80.91521453857422 37.49475860595703 80.277587890625 39.374637603759766 C 81.26498413085938 41.138179779052734 80.71379852294922 42.97315216064453 80.43883514404297 44.80949783325195 C 77.35659790039062 48.95261764526367 73.50367736816406 52.00670623779297 69.28765869140625 55.23258590698242 C 67.03649139404297 55.89035415649414 65.28073120117188 56.69315719604492 64.15967559814453 58.13416290283203 C 62.995121002197266 57.66257095336914 62.03571701049805 58.41970443725586 62.11375427246094 59.079193115234375 C 63.79446029663086 60.56525421142578 63.6129264831543 63.63593673706055 63.58794021606445 65.3170166015625 C 63.06015396118164 66.4365234375 64.9996337890625 66.95738220214844 65.82096862792969 67.78999328613281 C 67.41902160644531 71.12155151367188 72.6811294555664 72.0152587890625 76.12798309326172 73.59288024902344" stroke-width="1.176261067390442" fill="none" stroke="rgb(35, 30, 24)" stroke-opacity="0.9708367" stroke-linecap="round" stroke-linejoin="round"/>
    <path d="M 55.31647872924805 52.49256896972656 C 56.3453483581543 52.84775924682617 55.65781784057617 53.402130126953125 55.551788330078125 53.13480758666992 C 55.82696533203125 55.720149993896484 56.18320083618164 57.78768539428711 56.39339065551758 60.466556549072266 C 57.13016128540039 64.90148162841797 57.63913345336914 71.05838775634766 57.61704635620117 77.53825378417969" stroke-width="1.5188779830932617" fill="none" stroke="rgb(33, 19, 13)" stroke-opacity="1.0" stroke-linecap="round" stroke-linejoin="round"/>
    <path d="M 70.65776062011719 53.756126403808594 C 72.17857360839844 53.440513610839844 75.50455474853516 53.687503814697266 80.22877502441406 54.352577209472656 C 80.44397735595703 54.67605209350586 82.83519744873047 53.71406173706055 82.58678436279297 54.97092819213867 C 85.2127456665039 53.58575439453125 86.0156021118164 54.27684783935547 86.3624267578125 55.07593536376953 C 87.45948791503906 57.83986282348633 87.49518585205078 60.72327423095703 88.44639587402344 64.01873016357422 C 88.77992248535156 67.47676849365234 89.67375183105469 71.13069915771484 89.80084991455078 74.17002868652344 C 92.41567993164062 79.3900375366211 88.2068099975586 85.21772766113281 82.92704772949219 86.88993072509766 C 81.3770523071289 88.70411682128906 80.27886199951172 89.4156494140625 78.88661193847656 90.29955291748047 C 76.584716796875 90.97740173339844 75.81364440917969 91.98812866210938 74.66851043701172 90.18164825439453 C 72.10076904296875 90.19216918945312 69.27690887451172 89.35195922851562 67.3646469116211 88.4317855834961 C 66.4933853149414 88.28436279296875 65.2082290649414 87.59064483642578 63.577083587646484 86.97826385498047 C 63.6683349609375 86.29458618164062 63.13847351074219 86.64282989501953 64.23860931396484 86.88973999023438" stroke-width="1.2378413677215576" fill="none" stroke="rgb(36, 27, 11)" stroke-opacity="0.97597903" stroke-linecap="round" stroke-linejoin="round"/>
    <path d="M 79.96504211425781 42.84864044189453 C 84.96244049072266 42.91048049926758 85.64242553710938 38.66716384887695 77.69356536865234 40.04713821411133" stroke-width="1.357164978981018" fill="none" stroke="rgb(157, 136, 147)" stroke-opacity="0.9401608" stroke-linecap="round" stroke-linejoin="round"/>
    <path d="M 82.2086410522461 53.34151840209961 C 78.02730560302734 53.17184066772461 84.0057144165039 52.116947174072266 88.22325134277344 50.430477142333984" stroke-width="1.1741070747375488" fill="none" stroke="rgb(64, 90, 209)" stroke-opacity="0.19513011" stroke-linecap="round" stroke-linejoin="round"/>
    <path d="M 63.93754577636719 60.96644973754883 C 69.04541015625 56.4532356262207 66.09591674804688 61.625980377197266 68.5467300415039 56.96984100341797" stroke-width="1.1741070747375488" fill="none" stroke="rgb(237, 180, 246)" stroke-opacity="0.15052006" stroke-linecap="round" stroke-linejoin="round"/>
    <path d="M 55.85515213012695 34.2359504699707 C 59.356117248535156 40.599613189697266 66.84357452392578 37.96424102783203 61.751163482666016 31.88222885131836 C 57.753780364990234 32.5119743347168 55.63499450683594 38.029884338378906 60.591758728027344 37.60531234741211" stroke-width="1.250463604927063" fill="none" stroke="rgb(142, 13, 174)" stroke-opacity="0.2332809" stroke-linecap="round" stroke-linejoin="round"/>
    <path d="M 73.52432250976562 28.29370880126953 C 69.07657623291016 30.817867279052734 75.53688049316406 28.02828025817871 81.6055908203125 30.748403549194336 C 79.03108978271484 32.55335998535156 85.24093627929688 26.370994567871094 81.30880737304688 21.932479858398438" stroke-width="1.1741070747375488" fill="none" stroke="rgb(98, 137, 155)" stroke-opacity="0.6326777" stroke-linecap="round" stroke-linejoin="round"/>
    <path d="M 66.1457748413086 66.41253662109375 C 59.85898971557617 68.68154907226562 59.950904846191406 71.7197494506836 59.30390548706055 71.40261840820312 C 57.94823455810547 74.43714904785156 60.26240158081055 76.71640014648438 62.385047912597656 69.49395751953125" stroke-width="1.3069967031478882" fill="none" stroke="rgb(199, 255, 23)" stroke-opacity="0.780488" stroke-linecap="round" stroke-linejoin="round"/>
    <path d="M 74.68643951416016 73.33309936523438 C 69.91139221191406 70.3354263305664 63.71276092529297 73.56402587890625 64.4432601928711 75.94249725341797 C 64.5421371459961 72.650390625 65.27222442626953 79.17408752441406 61.595787048339844 81.10993957519531 C 65.20946502685547 84.61840057373047 70.02591705322266 81.80511474609375 65.03047180175781 75.86534881591797" stroke-width="1.1741070747375488" fill="none" stroke="rgb(30, 6, 68)" stroke-opacity="0.08489157" stroke-linecap="round" stroke-linejoin="round"/>
    <path d="M 62.964420318603516 65.345703125 C 65.69770050048828 58.1177864074707 62.7231559753418 55.03245544433594 67.15961456298828 57.41767501831055 C 71.98580932617188 66.43553924560547 71.30386352539062 70.71234893798828 72.53372955322266 73.13778686523438 C 71.31092071533203 70.63776397705078 67.55569458007812 68.4430160522461 67.57257843017578 72.55447387695312" stroke-width="1.4257283210754395" fill="none" stroke="rgb(0, 243, 33)" stroke-opacity="0.7553287" stroke-linecap="round" stroke-linejoin="round"/>
    <path d="M 68.31487274169922 73.7552490234375 C 68.04286193847656 73.76998138427734 67.55306243896484 70.72811889648438 68.83975982666016 72.07177734375 C 74.41279602050781 71.85295867919922 71.55809783935547 75.7954330444336 65.68997192382812 71.56256866455078 C 71.69778442382812 67.76458740234375 73.13345336914062 73.77649688720703 81.29393768310547 78.58029174804688" stroke-width="1.7446640729904175" fill="none" stroke="rgb(252, 30, 61)" stroke-opacity="0.61870146" stroke-linecap="round" stroke-linejoin="round"/>
    <path d="M 62.51178741455078 69.66331481933594 C 60.810791015625 75.85562896728516 56.03582763671875 77.6915512084961 57.297630310058594 80.7193603515625" stroke-width="1.6958423852920532" fill="none" stroke="rgb(169, 14, 64)" stroke-opacity="0.6196976" stroke-linecap="round" stroke-linejoin="round"/>
    <path d="M 88.57182312011719 50.6005744934082 C 84.79155731201172 54.864356994628906 85.81776428222656 59.719932556152344 85.74520111083984 55.14999008178711" stroke-width="1.1741070747375488" fill="none" stroke="rgb(44, 123, 227)" stroke-opacity="0.0625281" stroke-linecap="round" stroke-linejoin="round"/>
    <path d="M 77.60277557373047 40.71704864501953 C 72.87451934814453 39.47810745239258 76.38516998291016 45.280670166015625 71.84928894042969 43.47652816772461" stroke-width="1.3614166975021362" fill="none" stroke="rgb(138, 159, 39)" stroke-opacity="0.3112346" stroke-linecap="round" stroke-linejoin="round"/>
    <path d="M 67.70231628417969 72.3759994506836 C 66.61151885986328 73.1375732421875 71.67887115478516 73.64762115478516 77.29811096191406 68.06513977050781" stroke-width="1.1741070747375488" fill="none" stroke="rgb(223, 6, 191)" stroke-opacity="0.2829265" stroke-linecap="round" stroke-linejoin="round"/>
    <path d="M 60.94549560546875 38.00450134277344 C 61.86507797241211 34.9840087890625 65.84879302978516 40.253448486328125 70.87841796875 35.27985763549805 C 76.30305480957031 38.94397735595703 78.46514892578125 41.46310043334961 72.36158752441406 40.50209045410156" stroke-width="1.707642912864685" fill="none" stroke="rgb(57, 38, 251)" stroke-opacity="0.759716" stroke-linecap="round" stroke-linejoin="round"/>
    <path d="M 88.13928985595703 50.359535217285156 C 80.36384582519531 52.17304611206055 88.76827239990234 52.81510543823242 84.56566619873047 49.17085266113281 C 79.45266723632812 50.36869430541992 73.73981475830078 49.40378952026367 74.48860931396484 45.406681060791016 C 81.24833679199219 43.550621032714844 81.3392562866211 48.821266174316406 83.55599975585938 44.80974197387695" stroke-width="1.2826950550079346" fill="none" stroke="rgb(69, 147, 30)" stroke-opacity="0.6064097" stroke-linecap="round" stroke-linejoin="round"/>
    <path d="M 59.503665924072266 36.730018615722656 C 56.64628601074219 41.72810363769531 60.65631866455078 42.04290771484375 57.5609245300293 47.33776092529297 C 51.76222610473633 50.0282096862793 49.85917282104492 45.56401443481445 54.5462532043457 47.870452880859375 C 60.752689361572266 43.52345275878906 56.05915069580078 50.61499786376953 54.82582473754883 53.782352447509766" stroke-width="1.3519564867019653" fill="none" stroke="rgb(170, 217, 232)" stroke-opacity="0.58548665" stroke-linecap="round" stroke-linejoin="round"/>
    <path d="M 54.531471252441406 3.178224802017212 C 51.38939666748047 3.0576183795928955 51.7396125793457 0.3794345557689667 54.036216735839844 -3.255009889602661 C 53.78485870361328 1.4700665473937988 56.13378143310547 4.7807464599609375 62.78704833984375 0.11769089847803116 C 56.04936218261719 1.2380342483520508 50.531707763671875 4.071008205413818 51.00118637084961 0.28564321994781494" stroke-width="1.5830920934677124" fill="none" stroke="rgb(146, 108, 255)" stroke-opacity="0.69922036" stroke-linecap="round" stroke-linejoin="round"/>
    <path d="M 33.440338134765625 34.1003303527832 C 33.18571090698242 27.27710723876953 34.58347702026367 21.685617446899414 38.1126823425293 27.96498680114746 C 40.03302764892578 29.906539916992188 43.802154541015625 34.86040496826172 41.74283981323242 40.82013702392578" stroke-width="1.177858591079712" fill="none" stroke="rgb(94, 142, 246)" stroke-opacity="0.705918" stroke-linecap="round" stroke-linejoin="round"/>
    <path d="M 17.35005760192871 83.05262756347656 C 17.81609535217285 74.95484161376953 19.003393173217773 74.82085418701172 18.257640838623047 69.33505249023438 C 24.805681228637695 72.17953491210938 23.61418342590332 75.39618682861328 27.5075740814209 77.02606964111328" stroke-width="1.4783259630203247" fill="none" stroke="rgb(42, 239, 131)" stroke-opacity="0.31506371" stroke-linecap="round" stroke-linejoin="round"/>
    <path d="M 91.63995361328125 75.60690307617188 C 90.1916732788086 71.49903869628906 95.36626434326172 64.61219024658203 92.81321716308594 58.30094528198242" stroke-width="1.1741070747375488" fill="none" stroke="rgb(162, 241, 62)" stroke-opacity="0.85502046" stroke-linecap="round" stroke-linejoin="round"/>
    <path d="M 121.44532012939453 42.652679443359375 C 121.13690948486328 38.87600326538086 117.80896759033203 44.555484771728516 122.6885986328125 53.100528717041016 C 124.89082336425781 53.1605224609375 122.22578430175781 53.618797302246094 114.48931884765625 57.475372314453125" stroke-width="1.1741070747375488" fill="none" stroke="rgb(172, 161, 45)" stroke-opacity="0.8224646" stroke-linecap="round" stroke-linejoin="round"/>
    <path d="M 76.92093658447266 123.77796173095703 C 70.5184555053711 126.96540832519531 67.3946304321289 127.34507751464844 71.09549713134766 120.73333740234375" stroke-width="1.1741070747375488" fill="none" stroke="rgb(48, 54, 122)" stroke-opacity="0.40032804" stroke-linecap="round" stroke-linejoin="round"/>
    <path d="M 113.76316833496094 103.2149658203125 C 111.49563598632812 100.35665130615234 117.1558837890625 95.6386489868164 112.08675384521484 89.65272521972656 C 111.2603759765625 94.66739654541016 116.29303741455078 89.96471405029297 120.8607177734375 90.99066162109375" stroke-width="1.1937172412872314" fill="none" stroke="rgb(210, 158, 164)" stroke-opacity="0.5080966" stroke-linecap="round" stroke-linejoin="round"/>
    <path d="M 15.737071990966797 96.19430541992188 C 16.873043060302734 90.34879302978516 14.881120681762695 85.57288360595703 13.158802032470703 91.15406799316406 C 13.822455406188965 84.71516418457031 10.499102592468262 87.5722427368164 13.111432075500488 90.00273895263672 C 10.336291313171387 97.12566375732422 11.182230949401855 101.0712661743164 16.937299728393555 98.85649108886719" stroke-width="1.1741070747375488" fill="none" stroke="rgb(66, 88, 255)" stroke-opacity="0.032852627" stroke-linecap="round" stroke-linejoin="round"/>
    <path d="M 99.20697021484375 38.52762985229492 C 97.50326538085938 42.04023361206055 98.2815933227539 46.92566680908203 101.15116882324219 43.04814147949219" stroke-width="1.3917293548583984" fill="none" stroke="rgb(7, 3, 68)" stroke-opacity="0.35302725" stroke-linecap="round" stroke-linejoin="round"/>
    <path d="M 49.378631591796875 27.741844177246094 C 53.553993225097656 27.155946731567383 61.03302764892578 31.382349014282227 55.0788459777832 35.21883773803711" stroke-width="1.1741070747375488" fill="none" stroke="rgb(25, 4, 187)" stroke-opacity="0.15031815" stroke-linecap="round" stroke-linejoin="round"/>
    <path d="M 12.694310188293457 4.112518787384033 C 18.331918716430664 -1.3492246866226196 17.129125595092773 -2.6632308959960938 14.955278396606445 -2.382260799407959" stroke-width="1.4271750450134277" fill="none" stroke="rgb(62, 223, 113)" stroke-opacity="0.10339961" stroke-linecap="round" stroke-linejoin="round"/>
    <path d="M 111.02084350585938 60.87550354003906 C 110.7197265625 62.416561126708984 109.73512268066406 60.135581970214844 115.0783920288086 57.98399353027344" stroke-width="1.1741070747375488" fill="none" stroke="rgb(135, 229, 184)" stroke-opacity="0.17345451" stroke-linecap="round" stroke-linejoin="round"/>
    <path d="M 115.71397399902344 37.9666748046875 C 115.421142578125 41.59624099731445 115.18253326416016 41.41958999633789 115.19405364990234 34.306678771972656 C 113.11251068115234 28.465513229370117 106.73106384277344 33.46221923828125 106.21057891845703 37.869781494140625" stroke-width="1.1741070747375488" fill="none" stroke="rgb(101, 23, 189)" stroke-opacity="0.036390793" stroke-linecap="round" stroke-linejoin="round"/>
    <path d="M 36.67850112915039 70.533203125 C 34.9462776184082 73.69617462158203 34.351173400878906 76.1091537475586 31.67352867126465 70.27729797363281" stroke-width="1.1741070747375488" fill="none" stroke="rgb(94, 125, 123)" stroke-opacity="0.81312305" stroke-linecap="round" stroke-linejoin="round"/>
    <path d="M 31.97854232788086 68.77851867675781 C 31.809213638305664 63.63902282714844 28.57011604309082 68.82493591308594 34.38695526123047 73.62731170654297 C 39.5728759765625 69.82132720947266 41.64921188354492 71.49649047851562 38.18899917602539 64.39765930175781 C 35.63874816894531 62.6764030456543 40.575469970703125 65.00238800048828 44.879451751708984 70.23625183105469" stroke-width="1.6202598810195923" fill="none" stroke="rgb(145, 167, 121)" stroke-opacity="0.46802023" stroke-linecap="round" stroke-linejoin="round"/>
    <path d="M 16.64942741394043 26.23927879333496 C 22.17641830444336 27.376449584960938 18.337522506713867 25.452239990234375 19.5357666015625 31.334856033325195 C 15.946800231933594 26.375280380249023 16.938514709472656 26.472280502319336 16.124980926513672 19.85310173034668 C 19.165998458862305 19.356307983398438 19.033000946044922 24.439510345458984 24.53814697265625 25.78978157043457" stroke-width="1.700477957725525" fill="none" stroke="rgb(36, 193, 135)" stroke-opacity="0.78347003" stroke-linecap="round" stroke-linejoin="round"/>
  </g>
</svg>
