<?xml version="1.0" ?>
<svg xmlns="http://www.w3.org/2000/svg" version="1.1" width="1104.0" height="1104.0">
  <defs/>
  <g>
    <path d="M 450.4085693359375 676.64453125 C 495.1615295410156 760.5144653320312 502.3465881347656 753.8580932617188 503.5162353515625 776.4273681640625 C 502.18499755859375 799.1727294921875 595.5853881835938 790.889892578125 610.185546875 787.93994140625 C 624.5645141601562 784.2891235351562 620.3792114257812 773.8154907226562 622.5900268554688 767.5597534179688 C 622.1967163085938 758.6943969726562 665.3309326171875 702.4751586914062 670.63818359375 689.5597534179688" stroke-width="24.52536392211914" fill="none" stroke="rgb(91, 90, 85)" stroke-opacity="1.0" stroke-linecap="round" stroke-linejoin="round"/>
    <path d="M 656.0223999023438 356.0621337890625 C 742.09130859375 361.2005310058594 757.3483276367188 339.8387451171875 757.2205810546875 377.8299560546875 C 759.5364990234375 405.42279052734375 666.97119140625 375.27545166015625 671.0372924804688 405.66656494140625 C 674.669921875 437.7047424316406 763.7754516601562 382.505615234375 770.1776123046875 417.15081787109375 C 776.8506469726562 447.26751708984375 680.8739013671875 432.20599365234375 688.6011962890625 459.74127197265625 C 694.8800048828125 492.2504577636719 779.9199829101562 425.7561950683594 789.4895629882812 459.9935302734375 C 800.9878540039062 496.34796142578125 681.5833129882812 486.9552001953125 693.761962890625 521.1494140625 C 701.95703125 552.1854858398438 777.6098022460938 482.9236145019531 788.0736083984375 513.2123413085938 C 799.1036376953125 539.762939453125 717.8299560546875 533.2484130859375 726.3924560546875 556.9967041015625 C 733.74609375 582.8212280273438 801.9839477539062 517.9200439453125 814.6461791992188 545.5972290039062 C 830.4330444335938 593.8087768554688 644.2420654296875 602.3349609375 685.386474609375 634.43115234375 C 705.216796875 654.5693359375 810.6524658203125 616.1488647460938 825.9130859375 609.328369140625" stroke-width="20.353097915649414" fill="none" stroke="rgb(251, 242, 198)" stroke-opacity="1.0" stroke-linecap="round" stroke-linejoin="round"/>
    <path d="M 745.9606323242188 329.2776184082031 C 710.1885986328125 295.0012512207031 418.2948303222656 319.4119567871094 394.7425231933594 333.9913635253906 C 363.3745422363281 353.41986083984375 192.98272705078125 593.9114990234375 223.07949829101562 640.4058227539062 C 252.8020477294922 687.5336303710938 855.5955200195312 683.6685791015625 881.1920776367188 652.08056640625 C 905.1895751953125 620.6187744140625 775.3309936523438 336.42388916015625 763.25244140625 334.2887268066406" stroke-width="20.653921127319336" fill="none" stroke="rgb(231, 204, 68)" stroke-opacity="1.0" stroke-linecap="round" stroke-linejoin="round"/>
    <path d="M 771.5338745117188 326.65875244140625 C 763.8646850585938 286.85125732421875 711.83056640625 297.0272521972656 722.01171875 342.0453796386719" stroke-width="9.85714340209961" fill="none" stroke="rgb(55, 32, 215)" stroke-opacity="0.8158307" stroke-linecap="round" stroke-linejoin="round"/>
    <path d="M 750.9065551757812 321.6616516113281 C 786.001220703125 377.3200988769531 779.3648681640625 355.427734375 741.6881713867188 328.00152587890625 C 721.8421020507812 309.05712890625 705.467529296875 291.5009765625 736.3502197265625 281.1048583984375" stroke-width="9.85714340209961" fill="none" stroke="rgb(39, 74, 66)" stroke-opacity="0.5463206" stroke-linecap="round" stroke-linejoin="round"/>
    <path d="M 770.5192260742188 330.5462341308594 C 740.6622924804688 367.93096923828125 723.8279418945312 380.0002136230469 769.80615234375 342.94378662109375 C 729.9793090820312 311.935791015625 702.348388671875 335.8685302734375 720.5264282226562 345.6625061035156" stroke-width="9.85714340209961" fill="none" stroke="rgb(238, 115, 66)" stroke-opacity="0.32945815" stroke-linecap="round" stroke-linejoin="round"/>
    <path d="M 750.649658203125 333.9405517578125 C 778.7620239257812 337.01318359375 739.9549560546875 383.86053466796875 714.3222045898438 389.723876953125" stroke-width="9.85714340209961" fill="none" stroke="rgb(82, 160, 239)" stroke-opacity="0.21977812" stroke-linecap="round" stroke-linejoin="round"/>
    <path d="M 740.436279296875 328.60955810546875 C 689.2586059570312 363.4068298339844 703.3230590820312 364.26177978515625 704.0048217773438 400.7666931152344" stroke-width="10.23631477355957" fill="none" stroke="rgb(150, 202, 86)" stroke-opacity="0.7510739" stroke-linecap="round" stroke-linejoin="round"/>
    <path d="M 767.3184814453125 326.1925964355469 C 743.9373168945312 376.77813720703125 760.8143920898438 402.7190246582031 812.4193115234375 411.94219970703125 C 768.7606201171875 405.1473388671875 752.1497802734375 377.7540588378906 747.6858520507812 367.2349548339844" stroke-width="9.85714340209961" fill="none" stroke="rgb(230, 136, 33)" stroke-opacity="0.6224449" stroke-linecap="round" stroke-linejoin="round"/>
    <path d="M 750.39306640625 334.7683410644531 C 728.208251953125 298.7142639160156 717.36328125 289.1885681152344 685.7625732421875 303.336181640625 C 699.117919921875 288.5843811035156 751.5641479492188 311.59814453125 793.6145629882812 310.55206298828125" stroke-width="12.572455406188965" fill="none" stroke="rgb(140, 212, 184)" stroke-opacity="0.797638" stroke-linecap="round" stroke-linejoin="round"/>
    <path d="M 736.30078125 283.23272705078125 C 717.80224609375 309.2302551269531 678.0986938476562 324.78558349609375 646.0340576171875 294.45123291015625 C 630.245849609375 238.22943115234375 623.3345947265625 217.65753173828125 657.5126953125 217.80801391601562 C 684.3406982421875 228.1527099609375 645.3325805664062 248.59341430664062 606.193115234375 210.09254455566406" stroke-width="12.695332527160645" fill="none" stroke="rgb(184, 47, 68)" stroke-opacity="0.8732604" stroke-linecap="round" stroke-linejoin="round"/>
    <path d="M 794.0213012695312 309.5472412109375 C 842.2523803710938 340.6960144042969 798.9274291992188 325.3406677246094 799.752197265625 301.98492431640625 C 826.0091552734375 330.1960144042969 840.3900756835938 366.6668395996094 876.6862182617188 324.085693359375 C 863.2952880859375 328.49737548828125 828.0306396484375 369.2488098144531 841.4816284179688 387.0857238769531" stroke-width="9.85714340209961" fill="none" stroke="rgb(0, 81, 149)" stroke-opacity="0.2228252" stroke-linecap="round" stroke-linejoin="round"/>
    <path d="M 731.5262451171875 281.3351745605469 C 756.39404296875 279.50091552734375 732.814697265625 288.1220397949219 763.8432006835938 328.689453125 C 787.457763671875 348.0948791503906 739.8917846679688 318.06866455078125 795.3638916015625 334.94293212890625" stroke-width="9.85714340209961" fill="none" stroke="rgb(47, 162, 229)" stroke-opacity="0.498395" stroke-linecap="round" stroke-linejoin="round"/>
    <path d="M 704.7957763671875 397.9126281738281 C 752.0324096679688 430.3540344238281 801.9581298828125 426.4255065917969 772.3186645507812 391.7029113769531 C 752.9367065429688 367.521484375 710.5589599609375 362.5689392089844 718.7831420898438 358.650390625" stroke-width="9.85714340209961" fill="none" stroke="rgb(162, 181, 223)" stroke-opacity="0.44532248" stroke-linecap="round" stroke-linejoin="round"/>
    <path d="M 722.7728271484375 342.22918701171875 C 693.1047973632812 303.3734436035156 687.6920776367188 331.5490417480469 693.64111328125 289.2172546386719" stroke-width="9.85714340209961" fill="none" stroke="rgb(22, 37, 35)" stroke-opacity="0.4305196" stroke-linecap="round" stroke-linejoin="round"/>
    <path d="M 715.3497314453125 342.15228271484375 C 698.6387939453125 365.0340576171875 706.952880859375 416.4244079589844 705.579833984375 467.1766052246094" stroke-width="12.06821060180664" fill="none" stroke="rgb(190, 153, 22)" stroke-opacity="0.55244565" stroke-linecap="round" stroke-linejoin="round"/>
    <path d="M 704.5537109375 400.5084533691406 C 731.6429443359375 438.11798095703125 729.8148803710938 435.2420654296875 709.8040771484375 415.2556457519531" stroke-width="9.85714340209961" fill="none" stroke="rgb(13, 242, 221)" stroke-opacity="0.10552896" stroke-linecap="round" stroke-linejoin="round"/>
    <path d="M 807.76953125 308.6222229003906 C 791.1201171875 274.11871337890625 817.5691528320312 288.59600830078125 815.797607421875 285.5957336425781" stroke-width="9.85714340209961" fill="none" stroke="rgb(74, 45, 42)" stroke-opacity="0.12576954" stroke-linecap="round" stroke-linejoin="round"/>
    <path d="M 721.4777221679688 226.23548889160156 C 703.55517578125 259.6589660644531 737.5792846679688 296.9331359863281 714.58984375 348.7987976074219" stroke-width="11.98406982421875" fill="none" stroke="rgb(58, 255, 202)" stroke-opacity="0.8801753" stroke-linecap="round" stroke-linejoin="round"/>
    <path d="M 518.5938110351562 175.5435028076172 C 548.3701782226562 224.9477996826172 542.2984008789062 257.92120361328125 520.5294189453125 241.98374938964844" stroke-width="12.438363075256348" fill="none" stroke="rgb(50, 242, 193)" stroke-opacity="0.81451786" stroke-linecap="round" stroke-linejoin="round"/>
    <path d="M 571.1914672851562 328.1418151855469 C 587.0753784179688 333.35894775390625 578.822265625 323.8560485839844 561.9418334960938 334.6324157714844" stroke-width="9.85714340209961" fill="none" stroke="rgb(125, 145, 226)" stroke-opacity="0.51705587" stroke-linecap="round" stroke-linejoin="round"/>
    <path d="M 816.94775390625 251.84957885742188 C 862.8087158203125 254.56141662597656 815.64404296875 274.8852233886719 834.22998046875 255.81723022460938 C 790.3682861328125 258.8821716308594 825.8154907226562 232.36175537109375 772.03759765625 182.8870849609375 C 754.9320068359375 204.4433135986328 752.1880493164062 220.87620544433594 776.25048828125 231.399658203125" stroke-width="10.08021354675293" fill="none" stroke="rgb(223, 255, 249)" stroke-opacity="0.86308926" stroke-linecap="round" stroke-linejoin="round"/>
    <path d="M 664.69970703125 250.4142608642578 C 643.7339477539062 222.40562438964844 598.4837036132812 198.3577423095703 652.9183959960938 257.6987609863281 C 643.2450561523438 246.6855926513672 675.5812377929688 245.8497314453125 631.1138305664062 193.7369384765625" stroke-width="11.52793025970459" fill="none" stroke="rgb(15, 207, 97)" stroke-opacity="0.55214924" stroke-linecap="round" stroke-linejoin="round"/>
    <path d="M 771.4366455078125 249.04652404785156 C 789.6240844726562 189.3468780517578 754.1964111328125 199.764892578125 775.9716796875 221.11727905273438 C 768.0774536132812 172.6028594970703 799.4303588867188 126.00697326660156 792.1607666015625 122.8460693359375 C 812.4849853515625 167.39898681640625 873.0924072265625 203.31968688964844 823.005615234375 245.9361572265625" stroke-width="10.836487770080566" fill="none" stroke="rgb(223, 118, 39)" stroke-opacity="0.2256518" stroke-linecap="round" stroke-linejoin="round"/>
    <path d="M 580.0372314453125 190.5911407470703 C 597.6725463867188 136.78440856933594 571.7769165039062 165.358642578125 565.957763671875 189.21095275878906 C 556.0960083007812 155.31759643554688 561.1375122070312 145.51991271972656 565.8330688476562 192.56631469726562" stroke-width="9.85714340209961" fill="none" stroke="rgb(56, 40, 178)" stroke-opacity="0.64753157" stroke-linecap="round" stroke-linejoin="round"/>
    <path d="M 726.8359985351562 327.1019592285156 C 756.7195434570312 301.896728515625 747.633056640625 309.8883361816406 696.5066528320312 348.1092529296875" stroke-width="9.85714340209961" fill="none" stroke="rgb(21, 139, 233)" stroke-opacity="0.7519712" stroke-linecap="round" stroke-linejoin="round"/>
    <path d="M 684.4961547851562 277.7800598144531 C 719.60400390625 309.029052734375 761.3341064453125 278.5689697265625 737.0443725585938 268.19598388671875 C 722.1701049804688 276.7756652832031 717.7434692382812 300.10296630859375 690.690673828125 292.787841796875" stroke-width="11.762907028198242" fill="none" stroke="rgb(255, 212, 92)" stroke-opacity="0.51170534" stroke-linecap="round" stroke-linejoin="round"/>
    <path d="M 638.0432739257812 296.75927734375 C 634.8460693359375 265.2804260253906 598.7978515625 297.4766540527344 554.551513671875 260.119873046875" stroke-width="9.882519721984863" fill="none" stroke="rgb(202, 200, 117)" stroke-opacity="0.13122241" stroke-linecap="round" stroke-linejoin="round"/>
    <path d="M 553.217529296875 216.3708953857422 C 522.2720947265625 257.7392272949219 508.4762878417969 233.6933135986328 476.7798767089844 285.6873474121094" stroke-width="9.85714340209961" fill="none" stroke="rgb(220, 89, 122)" stroke-opacity="0.34850618" stroke-linecap="round" stroke-linejoin="round"/>
    <path d="M 704.7476196289062 182.36026000976562 C 652.0176391601562 147.82716369628906 705.29248046875 165.8038787841797 737.6871948242188 175.76324462890625 C 759.2854614257812 120.44815826416016 718.9330444335938 132.24215698242188 714.193359375 116.60427856445312 C 683.8856811523438 142.05792236328125 706.4133911132812 131.1781005859375 706.2647705078125 146.09881591796875" stroke-width="11.470369338989258" fill="none" stroke="rgb(177, 31, 66)" stroke-opacity="0.17633948" stroke-linecap="round" stroke-linejoin="round"/>
    <path d="M 775.0812377929688 217.036376953125 C 785.565673828125 180.58688354492188 733.9214477539062 183.62850952148438 698.3959350585938 163.46533203125" stroke-width="12.77582836151123" fill="none" stroke="rgb(228, 0, 16)" stroke-opacity="0.54669815" stroke-linecap="round" stroke-linejoin="round"/>
    <path d="M 657.5170288085938 217.2844696044922 C 645.0245361328125 230.24021911621094 660.504150390625 264.6281433105469 614.3085327148438 308.4923095703125 C 592.7250366210938 282.1134948730469 595.027587890625 294.6763916015625 640.0330810546875 320.812255859375" stroke-width="9.85714340209961" fill="none" stroke="rgb(89, 165, 253)" stroke-opacity="0.20997038" stroke-linecap="round" stroke-linejoin="round"/>
  </g>
</svg>
