<?xml version="1.0" ?>
<svg xmlns="http://www.w3.org/2000/svg" version="1.1" width="1182.99609" height="1182.99609">
  <defs/>
  <g>
    <path d="M 113.8839340209961 154.81736755371094 C 109.76966094970703 155.71499633789062 107.24557495117188 155.01882934570312 106.00316619873047 154.14414978027344 C 106.35094451904297 153.27301025390625 106.38667297363281 152.223388671875 108.34667205810547 147.45375061035156 C 110.30667114257812 142.68406677246094 114.1909408569336 134.19430541992188 116.79560852050781 128.0629119873047 C 122.58782958984375 125.11910247802734 127.10047912597656 124.53716278076172 131.75234985351562 122.6485824584961 C 136.40420532226562 120.75997924804688 141.1953125 117.5718765258789 147.54153442382812 113.35404968261719 C 155.48143005371094 110.72999572753906 166.57020568847656 108.67361450195312 171.13279724121094 106.16739654541016 C 175.69541931152344 105.25492858886719 173.72471618652344 102.30603790283203 183.72254943847656 109.95885467529297 C 192.12661743164062 119.20545196533203 210.89828491210938 140.65472412109375 216.75889587402344 156.20387268066406 C 224.2133026123047 170.15966796875 220.34329223632812 175.03509521484375 219.38648986816406 179.09423828125 C 218.42971801757812 183.15386962890625 220.37994384765625 184.8065643310547 222.51889038085938 186.04200744628906 C 223.06114196777344 188.87034606933594 222.19610595703125 189.6916046142578 221.2765350341797 186.7200469970703 C 218.76177978515625 185.3385009765625 217.78712463378906 181.75424194335938 224.0419464111328 176.34164428710938 C 230.29678344726562 170.92933654785156 243.78465270996094 163.6891326904297 257.2725830078125 156.44537353515625 C 272.3542175292969 150.7989501953125 315.5618591308594 107.53832244873047 360.35968017578125 65.87506103515625" stroke-width="3.1876046657562256" fill="none" stroke="rgb(29, 20, 17)" stroke-opacity="0.99" stroke-linecap="round" stroke-linejoin="round"/>
    <path d="M 245.908935546875 173.039306640625 C 246.08290100097656 172.0122528076172 246.52040100097656 170.97206115722656 248.6877899169922 171.17210388183594 C 247.93319702148438 172.98348999023438 249.4397735595703 174.45806884765625 249.17913818359375 176.9249725341797 C 250.5087127685547 179.39187622070312 246.88055419921875 181.2703094482422 247.29904174804688 186.05722045898438 C 246.12435913085938 192.4436798095703 244.2167205810547 198.57760620117188 245.03067016601562 207.79579162597656 C 247.44204711914062 215.42018127441406 249.3877410888672 227.72633361816406 249.1306915283203 232.2251434326172 C 248.8735809326172 238.31674194335938 246.41021728515625 235.0107879638672 244.63438415527344 239.01646423339844 C 244.45230102539062 243.01852416992188 246.5443878173828 254.33216857910156 245.5948028564453 257.5046691894531 C 246.2388916015625 259.086181640625 242.24746704101562 254.1237335205078 236.7066650390625 252.4850616455078 C 231.16583251953125 250.84640502929688 224.0755615234375 254.12525939941406 216.48194885253906 255.67825317382812 C 208.88795471191406 255.6374969482422 200.7910614013672 257.058349609375 191.63253784179688 255.37330627441406 C 185.6611328125 253.68463134765625 178.61065673828125 248.89004516601562 170.1132354736328 245.4698028564453 C 160.00479125976562 243.63983154296875 150.01202392578125 241.590576171875 146.13845825195312 237.06723022460938 C 143.85862731933594 232.5403289794922 146.10426330566406 225.54287719726562 145.267333984375 220.69456481933594 C 146.024169921875 215.8463592529297 145.28875732421875 213.1510009765625 143.9035186767578 211.16604614257812 C 144.11209106445312 207.5872802734375 142.07716369628906 206.31629943847656 139.3745880126953 203.9385986328125 C 136.66842651367188 201.56092834472656 131.70089721679688 198.07650756835938 137.64881896972656 196.32501220703125 C 143.59657287597656 191.38607788085938 160.4631805419922 189.7738800048828 171.2806854248047 184.7721710205078 C 182.09800720214844 179.77027893066406 186.86996459960938 171.37559509277344 196.73419189453125 172.06610107421875 C 206.59840393066406 171.1628875732422 219.96490478515625 176.15391540527344 228.74032592773438 176.3645477294922 C 239.1093292236328 176.57518005371094 243.29710388183594 172.00543212890625 246.2353057861328 171.97329711914062 C 249.16989135742188 170.34385681152344 250.85501098632812 174.8458709716797 251.12640380859375 179.35504150390625 C 251.39773559570312 183.86807250976562 250.25172424316406 188.37657165527344 252.07601928710938 191.27545166015625 C 252.30662536621094 195.7681121826172 257.1048583984375 197.0532989501953 255.49118041992188 195.6845245361328 C 255.47462463378906 197.5029754638672 247.45265197753906 196.67137145996094 239.94833374023438 201.09474182128906 C 232.44039916992188 205.51812744140625 225.44651794433594 215.19668579101562 215.7235565185547 219.07591247558594 C 209.19174194335938 226.14271545410156 199.93089294433594 227.41368103027344 184.80787658691406 230.95523071289062 C 169.68125915527344 234.4967803955078 148.68881225585938 240.3159942626953 135.90292358398438 240.53231811523438 C 124.71168518066406 242.345947265625 123.31926727294922 240.15390014648438 120.70973205566406 242.19036865234375 C 116.50422668457031 242.6330108642578 107.89181518554688 244.1167449951172 103.52194213867188 244.98069763183594 C 100.74559783935547 245.84828186035156 99.0214614868164 244.5023956298828 99.1500473022461 243.92901611328125 C 99.28213500976562 241.76190185546875 99.67334747314453 237.1764678955078 99.26276397705078 235.953369140625 C 98.85578155517578 233.13653564453125 96.05325317382812 230.49464416503906 97.60775756835938 227.9348907470703 C 97.56847381591797 225.37864685058594 100.29241943359375 222.90428161621094 102.6380386352539 219.83428955078125 C 103.39341735839844 215.17027282714844 105.3641357421875 211.50013732910156 108.35588073730469 208.00498962402344 C 111.34762573242188 204.50987243652344 115.35688018798828 201.1896514892578 118.0023422241211 197.25181579589844 C 122.24154663085938 194.90765380859375 123.51943969726562 188.7628936767578 127.7394790649414 189.2348175048828 C 131.95941162109375 186.52008056640625 139.12820434570312 188.8334503173828 142.423095703125 190.2151336669922 C 147.30950927734375 191.59674072265625 149.91920471191406 192.04298400878906 153.05731201171875 190.404296875 C 156.19544982910156 188.76564025878906 159.85838317871094 185.03843688964844 160.07342529296875 187.30685424804688 C 161.86627197265625 187.98162841796875 158.62103271484375 193.0619354248047 157.539306640625 194.8434295654297 C 156.4610595703125 196.6246795654297 157.5496063232422 195.10958862304688 160.3453826904297 193.64239501953125 C 163.14077758789062 193.76734924316406 167.64227294921875 195.53457641601562 165.74197387695312 196.27000427246094 C 165.43502807617188 197.00546264648438 160.3192596435547 198.29930114746094 156.69407653808594 198.18865966796875 C 154.65773010253906 198.07798767089844 152.52304077148438 198.1565399169922 148.04612731933594 198.20652770996094 C 143.5692138671875 198.2600555419922 136.75399780273438 196.6912841796875 128.423583984375 194.21017456054688 C 121.68672943115234 193.3190155029297 115.03211975097656 188.3243408203125 110.62290954589844 183.82603454589844 C 106.21736907958984 179.3277130126953 104.0574722290039 175.33273315429688 95.48204803466797 169.8776092529297 C 86.90660858154297 164.42605590820312 71.91212463378906 157.5214385986328 66.55489349365234 150.63671875 C 59.6038703918457 145.3458251953125 60.69632339477539 141.67576599121094 59.628868103027344 137.03102111816406 C 56.96403503417969 133.98007202148438 53.73308181762695 128.36785888671875 52.46926498413086 125.03336334228516 C 52.799232482910156 120.10514831542969 53.49897003173828 119.04839324951172 52.62785720825195 118.01659393310547 C 50.16081237792969 118.57492065429688 47.71031188964844 117.56111145019531 47.901031494140625 114.96411895751953 C 46.49797439575195 113.9609146118164 46.14096450805664 112.97201538085938 45.02557373046875 112.34365844726562 C 45.503971099853516 111.71533966064453 46.82133483886719 113.04490661621094 45.38614273071289 110.8600082397461 C 43.950958251953125 108.67867279052734 41.360572814941406 104.57660675048828 45.873207092285156 103.35052490234375 C 50.382266998291016 103.71825408935547 63.5881233215332 108.559326171875 69.6358871459961 111.87391662597656 C 74.09033203125 113.5947265625 72.97965240478516 112.19524383544922 76.7817611694336 109.94810485839844 C 80.58757781982422 110.88497161865234 89.30618286132812 110.97423553466797 93.6791763305664 108.79496002197266 C 98.0531234741211 108.213623046875 98.07778930664062 106.95663452148438 99.37347412109375 108.9000015258789 C 100.6694564819336 109.24629974365234 104.82882690429688 109.60564422607422 107.09000396728516 110.65499877929688 C 107.75618743896484 113.30196380615234 109.70901489257812 113.45547485351562 110.8692626953125 111.28334045410156 C 112.02600860595703 110.70503234863281 112.39018249511719 109.39482116699219 112.46874237060547 110.00184631347656 C 114.14073181152344 110.6091537475586 113.93375396728516 114.72633361816406 114.17525482177734 114.85139465332031 C 116.01026916503906 113.38258361816406 119.89098358154297 111.10127258300781 121.47250366210938 113.74821472167969 C 123.05406188964844 114.80137634277344 122.34002685546875 119.1817855834961 123.16268157958984 124.46570587158203 C 122.39509582519531 129.74940490722656 121.573974609375 135.93284606933594 121.20269012451172 140.25274658203125 C 120.83139038085938 144.57261657714844 120.9099349975586 147.02529907226562 119.51045227050781 149.80641174316406 C 116.51359558105469 150.99375915527344 113.63251495361328 154.1033477783203 114.54289245605469 160.12039184570312 C 115.45328521728516 164.5474395751953 121.75231170654297 170.2880096435547 119.57679748535156 170.97213745117188 C 118.99484252929688 173.24986267089844 113.1291732788086 172.0574493408203 111.20274353027344 173.72213745117188 C 107.68263244628906 173.79403686523438 106.50450134277344 175.1328125 106.17813110351562 178.1317138671875 C 107.44551849365234 181.130615234375 111.1620101928711 185.7896270751953 109.28057098388672 187.68179321289062 C 108.9961166381836 189.57394409179688 99.9318618774414 188.692138671875 96.51740264892578 187.9745330810547 C 93.10436248779297 187.2569580078125 93.75055694580078 186.7035675048828 89.65204620361328 185.55606079101562 C 85.55359649658203 186.0059051513672 76.71052551269531 189.05271911621094 75.60867309570312 184.35345458984375 C 72.91326904296875 182.83712768554688 76.36201477050781 175.1649627685547 77.03319549560547 172.8265380859375 C 76.11231231689453 170.48780822753906 74.00222778320312 173.47947692871094 73.18666076660156 172.5444793701172 C 72.37272644042969 171.60899353027344 74.44483184814453 165.15367126464844 73.57011413574219 165.43630981445312 C 72.69465637207031 164.1260528564453 70.4638442993164 166.37164306640625 69.07886505126953 166.46743774414062 C 67.69007873535156 164.97084045410156 65.55032348632812 162.91796875 68.76331329345703 162.60733032226562 C 71.97767639160156 162.29347229003906 78.94886779785156 163.7212371826172 85.8549575805664 162.89089965820312 C 91.16728210449219 160.46678161621094 94.81951141357422 154.19052124023438 100.84586334228516 154.16554260253906 C 106.86865997314453 152.5467529296875 115.26557159423828 158.76947021484375 120.49085998535156 159.1014862060547 C 128.90342712402344 161.0272216796875 134.14791870117188 155.46148681640625 137.79864501953125 148.3054656982422 C 143.0431671142578 144.3369903564453 147.9520721435547 147.7536163330078 152.8609619140625 151.1737823486328" stroke-width="4.164067268371582" fill="none" stroke="rgb(30, 17, 22)" stroke-opacity="1.0" stroke-linecap="round" stroke-linejoin="round"/>
    <path d="M 112.88320922851562 185.61691284179688 C 107.03106689453125 190.14804077148438 99.59262084960938 193.08692932128906 92.14895629882812 196.02513122558594 C 83.11325073242188 197.37030029296875 104.73960876464844 195.4813690185547 124.78597259521484 192.0015869140625" stroke-width="3.65104603767395" fill="none" stroke="rgb(119, 230, 174)" stroke-opacity="0.051340006" stroke-linecap="round" stroke-linejoin="round"/>
    <path d="M 196.62498474121094 174.12457275390625 C 203.22254943847656 174.74578857421875 203.52957153320312 193.1175994873047 215.80001831054688 197.2069091796875" stroke-width="3.9771780967712402" fill="none" stroke="rgb(206, 48, 75)" stroke-opacity="0.88696" stroke-linecap="round" stroke-linejoin="round"/>
    <path d="M 141.498779296875 154.59039306640625 C 150.04563903808594 138.5926971435547 161.30218505859375 133.748046875 151.36509704589844 143.76072692871094" stroke-width="3.997241258621216" fill="none" stroke="rgb(145, 64, 219)" stroke-opacity="0.80294" stroke-linecap="round" stroke-linejoin="round"/>
    <path d="M 150.2119598388672 185.7724609375 C 149.26963806152344 185.8107147216797 148.33062744140625 184.26138305664062 147.38807678222656 181.11585998535156 C 146.44798278808594 181.15554809570312 165.34169006347656 180.2415008544922 181.0546417236328 177.73060607910156" stroke-width="3.941025495529175" fill="none" stroke="rgb(151, 199, 58)" stroke-opacity="0.14695998" stroke-linecap="round" stroke-linejoin="round"/>
    <path d="M 48.893516540527344 104.09323120117188 C 53.16679763793945 111.52996063232422 55.84658432006836 120.56360626220703 60.120025634765625 128.0001220703125 C 64.3935317993164 135.4367218017578 42.010223388671875 135.47242736816406 18.033416748046875 135.50454711914062" stroke-width="3.1876046657562256" fill="none" stroke="rgb(232, 19, 113)" stroke-opacity="0.47755986" stroke-linecap="round" stroke-linejoin="round"/>
    <path d="M 228.97372436523438 182.5265655517578 C 221.11093139648438 188.75140380859375 214.8381805419922 196.5699005126953 210.16281127929688 205.9822235107422 C 203.8936767578125 213.80076599121094 190.31768798828125 214.8203887939453 179.92752075195312 217.43011474609375" stroke-width="4.241558074951172" fill="none" stroke="rgb(255, 0, 60)" stroke-opacity="0.57221" stroke-linecap="round" stroke-linejoin="round"/>
    <path d="M 255.78890991210938 197.4032440185547 C 256.6693115234375 189.6868133544922 259.14337158203125 183.56399536132812 263.2112121582031 179.0349578857422 C 265.6852722167969 172.91220092773438 263.3739013671875 164.77230834960938 262.6563415527344 156.63250732421875" stroke-width="3.1876046657562256" fill="none" stroke="rgb(30, 214, 103)" stroke-opacity="0.53727" stroke-linecap="round" stroke-linejoin="round"/>
    <path d="M 106.73149871826172 110.99779510498047 C 111.50263214111328 118.46651458740234 113.08271789550781 127.53243255615234 116.26010131835938 135.0011749267578 C 121.03125 140.8760986328125 126.41006469726562 136.2349395751953 133.385986328125 131.59376525878906" stroke-width="3.1876046657562256" fill="none" stroke="rgb(247, 119, 243)" stroke-opacity="0.62857" stroke-linecap="round" stroke-linejoin="round"/>
    <path d="M 122.3807601928711 193.6759796142578 C 125.3760986328125 184.86856079101562 126.67912292480469 171.68768310546875 112.79501342773438 183.3441162109375" stroke-width="3.1876046657562256" fill="none" stroke="rgb(100, 88, 136)" stroke-opacity="0.40246" stroke-linecap="round" stroke-linejoin="round"/>
    <path d="M 136.74339294433594 129.72454833984375 C 128.3917694091797 141.0524444580078 118.16661071777344 133.5908966064453 107.10633087158203 145.03172302246094" stroke-width="3.1876046657562256" fill="none" stroke="rgb(80, 18, 184)" stroke-opacity="0.64773" stroke-linecap="round" stroke-linejoin="round"/>
    <path d="M 154.99949645996094 141.69004821777344 C 170.23822021484375 141.58651733398438 186.40013122558594 155.90269470214844 171.3505859375 156.5952911376953" stroke-width="3.3352794647216797" fill="none" stroke="rgb(78, 248, 20)" stroke-opacity="0.37484002" stroke-linecap="round" stroke-linejoin="round"/>
    <path d="M 16.36259651184082 132.0451202392578 C 7.075234413146973 128.99623107910156 11.07017993927002 134.7227020263672 16.1290340423584 141.30242919921875" stroke-width="3.705315351486206" fill="none" stroke="rgb(232, 232, 200)" stroke-opacity="0.65474004" stroke-linecap="round" stroke-linejoin="round"/>
    <path d="M 175.23635864257812 176.7093505859375 C 167.3020782470703 173.30496215820312 160.96156311035156 168.30320739746094 154.62103271484375 163.30506896972656 C 149.874267578125 158.306884765625 145.46875 168.77804565429688 139.4694366455078 177.65896606445312" stroke-width="3.1876046657562256" fill="none" stroke="rgb(3, 119, 135)" stroke-opacity="0.73417" stroke-linecap="round" stroke-linejoin="round"/>
    <path d="M 182.06932067871094 179.6511688232422 C 177.548828125 177.42062377929688 174.62696838378906 173.59030151367188 172.8756866455078 172.1764678955078 C 171.13377380371094 170.7589569091797 172.14920043945312 171.7439422607422 169.98709106445312 171.14010620117188 C 171.0084991455078 172.12921142578125 166.37069702148438 168.4701385498047 161.7303924560547 164.81015014648438" stroke-width="3.1876046657562256" fill="none" stroke="rgb(235, 15, 190)" stroke-opacity="0.048050024" stroke-linecap="round" stroke-linejoin="round"/>
    <path d="M 177.34632873535156 221.38368225097656 C 178.58827209472656 219.7758026123047 179.83071899414062 219.76531982421875 178.09605407714844 223.29013061523438 C 174.76722717285156 223.63140869140625 171.64834594726562 229.10223388671875 166.93585205078125 232.9829864501953 C 160.62974548339844 235.27008056640625 158.22457885742188 239.06639099121094 154.22979736328125 241.27279663085938" stroke-width="3.1876046657562256" fill="none" stroke="rgb(47, 154, 227)" stroke-opacity="0.24595001" stroke-linecap="round" stroke-linejoin="round"/>
    <path d="M 20.216903686523438 129.6767578125 C 16.05194854736328 145.1294403076172 10.296878814697266 158.98854064941406 4.538203716278076 172.8475341796875 C -2.811424732208252 185.12265014648438 -0.16477155685424805 161.20620727539062 2.4841108322143555 138.8871307373047" stroke-width="3.1876046657562256" fill="none" stroke="rgb(126, 90, 162)" stroke-opacity="0.02424999" stroke-linecap="round" stroke-linejoin="round"/>
    <path d="M 124.10160064697266 32.974308013916016 C 124.56928253173828 18.929384231567383 123.44678497314453 4.880975723266602 117.95236206054688 0.05783303827047348 C 112.45809173583984 -6.35908842086792 101.00151824951172 -1.9607306718826294 91.13505554199219 4.03137731552124 C 79.67860412597656 8.429737091064453 75.5622787475586 17.205135345458984 69.85572814941406 25.980472564697266" stroke-width="3.1876046657562256" fill="none" stroke="rgb(148, 123, 175)" stroke-opacity="0.44013" stroke-linecap="round" stroke-linejoin="round"/>
    <path d="M 165.50840759277344 262.8647766113281 C 167.6826934814453 258.3627014160156 168.68202209472656 271.3721008300781 180.05189514160156 272.2863464355469" stroke-width="3.1876046657562256" fill="none" stroke="rgb(101, 47, 213)" stroke-opacity="0.02366991" stroke-linecap="round" stroke-linejoin="round"/>
    <path d="M 191.5468292236328 137.945068359375 C 189.9653778076172 145.111083984375 188.3836669921875 152.275634765625 186.80564880371094 159.4407196044922 C 185.22413635253906 166.60601806640625 192.46926879882812 171.15786743164062 196.52713012695312 175.709716796875" stroke-width="3.6254866123199463" fill="none" stroke="rgb(70, 76, 207)" stroke-opacity="0.15274999" stroke-linecap="round" stroke-linejoin="round"/>
    <path d="M 74.81966400146484 135.4923095703125 C 59.86090087890625 120.50497436523438 46.97980499267578 132.8183135986328 64.06499481201172 117.61674499511719" stroke-width="3.1876046657562256" fill="none" stroke="rgb(191, 186, 213)" stroke-opacity="0.65972" stroke-linecap="round" stroke-linejoin="round"/>
    <path d="M 314.9886169433594 53.61321258544922 C 304.98162841796875 57.04765701293945 294.9709777832031 60.482112884521484 291.1473693847656 65.18038177490234 C 287.3237609863281 68.28520202636719 289.6800842285156 74.25060272216797 290.4461364746094 81.80998229980469 C 292.80596923828125 87.7756576538086 300.46746826171875 89.18582916259766 309.72271728515625 89.00226593017578" stroke-width="4.88020658493042" fill="none" stroke="rgb(79, 57, 255)" stroke-opacity="0.90223" stroke-linecap="round" stroke-linejoin="round"/>
    <path d="M 312.80718994140625 331.64166259765625 C 311.63232421875 323.95733642578125 308.86505126953125 319.4476318359375 309.28167724609375 311.7635498046875 C 308.1087341308594 307.2627258300781 297.3588562011719 307.7769775390625 285.012451171875 306.69732666015625" stroke-width="3.1876046657562256" fill="none" stroke="rgb(131, 240, 42)" stroke-opacity="0.07119" stroke-linecap="round" stroke-linejoin="round"/>
    <path d="M 329.73321533203125 292.9502868652344 C 336.03448486328125 274.39996337890625 340.74566650390625 255.85304260253906 339.0354309082031 246.9299774169922 C 337.3254699707031 239.6005096435547 327.60406494140625 243.49192810058594 319.4762268066406 248.9735107421875 C 308.1622619628906 252.8647003173828 319.34283447265625 246.32667541503906 330.5242919921875 242.9793701171875" stroke-width="3.1876046657562256" fill="none" stroke="rgb(1, 168, 168)" stroke-opacity="0.9243906" stroke-linecap="round" stroke-linejoin="round"/>
    <path d="M 195.87167358398438 252.485107421875 C 198.41355895996094 252.58651733398438 200.9553680419922 251.0906524658203 196.1238555908203 251.00498962402344 C 192.88560485839844 249.3254852294922 183.86387634277344 250.64645385742188 174.84579467773438 253.56471252441406 C 165.82815551757812 253.2919464111328 171.39488220214844 261.5211486816406 173.77476501464844 271.3438415527344" stroke-width="3.1876046657562256" fill="none" stroke="rgb(151, 129, 99)" stroke-opacity="0.77769" stroke-linecap="round" stroke-linejoin="round"/>
    <path d="M 333.38751220703125 59.99506759643555 C 328.56787109375 39.22417449951172 344.031494140625 23.69412612915039 336.2201232910156 19.84552001953125" stroke-width="3.38901424407959" fill="none" stroke="rgb(170, 149, 49)" stroke-opacity="0.5942" stroke-linecap="round" stroke-linejoin="round"/>
    <path d="M 129.75668334960938 275.0839538574219 C 137.90716552734375 277.004638671875 146.0575714111328 278.92901611328125 154.20838928222656 280.84967041015625 C 162.35891723632812 284.3641357421875 151.91624450683594 284.3569641113281 141.4773406982422 282.7525329589844" stroke-width="4.768873691558838" fill="none" stroke="rgb(102, 67, 9)" stroke-opacity="0.51916003" stroke-linecap="round" stroke-linejoin="round"/>
    <path d="M 66.26927947998047 166.1004638671875 C 77.95276641845703 172.44454956054688 91.23013305664062 177.19134521484375 98.29322052001953 178.14093017578125 C 103.76249694824219 179.09068298339844 101.42778015136719 174.6422576904297 99.08935546875 170.1974334716797 C 95.1607894897461 167.34613037109375 100.73027801513672 164.72804260253906 107.89683532714844 163.70697021484375" stroke-width="3.7684662342071533" fill="none" stroke="rgb(228, 249, 211)" stroke-opacity="0.77301997" stroke-linecap="round" stroke-linejoin="round"/>
    <path d="M 332.849853515625 79.2095718383789 C 344.48016357421875 66.1822280883789 340.650146484375 62.94772720336914 349.01531982421875 79.93778991699219" stroke-width="3.1876046657562256" fill="none" stroke="rgb(38, 248, 146)" stroke-opacity="0.13498001" stroke-linecap="round" stroke-linejoin="round"/>
    <path d="M 347.5187683105469 360.40692138671875 C 358.8539123535156 360.8531799316406 370.192626953125 361.2994689941406 380.3281555175781 352.9239501953125 C 390.46728515625 344.5484619140625 399.40325927734375 327.3547668457031 408.3428649902344 310.15753173828125 C 417.2824401855469 292.96026611328125 422.9196472167969 302.5424499511719 428.5568542480469 312.12109375" stroke-width="3.1876046657562256" fill="none" stroke="rgb(149, 169, 230)" stroke-opacity="0.06424" stroke-linecap="round" stroke-linejoin="round"/>
    <path d="M 96.80447387695312 164.3898468017578 C 92.75094604492188 167.79844665527344 90.29109191894531 172.8000946044922 87.83126831054688 177.8018035888672 C 86.96521759033203 184.3972625732422 88.0219955444336 182.5658416748047 89.07518768310547 180.73793029785156" stroke-width="4.551056385040283" fill="none" stroke="rgb(170, 54, 27)" stroke-opacity="0.73307" stroke-linecap="round" stroke-linejoin="round"/>
    <path d="M 102.20606231689453 203.10678100585938 C 111.45979309082031 205.90220642089844 120.71710205078125 208.69757080078125 129.97059631347656 213.08322143554688 C 139.224609375 214.2848663330078 137.557373046875 223.72781372070312 135.89010620117188 234.76434326171875" stroke-width="3.1876046657562256" fill="none" stroke="rgb(28, 189, 72)" stroke-opacity="0.49947" stroke-linecap="round" stroke-linejoin="round"/>
    <path d="M 157.70204162597656 100.0568618774414 C 166.48809814453125 85.71065521240234 153.94989013671875 68.14246368408203 143.48939514160156 52.181602478027344" stroke-width="3.1876046657562256" fill="none" stroke="rgb(218, 16, 183)" stroke-opacity="0.91473" stroke-linecap="round" stroke-linejoin="round"/>
    <path d="M 217.3173370361328 220.66954040527344 C 215.56488037109375 216.9803466796875 228.8514404296875 206.6522674560547 247.49647521972656 192.4638214111328" stroke-width="3.1876046657562256" fill="none" stroke="rgb(12, 191, 228)" stroke-opacity="0.31178617" stroke-linecap="round" stroke-linejoin="round"/>
    <path d="M 99.25210571289062 152.57174682617188 C 102.28649139404297 168.5308380126953 86.77084350585938 154.33773803710938 92.65135192871094 158.10301208496094 C 85.69853973388672 152.92698669433594 74.44283294677734 156.44972229003906 63.119632720947266 148.68931579589844 C 60.78266525268555 146.08889770507812 73.10995483398438 135.45008850097656 80.44102478027344 133.4647216796875" stroke-width="3.506364345550537" fill="none" stroke="rgb(134, 0, 198)" stroke-opacity="0.75995445" stroke-linecap="round" stroke-linejoin="round"/>
    <path d="M 96.69943237304688 179.73472595214844 C 106.43768310546875 191.04270935058594 93.59954833984375 191.2897186279297 98.71585845947266 190.4282684326172 C 106.73099517822266 188.2541046142578 123.01406860351562 176.1735382080078 114.75100708007812 185.33250427246094 C 133.3089141845703 193.78268432617188 126.51466369628906 193.7914581298828 125.7505111694336 185.235107421875" stroke-width="3.1876046657562256" fill="none" stroke="rgb(237, 95, 128)" stroke-opacity="0.78542" stroke-linecap="round" stroke-linejoin="round"/>
    <path d="M 329.73321533203125 292.9503173828125 C 337.8121643066406 277.56719970703125 336.89337158203125 282.9119567871094 345.5538635253906 281.56390380859375" stroke-width="3.1876046657562256" fill="none" stroke="rgb(228, 151, 91)" stroke-opacity="0.86489403" stroke-linecap="round" stroke-linejoin="round"/>
    <path d="M 69.85582733154297 24.386852264404297 C 59.42161178588867 34.27372741699219 70.44837188720703 46.42042922973633 85.52466583251953 47.49601745605469 C 73.8393783569336 46.82242965698242 85.69860076904297 55.61207962036133 100.14263153076172 63.40412902832031" stroke-width="3.1876046657562256" fill="none" stroke="rgb(2, 242, 145)" stroke-opacity="0.107861005" stroke-linecap="round" stroke-linejoin="round"/>
    <path d="M 52.62736511230469 119.61034393310547 C 40.077571868896484 126.4021987915039 41.439109802246094 115.77452087402344 60.0273551940918 130.91116333007812 C 73.5033187866211 121.07794189453125 71.6849136352539 116.55630493164062 67.61601257324219 122.39299774169922 C 70.80433654785156 105.18074035644531 79.48209381103516 114.49407196044922 96.2148666381836 113.45965576171875" stroke-width="3.506359577178955" fill="none" stroke="rgb(121, 109, 36)" stroke-opacity="0.123999484" stroke-linecap="round" stroke-linejoin="round"/>
    <path d="M 137.78079223632812 205.53237915039062 C 137.6974334716797 191.6696014404297 123.31745147705078 199.98162841796875 114.05419158935547 202.87689208984375 C 131.32740783691406 195.1114959716797 133.3079376220703 207.82752990722656 120.90234375 194.2503662109375 C 115.30464935302734 184.83151245117188 107.57281494140625 174.29261779785156 99.27680206298828 166.91297912597656" stroke-width="3.1876046657562256" fill="none" stroke="rgb(153, 233, 183)" stroke-opacity="0.91349065" stroke-linecap="round" stroke-linejoin="round"/>
    <path d="M 163.9176025390625 261.2711181640625 C 158.5827178955078 272.2573547363281 149.81069946289062 273.3200378417969 159.67245483398438 284.3819580078125 C 177.1180419921875 276.8495178222656 182.8262176513672 259.8027038574219 175.78660583496094 261.06134033203125" stroke-width="3.5063648223876953" fill="none" stroke="rgb(13, 11, 56)" stroke-opacity="0.9708245" stroke-linecap="round" stroke-linejoin="round"/>
    <path d="M 100.14258575439453 63.40412902832031 C 92.68586730957031 54.53271484375 108.55742645263672 40.57386779785156 122.66840362548828 27.714868545532227" stroke-width="3.506364345550537" fill="none" stroke="rgb(1, 133, 249)" stroke-opacity="0.48414874" stroke-linecap="round" stroke-linejoin="round"/>
    <path d="M 80.44102478027344 135.0585174560547 C 96.08447265625 123.20367431640625 104.07438659667969 137.0928955078125 106.70222473144531 138.43756103515625" stroke-width="3.506364345550537" fill="none" stroke="rgb(94, 164, 228)" stroke-opacity="0.54704124" stroke-linecap="round" stroke-linejoin="round"/>
    <path d="M 80.44102478027344 133.46473693847656 C 80.49895477294922 126.10627746582031 82.04688262939453 141.3981170654297 85.502685546875 140.87509155273438 C 78.19943237304688 138.58103942871094 95.10055541992188 143.51634216308594 100.59056854248047 142.5367889404297 C 85.6421127319336 144.827880859375 69.79305267333984 139.8152313232422 62.505924224853516 140.7000732421875" stroke-width="3.5063648223876953" fill="none" stroke="rgb(173, 64, 249)" stroke-opacity="0.79541504" stroke-linecap="round" stroke-linejoin="round"/>
    <path d="M 245.90274047851562 192.4638214111328 C 228.5513153076172 191.1139678955078 228.49429321289062 176.116455078125 228.64768981933594 174.15809631347656 C 211.5953826904297 167.35305786132812 208.28549194335938 175.9110870361328 217.0748748779297 172.24925231933594 C 224.82496643066406 173.5565185546875 220.74649047851562 177.939453125 215.30755615234375 169.9405059814453" stroke-width="3.1876046657562256" fill="none" stroke="rgb(250, 57, 51)" stroke-opacity="0.8170777" stroke-linecap="round" stroke-linejoin="round"/>
    <path d="M 245.90283203125 190.87008666992188 C 251.05555725097656 187.88694763183594 236.27813720703125 193.39739990234375 224.12867736816406 195.57102966308594 C 220.58580017089844 196.89068603515625 230.1005859375 210.5503692626953 221.56036376953125 206.49908447265625 C 234.90179443359375 193.62330627441406 243.6258087158203 182.66253662109375 238.21226501464844 201.90664672851562" stroke-width="3.1876046657562256" fill="none" stroke="rgb(73, 30, 33)" stroke-opacity="0.9946003" stroke-linecap="round" stroke-linejoin="round"/>
    <path d="M 94.62124633789062 113.45964050292969 C 97.0675048828125 115.43504333496094 92.16316223144531 105.06600952148438 110.59819793701172 95.49492645263672 C 121.68409729003906 94.82183074951172 139.31295776367188 82.71440124511719 148.417724609375 100.2767562866211" stroke-width="3.1876046657562256" fill="none" stroke="rgb(144, 42, 145)" stroke-opacity="0.8819408" stroke-linecap="round" stroke-linejoin="round"/>
    <path d="M 96.21491241455078 113.45965576171875 C 109.46219635009766 108.21600341796875 92.20704650878906 116.27881622314453 93.22027587890625 117.18362426757812 C 106.96867370605469 110.64773559570312 121.30857849121094 105.80345153808594 127.52403259277344 99.28273010253906 C 112.5208969116211 110.80216979980469 128.36688232421875 97.61591339111328 111.84365844726562 108.39485168457031" stroke-width="3.5063633918762207" fill="none" stroke="rgb(32, 31, 233)" stroke-opacity="0.41931525" stroke-linecap="round" stroke-linejoin="round"/>
    <path d="M 177.3803253173828 261.0613098144531 C 189.1958770751953 278.4118347167969 202.60423278808594 284.3789978027344 202.7628936767578 290.7476806640625" stroke-width="3.1876046657562256" fill="none" stroke="rgb(77, 154, 18)" stroke-opacity="0.17322098" stroke-linecap="round" stroke-linejoin="round"/>
    <path d="M 123.33393096923828 240.06732177734375 C 107.52413177490234 228.0025177001953 104.0723876953125 242.91448974609375 119.45884704589844 228.59149169921875 C 121.45415496826172 237.01144409179688 133.44003295898438 249.0816192626953 127.71685791015625 247.93495178222656 C 123.7500991821289 239.53530883789062 120.68795776367188 236.86451721191406 130.6492462158203 253.4246826171875" stroke-width="3.1876046657562256" fill="none" stroke="rgb(181, 139, 7)" stroke-opacity="0.19593653" stroke-linecap="round" stroke-linejoin="round"/>
    <path d="M 327.24713134765625 89.01667785644531 C 333.8229064941406 85.80339050292969 347.2525329589844 94.17855072021484 356.8418884277344 96.8385238647461" stroke-width="3.1876046657562256" fill="none" stroke="rgb(202, 80, 205)" stroke-opacity="0.6891131" stroke-linecap="round" stroke-linejoin="round"/>
    <path d="M 96.30367279052734 95.12260437011719 C 88.5452651977539 83.52930450439453 101.83889770507812 97.00267791748047 91.19674682617188 105.50091552734375" stroke-width="3.1876046657562256" fill="none" stroke="rgb(126, 25, 149)" stroke-opacity="0.77944297" stroke-linecap="round" stroke-linejoin="round"/>
    <path d="M 277.9082946777344 262.39935302734375 C 287.6634216308594 249.74884033203125 284.7035217285156 232.09356689453125 284.25494384765625 216.01597595214844" stroke-width="3.5063648223876953" fill="none" stroke="rgb(46, 2, 253)" stroke-opacity="0.46779042" stroke-linecap="round" stroke-linejoin="round"/>
    <path d="M 98.77774810791016 229.4384002685547 C 81.04786682128906 242.65451049804688 63.21476745605469 257.11212158203125 53.13085174560547 264.729736328125 C 41.70363235473633 282.8279724121094 28.91621208190918 268.6117858886719 24.815109252929688 265.3890380859375 C 17.27130889892578 264.22442626953125 17.53976058959961 280.4500427246094 21.817075729370117 290.30999755859375" stroke-width="3.5063648223876953" fill="none" stroke="rgb(220, 231, 13)" stroke-opacity="0.44676027" stroke-linecap="round" stroke-linejoin="round"/>
    <path d="M 117.1452407836914 350.0713195800781 C 111.86511993408203 349.4243469238281 120.78827667236328 365.1616516113281 136.1911163330078 351.643310546875" stroke-width="3.1876046657562256" fill="none" stroke="rgb(138, 210, 118)" stroke-opacity="0.44309413" stroke-linecap="round" stroke-linejoin="round"/>
    <path d="M 53.26509094238281 337.03216552734375 C 67.50660705566406 324.19525146484375 68.135009765625 313.30450439453125 65.36091613769531 296.01239013671875 C 83.1694564819336 305.43072509765625 77.95075988769531 315.9484558105469 74.68559265136719 299.86077880859375" stroke-width="3.1876046657562256" fill="none" stroke="rgb(17, 218, 73)" stroke-opacity="0.20938727" stroke-linecap="round" stroke-linejoin="round"/>
    <path d="M 239.47850036621094 155.3308563232422 C 236.6067352294922 170.96176147460938 238.3963623046875 156.63323974609375 237.06968688964844 172.56234741210938 C 228.0420379638672 188.25816345214844 216.56674194335938 187.9113006591797 231.70213317871094 195.86756896972656" stroke-width="3.1876046657562256" fill="none" stroke="rgb(94, 128, 140)" stroke-opacity="0.4525553" stroke-linecap="round" stroke-linejoin="round"/>
    <path d="M 162.21192932128906 258.8719482421875 C 161.5490264892578 252.884033203125 144.43589782714844 252.32070922851562 159.4664306640625 250.19134521484375" stroke-width="3.1876046657562256" fill="none" stroke="rgb(50, 120, 147)" stroke-opacity="0.940596" stroke-linecap="round" stroke-linejoin="round"/>
    <path d="M 302.99981689453125 133.212890625 C 308.4239807128906 126.30968475341797 312.3658752441406 120.99019622802734 312.2687072753906 105.82048797607422 C 302.8325500488281 115.94766998291016 312.7140197753906 103.75125122070312 312.9936218261719 113.00605010986328 C 296.6195983886719 113.09859466552734 303.2617492675781 111.51740264892578 291.218994140625 123.1561508178711" stroke-width="3.5063648223876953" fill="none" stroke="rgb(239, 93, 221)" stroke-opacity="0.49017465" stroke-linecap="round" stroke-linejoin="round"/>
    <path d="M 98.53326416015625 32.859100341796875 C 92.17059326171875 23.56137466430664 94.55378723144531 27.437131881713867 97.95094299316406 35.28339767456055 C 98.81239318847656 44.604286193847656 110.25531768798828 55.37438201904297 97.99810791015625 62.507080078125 C 93.26426696777344 61.229122161865234 99.14373016357422 61.69445037841797 84.07991027832031 63.88767623901367" stroke-width="3.1876046657562256" fill="none" stroke="rgb(177, 142, 61)" stroke-opacity="0.9759448" stroke-linecap="round" stroke-linejoin="round"/>
    <path d="M 130.05723571777344 146.23464965820312 C 114.47737884521484 132.05123901367188 110.04511260986328 146.5586395263672 97.86174011230469 159.0690460205078 C 93.4396743774414 165.12823486328125 85.14490509033203 174.62281799316406 82.83448028564453 187.81845092773438 C 65.25501251220703 176.8818359375 66.03426361083984 174.89715576171875 56.69466018676758 187.9047393798828" stroke-width="3.1876046657562256" fill="none" stroke="rgb(173, 9, 63)" stroke-opacity="0.43484256" stroke-linecap="round" stroke-linejoin="round"/>
    <path d="M 163.00643920898438 279.8056640625 C 169.48170471191406 280.42242431640625 161.30470275878906 284.87762451171875 167.6002655029297 301.7340087890625 C 173.7933807373047 315.30755615234375 159.96437072753906 316.46319580078125 172.29345703125 302.3217468261719" stroke-width="3.1876046657562256" fill="none" stroke="rgb(127, 74, 132)" stroke-opacity="0.38495106" stroke-linecap="round" stroke-linejoin="round"/>
    <path d="M 114.21544647216797 301.0034484863281 C 111.56315612792969 292.9211120605469 101.628173828125 308.64984130859375 86.0985107421875 301.8531799316406 C 95.43089294433594 287.56072998046875 112.49220275878906 278.22381591796875 121.29750061035156 290.802734375" stroke-width="3.5063648223876953" fill="none" stroke="rgb(35, 224, 184)" stroke-opacity="0.4355765" stroke-linecap="round" stroke-linejoin="round"/>
    <path d="M 152.37525939941406 62.05223846435547 C 162.64515686035156 75.71393585205078 176.04652404785156 93.56463623046875 192.5991668701172 96.70942687988281 C 186.85694885253906 96.53514862060547 198.41734313964844 99.77655029296875 206.757080078125 92.40123748779297" stroke-width="3.506364107131958" fill="none" stroke="rgb(104, 106, 215)" stroke-opacity="0.17393492" stroke-linecap="round" stroke-linejoin="round"/>
    <path d="M 180.7355194091797 121.18309783935547 C 171.9275360107422 107.2590103149414 157.1730499267578 100.5949478149414 174.96705627441406 83.95365142822266 C 160.29966735839844 101.2847671508789 173.446044921875 113.34236145019531 176.88279724121094 124.08757781982422 C 164.4198455810547 122.41272735595703 157.19161987304688 110.76914978027344 167.47055053710938 97.35089874267578" stroke-width="3.1876046657562256" fill="none" stroke="rgb(136, 71, 16)" stroke-opacity="0.9525583" stroke-linecap="round" stroke-linejoin="round"/>
  </g>
</svg>
