<?xml version="1.0" ?>
<svg xmlns="http://www.w3.org/2000/svg" version="1.1" width="1104.0" height="1104.0">
  <defs/>
  <g>
    <path d="M 58.97368240356445 59.16524124145508 C 61.502235412597656 59.80706787109375 61.70759201049805 59.16086959838867 61.922733306884766 56.33425521850586 C 61.74563980102539 55.501220703125 61.22032165527344 56.136451721191406 62.637733459472656 57.31105422973633 C 63.356040954589844 54.64779281616211 63.909889221191406 52.211334228515625 64.82849884033203 50.595890045166016 C 66.67818450927734 47.30470275878906 69.03862762451172 46.720603942871094 69.04414367675781 43.37430953979492 C 70.05873107910156 42.709617614746094 69.77711486816406 41.683563232421875 68.20248413085938 40.43610763549805 C 67.38995361328125 39.4405517578125 66.44609832763672 39.42220687866211 68.01535034179688 41.29139709472656 C 65.74787139892578 41.698909759521484 63.99763107299805 40.73837661743164 63.81705093383789 41.06135559082031 C 63.01198196411133 42.23063659667969 61.283050537109375 42.012908935546875 59.90727615356445 42.17019271850586 C 50.86331558227539 44.78374099731445 34.959781646728516 42.63279724121094 30.178264617919922 48.96794509887695 C 26.208904266357422 58.30255126953125 28.238195419311523 67.63821411132812 30.28957748413086 77.07980346679688 C 29.966657638549805 79.37854766845703 31.164077758789062 82.66956329345703 31.656381607055664 86.21892547607422 C 31.34638023376465 87.03192138671875 31.575403213500977 88.20195007324219 32.26728057861328 88.91484832763672 C 32.29180145263672 88.6766357421875 32.84329605102539 89.30387878417969 33.54850769042969 89.31645202636719 C 32.35991668701172 90.21039581298828 31.656003952026367 89.894775390625 31.399765014648438 90.01611328125 C 28.39063835144043 88.9605941772461 26.375898361206055 88.16395568847656 23.354564666748047 87.17576599121094 C 20.155820846557617 83.00247192382812 20.546876907348633 73.97787475585938 18.77347183227539 67.25492095947266 C 19.057388305664062 64.36116790771484 16.296415328979492 61.44815444946289 16.494077682495117 63.102237701416016 C 20.243247985839844 61.861671447753906 23.682741165161133 62.592498779296875 23.332691192626953 61.68173599243164 C 22.53199577331543 62.04008483886719 24.707763671875 62.48753356933594 29.698091506958008 61.52495193481445" stroke-width="2.156975507736206" fill="none" stroke="rgb(27, 28, 5)" stroke-opacity="1.0" stroke-linecap="round" stroke-linejoin="round"/>
    <path d="M 46.749481201171875 24.224672317504883 C 46.65884017944336 24.09825897216797 45.6418571472168 22.60660743713379 45.592079162597656 22.69954490661621 C 44.80739212036133 20.139171600341797 44.659576416015625 17.157732009887695 44.78703308105469 16.201860427856445 C 44.628543853759766 16.517715454101562 44.2661018371582 14.688309669494629 45.58561706542969 14.661526679992676 C 48.5299186706543 13.987732887268066 49.52320861816406 13.517901420593262 48.09434127807617 18.120145797729492 C 50.34077453613281 20.826032638549805 54.561580657958984 23.816118240356445 59.75175857543945 24.878616333007812 C 61.908382415771484 25.46729850769043 64.64061737060547 26.98770523071289 62.98355484008789 29.862667083740234 C 62.89358901977539 30.757186889648438 58.4792594909668 31.1661434173584 57.84352111816406 30.705581665039062 C 53.288604736328125 30.371803283691406 46.37265396118164 31.573036193847656 38.8942756652832 31.33474349975586 C 38.76969909667969 31.746671676635742 38.3749885559082 31.232440948486328 36.70158386230469 30.56124496459961 C 34.99666976928711 31.889188766479492 33.60053253173828 31.361499786376953 34.50973892211914 31.84890365600586 C 34.18048095703125 32.04510498046875 34.434974670410156 33.3277473449707 34.10544204711914 31.10076904296875 C 33.493858337402344 32.78398895263672 33.341552734375 35.530616760253906 35.86853790283203 34.26905059814453 C 37.391048431396484 47.42028045654297 48.59896469116211 53.060611724853516 58.12063980102539 59.82138442993164 C 61.91670608520508 60.101985931396484 65.53810119628906 60.45213317871094 71.41349792480469 58.92427444458008 C 73.26029968261719 58.48398971557617 75.1756820678711 59.650611877441406 76.73629760742188 61.19266128540039" stroke-width="0.8995535969734192" fill="none" stroke="rgb(5, 38, 22)" stroke-opacity="0.89503217" stroke-linecap="round" stroke-linejoin="round"/>
    <path d="M 58.635963439941406 30.001136779785156 C 55.25791931152344 28.592832565307617 56.67092514038086 26.638221740722656 63.208431243896484 29.13934326171875 C 65.23722839355469 26.735366821289062 61.73188018798828 26.41293716430664 58.772159576416016 25.154123306274414 C 64.1221694946289 26.259946823120117 65.21735382080078 24.504911422729492 59.24026107788086 27.506725311279297" stroke-width="1.5939475297927856" fill="none" stroke="rgb(255, 34, 248)" stroke-opacity="1.0" stroke-linecap="round" stroke-linejoin="round"/>
    <path d="M 30.319198608398438 87.92904663085938 C 31.02309226989746 90.35553741455078 26.519968032836914 87.26953887939453 21.30190658569336 89.26251983642578 C 26.929689407348633 90.95008850097656 32.47527313232422 92.32543182373047 33.394657135009766 90.3806381225586 C 31.902633666992188 94.12754821777344 33.967628479003906 91.33050537109375 37.90361404418945 92.52809143066406" stroke-width="1.9536821842193604" fill="none" stroke="rgb(164, 17, 40)" stroke-opacity="0.524032" stroke-linecap="round" stroke-linejoin="round"/>
    <path d="M 63.179344177246094 56.19269561767578 C 57.46305847167969 52.695709228515625 62.61466598510742 59.25348663330078 58.52263641357422 59.058021545410156" stroke-width="1.5446547269821167" fill="none" stroke="rgb(139, 12, 1)" stroke-opacity="0.7158222" stroke-linecap="round" stroke-linejoin="round"/>
    <path d="M 45.53830337524414 22.629743576049805 C 42.73623275756836 22.73930549621582 40.28772735595703 22.24382781982422 43.565574645996094 27.349985122680664 C 46.47468185424805 31.205001831054688 51.046871185302734 36.22209167480469 48.7818717956543 37.13027572631836" stroke-width="0.8995535969734192" fill="none" stroke="rgb(152, 180, 70)" stroke-opacity="0.16553402" stroke-linecap="round" stroke-linejoin="round"/>
    <path d="M 60.09185791015625 55.66631317138672 C 59.620880126953125 60.02080535888672 55.58053970336914 55.64082336425781 61.86594772338867 51.40144729614258 C 63.992862701416016 54.4404411315918 62.62500762939453 52.41001892089844 56.18955993652344 56.37122344970703" stroke-width="2.1100311279296875" fill="none" stroke="rgb(255, 61, 75)" stroke-opacity="1.0" stroke-linecap="round" stroke-linejoin="round"/>
    <path d="M 45.02842712402344 22.087839126586914 C 44.26744079589844 23.942873001098633 44.82919692993164 26.121082305908203 50.981998443603516 26.573102951049805 C 51.941322326660156 24.07971954345703 55.581817626953125 25.412113189697266 61.649330139160156 27.62276840209961 C 62.7779655456543 27.659725189208984 65.50028991699219 25.19722557067871 64.73442840576172 25.429101943969727" stroke-width="0.8995535969734192" fill="none" stroke="rgb(105, 26, 85)" stroke-opacity="0.9323997" stroke-linecap="round" stroke-linejoin="round"/>
    <path d="M 29.259536743164062 79.88987731933594 C 25.267986297607422 79.49932861328125 21.51153564453125 77.4172134399414 24.396284103393555 78.3133316040039 C 28.961402893066406 78.86203002929688 31.992021560668945 75.57427215576172 29.366592407226562 77.75358581542969 C 32.939449310302734 76.1129379272461 36.07966232299805 72.07564544677734 36.52063751220703 68.36640930175781" stroke-width="0.8995535969734192" fill="none" stroke="rgb(230, 210, 224)" stroke-opacity="0.60228634" stroke-linecap="round" stroke-linejoin="round"/>
    <path d="M 64.14575958251953 59.75564193725586 C 66.54438018798828 53.813133239746094 68.68627166748047 53.183509826660156 73.3897933959961 52.1039924621582 C 75.37300109863281 52.433860778808594 72.3300552368164 51.13840866088867 73.50019073486328 55.255802154541016 C 70.17363739013672 51.452308654785156 72.92436981201172 45.31629180908203 75.37260437011719 48.07088851928711" stroke-width="0.8995535969734192" fill="none" stroke="rgb(179, 126, 142)" stroke-opacity="0.46180022" stroke-linecap="round" stroke-linejoin="round"/>
    <path d="M 59.48775863647461 28.651819229125977 C 59.97960662841797 27.84529685974121 60.84785461425781 32.235504150390625 61.3340950012207 35.755821228027344 C 61.66046905517578 39.04903793334961 61.275020599365234 40.00575256347656 62.28725814819336 41.320655822753906 C 67.5860366821289 41.32087707519531 66.21260833740234 44.17549514770508 66.18836975097656 49.49394226074219" stroke-width="0.9351680874824524" fill="none" stroke="rgb(76, 95, 49)" stroke-opacity="0.3791724" stroke-linecap="round" stroke-linejoin="round"/>
    <path d="M 57.655006408691406 57.8009033203125 C 53.93571472167969 55.714202880859375 56.66728973388672 57.95860290527344 63.09457015991211 56.83221435546875 C 58.79057312011719 53.34684371948242 61.41574478149414 50.54518127441406 65.36668395996094 53.72736358642578 C 67.27720642089844 57.10904312133789 62.97768783569336 55.090919494628906 62.85238265991211 58.88092803955078" stroke-width="0.8995535969734192" fill="none" stroke="rgb(255, 163, 114)" stroke-opacity="0.1529658" stroke-linecap="round" stroke-linejoin="round"/>
    <path d="M 33.926029205322266 90.42025756835938 C 33.005126953125 88.66354370117188 37.848289489746094 84.48590087890625 33.135719299316406 79.06027221679688" stroke-width="0.8995535969734192" fill="none" stroke="rgb(171, 235, 68)" stroke-opacity="0.24648096" stroke-linecap="round" stroke-linejoin="round"/>
    <path d="M 76.81625366210938 48.05314636230469 C 80.16597747802734 50.49076461791992 78.93212127685547 49.77198028564453 80.22344207763672 52.29454040527344 C 82.19451141357422 52.75162887573242 81.9426498413086 49.97037887573242 87.9129409790039 55.51460647583008" stroke-width="1.0849107503890991" fill="none" stroke="rgb(105, 209, 139)" stroke-opacity="0.7186344" stroke-linecap="round" stroke-linejoin="round"/>
    <path d="M 60.6110725402832 20.53782844543457 C 63.809818267822266 17.10517120361328 69.43052673339844 22.317556381225586 71.36775970458984 22.137056350708008 C 68.9262466430664 17.122026443481445 69.51133728027344 10.653046607971191 69.63943481445312 8.820030212402344" stroke-width="0.8995535969734192" fill="none" stroke="rgb(45, 26, 74)" stroke-opacity="0.37073514" stroke-linecap="round" stroke-linejoin="round"/>
    <path d="M 35.03868865966797 91.83378601074219 C 34.89150619506836 92.27061462402344 35.97023010253906 96.8814468383789 37.393768310546875 98.81756591796875 C 43.18053436279297 96.70481872558594 42.274261474609375 99.12705993652344 42.34754180908203 103.75646209716797" stroke-width="0.9994258880615234" fill="none" stroke="rgb(63, 244, 60)" stroke-opacity="0.13289393" stroke-linecap="round" stroke-linejoin="round"/>
    <path d="M 59.15922546386719 59.913726806640625 C 54.70939254760742 58.30387496948242 54.2342643737793 58.66466522216797 55.133914947509766 58.88774108886719 C 54.77791976928711 58.15302658081055 51.207763671875 56.636756896972656 49.53924560546875 57.69751739501953" stroke-width="0.8995535969734192" fill="none" stroke="rgb(105, 195, 178)" stroke-opacity="0.88434076" stroke-linecap="round" stroke-linejoin="round"/>
    <path d="M 36.93638229370117 68.2584228515625 C 32.962520599365234 69.75233459472656 36.69756317138672 65.15258026123047 34.05022430419922 63.969520568847656 C 38.46590805053711 62.06600570678711 43.11001205444336 65.39824676513672 44.0083122253418 65.45539855957031 C 41.12738800048828 62.52104568481445 39.63166427612305 58.58473205566406 35.68705749511719 58.003597259521484" stroke-width="0.8995535969734192" fill="none" stroke="rgb(24, 196, 117)" stroke-opacity="0.4498484" stroke-linecap="round" stroke-linejoin="round"/>
    <path d="M 69.77486419677734 91.48075866699219 C 65.29491424560547 89.10151672363281 63.9680061340332 91.54898071289062 59.45174026489258 87.47236633300781 C 61.96308135986328 87.35768127441406 56.450904846191406 82.59139251708984 56.046939849853516 82.23180389404297 C 54.411224365234375 81.38224029541016 55.34790802001953 79.07960510253906 57.23990249633789 76.7454605102539" stroke-width="0.8995535969734192" fill="none" stroke="rgb(51, 255, 62)" stroke-opacity="0.5667875" stroke-linecap="round" stroke-linejoin="round"/>
    <path d="M 4.402068138122559 7.656480312347412 C 8.675091743469238 4.162271976470947 7.638029098510742 2.6568918228149414 9.02740478515625 0.9767599701881409" stroke-width="0.8995535969734192" fill="none" stroke="rgb(94, 174, 184)" stroke-opacity="0.5361618" stroke-linecap="round" stroke-linejoin="round"/>
    <path d="M 62.65869140625 66.66636657714844 C 60.57426834106445 67.69821166992188 64.02106475830078 67.83596801757812 65.79878234863281 69.05818939208984" stroke-width="0.8995535969734192" fill="none" stroke="rgb(43, 154, 105)" stroke-opacity="0.4912901" stroke-linecap="round" stroke-linejoin="round"/>
    <path d="M 33.038150787353516 12.376580238342285 C 30.269344329833984 8.979208946228027 34.43654251098633 9.058749198913574 31.4338321685791 12.595478057861328 C 28.26321029663086 13.814476013183594 28.038497924804688 10.53609848022461 28.516685485839844 12.202193260192871" stroke-width="0.8995535969734192" fill="none" stroke="rgb(161, 175, 59)" stroke-opacity="0.08025129" stroke-linecap="round" stroke-linejoin="round"/>
    <path d="M 71.64942932128906 51.67213439941406 C 74.2662124633789 53.0561408996582 73.15628814697266 49.785850524902344 72.62469482421875 45.02024459838867 C 72.1230239868164 47.16872024536133 75.51351165771484 43.0917854309082 79.48812103271484 38.89734649658203 C 75.7009506225586 40.49913787841797 73.87268829345703 45.44038772583008 76.34966278076172 42.19142532348633" stroke-width="0.8995535969734192" fill="none" stroke="rgb(159, 62, 222)" stroke-opacity="0.2303962" stroke-linecap="round" stroke-linejoin="round"/>
    <path d="M 15.853157997131348 28.101490020751953 C 13.712646484375 31.185665130615234 14.254220008850098 30.077367782592773 19.18998908996582 25.29964828491211" stroke-width="0.8995535969734192" fill="none" stroke="rgb(32, 55, 94)" stroke-opacity="0.2713706" stroke-linecap="round" stroke-linejoin="round"/>
    <path d="M 21.79271125793457 4.42157506942749 C 21.547616958618164 6.4118475914001465 25.855188369750977 5.2013702392578125 20.480838775634766 6.372563362121582 C 20.791397094726562 5.991023063659668 21.05097007751465 9.277750968933105 20.467880249023438 6.463310718536377" stroke-width="0.8995535969734192" fill="none" stroke="rgb(46, 157, 186)" stroke-opacity="0.2898874" stroke-linecap="round" stroke-linejoin="round"/>
    <path d="M 94.5761489868164 22.832202911376953 C 90.12397766113281 25.767518997192383 92.828125 32.47821807861328 92.27680969238281 30.16298484802246 C 94.27487182617188 23.489253997802734 95.38087463378906 23.89386749267578 92.99381256103516 23.303329467773438 C 95.92569732666016 18.1577091217041 96.83960723876953 14.195690155029297 100.64612579345703 17.776018142700195" stroke-width="1.8217260837554932" fill="none" stroke="rgb(235, 3, 199)" stroke-opacity="0.1023682" stroke-linecap="round" stroke-linejoin="round"/>
    <path d="M 18.36040496826172 3.8328981399536133 C 25.355669021606445 8.27318286895752 29.10124397277832 8.761967658996582 27.783376693725586 7.723329067230225 C 33.78152084350586 3.7728164196014404 35.45180892944336 2.4406094551086426 35.13079833984375 8.304400444030762" stroke-width="1.0679088830947876" fill="none" stroke="rgb(76, 236, 155)" stroke-opacity="0.88434136" stroke-linecap="round" stroke-linejoin="round"/>
    <path d="M 63.047977447509766 50.70943832397461 C 59.12972640991211 52.609649658203125 55.88628005981445 51.65979766845703 57.49215316772461 46.97087097167969 C 53.88294219970703 46.58000183105469 53.89670181274414 45.81303405761719 56.76834487915039 43.90797424316406" stroke-width="0.8995535969734192" fill="none" stroke="rgb(77, 120, 165)" stroke-opacity="0.09250684" stroke-linecap="round" stroke-linejoin="round"/>
    <path d="M 25.676958084106445 84.31626892089844 C 25.75767707824707 88.90129852294922 31.120359420776367 88.57763671875 35.07533264160156 83.52802276611328 C 35.596031188964844 84.8896255493164 33.96707534790039 89.76935577392578 38.85350036621094 88.43900299072266" stroke-width="0.9087780714035034" fill="none" stroke="rgb(100, 125, 104)" stroke-opacity="0.4736585" stroke-linecap="round" stroke-linejoin="round"/>
    <path d="M 0.3585772216320038 14.33427906036377 C 4.813714027404785 15.63715934753418 5.089163780212402 10.967657089233398 9.209176063537598 13.113850593566895 C 6.266654014587402 20.57242202758789 2.1518688201904297 24.546911239624023 2.1418087482452393 18.885143280029297 C -0.49791818857192993 12.987671852111816 1.8004390001296997 15.925455093383789 0.08337268978357315 8.79722785949707" stroke-width="0.8995535969734192" fill="none" stroke="rgb(255, 23, 93)" stroke-opacity="0.057000455" stroke-linecap="round" stroke-linejoin="round"/>
    <path d="M 37.177242279052734 35.99142074584961 C 34.267982482910156 39.82339859008789 37.60308837890625 42.48225021362305 43.547035217285156 42.69206619262695 C 47.94093322753906 42.94205093383789 42.711483001708984 38.14705276489258 45.39516067504883 36.43471908569336 C 40.79227066040039 38.0175895690918 35.23628234863281 39.77580642700195 37.41253662109375 39.8349494934082" stroke-width="0.8995535969734192" fill="none" stroke="rgb(190, 233, 203)" stroke-opacity="0.1769068" stroke-linecap="round" stroke-linejoin="round"/>
    <path d="M 90.91522979736328 70.84310150146484 C 88.55872344970703 68.62381744384766 89.18110656738281 69.11585998535156 84.9051742553711 64.60989379882812 C 81.9852523803711 63.56269454956055 79.97633361816406 66.5996322631836 78.25942993164062 67.18267059326172" stroke-width="0.8995535969734192" fill="none" stroke="rgb(88, 183, 47)" stroke-opacity="0.45432478" stroke-linecap="round" stroke-linejoin="round"/>
    <path d="M 24.99614906311035 13.620237350463867 C 21.657466888427734 7.43699312210083 19.957048416137695 7.727360248565674 21.83522605895996 9.448354721069336 C 20.317554473876953 8.578390121459961 15.017434120178223 10.698400497436523 12.253706932067871 14.437520027160645" stroke-width="0.8995535969734192" fill="none" stroke="rgb(115, 251, 95)" stroke-opacity="0.48663306" stroke-linecap="round" stroke-linejoin="round"/>
    <path d="M 99.05767059326172 61.42339324951172 C 103.3526611328125 58.98392868041992 107.3982162475586 61.80904006958008 102.4740219116211 57.22361373901367 C 101.89368438720703 59.008975982666016 105.47491455078125 63.86862564086914 106.8609848022461 66.56539916992188 C 110.27751159667969 66.61517333984375 106.585693359375 64.83128356933594 105.11953735351562 69.85487365722656" stroke-width="0.8995535969734192" fill="none" stroke="rgb(58, 139, 11)" stroke-opacity="0.5053622" stroke-linecap="round" stroke-linejoin="round"/>
  </g>
</svg>
