<?xml version="1.0" ?>
<svg xmlns="http://www.w3.org/2000/svg" version="1.1" width="1104.0" height="1104.0">
  <defs/>
  <g>
    <path d="M 22.828842163085938 67.88641357421875 C 88.66191101074219 78.62240600585938 161.5931396484375 69.75958251953125 161.6517791748047 65.99722290039062 C 161.88917541503906 61.679561614990234 142.9703369140625 48.12022399902344 123.06517028808594 55.070743560791016" stroke-width="1.5848214626312256" fill="none" stroke="rgb(0, 9, 0)" stroke-opacity="0.9603591" stroke-linecap="round" stroke-linejoin="round"/>
    <path d="M 57.78691482543945 76.69197082519531 C 55.35678482055664 110.5472640991211 49.34038543701172 148.58352661132812 58.287601470947266 150.72129821777344 C 67.91676330566406 151.5377960205078 108.0477066040039 142.20745849609375 114.71406555175781 124.80619812011719 C 121.38736724853516 106.3532943725586 121.88418579101562 98.90621185302734 123.05774688720703 99.05915832519531" stroke-width="1.5848214626312256" fill="none" stroke="rgb(5, 10, 0)" stroke-opacity="0.9666053" stroke-linecap="round" stroke-linejoin="round"/>
    <path d="M 123.9216079711914 77.10350799560547 C 136.7062225341797 74.77381896972656 141.00721740722656 71.16204071044922 139.37562561035156 78.85895538330078 C 139.4695281982422 86.074462890625 136.93917846679688 89.25662231445312 132.4733123779297 98.4912338256836 C 127.21086883544922 107.99012756347656 134.9799346923828 110.97238159179688 125.95996856689453 109.09475708007812" stroke-width="1.5848214626312256" fill="none" stroke="rgb(9, 10, 0)" stroke-opacity="1.0" stroke-linecap="round" stroke-linejoin="round"/>
    <path d="M 72.54102325439453 88.85069274902344 C 70.05303955078125 97.7679443359375 64.0085678100586 114.21498107910156 65.82874298095703 116.4522933959961 C 63.95778274536133 115.69757080078125 75.0798568725586 115.90496063232422 75.54180908203125 114.26374816894531" stroke-width="1.8715293407440186" fill="none" stroke="rgb(0, 9, 0)" stroke-opacity="1.0" stroke-linecap="round" stroke-linejoin="round"/>
    <path d="M 60.69651412963867 87.4488296508789 C 69.91177368164062 85.83602905273438 63.87472152709961 86.61221313476562 71.67159271240234 88.76543426513672" stroke-width="1.5848214626312256" fill="none" stroke="rgb(0, 5, 0)" stroke-opacity="0.97656393" stroke-linecap="round" stroke-linejoin="round"/>
    <path d="M 87.62071228027344 91.6744384765625 C 92.74542236328125 90.84207153320312 86.04679107666016 92.42549133300781 93.92652893066406 91.43923950195312" stroke-width="1.5848214626312256" fill="none" stroke="rgb(8, 1, 0)" stroke-opacity="0.9754019" stroke-linecap="round" stroke-linejoin="round"/>
    <path d="M 68.57429504394531 128.1623077392578 C 83.38148498535156 128.8893280029297 84.50422668457031 125.49087524414062 85.35247802734375 124.73966217041016" stroke-width="1.8721691370010376" fill="none" stroke="rgb(0, 9, 0)" stroke-opacity="0.9754205" stroke-linecap="round" stroke-linejoin="round"/>
    <path d="M 95.6543960571289 92.23770904541016 C 97.6723861694336 90.26178741455078 97.42996978759766 87.72362518310547 94.16104888916016 95.37516784667969" stroke-width="1.5848214626312256" fill="none" stroke="rgb(75, 145, 51)" stroke-opacity="0.60706294" stroke-linecap="round" stroke-linejoin="round"/>
    <path d="M 93.94319915771484 92.59054565429688 C 86.46529388427734 84.04004669189453 89.95049285888672 86.5221939086914 85.16979217529297 77.91356658935547" stroke-width="1.9841396808624268" fill="none" stroke="rgb(124, 69, 203)" stroke-opacity="0.33664086" stroke-linecap="round" stroke-linejoin="round"/>
    <path d="M 62.94504165649414 115.29864501953125 C 64.27619934082031 116.37291717529297 70.3941879272461 122.40313720703125 61.87540817260742 115.89249420166016" stroke-width="2.087369441986084" fill="none" stroke="rgb(169, 11, 95)" stroke-opacity="0.6755921" stroke-linecap="round" stroke-linejoin="round"/>
    <path d="M 93.76065826416016 90.06710052490234 C 103.33982849121094 87.57676696777344 111.14981079101562 86.21614074707031 111.98550415039062 87.57508087158203 C 119.55598449707031 82.92465209960938 126.50617980957031 86.08323669433594 115.87734985351562 84.9783935546875" stroke-width="1.8511760234832764" fill="none" stroke="rgb(180, 170, 195)" stroke-opacity="0.45041165" stroke-linecap="round" stroke-linejoin="round"/>
    <path d="M 139.84986877441406 79.35655212402344 C 141.461181640625 74.78629302978516 139.9349365234375 73.94847869873047 137.64242553710938 78.48660278320312" stroke-width="1.6434417963027954" fill="none" stroke="rgb(179, 46, 36)" stroke-opacity="0.3363375" stroke-linecap="round" stroke-linejoin="round"/>
    <path d="M 124.65853118896484 99.07125091552734 C 123.7047119140625 92.14386749267578 117.04175567626953 95.91831970214844 115.69319915771484 100.66322326660156" stroke-width="1.5848214626312256" fill="none" stroke="rgb(14, 214, 66)" stroke-opacity="0.20108564" stroke-linecap="round" stroke-linejoin="round"/>
    <path d="M 159.24154663085938 64.86626434326172 C 150.8560791015625 71.10482788085938 157.58811950683594 66.23213958740234 158.30299377441406 69.92889404296875 C 155.1941680908203 73.75749206542969 148.0189666748047 69.5911865234375 139.6448974609375 63.6597785949707" stroke-width="1.5848214626312256" fill="none" stroke="rgb(20, 107, 64)" stroke-opacity="0.8478547" stroke-linecap="round" stroke-linejoin="round"/>
    <path d="M 114.96073150634766 125.29623413085938 C 109.55499267578125 122.74602508544922 116.1170883178711 112.70262908935547 121.04432678222656 108.30162811279297 C 124.7652359008789 117.37425231933594 118.17353057861328 113.3187255859375 116.71119689941406 108.45503997802734 C 125.99405670166016 113.71194458007812 129.3448944091797 108.5452880859375 123.35588073730469 116.18008422851562" stroke-width="1.9679529666900635" fill="none" stroke="rgb(172, 207, 19)" stroke-opacity="0.0766744" stroke-linecap="round" stroke-linejoin="round"/>
    <path d="M 117.44603729248047 98.0512466430664 C 124.20699310302734 106.9628677368164 121.77165985107422 114.75203704833984 129.42193603515625 112.7280502319336 C 127.3575439453125 108.64734649658203 130.20452880859375 103.63018035888672 128.59413146972656 110.84115600585938 C 124.84390258789062 111.84850311279297 118.15938568115234 116.45967102050781 114.84490966796875 114.21710968017578" stroke-width="1.5848214626312256" fill="none" stroke="rgb(153, 44, 217)" stroke-opacity="0.22753362" stroke-linecap="round" stroke-linejoin="round"/>
    <path d="M 139.7263946533203 66.20024108886719 C 142.05593872070312 66.55998229980469 150.5975799560547 72.9027099609375 153.78057861328125 74.08085632324219" stroke-width="1.5848214626312256" fill="none" stroke="rgb(185, 149, 196)" stroke-opacity="0.010265023" stroke-linecap="round" stroke-linejoin="round"/>
    <path d="M 116.70417785644531 85.07940673828125 C 109.43212890625 90.3680419921875 106.45097351074219 84.69930267333984 111.2458724975586 88.47278594970703" stroke-width="1.5848214626312256" fill="none" stroke="rgb(174, 188, 192)" stroke-opacity="0.07747077" stroke-linecap="round" stroke-linejoin="round"/>
    <path d="M 123.3476791381836 115.89122772216797 C 117.14791870117188 116.80072784423828 119.6617431640625 108.93042755126953 120.46319580078125 115.77897644042969" stroke-width="1.820722222328186" fill="none" stroke="rgb(182, 217, 92)" stroke-opacity="0.1503878" stroke-linecap="round" stroke-linejoin="round"/>
    <path d="M 86.40532684326172 76.08403778076172 C 78.1034164428711 79.28678131103516 72.1530532836914 83.73494720458984 75.28548431396484 81.89563751220703" stroke-width="1.5848214626312256" fill="none" stroke="rgb(36, 82, 76)" stroke-opacity="0.023498021" stroke-linecap="round" stroke-linejoin="round"/>
    <path d="M 94.89053344726562 95.82788848876953 C 90.73194885253906 103.4454574584961 98.34146118164062 109.90477752685547 91.86503601074219 111.87713623046875" stroke-width="2.087465763092041" fill="none" stroke="rgb(129, 0, 182)" stroke-opacity="0.9133331" stroke-linecap="round" stroke-linejoin="round"/>
    <path d="M 123.33174896240234 116.6117935180664 C 128.0201873779297 116.1551513671875 124.38987731933594 118.46827697753906 130.91778564453125 117.53880310058594 C 128.75856018066406 114.12371063232422 133.3625946044922 114.62564849853516 126.76738739013672 111.39104461669922" stroke-width="2.1787030696868896" fill="none" stroke="rgb(243, 49, 42)" stroke-opacity="0.94350994" stroke-linecap="round" stroke-linejoin="round"/>
    <path d="M 138.00439453125 76.07450866699219 C 139.46507263183594 73.74798583984375 133.83604431152344 79.9422836303711 137.29306030273438 85.23993682861328 C 145.3891143798828 92.5049057006836 150.8557586669922 87.44509887695312 151.0431365966797 93.0079345703125 C 145.56610107421875 89.08126068115234 146.4807586669922 82.94949340820312 146.9461212158203 83.66851806640625" stroke-width="1.5848214626312256" fill="none" stroke="rgb(92, 100, 171)" stroke-opacity="0.63493276" stroke-linecap="round" stroke-linejoin="round"/>
    <path d="M 25.54397964477539 8.45602035522461 C 22.39051055908203 -0.7185991406440735 26.140790939331055 -6.998468399047852 26.278291702270508 -14.348495483398438" stroke-width="1.5848214626312256" fill="none" stroke="rgb(253, 20, 208)" stroke-opacity="0.80022246" stroke-linecap="round" stroke-linejoin="round"/>
    <path d="M 14.31834602355957 10.553613662719727 C 12.235834121704102 5.183056354522705 14.236328125 5.621795177459717 19.3090877532959 2.4059667587280273 C 22.31698989868164 -7.802727222442627 15.770232200622559 -16.219438552856445 20.7374324798584 -7.737839698791504 C 19.908567428588867 -0.9273030161857605 13.271233558654785 -0.647739052772522 16.570066452026367 -5.063694477081299" stroke-width="1.5848214626312256" fill="none" stroke="rgb(148, 68, 23)" stroke-opacity="0.46010026" stroke-linecap="round" stroke-linejoin="round"/>
    <path d="M 52.2690544128418 85.5077896118164 C 50.61857986450195 90.23777770996094 55.60289764404297 92.157470703125 58.20759963989258 83.91576385498047 C 55.89324188232422 78.8517074584961 64.35682678222656 85.5688705444336 64.81510162353516 88.17455291748047" stroke-width="2.1284618377685547" fill="none" stroke="rgb(213, 1, 36)" stroke-opacity="0.14857647" stroke-linecap="round" stroke-linejoin="round"/>
    <path d="M 10.158040046691895 16.063535690307617 C 9.042142868041992 14.598018646240234 5.857197284698486 16.73410415649414 2.5247702598571777 23.6363582611084" stroke-width="1.5848214626312256" fill="none" stroke="rgb(138, 11, 116)" stroke-opacity="0.8001002" stroke-linecap="round" stroke-linejoin="round"/>
    <path d="M 56.197513580322266 43.04098892211914 C 59.53679656982422 40.33467102050781 65.47858428955078 47.09859085083008 56.74696731567383 39.0341796875 C 52.80057144165039 33.29069519042969 44.802757263183594 30.48396873474121 43.7117805480957 23.54447364807129 C 44.17169952392578 15.960565567016602 39.39889907836914 9.306732177734375 37.19496154785156 15.275480270385742" stroke-width="1.5848214626312256" fill="none" stroke="rgb(36, 189, 178)" stroke-opacity="0.46656835" stroke-linecap="round" stroke-linejoin="round"/>
    <path d="M 169.82937622070312 121.89473724365234 C 171.85401916503906 125.85452270507812 168.4601287841797 119.5780029296875 171.0088653564453 113.76423645019531 C 167.69967651367188 105.82569122314453 171.6615753173828 109.83859252929688 169.79881286621094 116.73635864257812" stroke-width="1.5848214626312256" fill="none" stroke="rgb(171, 199, 191)" stroke-opacity="0.30898568" stroke-linecap="round" stroke-linejoin="round"/>
    <path d="M 37.98058319091797 29.09018898010254 C 33.88007354736328 37.115047454833984 36.70977783203125 40.71175765991211 32.270023345947266 36.486236572265625" stroke-width="1.5848214626312256" fill="none" stroke="rgb(23, 104, 149)" stroke-opacity="0.41340172" stroke-linecap="round" stroke-linejoin="round"/>
    <path d="M 157.55039978027344 98.94416046142578 C 152.24708557128906 101.8945541381836 159.40789794921875 100.10385131835938 155.37437438964844 100.72049713134766 C 157.45042419433594 99.20486450195312 153.8592987060547 90.71558380126953 156.5440216064453 82.49395751953125" stroke-width="1.6138652563095093" fill="none" stroke="rgb(37, 141, 156)" stroke-opacity="0.28931078" stroke-linecap="round" stroke-linejoin="round"/>
    <path d="M 57.67839050292969 129.60902404785156 C 52.136741638183594 134.15399169921875 45.584556579589844 128.88992309570312 45.396419525146484 125.52574920654297 C 55.20085525512695 129.83145141601562 53.111419677734375 124.16642761230469 53.68111801147461 122.16520690917969" stroke-width="1.5848214626312256" fill="none" stroke="rgb(226, 113, 68)" stroke-opacity="0.8475742" stroke-linecap="round" stroke-linejoin="round"/>
    <path d="M 30.564714431762695 61.47957229614258 C 32.4998664855957 57.30305099487305 34.56925582885742 51.02634048461914 35.47521209716797 53.142948150634766 C 35.14707946777344 60.87028884887695 42.43936538696289 56.4888801574707 50.73682403564453 49.92427062988281" stroke-width="2.058290958404541" fill="none" stroke="rgb(0, 228, 122)" stroke-opacity="0.6390703" stroke-linecap="round" stroke-linejoin="round"/>
    <path d="M 80.80791473388672 150.99143981933594 C 84.09408569335938 147.25045776367188 86.87256622314453 141.83999633789062 85.74774932861328 146.87667846679688 C 82.18631744384766 156.1631622314453 87.19953918457031 147.5519256591797 96.15172576904297 152.48980712890625 C 101.49649810791016 154.55923461914062 94.02831268310547 162.71072387695312 98.64543914794922 164.34402465820312" stroke-width="1.5848214626312256" fill="none" stroke="rgb(69, 27, 65)" stroke-opacity="0.39251408" stroke-linecap="round" stroke-linejoin="round"/>
    <path d="M 139.54981994628906 7.282570838928223 C 141.61634826660156 4.834682941436768 145.2550048828125 1.5130356550216675 148.2712860107422 8.593442916870117 C 148.9920654296875 10.793758392333984 151.28488159179688 16.970293045043945 157.84620666503906 9.021034240722656" stroke-width="1.5848214626312256" fill="none" stroke="rgb(45, 28, 155)" stroke-opacity="0.07450298" stroke-linecap="round" stroke-linejoin="round"/>
    <path d="M 122.81578063964844 160.86204528808594 C 118.09468841552734 162.15243530273438 113.0709228515625 155.62559509277344 109.6290512084961 153.18572998046875" stroke-width="1.6560869216918945" fill="none" stroke="rgb(80, 19, 44)" stroke-opacity="0.11359873" stroke-linecap="round" stroke-linejoin="round"/>
    <path d="M 15.913870811462402 81.03387451171875 C 13.746045112609863 75.46918487548828 6.089140892028809 73.04899597167969 3.0864760875701904 69.15090942382812 C 7.485632419586182 70.76483154296875 5.4146952629089355 71.4306869506836 14.100831985473633 72.29703521728516" stroke-width="1.9024269580841064" fill="none" stroke="rgb(118, 249, 210)" stroke-opacity="0.35706338" stroke-linecap="round" stroke-linejoin="round"/>
    <path d="M 42.8852424621582 15.435273170471191 C 42.98335266113281 20.208526611328125 36.73965835571289 15.18037223815918 37.72501754760742 10.967058181762695" stroke-width="1.8491159677505493" fill="none" stroke="rgb(175, 133, 206)" stroke-opacity="0.9031258" stroke-linecap="round" stroke-linejoin="round"/>
    <path d="M 159.04217529296875 155.47047424316406 C 159.25267028808594 163.52464294433594 152.2298126220703 162.07200622558594 154.9352264404297 157.6734161376953" stroke-width="2.1981968879699707" fill="none" stroke="rgb(170, 25, 213)" stroke-opacity="0.057155754" stroke-linecap="round" stroke-linejoin="round"/>
  </g>
</svg>
