<?xml version="1.0" ?>
<svg xmlns="http://www.w3.org/2000/svg" version="1.1" width="956.0" height="956.0">
  <defs/>
  <g>
    <path d="M 106.68051147460938 107.00560760498047 C 110.77947998046875 136.79412841796875 110.0584716796875 150.4571075439453 110.85935974121094 170.04995727539062" stroke-width="5.9847869873046875" fill="none" stroke="rgb(107, 107, 106)" stroke-opacity="1.0" stroke-linecap="round" stroke-linejoin="round"/>
    <path d="M 71.0318603515625 158.20130920410156 C 84.9942626953125 149.48471069335938 91.94410705566406 147.94305419921875 109.23564147949219 139.94679260253906 C 120.32073974609375 141.49594116210938 143.57440185546875 141.10537719726562 150.87484741210938 139.03627014160156" stroke-width="6.0301513671875" fill="none" stroke="rgb(106, 106, 106)" stroke-opacity="1.0" stroke-linecap="round" stroke-linejoin="round"/>
    <path d="M 75.47086334228516 124.04672241210938 C 72.2555923461914 143.39572143554688 69.11385345458984 162.58531188964844 66.01193237304688 181.76502990722656" stroke-width="6.023675918579102" fill="none" stroke="rgb(147, 146, 145)" stroke-opacity="1.0" stroke-linecap="round" stroke-linejoin="round"/>
    <path d="M 125.84162902832031 125.55064392089844 C 129.96185302734375 155.28146362304688 129.25778198242188 168.93902587890625 130.35179138183594 188.41836547851562" stroke-width="5.9840874671936035" fill="none" stroke="rgb(147, 147, 145)" stroke-opacity="1.0" stroke-linecap="round" stroke-linejoin="round"/>
    <path d="M 149.885009765625 108.82494354248047 C 151.76699829101562 132.19407653808594 152.9241943359375 151.55734252929688 154.6007537841797 171.61241149902344" stroke-width="5.991575717926025" fill="none" stroke="rgb(146, 145, 147)" stroke-opacity="1.0" stroke-linecap="round" stroke-linejoin="round"/>
    <path d="M 71.04914093017578 158.31979370117188 C 89.13412475585938 162.61647033691406 108.8993911743164 160.33474731445312 128.46812438964844 158.31187438964844 C 139.59886169433594 153.53286743164062 146.88616943359375 149.45591735839844 152.3905029296875 143.8760223388672" stroke-width="5.92173433303833" fill="none" stroke="rgb(146, 146, 146)" stroke-opacity="1.0" stroke-linecap="round" stroke-linejoin="round"/>
    <path d="M 133.09515380859375 125.48833465576172 C 133.8119354248047 126.87137603759766 157.5371551513672 105.1241683959961 152.8999481201172 97.64979553222656 C 149.4185333251953 92.0589828491211 111.27485656738281 89.96488189697266 97.91143798828125 96.14060974121094 C 86.48271942138672 101.26010131835938 64.76033782958984 113.52733612060547 68.00955200195312 121.16768646240234 C 71.1659164428711 128.87374877929688 133.7231903076172 126.09343719482422 133.0843048095703 125.59101104736328" stroke-width="5.967837333679199" fill="none" stroke="rgb(136, 32, 27)" stroke-opacity="1.0" stroke-linecap="round" stroke-linejoin="round"/>
    <path d="M 139.80226135253906 101.22350311279297 C 129.8451385498047 100.05620574951172 119.2957992553711 99.689697265625 108.9282455444336 98.90682983398438 C 102.54505920410156 100.69648742675781 84.9536361694336 113.38818359375 80.84199523925781 116.4862289428711 C 93.93421173095703 117.18824768066406 123.10851287841797 104.5146484375 133.44296264648438 111.03330993652344" stroke-width="20.00296974182129" fill="none" stroke="rgb(238, 0, 0)" stroke-opacity="1.0" stroke-linecap="round" stroke-linejoin="round"/>
    <path d="M 81.76685333251953 121.49982452392578 C 115.55125427246094 126.18408966064453 140.83517456054688 122.38666534423828 146.7843017578125 104.09516143798828" stroke-width="10.00617790222168" fill="none" stroke="rgb(102, 24, 19)" stroke-opacity="1.0" stroke-linecap="round" stroke-linejoin="round"/>
    <path d="M 70.34892272949219 120.80498504638672 C 70.45904541015625 118.0081558227539 68.21720123291016 123.08379364013672 70.23458862304688 130.44056701660156 C 68.75814056396484 123.67156219482422 71.29666900634766 129.364013671875 66.15894317626953 121.72903442382812 C 59.370216369628906 112.13036346435547 68.46936798095703 100.20240783691406 68.79729461669922 95.68103790283203" stroke-width="2.0123372077941895" fill="none" stroke="rgb(197, 210, 179)" stroke-opacity="0.5281536" stroke-linecap="round" stroke-linejoin="round"/>
    <path d="M 154.91909790039062 170.3846893310547 C 144.79290771484375 176.57077026367188 133.3201141357422 173.51998901367188 135.14505004882812 178.6697235107422 C 142.50820922851562 175.97195434570312 136.62283325195312 174.54942321777344 137.62704467773438 179.5508575439453 C 131.0953369140625 169.6122283935547 126.24658966064453 174.66273498535156 129.1858367919922 169.23182678222656" stroke-width="2.0" fill="none" stroke="rgb(195, 52, 57)" stroke-opacity="0.77476466" stroke-linecap="round" stroke-linejoin="round"/>
    <path d="M 149.87673950195312 105.95407104492188 C 143.23443603515625 97.9481201171875 139.44723510742188 110.09862518310547 146.56094360351562 112.24799346923828 C 155.68453979492188 104.66114807128906 148.16061401367188 94.98938751220703 153.02874755859375 91.04545593261719 C 148.8726348876953 81.6228256225586 145.9931640625 72.31507110595703 149.50819396972656 62.277099609375" stroke-width="2.0" fill="none" stroke="rgb(127, 162, 185)" stroke-opacity="0.47926474" stroke-linecap="round" stroke-linejoin="round"/>
    <path d="M 67.03814697265625 121.52253723144531 C 65.98663330078125 127.20567321777344 53.743370056152344 126.14102172851562 44.87458038330078 129.1010284423828 C 48.72183609008789 136.02545166015625 51.72091293334961 138.1252899169922 55.669212341308594 139.0524444580078" stroke-width="2.0" fill="none" stroke="rgb(120, 152, 204)" stroke-opacity="0.576032" stroke-linecap="round" stroke-linejoin="round"/>
    <path d="M 150.7637481689453 140.23387145996094 C 147.82711791992188 142.82797241210938 156.9845733642578 136.09124755859375 158.79730224609375 147.4561004638672 C 143.58096313476562 147.985107421875 152.50881958007812 149.382568359375 163.5317840576172 147.607177734375 C 168.99237060546875 145.57630920410156 158.4170684814453 144.99581909179688 156.75267028808594 142.91873168945312" stroke-width="3.8505349159240723" fill="none" stroke="rgb(66, 33, 45)" stroke-opacity="0.6322889" stroke-linecap="round" stroke-linejoin="round"/>
    <path d="M 147.36508178710938 112.00838470458984 C 147.1485595703125 114.7864990234375 149.56573486328125 116.96336364746094 146.86911010742188 130.86988830566406 C 150.21507263183594 126.49854278564453 155.08175659179688 118.38998413085938 151.9929656982422 116.28479766845703" stroke-width="2.0" fill="none" stroke="rgb(227, 54, 173)" stroke-opacity="0.8326901" stroke-linecap="round" stroke-linejoin="round"/>
    <path d="M 156.5183868408203 116.43355560302734 C 150.16342163085938 109.71113586425781 146.29666137695312 114.27188110351562 147.23016357421875 121.6855239868164" stroke-width="2.3928122520446777" fill="none" stroke="rgb(192, 252, 196)" stroke-opacity="0.7762687" stroke-linecap="round" stroke-linejoin="round"/>
    <path d="M 162.54469299316406 140.0097198486328 C 163.6541748046875 143.3287353515625 168.09347534179688 151.119140625 158.9937286376953 147.53904724121094" stroke-width="2.0" fill="none" stroke="rgb(228, 178, 24)" stroke-opacity="0.0" stroke-linecap="round" stroke-linejoin="round"/>
    <path d="M 64.28567504882812 98.94212341308594 C 62.38111877441406 104.63665008544922 79.90897369384766 94.25675964355469 73.64949035644531 108.35948944091797 C 73.41426849365234 121.00736999511719 82.60636138916016 124.54974365234375 83.5168228149414 110.73959350585938" stroke-width="2.0" fill="none" stroke="rgb(38, 213, 178)" stroke-opacity="0.26418117" stroke-linecap="round" stroke-linejoin="round"/>
    <path d="M 57.11640930175781 139.07232666015625 C 57.29069900512695 128.31961059570312 57.3015022277832 122.37940979003906 72.95760345458984 122.5673828125" stroke-width="3.767979621887207" fill="none" stroke="rgb(200, 40, 214)" stroke-opacity="0.8147359" stroke-linecap="round" stroke-linejoin="round"/>
    <path d="M 148.18069458007812 66.63993072509766 C 139.73391723632812 62.85850143432617 140.17599487304688 69.98957824707031 131.0521240234375 64.43844604492188" stroke-width="2.036832809448242" fill="none" stroke="rgb(121, 254, 86)" stroke-opacity="0.8826696" stroke-linecap="round" stroke-linejoin="round"/>
    <path d="M 148.34498596191406 63.716793060302734 C 148.2198028564453 77.28080749511719 141.57093811035156 76.99119567871094 130.00445556640625 71.83433532714844 C 136.24085998535156 81.27944946289062 143.8874053955078 88.93818664550781 145.13262939453125 78.45218658447266" stroke-width="2.9278621673583984" fill="none" stroke="rgb(128, 26, 236)" stroke-opacity="0.75236773" stroke-linecap="round" stroke-linejoin="round"/>
    <path d="M 141.6928253173828 113.73322296142578 C 131.1204071044922 126.92535400390625 125.85047912597656 135.48744201660156 134.4088592529297 137.4453582763672 C 134.2366943359375 142.4171142578125 138.87005615234375 148.73353576660156 146.08114624023438 150.05616760253906 C 133.38356018066406 153.9163360595703 129.8399200439453 155.73948669433594 120.1035385131836 163.09976196289062" stroke-width="2.0" fill="none" stroke="rgb(125, 71, 87)" stroke-opacity="0.67518246" stroke-linecap="round" stroke-linejoin="round"/>
    <path d="M 48.58938217163086 182.19674682617188 C 58.80731964111328 187.8515167236328 61.03875732421875 195.2075958251953 53.63878631591797 189.89817810058594 C 49.31634521484375 195.90773010253906 43.5853385925293 207.0766143798828 44.13182830810547 214.6776123046875 C 45.14366149902344 218.51438903808594 45.49184799194336 217.15711975097656 54.997291564941406 209.92633056640625" stroke-width="3.1914854049682617" fill="none" stroke="rgb(186, 238, 208)" stroke-opacity="0.77230203" stroke-linecap="round" stroke-linejoin="round"/>
    <path d="M 177.0438995361328 11.18015193939209 C 166.90415954589844 21.93916893005371 159.47280883789062 20.001996994018555 156.7399139404297 4.809605598449707" stroke-width="3.4347259998321533" fill="none" stroke="rgb(232, 167, 204)" stroke-opacity="0.3167174" stroke-linecap="round" stroke-linejoin="round"/>
    <path d="M 119.80913543701172 27.954105377197266 C 127.37384033203125 15.963398933410645 134.2776641845703 13.949091911315918 129.45706176757812 19.258031845092773 C 135.94906616210938 15.633597373962402 135.82330322265625 25.054330825805664 135.92788696289062 38.33290100097656 C 120.05973815917969 32.30425262451172 115.01769256591797 32.67258834838867 112.62244415283203 23.570880889892578" stroke-width="4.727272987365723" fill="none" stroke="rgb(146, 41, 222)" stroke-opacity="0.48296005" stroke-linecap="round" stroke-linejoin="round"/>
    <path d="M 177.50955200195312 45.48970031738281 C 176.9012451171875 40.6253776550293 178.64761352539062 35.706119537353516 179.80743408203125 30.015779495239258" stroke-width="2.0" fill="none" stroke="rgb(41, 183, 141)" stroke-opacity="0.1459721" stroke-linecap="round" stroke-linejoin="round"/>
    <path d="M 82.47866821289062 15.210350036621094 C 84.05427551269531 23.00787925720215 90.07284545898438 31.33816909790039 92.69923400878906 36.70249938964844 C 79.94282531738281 42.31314468383789 91.884033203125 46.61250305175781 97.82870483398438 35.48782730102539" stroke-width="2.0" fill="none" stroke="rgb(177, 118, 195)" stroke-opacity="0.8204259" stroke-linecap="round" stroke-linejoin="round"/>
    <path d="M 189.0629425048828 29.5146484375 C 195.9626007080078 25.64360809326172 202.31011962890625 21.568513870239258 206.2985382080078 19.498010635375977" stroke-width="2.6961426734924316" fill="none" stroke="rgb(228, 146, 255)" stroke-opacity="0.5980033" stroke-linecap="round" stroke-linejoin="round"/>
    <path d="M 174.5133514404297 213.26727294921875 C 185.33956909179688 225.78131103515625 183.97769165039062 224.808349609375 185.88766479492188 234.7834014892578 C 182.23922729492188 229.49893188476562 183.98875427246094 237.4188690185547 182.65533447265625 239.50619506835938" stroke-width="5.07642936706543" fill="none" stroke="rgb(12, 179, 70)" stroke-opacity="0.23420805" stroke-linecap="round" stroke-linejoin="round"/>
    <path d="M 201.67832946777344 67.15084838867188 C 193.2387237548828 67.73834991455078 186.79164123535156 72.32485961914062 182.77198791503906 75.67424774169922 C 195.02835083007812 70.25819396972656 206.15533447265625 64.06761169433594 218.79409790039062 63.109954833984375 C 223.19581604003906 65.8561782836914 230.60720825195312 70.18898010253906 229.6380615234375 82.00301361083984" stroke-width="2.573184013366699" fill="none" stroke="rgb(140, 81, 157)" stroke-opacity="0.363328" stroke-linecap="round" stroke-linejoin="round"/>
    <path d="M 7.644010543823242 93.7740478515625 C 12.097760200500488 94.00140380859375 7.211261749267578 100.28313446044922 9.945589065551758 106.82837677001953 C 17.958070755004883 97.96150207519531 21.749834060668945 91.58277893066406 28.92980194091797 79.6932601928711" stroke-width="2.0" fill="none" stroke="rgb(255, 98, 32)" stroke-opacity="0.7060246" stroke-linecap="round" stroke-linejoin="round"/>
    <path d="M 56.565711975097656 158.1094207763672 C 53.36116409301758 151.55245971679688 59.776737213134766 156.85227966308594 49.58297348022461 147.91163635253906 C 55.745094299316406 143.17364501953125 64.4778060913086 148.25436401367188 70.8840560913086 141.81556701660156 C 56.72178649902344 131.37313842773438 55.287288665771484 122.12101745605469 63.464656829833984 114.79179382324219" stroke-width="2.0" fill="none" stroke="rgb(93, 45, 194)" stroke-opacity="0.3091683" stroke-linecap="round" stroke-linejoin="round"/>
  </g>
</svg>
