<?xml version="1.0" ?>
<svg xmlns="http://www.w3.org/2000/svg" version="1.1" width="1104.0" height="1104.0">
  <defs/>
  <g>
    <path d="M 456.2781066894531 429.40582275390625 C 435.6802062988281 460.6943054199219 413.27294921875 475.6881408691406 410.0813903808594 499.5140686035156" stroke-width="20.442548751831055" fill="none" stroke="rgb(0, 39, 25)" stroke-opacity="0.9021585" stroke-linecap="round" stroke-linejoin="round"/>
    <path d="M 435.24908447265625 541.6357421875 C 425.7621154785156 540.4391479492188 426.4690856933594 538.0308227539062 417.8309326171875 556.177001953125 C 433.5299072265625 569.9285888671875 429.49859619140625 569.4866943359375 439.06939697265625 551.7557983398438" stroke-width="14.98902702331543" fill="none" stroke="rgb(10, 44, 14)" stroke-opacity="0.8916969" stroke-linecap="round" stroke-linejoin="round"/>
    <path d="M 341.35125732421875 590.7357177734375 C 361.19219970703125 593.8506469726562 363.9996032714844 577.6823120117188 355.1672668457031 604.5838623046875 C 321.061279296875 624.6019897460938 389.6365051269531 676.486083984375 409.1640625 802.9326782226562" stroke-width="28.52025604248047" fill="none" stroke="rgb(19, 24, 7)" stroke-opacity="0.9433053" stroke-linecap="round" stroke-linejoin="round"/>
    <path d="M 663.3347778320312 425.994140625 C 726.8626708984375 480.2264099121094 791.243896484375 512.9675903320312 764.5911865234375 528.7775268554688 C 740.4437255859375 562.4735717773438 699.1360473632812 569.4434814453125 699.9039916992188 563.0078125 C 706.9324951171875 545.48876953125 751.3607788085938 501.8893737792969 727.8716430664062 553.8629150390625 C 692.85888671875 593.7804565429688 583.69921875 706.04052734375 508.36474609375 778.185302734375" stroke-width="28.99237632751465" fill="none" stroke="rgb(78, 0, 0)" stroke-opacity="0.9017625" stroke-linecap="round" stroke-linejoin="round"/>
    <path d="M 448.1486511230469 830.6304931640625 C 386.77154541015625 857.6917724609375 379.9920654296875 859.9326171875 387.284912109375 809.68603515625 C 405.3037414550781 815.765625 416.3501281738281 806.180908203125 394.0776672363281 764.8745727539062" stroke-width="13.874826431274414" fill="none" stroke="rgb(60, 2, 13)" stroke-opacity="0.8194199" stroke-linecap="round" stroke-linejoin="round"/>
    <path d="M 492.99481201171875 706.07958984375 C 518.7581176757812 654.883544921875 602.5809936523438 602.2601318359375 664.479248046875 534.4448852539062 C 781.7920532226562 444.48577880859375 672.2107543945312 430.5914611816406 625.6063842773438 378.91326904296875" stroke-width="26.970603942871094" fill="none" stroke="rgb(78, 0, 2)" stroke-opacity="0.8661638" stroke-linecap="round" stroke-linejoin="round"/>
    <path d="M 520.5016479492188 705.913330078125 C 443.7519226074219 586.3722534179688 412.7228088378906 506.157958984375 414.4190673828125 480.4414978027344" stroke-width="29.43107032775879" fill="none" stroke="rgb(24, 3, 0)" stroke-opacity="1.0" stroke-linecap="round" stroke-linejoin="round"/>
    <path d="M 357.96905517578125 548.2151489257812 C 297.3565979003906 544.9605102539062 264.1048278808594 583.2534790039062 236.2593536376953 591.2322387695312 C 260.2164001464844 643.465576171875 272.54302978515625 769.000732421875 333.69390869140625 839.11865234375 C 380.2845458984375 838.1163330078125 395.35614013671875 866.4765014648438 465.9971008300781 872.3097534179688" stroke-width="14.493281364440918" fill="none" stroke="rgb(0, 27, 12)" stroke-opacity="0.92707413" stroke-linecap="round" stroke-linejoin="round"/>
    <path d="M 527.6781005859375 853.896240234375 C 597.958251953125 849.6941528320312 681.177734375 851.44287109375 730.1795654296875 838.0520629882812 C 815.744140625 793.3305053710938 831.5984497070312 671.5354614257812 851.5088500976562 564.5047607421875 C 893.9046020507812 485.08953857421875 822.2457275390625 518.2407836914062 744.9403686523438 550.3674926757812" stroke-width="9.85714340209961" fill="none" stroke="rgb(17, 19, 0)" stroke-opacity="0.94071746" stroke-linecap="round" stroke-linejoin="round"/>
    <path d="M 419.65576171875 830.6470947265625 C 414.8566589355469 831.2455444335938 442.10113525390625 824.2455444335938 468.7799072265625 835.5230712890625" stroke-width="10.68709945678711" fill="none" stroke="rgb(1, 19, 16)" stroke-opacity="0.92182595" stroke-linecap="round" stroke-linejoin="round"/>
    <path d="M 502.94781494140625 931.0162963867188 C 451.5682067871094 933.7551879882812 396.6914978027344 964.85986328125 387.9997863769531 986.6064453125 C 372.8575744628906 1036.185302734375 391.0388488769531 1042.3330078125 462.1864929199219 1057.2318115234375 C 499.8010559082031 1057.126708984375 540.5231323242188 1067.423095703125 581.472900390625 1062.2120361328125" stroke-width="12.125301361083984" fill="none" stroke="rgb(0, 27, 9)" stroke-opacity="0.9973667" stroke-linecap="round" stroke-linejoin="round"/>
    <path d="M 642.1663818359375 1044.9781494140625 C 658.165771484375 1040.120361328125 675.9127807617188 1046.170166015625 680.1491088867188 1037.5152587890625 C 764.5784912109375 1030.7952880859375 762.0377807617188 1010.862548828125 751.9782104492188 927.26806640625 C 733.06689453125 912.9315185546875 673.3717041015625 921.5508422851562 631.4853515625 912.82861328125 C 580.4434204101562 890.3170166015625 611.2024536132812 854.7155151367188 656.069580078125 839.1636962890625" stroke-width="10.47246265411377" fill="none" stroke="rgb(2, 26, 12)" stroke-opacity="0.9475478" stroke-linecap="round" stroke-linejoin="round"/>
    <path d="M 416.3042907714844 278.323486328125 C 412.876220703125 285.3092956542969 417.3951721191406 267.6562805175781 384.0688781738281 234.63929748535156 C 395.81988525390625 253.2971649169922 397.46673583984375 271.8023986816406 436.0741882324219 285.4386291503906 C 424.8790588378906 329.3610534667969 482.708984375 348.9612731933594 526.5562744140625 365.0697937011719 C 575.3975830078125 342.98614501953125 568.9601440429688 354.144287109375 512.5846557617188 379.70928955078125 C 492.1476135253906 405.567138671875 478.9976501464844 467.913818359375 466.0789794921875 491.234619140625 C 437.21783447265625 499.88409423828125 460.9149169921875 520.4820556640625 438.2432556152344 493.5215148925781 C 409.1090393066406 510.88232421875 389.81341552734375 517.8646850585938 417.9073181152344 513.79638671875 C 438.40264892578125 491.3075256347656 487.636474609375 470.41009521484375 508.5459289550781 457.5896911621094 C 534.4102172851562 449.7304992675781 535.7166748046875 428.77490234375 538.622802734375 426.6182556152344 C 512.6851196289062 413.2650451660156 506.5107727050781 409.0364990234375 549.3047485351562 415.15777587890625 C 567.8753662109375 402.63397216796875 602.0421142578125 367.63861083984375 634.6641845703125 323.0137023925781 C 670.3889770507812 332.85699462890625 637.000244140625 275.4392395019531 633.3671875 221.3912353515625 C 613.31494140625 197.6352996826172 606.0464477539062 209.606201171875 628.5321655273438 263.1517028808594 C 610.9357299804688 289.0465393066406 610.030517578125 328.3853759765625 623.926513671875 339.54266357421875 C 637.9652099609375 359.5782775878906 638.36083984375 383.4369812011719 645.1248779296875 407.66497802734375" stroke-width="24.631210327148438" fill="none" stroke="rgb(12, 27, 22)" stroke-opacity="0.91613203" stroke-linecap="round" stroke-linejoin="round"/>
    <path d="M 720.15380859375 490.0674133300781 C 703.5148315429688 560.5197143554688 768.7601318359375 587.460693359375 828.2464599609375 592.2713012695312" stroke-width="29.913463592529297" fill="none" stroke="rgb(232, 99, 104)" stroke-opacity="0.9886095" stroke-linecap="round" stroke-linejoin="round"/>
    <path d="M 361.2859191894531 820.21142578125 C 387.21209716796875 836.1792602539062 410.9814453125 856.9046630859375 424.73968505859375 888.9085083007812 C 425.50482177734375 897.2363891601562 433.1543884277344 895.1694946289062 451.3806457519531 891.964111328125" stroke-width="9.85714340209961" fill="none" stroke="rgb(94, 150, 53)" stroke-opacity="0.17711103" stroke-linecap="round" stroke-linejoin="round"/>
    <path d="M 544.603271484375 456.1112976074219 C 528.6016235351562 453.921630859375 517.3836059570312 468.8702087402344 495.1627502441406 485.04705810546875 C 513.409423828125 516.4108276367188 544.2199096679688 457.78424072265625 572.001708984375 398.41497802734375" stroke-width="10.232872009277344" fill="none" stroke="rgb(63, 163, 118)" stroke-opacity="0.28516445" stroke-linecap="round" stroke-linejoin="round"/>
    <path d="M 326.3775634765625 588.4254760742188 C 311.6874694824219 653.1917724609375 332.5874938964844 664.5736083984375 293.0152282714844 595.34423828125" stroke-width="9.85714340209961" fill="none" stroke="rgb(83, 139, 130)" stroke-opacity="0.5539502" stroke-linecap="round" stroke-linejoin="round"/>
    <path d="M 694.9633178710938 1029.757080078125 C 671.7484741210938 1030.8629150390625 633.9816284179688 1046.84521484375 664.5186767578125 1051.5108642578125" stroke-width="9.85714340209961" fill="none" stroke="rgb(58, 48, 126)" stroke-opacity="0.3406255" stroke-linecap="round" stroke-linejoin="round"/>
    <path d="M 459.9143981933594 500.84698486328125 C 441.0760192871094 500.705078125 427.1707763671875 498.3968811035156 402.7738952636719 487.7199401855469" stroke-width="13.54548168182373" fill="none" stroke="rgb(184, 151, 185)" stroke-opacity="0.36109334" stroke-linecap="round" stroke-linejoin="round"/>
    <path d="M 333.4581298828125 514.6487426757812 C 340.0992736816406 505.40594482421875 340.4079284667969 512.3804931640625 342.0354309082031 540.3788452148438" stroke-width="9.85714340209961" fill="none" stroke="rgb(217, 178, 158)" stroke-opacity="0.16440096" stroke-linecap="round" stroke-linejoin="round"/>
    <path d="M 399.6045227050781 446.7005920410156 C 408.37225341796875 464.3804626464844 417.70001220703125 486.2007751464844 412.557861328125 465.9326171875" stroke-width="16.805377960205078" fill="none" stroke="rgb(183, 145, 186)" stroke-opacity="0.33738056" stroke-linecap="round" stroke-linejoin="round"/>
    <path d="M 469.98223876953125 874.5623779296875 C 480.6766662597656 874.1270141601562 480.6614685058594 868.00048828125 453.26910400390625 857.6958618164062" stroke-width="12.993158340454102" fill="none" stroke="rgb(174, 161, 93)" stroke-opacity="0.34510008" stroke-linecap="round" stroke-linejoin="round"/>
    <path d="M 407.378662109375 249.86981201171875 C 418.1324768066406 228.20635986328125 441.5101013183594 222.59439086914062 494.7218322753906 239.8302001953125 C 510.3524169921875 254.36062622070312 523.30615234375 254.89076232910156 526.3645629882812 251.9345245361328 C 493.6183776855469 241.08200073242188 474.287109375 242.49794006347656 484.09478759765625 294.3242492675781" stroke-width="14.705464363098145" fill="none" stroke="rgb(129, 150, 122)" stroke-opacity="0.8849808" stroke-linecap="round" stroke-linejoin="round"/>
    <path d="M 396.5903015136719 452.8325500488281 C 382.8722229003906 448.5622863769531 445.654541015625 391.0177917480469 465.5552062988281 322.72418212890625" stroke-width="9.85714340209961" fill="none" stroke="rgb(137, 146, 136)" stroke-opacity="0.78998435" stroke-linecap="round" stroke-linejoin="round"/>
    <path d="M 473.697021484375 279.74932861328125 C 506.6934509277344 259.85736083984375 530.2080078125 237.3464813232422 550.59326171875 253.4475555419922 C 556.250244140625 212.686279296875 559.1876220703125 266.7128601074219 537.9750366210938 339.7086486816406 C 539.3502197265625 371.5126647949219 554.5795288085938 400.3541564941406 561.8359375 392.373779296875" stroke-width="9.85714340209961" fill="none" stroke="rgb(38, 217, 216)" stroke-opacity="0.6830042" stroke-linecap="round" stroke-linejoin="round"/>
    <path d="M 533.6787719726562 908.90185546875 C 551.1051635742188 913.380126953125 559.8301391601562 918.507568359375 566.0823974609375 926.3905029296875" stroke-width="17.081438064575195" fill="none" stroke="rgb(75, 0, 255)" stroke-opacity="0.9712299" stroke-linecap="round" stroke-linejoin="round"/>
    <path d="M 528.7329711914062 845.1808471679688 C 526.6939086914062 835.8751831054688 524.27490234375 825.9212036132812 528.0685424804688 837.0315551757812 C 531.734619140625 834.1710205078125 509.2604675292969 832.7105102539062 522.0143432617188 822.8577880859375" stroke-width="9.85714340209961" fill="none" stroke="rgb(121, 153, 77)" stroke-opacity="0.73419434" stroke-linecap="round" stroke-linejoin="round"/>
    <path d="M 302.3827209472656 614.63525390625 C 303.32354736328125 589.0631713867188 312.66326904296875 589.7906494140625 329.6728515625 581.8873901367188 C 326.57763671875 576.888916015625 312.8169250488281 607.1400756835938 339.0144348144531 638.141845703125 C 334.75518798828125 638.0255737304688 320.4219970703125 666.5711669921875 308.0401611328125 690.6595458984375" stroke-width="10.069436073303223" fill="none" stroke="rgb(103, 110, 77)" stroke-opacity="0.089738145" stroke-linecap="round" stroke-linejoin="round"/>
    <path d="M 452.86602783203125 890.2066650390625 C 459.0890808105469 920.7896118164062 463.1487121582031 957.0186157226562 442.05816650390625 980.8131713867188" stroke-width="16.722959518432617" fill="none" stroke="rgb(154, 72, 249)" stroke-opacity="0.5997155" stroke-linecap="round" stroke-linejoin="round"/>
    <path d="M 553.3552856445312 413.15057373046875 C 546.1964111328125 341.8110046386719 525.202392578125 324.3875732421875 499.0188293457031 435.0989074707031" stroke-width="39.247642517089844" fill="none" stroke="rgb(213, 19, 44)" stroke-opacity="0.91604936" stroke-linecap="round" stroke-linejoin="round"/>
    <path d="M 583.631591796875 935.954345703125 C 571.5520629882812 935.9815673828125 593.9529418945312 933.4479370117188 574.2686157226562 946.3515625 C 586.391357421875 961.8840942382812 591.0060424804688 944.5867309570312 578.0628051757812 922.1204833984375" stroke-width="9.85714340209961" fill="none" stroke="rgb(150, 207, 138)" stroke-opacity="0.10735695" stroke-linecap="round" stroke-linejoin="round"/>
    <path d="M 187.13946533203125 224.80189514160156 C 197.4676055908203 278.21270751953125 219.4419708251953 297.6539306640625 266.3199768066406 283.0813903808594 C 255.07679748535156 332.6534118652344 258.6336364746094 359.0442199707031 269.7313232421875 380.0455017089844 C 271.3657531738281 407.27972412109375 266.3755187988281 473.64862060546875 273.0796813964844 490.01690673828125" stroke-width="9.85714340209961" fill="none" stroke="rgb(93, 40, 235)" stroke-opacity="0.52417445" stroke-linecap="round" stroke-linejoin="round"/>
    <path d="M 214.53530883789062 260.6578674316406 C 222.36123657226562 278.60565185546875 217.6749725341797 266.9339599609375 230.885009765625 268.9179992675781 C 217.7666015625 254.76162719726562 218.39747619628906 274.6693115234375 227.8316650390625 291.537353515625" stroke-width="11.848705291748047" fill="none" stroke="rgb(73, 235, 209)" stroke-opacity="0.017769124" stroke-linecap="round" stroke-linejoin="round"/>
    <path d="M 106.56169891357422 571.6775512695312 C 111.87181091308594 593.2779541015625 105.51979064941406 603.599365234375 101.69285583496094 600.9088745117188 C 106.70872497558594 634.5603637695312 89.4043197631836 662.126220703125 76.25428771972656 715.714599609375" stroke-width="10.071178436279297" fill="none" stroke="rgb(255, 29, 29)" stroke-opacity="1.0" stroke-linecap="round" stroke-linejoin="round"/>
    <path d="M 218.71995544433594 549.6646728515625 C 213.0458221435547 600.46240234375 261.4549865722656 602.1148681640625 275.7516784667969 657.411865234375" stroke-width="9.85714340209961" fill="none" stroke="rgb(100, 194, 189)" stroke-opacity="0.19672878" stroke-linecap="round" stroke-linejoin="round"/>
    <path d="M 729.2965087890625 91.49942779541016 C 732.4585571289062 102.86296844482422 762.9071044921875 110.75738525390625 794.6713256835938 103.85321044921875 C 785.3936767578125 151.6580810546875 801.673583984375 193.567626953125 817.7525634765625 229.61801147460938 C 817.76171875 283.8921813964844 794.5006103515625 236.8055877685547 784.4373168945312 159.14198303222656" stroke-width="9.85714340209961" fill="none" stroke="rgb(218, 117, 255)" stroke-opacity="0.45253655" stroke-linecap="round" stroke-linejoin="round"/>
    <path d="M -1.755285620689392 75.30178833007812 C -12.457942008972168 79.10767364501953 -20.216989517211914 50.23515701293945 -35.09074401855469 41.22395706176758" stroke-width="9.85714340209961" fill="none" stroke="rgb(135, 192, 92)" stroke-opacity="0.7401714" stroke-linecap="round" stroke-linejoin="round"/>
    <path d="M 272.74725341796875 422.97900390625 C 266.67626953125 384.1356506347656 261.0913391113281 367.284423828125 262.4347839355469 408.0715637207031 C 246.8319854736328 428.048095703125 247.80892944335938 469.6449890136719 264.111083984375 523.1556396484375 C 255.61727905273438 565.0225830078125 259.92364501953125 501.9337463378906 276.5113830566406 433.9730224609375" stroke-width="19.639413833618164" fill="none" stroke="rgb(136, 68, 255)" stroke-opacity="0.34058264" stroke-linecap="round" stroke-linejoin="round"/>
  </g>
</svg>
