<?xml version="1.0" ?>
<svg xmlns="http://www.w3.org/2000/svg" version="1.1" width="1104.0" height="1104.0">
  <defs/>
  <g>
    <path d="M 53.82257843017578 71.53804016113281 C 59.629825592041016 72.2755355834961 54.734779357910156 75.83751678466797 58.129737854003906 76.43836212158203 C 61.09588623046875 73.53994750976562 55.66692352294922 75.80652618408203 56.53047561645508 78.6528091430664 C 50.766326904296875 84.79037475585938 47.80424118041992 81.6632308959961 43.08891296386719 80.70027923583984" stroke-width="1.2129460573196411" fill="none" stroke="rgb(2, 153, 155)" stroke-opacity="0.22767833" stroke-linecap="round" stroke-linejoin="round"/>
    <path d="M 64.32513427734375 92.38241577148438 C 66.95108795166016 94.17339324951172 63.48835754394531 93.17645263671875 57.46018981933594 89.19864654541016 C 53.058868408203125 88.71661376953125 48.776493072509766 89.71173095703125 50.68962478637695 85.81018829345703" stroke-width="1.1026785373687744" fill="none" stroke="rgb(181, 235, 15)" stroke-opacity="0.97353566" stroke-linecap="round" stroke-linejoin="round"/>
    <path d="M 24.715408325195312 40.71339416503906 C 21.317623138427734 40.29021453857422 26.42076873779297 35.53378677368164 20.745121002197266 38.817134857177734 C 17.829294204711914 37.37395477294922 16.20732307434082 33.23080825805664 12.605402946472168 33.74911117553711" stroke-width="1.1026785373687744" fill="none" stroke="rgb(113, 24, 181)" stroke-opacity="0.19378705" stroke-linecap="round" stroke-linejoin="round"/>
    <path d="M 60.1792106628418 87.03402709960938 C 61.94306945800781 91.83500671386719 65.27684020996094 93.01181030273438 60.33885192871094 95.21422576904297 C 64.54068756103516 93.75408935546875 62.707550048828125 94.048828125 61.36362838745117 96.94845581054688" stroke-width="1.1026785373687744" fill="none" stroke="rgb(21, 85, 121)" stroke-opacity="0.025684364" stroke-linecap="round" stroke-linejoin="round"/>
    <path d="M 24.871320724487305 19.393836975097656 C 26.635562896728516 15.75199031829834 25.06918716430664 11.02558708190918 28.39348793029785 17.07011604309082 C 32.440399169921875 14.249650001525879 32.85667419433594 13.549095153808594 34.086605072021484 18.515380859375" stroke-width="1.1026785373687744" fill="none" stroke="rgb(153, 41, 163)" stroke-opacity="0.92659587" stroke-linecap="round" stroke-linejoin="round"/>
    <path d="M 123.40477752685547 101.09640502929688 C 127.2991943359375 97.8910140991211 124.21234893798828 102.26422882080078 119.47526550292969 102.28761291503906" stroke-width="1.1026785373687744" fill="none" stroke="rgb(90, 237, 72)" stroke-opacity="0.12812456" stroke-linecap="round" stroke-linejoin="round"/>
    <path d="M 120.39518737792969 101.94764709472656 C 116.03801727294922 104.41796112060547 121.216796875 100.47280883789062 117.2414779663086 96.76590728759766" stroke-width="1.1026785373687744" fill="none" stroke="rgb(111, 49, 232)" stroke-opacity="0.44532064" stroke-linecap="round" stroke-linejoin="round"/>
    <path d="M 70.94451904296875 62.5493278503418 C 73.6481704711914 65.81116485595703 76.14241027832031 64.51142120361328 71.31290435791016 66.92965698242188 C 67.820556640625 70.2892837524414 64.13197326660156 71.73084259033203 67.37300109863281 71.5948715209961 C 62.5693359375 66.5054931640625 64.84452056884766 68.91551208496094 65.46371459960938 65.00616455078125" stroke-width="1.1026785373687744" fill="none" stroke="rgb(117, 255, 231)" stroke-opacity="0.8157526" stroke-linecap="round" stroke-linejoin="round"/>
    <path d="M 82.56888580322266 38.7890510559082 C 85.2635726928711 44.52000045776367 82.69963836669922 48.595306396484375 78.37625122070312 52.88101577758789 C 79.94197845458984 52.48012161254883 78.40337371826172 46.0959587097168 80.42894744873047 51.98869705200195 C 83.77941131591797 54.50967788696289 77.93212127685547 55.069149017333984 83.514892578125 58.02396774291992" stroke-width="1.1026785373687744" fill="none" stroke="rgb(219, 7, 199)" stroke-opacity="0.5718504" stroke-linecap="round" stroke-linejoin="round"/>
    <path d="M 75.2231674194336 30.393482208251953 C 79.3738021850586 30.882097244262695 84.68865203857422 31.692583084106445 90.47381591796875 27.69467544555664 C 88.12530517578125 28.271793365478516 88.40648651123047 25.00202751159668 92.2618637084961 21.80890655517578" stroke-width="1.212943434715271" fill="none" stroke="rgb(183, 125, 61)" stroke-opacity="0.94531476" stroke-linecap="round" stroke-linejoin="round"/>
    <path d="M 51.028892517089844 12.913764953613281 C 45.50514221191406 15.596033096313477 41.6789436340332 13.37839126586914 41.936641693115234 11.788273811340332" stroke-width="1.2129452228546143" fill="none" stroke="rgb(115, 38, 33)" stroke-opacity="0.43698597" stroke-linecap="round" stroke-linejoin="round"/>
    <path d="M 56.85650634765625 112.81683349609375 C 55.59063720703125 114.89488983154297 50.4217643737793 112.9059829711914 44.43505859375 117.47341918945312" stroke-width="1.2129459381103516" fill="none" stroke="rgb(113, 68, 17)" stroke-opacity="0.27574578" stroke-linecap="round" stroke-linejoin="round"/>
    <path d="M 86.9169692993164 56.62342071533203 C 85.27106475830078 51.88349533081055 79.91724395751953 56.75856018066406 85.66983795166016 51.71977615356445 C 83.50109100341797 52.731014251708984 88.88957977294922 54.022884368896484 93.76483154296875 52.22222900390625" stroke-width="1.1026785373687744" fill="none" stroke="rgb(224, 53, 81)" stroke-opacity="0.596942" stroke-linecap="round" stroke-linejoin="round"/>
    <path d="M 18.951610565185547 54.89642333984375 C 13.15014362335205 58.7360954284668 18.945606231689453 63.80376052856445 13.161384582519531 63.18119812011719 C 14.00529670715332 61.70901107788086 9.831707000732422 67.22468566894531 9.014612197875977 66.85980987548828 C 13.124003410339355 69.82666778564453 11.136033058166504 73.24938201904297 9.696542739868164 69.52291107177734" stroke-width="1.1026785373687744" fill="none" stroke="rgb(252, 6, 137)" stroke-opacity="0.8490406" stroke-linecap="round" stroke-linejoin="round"/>
    <path d="M 30.42193603515625 37.67164993286133 C 31.56399917602539 38.452266693115234 26.323793411254883 37.791465759277344 27.093074798583984 34.40455627441406 C 29.10590362548828 29.09663963317871 34.0098762512207 23.955339431762695 35.33916473388672 22.050561904907227" stroke-width="1.2129460573196411" fill="none" stroke="rgb(114, 21, 95)" stroke-opacity="0.45934433" stroke-linecap="round" stroke-linejoin="round"/>
    <path d="M 49.243492126464844 33.1694221496582 C 53.65309524536133 35.057186126708984 48.77664566040039 34.40886688232422 47.14019012451172 31.74275016784668 C 45.50614547729492 33.31592559814453 40.72951126098633 38.68800735473633 36.03478240966797 41.274131774902344 C 31.469436645507812 35.9209098815918 36.09750747680664 34.02481460571289 41.997093200683594 27.88677215576172" stroke-width="1.1026785373687744" fill="none" stroke="rgb(53, 76, 169)" stroke-opacity="0.5357068" stroke-linecap="round" stroke-linejoin="round"/>
    <path d="M 87.93537902832031 2.127121925354004 C 86.65131378173828 4.1392951011657715 91.25869750976562 7.428466796875 95.88009643554688 1.6968001127243042 C 100.32331085205078 4.002804279327393 103.18867492675781 9.247446060180664 108.10540771484375 14.907193183898926" stroke-width="1.1026785373687744" fill="none" stroke="rgb(175, 41, 39)" stroke-opacity="0.99977595" stroke-linecap="round" stroke-linejoin="round"/>
    <path d="M 47.55654525756836 103.67008209228516 C 49.86479187011719 108.51728057861328 45.90495300292969 106.66502380371094 49.96198272705078 104.5379638671875" stroke-width="1.1026785373687744" fill="none" stroke="rgb(63, 246, 204)" stroke-opacity="0.3364146" stroke-linecap="round" stroke-linejoin="round"/>
    <path d="M 8.41413688659668 74.54754638671875 C 13.264886856079102 75.11885070800781 8.805025100708008 76.09113311767578 5.026818752288818 70.61212158203125" stroke-width="1.2129449844360352" fill="none" stroke="rgb(106, 53, 130)" stroke-opacity="0.24358469" stroke-linecap="round" stroke-linejoin="round"/>
    <path d="M 109.3486557006836 66.77485656738281 C 107.4913101196289 70.72527313232422 106.50765991210938 76.09947967529297 102.74840545654297 78.3484878540039" stroke-width="1.212945818901062" fill="none" stroke="rgb(210, 157, 171)" stroke-opacity="0.24393521" stroke-linecap="round" stroke-linejoin="round"/>
    <path d="M 34.61385726928711 27.787805557250977 C 39.237632751464844 32.43367385864258 35.1529655456543 38.23477554321289 32.39840316772461 40.60736083984375 C 28.19237518310547 42.047508239746094 23.266067504882812 39.40376281738281 26.24374771118164 40.36846923828125 C 26.386764526367188 38.7139778137207 24.062442779541016 41.70033645629883 25.355615615844727 46.26752853393555" stroke-width="1.1026785373687744" fill="none" stroke="rgb(125, 100, 193)" stroke-opacity="0.34283498" stroke-linecap="round" stroke-linejoin="round"/>
    <path d="M 1.399567723274231 59.352909088134766 C -3.0539653301239014 54.31566619873047 0.1454903781414032 51.42577362060547 4.804753303527832 52.445594787597656" stroke-width="1.2129459381103516" fill="none" stroke="rgb(234, 26, 140)" stroke-opacity="0.24566267" stroke-linecap="round" stroke-linejoin="round"/>
    <path d="M 92.51979064941406 77.89295196533203 C 93.63915252685547 83.7214126586914 90.32398223876953 81.57959747314453 84.2638931274414 81.03604125976562 C 79.1127700805664 79.02942657470703 82.68907928466797 75.70144653320312 83.61431121826172 69.95637512207031 C 85.68689727783203 68.40792083740234 83.8833236694336 64.70803833007812 90.5018081665039 61.74544906616211" stroke-width="1.1026785373687744" fill="none" stroke="rgb(131, 74, 184)" stroke-opacity="0.52146095" stroke-linecap="round" stroke-linejoin="round"/>
    <path d="M 61.57051467895508 91.21675872802734 C 65.93138885498047 90.28382110595703 63.03940963745117 90.68267822265625 65.93971252441406 93.17989349365234 C 68.56745910644531 92.53494262695312 69.6702651977539 95.83545684814453 64.08824920654297 95.3946304321289 C 64.3863296508789 100.21296691894531 69.3104476928711 97.71387481689453 63.13215637207031 97.46556854248047" stroke-width="1.1026785373687744" fill="none" stroke="rgb(156, 193, 65)" stroke-opacity="0.8769111" stroke-linecap="round" stroke-linejoin="round"/>
    <path d="M 80.68465423583984 50.914756774902344 C 86.61068725585938 46.19626998901367 88.8414306640625 45.342124938964844 89.83682250976562 46.15765380859375 C 89.64331817626953 47.294795989990234 84.84001922607422 47.33218002319336 82.81713104248047 51.95479202270508 C 83.19210815429688 51.99884796142578 88.0979995727539 56.625770568847656 90.7328872680664 60.68940353393555" stroke-width="1.2129186391830444" fill="none" stroke="rgb(194, 177, 30)" stroke-opacity="0.016775822" stroke-linecap="round" stroke-linejoin="round"/>
    <path d="M 77.88005065917969 111.1645736694336 C 72.87767028808594 111.44025421142578 68.45470428466797 111.08316802978516 73.54295349121094 113.12321472167969 C 70.5130386352539 111.2142333984375 64.83269500732422 107.08800506591797 67.16536712646484 112.74506378173828 C 63.69923782348633 106.88782501220703 60.68037414550781 112.50062561035156 64.3321304321289 110.39617919921875" stroke-width="1.1026785373687744" fill="none" stroke="rgb(17, 57, 36)" stroke-opacity="0.4473291" stroke-linecap="round" stroke-linejoin="round"/>
    <path d="M 76.085693359375 37.98888397216797 C 72.02183532714844 36.799617767333984 68.0391616821289 40.74464797973633 70.38935089111328 36.90010070800781" stroke-width="1.1026785373687744" fill="none" stroke="rgb(39, 160, 94)" stroke-opacity="0.79824317" stroke-linecap="round" stroke-linejoin="round"/>
    <path d="M 9.739299774169922 84.53445434570312 C 12.450366973876953 88.33029174804688 13.33238697052002 84.19126892089844 8.721155166625977 83.09683227539062" stroke-width="1.2129422426223755" fill="none" stroke="rgb(122, 3, 48)" stroke-opacity="0.47525147" stroke-linecap="round" stroke-linejoin="round"/>
    <path d="M 57.60372543334961 109.79644775390625 C 52.176151275634766 107.57182312011719 47.29768753051758 103.86299133300781 45.89381790161133 107.73075103759766 C 45.700523376464844 106.83818817138672 40.69155502319336 108.31761932373047 43.13675308227539 108.14481353759766 C 37.956199645996094 110.03331756591797 42.18406677246094 111.63970184326172 41.8851203918457 109.32955169677734" stroke-width="1.212943434715271" fill="none" stroke="rgb(167, 149, 242)" stroke-opacity="0.25748104" stroke-linecap="round" stroke-linejoin="round"/>
    <path d="M 25.131288528442383 30.051380157470703 C 19.853784561157227 34.82334518432617 18.76830291748047 40.13716125488281 16.706445693969727 34.872047424316406" stroke-width="1.2129461765289307" fill="none" stroke="rgb(139, 229, 242)" stroke-opacity="0.84079576" stroke-linecap="round" stroke-linejoin="round"/>
    <path d="M 53.78230667114258 113.7791519165039 C 50.04389572143555 119.14596557617188 53.223384857177734 122.25769805908203 53.08266067504883 122.28761291503906 C 53.12144470214844 119.96272277832031 54.01190185546875 123.11429595947266 56.72850799560547 123.73209381103516" stroke-width="1.1026785373687744" fill="none" stroke="rgb(196, 199, 113)" stroke-opacity="0.611984" stroke-linecap="round" stroke-linejoin="round"/>
    <path d="M 12.688865661621094 16.070283889770508 C 9.784781455993652 13.398459434509277 6.584022521972656 17.657882690429688 9.623457908630371 16.832069396972656" stroke-width="1.2129456996917725" fill="none" stroke="rgb(99, 222, 34)" stroke-opacity="0.2747749" stroke-linecap="round" stroke-linejoin="round"/>
  </g>
</svg>
