<?xml version="1.0" ?>
<svg xmlns="http://www.w3.org/2000/svg" version="1.1" width="925.0" height="925.0">
  <defs/>
  <g>
    <path d="M 114.92969512939453 101.30077362060547 C 116.28813171386719 105.76527404785156 120.27268981933594 107.54615783691406 124.06428527832031 107.72737884521484" stroke-width="1.0892857313156128" fill="none" stroke="rgb(175, 127, 145)" stroke-opacity="0.9137878" stroke-linecap="round" stroke-linejoin="round"/>
    <path d="M 98.11463928222656 81.92201232910156 C 96.32878112792969 86.87362670898438 91.75634002685547 82.93122863769531 88.52384185791016 82.92647552490234 C 84.87177276611328 84.81583404541016 79.61241912841797 82.04264831542969 79.11691284179688 82.11605834960938 C 82.7378158569336 77.1694107055664 84.16716766357422 75.32513427734375 84.608154296875 78.6338119506836" stroke-width="1.0892857313156128" fill="none" stroke="rgb(112, 156, 70)" stroke-opacity="0.6624555" stroke-linecap="round" stroke-linejoin="round"/>
    <path d="M 72.60028076171875 46.931705474853516 C 69.93762969970703 50.878658294677734 74.07270812988281 52.82639694213867 79.63310241699219 54.6973876953125 C 78.31513214111328 54.53263854980469 70.89488983154297 50.43307876586914 71.6072769165039 46.23583221435547" stroke-width="1.0892857313156128" fill="none" stroke="rgb(122, 37, 99)" stroke-opacity="0.0" stroke-linecap="round" stroke-linejoin="round"/>
    <path d="M 111.37808990478516 56.90321731567383 C 114.73060607910156 56.4664192199707 109.15735626220703 57.255435943603516 105.7804946899414 60.41014099121094 C 110.08280944824219 67.50473022460938 111.81941223144531 72.39773559570312 112.53521728515625 70.27816772460938 C 108.44486236572266 66.11927795410156 108.48054504394531 70.2177734375 108.67436981201172 69.1517562866211" stroke-width="1.0892857313156128" fill="none" stroke="rgb(76, 238, 229)" stroke-opacity="0.39650247" stroke-linecap="round" stroke-linejoin="round"/>
    <path d="M 94.20439147949219 16.581932067871094 C 93.965087890625 10.694075584411621 87.43780517578125 14.152565002441406 90.677001953125 11.668487548828125 C 86.62828063964844 9.947694778442383 87.39527130126953 7.1216206550598145 87.89102172851562 9.976070404052734 C 86.22500610351562 15.419968605041504 87.11392974853516 21.693355560302734 87.49684143066406 22.609012603759766" stroke-width="1.2024587392807007" fill="none" stroke="rgb(134, 85, 221)" stroke-opacity="0.70231575" stroke-linecap="round" stroke-linejoin="round"/>
    <path d="M 14.097973823547363 92.37381744384766 C 9.453752517700195 95.68433380126953 8.678232192993164 89.35336303710938 10.068325996398926 95.7198715209961" stroke-width="1.6529067754745483" fill="none" stroke="rgb(245, 31, 31)" stroke-opacity="1.0" stroke-linecap="round" stroke-linejoin="round"/>
    <path d="M 53.54098892211914 84.40516662597656 C 57.7100830078125 88.44000244140625 53.391117095947266 89.89044952392578 52.10618209838867 85.24417877197266" stroke-width="1.354270100593567" fill="none" stroke="rgb(231, 255, 111)" stroke-opacity="0.1694254" stroke-linecap="round" stroke-linejoin="round"/>
    <path d="M 93.73206329345703 22.314754486083984 C 92.34202575683594 17.144908905029297 95.77334594726562 19.93638801574707 99.88819122314453 21.581920623779297" stroke-width="1.0892857313156128" fill="none" stroke="rgb(120, 50, 63)" stroke-opacity="0.62308174" stroke-linecap="round" stroke-linejoin="round"/>
    <path d="M 2.9968416690826416 33.48715591430664 C 4.013591289520264 37.54743957519531 5.3046674728393555 43.82470703125 5.331696033477783 41.238037109375 C 12.315812110900879 35.79066467285156 11.365310668945312 40.99277114868164 8.948467254638672 42.81596374511719 C 11.503376007080078 43.77693557739258 15.738436698913574 45.451499938964844 14.65601921081543 39.48797607421875" stroke-width="1.0892857313156128" fill="none" stroke="rgb(113, 123, 104)" stroke-opacity="0.695632" stroke-linecap="round" stroke-linejoin="round"/>
    <path d="M 89.11515045166016 36.500797271728516 C 91.56440734863281 34.009971618652344 88.55646514892578 34.178558349609375 89.91885375976562 32.618125915527344 C 82.97631072998047 35.495182037353516 77.83766174316406 36.6749382019043 72.93853759765625 29.814620971679688 C 69.08915710449219 28.376611709594727 70.81742095947266 32.35092544555664 68.77288818359375 34.6740608215332" stroke-width="1.0892857313156128" fill="none" stroke="rgb(33, 50, 145)" stroke-opacity="0.17245784" stroke-linecap="round" stroke-linejoin="round"/>
    <path d="M 118.61107635498047 57.614166259765625 C 115.16616821289062 54.75388717651367 120.42448425292969 54.402408599853516 122.34073638916016 60.23972702026367 C 123.96868896484375 60.43766403198242 129.2138671875 56.86271286010742 128.2536163330078 56.630088806152344 C 123.6344223022461 54.992950439453125 128.12831115722656 60.75297927856445 127.11430358886719 56.74302673339844" stroke-width="1.2095688581466675" fill="none" stroke="rgb(83, 17, 59)" stroke-opacity="0.5446668" stroke-linecap="round" stroke-linejoin="round"/>
    <path d="M 67.90283966064453 29.403535842895508 C 69.30902099609375 28.398881912231445 73.66883850097656 22.35359764099121 68.9345932006836 27.723588943481445 C 72.1376953125 33.08072280883789 77.09777069091797 33.0028076171875 76.47650146484375 34.20711135864258 C 77.04610443115234 28.928335189819336 76.49250793457031 24.748815536499023 78.77607727050781 26.556819915771484" stroke-width="1.1583592891693115" fill="none" stroke="rgb(239, 25, 33)" stroke-opacity="0.37355474" stroke-linecap="round" stroke-linejoin="round"/>
    <path d="M 43.37049102783203 83.5866928100586 C 40.453895568847656 88.20610809326172 43.756229400634766 82.76779174804688 46.73981475830078 77.09749603271484 C 49.66644287109375 81.30342864990234 54.34283447265625 82.91984558105469 56.98060607910156 84.66199493408203" stroke-width="1.1933362483978271" fill="none" stroke="rgb(221, 225, 151)" stroke-opacity="0.3921756" stroke-linecap="round" stroke-linejoin="round"/>
    <path d="M 13.986968994140625 31.87649917602539 C 17.52054214477539 31.854114532470703 17.425153732299805 28.44597816467285 9.916905403137207 32.89338302612305 C 7.820827484130859 30.637346267700195 4.946504592895508 32.64247131347656 1.3015739917755127 35.80210494995117" stroke-width="1.4914195537567139" fill="none" stroke="rgb(162, 12, 116)" stroke-opacity="0.19673169" stroke-linecap="round" stroke-linejoin="round"/>
    <path d="M 108.46772003173828 93.52086639404297 C 105.78187561035156 93.72193908691406 109.2635269165039 91.416748046875 108.83483123779297 95.42205047607422 C 107.87015533447266 88.31668090820312 104.00403594970703 88.86576843261719 99.3593521118164 95.67550659179688" stroke-width="1.0892857313156128" fill="none" stroke="rgb(181, 84, 16)" stroke-opacity="0.80596375" stroke-linecap="round" stroke-linejoin="round"/>
    <path d="M 11.519988059997559 37.480064392089844 C 10.54419994354248 41.488983154296875 16.353185653686523 37.89817810058594 21.115995407104492 39.53325271606445 C 25.04115867614746 44.00006866455078 18.8909969329834 45.37836456298828 17.509010314941406 40.42964553833008" stroke-width="1.0892857313156128" fill="none" stroke="rgb(7, 126, 74)" stroke-opacity="0.4009222" stroke-linecap="round" stroke-linejoin="round"/>
    <path d="M 62.12662124633789 116.92634582519531 C 68.91373443603516 116.26429748535156 69.11478424072266 112.83192443847656 70.08213806152344 115.56895446777344 C 66.5008316040039 114.52607727050781 69.90167236328125 116.01204681396484 69.01544952392578 111.03087615966797 C 68.00977325439453 113.7822036743164 68.85244750976562 108.3628158569336 68.4914321899414 109.27075958251953" stroke-width="1.0892857313156128" fill="none" stroke="rgb(42, 99, 86)" stroke-opacity="0.6559153" stroke-linecap="round" stroke-linejoin="round"/>
    <path d="M 52.850311279296875 59.0882453918457 C 56.35445785522461 57.7590446472168 58.05732345581055 58.95766830444336 60.660282135009766 64.61195373535156" stroke-width="1.3494954109191895" fill="none" stroke="rgb(210, 5, 72)" stroke-opacity="0.052653432" stroke-linecap="round" stroke-linejoin="round"/>
    <path d="M -0.22919400036334991 18.95423126220703 C -2.4944138526916504 23.302391052246094 -1.15579354763031 18.487850189208984 -2.3465847969055176 20.105634689331055" stroke-width="1.1625338792800903" fill="none" stroke="rgb(95, 29, 188)" stroke-opacity="0.5212132" stroke-linecap="round" stroke-linejoin="round"/>
    <path d="M 32.219913482666016 1.6625745296478271 C 33.41826629638672 -3.875967025756836 31.168420791625977 -7.6268486976623535 37.19380569458008 -10.700701713562012 C 39.82030487060547 -15.73888111114502 37.79581069946289 -19.44322395324707 39.45481491088867 -19.376550674438477 C 43.437503814697266 -22.595190048217773 49.13417053222656 -16.500356674194336 47.353851318359375 -12.87464427947998" stroke-width="1.28728187084198" fill="none" stroke="rgb(229, 94, 57)" stroke-opacity="0.30837306" stroke-linecap="round" stroke-linejoin="round"/>
    <path d="M 85.4014663696289 108.53726196289062 C 81.96705627441406 108.11809539794922 88.67176055908203 111.54258728027344 85.78423309326172 111.43976593017578 C 90.3388442993164 116.49737548828125 90.06709289550781 114.91937255859375 86.0405502319336 116.83915710449219 C 82.93351745605469 119.0810317993164 77.65463256835938 121.15642547607422 80.0667953491211 125.52056121826172" stroke-width="1.0892857313156128" fill="none" stroke="rgb(189, 57, 121)" stroke-opacity="0.34011066" stroke-linecap="round" stroke-linejoin="round"/>
    <path d="M 86.42449188232422 25.25667381286621 C 80.51892852783203 22.243871688842773 77.7733154296875 26.225482940673828 83.19413757324219 31.6235294342041 C 82.0211181640625 26.901540756225586 80.14730072021484 30.267780303955078 82.97320556640625 28.83211898803711 C 77.73478698730469 27.178672790527344 80.65056610107422 20.818397521972656 78.80460357666016 16.363571166992188" stroke-width="1.6066280603408813" fill="none" stroke="rgb(71, 255, 89)" stroke-opacity="0.8930654" stroke-linecap="round" stroke-linejoin="round"/>
    <path d="M 8.500011444091797 31.237594604492188 C 11.111891746520996 33.89883804321289 15.20555591583252 28.78313446044922 18.742891311645508 30.86980628967285 C 12.894913673400879 27.12558937072754 14.184126853942871 28.013090133666992 10.65141773223877 22.48305320739746 C 17.349538803100586 23.456811904907227 11.803977966308594 24.36993408203125 14.604716300964355 26.188983917236328" stroke-width="1.0892857313156128" fill="none" stroke="rgb(174, 189, 52)" stroke-opacity="0.223925" stroke-linecap="round" stroke-linejoin="round"/>
    <path d="M 84.09838104248047 92.80757141113281 C 86.62677764892578 98.30597686767578 85.69937896728516 100.56768798828125 87.94644927978516 100.3858413696289 C 83.24066925048828 103.6251449584961 85.98445892333984 101.08734130859375 87.7523193359375 105.78126525878906" stroke-width="1.6393946409225464" fill="none" stroke="rgb(235, 98, 234)" stroke-opacity="0.48853633" stroke-linecap="round" stroke-linejoin="round"/>
    <path d="M 38.388275146484375 112.1335678100586 C 41.47650909423828 106.70964050292969 46.54506301879883 104.21782684326172 48.24323272705078 97.82933044433594" stroke-width="1.4677248001098633" fill="none" stroke="rgb(126, 184, 66)" stroke-opacity="0.13898833" stroke-linecap="round" stroke-linejoin="round"/>
    <path d="M 10.678369522094727 110.62943267822266 C 10.001980781555176 110.39971160888672 6.876557350158691 113.48117065429688 1.4913971424102783 113.80743408203125 C 0.8901966214179993 112.01976776123047 -0.3711327910423279 115.16482543945312 -3.202083110809326 116.91734313964844" stroke-width="1.2417529821395874" fill="none" stroke="rgb(255, 132, 255)" stroke-opacity="0.87104905" stroke-linecap="round" stroke-linejoin="round"/>
    <path d="M 70.2778091430664 22.001110076904297 C 71.60443878173828 18.265037536621094 68.46881103515625 15.271645545959473 73.91200256347656 12.840890884399414" stroke-width="1.5046210289001465" fill="none" stroke="rgb(116, 31, 255)" stroke-opacity="0.48805526" stroke-linecap="round" stroke-linejoin="round"/>
    <path d="M 51.58745574951172 61.93936538696289 C 49.95433807373047 66.58314514160156 55.258121490478516 64.27667999267578 52.49000549316406 63.539222717285156" stroke-width="1.3994874954223633" fill="none" stroke="rgb(131, 219, 64)" stroke-opacity="0.24042484" stroke-linecap="round" stroke-linejoin="round"/>
    <path d="M 103.2125244140625 84.98896026611328 C 99.73675537109375 88.6712417602539 95.91543579101562 88.87726593017578 95.6091537475586 93.27407836914062 C 92.557373046875 98.19003295898438 88.75279235839844 103.76736450195312 92.9509048461914 105.32877349853516 C 90.18750762939453 104.15386199951172 91.66979217529297 103.50969696044922 87.53909301757812 102.08006286621094" stroke-width="1.4085019826889038" fill="none" stroke="rgb(41, 209, 186)" stroke-opacity="0.73268604" stroke-linecap="round" stroke-linejoin="round"/>
    <path d="M 84.81380462646484 66.65845489501953 C 84.82154846191406 65.52583312988281 87.54486846923828 70.74435424804688 93.54769134521484 69.01469421386719 C 93.15485382080078 70.10368347167969 96.04161071777344 75.61770629882812 101.57369232177734 76.44943237304688 C 103.6797866821289 74.54920959472656 101.55442810058594 75.92256164550781 96.28483581542969 80.44469451904297" stroke-width="1.4905275106430054" fill="none" stroke="rgb(133, 131, 67)" stroke-opacity="0.94553936" stroke-linecap="round" stroke-linejoin="round"/>
    <path d="M 76.89452362060547 49.39960861206055 C 79.2484359741211 44.06257629394531 73.09651184082031 48.186500549316406 69.54291534423828 45.86664581298828" stroke-width="1.3425456285476685" fill="none" stroke="rgb(91, 196, 91)" stroke-opacity="0.12295654" stroke-linecap="round" stroke-linejoin="round"/>
    <path d="M 116.0972671508789 80.80876922607422 C 121.87335205078125 76.61064147949219 120.18540954589844 77.63985443115234 124.53978729248047 80.92536926269531 C 123.02568817138672 82.0217514038086 124.45527648925781 77.56148529052734 120.44049072265625 71.63650512695312" stroke-width="1.2906043529510498" fill="none" stroke="rgb(68, 249, 109)" stroke-opacity="0.2827822" stroke-linecap="round" stroke-linejoin="round"/>
  </g>
</svg>
