<?xml version="1.0" ?>
<svg xmlns="http://www.w3.org/2000/svg" version="1.1" width="1104.0" height="1104.0">
  <defs/>
  <g>
    <path d="M 151.00115966796875 426.9138488769531 C 534.9366455078125 495.5417175292969 983.4627685546875 422.35565185546875 1016.2683715820312 387.86627197265625 C 1012.806396484375 381.855712890625 889.159423828125 296.7477111816406 765.1343994140625 322.268310546875" stroke-width="9.85714340209961" fill="none" stroke="rgb(0, 12, 2)" stroke-opacity="0.95250493" stroke-linecap="round" stroke-linejoin="round"/>
    <path d="M 362.8652038574219 483.8647766113281 C 358.7967224121094 681.2691040039062 328.309326171875 934.3349609375 356.2257995605469 945.0525512695312 C 419.3236389160156 934.9517822265625 683.88916015625 887.2171020507812 739.6815185546875 801.3257446289062 C 751.109375 657.8693237304688 755.5620727539062 615.6971435546875 774.529052734375 618.586669921875" stroke-width="9.85714340209961" fill="none" stroke="rgb(2, 14, 0)" stroke-opacity="0.9422596" stroke-linecap="round" stroke-linejoin="round"/>
    <path d="M 763.86376953125 477.4417419433594 C 840.3429565429688 470.43927001953125 876.2054443359375 460.04443359375 883.739501953125 499.891845703125 C 857.8672485351562 524.3642578125 848.1898803710938 551.1002197265625 837.7921752929688 627.3250732421875 C 795.0629272460938 685.2096557617188 832.2800903320312 694.8072509765625 813.81298828125 681.3257446289062" stroke-width="9.85714340209961" fill="none" stroke="rgb(2, 10, 2)" stroke-opacity="0.9605493" stroke-linecap="round" stroke-linejoin="round"/>
    <path d="M 450.7104797363281 542.8113403320312 C 432.4229736328125 605.6619262695312 401.747314453125 713.76611328125 419.6876220703125 723.11279296875 C 416.7202453613281 708.9241943359375 469.0703430175781 716.1573486328125 470.5337219238281 715.2737426757812" stroke-width="12.62356185913086" fill="none" stroke="rgb(14, 6, 0)" stroke-opacity="0.9830106" stroke-linecap="round" stroke-linejoin="round"/>
    <path d="M 373.7507629394531 552.96044921875 C 433.7398681640625 556.1575317382812 398.4450988769531 536.1148071289062 451.5880432128906 541.2651977539062" stroke-width="9.85714340209961" fill="none" stroke="rgb(18, 0, 2)" stroke-opacity="0.9816831" stroke-linecap="round" stroke-linejoin="round"/>
    <path d="M 532.158447265625 576.4771118164062 C 585.111083984375 557.0616455078125 541.6166381835938 559.8735961914062 585.825927734375 563.3071899414062" stroke-width="9.85714340209961" fill="none" stroke="rgb(15, 0, 4)" stroke-opacity="0.9564826" stroke-linecap="round" stroke-linejoin="round"/>
    <path d="M 411.9690856933594 801.4718017578125 C 535.4512329101562 800.6943359375 547.171630859375 796.0911865234375 528.768310546875 798.9910888671875" stroke-width="10.840486526489258" fill="none" stroke="rgb(0, 18, 0)" stroke-opacity="0.95552117" stroke-linecap="round" stroke-linejoin="round"/>
    <path d="M 426.04443359375 526.9861450195312 C 458.12286376953125 509.4172668457031 454.767822265625 473.7310791015625 511.30279541015625 432.3719787597656" stroke-width="9.85714340209961" fill="none" stroke="rgb(177, 167, 138)" stroke-opacity="0.27348512" stroke-linecap="round" stroke-linejoin="round"/>
    <path d="M 530.5989379882812 785.7988891601562 C 507.7945861816406 813.5609741210938 521.000244140625 814.1073608398438 535.8950805664062 764.4677124023438 C 532.0961303710938 726.0357055664062 549.9030151367188 778.4313354492188 609.4537353515625 801.0084838867188" stroke-width="16.29869842529297" fill="none" stroke="rgb(153, 35, 43)" stroke-opacity="0.89076054" stroke-linecap="round" stroke-linejoin="round"/>
    <path d="M 384.31414794921875 545.1904296875 C 389.77752685546875 562.06005859375 386.0566711425781 548.264892578125 378.7298889160156 504.63104248046875" stroke-width="9.85714340209961" fill="none" stroke="rgb(104, 229, 91)" stroke-opacity="0.42464232" stroke-linecap="round" stroke-linejoin="round"/>
    <path d="M 455.5743103027344 540.8934936523438 C 480.12188720703125 591.6695556640625 463.6142883300781 618.2392578125 448.4239501953125 609.8405151367188 C 443.1558532714844 646.337890625 501.6548156738281 610.987060546875 554.1417846679688 591.302001953125 C 553.5994873046875 656.1682739257812 546.1947021484375 686.3026123046875 584.89111328125 733.3700561523438" stroke-width="17.163423538208008" fill="none" stroke="rgb(247, 0, 10)" stroke-opacity="0.82947564" stroke-linecap="round" stroke-linejoin="round"/>
    <path d="M 394.2664794921875 545.5555419921875 C 417.7856140136719 551.1649169921875 396.7550964355469 574.5962524414062 398.88787841796875 618.7855834960938 C 403.20733642578125 588.750244140625 363.211669921875 555.2683715820312 384.829833984375 493.558837890625" stroke-width="16.182268142700195" fill="none" stroke="rgb(253, 142, 171)" stroke-opacity="0.9409576" stroke-linecap="round" stroke-linejoin="round"/>
    <path d="M 473.6492004394531 539.5872802734375 C 423.83868408203125 520.221435546875 411.74005126953125 530.5574340820312 386.9125671386719 546.0718383789062 C 362.2161560058594 572.55908203125 416.1510009765625 574.9283447265625 445.09027099609375 609.8634643554688" stroke-width="10.815646171569824" fill="none" stroke="rgb(229, 103, 67)" stroke-opacity="0.30177623" stroke-linecap="round" stroke-linejoin="round"/>
    <path d="M 378.91021728515625 487.052490234375 C 342.7174987792969 468.68408203125 306.7579345703125 423.1014404296875 270.31610107421875 451.1703796386719" stroke-width="9.85714340209961" fill="none" stroke="rgb(215, 111, 82)" stroke-opacity="0.5463537" stroke-linecap="round" stroke-linejoin="round"/>
    <path d="M 616.1405639648438 542.8201293945312 C 667.52294921875 575.519287109375 628.2522583007812 537.978759765625 575.5947875976562 540.1148071289062 C 584.2945556640625 544.1474609375 547.82373046875 491.7920837402344 480.1746826171875 449.56341552734375" stroke-width="9.85714340209961" fill="none" stroke="rgb(51, 22, 127)" stroke-opacity="0.56015563" stroke-linecap="round" stroke-linejoin="round"/>
    <path d="M 518.4324951171875 431.2384338378906 C 447.04620361328125 434.1526184082031 409.0005187988281 465.1412658691406 374.49505615234375 522.6016235351562" stroke-width="9.85714340209961" fill="none" stroke="rgb(123, 229, 169)" stroke-opacity="0.06336862" stroke-linecap="round" stroke-linejoin="round"/>
    <path d="M 613.485595703125 544.5839233398438 C 641.2412719726562 559.8112182617188 670.3545532226562 523.6072998046875 668.0771484375 494.4723815917969 C 731.328369140625 500.8580017089844 667.5040283203125 568.9911499023438 699.5711669921875 591.0927734375 C 651.666259765625 562.5094604492188 598.0440673828125 586.448974609375 605.2503051757812 595.2068481445312" stroke-width="10.329713821411133" fill="none" stroke="rgb(81, 16, 43)" stroke-opacity="0.352733" stroke-linecap="round" stroke-linejoin="round"/>
    <path d="M 737.9282836914062 776.7666625976562 C 689.7716674804688 777.88623046875 716.8997192382812 773.2274780273438 767.4097290039062 814.8342895507812" stroke-width="11.080833435058594" fill="none" stroke="rgb(222, 233, 191)" stroke-opacity="0.9119358" stroke-linecap="round" stroke-linejoin="round"/>
    <path d="M 801.5023193359375 740.0353393554688 C 808.38525390625 716.231689453125 803.7947998046875 678.8269653320312 852.5838623046875 627.1305541992188" stroke-width="17.226768493652344" fill="none" stroke="rgb(229, 67, 75)" stroke-opacity="0.48124564" stroke-linecap="round" stroke-linejoin="round"/>
    <path d="M 283.9140930175781 838.91943359375 C 280.6098327636719 839.8600463867188 298.374267578125 904.8311767578125 311.88189697265625 885.724853515625 C 267.9047546386719 881.8078002929688 289.5043640136719 831.6764526367188 274.4783935546875 771.1744995117188" stroke-width="9.85714340209961" fill="none" stroke="rgb(95, 98, 217)" stroke-opacity="0.8498821" stroke-linecap="round" stroke-linejoin="round"/>
  </g>
</svg>
