<?xml version="1.0" ?>
<svg xmlns="http://www.w3.org/2000/svg" version="1.1" width="122.0" height="122.0">
  <defs/>
  <g>
    <path d="M 65.26383972167969 25.38279151916504 C 65.07406616210938 24.35536003112793 65.6842269897461 23.90691566467285 66.3560562133789 24.633543014526367 C 66.69915008544922 23.64356803894043 65.3399887084961 21.810684204101562 65.79756927490234 21.239442825317383 C 69.98430633544922 21.421730041503906 73.594970703125 18.450904846191406 75.55517578125 22.30980110168457 C 78.46227264404297 25.737022399902344 79.16277313232422 35.29084777832031 78.28742980957031 42.15007400512695 C 78.91510009765625 46.95064163208008 77.9841079711914 46.90018844604492 76.59286499023438 48.381736755371094 C 75.48854064941406 48.52518844604492 75.14366912841797 51.748409271240234 75.21321105957031 55.01402282714844 C 75.82767486572266 56.77976608276367 75.01265716552734 57.10995864868164 72.05440521240234 57.580413818359375 C 69.4919204711914 58.48131561279297 65.67716217041016 60.04241180419922 63.37074279785156 62.558109283447266 C 60.57807922363281 64.30535888671875 55.982337951660156 64.09148406982422 53.58365249633789 65.16448211669922 C 50.8542366027832 65.55227661132812 49.14447784423828 65.9620590209961 49.460758209228516 68.34379577636719 C 49.932254791259766 70.33084869384766 52.86562728881836 73.87408447265625 54.74815368652344 78.16490173339844 C 58.379974365234375 79.59574890136719 57.74150848388672 87.01477813720703 57.982933044433594 93.56018829345703" stroke-width="2.0244827270507812" fill="none" stroke="rgb(60, 24, 20)" stroke-opacity="0.8544523" stroke-linecap="round" stroke-linejoin="round"/>
    <path d="M 72.65965270996094 22.217069625854492 C 75.55429077148438 18.83252716064453 78.85261535644531 15.752541542053223 81.85071563720703 12.5834379196167 C 87.2752685546875 9.64859390258789 81.70204162597656 12.656853675842285 74.21231079101562 14.470380783081055" stroke-width="2.061540126800537" fill="none" stroke="rgb(144, 255, 220)" stroke-opacity="0.27334476" stroke-linecap="round" stroke-linejoin="round"/>
    <path d="M 74.55506134033203 41.822296142578125 C 72.65274047851562 41.88405990600586 72.0718002319336 41.35792541503906 71.57365417480469 39.67619323730469 C 69.73713684082031 40.200721740722656 75.56399536132812 45.03690719604492 79.93250274658203 51.431541442871094" stroke-width="2.303884983062744" fill="none" stroke="rgb(28, 255, 227)" stroke-opacity="0.86317855" stroke-linecap="round" stroke-linejoin="round"/>
    <path d="M 55.06658172607422 79.74361419677734 C 55.464927673339844 76.45811462402344 57.33073806762695 77.9347915649414 63.64014434814453 76.03654479980469" stroke-width="1.4251023530960083" fill="none" stroke="rgb(63, 98, 116)" stroke-opacity="0.87420994" stroke-linecap="round" stroke-linejoin="round"/>
    <path d="M 64.02397155761719 62.147212982177734 C 70.32884979248047 65.47661590576172 71.07881164550781 68.11372375488281 64.1202621459961 71.7756576538086" stroke-width="1.0892857313156128" fill="none" stroke="rgb(115, 235, 124)" stroke-opacity="0.40048307" stroke-linecap="round" stroke-linejoin="round"/>
    <path d="M 78.05148315429688 41.624332427978516 C 80.268310546875 44.20319747924805 78.00190734863281 38.28284454345703 77.42369842529297 34.11316680908203" stroke-width="1.172635555267334" fill="none" stroke="rgb(55, 14, 131)" stroke-opacity="0.1949478" stroke-linecap="round" stroke-linejoin="round"/>
    <path d="M 66.14469146728516 26.065021514892578 C 64.0836181640625 25.269302368164062 61.319236755371094 25.6153621673584 57.8652458190918 26.30055046081543 C 55.5833854675293 26.369518280029297 55.2479248046875 24.330726623535156 57.43159484863281 21.770919799804688" stroke-width="1.4565763473510742" fill="none" stroke="rgb(96, 223, 174)" stroke-opacity="0.4702829" stroke-linecap="round" stroke-linejoin="round"/>
    <path d="M 73.36564636230469 48.77294921875 C 70.66545104980469 49.47354507446289 64.70765686035156 49.9443359375 72.7931900024414 49.7457160949707" stroke-width="1.4049761295318604" fill="none" stroke="rgb(158, 241, 194)" stroke-opacity="0.45261967" stroke-linecap="round" stroke-linejoin="round"/>
    <path d="M 62.687644958496094 62.85213851928711 C 65.9537353515625 59.911170959472656 68.19808197021484 65.85884857177734 63.59514236450195 66.26801300048828" stroke-width="1.1927870512008667" fill="none" stroke="rgb(27, 215, 180)" stroke-opacity="0.47410673" stroke-linecap="round" stroke-linejoin="round"/>
    <path d="M 76.0951156616211 50.600135803222656 C 71.82783508300781 52.058528900146484 68.50428009033203 53.58195495605469 67.25177001953125 56.27424621582031 C 65.6753158569336 59.40251541137695 66.0072250366211 53.4845085144043 66.92886352539062 48.67218780517578" stroke-width="1.0892857313156128" fill="none" stroke="rgb(97, 155, 121)" stroke-opacity="0.17897496" stroke-linecap="round" stroke-linejoin="round"/>
    <path d="M 64.37805938720703 70.0875473022461 C 66.36310577392578 66.72444152832031 69.97370147705078 63.589683532714844 69.36196899414062 59.943782806396484 C 68.32948303222656 54.06565475463867 66.99331665039062 49.204795837402344 64.92634582519531 44.52294921875 C 61.43323516845703 40.587032318115234 62.28565216064453 49.037757873535156 62.77914810180664 53.3722038269043" stroke-width="1.3857879638671875" fill="none" stroke="rgb(24, 218, 226)" stroke-opacity="0.26983953" stroke-linecap="round" stroke-linejoin="round"/>
    <path d="M 64.1452407836914 69.90924835205078 C 62.00398635864258 62.35537338256836 63.16311264038086 61.18913269042969 62.825496673583984 51.33871841430664" stroke-width="1.9397313594818115" fill="none" stroke="rgb(228, 31, 92)" stroke-opacity="0.6510711" stroke-linecap="round" stroke-linejoin="round"/>
    <path d="M 78.75480651855469 35.43302917480469 C 79.4877700805664 27.265979766845703 77.46226501464844 31.878803253173828 77.82269287109375 31.48535919189453" stroke-width="1.6627120971679688" fill="none" stroke="rgb(168, 52, 15)" stroke-opacity="0.1770443" stroke-linecap="round" stroke-linejoin="round"/>
    <path d="M 78.97540283203125 35.253822326660156 C 81.04307556152344 32.144832611083984 83.15945434570312 30.015058517456055 85.310791015625 27.986801147460938 C 87.49038696289062 26.31089210510254 88.05506134033203 24.3753662109375 86.7178955078125 22.663455963134766" stroke-width="1.678583025932312" fill="none" stroke="rgb(223, 91, 179)" stroke-opacity="0.044081118" stroke-linecap="round" stroke-linejoin="round"/>
    <path d="M 63.16056442260742 75.73699951171875 C 66.29129028320312 73.1466293334961 72.45613098144531 76.12271118164062 69.7562026977539 71.3135757446289" stroke-width="1.608319640159607" fill="none" stroke="rgb(60, 49, 0)" stroke-opacity="0.17634499" stroke-linecap="round" stroke-linejoin="round"/>
    <path d="M 63.34992980957031 66.0533447265625 C 64.64212799072266 71.54695892333984 66.1609115600586 78.72432708740234 63.68682098388672 80.8814697265625 C 63.436275482177734 83.889892578125 57.52338790893555 82.08338165283203 52.11559295654297 80.56448364257812 C 48.15817642211914 78.02027893066406 50.41761016845703 74.90654754638672 52.174041748046875 72.2207260131836" stroke-width="1.2595611810684204" fill="none" stroke="rgb(59, 160, 19)" stroke-opacity="0.12975529" stroke-linecap="round" stroke-linejoin="round"/>
    <path d="M 65.59657287597656 75.5929183959961 C 63.88864517211914 76.32844543457031 63.13337707519531 76.98226165771484 62.82097244262695 78.029052734375 C 61.85263442993164 76.16098022460938 60.72881317138672 71.27212524414062 59.301055908203125 66.880615234375" stroke-width="1.6414999961853027" fill="none" stroke="rgb(61, 160, 126)" stroke-opacity="0.571525" stroke-linecap="round" stroke-linejoin="round"/>
    <path d="M 114.91972351074219 73.30683135986328 C 114.42501068115234 71.78330993652344 112.90203094482422 70.96846008300781 113.17848205566406 69.02838897705078 C 112.66586303710938 67.32041931152344 114.07315063476562 62.96244430541992 115.30073547363281 58.02004623413086 C 116.63270568847656 53.7193489074707 111.22791290283203 61.249122619628906 104.686767578125 68.39261627197266" stroke-width="1.1635557413101196" fill="none" stroke="rgb(170, 255, 0)" stroke-opacity="0.31189167" stroke-linecap="round" stroke-linejoin="round"/>
    <path d="M 21.195791244506836 58.37849807739258 C 23.53363609313965 58.11253356933594 25.223600387573242 57.54973220825195 25.89852523803711 55.62033462524414 C 29.198442459106445 55.39073944091797 23.81893539428711 55.7664680480957 20.5325870513916 55.17058563232422" stroke-width="1.2302908897399902" fill="none" stroke="rgb(108, 184, 32)" stroke-opacity="0.166886" stroke-linecap="round" stroke-linejoin="round"/>
    <path d="M 11.852428436279297 86.62261962890625 C 9.36175537109375 85.78617858886719 6.029344081878662 86.70316314697266 2.905979871749878 87.61068725585938 C 1.9988536834716797 87.56825256347656 5.71710729598999 80.38666534423828 8.855579376220703 72.17296600341797" stroke-width="1.0892857313156128" fill="none" stroke="rgb(125, 50, 86)" stroke-opacity="0.6199342" stroke-linecap="round" stroke-linejoin="round"/>
    <path d="M 73.810546875 89.45689392089844 C 67.97015380859375 91.39057922363281 62.952537536621094 96.35333251953125 68.05875396728516 93.88677978515625" stroke-width="1.0892857313156128" fill="none" stroke="rgb(133, 219, 183)" stroke-opacity="0.7728657" stroke-linecap="round" stroke-linejoin="round"/>
    <path d="M 65.5670166015625 69.53834533691406 C 68.58165740966797 77.0396957397461 65.19007110595703 75.98272705078125 60.77308654785156 77.0838623046875" stroke-width="1.2888661623001099" fill="none" stroke="rgb(158, 136, 129)" stroke-opacity="0.460541" stroke-linecap="round" stroke-linejoin="round"/>
    <path d="M 84.69850158691406 -1.545740008354187 C 84.81927490234375 -1.8153599500656128 84.9388427734375 -2.0837600231170654 84.36604309082031 -0.6661472320556641 C 83.28657531738281 0.2410888969898224 80.98068237304688 2.299259901046753 77.40399169921875 3.248426914215088 C 74.99591827392578 5.114477157592773 74.38642883300781 10.032734870910645 73.74421691894531 16.05686378479004" stroke-width="1.5002946853637695" fill="none" stroke="rgb(100, 217, 155)" stroke-opacity="0.0" stroke-linecap="round" stroke-linejoin="round"/>
    <path d="M 66.83821105957031 74.73033905029297 C 74.2017822265625 71.37586212158203 77.02022552490234 71.6181869506836 83.7967758178711 67.2811508178711" stroke-width="2.714845895767212" fill="none" stroke="rgb(254, 53, 72)" stroke-opacity="0.48244208" stroke-linecap="round" stroke-linejoin="round"/>
    <path d="M 104.06825256347656 80.7382583618164 C 108.37320709228516 77.15457916259766 110.42838287353516 72.87959289550781 108.17695617675781 70.67768096923828 C 106.93136596679688 70.86759185791016 103.2860107421875 76.06988525390625 98.62413024902344 80.76122283935547 C 92.76425170898438 85.30690002441406 98.41710662841797 87.75743865966797 106.59394836425781 90.55305480957031" stroke-width="1.0892857313156128" fill="none" stroke="rgb(163, 87, 129)" stroke-opacity="0.35944867" stroke-linecap="round" stroke-linejoin="round"/>
    <path d="M 115.05335998535156 29.14478874206543 C 115.56340789794922 19.885700225830078 110.37669372558594 19.746578216552734 107.68681335449219 29.450347900390625" stroke-width="1.0892857313156128" fill="none" stroke="rgb(143, 36, 255)" stroke-opacity="0.7596426" stroke-linecap="round" stroke-linejoin="round"/>
    <path d="M 109.62516021728516 114.21331787109375 C 107.08251953125 108.38191223144531 104.26995086669922 104.00867462158203 105.82447052001953 102.49159240722656 C 106.08605194091797 102.65193939208984 110.70416259765625 106.41277313232422 115.03485870361328 109.78890991210938 C 118.97852325439453 113.81543731689453 111.95121002197266 114.42902374267578 104.2608642578125 115.98505401611328" stroke-width="1.6024212837219238" fill="none" stroke="rgb(170, 79, 247)" stroke-opacity="0.15830934" stroke-linecap="round" stroke-linejoin="round"/>
    <path d="M 81.27537536621094 108.5016098022461 C 84.93728637695312 109.18033599853516 87.6346206665039 110.34998321533203 87.45600128173828 111.12528228759766 C 87.94515991210938 111.17615509033203 85.78768920898438 111.80460357666016 85.18515014648438 113.7557601928711 C 83.22959899902344 112.975341796875 85.9018325805664 118.13508605957031 88.24269104003906 123.5968246459961" stroke-width="1.0892857313156128" fill="none" stroke="rgb(239, 208, 223)" stroke-opacity="0.030131573" stroke-linecap="round" stroke-linejoin="round"/>
    <path d="M 72.8200454711914 89.93038940429688 C 77.5401840209961 87.7459716796875 81.11224365234375 84.75691223144531 87.06803131103516 83.82382202148438 C 91.12434387207031 81.49934387207031 93.91720581054688 78.14180755615234 94.7933120727539 75.68757629394531" stroke-width="1.315708875656128" fill="none" stroke="rgb(156, 209, 186)" stroke-opacity="0.62138605" stroke-linecap="round" stroke-linejoin="round"/>
    <path d="M 5.896557807922363 86.85599517822266 C 6.593837738037109 85.76158905029297 9.855463981628418 86.94551849365234 18.987377166748047 81.5610122680664" stroke-width="1.9229356050491333" fill="none" stroke="rgb(54, 3, 255)" stroke-opacity="0.7444311" stroke-linecap="round" stroke-linejoin="round"/>
    <path d="M 119.92565155029297 -2.8558809757232666 C 120.2123794555664 -1.3966649770736694 120.37012481689453 -0.07789897918701172 118.55498504638672 1.1939297914505005 C 118.11251068115234 1.2992198467254639 119.02983093261719 0.22007298469543457 120.33650970458984 -0.4926057755947113" stroke-width="1.0892857313156128" fill="none" stroke="rgb(177, 226, 82)" stroke-opacity="0.24773031" stroke-linecap="round" stroke-linejoin="round"/>
    <path d="M 95.50663757324219 7.178585052490234 C 98.6974105834961 7.731431484222412 95.55057525634766 9.415807723999023 95.8510971069336 15.442490577697754" stroke-width="1.0892857313156128" fill="none" stroke="rgb(160, 193, 105)" stroke-opacity="0.25743407" stroke-linecap="round" stroke-linejoin="round"/>
    <path d="M 78.43824768066406 62.64439010620117 C 81.70317840576172 64.58596801757812 84.30719757080078 65.4494857788086 87.27684783935547 66.0225830078125 C 88.66136169433594 68.69906616210938 84.84622955322266 64.75032043457031 82.49907684326172 59.510276794433594" stroke-width="1.2052974700927734" fill="none" stroke="rgb(43, 0, 253)" stroke-opacity="0.71800035" stroke-linecap="round" stroke-linejoin="round"/>
    <path d="M 42.29827880859375 13.391939163208008 C 43.34893035888672 13.850240707397461 42.274009704589844 14.457937240600586 41.579280853271484 13.680551528930664 C 40.00822830200195 12.99651050567627 38.967750549316406 13.668169021606445 37.94436264038086 13.043549537658691 C 35.94559860229492 14.061811447143555 34.64768600463867 16.228364944458008 34.301918029785156 18.978029251098633 C 32.93720626831055 22.197351455688477 32.371055603027344 24.580528259277344 32.542396545410156 26.640554428100586 C 32.61117935180664 30.02701759338379 32.49695587158203 32.44948959350586 33.93733215332031 33.414222717285156 C 33.95459747314453 35.103111267089844 33.92184829711914 36.696590423583984 33.8256950378418 39.75752258300781 C 33.39659118652344 41.19401168823242 36.48273849487305 42.192138671875 38.28888702392578 42.87763595581055 C 39.775596618652344 46.35731506347656 42.32460403442383 49.115478515625 45.64460372924805 50.7852783203125 C 47.172569274902344 54.85311508178711 47.97275161743164 57.0919303894043 48.026729583740234 60.94573974609375 C 49.01995086669922 61.45479965209961 49.55497360229492 62.529048919677734 49.80504608154297 62.48533248901367 C 48.054656982421875 62.525909423828125 46.90576171875 63.310951232910156 45.62648010253906 63.77605438232422 C 43.20222091674805 66.0796127319336 41.84560012817383 68.53347778320312 39.047080993652344 69.92333984375 C 36.60861587524414 73.66194915771484 34.80497741699219 73.80712127685547 30.83154296875 76.40422058105469 C 29.31560707092285 77.63435363769531 28.416399002075195 79.88795471191406 27.446693420410156 80.69092559814453" stroke-width="1.2447679042816162" fill="none" stroke="rgb(12, 35, 14)" stroke-opacity="0.9780896" stroke-linecap="round" stroke-linejoin="round"/>
    <path d="M 37.570674896240234 117.1620101928711 C 36.04035186767578 116.43106079101562 36.4583740234375 113.00264739990234 37.285430908203125 112.97052001953125 C 37.39584732055664 107.20819091796875 37.2558479309082 99.36663818359375 37.28019714355469 92.92262268066406 C 36.4739990234375 71.48707580566406 37.296836853027344 50.00477981567383 37.1815071105957 28.920028686523438" stroke-width="1.433320164680481" fill="none" stroke="rgb(27, 20, 22)" stroke-opacity="1.0" stroke-linecap="round" stroke-linejoin="round"/>
    <path d="M 56.49383544921875 25.413625717163086 C 56.950416564941406 25.29551124572754 55.987754821777344 25.391685485839844 57.05268859863281 25.826770782470703 C 55.2383918762207 25.748273849487305 53.18629837036133 25.94001007080078 50.82765579223633 25.384258270263672 C 49.10792541503906 25.936017990112305 47.51146697998047 25.722700119018555 45.50236129760742 25.134227752685547 C 42.48981857299805 25.300500869750977 40.53289794921875 23.86359214782715 37.166709899902344 24.18943977355957 C 38.07136917114258 22.08034896850586 38.40029525756836 23.84020233154297 37.5079345703125 23.07073211669922 C 34.53176498413086 21.367467880249023 31.450864791870117 20.3077449798584 28.023883819580078 22.717151641845703" stroke-width="1.0892857313156128" fill="none" stroke="rgb(31, 37, 13)" stroke-opacity="0.94804937" stroke-linecap="round" stroke-linejoin="round"/>
    <path d="M 45.936981201171875 50.34215545654297 C 46.65519714355469 45.89598846435547 44.43614959716797 49.75418472290039 48.561283111572266 54.17040252685547" stroke-width="1.0892857313156128" fill="none" stroke="rgb(43, 74, 230)" stroke-opacity="0.2133852" stroke-linecap="round" stroke-linejoin="round"/>
    <path d="M 98.28329467773438 80.5606918334961 C 99.54293060302734 85.09174346923828 100.82315826416016 83.92292785644531 103.5071792602539 84.96705627441406 C 100.7221908569336 87.94517517089844 101.12089538574219 88.9291763305664 100.67195892333984 88.5518569946289 C 100.26789093017578 87.78211975097656 101.4390869140625 87.04310607910156 96.97491455078125 92.51526641845703" stroke-width="1.0892857313156128" fill="none" stroke="rgb(101, 39, 231)" stroke-opacity="0.45648688" stroke-linecap="round" stroke-linejoin="round"/>
    <path d="M 87.66708374023438 27.570154190063477 C 91.53433227539062 31.80281639099121 85.47956085205078 36.11787796020508 87.75419616699219 35.981544494628906 C 82.32523345947266 41.46382141113281 87.34320831298828 41.76750183105469 91.98579406738281 44.789554595947266" stroke-width="1.2266111373901367" fill="none" stroke="rgb(184, 192, 34)" stroke-opacity="0.11184718" stroke-linecap="round" stroke-linejoin="round"/>
    <path d="M 57.384159088134766 94.4015121459961 C 55.94558334350586 90.86505126953125 53.764469146728516 91.66690826416016 48.41511535644531 94.81902313232422 C 54.06489181518555 91.82523345947266 54.8894157409668 87.55521392822266 55.2374153137207 91.96492004394531" stroke-width="1.0892857313156128" fill="none" stroke="rgb(65, 183, 87)" stroke-opacity="0.4916137" stroke-linecap="round" stroke-linejoin="round"/>
    <path d="M 86.84456634521484 27.618438720703125 C 82.24675750732422 33.51005172729492 81.92005157470703 31.753170013427734 82.61814880371094 25.829896926879883 C 75.27153778076172 26.876068115234375 70.3125 34.40812683105469 66.7035903930664 29.872709274291992 C 65.64728546142578 33.55027389526367 67.04069519042969 38.5378532409668 73.25003814697266 42.94941329956055" stroke-width="1.1535227298736572" fill="none" stroke="rgb(205, 241, 138)" stroke-opacity="0.3151103" stroke-linecap="round" stroke-linejoin="round"/>
    <path d="M 64.20597839355469 76.48600006103516 C 68.36148071289062 77.59833526611328 64.73854064941406 82.7130126953125 62.56916427612305 79.60958099365234" stroke-width="1.1647056341171265" fill="none" stroke="rgb(209, 24, 245)" stroke-opacity="0.1168104" stroke-linecap="round" stroke-linejoin="round"/>
    <path d="M 116.436279296875 111.4743881225586 C 119.20999908447266 106.49110412597656 111.88539123535156 110.9775161743164 112.03541564941406 107.18231964111328 C 112.16033935546875 106.66566467285156 113.97737884521484 112.45431518554688 114.20195770263672 112.27595520019531" stroke-width="1.0892857313156128" fill="none" stroke="rgb(98, 116, 165)" stroke-opacity="0.82678354" stroke-linecap="round" stroke-linejoin="round"/>
    <path d="M 59.79347229003906 75.920654296875 C 67.48094177246094 70.23092651367188 64.3827133178711 69.3687973022461 63.5718879699707 67.82556915283203 C 62.65633773803711 69.26309967041016 67.12825012207031 68.63023376464844 68.93110656738281 68.19557189941406" stroke-width="1.1048126220703125" fill="none" stroke="rgb(170, 255, 99)" stroke-opacity="0.6842568" stroke-linecap="round" stroke-linejoin="round"/>
    <path d="M 113.79756164550781 112.93148040771484 C 117.78997039794922 114.0479965209961 122.492431640625 118.6541748046875 115.3401107788086 117.70069122314453" stroke-width="1.0892857313156128" fill="none" stroke="rgb(184, 40, 53)" stroke-opacity="0.28173658" stroke-linecap="round" stroke-linejoin="round"/>
    <path d="M 54.25796127319336 91.57794189453125 C 57.84600830078125 91.78880310058594 60.799949645996094 92.39893341064453 57.65647506713867 96.37962341308594 C 58.85785675048828 96.99852752685547 61.64005661010742 101.67166137695312 56.712188720703125 99.92697143554688" stroke-width="1.4000074863433838" fill="none" stroke="rgb(153, 47, 78)" stroke-opacity="0.82052475" stroke-linecap="round" stroke-linejoin="round"/>
    <path d="M 69.40258026123047 69.79077911376953 C 72.0987319946289 68.79157257080078 74.16105651855469 68.55661010742188 68.60438537597656 70.0489273071289 C 72.94084167480469 68.87185668945312 71.21404266357422 69.08895111083984 70.74373626708984 63.04557800292969 C 72.20460510253906 67.98235321044922 73.67662048339844 70.04058074951172 73.50367736816406 73.15857696533203" stroke-width="1.0892857313156128" fill="none" stroke="rgb(134, 115, 199)" stroke-opacity="0.66281265" stroke-linecap="round" stroke-linejoin="round"/>
    <path d="M 62.07115173339844 79.31535339355469 C 61.384151458740234 79.1861801147461 62.77283477783203 79.89285278320312 60.197731018066406 74.70589447021484 C 64.71409606933594 77.99922180175781 67.59742736816406 82.87487030029297 71.65740966796875 84.299072265625" stroke-width="1.0892857313156128" fill="none" stroke="rgb(218, 79, 207)" stroke-opacity="0.5982321" stroke-linecap="round" stroke-linejoin="round"/>
    <path d="M 62.217369079589844 79.90351104736328 C 63.13521194458008 77.60679626464844 61.80671310424805 79.48859405517578 56.96883773803711 81.08739471435547 C 55.89081573486328 84.74046325683594 54.959110260009766 82.41105651855469 58.47235870361328 80.51557159423828 C 56.9771614074707 76.06268310546875 54.68705368041992 70.80626678466797 51.49652862548828 74.48587036132812" stroke-width="1.0892857313156128" fill="none" stroke="rgb(186, 18, 196)" stroke-opacity="0.3671222" stroke-linecap="round" stroke-linejoin="round"/>
    <path d="M 68.62213897705078 67.99454498291016 C 67.38847351074219 63.670352935791016 71.3384780883789 65.03217315673828 72.77171325683594 72.31868743896484 C 74.81642150878906 78.315673828125 72.68922424316406 73.46625518798828 68.26927185058594 70.5339126586914 C 73.38583374023438 74.03434753417969 75.86539459228516 77.64873504638672 73.39356231689453 74.25894165039062" stroke-width="1.0892857313156128" fill="none" stroke="rgb(224, 233, 102)" stroke-opacity="0.87284946" stroke-linecap="round" stroke-linejoin="round"/>
    <path d="M 73.1451644897461 41.80997848510742 C 67.41425323486328 46.75837326049805 71.89418029785156 53.34015655517578 73.21728515625 45.0169563293457" stroke-width="1.6968010663986206" fill="none" stroke="rgb(0, 238, 69)" stroke-opacity="0.95089865" stroke-linecap="round" stroke-linejoin="round"/>
    <path d="M 62.32619857788086 78.3770980834961 C 59.66283416748047 74.68283081054688 53.16524124145508 81.03827667236328 55.56609344482422 74.30919647216797 C 50.27511215209961 74.5738296508789 47.90665054321289 77.99345397949219 42.43794250488281 73.58326721191406 C 44.94208526611328 68.80854797363281 41.9026985168457 69.39994049072266 43.113433837890625 69.6875228881836" stroke-width="1.0892857313156128" fill="none" stroke="rgb(66, 28, 189)" stroke-opacity="0.10236176" stroke-linecap="round" stroke-linejoin="round"/>
    <path d="M 27.343263626098633 120.25049591064453 C 32.408607482910156 118.92001342773438 26.595735549926758 118.84867858886719 29.29051971435547 120.41287994384766 C 24.16045570373535 116.74150848388672 26.037567138671875 116.89087677001953 21.76395606994629 122.88861846923828" stroke-width="1.0892857313156128" fill="none" stroke="rgb(89, 203, 93)" stroke-opacity="0.72086555" stroke-linecap="round" stroke-linejoin="round"/>
    <path d="M 56.665409088134766 107.81521606445312 C 58.227500915527344 106.65923309326172 64.47085571289062 109.89064025878906 56.94731140136719 112.6318130493164 C 55.766929626464844 114.40257263183594 60.8679313659668 111.04407501220703 66.41279602050781 107.42217254638672 C 61.97837448120117 107.07975006103516 60.23531723022461 110.2095718383789 59.98670196533203 109.32524871826172" stroke-width="1.0892857313156128" fill="none" stroke="rgb(247, 32, 91)" stroke-opacity="0.40198764" stroke-linecap="round" stroke-linejoin="round"/>
    <path d="M 20.491159439086914 74.39156341552734 C 19.860858917236328 74.63438415527344 24.013347625732422 80.32247924804688 19.029829025268555 83.22795867919922 C 12.077234268188477 82.35173797607422 8.046443939208984 82.16236114501953 7.370877265930176 86.27466583251953 C 8.414859771728516 88.83393859863281 6.202016830444336 91.69776916503906 6.762829303741455 91.5491943359375" stroke-width="1.0892857313156128" fill="none" stroke="rgb(15, 61, 100)" stroke-opacity="0.08918282" stroke-linecap="round" stroke-linejoin="round"/>
    <path d="M 65.36070251464844 31.556974411010742 C 70.21435546875 31.705402374267578 71.24916076660156 32.92261505126953 67.6708755493164 32.03639602661133" stroke-width="1.4775437116622925" fill="none" stroke="rgb(189, 217, 189)" stroke-opacity="0.10438581" stroke-linecap="round" stroke-linejoin="round"/>
    <path d="M 4.245562553405762 24.818115234375 C 5.117432594299316 23.638643264770508 2.1274616718292236 26.786954879760742 -0.7228242754936218 27.824304580688477 C 1.5977132320404053 27.77871322631836 3.8382363319396973 24.298917770385742 3.278149127960205 24.71427345275879" stroke-width="1.0892857313156128" fill="none" stroke="rgb(115, 201, 154)" stroke-opacity="0.57198906" stroke-linecap="round" stroke-linejoin="round"/>
    <path d="M 76.5567855834961 115.68287658691406 C 82.17879486083984 111.25861358642578 79.75296783447266 111.9460220336914 79.01964569091797 115.45352935791016 C 82.94747924804688 112.91706848144531 83.19530487060547 117.58113861083984 80.74652862548828 117.2409439086914 C 77.81415557861328 110.81507873535156 81.82989501953125 109.8116455078125 73.87399291992188 113.18074035644531" stroke-width="1.0892857313156128" fill="none" stroke="rgb(219, 40, 21)" stroke-opacity="0.3086761" stroke-linecap="round" stroke-linejoin="round"/>
    <path d="M 4.485750675201416 39.98232650756836 C 10.654664039611816 35.84684371948242 15.722264289855957 32.04511642456055 14.759182929992676 29.74652671813965" stroke-width="1.0892857313156128" fill="none" stroke="rgb(200, 116, 173)" stroke-opacity="0.2687879" stroke-linecap="round" stroke-linejoin="round"/>
    <path d="M 77.95974731445312 120.02452850341797 C 72.97433471679688 121.52578735351562 73.30401611328125 121.78874206542969 80.0453872680664 119.96563720703125 C 80.32843017578125 121.88946533203125 78.66769409179688 119.65573120117188 82.35413360595703 119.9494400024414 C 85.37748718261719 118.79772186279297 85.79256439208984 118.96363067626953 78.43035125732422 116.75726318359375" stroke-width="1.0892857313156128" fill="none" stroke="rgb(79, 232, 36)" stroke-opacity="0.4528255" stroke-linecap="round" stroke-linejoin="round"/>
    <path d="M 21.643455505371094 64.46229553222656 C 28.515121459960938 65.45307159423828 22.652423858642578 70.81773376464844 22.997373580932617 65.56845092773438 C 28.311939239501953 69.3165283203125 26.36116600036621 69.40624237060547 17.954635620117188 68.15969848632812 C 24.00920867919922 72.57058715820312 24.89767837524414 76.68323516845703 18.500722885131836 72.41213989257812" stroke-width="1.0892857313156128" fill="none" stroke="rgb(228, 250, 177)" stroke-opacity="0.4069084" stroke-linecap="round" stroke-linejoin="round"/>
    <path d="M 106.84349060058594 81.36958312988281 C 108.82813262939453 78.52203369140625 104.17203521728516 84.12845611572266 103.28633117675781 87.85166931152344 C 100.59583282470703 91.2191390991211 100.5562973022461 86.70034790039062 103.47900390625 92.71178436279297 C 103.69287109375 85.39461517333984 99.92460632324219 82.39244842529297 96.49561309814453 81.72836303710938" stroke-width="1.0892857313156128" fill="none" stroke="rgb(154, 155, 53)" stroke-opacity="0.20079309" stroke-linecap="round" stroke-linejoin="round"/>
    <path d="M 60.23567581176758 77.16373443603516 C 60.28240966796875 78.1497802734375 59.24553298950195 83.80809020996094 63.75950622558594 90.01912689208984 C 61.40985870361328 85.97417449951172 63.15584945678711 92.97149658203125 64.61168670654297 95.99703216552734" stroke-width="1.0892857313156128" fill="none" stroke="rgb(69, 67, 83)" stroke-opacity="0.71969444" stroke-linecap="round" stroke-linejoin="round"/>
    <path d="M 29.59029197692871 48.20762252807617 C 35.08931350708008 42.66162109375 40.50674819946289 45.86204147338867 44.19232177734375 42.86598587036133 C 41.328983306884766 35.55326461791992 43.00909423828125 30.980934143066406 43.865943908691406 28.381568908691406" stroke-width="1.0892857313156128" fill="none" stroke="rgb(161, 25, 120)" stroke-opacity="0.26913387" stroke-linecap="round" stroke-linejoin="round"/>
    <path d="M 41.83681106567383 54.17243194580078 C 43.050228118896484 50.51678466796875 42.3857536315918 45.336524963378906 42.803016662597656 46.32708740234375 C 45.667537689208984 45.55146408081055 47.98563003540039 41.219913482666016 53.22587966918945 37.482479095458984" stroke-width="1.0892857313156128" fill="none" stroke="rgb(23, 149, 193)" stroke-opacity="0.21287541" stroke-linecap="round" stroke-linejoin="round"/>
    <path d="M 89.7789535522461 8.362517356872559 C 93.61216735839844 6.553948402404785 92.58851623535156 11.614266395568848 95.12548828125 17.842390060424805" stroke-width="1.0892857313156128" fill="none" stroke="rgb(218, 85, 248)" stroke-opacity="0.35302362" stroke-linecap="round" stroke-linejoin="round"/>
    <path d="M 30.813644409179688 17.977754592895508 C 31.367259979248047 15.727191925048828 36.03093719482422 19.77364730834961 39.12208938598633 16.688783645629883 C 34.38829040527344 12.981371879577637 30.44445037841797 16.301063537597656 31.588512420654297 13.71633529663086 C 37.79378890991211 10.490267753601074 36.163028717041016 13.712581634521484 34.42861557006836 15.426501274108887" stroke-width="1.0892857313156128" fill="none" stroke="rgb(184, 196, 23)" stroke-opacity="0.057806857" stroke-linecap="round" stroke-linejoin="round"/>
    <path d="M 46.39234161376953 119.9424057006836 C 45.22038650512695 122.79016876220703 42.1671142578125 121.27845764160156 49.29084014892578 122.56098937988281 C 47.19307327270508 127.68030548095703 48.708778381347656 127.83031463623047 51.41297149658203 126.32723236083984 C 55.77740478515625 126.19625854492188 59.51784896850586 129.50302124023438 54.909576416015625 125.87797546386719" stroke-width="1.0892857313156128" fill="none" stroke="rgb(157, 121, 232)" stroke-opacity="0.23502322" stroke-linecap="round" stroke-linejoin="round"/>
  </g>
</svg>
