<?xml version="1.0" ?>
<svg xmlns="http://www.w3.org/2000/svg" version="1.1" width="956.0" height="956.0">
  <defs/>
  <g>
    <path d="M 106.50967407226562 48.74679946899414 C 96.72549438476562 50.545902252197266 86.82935333251953 53.196292877197266 83.6205825805664 60.661563873291016 C 76.67562103271484 60.85000991821289 76.5692367553711 70.79315185546875 80.16848754882812 74.04524230957031 C 83.23180389404297 76.72899627685547 85.92329406738281 75.90026092529297 95.7324447631836 75.6114273071289 C 105.10472106933594 74.26261901855469 119.65830993652344 72.70339965820312 130.4232940673828 72.90638732910156 C 140.67747497558594 74.46231079101562 142.2320556640625 77.38825225830078 145.34803771972656 74.96868133544922 C 147.60218811035156 73.21704864501953 147.5635528564453 68.6968765258789 144.03858947753906 61.95005416870117 C 138.1449432373047 56.8670539855957 123.04409790039062 54.43074417114258 117.2572021484375 51.058406829833984 C 112.0108871459961 46.43955612182617 115.1219482421875 44.26234436035156 111.7566909790039 40.28203582763672 C 112.54254913330078 36.48736572265625 108.64591217041016 40.90609359741211 107.42024993896484 46.37630081176758" stroke-width="2.8304169178009033" fill="none" stroke="rgb(228, 194, 152)" stroke-opacity="1.0" stroke-linecap="round" stroke-linejoin="round"/>
    <path d="M 112.70723724365234 51.54548645019531 C 99.5535659790039 58.28269958496094 87.17501831054688 63.835166931152344 90.42327880859375 68.04898071289062 C 93.70378112792969 71.0675048828125 117.52079772949219 72.51979064941406 129.84153747558594 74.63809204101562 C 139.57754516601562 74.86380767822266 137.7416229248047 70.98115539550781 137.9136962890625 65.8558578491211 C 136.4116668701172 62.895870208740234 125.39708709716797 58.08799362182617 112.33433532714844 53.86125564575195" stroke-width="5.669830799102783" fill="none" stroke="rgb(236, 189, 158)" stroke-opacity="1.0" stroke-linecap="round" stroke-linejoin="round"/>
    <path d="M 111.5391845703125 70.0174789428711 C 110.3364486694336 78.98492431640625 107.81768798828125 89.538330078125 109.378173828125 87.7400894165039 C 107.92591857910156 87.57308197021484 110.07333374023438 78.09716796875 112.44798278808594 71.79529571533203 C 116.80304718017578 61.8154182434082 110.46637725830078 68.18891906738281 104.5439682006836 73.94387817382812" stroke-width="9.078645706176758" fill="none" stroke="rgb(227, 195, 166)" stroke-opacity="1.0" stroke-linecap="round" stroke-linejoin="round"/>
    <path d="M 74.30072784423828 68.4093017578125 C 74.12090301513672 71.60718536376953 76.37572479248047 74.77994537353516 76.90266418457031 75.07217407226562 C 77.085205078125 78.3403549194336 75.91311645507812 72.33567810058594 73.97522735595703 72.78086853027344 C 75.3896255493164 70.84906768798828 76.31393432617188 74.73438262939453 75.47317504882812 75.5717544555664 C 78.80067443847656 75.60092163085938 79.72346496582031 74.2070083618164 79.95796203613281 71.228515625 C 81.717529296875 70.26880645751953 83.75565338134766 73.1025161743164 85.64248657226562 73.38145446777344 C 85.7088623046875 76.33209228515625 87.97303009033203 75.68344116210938 88.0435791015625 74.24845123291016" stroke-width="2.0" fill="none" stroke="rgb(0, 108, 193)" stroke-opacity="1.0" stroke-linecap="round" stroke-linejoin="round"/>
    <path d="M 85.5692367553711 80.35337829589844 C 93.88555145263672 76.71837615966797 100.10435485839844 74.00636291503906 105.38980102539062 82.4494400024414 C 114.33951568603516 86.58028411865234 125.8038558959961 97.19501495361328 127.89707946777344 100.75846862792969 C 129.97564697265625 108.45470428466797 124.78810119628906 107.40795135498047 117.22528076171875 104.24383544921875 C 111.85778045654297 106.12771606445312 102.33689880371094 108.20030975341797 95.27257537841797 103.15577697753906 C 89.5691146850586 96.38383483886719 87.84685516357422 85.0298843383789 90.65823364257812 80.58306121826172 C 90.38074493408203 77.10372161865234 93.85897064208984 79.1032943725586 102.62908172607422 84.97247314453125 C 114.49523162841797 87.99922180175781 126.67733001708984 96.40534973144531 123.52326202392578 102.0042953491211 C 123.45304107666016 104.08373260498047 109.21633911132812 104.70562744140625 100.35798645019531 99.66166687011719 C 91.68800354003906 96.8707275390625 89.36418914794922 89.4086685180664 94.283447265625 86.14302825927734 C 100.40967559814453 88.96562957763672 112.23739624023438 96.99856567382812 113.86876678466797 99.9543228149414 C 118.60287475585938 101.40006256103516 107.61351776123047 99.2553482055664 104.21322631835938 97.74411010742188 C 99.78126525878906 94.72113037109375 100.31399536132812 94.78649139404297 98.30561828613281 93.21353912353516 C 99.24825286865234 89.0059585571289 101.16710662841797 92.38505554199219 105.95909881591797 96.416748046875" stroke-width="2.0" fill="none" stroke="rgb(0, 92, 188)" stroke-opacity="1.0" stroke-linecap="round" stroke-linejoin="round"/>
    <path d="M 115.92180633544922 80.347412109375 C 123.14633178710938 75.89746856689453 129.86289978027344 73.21145629882812 133.3443603515625 75.13495635986328 C 134.5532684326172 81.0770034790039 134.60076904296875 94.13236236572266 131.61672973632812 96.33202362060547 C 129.88626098632812 100.31907653808594 122.96251678466797 89.85067749023438 122.48854064941406 86.60889434814453 C 122.41824340820312 81.26449584960938 129.78135681152344 79.28601837158203 133.00927734375 79.37336730957031 C 132.6280517578125 79.72958374023438 132.12045288085938 86.56285858154297 130.39443969726562 91.37419891357422 C 130.6154022216797 92.44033813476562 129.1826171875 87.80208587646484 125.54191589355469 85.31021118164062 C 125.74481964111328 81.70742797851562 125.07942199707031 85.20274353027344 128.85574340820312 83.615234375" stroke-width="2.0" fill="none" stroke="rgb(0, 108, 195)" stroke-opacity="1.0" stroke-linecap="round" stroke-linejoin="round"/>
    <path d="M 139.36802673339844 72.02996063232422 C 144.46104431152344 67.94084930419922 149.10736083984375 64.17157745361328 149.69070434570312 63.518367767333984 C 149.6540985107422 62.697898864746094 147.77130126953125 66.68293762207031 147.99899291992188 70.14076232910156 C 149.18472290039062 74.76497650146484 148.6797332763672 73.35049438476562 146.01844787597656 72.50873565673828 C 146.76763916015625 73.1384506225586 143.56053161621094 72.80473327636719 140.4099578857422 72.54049682617188 C 139.53562927246094 72.64397430419922 142.40261840820312 72.74828338623047 146.67074584960938 73.28608703613281" stroke-width="2.0" fill="none" stroke="rgb(0, 96, 191)" stroke-opacity="0.9999888" stroke-linecap="round" stroke-linejoin="round"/>
    <path d="M 93.08163452148438 109.84934997558594 C 101.38457489013672 111.07232666015625 109.42628479003906 111.90984344482422 118.71168518066406 113.86917114257812 C 128.8643798828125 114.35698699951172 129.59280395507812 113.12923431396484 130.8995819091797 110.07896423339844" stroke-width="2.0" fill="none" stroke="rgb(0, 115, 190)" stroke-opacity="1.0" stroke-linecap="round" stroke-linejoin="round"/>
    <path d="M 77.13885498046875 59.59617233276367 C 80.33526611328125 64.63410186767578 81.379638671875 71.48182678222656 86.159423828125 73.45183563232422 C 90.05399322509766 72.07335662841797 93.85269165039062 68.98780822753906 104.72976684570312 75.47469329833984 C 112.84793090820312 79.88961029052734 130.33143615722656 92.24944305419922 134.3031005859375 99.54800415039062 C 136.09201049804688 106.95862579345703 127.70427703857422 108.21969604492188 119.16053771972656 107.94877624511719 C 109.27333068847656 110.71823120117188 102.3972396850586 105.71578979492188 89.63302612304688 105.7100601196289 C 82.0983657836914 106.28829193115234 83.32586669921875 90.26654815673828 86.9175796508789 78.72591400146484" stroke-width="2.0" fill="none" stroke="rgb(0, 0, 74)" stroke-opacity="1.0" stroke-linecap="round" stroke-linejoin="round"/>
    <path d="M 77.00543975830078 60.405357360839844 C 73.49003601074219 64.01321411132812 69.48285675048828 65.4674301147461 70.18826293945312 68.56053924560547 C 68.99596405029297 72.4337387084961 71.41793823242188 73.78329467773438 69.86656951904297 73.51372528076172 C 70.85710906982422 74.19752502441406 70.54022979736328 78.33233642578125 74.28250885009766 80.06464385986328 C 76.25838470458984 81.3660888671875 84.71424865722656 77.52234649658203 91.72981262207031 76.63787841796875 C 99.09954833984375 73.35336303710938 101.73194122314453 73.6712417602539 101.73715209960938 74.75444030761719" stroke-width="2.0" fill="none" stroke="rgb(0, 0, 87)" stroke-opacity="1.0" stroke-linecap="round" stroke-linejoin="round"/>
    <path d="M 112.17800903320312 80.35000610351562 C 118.93229675292969 79.43992614746094 123.9259262084961 73.50473022460938 129.87889099121094 73.6598892211914 C 132.7328338623047 70.26458740234375 136.90773010253906 74.81253051757812 141.42953491210938 79.09658813476562 C 145.42442321777344 82.384765625 138.25477600097656 93.91999053955078 132.28689575195312 104.58197784423828" stroke-width="2.0" fill="none" stroke="rgb(0, 1, 77)" stroke-opacity="1.0" stroke-linecap="round" stroke-linejoin="round"/>
    <path d="M 132.42503356933594 70.58735656738281 C 147.9744110107422 64.33596801757812 148.4927978515625 65.45872497558594 152.59666442871094 64.41212463378906" stroke-width="2.0" fill="none" stroke="rgb(0, 0, 78)" stroke-opacity="0.999977" stroke-linecap="round" stroke-linejoin="round"/>
    <path d="M 149.8933868408203 62.98656463623047 C 153.4457244873047 63.0629997253418 156.1713104248047 63.02465057373047 154.1536865234375 67.6007080078125 C 155.59716796875 66.72586822509766 154.88763427734375 69.38024139404297 153.0139923095703 70.20449829101562 C 149.76602172851562 69.76958465576172 148.74322509765625 71.18341827392578 147.44155883789062 71.26773834228516 C 147.75148010253906 73.17674255371094 143.4263458251953 74.86397552490234 137.73497009277344 75.8369140625" stroke-width="2.0" fill="none" stroke="rgb(0, 0, 81)" stroke-opacity="1.0" stroke-linecap="round" stroke-linejoin="round"/>
    <path d="M 90.16972351074219 104.30988311767578 C 87.67095947265625 110.5141372680664 88.42228698730469 114.88248443603516 91.98776245117188 116.2075424194336 C 98.87409210205078 115.99661254882812 114.57544708251953 114.81487274169922 130.5939483642578 113.98133087158203 C 147.50662231445312 113.37397766113281 140.64993286132812 107.5517807006836 131.85110473632812 107.46062469482422" stroke-width="2.0" fill="none" stroke="rgb(0, 7, 89)" stroke-opacity="1.0" stroke-linecap="round" stroke-linejoin="round"/>
    <path d="M 93.59276580810547 115.23983001708984 C 89.9006118774414 114.02873229980469 90.77578735351562 116.16851043701172 93.03787231445312 117.0781021118164 C 92.96502685546875 117.52212524414062 91.87744903564453 117.19727325439453 91.54643249511719 117.32048797607422 C 89.11946105957031 118.21963500976562 89.66956329345703 125.41957092285156 88.92605590820312 128.0496368408203 C 88.4791259765625 133.9278564453125 85.52564239501953 137.81680297851562 83.69700622558594 139.64373779296875 C 83.52117919921875 144.81163024902344 83.0390396118164 146.33079528808594 86.28968811035156 145.6902618408203 C 83.08475494384766 146.42465209960938 84.21824645996094 145.79022216796875 84.23078918457031 151.67181396484375 C 83.21495056152344 156.35009765625 78.71784973144531 166.7572479248047 73.46310424804688 171.0594024658203 C 71.12785339355469 177.43161010742188 70.321044921875 179.8356170654297 72.52072143554688 181.11083984375 C 71.69615173339844 183.335693359375 72.11835479736328 179.93499755859375 69.8716049194336 181.11683654785156 C 69.82752227783203 180.69776916503906 70.6917953491211 179.300048828125 72.07803344726562 178.72640991210938 C 71.11167907714844 177.48757934570312 70.3604507446289 178.9509735107422 74.4084701538086 177.5810546875 C 82.10733032226562 178.26939392089844 89.89689636230469 178.6766815185547 98.9466552734375 176.54037475585938 C 103.67272186279297 176.1749267578125 102.66984558105469 176.99896240234375 106.82058715820312 177.99844360351562 C 112.7916488647461 179.88751220703125 125.8565444946289 180.89988708496094 135.08546447753906 178.86883544921875 C 143.5648651123047 181.32513427734375 153.77337646484375 182.8109588623047 157.40879821777344 185.3724822998047 C 165.82859802246094 185.12550354003906 170.1846160888672 184.5364532470703 171.74624633789062 181.71890258789062 C 175.71420288085938 185.21043395996094 176.71969604492188 184.34925842285156 176.5988006591797 184.59478759765625 C 176.99330139160156 184.29714965820312 178.78854370117188 184.51210021972656 178.1885986328125 184.3758544921875 C 177.21240234375 184.2207794189453 175.67164611816406 184.5048370361328 175.2287139892578 181.83399963378906 C 178.31680297851562 181.68756103515625 175.9395751953125 184.9678497314453 174.64251708984375 181.31185913085938 C 171.2425079345703 179.4092559814453 167.18104553222656 171.63262939453125 162.80198669433594 163.9646759033203 C 155.9295654296875 160.6808624267578 154.58314514160156 149.83534240722656 152.1981658935547 146.89132690429688 C 148.41966247558594 141.88978576660156 147.7575225830078 137.5917510986328 146.8548126220703 135.76995849609375 C 147.51779174804688 132.15420532226562 146.00831604003906 134.00076293945312 143.86927795410156 130.98692321777344 C 140.521484375 129.48545837402344 141.18336486816406 123.89329528808594 139.21514892578125 119.41634368896484 C 138.0584716796875 114.03467559814453 136.19969177246094 113.31965637207031 134.015869140625 115.20645904541016" stroke-width="2.0" fill="none" stroke="rgb(24, 24, 13)" stroke-opacity="1.0" stroke-linecap="round" stroke-linejoin="round"/>
    <path d="M 158.21083068847656 114.11875915527344 C 166.62460327148438 114.44637298583984 176.445556640625 114.93644714355469 179.46258544921875 111.95934295654297 C 184.2790985107422 112.91104125976562 185.3690185546875 112.22089385986328 185.71502685546875 114.70247650146484 C 185.3536376953125 114.70575714111328 188.0265655517578 115.09810638427734 188.9503173828125 115.54926300048828 C 184.7023468017578 115.56304168701172 183.2385711669922 115.24010467529297 184.43006896972656 116.07176208496094 C 184.60491943359375 113.6624526977539 181.42469787597656 113.77909088134766 180.1970977783203 111.75316619873047 C 176.46392822265625 108.20257568359375 170.64146423339844 99.70954895019531 166.73056030273438 95.7407455444336 C 166.38719177246094 89.68869018554688 168.3274383544922 89.42098236083984 165.29893493652344 90.61119842529297 C 169.23419189453125 92.77822875976562 170.1204071044922 92.41931915283203 170.5778350830078 91.09973907470703 C 169.56570434570312 89.90158081054688 170.058349609375 86.9154281616211 171.3249053955078 85.4524154663086 C 171.95704650878906 86.17280578613281 173.30807495117188 85.06314086914062 173.04986572265625 83.40430450439453 C 172.33065795898438 81.79959106445312 171.6293487548828 81.8202896118164 171.05123901367188 81.6447982788086 C 170.73226928710938 82.58362579345703 165.76487731933594 84.82957458496094 163.21139526367188 86.07051086425781 C 161.88819885253906 86.33988189697266 161.06375122070312 86.90269470214844 155.11367797851562 83.1671371459961 C 152.58372497558594 81.21666717529297 138.8855438232422 77.82411193847656 132.9524688720703 73.09772491455078 C 129.70912170410156 66.38751220703125 131.84312438964844 64.37124633789062 130.9155731201172 66.61612701416016 C 131.97718811035156 66.5644302368164 131.4075469970703 67.56053161621094 136.1119384765625 65.55693817138672 C 137.1869659423828 65.02847290039062 137.3396759033203 62.734004974365234 141.74693298339844 60.75663757324219 C 143.2950897216797 60.145896911621094 142.27554321289062 56.515403747558594 144.68212890625 54.490234375 C 149.42698669433594 54.23535919189453 152.1898193359375 49.53955078125 156.3212890625 47.105594635009766 C 158.84320068359375 42.403282165527344 161.4898223876953 39.159629821777344 164.34149169921875 36.54586410522461" stroke-width="2.0" fill="none" stroke="rgb(20, 15, 9)" stroke-opacity="0.99898356" stroke-linecap="round" stroke-linejoin="round"/>
    <path d="M 132.85128784179688 22.189937591552734 C 132.15634155273438 23.1431884765625 132.50608825683594 24.863719940185547 133.15774536132812 26.09636116027832 C 129.32522583007812 25.069921493530273 129.28648376464844 25.89388656616211 127.54289245605469 24.411605834960938 C 125.84355926513672 24.32096290588379 124.55713653564453 24.48370933532715 115.44036102294922 23.167055130004883 C 105.4612045288086 25.279634475708008 89.19319152832031 25.8279972076416 80.16068267822266 24.617055892944336 C 71.05785369873047 21.950468063354492 69.79034423828125 23.21887969970703 67.75188446044922 23.611141204833984 C 67.66769409179688 24.95530891418457 63.02377700805664 24.380949020385742 64.5549087524414 25.9501953125 C 60.42250442504883 25.0114688873291 58.61945724487305 23.498184204101562 60.15550994873047 25.769561767578125 C 62.11555099487305 26.611467361450195 63.996028900146484 28.93341064453125 65.07910919189453 34.0512809753418 C 70.35337829589844 35.60767364501953 71.88298797607422 40.51647186279297 76.27424621582031 47.235416412353516 C 76.90886688232422 57.205284118652344 84.08984375 65.13898468017578 89.59078216552734 74.21757507324219 C 92.50843811035156 85.011962890625 98.5672836303711 89.3878173828125 98.0044937133789 98.7507553100586" stroke-width="2.0" fill="none" stroke="rgb(19, 16, 20)" stroke-opacity="1.0" stroke-linecap="round" stroke-linejoin="round"/>
    <path d="M 115.53153228759766 119.04387664794922 C 116.00892639160156 119.99166870117188 116.10376739501953 121.7046127319336 115.90817260742188 124.64334869384766 C 115.2530517578125 128.2007598876953 116.34619903564453 129.5918426513672 115.98426818847656 137.24232482910156 C 118.6352310180664 143.17445373535156 117.60221099853516 152.5034637451172 119.68896484375 159.46697998046875 C 124.6527328491211 168.6166229248047 124.45033264160156 171.3652801513672 122.92800903320312 172.89503479003906" stroke-width="2.0" fill="none" stroke="rgb(23, 20, 18)" stroke-opacity="1.0" stroke-linecap="round" stroke-linejoin="round"/>
    <path d="M 89.59198760986328 147.92080688476562 C 108.67279815673828 148.06011962890625 129.15029907226562 147.38101196289062 144.7209014892578 148.50816345214844" stroke-width="2.0" fill="none" stroke="rgb(25, 17, 23)" stroke-opacity="1.0" stroke-linecap="round" stroke-linejoin="round"/>
    <path d="M 162.67477416992188 131.9290008544922 C 164.08079528808594 134.93690490722656 161.15432739257812 135.8583984375 160.9318389892578 138.89442443847656 C 163.52174377441406 140.3968963623047 162.9700164794922 143.6114959716797 166.30435180664062 148.85313415527344 C 164.387939453125 151.59568786621094 167.11375427246094 156.46054077148438 172.2901611328125 157.99012756347656 C 174.00973510742188 162.6351776123047 175.24478149414062 162.907470703125 173.61830139160156 167.8052215576172 C 173.33624267578125 170.5192413330078 175.7775115966797 174.2213592529297 180.14202880859375 178.58059692382812" stroke-width="2.0" fill="none" stroke="rgb(17, 11, 27)" stroke-opacity="1.0" stroke-linecap="round" stroke-linejoin="round"/>
    <path d="M 182.8664093017578 133.6190643310547 C 181.15650939941406 134.043701171875 181.8675537109375 136.84426879882812 181.03689575195312 136.79417419433594 C 180.58546447753906 141.15562438964844 182.3147430419922 141.92742919921875 182.14865112304688 148.033447265625 C 176.3769073486328 148.9280242919922 168.51573181152344 152.9003143310547 163.73886108398438 158.49876403808594 C 160.26840209960938 160.11329650878906 156.08692932128906 160.73223876953125 150.19447326660156 159.9901580810547 C 148.77166748046875 161.9559326171875 144.30703735351562 161.2620391845703 141.1199188232422 159.79153442382812 C 137.66741943359375 159.6264190673828 135.47320556640625 161.2240753173828 129.5644989013672 161.73922729492188 C 126.1765365600586 160.40728759765625 123.26371002197266 155.7860107421875 119.4684829711914 153.41285705566406 C 116.93408203125 151.01315307617188 116.8675308227539 144.15496826171875 112.44685363769531 138.45114135742188" stroke-width="2.0" fill="none" stroke="rgb(20, 25, 11)" stroke-opacity="0.9947935" stroke-linecap="round" stroke-linejoin="round"/>
    <path d="M 161.51727294921875 128.04568481445312 C 158.70404052734375 130.8719482421875 158.84921264648438 130.74844360351562 159.18946838378906 130.8094940185547 C 157.65554809570312 128.87368774414062 156.13369750976562 128.0831756591797 154.60794067382812 128.43150329589844 C 150.63296508789062 128.12657165527344 140.9783935546875 131.03256225585938 136.4332275390625 131.97764587402344 C 129.62454223632812 128.9414520263672 112.5698013305664 128.48228454589844 95.90192413330078 130.9644317626953" stroke-width="2.0" fill="none" stroke="rgb(14, 14, 26)" stroke-opacity="1.0" stroke-linecap="round" stroke-linejoin="round"/>
    <path d="M 188.820068359375 159.8267822265625 C 191.58004760742188 159.2100372314453 191.54148864746094 161.5424041748047 191.53509521484375 159.02157592773438 C 188.3035430908203 156.67991638183594 191.26077270507812 157.2825927734375 188.43661499023438 156.01495361328125 C 188.87503051757812 153.54261779785156 187.52487182617188 143.37208557128906 188.28497314453125 136.38946533203125" stroke-width="2.0" fill="none" stroke="rgb(19, 22, 25)" stroke-opacity="1.0" stroke-linecap="round" stroke-linejoin="round"/>
    <path d="M 192.58294677734375 127.45966339111328 C 191.12034606933594 126.76464080810547 191.92796325683594 125.801513671875 189.256591796875 124.828857421875 C 189.8444366455078 126.7978515625 189.2004852294922 123.77105712890625 191.7325439453125 124.0606460571289 C 192.4922332763672 123.23251342773438 189.2552947998047 120.1383285522461 189.82070922851562 116.24252319335938 C 189.18548583984375 111.55683135986328 188.8664093017578 100.3751220703125 193.20895385742188 86.49053955078125" stroke-width="2.0" fill="none" stroke="rgb(24, 24, 14)" stroke-opacity="1.0" stroke-linecap="round" stroke-linejoin="round"/>
    <path d="M 193.10423278808594 84.68494415283203 C 192.71051025390625 84.80850982666016 192.6719207763672 81.54521942138672 192.55178833007812 83.55277252197266 C 192.55848693847656 82.49166107177734 192.2090606689453 79.2805404663086 190.26947021484375 74.23207092285156 C 190.45211791992188 71.87519073486328 190.63369750976562 64.55789947509766 189.33668518066406 54.45684814453125 C 189.14784240722656 48.516422271728516 190.06631469726562 49.2580451965332 192.2790069580078 49.49299240112305" stroke-width="2.0" fill="none" stroke="rgb(16, 25, 27)" stroke-opacity="1.0" stroke-linecap="round" stroke-linejoin="round"/>
    <path d="M 183.19969177246094 51.26036071777344 C 182.90963745117188 49.85292434692383 181.99026489257812 50.17282485961914 183.9504852294922 47.46644592285156 C 183.7142791748047 46.99517059326172 183.46722412109375 46.78089141845703 182.48007202148438 45.51395034790039 C 181.24676513671875 44.630523681640625 179.44642639160156 42.45726013183594 178.1705780029297 39.82120895385742 C 175.22647094726562 39.96913528442383 175.93910217285156 34.109928131103516 172.47857666015625 34.453250885009766 C 174.6205291748047 30.992279052734375 173.36329650878906 31.666860580444336 173.14761352539062 33.138267517089844 C 173.15054321289062 31.639881134033203 176.8782501220703 30.079875946044922 181.748046875 31.34540367126465" stroke-width="2.0" fill="none" stroke="rgb(22, 31, 19)" stroke-opacity="1.0" stroke-linecap="round" stroke-linejoin="round"/>
    <path d="M 182.97784423828125 17.73212432861328 C 181.27149963378906 18.72138023376465 184.27210998535156 18.502246856689453 180.44224548339844 20.21300506591797 C 180.16746520996094 19.68882942199707 179.9947052001953 19.72589874267578 179.39097595214844 16.8331298828125 C 177.2819061279297 16.697574615478516 176.141357421875 17.04934310913086 176.33837890625 19.8969669342041 C 173.3900146484375 18.761890411376953 167.48736572265625 20.765226364135742 160.0618896484375 18.346656799316406" stroke-width="2.0" fill="none" stroke="rgb(24, 23, 28)" stroke-opacity="1.0" stroke-linecap="round" stroke-linejoin="round"/>
    <path d="M 157.6602020263672 26.57337760925293 C 153.68264770507812 26.71392250061035 153.02410888671875 26.647138595581055 154.06723022460938 26.222612380981445 C 155.4591827392578 25.45684242248535 152.22332763671875 23.21817970275879 150.17330932617188 26.009700775146484 C 149.4337921142578 26.31583595275879 148.0889434814453 24.425771713256836 144.54164123535156 23.59986686706543 C 142.95582580566406 25.29259490966797 134.67568969726562 24.828853607177734 133.23037719726562 25.550006866455078 C 129.76107788085938 29.483341217041016 128.75430297851562 26.48227882385254 132.2802734375 27.28019905090332 C 130.78009033203125 28.40373992919922 128.676025390625 27.22591781616211 126.17808532714844 29.624286651611328" stroke-width="2.0" fill="none" stroke="rgb(18, 29, 33)" stroke-opacity="1.0" stroke-linecap="round" stroke-linejoin="round"/>
    <path d="M 129.10635375976562 26.779125213623047 C 126.48897552490234 27.393489837646484 125.05677032470703 26.831764221191406 124.7364730834961 27.835893630981445 C 125.49703216552734 30.371370315551758 120.16868591308594 27.235313415527344 121.35084533691406 31.203516006469727 C 116.868408203125 29.995437622070312 113.65071868896484 34.48151779174805 107.04965209960938 36.210533142089844" stroke-width="2.0" fill="none" stroke="rgb(32, 28, 27)" stroke-opacity="1.0" stroke-linecap="round" stroke-linejoin="round"/>
    <path d="M 121.42181396484375 38.45380783081055 C 122.44309997558594 37.28977584838867 122.57855987548828 39.814083099365234 125.9197769165039 40.43080139160156" stroke-width="2.0" fill="none" stroke="rgb(31, 25, 20)" stroke-opacity="1.0" stroke-linecap="round" stroke-linejoin="round"/>
    <path d="M 129.53179931640625 39.95930862426758 C 135.522705078125 37.626102447509766 144.8795623779297 38.80033493041992 153.76580810546875 36.95402145385742" stroke-width="2.0" fill="none" stroke="rgb(19, 19, 13)" stroke-opacity="1.0" stroke-linecap="round" stroke-linejoin="round"/>
    <path d="M 169.2085723876953 57.60881423950195 C 170.4085235595703 56.79814147949219 173.1352996826172 60.718631744384766 172.35552978515625 62.3665771484375 C 173.79550170898438 64.17655944824219 181.8982696533203 72.93643951416016 181.09036254882812 77.88015747070312" stroke-width="2.0" fill="none" stroke="rgb(18, 23, 16)" stroke-opacity="1.0" stroke-linecap="round" stroke-linejoin="round"/>
    <path d="M 91.10254669189453 52.957340240478516 C 129.81065368652344 88.36406707763672 149.66622924804688 73.07698822021484 197.79933166503906 55.89836502075195 C 167.82566833496094 82.73310089111328 147.7782440185547 65.93704223632812 140.9989776611328 62.36153793334961 C 136.9774627685547 119.5345458984375 138.34060668945312 130.9899139404297 134.69717407226562 132.73304748535156" stroke-width="19.57308006286621" fill="none" stroke="rgb(179, 29, 0)" stroke-opacity="1.0" stroke-linecap="round" stroke-linejoin="round"/>
    <path d="M 132.4182586669922 126.01714324951172 C 123.59921264648438 142.45431518554688 99.38605499267578 113.48682403564453 93.82926177978516 112.13662719726562 C 128.56576538085938 112.43754577636719 143.2098846435547 124.88812255859375 158.7555694580078 117.49922943115234 C 166.4275665283203 120.6645736694336 148.2698974609375 120.59638214111328 120.64572143554688 118.43998718261719" stroke-width="7.700755596160889" fill="none" stroke="rgb(0, 112, 119)" stroke-opacity="0.8255518" stroke-linecap="round" stroke-linejoin="round"/>
    <path d="M 99.05311584472656 35.46170425415039 C 82.11521911621094 46.11878204345703 97.31146240234375 55.49693298339844 90.43824005126953 60.88740539550781" stroke-width="2.0" fill="none" stroke="rgb(214, 48, 96)" stroke-opacity="0.13395149" stroke-linecap="round" stroke-linejoin="round"/>
    <path d="M 134.07315063476562 87.8614273071289 C 115.06805419921875 75.22234344482422 88.89010620117188 81.98719787597656 103.69599914550781 54.25863265991211 C 91.18096923828125 38.13740158081055 103.96503448486328 53.27946853637695 155.62672424316406 39.32958984375 C 173.84165954589844 29.112056732177734 145.20628356933594 27.69450569152832 122.92947387695312 35.93920135498047" stroke-width="17.44429588317871" fill="none" stroke="rgb(255, 42, 44)" stroke-opacity="0.7719075" stroke-linecap="round" stroke-linejoin="round"/>
    <path d="M 125.42402648925781 119.88322448730469 C 140.600341796875 122.89237213134766 125.20919799804688 130.19398498535156 120.2127914428711 123.15585327148438 C 131.82705688476562 99.5559310913086 127.15802001953125 96.02478790283203 119.43576049804688 68.16909790039062 C 144.0421142578125 66.38977813720703 153.22068786621094 66.39734649658203 145.5403594970703 85.9095230102539" stroke-width="2.5296475887298584" fill="none" stroke="rgb(204, 55, 171)" stroke-opacity="0.07184345" stroke-linecap="round" stroke-linejoin="round"/>
    <path d="M 83.67725372314453 30.632713317871094 C 101.0636978149414 66.29736328125 106.34319305419922 59.73069381713867 105.17729949951172 66.31465148925781 C 113.96685028076172 46.236629486083984 119.45616149902344 69.84342193603516 86.66140747070312 69.03526306152344 C 95.62918853759766 60.198360443115234 101.05811309814453 67.88798522949219 89.06171417236328 60.296146392822266" stroke-width="6.766083717346191" fill="none" stroke="rgb(255, 44, 7)" stroke-opacity="0.19568518" stroke-linecap="round" stroke-linejoin="round"/>
    <path d="M 156.63323974609375 130.61257934570312 C 165.2721710205078 62.56330490112305 174.10113525390625 55.732872009277344 181.62518310546875 128.3640594482422" stroke-width="6.654419898986816" fill="none" stroke="rgb(0, 66, 97)" stroke-opacity="1.0" stroke-linecap="round" stroke-linejoin="round"/>
    <path d="M 122.28473663330078 58.174564361572266 C 96.52460479736328 56.01518249511719 83.58441162109375 66.72648620605469 71.9404067993164 53.66737365722656 C 83.50341033935547 47.51737976074219 85.90149688720703 43.32288360595703 98.25466918945312 37.280113220214844 C 109.14082336425781 34.09153366088867 135.11537170410156 50.204959869384766 125.3665771484375 52.94682312011719" stroke-width="2.0" fill="none" stroke="rgb(136, 122, 37)" stroke-opacity="0.14118916" stroke-linecap="round" stroke-linejoin="round"/>
    <path d="M 153.87863159179688 113.24331665039062 C 162.00103759765625 119.93559265136719 166.07981872558594 121.78501892089844 151.24893188476562 121.71687316894531 C 162.1145477294922 111.490234375 161.51614379882812 105.35082244873047 175.6453094482422 109.93978881835938" stroke-width="3.497824192047119" fill="none" stroke="rgb(95, 197, 170)" stroke-opacity="0.2348804" stroke-linecap="round" stroke-linejoin="round"/>
    <path d="M 138.43905639648438 171.67010498046875 C 166.8060760498047 155.71401977539062 163.8807373046875 155.26316833496094 161.0922393798828 161.6981201171875 C 196.9997100830078 154.12474060058594 203.77438354492188 144.72727966308594 201.6417999267578 155.05796813964844" stroke-width="2.0509161949157715" fill="none" stroke="rgb(114, 105, 123)" stroke-opacity="0.20236957" stroke-linecap="round" stroke-linejoin="round"/>
    <path d="M 83.9720687866211 128.2567901611328 C 91.86331939697266 98.89005279541016 83.24781799316406 74.35540008544922 78.75444030761719 87.01175689697266 C 94.6517562866211 95.31454467773438 107.25336456298828 98.45182037353516 100.98210906982422 81.4740219116211 C 76.47599792480469 62.4646110534668 76.7139892578125 55.666778564453125 89.39045715332031 97.7398910522461" stroke-width="4.731366157531738" fill="none" stroke="rgb(0, 128, 149)" stroke-opacity="0.89084506" stroke-linecap="round" stroke-linejoin="round"/>
    <path d="M 125.29434204101562 81.6261215209961 C 87.50037384033203 75.55449676513672 96.42694854736328 87.06581115722656 99.96651458740234 94.26095581054688 C 122.31481170654297 84.44274139404297 103.71014404296875 71.10945892333984 68.52198791503906 49.48806381225586" stroke-width="2.0" fill="none" stroke="rgb(45, 152, 161)" stroke-opacity="0.48542315" stroke-linecap="round" stroke-linejoin="round"/>
    <path d="M 148.1226806640625 21.60170555114746 C 147.08828735351562 49.177284240722656 122.29167175292969 49.711605072021484 119.39240264892578 51.966758728027344" stroke-width="2.5057761669158936" fill="none" stroke="rgb(39, 230, 129)" stroke-opacity="0.08303356" stroke-linecap="round" stroke-linejoin="round"/>
    <path d="M 119.46806335449219 85.39295959472656 C 147.3455352783203 84.31334686279297 151.35362243652344 67.27460479736328 126.48056030273438 75.0948257446289" stroke-width="3.214123487472534" fill="none" stroke="rgb(183, 157, 7)" stroke-opacity="0.18444185" stroke-linecap="round" stroke-linejoin="round"/>
    <path d="M 37.79655456542969 54.2304573059082 C 67.12088012695312 55.62803649902344 57.878883361816406 57.78712463378906 38.13524627685547 61.11030960083008 C 47.039894104003906 47.366859436035156 46.124629974365234 39.51039123535156 42.35124969482422 41.53728485107422" stroke-width="5.554653644561768" fill="none" stroke="rgb(86, 241, 255)" stroke-opacity="0.61888707" stroke-linecap="round" stroke-linejoin="round"/>
    <path d="M 34.161373138427734 206.84246826171875 C 38.170997619628906 188.31832885742188 31.008363723754883 194.04739379882812 30.05845069885254 157.367431640625 C 16.7972412109375 146.57684326171875 -12.558685302734375 143.55699157714844 6.131965637207031 156.5063018798828 C -0.34240975975990295 175.40216064453125 5.385120868682861 203.691650390625 -3.2829043865203857 206.575439453125" stroke-width="4.076492786407471" fill="none" stroke="rgb(216, 21, 0)" stroke-opacity="0.7202396" stroke-linecap="round" stroke-linejoin="round"/>
    <path d="M 33.34034729003906 70.2618408203125 C 47.486751556396484 95.68244934082031 66.89788055419922 100.3909912109375 72.163818359375 105.95703125 C 70.68250274658203 81.89897155761719 70.04431915283203 57.5187873840332 50.361881256103516 38.7387809753418 C 8.00076961517334 41.52017593383789 29.914880752563477 57.147865295410156 56.31430435180664 78.62618255615234" stroke-width="4.733901023864746" fill="none" stroke="rgb(111, 219, 42)" stroke-opacity="0.5539149" stroke-linecap="round" stroke-linejoin="round"/>
    <path d="M 24.619001388549805 36.86643981933594 C 43.64253616333008 9.408677101135254 44.45589828491211 6.637271404266357 34.24152755737305 -0.6801669597625732 C 21.45997428894043 -2.714536666870117 18.012409210205078 -22.4575138092041 21.9677677154541 -29.827714920043945 C 36.88383483886719 -19.416318893432617 38.10015869140625 -18.504638671875 39.314239501953125 -17.592960357666016" stroke-width="2.0" fill="none" stroke="rgb(144, 78, 176)" stroke-opacity="0.0" stroke-linecap="round" stroke-linejoin="round"/>
  </g>
</svg>
