<?xml version="1.0" ?>
<svg xmlns="http://www.w3.org/2000/svg" version="1.1" width="982.8000000000001" height="982.8000000000001">
  <defs/>
  <g>
    <path d="M 159.41342163085938 141.84963989257812 C 157.22747802734375 149.92105102539062 155.84344482421875 158.85592651367188 150.74412536621094 165.8036346435547 C 146.0897674560547 172.11685180664062 138.1654510498047 175.942626953125 131.16845703125 178.78109741210938 C 118.0378646850586 184.03817749023438 104.1270980834961 183.63706970214844 91.50828552246094 176.94789123535156" stroke-width="2.758946657180786" fill="none" stroke="rgb(21, 23, 28)" stroke-opacity="0.63370126" stroke-linecap="round" stroke-linejoin="round"/>
    <path d="M 91.48533630371094 176.96609497070312 C 83.61885833740234 172.7970733642578 77.97489166259766 165.60853576660156 72.32686614990234 158.93478393554688" stroke-width="2.4250617027282715" fill="none" stroke="rgb(21, 23, 28)" stroke-opacity="0.63370126" stroke-linecap="round" stroke-linejoin="round"/>
    <path d="M 127.0630111694336 56.84086608886719 C 124.45338439941406 60.26299285888672 124.76679992675781 65.41012573242188 124.74215698242188 69.35755157470703 C 124.76345825195312 75.35790252685547 126.3595962524414 81.01396179199219 126.38508605957031 86.91758728027344" stroke-width="2.630293846130371" fill="none" stroke="rgb(24, 24, 24)" stroke-opacity="0.6506448" stroke-linecap="round" stroke-linejoin="round"/>
    <path d="M 95.8266372680664 64.36614227294922 C 95.221435546875 70.8684310913086 95.36520385742188 77.40355682373047 95.37311553955078 83.96208953857422" stroke-width="2.569920063018799" fill="none" stroke="rgb(23, 23, 23)" stroke-opacity="0.65014637" stroke-linecap="round" stroke-linejoin="round"/>
    <path d="M 130.0675048828125 181.5736083984375 C 139.73008728027344 167.3944549560547 146.9427490234375 161.03919982910156 155.60203552246094 152.75889587402344 C 137.8913116455078 160.11041259765625 155.7341766357422 173.07643127441406 159.4848175048828 180.72113037109375" stroke-width="10.0" fill="none" stroke="rgb(84, 57, 20)" stroke-opacity="0.36305043" stroke-linecap="round" stroke-linejoin="round"/>
    <path d="M 91.62857818603516 179.50746154785156 C 86.27719116210938 158.235107421875 101.17394256591797 149.68899536132812 104.65812683105469 145.48887634277344" stroke-width="9.516491889953613" fill="none" stroke="rgb(83, 55, 143)" stroke-opacity="0.3935163" stroke-linecap="round" stroke-linejoin="round"/>
    <path d="M 73.74772644042969 157.81765747070312 C 65.3141860961914 169.12367248535156 82.32254791259766 166.06686401367188 87.38023376464844 160.65835571289062 C 80.72892761230469 159.0714874267578 88.64651489257812 159.48944091796875 84.00572967529297 145.40106201171875 C 86.21517944335938 151.0914764404297 93.55878448486328 141.60369873046875 95.80458068847656 131.1961669921875" stroke-width="2.571479320526123" fill="none" stroke="rgb(67, 2, 43)" stroke-opacity="0.74368197" stroke-linecap="round" stroke-linejoin="round"/>
    <path d="M 94.7021713256836 91.29277038574219 C 106.44120788574219 84.09874725341797 100.9272689819336 84.36585998535156 111.7057876586914 84.6725082397461 C 130.54345703125 72.5905990600586 147.63900756835938 75.02462768554688 152.98196411132812 89.27127075195312" stroke-width="3.531646251678467" fill="none" stroke="rgb(41, 76, 0)" stroke-opacity="0.7892096" stroke-linecap="round" stroke-linejoin="round"/>
    <path d="M 161.39251708984375 142.18978881835938 C 165.49636840820312 156.15737915039062 159.07579040527344 142.52040100097656 161.1673126220703 139.8983154296875 C 178.9158935546875 145.9293975830078 173.90823364257812 140.82395935058594 160.6514129638672 154.75698852539062 C 174.8662109375 153.69110107421875 169.62725830078125 161.15245056152344 157.58587646484375 168.60931396484375" stroke-width="9.381516456604004" fill="none" stroke="rgb(85, 0, 58)" stroke-opacity="0.2994256" stroke-linecap="round" stroke-linejoin="round"/>
    <path d="M 122.7035140991211 183.99368286132812 C 113.42215728759766 172.79705810546875 121.4978256225586 179.4550018310547 116.50057983398438 179.15206909179688 C 126.35464477539062 171.82147216796875 112.62638854980469 160.89474487304688 113.04013061523438 161.62135314941406" stroke-width="2.786766529083252" fill="none" stroke="rgb(78, 0, 16)" stroke-opacity="0.5104296" stroke-linecap="round" stroke-linejoin="round"/>
    <path d="M 95.62316131591797 85.89649200439453 C 106.72962188720703 90.82862854003906 105.76139068603516 71.7169189453125 104.42322540283203 56.128944396972656 C 111.16690063476562 44.38175582885742 102.52165222167969 54.04457092285156 90.6031723022461 68.37993621826172 C 107.57492065429688 77.46090698242188 106.02157592773438 79.37466430664062 96.10322570800781 78.46221923828125" stroke-width="5.259876251220703" fill="none" stroke="rgb(0, 156, 69)" stroke-opacity="0.38562694" stroke-linecap="round" stroke-linejoin="round"/>
    <path d="M 155.38314819335938 141.70938110351562 C 157.29879760742188 127.67461395263672 158.20147705078125 115.23713684082031 173.8225555419922 100.41873931884766 C 166.43539428710938 102.81715393066406 177.96493530273438 122.87803649902344 167.06919860839844 115.06228637695312" stroke-width="5.434765815734863" fill="none" stroke="rgb(13, 113, 43)" stroke-opacity="0.31954235" stroke-linecap="round" stroke-linejoin="round"/>
    <path d="M 135.8389892578125 87.62214660644531 C 122.42601013183594 88.183349609375 112.66667175292969 86.58167266845703 109.97647857666016 70.91462707519531" stroke-width="2.596855401992798" fill="none" stroke="rgb(58, 129, 0)" stroke-opacity="0.64769167" stroke-linecap="round" stroke-linejoin="round"/>
    <path d="M 95.63274383544922 65.62915802001953 C 86.5801010131836 67.34092712402344 92.14170837402344 57.0498161315918 90.5489273071289 63.052494049072266 C 107.37522888183594 55.68653869628906 118.7577133178711 46.947486877441406 133.5202178955078 61.962650299072266 C 120.12127685546875 49.348541259765625 118.53866577148438 47.09758758544922 114.67632293701172 44.04813766479492" stroke-width="3.4438414573669434" fill="none" stroke="rgb(0, 88, 90)" stroke-opacity="0.55909073" stroke-linecap="round" stroke-linejoin="round"/>
    <path d="M 92.88728332519531 177.31138610839844 C 96.05066680908203 174.3845672607422 99.3031234741211 170.61766052246094 89.81056213378906 172.56002807617188 C 100.7879867553711 191.9350128173828 91.90705871582031 180.31503295898438 100.380126953125 163.0111083984375" stroke-width="2.99344539642334" fill="none" stroke="rgb(92, 53, 22)" stroke-opacity="0.8825959" stroke-linecap="round" stroke-linejoin="round"/>
    <path d="M 121.98081970214844 183.86216735839844 C 145.5889434814453 188.2676239013672 128.65386962890625 173.1829071044922 133.4241485595703 186.33619689941406 C 128.9088134765625 186.0652618408203 136.62625122070312 174.53720092773438 148.90443420410156 168.455810546875" stroke-width="8.051737785339355" fill="none" stroke="rgb(63, 25, 0)" stroke-opacity="1.0" stroke-linecap="round" stroke-linejoin="round"/>
    <path d="M 95.3968505859375 86.39247131347656 C 81.01212310791016 70.21034240722656 77.88423919677734 75.9087905883789 87.11013793945312 69.44371032714844" stroke-width="2.495443344116211" fill="none" stroke="rgb(17, 0, 34)" stroke-opacity="1.0" stroke-linecap="round" stroke-linejoin="round"/>
    <path d="M 74.14842224121094 163.8979949951172 C 55.27268600463867 166.18580627441406 68.34519958496094 178.61862182617188 54.725826263427734 192.61007690429688 C 53.18327331542969 190.11680603027344 38.29719924926758 194.74009704589844 36.549407958984375 205.50607299804688 C 23.76567268371582 208.4132537841797 36.39922332763672 211.4784393310547 38.31007766723633 196.91934204101562" stroke-width="2.116349458694458" fill="none" stroke="rgb(41, 57, 52)" stroke-opacity="0.2624395" stroke-linecap="round" stroke-linejoin="round"/>
    <path d="M 95.18463134765625 68.03169250488281 C 78.2043228149414 50.63638687133789 92.25005340576172 65.41020965576172 84.68242645263672 41.410579681396484 C 101.80582427978516 39.59856414794922 108.76437377929688 33.712684631347656 96.03443908691406 27.44013023376465" stroke-width="9.864786148071289" fill="none" stroke="rgb(0, 102, 198)" stroke-opacity="0.43813246" stroke-linecap="round" stroke-linejoin="round"/>
    <path d="M 132.18124389648438 53.992977142333984 C 114.69775390625 52.394004821777344 92.51290893554688 59.715423583984375 84.23541259765625 53.26396179199219 C 69.6630630493164 50.22802734375 70.152587890625 56.40882110595703 68.8525619506836 43.81766128540039 C 52.8408203125 26.297809600830078 38.74296569824219 16.19927215576172 45.61090850830078 14.53876781463623" stroke-width="9.363737106323242" fill="none" stroke="rgb(19, 119, 154)" stroke-opacity="0.41856053" stroke-linecap="round" stroke-linejoin="round"/>
    <path d="M 101.96656799316406 86.31382751464844 C 110.00115966796875 76.87413787841797 105.29578399658203 91.93363189697266 119.17627716064453 76.17118072509766 C 129.30784606933594 94.29701232910156 141.20901489257812 82.05123138427734 133.85952758789062 83.66201782226562" stroke-width="6.375957012176514" fill="none" stroke="rgb(67, 200, 0)" stroke-opacity="0.32327142" stroke-linecap="round" stroke-linejoin="round"/>
    <path d="M 125.72305297851562 69.64434051513672 C 127.82588195800781 84.80091857910156 132.5730438232422 87.71461486816406 127.48969268798828 80.51878356933594 C 122.35694122314453 85.39105224609375 135.88235473632812 84.63423156738281 122.21295928955078 76.94963073730469 C 135.87486267089844 57.14574432373047 124.2864990234375 51.76003646850586 134.350830078125 62.083621978759766" stroke-width="1.0" fill="none" stroke="rgb(100, 50, 0)" stroke-opacity="0.03375447" stroke-linecap="round" stroke-linejoin="round"/>
    <path d="M 125.7769775390625 62.583778381347656 C 124.43343353271484 66.11727905273438 119.82511901855469 65.9020004272461 140.072998046875 66.22740173339844" stroke-width="4.504037857055664" fill="none" stroke="rgb(0, 31, 14)" stroke-opacity="1.0" stroke-linecap="round" stroke-linejoin="round"/>
    <path d="M 74.76727294921875 157.65867614746094 C 72.89585876464844 137.96829223632812 58.49251174926758 125.63745880126953 42.57079315185547 116.18074798583984 C 56.82630920410156 111.74079895019531 63.48493194580078 127.26313018798828 53.24698257446289 126.97904968261719 C 35.74299621582031 134.62127685546875 34.06220626831055 140.86277770996094 47.37527847290039 144.49844360351562" stroke-width="2.199204444885254" fill="none" stroke="rgb(71, 86, 42)" stroke-opacity="0.5312381" stroke-linecap="round" stroke-linejoin="round"/>
    <path d="M 150.07421875 165.77001953125 C 134.16864013671875 167.53555297851562 137.3040008544922 177.29037475585938 149.9040069580078 190.8336181640625" stroke-width="10.0" fill="none" stroke="rgb(25, 35, 0)" stroke-opacity="0.3355681" stroke-linecap="round" stroke-linejoin="round"/>
    <path d="M 128.61529541015625 176.40933227539062 C 119.58506774902344 164.92933654785156 128.2163543701172 165.5095977783203 137.12869262695312 151.40896606445312" stroke-width="9.492696762084961" fill="none" stroke="rgb(34, 79, 255)" stroke-opacity="0.2506462" stroke-linecap="round" stroke-linejoin="round"/>
    <path d="M 128.92811584472656 84.56425476074219 C 143.18394470214844 65.67390441894531 124.95748138427734 77.07272338867188 116.94873046875 75.29016876220703 C 112.09915161132812 48.14543914794922 95.74591827392578 47.04029083251953 78.82520294189453 44.26640701293945 C 73.84825897216797 61.00620651245117 64.29692840576172 72.43543243408203 66.73094177246094 55.479225158691406" stroke-width="10.0" fill="none" stroke="rgb(59, 172, 2)" stroke-opacity="0.57744247" stroke-linecap="round" stroke-linejoin="round"/>
    <path d="M 94.63825988769531 125.2894515991211 C 91.12000274658203 136.3976593017578 107.03247833251953 124.42133331298828 106.36030578613281 135.5731658935547 C 113.90704345703125 131.40310668945312 121.94500732421875 124.74677276611328 138.1944580078125 118.79393005371094 C 152.95147705078125 118.57001495361328 151.5513153076172 127.59490966796875 136.62660217285156 115.45419311523438" stroke-width="3.9967403411865234" fill="none" stroke="rgb(63, 45, 0)" stroke-opacity="1.0" stroke-linecap="round" stroke-linejoin="round"/>
    <path d="M 46.346675872802734 139.591552734375 C 61.36601638793945 135.62417602539062 67.21558380126953 126.58329772949219 76.46636199951172 143.14242553710938" stroke-width="6.574798583984375" fill="none" stroke="rgb(68, 0, 52)" stroke-opacity="0.2693003" stroke-linecap="round" stroke-linejoin="round"/>
    <path d="M 143.88772583007812 195.94296264648438 C 145.1527862548828 194.7212371826172 158.2288055419922 202.2449951171875 172.45274353027344 207.96961975097656 C 172.99813842773438 202.9475860595703 187.6529998779297 209.3640899658203 187.279052734375 212.16432189941406" stroke-width="3.700330972671509" fill="none" stroke="rgb(86, 46, 62)" stroke-opacity="0.57792604" stroke-linecap="round" stroke-linejoin="round"/>
    <path d="M 168.88050842285156 104.71833038330078 C 166.0696258544922 97.7360610961914 164.3003387451172 99.96165466308594 184.85308837890625 102.09550476074219" stroke-width="8.313115119934082" fill="none" stroke="rgb(30, 45, 9)" stroke-opacity="0.7813025" stroke-linecap="round" stroke-linejoin="round"/>
    <path d="M 109.4330825805664 71.55680847167969 C 107.84140014648438 58.674560546875 106.60645294189453 61.42640686035156 114.80037689208984 40.8824462890625 C 101.4135513305664 52.55294418334961 110.88473510742188 53.378143310546875 109.26118469238281 49.89183807373047" stroke-width="2.9311344623565674" fill="none" stroke="rgb(35, 77, 0)" stroke-opacity="0.90657187" stroke-linecap="round" stroke-linejoin="round"/>
    <path d="M 65.5138168334961 55.58937072753906 C 56.7509880065918 75.08924102783203 54.445472717285156 78.63720703125 38.514068603515625 57.419952392578125 C 25.878393173217773 53.02579116821289 37.20476531982422 61.487300872802734 52.84377670288086 81.08975982666016" stroke-width="4.96760368347168" fill="none" stroke="rgb(0, 7, 99)" stroke-opacity="1.0" stroke-linecap="round" stroke-linejoin="round"/>
    <path d="M 131.75245666503906 61.96452331542969 C 123.89501953125 65.8609619140625 126.02947235107422 54.01480484008789 139.32044982910156 63.99363327026367" stroke-width="3.76476788520813" fill="none" stroke="rgb(50, 117, 2)" stroke-opacity="0.49955735" stroke-linecap="round" stroke-linejoin="round"/>
    <path d="M 90.20370483398438 66.48776245117188 C 81.10751342773438 79.6368637084961 63.52085876464844 70.135009765625 49.48640823364258 73.7562255859375 C 51.11141586303711 78.05254364013672 61.83131790161133 75.55519104003906 56.10273361206055 59.80358123779297" stroke-width="3.228567123413086" fill="none" stroke="rgb(31, 1, 34)" stroke-opacity="0.30836678" stroke-linecap="round" stroke-linejoin="round"/>
    <path d="M 156.5613555908203 86.3252182006836 C 168.3472900390625 100.63245391845703 177.7576446533203 100.55186462402344 166.05979919433594 104.87259674072266 C 187.09454345703125 112.71805572509766 200.47694396972656 117.12938690185547 181.29443359375 129.57485961914062" stroke-width="7.9153876304626465" fill="none" stroke="rgb(58, 147, 0)" stroke-opacity="0.65440756" stroke-linecap="round" stroke-linejoin="round"/>
    <path d="M 139.8557891845703 56.19057083129883 C 139.12081909179688 55.4655876159668 134.70193481445312 65.45191192626953 143.20570373535156 78.22505187988281" stroke-width="7.544509410858154" fill="none" stroke="rgb(0, 79, 122)" stroke-opacity="0.88129485" stroke-linecap="round" stroke-linejoin="round"/>
    <path d="M 88.39137268066406 76.80912780761719 C 84.61018371582031 67.8487548828125 71.84700012207031 60.56986999511719 58.83683776855469 46.336387634277344 C 64.5599136352539 32.49345779418945 48.94164276123047 26.20086669921875 64.23686981201172 32.72355270385742 C 51.736778259277344 27.664701461791992 51.610557556152344 49.21448516845703 40.340904235839844 53.93892288208008" stroke-width="9.411331176757812" fill="none" stroke="rgb(26, 164, 0)" stroke-opacity="0.7156786" stroke-linecap="round" stroke-linejoin="round"/>
    <path d="M 65.17676544189453 59.733795166015625 C 50.17000961303711 50.888916015625 44.30049133300781 64.2703628540039 55.93842697143555 58.17744827270508 C 51.08411407470703 58.18095397949219 60.81934356689453 61.49486541748047 57.74037551879883 67.62206268310547 C 61.47635269165039 52.14822006225586 60.47377014160156 49.36052322387695 66.66170501708984 57.87623596191406" stroke-width="4.153327465057373" fill="none" stroke="rgb(0, 11, 33)" stroke-opacity="0.34865487" stroke-linecap="round" stroke-linejoin="round"/>
    <path d="M 112.0316162109375 75.66282653808594 C 109.57061004638672 82.4670639038086 92.17442321777344 78.93461608886719 89.88864135742188 90.90155029296875 C 100.43555450439453 95.31455993652344 96.0509262084961 94.3795394897461 100.61500549316406 111.17056274414062" stroke-width="3.5090081691741943" fill="none" stroke="rgb(14, 10, 14)" stroke-opacity="0.3090094" stroke-linecap="round" stroke-linejoin="round"/>
    <path d="M 135.12042236328125 61.21905517578125 C 129.2960662841797 69.41588592529297 127.39569854736328 50.23513412475586 112.19515991210938 59.9103889465332 C 89.52747344970703 58.16157531738281 86.95425415039062 44.79753875732422 77.05911254882812 30.40054702758789 C 85.49740600585938 38.03403091430664 74.88211822509766 30.997255325317383 61.14717102050781 45.699310302734375" stroke-width="2.6327357292175293" fill="none" stroke="rgb(0, 23, 0)" stroke-opacity="0.54614264" stroke-linecap="round" stroke-linejoin="round"/>
    <path d="M 91.64028930664062 135.9483184814453 C 84.3924560546875 138.22311401367188 96.28492736816406 143.69981384277344 115.10177612304688 154.96405029296875 C 107.25743865966797 165.61013793945312 116.5569839477539 159.004150390625 108.1476058959961 167.7821044921875 C 89.12605285644531 162.82638549804688 98.3768310546875 172.2987060546875 98.86469268798828 190.6776885986328" stroke-width="3.226223945617676" fill="none" stroke="rgb(77, 14, 74)" stroke-opacity="0.4814721" stroke-linecap="round" stroke-linejoin="round"/>
    <path d="M 92.7337875366211 78.2157974243164 C 104.34513854980469 66.37348937988281 104.41315460205078 69.64153289794922 85.71110534667969 53.65919494628906 C 87.31488800048828 62.99282455444336 98.59781646728516 51.09526062011719 115.35336303710938 46.86197280883789" stroke-width="8.380175590515137" fill="none" stroke="rgb(0, 105, 132)" stroke-opacity="0.73815244" stroke-linecap="round" stroke-linejoin="round"/>
    <path d="M 98.45049285888672 25.195600509643555 C 91.52491760253906 7.15477180480957 94.62109375 15.39935302734375 96.83755493164062 19.51833152770996 C 108.66388702392578 14.777591705322266 95.14195251464844 13.759268760681152 106.60346984863281 18.24921417236328 C 95.36786651611328 29.824970245361328 101.0438003540039 40.347312927246094 85.02538299560547 31.096534729003906" stroke-width="1.6907751560211182" fill="none" stroke="rgb(8, 134, 149)" stroke-opacity="0.50631326" stroke-linecap="round" stroke-linejoin="round"/>
    <path d="M 100.10446166992188 161.451416015625 C 87.48841094970703 178.81822204589844 97.31208038330078 185.95396423339844 107.19755554199219 178.65130615234375" stroke-width="6.141045093536377" fill="none" stroke="rgb(76, 76, 60)" stroke-opacity="0.43373257" stroke-linecap="round" stroke-linejoin="round"/>
    <path d="M 112.1123046875 67.3765640258789 C 99.00721740722656 62.814964294433594 93.66468811035156 58.40970993041992 91.02960205078125 50.099884033203125" stroke-width="3.965603828430176" fill="none" stroke="rgb(0, 63, 18)" stroke-opacity="0.17437924" stroke-linecap="round" stroke-linejoin="round"/>
    <path d="M 120.73741912841797 45.415897369384766 C 116.20071411132812 56.19229507446289 124.0765151977539 57.258033752441406 119.87716674804688 61.643672943115234" stroke-width="6.744111061096191" fill="none" stroke="rgb(0, 81, 161)" stroke-opacity="1.0" stroke-linecap="round" stroke-linejoin="round"/>
    <path d="M 95.50176239013672 22.36872100830078 C 96.4253158569336 23.341398239135742 99.8484115600586 26.36637306213379 95.05211639404297 25.200679779052734" stroke-width="3.6335716247558594" fill="none" stroke="rgb(75, 0, 49)" stroke-opacity="0.5746283" stroke-linecap="round" stroke-linejoin="round"/>
    <path d="M 176.93887329101562 113.34703063964844 C 181.50413513183594 111.37125396728516 170.5980682373047 123.65460205078125 165.84091186523438 119.8916015625 C 179.76242065429688 123.636962890625 171.27850341796875 114.23159790039062 163.435791015625 131.1159210205078 C 149.0551300048828 121.15223693847656 144.0183868408203 128.4379425048828 163.48495483398438 114.05439758300781" stroke-width="2.401524305343628" fill="none" stroke="rgb(44, 112, 0)" stroke-opacity="0.97829795" stroke-linecap="round" stroke-linejoin="round"/>
    <path d="M 51.39098358154297 21.423843383789062 C 62.15603256225586 20.991016387939453 71.5033950805664 37.286502838134766 73.81839752197266 54.17979049682617 C 73.81230926513672 54.179656982421875 86.90705871582031 65.77167510986328 84.6507339477539 37.5791130065918" stroke-width="3.2574522495269775" fill="none" stroke="rgb(0, 64, 0)" stroke-opacity="0.732703" stroke-linecap="round" stroke-linejoin="round"/>
    <path d="M 194.3077392578125 153.3943328857422 C 208.6593780517578 141.8081817626953 190.86166381835938 127.22461700439453 186.91685485839844 130.84031677246094 C 201.43179321289062 119.33943176269531 195.656982421875 122.48262786865234 180.43719482421875 132.8238983154297" stroke-width="2.776634693145752" fill="none" stroke="rgb(62, 69, 1)" stroke-opacity="0.55003333" stroke-linecap="round" stroke-linejoin="round"/>
    <path d="M 130.51112365722656 97.3977279663086 C 130.6085662841797 112.4183349609375 126.46656799316406 130.3297576904297 127.66927337646484 142.25360107421875 C 119.14778137207031 146.44363403320312 101.20208740234375 131.99374389648438 105.58087921142578 151.9735565185547 C 108.7800521850586 136.85360717773438 109.30674743652344 118.59891510009766 120.39103698730469 135.46363830566406" stroke-width="10.0" fill="none" stroke="rgb(69, 246, 0)" stroke-opacity="1.0" stroke-linecap="round" stroke-linejoin="round"/>
    <path d="M 87.9276123046875 128.1761932373047 C 95.26322174072266 134.9302978515625 83.96973419189453 143.1584930419922 77.63189697265625 141.32061767578125 C 84.8425064086914 146.3387908935547 76.71165466308594 156.83998107910156 65.8740234375 158.09487915039062 C 77.99604797363281 165.2042999267578 90.39403533935547 155.11636352539062 80.81077575683594 156.79580688476562" stroke-width="7.722265243530273" fill="none" stroke="rgb(100, 182, 255)" stroke-opacity="0.39174077" stroke-linecap="round" stroke-linejoin="round"/>
    <path d="M 38.31856918334961 191.60841369628906 C 29.32522964477539 184.71548461914062 33.408111572265625 165.70986938476562 22.765636444091797 172.7215576171875 C 13.0690279006958 176.21617126464844 12.738178253173828 186.70401000976562 1.1539573669433594 170.61709594726562 C 9.050196647644043 186.63961791992188 7.344973087310791 186.85678100585938 -9.38782787322998 186.59559631347656" stroke-width="1.0" fill="none" stroke="rgb(68, 126, 4)" stroke-opacity="0.0" stroke-linecap="round" stroke-linejoin="round"/>
    <path d="M 56.81740951538086 95.64676666259766 C 63.56761932373047 112.49736022949219 80.96733093261719 111.39959716796875 70.6268310546875 107.62487030029297 C 60.45751190185547 111.9827651977539 56.2664680480957 122.6164321899414 46.3953971862793 115.53645324707031" stroke-width="3.3531699180603027" fill="none" stroke="rgb(142, 129, 144)" stroke-opacity="0.6175534" stroke-linecap="round" stroke-linejoin="round"/>
    <path d="M 209.7368621826172 0.5553584098815918 C 208.15676879882812 18.039262771606445 193.81434631347656 23.870058059692383 202.9461669921875 37.29987335205078" stroke-width="1.1333212852478027" fill="none" stroke="rgb(111, 171, 55)" stroke-opacity="0.34509635" stroke-linecap="round" stroke-linejoin="round"/>
    <path d="M 6.152297019958496 158.62950134277344 C 14.025253295898438 171.4911346435547 9.788470268249512 158.81605529785156 1.6805213689804077 144.9638214111328 C -11.053598403930664 144.68406677246094 -21.471538543701172 147.43618774414062 -16.023035049438477 145.4151153564453" stroke-width="5.903486728668213" fill="none" stroke="rgb(200, 255, 92)" stroke-opacity="0.0" stroke-linecap="round" stroke-linejoin="round"/>
    <path d="M 24.218746185302734 153.77508544921875 C 13.180922508239746 151.26780700683594 -8.696920394897461 157.51541137695312 -21.139493942260742 156.3028106689453" stroke-width="1.0" fill="none" stroke="rgb(117, 0, 1)" stroke-opacity="1.0" stroke-linecap="round" stroke-linejoin="round"/>
    <path d="M 70.61143493652344 185.53326416015625 C 82.02751922607422 185.26055908203125 80.42388916015625 166.65826416015625 68.0090560913086 153.8527069091797 C 72.7780990600586 135.40928649902344 84.39636993408203 133.9555206298828 75.6366958618164 138.18003845214844 C 63.13937759399414 145.6094207763672 69.91757202148438 130.04185485839844 84.45428466796875 117.07888793945312" stroke-width="9.277277946472168" fill="none" stroke="rgb(173, 252, 139)" stroke-opacity="0.030786807" stroke-linecap="round" stroke-linejoin="round"/>
    <path d="M 147.6656951904297 195.973876953125 C 153.6808624267578 208.8094024658203 159.4113311767578 217.28514099121094 162.6024169921875 205.92324829101562 C 154.50534057617188 200.43663024902344 167.12860107421875 189.17605590820312 164.66818237304688 173.41445922851562 C 183.3895263671875 171.57794189453125 198.50108337402344 186.62789916992188 202.56658935546875 172.39859008789062" stroke-width="1.0" fill="none" stroke="rgb(116, 41, 115)" stroke-opacity="0.6524938" stroke-linecap="round" stroke-linejoin="round"/>
    <path d="M 48.051395416259766 116.9869155883789 C 49.144775390625 109.262451171875 65.33824920654297 99.94479370117188 52.335121154785156 85.72083282470703 C 53.122100830078125 67.15510559082031 47.03900146484375 60.00935745239258 47.51255416870117 63.82607650756836 C 33.8155517578125 61.38092803955078 10.155339241027832 53.40669250488281 17.45646858215332 63.28306198120117" stroke-width="1.8892760276794434" fill="none" stroke="rgb(43, 0, 41)" stroke-opacity="0.5258359" stroke-linecap="round" stroke-linejoin="round"/>
    <path d="M 222.15171813964844 214.98487854003906 C 235.11846923828125 217.4720001220703 227.05770874023438 233.7323760986328 240.66757202148438 221.02195739746094 C 241.55612182617188 237.37554931640625 229.23785400390625 248.59994506835938 240.0641326904297 245.27407836914062" stroke-width="1.7117347717285156" fill="none" stroke="rgb(70, 185, 71)" stroke-opacity="0.474651" stroke-linecap="round" stroke-linejoin="round"/>
    <path d="M 218.90415954589844 80.24826049804688 C 213.3267059326172 84.21697998046875 196.5396270751953 83.72716522216797 191.8356475830078 95.48017883300781" stroke-width="3.531132936477661" fill="none" stroke="rgb(176, 148, 146)" stroke-opacity="0.5155453" stroke-linecap="round" stroke-linejoin="round"/>
    <path d="M 107.49730682373047 139.578857421875 C 115.87360382080078 152.26150512695312 125.1781234741211 156.7516326904297 140.43653869628906 157.19024658203125" stroke-width="3.0003082752227783" fill="none" stroke="rgb(49, 255, 200)" stroke-opacity="0.0" stroke-linecap="round" stroke-linejoin="round"/>
    <path d="M 20.028684616088867 201.42117309570312 C 15.712936401367188 191.6609649658203 12.112717628479004 177.06768798828125 8.781795501708984 180.52972412109375 C -1.5052216053009033 192.0374298095703 -11.4139404296875 175.1073455810547 -2.8473808765411377 158.9284210205078 C 6.895136833190918 154.74493408203125 17.686492919921875 170.916015625 11.297361373901367 181.0352783203125" stroke-width="1.0" fill="none" stroke="rgb(242, 221, 242)" stroke-opacity="0.007334822" stroke-linecap="round" stroke-linejoin="round"/>
    <path d="M 190.44935607910156 203.24530029296875 C 177.84754943847656 217.50865173339844 165.5550537109375 226.8472442626953 174.5113067626953 224.9168701171875 C 157.5148162841797 210.81277465820312 173.47067260742188 203.66746520996094 165.109130859375 188.51292419433594" stroke-width="7.054762840270996" fill="none" stroke="rgb(132, 209, 220)" stroke-opacity="0.4834463" stroke-linecap="round" stroke-linejoin="round"/>
    <path d="M 174.32579040527344 83.87757110595703 C 176.1991729736328 102.561279296875 188.47828674316406 87.53204345703125 189.50721740722656 97.92388916015625 C 197.3925018310547 112.56591033935547 177.07806396484375 124.50077056884766 195.2586669921875 137.98907470703125 C 197.74749755859375 148.62680053710938 188.3336181640625 130.82176208496094 198.475341796875 141.1963653564453" stroke-width="3.3956515789031982" fill="none" stroke="rgb(37, 0, 54)" stroke-opacity="0.6137967" stroke-linecap="round" stroke-linejoin="round"/>
    <path d="M 182.83729553222656 128.27627563476562 C 181.63514709472656 124.2100601196289 185.26675415039062 117.17413330078125 176.08360290527344 128.43637084960938 C 160.74270629882812 126.3976058959961 164.56439208984375 116.7216796875 148.56640625 118.2313461303711 C 127.18494415283203 103.1613540649414 143.51065063476562 115.96955108642578 150.62213134765625 115.14301300048828" stroke-width="7.47998571395874" fill="none" stroke="rgb(87, 223, 43)" stroke-opacity="0.6656624" stroke-linecap="round" stroke-linejoin="round"/>
    <path d="M 196.82315063476562 30.428407669067383 C 206.05209350585938 39.4249382019043 203.4932861328125 54.423500061035156 209.63795471191406 29.97412109375 C 214.0697784423828 35.56508255004883 197.00511169433594 24.702560424804688 194.87448120117188 19.54147720336914 C 182.626953125 22.41363525390625 170.5802764892578 21.2069034576416 157.10235595703125 19.636459350585938" stroke-width="1.0" fill="none" stroke="rgb(45, 193, 0)" stroke-opacity="0.0" stroke-linecap="round" stroke-linejoin="round"/>
    <path d="M 215.4087371826172 210.27093505859375 C 220.25624084472656 206.69288635253906 224.05087280273438 216.39491271972656 215.794921875 200.353515625 C 208.46498107910156 191.11367797851562 223.57740783691406 193.05618286132812 214.15187072753906 178.09339904785156" stroke-width="1.6421550512313843" fill="none" stroke="rgb(158, 87, 157)" stroke-opacity="0.5298231" stroke-linecap="round" stroke-linejoin="round"/>
    <path d="M 198.02549743652344 17.906654357910156 C 200.98269653320312 6.400321006774902 177.7126007080078 7.702855587005615 200.1217041015625 8.927538871765137 C 198.44955444335938 -7.8654890060424805 199.68228149414062 -1.7495505809783936 213.37789916992188 -11.178999900817871 C 231.83596801757812 -4.259294509887695 238.56051635742188 -10.880677223205566 242.87380981445312 -21.980741500854492" stroke-width="10.0" fill="none" stroke="rgb(142, 23, 69)" stroke-opacity="0.22232868" stroke-linecap="round" stroke-linejoin="round"/>
    <path d="M 213.65377807617188 66.73075866699219 C 210.39666748046875 81.79261779785156 203.84095764160156 76.3143310546875 217.78550720214844 80.98941040039062 C 209.1448211669922 62.82000732421875 199.58473205566406 49.25748825073242 214.67967224121094 56.30353927612305 C 222.76426696777344 36.513580322265625 237.11241149902344 51.105812072753906 227.74270629882812 65.63899230957031" stroke-width="1.8056632280349731" fill="none" stroke="rgb(181, 84, 168)" stroke-opacity="0.5207925" stroke-linecap="round" stroke-linejoin="round"/>
    <path d="M 172.36399841308594 83.31050872802734 C 147.5908203125 85.19024658203125 167.6019287109375 85.70491027832031 170.255859375 91.22402954101562 C 172.2207489013672 107.43099212646484 177.80291748046875 95.07780456542969 189.78561401367188 100.14935302734375" stroke-width="8.061585426330566" fill="none" stroke="rgb(178, 242, 255)" stroke-opacity="0.9400298" stroke-linecap="round" stroke-linejoin="round"/>
    <path d="M 218.28298950195312 217.6470489501953 C 228.57582092285156 216.91213989257812 239.78443908691406 227.53285217285156 252.29217529296875 231.0908660888672 C 246.2412567138672 240.7471160888672 244.30233764648438 248.4705810546875 231.56887817382812 262.6070556640625" stroke-width="1.534141182899475" fill="none" stroke="rgb(222, 82, 124)" stroke-opacity="0.0" stroke-linecap="round" stroke-linejoin="round"/>
    <path d="M 218.70675659179688 16.900978088378906 C 236.8009033203125 25.785776138305664 243.47946166992188 37.53440856933594 221.72268676757812 41.232845306396484 C 225.03623962402344 48.09073257446289 223.82797241210938 37.31410217285156 222.41542053222656 23.388795852661133" stroke-width="2.783810615539551" fill="none" stroke="rgb(138, 71, 161)" stroke-opacity="0.43566278" stroke-linecap="round" stroke-linejoin="round"/>
    <path d="M 54.22361373901367 74.38966369628906 C 45.59644317626953 65.53530883789062 35.32265090942383 59.18643569946289 35.45494079589844 72.64207458496094 C 30.57107925415039 69.61138916015625 14.809956550598145 74.21153259277344 16.652381896972656 67.79347229003906" stroke-width="10.0" fill="none" stroke="rgb(0, 0, 247)" stroke-opacity="1.0" stroke-linecap="round" stroke-linejoin="round"/>
    <path d="M 178.697998046875 76.79286193847656 C 169.43394470214844 78.41852569580078 156.7697296142578 63.779136657714844 151.89019775390625 78.8890609741211" stroke-width="3.8399178981781006" fill="none" stroke="rgb(198, 255, 163)" stroke-opacity="0.09156521" stroke-linecap="round" stroke-linejoin="round"/>
    <path d="M 50.55609893798828 109.81339263916016 C 46.386634826660156 119.77608489990234 38.16825485229492 136.83682250976562 49.08293151855469 123.9614486694336" stroke-width="8.152664184570312" fill="none" stroke="rgb(97, 224, 255)" stroke-opacity="0.54896176" stroke-linecap="round" stroke-linejoin="round"/>
    <path d="M 163.76876831054688 222.4313201904297 C 159.69229125976562 205.91827392578125 158.64169311523438 222.53001403808594 162.0064239501953 244.02191162109375 C 164.9661407470703 241.31414794921875 153.57821655273438 250.36297607421875 145.35362243652344 257.8233337402344" stroke-width="7.513208389282227" fill="none" stroke="rgb(120, 45, 25)" stroke-opacity="0.35968208" stroke-linecap="round" stroke-linejoin="round"/>
    <path d="M 127.40544128417969 149.58395385742188 C 146.56951904296875 168.8701629638672 140.8829345703125 166.4116668701172 129.2129669189453 178.9241485595703" stroke-width="2.5414493083953857" fill="none" stroke="rgb(70, 18, 45)" stroke-opacity="0.6334544" stroke-linecap="round" stroke-linejoin="round"/>
    <path d="M 147.9270477294922 218.78614807128906 C 140.91778564453125 232.03627014160156 154.85546875 235.61370849609375 167.5481719970703 248.49752807617188" stroke-width="2.9210903644561768" fill="none" stroke="rgb(158, 255, 130)" stroke-opacity="0.10569865" stroke-linecap="round" stroke-linejoin="round"/>
    <path d="M 197.40367126464844 162.6167449951172 C 216.92417907714844 179.46885681152344 219.1540985107422 165.50991821289062 211.03396606445312 168.7577667236328 C 203.51632690429688 159.11817932128906 189.11236572265625 148.7986602783203 176.9758758544922 151.56686401367188 C 194.77056884765625 151.18142700195312 214.91957092285156 140.7297821044922 187.53616333007812 141.4302215576172" stroke-width="2.6767053604125977" fill="none" stroke="rgb(148, 44, 99)" stroke-opacity="0.25663057" stroke-linecap="round" stroke-linejoin="round"/>
    <path d="M 12.596721649169922 136.40005493164062 C 12.100981712341309 155.11361694335938 14.771718978881836 157.50352478027344 1.1122981309890747 154.1057586669922" stroke-width="4.8407769203186035" fill="none" stroke="rgb(255, 0, 0)" stroke-opacity="1.0" stroke-linecap="round" stroke-linejoin="round"/>
    <path d="M 92.81694793701172 7.754805088043213 C 78.24015045166016 9.87963581085205 68.53022766113281 21.0070858001709 81.41426849365234 25.709239959716797 C 98.57012176513672 35.9106330871582 100.78077697753906 30.100290298461914 93.6653060913086 27.86265754699707 C 78.4897232055664 30.75170135498047 89.23283386230469 32.479068756103516 104.70917510986328 30.822093963623047" stroke-width="1.8481138944625854" fill="none" stroke="rgb(86, 116, 192)" stroke-opacity="0.2613188" stroke-linecap="round" stroke-linejoin="round"/>
    <path d="M 162.40989685058594 16.768688201904297 C 171.9801788330078 24.32709503173828 166.58953857421875 28.89092445373535 171.2806854248047 27.61326789855957" stroke-width="8.527416229248047" fill="none" stroke="rgb(103, 88, 98)" stroke-opacity="0.0" stroke-linecap="round" stroke-linejoin="round"/>
    <path d="M 192.69235229492188 159.07801818847656 C 189.25152587890625 147.05784606933594 176.34678649902344 154.5056915283203 182.36175537109375 147.87599182128906 C 178.06166076660156 136.0614471435547 182.8719024658203 147.45664978027344 173.80490112304688 148.36231994628906" stroke-width="3.637669086456299" fill="none" stroke="rgb(32, 45, 16)" stroke-opacity="0.36695835" stroke-linecap="round" stroke-linejoin="round"/>
    <path d="M 177.08551025390625 205.03733825683594 C 169.8861083984375 195.75672912597656 164.5178985595703 206.67596435546875 177.21722412109375 220.90052795410156 C 169.5775604248047 223.39468383789062 169.30252075195312 223.8026885986328 161.74359130859375 239.64398193359375 C 152.36720275878906 238.8653564453125 149.89923095703125 242.27154541015625 163.14920043945312 231.3643798828125" stroke-width="3.8428845405578613" fill="none" stroke="rgb(41, 62, 183)" stroke-opacity="0.4662543" stroke-linecap="round" stroke-linejoin="round"/>
    <path d="M 38.330711364746094 121.4566421508789 C 47.5555305480957 133.51292419433594 35.761661529541016 147.61148071289062 37.98970031738281 144.59132385253906 C 43.21330642700195 134.92994689941406 54.58890151977539 151.76580810546875 51.82571792602539 165.9453887939453" stroke-width="1.0" fill="none" stroke="rgb(159, 166, 138)" stroke-opacity="0.41265127" stroke-linecap="round" stroke-linejoin="round"/>
    <path d="M 16.640098571777344 213.88856506347656 C 19.49285316467285 215.40435791015625 5.3570990562438965 209.92784118652344 18.654890060424805 212.36688232421875 C 32.416133880615234 203.19259643554688 19.57037925720215 223.55653381347656 9.39724063873291 241.1337127685547" stroke-width="1.0" fill="none" stroke="rgb(86, 164, 138)" stroke-opacity="0.4433143" stroke-linecap="round" stroke-linejoin="round"/>
    <path d="M 17.343093872070312 11.503745079040527 C 15.626174926757812 15.994958877563477 17.594385147094727 3.4563205242156982 20.38232421875 12.091261863708496" stroke-width="1.5726203918457031" fill="none" stroke="rgb(70, 81, 62)" stroke-opacity="0.34888098" stroke-linecap="round" stroke-linejoin="round"/>
    <path d="M 88.61846160888672 72.8469467163086 C 81.96434783935547 74.77462768554688 83.90797424316406 70.67664337158203 72.08503723144531 55.716793060302734 C 83.78789520263672 50.03731918334961 96.31188201904297 41.20568084716797 106.28632354736328 39.771976470947266 C 120.4416732788086 29.377578735351562 124.90742492675781 20.646711349487305 108.853271484375 25.543842315673828" stroke-width="1.9066746234893799" fill="none" stroke="rgb(145, 255, 99)" stroke-opacity="0.09113992" stroke-linecap="round" stroke-linejoin="round"/>
    <path d="M 127.17189025878906 125.0527572631836 C 100.20381164550781 122.62764739990234 106.82846069335938 125.58307647705078 125.13568878173828 122.36334228515625" stroke-width="3.802887439727783" fill="none" stroke="rgb(21, 0, 0)" stroke-opacity="1.0" stroke-linecap="round" stroke-linejoin="round"/>
    <path d="M 133.30406188964844 195.9189453125 C 145.35398864746094 188.22694396972656 134.2594757080078 184.83050537109375 141.49537658691406 186.65699768066406 C 124.66665649414062 185.2891082763672 122.03076934814453 171.40673828125 131.8439483642578 166.3075714111328 C 121.71768951416016 176.16287231445312 104.93254089355469 183.59547424316406 122.40374755859375 180.42071533203125" stroke-width="6.225849628448486" fill="none" stroke="rgb(66, 70, 0)" stroke-opacity="0.20411281" stroke-linecap="round" stroke-linejoin="round"/>
    <path d="M 63.34204864501953 49.133522033691406 C 74.49812316894531 57.17597961425781 82.28572845458984 43.112083435058594 61.39487838745117 27.07623863220215 C 65.04814910888672 25.61098289489746 75.59095764160156 15.566187858581543 70.99823760986328 -0.3741118013858795 C 57.95765686035156 -10.12271499633789 72.49398803710938 -3.109070301055908 87.2903060913086 13.070194244384766" stroke-width="2.0343270301818848" fill="none" stroke="rgb(69, 157, 113)" stroke-opacity="0.37440503" stroke-linecap="round" stroke-linejoin="round"/>
    <path d="M 102.61290740966797 9.111896514892578 C 100.4598159790039 -7.091805934906006 106.9461898803711 -21.987947463989258 109.16893005371094 -10.510357856750488" stroke-width="7.5174736976623535" fill="none" stroke="rgb(81, 150, 197)" stroke-opacity="0.51660526" stroke-linecap="round" stroke-linejoin="round"/>
    <path d="M 43.61148452758789 174.57810974121094 C 50.851749420166016 172.9893035888672 48.506553649902344 174.18841552734375 60.79022979736328 194.22268676757812 C 58.87565231323242 198.27284240722656 54.72643280029297 198.9351348876953 52.051422119140625 195.74371337890625" stroke-width="1.1622081995010376" fill="none" stroke="rgb(154, 243, 157)" stroke-opacity="0.14669208" stroke-linecap="round" stroke-linejoin="round"/>
  </g>
</svg>
