<?xml version="1.0" ?>
<svg xmlns="http://www.w3.org/2000/svg" version="1.1" width="982.8000000000001" height="982.8000000000001">
  <defs/>
  <g>
    <path d="M 159.43063354492188 141.851806640625 C 157.2352752685547 149.919189453125 155.84030151367188 158.8510284423828 150.74444580078125 165.76544189453125 C 146.0889892578125 172.13259887695312 138.16793823242188 175.993896484375 131.14060974121094 178.76055908203125 C 118.05480194091797 184.0227813720703 104.13084411621094 183.63616943359375 91.4911117553711 176.95420837402344" stroke-width="2.503066301345825" fill="none" stroke="rgb(21, 25, 21)" stroke-opacity="0.6406317" stroke-linecap="round" stroke-linejoin="round"/>
    <path d="M 91.47750091552734 176.9604949951172 C 83.62146759033203 172.79931640625 77.99131774902344 165.59983825683594 72.31285858154297 158.99765014648438" stroke-width="2.569228410720825" fill="none" stroke="rgb(21, 25, 21)" stroke-opacity="0.6406317" stroke-linecap="round" stroke-linejoin="round"/>
    <path d="M 127.0411605834961 56.84864807128906 C 124.43611145019531 60.26513671875 124.78170013427734 65.40780639648438 124.77386474609375 69.38045501708984 C 124.79532623291016 75.3604507446289 126.36023712158203 81.0042953491211 126.3172607421875 86.9128646850586" stroke-width="1.0" fill="none" stroke="rgb(24, 23, 24)" stroke-opacity="0.6462862" stroke-linecap="round" stroke-linejoin="round"/>
    <path d="M 95.88268280029297 64.37403869628906 C 95.18011474609375 70.89607238769531 95.36180877685547 77.40526580810547 95.34960174560547 83.96121215820312" stroke-width="1.9318081140518188" fill="none" stroke="rgb(23, 23, 23)" stroke-opacity="0.65200716" stroke-linecap="round" stroke-linejoin="round"/>
    <path d="M 68.71263885498047 159.6473846435547 C 71.17135620117188 152.39654541015625 71.29589080810547 156.36874389648438 86.13043212890625 147.60455322265625 C 80.4541244506836 140.81285095214844 66.7798080444336 133.1846923828125 48.02116012573242 133.90753173828125 C 48.922550201416016 147.38430786132812 36.273658752441406 137.93223571777344 38.89567947387695 145.20277404785156" stroke-width="7.6576924324035645" fill="none" stroke="rgb(61, 54, 69)" stroke-opacity="0.12846404" stroke-linecap="round" stroke-linejoin="round"/>
    <path d="M 92.51544189453125 174.21383666992188 C 105.44155883789062 187.5450439453125 115.03411865234375 188.0618438720703 131.46372985839844 181.41981506347656 C 148.8312225341797 192.89793395996094 122.60502624511719 189.57681274414062 104.96919250488281 198.99411010742188 C 115.56642150878906 223.12086486816406 115.4886474609375 226.15045166015625 139.40853881835938 222.623779296875" stroke-width="1.3148443698883057" fill="none" stroke="rgb(34, 68, 0)" stroke-opacity="0.53237516" stroke-linecap="round" stroke-linejoin="round"/>
    <path d="M 74.82191467285156 166.2296600341797 C 77.09173583984375 161.88339233398438 89.80986785888672 173.93084716796875 88.5223388671875 182.799072265625" stroke-width="6.566621780395508" fill="none" stroke="rgb(42, 65, 0)" stroke-opacity="1.0" stroke-linecap="round" stroke-linejoin="round"/>
    <path d="M 117.75521850585938 73.14249420166016 C 132.12327575683594 70.98433685302734 124.2437973022461 58.851417541503906 117.95126342773438 52.71262741088867 C 127.29706573486328 42.59906005859375 138.4437255859375 46.192359924316406 130.49510192871094 40.531227111816406" stroke-width="1.4629817008972168" fill="none" stroke="rgb(69, 77, 89)" stroke-opacity="0.6561294" stroke-linecap="round" stroke-linejoin="round"/>
    <path d="M 159.2615966796875 145.02731323242188 C 182.4679718017578 138.49539184570312 179.9799346923828 130.53424072265625 164.642333984375 129.7354736328125 C 178.9491424560547 142.08448791503906 163.30892944335938 145.55270385742188 152.13375854492188 133.75845336914062" stroke-width="4.752122402191162" fill="none" stroke="rgb(6, 1, 0)" stroke-opacity="1.0" stroke-linecap="round" stroke-linejoin="round"/>
    <path d="M 156.3389129638672 165.0606231689453 C 153.37628173828125 159.04689025878906 150.13668823242188 157.53956604003906 145.82257080078125 150.44883728027344" stroke-width="5.954122543334961" fill="none" stroke="rgb(0, 152, 203)" stroke-opacity="0.8816178" stroke-linecap="round" stroke-linejoin="round"/>
    <path d="M 130.2608642578125 177.44293212890625 C 124.06201171875 186.0577850341797 121.67591857910156 175.3275909423828 139.956787109375 173.23236083984375 C 133.6114044189453 158.1573028564453 118.11866760253906 166.48068237304688 111.38371276855469 174.27474975585938 C 130.7701873779297 181.54840087890625 127.5976333618164 186.20079040527344 113.60615539550781 177.38973999023438" stroke-width="6.000301361083984" fill="none" stroke="rgb(23, 11, 0)" stroke-opacity="1.0" stroke-linecap="round" stroke-linejoin="round"/>
    <path d="M 90.8895263671875 175.2841339111328 C 104.90339660644531 190.93087768554688 118.37297821044922 179.4936065673828 113.06040954589844 172.32730102539062 C 100.7478256225586 183.4222412109375 111.05470275878906 168.44134521484375 121.41862487792969 169.6830291748047" stroke-width="2.5825581550598145" fill="none" stroke="rgb(40, 107, 0)" stroke-opacity="0.5180863" stroke-linecap="round" stroke-linejoin="round"/>
    <path d="M 97.7096176147461 86.07506561279297 C 109.78079986572266 81.33383178710938 102.22520446777344 106.01382446289062 128.8000946044922 90.16228485107422" stroke-width="4.217006683349609" fill="none" stroke="rgb(29, 35, 35)" stroke-opacity="0.59746677" stroke-linecap="round" stroke-linejoin="round"/>
    <path d="M 148.3876953125 162.5027313232422 C 156.79249572753906 167.5174560546875 146.88978576660156 181.0545196533203 147.01718139648438 178.283203125" stroke-width="1.8235282897949219" fill="none" stroke="rgb(0, 87, 42)" stroke-opacity="0.67078495" stroke-linecap="round" stroke-linejoin="round"/>
    <path d="M 137.35350036621094 55.64369583129883 C 146.11752319335938 52.458377838134766 136.8016815185547 68.074462890625 126.91312408447266 59.66524887084961 C 125.54942321777344 54.545772552490234 115.50972747802734 75.29440307617188 131.83059692382812 86.9367904663086" stroke-width="1.6250252723693848" fill="none" stroke="rgb(96, 75, 81)" stroke-opacity="0.28200898" stroke-linecap="round" stroke-linejoin="round"/>
    <path d="M 159.8204803466797 142.9137725830078 C 151.4266357421875 152.03175354003906 144.26358032226562 161.16217041015625 135.4119110107422 148.49034118652344 C 148.3452911376953 143.91941833496094 140.0032958984375 149.9046630859375 130.29954528808594 146.8826141357422" stroke-width="2.5830609798431396" fill="none" stroke="rgb(14, 59, 41)" stroke-opacity="0.93406343" stroke-linecap="round" stroke-linejoin="round"/>
    <path d="M 81.7560043334961 184.3530731201172 C 65.83417510986328 169.79879760742188 88.2640380859375 175.50514221191406 97.54056549072266 158.4993896484375" stroke-width="9.774256706237793" fill="none" stroke="rgb(97, 183, 0)" stroke-opacity="0.092043795" stroke-linecap="round" stroke-linejoin="round"/>
    <path d="M 74.7521743774414 155.3187255859375 C 81.82005310058594 161.083740234375 87.0832290649414 174.82290649414062 97.95291900634766 170.54566955566406 C 94.9233627319336 149.70802307128906 100.96244049072266 157.8314208984375 116.67195892333984 150.32418823242188 C 112.9202651977539 142.20021057128906 102.1032943725586 158.05860900878906 112.20940399169922 166.969482421875" stroke-width="8.802261352539062" fill="none" stroke="rgb(172, 255, 0)" stroke-opacity="0.24398705" stroke-linecap="round" stroke-linejoin="round"/>
    <path d="M 135.4594268798828 54.56538391113281 C 114.5993881225586 39.18583297729492 111.25923156738281 43.26939392089844 124.8666000366211 45.664207458496094 C 120.34497833251953 47.8867073059082 131.1617431640625 38.93832015991211 130.37208557128906 19.24417495727539 C 142.28692626953125 11.566692352294922 136.10581970214844 1.8700196743011475 116.46661376953125 2.142019271850586" stroke-width="2.513228178024292" fill="none" stroke="rgb(56, 77, 20)" stroke-opacity="0.14262147" stroke-linecap="round" stroke-linejoin="round"/>
    <path d="M 157.02186584472656 142.76341247558594 C 145.14915466308594 142.46998596191406 131.37423706054688 129.71072387695312 124.88447570800781 126.89395904541016" stroke-width="9.365056991577148" fill="none" stroke="rgb(1, 83, 178)" stroke-opacity="0.8641879" stroke-linecap="round" stroke-linejoin="round"/>
    <path d="M 156.38323974609375 142.8989715576172 C 176.07090759277344 145.4042510986328 180.7621612548828 143.43055725097656 177.0962371826172 133.50230407714844 C 178.66030883789062 122.48994445800781 183.498779296875 138.3314208984375 176.82229614257812 145.76473999023438 C 192.325439453125 135.5048828125 204.56349182128906 118.2666015625 205.38772583007812 126.18761444091797" stroke-width="1.0" fill="none" stroke="rgb(32, 75, 79)" stroke-opacity="0.005157411" stroke-linecap="round" stroke-linejoin="round"/>
    <path d="M 167.9014129638672 148.76327514648438 C 151.26516723632812 139.74325561523438 153.2103271484375 147.20892333984375 151.23611450195312 155.34718322753906 C 151.9125518798828 154.89598083496094 157.3924102783203 161.76185607910156 172.56057739257812 159.33755493164062 C 165.2556610107422 142.0702362060547 172.56016540527344 150.54110717773438 167.32376098632812 143.970458984375" stroke-width="2.6889944076538086" fill="none" stroke="rgb(1, 0, 1)" stroke-opacity="1.0" stroke-linecap="round" stroke-linejoin="round"/>
    <path d="M 131.26370239257812 174.81781005859375 C 132.2696075439453 173.8282012939453 123.14788818359375 189.47393798828125 116.59239959716797 187.00363159179688" stroke-width="2.886781692504883" fill="none" stroke="rgb(5, 44, 0)" stroke-opacity="1.0" stroke-linecap="round" stroke-linejoin="round"/>
    <path d="M 156.3728790283203 140.461669921875 C 147.22775268554688 169.2576446533203 154.342041015625 163.0238037109375 146.6444854736328 175.52667236328125" stroke-width="8.49950122833252" fill="none" stroke="rgb(0, 138, 237)" stroke-opacity="1.0" stroke-linecap="round" stroke-linejoin="round"/>
    <path d="M 160.50717163085938 141.9153594970703 C 147.2792205810547 155.02392578125 162.4937744140625 159.05633544921875 185.29518127441406 159.16912841796875 C 200.77255249023438 166.81663513183594 193.7714385986328 174.65789794921875 200.4671173095703 157.4301300048828" stroke-width="4.644308090209961" fill="none" stroke="rgb(28, 0, 40)" stroke-opacity="0.3181673" stroke-linecap="round" stroke-linejoin="round"/>
    <path d="M 157.81918334960938 141.89425659179688 C 147.93243408203125 130.6242218017578 165.78732299804688 121.61449432373047 164.22994995117188 129.9958953857422 C 149.86245727539062 136.3617706298828 151.65354919433594 154.98056030273438 154.8699951171875 143.8961944580078 C 142.65513610839844 133.0224151611328 157.18603515625 146.92010498046875 154.84585571289062 146.28350830078125" stroke-width="3.4696803092956543" fill="none" stroke="rgb(0, 18, 0)" stroke-opacity="0.5965717" stroke-linecap="round" stroke-linejoin="round"/>
    <path d="M 149.22756958007812 161.02816772460938 C 145.85256958007812 161.48684692382812 144.989501953125 150.6736602783203 143.26861572265625 138.31765747070312 C 116.8543930053711 121.79590606689453 113.03177642822266 136.52818298339844 110.00994110107422 139.5918426513672 C 118.93147277832031 139.55882263183594 118.2388687133789 151.53623962402344 134.09483337402344 148.83628845214844" stroke-width="4.707515239715576" fill="none" stroke="rgb(0, 0, 10)" stroke-opacity="1.0" stroke-linecap="round" stroke-linejoin="round"/>
    <path d="M 119.06551361083984 157.7696990966797 C 129.3150177001953 162.49517822265625 134.53289794921875 159.60275268554688 139.49575805664062 169.089599609375 C 148.61109924316406 172.06597900390625 143.037841796875 180.641845703125 143.41152954101562 169.6017608642578 C 140.44686889648438 160.6705780029297 130.3997039794922 145.74703979492188 116.19001007080078 140.7805633544922" stroke-width="5.247601509094238" fill="none" stroke="rgb(71, 97, 0)" stroke-opacity="0.44139102" stroke-linecap="round" stroke-linejoin="round"/>
    <path d="M 144.6103515625 189.47592163085938 C 143.31314086914062 192.94895935058594 138.18031311035156 189.0081024169922 131.63514709472656 204.47288513183594 C 137.94253540039062 206.17567443847656 122.18148803710938 191.5748291015625 120.42504119873047 192.4506072998047 C 140.7659149169922 173.76986694335938 124.8367919921875 172.07432556152344 142.2077178955078 179.8323974609375" stroke-width="2.5434701442718506" fill="none" stroke="rgb(68, 52, 53)" stroke-opacity="0.86744386" stroke-linecap="round" stroke-linejoin="round"/>
    <path d="M 141.97845458984375 179.47023010253906 C 155.89915466308594 177.8148956298828 143.5853271484375 172.4396209716797 140.22152709960938 176.543212890625 C 123.8587417602539 172.95462036132812 118.53485107421875 171.72012329101562 135.06500244140625 175.17660522460938" stroke-width="4.128224849700928" fill="none" stroke="rgb(0, 0, 0)" stroke-opacity="1.0" stroke-linecap="round" stroke-linejoin="round"/>
    <path d="M 147.88421630859375 183.239013671875 C 144.97557067871094 200.08065795898438 138.5059814453125 185.5790252685547 148.36888122558594 192.61825561523438" stroke-width="1.0" fill="none" stroke="rgb(23, 0, 14)" stroke-opacity="0.89217615" stroke-linecap="round" stroke-linejoin="round"/>
    <path d="M 170.04147338867188 135.5242919921875 C 173.86526489257812 150.30764770507812 167.93019104003906 136.77110290527344 175.5733642578125 135.59274291992188 C 164.7755584716797 126.54788208007812 159.99903869628906 118.97848510742188 172.5456085205078 126.00556945800781 C 169.81996154785156 143.03196716308594 174.94790649414062 129.72068786621094 171.1693115234375 141.24537658691406" stroke-width="3.038451910018921" fill="none" stroke="rgb(56, 84, 0)" stroke-opacity="1.0" stroke-linecap="round" stroke-linejoin="round"/>
    <path d="M 114.26004028320312 194.38418579101562 C 110.60037231445312 196.25613403320312 110.01869201660156 209.4586944580078 94.83700561523438 195.43380737304688 C 105.21728515625 207.2670440673828 100.85173797607422 188.25820922851562 92.11820220947266 187.8819122314453 C 95.65367126464844 181.94320678710938 105.15977478027344 181.8534698486328 105.3753890991211 180.30284118652344" stroke-width="6.965294361114502" fill="none" stroke="rgb(0, 5, 0)" stroke-opacity="1.0" stroke-linecap="round" stroke-linejoin="round"/>
    <path d="M 102.89895629882812 168.5650634765625 C 104.76486206054688 157.30874633789062 103.9966812133789 149.82244873046875 108.1495132446289 166.6931915283203 C 100.30311584472656 139.30116271972656 102.09959411621094 153.6695098876953 106.09004974365234 147.15867614746094" stroke-width="8.366116523742676" fill="none" stroke="rgb(86, 83, 76)" stroke-opacity="0.40850443" stroke-linecap="round" stroke-linejoin="round"/>
    <path d="M 105.28439331054688 161.46658325195312 C 119.47249603271484 159.7450714111328 113.44366455078125 155.78085327148438 102.62499237060547 160.01177978515625 C 115.70245361328125 157.52101135253906 120.7856216430664 148.46641540527344 107.64783477783203 138.9674072265625 C 92.27916717529297 123.9483871459961 82.16584777832031 121.49443817138672 79.57708740234375 110.93099975585938" stroke-width="1.676865577697754" fill="none" stroke="rgb(73, 206, 16)" stroke-opacity="0.09271203" stroke-linecap="round" stroke-linejoin="round"/>
    <path d="M 152.62721252441406 123.13689422607422 C 145.78208923339844 142.49560546875 144.3174591064453 150.18460083007812 147.6990509033203 150.05177307128906" stroke-width="4.444591045379639" fill="none" stroke="rgb(107, 182, 137)" stroke-opacity="0.336653" stroke-linecap="round" stroke-linejoin="round"/>
    <path d="M 126.90640258789062 145.70474243164062 C 154.2127227783203 148.74957275390625 158.54612731933594 151.7992401123047 153.43406677246094 152.881103515625" stroke-width="2.4967939853668213" fill="none" stroke="rgb(111, 105, 106)" stroke-opacity="0.44426847" stroke-linecap="round" stroke-linejoin="round"/>
    <path d="M 120.32048034667969 164.3662567138672 C 105.73511505126953 179.8271026611328 98.33330535888672 191.81622314453125 86.60176849365234 172.5787811279297 C 108.5586929321289 185.7176513671875 120.1415786743164 186.4264373779297 106.5425796508789 176.4149169921875 C 93.1316146850586 177.5037384033203 86.38585662841797 180.526611328125 86.26277923583984 183.72821044921875" stroke-width="5.627630233764648" fill="none" stroke="rgb(3, 7, 0)" stroke-opacity="1.0" stroke-linecap="round" stroke-linejoin="round"/>
    <path d="M 141.62855529785156 217.88519287109375 C 145.6067657470703 213.21783447265625 152.08226013183594 216.14932250976562 149.63673400878906 230.0048370361328" stroke-width="1.0" fill="none" stroke="rgb(33, 27, 7)" stroke-opacity="0.09569186" stroke-linecap="round" stroke-linejoin="round"/>
    <path d="M 151.81756591796875 134.82444763183594 C 140.3799285888672 114.0884017944336 148.81350708007812 122.21173858642578 122.96795654296875 128.37388610839844 C 114.59418487548828 146.5273895263672 117.66656494140625 155.10606384277344 137.3315887451172 148.59149169921875 C 147.7354278564453 146.19874572753906 143.31031799316406 140.82192993164062 158.80213928222656 144.26522827148438" stroke-width="2.1129822731018066" fill="none" stroke="rgb(0, 2, 2)" stroke-opacity="0.5907838" stroke-linecap="round" stroke-linejoin="round"/>
    <path d="M 148.3843994140625 175.5936737060547 C 146.50030517578125 188.3953857421875 138.9141082763672 192.8091583251953 132.54794311523438 215.98248291015625" stroke-width="8.793143272399902" fill="none" stroke="rgb(0, 173, 210)" stroke-opacity="0.16075891" stroke-linecap="round" stroke-linejoin="round"/>
    <path d="M 166.69947814941406 158.41690063476562 C 180.56837463378906 136.7520294189453 165.17123413085938 136.60279846191406 177.63710021972656 143.4010467529297 C 173.08370971679688 132.2003936767578 179.81578063964844 144.78115844726562 169.7970428466797 128.87362670898438 C 181.07046508789062 140.893798828125 185.0131072998047 150.5601348876953 197.6544189453125 150.40931701660156" stroke-width="7.373328685760498" fill="none" stroke="rgb(112, 195, 0)" stroke-opacity="0.74022764" stroke-linecap="round" stroke-linejoin="round"/>
    <path d="M 125.24613952636719 125.83182525634766 C 141.2383270263672 114.20274353027344 136.44400024414062 122.7374038696289 132.74282836914062 117.87153625488281 C 119.29949188232422 130.32427978515625 120.09061431884766 137.42446899414062 113.5856704711914 124.1231460571289 C 109.75868225097656 100.41755676269531 118.39218139648438 80.85637664794922 107.9280014038086 98.32707977294922" stroke-width="10.0" fill="none" stroke="rgb(0, 21, 21)" stroke-opacity="0.24378522" stroke-linecap="round" stroke-linejoin="round"/>
    <path d="M 153.4377899169922 146.49612426757812 C 137.22901916503906 139.57064819335938 142.27696228027344 124.57933044433594 135.979248046875 135.11993408203125 C 120.93335723876953 135.19290161132812 115.91388702392578 122.49398040771484 123.97874450683594 97.73165893554688" stroke-width="9.965558052062988" fill="none" stroke="rgb(0, 119, 218)" stroke-opacity="0.50692034" stroke-linecap="round" stroke-linejoin="round"/>
    <path d="M 90.62379455566406 183.70016479492188 C 93.18087768554688 170.4352569580078 78.89057159423828 156.48057556152344 91.71236419677734 162.2484893798828" stroke-width="9.923728942871094" fill="none" stroke="rgb(116, 179, 0)" stroke-opacity="1.0" stroke-linecap="round" stroke-linejoin="round"/>
    <path d="M 111.78189086914062 157.8227081298828 C 117.5668716430664 174.63392639160156 122.73332214355469 167.77027893066406 113.60835266113281 148.98626708984375 C 111.21739196777344 148.02432250976562 107.2004165649414 157.3221435546875 115.83245086669922 142.03216552734375" stroke-width="5.307722091674805" fill="none" stroke="rgb(41, 45, 0)" stroke-opacity="1.0" stroke-linecap="round" stroke-linejoin="round"/>
    <path d="M 124.10215759277344 -2.5244147777557373 C 117.16883850097656 -3.800313949584961 121.14617156982422 -12.853809356689453 127.03030395507812 -4.630820274353027 C 120.62335968017578 -1.9759479761123657 128.10462951660156 17.596593856811523 145.92669677734375 12.539194107055664 C 142.0552520751953 -5.51361608505249 134.42294311523438 10.187154769897461 149.3844451904297 25.20659637451172" stroke-width="4.08757209777832" fill="none" stroke="rgb(110, 0, 106)" stroke-opacity="0.21927996" stroke-linecap="round" stroke-linejoin="round"/>
    <path d="M 111.34310913085938 165.60684204101562 C 103.46561431884766 174.75714111328125 105.79826354980469 185.38870239257812 111.59485626220703 181.22412109375 C 103.81489562988281 186.60574340820312 101.07078552246094 174.17628479003906 106.7342758178711 183.46109008789062" stroke-width="5.782317638397217" fill="none" stroke="rgb(85, 122, 0)" stroke-opacity="0.23939918" stroke-linecap="round" stroke-linejoin="round"/>
    <path d="M 199.1983642578125 165.41537475585938 C 202.91392517089844 146.11219787597656 205.93527221679688 156.49819946289062 206.41635131835938 155.16265869140625 C 206.58843994140625 158.1623077392578 187.64064025878906 142.4266815185547 177.0517578125 158.30551147460938 C 197.93492126464844 153.69349670410156 207.11521911621094 170.16964721679688 186.2013397216797 157.42868041992188" stroke-width="1.8475478887557983" fill="none" stroke="rgb(47, 75, 33)" stroke-opacity="0.34587178" stroke-linecap="round" stroke-linejoin="round"/>
    <path d="M 139.57643127441406 153.75477600097656 C 157.10162353515625 140.739501953125 163.58509826660156 152.29872131347656 165.45269775390625 165.90599060058594 C 152.32904052734375 168.37171936035156 145.11181640625 163.91537475585938 145.9771728515625 178.57766723632812" stroke-width="3.1037580966949463" fill="none" stroke="rgb(0, 14, 39)" stroke-opacity="0.76650304" stroke-linecap="round" stroke-linejoin="round"/>
    <path d="M 124.05503845214844 187.55978393554688 C 125.33734130859375 175.5819854736328 110.33373260498047 192.66314697265625 114.76001739501953 198.4561767578125 C 107.07504272460938 191.83843994140625 98.26459503173828 206.23658752441406 103.49958801269531 217.61956787109375 C 106.9161605834961 204.70394897460938 94.07431030273438 215.39959716796875 82.36896514892578 208.6168670654297" stroke-width="2.5481603145599365" fill="none" stroke="rgb(101, 255, 40)" stroke-opacity="0.0669119" stroke-linecap="round" stroke-linejoin="round"/>
    <path d="M 158.95701599121094 153.46559143066406 C 136.35531616210938 137.9664306640625 151.21124267578125 134.41677856445312 160.140625 139.89669799804688" stroke-width="5.204195022583008" fill="none" stroke="rgb(195, 229, 255)" stroke-opacity="0.7157786" stroke-linecap="round" stroke-linejoin="round"/>
    <path d="M 132.6503143310547 91.38335418701172 C 140.3365936279297 106.02738189697266 143.6799774169922 84.8593978881836 158.4778594970703 88.94906616210938 C 160.1843719482422 108.25292205810547 175.26962280273438 109.54074096679688 165.6282958984375 119.38346862792969" stroke-width="2.0625803470611572" fill="none" stroke="rgb(124, 251, 34)" stroke-opacity="0.08271902" stroke-linecap="round" stroke-linejoin="round"/>
    <path d="M 41.300132751464844 158.98635864257812 C 48.96342849731445 167.3235626220703 42.9443359375 175.13394165039062 43.08137512207031 171.4190216064453 C 35.42068862915039 177.8932647705078 33.06986999511719 163.31903076171875 38.94461441040039 164.36412048339844 C 45.87702941894531 167.7544403076172 49.05707931518555 177.63583374023438 48.69156265258789 161.1961212158203" stroke-width="10.0" fill="none" stroke="rgb(255, 210, 248)" stroke-opacity="0.0" stroke-linecap="round" stroke-linejoin="round"/>
    <path d="M 35.1652946472168 108.44548034667969 C 32.46287536621094 117.08485412597656 31.716100692749023 105.98478698730469 32.82502365112305 104.54497528076172 C 39.697566986083984 102.40164947509766 45.8309440612793 100.93052673339844 35.70191955566406 108.8194351196289" stroke-width="1.1413124799728394" fill="none" stroke="rgb(126, 152, 96)" stroke-opacity="0.057117503" stroke-linecap="round" stroke-linejoin="round"/>
    <path d="M 76.13946533203125 199.7301483154297 C 75.65132141113281 191.90921020507812 71.32821655273438 192.03106689453125 90.75272369384766 192.20266723632812" stroke-width="1.76886785030365" fill="none" stroke="rgb(253, 233, 193)" stroke-opacity="0.35304353" stroke-linecap="round" stroke-linejoin="round"/>
    <path d="M 104.60420989990234 115.58250427246094 C 110.30587768554688 128.15113830566406 99.57897186279297 147.88473510742188 113.0406723022461 131.5908203125 C 130.58009338378906 119.32730102539062 139.0445556640625 123.76283264160156 134.24417114257812 104.79489135742188" stroke-width="2.4019722938537598" fill="none" stroke="rgb(112, 162, 92)" stroke-opacity="0.08245823" stroke-linecap="round" stroke-linejoin="round"/>
    <path d="M 214.79788208007812 149.93467712402344 C 216.40524291992188 151.4148712158203 203.1001739501953 149.11888122558594 225.6741485595703 151.44061279296875 C 223.73155212402344 147.6182403564453 228.4510040283203 162.27828979492188 225.03257751464844 152.15245056152344" stroke-width="1.068850040435791" fill="none" stroke="rgb(228, 65, 221)" stroke-opacity="0.7653024" stroke-linecap="round" stroke-linejoin="round"/>
    <path d="M 166.21511840820312 141.14320373535156 C 159.60336303710938 148.52670288085938 165.49929809570312 144.79159545898438 166.6805419921875 137.89254760742188 C 159.94781494140625 156.58367919921875 133.58384704589844 143.51687622070312 157.61309814453125 134.77252197265625" stroke-width="1.9085720777511597" fill="none" stroke="rgb(237, 249, 255)" stroke-opacity="0.7992143" stroke-linecap="round" stroke-linejoin="round"/>
    <path d="M 192.3711700439453 98.62572479248047 C 197.02342224121094 102.8653335571289 203.5765380859375 99.72126770019531 199.80526733398438 102.5032730102539 C 186.16184997558594 91.4450454711914 175.1529083251953 103.44374084472656 167.09027099609375 91.8353271484375" stroke-width="3.6718366146087646" fill="none" stroke="rgb(136, 145, 121)" stroke-opacity="0.44556198" stroke-linecap="round" stroke-linejoin="round"/>
    <path d="M 123.51939392089844 95.8345947265625 C 110.19728088378906 103.15623474121094 131.15452575683594 87.93257141113281 129.98184204101562 102.31451416015625 C 129.09994506835938 110.4676513671875 123.25749969482422 122.42782592773438 119.08971405029297 131.2515106201172" stroke-width="2.6226961612701416" fill="none" stroke="rgb(206, 248, 255)" stroke-opacity="0.8294234" stroke-linecap="round" stroke-linejoin="round"/>
    <path d="M 32.09807586669922 45.28939437866211 C 18.098154067993164 38.50462341308594 12.037507057189941 38.5369758605957 19.94059181213379 31.405620574951172 C 18.40583610534668 12.248960494995117 14.507010459899902 3.0240955352783203 18.814922332763672 26.33599281311035 C 10.283552169799805 8.96252727508545 -2.014777421951294 -3.3366189002990723 12.749641418457031 9.116914749145508" stroke-width="3.583961009979248" fill="none" stroke="rgb(137, 46, 123)" stroke-opacity="0.19436711" stroke-linecap="round" stroke-linejoin="round"/>
    <path d="M 89.8762435913086 194.32591247558594 C 78.17462921142578 202.21673583984375 79.8339614868164 190.2845458984375 86.30990600585938 201.81642150878906 C 66.57779693603516 201.3970489501953 66.74505615234375 195.02517700195312 67.54883575439453 199.09442138671875" stroke-width="2.4334259033203125" fill="none" stroke="rgb(153, 253, 161)" stroke-opacity="0.07140732" stroke-linecap="round" stroke-linejoin="round"/>
    <path d="M 218.82199096679688 186.5204315185547 C 233.16961669921875 184.12466430664062 224.33888244628906 202.76058959960938 215.32489013671875 188.18429565429688 C 230.2674560546875 200.04127502441406 242.52027893066406 213.9250030517578 251.9417266845703 216.69606018066406 C 244.40359497070312 209.42686462402344 232.80654907226562 219.42251586914062 247.07691955566406 204.87791442871094" stroke-width="1.0" fill="none" stroke="rgb(116, 88, 122)" stroke-opacity="0.009497399" stroke-linecap="round" stroke-linejoin="round"/>
    <path d="M 93.18050384521484 119.02729797363281 C 103.40839385986328 96.76639556884766 102.79658508300781 108.13062286376953 100.69773864746094 120.55638122558594 C 84.00171661376953 133.5448760986328 76.56732177734375 141.827880859375 86.87898254394531 130.2410430908203" stroke-width="8.058727264404297" fill="none" stroke="rgb(42, 57, 63)" stroke-opacity="0.1528373" stroke-linecap="round" stroke-linejoin="round"/>
    <path d="M 181.8510284423828 26.88865089416504 C 198.274169921875 33.11332321166992 204.2939910888672 34.62023162841797 194.16873168945312 30.968929290771484 C 197.34896850585938 29.594736099243164 210.52310180664062 16.030813217163086 204.67620849609375 -1.5089130401611328 C 222.33404541015625 -7.161827087402344 239.89059448242188 -9.913171768188477 223.70867919921875 -15.26733112335205" stroke-width="1.9846724271774292" fill="none" stroke="rgb(167, 96, 139)" stroke-opacity="0.32670233" stroke-linecap="round" stroke-linejoin="round"/>
    <path d="M 58.689205169677734 57.296661376953125 C 37.52886962890625 51.6246337890625 45.34508514404297 40.26932907104492 71.98309326171875 51.800662994384766" stroke-width="2.859450578689575" fill="none" stroke="rgb(238, 255, 179)" stroke-opacity="0.044077322" stroke-linecap="round" stroke-linejoin="round"/>
    <path d="M 34.45201873779297 140.32138061523438 C 37.071311950683594 128.06240844726562 34.246089935302734 122.24263763427734 20.310653686523438 108.48933410644531" stroke-width="1.7715082168579102" fill="none" stroke="rgb(111, 174, 82)" stroke-opacity="0.13499713" stroke-linecap="round" stroke-linejoin="round"/>
    <path d="M 134.0306854248047 51.00603485107422 C 157.42428588867188 56.987548828125 137.5611572265625 50.2696533203125 146.02938842773438 42.2562141418457 C 153.49659729003906 51.125125885009766 160.25718688964844 50.38101577758789 172.33224487304688 39.36121368408203" stroke-width="8.524370193481445" fill="none" stroke="rgb(85, 255, 255)" stroke-opacity="0.087793924" stroke-linecap="round" stroke-linejoin="round"/>
    <path d="M 48.28085708618164 72.23639678955078 C 37.486473083496094 62.92012405395508 38.65316390991211 54.90922546386719 35.7850456237793 47.76231384277344 C 41.53498077392578 61.45011901855469 34.967586517333984 69.16310119628906 36.8214111328125 77.60562133789062 C 29.973400115966797 78.47196197509766 28.251161575317383 77.94562530517578 33.95308303833008 76.9454345703125" stroke-width="1.0" fill="none" stroke="rgb(69, 37, 55)" stroke-opacity="0.3757499" stroke-linecap="round" stroke-linejoin="round"/>
    <path d="M 203.89695739746094 186.36669921875 C 194.71832275390625 182.29327392578125 193.0580596923828 185.521240234375 197.89744567871094 200.73475646972656" stroke-width="2.385392665863037" fill="none" stroke="rgb(162, 255, 131)" stroke-opacity="0.0" stroke-linecap="round" stroke-linejoin="round"/>
    <path d="M 109.15171813964844 170.0541229248047 C 115.4577407836914 179.818359375 126.1261978149414 173.10794067382812 108.81399536132812 183.29159545898438 C 115.11294555664062 180.09173583984375 106.18985748291016 186.6539306640625 101.5434341430664 173.7871551513672 C 89.15288543701172 183.08351135253906 82.69275665283203 184.272705078125 87.81028747558594 175.40037536621094" stroke-width="5.467154502868652" fill="none" stroke="rgb(166, 232, 0)" stroke-opacity="0.26898697" stroke-linecap="round" stroke-linejoin="round"/>
    <path d="M 217.7791748046875 135.1885986328125 C 217.2340545654297 124.73690795898438 225.4365692138672 126.67015838623047 211.01995849609375 113.4845962524414 C 200.50059509277344 108.2501449584961 185.5686492919922 105.7376480102539 188.22567749023438 99.22926330566406" stroke-width="2.8284873962402344" fill="none" stroke="rgb(145, 255, 94)" stroke-opacity="0.061344493" stroke-linecap="round" stroke-linejoin="round"/>
    <path d="M 26.80203628540039 79.05702209472656 C 49.983055114746094 79.17720031738281 63.504310607910156 78.9782485961914 56.4179573059082 80.05575561523438 C 47.418514251708984 76.82415008544922 58.62415313720703 77.38062286376953 56.646854400634766 84.60194396972656" stroke-width="5.578678131103516" fill="none" stroke="rgb(0, 255, 0)" stroke-opacity="1.0" stroke-linecap="round" stroke-linejoin="round"/>
    <path d="M 11.964966773986816 94.65016174316406 C 20.4111270904541 96.18628692626953 27.77692985534668 92.07316589355469 23.082447052001953 83.90660095214844 C 15.439894676208496 97.75259399414062 30.130571365356445 97.6853256225586 22.319087982177734 108.3620834350586" stroke-width="1.0405861139297485" fill="none" stroke="rgb(157, 152, 160)" stroke-opacity="0.695778" stroke-linecap="round" stroke-linejoin="round"/>
    <path d="M 204.80043029785156 87.7072525024414 C 200.81690979003906 95.33601379394531 186.3313446044922 108.50550079345703 183.47486877441406 101.06548309326172 C 188.29759216308594 118.13028717041016 184.22154235839844 117.8945083618164 195.27142333984375 102.33570098876953 C 199.30477905273438 94.4342041015625 195.65670776367188 88.53987884521484 200.82659912109375 80.20121765136719" stroke-width="9.115102767944336" fill="none" stroke="rgb(227, 171, 200)" stroke-opacity="0.62275505" stroke-linecap="round" stroke-linejoin="round"/>
    <path d="M 132.57992553710938 171.3036651611328 C 126.81013488769531 179.28317260742188 122.45140838623047 183.28369140625 108.1524658203125 197.91368103027344" stroke-width="10.0" fill="none" stroke="rgb(203, 253, 0)" stroke-opacity="0.67958426" stroke-linecap="round" stroke-linejoin="round"/>
    <path d="M 214.8403778076172 11.860776901245117 C 230.11404418945312 10.219231605529785 233.0977783203125 22.2589111328125 210.29652404785156 15.08657455444336" stroke-width="10.0" fill="none" stroke="rgb(182, 19, 152)" stroke-opacity="0.36517617" stroke-linecap="round" stroke-linejoin="round"/>
    <path d="M 175.27874755859375 45.7550163269043 C 171.51507568359375 37.07762145996094 175.71270751953125 26.6868953704834 167.4931640625 31.4033203125" stroke-width="10.0" fill="none" stroke="rgb(253, 255, 255)" stroke-opacity="0.05219749" stroke-linecap="round" stroke-linejoin="round"/>
    <path d="M 155.5266571044922 41.48934555053711 C 163.53086853027344 36.67898941040039 182.97021484375 41.70901870727539 167.89002990722656 41.57499694824219 C 169.5438690185547 48.4604606628418 153.98532104492188 39.201927185058594 169.19451904296875 34.51244354248047" stroke-width="6.620822429656982" fill="none" stroke="rgb(41, 250, 0)" stroke-opacity="1.0" stroke-linecap="round" stroke-linejoin="round"/>
    <path d="M 183.61492919921875 28.90376091003418 C 174.3961639404297 26.812408447265625 169.2389678955078 41.009727478027344 170.4071807861328 30.05242919921875 C 180.72129821777344 34.755332946777344 175.36383056640625 35.493770599365234 183.9451141357422 54.87459945678711" stroke-width="1.3384289741516113" fill="none" stroke="rgb(57, 85, 89)" stroke-opacity="0.49754903" stroke-linecap="round" stroke-linejoin="round"/>
    <path d="M 154.22500610351562 42.27619934082031 C 172.79119873046875 73.31953430175781 177.3524932861328 71.21304321289062 170.3997344970703 89.67384338378906" stroke-width="1.5099800825119019" fill="none" stroke="rgb(18, 60, 72)" stroke-opacity="0.47036391" stroke-linecap="round" stroke-linejoin="round"/>
    <path d="M 161.52626037597656 178.51878356933594 C 158.0184783935547 199.5978240966797 144.41006469726562 192.7268524169922 140.7060089111328 187.0272979736328 C 126.2447280883789 180.2677001953125 121.16825103759766 169.09884643554688 128.7952423095703 173.544189453125 C 138.46966552734375 175.18560791015625 143.62425231933594 184.04837036132812 156.6434783935547 196.79811096191406" stroke-width="1.308897852897644" fill="none" stroke="rgb(28, 40, 0)" stroke-opacity="0.32054192" stroke-linecap="round" stroke-linejoin="round"/>
    <path d="M 80.89855194091797 160.7810516357422 C 82.29075622558594 166.24925231933594 93.07157897949219 150.97726440429688 94.73951721191406 154.594482421875 C 93.31047058105469 173.23861694335938 98.17324829101562 180.31484985351562 88.69756317138672 197.52745056152344" stroke-width="5.027129173278809" fill="none" stroke="rgb(123, 167, 0)" stroke-opacity="0.937521" stroke-linecap="round" stroke-linejoin="round"/>
    <path d="M 48.05923080444336 3.926671028137207 C 58.97562026977539 3.2979736328125 62.576873779296875 19.109298706054688 66.28285217285156 17.0262508392334" stroke-width="1.071141242980957" fill="none" stroke="rgb(247, 194, 237)" stroke-opacity="0.01685506" stroke-linecap="round" stroke-linejoin="round"/>
    <path d="M 68.42717742919922 42.41400146484375 C 69.0666732788086 39.35392761230469 47.089351654052734 45.284244537353516 30.9394474029541 35.76484680175781" stroke-width="4.446168422698975" fill="none" stroke="rgb(187, 255, 229)" stroke-opacity="0.054870743" stroke-linecap="round" stroke-linejoin="round"/>
    <path d="M 174.4871368408203 52.22300720214844 C 158.90939331054688 68.56553649902344 162.48550415039062 36.40703582763672 147.49050903320312 51.66311264038086" stroke-width="5.277956008911133" fill="none" stroke="rgb(0, 0, 255)" stroke-opacity="1.0" stroke-linecap="round" stroke-linejoin="round"/>
    <path d="M 161.65231323242188 30.34659194946289 C 158.08363342285156 38.186038970947266 158.29734802246094 22.023347854614258 150.83103942871094 24.2425594329834" stroke-width="1.909422755241394" fill="none" stroke="rgb(152, 166, 131)" stroke-opacity="1.0" stroke-linecap="round" stroke-linejoin="round"/>
    <path d="M 140.17665100097656 90.43893432617188 C 128.07179260253906 71.36819458007812 114.04611206054688 81.9303970336914 130.88534545898438 66.92603302001953" stroke-width="2.379934549331665" fill="none" stroke="rgb(86, 200, 225)" stroke-opacity="0.070589714" stroke-linecap="round" stroke-linejoin="round"/>
    <path d="M 175.45742797851562 168.64169311523438 C 161.00006103515625 179.08421325683594 175.6455078125 191.1821746826172 181.93939208984375 192.4682159423828 C 168.29518127441406 189.63108825683594 174.77023315429688 190.45526123046875 176.8748016357422 199.96009826660156" stroke-width="8.696870803833008" fill="none" stroke="rgb(215, 255, 224)" stroke-opacity="0.07450945" stroke-linecap="round" stroke-linejoin="round"/>
    <path d="M 171.03956604003906 119.69705200195312 C 164.3240203857422 115.4976806640625 176.61593627929688 119.82234954833984 163.3240966796875 111.09504699707031 C 156.5209197998047 110.31487274169922 148.5221710205078 110.67198944091797 150.14035034179688 110.71930694580078" stroke-width="1.5171552896499634" fill="none" stroke="rgb(155, 110, 92)" stroke-opacity="0.0" stroke-linecap="round" stroke-linejoin="round"/>
    <path d="M 82.3092269897461 76.26673126220703 C 61.42753982543945 85.49024963378906 46.695899963378906 90.38495635986328 26.53749656677246 71.54969787597656 C 38.56919479370117 66.7484130859375 28.619245529174805 53.99673080444336 19.359561920166016 52.00798797607422" stroke-width="5.670447826385498" fill="none" stroke="rgb(201, 255, 148)" stroke-opacity="0.0" stroke-linecap="round" stroke-linejoin="round"/>
    <path d="M 78.66973114013672 170.79148864746094 C 93.02058410644531 194.3732147216797 108.8638916015625 196.64968872070312 104.3191146850586 181.01446533203125 C 100.14376068115234 196.81492614746094 102.20817565917969 190.51173400878906 110.4238510131836 196.1678924560547" stroke-width="8.582754135131836" fill="none" stroke="rgb(159, 255, 0)" stroke-opacity="0.1666352" stroke-linecap="round" stroke-linejoin="round"/>
    <path d="M 204.08778381347656 182.76718139648438 C 203.01087951660156 180.9427947998047 215.8418426513672 184.8986358642578 199.6253662109375 172.72889709472656" stroke-width="1.0" fill="none" stroke="rgb(101, 140, 90)" stroke-opacity="0.37998062" stroke-linecap="round" stroke-linejoin="round"/>
    <path d="M 114.4131088256836 178.0938262939453 C 124.31573486328125 167.5055389404297 121.31024169921875 172.7042694091797 129.66445922851562 178.99136352539062 C 127.01292419433594 182.98028564453125 115.1847152709961 168.6661834716797 113.25728607177734 151.01756286621094 C 121.70484924316406 167.84857177734375 112.9522705078125 171.6434326171875 132.19866943359375 161.45164489746094" stroke-width="4.139806270599365" fill="none" stroke="rgb(188, 253, 0)" stroke-opacity="0.5707318" stroke-linecap="round" stroke-linejoin="round"/>
    <path d="M 175.1529998779297 62.85407257080078 C 189.26910400390625 47.28379440307617 191.8164520263672 68.41569519042969 200.17105102539062 81.07963562011719" stroke-width="1.0" fill="none" stroke="rgb(24, 88, 21)" stroke-opacity="0.4585066" stroke-linecap="round" stroke-linejoin="round"/>
  </g>
</svg>
