<?xml version="1.0" ?>
<svg xmlns="http://www.w3.org/2000/svg" version="1.1" width="982.8000000000001" height="982.8000000000001">
  <defs/>
  <g>
    <path d="M 159.43177795410156 141.85630798339844 C 157.2071533203125 149.9033660888672 155.84095764160156 158.84921264648438 150.7517852783203 165.78240966796875 C 146.11585998535156 172.1021270751953 138.17774963378906 175.9761505126953 131.18191528320312 178.77880859375 C 118.0132827758789 184.01425170898438 104.12054443359375 183.64730834960938 91.4896011352539 176.96331787109375" stroke-width="2.6461427211761475" fill="none" stroke="rgb(23, 27, 24)" stroke-opacity="0.65574354" stroke-linecap="round" stroke-linejoin="round"/>
    <path d="M 91.47761535644531 176.9567413330078 C 83.60096740722656 172.8009490966797 77.90985870361328 165.6107940673828 72.32975769042969 158.9224395751953" stroke-width="2.5357766151428223" fill="none" stroke="rgb(23, 27, 24)" stroke-opacity="0.65574354" stroke-linecap="round" stroke-linejoin="round"/>
    <path d="M 127.06135559082031 56.8282470703125 C 124.47257232666016 60.262752532958984 124.76028442382812 65.4078598022461 124.76813507080078 69.3782958984375 C 124.76425170898438 75.35869598388672 126.35867309570312 81.01316833496094 126.3541488647461 86.93264770507812" stroke-width="2.5852625370025635" fill="none" stroke="rgb(22, 24, 23)" stroke-opacity="0.64465016" stroke-linecap="round" stroke-linejoin="round"/>
    <path d="M 95.84466552734375 64.3726806640625 C 95.1961441040039 70.88812255859375 95.36421203613281 77.38866424560547 95.36211395263672 83.96215057373047" stroke-width="2.4583542346954346" fill="none" stroke="rgb(23, 23, 24)" stroke-opacity="0.6473652" stroke-linecap="round" stroke-linejoin="round"/>
    <path d="M 100.28821563720703 87.4686279296875 C 95.58354949951172 74.12130737304688 98.16127014160156 84.42062377929688 110.38494110107422 79.99217224121094 C 109.28215026855469 63.582096099853516 108.72761535644531 79.6263198852539 109.34042358398438 67.86083984375 C 115.51107788085938 65.59165954589844 121.4224624633789 70.642822265625 136.46099853515625 57.1980094909668" stroke-width="5.089193820953369" fill="none" stroke="rgb(0, 0, 0)" stroke-opacity="1.0" stroke-linecap="round" stroke-linejoin="round"/>
    <path d="M 120.78185272216797 53.34349060058594 C 122.88260650634766 39.984771728515625 124.46163177490234 46.81425857543945 103.88941955566406 48.42535400390625 C 112.25616455078125 65.7043685913086 100.54637908935547 70.70074462890625 110.84059143066406 61.63184356689453 C 126.55990600585938 58.43021774291992 127.4819107055664 72.68382263183594 122.16923522949219 60.20317459106445" stroke-width="1.7050923109054565" fill="none" stroke="rgb(37, 29, 20)" stroke-opacity="0.9944381" stroke-linecap="round" stroke-linejoin="round"/>
    <path d="M 129.6621856689453 67.79672241210938 C 127.58567810058594 60.3732795715332 112.49471282958984 47.10243606567383 105.58260345458984 64.6928482055664 C 101.7583236694336 74.04469299316406 100.94563293457031 88.95498657226562 108.97496032714844 66.45301818847656 C 112.69882202148438 60.19326400756836 119.1210708618164 56.445003509521484 109.09599304199219 65.69097137451172" stroke-width="7.881562232971191" fill="none" stroke="rgb(88, 125, 12)" stroke-opacity="0.46917212" stroke-linecap="round" stroke-linejoin="round"/>
    <path d="M 91.87250518798828 175.96270751953125 C 99.3504867553711 178.13722229003906 110.39302062988281 189.888427734375 86.55101013183594 195.93748474121094 C 102.82904815673828 207.4868621826172 95.28144073486328 202.94461059570312 82.44684600830078 219.89877319335938 C 96.9247055053711 208.81747436523438 90.99212646484375 206.95913696289062 89.93148803710938 202.6349639892578" stroke-width="2.2885913848876953" fill="none" stroke="rgb(51, 87, 24)" stroke-opacity="0.29516137" stroke-linecap="round" stroke-linejoin="round"/>
    <path d="M 133.70896911621094 186.82020568847656 C 144.05828857421875 180.55111694335938 131.75721740722656 154.5948486328125 142.0448760986328 140.95187377929688 C 145.31858825683594 132.8910369873047 138.83419799804688 134.9996795654297 128.196533203125 122.71005249023438 C 122.74925231933594 118.39107513427734 116.8965072631836 116.23582458496094 126.4966812133789 121.5599365234375" stroke-width="6.32033109664917" fill="none" stroke="rgb(0, 5, 0)" stroke-opacity="1.0" stroke-linecap="round" stroke-linejoin="round"/>
    <path d="M 150.25990295410156 168.0269012451172 C 135.552734375 154.4221649169922 129.34124755859375 151.5924835205078 138.71559143066406 148.42523193359375 C 161.07772827148438 148.35879516601562 159.9534149169922 149.35964965820312 146.1867218017578 142.29620361328125" stroke-width="9.41988754272461" fill="none" stroke="rgb(41, 64, 0)" stroke-opacity="1.0" stroke-linecap="round" stroke-linejoin="round"/>
    <path d="M 88.0534439086914 182.8279266357422 C 82.47711181640625 162.75631713867188 97.55508422851562 141.86434936523438 113.35691833496094 138.1909637451172 C 90.83707427978516 152.072509765625 82.51958465576172 148.67385864257812 91.19224548339844 136.41311645507812 C 89.90065002441406 148.865966796875 68.49385070800781 154.91986083984375 69.0113296508789 153.89166259765625" stroke-width="3.8002078533172607" fill="none" stroke="rgb(0, 0, 0)" stroke-opacity="1.0" stroke-linecap="round" stroke-linejoin="round"/>
    <path d="M 92.82909393310547 83.44721221923828 C 99.00202941894531 81.7096939086914 95.59616088867188 86.33059692382812 77.82744598388672 75.92665100097656 C 82.7939682006836 84.76062774658203 93.7338638305664 95.94209289550781 93.2097396850586 86.28092956542969" stroke-width="9.94599437713623" fill="none" stroke="rgb(31, 13, 39)" stroke-opacity="0.17293057" stroke-linecap="round" stroke-linejoin="round"/>
    <path d="M 126.02076721191406 88.58316040039062 C 128.64901733398438 69.64533996582031 136.94735717773438 63.153709411621094 144.96693420410156 72.8943862915039 C 133.837646484375 94.3814697265625 129.88589477539062 95.34268188476562 110.8457260131836 89.30191040039062" stroke-width="3.4258155822753906" fill="none" stroke="rgb(59, 69, 29)" stroke-opacity="0.5750491" stroke-linecap="round" stroke-linejoin="round"/>
    <path d="M 87.31681823730469 181.49365234375 C 82.09248352050781 167.99468994140625 83.56049346923828 154.18418884277344 92.07173919677734 152.7794189453125 C 93.45146179199219 143.29029846191406 100.76094818115234 144.5771484375 121.91155242919922 155.01522827148438 C 126.41481018066406 165.83702087402344 111.98896789550781 164.82977294921875 120.85130310058594 165.95338439941406" stroke-width="7.057253837585449" fill="none" stroke="rgb(16, 58, 55)" stroke-opacity="0.48913842" stroke-linecap="round" stroke-linejoin="round"/>
    <path d="M 131.50927734375 60.50463104248047 C 134.0820770263672 77.07174682617188 117.094970703125 59.52085876464844 126.22715759277344 57.1894416809082" stroke-width="7.625224590301514" fill="none" stroke="rgb(0, 53, 133)" stroke-opacity="0.99601865" stroke-linecap="round" stroke-linejoin="round"/>
    <path d="M 130.03799438476562 65.98390197753906 C 115.79891967773438 85.68470764160156 121.572265625 91.75115203857422 123.49258422851562 88.80025482177734 C 131.8052215576172 88.5735092163086 132.38104248046875 100.59797668457031 146.47520446777344 101.75847625732422" stroke-width="9.59820556640625" fill="none" stroke="rgb(0, 104, 0)" stroke-opacity="0.3675149" stroke-linecap="round" stroke-linejoin="round"/>
    <path d="M 128.14134216308594 68.39450073242188 C 133.6923828125 84.86505889892578 118.64408874511719 76.14982604980469 132.98626708984375 87.83647155761719 C 128.94883728027344 91.67135620117188 113.9217300415039 80.60598754882812 128.8341522216797 77.34373474121094" stroke-width="5.311028003692627" fill="none" stroke="rgb(67, 130, 0)" stroke-opacity="0.48728898" stroke-linecap="round" stroke-linejoin="round"/>
    <path d="M 125.2968521118164 176.66346740722656 C 134.05027770996094 196.34710693359375 136.2578887939453 195.14434814453125 139.71168518066406 210.97264099121094" stroke-width="9.95563793182373" fill="none" stroke="rgb(39, 76, 0)" stroke-opacity="0.4869812" stroke-linecap="round" stroke-linejoin="round"/>
    <path d="M 122.65216827392578 58.69272232055664 C 112.24781799316406 68.2757568359375 121.55369567871094 46.62745666503906 123.00971984863281 65.1142807006836" stroke-width="10.0" fill="none" stroke="rgb(0, 119, 200)" stroke-opacity="0.805904" stroke-linecap="round" stroke-linejoin="round"/>
    <path d="M 72.10490417480469 160.55789184570312 C 82.60712432861328 163.7848358154297 95.76168060302734 166.18841552734375 110.55475616455078 160.70004272460938 C 106.0312728881836 165.57955932617188 97.56795501708984 152.80921936035156 97.64407348632812 161.91876220703125" stroke-width="1.9904465675354004" fill="none" stroke="rgb(2, 17, 3)" stroke-opacity="0.7018244" stroke-linecap="round" stroke-linejoin="round"/>
    <path d="M 91.4547119140625 176.37692260742188 C 103.26907348632812 168.82594299316406 89.26100158691406 173.05564880371094 102.10453796386719 173.6140594482422" stroke-width="7.06551456451416" fill="none" stroke="rgb(6, 52, 98)" stroke-opacity="0.48225316" stroke-linecap="round" stroke-linejoin="round"/>
    <path d="M 130.4808807373047 182.37501525878906 C 138.75721740722656 167.00540161132812 137.27272033691406 162.35379028320312 132.302490234375 164.59771728515625 C 137.05218505859375 150.31716918945312 135.66534423828125 146.38546752929688 152.40106201171875 155.26980590820312" stroke-width="10.0" fill="none" stroke="rgb(74, 151, 0)" stroke-opacity="0.60922986" stroke-linecap="round" stroke-linejoin="round"/>
    <path d="M 72.25782012939453 165.31480407714844 C 62.95772171020508 150.01881408691406 69.78166961669922 143.41851806640625 78.27323150634766 150.5780029296875 C 80.29265594482422 130.9056396484375 92.05587005615234 142.41184997558594 72.28483581542969 148.48585510253906 C 63.1015739440918 161.83973693847656 46.648231506347656 165.3179931640625 59.529788970947266 159.35540771484375" stroke-width="5.672094345092773" fill="none" stroke="rgb(29, 64, 5)" stroke-opacity="0.5704266" stroke-linecap="round" stroke-linejoin="round"/>
    <path d="M 157.07460021972656 163.98704528808594 C 129.4224090576172 175.56271362304688 115.4155502319336 183.44032287597656 101.05665588378906 198.05287170410156 C 117.7467269897461 206.7139892578125 133.95355224609375 200.89370727539062 140.63192749023438 211.88487243652344" stroke-width="6.677543640136719" fill="none" stroke="rgb(11, 42, 1)" stroke-opacity="0.18986945" stroke-linecap="round" stroke-linejoin="round"/>
    <path d="M 128.54000854492188 53.28524398803711 C 135.10702514648438 69.67283630371094 154.5980682373047 78.85823059082031 148.2779541015625 106.5767593383789" stroke-width="6.899237632751465" fill="none" stroke="rgb(29, 157, 0)" stroke-opacity="0.22507611" stroke-linecap="round" stroke-linejoin="round"/>
    <path d="M 158.22877502441406 170.53578186035156 C 157.6659393310547 181.45086669921875 140.01251220703125 168.53965759277344 153.5497283935547 181.70652770996094 C 154.69650268554688 176.27859497070312 143.10000610351562 189.80523681640625 140.94219970703125 202.4600830078125" stroke-width="1.4699015617370605" fill="none" stroke="rgb(33, 97, 32)" stroke-opacity="0.42183876" stroke-linecap="round" stroke-linejoin="round"/>
    <path d="M 123.98834991455078 68.78446197509766 C 107.744140625 73.09879302978516 121.45039367675781 83.1869888305664 126.80079650878906 85.00762176513672 C 134.78759765625 77.61323547363281 128.81390380859375 89.39997100830078 123.13038635253906 90.5645980834961 C 111.41639709472656 81.13562774658203 117.53538513183594 76.6002426147461 116.38002014160156 60.94215774536133" stroke-width="6.006755352020264" fill="none" stroke="rgb(38, 90, 38)" stroke-opacity="0.023939785" stroke-linecap="round" stroke-linejoin="round"/>
    <path d="M 134.62693786621094 67.94786834716797 C 127.61421966552734 80.51625061035156 127.9864501953125 75.11888122558594 131.6473846435547 73.5542984008789 C 132.73521423339844 59.260921478271484 136.70645141601562 58.392555236816406 142.45570373535156 71.00450897216797 C 126.90476989746094 67.00906372070312 122.61174011230469 79.6133804321289 134.1071014404297 82.09211730957031" stroke-width="1.0" fill="none" stroke="rgb(1, 31, 0)" stroke-opacity="0.8134629" stroke-linecap="round" stroke-linejoin="round"/>
    <path d="M 100.15264892578125 163.16995239257812 C 102.28533172607422 156.32875061035156 118.92363739013672 166.6417999267578 147.30967712402344 178.79852294921875 C 138.1803741455078 188.97950744628906 131.76014709472656 185.79685974121094 135.0380401611328 185.06399536132812 C 138.65989685058594 168.86390686035156 135.79872131347656 188.50552368164062 118.93963623046875 204.1775360107422" stroke-width="1.2780061960220337" fill="none" stroke="rgb(29, 65, 0)" stroke-opacity="0.30052882" stroke-linecap="round" stroke-linejoin="round"/>
    <path d="M 100.62501525878906 170.02589416503906 C 119.56900787353516 178.8325958251953 121.5457992553711 194.8869171142578 116.34093475341797 191.4519500732422 C 124.20753479003906 187.53382873535156 107.7477798461914 171.7526397705078 122.19908142089844 166.28240966796875 C 116.42659759521484 165.5117645263672 110.61407470703125 168.51864624023438 108.71237182617188 173.44711303710938" stroke-width="1.8252818584442139" fill="none" stroke="rgb(51, 49, 66)" stroke-opacity="0.75701326" stroke-linecap="round" stroke-linejoin="round"/>
    <path d="M 131.1968994140625 77.00408172607422 C 143.59393310546875 75.35214233398438 123.8976058959961 84.8329849243164 132.771484375 93.51090240478516 C 150.90777587890625 91.10012817382812 149.15968322753906 93.74506378173828 161.79788208007812 80.85157775878906" stroke-width="10.0" fill="none" stroke="rgb(32, 112, 0)" stroke-opacity="0.4179666" stroke-linecap="round" stroke-linejoin="round"/>
    <path d="M 104.2986831665039 170.95510864257812 C 96.91090393066406 181.7242889404297 86.53169250488281 188.32403564453125 82.58065032958984 186.2494354248047" stroke-width="2.1857941150665283" fill="none" stroke="rgb(11, 16, 28)" stroke-opacity="0.8886458" stroke-linecap="round" stroke-linejoin="round"/>
    <path d="M 142.84364318847656 213.0907745361328 C 128.06544494628906 224.2762451171875 128.3458251953125 208.35658264160156 132.89625549316406 214.37911987304688 C 124.45220184326172 228.62156677246094 115.98113250732422 241.6817626953125 117.85808563232422 239.80918884277344" stroke-width="10.0" fill="none" stroke="rgb(75, 200, 24)" stroke-opacity="0.3766552" stroke-linecap="round" stroke-linejoin="round"/>
    <path d="M 119.63006591796875 169.09014892578125 C 133.24192810058594 163.529296875 115.76556396484375 145.26272583007812 139.45916748046875 158.12351989746094" stroke-width="2.6308467388153076" fill="none" stroke="rgb(8, 0, 0)" stroke-opacity="1.0" stroke-linecap="round" stroke-linejoin="round"/>
    <path d="M 93.51298522949219 83.84933471679688 C 107.5948257446289 76.86405181884766 94.31449127197266 68.69159698486328 65.48707580566406 61.60317611694336 C 77.1121826171875 66.37776947021484 78.10742950439453 64.94438934326172 63.59555435180664 69.50114440917969" stroke-width="9.717840194702148" fill="none" stroke="rgb(58, 161, 0)" stroke-opacity="0.5576846" stroke-linecap="round" stroke-linejoin="round"/>
    <path d="M 104.69181823730469 205.9957733154297 C 110.84454345703125 219.1311798095703 105.55013275146484 232.96734619140625 100.57601928710938 249.3283233642578" stroke-width="8.654041290283203" fill="none" stroke="rgb(19, 186, 62)" stroke-opacity="0.027417555" stroke-linecap="round" stroke-linejoin="round"/>
    <path d="M 128.4685516357422 120.00066375732422 C 137.82232666015625 108.66664123535156 139.79946899414062 92.17499542236328 128.22903442382812 92.43343353271484 C 136.1619110107422 95.4653091430664 126.09068298339844 89.15689849853516 135.66676330566406 98.22126007080078 C 139.23785400390625 83.50177001953125 147.09339904785156 78.82935333251953 150.37599182128906 77.46189880371094" stroke-width="7.508050441741943" fill="none" stroke="rgb(27, 59, 0)" stroke-opacity="1.0" stroke-linecap="round" stroke-linejoin="round"/>
    <path d="M 57.09101486206055 152.51834106445312 C 52.62520217895508 180.96725463867188 65.55503845214844 170.80197143554688 34.848236083984375 168.18992614746094" stroke-width="6.359170436859131" fill="none" stroke="rgb(0, 0, 127)" stroke-opacity="1.0" stroke-linecap="round" stroke-linejoin="round"/>
    <path d="M 68.84457397460938 159.6218719482422 C 53.10486602783203 163.45053100585938 58.895748138427734 153.2815704345703 51.56444549560547 145.65403747558594 C 47.022403717041016 155.36328125 43.94561767578125 161.8344268798828 33.795448303222656 147.03536987304688 C 38.749412536621094 155.97439575195312 20.317651748657227 147.5199737548828 21.091054916381836 150.9759063720703" stroke-width="5.416008949279785" fill="none" stroke="rgb(0, 0, 0)" stroke-opacity="1.0" stroke-linecap="round" stroke-linejoin="round"/>
    <path d="M 148.61378479003906 137.0253448486328 C 137.27760314941406 141.38751220703125 133.0448760986328 148.74310302734375 139.402099609375 158.93124389648438" stroke-width="5.27783727645874" fill="none" stroke="rgb(26, 58, 0)" stroke-opacity="0.41813016" stroke-linecap="round" stroke-linejoin="round"/>
    <path d="M 114.09778594970703 61.62574005126953 C 104.97648620605469 67.31998443603516 109.73159790039062 78.25048828125 102.56778717041016 80.26448059082031 C 117.02032470703125 71.15913391113281 117.21405792236328 74.05950164794922 133.75650024414062 78.58353424072266" stroke-width="5.295382499694824" fill="none" stroke="rgb(59, 81, 0)" stroke-opacity="0.31276655" stroke-linecap="round" stroke-linejoin="round"/>
    <path d="M 145.9832763671875 166.314208984375 C 132.01968383789062 179.79502868652344 117.7465591430664 167.90391540527344 115.54682922363281 152.8008575439453" stroke-width="5.377190589904785" fill="none" stroke="rgb(78, 141, 0)" stroke-opacity="0.24001482" stroke-linecap="round" stroke-linejoin="round"/>
    <path d="M 151.15525817871094 161.68020629882812 C 134.9803009033203 162.2745819091797 126.78559112548828 176.5309295654297 123.08572387695312 158.66114807128906" stroke-width="4.109085559844971" fill="none" stroke="rgb(68, 121, 0)" stroke-opacity="0.15113571" stroke-linecap="round" stroke-linejoin="round"/>
    <path d="M 125.83042907714844 164.4374237060547 C 110.24363708496094 157.8934783935547 98.59036254882812 154.75262451171875 98.95655059814453 157.7467498779297 C 88.45701599121094 167.10951232910156 80.10464477539062 177.5001220703125 60.333736419677734 176.80905151367188" stroke-width="1.0" fill="none" stroke="rgb(32, 66, 3)" stroke-opacity="0.37268838" stroke-linecap="round" stroke-linejoin="round"/>
    <path d="M 103.5383071899414 202.80755615234375 C 102.09992218017578 198.69024658203125 99.89379119873047 197.85093688964844 91.25575256347656 181.48805236816406 C 72.8763656616211 167.86514282226562 81.44598388671875 155.67117309570312 71.52961730957031 160.50546264648438 C 58.743953704833984 151.0709991455078 55.7899284362793 154.87542724609375 53.212425231933594 143.2403564453125" stroke-width="10.0" fill="none" stroke="rgb(3, 128, 239)" stroke-opacity="0.35364404" stroke-linecap="round" stroke-linejoin="round"/>
    <path d="M 132.75782775878906 58.587730407714844 C 138.56430053710938 49.06446075439453 158.61802673339844 36.790611267089844 141.59912109375 32.99287796020508 C 120.02999114990234 52.76327896118164 124.34383392333984 39.07294845581055 117.23886108398438 29.0695858001709 C 107.9193115234375 18.636159896850586 108.16217803955078 19.004995346069336 115.78528594970703 26.996227264404297" stroke-width="1.3649723529815674" fill="none" stroke="rgb(61, 61, 38)" stroke-opacity="0.32213753" stroke-linecap="round" stroke-linejoin="round"/>
    <path d="M 56.533145904541016 155.20834350585938 C 61.80964660644531 149.13673400878906 51.985713958740234 139.75885009765625 55.70113754272461 151.40170288085938" stroke-width="5.892530918121338" fill="none" stroke="rgb(0, 37, 253)" stroke-opacity="0.81598955" stroke-linecap="round" stroke-linejoin="round"/>
    <path d="M 99.17925262451172 201.489990234375 C 93.35639190673828 204.0340576171875 97.15348815917969 211.11766052246094 108.47673797607422 202.48025512695312 C 110.26748657226562 221.39796447753906 103.91403198242188 234.4679412841797 103.28888702392578 234.3964080810547" stroke-width="1.8163225650787354" fill="none" stroke="rgb(26, 11, 17)" stroke-opacity="0.59066236" stroke-linecap="round" stroke-linejoin="round"/>
    <path d="M 122.5311050415039 55.61077880859375 C 116.18334197998047 41.54610824584961 125.1700210571289 55.34846115112305 113.05524444580078 61.84598159790039 C 113.71195983886719 56.785186767578125 118.92499542236328 44.734130859375 128.30833435058594 26.191333770751953 C 126.22604370117188 29.20792579650879 146.18218994140625 34.5419921875 145.67926025390625 33.35887908935547" stroke-width="6.530447006225586" fill="none" stroke="rgb(28, 93, 180)" stroke-opacity="0.33367544" stroke-linecap="round" stroke-linejoin="round"/>
    <path d="M 95.63905334472656 82.91658782958984 C 100.33262634277344 77.80094146728516 98.38388061523438 84.09505462646484 110.82431030273438 68.40573120117188 C 113.8377914428711 62.02275848388672 101.40401458740234 71.54344940185547 92.52861022949219 66.34375 C 105.65094757080078 50.75065231323242 114.6333999633789 47.351226806640625 118.33851623535156 48.03532409667969" stroke-width="1.3996628522872925" fill="none" stroke="rgb(22, 57, 0)" stroke-opacity="0.3286994" stroke-linecap="round" stroke-linejoin="round"/>
    <path d="M 33.86550521850586 15.528986930847168 C 21.126951217651367 -3.249197483062744 28.113143920898438 4.351420879364014 36.72053909301758 -9.118677139282227 C 28.25528907775879 -20.116729736328125 34.174644470214844 -25.00787353515625 49.87583541870117 -23.061481475830078 C 44.64609909057617 -39.35252380371094 54.594520568847656 -41.065250396728516 39.33599853515625 -29.631149291992188" stroke-width="1.1768007278442383" fill="none" stroke="rgb(101, 187, 104)" stroke-opacity="0.19575791" stroke-linecap="round" stroke-linejoin="round"/>
    <path d="M 83.83104705810547 110.682861328125 C 61.2620964050293 114.6811752319336 67.72026062011719 108.6932373046875 64.78628540039062 125.96098327636719" stroke-width="2.888697624206543" fill="none" stroke="rgb(185, 253, 106)" stroke-opacity="0.028358705" stroke-linecap="round" stroke-linejoin="round"/>
    <path d="M 5.510387897491455 207.3477325439453 C 1.5431970357894897 188.17007446289062 2.2694551944732666 194.13856506347656 -10.247017860412598 203.63539123535156 C 0.7416176795959473 212.03182983398438 -5.743913650512695 207.8870391845703 -5.57075834274292 212.12005615234375 C 9.583748817443848 204.77713012695312 0.0777168869972229 208.3142547607422 10.034931182861328 198.22909545898438" stroke-width="8.286796569824219" fill="none" stroke="rgb(107, 226, 95)" stroke-opacity="0.16072078" stroke-linecap="round" stroke-linejoin="round"/>
    <path d="M 30.002952575683594 120.414794921875 C 23.889251708984375 109.68838500976562 40.899044036865234 100.31343841552734 57.21455383300781 96.30716705322266" stroke-width="6.112475872039795" fill="none" stroke="rgb(157, 255, 54)" stroke-opacity="0.04636326" stroke-linecap="round" stroke-linejoin="round"/>
    <path d="M 110.63941192626953 22.658611297607422 C 92.14262390136719 28.3605899810791 103.06037902832031 36.965576171875 114.43646240234375 25.80582618713379 C 134.9125213623047 32.19487762451172 143.0272674560547 35.5557975769043 153.3427734375 57.357608795166016 C 169.2473907470703 41.66474151611328 167.93862915039062 38.88435363769531 152.4228515625 34.994728088378906" stroke-width="1.0" fill="none" stroke="rgb(146, 149, 130)" stroke-opacity="0.58405375" stroke-linecap="round" stroke-linejoin="round"/>
    <path d="M 91.39093017578125 204.79757690429688 C 76.76766967773438 210.8238067626953 79.10201263427734 207.72744750976562 87.1291732788086 208.46786499023438 C 86.71399688720703 208.28662109375 76.74015045166016 211.6490478515625 88.72352600097656 216.0331573486328 C 102.60469818115234 221.13363647460938 94.99552917480469 217.50643920898438 111.28678894042969 227.08901977539062" stroke-width="5.566011428833008" fill="none" stroke="rgb(59, 55, 71)" stroke-opacity="0.20530044" stroke-linecap="round" stroke-linejoin="round"/>
    <path d="M 174.9385223388672 105.9871597290039 C 173.08692932128906 100.2619400024414 189.69041442871094 101.07418823242188 190.6109161376953 118.0398178100586 C 181.72610473632812 116.17543029785156 185.78271484375 108.0298843383789 185.346435546875 101.78987884521484" stroke-width="1.0015171766281128" fill="none" stroke="rgb(199, 198, 184)" stroke-opacity="0.02913754" stroke-linecap="round" stroke-linejoin="round"/>
    <path d="M 5.932738304138184 43.88814926147461 C 22.00444793701172 46.42525100708008 33.74387741088867 29.807825088500977 35.94910430908203 15.109474182128906 C 36.38054275512695 13.974435806274414 40.946998596191406 -1.7519779205322266 46.48484420776367 23.281452178955078" stroke-width="1.0" fill="none" stroke="rgb(101, 225, 59)" stroke-opacity="0.11211846" stroke-linecap="round" stroke-linejoin="round"/>
    <path d="M 128.00814819335938 108.11904907226562 C 118.33705139160156 102.84619903564453 114.72148132324219 104.02313995361328 112.15369415283203 112.9407958984375 C 122.16207122802734 114.2332992553711 130.2488250732422 115.6841049194336 131.4748992919922 132.40640258789062 C 133.95213317871094 121.4599380493164 126.822265625 128.9470977783203 125.80517578125 148.27947998046875" stroke-width="5.083412170410156" fill="none" stroke="rgb(98, 0, 255)" stroke-opacity="1.0" stroke-linecap="round" stroke-linejoin="round"/>
    <path d="M 29.16040802001953 98.05874633789062 C 8.8546781539917 110.38587951660156 24.501955032348633 112.470703125 25.06559944152832 126.91339111328125 C 14.312959671020508 120.3849868774414 20.02615737915039 119.22794342041016 33.40646743774414 123.77287292480469 C 24.103118896484375 125.28885650634766 24.32437515258789 123.5435791015625 21.683326721191406 137.88063049316406" stroke-width="2.0564067363739014" fill="none" stroke="rgb(105, 98, 88)" stroke-opacity="0.92016685" stroke-linecap="round" stroke-linejoin="round"/>
    <path d="M 121.79512786865234 18.33914566040039 C 131.67970275878906 42.05020523071289 121.6045150756836 32.625221252441406 141.99732971191406 26.18798828125 C 157.5474853515625 32.75026321411133 150.5259552001953 42.92830276489258 164.33462524414062 57.74905776977539" stroke-width="10.0" fill="none" stroke="rgb(156, 255, 175)" stroke-opacity="0.060188152" stroke-linecap="round" stroke-linejoin="round"/>
    <path d="M 148.30221557617188 195.00277709960938 C 137.38978576660156 179.48336791992188 127.52729797363281 164.95516967773438 138.46116638183594 167.59368896484375 C 145.22213745117188 168.99403381347656 154.7583465576172 166.4497833251953 137.8516082763672 171.11651611328125 C 150.6454620361328 172.294189453125 165.6438751220703 171.49624633789062 172.0738525390625 176.22438049316406" stroke-width="2.1406619548797607" fill="none" stroke="rgb(153, 255, 50)" stroke-opacity="0.03823253" stroke-linecap="round" stroke-linejoin="round"/>
    <path d="M 134.5713653564453 208.94859313964844 C 144.37994384765625 208.03585815429688 140.00657653808594 213.1584930419922 130.15953063964844 227.95579528808594 C 129.26014709472656 239.5816650390625 133.88015747070312 233.6956329345703 128.38841247558594 240.319580078125 C 124.42637634277344 238.29205322265625 121.0775375366211 236.4605255126953 109.0057144165039 230.14657592773438" stroke-width="9.93559741973877" fill="none" stroke="rgb(176, 254, 152)" stroke-opacity="0.92553526" stroke-linecap="round" stroke-linejoin="round"/>
    <path d="M 34.40407943725586 121.181884765625 C 51.76237869262695 128.8436737060547 56.7503662109375 127.39327239990234 54.08980941772461 142.3860321044922 C 72.17500305175781 154.20518493652344 67.62512969970703 157.8265838623047 46.79611587524414 139.75302124023438" stroke-width="8.235260963439941" fill="none" stroke="rgb(49, 36, 50)" stroke-opacity="0.24080272" stroke-linecap="round" stroke-linejoin="round"/>
    <path d="M 112.69768524169922 114.11279296875 C 113.60623168945312 114.15040588378906 125.05132293701172 118.32574462890625 108.9695816040039 119.62357330322266 C 112.21279907226562 133.23196411132812 124.2830581665039 148.87852478027344 118.00436401367188 155.23025512695312" stroke-width="1.0" fill="none" stroke="rgb(181, 192, 255)" stroke-opacity="0.0" stroke-linecap="round" stroke-linejoin="round"/>
    <path d="M 65.17162322998047 15.709275245666504 C 88.80024719238281 21.76402473449707 99.17052459716797 29.32212257385254 93.726318359375 13.538212776184082 C 100.4062271118164 6.598930835723877 95.78597259521484 18.055509567260742 105.03838348388672 -1.4489158391952515 C 113.29961395263672 15.529707908630371 101.35296630859375 23.810745239257812 98.61119079589844 14.149056434631348" stroke-width="1.744584321975708" fill="none" stroke="rgb(144, 255, 77)" stroke-opacity="0.11389358" stroke-linecap="round" stroke-linejoin="round"/>
    <path d="M 109.28136444091797 21.257644653320312 C 101.90733337402344 31.171283721923828 99.49473571777344 13.257864952087402 89.90709686279297 -1.6406124830245972 C 92.35047912597656 8.347805976867676 78.3373031616211 15.943986892700195 96.08259582519531 5.927245140075684" stroke-width="6.279594898223877" fill="none" stroke="rgb(118, 118, 137)" stroke-opacity="0.30143556" stroke-linecap="round" stroke-linejoin="round"/>
    <path d="M 127.4822769165039 199.6943817138672 C 115.90116119384766 189.55072021484375 132.607177734375 177.5690460205078 122.51305389404297 184.5091094970703" stroke-width="1.0" fill="none" stroke="rgb(43, 121, 7)" stroke-opacity="0.12884423" stroke-linecap="round" stroke-linejoin="round"/>
    <path d="M 107.79100036621094 171.6737060546875 C 115.54170227050781 183.52650451660156 106.29737091064453 175.064697265625 98.34900665283203 157.16366577148438" stroke-width="10.0" fill="none" stroke="rgb(154, 194, 219)" stroke-opacity="0.5983473" stroke-linecap="round" stroke-linejoin="round"/>
    <path d="M 44.69438552856445 37.533966064453125 C 38.85157012939453 52.94938659667969 35.513309478759766 48.2285270690918 36.59627151489258 33.681488037109375 C 24.076156616210938 37.95769119262695 35.68658447265625 51.43833923339844 29.528236389160156 41.49154281616211 C 43.264381408691406 34.150875091552734 26.113990783691406 40.58521270751953 25.31159019470215 38.21903991699219" stroke-width="6.591128826141357" fill="none" stroke="rgb(213, 255, 196)" stroke-opacity="0.32895273" stroke-linecap="round" stroke-linejoin="round"/>
    <path d="M 115.90695190429688 133.98309326171875 C 96.48660278320312 130.87535095214844 93.78655242919922 142.30738830566406 113.41239166259766 150.30728149414062" stroke-width="4.492204189300537" fill="none" stroke="rgb(62, 10, 255)" stroke-opacity="0.70904464" stroke-linecap="round" stroke-linejoin="round"/>
    <path d="M 43.02005386352539 10.98280143737793 C 36.76121139526367 25.529653549194336 38.78046798706055 4.305862903594971 34.50343704223633 14.42335319519043 C 35.689144134521484 21.270851135253906 45.01447677612305 20.476272583007812 40.08271026611328 27.263391494750977 C 49.29288864135742 36.3880615234375 46.359745025634766 44.541751861572266 55.16975402832031 35.393795013427734" stroke-width="1.0" fill="none" stroke="rgb(84, 69, 97)" stroke-opacity="0.5528755" stroke-linecap="round" stroke-linejoin="round"/>
    <path d="M 19.7048282623291 35.05291748046875 C 25.645912170410156 31.692794799804688 38.507843017578125 36.19168472290039 36.11361312866211 45.57328414916992 C 29.470441818237305 38.90461349487305 40.13962173461914 44.9935417175293 35.56527328491211 29.878572463989258" stroke-width="1.0" fill="none" stroke="rgb(162, 69, 141)" stroke-opacity="0.0" stroke-linecap="round" stroke-linejoin="round"/>
    <path d="M 141.98336791992188 122.6506118774414 C 142.22360229492188 131.41946411132812 136.03367614746094 125.67594909667969 145.89031982421875 133.4087371826172" stroke-width="7.11436128616333" fill="none" stroke="rgb(112, 179, 113)" stroke-opacity="0.579859" stroke-linecap="round" stroke-linejoin="round"/>
    <path d="M 63.60513687133789 71.78504943847656 C 54.38312530517578 87.7699203491211 59.39845275878906 95.78028106689453 32.61663055419922 96.94344329833984" stroke-width="2.6969425678253174" fill="none" stroke="rgb(40, 26, 31)" stroke-opacity="0.4863649" stroke-linecap="round" stroke-linejoin="round"/>
    <path d="M 69.05101013183594 155.3682403564453 C 77.45687103271484 164.27394104003906 56.64302062988281 176.0555419921875 51.5360221862793 192.0659637451172 C 48.062503814697266 191.66616821289062 65.40879821777344 181.67674255371094 52.954132080078125 180.0143280029297" stroke-width="2.737492322921753" fill="none" stroke="rgb(178, 216, 165)" stroke-opacity="0.3369801" stroke-linecap="round" stroke-linejoin="round"/>
    <path d="M 158.877685546875 45.23225402832031 C 166.44512939453125 43.64883041381836 153.91990661621094 31.299686431884766 152.51380920410156 46.2014274597168" stroke-width="1.0993679761886597" fill="none" stroke="rgb(249, 169, 47)" stroke-opacity="0.072349526" stroke-linecap="round" stroke-linejoin="round"/>
    <path d="M 128.6565399169922 122.50750732421875 C 121.35891723632812 108.49003601074219 123.50547790527344 123.67555236816406 131.17230224609375 104.82986450195312 C 122.5744400024414 110.647705078125 135.08412170410156 104.897216796875 123.04389190673828 101.00550079345703" stroke-width="7.644099712371826" fill="none" stroke="rgb(254, 0, 255)" stroke-opacity="0.5035083" stroke-linecap="round" stroke-linejoin="round"/>
    <path d="M 221.2280731201172 152.1426544189453 C 239.39990234375 149.8457794189453 251.8603515625 160.17645263671875 241.24234008789062 163.93621826171875 C 235.72779846191406 175.96627807617188 224.16455078125 164.9008026123047 233.00332641601562 176.2740936279297 C 236.86705017089844 161.03150939941406 253.0621337890625 146.64266967773438 236.69000244140625 149.23638916015625" stroke-width="1.1156086921691895" fill="none" stroke="rgb(155, 193, 139)" stroke-opacity="0.068536304" stroke-linecap="round" stroke-linejoin="round"/>
    <path d="M 181.67733764648438 83.55895233154297 C 167.73739624023438 77.00540924072266 165.6942901611328 61.48854064941406 178.80426025390625 49.030941009521484 C 186.12161254882812 40.90480422973633 200.3015594482422 33.63112258911133 179.66578674316406 47.85183334350586 C 175.32589721679688 60.90693664550781 181.49635314941406 75.81412506103516 195.0404510498047 73.79175567626953" stroke-width="1.2136681079864502" fill="none" stroke="rgb(142, 154, 243)" stroke-opacity="0.0015402192" stroke-linecap="round" stroke-linejoin="round"/>
    <path d="M 34.7166748046875 137.47430419921875 C 17.900026321411133 152.0137939453125 28.014957427978516 142.87530517578125 43.57993698120117 146.79718017578125 C 38.015079498291016 153.03224182128906 31.814014434814453 167.1307830810547 28.28713035583496 166.7479248046875" stroke-width="8.513677597045898" fill="none" stroke="rgb(0, 255, 0)" stroke-opacity="1.0" stroke-linecap="round" stroke-linejoin="round"/>
    <path d="M 14.860525131225586 117.04161834716797 C 18.452659606933594 123.81449890136719 21.680593490600586 135.66969299316406 15.97056770324707 139.3571319580078" stroke-width="3.1244983673095703" fill="none" stroke="rgb(77, 193, 158)" stroke-opacity="0.2350871" stroke-linecap="round" stroke-linejoin="round"/>
    <path d="M 119.13993835449219 206.48928833007812 C 115.41287994384766 229.158935546875 110.66290283203125 238.38084411621094 105.49879455566406 252.38250732421875 C 85.69577026367188 258.6124572753906 75.06476593017578 251.56149291992188 64.85137939453125 236.28599548339844 C 54.83563232421875 225.58120727539062 54.98488235473633 231.67434692382812 44.569435119628906 233.45252990722656" stroke-width="8.777979850769043" fill="none" stroke="rgb(123, 82, 108)" stroke-opacity="0.1622887" stroke-linecap="round" stroke-linejoin="round"/>
    <path d="M 71.1038589477539 134.29562377929688 C 83.16116333007812 125.09346771240234 88.38108825683594 144.65016174316406 94.24547576904297 149.4128875732422" stroke-width="9.268867492675781" fill="none" stroke="rgb(60, 213, 0)" stroke-opacity="1.0" stroke-linecap="round" stroke-linejoin="round"/>
    <path d="M 149.6464080810547 64.44973754882812 C 159.88453674316406 70.0546875 163.07479858398438 79.78380584716797 172.97769165039062 62.602378845214844 C 186.80874633789062 59.0142707824707 199.62771606445312 57.07726287841797 197.07058715820312 41.51198959350586" stroke-width="1.2776082754135132" fill="none" stroke="rgb(113, 16, 97)" stroke-opacity="0.96117616" stroke-linecap="round" stroke-linejoin="round"/>
    <path d="M 137.4283447265625 218.26918029785156 C 139.69686889648438 210.2735137939453 132.67230224609375 219.9556884765625 121.57966613769531 223.62582397460938 C 124.86820220947266 212.15362548828125 122.65214538574219 203.7860565185547 125.64707946777344 220.87356567382812 C 147.99098205566406 213.68531799316406 146.98486328125 222.46746826171875 153.5482635498047 229.6858367919922" stroke-width="1.7561553716659546" fill="none" stroke="rgb(130, 185, 104)" stroke-opacity="0.13623181" stroke-linecap="round" stroke-linejoin="round"/>
    <path d="M 139.2908935546875 176.9033203125 C 138.84617614746094 177.54034423828125 150.20010375976562 163.35337829589844 137.7829132080078 154.146484375" stroke-width="3.4757134914398193" fill="none" stroke="rgb(35, 72, 201)" stroke-opacity="0.0" stroke-linecap="round" stroke-linejoin="round"/>
    <path d="M 41.91307067871094 167.8257598876953 C 58.08894729614258 174.275146484375 53.11209487915039 168.51319885253906 55.70804214477539 151.62794494628906 C 60.14863586425781 153.48997497558594 53.88766098022461 143.2456512451172 52.94489669799805 149.8570556640625" stroke-width="6.7144598960876465" fill="none" stroke="rgb(0, 0, 255)" stroke-opacity="1.0" stroke-linecap="round" stroke-linejoin="round"/>
    <path d="M 221.0494842529297 97.92203521728516 C 234.62042236328125 90.90281677246094 221.87432861328125 76.43714904785156 211.23597717285156 61.76469802856445 C 220.0521697998047 43.98952865600586 209.9483184814453 49.39809799194336 204.46449279785156 41.644371032714844 C 195.3946533203125 44.268314361572266 196.5562744140625 43.30156707763672 202.17901611328125 41.00312805175781" stroke-width="1.0" fill="none" stroke="rgb(97, 107, 82)" stroke-opacity="0.89858997" stroke-linecap="round" stroke-linejoin="round"/>
    <path d="M 200.68214416503906 13.689703941345215 C 201.53379821777344 2.643747568130493 202.93814086914062 -2.010956287384033 194.77418518066406 -10.853769302368164 C 201.75479125976562 -23.169029235839844 211.95057678222656 -7.696475505828857 218.37310791015625 -19.682144165039062" stroke-width="5.222160339355469" fill="none" stroke="rgb(217, 255, 236)" stroke-opacity="0.062390674" stroke-linecap="round" stroke-linejoin="round"/>
    <path d="M 110.61172485351562 78.89752960205078 C 114.07743835449219 71.050048828125 108.8539810180664 80.39575958251953 93.05216979980469 91.32530212402344 C 111.88118743896484 102.78684997558594 122.63136291503906 101.67414093017578 132.8179168701172 111.10775756835938 C 142.97828674316406 110.89498901367188 140.4945068359375 113.33580017089844 146.4718780517578 118.53515625" stroke-width="3.679144859313965" fill="none" stroke="rgb(87, 52, 0)" stroke-opacity="0.14286804" stroke-linecap="round" stroke-linejoin="round"/>
    <path d="M 26.2550048828125 100.7445297241211 C 7.532936096191406 83.63090515136719 -5.6821465492248535 103.24327087402344 -1.187303066253662 112.59748077392578" stroke-width="1.0" fill="none" stroke="rgb(126, 7, 79)" stroke-opacity="0.9768162" stroke-linecap="round" stroke-linejoin="round"/>
    <path d="M 90.09498596191406 111.59906768798828 C 89.58565521240234 123.3529052734375 78.67500305175781 119.36762237548828 73.91413116455078 130.31614685058594 C 72.45108795166016 130.885009765625 57.174049377441406 139.91429138183594 72.53858184814453 131.8648223876953 C 83.11132049560547 141.0916748046875 76.73361206054688 138.2409210205078 60.96945571899414 158.83506774902344" stroke-width="2.682997465133667" fill="none" stroke="rgb(190, 255, 62)" stroke-opacity="0.11015349" stroke-linecap="round" stroke-linejoin="round"/>
    <path d="M 100.87930297851562 141.06527709960938 C 112.6841812133789 153.10202026367188 123.11697387695312 158.5240020751953 132.70388793945312 139.38343811035156" stroke-width="8.82949161529541" fill="none" stroke="rgb(16, 0, 255)" stroke-opacity="1.0" stroke-linecap="round" stroke-linejoin="round"/>
    <path d="M 216.60040283203125 95.62501525878906 C 219.030029296875 91.13003540039062 232.52700805664062 73.28453063964844 241.85244750976562 61.5804443359375 C 246.94866943359375 68.32185363769531 245.77491760253906 80.49964904785156 251.65780639648438 64.1773910522461" stroke-width="7.769550323486328" fill="none" stroke="rgb(133, 135, 138)" stroke-opacity="0.19996993" stroke-linecap="round" stroke-linejoin="round"/>
    <path d="M 218.41343688964844 174.1913299560547 C 221.01234436035156 197.20912170410156 220.8219757080078 194.13307189941406 200.95071411132812 192.62709045410156 C 186.03607177734375 201.81149291992188 193.03781127929688 207.035400390625 188.7967529296875 193.76161193847656 C 190.67384338378906 209.4725799560547 185.1865234375 192.34303283691406 187.1011199951172 185.35035705566406" stroke-width="2.4712812900543213" fill="none" stroke="rgb(155, 255, 103)" stroke-opacity="0.058865402" stroke-linecap="round" stroke-linejoin="round"/>
  </g>
</svg>
