<?xml version="1.0" ?>
<svg xmlns="http://www.w3.org/2000/svg" version="1.1" width="982.8000000000001" height="982.8000000000001">
  <defs/>
  <g>
    <path d="M 159.37136840820312 141.8548583984375 C 157.2315673828125 149.90538024902344 155.84593200683594 158.8477325439453 150.73361206054688 165.7958984375 C 146.0900421142578 172.1383819580078 138.1570281982422 175.96435546875 131.14414978027344 178.78594970703125 C 118.0324478149414 184.03443908691406 104.12504577636719 183.63458251953125 91.48571014404297 176.95205688476562" stroke-width="1.1231582164764404" fill="none" stroke="rgb(18, 24, 25)" stroke-opacity="0.63016444" stroke-linecap="round" stroke-linejoin="round"/>
    <path d="M 91.48091125488281 176.95591735839844 C 83.6106185913086 172.82101440429688 77.9894027709961 165.61595153808594 72.33226013183594 158.93914794921875" stroke-width="2.561741828918457" fill="none" stroke="rgb(18, 24, 25)" stroke-opacity="0.63016444" stroke-linecap="round" stroke-linejoin="round"/>
    <path d="M 127.07965850830078 56.83412551879883 C 124.44037628173828 60.26297378540039 124.76742553710938 65.38216400146484 124.77227783203125 69.37581634521484 C 124.762939453125 75.35334014892578 126.35626983642578 81.0051498413086 126.35921478271484 86.92916870117188" stroke-width="2.432234048843384" fill="none" stroke="rgb(23, 25, 23)" stroke-opacity="0.65450454" stroke-linecap="round" stroke-linejoin="round"/>
    <path d="M 95.83372497558594 64.3316650390625 C 95.20680236816406 70.90036010742188 95.36152648925781 77.40558624267578 95.3714828491211 83.96430206298828" stroke-width="2.5995635986328125" fill="none" stroke="rgb(24, 24, 24)" stroke-opacity="0.65008056" stroke-linecap="round" stroke-linejoin="round"/>
    <path d="M 87.07396697998047 101.24295043945312 C 85.72732543945312 99.4314193725586 87.96104431152344 91.40206909179688 79.40769958496094 83.2492446899414 C 83.866943359375 78.87348175048828 83.2736587524414 79.20777893066406 90.35783386230469 101.34861755371094 C 86.26913452148438 102.62889862060547 77.27462768554688 100.88640594482422 96.22429656982422 102.96714782714844" stroke-width="4.842953681945801" fill="none" stroke="rgb(0, 26, 57)" stroke-opacity="1.0" stroke-linecap="round" stroke-linejoin="round"/>
    <path d="M 125.02745056152344 70.43998718261719 C 146.9512176513672 78.31871795654297 141.09100341796875 71.641845703125 133.62945556640625 89.08203125 C 147.26535034179688 98.12722778320312 136.07101440429688 88.15701293945312 116.62554931640625 79.6745834350586 C 126.71587371826172 105.91799926757812 120.49679565429688 94.68746948242188 135.78347778320312 92.45885467529297" stroke-width="2.3800599575042725" fill="none" stroke="rgb(0, 71, 0)" stroke-opacity="1.0" stroke-linecap="round" stroke-linejoin="round"/>
    <path d="M 91.67828369140625 86.31194305419922 C 102.09647369384766 87.78024291992188 95.29068756103516 106.4413833618164 109.49586486816406 91.50303649902344 C 92.98664093017578 81.1524887084961 81.50440216064453 74.17375183105469 85.56436920166016 87.35343933105469" stroke-width="2.2404839992523193" fill="none" stroke="rgb(87, 250, 184)" stroke-opacity="0.07134306" stroke-linecap="round" stroke-linejoin="round"/>
    <path d="M 154.43658447265625 132.33062744140625 C 135.46160888671875 122.84152221679688 145.67205810546875 166.48727416992188 153.16293334960938 143.4125213623047" stroke-width="3.726649284362793" fill="none" stroke="rgb(0, 68, 244)" stroke-opacity="1.0" stroke-linecap="round" stroke-linejoin="round"/>
    <path d="M 124.6556396484375 56.789058685302734 C 119.55946350097656 36.1946907043457 126.81713104248047 64.89208984375 124.7733154296875 70.19168090820312 C 109.30067443847656 74.16646575927734 125.15815734863281 47.38799285888672 117.68341827392578 57.663551330566406" stroke-width="1.6164189577102661" fill="none" stroke="rgb(42, 10, 47)" stroke-opacity="0.8372873" stroke-linecap="round" stroke-linejoin="round"/>
    <path d="M 98.56803131103516 78.0685806274414 C 88.72346496582031 53.821102142333984 87.77621459960938 48.7114143371582 117.12464904785156 58.5543212890625 C 117.67022705078125 68.7195053100586 123.47521209716797 61.175941467285156 111.94064331054688 58.9173583984375 C 94.17781066894531 56.219093322753906 99.3676528930664 43.88278579711914 78.66090393066406 44.27143096923828" stroke-width="1.4640300273895264" fill="none" stroke="rgb(0, 34, 30)" stroke-opacity="0.47626093" stroke-linecap="round" stroke-linejoin="round"/>
    <path d="M 94.04769897460938 62.64292526245117 C 98.35004425048828 70.92288970947266 96.87422180175781 79.74040985107422 107.06906127929688 78.66557312011719 C 96.22199249267578 76.25398254394531 117.67381286621094 75.85604095458984 123.76437377929688 97.24713134765625" stroke-width="3.4598615169525146" fill="none" stroke="rgb(0, 9, 34)" stroke-opacity="0.3605493" stroke-linecap="round" stroke-linejoin="round"/>
    <path d="M 73.49134826660156 166.34521484375 C 55.74773406982422 167.7090606689453 44.5111083984375 165.41001892089844 51.08987045288086 178.15943908691406 C 39.62318420410156 187.34156799316406 50.42290115356445 176.92697143554688 57.475433349609375 175.8991241455078 C 72.56625366210938 165.20484924316406 95.34898376464844 171.28662109375 77.27855682373047 159.93983459472656" stroke-width="10.0" fill="none" stroke="rgb(80, 184, 0)" stroke-opacity="0.7102616" stroke-linecap="round" stroke-linejoin="round"/>
    <path d="M 120.83346557617188 172.1082763671875 C 147.92333984375 192.46945190429688 155.40992736816406 192.23231506347656 134.13424682617188 180.718017578125" stroke-width="4.520777702331543" fill="none" stroke="rgb(99, 53, 0)" stroke-opacity="1.0" stroke-linecap="round" stroke-linejoin="round"/>
    <path d="M 78.45085906982422 180.3490753173828 C 104.71864318847656 190.34671020507812 126.05780792236328 188.434326171875 104.22124481201172 208.84567260742188" stroke-width="9.04611873626709" fill="none" stroke="rgb(31, 27, 72)" stroke-opacity="0.24132729" stroke-linecap="round" stroke-linejoin="round"/>
    <path d="M 87.37462615966797 177.19764709472656 C 86.15074920654297 150.0496826171875 99.83917999267578 160.29605102539062 75.01721954345703 153.29022216796875" stroke-width="3.654738426208496" fill="none" stroke="rgb(65, 57, 0)" stroke-opacity="1.0" stroke-linecap="round" stroke-linejoin="round"/>
    <path d="M 78.02371978759766 54.417694091796875 C 84.54823303222656 37.15704345703125 106.50703430175781 42.309059143066406 122.32063293457031 51.78717803955078 C 132.56163024902344 62.106353759765625 126.06586456298828 77.17716979980469 131.72900390625 68.28349304199219" stroke-width="6.391384601593018" fill="none" stroke="rgb(149, 211, 14)" stroke-opacity="0.04292948" stroke-linecap="round" stroke-linejoin="round"/>
    <path d="M 89.96720886230469 184.3194122314453 C 75.65568542480469 189.36390686035156 64.90859985351562 196.87579345703125 65.31173706054688 205.3174591064453" stroke-width="3.801661729812622" fill="none" stroke="rgb(22, 211, 5)" stroke-opacity="0.08643818" stroke-linecap="round" stroke-linejoin="round"/>
    <path d="M 100.76171875 88.08795166015625 C 114.02493286132812 89.39086151123047 115.48141479492188 103.9380874633789 104.76457214355469 93.16445922851562 C 104.58338165283203 104.07697296142578 97.76363372802734 104.17781066894531 104.0284423828125 97.6961669921875" stroke-width="9.907607078552246" fill="none" stroke="rgb(10, 141, 255)" stroke-opacity="0.37326807" stroke-linecap="round" stroke-linejoin="round"/>
    <path d="M 136.99952697753906 85.8239974975586 C 119.7517318725586 96.2059555053711 130.34835815429688 76.53562927246094 138.39564514160156 77.8411865234375 C 138.06214904785156 58.95680618286133 140.70745849609375 45.93317794799805 157.32717895507812 49.69948196411133 C 160.3290557861328 58.401275634765625 177.7476043701172 57.40089416503906 167.41323852539062 40.34754180908203" stroke-width="9.225210189819336" fill="none" stroke="rgb(118, 255, 0)" stroke-opacity="0.7987562" stroke-linecap="round" stroke-linejoin="round"/>
    <path d="M 73.93839263916016 155.88531494140625 C 61.88884353637695 182.779541015625 55.19894027709961 173.7529296875 55.84501266479492 170.8607177734375 C 63.26462936401367 166.01644897460938 65.4648666381836 171.58534240722656 49.33933639526367 177.22344970703125 C 59.792747497558594 165.06851196289062 39.70089340209961 155.9811553955078 39.218170166015625 158.14218139648438" stroke-width="6.881655693054199" fill="none" stroke="rgb(114, 253, 17)" stroke-opacity="0.5696617" stroke-linecap="round" stroke-linejoin="round"/>
    <path d="M 124.15186309814453 83.09131622314453 C 114.80416870117188 72.95010375976562 124.6054458618164 55.38014221191406 104.3375473022461 57.16759490966797 C 85.7520751953125 54.256404876708984 101.48894500732422 29.721540451049805 86.81159210205078 43.90852355957031" stroke-width="2.5438802242279053" fill="none" stroke="rgb(56, 6, 37)" stroke-opacity="0.5132727" stroke-linecap="round" stroke-linejoin="round"/>
    <path d="M 93.9207992553711 82.55413055419922 C 92.56703186035156 77.95832824707031 93.40296173095703 93.66007995605469 98.30357360839844 98.81867980957031" stroke-width="2.747345209121704" fill="none" stroke="rgb(107, 35, 81)" stroke-opacity="0.3867441" stroke-linecap="round" stroke-linejoin="round"/>
    <path d="M 130.63491821289062 57.239009857177734 C 143.9568634033203 53.753631591796875 149.14642333984375 36.22640609741211 162.45361328125 39.042057037353516" stroke-width="9.608390808105469" fill="none" stroke="rgb(93, 145, 0)" stroke-opacity="1.0" stroke-linecap="round" stroke-linejoin="round"/>
    <path d="M 128.8240966796875 60.27170181274414 C 138.55592346191406 67.33302307128906 138.1991729736328 68.0755844116211 142.99542236328125 70.21066284179688" stroke-width="2.672384738922119" fill="none" stroke="rgb(23, 146, 0)" stroke-opacity="1.0" stroke-linecap="round" stroke-linejoin="round"/>
    <path d="M 105.29711151123047 59.361854553222656 C 120.94722747802734 58.73748779296875 117.83798217773438 55.8297004699707 121.41197204589844 78.05803680419922 C 137.1784210205078 53.5355339050293 157.05172729492188 65.85006713867188 134.39662170410156 77.31086730957031 C 134.0909881591797 53.70155715942383 132.79043579101562 49.97740936279297 117.93732452392578 44.746337890625" stroke-width="1.6140552759170532" fill="none" stroke="rgb(60, 86, 0)" stroke-opacity="0.5185326" stroke-linecap="round" stroke-linejoin="round"/>
    <path d="M 125.1990966796875 76.32962036132812 C 122.45072937011719 74.88153839111328 105.3041000366211 77.77605438232422 116.84088134765625 86.51972198486328 C 120.01708221435547 83.21569061279297 118.82942962646484 85.05579376220703 96.09319305419922 77.2332534790039" stroke-width="1.9544777870178223" fill="none" stroke="rgb(19, 14, 14)" stroke-opacity="0.52783775" stroke-linecap="round" stroke-linejoin="round"/>
    <path d="M 97.55659484863281 57.55702209472656 C 121.17985534667969 64.63727569580078 121.16510772705078 51.47909164428711 114.78447723388672 79.4426040649414" stroke-width="4.759150981903076" fill="none" stroke="rgb(0, 37, 74)" stroke-opacity="0.9925652" stroke-linecap="round" stroke-linejoin="round"/>
    <path d="M 96.24579620361328 94.29639434814453 C 99.90359497070312 103.73291015625 105.29375457763672 95.17489624023438 73.57584381103516 109.89603424072266" stroke-width="5.195008277893066" fill="none" stroke="rgb(18, 43, 32)" stroke-opacity="0.5160996" stroke-linecap="round" stroke-linejoin="round"/>
    <path d="M 34.675174713134766 147.6976776123047 C 36.89881134033203 146.17469787597656 48.803428649902344 133.64146423339844 42.94872283935547 126.05978393554688 C 44.07945251464844 104.16051483154297 61.0576171875 123.568115234375 44.0186653137207 105.58141326904297" stroke-width="2.5601003170013428" fill="none" stroke="rgb(19, 3, 37)" stroke-opacity="0.9517415" stroke-linecap="round" stroke-linejoin="round"/>
    <path d="M 137.29995727539062 179.0106201171875 C 123.04798126220703 191.15455627441406 125.45169067382812 199.31027221679688 126.96014404296875 186.5857696533203 C 124.09403228759766 181.75318908691406 100.9551010131836 169.03028869628906 98.60761260986328 170.75946044921875 C 109.20433044433594 203.46734619140625 112.7538070678711 207.69252014160156 125.77010345458984 198.7234649658203" stroke-width="2.071223020553589" fill="none" stroke="rgb(6, 32, 1)" stroke-opacity="0.41241354" stroke-linecap="round" stroke-linejoin="round"/>
    <path d="M 121.0718994140625 79.6551284790039 C 121.83954620361328 81.10839080810547 137.14169311523438 65.83959197998047 148.6321563720703 91.10028839111328" stroke-width="10.0" fill="none" stroke="rgb(122, 163, 0)" stroke-opacity="1.0" stroke-linecap="round" stroke-linejoin="round"/>
    <path d="M 160.87852478027344 50.84972381591797 C 131.91754150390625 56.59891891479492 135.0995635986328 52.545501708984375 155.2681884765625 22.140953063964844 C 144.84451293945312 49.35069274902344 145.0840301513672 50.0902214050293 156.32183837890625 44.64323425292969 C 165.29908752441406 56.31368637084961 166.90542602539062 37.82909393310547 177.07266235351562 46.79713439941406" stroke-width="5.564372539520264" fill="none" stroke="rgb(85, 255, 0)" stroke-opacity="1.0" stroke-linecap="round" stroke-linejoin="round"/>
    <path d="M 159.55447387695312 40.9974479675293 C 158.11700439453125 25.425954818725586 165.0123748779297 28.861238479614258 153.50228881835938 27.367664337158203 C 137.1676788330078 12.73667049407959 160.64633178710938 26.1901912689209 155.7017059326172 12.845191955566406" stroke-width="2.047593116760254" fill="none" stroke="rgb(53, 24, 0)" stroke-opacity="0.44615248" stroke-linecap="round" stroke-linejoin="round"/>
    <path d="M 76.37458801269531 52.34718704223633 C 86.66053009033203 72.7983627319336 87.0127182006836 74.33843994140625 61.22385787963867 80.70221710205078 C 43.30369567871094 64.71800231933594 51.461753845214844 86.14807891845703 48.11852264404297 77.30551147460938 C 57.357906341552734 68.07975769042969 58.747642517089844 72.54207611083984 54.31888198852539 66.10234832763672" stroke-width="1.293431282043457" fill="none" stroke="rgb(19, 58, 37)" stroke-opacity="0.37338912" stroke-linecap="round" stroke-linejoin="round"/>
    <path d="M 102.35388946533203 97.79934692382812 C 94.44791412353516 91.301513671875 86.33924865722656 92.35449981689453 79.95578002929688 101.34437561035156 C 96.49429321289062 88.30928039550781 105.13087463378906 77.25798797607422 87.86383056640625 74.32039642333984" stroke-width="8.286554336547852" fill="none" stroke="rgb(18, 83, 132)" stroke-opacity="0.12769999" stroke-linecap="round" stroke-linejoin="round"/>
    <path d="M 124.48487854003906 76.54061126708984 C 134.96522521972656 73.97593688964844 120.90816497802734 77.48367309570312 108.93465423583984 84.35579681396484 C 112.91166687011719 79.92940521240234 124.82613372802734 66.28016662597656 128.5167694091797 62.765296936035156 C 128.04490661621094 78.4539566040039 113.09896087646484 65.19926452636719 114.42632293701172 65.9707260131836" stroke-width="3.27011775970459" fill="none" stroke="rgb(54, 75, 3)" stroke-opacity="0.045936637" stroke-linecap="round" stroke-linejoin="round"/>
    <path d="M 102.9271240234375 99.88335418701172 C 88.49620819091797 79.40455627441406 93.00660705566406 71.17835235595703 111.7760238647461 76.92964935302734" stroke-width="3.269728660583496" fill="none" stroke="rgb(55, 126, 142)" stroke-opacity="0.3758603" stroke-linecap="round" stroke-linejoin="round"/>
    <path d="M 103.85247802734375 97.13267517089844 C 95.2893295288086 85.6006088256836 95.5750732421875 88.12399291992188 96.37920379638672 106.94784545898438" stroke-width="9.273797988891602" fill="none" stroke="rgb(138, 175, 195)" stroke-opacity="0.48488823" stroke-linecap="round" stroke-linejoin="round"/>
    <path d="M 101.30956268310547 111.38424682617188 C 108.0859603881836 119.89129638671875 93.76419067382812 99.48140716552734 83.92757415771484 120.31391143798828 C 95.95128631591797 120.1999740600586 101.55269622802734 116.56858825683594 101.57820129394531 129.32394409179688 C 96.33004760742188 128.73590087890625 87.4213638305664 133.51622009277344 88.15089416503906 122.1479263305664" stroke-width="5.481952667236328" fill="none" stroke="rgb(0, 0, 255)" stroke-opacity="1.0" stroke-linecap="round" stroke-linejoin="round"/>
    <path d="M 119.41712951660156 77.0658950805664 C 118.59639739990234 74.26417541503906 127.34223937988281 71.30705261230469 118.3260269165039 80.68867492675781 C 127.22154998779297 104.28562927246094 138.31222534179688 97.72291564941406 149.1694793701172 71.74239349365234" stroke-width="10.0" fill="none" stroke="rgb(144, 254, 0)" stroke-opacity="0.3840436" stroke-linecap="round" stroke-linejoin="round"/>
    <path d="M 100.2481689453125 101.68724822998047 C 115.9572982788086 95.6547622680664 93.42540740966797 117.42020416259766 118.78439331054688 97.59888458251953" stroke-width="6.328381061553955" fill="none" stroke="rgb(142, 142, 129)" stroke-opacity="0.6582768" stroke-linecap="round" stroke-linejoin="round"/>
    <path d="M 151.15725708007812 71.06089782714844 C 138.1040496826172 56.68870162963867 140.14781188964844 29.227970123291016 139.8256378173828 31.44623565673828 C 135.8411865234375 32.32221984863281 150.2811737060547 21.64335823059082 165.79661560058594 52.662967681884766" stroke-width="2.199704170227051" fill="none" stroke="rgb(18, 74, 0)" stroke-opacity="0.5753041" stroke-linecap="round" stroke-linejoin="round"/>
    <path d="M 127.00495910644531 60.52045440673828 C 132.76646423339844 76.35260009765625 139.87112426757812 72.79944610595703 130.53182983398438 74.56909942626953" stroke-width="8.070085525512695" fill="none" stroke="rgb(219, 193, 95)" stroke-opacity="0.53103626" stroke-linecap="round" stroke-linejoin="round"/>
    <path d="M 127.0770492553711 88.14688110351562 C 141.06886291503906 99.9384994506836 149.78265380859375 90.1379165649414 153.83663940429688 72.15426635742188 C 160.242431640625 66.00491333007812 185.14846801757812 85.12850952148438 161.15452575683594 63.737701416015625 C 155.8571014404297 67.06278228759766 158.59556579589844 85.81417846679688 133.79098510742188 71.15697479248047" stroke-width="1.5515328645706177" fill="none" stroke="rgb(4, 9, 0)" stroke-opacity="0.32388029" stroke-linecap="round" stroke-linejoin="round"/>
    <path d="M 118.22074127197266 55.42918395996094 C 83.26461029052734 58.62248229980469 72.47260284423828 60.92994689941406 95.75450897216797 73.60256958007812 C 73.91587829589844 82.13676452636719 72.6426010131836 88.49414825439453 75.23511505126953 79.82392883300781" stroke-width="8.191445350646973" fill="none" stroke="rgb(0, 136, 249)" stroke-opacity="0.29239407" stroke-linecap="round" stroke-linejoin="round"/>
    <path d="M 123.10728454589844 66.9607925415039 C 112.16100311279297 56.10956954956055 103.67083740234375 55.119693756103516 93.00495147705078 48.36439895629883" stroke-width="5.049263000488281" fill="none" stroke="rgb(0, 159, 224)" stroke-opacity="0.2803069" stroke-linecap="round" stroke-linejoin="round"/>
    <path d="M 146.83279418945312 174.8994903564453 C 139.20762634277344 186.19003295898438 145.29356384277344 176.82615661621094 121.1798095703125 165.55311584472656 C 105.47515869140625 172.6574249267578 124.07228088378906 166.6510467529297 115.88626861572266 161.07037353515625" stroke-width="7.636900424957275" fill="none" stroke="rgb(0, 3, 0)" stroke-opacity="1.0" stroke-linecap="round" stroke-linejoin="round"/>
    <path d="M 169.70333862304688 40.7771110534668 C 180.62100219726562 37.64370346069336 172.68228149414062 39.0828857421875 174.1114959716797 49.98142623901367 C 160.36985778808594 50.31716537475586 175.4753875732422 48.68479537963867 161.2762451171875 64.48848724365234" stroke-width="1.8757973909378052" fill="none" stroke="rgb(38, 121, 0)" stroke-opacity="1.0" stroke-linecap="round" stroke-linejoin="round"/>
    <path d="M 79.9629898071289 101.03612518310547 C 64.8480224609375 91.0382080078125 80.77117156982422 107.14958953857422 55.989505767822266 115.44200897216797" stroke-width="10.0" fill="none" stroke="rgb(5, 136, 255)" stroke-opacity="0.33481908" stroke-linecap="round" stroke-linejoin="round"/>
    <path d="M 142.8523712158203 69.33016204833984 C 137.4976043701172 94.7807846069336 137.14999389648438 92.7763442993164 153.57449340820312 96.9893569946289" stroke-width="2.0377657413482666" fill="none" stroke="rgb(0, 74, 0)" stroke-opacity="1.0" stroke-linecap="round" stroke-linejoin="round"/>
    <path d="M 211.4575958251953 178.1078338623047 C 217.82266235351562 160.93731689453125 226.26133728027344 159.029296875 222.5557403564453 150.31166076660156 C 228.58316040039062 130.29371643066406 232.88844299316406 113.25513458251953 229.14454650878906 115.57759094238281 C 235.447265625 133.33348083496094 243.86248779296875 139.4185791015625 243.31187438964844 140.10980224609375" stroke-width="1.6322238445281982" fill="none" stroke="rgb(60, 255, 45)" stroke-opacity="0.09241302" stroke-linecap="round" stroke-linejoin="round"/>
    <path d="M 43.37234878540039 201.1519012451172 C 34.890323638916016 175.7744903564453 43.748783111572266 184.1833953857422 31.1231689453125 178.8875732421875 C 35.31128692626953 170.43157958984375 22.762556076049805 178.73191833496094 27.307891845703125 174.30108642578125" stroke-width="1.3171372413635254" fill="none" stroke="rgb(205, 178, 208)" stroke-opacity="1.0" stroke-linecap="round" stroke-linejoin="round"/>
    <path d="M 45.97462844848633 13.076809883117676 C 31.59099769592285 27.723114013671875 39.24216079711914 27.99154281616211 55.58618927001953 35.93582534790039 C 46.05769729614258 0.6734163165092468 30.701831817626953 9.683624267578125 40.71318817138672 16.725223541259766" stroke-width="1.0" fill="none" stroke="rgb(128, 5, 53)" stroke-opacity="0.58236706" stroke-linecap="round" stroke-linejoin="round"/>
    <path d="M 139.33670043945312 3.9339232444763184 C 149.3104705810547 20.646928787231445 130.00416564941406 21.749902725219727 106.60441589355469 29.131406784057617" stroke-width="2.0661377906799316" fill="none" stroke="rgb(167, 253, 133)" stroke-opacity="0.09194577" stroke-linecap="round" stroke-linejoin="round"/>
    <path d="M 153.73609924316406 98.98701477050781 C 157.7922821044922 66.59192657470703 176.07733154296875 77.87419891357422 151.85836791992188 60.724815368652344" stroke-width="8.043952941894531" fill="none" stroke="rgb(28, 115, 206)" stroke-opacity="0.36387998" stroke-linecap="round" stroke-linejoin="round"/>
    <path d="M 161.49362182617188 188.83761596679688 C 142.21632385253906 196.919921875 152.33932495117188 215.48367309570312 140.17205810546875 207.44813537597656" stroke-width="1.3327077627182007" fill="none" stroke="rgb(40, 95, 37)" stroke-opacity="0.698175" stroke-linecap="round" stroke-linejoin="round"/>
    <path d="M 6.153990745544434 199.48683166503906 C 4.003992557525635 211.3025665283203 12.784306526184082 208.77980041503906 23.232521057128906 200.79879760742188 C 16.023653030395508 183.1121368408203 26.268665313720703 169.08645629882812 24.66321563720703 165.5293426513672 C 33.79206466674805 184.02536010742188 25.741100311279297 187.16334533691406 18.81499671936035 185.54525756835938" stroke-width="3.943659543991089" fill="none" stroke="rgb(197, 255, 177)" stroke-opacity="0.052820243" stroke-linecap="round" stroke-linejoin="round"/>
    <path d="M 144.12612915039062 79.66661071777344 C 133.6190643310547 70.4505844116211 132.3758544921875 55.22157669067383 141.24464416503906 59.8374137878418 C 132.3647918701172 68.24846649169922 147.01712036132812 72.24897766113281 159.01809692382812 59.93949508666992" stroke-width="2.1253011226654053" fill="none" stroke="rgb(114, 128, 0)" stroke-opacity="0.0" stroke-linecap="round" stroke-linejoin="round"/>
    <path d="M 78.27436828613281 43.04853820800781 C 63.52547073364258 53.4316291809082 74.64996337890625 45.71063232421875 53.534202575683594 32.74996566772461 C 62.801292419433594 37.74430847167969 59.4492073059082 57.20055389404297 58.91713333129883 54.91592025756836 C 49.66699981689453 55.77836227416992 62.5906982421875 58.199684143066406 55.07400894165039 64.98857116699219" stroke-width="1.0" fill="none" stroke="rgb(207, 10, 180)" stroke-opacity="0.72913116" stroke-linecap="round" stroke-linejoin="round"/>
    <path d="M 32.61064910888672 22.044591903686523 C 29.196266174316406 17.348360061645508 28.461183547973633 22.892515182495117 38.02496337890625 31.240896224975586 C 37.00121307373047 6.008286952972412 50.2536735534668 -8.721378326416016 59.994075775146484 24.03264617919922 C 80.66093444824219 19.105772018432617 77.3213119506836 -2.7933738231658936 98.59346008300781 0.13246563076972961" stroke-width="3.1036863327026367" fill="none" stroke="rgb(109, 255, 90)" stroke-opacity="0.057223845" stroke-linecap="round" stroke-linejoin="round"/>
    <path d="M 68.8837661743164 194.34243774414062 C 78.9620590209961 190.15367126464844 70.78241729736328 197.04563903808594 77.18708801269531 185.07901000976562 C 59.08783721923828 192.35452270507812 60.911460876464844 213.60073852539062 50.28517150878906 216.12945556640625" stroke-width="4.0729780197143555" fill="none" stroke="rgb(49, 44, 71)" stroke-opacity="0.2896962" stroke-linecap="round" stroke-linejoin="round"/>
    <path d="M 90.63560485839844 145.8529510498047 C 102.04190826416016 137.02056884765625 84.84880065917969 174.80467224121094 88.05784606933594 172.1292724609375 C 112.15718841552734 190.6739044189453 102.23133850097656 184.2243194580078 120.66783142089844 170.2139434814453 C 141.30072021484375 183.4188995361328 150.7233428955078 181.78346252441406 140.55931091308594 196.37020874023438" stroke-width="2.3991663455963135" fill="none" stroke="rgb(128, 87, 0)" stroke-opacity="1.0" stroke-linecap="round" stroke-linejoin="round"/>
    <path d="M 63.665733337402344 146.57716369628906 C 66.84426879882812 142.05389404296875 71.0630111694336 128.89996337890625 51.41552734375 143.71934509277344" stroke-width="3.8730640411376953" fill="none" stroke="rgb(157, 83, 0)" stroke-opacity="0.66348475" stroke-linecap="round" stroke-linejoin="round"/>
    <path d="M 86.0309829711914 130.37493896484375 C 77.3361587524414 115.77643585205078 93.50212860107422 128.49314880371094 88.31904602050781 118.65133666992188 C 70.29490661621094 139.94021606445312 100.52519989013672 137.67506408691406 104.54132843017578 138.57298278808594" stroke-width="5.129580497741699" fill="none" stroke="rgb(0, 0, 254)" stroke-opacity="1.0" stroke-linecap="round" stroke-linejoin="round"/>
    <path d="M 17.639144897460938 123.1570053100586 C -5.935437202453613 117.95882415771484 -11.476210594177246 120.07246398925781 -10.098559379577637 127.37067413330078 C -2.3896584510803223 125.70313262939453 9.72092056274414 120.71450805664062 6.961175918579102 122.35779571533203" stroke-width="3.935565233230591" fill="none" stroke="rgb(64, 65, 67)" stroke-opacity="0.34255242" stroke-linecap="round" stroke-linejoin="round"/>
    <path d="M 12.92286491394043 93.0971908569336 C 35.4356575012207 85.54105377197266 47.34236526489258 80.95844268798828 41.902889251708984 73.96720886230469 C 49.43456268310547 97.93235778808594 36.79620361328125 79.57884979248047 39.240875244140625 105.17926025390625 C 52.25391387939453 107.6930160522461 43.423797607421875 117.93888854980469 50.541709899902344 127.1972427368164" stroke-width="1.794037938117981" fill="none" stroke="rgb(151, 255, 100)" stroke-opacity="0.070776306" stroke-linecap="round" stroke-linejoin="round"/>
    <path d="M 120.44705963134766 187.12940979003906 C 126.25196075439453 193.44082641601562 125.22161102294922 198.61068725585938 143.19898986816406 200.04193115234375" stroke-width="10.0" fill="none" stroke="rgb(0, 149, 255)" stroke-opacity="0.35403135" stroke-linecap="round" stroke-linejoin="round"/>
    <path d="M 117.5006332397461 183.32809448242188 C 95.77306365966797 196.0034942626953 93.90973663330078 198.17266845703125 100.5126724243164 203.94361877441406" stroke-width="2.871692180633545" fill="none" stroke="rgb(191, 226, 197)" stroke-opacity="0.3691919" stroke-linecap="round" stroke-linejoin="round"/>
    <path d="M 171.4683380126953 110.15206146240234 C 164.36727905273438 104.40444946289062 160.1090545654297 86.05036926269531 177.21324157714844 76.00169372558594 C 179.62130737304688 81.24303436279297 169.1936492919922 67.86109924316406 176.94287109375 49.64195251464844" stroke-width="2.4380085468292236" fill="none" stroke="rgb(204, 251, 195)" stroke-opacity="0.1627924" stroke-linecap="round" stroke-linejoin="round"/>
    <path d="M 196.374755859375 212.79576110839844 C 186.035888671875 206.9796142578125 161.23265075683594 203.36695861816406 156.00440979003906 172.22129821777344" stroke-width="1.0" fill="none" stroke="rgb(139, 0, 127)" stroke-opacity="0.66093016" stroke-linecap="round" stroke-linejoin="round"/>
    <path d="M 219.53761291503906 199.8681182861328 C 197.49842834472656 182.18411254882812 201.16033935546875 190.41127014160156 200.21646118164062 218.75045776367188 C 188.659912109375 216.49960327148438 198.50857543945312 214.45791625976562 226.25743103027344 219.4128875732422 C 208.938720703125 240.3196258544922 189.83209228515625 241.24632263183594 188.29806518554688 246.28614807128906" stroke-width="3.814854383468628" fill="none" stroke="rgb(193, 255, 161)" stroke-opacity="0.043883223" stroke-linecap="round" stroke-linejoin="round"/>
    <path d="M 67.62789916992188 135.5242462158203 C 82.81988525390625 134.36891174316406 97.84486389160156 139.4925994873047 87.30281066894531 137.29965209960938 C 86.60183715820312 137.919677734375 87.85803985595703 122.4244613647461 85.75849151611328 144.54592895507812" stroke-width="2.9632580280303955" fill="none" stroke="rgb(32, 0, 9)" stroke-opacity="0.7260887" stroke-linecap="round" stroke-linejoin="round"/>
    <path d="M 28.558910369873047 150.173583984375 C 48.39491653442383 161.2696533203125 64.69772338867188 167.33226013183594 51.07623291015625 184.5906524658203 C 47.70376205444336 178.9082794189453 59.58441925048828 175.07650756835938 70.05091857910156 160.13662719726562 C 73.74568939208984 145.0204620361328 86.5283203125 148.24090576171875 62.582542419433594 151.70703125" stroke-width="2.3467772006988525" fill="none" stroke="rgb(56, 96, 7)" stroke-opacity="0.88652813" stroke-linecap="round" stroke-linejoin="round"/>
    <path d="M 209.64781188964844 158.75660705566406 C 216.8370819091797 181.00782775878906 222.61695861816406 200.09848022460938 236.33380126953125 215.17047119140625 C 234.69924926757812 198.12161254882812 240.4833984375 190.11788940429688 253.8376922607422 200.47906494140625 C 258.16290283203125 209.83251953125 244.66314697265625 203.624755859375 241.7897491455078 210.27713012695312" stroke-width="2.4245364665985107" fill="none" stroke="rgb(168, 255, 90)" stroke-opacity="0.024541097" stroke-linecap="round" stroke-linejoin="round"/>
    <path d="M 66.9827651977539 22.370563507080078 C 62.260581970214844 29.79068374633789 73.87374114990234 11.798836708068848 63.97202682495117 -5.47898006439209 C 61.93363952636719 16.58367919921875 75.9336166381836 5.932964324951172 66.98165130615234 16.297624588012695 C 70.73933410644531 26.8981990814209 55.117088317871094 14.77570629119873 47.05103302001953 34.81747817993164" stroke-width="1.0652658939361572" fill="none" stroke="rgb(242, 198, 224)" stroke-opacity="0.9038149" stroke-linecap="round" stroke-linejoin="round"/>
    <path d="M 107.62224578857422 224.56723022460938 C 109.88530731201172 229.69908142089844 118.89791107177734 246.79641723632812 109.58429718017578 235.03916931152344" stroke-width="1.0" fill="none" stroke="rgb(73, 161, 54)" stroke-opacity="0.24291186" stroke-linecap="round" stroke-linejoin="round"/>
    <path d="M 51.178218841552734 108.03482818603516 C 45.831111907958984 101.73329162597656 33.12010192871094 133.73577880859375 32.70414352416992 148.77032470703125 C 41.88888168334961 131.4389190673828 50.88499069213867 125.360595703125 46.873477935791016 125.52481842041016 C 52.12443161010742 129.83383178710938 58.42658996582031 137.488525390625 61.14778518676758 133.791748046875" stroke-width="10.0" fill="none" stroke="rgb(124, 185, 232)" stroke-opacity="0.29178643" stroke-linecap="round" stroke-linejoin="round"/>
    <path d="M 46.908504486083984 181.7615966796875 C 63.58481979370117 179.60968017578125 40.81056594848633 166.95008850097656 46.36789321899414 157.56326293945312" stroke-width="7.176670074462891" fill="none" stroke="rgb(154, 255, 104)" stroke-opacity="1.0" stroke-linecap="round" stroke-linejoin="round"/>
    <path d="M 209.16888427734375 -1.9175810813903809 C 209.59854125976562 26.015832901000977 210.09097290039062 33.779510498046875 209.38604736328125 41.98106002807617 C 209.7019805908203 18.061656951904297 218.59490966796875 32.21929931640625 201.0884552001953 27.46392250061035 C 197.837890625 34.44667434692383 202.02146911621094 27.06784439086914 206.35037231445312 10.730566024780273" stroke-width="2.832597494125366" fill="none" stroke="rgb(0, 0, 255)" stroke-opacity="1.0" stroke-linecap="round" stroke-linejoin="round"/>
    <path d="M 105.3485336303711 56.43782043457031 C 132.41319274902344 53.17205810546875 115.14179229736328 53.47780227661133 114.76058959960938 63.56568908691406 C 127.53451538085938 63.708709716796875 107.24079132080078 78.45817565917969 91.61107635498047 64.87596130371094 C 88.6475601196289 63.36445617675781 101.27810668945312 61.14045715332031 71.54146575927734 84.68665313720703" stroke-width="8.655275344848633" fill="none" stroke="rgb(23, 139, 255)" stroke-opacity="0.25442696" stroke-linecap="round" stroke-linejoin="round"/>
    <path d="M 189.8745880126953 150.5054931640625 C 207.57933044433594 162.29812622070312 197.4361572265625 135.63902282714844 217.6865234375 160.7989501953125" stroke-width="1.4774872064590454" fill="none" stroke="rgb(145, 174, 122)" stroke-opacity="0.37862185" stroke-linecap="round" stroke-linejoin="round"/>
    <path d="M 69.92999267578125 162.10464477539062 C 63.087276458740234 144.3968963623047 57.6524658203125 140.94253540039062 44.400047302246094 137.36935424804688" stroke-width="2.342517614364624" fill="none" stroke="rgb(54, 45, 0)" stroke-opacity="0.6899779" stroke-linecap="round" stroke-linejoin="round"/>
    <path d="M 207.00413513183594 153.5708770751953 C 189.86167907714844 160.00619506835938 207.78652954101562 150.7859344482422 228.79359436035156 157.48646545410156 C 224.0275115966797 148.3932647705078 239.146728515625 138.7498321533203 250.51458740234375 144.44749450683594" stroke-width="2.9890079498291016" fill="none" stroke="rgb(90, 53, 102)" stroke-opacity="0.2269038" stroke-linecap="round" stroke-linejoin="round"/>
    <path d="M 163.68946838378906 154.24037170410156 C 129.30789184570312 157.21839904785156 165.79248046875 154.21910095214844 144.1696319580078 155.7750244140625 C 139.29428100585938 142.59486389160156 128.8092498779297 176.6649627685547 137.8309783935547 163.11700439453125" stroke-width="2.463069200515747" fill="none" stroke="rgb(121, 124, 91)" stroke-opacity="0.67979205" stroke-linecap="round" stroke-linejoin="round"/>
    <path d="M 49.74385070800781 203.3006591796875 C 67.0249252319336 213.60862731933594 56.28434753417969 250.50804138183594 48.375308990478516 267.20062255859375 C 43.46148681640625 266.3544616699219 27.924354553222656 282.2173767089844 37.38600158691406 267.63525390625" stroke-width="10.0" fill="none" stroke="rgb(40, 40, 46)" stroke-opacity="0.2805723" stroke-linecap="round" stroke-linejoin="round"/>
    <path d="M 35.366485595703125 110.11668395996094 C 34.169124603271484 116.0316390991211 13.345131874084473 109.06461334228516 33.377113342285156 114.9417495727539" stroke-width="6.143100261688232" fill="none" stroke="rgb(184, 243, 177)" stroke-opacity="0.101208836" stroke-linecap="round" stroke-linejoin="round"/>
    <path d="M 208.09129333496094 141.26181030273438 C 204.59686279296875 134.10211181640625 206.66848754882812 147.08876037597656 224.7040557861328 138.30677795410156" stroke-width="2.4699113368988037" fill="none" stroke="rgb(128, 254, 45)" stroke-opacity="0.055261865" stroke-linecap="round" stroke-linejoin="round"/>
    <path d="M 29.068374633789062 129.86473083496094 C 11.328682899475098 99.87821960449219 10.736466407775879 110.77539825439453 44.62129211425781 93.37860870361328 C 53.99538040161133 78.73649597167969 40.51023864746094 86.7830810546875 44.795475006103516 103.6944580078125 C 18.511396408081055 100.81248474121094 36.808048248291016 102.07263946533203 34.84618377685547 100.7171630859375" stroke-width="6.872513771057129" fill="none" stroke="rgb(59, 41, 46)" stroke-opacity="0.19466287" stroke-linecap="round" stroke-linejoin="round"/>
    <path d="M 44.8645133972168 123.15167999267578 C 50.606285095214844 100.7994384765625 76.91458129882812 99.12287902832031 62.518272399902344 85.29742431640625" stroke-width="1.6731529235839844" fill="none" stroke="rgb(40, 88, 87)" stroke-opacity="0.33890063" stroke-linecap="round" stroke-linejoin="round"/>
    <path d="M 17.798357009887695 94.62278747558594 C 42.537506103515625 103.31184387207031 55.8942756652832 94.61800384521484 38.83641815185547 122.08360290527344 C 34.925559997558594 123.47210693359375 24.4561710357666 102.85025024414062 5.930784225463867 120.72248077392578 C -3.309230089187622 124.35672760009766 8.429031372070312 110.13670349121094 -8.784234046936035 117.0357894897461" stroke-width="1.1927804946899414" fill="none" stroke="rgb(205, 224, 202)" stroke-opacity="0.5731093" stroke-linecap="round" stroke-linejoin="round"/>
    <path d="M 53.203365325927734 160.2198944091797 C 59.349796295166016 157.34226989746094 52.860809326171875 151.22825622558594 46.3372917175293 133.84527587890625" stroke-width="3.706562042236328" fill="none" stroke="rgb(86, 59, 11)" stroke-opacity="0.46208474" stroke-linecap="round" stroke-linejoin="round"/>
    <path d="M 17.82263946533203 -0.9736261963844299 C 24.64020538330078 31.093597412109375 1.7818334102630615 7.616408348083496 18.147016525268555 9.601415634155273" stroke-width="3.8876736164093018" fill="none" stroke="rgb(0, 255, 0)" stroke-opacity="1.0" stroke-linecap="round" stroke-linejoin="round"/>
    <path d="M 177.698486328125 168.62411499023438 C 158.88128662109375 179.65072631835938 172.0117645263672 183.36460876464844 173.99801635742188 166.04403686523438 C 179.72288513183594 167.123291015625 189.3529052734375 173.1792449951172 180.1536102294922 168.12930297851562 C 184.58108520507812 160.86549377441406 163.8372344970703 174.36349487304688 183.23399353027344 169.12002563476562" stroke-width="2.287031650543213" fill="none" stroke="rgb(242, 254, 238)" stroke-opacity="0.04780707" stroke-linecap="round" stroke-linejoin="round"/>
    <path d="M 125.3935775756836 15.54739761352539 C 97.11722564697266 18.535371780395508 81.54518127441406 27.72504425048828 67.90140533447266 33.236976623535156 C 79.66753387451172 33.274452209472656 78.22159576416016 17.680076599121094 78.14015197753906 36.13340759277344" stroke-width="4.691089153289795" fill="none" stroke="rgb(246, 255, 199)" stroke-opacity="0.049912404" stroke-linecap="round" stroke-linejoin="round"/>
    <path d="M 17.840526580810547 201.56082153320312 C 26.371137619018555 204.4691619873047 11.281871795654297 223.8418426513672 7.406883239746094 237.84542846679688 C 0.6106534600257874 243.5487823486328 0.4672435522079468 245.4606475830078 -4.684648513793945 251.47958374023438" stroke-width="2.402089834213257" fill="none" stroke="rgb(138, 250, 89)" stroke-opacity="0.0" stroke-linecap="round" stroke-linejoin="round"/>
    <path d="M 109.16268157958984 3.7503252029418945 C 112.97895812988281 37.36365509033203 132.07032775878906 19.503232955932617 123.74109649658203 34.1686897277832" stroke-width="1.580410361289978" fill="none" stroke="rgb(181, 194, 196)" stroke-opacity="0.7831582" stroke-linecap="round" stroke-linejoin="round"/>
  </g>
</svg>
