<svg width="512" height="512" viewBox="0 0 512 512" fill="none" xmlns="http://www.w3.org/2000/svg">
<g clip-path="url(#clip0_310_28)">
<path d="M2.44014 73.8208C2.44116 48.2036 23.2431 27.4017 48.8602 27.4007L89.2499 27.416C114.863 27.4109 135.644 48.1924 135.644 73.8105L135.644 123.407L2.44013 123.418L2.44014 73.8208ZM135.644 146.566L135.593 385.481C135.593 396.138 132.929 406.693 127.805 416.018L84.2902 495.808C81.257 501.403 75.4109 504.893 68.5914 504.437C62.694 504.903 56.8419 501.43 53.7564 495.805L10.2537 416.033C5.16077 406.678 2.46062 396.159 2.46574 385.497L2.45038 146.587L135.644 146.566Z" fill="black"/>
<path d="M172.054 213.817C168.819 217.052 167 221.418 167 226V295C167 299.582 168.819 303.959 172.054 307.194C175.288 310.428 179.668 312.25 184.25 312.25H201.5V208.75H184.25C179.668 208.75 175.291 210.583 172.054 213.817ZM417.125 139.75H356.75V105.25C356.75 95.7517 348.998 88 339.5 88C330.002 88 322.25 95.7517 322.25 105.25V139.75H261.875C238.048 139.75 218.75 159.048 218.75 182.875V329.5C218.75 348.572 234.178 364 253.25 364H425.75C444.822 364 460.25 348.572 460.25 329.5V182.875C460.25 159.048 441.005 139.75 417.125 139.75ZM305 312.25H270.5V295H305V312.25ZM287.75 247.562C275.837 247.562 266.188 237.913 266.188 226C266.188 214.087 275.837 204.438 287.75 204.438C299.663 204.438 309.312 214.087 309.312 226C309.312 237.913 299.663 247.562 287.75 247.562ZM356.75 312.25H322.25V295H356.75V312.25ZM408.5 312.25H374V295H408.5V312.25ZM391.25 247.562C379.326 247.562 369.688 237.924 369.688 226C369.688 214.076 379.337 204.438 391.25 204.438C403.163 204.438 412.812 214.087 412.812 226C412.812 237.913 403.163 247.562 391.25 247.562ZM506.933 213.817C503.698 210.583 499.332 208.75 494.75 208.75H477.5V312.25H494.75C499.332 312.25 503.709 310.431 506.944 307.196C510.178 303.962 512 299.582 512 295V226C512 221.418 510.167 217.052 506.933 213.817Z" fill="black"/>
</g>
<defs>
<clipPath id="clip0_310_28">
<rect width="512" height="512" fill="white"/>
</clipPath>
</defs>
</svg>
