<svg width="366" height="80" viewBox="0 0 366 80" fill="none" xmlns="http://www.w3.org/2000/svg">
<path d="M365.74 71.6499L53.3281 71.6499L53.3281 8L365.74 7.99995L365.74 71.6499Z" fill="#F5AB2A"/>
<path d="M53.3175 71.6499L26.6675 55.7513L3.48664e-06 39.8421L26.6675 23.8993L53.3175 7.99999L53.3175 71.6499Z" fill="#EACB7B"/>
<path d="M53.3175 71.6481L26.6675 55.7495L1.20153e-06 39.8403L26.6675 34.332L53.3175 28.8672L53.3175 71.6481Z" fill="#FAE199"/>
<path d="M365.748 71.6573L53.3359 71.6574L53.3359 50.7891L365.748 50.789L365.748 71.6573Z" fill="#F5B831"/>
<path d="M26.6675 55.7505L1.7457e-06 39.8412L26.6675 23.8984L26.6675 55.7505Z" fill="#3A3A3B"/>
<path d="M26.6675 55.7534L6.03141e-07 39.8442L26.6675 34.3359L26.6675 55.7534Z" fill="#49494A"/>
</svg>

