<svg width="366" height="77" viewBox="0 0 366 77" fill="none" xmlns="http://www.w3.org/2000/svg">
<g clip-path="url(#clip0_560_143)">
<path d="M230.694 2.34161C232.661 2.24168 289.436 3.15687 289.436 3.15687L365.714 2.34161L369.667 76.5353C354.676 76.4572 339.692 75.8124 319.933 71.8513C287.422 65.3318 224.46 69.4698 168.867 67.0957C113.271 64.7217 56.6848 62.9117 39.8847 62.3831C23.0822 61.8546 1.92006 55.4463 1.4186 41.8616C0.605135 19.8245 17.0836 11.6407 109.881 7.73782C186.79 4.50528 221.165 2.82295 230.694 2.34161Z" fill="#D6A378"/>
<path d="M16.5759 26.3358C12.0855 26.9673 7.79523 28.0852 4.1109 29.6282C-1.71815 36.6753 -0.0129646 47.203 7.62257 53.6654C26.2391 56.4022 58.265 52.8953 64.9046 52.1139C54.3909 43.829 57.31 31.4834 63.4305 21.156C56.6656 21.8141 29.9486 24.4519 16.5759 26.3358Z" fill="#DFB497"/>
<path d="M64.9077 52.1174C65.7528 52.0214 66.2495 51.9628 66.2495 51.9628C66.2495 51.9628 81.0891 38.1572 65.1067 21.0023C65.1067 21.0023 64.4933 21.0586 63.413 21.1599C56.8869 31.4964 53.7573 43.8468 64.9077 52.1174Z" fill="#E9C1AC"/>
<path d="M75.7069 48.757C75.7069 48.757 80.6713 34.6384 74.833 25.0827C74.833 25.0827 86.9003 36.7161 75.7069 48.757Z" fill="#AF7E56"/>
<path d="M235.871 48.7902C235.871 48.7902 240.835 34.6716 234.997 25.1159C234.997 25.1159 247.064 36.7493 235.871 48.7902Z" fill="#AF7E56" fill-opacity="0.87"/>
<path d="M215.169 25.0744C215.169 25.0744 209.687 39.0002 215.169 48.7647C215.169 48.7647 203.539 36.6941 215.169 25.0744Z" fill="#AF7E56" fill-opacity="0.6"/>
</g>
</svg>
