<svg version="1.1" xmlns="http://www.w3.org/2000/svg" xmlns:xlink="http://www.w3.org/1999/xlink" width="1160" height="1160"><g fill="none" fill-rule="nonzero" stroke="#402f95" stroke-width="20" stroke-linecap="round" stroke-linejoin="round" stroke-miterlimit="10" stroke-dasharray="" stroke-dashoffset="0" font-family="none" font-weight="none" font-size="none" text-anchor="none" style="mix-blend-mode: normal"><path d="M481,285c0.33557,0 -0.90777,-0.32265 -1,0c-0.64782,2.26625 -0.73971,4.65739 -1,7c-0.40659,3.65927 -0.76296,7.32585 -1,11c-1.05321,16.32479 -1.37862,26.3409 -1,43c0.37389,16.45108 3.91623,32.67714 6,49c2.92309,22.89753 4.52825,46.23471 9,69c15.47135,78.76326 61.72534,155.73498 119,211c19.74569,19.05286 37.08741,35.71523 61,49c8.22617,4.57009 16.99732,8.26005 26,11c29.64695,9.02299 60.84471,-0.64108 83,-21c34.02037,-31.26196 59.5303,-72.15909 63,-119c0.68839,-9.29329 3.47324,-36.80938 1,-50c-4.50478,-24.02552 -21.44353,-44.29624 -47,-46c-6.9845,-0.46563 -14.05755,-0.8958 -21,0c-3.99457,0.51543 -9.72634,1.17901 -11,5c-4.10005,12.30016 -0.7443,30.34698 0,43c1.21002,20.57041 1.44903,43.7142 -9,62"/></g></svg>