<svg version="1.1" xmlns="http://www.w3.org/2000/svg" xmlns:xlink="http://www.w3.org/1999/xlink" width="1798.5" height="1798.5"><g fill="none" fill-rule="nonzero" stroke-opacity="0.233" stroke="#df8585" stroke-width="24" stroke-linecap="round" stroke-linejoin="round" stroke-miterlimit="10" stroke-dasharray="" stroke-dashoffset="0" font-family="none" font-weight="none" font-size="none" text-anchor="none" style="mix-blend-mode: normal"><path d="M828.25,286c1.66763,0 0.1661,3.34066 0,5c-0.62869,6.2806 -2.6566,8.6847 -6,15c-12.65945,23.9123 -26.41085,46.33275 -44,67c-36.52818,42.92062 -76.56506,81.29855 -106,130c-8.25096,13.65159 -13.93373,28.69922 -21,43c-21.29015,43.08721 -39.74554,87.54156 -58,132c-31.20884,76.00864 -62.02771,152.33226 -94,228c-8.41805,19.92271 -18.48025,39.12057 -27,59c-7.48562,17.46644 -13.54011,35.52255 -21,53c-10.66996,24.9982 -28.4045,48.21351 -37,74c-1.14018,3.42053 4,-6 6,-9c1.33333,-2 2.66667,-4 4,-6" opacity="0.75"/></g></svg>