<svg version="1.1" xmlns="http://www.w3.org/2000/svg" xmlns:xlink="http://www.w3.org/1999/xlink" width="1080" height="1080"><g fill="none" fill-rule="nonzero" stroke="#181818" stroke-width="none" stroke-linecap="round" stroke-linejoin="round" stroke-miterlimit="10" stroke-dasharray="" stroke-dashoffset="0" font-family="none" font-weight="none" font-size="none" text-anchor="none" style="mix-blend-mode: normal"><path d="M345.23987,305.11487c5.63847,0 -0.34699,11.26914 -0.41821,16.90717c-0.23156,18.33042 0,36.67706 0,55.00919c0,19.76851 0.73039,32.00328 -1.72333,51.09836c-6.26845,48.78165 -31.00901,94.20439 -55.84558,135.69391c-5.30693,8.86523 -11.85269,18.31408 -19.23715,25.69855c-3.43148,3.43148 -7.23095,6.48495 -11.05237,9.47607c-3.03308,2.37407 -8.40247,2.90292 -9.48532,6.5993c-0.98825,3.37347 18.76924,13.03054 22.69763,15.76282c19.737,13.72746 63.45224,42.08098 55.5101,70.32629c-2.52311,8.97316 -18.47968,6.99759 -25.73529,7.57355c-15.12474,1.20062 -31.14381,-1.80138 -46.10754,1.19025c-9.66039,1.93135 -19.25385,5.33513 -29.05331,7.27942" stroke-width="1" opacity="0.8"/><path d="M130.3226,305.68472c2.28912,0 -2.05741,4.08722 -2.98254,6.18106c-0.86602,1.96004 -1.65689,3.95436 -2.3851,5.96967c-3.96478,10.97246 -7.76056,20.80457 -10.15627,32.34375c-5.66624,27.29205 -10.9732,54.37747 -15.95128,81.80148c-6.99297,38.52396 -16.1379,76.46197 -25.02757,114.56339c-8.66133,37.12272 -13.53495,61.58954 -32.94118,93.92462" stroke-width="1" opacity="0.8"/><path d="M154.13232,211.92554c14.78331,0 32.1266,3.4599 46.55792,3.96599c55.9478,1.96201 112.12279,-0.57963 167.96414,-3.68106c19.10382,-1.06103 38.20393,-2.20809 57.2886,-3.57077c8.17401,-0.58364 16.33557,-1.38092 24.52203,-1.75092c4.73475,-0.21399 10.05779,-2.26937 14.21875,0c2.35553,1.2847 0.85811,5.37265 0.51013,8.03308c-1.0591,8.0971 -3.67299,18.07027 -5.55609,26.16269c-4.74173,20.37705 -15.52505,38.7825 -21.09833,58.72243c-3.6879,13.19446 -4.59999,28.82153 -5.56525,42.44485c-2.06517,29.14698 -8.96594,57.31968 -5.78125,87.11856c4.8989,45.83866 18.72896,88.57412 31.69116,132.47238c4.53388,15.35461 6.18789,32.4297 12.2702,47.16455" stroke-width="40" opacity="0.8"/></g></svg>