<svg version="1.1" xmlns="http://www.w3.org/2000/svg" xmlns:xlink="http://www.w3.org/1999/xlink" width="1000" height="1000"><g fill="none" fill-rule="nonzero" stroke="#402f95" stroke-width="20" stroke-linecap="round" stroke-linejoin="round" stroke-miterlimit="10" stroke-dasharray="" stroke-dashoffset="0" font-family="none" font-weight="none" font-size="none" text-anchor="none" style="mix-blend-mode: normal"><path d="M318,583c2.68742,0 0.55819,5.34915 1,8c0.27942,1.67655 0.63129,3.3408 1,5c1.91718,8.62733 4.68454,16.91272 10,24c17.48464,23.31285 44.36113,40.18056 70,53c27.89151,13.94575 59.67031,24.64735 90,32c21.98599,5.32994 43.31671,12.99853 66,15c77.31086,6.82155 147.00763,-9.43729 200,-70c11.41352,-13.04402 22.09123,-26.57382 33,-40c5.55579,-6.8379 16,-18.57846 16,-28"/><path d="M596,351c1.33433,0 0.00011,2.66567 0,4c-0.00022,2.66667 0,5.33333 0,8c0,4 0.33218,8.01382 0,12c-0.77964,9.35562 -3.51002,16.68759 -5,26c-1.23725,7.7328 -1.48164,25.29807 -2,31c-0.77371,8.51083 -3,17.42283 -3,26"/><path d="M514,347c2.33333,0 0,4.66667 0,7c0,7.33333 0,14.66667 0,22c0,37.9474 0.44843,78.75787 -7,116"/></g></svg>