<svg version="1.1" xmlns="http://www.w3.org/2000/svg" xmlns:xlink="http://www.w3.org/1999/xlink" width="2185.5" height="2185.5"><g fill="none" fill-rule="nonzero" stroke="none" stroke-width="none" stroke-linecap="none" stroke-linejoin="none" stroke-miterlimit="10" stroke-dasharray="" stroke-dashoffset="0" font-family="none" font-weight="none" font-size="none" text-anchor="none" style="mix-blend-mode: normal"><path d="M877.25,888.82196v-239.91162h692v239.91162z" data-paper-data="{&quot;state&quot;:&quot;moving&quot;}" stroke="#d2d2d2" stroke-width="2" stroke-linecap="butt" stroke-linejoin="miter"/><g transform="translate(345,-12)" stroke="#181818" stroke-width="12" stroke-linecap="round" stroke-linejoin="round"><path d="M532.25,898c5.73531,0 6.56523,-9.40695 10,-14c25.23287,-33.74203 47.56483,-69.90879 76,-101c46.38627,-50.71905 102.03132,-117.39504 179,-122c15.69524,-0.93903 33.2238,5.55029 44,17c14.29287,15.18617 112.65697,172.9338 127,195c5.99762,9.22711 8.58072,23.45744 19,27c10.27974,3.49511 21.37376,-4.97761 31,-10c36.54647,-19.06772 72.05464,-40.13579 107,-62c33.15967,-20.74696 62.95003,-47.82107 99,-63" opacity="0.75"/></g></g></svg>