<svg version="1.1" xmlns="http://www.w3.org/2000/svg" xmlns:xlink="http://www.w3.org/1999/xlink" width="1080" height="1080"><g fill="none" fill-rule="nonzero" stroke="#181818" stroke-width="12" stroke-linecap="round" stroke-linejoin="round" stroke-miterlimit="10" stroke-dasharray="" stroke-dashoffset="0" font-family="none" font-weight="none" font-size="none" text-anchor="none" style="mix-blend-mode: normal"><path d="M534.51526,744.2049c3.10453,0 5.17067,-3.44108 7.66785,-5.28558c10.90216,-8.05269 19.99071,-17.3674 31.77222,-24.44885c32.89566,-19.77242 70.06844,-38.3027 106.13153,-51.37683c40.89716,-14.82665 83.37801,-27.93708 125.66882,-38.60394c11.23542,-2.83387 22.67882,-5.10118 33.53693,-9.14679c1.83631,-0.68419 4.82327,-0.33077 5.45782,-2.18481c0.80615,-2.35539 -4.25645,-9.16896 -5.77716,-10.81482c-11.41665,-12.35616 -23.15189,-18.71581 -38.74683,-25.10437c-35.61385,-14.58942 -77.5814,-21.66132 -115.65649,-24.93213c-2.73859,-0.23526 -41.97218,-4.01563 -46.51978,-0.21008c-4.03989,3.38068 -5.63564,18.07391 -5.90735,22.79773c-0.62886,10.93291 -3.38753,41.75476 4.36963,49.8894c3.0459,3.19412 7.06144,5.29675 10.59216,7.94513" opacity="0.8"/></g></svg>