<svg version="1.1" xmlns="http://www.w3.org/2000/svg" xmlns:xlink="http://www.w3.org/1999/xlink" width="1080" height="1080"><g fill="none" fill-rule="nonzero" stroke="#181818" stroke-width="12" stroke-linecap="round" stroke-linejoin="round" stroke-miterlimit="10" stroke-dasharray="" stroke-dashoffset="0" font-family="none" font-weight="none" font-size="none" text-anchor="none" style="mix-blend-mode: normal"><path d="M371.95862,287.30237c2.14403,0 1.5933,3.97904 2.38971,5.96967c2.17076,5.42582 4.34101,10.85185 6.51196,16.27759c5.54232,13.85158 14.19862,24.79756 25.16083,34.87592c31.565,29.02001 81.43718,47.15086 122.23804,58.08823c66.36235,17.78956 134.2323,24.07629 202.78491,24.07629c24.79943,0 48.67987,1.55787 73.35938,3.23987c3.35771,0.22884 6.7449,-0.30561 10.0965,0c1.77886,0.1622 5.45506,-0.3716 5.17462,1.39249c-0.36407,2.29021 -3.88294,2.55904 -5.96509,3.57996c-4.65504,2.28247 -9.53515,4.0813 -14.21411,6.31433c-21.95992,10.48036 -41.77738,21.39684 -64.35663,31.09836c-22.19545,9.53661 -45.26363,16.89334 -67.62866,25.97885c-33.24388,13.50491 -63.60545,33.11522 -98.80054,41.23163c-37.84535,8.72758 -78.10313,5.60332 -116.19025,13.20313" opacity="0.99"/></g></svg>