<svg version="1.1" xmlns="http://www.w3.org/2000/svg" xmlns:xlink="http://www.w3.org/1999/xlink" width="1080" height="1080"><g fill="none" fill-rule="nonzero" stroke="#181818" stroke-width="12" stroke-linecap="round" stroke-linejoin="round" stroke-miterlimit="10" stroke-dasharray="" stroke-dashoffset="0" font-family="none" font-weight="none" font-size="none" text-anchor="none" style="mix-blend-mode: normal"><path d="M664.78485,658.85565c4.21545,0 -3.41775,-7.72665 -4.62775,-11.76471c-4.34653,-14.50541 -2.89726,-16.59854 -4.82074,-32.55975c-1.89903,-15.75832 -4.04185,-31.44914 -6.92485,-46.99591" opacity="0.99"/><path d="M427.39024,316.3028c-1.15399,7.85023 -1.80138,14.75658 -2.35716,18.24221c-5.8442,36.65279 -6.71681,73.3722 -8.71326,110.44577c-1.99489,37.04453 -5.53263,75.17454 -3.48346,112.284c0.9337,16.90876 12.28791,23.23483 28.27203,24.29688c4.95089,0.32896 23.623,-4.12795 19.28308,5.16083c-14.66422,31.38602 -51.11955,36.82411 -79.64154,48.4375c-26.78178,10.90482 -52.18731,27.05055 -72.53214,47.21051c-10.44302,10.34813 -31.39481,21.62401 -26.47058,38.58911" opacity="0.99"/><path opacity="0.99"/><path d="M401.68744,789.16815c32.87807,0 69.16181,15.63498 103.64435,17.76196c11.1996,0.69082 26.60969,1.79575 36.47058,-4.34741c18.45681,-11.49826 28.05108,-26.10818 40.07813,-43.75c9.4893,-13.91934 19.27162,-27.66364 28.01471,-42.06342c21.48804,-35.39057 41.94888,-73.3906 51.15808,-114.03033c1.85101,-8.1684 2.01922,-17.02921 1.5265,-25.46376" opacity="0.99"/><path d="M652.30508,573.22407c-0.80443,7.65929 0.75001,17.3774 4.6995,19.86871c12.46419,7.86231 22.22426,0.27085 33.33636,-4.17737c18.90335,-7.56708 38.53035,-10.59138 55.11951,-23.72699c44.88414,-35.54011 70.64435,-69.8815 95.87311,-120.3309c3.78882,-7.57641 10.12017,-15.50693 12.78033,-23.57538c6.34461,-19.24361 7.75929,-39.84033 11.07996,-59.71967" opacity="0.99"/><path opacity="0.99"/><path d="M895.19849,177.88602c1.99089,0 0.00017,3.97878 0,5.96967c-0.00076,9.10635 -5.42214,17.72575 -11.17187,24.75185c-12.01147,14.67787 -35.61453,22.81374 -52.89062,28.0101c-4.51999,1.35954 -9.06388,2.61605 -13.62739,3.78702" opacity="0.99"/></g></svg>