<svg version="1.1" xmlns="http://www.w3.org/2000/svg" xmlns:xlink="http://www.w3.org/1999/xlink" width="1080" height="1080"><g fill="none" fill-rule="nonzero" stroke="none" stroke-width="none" stroke-linecap="round" stroke-linejoin="round" stroke-miterlimit="10" stroke-dasharray="" stroke-dashoffset="0" font-family="none" font-weight="none" font-size="none" text-anchor="none" style="mix-blend-mode: normal"><g stroke-width="19.28572"><g><path d="M261.02753,752.14673c4.56281,0.1431 9.12561,0.28619 13.80011,1.36926c4.6745,1.08307 9.46069,3.10612 21.54599,0c12.0853,-3.10612 31.46971,-11.3414 62.25122,-26.36279c30.78151,-15.02139 72.96011,-36.8289 98.496,-53.06042c25.53589,-16.23153 34.42907,-26.88707 22.302,-42.05524c-12.12707,-15.16817 -45.2744,-34.84895 -64.19519,-52.81201c-18.92079,-17.96306 -23.61505,-34.2084 -24.93723,-52.3692c-1.32217,-18.16081 0.72775,-38.23708 1.86841,-50.67358c1.14066,-12.4365 1.37206,-17.23323 4.1904,-18.5976c2.81834,-1.36437 8.2236,0.70362 12.92761,-0.29163c4.70401,-0.99524 8.70676,-5.05372 16.40521,1.49042c7.69845,6.54413 19.09261,23.69088 72.99719,2.8728c53.90458,-20.81807 150.31957,-79.60096 193.05005,-111.98523c42.73048,-32.38427 31.77643,-38.36991 20.82239,-44.35556c-10.95404,-5.98565 -3.86762,-10.64514 3.21881,-15.30463" stroke="#1a1a15"/><path d="M711.37787,-640.17627c-5.0307,-18.95911 33.48334,-3.9043 42.63354,-9.43268" stroke-opacity="0.13134" stroke="#974d42"/><path d="M566.53638,-673.26306c26.7099,52.86749 -14.3468,61.72314 5.99756,32.59985" stroke-opacity="0.64663" stroke="#81ce90"/><path d="M740.20697,-771.86963c23.43903,44.42352 55.43494,-4.0011 93.63239,-50.40967" stroke-opacity="0.03265" stroke="#82089f"/><path d="M751.04785,-681.54718c20.95365,-9.07101 41.9073,-18.14202 47.61169,-18.76605c5.7044,-0.62403 -3.84046,7.19891 -13.38531,15.02185c-9.54486,7.82294 -32.28402,2.77509 -55.02319,-2.27277" stroke-opacity="0.71256" stroke="#31cfdf"/><path d="M765.60504,-691.00507c41.459,-5.92588 82.91801,-11.85177 124.37701,-17.77765c41.459,-5.92588 -17.79433,14.00663 -77.04767,33.93915" stroke-opacity="0.22621" stroke="#a8eae1"/><path d="M365.86636,-809.24396c-35.65933,-5.59654 -71.31866,-11.19307 -106.978,-16.78961c-35.65933,-5.59654 -14.46388,-2.00762 6.73157,1.5813" stroke-opacity="0.12231" stroke="#3d13da"/><path d="M774.14502,-690.70532c12.04083,-50.29251 24.08167,-100.58502 41.22638,-117.90881c17.14471,-17.32379 39.39331,-1.67886 61.64191,13.96606c22.2486,15.64493 -10.12134,11.81587 -42.49127,7.98682" stroke-opacity="0.38188" stroke="#f9c41a"/><path d="M890.95978,-745.42761c-11.37781,25.32446 -22.75562,50.64893 -34.13342,75.97339c-11.37781,25.32446 -1.66516,-3.36292 8.04749,-32.05029" stroke-opacity="0.50847" stroke="#93c692"/><path d="M432.40869,-632.4093c34.63772,21.4348 69.27544,42.86961 97.56116,35.01648c28.28572,-7.85313 50.21943,-44.99419 72.15314,-82.13525c21.93371,-37.14106 36.8067,-48.99747 51.67969,-60.85388" stroke-opacity="0.80408" stroke="#030e7d"/><path d="M543.31659,-660.89056c-16.15937,-24.33163 -32.31874,-48.66326 -31.4696,-76.2215c0.84913,-27.55824 18.70676,-58.34308 36.56439,-89.12793c17.85763,-30.78485 -17.38861,32.19226 -52.63486,95.16937" stroke-opacity="0.77532" stroke="#e497ae"/><path d="M703.37396,-733.7348c52.93427,-2.58203 31.34442,17.90912 -17.21967,-33.49176" stroke-opacity="0.51529" stroke="#4bd7d8"/><path d="M614.42133,-761.28583c26.2104,-20.04712 52.42081,-40.09424 41.05353,-59.72943c-11.36728,-19.63519 -60.31224,-38.85846 -109.2572,-58.08173c-48.94496,-19.22327 -4.48856,-27.13718 39.96783,-35.05109" stroke-opacity="0.54226" stroke="#f19ba6"/><path d="M493.91446,-768.00513c15.31469,-11.31708 30.62938,-22.63417 16.80099,-23.0105c-13.82839,-0.37633 -56.79986,10.18808 -99.77133,20.7525c-42.97147,10.56442 -41.49468,0.63872 -40.01788,-9.28699" stroke-opacity="0.46235" stroke="#9789c6"/><path d="M578.56787,-767.02167c-16.28055,17.71677 -32.5611,35.43354 -41.95856,50.40826c-9.39746,14.97472 -11.91183,27.20739 -14.42621,39.44006c-2.51437,12.23267 -15.29114,12.57004 -28.0679,12.90741" stroke-opacity="0.18558" stroke="#314cb5"/><path d="M716.21826,-798.78125c-2.21157,-14.71885 -4.42314,-29.4377 -6.6347,-44.15656c-2.21157,-14.71885 5.9403,-17.79525 14.09216,-20.87164" stroke-opacity="0.59932" stroke="#ec289b"/><path d="M883.5307,-831.52466c37.00104,-12.40051 76.35449,-43.64471 38.31256,-41.84491" stroke-opacity="0.9743" stroke="#0dfb0a"/><path d="M760.80072,-802.9715c34.01235,37.35258 68.0247,74.70516 102.03705,112.05774c34.01235,37.35258 20.3675,16.28676 6.72266,-4.77905" stroke-opacity="0.16142" stroke="#9e214c"/><path d="M550.10272,-803.29834c12.57296,-25.06358 25.14591,-50.12716 37.71887,-75.19073c12.57296,-25.06358 -17.7538,-55.38744 -48.08057,-85.7113" stroke-opacity="0.31364" stroke="#f8a660"/><path d="M895.64496,-831.97778c49.68335,5.90173 24.98676,15.49548 8.60822,-26.82898" stroke-opacity="0.13529" stroke="#4a7bab"/><path d="M403.96332,-641.46796c8.75905,29.10007 17.5181,58.20014 33.34244,60.15778c15.82434,1.95763 38.71397,-23.22718 61.60361,-48.41199c22.88963,-25.18481 -8.13569,-14.32214 -39.16101,-3.45947" stroke-opacity="0.79071" stroke="#6a3089"/><path d="M592.53198,-690.90399c-4.62693,5.11902 -9.25387,10.23804 -13.8808,15.35706c-4.62693,5.11902 49.06562,-23.68729 102.75818,-52.49359" stroke-opacity="0.19943" stroke="#b21ec8"/><path d="M421.89484,-722.86694c-44.99423,-8.27612 -26.95844,-43.15314 -62.08328,-66.76367" stroke-opacity="0.89365" stroke="#a3aee2"/><path d="M641.34387,-822.11017c17.58105,2.95054 35.16211,5.90108 52.74316,8.85162c17.58105,2.95054 -5.62711,38.079 -28.83527,73.20746" stroke-opacity="0.70627" stroke="#0aa102"/><path d="M519.7514,-793.3399c26.8703,35.45909 53.7406,70.91817 60.38739,67.08636c6.64679,-3.83181 -6.92993,-46.95451 -20.50665,-90.07721c-13.57672,-43.1227 -38.78513,-12.7942 -63.99353,17.5343" stroke-opacity="0.39132" stroke="#9487f8"/><path d="M538.16064,-757.43634c-13.90306,-11.8325 -27.80611,-23.665 -41.70917,-35.4975c-13.90306,-11.8325 8.60319,-10.64095 31.10944,-9.4494" stroke-opacity="0.74377" stroke="#5db373"/><path d="M865.00208,-720.3924c13.9834,-21.44568 6.38293,29.61163 -43.52313,-18.41425" stroke-opacity="0.93673" stroke="#8ca6be"/><path d="M363.26068,-770.12976c14.94351,-32.93014 29.88702,-65.86027 44.83054,-98.79041c14.94351,-32.93014 25.19572,-0.61064 35.44794,31.70886" stroke-opacity="0.81745" stroke="#e61300"/><path d="M530.66846,-631.62292c-12.01337,-52.27472 -44.0687,-80.30688 -36.70602,-62.81415" stroke-opacity="0.42409" stroke="#0b2ead"/><path d="M634.97577,-787.52136c-14.40863,16.80072 -28.81726,33.60144 -43.22589,50.40216c-14.40863,16.80072 54.7168,-2.70273 123.84222,-22.20618" stroke-opacity="0.80019" stroke="#c3899b"/><path d="M632.026,-779.72034c2.60697,12.33354 5.21395,24.66707 7.82092,37.00061c2.60697,12.33354 76.79281,-7.36033 150.97864,-27.0542" stroke-opacity="0.65101" stroke="#142c7e"/><path d="M643.38934,-776.91772c-1.81828,-3.76949 -3.63656,-7.53898 -5.45483,-11.30847c-1.81828,-3.76949 2.69898,-14.09492 7.21625,-24.42035" stroke-opacity="0.89654" stroke="#39fb98"/><path d="M839.7467,-671.21631c46.87573,48.11951 97.39252,43.13629 57.3031,43.33771" stroke-opacity="0.86479" stroke="#241aa3"/></g></g><g stroke-width="19.28572"><g><path d="M259.56589,753.34332c5.79337,-1.52792 11.58675,-3.05584 17.05557,-1.62128c5.46882,1.43457 10.61309,5.83162 21.54605,3.58783c10.93296,-2.2438 27.6546,-11.12844 58.66364,-26.36285c31.00903,-15.23441 76.30545,-36.81858 102.08359,-53.06036c25.77814,-16.24178 32.03799,-27.14117 18.71426,-42.0553c-13.32373,-14.91413 -46.23103,-33.84301 -64.19513,-52.81195c-17.9641,-18.96894 -20.985,-37.97796 -21.3508,-55.95654c-0.3658,-17.97858 1.92348,-34.92674 1.86966,-47.08627c-0.05382,-12.15954 -2.45076,-19.53045 0.60263,-22.1853c3.05339,-2.65485 11.55711,-0.59363 16.51529,-0.29163c4.95818,0.302 6.37083,-1.15521 12.8176,5.07819c6.44677,6.23339 17.92766,20.15739 72.99716,-0.71503c55.0695,-20.87241 153.72762,-76.54124 196.63779,-108.39743c42.91017,-31.85619 30.07239,-39.89974 17.23462,-47.9433c-12.83778,-8.04355 -3.01584,-9.88259 6.80609,-11.72162" stroke="#181c13"/><path d="M711.37787,-640.17627c-5.0307,-18.95911 33.48334,-3.9043 42.63354,-9.43268" stroke-opacity="0.13134" stroke="#974d42"/><path d="M566.53638,-673.26306c26.7099,52.86749 -14.3468,61.72314 5.99756,32.59985" stroke-opacity="0.64663" stroke="#81ce90"/><path d="M740.20697,-771.86963c23.43903,44.42352 55.43494,-4.0011 93.63239,-50.40967" stroke-opacity="0.03265" stroke="#82089f"/><path d="M751.04785,-681.54718c20.95365,-9.07101 41.9073,-18.14202 47.61169,-18.76605c5.7044,-0.62403 -3.84046,7.19891 -13.38531,15.02185c-9.54486,7.82294 -32.28402,2.77509 -55.02319,-2.27277" stroke-opacity="0.71256" stroke="#31cfdf"/><path d="M765.60504,-691.00507c41.459,-5.92588 82.91801,-11.85177 124.37701,-17.77765c41.459,-5.92588 -17.79433,14.00663 -77.04767,33.93915" stroke-opacity="0.22621" stroke="#a8eae1"/><path d="M365.86636,-809.24396c-35.65933,-5.59654 -71.31866,-11.19307 -106.978,-16.78961c-35.65933,-5.59654 -14.46388,-2.00762 6.73157,1.5813" stroke-opacity="0.12231" stroke="#3d13da"/><path d="M774.14502,-690.70532c12.04083,-50.29251 24.08167,-100.58502 41.22638,-117.90881c17.14471,-17.32379 39.39331,-1.67886 61.64191,13.96606c22.2486,15.64493 -10.12134,11.81587 -42.49127,7.98682" stroke-opacity="0.38188" stroke="#f9c41a"/><path d="M890.95978,-745.42761c-11.37781,25.32446 -22.75562,50.64893 -34.13342,75.97339c-11.37781,25.32446 -1.66516,-3.36292 8.04749,-32.05029" stroke-opacity="0.50847" stroke="#93c692"/><path d="M432.40869,-632.4093c34.63772,21.4348 69.27544,42.86961 97.56116,35.01648c28.28572,-7.85313 50.21943,-44.99419 72.15314,-82.13525c21.93371,-37.14106 36.8067,-48.99747 51.67969,-60.85388" stroke-opacity="0.80408" stroke="#030e7d"/><path d="M543.31659,-660.89056c-16.15937,-24.33163 -32.31874,-48.66326 -31.4696,-76.2215c0.84913,-27.55824 18.70676,-58.34308 36.56439,-89.12793c17.85763,-30.78485 -17.38861,32.19226 -52.63486,95.16937" stroke-opacity="0.77532" stroke="#e497ae"/><path d="M703.37396,-733.7348c52.93427,-2.58203 31.34442,17.90912 -17.21967,-33.49176" stroke-opacity="0.51529" stroke="#4bd7d8"/><path d="M614.42133,-761.28583c26.2104,-20.04712 52.42081,-40.09424 41.05353,-59.72943c-11.36728,-19.63519 -60.31224,-38.85846 -109.2572,-58.08173c-48.94496,-19.22327 -4.48856,-27.13718 39.96783,-35.05109" stroke-opacity="0.54226" stroke="#f19ba6"/><path d="M493.91446,-768.00513c15.31469,-11.31708 30.62938,-22.63417 16.80099,-23.0105c-13.82839,-0.37633 -56.79986,10.18808 -99.77133,20.7525c-42.97147,10.56442 -41.49468,0.63872 -40.01788,-9.28699" stroke-opacity="0.46235" stroke="#9789c6"/><path d="M578.56787,-767.02167c-16.28055,17.71677 -32.5611,35.43354 -41.95856,50.40826c-9.39746,14.97472 -11.91183,27.20739 -14.42621,39.44006c-2.51437,12.23267 -15.29114,12.57004 -28.0679,12.90741" stroke-opacity="0.18558" stroke="#314cb5"/><path d="M716.21826,-798.78125c-2.21157,-14.71885 -4.42314,-29.4377 -6.6347,-44.15656c-2.21157,-14.71885 5.9403,-17.79525 14.09216,-20.87164" stroke-opacity="0.59932" stroke="#ec289b"/><path d="M883.5307,-831.52466c37.00104,-12.40051 76.35449,-43.64471 38.31256,-41.84491" stroke-opacity="0.9743" stroke="#0dfb0a"/><path d="M760.80072,-802.9715c34.01235,37.35258 68.0247,74.70516 102.03705,112.05774c34.01235,37.35258 20.3675,16.28676 6.72266,-4.77905" stroke-opacity="0.16142" stroke="#9e214c"/><path d="M550.10272,-803.29834c12.57296,-25.06358 25.14591,-50.12716 37.71887,-75.19073c12.57296,-25.06358 -17.7538,-55.38744 -48.08057,-85.7113" stroke-opacity="0.31364" stroke="#f8a660"/><path d="M895.64496,-831.97778c49.68335,5.90173 24.98676,15.49548 8.60822,-26.82898" stroke-opacity="0.13529" stroke="#4a7bab"/><path d="M403.96332,-641.46796c8.75905,29.10007 17.5181,58.20014 33.34244,60.15778c15.82434,1.95763 38.71397,-23.22718 61.60361,-48.41199c22.88963,-25.18481 -8.13569,-14.32214 -39.16101,-3.45947" stroke-opacity="0.79071" stroke="#6a3089"/><path d="M592.53198,-690.90399c-4.62693,5.11902 -9.25387,10.23804 -13.8808,15.35706c-4.62693,5.11902 49.06562,-23.68729 102.75818,-52.49359" stroke-opacity="0.19943" stroke="#b21ec8"/><path d="M421.89484,-722.86694c-44.99423,-8.27612 -26.95844,-43.15314 -62.08328,-66.76367" stroke-opacity="0.89365" stroke="#a3aee2"/><path d="M641.34387,-822.11017c17.58105,2.95054 35.16211,5.90108 52.74316,8.85162c17.58105,2.95054 -5.62711,38.079 -28.83527,73.20746" stroke-opacity="0.70627" stroke="#0aa102"/><path d="M519.7514,-793.3399c26.8703,35.45909 53.7406,70.91817 60.38739,67.08636c6.64679,-3.83181 -6.92993,-46.95451 -20.50665,-90.07721c-13.57672,-43.1227 -38.78513,-12.7942 -63.99353,17.5343" stroke-opacity="0.39132" stroke="#9487f8"/><path d="M538.16064,-757.43634c-13.90306,-11.8325 -27.80611,-23.665 -41.70917,-35.4975c-13.90306,-11.8325 8.60319,-10.64095 31.10944,-9.4494" stroke-opacity="0.74377" stroke="#5db373"/><path d="M865.00208,-720.3924c13.9834,-21.44568 6.38293,29.61163 -43.52313,-18.41425" stroke-opacity="0.93673" stroke="#8ca6be"/><path d="M363.26068,-770.12976c14.94351,-32.93014 29.88702,-65.86027 44.83054,-98.79041c14.94351,-32.93014 25.19572,-0.61064 35.44794,31.70886" stroke-opacity="0.81745" stroke="#e61300"/><path d="M530.66846,-631.62292c-12.01337,-52.27472 -44.0687,-80.30688 -36.70602,-62.81415" stroke-opacity="0.42409" stroke="#0b2ead"/><path d="M634.97577,-787.52136c-14.40863,16.80072 -28.81726,33.60144 -43.22589,50.40216c-14.40863,16.80072 54.7168,-2.70273 123.84222,-22.20618" stroke-opacity="0.80019" stroke="#c3899b"/><path d="M632.026,-779.72034c2.60697,12.33354 5.21395,24.66707 7.82092,37.00061c2.60697,12.33354 76.79281,-7.36033 150.97864,-27.0542" stroke-opacity="0.65101" stroke="#142c7e"/><path d="M643.38934,-776.91772c-1.81828,-3.76949 -3.63656,-7.53898 -5.45483,-11.30847c-1.81828,-3.76949 2.69898,-14.09492 7.21625,-24.42035" stroke-opacity="0.89654" stroke="#39fb98"/><path d="M839.7467,-671.21631c46.87573,48.11951 97.39252,43.13629 57.3031,43.33771" stroke-opacity="0.86479" stroke="#241aa3"/></g></g><g><g><path d="M257.92795,752.05475c5.88505,-2.27527 11.7701,-4.55054 17.97226,-2.05121c6.20216,2.49933 12.72143,9.77325 23.21527,7.35638c10.49384,-2.41687 24.96225,-14.52453 56.07324,-29.86237c31.11099,-15.33783 78.86457,-33.90583 105.55222,-49.77856c26.68765,-15.87273 32.30937,-29.05019 17.92236,-44.1795c-14.387,-15.12931 -48.78273,-32.21047 -67.29687,-50.47626c-18.51414,-18.26579 -21.14669,-37.71622 -20.82028,-56.51788c0.32641,-18.80166 3.61179,-36.95456 4.19443,-49.20465c0.58264,-12.25009 -1.53747,-18.59738 0.84259,-21.27814c2.38006,-2.68076 9.26029,-1.695 14.22916,-1.13821c4.96887,0.55679 8.02638,0.68459 15.00024,7.14938c6.97386,6.46479 17.86408,19.26656 72.47937,-2.33881c54.61529,-21.60537 152.95566,-77.61787 195.7113,-109.25906c42.75564,-31.64119 29.92656,-38.91106 17.09747,-46.18094c-12.82908,-7.26987 -1.70571,-9.11129 9.41766,-10.9527" stroke="#171e11" stroke-width="19.85476"/><path d="M711.37787,-640.17627c-5.0307,-18.95911 33.48334,-3.9043 42.63354,-9.43268" stroke-opacity="0.13134" stroke="#974d42" stroke-width="19.28572"/><path d="M566.53638,-673.26306c26.7099,52.86749 -14.3468,61.72314 5.99756,32.59985" stroke-opacity="0.64663" stroke="#81ce90" stroke-width="19.28572"/><path d="M740.20697,-771.86963c23.43903,44.42352 55.43494,-4.0011 93.63239,-50.40967" stroke-opacity="0.03265" stroke="#82089f" stroke-width="19.28572"/><path d="M751.04785,-681.54718c20.95365,-9.07101 41.9073,-18.14202 47.61169,-18.76605c5.7044,-0.62403 -3.84046,7.19891 -13.38531,15.02185c-9.54486,7.82294 -32.28402,2.77509 -55.02319,-2.27277" stroke-opacity="0.71256" stroke="#31cfdf" stroke-width="19.28572"/><path d="M765.60504,-691.00507c41.459,-5.92588 82.91801,-11.85177 124.37701,-17.77765c41.459,-5.92588 -17.79433,14.00663 -77.04767,33.93915" stroke-opacity="0.22621" stroke="#a8eae1" stroke-width="19.28572"/><path d="M365.86636,-809.24396c-35.65933,-5.59654 -71.31866,-11.19307 -106.978,-16.78961c-35.65933,-5.59654 -14.46388,-2.00762 6.73157,1.5813" stroke-opacity="0.12231" stroke="#3d13da" stroke-width="19.28572"/><path d="M774.14502,-690.70532c12.04083,-50.29251 24.08167,-100.58502 41.22638,-117.90881c17.14471,-17.32379 39.39331,-1.67886 61.64191,13.96606c22.2486,15.64493 -10.12134,11.81587 -42.49127,7.98682" stroke-opacity="0.38188" stroke="#f9c41a" stroke-width="19.28572"/><path d="M890.95978,-745.42761c-11.37781,25.32446 -22.75562,50.64893 -34.13342,75.97339c-11.37781,25.32446 -1.66516,-3.36292 8.04749,-32.05029" stroke-opacity="0.50847" stroke="#93c692" stroke-width="19.28572"/><path d="M432.40869,-632.4093c34.63772,21.4348 69.27544,42.86961 97.56116,35.01648c28.28572,-7.85313 50.21943,-44.99419 72.15314,-82.13525c21.93371,-37.14106 36.8067,-48.99747 51.67969,-60.85388" stroke-opacity="0.80408" stroke="#030e7d" stroke-width="19.28572"/><path d="M543.31659,-660.89056c-16.15937,-24.33163 -32.31874,-48.66326 -31.4696,-76.2215c0.84913,-27.55824 18.70676,-58.34308 36.56439,-89.12793c17.85763,-30.78485 -17.38861,32.19226 -52.63486,95.16937" stroke-opacity="0.77532" stroke="#e497ae" stroke-width="19.28572"/><path d="M703.37396,-733.7348c52.93427,-2.58203 31.34442,17.90912 -17.21967,-33.49176" stroke-opacity="0.51529" stroke="#4bd7d8" stroke-width="19.28572"/><path d="M614.42133,-761.28583c26.2104,-20.04712 52.42081,-40.09424 41.05353,-59.72943c-11.36728,-19.63519 -60.31224,-38.85846 -109.2572,-58.08173c-48.94496,-19.22327 -4.48856,-27.13718 39.96783,-35.05109" stroke-opacity="0.54226" stroke="#f19ba6" stroke-width="19.28572"/><path d="M493.91446,-768.00513c15.31469,-11.31708 30.62938,-22.63417 16.80099,-23.0105c-13.82839,-0.37633 -56.79986,10.18808 -99.77133,20.7525c-42.97147,10.56442 -41.49468,0.63872 -40.01788,-9.28699" stroke-opacity="0.46235" stroke="#9789c6" stroke-width="19.28572"/><path d="M578.56787,-767.02167c-16.28055,17.71677 -32.5611,35.43354 -41.95856,50.40826c-9.39746,14.97472 -11.91183,27.20739 -14.42621,39.44006c-2.51437,12.23267 -15.29114,12.57004 -28.0679,12.90741" stroke-opacity="0.18558" stroke="#314cb5" stroke-width="19.28572"/><path d="M716.21826,-798.78125c-2.21157,-14.71885 -4.42314,-29.4377 -6.6347,-44.15656c-2.21157,-14.71885 5.9403,-17.79525 14.09216,-20.87164" stroke-opacity="0.59932" stroke="#ec289b" stroke-width="19.28572"/><path d="M883.5307,-831.52466c37.00104,-12.40051 76.35449,-43.64471 38.31256,-41.84491" stroke-opacity="0.9743" stroke="#0dfb0a" stroke-width="19.28572"/><path d="M760.80072,-802.9715c34.01235,37.35258 68.0247,74.70516 102.03705,112.05774c34.01235,37.35258 20.3675,16.28676 6.72266,-4.77905" stroke-opacity="0.16142" stroke="#9e214c" stroke-width="19.28572"/><path d="M550.10272,-803.29834c12.57296,-25.06358 25.14591,-50.12716 37.71887,-75.19073c12.57296,-25.06358 -17.7538,-55.38744 -48.08057,-85.7113" stroke-opacity="0.31364" stroke="#f8a660" stroke-width="19.28572"/><path d="M895.64496,-831.97778c49.68335,5.90173 24.98676,15.49548 8.60822,-26.82898" stroke-opacity="0.13529" stroke="#4a7bab" stroke-width="19.28572"/><path d="M403.96332,-641.46796c8.75905,29.10007 17.5181,58.20014 33.34244,60.15778c15.82434,1.95763 38.71397,-23.22718 61.60361,-48.41199c22.88963,-25.18481 -8.13569,-14.32214 -39.16101,-3.45947" stroke-opacity="0.79071" stroke="#6a3089" stroke-width="19.28572"/><path d="M592.53198,-690.90399c-4.62693,5.11902 -9.25387,10.23804 -13.8808,15.35706c-4.62693,5.11902 49.06562,-23.68729 102.75818,-52.49359" stroke-opacity="0.19943" stroke="#b21ec8" stroke-width="19.28572"/><path d="M421.89484,-722.86694c-44.99423,-8.27612 -26.95844,-43.15314 -62.08328,-66.76367" stroke-opacity="0.89365" stroke="#a3aee2" stroke-width="19.28572"/><path d="M641.34387,-822.11017c17.58105,2.95054 35.16211,5.90108 52.74316,8.85162c17.58105,2.95054 -5.62711,38.079 -28.83527,73.20746" stroke-opacity="0.70627" stroke="#0aa102" stroke-width="19.28572"/><path d="M519.7514,-793.3399c26.8703,35.45909 53.7406,70.91817 60.38739,67.08636c6.64679,-3.83181 -6.92993,-46.95451 -20.50665,-90.07721c-13.57672,-43.1227 -38.78513,-12.7942 -63.99353,17.5343" stroke-opacity="0.39132" stroke="#9487f8" stroke-width="19.28572"/><path d="M538.16064,-757.43634c-13.90306,-11.8325 -27.80611,-23.665 -41.70917,-35.4975c-13.90306,-11.8325 8.60319,-10.64095 31.10944,-9.4494" stroke-opacity="0.74377" stroke="#5db373" stroke-width="19.28572"/><path d="M865.00208,-720.3924c13.9834,-21.44568 6.38293,29.61163 -43.52313,-18.41425" stroke-opacity="0.93673" stroke="#8ca6be" stroke-width="19.28572"/><path d="M363.26068,-770.12976c14.94351,-32.93014 29.88702,-65.86027 44.83054,-98.79041c14.94351,-32.93014 25.19572,-0.61064 35.44794,31.70886" stroke-opacity="0.81745" stroke="#e61300" stroke-width="19.28572"/><path d="M530.66846,-631.62292c-12.01337,-52.27472 -44.0687,-80.30688 -36.70602,-62.81415" stroke-opacity="0.42409" stroke="#0b2ead" stroke-width="19.28572"/><path d="M634.97577,-787.52136c-14.40863,16.80072 -28.81726,33.60144 -43.22589,50.40216c-14.40863,16.80072 54.7168,-2.70273 123.84222,-22.20618" stroke-opacity="0.80019" stroke="#c3899b" stroke-width="19.28572"/><path d="M632.026,-779.72034c2.60697,12.33354 5.21395,24.66707 7.82092,37.00061c2.60697,12.33354 76.79281,-7.36033 150.97864,-27.0542" stroke-opacity="0.65101" stroke="#142c7e" stroke-width="19.28572"/><path d="M643.38934,-776.91772c-1.81828,-3.76949 -3.63656,-7.53898 -5.45483,-11.30847c-1.81828,-3.76949 2.69898,-14.09492 7.21625,-24.42035" stroke-opacity="0.89654" stroke="#39fb98" stroke-width="19.28572"/><path d="M839.7467,-671.21631c46.87573,48.11951 97.39252,43.13629 57.3031,43.33771" stroke-opacity="0.86479" stroke="#241aa3" stroke-width="19.28572"/></g></g><g><g><path d="M256.7077,750.74719c5.64698,-1.49791 11.29396,-2.99583 17.68454,0.12628c6.39058,3.12211 13.52477,10.86424 24.23514,7.62646c10.71037,-3.23778 24.99691,-17.45547 56.46008,-32.46082c31.46317,-15.00534 80.10296,-30.79834 106.91321,-46.5285c26.81025,-15.73017 31.79095,-31.3975 17.41199,-47.24927c-14.37896,-15.85176 -48.11758,-31.88796 -67.10385,-49.14087c-18.98627,-17.25291 -23.2202,-35.72254 -23.2728,-54.97131c-0.0526,-19.24877 4.07613,-39.27668 5.63663,-51.9884c1.5605,-12.71172 0.55277,-18.10725 2.44748,-20.44724c1.89471,-2.33999 6.69187,-1.62444 11.40768,-0.68253c4.71581,0.94191 9.35028,2.11019 17.04373,8.83218c7.69345,6.72199 18.4459,18.99769 72.76733,-3.18063c54.32143,-22.17832 152.21186,-78.81067 194.901,-110.42105c42.68914,-31.61038 30.177,-38.19879 17.66486,-44.7872c-12.51214,-6.58841 -1.66495,-8.92076 9.18225,-11.25311" stroke="#181f0f" stroke-width="20.38705"/><path d="M711.37787,-640.17627c-5.0307,-18.95911 33.48334,-3.9043 42.63354,-9.43268" stroke-opacity="0.13134" stroke="#974d42" stroke-width="19.28572"/><path d="M566.53638,-673.26306c26.7099,52.86749 -14.3468,61.72314 5.99756,32.59985" stroke-opacity="0.64663" stroke="#81ce90" stroke-width="19.28572"/><path d="M740.20697,-771.86963c23.43903,44.42352 55.43494,-4.0011 93.63239,-50.40967" stroke-opacity="0.03265" stroke="#82089f" stroke-width="19.28572"/><path d="M751.04785,-681.54718c20.95365,-9.07101 41.9073,-18.14202 47.61169,-18.76605c5.7044,-0.62403 -3.84046,7.19891 -13.38531,15.02185c-9.54486,7.82294 -32.28402,2.77509 -55.02319,-2.27277" stroke-opacity="0.71256" stroke="#31cfdf" stroke-width="19.28572"/><path d="M765.60504,-691.00507c41.459,-5.92588 82.91801,-11.85177 124.37701,-17.77765c41.459,-5.92588 -17.79433,14.00663 -77.04767,33.93915" stroke-opacity="0.22621" stroke="#a8eae1" stroke-width="19.28572"/><path d="M365.86636,-809.24396c-35.65933,-5.59654 -71.31866,-11.19307 -106.978,-16.78961c-35.65933,-5.59654 -14.46388,-2.00762 6.73157,1.5813" stroke-opacity="0.12231" stroke="#3d13da" stroke-width="19.28572"/><path d="M774.14502,-690.70532c12.04083,-50.29251 24.08167,-100.58502 41.22638,-117.90881c17.14471,-17.32379 39.39331,-1.67886 61.64191,13.96606c22.2486,15.64493 -10.12134,11.81587 -42.49127,7.98682" stroke-opacity="0.38188" stroke="#f9c41a" stroke-width="19.28572"/><path d="M890.95978,-745.42761c-11.37781,25.32446 -22.75562,50.64893 -34.13342,75.97339c-11.37781,25.32446 -1.66516,-3.36292 8.04749,-32.05029" stroke-opacity="0.50847" stroke="#93c692" stroke-width="19.28572"/><path d="M432.40869,-632.4093c34.63772,21.4348 69.27544,42.86961 97.56116,35.01648c28.28572,-7.85313 50.21943,-44.99419 72.15314,-82.13525c21.93371,-37.14106 36.8067,-48.99747 51.67969,-60.85388" stroke-opacity="0.80408" stroke="#030e7d" stroke-width="19.28572"/><path d="M543.31659,-660.89056c-16.15937,-24.33163 -32.31874,-48.66326 -31.4696,-76.2215c0.84913,-27.55824 18.70676,-58.34308 36.56439,-89.12793c17.85763,-30.78485 -17.38861,32.19226 -52.63486,95.16937" stroke-opacity="0.77532" stroke="#e497ae" stroke-width="19.28572"/><path d="M703.37396,-733.7348c52.93427,-2.58203 31.34442,17.90912 -17.21967,-33.49176" stroke-opacity="0.51529" stroke="#4bd7d8" stroke-width="19.28572"/><path d="M614.42133,-761.28583c26.2104,-20.04712 52.42081,-40.09424 41.05353,-59.72943c-11.36728,-19.63519 -60.31224,-38.85846 -109.2572,-58.08173c-48.94496,-19.22327 -4.48856,-27.13718 39.96783,-35.05109" stroke-opacity="0.54226" stroke="#f19ba6" stroke-width="19.28572"/><path d="M493.91446,-768.00513c15.31469,-11.31708 30.62938,-22.63417 16.80099,-23.0105c-13.82839,-0.37633 -56.79986,10.18808 -99.77133,20.7525c-42.97147,10.56442 -41.49468,0.63872 -40.01788,-9.28699" stroke-opacity="0.46235" stroke="#9789c6" stroke-width="19.28572"/><path d="M578.56787,-767.02167c-16.28055,17.71677 -32.5611,35.43354 -41.95856,50.40826c-9.39746,14.97472 -11.91183,27.20739 -14.42621,39.44006c-2.51437,12.23267 -15.29114,12.57004 -28.0679,12.90741" stroke-opacity="0.18558" stroke="#314cb5" stroke-width="19.28572"/><path d="M716.21826,-798.78125c-2.21157,-14.71885 -4.42314,-29.4377 -6.6347,-44.15656c-2.21157,-14.71885 5.9403,-17.79525 14.09216,-20.87164" stroke-opacity="0.59932" stroke="#ec289b" stroke-width="19.28572"/><path d="M883.5307,-831.52466c37.00104,-12.40051 76.35449,-43.64471 38.31256,-41.84491" stroke-opacity="0.9743" stroke="#0dfb0a" stroke-width="19.28572"/><path d="M760.80072,-802.9715c34.01235,37.35258 68.0247,74.70516 102.03705,112.05774c34.01235,37.35258 20.3675,16.28676 6.72266,-4.77905" stroke-opacity="0.16142" stroke="#9e214c" stroke-width="19.28572"/><path d="M550.10272,-803.29834c12.57296,-25.06358 25.14591,-50.12716 37.71887,-75.19073c12.57296,-25.06358 -17.7538,-55.38744 -48.08057,-85.7113" stroke-opacity="0.31364" stroke="#f8a660" stroke-width="19.28572"/><path d="M895.64496,-831.97778c49.68335,5.90173 24.98676,15.49548 8.60822,-26.82898" stroke-opacity="0.13529" stroke="#4a7bab" stroke-width="19.28572"/><path d="M403.96332,-641.46796c8.75905,29.10007 17.5181,58.20014 33.34244,60.15778c15.82434,1.95763 38.71397,-23.22718 61.60361,-48.41199c22.88963,-25.18481 -8.13569,-14.32214 -39.16101,-3.45947" stroke-opacity="0.79071" stroke="#6a3089" stroke-width="19.28572"/><path d="M592.53198,-690.90399c-4.62693,5.11902 -9.25387,10.23804 -13.8808,15.35706c-4.62693,5.11902 49.06562,-23.68729 102.75818,-52.49359" stroke-opacity="0.19943" stroke="#b21ec8" stroke-width="19.28572"/><path d="M421.89484,-722.86694c-44.99423,-8.27612 -26.95844,-43.15314 -62.08328,-66.76367" stroke-opacity="0.89365" stroke="#a3aee2" stroke-width="19.28572"/><path d="M641.34387,-822.11017c17.58105,2.95054 35.16211,5.90108 52.74316,8.85162c17.58105,2.95054 -5.62711,38.079 -28.83527,73.20746" stroke-opacity="0.70627" stroke="#0aa102" stroke-width="19.28572"/><path d="M519.7514,-793.3399c26.8703,35.45909 53.7406,70.91817 60.38739,67.08636c6.64679,-3.83181 -6.92993,-46.95451 -20.50665,-90.07721c-13.57672,-43.1227 -38.78513,-12.7942 -63.99353,17.5343" stroke-opacity="0.39132" stroke="#9487f8" stroke-width="19.28572"/><path d="M538.16064,-757.43634c-13.90306,-11.8325 -27.80611,-23.665 -41.70917,-35.4975c-13.90306,-11.8325 8.60319,-10.64095 31.10944,-9.4494" stroke-opacity="0.74377" stroke="#5db373" stroke-width="19.28572"/><path d="M865.00208,-720.3924c13.9834,-21.44568 6.38293,29.61163 -43.52313,-18.41425" stroke-opacity="0.93673" stroke="#8ca6be" stroke-width="19.28572"/><path d="M363.26068,-770.12976c14.94351,-32.93014 29.88702,-65.86027 44.83054,-98.79041c14.94351,-32.93014 25.19572,-0.61064 35.44794,31.70886" stroke-opacity="0.81745" stroke="#e61300" stroke-width="19.28572"/><path d="M530.66846,-631.62292c-12.01337,-52.27472 -44.0687,-80.30688 -36.70602,-62.81415" stroke-opacity="0.42409" stroke="#0b2ead" stroke-width="19.28572"/><path d="M634.97577,-787.52136c-14.40863,16.80072 -28.81726,33.60144 -43.22589,50.40216c-14.40863,16.80072 54.7168,-2.70273 123.84222,-22.20618" stroke-opacity="0.80019" stroke="#c3899b" stroke-width="19.28572"/><path d="M632.026,-779.72034c2.60697,12.33354 5.21395,24.66707 7.82092,37.00061c2.60697,12.33354 76.79281,-7.36033 150.97864,-27.0542" stroke-opacity="0.65101" stroke="#142c7e" stroke-width="19.28572"/><path d="M643.38934,-776.91772c-1.81828,-3.76949 -3.63656,-7.53898 -5.45483,-11.30847c-1.81828,-3.76949 2.69898,-14.09492 7.21625,-24.42035" stroke-opacity="0.89654" stroke="#39fb98" stroke-width="19.28572"/><path d="M839.7467,-671.21631c46.87573,48.11951 97.39252,43.13629 57.3031,43.33771" stroke-opacity="0.86479" stroke="#241aa3" stroke-width="19.28572"/></g></g></g></svg>