<svg version="1.1" xmlns="http://www.w3.org/2000/svg" xmlns:xlink="http://www.w3.org/1999/xlink" width="1508" height="1480"><g fill="none" fill-rule="nonzero" stroke="#402f95" stroke-width="20" stroke-linecap="round" stroke-linejoin="round" stroke-miterlimit="10" stroke-dasharray="" stroke-dashoffset="0" font-family="none" font-weight="none" font-size="none" text-anchor="none" style="mix-blend-mode: normal"><path d="M600,721c3.51503,0 10.82224,8.21482 15,11c9.02244,6.01496 18.98222,9.99289 29,14c4.33211,1.73284 13.51104,3.51104 16,6c2.36878,2.36878 6.69562,0.44927 10,1c9.54433,1.59072 19.31321,3.49017 29,4c27.76144,1.46113 55.14347,0 83,0c17.05462,0 35.07904,1.67173 52,-1c9.3818,-1.48134 18.06656,-6.17891 27,-9c9.69062,-3.0602 19.80357,-4.32143 29,-8c9.27771,-3.71108 28.11918,-22.33938 37,-29c10.20411,-7.65308 21.83711,-13.37783 32,-21c12.32777,-9.24583 23.65564,-25.98583 33,-38c30.0306,-38.61077 33,-78.4769 33,-125c0,-14.71078 3.86211,-36.41368 -1,-51c-5.47314,-16.41943 -29.74893,-51.5646 -41,-64c-28.12485,-31.08536 -63.23798,-56.96352 -99,-78c-15.10307,-8.88416 -33.49947,-11.28556 -50,-16c-8.57816,-2.4509 -9.81927,-4.12564 -19,-5c-16.83151,-1.603 -34.03789,-1 -51,-1c-10.96979,0 -24.26414,-1.47751 -35,1c-16.34428,3.77176 -47.13651,12.75767 -61,22c-24.15411,16.10274 -46.51502,59.03004 -59,84c-7.87939,15.75878 -19.7049,32.8196 -24,50c-4.74592,18.98369 1.47208,55.04061 4,74c1.24066,9.30492 0,19.56495 0,29c0,33.43847 -3.76896,66.77248 -1,100c0.78329,9.39951 -1.2766,20.89361 1,30c6.46817,25.87267 23,52.92626 23,80"/></g></svg>