<svg version="1.1" xmlns="http://www.w3.org/2000/svg" xmlns:xlink="http://www.w3.org/1999/xlink" width="1080" height="1080"><g fill="none" fill-rule="nonzero" stroke="none" stroke-width="none" stroke-linecap="none" stroke-linejoin="none" stroke-miterlimit="10" stroke-dasharray="" stroke-dashoffset="0" font-family="none" font-weight="none" font-size="none" text-anchor="none" style="mix-blend-mode: normal"><path d="M916.80511,137.87007c76.51683,0 -65.98048,138.07449 -98.97205,207.11348" fill="none" stroke="#181818" stroke-width="12" stroke-linecap="round" stroke-linejoin="round" opacity="0.99"/><path d="M504.42026,407.93176c1.41826,0 -0.91565,2.7318 -1.75165,3.87747c-1.9802,2.71372 -4.17859,5.26883 -6.45148,7.74258c-6.75459,7.35153 -9.24587,9.53566 -17.67682,14.95477c-19.86943,12.77136 -43.75372,18.15295 -59.2023,37.0148c-7.81779,9.54508 -8.96252,30.61204 -8.60199,41.66116c1.52953,46.87521 0.16584,82.26834 17.23685,123.26074" fill="none" stroke="#181818" stroke-width="12" stroke-linecap="round" stroke-linejoin="round" opacity="0.99"/><path d="M736.7558,911.81335c0.71318,0 -3.21074,2.36143 -3.30591,2.40546c-3.94959,1.82735 -8.4435,3.16618 -12.52881,4.5271c-9.61628,3.20343 -19.4731,5.6417 -29.13239,8.71301c-38.7991,12.33676 -75.94945,24.10826 -116.89972,27.51233" fill="none" stroke="#181818" stroke-width="12" stroke-linecap="round" stroke-linejoin="round" opacity="0.99"/><path d="M167.03947,1034.005c1.78129,0 -3.37626,1.27973 -5.15213,1.41858c-4.1825,0.32703 -8.34798,0.84853 -12.52879,1.19653c-14.84441,1.23561 -30.73114,0.60782 -45.15624,-2.91528c-11.69376,-2.85602 -12.62651,-8.05865 -18.9926,-18.42517c-12.99815,-21.16615 -24.87098,-44.23854 -34.81497,-67.04773c-7.25974,-16.65214 -14.00667,-35.85002 -12.6398,-54.37091c1.24476,-16.8663 8.81213,-34.23533 14.80674,-49.88483c9.81593,-25.62539 19.55748,-52.71968 35.70724,-75.13159c6.21393,-8.62341 14.92822,-15.6811 21.29111,-24.1571c6.36013,-8.47233 11.37405,-17.57626 18.00165,-25.85937" fill="none" stroke="#181818" stroke-width="12" stroke-linecap="round" stroke-linejoin="round" opacity="0.99"/><path d="M217.58224,382.93588c2.95569,0 2.80887,-5.21107 3.96382,-7.93176c1.51225,-3.5624 2.9208,-7.17768 4.07483,-10.8717c5.07636,-16.24927 6.75332,-34.14242 7.34787,-51.06085c1.10027,-31.30926 6.0495,-72.9922 -12.15872,-100.57156c-14.0715,-21.31361 -44.63493,-29.36278 -63.088,-53.94325" fill="none" stroke="#181818" stroke-width="12" stroke-linecap="round" stroke-linejoin="round" opacity="0.99"/><path d="M384.70395,365.67847v-256.11021h631.09378v256.11021z" fill="#e9e9ff" stroke="none" stroke-width="1" stroke-linecap="butt" stroke-linejoin="miter" opacity="0.4"/></g></svg>