<svg version="1.1" xmlns="http://www.w3.org/2000/svg" xmlns:xlink="http://www.w3.org/1999/xlink" width="1758" height="1230"><g fill="none" fill-rule="nonzero" stroke-opacity="0.827" stroke="#ffdf2c" stroke-width="26" stroke-linecap="round" stroke-linejoin="round" stroke-miterlimit="10" stroke-dasharray="" stroke-dashoffset="0" font-family="none" font-weight="none" font-size="none" text-anchor="none" style="mix-blend-mode: normal"><path d="M635,647c2.02759,0 -0.69169,3.99599 -1,6c-0.40864,2.65617 -0.84219,5.31722 -1,8c-0.79873,13.57838 1.68375,23.91166 10,35c26.62762,35.50349 89.45584,67.91824 127,88c26.60468,14.23041 53.49616,26.67069 81,39c20.10025,9.01046 39.97258,19.99217 61,26c10.74768,3.07077 18.34531,12.44844 29,16c11.73794,3.91265 27.71481,-1.91015 39,-4c26.74843,-4.95341 54.09828,-7.92398 81,-12c11.19089,-1.69559 21.92774,-5.65134 33,-8c15.12552,-3.20844 49.15554,-6.43702 62,-15c6.96934,-4.64622 15.82184,-25.83744 20,-33c5.28508,-9.06013 13.01194,-16.85522 18,-26c1.51426,-2.77615 1.82556,-6.0639 3,-9c6.22784,-15.56961 24.88146,-44.08701 35,-58c13.76875,-18.93203 27.28376,-38.28376 44,-55c4.96798,-4.96798 18,-19.55146 18,-25"/><path d="M1020,358c3.00099,0 0.12506,6.00162 0,9c-0.36143,8.66554 -1,17.32693 -1,26c0,21.03532 -1,41.94511 -1,63c0,11.00724 1.54945,23.15387 0,34c-1.27557,8.929 -3,21.26566 -3,29"/><path d="M833,351c1.37562,0 -0.70144,2.65717 -1,4c-0.58326,2.62336 -1,5.31258 -1,8c0,8.66667 0,17.33333 0,26c0,24.57654 2.53651,49.41585 1,74c-1.04616,16.73858 -5,35.66766 -5,51"/></g></svg>