<svg version="1.1" xmlns="http://www.w3.org/2000/svg" xmlns:xlink="http://www.w3.org/1999/xlink" width="1775" height="1480"><g fill="none" fill-rule="nonzero" stroke="#402f95" stroke-width="none" stroke-linecap="round" stroke-linejoin="round" stroke-miterlimit="10" stroke-dasharray="" stroke-dashoffset="0" font-family="none" font-weight="none" font-size="none" text-anchor="none" style="mix-blend-mode: normal"><path d="M799,520c0.21137,0 -2.65039,-6.82931 -2,-8c6.25027,-11.25049 13.74868,-21.16188 22,-31c24.56778,-29.29235 48.58146,-56.27001 88,-63c41.41664,-7.07113 89.40474,5.80609 116,40c1.55854,2.00384 1.74051,4.79589 3,7c11.8908,20.8089 21.17079,35.43645 30,58c10.02566,25.62113 18.34065,52.34421 20,80c2.29457,38.24283 7.65362,82.27376 -20,113c-3.7908,4.212 -9.99187,5.34864 -15,8c-22.02985,11.66286 -46.65905,10 -71,10c-68.07416,0 -138.46128,-4.5257 -205,11c-9.8227,2.29196 -19.28551,4.22443 -29,7c-6.14087,1.75454 -10.88328,6.16498 -17,8c-12.13451,3.64035 -24.98544,3.37379 -32,16c-9.82322,17.68179 -6.0433,51.3737 0,69c12.7742,37.25809 32.87975,69.79494 60,98c12.02402,12.50499 21.01184,22.00444 37,28c4.21928,1.58223 10.60367,1.79065 15,2c16.17044,0.77002 34.26081,0.9348 50,-3c2.87611,-0.71903 14.71871,-3.15614 16,-7c0.80875,-2.42624 0,-6.41521 0,-9" stroke-width="7"/><path d="M507,793c3.81276,0 10.64914,-23.9981 12,-27c10.57314,-23.49587 23.11711,-46.74774 36,-69c6.27707,-10.84221 9.82132,-19.77953 15,-31c7.39643,-16.0256 18.45866,-30.64665 25,-47c7.76094,-19.40235 14.9842,-36.29119 22,-55c13.87364,-36.99637 26.15466,-74.30932 44,-110c3.23752,-6.47504 7.12408,-12.28952 10,-19c5.82614,-13.59434 14.86957,-37.86957 24,-47c2.15934,-2.15934 1.85956,-10 5,-10" stroke-width="18"/></g></svg>