<svg version="1.1" xmlns="http://www.w3.org/2000/svg" xmlns:xlink="http://www.w3.org/1999/xlink" width="1508" height="1480"><g fill="none" fill-rule="nonzero" stroke="#402f95" stroke-width="20" stroke-linecap="round" stroke-linejoin="round" stroke-miterlimit="10" stroke-dasharray="" stroke-dashoffset="0" font-family="none" font-weight="none" font-size="none" text-anchor="none" style="mix-blend-mode: normal"><path d="M408,433c3.90157,0 7.27603,2.83626 11,4c7.25516,2.26724 14.56525,4.41814 22,6c41.83385,8.90082 84.94191,12.95948 127,21c47.1973,9.02301 93.92115,20.37805 141,30c59.36691,12.13338 119.24342,20.2321 179,30c31.6287,5.17008 62.76868,11.90197 94,19c8.35686,1.89929 16.732,3.74509 25,6c3.63095,0.99026 12,3.7086 12,5"/><path d="M511,739c14.81892,0 30.33107,7.49555 45,10c9.619,1.64227 19.32466,2.7311 29,4c63.6166,8.34316 127.85126,11 192,11c22.91582,0 41.52968,-0.42387 64,5c4.04866,0.97726 14,4.43593 14,9"/><path d="M591,970c0.1535,0 -4.06183,3.72509 -2,4c56.96356,7.59514 115.68647,4 173,4c67.21017,0 134.80787,-2.00574 202,0c20.14972,0.60148 39.83281,2 60,2"/></g></svg>