<svg version="1.1" xmlns="http://www.w3.org/2000/svg" xmlns:xlink="http://www.w3.org/1999/xlink" width="1084.99219" height="1084.99219"><g fill="none" fill-rule="nonzero" stroke="#181818" stroke-width="12" stroke-linecap="round" stroke-linejoin="round" stroke-miterlimit="10" stroke-dasharray="" stroke-dashoffset="0" font-family="none" font-weight="none" font-size="none" text-anchor="none" style="mix-blend-mode: normal"><path d="M156.72266,406.99609c-0.91955,0.51604 -1.83911,1.03209 0.001,0c1.84011,-1.03209 6.43988,-3.61231 9.999,-6c3.55912,-2.38769 6.07757,-4.58284 13,-10c6.92243,-5.41716 18.24883,-14.05632 30,-22c11.75117,-7.94368 23.92711,-15.1919 40,-23c16.07289,-7.8081 36.04274,-16.1761 53,-22c16.95726,-5.8239 30.90193,-9.10369 47,-11c16.09807,-1.89631 34.34953,-2.40912 46,-2c11.65047,0.40912 16.69994,1.74017 27,10c10.30006,8.25983 25.8507,23.44843 33,33c7.1493,9.55157 5.89725,13.46609 7,23c1.10275,9.53391 4.5603,24.68721 8,36c3.4397,11.31279 6.86154,18.78508 11,29c4.13846,10.21492 8.99352,23.17248 13,31c4.00648,7.82752 7.16437,10.52498 11,16c3.83563,5.47502 8.349,13.72758 18,24c9.651,10.27242 24.43963,22.56471 39,32c14.56037,9.43529 28.89247,16.01358 41,21c12.10753,4.98642 21.99049,8.38096 39,12c17.00951,3.61904 41.14557,7.46258 58,9c16.85443,1.53742 26.42721,0.76871 36,0c9.57279,-0.76871 29.28639,-2.38435 49,-4" opacity="0.75"/></g></svg>