<svg version="1.1" xmlns="http://www.w3.org/2000/svg" xmlns:xlink="http://www.w3.org/1999/xlink" width="1752" height="1480"><g fill="none" fill-rule="nonzero" stroke="none" stroke-width="none" stroke-linecap="round" stroke-linejoin="round" stroke-miterlimit="10" stroke-dasharray="" stroke-dashoffset="0" font-family="none" font-weight="none" font-size="none" text-anchor="none" style="mix-blend-mode: normal"><path d="M449,471c9.55103,0 9.2424,16.71825 14,25c4.4708,7.78251 8.34735,16.0284 14,23c53.08624,65.47302 118.75722,127.73542 183,181c19.86663,16.4717 41.77457,30.32073 63,45c14.44728,9.99158 28.53387,20.67208 44,29c10.68321,5.7525 22.52235,9.06481 34,13c41.03527,14.06923 91.45746,26.05379 134,10c25.85482,-9.75654 40.06832,-27.34906 55,-49c3.67446,-5.32797 8.5963,-9.99075 11,-16c0.55364,-1.38409 -2.73588,1.20992 -4,2c-1.64821,1.03013 -3.70398,1.55151 -5,3c-4.4453,4.96828 -8.20527,10.51872 -12,16c-18.83326,27.2036 -35.46057,55.31139 -48,86c-39.02746,95.51458 -74.43109,224.30133 -16,319c3.74593,6.07099 7.39658,12.58519 13,17c29.63765,23.35087 66.82818,1.72664 92,-16c37.3829,-26.32599 69.46504,-50.9696 104,-81c13.57017,-11.80015 35.26077,-39.2742 52,-47c6.19419,-2.85886 3.15489,1.57427 6,6c4.00226,6.22573 7.25582,13.33286 13,18c11.78392,9.57443 25.92127,3.15485 37,-3" stroke="#402f95" stroke-width="20"/><g><g><path d="M571.91646,573.25097c104.28544,170.67109 290.05976,519.68909 227.53846,809.18393" stroke="#398c3e" stroke-width="5.28374"/><path d="M484.19773,563.59777c-98.56652,85.66801 -233.72873,254.65531 -174.49605,300.41513c121.43825,54.11669 161.4338,-216.88275 175.61677,-284.67453" stroke-opacity="0.99652" stroke="#88328b" stroke-width="13.92992"/><path d="M419.2262,545.3661c-85.19889,60.02704 -350.8799,-43.952 -347.89568,-59.04772c-14.95646,-33.38766 254.74181,-41.74474 340.55229,14.82257" stroke-opacity="0.99926" stroke="#872e8c" stroke-width="13.9879"/><path d="M480.17972,467.94373c37.0649,-132.76549 85.90008,-172.74652 119.35024,-159.56543c38.56639,18.46149 1.75557,105.55277 -62.13283,176.66034" stroke="#87308c" stroke-width="13.95755"/><path d="M588.02285,520.57385c176.89985,4.7461 314.15616,27.86948 314.35487,90.04462c-4.80628,67.97104 -257.27656,29.23273 -334.82263,-33.6461" stroke="#842e8f" stroke-width="14.01212"/><path d="M518.67815,573.99655c-18.68861,3.79599 -80.55238,10.01163 -84.80789,-19.75744c-2.4877,-30.08399 -18.02511,-72.36734 49.78284,-62.25185c71.99931,2.73468 76.51361,-13.12798 85.853,29.38445c29.90208,67.79181 -108.73076,58.2635 -129.47707,28.14773" stroke="#eabd43" stroke-width="13.76956"/><path d="M751.25638,582.08854c48.15198,0.91234 66.5553,-11.96621 87.96243,-106.20314c-65.26804,17.5159 3.67566,7.23428 -62.96766,44.80986" stroke-opacity="0.00583" stroke="#e27184" stroke-width="2.08224"/><path d="M-10.74027,700.86715c61.77012,44.96486 37.94865,5.8755 121.046,55.69725" stroke-opacity="0.00271" stroke="#d1fe29" stroke-width="2.04803"/><path d="M1609.85133,995.65185c-26.65881,0.69292 -5.18509,68.48327 76.48485,138.30261c38.89149,30.59554 116.96291,-9.56542 147.10542,-86.86284" stroke="#93f675" stroke-width="2"/><path d="M-74.58913,226.70649c28.28332,-21.29258 108.97964,17.70517 30.6871,66.19472c27.57293,-66.55961 48.62957,-80.71999 -8.47923,-114.76582c-69.73606,-76.36262 7.92455,-79.27739 8.07336,15.74494" stroke-opacity="0.38988" stroke="#de7ea3" stroke-width="2.25208"/><path d="M280.06213,626.55125c-78.20456,60.0729 -41.95741,91.64725 -73.42993,37.1295c-54.15879,-27.46669 -90.17266,-36.95275 -168.89206,24.55755c-58.82068,59.67444 -109.78967,129.22883 -88.69124,108.52107" stroke-opacity="0.7791" stroke="#f8d77a" stroke-width="2"/><path d="M1138.505,421.9922c49.62876,36.27464 76.90148,90.64154 95.98316,19.91225c-19.26404,-48.66198 -108.19627,-100.44539 -47.95888,-111.2295" stroke-opacity="0.81776" stroke="#78a376" stroke-width="2.23963"/><path d="M1545.43219,790.37862c-57.40007,63.66971 -7.58763,77.41348 71.41923,67.10089" stroke-opacity="0.05776" stroke="#81dee7" stroke-width="2.03329"/><path d="M501.81767,749.25973c-66.26523,-25.12188 -132.74099,-68.97825 -35.09045,-82.06888c98.53471,65.58654 82.01383,17.3916 119.66681,-48.84472" stroke-opacity="0.69517" stroke="#77e371" stroke-width="2"/><path d="M1408.27936,873.54568c54.09634,-38.12666 25.66406,-104.67832 -51.45761,-85.06681c17.30403,46.39044 56.28777,80.07035 107.82964,136.42781" stroke-opacity="0.52144" stroke="#bfc7bd" stroke-width="2"/><path d="M815.42179,494.78027c22.77125,36.27588 -45.13338,54.77927 -78.00448,-9.28249" stroke-opacity="0.4087" stroke="#e022d7" stroke-width="2"/><path d="M780.83886,841.54103c72.07563,-53.05953 127.97254,-38.21098 97.88494,11.8636c90.17844,-49.97672 68.36279,-18.46956 -22.12398,45.56797c-14.83298,-32.53335 -75.83621,-77.69883 -27.38234,-32.88208" stroke-opacity="0.99584" stroke="#6d43ff" stroke-width="2.53055"/><path d="M445.94128,729.67739c39.75167,25.1606 97.14601,61.5737 157.64971,137.94547c-50.90481,-3.65084 -90.16107,48.389 -108.06994,4.61676c35.65012,-11.23698 131.06311,51.27782 176.2928,54.86732" stroke-opacity="0.58241" stroke="#8c9583" stroke-width="2.45897"/><path d="M1636.96604,692.68595c23.4286,34.67113 103.63655,34.67137 47.89133,-58.34973c-83.17667,79.83885 -73.88109,84.58194 9.11072,104.71248" stroke-opacity="0.1996" stroke="#48e73a" stroke-width="2.21836"/><path d="M644.45908,311.60331c8.13823,40.06347 5.9819,27.67192 -14.22682,38.42547c-47.7653,67.00237 -55.76336,149.18208 -65.26524,196.48053" stroke-opacity="0.60136" stroke="#d7bc10" stroke-width="2.45463"/><path d="M288.85204,869.82097c30.56,66.42247 6.11052,44.95704 21.06264,73.13064c-76.0134,-38.75818 -85.9167,23.94573 -109.49281,-44.32236c84.59841,-81.94407 76.88839,-108.78912 102.64963,-193.7509" stroke-opacity="0.91919" stroke="#45162a" stroke-width="2"/><path d="M331.02819,677.70892c-40.6931,-12.00261 -48.3464,63.31418 7.27581,7.49615" stroke-opacity="0.23988" stroke="#e4d773" stroke-width="2"/><path d="M1251.74672,573.93199c-15.00961,-33.55552 -67.14212,-97.79901 -128.52941,-171.50366c26.12199,15.15487 -52.20245,-32.91726 -44.74467,-36.76685c24.23418,25.87232 71.7812,-36.39172 121.60271,-48.92609" stroke-opacity="0.94812" stroke="#00904a" stroke-width="2"/><path d="M1244.34025,521.63269c-73.82989,-5.09104 -160.79745,-67.71844 -205.75026,-40.8037c-37.66402,86.74334 -99.24225,67.76362 -58.54161,131.06633" stroke-opacity="0.14628" stroke="#adff2d" stroke-width="2"/><path d="M-39.22775,340.97799c32.94373,18.02916 15.18256,-15.54073 38.07577,7.75446c56.08968,43.69399 132.809,81.69618 69.3789,41.48986" stroke-opacity="0.08598" stroke="#8c8b69" stroke-width="2.2622"/><path d="M377.06569,1025.3131c-1.16592,13.03874 -41.33559,16.03342 -94.54126,-12.91683c-32.94492,14.27569 -99.71149,86.57975 -170.94158,57.12963c63.89399,-4.39359 126.38784,95.83368 43.94469,39.76426" stroke-opacity="0.63968" stroke="#9978b6" stroke-width="2.76485"/><path d="M165.41974,867.64333c36.87126,39.35669 47.95396,59.74694 67.59182,29.08886c30.02486,-40.17433 57.14807,-84.37007 122.10808,-131.56979c-20.06025,-17.31596 -38.98604,11.88067 -115.14662,67.85157" stroke-opacity="0.72119" stroke="#c5582c" stroke-width="2.59142"/><path d="M989.64114,702.10219c-51.62649,-8.83085 -44.10092,43.63637 -103.11686,45.13958c86.38092,23.72338 115.39609,104.11555 141.64602,161.41542c-52.431,32.03246 -65.94031,114.89764 -59.12294,99.02152" stroke-opacity="0.59854" stroke="#97ea8e" stroke-width="2"/><path d="M510.77777,459.35539c-69.84715,-69.24835 -73.56142,-34.62737 -145.84268,-27.82884c84.0501,33.41385 58.92166,-59.28465 -25.52616,-118.96397" stroke-opacity="0.75116" stroke="#bd8bd2" stroke-width="2.55204"/><path d="M222.8321,314.8645c-41.28499,-64.57848 -36.90277,-150.26402 -37.13186,-217.2994c4.36241,46.67416 1.35496,131.57294 -9.13187,191.82196c77.90521,17.89063 138.69806,-50.16645 67.88535,-113.29845" stroke-opacity="0.37608" stroke="#5ac0db" stroke-width="2.02283"/><path d="M393.75089,995.61713c-71.217,-48.29472 -6.02397,-35.44073 41.38396,-113.41233c-51.348,51.69798 -29.49112,98.00792 -53.21677,139.00818c4.83642,-17.77419 -13.90352,45.10145 -12.58335,145.56699" stroke-opacity="0.40979" stroke="#cc108d" stroke-width="2"/><path d="M332.9071,631.77745c-46.52629,69.421 -31.54061,112.30298 14.52957,111.99089" stroke-opacity="0.4411" stroke="#c2438d" stroke-width="2"/><path d="M373.93932,910.85566c-2.85012,-20.94914 -24.01199,-79.03013 -40.43083,-134.65267c-21.86007,92.8396 55.6149,138.98228 46.48395,123.00335c55.35818,-56.04138 93.14531,-101.81844 41.56178,-142.27515" stroke-opacity="0.43308" stroke="#5d11a8" stroke-width="2"/><path d="M859.12947,336.08038c2.67799,78.75655 64.03729,142.35272 118.38533,204.87086" stroke-opacity="0.8277" stroke="#ec6a94" stroke-width="2"/><path d="M1502.86582,741.96223c26.93175,18.88786 -59.82266,90.72862 -88.37011,123.3368c-21.46931,0.26787 -55.65356,14.78411 -95.57464,56.56883" stroke-opacity="0.74433" stroke="#30b279" stroke-width="2.48031"/><path d="M1004.60671,963.6401c-5.46591,-53.33647 3.87742,3.4208 -6.08603,-80.11552c-81.11379,56.79576 -23.42956,51.7296 54.21784,-39.47699" stroke-opacity="0.03991" stroke="#a8e4ff" stroke-width="2.36115"/><path d="M176.71516,701.30622c45.2344,-19.03561 31.62949,36.98035 -59.90691,49.62411c72.05944,58.55969 69.50375,86.56823 47.01099,176.90647c61.63373,0.43859 59.14045,1.2104 -11.73602,-55.75889" stroke-opacity="0.71828" stroke="#7fff0b" stroke-width="2.58305"/><path d="M1423.79929,229.33713c-92.98413,-32.63415 -23.95408,-89.94256 -4.92921,-95.28029" stroke-opacity="0.63582" stroke="#a51371" stroke-width="2"/></g></g><path d="M945,335c1.66688,0 2.6131,2.07534 4,3c3.61613,2.41091 7.3838,4.5892 11,7c10.67569,7.11713 27.35647,16.54784 41,12c10.88396,-3.62799 18.82639,-16.18056 25,-25c2.06765,-2.95378 4.06427,-5.95814 6,-9c0.80033,-1.25766 2.36155,-5.4462 2,-4c-7.88707,31.54827 -13.79778,63.12614 -11,96c2.41402,28.36469 17.80482,56.70073 33,80c9.04969,13.87619 19.95031,27.12381 29,41c3.84118,5.8898 5.75481,13.31679 11,18c13.92976,12.43728 28.90372,18.84342 46,26c30.96533,12.96223 59.29078,13 92,13c9.83084,0 24.51926,3.48074 32,-4" stroke="#402f95" stroke-width="20"/></g></svg>