<svg version="1.1" xmlns="http://www.w3.org/2000/svg" xmlns:xlink="http://www.w3.org/1999/xlink" width="1000" height="1000"><g fill="none" fill-rule="nonzero" stroke="#402f95" stroke-width="20" stroke-linecap="round" stroke-linejoin="round" stroke-miterlimit="10" stroke-dasharray="" stroke-dashoffset="0" font-family="none" font-weight="none" font-size="none" text-anchor="none" style="mix-blend-mode: normal"><path d="M242,681c2.02759,0 0.24697,4.11743 1,6c0.92362,2.30904 3.95517,6.43276 5,8c4.86646,7.29969 13.22094,14.35078 20,20c20.32903,16.94086 44.6739,28.33695 68,40c4.14193,2.07096 7.66403,5.37401 12,7c37.30405,13.98902 61.17366,15.98263 101,12c26.04086,-2.60409 52.09546,-2.90981 78,-7c38.58046,-6.09165 78.18541,-10.13532 116,-20c10.30551,-2.68839 20.60527,-10.52632 30,-15c44.26798,-21.07999 67.81941,-70.29121 71,-118c3.09181,-46.3772 -34.17809,-90.28083 -67,-119c-5.22004,-4.56753 -11.60886,-7.63574 -17,-12c-3.29757,-2.66946 -5.60589,-6.45442 -9,-9c-2.03087,-1.52315 -4.80304,-1.72807 -7,-3c-10.84072,-6.27621 -21.00088,-13.95049 -32,-20c-9.18916,-5.05404 -19.43345,-6.97198 -29,-11c-26.25912,-11.05647 -57.29818,-21.9503 -87,-17c-26.24339,4.3739 -52.09814,11.03926 -77,21c-11.8596,4.74384 -25.69999,8.64375 -37,15c-17.9857,10.11696 -31.34918,28.18648 -44,44c-6.27231,7.84038 -15.91076,16.45845 -20,26c-2.16029,5.04068 -7.07169,15.78492 -5,22c7.59711,22.79132 35.57352,44.81827 53,61c0.10941,0.10159 20,17.92616 20,19"/></g></svg>