<svg version="1.1" xmlns="http://www.w3.org/2000/svg" xmlns:xlink="http://www.w3.org/1999/xlink" width="1080" height="1080"><g fill="none" fill-rule="nonzero" stroke="none" stroke-width="none" stroke-linecap="none" stroke-linejoin="none" stroke-miterlimit="10" stroke-dasharray="" stroke-dashoffset="0" font-family="none" font-weight="none" font-size="none" text-anchor="none" style="mix-blend-mode: normal"><path d="M207.25742,238.69655c37.86787,0 76.40275,13.91749 113.73767,19.23521c65.10633,9.27329 131.87196,10.31401 197.63156,7.9852c15.40865,-0.54568 30.20962,-5.17035 45.52631,-5.88406c21.7702,-1.01442 45.2332,-1.46643 67.07654,0c8.107,0.54425 15.63973,1.52902 23.5896,2.75082c2.9666,0.45593 5.94004,0.9494 8.83228,1.75165c1.50963,0.41874 5.32123,-0.52387 4.61755,0.87582c-0.73878,1.46951 -3.0284,1.40462 -4.25165,2.50412c-6.56134,5.89755 -11.23352,12.20476 -19.50244,16.60361c-7.77635,4.13681 -16.3417,6.32436 -24.16119,10.45642c-41.37878,21.8658 -70.87579,38.64533 -70.87579,89.83963c0,7.89669 -0.90905,16.30696 2.13403,23.59375c5.66677,13.56931 12.98444,29.42841 22.01892,41.18011c31.93543,41.54036 83.90088,32.58637 123.84454,7.45477c13.80017,-8.68274 26.2933,-18.95159 37.12994,-30.98685c3.59071,-3.98787 7.32009,-7.85863 10.7196,-12.01068c1.61911,-1.97753 3.2351,-3.95866 4.79028,-5.98685c0.77383,-1.00919 1.47205,-4.79147 1.47205,-3.51974c0,54.14626 -1.28151,110.98708 11.9408,163.90625c5.78576,23.15615 10.47431,47.56977 21.29108,69.13654c7.35023,14.65509 9.05435,14.87193 17.45068,23.31415c1.07571,1.08159 -3.25839,3.25833 -3.76648,3.76642" fill="none" stroke="#181818" stroke-width="12" stroke-linecap="round" stroke-linejoin="round" opacity="0.99"/><path d="M175.47287,642.33557v-461.64888h636.22537v461.64888z" fill="#e9e9ff" stroke="none" stroke-width="1" stroke-linecap="butt" stroke-linejoin="miter" opacity="0.4"/></g></svg>