<svg version="1.1" xmlns="http://www.w3.org/2000/svg" xmlns:xlink="http://www.w3.org/1999/xlink" width="1000" height="1000"><g fill="none" fill-rule="nonzero" stroke="#402f95" stroke-width="20" stroke-linecap="round" stroke-linejoin="round" stroke-miterlimit="10" stroke-dasharray="" stroke-dashoffset="0" font-family="none" font-weight="none" font-size="none" text-anchor="none" style="mix-blend-mode: normal"><path d="M477,292c3.39935,0 1.44115,6.64691 2,10c3.72475,22.34852 6.06795,44.45945 8,67c3.05437,35.63432 -0.17121,69.58889 -5,105c-3.18509,23.35734 1.6347,47.82648 -3,71c-2.25343,11.26717 -2.6784,24.10561 -4,36c-0.16724,1.50515 0.93005,8.13991 0,10c-1.31582,2.63164 -3,8.08409 -3,11"/><path d="M315,472c9.91473,0 19.34942,-2.24535 29,-4c22.00928,-4.00169 44.83042,-5.49954 67,-9c17.21447,-2.71807 34.61765,-7.51008 52,-9c56.40199,-4.83446 113.50543,1.56793 170,-1c7.00306,-0.31832 14.38057,-4 21,-4"/></g></svg>