<svg version="1.1" xmlns="http://www.w3.org/2000/svg" xmlns:xlink="http://www.w3.org/1999/xlink" width="1775" height="1480"><g fill="none" fill-rule="nonzero" stroke="none" stroke-width="none" stroke-linecap="round" stroke-linejoin="round" stroke-miterlimit="10" stroke-dasharray="" stroke-dashoffset="0" font-family="none" font-weight="none" font-size="none" text-anchor="none" style="mix-blend-mode: normal"><path d="M823,420c1.66767,0 0.00012,3.33233 0,5c-0.00021,3 0,6 0,9c0,10.66667 0,21.33333 0,32c0,31.13672 -12.21858,59.39889 -17,90c-3.73075,23.87679 -4.29135,48.89488 -3,73c1.8077,33.7437 10.94066,67.34725 14,101c2.59243,28.51668 2.80772,57.38525 4,86c0.63037,15.12884 4.34225,30.08024 6,45c1.72487,15.5238 -0.0373,31.3807 2,47c3.25024,24.91852 6.50324,50.03238 9,75c2.54644,25.46441 1.52988,52.70117 -1,78c-0.18196,1.81959 0.52084,9.39581 0,12c-1.55741,7.78707 -5,20.18816 -5,27" stroke="#402f95" stroke-width="20"/><path d="M442,761c35.21096,0 69.38884,-6.17054 104,-11c31.86658,-4.4465 64.94587,-4.21819 97,-5c34.3918,-0.83882 68.61782,-5.77206 103,-7c17.63197,-0.62971 35.37934,0.88103 53,0c24.44848,-1.22242 49.51598,-2.28863 74,-1c25.34007,1.33369 50.5247,4.34081 76,3c17.33272,-0.91225 33.97151,-5.31129 51,-8c38.41987,-6.06629 78.30846,-6.58178 117,-9c33.64816,-2.10301 66.42053,-8 99,-8" stroke-opacity="0.759" stroke="#343242" stroke-width="14"/></g></svg>