<svg version="1.1" xmlns="http://www.w3.org/2000/svg" xmlns:xlink="http://www.w3.org/1999/xlink" width="2042" height="1146"><g fill="none" fill-rule="nonzero" stroke="#402f95" stroke-width="20" stroke-linecap="round" stroke-linejoin="round" stroke-miterlimit="10" stroke-dasharray="" stroke-dashoffset="0" font-family="none" font-weight="none" font-size="none" text-anchor="none" style="mix-blend-mode: normal"><path d="M743,145c2.428,0 -1.4911,4.62593 -2,7c-0.49402,2.30467 -0.07152,4.83355 -1,7c-5.88602,13.73405 -15.21066,29.29108 -23,42c-5.75082,9.38292 -13.23228,17.62746 -19,27c-17.0382,27.68708 -32.89918,54.22972 -53,80c-57.68009,73.94884 -120.6827,143.6827 -187,210c-13.45649,13.45649 -26.56903,26.6306 -41,39c-4.50606,3.86234 -8.06517,11 -14,11"/><path d="M819,310c2.02874,0 -0.6168,4.00777 -1,6c-1.28416,6.67631 -2.13226,13.46289 -4,20c-10.32645,36.14259 -34.16214,68.86483 -53,101c-23.7247,40.47155 -47.2331,83.3104 -78,119c-22.74807,26.38776 -50.71073,48.03111 -79,68c-5.13559,3.62512 -22.24478,16.08918 -29,22c-1.29308,1.13145 -8.83955,10 -11,10"/></g></svg>