<svg version="1.1" xmlns="http://www.w3.org/2000/svg" xmlns:xlink="http://www.w3.org/1999/xlink" width="2467.5" height="2467.5"><g fill="none" fill-rule="nonzero" stroke="#181818" stroke-width="12" stroke-linecap="round" stroke-linejoin="round" stroke-miterlimit="10" stroke-dasharray="" stroke-dashoffset="0" font-family="none" font-weight="none" font-size="none" text-anchor="none" style="mix-blend-mode: normal"><path d="M608.25,496c-0.1926,-0.07773 -0.3852,-0.15546 0.001,0c0.3862,0.15546 1.35119,0.54412 7.999,-1c6.64781,-1.54412 18.97842,-5.02103 29,-7c10.02158,-1.97897 17.73411,-2.46 28,-4c10.26589,-1.54 23.08515,-4.13897 37,-5c13.91485,-0.86103 28.92531,0.01587 44,0c15.07469,-0.01587 30.21362,-0.92451 45,0c14.78638,0.92451 29.2202,3.68218 49,7c19.7798,3.31782 44.90559,7.19578 64,12c19.09441,4.80422 32.15745,10.53471 50,17c17.84255,6.46529 40.4646,13.66539 55,19c14.5354,5.33461 20.98414,8.80372 32,14c11.01586,5.19628 26.59883,12.11974 37,18c10.40117,5.88026 15.62054,10.71734 21,15c5.37946,4.28266 10.91901,8.01092 17,13c6.08099,4.98908 12.70343,11.23898 17,17c4.29657,5.76102 6.26728,11.03316 10,18c3.73272,6.96684 9.22746,15.62839 13,22c3.77254,6.37161 5.8229,10.45327 13,21c7.1771,10.54673 19.48094,27.55852 28,40c8.51906,12.44148 13.25332,20.31266 18,27c4.74668,6.68734 9.50577,12.19083 17,19c7.49423,6.80917 17.72359,14.924 25,20c7.27641,5.076 11.59986,7.11315 14,8c2.40014,0.88685 2.87696,0.62338 5,1c2.12304,0.37662 5.8923,1.39332 10,0c4.1077,-1.39332 8.55385,-5.19666 13,-9c4.44615,-3.80334 7.22307,-7.40167 10,-11" opacity="0.75"/></g></svg>