<svg version="1.1" xmlns="http://www.w3.org/2000/svg" xmlns:xlink="http://www.w3.org/1999/xlink" width="1000" height="1000"><g fill="none" fill-rule="nonzero" stroke="#402f95" stroke-width="20" stroke-linecap="round" stroke-linejoin="round" stroke-miterlimit="10" stroke-dasharray="" stroke-dashoffset="0" font-family="none" font-weight="none" font-size="none" text-anchor="none" style="mix-blend-mode: normal"><path d="M450,315c1.00183,0 -0.8016,14.00801 -1,15c-3.92793,19.63963 -8.70658,38.12367 -11,58c-3.68104,31.90233 -5,63.81023 -5,96c0,7.61317 -2.57347,39.49285 -1,45c3.95239,13.83336 18.56388,31.61351 30,40c31.5506,23.13711 65.73055,26.55481 102,14c31.80489,-11.00938 50.51638,-18.15072 78,-38c5.92653,-4.28027 10.51826,-10.16317 16,-15c15.21723,-13.42697 22.75336,-19.17788 29,-40c0.96235,-3.20783 5.13034,-8.60897 4,-12c-1.17388,-3.52163 -9.55039,-9.02879 -13,-11c-18.14103,-10.3663 -17.295,-2.40999 -25,13c-3,6 -6.50864,11.77159 -9,18c-14.64688,36.6172 -24.27975,62.16076 -11,102c12.80098,38.40294 41.79882,67.8842 66,99c23.65465,30.41313 39.24356,43.05155 34,85c-4.29521,34.36164 -29.96596,48.41885 -60,57c-10.96392,3.13255 -20.63443,7.5793 -32,9c-13.64379,1.70547 -29.17727,-4.58061 -42,-8c-17.98737,-4.79663 -36.94897,-6.48724 -55,-11c-10.61037,-2.65259 -36.81672,-15 -46,-15"/></g></svg>