<svg version="1.1" xmlns="http://www.w3.org/2000/svg" xmlns:xlink="http://www.w3.org/1999/xlink" width="1932" height="1932"><g fill="none" fill-rule="nonzero" stroke="#181818" stroke-width="12" stroke-linecap="round" stroke-linejoin="round" stroke-miterlimit="10" stroke-dasharray="" stroke-dashoffset="0" font-family="none" font-weight="none" font-size="none" text-anchor="none" style="mix-blend-mode: normal"><path d="M851.25,380c-0.30994,-0.30083 -0.61989,-0.60165 0.001,0c0.62089,0.60165 2.17261,2.10578 3.999,4c1.82639,1.89422 3.92743,4.17853 9,7c5.07257,2.82147 13.11666,6.18011 20,8c6.88334,1.81989 12.60593,2.10102 21,4c8.39407,1.89898 19.45962,5.41579 29,9c9.54038,3.58421 17.55558,7.2358 26,11c8.44442,3.7642 17.31804,7.64102 24,11c6.68196,3.35898 11.17224,6.20014 21,13c9.82776,6.79986 24.99298,17.55844 38,28c13.00702,10.44156 23.85583,20.56611 32,28c8.14417,7.43389 13.58369,12.17713 22,20c8.41631,7.82287 19.80939,18.72536 31,30c11.19061,11.27464 22.17875,22.92141 33,35c10.82125,12.07859 21.47563,24.58899 30,35c8.52437,10.41101 14.91875,18.72264 20,27c5.08125,8.27736 8.84937,16.52044 11,21c2.15063,4.47956 2.68376,5.19559 5,11c2.31624,5.80441 6.41557,16.69718 9,26c2.58443,9.30282 3.65396,17.01567 4,23c0.34604,5.98433 -0.0314,10.24013 0,18c0.0314,7.75987 0.47163,19.02382 -2,29c-2.47163,9.97618 -7.85513,18.6646 -13,26c-5.14487,7.3354 -10.05111,13.31778 -15,19c-4.94889,5.68222 -9.94041,11.06427 -17,17c-7.05959,5.93573 -16.18723,12.42512 -22,16c-5.81277,3.57488 -8.31065,4.23525 -14,7c-5.68935,2.76475 -14.57016,7.63389 -23,11c-8.42984,3.36611 -16.40871,5.2292 -24,7c-7.59129,1.7708 -14.795,3.44932 -23,4c-8.205,0.55068 -17.41128,-0.02648 -24,0c-6.58872,0.02648 -10.55986,0.65658 -15,0c-4.44014,-0.65658 -9.34927,-2.59985 -13,-4c-3.65073,-1.40015 -6.04307,-2.25719 -8,-3c-1.95693,-0.74281 -3.47847,-1.37141 -5,-2c-1.52153,-0.62859 -1.26077,-2.8143 -1,-5" opacity="0.75"/></g></svg>