<svg version="1.1" xmlns="http://www.w3.org/2000/svg" xmlns:xlink="http://www.w3.org/1999/xlink" width="1356" height="1356"><g fill="none" fill-rule="nonzero" stroke="#181818" stroke-width="12" stroke-linecap="round" stroke-linejoin="round" stroke-miterlimit="10" stroke-dasharray="" stroke-dashoffset="0" font-family="none" font-weight="none" font-size="none" text-anchor="none" style="mix-blend-mode: normal"><path d="M228,295c7.27662,0 19.64754,5.66189 25,7c19.62232,4.90558 40.81573,6.34889 61,7c69.73158,2.24941 140.13901,-2.87095 209,-14c40.19261,-6.49578 80.4678,-16.27897 120,-26c16.01532,-3.93819 31.81284,-8.84153 48,-12c5.92518,-1.15613 12.19535,-3.65847 18,-2c7.82348,2.23528 9.42494,18.51713 11,23c4.96615,14.13442 11.08948,27.84616 16,42c8.71264,25.11291 17.98149,53.65641 22,80c1.00505,6.58865 1.17406,36.12303 1,45c-0.98231,50.09781 -5.66575,101.77579 -27,148c-22.45964,48.66255 -76.8455,59 -125,59c-85.66364,0 -167.39555,-35.10586 -236,-85" opacity="0.99"/><path d="M373,892c0.66783,0 -0.32428,1.41618 0,2c1.39234,2.50671 3.1478,4.81103 5,7c4.64542,5.49005 8.11142,7.68171 14,12c16.30481,11.95686 36.18957,20.85363 56,25c35.29304,7.38692 53.15316,2.65036 90,-7c76.928,-20.14781 145.52059,-65.62114 193,-130c8.68728,-11.77936 15.24749,-25.0144 22,-38c28.18079,-54.19383 47.85803,-105.23854 59,-165c3.32416,-17.82957 7.16007,-36.63939 5,-55c-0.68924,-5.85854 -2.57935,-14 -8,-14" opacity="0.99"/></g></svg>