<svg version="1.1" xmlns="http://www.w3.org/2000/svg" xmlns:xlink="http://www.w3.org/1999/xlink" width="1080" height="1080"><g fill="none" fill-rule="nonzero" stroke="#181818" stroke-width="12" stroke-linecap="round" stroke-linejoin="round" stroke-miterlimit="10" stroke-dasharray="" stroke-dashoffset="0" font-family="none" font-weight="none" font-size="none" text-anchor="none" style="mix-blend-mode: normal"><path d="M263.54031,231.05675c2.43023,0 -1.05424,4.76168 -1.20065,7.1875c-0.4369,7.23874 -1.31956,14.6249 0,21.75575c4.01258,21.68387 15.0143,46.00754 26.97366,64.50247c28.26816,43.7162 74.13419,75.71117 120.30017,97.69327c17.97467,8.5587 36.37774,17.77694 56.55841,19.71216c4.54019,0.43538 14.24911,1.7767 18.40869,-0.54687c0.3656,-0.20423 0.0506,-10.8596 0,-11.4227c-0.95264,-10.6005 -5.46593,-20.22818 -6.15131,-30.57565c-0.14489,-2.18747 -2.91388,-3.31373 -4.6546,-4.64636c-7.30656,-5.59362 -24.54452,-16.99156 -32.21628,-21.46384c-3.50137,-2.04113 -7.20417,-3.71984 -10.87582,-5.43585c-3.5398,-1.65439 -9.30992,-7.36022 -11.06497,-3.86923c-1.91201,3.8032 -1.20065,15.71202 -1.20065,18.8158c0,15.24259 0,30.48519 0,45.72778c0,56.46357 -6.31455,112.13554 -8.13324,168.5321c-0.55524,17.21764 -1.42249,33.89197 -2.9852,51.07318c-1.2035,13.2319 3.34122,40.61941 -18.97614,31.27057c-5.65011,-2.36686 -11.15405,-5.06856 -16.73108,-7.60284" opacity="0.99"/></g></svg>