<svg version="1.1" xmlns="http://www.w3.org/2000/svg" xmlns:xlink="http://www.w3.org/1999/xlink" width="1080" height="1080"><g fill="none" fill-rule="nonzero" stroke="#181818" stroke-width="12" stroke-linecap="round" stroke-linejoin="round" stroke-miterlimit="10" stroke-dasharray="" stroke-dashoffset="0" font-family="none" font-weight="none" font-size="none" text-anchor="none" style="mix-blend-mode: normal"><path d="M661.20892,420.29196c0.60998,0 5.6547,-14.53711 5.99506,-15.30017c4.9982,-11.20576 11.02595,-22.73196 18.37994,-32.53702c16.2046,-21.60555 37.05208,-39.97014 54.39142,-60.49341c15.76514,-18.66 28.9019,-39.70761 44.8808,-58.0551c6.97441,-8.00825 16.5636,-18.0454 26.18005,-22.85362c0.99099,-0.49549 7.31228,-6.16002 7.48358,-5.98685c7.25455,7.33383 7.11761,21.36341 7.11761,30.92928c0,21.45489 -2.37874,46.13413 1.09375,67.12584c5.4247,32.79311 11.75403,65.65382 15.9046,98.97614c2.03067,16.30291 1.96492,35.12374 -0.00415,51.40625c-3.01214,24.90779 0,51.84358 0,76.91205" opacity="0.99"/><path d="M371.69409,419.65463c0.67369,0 -0.96676,-6.45231 -1.10196,-6.66531c-4.4813,-7.06027 -10.04194,-14.19985 -15.5181,-20.4523c-12.65331,-14.44702 -25.53216,-28.94958 -37.10529,-44.375c-6.41901,-8.55567 -12.8289,-17.90029 -18.68008,-26.78043c-11.43913,-17.36076 -22.60162,-32.89142 -36.13489,-48.39639c-7.74422,-8.8725 -20.09074,-14.2618 -26.38156,-24.02548c-2.69824,-4.18782 -7.27191,-7.69119 -10.43587,-11.87912c-0.68838,-0.91116 -4.28763,-7.12031 -5.29193,-7.10937c-1.70874,0.01861 -2.33336,14.3958 -2.61513,15.90872c-3.64754,19.58535 -7.91119,37.45527 -7.91119,58.22778c0,23.55354 -4.57887,70.1839 -0.00822,90.28784c1.58673,6.97923 -2.25357,18.93475 0.92105,25.35364c3.62811,7.33581 2.80811,21.60276 3.66365,29.66281c1.20433,11.34602 4.37056,21.3527 5.5551,32.51233c0.78377,7.38397 -0.37489,15.09575 0.54688,22.49591c1.26383,10.14631 7.06827,22.23323 7.06827,31.82156" opacity="0.99"/><path d="M599.14478,622.49591c29.22878,0 59.20795,-2.73443 88.7829,-1.41858c13.33591,0.59334 26.65585,2.32605 39.99176,2.91937c9.70768,0.4319 19.49913,-0.00402 29.12006,1.36102c5.93639,0.84227 10.48108,1.4109 10.48108,1.57898" opacity="0.99"/><path d="M615.4071,663.77472c1.30435,0 0.94909,2.4677 1.7475,3.49915c2.46669,3.18666 5.53894,5.86813 8.54443,8.55261c15.18807,13.56586 32.64274,25.00529 46.93671,39.45313" opacity="0.99"/></g></svg>