<svg version="1.1" xmlns="http://www.w3.org/2000/svg" xmlns:xlink="http://www.w3.org/1999/xlink" width="1000" height="1000"><g fill="none" fill-rule="nonzero" stroke="none" stroke-width="none" stroke-linecap="round" stroke-linejoin="round" stroke-miterlimit="10" stroke-dasharray="" stroke-dashoffset="0" font-family="none" font-weight="none" font-size="none" text-anchor="none" style="mix-blend-mode: normal"><path d="M481,517c2.33436,0 -0.19367,4.67369 0,7c0.53194,6.38969 2.3921,12.61709 3,19c2.06898,21.72427 2.91272,43.38907 6,65c5.19028,36.33198 3.12713,73.45344 8,110c1.55431,11.65735 7.07502,48.77495 3,61c-3.57438,10.72315 -2.39846,23.78922 -4,35c-1.74545,12.21817 -5,23.23295 -5,36c0,4.62142 2.58175,18.8365 0,24c-1.27864,2.55728 -2,9.24262 -2,12" stroke="#40e755" stroke-width="20"/><path d="M343,391c2.08367,0 4.90202,9.35303 6,11c7.47483,11.21224 9.54148,19.54148 18,28c2.18387,2.18387 1.64673,8.64673 4,11c5.30319,5.30319 17.24288,12.24288 23,18c11.59404,11.59404 32.37591,30.59398 54,36c7.70068,1.92517 17.43574,3.21787 25,7c7.5217,3.76085 29.88244,-3.76488 33,-10c6.0923,-12.18459 17.32197,-20.98296 26,-34c5.47219,-8.20829 9.57174,-17.57174 15,-23c1.20083,-1.20083 1.1315,-6.26299 2,-8c3.75616,-7.51231 12.15554,-34.15554 15,-37c1.73425,-1.73425 -0.53114,-8.46886 1,-10c7.2421,-7.2421 -1.74358,-42.74358 -6,-47c-2.03875,-2.03875 -0.39667,-11 -5,-11c-2.00754,0 -6.70556,7.70556 -8,9c-4.71351,4.71351 -13.82579,11.4129 -21,15c-22.51652,11.25826 -41.5887,17.51774 -69,23c-24.56654,4.91331 -49.77552,-0.61224 -71,10c-6.06298,3.03149 -15.70678,0.70678 -20,5c-2.14725,2.14725 -16.84466,0.84466 -21,5c-1.12682,1.12682 -3,-1.5344 -3,1" stroke-opacity="0.841" stroke="#e74040" stroke-width="9"/></g></svg>