<svg version="1.1" xmlns="http://www.w3.org/2000/svg" xmlns:xlink="http://www.w3.org/1999/xlink" width="1000" height="1000"><g fill="none" fill-rule="nonzero" stroke="#402f95" stroke-width="20" stroke-linecap="round" stroke-linejoin="round" stroke-miterlimit="10" stroke-dasharray="" stroke-dashoffset="0" font-family="none" font-weight="none" font-size="none" text-anchor="none" style="mix-blend-mode: normal"><path d="M462,329c2.33333,0 0,4.66667 0,7c0,7 0,14 0,21c0,27.20472 -1.42935,54.84237 0,82c1.79449,34.09528 4.17449,69.22145 9,103c3.05736,21.40154 9.6439,42.30233 11,64c4.24412,67.90594 1,136.89332 1,205"/><path d="M203,549c4.77264,0 9.24697,2.56789 14,3c12.94661,1.177 26.00859,0.47242 39,0c83.81012,-3.04764 167.19459,-15.62678 250,-28c32.87073,-4.91172 65.441,-10.3402 98,-17c10.85574,-2.22049 21.19161,-6.5594 32,-9c7.55263,-1.70543 26.37815,-3.62545 36,-5c7.99594,-1.14228 15.88756,4 25,4"/></g></svg>