<svg version="1.1" xmlns="http://www.w3.org/2000/svg" xmlns:xlink="http://www.w3.org/1999/xlink" width="1084.99219" height="1084.99219"><g fill="none" fill-rule="nonzero" stroke="none" stroke-width="none" stroke-linecap="round" stroke-linejoin="round" stroke-miterlimit="10" stroke-dasharray="" stroke-dashoffset="0" font-family="none" font-weight="none" font-size="none" text-anchor="none" style="mix-blend-mode: normal"><path d="M395.19174,338.96521c-4.7187,-9.4868 -9.4374,-18.97361 0.22144,-28.80673c9.65884,-9.83312 33.69522,-20.01257 55.86719,-21.43494c22.17196,-1.42237 42.47951,5.91233 75.31302,10.3302c32.83351,4.41787 78.19298,5.9189 97.61444,2.31348c19.42146,-3.60542 12.90492,-12.31729 18.6239,19.27026c5.71898,31.58756 23.67349,103.47455 37.42792,139.69818c13.75442,36.22363 23.30876,36.7839 32.8631,37.34418c9.55434,0.56027 29.4351,1.63544 49.31586,2.7106" stroke-opacity="0.80978" stroke="#0d0d1b" stroke-width="21.13461"/><path d="M840.11511,419.54077c51.25006,18.18558 60.59937,19.02536 60.29883,31.68164" stroke-opacity="0.66634" stroke="#252503" stroke-width="9.68743"/><path d="M854.14264,574.42102c-1.94143,2.89225 -3.88285,5.7845 -4.08148,9.69434c-0.19863,3.90984 1.34554,8.83727 -11.53827,1.52313c-12.88381,-7.31414 -40.1956,-26.86984 -67.50739,-46.42554c-27.31179,-19.5557 -162.79306,-1.15972 -298.27432,17.23627" stroke-opacity="0.7437" stroke="#1b0f27" stroke-width="25.0678"/><path d="M277.63379,379.4299c11.44981,17.24506 22.89963,34.49011 30.89203,40.22125c7.9924,5.73114 12.52739,-0.05164 2.75974,-8.03595c-9.76765,-7.98431 -33.83795,-18.17014 -46.85663,-13.81436c-13.01868,4.35578 -14.98573,23.25316 -12.66255,44.21716c2.32318,20.96401 8.9366,43.99463 11.22432,50.44562c2.28772,6.45098 0.24975,-3.67767 10.74167,-5.30881c10.49191,-1.63113 33.51371,5.23526 34.99023,23.6904c1.47652,18.45514 -18.59224,48.49904 -19.73303,56.69659c-1.1408,8.19756 16.64637,-5.45122 18.05432,-8.43323c1.40796,-2.982 -13.56329,4.70277 -23.95502,6.51587c-10.39172,1.8131 -16.20392,-2.24549 -22.01611,-6.30408c-5.8122,-4.05859 32.27612,-0.79559 70.36444,2.46741" stroke-opacity="0.80116" stroke="#071c0b" stroke-width="14.44172"/><path d="M763.12543,450.3378c-11.13275,68.35806 -0.59381,34.34695 -4.29065,38.3356" stroke-opacity="0.92401" stroke="#ce35ff" stroke-width="9.68743" opacity="0.5"/><path d="M532.25012,496.09872c19.7063,-5.01987 -29.06454,35.33279 -84.42249,33.06204" stroke-opacity="0.5912" stroke="#ff1ae6" stroke-width="13.95432" opacity="0.5"/><path d="M263.80862,479.92584c3.51675,-40.54987 0.84665,-28.8735 9.13293,-35.31964" stroke-opacity="0.29647" stroke="#743d2d" stroke-width="9.68743" opacity="0.5"/><path d="M418.77798,327.88895c39.16104,-14.39271 78.32207,-28.78542 92.94492,-17.48856c14.62284,11.29686 4.70749,48.28329 -5.20786,85.26971c-9.91535,36.98643 -44.36089,32.66021 -78.80643,28.33398" stroke-opacity="0.74633" stroke="#fff119" stroke-width="21.03617" opacity="0.5"/><path d="M254.41109,575.8905c15.50936,19.64642 31.01872,39.29284 48.31502,22.48712c17.2963,-16.80572 36.37953,-70.06358 55.46277,-123.32144c19.08324,-53.25786 -3.06878,37.49212 -25.22079,128.2421" stroke-opacity="0.22874" stroke="#eda6d8" stroke-width="15.89295" opacity="0.5"/><path d="M281.91998,462.25906c7.97231,-16.6246 15.94461,-33.2492 18.69598,-29.20187c2.75137,4.04732 0.28181,28.76657 -2.18774,53.48581c-2.46956,24.71924 -26.83996,9.34651 -51.21036,-6.02621" stroke-opacity="0.15508" stroke="#e3b991" stroke-width="10.97275" opacity="0.5"/><path d="M280.22235,561.08044c16.3917,-0.14423 32.78341,-0.28845 49.17511,-0.43268c16.3917,-0.14423 80.04352,-1.45547 143.69534,-2.76672" stroke-opacity="0.87478" stroke="#30889c" stroke-width="11.50324" opacity="0.5"/><path d="M548.22046,307.55118c-55.26758,25.56671 -96.41635,-43.09076 -152.18936,-80.66046" stroke-opacity="0.62695" stroke="#9b0cf4" stroke-width="20.97332" opacity="0.5"/><path d="M274.35919,477.04865c-10.90699,-20.52959 -21.81398,-41.05918 -46.37207,-58.25403c-24.5581,-17.19485 -62.7673,-31.05496 -100.9765,-44.91507c-38.2092,-13.86011 -60.02357,6.36713 -81.83793,26.59436" stroke-opacity="0.61418" stroke="#387ed9" stroke-width="9.68743" opacity="0.5"/><path d="M261.9501,509.62296c27.52039,19.67298 55.04079,39.34596 61.66156,37.93594c6.62077,-1.41001 -7.65807,-23.90302 -21.93692,-46.39603c-14.27885,-22.49301 64.56622,-41.98834 143.41129,-61.48367" stroke-opacity="0.29178" stroke="#771535" stroke-width="10.18905" opacity="0.5"/><path d="M280.78165,450.74033c12.5721,-22.31004 25.14421,-44.62008 37.71631,-66.93011c12.5721,-22.31004 30.13531,-30.96752 47.69852,-39.625" stroke-opacity="0.36321" stroke="#c43a93" stroke-width="20.34103" opacity="0.5"/><path d="M744.82605,451.52884c0.66243,7.34327 1.32487,14.68654 1.9873,22.02982c0.66243,7.34327 -21.50411,3.35773 -43.67065,-0.62781" stroke-opacity="0.98004" stroke="#fcb7bc" stroke-width="20.32529" opacity="0.5"/><path d="M415.61398,242.56693c-21.39923,4.16136 -42.79846,8.32272 -64.19769,12.48409c-21.39923,4.16136 6.13872,1.72511 33.67667,-0.71114" stroke-opacity="0.18716" stroke="#b79bde" stroke-width="9.68743" opacity="0.5"/><path d="M389.78818,232.14153c2.04125,44.81402 4.0825,89.62805 -0.44409,108.08403c-4.5266,18.45598 -15.62104,10.55392 -26.71548,2.65186c-11.09444,-7.90206 16.68554,-15.20677 44.46552,-22.51147" stroke-opacity="0.59551" stroke="#10600e" stroke-width="13.93177" opacity="0.5"/><path d="M446.05161,446.27631c-52.09207,-3.72888 -58.45938,-19.15997 -0.4617,-36.09573" stroke-opacity="0.79162" stroke="#0e2a00" stroke-width="15.78451" opacity="0.5"/><path d="M350.08536,582.35388c-16.56685,42.92528 -33.13369,85.85057 -42.29944,109.99628c-9.16575,24.14571 -10.93039,29.51185 -12.69504,34.87799c-1.76465,5.36614 22.79447,-77.83429 47.35358,-161.03473" stroke-opacity="0.29619" stroke="#619b00" stroke-width="12.01596" opacity="0.5"/><path d="M758.28796,483.74115c16.27179,2.20785 32.54358,4.41569 48.81537,6.62354c16.27179,2.20785 -2.61102,-34.40409 -21.49384,-71.01602" stroke-opacity="0.09347" stroke="#bdf408" stroke-width="9.68743" opacity="0.5"/><path d="M304.20947,618.23364c4.81852,-26.4656 9.63703,-52.93119 0.84933,-90.9176c-8.7877,-37.98641 -31.18161,-87.49363 -53.57552,-137.00085c-22.39391,-49.50722 15.95433,-31.08061 54.30257,-12.65399" stroke-opacity="0.69472" stroke="#910067" stroke-width="11.6616" opacity="0.5"/><path d="M758.75055,497.47107c-2.47102,-32.28135 -4.94204,-64.5627 -27.44049,-90.03244c-22.49845,-25.46974 -65.02434,-44.12786 -107.55023,-62.78598c-42.52589,-18.65812 -25.98902,54.51219 -9.45215,127.6825" stroke-opacity="0.628" stroke="#882f87" stroke-width="23.79688" opacity="0.5"/><path d="M437.16452,400.62112c-5.94084,-12.00008 -11.88168,-24.00015 -17.11304,-27.13086c-5.23136,-3.13071 -9.75324,2.60796 -14.27512,8.34662c-4.52188,5.73866 11.90122,-52.93201 28.32431,-111.60269" stroke-opacity="0.21975" stroke="#e24ea7" stroke-width="12.07863" opacity="0.5"/><path d="M752.88837,487.41028c-25.7686,-5.21201 -51.53719,-10.42401 -77.30579,-15.63602c-25.7686,-5.21201 -59.30343,5.05344 -92.83826,15.31888" stroke-opacity="0.91414" stroke="#e0d464" stroke-width="11.63454" opacity="0.5"/><path d="M329.61618,591.56006c-36.7331,49.67517 -73.46619,99.35034 -84.43327,136.10907c-10.96708,36.75873 3.83185,60.60101 18.63078,84.4433c14.79893,23.84229 19.42008,30.2265 24.04123,36.61072" stroke-opacity="0.64855" stroke="#504ca3" stroke-width="9.68743" opacity="0.5"/><path d="M234.3705,534.96332c31.60204,25.50231 63.20408,51.00461 55.60289,41.60498c-7.60119,-9.39963 -54.40561,-53.7012 -101.21004,-98.00278c-46.80442,-44.30157 14.98215,-7.00033 76.76872,30.3009" stroke-opacity="0.59086" stroke="#1ebd93" stroke-width="9.68743" opacity="0.5"/><path d="M768.49072,498.34634c7.72306,-40.01446 15.44613,-80.02891 23.16919,-120.04337c7.72306,-40.01446 -9.7284,-27.78231 -27.17987,-15.55017" stroke-opacity="0.58184" stroke="#0e6c42" stroke-width="9.68743" opacity="0.5"/><path d="M52.91774,407.60391c1.0736,37.94925 70.52729,38.72501 39.6729,36.12039" stroke-opacity="0.73866" stroke="#348dea" stroke-width="9.68743" opacity="0.5"/><path d="M324.65872,354.995c-30.90117,-17.95336 -61.80234,-35.90672 -92.70351,-53.86008c-30.90117,-17.95336 -49.93184,-10.41636 -68.96251,-2.87936" stroke-opacity="0.07163" stroke="#bfaddf" stroke-width="9.68743" opacity="0.5"/><path d="M547.48523,197.20395c8.95099,55.91879 17.90199,111.83758 39.24677,130.22098c21.34478,18.3834 55.08334,-0.7686 88.8219,-19.92059c33.73856,-19.152 17.49578,-54.77931 1.25299,-90.40662" stroke-opacity="0.21134" stroke="#c3963b" stroke-width="9.68743" opacity="0.5"/><path d="M334.78305,259.05042c-28.92884,0.60349 -57.85767,1.20698 -66.97308,-2.75613c-9.11541,-3.96312 1.5826,-12.49284 12.28061,-21.02257c10.69801,-8.52973 36.33967,-38.044 61.98132,-67.55827" stroke="#6fd285" stroke-width="9.68743" opacity="0.5"/><path d="M26.93876,445.08398c34.03641,54.64639 11.33196,97.41394 17.06324,73.05951" stroke-opacity="0.17458" stroke="#c789c9" stroke-width="11.23447" opacity="0.5"/><path d="M503.3967,665.84485c-38.91452,49.82495 31.12961,74.63965 43.04819,23.2746" stroke-opacity="0.44947" stroke="#d8ba77" stroke-width="13.15345" opacity="0.5"/><path d="M947.61658,259.24911c-63.52063,-11.44493 -64.94769,-12.4534 -160.25775,11.96375" stroke-opacity="0.7144" stroke="#50d146" stroke-width="12.34795" opacity="0.5"/><path d="M133.36168,802.53778c-0.15413,6.36591 -30.20402,-7.77325 23.40099,15.13538" stroke-opacity="0.53188" stroke="#70d888" stroke-width="9.68743" opacity="0.5"/><path d="M183.86777,556.32361c15.30059,31.28065 30.60118,62.5613 39.82201,80.00653c9.22083,17.44523 12.36189,21.05504 15.50296,24.66486c3.14107,3.60981 2.84263,15.30948 2.54419,27.00916" stroke-opacity="0.44006" stroke="#19179e" stroke-width="9.68743" opacity="0.5"/><path d="M687.914,965.28271c75.46039,3.98566 119.8186,4.20685 97.48615,-1.40466" stroke-opacity="0.54515" stroke="#00990d" stroke-width="9.68743" opacity="0.5"/><path d="M726.74683,983.51062c-11.21987,84.68085 -22.43974,169.36169 -18.36182,203.95715c4.07792,34.59546 23.45363,19.10553 42.82935,3.6156c19.37571,-15.48993 20.4236,-40.47745 21.4715,-65.46497" stroke-opacity="0.85021" stroke="#4bc500" stroke-width="9.68743" opacity="0.5"/><path d="M277.87601,15.77521c-3.90526,-47.45104 -7.81053,-94.90208 -11.71579,-142.35312c-3.90526,-47.45104 0.4787,-25.8646 4.86267,-4.27815" stroke-opacity="0.73745" stroke="#8160c9" stroke-width="9.68743" opacity="0.5"/><path d="M339.59708,913.77045c-12.95433,27.02029 -25.90866,54.04058 -14.21838,41.74939c11.69028,-12.29119 48.02516,-63.89385 84.36005,-115.49652c36.33488,-51.60267 56.64535,-21.49024 76.95581,8.62219" stroke-opacity="0.60166" stroke="#4e5362" stroke-width="9.68743" opacity="0.5"/><path d="M350.33676,177.28568c14.9261,17.07596 29.8522,34.15192 55.2265,61.00899c25.3743,26.85707 61.19679,63.49524 97.01929,100.13341c35.82249,36.63817 27.94505,31.74888 20.0676,26.85959" stroke-opacity="0.73929" stroke="#1aab9d" stroke-width="14.66998" opacity="0.5"/><path d="M767.33826,492.93076c-23.6214,23.7449 -60.76575,55.55234 -39.12854,18.87268" stroke-opacity="0.4589" stroke="#db0e1e" stroke-width="9.68743" opacity="0.5"/><path d="M930.25635,1012.1944c34.42926,53.31329 59.97394,78.80573 79.1134,106.18146" stroke-opacity="0.73421" stroke="#e6aa51" stroke-width="9.68743" opacity="0.5"/><path d="M443.61401,923.76477c48.8204,-90.76788 27.68088,-50.21021 48.11633,74.29053" stroke-opacity="0.74736" stroke="#b2ff16" stroke-width="9.68743" opacity="0.5"/><path d="M910.48328,667.32886c18.46655,-27.21429 -15.62909,8.18457 -0.03369,71.76624" stroke-opacity="0.27276" stroke="#7dfd40" stroke-width="9.68743" opacity="0.5"/><path d="M121.64552,850.5119c35.16878,18.54419 70.33757,37.08838 96.02295,43.98932c25.68538,6.90094 41.88736,2.15863 58.08934,-2.58368c16.20198,-4.74231 -26.47707,-27.13458 -69.15613,-49.52686" stroke-opacity="0" stroke="#861635" stroke-width="9.95285" opacity="0.5"/><path d="M808.26611,891.12762c53.27417,79.44226 46.80817,74.67004 54.07184,-27.27612" stroke-opacity="0.37348" stroke="#5d82d3" stroke-width="9.68743" opacity="0.5"/><path d="M228.70427,288.51175c47.95177,-55.36343 50.28157,-51.79829 81.61641,-20.44284" stroke-opacity="0.77768" stroke="#50c943" stroke-width="9.68743" opacity="0.5"/><path d="M730.88184,496.58197c-4.35012,2.46596 -8.70024,4.93193 -12.53528,-6.56824c-3.83504,-11.50016 -7.15501,-36.96645 -10.47498,-62.43274c-3.31997,-25.46629 -29.54481,-31.97248 -55.76965,-38.47867" stroke-opacity="0.66152" stroke="#209ca0" stroke-width="11.58725" opacity="0.5"/><path d="M834.32446,1092.42944c-3.19568,21.83252 -0.36542,-8.61511 2.04169,39.19397" stroke-opacity="0.81774" stroke="#85ff44" stroke-width="9.68743" opacity="0.5"/><path d="M14.10857,697.61737c13.24366,3.99685 26.48732,7.99369 39.73098,11.99054c13.24366,3.99685 0.5853,-23.87581 -12.07307,-51.74847" stroke-opacity="0.481" stroke="#38cb82" stroke-width="9.68743" opacity="0.5"/><path d="M367.55487,49.38297c-13.56779,18.74246 -27.13558,37.48492 -34.14594,35.72409c-7.01036,-1.76083 -7.46328,-24.02494 -7.9162,-46.28905c-0.45292,-22.26411 11.74374,-4.5576 23.9404,13.14891" stroke-opacity="0.66244" stroke="#6498f6" stroke-width="9.68743" opacity="0.5"/><g transform="translate(-247,-175)" stroke-opacity="0.45066" stroke="#a8a182" stroke-width="9.68743"><path d="M579.9931,704.80554c12.56146,-9.3653 25.12292,-18.73059 37.68439,-28.09589c12.56146,-9.3653 13.23401,-29.35529 13.90656,-49.34528" opacity="0.5"/></g><path d="M308.72266,285.99609c-0.46681,0.05751 -0.93363,0.11502 0.001,0c0.93463,-0.11502 3.27069,-0.40257 4.999,-1c1.72831,-0.59743 2.84887,-1.50473 7,-2c4.15113,-0.49527 11.33284,-0.57849 21,-1c9.66716,-0.42151 21.81978,-1.18131 31,0c9.18022,1.18131 15.38805,4.30373 21,10c5.61195,5.69627 10.62804,13.96639 14,20c3.37196,6.03361 5.09981,9.8307 6,15c0.90019,5.1693 0.97274,11.7108 0,18c-0.97274,6.2892 -2.99076,12.32612 -8,20c-5.00924,7.67388 -13.00969,16.98474 -22,25c-8.99031,8.01526 -18.97048,14.73492 -27,19c-8.02952,4.26508 -14.1084,6.07557 -23,8c-8.8916,1.92443 -20.59592,3.96281 -31,4c-10.40408,0.03719 -19.50793,-1.92682 -29,-4c-9.49207,-2.07318 -19.37234,-4.25555 -28,-7c-8.62766,-2.74445 -16.00269,-6.05099 -18,-9c-1.99731,-2.94901 1.3831,-5.54051 4,-8c2.6169,-2.45949 4.47031,-4.78698 11,-9c6.52969,-4.21302 17.73568,-10.31158 47,-17c29.26432,-6.68842 76.58698,-13.96669 105,-16c28.41302,-2.03331 37.91642,1.17833 46,6c8.08358,4.82167 14.74736,11.25335 18,16c3.25264,4.74665 3.09415,7.80825 3,13c-0.09415,5.19175 -0.12398,12.51364 0,18c0.12398,5.48636 0.40175,9.1372 -1,15c-1.40175,5.8628 -4.48303,13.93758 -6,20c-1.51697,6.06242 -1.46964,10.11248 -2,13c-0.53036,2.88752 -1.63841,4.6125 0,10c1.63841,5.3875 6.0233,14.43751 11,21c4.9767,6.56249 10.54522,10.63744 19,16c8.45478,5.36256 19.79583,12.01273 30,18c10.20417,5.98727 19.27147,11.31165 27,15c7.72853,3.68835 14.11829,5.74066 23,7c8.88171,1.25934 20.25538,1.72571 44,-3c23.74462,-4.72571 59.86021,-14.64351 86,-22c26.13979,-7.35649 42.30378,-12.15166 52,-15c9.69622,-2.84834 12.92467,-3.74986 11,0c-1.92467,3.74986 -9.00244,12.15111 -24,23c-14.99756,10.84889 -37.91489,24.14544 -64,38c-26.08511,13.85456 -55.338,28.26713 -80,38c-24.662,9.73287 -44.73311,14.78603 -78,23c-33.26689,8.21397 -79.72954,19.58874 -110,26c-30.27046,6.41126 -44.34871,7.85901 -57,9c-12.65129,1.14099 -23.8756,1.97524 -26,2c-2.1244,0.02476 4.85111,-0.75995 14,-2c9.14889,-1.24005 20.47114,-2.93543 31,-4c10.52886,-1.06457 20.26431,-1.49833 34,-3c13.73569,-1.50167 31.4716,-4.07123 46,-5c14.5284,-0.92877 25.84929,-0.21673 34,0c8.15071,0.21673 13.13124,-0.06185 26,0c12.86876,0.06185 33.62576,0.46413 44,2c10.37424,1.53587 10.36574,4.20535 11,5c0.63426,0.79465 1.9113,-0.28551 1,7c-0.9113,7.28551 -4.01094,22.93668 -7,31c-2.98906,8.06332 -5.86755,8.53878 -10,12c-4.13245,3.46122 -9.51888,9.90819 -15,15c-5.48112,5.09181 -11.05694,8.82845 -24,15c-12.94306,6.17155 -33.25336,14.778 -52,22c-18.74664,7.222 -35.92963,13.05954 -49,19c-13.07037,5.94046 -22.02813,11.98384 -27,15c-4.97187,3.01616 -5.95785,3.00512 -5,4c0.95785,0.99488 3.85952,2.9957 5,4c1.14048,1.0043 0.51975,1.0121 5,0c4.48025,-1.0121 14.06146,-3.04409 39,-10c24.93854,-6.95591 65.2344,-18.83575 96,-27c30.7656,-8.16425 52.00095,-12.6129 68,-14c15.99905,-1.3871 26.76181,0.28736 31,3c4.23819,2.71264 1.9518,6.46346 -2,11c-3.9518,4.53654 -9.569,9.85881 -15,14c-5.431,4.14119 -10.67578,7.1013 -16,10c-5.32422,2.8987 -10.72788,5.736 -16,10c-5.27212,4.264 -10.41269,9.95472 -13,13c-2.58731,3.04528 -2.62134,3.44513 -3,5c-0.37866,1.55487 -1.10195,4.26477 -2,6c-0.89805,1.73523 -1.97087,2.49578 4,-6c5.97087,-8.49578 18.98544,-26.24789 32,-44c13.01456,-17.75211 34.50728,-39.87606 56,-62" stroke="#e75050" stroke-width="51" opacity="0.24"/></g></svg>