<svg version="1.1" xmlns="http://www.w3.org/2000/svg" xmlns:xlink="http://www.w3.org/1999/xlink" width="1080" height="1080"><g fill="none" fill-rule="nonzero" stroke="none" stroke-width="none" stroke-linecap="none" stroke-linejoin="none" stroke-miterlimit="10" stroke-dasharray="" stroke-dashoffset="0" font-family="none" font-weight="none" font-size="none" text-anchor="none" style="mix-blend-mode: normal"><path d="M419.76654,287.9917c1.99225,0 -1.83784,3.78206 -1.58551,5.75827c0.23672,1.85398 1.87921,3.23511 2.93201,4.77942c4.04528,5.93384 9.19551,10.77664 15.05969,14.9173c15.22952,10.75345 41.66323,14.8969 49.71973,33.27664c3.93347,8.97366 -2.43592,31.16039 -3.39618,38.51102c-3.54702,27.15183 -4.77778,61.2071 16.27301,82.24725c32.25332,32.23702 76.96547,19.94552 111.48438,-0.65259c2.05574,-1.2267 28.09195,-22.94845 32.29315,-27.16452c5.46971,-5.48906 10.43975,-11.45555 15.55151,-17.27942c2.47677,-2.82181 5.13107,-11.77968 7.21045,-8.65347c3.67757,5.52897 -0.2155,27.63777 -0.73529,34.97241c-0.71953,10.15314 -0.38058,20.3975 -1.72333,30.48715c-3.07699,23.12102 -12.89818,44.63599 -18.6673,66.93933c-2.59985,10.05099 -3.85153,20.41531 -6.36951,30.48712" stroke="#181818" stroke-width="12" stroke-linecap="round" stroke-linejoin="round" opacity="0.99"/><path d="M418.16902,576.61761v-288.62592h248.70353v288.62592z" data-paper-data="{&quot;state&quot;:&quot;moving&quot;}" stroke="#000000" stroke-width="1" stroke-linecap="butt" stroke-linejoin="miter"/></g></svg>