<svg version="1.1" xmlns="http://www.w3.org/2000/svg" xmlns:xlink="http://www.w3.org/1999/xlink" width="1080" height="1080"><g fill="none" fill-rule="nonzero" stroke="none" stroke-width="none" stroke-linecap="round" stroke-linejoin="round" stroke-miterlimit="10" stroke-dasharray="" stroke-dashoffset="0" font-family="none" font-weight="none" font-size="none" text-anchor="none" style="mix-blend-mode: normal"><g><g><path d="M348.26846,484.94962c0.61957,-1.58386 1.23914,-3.16773 -1.66403,-0.89362c-2.90317,2.27411 -9.3291,8.4062 18.05759,0c27.38668,-8.4062 88.58597,-31.35068 163.3284,-42.92999c74.74243,-11.57931 163.02801,-11.79345 219.96356,-0.38882c56.93555,11.40463 82.52108,34.42803 105.30011,43.254c22.77903,8.82597 42.75156,3.45451 35.28357,43.84799c-7.46799,40.39348 -42.37649,126.55189 -61.68964,166.53601c-19.31315,39.98412 -23.03095,33.79393 -38.58832,38.72882c-15.55737,4.93489 -42.95431,20.99485 -70.35126,37.05481c-27.39694,16.05996 -146.16618,-50.93264 -264.93542,-117.92523" stroke-opacity="0.99" stroke="#1a1a1a" stroke-width="19.28572"/><path d="M762.18994,1030.17029c-28.82481,1.94981 -57.64962,3.89962 -57.08881,-1.18445c0.56081,-5.08407 30.50724,-17.20201 60.45367,-29.31995c29.94643,-12.11794 62.49177,-6.53108 95.03711,-0.94421" stroke-opacity="0.72507" stroke="#ab47d0" stroke-width="19.28572"/><path d="M443.33862,1073.87024c-24.08395,-15.59455 -48.16791,-31.18911 -59.53055,-27.10803c-11.36264,4.08108 -10.00397,27.83778 -8.64529,51.59448c1.35867,23.7567 19.76195,-14.61353 38.16522,-52.98376" stroke-opacity="0.86488" stroke="#1d5d05" stroke-width="21.21427"/><path d="M431.34299,516.0376c16.76636,-6.20558 33.53271,-12.41115 50.29907,-18.61673c16.76636,-6.20558 -13.88126,15.46858 -44.52887,37.14273" stroke-opacity="0.33617" stroke="#c05522" stroke-width="21.21419"/><path d="M742.14441,250.30942c-2.06549,37.30314 -4.13098,74.60628 -6.19647,111.90942c-2.06549,37.30314 -45.26675,16.17309 -88.46802,-4.95697" stroke-opacity="0.16258" stroke="#ab3b95" stroke-width="19.28572"/><path d="M649.5827,808.34784c17.14582,-41.11767 34.29165,-82.23533 44.06018,-94.88385c9.76853,-12.64852 12.15978,3.17211 14.55103,18.99274c2.39125,15.82063 -30.27462,25.11237 -62.94049,34.40411" stroke-opacity="0.88574" stroke="#7041b1" stroke-width="21.21427"/><path d="M850.93243,843.27313c-14.64299,-2.61849 -29.28597,-5.23698 -43.92896,-7.85547c-14.64299,-2.61849 64.20085,36.36324 143.04468,75.34497" stroke-opacity="0.19342" stroke="#b57e79" stroke-width="21.21428"/><path d="M1055.56641,844.12329c31.79033,-18.57385 63.58067,-37.14769 88.66956,-43.95679c25.08889,-6.80909 43.47633,-1.85343 61.86377,3.10223c18.38744,4.95566 -3.94977,48.87621 -26.28699,92.79675" stroke-opacity="0.46549" stroke="#dc782a" stroke-width="21.21428"/><path d="M631.74219,976.85211c-0.3292,3.16376 -0.65839,6.32751 -24.58618,-5.5434c-23.92779,-11.87091 -71.45418,-38.77649 -118.98056,-65.68207c-47.52638,-26.90558 23.29661,56.9809 94.1196,140.86737" stroke-opacity="0.70198" stroke="#8f1716" stroke-width="21.21428"/><path d="M458.311,419.96146c-10.17053,7.70644 -20.34107,15.41288 -23.33969,20.87952c-2.99862,5.46663 1.17467,8.69346 5.34796,11.92029c4.17329,3.22683 -11.3986,38.75543 -26.97049,74.28403" stroke-opacity="0.02984" stroke="#ebd755" stroke-width="21.21424"/><path d="M769.20599,298.30875c12.41473,23.47195 38.88446,66.7193 18.11481,68.9379" stroke-opacity="0.58031" stroke="#f01acd" stroke-width="19.28572"/><path d="M767.79193,349.91098c27.39193,5.38139 54.78385,10.76278 82.17578,16.14417c27.39193,5.38139 34.01521,1.45109 40.63849,-2.47922" stroke-opacity="0.8294" stroke="#5b0cdf" stroke-width="19.28572"/><path d="M1071.44519,847.21155c-27.86486,17.89383 -55.72973,35.78766 -64.56152,53.47272c-8.8318,17.68506 1.36947,35.16135 11.57074,52.63763c10.20127,17.47629 -27.47163,58.67058 -65.14453,99.86487" stroke-opacity="0.12017" stroke="#77dca2" stroke-width="19.28572"/><path d="M6.87487,601.30115c-53.89001,-9.30299 -107.78002,-18.60598 -117.75297,-9.27069c-9.97295,9.33529 23.97116,37.30885 57.91528,65.28241c33.94411,27.97356 52.6648,-27.53855 71.3855,-83.05066" stroke-opacity="0.72163" stroke="#e14a85" stroke-width="21.21428"/><path d="M717.48267,282.61731c-15.77987,28.46672 -31.55973,56.93343 -47.3396,85.40015c-15.77987,28.46672 -61.79106,-19.4118 -107.80225,-67.29031" stroke-opacity="0.3345" stroke="#e65006" stroke-width="21.21428"/><path d="M555.20068,488.91409c-17.29858,53.39407 -2.80859,9.25418 -19.21429,-33.51685" stroke-opacity="0.1789" stroke="#d8618e" stroke-width="21.21426"/><path d="M431.71246,618.27649c-39.50405,-3.21692 -79.0081,-6.43385 -80.74069,5.27948c-1.73259,11.71333 34.30626,38.35691 70.34512,65.00049c36.03886,26.64358 41.45421,12.77937 46.86957,-1.08484" stroke-opacity="0.87904" stroke="#04a857" stroke-width="19.28572"/><path d="M793.88293,1041.87646c-23.47337,8.85887 -46.94675,17.71773 -50.86438,10.72205c-3.91763,-6.99569 11.72047,-29.84593 27.35858,-52.69617c15.63811,-22.85024 0.44271,-39.48905 -14.75269,-56.12787" stroke-opacity="0.78621" stroke="#cc8d92" stroke-width="21.21428"/><path d="M234.35359,322.03952c48.53703,47.89539 31.49498,26.90756 29.17714,-25.05801" stroke-opacity="0.11036" stroke="#d2d44e" stroke-width="21.21428"/><path d="M173.76788,16.11097c1.48356,-21.63266 2.96712,-43.26532 2.19215,-50.70476c-0.77497,-7.43944 -3.80848,-0.68566 -6.84198,6.06812c-3.0335,6.75378 37.96471,13.29854 78.96292,19.8433" stroke-opacity="0.88097" stroke="#93ff96" stroke-width="19.28572"/><path d="M147.58749,523.68066c-11.0948,-30.63049 -16.12552,22.78107 -59.53165,72.78131" stroke-opacity="0.01074" stroke="#b426be" stroke-width="19.28572"/><path d="M276.47684,755.79083c48.14545,-9.55133 64.62442,-9.76404 71.35159,1.14545" stroke-opacity="0.55832" stroke="#123662" stroke-width="19.28572"/><path d="M166.92354,1012.48248c-0.57711,23.63967 -1.15423,47.27934 -1.73134,70.91901c-0.57711,23.63967 -32.80053,-31.37203 -65.02394,-86.38373" stroke-opacity="0.35074" stroke="#0693a0" stroke-width="21.21428"/><path d="M923.60815,401.96167c-9.0871,3.30429 -18.1742,6.60858 -35.88489,12.84827c-17.71068,6.23969 -44.04495,15.41478 -70.37921,24.58987c-26.33426,9.17509 18.1967,58.61841 62.72766,108.06174" stroke-opacity="0.00926" stroke="#1c74c4" stroke-width="19.28572"/><path d="M629.47998,650.40778c29.38818,-24.05577 58.77637,-48.11153 88.16455,-72.1673c29.38818,-24.05577 -2.66083,-44.71914 -34.70984,-65.38251" stroke-opacity="0.78036" stroke="#43ff1c" stroke-width="19.28572"/><path d="M484.41739,313.30655c8.36506,-0.34587 16.73012,-0.69174 21.7084,-24.62402c4.97829,-23.93228 6.5698,-71.45097 8.16132,-118.96967c1.59151,-47.51869 33.28975,6.48044 64.98798,60.47957" stroke-opacity="0.73651" stroke="#082db9" stroke-width="19.28572"/><path d="M451.38025,494.99014c27.90251,19.58031 55.80501,39.16063 71.63025,31.07626c15.82524,-8.08437 19.5732,-43.83341 23.32117,-79.58246c3.74797,-35.74905 -17.15603,-51.55708 -38.06003,-67.36511" stroke-opacity="0.58377" stroke="#dbb8ca" stroke-width="19.28572"/><path d="M726.21283,555.42767c25.03882,-4.34528 15.401,-6.45941 68.52533,-56.55865" stroke-opacity="0.17071" stroke="#16319c" stroke-width="21.21427"/><path d="M176.0826,98.62035c-13.58809,-2.43959 -40.82097,-45.11763 13.08774,3.49999" stroke-opacity="0.31852" stroke="#c6f439" stroke-width="19.28572"/><path d="M299.54385,494.71927c-35.1113,-53.36276 -76.44836,-65.60507 -47.7316,-58.4574" stroke-opacity="0.65066" stroke="#ee7e78" stroke-width="21.21428"/><path d="M48.83051,55.66461c-50.36326,18.19899 -92.69262,60.24566 -129.88243,25.57134" stroke-opacity="0.93846" stroke="#1d1874" stroke-width="21.21428"/><path d="M291.19446,983.92902c8.83912,-0.65355 17.67825,-1.30711 17.11273,-7.89246c-0.56552,-6.58535 -10.53567,-19.10249 -20.50583,-31.61963c-9.97016,-12.51714 4.78338,-34.24652 19.53693,-55.97589" stroke-opacity="0.29767" stroke="#9af572" stroke-width="21.21428"/><path d="M1025.06201,294.40314c-13.3041,-2.38026 -26.60819,-4.76052 -39.91229,-7.14078c-13.3041,-2.38026 -45.86238,41.05133 -78.42065,84.48291" stroke-opacity="0.45618" stroke="#8c7c6c" stroke-width="21.21364"/></g></g><g><g><path d="M346.48013,483.15717c0.11208,-0.21683 0.22416,-0.43365 -1.6691,2.6926c-1.89326,3.12625 -5.79186,9.59557 21.64478,0.00012c27.43663,-9.59545 86.2085,-35.25568 159.74078,-46.51776c73.53229,-11.26208 161.82499,-8.12601 219.96381,3.19894c58.13882,11.32495 86.12374,30.83878 108.88751,39.66626c22.76377,8.82748 40.30639,6.9686 31.69592,47.43567c-8.61047,40.46707 -43.37402,123.26009 -61.68964,162.94843c-18.31562,39.68833 -20.1833,36.27198 -35.00067,42.31641c-14.81737,6.04443 -42.58444,21.54965 -70.3515,37.05487c-27.76706,15.50522 -146.35352,-51.21172 -264.93997,-117.92865" stroke-opacity="0.99598" stroke="#181819" stroke-width="19.28572"/><path d="M764.60376,1029.42297c-28.99559,2.95997 -57.99118,5.91993 -57.92877,1.20874c0.06241,-4.71119 29.18282,-17.09354 58.30322,-29.47589c29.12041,-12.38235 63.45168,-6.49449 97.78296,-0.60663" stroke-opacity="0.71948" stroke="#ad48ce" stroke-width="19.37639"/><path d="M442.74805,1072.46033c-25.22466,-16.2382 -50.44932,-32.4764 -61.33722,-27.83386c-10.8879,4.64254 -7.43904,30.16581 -3.99017,55.68909c3.44886,25.52327 20.37107,-14.23391 37.29327,-53.99109" stroke-opacity="0.85714" stroke="#1f5b05" stroke-width="20.10227"/><path d="M428.92975,517.52936c17.14463,-6.31234 34.28927,-12.62467 51.4339,-18.93701c17.14463,-6.31234 -11.95585,14.01989 -41.05634,34.35211" stroke-opacity="0.34608" stroke="#be5720" stroke-width="22.85215"/><path d="M741.6358,248.72821c-2.4397,37.83808 -4.87939,75.67617 -7.31909,113.51425c-2.4397,37.83808 -44.06256,15.58173 -85.68542,-6.67462" stroke-opacity="0.15504" stroke="#ad3a96" stroke-width="19.28572"/><path d="M651.0564,807.97424c15.93841,-41.71516 31.87681,-83.43033 41.73419,-96.40674c9.85738,-12.97641 13.63374,2.78593 17.4101,18.54828c3.77636,15.76234 -31.3743,26.93168 -66.52496,38.10101" stroke-opacity="0.87681" stroke="#7144ae" stroke-width="19.97928"/><path d="M849.02692,844.94891c-13.83561,-3.57888 -27.67122,-7.15776 -41.50684,-10.73663c-13.83561,-3.57888 64.52561,36.89196 142.88684,77.36279" stroke-opacity="0.20339" stroke="#b37b7b" stroke-width="23.11162"/><path d="M1053.60254,843.12946c32.12357,-18.72237 64.24713,-37.44474 89.66333,-44.0882c25.4162,-6.64345 44.12503,-1.20799 62.83386,4.22748c18.70883,5.43547 -3.78908,49.11611 -26.28699,92.79675" stroke-opacity="0.4755" stroke="#dd7a28" stroke-width="23.13823"/><path d="M629.40997,979.22815c1.48508,1.80369 2.97015,3.60738 -20.58478,-8.84735c-23.55493,-12.45473 -72.14987,-39.16789 -120.74481,-65.88104c-48.59494,-26.71316 23.46791,56.6253 95.53076,139.96375" stroke-opacity="0.6922" stroke="#8c1a15" stroke-width="21.11841"/><path d="M456.96341,417.59952c-8.66114,7.79627 -17.32228,15.59254 -19.78149,21.15237c-2.45921,5.55983 1.2835,8.88323 5.02621,12.20663c3.74271,3.3234 -11.53329,40.55558 -26.8093,77.78775" stroke-opacity="0.03813" stroke="#e9d953" stroke-width="22.40781"/><path d="M771.57611,296.9313c10.65808,27.14215 38.12817,68.34412 17.52277,70.64319" stroke-opacity="0.57303" stroke="#f01cd0" stroke-width="19.28572"/><path d="M765.90405,347.50116c27.8409,5.60489 55.6818,11.20978 83.52271,16.81467c27.8409,5.60489 33.30732,3.61406 38.77374,1.62323" stroke-opacity="0.81943" stroke="#5d0ddf" stroke-width="19.28572"/><path d="M1073.45862,847.49542c-29.33601,17.8437 -58.67202,35.68741 -68.09802,53.4588c-9.42601,17.77139 1.05799,35.47047 11.54199,53.16956c10.484,17.69908 -26.98682,57.182 -64.45764,96.66492" stroke-opacity="0.12098" stroke="#77d9a4" stroke-width="19.28572"/><path d="M7.05061,598.98816c-53.36125,-7.68839 -106.7225,-15.37678 -116.72099,-5.6322c-9.99849,9.74458 23.36579,36.92212 56.73007,64.09967c33.36428,27.17755 53.4473,-28.9148 73.53032,-85.00714" stroke-opacity="0.73077" stroke="#e34888" stroke-width="22.82024"/><path d="M719.41339,281.13986c-16.53819,28.18812 -33.07638,56.37624 -49.61456,84.56436c-16.53819,28.18812 -60.79448,-18.92005 -105.05078,-66.02823" stroke-opacity="0.33752" stroke="#e65204" stroke-width="22.9339"/><path d="M557.51068,487.32727c-17.44623,57.31555 -7.11578,12.9632 -23.66992,-31.61166" stroke-opacity="0.1848" stroke="#d75f8f" stroke-width="23.13293"/><path d="M429.37259,618.34735c-39.17835,-4.26606 -78.35671,-8.53212 -79.892,2.81738c-1.53529,11.34951 34.57249,38.31459 70.68027,65.27966c36.10778,26.96508 41.97621,13.99148 47.84464,1.01788" stroke-opacity="0.8716" stroke="#05a958" stroke-width="19.28572"/><path d="M791.90063,1040.08862c-23.40333,10.80299 -46.80665,21.60599 -50.59094,14.64673c-3.78429,-6.95926 12.05045,-31.68077 27.88519,-56.40228c15.83474,-24.72151 2.23753,-40.83567 -11.35968,-56.94983" stroke-opacity="0.777" stroke="#cd8b95" stroke-width="23.01906"/><path d="M233.18784,323.22708c47.7583,48.18124 30.55869,26.72061 30.58563,-26.19226" stroke-opacity="0.11835" stroke="#d2d64c" stroke-width="22.62333"/><path d="M172.22514,14.03824c1.09061,-21.96518 2.18122,-43.93036 1.34105,-50.81727c-0.84017,-6.8869 -3.61112,1.30447 -6.38206,9.49584c-2.77095,8.19137 39.94307,13.93103 82.65709,19.67068" stroke-opacity="0.87127" stroke="#90ff98" stroke-width="19.28572"/><path d="M146.58981,521.5686c-10.05367,-29.76355 -14.92094,24.97943 -57.90965,73.84381" stroke-opacity="0.00186" stroke="#b228bc" stroke-width="19.28572"/><path d="M275.00787,756.09625c47.34918,-11.7774 64.00571,-10.09564 74.83328,2.28351" stroke-opacity="0.54834" stroke="#143462" stroke-width="19.38358"/><path d="M164.96588,1012.83527c0.42622,23.53241 0.85244,47.06482 1.27866,70.59723c0.42622,23.53241 -33.94968,-32.18848 -68.32558,-87.90936" stroke-opacity="0.36051" stroke="#03959f" stroke-width="22.78798"/><path d="M925.02881,402.83109c-9.37109,3.54349 -18.74218,7.08697 -36.53595,13.46155c-17.79377,6.37458 -44.01023,15.58025 -70.22668,24.78592c-26.21646,9.20567 16.83065,56.82708 59.87775,104.44849" stroke-opacity="0.00256" stroke="#1e76c2" stroke-width="19.28572"/><path d="M629.80127,651.31799c28.4858,-25.15837 56.9716,-50.31673 85.4574,-75.4751c28.4858,-25.15837 -3.12481,-44.50083 -34.73541,-63.84329" stroke-opacity="0.77843" stroke="#43ff1d" stroke-width="19.28572"/><path d="M482.70837,311.71399c9.99867,-0.68452 19.99734,-1.36903 24.9436,-25.43164c4.94626,-24.06261 4.8401,-71.5033 4.73395,-118.944c-0.10616,-47.4407 32.37518,8.89647 64.85651,65.23363" stroke-opacity="0.72745" stroke="#0a2bbc" stroke-width="19.28572"/><path d="M450.31393,495.2551c28.89618,20.45162 57.79236,40.90325 74.13937,32.9595c16.34701,-7.94375 20.14485,-44.28286 23.94269,-80.62198c3.79784,-36.33912 -17.24041,-53.52274 -38.27866,-70.70636" stroke-opacity="0.58444" stroke="#d8b6cd" stroke-width="20.60764"/><path d="M725.98389,554.48224c27.35687,-2.2865 17.89484,-3.38184 70.70929,-53.30804" stroke-opacity="0.18048" stroke="#162f9e" stroke-width="23.01934"/><path d="M176.92325,98.01733c-16.84174,-1.33945 -42.97104,-45.12644 10.56238,6.15414" stroke-opacity="0.32556" stroke="#c8f236" stroke-width="20.27715"/><path d="M297.49869,496.35724c-31.00653,-57.1398 -72.05952,-69.56573 -44.03943,-60.6936" stroke-opacity="0.64659" stroke="#ef7d7a" stroke-width="21.54027"/><path d="M48.69749,55.36659c-49.58756,19.21908 -91.77734,61.40819 -128.87588,26.81967" stroke-opacity="0.93562" stroke="#1c1a72" stroke-width="21.91766"/><path d="M293.3425,984.77277c8.88125,-0.10069 17.76251,-0.20139 17.21976,-6.64294c-0.54275,-6.44156 -10.5095,-19.22398 -20.47626,-32.00641c-9.96675,-12.78242 2.65513,-34.16669 15.27701,-55.55096" stroke-opacity="0.30733" stroke="#99f770" stroke-width="23.06122"/><path d="M1022.90601,292.16382c-12.03638,-1.84104 -24.07275,-3.68209 -36.10913,-5.52313c-12.03638,-1.84104 -45.01102,40.42817 -77.98566,82.69739" stroke-opacity="0.45927" stroke="#8e7b6c" stroke-width="19.7839"/></g></g></g></svg>