<svg version="1.1" xmlns="http://www.w3.org/2000/svg" xmlns:xlink="http://www.w3.org/1999/xlink" width="2042" height="2026"><g fill="none" fill-rule="nonzero" stroke="none" stroke-width="none" stroke-linecap="round" stroke-linejoin="round" stroke-miterlimit="10" stroke-dasharray="" stroke-dashoffset="0" font-family="none" font-weight="none" font-size="none" text-anchor="none" style="mix-blend-mode: normal"><path d="M435,337c7.34113,0 11.37891,9.27819 17,14c11.04601,9.27883 22.64814,17.95261 33,28c28.77092,27.92472 53.19307,60.11244 82,88c14.93714,14.46043 31.2036,27.48349 47,41c90.59307,77.51778 188.19252,145.98736 280,222c44.3088,36.68578 86.6357,75.38185 131,112c17.47357,14.42263 34.35529,32.5702 53,45" stroke="#402f95" stroke-width="20"/><g><g><path d="M1406.9456,919.26952c115.70731,204.19 334.9362,610.98933 261.37785,948.89052" stroke="#398b3f" stroke-width="5.01905"/><path d="M1304.89855,913.04343c-114.00998,95.0873 -274.22379,291.93778 -203.1682,346.11697c141.95361,63.06852 183.41486,-253.20731 204.35341,-332.78397" stroke="#872d8c" stroke-width="13.85502"/><path d="M1223.24116,892.62015c-93.04625,70.44094 -402.94121,-56.50296 -399.67818,-73.03102c-17.64368,-45.66938 296.42218,-49.33373 396.55851,16.31371" stroke="#872f8f" stroke-width="14.20276"/><path d="M1295.75939,790.49364c41.76352,-153.93662 105.27883,-194.22306 143.75075,-178.75443c39.12729,15.28664 -3.58433,116.71161 -78.0766,199.42545" stroke="#85318e" stroke-width="13.9918"/><path d="M1432.06786,851.62777c200.83866,2.98822 360.62613,36.82702 354.21709,112.26302c-0.29962,81.73139 -294.5077,36.0418 -384.37714,-39.36939" stroke="#852f8c" stroke-width="14.09035"/><path d="M1350.6637,926.11572c-22.39409,-6.21548 -94.54836,1.1281 -97.96265,-34.15602c-9.2341,-34.9217 -27.79765,-78.90143 51.43084,-67.4475c78.81981,7.91445 89.15858,-10.20161 99.07572,34.44104c36.05373,78.44299 -120.64391,67.49935 -152.79407,33.00945" stroke="#edbc43" stroke-width="13.56842"/><path d="M2564.32487,776.17988c57.28453,7.99127 -12.92895,-54.21584 16.33301,-5.56036c108.81434,99.3524 8.97767,35.5988 -6.21945,48.08573c37.33436,112.33545 -41.80907,198.30248 -23.04751,270.14009" stroke-opacity="0.91831" stroke="#4748b3" stroke-width="2"/><path d="M2596.95555,1009.86897c-88.64982,-86.33957 -108.26197,-54.7119 -192.5631,-135.76254c-5.47526,52.94255 40.85999,69.45246 91.17921,67.4338c56.80421,82.39907 -21.35049,64.33938 -13.06527,-15.18898" stroke-opacity="0.7452" stroke="#29fd36" stroke-width="2.72016"/><path d="M1362.73899,785.24317c10.18839,-0.0466 11.00109,87.98394 -6.73252,103.44285c71.11561,92.40816 -9.6329,158.88767 27.18338,65.29423" stroke-opacity="0.781" stroke="#2eb836" stroke-width="2"/><path d="M1855.65812,540.58997c-4.64483,61.24314 -37.81453,55.76065 57.01008,69.72914c26.35434,-86.11948 125.48856,-55.61273 103.36175,-145.71924" stroke-opacity="0.09649" stroke="#4c069f" stroke-width="2.01222"/><path d="M1547.26766,491.82812c95.63299,7.83031 67.0301,-55.09322 95.4571,-38.37205c84.906,-95.21172 11.33535,-112.42211 -70.03918,-44.54019" stroke-opacity="0.62248" stroke="#27c794" stroke-width="2.25873"/><path d="M2064.86859,1251.40146c-65.87007,81.8723 -68.76989,157.73498 -92.52835,128.28698" stroke-opacity="0.69743" stroke="#313581" stroke-width="2"/><path d="M2513.42894,1173.21782c103.72299,-37.79109 199.35439,-12.69818 293.41785,-104.96982c-49.68284,72.55891 -21.79241,148.79223 -8.51989,70.5848" stroke-opacity="0.42898" stroke="#a8392b" stroke-width="2"/><path d="M2481.98728,769.55816c-60.60054,-17.45979 32.48936,-4.59855 106.73243,-4.13002" stroke-opacity="0.56766" stroke="#c639d2" stroke-width="2.53572"/><path d="M1577.53483,1258.91294c-37.94897,83.33619 23.28656,84.51193 -48.19683,51.25112" stroke-opacity="0.92377" stroke="#0ebb1d" stroke-width="2"/><path d="M713.58113,1203.43929c-95.63073,-49.98886 -188.2679,-7.26896 -231.86832,-70.41913c-13.96639,96.73397 31.57382,6.5094 79.49924,79.42135" stroke-opacity="0.06948" stroke="#a657b8" stroke-width="2"/><path d="M1937.3073,480.93412c-58.52683,58.81104 -133.40434,-50.5536 -153.47594,-17.51496c-59.25203,80.79427 -158.5821,17.30477 -103.85882,-22.92208c36.16063,-76.74795 40.41814,-72.18156 -51.23283,-18.21727" stroke-opacity="0.56541" stroke="#91702f" stroke-width="2"/><path d="M2119.23646,1329.25439c-56.7597,101.90426 -106.62226,52.82727 -42.92034,16.8145" stroke-opacity="0.0812" stroke="#e9f4a5" stroke-width="2.07135"/><path d="M1678.31752,1384.62538c52.19019,-31.22188 35.41164,-75.24821 22.26709,-71.7296c67.00179,23.43699 65.07456,-35.02905 172.9821,-74.35219" stroke-opacity="0.55381" stroke="#ff7fbf" stroke-width="2.78596"/><path d="M1088.91268,1119.39049c-20.89278,27.82296 5.0244,87.25756 -56.01663,137.25706c27.55217,98.42488 121.97385,64.34706 100.28979,102.73037" stroke-opacity="0.84723" stroke="#70fc52" stroke-width="2.41927"/><path d="M1873.70901,972.01691c78.70443,84.15225 113.53943,180.73767 58.41639,120.23909c81.67241,73.11462 153.75358,46.06345 269.55395,23.77591c-47.9982,39.78642 -140.34321,137.39004 -127.24985,105.55376" stroke-opacity="0.277" stroke="#7c5ce6" stroke-width="2"/><path d="M1437.86396,540.74879c54.57332,-109.30489 37.44341,-73.5977 48.11768,-34.10906c-8.35638,-1.33411 34.5164,79.25589 -57.66455,175.42748c44.65263,-0.79498 -11.87443,56.23611 59.12886,24.18414" stroke-opacity="0.55085" stroke="#5e3f43" stroke-width="2.42025"/><path d="M2634.38213,825.69764c-98.60105,25.40165 -184.26591,79.82551 -164.17873,147.65112c27.0472,-41.4392 21.17801,4.16209 57.37619,-19.49712" stroke-opacity="0.37949" stroke="#5a8cea" stroke-width="2"/><path d="M2073.45163,1241.47624c-101.35968,-28.90106 -94.08043,-116.01431 -158.56812,-201.43672c-68.70966,31.0464 -149.03092,8.84775 -149.88465,-26.81327c65.3426,-92.42753 177.13063,-154.22569 231.53828,-138.40464" stroke-opacity="0.51661" stroke="#85ae76" stroke-width="2"/><path d="M995.50658,571.20689c2.31303,53.62558 5.19414,-38.91264 37.03922,-96.39161" stroke-opacity="0.52142" stroke="#24b56e" stroke-width="2"/><path d="M1126.39918,898.2874c-25.95478,50.73058 -129.89605,35.44778 -168.23127,-12.38778c40.63955,-84.28812 89.51401,-139.84029 51.24622,-169.52824" stroke-opacity="0.16951" stroke="#5be7ea" stroke-width="2"/><path d="M2535.01534,1446.16332c-16.49965,21.36809 23.00189,123.61119 -19.87756,217.32913c-60.76885,-1.3974 -61.42012,-18.54414 -91.00617,-68.66988" stroke-opacity="0.24841" stroke="#f13e1c" stroke-width="2"/><path d="M1201.94367,1180.0361c-47.58354,17.70064 -95.09808,64.38003 -96.22055,124.43926c-47.23568,-45.95481 -128.69618,-90.73945 -151.90804,-80.2017c72.96766,-40.47322 171.07086,-46.70185 116.02109,49.59827" stroke-opacity="0.13953" stroke="#85a0a2" stroke-width="2"/><path d="M1711.70971,998.47815c-3.44642,59.13626 84.72399,114.24818 119.83149,143.5671c9.89921,-75.6267 -51.78423,-132.64989 -34.0758,-171.9296c-4.96073,63.03733 -56.62658,141.52167 -24.51384,235.41195" stroke-opacity="0.67555" stroke="#68a92b" stroke-width="2"/><path d="M1448.19117,1120.1858c-57.37856,-18.60451 -4.56124,44.55874 -72.70017,38.57624c109.99676,53.02618 86.12417,67.655 181.47118,155.1658c-55.25547,42.58504 2.83556,-36.65659 33.28515,-110.69588" stroke-opacity="0.01392" stroke="#bcd6e8" stroke-width="2.35981"/><path d="M2599.34543,1475.98731c-15.55655,-51.32506 52.6084,-24.62637 8.17951,-38.17418c-3.08789,-8.95743 -97.73111,-2.97118 -45.02284,9.47439" stroke-opacity="0.69346" stroke="#e8d98b" stroke-width="2"/><path d="M1118.32796,1069.92034c26.21663,-63.50248 78.46267,-0.9504 80.84052,-81.9954c28.04712,37.39473 -73.26276,110.86259 -168.02367,194.00286" stroke-opacity="0.63378" stroke="#e7e9f3" stroke-width="2"/><path d="M2228.435,1356.00287c8.18048,-79.60768 98.04395,-175.09496 93.71237,-236.75204" stroke-opacity="0.15207" stroke="#185cff" stroke-width="2.72209"/><path d="M2344.88288,858.31678c-114.05911,18.93366 -211.86826,-15.00199 -194.47183,-109.54422" stroke-opacity="0.00372" stroke="#7c9c96" stroke-width="2"/><path d="M1355.6437,664.85617c-36.95162,65.68069 -68.13699,-33.95612 35.22469,68.78142c-43.20272,46.93358 -32.57344,85.3026 -26.32937,165.83292" stroke-opacity="0.21086" stroke="#c25184" stroke-width="2"/><path d="M1367.46763,1293.45118c-61.18636,5.72523 -141.7548,104.60809 -167.66861,-9.72644c-42.29161,-63.27898 -82.31843,-53.96511 -83.80012,14.35354" stroke-opacity="0.94307" stroke="#6ef4fa" stroke-width="2"/><path d="M1563.46734,673.49898c123.31338,-32.81657 95.12173,30.77036 14.04578,-5.70786c-53.00441,-63.36259 -157.6027,-136.69013 -185.2643,-191.92629" stroke-opacity="0.20263" stroke="#15dd43" stroke-width="2.70045"/><path d="M2468.07392,1177.01178c-9.99922,22.88491 -36.36358,7.04 -54.08967,20.9302c-87.63939,21.56491 -117.05547,113.35109 -64.19753,194.7355" stroke-opacity="0.44278" stroke="#a1e87d" stroke-width="2"/></g></g></g></svg>