<svg version="1.1" xmlns="http://www.w3.org/2000/svg" xmlns:xlink="http://www.w3.org/1999/xlink" width="1482" height="1482" viewBox="0,0,1482,1482"><g fill="none" fill-rule="nonzero" stroke="none" stroke-width="20" stroke-linecap="round" stroke-linejoin="round" stroke-miterlimit="10" stroke-dasharray="" stroke-dashoffset="0" font-family="none" font-weight="none" font-size="none" text-anchor="none" style="mix-blend-mode: normal"><path d="M418,554c0.66667,0 0.05113,-1.3353 0,-2c-0.49929,-6.49071 -1.40372,-12.54051 -1,-19c1.01682,-16.26906 5.20726,-33.04146 8,-49c10.08309,-57.61767 26.81079,-114.24316 41,-171c2.86133,-11.44532 2.8731,-24.05585 6,-35c0.97431,-3.4101 0.61525,-6.2305 2,-9c0.29814,-0.59628 -0.66667,-2 0,-2c0.4714,0 0.85093,0.55279 1,1c1.76719,5.30157 3.92438,11.52791 6,17c6.78503,17.88781 15.28363,35.08969 22,53c10.85736,28.95297 19.27646,59.4039 30,88c2.10331,5.60884 6.37282,11.30488 8,17c5.9527,20.83443 12.18626,43.55878 19,64c2.32788,6.98365 6,17.27591 6,24" stroke="#fa912b"/><path d="M902,536c1.001,0 0.0001,-1.999 0,-3c-0.00023,-2.33333 0,-4.66667 0,-7c0,-3 0,-6 0,-9c0,-2.66667 0,-5.33333 0,-8c0,-15.46457 0.64925,-28.72013 3,-44c4.08857,-26.57569 11.58621,-52.51727 16,-79c3.26207,-19.57244 3.78497,-40.74739 9,-59c1.19376,-4.17815 -0.29374,-9.11877 1,-13c4.40766,-13.22299 3.3083,-22.6166 10,-36c2.61243,-5.22486 1.95337,-11.95337 6,-16c1.49071,-1.49071 1.05719,-7.88562 2,-6c8.42826,16.85652 13.15782,35.51444 20,53c16.86905,43.1098 34.82879,87.31514 46,132c9.12941,36.51763 23.91736,71.66945 33,108c2.29089,9.16355 4.43392,19.60355 6,29c0.45522,2.73133 -0.87042,6.38873 0,9c2.92144,8.76433 4,19.27046 4,28" stroke="#fa912b"/><path d="M560,851c0.74536,0 -1.33333,-0.66667 -2,-1c-2.16172,-1.08086 -4.55407,-1.95175 -7,-3c-4.84077,-2.07462 -9.89434,-3.60755 -15,-5c-14.54041,-3.96557 -29.13873,-6.81544 -44,-10c-34.89554,-7.47762 -71.3641,-10.34102 -106,-19c-12.32717,-3.08179 -27.81904,-8 -40,-8" stroke="#9f5104"/><path d="M525,894c1.79505,0 -3.25854,-1.56464 -5,-2c-5.6476,-1.4119 -11.2814,-2.91074 -17,-4c-12.75233,-2.42901 -25.13333,-3.33978 -38,-5c-14.06749,-1.81516 -27.78433,-4.70767 -42,-6c-16.61139,-1.51013 -34.28122,0 -51,0c-1.41139,0 -13.42867,-1.57133 -15,0c-1.38008,1.38008 -2.17629,2 -5,2" stroke="#9f5104"/><path d="M688,870c1.05409,0 -0.5286,2.05719 -1,3c-2.41968,4.83937 -4.5142,10.0284 -7,15c-4.62471,9.24941 -13.71767,29.71767 -21,37c-0.69285,0.69285 -0.30715,4.30715 -1,5c-0.24671,0.24671 -2.25373,3.74627 -2,4c1.49372,1.49372 11.74528,0 14,0c14.71152,0 31.25981,-0.1299 43,-6c5.29023,-2.64511 18.94833,0 25,0c0.4714,0 1.33333,-0.66667 1,-1c-13.72386,-13.72386 -36.80631,-22.61262 -45,-39c-2.52757,-5.05513 -12,-14.40563 -12,-17" stroke="#703700"/></g></svg>