<svg version="1.1" xmlns="http://www.w3.org/2000/svg" xmlns:xlink="http://www.w3.org/1999/xlink" width="1080" height="1080"><g fill="none" fill-rule="nonzero" stroke="#181818" stroke-width="12" stroke-linecap="round" stroke-linejoin="round" stroke-miterlimit="10" stroke-dasharray="" stroke-dashoffset="0" font-family="none" font-weight="none" font-size="none" text-anchor="none" style="mix-blend-mode: normal"><path d="M368.92093,413.68564c2.25263,0 -3.52516,2.90059 -4.77481,4.77481c-1.18796,1.78169 -1.5595,3.98923 -2.38513,5.96509c-4.51315,10.80063 -7.67347,14.4908 -5.76285,28.21231c4.61485,33.14236 33.89749,67.86618 59.81619,86.9393c36.241,26.66912 76.92218,33.49782 121.09833,31.7785c16.15334,-0.62868 19.68597,-1.3364 34.61853,-6.55328c3.45692,-1.20772 6.86367,-2.60925 10.0965,-4.32904c1.75813,-0.93529 3.22655,-4.83135 4.77942,-3.58459c3.1877,2.55931 7.98025,35.56975 8.19855,36.6131c6.38462,30.51559 10.87722,58.71967 -5.90991,86.69116" opacity="0.8"/></g></svg>