<svg version="1.1" xmlns="http://www.w3.org/2000/svg" xmlns:xlink="http://www.w3.org/1999/xlink" width="1080" height="1080"><g fill="none" fill-rule="nonzero" stroke="none" stroke-width="none" stroke-linecap="round" stroke-linejoin="round" stroke-miterlimit="10" stroke-dasharray="" stroke-dashoffset="0" font-family="none" font-weight="none" font-size="none" text-anchor="none" style="mix-blend-mode: normal"><g><g><path d="M257.81766,439.42572c3.46398,-5.13133 6.92796,-10.26266 11.07544,-15.65375c4.14748,-5.39109 8.97845,-11.04192 16.21268,-20.88693c7.23423,-9.84501 16.87173,-23.88418 24.75519,-35.63535c7.88346,-11.75116 14.01289,-21.21431 22.1239,-18.26425c8.11101,2.95006 18.2036,18.31333 43.48666,45.1499c25.28306,26.83657 65.75659,65.14646 97.05347,95.61728c31.29688,30.47082 53.41712,53.10259 69.82144,54.87524c16.40432,1.77266 27.09274,-17.31379 45.5401,-38.57352c18.44736,-21.25973 44.65368,-44.69273 69.10461,-56.41824c24.45093,-11.72551 47.14649,-11.74352 69.84204,-11.76154c22.69555,-0.01801 18.62976,0.98013 14.56396,1.97827" stroke="#161617" stroke-width="19.28572"/><path d="M594.52789,499.94382c-39.87646,-27.56586 -67.53369,-50.95868 -48.10785,-10.41336" stroke-opacity="0.76286" stroke="#59665c" stroke-width="23.95502"/><path d="M287.97421,393.96671c-46.92015,-15.08688 -31.18539,14.22296 -1.59201,63.25635" stroke-opacity="0.31817" stroke="#9e433c" stroke-width="19.28572"/><path d="M594.62201,508.75693c-14.008,38.44595 12.71356,70.22006 69.98743,65.66147" stroke-opacity="0.38816" stroke="#ff0e9a" stroke-width="22.1226"/><path d="M722.2276,442.98944c14.43671,-18.7402 42.36078,-22.52649 79.52063,-2.55319" stroke-opacity="0.78446" stroke="#cdf500" stroke-width="21.70456"/><path d="M287.49506,394.7196c-1.75889,1.15626 -3.51778,2.31252 -5.27667,3.46878c-1.75889,1.15626 11.96229,-17.84037 25.68347,-36.83701" stroke-opacity="0.02641" stroke="#1b383d" stroke-width="21.10845"/><path d="M748.85992,446.34064c-14.50604,8.55286 -73.02582,16.19077 -73.79663,-25.37921" stroke-opacity="0.13088" stroke="#c0d906" stroke-width="19.88179"/><path d="M365.75436,403.37827c36.83954,31.25074 73.67909,62.50148 86.81815,62.05002c13.13906,-0.45146 2.57763,-32.60511 -7.9838,-64.75876c-10.56143,-32.15365 -36.14627,2.70474 -61.73111,37.56314" stroke-opacity="0.76821" stroke="#9284af" stroke-width="19.28572"/><path d="M334.42514,346.04349c12.77454,49.15247 47.59253,-0.47787 -0.33716,-4.7301" stroke-opacity="0.41086" stroke="#418c2f" stroke-width="19.28572"/><path d="M542.48315,489.23196c-36.59439,23.82706 6.47412,72.43533 -21.81128,125.5444" stroke-opacity="0.69766" stroke="#39afed" stroke-width="19.28572"/><path d="M806.08606,439.41721c-33.32863,-10.40898 -66.65727,-20.81795 -99.9859,-31.22693c-33.32863,-10.40898 -15.95793,-23.94933 1.41278,-37.48969" stroke-opacity="0.32059" stroke="#439e75" stroke-width="19.28572"/><path d="M807.80743,439.03989c1.90576,-18.78394 3.81152,-37.56787 5.71729,-56.35181c1.90576,-18.78394 -19.82901,3.86133 -41.56378,26.50659" stroke-opacity="0.9715" stroke="#7c8ca1" stroke-width="24.3649"/><path d="M297.40332,360.49109c-20.12311,17.21357 -40.24622,34.42714 -60.36932,51.64072c-20.12311,17.21357 -40.06547,25.52511 -60.00783,33.83664" stroke-opacity="0.54667" stroke="#d8463a" stroke-width="19.5733"/><path d="M285.40054,457.06335c28.47875,0.65837 56.95751,1.31675 76.65671,7.98962c19.6992,6.67288 30.61884,19.36026 41.53848,32.04764c10.91964,12.68738 -30.89672,-3.16453 -72.71307,-19.01645" stroke-opacity="0.51797" stroke="#1a1876" stroke-width="24.53646"/><path d="M328.26245,342.93506c15.7831,-8.20344 31.5662,-16.40688 47.3493,-24.61032c15.7831,-8.20344 -20.80031,-13.77486 -57.38373,-19.34628" stroke-opacity="0.03011" stroke="#1af8ce" stroke-width="24.57594"/><path d="M540.6225,491.74423c-9.36346,-12.86182 -18.72693,-25.72363 -28.09039,-38.58545c-9.36346,-12.86182 44.92258,-31.03328 99.20862,-49.20474" stroke-opacity="0.00752" stroke="#9870c5" stroke-width="19.28572"/><path d="M540.0047,490.48563c-7.37587,14.06273 -14.75175,28.12547 -22.12762,42.1882c-7.37587,14.06273 -18.72825,20.94235 -30.08063,27.82196" stroke-opacity="0.85438" stroke="#77ac87" stroke-width="21.16609"/><path d="M302.06744,16.1537c-0.39258,4.15704 -0.78516,8.31408 -1.17773,12.47113c-0.39258,4.15704 7.67317,28.26165 15.73892,52.36625" stroke-opacity="0.2638" stroke="#4a3f27" stroke-width="19.28572"/><path d="M305.19266,742.2431c50.11852,-20.12209 100.23704,-40.24418 150.35556,-60.36627c50.11852,-20.12209 69.99905,-1.39204 89.87958,17.33801" stroke-opacity="0.93994" stroke="#71325b" stroke-width="19.61306"/><path d="M134.86906,425.01797c29.95295,-13.03808 59.90589,-26.07615 89.85884,-39.11423c29.95295,-13.03808 66.12961,-47.08737 102.30627,-81.13666" stroke-opacity="0.89139" stroke="#1cd5fe" stroke-width="20.68335"/><path d="M661.13519,909.633c-9.17484,-41.39888 -18.34967,-82.79776 -36.95343,-87.1358c-18.60376,-4.33804 -46.63644,28.38475 -74.66913,61.10754c-28.03268,32.72279 -12.6866,-22.08706 2.65948,-76.89691" stroke-opacity="0.87218" stroke="#4d5242" stroke-width="19.28572"/><path d="M820.98389,374.90427c35.6861,-7.44855 35.69348,-4.56805 84.70929,17.01825" stroke-opacity="0.26358" stroke="#512b35" stroke-width="19.61635"/><path d="M407.8187,236.46672c-1.30761,36.48686 -2.61522,72.97372 2.6636,90.16377c5.27883,17.19006 17.1441,15.08331 29.00937,12.97656c11.86527,-2.10675 -3.17407,10.4061 -18.21341,22.91895" stroke-opacity="0.27841" stroke="#225cfb" stroke-width="24.22757"/><path d="M626.60535,30.64524c4.81394,0.33118 9.62789,0.66237 14.44183,0.99355c4.81394,0.33118 -17.83323,3.71203 -40.48041,7.09287" stroke-opacity="0.72113" stroke="#75eba9" stroke-width="19.75667"/><path d="M231.6772,589.64441c-9.33781,-15.54561 -18.67562,-31.09123 -28.01343,-46.63684c-9.33781,-15.54561 -34.8488,-33.43997 -60.35979,-51.33432" stroke-opacity="0.16159" stroke="#c8538d" stroke-width="24.88374"/><path d="M674.13959,333.90073c10.68463,-9.27905 21.36926,-18.55811 32.05389,-27.83716c10.68463,-9.27905 -22.59186,23.47174 -55.86835,56.22253" stroke-opacity="0.08143" stroke="#e8602c" stroke-width="23.767"/><path d="M603.39886,1000.74371c14.09588,-18.04376 28.19176,-36.08751 26.46515,-21.97198c-1.72661,14.11553 -19.27572,60.39035 -36.82483,106.66516c-17.54911,46.27482 -39.44295,-2.76341 -61.33679,-51.80164" stroke-opacity="0.19453" stroke="#1d91ae" stroke-width="19.28572"/><path d="M203.74605,138.35435c-35.95311,23.6495 -71.90622,47.299 -107.85934,70.9485c-35.95311,23.6495 24.25504,-3.88098 84.46319,-31.41145" stroke-opacity="0.65675" stroke="#bd8ab6" stroke-width="19.28572"/><path d="M953.57922,348.77048c15.92517,-3.43564 50.35345,6.99823 78.0603,47.66" stroke-opacity="0.92722" stroke="#90c1c2" stroke-width="19.28572"/><path d="M334.64404,848.57849c18.98391,11.15085 37.96782,22.3017 41.63461,44.55029c3.66679,22.2486 -7.98353,55.59494 -19.63385,88.94128c-11.65032,33.34634 -13.80497,22.68773 -15.95963,12.02911" stroke-opacity="0.73853" stroke="#ae1940" stroke-width="19.28572"/><path d="M971.26819,898.07239c4.35424,18.21894 8.70849,36.43789 -8.54944,54.80505c-17.25792,18.36717 -56.12802,36.88256 -94.99811,55.39795c-38.87009,18.51539 1.29103,22.90064 41.45215,27.28589" stroke-opacity="0.26236" stroke="#552742" stroke-width="19.28572"/><path d="M443.59735,1002.68781c11.09588,-22.94579 22.19175,-45.89158 16.59412,-46.86371c-5.59764,-0.97213 -27.88878,20.02941 -50.17993,41.03094c-22.29115,21.00154 -10.50757,30.00416 1.276,39.00677" stroke-opacity="0.58943" stroke="#65a121" stroke-width="19.28572"/><path d="M557.98309,700.23846c27.09999,-0.18067 54.19997,-0.36134 62.25037,-7.57556c8.05039,-7.21422 -2.9488,-21.462 -13.948,-35.70978c-10.9992,-14.24778 -0.82647,12.59193 9.34625,39.43164" stroke-opacity="0.87864" stroke="#3c4562" stroke-width="19.28572"/></g></g></g></svg>