<svg version="1.1" xmlns="http://www.w3.org/2000/svg" xmlns:xlink="http://www.w3.org/1999/xlink" width="1752" height="1480"><g fill="none" fill-rule="nonzero" stroke="#402f95" stroke-width="20" stroke-linecap="round" stroke-linejoin="round" stroke-miterlimit="10" stroke-dasharray="" stroke-dashoffset="0" font-family="none" font-weight="none" font-size="none" text-anchor="none" style="mix-blend-mode: normal"><path d="M356,380c9.65882,0 22.70567,-21.31227 29,-28c18.86967,-20.04903 41.58053,-38.47155 69,-45c14.27562,-3.39896 31.53718,-1 46,-1c71.00759,0 133.16427,23.12631 185,72c20.98182,19.78286 40.31244,39.7953 51,67c11.03566,28.09076 -1.40634,58.59856 -18,81c-40.32945,54.44475 -109.39848,73.4808 -160,115c-23.82013,19.54472 -42.17241,49.21842 -34,81c8.81118,34.2657 41.65401,58.35236 70,75c31.90066,18.73531 39.24684,18.66336 77,33c59.65091,22.65224 120.39129,42.02668 181,62c30.42413,10.02613 61.75538,17.63042 92,28c9.03399,3.09737 21.15718,11 31,11"/><path d="M1177,576c2.84936,0 -2.07105,5.30632 -3,8c-2.40559,6.9755 -4.62213,14.015 -7,21c-2.95555,8.68193 -6.01027,17.32978 -9,26c-8.94084,25.92843 -18.81399,51.53498 -29,77c-9.79483,24.48708 -18.14225,49.53819 -28,74c-12.7258,31.57884 -31.28817,61.0177 -43,93c-14.62338,39.93307 -22.79523,96.44231 -18,139c4.00868,35.577 15.97176,63.78712 32,95c4.82061,9.3875 12.13591,27 25,27"/></g></svg>