<svg version="1.1" xmlns="http://www.w3.org/2000/svg" xmlns:xlink="http://www.w3.org/1999/xlink" width="1160" height="1160"><g fill="none" fill-rule="nonzero" stroke="none" stroke-width="none" stroke-linecap="none" stroke-linejoin="none" stroke-miterlimit="10" stroke-dasharray="" stroke-dashoffset="0" font-family="none" font-weight="none" font-size="none" text-anchor="none" style="mix-blend-mode: normal"><g fill="none" stroke-linecap="round" stroke-linejoin="round"><g><path d="M965.40778,1031.41187c3.0196,-3.67383 6.03919,-7.34767 14.99854,-9.00195c8.95934,-1.65428 23.85844,-1.28901 34.17847,-32.82312c10.32003,-31.53411 16.06099,-94.96759 3.82312,-145.00024c-12.23787,-50.03266 -42.45459,-86.6645 -61.00452,-111.99768c-18.54993,-25.33319 -25.43307,-39.36772 -33.00201,-48.00079c-7.56894,-8.63307 -15.82368,-11.86469 -18.00287,-17.00574c-2.17919,-5.14105 1.71717,-12.19153 -3.82324,-17.17279c-5.54041,-4.98126 -20.5176,-7.89328 -28.1814,-13.82227c-7.6638,-5.92898 -8.01421,-14.87491 -19.8194,-33.18085c-11.80518,-18.30593 -35.06514,-45.97187 -56.00488,-71.00366c-20.93975,-25.0318 -39.55929,-47.42946 -58.17883,-69.82712c-18.61954,-22.39766 -27.30718,-59.19967 -35.99481,-96.00168" stroke-opacity="0.99" stroke="#423191" stroke-width="20.71428"/><path d="M968.49811,268.41074c-0.27038,-2.97415 -0.54077,-5.9483 0.09247,1.99524c0.63324,7.94354 2.17009,26.80476 0.82037,28.16669c-1.34972,1.36193 -5.586,-14.77545 13.0022,29.01364c18.5882,43.78909 60.00088,147.50464 77.00079,200.82611c16.99991,53.32147 9.58705,56.24887 2.17419,59.17627c-7.41286,2.9274 -5.20893,8.963 -3.005,14.9986" stroke-opacity="0.99" stroke="#423191" stroke-width="20.71428"/><path d="M411.59241,1097.59399c-1.0041,0.36287 -2.0082,0.72574 -4.00192,1.99487c-1.99373,1.26914 -4.97708,3.44454 -9.00049,5.99792c-4.02341,2.55338 -9.08687,5.48475 -25.99603,10.99683c-16.90916,5.51208 -45.66402,13.60487 -86.00195,17.00574c-40.33794,3.40086 -92.25896,2.10979 -144.17998,0.81873c-51.92102,-1.29107 -64.87194,-2.64651 -77.82285,-4.00195" stroke-opacity="0.99" stroke="#423191" stroke-width="20.71428"/><path d="M99.1353,195.66803c-18.81304,-22.39537 -37.62608,-44.79074 -42.12217,-40.23872c-4.49609,4.55202 5.32478,36.05143 15.14565,67.55084c9.82087,31.49941 10.75892,21.99358 11.69697,12.48775" stroke-opacity="0.80619" stroke="#a8a5d0" stroke-width="22.78568"/><path d="M97.75417,52.57113c14.68753,8.78869 29.37506,17.57738 44.06259,26.36607c14.68753,8.78869 -65.63525,48.42092 -145.95802,88.05315" stroke-opacity="0.04753" stroke="#582d22" stroke-width="22.78568"/><path d="M77.45378,220.46217c-4.00632,-45.15971 -17.85946,-33.14236 -21.87995,-69.99121" stroke-opacity="0.53095" stroke="#cb612e" stroke-width="22.78568"/><path d="M103.26073,162.45822c14.31066,14.77891 28.62133,29.55781 42.93199,44.33672c14.31066,14.77891 -2.71813,-15.26278 -19.74692,-45.30447" stroke-opacity="0.42554" stroke="#199cd2" stroke-width="20.71428"/><path d="M176.08604,175.56738c13.45619,16.35182 26.91237,32.70365 22.33696,22.98628c-4.57541,-9.71736 -27.18243,-45.50392 -49.78944,-81.29047c-22.60701,-35.78655 -20.34322,16.76988 -18.07942,69.32631" stroke-opacity="0.5451" stroke="#4ad75f" stroke-width="20.71428"/><path d="M234.83646,161.63214c9.36416,-21.1474 18.72831,-42.2948 28.09247,-63.44221c9.36416,-21.1474 -11.83537,-14.5135 -33.0349,-7.87959" stroke-opacity="0.87342" stroke="#bfa424" stroke-width="22.78571"/><path d="M48.25689,113.40744c23.38321,-4.69108 46.76641,-9.38216 70.14962,-14.07324c23.38321,-4.69108 77.73006,5.27099 132.07691,15.23306" stroke-opacity="0.52552" stroke="#4d0adb" stroke-width="22.78569"/><path d="M12.85801,29.85434c-43.72895,-50.66898 -37.51767,-85.9876 -11.28369,-120.88544" stroke-opacity="0.34924" stroke="#c22b39" stroke-width="22.78568"/><path d="M19.60324,235.01448c-39.0292,-6.20058 -19.92159,-35.90553 -68.86358,-28.02882" stroke-opacity="0.41315" stroke="#4452ac" stroke-width="22.78569"/><path d="M160.5787,209.45822c10.3618,10.44137 20.72359,20.88274 31.08539,31.32411c10.3618,10.44137 -25.37623,18.71857 -61.11426,26.99577" stroke-opacity="0.19625" stroke="#c367cc" stroke-width="22.78568"/><path d="M176.63902,55.32551c-2.72296,22.19812 -5.44591,44.39625 7.54613,64.78101c12.99204,20.38476 41.69907,38.95616 70.4061,57.52756c28.70703,18.5714 2.12776,-18.51282 -24.45151,-55.59703" stroke-opacity="0.76081" stroke="#085161" stroke-width="20.71428"/><path d="M185.02295,254.6825c51.04533,-6.27428 102.09067,-12.54856 127.54263,-2.04086c25.45197,10.5077 25.31056,37.79737 25.16916,65.08704c-0.1414,27.28967 -22.30224,15.4919 -44.46307,3.69412" stroke-opacity="0.82613" stroke="#71b9e1" stroke-width="22.78571"/><path d="M136.79144,234.3898c-50.02003,-45.60811 -60.99861,-99.89891 -64.42043,-122.11357" stroke-opacity="0.36709" stroke="#92952e" stroke-width="20.71428"/><path d="M253.02339,37.67832c2.89549,50.79272 3.43718,113.8431 15.5421,122.77694" stroke-opacity="0.03076" stroke="#ba12cf" stroke-width="20.71428"/><path d="M237.9418,247.04164c-16.18138,-30.85165 -32.36275,-61.70331 -48.54413,-92.55496c-16.18138,-30.85165 2.11812,-31.81836 20.41762,-32.78506" stroke-opacity="0.43178" stroke="#9d55ef" stroke-width="22.7857"/><path d="M224.57216,153.24542c-53.72078,-9.33549 8.18225,-9.11334 -1.58128,-3.07025" stroke-opacity="0.99069" stroke="#d648af" stroke-width="22.78564"/><path d="M92.05711,174.0928c6.43848,2.43781 -25.53104,43.38869 -20.55421,57.21416" stroke-opacity="0.36649" stroke="#040b27" stroke-width="20.71428"/><path d="M72.44426,45.48392c-24.38799,-1.06938 -48.77598,-2.13876 -73.16398,-3.20814c-24.38799,-1.06938 -26.42999,4.95122 -28.47199,10.97182" stroke-opacity="0.80239" stroke="#139ca3" stroke-width="22.78571"/><path d="M21.883,132.76901c-9.41237,33.04935 -22.72034,86.51717 4.51346,101.36761" stroke-opacity="0.50218" stroke="#dbf289" stroke-width="20.71428"/><path d="M263.31778,235.91913c53.26068,37.34161 55.16617,-17.01042 9.49713,-29.76149" stroke-opacity="0.81844" stroke="#b71f8b" stroke-width="22.78571"/><path d="M125.81492,144.29419c37.20699,55.95219 4.54671,4.45683 9.64097,53.55405" stroke-opacity="0.05041" stroke="#bb0c3a" stroke-width="22.78562"/><path d="M21.97288,18.22426c28.12933,-20.84523 56.25867,-41.69046 84.388,-62.53569c28.12933,-20.84523 17.76198,33.88014 7.39462,88.60552" stroke-opacity="0.88056" stroke="#8e8500" stroke-width="20.71428"/><path d="M201.87926,193.25697c20.0434,35.40845 40.08681,70.81691 40.32684,58.91234c0.24003,-11.90457 -19.3233,-71.12217 -38.88664,-130.33977c-19.56334,-59.2176 -44.1552,-26.53542 -68.74706,6.14676" stroke-opacity="0.19355" stroke="#06d9c7" stroke-width="22.78571"/><path d="M203.59836,99.1925c4.6884,24.40313 9.3768,48.80626 12.62531,56.79662c3.2485,7.99036 5.05711,-0.43204 6.86572,-8.85445c1.80861,-8.4224 30.70591,-5.15463 59.60321,-1.88686" stroke-opacity="0.9488" stroke="#af8642" stroke-width="20.71428"/><path d="M222.14053,141.44714c28.45831,-0.42034 56.91661,-0.84068 71.99786,8.38824c15.08125,9.22893 16.78545,28.10712 18.48965,46.98531c1.7042,18.87819 50.78566,45.69212 99.86713,72.50606" stroke-opacity="0.20829" stroke="#ab2276" stroke-width="22.78571"/><path d="M64.5016,97.22258c-41.91172,-39.82273 -75.13722,-85.44937 -69.96677,-69.2504" stroke-opacity="0.28342" stroke="#18b36d" stroke-width="20.71428"/><path d="M192.842,37.90335c-17.92376,-30.83754 -35.84752,-61.67507 -53.77129,-92.51261c-17.92376,-30.83754 6.43202,-10.42845 30.7878,9.98064" stroke-opacity="0.60293" stroke="#856ab7" stroke-width="20.71428"/><path d="M268.0336,45.20454c11.89435,9.79221 45.16425,-12.0583 50.5979,-59.43554" stroke-opacity="0.1892" stroke="#9062a9" stroke-width="22.78571"/><path d="M132.27917,68.31269c-3.28719,-15.42396 -6.57438,-30.84791 -9.86157,-46.27187c-3.28719,-15.42396 -32.7142,21.52557 -62.14122,58.47509" stroke-opacity="0.70556" stroke="#ba1271" stroke-width="20.71428"/><path d="M77.41531,194.38576c1.79163,-48.66463 15.18617,-75.15316 9.69141,-124.32157" stroke-opacity="0.60248" stroke="#a85ca9" stroke-width="20.71428"/><path d="M35.64528,221.64868c37.76438,-11.16039 75.52876,-22.32077 96.65331,-36.04733c21.12454,-13.72656 25.60925,-30.0193 30.09396,-46.31204c4.48471,-16.29274 -24.11823,18.82623 -52.72117,53.94519" stroke-opacity="0.82752" stroke="#c7728e" stroke-width="20.71428"/><path d="M175.19366,125.62788c-27.48211,17.90055 -54.96421,35.8011 -82.44632,53.70164c-27.48211,17.90055 22.23783,-32.44388 71.95776,-82.7883" stroke-opacity="0.20633" stroke="#bf9c79" stroke-width="22.78543"/></g></g><g fill="none" stroke-linecap="round" stroke-linejoin="round"><g><path d="M967.05786,1028.98169c3.26693,-1.83818 6.53387,-3.67636 14.59271,-5.38281c8.05885,-1.70645 20.9096,-3.28118 31.24597,-35.68152c10.33637,-32.40034 18.15835,-95.62628 6.39862,-145.14062c-11.75973,-49.51435 -43.10118,-85.31709 -62.16632,-110.284c-19.06514,-24.9669 -25.85398,-39.09796 -32.77911,-48.29059c-6.92513,-9.19263 -13.98656,-13.44682 -16.3197,-18.3717c-2.33314,-4.92488 0.06202,-10.52046 -5.59338,-15.38934c-5.6554,-4.86888 -19.36136,-9.01108 -26.81476,-15.10168c-7.45339,-6.09061 -8.65422,-14.12963 -21.13831,-31.72662c-12.48409,-17.597 -36.25143,-44.75196 -56.87073,-70.12225c-20.61929,-25.37029 -38.09053,-48.9559 -55.56177,-72.5415c-17.47124,-23.58561 -26.85961,-57.694 -36.24799,-91.8024" stroke-opacity="0.99454" stroke="#432f93" stroke-width="20.71428"/><path d="M966.57153,270.31479c-0.6663,-2.57292 -1.33261,-5.14584 0.14386,1.99075c1.47647,7.13659 5.09571,23.98268 4.59167,24.34265c-0.50404,0.35997 -5.13136,-15.7662 12.92303,29.09799c18.05439,44.86419 58.7905,150.71873 75.72534,204.2327c16.93485,53.51397 10.06844,54.68737 3.20203,55.86078c-6.86641,1.1734 -6.66813,8.02976 -6.46985,14.88611" stroke-opacity="0.99639" stroke="#402f93" stroke-width="20.71428"/><path d="M409.68237,1095.72241c-1.04878,0.23996 -2.09756,0.47991 -3.99615,1.97412c-1.8986,1.49421 -4.64701,4.24267 -8.64648,6.70935c-3.99947,2.46668 -9.24999,4.65158 -26.32803,10.59387c-17.07804,5.94229 -45.9836,15.64198 -85.68768,19.81189c-39.70409,4.16991 -90.2067,2.81005 -140.70932,1.4502c-50.50262,-1.35986 -66.05737,-4.72192 -81.61211,-8.08398" stroke-opacity="0.9969" stroke="#402f93" stroke-width="20.71428"/><path d="M101.08253,198.1396c-18.89163,-24.63245 -37.78327,-49.26489 -42.19493,-44.69278c-4.41166,4.57211 5.65665,38.34879 15.72496,72.12546c10.06831,33.77667 8.59063,22.52354 7.11294,11.27042" stroke-opacity="0.81094" stroke="#a7a8d0" stroke-width="24.54013"/><path d="M95.99358,50.41505c15.24489,10.03833 30.48978,20.07665 45.73466,30.11498c15.24489,10.03833 -65.88413,47.63904 -147.01315,85.23975" stroke-opacity="0.03762" stroke="#5b2b24" stroke-width="24.82952"/><path d="M74.87255,222.804c-3.80039,-45.42302 -15.45649,-35.86925 -19.249,-72.66525" stroke-opacity="0.54046" stroke="#cc5f2d" stroke-width="24.599"/><path d="M104.6058,164.74893c13.23367,14.60541 26.46734,29.21083 39.701,43.81624c13.23367,14.60541 -1.05532,-14.97022 -15.34431,-44.54585" stroke-opacity="0.43293" stroke="#179ad5" stroke-width="20.71428"/><path d="M178.67867,172.97791c13.50739,17.96255 27.01479,35.9251 22.2524,26.36191c-4.76239,-9.56319 -27.79457,-46.65212 -50.82675,-83.74105c-23.03218,-37.08893 -20.95154,18.22331 -18.8709,73.53555" stroke-opacity="0.53735" stroke="#49d561" stroke-width="20.71428"/><path d="M236.49686,163.87595c8.08521,-21.13988 16.17041,-42.27976 24.25562,-63.41964c8.08521,-21.13988 -12.66208,-16.75041 -33.40936,-12.36093" stroke-opacity="0.87417" stroke="#c2a225" stroke-width="24.11591"/><path d="M50.75965,112.16801c23.17715,-3.41878 46.35429,-6.83757 69.53144,-10.25635c23.17715,-3.41878 76.99773,3.87779 130.81831,11.17436" stroke-opacity="0.53553" stroke="#4b0bdd" stroke-width="24.45716"/><path d="M10.27543,30.72208c-39.33676,-53.60668 -34.09814,-88.05825 -8.82858,-121.8241" stroke-opacity="0.35894" stroke="#c1283b" stroke-width="24.22382"/><path d="M17.04391,237.40518c-39.05164,-6.01288 -19.94819,-35.70992 -68.01142,-27.89328" stroke-opacity="0.40331" stroke="#4551ad" stroke-width="23.62793"/><path d="M159.72232,211.5585c11.29637,10.34103 22.59274,20.68206 33.88911,31.02309c11.29637,10.34103 -24.67342,16.69434 -60.64322,23.04765" stroke-opacity="0.18724" stroke="#c168ce" stroke-width="21.57786"/><path d="M179.22978,53.74001c-2.9649,22.3409 -5.92981,44.6818 6.91666,64.96749c12.84646,20.2857 41.50429,38.51619 70.16212,56.74669c28.65783,18.2305 0.92697,-16.68239 -26.80389,-51.59528" stroke-opacity="0.76673" stroke="#094e62" stroke-width="20.71428"/><path d="M182.78671,254.09862c52.38617,-4.71315 104.77234,-9.42629 130.47726,1.07301c25.70492,10.49931 24.72859,36.21106 23.75226,61.92282c-0.97633,25.71176 -22.53826,13.78656 -44.10019,1.86136" stroke-opacity="0.82032" stroke="#6ebcdf" stroke-width="24.63322"/><path d="M135.06049,235.25349c-49.14674,-44.50546 -57.69842,-101.8569 -60.84041,-120.96915" stroke-opacity="0.36193" stroke="#90972f" stroke-width="20.71428"/><path d="M251.35623,36.6527c3.36864,53.43696 2.9613,117.43781 14.6814,122.44726" stroke-opacity="0.02287" stroke="#b812cc" stroke-width="20.71428"/><path d="M240.09253,245.84807c-17.76131,-29.72472 -35.52261,-59.44944 -53.28392,-89.17416c-17.76131,-29.72472 2.04976,-33.49023 21.86082,-37.25574" stroke-opacity="0.43458" stroke="#9e54f1" stroke-width="24.68635"/><path d="M223.18889,155.56143c-54.32079,-10.02744 8.70457,-10.20027 -1.04213,-4.53822" stroke-opacity="0.9867" stroke="#d847b1" stroke-width="22.07362"/><path d="M89.88161,175.63971c6.2076,-1.40826 -23.49943,41.57195 -16.14043,58.06108" stroke-opacity="0.36587" stroke="#020d28" stroke-width="20.71428"/><path d="M70.29688,48.05043c-22.88263,-2.37005 -45.76525,-4.7401 -68.64788,-7.11015c-22.88263,-2.37005 -26.86186,4.96908 -30.84109,12.30821" stroke-opacity="0.80776" stroke="#149aa6" stroke-width="22.59281"/><path d="M19.29076,132.33527c-4.60699,33.6367 -20.45884,87.75531 8.87034,99.91885" stroke-opacity="0.4952" stroke="#def18a" stroke-width="20.71428"/><path d="M260.92032,237.33025c56.49411,37.8698 58.68222,-18.07657 9.59341,-30.36742" stroke-opacity="0.80886" stroke="#ba1d8a" stroke-width="24.72842"/><path d="M127.25094,141.75822c38.30094,58.07431 5.60668,8.55008 6.53292,54.44583" stroke-opacity="0.05789" stroke="#b90a38" stroke-width="23.47234"/><path d="M24.4576,19.71194c26.4372,-22.16207 52.8744,-44.32413 79.31161,-66.4862c26.4372,-22.16207 19.19007,34.67361 11.94295,91.50928" stroke-opacity="0.88061" stroke="#908200" stroke-width="21.81093"/><path d="M203.61353,192.23064c18.95711,35.35284 37.91421,70.70568 37.571,58.90887c-0.34321,-11.7968 -19.98675,-70.74325 -39.63028,-129.6897c-19.64353,-58.94645 -44.58525,-27.25133 -69.52696,4.44379" stroke-opacity="0.20296" stroke="#04dbc6" stroke-width="24.71881"/><path d="M201.39664,96.77776c6.01489,24.63554 12.02978,49.27109 15.74673,57.94997c3.71695,8.67889 5.13597,1.40112 6.55499,-5.87665c1.41902,-7.27777 30.52791,-4.1535 59.63681,-1.02924" stroke-opacity="0.95427" stroke="#b18543" stroke-width="20.71428"/><path d="M222.06778,144.03409c27.47273,-1.55168 54.94545,-3.10337 69.8623,5.89992c14.91685,9.00328 17.27782,28.56153 19.63879,48.11978c2.36097,19.55825 52.24833,44.4057 102.13568,69.25316" stroke-opacity="0.21369" stroke="#ad2174" stroke-width="24.63251"/><path d="M64.59305,94.68156c-40.62144,-38.66137 -74.08608,-83.99428 -69.42718,-67.17847" stroke-opacity="0.28226" stroke="#15b070" stroke-width="20.71428"/><path d="M192.90369,35.50809c-17.0846,-30.87004 -34.1692,-61.74008 -51.2538,-92.61012c-17.0846,-30.87004 5.56201,-9.19831 28.20862,12.47342" stroke-opacity="0.60558" stroke="#836aba" stroke-width="22.1516"/><path d="M270.19949,47.59636c7.13696,5.27734 40.51541,-16.99111 45.87018,-64.33891" stroke-opacity="0.18212" stroke="#9260ac" stroke-width="24.74154"/><path d="M130.57811,65.83154c-3.5615,-15.46114 -7.123,-30.92228 -10.6845,-46.38342c-3.5615,-15.46114 -30.62984,23.23122 -57.69819,61.92358" stroke-opacity="0.69667" stroke="#bc1073" stroke-width="21.917"/><path d="M74.90945,193.38055c6.26601,-45.71603 16.64877,-72.92677 9.73159,-121.52197" stroke-opacity="0.59249" stroke="#a75dac" stroke-width="20.71428"/><path d="M33.33986,224.10283c39.46286,-12.76679 78.92571,-25.53358 100.38614,-39.73767c21.46042,-14.20409 24.91841,-29.84549 28.3764,-45.48689c3.45799,-15.6414 -24.91584,19.08616 -53.28967,53.81372" stroke-opacity="0.8177" stroke="#c8758b" stroke-width="20.71428"/><path d="M175.32269,123.11286c-28.29884,17.88434 -56.59768,35.76868 -84.89651,53.65302c-28.29884,17.88434 24.20553,-29.90364 76.7099,-77.69162" stroke-opacity="0.21623" stroke="#c19b76" stroke-width="24.38385"/></g></g><g fill="none" stroke-linecap="round" stroke-linejoin="round"><g><path d="M966.87549,1030.53113c4.35473,-1.4906 8.70947,-2.98121 16.42261,-5.33228c7.71314,-2.35107 18.78468,-5.5626 29.07025,-38.62372c10.28557,-33.06112 19.78518,-95.97183 8.48767,-145.30817c-11.2975,-49.33634 -43.39212,-85.09832 -62.73804,-109.98389c-19.34592,-24.88557 -25.94315,-38.89473 -32.60583,-48.46027c-6.66268,-9.56553 -13.39082,-14.68743 -16.44788,-18.86792c-3.05706,-4.18049 -2.44304,-7.41955 -7.77667,-12.383c-5.33363,-4.96344 -16.61491,-11.65125 -23.97266,-17.88513c-7.35774,-6.23388 -10.79194,-12.01382 -24.27869,-28.56964c-13.48674,-16.55582 -37.02603,-43.88752 -57.03625,-69.9455c-20.01022,-26.05797 -36.49138,-50.84222 -52.97253,-75.62646c-16.48116,-24.78425 -25.9159,-58.36609 -35.35065,-91.94794" stroke="#412d95" stroke-width="20.71428"/><path d="M964.54608,272.48273c-1.1507,-2.14812 -2.3014,-4.29623 0.12854,1.91782c2.42994,6.21405 8.44053,20.79026 8.7674,20.03568c0.32687,-0.75458 -5.02998,-16.83995 12.80597,29.30817c17.83595,46.14812 58.86471,154.52972 75.34686,208.25549c16.48216,53.72577 8.41771,52.79572 0.35327,51.86566c-8.06444,-0.93006 -7.75787,7.13263 -7.45129,15.19531" stroke="#3e2d95" stroke-width="20.71428"/><path d="M407.46576,1093.53784c-0.95117,0.30785 -1.90234,0.61569 -3.78049,2.15369c-1.87814,1.538 -4.68326,4.30614 -8.63113,6.85193c-3.94787,2.54579 -9.03849,4.86921 -26.27786,10.76294c-17.23937,5.89373 -46.62748,15.35777 -85.72592,20.12659c-39.09844,4.76882 -87.90722,4.84242 -136.71599,4.91602c-48.80877,0.0736 -65.84721,-4.42908 -82.88565,-8.93176" stroke="#3e2d95" stroke-width="20.71428"/><path d="M102.88034,200.05452c-18.87492,-26.57521 -37.74984,-53.15043 -42.20724,-48.55736c-4.4574,4.59307 5.50272,40.35442 15.46284,76.11577c9.96012,35.76135 7.91337,22.18365 5.86661,8.60594" stroke-opacity="0.81797" stroke="#a7a8cf" stroke-width="26.2736"/><path d="M94.95582,48.74899c15.89708,11.11446 31.79416,22.22892 47.69125,33.34338c15.89708,11.11446 -66.42971,46.83771 -148.75649,82.56097" stroke-opacity="0.02861" stroke="#5d2a24" stroke-width="26.34105"/><path d="M74.90839,225.23561c-5.9631,-45.87775 -16.2256,-38.11583 -20.15173,-75.65558" stroke-opacity="0.54965" stroke="#ce5d2b" stroke-width="26.5145"/><path d="M105.87529,165.68446c12.23894,14.99951 24.47788,29.99901 36.71683,44.99852c12.23894,14.99951 0.33152,-15.52318 -11.5759,-46.04587" stroke-opacity="0.44094" stroke="#1598d7" stroke-width="20.71428"/><path d="M181.20296,171.68839c12.63487,19.17876 25.26975,38.35752 19.85591,29.09219c-5.41384,-9.26533 -28.87639,-46.97475 -52.33894,-84.68417c-23.46255,-37.70942 -19.89789,17.98132 -16.33324,73.67207" stroke-opacity="0.53198" stroke="#47d263" stroke-width="20.71428"/><path d="M235.67905,165.32854c7.85219,-20.82096 15.70439,-41.64192 23.55658,-62.46288c7.85219,-20.82096 -13.2601,-18.92637 -34.37239,-17.03178" stroke-opacity="0.87094" stroke="#c2a127" stroke-width="25.75932"/><path d="M53.20359,110.35242c22.56229,-2.32687 45.12458,-4.65373 67.68687,-6.9806c22.56229,-2.32687 77.06867,3.02913 131.57506,8.38513" stroke-opacity="0.54022" stroke="#4b0ae0" stroke-width="26.23818"/><path d="M8.17919,31.72003c-38.64307,-53.30405 -33.53495,-87.58719 -8.36364,-121.23502" stroke-opacity="0.3627" stroke="#c2273c" stroke-width="24.06931"/><path d="M14.46868,238.23106c-36.85705,-6.38498 -17.6652,-36.23799 -65.21793,-28.54103" stroke-opacity="0.4082" stroke="#4451af" stroke-width="25.06301"/><path d="M158.7534,213.04733c11.77849,9.72663 23.55699,19.45326 35.33548,29.17989c11.77849,9.72663 -24.77436,15.43939 -61.32721,21.15215" stroke-opacity="0.17804" stroke="#c16ad0" stroke-width="20.71428"/><path d="M181.77498,52.76822c-4.40011,23.0352 -8.80022,46.0704 3.57857,66.6033c12.37879,20.5329 41.53647,38.5635 70.69415,56.59411c29.15768,18.0306 1.04799,-16.3468 -27.06171,-50.7242" stroke-opacity="0.7725" stroke="#0a4c61" stroke-width="20.97681"/><path d="M181.2813,252.3857c52.87955,-3.79498 105.7591,-7.58997 131.47966,2.92749c25.72056,10.51746 24.28212,35.34736 22.84369,60.17726c-1.43843,24.8299 -21.4284,12.91938 -41.41837,1.00885" stroke-opacity="0.81296" stroke="#6cbede" stroke-width="25.0979"/><path d="M133.11147,236.70999c-48.74834,-43.75586 -54.62273,-103.67952 -57.31853,-122.27129" stroke-opacity="0.36357" stroke="#8d982e" stroke-width="20.71428"/><path d="M250.01508,35.67737c3.66466,55.76687 2.54228,120.45164 13.88129,122.12434" stroke-opacity="0.01561" stroke="#b613ca" stroke-width="20.71428"/><path d="M238.99348,247.24338c-18.08934,-29.42768 -36.17867,-58.85537 -54.26801,-88.28305c-18.08934,-29.42768 2.83431,-34.5884 23.75795,-39.74912" stroke-opacity="0.44057" stroke="#a052f3" stroke-width="26.6144"/><path d="M223.1823,157.69698c-56.49896,-10.08672 6.94002,-10.42839 -2.56226,-4.89844" stroke-opacity="0.98504" stroke="#d846b2" stroke-width="20.71428"/><path d="M87.53172,174.72411c6.46367,-2.51862 -19.91624,42.97629 -11.68374,60.02769" stroke-opacity="0.3602" stroke="#000f27" stroke-width="20.71428"/><path d="M70.1836,50.61822c-22.2446,-2.83175 -44.4892,-5.66351 -66.7338,-8.49526c-22.2446,-2.83175 -27.44675,4.15805 -32.6489,11.14785" stroke-opacity="0.80796" stroke="#1399a8" stroke-width="21.46733"/><path d="M19.04804,132.96619c-2.65095,34.54128 -18.67326,86.70087 10.79537,100.27148" stroke-opacity="0.49266" stroke="#e0f289" stroke-width="21.24771"/><path d="M261.09201,238.90193c57.96915,38.52135 60.18127,-18.34143 10.43546,-30.76834" stroke-opacity="0.79908" stroke="#bc1b8b" stroke-width="26.36827"/><path d="M129.11885,139.74237c38.99217,58.58434 3.34619,10.40555 2.60033,56.62198" stroke-opacity="0.06651" stroke="#b70835" stroke-width="24.44952"/><path d="M23.24225,18.16476c26.47363,-22.0207 52.94727,-44.0414 79.4209,-66.0621c26.47363,-22.0207 20.7079,35.39288 14.94218,92.80646" stroke-opacity="0.87873" stroke="#928000" stroke-width="23.30989"/><path d="M202.67387,193.43881c18.9499,34.40125 37.8998,68.80249 37.60179,56.54813c-0.29801,-12.25436 -19.84394,-71.16434 -39.38986,-130.07431c-19.54593,-58.90997 -43.69788,-27.4331 -67.84984,4.04377" stroke-opacity="0.21247" stroke="#01dec6" stroke-width="26.70419"/><path d="M199.06506,94.59069c7.72232,24.66324 15.44464,49.32648 19.81755,58.33134c4.37291,9.00485 5.39643,2.35132 6.41994,-4.30222c1.02351,-6.65353 28.92856,-4.36214 56.83362,-2.07076" stroke-opacity="0.9513" stroke="#b38345" stroke-width="20.71428"/><path d="M223.48058,146.42932c26.58418,-1.74821 53.16835,-3.49641 67.97643,5.15578c14.80807,8.65219 17.84004,27.70478 20.87201,46.75737c3.03197,19.05259 53.08205,43.01398 103.13214,66.97537" stroke-opacity="0.21973" stroke="#af2073" stroke-width="26.20449"/><path d="M64.58411,94.65141c-41.68092,-37.54543 -74.92572,-83.054 -70.37492,-66.04084" stroke-opacity="0.28707" stroke="#13af72" stroke-width="21.83521"/><path d="M194.25775,33.48064c-17.19658,-30.41915 -34.39316,-60.8383 -51.58974,-91.25745c-17.19658,-30.41915 4.99696,-8.63548 27.19049,13.14819" stroke-opacity="0.60919" stroke="#8269bc" stroke-width="23.81945"/><path d="M272.52094,47.58548c4.79745,3.78977 36.7825,-17.8433 41.53622,-66.04219" stroke-opacity="0.18329" stroke="#955dae" stroke-width="26.69431"/><path d="M131.02612,63.89368c-4.27394,-15.44977 -8.54789,-30.89953 -12.82183,-46.3493c-4.27394,-15.44977 -29.20592,24.7429 -54.1379,64.93557" stroke-opacity="0.68729" stroke="#bf0e76" stroke-width="23.29126"/><path d="M72.58931,194.71568c10.60334,-44.88673 20.46836,-72.36275 12.64411,-121.45906" stroke-opacity="0.58304" stroke="#a560ae" stroke-width="20.71428"/><path d="M32.39233,223.7513c40.96535,-12.66963 81.93071,-25.33927 103.32127,-39.53619c21.39056,-14.19692 23.20634,-29.92114 25.02211,-45.64536c1.81577,-15.72422 -24.60831,19.56718 -51.03239,54.85857" stroke-opacity="0.80795" stroke="#c7778b" stroke-width="20.71428"/><path d="M173.8528,124.05225c-28.606,17.61142 -57.212,35.22283 -85.81799,52.83425c-28.606,17.61142 26.05566,-30.44389 80.71732,-78.49919" stroke-opacity="0.22505" stroke="#c39a76" stroke-width="26.18014"/></g></g><g fill="none" stroke-linecap="round" stroke-linejoin="round"><g><path d="M967.10864,1032.47961c5.35734,-1.16991 10.71468,-2.33982 18.06256,-5.47937c7.34789,-3.13955 16.68632,-8.24874 26.22858,-41.54321c9.54226,-33.29448 19.28835,-94.77424 8.68616,-144.05304c-10.60219,-49.2788 -41.55265,-86.35662 -60.49268,-111.71265c-18.94002,-25.35603 -25.86961,-38.99026 -32.63904,-48.31305c-6.76943,-9.32279 -13.3787,-14.33414 -17.22607,-17.75287c-3.84737,-3.41873 -4.93285,-5.24484 -9.93079,-10.63135c-4.99794,-5.3865 -13.90835,-14.3334 -21.20734,-20.57745c-7.29899,-6.24406 -12.98656,-9.78528 -27.34143,-25.49164c-14.35487,-15.70636 -37.37703,-43.57785 -56.71545,-70.32001c-19.33843,-26.74216 -34.99313,-52.35498 -50.64783,-77.9678c-15.6547,-25.61282 -25.18654,-59.31056 -34.71838,-93.0083" stroke="#3f2c96" stroke-width="20.71428"/><path d="M963.96008,273.7886c-1.54453,-2.4157 -3.08905,-4.83139 -0.35504,1.09277c2.73401,5.92417 9.74656,20.1882 10.53107,19.00464c0.7845,-1.18356 -4.65905,-17.81471 13.24683,28.78104c17.90587,46.59575 59.16116,156.41839 75.18542,210.36993c16.02426,53.95154 6.81749,52.03198 -2.38928,50.11243c-9.20677,-1.91956 -8.12695,6.16177 -7.04712,14.2431" stroke="#3e2c96" stroke-width="20.71428"/><path d="M406.00961,1092.57019c-0.25105,0.87831 -0.5021,1.75663 -2.34485,3.19238c-1.84275,1.43575 -5.27721,3.42894 -9.35394,5.69299c-4.07673,2.26405 -8.79574,4.79896 -25.98746,10.59668c-17.19172,5.79772 -46.85614,14.85826 -85.88669,19.92444c-39.03054,5.06618 -87.42721,6.13801 -135.82387,7.20984c-48.39666,1.07183 -66.18403,-3.54252 -83.9714,-8.15686" stroke="#3e2c97" stroke-width="20.71428"/><path d="M101.8137,200.61998c-17.82684,-27.90877 -35.65369,-55.81753 -39.61278,-51.01125c-3.9591,4.80629 5.94956,42.32763 15.85821,79.84897c9.90865,37.52134 6.97276,22.45469 4.03687,7.38805" stroke-opacity="0.82461" stroke="#a7a8cd" stroke-width="27.85055"/><path d="M94.65611,46.75439c15.62142,11.44794 31.24283,22.89587 46.86425,34.34381c15.62142,11.44794 -66.1717,47.25119 -147.96482,83.05445" stroke-opacity="0.02696" stroke="#5f2924" stroke-width="28.05453"/><path d="M73.7681,227.71379c-7.11409,-46.15967 -15.21963,-40.54985 -18.67287,-79.70596" stroke-opacity="0.55912" stroke="#d05b29" stroke-width="28.39703"/><path d="M107.65759,167.1611c11.05604,15.18309 22.11208,30.36618 33.16812,45.54927c11.05604,15.18309 1.73697,-16.1964 -7.58211,-47.5759" stroke-opacity="0.44969" stroke="#1396d9" stroke-width="20.71428"/><path d="M182.98296,171.30148c12.08925,20.32042 24.17851,40.64083 18.35167,31.33673c-5.82684,-9.3041 -29.56977,-48.23272 -53.3127,-87.16135c-23.74293,-38.92862 -19.14517,17.71397 -14.54741,74.35657" stroke-opacity="0.52989" stroke="#44d065" stroke-width="20.71428"/><path d="M234.09285,165.37921c8.02208,-20.07161 16.04416,-40.14321 24.06624,-60.21482c8.02208,-20.07161 -13.50079,-20.84311 -35.02365,-21.61462" stroke-opacity="0.8673" stroke="#c29f29" stroke-width="27.28481"/><path d="M54.72495,108.73347c22.5351,-1.14917 45.07019,-2.29834 67.60529,-3.44752c22.5351,-1.14917 77.09389,2.40682 131.65268,5.96282" stroke-opacity="0.54227" stroke="#4b09e2" stroke-width="27.93199"/><path d="M6.17599,33.42839c-37.78047,-53.95273 -32.76936,-88.09982 -7.64287,-121.68946" stroke-opacity="0.3645" stroke="#c2253e" stroke-width="24.93159"/><path d="M12.15054,237.84189c-34.93717,-5.58636 -15.7243,-35.50674 -62.90461,-27.86554" stroke-opacity="0.41243" stroke="#4350b0" stroke-width="26.24505"/><path d="M159.84694,213.38254c11.61194,9.32625 23.22389,18.6525 34.83583,27.97874c11.61194,9.32625 -25.21169,14.66721 -62.03532,20.00816" stroke-opacity="0.16873" stroke="#c26cd1" stroke-width="20.71428"/><path d="M183.58754,51.59456c-5.33339,23.76698 -10.66678,47.53395 1.22382,68.23684c11.89059,20.70289 41.00517,38.34168 70.11975,55.98048c29.11458,17.6388 1.16739,-15.55104 -26.7798,-48.74088" stroke-opacity="0.77255" stroke="#0b4b61" stroke-width="20.72367"/><path d="M179.5883,250.86226c53.41433,-3.42582 106.82865,-6.85163 132.60088,3.86438c25.77222,10.71601 23.90235,35.57385 22.03247,60.43169c-1.86988,24.85784 -20.125,11.95233 -38.38013,-0.95319" stroke-opacity="0.81392" stroke="#69c1dc" stroke-width="25.70269"/><path d="M131.32813,236.07309c-48.29178,-41.55042 -52.2466,-103.08664 -54.26701,-120.60709" stroke-opacity="0.3666" stroke="#8b9a2d" stroke-width="20.71428"/><path d="M249.09892,35.14677c3.88406,57.29899 2.10759,122.68036 13.23247,121.91257" stroke-opacity="0.00963" stroke="#b412c8" stroke-width="20.71428"/><path d="M237.65804,247.71301c-17.77026,-29.75939 -35.54053,-59.51879 -53.31079,-89.27818c-17.77026,-29.75939 2.7731,-34.5558 23.31647,-39.35221" stroke-opacity="0.44238" stroke="#a251f2" stroke-width="27.27236"/><path d="M222.71196,159.71367c-57.64789,-10.28299 6.40611,-10.89484 -2.46188,-5.7014" stroke-opacity="0.98823" stroke="#d945b2" stroke-width="20.71428"/><path d="M85.2649,173.98358c6.60548,-3.73788 -16.18624,44.50429 -7.50988,61.38644" stroke-opacity="0.3553" stroke="#001125" stroke-width="20.78674"/><path d="M69.14304,53.07089c-21.37246,-3.22412 -42.74491,-6.44825 -64.11737,-9.67237c-21.37246,-3.22412 -27.80059,3.32957 -34.22873,9.88326" stroke-opacity="0.8059" stroke="#1298aa" stroke-width="20.71428"/><path d="M20.36095,131.64914c-1.93905,37.81499 -18.62879,88.00081 10.89843,102.59544" stroke-opacity="0.48835" stroke="#e2f289" stroke-width="21.5194"/><path d="M261.60986,239.12845c58.91992,40.12674 60.75616,-16.74385 10.64639,-29.60248" stroke-opacity="0.78918" stroke="#bf188d" stroke-width="28.07967"/><path d="M131.20361,137.50877c39.27643,59.64346 2.56708,13.9715 0.43231,59.60751" stroke-opacity="0.07565" stroke="#b50633" stroke-width="25.87044"/><path d="M22.68146,17.63179c26.62341,-21.85408 53.24681,-43.70815 79.87022,-65.56223c26.62341,-21.85408 21.76061,34.78271 16.89781,91.41949" stroke-opacity="0.87287" stroke="#947e01" stroke-width="24.45961"/><path d="M201.62244,192.35486c19.30961,34.36459 38.61922,68.72917 38.27519,56.62828c-0.34403,-12.10089 -20.34171,-70.66727 -40.33939,-129.23364c-19.99768,-58.56637 -43.3298,-28.08913 -66.66193,2.38812" stroke-opacity="0.2218" stroke="#00dfc7" stroke-width="28.71387"/><path d="M197.67665,93.01329c8.87599,25.24905 17.75198,50.4981 22.27257,59.53273c4.52059,9.03463 4.68577,1.85483 4.85095,-5.32497c0.16518,-7.1798 29.32502,-4.8378 58.48486,-2.4958" stroke-opacity="0.95491" stroke="#b38147" stroke-width="21.76146"/><path d="M223.94714,148.65538c25.95994,-2.37335 51.91988,-4.7467 66.46967,3.70041c14.54978,8.44711 17.68941,27.71469 20.82904,46.98227c3.13963,19.26758 54.37372,41.83207 105.60782,64.39656" stroke-opacity="0.22542" stroke="#b11f73" stroke-width="27.95005"/><path d="M64.98383,93.88486c-41.42386,-37.41667 -74.23652,-83.31224 -69.84011,-65.90253" stroke-opacity="0.29232" stroke="#10af74" stroke-width="23.18934"/><path d="M196.0387,31.32099c-17.2723,-30.08489 -34.5446,-60.16979 -51.81689,-90.25468c-17.2723,-30.08489 4.1822,-7.88991 25.6367,14.30508" stroke-opacity="0.61559" stroke="#8067be" stroke-width="25.63084"/><path d="M274.84964,46.9926c1.87921,3.2388 33.12714,-18.32067 37.539,-66.91966" stroke-opacity="0.18593" stroke="#975bb0" stroke-width="28.63429"/><path d="M132.48145,63.67359c-5.4162,-15.99314 -10.8324,-31.98628 -16.2486,-47.97941c-5.4162,-15.99314 -27.92468,26.08793 -50.43317,68.16899" stroke-opacity="0.6783" stroke="#c10b78" stroke-width="24.88367"/><path d="M70.44296,193.85883c13.70495,-43.48526 23.91084,-70.7425 15.48961,-119.21474" stroke-opacity="0.57447" stroke="#a461b0" stroke-width="20.71428"/><path d="M33.03543,224.44463c41.93562,-12.49561 83.87123,-24.99122 104.89212,-39.50401c21.02089,-14.51279 21.12704,-31.04277 21.2332,-47.57274c0.10616,-16.52997 -24.13142,20.18361 -48.369,56.89719" stroke-opacity="0.79807" stroke="#c8798b" stroke-width="20.71428"/><path d="M174.35121,124.40542c-29.51893,17.08381 -59.03786,34.16762 -88.55679,51.25143c-29.51893,17.08381 27.70747,-30.01598 84.93386,-77.11576" stroke-opacity="0.23361" stroke="#c59876" stroke-width="28.07848"/></g></g><g fill="none" stroke-linecap="round" stroke-linejoin="round"><g><path d="M967.82043,1034.62158c5.21214,-1.77859 10.42428,-3.55717 17.78516,-7.0033c7.36088,-3.44612 16.87049,-8.55978 25.93652,-41.60565c9.06603,-33.04588 17.68847,-94.02397 7.38818,-143.75476c-10.30029,-49.73079 -39.5233,-88.21427 -57.83032,-113.9834c-18.30702,-25.76913 -25.69805,-38.82392 -33.10828,-47.58234c-7.41022,-8.75842 -14.83964,-13.22047 -19.10278,-16.26257c-4.26314,-3.0421 -5.36001,-4.66426 -9.97559,-10.35284c-4.61558,-5.68858 -12.74987,-15.44359 -19.9624,-21.84998c-7.21254,-6.40638 -13.50332,-9.46414 -28.27875,-24.8371c-14.77543,-15.37295 -38.0355,-43.0611 -57.10663,-69.98157c-19.07113,-26.92046 -33.95332,-53.07324 -48.83551,-79.22601c-14.88219,-26.15278 -24.43591,-59.99834 -33.98962,-93.8439" stroke="#3f2b96" stroke-width="20.71428"/><path d="M964.40173,274.08496c-1.82363,-2.78326 -3.64727,-5.56652 -0.92456,0.43472c2.72271,6.00124 9.99175,20.78699 10.73383,19.71646c0.74207,-1.07053 -5.04283,-17.99733 13.18506,28.42566c18.22789,46.42298 60.46858,156.19575 76.33258,210.2218c15.864,54.02605 5.35131,52.30538 -5.16138,50.58472c-10.51269,-1.72067 -8.12695,5.99095 -5.74121,13.70258" stroke="#3e2c95" stroke-width="20.71428"/><path d="M405.90292,1092.81421c0.08621,1.09747 0.17242,2.19494 -1.68088,3.46838c-1.8533,1.27345 -5.64611,2.72287 -9.7251,4.99658c-4.07898,2.27371 -8.44414,5.37172 -25.54736,10.96216c-17.10322,5.59044 -46.94452,13.67332 -86.22876,18.48645c-39.28424,4.81313 -88.01143,6.35652 -136.73862,7.8999c-48.72719,1.54339 -66.33062,-2.23374 -83.93404,-6.01086" stroke="#3e2b97" stroke-width="20.71428"/><path d="M100.81123,200.80127c-16.93309,-28.92455 -33.86618,-57.84911 -37.31872,-52.75392c-3.45254,5.09518 6.57546,44.21011 16.60346,83.32503c10.028,39.11492 6.02734,22.57238 2.02669,6.02983" stroke-opacity="0.83164" stroke="#a6a9cc" stroke-width="29.3656"/><path d="M94.41388,44.94152c15.28549,11.72016 30.57097,23.44032 45.85646,35.16047c15.28549,11.72016 -65.81965,47.70875 -146.92479,83.69734" stroke-opacity="0.02607" stroke="#602824" stroke-width="29.59566"/><path d="M72.38707,229.8217c-8.08483,-46.06198 -14.81296,-42.02516 -16.72099,-82.94986" stroke-opacity="0.56732" stroke="#d25a27" stroke-width="30.22075"/><path d="M109.56099,168.64566c9.81069,15.32906 19.62139,30.65812 29.43208,45.98718c9.81069,15.32906 3.20004,-16.91661 -3.41061,-49.16228" stroke-opacity="0.4554" stroke="#1294da" stroke-width="20.71428"/><path d="M184.45273,170.77403c11.4809,21.5292 22.96179,43.0584 16.77216,33.72614c-6.18964,-9.33226 -30.04981,-49.52598 -53.90999,-89.7197c-23.86017,-40.19372 -18.26268,17.40091 -12.66518,74.99553" stroke-opacity="0.52614" stroke="#43ce67" stroke-width="20.71428"/><path d="M232.14557,164.85396c8.40208,-19.45115 16.80416,-38.9023 25.20624,-58.35345c8.40208,-19.45115 -13.50473,-22.06998 -35.41154,-24.6888" stroke-opacity="0.86148" stroke="#c29d2b" stroke-width="28.56195"/><path d="M56.50983,107.51279c22.41035,-0.0543 44.8207,-0.1086 67.23105,-0.1629c22.41035,-0.0543 77.204,1.80292 131.99764,3.66013" stroke-opacity="0.5391" stroke="#4b09e5" stroke-width="29.53117"/><path d="M5.78582,34.12821c-37.97907,-54.21613 -33.36186,-87.86803 -8.33344,-121.33699" stroke-opacity="0.36929" stroke="#c22340" stroke-width="26.26061"/><path d="M10.17287,238.67421c-33.19897,-6.08464 -13.89364,-36.16689 -60.7148,-28.62578" stroke-opacity="0.41646" stroke="#434fb1" stroke-width="27.56659"/><path d="M161.31685,212.77644c11.42262,9.48374 22.84525,18.96748 34.26787,28.45122c11.42262,9.48374 -25.86994,13.95513 -63.16251,18.42651" stroke-opacity="0.16003" stroke="#c36ed2" stroke-width="20.71428"/><path d="M185.08551,50.85189c-5.91306,24.37861 -11.82612,48.75722 -0.3475,69.52533c11.47862,20.76811 40.34892,37.92573 69.21922,55.08335c28.8703,17.15762 1.55045,-15.37449 -25.76939,-47.90661" stroke-opacity="0.77196" stroke="#0c4b61" stroke-width="20.71428"/><path d="M178.12857,249.21635c53.90483,-2.79785 107.80966,-5.5957 133.58371,5.29674c25.77405,10.89244 23.41733,35.47517 21.06061,60.05789c-2.35672,24.58273 -19.21375,11.17535 -36.07077,-2.23203" stroke-opacity="0.81701" stroke="#67c3db" stroke-width="26.58796"/><path d="M129.60519,235.60007c-47.63961,-39.68477 -49.81187,-102.76221 -51.28605,-119.34203" stroke-opacity="0.37032" stroke="#889b2d" stroke-width="20.71428"/><path d="M248.29463,34.71354c3.95119,58.76579 1.51433,124.80433 12.34087,121.72463" stroke-opacity="0.00427" stroke="#b512c6" stroke-width="20.71428"/><path d="M236.4516,247.84659c-17.67181,-29.77289 -35.34362,-59.54579 -53.01543,-89.31868c-17.67181,-29.77289 3.08608,-35.16165 23.84396,-40.55042" stroke-opacity="0.44288" stroke="#a351f3" stroke-width="28.46574"/><path d="M222.03708,161.9232c-58.60374,-11.30119 6.11537,-11.97969 -2.09718,-6.96162" stroke-opacity="0.98945" stroke="#db45b2" stroke-width="20.71428"/><path d="M83.26062,173.23572c7.18436,-4.42555 -12.67692,46.09509 -3.81035,62.76686" stroke-opacity="0.35166" stroke="#001324" stroke-width="21.18317"/><path d="M68.9095,55.17497c-21.27876,-3.34107 -42.55752,-6.68213 -63.83629,-10.0232c-21.27876,-3.34107 -27.85859,2.64949 -34.43842,8.64006" stroke-opacity="0.80217" stroke="#1397ad" stroke-width="20.71428"/><path d="M22.0858,130.15135c-1.47311,41.48216 -18.55647,90.13066 10.61252,105.60886" stroke-opacity="0.48673" stroke="#e4f189" stroke-width="21.73186"/><path d="M263.08282,238.49579c58.5257,40.8349 60.25037,-15.72998 9.19971,-27.25233" stroke-opacity="0.78215" stroke="#c1168d" stroke-width="29.64492"/><path d="M132.23831,135.71677c40.10114,61.58208 2.85719,17.38103 -0.5274,62.28412" stroke-opacity="0.08472" stroke="#b40331" stroke-width="27.30128"/><path d="M21.51713,17.2169c26.80203,-21.8884 53.60406,-43.7768 80.40609,-65.6652c26.80203,-21.8884 22.39484,34.38678 17.98765,90.66196" stroke-opacity="0.86873" stroke="#967c02" stroke-width="25.85382"/><path d="M201.14857,191.09218c19.52544,34.31537 39.05088,68.63073 38.7653,56.52946c-0.28558,-12.10127 -20.38217,-70.61918 -40.47876,-129.13708c-20.09659,-58.51791 -43.51874,-28.41213 -66.94089,1.69364" stroke-opacity="0.23068" stroke="#00e0c9" stroke-width="30.75224"/><path d="M195.9584,91.33154c10.3293,25.96161 20.6586,51.92322 25.22221,60.95454c4.56361,9.03132 3.36153,1.13236 2.15945,-6.7666c-1.20208,-7.89896 29.46005,-5.18367 60.12218,-2.46838" stroke-opacity="0.95577" stroke="#b37f49" stroke-width="22.29437"/><path d="M223.82365,148.49214c25.5666,-2.14138 51.1332,-4.28277 65.5843,4.15271c14.45111,8.43548 17.78673,27.44782 21.12234,46.46016c3.33562,19.01234 55.45344,40.8521 107.57126,62.69186" stroke-opacity="0.22748" stroke="#b01f73" stroke-width="29.52641"/><path d="M64.83149,93.89718c-41.02106,-37.65868 -73.34254,-84.00255 -69.02077,-66.28091" stroke-opacity="0.29518" stroke="#0ead76" stroke-width="24.18145"/><path d="M197.39839,29.38972c-17.28885,-29.76783 -34.57771,-59.53566 -51.86656,-89.3035c-17.28885,-29.76783 3.51891,-7.24133 24.32668,15.28516" stroke-opacity="0.62323" stroke="#7e65be" stroke-width="27.5104"/><path d="M277.04352,46.00146c-1.23373,2.61899 29.82736,-18.3765 34.04254,-67.10736" stroke-opacity="0.18404" stroke="#9859b1" stroke-width="29.97091"/><path d="M133.78281,63.48442c-6.48141,-16.52864 -12.96283,-33.05729 -19.44424,-49.58593c-6.48141,-16.52864 -26.74222,27.09795 -47.00303,70.72454" stroke-opacity="0.67028" stroke="#c3097a" stroke-width="25.90218"/><path d="M68.72237,192.91107c16.47842,-41.80455 27.0143,-68.83776 17.95267,-116.68901" stroke-opacity="0.56669" stroke="#a362b1" stroke-width="20.71428"/><path d="M33.78552,225.48064c42.78112,-12.27739 85.56224,-24.55478 106.25104,-39.44817c20.6888,-14.89339 19.28528,-32.40277 17.88176,-49.91216c-1.40352,-17.50938 -23.77603,20.7851 -46.14854,59.07957" stroke-opacity="0.79033" stroke="#c97b8a" stroke-width="20.71428"/><path d="M174.91496,124.83796c-30.46884,16.37196 -60.93768,32.74392 -91.40652,49.11588c-30.46884,16.37196 29.45393,-29.37448 89.37669,-75.12092" stroke-opacity="0.241" stroke="#c89676" stroke-width="29.91594"/></g></g><g fill="none" stroke-linecap="round" stroke-linejoin="round"><g><path d="M968.21405,1036.65027c4.89241,-2.76538 9.78481,-5.53076 17.32507,-9.08411c7.54026,-3.55334 17.72837,-7.89464 26.51556,-40.57495c8.7872,-32.68031 16.17348,-93.69962 6.11157,-144.03204c-10.06191,-50.33242 -37.572,-89.97795 -55.47443,-115.92041c-17.90243,-25.94246 -26.19718,-38.18185 -34.27173,-46.34558c-8.07455,-8.16373 -15.92888,-12.25181 -20.23975,-15.29187c-4.31086,-3.04006 -5.07825,-5.0321 -9.58514,-10.86426c-4.5069,-5.83216 -12.75331,-15.50442 -19.88855,-22.02301c-7.13524,-6.51859 -13.15932,-9.88349 -27.98883,-25.28491c-14.82951,-15.40142 -38.46445,-42.83937 -57.43219,-69.73181c-18.96774,-26.89244 -33.2683,-53.23937 -47.56885,-79.5863c-14.30055,-26.34693 -24.46094,-60.56676 -34.62134,-94.78659" stroke="#3f2b95" stroke-width="20.71428"/><path d="M965.28418,273.46585c-1.76895,-3.11122 -3.53791,-6.22244 -1.20532,0.19965c2.33259,6.42208 8.76672,22.37747 9.13739,21.69513c0.37067,-0.68234 -5.32211,-18.0024 13.32745,27.83792c18.64957,45.84032 61.64149,154.84104 77.52185,208.90363c15.88036,54.06259 4.64917,53.18706 -6.58203,52.31152c-11.2312,-0.87553 -7.72204,6.16193 -4.21289,13.1994" stroke="#3f2d94" stroke-width="20.71428"/><path d="M406.45389,1093.61951c0.23389,1.18667 0.46778,2.37335 -1.32565,3.58862c-1.79343,1.21527 -5.6142,2.45914 -9.7052,4.77368c-4.091,2.31454 -8.45225,5.69974 -25.48669,10.96448c-17.03444,5.26474 -46.74207,12.40901 -86.35367,16.83252c-39.6116,4.42351 -89.12716,6.12624 -138.64272,7.82898c-49.51556,1.70274 -66.69193,-1.00227 -83.86831,-3.70728" stroke="#3f2b97" stroke-width="20.71428"/><path d="M99.2248,199.88795c-16.09769,-29.02656 -32.19537,-58.05312 -35.23068,-52.63284c-3.03531,5.42028 6.99176,45.28739 17.01882,85.1545c10.02707,39.86711 5.75732,22.49112 1.48757,5.11513" stroke-opacity="0.83868" stroke="#a6a9cb" stroke-width="29.65246"/><path d="M93.9676,43.392c15.04771,11.88873 30.09541,23.77747 45.14312,35.6662c15.04771,11.88873 -65.39048,48.21878 -145.82868,84.54883" stroke-opacity="0.02787" stroke="#612824" stroke-width="31.22127"/><path d="M70.86838,231.30453c-8.70809,-45.42299 -12.59942,-43.49146 -13.84478,-84.92288" stroke-opacity="0.57565" stroke="#d45a24" stroke-width="32.12852"/><path d="M111.32036,170.37515c8.59421,15.34758 17.18843,30.69516 25.78264,46.04274c8.59421,15.34758 3.57373,-17.21233 -1.44675,-49.77225" stroke-opacity="0.46164" stroke="#1092db" stroke-width="20.71428"/><path d="M185.78116,170.28258c10.87746,22.63702 21.75493,45.27404 15.18787,35.92906c-6.56706,-9.34498 -30.57865,-50.67195 -54.59024,-91.99892c-24.01159,-41.32697 -17.38707,16.53813 -10.76256,74.40323" stroke-opacity="0.52012" stroke="#42cc69" stroke-width="20.71428"/><path d="M230.35521,164.06458c8.79903,-18.79256 17.59805,-37.58513 26.39708,-56.37769c8.79903,-18.79256 -13.43305,-23.15296 -35.66513,-27.51335" stroke-opacity="0.85841" stroke="#c19d2c" stroke-width="29.63385"/><path d="M57.80904,107.5479c22.33391,0.47315 44.66782,0.9463 67.00172,1.41946c22.33391,0.47315 77.2367,1.30662 132.13949,2.14009" stroke-opacity="0.53476" stroke="#4c09e7" stroke-width="30.96198"/><path d="M6.14718,33.66708c-38.4958,-53.78471 -34.46206,-86.72636 -9.58178,-120.01803" stroke-opacity="0.37415" stroke="#c32141" stroke-width="27.76968"/><path d="M9.04203,238.81767c-33.00003,-5.34099 -13.65739,-35.5089 -60.23009,-28.01392" stroke-opacity="0.42054" stroke="#424eb2" stroke-width="28.79436"/><path d="M162.95938,212.64566c11.37925,9.78872 22.75849,19.57743 34.13774,29.36615c11.37925,9.78872 -27.17509,12.80018 -65.72943,15.81165" stroke-opacity="0.15372" stroke="#c270d3" stroke-width="20.71428"/><path d="M186.88495,49.35676c-6.50926,25.3229 -13.01851,50.6458 -2.01079,71.4512c11.00773,20.8054 39.53244,37.09331 68.05714,53.38122c28.52471,16.28791 1.65567,-14.87758 -25.21338,-46.04308" stroke-opacity="0.76964" stroke="#0e4b60" stroke-width="20.71428"/><path d="M176.66878,249.0325c54.55525,-2.67709 109.11049,-5.35417 135.08174,5.50508c25.97125,10.85925 23.3585,35.25484 20.74576,59.65044c-2.61275,24.39559 -19.17289,10.83555 -35.73303,-2.72449" stroke-opacity="0.82188" stroke="#65c5da" stroke-width="27.77905"/><path d="M128.162,234.92233c-47.32037,-37.79849 -47.6901,-102.03732 -48.75729,-118.91943" stroke-opacity="0.3734" stroke="#869a2c" stroke-width="20.71428"/><path d="M247.58752,34.2892c3.98346,60.05234 1.06699,126.61279 11.69382,121.61486" stroke-opacity="0" stroke="#b511c4" stroke-width="20.71428"/><path d="M235.41399,248.06911c-17.71069,-29.78318 -35.42138,-59.56637 -53.13206,-89.34955c-17.71069,-29.78318 3.41574,-35.92707 24.54218,-42.07096" stroke-opacity="0.44472" stroke="#a550f3" stroke-width="29.73713"/><path d="M220.57291,164.00801c-58.37906,-12.536 6.78481,-13.16023 -1.23758,-8.3064" stroke-opacity="0.993" stroke="#db44b2" stroke-width="20.71428"/><path d="M81.20383,172.65738c7.41672,-5.55444 -9.73275,47.18164 -0.41714,64.40775" stroke-opacity="0.35306" stroke="#001522" stroke-width="22.24541"/><path d="M69.65318,57.37032c-21.60421,-3.69554 -43.20842,-7.39108 -64.81263,-11.08661c-21.60421,-3.69554 -27.97659,2.13525 -34.34898,7.96603" stroke-opacity="0.80147" stroke="#1395af" stroke-width="20.71428"/><path d="M23.31746,128.36273c-1.01809,45.2506 -18.69202,92.73555 11.00645,108.69077" stroke-opacity="0.48521" stroke="#e6f188" stroke-width="21.95974"/><path d="M264.33984,237.62204c58.22293,41.26315 59.28772,-13.87227 7.66354,-24.40936" stroke-opacity="0.77423" stroke="#c3158e" stroke-width="31.25647"/><path d="M133.55775,134.27763c40.59888,62.79434 2.71086,20.07829 -1.42726,63.98392" stroke-opacity="0.09244" stroke="#b3012f" stroke-width="28.12663"/><path d="M20.25167,16.6572c27.29004,-21.60296 54.58008,-43.20592 81.87012,-64.80888c27.29004,-21.60296 22.8948,33.97363 18.49957,89.55021" stroke-opacity="0.86432" stroke="#987a04" stroke-width="27.3739"/><path d="M201.89085,190.06944c19.26827,34.25062 38.53654,68.50123 38.25574,56.31213c-0.2808,-12.1891 -20.11067,-70.81791 -39.94054,-129.44672c-19.82987,-58.62881 -43.59197,-28.77425 -67.35408,1.08031" stroke-opacity="0.23713" stroke="#00e0ca" stroke-width="32.38506"/><path d="M196.25046,89.62369c10.77679,26.46124 21.55359,52.92249 25.84882,61.98695c4.29523,9.06447 2.1089,0.73215 -0.07744,-7.60016c-2.18633,-8.33231 29.76014,-5.3218 61.70662,-2.31129" stroke-opacity="0.95595" stroke="#b37d4b" stroke-width="22.82025"/><path d="M223.71663,148.52258c25.07259,-1.81898 50.14518,-3.63795 64.70253,4.57892c14.55735,8.21687 18.59946,26.46959 22.64157,44.72231c4.04211,18.25272 56.12619,40.33944 108.21027,62.42616" stroke-opacity="0.22786" stroke="#af2073" stroke-width="31.03693"/><path d="M64.42992,94.16103c-40.72891,-37.79284 -71.89037,-85.28288 -67.34413,-67.67064" stroke-opacity="0.29745" stroke="#0dac78" stroke-width="25.13197"/><path d="M198.58125,27.81158c-17.18684,-29.64854 -34.37368,-59.29708 -51.56052,-88.94563c-17.18684,-29.64854 2.82546,-6.57156 22.83777,16.50543" stroke-opacity="0.63147" stroke="#7c63bf" stroke-width="29.40514"/><path d="M278.29681,44.61073c-3.98987,2.07227 27.32632,-18.37179 31.72601,-66.83934" stroke-opacity="0.18588" stroke="#9a57b3" stroke-width="31.53731"/><path d="M135.52028,63.87371c-7.59246,-17.18531 -15.18491,-34.37061 -22.77737,-51.55592c-7.59246,-17.18531 -25.69338,27.72835 -43.7943,72.64201" stroke-opacity="0.66163" stroke="#c5087d" stroke-width="27.0349"/><path d="M68.22568,192.80386c18.31264,-40.35257 28.84463,-67.30341 18.78751,-114.75079" stroke-opacity="0.55847" stroke="#a163b1" stroke-width="20.71428"/><path d="M34.73279,226.67746c43.55106,-11.92023 87.10212,-23.84046 107.48245,-39.17955c20.38033,-15.33909 17.58992,-34.09704 14.79951,-52.855c-2.79041,-18.75795 -23.302,21.45395 -43.8136,61.66585" stroke-opacity="0.78281" stroke="#ca7c8a" stroke-width="20.71428"/><path d="M175.28418,125.17138c-31.38735,15.59651 -62.77469,31.19302 -94.16204,46.78953c-31.38735,15.59651 30.10218,-28.92876 91.59171,-73.45403" stroke-opacity="0.24915" stroke="#ca9475" stroke-width="31.83201"/></g></g><path d="M693,948c4.71405,0 9.28595,2 14,2c9.86079,0 12.10669,-23.46147 13,-29c4.10927,-25.4775 2.01963,-48.90183 -3,-74c-4.65806,-23.29029 -12.78777,-61.03203 -41,-67c-12.4609,-2.63596 -25.26496,-3.79786 -38,-4c-8.39206,-0.13321 -16.72108,1.62018 -25,3c-16.42998,2.73833 -24.18972,5.38681 -38,17c-49.05939,41.25449 -41.78399,104.60004 -29,161c5.33862,23.55274 14.97301,45.64542 21,69c0.67153,2.60217 2.90029,6.09971 1,8c-2.10819,2.10819 -5.40146,-2.53832 -8,-4c-2.99114,-1.68252 -6.10943,-3.15003 -9,-5c-18.17429,-11.63155 -37.45426,-22.46733 -55,-35c-34.50188,-24.6442 -36.96901,-51.14733 -49,-91c-6.90642,-22.87752 -14.47892,-44.53542 -20,-68c-6.31166,-26.82456 -6,-57.20884 -6,-84" fill="none" stroke="#402f95" stroke-width="20" stroke-linecap="round" stroke-linejoin="round"/><path d="M464,583c5.38516,0 9.97378,-4.06684 15,-6c10.13395,-3.89767 20.65635,-6.69883 31,-10c30.93345,-9.87238 63.23092,-14.98216 94,-25c18.14424,-5.90743 36.03604,-12.56515 54,-19c3.28111,-1.17532 56.34647,-17.34647 66,-27" fill="none" stroke="#402f95" stroke-width="20" stroke-linecap="round" stroke-linejoin="round"/><path d="M470,419c1.66667,0 0,3.33333 0,5c0,6.33333 0,12.66667 0,19c0,21.41323 0.74349,42.51301 -9,62" fill="none" stroke="#402f95" stroke-width="20" stroke-linecap="round" stroke-linejoin="round"/><path d="M392,648v-249h398v249z" fill="#e9e9ff" stroke="none" stroke-width="1" stroke-linecap="butt" stroke-linejoin="miter" opacity="0.4"/></g></svg>