<svg version="1.1" xmlns="http://www.w3.org/2000/svg" xmlns:xlink="http://www.w3.org/1999/xlink" width="2010" height="1482" viewBox="0,0,2010,1482"><g fill="none" fill-rule="nonzero" stroke="#000000" stroke-width="50" stroke-linecap="round" stroke-linejoin="miter" stroke-miterlimit="10" stroke-dasharray="" stroke-dashoffset="0" font-family="none" font-weight="none" font-size="none" text-anchor="none" style="mix-blend-mode: normal"><path d="M571,585c0,15.46255 8.43139,33.53274 13,48c11.50603,36.43577 21.64279,72.52924 36,108c20.61973,50.94285 40.97813,89.66203 73,134c14.04708,19.44981 31.64458,34.73594 48,52c21.2962,22.47932 42.9856,46.56526 72,59c51.96003,22.26859 134.76814,21.86034 189,12c38.45658,-6.9921 74.57749,-14.28874 110,-32c43.33947,-21.66974 81.89903,-53.5242 119,-84c15.04889,-12.36159 31.15479,-24.15479 45,-38c21.48302,-21.48302 41.24792,-44.86445 62,-67c50.60975,-53.98373 109.50989,-120.18973 139,-189c15.76107,-36.77583 32,-74.79755 32,-115"></path><path d="M1107,345"></path><path d="M825,353c-3.4265,0 1.43136,15.43136 2,16c0.4714,0.4714 0,1.33333 0,2"></path><path d="M1075,327c5.65471,0 7.21555,7.83628 9,12c4.58248,10.69246 8,27.05347 8,39"></path></g></svg>