<?xml version="1.0" encoding="UTF-8" standalone="no" ?>
<!DOCTYPE svg PUBLIC "-//W3C//DTD SVG 1.1//EN" "http://www.w3.org/Graphics/SVG/1.1/DTD/svg11.dtd">
<svg xmlns="http://www.w3.org/2000/svg" xmlns:xlink="http://www.w3.org/1999/xlink" version="1.1" width="1482" height="1482" viewBox="0 0 1482 1482" xml:space="preserve">
<desc>Created with Fabric.js 4.5.1</desc>
<defs>
</defs>
<g transform="matrix(1 0 0 1 525.49 831.01)"  >
<path style="stroke: rgb(0,0,0); stroke-width: 28; stroke-dasharray: none; stroke-linecap: round; stroke-dashoffset: 0; stroke-linejoin: round; stroke-miterlimit: 10; fill: none; fill-rule: nonzero; opacity: 1;"  transform=" translate(-525.49, -831.01)" d="M 427.972 726 Q 428 726 428 726.5 Q 428 727 428.5 727 Q 429 727 429.5 727 Q 430 727 430.5 727 Q 431 727 432 727 Q 433 727 433.5 727 Q 434 727 435.5 727 Q 437 727 439.5 727 Q 442 727 444 727 Q 446 727 449.5 727.5 Q 453 728 456 728 Q 459 728 466 728 Q 473 728 476.5 729 Q 480 730 483.5 730 Q 487 730 491.5 730 Q 496 730 499 730.5 Q 502 731 504.5 731 Q 507 731 509.5 731 Q 512 731 514 731 Q 516 731 516.5 731 Q 517 731 517.5 731 Q 518 731 518.5 731 Q 519 731 519.5 731 Q 520 731 521 730.5 Q 522 730 523.5 730 Q 525 730 526.5 729.5 Q 528 729 532.5 728.5 Q 537 728 538 728 Q 539 728 539.5 728 Q 540 728 541.5 728 Q 543 728 543.5 727.5 Q 544 727 544.5 727 Q 545 727 545.5 727 Q 546 727 546.5 727 Q 547 727 547.5 727 Q 548 727 550 727 Q 552 727 553.5 726.5 Q 555 726 556 726 Q 557 726 558 726 Q 559 726 559.5 726 Q 560 726 560.5 726 Q 561 726 561.5 726 Q 562 726 562.5 726 Q 563 726 563.5 725.5 Q 564 725 564.5 725 Q 565 725 568 725 Q 571 725 573.5 725 Q 576 725 578.5 724.5 Q 581 724 583.5 724 Q 586 724 588.5 724 Q 591 724 592.5 724 Q 594 724 595 724 Q 596 724 596.5 724 Q 597 724 597.5 724 Q 598 724 598.5 724 Q 599 724 599.5 724 Q 600 724 600.5 724 Q 601 724 601.5 724 Q 602 724 602.5 724 Q 603 724 603.5 724 Q 604 724 604.5 724 Q 605 724 605.5 724 Q 606 724 606.5 724 Q 607 724 607 725 Q 607 726 608.5 730 Q 610 734 610.5 738.5 Q 611 743 611.5 747.5 Q 612 752 612.5 756 Q 613 760 613 764.5 Q 613 769 614 775 Q 615 781 615.5 787 Q 616 793 616 798 Q 616 803 617 809 Q 618 815 618 822 Q 618 829 618 834.5 Q 618 840 618 844 Q 618 848 618 851.5 Q 618 855 618 858.5 Q 618 862 618 864.5 Q 618 867 618 869.5 Q 618 872 618.5 875.5 Q 619 879 619 882.5 Q 619 886 619.5 889 Q 620 892 620 895.5 Q 620 899 620 902.5 Q 620 906 620.5 907.5 Q 621 909 621 912.5 Q 621 916 621.5 921.5 Q 622 927 622 928.5 Q 622 930 622 931.5 Q 622 933 622 933.5 Q 622 934 622 934.5 Q 622 935 622.5 935 Q 623 935 623 935.5 Q 623 936 623 937 L 623 938.028" stroke-linecap="round" />
</g>
<g transform="matrix(1 0 0 1 396.99 594.5)"  >
<path style="stroke: rgb(0,0,0); stroke-width: 28; stroke-dasharray: none; stroke-linecap: round; stroke-dashoffset: 0; stroke-linejoin: round; stroke-miterlimit: 10; fill: none; fill-rule: nonzero; opacity: 1;"  transform=" translate(-396.99, -594.5)" d="M 412 724.028 Q 412 724 412 723.5 Q 412 723 412 722.5 Q 412 722 412 721.5 Q 412 721 412 720.5 Q 412 720 412 719.5 Q 412 719 412 718.5 Q 412 718 412 717 Q 412 716 412 714.5 Q 412 713 412 710.5 Q 412 708 412 706.5 Q 412 705 412 699.5 Q 412 694 412 690.5 Q 412 687 412 684 Q 412 681 411.5 678 Q 411 675 410.5 672 Q 410 669 409.5 663 Q 409 657 408.5 651.5 Q 408 646 407 642 Q 406 638 405.5 634.5 Q 405 631 404.5 626.5 Q 404 622 403.5 618.5 Q 403 615 402.5 611 Q 402 607 401 602 Q 400 597 399.5 592.5 Q 399 588 399 586.5 Q 399 585 398.5 579 Q 398 573 397.5 569.5 Q 397 566 396.5 563.5 Q 396 561 395.5 557.5 Q 395 554 394 550.5 Q 393 547 392.5 543.5 Q 392 540 392 536 Q 392 532 391.5 529.5 Q 391 527 390.5 525 Q 390 523 389.5 520.5 Q 389 518 388.5 514 Q 388 510 388 507 Q 388 504 387.5 501.5 Q 387 499 386.5 497.5 Q 386 496 386 493.5 Q 386 491 385 487.5 Q 384 484 384 482.5 Q 384 481 384 480 Q 384 479 384 476.5 Q 384 474 384 473.5 Q 384 473 383.5 472 Q 383 471 383 470.5 Q 383 470 383 469.5 Q 383 469 383 468.5 Q 383 468 383 467.5 Q 383 467 382.5 466 L 381.972 464.972" stroke-linecap="round" />
</g>
</svg>