<svg version="1.1" xmlns="http://www.w3.org/2000/svg" xmlns:xlink="http://www.w3.org/1999/xlink" width="1104" height="1104"><g fill="none" fill-rule="nonzero" stroke="none" stroke-width="none" stroke-linecap="none" stroke-linejoin="none" stroke-miterlimit="10" stroke-dasharray="" stroke-dashoffset="0" font-family="none" font-weight="none" font-size="none" text-anchor="none" style="mix-blend-mode: normal"><path d="M433.19857,453.11475c0.83901,-5.01216 -7.77215,-12.34275 -4.93485,-16.03008c-0.03316,3.13537 -0.04418,-1.50145 -0.09938,-7.36368c-2.6717,-26.52912 2.27425,-52.52832 2.32944,-83.42928c-0.12145,-4.70303 -5.05631,-9.37294 -2.20799,-15.19103c0.01105,-1.66701 -1.4573,-1.35792 -0.05524,-2.34046c14.52863,-7.5624 42.5592,-3.86402 53.08032,-3.79777c17.26654,-2.84828 37.34832,-4.08478 47.28431,8.45666c12.48628,4.90176 31.5082,9.8477 43.50865,10.92959c24.80688,15.95284 41.43313,21.45075 69.13243,36.71905c8.11444,19.25374 16.74771,29.38849 32.9875,38.02177c19.29796,16.27295 37.87824,31.70688 50.38655,49.77935" fill="none" stroke="#121715" stroke-width="9.85714" stroke-linecap="round" stroke-linejoin="round"/><path d="M893.2574,398.0693c-2.77104,7.87149 -8.03705,-5.87328 -10.91857,-10.06847c-9.72621,-1.98719 -14.6059,-8.85411 -13.9987,-20.97598c-11.43741,-19.15439 -22.66507,-39.25827 -28.09675,-62.93904" fill="none" stroke="#171215" stroke-width="9.85714" stroke-linecap="round" stroke-linejoin="round"/><path d="M765.25968,293.94002c2.24116,0 -6.06099,2.34046 -3.89715,7.06559c4.19518,9.73727 17.46531,26.28625 23.95685,34.99684c16.80284,22.48849 39.42383,39.85438 53.90828,59.21855" fill="none" stroke-opacity="0.99" stroke="#171515" stroke-width="9.85714" stroke-linecap="round" stroke-linejoin="round"/><path d="M702.34271,589.98864c6.69023,-0.03309 -13.3142,1.72221 -20.01555,6.90005c-13.97667,-2.39574 -27.98635,-2.84832 -36.96188,-5.1667c-34.65458,-0.02211 -67.98433,0.03309 -103.03633,-2.45086c-17.92894,-0.04414 -26.2752,5.35445 -39.00431,2.58337c-10.71985,3.85293 -13.55711,-0.59618 -19.03294,-2.79308c0.0552,2.03134 -4.34976,-4.43805 -2.99188,-8.9424c4.53747,-7.81633 14.08707,7.06561 18.00625,9.90294c9.45025,12.02257 18.7349,19.94922 37.82304,23.15085c27.92017,36.40992 58.09248,70.32483 79.85232,110.02459c11.24977,5.88434 18.76803,16.19571 18.22709,32.84401c0.62923,9.09698 18.82319,35.8469 4.89067,45.54003c-10.16781,2.05345 -46.61086,10.87443 -48.8299,11.24977c-37.70159,8.15858 -76.40782,12.39791 -110.05772,17.64189c-57.04369,1.30276 -112.49764,-1.68908 -163.07186,-15.02546c-47.9136,-4.04064 -81.97198,-22.01372 -124.74095,-35.55978" fill="none" stroke-opacity="0.99" stroke="#151715" stroke-width="9.85714" stroke-linecap="round" stroke-linejoin="round"/><path d="M753.89951,669.48765c17.95105,-9.93596 34.87534,-12.69602 41.25648,-10.85232c-55.0565,-15.7651 -19.28683,-62.59679 -58.58928,-16.54895" fill="none" stroke-opacity="0.99" stroke="#1ebef2" stroke-width="11.06992" stroke-linecap="round" stroke-linejoin="round"/><path d="M740.51899,638.45425c-2.27425,2.64959 -5.31016,5.98368 -8.83196,9.69312" fill="none" stroke-opacity="0.99" stroke="#f4e5a7" stroke-width="9.85714" stroke-linecap="round" stroke-linejoin="round"/><path d="M702.89471,677.32609c-15.02539,14.89303 -27.03698,26.54018 -21.37344,21.73773c30.13922,12.68496 -16.75869,-29.99565 -1.73323,-2.24108" fill="none" stroke-opacity="0.99" stroke="#efeaa2" stroke-width="9.85714" stroke-linecap="round" stroke-linejoin="round"/><path d="M810.02691,466.13087c5.31016,13.24798 14.83776,19.13232 27.97537,22.79761" fill="none" stroke="#739647" stroke-width="9.85714" stroke-linecap="round" stroke-linejoin="round"/><path d="M855.51167,455.57662c-7.50717,1.63396 -10.55421,-1.87679 -14.09805,-5.58619" fill="none" stroke="#6e9647" stroke-width="9.85714" stroke-linecap="round" stroke-linejoin="round"/><path d="M876.87405,555.13533c3.62107,-7.07662 2.92566,-19.49661 7.50717,-27.26876" fill="none" stroke="#2c0313" stroke-width="10.76521" stroke-linecap="round" stroke-linejoin="round"/><path d="M905.23582,493.81919c17.90691,-28.79235 41.22339,-53.66545 45.42963,-83.49554" fill="none" stroke-opacity="0.99" stroke="#2c030e" stroke-width="9.85714" stroke-linecap="round" stroke-linejoin="round"/><path transform="translate(67,-64)" d="M648.13632,584.72259c24.97248,53.4777 41.45517,101.93226 59.75953,114.35228c3.0581,-3.56587 11.12832,-2.03134 14.3299,-5.22187" fill="none" stroke="#1ebef2" stroke-width="11.06997" stroke-linecap="round" stroke-linejoin="round" vector-effect="non-scaling-stroke"/><path d="M757.39921,293.2776c23.97888,9.82559 -6.4143,16.95744 35.052,13.65647" fill="none" stroke-opacity="0.85831" stroke="#5f8074" stroke-width="9.85714" stroke-linecap="round" stroke-linejoin="round" opacity="0.5"/><path d="M425.9453,433.7285c-24.51986,0.67341 8.004,34.40062 -4.30562,1.41312" fill="none" stroke-opacity="0.54898" stroke="#b44759" stroke-width="9.85714" stroke-linecap="round" stroke-linejoin="round" opacity="0.5"/><path d="M891.97682,406.19472c11.45959,5.2771 -45.12046,20.87664 -95.25313,58.00416" fill="none" stroke-opacity="0.16191" stroke="#eade37" stroke-width="9.85714" stroke-linecap="round" stroke-linejoin="round" opacity="0.5"/><path d="M702.78431,594.0624c45.94854,-39.74401 48.3883,-52.61661 89.98704,-12.57453c45.49581,-46.57777 18.7349,-36.7301 32.14852,-7.70593" fill="none" stroke-opacity="0.88619" stroke="#f313d2" stroke-width="9.85714" stroke-linecap="round" stroke-linejoin="round" opacity="0.5"/><path d="M205.97328,781.345c-49.81247,9.21836 -92.26127,19.89402 -37.95551,41.44411" fill="none" stroke-opacity="0.92917" stroke="#2f98f9" stroke-width="9.85714" stroke-linecap="round" stroke-linejoin="round" opacity="0.5"/><path d="M426.71809,442.63777c6.6571,9.29567 -0.50785,-29.64238 2.69377,-16.65935c49.4371,-18.94465 13.95456,-60.47713 14.06492,-98.0573" fill="none" stroke-opacity="0.24045" stroke="#19c8d0" stroke-width="9.85714" stroke-linecap="round" stroke-linejoin="round" opacity="0.5"/><path d="M837.00862,576.78477c-40.73757,-18.09458 -83.2195,26.56225 -58.39052,-43.70738" fill="none" stroke-opacity="0.19752" stroke="#6f438f" stroke-width="9.85714" stroke-linecap="round" stroke-linejoin="round" opacity="0.5"/><path d="M840.98307,577.17124c38.56267,-39.05955 49.35979,-15.90866 81.45311,38.58482" fill="none" stroke-opacity="0.43751" stroke="#0066ae" stroke-width="9.85714" stroke-linecap="round" stroke-linejoin="round" opacity="0.5"/><path d="M418.78034,433.25374c-51.01586,-49.1611 -109.98052,-2.70479 -83.69423,-55.06751c-38.75042,2.76003 -18.10563,-19.72846 -4.82449,11.76864" fill="none" stroke-opacity="0.70282" stroke="#e87cb5" stroke-width="9.85714" stroke-linecap="round" stroke-linejoin="round" opacity="0.5"/><path d="M156.64657,817.11459c-36.89568,-45.88221 -33.49536,-34.14669 -51.74448,-39.54529c-40.22976,24.13343 -52.992,10.78606 -59.38416,63.61246" fill="none" stroke-opacity="0.27192" stroke="#082172" stroke-width="9.85714" stroke-linecap="round" stroke-linejoin="round" opacity="0.5"/><path d="M450.45406,326.53008c-3.77566,16.99055 32.70048,28.8917 19.88304,-25.03871" fill="none" stroke-opacity="0.4919" stroke="#fe328a" stroke-width="9.85714" stroke-linecap="round" stroke-linejoin="round" opacity="0.5"/><path d="M329.69857,97.5384c-55.22209,41.04673 -74.42063,53.24591 -30.73534,104.89104c-21.35138,-44.65679 29.11248,-22.05793 65.73218,-72.33409c20.84351,-8.86512 12.17707,32.82191 -23.97888,-39.07056" fill="none" stroke-opacity="0.13391" stroke="#ec4736" stroke-width="9.85714" stroke-linecap="round" stroke-linejoin="round" opacity="0.5"/><path d="M220.82209,686.65485c-34.70978,36.90675 -1.22545,87.66872 17.13407,132.40271c-37.76782,-18.31534 0.12145,-16.41644 40.98048,-17.92894" fill="none" stroke-opacity="0.95643" stroke="#d708df" stroke-width="11.09112" stroke-linecap="round" stroke-linejoin="round" opacity="0.5"/><path d="M840.155,364.99344c-15.3235,9.38403 -16.20669,-36.06767 -40.57197,-82.34736c32.96546,-33.32975 52.78225,-6.11616 104.94625,-16.65935" fill="none" stroke-opacity="0.70355" stroke="#91d5b8" stroke-width="9.85714" stroke-linecap="round" stroke-linejoin="round" opacity="0.5"/><path d="M710.97598,1081.50046c20.81046,23.97896 68.71295,-21.37344 115.83166,-53.57708c32.11536,-22.90798 76.05451,-44.42498 134.85361,-55.25526" fill="none" stroke-opacity="0.29055" stroke="#fea6b6" stroke-width="9.85714" stroke-linecap="round" stroke-linejoin="round" opacity="0.5"/><path d="M685.18657,591.15889c1.51243,-37.00606 -24.53095,-53.14654 -50.6184,-19.14337c17.47629,-11.52573 -11.29392,-34.24607 -22.51052,-48.7195" fill="none" stroke-opacity="0.52052" stroke="#ce00e6" stroke-width="9.85714" stroke-linecap="round" stroke-linejoin="round" opacity="0.5"/><path d="M211.62576,344.95586c44.84446,52.3848 88.71743,62.35392 73.94592,77.98654c-0.7728,-39.86547 42.10657,-87.84527 32.24785,-68.13888c-16.68144,-47.83631 7.98193,-19.43039 52.46207,-24.50877" fill="none" stroke-opacity="0.15592" stroke="#ec9dfe" stroke-width="9.85714" stroke-linecap="round" stroke-linejoin="round" opacity="0.5"/><path d="M940.50862,72.74256c16.10743,56.80081 52.29651,10.20097 74.9727,24.14449c18.59134,24.25488 20.76616,25.392 55.82929,30.60288c-14.97026,-44.75616 -8.36833,-56.14945 38.54064,-7.84944" fill="none" stroke-opacity="0.80668" stroke="#27dfa9" stroke-width="9.85714" stroke-linecap="round" stroke-linejoin="round" opacity="0.5"/><path d="M967.03782,1011.65043c-23.17299,57.05467 -66.79208,103.69869 -104.06305,61.7577c39.19198,0.16567 72.26784,-40.26288 25.16019,-42.41568c-31.34256,10.51006 -14.63907,34.95265 9.20738,41.80848" fill="none" stroke-opacity="0.90226" stroke="#346632" stroke-width="9.85714" stroke-linecap="round" stroke-linejoin="round" opacity="0.5"/><path d="M470.21569,1055.87664c-23.95681,15.03652 -60.41087,-18.2712 -38.31984,39.47903c53.31218,30.77943 46.2797,-35.50465 -5.70765,-62.56374c49.58063,63.81122 -0.03313,57.09896 -8.93134,100.49718" fill="none" stroke-opacity="0.72916" stroke="#f36338" stroke-width="9.85714" stroke-linecap="round" stroke-linejoin="round" opacity="0.5"/><path d="M967.92094,46.8096c35.36109,-20.5896 31.62961,-77.07024 -21.84812,-73.37184" fill="none" stroke-opacity="0.3241" stroke="#adb6fe" stroke-width="9.85714" stroke-linecap="round" stroke-linejoin="round" opacity="0.5"/><path d="M1031.89776,243.78528c3.28995,-51.11522 18.4589,-34.72082 -6.25968,-14.46241c-3.49969,-31.91663 -25.83364,-56.97745 -3.88609,-103.87535" fill="none" stroke-opacity="0.26764" stroke="#5014fe" stroke-width="9.85714" stroke-linecap="round" stroke-linejoin="round" opacity="0.5"/><path d="M805.06991,566.79361c57.2314,15.77615 29.67551,37.62428 5.70769,65.9971" fill="none" stroke-opacity="0.02645" stroke="#222bcd" stroke-width="9.85714" stroke-linecap="round" stroke-linejoin="round" opacity="0.5"/><path d="M971.74085,196.44575c-54.34988,13.47983 -107.61795,-16.15153 -119.18786,-15.94175" fill="none" stroke-opacity="0.21342" stroke="#e81fa8" stroke-width="9.85714" stroke-linecap="round" stroke-linejoin="round" opacity="0.5"/><g fill="#000000" stroke="none" stroke-width="1" stroke-linecap="butt" stroke-linejoin="miter" font-family="Poppins, sans-serif" font-weight="400" font-size="16" text-anchor="start" opacity="0.5"><g/></g><g fill="none" stroke="none" stroke-width="1" stroke-linecap="butt" stroke-linejoin="miter" font-family="sans-serif" font-weight="normal" font-size="12" text-anchor="start"/></g></svg>