<svg version="1.1" xmlns="http://www.w3.org/2000/svg" xmlns:xlink="http://www.w3.org/1999/xlink" width="956" height="956"><g fill="none" fill-rule="nonzero" stroke="none" stroke-width="none" stroke-linecap="round" stroke-linejoin="round" stroke-miterlimit="10" stroke-dasharray="" stroke-dashoffset="0" font-family="none" font-weight="none" font-size="none" text-anchor="none" style="mix-blend-mode: normal"><path d="M318.39044,405.53903c-1.32484,-0.65388 -2.64967,-1.30777 -7.99353,-3.2639c-5.34386,-1.95613 -14.70673,-5.21452 -22.26902,-5.73204c-7.56229,-0.51752 -13.324,1.70583 -23.00143,-16.99767c-9.67743,-18.7035 -23.27059,-58.33383 -27.72953,-78.00117c-4.45894,-19.66734 0.21635,-19.37169 -1.26595,-23.2624c-1.4823,-3.89071 -9.12218,-11.96778 21.99756,-16.99767c31.11974,-5.02989 100.9991,-7.01261 139.26357,-16.73552c38.26447,-9.72291 44.91405,-27.18602 69.00511,5.7319c24.09106,32.91792 65.6236,116.21685 99.73538,158.26984c34.11178,42.05299 60.80282,42.86003 9.26773,69.99834c-51.53509,27.13831 -181.29629,80.6079 -242.00208,101.99572c-60.70579,21.38782 -52.35617,10.69388 -44.00655,-0.00006c8.34962,-10.69394 -9.45873,-8.84592 -27.26708,-6.99789" stroke-opacity="0.99" stroke="#1a151a" stroke-width="8.53575" opacity="0.7"/><path d="M233.1292,471.54117c-2.27932,9.56422 -4.55863,19.12845 -6.99772,31.73573c-2.43909,12.60728 -5.03794,28.25763 -12.73014,56.26409c-3.1071,11.31259 -7.04521,24.64119 -11.47867,39.17146" stroke-opacity="0.99" stroke="#1a1a15" stroke-width="8.53575" opacity="0.7"/><path d="M288.12792,396.54303c14.99588,8.72282 29.99177,17.44563 35.54062,9.82509c5.54885,-7.62054 1.65068,-31.58445 -2.2475,-55.54835c-3.89818,-23.9639 -1.04677,-10.16636 1.80465,3.63119" stroke-opacity="0.74521" stroke="#7a9078" stroke-width="8.53575" opacity="0.7"/><path d="M213.40132,559.54105c-8.21301,11.56865 -16.42602,23.13729 -23.82596,33.95235" stroke-opacity="0.49248" stroke="#6e326e" stroke-width="8.53575" opacity="0.7"/><path d="M237.39684,297.27761c7.86202,-12.62437 15.72403,-25.24874 23.58605,-37.87311c7.86202,-12.62437 -32.7467,-29.26632 -73.35542,-45.90826" stroke-opacity="0.91719" stroke="#b6b138" stroke-width="8.53575" opacity="0.7"/><path d="M310.39706,402.27504c7.0681,12.90052 14.13621,25.80106 4.70898,27.80787c-9.42723,2.00681 -35.34979,-6.88008 -61.27235,-15.76698c-25.92256,-8.8869 39.13883,-8.0513 104.20023,-7.21569" stroke-opacity="0.97071" stroke="#cc2110" stroke-width="9.38925" opacity="0.7"/><path d="M288.12792,396.54312c-18.91969,-15.43551 -37.83937,-30.87103 -56.75906,-46.30654c-18.91969,-15.43551 -35.1207,32.63135 -51.32172,80.69822" stroke-opacity="0.30947" stroke="#6fec96" stroke-width="8.53575" opacity="0.7"/><path d="M258.12854,265.55168c12.83966,42.8655 -26.50139,39.64808 -21.345,12.00418" stroke-opacity="0.03573" stroke="#215f88" stroke-width="9.38925" opacity="0.7"/><path d="M292.3956,392.27547c-11.09225,-41.62049 -52.11358,5.78055 -12.07152,46.51979" stroke-opacity="0.69505" stroke="#5d0600" stroke-width="9.38925" opacity="0.7"/><path d="M230.39896,503.27648c-7.02647,-13.50901 -14.05294,-27.01801 -3.21612,-38.37216c10.83682,-11.35415 39.53692,-20.55344 68.23702,-29.75274c28.7001,-9.1993 4.20771,28.5455 -20.28468,66.2903" stroke-opacity="0.82961" stroke="#c9221d" stroke-width="9.38925" opacity="0.7"/><path d="" stroke-opacity="0.58067" stroke="#21ba87" stroke-width="9.38306" opacity="0.7"/><path d="M180.0472,430.93459c-1.50769,-30.60784 -5.35224,-40.18118 -12.08872,-14.94207" stroke-opacity="0.29166" stroke="#8dc381" stroke-width="8.53575" opacity="0.7"/><path d="M180.04723,430.93513c16.66411,-17.07962 33.32823,-34.15923 49.99234,-51.23885c16.66411,-17.07962 24.58375,0.57801 32.50339,18.23563" stroke-opacity="0.4916" stroke="#e72a7a" stroke-width="9.38925" opacity="0.7"/><path d="M180.04708,426.66739c19.00156,-7.63579 64.26521,25.7488 95.40549,12.01748" stroke-opacity="0.87794" stroke="#1c61f7" stroke-width="9.38925" opacity="0.7"/><path d="M323.22563,354.45093c36.42791,-43.78603 61.48133,2.96791 44.99278,-38.90774" stroke-opacity="0.66451" stroke="#bafaba" stroke-width="8.53575" opacity="0.7"/><path d="M280.32399,438.79526c24.93704,-18.40655 49.87409,-36.8131 74.81113,-55.21965c24.93704,-18.40655 13.7371,-0.85165 2.53714,16.70326" stroke-opacity="0.78726" stroke="#3d3bdb" stroke-width="8.53575" opacity="0.7"/><path d="M175.7795,426.66739c43.06382,-34.70059 3.83704,-20.18039 -1.29058,-15.49547" stroke-opacity="0.39697" stroke="#a7aa59" stroke-width="8.53575" opacity="0.7"/><path d="M191.89517,213.49624c-6.10943,16.49686 -10.63946,-19.12596 -3.24798,-16.96495" stroke-opacity="0.17392" stroke="#10e748" stroke-width="8.53575" opacity="0.7"/><path d="M497.8415,340.19895c-14.15893,4.70386 -28.31785,9.40772 -42.47678,14.11158c-14.15893,4.70386 -23.09609,-0.78141 -32.03325,-6.26667" stroke-opacity="0.82186" stroke="#b1dfcb" stroke-width="8.53575" opacity="0.7"/><path d="M794.5889,326.78329c49.43826,4.25967 94.47591,10.81055 94.28149,17.2986" stroke-opacity="0.49518" stroke="#88b4fe" stroke-width="9.38925" opacity="0.7"/><path d="M2.10837,206.32369c-2.37527,27.81448 -4.75055,55.62896 -7.12582,83.44344c-2.37527,27.81448 -20.87127,12.88391 -39.36728,-2.04666" stroke-opacity="0.48626" stroke="#0af4e1" stroke-width="9.38925" opacity="0.7"/><path d="M256.28323,209.2618c-36.08325,4.82457 -24.30682,-26.98245 -64.67888,13.30275" stroke-opacity="0.18816" stroke="#4bad1c" stroke-width="8.53575" opacity="0.7"/><path d="" stroke-opacity="0.73667" stroke="#8d9f17" stroke-width="8.53575" opacity="0.7"/><path d="M790.86409,743.25557c10.31479,-19.19977 56.70697,-26.85768 36.04577,-14.44906" stroke-opacity="0.35249" stroke="#82e71f" stroke-width="9.38925" opacity="0.7"/><path d="M265.76842,441.49468c-32.9789,18.82682 -65.9578,37.65365 -79.0759,44.16979c-13.1181,6.51614 -6.37539,0.72159 0.36732,-5.07295c6.74271,-5.79454 18.02899,19.55866 29.31528,44.91186" stroke-opacity="0.94663" stroke="#0ba3a1" stroke-width="8.53575" opacity="0.7"/><path d="M28.60334,560.55816c-1.44592,26.19802 -7.90756,-21.63772 -29.40478,-29.43582" stroke-opacity="0.07731" stroke="#f0db63" stroke-width="8.53575" opacity="0.7"/><path d="" stroke-opacity="0.74227" stroke="#10a7cf" stroke-width="8.53575" opacity="0.7"/><path d="" stroke-opacity="0.86331" stroke="#1dccd8" stroke-width="8.53575" opacity="0.7"/><path d="M318.17555,532.59794c-12.33082,-38.33103 -24.66164,-76.66207 -48.75475,-73.04451c-24.09311,3.61756 -59.9485,49.18371 -95.8039,94.74985c-8.06535,10.2497 -15.43341,17.63328 -22.26103,22.79546" stroke-opacity="0.04868" stroke="#af6ee5" stroke-width="9.38925" opacity="0.7"/><path d="" stroke-opacity="0.08808" stroke="#a173b2" stroke-width="9.38917" opacity="0.7"/><path d="" stroke-opacity="0.23314" stroke="#ca575a" stroke-width="8.53575" opacity="0.7"/><path d="M934.18962,229.51073c-10.16722,-15.19039 -20.33442,-30.38078 -12.80277,-40.56521c7.53165,-10.18443 32.76217,-15.36291 57.99269,-20.54139c25.23052,-5.17848 22.05717,9.76842 18.88381,24.71533" stroke-opacity="0.25589" stroke="#96ab7f" stroke-width="8.53575" opacity="0.7"/><path d="M297.20185,271.85443c4.26365,33.3691 7.40201,49.88502 55.90452,69.45806" stroke-opacity="0.03194" stroke="#4adcf3" stroke-width="9.38917" opacity="0.7"/><path d="" stroke-opacity="0.11679" stroke="#22884b" stroke-width="9.38925" opacity="0.7"/></g></svg>