<svg version="1.1" xmlns="http://www.w3.org/2000/svg" xmlns:xlink="http://www.w3.org/1999/xlink" width="1104" height="1104"><g fill="none" fill-rule="nonzero" stroke="none" stroke-width="none" stroke-linecap="none" stroke-linejoin="none" stroke-miterlimit="10" stroke-dasharray="" stroke-dashoffset="0" font-family="none" font-weight="none" font-size="none" text-anchor="none" style="mix-blend-mode: normal"><path d="M566.23845,177.06817c-5.86817,-27.88785 -6.52365,-38.32511 4.83663,-36.54042c-11.18577,-6.75551 -3.02102,-3.83632 3.47751,-3.8496c11.96222,-12.98249 58.43846,-24.96907 84.57788,-20.5935c29.10268,9.57628 42.98294,61.03272 48.72823,94.93511c5.14892,8.40916 17.15058,21.60176 1.11874,31.13535c-15.32809,-1.02932 -31.11559,3.34957 -41.02718,13.65263c-22.26348,14.59126 -59.40991,8.06338 -94.18764,8.82514c-9.47514,-6.30576 -21.39367,4.91812 -45.50573,3.90251" fill="none" stroke="#1b0f25" stroke-width="9.85714" stroke-linecap="round" stroke-linejoin="round"/><path d="M720.77612,349.71695c-14.07504,-6.69071 -12.70956,-4.65912 -6.55787,-4.88345c-9.65755,-4.61614 2.13136,-4.54296 -1.50874,-2.72577c14.70359,1.51995 38.70533,-3.06769 43.99579,-3.74885c11.18103,8.79504 7.003,27.57615 -17.04868,31.42419" fill="none" stroke-opacity="0.97386" stroke="#151b10" stroke-width="9.85714" stroke-linecap="round" stroke-linejoin="round"/><path d="M765.52936,364.78953c-11.32159,-5.78642 -9.76051,-7.1492 -1.96222,-17.03221c32.14108,-18.09781 72.11307,-28.11905 122.65439,-25.08427c-0.15154,-9.07605 4.88112,-2.26281 13.6105,13.55474c20.4215,-7.99975 22.68078,0.4636 29.37462,18.8071c-0.94178,27.8088 -6.71978,47.82145 -25.60855,59.29699c-23.00461,-20.84171 -36.29978,-5.95165 -27.90701,-14.10583c-16.66371,-0.27574 -7.32735,-23.15513 -11.28467,-33.41488c20.47783,-10.69383 64.41383,-17.30054 100.16733,-0.30789c-0.9784,3.48612 5.60375,16.76869 0.25818,40.45879c17.68506,14.37803 23.53736,33.37999 22.49962,47.84198" fill="none" stroke="#10170b" stroke-width="9.85714" stroke-linecap="round" stroke-linejoin="round"/><path d="M950.27115,485.93299c-7.26817,14.73059 -21.32298,13.99115 -34.24145,14.46749" fill="none" stroke-opacity="0.98177" stroke="#111515" stroke-width="9.85714" stroke-linecap="round" stroke-linejoin="round"/><path d="M597.49257,208.39994c9.96747,-1.53717 2.95386,1.94872 10.68841,12.9639c-6.61156,-16.115 -6.70831,-20.74797 -17.70017,-33.90611c-16.14176,6.99044 -20.3892,15.57417 -33.5463,37.73661c-27.00754,-4.75564 -55.08128,-10.12752 -87.89238,-23.93778c-3.04313,20.49511 -27.52892,59.65893 -60.62987,72.89722c-22.94422,-1.93116 -19.34902,53.28209 6.84988,70.37732c-8.70084,67.15679 35.07448,89.37642 88.54568,97.07577c23.49246,1.20699 32.69736,1.31137 54.02383,-16.43697c12.51523,-8.73438 20.94786,-26.26459 26.4737,-49.5475c4.76508,-1.66746 -0.26893,-16.75091 5.41462,-0.87173c1.00852,-12.44442 -13.40707,-18.08341 -8.89919,-22.38377c-29.83517,2.79515 -29.52518,3.41535 -48.16924,13.03508c-12.57551,1.24978 -21.42349,5.32129 -19.76663,23.22895c15.46229,7.69721 48.53097,19.37967 58.43744,17.21398c8.84001,-9.5702 7.87702,-8.63135 13.42674,-24.18024" fill="none" stroke-opacity="0.94283" stroke="#190f20" stroke-width="9.85714" stroke-linecap="round" stroke-linejoin="round"/><path d="M568.61678,358.64118c4.04274,-2.93879 -48.39477,1.98633 -67.25873,16.11634c53.55463,-38.60178 89.84742,-18.93807 84.4292,-15.20099" fill="none" stroke-opacity="0.65645" stroke="#7e3d04" stroke-width="9.85714" stroke-linecap="round" stroke-linejoin="round"/><path d="M909.36429,506.04898c36.19344,-0.93366 59.34027,24.12982 75.98104,34.86346c6.69038,-11.94048 2.33885,-21.82225 10.26949,-44.11893" fill="none" stroke-opacity="0.93934" stroke="#925f03" stroke-width="9.85714" stroke-linecap="round" stroke-linejoin="round"/><path d="M957.47344,450.57409c1.62584,-10.54639 -6.29465,-11.62188 -1.52709,-16.65427" fill="none" stroke-opacity="0.95509" stroke="#9e4615" stroke-width="9.85714" stroke-linecap="round" stroke-linejoin="round"/><path d="M922.80461,329.24336c21.71434,18.17441 -2.11098,-19.2797 -32.52168,-19.83647c-13.50093,58.55158 2.92333,107.37348 14.58304,100.7553" fill="none" stroke-opacity="0.63996" stroke="#cea07b" stroke-width="9.85714" stroke-linecap="round" stroke-linejoin="round"/><path d="M953.11808,381.86092c66.90549,5.10767 41.42381,18.4973 0.92448,47.86515c4.30693,1.65001 0.90884,12.37584 -5.62549,13.91504" fill="none" stroke-opacity="0.95217" stroke="#2993a9" stroke-width="9.85714" stroke-linecap="round" stroke-linejoin="round"/><path d="M905.0278,471.87966c-34.27161,-8.70521 -57.80039,-1.10061 -73.23572,21.98823" fill="none" stroke="#1798aa" stroke-width="11.89479" stroke-linecap="round" stroke-linejoin="round"/><path d="M760.72225,216.62036c31.83327,42.01373 25.39084,89.45078 45.76068,96.58388c26.65381,-32.21122 -7.00225,-70.52081 27.64019,-123.92876c-51.29381,32.04433 -82.3815,26.70268 -117.56022,20.99556" fill="none" stroke-opacity="0.38698" stroke="#ddbf4b" stroke-width="9.85714" stroke-linecap="round" stroke-linejoin="round"/><path d="M584.5512,370.6313c-55.3129,-21.59145 -88.06888,6.33993 -118.15501,18.99406c8.64136,26.54672 38.49856,11.07936 36.03469,23.48268c-1.49333,35.14269 -21.3402,45.38845 -2.21337,23.45618" fill="none" stroke-opacity="0.23672" stroke="#71cd67" stroke-width="9.85714" stroke-linecap="round" stroke-linejoin="round"/><path d="M557.48279,365.68908c7.27994,-20.63772 22.29563,-27.90995 33.38085,-34.80747" fill="none" stroke-opacity="0.98189" stroke="#6f5314" stroke-width="9.85714" stroke-linecap="round" stroke-linejoin="round"/><path d="M632.17224,323.91678c17.80877,-13.81506 29.67506,-21.8237 52.76901,-25.82773c41.82472,-17.85645 74.81974,-65.70667 86.1196,-11.3187" fill="none" stroke-opacity="0.98779" stroke="#6d5419" stroke-width="9.85714" stroke-linecap="round" stroke-linejoin="round"/><path d="M564.56321,367.34184c13.76798,27.80827 -11.69246,-34.01392 -0.33537,-9.65808" fill="none" stroke-opacity="0.35231" stroke="#927391" stroke-width="9.85714" stroke-linecap="round" stroke-linejoin="round"/><path d="M517.37426,454.71129c6.10254,20.07226 -17.54559,22.28168 -81.84932,35.37838c-38.0153,-42.94898 -50.091,-112.41108 -57.08888,-68.98428c43.1943,-12.95927 22.73102,19.60343 -7.39639,10.0027" fill="none" stroke-opacity="0.6984" stroke="#00becd" stroke-width="13.91356" stroke-linecap="round" stroke-linejoin="round"/><path d="M537.17146,519.48125c6.9419,-27.8438 39.72484,-42.95248 0.84947,-22.30935c33.77364,19.841 8.37502,73.15859 26.11159,53.05945" fill="none" stroke-opacity="0.193" stroke="#f0f8be" stroke-width="9.85714" stroke-linecap="round" stroke-linejoin="round"/><path d="M530.99732,549.99585c6.07532,8.80899 14.19235,-0.91918 23.05688,4.42613c1.149,-7.30036 29.7926,-22.42727 42.6505,-28.89655c12.13188,10.14555 11.71701,31.8371 30.81925,33.82087c14.8003,9.02918 46.88806,18.47526 65.10661,27.57232c19.70586,-2.86005 0.45258,-25.99262 7.98336,-21.14373c4.06899,-4.59425 12.16816,7.73925 21.3029,6.66372c9.28815,-13.62558 20.10422,-19.46826 36.785,-14.79572c13.80994,7.46953 27.29861,12.59517 37.54336,24.7815" fill="none" stroke-opacity="0.96802" stroke="#230b08" stroke-width="9.85714" stroke-linecap="round" stroke-linejoin="round"/><path d="M860.59313,571.06245c0.81123,-8.06383 -9.11811,7.50608 1.78564,-0.45596c-4.35544,1.64667 -4.58542,10.80934 1.85363,25.30567c-3.25844,15.49511 -7.86566,62.51643 -34.36674,76.09527c5.01069,4.87563 -23.88811,3.19031 -32.60764,16.27378c-21.94273,-1.55409 -46.46985,-9.47089 -61.5457,-25.12221c-36.10282,-0.39655 -73.66318,3.53444 -102.17302,0.80889c-9.3611,-16.62483 -23.67295,-22.1336 -42.87694,-12.06769" fill="none" stroke-opacity="0.96905" stroke="#1d0e17" stroke-width="9.85714" stroke-linecap="round" stroke-linejoin="round"/><path d="M541.58082,652.05889c-0.36493,-4.25279 -1.79219,-12.07671 -2.61311,-14.77677c-10.66762,2.78638 -10.65547,0.22817 -9.94795,-9.20685c0.30661,-8.86441 4.1566,-20.07384 11.2568,-26.57447c-7.95091,-30.04386 -41.82841,-45.183 -78.54696,-44.83236c-15.03829,-10.76433 -26.35525,-13.89327 -35.16172,-0.04948c-5.63914,13.3333 6.23949,34.22998 6.28732,48.79098c-2.80887,37.21942 -3.40073,69.01568 25.6759,94.4281c24.80609,44.18117 60.33101,33.54228 70.18243,91.12014c3.32556,12.74257 21.17509,36.1508 9.80819,44.3063c-19.47318,-0.84018 -36.39044,1.99298 -46.30824,6.4607c-28.04501,16.85195 -50.97562,22.01117 -54.8589,-6.24246" fill="none" stroke-opacity="0.95433" stroke="#201d0d" stroke-width="9.85714" stroke-linecap="round" stroke-linejoin="round"/><path d="M909.58961,603.68134c-0.17906,2.31531 -1.24275,23.28027 -1.35961,25.31161c0.17109,28.32864 0.15718,56.66838 1.22583,85.17041" fill="none" stroke="#181717" stroke-width="9.85714" stroke-linecap="round" stroke-linejoin="round"/><path d="M980.56582,678.54733c1.54695,3.67402 0.84469,8.22928 0.89418,10.66295c5.77086,7.9068 0.50244,21.06239 -0.10055,25.88448c-2.31989,22.24468 0.37467,46.06871 -1.09189,63.32225c-2.55528,15.3414 -4.70537,30.27203 -6.36219,46.27763" fill="none" stroke="#181717" stroke-width="9.85714" stroke-linecap="round" stroke-linejoin="round"/><path d="M911.20371,769.50345c1.46204,-0.14289 -3.53903,-0.128 -5.20615,-0.60915c-3.99649,-6.06325 -8.00397,-6.46273 -7.17875,-5.88968c-19.44829,1.73022 -31.8189,5.89961 -46.15467,3.7878c-20.154,-4.24143 -36.53194,-3.19941 -57.01609,-4.91955c-13.88763,-1.44632 -25.95276,-5.142 -39.33088,-6.98202c-13.86146,-0.93847 -26.20552,-6.2563 -40.54768,-7.38925" fill="none" stroke="#191618" stroke-width="9.85714" stroke-linecap="round" stroke-linejoin="round"/><path d="M768.21091,703.31194c2.78954,-0.0546 -6.20802,-0.6163 -9.21091,-0.67481c-6.99939,0.50477 -13.9987,0.69338 -20.99809,0.79363c-11.66926,-0.42393 -23.33852,-0.37925 -34.9968,-0.22554c-46.33493,6.92734 -92.66975,4.16239 -138.47882,0.19982" fill="none" stroke="#181717" stroke-width="9.85714" stroke-linecap="round" stroke-linejoin="round"/><path d="M683,490c14.96478,0 38.91446,4.72369 52,-4c4.96887,-3.31258 9.4106,-14.48675 5,-20c-4.39005,-5.48756 -22.02255,-6.1348 -28,-4c-6.67912,2.3854 -8.80455,8.2052 -13,13c-4.1059,4.69245 -10.61108,11.77784 -7,19c2.63012,5.26024 12.69848,3 17,3c13.74692,0 45.51607,5.05356 38,-20c-2.82679,-9.42265 -13.56597,-7 -21,-7c-16.27186,0 -32.84384,-0.90072 -49,1c-3.42573,0.40303 -16.1456,3.71307 -20,2c-6.38626,-2.83834 -1.87916,-29.60418 -1,-34c3.08139,-15.40695 0.13788,-31.55151 4,-47c1,-4 0.31672,-8.8695 3,-12c3.54098,-4.13114 14.47224,-2 19,-2c3.33333,0 7.05882,-1.56863 10,0c5.20257,2.77471 6.53822,14.84395 7,19c1.33882,12.04937 2.55736,30.88527 -3,42c-11.82839,23.65679 -32.14123,33.07493 -57,37c-8.78945,1.38781 -15.79778,4.08261 -25,3c-7.06372,-0.83103 -12.15281,-5.49168 -18,-9" fill="none" stroke="#181818" stroke-width="8" stroke-linecap="round" stroke-linejoin="round"/><path d="M647.15521,121.03762c116.41735,16.84462 73.597,62.38558 -26.97625,44.7038c-43.03303,-16.90941 -19.64709,-14.87204 22.09611,32.43789c16.2273,-16.29431 54.04786,30.52752 -19.27585,38.75098" fill="none" stroke-opacity="0.49574" stroke="#0069ff" stroke-width="14.18088" stroke-linecap="round" stroke-linejoin="round" opacity="0.5"/><path d="M665.81754,264.2203c37.81514,-32.23984 -19.87936,-11.89705 -50.88771,-6.89209c89.32224,-24.82673 101.93455,-43.94516 79.14863,-29.1968c7.80445,-61.95769 64.44286,14.67069 66.11269,-1.23556" fill="none" stroke-opacity="0.12411" stroke="#288e37" stroke-width="15.59119" stroke-linecap="round" stroke-linejoin="round" opacity="0.5"/><path d="M706.80577,202.78814c36.37784,-30.11722 53.70989,-80.83587 59.06675,-128.59146c39.43008,-50.30389 30.66347,-48.72073 42.48817,-32.61068" fill="none" stroke-opacity="0.88523" stroke="#2f090f" stroke-width="12.12573" stroke-linecap="round" stroke-linejoin="round" opacity="0.5"/><path d="M741.39526,169.31197c35.94505,-58.8942 67.03665,-61.51803 42.78876,-96.28298" fill="none" stroke-opacity="0" stroke="#66cb47" stroke-width="16.98166" stroke-linecap="round" stroke-linejoin="round" opacity="0.5"/><path d="M640.24952,227.12052c74.76965,16.79058 56.05957,-25.65785 21.48308,-25.05234c11.69355,-9.37775 -11.21029,-65.65201 71.41164,-45.10859c24.4565,36.83124 -5.91517,75.00387 -45.93583,17.67324" fill="none" stroke-opacity="0.79564" stroke="#263a87" stroke-width="19.89345" stroke-linecap="round" stroke-linejoin="round" opacity="0.5"/><path d="M811.59635,64.92651c-13.9963,-20.15607 -46.02246,31.04155 -33.44699,6.22635c59.04945,-17.6672 23.8296,-58.19912 -55.50576,8.91984" fill="none" stroke-opacity="0.89652" stroke="#2d2798" stroke-width="15.73391" stroke-linecap="round" stroke-linejoin="round" opacity="0.5"/><path d="M400.55085,840.5505c18.0924,37.68053 32.81562,36.41342 1.18973,36.35536" fill="none" stroke-opacity="0.12922" stroke="#edf5d4" stroke-width="15.12091" stroke-linecap="round" stroke-linejoin="round" opacity="0.5"/><path d="M90.92649,196.04719c-64.98527,19.26323 -1.39487,-8.12151 39.20614,-53.3808" fill="none" stroke-opacity="0.5901" stroke="#4566ff" stroke-width="9.85714" stroke-linecap="round" stroke-linejoin="round" opacity="0.5"/><path d="M1070.08103,969.78472c-102.39871,58.7151 -144.42716,33.107 -150.04039,8.13151c-23.9227,18.46718 23.43621,20.08782 -73.68987,48.62324c59.89452,-61.53773 69.85199,-42.06004 78.29386,-158.44564" fill="none" stroke-opacity="0.96909" stroke="#058899" stroke-width="16.0442" stroke-linecap="round" stroke-linejoin="round" opacity="0.5"/><path d="M207.06812,321.55413c29.51386,42.06993 46.04104,39.55315 103.90935,33.88972c31.28266,-17.44294 -31.54693,-37.13447 -70.07839,-64.66657c15.61614,21.89137 12.0789,-19.78439 22.33776,-54.14388" fill="none" stroke-opacity="0.61994" stroke="#1c1a0e" stroke-width="9.85714" stroke-linecap="round" stroke-linejoin="round" opacity="0.5"/><path d="M414.53658,381.37698c-55.76984,-19.65863 -77.14227,-18.36133 -141.51712,-14.12324c-30.99692,0.09352 -58.65604,23.4855 -60.97486,-30.93025c-9.40498,-33.7724 -54.73392,0.44491 -18.15538,-4.19898" fill="none" stroke-opacity="0.00057" stroke="#2abc52" stroke-width="11.89929" stroke-linecap="round" stroke-linejoin="round" opacity="0.5"/><path d="M543.12841,988.50571c-99.31843,11.28053 -69.86191,3.80811 -128.71478,12.25555c-11.3469,-27.51046 21.69328,-54.8936 21.43311,-120.66667" fill="none" stroke-opacity="0.40552" stroke="#00674c" stroke-width="15.50022" stroke-linecap="round" stroke-linejoin="round" opacity="0.5"/><path d="M673.42067,1095.78968c-14.60169,-5.76792 55.54976,-42.52555 88.4722,-11.58488" fill="none" stroke-opacity="0.15521" stroke="#00a43e" stroke-width="15.39627" stroke-linecap="round" stroke-linejoin="round" opacity="0.5"/><path d="M275.57025,709.29668c19.56858,-52.26951 64.72431,-56.67278 27.56151,-30.29076c-27.40704,19.84093 -42.11937,30.86975 -58.40035,38.11212c24.02415,-68.72776 70.74549,-37.79461 121.54348,16.46968" fill="none" stroke-opacity="0.40111" stroke="#bc9727" stroke-width="9.85714" stroke-linecap="round" stroke-linejoin="round" opacity="0.5"/><path d="M819.70612,969.22227c6.00331,6.95953 -19.15221,-36.88231 43.20276,-122.06615c-26.42474,-44.39264 -89.4097,-24.62451 -151.42189,-61.69355" fill="none" stroke-opacity="0.28767" stroke="#90a318" stroke-width="9.85714" stroke-linecap="round" stroke-linejoin="round" opacity="0.5"/><path d="M687.78103,231.72306c-59.27443,-57.89787 -78.54125,-50.31751 -70.47908,-98.99203c40.82079,-1.10086 56.31515,-12.13781 33.86915,4.12545" fill="none" stroke-opacity="0.36506" stroke="#6a1aea" stroke-width="15.75888" stroke-linecap="round" stroke-linejoin="round" opacity="0.5"/><path d="M234.07223,297.21462c38.70806,51.5323 83.55117,50.71852 89.09345,-10.67296" fill="none" stroke-opacity="0.18994" stroke="#c9d617" stroke-width="15.69499" stroke-linecap="round" stroke-linejoin="round" opacity="0.5"/><path d="M810.51078,42.76434c28.4718,34.09324 -16.27784,19.66371 -41.24655,5.76169c41.55632,-25.71299 -6.34196,-105.39932 -28.08991,-98.87888" fill="none" stroke-opacity="0.00045" stroke="#1629b3" stroke-width="9.85714" stroke-linecap="round" stroke-linejoin="round" opacity="0.5"/><path d="M314.40268,59.98896c-37.39276,31.44465 8.86302,58.94631 31.07965,57.23011c-21.26432,-8.61909 -23.10426,-1.66411 29.05177,-18.98189c-62.80193,-18.35817 -99.28884,-64.9651 -60.44678,-83.99922" fill="none" stroke-opacity="0.35966" stroke="#401237" stroke-width="9.85714" stroke-linecap="round" stroke-linejoin="round" opacity="0.5"/><g fill="#000000" stroke="none" stroke-width="1" stroke-linecap="butt" stroke-linejoin="miter" font-family="Poppins, sans-serif" font-weight="400" font-size="16" text-anchor="start" opacity="0.5"><g/></g></g></svg>