<svg version="1.1" xmlns="http://www.w3.org/2000/svg" xmlns:xlink="http://www.w3.org/1999/xlink" width="956" height="956"><g fill="none" fill-rule="nonzero" stroke="none" stroke-width="none" stroke-linecap="none" stroke-linejoin="none" stroke-miterlimit="10" stroke-dasharray="" stroke-dashoffset="0" font-family="none" font-weight="none" font-size="none" text-anchor="none" style="mix-blend-mode: normal"><path d="M488.28063,221.04849c3.09992,-0.04518 3.65216,-5.10621 6.09711,-6.99878c12.59866,-10.26256 29.13088,-17.81255 43.94282,-24.15423c49.51072,-20.30993 85.23787,-19.43729 137.08111,-21.15833c24.46737,1.0641 36.85156,-0.39196 40.09276,27.21506" fill="none" stroke="#171817" stroke-width="8.53571" stroke-linecap="round" stroke-linejoin="round"/><path d="M685.67473,397.67115c3.39216,-0.82884 -1.86771,-8.27607 2.56829,-14.5961c1.49488,-1.63369 4.54626,-0.69088 5.95472,-2.20879c2.11185,-1.53448 3.02148,-4.32455 4.96115,-6.39641c5.68426,-4.46076 13.88271,-7.20481 21.36045,-8.93929" fill="none" stroke="#181817" stroke-width="8.53571" stroke-linecap="round" stroke-linejoin="round"/><path d="M765.95517,368.26356c2.73284,6.04194 2.5162,15.39577 2.16391,20.5711c0.04969,11.81342 2.06705,25.92354 -2.48539,37.08502c-3.06785,6.83023 -8.40182,12.06284 -12.35091,17.94605" fill="none" stroke="#181817" stroke-width="8.53571" stroke-linecap="round" stroke-linejoin="round"/><path d="M658.46357,536.21051c-0.09658,0.64093 -0.19374,1.28298 -0.29144,1.92618c-2.2307,29.96787 -1.24366,59.93766 -0.89336,89.97978" fill="none" stroke="#181817" stroke-width="8.53571" stroke-linecap="round" stroke-linejoin="round"/><path d="M656.06788,668.57217c0.02036,17.93213 3.45549,35.63998 21.2271,40.19122c5.32323,1.62799 11.18404,0.19726 16.45772,0.04637" fill="none" stroke="#181817" stroke-width="8.53571" stroke-linecap="round" stroke-linejoin="round"/><path d="M384.09904,680.21018c3.94863,-0.33805 -2.40103,-6.7948 -3.78729,-10.10848c-1.83661,-3.7627 -4.30696,-7.19752 -5.88833,-11.04299c-5.82903,-12.30793 -10.10787,-25.28583 -14.9911,-38.18787c-12.65486,-29.87708 -26.20135,-60.14262 -25.24575,-92.95129" fill="none" stroke="#171818" stroke-width="8.53571" stroke-linecap="round" stroke-linejoin="round"/><path d="M489.79186,485.38233c1.84182,-0.51505 -2.9292,-3.90851 -4.51301,-5.32701c-2.72019,-2.95265 -5.6606,-5.71494 -8.27539,-8.92938c-3.33628,-4.89375 -6.99739,-9.47185 -10.93453,-13.91394c-11.82934,-15.1933 -23.16584,-30.81699 -34.71714,-46.30624c-22.60126,-29.37431 -47.14248,-56.62243 -70.80728,-85.07054c-9.58832,-11.45085 -19.78442,-24.57779 -32.13966,-33.85752" fill="none" stroke="#161718" stroke-width="8.53571" stroke-linecap="round" stroke-linejoin="round"/><path d="M628.26242,318.87436c2.58992,0.03959 -3.93411,-2.46442 -5.79465,-3.9974c-3.4184,-2.25988 -7.25619,-4.42985 -10.99389,-4.77666c-8.14928,-0.62029 -15.00249,8.62816 -19.35735,14.70798c-15.709,25.64742 -24.61585,55.21084 -24.71269,85.33461c-0.52235,19.22659 -6.31843,35.01774 17.84964,34.78571" fill="none" stroke="#171717" stroke-width="8.53571" stroke-linecap="round" stroke-linejoin="round"/><path d="M621.3364,329.7187c-32.89922,-28.34209 -69.39677,-53.6045 -65.64937,-7.85245c34.08158,-32.7623 -6.52285,-55.84864 -31.21157,-23.80081c26.85078,-52.19581 36.52275,-13.99111 -22.73339,-49.17474" fill="none" stroke="#931926" stroke-width="17.3512" stroke-linecap="round" stroke-linejoin="round" opacity="0.5"/><path d="M687.42372,711.61276c1.56106,-16.27862 0.59684,-30.91695 -1.78144,-43.83963" fill="none" stroke="#621ff0" stroke-width="8.53571" stroke-linecap="round" stroke-linejoin="round"/><path d="M672.50713,627.99667c-9.03928,-18.58509 -18.29619,-28.69613 -16.49888,-29.56862c17.33407,-26.18015 17.65571,-5.1166 63.08758,-21.76115" fill="none" stroke="#621ff0" stroke-width="8.53571" stroke-linecap="round" stroke-linejoin="round"/><path d="M726.49236,575.73104c17.022,-46.00925 -20.28808,-26.23557 -38.93391,-39.15285" fill="none" stroke-opacity="0.64922" stroke="#8eaf47" stroke-width="8.53571" stroke-linecap="round" stroke-linejoin="round" opacity="0.5"/><path d="M712.66767,319.22345c-7.7437,-48.93339 -8.30802,-8.88693 17.88684,30.25387" fill="none" stroke="#859a1a" stroke-width="8.53571" stroke-linecap="round" stroke-linejoin="round"/><path d="M760.68882,377.24604c22.357,17.00109 36.10188,28.73708 34.05722,18.23225" fill="none" stroke="#859a1a" stroke-width="8.53571" stroke-linecap="round" stroke-linejoin="round"/><path d="M896.75802,635.69724c18.26675,33.05258 -5.09719,14.194 20.12951,21.71198c-9.5257,5.77871 2.85205,-5.35065 -41.99113,-30.14112" fill="none" stroke="#fd1deb" stroke-width="11.10025" stroke-linecap="round" stroke-linejoin="round"/><path d="M843.51927,602.36436c-18.97334,-18.64155 -23.95712,-30.97507 -5.23896,-5.08961" fill="none" stroke="#fd1deb" stroke-width="11.10025" stroke-linecap="round" stroke-linejoin="round"/><path d="M475.61441,495.25237c42.77472,20.373 -0.44062,-16.08808 -46.59001,-32.5274" fill="none" stroke-opacity="0.20096" stroke="#ff5f7b" stroke-width="12.95988" stroke-linecap="round" stroke-linejoin="round" opacity="0.5"/><path d="M499.74962,220.01318c-53.12533,-0.31062 -90.76865,46.47307 -83.45668,89.44811c56.99526,-23.63996 79.37618,-42.90499 81.26655,-65.74029c-26.46969,-3.63965 -17.8459,-10.87491 -68.92828,-43.30578" fill="none" stroke-opacity="0.29517" stroke="#8100f4" stroke-width="9.20675" stroke-linecap="round" stroke-linejoin="round" opacity="0.5"/><path d="M671.12816,722.43264c34.21338,27.9126 5.98162,43.38626 24.80809,61.58801c-1.95569,-31.28327 -15.42273,-39.58585 -20.75318,-54.78104c-11.35642,10.69432 26.20842,-36.89102 73.89965,-52.16156" fill="none" stroke-opacity="0.54713" stroke="#b592fd" stroke-width="10.1741" stroke-linecap="round" stroke-linejoin="round" opacity="0.5"/><path d="M549.92781,179.33551c-29.95497,25.19588 -62.79854,6.85105 -35.23375,13.03384c-51.22952,-19.06292 -41.71733,16.88119 -45.28539,53.578" fill="none" stroke-opacity="0.67944" stroke="#8acfb3" stroke-width="8.53571" stroke-linecap="round" stroke-linejoin="round" opacity="0.5"/><path d="M444.40235,459.46898c45.27998,8.39134 37.70345,31.90812 -0.39279,88.01544c30.9587,21.73634 21.0998,51.20582 -25.55951,101.71906c32.02847,44.47536 51.69811,74.04689 108.93517,13.7274" fill="none" stroke-opacity="0.36374" stroke="#f33d91" stroke-width="8.53571" stroke-linecap="round" stroke-linejoin="round" opacity="0.5"/><path d="M433.68178,213.95954c-52.42371,-36.50016 -56.1377,-38.00072 21.56474,-62.75338" fill="none" stroke-opacity="0.67602" stroke="#b8a259" stroke-width="8.53571" stroke-linecap="round" stroke-linejoin="round" opacity="0.5"/><path d="M423.31414,201.5988c-23.73842,23.47487 -43.01649,31.0696 -8.33016,38.40676" fill="none" stroke-opacity="0.83122" stroke="#005035" stroke-width="8.55842" stroke-linecap="round" stroke-linejoin="round" opacity="0.5"/><path d="M485.83484,244.91718c35.00869,63.42153 11.47696,33.5465 -26.58893,8.73036c-23.56927,2.70124 20.34946,-18.15528 20.79411,9.04823c-55.64941,34.79994 -32.65979,69.13276 22.49003,64.15715" fill="none" stroke-opacity="0.57249" stroke="#04ff5b" stroke-width="16.52432" stroke-linecap="round" stroke-linejoin="round" opacity="0.5"/><path d="M444.6319,219.27813c-63.60023,-42.1299 -49.76746,-34.70203 -69.05855,-18.70906c-28.20582,27.29783 -73.28034,61.87058 -70.99064,77.01474c17.46597,11.93031 50.80089,25.47459 22.61839,-22.70248" fill="none" stroke-opacity="0.78555" stroke="#7c0003" stroke-width="19.32441" stroke-linecap="round" stroke-linejoin="round" opacity="0.5"/><path d="M497.0224,267.93444c-6.82007,-41.48372 29.48775,-20.219 44.12025,1.95927c31.22482,46.75035 15.46756,93.92425 23.38338,81.60727c-22.48742,11.14341 -59.62177,17.10168 -74.39735,21.12787" fill="none" stroke-opacity="0.1816" stroke="#4256f2" stroke-width="8.53571" stroke-linecap="round" stroke-linejoin="round" opacity="0.5"/><path d="M249.68065,772.87965c-27.78119,32.21361 -39.56717,49.0687 -74.7225,72.34297c13.17301,16.7425 11.92466,44.20269 36.92088,19.6644c-10.70165,2.42613 -36.26197,-9.10586 -21.48876,42.129" fill="none" stroke-opacity="0.84515" stroke="#ff43ff" stroke-width="9.25114" stroke-linecap="round" stroke-linejoin="round" opacity="0.5"/><path d="M87.75802,127.5083c-9.39449,-40.94777 -67.01829,-77.30349 -22.18042,-57.68107c64.67278,-59.78379 68.14025,-44.13954 63.81323,-79.82769c1.41636,41.04988 37.8134,6.35352 3.37886,2.32104" fill="none" stroke-opacity="0.27569" stroke="#623c8f" stroke-width="8.53571" stroke-linecap="round" stroke-linejoin="round" opacity="0.5"/><path d="" fill="none" stroke-opacity="0.38343" stroke="#79002e" stroke-width="11.31333" stroke-linecap="round" stroke-linejoin="round" opacity="0.5"/><path d="M374.94056,419.69878c-33.99881,-18.49559 -28.59014,-32.16281 23.2461,9.4428" fill="none" stroke-opacity="0.70231" stroke="#2e0e6a" stroke-width="8.53571" stroke-linecap="round" stroke-linejoin="round" opacity="0.5"/><path d="M960.96349,11.41253c-24.22271,70.37395 -6.82449,100.14426 -59.99421,57.07282" fill="none" stroke-opacity="0.82005" stroke="#1a9b5c" stroke-width="8.53571" stroke-linecap="round" stroke-linejoin="round" opacity="0.5"/><path d="M646.64913,937.09525c22.22234,-19.59062 11.23601,-67.18 49.12861,-89.15384c-8.54412,-0.13448 -39.31455,20.10125 -6.03189,14.86482c-17.5181,35.38292 -45.34331,21.21425 -113.11905,3.82359" fill="none" stroke-opacity="0.6724" stroke="#305f4a" stroke-width="8.53571" stroke-linecap="round" stroke-linejoin="round" opacity="0.5"/><path d="M301.26636,615.21536c-32.96468,14.27215 -46.39527,68.9032 -26.72575,10.677" fill="none" stroke-opacity="0.48226" stroke="#d8f16d" stroke-width="15.03755" stroke-linecap="round" stroke-linejoin="round" opacity="0.5"/><path d="M623.09073,819.52476c51.37064,23.05409 24.93983,10.70715 -16.02048,4.75686c-33.17449,24.05853 -76.57201,15.09041 -2.40321,12.87514" fill="none" stroke-opacity="0.26609" stroke="#6cf4bf" stroke-width="8.53571" stroke-linecap="round" stroke-linejoin="round" opacity="0.5"/><path d="M34.76835,294.55085c23.86935,-17.63474 -1.11462,-22.52645 3.56657,19.3285" fill="none" stroke-opacity="0.77863" stroke="#00f334" stroke-width="8.58523" stroke-linecap="round" stroke-linejoin="round" opacity="0.5"/><path d="M358.73392,606.63836c6.40266,-18.89765 37.61704,-32.69656 50.0989,-99.99469" fill="none" stroke-opacity="0.67268" stroke="#637353" stroke-width="13.57244" stroke-linecap="round" stroke-linejoin="round" opacity="0.5"/><path d="M635.75533,49.7431c-26.02425,48.97308 -40.31737,27.88634 -48.99075,-9.48925c2.08535,4.08117 -0.10407,17.78556 -16.91038,31.97898c6.85152,74.99249 11.28831,82.23445 -49.88553,16.43436" fill="none" stroke-opacity="0.63647" stroke="#4d33be" stroke-width="8.53571" stroke-linecap="round" stroke-linejoin="round" opacity="0.5"/><g fill="#000000" stroke="none" stroke-width="1" stroke-linecap="butt" stroke-linejoin="miter" font-family="Poppins, sans-serif" font-weight="400" font-size="16" text-anchor="start" opacity="0.5"><g/></g></g></svg>