<svg version="1.1" xmlns="http://www.w3.org/2000/svg" xmlns:xlink="http://www.w3.org/1999/xlink" width="1104" height="1104"><g fill="none" fill-rule="nonzero" stroke="none" stroke-width="none" stroke-linecap="none" stroke-linejoin="none" stroke-miterlimit="10" stroke-dasharray="" stroke-dashoffset="0" font-family="none" font-weight="none" font-size="none" text-anchor="none" style="mix-blend-mode: normal"><path transform="translate(73,818)" d="M841.33646,77.31183c1.67141,0.03335 -0.00188,3.36563 0.00023,5.03248c-2.63575,7.25073 -2.62357,15.06671 -0.03219,23.38453c-2.64914,35.52217 -0.02745,70.53608 -0.15477,103.91911" fill="none" stroke="#ea6cff" stroke-width="9.85714" stroke-linecap="round" stroke-linejoin="round" vector-effect="non-scaling-stroke"/><path transform="translate(73,818)" d="M752.60683,142.60306c28.45548,-0.04524 57.2681,-1.0615 88.87793,1.84533c14.16257,-0.03976 26.95388,-1.90405 41.05268,-0.16876c17.6194,-0.85264 28.44149,4.1792 42.93985,4.11278" fill="none" stroke="#ea6cff" stroke-width="9.85714" stroke-linecap="round" stroke-linejoin="round" vector-effect="non-scaling-stroke"/><path transform="translate(73,818)" d="M759.71271,142.89807c22.15586,5.31865 4.16457,35.85526 30.36626,18.44771" fill="none" stroke="#ea6cff" stroke-width="9.85714" stroke-linecap="round" stroke-linejoin="round" vector-effect="non-scaling-stroke"/><path transform="translate(73,818)" d="M833.35761,80.66566c31.58645,-30.59879 -9.123,-18.75499 -49.35603,40.49581" fill="none" stroke="#ea6cff" stroke-width="10.60947" stroke-linecap="round" stroke-linejoin="round" vector-effect="non-scaling-stroke"/><path transform="translate(73,818)" d="M838.72966,100.20478c19.73858,21.27439 -28.70508,81.65071 -45.08602,87.13707c-50.25374,-50.44889 -1.97192,2.89216 43.28549,30.23443c50.88207,7.59989 96.67177,-16.80086 57.81445,-45.93925" fill="none" stroke="#ea6cff" stroke-width="9.85714" stroke-linecap="round" stroke-linejoin="round" vector-effect="non-scaling-stroke"/><path transform="translate(73,818)" d="M895.51239,165.34125c-39.55333,52.47831 -30.15907,90.22282 11.07695,64.13738" fill="none" stroke="#ea6cff" stroke-width="12.27142" stroke-linecap="round" stroke-linejoin="round" vector-effect="non-scaling-stroke"/><path transform="translate(73,818)" d="M908.43816,163.88354c-39.44519,-20.41695 -80.47869,-28.59388 -127.87348,-65.35265c44.84898,9.27518 53.00358,45.19806 39.42173,12.92604c29.18285,50.42761 53.72012,48.36037 17.05101,36.58944" fill="none" stroke="#ea6cff" stroke-width="9.85714" stroke-linecap="round" stroke-linejoin="round" vector-effect="non-scaling-stroke"/><path transform="translate(73,818)" d="M902.79425,164.1432c14.2459,24.35225 -12.20802,19.25684 20.92823,70.77974c-5.98353,22.65991 -73.42335,66.312 -101.95531,29.97142c23.62602,-39.12909 -5.16246,-89.07425 -10.56541,-50.57971" fill="none" stroke="#ea6cff" stroke-width="12.67948" stroke-linecap="round" stroke-linejoin="round" vector-effect="non-scaling-stroke"/><path d="M833.52705,79.70402c23.82088,-44.94222 -5.15794,1.1238 41.59911,-34.83043c-33.64711,32.89806 -72.34914,28.35356 -101.14062,86.51675c27.7633,52.37715 13.74166,75.54443 -4.51713,105.88405" fill="none" stroke-opacity="0.6413" stroke="#cd8aea" stroke-width="12.18871" stroke-linecap="round" stroke-linejoin="round" opacity="0.5"/><path d="M926.65934,151.62806c-19.10619,11.40808 -6.25472,-20.39221 -33.09887,-71.6259c-25.81875,-42.30243 -16.53022,-50.04529 14.36698,-43.22037c3.7687,3.84144 -3.87955,-14.86453 14.6135,-24.09811" fill="none" stroke-opacity="0.29653" stroke="#23e2ea" stroke-width="11.33029" stroke-linecap="round" stroke-linejoin="round" opacity="0.5"/><path d="M846.57043,100.23048c-52.1188,-51.17128 -106.58261,-48.80274 -84.00892,-77.14757c2.78563,-39.32049 55.2718,-61.13032 32.41602,-66.24871c38.31721,5.02285 2.18152,-26.83787 -28.31868,-52.61141" fill="none" stroke-opacity="0.20776" stroke="#4a8662" stroke-width="9.85714" stroke-linecap="round" stroke-linejoin="round" opacity="0.5"/><path d="M846.75995,100.80833c-55.75965,-22.7826 -53.79164,27.79598 -80.43049,-18.02991c36.03025,-35.9032 80.04439,-47.09151 30.76003,-107.34768c-60.82246,-17.76465 -28.44141,-39.9438 -63.74482,-33.55287" fill="none" stroke-opacity="0.21208" stroke="#7dcc73" stroke-width="9.85714" stroke-linecap="round" stroke-linejoin="round" opacity="0.5"/><path d="M841.14514,99.37221c46.91776,-4.21638 98.50299,-19.19302 88.64066,-35.655c-46.29357,19.80286 -35.54128,61.56068 -63.75362,20.91274c37.91396,-42.91178 64.29388,-33.85503 116.91542,-55.27289" fill="none" stroke-opacity="0.32537" stroke="#3707e1" stroke-width="12.57507" stroke-linecap="round" stroke-linejoin="round" opacity="0.5"/><path d="M919.92129,8.7395c-50.47649,44.9625 -35.62701,36.51607 -8.2759,4.44399" fill="none" stroke-opacity="0.30132" stroke="#c80d30" stroke-width="9.85714" stroke-linecap="round" stroke-linejoin="round" opacity="0.5"/><path d="M733.34467,-58.12214c38.82965,51.97702 89.3457,40.39909 92.89962,19.09182c52.64327,-48.88016 11.62354,-12.47174 47.95129,-34.51509c-13.74587,7.07895 -38.75903,-35.67999 -32.82882,-12.88428" fill="none" stroke-opacity="0.78882" stroke="#94b5dd" stroke-width="9.85714" stroke-linecap="round" stroke-linejoin="round" opacity="0.5"/><path d="M733.34467,-58.12214c-2.84798,-42.76684 36.83817,9.02105 -3.01109,47.8311c-12.22329,-53.51569 -37.98789,-84.68192 -74.62398,-81.30569c-8.38563,16.42128 -62.74543,-19.00205 -72.43464,-51.55738" fill="none" stroke-opacity="0.66714" stroke="#a1807a" stroke-width="9.85714" stroke-linecap="round" stroke-linejoin="round" opacity="0.5"/><path d="M766.10407,228.24004c-25.13785,42.28725 -65.06149,82.47775 -66.69958,58.14039c16.4572,-39.19439 66.47209,-15.4439 86.42387,25.45156" fill="none" stroke-opacity="0.5342" stroke="#adad7f" stroke-width="9.85714" stroke-linecap="round" stroke-linejoin="round" opacity="0.5"/><path d="M933.31001,51.57812c-51.55101,-37.53419 -1.39007,-60.15357 -42.93609,-35.3946c-30.16494,34.40138 -19.15071,6.81848 17.40823,29.54529c12.50448,48.05991 -36.03018,91.39211 -35.05734,105.09277" fill="none" stroke-opacity="0.00047" stroke="#edf10a" stroke-width="9.85714" stroke-linecap="round" stroke-linejoin="round" opacity="0.5"/><path d="M839.87081,354.2246c-46.79225,-7.4012 0.29961,-53.29676 42.31964,-68.16755" fill="none" stroke-opacity="0.25262" stroke="#adfbef" stroke-width="9.85714" stroke-linecap="round" stroke-linejoin="round" opacity="0.5"/><path d="M673.66696,126.88157c-7.80174,45.60717 -58.47636,3.44373 -20.35976,-6.35224c3.74178,54.49403 -5.40454,81.69171 19.59629,76.63261c-40.59055,-12.14073 -61.22229,13.58864 -64.33776,-16.92202" fill="none" stroke-opacity="0.13373" stroke="#5728f7" stroke-width="11.26282" stroke-linecap="round" stroke-linejoin="round" opacity="0.5"/><path d="M456.0315,99.20839c46.78638,53.54466 47.57783,37.93218 71.24405,32.00638" fill="none" stroke-opacity="0.46951" stroke="#d5d6d4" stroke-width="9.85714" stroke-linecap="round" stroke-linejoin="round" opacity="0.5"/><path d="M55.62848,234.62342c25.94325,46.76796 -5.94402,97.95806 -48.97166,126.20899c-45.05702,-14.33795 1.73198,-40.56348 -13.27129,-59.59465" fill="none" stroke-opacity="0.65423" stroke="#f1a2bb" stroke-width="10.21663" stroke-linecap="round" stroke-linejoin="round" opacity="0.5"/><path d="M1094.84158,12.9436c-43.8899,41.76543 -31.12387,-11.7732 -60.78719,17.6413c-4.60452,26.26926 -37.86094,9.13541 -27.62778,45.96719" fill="none" stroke-opacity="0.05365" stroke="#823645" stroke-width="11.3011" stroke-linecap="round" stroke-linejoin="round" opacity="0.5"/><path d="M208.79681,701.67708c-36.06325,58.08812 -29.83735,17.07154 -3.44777,-18.34091c-1.39633,-17.93293 13.01381,2.5634 37.96091,19.46965c9.01123,-63.68947 -12.89627,-52.46752 3.95767,-56.22441" fill="none" stroke-opacity="0.23897" stroke="#6ee10c" stroke-width="9.85714" stroke-linecap="round" stroke-linejoin="round" opacity="0.5"/><path d="M567.30974,616.84787c21.44541,9.57344 -21.91126,-9.37836 -60.3157,-57.64122c-4.23331,-32.62294 -45.83077,-11.67779 -52.12591,-55.69295c-1.82866,6.65469 -17.55146,-14.63549 18.38539,24.82353" fill="none" stroke-opacity="0.55235" stroke="#873c9e" stroke-width="12.67993" stroke-linecap="round" stroke-linejoin="round" opacity="0.5"/><path d="M468.82953,471.47889c14.65836,12.20907 -22.5476,-4.95952 15.05107,16.41129" fill="none" stroke-opacity="0.2158" stroke="#c5efc4" stroke-width="11.70913" stroke-linecap="round" stroke-linejoin="round" opacity="0.5"/><path d="M623.83989,642.86211c-5.50001,50.89538 -28.56655,24.80755 -13.83295,-0.86537c-37.72167,27.04608 -89.41594,-17.23135 -121.37355,-10.19496" fill="none" stroke-opacity="0.91735" stroke="#f6d3df" stroke-width="9.85714" stroke-linecap="round" stroke-linejoin="round" opacity="0.5"/><path d="M1013.29145,414.4099c13.5908,-35.00496 -6.72317,-69.89519 43.80597,-43.87038c-32.41016,-9.97721 -76.30321,9.29894 -121.45895,36.83204c-55.10365,37.1456 -96.15264,39.4429 -72.18075,18.64477" fill="none" stroke-opacity="0.68035" stroke="#382b94" stroke-width="9.85714" stroke-linecap="round" stroke-linejoin="round" opacity="0.5"/><path d="M618.73459,700.44584c-59.70959,-32.19462 -83.77379,-28.12533 -126.40869,-67.13351c12.3558,-3.51872 8.9697,-56.04253 7.62629,-85.16507c-29.08678,-8.32501 -12.7889,46.68226 -23.40173,68.98722" fill="none" stroke-opacity="0.51875" stroke="#8b6e14" stroke-width="9.85714" stroke-linecap="round" stroke-linejoin="round" opacity="0.5"/><path d="M823.33855,238.47343c-3.74087,-14.06274 -18.73821,32.00885 -51.08219,67.08886" fill="none" stroke-opacity="0.88744" stroke="#864253" stroke-width="9.85714" stroke-linecap="round" stroke-linejoin="round" opacity="0.5"/><path d="M348.88057,10.75437c-42.11441,-52.07628 -75.44771,-20.25046 -129.38297,-1.47501" fill="none" stroke-opacity="0.24012" stroke="#6eca60" stroke-width="10.14723" stroke-linecap="round" stroke-linejoin="round" opacity="0.5"/><path d="M1092.89876,590.04643c47.30875,49.57454 76.39654,56.96536 41.09509,20.31941c12.08446,-6.81469 18.87621,12.9915 38.80543,37.53456" fill="none" stroke-opacity="0.31874" stroke="#6024d9" stroke-width="12.76598" stroke-linecap="round" stroke-linejoin="round" opacity="0.5"/><g fill="#000000" stroke="none" stroke-width="1" stroke-linecap="butt" stroke-linejoin="miter" font-family="Poppins, sans-serif" font-weight="400" font-size="16" text-anchor="start" opacity="0.5"><g/></g><g fill="none" stroke="none" stroke-width="1" stroke-linecap="butt" stroke-linejoin="miter" font-family="sans-serif" font-weight="normal" font-size="12" text-anchor="start"/></g></svg>