<svg version="1.1" xmlns="http://www.w3.org/2000/svg" xmlns:xlink="http://www.w3.org/1999/xlink" width="1104" height="1104"><g fill="none" fill-rule="nonzero" stroke="#000000" stroke-width="8" stroke-linecap="round" stroke-linejoin="round" stroke-miterlimit="4" stroke-dasharray="" stroke-dashoffset="0" font-family="none" font-weight="none" font-size="none" text-anchor="none" style="mix-blend-mode: normal"><path d="M145.01695,418.67797c399.96611,77.18638 853.72879,9.3564 853.72879,-11.69478c0,-21.05074 -109.93224,-116.9492 -229.22032,-72.5084" id="path6470 1"/><path d="M364.88135,467.7966c-16.37287,222.20339 -51.45766,446.74577 7.01702,465.45764c58.47457,18.71192 304.0678,-42.1017 348.50848,-152.0339c44.44064,-109.93224 46.77968,-156.71185 46.77968,-156.71185" id="path6472 1"/><path d="M762.50847,479.49152c88.88138,-16.37287 116.94915,-35.08479 112.27117,11.69489c-4.67765,46.77968 -21.05085,65.49149 -51.45766,121.62711c-30.40681,56.13564 18.71181,84.2034 -30.40681,56.13564" id="path6474 1"/><path d="M460.77965,554.33899c-18.71192,60.81351 -65.49149,154.37286 -60.81351,161.38981c4.67765,7.01702 60.81351,11.69478 77.18649,0" id="path6476 1"/><path d="M385.93219,535.62712c39.76277,2.33938 2.33938,11.69478 51.45766,7.01702" id="path6478 1"/><path d="M540.04162,561.85966c39.76277,2.33938 2.33938,11.69478 51.45766,7.01702" id="path6478-5 1"/><path d="M421.01696,790.57627c99.64086,12.6302 112.26117,-1.07405 116.89219,-5.70547" id="path6495 1"/></g></svg>