<svg version="1.1" xmlns="http://www.w3.org/2000/svg" xmlns:xlink="http://www.w3.org/1999/xlink" width="956" height="956"><g fill="none" fill-rule="nonzero" stroke="none" stroke-width="none" stroke-linecap="round" stroke-linejoin="round" stroke-miterlimit="10" stroke-dasharray="" stroke-dashoffset="0" font-family="none" font-weight="none" font-size="none" text-anchor="none" style="mix-blend-mode: normal"><path d="M717.58877,483.29663c-0.22403,7.41696 -0.44806,14.83392 -0.11006,15.9399c0.33801,1.10598 1.23805,-4.09902 -7.17179,3.6759c-8.40984,7.77492 -26.12957,28.52975 -35.60218,38.90226c-9.47261,10.37251 -10.69812,10.36268 -13.05136,9.454c-2.35324,-0.90868 -5.83423,-2.71622 -9.18537,-2.72075c-3.35114,-0.00453 -6.57245,1.79396 -7.3389,2.5976c-0.76645,0.80364 0.92196,0.61245 1.21147,-0.13956c0.28951,-0.75201 -0.81987,-2.06482 -1.92925,-3.37763c-1.10938,-1.31281 -2.30612,-6.89492 -3.50287,-12.47702" stroke-opacity="0.23233" stroke="#141919" stroke-width="23.37206"/><path d="M627.82851,387.13833c0.13469,-1.77235 0.26937,-3.54469 1.35057,-5.38777c1.0812,-1.84308 3.10892,-3.75688 -0.41789,-14.64351c-3.52681,-10.88662 -12.60814,-30.74607 -17.43475,-41.72873c-4.8266,-10.98266 -5.39848,-13.08855 -5.97035,-15.19444c-0.57187,-2.10589 -29.94893,-6.67137 -59.32599,-11.23686" stroke-opacity="0.24068" stroke="#151217" stroke-width="21.37186"/><path d="M620.06554,313.6495c-22.18166,23.93823 -44.36332,47.87646 -73.02786,52.10744c-28.66454,4.23098 -63.81196,-11.2453 -98.95937,-26.72158c-35.14742,-15.47628 -35.42477,-4.02892 -35.70211,7.41844" stroke-opacity="0.78517" stroke="#a48f7e" stroke-width="8.53571"/><path transform="translate(168,-16)" d="M566.40767,286.20213c23.59112,-35.26119 47.18225,-70.52238 69.1256,-74.62168c21.94335,-4.0993 42.23893,22.96328 62.5345,50.02587c20.29558,27.06258 -6.9396,76.40364 -34.17477,125.74469" stroke-opacity="0.71918" stroke="#888b65" stroke-width="9.1234" vector-effect="non-scaling-stroke"/><path d="M634.55734,389.88125c14.30632,-29.98448 28.61264,-59.96895 40.77479,-69.11749c12.16215,-9.14854 22.18013,2.53886 32.19811,14.22627c10.01798,11.6874 -38.82339,24.12251 -87.66475,36.55763" stroke-opacity="0.23396" stroke="#49cf6f" stroke-width="8.53571" opacity="0.5"/><path d="M598.21876,294.71189c15.19773,-9.15151 21.22903,-1.20597 -30.93929,-26.22213" stroke-opacity="0.30554" stroke="#553ac3" stroke-width="8.53571" opacity="0.5"/><path d="M673.27042,546.81412c-8.8328,-56.6887 -2.23506,-64.04241 -10.15661,-28.02813" stroke-opacity="0.34539" stroke="#516c74" stroke-width="9.3508" opacity="0.5"/><path d="M628.08666,370.5463c-16.73514,47.57759 24.55424,60.57761 4.19635,45.32143" stroke-opacity="0.11974" stroke="#ff6d59" stroke-width="8.53571" opacity="0.5"/><path d="M638.41076,550.18465c28.30401,-20.62703 56.60802,-41.25406 84.91203,-61.8811c28.30401,-20.62703 2.22381,-19.95496 -23.85639,-19.28289" stroke-opacity="0.12916" stroke="#5b4985" stroke-width="8.53571" opacity="0.5"/><path d="M623.27093,311.73976c-18.35108,-4.79761 -36.70216,-9.59522 -55.73117,-3.8738c-19.02901,5.72141 -38.73595,21.96185 -58.4429,38.20229c-19.70694,16.24044 -36.19658,-22.17938 -52.68621,-60.5992" stroke-opacity="0.56651" stroke="#ff8f90" stroke-width="16.84206" opacity="0.5"/><path d="M693.43757,494.07786c0.27985,13.35448 0.5597,26.70897 0.83956,40.06345c0.27985,13.35448 10.12855,-12.86525 19.97725,-39.08499" stroke-opacity="0.44857" stroke="#84a05f" stroke-width="8.53571" opacity="0.5"/><path d="M687.55409,499.64497c-7.50591,-32.99854 -15.01183,-65.99708 -22.51774,-98.99562c-7.50591,-32.99854 5.74953,-46.24482 19.00498,-59.49111" stroke-opacity="0.49797" stroke="#d9ffac" stroke-width="8.53571" opacity="0.5"/><path d="M635.14911,382.80457c-24.56219,3.97122 -49.12438,7.94245 -73.68657,11.91367c-24.56219,3.97122 12.43977,10.89417 49.44172,17.81711" stroke-opacity="0.21012" stroke="#5a2fe0" stroke-width="10.10302" opacity="0.5"/><path d="M632.74193,346.95547c-3.11934,-18.95379 -6.23868,-37.90758 -9.35801,-56.86137c-3.11934,-18.95379 -28.39049,9.50482 -53.66165,37.96342" stroke-opacity="0.55868" stroke="#a95660" stroke-width="15.04301" opacity="0.5"/><path d="M625.90486,347.59142c-6.65483,31.54259 -13.30967,63.08519 -16.05773,66.92199c-2.74806,3.8368 -1.58936,-20.03219 -0.43065,-43.90118c1.15871,-23.86899 15.90365,-4.49438 30.64859,14.88022" stroke-opacity="0.25969" stroke="#7444c2" stroke-width="10.48743" opacity="0.5"/><path d="M854.11494,573.95502c-22.59721,35.47665 -45.19442,70.95331 -51.81771,84.36351c-6.62329,13.4102 2.72734,4.75394 12.07798,-3.90233c9.35063,-8.65626 -36.69677,16.045 -82.74417,40.74626" stroke-opacity="0.74097" stroke="#756f39" stroke-width="8.53571" opacity="0.5"/><path d="M325.77336,612.83377c7.2619,8.52182 14.5238,17.04364 21.7857,25.56546c7.2619,8.52182 -13.26284,-43.11049 -33.78758,-94.7428" stroke-opacity="0.71173" stroke="#1a0dad" stroke-width="8.53571" opacity="0.5"/><path d="M482.91397,235.03405c15.02719,-36.29062 30.05437,-72.58123 41.37098,-80.88549c11.31661,-8.30425 18.92263,11.37786 26.52866,31.05997c7.60603,19.68211 -2.48834,4.79822 -12.58271,-10.08567" stroke-opacity="0.39513" stroke="#792a4f" stroke-width="8.55026" opacity="0.5"/><path d="M701.25349,952.871c-39.47346,-12.69366 -78.94691,-25.38732 -76.95402,-21.73171c1.9929,3.65561 45.45214,23.66049 88.91139,43.66537c43.45925,20.00488 57.90156,30.5612 72.34388,41.11752" stroke-opacity="0.15657" stroke="#c4d293" stroke-width="10.26139" opacity="0.5"/><path d="M684.05839,788.55166c42.57024,10.97809 85.14047,21.95619 103.52679,9.92705c18.38632,-12.02914 12.58874,-47.0655 6.79115,-82.10187c-5.79759,-35.03637 -29.94605,-27.4734 -54.09452,-19.91044" stroke-opacity="0.46371" stroke="#58383d" stroke-width="8.53571" opacity="0.5"/><path d="M472.95299,696.7338c-18.56416,1.63201 -37.12833,3.26402 -55.69249,4.89603c-18.56416,1.63201 40.69244,-5.41565 99.94904,-12.46331" stroke-opacity="0.48623" stroke="#a2ac65" stroke-width="8.53571" opacity="0.5"/><path d="M964.92905,698.26242c17.34953,-6.32878 34.69906,-12.65756 31.64222,-6.38694c-3.05683,6.27062 -26.52002,25.14063 -49.98321,44.01065c-23.46319,18.87002 -16.2237,60.56496 -8.98421,102.2599" stroke-opacity="0.35062" stroke="#7d050d" stroke-width="8.81939" opacity="0.5"/><path d="M614.14071,463.11398c14.61729,46.68373 -28.48001,74.82357 -49.36221,75.1628" stroke-opacity="0.6005" stroke="#3806ff" stroke-width="14.24635" opacity="0.5"/><path d="M644.72548,366.75618c-0.61271,5.74574 -1.22543,11.49149 -1.83814,17.23723c-0.61271,5.74574 -35.98932,23.55646 -71.36594,41.36717" stroke-opacity="0.48017" stroke="#88e947" stroke-width="8.53571" opacity="0.5"/><path d="M124.33586,102.99361c-1.17302,16.5805 26.58537,33.32546 37.07243,50.22299" stroke-opacity="0.10881" stroke="#79b113" stroke-width="8.53571" opacity="0.5"/><path d="M451.25875,729.5242c-21.93676,-8.13921 -43.87352,-16.27841 -65.81028,-24.41762c-21.93676,-8.13921 1.71644,21.22586 25.36964,50.59093" stroke-opacity="0.81288" stroke="#ff8592" stroke-width="9.35278" opacity="0.5"/><path d="M927.52181,721.80772c8.72707,-14.71706 17.45413,-29.43412 26.1812,-44.15118c8.72707,-14.71706 -1.00141,20.55469 -10.72988,55.82644" stroke-opacity="0.68679" stroke="#ff574f" stroke-width="13.90071" opacity="0.5"/><path d="M63.38264,652.04959c12.24812,74.1518 24.49623,148.30361 22.01242,168.06179c-2.48381,19.75818 -19.69955,-14.87726 -36.91529,-49.5127c-17.21574,-34.63544 27.81845,-61.28871 72.85265,-87.94198" stroke-opacity="0.22383" stroke="#ff1539" stroke-width="8.53571" opacity="0.5"/><path d="M486.75729,82.45382c8.6261,-7.73013 -38.8878,-6.39796 -28.028,-46.8948" stroke-opacity="0.51986" stroke="#fc2932" stroke-width="17.02058" opacity="0.5"/><path d="M247.80236,356.73238c193.10601,-17.69214 303.69178,-21.09192 300.483,-111.21646" stroke-opacity="0.71583" stroke="#6be7c3" stroke-width="8.53571" opacity="0.5"/></g></svg>