<svg version="1.1" xmlns="http://www.w3.org/2000/svg" xmlns:xlink="http://www.w3.org/1999/xlink" width="1078.99219" height="1078.99219"><g fill="none" fill-rule="nonzero" stroke="#181818" stroke-width="12" stroke-linecap="round" stroke-linejoin="round" stroke-miterlimit="10" stroke-dasharray="" stroke-dashoffset="0" font-family="none" font-weight="none" font-size="none" text-anchor="none" style="mix-blend-mode: normal"><path d="M311.09766,364.99609c2.00208,0 -4.46186,1.28157 -6,0c-1.28046,-1.06687 -1.01908,-3.68119 0,-5c8.34659,-10.80147 32.28712,-30.74095 43,-36c9.00158,-4.41896 19.13538,-6.19864 29,-8c14.05089,-2.56582 97.65228,-21.72913 127,-9c16.14708,7.00355 30.44033,18.72778 42,32c34.10293,39.15522 54.89424,93.80544 70,142c5.39645,17.21725 6.62389,35.49557 11,53c2.63337,10.53348 6.99068,20.5677 10,31c1.99436,6.91378 3.19416,14.03461 5,21c0.52907,2.04072 0.06857,6.845 2,6c5.83439,-2.55254 9.00161,-9.0539 14,-13c14.02334,-11.07106 27.83294,-22.55636 43,-32c43.06567,-26.81447 83.31178,-44.1804 132,-55" opacity="0.75"/><path d="M843.09766,746.99609c-0.53707,0 -1.07414,0 0.001,0c1.07514,0 3.7625,0 -7.001,0c-10.7635,0 -34.97784,0 -70,0c-35.02216,0 -80.85212,0 -132,0c-51.14788,0 -107.61368,0 -152,0c-44.38632,0 -76.69316,0 -109,0c-32.30684,0 -37.65342,0 -43,0" opacity="0.75"/></g></svg>