<svg version="1.1" xmlns="http://www.w3.org/2000/svg" xmlns:xlink="http://www.w3.org/1999/xlink" width="698" height="698"><g fill="none" fill-rule="nonzero" stroke="none" stroke-width="none" stroke-linecap="none" stroke-linejoin="none" stroke-miterlimit="10" stroke-dasharray="" stroke-dashoffset="0" font-family="none" font-weight="none" font-size="none" text-anchor="none" style="mix-blend-mode: normal"><path d="M265,427c3.14654,0 -5.63192,2.92806 -8,5c-3.38799,2.9643 -13.11363,14.91286 -15,19c-11.16494,24.19071 -7.92336,52.85999 18,67c8.52157,4.64813 18.41703,6.45436 28,8c34.26996,5.52741 74.34238,4.53015 106,-11c7.48158,-3.67021 15.3775,-8.06625 20,-15c1.56893,-2.35339 -3.2804,-5.22297 -6,-6c-6.5027,-1.85792 -36.24343,-4.4327 -25,12c2.67522,3.90994 6.84605,6.72203 11,9c8.96038,4.91376 39.63455,19.18937 50,16c4.44339,-1.3672 2.24719,-7.88246 5,-10c6.19532,-4.76563 17.17315,-4.23008 24,-6c7.08407,-1.83661 17.17082,-4.34164 21,-12c0.68508,-1.37016 1.63941,-11.84546 -5,-9c-1.64992,0.70711 -2.56765,3.29706 -2,5c1.97025,5.91074 26.51578,17.17475 31,10c5.69405,-9.11048 -13.14696,-19.60287 -18,-23" fill="none" stroke="#181818" stroke-width="8" stroke-linecap="round" stroke-linejoin="round"/><path d="M319,190c3.14652,0 -5.45525,3.14936 -8,5c-4.79979,3.4906 -9.5049,7.12491 -14,11c-7.53362,6.4945 -27.93711,21.06289 -15,34c14.21016,14.21016 59.78766,30.93171 77,39c4.91045,2.30177 33.91961,14.49751 40,25c7.77129,13.42314 -28.83805,30.87854 -37,37c-2.31714,1.73785 -9.49005,6.50995 -5,11c7.94353,7.94353 30.99897,5.83342 41,5c2.73924,-0.22827 5.39232,-2.86923 8,-2c1.84391,0.61464 -3.26155,2.13077 -5,3c-3.77073,1.88536 -14.77594,5.55189 -17,10c-3.95475,7.90951 33.61803,29.32587 35,30c6.34819,3.09668 13.19839,5.09555 20,7c1.60494,0.44938 4.0755,1.38675 5,0c2.26655,-3.39983 0,-32.56088 0,-36c0,-10.18694 2.67105,-40.32178 -1,-50c-6.38022,-16.82059 -24.06131,-29.95429 -40,-36c-4.31609,-1.63714 -19.09608,-5.26335 -24,-3c-1.84097,0.84968 -1.53349,4.04386 -1,6c1.02655,3.76402 14.71635,23.28365 12,26c-4.48454,4.48454 -12.77529,0.21458 -19,-1c-17.71917,-3.4574 -36.64752,-14.34099 -55,-7" fill="none" stroke="#181818" stroke-width="8" stroke-linecap="round" stroke-linejoin="round"/><path d="M349,494c2.83011,0 -3.77457,4.25158 -6,6c-2.47277,1.94275 -5.41448,3.21003 -8,5c-6.55958,4.54125 -7.96367,13.14533 -6,21c1.99673,7.98692 5.03249,15.78635 9,23c1.70762,3.10477 5.68402,4.71005 7,8c4.43169,11.07923 -19.70922,18.12767 -23,28c-4.20291,12.60874 18.73492,22.27709 27,27" fill="none" stroke="#181818" stroke-width="8" stroke-linecap="round" stroke-linejoin="round"/><path d="M234,570c16.9283,0 -23.53683,-6.00546 -10,-4c57.24708,8.48105 114.94068,15.83411 173,12c13.50654,-0.89194 26.66766,-4.66099 40,-7c5.66766,-0.99433 11.36315,-4.15628 17,-3c8.03168,1.64752 14.04588,9.01147 22,11c4.30746,1.07687 22.79005,1 32,1" fill="none" stroke="#181818" stroke-width="8" stroke-linecap="round" stroke-linejoin="round"/><path d="M150,445v-293h399v293z" fill="#f5f5f5" stroke="#7b66ff" stroke-width="1" stroke-linecap="butt" stroke-linejoin="miter" opacity="0.4"/></g></svg>