<svg version="1.1" xmlns="http://www.w3.org/2000/svg" xmlns:xlink="http://www.w3.org/1999/xlink" width="956" height="956"><g fill="none" fill-rule="nonzero" stroke="none" stroke-width="none" stroke-linecap="round" stroke-linejoin="round" stroke-miterlimit="10" stroke-dasharray="" stroke-dashoffset="0" font-family="none" font-weight="none" font-size="none" text-anchor="none" style="mix-blend-mode: normal"><path d="M250.47615,284.78663c-2.34307,1.89615 -4.68613,3.7923 -3.06241,8.17259c1.62372,4.38029 7.21423,11.24473 8.07652,23.5906c0.86229,12.34587 -3.00363,30.17317 -6.86956,48.00047c-3.86593,17.8273 -2.38672,108.16531 -0.90751,198.50332" stroke-opacity="0.98819" stroke="#151417" stroke-width="8.53571"/><path d="M560.88197,278.55618c-0.11701,-0.66537 -0.23403,-1.33074 -0.04676,1.08605c0.18727,2.41678 0.67883,7.91572 1.35578,13.61418c0.67695,5.69847 1.5393,11.59646 2.40165,17.49446c0.86235,5.898 -0.32942,38.69164 -1.52119,71.48527" stroke-opacity="0.99028" stroke="#151712" stroke-width="8.53571"/><path d="M573.07235,242.3658c-8.95862,9.56035 0.22786,-24.78794 12.81529,36.37507" stroke-opacity="0.59083" stroke="#b275da" stroke-width="8.53571"/><path d="M868.1378,22.48327c18.45515,4.12612 54.0755,-4.98417 84.93228,8.56642" stroke-opacity="0.28011" stroke="#d8285a" stroke-width="8.53571"/><path transform="translate(154,-367)" d="M629.61325,687.49809c-30.78063,5.07498 -61.56127,10.14997 -92.3419,15.22495c-30.78063,5.07498 12.39989,-12.79677 55.58041,-30.66852" stroke-opacity="0.38153" stroke="#6b780b" stroke-width="8.53571" vector-effect="non-scaling-stroke"/><path transform="translate(421,257)" d="M389.90889,266.06401c-0.43843,0.7255 -0.87685,1.45099 0.02309,10.10886c0.89994,8.65786 3.13823,25.2481 5.37653,41.83833c2.2383,16.59023 0.96479,76.73416 -0.30871,136.87809" stroke-opacity="0.99003" stroke="#161613" stroke-width="8.53571" vector-effect="non-scaling-stroke"/><path d="M545.76259,257.05207c18.65988,14.52674 37.31975,29.05349 40.47477,26.52563c3.15501,-2.52786 -9.19483,-22.11032 -21.54468,-41.69278c-12.34985,-19.58246 6.80523,19.40926 25.9603,58.40099" stroke-opacity="0.56215" stroke="#4571c0" stroke-width="8.53571" opacity="0.5"/><path d="M396.55433,269.97339c-49.43925,2.56266 -98.87851,5.12533 -107.78267,14.63924c-8.90416,9.51391 22.72677,25.97907 54.35771,42.44423c31.63093,16.46516 -19.72645,-16.39576 -71.08384,-49.25668" stroke-opacity="0.55852" stroke="#7ea947" stroke-width="14.44213" opacity="0.5"/><path d="M548.54344,268.96508c11.90907,9.66154 23.81815,19.32309 35.72722,28.98463c11.90907,9.66154 -13.97247,-24.8995 -39.85402,-59.46055" stroke-opacity="0.58549" stroke="#ed05f1" stroke-width="13.41342" opacity="0.5"/><path d="M380.95906,266.35708c-42.78355,15.10389 -20.57651,41.60142 3.35784,71.41299" stroke-opacity="0.33722" stroke="#24e405" stroke-width="8.53571" opacity="0.5"/><path d="M261.05407,288.22584c-2.69102,13.0963 32.01026,53.03494 50.31133,49.47848" stroke-opacity="0.14709" stroke="#c01648" stroke-width="10.43147" opacity="0.5"/><path d="M271.70699,362.64556c-27.62348,-49.76798 -21.21743,-33.10448 -21.80678,-18.65289" stroke-opacity="0.65853" stroke="#6915eb" stroke-width="8.53571" opacity="0.5"/><path d="M402.9485,263.98211c21.8278,22.57334 59.35806,2.79704 60.3307,44.89141" stroke-opacity="0.82761" stroke="#7b8f1f" stroke-width="8.53571" opacity="0.5"/><path d="M572.16429,303.46134c-42.99145,16.62866 -18.56755,-12.00074 17.50697,10.22789" stroke-opacity="0.51323" stroke="#35a3c8" stroke-width="8.53571" opacity="0.5"/><path d="M458.31101,311.8335c4.51707,9.39253 9.03413,18.78507 10.43484,28.80234c1.40071,10.01727 -0.31493,20.65927 -2.03058,31.30128c-1.71565,10.642 56.44517,-21.68435 114.60599,-54.0107" stroke-opacity="0.45987" stroke="#60c94b" stroke-width="8.91436" opacity="0.5"/><path d="M270.77789,293.18536c-15.31236,-33.36062 -30.62472,-66.72125 -45.93708,-100.08187c-15.31236,-33.36062 -6.29,-9.79779 2.73237,13.76505" stroke-opacity="0.69284" stroke="#81c4a3" stroke-width="8.53714" opacity="0.5"/><path d="M461.61854,306.99361c-11.63425,5.85985 -23.26849,11.7197 -34.90274,17.57955c-11.63425,5.85985 -51.91631,6.85239 -92.19837,7.84493" stroke-opacity="0.51997" stroke="#df006a" stroke-width="13.34592" opacity="0.5"/><path d="M558.64763,237.14716c-3.77095,-2.04737 -7.54189,-4.09475 -35.28357,-5.69838c-27.74168,-1.60364 -79.45409,-2.76354 -131.1665,-3.92344c-51.71241,-1.1599 -28.78679,1.10135 -5.86117,3.36261" stroke-opacity="0.21606" stroke="#c2691b" stroke-width="10.43638" opacity="0.5"/><path d="M262.43437,313.9108c20.77004,13.58894 41.54007,27.17789 52.26907,35.0532c10.729,7.87531 11.41697,10.037 12.10494,12.19868c0.68797,2.16168 -4.0583,33.28815 -8.80457,64.41461" stroke-opacity="0.71857" stroke="#60bb85" stroke-width="11.24867" opacity="0.5"/><path d="M32.53945,340.17038c34.21585,-54.93215 54.03025,-36.00252 38.45676,5.15173" stroke-opacity="0.01306" stroke="#f73f3b" stroke-width="8.53571" opacity="0.5"/><path d="M307.4857,582.14187c-3.77813,-5.05382 -7.55626,-10.10764 -19.52924,-6.66963c-11.97298,3.438 -32.14082,15.36783 -52.30865,27.29765c-20.16783,11.92983 17.97361,-6.31188 56.11505,-24.55359" stroke-opacity="0.56903" stroke="#9ed2be" stroke-width="8.53571" opacity="0.5"/><path d="M346.40161,562.83909c15.28694,-10.62194 30.57387,-21.24388 45.86081,-31.86582c15.28694,-10.62194 -2.1837,0.84993 -19.65434,12.3218" stroke-opacity="0.74847" stroke="#97a64d" stroke-width="8.78965" opacity="0.5"/><path d="M701.46644,826.80934c30.22275,12.5843 63.90018,31.94745 65.7787,46.60362" stroke-opacity="0.35892" stroke="#f67a7e" stroke-width="8.53571" opacity="0.5"/><path d="M191.93103,574.45008c-37.4415,21.34052 -62.48389,23.21474 -32.81643,44.12552" stroke-opacity="0.69018" stroke="#3c4512" stroke-width="8.53571" opacity="0.5"/><path d="M637.34054,480.79026c-3.97848,-24.38569 -7.95695,-48.77137 -11.93543,-73.15706c-3.97848,-24.38569 15.01687,49.96133 34.01222,124.30834" stroke-opacity="0.11" stroke="#7d4f9d" stroke-width="9.365" opacity="0.5"/><path d="M287.952,444.31329c-21.95717,24.00653 -43.91434,48.01307 -49.31439,49.67733c-5.40006,1.66427 5.757,-19.01373 16.91406,-39.69174c11.15706,-20.678 21.66038,38.85101 32.16371,98.38001" stroke-opacity="0.11104" stroke="#5cad29" stroke-width="9.28035" opacity="0.5"/><path d="M230.20653,529.42167c27.94015,21.64259 31.11633,21.78352 -0.78998,-4.01808" stroke-opacity="0.22684" stroke="#e26b7f" stroke-width="8.53571" opacity="0.5"/><path d="M158.69396,79.94798c-26.80183,-18.22971 -72.54798,-10.25752 -43.70882,39.88211" stroke-opacity="0.52653" stroke="#d1e295" stroke-width="8.53571" opacity="0.5"/><path d="M301.49894,151.49848c-21.65842,13.1817 -15.72711,55.9506 20.06002,83.03068" stroke-opacity="0.67979" stroke="#ff37fe" stroke-width="13.39641" opacity="0.5"/><path d="M212.56572,225.95015c30.58519,-35.83185 86.83436,-33.34667 58.25495,-61.68257" stroke-opacity="0.16524" stroke="#a68df2" stroke-width="8.53571" opacity="0.5"/><path d="M675.32327,165.12863c6.38733,8.9405 -21.81025,11.17229 -26.68648,-23.11704" stroke-opacity="0.01961" stroke="#eea172" stroke-width="9.1707" opacity="0.5"/><path d="M28.6453,721.93894c3.02662,-0.93347 6.05324,-1.86695 3.89564,-21.26368c-2.1576,-19.39673 -9.49943,-57.25672 -16.84126,-95.1167c-7.34183,-37.85999 15.36874,20.51441 38.07931,78.8888" stroke-opacity="0.55267" stroke="#a4bb22" stroke-width="8.53571" opacity="0.5"/></g></svg>