<svg version="1.1" xmlns="http://www.w3.org/2000/svg" xmlns:xlink="http://www.w3.org/1999/xlink" width="1619" height="1619"><g fill="none" fill-rule="nonzero" stroke="#181818" stroke-width="8" stroke-linecap="round" stroke-linejoin="round" stroke-miterlimit="10" stroke-dasharray="" stroke-dashoffset="0" font-family="none" font-weight="none" font-size="none" text-anchor="none" style="mix-blend-mode: normal"><path d="M681,432.5c2.35829,0 -1.57184,4.71209 -1,7c0.83216,3.32946 3.18111,6.08977 5,9c8.90154,14.24246 16.98602,17.62275 35,29c15.566,9.83116 51.89477,24.94739 66,32c12.53971,6.26986 24.55157,13.55081 37,20c43.81126,22.6974 85.03562,44.65958 122,78c32.88158,29.65789 58,63.97769 58,109c0,21.05203 -2.39081,41.43975 -16,59c-8.10613,10.45953 -16.20841,21.09855 -26,30c-5.32889,4.84444 -37.86968,19.22986 -42,21c-48.82629,20.92555 -124.35078,20.6082 -176,12c-20.09975,-3.34996 -39.76003,-9.28838 -59,-16c-29.2561,-10.20561 -57.14123,-17.69478 -60,-52"/></g></svg>