<svg version="1.1" xmlns="http://www.w3.org/2000/svg" xmlns:xlink="http://www.w3.org/1999/xlink" width="1104" height="1104"><g fill="none" fill-rule="nonzero" stroke="none" stroke-width="none" stroke-linecap="round" stroke-linejoin="round" stroke-miterlimit="10" stroke-dasharray="" stroke-dashoffset="0" font-family="none" font-weight="none" font-size="none" text-anchor="none" style="mix-blend-mode: normal"><path d="M457.79123,444.42212c-17.82165,19.30796 -35.6433,38.61591 -51.43964,56.35456" stroke-opacity="0.98669" stroke="#001c15" stroke-width="27.34555"/><path d="M422.61201,557.69348c6.63499,-2.94014 11.77948,-5.17419 14.16313,-5.84485c4.5887,-1.29107 -1.05399,3.21159 -12.58259,11.04727" stroke-opacity="0.98669" stroke="#001c15" stroke-width="27.34555"/><path d="M358.08973,605.48351c-0.77987,0.49392 -1.56001,0.98799 -2.34016,1.48207c-41.35754,26.19221 8.81564,96.36938 68.07369,170.91229" stroke-opacity="0.98669" stroke="#001c15" stroke-width="27.34555"/><path d="M664.72955,445.66724c52.28153,41.15682 104.56305,82.31363 97.25366,101.77734c-7.30939,19.46371 -74.20969,17.23431 -73.5166,2.04938c0.69309,-15.18493 68.97958,-43.3254 38.31555,6.1272c-27.98121,45.12597 -138.35589,154.86162 -223.23912,223.38793" stroke-opacity="0.80991" stroke="#2d0000" stroke-width="19.58092"/><path d="M442.25231,823.87387c-60.65031,38.69434 -86.56768,34.02461 -55.24755,-12.10221c7.86123,-11.57765 19.32837,-25.76706 33.63938,-42.01629" stroke-opacity="0.80991" stroke="#2d0000" stroke-width="19.58092"/><path d="M476.75149,709.8287c51.77108,-53.02615 117.5506,-116.19861 183.33011,-179.37106c117.93904,-113.26472 43.46671,-126.01118 -31.00562,-138.75763" stroke-opacity="0.80991" stroke="#2d0000" stroke-width="19.58092"/><path d="M510.33508,702.57422c-63.2077,-117.77759 -89.38412,-202.17316 -82.93842,-227.02441" stroke="#001009" stroke-width="25.03908"/><path d="M339.18805,537.16149c-38.71779,12.17837 -73.1413,30.00062 -86.99704,74.85457c-17.51203,56.69011 -2.16913,156.56063 95.72699,209.46295c29.77563,16.09052 67.1883,27.836 107.62216,35.06257" stroke-opacity="0.86595" stroke="#091900" stroke-width="9.85714"/><path d="M538.67693,864.90748c68.88404,1.87209 137.65776,-8.48121 186.54359,-31.80482c98.95708,-47.21278 116.4219,-147.57245 133.88672,-247.93213c17.46482,-100.35968 -45.14811,-67.92032 -107.76105,-35.48096" stroke-opacity="0.86595" stroke="#091900" stroke-width="9.85714"/><path d="M436.72543,839.23608c5.0273,2.55934 10.05461,5.11867 14.9097,7.71084" stroke-opacity="0.94085" stroke="#001c04" stroke-width="9.85714"/><path d="M477.87923,910.22756c-24.79405,25.31069 -79.33466,56.55035 -96.45965,82.76896c-19.51231,29.87364 9.55005,53.22871 75.83286,65.96625c34.9586,6.71798 80.27072,10.48251 123.397,9.26514" stroke-opacity="0.94085" stroke="#001c04" stroke-width="9.85714"/><path d="M668.55064,1056.27231c4.8459,-1.44812 9.43972,-3.03785 13.74111,-4.77573c55.25325,-22.32374 62.25651,-69.09122 44.55048,-97.12299c-17.70603,-28.03176 -60.12136,-37.3278 -102.53668,-46.62384c-42.41532,-9.29604 -6.39827,-35.24067 29.61877,-61.1853" stroke-opacity="0.94085" stroke="#001c04" stroke-width="9.85714"/><path d="M398.45337,279.65045c11.54975,-14.47684 23.09951,-28.95367 17.32291,-23.13873c-5.7766,5.81494 -28.87956,31.92166 -7.38092,50.25363c21.49864,18.33197 87.59889,28.8892 117.71506,40.8114c30.11617,11.9222 24.24826,25.20937 4.27484,51.44012c-19.97342,26.23075 -54.05234,65.40508 -69.66257,88.69144c-15.61023,23.28636 -12.75176,30.68475 -20.74841,31.30237c-7.99665,0.61762 -26.84842,-5.54554 -14.2746,-18.6012c12.57382,-13.05566 56.57322,-33.00382 76.53867,-48.67435c19.96544,-15.67053 15.89693,-27.06341 14.59094,-31.72952c-1.30599,-4.66611 0.15056,-2.60544 27.12811,-10.28494c26.97756,-7.6795 79.47613,-25.09918 97.79749,-61.4942c18.32136,-36.39502 2.4655,-91.76537 -9.45166,-110.88986c-11.91716,-19.12449 -19.89561,-2.00312 -21.98541,22.62711c-2.08981,24.63023 1.70903,56.76931 5.50787,88.90839c3.79884,32.13908 7.2028,44.54687 10.60675,56.95465" stroke-opacity="0.82869" stroke="#0d2020" stroke-width="23.17094"/><path d="M719.98712,502.311c-30.90161,76.68265 41.75739,70.94992 95.15546,104.3317" stroke-opacity="0.93956" stroke="#ed7a7b" stroke-width="25.145" opacity="0.7"/><path d="M368.10962,809.34241c26.08207,19.78784 52.16414,39.57568 78.24622,59.36353c5.81585,4.41235 11.53099,6.69234 17.16788,7.31545" stroke-opacity="0.28283" stroke="#758c22" stroke-width="9.85714" opacity="0.7"/><path d="M544.53156,443.33023c-11.31514,14.81861 -22.63029,29.63723 -33.94543,44.45584c-11.31514,14.81861 14.30178,-48.83403 39.9187,-112.48666" stroke-opacity="0.30843" stroke="#2eb76d" stroke-width="10.21275" opacity="0.7"/><path d="M332.22751,604.21295c-8.83942,41.9115 16.91895,32.17999 -8.58722,-36.59357" stroke-opacity="0.63255" stroke="#3ca28b" stroke-width="9.85714" opacity="0.7"/><path d="M681.48584,1045.19531c-14.47512,-11.88277 -25.59057,-17.4355 -39.06314,-20.214" stroke-opacity="0.45708" stroke="#451c7b" stroke-width="9.85714" opacity="0.7"/><path d="M436.27893,483.37558c-10.52196,3.7835 -21.04391,7.567 -31.56587,11.35049" stroke-opacity="0.28837" stroke="#c297af" stroke-width="9.85714" opacity="0.7"/><path d="M334.60856,519.87061c-8.94573,2.83879 -8.25666,0.55379 -1.33748,-5.04438" stroke-opacity="0.28837" stroke="#c297af" stroke-width="9.85714" opacity="0.7"/><path d="M398.36291,471.21555c4.82781,-3.07983 9.72049,-6.19415 14.61316,-9.30848" stroke-opacity="0.28837" stroke="#c297af" stroke-width="9.85714" opacity="0.7"/><path d="M464.2258,877.72217c0.05931,0.16042 0.12548,0.32045 0.19836,0.4801" stroke-opacity="0.32865" stroke="#bb9d55" stroke-width="9.85714" opacity="0.7"/><path d="M426.63272,273.12094c22.75742,-13.30529 45.51485,-26.61058 58.48322,-32.19749c12.96837,-5.58692 16.14768,-3.45547 19.327,-1.32402c3.17931,2.13145 -16.31578,17.79947 -35.81088,33.4675" stroke-opacity="0.88273" stroke="#7fac6d" stroke-width="9.85714" opacity="0.7"/><path d="M410.34894,456.80753c-29.41107,-37.3082 17.70554,-82.89542 60.01312,-134.00659" stroke-opacity="0.90833" stroke="#73818a" stroke-width="10.94229" opacity="0.7"/><path d="M483.52689,292.77841c25.56312,-29.61582 51.12625,-59.23165 64.23752,-55.84062c13.11127,3.39103 13.77069,39.7889 14.43011,76.18678c0.65942,36.39788 14.20026,65.51922 27.74109,94.64056" stroke-opacity="0.82107" stroke="#04f1c1" stroke-width="16.65161" opacity="0.7"/><path d="M552.87217,897.05601c10.23814,0.20702 22.0543,0.22241 33.87045,0.23781" stroke-opacity="0.92515" stroke="#4f07f6" stroke-width="9.85714" opacity="0.7"/><path d="M535.90656,848.63495c2.33911,-6.80318 4.67822,-13.60636 7.01733,-20.40955c1.51862,-4.41684 -9.01906,-7.50276 -23.78572,-10.12183" stroke-opacity="0.82009" stroke="#83a733" stroke-width="9.85714" opacity="0.7"/><path d="M288.461,599.70154c14.45627,-3.29074 28.91254,-6.58147 34.13852,-4.15112c5.22598,2.43035 1.22168,10.58178 -2.78262,18.73322c-4.0043,8.15143 -8.72713,50.40222 -13.44995,92.65302" stroke-opacity="0.17662" stroke="#6e6353" stroke-width="9.872" opacity="0.7"/><path d="M477.86653,910.19792c-16.0502,15.33388 -28.92541,37.13389 -35.48793,57.29604" stroke-opacity="0.57732" stroke="#b648e1" stroke-width="14.01171" opacity="0.7"/><path d="M551.89471,407.60901c-2.70679,-36.2739 -25.49011,-59.0217 -53.35135,24.19867" stroke-opacity="0.79307" stroke="#b6222f" stroke-width="29.75514" opacity="0.7"/><path d="M567.30127,927.98336c8.16136,0.79701 16.32271,1.59402 24.48407,2.39103c26.97329,2.63411 5.74009,-0.25905 -15.4931,-3.15222" stroke-opacity="0.09927" stroke="#b7d579" stroke-width="9.95968" opacity="0.7"/><path d="M185.29213,238.321c20.58954,24.82598 41.17908,49.65196 54.79306,73.72752c13.61398,24.07556 20.25238,47.40069 26.89079,70.72583c6.63841,23.32514 -1.87422,69.38005 -10.38684,115.43497" stroke-opacity="0.58129" stroke="#4d3ed3" stroke-width="10.84904" opacity="0.7"/><path d="M202.25832,264.02353c4.29668,-3.78549 8.59336,-7.57098 12.89005,-11.35648c4.29668,-3.78549 18.64401,7.19278 32.99133,18.17105" stroke-opacity="0.04487" stroke="#51e0df" stroke-width="9.85714" opacity="0.7"/><path d="M125.91914,595.52557c-7.46925,6.94049 -14.93851,13.88098 -22.40776,20.82147c-7.46925,6.94049 -17.01579,41.3259 -26.56232,75.7113" stroke-opacity="0.89275" stroke="#ed253a" stroke-width="9.85714" opacity="0.7"/><path d="M237.11555,575.09277c-17.06039,35.42914 31.37029,25.35492 47.24876,65.12994" stroke-opacity="0.24554" stroke="#52dfae" stroke-width="14.20665" opacity="0.7"/><path d="M718.52057,90.98733c20.94197,0.97294 41.88393,1.94588 57.54248,25.95723c15.65855,24.01135 26.03368,71.06111 36.40881,118.11088c10.37513,47.04976 -7.4522,-9.20019 -25.27954,-65.45013" stroke-opacity="0.49859" stroke="#f966ee" stroke-width="9.85714" opacity="0.7"/><path d="M1.15666,74.96246c-7.74124,1.29067 -14.89741,-31.09192 -30.52373,-40.49871" stroke-opacity="0.7666" stroke="#87c659" stroke-width="9.85714" opacity="0.7"/><path d="M249.06453,434.31326c-1.09364,-23.16471 -2.18728,-46.32941 -1.65511,-32.18097c0.53217,14.14844 2.69016,65.61003 4.84814,117.07162c2.15799,51.46159 13.17549,-11.81841 24.19299,-75.09842" stroke-opacity="0.29327" stroke="#855aed" stroke-width="10.5591" opacity="0.7"/></g></svg>