<svg version="1.1" xmlns="http://www.w3.org/2000/svg" xmlns:xlink="http://www.w3.org/1999/xlink" width="1104" height="1104"><g fill="none" fill-rule="nonzero" stroke="#000000" stroke-width="16.33765" stroke-linecap="round" stroke-linejoin="round" stroke-miterlimit="4" stroke-dasharray="" stroke-dashoffset="0" font-family="none" font-weight="none" font-size="none" text-anchor="none" style="mix-blend-mode: normal"><path d="M127.19786,610.26483c1.06369,10.63925 74.47838,42.55909 437.29432,41.49505c362.81593,-1.06369 390.47928,-19.15164 425.59044,-25.53552" id="path933-8-2 1"/><path d="M543.21261,648.56787c8.51184,-27.66337 9.5761,-30.85525 9.5761,-30.85525" id="path935-7-9 1"/><path d="M542.02709,650.53604c2.77877,-15.30674 5.97595,-25.44852 9.6037,-28.86c3.62885,-3.41136 445.35551,-4.47562 447.03402,-38.29831" id="path176-2-1 1"/><path d="M156.69512,706.3008c33.18458,85.50977 106.5158,163.23328 162.47739,162.54553c55.96143,-0.6879 441.8332,-3.34622 482.22209,-1.4363c40.38907,1.90992 153.95298,-53.89927 155.67002,-142.12967" id="path325-0-9 1"/><path d="M248.35385,794.26047c14.32606,19.45138 45.80021,38.87626 78.48943,37.23108c32.689,-1.64496 57.41794,-16.45998 62.09006,-29.61955" id="path545-3-4 1"/><path d="M319.03796,829.62051c0.52547,-62.67706 5.27933,-123.7111 1.2707,-129.63518c-4.00862,-5.92406 -8.15966,-1.1581 -12.11673,-14.20009c-3.95784,-13.04177 3.91699,-27.69218 11.75031,-24.01388c7.83288,3.67853 18.77065,9.70195 10.31026,24.86363c-8.45995,15.16223 -8.96779,7.77547 -8.28662,11.18352" id="path547-7-7 1"/><path d="M291.38018,694.12558c19.95348,0.29459 32.83462,1.98058 48.72868,2.82293" id="path549-5-8 1"/><path d="M125.06997,611.32884c14.89561,63.83858 12.76776,81.92618 24.47148,91.50184c11.70372,9.5761 212.79529,31.91929 416.01476,29.79144c203.21946,-2.12851 391.54315,-11.70372 402.183,-22.34341c10.63925,-10.64035 21.27938,-72.35053 31.91929,-125.54933" id="path939-9-3 1"/></g></svg>