<svg version="1.1" xmlns="http://www.w3.org/2000/svg" xmlns:xlink="http://www.w3.org/1999/xlink" width="1104" height="1104"><g fill="none" fill-rule="nonzero" stroke="#181818" stroke-width="8" stroke-linecap="round" stroke-linejoin="round" stroke-miterlimit="10" stroke-dasharray="" stroke-dashoffset="0" font-family="none" font-weight="none" font-size="none" text-anchor="none" style="mix-blend-mode: normal"><path d="M311.66666,167c2.02857,0 -0.21705,-4.37708 1,-6c4.27988,-5.70714 10.75394,-9.5539 17,-13c4.84045,-2.67059 47.1992,-20.6997 48,-21c53.61056,-20.10396 108.42715,-23 165,-23c36.25594,0 52.09376,-4.35624 85,11c62.07767,28.96958 119.05629,106.60706 141,170c11.73674,33.90613 16.96208,68.73454 22,104c1.08152,7.57061 -1.25868,23.06204 8,28c2.64706,1.41176 6,0 9,0c4.66667,0 9.44938,1.03423 14,0c3.06646,-0.69692 5.04123,-3.93484 8,-5c13.09754,-4.71511 26.51387,-8.55006 40,-12c31.62536,-8.09021 66.64119,-6 99,-6"/><path d="M972.66666,703c5.00102,0 -0.29352,10.0076 0,15c1.20499,20.49509 3.73376,26.60225 8,49c7.66659,40.24962 8,83.1178 8,124c0,14.2709 3.52368,35.1908 -2,49c-15.15915,37.89788 -87.50623,32 -118,32c-12.66667,0 -25.41081,1.3988 -38,0c-53.17157,-5.90795 -99.26022,-35.26022 -136,-72c-18.88572,-18.88572 -36.00063,-35.70747 -46,-61c-11.03153,-27.90327 -12,-57.50663 -12,-87"/><path d="M344.66666,567c1.66867,0 -3.33421,-0.09798 -5,0c-4.00694,0.23569 -7.99168,0.78904 -12,1c-7.02196,0.36958 -13.98499,1.51621 -21,2c-20.78396,1.43338 -42.16747,0 -63,0c-7.00154,0 -22.41053,-1.21202 -27,6c-8.99329,14.13232 8.1243,32.20716 14,42c3.98896,6.64826 5.904,14.41715 10,21c5.28302,8.49057 12.40143,15.71411 18,24c4.51371,6.6803 7.72701,14.16322 12,21"/></g></svg>