<svg version="1.1" xmlns="http://www.w3.org/2000/svg" xmlns:xlink="http://www.w3.org/1999/xlink" width="1190" height="1190"><g fill="none" fill-rule="nonzero" stroke="#181818" stroke-width="8" stroke-linecap="round" stroke-linejoin="round" stroke-miterlimit="10" stroke-dasharray="" stroke-dashoffset="0" font-family="none" font-weight="none" font-size="none" text-anchor="none" style="mix-blend-mode: normal"><path d="M659,482c1.9455,0 -3.25986,-2.13002 -5,-3c-1.60558,-0.80271 -3.35008,-1.29289 -5,-2c-5.35073,-2.29317 -10.71992,-4.54854 -16,-7c-9.75005,-4.52681 -18.72628,-10.56368 -28,-16c-40.67018,-23.84114 -74.3968,-43.04651 -95,-87c-1.87071,-3.99085 -15.14514,-33.45309 -8,-38c11.41085,-7.26145 47.11862,-1.48717 58,1c31.67225,7.23937 77.62219,24.82959 98,52c20.76557,27.68743 25.88837,69.20169 57,89c9.53934,6.07049 22.11563,6 33,6"/></g></svg>