<svg version="1.1" xmlns="http://www.w3.org/2000/svg" xmlns:xlink="http://www.w3.org/1999/xlink" width="1729" height="1729"><g fill="none" fill-rule="nonzero" stroke="none" stroke-width="none" stroke-linecap="round" stroke-linejoin="round" stroke-miterlimit="10" stroke-dasharray="" stroke-dashoffset="0" font-family="none" font-weight="none" font-size="none" text-anchor="none" style="mix-blend-mode: normal"><path d="M61.80226,43.71316c2.2976,0.64353 1.68369,0.21302 0.49505,0.07598c0.58765,1.76638 1.60813,3.53698 3.53041,5.71966c-1.83985,1.55532 -1.42544,4.68428 -0.61566,7.33765c-1.83614,2.8204 -2.34994,4.50431 -2.26972,6.17169c-1.46132,4.42079 -1.095,7.46368 -1.39961,11.4108c3.08372,-3.09035 5.61123,-1.48782 2.1579,10.64684" stroke-opacity="0.43839" stroke="#843d32" stroke-width="2.73489"/><path d="M679,808c21.19098,0 -15.99499,-39.40856 -21,-60c-6.70442,-27.58312 -19.85738,-56.22467 -14,-84c13.57787,-64.38538 101.63709,-97.43752 151,-109c101.57499,-23.79234 156.96382,-1.05278 250,46c16.00742,8.0957 27.56203,23.07426 40,36c7.54885,7.84489 10.24289,22.37856 17,19c19.515,-9.7575 11.31783,-28.2082 1,-40" stroke="#181818" stroke-width="8"/></g></svg>