<svg version="1.1" xmlns="http://www.w3.org/2000/svg" xmlns:xlink="http://www.w3.org/1999/xlink" width="956" height="956"><g fill="none" fill-rule="nonzero" stroke="none" stroke-width="none" stroke-linecap="round" stroke-linejoin="round" stroke-miterlimit="4" stroke-dasharray="" stroke-dashoffset="0" font-family="none" font-weight="none" font-size="none" text-anchor="none" style="mix-blend-mode: normal"><path d="M452.99294,209.21596c-13.85473,18.92775 -95.8356,34.48311 -103.5583,39.86338c-7.60402,5.2972 -17.80588,54.90442 -8.63937,63.09963c9.16613,8.19483 44.56948,-10.01114 67.94359,9.92519c55.73853,47.54102 71.13663,99.60098 142.65311,-7.09543c6.50654,-6.7312 60.30486,12.82311 65.12951,6.27805c4.82302,-6.54382 15.51903,-51.37286 -1.19213,-60.81431c-16.70744,-9.44146 -100.66856,-34.26964 -107.40089,-47.36894c-6.7312,-13.09921 2.68923,-33.22626 -25.8511,-33.88389c-28.54367,-0.65746 -21.94431,8.22256 -24.2955,21.94871" id="path25603-0 1" stroke="#f0d3a7" stroke-width="30.91857"/><path d="M479.22376,217.52168c-1.26479,24.95791 -108.0888,35.41492 -96.73332,68.37226c85.52089,9.24739 83.91672,118.48791 162.35001,31.98432c8.77608,-9.83227 36.72818,-24.18451 34.39162,-27.548c-2.33455,-3.36321 -99.76045,-50.59391 -96.68957,-56.59826" id="path25656-6 1" stroke="#f0d3a7" stroke-width="67.78126"/><path d="M476.62158,294.51332c-27.84962,19.48271 -15.66884,82.60777 -9.62797,83.18988c6.0381,0.58286 21.11823,-67.29227 21.7447,-76.96593c0.62797,-9.67376 -42.88874,3.85746 -41.99259,9.91821" id="path25660-5 1" stroke="#f0d3a7" stroke-width="121.53915"/><path d="M316.52402,285.74037c-3.38233,19.97352 -3.46168,40.06271 0.95982,39.57773c4.4215,-0.48536 -1.4254,-24.06051 5.80961,-24.91021c7.23405,-0.84976 3.44638,22.7636 7.85736,20.28135c4.41003,-2.48178 -0.70961,-19.67601 8.40133,-13.27148c9.11164,6.40424 9.10112,17.54681 18.78138,9.54279c9.68093,-8.00363 10.41935,-8.66518 13.56516,-5.83447" id="path27328-4 1" stroke="#0071d1" stroke-width="24.77484"/><path d="M369.80205,336.07476c70.41332,-6.54669 63.37209,-6.73693 83.08854,10.84267c14.01725,12.49827 103.79859,78.69486 99.51552,89.65282c-4.28288,10.95815 -6.69104,20.90743 -45.92624,17.08305c-39.23529,-3.824 -100.22397,-3.03052 -102.92379,-12.22619c-2.69974,-9.19576 -25.81831,-92.90561 -21.97691,-92.58248c3.84121,0.32332 48.26854,4.18728 60.38507,14.33207c12.11663,10.14469 91.05518,65.64116 87.25336,69.52434c-3.80201,3.88327 -99.74991,5.49604 -105.61877,-0.32178c-5.86888,-5.81726 -28.38622,-52.20706 -20.01061,-59.84617c8.37552,-7.6394 89.74574,49.29815 87.78145,49.29815c-1.96458,0 -45.60569,0.2158 -52.60916,-2.96551c-7.00366,-3.18157 -15.07975,-17.20351 -12.59511,-23.42152c2.48464,-6.21782 16.67417,17.47166 22.08054,14.89725" id="path27330-7 1" stroke="#0071d1" stroke-width="24.77484"/><path d="M501.62586,351.55988c28.70227,-22.95385 52.56662,-28.61557 68.11921,-23.9934c23.38883,6.95108 -0.1152,84.6191 -3.97122,86.6702c-3.82018,2.0315 -44.47006,-45.67768 -46.91188,-51.05317c-2.44162,-5.37559 35.698,-28.70141 37.07368,-22.05349c1.37568,6.64802 5.03908,44.33221 1.20265,42.15664c-3.83643,-2.17586 -26.40271,-15.87887 -18.13475,-22.78368c8.26749,-6.90519 6.30291,-3.52764 7.7197,1.64241" id="path27332-6 1" stroke="#0071d1" stroke-width="24.77484"/><path d="M594.0264,306.50516c40.91298,-21.66258 50.84782,-35.99608 48.36089,-29.284c-2.48751,6.71208 -8.14894,17.81678 -12.30563,20.52551c-4.15669,2.70835 -0.02304,15.12363 -8.23881,16.13871c-8.21778,1.01527 -25.65072,1.50379 -20.31156,-3.08979c5.33926,-4.59454 12.29626,-0.3356 17.68103,-6.3899" id="path27334-5 1" stroke="#0071d1" stroke-width="24.77484"/><path d="M401.82488,470.12254c50.22365,5.08783 82.58425,7.60402 101.5293,6.11553c18.94515,-1.48754 47.81606,-2.1663 56.58832,-6.58015" id="path27336-6 1" stroke="#0071d1" stroke-width="24.77484"/><path d="M321.6226,262.49298c3.89283,14.54458 4.14522,34.95834 47.23089,41.62443c43.08616,6.66523 53.37071,5.18152 74.31762,17.7859c20.94672,12.60429 112.14008,92.01854 120.40477,106.59045c18.77508,33.10418 -14.56657,35.92543 -55.47123,37.8402c-40.67034,1.89957 -110.97304,-9.22922 -117.01922,-11.92065c-6.04766,-2.68923 -24.48756,-107.19228 -30.14947,-123.85865" id="path553-6-9 1" stroke="#00095e" stroke-width="13.70837"/><path d="M324.20591,258.0451c-10.36572,11.98336 -24.16921,30.9939 -22.80366,37.27779c1.37186,6.28379 -2.96551,20.0194 3.78385,21.66181c6.74936,1.64336 1.49232,21.96993 8.24932,23.67687c6.75605,1.70646 33.17855,-11.64456 69.98952,-19.56731c36.81116,-7.92237 38.07777,-6.2293 51.43165,-0.97225" id="path555-0-3 1" stroke="#00095e" stroke-width="13.70837"/><path d="M482.15002,349.14046c19.28491,-17.02703 34.7636,-35.50211 60.96183,-38.605c26.19813,-3.10222 52.54922,4.27714 54.20386,26.2357c1.65866,21.95884 -24.62885,101.66931 -28.49454,113.82065" id="path557-6-7 1" stroke="#00095e" stroke-width="13.70837"/><path d="M570.56943,308.80071c60.5648,-34.86465 63.15107,-33.83609 72.01041,-42.67517" id="path559-2-4 1" stroke="#00095e" stroke-width="13.70837"/><path d="M641.77772,264.88605c12.78143,5.16527 28.93019,-4.21596 19.31302,11.60622c-9.61793,15.82256 -10.74974,7.48261 -11.01092,21.31918c-0.26032,13.83714 -10.71733,2.05062 -12.10181,15.95373c-1.38524,13.90502 -10.11467,21.94278 -44.03202,12.78822" id="path561-6-5 1" stroke="#00095e" stroke-width="13.70837"/><path d="M387.94251,452.76366c7.61645,31.83843 4.12227,31.60976 13.05189,33.98656c8.93191,2.37566 152.04598,3.67964 161.76281,-4.69492c16.10764,-13.88131 10.39698,-20.49827 3.12421,-28.5452" id="path563-1-2 1" stroke="#00095e" stroke-width="13.70837"/></g></svg>