<svg version="1.1" xmlns="http://www.w3.org/2000/svg" xmlns:xlink="http://www.w3.org/1999/xlink" width="1471" height="1471"><g fill="none" fill-rule="nonzero" stroke="#181818" stroke-width="8" stroke-linecap="round" stroke-linejoin="round" stroke-miterlimit="10" stroke-dasharray="" stroke-dashoffset="0" font-family="none" font-weight="none" font-size="none" text-anchor="none" style="mix-blend-mode: normal"><path d="M770,289.5c4.01489,0 -0.68224,-8.35453 1,-12c0.71216,-1.54328 3.33806,-1.35613 5,-1c13.35501,2.86179 35.7072,11.94682 50,16c46.2381,13.1123 92.69736,25.13816 139,38c69.28258,19.24516 77.19472,18.49705 133,40c15.95012,6.14592 77.12061,29.87237 99,43c17.77369,10.66421 37.55349,25.94973 49,44c25.09705,39.57613 -1.53069,106.3028 -31,137c-4.62236,4.81496 -27.04031,19.60577 -31,22c-48.93559,29.58896 -106.95067,43.47911 -162,57c-25.27831,6.20871 -78.34776,10.81731 -96,32"/><path d="M643,194.5c2.86904,0 -3.43632,4.59453 -5,7c-2.77311,4.266 -5.5055,8.56533 -8,13c-4.56782,8.12058 -14.81928,28.35985 -19,37c-17.80238,36.79158 -34.18482,83.50714 -19,124c8.74586,23.32228 28.33837,42.28494 47,58c4.81077,4.05118 11.04386,6.12802 16,10c10.03523,7.84002 18.42574,17.68016 27,27c11.94573,12.98449 26.62449,27.39181 29,46c4.318,33.82432 6.4989,35.40485 0,64c-8.73243,38.42269 -32.4599,73.10362 -56,104c-4.44448,5.83338 -9.85114,10.77671 -14,17c-13.37412,20.06118 -25.16763,40.33526 -36,62c-2.64033,5.28066 -7,12.88736 -7,19c0,3.90157 2.92816,7.24855 4,11c3.76563,13.17969 -1.3603,22.00295 -11,31c-27.01044,25.20974 -84.16259,28 -119,28"/><path d="M286,637.5c1.66931,0 -6.54987,0.62007 -5,0c22.9366,-9.17648 64.34201,-4.62867 88,-2c54.2103,6.02337 105.14065,22.40786 152,51c21.8619,13.33946 50.50617,29.22397 65,52c15.2972,24.03845 -24.88383,41.69774 -40,51c-7.87226,4.84447 -11.52859,14.47141 -4,22c15.59807,15.59807 35.63212,22.50594 55,32c26.79883,13.13668 53.08612,25.26389 81,36c49.79171,19.15066 98.92405,39.63882 149,58c12.86221,4.71615 26.07113,8.4749 39,13c5.57507,1.95127 11.12577,5.61834 17,5c7.73899,-0.81463 15.22321,-3.72226 23,-4c11.65923,-0.4164 23.33333,0 35,0"/></g></svg>