<svg version="1.1" xmlns="http://www.w3.org/2000/svg" xmlns:xlink="http://www.w3.org/1999/xlink" width="925" height="925"><g fill="none" fill-rule="nonzero" stroke="#181818" stroke-width="8" stroke-linecap="round" stroke-linejoin="round" stroke-miterlimit="10" stroke-dasharray="" stroke-dashoffset="0" font-family="none" font-weight="none" font-size="none" text-anchor="none" style="mix-blend-mode: normal"><path d="M209.5,427.83333c2.1361,0 -3.32435,-2.97357 -4,-5c-1.68693,-5.05952 0,-10.66667 0,-16c0,-14.2474 -2.38708,-25.62612 7,-38c29.10955,-38.37168 77.43619,-38.03934 121,-35c18.39738,1.28354 37.38252,0.54697 55,6c9.68077,2.99643 63.67593,47.7853 66,50c16.90044,16.10513 32.20402,33.81026 48,51c16.76313,18.24223 30.92731,42.96802 59,42c20.88108,-0.72004 27.82443,-16.64172 41,-34c27.12111,-35.73099 51.49689,-75.57763 73,-115"/><path d="M317.5,504.83333c2.35825,0 -1.29236,4.65994 -1,7c0.39204,3.13788 2.13126,5.95939 3,9c3.58485,12.54697 1.3637,38.22728 18,41c37.4914,6.24857 71.50549,-7.89463 105,-23c23.74553,-10.70877 47.01192,-28.43113 73,-34c25.60575,-5.48695 44.58282,15.59458 64,28c33.87113,21.63989 72.49788,30.17842 112,33"/></g></svg>