<svg version="1.1" xmlns="http://www.w3.org/2000/svg" xmlns:xlink="http://www.w3.org/1999/xlink" width="999" height="999"><g fill="none" fill-rule="nonzero" stroke="none" stroke-width="none" stroke-linecap="round" stroke-linejoin="round" stroke-miterlimit="10" stroke-dasharray="" stroke-dashoffset="0" font-family="none" font-weight="none" font-size="none" text-anchor="none" style="mix-blend-mode: normal"><path d="M551.58895,376.91657c1.56427,-0.05788 2.70811,-2.64026 4.54346,-3.08654c5.59022,-0.66252 11.49481,-0.22249 17.13308,0.77126c22.68645,3.92641 49.52403,30.94146 55.63361,53.83508" stroke="#171817" stroke-width="8.91964"/><path d="M531.71957,461.71582c-0.75775,-0.00561 -1.51341,-0.01153 -2.26688,-0.0177" stroke="#171817" stroke-width="8.91964"/><path d="M630.40416,325.11752c2.92022,0.02647 -2.06795,-0.00177 -3.74923,-0.11542c-5.64569,0.21702 -8.96619,0.28105 -10.00445,0.57214c-13.32182,-0.05931 -24.80966,-0.308 -36.30812,-0.84928c-27.99958,-0.34665 -53.69874,0.17979 -82.92042,0.58827c-10.55666,-0.1341 -26.91933,-2.31845 -29.2867,11.6366c-1.7627,19.58542 0.73601,40.46388 -2.22974,60.2474c-0.21841,2.56288 -0.44277,5.13498 -0.66971,7.71516" stroke="#171718" stroke-width="8.91964"/><path d="M462.01812,444.76065c-1.46414,23.27688 -1.78389,46.72733 1.38017,69.55582c1.63684,11.2681 3.98771,22.49686 5.46334,33.84754c0.19139,3.42636 0.01177,15.88907 3.20601,19.56667c5.02431,3.05493 36.98587,1.4203 43.41102,-0.01647c18.83131,-0.01477 37.39527,-3.11043 56.13359,-4.52995c17.83234,-1.17818 36.07341,-1.00999 53.93018,-0.93115" stroke="#171718" stroke-width="8.91964"/><path d="M728.12281,382.5353c1.23609,-0.03477 -3.53112,4.55166 -4.1459,7.01876c-0.65765,1.90871 -0.93081,3.9395 -0.96681,5.9951c-0.68941,8.53479 -0.48356,16.41133 -1.77804,24.824" stroke="#171718" stroke-width="8.91964"/><path d="M718.87305,460.60443c0.08196,11.91121 0.56945,23.84661 0.70296,35.8406c-1.7477,6.31348 -3.36501,17.59297 3.72398,20.42439c17.4173,9.16415 34.32496,-0.02474 44.26898,-11.91496c12.75829,-13.92264 19.06454,-29.40988 22.13175,-45.77144" stroke="#171718" stroke-width="8.91964"/><path d="M792.48892,418.84303c-0.00034,-0.11399 -0.00072,-0.22799 -0.00112,-0.34201" stroke="#171718" stroke-width="8.91964"/><path d="M468.53651,388.98093c4.60828,-46.18327 25.85201,16.59718 83.69379,21.31233c20.81906,-32.7232 -4.5601,-22.3284 11.33006,-10.42984" stroke-opacity="0.51221" stroke="#309215" stroke-width="13.73713" opacity="0.5"/><path d="M786.10256,418.8779c-15.07662,-35.48068 -27.44924,-38.92092 -66.73526,-77.03047" stroke-opacity="0.62119" stroke="#368924" stroke-width="12.73176" opacity="0.5"/><path d="M455.6364,505.39652c-0.70272,-12.22633 -8.49803,-34.64368 -11.59646,-65.35318" stroke="#6ddf8f" stroke-width="8.91964"/><path d="M443.35178,399.03164c0.44936,-6.41711 1.18158,-13.05967 2.25778,-19.91782" stroke="#6ddf8f" stroke-width="8.91964"/><path d="M571.48882,426.62132c-12.61725,-3.54472 -16.9,-4.41143 -4.853,-0.42196" stroke-opacity="0.10731" stroke="#901628" stroke-width="8.91964" opacity="0.5"/><path d="M641.8145,468.08151c2.33539,11.61806 2.90512,26.04559 4.10308,42.12887c-54.98906,7.37739 -38.62983,37.98688 -45.48812,79.87865" stroke-opacity="0.21" stroke="#80b92e" stroke-width="10.39469" opacity="0.5"/><path d="M601.09238,428.26044c9.1694,-28.60152 48.44185,-32.2709 79.58128,-2.16627" stroke="#2113e8" stroke-width="11.45695"/><path d="M662.92204,427.47205c-7.86257,-1.55836 -13.54898,-1.20775 -17.51702,0.58439" stroke="#2113e8" stroke-width="11.45695"/><path d="M642.88099,468.06071c0.95897,2.80575 2.00033,5.63185 3.08198,8.43534c-0.81687,-5.64491 13.25291,-3.93278 19.85454,-9.10444" stroke="#2113e8" stroke-width="11.45695"/><path d="M456.99753,329.22681c13.18815,33.1679 19.09299,60.70496 14.92092,77.51093" stroke-opacity="0.87173" stroke="#682337" stroke-width="8.91964" opacity="0.5"/><path d="M602.13438,428.29252c-9.56228,-35.80708 -23.24941,-77.81437 -33.32334,-99.18296" stroke-opacity="0.57814" stroke="#7c6310" stroke-width="12.52644" opacity="0.5"/><path d="" stroke-opacity="0.12548" stroke="#9beb3d" stroke-width="9.57828" opacity="0.5"/><path d="M458.41719,347.08249c28.13503,-6.48095 35.49824,18.60959 42.71952,11.60662c32.01468,4.34294 -1.55263,-37.49442 27.03879,-28.41836c15.22111,-42.93446 51.05681,-54.97458 8.61555,-86.93734" stroke-opacity="0.55027" stroke="#8c8d87" stroke-width="12.67616" opacity="0.5"/><path d="M479.28623,548.15725c-4.93958,-5.99374 -48.47779,5.83654 -69.98175,-24.40915" stroke-opacity="0.56551" stroke="#3a5c1d" stroke-width="9.16613" opacity="0.5"/><path d="M642.18298,335.90667c37.36883,-42.85671 18.08543,-96.15782 -12.23423,-53.96c25.19667,-31.53398 -14.02017,13.38533 21.51488,48.37145" stroke-opacity="0.67694" stroke="#84716c" stroke-width="10.25224" opacity="0.5"/><path d="M479.10062,343.26549c35.67592,-39.27363 0.59967,-69.51707 -47.72576,-80.99059c16.14613,-10.31482 60.08959,-10.33972 51.8146,-37.90989c9.9137,-6.6904 -24.83709,-3.27671 -58.56673,-9.46632" stroke-opacity="0.50441" stroke="#78473a" stroke-width="9.42306" opacity="0.5"/><path d="M634.35393,554.15915c-56.36615,45.52467 -91.96582,7.987 -140.35559,7.52687c-11.90397,0.15574 11.84422,-18.65635 30.1153,29.99256" stroke-opacity="0.5743" stroke="#b8a9d4" stroke-width="8.91964" opacity="0.5"/><path d="M547.11211,375.12671c8.54631,11.61234 -18.31806,-38.72561 -23.41263,-60.01898c-6.49932,33.66217 -37.39115,29.49882 -73.68825,28.11737" stroke-opacity="0.24976" stroke="#b79114" stroke-width="8.91964" opacity="0.5"/><path d="" stroke-opacity="0.91063" stroke="#c232ff" stroke-width="8.96858" opacity="0.5"/><path d="M419.39151,219.38992c-6.4439,46.05498 -2.91111,41.81215 -22.69898,92.64793c-8.35662,-59.27098 44.14788,-18.01765 9.66886,-40.47853c-47.52433,15.51119 -94.2778,30.74833 -103.32824,23.86179" stroke-opacity="0.68909" stroke="#4d1366" stroke-width="12.55073" opacity="0.5"/><path d="M662.9723,328.39736c-10.53246,-45.05453 -45.85832,-76.58782 -57.99952,-90.21689c37.14243,-17.894 81.83054,-39.55456 54.60171,-55.20205" stroke-opacity="0.19869" stroke="#ff9dfc" stroke-width="13.79967" opacity="0.5"/><path d="M445.87234,335.59493c16.39448,40.24363 -12.40238,-0.33869 19.24292,-18.74757" stroke-opacity="0.27735" stroke="#29c10f" stroke-width="8.91964" opacity="0.5"/><path d="M524.2133,590.87877c2.46067,-18.68877 34.11611,19.03468 63.30679,-25.80679c-5.87849,21.78032 -23.40967,-15.08603 15.6106,-4.20476c-9.95423,-6.73835 -51.69115,36.1762 -62.26019,77.08534" stroke-opacity="0.29694" stroke="#347390" stroke-width="8.94102" opacity="0.5"/><path d="M373.5028,698.44107c-6.30456,31.24434 -19.07837,-4.65799 -44.06357,-55.69789c-12.1313,-43.50204 -15.1518,-76.03024 7.88842,-72.66768c-22.127,21.40083 -13.17279,-3.82851 -35.41137,-6.7244" stroke-opacity="0.9" stroke="#5bc1af" stroke-width="8.91964" opacity="0.5"/><path d="M364.02496,304.72824c5.61367,41.45253 8.52474,53.47447 60.71372,51.62956" stroke-opacity="0.27138" stroke="#47fe0e" stroke-width="13.42253" opacity="0.5"/><path d="M838.01757,111.68293c17.53367,-23.69834 -32.9838,-63.34045 -25.54401,-74.86262c2.41773,-10.40022 28.96012,-16.71539 52.12369,19.14091c-20.68697,-17.54868 -19.4632,-20.06609 14.51572,-1.74897" stroke-opacity="0.44025" stroke="#0aa9ab" stroke-width="11.40611" opacity="0.5"/><path d="M616.70009,848.08374c-36.9233,38.63527 -75.26813,41.16223 -58.35359,61.10954c-52.38017,25.02151 -84.21064,37.91828 -36.34742,-5.36974c-2.18666,-45.07539 -41.08846,-81.91009 -33.89188,-111.28077" stroke-opacity="0.41409" stroke="#b73ef0" stroke-width="8.91964" opacity="0.5"/><path d="M98.9664,873.26272c-38.65339,5.63738 -67.32142,30.99214 -18.76275,56.57432c-24.63094,-26.6527 -17.57896,-60.78657 -40.77415,-33.96286" stroke-opacity="0.88761" stroke="#f55c38" stroke-width="8.91964" opacity="0.5"/><path d="M384.74436,119.04334c5.87641,-0.50245 17.9612,-7.78615 -28.75202,-7.90482c-4.54965,43.54721 9.3729,2.45998 9.95995,-15.28232" stroke-opacity="0.71664" stroke="#aa7694" stroke-width="12.77007" opacity="0.5"/><path d="M729.95135,180.30665c1.04575,18.12522 -9.77757,-38.90601 0.82934,17.52443" stroke-opacity="0.97551" stroke="#cca90a" stroke-width="11.15986" opacity="0.5"/><path d="M563.3591,964.39732c19.2342,-23.37663 -17.25411,-4.94605 -8.29983,33.81927c-4.92053,-55.10073 -53.41432,-93.88749 -77.26649,-127.50771" stroke-opacity="0.49099" stroke="#21006d" stroke-width="8.91964" opacity="0.5"/><path d="M836.10246,309.57667c34.60254,30.39332 11.93494,55.89445 64.52716,69.15564" stroke-opacity="0.57879" stroke="#cf1333" stroke-width="9.42374" opacity="0.5"/><path d="M416.37339,59.43677c17.70237,-30.79591 13.21475,3.66485 3.93127,-4.99833c36.91197,25.38856 42.24809,64.01241 99.91566,34.39233c39.51177,-0.24737 12.28792,30.91329 30.94882,74.21738" stroke-opacity="0.72099" stroke="#c91bff" stroke-width="9.19509" opacity="0.5"/><path d="M359.22056,931.01345c-20.11704,-7.69655 8.99042,35.7652 27.14607,10.54403" stroke-opacity="0.09227" stroke="#00c8cf" stroke-width="12.00803" opacity="0.5"/><path d="M267.92281,720.45729c-9.39726,41.45594 10.48341,75.12508 14.52731,77.42325c48.45631,-46.67664 67.29309,-26.82732 29.40292,-61.24109" stroke-opacity="0" stroke="#aa3728" stroke-width="8.91964" opacity="0.5"/><path d="M971.22962,741.64566c-43.93757,-22.98418 -24.12078,18.22704 -14.76805,40.92452c-26.62371,-13.14312 -9.84269,-21.53979 18.22997,33.62872" stroke-opacity="0.03936" stroke="#681148" stroke-width="8.94569" opacity="0.5"/><path d="M95.52573,360.37349c15.16439,-22.47417 1.1526,-57.38682 50.10819,-105.59542c5.44408,-17.11393 42.68418,-25.82724 7.44546,8.31509" stroke-opacity="0.90846" stroke="#d57792" stroke-width="10.93722" opacity="0.5"/><path d="M520.09823,190.4493c-33.91832,-19.73887 -90.04425,5.74472 -107.63906,48.88792c44.10603,20.6093 26.3135,-29.24716 82.68424,-33.80663c33.65867,-29.25645 60.94904,-17.20156 94.83191,5.45388" stroke-opacity="0.8889" stroke="#3c50bf" stroke-width="14.06629" opacity="0.5"/><path d="M519.86614,579.78815c-0.76429,35.78344 -20.80395,48.21944 -39.6144,15.5203c28.21894,0.76742 -16.54893,19.27109 -35.76357,-13.49209" stroke-opacity="0.41483" stroke="#86c1ad" stroke-width="10.99425" opacity="0.5"/><path d="M937.03798,591.18289c35.67884,-11.9955 78.77271,38.84249 52.447,34.66583" stroke-opacity="0.28592" stroke="#29e09d" stroke-width="11.10972" opacity="0.5"/><path d="M878.76808,13.14025c14.06216,-7.99995 44.69042,20.19767 6.78296,8.49151c-13.81288,-22.35662 -49.65696,-24.01242 -66.76101,-38.76638" stroke-opacity="0.51532" stroke="#3acb09" stroke-width="8.91964" opacity="0.5"/><path d="M917.71673,496.50488c-24.0973,43.09948 -23.2261,-5.87516 -1.64964,-29.41362" stroke-opacity="0.51689" stroke="#358af9" stroke-width="9.39326" opacity="0.5"/><path d="M527.94936,938.63855c-34.8381,-48.0323 -66.00918,-95.99879 -75.54432,-147.09183c-35.58772,-2.2033 -60.22957,-33.54455 -33.81226,-4.65799" stroke-opacity="0.58044" stroke="#10e4a2" stroke-width="8.91964" opacity="0.5"/><path d="M680.62227,102.36897c-31.54676,36.61094 6.69545,60.34412 27.35921,6.9241" stroke-opacity="0.67349" stroke="#ff6321" stroke-width="9.31035" opacity="0.5"/></g></svg>