<svg version="1.1" xmlns="http://www.w3.org/2000/svg" xmlns:xlink="http://www.w3.org/1999/xlink" width="956" height="956"><g fill="none" fill-rule="nonzero" stroke="none" stroke-width="none" stroke-linecap="round" stroke-linejoin="round" stroke-miterlimit="4" stroke-dasharray="" stroke-dashoffset="0" font-family="none" font-weight="none" font-size="none" text-anchor="none" style="mix-blend-mode: normal"><path d="M455.03485,456.97672c17.59508,127.13017 14.57489,185.42923 18.9309,268.43067" id="path6204-9 1" stroke="#6b6b6b" stroke-width="28.68"/><path d="M303.32468,675.44748c59.5436,-37.24423 89.15015,-43.90134 162.83682,-78.45395c47.35584,6.70252 146.59328,5.17578 177.7785,-3.68634" id="path6701-0 1" stroke="#6b6b6b" stroke-width="28.68"/><path d="M322.14634,529.51207c-13.60464,82.60003 -26.95174,164.50221 -40.25544,246.28644" id="path6089 1" stroke="#939393" stroke-width="28.68"/><path d="M537.30429,535.69372c17.59508,127.13017 14.57489,185.42923 18.9309,268.43067" id="path6204 1" stroke="#939393" stroke-width="28.68"/><path d="M640.06259,464.25297c7.06484,99.72959 12.87321,182.3853 18.9309,268.43067" id="path6204-3 1" stroke="#939393" stroke-width="28.68"/><path d="M303.32468,675.44748c77.17281,18.88941 161.36777,8.62886 245.10626,0.26305c47.20068,-20.64922 78.26485,-38.11467 101.97199,-61.78724" id="path6701 1" stroke="#939393" stroke-width="28.68"/><path d="M568.13352,535.20602c3.23224,6.51036 104.49435,-86.35682 84.52713,-118.42575c-15.12153,-24.28642 -177.6226,-33.13047 -235.04944,-6.74171c-48.40945,22.24488 -141.19132,74.53272 -127.6169,107.34953c13.57444,32.8168 280.84965,20.47714 278.13918,17.81821" id="path4651 1" stroke="#88201c" stroke-width="28.68"/><path d="M596.91833,432.32983c-42.87029,-5.46545 -87.63375,-7.22545 -131.91583,-9.92749c-27.50202,7.20155 -102.61752,61.29834 -120.11538,74.59945c55.96768,3.38233 180.27487,-50.75633 224.73194,-23.21885" id="path7896 1" stroke="#f00000" stroke-width="95.6"/><path d="M349.08599,518.47009c144.18227,19.50144 252.08438,3.81731 277.25099,-74.29344" id="path7356 1" stroke="#661815" stroke-width="47.8"/></g></svg>