<svg version="1.1" xmlns="http://www.w3.org/2000/svg" xmlns:xlink="http://www.w3.org/1999/xlink" width="1555.99219" height="1555.99219"><g fill="none" fill-rule="nonzero" stroke="#181818" stroke-width="12" stroke-linecap="round" stroke-linejoin="round" stroke-miterlimit="10" stroke-dasharray="" stroke-dashoffset="0" font-family="none" font-weight="none" font-size="none" text-anchor="none" style="mix-blend-mode: normal"><path d="M1074.23438,920.73438c20.35177,0 -2.38272,-25.35588 -3,-26c-10.61172,-11.0731 -21.60907,-21.96191 -34,-31c-32.51332,-23.7156 -106.22101,-65.90177 -151,-46c-17.18649,7.63844 -22.34522,40.94564 -24,54c-2.46323,19.43216 -1.07422,50.32499 2,70c4.93058,31.55572 10.15999,31.33977 12,64c1.38955,24.66447 4.0067,42.4188 -15,60c-16.35397,15.12742 -42.71572,21.48929 -64,21c-57.78597,-1.32841 -111.24288,-31.2076 -162,-55c-21.56833,-10.11015 -52.88505,-30 -79,-30" opacity="0.75"/><path d="M963.23438,650.73438c0.02821,0.8618 0.05642,1.72359 0.001,0c-0.05542,-1.72359 -0.19447,-6.03258 -3.001,-9c-2.80653,-2.96742 -8.28056,-4.59327 -15,-7c-6.71944,-2.40673 -14.6843,-5.59434 -22,-8c-7.3157,-2.40566 -13.98223,-4.02936 -21,-5c-7.01777,-0.97064 -14.38678,-1.2882 -22,0c-7.61322,1.2882 -15.47065,4.18218 -22,11c-6.52935,6.81782 -11.73063,17.55948 -18,34c-6.26937,16.44052 -13.60682,38.57989 -20,52c-6.39318,13.42011 -11.84207,18.12096 -20,22c-8.15793,3.87904 -19.02489,6.93629 -31,8c-11.97511,1.06371 -25.05839,0.13389 -39,-2c-13.94161,-2.13389 -28.74157,-5.47185 -43,-10c-14.25843,-4.52815 -27.97532,-10.24649 -41,-15c-13.02468,-4.75351 -25.35713,-8.54218 -35,-11c-9.64287,-2.45782 -16.59616,-3.5848 -26,-1c-9.40384,2.5848 -21.25824,8.88137 -31,13c-9.74176,4.11863 -17.37088,6.05931 -25,8c-7.62912,1.94069 -10.31456,2.47034 -13,3" opacity="0.75"/></g></svg>