<svg version="1.1" xmlns="http://www.w3.org/2000/svg" xmlns:xlink="http://www.w3.org/1999/xlink" width="1104" height="1104"><g fill="none" fill-rule="nonzero" stroke="none" stroke-width="none" stroke-linecap="round" stroke-linejoin="round" stroke-miterlimit="10" stroke-dasharray="" stroke-dashoffset="0" font-family="none" font-weight="none" font-size="none" text-anchor="none" style="mix-blend-mode: normal"><path d="M431.66666,907c1.70065,0 0.4422,4.09874 -1,5c-5.37084,3.35636 -12.66667,0 -19,0c-19.42832,0 -39.67749,1.70493 -59,0c-42.53751,-3.75331 -81.65397,-43.11829 -106,-75c-41.18842,-53.93721 -68.25841,-116.32819 -90,-180c-21.06804,-61.69926 -39.55574,-123.66892 -45,-189c-1.9725,-23.66998 0,-48.23488 0,-72c0,-18.0491 -2.3215,-39.00838 0,-57c1.63343,-12.65911 6.2707,-18.18505 13,-29c6.25343,-10.05016 11.76239,-20.63368 19,-30c4.18195,-5.41194 10.0237,-9.30806 15,-14c31.08844,-29.31196 64.9047,-55.0373 104,-73c83.90955,-38.55304 154.57863,-49.67559 246,-53c35.5925,-1.29427 73.41609,-4.85375 106,12c42.33123,21.89547 56.8838,66.59331 69,109" stroke="#181818" stroke-width="8" vector-effect="non-scaling-stroke"/><path d="M529.66669,907.00003c1.70062,0 0.44221,4.09873 -1,4.99998c-5.37085,3.35639 -12.66676,0 -19.00007,0c-19.42834,0 -39.67746,1.70496 -58.99997,0c-42.5375,-3.7533 -81.65397,-43.11828 -105.99999,-74.99997c-41.18841,-53.93718 -68.25842,-116.32825 -89.99998,-180.00004c-21.06805,-61.69929 -39.55579,-123.66894 -45.00003,-189c-1.97251,-23.66999 0,-48.2349 0,-71.99999c0,-18.04911 -2.32152,-39.00836 0,-56.99998c1.63346,-12.65915 6.27072,-18.18509 13.00002,-29.00002c6.25344,-10.05013 11.7624,-20.63368 18.99999,-30.00002c4.18195,-5.41196 10.02371,-9.30809 15.00001,-14.00001c31.08841,-29.31196 64.90469,-55.03729 104,-72.99998c83.90956,-38.55305 154.57858,-49.67558 245.99998,-52.99999c35.5925,-1.29427 73.41608,-4.85372 105.99999,12.00002c42.33124,21.89544 56.88379,66.59328 69,108.99998" stroke="#181818" stroke-width="7.99996"/></g></svg>