<svg version="1.1" xmlns="http://www.w3.org/2000/svg" xmlns:xlink="http://www.w3.org/1999/xlink" width="999" height="999"><g fill="none" fill-rule="nonzero" stroke="#181818" stroke-width="8" stroke-linecap="round" stroke-linejoin="round" stroke-miterlimit="10" stroke-dasharray="" stroke-dashoffset="0" font-family="none" font-weight="none" font-size="none" text-anchor="none" style="mix-blend-mode: normal"><path d="M464.501,268.16666c15.40568,-19.26192 46.96372,-30 70.999,-30c5.97867,0 13.49314,-1.21233 19,2c14.97279,8.73413 19.86864,29.37005 22,45c0.87611,6.42483 5.62723,22.78188 2,29c-5.21408,8.93842 -8.31806,6.60272 -17,10c-14.48175,5.66677 -28.55,11.91 -44,15c-5.99584,1.19917 -12.00416,0.80083 -18,2" vector-effect="non-scaling-stroke"/><path d="M680.501,422.16666c-62.11624,0 -112.44316,2.33235 -170.001,27" vector-effect="non-scaling-stroke"/><path d="M754.501,612.16666c-89.1965,0 -178.8746,-3.07332 -268.001,0c-10.01624,0.34539 -19.9778,2 -30,2" vector-effect="non-scaling-stroke"/></g></svg>