<svg version="1.1" xmlns="http://www.w3.org/2000/svg" xmlns:xlink="http://www.w3.org/1999/xlink" width="956" height="956"><g fill="none" fill-rule="nonzero" stroke="none" stroke-width="none" stroke-linecap="round" stroke-linejoin="round" stroke-miterlimit="10" stroke-dasharray="" stroke-dashoffset="0" font-family="none" font-weight="none" font-size="none" text-anchor="none" style="mix-blend-mode: normal"><path d="M453.15355,206.98355c-41.82035,10.61077 -83.64071,21.22154 -103.69732,41.98754c-20.05661,20.766 -18.34947,51.68724 -8.62311,65.76322c9.72636,14.07598 27.47194,11.30669 67.96202,7.08397c40.49008,-4.22272 103.72467,-9.89886 142.62566,-6.80675c38.90099,3.09211 53.46837,14.95247 65.14187,6.39563c11.67349,-8.55684 20.4531,-37.53089 -3.45116,-58.76532c-23.90425,-21.23443 -80.49236,-34.72923 -107.38754,-47.57056c-26.89518,-12.84133 -24.09742,-25.0292 -21.29966,-37.21707c2.79776,-12.18787 -10.78056,6.76904 -24.35888,25.72594" stroke="#e8c99d" stroke-width="11.74075"/><path d="M479.23325,217.48044c-58.25418,26.14489 -116.50836,52.28979 -96.67072,70.87783c19.83764,18.58804 117.76711,29.61922 163.57164,28.68001c45.80452,-0.93922 39.4841,-13.84883 33.16368,-26.75844c-6.32042,-12.90961 -51.57206,-34.62335 -96.82369,-56.33709" stroke="#e9c6a0" stroke-width="25.07788"/><path d="M476.60427,294.47667c-5.79018,42.15642 -11.58035,84.31285 -9.55045,85.7819c2.0299,1.46906 11.87988,-37.74925 21.72986,-76.96756c9.84998,-39.21831 -16.10223,-14.66663 -42.05444,9.88505" stroke="#e8c7a0" stroke-width="44.06728"/><path d="M313.98866,288.17664c1.8464,19.70451 3.69279,39.40902 4.99986,38.18262c1.30707,-1.2264 2.07482,-23.3837 4.22556,-25.85024c2.15074,-2.46654 5.68446,14.75769 8.0304,17.72425c2.34594,2.96656 3.5041,-8.32454 8.23114,-10.92707c4.72703,-2.60253 13.02293,3.48352 21.31884,9.56956c8.2959,6.08605 10.87341,1.36046 13.45092,-3.36513" stroke="#0069c7" stroke-width="8.72604"/><path d="M372.20906,336.33037c22.93187,-5.69823 45.86373,-11.39645 81.69017,9.13933c35.82644,20.53579 84.54744,67.30558 96.35523,88.75503c11.80779,21.44945 -13.29765,17.57855 -46.33734,18.79496c-33.03969,1.21641 -74.01365,7.52011 -98.09514,-13.98626c-24.08149,-21.50637 -31.27051,-70.82283 -24.74128,-90.33242c6.52924,-19.5096 26.77674,-9.21234 62.8283,13.12586c36.05156,22.3382 87.9072,56.71733 83.1242,73.15312c-4.783,16.43579 -66.20463,14.92822 -101.14478,-4.12039c-34.94015,-19.04861 -43.39881,-55.63827 -20.0091,-56.4709c23.38972,-0.83262 78.62781,34.0918 85.3899,47.7713c6.76209,13.6795 -34.95183,6.11408 -53.88017,-2.28482c-18.92834,-8.39889 -15.07111,-17.63125 -11.21387,-26.86361c3.85724,-9.23236 12.36813,3.49547 20.87903,16.22331" stroke="#0068c4" stroke-width="9.00752"/><path d="M501.60362,351.16749c27.4064,-22.45995 54.81281,-44.9199 68.03854,-26.05098c13.22574,18.86892 12.2708,79.0667 -3.50847,89.9118c-15.77927,10.84509 -46.38287,-27.6625 -47.18816,-51.60489c-0.80529,-23.94239 28.18774,-33.31956 39.42539,-24.67436c11.23764,8.6452 4.71991,35.31276 -1.26188,42.15961c-5.98178,6.84685 -11.4276,-6.12703 -16.87342,-19.1009c-5.44582,-12.97387 0.99595,-6.91235 7.43772,-0.85082" stroke="#0068c7" stroke-width="9.39595"/><path d="M596.50578,306.56051c20.29663,-15.91802 40.59325,-31.83604 45.84977,-31.83479c5.25652,0.00125 -4.52708,15.92177 -9.75122,25.5443c-5.22414,9.62253 -5.88883,12.94708 -10.7263,13.66123c-4.83746,0.71416 -13.8477,-1.18207 -22.85794,-3.0783c-9.01024,-1.89623 4.44302,-4.2033 17.89627,-6.51038" stroke="#0066c4" stroke-width="8.53571"/><path d="M399.31164,467.71344c35.53452,2.9158 71.06904,5.8316 106.60356,8.74739c35.53452,2.9158 43.50276,-3.21217 51.471,-9.34014" stroke="#006bc7" stroke-width="8.53571"/><path d="M324.0075,260.06068c15.78451,19.61243 31.56902,39.22487 47.34114,44.10027c15.77212,4.8754 31.53184,-4.98622 71.81473,17.96325c40.28289,22.94947 105.08894,78.71004 120.50376,108.63027c15.41483,29.92023 -18.56157,34.00011 -55.53398,33.61299c-36.97241,-0.38712 -76.94084,-5.24124 -116.90927,-10.09536c-39.96843,-4.85412 -35.21328,-65.54698 -30.45814,-126.23984" stroke="#000453" stroke-width="8.53571"/><path d="M326.52181,255.91165c-11.30715,16.39245 -22.6143,32.78489 -25.11413,41.93973c-2.49983,9.15483 3.80766,11.07206 3.80487,19.05307c-0.00279,7.98101 -6.31585,22.02581 5.66909,23.73751c11.98494,1.7117 42.26789,-8.9097 72.55084,-19.5311c30.28295,-10.6214 42.06244,-6.99804 53.84194,-3.37467" stroke="#000053" stroke-width="8.53571"/><path d="M484.62509,349.12164c21.2463,-18.62129 42.4926,-37.24258 61.02148,-38.91877c18.52888,-1.67619 34.34033,13.59272 50.15178,28.86163c15.81145,15.26891 -6.78802,62.14559 -29.38749,109.02227" stroke="#000156" stroke-width="8.53571"/><path d="M568.04563,308.81668c63.08641,-34.8749 65.67724,-33.86153 74.52977,-42.69497" stroke="#000153" stroke-width="8.53571"/><path d="M641.83926,262.5176c10.34309,5.5021 20.68618,11.0042 21.61521,16.37628c0.92903,5.37208 -7.55601,10.61415 -13.38401,16.40497c-5.828,5.79081 -8.99897,12.13037 -12.16993,18.46993c-3.17097,6.33956 -24.80671,9.55108 -46.44245,12.76261" stroke="#000156" stroke-width="8.53571"/><path d="M387.7536,450.30468c-7.97701,16.49978 -15.95403,32.99957 13.20238,38.70849c29.15641,5.70892 95.44624,0.62697 161.73607,-4.45499c66.28983,-5.08195 35.97468,-18.06163 5.65952,-31.04131" stroke="#000456" stroke-width="8.53571"/><path d="M390.87016,483.71689c0.06804,2.9605 0.13609,5.92101 -0.65008,7.22737c-0.78617,1.30637 -2.42656,0.9586 -3.97696,9.59822c-1.5504,8.63962 -3.01081,26.26663 -7.18911,45.40046c-4.17831,19.13383 -11.07452,39.77447 -14.79889,54.62582c-3.72437,14.85134 -4.2769,23.91338 -3.2217,26.25172c1.0552,2.33834 3.71813,-2.04702 -4.17773,17.36096c-7.89586,19.40798 -26.35052,62.60931 -36.65303,87.74173c-10.30251,25.13242 -12.45287,32.19593 -14.94229,36.93986c-2.48941,4.74393 -5.31787,7.16828 -5.01901,6.76849c0.29886,-0.39979 3.72504,-3.62372 5.1911,-8.46063c1.46605,-4.8369 0.97197,-11.28678 22.01669,-13.70903c21.04472,-2.42225 63.62823,-0.81687 86.9291,0.03829c23.30087,0.85516 27.31909,0.96012 51.25114,3.99604c23.93206,3.03592 67.77795,9.00281 107.59782,14.77027c39.81987,5.76745 75.6137,11.33547 104.68193,13.08764c29.06823,1.75217 51.41086,-0.31152 63.43058,-0.93691c12.01972,-0.6254 13.71653,0.1875 15.47769,0.58317c1.76116,0.39567 3.58668,0.37412 2.49516,-0.05744c-1.09151,-0.43156 -5.10006,-1.27312 -5.03812,-1.90242c0.06193,-0.6293 4.19434,-1.04634 -6.1566,-13.02075c-10.35094,-11.97441 -35.18522,-35.50619 -54.94137,-62.70408c-19.75615,-27.19789 -34.43416,-58.0619 -44.65477,-82.11079c-10.22061,-24.04889 -15.98381,-41.28268 -21.94017,-47.54191c-5.95636,-6.25923 -12.10586,-1.54392 -18.25965,-10.38219c-6.15379,-8.83828 -12.31186,-31.23015 -18.46993,-53.62202c-6.15807,-22.39187 -12.73463,-24.19753 -19.31118,-26.00318" stroke="#111211" stroke-width="8.53571"/><path d="M677.0679,483.3823c38.05516,1.69951 76.11032,3.39902 95.27495,3.13567c19.16463,-0.26334 19.43872,-2.48954 21.45266,-2.56208c2.01395,-0.07254 5.76775,2.00859 4.60793,2.35176c-1.15982,0.34318 -7.23327,-1.05159 -11.08968,0.03823c-3.85642,1.08982 -5.4958,4.66422 -18.25959,-12.18901c-12.76378,-16.85323 -36.65196,-54.1341 -48.3067,-71.0499c-11.65474,-16.9158 -11.07605,-13.46653 -8.59439,-13.08764c2.48166,0.37889 6.86629,-2.3126 10.3439,-5.93678c3.47761,-3.62418 6.04819,-8.18104 8.75693,-13.09721c2.70875,-4.91617 5.55565,-10.19164 7.09352,-12.07427c1.53786,-1.88263 1.76668,-0.37242 -7.50463,-0.8604c-9.27131,-0.48797 -28.04274,-2.97413 -36.5096,-0.02869c-8.46686,2.94544 -6.62914,11.32247 -28.49838,2.15099c-21.86923,-9.17148 -67.44542,-35.89147 -89.70145,-53.68897c-22.25604,-17.7975 -21.19192,-26.6725 -18.77588,-28.70869c2.41605,-2.03619 6.18404,2.76643 14.4356,1.64434c8.25157,-1.12209 20.98671,-8.16889 29.35871,-15.8505c8.372,-7.68161 12.38084,-15.99802 22.35129,-26.85404c9.97044,-10.85602 25.90248,-24.25165 41.83452,-37.64729c15.93204,-13.39563 27.76956,-26.06637 39.60708,-38.73711" stroke="#0d1310" stroke-width="8.53571"/><path d="M570.36873,99.68212c-3.97766,0.93223 -7.95532,1.86447 -11.08004,2.22748c-3.12472,0.36301 -5.39651,0.1568 -11.4911,0.01911c-6.09459,-0.13768 -16.01198,-0.20683 -56.94896,-0.12428c-40.93698,0.08255 -112.89354,0.31681 -149.58531,0.20076c-36.69177,-0.11604 -38.11876,-0.58239 -45.99317,0.21032c-7.87441,0.79271 -22.19623,2.84448 -29.40654,1.97892c-7.21031,-0.86555 -7.30911,-4.64843 -3.43203,0.21032c3.87708,4.85875 11.73006,18.35912 20.92682,35.82132c9.19676,17.4622 19.73732,38.88623 35.61101,69.18572c15.87369,30.29949 37.08052,69.47444 58.28735,108.64938c21.20683,39.17495 33.68126,71.87112 46.15568,104.56729" stroke="#101010" stroke-width="8.53571"/><path d="M488.27699,501.91911c0.29764,7.90632 0.59527,15.81264 1.22368,28.81383c0.62841,13.00119 1.58758,31.09724 6.65374,56.53791c5.06616,25.44066 14.23931,58.22593 23.41246,91.01119c9.17315,32.78527 3.85523,44.89098 -1.46268,56.99669" stroke="#120f12" stroke-width="8.53571"/><path d="M389.56999,626.97352c75.91597,-0.20077 156.74581,-0.17212 234.98482,-0.10517" stroke="#131310" stroke-width="8.53571"/><path d="M694.33326,565.11076c-0.90343,5.36624 -1.80686,10.73249 -1.02294,21.15629c0.78391,10.42381 3.25517,25.90518 10.1527,43.55531c6.89753,17.65014 18.22134,37.46905 25.7355,51.40412c7.51416,13.93507 11.21867,21.98631 14.92317,30.03755c3.70451,8.05124 14.481,28.85771 25.2575,49.66418" stroke="#141114" stroke-width="8.53571"/><path d="M773.58564,574.25966c-2.61789,2.5455 -5.23578,5.091 -2.27531,13.92889c2.96048,8.83789 11.49932,23.96816 -0.2868,39.76962c-11.78612,15.80146 -43.89719,32.27412 -67.91419,41.88232c-24.017,9.6082 -39.93993,12.35196 -57.02541,12.97295c-17.08549,0.621 -35.33353,-0.88076 -49.98927,0.13383c-14.65574,1.01458 -25.71917,4.5455 -37.95316,0.00964c-12.23399,-4.53587 -25.63854,-17.13852 -39.04308,-29.74117c-13.40455,-12.60265 -25.61671,-35.05303 -37.82888,-57.50341" stroke="#121512" stroke-width="8.53571"/><path d="M681.29343,551.14358c-2.36475,-0.35544 -4.72951,-0.71088 -7.18918,-0.26772c-2.45967,0.44316 -5.01427,1.68493 -21.00325,2.18928c-15.98898,0.50435 -45.41235,0.27129 -74.83572,0.03823c-29.42337,-0.23306 -102.635,-0.14522 -175.84664,-0.05737" stroke="#131616" stroke-width="8.53571"/><path d="M809.15839,686.19766c-0.1123,-0.78789 -0.22461,-1.57579 0.14346,-5.97497c0.36807,-4.39919 1.21652,-12.40967 2.06496,-20.42015c0.84845,-8.01048 -3.62443,-43.82745 -8.09731,-79.64442" stroke="#171417" stroke-width="8.53571"/><path d="M815.38193,540.84741c-0.5481,-0.51709 -1.0962,-1.03418 -1.28102,-2.56208c-0.18482,-1.5279 -0.00637,-4.0666 0.0478,-11.99778c0.05417,-7.93119 -0.01593,-21.25486 -0.08603,-34.57853c-0.0701,-13.32367 0.50507,-66.42616 1.08025,-119.52865" stroke="#171714" stroke-width="8.53571"/><path d="M817.38002,360.95694c-1.21942,-3.08108 -2.43883,-6.16216 -2.18922,-11.19476c0.24962,-5.0326 1.96827,-12.01673 2.22744,-30.99354c0.25918,-18.97682 -0.94112,-49.94632 -2.14142,-80.91583c-1.2003,-30.96951 -0.06002,-32.46809 1.08025,-33.96667" stroke-opacity="0.99964" stroke="#141717" stroke-width="8.53571"/><path d="M785.59296,210.72152c-2.77539,-0.4384 -5.55077,-0.8768 -7.47591,-1.52959c-1.92514,-0.6528 -3.00004,-1.51999 -6.95012,-6.99793c-3.95008,-5.47794 -10.77533,-15.56663 -16.72042,-26.35691c-5.94509,-10.79028 -11.01002,-22.28215 -13.89066,-29.08152c-2.88064,-6.79937 -3.57698,-8.90625 -4.27333,-11.01312c-0.69634,-2.10688 15.20597,-3.20922 31.10829,-4.31156" stroke="#151815" stroke-width="8.53571"/><path d="M783.33686,79.00384c-2.15696,0 -4.31391,0 -6.00369,0c-1.68978,0 -2.91239,0 -8.00171,0c-5.08932,0 -14.04536,0 -23.0014,0c-8.95604,0 -37.97623,3.00184 -66.99642,6.00368" stroke="#171717" stroke-width="8.53571"/><path d="M664.33394,106.99552c-1.30457,-0.06536 -2.60914,-0.13073 -4.9999,0c-2.39076,0.13073 -5.86771,0.45755 -9.99979,0c-4.13208,-0.45755 -8.9193,-1.69948 -24.99936,0c-16.08006,1.69948 -43.45297,6.34038 -56.00247,8.99596c-12.5495,2.65558 -10.27561,3.32584 -8.00171,3.99609c2.2739,0.67026 -7.36189,1.33415 -16.99768,1.99804" stroke="#171717" stroke-width="8.53571"/><path d="M543.33304,122.00472c-1.83154,-0.33301 -3.66308,-0.66601 -8.99597,0c-5.33289,0.66601 -14.16713,2.33105 -23.00137,3.99608c-8.83424,1.66503 -28.4175,19.33111 -48.00076,36.99719" stroke="#171717" stroke-width="8.53571"/><path d="M525.33156,167.00363c1.99802,0 3.9961,0 6.00369,0" stroke="#171717" stroke-width="8.53571"/><path d="M548.3329,167.00363c37.5326,0 74.83572,5.43008 111.99543,-1.99805" stroke="#171717" stroke-width="8.53571"/><path d="M727.33333,243c5.14215,0 11.53837,12.64323 14,16c9.50415,12.96021 32.79359,48.96797 36,65" stroke="#181818" stroke-width="8"/><path d="M583.46588,329.76265c24.0665,-23.00932 48.13299,-46.01865 63.09599,-34.23435c14.963,11.78429 20.82249,58.3622 26.68199,104.94011c5.8595,46.57791 11.37598,44.11063 16.89247,41.64335" stroke-opacity="0.85958" stroke="#e92087" stroke-width="8.95228" opacity="0.5"/><path d="M569.71862,458.62187c-18.51852,15.80506 -37.03703,31.61012 -27.28424,33.89018c9.7528,2.28006 47.77691,-8.96489 85.80102,-20.20984c38.02411,-11.24495 12.43952,1.4854 -13.14507,14.21575" stroke-opacity="0.55481" stroke="#6ba632" stroke-width="8.53571" opacity="0.5"/><path d="M457.58939,195.35859c11.49113,28.62263 22.95354,11.33816 -26.31864,47.18816" stroke-opacity="0.59234" stroke="#313962" stroke-width="8.53571" opacity="0.5"/><path d="M501.2786,351.33c-7.28076,-26.84846 -14.56151,-53.69692 -2.3996,-65.06535c12.16192,-11.36843 43.7665,-7.25684 75.37109,-3.14525c31.60459,4.11159 -16.58698,1.96975 -64.77855,-0.17209" stroke-opacity="0.2164" stroke="#759866" stroke-width="8.53571" opacity="0.5"/><path d="M613.92411,493.27689c-22.40229,-12.78013 -44.80458,-25.56025 -50.14224,-48.33536c-5.33767,-22.7751 6.38929,-55.54518 18.11625,-88.31526c11.72696,-32.77008 12.03444,-6.96366 12.34192,18.84276" stroke-opacity="0.09923" stroke="#cd5685" stroke-width="8.53571" opacity="0.5"/><path d="M446.63363,260.94978c11.23778,-36.54151 22.47556,-73.08303 18.50816,-83.96549c-3.9674,-10.88247 -23.13998,3.89411 -42.31255,18.67069c-19.17258,14.77658 -9.8683,15.38044 -0.56402,15.98431" stroke-opacity="0" stroke="#e34d15" stroke-width="8.86138" opacity="0.5"/><path d="M702.07683,418.60371c18.3361,-0.83171 30.79277,-21.23275 14.09143,42.1883" stroke-opacity="0.93735" stroke="#32ec44" stroke-width="8.53571" opacity="0.5"/><path d="M449.05234,256.40876c-20.93721,-5.87701 -41.87442,-11.75403 -38.95703,-16.82561c2.91739,-5.07158 29.68939,-9.33773 56.46139,-13.60388c26.772,-4.26615 -10.76257,-8.08895 -48.29713,-11.91175" stroke-opacity="0.45114" stroke="#4e7154" stroke-width="8.53571" opacity="0.5"/><path d="M684.52467,422.90573c-17.40557,13.86518 -34.81114,27.73037 -52.21671,41.59555c-17.40557,13.86518 29.14045,7.03775 75.68648,0.21031" stroke-opacity="0.38587" stroke="#5cc891" stroke-width="8.98825" opacity="0.5"/><path d="M730.90974,698.91247c3.75391,-28.75967 7.50782,-57.51934 11.26174,-86.27901c3.75391,-28.75967 22.01509,-42.59617 40.27627,-56.43267" stroke-opacity="0.06608" stroke="#722ed1" stroke-width="8.53571" opacity="0.5"/><path d="M323.58688,454.10958c-3.61287,-2.8433 -7.22575,-5.68661 1.93114,-26.99744c9.15688,-21.31083 31.08352,-61.08919 53.01016,-100.86756c21.92664,-39.77836 -21.80835,13.82895 -65.54335,67.43626" stroke-opacity="0.65383" stroke="#0126d6" stroke-width="8.53571" opacity="0.5"/><path d="M427.86736,377.17067c-8.97365,-21.91789 -17.9473,-43.83577 -26.92095,-65.75366c-8.97365,-21.91789 -2.67043,-7.5986 3.63278,6.72069" stroke-opacity="0.2105" stroke="#026a37" stroke-width="9.14392" opacity="0.5"/><path d="M498.11427,118.09468c19.7701,51.51885 -28.43147,88.32485 -60.89719,81.39383" stroke-opacity="0.08877" stroke="#00c407" stroke-width="8.53571" opacity="0.5"/><path d="M622.78615,292.93751c35.56318,23.79485 32.49448,2.51428 13.14501,0.20077" stroke-opacity="0.19683" stroke="#897ec0" stroke-width="8.94739" opacity="0.5"/><path d="M260.85414,222.34649c-14.42285,-3.40336 -28.8457,-6.80673 -43.26855,-10.21009c-14.42285,-3.40336 -2.00122,-7.38032 10.4204,-11.35729" stroke-opacity="0.89656" stroke="#748afe" stroke-width="9.09699" opacity="0.5"/><path d="M137.79784,838.88042c0.06931,-48.32581 0.13862,-96.65162 -16.09904,-112.32046c-16.23766,-15.66883 -48.78229,1.31931 -81.32692,18.30745c-32.54463,16.98814 -52.99705,20.25764 -73.44948,23.52714" stroke-opacity="0.1612" stroke="#fe2c86" stroke-width="8.53571" opacity="0.5"/><path d="M144.16481,369.80947c38.22885,11.17007 76.45769,22.34014 84.82587,5.76469c8.36818,-16.57545 -13.12429,-60.89641 -34.61677,-105.21737c-21.49248,-44.32096 12.06392,5.96504 45.62031,56.25104" stroke-opacity="0.38165" stroke="#6fd07c" stroke-width="8.53571" opacity="0.5"/><path d="M195.15784,72.04416c-24.01711,2.26492 -48.03423,4.52984 -55.75393,-14.55032c-7.7197,-19.08017 0.85801,-59.50542 9.43572,-99.93068c8.57771,-40.42526 13.76282,-36.53633 18.94793,-32.6474" stroke-opacity="0" stroke="#216b76" stroke-width="8.53571" opacity="0.5"/></g></svg>