<svg version="1.1" xmlns="http://www.w3.org/2000/svg" xmlns:xlink="http://www.w3.org/1999/xlink" width="956" height="956"><g fill="none" fill-rule="nonzero" stroke-opacity="0.93333" stroke="#000000" stroke-width="8" stroke-linecap="round" stroke-linejoin="round" stroke-miterlimit="4" stroke-dasharray="" stroke-dashoffset="0" font-family="none" font-weight="none" font-size="none" text-anchor="none" style="mix-blend-mode: normal"><path d="M375.00189,402.90731c-38.2421,43.12153 -70.75748,88.99528 -70.75748,88.99528c0,0 32.36442,-35.16005 44.31968,-23.68595c11.95526,11.47449 -45.98303,57.78972 -37.09242,66.32355c8.8908,8.53421 65.36296,110.76249 70.59668,127.89672" id="path51862-6 1"/><path d="M557.10959,378.74612c100.63683,90.22393 90.08531,76.79615 90.01629,81.84899c-0.07411,5.05342 -37.90062,-11.17516 -32.83181,-5.19586c5.06967,5.97882 53.40742,51.20451 49.60158,57.30761c-3.80584,6.1031 -214.3498,189.5353 -235.16569,195.15514c-20.81585,5.61937 -64.32503,16.90227 -75.43758,14.47805c-11.11331,-2.42442 189.75758,-281.06699 192.3322,-292.55247c2.57451,-11.48481 9.70655,-59.87753 9.70655,-59.87753" id="path51864-1 1"/><path d="M435.58125,578.10368c-28.16151,-87.7098 -48.51548,-168.44579 -58.17932,-174.25419" id="path51866-0 1"/><path d="M322.01444,461.46447c-88.36872,46.63989 -120.51127,64.40907 -121.50124,76.7712c-0.98946,12.36213 59.19007,163.9402 75.75401,180.09229c16.56356,16.15219 323.60069,17.15963 348.53672,-0.29497c24.9362,-17.45401 138.44317,-177.92717 131.59266,-192.83053c-6.8564,-14.90332 -93.92714,-52.82395 -113.02481,-63.56565" id="path51868-6 1"/><path d="M363.76983,730.41162c21.17349,22.52326 41.81362,41.42511 33.58858,52.52168c-8.22638,11.09706 -68.20572,50.99648 -68.20572,66.10816c0,15.11063 10.41285,61.52625 58.15099,75.14619c47.73843,13.62434 122.49668,28.20563 185.70398,-5.47023c56.20142,-29.93963 52.46949,-65.24346 38.15157,-90.2421c-10.842,-18.92794 -52.89433,-38.92908 -56.06548,-44.63736c-3.17201,-5.70732 -7.04954,-32.84185 16.82006,-55.13835" id="path51870-3 1"/></g></svg>