<svg version="1.1" xmlns="http://www.w3.org/2000/svg" xmlns:xlink="http://www.w3.org/1999/xlink" width="1104" height="1104"><g fill="none" fill-rule="nonzero" stroke="none" stroke-width="none" stroke-linecap="round" stroke-linejoin="round" stroke-miterlimit="10" stroke-dasharray="" stroke-dashoffset="0" font-family="none" font-weight="none" font-size="none" text-anchor="none" style="mix-blend-mode: normal"><path d="M649.177,270.08466c22.99488,-14.55202 45.98976,-29.10404 57.4541,-28.51799c11.46434,0.58605 11.39813,16.31018 18.10022,25.17882c6.70209,8.86864 20.17247,10.88178 26.81873,16.06342c6.64626,5.18164 6.46839,13.53177 21.96594,26.35141c7.61287,6.2974 19.00832,13.67332 30.45037,20.46175" stroke="#280811" stroke-width="15.11365"/><path d="M842.25088,350.25903c8.66431,4.13002 9.40035,4.32818 15.57846,12.75172c7.49222,10.21524 22.98781,32.52709 0.27972,57.99655c-5.24424,5.88196 -12.52604,11.93232 -20.91881,17.9331" stroke="#280811" stroke-width="15.11365"/><path d="M797.1152,463.72202c-18.39706,10.29394 -36.02444,19.28266 -46.51327,25.46777c-23.8873,14.08598 -10.75014,13.63088 2.38702,13.17578c13.13716,-0.4551 -20.75854,-19.62239 -54.65424,-38.78967" stroke="#280811" stroke-width="15.11365"/><path d="M660.66833,395.68616c0.49256,0.91823 0.98511,1.83645 -1.29736,5.69205c-2.28248,3.85559 -7.33998,10.64855 -15.38324,14.60046c-8.04326,3.95191 -19.07227,5.06277 -30.97986,13.03778c-11.90759,7.97501 -24.69377,22.81416 -41.21503,30.8887c-16.52126,8.07454 -36.77759,9.38447 -37.73242,16.80988c-0.95483,7.42541 17.39185,20.96629 35.73853,34.50717c18.34668,13.54088 52.53671,32.26609 86.72675,50.9913" stroke-opacity="0.99692" stroke="#200c19" stroke-width="14.03308"/><path d="M741.37836,270.19302c-14.82014,-2.33117 -29.64029,-4.66234 -26.27222,4.39243c3.36807,9.05476 24.92436,29.49546 46.48065,49.93616c16.26578,15.42399 28.03024,28.1857 38.68995,40.29403" stroke-opacity="0.20436" stroke="#5dbc83" stroke-width="9.85714" opacity="0.7"/><path d="M841.09858,361.22484c32.94514,-13.16523 18.56935,-2.61702 24.82501,-23.92644" stroke-opacity="0" stroke="#ddbcdc" stroke-width="10.42826" opacity="0.7"/><path d="M1107.8512,711.57764c-13.93588,-24.66791 -27.87175,-49.33583 -48.45813,-61.31982c-5.71512,-3.32696 -11.9428,-5.67635 -18.54075,-7.31957" stroke="#f15bff" stroke-width="15.42636" opacity="0.7"/><path d="M1001.21633,639.35134c-5.58827,0.03205 -11.23583,0.17718 -16.88338,0.32231c-27.23687,0.69992 -22.16256,-7.63091 -17.08826,-15.96173" stroke="#f15bff" stroke-width="15.42636" opacity="0.7"/><path d="M867.48779,668.13391c-3.81195,14.33124 -37.69775,18.13837 -66.90411,19.38983" stroke-opacity="0.73781" stroke="#ee71b2" stroke-width="9.85714" opacity="0.7"/><path d="M796.88577,427.95324c-2.86871,-2.34788 -3.91536,-5.59532 0.39823,-11.48916" stroke-opacity="0.84087" stroke="#dd1674" stroke-width="16.27521" opacity="0.7"/><path d="M839.47279,380.38275c5.70314,-4.30162 11.62393,-8.7107 17.54473,-13.11978c14.70439,-10.95002 4.18357,-8.60256 -16.39227,-0.95459" stroke-opacity="0.84087" stroke="#dd1674" stroke-width="16.27521" opacity="0.7"/><path d="M799.19864,382.76528c-2.76325,1.13029 -5.54262,2.26908 -8.32199,3.40787" stroke-opacity="0.84087" stroke="#dd1674" stroke-width="16.27521" opacity="0.7"/><path d="M1048.88147,462.65778c-3.08883,8.22702 -6.17765,16.45404 -9.26648,24.68106c-3.08883,8.22702 12.74599,-10.28731 28.58081,-28.80164" stroke-opacity="0.59367" stroke="#a85dde" stroke-width="9.85714" opacity="0.7"/><path d="M1084.14929,284.87054c-19.49658,51.18082 -0.82117,97.48816 -57.38245,114.35553" stroke-opacity="0" stroke="#54d95c" stroke-width="9.85714" opacity="0.7"/><path d="M795.84601,652.8811c-51.72888,-18.25403 -11.9248,19.63623 25.48407,40.26837" stroke-opacity="0.20664" stroke="#52ff11" stroke-width="10.59701" opacity="0.7"/><path d="M549.68707,491.04761c1.07391,-5.64901 2.14783,-11.29801 3.22174,-16.94702c1.07391,-5.64901 -43.16121,17.89837 -87.39633,41.44574" stroke-opacity="0.59909" stroke="#2e8d6f" stroke-width="9.85714" opacity="0.7"/><path d="M653.53864,408.19434c4.20038,-53.75757 -19.08893,-51.25433 -82.05347,-15.13193" stroke-opacity="0.86709" stroke="#874bab" stroke-width="13.13403" opacity="0.7"/><path d="M562.74536,443.87292c6.78986,62.88861 -16.35126,88.47284 37.56311,50.35696" stroke-opacity="0.00552" stroke="#9f5319" stroke-width="13.7463" opacity="0.7"/><path d="M645.28638,570.2746c-4.02851,-10.9934 -8.05702,-21.98679 -18.41699,-32.99231c-10.35998,-11.00552 -27.05142,-22.02316 -43.74286,-33.0408c-16.69144,-11.01764 19.97273,19.14696 56.6369,49.31155" stroke-opacity="0.90339" stroke="#268195" stroke-width="9.85714" opacity="0.7"/><path d="M699.02252,243.39142c-35.95061,-26.59105 -71.90122,-53.1821 -68.34656,-51.86562c3.55467,1.31648 46.61461,30.54049 89.67456,59.7645c43.05995,29.22401 21.49967,45.79232 -0.06061,62.36064" stroke-opacity="0.9669" stroke="#1c0029" stroke-width="9.85714" opacity="0.7"/><path d="M645.66412,570.19836c42.86096,-50.57788 17.74579,-96.32434 22.22583,-26.59485" stroke-opacity="0.88345" stroke="#db3d88" stroke-width="15.79471" opacity="0.7"/><path d="M576.18445,453.02856c-20.32172,-46.91644 -44.66132,-10.62158 -39.6698,-41.29901" stroke-opacity="0.14764" stroke="#cafe33" stroke-width="9.85714" opacity="0.7"/><path d="M714.20789,300.12949c-36.92669,5.65151 -73.85338,11.30303 -79.57581,17.37534c-5.72242,6.07231 19.75942,12.5654 45.24127,19.0585c25.48185,6.4931 -35.01848,63.87294 -95.5188,121.25278" stroke-opacity="0.06534" stroke="#211eb1" stroke-width="9.85714" opacity="0.7"/><path d="M664.37286,543.08521c51.15063,-42.27625 4.97253,-21.48041 7.77802,-24.77515" stroke-opacity="0.1387" stroke="#4085fe" stroke-width="13.66671" opacity="0.7"/><path d="M565.66022,393.76324c13.94952,34.98135 27.89905,69.96271 41.84857,104.94406c13.94952,34.98135 -42.34631,36.14618 -98.64215,37.311" stroke-opacity="0.63179" stroke="#16c475" stroke-width="9.85714" opacity="0.7"/><path d="M587.04639,505.74646c-26.2126,-15.9031 -52.42519,-31.80621 -54.6214,-36.36392c-2.19621,-4.55771 19.62397,2.22996 41.44415,9.01764c21.82018,6.78768 -30.26594,-14.47941 -82.35205,-35.74649" stroke-opacity="0.44441" stroke="#2b0074" stroke-width="9.85714" opacity="0.7"/><path d="M567.59644,396.58765c8.24585,-60.58942 -27.90088,-60.68188 -37.19452,-43.04388" stroke-opacity="0.26069" stroke="#f4c064" stroke-width="11.6297" opacity="0.7"/><path d="M598.12421,498.30948c-21.0663,10.4226 -42.1326,20.84519 -24.99121,21.71658c17.14139,0.87139 72.49046,-7.80843 127.83954,-16.48825c55.34908,-8.67982 51.24192,-7.78989 47.13477,-6.89996" stroke-opacity="0.25181" stroke="#ddf225" stroke-width="9.85714" opacity="0.7"/><path d="M585.19696,499.9718c18.26623,-19.54275 36.53246,-39.0855 55.88721,-56.07932c19.35475,-16.99382 39.79801,-31.4387 60.24127,-45.88358c20.44326,-14.44488 -0.18093,-32.1723 -20.80511,-49.89972" stroke-opacity="0.34509" stroke="#203c8d" stroke-width="9.91454" opacity="0.7"/><path d="M597.00433,672.8053c14.99365,-16.75159 -25.91663,-61.362 -28.02478,-76.40259" stroke-opacity="0.46012" stroke="#f20d3b" stroke-width="10.35581" opacity="0.7"/><path d="M219.47093,1050.04688c-59.21785,0.67029 -33.30043,-5.02759 2.05173,44.38293" stroke-opacity="0.21347" stroke="#7a08a2" stroke-width="12.59659" opacity="0.7"/><path d="M126.48915,841.84625c6.91154,52.22015 9.66197,16.23145 -36.60924,63.80615" stroke-opacity="0.22437" stroke="#2d9b51" stroke-width="9.85714" opacity="0.7"/><path d="M416.93518,940.633c22.98526,29.93817 69.85577,-11.17407 112.75842,-7.69849" stroke-opacity="0.22466" stroke="#8202a5" stroke-width="9.85714" opacity="0.7"/><path d="M1060.35779,948.54053c20.39063,8.02295 54.03125,-12.48993 35.83472,0.84503" stroke-opacity="0.65374" stroke="#deff9d" stroke-width="9.85714" opacity="0.7"/><path d="M435.3764,1035.65552c34.46243,65.04761 10.35507,100.06042 -43.68631,76.99609" stroke-opacity="0.466" stroke="#14c9de" stroke-width="9.85714" opacity="0.7"/><path d="M95.75651,788.7215c52.22131,-33.3703 0.93161,4.98291 -43.01205,50.75415" stroke-opacity="0.09149" stroke="#4dca0f" stroke-width="13.31864" opacity="0.7"/><path d="M215.07104,248.20547c28.43127,21.60342 6.79683,19.59409 8.55138,71.86395" stroke-opacity="0.1422" stroke="#7c129c" stroke-width="14.38118" opacity="0.7"/><path d="M702.15173,998.14832c-22.74154,7.64632 -45.48307,15.29264 -68.22461,22.93896c-22.74154,7.64632 2.48238,-19.52144 27.7063,-46.68921" stroke-opacity="0.75054" stroke="#ba627f" stroke-width="9.85714" opacity="0.7"/><path d="M150.0049,568.96399c37.87163,27.21765 31.62563,-16.40887 37.90553,-95.26517" stroke-opacity="0.62521" stroke="#1a5346" stroke-width="9.85714" opacity="0.7"/></g></svg>