<svg version="1.1" xmlns="http://www.w3.org/2000/svg" xmlns:xlink="http://www.w3.org/1999/xlink" width="956" height="956"><g fill="none" fill-rule="nonzero" stroke="#181818" stroke-width="8" stroke-linecap="round" stroke-linejoin="round" stroke-miterlimit="10" stroke-dasharray="" stroke-dashoffset="0" font-family="none" font-weight="none" font-size="none" text-anchor="none" style="mix-blend-mode: normal"><path d="M403.33333,464c2.33433,0 0.00017,4.66567 0,7c-0.0005,7 0,14 0,21c0,30.66667 0,61.33333 0,92"/><path d="M497.33333,463c2.66767,0 0.00018,5.33233 0,8c-0.00067,10 0,20 0,30c0,22.91362 -2.28149,47.18508 0,70c0.52187,5.21869 2,9.68024 2,15"/><path d="M406.33333,462c16.47466,0 35.73535,2.71077 52,0c12.09586,-2.01598 24.67481,-4.53496 37,-7"/></g></svg>