<svg version="1.1" xmlns="http://www.w3.org/2000/svg" xmlns:xlink="http://www.w3.org/1999/xlink" width="1350" height="1350"><g fill="none" fill-rule="nonzero" stroke="none" stroke-width="none" stroke-linecap="round" stroke-linejoin="round" stroke-miterlimit="10" stroke-dasharray="" stroke-dashoffset="0" font-family="none" font-weight="none" font-size="none" text-anchor="none" style="mix-blend-mode: normal"><path d="M495,530c3.90294,0 -3.07509,-7.20823 -4,-11c-5.28712,-21.67503 -6,-38.42419 -6,-60c0,-4 -2.64649,-9.00065 0,-12c3.48705,-3.95199 9.75284,-4.50498 15,-5c12.61067,-1.18969 25.34503,-0.5443 38,0c18.36478,0.78988 37.24845,-0.77192 55,4c37.86192,10.17794 85.67408,55.70743 93,96c8.05938,44.32658 -28.36382,42.28276 -69,53c-19.44111,5.12732 -53.83985,4.76415 -72,5c-11.66568,0.1515 -23.33333,0 -35,0c-2.33333,0 -9.33333,0 -7,0c43.92595,0 60.93237,16.23892 96,47c21.44088,18.80779 41.9534,38.77098 61,60c13.04465,14.53935 23.3063,31.3535 35,47c16.54822,22.14199 35.18787,43.5597 46,69c2.64,6.21176 4.9346,12.5743 7,19c1.63959,5.10094 2.92696,13.53652 2,14c-1.49071,0.74536 -2.66667,-2 -4,-3" stroke="#181818" stroke-width="8"/><path d="M737,683c3.39937,0 6.60398,-1.84906 10,-2c30.30342,-1.34685 60.66667,0 91,0c19,0 38.4389,-4.06024 57,0c30.72566,6.72124 46.11666,22.61998 54,51c2.14115,7.70814 0,16 0,24c0,6.33333 0,12.66667 0,19c0,5 1.77327,10.32501 0,15c-5.12207,13.50363 -46.66255,43.31914 -49,45c-46.15627,33.19103 -98.85837,64.25383 -156,73c-18.17014,2.78114 -36.63637,3.18384 -55,4c-21.61948,0.96087 -44.5353,6.18485 -53,-18c-1.54164,-4.40467 0,-9.33333 0,-14" stroke="#ff0d0d" stroke-width="8"/><path d="M166,918c0.16477,0.50533 0.32954,1.01066 0.001,0c-0.32854,-1.01066 -1.15038,-3.53732 0.999,-8c2.14938,-4.46268 7.26999,-10.86137 17,-25c9.73001,-14.13863 24.06942,-36.01721 46,-69c21.93058,-32.98279 51.45234,-77.06979 91,-131c39.54766,-53.93021 89.12123,-117.70364 113,-149c23.87877,-31.29636 22.06274,-30.11566 28,-38c5.93726,-7.88434 19.62781,-24.83372 30,-36c10.37219,-11.16628 17.42603,-16.54946 23,-20c5.57397,-3.45054 9.66806,-4.96844 7,-3c-2.66806,1.96844 -12.09828,7.42321 -24,13c-11.90172,5.57679 -26.27496,11.27561 -49,19c-22.72504,7.72439 -53.80189,17.47435 -86,23c-32.19811,5.52565 -65.51747,6.82699 -103,8c-37.48253,1.17301 -79.12823,2.21771 -105,0c-25.87177,-2.21771 -35.96963,-7.69781 -50,-16c-14.03037,-8.30219 -31.99327,-19.42647 -42,-26c-10.00673,-6.57353 -12.05728,-8.5963 -15,-11c-2.94272,-2.4037 -6.77761,-5.18833 -7,-5c-0.22239,0.18833 3.1677,3.34963 3,4c-0.1677,0.65037 -3.89321,-1.21017 10,5c13.89321,6.21017 45.40514,20.49106 75,35c29.59486,14.50894 57.27264,29.24592 92,49c34.72736,19.75408 76.50429,44.52527 107,65c30.49571,20.47473 49.71019,36.65302 66,50c16.28981,13.34698 29.65495,23.86265 41,35c11.34505,11.13735 20.67001,22.89639 26,30c5.32999,7.10361 6.66499,9.55181 8,12c1.33501,2.44819 2.1675,3.2241 3,4" stroke="#ff0d0d" stroke-width="44"/></g></svg>