<svg version="1.1" xmlns="http://www.w3.org/2000/svg" xmlns:xlink="http://www.w3.org/1999/xlink" width="956" height="956"><g fill="none" fill-rule="nonzero" stroke="none" stroke-width="none" stroke-linecap="round" stroke-linejoin="round" stroke-miterlimit="10" stroke-dasharray="" stroke-dashoffset="0" font-family="none" font-weight="none" font-size="none" text-anchor="none" style="mix-blend-mode: normal"><path transform="translate(224,-238)" d="M448.53644,318.29999c-1.27721,-4.83647 -2.55441,-9.67294 2.05652,-12.54257c4.61093,-2.86963 15.11,-3.77243 39.53967,-7.08319c24.42967,-3.31077 62.78994,-9.0295 88.26953,-15.86224c25.47959,-6.83274 38.07849,-14.77948 46.53094,-0.95157c8.45246,13.82791 12.75848,49.43047 14.5672,73.85892c1.80872,24.42845 1.12015,37.68277 0.43158,50.9371c-0.68857,13.25433 -43.9131,50.68847 -87.13763,88.12262" stroke="#1d121c" stroke-width="9.38787"/><path transform="translate(76,-623)" d="M818.10352,777.44604c9.02165,-5.45097 18.04329,-10.90194 27.06494,-16.35291c9.02165,-5.45097 11.39522,14.45118 13.7688,34.35333" stroke-opacity="0.52659" stroke="#b40534" stroke-width="8.53571"/><path d="M483.86261,291.72644c39.75042,-21.50565 79.50083,-43.01131 93.02209,-31.46811c13.52126,11.5432 0.81336,56.13525 -11.89453,100.72729c-12.7079,44.59205 -63.34685,2.94382 -113.98581,-38.70441" stroke-opacity="0.30659" stroke="#19c3bd" stroke-width="8.53571" opacity="0.5"/><path d="M634.46484,402.6745c11.3965,-22.54089 22.79301,-45.08179 34.18951,-67.62268c11.3965,-22.54089 -17.72027,9.90775 -46.83704,42.35638" stroke-opacity="0.60092" stroke="#a645c5" stroke-width="8.53571" opacity="0.5"/><path d="M490.30289,291.9295c-10.26161,3.0352 -20.52321,6.07039 -30.78482,9.10559c-10.26161,3.0352 -11.21744,-1.51023 -12.17328,-6.05566" stroke-opacity="0.59739" stroke="#9413da" stroke-width="8.53571" opacity="0.5"/><path d="M624.82031,281.76654c-3.78782,4.09384 -7.57564,8.18768 -11.36346,12.28152c-3.78782,4.09384 -12.24563,54.14377 -20.70343,104.1937" stroke-opacity="0.65153" stroke="#679950" stroke-width="8.53571" opacity="0.5"/><path d="M586.20703,287.56403c-2.81836,17.56291 -5.63672,35.12581 -8.45508,52.68872c-2.81836,17.56291 -28.41574,23.81128 -54.01312,30.05966" stroke-opacity="0.03395" stroke="#e39a4d" stroke-width="9.49322" opacity="0.5"/><path d="M634.43835,402.48993c7.30948,-4.27451 14.61896,-8.54902 5.62817,-10.88019c-8.99078,-2.33117 -34.28183,-2.71901 -59.57288,-3.10684c-25.29105,-0.38784 -13.31496,13.41556 -1.33887,27.21896" stroke-opacity="0.8994" stroke="#da5b89" stroke-width="8.53571" opacity="0.5"/><path d="M635.5022,356.26578c13.83986,6.81062 27.67973,13.62124 41.51959,20.43185c13.83986,6.81062 6.21449,-33.34944 -1.41089,-73.50949" stroke-opacity="0.67258" stroke="#d2ff64" stroke-width="9.07542" opacity="0.5"/><path d="M453.53998,314.20917c9.37316,-18.68007 18.74632,-37.36015 28.11948,-56.04022c9.37316,-18.68007 -28.51255,13.00738 -66.39825,44.69482" stroke-opacity="0.61886" stroke="#bf4d16" stroke-width="8.53571" opacity="0.5"/><path d="M451.245,322.37683c-44.94971,-10.93701 -39.51691,-10.94092 -16.87988,-32.80594" stroke-opacity="0.4481" stroke="#e928bf" stroke-width="8.53571" opacity="0.5"/><path d="M459.14075,321.85089c0.96723,-20.9882 1.93447,-41.9764 2.9017,-62.9646c0.96723,-20.9882 -11.1905,1.21293 -23.34824,23.41406" stroke-opacity="0.8368" stroke="#2f90d6" stroke-width="10.16988" opacity="0.5"/><path d="M583.67108,416.23401c-33.50909,-8.84688 -67.01819,-17.69377 -100.52728,-26.54065c-33.50909,-8.84688 -5.4483,-32.43409 22.61249,-56.0213" stroke-opacity="0.96998" stroke="#3006e7" stroke-width="10.18573" opacity="0.5"/><path d="M458.90033,322.60492c-15.33545,-10.34481 -30.6709,-20.68962 -46.00635,-31.03442c-15.33545,-10.34481 -0.22488,-35.3619 14.88568,-60.379" stroke-opacity="0.89475" stroke="#7df383" stroke-width="10.24107" opacity="0.5"/><path d="M515.77972,372.36798c-31.79899,-49.99492 -63.59797,-99.98984 -67.76642,-116.49799c-4.16845,-16.50815 19.29365,0.47047 42.75574,17.4491c23.46209,16.97862 -23.4717,22.40639 -70.40549,27.83417" stroke-opacity="0.39762" stroke="#66f432" stroke-width="8.53571" opacity="0.5"/><path d="M629.64691,377.95175c-50.76776,8.38034 -87.1571,21.72296 -76.05188,-17.66165" stroke-opacity="0.92486" stroke="#68d7b8" stroke-width="10.20869" opacity="0.5"/><path d="M679.5542,304.7915c-35.75452,22.6299 -71.50903,45.25981 -107.26355,67.88971c-35.75452,22.6299 -5.29391,-1.84891 25.16669,-26.32773" stroke-opacity="0.93913" stroke="#64a013" stroke-width="8.53571" opacity="0.5"/><path d="M623.06738,379.13919c26.76926,18.93249 53.53852,37.86497 65.87646,38.37018c12.33794,0.5052 10.24456,-17.41688 8.15118,-35.33896c-2.09338,-17.92208 -5.8352,-4.96794 -9.57703,7.98621" stroke-opacity="0.54443" stroke="#88a37b" stroke-width="8.53571" opacity="0.5"/><path d="M720.64996,730.93323c-1.78253,-8.02077 -3.56506,-16.04154 -5.3476,-24.06232c-1.78253,-8.02077 -14.47168,4.44704 -27.16083,16.91486" stroke-opacity="0.64095" stroke="#e36c75" stroke-width="8.53571" opacity="0.5"/><path d="M751.20941,731.48102c41.5141,-1.25128 -0.66742,-29.3576 15.66034,-39.96051" stroke-opacity="0.88854" stroke="#7165d4" stroke-width="8.53571" opacity="0.5"/><path d="M724.40063,761.94073c-17.08883,-6.91766 -34.17765,-13.83533 -51.26648,-20.75299c-17.08883,-6.91766 -45.87342,-48.27344 -74.65802,-89.62921" stroke-opacity="0.66507" stroke="#37281d" stroke-width="8.53571" opacity="0.5"/><path d="M698.27039,398.34c-38.85438,12.29043 -77.70876,24.58087 -96.51093,17.61099c-18.80216,-6.96987 -17.55211,-33.20006 -16.30206,-59.43024c1.25005,-26.23018 23.31643,-34.77735 45.38281,-43.32452" stroke-opacity="0.55754" stroke="#d5a384" stroke-width="9.74218" opacity="0.5"/><path d="M281.08575,881.3667c10.3187,25.00952 20.6374,50.01904 7.91373,52.7912c-12.72368,2.77216 -48.48973,-16.69305 -84.25578,-36.15826c-35.76605,-19.46521 22.79839,-13.01266 81.36284,-6.56012" stroke-opacity="0.22995" stroke="#6803ff" stroke-width="8.53571" opacity="0.5"/><path d="M77.99044,319.07278c6.71277,-28.0011 43.68186,-47.4155 27.02726,-94.60391" stroke-opacity="0.10795" stroke="#f20cdb" stroke-width="8.53571" opacity="0.5"/><path d="M503.31717,747.95258c-3.69997,-3.57331 -7.39995,-7.14662 -28.44711,-10.55353c-21.04716,-3.40691 -59.44152,-6.64743 -97.83588,-9.88794c-38.39436,-3.24051 -7.25461,39.53654 23.88513,82.3136" stroke-opacity="0.31874" stroke="#979454" stroke-width="8.53571" opacity="0.5"/><path d="M844.0553,693.30847c39.65051,-12.40106 30.2417,-15.78882 17.93231,8.2832" stroke-opacity="0.50265" stroke="#56b027" stroke-width="8.53571" opacity="0.5"/><path d="M744.09686,328.40366c7.48215,-19.12098 14.9643,-38.24195 18.96942,-27.35602c4.00512,10.88594 4.5332,51.77878 5.06128,92.67163c0.52808,40.89285 9.7605,37.89251 18.99292,34.89218" stroke-opacity="0.46391" stroke="#3492ff" stroke-width="8.53571" opacity="0.5"/><path d="M910.48535,384.64908c40.98383,-29.56302 16.48236,-68.0416 -28.46588,-30.17325" stroke-opacity="0.30058" stroke="#c5d214" stroke-width="8.53571" opacity="0.5"/><path d="M752.32428,196.45325c29.23079,0.47854 58.46158,0.95708 54.49268,3.54543c-3.9689,2.58835 -41.1375,7.28651 -78.30609,11.98466c-37.16859,4.69816 -37.79789,10.5345 -38.42719,16.37083" stroke-opacity="0.41844" stroke="#1a0f68" stroke-width="8.53571" opacity="0.5"/><path d="M188.30232,254.53467c2.90138,33.57349 -41.37819,13.00146 -12.73726,46.11722" stroke-opacity="0.804" stroke="#393172" stroke-width="8.53571" opacity="0.5"/><path d="M297.80521,143.15701c-38.04837,-30.15911 -51.81366,-14.26785 -82.21249,-50.74039" stroke-opacity="0.15722" stroke="#51693b" stroke-width="8.53571" opacity="0.5"/><path d="M842.25317,624.77142c11.57806,-0.70435 23.15613,-1.4087 28.06305,0.29089c4.90692,1.6996 3.1427,5.80314 1.37848,9.90668c-1.76422,4.10354 25.93854,10.58073 53.6413,17.05792" stroke-opacity="0.2508" stroke="#096940" stroke-width="8.53571" opacity="0.5"/><path d="M377.02417,95.51211c3.00086,-41.24805 6.00173,-82.4961 9.00259,-123.74415c3.00086,-41.24805 22.14927,1.5732 41.29767,44.39444" stroke-opacity="0.85375" stroke="#f107e0" stroke-width="10.05006" opacity="0.5"/></g></svg>