<svg version="1.1" xmlns="http://www.w3.org/2000/svg" xmlns:xlink="http://www.w3.org/1999/xlink" width="1084.99219" height="1084.99219"><g fill="none" fill-rule="nonzero" stroke="#181818" stroke-width="12" stroke-linecap="round" stroke-linejoin="round" stroke-miterlimit="10" stroke-dasharray="" stroke-dashoffset="0" font-family="none" font-weight="none" font-size="none" text-anchor="none" style="mix-blend-mode: normal"><path d="M273.09766,382.99609c-1.16799,0.11402 -2.33598,0.22804 0.001,0c2.33698,-0.22804 8.17893,-0.79815 13.999,-1c5.82007,-0.20185 11.61825,-0.03544 26,0c14.38175,0.03544 37.34707,-0.06009 56,0c18.65293,0.06009 32.99346,0.2758 63,0c30.00654,-0.2758 75.67908,-1.04312 106,5c30.32092,6.04312 45.29021,18.89666 57,30c11.70979,11.10334 20.16007,20.45646 26,27c5.83993,6.54354 9.0695,10.27749 16,22c6.9305,11.72251 17.56193,31.43356 24,44c6.43807,12.56644 8.6828,17.98826 12,23c3.3172,5.01174 7.70688,9.61339 12,13c4.29312,3.38661 8.48969,5.55817 14,7c5.51031,1.44183 12.33437,2.15392 19,3c6.66563,0.84608 13.17283,1.82616 24,0c10.82717,-1.82616 25.97429,-6.45856 40,-12c14.02571,-5.54144 26.93,-11.99193 36,-16c9.07,-4.00807 14.30571,-5.57374 19,-7c4.69429,-1.42626 8.84714,-2.71313 13,-4c4.15286,-1.28687 4.57643,-1.64343 5,-2" opacity="0.75"/></g></svg>