<svg version="1.1" xmlns="http://www.w3.org/2000/svg" xmlns:xlink="http://www.w3.org/1999/xlink" width="1104" height="1104"><g fill="none" fill-rule="nonzero" stroke="#181818" stroke-width="8" stroke-linecap="round" stroke-linejoin="round" stroke-miterlimit="10" stroke-dasharray="" stroke-dashoffset="0" font-family="none" font-weight="none" font-size="none" text-anchor="none" style="mix-blend-mode: normal"><path d="M296,370c1.66693,0 2.35347,-2.74001 4,-3c16.4627,-2.59951 33.33333,0 50,0c38.66667,0 77.33333,0 116,0c3.26705,0 53.70355,-3.36484 68,4c21.50039,11.07596 19,30.70286 19,51c0,11 2.76058,22.35203 0,33c-4.38287,16.90534 -12.97652,32.48795 -21,48c-36.14097,69.87254 -79.78948,131.42406 -148,173c-17.94963,10.94073 -36.09441,22.24306 -56,29c-16.91863,5.74302 -35.19126,6.56091 -53,8c-27.2266,2.20013 -61.89407,3.48474 -85,-15"/></g></svg>