<svg version="1.1" xmlns="http://www.w3.org/2000/svg" xmlns:xlink="http://www.w3.org/1999/xlink" width="960.99609" height="960.99609"><g fill="none" fill-rule="nonzero" stroke="#181818" stroke-width="12" stroke-linecap="round" stroke-linejoin="round" stroke-miterlimit="10" stroke-dasharray="" stroke-dashoffset="0" font-family="none" font-weight="none" font-size="none" text-anchor="none" style="mix-blend-mode: normal"><path d="M647.16797,553.00391c1.56143,-0.65685 3.12287,-1.31369 0.001,0c-3.12187,1.31369 -10.92704,4.59792 -16.001,7c-5.07396,2.40208 -7.41671,3.92203 -14,7c-6.58329,3.07797 -17.40712,7.71397 -26,11c-8.59288,3.28603 -14.95481,5.22208 -24,7c-9.04519,1.77792 -20.77362,3.39771 -29,4c-8.22638,0.60229 -12.95069,0.18708 -19,0c-6.04931,-0.18708 -13.42362,-0.14601 -22,0c-8.57638,0.14601 -18.35484,0.39698 -25,0c-6.64516,-0.39698 -10.15701,-1.44192 -14,-4c-3.84299,-2.55808 -8.0171,-6.62932 -11,-11c-2.9829,-4.37068 -4.77458,-9.0408 -6,-14c-1.22542,-4.9592 -1.88457,-10.20747 -2,-18c-0.11543,-7.79253 0.31286,-18.12933 0,-27c-0.31286,-8.87067 -1.36685,-16.27521 0,-24c1.36685,-7.72479 5.15456,-15.76984 9,-22c3.84544,-6.23016 7.74862,-10.64545 12,-15c4.25138,-4.35455 8.85096,-8.64838 14,-12c5.14904,-3.35162 10.84752,-5.76104 16,-7c5.15248,-1.23896 9.75895,-1.30748 16,-1c6.24105,0.30748 14.11668,0.99095 20,0c5.88332,-0.99095 9.77432,-3.65632 18,11c8.22568,14.65632 20.78602,46.63435 25,60c4.21398,13.36565 0.08158,8.11893 0,7c-0.08158,-1.11893 3.88766,1.88992 -1,6c-4.88766,4.11008 -18.6322,9.32138 -33,13c-14.3678,3.67862 -29.35884,5.82456 -49,7c-19.64116,1.17544 -43.93244,1.38038 -61,2c-17.06756,0.61962 -26.9114,1.65393 -42,0c-15.0886,-1.65393 -35.42196,-5.99609 -51,-12c-15.57804,-6.00391 -26.40074,-13.66956 -36,-22c-9.59926,-8.33044 -17.97506,-17.32569 -25,-27c-7.02494,-9.67431 -12.69902,-20.0277 -17,-31c-4.30098,-10.9723 -7.22885,-22.56351 -9,-31c-1.77115,-8.43649 -2.38557,-13.71824 -3,-19c-0.61443,-5.28176 -0.80721,-12.14088 -1,-19" opacity="0.75"/></g></svg>