<svg version="1.1" xmlns="http://www.w3.org/2000/svg" xmlns:xlink="http://www.w3.org/1999/xlink" width="1104" height="1104"><g fill="none" fill-rule="nonzero" stroke="none" stroke-width="none" stroke-linecap="round" stroke-linejoin="round" stroke-miterlimit="4" stroke-dasharray="" stroke-dashoffset="0" font-family="none" font-weight="none" font-size="none" text-anchor="none" style="mix-blend-mode: normal"><path d="M324.6469,788.4797c227.15191,74.52 465.79911,47.8032 469.17707,15.5664c3.41578,-32.2368 -239.99057,-117.34416 -430.2062,-48.2448" id="path27410-0-4 1" stroke="#5d5955" stroke-width="25.42026"/><path d="M567.70689,795.72194c-10.22856,-126.41904 -19.73279,-252.94848 0,-383.84976" id="path31436-4 1" stroke="#a57213" stroke-width="39.58734"/><path d="M572.74259,571.7093c45.74579,-35.6592 87.70353,-35.7696 95.8824,-33.12" id="path32263-7 1" stroke="#a57213" stroke-width="15.07137"/><path d="M543.9709,638.08178c-66.17023,-35.5488 -58.82222,-96.9312 -104.57055,-92.9568" id="path32265-6 1" stroke="#a57213" stroke-width="15.07137"/><path d="M577.18564,411.4085c1.80614,-61.0512 58.14481,-88.2096 76.35043,-101.3472" id="path32267-3 1" stroke="#a57213" stroke-width="19.49222"/><path d="M567.70689,411.87218c-31.5893,-49.9008 -46.75054,-56.856 -65.80006,-63.2592" id="path32426-1 1" stroke="#a57213" stroke-width="19.49222"/><path d="M501.90538,348.55778c0,0 4.31995,-18.6576 -1.80835,-24.288c-6.12941,-5.52 -16.20628,-11.9232 -16.20628,-11.9232" id="path32428-7 1" stroke="#a57213" stroke-width="9.4447"/><path d="M501.90538,348.55778c-58.96861,18.216 -60.9079,21.7488 -61.73182,25.944" id="path32430-5 1" stroke="#a57213" stroke-width="9.4447"/><path d="M668.6302,538.5341c0,0 -4.31995,-18.6576 1.80504,-24.288c6.12941,-5.52 16.20628,-11.9232 16.20628,-11.9232" id="path32428-3-9 1" stroke="#a57213" stroke-width="9.4447"/><path d="M668.6302,538.5341c58.96861,18.216 60.90691,21.7488 61.73082,25.944" id="path32430-8-6 1" stroke="#a57213" stroke-width="9.4447"/><path d="M653.53193,310.08338c0,0 18.52733,6.624 26.4748,4.416c7.93666,-2.208 15.99508,5.52 15.99508,5.52" id="path32428-9-2 1" stroke="#a57213" stroke-width="9.4447"/><path d="M567.70689,411.87218c0,0 16.20628,-21.3072 24.15375,-23.736c7.93666,-2.208 22.48616,4.416 22.48616,4.416" id="path32428-9-8-1 1" stroke="#a57213" stroke-width="9.4447"/><path d="M653.53193,310.08338c13.68408,-60.168 -40.83232,-31.7952 -44.0878,-34.5552" id="path32430-6-7 1" stroke="#a57213" stroke-width="9.4447"/><path d="M544.32753,499.09922c0,0 -2.00928,-21.0864 -8.03822,-26.7168c-6.12941,-5.52 -16.20595,-11.9232 -16.20595,-11.9232" id="path32428-5-8 1" stroke="#a57213" stroke-width="9.4447"/><path d="M440.44737,543.0053c0,0 4.31995,-18.6576 -1.80835,-24.288c-6.12941,-5.52 -16.20628,-11.9232 -16.20628,-11.9232" id="path32428-5-4-5 1" stroke="#a57213" stroke-width="9.4447"/><path d="M440.44737,543.0053c-43.32427,37.7568 -58.28535,24.9504 -61.72177,25.944" id="path32430-0-7 1" stroke="#a57213" stroke-width="9.4447"/><path d="M365.26159,575.47394c-8.9424,23.8464 -30.00175,52.1088 -50.10648,57.408" id="path34239-4 1" stroke="#1d810f" stroke-width="17.08087"/><path d="M365.26159,575.47394c-62.51555,18.1056 -51.14136,56.4144 -50.10648,57.408" id="path34241-1 1" stroke="#1d810f" stroke-width="17.08087"/><path d="M374.92761,572.62562c-41.46536,27.1584 -53.85433,44.6016 -59.77255,60.2784" id="path34237-8 1" stroke="#5ae733" stroke-width="6.02852"/><path d="M365.0298,562.89938c-23.99478,8.832 -59.12494,11.04 -76.16099,-1.08192" id="path34239-5-9 1" stroke="#1d810f" stroke-width="17.08076"/><path d="M365.0298,562.89938c-54.26469,-35.9904 -76.06085,-2.208 -76.16099,-1.08192" id="path34241-6-7 1" stroke="#1d810f" stroke-width="17.08076"/><path d="M378.72088,568.93826c-29.85591,-15.1248 -70.58722,-13.1376 -84.59455,-6.624" id="path34237-1-5 1" stroke="#5ae733" stroke-width="6.02852"/><path d="M426.48831,368.4629c-23.99467,8.832 -59.12494,11.04 -76.16088,-1.08192" id="path34239-5-3-8 1" stroke="#1d810f" stroke-width="17.08076"/><path d="M426.48831,368.4629c-54.26458,-35.9904 -76.06085,-2.208 -76.16088,-1.08192" id="path34241-6-0-3 1" stroke="#1d810f" stroke-width="17.08076"/><path d="M440.17942,374.50178c-47.54144,-14.0208 -68.85339,-12.2544 -84.59455,-6.624" id="path34237-1-4-1 1" stroke="#5ae733" stroke-width="6.02852"/><path d="M428.6897,384.0845c-2.97418,25.2816 -16.58451,57.7392 -34.81641,67.7856" id="path34239-5-3-4-4 1" stroke="#1d810f" stroke-width="17.08076"/><path d="M428.6897,384.0845c-56.30875,32.6784 -36.07,67.0128 -34.81641,67.7856" id="path34241-6-0-7-3 1" stroke="#1d810f" stroke-width="17.08076"/><path d="M440.17881,374.50178c-33.707,36.3216 -41.53546,56.304 -43.51008,72.864" id="path34237-1-4-6-3 1" stroke="#5ae733" stroke-width="6.02852"/><path d="M407.61237,504.87314c-20.59711,15.0144 -53.6735,27.048 -73.37615,20.424" id="path34239-1-3 1" stroke="#1d810f" stroke-width="17.08087"/><path d="M407.61237,504.87314c-62.20311,-19.2096 -73.68758,18.9888 -73.37615,20.424" id="path34241-5-8 1" stroke="#1d810f" stroke-width="17.08087"/><path d="M422.45039,506.7941c-49.5738,-0.06624 -69.50784,7.728 -83.02212,17.5536" id="path34237-9-6 1" stroke="#5ae733" stroke-width="6.02852"/><path d="M414.32416,494.23058c-24.7604,-5.52 -55.34076,-23.4048 -63.04105,-42.7248" id="path34239-5-4-4 1" stroke="#1d810f" stroke-width="17.08076"/><path d="M414.32416,494.23058c-25.60905,-59.8368 -62.16171,-43.9392 -63.04105,-42.7248" id="path34241-6-8-8 1" stroke="#1d810f" stroke-width="17.08076"/><path d="M416.41802,501.56114c-29.89323,-33.5616 -50.14578,-46.6992 -67.05641,-51.9984" id="path34237-1-1-8 1" stroke="#5ae733" stroke-width="6.02852"/><path d="M469.07039,310.42562c-20.59711,15.0144 -53.6735,27.048 -73.37626,20.424" id="path34239-1-4-89 1" stroke="#1d810f" stroke-width="17.08087"/><path d="M469.07039,310.42562c-62.203,-19.2096 -73.68769,18.9888 -73.37626,20.424" id="path34241-5-1-7 1" stroke="#1d810f" stroke-width="17.08087"/><path d="M483.90843,312.35762c-49.57402,-0.06624 -69.50784,7.728 -83.02224,17.5536" id="path34237-9-8-76 1" stroke="#5ae733" stroke-width="6.02852"/><path d="M475.78221,299.7941c-24.7604,-5.52 -55.34076,-23.4048 -63.04116,-42.7248" id="path34239-5-4-9-3 1" stroke="#1d810f" stroke-width="17.08076"/><path d="M475.78221,299.7941c-25.60916,-59.8368 -62.16182,-43.9392 -63.04105,-42.7248" id="path34241-6-8-7-0 1" stroke="#1d810f" stroke-width="17.08076"/><path d="M483.9091,312.35762c-32.0128,-37.8672 -50.82672,-48.024 -67.05641,-51.9984" id="path34237-1-1-5-30 1" stroke="#5ae733" stroke-width="6.02852"/><path d="M594.60788,273.59618c-20.59711,15.0144 -53.67339,27.048 -73.37626,20.424" id="path34239-1-4-2-9 1" stroke="#1d810f" stroke-width="17.08087"/><path d="M594.60788,273.59618c-62.20311,-19.2096 -73.68769,18.9888 -73.37626,20.424" id="path34241-5-1-1-2 1" stroke="#1d810f" stroke-width="17.08087"/><path d="M609.44691,275.52818c-49.57402,-0.06624 -69.50784,7.728 -83.02224,17.5536" id="path34237-9-8-0-5 1" stroke="#5ae733" stroke-width="6.02852"/><path d="M601.31961,262.96466c-24.7604,-5.52 -55.34087,-23.4048 -63.04105,-42.7248" id="path34239-5-4-9-1-0 1" stroke="#1d810f" stroke-width="17.08076"/><path d="M601.31961,262.96466c-25.60916,-59.8368 -62.16182,-43.9392 -63.04105,-42.7248" id="path34241-6-8-7-1-5 1" stroke="#1d810f" stroke-width="17.08076"/><path d="M609.44653,275.52818c-32.01291,-37.8672 -50.82672,-48.024 -67.05641,-51.9984" id="path34237-1-1-5-0-9 1" stroke="#5ae733" stroke-width="6.02852"/><path d="M739.90645,575.99282c-1.68581,25.392 5.78275,59.8368 21.89232,72.9744" id="path34239-1-4-8-6 1" stroke="#1d810f" stroke-width="17.08076"/><path d="M739.90645,575.99282c49.41791,42.3936 23.25841,72.4224 21.89232,72.9744" id="path34241-5-1-9-92 1" stroke="#1d810f" stroke-width="17.08076"/><path d="M730.35587,564.46706c26.5204,41.8416 30.59173,62.928 29.51102,79.5984" id="path34237-9-8-7-2 1" stroke="#5ae733" stroke-width="6.02852"/><path d="M745.31787,564.63266c18.30178,17.7744 49.36779,34.224 69.80206,30.4704" id="path34239-5-4-9-6-4 1" stroke="#1d810f" stroke-width="17.08076"/><path d="M745.31787,564.63266c64.27378,-9.936 70.3099,29.1456 69.80206,30.4704" id="path34241-6-8-7-4-7 1" stroke="#1d810f" stroke-width="17.08076"/><path d="M730.35587,564.46706c49.09841,6.624 67.74751,17.3328 79.76466,28.9248" id="path34237-1-1-5-3-7 1" stroke="#5ae733" stroke-width="6.02852"/><path d="M705.55128,331.6997c-1.68581,25.392 5.78275,59.8368 21.89232,72.9744" id="path34239-1-4-8-4-4 1" stroke="#1d810f" stroke-width="17.08076"/><path d="M705.55128,331.6997c49.41791,42.3936 23.25841,72.5328 21.89232,72.9744" id="path34241-5-1-9-7-8 1" stroke="#1d810f" stroke-width="17.08076"/><path d="M696.0007,320.18498c26.5204,41.8416 30.59173,62.928 29.51102,79.5984" id="path34237-9-8-7-7-1 1" stroke="#5ae733" stroke-width="6.02852"/><path d="M710.96276,320.35058c18.30178,17.7744 49.3679,34.224 69.80217,30.4704" id="path34239-5-4-9-6-5-2 1" stroke="#1d810f" stroke-width="17.08076"/><path d="M710.96276,320.35058c64.27378,-9.936 70.30979,29.1456 69.80217,30.4704" id="path34241-6-8-7-4-4-8 1" stroke="#1d810f" stroke-width="17.08076"/><path d="M696.0007,320.18498c49.09841,6.624 67.74751,17.3328 79.76466,28.9248" id="path34237-1-1-5-3-8-9 1" stroke="#5ae733" stroke-width="6.02852"/><path d="M616.85465,407.79842c-14.16962,21.1968 -24.90127,54.7584 -17.5154,74.1888" id="path34239-1-4-8-2-6 1" stroke="#1d810f" stroke-width="17.08076"/><path d="M616.85465,407.79842c21.61599,61.3824 -16.08627,74.4096 -17.51551,74.1888" id="path34241-5-1-9-8-8 1" stroke="#1d810f" stroke-width="17.08076"/><path d="M614.34236,393.04898c2.02474,49.5696 -4.94592,69.7728 -14.21831,83.6832" id="path34237-9-8-7-9-0 1" stroke="#5ae733" stroke-width="6.02852"/><path d="M627.21751,400.66658c6.98722,24.5088 25.61567,54.4272 45.20935,61.272" id="path34239-5-4-9-6-3-2 1" stroke="#1d810f" stroke-width="17.08076"/><path d="M627.21751,400.66658c60.80898,23.184 46.32936,60.3888 45.20935,61.272" id="path34241-6-8-7-4-6-1 1" stroke="#1d810f" stroke-width="17.08076"/><path d="M614.34236,393.04898c39.09032,30.4704 50.00358,48.9072 54.6077,64.9152" id="path34237-1-1-5-3-80-0 1" stroke="#5ae733" stroke-width="6.02852"/><path d="M695.05187,489.9581c-4.01966,-25.1712 0.12958,-60.0576 14.92983,-74.7408" id="path34239-1-4-8-5-5 1" stroke="#1d810f" stroke-width="17.08087"/><path d="M695.05187,489.9581c45.21322,-46.8096 16.33677,-74.2992 14.92983,-74.7408" id="path34241-5-1-9-9-1 1" stroke="#1d810f" stroke-width="17.08087"/><path d="M686.62703,502.3229c22.46585,-44.16 24.54567,-65.4672 21.8932,-82.0272" id="path34237-9-8-7-4-1 1" stroke="#5ae733" stroke-width="6.02852"/><path d="M701.50728,500.75522c16.54775,-19.4304 45.92662,-38.7504 66.62408,-36.8736" id="path34239-5-4-9-6-6-0 1" stroke="#1d810f" stroke-width="17.08087"/><path d="M701.50728,500.75522c64.95627,4.416 67.25712,-35.6592 66.62408,-36.8736" id="path34241-6-8-7-4-9-8 1" stroke="#1d810f" stroke-width="17.08087"/><path d="M686.62703,502.3229c48.23762,-11.4816 65.82026,-23.6256 76.69212,-36.3216" id="path34237-1-1-5-3-2-5 1" stroke="#5ae733" stroke-width="6.02852"/><path d="M505.19192,458.51618c-20.597,15.0144 -53.67361,27.048 -73.37626,20.424" id="path34239-1-4-8-0-0 1" stroke="#1d810f" stroke-width="17.08087"/><path d="M505.19192,458.51618c-62.20411,-19.2096 -73.68769,18.9888 -73.37626,20.424" id="path34241-5-1-9-3-6 1" stroke="#1d810f" stroke-width="17.08087"/><path d="M520.03095,460.43714c-49.57391,-0.06624 -69.50784,7.728 -83.02212,17.5536" id="path34237-9-8-7-0-4 1" stroke="#5ae733" stroke-width="6.02852"/><path d="M511.90356,449.97122c-24.75676,-6.624 -55.34142,-23.4048 -63.03708,-42.7248" id="path34239-5-4-9-6-9-6 1" stroke="#1d810f" stroke-width="17.08087"/><path d="M511.90356,447.87362c-25.61092,-59.8368 -62.16282,-43.9392 -63.03708,-42.7248" id="path34241-6-8-7-4-2-2 1" stroke="#1d810f" stroke-width="17.08087"/><path d="M516.89011,456.25298c-32.01136,-37.8672 -50.82993,-48.024 -67.05619,-51.9984" id="path34237-1-1-5-3-5-5 1" stroke="#5ae733" stroke-width="6.02852"/><path d="M370.38779,838.83314c195.55775,72.9744 360.56842,41.4 374.14655,36.2112" id="path37562-8 1" stroke="#d74619" stroke-width="39.94327"/></g></svg>