<svg version="1.1" xmlns="http://www.w3.org/2000/svg" xmlns:xlink="http://www.w3.org/1999/xlink" width="956" height="956"><g fill="none" fill-rule="nonzero" stroke="none" stroke-width="8" stroke-linecap="round" stroke-linejoin="round" stroke-miterlimit="4" stroke-dasharray="" stroke-dashoffset="0" font-family="none" font-weight="none" font-size="none" text-anchor="none" style="mix-blend-mode: normal"><path d="M452.99294,209.21596c-13.85473,18.92775 -95.8356,34.48311 -103.5583,39.86338c-7.60402,5.2972 -17.80588,54.90442 -8.63937,63.09963c9.16613,8.19483 44.56948,-10.01114 67.94359,9.92519c55.73853,47.54102 71.13663,99.60098 142.65311,-7.09543c6.50654,-6.7312 60.30486,12.82311 65.12951,6.27805c4.82302,-6.54382 15.51903,-51.37286 -1.19213,-60.81431c-16.70744,-9.44146 -100.66856,-34.26964 -107.40089,-47.36894c-6.7312,-13.09921 2.68923,-33.22626 -25.8511,-33.88389c-28.54367,-0.65746 -21.94431,8.22256 -24.2955,21.94871" id="path25603-0 1" stroke="#f0d3a7"/><path d="M479.22376,217.52168c-1.26479,24.95791 -108.0888,35.41492 -96.73332,68.37226c85.52089,9.24739 83.91672,118.48791 162.35001,31.98432c8.77608,-9.83227 36.72818,-24.18451 34.39162,-27.548c-2.33455,-3.36321 -99.76045,-50.59391 -96.68957,-56.59826" id="path25656-6 1" stroke="#f0d3a7"/><path d="M476.62158,294.51332c-27.84962,19.48271 -15.66884,82.60777 -9.62797,83.18988c6.0381,0.58286 21.11823,-67.29227 21.7447,-76.96593c0.62797,-9.67376 -42.88874,3.85746 -41.99259,9.91821" id="path25660-5 1" stroke="#f0d3a7"/><path d="M317.12083,286.76119c-3.38193,19.97354 -3.46141,40.06274 0.96012,39.57769c4.42146,-0.48536 -1.42498,-24.06047 5.80926,-24.91023c7.23431,-0.84976 3.44613,22.76359 7.85691,20.28135c4.41047,-2.48217 -0.70961,-19.67603 8.40179,-13.27143c9.11163,6.40467 9.10064,17.54682 18.78134,9.54323c9.68093,-8.00352 10.41933,-8.6652 13.56518,-5.8343" id="path27328-4 1" stroke="#0071d1"/><path d="M370.39887,337.09558c70.4133,-6.54652 63.37206,-6.73713 83.08856,10.84272c14.01729,12.49824 103.79859,78.69483 99.51552,89.65281c-4.28314,10.95814 -6.69082,20.9074 -45.92622,17.08304c-39.23533,-3.82443 -100.22398,-3.03066 -102.92379,-12.22614c-2.69966,-9.19549 -25.81836,-92.90564 -21.97696,-92.58248c3.84133,0.32332 48.26854,4.18738 60.3851,14.33208c12.11663,10.14471 91.05514,65.64119 87.25336,69.52437c-3.80155,3.88318 -99.74991,5.49601 -105.61876,-0.32178c-5.86878,-5.81748 -28.38624,-52.2071 -20.01064,-59.84613c8.3756,-7.63904 89.74574,49.29817 87.78142,49.29817c-1.96425,0 -45.60567,0.2158 -52.60913,-2.96515c-7.00346,-3.1811 -15.07978,-17.20346 -12.59508,-23.42152c2.48463,-6.21805 16.67417,17.47164 22.08056,14.89723" id="path27330-7 1" stroke="#0071d1"/><path d="M502.22267,352.5807c28.70226,-22.9539 52.56659,-28.61555 68.11921,-23.99343c23.3888,6.95101 -0.1152,84.61905 -3.97135,86.67016c-3.81998,2.03191 -44.47007,-45.67763 -46.91184,-51.05314c-2.44193,-5.37551 35.69796,-28.70141 37.07363,-22.05352c1.37559,6.64789 5.03898,44.33222 1.20226,42.15662c-3.83664,-2.17552 -26.40271,-15.87886 -18.13478,-22.78371c8.2677,-6.90493 6.3033,-3.52769 7.71975,1.64239" id="path27332-6 1" stroke="#0071d1"/><path d="M594.62321,307.52597c40.91297,-21.66255 50.84786,-35.99609 48.36085,-29.284c-2.48708,6.71217 -8.14936,17.81676 -12.30563,20.52556c-4.15627,2.70872 -0.02304,15.12363 -8.23898,16.13866c-8.21801,1.01511 -25.65071,1.50415 -20.31153,-3.09025c5.33903,-4.59433 12.29626,-0.3356 17.68106,-6.39023" id="path27334-5 1" stroke="#0071d1"/><path d="M402.42169,471.14335c50.22365,5.08798 82.58423,7.60371 101.5293,6.11591c18.94515,-1.48772 47.81605,-2.1663 56.58831,-6.57985" id="path27336-6 1" stroke="#0071d1"/><path d="M321.6226,262.49298c3.89283,14.54458 4.14522,34.95834 47.23089,41.62443c43.08616,6.66523 53.37071,5.18152 74.31762,17.7859c20.94672,12.60429 112.14008,92.01854 120.40477,106.59045c18.77508,33.10418 -14.56657,35.92543 -55.47123,37.8402c-40.67034,1.89957 -110.97304,-9.22922 -117.01922,-11.92065c-6.04766,-2.68923 -24.48756,-107.19228 -30.14947,-123.85865" id="path553-6-9 1" stroke="#00095e"/><path d="M324.20591,258.0451c-10.36572,11.98336 -24.16921,30.9939 -22.80366,37.27779c1.37186,6.28379 -2.96551,20.0194 3.78385,21.66181c6.74936,1.64336 1.49232,21.96993 8.24932,23.67687c6.75605,1.70646 33.17855,-11.64456 69.98952,-19.56731c36.81116,-7.92237 38.07777,-6.2293 51.43165,-0.97225" id="path555-0-3 1" stroke="#00095e"/><path d="M482.15002,349.14046c19.28491,-17.02703 34.7636,-35.50211 60.96183,-38.605c26.19813,-3.10222 52.54922,4.27714 54.20386,26.2357c1.65866,21.95884 -24.62885,101.66931 -28.49454,113.82065" id="path557-6-7 1" stroke="#00095e"/><path d="M570.56943,308.80071c60.5648,-34.86465 63.15107,-33.83609 72.01041,-42.67517" id="path559-2-4 1" stroke="#00095e"/><path d="M641.77772,264.88605c12.78143,5.16527 28.93019,-4.21596 19.31302,11.60622c-9.61793,15.82256 -10.74974,7.48261 -11.01092,21.31918c-0.26032,13.83714 -10.71733,2.05062 -12.10181,15.95373c-1.38524,13.90502 -10.11467,21.94278 -44.03202,12.78822" id="path561-6-5 1" stroke="#00095e"/><path d="M387.94251,452.76366c7.61645,31.83843 4.12227,31.60976 13.05189,33.98656c8.93191,2.37566 152.04598,3.67964 161.76281,-4.69492c16.10764,-13.88131 10.39698,-20.49827 3.12421,-28.5452" id="path563-1-2 1" stroke="#00095e"/></g></svg>