<svg version="1.1" xmlns="http://www.w3.org/2000/svg" xmlns:xlink="http://www.w3.org/1999/xlink" width="2064" height="2064"><g fill="none" fill-rule="nonzero" stroke="#181818" stroke-width="21" stroke-linecap="round" stroke-linejoin="round" stroke-miterlimit="10" stroke-dasharray="" stroke-dashoffset="0" font-family="none" font-weight="none" font-size="none" text-anchor="none" style="mix-blend-mode: normal"><path d="M783.001,754c-0.00095,19.01168 1.999,37.98832 1.999,57c0,34.68109 -2.70104,69.3202 -3,104c-0.38217,44.33169 1.81542,88.70385 0,133c-1.42279,34.71596 -6.25297,69.26293 -7,104c-0.60918,28.32678 1.48917,56.70583 0,85c-1.90897,36.27043 -14,71.68801 -14,108"/><path d="M1112.001,940c-14.75721,103.24884 -3.1676,208.1323 -10.001,312c-1.84052,27.97592 -3.49882,39.45966 -10,65c-3.84504,15.10551 -13,34.73735 -13,51"/><path d="M1422.001,814c30.34711,78.91827 -4.78379,171.11753 -14.001,251c-4.02233,34.86021 -1.11112,68.37044 -3,103c-1.35077,24.76403 -6.32393,43.58621 -12,67c-4.07915,16.8265 -4.87584,33.6689 -11,50"/><path d="M1411.001,820c-62.78479,23.54135 -119.07429,61.16008 -181.001,87c-19.16443,7.99667 -39.52681,12.78771 -59,20c-14.1125,5.22685 -27.83879,11.78271 -42,17c-1.8998,0.69992 -13.55324,6.23059 -14,6c-9.36688,-4.83452 -16.83019,-12.80137 -26,-18c-33.21065,-18.82809 -66.57348,-37.49972 -101,-54c-21.99249,-10.54078 -45.32542,-18.01997 -68,-27c-40.51931,-16.04725 -79.79696,-30.59962 -123,-36"/><path d="M784.001,764c-3.61284,-28.88825 -9.62198,-58.05527 -12.001,-87c-0.84646,-10.29861 0.93554,-20.7091 0,-31c-1.07166,-11.78824 -4.27781,-23.2891 -6,-35c-3.11333,-21.17064 -2.92937,-42.70208 -5,-64c-2.42966,-24.99082 -7,-49.89135 -7,-75c0,-26.2084 -1.61159,-54.8841 1,-81c3.33894,-33.38943 13,-65.14602 13,-99"/></g></svg>