<svg version="1.1" xmlns="http://www.w3.org/2000/svg" xmlns:xlink="http://www.w3.org/1999/xlink" width="1104" height="1104"><g fill="none" fill-rule="nonzero" stroke="none" stroke-width="none" stroke-linecap="round" stroke-linejoin="round" stroke-miterlimit="10" stroke-dasharray="" stroke-dashoffset="0" font-family="none" font-weight="none" font-size="none" text-anchor="none" style="mix-blend-mode: normal"><path d="M586.69147,553.56071c10.29539,8.64102 20.59078,17.28204 22.15812,31.76359c1.56734,14.48155 -5.59337,34.80364 -12.75408,55.12572c-7.16071,20.32208 -12.38473,81.05133 -17.60876,141.78058" stroke-opacity="0.93719" stroke="#1eb95e" stroke-width="11.05456"/><path d="M747.60132,774.86625c-30.48553,-24.93254 -49.79575,-7.24613 -31.84793,-19.45927" stroke-opacity="0.5084" stroke="#6b78de" stroke-width="12.36149"/><path d="M318.95102,302.0485c-30.21243,-59.07355 -60.42485,-118.14709 -56.47398,-129.68947c3.95088,-11.54237 42.06505,24.44642 80.17923,60.43522c38.11418,35.9888 13.85652,0.53712 -10.40113,-34.91456" stroke-opacity="0.51362" stroke="#42e633" stroke-width="11.09211"/><path d="M512,259c3.68179,0 -1,7.31821 -1,11c0,11 0,22 0,33c0,19.33333 0,38.66667 0,58c0,5.28923 -1.80603,10.76083 -1,16c1.65127,10.73328 3.72249,21.14118 5,32c1.46209,12.42777 6.67629,35.09353 21,39c14.53673,3.96456 36.70887,6.35918 51,1c14.82931,-5.56099 26.32296,-18.44606 38,-28c14.49338,-11.85822 30.26312,-22.74206 42,-38c10.90139,-14.17181 19.23954,-30.07223 29,-45c14.84125,-22.69839 28.40351,-53.80117 56,-63c6.48408,-2.16136 14.27006,-2 21,-2c11.09384,0 23.32873,-1.55709 34,2c35.12401,11.708 60.04653,46.04653 85,71c15.25102,15.25102 32.83931,28.63494 49,43" stroke="#181818" stroke-width="8"/></g></svg>