<svg version="1.1" xmlns="http://www.w3.org/2000/svg" xmlns:xlink="http://www.w3.org/1999/xlink" width="1174" height="1174"><g fill="none" fill-rule="nonzero" stroke="#181818" stroke-width="8" stroke-linecap="round" stroke-linejoin="round" stroke-miterlimit="10" stroke-dasharray="" stroke-dashoffset="0" font-family="none" font-weight="none" font-size="none" text-anchor="none" style="mix-blend-mode: normal"><path d="M754,387.5c3.00104,0 -0.38395,6.02362 0,9c2.07527,16.0874 5.14855,32.0319 8,48c3.83888,21.49772 10.3102,42.47619 14,64c2.04004,11.90025 2.33902,24.04095 4,36c4.23762,30.51088 8,36.52761 8,66c0,20.92915 -8.51868,68.70895 -39,60"/><path d="M573,497.5c5.21804,0 4.66655,9.33277 7,14c5.13347,10.26768 10.11208,20.61318 15,31c8.96072,19.04153 15.37749,40.17054 19,61c1.37548,7.90901 0.62452,16.09099 2,24c1.30239,7.48876 4.57773,14.53308 6,22c3.00942,15.79948 2,32.0256 2,48"/><path d="M523,658.5c7.45437,0 2.99298,14.61397 4,22c3.43966,25.22838 12.02094,57.89531 7,83"/></g></svg>