<svg version="1.1" xmlns="http://www.w3.org/2000/svg" xmlns:xlink="http://www.w3.org/1999/xlink" width="1065" height="1065"><g fill="none" fill-rule="nonzero" stroke="none" stroke-width="none" stroke-linecap="none" stroke-linejoin="none" stroke-miterlimit="10" stroke-dasharray="" stroke-dashoffset="0" font-family="none" font-weight="none" font-size="none" text-anchor="none" style="mix-blend-mode: normal"><path d="M504.67515,232.98716c-46.59024,11.30495 -93.18049,22.60991 -115.54042,44.50698c-22.35994,21.89707 -20.48957,54.38626 -9.60799,70.19203c10.88158,15.80577 30.77436,14.92811 75.92412,10.99989c45.14976,-3.92823 115.55649,-10.90703 158.75569,-7.64305c43.19921,3.26398 59.1909,16.77076 72.6572,6.82272c13.46631,-9.94804 24.40723,-43.35089 -1.49861,-67.57862c-25.90584,-24.22773 -88.65845,-39.28034 -119.56038,-52.83634c-30.90193,-13.556 -29.95318,-25.61539 -29.00444,-37.67477c0.94875,-12.05939 -12.87256,6.04627 -26.69388,24.15193" stroke="#eed1a6" stroke-width="30.75176" stroke-linecap="round" stroke-linejoin="round"/><path d="M534.06191,242.06857c-64.87311,27.70834 -129.74623,55.41668 -107.99387,76.52139c21.75236,21.10471 130.1302,35.60578 181.11291,35.30445c50.98271,-0.30133 44.57028,-15.40505 38.15785,-30.50878c-6.41243,-15.10373 -57.05437,-39.00967 -107.69631,-62.91562" stroke="#eed2a6" stroke-width="67.66006" stroke-linecap="round" stroke-linejoin="round"/><path d="M530.84313,328.06921c-6.47049,45.70915 -12.94098,91.41829 -10.67364,92.55477c2.26733,1.13648 13.27249,-42.29971 24.27765,-85.7359c11.00516,-43.43619 -17.8658,-16.03305 -46.73676,11.3701" stroke="#eed2a6" stroke-width="120.83152" stroke-linecap="round" stroke-linejoin="round"/><path d="M352.91839,318.54305c-0.23032,22.50403 -0.46064,45.00806 0.69653,43.8427c1.15717,-1.16537 3.70182,-26.00014 6.72793,-27.75009c3.02612,-1.74995 6.5337,19.58491 8.97959,22.94506c2.44589,3.36016 3.83007,-11.25439 8.62483,-14.98905c4.79476,-3.73466 13.00009,3.41058 21.20541,10.55582c8.20533,7.14524 11.42911,0.37511 14.6529,-6.39501" stroke="#0070d0" stroke-width="24.65007" stroke-linecap="round" stroke-linejoin="round"/><path d="M412.03314,374.35584c25.86045,-5.75449 51.72091,-11.50899 92.52985,12.04123c40.80894,23.55022 96.56638,76.40514 110.8477,99.90284c14.28132,23.4977 -12.91347,17.63816 -51.15181,19.16879c-38.23833,1.53063 -87.5202,10.45142 -114.60123,-13.65312c-27.08102,-24.10454 -31.9612,-81.23441 -24.59675,-103.12246c7.36445,-21.88805 26.97352,-8.53428 67.54526,15.62732c40.57174,24.1616 102.10616,59.13104 96.87352,77.70908c-5.23265,18.57804 -77.23236,20.76468 -117.655,-0.24053c-40.42264,-21.00521 -49.2682,-65.20228 -22.33694,-66.83988c26.93126,-1.63761 89.63934,39.28424 98.00943,54.90838c8.37009,15.62414 -37.59782,5.95056 -58.7884,-3.16677c-21.19058,-9.11733 -17.60384,-17.6784 -14.01709,-26.23948c3.58674,-8.56108 14.19605,4.15251 24.80536,16.8661" stroke="#0070d0" stroke-width="24.54644" stroke-linecap="round" stroke-linejoin="round"/><path d="M558.83165,391.57249c30.72339,-23.67185 61.44678,-47.34369 75.9967,-26.76867c14.54992,20.57502 12.92638,85.3969 -4.54132,96.65475c-17.4677,11.25785 -50.77954,-31.04835 -52.33371,-56.79759c-1.55417,-25.74924 28.64934,-34.94153 41.23469,-24.65544c12.58535,10.28609 7.55255,40.05054 1.53525,46.95864c-6.01731,6.9081 -13.01912,-9.04017 -20.02093,-24.98843c-7.00181,-15.94826 0.663,-7.22483 8.32782,1.49861" stroke="#0070d0" stroke-width="24.59901" stroke-linecap="round" stroke-linejoin="round"/><path d="M661.96702,341.61228c24.1049,-15.93686 48.2098,-31.87373 53.71777,-32.84176c5.50797,-0.96803 -7.58099,13.03278 -13.67721,23.05272c-6.09622,10.01995 -5.19968,16.05903 -9.34729,17.8172c-4.14761,1.75817 -13.33936,-0.76459 -22.53111,-3.28734c-9.19175,-2.52275 5.03381,-4.86812 19.25937,-7.21349" stroke="#0070d0" stroke-width="24.41663" stroke-linecap="round" stroke-linejoin="round"/><path d="M447.66394,523.57707c37.72226,2.24255 75.44452,4.4851 113.16678,6.72764c37.72226,2.24255 50.41182,-2.37449 63.10137,-6.99153" stroke="#0070cf" stroke-width="24.39976" stroke-linecap="round" stroke-linejoin="round"/><path d="M358.27851,292.45193c17.11167,20.67712 34.22335,41.35425 52.3771,46.47558c18.15375,5.12134 37.34957,-5.31311 82.83205,19.5118c45.48247,24.82491 117.25159,84.90917 134.28815,118.83313c17.03656,33.92396 -20.65942,41.68762 -61.75286,42.135c-41.09344,0.44739 -85.58433,-6.4215 -130.07522,-13.29039c-44.49089,-6.86889 -39.11664,-72.35836 -33.7424,-137.84783" stroke="#00085d" stroke-width="13.79125" stroke-linecap="round" stroke-linejoin="round"/><path d="M361.11642,287.58411c-11.3264,15.68021 -22.6528,31.36041 -25.28316,41.44482c-2.63036,10.08441 3.43532,14.57303 4.0464,24.24932c0.61108,9.67629 -4.23244,24.54027 9.41505,26.15703c13.64749,1.61676 45.786,-10.01369 77.92451,-21.64414c32.13851,-11.63045 44.7008,-6.53591 57.26309,-1.44137" stroke="#00095d" stroke-width="13.46183" stroke-linecap="round" stroke-linejoin="round"/><path d="M536.863,388.73633c23.38411,-20.3187 46.76823,-40.6374 68.20098,-42.8784c21.43275,-2.241 40.91415,13.5957 60.39554,29.43239c19.48139,15.8367 -6.00462,71.28087 -31.49064,126.72505" stroke="#00085d" stroke-width="13.76948" stroke-linecap="round" stroke-linejoin="round"/><path d="M635.64734,344.19043c67.58455,-38.93864 70.21185,-37.95508 80.25995,-47.68903" stroke="#00085e" stroke-width="13.66719" stroke-linecap="round" stroke-linejoin="round"/><path d="M715.05689,295.35923c10.18635,3.21493 20.37271,6.42986 21.57472,12.81738c1.20201,6.38752 -6.58033,15.94763 -12.36642,23.37875c-5.78609,7.43112 -9.57593,12.73325 -13.36576,18.03538c-3.78984,5.30213 -26.5093,9.76254 -49.22876,14.22295" stroke="#00085e" stroke-width="14.09698" stroke-linecap="round" stroke-linejoin="round"/><path d="M432.11599,504.37879c-8.96202,16.18027 -17.92404,32.36053 14.53994,37.7913c32.46398,5.43077 106.35396,0.11204 180.24393,-5.20669c73.88998,-5.31873 38.67027,-18.547 3.45057,-31.77528" stroke="#00085d" stroke-width="13.61666" stroke-linecap="round" stroke-linejoin="round"/><path d="M643.67398,538.51001c-0.90231,0.26314 -1.80462,0.52628 0.06754,4.93068c1.87216,4.4044 6.5188,12.95007 12.8765,21.18115c6.3577,8.23108 14.42648,16.14758 30.20713,36.91424c15.78065,20.76666 39.27319,54.3835 52.11433,71.0616c12.84114,16.6781 15.0309,16.41747 13.88274,13.87222c-1.14816,-2.54526 -5.63423,-7.37514 1.23447,5.20506c6.8687,12.5802 25.09216,42.57047 33.70623,56.8495c8.61407,14.27902 7.61875,12.84679 7.27309,15.93851c-0.34566,3.09173 -0.04166,10.70742 2.81672,16.99074c2.85839,6.28332 8.27116,11.23428 4.81787,15.95382c-3.45329,4.71954 -15.77264,9.20765 -24.63339,11.9492c-8.86074,2.74155 -14.26288,3.73654 -15.04719,7.14686c-0.78432,3.41032 3.04919,9.23597 -67.05016,16.10247c-70.09935,6.8665 -214.13156,14.77384 -285.22164,18.03927c-71.09008,3.26543 -69.23803,1.88894 -74.97034,1.70414c-5.73231,-0.18481 -19.04897,0.82207 -25.01705,-0.02031c-5.96808,-0.84238 -4.58758,-3.53403 -1.78913,-15.85914c2.79845,-12.32512 7.01486,-34.28372 22.07069,-71.85737c15.05583,-37.57365 40.95109,-90.76236 55.0279,-120.32997c14.07681,-29.5676 16.33518,-35.5141 18.70003,-43.86613c2.36484,-8.35203 4.83616,-19.1096 7.30748,-29.86717c2.47132,-10.75757 5.19843,-18.32512 7.92555,-25.89266" stroke="#171817" stroke-width="9.50893" stroke-linecap="round" stroke-linejoin="round"/><path d="M666.17201,733.39425c-0.17818,7.76736 -0.35635,15.53471 -0.53453,23.30207c-0.17818,7.76736 3.93156,26.24281 8.0413,44.71827" stroke="#171718" stroke-width="9.50893" stroke-linecap="round" stroke-linejoin="round"/><path d="M547.77884,750.47132c0.03819,1.32268 0.07637,2.64537 0.10755,4.99822c0.03118,2.35286 0.05534,5.73589 0.07951,9.11891c0.02417,3.38303 -0.15093,13.16187 -0.32603,22.94071" stroke="#171718" stroke-width="9.50893" stroke-linecap="round" stroke-linejoin="round"/><path d="M462.54972,688.49295c0.10211,2.74682 0.20423,5.49365 0.2586,10.00225c0.05437,4.5086 0.06099,10.77898 0.06761,17.04936c0.00662,6.27038 -0.03548,48.6484 -0.07759,91.02642" stroke="#171717" stroke-width="9.50893" stroke-linecap="round" stroke-linejoin="round"/><path d="M513.72601,586.77631c0.05494,1.44882 0.10989,2.89764 0.14763,9.84613c0.03775,6.94849 0.0583,19.39665 0.07886,31.84481c0.02056,12.44816 5.82448,43.23931 11.6284,74.03045" stroke="#171717" stroke-width="9.50893" stroke-linecap="round" stroke-linejoin="round"/><path d="M568.96387,612.6454c-0.59851,2.22509 -1.19703,4.45018 0.99303,10.73512c2.19005,6.28495 7.16867,16.62975 12.14729,26.97456c4.97862,10.34481 23.36373,42.24356 41.74883,74.14232" stroke="#171717" stroke-width="9.50893" stroke-linecap="round" stroke-linejoin="round"/><path d="M338.85312,275.86563c40.74496,81.42131 -20.01052,89.59032 -35.70567,-12.16652" stroke="#ff0b00" stroke-width="39.47" stroke-linecap="round" stroke-linejoin="round" opacity="0.5"/><path d="M559.24861,377.02809c-26.98313,-42.25047 -53.96627,-84.50095 -80.9494,-126.75142c-26.98313,-42.25047 -33.47891,-37.0164 -39.97469,-31.78233" stroke-opacity="0.43216" stroke="#00bbc4" stroke-width="31.74018" stroke-linecap="round" stroke-linejoin="round" opacity="0.5"/><path d="M736.33598,304.895c24.46996,-33.57625 48.93992,-67.15249 73.40988,-100.72874c24.46996,-33.57625 -42.7338,-38.15346 -109.93756,-42.73067" stroke-opacity="0.87321" stroke="#03ff76" stroke-width="11.16603" stroke-linecap="round" stroke-linejoin="round" opacity="0.5"/><path d="M320.49602,248.71434c13.2424,4.45359 26.48479,8.90718 39.72719,13.36078c13.2424,4.45359 50.194,37.92685 87.1456,71.4001" stroke-opacity="0.79671" stroke="#00b385" stroke-width="9.50893" stroke-linecap="round" stroke-linejoin="round" opacity="0.5"/><path d="M428.51633,228.5192c11.64048,-7.70142 23.28096,-15.40283 34.92144,-23.10425c11.64048,-7.70142 -64.44564,17.53321 -140.53176,42.76783" stroke-opacity="0.61463" stroke="#bd7b66" stroke-width="28.2276" stroke-linecap="round" stroke-linejoin="round" opacity="0.5"/><path d="M751.44738,174.45275c-55.52478,0.01148 -27.57126,14.69422 -47.01933,-18.65936" stroke-opacity="0" stroke="#9261a0" stroke-width="13.41679" stroke-linecap="round" stroke-linejoin="round" opacity="0.5"/><path d="M576.30874,286.56081c14.53497,56.83591 9.627,55.8003 62.94819,17.48421" stroke-opacity="0.04987" stroke="#756d70" stroke-width="9.5286" stroke-linecap="round" stroke-linejoin="round" opacity="0.5"/><path d="M597.60938,88.24553c10.64307,20.18086 21.28615,40.36173 31.58117,49.71081c10.29503,9.34908 20.24201,7.86637 30.18899,6.38367c9.94698,-1.4827 -46.09784,-44.76127 -102.14267,-88.03984" stroke-opacity="0.93067" stroke="#000cd4" stroke-width="9.66653" stroke-linecap="round" stroke-linejoin="round" opacity="0.5"/><path d="M833.42423,305.20641c11.66119,32.31985 -8.36486,66.61034 3.43193,75.36776" stroke-opacity="0" stroke="#2add5f" stroke-width="9.50893" stroke-linecap="round" stroke-linejoin="round" opacity="0.5"/><path d="M779.92236,68.86119c26.39029,8.05138 52.78058,16.10275 54.28248,26.73001c1.5019,10.62726 -21.88459,23.83039 -45.27108,37.03353c-23.38649,13.20314 -21.01486,63.29087 -18.64322,113.37861" stroke-opacity="0.61586" stroke="#00e752" stroke-width="9.50893" stroke-linecap="round" stroke-linejoin="round" opacity="0.5"/><path d="M889.92637,839.65387c7.4069,-8.66496 14.8138,-17.32992 -1.36614,-4.25149c-16.17994,13.07843 -55.94671,47.90025 -95.71348,82.72206c-39.76677,34.82182 -37.80727,35.78299 -35.84776,36.74415" stroke-opacity="0.40072" stroke="#232621" stroke-width="9.50893" stroke-linecap="round" stroke-linejoin="round" opacity="0.5"/><path d="M934.69499,471.34848c-4.40876,-30.05544 -8.81752,-60.11089 -10.6493,-87.32588c-1.83178,-27.215 -1.0866,-51.58955 -0.34141,-75.96409c0.74519,-24.37455 58.48536,-9.51109 116.22553,5.35236" stroke="#bc3b36" stroke-width="12.21015" stroke-linecap="round" stroke-linejoin="round" opacity="0.5"/><path d="M505.2894,233.64036c-47.27597,10.7537 -94.55194,21.50739 -116.80366,43.20729c-22.25172,21.6999 -19.47919,54.34599 -8.35572,70.23971c11.12348,15.89372 30.59791,15.03505 75.58217,11.21771c44.98426,-3.81734 115.47835,-10.59336 158.5378,-7.45624c43.05945,3.13712 58.68425,16.18739 72.00464,6.41025c13.32039,-9.77714 24.33637,-42.3817 -1.54011,-66.31491c-25.87648,-23.93322 -88.6454,-39.1951 -119.55908,-52.84078c-30.91367,-13.64568 -29.9721,-25.67517 -29.03052,-37.70466c0.94158,-12.02949 -12.21727,6.06873 -25.37613,24.16694" stroke="#edcfa6" stroke-width="27.18931" stroke-linecap="round" stroke-linejoin="round"/><path d="M534.63717,242.65671c-65.50568,27.68716 -131.01135,55.37432 -109.17305,76.53521c21.8383,21.16089 131.02058,35.7955 182.3271,35.30405c51.30651,-0.49145 44.73726,-16.10895 38.168,-31.72645c-6.56925,-15.6175 -57.13148,-39.2694 -107.6937,-62.92129" stroke="#ecd0a4" stroke-width="60.65485" stroke-linecap="round" stroke-linejoin="round"/><path d="M530.22582,328.57715c-6.46864,45.25783 -12.93728,90.51566 -10.66562,91.46852c2.27165,0.95286 13.28359,-42.39927 24.29553,-85.75139c11.01194,-43.35212 -17.86964,-15.38091 -46.75123,12.59031" stroke-opacity="0.99741" stroke="#ecd0a6" stroke-width="107.64295" stroke-linecap="round" stroke-linejoin="round"/><path d="M352.29118,319.14962c-0.36456,21.9918 -0.72912,43.9836 0.71046,42.62778c1.43957,-1.35582 4.68327,-26.05925 7.94782,-27.74839c3.26455,-1.68914 6.54994,19.63601 8.97959,22.93008c2.42965,3.29408 4.00355,-11.44292 8.62726,-14.97944c4.62371,-3.53652 12.29722,4.12745 19.97073,11.79141c7.67351,7.66396 11.78416,0.62757 15.8948,-6.40883" stroke-opacity="0.99738" stroke="#006ecf" stroke-width="22.25783" stroke-linecap="round" stroke-linejoin="round"/><path d="M412.64468,373.72958c25.89458,-5.78234 51.78916,-11.56467 92.5769,11.92664c40.78774,23.49132 96.46864,76.25629 110.83718,100.03372c14.36854,23.77743 -12.57527,18.56732 -51.19098,20.45669c-38.61572,1.88937 -88.90334,10.87823 -115.84175,-13.67376c-26.93842,-24.55199 -30.52763,-82.64484 -23.1084,-104.38786c7.41922,-21.74302 25.84687,-7.13622 65.99246,16.98519c40.14558,24.12141 102.0091,57.75741 96.91839,76.1916c-5.09071,18.43419 -77.13566,21.66657 -117.66501,1.21372c-40.52936,-20.45285 -49.54312,-64.59092 -22.31771,-66.72054c27.22541,-2.12962 90.69001,37.74921 99.37927,53.40654c8.68925,15.65733 -37.39684,7.09317 -58.90893,-1.83726c-21.5121,-8.93043 -18.45021,-18.22712 -15.38831,-27.52382c3.06189,-9.29669 13.93375,3.80705 24.80561,16.91079" stroke="#006ecf" stroke-width="22.21109" stroke-linecap="round" stroke-linejoin="round"/><path d="M559.49208,392.25629c30.66036,-24.3504 61.32071,-48.7008 75.98056,-28.06629c14.65985,20.63451 13.31919,86.25394 -4.55155,97.9174c-17.87074,11.66346 -52.27157,-30.62904 -53.82246,-56.81562c-1.55089,-26.18657 29.74816,-36.26721 42.72097,-25.91261c12.97281,10.3546 7.61937,41.14443 1.51312,48.20334c-6.10625,7.05891 -12.96531,-9.6131 -19.82437,-26.28511c-6.85906,-16.67201 0.02503,-6.9347 6.90912,2.80261" stroke="#006ecf" stroke-width="22.20883" stroke-linecap="round" stroke-linejoin="round"/><path d="M661.32642,342.24511c23.98337,-15.96554 47.96674,-31.93109 53.76115,-32.87176c5.79442,-0.94067 -6.60012,13.14353 -12.44717,23.06731c-5.84705,9.92378 -5.14661,15.68713 -9.57502,17.41329c-4.42841,1.72616 -13.98567,-0.58487 -23.54293,-2.89591c-9.55726,-2.31103 5.45563,-4.76197 20.46851,-7.21291" stroke="#0070ce" stroke-width="22.05076" stroke-linecap="round" stroke-linejoin="round"/><path d="M447.0466,524.24734c38.1271,1.81633 76.2542,3.63266 114.3813,5.449c38.1271,1.81633 50.63112,-2.59088 63.13514,-6.9981" stroke-opacity="0.99743" stroke="#0170cd" stroke-width="22.03898" stroke-linecap="round" stroke-linejoin="round"/><path d="M358.88497,293.05603c17.1259,20.13043 34.25179,40.26087 52.38838,45.18555c18.13658,4.92468 37.28385,-5.35639 82.86484,19.55195c45.58099,24.90834 117.59569,85.00609 134.37086,118.82954c16.77516,33.82345 -21.68921,41.3726 -63.09738,42.01026c-41.40817,0.63766 -85.76014,-5.63617 -130.11211,-11.90999c-44.35197,-6.27383 -39.0272,-72.67382 -33.70242,-139.07381" stroke-opacity="0.99736" stroke="#00075d" stroke-width="12.00919" stroke-linecap="round" stroke-linejoin="round"/><path d="M360.36341,288.21116c-10.55274,15.85403 -21.10549,31.70805 -23.88357,41.4344c-2.77809,9.72635 2.21848,13.32501 2.76939,23.0216c0.5509,9.69659 -3.34386,25.49111 10.67923,27.47126c14.02309,1.98015 45.96402,-9.85407 77.90495,-21.68829c31.94093,-11.83422 43.99283,-7.27017 56.04473,-2.70613" stroke-opacity="0.99744" stroke="#00085b" stroke-width="11.77415" stroke-linecap="round" stroke-linejoin="round"/><path d="M537.48658,388.10593c22.76255,-19.6899 45.5251,-39.3798 66.96416,-41.62307c21.43906,-2.24327 41.55463,12.96008 61.6702,28.16343c20.11557,15.20335 -5.64099,71.62246 -31.39756,128.04157" stroke="#01075d" stroke-width="12.58287" stroke-linecap="round" stroke-linejoin="round"/><path d="M636.26711,344.80647c67.57889,-38.93363 70.20358,-37.96251 79.02432,-48.92322" stroke-opacity="0.9974" stroke="#00085e" stroke-width="11.94981" stroke-linecap="round" stroke-linejoin="round"/><path d="M714.43922,296.03049c10.91381,2.68914 21.82762,5.37828 22.86925,11.49783c1.04163,6.11955 -7.78893,15.66952 -13.72865,23.36276c-5.93972,7.69324 -8.98861,13.52975 -12.03749,19.36627c-3.04889,5.83651 -26.7644,9.38257 -50.47991,12.92863" stroke="#00085c" stroke-width="12.33764" stroke-linecap="round" stroke-linejoin="round"/><path d="M431.4833,505.04354c-8.34482,15.63692 -16.68963,31.27384 15.77601,36.48951c32.46564,5.21567 105.74172,0.0101 179.01781,-5.19548c73.27609,-5.20558 38.99696,-18.5428 4.71783,-31.88003" stroke="#00075b" stroke-width="12.47842" stroke-linecap="round" stroke-linejoin="round"/><path d="M666.79649,732.73349c-0.59341,8.18849 -1.18683,16.37699 -1.78024,24.56548c-0.59341,8.18849 3.67711,26.46151 7.94764,44.73452" stroke-opacity="0.99784" stroke="#171617" stroke-width="9.50893" stroke-linecap="round" stroke-linejoin="round"/><path d="M548.44968,751.19484c0.02408,0.76915 0.04816,1.53831 0.0748,3.66945c0.02664,2.13114 0.05583,5.62426 0.08503,9.11739c0.02919,3.49313 -0.84678,13.21046 -1.72275,22.9278" stroke-opacity="0.99742" stroke="#171717" stroke-width="9.50893" stroke-linecap="round" stroke-linejoin="round"/><path d="M461.92777,689.10031c0.62325,2.24363 1.2465,4.48726 1.51327,8.79775c0.26677,4.31049 0.17706,10.68783 0.08735,17.06517c-0.08971,6.37734 -0.75433,49.31494 -1.41895,92.25254" stroke="#161716" stroke-width="9.50893" stroke-linecap="round" stroke-linejoin="round"/><path d="M514.34263,586.06647c-0.57799,2.09608 -1.15598,4.19216 -1.10972,11.15724c0.04626,6.96509 0.71677,18.79918 1.38729,30.63327c0.67051,11.83409 5.51097,43.55176 10.35142,75.26942" stroke="#161616" stroke-width="9.50893" stroke-linecap="round" stroke-linejoin="round"/><path d="M569.58828,612.03245c-0.59409,2.22308 -1.18817,4.44615 1.00097,10.73055c2.18915,6.2844 7.16153,16.63014 12.13391,26.97587c4.97238,10.34573 23.35894,42.87668 41.7455,75.40762" stroke="#161616" stroke-width="9.50893" stroke-linecap="round" stroke-linejoin="round"/><path d="M339.52045,276.50631c40.69156,81.39775 -20.07988,89.56948 -37.01158,-13.41082" stroke-opacity="0.50332" stroke="#fd0a00" stroke-width="35.48627" stroke-linecap="round" stroke-linejoin="round"/><path d="M559.85939,376.41408c-26.97125,-42.25728 -53.9425,-84.51456 -80.91375,-126.77185c-26.97125,-42.25728 -34.10801,-37.01563 -41.24477,-31.77397" stroke-opacity="0.42936" stroke="#00b9c3" stroke-width="28.08217" stroke-linecap="round" stroke-linejoin="round"/><path d="M736.96808,305.5628c24.46921,-33.59259 48.93842,-67.18519 73.40763,-100.77778c24.46921,-33.59259 -42.74099,-38.80532 -109.95119,-44.01804" stroke-opacity="0.87584" stroke="#02fd74" stroke-width="10.24242" stroke-linecap="round" stroke-linejoin="round"/><path d="M321.1204,248.08167c13.24492,4.45456 26.48985,8.90912 39.73477,13.36368c13.24492,4.45456 50.19029,37.93398 87.13566,71.4134" stroke-opacity="0.79414" stroke="#00b183" stroke-width="9.50893" stroke-linecap="round" stroke-linejoin="round"/><path d="M427.90135,229.12405c12.05203,-7.68327 24.10406,-15.36655 36.15608,-23.04982c12.05203,-7.68327 -64.24213,16.90938 -140.53629,41.50203" stroke-opacity="0.61738" stroke="#bb7964" stroke-width="24.94652" stroke-linecap="round" stroke-linejoin="round"/><path d="M752.04923,173.85053c-56.61422,0.04687 -27.60384,15.89988 -47.01875,-18.65996" stroke-opacity="0" stroke="#91609f" stroke-width="12.22284" stroke-linecap="round" stroke-linejoin="round"/><path d="M576.91227,285.95165c13.32615,58.05001 9.62276,57.01048 62.95211,18.7054" stroke-opacity="0.05251" stroke="#736b6e" stroke-width="9.50893" stroke-linecap="round" stroke-linejoin="round"/><path d="M598.28124,87.60515c10.09641,20.82052 20.19282,41.64103 30.27467,50.9934c10.08185,9.35237 20.14913,7.23659 30.21641,5.12081c10.06728,-2.11578 -45.38767,-44.43178 -100.84262,-86.74777" stroke-opacity="0.92811" stroke="#000bd3" stroke-width="9.50893" stroke-linecap="round" stroke-linejoin="round"/><path d="M835.1925,303.44534c11.4939,32.73568 -9.99333,68.31936 1.66366,77.13227" stroke-opacity="0" stroke="#29dc5e" stroke-width="9.50893" stroke-linecap="round" stroke-linejoin="round"/><path d="M779.28815,68.22826c26.92245,7.95013 53.8449,15.90026 55.55532,26.73483c1.71043,10.83457 -21.79117,24.55359 -45.29277,38.27261c-23.5016,13.71902 -21.70216,63.54667 -19.90272,113.37431" stroke-opacity="0.61844" stroke="#00e651" stroke-width="9.50893" stroke-linecap="round" stroke-linejoin="round"/><path d="M890.55775,840.2994c6.88418,-9.19334 13.76835,-18.38668 -2.61831,-5.51774c-16.38666,12.86895 -56.04416,47.80018 -95.70166,82.73142c-39.6575,34.93124 -37.14185,35.82685 -34.62621,36.72246" stroke-opacity="0.39798" stroke="#232620" stroke-width="9.50893" stroke-linecap="round" stroke-linejoin="round"/><path d="M934.06317,471.95701c-4.40511,-30.54655 -8.81021,-61.0931 -10.64161,-88.5125c-1.8314,-27.4194 -1.08909,-51.71166 -0.34678,-76.00392c0.74231,-24.29226 58.48595,-8.84544 116.22959,6.60138" stroke-opacity="0.50269" stroke="#ba3a36" stroke-width="10.64485" stroke-linecap="round" stroke-linejoin="round"/><path d="M571.58533,616.93911c15.97232,-4.26308 31.94464,-8.52615 47.91696,-12.78923c15.97232,-4.26308 -27.90738,0.10651 -71.78707,4.4761" stroke-opacity="0.8297" stroke="#654fc9" stroke-width="9.50893" stroke-linecap="round" stroke-linejoin="round"/><path d="M691.3701,360.26363c-8.51546,24.31421 -17.03093,48.62842 -27.9961,63.8797c-10.96517,15.25128 -24.38005,21.43962 -37.79493,27.62796c-13.41488,6.18834 -11.64777,3.85033 -9.88066,1.51232" stroke-opacity="0.04717" stroke="#c38640" stroke-width="9.50893" stroke-linecap="round" stroke-linejoin="round"/><path d="M670.01223,796.86478c-17.39606,13.64841 11.6699,-35.14905 -23.3612,-73.33567" stroke-opacity="0.52674" stroke="#ec402e" stroke-width="10.32513" stroke-linecap="round" stroke-linejoin="round"/><path d="M539.29232,255.71714c31.88384,-3.28367 63.76767,-6.56734 75.51855,-6.69921c11.75087,-0.13187 3.36878,2.88807 -5.01331,5.908c-8.38209,3.01994 35.47303,5.14826 79.32815,7.27659" stroke-opacity="0.78203" stroke="#5248f0" stroke-width="9.50893" stroke-linecap="round" stroke-linejoin="round"/><path d="M382.68381,346.52816c-15.8911,-48.36831 -55.80093,-92.01582 -108.26913,-71.74771" stroke-opacity="0.36142" stroke="#82b091" stroke-width="9.50893" stroke-linecap="round" stroke-linejoin="round"/><path d="M477.04885,444.9737c10.54251,34.34545 -5.33419,1.16439 -35.6217,0.97493" stroke-opacity="0.56502" stroke="#254321" stroke-width="9.50893" stroke-linecap="round" stroke-linejoin="round"/><path d="M400.00007,598.77605c-21.27065,12.28593 -42.54129,24.57187 -63.81194,36.8578c-21.27065,12.28593 -1.6703,-17.41487 17.93005,-47.11567" stroke-opacity="0.54042" stroke="#de869d" stroke-width="10.82283" stroke-linecap="round" stroke-linejoin="round"/><path d="M747.6863,171.84968c-20.1975,7.7486 -40.39499,15.4972 -41.11143,15.03178c-0.71644,-0.46542 18.04817,-9.14486 36.81278,-17.82431c18.76461,-8.67944 -2.46511,-11.57994 -23.69484,-14.48044" stroke-opacity="0.00635" stroke="#1dba63" stroke-width="9.50893" stroke-linecap="round" stroke-linejoin="round"/><path d="M363.98288,339.22721c-10.49445,26.02564 -35.48002,75.4156 -25.93046,67.9537" stroke-opacity="0.38255" stroke="#0adcd8" stroke-width="9.50893" stroke-linecap="round" stroke-linejoin="round"/><path d="M611.93683,358.57792c27.7485,-42.0317 0.05165,-21.4224 -23.12056,17.73181" stroke-opacity="0.00209" stroke="#d46375" stroke-width="10.71511" stroke-linecap="round" stroke-linejoin="round"/><path d="M551.28342,753.70933c17.13657,18.70292 34.27314,37.40585 37.90861,50.85092c3.63548,13.44507 -6.23014,21.63229 -16.09576,29.81951c-9.86562,8.18722 -8.4749,7.69526 -7.08418,7.2033" stroke-opacity="0.27194" stroke="#ade39f" stroke-width="11.24771" stroke-linecap="round" stroke-linejoin="round"/><path d="M931.02569,475.08104c51.52358,34.06375 48.2432,35.35759 28.13053,19.57818" stroke-opacity="0.23375" stroke="#5e08b4" stroke-width="9.50893" stroke-linecap="round" stroke-linejoin="round"/><path d="M639.36372,360.08929c-7.1027,10.81049 -14.2054,21.62098 -21.3081,32.43147c-7.1027,10.81049 29.98186,-23.8456 67.06641,-58.50169" stroke-opacity="0.06466" stroke="#3fb678" stroke-width="10.10456" stroke-linecap="round" stroke-linejoin="round"/><path d="M624.90155,423.34984c-25.84508,-30.19103 -51.69016,-60.38207 -55.44436,-68.90096c-3.7542,-8.51889 14.58248,4.63437 32.91917,17.78764c18.33668,13.15326 -3.96144,6.09334 -26.25957,-0.96658" stroke-opacity="0.02876" stroke="#0f0126" stroke-width="10.51992" stroke-linecap="round" stroke-linejoin="round"/><path d="M793.57273,131.86452c51.23034,-3.49831 6.58077,31.29428 46.12221,67.87676" stroke-opacity="0.94349" stroke="#d0852c" stroke-width="10.89782" stroke-linecap="round" stroke-linejoin="round"/><path d="M654.69596,139.79109c-36.61437,-21.77536 -81.53863,13.26331 -120.67308,-27.68923" stroke-opacity="0.74446" stroke="#4a8cf8" stroke-width="11.23133" stroke-linecap="round" stroke-linejoin="round"/><path d="M353.98607,287.80205c-13.25839,26.912 -26.51679,53.82401 -26.82424,45.95143c-0.30746,-7.87258 12.33603,-50.52974 24.97951,-93.18689c12.64348,-42.65716 -15.49808,13.45381 -43.63964,69.56478" stroke-opacity="0.18001" stroke="#fa3b2d" stroke-width="11.30307" stroke-linecap="round" stroke-linejoin="round"/><path d="M537.81798,197.22212c9.33794,-30.34902 18.67588,-60.69805 25.67433,-70.1386c6.99845,-9.44056 11.65741,2.02735 16.31637,13.49526c4.65896,11.46791 3.00577,-3.62842 1.35257,-18.72476" stroke-opacity="0.84159" stroke="#a5fb19" stroke-width="9.50893" stroke-linecap="round" stroke-linejoin="round"/><path d="M655.25784,140.30902c13.53915,-5.03676 -22.26762,20.88214 -73.53978,39.56951" stroke-opacity="0.14135" stroke="#b8c87e" stroke-width="9.50893" stroke-linecap="round" stroke-linejoin="round"/><path d="M447.67954,414.12642c27.07139,-2.46996 54.14278,-4.93992 81.21417,-7.40988c27.07139,-2.46996 24.51373,34.53717 21.95606,71.54429" stroke-opacity="0.91204" stroke="#7f5d9c" stroke-width="11.36782" stroke-linecap="round" stroke-linejoin="round"/><path d="M458.37614,693.24458c10.53244,7.97658 21.06489,15.95317 33.99051,16.52897c12.92562,0.57581 28.24441,-6.24916 43.56321,-13.07412c15.31879,-6.82497 15.85453,-19.70408 16.39026,-32.5832" stroke-opacity="0.89753" stroke="#14ba96" stroke-width="9.80637" stroke-linecap="round" stroke-linejoin="round"/><path d="M661.51476,378.63784c12.35661,7.91538 24.71321,15.83075 37.06982,23.74613c12.35661,7.91538 16.82024,46.38762 21.28387,84.85985" stroke-opacity="0.74256" stroke="#cf7353" stroke-width="10.00479" stroke-linecap="round" stroke-linejoin="round"/><path d="M564.42897,608.08068c-9.71482,16.37195 -61.14666,17.05766 -108.63373,15.55854" stroke-opacity="0.04339" stroke="#e00c0c" stroke-width="11.24614" stroke-linecap="round" stroke-linejoin="round"/><path d="M435.42364,503.4491c-19.79515,0.90602 -39.59031,1.81204 -59.38546,2.71806c-19.79515,0.90602 -19.29219,11.29041 -18.78922,21.6748" stroke-opacity="0.3822" stroke="#bbc51d" stroke-width="9.50893" stroke-linecap="round" stroke-linejoin="round"/><path d="M352.13752,323.08879c-0.33187,2.16641 37.035,-15.90217 81.71993,-43.34074" stroke-opacity="0.04663" stroke="#5f8fb9" stroke-width="9.50893" stroke-linecap="round" stroke-linejoin="round"/><path d="M528.26835,114.28288c-14.22023,-33.51658 -17.74715,-17.02209 -19.9054,11.33723" stroke-opacity="0.33509" stroke="#c89201" stroke-width="11.39245" stroke-linecap="round" stroke-linejoin="round"/><path d="M582.39935,371.87037c3.856,-25.48114 0.90858,-57.67581 10.87688,-40.57056" stroke-opacity="0.46051" stroke="#b25466" stroke-width="9.92972" stroke-linecap="round" stroke-linejoin="round"/><path d="M348.77343,589.55063c25.00245,-37.73524 50.00489,-75.47047 75.00734,-113.20571c25.00245,-37.73524 19.84124,-13.07186 14.68003,11.59151" stroke-opacity="0.25858" stroke="#f0cbb8" stroke-width="10.31277" stroke-linecap="round" stroke-linejoin="round"/><path d="M697.71089,264.66029c19.07885,-5.89149 38.15769,-11.78297 57.23654,-17.67446c19.07885,-5.89149 33.9251,-1.20068 48.77135,3.49013" stroke-opacity="0.42111" stroke="#93023a" stroke-width="9.79292" stroke-linecap="round" stroke-linejoin="round"/><path d="M959.8312,497.30448c20.1327,-33.92857 40.2654,-67.85714 28.22259,-63.25688c-12.0428,4.60026 -56.26111,47.72935 -100.47941,90.85843c-44.2183,43.12909 -14.38271,-15.00814 15.45288,-73.14538" stroke-opacity="0.7257" stroke="#dabc0a" stroke-width="9.50893" stroke-linecap="round" stroke-linejoin="round"/><path d="M308.54268,310.29289c-27.44721,30.24624 -54.89443,60.49249 -57.84867,61.23125c-2.95425,0.73876 18.58447,-28.02996 40.12319,-56.79868c21.53872,-28.76872 -11.40351,6.20738 -44.34574,41.18347" stroke-opacity="0.88925" stroke="#352dc4" stroke-width="9.92813" stroke-linecap="round" stroke-linejoin="round"/><path d="M543.81209,609.60719c4.10546,40.55978 -2.24628,91.95219 51.79011,98.96506" stroke-opacity="0.4133" stroke="#144561" stroke-width="11.40082" stroke-linecap="round" stroke-linejoin="round"/><path d="M689.13187,261.98752c-27.19329,-39.01046 -39.78947,-6.5902 -71.43768,54.40146" stroke-opacity="0.71186" stroke="#269322" stroke-width="11.35852" stroke-linecap="round" stroke-linejoin="round"/><path d="M959.83135,494.5669c-10.53035,-28.10827 -21.06069,-56.21654 -31.59104,-84.32482c-10.53035,-28.10827 2.42989,-4.16297 15.39013,19.78233" stroke-opacity="0.62818" stroke="#067794" stroke-width="11.35711" stroke-linecap="round" stroke-linejoin="round"/><path d="M357.38712,520.15926c-50.21881,42.60914 -62.37213,48.43937 -68.21061,99.75836" stroke-opacity="0.7815" stroke="#8d094c" stroke-width="11.3999" stroke-linecap="round" stroke-linejoin="round"/><path d="M959.81684,495.39286c0.06505,9.46308 0.1301,18.92616 0.19515,28.38924c0.06505,9.46308 1.00031,16.25877 1.93556,23.05447" stroke-opacity="0.36164" stroke="#ac8dc9" stroke-width="10.475" stroke-linecap="round" stroke-linejoin="round"/><path d="M685.45764,340.76754c45.00367,20.33673 69.13017,-29.28349 79.0907,-41.12398" stroke-opacity="0.23481" stroke="#fdf8c8" stroke-width="11.17961" stroke-linecap="round" stroke-linejoin="round"/><path d="M718.33538,145.98188c-26.21877,4.50215 -52.43754,9.0043 -52.80563,22.62752c-0.36809,13.62322 25.11449,36.36751 50.59707,59.11179c25.48258,22.74429 -10.97339,14.37004 -47.42937,5.99579" stroke-opacity="0.93622" stroke="#4699f4" stroke-width="9.50893" stroke-linecap="round" stroke-linejoin="round"/><path d="M696.91693,264.40701c52.45044,-41.61946 1.36745,-22.20969 0.10788,-32.59352" stroke-opacity="0.13065" stroke="#e50a9a" stroke-width="9.79584" stroke-linecap="round" stroke-linejoin="round"/><path d="M357.21921,527.74271c-0.40486,-4.62577 -0.80973,-9.25153 -1.21459,-13.8773c-0.40486,-4.62577 -23.01192,-4.8775 -45.61898,-5.12924" stroke-opacity="0.79205" stroke="#c0c244" stroke-width="9.50893" stroke-linecap="round" stroke-linejoin="round"/><path d="M430.39364,283.39465c17.67913,-14.23613 35.35826,-28.47227 53.03739,-42.7084c17.67913,-14.23613 20.31679,-16.31602 22.95446,-18.39591" stroke-opacity="0.5582" stroke="#4ccd96" stroke-width="9.76034" stroke-linecap="round" stroke-linejoin="round"/><path d="M265.39077,274.47041c-26.13758,11.22072 1.56071,-9.55902 -11.57807,-49.54666" stroke-opacity="0.38844" stroke="#69cd99" stroke-width="11.33709" stroke-linecap="round" stroke-linejoin="round"/><path d="M688.69978,264.20828c-10.33127,18.54304 -20.66253,37.08607 -28.55123,33.58635c-7.8887,-3.49972 -13.33485,-29.04221 -18.78099,-54.58469c-5.44614,-25.54248 15.9306,-70.97817 37.30734,-116.41385" stroke-opacity="0.81852" stroke="#ed658c" stroke-width="11.33688" stroke-linecap="round" stroke-linejoin="round"/><path d="M587.50175,381.84538c29.64494,0.19587 59.28989,0.39174 74.81001,-1.40695c15.52012,-1.79869 16.91543,-5.59195 18.31074,-9.3852c1.39531,-3.79325 10.46579,0.24176 19.53628,4.27678" stroke-opacity="0.60053" stroke="#3e0fb1" stroke-width="11.39527" stroke-linecap="round" stroke-linejoin="round"/><path d="M583.80894,174.21128c-4.92689,22.92951 -9.85378,45.85902 -11.95835,47.10794c-2.10457,1.24892 -1.38682,-19.18274 -0.66907,-39.6144c0.71775,-20.43166 57.30678,-44.7257 113.89581,-69.01974" stroke-opacity="0.45797" stroke="#ed3c8c" stroke-width="11.11626" stroke-linecap="round" stroke-linejoin="round"/><path d="M436.86755,281.18612c-8.32337,33.09428 -16.64674,66.18857 -24.97011,99.28285c-8.32337,33.09428 -5.42463,3.43099 -2.52588,-26.23229" stroke-opacity="0.72712" stroke="#5183e8" stroke-width="9.50893" stroke-linecap="round" stroke-linejoin="round"/><path d="M682.79537,334.01631c4.50701,-22.83151 9.01403,-45.66301 -7.32083,-45.91996c-16.33486,-0.25695 -53.51158,22.06065 -90.68831,44.37826c-37.17673,22.3176 -36.39002,27.88641 -35.60331,33.45522" stroke-opacity="0.85696" stroke="#1fc897" stroke-width="11.40871" stroke-linecap="round" stroke-linejoin="round"/><path d="M528.30099,111.83044c9.25779,-48.20545 18.51558,-96.41091 26.93143,-136.26733c8.41585,-39.85642 15.98976,-71.36381 23.56368,-102.87119c7.57391,-31.50739 -19.37513,-12.21642 -46.32418,7.07454" stroke-opacity="0.78931" stroke="#8776d4" stroke-width="11.37799" stroke-linecap="round" stroke-linejoin="round"/><path d="M557.5012,832.75607c-3.40925,-11.10809 12.87175,10.77756 -13.52682,-16.91282" stroke-opacity="0.03492" stroke="#177c2f" stroke-width="10.11821" stroke-linecap="round" stroke-linejoin="round"/><path d="M695.00502,261.95021c-14.54453,8.51764 -29.08905,17.03527 -24.78849,6.08107c4.30056,-10.95421 27.4462,-41.38026 50.59185,-71.80631c23.14565,-30.42605 31.97147,19.3248 40.7973,69.07565" stroke-opacity="0.36894" stroke="#0fe551" stroke-width="11.38412" stroke-linecap="round" stroke-linejoin="round"/><path d="M414.49561,391.49059c-45.56654,-7.40632 -91.13308,-14.81263 -112.37361,-36.15529c-21.24052,-21.34266 -18.15503,-56.62165 -15.06954,-91.90065c3.08549,-35.279 5.09938,-44.1636 7.11327,-53.04819" stroke-opacity="0.69454" stroke="#57e4ca" stroke-width="11.29404" stroke-linecap="round" stroke-linejoin="round"/><path d="M554.5556,139.9784c39.78817,-20.37447 10.9178,-39.17281 -1.14886,-35.99797" stroke-opacity="0.62822" stroke="#ddf222" stroke-width="9.50893" stroke-linecap="round" stroke-linejoin="round"/><path d="M891.28547,684.79165c-40.14481,40.29636 -49.27642,50.47447 -5.55887,10.57741" stroke-opacity="0.81862" stroke="#4d452b" stroke-width="9.50893" stroke-linecap="round" stroke-linejoin="round"/><path d="M145.01659,361.6915c2.7211,-30.6017 5.4422,-61.2034 8.16329,-91.8051c2.7211,-30.6017 28.39755,6.99727 54.074,44.59625" stroke-opacity="0.81702" stroke="#207858" stroke-width="10.98176" stroke-linecap="round" stroke-linejoin="round"/><path d="M802.22422,908.27911c-31.03311,-24.41781 -62.06622,-48.83561 -56.70056,-46.8635c5.36566,1.97212 47.1301,30.33415 88.89454,58.69619c41.76444,28.36204 21.23683,16.63345 0.70922,4.90485" stroke-opacity="0.86091" stroke="#11a708" stroke-width="9.50893" stroke-linecap="round" stroke-linejoin="round"/><path d="M888.49458,623.12987c46.12699,-22.93331 79.24842,-77.77593 79.99363,-119.93592" stroke-opacity="0.57771" stroke="#6ea5e5" stroke-width="9.50893" stroke-linecap="round" stroke-linejoin="round"/><path d="M1028.70404,845.33745c4.86965,9.84743 9.7393,19.69486 13.81077,31.36099c4.07147,11.66614 7.34475,25.15098 10.61803,38.63583c3.27328,13.48484 25.27714,-25.94412 47.28101,-65.37309" stroke-opacity="0.40586" stroke="#d56073" stroke-width="11.08558" stroke-linecap="round" stroke-linejoin="round"/><path d="M574.24401,89.61288c5.58183,-16.04961 11.16366,-32.09922 16.74549,-48.14883c5.58183,-16.04961 4.51475,-43.55657 3.44767,-71.06353" stroke-opacity="0.12195" stroke="#4986e8" stroke-width="9.70876" stroke-linecap="round" stroke-linejoin="round"/><path d="M793.25374,324.26816c44.38056,-12.09328 9.19509,0.82298 34.87795,-10.28845" stroke-opacity="0.10817" stroke="#a96a8e" stroke-width="9.90007" stroke-linecap="round" stroke-linejoin="round"/><path d="M954.76928,155.58514c-35.89935,39.61568 -71.79869,79.23135 -91.73622,94.08024c-19.93753,14.84889 -23.91324,4.93099 -27.88895,-4.98691c-3.97571,-9.9179 -58.47947,13.53089 -112.98324,36.97968" stroke-opacity="0.91969" stroke="#5a4f2f" stroke-width="9.50893" stroke-linecap="round" stroke-linejoin="round"/><path d="M822.96189,459.56987c-10.26724,7.03187 -20.53448,14.06374 -30.80173,21.09561c-10.26724,7.03187 -19.75123,3.21671 -29.23521,-0.59844" stroke-opacity="0.36224" stroke="#e0ba93" stroke-width="9.50893" stroke-linecap="round" stroke-linejoin="round"/><path d="M661.11422,433.5007c-32.0959,6.0737 -64.1918,12.14739 -70.96174,12.1638c-6.76994,0.01641 11.78608,-6.02447 30.3421,-12.06535c18.55602,-6.04088 54.90225,-24.313 91.24848,-42.58512" stroke-opacity="0.11974" stroke="#cf8ed3" stroke-width="10.45453" stroke-linecap="round" stroke-linejoin="round"/><path d="M151.33317,464.21686c-37.62372,-61.14082 -23.12066,-23.90062 20.02754,7.66746" stroke-opacity="0.56394" stroke="#4517fe" stroke-width="11.39787" stroke-linecap="round" stroke-linejoin="round"/><path d="M168.73455,810.19725c18.7675,9.15045 37.53499,18.3009 56.30249,27.45134c18.7675,9.15045 -6.01388,9.11292 -30.79525,9.07539" stroke-opacity="0.09438" stroke="#31e6b1" stroke-width="10.20288" stroke-linecap="round" stroke-linejoin="round"/><path d="M40.81061,222.81079c-2.61395,-47.46657 -5.22791,-94.93314 -7.84186,-142.39971c-2.61395,-47.46657 4.70881,-17.40667 12.03157,12.65323" stroke-opacity="0.21546" stroke="#fb0d42" stroke-width="9.50893" stroke-linecap="round" stroke-linejoin="round"/><path d="M836.64222,12.10993c-54.61866,44.33368 -72.44609,6.12817 -103.25689,59.76168" stroke-opacity="0.63407" stroke="#0c9d1d" stroke-width="11.36596" stroke-linecap="round" stroke-linejoin="round"/><path d="M657.92178,243.7766c0.26555,-23.05511 0.5311,-46.11022 0.79664,-69.16534c0.26555,-23.05511 -46.03095,-41.9644 -92.32744,-60.87368" stroke-opacity="0.14536" stroke="#b9dfab" stroke-width="9.50893" stroke-linecap="round" stroke-linejoin="round"/><path d="M951.40359,657.60728c-34.38008,-11.36515 -68.76015,-22.7303 -103.14023,-34.09545c-34.38008,-11.36515 -19.58171,24.53043 -4.78334,60.42601" stroke-opacity="0.42196" stroke="#027817" stroke-width="11.40922" stroke-linecap="round" stroke-linejoin="round"/><path d="M752.79915,211.91596c5.5002,14.12774 11.00041,28.25548 16.50061,42.38322c5.5002,14.12774 -11.98909,-29.26574 -29.47839,-72.65922" stroke-opacity="0.60128" stroke="#a01de7" stroke-width="9.99766" stroke-linecap="round" stroke-linejoin="round"/><path d="M93.20675,123.53621c-5.3635,10.7775 -10.727,21.555 -16.0905,32.33249c-5.3635,10.7775 -28.7726,-44.51523 -52.1817,-99.80796" stroke-opacity="0.44358" stroke="#29758a" stroke-width="9.50893" stroke-linecap="round" stroke-linejoin="round"/><path d="M528.26824,632.28709c-17.22684,-25.33846 -34.45369,-50.67692 -51.68053,-76.01539c-17.22684,-25.33846 19.52489,-28.54925 56.27663,-31.76004" stroke-opacity="0.02849" stroke="#f93486" stroke-width="9.50893" stroke-linecap="round" stroke-linejoin="round"/><path d="M924.68904,262.93789c5.64388,-42.23218 11.28775,-84.46436 0.22584,-94.62264c-11.06191,-10.15828 -38.82962,11.75735 -66.59732,33.67297c-27.7677,21.91562 -41.2765,29.92366 -54.78531,37.9317" stroke-opacity="0.60972" stroke="#ff6fc0" stroke-width="10.17732" stroke-linecap="round" stroke-linejoin="round"/><path d="M320.1034,42.8794c1.406,-42.36035 46.73476,-21.78523 15.97272,-20.19838" stroke-opacity="0.11651" stroke="#ab4c16" stroke-width="9.98666" stroke-linecap="round" stroke-linejoin="round"/><path d="M266.57715,439.8573c-10.50652,7.33711 -21.01304,14.67422 -12.66403,17.53822c8.34901,2.864 35.55355,1.25489 62.7581,-0.35421c27.20454,-1.60911 52.89126,65.62424 78.57798,132.85759" stroke-opacity="0.43148" stroke="#a9da8e" stroke-width="9.50893" stroke-linecap="round" stroke-linejoin="round"/><path d="M232.34907,371.03176c30.05627,-48.70852 60.11253,-97.41704 58.11565,-96.38701c-1.99689,1.03003 -36.04693,51.7986 -70.09697,102.56718c-34.05004,50.76858 21.71546,-42.66878 77.48097,-136.10613" stroke-opacity="0.22812" stroke="#ebe3ef" stroke-width="9.50893" stroke-linecap="round" stroke-linejoin="round"/><path d="M371.13993,502.75079c33.09986,0.47872 66.19971,0.95743 99.29957,1.43615c33.09986,0.47872 44.71519,-18.19435 56.33053,-36.86741" stroke-opacity="0.94237" stroke="#e379f1" stroke-width="9.50893" stroke-linecap="round" stroke-linejoin="round"/><path d="M515.63201,99.16471c-22.01308,-54.60969 -42.55454,-21.11449 -61.40634,-63.33871" stroke-opacity="0.1011" stroke="#87e481" stroke-width="10.03778" stroke-linecap="round" stroke-linejoin="round"/><path d="M961.73695,490.44462c-20.33822,0.68876 13.05396,-17.72894 29.85585,7.50122" stroke-opacity="0.47108" stroke="#325abd" stroke-width="9.50893" stroke-linecap="round" stroke-linejoin="round"/><path d="M490.1623,273.38839c14.76411,7.68613 29.52823,15.37226 37.73276,36.30925c8.20453,20.93699 9.84947,55.12483 11.4944,89.31267c1.64494,34.18784 45.65555,8.97854 89.66615,-16.23077" stroke-opacity="0.20438" stroke="#0a02a1" stroke-width="10.71878" stroke-linecap="round" stroke-linejoin="round"/><path d="M210.58713,743.84492c-20.92034,1.97271 -41.84069,3.94542 -30.30019,11.83291c11.5405,7.88749 55.54184,21.68978 99.54319,35.49206c44.00134,13.80228 7.1413,5.7574 -29.71874,-2.28749" stroke-opacity="0.22532" stroke="#5ff966" stroke-width="9.50893" stroke-linecap="round" stroke-linejoin="round"/><path d="M145.97911,87.53874c-27.75202,-14.83818 -55.50403,-29.67636 -62.20735,-39.11725c-6.70332,-9.44089 7.64205,-13.48449 21.98743,-17.52809c14.34538,-4.0436 26.16793,-26.32072 37.99049,-48.59783" stroke-opacity="0.97077" stroke="#4eca78" stroke-width="9.60879" stroke-linecap="round" stroke-linejoin="round"/><path d="M175.60901,367.87548c20.54195,27.60061 15.84946,32.10892 64.71296,-8.36319" stroke-opacity="0.40277" stroke="#af9db8" stroke-width="9.50893" stroke-linecap="round" stroke-linejoin="round"/><path d="M376.76873,226.08471c-9.7405,9.68467 11.79791,17.56417 52.533,48.52084" stroke-opacity="0.23178" stroke="#e741d7" stroke-width="11.16723" stroke-linecap="round" stroke-linejoin="round"/><path d="M340.66485,106.34206c2.41376,16.26697 4.82752,32.53394 -3.99301,57.57708c-8.82053,25.04314 -28.87534,58.86245 -48.93015,92.68177c-20.05481,33.81931 -37.55171,37.22373 -55.0486,40.62814" stroke-opacity="0.54597" stroke="#8212ca" stroke-width="9.50893" stroke-linecap="round" stroke-linejoin="round"/><path d="M37.12777,512.81086c24.20434,-14.15462 48.40869,-28.30924 72.61303,-42.46386c24.20434,-14.15462 29.77428,-3.91678 35.34423,6.32105" stroke-opacity="0.92067" stroke="#6342cc" stroke-width="9.50893" stroke-linecap="round" stroke-linejoin="round"/><path d="M707.69609,1007.57107c-3.10147,-27.08897 4.72697,-56.27042 40.46583,-14.30699" stroke-opacity="0.58139" stroke="#e919c9" stroke-width="11.37118" stroke-linecap="round" stroke-linejoin="round"/><path d="M374.25312,355.6128c-42.8768,1.34725 -85.75359,2.69449 -106.49778,-7.38862c-20.74419,-10.08312 -19.35576,-31.5966 -17.96733,-53.11008c1.38843,-21.51348 -4.5598,-14.61258 -10.50803,-7.71168" stroke-opacity="0.66891" stroke="#230ba1" stroke-width="9.50893" stroke-linecap="round" stroke-linejoin="round"/><path d="M40.34342,1044.40794c27.2487,-17.24843 73.5704,9.18863 99.11925,-25.58572" stroke-opacity="0.00432" stroke="#8ca14f" stroke-width="9.64353" stroke-linecap="round" stroke-linejoin="round"/><path d="M817.51358,597.49098c-13.79682,-28.4612 -27.59363,-56.92241 -41.39045,-85.38361c-13.79682,-28.4612 -29.85628,-29.03625 -45.91574,-29.6113" stroke-opacity="0.87481" stroke="#25d9d6" stroke-width="11.27313" stroke-linecap="round" stroke-linejoin="round"/><path d="M944.77842,39.78329c18.14427,15.09498 36.28853,30.18997 54.4328,45.28495c18.14427,15.09498 -26.12774,1.75731 -70.39975,-11.58036" stroke-opacity="0.43664" stroke="#eb7704" stroke-width="10.81275" stroke-linecap="round" stroke-linejoin="round"/><path d="M136.37023,537.59141c26.59493,25.69107 53.18986,51.38213 79.78478,77.0732c26.59493,25.69107 0.71587,29.12364 -25.16318,32.55621" stroke-opacity="0.0073" stroke="#00286d" stroke-width="9.50893" stroke-linecap="round" stroke-linejoin="round"/><path d="M1041.56604,128.68927c-16.97572,19.58042 27.68654,21.07702 16.46593,-18.51863" stroke-opacity="0.13362" stroke="#9f0d4b" stroke-width="11.24989" stroke-linecap="round" stroke-linejoin="round"/><path d="M10.90576,546.14112c-44.93254,46.48055 -90.26741,-6.74846 -106.35182,-27.4598" stroke-opacity="0.40148" stroke="#e1657d" stroke-width="10.15892" stroke-linecap="round" stroke-linejoin="round"/><path d="M45.9678,341.65864c20.81546,-38.11109 16.41341,6.23976 28.29637,16.05549" stroke-opacity="0.39843" stroke="#1d0ed0" stroke-width="10.2139" stroke-linecap="round" stroke-linejoin="round"/><path d="M196.10304,888.84237c8.86468,12.12363 17.72937,24.24726 26.59405,36.3709c8.86468,12.12363 51.40631,6.36837 93.94793,0.6131" stroke-opacity="0.22818" stroke="#607cc9" stroke-width="9.50893" stroke-linecap="round" stroke-linejoin="round"/><path d="M114.50531,851.85605c10.06217,22.73459 20.12433,45.46917 22.22827,44.46987c2.10394,-0.9993 -3.75035,-25.7325 -9.60465,-50.46569c-5.85429,-24.73319 -9.72335,3.72608 -13.5924,32.18535" stroke-opacity="0.95764" stroke="#3e8c51" stroke-width="10.97412" stroke-linecap="round" stroke-linejoin="round"/><path d="M926.22711,743.35762c47.49816,-1.17507 94.99632,-2.35015 111.15563,8.17152c16.15931,10.52167 0.97977,32.74007 -14.19977,54.95848c-15.17954,22.21841 -12.66206,-6.01644 -10.14459,-34.25128" stroke-opacity="0.94879" stroke="#cb0b28" stroke-width="11.20232" stroke-linecap="round" stroke-linejoin="round"/><path d="M232.32096,585.96592c-18.88054,14.85481 -37.76109,29.70962 -56.64163,44.56443c-18.88054,14.85481 -30.99703,55.83184 -43.11352,96.80888" stroke-opacity="0.02888" stroke="#b8324a" stroke-width="9.50893" stroke-linecap="round" stroke-linejoin="round"/><path d="M731.57832,31.35111c-11.1543,-53.82765 5.00301,-76.56176 40.98832,-113.19045" stroke-opacity="0.95672" stroke="#d01169" stroke-width="10.95819" stroke-linecap="round" stroke-linejoin="round"/><path transform="translate(35,117)" d="M644.28657,537.89916c-0.87654,0.27651 -1.75308,0.55303 0.22983,4.8577c1.98291,4.30467 6.82526,12.63749 12.87041,21.14854c6.04515,8.51104 13.2931,17.20031 28.63822,38.37255c15.34511,21.17224 38.78739,54.82746 52.02858,71.12225c13.24119,16.29479 16.28128,15.22914 15.42792,12.42954c-0.85335,-2.7996 -5.60015,-7.33316 1.20225,5.22747c6.80241,12.56064 25.15403,42.21547 33.88289,56.74133c8.72886,14.52586 7.83495,13.92273 7.1663,17.28035c-0.66865,3.35762 -1.11206,10.67597 1.48504,16.99357c2.5971,6.31759 8.23471,11.63442 4.76789,15.99822c-3.46682,4.3638 -16.03807,7.77456 -24.65109,10.38225c-8.61302,2.60769 -13.26781,4.41232 -13.66908,8.71279c-0.40127,4.30047 3.45097,11.09679 -66.99771,17.29957c-70.44868,6.20278 -215.1983,11.81204 -286.60614,14.52297c-71.40784,2.71093 -69.47391,2.52354 -74.91887,2.64232c-5.44496,0.11878 -18.26881,0.54373 -23.76978,-0.00798c-5.50097,-0.55171 -3.67907,-2.08007 -1.54054,-14.49453c2.13853,-12.41446 4.59367,-35.71502 19.70535,-73.35395c15.11168,-37.63893 42.8799,-89.61621 57.59176,-118.7155c14.71187,-29.09928 16.36739,-35.32056 18.24069,-44.02624c1.87331,-8.70568 3.9644,-19.89575 6.05549,-31.08582c2.09109,-11.19007 5.67015,-17.88155 9.24921,-24.57303" stroke="#171816" stroke-width="9.50893" stroke-linecap="round" stroke-linejoin="round" vector-effect="non-scaling-stroke"/><g stroke="none" stroke-width="1" stroke-linecap="butt" stroke-linejoin="miter" font-family="sans-serif" font-weight="normal" font-size="12" text-anchor="start"/></g></svg>