<svg version="1.1" xmlns="http://www.w3.org/2000/svg" xmlns:xlink="http://www.w3.org/1999/xlink" width="1104" height="1104"><g fill="none" fill-rule="nonzero" stroke="#181818" stroke-width="8" stroke-linecap="round" stroke-linejoin="round" stroke-miterlimit="10" stroke-dasharray="" stroke-dashoffset="0" font-family="none" font-weight="none" font-size="none" text-anchor="none" style="mix-blend-mode: normal"><path d="M521,332c46.65897,0 93.1066,-4.43122 140,-1c21.64867,1.58405 44.37918,16.55397 43,40c-0.15781,2.68278 0.67882,5.90148 -1,8c-10.27918,12.84898 -39.86023,24.48218 -51,28c-51.26214,16.18804 -62.23069,14.04815 -114,19c-20.00843,1.91385 -39.99757,4.02445 -60,6c-6.99763,0.69112 -14.01649,1.17841 -21,2c-4.35429,0.51227 -15.34119,-1.70689 -13,2c13.11155,20.75996 35.38,34.57001 49,55c15.29762,22.94643 25.47714,48.94448 37,74c17.15404,37.30006 33.16384,75.12162 49,113c16.33194,39.06424 29.07251,79.14502 48,117"/><path d="M594,892c10.02327,0 -1.44373,19.99218 -2,30c-0.111,1.99692 2,6 0,6c-3.8873,0 -6.94656,-3.59426 -10,-6c-7.98046,-6.28764 -15.81591,-12.81591 -23,-20c-35.032,-35.032 -63.12512,-79.50087 -70,-129c-0.60004,-4.32025 -2.88883,-30.97788 -1,-34c8.71756,-13.9481 68.91636,-13.84241 71,-14c37.01571,-2.79951 73.97636,-6.30737 111,-9c17.31642,-1.25938 34.74404,-1.08267 52,-3c1.83439,-0.20382 12.84369,-1.496 15,-5c4.36748,-7.09715 4.0509,-16.20595 7,-24c2.95852,-7.81895 6.58031,-15.37146 10,-23c28.7636,-64.16496 57.63922,-124.12268 64,-195c0.61624,-6.86672 1.60597,-27.78308 -2,-38c-1.78885,-5.06842 -6.52342,-8.83196 -8,-14c-1.11562,-3.90468 1.92392,-20.46741 2,-21"/><path d="M257,152c11.33927,0 -0.93831,22.6609 -1,34c-0.37537,68.99898 0,138 0,207c0,94.58471 -2.2838,189.45068 0,284c1.91699,79.36333 14,156.78718 14,236"/><path d="M347,673c5.33433,0 0.00011,-10.66567 0,-16c-0.00022,-10.33333 0,-20.66667 0,-31c0,-42 0,-84 0,-126c0,-7.70182 -6.26856,-33 8,-33c25.28123,0 37.14531,9.10983 60,24c9.94515,6.47942 18.88147,14.40123 28,22c20.55874,17.13229 48.37774,41.80431 68,61c3.26985,3.19876 19.6518,19.39045 23,27c4.84922,11.02097 4.68999,22.21947 5,34c0.45999,17.47943 1.82255,24.95277 -9,41c-24.54463,36.39376 -74.25056,57.17411 -114,71c-6.57389,2.28657 -13.20554,4.49012 -20,6c-5.24685,1.16597 -10.67031,1.30482 -16,2c-2.33722,0.30486 -7,-1.35702 -7,1c0,4.63081 4.26774,8.26112 7,12c13.13255,17.97086 32.36401,36.63256 49,51c17.5831,15.1854 36.82053,26.92309 58,36"/></g></svg>