<svg version="1.1" xmlns="http://www.w3.org/2000/svg" xmlns:xlink="http://www.w3.org/1999/xlink" width="992" height="992"><g fill="none" fill-rule="nonzero" stroke="#181818" stroke-width="8" stroke-linecap="round" stroke-linejoin="round" stroke-miterlimit="10" stroke-dasharray="" stroke-dashoffset="0" font-family="none" font-weight="none" font-size="none" text-anchor="none" style="mix-blend-mode: normal"><path d="M398,418c2.54,0 -2.09281,4.62753 -3,7c-3.42784,8.96443 -7.565,17.71658 -10,27c-6.02119,22.95577 -9.32226,46.55439 -13,70c-0.77656,4.95056 -0.77246,9.99407 -1,15c-0.10595,2.33093 -0.23218,9.32175 0,7c3.00021,-30.00211 4.00122,-59.00734 9,-89c1.95597,-11.73583 4.50708,-23.36639 7,-35c0.5172,-2.41362 2.30395,-10.94398 6,-12c3.22107,-0.9203 7.05909,-0.60413 10,1c18.61148,10.15172 33.36045,26.2403 51,38c35.9077,23.93847 40.29052,25.34307 86,35c2.91481,0.61581 28.59226,1.90862 34,0c1.43355,-0.50596 5.98618,-11.92628 6,-12c3.53965,-18.87812 0.12222,-21.16404 11,-41c2.31156,-4.21519 5.33333,-8 8,-12c1.33333,-2 1.5963,-6 4,-6c16.65571,0 12,41.76227 12,49c0,42.51197 -5.24274,85.57257 -1,128"/><path d="M523,483c6.08393,0 -1.99967,11.99887 -3,18c-1.33352,7.99997 -2.44272,16.04056 -4,24c-4.91669,25.12974 -9.82683,49.61465 -13,75"/></g></svg>