<svg version="1.1" xmlns="http://www.w3.org/2000/svg" xmlns:xlink="http://www.w3.org/1999/xlink" width="2064" height="2064"><g fill="none" fill-rule="nonzero" stroke="none" stroke-width="none" stroke-linecap="round" stroke-linejoin="round" stroke-miterlimit="10" stroke-dasharray="" stroke-dashoffset="0" font-family="none" font-weight="none" font-size="none" text-anchor="none" style="mix-blend-mode: normal"><path d="M1249.81362,899.05887c-2.30399,97.66115 16.31411,178.18703 1.01976,268.84713c-9.58209,15.84008 -12.78536,94.47209 -4.68546,110.44918c2.01464,15.23627 -0.73041,34.94739 -1.78307,54.57597c-2.62118,21.71324 -1.94012,43.48849 -4.32145,64.55287c9.84923,42.95126 -21.43528,89.49074 -27.83463,163.92827" stroke-opacity="0.96044" stroke="#341110" stroke-width="26.61446"/><path d="M969.56954,1006.34739c-16.48219,57.09086 -12.43034,103.15266 -14.90334,152.05202c11.35434,72.82985 -20.49242,151.76021 7.84612,223.24924c20.44427,28.73503 17.02701,51.24476 14.32794,74.21833c-1.42841,15.7077 -2.24635,30.16506 -24.07643,29.7098c1.10792,30.9728 -0.11564,66.13474 4.27512,91.5508" stroke="#0f181f" stroke-width="58.9573"/><path d="M689.39922,853.41965c22.68316,45.11135 21.64793,52.87395 8.82075,56.22013c-5.48392,22.48731 1.45133,80.09846 -7.94707,91.20738c-0.26946,22.53181 3.80095,41.17205 -9.42026,49.66654c10.97339,8.73056 7.00709,20.94888 -0.64577,34.65972c15.28598,26.14752 9.00571,36.40807 7.55283,41.58865c-3.51216,34.28531 -5.89383,58.01446 -11.48439,84.84732c5.13326,41.34351 -2.29907,71.09535 -4.37523,111.17418c1.00486,24.02764 -2.40677,43.16019 -21.06684,51.9479c2.7544,35.56321 -10.11032,65.90205 -23.71136,140.95273" stroke-opacity="0.72965" stroke="#351e13" stroke-width="49.09761"/><path d="M696.67225,865.06826c42.01185,35.6546 91.61027,74.78783 117.34464,90.59894c15.24928,3.92636 42.23343,18.8697 70.95391,22.25869c11.55308,-4.75554 20.10233,-2.57774 26.83884,2.08206c5.79851,1.18082 11.44243,-3.113 19.71519,0.42911c4.4638,1.51889 8.80922,13.57362 16.89267,11.89902c53.41505,-5.53552 55.52712,-5.08715 94.46914,-38.73386c32.07988,-14.82516 61.52943,-28.64582 101.01401,-32.88431c24.01871,-0.47705 44.81926,-22.94482 66.08427,-27.51456c13.4906,4.38099 25.46203,7.78229 32.09042,-28.42079" stroke-opacity="0.96078" stroke="#12141f" stroke-width="57.81318"/><path d="M313.48494,818.92407c18.31349,17.64016 27.66577,24.93816 43.8287,110.99041c47.46694,28.00258 -71.71305,27.80708 -138.25791,88.41347c30.7796,-13.94129 59.61368,8.72353 61.42222,0.51101c50.49266,-6.26466 110.54148,-1.08296 145.36187,-9.92333c59.31834,7.40394 105.34667,20.89714 145.47555,36.8054c7.76053,-0.14636 -1.2392,12.63688 -9.6319,8.26749c3.65082,5.69967 -8.29002,8.14524 -16.42697,2.59974" stroke-opacity="0.65921" stroke="#2b261b" stroke-width="18.42857"/><path d="M1270.43005,1030.48561c-65.32574,135.62516 -31.16387,117.9554 -4.96679,133.41951" stroke-opacity="0.7309" stroke="#86b3f1" stroke-width="41.83934"/><path d="M555.001,887c-13.89924,-20.21524 -41.6877,-60.18557 -47.001,-73c-8.64121,-20.84057 -17.63606,-43.5935 -15,-66c7.46628,-63.46334 55.40279,-97.47864 105,-128c21.35948,-13.1443 44.55684,-24.38468 69,-30c28.14616,-6.46601 150.25251,-2.95242 173,-4c45.89515,-2.11359 92.85247,-11.63935 138,-20" stroke="#181818" stroke-width="35"/><path d="M1333.71218,1181.6849c-346.44623,-149.68638 -227.63037,86.92875 -158.06937,204.37195c184.43503,3.32235 262.1845,53.36401 191.20135,-15.09793c68.42594,-78.81493 -13.00455,-11.10084 -162.45676,-84.2914" stroke="#ff2000" stroke-width="128.24279"/><path d="M913.7847,1079.57056c9.8041,-127.71781 -62.59011,-72.93319 311.44324,-216.58324" stroke-opacity="0.58794" stroke="#85291d" stroke-width="28.92344"/><path d="M967.66802,1554.80934c-21.54895,-180.55028 51.32237,-105.05925 -172.31295,-161.58758c23.59045,21.29074 -1.71566,239.94978 14.66165,206.79334" stroke-opacity="0.91923" stroke="#641a08" stroke-width="49.50477"/><path d="M637.56773,1186.18603c0.33687,-36.03246 -0.48331,40.92523 -23.80866,51.45426c-94.61901,-83.94222 -165.03453,-181.71704 -325.63005,-124.23068c-43.92997,90.33089 38.65428,32.99335 89.21411,42.64841" stroke-opacity="0.00371" stroke="#7304fe" stroke-width="18.42857"/><path d="M825.07084,962.68836c-28.19197,10.64221 88.31273,59.64414 98.18102,-114.82145c-85.55707,-76.79101 -234.98017,-49.50795 1.36212,-121.00119c105.84189,-27.97137 215.94042,116.93781 -40.79159,252.66554" stroke-opacity="0.46478" stroke="#c32d2e" stroke-width="113.47619"/><path d="M1358.96317,1392.56854c-288.71796,29.49075 -353.47308,-72.53649 -272.82734,40.55067c-114.78637,53.05469 -133.3225,-99.43038 -68.52338,-39.44346" stroke-opacity="0.96661" stroke="#e92403" stroke-width="86.74958"/><path d="M1348.88729,1153.45483c118.63308,-75.56885 133.11547,53.11213 32.63032,172.12469c-1.0528,182.71059 2.16832,-1.95798 14.86664,-87.4768" stroke="#ff1b00" stroke-width="39.50834"/><path d="M812.54299,1807.60606c-13.05053,-20.26128 77.56965,81.64828 68.06418,-17.5764c-163.25283,-91.64556 -283.95405,-113.76569 -250.96401,-57.82423c15.08654,253.18393 16.19656,58.32504 -133.76841,15.11114" stroke-opacity="0.61757" stroke="#8ce2b8" stroke-width="48.24925"/><path d="M1415.85298,1531.84055c-64.73058,-176.80979 86.69831,-101.45064 -206.79264,-52.5079c-107.22518,-39.91039 20.97454,-39.66392 242.84598,-23.27684c136.34348,154.46582 153.84916,54.82132 -276.12164,146.90301" stroke-opacity="0.8593" stroke="#641300" stroke-width="37.14353"/><path d="M845.93979,1642.42337c-126.93081,1.90877 183.24915,-59.14361 114.7359,-85.11151c-32.90547,-144.10425 60.26341,-79.74288 293.73889,-74.72927c-196.12667,-96.6423 -288.52598,-78.81662 -305.3255,-33.28298" stroke-opacity="0.93037" stroke="#37130e" stroke-width="26.75556"/><path d="M225.25439,1261.63475c217.04802,-164.27548 158.80151,-112.09911 236.35108,-145.49485c-87.64626,47.15334 -30.85818,74.72428 -3.51139,80.03863" stroke-opacity="0.56019" stroke="#4d33ff" stroke-width="22.34256"/><path d="M1100.46608,819.48984c-446.48821,56.82 -32.67412,153.89886 -290.0564,241.68336c12.74606,73.98367 34.35287,171.83998 27.97228,305.31088" stroke-opacity="0.65882" stroke="#fe7b7c" stroke-width="82.18871"/><path d="M1386.14458,1423.1561c68.52422,-13.42691 121.40935,-31.31741 112.76266,183.02286c0.4412,215.15321 12.51231,-104.24293 -20.95949,-133.75547c6.68744,98.57047 6.38965,159.81055 20.77432,300.85973" stroke-opacity="0.82353" stroke="#451616" stroke-width="22.27348"/><path d="M1694.13225,1302.9985c52.58439,-147.48137 134.63169,-133.85389 93.96375,-252.74266c-74.47169,131.89753 -173.58853,182.62461 -168.97759,344.98618" stroke-opacity="0.35433" stroke="#4e8a7a" stroke-width="75.32547"/><path d="M1670.35713,528.99731c-74.08687,-259.46167 -117.52981,-143.90471 -100.75257,-14.70077c1.014,-70.03798 -69.43418,-77.03843 -55.03081,-16.99524" stroke-opacity="0.4829" stroke="#37ac6f" stroke-width="76.32427"/><path d="M681.69264,901.56027c-25.08747,-96.90262 -54.31621,-129.66503 303.22741,-191.91468" stroke-opacity="0.82508" stroke="#2f2437" stroke-width="24.70299"/><path d="M1118.6394,1587.33464c96.59562,20.61784 37.27036,28.54705 -26.79554,-5.52314c-117.69093,18.10084 16.82216,-97.34459 67.91219,200.67167" stroke-opacity="0.56528" stroke="#865bdc" stroke-width="21.09734"/><path d="M1577.44266,1277.34695c-11.69501,18.18365 34.59041,8.3219 36.64709,-348.73638" stroke-opacity="0.33048" stroke="#2c955a" stroke-width="76.39328"/><path d="M1900.81395,1592.15563c-3.1182,294.34241 1.42328,337.98303 19.15055,363.71036" stroke-opacity="0.61659" stroke="#62545c" stroke-width="18.42857"/><path d="M-26.33664,1233.0749c-101.11537,61.56908 -178.74239,-4.78852 -211.02336,40.66076" stroke-opacity="0.73721" stroke="#1a6f24" stroke-width="18.42857"/><path d="M913.44874,437.03772c-159.11993,107.02145 -168.94729,95.24819 -176.15313,52.28382" stroke-opacity="0.35994" stroke="#774aff" stroke-width="22.60516"/><path d="M1013.93474,1572.82301c-45.5612,-53.7051 -68.44415,156.74043 -43.27703,162.36607" stroke-opacity="0.65562" stroke="#753a8e" stroke-width="34.83813"/><path d="M1008.68702,784.60579c-273.11599,146.92347 -287.46214,-36.36891 -237.98864,18.584" stroke-opacity="0.6194" stroke="#fe0016" stroke-width="111.4757"/><path d="M784.16537,121.1328c46.72219,109.29942 90.60857,90.02344 176.31397,-78.45246" stroke-opacity="0.44431" stroke="#470eff" stroke-width="18.42857"/><path d="M575.16287,1079.80607c-43.58779,80.9488 10.04442,91.37491 48.7279,73.38409c-62.35819,-130.71784 -52.54822,-111.27906 -31.06974,-46.76599c-72.82535,-133.59646 -15.10056,-113.74671 13.44244,-68.77962" stroke-opacity="0" stroke="#74e5a7" stroke-width="18.42857"/><path d="M1846.23405,1476.07469c-102.12172,209.63062 -75.55669,373.87355 -51.15422,403.87481c5.56223,-104.83612 -123.3461,-57.43421 -26.47139,-48.31525c-37.64871,30.96408 -31.22967,-73.60884 -127.01826,-16.41252" stroke-opacity="0.4953" stroke="#3804ff" stroke-width="20.71371"/><path d="M603.1291,1771.69079c104.1036,-87.83378 152.36816,113.4156 125.8986,13.32624c-168.85352,28.7647 -246.14815,50.88834 -300.40711,110.47357" stroke-opacity="0.81224" stroke="#83c8a6" stroke-width="53.11893"/></g></svg>