<svg version="1.1" xmlns="http://www.w3.org/2000/svg" xmlns:xlink="http://www.w3.org/1999/xlink" width="1893" height="1893"><g fill="none" fill-rule="nonzero" stroke="#3bff39" stroke-width="none" stroke-linecap="round" stroke-linejoin="round" stroke-miterlimit="10" stroke-dasharray="" stroke-dashoffset="0" font-family="none" font-weight="none" font-size="none" text-anchor="none" style="mix-blend-mode: normal"><path d="M1211.001,699c-0.00422,33.75385 3.76398,119.88692 -0.001,152c-2.90928,24.81448 -10.8393,48.78703 -17,73c-15.43385,60.65862 -30.55133,97.60949 -36,157c-4.48127,48.84585 6.73964,97.40217 9,146c1.60714,34.55347 -0.47121,62.96545 -23,90" stroke-width="38"/><path d="M901.001,735c25.359,101.46981 4.7281,175.6195 -15.001,279c-7.52426,39.42711 -21.16542,77.96157 -24,118c-2.54927,36.0085 6.25182,71.94372 8,108c0.92013,18.97771 0.24673,38.0016 0,57c-0.18115,13.94848 -3.4156,27.16881 3,40" stroke-width="38" opacity="0.19"/><path d="M719.001,837c-27.79851,55.58775 -58.37994,97.73891 -76.001,160c-21.22511,74.99541 -25.4659,139.6233 -26,216c-0.25758,36.83437 6.35545,63.97635 9,101c0.66667,9.33333 -0.4,36 0,48c0.13372,4.01164 0.77735,7.99232 1,12c0.11094,1.99692 2,6 0,6c-2.10819,0 -1.33333,-4 -2,-6" stroke-width="9" opacity="0.19"/></g></svg>