<svg version="1.1" xmlns="http://www.w3.org/2000/svg" xmlns:xlink="http://www.w3.org/1999/xlink" width="1065" height="1065"><g fill="none" fill-rule="nonzero" stroke="none" stroke-width="none" stroke-linecap="round" stroke-linejoin="round" stroke-miterlimit="10" stroke-dasharray="" stroke-dashoffset="0" font-family="none" font-weight="none" font-size="none" text-anchor="none" style="mix-blend-mode: normal"><path d="M141.2507,405.24379c273.60254,-3.74814 547.20509,-7.49627 820.80763,-11.24441c273.60254,-3.74814 27.65724,-36.85929 -218.28806,-69.97045" stroke="#000000" stroke-width="25.69413"/><path d="M353.34493,449.86097c-26.57855,199.10963 -53.1571,398.21925 4.00396,449.08362c57.16106,50.86437 198.06174,-46.51652 338.96241,-143.89741c140.90068,-97.38089 91.76835,-125.65729 42.63602,-153.93369" stroke-opacity="0.99916" stroke="#000000" stroke-width="25.62087"/><path d="M734.33933,461.18489c49.17644,-3.69826 98.35288,-7.39652 108.14462,14.04731c9.79174,21.44384 -19.80121,68.02977 -49.39417,114.6157c-29.59295,46.58593 -29.54518,51.73574 -29.4974,56.88555" stroke="#000000" stroke-width="25.71401"/><path d="M443.08301,536.18327c-18.60712,51.89665 -37.21424,103.7933 -55.82135,155.68995c-18.60712,51.89665 26.54672,25.88782 71.70056,-0.12101" stroke="#000000" stroke-width="24.68264"/><path d="M370.88601,518.11908c41.20988,2.27131 5.1036,8.45866 52.45487,6.77941" stroke="#000000" stroke-width="24.59574"/><path d="M522.36481,543.39466c38.38996,-0.5486 2.2892,8.49406 49.65022,3.97712" stroke="#000000" stroke-width="24.59365"/><path d="M407.54993,764.06844c93.29196,9.35759 105.47662,-3.84124 112.75812,-5.53362" stroke-opacity="0.99993" stroke="#000000" stroke-width="24.61853"/><path d="M765.42493,354.08553c-1.73338,-0.52641 -3.46677,-1.05282 -5.98617,-3.19259c-2.51941,-2.13977 -5.82484,-5.89289 -9.01111,-8.98209c-3.18627,-3.0892 -6.25337,-5.51447 -14.95158,-18.03074c-8.6982,-12.51628 -23.02751,-35.12356 -43.42903,-62.66591c-20.40152,-27.54235 -46.87525,-60.01976 -58.52773,-78.36982c-11.65248,-18.35006 -8.4837,-22.57276 -27.30404,-34.75305c-18.82033,-12.18029 -59.62977,-32.31817 -77.71169,-48.50873c-18.08191,-16.19056 -13.4363,-28.4338 -37.99487,-2.161c-24.55857,26.2728 -78.32133,91.06164 -97.63972,127.46025c-19.31839,36.39861 -4.19242,44.40697 1.33795,50.18377c5.53037,5.7768 1.46515,9.32202 1.02633,13.01282c-0.43882,3.6908 2.74877,7.52718 1.01142,8.80569c-1.73735,1.27851 -8.39963,-0.00086 -19.82763,-0.09128c-11.428,-0.09042 -27.62173,1.00811 -43.1573,2.93844c-15.53557,1.93033 -30.413,4.69245 -56.98741,7.07636c-26.57441,2.38391 -64.84582,4.3896 -87.02265,14.25777c-22.17683,9.86817 -28.2591,27.59882 -33.65587,39.07648c-5.39677,11.47766 -10.10804,16.70231 -10.34352,20.93459c-0.23548,4.23228 4.00482,7.47219 8.24513,10.71209c4.2403,3.2399 19.08223,10.67377 33.92415,18.10764" stroke="#191619" stroke-width="9.50893"/><path d="M451.18343,528.69562c-35.22243,1.96682 -70.44486,3.93365 -88.63576,5.21267c-18.1909,1.27903 -19.35028,1.87026 -20.50965,2.4615c-1.15937,0.59123 53.82591,10.95023 108.81119,21.30923" stroke-opacity="0.96205" stroke="#e91d30" stroke-width="12.30416" opacity="0.5"/><path d="M451.18343,528.69562c-35.22243,1.96682 -70.44486,3.93365 -88.63576,5.21267c-18.1909,1.27903 -19.35028,1.87026 -20.50965,2.4615c-1.15937,0.59123 53.82591,10.95023 108.81119,21.30923" stroke-opacity="0.86458" stroke="#801386" stroke-width="12.30416" opacity="0.5"/><path d="M728.65502,458.83816c-40.63755,2.31553 7.21193,-24.75933 20.9199,-33.14577" stroke-opacity="0.95438" stroke="#a64ecb" stroke-width="9.50893" opacity="0.5"/><path d="M399.50976,767.90808c-13.78183,-7.5499 -27.56365,-15.09979 -25.50435,4.34196c2.0593,19.44175 19.95972,65.87515 37.86015,112.30855c17.90043,46.4334 29.10621,24.59318 40.312,2.75295" stroke-opacity="0.30929" stroke="#6cdd15" stroke-width="12.27198" opacity="0.5"/><path d="M182.43557,409.77996c-14.01718,26.11562 -28.03436,52.23123 -21.34875,73.42392c6.68561,21.19269 34.07402,37.46245 61.46242,53.73221c27.3884,16.26976 36.02337,59.66442 44.65833,103.05909" stroke-opacity="0.27545" stroke="#dab864" stroke-width="9.50893" opacity="0.5"/><path d="M512.85845,757.54513c-16.62955,34.48116 -33.2591,68.96232 -49.88865,103.44348c-16.62955,34.48116 6.90516,55.56598 30.43986,76.65079" stroke-opacity="0.42304" stroke="#b041e7" stroke-width="9.50893" opacity="0.5"/><path d="M183.5945,414.32926c-8.12935,-40.61128 -16.2587,-81.22256 -16.51933,-90.46903c-0.26063,-9.24648 7.34747,12.87185 14.95557,34.99018c7.6081,22.11833 -8.04302,12.09733 -23.69413,2.07634" stroke-opacity="0.4472" stroke="#3a6a8c" stroke-width="9.50893" opacity="0.5"/><path d="M460.68714,558.18521c31.53866,27.2053 52.70214,60.00868 103.836,57.93847" stroke-opacity="0.3152" stroke="#5e76dc" stroke-width="9.50893" opacity="0.5"/><path d="M462.99531,558.13813c-18.83623,30.06519 17.29555,-9.04912 60.81435,42.18847" stroke-opacity="0.63131" stroke="#1565bf" stroke-width="9.50893" opacity="0.5"/><path d="M492.95164,929.79666c-18.60332,-16.47147 -37.20663,-32.94294 -45.46304,-29.37537c-8.25641,3.56757 -6.16592,27.17416 -4.07542,50.78076c2.09049,23.6066 66.38262,43.356 130.67475,63.1054" stroke-opacity="0.48517" stroke="#57a995" stroke-width="9.50893" opacity="0.5"/><path d="M462.11658,558.14274c17.99998,34.35701 35.99997,68.71403 41.42063,81.12348c5.42066,12.40946 -1.738,2.87136 -8.89667,-6.66674c-7.15866,-9.5381 26.58371,-27.67811 60.32607,-45.81812" stroke-opacity="0.00576" stroke="#bbd4c7" stroke-width="9.50893" opacity="0.5"/><path d="M492.97075,937.80372c2.02192,-24.31621 4.04384,-48.63242 6.06576,-72.94863c2.02192,-24.31621 -24.41972,-27.24941 -50.86136,-30.18261" stroke-opacity="0.73891" stroke="#75af3c" stroke-width="9.50893" opacity="0.5"/><path d="M265.68754,635.64023c-17.54723,3.36385 -35.09446,6.7277 -52.64169,10.09156c-17.54723,3.36385 -33.6497,3.67542 -49.75217,3.98699" stroke-opacity="0.51136" stroke="#1cb964" stroke-width="9.50893" opacity="0.5"/><path d="M734.3772,665.32436c-28.6749,31.23824 -57.34981,62.47649 -86.02471,93.71473c-28.6749,31.23824 -25.43996,-1.72913 -22.20501,-34.6965" stroke-opacity="0.30572" stroke="#ccd587" stroke-width="9.50893" opacity="0.5"/><path d="M40.89518,864.02653c13.39186,32.43547 26.78372,64.87094 40.17558,97.30641c13.39186,32.43547 27.38741,12.27794 41.38297,-7.87959" stroke-opacity="0.88367" stroke="#5a3682" stroke-width="9.50893" opacity="0.5"/><path d="M380.15887,209.45974c65.32332,-51.71539 70.03919,-2.41615 47.17966,2.79088" stroke-opacity="0.84349" stroke="#261fc2" stroke-width="9.50893" opacity="0.5"/><path d="M737.75297,1052.99914c17.8415,-0.48777 35.683,-0.97554 37.81067,2.85118c2.12767,3.82673 -11.45849,11.96796 -25.04466,20.10919c-13.58616,8.14123 -2.25524,41.58635 9.07568,75.03146" stroke-opacity="0.26084" stroke="#996f22" stroke-width="12.1081" opacity="0.5"/><path d="M576.06462,858.46425c32.95326,-21.98504 61.54338,-66.10124 46.4568,-13.83645" stroke-opacity="0.65765" stroke="#2acc6c" stroke-width="10.58677" opacity="0.5"/><path d="M644.30783,943.52342c-0.33198,-15.73523 -0.66395,-31.47047 -0.99593,-47.2057c-0.33198,-15.73523 -11.87481,-13.74998 -23.41764,-11.76472" stroke-opacity="0.56568" stroke="#3c4b56" stroke-width="9.50893" opacity="0.5"/><path d="M383.13977,123.19366c-32.15727,45.33366 -43.68505,15.91587 -76.53504,56.95288" stroke-opacity="0.52304" stroke="#5ecaaf" stroke-width="9.50893" opacity="0.5"/><path d="M825.02658,197.61292c-25.24861,-7.31846 -50.49722,-14.63693 -75.74584,-21.95539c-25.24861,-7.31846 -43.9931,13.36344 -62.73759,34.04534" stroke-opacity="0.08574" stroke="#184469" stroke-width="9.50893" opacity="0.5"/><path d="M590.31042,347.37675c-58.19986,14.31965 -101.68598,39.61924 -71.82287,86.15406" stroke-opacity="0.67274" stroke="#e89f5d" stroke-width="9.50893" opacity="0.5"/><path d="M581.4505,136.90218c-4.16461,-1.55893 -8.32921,-3.11785 -10.44588,-12.41234c-2.11667,-9.29449 -2.18539,-26.32454 -2.25412,-43.35459c-0.06873,-17.03005 -9.01798,22.15405 -17.96723,61.33815" stroke-opacity="0.17068" stroke="#6859b7" stroke-width="9.50893" opacity="0.5"/><path d="M291.92415,1041.50423c5.99073,20.37295 11.98146,40.74589 17.9722,61.11884c5.99073,20.37295 -35.45337,-61.80239 -76.89747,-143.97772" stroke-opacity="0.32346" stroke="#a6957f" stroke-width="9.54284" opacity="0.5"/></g></svg>