<svg version="1.1" xmlns="http://www.w3.org/2000/svg" xmlns:xlink="http://www.w3.org/1999/xlink" width="1893" height="1893"><g fill="none" fill-rule="nonzero" stroke="none" stroke-width="none" stroke-linecap="round" stroke-linejoin="round" stroke-miterlimit="10" stroke-dasharray="" stroke-dashoffset="0" font-family="none" font-weight="none" font-size="none" text-anchor="none" style="mix-blend-mode: normal"><path d="M772.94464,804.54947c16.13047,53.94517 17.3642,107.81284 30.70663,153.52653c-8.86192,45.07603 3.92641,84.34091 -2.59145,120.19788c3.28424,42.17116 4.29863,84.45335 -4.68296,123.41649c7.07093,39.37229 -23.62094,80.86337 -1.41949,138.20232" stroke-opacity="0.72426" stroke="#672510" stroke-width="41.42595"/><path d="M1079.41916,845.6851c-0.21806,16.95723 -2.48307,48.13931 -22.79882,78.80816c-0.10316,28.9217 -3.75852,59.04032 5.30728,87.55777c-26.65985,55.95654 -19.20136,115.92202 -19.37331,172.93589c-6.93889,43.43023 -20.69918,103.50809 -6.09574,152.40195c-51.6719,12.08381 -62.5893,33.31627 -63.60671,51.41936" stroke-opacity="0.74607" stroke="#723308" stroke-width="16.90179"/><path d="M1304.91284,830.82731c42.21191,66.26213 7.62987,142.29237 -3.06876,203.65529c-14.122,61.91592 -30.435,115.73736 -23.03428,188.46964c-34.86238,12.08188 -32.17751,19.51587 -36.51063,32.23115c12.1635,26.94483 0.02205,52.04644 7.86017,64.50808c-12.86964,17.36652 9.10545,10.53667 12.33049,60.49927" stroke-opacity="0.5946" stroke="#5a2000" stroke-width="40.53995"/><path d="M778.10446,790.32496c34.37992,12.8726 77.69248,23.23003 96.73613,29.39508c41.47406,4.53796 47.41609,-2.23445 75.10819,1.48538c30.02358,5.16111 34.56186,5.65493 68.98788,10.86291c-1.77294,-1.09285 22.70662,-0.31425 34.4638,3.01654c2.27049,-3.13698 6.85139,-6.045 7.7024,4.15794c18.85893,5.64435 33.48055,3.27927 36.79445,3.72596c10.47735,-3.04142 20.73497,-7.34121 38.62245,-3.73698c6.1784,-14.2476 55.97401,-21.11028 55.42107,-16.60546c25.19949,-5.63416 49.3047,2.1507 59.53459,3.47741c-6.79272,9.31609 1.55927,-2.95786 11.12004,-8.78758c8.28777,0.13321 14.47417,-2.99371 20.79209,-4.59502c3.558,-0.86977 14.03844,-3.32415 16.67019,-0.9768c0.59098,0.52309 -4.33905,1.07435 -5.26221,0.23817c-9.7961,-3.66748 -18.99981,-9.45535 -27.29145,-17.87439c-8.67643,-0.10935 -22.64124,2.18855 -26.5759,-18.87382c-27.86734,0.27518 -54.58148,6.52134 -76.82104,-0.97164c-22.91113,-34.51293 -34.00228,-40.4656 -69.82058,-46.35999c2.82027,-1.90814 -44.92677,-16.32119 -43.96544,-22.26335c-8.40615,6.41296 -13.20201,7.83728 -17.21649,5.44873c-2.47914,-1.20066 -4.07883,-2.51511 -5.09186,-2.75322c-0.25861,0.38556 -1.34379,4.3907 -6.44307,7.16319c-6.63108,9.21699 -10.64937,14.48635 -19.60549,13.06371c-11.49799,7.77564 -26.43193,10.17348 -24.81463,7.63883c-16.92725,-4.51513 -35.9337,5.05911 -58.44464,-1.2866c-10.02815,6.32843 -17.67936,5.28065 -28.22447,5.30457c-28.76825,7.17719 -52.42549,4.0727 -47.57322,5.28955c-17.28935,3.98083 -34.58598,7.26081 -77.07655,41.79218" stroke-opacity="0.64841" stroke="#6c1800" stroke-width="38.92049"/><path d="M1034.97931,761.10035c-10.9172,-8.29841 -27.71125,-11.46807 -40.1224,-11.83984c-8.08042,1.62039 -17.52404,3.32331 -25.96248,4.24253c-2.65502,1.40427 -13.06906,3.6001 -9.89959,4.29953c47.50906,15.75161 59.93453,4.72255 114.0062,2.09847c8.06643,5.72288 19.76984,4.7769 27.36527,11.26962c5.27098,3.01164 -9.70855,2.98785 -16.74472,6.66042c-12.33011,-1.32838 -23.56968,1.44412 -36.735,1.63154c-13.12328,2.66843 -29.92255,-1.87088 -39.7184,7.62258c-7.02999,8.56734 24.32739,-2.41589 36.01907,-2.60273c44.31251,-3.25638 89.77591,-15.04264 135.28714,14.59267c0.73592,-3.56896 -11.71166,-5.3938 -19.16796,-4.80108c-17.47729,-1.45005 -35.99586,-0.2129 -57.01542,-1.54186c-1.55579,-4.39946 -8.79558,-1.90279 -5.75867,-3.13711c16.78019,3.44356 32.25269,-5.81437 49.42578,-8.79487c4.61668,5.04628 12.04422,4.13305 14.63742,9.33311c3.3393,2.76418 -8.69641,-3.74169 -14.82156,-8.54329c-33.2968,1.31781 -70.32568,3.52847 -107.46352,0.9719c-12.56976,-0.87544 -26.1748,-0.25803 -38.08788,-1.20582c-15.03981,1.48016 -25.01167,-0.59717 -36.12236,2.36598c-10.42725,1.3984 -21.83156,3.6266 -33.88359,5.07291c-4.42629,1.42161 -16.64872,4.08831 -13.61387,5.05099c11.21914,-0.85881 23.0366,-4.28683 30.44267,-2.03729c18.48504,5.13242 31.05338,14.46488 46.88843,9.24149c5.54583,4.40005 17.47877,5.02391 13.38963,3.80197c-17.19566,-3.9268 -37.45087,-10.75317 -56.3675,-11.40231c-24.52411,-3.81467 -49.07272,4.29676 -75.35732,1.69783c-11.04918,-8.70106 -25.15235,-8.37997 -39.00092,-3.65445c0.28395,4.40559 -2.26714,1.90672 1.09015,-2.73974c23.60205,-6.59188 49.90606,4.41784 74.83152,8.43535c0.84159,-1.15849 3.3872,-2.58881 7.82348,-5.73236c27.88784,-0.87609 55.56182,-1.69589 84.25367,-3.38379c5.19045,-0.28176 11.84719,-1.35559 15.53859,-2.0407c10.41403,-0.77783 20.44676,1.20968 37.37872,0.72393c8.8382,7.08125 40.01872,8.00724 28.15284,-2.5645c-19.98125,6.86113 -37.37737,8.7331 -55.23506,8.9843c-24.39168,-1.63619 -48.86511,-1.54431 -69.05358,-6.46003c-8.47875,2.69764 -16.79927,1.40678 -21.82537,2.80054c-2.83955,0.37363 3.12421,-1.51749 2.90925,-1.29853c1.52697,-0.61052 8.99796,-7.22277 11.84822,-7.58267c14.95683,-2.88378 27.72266,3.0785 41.0814,-6.75668c4.46787,-0.36042 11.58252,-21.29854 16.09481,-27.18971c8.37249,-5.95886 19.95959,-7.16532 27.8696,-10.23537c2.01788,2.73994 17.86711,-0.11064 18.85493,0.56093c2.67475,-0.34365 -4.74325,1.20027 -10.96865,2.13709c-3.66155,4.01674 -8.84174,5.25047 -14.53722,7.83335c-2.35463,-0.12399 -33.59706,8.5636 -37.4559,12.77279c-36.36588,8.45508 -72.38592,16.67632 -103.26476,33.22317" stroke-opacity="0.27628" stroke="#6c1f0c" stroke-width="16.90179"/><path d="M1090.42617,857.75679c-16.00835,-6.86487 -17.33429,0.63656 -35.36336,5.72159c9.3912,6.99872 6.41464,17.0602 3.43395,11.55028c-1.84837,27.5901 4.79579,59.45877 -8.43207,81.38994c2.28519,29.17116 -17.77033,59.1382 -15.49874,80.49773c32.3995,8.71679 23.16117,39.16771 11.29457,65.68868c5.31456,20.3957 1.47074,25.59253 7.29911,45.75224c10.18528,20.27384 -21.57321,30.75016 -21.98694,55.84609c28.71622,33.97172 0.67615,59.90635 -30.70057,76.90524c-12.20735,24.74996 -11.86228,59.41995 -19.0432,77.82878c-10.80333,-2.07417 -4.48715,-0.70188 -10.1513,10.73254c10.29772,16.62106 10.8072,19.69098 -23.73409,27.96057" stroke-opacity="0.46223" stroke="#5b1f00" stroke-width="35.66019"/><path d="M1423.16241,726.2359c-194.57454,-66.62241 -107.3218,-138.29549 206.72901,-286.57384c156.79117,151.42628 -14.9153,207.51106 -103.98792,310.80065" stroke="#de1000" stroke-width="39.62115"/><path d="M1412.87243,790.30839c94.97828,6.84817 -17.88271,-104.60791 -122.06483,-135.74575c82.76217,-29.16226 214.31142,-56.95952 265.99306,24.41147" stroke-opacity="0.00146" stroke="#f68272" stroke-width="16.90179"/><path d="M1495.99011,762.19314c-236.16697,154.6934 -270.34192,31.70445 -299.7172,-124.56821c-4.59592,-137.68675 -72.92815,-177.46198 -167.48303,-247.32176c109.31157,31.8081 60.0836,-48.36097 -14.88178,62.8922" stroke-opacity="0.96483" stroke="#fe1c27" stroke-width="104.49881"/><path d="M993.04542,475.65721c-3.79533,37.26789 -44.18962,60.87858 50.93856,255.46307c67.04614,2.78739 -102.44232,-207.26812 -52.70996,-154.58805" stroke-opacity="0.57896" stroke="#ce3a48" stroke-width="60.5977"/><path d="M1033.60528,555.12847c-9.74323,-147.32473 -23.97401,44.71632 32.49395,95.56668c44.71942,-188.2088 0.77751,-87.54468 56.97422,63.11754c93.82082,75.7405 -80.03654,0.32682 -83.97398,-64.50614" stroke-opacity="0.98917" stroke="#7c0215" stroke-width="73.47676"/><path d="M985.23528,607.21824c11.05027,106.46402 214.20981,202.0621 272.75458,-40.15322c-29.04375,35.92777 157.85024,-32.49176 294.5931,86.67845" stroke-opacity="0.17914" stroke="#743d34" stroke-width="16.90179"/><path d="M980.7146,369.72605c88.30607,51.3287 57.50472,-6.82425 19.0392,-253.56225c-38.79866,189.60592 -20.40369,174.24022 13.68718,316.03133" stroke-opacity="0.19017" stroke="#e8141b" stroke-width="74.46507"/><path d="M929.74154,695.49097c25.71658,8.31246 9.69662,-81.89968 -41.23653,-28.27624" stroke-opacity="0.0267" stroke="#ff6434" stroke-width="24.16912"/><path d="M810.52504,916.18138c73.1032,-45.9037 133.48313,84.83408 111.63364,-43.99214" stroke-opacity="0.26765" stroke="#edab89" stroke-width="72.4843"/><path d="M933.75603,744.40295c20.05011,-49.51624 -16.3493,19.07131 34.22717,-27.54187c8.4801,-14.10904 -25.69059,-50.96577 -174.21997,-91.49372c166.63427,-40.61492 93.69226,-168.94155 -19.40065,-124.23348" stroke-opacity="0" stroke="#e586a4" stroke-width="16.90179"/><path d="M974.2968,682.44519c126.47932,161.00024 249.95125,296.22948 -48.92984,150.58872c-24.49896,-64.13032 -107.65456,-82.47035 -122.59623,-1.31555" stroke-opacity="0.40102" stroke="#f0a091" stroke-width="26.30682"/><path d="M962.9856,835.03818c28.78057,170.6349 -8.39893,412.13467 61.22797,365.30518" stroke-opacity="0.39236" stroke="#c52906" stroke-width="33.29465"/><path d="M984.37408,1003.25055c30.86286,31.90233 -7.53438,42.69477 -29.65498,-11.87833c74.16988,21.94439 9.41505,-8.36849 -163.06963,-64.69957" stroke-opacity="0.70593" stroke="#b02a08" stroke-width="30.24919"/><path d="M1066.07409,912.18695c-176.66391,-18.76802 -192.40133,-130.9517 -127.52446,-54.66027" stroke-opacity="0.40291" stroke="#454039" stroke-width="32.76732"/><path d="M838.42545,753.16474c-7.72406,106.36841 37.97157,221.40486 45.41111,-31.02108c6.65507,155.33674 -34.12827,295.91471 71.801,259.90538c9.07695,-272.47372 101.9055,-73.09514 2.60241,-156.83417" stroke-opacity="0.30619" stroke="#553c35" stroke-width="24.9114"/><path d="M1629.99227,1268.58726c38.68873,-771.46777 202.26294,-809.78028 130.74113,-426.30368c81.57789,-30.02939 83.26546,98.5101 123.36761,290.98133" stroke-opacity="0.34416" stroke="#2f10ff" stroke-width="21.34012"/><path d="M484.72681,1713.18564c-145.44879,-68.05125 -262.57377,-72.78876 -282.37544,-74.71231" stroke-opacity="0.59754" stroke="#7a6a6e" stroke-width="16.90179"/><path d="M1370.83009,1291.54056c49.51863,-193.15776 57.82909,-143.98162 83.97804,47.2531" stroke-opacity="0.4037" stroke="#4834fe" stroke-width="27.04792"/><path d="M1214.00785,624.6669c154.04981,3.70365 33.26391,-92.44405 61.22758,169.2746c331.81296,-145.12838 278.17785,120.36326 295.87667,-41.27483" stroke-opacity="0.51375" stroke="#d65d53" stroke-width="23.66618"/><path d="M1804.16001,276.5003c-13.50923,58.01958 12.95758,-55.55826 21.4616,-23.05122c-11.24667,-70.06747 41.52383,-72.12041 -149.75757,48.69159c62.58685,11.13167 11.18541,24.64593 -1.12354,-194.47189" stroke-opacity="0.23983" stroke="#1edc90" stroke-width="51.46691"/><path d="M611.69727,1295.59373c-284.86599,27.45599 -292.7043,36.84925 -99.20463,-42.69122" stroke-opacity="0.20672" stroke="#24c681" stroke-width="58.23226"/><path d="M1061.84026,789.07917c-75.45268,-241.75039 -59.38327,-121.69848 189.04327,-42.03473c-254.39088,117.61101 -255.24099,116.87122 -143.34538,129.97271c126.57229,-123.04485 155.48683,-133.91711 22.98309,-126.83245" stroke-opacity="0.30695" stroke="#ff525e" stroke-width="23.43778"/><path d="M893.23214,1750.18473c169.59897,-104.02673 157.4619,-124.81727 148.22667,-112.84191c81.32385,-11.05105 -80.90773,-25.79833 -245.85121,202.43058" stroke-opacity="0.48706" stroke="#796df7" stroke-width="16.90179"/><path d="M1143.57643,430.37825c383.97519,-17.05153 310.05438,66.29665 126.61123,-23.21536c62.47891,121.09867 162.18181,101.38795 23.52623,46.63414" stroke-opacity="0.01012" stroke="#ffbcf9" stroke-width="94.45381"/><path d="M957.66794,400.08413c273.5758,48.07793 259.52085,95.18886 196.86837,-35.44395c38.6503,46.85722 28.64336,168.64919 112.05106,176.96958c49.57227,-42.10401 219.46183,-99.43539 199.07091,-88.42834" stroke-opacity="0.20005" stroke="#ffe7f1" stroke-width="16.90179"/><path d="M368.83442,161.29644c44.80172,103.77093 26.92065,146.90106 198.47258,-31.44881" stroke-opacity="0.29967" stroke="#0cf674" stroke-width="35.05747"/></g></svg>