<svg version="1.1" xmlns="http://www.w3.org/2000/svg" xmlns:xlink="http://www.w3.org/1999/xlink" width="1104" height="1104"><g fill="none" fill-rule="nonzero" stroke="none" stroke-width="none" stroke-linecap="round" stroke-linejoin="round" stroke-miterlimit="10" stroke-dasharray="" stroke-dashoffset="0" font-family="none" font-weight="none" font-size="none" text-anchor="none" style="mix-blend-mode: normal"><path d="M656.44603,482.73915c12.19412,9.47632 24.59523,18.68138 37.3268,27.46478c8.20705,5.67569 16.33374,11.423 24.44908,17.15511" stroke="#6afe8b" stroke-width="9.85714"/><path d="M773.44119,564.72323c4.60877,2.86387 9.26062,5.66471 13.9669,8.38824" stroke="#6afe8b" stroke-width="9.85714"/><path d="M458.65207,628.0229c-0.10409,-1.93448 -0.21848,-3.85601 -0.34415,-5.7624c1.31107,-23.99195 3.20215,-47.8066 6.72773,-71.32377" stroke="#6afe8b" stroke-width="9.85714"/><path d="M473.87343,507.01003c5.11628,-19.71231 11.90562,-39.15294 21.02362,-58.24715c0.18447,-0.46669 0.36852,-0.93709 0.5524,-1.41085" stroke="#6afe8b" stroke-width="9.85714"/><path d="M512.88267,459.27727c0.34788,16.56884 0.79016,33.02592 1.35672,49.35792" stroke="#24180d" stroke-width="9.85714"/><path d="M512.75494,549.25588c-0.80349,21.33827 -0.89265,41.46216 -0.24988,64.23332" stroke="#24180d" stroke-width="9.85714"/><path d="M719.59238,490.48506c-0.1013,12.1924 -0.4009,24.52725 -1.13951,36.87004" stroke="#7697f8" stroke-width="13.36732"/><path d="M714.28719,566.78789c-2.1744,13.5984 -5.21293,27.02823 -9.44843,40.10349" stroke="#7697f8" stroke-width="13.36732"/><path d="M419.56141,635.97151c-1.35763,-5.10007 2.46325,-9.85774 1.64592,-14.78264c2.77066,-27.03838 3.75594,-47.04816 -0.01378,-68.11017" stroke="#7697f8" stroke-width="13.36732"/><path d="M413.55697,506.70961c-3.69815,-35.41709 -5.75607,-73.26581 9.24269,-102.60447c0.49386,-1.10785 0.993,-2.22614 1.49748,-3.35367" stroke="#7697f8" stroke-width="13.36732"/><path d="M475.83077,507.06471c-7.47495,-16.36245 6.04549,-37.05888 21.5993,-58.3697" stroke="#b744a8" stroke-width="12.54407"/><path d="M425.70325,283.2996c13.33518,5.56346 26.57635,27.04705 39.64429,38.37165c25.17673,15.45371 43.51599,37.7789 64.59173,57.43693c13.06879,10.14443 25.8791,20.58195 38.58019,31.13073" stroke="#6afe8b" stroke-width="9.85714"/><path d="M599.2717,436.0152c2.73948,2.30271 5.47952,4.60371 8.22163,6.90115" stroke="#6afe8b" stroke-width="9.85714"/><path d="M853.03478,610.38427c2.43949,1.61249 4.85689,3.38389 7.22752,5.37977c1.98666,1.20951 16.64265,8.12794 9.08623,12.9325c1.64787,1.03451 -9.98943,2.62793 -12.7616,2.18528c-6.20889,0.8732 -12.60451,1.17503 -19.07378,1.256" stroke="#6afe8b" stroke-width="9.85714"/><path d="M800.41277,632.82847c-23.03208,2.04275 -46.65748,2.37954 -70.24793,3.35245" stroke="#6afe8b" stroke-width="9.85714"/><path d="M539.16015,697.12292c-9.49765,5.07556 -18.99499,9.84593 -28.60419,13.97286c-12.12605,8.49196 -24.74874,13.39549 -40.27999,15.05036c1.63535,4.22872 -4.8965,9.57806 -7.50709,4.01928c-6.36143,-4.77598 -3.10021,-22.2367 -3.13582,-25.50695c-0.00469,-11.46793 0.0739,-23.49183 0.02236,-35.59284" stroke="#6afe8b" stroke-width="9.85714"/><path d="M512.38678,411.41986c2.17725,-2.85647 4.61745,-5.46009 7.39491,-7.69916c4.34521,-9.64409 16.49567,-7.31882 28.93498,-7.01488c2.13519,-5.25872 7.27629,-8.08045 15.93032,-10.39951" stroke="#6afe8b" stroke-width="9.85714"/><path d="M731.47619,452.38005c4.11582,-5.02545 16.69426,-8.45395 29.80455,-10.93555" stroke="#0d2112" stroke-width="12.56117"/><path d="M801.16554,434.21624c11.81595,-2.45545 26.82139,-4.05641 32.75099,-6.55058c1.11159,-1.01101 24.1408,-8.2415 40.70253,-5.35926c20.63606,8.72566 11.55194,30.90378 9.00636,56.65654c5.2712,-0.01008 10.51706,11.94233 16.17007,24.22563c-1.93809,2.47507 -18.11258,6.10375 -31.24243,9.14247" stroke="#0d2112" stroke-width="12.56117"/><path d="" stroke="#0d2112" stroke-width="12.56117"/><path d="M562.89557,415.81994c-1.75483,-49.19769 -6.279,-86.57433 -8.68747,-127.41323c1.90383,-7.68236 7.9185,-12.1199 2.33933,-24.95016c-1.71807,-7.02015 7.02443,-15.36757 -4.68897,-19.72959c0.27649,-2.14794 4.25595,-2.30271 8.08808,0.45222c21.6368,8.14104 32.22733,5.76046 43.79917,5.08706c16.96238,-2.36575 37.24555,-5.01466 72.54331,-5.8178c1.04143,5.02972 4.01364,-2.52631 6.13695,0.87496c10.01424,1.49293 21.43052,4.83051 27.96432,7.18881c1.3375,-0.2628 -5.08718,16.56903 8.11106,7.2975c3.01162,-0.01765 3.44246,2.54611 -1.16205,11.37546c4.28204,-16.32063 -14.48121,-39.79713 -17.52502,-46.90865c-15.67237,-46.94093 -59.52602,-91.87021 -112.29383,-88.48816" stroke-opacity="0.99366" stroke="#231a0c" stroke-width="13.23878"/><path d="M510.76601,180.0885c0.93275,78.24352 0.47595,155.69518 1.34901,231.14353" stroke="#24180d" stroke-width="9.85714"/><path d="M502.68353,658.7249c6.38682,7.57045 26.85518,12.37762 31.63442,21.93611c1.07264,1.49094 3.59122,2.02767 6.58361,2.2304" stroke="#24180d" stroke-width="9.85714"/><path d="M591.55368,718.51333c1.58745,1.22611 3.19527,2.42358 4.82516,3.58781c18.7757,8.21333 32.19056,20.54108 49.51061,31.69624c12.17568,10.04387 24.79635,21.96356 42.60865,27.53167c5.98617,0.83995 14.21725,5.56096 13.61012,19.93869c-7.27569,16.09253 -17.75402,18.1732 -26.35661,6.08528c-2.14412,4.61376 -5.96147,9.02692 -11.09923,12.66077" stroke="#24180d" stroke-width="9.85714"/><path d="M458.38128,300.99707c23.99249,0.37376 41.47867,-3.76768 71.24849,-1.11996c23.07692,1.24914 49.63331,1.6929 76.91932,2.2765c18.12237,3.46548 48.14833,-1.30904 62.49703,-1.94604c7.29893,6.9331 11.53562,13.74235 14.76368,22.79532c25.34725,3.84806 28.20611,14.69459 27.58311,36.15701" stroke="#7697f8" stroke-width="13.36732"/><path d="M711.19223,400.26215c1.82206,17.45002 0.83471,32.14592 4.70386,49.28454" stroke="#7697f8" stroke-width="13.36732"/><path d="M700.69272,648.08777c-1.22362,15.95778 -3.37777,31.38162 -5.7743,32.38155c-28.46059,-6.08092 -43.63345,-7.62764 -55.75108,8.67764c-3.61918,-0.46832 -7.25948,-1.09315 -10.9371,-1.83627" stroke="#7697f8" stroke-width="13.36732"/><path d="M542.78252,667.73685c-8.33392,-0.98276 -17.08849,-1.56116 -26.34161,-1.55141c-15.82994,1.61751 -29.6751,1.4169 -42.11435,-0.39417" stroke="#7697f8" stroke-width="13.36732"/><path d="M441.83655,363.93697c11.7814,-22.51572 25.69295,-43.80918 42.12295,-55.61346c48.62452,-28.98128 111.49926,-23.12486 143.26191,-28.62367c28.74809,-3.12187 48.20586,-5.1909 67.31821,-7.95048c5.30407,1.10336 16.85503,11.47386 26.70931,10.46865c12.63398,-27.16678 7.89996,-78.67656 17.06146,-106.55968c15.38035,-2.94223 19.63149,-18.14842 22.19692,-33.61594" stroke="#7697f8" stroke-width="13.36732"/><path d="M545.04761,398.23667c-23.6652,-54.22369 30.69505,-11.79391 -9.08589,-21.61657c-14.1457,15.53616 -26.76176,21.79847 -38.34861,24.5811" stroke="#5c1ed5" stroke-width="9.85904"/><path d="M444.76419,413.86978c-2.41883,1.97835 -4.82641,4.36987 -7.23093,7.26926" stroke="#5c1ed5" stroke-width="9.85904"/><path d="M856.13285,624.08551c-11.11708,-6.22676 -17.0027,-10.69301 -19.48713,-13.53823" stroke="#16cc4c" stroke-width="9.85714"/><path d="M846.92695,611.04786c6.14098,4.56822 12.01939,12.61714 10.09151,23.57181c26.79828,-19.16439 77.0178,39.21597 48.4805,41.392" stroke="#16cc4c" stroke-width="9.85714"/><path d="M469.08823,707.35626c-39.92033,52.75676 -12.94254,-4.37259 -30.65046,28.51459c8.7266,-50.04535 59.53569,-29.5327 59.7531,37.07837" stroke-opacity="0.78398" stroke="#f736a0" stroke-width="11.50544"/><path d="M460.46947,724.92129c-37.10315,52.709 -18.10443,14.72916 -30.50825,22.59295" stroke-opacity="0.04041" stroke="#a12e28" stroke-width="9.85714"/><path d="M463.94646,613.88122c-20.27324,-48.17202 6.53737,-23.36608 -49.37705,-21.2301" stroke-opacity="0.53081" stroke="#e15e9c" stroke-width="9.85714"/><path d="M459.21199,725.07321c-20.79347,31.51036 -22.10565,61.31656 -9.74378,83.75465" stroke="#b911d7" stroke-width="9.85714"/><path d="M480.12828,837.62998c1.38629,0.70854 2.80425,1.38592 4.25295,2.03121" stroke="#b911d7" stroke-width="9.85714"/><path d="M487.52873,864.34342c-21.11626,42.17666 -48.00507,86.22135 -67.16722,76.8479" stroke="#b911d7" stroke-width="9.85714"/><path d="M462.29441,697.31803c-17.91477,-12.27618 -29.48933,-18.83537 -36.43372,-21.84907" stroke="#1c7a4a" stroke-width="12.12211"/><path d="M418.16477,676.52278c1.92704,2.4312 6.31018,5.68628 11.48214,7.64808" stroke="#1c7a4a" stroke-width="12.12211"/><path d="M420.10739,933.18698c-51.02691,49.4198 -17.79301,92.43102 -41.08761,44.0376c-30.47722,-38.22283 -44.76016,-10.32574 -39.60579,15.87805c-4.38812,-18.36385 10.31442,-5.35573 -41.92817,22.5843" stroke-opacity="0.60652" stroke="#91222c" stroke-width="10.2075"/><path d="M914.05439,672.73165c-3.30469,-6.80363 50.99119,38.78851 83.16175,50.90614" stroke-opacity="0.44365" stroke="#aea30f" stroke-width="9.85714"/><path d="M916.34977,674.02486c-9.11423,-30.44248 -5.34264,-57.9356 -10.62572,-72.13107" stroke-opacity="0.23403" stroke="#0e29f2" stroke-width="11.61296"/><path d="M427.27111,688.79922c19.13674,-4.07172 34.81397,-14.55776 49.3363,-23.54155" stroke="#d572f1" stroke-width="14.5699"/><path d="M525.82734,652.32909c3.4549,1.16505 6.99044,2.90012 10.6352,5.30339c-41.95874,-13.30059 -11.52318,27.98492 -23.95846,45.98441c-28.27854,9.61923 -37.52774,-11.96432 -42.87214,-36.74774" stroke="#d572f1" stroke-width="14.5699"/><path d="M921.2815,675.15645c0.23892,-21.32771 16.26408,-4.34927 6.08077,19.32488c31.88207,-34.47232 81.09785,-60.27618 130.80388,-89.78376" stroke-opacity="0.27284" stroke="#a50a17" stroke-width="9.90992"/><path d="M440.20071,412.35754c26.50119,24.05405 -21.02942,-19.58967 -69.88376,-35.51168c3.14093,-1.58047 6.04788,-3.08507 8.73736,-4.51708" stroke="#75ed09" stroke-width="10.29653"/><path d="M391.09873,332.73458c2.69591,-0.69329 5.61307,-1.61604 8.7469,-2.81464" stroke="#75ed09" stroke-width="10.29653"/><path d="M425.8863,698.25635c-35.59647,39.5131 5.74104,27.54152 25.39768,62.03197" stroke-opacity="0.1163" stroke="#bcbd3f" stroke-width="9.85714"/><path d="M625.48833,786.71938c19.39452,-19.33481 39.891,6.17967 19.97712,11.0377" stroke-opacity="0.30654" stroke="#3bc65a" stroke-width="13.36614"/><path d="M470.25517,249.34256c-55.24274,11.47864 -12.13816,-38.4327 -6.84022,-58.44846" stroke-opacity="0.92451" stroke="#cdd2a3" stroke-width="9.85714"/><path d="M879.72947,866.0015c-36.4735,54.07734 -45.37804,67.57947 -10.63468,89.63125" stroke-opacity="0.6141" stroke="#ecff68" stroke-width="14.6191"/><path d="M394.29624,451.37674c53.68853,14.20454 33.37987,51.16281 63.41659,-5.44812c-35.97889,2.04392 -70.47076,-24.02913 -64.60348,-64.83977" stroke-opacity="0.73887" stroke="#25e388" stroke-width="11.15548"/><path d="M519.96313,416.65514c1.4454,-2.36526 2.79595,-4.71465 4.02453,-7.04285c14.69697,-1.33066 28.37554,1.6977 38.92086,6.19337" stroke="#b744a8" stroke-width="12.54407"/><path d="M568.31259,410.42607c1.19871,-1.90604 2.52047,-2.98489 3.99263,-3.42859" stroke="#b744a8" stroke-width="12.54407"/><path d="M1017.8607,229.01495c-17.50201,6.54903 -31.68,-23.39404 -64.79015,16.72049" stroke-opacity="0.46629" stroke="#3b0f24" stroke-width="10.0083"/><path d="M583.07318,132.63888c3.14552,58.63578 47.93264,26.55623 30.44895,-16.54328c-17.77823,-5.12435 -21.27917,16.0373 4.86363,39.46423" stroke-opacity="0.72036" stroke="#887406" stroke-width="14.14837"/><path d="M40.80255,849.23093c17.45258,-1.68495 42.20456,26.45761 58.7712,42.07966c5.00774,45.36082 35.28892,38.08092 11.46512,28.02854c-47.36907,23.25534 -49.62107,-17.1214 -48.49504,31.87042" stroke-opacity="0.61628" stroke="#7b71e7" stroke-width="9.85714"/><path d="M596.33172,825.80464c-3.0295,-3.08869 -6.72407,-7.37323 -11.3079,-13.33856c-19.74452,-10.79774 -37.03975,0.48969 -40.4146,20.04474" stroke="#7dff3f" stroke-width="11.29039"/><path d="M554.10268,870.79594c4.12892,6.37444 9.63781,12.78377 16.72916,18.9841" stroke="#7dff3f" stroke-width="11.29039"/><path d="M158.617,1063.56099c-53.87752,19.30676 -61.37478,58.20266 -95.82436,83.54408c-28.15515,-12.8999 26.10621,-64.40511 -8.82925,-127.46745c12.1588,-38.68104 -9.33268,-39.63192 42.26718,-47.74343" stroke-opacity="0.61358" stroke="#736aff" stroke-width="9.85714"/><path d="M1028.28428,394.74337c-16.8184,37.52771 -26.79497,60.45449 -43.12192,55.51167c-1.57237,-24.20479 -25.60276,-20.05112 -70.17251,-16.22478c7.70729,37.97033 50.39926,-6.26295 50.5714,2.59845" stroke-opacity="0.11146" stroke="#f79e33" stroke-width="9.85714"/><path d="M854.15356,128.68486c-26.22417,-33.24396 -34.57603,-53.48146 -39.9104,-87.03962c-41.78374,21.97781 -2.66433,-13.21273 37.64511,-16.81741" stroke-opacity="0.24988" stroke="#00845c" stroke-width="9.85714"/><path d="M25.33428,446.57102c-20.20676,48.28106 4.36718,76.74203 9.97299,118.30602" stroke-opacity="0.88482" stroke="#ad45a5" stroke-width="11.16129"/></g></svg>