<svg version="1.1" xmlns="http://www.w3.org/2000/svg" xmlns:xlink="http://www.w3.org/1999/xlink" width="999" height="999"><g fill="none" fill-rule="nonzero" stroke="#181818" stroke-width="8" stroke-linecap="round" stroke-linejoin="round" stroke-miterlimit="10" stroke-dasharray="" stroke-dashoffset="0" font-family="none" font-weight="none" font-size="none" text-anchor="none" style="mix-blend-mode: normal"><path d="M649.501,673.16666c-37.59925,8.35446 -79.46494,-9.69279 -116.001,-17c-49.00277,-9.80055 -98.55906,-19.50895 -148,-27c-20.14676,-3.05254 -40.06641,-1.67773 -60,-5"/><path d="M675.501,342.16666c19.15846,-4.79021 38.35989,-4 57.999,-4c8.24406,0 22.59584,-0.80139 31,2c25.64642,8.54881 30,26.46114 30,50c0,11.79191 2.75198,17.27903 -5,26c-27.83091,31.30978 -69.15701,48.55032 -108,61c-47.78373,15.3153 -97.65572,26.01286 -148,27c-21.93426,0.43008 -44.043,0 -66,0c-10.59107,0 -16.80201,0.599 -26,-4"/></g></svg>