<svg version="1.1" xmlns="http://www.w3.org/2000/svg" xmlns:xlink="http://www.w3.org/1999/xlink" width="1104" height="1104"><g fill="none" fill-rule="nonzero" stroke="none" stroke-width="none" stroke-linecap="round" stroke-linejoin="round" stroke-miterlimit="10" stroke-dasharray="" stroke-dashoffset="0" font-family="none" font-weight="none" font-size="none" text-anchor="none" style="mix-blend-mode: normal"><path d="M715.66413,593.34323c-10.33033,-16.26152 -1.00864,-33.89619 -4.68228,-56.76724c2.54197,3.67909 -0.34248,-1.72217 -0.32007,-21.13267c-0.85913,-2.02167 -1.8516,-2.33952 -0.44197,-6.04588c-1.95907,6.50714 34.99522,7.38707 41.77509,11.2468c18.37926,-5.02122 34.41209,-10.90989 54.61099,-11.48452c12.91336,5.88227 38.95907,20.87897 40.82639,36.61835c13.41241,13.13645 38.03421,26.44366 39.80391,43.2833c-0.34037,8.80485 2.46692,14.80166 9.31199,15.37648c-19.56741,14.67701 -62.00918,14.24665 -70.77692,22.99454c-49.35295,9.39723 -94.95532,15.89065 -154.98821,11.44301" stroke="#1c1111" stroke-width="9.85714"/><path d="M595.94055,591.70671c-10.58572,-39.4488 -8.37359,-75.97243 -7.94279,-116.87812c-0.65142,-43.26947 6.88922,-92.74007 7.45885,-151.13867" stroke-opacity="0.98111" stroke="#191516" stroke-width="9.85714"/><path d="M671.04324,899.68674c-4.86525,-33.00043 -1.0788,-51.61749 5.7971,-85.62415" stroke-opacity="0.9775" stroke="#1d1813" stroke-width="9.85714"/><path d="M552.66698,592.29319c-21.30421,5.02837 -74.11026,1.5248 -89.40447,18.87858c-56.07055,-15.35745 -85.73474,-18.52775 -143.67546,-4.92331" stroke-opacity="0.97565" stroke="#1a1618" stroke-width="9.85714"/><path d="M490.1084,236.10595c31.22802,-68.85446 88.8195,4.38 185.67488,-61.04176" stroke-opacity="0.86659" stroke="#de6062" stroke-width="9.85714"/><path d="M182.57288,327.96264c88.77849,-67.72905 12.19563,48.66596 36.86411,38.59501c51.8752,-101.7067 16.49743,-69.83915 141.91837,-123.59722" stroke-opacity="0.25688" stroke="#6b63c6" stroke-width="9.85714"/><path d="M760.64396,865.54832c-17.62527,42.46178 4.98189,-4.75681 -54.80975,32.79475c1.72623,34.88805 39.05601,62.47943 -6.58547,-10.39267c-47.27829,41.48773 -1.49295,18.84493 -56.20531,45.9717" stroke-opacity="0.48135" stroke="#7f42ff" stroke-width="13.76469"/><path d="M877.43153,580.36531c-0.76806,-41.23625 -37.84192,-43.49452 -40.4697,-74.45143" stroke-opacity="0.70661" stroke="#25df94" stroke-width="9.85714"/><path d="M662.43321,813.05899c34.62717,-3.66424 -10.67777,-19.41324 15.46699,-32.33254" stroke-opacity="0.22463" stroke="#3924b5" stroke-width="9.85714"/><path d="M752.17418,501.7974c64.74796,22.53673 43.39197,-0.54087 32.55071,-60.00718c54.82321,58.69002 0.33105,84.4383 12.72655,72.42009" stroke-opacity="0.67147" stroke="#2407ff" stroke-width="15.10084"/><path d="M884.70196,599.39821c-45.92003,-16.69962 -23.8399,-13.07253 33.61207,-24.84196c19.75873,-14.28316 59.74321,-63.31198 23.91233,-63.4358" stroke-opacity="0.09982" stroke="#3cebf6" stroke-width="9.85714"/><path d="M856.17842,528.01834c-23.913,2.46169 -39.76278,-43.75916 -35.82427,-10.18699c0.58027,5.04578 -13.2496,2.83794 43.56314,-28.52613c64.98313,37.19982 72.43419,55.17039 86.60075,87.5088" stroke-opacity="0.90854" stroke="#a7454e" stroke-width="11.13671"/><path d="M757.28956,882.09945c27.41006,39.70502 -12.58848,31.23201 53.38697,17.53217c-31.66533,-32.04308 9.2619,-15.97258 -23.31866,-73.3316c-30.71949,11.859 16.88052,3.61288 47.40509,-3.67259" stroke-opacity="0.67641" stroke="#2321e6" stroke-width="11.12933"/><path d="M647.78489,951.21015c8.80812,-43.54313 -41.40621,17.96474 -70.70063,-6.04806c-1.45211,-49.43665 -27.87024,-27.18024 -52.20329,-28.32816c-23.97271,-59.81059 -11.30899,-41.97521 18.81725,13.48882" stroke-opacity="0.21477" stroke="#51f3b9" stroke-width="9.85714"/><path d="M810.06993,521.92222c5.35453,-47.74399 27.1276,-92.54462 16.57241,-76.90609" stroke-opacity="0.42917" stroke="#e5727b" stroke-width="9.85714"/><path d="M835.03113,835.78046c-49.76078,-17.69814 1.49746,29.40169 -0.36512,53.05938c1.89266,13.36022 -2.87505,27.03841 36.73461,16.40726c13.20778,-11.11109 8.20461,-9.95205 -34.3068,9.6832" stroke-opacity="0.635" stroke="#4f8c34" stroke-width="9.85714"/><path d="M840.2463,507.2947c39.22026,-23.06053 47.78201,-80.74702 37.65804,-50.53c-28.75885,25.13341 -29.0004,49.19934 -16.70785,44.63698" stroke-opacity="0.37894" stroke="#504e78" stroke-width="9.85714"/><path d="M844.95685,812.5755c38.98359,18.69775 16.07659,76.19439 64.38533,103.7472c45.76466,-45.55086 102.2368,-26.82806 84.64447,-21.87618" stroke-opacity="0.62985" stroke="#b2f67d" stroke-width="9.85714"/><path d="M675.72898,804.79738c11.88735,31.7728 49.91923,12.53177 66.46946,36.86472c-37.09612,41.79065 -84.94935,32.05692 -69.52989,53.5567c-22.26949,-27.26124 -58.25169,-63.64465 -70.90473,-113.26351" stroke-opacity="0.75667" stroke="#6535db" stroke-width="9.85714"/><path d="M1024.69133,792.34411c7.89996,-53.85917 35.4478,-21.98297 11.27797,-25.02971c34.77562,39.34998 -11.04394,12.7458 -31.77889,4.05786" stroke-opacity="0.23776" stroke="#fd92d0" stroke-width="11.1561"/><path d="M1002.62489,792.59026c-13.59095,15.68613 -15.76292,31.66744 -9.27288,11.73266c-26.68848,-3.99822 19.61727,8.06368 66.17526,-47.18143" stroke-opacity="0.66125" stroke="#1d63e1" stroke-width="9.85714"/><path d="M695.943,982.03192c30.17073,16.79306 56.75731,29.96076 19.63893,50.34564c13.31194,30.15546 43.14403,75.55569 2.63177,57.65299" stroke-opacity="0.62944" stroke="#0d10cd" stroke-width="9.85714"/><path d="M610.004,1063.75261c-70.07057,-45.8543 -68.89562,-44.4337 -111.43158,-51.47626c-22.69462,14.16882 12.82819,-31.10958 -4.55473,-54.89383c-38.70755,25.58584 -61.47343,76.64532 -78.94118,20.26696" stroke-opacity="0.46299" stroke="#00c855" stroke-width="9.85714"/><path d="M675.17044,579.87475c4.19323,39.70653 -0.95539,76.01624 48.9961,64.91071c8.68238,17.87427 55.56472,-1.25591 4.46013,19.77069c43.94698,-34.18839 -0.01542,0.6366 -35.36432,-13.55545" stroke-opacity="0.48562" stroke="#4e611c" stroke-width="11.6737"/><path d="M894.42095,677.83492c-57.41211,36.41605 -88.8759,22.11841 -36.41943,60.0171c-28.0951,-12.66 -60.77794,-47.07208 -103.59649,-91.89632c-45.67893,49.29308 29.07237,9.2513 66.30709,9.8882" stroke-opacity="0.90558" stroke="#e81418" stroke-width="14.17028"/><path d="M852.77604,1012.16399c6.54681,75.9293 22.09863,67.88879 7.52958,48.67077c-3.84278,28.93573 16.10209,45.86288 -13.56786,74.72739c-18.00911,54.21857 8.7187,50.90651 51.45452,86.98527" stroke-opacity="0.44767" stroke="#017255" stroke-width="9.85714"/><path d="M557.3179,1029.83145c-45.88288,43.8156 -49.58912,50.45897 -53.93814,43.94623" stroke-opacity="0.39725" stroke="#bc645d" stroke-width="9.85714"/><path d="M428.08173,528.47543c35.28878,-56.95893 53.72922,-81.01572 19.91403,-19.92185" stroke-opacity="0.84357" stroke="#9c2120" stroke-width="11.8731"/><path d="M749.92731,13.04497c26.2896,-11.32109 67.87382,20.95479 101.22026,23.32653" stroke-opacity="0.15545" stroke="#9a1f18" stroke-width="11.06624"/><path d="M206.00046,483.98442c4.73908,-14.80139 -7.10721,-7.08745 21.13829,20.35521c-31.09807,-32.70104 -19.12517,-74.67569 27.94702,-138.09118" stroke-opacity="0.82087" stroke="#d1cf97" stroke-width="9.85714"/><path d="M965.93487,406.99196c32.34179,-12.50714 81.47981,-68.82842 107.01466,-27.1681c-28.90271,-15.16361 -6.75137,-52.29639 -10.2758,-11.47696" stroke-opacity="0.44468" stroke="#67837f" stroke-width="9.85714"/><path d="M727.37535,34.7725c18.62443,-27.6544 49.81109,-20.12231 36.29708,-21.45687c-59.53166,10.83751 -58.50881,7.25723 -11.08004,37.16399c15.20866,2.60459 19.15214,26.65098 -23.42154,-7.19754" stroke-opacity="0.36396" stroke="#1e5d58" stroke-width="9.85714"/></g></svg>