<svg version="1.1" xmlns="http://www.w3.org/2000/svg" xmlns:xlink="http://www.w3.org/1999/xlink" width="925" height="925"><g fill="none" fill-rule="nonzero" stroke="#181818" stroke-width="8" stroke-linecap="round" stroke-linejoin="round" stroke-miterlimit="10" stroke-dasharray="" stroke-dashoffset="0" font-family="none" font-weight="none" font-size="none" text-anchor="none" style="mix-blend-mode: normal"><path d="M439.5,320.83333c1.79696,0 -3.21535,1.79005 -5,2c-3.97261,0.46734 -8,0 -12,0c-11,0 -22,0 -33,0c-21.73628,0 -23.18737,2.25813 -45,-9c-11.46772,-5.91882 -12.35689,-37.394 -10,-48c4.27907,-19.25583 45.9976,-35.33232 57,-40c29.72462,-12.61044 88.7532,-24.58108 118,-4c2.46852,1.7371 0.87167,5.98427 1,9c0.53871,12.6596 2.14718,25.38099 1,38c-1.46827,16.15101 -12.99344,45.05619 -19,59c-10.86264,25.21684 -23.80142,56.03285 -45,75c-34.60847,30.96547 -83.7094,36.91574 -128,39c-16.02068,0.75391 -55.42705,1.6656 -73,-5c-27.73059,-10.5185 -44.97751,-33.89505 -51,-62c-0.44706,-2.08629 -5.37274,-29.65554 -1,-35c2.11079,-2.57986 5.33333,-4 8,-6"/></g></svg>