<svg version="1.1" xmlns="http://www.w3.org/2000/svg" xmlns:xlink="http://www.w3.org/1999/xlink" width="804" height="804"><g fill="none" fill-rule="nonzero" stroke="none" stroke-width="none" stroke-linecap="round" stroke-linejoin="round" stroke-miterlimit="10" stroke-dasharray="" stroke-dashoffset="0" font-family="none" font-weight="none" font-size="none" text-anchor="none" style="mix-blend-mode: normal"><path d="M492.72293,339.11301c-2.22413,-5.04028 -4.44826,-10.08055 -4.82672,-10.94742c-0.37846,-0.86687 1.08875,2.43968 -0.85181,-14.99548c-1.94056,-17.43516 -7.28889,-55.61203 -9.87897,-73.92552c-2.59008,-18.31349 -2.4219,-16.76362 0.46222,-15.42816c2.88412,1.33546 8.48418,2.45649 7.85114,3.84601c-0.63305,1.38952 -7.49921,3.04751 6.96017,4.51784c14.45938,1.47033 50.2443,2.75299 64.29761,6.09785c14.05331,3.34487 6.375,8.75194 11.55243,31.3918c5.17743,22.63986 23.2106,62.51249 41.24377,102.38513c18.03317,39.87264 9.47923,42.67759 0.92529,45.48254" stroke="#231d0b" stroke-width="10.30594"/><path d="M432.82819,405.89789c5.57091,-0.81366 11.14181,-1.62732 10.2565,8.43256c-0.88531,10.05987 -8.22685,30.99328 -10.0498,43.94458c-1.82295,12.9513 1.87268,17.92051 0.95981,28.49329c-0.91287,10.57278 -6.43424,26.74914 -8.34293,47.49182c-1.90869,20.74269 -0.20469,46.0517 1.03888,61.96313c1.24357,15.91143 2.02672,22.42528 3.34778,28.08478c1.32106,5.65949 3.18002,10.46463 5.88144,12.97272c2.70142,2.50809 6.24529,2.71913 9.78915,2.93018c3.54387,0.21104 24.35545,2.75686 45.16702,5.30267" stroke="#230d16" stroke-width="10.62108"/><path d="M434.4809,483.47339c5.69092,7.19422 11.38184,14.38843 2.58209,8.22226c-8.79975,-6.16617 -32.09017,-25.69274 -55.38058,-45.2193c-23.29042,-19.52656 -22.33626,-6.21441 -21.38211,7.09775" stroke-opacity="0.23681" stroke="#e9b277" stroke-width="7.31926" opacity="0.5"/><path d="M492.4971,339.01651c-34.33163,36.39005 -63.58435,37.37604 -87.0531,31.80313" stroke-opacity="0.09854" stroke="#63998b" stroke-width="7.17857" opacity="0.5"/><path d="M553.4978,250.41313c18.89187,-20.77243 37.78374,-41.54486 48.89752,-55.27554c11.11378,-13.73068 14.44947,-20.41961 17.78516,-27.10854c3.33569,-6.68893 -2.49918,18.51451 -8.33405,43.71794" stroke-opacity="0.47156" stroke="#389ded" stroke-width="7.17857" opacity="0.5"/><path d="M604.26666,419.43341c-7.27629,-6.48199 -14.55257,-12.96399 -21.82886,-19.44598c-7.27629,-6.48199 -59.9798,-1.49832 -112.68332,3.48535" stroke-opacity="0.12942" stroke="#eea0b9" stroke-width="7.50962" opacity="0.5"/><path d="M504.69672,232.79492c-13.48607,3.32798 -26.97215,6.65595 -40.45822,9.98393c-13.48607,3.32798 31.52752,-5.35723 76.54111,-14.04243" stroke-opacity="0.72704" stroke="#b56b6b" stroke-width="7.17857" opacity="0.5"/><path d="M428.25797,595.95551c10.5134,2.39573 21.02679,4.79146 31.54019,7.18719c10.5134,2.39573 23.81375,26.27889 37.11411,50.16205" stroke-opacity="0.33199" stroke="#4785a7" stroke-width="7.88011" opacity="0.5"/><path d="M533,599c2.10955,0 -1.63327,-3.92257 -2,-6c-0.64005,-3.62573 -0.7838,-7.32457 -1,-11c-0.59589,-10.13015 -4.40459,-32.43817 7,-37c14.06643,-5.62657 52.20129,-8.9329 67,-4c19.15514,6.38505 29,37.14688 29,55" stroke="#181818" stroke-width="8"/></g></svg>