<svg version="1.1" xmlns="http://www.w3.org/2000/svg" xmlns:xlink="http://www.w3.org/1999/xlink" width="1104" height="1104"><g fill="none" fill-rule="nonzero" stroke="none" stroke-width="none" stroke-linecap="round" stroke-linejoin="round" stroke-miterlimit="10" stroke-dasharray="" stroke-dashoffset="0" font-family="none" font-weight="none" font-size="none" text-anchor="none" style="mix-blend-mode: normal"><path d="M517.91196,231.61113c28.15471,0 64.7611,-5.54904 91.00001,7c29.06054,13.89855 49.63756,49.30807 62.00001,77.00001c2.17841,4.87959 0.87279,10.65777 1.00002,15.99995c0.20632,8.66423 0,17.33334 0,26.00001c0,21.33335 2.64607,42.83149 0,64.00006c-4.77715,38.21731 -28.54256,88.25431 -53.00005,117.99996c-29.72058,36.14659 -77.12137,67.60606 -124.99995,70.00002c-20.97383,1.04871 -42.00005,0 -63.00003,0" stroke="#181818" stroke-width="8.00002"/><path d="M462.91195,579.61112c1.66767,0 0.00009,3.33236 0,5.00003c-0.00054,15.33329 0,30.66668 0,45.99997c0,81.00003 0,161.99996 0,242.99999" stroke="#181818" stroke-width="8.00002"/><path d="M364.33333,300c1.94925,0 -1.88743,6.44278 -5,10c-1.24169,1.41907 -2.59067,2.74726 -4,4c-3.29521,2.92908 -10.86005,8.43002 -14,10c-3.68782,1.84391 -8.8695,0.31672 -12,3c-5.05156,4.32991 -0.81844,5.6229 1,9c5.35768,9.94998 9.8313,21.57824 14,32c17.80857,44.52143 33.56494,93.76369 42,141c2.22377,12.45309 9.85581,33.14732 6,46c-2.79269,9.30895 -13.5415,15.33844 -21,20" stroke="#181818" stroke-width="8"/></g></svg>