<svg version="1.1" xmlns="http://www.w3.org/2000/svg" xmlns:xlink="http://www.w3.org/1999/xlink" width="2064" height="2064"><g fill="none" fill-rule="nonzero" stroke="none" stroke-width="none" stroke-linecap="round" stroke-linejoin="round" stroke-miterlimit="10" stroke-dasharray="" stroke-dashoffset="0" font-family="none" font-weight="none" font-size="none" text-anchor="none" style="mix-blend-mode: normal"><path d="M1393.001,634c-6.57503,-13.14859 -14.4609,-25.81506 -24.001,-37c-5.50649,-6.45589 -9.54403,-17.29534 -18,-18c-7.47053,-0.62254 -10.36465,4.51145 -16,8c-12.12058,7.50322 -24.42434,12.54086 -36,21c-30.13601,22.02247 -71.11317,38.4387 -107,19c-24.22848,-13.12376 -35.8547,-54 -67,-54c-20.75213,0 -35.08153,11.27044 -55,19c-32.27654,12.52522 -75.29343,21.30239 -110,16c-27.34793,-4.17816 -58.66389,-17.86306 -82,-33c-18.17275,-11.78773 -34.68536,-30.94358 -59,-25c-9.14125,2.23453 -17.3846,7.21445 -26,11c-51.03867,22.42608 -101.52995,54.70578 -160,44c-23.46164,-4.29579 -51.76202,-20.72749 -71,-33c-12.43712,-7.93403 -31.83937,-31.3692 -48,-34c-34.27766,-5.58008 -49.85009,14.85252 -76,32c-10.61441,6.96027 -21.992,12.68059 -33,19c-6.99308,4.01455 -24.66104,15.70763 -35,17c-11.03881,1.37985 -27.20339,-13.45468 -32,-17c-18.50462,-13.67733 -37.23047,-35.29219 -59,-44" stroke="#ffdf6c" stroke-width="21"/><path d="M271.001,758c26.43355,-16.99421 68.72168,-39.19184 99.999,-24c27.26314,13.2421 44.49411,37.06684 75,44c41.08358,9.33718 80.1813,-23.80403 121,-15c37.42743,8.07258 39.59704,39.7548 76,49c11.32614,2.87648 23.3163,1.78364 35,2c51.32453,0.95045 102.66667,0 154,0c28.24849,0 44.59547,-1.35113 74,6c2.33193,0.58298 1.73469,5.19618 4,6c8.62606,3.06086 17.92943,3.77425 27,5c33.49561,4.52643 67.25677,-7.04072 101,-9c39.93274,-2.31868 80,0 120,0c11.66667,0 23.40214,-1.26522 35,0c13.7858,1.5039 17.03113,9.09461 29,5c5.9784,-2.04524 61.54638,-25.84535 64,-27c17.16871,-8.0794 23.59451,-12 43,-12c4.01386,0 7.99892,0.67991 12,1c4.33229,0.34658 9.87146,-2.01681 13,1c15.80382,15.2394 18.7122,40.3309 33,57c1.45521,1.69775 4.83736,-1.08995 6,-3c3.73333,-6.13333 5.33333,-13.33333 8,-20" stroke="#ffdf6c" stroke-width="37"/><path d="M1385.001,1026c-26.63446,5.32583 -70.15475,-4.80907 -95.001,-9c-45.82714,-7.72988 -92.58812,-17.49125 -139,-20c-36.43772,-1.96961 -74.48845,7.85822 -108,21c-10.89805,4.27374 -34.18349,16.19059 -46,16c-42.25435,-0.68152 -45.99947,-22.99983 -80,-34c-15.04366,-4.86707 -29.76903,10.7553 -45,15c-9.04218,2.51995 -18.63628,3.6571 -28,3c-32.76917,-2.29959 -56.86282,-27.43979 -88,-33c-13.8793,-2.47845 -27.94827,-6.15178 -42,-5c-28.77472,2.35858 -41.52838,45.43827 -66,51c-2.77718,0.63118 -5.5644,-1.52388 -8,-3c-8.61824,-5.22317 -16.49049,-11.6015 -25,-17c-22.49644,-14.27193 -43.39538,-31.78283 -68,-42c-15.54244,-6.45406 -33.17632,-7.43138 -50,-7c-15.29392,0.39215 -30.41237,10.96105 -44,17c-15.16049,6.738 -33.92533,8.15724 -50,4c-20.78449,-5.3753 -39.63385,-16.88364 -58,-28c-4.84783,-2.93422 -9.33786,-8.22649 -15,-8c-7.83042,0.31322 -13.47294,16.63508 -16,21c-2.64779,4.57346 -7.96515,9.4808 -9,15c-1.87591,10.00487 9.61858,20.38538 -13,15c-4.10171,-0.9766 -8,-2.66667 -12,-4" stroke="#ffdf6c" stroke-width="37"/><path d="M277.001,934c4.63427,-3.9728 21.56911,-18.59721 22.999,-19c52.92027,-14.90712 97.26467,-7.7171 148,10c7.58146,2.64749 -0.74988,15.51676 4,19c9.11217,6.68226 34.2576,3.61102 41,4c11.0319,0.63646 42.69962,6 53,6c10.77033,0 19.33542,-10.49441 30,-12c31.15989,-4.39904 140.39743,-3.11258 161,-3c29.00148,0.15848 58.04623,-0.67041 87,1c11.46039,0.66118 20.60838,10.1223 31,15c11.26607,5.28815 22.80702,10.50598 35,13c33.62799,6.87845 79.53031,5 113,5c21.18383,0 84.57876,4.39527 110,-3c11.65055,-3.38925 22.27617,-9.87365 34,-13c29.73376,-7.929 62.81527,-13.67793 94,-13c33.66087,0.73176 48.29865,-2.25672 73,13c16.88133,10.42671 29.77811,24.94453 50,30c7.50076,1.87519 15.35393,1.85309 23,3c8.22682,1.23402 22.79105,7.24068 19,-2c-6.78971,-16.54992 -19.42245,-30.70705 -24,-48c-1.72504,-6.5168 2.60906,-16.26063 -3,-20c-0.79112,-0.52742 -17.34744,16 -21,16c-22.75473,0 -45.5395,-2.35257 -68,-6c-16.67988,-2.7087 -32.66796,-8.6618 -49,-13c-5.00129,-1.32847 -10.46582,-1.5062 -15,-4c-2.5125,-1.38187 -2.26898,-6.12607 -5,-7c-6.35743,-2.03438 -13.71388,-3.24504 -20,-1c-16.58747,5.9241 -25.41436,27.92466 -47,24c-47.63086,-8.66016 -64.50464,-38.65217 -110,-54c-34.94338,-11.78813 -71.23855,-21.06811 -108,-24c-26.99844,-2.15325 -74.599,17.70324 -99,29c-3.69235,1.70942 -5.94864,7.37687 -10,7c-11.54517,-1.07397 -21.47965,-9.68628 -33,-11c-64.85861,-7.39616 -97.30713,-2.65279 -160,14c-24.35464,6.4692 -60.14376,29.50944 -89,20c-26.40405,-8.70134 -75.98623,-55.99082 -97,-70c-18.69274,-12.46183 -29.99047,-19.28342 -48,-5c-5.00728,3.97129 -8.23115,20.07688 -19,19c-1.69124,-0.16912 -0.38064,-3.41719 -1,-5c-3.7284,-9.52814 -10.06239,-26.20306 -20,-32c-21.94817,-12.8031 -32.02224,36.53335 -39,47c-1.6641,2.49615 0.72761,-6.08957 0,-9c-2.30089,-9.20358 -5.47668,-18.1917 -9,-27c-1.1679,-2.91974 -2.01671,-7.00557 -5,-8c-8.544,-2.848 -18.63798,4.34481 -27,1c-11.49647,-4.59859 -11.87426,-17.10181 -15,-27" stroke="#e09961" stroke-width="47" opacity="0.59"/><path d="M258.001,708c12.333,2.33333 24.47166,6.21704 36.999,7c35.55902,2.22246 166.39308,0.02835 197,1c27.72489,0.88016 55.98332,-0.28836 83,6c12.69895,2.95579 22.37643,13.44092 33,21c6.74633,4.80027 11.06611,13.63167 19,16c15.38465,4.59243 31.95002,3.58039 48,4c34.98804,0.91472 70.03924,-1.65691 105,0c35.45043,1.68012 70.73504,6.00774 106,10c17.75339,2.00982 35.95777,2.63486 53,8c2.87916,0.9064 -0.03154,6.16327 1,9c7.04701,19.37928 11.97478,35.61728 38,36c14.14846,0.20807 27.18319,-7.94745 41,-11c14.87646,-3.28666 29.809,-6.84038 45,-8c28.59124,-2.18254 57.32868,-1.57836 86,-2c14.34002,-0.21088 53.60253,2.25348 73,-3c16.97946,-4.5986 26.55437,-8.95197 38,-21c5.2119,-5.48621 5.38719,-11.828 13,-15c1.56893,-0.65372 3.30033,1 5,1c10.00555,0 20.05376,0.08787 30,-1c11.44023,-1.25127 22.63448,-4.19185 34,-6c3.30835,-0.52633 7.00371,-2.49815 10,-1c2.83039,1.4152 9.90442,20.9115 16,22c17.6916,3.15921 42.65652,-0.87536 54,-16" stroke="#e09961" stroke-width="47" opacity="0.59"/><path d="M1382.001,713c-19.92736,-16.60337 -56.6773,-10.53854 -78.001,-8c-86.98464,10.35531 -153.41258,42.2874 -242,9c-27.71996,-10.41598 -51.2934,-29.676 -76,-46c-14.36822,-9.49329 -36.86923,-36.6925 -60,-35c-33.33907,2.43944 -66.06615,10.27237 -99,16c-51.40334,8.93971 -102.6553,18.72943 -154,28c-44.65538,8.06278 -88.79481,20.05003 -134,24c-51.07764,4.46309 -68.05046,-2.12778 -107,-22c-4.94174,-2.5213 -8.81285,-7.03246 -14,-9c-9.07768,-3.44326 -24.43674,-2.05831 -33,1c-5.49125,1.96116 -9.52011,10.99269 -15,9c-4.23214,-1.53896 -13.21363,-17.00669 -14,-18c-9.21873,-11.64471 -24.2511,-28.97046 -41,-27c-2.11976,0.24938 -3.13119,2.96893 -5,4c-7.8314,4.32078 -15.94394,8.11414 -24,12c-20.27841,9.78135 -40.35022,20.02919 -61,29c-20.04105,8.70636 -39.7896,18.7499 -61,24c-22.99544,5.69194 -48.38889,-0.35305 -71,-4" stroke="#e09961" stroke-width="47" opacity="0.59"/></g></svg>