<svg version="1.1" xmlns="http://www.w3.org/2000/svg" xmlns:xlink="http://www.w3.org/1999/xlink" width="1104" height="1104"><g fill="none" fill-rule="nonzero" stroke="none" stroke-width="none" stroke-linecap="round" stroke-linejoin="round" stroke-miterlimit="10" stroke-dasharray="" stroke-dashoffset="0" font-family="none" font-weight="none" font-size="none" text-anchor="none" style="mix-blend-mode: normal"><path d="M37.13499,8.39353c16.54029,6.62565 33.08058,13.2513 62.0517,20.29766c28.97112,7.04637 70.37307,14.51345 111.77502,21.98053c41.40195,7.46708 5.73166,21.69255 -29.93863,35.91803" stroke-opacity="0.49043" stroke="#5a24ff" stroke-width="11.27869" opacity="0.5"/><path d="M977.61578,90.27327c12.38784,-12.23909 24.77568,-24.47817 37.16351,-36.71726c12.38784,-12.23909 -4.30669,41.26708 -21.00122,94.77324" stroke-opacity="0.47368" stroke="#ce5888" stroke-width="9.897" opacity="0.5"/><path d="M1035.15662,1020.23792c-2.66528,-39.03302 -4.69299,-7.46582 -13.54681,-25.81354" stroke-opacity="0.52244" stroke="#9d702e" stroke-width="11.76695" opacity="0.5"/><path d="M172.69803,866.10583c53.49005,-12.35724 97.64972,6.7381 46.48308,3.341" stroke-opacity="0.47696" stroke="#879c81" stroke-width="9.85714" opacity="0.5"/><path d="M1072.10645,595.6192c-8.41908,22.29179 -16.83816,44.58358 -14.54529,51.07324c2.29287,6.48966 15.29768,-2.82279 28.30249,-12.13525c13.00481,-9.31246 34.26284,-70.10833 55.52087,-130.90421" stroke-opacity="0.5282" stroke="#682d1e" stroke-width="17.48369" opacity="0.5"/><path d="M537.06714,861.19525c65.81616,57.62775 125.41608,4.69415 108.17926,13.06451" stroke-opacity="0.51338" stroke="#6824d9" stroke-width="16.2125" opacity="0.5"/><path d="M647.04004,28.33429c11.93805,3.97185 23.8761,7.94371 35.81415,11.91556c11.93805,3.97185 19.0329,10.51111 26.12775,17.05037" stroke-opacity="0.50393" stroke="#cfc0c4" stroke-width="11.34403" opacity="0.5"/><path d="M994.07135,531.93121c16.79504,18.71112 66.46588,27.65137 125.39825,14.89581" stroke-opacity="0.52205" stroke="#7bffd9" stroke-width="15.46963" opacity="0.5"/><path d="M621.94098,215.90277c-12.53641,-57.39695 -25.07281,-114.79389 -31.15186,-134.71787c-6.07904,-19.92398 -5.70071,-2.375 -5.32239,15.17399c0.37833,17.54898 -37.95462,-26.37373 -76.28757,-70.29644" stroke-opacity="0.47375" stroke="#a03b3e" stroke-width="13.52901" opacity="0.5"/><path d="M625.55115,154.27966c-37.8067,-17.74825 -75.6134,-35.4965 -113.4201,-53.24474c-37.8067,-17.74825 12.12549,60.36437 62.05768,138.477" stroke-opacity="0.52944" stroke="#6642d4" stroke-width="10.10269" opacity="0.5"/><path d="M527.4104,572.18579c-23.11249,9.56305 -62.20721,-9.18323 -25.92926,67.38849" stroke-opacity="0.52421" stroke="#561567" stroke-width="14.50938" opacity="0.5"/><path d="M919.83136,158.5621c15.19655,7.83935 30.39311,15.6787 45.58966,23.51805c15.19655,7.83935 -3.59612,5.32795 -22.38879,2.81654" stroke-opacity="0.47093" stroke="#e42e72" stroke-width="12.07033" opacity="0.5"/><path d="M90.77412,268.77798c24.52008,7.91717 49.04016,15.83435 60.32552,4.91745c11.28536,-10.9169 9.33601,-40.66787 7.38666,-70.41884c-1.94935,-29.75097 -28.91222,-5.16851 -55.87509,19.41394" stroke-opacity="0.52645" stroke="#00ffa1" stroke-width="22.89649" opacity="0.5"/><path d="M733.48608,293.64505c-17.1086,-13.77819 -34.21719,-27.55639 -16.10291,-32.02039c18.11429,-4.464 71.45146,0.38619 124.78864,5.23639c53.33717,4.85019 83.82584,43.12683 114.31451,81.40347" stroke-opacity="0.50459" stroke="#403c29" stroke-width="12.48557" opacity="0.5"/><path d="M539.23535,85.99475c-20.67097,-19.29884 -41.34194,-38.59768 -52.90765,-54.89375c-11.56571,-16.29606 -14.02617,-29.58935 -16.48663,-42.88263c-2.46046,-13.29328 3.11003,14.97223 8.68051,43.23774" stroke-opacity="0.50326" stroke="#548f7b" stroke-width="9.85714" opacity="0.5"/><path d="M498.17062,140.38202c27.34742,9.66381 54.69484,19.32763 82.04227,28.99144c27.34742,9.66381 -22.78903,-3.89892 -72.92548,-17.46165" stroke-opacity="0.47308" stroke="#5f884f" stroke-width="9.85714" opacity="0.5"/><path d="M892.5874,835.71558c-57.33582,13.32697 -61.38458,-1.6723 -104.93158,53.63898" stroke-opacity="0.51497" stroke="#c24f09" stroke-width="11.65702" opacity="0.5"/><path d="M1037.8009,675.37952c28.06664,2.93907 56.13328,5.87814 49.30432,8.25916c-6.82896,2.38101 -48.55352,4.20396 -90.27808,6.02692c-41.72456,1.82295 20.79812,-58.45702 83.3208,-118.737" stroke-opacity="0.47205" stroke="#353b00" stroke-width="13.57971" opacity="0.5"/><path d="M237.3403,905.20935c67.90091,-2.96002 31.99802,17.44 41.59305,16.97595" stroke-opacity="0.47438" stroke="#e1c282" stroke-width="10.5713" opacity="0.5"/><path d="M811.10681,578.39624c1.39667,72.37366 -16.83258,96.25189 55.78864,123.258" stroke-opacity="0.52625" stroke="#674a57" stroke-width="19.75753" opacity="0.5"/><path d="M184.0822,412.19775c-47.8959,17.34789 -95.7918,34.69577 -112.69655,21.85449c-16.90475,-12.84128 -2.81834,-55.87172 11.26807,-98.90216c14.08641,-43.03044 9.04044,-22.58297 3.99446,-2.1355" stroke-opacity="0.47122" stroke="#bcd30e" stroke-width="9.85714" opacity="0.5"/><path d="M947.46503,1084.36768c6.35114,-31.44913 12.70228,-62.89825 30.52289,-67.95935c17.82061,-5.0611 47.11068,16.26584 76.40076,37.59277c29.29007,21.32693 41.92079,-7.20161 54.55151,-35.73016" stroke-opacity="0.47079" stroke="#eed13c" stroke-width="9.85714" opacity="0.5"/><path d="M530.8728,500.69196c23.42348,-4.91131 46.84696,-9.82261 70.27045,-14.73392c23.42348,-4.91131 50.06605,-32.35002 76.70862,-59.78873" stroke-opacity="0.49564" stroke="#c8c17a" stroke-width="22.0422" opacity="0.5"/><path d="M504.00009,723.25555c80.0961,2.01184 49.96524,-31.16748 -14.72217,-34.8089" stroke-opacity="0.51806" stroke="#915a66" stroke-width="12.0333" opacity="0.5"/><path d="M670.65076,925.30365c-1.91451,35.08767 -3.82902,70.17533 -5.74353,105.263c-1.91451,35.08767 -30.1725,-28.72286 -58.43048,-92.53339" stroke-opacity="0.47259" stroke="#592932" stroke-width="9.85714" opacity="0.5"/><path d="M66.45598,331.29416c68.55463,5.6012 79.57124,-27.31061 7.95378,-30.04037" stroke-opacity="0.5278" stroke="#c68a73" stroke-width="12.43257" opacity="0.5"/><path d="M941.24554,796.5473c-37.56247,15.59483 -75.12495,31.18966 -79.7746,42.72253c-4.64965,11.53288 23.61353,19.0038 51.87671,26.47473c28.26318,7.47093 3.88891,40.851 -20.48535,74.23108" stroke-opacity="0.47395" stroke="#1effb5" stroke-width="9.85714" opacity="0.5"/><path d="M995.1543,926.58521c2.43891,5.79542 4.87783,11.59084 19.42407,29.83881c14.54624,18.24797 41.19982,48.94848 67.85339,79.64899c26.65357,30.70051 -38.74407,2.0766 -104.14172,-26.5473" stroke-opacity="0.47512" stroke="#d28ca3" stroke-width="10.28212" opacity="0.5"/><path d="M439.90802,862.28931c-26.52347,-60.86639 -20.84903,-94.46252 -15.8717,-60.27222" stroke-opacity="0.47069" stroke="#a99ce4" stroke-width="9.85714" opacity="0.5"/><path d="M319.15668,1063.60571c-33.07339,32.15446 -66.14678,64.30892 -99.22017,96.46338c-33.07339,32.15446 29.20321,20.21328 91.47981,8.27209" stroke-opacity="0.47978" stroke="#9c9d4d" stroke-width="9.93564" opacity="0.5"/><path d="M52.64369,148.30457c-14.51649,-32.71852 -29.03297,-65.43704 -33.39542,-78.00635c-4.36245,-12.56931 1.42913,-4.9894 7.22071,2.5905c5.79158,7.5799 6.92121,12.06169 8.05085,16.54348" stroke-opacity="0.47411" stroke="#17ffb2" stroke-width="11.58059" opacity="0.5"/><path d="M1079.63025,605.74054c-59.18347,1.22026 -118.36694,2.44052 -142.51233,-1.51251c-24.14539,-3.95303 -13.25269,-13.07936 -2.35999,-22.20569c10.8927,-9.12633 -5.55005,45.23429 -21.9928,99.59491" stroke-opacity="0.52475" stroke="#3e85c2" stroke-width="9.85714" opacity="0.5"/><path d="M592.20404,559.89532c1.78231,9.08624 3.56462,18.17248 3.15259,22.16864c-0.41204,3.99616 -3.01842,2.90224 -6.75781,15.31854c-3.73939,12.4163 -8.6118,38.34282 -2.94952,51.6817c5.66227,13.33888 21.85922,14.09012 43.38995,14.77637c21.53073,0.68625 48.39524,1.30752 54.85693,-12.89642c6.4617,-14.20394 -7.47941,-43.23309 2.62701,-63.44006c10.10643,-20.20698 44.26039,-31.59178 59.86902,-54.01215c15.60862,-22.42036 12.67191,-55.87628 20.5799,-71.42343c7.90799,-15.54715 26.66068,-13.18553 23.66895,-11.10855c-2.99174,2.07698 -27.7279,3.86932 -38.44312,-6.82269c-10.71522,-10.69201 -7.40949,-33.86838 -4.10376,-57.04474c3.30573,-23.17636 34.9773,-27.77023 66.64886,-32.36411" stroke-opacity="0.99912" stroke="#190b18" stroke-width="9.85714"/><path d="M482.55188,438.90802c12.79648,-4.14247 25.59296,-8.28493 35.11859,-12.15891c9.52563,-3.87397 15.7804,-7.47945 12.6261,-16.48434c-3.1543,-9.0049 -15.71769,-23.40921 -26.40775,-32.26093c-10.69006,-8.85172 -19.50679,-12.15084 -22.36981,-4.25275c-2.86302,7.89809 0.22766,26.9934 -0.41028,34.4931c-0.63794,7.49971 -5.0045,3.40381 -26.8002,23.46356c-21.7957,20.05975 -61.02055,64.27515 -87.63596,82.52338c-26.61541,18.24823 -40.62138,10.5293 -54.62735,2.81036c-14.00597,-7.71893 -12.36619,-25.54764 -10.72641,-43.37634" stroke="#1e1010" stroke-width="12.54734"/><path d="M471,534c3.90353,0 -7.62174,2.04427 -11,4c-7.16568,4.14833 -13.43038,9.87342 -19,16c-16.55565,18.21122 -46.06845,58.96829 -41,86c2.63812,14.06998 12.01235,16.97276 24,24c19.55991,11.46615 57.22788,28.3001 73,45c4.37612,4.63354 4.35837,9.2543 6,15c5.5513,19.42954 -1.7746,39.36851 -20,50c-7.25086,4.22967 -16.77007,5 -25,5c-26.31278,0 -35.18019,-12.50252 -49,-34c-5.65077,-8.79008 -6.87681,-26.61646 -18,-29c-14.71016,-3.15218 -33.64197,0.43607 -48,3c-27.44886,4.90158 -54.82,11.564 -82,17" stroke="#181818" stroke-width="8"/></g></svg>