<svg version="1.1" xmlns="http://www.w3.org/2000/svg" xmlns:xlink="http://www.w3.org/1999/xlink" width="999" height="999"><g fill="none" fill-rule="nonzero" stroke="#ff6c6c" stroke-width="8" stroke-linecap="round" stroke-linejoin="round" stroke-miterlimit="10" stroke-dasharray="" stroke-dashoffset="0" font-family="none" font-weight="none" font-size="none" text-anchor="none" style="mix-blend-mode: normal"><path d="M588.26272,632.89329c-1.62493,-1.13779 15.46723,-24.80927 16.61771,-26.45232c16.70255,-23.85371 33.40509,-47.70742 50.10764,-71.56112c19.38688,-27.68734 38.77377,-55.37468 58.16065,-83.06202c2.73636,-3.90792 12.45046,-22.62276 17.00081,-24.27967c10.88786,-3.96458 14.82435,4.20238 22.74727,8.31018c15.92174,8.25493 33.5831,13.30571 49.71128,21.47735" vector-effect="non-scaling-stroke"/><path d="M444.75738,530.50536c0,0 5.81687,-8.30736 11.63213,-16.6124c11.63213,-16.6124 23.26426,-33.22481 34.89639,-49.83721c16.40429,-23.42775 32.80857,-46.8555 49.21286,-70.28325c3.87738,-5.53747 5.4583,-13.85896 11.63213,-16.6124c15.19475,-6.77666 36.9568,10.64216 48.0503,18.40992c45.57762,31.91379 91.15524,63.82759 136.73286,95.74138" vector-effect="non-scaling-stroke"/></g></svg>