<svg version="1.1" xmlns="http://www.w3.org/2000/svg" xmlns:xlink="http://www.w3.org/1999/xlink" width="1104" height="1104"><g fill="none" fill-rule="nonzero" stroke="none" stroke-width="none" stroke-linecap="none" stroke-linejoin="none" stroke-miterlimit="10" stroke-dasharray="" stroke-dashoffset="0" font-family="none" font-weight="none" font-size="none" text-anchor="none" style="mix-blend-mode: normal"><path d="M413.53426,507.80488c2.18938,3.27408 -2.22495,-0.34353 -3.52775,1.73748c-6.47383,-1.36845 0.13845,-1.31964 -9.23325,-5.1423c-20.10835,3.3882 -33.22033,18.27022 -44.55106,32.28731c-10.7209,9.50707 -16.16217,24.37084 -23.19458,39.65298c-2.98334,13.73293 -0.77193,63.90308 11.15938,70.36958c6.39757,15.32387 45.0365,33.45354 51.95659,44.02677c47.6498,5.73318 81.14884,13.20981 121.8937,18.04039c25.93445,-6.40731 45.93364,-6.96615 61.96485,4.2391" fill="none" stroke="#0f1a18" stroke-width="9.85714" stroke-linecap="round" stroke-linejoin="round"/><path d="M588.57326,864.52577c9.18414,-3.70605 -4.84438,-2.49813 -4.25651,-6.09408c-11.24879,3.60844 -21.57051,5.60947 -27.23664,3.9543c-2.52261,-12.61254 0.99988,-16.49285 2.59954,-20.91838c0.12529,-13.67352 -6.29522,-30.37671 6.19219,-39.53047c6.82901,1.65494 10.35642,2.79353 7.36988,2.70441c11.05356,-1.28042 23.18059,-2.03592 35.66198,5.5942c23.03466,-7.20364 41.16703,-8.34622 51.09027,-7.61561c46.94439,9.24927 111.58722,34.98604 122.16609,83.63215c1.86686,14.36029 -0.02549,50.12823 -6.17545,55.48335c-15.67305,30.15764 -55.40304,46.87182 -85.97987,45.51145c-14.16333,4.56458 -45.31043,6.34421 -56.65368,-5.34039c-15.02155,-13.51116 -14.87051,-23.27384 -9.01309,-43.14591" fill="none" stroke="#141513" stroke-width="9.85714" stroke-linecap="round" stroke-linejoin="round"/><path d="M325.63474,855.30485c4.35807,-0.22666 0.18489,5.34009 -2.39724,3.13247c-1.14002,-6.45115 -2.28654,-2.45586 0.68018,2.6186c-2.56104,1.9244 -8.16644,3.91881 -21.23187,3.90903c-9.22532,5.20532 -15.39417,17.05221 -9.18608,32.23937c4.57274,8.34201 0.53504,22.15488 1.87047,16.3195c4.87159,3.20362 24.13641,11.99151 34.97042,13.4343c12.36629,0.71203 53.43611,0.9678 75.91125,2.47203c5.1561,-7.0027 22.42983,-12.83785 27.53374,-16.31108c9.35689,-24.59916 -9.41021,-29.51841 -22.50255,-30.39544c-50.22949,-9.61762 -97.64868,-11.05702 -142.71828,-6.23058" fill="none" stroke="#161217" stroke-width="9.85714" stroke-linecap="round" stroke-linejoin="round"/><path d="M177.74888,899.1021c9.33083,3.46187 -2.51377,-9.52632 8.86684,-6.74264c-1.81529,-15.9507 -0.89961,-27.89596 -3.73401,-39.26109c-6.69658,-19.68684 -0.20356,-48.09456 -2.14262,-79.78396c-3.06836,-75.212 5.81404,-143.10335 -3.77669,-218.41217c6.72943,-30.55702 7.20244,-58.87453 5.216,-92.32998c-0.79831,-5.91938 1.71601,-11.77142 -5.26487,-9.45845c-0.11292,-0.56083 -1.54102,-8.63354 1.76039,-3.40287c8.34195,-2.72276 8.13599,-2.26515 7.48436,-14.14667c16.34789,0.49999 28.84244,4.7908 35.51211,14.01694c46.62635,11.68148 72.10442,46.25176 87.42709,80.50734c3.32846,17.16833 5.19383,59.60047 3.3951,74.47824c-8.96511,25.64657 -46.60802,46.82797 -68.96526,45.71232c-1.18358,2.43255 -43.75782,8.5959 -48.24824,2.10684c-42.02126,-27.60857 -40.36346,-71.65707 -50.63755,-127.77007" fill="none" stroke="#161217" stroke-width="9.85714" stroke-linecap="round" stroke-linejoin="round"/><path d="M165.23525,350.44872c10.05109,49.54923 42.18476,52.56969 76.11707,38.65893c-1.6069,-17.19442 11.418,-40.45078 38.70821,-50.87274" fill="none" stroke="#f86c5c" stroke-width="9.85714" stroke-linecap="round" stroke-linejoin="round"/><path d="M314.30448,324.4702c6.89337,-7.03086 14.4789,-8.86306 20.25653,-2.80285c45.36939,-24.59401 42.59387,5.75879 64.31351,15.82744" fill="none" stroke="#f86c5b" stroke-width="9.85714" stroke-linecap="round" stroke-linejoin="round"/><path d="M131.73157,233.5194c27.1493,-0.19987 50.07085,-10.09954 74.07831,-15.85241c64.2598,-8.07977 132.42943,-4.38543 201.42575,-9.55187c32.71511,2.5438 72.88639,-7.68984 103.07216,20.77049c10.66544,13.52108 24.24522,24.16552 26.18556,46.34774c8.1752,10.25935 5.61951,30.48469 7.50284,40.22184c0.97228,21.43541 -1.16788,44.19662 -5.72295,68.60759c2.90284,17.47336 4.00033,34.88614 2.98105,50.478" fill="none" stroke="#140e16" stroke-width="9.85714" stroke-linecap="round" stroke-linejoin="round"/><path d="M541.88615,490.68345c5.57724,16.47277 -1.31867,22.90121 -4.68051,34.55994c0.17447,21.91961 -0.19294,49.50399 -0.62735,66.29705c2.48467,9.12981 3.91136,13.72887 12.65703,23.33085c-6.30932,7.74199 -2.85775,34.22915 4.44497,37.04622c14.95609,2.36261 35.20101,8.54927 43.1928,11.98233c9.47356,-5.94195 12.85124,-11.23142 12.86767,-19.86251c38.55147,-13.18586 80.25752,-23.25598 119.74588,-27.22104" fill="none" stroke="#141216" stroke-width="9.85714" stroke-linecap="round" stroke-linejoin="round"/><path d="M462.45407,210.60825c29.61764,-0.93309 8.66914,14.1061 -21.85621,36.59919" fill="none" stroke-opacity="0.99481" stroke="#9f9091" stroke-width="9.85714" stroke-linecap="round" stroke-linejoin="round"/><path d="M418.58083,273.65958c-7.23388,11.48187 -15.47891,15.39133 -30.81102,18.43616" fill="none" stroke="#9f9391" stroke-width="9.85714" stroke-linecap="round" stroke-linejoin="round"/><path d="M335.87828,771.5593c54.17548,29.57594 4.03973,5.85509 54.28332,-33.18972c18.5393,16.85518 -20.93101,33.78511 -2.8285,36.65572" fill="none" stroke="#3e1eca" stroke-width="9.85714" stroke-linecap="round" stroke-linejoin="round"/><path d="M266.3389,675.40666c26.09655,17.55337 3.54899,5.46861 44.08092,-4.98941c58.26859,49.83207 94.60052,49.93585 78.89461,59.26394c-22.78825,20.41887 -38.56297,-26.0594 -6.88083,-4.61347" fill="none" stroke-opacity="0.00475" stroke="#5eb904" stroke-width="9.85714" stroke-linecap="round" stroke-linejoin="round"/><path d="M855.65016,448.92516c13.53925,23.81119 10.10376,54.15237 6.86345,88.79217c5.44718,57.59531 1.71473,101.85311 -36.78951,153.34952c3.07261,6.66744 0.19275,7.47814 -1.33374,10.1084c-23.44591,18.05498 -29.81968,28.96581 -55.45508,34.63477" fill="none" stroke="#0f1117" stroke-width="9.85714" stroke-linecap="round" stroke-linejoin="round"/><path d="M533.61536,519.88555c-28.77679,33.28658 14.11756,31.1888 15.1808,74.21649" fill="none" stroke-opacity="0.25978" stroke="#36437c" stroke-width="9.85714" stroke-linecap="round" stroke-linejoin="round" opacity="0.5"/><path d="M177.61664,435.051c4.7346,-3.7567 11.00752,9.62999 44.33077,2.49177c-20.31409,75.26566 4.15354,23.98693 6.17604,-16.66773" fill="none" stroke-opacity="0.51651" stroke="#2cefdf" stroke-width="9.85714" stroke-linecap="round" stroke-linejoin="round" opacity="0.5"/><path d="M291.72467,516.17359c-35.54966,15.03938 -1.36467,90.6697 10.26969,60.48814c-44.45839,18.85143 -16.01229,13.40771 -50.6912,4.43177c29.37524,-55.4277 19.93287,-78.55437 9.29738,-27.28688" fill="none" stroke-opacity="0.35475" stroke="#b27c46" stroke-width="9.85714" stroke-linecap="round" stroke-linejoin="round" opacity="0.5"/><path d="M178.69029,432.30571c5.19641,31.98093 63.61362,38.46483 70.02552,100.40569" fill="none" stroke-opacity="0.50545" stroke="#ff2709" stroke-width="13.48223" stroke-linecap="round" stroke-linejoin="round" opacity="0.5"/><path d="" fill="none" stroke-opacity="0.99947" stroke="#d45c56" stroke-width="13.34517" stroke-linecap="round" stroke-linejoin="round" opacity="0.5"/><path d="M873.27223,529.82564c-31.3039,-13.12006 -8.05638,-41.03952 33.03262,-34.21877c-25.18959,-49.2865 -8.93792,-15.70832 0.16184,-21.57566c-32.2781,-36.81564 -2.09609,-12.64217 -8.22198,5.79026" fill="none" stroke-opacity="0.56741" stroke="#270099" stroke-width="9.85714" stroke-linecap="round" stroke-linejoin="round" opacity="0.5"/><path d="M893.19791,476.19208c-7.35886,11.90766 -27.33035,44.74546 4.99272,3.85752c16.74508,7.26933 43.37731,-32.48367 80.84381,-51.4173c10.00785,45.71134 48.98918,3.75155 70.36886,52.26849" fill="none" stroke-opacity="0" stroke="#aeb20f" stroke-width="9.85714" stroke-linecap="round" stroke-linejoin="round" opacity="0.5"/><path d="M248.42009,528.93015c-41.19664,-42.80256 -41.40696,-87.7951 -44.75433,-109.18704" fill="none" stroke-opacity="0.85341" stroke="#178ebf" stroke-width="12.28549" stroke-linecap="round" stroke-linejoin="round" opacity="0.5"/><path d="M256.66634,552.05949c-46.05653,25.61145 -40.64898,-48.63637 -23.93282,-37.75874" fill="none" stroke-opacity="0.04481" stroke="#a4ba9d" stroke-width="9.85714" stroke-linecap="round" stroke-linejoin="round" opacity="0.5"/><path d="M231.82335,540.97005c22.3651,-53.85605 63.22907,-31.46875 83.43464,15.03449c28.24549,-36.22992 73.9178,-26.67213 57.65782,-28.9361" fill="none" stroke-opacity="0.68711" stroke="#677d6b" stroke-width="10.55074" stroke-linecap="round" stroke-linejoin="round" opacity="0.5"/><path d="M893.06322,490.13927c29.2209,27.48553 83.88378,42.63723 78.55588,44.27551" fill="none" stroke-opacity="0.27038" stroke="#7ea352" stroke-width="9.85714" stroke-linecap="round" stroke-linejoin="round" opacity="0.5"/><path d="M208.11627,434.04714c60.31976,-19.03944 60.27321,26.3125 57.55799,55.17193c-29.58555,43.174 -71.49096,38.89744 -24.28282,41.48995c-62.48363,18.65711 -28.92785,-3.17056 -57.14292,-23.88657" fill="none" stroke-opacity="0.56445" stroke="#08fab5" stroke-width="14.55352" stroke-linecap="round" stroke-linejoin="round" opacity="0.5"/><path d="M270.50334,543.98107c25.9058,30.23153 58.33806,-6.10845 85.73128,33.69543c-41.84091,-21.19675 -45.18773,21.2524 -20.0116,60.39211" fill="none" stroke-opacity="0.79614" stroke="#093ce3" stroke-width="16.21534" stroke-linecap="round" stroke-linejoin="round" opacity="0.5"/><path d="M1029.29442,947.12153c-30.41635,14.78985 -14.98493,-22.24731 -20.97756,-71.41397c-28.59791,-42.13328 3.64221,-50.71858 -5.57029,-116.59641" fill="none" stroke-opacity="0.28895" stroke="#36da6b" stroke-width="9.85714" stroke-linecap="round" stroke-linejoin="round" opacity="0.5"/><path d="M180.90428,191.9694c15.72915,-5.87571 17.58919,-55.11938 21.03474,7.07659" fill="none" stroke-opacity="0.11222" stroke="#8813cb" stroke-width="9.85714" stroke-linecap="round" stroke-linejoin="round" opacity="0.5"/><path d="M881.13684,484.78474c21.05006,-37.74592 74.36852,-95.88604 85.2534,-50.38542c38.93975,-39.43624 -8.59612,-0.65488 49.03889,-64.1713" fill="none" stroke-opacity="0.63026" stroke="#15ffb7" stroke-width="9.85714" stroke-linecap="round" stroke-linejoin="round" opacity="0.5"/><path d="M283.40974,661.53415c5.29183,70.12663 -9.80254,120.3463 29.33783,118.70054c-1.66222,-49.72874 16.14384,-61.73401 13.43105,-124.04469c36.59883,-18.15328 4.50619,-55.35994 36.73834,-93.36238" fill="none" stroke-opacity="0.46795" stroke="#801995" stroke-width="14.75168" stroke-linecap="round" stroke-linejoin="round" opacity="0.5"/><path d="M205.42141,119.19159c-30.15879,-39.39296 -19.64139,-68.72104 -17.85701,-108.98186c-52.71632,13.361 -72.58256,52.56372 -93.44701,52.98976" fill="none" stroke-opacity="0.00941" stroke="#cad0ad" stroke-width="10.88914" stroke-linecap="round" stroke-linejoin="round" opacity="0.5"/><path d="M113.07613,912.05149c2.71804,-33.35524 32.2243,-59.20505 4.24571,-48.22534c4.14189,-28.1955 46.47776,-29.21489 -8.08664,-24.29707" fill="none" stroke-opacity="0.14734" stroke="#ccda84" stroke-width="11.42887" stroke-linecap="round" stroke-linejoin="round" opacity="0.5"/><path d="M66.89844,820.9515c-70.1531,-36.83155 -92.65681,-27.3044 -131.21602,-5.95902" fill="none" stroke-opacity="0.22966" stroke="#af20f1" stroke-width="11.12611" stroke-linecap="round" stroke-linejoin="round" opacity="0.5"/><path d="M222.86711,365.78248c6.07917,-12.61187 -19.73581,-13.44859 -52.64906,20.03552" fill="none" stroke-opacity="0.4844" stroke="#ffcb9a" stroke-width="9.85714" stroke-linecap="round" stroke-linejoin="round" opacity="0.5"/><path d="M128.04479,665.8589c-6.38545,-45.14239 -25.65105,-41.79645 -35.66867,12.61345" fill="none" stroke-opacity="0.42329" stroke="#3b16ef" stroke-width="9.85714" stroke-linecap="round" stroke-linejoin="round" opacity="0.5"/><g fill="#000000" stroke="none" stroke-width="1" stroke-linecap="butt" stroke-linejoin="miter" font-family="Poppins, sans-serif" font-weight="400" font-size="16" text-anchor="start" opacity="0.5"><g/></g></g></svg>