<svg version="1.1" xmlns="http://www.w3.org/2000/svg" xmlns:xlink="http://www.w3.org/1999/xlink" width="1084.99219" height="1084.99219"><g fill="none" fill-rule="nonzero" stroke="#181818" stroke-width="12" stroke-linecap="round" stroke-linejoin="round" stroke-miterlimit="10" stroke-dasharray="" stroke-dashoffset="0" font-family="none" font-weight="none" font-size="none" text-anchor="none" style="mix-blend-mode: normal"><path d="M476.53516,472.99609c0.59679,-0.16062 1.19358,-0.32125 0.001,0c-1.19258,0.32125 -4.17454,1.12436 -7.001,2c-2.82646,0.87564 -5.49741,1.82381 -11,-1c-5.50259,-2.82381 -13.83682,-9.4196 -19,-15c-5.16318,-5.5804 -7.15529,-10.14542 -9,-15c-1.84471,-4.85458 -3.542,-9.99874 -4,-15c-0.458,-5.00126 0.3233,-9.85964 0,-13c-0.3233,-3.14036 -1.75121,-4.5627 0,-8c1.75121,-3.4373 6.68155,-8.88957 14,-13c7.31845,-4.11043 17.025,-6.87902 33,-10c15.975,-3.12098 38.21846,-6.59436 64,-8c25.78154,-1.40564 55.10118,-0.74356 85,0c29.89882,0.74356 60.37683,1.56858 80,5c19.62317,3.43142 28.39149,9.46923 41,19c12.60851,9.53077 29.0572,22.55451 38,31c8.9428,8.44549 10.3797,12.31274 13,18c2.6203,5.68726 6.424,13.19452 8,19c1.576,5.80548 0.92431,9.90917 1,15c0.07569,5.09083 0.87877,11.16881 -1,16c-1.87877,4.83119 -6.43938,8.4156 -11,12c-4.56062,3.5844 -27.78031,27.2922 -51,51" opacity="0.75"/></g></svg>